<?xml version="1.0" encoding="utf-8"?>
<!-- Generator: Adobe Illustrator 24.0.0, SVG Export Plug-In . SVG Version: 6.00 Build 0)  -->
<svg version="1.1" id="Layer_1" xmlns="http://www.w3.org/2000/svg" xmlns:xlink="http://www.w3.org/1999/xlink" x="0px" y="0px"
	 viewBox="0 0 1075.8 1009.9" style="enable-background:new 0 0 1075.8 1009.9;" xml:space="preserve">
<style type="text/css">
	.st0{fill:#FEFEFE;}
	.st1{fill:#040404;}
	.st2{fill:#010101;}
</style>
<path d="M609.9,311.8c-1.2,23.3-12.3,41.6-31.5,53.3c-11.4,6.9-16.3,14.1-15.1,27.2c1.5,15.4-3.9,28.2-21.6,27.9
	c-16.5-0.3-21.4-12.6-19.9-27.2c1.4-13.5-5.6-15.7-16.7-14.9c-7.1,0.5-14.4,0.5-21.5-0.3c-11.7-1.5-17.8-8.6-17.6-20.5
	c0.2-11.7,6.3-19.5,18-20.3c15-1.1,30.1-0.2,45.2-0.5c24.4-0.5,37.5-10.3,38.6-28.4c1.1-18.7-10-29.1-34.5-32.2
	c-33.6-4.3-59.8-26.4-66.1-55.8c-7.2-33.3,6.4-63.9,39.1-80.4c14.9-7.5,10.5-18.5,10.6-28.9c0.1-15.1,5.5-24.8,21.3-27.1
	c14.3,2.4,22,11.3,20.4,25.3c-2,17.9,3.9,24.5,22.1,22.3c16.2-1.9,29.6,3.8,29.1,22.7c-0.5,18.8-14.9,19.9-29.5,19.5
	c-12.2-0.4-24.4-0.3-36.6,0c-22.4,0.5-35.1,11-35.7,28.8c-0.6,18.4,10.8,29.3,33.2,31.6C584.3,238.4,612,269.8,609.9,311.8z"/>
<path d="M1075.7,436.5c0-12.5-2.6-24-8.9-34.9c-16.9-29.5-42.6-43.4-76.2-43.4H769.1c24.2-57.5,29.1-114.3,13-172.4
	c-16.4-58.9-49.6-106.2-99.7-141.1c-85.3-59.5-203.2-59.4-289.4,0c-42.5,29.3-73.1,68.4-91.9,116.5c-25.6,65.4-20.9,130.5,5.3,197
	c-76.8,0-150-0.3-223.3,0.1c-46.2,0.3-82.7,33-82.8,75.8C-0.1,600-0.1,766,0.5,932c0.2,44.8,35.4,77.9,80.3,77.9
	c304.7,0.1,609.3,0.1,914,0c44.7,0,80.5-33.3,80.7-77.6C1076.1,767,1075.7,601.7,1075.7,436.5z M538.3,42.1
	c117,0.3,213,97,211.4,213c-1.6,114.3-97.7,208.2-212.5,207.7c-117.2-0.5-211.9-96.1-211.1-213.3C326.9,135.5,422.7,41.8,538.3,42.1
	z M85.3,400.2c78.3-0.9,156.6-0.3,234.9-0.5c6.8,0,12.6,0.8,17,6.9c15.1,20.8,34.9,37.1,58.7,56.4c-117.7,0-229.7-0.2-341.8,0.3
	c-11.6,0-14.3-3.6-14.2-14.7C40.3,418.6,55,400.6,85.3,400.2z M1036.2,652.4c-1.1,87.7-0.5,175.3-0.5,263
	c0,37.9-15.2,53.4-53.6,53.4c-296,0.1-592.1,0.1-888.1,0c-38.7,0-53.6-15.1-53.7-53.2c-0.1-87.7,0.6-175.3-0.5-263
	c-0.2-18.6,5.4-22,22.8-21.9c158.8,0.7,317.6,0.4,476.4,0.4c158.1,0,316.2,0.3,474.2-0.4C1030.2,630.7,1036.5,633.5,1036.2,652.4z
	 M1008,463H679.4c24.3-19,43.6-35,58.4-55.3c5.7-7.7,12.7-8,20.8-8c75.4,0.1,150.9,0.1,226.3,0c20.7,0,38.4,5.2,47.1,26.6
	C1043.1,453.9,1037.2,463,1008,463z M938.2,757.6c-69.6-0.1-139.3,0-208.9,0l0,0c-70.3,0-140.7,0-211,0c-28.2,0-33.5,5.5-33.5,34.3
	c-0.1,26.6-0.1,53.1,0,79.7c0.1,28.8,5.2,34,33.5,34.1c94.8,0,189.5,0,284.3,0c45.9,0,91.9,0.2,137.8-0.1c25.4-0.1,31.2-6.3,31.3-32
	c0.1-27.3,0.1-54.5,0-81.8C971.6,762.6,966.8,757.7,938.2,757.6z M391.4,757.5c-43.1,0.3-86.2,0.1-129.3,0.1h0
	c-43.1,0-86.2,0.1-129.2-0.1c-15.3-0.1-28.2,3.8-28.3,21.7c-0.1,18.4,13.9,21.5,28.5,21.6c86.2,0.2,172.3,0.1,258.5,0
	c14.6,0,29-2.8,29.3-20.9C421.4,761,407.6,757.3,391.4,757.5z M393.4,863.2c-43.8,0.3-87.6,0.1-131.3,0.1l0,0
	c-43.8,0-87.6,0.1-131.3-0.1c-15-0.1-25.9,5.3-26,21.6c-0.1,16.8,11.6,21,26.3,21c87.6-0.1,175.1-0.1,262.7,0
	c14.4,0,26.8-3.3,27.1-20.2C421.1,867.9,409.3,863.1,393.4,863.2z"/>
<path class="st0" d="M420.8,885.6c-0.3,17-12.6,20.3-27.1,20.2c-87.6-0.1-175.1-0.1-262.7,0c-14.7,0-26.4-4.2-26.3-21
	c0.1-16.3,10.9-21.6,26-21.6c43.8,0.2,87.6,0.1,131.3,0.1l0,0c43.8,0,87.6,0.2,131.3-0.1C409.3,863.1,421.1,867.9,420.8,885.6z"/>
<path class="st0" d="M421,780c-0.4,18-14.7,20.8-29.3,20.9c-86.2,0.1-172.3,0.1-258.5,0c-14.6,0-28.6-3.2-28.5-21.6
	c0.1-17.9,12.9-21.8,28.3-21.7c43.1,0.2,86.2,0.1,129.2,0.1h0c43.1,0,86.2,0.2,129.3-0.1C407.6,757.3,421.4,761,421,780z"/>
<path class="st0" d="M971.7,873.7c-0.1,25.7-5.9,31.8-31.3,32c-45.9,0.3-91.9,0.1-137.8,0.1c-94.8,0-189.5,0-284.3,0
	c-28.3,0-33.5-5.3-33.5-34.1c-0.1-26.6-0.1-53.1,0-79.7c0.1-28.8,5.3-34.3,33.5-34.3c70.3-0.1,140.7,0,211,0l0,0
	c69.6,0,139.3,0,208.9,0c28.6,0,33.4,5,33.5,34.2C971.8,819.1,971.8,846.4,971.7,873.7z"/>
<path class="st0" d="M609.9,311.8c-1.2,23.3-12.3,41.6-31.5,53.3c-11.4,6.9-16.3,14.1-15.1,27.2c1.5,15.4-3.9,28.2-21.6,27.9
	c-16.5-0.3-21.4-12.6-19.9-27.2c1.4-13.5-5.6-15.7-16.7-14.9c-7.1,0.5-14.4,0.5-21.5-0.3c-11.7-1.5-17.8-8.6-17.6-20.5
	c0.2-11.7,6.3-19.5,18-20.3c15-1.1,30.1-0.2,45.2-0.5c24.4-0.5,37.5-10.3,38.6-28.4c1.1-18.7-10-29.1-34.5-32.2
	c-33.6-4.3-59.8-26.4-66.1-55.8c-7.2-33.3,6.4-63.9,39.1-80.4c14.9-7.5,10.5-18.5,10.6-28.9c0.1-15.1,5.5-24.8,21.3-27.1
	c14.3,2.4,22,11.3,20.4,25.3c-2,17.9,3.9,24.5,22.1,22.3c16.2-1.9,29.6,3.8,29.1,22.7c-0.5,18.8-14.9,19.9-29.5,19.5
	c-12.2-0.4-24.4-0.3-36.6,0c-22.4,0.5-35.1,11-35.7,28.8c-0.6,18.4,10.8,29.3,33.2,31.6C584.3,238.4,612,269.8,609.9,311.8z"/>
<path d="M971.7,873.7c-0.1,25.7-5.9,31.8-31.3,32c-45.9,0.3-91.9,0.1-137.8,0.1c-94.8,0-189.5,0-284.3,0c-28.3,0-33.5-5.3-33.5-34.1
	c-0.1-26.6-0.1-53.1,0-79.7c0.1-28.8,5.3-34.3,33.5-34.3c70.3-0.1,140.7,0,211,0l0,0c69.6,0,139.3,0,208.9,0
	c28.6,0,33.4,5,33.5,34.2C971.8,819.1,971.8,846.4,971.7,873.7z"/>
<path class="st1" d="M421,780c-0.4,18-14.7,20.8-29.3,20.9c-86.2,0.1-172.3,0.1-258.5,0c-14.6,0-28.6-3.2-28.5-21.6
	c0.1-17.9,12.9-21.8,28.3-21.7c43.1,0.2,86.2,0.1,129.2,0.1h0c43.1,0,86.2,0.2,129.3-0.1C407.6,757.3,421.4,761,421,780z"/>
<path class="st2" d="M420.8,885.6c-0.3,17-12.6,20.3-27.1,20.2c-87.6-0.1-175.1-0.1-262.7,0c-14.7,0-26.4-4.2-26.3-21
	c0.1-16.3,10.9-21.6,26-21.6c43.8,0.2,87.6,0.1,131.3,0.1l0,0c43.8,0,87.6,0.2,131.3-0.1C409.3,863.1,421.1,867.9,420.8,885.6z"/>
<path d="M609.9,311.8c-1.2,23.3-12.3,41.6-31.5,53.3c-11.4,6.9-16.3,14.1-15.1,27.2c1.5,15.4-3.9,28.2-21.6,27.9
	c-16.5-0.3-21.4-12.6-19.9-27.2c1.4-13.5-5.6-15.7-16.7-14.9c-7.1,0.5-14.4,0.5-21.5-0.3c-11.7-1.5-17.8-8.6-17.6-20.5
	c0.2-11.7,6.3-19.5,18-20.3c15-1.1,30.1-0.2,45.2-0.5c24.4-0.5,37.5-10.3,38.6-28.4c1.1-18.7-10-29.1-34.5-32.2
	c-33.6-4.3-59.8-26.4-66.1-55.8c-7.2-33.3,6.4-63.9,39.1-80.4c14.9-7.5,10.5-18.5,10.6-28.9c0.1-15.1,5.5-24.8,21.3-27.1
	c14.3,2.4,22,11.3,20.4,25.3c-2,17.9,3.9,24.5,22.1,22.3c16.2-1.9,29.6,3.8,29.1,22.7c-0.5,18.8-14.9,19.9-29.5,19.5
	c-12.2-0.4-24.4-0.3-36.6,0c-22.4,0.5-35.1,11-35.7,28.8c-0.6,18.4,10.8,29.3,33.2,31.6C584.3,238.4,612,269.8,609.9,311.8z"/>
</svg>
