<?xml version="1.0" encoding="utf-8"?>
<!-- Generator: Adobe Illustrator 24.0.0, SVG Export Plug-In . SVG Version: 6.00 Build 0)  -->
<svg version="1.1" id="Layer_1" xmlns="http://www.w3.org/2000/svg" xmlns:xlink="http://www.w3.org/1999/xlink" x="0px" y="0px"
	 viewBox="0 0 879.4 736.1" style="enable-background:new 0 0 879.4 736.1;" xml:space="preserve">
<style type="text/css">
	.st0{fill:#010101;}
	.st1{fill:#040404;}
	.st2{fill:#030303;}
</style>
<path d="M775.7,393.7c-93.6-43-188.1-84-280.1-130.1c-39.7-19.9-71.5-20.3-111.4-0.2c-92.5,46.5-187.7,87.5-281.8,130.8
	c-30.7,14.1-45.4,37.5-40.7,66.5c12.6,79,39.3,152.8,82.4,220.6c4.8,7.6,9.6,10.3,18.2,9.6c40-3.4,74.7-18.3,104.1-45.8
	c23-21.5,38.2-21.3,60.4-0.4c65.8,61.9,158.4,62.1,225.3,0.4c23.5-21.7,38.4-21.6,61.7,0.7c28.2,27,61.8,41.8,95.8,44.7
	c18.8,0.6,18.8,0.7,26.8-12c40.2-64.3,67.2-133.7,79.5-208.6C822,431.9,810.6,409.7,775.7,393.7z M450.2,607.7
	c-1.2,5.6-4.9,9.3-11.3,9c-5.6-0.2-8.7-4-9.8-8.6c-1.1-4.5-1-9.3-1-14c0-99.3,0-198.5,0-297.8c0-4.7-0.2-9.5,0.8-14
	c1.2-5.7,5.2-9.3,11.4-8.9c5.3,0.3,8.9,3.5,9.8,8.6c0.9,5.2,1.1,10.5,1.1,15.7c0.1,49.3,0,98.7,0,148h0c0,48.8,0,97.5,0,146.3
	C451.2,597.2,451.3,602.6,450.2,607.7z"/>
<path d="M732.2,736c-57.3-0.3-100.9-16.6-138.4-48.6c-7.8-6.7-12.3-8.4-21.5-0.6c-76.7,65.1-186.1,65.8-263.1,1.5
	c-11.1-9.3-16.4-6.7-25.5,1.1c-79,66.4-202.7,60.4-274-12.8c-6.2-6.4-14.6-13.5-6.1-22.1c8.8-8.8,15.7,0.3,21.9,6.4
	c70.8,69.2,181.6,70.2,254.3,2.1c11.5-10.7,22.7-10.8,33.7-0.1c68.6,66.8,180.8,66.9,252,0.3c11.6-10.8,23.2-10.6,34.9,0.6
	c68.6,66,178.4,65.9,250.5-0.3c2.6-2.4,5-4.9,7.5-7.4c5.2-5,11.5-7.6,17.1-2.3c6.4,6,3.9,12.9-1.7,18.5c-27,27.1-58.3,47-95.6,56.7
	C760.7,733.6,742.8,736.6,732.2,736L732.2,736z"/>
<path class="st0" d="M512.2,0.2c16.5,0,32.9,0.3,49.3-0.1c7.7-0.2,10.2,2.5,10.1,10.1c-0.3,25.8-0.3,51.7,0,77.5
	c0.1,7.7-2.5,10.2-10.2,10.1c-33.5-0.3-67-0.3-100.4,0c-7.7,0.1-10.2-2.6-10.1-10.1c0.3-25.8,0.3-51.7,0-77.5
	c-0.1-7.6,2.5-10.3,10.2-10.1C478.2,0.5,495.2,0.2,512.2,0.2L512.2,0.2z"/>
<path class="st0" d="M653.6,97.7c-16.5,0-32.9-0.4-49.3,0.2c-8.4,0.3-11.2-2.5-11-11c0.5-25.3,0.5-50.5,0-75.8
	c-0.2-8.4,2.4-11.2,11-11.1c32.9,0.4,65.8,0.4,98.7,0c8.5-0.1,11.2,2.5,11.1,11c-0.5,25.2-0.4,50.5,0,75.8c0.1,8.3-2.4,11.4-11,11.1
	C686.5,97.3,670.1,97.7,653.6,97.7L653.6,97.7z"/>
<path d="M227.3,119.4c14.7,0,29.4,0.6,44-0.2c10.7-0.6,15.7,1.4,15.1,13.9c-1.1,23.4-0.8,46.9-0.1,70.4c0.3,9.4-2.9,11.9-12,11.8
	c-32.3-0.5-64.6-0.4-96.8,0c-8.6,0.1-12.4-1.6-12.1-11.4c0.7-24.6,0.6-49.3,0-73.9c-0.2-8.7,2.5-11.1,10.9-10.8
	C193.3,119.8,210.3,119.4,227.3,119.4L227.3,119.4z"/>
<path d="M366.7,215.2c-15.3,0-30.5-0.5-45.8,0.2c-9.3,0.4-13.7-1.2-13.3-12.1c0.9-24,0.7-48.1,0-72.2c-0.2-9.2,2.4-12,11.7-11.8
	c32.3,0.5,64.6,0.4,96.8,0.1c8.3-0.1,12.7,0.9,12.3,11.1c-0.8,24.6-0.6,49.3-0.1,73.9c0.2,8.2-2,11.4-10.7,11.1
	C400.7,214.7,383.7,215.2,366.7,215.2L366.7,215.2z"/>
<path d="M510.3,215.2c-16.4,0-32.9-0.3-49.3,0.1c-7.6,0.2-10.2-2-10.1-9.9c0.4-25.2,0.3-50.5,0-75.7c-0.1-6.9,0.8-10.6,9.3-10.5
	c34,0.4,68.1,0.3,102.1,0.1c6.5,0,9.4,1.6,9.3,8.8c-0.4,25.8-0.4,51.6,0,77.5c0.1,8.1-3.2,9.9-10.4,9.7
	C544.4,214.9,527.3,215.2,510.3,215.2L510.3,215.2z"/>
<path d="M652.5,215.2c-16.4,0-32.9-0.3-49.3,0.1c-7.6,0.2-10.1-2.3-10-10c0.4-25.2,0.6-50.5-0.1-75.7c-0.2-9.3,3.7-10.4,11.4-10.3
	c32.9,0.3,65.7,0.4,98.6-0.1c8.5-0.1,11,2.4,10.8,10.8c-0.5,24.6-0.7,49.3,0,73.9c0.3,9.9-3.5,11.7-12.2,11.4
	C685.4,214.8,669,215.2,652.5,215.2L652.5,215.2z"/>
<path d="M165.6,340.2c0-33,0.2-63.4-0.1-93.7c-0.1-8.2,4.5-7.9,10.1-7.9c33.4,0.1,66.8,0.2,100.2-0.1c7-0.1,11.5,1.4,10.3,9.6
	c-0.1,0.6,0,1.2,0,1.8c1.1,23.1-8.8,39.3-29.6,48.8C226.9,312.2,197.3,325.7,165.6,340.2L165.6,340.2z"/>
<path d="M713.8,340.2C674,322,636.4,305,599,287.6c-10.2-4.7-5.2-14.5-5.4-22c-0.6-26.9-0.2-26.9,25.9-26.9c27.5,0,55.1,0,82.6,0
	c5.5,0,11.9-2,11.8,7.9C713.5,276.9,713.8,307.2,713.8,340.2L713.8,340.2z"/>
<path class="st1" d="M571.6,275.5c-26-12-49.5-22.8-72.9-33.6c0.2-1.1,0.4-2.2,0.7-3.3c21.3,0,42.6,0.2,63.9-0.1
	c7.5-0.1,8.6,3.6,8.4,9.8C571.3,256.5,571.6,264.7,571.6,275.5L571.6,275.5z"/>
<path class="st2" d="M308.4,275.2c-1-24.4,9.9-36.6,32.5-36.6c12.9,0,25.8,0,38.6,0c0.4,1.1,0.9,2.1,1.3,3.2
	C357.3,252.7,333.8,263.5,308.4,275.2L308.4,275.2z"/>
</svg>
