<?xml version="1.0" encoding="utf-8"?>
<!-- Generator: Adobe Illustrator 24.0.0, SVG Export Plug-In . SVG Version: 6.00 Build 0)  -->
<svg version="1.1" id="Layer_1" xmlns="http://www.w3.org/2000/svg" xmlns:xlink="http://www.w3.org/1999/xlink" x="0px" y="0px"
	 viewBox="0 0 922.3 995.8" style="enable-background:new 0 0 922.3 995.8;" xml:space="preserve">
<style type="text/css">
	.st0{fill:#FEFEFE;}
</style>
<path d="M619.9,668.1L619.9,668.1c-0.8,17.1-6.7,34.5-20.3,48.3c-43.4,44-87.3,87.4-130.5,131.6c-7.3,7.5-11,5.4-17.2-0.9
	c-42.4-43.1-85.6-85.4-127.7-128.7c-28.8-29.6-29.8-70.7-4.1-98.8c27.5-30,65.7-32.2,99.8-5.3c7.3,5.7,13.7,12.5,20.3,19
	c18.5,18.1,22.5,18.2,40.6,0.5c10.4-10.2,20.4-20.8,33.3-28.2C560.5,579.1,619.2,612.5,619.9,668.1z"/>
<path d="M922.3,482c0.1-17.3-5.3-20.4-21.3-20.4c-146.8,0.6-293.6,0.4-440.4,0.4s-293.6,0.2-440.4-0.3C5.2,461.6-0.1,464.6,0,481
	c0.7,162.1,0.4,324.2,0.4,486.3c0,27.4,1,28.5,27.5,28.5c288.3,0,576.6,0,864.9,0c27.4,0,29-1.6,29-29.6
	C921.9,804.8,921.6,643.4,922.3,482z M631.8,732.3C581.4,787.8,526.9,839.5,474,892.7c-8.4,8.5-17.8,8.5-26.3,0
	c-52.5-52.7-105.3-105.1-157-158.5c-17.8-18.4-22.7-43-23.9-71.1c3.3-40.5,22.1-74.7,63.2-92.6c39.8-17.4,78.8-12.8,111.3,16.2
	c15.7,14,23.5,14.4,39.1-0.1c38.8-36.2,102.8-33.5,141.1,3.3C660.8,627.7,668.1,692.4,631.8,732.3z"/>
<path d="M6.4,425.1c21.3-42.5,41.6-83.1,61.9-123.8c11.8-23.7,24-47.2,35.3-71.2c5.8-12.2,13.5-18,27.7-17.6
	c35.2,0.8,70.4,0.2,105.7,0.4c6.1,0,13.9-2.9,15.9,7.1c7,36.4,23.4,68.4,49.8,99.8c-24.3,0-44.5,0.2-64.8-0.1
	c-13.1-0.2-25,1.6-24.8,18.2c0.2,15.1,11.1,17.8,23.6,17.8c149.5,0,299.1,0,448.6,0c12.6,0,23.2-3,23.4-18
	c0.1-15.1-10.3-18.1-23-17.9c-20.6,0.3-41.1,0.1-65.5,0.1c14.4-19.9,27.9-37.6,36-58.3c1-2.5,1.8-5,3-7.4c6.8-12.9,3-33.7,14.7-39.4
	c13-6.3,31.2-1.9,47.1-2c23.9-0.1,47.8,0.2,71.8-0.1c9.4-0.1,17.4,2,21.7,10.7C847.8,290,881,356.7,915.2,425.1L6.4,425.1L6.4,425.1
	z"/>
<path d="M620.8,101.4C586.8,29.1,527.3-3.7,447.3,0.3c-69,3.5-130.3,49.4-153.8,116.5c-23.7,67.8-3.1,148.7,48.8,192.9
	c8.6,7.3,17.2,10.6,28.6,10.4c29.9-0.8,59.7-0.3,89.6-0.3c26.6,0,53.3-2,79.6,0.6c24.5,2.4,40.4-8.7,54.1-25.8
	C641.7,235.6,653.1,170.2,620.8,101.4z M490.1,255.8c-6.3,4.1-11.6,7.6-13.3,15.8c-1.7,8.1-8.4,11.8-16.4,11.7
	c-7.1-0.1-13.7-3.6-15.2-10.7c-1.7-8.2-6.9-11.5-13.2-15.7c-13.7-9.2-22.4-22.2-23.6-39.4c-0.7-10.2,1-19,12.4-21.6
	c11.8-2.6,19.1,2.7,21.7,14.5c0.7,3.2,1.2,6.7,2.8,9.5c3.9,6.9,10.1,10.8,18.1,9.4c7.9-1.4,13.4-6.1,14.2-14.5
	c0.8-8.7-2-16-11.1-18.7c-11.3-3.3-23.1-3.5-33.7-10.5c-32.5-21.4-33.7-67.1-1.2-88.1c6.3-4.1,10.7-7.9,13.5-15.6
	c5.3-14.2,24-17,29.1-4.2c4.9,12.4,14.4,17.9,23,25.5c10.7,9.4,16.1,21.8,16.2,35l0,0c0.4,9.5-2.4,17.4-12.8,19.4
	c-10.5,2.1-18.2-1.6-21-12.9c-1-3.8-1.8-7.8-3.6-11.3c-3.6-7.2-9.5-11.1-17.8-9.7c-8.2,1.4-12.9,6.8-14.1,14.7
	c-1.3,8.8,1.8,15.8,10.7,18.9c4.4,1.5,9,2.1,13.6,3c22.7,4.1,39.6,19.5,44,40.2C517.1,222.5,509.1,243.5,490.1,255.8z"/>
<path class="st0" d="M619.9,668.1L619.9,668.1c-0.8,17.1-6.7,34.5-20.3,48.3c-43.4,44-87.3,87.4-130.5,131.6
	c-7.3,7.5-11,5.4-17.2-0.9c-42.4-43.1-85.6-85.4-127.7-128.7c-28.8-29.6-29.8-70.7-4.1-98.8c27.5-30,65.7-32.2,99.8-5.3
	c7.3,5.7,13.7,12.5,20.3,19c18.5,18.1,22.5,18.2,40.6,0.5c10.4-10.2,20.4-20.8,33.3-28.2C560.5,579.1,619.2,612.5,619.9,668.1z"/>
<path d="M619.9,668.1L619.9,668.1c-0.8,17.1-6.7,34.5-20.3,48.3c-43.4,44-87.3,87.4-130.5,131.6c-7.3,7.5-11,5.4-17.2-0.9
	c-42.4-43.1-85.6-85.4-127.7-128.7c-28.8-29.6-29.8-70.7-4.1-98.8c27.5-30,65.7-32.2,99.8-5.3c7.3,5.7,13.7,12.5,20.3,19
	c18.5,18.1,22.5,18.2,40.6,0.5c10.4-10.2,20.4-20.8,33.3-28.2C560.5,579.1,619.2,612.5,619.9,668.1z"/>
</svg>
