<?xml version="1.0" encoding="UTF-8"?>
<svg id="Layer_1" data-name="Layer 1" xmlns="http://www.w3.org/2000/svg" viewBox="0 0 1255.57 964.12">
  <path d="M1033.27,394.53c-118.98,0-231.47,0-343.95,0-58.46,0-116.93.18-175.39-.06-45.53-.19-73.99-25.37-74.19-64.97-.19-38.66,29.26-65.27,74.54-65.36,161.83-.34,323.67-.14,485.51-.14,9.08,0,18.16,0,28.05,0-1.59-11.51-9.78-15.51-15.31-21.12-42.84-43.42-86.4-86.15-128.94-129.87-28.27-29.06-27.79-68.26-.39-95.13,25.46-24.98,65.2-23.9,93.07,3.95,85.7,85.65,171.15,171.55,256.27,257.77,30.33,30.72,30.89,68.53.75,99.15-85.59,86.94-171.73,173.36-258.09,259.55-27.24,27.19-68.14,27.34-93.27,1.92-25.76-26.07-26.07-65.34,1.08-93.37,42.44-43.81,85.93-86.61,128.94-129.87,5.83-5.86,11.4-11.98,21.34-22.45Z" style="stroke-width: 0px;"/>
  <path d="M228.64,570.76c83.61,0,167.22-.02,250.84,0,90.63.02,181.27-.26,271.9.33,30.54.2,53.3,18.77,61.67,47.29,7.68,26.17-3.11,55.19-26.34,71.2-16.29,11.23-34.9,11.67-53.58,11.68-159.25.03-318.5.02-477.74.02-9.04,0-18.07,0-27.11,0-1.35,2.15-2.7,4.29-4.05,6.44,36.2,34.99,72.47,69.89,108.55,105,14.56,14.18,29.37,28.2,42.85,43.37,24.07,27.09,22.76,64.25-2.11,89.3-23.65,23.83-64.66,25.67-89.5,1.14-87.98-86.91-175.52-174.27-262.2-262.46-30.22-30.74-28.65-67.89,2.19-99.16,84.46-85.64,169.34-170.86,254.35-255.95,28.07-28.1,67.04-30.08,93.19-5.85,27.9,25.87,29.51,64.95,1.19,95.02-36.57,38.83-74.79,76.13-112.74,113.64-11.38,11.25-24.23,20.99-36.41,31.43l5.05,7.56Z" style="stroke-width: 0px;"/>
</svg>