<?xml version="1.0" encoding="utf-8"?>
<!-- Generator: Adobe Illustrator 24.0.0, SVG Export Plug-In . SVG Version: 6.00 Build 0)  -->
<svg version="1.1" id="Layer_1" xmlns="http://www.w3.org/2000/svg" xmlns:xlink="http://www.w3.org/1999/xlink" x="0px" y="0px"
	 viewBox="0 0 1127 1129.6" style="enable-background:new 0 0 1127 1129.6;" xml:space="preserve">
<style type="text/css">
	.st0{fill:#FEFEFE;}
	.st1{fill:#010101;}
	.st2{fill:#050505;}
	.st3{fill:#060606;}
</style>
<path d="M412,614.1c-30.6,0-61.2,0-91.9,0c-12.7,0-22.6,4-22.1,18.9c0.5,14.4,11,18.5,23.1,18.8c14.9,0.4,29.9,0.1,44.8,0.1v-0.1
	c15.7,0,31.4,0.6,47-0.2c11.7-0.6,20.3-7,20.1-19.6C433,619,424.1,614.1,412,614.1z M504.5,713.5c-59.8,0-119.7,0-179.5,0
	c-13.3,0-27.3,0.4-26.8,18.7c0.5,17.2,13.9,19.1,27.4,19.1c29.9,0.1,59.8,0,89.8,0l0,0c29.2,0,58.3,0,87.5,0
	c14.3,0,28.8-1.5,29.1-19.8C532.3,713.6,517.6,713.5,504.5,713.5z M828.7,648c-2.5-32.1-23.9-51.9-56.1-53.2c-24-1-48-1-72,0
	c-32,1.4-54,21.4-56.2,53.3c-4.3,60.4-5,109.3,90.2,103.1c0.8,0,1.5,0,2.3,0C832.1,757.6,833.6,711.8,828.7,648z M771.2,713.2
	c-23.1,0.5-46.3,0.4-69.4,0c-13.2-0.3-20.3-7.1-20.3-21.2c0-68-5.8-59,55.6-59.7c62.2,0.3,54.2-5.9,55.1,57.9
	C792.3,705.2,785.6,712.9,771.2,713.2z M828.7,648c-2.5-32.1-23.9-51.9-56.1-53.2c-24-1-48-1-72,0c-32,1.4-54,21.4-56.2,53.3
	c-4.3,60.4-5,109.3,90.2,103.1c0.8,0,1.5,0,2.3,0C832.1,757.6,833.6,711.8,828.7,648z M771.2,713.2c-23.1,0.5-46.3,0.4-69.4,0
	c-13.2-0.3-20.3-7.1-20.3-21.2c0-68-5.8-59,55.6-59.7c62.2,0.3,54.2-5.9,55.1,57.9C792.3,705.2,785.6,712.9,771.2,713.2z
	 M504.5,713.5c-59.8,0-119.7,0-179.5,0c-13.3,0-27.3,0.4-26.8,18.7c0.5,17.2,13.9,19.1,27.4,19.1c29.9,0.1,59.8,0,89.8,0l0,0
	c29.2,0,58.3,0,87.5,0c14.3,0,28.8-1.5,29.1-19.8C532.3,713.6,517.6,713.5,504.5,713.5z M321.2,651.8c14.9,0.4,29.9,0.1,44.8,0.1
	v-0.1c15.7,0,31.4,0.6,47-0.2c11.7-0.6,20.3-7,20.1-19.6c-0.2-13-9-17.8-21.1-17.8c-30.6,0-61.2,0-91.9,0c-12.7,0-22.6,4-22.1,18.9
	C298.6,647.4,309.1,651.5,321.2,651.8z M563.6,0.1C253.4-4.8,0,259.6,0,564.3c0,305.9,253.3,565.4,563.5,565.3
	c309.6-0.1,563.4-257.8,563.5-565.2C1127.1,257.5,872.2-4.6,563.6,0.1z M210.3,387.3c1.4-11.1-0.3-22.6,0.5-33.9
	c3.3-49,36.2-80.5,84.9-80.5c178.7-0.2,357.4-0.2,536.1,0c47.9,0.1,79.8,30.3,84.4,78.7c3.7,38.4-13.3,57.5-51.1,57.5H563.3
	c-110.4,0-220.7-0.4-331.1,0.4C214.4,409.8,208.1,405.1,210.3,387.3z M916.9,469c-0.9,97.9-0.3,195.8-0.5,293.8
	c-0.1,61.2-32,93.3-92.8,93.3c-173.4,0-346.9,0-520.3,0c-60.9,0-92.7-31.9-92.8-93.2c-0.1-98.7,0.3-197.3-0.4-296
	c-0.1-15.7,4.1-20.3,19.9-20.2c111.1,0.7,222.2,0.4,333.4,0.4h0c110.4,0,220.7,0.4,331.1-0.4C912.4,446.4,917.1,451.2,916.9,469z
	 M772.6,594.8c-24-1-48-1-72,0c-32,1.4-54,21.4-56.2,53.3c-4.3,60.4-5,109.3,90.2,103.1c0.8,0,1.5,0,2.3,0
	c95.3,6.3,96.8-39.5,91.9-103.3C826.2,616,804.8,596.2,772.6,594.8z M771.2,713.2c-23.1,0.5-46.3,0.4-69.4,0
	c-13.2-0.3-20.3-7.1-20.3-21.2c0-68-5.8-59,55.6-59.7c62.2,0.3,54.2-5.9,55.1,57.9C792.3,705.2,785.6,712.9,771.2,713.2z
	 M504.5,713.5c-59.8,0-119.7,0-179.5,0c-13.3,0-27.3,0.4-26.8,18.7c0.5,17.2,13.9,19.1,27.4,19.1c29.9,0.1,59.8,0,89.8,0l0,0
	c29.2,0,58.3,0,87.5,0c14.3,0,28.8-1.5,29.1-19.8C532.3,713.6,517.6,713.5,504.5,713.5z M321.2,651.8c14.9,0.4,29.9,0.1,44.8,0.1
	v-0.1c15.7,0,31.4,0.6,47-0.2c11.7-0.6,20.3-7,20.1-19.6c-0.2-13-9-17.8-21.1-17.8c-30.6,0-61.2,0-91.9,0c-12.7,0-22.6,4-22.1,18.9
	C298.6,647.4,309.1,651.5,321.2,651.8z"/>
<path class="st0" d="M298.1,633c-0.5-14.9,9.4-18.9,22.1-18.9c30.6,0,61.2,0,91.9,0c12.1,0,20.9,4.8,21.1,17.8
	c0.2,12.6-8.3,19-20.1,19.6c-15.6,0.8-31.3,0.2-47,0.2v0.1c-14.9,0-29.9,0.3-44.8-0.1C309.1,651.5,298.6,647.4,298.1,633z"/>
<path class="st0" d="M532,731.6c-0.3,18.3-14.8,19.8-29.1,19.8c-29.2-0.1-58.3,0-87.5,0l0,0c-29.9,0-59.8,0-89.8,0
	c-13.5,0-26.9-1.9-27.4-19.1c-0.5-18.3,13.5-18.7,26.8-18.7c59.8,0,119.7,0,179.5,0C517.6,713.5,532.3,713.6,532,731.6z"/>
<path class="st0" d="M828.7,648c-2.5-32.1-23.9-51.9-56.1-53.2c-24-1-48-1-72,0c-32,1.4-54,21.4-56.2,53.3
	c-4.3,60.4-5,109.3,90.2,103.1c0.8,0,1.5,0,2.3,0C832.1,757.6,833.6,711.8,828.7,648z M771.2,713.2c-23.1,0.5-46.3,0.4-69.4,0
	c-13.2-0.3-20.3-7.1-20.3-21.2c0-68-5.8-59,55.6-59.7c62.2,0.3,54.2-5.9,55.1,57.9C792.3,705.2,785.6,712.9,771.2,713.2z"/>
<path class="st1" d="M828.7,648c-2.5-32.1-23.9-51.9-56.1-53.2c-24-1-48-1-72,0c-32,1.4-54,21.4-56.2,53.3
	c-4.3,60.4-5,109.3,90.2,103.1c0.8,0,1.5,0,2.3,0C832.1,757.6,833.6,711.8,828.7,648z M771.2,713.2c-23.1,0.5-46.3,0.4-69.4,0
	c-13.2-0.3-20.3-7.1-20.3-21.2c0-68-5.8-59,55.6-59.7c62.2,0.3,54.2-5.9,55.1,57.9C792.3,705.2,785.6,712.9,771.2,713.2z"/>
<path class="st2" d="M532,731.6c-0.3,18.3-14.8,19.8-29.1,19.8c-29.2-0.1-58.3,0-87.5,0l0,0c-29.9,0-59.8,0-89.8,0
	c-13.5,0-26.9-1.9-27.4-19.1c-0.5-18.3,13.5-18.7,26.8-18.7c59.8,0,119.7,0,179.5,0C517.6,713.5,532.3,713.6,532,731.6z"/>
<path class="st3" d="M433.2,632c0.2,12.6-8.3,19-20.1,19.6c-15.6,0.8-31.3,0.2-47,0.2v0.1c-14.9,0-29.9,0.3-44.8-0.1
	c-12.2-0.3-22.6-4.4-23.1-18.8c-0.5-14.9,9.4-18.9,22.1-18.9c30.6,0,61.2,0,91.9,0C424.1,614.1,433,619,433.2,632z"/>
</svg>
