<?xml version="1.0" encoding="utf-8"?>
<!-- Generator: Adobe Illustrator 24.0.0, SVG Export Plug-In . SVG Version: 6.00 Build 0)  -->
<svg version="1.1" id="Layer_1" xmlns="http://www.w3.org/2000/svg" xmlns:xlink="http://www.w3.org/1999/xlink" x="0px" y="0px"
	 viewBox="0 0 1046.4 670" style="enable-background:new 0 0 1046.4 670;" xml:space="preserve">
<style type="text/css">
	.st0{fill:#FEFEFE;}
</style>
<path d="M1045.8,80.7c0-56.8-23.5-80.6-79.6-80.6C818.6,0,670.9,0,523.2,0C374.8,0,226.5,0,78.1,0C23.2,0.1,0,23,0,77.2
	c0,171.5,0,342.9,0,514.4c0,52.3,25.8,77.7,78.8,77.7c295.4,0,590.7-0.7,886.1,0.7c51.9,0.2,81.9-33.9,81.5-81.2
	C1044.9,419.4,1045.8,250,1045.8,80.7z M1015.9,587.2c0,39-12.7,52-51,52c-295.1,0-590.3,0-885.4,0c-36.6,0-49.6-12.7-49.6-48.8
	C29.6,479.2,30,368,29.3,256.8c-0.1-14.7,3.7-18.3,18.3-18.3c158.1,0.6,316.1,0.3,474.2,0.3v0c157.4,0,314.7,0.3,472.1-0.4
	c16.7-0.1,22.5,3.2,22.4,21.4C1015.4,369,1015.9,478.1,1015.9,587.2z M1015.8,103.5c-3.6,11.4-12.8,6.3-19.3,6.3
	c-114.8,0.4-229.5,0.3-344.3,0.3H522c-157.5,0-314.9-0.3-472.3,0.4c-16.9,0.1-22.4-4.7-20.2-20.8c1-7.6-0.2-15.4,0.4-23.1
	c1.9-21.6,14.3-34.4,35.6-37c5.5-0.7,11.2-0.7,16.8-0.7c293.2,0,586.4,0,879.6,0C1006.5,28.9,1029.3,60.8,1015.8,103.5z
	 M903.8,400.6c-121-0.1-241.9-0.1-362.9-0.1c-11.6,0-26.6-2.8-27.1,14.6c-0.5,17.5,14.2,15.5,26.1,15.5h182.5v0
	c60.1,0,120.3,0.2,180.4-0.2c11.7-0.1,28.5,4.9,29-14.3C932.3,396.8,915.8,400.6,903.8,400.6z M718.6,471.8
	c-62,0.1-124.1,0.1-186.1,0c-11.5,0-19.4,4-19,16.5c0.4,11.9,8.5,13.9,18.9,13.8c31.4-0.4,62.7-0.1,94.1-0.1l0,0
	c30.7,0,61.3-0.3,92,0.2c11.1,0.2,20.2-1.5,20.1-14.6C738.6,474.9,729.8,471.8,718.6,471.8z M349.1,459.3
	c26.6,0.1,53.2-0.8,79.7,0.3c15.3,0.6,21.5-2.2,21.4-19.8c-0.1-17-5.9-19.3-20.4-18.6c-25.8,1.1-51.8,0.4-77.6,0.3
	c-11,0-24.3,2.3-24.8-14.5c-0.6-19.1,14.4-15.1,25.6-15.4c16.1-0.4,32.2-0.1,48.3-0.1c32.4,0,48.5-16.3,48.2-48.9
	c-0.2-25.5-1.4-26.7-28-26.7c-83.9,0-167.9-0.5-251.8,0.1c-66.9,0.5-57.9-12-59.1,60.9c-0.2,12.7,4.9,15,16,14.7
	c28.7-0.6,57.4-0.1,86.1-0.3c10.3,0,21.1,0.3,21.6,13.7c0.5,13.8-9.2,16.7-21.3,16.6c-29.4-0.4-58.8,0.8-88.1-0.5
	c-16.1-0.7-14.3,8.5-14,18.3c0.3,9.8-3.7,21,14.3,20.2c30.7-1.3,61.6-0.3,92.3-0.3c11.1,0,17.4,5.6,16.9,16.6
	c-0.4,10.2-6.7,14-16.9,13.6c-18.9-0.6-37.8-0.2-56.7-0.2c-51.6,0-51.1,0-50.2,51.7c0.3,18,6.9,24.5,25.1,24.2
	c48.3-0.9,96.5-0.3,144.8-0.3v0c37.1,0,74.2,0.3,111.2-0.1c66-0.8,56.7,10.5,58.1-59.9c0.3-13.7-4.5-16.3-16.8-15.9
	c-28,0.9-56,0.2-83.9,0.3c-10.7,0-22.1,1.4-21.9-14.7C327.3,459.4,338.1,459.2,349.1,459.3z"/>
<path class="st0" d="M327.1,474.7c-0.2,16.1,11.2,14.7,21.9,14.7c28-0.1,56,0.6,83.9-0.3c12.3-0.4,17.1,2.2,16.8,15.9
	c-1.4,70.4,7.8,59.2-58.1,59.9c-37.1,0.4-74.2,0.1-111.2,0.1v0c-48.3,0-96.6-0.6-144.8,0.3c-18.2,0.3-24.8-6.2-25.1-24.2
	c-0.9-51.7-1.4-51.7,50.2-51.7c18.9,0,37.8-0.4,56.7,0.2c10.2,0.3,16.6-3.4,16.9-13.6c0.4-11-5.9-16.6-16.9-16.6
	c-30.8,0-61.6-1-92.3,0.3c-18,0.8-14-10.4-14.3-20.2c-0.3-9.9-2-19.1,14-18.3c29.3,1.3,58.8,0.1,88.1,0.5
	c12.1,0.2,21.8-2.8,21.3-16.6c-0.5-13.4-11.3-13.7-21.6-13.7c-28.7,0.1-57.4-0.4-86.1,0.3c-11.2,0.3-16.3-2-16-14.7
	c1.2-72.9-7.8-60.4,59.1-60.9c83.9-0.6,167.9-0.2,251.8-0.1c26.6,0,27.8,1.2,28,26.7c0.2,32.6-15.8,48.9-48.2,48.9
	c-16.1,0-32.2-0.3-48.3,0.1c-11.2,0.3-26.2-3.8-25.6,15.4c0.5,16.8,13.8,14.5,24.8,14.5c25.9,0.1,51.8,0.8,77.6-0.3
	c14.5-0.6,20.3,1.7,20.4,18.6c0.1,17.6-6.1,20.4-21.4,19.8c-26.5-1.1-53.2-0.3-79.7-0.3C338.1,459.2,327.3,459.4,327.1,474.7z"/>
<path class="st0" d="M738.6,487.5c0,13.1-9.1,14.8-20.1,14.6c-30.7-0.4-61.3-0.2-92-0.2l0,0c-31.4,0-62.7-0.3-94.1,0.1
	c-10.4,0.1-18.5-1.9-18.9-13.8c-0.4-12.6,7.6-16.6,19-16.5c62,0.1,124.1,0.1,186.1,0C729.8,471.8,738.6,474.9,738.6,487.5z"/>
<path class="st0" d="M931.8,416.1c-0.5,19.2-17.3,14.3-29,14.3c-60.1,0.3-120.3,0.2-180.4,0.2v0H539.9c-11.9,0-26.6,2-26.1-15.5
	c0.5-17.3,15.5-14.6,27.1-14.6c121,0,241.9-0.1,362.9,0.1C915.8,400.6,932.3,396.8,931.8,416.1z"/>
<path d="M449.8,505c-1.4,70.4,7.8,59.2-58.1,59.9c-37.1,0.4-74.2,0.1-111.2,0.1v0c-48.3,0-96.6-0.6-144.8,0.3
	c-18.2,0.3-24.8-6.2-25.1-24.2c-0.9-51.7-1.4-51.7,50.2-51.7c18.9,0,37.8-0.4,56.7,0.2c10.2,0.3,16.6-3.4,16.9-13.6
	c0.4-11-5.9-16.6-16.9-16.6c-30.8,0-61.6-1-92.3,0.3c-18,0.8-14-10.4-14.3-20.2c-0.3-9.9-2-19.1,14-18.3c29.3,1.3,58.8,0.1,88.1,0.5
	c12.1,0.2,21.8-2.8,21.3-16.6c-0.5-13.4-11.3-13.7-21.6-13.7c-28.7,0.1-57.4-0.4-86.1,0.3c-11.2,0.3-16.3-2-16-14.7
	c1.2-72.9-7.8-60.4,59.1-60.9c83.9-0.6,167.9-0.2,251.8-0.1c26.6,0,27.8,1.2,28,26.7c0.2,32.6-15.8,48.9-48.2,48.9
	c-16.1,0-32.2-0.3-48.3,0.1c-11.2,0.3-26.2-3.8-25.6,15.4c0.5,16.8,13.8,14.5,24.8,14.5c25.9,0.1,51.8,0.8,77.6-0.3
	c14.5-0.6,20.3,1.7,20.4,18.6c0.1,17.6-6.1,20.4-21.4,19.8c-26.5-1.1-53.2-0.3-79.7-0.3c-11.1,0-21.8,0.1-22,15.4
	c-0.2,16.1,11.2,14.7,21.9,14.7c28-0.1,56,0.6,83.9-0.3C445.3,488.7,450,491.3,449.8,505z"/>
<path d="M931.8,416.1c-0.5,19.2-17.3,14.3-29,14.3c-60.1,0.3-120.3,0.2-180.4,0.2v0H539.9c-11.9,0-26.6,2-26.1-15.5
	c0.5-17.3,15.5-14.6,27.1-14.6c121,0,241.9-0.1,362.9,0.1C915.8,400.6,932.3,396.8,931.8,416.1z"/>
<path d="M738.6,487.5c0,13.1-9.1,14.8-20.1,14.6c-30.7-0.4-61.3-0.2-92-0.2l0,0c-31.4,0-62.7-0.3-94.1,0.1
	c-10.4,0.1-18.5-1.9-18.9-13.8c-0.4-12.6,7.6-16.6,19-16.5c62,0.1,124.1,0.1,186.1,0C729.8,471.8,738.6,474.9,738.6,487.5z"/>
</svg>
