<?xml version="1.0" encoding="utf-8"?>
<!-- Generator: Adobe Illustrator 24.0.0, SVG Export Plug-In . SVG Version: 6.00 Build 0)  -->
<svg version="1.1" id="Layer_1" xmlns="http://www.w3.org/2000/svg" xmlns:xlink="http://www.w3.org/1999/xlink" x="0px" y="0px"
	 viewBox="0 0 1048.9 731.4" style="enable-background:new 0 0 1048.9 731.4;" xml:space="preserve">
<path d="M1048.9,292.8c0.1-17.9-3.4-23.3-22.6-23.2c-166.6,0.9-333.1,0.5-499.7,0.5l0,0c-168.7,0-337.3,0.3-506-0.4
	c-17-0.1-20.5,5-20.4,21c0.6,127.4,0.3,254.8,0.4,382.1c0,43.3,15.8,58.6,59.8,58.6h928c44.5,0,60-15.5,60-60.7
	C1048.5,544.8,1048.1,418.8,1048.9,292.8z M206.8,573.1c-27.6-0.7-50.2-24-49.7-51.5c0.5-27.4,24.3-50.3,51.7-49.7
	c27.6,0.6,49.7,23.7,49.5,51.8h0C258.2,551.2,234.6,573.8,206.8,573.1z M384.2,573.2c-27.4-0.7-50.5-24.6-49.8-51.6
	c0.7-27.1,25-50.3,52-49.6c27.7,0.7,49.8,23.8,49.5,51.9C435.6,551,411.7,573.8,384.2,573.2z"/>
<path d="M524.7,168.7c-167.9,0-335.8-0.2-503.7,0.3c-15.4,0.1-21.8-2.4-21-19.9C1.7,115.6,0.2,82,0.8,48.4
	C1.3,19.7,18.9,2.2,47.9,0.3C52.7-0.1,57.6,0,62.5,0C370.4,0,678.2,0,986,0c7.7,0,15.5-0.2,23,1c22.1,3.6,38.4,20.6,38.9,42.7
	c0.9,37.8-0.1,75.6,0.8,113.3c0.4,14-8,11.6-16.1,11.6c-68.6,0-137.1,0-205.7,0C726.2,168.7,625.5,168.7,524.7,168.7L524.7,168.7z"
	/>
</svg>
