<?xml version="1.0" encoding="utf-8"?>
<!-- Generator: Adobe Illustrator 24.0.0, SVG Export Plug-In . SVG Version: 6.00 Build 0)  -->
<svg version="1.1" id="Layer_1" xmlns="http://www.w3.org/2000/svg" xmlns:xlink="http://www.w3.org/1999/xlink" x="0px" y="0px"
	 viewBox="0 0 775.9 640.5" style="enable-background:new 0 0 775.9 640.5;" xml:space="preserve">
<path d="M775.8,204.3c-1.5-29.9-18.4-54.9-46.7-64.8c-31.5-11.1-61-4-80.2,19.3c-22.7,27.6-24.8,53.3-6.7,82.6
	c2.8,4.5,5.8,8.3,1.5,13.8c-16.6,21.1-31.3,43.9-51,62.4c-18.2,17-41.4,17.3-60.6,2.3c-9.2-7.2-15.4-16.7-20.5-26.9
	c-18.9-37.9-37.2-76.1-56.8-113.6c-6.6-12.5-5.5-20.6,4-31.3c30.1-34.2,28.6-81.3-2.2-117.3C428.4-2.1,378-9.8,340.9,13.3
	c-50.2,31.2-59.7,94.1-21,139c4.3,5,10,9.2,5.7,17.4c-23.6,45.3-42.7,93-69.5,136.5c-18.9,30.7-52.2,33.1-77.1,6.6
	c-14.8-15.8-27.4-33.8-41.7-50.1c-7.3-8.4-8.2-15.6-1.9-24.8c8.1-11.8,12.6-25,10.4-39.6c-4.6-30.1-31.2-57.8-59.5-62
	c-36-5.5-66.2,9.7-80,41.8c-10.9,25.2-9.6,63.7,18.6,84.3c7.1,5.2,11.4,12.1,13,20.4C52.9,358.4,67.4,434,82.5,509.5
	c1.9,9.6,0.3,14.7-9.4,19.2c-28.6,13.2-41.2,38.5-34.3,67c5.3,21.9,24.2,45.2,60.6,44.8c94.8-1.3,189.6-0.4,284.3-0.4
	c95.3,0,190.6-0.7,285.9,0.4c30.7,0.4,51.9-19.4,58.6-41.4c7.7-25.4-2.5-52.5-26.1-67.2c-9.2-5.7-10.8-11.4-8.7-21.6
	c15.2-75,29.9-150,44.4-225.1c1.8-9.1,5.4-16.4,12.6-22.2C768.9,247.8,777,228.6,775.8,204.3z M700.6,587.8
	c-2.2,13.9-10.8,22-24.6,24c-6.1,0.9-12.4,0.7-18.6,0.7c-91.6,0-183.3,0-274.9,0v0c-89,0-178.1,0-267.2,0c-7.2,0-14.5,0-21.7-0.6
	c-15.2-1.2-25.7-10.9-27.3-24.7c-1.9-16.3,5.8-29.3,21-33.6c6.4-1.8,13.3-2.1,20-2.1c183.8,0.2,367.6,0.6,551.4,1
	c8.2,0,16.4-0.8,24.4,2.8C696.8,561.5,703.1,572.2,700.6,587.8z M734.1,239.2c-17.3,14.1-23.5,31.5-27.4,51.8
	c-13.4,71.6-27.6,143.2-41.1,214.8c-2.3,12.1-7,17-20.4,16.9c-85.5-0.7-170.9-0.3-256.4-0.3h0c-85.5,0-171-0.4-256.4,0.4
	c-14.7,0.1-19.8-5.3-22.3-18.6c-14.3-76.2-29.2-152.3-43.9-228.5c-2.4-12.7-8.2-22.7-18.8-30.8c-21.3-16.1-25.4-43.3-10.7-63
	c14.7-19.7,42.6-23.8,62.1-9.1c21,15.8,25.2,42.4,8,64.3c-10.1,12.9-8.7,22.2,1.2,33.9c16.6,19.8,30.5,41.8,48.2,60.8
	c37.8,40.3,91.5,36.8,123.6-8.2c9.4-13.1,15.9-27.7,23-42.1c16.8-34.3,33.2-68.8,50.8-102.7c7.8-14.9,7.8-25-6.3-37.2
	c-32.1-28-29.4-72.6,2.2-98.6c25.8-21.2,67.4-13.9,84.6,6c22.5,26,23,62.5,0,87.4c-13.9,15.1-16.4,31.9-7.3,50.6
	c18.1,37.1,36.2,74.2,54.5,111.3c3.4,6.9,7,13.8,11.2,20.4c32.7,51.6,92.5,55.7,131.3,8.7c15.5-18.8,29.5-38.8,45.2-57.3
	c10.2-12,10.5-21.4,0.2-33.8c-13.8-16.5-13.4-38.8-1.5-54.5c12.9-17,33.9-22.5,54.1-14.2C750.2,179.2,758.1,219.6,734.1,239.2z"/>
</svg>
