<?xml version="1.0" encoding="utf-8"?>
<!-- Generator: Adobe Illustrator 24.0.0, SVG Export Plug-In . SVG Version: 6.00 Build 0)  -->
<svg version="1.1" id="Layer_1" xmlns="http://www.w3.org/2000/svg" xmlns:xlink="http://www.w3.org/1999/xlink" x="0px" y="0px"
	 viewBox="0 0 1171.9 1114.7" style="enable-background:new 0 0 1171.9 1114.7;" xml:space="preserve">
<style type="text/css">
	.st0{fill:#F4F4F4;}
</style>
<path d="M1170.9,1050.2c-3-145.9-120.8-273.3-266.2-290.2c-43.8-5.1-87.5-2.3-131.2-3.6c-6.8-0.2-14.8,3.6-16.5-9.7
	c-5.6-44.8,31.8-98.3,76.3-107.9c34.4-7.4,62.9-23.2,75.2-59c2.4-7,6.2-11,13.8-13.7c39.3-13.9,57.5-43.9,59.2-84.2
	c1.2-29.7,0.9-59.4,0.1-89.1c-1-37.4-17.1-66.6-52.3-81.8c-11.5-5-12-12.2-12.4-21.9c-2-46.9-15-91-39.9-130.6
	C801.1,37.6,688.2-9.2,549.4,1.5C384,14.2,260.1,145.9,255.2,292.1c-0.3,9.8-3.4,14.5-12.9,18.9c-34.4,16.1-51.1,44.6-51.8,82.4
	c-0.5,25.8,1.4,51.7-0.4,77.4c-5.1,73.7,66.2,128.7,138.2,84.3c18.7,53.7,47.8,102.4,87.5,146c13.8,15.1,8.4,33.4,6,49
	c-2.1,13.6-18.6,5.8-28.3,6.1c-49.1,1.8-98.7-3.6-147.3,6.8C99.5,794.5-6.1,926.5,0.3,1069.1c2.2,49.1-4.2,45,46.1,45
	c354.3,0.1,708.6,0.3,1062.9-0.2C1180,1113.9,1172.4,1126.7,1170.9,1050.2z M868.3,573.1c-3.5,14.8-20.1,22.1-38.1,26.9
	c4.5-16.1,8.5-30.6,13.1-46.9C851.7,561.9,870.9,561.7,868.3,573.1z M943.1,385.3c0.4,2.3,0.7,4.6,0.7,7c0.1,15.6,0,31.2,0,46.7
	h-0.2l0,0c0,15.6,1.1,31.3-0.2,46.7c-2.4,28.8-22.1,47-48.4,46.7c-26.2-0.2-46.2-19.3-47.3-47.8c-1.2-31.9-1.2-63.9,0-95.8
	c1.1-27.1,20.8-45.8,46-46.5C919.7,341.6,938.7,358.1,943.1,385.3z M324.8,483c-1.6,29.8-21.3,49.6-48.3,49.6
	c-26.3,0-46.3-18.5-47.6-47.4c-1.4-31.9-1.4-63.9-0.1-95.8c1.2-28.5,21.5-47.1,47.9-47.1c26.2,0,45.9,18.8,47.9,47.3
	c1.1,16.3,0.2,32.7,0.2,49.1h0.1C324.9,453.4,325.5,468.2,324.8,483z M324.6,317.4c-24.4-10.1-34.1-27.7-29.2-52.7
	C319.8,139.5,428.1,45.9,556.3,38.3C662.4,32,753.5,62,822.6,146.3c31,37.7,47.4,81.4,56.3,129.2c5.1,27.3-8,36.3-32.2,41.1
	c-11.8-79.9-48.8-146-118.1-191.2c-49.8-32.6-105-46.6-164.6-41.6C462.6,92.2,349.1,163.2,324.6,317.4z M787.5,316.3
	c-81-4.4-156.6-25.9-225.6-68.5c-20.4-12.6-34.2-12.7-52.9,4.5c-34.6,31.8-79.3,45-123.9,57.2c-19,5.2-20.3-2.8-16.9-18.4
	C390,193,487.3,117.6,589.5,120.2l0,0c104.4,2.7,194.9,77,214.8,175.7C807.5,311.6,805.8,317.3,787.5,316.3z M363.2,513.8
	c-1.2-48.4,0.1-97-0.9-145.4c-0.3-13.2,4.6-17.3,16.4-19.3c54.7-9.3,104.9-29.5,149-63.6c7.4-5.8,13-5.4,20.8-0.8
	c76.4,44.6,158.9,67.5,247.4,69.2c7.5,0.1,14,0.6,13.6,11c-2.3,60.8,5.6,122-5.1,182.5c-10.5,59.7-14.4,62.4-74.7,62.2
	c-24.5-0.1-46.6,1.5-63.8-25.9c-18-28.8-60.4-26.8-84.3-2.6c-25.9,26.2-25.2,67.1,1.7,92c24.3,22.6,67.2,21.7,84.8-6.2
	c12.6-19.9,26.3-22.5,46.1-20.2c12.1,1.4,24.6,0.3,41.1,0.3l0,0c-62.8,72.8-159,97.6-245.9,66.5
	C426.8,683.7,365.4,600.7,363.2,513.8z M646.3,624.8c-0.4,14.7-8.1,24.5-22.4,24.8c-14.4,0.4-23.2-9.2-23.2-23.7
	c0-14.1,7.2-24.4,22.2-24.7C637.8,601,645,610.5,646.3,624.8z M567.4,937.2c-1.4,39.8-1.2,79.7-0.1,119.5c0.5,16.3-4,21.1-20.7,20.9
	c-82-0.9-164-0.4-246-0.4l0,0c-80.5,0-160.9-0.7-241.3,0.5c-20.5,0.3-24.2-6-22.8-25.3C47.5,906,160.2,797.7,307,794.3
	c35.1-0.8,70.3,0.4,105.4-0.5c12.4-0.3,16.9,4.4,21.2,15.5c20.4,52.8,57.6,88.4,113.4,101.4C563.2,914.5,568,920.8,567.4,937.2z
	 M524.8,861.8c-47.8-26.8-68.3-70.7-62.9-127.4c88.5,40.4,167.8,41.4,257.1,0.1c3.8,52.1-13.6,94.2-56.5,122.6
	C618.5,886.3,570.1,887.3,524.8,861.8z M1116.3,1077.2c-82.1,0.1-164.2,0.1-246.3,0.1l0,0c-80.5,0-161.1-0.5-241.6,0.4
	c-17.5,0.2-24.6-3.1-23.9-22.6c1.6-40.6,0.9-81.3,0.3-121.9c-0.2-11.9,1.9-16.8,15.5-19.2c60.8-10.8,102.5-46.5,125.8-103.6
	c3.2-7.7,3.7-16.7,16-16.2c54.5,2.2,109.2-4,163.5,8.2c118.9,26.7,209.3,138.6,210.3,260.8C1136.2,1080.3,1126,1077.2,1116.3,1077.2
	z"/>
<path class="st0" d="M843.2,553.1L843.2,553.1L843.2,553.1z"/>
</svg>
