<?xml version="1.0" encoding="UTF-8"?>
<svg id="Layer_1" data-name="Layer 1" xmlns="http://www.w3.org/2000/svg" viewBox="0 0 689.4 843.27">
  <path d="M344.85,662.58c21.07-29.67,41.38-58.3,61.72-86.91,27.45-38.61,50.19-46.18,95.19-31.04,44.12,14.84,87.32,32.15,129.84,51.01,37.87,16.8,58.73,45.9,57.29,88.37-1.11,32.65,3.4,65.51-3.02,97.96-7.68,38.82-32.51,60.87-72.03,60.97-179.48.41-358.95.47-538.43-.09-44.07-.14-71.26-26.62-73.88-70.94-1.9-32.03-1.58-64.23-1.35-96.34.27-36.84,20.5-61.71,51.99-76.86,50.7-24.39,103.63-43.39,157.36-60.09,23.45-7.29,42.86-2.58,57.66,17.88,22.36,30.9,44.85,61.71,67.31,92.54,3.15,4.33,6.49,8.52,10.34,13.55Z" style="fill: #100f0d; stroke-width: 0px;"/>
  <path d="M178.82,255.71c.54-16.95.67-33.84,3.77-50.67,6.83-37.02,25.9-65.86,59.8-81.57,62.16-28.79,126.13-38.36,190.67-6.78,44.51,21.78,70.67,56.43,75.24,107.32,7.35,81.76-11.33,155.3-66.88,216.9-58.58,64.96-143.92,61.37-199.95-6.02-43.36-52.14-63.27-111.94-62.66-179.18Z" style="fill: #100f0d; stroke-width: 0px;"/>
  <path d="M342.18,56.64c-100.25,1.36-176.03,58.25-200.35,150.11-2.26,8.53-3.87,15.9,2.72,23.63,4.78,5.61,4.92,13.41,4.91,20.8-.08,34.55-.24,69.1.06,103.64.13,14.79-4.57,26.9-18.98,31.82-13.89,4.74-26.75,1.11-34.54-12.3-3.56-6.13-8.79-5.27-13.91-6.36-36.15-7.65-59.03-33.13-59.08-65.68-.05-32.21,22.95-56.68,60.26-64.08,14.1-2.8,22.85-12.61,22.57-25.64-1.77-82.21,41.64-136.68,108.04-176.14,96.59-57.39,216.31-46.24,300.38,27.93,42.68,37.65,66.32,85.74,68.58,143.23.7,17.89,7.78,28.36,26.37,31.81,32.99,6.14,56.85,33.73,56.99,63.89.14,29.54-22.25,56.42-55.18,63.34-19.22,4.04-25.75,15.58-31.28,33.14-14.02,44.5-39.14,81.96-82.26,103.47-21.56,10.75-44.57,18.56-68.34,23.75-14.27,3.11-27.91,5.25-38.74,18.97-9.23,11.7-25.18,10.16-38.08,1-11.06-7.85-12.87-19.4-8.3-30.8,5.75-14.33,19.73-21.42,32.6-15.63,24.29,10.93,45.65.18,68.01-3.83,51.28-9.2,81.89-43.69,104.06-87.46,5.1-10.07,8.71-21.58-2.53-31.55-6.34-5.63-6.44-13.89-6.47-21.93-.12-32.73-.56-65.45-.58-98.18,0-11.41-.84-23.24,8.65-32.25,5.41-5.13.64-10.35-.59-15.15-23.07-89.93-109.9-154.87-204.99-153.58Z" style="fill: #100f0d; stroke-width: 0px;"/>
</svg>