<?xml version="1.0" encoding="utf-8"?>
<!-- Generator: Adobe Illustrator 24.0.0, SVG Export Plug-In . SVG Version: 6.00 Build 0)  -->
<svg version="1.1" id="Layer_1" xmlns="http://www.w3.org/2000/svg" xmlns:xlink="http://www.w3.org/1999/xlink" x="0px" y="0px"
	 viewBox="0 0 1172 1170.7" style="enable-background:new 0 0 1172 1170.7;" xml:space="preserve">
<style type="text/css">
	.st0{fill:#100F0D;}
	.st1{fill:#FEFEFE;}
</style>
<path class="st0" d="M747.7,394.2L747.7,394.2c-2,71.7-24.1,135.5-75.7,187.5c-47.3,47.7-124.8,47.5-172-0.6
	c-67.1-68.5-85.8-151.3-70.4-243.4c4.8-29.1,20.8-53.7,46.3-67.3c61.6-32.8,126.3-43.6,193-14.5
	C729.2,282.2,750.4,331.3,747.7,394.2z"/>
<path class="st0" d="M273.1,439.3c-0.6-28.9,16.4-53.2,47.8-61.3c24.3-6.2,33.6-17.2,33.2-43.4c-0.7-48.7,23.5-87.6,57.9-120.7
	c98.4-94.8,260.5-92.5,353.7,5.8c32.7,34.5,51,76.1,52.2,124.1c0.4,17.3,7.4,26.7,24.3,31.2c38.4,10.3,57.2,32.3,56.9,64.2
	c-0.3,29.9-18.7,50-57.2,61c-12.5,3.6-21.2,12.1-24,22.9c-18.6,74.1-68.4,113.8-140.3,130.2c-17.8,4-35.7,5.6-49.2,22.4
	c-9.4,11.7-24.9,6.8-36.2-1.8c-10-7.5-11.8-19-6.5-29.5c6.5-13.3,18.6-18.6,33.3-15.4c67,14.7,143.4-26.5,167.4-90.1
	c2.8-7.5,4.4-14.9,1.3-22.6c-20.8-50.8-16.4-102.1-3.4-153.6c1.7-6.6,0.2-12.2-1.4-18.1C760,261,677.1,199.2,587.3,198.9
	c-98.4-0.4-170.8,51.5-197.2,140.6c-3.2,10.9-3.3,19.8,1.8,30.9c9.6,21.2,1.9,44.6,4.1,63.1c0,21.8,0.1,39.8,0,57.7
	c-0.1,12.8-5.3,22.5-17.7,27.5c-13.1,5.2-25.2,3.3-33-8.6c-5.2-7.8-12.4-8.5-19.8-10.4C293.6,491.5,273.8,468.6,273.1,439.3z"/>
<path class="st0" d="M921.9,812.7c0,25.8,0.3,51.5-1,77.2c-2.3,44.5-27.5,70.1-71.7,74c-10.1,0.9-20.3,1.2-30.4,1.2
	c-153,0.1-305.9,0.1-458.9,0c-87.4,0-109.5-22.3-109.1-109.2c0.1-14.8,0.5-29.7-0.5-44.5c-2.9-45.3,19.9-74.6,59.5-90.8
	c48.2-19.7,97.5-36.5,146.4-54.6c22.2-8.2,40-1.3,53.5,16.8c17.3,23,33.7,46.8,50.6,70.1c8.2,11.3,16.6,22.4,26,34.9h0
	c20.9-29.4,40.6-57.3,60.5-85.2c26.9-37.6,49.5-45.2,92.5-29.4c40.1,14.7,80.1,30,119.8,46C904.4,737.6,921.9,764.1,921.9,812.7z"/>
<path class="st0" d="M587.5,0C255.3-0.5,8.3,275.8,0.2,564.7c-9.7,343.9,272.6,612.7,585.2,605.8c333.3,5.3,584.8-278.3,586.6-578.8
	C1173.9,269.2,908.2,0.5,587.5,0z M590.9,1126C294.6,1129.3,48,894,45.2,582.2c-2.6-289.7,237.9-532.4,535.6-537
	c296.6-4.7,541.9,236.5,545.9,536.7C1130.7,877.5,891.4,1122.7,590.9,1126z"/>
<path class="st1" d="M747.7,394.2L747.7,394.2c-2,71.7-24.1,135.5-75.7,187.5c-47.3,47.7-124.8,47.5-172-0.6
	c-67.1-68.5-85.8-151.3-70.4-243.4c4.8-29.1,20.8-53.7,46.3-67.3c61.6-32.8,126.3-43.6,193-14.5
	C729.2,282.2,750.4,331.3,747.7,394.2z"/>
<path class="st1" d="M273.1,439.3c-0.6-28.9,16.4-53.2,47.8-61.3c24.3-6.2,33.6-17.2,33.2-43.4c-0.7-48.7,23.5-87.6,57.9-120.7
	c98.4-94.8,260.5-92.5,353.7,5.8c32.7,34.5,51,76.1,52.2,124.1c0.4,17.3,7.4,26.7,24.3,31.2c38.4,10.3,57.2,32.3,56.9,64.2
	c-0.3,29.9-18.7,50-57.2,61c-12.5,3.6-21.2,12.1-24,22.9c-18.6,74.1-68.4,113.8-140.3,130.2c-17.8,4-35.7,5.6-49.2,22.4
	c-9.4,11.7-24.9,6.8-36.2-1.8c-10-7.5-11.8-19-6.5-29.5c6.5-13.3,18.6-18.6,33.3-15.4c67,14.7,143.4-26.5,167.4-90.1
	c2.8-7.5,4.4-14.9,1.3-22.6c-20.8-50.8-16.4-102.1-3.4-153.6c1.7-6.6,0.2-12.2-1.4-18.1C760,261,677.1,199.2,587.3,198.9
	c-98.4-0.4-170.8,51.5-197.2,140.6c-3.2,10.9-3.3,19.8,1.8,30.9c9.6,21.2,1.9,44.6,4.1,63.1c0,21.8,0.1,39.8,0,57.7
	c-0.1,12.8-5.3,22.5-17.7,27.5c-13.1,5.2-25.2,3.3-33-8.6c-5.2-7.8-12.4-8.5-19.8-10.4C293.6,491.5,273.8,468.6,273.1,439.3z"/>
<path class="st1" d="M920.9,889.9c-2.3,44.5-27.5,70.1-71.7,74c-10.1,0.9-20.3,1.2-30.4,1.2c-153,0.1-305.9,0.1-458.9,0
	c-87.4,0-109.5-22.3-109.1-109.2c0.1-14.8,0.5-29.7-0.5-44.5c-2.9-45.3,19.9-74.6,59.5-90.8c48.2-19.7,97.5-36.5,146.4-54.6
	c22.2-8.2,40-1.3,53.5,16.8c17.3,23,33.7,46.8,50.6,70.1c8.2,11.3,16.6,22.4,26,34.9h0c20.9-29.4,40.6-57.3,60.5-85.2
	c26.9-37.6,49.5-45.2,92.5-29.4c40.1,14.7,80.1,30,119.8,46c45.3,18.2,62.7,44.7,62.8,93.3C921.9,838.4,922.2,864.2,920.9,889.9z"/>
<path class="st0" d="M920.9,889.9c-2.3,44.5-27.5,70.1-71.7,74c-10.1,0.9-20.3,1.2-30.4,1.2c-153,0.1-305.9,0.1-458.9,0
	c-87.4,0-109.5-22.3-109.1-109.2c0.1-14.8,0.5-29.7-0.5-44.5c-2.9-45.3,19.9-74.6,59.5-90.8c48.2-19.7,97.5-36.5,146.4-54.6
	c22.2-8.2,40-1.3,53.5,16.8c17.3,23,33.7,46.8,50.6,70.1c8.2,11.3,16.6,22.4,26,34.9h0c20.9-29.4,40.6-57.3,60.5-85.2
	c26.9-37.6,49.5-45.2,92.5-29.4c40.1,14.7,80.1,30,119.8,46c45.3,18.2,62.7,44.7,62.8,93.3C921.9,838.4,922.2,864.2,920.9,889.9z"/>
<path class="st0" d="M747.7,394.2L747.7,394.2c-2,71.7-24.1,135.5-75.7,187.5c-47.3,47.7-124.8,47.5-172-0.6
	c-67.1-68.5-85.8-151.3-70.4-243.4c4.8-29.1,20.8-53.7,46.3-67.3c61.6-32.8,126.3-43.6,193-14.5
	C729.2,282.2,750.4,331.3,747.7,394.2z"/>
<path class="st0" d="M899.3,439.4c-0.3,29.9-18.7,50-57.2,61c-12.5,3.6-21.2,12.1-24,22.9c-18.6,74.1-68.4,113.8-140.3,130.2
	c-17.8,4-35.7,5.6-49.2,22.4c-9.4,11.7-24.9,6.8-36.2-1.8c-10-7.5-11.8-19-6.5-29.5c6.5-13.3,18.6-18.6,33.3-15.4
	c67,14.7,143.4-26.5,167.4-90.1c2.8-7.5,4.4-14.9,1.3-22.6c-20.8-50.8-16.4-102.1-3.4-153.6c1.7-6.6,0.2-12.2-1.4-18.1
	C760,261,677.1,199.2,587.3,198.9c-98.4-0.4-170.8,51.5-197.2,140.6c-3.2,10.9-3.3,19.8,1.8,30.9c9.6,21.2,1.9,44.6,4.1,63.1
	c0,21.8,0.1,39.8,0,57.7c-0.1,12.8-5.3,22.5-17.7,27.5c-13.1,5.2-25.2,3.3-33-8.6c-5.2-7.8-12.4-8.5-19.8-10.4
	c-31.9-8.1-51.7-31-52.3-60.4c-0.6-28.9,16.4-53.2,47.8-61.3c24.3-6.2,33.6-17.2,33.2-43.4c-0.7-48.7,23.5-87.6,57.9-120.7
	c98.4-94.8,260.5-92.5,353.7,5.8c32.7,34.5,51,76.1,52.2,124.1c0.4,17.3,7.4,26.7,24.3,31.2C880.8,385.5,899.6,407.5,899.3,439.4z"
	/>
</svg>
