<?xml version="1.0" encoding="utf-8"?>
<!-- Generator: Adobe Illustrator 24.0.0, SVG Export Plug-In . SVG Version: 6.00 Build 0)  -->
<svg version="1.1" id="Layer_1" xmlns="http://www.w3.org/2000/svg" xmlns:xlink="http://www.w3.org/1999/xlink" x="0px" y="0px"
	 viewBox="0 0 1154.2 1155.8" style="enable-background:new 0 0 1154.2 1155.8;" xml:space="preserve">
<style type="text/css">
	.st0{fill:#FEFEFE;}
	.st1{fill:#282828;}
	.st2{fill:#111111;}
</style>
<path d="M542.3,662.3c4.6-9.8,13.7-10.8,21.7-13.6v0c10.6-7.2,18.7-17.1,28.2-29.5c2.4,20.9-7.8,29.2-22.2,34.7h0
	C562,659.4,554,664.9,542.3,662.3z"/>
<path d="M577.5,0C256.7-1.2-10.1,272.6,0.9,576.3c-8.2,323.5,267.8,580.5,576,579.5c324.8-1,577.9-272.2,577.9-577.5
	C1154.8,269.5,897.5,1.2,577.5,0z M613.3,292.3c37.3-61.8,115.9-95.1,189.6-80.3c77.9,15.7,134.3,72.4,146,146.6
	c2.9,18.5,5.6,34.7,30.6,38.3c22.6,3.3,38.1,28.5,36.8,49.6c-1.4,21.9-18.6,42.4-41.7,46.1c-18.6,3-25.3,11.9-25.1,30.4
	c0.4,33.5-19.9,53.4-48.2,66.4c-19.6,9-40.6,13.8-61.6,18.2c-15.7,3.3-31.1,5.3-44,17.3c-8.5,7.9-21.1,9.8-31.6,0.4
	c-7.3-6.5-12.6-14.6-7.4-24.3c6.8-12.6,18.3-14.7,31.7-12.3c39.4,7,75.8-5.8,110.2-21.7c27.6-12.8,30.6-35.5,22.1-65.9
	c-9.9-35.7-6.4-73.2-2.2-109.7c1.2-10,2.8-18.7-0.4-28.5c-21.5-64.5-75.4-105.3-142.8-107.7c-64.9-2.3-123.6,35.5-149.1,96.1
	c-1.4,3.4-2.6,7-5,13.4l0,0C600.9,341.3,598.3,317.2,613.3,292.3z M666.1,469.6c-21.4-5.6-26.5-17.1-27.1-37.7
	c-1.2-39.8,5.9-76.1,31-108c52.9-67.2,150.1-64,198.3,6.8c20.1,29.5,30,62,26.8,92.8c-0.3,36.9-3.8,67.6-19.9,96.2
	c-18,32-44.7,47-80.8,46.1c-14.3-0.4-26.6,2.9-38.6,11.7c-16.8,12.2-31-0.4-45.7-7.6c-14.6-7.2-7.2-16.7-4.1-26.5
	C716.3,510.7,699.9,478.4,666.1,469.6z M717,879.6c-4.1,22.7-15,31.3-42.7,32.8c-80.7,4.5-161.5,4.5-230.4,2.4l0,0
	c-91.8-1.9-171.8-4.2-251.7-8.6c-21.3-1.1-29.7-9.3-32-29.8c-7.1-63.4,13.1-98.8,72.1-123c27.8-11.4,57.2-17.2,86-25.3
	c9.6-2.7,19.4-5.3,28.2-9.6c21.8-10.6,26.8-28.9,13.5-49c-11.6-17.5-19.8-36.4-25.3-56.4c-3.7-13.6-8.5-25.5-19.4-35.4
	c-10.3-9.3-17.2-21.7-18.9-36c-0.4-3.7-1.3-10.2,0.1-10.8c23.2-10.5,11.2-29.4,10.2-44.7c-7.1-106.8,76.9-132.7,151.9-120.3
	c25.2,4.2,47.8,17.2,68.9,31c33.1,21.8,41.4,55.2,39.5,92.8c-0.4,7.8-5.4,20.6,9.9,21c14.6,0.3,8.9-12.3,11.9-20.1
	c14.3-37.1-1.5-66.4-23.4-93.8c-25.9-32.4-59.4-53.3-100.5-60.1c-88.2-14.4-168.4,34.2-189.7,112.8c-3.7,13.8,5.6,23.2,5.4,35.3
	c-0.4,28.5-0.2,56.9,0,85.4c0.1,10-2.6,18.6-12.6,22.4c-9.8,3.8-20.5,5-26.7-5.5c-5.4-9.2-14.7-7.2-22.1-10
	c-25-9.6-38.5-27.7-37.5-52c0.9-22.3,16-40.3,41.1-46.2c14.3-3.4,24.1-9.2,23.9-25.2c-0.7-62.4,32.9-105.1,83.5-133.8
	c68.1-38.6,139.3-41.2,208.6-1.8c49.1,27.9,78.3,70.6,83,127.8c1.5,18.2,6.7,29.4,26.7,33.4c24.1,4.8,39.1,24.7,40.3,47.4
	c1,20.2-12.8,41.5-36,48.3c-22.3,6.6-32.9,17.6-32.3,41.9c0.5,20.3-11.3,35.8-28.1,47.7c-18,12.7-38.7,18.1-59.4,23.9
	c-6.6,1.8-17.3,1.2-17.7,11.5c-0.4,9.8,8.4,14.3,15.9,17.8c21.6,10.4,45.3,14.2,68.5,19.2c18.1,4,35.5,9.3,52.3,17.2
	C707.2,780.3,727.8,819.8,717,879.6z M997.9,797c-83.8-0.4-167.4,5.1-251.1,8.9c-12.6,0.6-20.6-2.5-27.6-14.3
	c-21.1-35.8-57-49.1-94.8-59.2c-30.7-8.2-64-8.8-92.9-32.4c17.7-5.3,32.3-9.1,46.4-14.1c33.5-11.9,53.2-34.7,56.1-71.2
	c1.4-16.7,16.9-24.3,32.2-15c19.9,12.2,40.8,21.1,63.4,26c5.7,1.2,9.3,4,13.3,7.8c20.7,19.5,40.1,21.8,64.8,9.4
	c33.2-16.7,71.6-15.8,105.8-30c4.1-1.7,11.6,2.8,16.7,5.8c28.9,16.5,49.7,40.7,64.9,69.8c12,23.2,20.4,47.9,27.8,72.9
	C1029.3,784.1,1020.4,797.2,997.9,797z"/>
<path class="st0" d="M570,653.8L570,653.8c-8,5.5-16,11-27.8,8.5c4.6-9.8,13.7-10.8,21.7-13.6v0c10.6-7.2,18.7-17.1,28.2-29.5
	C594.6,640.1,584.4,648.4,570,653.8z"/>
<path class="st0" d="M531.4,700.1C531.4,700.1,531.4,700.1,531.4,700.1L531.4,700.1C531.4,700.1,531.4,700.1,531.4,700.1z"/>
<path class="st1" d="M570,653.8L570,653.8c-2.3-1.4-5.4-1.8-6-5.1v0c10.6-7.2,18.7-17.1,28.2-29.5
	C594.6,640.1,584.4,648.4,570,653.8z"/>
<path class="st2" d="M570,653.8C570,653.8,570,653.8,570,653.8c-8,5.5-16,11-27.8,8.5c4.6-9.8,13.7-10.8,21.7-13.6v0
	C566,650.4,568,652.1,570,653.8z"/>
</svg>
