<?xml version="1.0" encoding="utf-8"?>
<!-- Generator: Adobe Illustrator 24.0.0, SVG Export Plug-In . SVG Version: 6.00 Build 0)  -->
<svg version="1.1" id="Layer_1" xmlns="http://www.w3.org/2000/svg" xmlns:xlink="http://www.w3.org/1999/xlink" x="0px" y="0px"
	 viewBox="0 0 1073 1192.7" style="enable-background:new 0 0 1073 1192.7;" xml:space="preserve">
<style type="text/css">
	.st0{fill:#FEFEFE;}
	.st1{fill:#0F0F0F;}
</style>
<path d="M412.1,369.8c0.1-1.6,0-3.2,0-4.8h0c0-72.4,52.4-127.8,121.9-128.9c71.1-1.1,125.8,52.8,125.8,126.5
	c0,10.3,15,30.6-14.3,33.4c-27.9,2.6-23.6-13.3-23.7-29.9c-0.4-43.2-20.5-72.5-58.3-86.4c-31.2-11.5-67.4-1.6-90.7,24.7
	c-16.9,19-21.4,42-21.2,66.5c0.1,13.1,3.8,25.3-18.9,25.4C409.1,396.5,411.2,384.5,412.1,369.8z"/>
<path d="M404.5,748.2h262.3c-2.5,13.3-12.3,13.8-21.2,13.9c-72.4,0.2-144.8,0.1-217.3,0.1C419.5,762.1,411.3,760.6,404.5,748.2z"/>
<path d="M711,450.2c-0.3-27.6-14.2-40.3-42.4-40.4c-88.3-0.4-176.7-0.5-265.1,0c-28.5,0.2-40.5,13-40.6,41.3
	c-0.3,79.6-0.3,159.2,0,238.8c0.1,31.2,10.6,41.5,41.6,41.7c43.8,0.3,87.6,0.1,131.3,0.1c44.6,0,89.1,0.2,133.7-0.1
	c27.9-0.2,41.1-11.3,41.4-37.9C711.7,612.6,711.8,531.4,711,450.2z M557.7,614.5c2.3,7.6,3.6,15.4,5.4,23.2c5.4,23.3-4,35-28.2,35
	l0,0c-21.4,0-29.7-10.6-24.8-31.9c2.5-10.8,4-21.9,7.1-32.5c3.6-12.1,3.5-20.9-6.7-31.5c-13.6-14-10.6-31.2,3.8-44.3
	c13.6-12.3,29.5-12.3,43.5-1c15.1,12.2,18.5,30.1,6.1,44.2C552.1,589,553.5,600.5,557.7,614.5z"/>
<path d="M1058.2,208.4C909.8,77.6,734.9,13.4,539.7,0C478.4,0,419,11.3,360.5,26.7C235.8,59.5,122.1,113.4,24.3,199.1
	C2.1,218.6-3.1,240.2,1.6,267c9.3,52.5,16.7,105.3,27.8,157.4c43.8,206.3,118,398.8,256.6,562.1c63.1,74.3,128.6,145.5,214.3,195
	c24.6,14.2,46.9,15.6,71.4,0.3c28.3-17.7,56.8-35.2,82-57.3c174.6-153.1,292.5-341.9,355.4-565.2c28.5-101.1,52.4-203.2,63.4-307.9
	C1074.3,234.8,1071.8,220.3,1058.2,208.4z M1007.8,262.3C980.4,444,938.5,621.7,848.4,783.7c-69.1,124.2-157.1,234.1-273,318.4
	c-45,32.8-33.7,34.2-78.6-0.5C318.6,964.1,201.4,784.2,134.4,570.3C104.7,475.2,83.3,378.3,68,280c-2.9-19-1.6-34,15.9-47.7
	c132-103.3,283-155,449.2-169.4c105.5,6.2,206.5,32.3,302.9,76.3c58.1,26.5,112.5,59.3,160.6,101.7
	C1003.1,246.6,1009.5,251,1007.8,262.3z"/>
<path class="st0" d="M412.1,369.8c0.1-1.6,0-3.2,0-4.8h0c0-72.4,52.4-127.8,121.9-128.9c71.1-1.1,125.8,52.8,125.8,126.5
	c0,10.3,15,30.6-14.3,33.4c-27.9,2.6-23.6-13.3-23.7-29.9c-0.4-43.2-20.5-72.5-58.3-86.4c-31.2-11.5-67.4-1.6-90.7,24.7
	c-16.9,19-21.4,42-21.2,66.5c0.1,13.1,3.8,25.3-18.9,25.4C409.1,396.5,411.2,384.5,412.1,369.8z"/>
<path class="st0" d="M404.5,748.2h262.3c-2.5,13.3-12.3,13.8-21.2,13.9c-72.4,0.2-144.8,0.1-217.3,0.1
	C419.5,762.1,411.3,760.6,404.5,748.2z"/>
<path class="st0" d="M711,450.2c-0.3-27.6-14.2-40.3-42.4-40.4c-88.3-0.4-176.7-0.5-265.1,0c-28.5,0.2-40.5,13-40.6,41.3
	c-0.3,79.6-0.3,159.2,0,238.8c0.1,31.2,10.6,41.5,41.6,41.7c43.8,0.3,87.6,0.1,131.3,0.1c44.6,0,89.1,0.2,133.7-0.1
	c27.9-0.2,41.1-11.3,41.4-37.9C711.7,612.6,711.8,531.4,711,450.2z M557.7,614.5c2.3,7.6,3.6,15.4,5.4,23.2c5.4,23.3-4,35-28.2,35
	l0,0c-21.4,0-29.7-10.6-24.8-31.9c2.5-10.8,4-21.9,7.1-32.5c3.6-12.1,3.5-20.9-6.7-31.5c-13.6-14-10.6-31.2,3.8-44.3
	c13.6-12.3,29.5-12.3,43.5-1c15.1,12.2,18.5,30.1,6.1,44.2C552.1,589,553.5,600.5,557.7,614.5z"/>
<path d="M711,450.2c-0.3-27.6-14.2-40.3-42.4-40.4c-88.3-0.4-176.7-0.5-265.1,0c-28.5,0.2-40.5,13-40.6,41.3
	c-0.3,79.6-0.3,159.2,0,238.8c0.1,31.2,10.6,41.5,41.6,41.7c43.8,0.3,87.6,0.1,131.3,0.1c44.6,0,89.1,0.2,133.7-0.1
	c27.9-0.2,41.1-11.3,41.4-37.9C711.7,612.6,711.8,531.4,711,450.2z M557.7,614.5c2.3,7.6,3.6,15.4,5.4,23.2c5.4,23.3-4,35-28.2,35
	l0,0c-21.4,0-29.7-10.6-24.8-31.9c2.5-10.8,4-21.9,7.1-32.5c3.6-12.1,3.5-20.9-6.7-31.5c-13.6-14-10.6-31.2,3.8-44.3
	c13.6-12.3,29.5-12.3,43.5-1c15.1,12.2,18.5,30.1,6.1,44.2C552.1,589,553.5,600.5,557.7,614.5z"/>
<path d="M645.4,396.1c-27.9,2.6-23.6-13.3-23.7-29.9c-0.4-43.2-20.5-72.5-58.3-86.4c-31.2-11.5-67.4-1.6-90.7,24.7
	c-16.9,19-21.4,42-21.2,66.5c0.1,13.1,3.8,25.3-18.9,25.4c-23.4,0.1-21.3-11.9-20.5-26.5c0.1-1.6,0-3.2,0-4.8h0
	c0-72.4,52.4-127.8,121.9-128.9c71.1-1.1,125.8,52.8,125.8,126.5C659.7,373,674.7,393.3,645.4,396.1z"/>
<path class="st1" d="M666.8,748.2c-2.5,13.3-12.3,13.8-21.2,13.9c-72.4,0.2-144.8,0.1-217.3,0.1c-8.8,0-17-1.6-23.9-14H666.8z"/>
</svg>
