<?xml version="1.0" encoding="utf-8"?>
<!-- Generator: Adobe Illustrator 24.0.0, SVG Export Plug-In . SVG Version: 6.00 Build 0)  -->
<svg version="1.1" id="Layer_1" xmlns="http://www.w3.org/2000/svg" xmlns:xlink="http://www.w3.org/1999/xlink" x="0px" y="0px"
	 viewBox="0 0 1139.2 1140.7" style="enable-background:new 0 0 1139.2 1140.7;" xml:space="preserve">
<style type="text/css">
	.st0{fill:#FEFEFE;}
</style>
<path d="M407.3,322.9c-62.4-0.1-114.1,50.8-114,112.1c0.1,66,49.6,116,114.5,115.6c62.2-0.3,113.8-51.5,113.5-112.6
	C521,374.7,469.8,323,407.3,322.9z M444.7,438c-0.2,21.1-16.5,36.9-38,36.7c-21.5-0.2-36.9-15.9-36.8-37.7
	c0-20.6,17.2-37.6,37.8-37.3C428.1,399.9,444.8,417.2,444.7,438L444.7,438z"/>
<path d="M699.6,414.3c-71.7,124.5-143.5,249-215.2,373.5c-8.7,15.1-18.8,27.5-37.3,30c-26.5,0.8-46.3-26.9-36.8-51.8
	c2.1-5.6,5.1-11,8.1-16.2c71.8-124.4,143.7-248.8,215.7-373.2c4.1-7.2,8.5-14.6,14.3-20.3c12.9-12.8,28.8-13.8,43.8-5.1
	c15,8.7,22.3,22.8,17.4,40.5C707.6,399.5,703.7,407.1,699.6,414.3z"/>
<path d="M730.9,590.2c-64.7-0.1-114.3,47.8-114.2,110.2c0.1,66.7,49,117.6,113,117.7c62.4,0.1,115.3-52.4,115-114.1
	C844.4,639.3,795.3,590.2,730.9,590.2z M730.8,741.3c-22.2,0.2-38-15.9-37.8-38.6c0.1-20.4,17.1-37.5,37.2-37.8
	c19.8-0.2,37.2,16.9,37.8,37.3C768.7,724.7,753.1,741.2,730.8,741.3z"/>
<path d="M1139.1,564.1C1134.9,253.3,874.3-1.6,565.2,0C241.8,1.7-10,278.8,0.3,566C-9.4,884.8,263,1143.1,573,1140.6
	C892.9,1138.1,1143.3,864.6,1139.1,564.1z M571.9,1064.7C291,1065.6,67.9,838.9,74.1,554.1C79.5,305.7,284.7,78.4,567.1,75.8v0
	c269.9-2.4,493.5,219.2,496.4,492.1C1066.5,837.2,843.3,1063.8,571.9,1064.7z"/>
<path class="st0" d="M407.3,322.9c-62.4-0.1-114.1,50.8-114,112.1c0.1,66,49.6,116,114.5,115.6c62.2-0.3,113.8-51.5,113.5-112.6
	C521,374.7,469.8,323,407.3,322.9z M444.7,438c-0.2,21.1-16.5,36.9-38,36.7c-21.5-0.2-36.9-15.9-36.8-37.7
	c0-20.6,17.2-37.6,37.8-37.3C428.1,399.9,444.8,417.2,444.7,438L444.7,438z"/>
<path class="st0" d="M699.6,414.3c-71.7,124.5-143.5,249-215.2,373.5c-8.7,15.1-18.8,27.5-37.3,30c-26.5,0.8-46.3-26.9-36.8-51.8
	c2.1-5.6,5.1-11,8.1-16.2c71.8-124.4,143.7-248.8,215.7-373.2c4.1-7.2,8.5-14.6,14.3-20.3c12.9-12.8,28.8-13.8,43.8-5.1
	c15,8.7,22.3,22.8,17.4,40.5C707.6,399.5,703.7,407.1,699.6,414.3z"/>
<path class="st0" d="M730.9,590.2c-64.7-0.1-114.3,47.8-114.2,110.2c0.1,66.7,49,117.6,113,117.7c62.4,0.1,115.3-52.4,115-114.1
	C844.4,639.3,795.3,590.2,730.9,590.2z M730.8,741.3c-22.2,0.2-38-15.9-37.8-38.6c0.1-20.4,17.1-37.5,37.2-37.8
	c19.8-0.2,37.2,16.9,37.8,37.3C768.7,724.7,753.1,741.2,730.8,741.3z"/>
<path d="M709.8,391.7c-2.2,7.9-6.1,15.5-10.2,22.6c-71.7,124.5-143.5,249-215.2,373.5c-8.7,15.1-18.8,27.5-37.3,30
	c-26.5,0.8-46.3-26.9-36.8-51.8c2.1-5.6,5.1-11,8.1-16.2c71.8-124.4,143.7-248.8,215.7-373.2c4.1-7.2,8.5-14.6,14.3-20.3
	c12.9-12.8,28.8-13.8,43.8-5.1C707.3,359.9,714.6,374,709.8,391.7z"/>
<path d="M730.9,590.2c-64.7-0.1-114.3,47.8-114.2,110.2c0.1,66.7,49,117.6,113,117.7c62.4,0.1,115.3-52.4,115-114.1
	C844.4,639.3,795.3,590.2,730.9,590.2z M730.8,741.3c-22.2,0.2-38-15.9-37.8-38.6c0.1-20.4,17.1-37.5,37.2-37.8
	c19.8-0.2,37.2,16.9,37.8,37.3C768.7,724.7,753.1,741.2,730.8,741.3z"/>
<path d="M407.3,322.9c-62.4-0.1-114.1,50.8-114,112.1c0.1,66,49.6,116,114.5,115.6c62.2-0.3,113.8-51.5,113.5-112.6
	C521,374.7,469.8,323,407.3,322.9z M444.7,438c-0.2,21.1-16.5,36.9-38,36.7c-21.5-0.2-36.9-15.9-36.8-37.7
	c0-20.6,17.2-37.6,37.8-37.3C428.1,399.9,444.8,417.2,444.7,438L444.7,438z"/>
</svg>
