<?xml version="1.0" encoding="utf-8"?>
<!-- Generator: Adobe Illustrator 24.0.0, SVG Export Plug-In . SVG Version: 6.00 Build 0)  -->
<svg version="1.1" id="Layer_1" xmlns="http://www.w3.org/2000/svg" xmlns:xlink="http://www.w3.org/1999/xlink" x="0px" y="0px"
	 viewBox="0 0 1159.4 1158.3" style="enable-background:new 0 0 1159.4 1158.3;" xml:space="preserve">
<style type="text/css">
	.st0{fill:#FEFEFE;}
</style>
<path d="M767.6,664.9c4.3,36.2,4.8,72.6-10.4,106.9c-20.1,45.5-54.1,76.8-102.2,89.9c-17.1,4.7-23.3,10.5-22.6,28.9
	c1.6,41.5,0.5,41.5-41.9,41.5c-13.9,0-27.9-1.4-41.6,0.3c-19.4,2.5-22.7-6-22.2-23.2c1-41.2,0.2-41.2-41.8-41.2
	c-24.5,0-36.8-12.5-36.8-37.5c0-17.8,0.8-35.5-0.3-53.2c-0.7-12.5,3.9-15.8,15.8-15.4c25.4,0.8,50.9,0.3,76.4,0.3l0,0
	c23.9,0,47.8-0.1,71.8,0.1c8.6,0.1,16.7-1.1,24.5-5.3c24.4-13.2,35.1-45.7,26.7-81.9c-6.3-27.4-25.4-42.4-54.8-43.4
	c-36.8-1.2-73.8,3.4-110.1-8.8c-58.6-19.8-101.6-73.3-106.7-135.1c-4.4-53.8,0.2-104.7,39.5-146.9c22.3-23.9,48.6-40.6,80.4-46.9
	c12.5-2.5,16-6.8,16.2-19.3c0.6-49.9,1.1-50,50-49.8c17.6,0.1,39.6-5.2,51.6,3.3c11.7,8.3,3.5,31.6,3.7,48.2
	c0.1,10.5,3.6,13.1,13.4,12.7c17.7-0.7,35.5,0.4,53.2-0.4c10.3-0.5,13.2,3.1,12.9,13.1c-0.7,25.5-0.9,50.9,0.1,76.4
	c0.5,13.1-3.6,17-16.8,16.8c-46.3-0.8-92.6-0.4-138.9-0.2c-30.6,0.1-48.8,11-57.4,33.6c-10.7,27.9-3.8,67.9,14.8,84.5
	c10.9,9.8,23.8,12.5,38.4,12.6c41.4,0.3,83.5-5,123,13.4C729,564.1,760.5,606,767.6,664.9z"/>
<path d="M581,0.1C251.6-5.8,6.7,273.2,0.2,559.8c-7.7,337.4,269.3,598.9,579.3,598.4c326.9-0.5,578.2-274.3,579.9-574.2
	C1161.2,264.8,898.2-5.1,581,0.1z M581.7,1053.3c-262.2,2.8-473.1-208.7-476.7-478l0,0C101.6,320.4,315,106.7,575.8,103.8
	c260.7-2.9,475.7,209,478.7,471.8C1057.5,835.7,844.9,1050.5,581.7,1053.3z"/>
<path class="st0" d="M757.2,771.8c-20.1,45.5-54.1,76.8-102.2,89.9c-17.1,4.7-23.3,10.5-22.6,28.9c1.6,41.5,0.5,41.5-41.9,41.5
	c-13.9,0-27.9-1.4-41.6,0.3c-19.4,2.5-22.7-6-22.2-23.2c1-41.2,0.2-41.2-41.8-41.2c-24.5,0-36.8-12.5-36.8-37.5
	c0-17.8,0.8-35.5-0.3-53.2c-0.7-12.5,3.9-15.8,15.8-15.4c25.4,0.8,50.9,0.3,76.4,0.3l0,0c23.9,0,47.8-0.1,71.8,0.1
	c8.6,0.1,16.7-1.1,24.5-5.3c24.4-13.2,35.1-45.7,26.7-81.9c-6.3-27.4-25.4-42.4-54.8-43.4c-36.8-1.2-73.8,3.4-110.1-8.8
	c-58.6-19.8-101.6-73.3-106.7-135.1c-4.4-53.8,0.2-104.7,39.5-146.9c22.3-23.9,48.6-40.6,80.4-46.9c12.5-2.5,16-6.8,16.2-19.3
	c0.6-49.9,1.1-50,50-49.8c17.6,0.1,39.6-5.2,51.6,3.3c11.7,8.3,3.5,31.6,3.7,48.2c0.1,10.5,3.6,13.1,13.4,12.7
	c17.7-0.7,35.5,0.4,53.2-0.4c10.3-0.5,13.2,3.1,12.9,13.1c-0.7,25.5-0.9,50.9,0.1,76.4c0.5,13.1-3.6,17-16.8,16.8
	c-46.3-0.8-92.6-0.4-138.9-0.2c-30.6,0.1-48.8,11-57.4,33.6c-10.7,27.9-3.8,67.9,14.8,84.5c10.9,9.8,23.8,12.5,38.4,12.6
	c41.4,0.3,83.5-5,123,13.4c53.9,25.2,85.3,67,92.4,126C771.9,701.1,772.4,737.5,757.2,771.8z"/>
<path d="M757.2,771.8c-20.1,45.5-54.1,76.8-102.2,89.9c-17.1,4.7-23.3,10.5-22.6,28.9c1.6,41.5,0.5,41.5-41.9,41.5
	c-13.9,0-27.9-1.4-41.6,0.3c-19.4,2.5-22.7-6-22.2-23.2c1-41.2,0.2-41.2-41.8-41.2c-24.5,0-36.8-12.5-36.8-37.5
	c0-17.8,0.8-35.5-0.3-53.2c-0.7-12.5,3.9-15.8,15.8-15.4c25.4,0.8,50.9,0.3,76.4,0.3l0,0c23.9,0,47.8-0.1,71.8,0.1
	c8.6,0.1,16.7-1.1,24.5-5.3c24.4-13.2,35.1-45.7,26.7-81.9c-6.3-27.4-25.4-42.4-54.8-43.4c-36.8-1.2-73.8,3.4-110.1-8.8
	c-58.6-19.8-101.6-73.3-106.7-135.1c-4.4-53.8,0.2-104.7,39.5-146.9c22.3-23.9,48.6-40.6,80.4-46.9c12.5-2.5,16-6.8,16.2-19.3
	c0.6-49.9,1.1-50,50-49.8c17.6,0.1,39.6-5.2,51.6,3.3c11.7,8.3,3.5,31.6,3.7,48.2c0.1,10.5,3.6,13.1,13.4,12.7
	c17.7-0.7,35.5,0.4,53.2-0.4c10.3-0.5,13.2,3.1,12.9,13.1c-0.7,25.5-0.9,50.9,0.1,76.4c0.5,13.1-3.6,17-16.8,16.8
	c-46.3-0.8-92.6-0.4-138.9-0.2c-30.6,0.1-48.8,11-57.4,33.6c-10.7,27.9-3.8,67.9,14.8,84.5c10.9,9.8,23.8,12.5,38.4,12.6
	c41.4,0.3,83.5-5,123,13.4c53.9,25.2,85.3,67,92.4,126C771.9,701.1,772.4,737.5,757.2,771.8z"/>
</svg>
