<?xml version="1.0" encoding="utf-8"?>
<!-- Generator: Adobe Illustrator 24.0.0, SVG Export Plug-In . SVG Version: 6.00 Build 0)  -->
<svg version="1.1" id="Layer_1" xmlns="http://www.w3.org/2000/svg" xmlns:xlink="http://www.w3.org/1999/xlink" x="0px" y="0px"
	 viewBox="0 0 1148.1 1146.9" style="enable-background:new 0 0 1148.1 1146.9;" xml:space="preserve">
<style type="text/css">
	.st0{fill:#FEFEFE;}
</style>
<path d="M742,666c6,56.2,0.3,108.5-46.4,148.2c-22.2,18.9-47.7,31.4-76.6,32c-17,0.4-18.3,7.2-17.7,20.3c0.7,17.5-0.9,35.2,0.5,52.7
	c1.3,16.4-2.8,25-20.9,21.9c-4.5-0.8-9.2-0.7-13.7,0c-16,2.4-22.8-4-20.1-20.1c0.1-0.7,0.1-1.5,0-2.3c-1.4-23.5,10.1-55.7-4.5-68
	c-14-11.8-45.1-3.3-68.7-3.8c-0.8,0-1.5,0-2.3,0c-32.7,0-42.4-14-33.7-46.9c2.8-10.6,10.3-7.3,16.3-7.3
	c50.4-0.3,100.9,0.5,151.3-0.4c44.4-0.8,76.3-29.1,82.2-70.8c8.6-60.1-11.2-101.9-56.6-115.9c-28.2-8.7-57.7-3.9-86.6-3.9
	c-42.3,0-78.1-14.5-105.4-46.5c-42.5-49.9-44-108.7-24.6-166.4c18.1-53.5,60.2-83.1,117.6-87.2c12-0.8,15.7-4.3,15.2-16.1
	c-0.9-20.6,0.4-41.3-0.5-61.9c-0.6-12.7,3.3-17,16.6-17.2c38.1-0.5,37.6-1.2,38.3,36.7c0.4,18.9-8.6,43.9,4,54.8
	c10.6,9.2,35,2.6,53.3,2.9c6.1,0.1,12.2,0,18.3,0c33.6,0,32.5,0,33.8,33.3c0.7,17.3-4.1,22.6-21.5,21.4c-25.1-1.6-50.4-0.4-75.6-0.4
	v0.1l0,0c-24.4,0-48.9-0.5-73.4,0.1c-44,1-75.6,30.8-80.4,75c-1.8,16-1.5,32,1,48c5.7,36.6,33.8,64,70.7,66.7
	c29.7,2.1,59.6,1,89.3,3C683.8,552.6,735.3,603.6,742,666z"/>
<path d="M579.9,0C254.8-2.6,10.2,265,0.4,549c-11.9,343.7,269.3,604.1,571.1,597.9C897,1153.3,1143.2,878,1148,586.5
	C1153.4,265.1,890.5,2.6,579.9,0z M579.4,1093.8c-279.5,3.3-524.4-219-525.3-524.3C53.3,299,275.4,56.3,571.9,54.4
	c275-1.7,519.3,216.8,521.7,516.1C1096,859.9,866,1090.4,579.4,1093.8z"/>
<path class="st0" d="M695.6,814.3c-22.2,18.9-47.7,31.4-76.6,32c-17,0.4-18.3,7.2-17.7,20.3c0.7,17.5-0.9,35.2,0.5,52.7
	c1.3,16.4-2.8,25-20.9,21.9c-4.5-0.8-9.2-0.7-13.7,0c-16,2.4-22.8-4-20.1-20.1c0.1-0.7,0.1-1.5,0-2.3c-1.4-23.5,10.1-55.7-4.5-68
	c-14-11.8-45.1-3.3-68.7-3.8c-0.8,0-1.5,0-2.3,0c-32.7,0-42.4-14-33.7-46.9c2.8-10.6,10.3-7.3,16.3-7.3
	c50.4-0.3,100.9,0.5,151.3-0.4c44.4-0.8,76.3-29.1,82.2-70.8c8.6-60.1-11.2-101.9-56.6-115.9c-28.2-8.7-57.7-3.9-86.6-3.9
	c-42.3,0-78.1-14.5-105.4-46.5c-42.5-49.9-44-108.7-24.6-166.4c18.1-53.5,60.2-83.1,117.6-87.2c12-0.8,15.7-4.3,15.2-16.1
	c-0.9-20.6,0.4-41.3-0.5-61.9c-0.6-12.7,3.3-17,16.6-17.2c38.1-0.5,37.6-1.2,38.3,36.7c0.4,18.9-8.6,43.9,4,54.8
	c10.6,9.2,35,2.6,53.3,2.9c6.1,0.1,12.2,0,18.3,0c33.6,0,32.5,0,33.8,33.3c0.7,17.3-4.1,22.6-21.5,21.4c-25.1-1.6-50.4-0.4-75.6-0.4
	v0.1l0,0c-24.4,0-48.9-0.5-73.4,0.1c-44,1-75.6,30.8-80.4,75c-1.8,16-1.5,32,1,48c5.7,36.6,33.8,64,70.7,66.7
	c29.7,2.1,59.6,1,89.3,3c62.5,4.4,114.1,55.3,120.8,117.8C748,722.2,742.3,774.5,695.6,814.3z"/>
<path d="M695.6,814.3c-22.2,18.9-47.7,31.4-76.6,32c-17,0.4-18.3,7.2-17.7,20.3c0.7,17.5-0.9,35.2,0.5,52.7
	c1.3,16.4-2.8,25-20.9,21.9c-4.5-0.8-9.2-0.7-13.7,0c-16,2.4-22.8-4-20.1-20.1c0.1-0.7,0.1-1.5,0-2.3c-1.4-23.5,10.1-55.7-4.5-68
	c-14-11.8-45.1-3.3-68.7-3.8c-0.8,0-1.5,0-2.3,0c-32.7,0-42.4-14-33.7-46.9c2.8-10.6,10.3-7.3,16.3-7.3
	c50.4-0.3,100.9,0.5,151.3-0.4c44.4-0.8,76.3-29.1,82.2-70.8c8.6-60.1-11.2-101.9-56.6-115.9c-28.2-8.7-57.7-3.9-86.6-3.9
	c-42.3,0-78.1-14.5-105.4-46.5c-42.5-49.9-44-108.7-24.6-166.4c18.1-53.5,60.2-83.1,117.6-87.2c12-0.8,15.7-4.3,15.2-16.1
	c-0.9-20.6,0.4-41.3-0.5-61.9c-0.6-12.7,3.3-17,16.6-17.2c38.1-0.5,37.6-1.2,38.3,36.7c0.4,18.9-8.6,43.9,4,54.8
	c10.6,9.2,35,2.6,53.3,2.9c6.1,0.1,12.2,0,18.3,0c33.6,0,32.5,0,33.8,33.3c0.7,17.3-4.1,22.6-21.5,21.4c-25.1-1.6-50.4-0.4-75.6-0.4
	v0.1l0,0c-24.4,0-48.9-0.5-73.4,0.1c-44,1-75.6,30.8-80.4,75c-1.8,16-1.5,32,1,48c5.7,36.6,33.8,64,70.7,66.7
	c29.7,2.1,59.6,1,89.3,3c62.5,4.4,114.1,55.3,120.8,117.8C748,722.2,742.3,774.5,695.6,814.3z"/>
</svg>
