<?xml version="1.0" encoding="utf-8"?>
<!-- Generator: Adobe Illustrator 24.0.0, SVG Export Plug-In . SVG Version: 6.00 Build 0)  -->
<svg version="1.1" id="Layer_1" xmlns="http://www.w3.org/2000/svg" xmlns:xlink="http://www.w3.org/1999/xlink" x="0px" y="0px"
	 viewBox="0 0 1192.6 1191.7" style="enable-background:new 0 0 1192.6 1191.7;" xml:space="preserve">
<style type="text/css">
	.st0{fill:#FEFEFE;}
</style>
<path d="M741.5,593.1c-32.6-15.2-66.8-24.9-101.7-31.7c-14.6-2.8-19.7-7.7-19.5-22.8c0.7-73.9,0.9-147.7-0.1-221.6
	c-0.2-17.5,6.3-19.1,20.7-17.4c67.7,7.8,113.5,56.9,120.3,132.1c1.5,17.1,6.4,24.9,24.2,21.9c5.4-0.9,11.2-1,16.6,0
	c18.9,3.3,22.1-5.3,21.1-22.5c-5-86-60.9-150.9-150.3-174.2c-17.2-4.5-42.3,2.8-50.2-11.8c-8-14.8-3.4-37.3-1.8-56.2
	c1.5-18.9-4.8-23.9-23.5-23.9c-19.4-0.1-27.7,4.5-24.8,24.8c1.4,10.1-1,20.8,0.5,30.9c3.5,23.4-4.5,34-29.3,34.7
	c-23,0.6-45.2,7.8-65.9,18.4c-62.9,32.3-96,83.7-96.4,154.5c-0.4,69.9,32.4,119.2,96.7,147.1c24.8,10.8,50.8,17.8,77.1,23.4
	c12.9,2.8,18.2,8.1,17.8,22.2c-1.1,38.1-0.4,76.2-0.4,114.4h0c0,38.9-0.8,77.9,0.3,116.8c0.5,16.3-4.3,17.5-18.9,14.4
	c-74.3-15.5-117-60.4-126.3-135.3c-3.5-27.8-19.3-41.1-47.5-39.7c-1.6,0.1-3.2,0.1-4.8,0c-8.4-0.7-10.9,3.5-10.6,11.5
	c3.1,90.9,37.6,172.7,138.9,200.7c16.8,4.6,34,8,51.3,10c14,1.6,18.7,7.3,18,21.4c-1.1,24.6,1,49.3-0.7,73.8
	c-1.5,20.9,11.2,18.4,23.9,18c11.8-0.4,26.2,5,24.7-17.1c-1.7-24.5,0.3-49.2-0.7-73.8c-0.5-13.7,4.2-17.5,17.6-17.4
	c32.1,0.2,63.1-7.5,92.2-20.5c65.7-29.5,108.3-77.5,111.2-152.3C844.2,672.3,806.6,623.5,741.5,593.1z M572.7,546.5
	c-16-4-29.8-6.9-43.3-10.9c-66.2-19.5-94.9-61-86.8-124.8c8.3-65.2,52.4-106.1,117-109.9c9.3-0.5,13.2,1,13.1,10.6
	C572.6,389.2,572.7,466.8,572.7,546.5z M753.8,819.1c-31.5,36.7-73.9,49.3-120.5,52.3c-13.7,0.9-12.9-7.2-12.8-16.4
	c0.2-37.2,0.1-74.5,0.1-111.7c0-37.2,0.8-74.5-0.4-111.7c-0.5-16.6,5.1-18,19.1-14c27.4,7.9,54.5,15.9,80,28.9
	C785.9,680.5,802.6,762.3,753.8,819.1z"/>
<path d="M601.2,0C266.8-2.4,9.6,273.8,0.3,571.6c-11,351.4,273.1,626.2,594.5,620h0c326.3,6.1,594.7-267.6,597.8-588.3
	C1195.8,276.3,926.5,2.3,601.2,0z M622.1,1144.6c-312.6,15.8-561.6-229.3-574.8-528C34.2,322.5,268.8,56.3,580.9,47.4
	c292.1-9.1,556.9,220.4,564.3,539.1C1151.8,871,933.1,1129,622.1,1144.6z"/>
<path class="st0" d="M741.5,593.1c-32.6-15.2-66.8-24.9-101.7-31.7c-14.6-2.8-19.7-7.7-19.5-22.8c0.7-73.9,0.9-147.7-0.1-221.6
	c-0.2-17.5,6.3-19.1,20.7-17.4c67.7,7.8,113.5,56.9,120.3,132.1c1.5,17.1,6.4,24.9,24.2,21.9c5.4-0.9,11.2-1,16.6,0
	c18.9,3.3,22.1-5.3,21.1-22.5c-5-86-60.9-150.9-150.3-174.2c-17.2-4.5-42.3,2.8-50.2-11.8c-8-14.8-3.4-37.3-1.8-56.2
	c1.5-18.9-4.8-23.9-23.5-23.9c-19.4-0.1-27.7,4.5-24.8,24.8c1.4,10.1-1,20.8,0.5,30.9c3.5,23.4-4.5,34-29.3,34.7
	c-23,0.6-45.2,7.8-65.9,18.4c-62.9,32.3-96,83.7-96.4,154.5c-0.4,69.9,32.4,119.2,96.7,147.1c24.8,10.8,50.8,17.8,77.1,23.4
	c12.9,2.8,18.2,8.1,17.8,22.2c-1.1,38.1-0.4,76.2-0.4,114.4h0c0,38.9-0.8,77.9,0.3,116.8c0.5,16.3-4.3,17.5-18.9,14.4
	c-74.3-15.5-117-60.4-126.3-135.3c-3.5-27.8-19.3-41.1-47.5-39.7c-1.6,0.1-3.2,0.1-4.8,0c-8.4-0.7-10.9,3.5-10.6,11.5
	c3.1,90.9,37.6,172.7,138.9,200.7c16.8,4.6,34,8,51.3,10c14,1.6,18.7,7.3,18,21.4c-1.1,24.6,1,49.3-0.7,73.8
	c-1.5,20.9,11.2,18.4,23.9,18c11.8-0.4,26.2,5,24.7-17.1c-1.7-24.5,0.3-49.2-0.7-73.8c-0.5-13.7,4.2-17.5,17.6-17.4
	c32.1,0.2,63.1-7.5,92.2-20.5c65.7-29.5,108.3-77.5,111.2-152.3C844.2,672.3,806.6,623.5,741.5,593.1z M572.7,546.5
	c-16-4-29.8-6.9-43.3-10.9c-66.2-19.5-94.9-61-86.8-124.8c8.3-65.2,52.4-106.1,117-109.9c9.3-0.5,13.2,1,13.1,10.6
	C572.6,389.2,572.7,466.8,572.7,546.5z M753.8,819.1c-31.5,36.7-73.9,49.3-120.5,52.3c-13.7,0.9-12.9-7.2-12.8-16.4
	c0.2-37.2,0.1-74.5,0.1-111.7c0-37.2,0.8-74.5-0.4-111.7c-0.5-16.6,5.1-18,19.1-14c27.4,7.9,54.5,15.9,80,28.9
	C785.9,680.5,802.6,762.3,753.8,819.1z"/>
<path d="M741.5,593.1c-32.6-15.2-66.8-24.9-101.7-31.7c-14.6-2.8-19.7-7.7-19.5-22.8c0.7-73.9,0.9-147.7-0.1-221.6
	c-0.2-17.5,6.3-19.1,20.7-17.4c67.7,7.8,113.5,56.9,120.3,132.1c1.5,17.1,6.4,24.9,24.2,21.9c5.4-0.9,11.2-1,16.6,0
	c18.9,3.3,22.1-5.3,21.1-22.5c-5-86-60.9-150.9-150.3-174.2c-17.2-4.5-42.3,2.8-50.2-11.8c-8-14.8-3.4-37.3-1.8-56.2
	c1.5-18.9-4.8-23.9-23.5-23.9c-19.4-0.1-27.7,4.5-24.8,24.8c1.4,10.1-1,20.8,0.5,30.9c3.5,23.4-4.5,34-29.3,34.7
	c-23,0.6-45.2,7.8-65.9,18.4c-62.9,32.3-96,83.7-96.4,154.5c-0.4,69.9,32.4,119.2,96.7,147.1c24.8,10.8,50.8,17.8,77.1,23.4
	c12.9,2.8,18.2,8.1,17.8,22.2c-1.1,38.1-0.4,76.2-0.4,114.4h0c0,38.9-0.8,77.9,0.3,116.8c0.5,16.3-4.3,17.5-18.9,14.4
	c-74.3-15.5-117-60.4-126.3-135.3c-3.5-27.8-19.3-41.1-47.5-39.7c-1.6,0.1-3.2,0.1-4.8,0c-8.4-0.7-10.9,3.5-10.6,11.5
	c3.1,90.9,37.6,172.7,138.9,200.7c16.8,4.6,34,8,51.3,10c14,1.6,18.7,7.3,18,21.4c-1.1,24.6,1,49.3-0.7,73.8
	c-1.5,20.9,11.2,18.4,23.9,18c11.8-0.4,26.2,5,24.7-17.1c-1.7-24.5,0.3-49.2-0.7-73.8c-0.5-13.7,4.2-17.5,17.6-17.4
	c32.1,0.2,63.1-7.5,92.2-20.5c65.7-29.5,108.3-77.5,111.2-152.3C844.2,672.3,806.6,623.5,741.5,593.1z M572.7,546.5
	c-16-4-29.8-6.9-43.3-10.9c-66.2-19.5-94.9-61-86.8-124.8c8.3-65.2,52.4-106.1,117-109.9c9.3-0.5,13.2,1,13.1,10.6
	C572.6,389.2,572.7,466.8,572.7,546.5z M753.8,819.1c-31.5,36.7-73.9,49.3-120.5,52.3c-13.7,0.9-12.9-7.2-12.8-16.4
	c0.2-37.2,0.1-74.5,0.1-111.7c0-37.2,0.8-74.5-0.4-111.7c-0.5-16.6,5.1-18,19.1-14c27.4,7.9,54.5,15.9,80,28.9
	C785.9,680.5,802.6,762.3,753.8,819.1z"/>
</svg>
