<?xml version="1.0" encoding="utf-8"?>
<!-- Generator: Adobe Illustrator 24.0.0, SVG Export Plug-In . SVG Version: 6.00 Build 0)  -->
<svg version="1.1" id="Layer_1" xmlns="http://www.w3.org/2000/svg" xmlns:xlink="http://www.w3.org/1999/xlink" x="0px" y="0px"
	 viewBox="0 0 1140.3 980.6" style="enable-background:new 0 0 1140.3 980.6;" xml:space="preserve">
<style type="text/css">
	.st0{fill:#FEFEFE;}
</style>
<path d="M686.3,222.7h0.2c0-5.3,0.1-10.7,0-16c-0.5-51.9-25.1-92.5-68.6-105.1c-49.6-14.3-111.3-9.9-144,34.7
	c-24.2,33.1-23.8,70.4-18.3,107.4c8.1,54.8,56.1,90.4,111.4,86.4c11.2-0.8,20-4.2,20.6-16.5c0.7-13.7-8-18.4-20.5-18.8
	c-7.6-0.2-15.2-0.8-22.7-2c-30.9-5.2-51.6-27-55.4-58.2c-2-16.7-2-33.5,0.4-50.2c3-21.1,14.4-36.8,33-46.7
	c65.6-35,129.8,2.9,130,76.4c0,9.2-0.1,18.3,0,27.5c0.2,9.6-2.5,16.5-13.8,16.5c-10.8,0-14.7-5.9-14.6-16
	c0.1-13.7,0.5-27.5-0.3-41.2c-1.3-24.1-14.2-38.4-36.9-42.3c-32.8-5.6-59.9,3.4-66.3,26.1c-10.7,38.4-4.4,84.8,52.7,81.2
	c11.6-0.7,20.9,0,29.2,11.7c12.6,17.8,32.9,18.3,51.9,12.9c19.3-5.5,30-20.2,32-40.3C687,241.1,686.3,231.8,686.3,222.7z
	 M571.7,232.7c-16.1,3.1-22-3.2-22-19.5c0-16.3,6.7-21,21.9-21.1c17.7-0.2,18.5,9.6,19.4,23.4C592.1,231.7,585.8,235.9,571.7,232.7z
	 M686.3,222.7h0.2c0-5.3,0.1-10.7,0-16c-0.5-51.9-25.1-92.5-68.6-105.1c-49.6-14.3-111.3-9.9-144,34.7
	c-24.2,33.1-23.8,70.4-18.3,107.4c8.1,54.8,56.1,90.4,111.4,86.4c11.2-0.8,20-4.2,20.6-16.5c0.7-13.7-8-18.4-20.5-18.8
	c-7.6-0.2-15.2-0.8-22.7-2c-30.9-5.2-51.6-27-55.4-58.2c-2-16.7-2-33.5,0.4-50.2c3-21.1,14.4-36.8,33-46.7
	c65.6-35,129.8,2.9,130,76.4c0,9.2-0.1,18.3,0,27.5c0.2,9.6-2.5,16.5-13.8,16.5c-10.8,0-14.7-5.9-14.6-16
	c0.1-13.7,0.5-27.5-0.3-41.2c-1.3-24.1-14.2-38.4-36.9-42.3c-32.8-5.6-59.9,3.4-66.3,26.1c-10.7,38.4-4.4,84.8,52.7,81.2
	c11.6-0.7,20.9,0,29.2,11.7c12.6,17.8,32.9,18.3,51.9,12.9c19.3-5.5,30-20.2,32-40.3C687,241.1,686.3,231.8,686.3,222.7z
	 M571.7,232.7c-16.1,3.1-22-3.2-22-19.5c0-16.3,6.7-21,21.9-21.1c17.7-0.2,18.5,9.6,19.4,23.4C592.1,231.7,585.8,235.9,571.7,232.7z
	 M1139.9,265.5c-0.1-44.6-25.3-69-70-69.1c-84-0.1-168,0-251.9,0c-23.9,0-38.7-11.4-44.1-34.3C750.8,66.1,660.6-3.7,564.7,0.2
	C463,4.2,375.3,80.3,361.6,178.1c-2.3,16.6-9,18.7-23.3,18.6c-89.3-0.6-178.7-0.4-268-0.3c-46.1,0.1-70.3,24.3-70.3,70.9
	C0,481.8,0,696.3,0.1,910.9c0,45.6,23.8,69,69,69c166.4,0,332.9,0,499.3,0l0,0c167.2,0,334.4-1.2,501.6,0.8
	c44.7,0.5,70.4-34.3,70.3-69.2C1139.6,696.1,1140.1,480.8,1139.9,265.5z M393.1,211.6C392.6,115.4,471.8,36,568.7,35.4
	c98.5-0.6,177.6,78.9,178.1,178.9c0.5,96.5-78.7,176.5-175,176.8C470.6,391.4,393.5,314.1,393.1,211.6L393.1,211.6z M85.4,230.9
	c84.7-0.2,169.4,0.1,254.1-0.3c13.4-0.1,19.8,2.1,22.3,17.7c15.6,99.6,104.1,177.2,200.3,177.2c110.9,0,198.8-72.2,215.6-178.4
	c2-12.9,4.4-18.3,18.8-18.2c89.3,0.7,178.6,0.3,267.9,0.4c2,0,4.9-1.3,6.1,4.5h0c0.3,4.3-5.8,5.9-9.4,9.1
	C907.8,379.4,754.3,515.7,600.9,652c-26.6,23.7-35.7,23.9-62.4,0.3c-153.2-135.4-306.3-271-459.5-406.4c-3.8-3.4-8.3-6.1-13.3-9.6
	C73.6,228.8,79.9,230.9,85.4,230.9z M36.4,251.8c30.1,26.7,57.8,51.2,85.4,75.7c93,82.7,186,165.4,278.9,248.2
	c6.5,5.8,18.1,9.4,4.2,21.6c-122,107.4-243.4,215.4-368.5,326.3V251.8z M63.3,946.2c20.9-18.7,38.6-34.7,56.5-50.6
	C222,805,324.4,714.7,426.2,623.7c11.3-10.1,18-11.8,29.5-0.5c21.2,20.8,43.8,40.3,66.3,59.8c32.9,28.5,65.3,28,98-0.8
	c23.5-20.7,46.9-41.3,70-62.4c6.5-6,10.9-8,18.8-1c121.1,108.1,242.6,215.9,368.1,327.5H63.3z M1103.8,924.2
	c-92.9-82.5-182.4-162-272-241.5c-31.9-28.4-63.8-56.9-96-84.9c-7.8-6.8-10.3-10.4-0.9-18.8c120.7-106.5,241-213.4,361.5-320.1
	c1.5-1.3,3.6-2.1,7.4-4.3V924.2z M566.9,330.1c11.2-0.8,20-4.2,20.6-16.5c0.7-13.7-8-18.4-20.5-18.8c-7.6-0.2-15.2-0.8-22.7-2
	c-30.9-5.2-51.6-27-55.4-58.2c-2-16.7-2-33.5,0.4-50.2c3-21.1,14.4-36.8,33-46.7c65.6-35,129.8,2.9,130,76.4c0,9.2-0.1,18.3,0,27.5
	c0.2,9.6-2.5,16.5-13.8,16.5c-10.8,0-14.7-5.9-14.6-16c0.1-13.7,0.5-27.5-0.3-41.2c-1.3-24.1-14.2-38.4-36.9-42.3
	c-32.8-5.6-59.9,3.4-66.3,26.1c-10.7,38.4-4.4,84.8,52.7,81.2c11.6-0.7,20.9,0,29.2,11.7c12.6,17.8,32.9,18.3,51.9,12.9
	c19.3-5.5,30-20.2,32-40.3c0.9-9.1,0.2-18.3,0.2-27.5h0.2c0-5.3,0.1-10.7,0-16c-0.5-51.9-25.1-92.5-68.6-105.1
	c-49.6-14.3-111.3-9.9-144,34.7c-24.2,33.1-23.8,70.4-18.3,107.4C463.6,298.5,511.6,334.1,566.9,330.1z M571.7,232.7
	c-16.1,3.1-22-3.2-22-19.5c0-16.3,6.7-21,21.9-21.1c17.7-0.2,18.5,9.6,19.4,23.4C592.1,231.7,585.8,235.9,571.7,232.7z"/>
<path class="st0" d="M686.3,222.7h0.2c0-5.3,0.1-10.7,0-16c-0.5-51.9-25.1-92.5-68.6-105.1c-49.6-14.3-111.3-9.9-144,34.7
	c-24.2,33.1-23.8,70.4-18.3,107.4c8.1,54.8,56.1,90.4,111.4,86.4c11.2-0.8,20-4.2,20.6-16.5c0.7-13.7-8-18.4-20.5-18.8
	c-7.6-0.2-15.2-0.8-22.7-2c-30.9-5.2-51.6-27-55.4-58.2c-2-16.7-2-33.5,0.4-50.2c3-21.1,14.4-36.8,33-46.7
	c65.6-35,129.8,2.9,130,76.4c0,9.2-0.1,18.3,0,27.5c0.2,9.6-2.5,16.5-13.8,16.5c-10.8,0-14.7-5.9-14.6-16
	c0.1-13.7,0.5-27.5-0.3-41.2c-1.3-24.1-14.2-38.4-36.9-42.3c-32.8-5.6-59.9,3.4-66.3,26.1c-10.7,38.4-4.4,84.8,52.7,81.2
	c11.6-0.7,20.9,0,29.2,11.7c12.6,17.8,32.9,18.3,51.9,12.9c19.3-5.5,30-20.2,32-40.3C687,241.1,686.3,231.8,686.3,222.7z
	 M571.7,232.7c-16.1,3.1-22-3.2-22-19.5c0-16.3,6.7-21,21.9-21.1c17.7-0.2,18.5,9.6,19.4,23.4C592.1,231.7,585.8,235.9,571.7,232.7z
	"/>
<path d="M686.3,222.7h0.2c0-5.3,0.1-10.7,0-16c-0.5-51.9-25.1-92.5-68.6-105.1c-49.6-14.3-111.3-9.9-144,34.7
	c-24.2,33.1-23.8,70.4-18.3,107.4c8.1,54.8,56.1,90.4,111.4,86.4c11.2-0.8,20-4.2,20.6-16.5c0.7-13.7-8-18.4-20.5-18.8
	c-7.6-0.2-15.2-0.8-22.7-2c-30.9-5.2-51.6-27-55.4-58.2c-2-16.7-2-33.5,0.4-50.2c3-21.1,14.4-36.8,33-46.7
	c65.6-35,129.8,2.9,130,76.4c0,9.2-0.1,18.3,0,27.5c0.2,9.6-2.5,16.5-13.8,16.5c-10.8,0-14.7-5.9-14.6-16
	c0.1-13.7,0.5-27.5-0.3-41.2c-1.3-24.1-14.2-38.4-36.9-42.3c-32.8-5.6-59.9,3.4-66.3,26.1c-10.7,38.4-4.4,84.8,52.7,81.2
	c11.6-0.7,20.9,0,29.2,11.7c12.6,17.8,32.9,18.3,51.9,12.9c19.3-5.5,30-20.2,32-40.3C687,241.1,686.3,231.8,686.3,222.7z
	 M571.7,232.7c-16.1,3.1-22-3.2-22-19.5c0-16.3,6.7-21,21.9-21.1c17.7-0.2,18.5,9.6,19.4,23.4C592.1,231.7,585.8,235.9,571.7,232.7z
	"/>
</svg>
