<?xml version="1.0" encoding="utf-8"?>
<!-- Generator: Adobe Illustrator 24.0.0, SVG Export Plug-In . SVG Version: 6.00 Build 0)  -->
<svg version="1.1" id="Layer_1" xmlns="http://www.w3.org/2000/svg" xmlns:xlink="http://www.w3.org/1999/xlink" x="0px" y="0px"
	 viewBox="0 0 1168.3 1173.5" style="enable-background:new 0 0 1168.3 1173.5;" xml:space="preserve">
<style type="text/css">
	.st0{fill:#FEFEFE;}
</style>
<path d="M487,586.8c-66.1,62.9-131.4,125.1-196.9,187.5l0,0c-10.6-11.6-11.8-23.7-11.8-36.4c0.1-101.6,0.2-203.1-0.1-304.7
	c0-12.1,1.9-23,11.6-34.1C355.5,461.5,420.8,523.8,487,586.8z"/>
<path d="M575.3,642.4C485.8,556.8,395.9,471.5,305,385.1c13.1-9.9,26.6-10.9,40.4-10.9c158.8,0,317.7,0,476.5,0
	c13.3,0,26.4,1,40.3,10.7c-91.1,86.7-181,172-270.5,257.6C585.1,648.8,581.7,648.5,575.3,642.4z"/>
<path d="M673.7,608.7C735.8,668.6,798.5,728,862,788.5c-13,9.9-26.6,10.8-40.4,10.8c-158.7,0-317.4,0-476,0
	c-13.4,0-26.3-1.5-41-10.3c64.2-61.1,126.8-120.5,189-180.5c8.5-8.3,12.7-3.8,18.8,2.1c23.4,22.8,47.1,45.3,71.3,68.4
	c24.2-23.2,47.9-45.7,71.4-68.5C661,604.7,665.2,600.5,673.7,608.7z"/>
<path d="M888.7,490.7v98.4c0,48.4,0,96.9,0,145.3c0,6.2,0.6,12.7-0.9,18.6c-1.7,6.6-4,15.8-8.9,18.2c-6.9,3.5-11.3-6-16.1-10.5
	C806.2,707.2,750.1,653.1,693,599.9c-11.2-10.5-11-15.9,0.1-26.3c57-53.2,113.1-107.3,169.8-160.9c4.7-4.5,8.9-13.9,16.2-10.5
	c6.8,3.2,9.1,13,9.4,20.5C889.2,445.4,888.7,468,888.7,490.7z"/>
<path d="M1168.3,583.4C1165.5,264.7,899.9-1.7,579.9,0C251.2,1.7-9,283.4,0.3,580.3c-9.9,329.4,270.9,596.5,588.8,593.2
	C921.9,1170.1,1171,884.9,1168.3,583.4z M591.1,1133c-305.6,3.9-548-238.2-552-551.2C35.4,289.7,279.7,44.7,578.8,40.6
	c298.7-4.1,544.4,238.6,549,542.4C1132.2,879.5,888.6,1129.2,591.1,1133z"/>
<path class="st0" d="M487,586.8c-66.1,62.9-131.4,125.1-196.9,187.5l0,0c-10.6-11.6-11.8-23.7-11.8-36.4
	c0.1-101.6,0.2-203.1-0.1-304.7c0-12.1,1.9-23,11.6-34.1C355.5,461.5,420.8,523.8,487,586.8z"/>
<path class="st0" d="M575.3,642.4C485.8,556.8,395.9,471.5,305,385.1c13.1-9.9,26.6-10.9,40.4-10.9c158.8,0,317.7,0,476.5,0
	c13.3,0,26.4,1,40.3,10.7c-91.1,86.7-181,172-270.5,257.6C585.1,648.8,581.7,648.5,575.3,642.4z"/>
<path class="st0" d="M673.7,608.7C735.8,668.6,798.5,728,862,788.5c-13,9.9-26.6,10.8-40.4,10.8c-158.7,0-317.4,0-476,0
	c-13.4,0-26.3-1.5-41-10.3c64.2-61.1,126.8-120.5,189-180.5c8.5-8.3,12.7-3.8,18.8,2.1c23.4,22.8,47.1,45.3,71.3,68.4
	c24.2-23.2,47.9-45.7,71.4-68.5C661,604.7,665.2,600.5,673.7,608.7z"/>
<path class="st0" d="M888.7,734.4c0,6.2,0.6,12.7-0.9,18.6c-1.7,6.6-4,15.8-8.9,18.2c-6.9,3.5-11.3-6-16.1-10.5
	C806.2,707.2,750.1,653.1,693,599.9c-11.2-10.5-11-15.9,0.1-26.3c57-53.2,113.1-107.3,169.8-160.9c4.7-4.5,8.9-13.9,16.2-10.5
	c6.8,3.2,9.1,13,9.4,20.5c0.8,22.6,0.3,45.3,0.3,68v98.4C888.7,637.5,888.7,686,888.7,734.4z"/>
<path d="M862.2,384.9c-91.1,86.7-181,172-270.5,257.6c-6.6,6.3-10,6-16.3-0.1C485.8,556.8,395.9,471.5,305,385.1
	c13.1-9.9,26.6-10.9,40.4-10.9c158.8,0,317.7,0,476.5,0C835.2,374.2,848.3,375.2,862.2,384.9z"/>
<path d="M862,788.5c-13,9.9-26.6,10.8-40.4,10.8c-158.7,0-317.4,0-476,0c-13.4,0-26.3-1.5-41-10.3c64.2-61.1,126.8-120.5,189-180.5
	c8.5-8.3,12.7-3.8,18.8,2.1c23.4,22.8,47.1,45.3,71.3,68.4c24.2-23.2,47.9-45.7,71.4-68.5c6.1-5.9,10.3-10.1,18.8-2
	C735.8,668.6,798.5,728,862,788.5z"/>
<path d="M487,586.8c-66.1,62.9-131.4,125.1-196.9,187.5l0,0c-10.6-11.6-11.8-23.7-11.8-36.4c0.1-101.6,0.2-203.1-0.1-304.7
	c0-12.1,1.9-23,11.6-34.1C355.5,461.5,420.8,523.8,487,586.8z"/>
<path d="M888.7,734.4c0,6.2,0.6,12.7-0.9,18.6c-1.7,6.6-4,15.8-8.9,18.2c-6.9,3.5-11.3-6-16.1-10.5
	C806.2,707.2,750.1,653.1,693,599.9c-11.2-10.5-11-15.9,0.1-26.3c57-53.2,113.1-107.3,169.8-160.9c4.7-4.5,8.9-13.9,16.2-10.5
	c6.8,3.2,9.1,13,9.4,20.5c0.8,22.6,0.3,45.3,0.3,68v98.4C888.7,637.5,888.7,686,888.7,734.4z"/>
</svg>
