<?xml version="1.0" encoding="utf-8"?>
<!-- Generator: Adobe Illustrator 24.0.0, SVG Export Plug-In . SVG Version: 6.00 Build 0)  -->
<svg version="1.1" id="Layer_1" xmlns="http://www.w3.org/2000/svg" xmlns:xlink="http://www.w3.org/1999/xlink" x="0px" y="0px"
	 viewBox="0 0 1137.4 1165.2" style="enable-background:new 0 0 1137.4 1165.2;" xml:space="preserve">
<path d="M1134.8,352.3c-1.3-25.7-9-49.8-21.4-72c-48.7-86.5-125.7-125-222.1-125.6c-180.1-1.2-360.3-0.4-540.5-0.4h-27.2
	c2.7-4.8,4-7.3,5.4-9.7c27.3-46.6,20.1-93.4-19.1-125.4C275.2-9.1,219.4-6,184.1,28C131.6,78.5,79.6,129.5,28.5,181.4
	c-37.3,37.9-38.1,92.8-1.7,130.1C79.7,365.8,133.3,419.6,188.2,472c43.8,41.9,115.8,29.2,145.5-23.7c20.1-35.9,14.9-70.3-9.4-105.7
	c194.3,0,384.4,0,574.5,0c3.1,0,6.1,0.2,9.2,0.6c27.9,3.7,40.4,17.6,40.4,45.6c0.1,39.1-0.2,78.2,0.2,117.3
	c0.1,11.4,0.7,23.2,3.7,34c12,43,52.9,70.2,97.9,66.3c45.9-3.9,81.6-36.2,84.7-81.8C1138.7,467.3,1137.7,409.8,1134.8,352.3z
	 M1098.5,510.7c-0.6,37.2-24.1,59.3-59.2,58.7c-30.5-0.5-52.6-25.2-53-60.2c-0.4-39.9-0.1-79.8-0.1-119.6
	c-0.1-46.9-24.2-75.8-70.7-83.6c-9.8-1.7-19.8-1.9-29.8-1.9c-97.4-0.1-194.8-0.1-292.2-0.1l0,0c-100.5,0-200.9,0-301.4,0.1
	c-12,0-26-2.8-32.1,11.6c-6.2,14.4,5.4,22.4,13.9,31c4.3,4.4,8.8,8.5,13.1,12.9c25.7,26.5,27.8,59.1,5.2,81.6
	c-24.1,24-56.7,23.5-83.8-2.6c-31.5-30.3-62.3-61.3-93.5-92c-19.1-18.8-38.4-37.5-57.2-56.6c-24.8-25.1-27.5-54.8-3.6-79.5
	c52.3-54,105.7-106.8,159.9-158.8c21.6-20.8,57.1-18.3,77.1,1.9c20.9,21,22,52.9,1.8,76.9c-8.3,9.9-18.1,18.7-27.4,27.8
	c-6.8,6.6-9.1,14.2-5.1,22.8c3.6,7.6,10,11.2,18.6,10.9c6.1-0.2,12.3,0,18.4,0c195.6,0,391.1,0,586.7,0
	c65.5,0,123.8,18.4,169.2,68.3c26.6,29.3,43.6,63,44.4,103.1C1098.8,412.5,1099.3,461.6,1098.5,510.7z"/>
<path d="M1114.4,857.7c-55.1-57.5-112.3-113.2-170.3-167.9c-30.1-28.4-82.2-27.5-114.7-2.4c-35.9,27.8-47.2,75.2-28,115.2
	c3.1,6.4,9.9,11.5,8.8,20.6c-4.2,0.3-8,0.8-11.7,0.8c-182.5,0-365,0.1-547.5,0c-7.6,0-15.3-0.7-22.9-1.8
	c-27.6-4.1-38.2-16.5-38.3-44.5c-0.1-41.4,0.8-82.8-0.3-124.2c-1.4-55.6-43.5-96-97.1-94.9c-52.8,1.2-90.9,42.1-91,97.7
	c0,43.7,0.8,87.4-0.2,131.1C-0.1,849.7,24,900.7,68.4,942.6c50.9,48.1,112.4,68.9,182.1,68.8c186.3-0.3,372.6-0.1,560.2-0.1
	c-0.4,4,0.1,5.9-0.7,6.8c-30.2,35.8-21.2,98.7,17,127.5c39.6,29.8,93.3,25.6,131.2-11.8c50.7-50.1,101.5-100.2,151.6-150.9
	C1143.6,948.5,1147.3,892.1,1114.4,857.7z M1081.1,958.6c-51.2,50.7-102.6,101.2-154,151.8c-24.3,23.9-58.1,24.1-82,0.7
	c-20.7-20.3-20.7-52.8,0.4-76.7c7.1-8,15.2-15.1,22.7-22.8c7-7.2,14.2-14.5,9.2-26c-4.9-11.2-14.6-11.8-25-11.8
	c-103.6,0.1-207.1,0.1-310.6,0.1l0,0c-98.9,0-197.9,1.2-296.8-0.4c-76.3-1.3-140.4-28.7-182.2-96.6c-16-26-24.3-54.4-24.3-85
	c-0.1-44.5-0.3-89,0-133.5c0.3-37,23.3-61.9,56.5-61.9c32.3,0,55.5,23.3,56.5,59.6c1.1,39.1,0.3,78.2,0.3,117.3
	c0,53.6,31.9,88.6,85.8,88.9c204.8,0.8,409.6,0.3,614.4,0.3c11.3,0,21.4-2.2,26-14.4c4.2-11-3.4-17.1-9.7-23.7
	c-6.9-7.2-14.5-13.7-21.2-21.1c-23-25.5-23.1-58.5-0.6-80.4c22.5-21.8,55.7-22.1,80.7,1.7c43.9,41.8,86.6,84.7,129.8,127.3
	c9.3,9.1,18.5,18.4,27.1,28.2C1104.8,904.3,1103.7,936.2,1081.1,958.6z"/>
</svg>
