<?xml version="1.0" encoding="utf-8"?>
<!-- Generator: Adobe Illustrator 24.0.0, SVG Export Plug-In . SVG Version: 6.00 Build 0)  -->
<svg version="1.1" id="Layer_1" xmlns="http://www.w3.org/2000/svg" xmlns:xlink="http://www.w3.org/1999/xlink" x="0px" y="0px"
	 viewBox="0 0 1448 998.2" style="enable-background:new 0 0 1448 998.2;" xml:space="preserve">
<style type="text/css">
	.st0{fill:#FEFEFE;}
</style>
<path class="st0" d="M723.5,224.2c-149.3,0.5-275.1,123.6-275.5,269.4C447.5,652.7,566.7,776.1,721,776.1l0,0
	c144.6,6.1,278-115.3,278.8-274C1000.6,348.6,875.5,223.7,723.5,224.2z M728.8,680.9c-103,1.8-182.2-75.6-184-180.1h0
	c-1.7-98.3,78.6-179.7,178.1-180.5c98.5-0.8,177.7,78,180,179C905.2,595.9,825.4,679.1,728.8,680.9z"/>
<path class="st0" d="M1419.7,451.7c-51.2-53-104-104.4-159.6-152.8C1143,196.8,1022.5,100,879.4,35.7C778.8-9.5,679.1-12.9,576.6,32
	C436.4,93.4,317.5,185.6,202.7,284.2C140.9,337.3,82,393.7,25.7,452.6c-34.1,35.6-34.2,58.3-1,92.1c37.4,38,75.2,75.7,114.2,112
	c119.6,111,244.3,215.2,390.7,289.7c60.6,30.8,123.4,56.1,190.1,51.1c87.3,3.5,160.2-29.5,230.7-69.1
	c178.2-100.3,327.7-236.5,470.1-381.3C1457.5,509.6,1457.1,490.4,1419.7,451.7z M1321.2,511.9c-127.6,123.7-258.9,243-414.4,331.4
	c-57,32.4-116.1,62.6-179,61.4h0c-65.2,1-117.2-23.1-167.4-50.2c-139.3-75.1-258.2-177.5-373.6-284.3
	c-19.9-18.4-38.7-38.2-58.7-56.5c-10-9.1-11.3-15.3-0.9-25.4c138.3-133.7,281.2-261,452.8-351.7c100.1-52.9,197.3-49.6,295.8,4.2
	c138.8,75.9,259.8,175.2,375.3,282.2c23.5,21.7,46.2,44.3,69.7,66C1329.6,497.1,1331.1,502.3,1321.2,511.9z"/>
<path d="M723.5,224.2c-149.3,0.5-275.1,123.6-275.5,269.4C447.5,652.7,566.7,776.1,721,776.1l0,0c144.6,6.1,278-115.3,278.8-274
	C1000.6,348.6,875.5,223.7,723.5,224.2z M728.8,680.9c-103,1.8-182.2-75.6-184-180.1h0c-1.7-98.3,78.6-179.7,178.1-180.5
	c98.5-0.8,177.7,78,180,179C905.2,595.9,825.4,679.1,728.8,680.9z"/>
<path d="M1419.7,451.7c-51.2-53-104-104.4-159.6-152.8C1143,196.8,1022.5,100,879.4,35.7C778.8-9.5,679.1-12.9,576.6,32
	C436.4,93.4,317.5,185.6,202.7,284.2C140.9,337.3,82,393.7,25.7,452.6c-34.1,35.6-34.2,58.3-1,92.1c37.4,38,75.2,75.7,114.2,112
	c119.6,111,244.3,215.2,390.7,289.7c60.6,30.8,123.4,56.1,190.1,51.1c87.3,3.5,160.2-29.5,230.7-69.1
	c178.2-100.3,327.7-236.5,470.1-381.3C1457.5,509.6,1457.1,490.4,1419.7,451.7z M1321.2,511.9c-127.6,123.7-258.9,243-414.4,331.4
	c-57,32.4-116.1,62.6-179,61.4h0c-65.2,1-117.2-23.1-167.4-50.2c-139.3-75.1-258.2-177.5-373.6-284.3
	c-19.9-18.4-38.7-38.2-58.7-56.5c-10-9.1-11.3-15.3-0.9-25.4c138.3-133.7,281.2-261,452.8-351.7c100.1-52.9,197.3-49.6,295.8,4.2
	c138.8,75.9,259.8,175.2,375.3,282.2c23.5,21.7,46.2,44.3,69.7,66C1329.6,497.1,1331.1,502.3,1321.2,511.9z"/>
<path class="st0" d="M723.5,224.2c-149.3,0.5-275.1,123.6-275.5,269.4C447.5,652.7,566.7,776.1,721,776.1l0,0
	c144.6,6.1,278-115.3,278.8-274C1000.6,348.6,875.5,223.7,723.5,224.2z M728.8,680.9c-103,1.8-182.2-75.6-184-180.1h0
	c-1.7-98.3,78.6-179.7,178.1-180.5c98.5-0.8,177.7,78,180,179C905.2,595.9,825.4,679.1,728.8,680.9z"/>
<path d="M723.5,224.2c-149.3,0.5-275.1,123.6-275.5,269.4C447.5,652.7,566.7,776.1,721,776.1l0,0c144.6,6.1,278-115.3,278.8-274
	C1000.6,348.6,875.5,223.7,723.5,224.2z M728.8,680.9c-103,1.8-182.2-75.6-184-180.1h0c-1.7-98.3,78.6-179.7,178.1-180.5
	c98.5-0.8,177.7,78,180,179C905.2,595.9,825.4,679.1,728.8,680.9z"/>
</svg>
