<?xml version="1.0" encoding="utf-8"?>
<!-- Generator: Adobe Illustrator 24.0.0, SVG Export Plug-In . SVG Version: 6.00 Build 0)  -->
<svg version="1.1" id="Layer_1" xmlns="http://www.w3.org/2000/svg" xmlns:xlink="http://www.w3.org/1999/xlink" x="0px" y="0px"
	 viewBox="0 0 1263.3 784.2" style="enable-background:new 0 0 1263.3 784.2;" xml:space="preserve">
<style type="text/css">
	.st0{fill:#FEFEFE;}
</style>
<path d="M751.9,392.2c0.2,66.6-52.9,120.1-119.5,120.5c-66,0.4-119.9-52.5-121.3-119.1c-1.3-64.6,54-120.3,119.9-120.7
	C697.5,272.5,751.8,326.2,751.9,392.2z"/>
<path d="M1250.1,352.1C1104.1,124.2,895.5,8.4,613.9,0C361,14.5,154,127,12.5,353.8c-16.1,25.8-16.9,50-1,76.3
	C110,593,251,702.7,432.7,755.8c313.1,91.4,648.2-42.9,818-322.9C1267.6,404.9,1267.6,379.5,1250.1,352.1z M631.8,635.5
	c-135.2,0.2-242.4-108.4-243-246.2c-0.5-128.9,111-238.9,242.5-239C765.3,150,873.9,259,874.1,394
	C874.4,526.2,764.9,635.3,631.8,635.5z"/>
<path class="st0" d="M751.9,392.2c0.2,66.6-52.9,120.1-119.5,120.5c-66,0.4-119.9-52.5-121.3-119.1c-1.3-64.6,54-120.3,119.9-120.7
	C697.5,272.5,751.8,326.2,751.9,392.2z"/>
<path d="M751.9,392.2c0.2,66.6-52.9,120.1-119.5,120.5c-66,0.4-119.9-52.5-121.3-119.1c-1.3-64.6,54-120.3,119.9-120.7
	C697.5,272.5,751.8,326.2,751.9,392.2z"/>
</svg>
