<?xml version="1.0" encoding="utf-8"?>
<!-- Generator: Adobe Illustrator 24.0.0, SVG Export Plug-In . SVG Version: 6.00 Build 0)  -->
<svg version="1.1" id="Layer_1" xmlns="http://www.w3.org/2000/svg" xmlns:xlink="http://www.w3.org/1999/xlink" x="0px" y="0px"
	 viewBox="0 0 1653.9 998.1" style="enable-background:new 0 0 1653.9 998.1;" xml:space="preserve">
<style type="text/css">
	.st0{fill:#030303;}
</style>
<path d="M1568.5,422c-38.2-21.9-66.5-52-89.8-89.9c-53-86.4-109.9-170.4-164-256.2C1281.7,23.6,1236-0.7,1174,0
	c-122.9,1.3-245.7,0.4-368.6,0.4v0h-342c-18.8,0-37.6-0.3-56.4,0.2c-18.3,0.5-29.3,10-29.1,28.8c0.2,17.5,11.5,25.5,27.7,26.9
	c9.9,0.9,19.9,0.6,29.9,0.6c181.5,0,363.1,0.5,544.6-0.5c22.7-0.1,29.8,4.9,29.4,28.5c-1.3,98.5-0.6,197-0.6,295.5
	c0,45.4,5.4,50.7,52.1,50.7c115.1,0,230.3,2.7,345.3-1.1c55.2-1.8,99.9,12.4,143.2,45.4c30,22.8,47.7,48.7,48.2,85.5
	c0.8,64.2,0.3,128.4,0.3,192.6c0,6.4,2.1,15.9-4.8,17.9c-22.6,6.5-46.1,2.8-69.1,2.3c-15.9-0.3-12.6-16.3-15.9-25.5
	c-27.6-77-99.4-129.8-178.6-129.9c-79.7-0.1-155.5,54.3-179.6,132.5c-5.8,18.8-12.7,24.1-31.4,23.9c-91.9-0.9-183.7-1.1-275.6,0.1
	c-19.3,0.2-25.6-6.7-31.4-24.1c-26.5-79.9-99.6-132.8-179.7-132.4c-79.6,0.4-154.4,54.4-178.9,133.6c-6.2,20.2-15,22.9-32.2,22.6
	c-37.6-0.8-75.3-0.3-112.9-0.2c-20.2,0-36.2,7.3-35.1,30c1,20.3,15.9,26.8,35,26.6c36.5-0.5,73.1,0.9,109.6-0.5
	c19.3-0.8,28.3,4,33.7,24.5c24.9,94.9,90.8,142.4,192.7,142c80.4-0.3,149.7-57.4,171.4-144.1c4.5-17.8,10.7-22.5,28.1-22.3
	c86.3,0.9,172.7,1.7,259-0.3c28.4-0.7,41.2,4.9,48.5,35.5c16.3,67.8,84.1,124.5,147.8,131.1c87.9,9.1,170.9-23.7,194-99.5
	c21.1-69.2,60.2-72.6,114.7-66.4c2.2,0.3,4.4-0.1,6.6,0c28.3,1.9,39.9-11.3,39.5-39.5c-0.9-69.7-2.4-139.5,0.3-209.2
	C1656.5,510.8,1630.4,457.4,1568.5,422z M1437.2,373.4c-122.5,0-239.4-0.2-356.2,0.2c-13.7,0-16.5-6.2-16.5-18.2
	c0.3-92.9,0.3-185.7,0-278.6c0-12.3,3.3-19.2,16.7-17.8c3.3,0.3,6.6,0,9.9,0C1246.4,59.8,1226.7,45,1310,176
	C1351.1,240.6,1392.9,304.8,1437.2,373.4L1437.2,373.4z M633.7,943.5c-70.9,0.4-132.3-58.9-133.6-129C498.7,736,556.9,675,633,675.2
	c74,0.3,129.9,57.3,130.9,133.6C764.8,882.6,706.3,943.1,633.7,943.5z M1460.9,811c0,73.3-59.5,132.9-132.4,132.6
	c-70.1-0.3-131.5-61.2-132-131c-0.5-76.5,57.2-136.4,132-137C1403.6,674.8,1460.9,733.4,1460.9,811L1460.9,811z"/>
<path d="M200.8,466.5c-55.3,0-110.6-0.6-165.9,0.3C15.5,467.1,0.5,462,0,441.4c-0.5-22.1,15.1-29.4,35.7-29.3
	c110.6,0.3,221.2,0.3,331.9,0c21.1,0,35.9,8.6,35,30.1c-0.9,20.4-16.6,24.9-35.8,24.6C311.5,465.9,256.1,466.5,200.8,466.5
	L200.8,466.5z"/>
<path class="st0" d="M362.1,206.3c45.4,0,90.8,0.4,136.1-0.2c21-0.3,36,8,35.8,29.4c-0.3,19.7-15.1,27.5-34.4,27.4
	c-93-0.2-185.9-0.1-278.9,0c-19.2,0-34.1-7.9-34.2-27.8c-0.1-21.7,15.2-29.3,36.1-29C269.2,206.7,315.7,206.3,362.1,206.3
	L362.1,206.3z"/>
<path d="M237.2,638.1c-33.1,0-66.2-0.5-99.3,0.2c-18.9,0.4-30.2-7.9-31.1-26c-1-18.5,10.2-28.2,28.8-28.2
	c68.4-0.1,136.7,0,205.1-0.1c18.5,0,30.1,8.8,29.4,27.7c-0.7,18.1-11.4,27-30.4,26.6C305.5,637.6,271.3,638.1,237.2,638.1
	L237.2,638.1z"/>
</svg>
