<?xml version="1.0" encoding="utf-8"?>
<!-- Generator: Adobe Illustrator 24.0.0, SVG Export Plug-In . SVG Version: 6.00 Build 0)  -->
<svg version="1.1" id="Layer_1" xmlns="http://www.w3.org/2000/svg" xmlns:xlink="http://www.w3.org/1999/xlink" x="0px" y="0px"
	 viewBox="0 0 1156.3 1154.7" style="enable-background:new 0 0 1156.3 1154.7;" xml:space="preserve">
<style type="text/css">
	.st0{fill:#E9EAEE;}
	.st1{fill:#010101;}
</style>
<path d="M580.3,0C247.6-1,7.1,277.1,0.2,558.7c-8.3,337.1,267.2,602.4,576.6,595.9c321.3,6.6,578.2-265.9,579.5-572.3
	C1157.7,263.4,896.2,0.9,580.3,0z M355.5,308.8c11.6-23.9,33.1-35.5,59.3-38c57.9-5.4,97.2,26.1,131.4,66.9
	c9.3,11.1,17.3,23.2,26.5,35.5c22.2-34.6,47.1-63.9,80.7-85.7c27.7-18,57.9-20.8,88.5-15.7c24.3,4.1,43.9,17.6,51.6,43.7
	c8,27-2,48.7-20.9,66.4c-34.4,32.3-77.9,45.1-123.1,51.8c-76.8,11.4-153.1,10.7-227.5-15.3c-22.9-8-43.3-20-57.6-40.1
	C349.1,357,343.8,333,355.5,308.8z M303.2,588.3c0.7-28.4,0.9-56.9-0.1-85.3c-0.6-19.5,8.4-25.9,26.5-25.3c20,0.7,39.9,0.2,59.9,0.2
	c19.2,0,38.4,0.6,57.6-0.2c19.2-0.8,28.8,6.9,28.5,26.7c-0.4,27.7-0.2,55.3-0.1,83c0.1,17.1-8.3,25.8-25.2,25.9
	c-40.7,0.2-81.4,0.1-122.1,0.1C311.7,613.3,302.8,606.4,303.2,588.3z M446.7,886c-23.8-0.8-47.6-0.7-71.4,0
	c-19.2,0.5-28.7-7.8-28.6-27.1c0-59.9,0-119.8-0.1-179.7c0-19,8.9-28.1,28.4-27.6c23,0.6,46.1,0,69.1,0.2
	c26.4,0.2,31.3,4.8,31.5,30.6c0.3,29.2,0.1,58.4,0.1,87.5l0,0c0,29.2-0.5,58.4,0.2,87.5C476.3,878.2,467.1,886.7,446.7,886z
	 M782,886c-37.7-0.6-75.4-0.2-113.1-0.2l0,0c-36.9,0-73.9-0.5-110.8,0.2c-20.5,0.4-29.1-8-28.9-28.8c0.6-59.2,0.5-118.5,0-177.7
	c-0.1-19.5,8.4-28,27.7-27.9c75.4,0.3,150.8,0.3,226.2,0c18.6-0.1,26.9,9.1,26.9,26.7c0.1,60,0,120,0.1,180
	C810.2,877.4,801.6,886.3,782,886z M849.5,501.4c-1.5,30.7-1,61.5-0.1,92.3c0.4,15.2-5.2,20-20.1,19.9
	c-90.8-0.5-181.5-0.3-272.3-0.2c-19,0-28.2-8.5-27.8-28.1c0.6-26.1,0.8-52.3,0-78.4c-0.6-20.5,7.5-29.5,28.5-29.1
	c44.6,0.7,89.2,0.2,133.8,0.2c44.6,0,89.2,0.4,133.8-0.2C842.6,477.4,850.5,482.2,849.5,501.4z M750.1,326.2
	c-8.4-17.6-29.9-16-47.6-11.2c-40.3,11.1-65.3,40.1-89,77.4c42-1.6,78-8.6,110.8-26.2C739.2,358.2,759.8,346.7,750.1,326.2z
	 M411.5,359c35.6,23.3,75.7,29.7,121.1,33.4c-27.4-41.3-55.1-74.9-104.6-79.7c-13.5-1.3-27.9,1.3-33.3,14.9
	C389.1,342,400.4,351.7,411.5,359z"/>
<path class="st0" d="M532.6,392.4c-45.4-3.7-85.5-10.2-121.1-33.4c-11.1-7.3-22.5-16.9-16.8-31.4c5.3-13.6,19.7-16.2,33.3-14.9
	C477.5,317.5,505.2,351,532.6,392.4z"/>
<path class="st0" d="M724.3,366.2c-32.8,17.6-68.8,24.6-110.8,26.2c23.7-37.3,48.7-66.3,89-77.4c17.6-4.8,39.2-6.4,47.6,11.2
	C759.8,346.7,739.2,358.2,724.3,366.2z"/>
<path class="st1" d="M724.3,366.2c-32.8,17.6-68.8,24.6-110.8,26.2c23.7-37.3,48.7-66.3,89-77.4c17.6-4.8,39.2-6.4,47.6,11.2
	C759.8,346.7,739.2,358.2,724.3,366.2z"/>
<path class="st1" d="M532.6,392.4c-45.4-3.7-85.5-10.2-121.1-33.4c-11.1-7.3-22.5-16.9-16.8-31.4c5.3-13.6,19.7-16.2,33.3-14.9
	C477.5,317.5,505.2,351,532.6,392.4z"/>
</svg>
