<?xml version="1.0" encoding="utf-8"?>
<!-- Generator: Adobe Illustrator 24.0.0, SVG Export Plug-In . SVG Version: 6.00 Build 0)  -->
<svg version="1.1" id="Layer_1" xmlns="http://www.w3.org/2000/svg" xmlns:xlink="http://www.w3.org/1999/xlink" x="0px" y="0px"
	 viewBox="0 0 1029 1153.9" style="enable-background:new 0 0 1029 1153.9;" xml:space="preserve">
<path d="M681.4,1153.8c-68.7,0-137.4,0.1-206.1,0c-38-0.1-52.4-13.9-52.5-51.1c-0.1-112.7-0.2-225.4,0-338
	c0.1-35.5,15-50.2,51.1-50.3c139.7-0.2,279.4-0.2,419.1,0c37.8,0,52.2,14.3,52.3,51.3c0.1,112.7,0.1,225.4,0,338
	c0,35.8-14.5,50-50.9,50.1C823.4,1153.8,752.4,1153.7,681.4,1153.8L681.4,1153.8z"/>
<path d="M727.8,644c-84.2,0-168.3,0.1-252.4,0c-38.9,0-52.5-13.9-52.6-53.3c-0.1-50.2-0.2-100.4,0-150.5
	c0.2-36.6,14.2-50.9,50.1-50.9c169.1-0.1,338.1-0.1,507.2,0c35.2,0,48.7,13.9,48.8,49.1c0.1,54,0.1,108.1,0,162.1
	c-0.1,29.5-14,43.5-44,43.6C899.2,644.1,813.5,644,727.8,644L727.8,644z"/>
<path d="M840.3,11c-18-7-37.1-10.5-56.4-11C711.8-1.5,653,28.8,600.9,76c-38,34.5-67.6,75.5-97.1,120.2
	c-25-40.6-51.1-75.9-82.6-106.9c-45.5-44.8-97-78.3-162-86.6c-33.6-4.3-66.2-0.8-97.3,12.8c-78.2,34.2-97.5,128.4-40.3,195.5
	c36.5,42.8,84.8,66.9,137.6,80.4c158.5,40.4,317.6,41.1,475.5-2.5c57.4-15.9,111.3-41.5,151.8-88.1C945.7,132.6,924.2,43.8,840.3,11
	z M224.9,182.1c-15-8.3-28.4-18.3-39.8-31.2c-10.7-12.1-18.9-25.7-13-41.9c6.2-16.9,21.9-23.2,38.4-25.7c40.7-6.3,77.5,4,111.6,27.1
	c45.7,30.8,77.5,73.6,111.9,122.7C357.5,224.1,287.9,216.9,224.9,182.1z M822.6,153.6c-23.3,25.2-53.7,38.6-84.8,49.5
	c-50.3,17.6-103.1,23.6-160.1,28.7h0c35.6-54.9,72.9-101.1,126.8-131.4c30.7-17.2,63.5-24.1,97.8-16.3
	C842.9,93.3,850.9,123,822.6,153.6z"/>
<path d="M324.5,933.7c0,57.1,0.1,114.3,0,171.4c-0.1,33.3-14.8,48.3-47.7,48.5c-47.9,0.3-95.8,0.3-143.6,0
	c-33.4-0.2-48.7-14.9-48.8-47.7c-0.3-114.3-0.2-228.6,0-342.8c0.1-33.1,14.9-48.4,47.9-48.7c48.6-0.5,97.3-0.6,145.9,0
	c31.5,0.4,46.1,16,46.2,47.9C324.6,819.4,324.5,876.6,324.5,933.7L324.5,933.7z"/>
<path d="M160.1,644c-38.6,0-77.1,0.2-115.7,0c-28.8-0.2-44-15.2-44.2-44.2c-0.3-55.5-0.3-111,0-166.5c0.2-28.8,15.3-43.9,44.6-44
	c77.9-0.4,155.7-0.3,233.6,0c30.6,0.1,45.7,15.1,45.9,45.3c0.4,54.7,0.4,109.5,0,164.2c-0.2,29.7-15.9,44.8-46.3,45.1
	C238.8,644.3,199.4,644,160.1,644L160.1,644z"/>
</svg>
