<?xml version="1.0" encoding="utf-8"?>
<!-- Generator: Adobe Illustrator 24.0.0, SVG Export Plug-In . SVG Version: 6.00 Build 0)  -->
<svg version="1.1" id="Layer_1" xmlns="http://www.w3.org/2000/svg" xmlns:xlink="http://www.w3.org/1999/xlink" x="0px" y="0px"
	 viewBox="0 0 1160.1 1161.3" style="enable-background:new 0 0 1160.1 1161.3;" xml:space="preserve">
<style type="text/css">
	.st0{fill:#FEFEFE;}
	.st1{fill:#010101;}
</style>
<path d="M557.8,419.4c-41.7,0-79.4,2.4-116.8-0.6c-54.4-4.3-81.3-53.1-53.2-92.1c21.8-30.3,63.2-36,90.8-11.3
	C510.5,343.8,533.4,379.5,557.8,419.4z"/>
<path d="M310.1,566.1c1-23.9,0.6-47.8,0.1-71.7c-0.3-13.1,3.9-20.4,18.2-20.3c69.4,0.2,138.9,0.1,208.3,0c8.4,0,12.6,2.1,12.4,11.7
	c-0.5,30.1-0.7,60.2,0.1,90.3c0.3,11.5-5.3,12.1-14,12c-33.9-0.3-67.9-0.1-101.8-0.1c-33.2,0-66.4-0.6-99.5,0.3
	C317.4,588.6,309.3,583.9,310.1,566.1z"/>
<path d="M549.3,845.6c0.4,13.3-3.9,16.7-16.8,16.5c-57.9-0.7-115.8-0.1-173.7-0.4c-24.7-0.1-36.1-10.5-36.3-34.6
	c-0.5-62.5,0.2-125.1-0.5-187.6c-0.2-13.3,5.3-14.8,16.3-14.7c64.8,0.4,129.7,0.6,194.5-0.1c13.6-0.1,16.6,4.5,16.3,17.1
	c-0.8,34-0.3,67.9-0.3,101.9h0.1v0C548.9,777.7,548.3,811.7,549.3,845.6z"/>
<path d="M596.2,420c26.4-42.1,49.6-80.1,84.7-108.7c25.5-20.8,66.5-12.4,86.7,16.8c18.9,27.3,10.9,61-18.7,79.5
	c-12.1,7.6-25.3,11.6-39.3,11.9c-29.3,0.7-58.5,0.4-87.8,0.5C615,420,608.2,420,596.2,420z"/>
<path d="M836.7,640.1c-0.6,61.8,0,123.7-0.4,185.5c-0.2,25.6-11.5,36.1-37.3,36.2c-58.7,0.2-117.5-0.5-176.2,0.4
	c-15.1,0.3-17.8-4.8-17.4-18.4c0.9-34,0.3-68,0.3-102l0,0c0-33.2,0.5-66.5-0.3-99.7c-0.3-12.3,2.2-17.5,16.1-17.4
	c66.5,0.7,132.9,0.6,199.4,0.1C832.6,624.7,836.8,627.5,836.7,640.1z"/>
<path d="M844.6,495.3c-0.8,23.9-0.7,47.8,0,71.7c0.5,16.3-6.7,21.5-22.3,21.1c-33.1-0.8-66.3-0.2-99.5-0.2l0,0
	c-33.9,0-67.9-0.5-101.8,0.3c-11.9,0.3-16.1-2.8-15.7-15.3c1-27.7,0.9-55.5,0-83.3c-0.4-12.4,3.9-15.7,15.8-15.7
	c67.1,0.4,134.2,0.5,201.3,0C837.8,473.8,845.1,479,844.6,495.3z"/>
<path d="M575.9,0C250.5,1.6-8.6,279.7,0.3,574.7c-10.1,318,265.5,599.9,604.4,586.2c304.6-12.4,557.4-276.5,555.4-583.1
	C1158,262.1,893.9-1.6,575.9,0z M578.4,1103.7c-290.9-0.2-532-238.5-522.8-544.9C63.9,285.6,294.2,55.3,581,56.5
	c287.4-0.1,522.9,236.8,521.9,524.9C1101.9,870.2,868.2,1103.9,578.4,1103.7z"/>
<path class="st0" d="M557.8,419.4c-41.7,0-79.4,2.4-116.8-0.6c-54.4-4.3-81.3-53.1-53.2-92.1c21.8-30.3,63.2-36,90.8-11.3
	C510.5,343.8,533.4,379.5,557.8,419.4z"/>
<path class="st0" d="M310.1,566.1c1-23.9,0.6-47.8,0.1-71.7c-0.3-13.1,3.9-20.4,18.2-20.3c69.4,0.2,138.9,0.1,208.3,0
	c8.4,0,12.6,2.1,12.4,11.7c-0.5,30.1-0.7,60.2,0.1,90.3c0.3,11.5-5.3,12.1-14,12c-33.9-0.3-67.9-0.1-101.8-0.1
	c-33.2,0-66.4-0.6-99.5,0.3C317.4,588.6,309.3,583.9,310.1,566.1z"/>
<path class="st0" d="M549.3,845.6c0.4,13.3-3.9,16.7-16.8,16.5c-57.9-0.7-115.8-0.1-173.7-0.4c-24.7-0.1-36.1-10.5-36.3-34.6
	c-0.5-62.5,0.2-125.1-0.5-187.6c-0.2-13.3,5.3-14.8,16.3-14.7c64.8,0.4,129.7,0.6,194.5-0.1c13.6-0.1,16.6,4.5,16.3,17.1
	c-0.8,34-0.3,67.9-0.3,101.9h0.1v0C548.9,777.7,548.3,811.7,549.3,845.6z"/>
<path class="st0" d="M596.2,420c26.4-42.1,49.6-80.1,84.7-108.7c25.5-20.8,66.5-12.4,86.7,16.8c18.9,27.3,10.9,61-18.7,79.5
	c-12.1,7.6-25.3,11.6-39.3,11.9c-29.3,0.7-58.5,0.4-87.8,0.5C615,420,608.2,420,596.2,420z"/>
<path class="st0" d="M836.7,640.1c-0.6,61.8,0,123.7-0.4,185.5c-0.2,25.6-11.5,36.1-37.3,36.2c-58.7,0.2-117.5-0.5-176.2,0.4
	c-15.1,0.3-17.8-4.8-17.4-18.4c0.9-34,0.3-68,0.3-102l0,0c0-33.2,0.5-66.5-0.3-99.7c-0.3-12.3,2.2-17.5,16.1-17.4
	c66.5,0.7,132.9,0.6,199.4,0.1C832.6,624.7,836.8,627.5,836.7,640.1z"/>
<path class="st0" d="M844.5,567c0.5,16.3-6.7,21.5-22.3,21.1c-33.1-0.8-66.3-0.2-99.5-0.2l0,0c-33.9,0-67.9-0.5-101.8,0.3
	c-11.9,0.3-16.1-2.8-15.7-15.3c1-27.7,0.9-55.5,0-83.3c-0.4-12.4,3.9-15.7,15.8-15.7c67.1,0.4,134.2,0.5,201.3,0
	c15.5-0.1,22.7,5.1,22.2,21.4C843.8,519.2,843.9,543.2,844.5,567z"/>
<path d="M836.2,825.6c-0.2,25.6-11.5,36.1-37.3,36.2c-58.7,0.2-117.5-0.5-176.2,0.4c-15.1,0.3-17.8-4.8-17.4-18.4
	c0.9-34,0.3-68,0.3-102l0,0c0-33.2,0.5-66.5-0.3-99.7c-0.3-12.3,2.2-17.5,16.1-17.4c66.5,0.7,132.9,0.6,199.4,0.1
	c11.7-0.1,16,2.6,15.9,15.3C836,701.9,836.7,763.8,836.2,825.6z"/>
<path d="M532.5,862.1c-57.9-0.7-115.8-0.1-173.7-0.4c-24.7-0.1-36.1-10.5-36.3-34.6c-0.5-62.5,0.2-125.1-0.5-187.6
	c-0.2-13.3,5.3-14.8,16.3-14.7c64.8,0.4,129.7,0.6,194.5-0.1c13.6-0.1,16.6,4.5,16.3,17.1c-0.8,34-0.3,67.9-0.3,101.9h0.1v0
	c0,34-0.6,68,0.3,101.9C549.6,859,545.4,862.3,532.5,862.1z"/>
<path class="st1" d="M844.5,567c0.5,16.3-6.7,21.5-22.3,21.1c-33.1-0.8-66.3-0.2-99.5-0.2l0,0c-33.9,0-67.9-0.5-101.8,0.3
	c-11.9,0.3-16.1-2.8-15.7-15.3c1-27.7,0.9-55.5,0-83.3c-0.4-12.4,3.9-15.7,15.8-15.7c67.1,0.4,134.2,0.5,201.3,0
	c15.5-0.1,22.7,5.1,22.2,21.4C843.8,519.2,843.9,543.2,844.5,567z"/>
<path d="M535.1,588c-33.9-0.3-67.9-0.1-101.8-0.1c-33.2,0-66.4-0.6-99.5,0.3c-16.4,0.4-24.4-4.2-23.7-22.1c1-23.9,0.6-47.8,0.1-71.7
	c-0.3-13.1,3.9-20.4,18.2-20.3c69.4,0.2,138.9,0.1,208.3,0c8.4,0,12.6,2.1,12.4,11.7c-0.5,30.1-0.7,60.2,0.1,90.3
	C549.4,587.5,543.8,588.1,535.1,588z"/>
<path class="st1" d="M557.8,419.4c-41.7,0-79.4,2.4-116.8-0.6c-54.4-4.3-81.3-53.1-53.2-92.1c21.8-30.3,63.2-36,90.8-11.3
	C510.5,343.8,533.4,379.5,557.8,419.4z"/>
<path class="st1" d="M748.8,407.6c-12.1,7.6-25.3,11.6-39.3,11.9c-29.3,0.7-58.5,0.4-87.8,0.5c-6.8,0-13.6,0-25.6,0
	c26.4-42.1,49.6-80.1,84.7-108.7c25.5-20.8,66.5-12.4,86.7,16.8C786.4,355.5,778.4,389.1,748.8,407.6z"/>
</svg>
