<?xml version="1.0" encoding="utf-8"?>
<!-- Generator: Adobe Illustrator 24.0.0, SVG Export Plug-In . SVG Version: 6.00 Build 0)  -->
<svg version="1.1" id="Layer_1" xmlns="http://www.w3.org/2000/svg" xmlns:xlink="http://www.w3.org/1999/xlink" x="0px" y="0px"
	 viewBox="0 0 1129 1144.3" style="enable-background:new 0 0 1129 1144.3;" xml:space="preserve">
<path d="M1128.8,384c-0.2-35.7-15.3-50.9-50.6-51c-56.3-0.2-112.5-0.1-168.8-0.1H798.6c49.5-35,81-76,96.2-129
	c19.9-69.5-11.8-147-75.1-182.3C752.1-16.2,679.3-3.7,627.3,53.7c-35.4,39-61.8,83-79,136.4c-17.4-56.9-45.8-103-84.4-142.8
	C417.2-0.9,351.7-13,290.3,15.4c-60.9,28.1-100,93-93.4,156.3c7.1,67.7,42.4,118.7,101.1,161.2h-19.8c-77.1,0-154.2-0.2-231.2,0.1
	c-32.4,0.1-46.8,14.9-46.9,46.4c-0.1,47-0.2,94,0,141.1c0.2,28.2,14.7,44.8,42.1,43.2c21.2-1.3,22.7,7.4,22.6,24.8
	c-0.6,164.2-0.4,328.4-0.4,492.5c0,48.9,14.3,63.3,63.1,63.3c290.6,0.1,581.2,0.1,871.8,0c50.2,0,64.7-14.5,64.7-64.4
	c0-165,0.2-329.9-0.3-494.9c0-14.3,0.6-21.8,18.8-21.3c30.8,0.8,45.9-16.3,46.1-47.8C1129.1,471.8,1129.1,427.9,1128.8,384z
	 M569.4,313.4c1.8-85.3,21.6-164.1,81.3-229.5c43.9-48,100.4-59.6,153.3-28.3c50.2,29.8,71.9,91.6,51.5,148.8
	c-23.9,67.2-76.1,103.9-139.6,127.8c-4,1.5-9.1,0.2-19,0.2c27.2-19.7,49.6-38.3,59.9-67c12.9-35.8-1.4-76-33.4-93.9
	c-33.2-18.6-72.2-10.3-96.3,22c-26.5,35.5-31.3,77.7-34.3,120.3c-0.6,9,4.3,20.5-13.4,19.5C562.1,332.3,569.3,320.5,569.4,313.4z
	 M655.9,312.6c-7.2,4.1-15.2,6.9-26.1,11.7c2.4-37.7,4.7-72.2,23.6-102.9c14.1-22.8,30.1-28.1,49.8-17.2
	c20.4,11.3,26.5,33.2,15.1,55.5C704.8,285.9,679.8,298.8,655.9,312.6z M582.4,404.1c9.2,40.4,18.3,80.9,27.9,123.1l0,0
	c-38,0-74.9-0.2-111.7,0.1c-9.4,0.1-11.5-2.1-9.2-11.7c10.6-44.1,20.5-88.4,30.2-132.7c2.3-10.3,7.8-12.5,17.8-12.7
	C574.5,369.7,574.5,369.2,582.4,404.1z M235.1,172.9c-6.2-53.1,22-101,70.7-123.3c48-22,95.6-11.9,134.5,27.5
	c67.3,68.3,85.9,153.8,87.9,245.4c0.2,8.4-2.6,10.3-10.4,10.5c-9.3,0.2-13.7-1.5-13.7-12.4c0-30.1-4-59.8-13.7-88.5
	c-5.9-17.7-14.1-34.1-27.7-47.3c-27.1-26.3-62.8-30.6-92.6-11.2c-30,19.6-41.7,56.3-29.5,91.4c10.1,29,32.5,47.4,59.7,67.6l0,0
	c-8.6,0-13.1,1.1-16.8-0.2C316.5,310.7,245,257.9,235.1,172.9z M467.5,324.9L467.5,324.9c-32.2-15.1-60.5-28.7-80.8-54.1
	c-7.8-9.7-13.5-20.6-13.3-33.6c0.3-19.9,12.6-30.8,29.6-36.8c16.4-5.7,28.4,2.9,37.4,15.6C462.8,247.7,464.6,284.7,467.5,324.9z
	 M52.9,527.4c-11.8,0.1-16.2-3.1-16-15.6c0.7-41.6,0.6-83.3,0.1-124.9c-0.1-11.2,2.1-16.6,15.1-16.5c87,0.5,174,0.2,265.3,0.2h0
	c-26.4,51.7-51,99.3-74.8,147.3c-4.5,9.1-10.7,9.3-18.5,9.3C167,527.2,109.9,526.9,52.9,527.4z M411,813
	c-5.8,90.5-1.6,181.7-0.9,272.6c0.1,16-2.2,23-20.9,22.8c-87-1.1-174.1-0.9-261.1-0.2c-19.7,0.2-26.7-5.7-26.6-26.3
	c0.8-166.4,0.6-332.7,0.1-499.1c-0.1-15,3.6-19.5,18.8-18.9c31.5,1.2,63.1,0.4,97.8,0.4c-7.6,15.3-13.4,27.7-19.7,39.8
	c-4.2,8.1-6.2,15.8,0.2,23.6c6.8,8.3,15.5,9,25,5.7c31.2-10.9,62.6-21.1,93.3-33c13-5.1,21.8-5,27.8,8.6c0.3,0.7,0.8,1.3,1.3,1.9
	C400,667.9,416,734.9,411,813z M362.8,568.1c-10-15.6-20.7-17.6-36.7-11.2c-22.8,9-46.1,16.7-69.2,24.9c-5.6-6.2,0.6-10.3,2.6-14.3
	c30.4-60.3,61.5-120.3,91.5-180.8c6-12,12.7-16.8,26.3-16.3c29.2,1.1,58.6,1,87.8,0c14.2-0.5,19.4,2.3,15.7,17.6
	c-20.5,85.8-40.4,171.9-61.2,261.3C399.5,620.8,380.1,595.1,362.8,568.1z M650.8,780.7c-3.3,100.9-1.2,201.9-0.3,302.9
	c0.2,18.3-3.2,25.4-23.5,24.8c-53.9-1.5-107.9-1-161.9-0.2c-14.5,0.2-18-4.3-17.8-18.2c0.7-64.7,0.3-129.5,0.3-194.2h-0.1
	c0-35.5,2.1-71.1-0.4-106.3c-5.1-71.9,9.9-140.7,27.1-209.5c2.8-11.3,6.2-16.4,19.2-16c37,1.1,74,0.8,111,0.1
	c11.1-0.2,15.8,3,18.3,14.2C638,644.8,653.1,710.9,650.8,780.7z M655.6,553.8c-12.9-55.3-25.8-110.6-39-165.8
	c-3-12.3-1.7-19.6,13.3-17.3c0.8,0.1,1.5,0,2.3,0c34.6,0.3,74.9-10.3,102.1,4c27.2,14.3,34,57.4,50,87.8
	c20.4,38.5,39.5,77.7,61.6,121.3c-28.6-10.2-51.8-17.7-74.4-26.8c-16.3-6.6-27.2-3.6-37,11.4c-17.2,26.2-35.9,51.5-56.8,81.2
	C669.7,615,662.8,584.3,655.6,553.8z M1000.7,1108.2c-97.9-0.8-195.8-0.7-293.7,0c-15,0.1-19.4-3.9-19.3-19.2
	c0.6-124.1,0.3-248.2,0.3-372.4c0-5.4-1.1-12,1.5-15.9c22.7-33.8,46-67.3,69.4-100.7c5.6-8,12.3-2.7,18.6-0.5
	c30.4,10.7,60.9,21.2,91.4,32c10.6,3.8,20.9,6.6,29.6-3.6c8.1-9.5,3.5-18.6-1.2-27.7c-5.6-10.8-11-21.8-18.3-36.1
	c46.2,0,89.3,0.6,132.3-0.3c14.6-0.3,15.7,6,15.6,17.7c-0.4,82.5-0.2,165-0.2,247.5c0,84-0.5,168.1,0.4,252.1
	C1027.3,1101.1,1021.1,1108.3,1000.7,1108.2z M1091.7,509c0.3,14-4,18.6-18.3,18.5c-66.2-0.7-132.5-0.3-198.7-0.4
	c-7.4,0-14.5,1.6-19.3-8c-24.1-48.7-48.9-96.9-75.2-148.5c100.7,0,197,0.3,293.3-0.3c14.3-0.1,18.6,4.4,18.3,18.5
	C1090.9,428.9,1091,469,1091.7,509z"/>
</svg>
