<?xml version="1.0" encoding="utf-8"?>
<!-- Generator: Adobe Illustrator 24.0.0, SVG Export Plug-In . SVG Version: 6.00 Build 0)  -->
<svg version="1.1" id="Layer_1" xmlns="http://www.w3.org/2000/svg" xmlns:xlink="http://www.w3.org/1999/xlink" x="0px" y="0px"
	 viewBox="0 0 1144.7 1131.5" style="enable-background:new 0 0 1144.7 1131.5;" xml:space="preserve">
<path d="M1144.5,314.6c-0.1-31.8-5.1-36.5-38-36.5c-58.9,0-117.7,0-176.6,0H729.1c27.1-14.4,54.6-26.3,83.1-35.5
	c19.7-6.3,32.5-18.7,43-35.3c33.1-52.4,26-124.1-16.8-167c-45-45.2-120.2-53-172.7-18c-14.9,9.9-25.8,22.1-32.1,40
	c-19,53.8-40,106.9-61.6,163.9c-21.6-57.5-41.8-111.6-62.2-165.7c-3.8-9.9-7.7-19.4-16.4-26.9C452.9-0.8,406.4-7.7,358,8
	c-51.5,16.7-81.1,55.4-89.4,109c-9.1,58.5,20.9,109.1,75.6,129.8c23.9,9,47.7,18.3,71.5,27.5c-0.4,1.2-0.7,2.5-1.1,3.7
	c-126.9,0-253.8,0-380.7,0c-27.7,0-33.7,6-33.8,33.6c-0.2,41.3-0.1,82.6-0.1,123.9c0,43.4,1.8,46.3,45.5,44.6
	c20.5-0.8,25,4.9,24.9,25c-0.8,195-0.5,389.9-0.5,584.8c0,38.1,3.4,41.3,42,41.3h692.6c79.5,0,159-0.3,238.5,0.3
	c14.8,0.1,26.1-3.3,29.9-18.4c2-8,1.5-16.7,1.5-25c0.1-195.7,0.2-391.4-0.3-587.1c0-15.2,2.7-23.2,19.6-20.4
	c5.2,0.9,10.7,0.2,16,0.1c29-0.5,34.6-6,34.8-35.3C1144.7,401.7,1144.7,358.2,1144.5,314.6z M618.5,257.4
	c21.5-56.9,41.2-108.8,60.8-160.7c13.4-35.4,42.3-50.6,79.5-41.8c45.8,10.9,73.7,60.4,58.8,104.9c-5.8,17.2-15.3,29.6-34.3,36.2
	C729.5,214.7,676.6,235.6,618.5,257.4L618.5,257.4z M349.3,190.9c-18.5-7.2-22.7-26.1-25.9-43c-10.8-58.2,46.2-108.1,102.9-91
	c17.7,5.3,30.1,15,36.8,33.6c19.3,54.3,40.1,108.1,62.1,166.9C463.9,234.3,406.4,213.1,349.3,190.9z M69.5,425.9
	c-14.3,0.2-18.5-3.8-17.6-17.9c1.2-20.5,0.8-41.2,0.1-61.8c-0.3-9.7,2.3-13.3,12.7-13.3c119.9,0.3,239.8,0.3,359.6,0
	c10.2,0,13.1,3.2,12.7,13.1c-0.7,21.4-1.1,42.8,0.1,64.1c0.8,14.1-5.2,15.9-17.2,15.8c-58.8-0.5-117.6-0.3-176.4-0.3l0,0
	C185.5,425.6,127.5,425.1,69.5,425.9z M415.8,1078.9c-90.9-0.9-181.9-0.8-272.8-0.1c-15.1,0.1-18.9-4.1-18.8-19
	c0.5-186.5,0.5-373,0-559.4c-0.1-16.1,4.2-20.3,20.2-20.1c90.9,0.8,181.9,0.8,272.8,0c16.3-0.1,20.2,4.4,20,20.3
	c-0.8,92.5-0.4,184.9-0.4,277.4c0,93.2-0.5,186.5,0.5,279.7C437.5,1075.2,432.8,1079,415.8,1078.9z M636.1,1078.7
	c-42-0.7-84-0.9-126,0.1c-14.9,0.4-19-3.8-18.9-18.8c0.6-118.4,0.3-236.8,0.3-355.2l0,0c0-116.9,0.3-233.7-0.4-350.6
	c-0.1-16.3,2.6-22.3,20.7-21.6c42,1.6,84,0.9,126,0.3c11.8-0.2,15.4,2.9,15.3,15.1c-0.4,238.3-0.4,476.6,0,715
	C653.2,1076.7,648.3,1078.9,636.1,1078.7z M1020.1,1060.1c0,15.1-4.2,18.8-18.9,18.7c-91.7-0.7-183.5-0.7-275.2,0
	c-15,0.1-18.9-3.9-18.8-18.8c0.7-94,0.3-188,0.3-282.1h0c0-92.5,0.4-185-0.4-277.5c-0.1-16,3.9-20.4,20.1-20.2
	c91,0.8,181.9,0.8,272.9,0c16.3-0.2,20,4.5,20,20.3C1019.6,687.1,1019.6,873.6,1020.1,1060.1z M1087.8,421.9
	c-12.8,11.6-43.6,3.5-66.4,3.6c-40.5,0.2-81,0.1-121.5,0.1c-58.1,0-116.2-0.6-174.2,0.4c-15.6,0.3-19.6-4.7-18.3-19.2
	c2.1-24.1-10-56.4,4.8-70c12.9-11.9,44.9-3.6,68.4-3.6c97.1-0.1,194.1,0.4,291.1-0.5c17.3-0.2,22.9,4.2,21,21.4
	C1090.2,377.3,1102.5,408.7,1087.8,421.9z"/>
</svg>
