<?xml version="1.0" encoding="utf-8"?>
<!-- Generator: Adobe Illustrator 24.0.0, SVG Export Plug-In . SVG Version: 6.00 Build 0)  -->
<svg version="1.1" id="Layer_1" xmlns="http://www.w3.org/2000/svg" xmlns:xlink="http://www.w3.org/1999/xlink" x="0px" y="0px"
	 viewBox="0 0 815.8 1165.2" style="enable-background:new 0 0 815.8 1165.2;" xml:space="preserve">
<style type="text/css">
	.st0{fill:#100F0D;}
	.st1{fill:#FDFDFD;}
</style>
<path class="st0" d="M789.4,362.5c-27.3-32.6-35-66.7-27-107.8c9.3-47.5,1.5-61.8-43.9-77c-40.7-13.7-66.4-38-79.9-79.4
	C623,50.3,610.4,44,560.8,52.9c-40.6,7.3-75.4,1.2-107.1-28.2c-35.9-33.3-56.1-32.5-92.6,0.1c-28.6,25.6-59.8,37.2-97.8,29.1
	c-11.3-2.4-22.9-3.4-29.2-4.3l0,0c-30.8-0.4-44.6,8.1-54.2,40.4c-14.1,47.3-42.6,76-90,90.5c-36.4,11.1-47.4,30.9-38.7,67.8
	c10.9,46.3,1.1,84.3-29.9,120.2c-28.8,33.3-28.5,53.6,1,85.7c30.8,33.5,39.1,69.9,29.7,113.4c-9,41.8-1.8,58.1,38.4,71.7
	c46.7,15.9,74.3,45.3,89.8,91.5c12.6,37.8,29.6,47.3,67.7,37.8c44.8-11.2,80.7-1.8,115.5,28.3c36.7,31.8,51.7,31.6,89-0.5
	c34.1-29.4,69.4-39,113.4-28.1c39.5,9.8,56.4,0.5,69.4-38.3c15.1-45.4,42.4-74,88-90.2c42.9-15.2,48.1-27.9,39.4-73
	c-7.9-40.5-2.6-75.4,26.1-107.8C824.5,418.7,824.7,404.7,789.4,362.5z M409.2,669.2c-145.1,0.9-259.9-114.7-260-261.8
	c-0.1-139.7,115.5-255.3,256.3-256.3c143.7-1,259.1,114.3,260,259.7C666.4,552,551,668.3,409.2,669.2z M407.8,165.8
	c-133.3,0-242.6,109.2-242.4,242.1l0,0c0.2,137.5,108,247,242.9,246.7c132.2-0.3,242.3-111.2,241.9-243.5
	C649.7,275.8,541,165.8,407.8,165.8z M557.2,320.4c-2.6,3-5.5,6.4-8.5,9.8c-55.6,61.5-111.4,122.8-166.5,184.7
	c-9.4,10.5-14.2,9.4-22.8-0.5c-29.1-33.2-59.2-65.5-88.6-98.5c-3.8-4.3-13.1-8.4-3.7-16.5c8.2-7.2,13.9-5.8,20.9,2.4
	c19.7,22.9,40.4,44.9,60.5,67.4c22.5,25.2,22.3,25.1,45.6-0.9c45.6-50.7,91.3-101.3,137.2-151.6c3.5-3.8,5.5-12.5,14-8
	C549.9,311.2,555.2,313.2,557.2,320.4L557.2,320.4z"/>
<path class="st0" d="M751.5,1089.2c-36.4-7.4-70.5-13.5-104-21.8c-12.2-3-18.2-0.2-24.7,9.3c-19.4,28.6-39.5,56.7-61.7,88.4
	c-15-38.6-28.5-73.6-42.2-108.5c-27-69.1-54-138.2-81.5-207.1c-4.8-12.1-3.4-17.5,7.2-27.9c38.5-37.6,81.5-50.2,133.4-36.8
	c9.3,2.4,22.4,3.4,29.6-1.3c21.5-14.2,25.8-1.3,32.1,15.2C674,889,709.2,979,744.1,1069.1C746.2,1074.7,748.2,1080.4,751.5,1089.2
	L751.5,1089.2z"/>
<path class="st0" d="M247.2,1140.1c-18.9-27.4-38.5-54.2-56.1-82.2c-7.8-12.5-16-13.9-28.7-10.8C130.4,1055,98.1,1062,63,1070
	c39.8-102.2,78.4-201.3,117.9-302.7c21.4,23,48.4,22.6,73,15.8c47-12.9,80.7,6.7,112.6,36.8c6.2,5.8,4.8,10.5,2.5,16.3
	c-39.1,100-78.2,199.9-117.4,299.9C251.1,1137.4,249.4,1138.2,247.2,1140.1L247.2,1140.1z"/>
<path class="st1" d="M407.8,165.8c-133.3,0-242.6,109.2-242.4,242.1l0,0c0.2,137.5,108,247,242.9,246.7
	c132.2-0.3,242.3-111.2,241.9-243.5C649.7,275.8,541,165.8,407.8,165.8z M557.2,320.4c-2.6,3-5.5,6.4-8.5,9.8
	c-55.6,61.5-111.4,122.8-166.5,184.7c-9.4,10.5-14.2,9.4-22.8-0.5c-29.1-33.2-59.2-65.5-88.6-98.5c-3.8-4.3-13.1-8.4-3.7-16.5
	c8.2-7.2,13.9-5.8,20.9,2.4c19.7,22.9,40.4,44.9,60.5,67.4c22.5,25.2,22.3,25.1,45.6-0.9c45.6-50.7,91.3-101.3,137.2-151.6
	c3.5-3.8,5.5-12.5,14-8C549.9,311.2,555.2,313.2,557.2,320.4L557.2,320.4z"/>
<path class="st0" d="M407.8,165.8c-133.3,0-242.6,109.2-242.4,242.1l0,0c0.2,137.5,108,247,242.9,246.7
	c132.2-0.3,242.3-111.2,241.9-243.5C649.7,275.8,541,165.8,407.8,165.8z M557.2,320.4c-2.6,3-5.5,6.4-8.5,9.8
	c-55.6,61.5-111.4,122.8-166.5,184.7c-9.4,10.5-14.2,9.4-22.8-0.5c-29.1-33.2-59.2-65.5-88.6-98.5c-3.8-4.3-13.1-8.4-3.7-16.5
	c8.2-7.2,13.9-5.8,20.9,2.4c19.7,22.9,40.4,44.9,60.5,67.4c22.5,25.2,22.3,25.1,45.6-0.9c45.6-50.7,91.3-101.3,137.2-151.6
	c3.5-3.8,5.5-12.5,14-8C549.9,311.2,555.2,313.2,557.2,320.4L557.2,320.4z"/>
</svg>
