<?xml version="1.0" encoding="utf-8"?>
<!-- Generator: Adobe Illustrator 24.0.0, SVG Export Plug-In . SVG Version: 6.00 Build 0)  -->
<svg version="1.1" id="Layer_1" xmlns="http://www.w3.org/2000/svg" xmlns:xlink="http://www.w3.org/1999/xlink" x="0px" y="0px"
	 viewBox="0 0 1134.3 936.4" style="enable-background:new 0 0 1134.3 936.4;" xml:space="preserve">
<style type="text/css">
	.st0{fill:#FDFDFD;}
	.st1{fill:#FCFCFC;}
	.st2{fill:#010101;}
	.st3{fill:#131313;}
	.st4{fill:#181818;}
</style>
<path d="M988.6,407.8c-12.7-17.4-14.3-35.3-7.1-55.6c7.1-20.1,3.3-39.3-13.8-53.5c-17.3-14.3-23.8-31.6-21.6-54
	c1.9-19.6-5.9-36.6-24.9-44.2c-23.1-9.2-33.8-25.7-37.3-49.3c-3.1-20.3-16.8-33.2-36.1-35.8c-22.9-3.2-36.8-14.7-46.3-34.7
	c-9.4-19.8-26.2-29.3-48-27c-20.7,2.2-36.6-4.1-49.8-20.2c-15-18.2-34-24.1-56.8-15c-18.4,7.4-35,4.3-50.9-7.7
	C576.9-3.7,556.5-3.5,537.4,11c-15.2,11.5-31,15-48.8,7.9c-24.2-9.6-44.3-3.6-61,15.7c-12.3,14.2-27.4,20.2-46.2,18.6
	c-24.7-2.1-42.5,8.4-52,31.6c-6.9,16.9-19.6,26.7-37.3,29.2c-26,3.7-40.8,18.4-44.3,44c-2.6,19-12.1,31.7-29.9,39.1
	c-23.1,9.6-33.4,27.4-30.3,52.4c2.2,18-3.4,32.8-17.1,44.4c-20.3,17.1-26.2,37.3-16.6,62.8c6.1,16.2,4.2,32.3-7,47.2
	c-14.9,19.8-15,40.5-0.1,60.6c11.4,15.3,12.8,31.8,6.4,49.4c-8.4,23.1-4,43.1,15.1,59.3c12,10.2,21.8,22.7,19.3,38.9
	c-2.9,18.3,4.3,20.7,20.5,20.6c118.8-0.7,237.7-0.4,356.6-0.4l0,0h63.6c99.9,0,199.8,0.1,299.8-0.2c7.2,0,20.6,6.1,18.1-10.8
	c-3.2-22,6.6-37.6,22.4-51.3c16-13.9,20.1-32.2,13-51.6c-7.4-20.3-5.4-38.1,6.9-55.7C1000.9,444.7,1001.7,425.9,988.6,407.8z
	 M791.6,291.6c-42.3,40.1-85,79.8-127.6,119.6c-45.4,42.4-90.7,84.8-136.1,127.1c-27.2,25.4-52.6,26-79.9,0.9
	c-36.3-33.3-72.2-66.9-107.7-101c-16.2-15.5-20.5-35-11.9-56.2c8.3-20.5,25.1-29.1,44.3-31.4l0,0c17,0,29.5,6.6,40.3,16.7
	c20.5,19.1,41.6,37.6,61.1,57.7c10.6,10.9,16.6,9.4,27-0.3c71.5-67.7,143.6-134.6,215.4-202c14.4-13.5,29.9-23.8,50.4-20.1
	c20.1,3.7,34,15.4,40.2,35.5C813.5,259.4,806.9,277.1,791.6,291.6z"/>
<path d="M410.4,817.2c-2.3-13.2-4.2-26.5-6.7-42.3c-9.5,14.2-6.3,29.4-10.7,42.5c-2.5,7.4,0.2,10.6,8.5,10.7
	C410,828.1,411.6,824.5,410.4,817.2z M516.1,771c-0.2-12.9-4.1-22.3-19.5-21.4c-18.2,1.1-4.9,15.3-10.3,22c4.8,7.1-7.2,21.7,11,21.8
	C512.2,793.5,516.3,784,516.1,771z M410.4,817.2c-2.3-13.2-4.2-26.5-6.7-42.3c-9.5,14.2-6.3,29.4-10.7,42.5
	c-2.5,7.4,0.2,10.6,8.5,10.7C410,828.1,411.6,824.5,410.4,817.2z M516.1,771c-0.2-12.9-4.1-22.3-19.5-21.4
	c-18.2,1.1-4.9,15.3-10.3,22c4.8,7.1-7.2,21.7,11,21.8C512.2,793.5,516.3,784,516.1,771z M410.4,817.2c-2.3-13.2-4.2-26.5-6.7-42.3
	c-9.5,14.2-6.3,29.4-10.7,42.5c-2.5,7.4,0.2,10.6,8.5,10.7C410,828.1,411.6,824.5,410.4,817.2z M516.1,771
	c-0.2-12.9-4.1-22.3-19.5-21.4c-18.2,1.1-4.9,15.3-10.3,22c4.8,7.1-7.2,21.7,11,21.8C512.2,793.5,516.3,784,516.1,771z M606.6,814.7
	c-1.9-13.1-4.1-26.2-6.2-39.3v0c-1.1,0.2-2.3,0.5-3.4,0.7c-2,13.2-4.3,26.4-5.9,39.6c-0.5,3.8-4.8,9.2,1.8,11.3
	c4,1.3,9.4,1.5,13-0.3C611.2,824,607.2,818.7,606.6,814.7z M410.4,817.2c-2.3-13.2-4.2-26.5-6.7-42.3c-9.5,14.2-6.3,29.4-10.7,42.5
	c-2.5,7.4,0.2,10.6,8.5,10.7C410,828.1,411.6,824.5,410.4,817.2z M516.1,771c-0.2-12.9-4.1-22.3-19.5-21.4
	c-18.2,1.1-4.9,15.3-10.3,22c4.8,7.1-7.2,21.7,11,21.8C512.2,793.5,516.3,784,516.1,771z M606.6,814.7c-1.9-13.1-4.1-26.2-6.2-39.3
	v0c-1.1,0.2-2.3,0.5-3.4,0.7c-2,13.2-4.3,26.4-5.9,39.6c-0.5,3.8-4.8,9.2,1.8,11.3c4,1.3,9.4,1.5,13-0.3
	C611.2,824,607.2,818.7,606.6,814.7z M410.4,817.2c-2.3-13.2-4.2-26.5-6.7-42.3c-9.5,14.2-6.3,29.4-10.7,42.5
	c-2.5,7.4,0.2,10.6,8.5,10.7C410,828.1,411.6,824.5,410.4,817.2z M516.1,771c-0.2-12.9-4.1-22.3-19.5-21.4
	c-18.2,1.1-4.9,15.3-10.3,22c4.8,7.1-7.2,21.7,11,21.8C512.2,793.5,516.3,784,516.1,771z M606.6,814.7c-1.9-13.1-4.1-26.2-6.2-39.3
	v0c-1.1,0.2-2.3,0.5-3.4,0.7c-2,13.2-4.3,26.4-5.9,39.6c-0.5,3.8-4.8,9.2,1.8,11.3c4,1.3,9.4,1.5,13-0.3
	C611.2,824,607.2,818.7,606.6,814.7z M410.4,817.2c-2.3-13.2-4.2-26.5-6.7-42.3c-9.5,14.2-6.3,29.4-10.7,42.5
	c-2.5,7.4,0.2,10.6,8.5,10.7C410,828.1,411.6,824.5,410.4,817.2z M516.1,771c-0.2-12.9-4.1-22.3-19.5-21.4
	c-18.2,1.1-4.9,15.3-10.3,22c4.8,7.1-7.2,21.7,11,21.8C512.2,793.5,516.3,784,516.1,771z M606.6,814.7c-1.9-13.1-4.1-26.2-6.2-39.3
	v0c-1.1,0.2-2.3,0.5-3.4,0.7c-2,13.2-4.3,26.4-5.9,39.6c-0.5,3.8-4.8,9.2,1.8,11.3c4,1.3,9.4,1.5,13-0.3
	C611.2,824,607.2,818.7,606.6,814.7z M0,936.4h1134.3c-18.7-39.2-35.5-76.1-53.7-112.3c-6.7-13.3-7.7-24.2-0.5-37.9
	c16-30.8,30-62.5,44.8-93.9c7.2-15.3,2.1-23-15.2-23H24c-3.8,0-7.6,0.2-11.3,0c-10.8-0.8-13.7,2.8-8.7,13c9,18.3,14.9,38.6,26.4,55
	c32.6,46.3,31.2,90.1-0.6,136.2C17.2,891.9,10.3,914.3,0,936.4z M927.7,729.7c11.3,1,22.7,0.4,34,0.1c7.8-0.2,13.1,0.9,12.7,10.8
	c-0.3,9-5.5,8.8-12,9.2c-7.2,0.5-18.5-4-20.9,3.2c-3.4,10.2-2.6,22.5-0.9,33.5c1.5,9.5,11.1,4.7,17.1,5.3c6.4,0.6,9.4,3,9.7,9.6
	c0.3,7.4-3.9,8.9-9.9,8.8c-33.1-0.3-13.9,24.7-17,37.7c-4.1,17.5,11.8,9.6,19.7,11.3c5.8,1.3,13.9-3,14.5,8.5
	c0.6,12.5-7.5,10.3-14.8,10.6c-31.2,1.3-46.8-13.5-46.8-44.2v-29.4c0-19.7,0.5-39.3-0.2-58.9C912.6,734.7,914.8,728.6,927.7,729.7z
	 M851.3,729.7c11.3,0.9,22.6,0.4,34,0.1c6.9-0.1,11.5,1,11.4,9.7c0,7.9-3.2,11.6-10.7,10.1c-25.2-4.9-25.8,9.9-24.9,28.5
	c0.5,10.9,3.6,15.2,14.4,14c7.3-0.8,13.6-0.2,13.5,10c-0.1,9.8-6.8,8-12.5,8.2c-28.6,0.7-10.9,22.2-14.5,33.7
	c-4.2,13.2,4.2,16.1,16.3,15.9c6.4-0.1,17.9-6.7,18.5,8.2c0.6,16.7-12.2,9.9-19.3,10c-42.9,1-42.9,0.7-42.9-41.5v-34
	c0-18.9,0.8-37.8-0.3-56.6C833.6,732.7,838.8,728.7,851.3,729.7z M754.6,730.4c19.6-0.4,39.3-0.4,58.9-0.2c7,0.1,8,5,8.1,11
	c0.1,6.8-2.8,10.2-9.4,9.2c-16-2.5-14.2,8.2-14.1,18.2c0.2,31.7-0.2,63.5,0.2,95.2c0.1,9.7-1,15.2-13.1,15.1
	c-11.1-0.2-14.3-3.8-13.8-14.4c0.8-16.6,0.2-33.2,0.2-49.9h0c0-12.8,0.2-25.7-0.1-38.5c-0.3-12.3,5.8-29-17.9-26
	c-6.1,0.8-5.8-5.4-5.9-9.9C747.5,734.9,749.1,730.5,754.6,730.4z M657.3,743.2c0-6-1-12.4,8-13.3c8.1-0.8,12.3,2.6,15.3,9.9
	c8.6,21.2,17.8,42.2,31.1,62.5c0-19.3,0.2-38.5-0.1-57.8c-0.1-8.3,0.2-14.6,11.5-14.8c12.3-0.2,10.7,7.6,10.7,15.1
	c0,39.3,0.2,78.7-0.2,118c0,5.7,4.1,14.1-7.2,15.7c-10.4,1.5-12.7-5.6-15.6-12.6c-8.7-21.5-17.3-43-25.9-64.5
	c-1.5,0.3-3,0.6-4.5,0.8l0,0c0,21-0.3,41.9,0.2,62.8c0.2,9.2-1.8,13.9-12.4,13.6c-9.5-0.3-11-4.9-11-12.8
	C657.4,824.9,657.3,784.1,657.3,743.2z M557.4,864.2c9.2-39.6,16.8-79.5,24.1-119.5c2-10.8,5.1-17,17-14.5
	c11.3-2.2,15.5,2.5,17.5,13.9c6.5,37.1,14.9,73.8,21.2,110.9c1.2,7.1,12.9,18.6-3.2,23.1c-15.8,4.4-19.7-6-19.6-19
	c0.2-16.8-11.7-15-22-13.7c-10.4,1.4-8.1,11.2-9.3,18c-1.4,7.5-1,15.1-12.2,15.1C560.5,878.5,554,879,557.4,864.2z M460.1,863.5
	c0.4-19.7,0.1-39.3,0.1-59h0c0-20.4-0.1-40.8,0-61.3c0-5.7-1.9-13.2,7.6-13.2c18.1,0,36.4-2.2,53.7,5.2c20.4,8.8,29.5,41.6,13.3,60
	c-10.9,12.3-8.5,21.8-4.9,33.9c3.3,10.8,6.7,21.6,9.1,32.7c1.2,5.4,9.4,13.9-2.4,15.9c-8.3,1.4-19.9,5.4-22.7-10.4
	c-2.7-15.5-8-30.6-12-45.9c-1.3-5-1.3-11.2-8.8-10.9c-8.8,0.3-5.7,7.5-5.8,12c-0.5,13.6-0.9,27.3,0,40.8
	c0.8,11.5-2.4,15.6-14.7,15.6C460.3,878.8,459.9,872.8,460.1,863.5z M360.2,864.6c8.7-40.6,16.5-81.4,24.3-122.3
	c2-10.4,7.4-13,17.3-12.7c9.6,0.3,15.3,2.1,17.3,13c8.1,44.5,17,88.9,25.7,133.7c-18.3,5.9-26.9,1.4-27.4-16.2
	c-0.3-9.8-3.8-16.1-16.5-15.5c-11.9,0.6-12.7,6.5-14.4,15.4c-1.3,6.9,1.5,18-11.5,18.5C365.1,878.8,357,879.4,360.2,864.6z
	 M277,729.8c9.5-0.8,11.2,4.1,11.1,12.3c-0.3,30.2-0.5,60.4,0.1,90.6c0.2,11.4-2.2,27.1,15.9,26.7c16.4-0.3,14.3-14.9,14.7-25.7
	c0.6-15.1,0.2-30.2,0.2-45.3c0-15.1,0.4-30.2-0.1-45.3c-0.3-9.2,1.7-14.1,12.3-13.4c8.5,0.5,14.5,1.1,14.2,12.1
	c-1,34.7-0.1,69.5-2.4,104.1c-1.6,23.8-16,34.9-39,35.2c-23.5,0.4-38.8-11.7-40.3-36.3c-2.1-34.6-1.2-69.4-2-104.1
	C261.4,728.6,269.5,730.4,277,729.8z M160.7,762.4c2.7-24,17.7-35.3,42.4-34c24.3,1.3,37.4,14.6,38.4,38.4c0.3,7.7,0,13.9-10.1,13
	c-6.8-0.6-16.4,3.1-16.1-9.6c0.3-11.5-1.4-22.8-16.4-21c-15.1,1.8-12.2,15.2-12.4,25.2c-0.4,21.9-0.1,43.9,0.2,65.8
	c0.1,9.5,1.5,18.6,13.9,19.5c7.8,0.5,13.7-2.5,15-10.5c1.5-9.5,8.7-21.2-3.9-27.5c-5.9-3-11.4-3.9-9.7-11.8c1.9-9,9.6-4.7,14.8-5.7
	c19.8-3.6,29,3.3,25.6,24.7c-1.5,9.6-0.2,19.6-0.3,29.4c-0.1,18.2-0.2,18.4-18.6,12.7c-5.1-1.6-5.9,2.9-8.8,4.5
	c-24.6,13.3-50.1,1-53.8-27c-1.9-14.9-0.3-30.2-0.3-45.3h-0.2l0,0C160.4,789.6,159.1,775.8,160.7,762.4z M592.9,826.9
	c4,1.3,9.4,1.5,13-0.3c5.3-2.6,1.3-7.9,0.7-11.9c-1.9-13.1-4.1-26.2-6.2-39.3v0c-1.1,0.2-2.3,0.5-3.4,0.7c-2,13.2-4.3,26.4-5.9,39.6
	C590.7,819.4,586.4,824.9,592.9,826.9z M497.3,793.4c14.8,0,19-9.5,18.8-22.4c-0.2-12.9-4.1-22.3-19.5-21.4
	c-18.2,1.1-4.9,15.3-10.3,22C491.2,778.8,479.1,793.4,497.3,793.4z M401.4,828c8.5,0.1,10.2-3.5,8.9-10.9
	c-2.3-13.2-4.2-26.5-6.7-42.3c-9.5,14.2-6.3,29.4-10.7,42.5C390.4,824.7,393.1,828,401.4,828z M606.6,814.7
	c-1.9-13.1-4.1-26.2-6.2-39.3v0c-1.1,0.2-2.3,0.5-3.4,0.7c-2,13.2-4.3,26.4-5.9,39.6c-0.5,3.8-4.8,9.2,1.8,11.3
	c4,1.3,9.4,1.5,13-0.3C611.2,824,607.2,818.7,606.6,814.7z M516.1,771c-0.2-12.9-4.1-22.3-19.5-21.4c-18.2,1.1-4.9,15.3-10.3,22
	c4.8,7.1-7.2,21.7,11,21.8C512.2,793.5,516.3,784,516.1,771z M410.4,817.2c-2.3-13.2-4.2-26.5-6.7-42.3
	c-9.5,14.2-6.3,29.4-10.7,42.5c-2.5,7.4,0.2,10.6,8.5,10.7C410,828.1,411.6,824.5,410.4,817.2z M606.6,814.7
	c-1.9-13.1-4.1-26.2-6.2-39.3v0c-1.1,0.2-2.3,0.5-3.4,0.7c-2,13.2-4.3,26.4-5.9,39.6c-0.5,3.8-4.8,9.2,1.8,11.3
	c4,1.3,9.4,1.5,13-0.3C611.2,824,607.2,818.7,606.6,814.7z M516.1,771c-0.2-12.9-4.1-22.3-19.5-21.4c-18.2,1.1-4.9,15.3-10.3,22
	c4.8,7.1-7.2,21.7,11,21.8C512.2,793.5,516.3,784,516.1,771z M410.4,817.2c-2.3-13.2-4.2-26.5-6.7-42.3
	c-9.5,14.2-6.3,29.4-10.7,42.5c-2.5,7.4,0.2,10.6,8.5,10.7C410,828.1,411.6,824.5,410.4,817.2z M606.6,814.7
	c-1.9-13.1-4.1-26.2-6.2-39.3v0c-1.1,0.2-2.3,0.5-3.4,0.7c-2,13.2-4.3,26.4-5.9,39.6c-0.5,3.8-4.8,9.2,1.8,11.3
	c4,1.3,9.4,1.5,13-0.3C611.2,824,607.2,818.7,606.6,814.7z M516.1,771c-0.2-12.9-4.1-22.3-19.5-21.4c-18.2,1.1-4.9,15.3-10.3,22
	c4.8,7.1-7.2,21.7,11,21.8C512.2,793.5,516.3,784,516.1,771z M410.4,817.2c-2.3-13.2-4.2-26.5-6.7-42.3
	c-9.5,14.2-6.3,29.4-10.7,42.5c-2.5,7.4,0.2,10.6,8.5,10.7C410,828.1,411.6,824.5,410.4,817.2z M606.6,814.7
	c-1.9-13.1-4.1-26.2-6.2-39.3v0c-1.1,0.2-2.3,0.5-3.4,0.7c-2,13.2-4.3,26.4-5.9,39.6c-0.5,3.8-4.8,9.2,1.8,11.3
	c4,1.3,9.4,1.5,13-0.3C611.2,824,607.2,818.7,606.6,814.7z M516.1,771c-0.2-12.9-4.1-22.3-19.5-21.4c-18.2,1.1-4.9,15.3-10.3,22
	c4.8,7.1-7.2,21.7,11,21.8C512.2,793.5,516.3,784,516.1,771z M410.4,817.2c-2.3-13.2-4.2-26.5-6.7-42.3
	c-9.5,14.2-6.3,29.4-10.7,42.5c-2.5,7.4,0.2,10.6,8.5,10.7C410,828.1,411.6,824.5,410.4,817.2z M410.4,817.2
	c-2.3-13.2-4.2-26.5-6.7-42.3c-9.5,14.2-6.3,29.4-10.7,42.5c-2.5,7.4,0.2,10.6,8.5,10.7C410,828.1,411.6,824.5,410.4,817.2z
	 M410.4,817.2c-2.3-13.2-4.2-26.5-6.7-42.3c-9.5,14.2-6.3,29.4-10.7,42.5c-2.5,7.4,0.2,10.6,8.5,10.7
	C410,828.1,411.6,824.5,410.4,817.2z"/>
<path class="st0" d="M497.3,793.4c-18.2,0-6.2-14.6-11-21.8c5.4-6.7-7.8-21,10.3-22c15.3-0.9,19.3,8.5,19.5,21.4
	C516.3,784,512.2,793.5,497.3,793.4z"/>
<path class="st1" d="M605.9,826.6c-3.6,1.8-9,1.6-13,0.3c-6.5-2-2.2-7.5-1.8-11.3c1.7-13.3,3.9-26.4,5.9-39.6
	c1.1-0.2,2.3-0.4,3.4-0.7v0c2.1,13.1,4.3,26.2,6.2,39.3C607.2,818.7,611.2,824,605.9,826.6z"/>
<path class="st1" d="M401.4,828c-8.3-0.1-11-3.3-8.5-10.7c4.4-13.1,1.2-28.3,10.7-42.5c2.5,15.8,4.5,29,6.7,42.3
	C411.6,824.5,410,828.1,401.4,828z"/>
<path class="st2" d="M497.3,793.4c-18.2,0-6.2-14.6-11-21.8c5.4-6.7-7.8-21,10.3-22c15.3-0.9,19.3,8.5,19.5,21.4
	C516.3,784,512.2,793.5,497.3,793.4z"/>
<path class="st3" d="M605.9,826.6c-3.6,1.8-9,1.6-13,0.3c-6.5-2-2.2-7.5-1.8-11.3c1.7-13.3,3.9-26.4,5.9-39.6
	c1.1-0.2,2.3-0.4,3.4-0.7v0c2.1,13.1,4.3,26.2,6.2,39.3C607.2,818.7,611.2,824,605.9,826.6z"/>
<path class="st4" d="M401.4,828c-8.3-0.1-11-3.3-8.5-10.7c4.4-13.1,1.2-28.3,10.7-42.5c2.5,15.8,4.5,29,6.7,42.3
	C411.6,824.5,410,828.1,401.4,828z"/>
</svg>
