<?xml version="1.0" encoding="utf-8"?>
<!-- Generator: Adobe Illustrator 24.0.0, SVG Export Plug-In . SVG Version: 6.00 Build 0)  -->
<svg version="1.1" id="Layer_1" xmlns="http://www.w3.org/2000/svg" xmlns:xlink="http://www.w3.org/1999/xlink" x="0px" y="0px"
	 viewBox="0 0 894.6 1150.7" style="enable-background:new 0 0 894.6 1150.7;" xml:space="preserve">
<style type="text/css">
	.st0{fill:#FEFEFE;}
	.st1{fill:#050505;}
</style>
<path d="M327.6,614.4c0-15,9.8-25,24.4-25.1c14.8-0.1,24.4,10.2,24.1,25.1c-0.2,14.5-8.7,23.9-23.1,25
	C336.2,638.3,327.7,629.2,327.6,614.4z"/>
<path d="M448.3,456.1C308.9,455.4,192.8,569.4,192.7,707c-0.1,145.2,111.8,258.8,254.7,258.8c139.9,0,255.8-115.5,255.2-254.3
	C702,570.9,588.4,456.8,448.3,456.1z M352.2,532.5c44.5,0.1,81.9,38.4,81.3,83.4c-0.5,44.1-37.1,79.6-82,79.5
	c-45.4,0-80.3-34.8-80.6-80.1C270.5,569.8,307.3,532.4,352.2,532.5z M346.7,851.8c-17.6,17.5-33.2,19.1-46.3,6.4
	c-13.5-13.1-12.1-28.9,5.2-46.3c81.2-81.2,162.6-162.3,243.9-243.3c10.3-10.2,21.5-17.7,36.9-10c10.9,5.4,15.7,14.1,16.1,23.3h0
	c-0.2,13.4-6.2,21.2-13.5,28.4C508.4,690.8,427.7,771.5,346.7,851.8z M542.1,889.3c-43.5-0.6-80.3-38.2-80.5-82.2
	c-0.2-44.2,36.1-80.3,80.9-80.6c44.5-0.2,81.1,35.6,81.7,80C624.8,851.2,586.4,889.9,542.1,889.3z M544,783.1
	c-15.1-0.4-25.3,8.7-25.3,23.8c0,14.6,8.4,24.2,24.9,24.7h0c15.1-1,23.9-10,23.7-25C567.1,792.8,558.1,783.5,544,783.1z"/>
<path d="M889.8,641.8c-15.1-100.5-58.9-185.4-130-257.5c-84.1-85.2-88.3-182.3-13.5-276c15-18.8,33-34.7,50.6-50.8
	c9.8-9,15.9-19.4,11.7-32.8c-4.5-14.3-16-19.6-30.1-21.3c-66.4-8.5-131.7-0.8-193.6,22.4c-101,37.9-157.5,116.9-188.1,217.1
	c-4.7,15.4-7.9,31.3-16.2,45.5c-8.4,14.4-20,23.9-37.1,23.3c-17.3-0.6-28.2-11.4-34.9-26.4c-3.8-8.4-7-17.2-9.3-26.1
	c-8.2-33.3-10.4-67.1-8.3-101.2c1-15.6-4.3-28.1-19.3-33.1c-14-4.7-24.7,2.1-34.1,13.2c-65.9,77.3-122.2,161-164.6,253.4
	C24.5,497-4.4,606.7,0.6,724.8c10.1,239.2,211.9,430,452.2,425.8v0c44.1,1.5,94.6-7,144-24.4C796.8,1055.6,921.1,849.8,889.8,641.8z
	 M449.4,1023c-172.3,1.6-312-137.7-313.5-312.9l0,0C134.4,541,275.4,399.6,446.3,398.8c171-0.8,311.8,139.5,312.8,311.8
	C760.1,880.7,620.5,1021.4,449.4,1023z"/>
<path class="st0" d="M327.6,614.4c0-15,9.8-25,24.4-25.1c14.8-0.1,24.4,10.2,24.1,25.1c-0.2,14.5-8.7,23.9-23.1,25
	C336.2,638.3,327.7,629.2,327.6,614.4z"/>
<path class="st0" d="M448.3,456.1C308.9,455.4,192.8,569.4,192.7,707c-0.1,145.2,111.8,258.8,254.7,258.8
	c139.9,0,255.8-115.5,255.2-254.3C702,570.9,588.4,456.8,448.3,456.1z M352.2,532.5c44.5,0.1,81.9,38.4,81.3,83.4
	c-0.5,44.1-37.1,79.6-82,79.5c-45.4,0-80.3-34.8-80.6-80.1C270.5,569.8,307.3,532.4,352.2,532.5z M346.7,851.8
	c-17.6,17.5-33.2,19.1-46.3,6.4c-13.5-13.1-12.1-28.9,5.2-46.3c81.2-81.2,162.6-162.3,243.9-243.3c10.3-10.2,21.5-17.7,36.9-10
	c10.9,5.4,15.7,14.1,16.1,23.3h0c-0.2,13.4-6.2,21.2-13.5,28.4C508.4,690.8,427.7,771.5,346.7,851.8z M542.1,889.3
	c-43.5-0.6-80.3-38.2-80.5-82.2c-0.2-44.2,36.1-80.3,80.9-80.6c44.5-0.2,81.1,35.6,81.7,80C624.8,851.2,586.4,889.9,542.1,889.3z
	 M544,783.1c-15.1-0.4-25.3,8.7-25.3,23.8c0,14.6,8.4,24.2,24.9,24.7h0c15.1-1,23.9-10,23.7-25C567.1,792.8,558.1,783.5,544,783.1z"
	/>
<path d="M327.6,614.4c0-15,9.8-25,24.4-25.1c14.8-0.1,24.4,10.2,24.1,25.1c-0.2,14.5-8.7,23.9-23.1,25
	C336.2,638.3,327.7,629.2,327.6,614.4z"/>
<path d="M448.3,456.1C308.9,455.4,192.8,569.4,192.7,707c-0.1,145.2,111.8,258.8,254.7,258.8c139.9,0,255.8-115.5,255.2-254.3
	C702,570.9,588.4,456.8,448.3,456.1z M352.2,532.5c44.5,0.1,81.9,38.4,81.3,83.4c-0.5,44.1-37.1,79.6-82,79.5
	c-45.4,0-80.3-34.8-80.6-80.1C270.5,569.8,307.3,532.4,352.2,532.5z M346.7,851.8c-17.6,17.5-33.2,19.1-46.3,6.4
	c-13.5-13.1-12.1-28.9,5.2-46.3c81.2-81.2,162.6-162.3,243.9-243.3c10.3-10.2,21.5-17.7,36.9-10c10.9,5.4,15.7,14.1,16.1,23.3h0
	c-0.2,13.4-6.2,21.2-13.5,28.4C508.4,690.8,427.7,771.5,346.7,851.8z M542.1,889.3c-43.5-0.6-80.3-38.2-80.5-82.2
	c-0.2-44.2,36.1-80.3,80.9-80.6c44.5-0.2,81.1,35.6,81.7,80C624.8,851.2,586.4,889.9,542.1,889.3z M544,783.1
	c-15.1-0.4-25.3,8.7-25.3,23.8c0,14.6,8.4,24.2,24.9,24.7h0c15.1-1,23.9-10,23.7-25C567.1,792.8,558.1,783.5,544,783.1z"/>
<path class="st0" d="M376.2,614.4c-0.2,14.5-8.7,23.9-23.1,25c-16.9-1.1-25.4-10.2-25.4-25c0-15,9.8-25,24.4-25.1
	C366.9,589.2,376.4,599.6,376.2,614.4z"/>
<path class="st0" d="M567.3,806.6c0.3,14.9-8.5,23.9-23.7,25h0c-16.5-0.5-25-10.1-24.9-24.7c0-15.1,10.2-24.1,25.3-23.8
	C558.1,783.5,567.1,792.8,567.3,806.6z"/>
<path class="st1" d="M376.2,614.4c-0.2,14.5-8.7,23.9-23.1,25c-16.9-1.1-25.4-10.2-25.4-25c0-15,9.8-25,24.4-25.1
	C366.9,589.2,376.4,599.6,376.2,614.4z"/>
<path class="st1" d="M567.3,806.6c0.3,14.9-8.5,23.9-23.7,25h0c-16.5-0.5-25-10.1-24.9-24.7c0-15.1,10.2-24.1,25.3-23.8
	C558.1,783.5,567.1,792.8,567.3,806.6z"/>
</svg>
