<?xml version="1.0" encoding="utf-8"?>
<!-- Generator: Adobe Illustrator 24.0.0, SVG Export Plug-In . SVG Version: 6.00 Build 0)  -->
<svg version="1.1" id="Layer_1" xmlns="http://www.w3.org/2000/svg" xmlns:xlink="http://www.w3.org/1999/xlink" x="0px" y="0px"
	 viewBox="0 0 1147.7 1146.8" style="enable-background:new 0 0 1147.7 1146.8;" xml:space="preserve">
<style type="text/css">
	.st0{fill:#FEFEFE;}
</style>
<path d="M573.9,144.4L573.9,144.4c-72.4,0.1-133.4,59.1-133.2,129c0.1,76.4,59.3,137.7,133.1,137.6c71.3,0,133.5-61.9,133.5-132.7
	C707.1,203.8,647.9,144.3,573.9,144.4z M572.8,333.5c-30-0.6-54.8-25.5-55.5-55.8s25.7-56.6,56.8-56.6c30.6,0,57.1,26.5,56.8,56.8
	C630.6,308.3,603.6,334.1,572.8,333.5z"/>
<path d="M707.5,533.6c-0.4-58.5-29.4-87.6-87.2-88.1c-32.8-0.3-65.7-0.7-98.5,0.1c-50.2,1.2-79.2,30.1-81,80.1
	c-0.7,20.6-0.1,41.3-0.1,61.9c0,107.7-0.1,215.4,0,323.1c0.1,64.1,28.4,92.7,91.6,92.8c28.3,0.1,56.5,0.1,84.8,0
	c60.6-0.2,90.2-29.3,90.4-89.6c0.3-63.4,0.1-126.8,0.1-190.2C707.6,660.4,707.9,597,707.5,533.6z M612.6,927.5
	c-25.9-1.3-51.9-1.1-77.9-0.1c-14,0.6-18-3.4-18-17.8c0.6-123.7,0.5-247.4,0.1-371.1c0-12.7,3.1-17.4,16.5-16.9
	c26.7,1,53.5,1.1,80.2,0c14.1-0.6,18.1,3.5,18,17.8c-0.8,61.8-0.3,123.7-0.3,185.5c0,61.1-0.4,122.2,0.3,183.3
	C631.6,922.9,628.1,928.3,612.6,927.5z"/>
<path d="M576.7,0C259.7-1.7,8.7,262.1,0.3,549.6c-10.1,342.5,267,604,574.1,597.1v0c314.9,6.2,572.6-262.8,573.3-570.2
	C1148.4,259.1,885.7,1.6,576.7,0z M580.5,1071.6c-277.1,3.6-507-222.6-504.2-503.2v0C73.1,302.9,296.7,80.2,570.2,76.3
	c271.9-3.8,498.8,220,501.6,494.9C1074.4,841.8,852,1068.1,580.5,1071.6z"/>
<path class="st0" d="M573.9,144.4L573.9,144.4c-72.4,0.1-133.4,59.1-133.2,129c0.1,76.4,59.3,137.7,133.1,137.6
	c71.3,0,133.5-61.9,133.5-132.7C707.1,203.8,647.9,144.3,573.9,144.4z M572.8,333.5c-30-0.6-54.8-25.5-55.5-55.8
	s25.7-56.6,56.8-56.6c30.6,0,57.1,26.5,56.8,56.8C630.6,308.3,603.6,334.1,572.8,333.5z"/>
<path class="st0" d="M707.5,533.6c-0.4-58.5-29.4-87.6-87.2-88.1c-32.8-0.3-65.7-0.7-98.5,0.1c-50.2,1.2-79.2,30.1-81,80.1
	c-0.7,20.6-0.1,41.3-0.1,61.9c0,107.7-0.1,215.4,0,323.1c0.1,64.1,28.4,92.7,91.6,92.8c28.3,0.1,56.5,0.1,84.8,0
	c60.6-0.2,90.2-29.3,90.4-89.6c0.3-63.4,0.1-126.8,0.1-190.2C707.6,660.4,707.9,597,707.5,533.6z M612.6,927.5
	c-25.9-1.3-51.9-1.1-77.9-0.1c-14,0.6-18-3.4-18-17.8c0.6-123.7,0.5-247.4,0.1-371.1c0-12.7,3.1-17.4,16.5-16.9
	c26.7,1,53.5,1.1,80.2,0c14.1-0.6,18.1,3.5,18,17.8c-0.8,61.8-0.3,123.7-0.3,185.5c0,61.1-0.4,122.2,0.3,183.3
	C631.6,922.9,628.1,928.3,612.6,927.5z"/>
<path d="M707.5,533.6c-0.4-58.5-29.4-87.6-87.2-88.1c-32.8-0.3-65.7-0.7-98.5,0.1c-50.2,1.2-79.2,30.1-81,80.1
	c-0.7,20.6-0.1,41.3-0.1,61.9c0,107.7-0.1,215.4,0,323.1c0.1,64.1,28.4,92.7,91.6,92.8c28.3,0.1,56.5,0.1,84.8,0
	c60.6-0.2,90.2-29.3,90.4-89.6c0.3-63.4,0.1-126.8,0.1-190.2C707.6,660.4,707.9,597,707.5,533.6z M612.6,927.5
	c-25.9-1.3-51.9-1.1-77.9-0.1c-14,0.6-18-3.4-18-17.8c0.6-123.7,0.5-247.4,0.1-371.1c0-12.7,3.1-17.4,16.5-16.9
	c26.7,1,53.5,1.1,80.2,0c14.1-0.6,18.1,3.5,18,17.8c-0.8,61.8-0.3,123.7-0.3,185.5c0,61.1-0.4,122.2,0.3,183.3
	C631.6,922.9,628.1,928.3,612.6,927.5z"/>
<path d="M573.9,144.4L573.9,144.4c-72.4,0.1-133.4,59.1-133.2,129c0.1,76.4,59.3,137.7,133.1,137.6c71.3,0,133.5-61.9,133.5-132.7
	C707.1,203.8,647.9,144.3,573.9,144.4z M572.8,333.5c-30-0.6-54.8-25.5-55.5-55.8s25.7-56.6,56.8-56.6c30.6,0,57.1,26.5,56.8,56.8
	C630.6,308.3,603.6,334.1,572.8,333.5z"/>
</svg>
