<?xml version="1.0" encoding="utf-8"?>
<!-- Generator: Adobe Illustrator 24.0.0, SVG Export Plug-In . SVG Version: 6.00 Build 0)  -->
<svg version="1.1" id="Layer_1" xmlns="http://www.w3.org/2000/svg" xmlns:xlink="http://www.w3.org/1999/xlink" x="0px" y="0px"
	 viewBox="0 0 1145.5 1144.2" style="enable-background:new 0 0 1145.5 1144.2;" xml:space="preserve">
<style type="text/css">
	.st0{fill:#040606;}
</style>
<path class="st0" d="M573.3,0.1C237.7-5.2,0.7,285.1,0,566.8C-0.7,885,261,1143.3,561.8,1144.2c327.6,1,583.8-252.2,583.7-571.6
	C1145.4,239.4,868.7-6.1,573.3,0.1z M590.1,179.8c55.9,0.2,100.8,46.3,101.2,103.7l0,0c0.3,56.7-45.8,102.6-104.2,103.6
	c-55.7,1-102.9-46.7-103.6-104.4C482.8,225.4,530.2,179.5,590.1,179.8z M724.3,898.3c-34.1,37.3-76.4,58.7-126.7,63.2
	c-30.8,2.8-61.6,0.4-92-4.4c-49.2-7.7-89.5-66.6-81.1-117.8c15.5-94.7,31.7-189.3,47.5-284c1.6-9.8,2.7-19.8,3.2-29.8
	c1-21-8.9-33.1-30-36.5c-12.8-2.1-25.7-4.8-38.2-8.1c-11.3-3-19.7-10-18.7-22.8c1-13.3,9.5-20.3,22.5-22.2
	c29.9-4.4,59.9-1.5,89.9-2.3c10-0.3,20,0,30,0c30,0,60,0,90,0c41.5,0,56.9,17.8,49.8,59.6c-8.7,50.7-18.7,101.2-27.9,151.8
	C632,702.3,622,759.8,611.3,817.2c-2.3,12.4-1.7,24.5,0.8,36.6c4.4,21.9,20.3,32.9,42,28.3c15.8-3.3,30.4-10.3,44.7-17.8
	c10.6-5.5,22.5-15.5,32.5-1.3C740.4,875.7,733.5,888.2,724.3,898.3z"/>
</svg>
