<?xml version="1.0" encoding="utf-8"?>
<!-- Generator: Adobe Illustrator 24.0.0, SVG Export Plug-In . SVG Version: 6.00 Build 0)  -->
<svg version="1.1" id="Layer_1" xmlns="http://www.w3.org/2000/svg" xmlns:xlink="http://www.w3.org/1999/xlink" x="0px" y="0px"
	 viewBox="0 0 1162.9 1164.6" style="enable-background:new 0 0 1162.9 1164.6;" xml:space="preserve">
<style type="text/css">
	.st0{fill:#FEFEFE;}
</style>
<path d="M578.8,855.2c-0.5,6.6-5.9,15,1.3,19.4c7.2,4.3,12.9-3.6,17.6-8c20.4-19.2,36.6-42,51.7-65.5c14.4-22.3,24.2,0.8,35.7,3.7
	c14.6,3.6,8.8,12.4,3.5,20.8c-27.4,44.4-57.2,86.8-99.8,118.1c-35.8,26.3-75.6,39.9-119.9,28.9c-50.7-12.5-74.7-56.3-59.5-112.7
	c23.3-86.5,49.5-172.3,74.1-258.5c7.6-26.7,15.4-53.6,20.4-80.8c4.9-26.7-2.5-33.9-29.1-34.6c-35.1-1-38-6.1-21.5-37.5
	c2.3-4.4,4.7-7.6,10-8.3c79-9.8,156.3-31.6,236.6-32.4c1.4,0,2.9,0.9,6.2,1.9l0,0c-16.7,58.5-33.4,117.1-50.2,175.7
	c-24.7,86.2-49.4,172.3-74.2,258.5C580.6,847.7,579.1,851.4,578.8,855.2z"/>
<path d="M748,263.2c1.1,52.3-44.9,98.6-97.1,97.9c-48.4-0.7-91.6-45.6-92-95.7c-0.4-53.4,41.9-96.7,94.5-96.7
	C705.1,168.7,746.9,210.4,748,263.2z"/>
<path d="M1162.9,578.7C1159.7,260,893-1.4,577.1,0C252.4,1.4-10.3,280.8,0.3,578.2c-8.9,324.1,269.3,587.8,583.6,586.5
	C896.9,1163.3,1165.9,894.2,1162.9,578.7z M580.3,1077.8c-272.6,2.2-492.4-219.5-495.1-499.3h0C82.6,312,305.6,89.8,578.5,86.8
	C848,83.8,1073.6,306,1076.4,577C1079.2,853.4,859.2,1075.6,580.3,1077.8z"/>
<path class="st0" d="M578.8,855.2c-0.5,6.6-5.9,15,1.3,19.4c7.2,4.3,12.9-3.6,17.6-8c20.4-19.2,36.6-42,51.7-65.5
	c14.4-22.3,24.2,0.8,35.7,3.7c14.6,3.6,8.8,12.4,3.5,20.8c-27.4,44.4-57.2,86.8-99.8,118.1c-35.8,26.3-75.6,39.9-119.9,28.9
	c-50.7-12.5-74.7-56.3-59.5-112.7c23.3-86.5,49.5-172.3,74.1-258.5c7.6-26.7,15.4-53.6,20.4-80.8c4.9-26.7-2.5-33.9-29.1-34.6
	c-35.1-1-38-6.1-21.5-37.5c2.3-4.4,4.7-7.6,10-8.3c79-9.8,156.3-31.6,236.6-32.4c1.4,0,2.9,0.9,6.2,1.9l0,0
	c-16.7,58.5-33.4,117.1-50.2,175.7c-24.7,86.2-49.4,172.3-74.2,258.5C580.6,847.7,579.1,851.4,578.8,855.2z"/>
<path class="st0" d="M650.8,361c-48.4-0.7-91.6-45.6-92-95.7c-0.4-53.4,41.9-96.7,94.5-96.7c51.7,0,93.5,41.7,94.6,94.5
	C749.1,315.5,703.1,361.8,650.8,361z"/>
<path d="M688.7,825.7c-27.4,44.4-57.2,86.8-99.8,118.1c-35.8,26.3-75.6,39.9-119.9,28.9c-50.7-12.5-74.7-56.3-59.5-112.7
	c23.3-86.5,49.5-172.3,74.1-258.5c7.6-26.7,15.4-53.6,20.4-80.8c4.9-26.7-2.5-33.9-29.1-34.6c-35.1-1-38-6.1-21.5-37.5
	c2.3-4.4,4.7-7.6,10-8.3c79-9.8,156.3-31.6,236.6-32.4c1.4,0,2.9,0.9,6.2,1.9l0,0c-16.7,58.5-33.4,117.1-50.2,175.7
	c-24.7,86.2-49.4,172.3-74.2,258.5c-1.1,3.7-2.6,7.4-2.9,11.2c-0.5,6.6-5.9,15,1.3,19.4c7.2,4.3,12.9-3.6,17.6-8
	c20.4-19.2,36.6-42,51.7-65.5c14.4-22.3,24.2,0.8,35.7,3.7C699.8,808.4,693.9,817.2,688.7,825.7z"/>
<path d="M650.8,361c-48.4-0.7-91.6-45.6-92-95.7c-0.4-53.4,41.9-96.7,94.5-96.7c51.7,0,93.5,41.7,94.6,94.5
	C749.1,315.5,703.1,361.8,650.8,361z"/>
</svg>
