<?xml version="1.0" encoding="utf-8"?>
<!-- Generator: Adobe Illustrator 24.0.0, SVG Export Plug-In . SVG Version: 6.00 Build 0)  -->
<svg version="1.1" id="Layer_1" xmlns="http://www.w3.org/2000/svg" xmlns:xlink="http://www.w3.org/1999/xlink" x="0px" y="0px"
	 viewBox="0 0 1054.3 1054.6" style="enable-background:new 0 0 1054.3 1054.6;" xml:space="preserve">
<style type="text/css">
	.st0{fill:#FEFEFE;}
	.st1{fill:#030303;}
</style>
<path d="M527.1,359.3c-90,0.5-166.6,75.7-166.8,163.8c-0.2,95.9,72.5,170.6,166.1,170.8h0c92.3,0.2,167.2-73,168-164.2
	C695.3,436.2,619.3,358.8,527.1,359.3z M524.5,658.1c-74.6-2.8-130.7-63.5-127.9-138.4c2.5-67.9,65.1-125.6,133.7-123.2
	c73.3,2.6,131.3,64.2,128.3,136C655.5,602.9,593.9,660.7,524.5,658.1z"/>
<path d="M677.4,340c0.3-16.5,14.6-31.2,30.7-31.6c15.4-0.4,30.4,15.5,30.3,31.9h0c-0.1,16.3-14.6,30.7-31.3,31.1
	C690.5,371.8,677.1,357.7,677.4,340z"/>
<path d="M528.7,0C242.4-1.8,1.8,233.3,0,516.8c-1.9,298.3,232.3,537.3,527.1,537.8c288.6,0.5,524.2-233.4,527.2-523.4
	C1057.3,239.5,822.3,1.9,528.7,0z M517.4,1018.1C265,1014.2,35.7,807.3,36,520.2C36.2,257.8,258.8,37,526.7,35.4
	c269.2-1.6,491,220.6,492.1,492.9C1017,804.6,789.9,1022.3,517.4,1018.1z M701.5,214.5c-57.8-1-115.6-0.2-173.4-0.2h0
	c-57.8,0-115.6,0-173.4,0c-3.9,0-7.7,0.3-11.6,0.5C275,218.1,215.9,278.1,215.6,346c-0.6,118.7-0.7,237.4,0.1,356.1
	c0.5,75.6,58.4,135.8,134.3,136.9c117.9,1.7,235.9,1.6,353.8,0.1c73.7-0.9,134.5-58.9,135.7-131c2-119.4,2.1-239,0.1-358.4
	C838.2,271.7,779.3,215.8,701.5,214.5z M802.8,709.8c-0.6,49.8-47.6,92.3-97.5,92.6c-59.3,0.4-118.7,0.1-178,0.1l0,0
	c-57,0-114.1,0.1-171.1,0c-60.1-0.1-103.9-42.2-104.2-102.4c-0.6-116.4-0.6-232.7,0-349.1c0.3-55.9,44-99.4,100-99.7
	c117.1-0.5,234.3-0.5,351.4,0c53.9,0.2,98.6,41.3,99.4,95.5C804.4,467.9,804.3,588.9,802.8,709.8z"/>
<path class="st0" d="M527.1,359.3c-90,0.5-166.6,75.7-166.8,163.8c-0.2,95.9,72.5,170.6,166.1,170.8h0c92.3,0.2,167.2-73,168-164.2
	C695.3,436.2,619.3,358.8,527.1,359.3z M524.5,658.1c-74.6-2.8-130.7-63.5-127.9-138.4c2.5-67.9,65.1-125.6,133.7-123.2
	c73.3,2.6,131.3,64.2,128.3,136C655.5,602.9,593.9,660.7,524.5,658.1z"/>
<path class="st0" d="M738.4,340.3L738.4,340.3c-0.1,16.3-14.6,30.7-31.3,31.1c-16.7,0.4-30.1-13.7-29.8-31.4
	c0.3-16.5,14.6-31.2,30.7-31.6C723.6,308,738.6,323.9,738.4,340.3z"/>
<path class="st0" d="M839.5,349.7c-1.3-77.9-60.2-133.8-138-135.2c-57.8-1-115.6-0.2-173.4-0.2h0c-57.8,0-115.6,0-173.4,0
	c-3.9,0-7.7,0.3-11.6,0.5C275,218.1,215.9,278.1,215.6,346c-0.6,118.7-0.7,237.4,0.1,356.1c0.5,75.6,58.4,135.8,134.3,136.9
	c117.9,1.7,235.9,1.6,353.8,0.1c73.7-0.9,134.5-58.9,135.7-131C841.4,588.6,841.5,469.1,839.5,349.7z M802.8,709.8
	c-0.6,49.8-47.6,92.3-97.5,92.6c-59.3,0.4-118.7,0.1-178,0.1l0,0c-57,0-114.1,0.1-171.1,0c-60.1-0.1-103.9-42.2-104.2-102.4
	c-0.6-116.4-0.6-232.7,0-349.1c0.3-55.9,44-99.4,100-99.7c117.1-0.5,234.3-0.5,351.4,0c53.9,0.2,98.6,41.3,99.4,95.5
	C804.4,467.9,804.3,588.9,802.8,709.8z"/>
<path d="M527.1,359.3c-90,0.5-166.6,75.7-166.8,163.8c-0.2,95.9,72.5,170.6,166.1,170.8h0c92.3,0.2,167.2-73,168-164.2
	C695.3,436.2,619.3,358.8,527.1,359.3z M524.5,658.1c-74.6-2.8-130.7-63.5-127.9-138.4c2.5-67.9,65.1-125.6,133.7-123.2
	c73.3,2.6,131.3,64.2,128.3,136C655.5,602.9,593.9,660.7,524.5,658.1z"/>
<path d="M738.4,340.3L738.4,340.3c-0.1,16.3-14.6,30.7-31.3,31.1c-16.7,0.4-30.1-13.7-29.8-31.4c0.3-16.5,14.6-31.2,30.7-31.6
	C723.6,308,738.6,323.9,738.4,340.3z"/>
<path d="M839.5,349.7c-1.3-77.9-60.2-133.8-138-135.2c-57.8-1-115.6-0.2-173.4-0.2h0c-57.8,0-115.6,0-173.4,0
	c-3.9,0-7.7,0.3-11.6,0.5C275,218.1,215.9,278.1,215.6,346c-0.6,118.7-0.7,237.4,0.1,356.1c0.5,75.6,58.4,135.8,134.3,136.9
	c117.9,1.7,235.9,1.6,353.8,0.1c73.7-0.9,134.5-58.9,135.7-131C841.4,588.6,841.5,469.1,839.5,349.7z M802.8,709.8
	c-0.6,49.8-47.6,92.3-97.5,92.6c-59.3,0.4-118.7,0.1-178,0.1l0,0c-57,0-114.1,0.1-171.1,0c-60.1-0.1-103.9-42.2-104.2-102.4
	c-0.6-116.4-0.6-232.7,0-349.1c0.3-55.9,44-99.4,100-99.7c117.1-0.5,234.3-0.5,351.4,0c53.9,0.2,98.6,41.3,99.4,95.5
	C804.4,467.9,804.3,588.9,802.8,709.8z"/>
<path class="st0" d="M527.1,359.3c-90,0.5-166.6,75.7-166.8,163.8c-0.2,95.9,72.5,170.6,166.1,170.8h0c92.3,0.2,167.2-73,168-164.2
	C695.3,436.2,619.3,358.8,527.1,359.3z M524.5,658.1c-74.6-2.8-130.7-63.5-127.9-138.4c2.5-67.9,65.1-125.6,133.7-123.2
	c73.3,2.6,131.3,64.2,128.3,136C655.5,602.9,593.9,660.7,524.5,658.1z"/>
<path class="st0" d="M738.5,340.3c-0.1,16.3-14.6,30.7-31.3,31.1c-16.7,0.4-30.1-13.7-29.8-31.4c0.3-16.5,14.6-31.2,30.7-31.6
	C723.6,308,738.6,323.9,738.5,340.3L738.5,340.3z"/>
<path d="M527.1,359.3c-90,0.5-166.6,75.7-166.8,163.8c-0.2,95.9,72.5,170.6,166.1,170.8h0c92.3,0.2,167.2-73,168-164.2
	C695.3,436.2,619.3,358.8,527.1,359.3z M524.5,658.1c-74.6-2.8-130.7-63.5-127.9-138.4c2.5-67.9,65.1-125.6,133.7-123.2
	c73.3,2.6,131.3,64.2,128.3,136C655.5,602.9,593.9,660.7,524.5,658.1z"/>
<path class="st1" d="M738.5,340.3c-0.1,16.3-14.6,30.7-31.3,31.1c-16.7,0.4-30.1-13.7-29.8-31.4c0.3-16.5,14.6-31.2,30.7-31.6
	C723.6,308,738.6,323.9,738.5,340.3L738.5,340.3z"/>
</svg>
