<?xml version="1.0" encoding="UTF-8"?>
<svg id="Layer_1" data-name="Layer 1" xmlns="http://www.w3.org/2000/svg" viewBox="0 0 1047.88 1051.6">
  <path d="M683.72.34c186.16-2.51,338.35,127.38,360.66,302.18,13.85,108.48-12.98,206.81-87.64,289.33-20.24,22.38-41.61,43.8-63.36,64.73-26.57,25.56-65.78,25.56-91.21,1.13-26.15-25.12-27.14-65.06-1.69-93,22.73-24.96,48.72-46.81,69.57-73.62,68.72-88.38,62.1-212.67-15.91-293.53-75.95-78.73-199.13-89.48-289.18-24.87-27.03,19.39-47.93,45.43-71.59,68.48-31.26,30.45-72.64,33.13-99.44,5.82-27.14-27.65-24.77-68.06,6.62-99.35,32.02-31.92,61.79-66.41,100.63-90.78C560.22,19.8,623.45-3.12,683.72.34Z" style="stroke-width: 0px;"/>
  <path d="M352.8,1051.58c-149.61-6.73-260.95-75.18-320.71-213.46C-26.32,702.93-3.9,575.49,90.47,462.01c19.71-23.7,42.14-45.24,64.32-66.75,29.3-28.43,67.97-28.6,94.01-1.64,26.41,27.35,25.75,65.54-1.92,94.48-18.88,19.74-39.17,38.23-56.98,58.88-58.51,67.87-73.24,145.26-42.16,228.97,30.97,83.41,93.76,131.1,181.1,143.05,61.71,8.44,118.43-8.96,166.34-49.46,23-19.44,43.44-41.9,65.15-62.88,29.82-28.83,66.7-30.5,93.96-4.39,27.57,26.4,27.94,66.62-.7,95.89-33.11,33.85-64.76,69.34-105.13,95.39-59.51,38.39-124.08,58.6-195.67,58.02Z" style="stroke-width: 0px;"/>
  <path d="M765.81,347.96c.4,18.27-6.29,33.79-18.95,46.55-116.99,117.92-233.86,235.96-351.31,353.43-26.98,26.98-67.17,26.02-92.78.17-25.47-25.71-25.85-65.87.84-92.88,115.26-116.6,230.93-232.79,346.54-349.05,21.76-21.88,47.68-29.67,76.69-17.45,25.45,10.73,38.5,31.26,38.96,59.22Z" style="stroke-width: 0px;"/>
</svg>