<?xml version="1.0" encoding="utf-8"?>
<!-- Generator: Adobe Illustrator 24.0.0, SVG Export Plug-In . SVG Version: 6.00 Build 0)  -->
<svg version="1.1" id="Layer_1" xmlns="http://www.w3.org/2000/svg" xmlns:xlink="http://www.w3.org/1999/xlink" x="0px" y="0px"
	 viewBox="0 0 1340.9 1342.6" style="enable-background:new 0 0 1340.9 1342.6;" xml:space="preserve">
<style type="text/css">
	.st0{fill:#FEFEFE;}
</style>
<path d="M925.8,325.4c-75.8-40-167.1-23.9-232.6,42.8c-45,45.8-95.8,86.9-133,139.5c-38.2,54-100.1,81.3-140.2,132.7
	c-20.2,25.9-47.2,46.4-68.9,71.2c-53.6,61-65.3,131.4-32,204.3c34.7,76,95,120.9,157.9,123.1l0,0c79.8,0.8,125.1-22.2,165.3-59.8
	c85.5-79.8,155.5-174.9,247.2-248.9c31.8-25.7,59.1-57.1,87.7-86.6C1074.7,543,1050,390.9,925.8,325.4z M919.6,589
	c-34.3,35.1-69,69.9-103.7,105.2c-11.7-9.1-9.8-21.9-13.7-32c-11.8-30.6-28.9-57.3-53.5-78.9c-17.9-15.8-40.2-15.8-55.1-0.7
	c-15.2,15.5-15.7,37.5-1.2,55.6c1.1,1.4,2.3,2.7,3.5,4c54,61.7,52.3,118.9-5.4,176.5c-34.8,34.8-69.3,69.8-104.6,104
	c-51.2,49.6-117.7,49.8-166.7,1.1c-50.8-50.5-51.4-116.5-0.9-168.7c34.7-35.9,70.1-71.3,109-110.8c8.7,45.1,26.5,78.6,53.6,106.8
	c22,22.9,45.4,26.3,63.6,10c18.7-16.8,16.4-41.1-6.2-65.2c-46.3-49.4-46-114.3,1.5-162.9c36.9-37.7,74.2-74.9,112-111.7
	c51.7-50.2,119.8-50.3,169.2-1.1C971.3,470,970.7,536.8,919.6,589z"/>
<path d="M669.7,0C297.4-1.2-12.5,315.8,0.4,669.8C-8.9,1042.7,308,1343.6,670,1342.6c374.2-1.1,671.1-313.8,670.9-671.3
	C1340.6,320.8,1050.7,1.3,669.7,0z M663.3,1264L663.3,1264C331,1258.8,72,990.3,77.1,656.4C81.9,334.6,354,73.6,679.2,78.7
	c325.9,5.2,588.2,276.6,583,603.3C1257.1,1005.1,985.4,1269.1,663.3,1264z"/>
<path class="st0" d="M925.8,325.4c-75.8-40-167.1-23.9-232.6,42.8c-45,45.8-95.8,86.9-133,139.5c-38.2,54-100.1,81.3-140.2,132.7
	c-20.2,25.9-47.2,46.4-68.9,71.2c-53.6,61-65.3,131.4-32,204.3c34.7,76,95,120.9,157.9,123.1l0,0c79.8,0.8,125.1-22.2,165.3-59.8
	c85.5-79.8,155.5-174.9,247.2-248.9c31.8-25.7,59.1-57.1,87.7-86.6C1074.7,543,1050,390.9,925.8,325.4z M919.6,589
	c-34.3,35.1-69,69.9-103.7,105.2c-11.7-9.1-9.8-21.9-13.7-32c-11.8-30.6-28.9-57.3-53.5-78.9c-17.9-15.8-40.2-15.8-55.1-0.7
	c-15.2,15.5-15.7,37.5-1.2,55.6c1.1,1.4,2.3,2.7,3.5,4c54,61.7,52.3,118.9-5.4,176.5c-34.8,34.8-69.3,69.8-104.6,104
	c-51.2,49.6-117.7,49.8-166.7,1.1c-50.8-50.5-51.4-116.5-0.9-168.7c34.7-35.9,70.1-71.3,109-110.8c8.7,45.1,26.5,78.6,53.6,106.8
	c22,22.9,45.4,26.3,63.6,10c18.7-16.8,16.4-41.1-6.2-65.2c-46.3-49.4-46-114.3,1.5-162.9c36.9-37.7,74.2-74.9,112-111.7
	c51.7-50.2,119.8-50.3,169.2-1.1C971.3,470,970.7,536.8,919.6,589z"/>
<path d="M925.8,325.4c-75.8-40-167.1-23.9-232.6,42.8c-45,45.8-95.8,86.9-133,139.5c-38.2,54-100.1,81.3-140.2,132.7
	c-20.2,25.9-47.2,46.4-68.9,71.2c-53.6,61-65.3,131.4-32,204.3c34.7,76,95,120.9,157.9,123.1l0,0c79.8,0.8,125.1-22.2,165.3-59.8
	c85.5-79.8,155.5-174.9,247.2-248.9c31.8-25.7,59.1-57.1,87.7-86.6C1074.7,543,1050,390.9,925.8,325.4z M919.6,589
	c-34.3,35.1-69,69.9-103.7,105.2c-11.7-9.1-9.8-21.9-13.7-32c-11.8-30.6-28.9-57.3-53.5-78.9c-17.9-15.8-40.2-15.8-55.1-0.7
	c-15.2,15.5-15.7,37.5-1.2,55.6c1.1,1.4,2.3,2.7,3.5,4c54,61.7,52.3,118.9-5.4,176.5c-34.8,34.8-69.3,69.8-104.6,104
	c-51.2,49.6-117.7,49.8-166.7,1.1c-50.8-50.5-51.4-116.5-0.9-168.7c34.7-35.9,70.1-71.3,109-110.8c8.7,45.1,26.5,78.6,53.6,106.8
	c22,22.9,45.4,26.3,63.6,10c18.7-16.8,16.4-41.1-6.2-65.2c-46.3-49.4-46-114.3,1.5-162.9c36.9-37.7,74.2-74.9,112-111.7
	c51.7-50.2,119.8-50.3,169.2-1.1C971.3,470,970.7,536.8,919.6,589z"/>
</svg>
