<?xml version="1.0" encoding="utf-8"?>
<!-- Generator: Adobe Illustrator 24.0.0, SVG Export Plug-In . SVG Version: 6.00 Build 0)  -->
<svg version="1.1" id="Layer_1" xmlns="http://www.w3.org/2000/svg" xmlns:xlink="http://www.w3.org/1999/xlink" x="0px" y="0px"
	 viewBox="0 0 964.5 963.6" style="enable-background:new 0 0 964.5 963.6;" xml:space="preserve">
<path d="M483,0.1C217.8-4.5,0.6,220.7,0,480.8c-0.6,259.2,215.2,482.6,481.6,482.8c265.3,0.3,482.6-220.3,482.8-481.5
	C964.7,220.8,747.6-3.6,483,0.1z M570.9,606c-49.2,55.9-102.2,108.5-157.5,158.5c-46,41.5-101.1,49.7-158,26.9
	c-57.3-23-87.8-68.6-94.3-129.8c-3.8-35.3,4.9-68.8,26.6-96c47.7-59.6,106.5-108.6,160.5-162.8l0,0c-7.5,39.3-6.7,77.1,8.4,113.9
	c3.3,8-4.2,11.4-8.4,15.6c-24.9,25.1-50.2,49.8-75,74.9c-17.7,17.8-24.5,38.7-16.6,63.3c7.6,23.6,26.3,33.7,48.5,38.9
	c17.7,4.2,33.2-1.3,45.8-13.8c48.3-47.9,96.9-95.6,144.3-144.5c26.9-27.7,20.7-71.7-13.3-90.5c-16.5-9.2-12.9-18.8-6.3-29.1
	c12.3-19,30.7-32.6,46-49c5.5-5.9,9.2-0.8,13.2,1.6C609.3,428.9,628.8,540.2,570.9,606z M779.5,395.1
	c-15.7,25.2-39.5,43.7-60.1,64.8c-31.4,32.1-63.8,63.3-95.8,94.9c-2.6,2.5-5.6,4.6-8.4,6.8c10.4-38.1,8.5-73.7-4.6-108.5
	c-3.6-9.5-2.4-14.8,4.6-21.6c25.8-25,51-50.6,76.3-76.3c25.1-25.5,26.4-61.2,3.5-84.4c-24-24.3-60.3-24.3-86.2,1.1
	c-44.5,43.6-88.7,87.4-132.4,131.8c-34.8,35.4-30.6,73.9,11.2,101c12,7.8,7,16.2,3.4,22.8c-11.9,21.7-32.5,36-49.1,53.7
	c-5.7,6-10.6-1.3-14.9-4c-73.3-45.1-90.4-157.7-31.3-222.4c48.9-53.5,100.4-104.8,153.3-154.4c56.7-53,142.5-54.3,198.8-6.8
	C808.2,244.9,821.7,327.5,779.5,395.1z"/>
</svg>
