<?xml version="1.0" encoding="utf-8"?>
<!-- Generator: Adobe Illustrator 24.0.0, SVG Export Plug-In . SVG Version: 6.00 Build 0)  -->
<svg version="1.1" id="Layer_1" xmlns="http://www.w3.org/2000/svg" xmlns:xlink="http://www.w3.org/1999/xlink" x="0px" y="0px"
	 viewBox="0 0 1111.5 1113.8" style="enable-background:new 0 0 1111.5 1113.8;" xml:space="preserve">
<style type="text/css">
	.st0{fill:#231F20;}
	.st1{fill:#FEFEFE;}
	.st2{fill:#E9EAEE;}
</style>
<path class="st0" d="M451.4,786.6c0.1,13-5.5,14.1-15.8,13.9c-26.6-0.5-53.2-0.9-79.8,0.1c-12.8,0.5-15.9-3.7-15.7-16
	c0.7-43.7,0.3-87.5,0.3-131.2l0,0c0-43.8,0.4-87.5-0.3-131.2c-0.2-12,2.3-16.9,15.5-16.3c27.3,1,54.7,0.7,82,0.1
	c10.6-0.3,13.8,3,13.8,13.8C450.9,608.6,450.8,697.6,451.4,786.6z"/>
<path class="st0" d="M454,336.5c-1.7,6.4-4.4,12.5-6.7,18.7c-33.6,36.7-68.4,36.3-101.9-1.2c-7.1-19.3-9.6-38.9-1.1-58.2
	c12.4-27.8,45-40,75.3-28.9C444.8,276,461.3,309.2,454,336.5z"/>
<path class="st0" d="M825.2,787.6c0.1,11.7-4.6,13.1-14.3,12.9c-26.6-0.5-53.3-1-79.9,0.1c-13.7,0.6-17.4-3.4-17.2-17.2
	c0.9-51.2,0.5-102.4,0.3-153.7c-0.1-33.1-11.1-47.5-35.9-48.1c-27.5-0.7-46.3,17.1-46.9,47.6c-1,50.5-0.9,101,0,151.4
	c0.3,14.7-2.1,21.1-18.7,20.1c-25.8-1.5-51.8-1.1-77.7-0.1c-12.2,0.5-14.6-4-14.5-15.1c0.4-88.3,0.4-176.7-0.1-265
	c-0.1-11.9,3.5-15.3,15-14.7c17,0.9,34.3,2.1,51-0.2c21.5-3,29,6.3,29.3,25.9c0.1,4.4,1,8.8,2.1,18.2l0,0
	c33-36,70.2-53.1,114.8-49.9c57.2,4.1,89.9,36.4,91.6,94.1C826,658.4,824.5,723,825.2,787.6z"/>
<path class="st0" d="M560.7,0C248.1-2.4,9.5,256.7,0.3,533.8c-10.9,329.7,257.4,585.9,553.5,579.9h0
	c315.4,6,554.3-262.7,557.6-547.1C1115.1,256.7,861.6,2.3,560.7,0z M584.6,1079C295.5,1095.9,52.7,874.5,35.4,582.5
	C19.1,306.6,236.3,44.8,540.9,35.4c272.8-9.2,525.8,205.7,535.4,506.9C1085.1,817.8,875,1062,584.6,1079z"/>
<path class="st1" d="M451.4,786.6c0.1,13-5.5,14.1-15.8,13.9c-26.6-0.5-53.2-0.9-79.8,0.1c-12.8,0.5-15.9-3.7-15.7-16
	c0.7-43.7,0.3-87.5,0.3-131.2l0,0c0-43.8,0.4-87.5-0.3-131.2c-0.2-12,2.3-16.9,15.5-16.3c27.3,1,54.7,0.7,82,0.1
	c10.6-0.3,13.8,3,13.8,13.8C450.9,608.6,450.8,697.6,451.4,786.6z"/>
<path class="st1" d="M454,336.5c-1.7,6.4-4.4,12.5-6.7,18.7c-33.6,36.7-68.4,36.3-101.9-1.2c-7.1-19.3-9.6-38.9-1.1-58.2
	c12.4-27.8,45-40,75.3-28.9C444.8,276,461.3,309.2,454,336.5z"/>
<path class="st1" d="M825.2,787.6c0.1,11.7-4.6,13.1-14.3,12.9c-26.6-0.5-53.3-1-79.9,0.1c-13.7,0.6-17.4-3.4-17.2-17.2
	c0.9-51.2,0.5-102.4,0.3-153.7c-0.1-33.1-11.1-47.5-35.9-48.1c-27.5-0.7-46.3,17.1-46.9,47.6c-1,50.5-0.9,101,0,151.4
	c0.3,14.7-2.1,21.1-18.7,20.1c-25.8-1.5-51.8-1.1-77.7-0.1c-12.2,0.5-14.6-4-14.5-15.1c0.4-88.3,0.4-176.7-0.1-265
	c-0.1-11.9,3.5-15.3,15-14.7c17,0.9,34.3,2.1,51-0.2c21.5-3,29,6.3,29.3,25.9c0.1,4.4,1,8.8,2.1,18.2l0,0
	c33-36,70.2-53.1,114.8-49.9c57.2,4.1,89.9,36.4,91.6,94.1C826,658.4,824.5,723,825.2,787.6z"/>
<path d="M825.2,787.6c0.1,11.7-4.6,13.1-14.3,12.9c-26.6-0.5-53.3-1-79.9,0.1c-13.7,0.6-17.4-3.4-17.2-17.2
	c0.9-51.2,0.5-102.4,0.3-153.7c-0.1-33.1-11.1-47.5-35.9-48.1c-27.5-0.7-46.3,17.1-46.9,47.6c-1,50.5-0.9,101,0,151.4
	c0.3,14.7-2.1,21.1-18.7,20.1c-25.8-1.5-51.8-1.1-77.7-0.1c-12.2,0.5-14.6-4-14.5-15.1c0.4-88.3,0.4-176.7-0.1-265
	c-0.1-11.9,3.5-15.3,15-14.7c17,0.9,34.3,2.1,51-0.2c21.5-3,29,6.3,29.3,25.9c0.1,4.4,1,8.8,2.1,18.2l0,0
	c33-36,70.2-53.1,114.8-49.9c57.2,4.1,89.9,36.4,91.6,94.1C826,658.4,824.5,723,825.2,787.6z"/>
<path d="M451.4,786.6c0.1,13-5.5,14.1-15.8,13.9c-26.6-0.5-53.2-0.9-79.8,0.1c-12.8,0.5-15.9-3.7-15.7-16
	c0.7-43.7,0.3-87.5,0.3-131.2l0,0c0-43.8,0.4-87.5-0.3-131.2c-0.2-12,2.3-16.9,15.5-16.3c27.3,1,54.7,0.7,82,0.1
	c10.6-0.3,13.8,3,13.8,13.8C450.9,608.6,450.8,697.6,451.4,786.6z"/>
<path class="st2" d="M447.3,355.2c-33.6,36.7-68.4,36.3-101.9-1.2c6.7-1.4,10.8,3.2,15.5,6.7c27.2,20.3,44.7,20.5,71.6,1.2
	C436.9,358.7,440.1,352.2,447.3,355.2L447.3,355.2z"/>
<path d="M454,336.5c-1.7,6.4-4.4,12.5-6.7,18.7c-33.6,36.7-68.4,36.3-101.9-1.2c-7.1-19.3-9.6-38.9-1.1-58.2
	c12.4-27.8,45-40,75.3-28.9C444.8,276,461.3,309.2,454,336.5z"/>
</svg>
