<?xml version="1.0" encoding="utf-8"?>
<!-- Generator: Adobe Illustrator 24.0.0, SVG Export Plug-In . SVG Version: 6.00 Build 0)  -->
<svg version="1.1" id="Layer_1" xmlns="http://www.w3.org/2000/svg" xmlns:xlink="http://www.w3.org/1999/xlink" x="0px" y="0px"
	 viewBox="0 0 1176.4 1177" style="enable-background:new 0 0 1176.4 1177;" xml:space="preserve">
<style type="text/css">
	.st0{fill:#FEFEFE;}
</style>
<path d="M218.7,294.5c0.6-37,32.3-68.1,69.2-68.1c37.9,0,69.5,32.4,69,70.7l0,0c-0.5,37.6-31.4,67.9-69.2,67.8
	C249,364.7,218.1,333.2,218.7,294.5z"/>
<path d="M357.2,519.6c-0.3,141.1-0.3,282.2,0,423.4c0,11.6-4.1,14.6-15.1,14.5c-35.3-0.6-70.6-1.1-105.8,0.2
	c-15.3,0.5-18-4.9-17.8-18.7c0.6-69.8,0.3-139.5,0.3-209.3l0,0c0-68.2,0.6-136.4-0.4-204.6c-0.3-17.1,5-20.7,20.9-20.1
	c34.4,1.3,69,0.8,103.5,0.2C354,504.8,357.2,508.4,357.2,519.6z"/>
<path d="M912.1,936.2c0.2,18.4-5.5,22.1-22.4,21.5c-33.6-1.3-67.4-1.5-101.1,0c-17.9,0.8-20-6.4-19.8-21.6
	c0.8-53.3,1.2-106.6,0.1-159.9c-1.3-62.3-53.8-98.9-109.4-77.4c-29.5,11.4-49.5,39.6-49.8,72.9c-0.5,54.9-0.7,109.8,0.1,164.6
	c0.2,15.5-2.4,22.2-20,21.4c-34.4-1.5-69-0.9-103.4-0.2c-12.3,0.3-16.2-3.7-16.1-16c0.3-140.3,0.4-280.6,0-421
	c0-12.9,4.6-15.7,16.4-15.5c36,0.6,72.1,0.8,108.2-0.1c13.5-0.3,15.3,5.3,14.9,16.5c-0.7,20.8-0.2,41.7-0.2,68.2
	c20.2-21.1,40.4-33.9,61.3-45.5c94.9-52.7,213.6-3.5,237.4,98.4c2.6,11.3,3.3,23.3,3.3,34.9C911.7,763.7,911,850,912.1,936.2z"/>
<path d="M1175.6,191.8c0-16.4-0.1-32.8-3.8-49.1C1156.1,71.3,1086.1-1.9,983.6,0C851.2,2.5,718.6,0.6,586.1,0.6v0.3
	c-134.9,0-269.8,1.5-404.6-0.5C82.6-1-1.1,91.6,0,186c3.1,265.8,1,531.7,1.2,797.5c0,17.9-0.4,35.8,4.1,53.7
	c16.4,66.2,81.5,140.4,188.4,139.7c262.7-2,525.4-0.6,788.1-0.8c17.2,0,34.3-0.2,51.4-4c84.3-18.9,143.9-100.2,143.3-182.9
	C1174.5,723.5,1175.8,457.6,1175.6,191.8z M1131.8,973.8c0,98.9-59.1,158.4-157.4,158.4c-258.1,0.1-516.1,0.1-774.2,0
	c-96.3,0-155.2-59-155.2-155.4c-0.1-129.4,0-258.8,0-388.3v0c0-132.6-0.1-265.1,0-397.7c0.1-83.3,59.6-145.6,142.5-145.8
	c267.5-0.8,534.9-0.7,802.4,0c79.8,0.2,140.4,63.1,141.8,145.2c0.9,54.9,0.2,109.8,0.2,164.7
	C1131.9,561.2,1131.9,767.5,1131.8,973.8z"/>
<path class="st0" d="M218.7,294.5c0.6-37,32.3-68.1,69.2-68.1c37.9,0,69.5,32.4,69,70.7l0,0c-0.5,37.6-31.4,67.9-69.2,67.8
	C249,364.7,218.1,333.2,218.7,294.5z"/>
<path class="st0" d="M357.2,519.6c-0.3,141.1-0.3,282.2,0,423.4c0,11.6-4.1,14.6-15.1,14.5c-35.3-0.6-70.6-1.1-105.8,0.2
	c-15.3,0.5-18-4.9-17.8-18.7c0.6-69.8,0.3-139.5,0.3-209.3l0,0c0-68.2,0.6-136.4-0.4-204.6c-0.3-17.1,5-20.7,20.9-20.1
	c34.4,1.3,69,0.8,103.5,0.2C354,504.8,357.2,508.4,357.2,519.6z"/>
<path class="st0" d="M889.7,957.7c-33.6-1.3-67.4-1.5-101.1,0c-17.9,0.8-20-6.4-19.8-21.6c0.8-53.3,1.2-106.6,0.1-159.9
	c-1.3-62.3-53.8-98.9-109.4-77.4c-29.5,11.4-49.5,39.6-49.8,72.9c-0.5,54.9-0.7,109.8,0.1,164.6c0.2,15.5-2.4,22.2-20,21.4
	c-34.4-1.5-69-0.9-103.4-0.2c-12.3,0.3-16.2-3.7-16.1-16c0.3-140.3,0.4-280.6,0-421c0-12.9,4.6-15.7,16.4-15.5
	c36,0.6,72.1,0.8,108.2-0.1c13.5-0.3,15.3,5.3,14.9,16.5c-0.7,20.8-0.2,41.7-0.2,68.2c20.2-21.1,40.4-33.9,61.3-45.5
	c94.9-52.7,213.6-3.5,237.4,98.4c2.6,11.3,3.3,23.3,3.3,34.9c0.3,86.2-0.5,172.5,0.6,258.7C912.3,954.6,906.6,958.3,889.7,957.7z"/>
<path d="M889.7,957.7c-33.6-1.3-67.4-1.5-101.1,0c-17.9,0.8-20-6.4-19.8-21.6c0.8-53.3,1.2-106.6,0.1-159.9
	c-1.3-62.3-53.8-98.9-109.4-77.4c-29.5,11.4-49.5,39.6-49.8,72.9c-0.5,54.9-0.7,109.8,0.1,164.6c0.2,15.5-2.4,22.2-20,21.4
	c-34.4-1.5-69-0.9-103.4-0.2c-12.3,0.3-16.2-3.7-16.1-16c0.3-140.3,0.4-280.6,0-421c0-12.9,4.6-15.7,16.4-15.5
	c36,0.6,72.1,0.8,108.2-0.1c13.5-0.3,15.3,5.3,14.9,16.5c-0.7,20.8-0.2,41.7-0.2,68.2c20.2-21.1,40.4-33.9,61.3-45.5
	c94.9-52.7,213.6-3.5,237.4,98.4c2.6,11.3,3.3,23.3,3.3,34.9c0.3,86.2-0.5,172.5,0.6,258.7C912.3,954.6,906.6,958.3,889.7,957.7z"/>
<path d="M357.1,943c0,11.6-4.1,14.6-15.1,14.5c-35.3-0.6-70.6-1.1-105.8,0.2c-15.3,0.5-18-4.9-17.8-18.7
	c0.6-69.8,0.3-139.5,0.3-209.3l0,0c0-68.2,0.6-136.4-0.4-204.6c-0.3-17.1,5-20.7,20.9-20.1c34.4,1.3,69,0.8,103.5,0.2
	c11.3-0.2,14.5,3.3,14.5,14.6C356.8,660.7,356.8,801.9,357.1,943z"/>
<path d="M357,297c-0.5,37.6-31.4,67.9-69.2,67.8c-38.8-0.1-69.7-31.6-69.1-70.3c0.6-37,32.3-68.1,69.2-68.1
	C325.8,226.3,357.4,258.7,357,297L357,297z"/>
</svg>
