<?xml version="1.0" encoding="utf-8"?>
<!-- Generator: Adobe Illustrator 24.0.0, SVG Export Plug-In . SVG Version: 6.00 Build 0)  -->
<svg version="1.1" id="Layer_1" xmlns="http://www.w3.org/2000/svg" xmlns:xlink="http://www.w3.org/1999/xlink" x="0px" y="0px"
	 viewBox="0 0 1137.4 1138.9" style="enable-background:new 0 0 1137.4 1138.9;" xml:space="preserve">
<style type="text/css">
	.st0{fill:#FEFEFE;}
</style>
<path d="M1136.4,99.1c0-63.5-35.2-98.4-98.6-98.4C725,0.6,412.3,1.4,99.6,0C38.6-0.3-0.8,47,0,99c2.4,156.3,0.9,312.7,0.9,469.1
	c0,157.1-0.1,314.3,0.1,471.4c0.1,62.2,34.6,98.6,96.2,98.6c314.3,0.4,628.5-0.4,942.8,0.8c59.7,0.2,97.7-50.7,97.5-99.3
	C1135.7,726.1,1136.6,412.6,1136.4,99.1z M319.1,940.3c-44-0.8-88.1-1-132.1,0.1c-15.7,0.4-18.8-5-18.6-19.4
	c0.6-78.2,0.3-156.4,0.3-234.6l0,0c0-76.7,0.7-153.4-0.5-230c-0.3-18.7,5.6-22.2,22.6-21.7c43.2,1.2,86.5,0.9,129.8,0.1
	c12.9-0.2,16.6,3.4,16.6,16.4c-0.4,157.1-0.4,314.3,0,471.4C337.3,937,332.8,940.5,319.1,940.3z M251.6,373.6
	c-53.9-0.1-95.4-42.6-95.2-97.6v0c0.2-51.6,44.7-94.5,97.1-93.7c52.4,0.8,94.1,43.5,94.4,96.8C348.2,331,304.7,373.7,251.6,373.6z
	 M970.7,795.8c0.7,42.5-0.4,85,0.1,127.5c0.2,12.6-3.3,17.2-16.5,16.9c-44.8-0.8-89.6-1-134.4,0.1c-15.2,0.4-19.2-4.4-19.3-19
	c-0.4-85-1.7-170-2.6-255.1c-0.1-4.5-0.1-9.1-0.2-13.7c-1-53.2-20.5-82.7-59.2-89.6c-56.1-10-100.2,12.3-119.2,59.5
	c-4.1,10.3-4.4,20.6-4.4,31.2c0,88.8-0.4,177.7,0.4,266.5c0.1,16.1-4.5,20.5-20.4,20.1c-44.8-1-89.6-0.8-134.4-0.1
	c-13,0.2-16.6-3.8-16.6-16.7c0.4-157.9,0.4-315.8,0-473.8c0-12.5,4.2-15.1,15.6-15c44.8,0.6,89.6,0.6,134.4,0c11-0.1,14.6,3,13.9,14
	c-0.9,15.1-0.2,30.3-0.2,50.1c65.5-94.4,226.8-94.6,294-38.3c42.4,35.5,58.8,81.5,65.5,132.7C975.9,660.6,969.6,728.3,970.7,795.8z
	 M607.6,499L607.6,499C607.6,499,607.6,499,607.6,499L607.6,499z"/>
<path class="st0" d="M607.6,499L607.6,499L607.6,499C607.6,499,607.6,499,607.6,499z"/>
</svg>
