<?xml version="1.0" encoding="utf-8"?>
<!-- Generator: Adobe Illustrator 24.0.0, SVG Export Plug-In . SVG Version: 6.00 Build 0)  -->
<svg version="1.1" id="Layer_1" xmlns="http://www.w3.org/2000/svg" xmlns:xlink="http://www.w3.org/1999/xlink" x="0px" y="0px"
	 viewBox="0 0 1189.1 1188.2" style="enable-background:new 0 0 1189.1 1188.2;" xml:space="preserve">
<style type="text/css">
	.st0{fill:#FEFEFE;}
</style>
<path d="M603.5,351.3c-83.6-5.3-151.8,55.9-156.2,140.2C443.1,571.9,505.7,639.7,589,645l0,0c78.1,4.9,146.4-57.8,152.3-139.9
	C747,424.9,685.7,356.5,603.5,351.3z M702.6,496c0.4,60.8-46.7,109.1-106.6,109.5c-60.9,0.4-108.5-46.2-109.2-106.9
	c-0.7-59.5,48.2-108.9,107.9-109C653.4,389.5,702.2,437.5,702.6,496L702.6,496z"/>
<path d="M594.4,0.1C268.9-4.7,0,270.5,0,593.8c0,322.1,267.8,594.6,594.8,594.4c326.5-0.3,594.4-271.3,594.3-594.8
	C1189.1,270.5,920-5,594.4,0.1z M810.4,719.2c-50.2,94.1-120,172-201.8,240c-11.1,9.2-19.6,8.4-29.2,0.3
	C452.6,851.4,352.3,726.3,323,556.2c-3.1-17.9-3.2-36.2-4.1-48c-2-152.4,108.3-273,255.6-285.9c138.3-12.2,270.5,90.4,292,230
	C881.1,547.4,854.8,635.9,810.4,719.2z"/>
<path class="st0" d="M603.5,351.3c-83.6-5.3-151.8,55.9-156.2,140.2C443.1,571.9,505.7,639.7,589,645l0,0
	c78.1,4.9,146.4-57.8,152.3-139.9C747,424.9,685.7,356.5,603.5,351.3z M702.6,496c0.4,60.8-46.7,109.1-106.6,109.5
	c-60.9,0.4-108.5-46.2-109.2-106.9c-0.7-59.5,48.2-108.9,107.9-109C653.4,389.5,702.2,437.5,702.6,496L702.6,496z"/>
<path d="M603.5,351.3c-83.6-5.3-151.8,55.9-156.2,140.2C443.1,571.9,505.7,639.7,589,645l0,0c78.1,4.9,146.4-57.8,152.3-139.9
	C747,424.9,685.7,356.5,603.5,351.3z M702.6,496c0.4,60.8-46.7,109.1-106.6,109.5c-60.9,0.4-108.5-46.2-109.2-106.9
	c-0.7-59.5,48.2-108.9,107.9-109C653.4,389.5,702.2,437.5,702.6,496L702.6,496z"/>
</svg>
