<?xml version="1.0" encoding="utf-8"?>
<!-- Generator: Adobe Illustrator 24.0.0, SVG Export Plug-In . SVG Version: 6.00 Build 0)  -->
<svg version="1.1" id="Layer_1" xmlns="http://www.w3.org/2000/svg" xmlns:xlink="http://www.w3.org/1999/xlink" x="0px" y="0px"
	 viewBox="0 0 1011.4 1154.3" style="enable-background:new 0 0 1011.4 1154.3;" xml:space="preserve">
<path d="M171.8,944.3c0-33.9,0.7-67.8-0.3-101.7c-0.4-14.4,2.6-19.7,18.5-19.4c42,0.7,82.5,6.7,121.3,23.6
	c58.3,25.4,120.7,29.5,182.9,32.9c42.3,2.3,84.8,1.1,127.1,3.5c27.7,1.6,43.6,19.3,45.9,45.8c3,34.1-16.4,56.4-51.2,56.3
	c-50.1-0.1-100.2-1.6-150.3-2.5c-5.4-0.1-10.8-0.3-16.2-0.2c-9.9,0.3-18.6,2.2-19,14.9c-0.4,12.7,7.9,15.6,18,15.8
	c21.6,0.4,43.2,0.6,64.7,0.7c36.2,0.3,72.4,0.3,108.7,0.7c22.3,0.2,41.2-8.1,54.5-25.2c10-12.8,22.4-20.3,36.2-27.2
	c73.4-37,146.5-74.4,219.8-111.6c29.9-15.2,59.1-7,72.8,20.1c13.9,27.6,3.6,55.7-26.2,71.2c-113.1,58.7-226.1,117.7-339.5,176
	c-53.1,27.3-110.3,26.2-167.2,19.3c-68.2-8.3-134-27.1-197.9-52.3c-27.7-11-57.1-12.7-86.1-14.9c-14.9-1.1-17.3-6.2-16.9-19.2
	C172.3,1015.2,171.8,979.7,171.8,944.3L171.8,944.3z"/>
<path d="M507.6,213.6c-100.7-2-186.2,81.1-187.9,182.5c-1.7,103.5,79.1,187.2,182.9,189.5C603.6,587.9,688,506,690.3,403.5
	C692.6,300.8,610.7,215.7,507.6,213.6z M536.9,500.7c-13.9,6.9-19.2,14.9-17.4,29.9c1.2,10,1,20.9-14.1,21.1
	c-14.8,0.2-15.8-9.9-14.9-20.5c1.3-15.2-2.3-24.4-18.4-31.6c-18.1-8.1-27.2-26.1-28.8-46.9c-0.7-9.1-0.5-17.8,10.4-19.8
	c10.7-2,17.5,2.6,19,14.4c0.8,5.9,2.5,12.3,5.8,17.2c7.8,11.7,18.9,17.7,33.4,14c15-3.8,24.3-13.7,25.2-29.1
	c0.9-15.5-7.7-26.3-21.7-32.1c-5.5-2.3-12.1-1.7-18.2-2.6c-26.6-3.9-47.1-22.5-52.7-48c-6.1-27.3,3.7-55.1,27.8-67.4
	c14.6-7.4,20.3-15.8,18.3-31.3c-1.4-11,1.1-20.8,14.9-20.6c14,0.2,15.5,10.8,14.1,21.3c-2,15.8,4,24,18.6,31.2
	c20.1,9.9,27.7,30,28.9,51.9c0.4,7.4-1.9,13.8-10.9,14.8c-8.3,0.8-15.6-0.4-18-10c-0.9-3.7-0.8-7.7-2-11.4
	c-5.6-17.8-17.8-27.2-36.5-24.2c-16.4,2.6-25.9,14.3-26.5,30.5c-0.7,19,10.6,30.3,29,32.7c13.1,1.8,25.8,3.3,37,11
	c18.5,12.8,27.7,30.3,28.8,55.2C566.8,470.8,557.7,490.3,536.9,500.7z"/>
<path d="M0.5,943.6c0-63.2,0.6-126.5-0.4-189.7c-0.2-15.6,4.6-19.1,19.2-18.7c34.7,1,69.4,0.9,104.1,0.1c13.3-0.3,18.9,2,18.8,17.3
	c-0.6,128-0.6,256,0,383.9c0.1,15.2-5.2,17.8-18.7,17.5c-33.9-0.9-67.9-1.2-101.8,0.1c-16.7,0.7-22.1-2.9-21.8-21
	C1.3,1070.1,0.5,1006.8,0.5,943.6L0.5,943.6z"/>
<path d="M833.7,287.3c8,0.3,12.1,5.7,15.6,12c16.7,29.4,33.9,58.5,50,88.2c10,18.5,4.7,26.3-17,27.3c-35,1.7-33.8,1.9-39.2,36.5
	C827.4,553.5,776,633.1,689.5,689.9c-8.9,5.8-17,7.7-23.9-2.3c-8.5-12.2,0.7-18.6,9.1-24.1c62.1-40.8,104.5-96.6,127.6-167.1
	c7-21.2,11.3-42.9,13.5-65.3c1.4-14-3.2-18.1-16-16.4c-3,0.4-6.2,0.1-9.2,0c-32.7-0.3-36.5-6.7-20.4-35c14.8-26,29.9-51.9,44.8-77.9
	C819.2,294.5,823.4,286.9,833.7,287.3L833.7,287.3z"/>
<path d="M177.1,513.9c-8.1-1.3-12.1-6.8-15.6-12.9c-16.9-29.2-34.3-58.2-50.7-87.8c-9.9-17.9-4.1-27.3,16.2-28.5
	c35.5-2.2,34.3-2.4,40-37.7c16.3-101.2,68-179.7,153.7-235.8c8.4-5.5,17-9.2,24.1,0.8c8.9,12.6,0,19.3-9.7,25.5
	c-75.8,49.1-119.9,119.3-137.6,207.1c-0.6,3-1.4,6-1.8,9c-2.8,20.4,6.1,30.7,26.7,31c27.2,0.4,32.6,8.8,19.7,31.7
	c-15.5,27.4-31.4,54.6-47.2,81.8C190.7,505.5,186.9,513.4,177.1,513.9L177.1,513.9z"/>
<path d="M618.3,729.6c-1.1,7.7-6,12.2-12.3,15.8c-29.4,16.8-58.5,34-88.1,50.4c-18.5,10.2-26.6,4.9-27.5-16.6c-0.1-1.5,0-3.1,0-4.6
	c-0.4-31.4-0.7-29.5-31.5-34C354.9,725.5,274.1,673,216.4,585c-5.8-8.8-7.8-16.8,2.2-23.9c10.6-7.5,17.4-1.1,22.8,7.1
	c24.8,37.8,55.4,69.7,93.5,94.5c42.1,27.5,88,43,137.6,49.5c14.1,1.9,20.6-1.2,18.1-16.3c-0.5-3-0.1-6.2-0.1-9.2
	c0.2-31.9,7.4-36.1,34.9-20.4c26.1,14.8,52,29.8,78.1,44.6C611,715.3,618.2,719.7,618.3,729.6L618.3,729.6z"/>
<path d="M503,0c13.3,0.1,15.9,7.3,16.7,16.8c1,12.9-5.5,28.9,2.9,38c8.4,9.1,25,4.5,37.8,6.8c97.8,18.2,175.7,67.2,231.5,150.3
	c6.5,9.7,12.1,19.8-0.6,27.7c-11.6,7.2-18.1-2.1-24-10.8c-50-73.6-118.9-119-206-136.8c-4.5-0.9-9.1-1.5-13.6-2.6
	c-21-5.1-30.1,0.2-28.5,24.5c2.2,32.4-6.6,36.7-34.3,20.5c-27.2-15.9-54.6-31.5-81.5-48c-15.4-9.4-15.8-20.7-0.7-30
	C432,38.3,462.1,21.3,492.1,4C496,1.8,500.6,0.9,503,0L503,0z"/>
</svg>
