<?xml version="1.0" encoding="utf-8"?>
<!-- Generator: Adobe Illustrator 24.0.0, SVG Export Plug-In . SVG Version: 6.00 Build 0)  -->
<svg version="1.1" id="Layer_1" xmlns="http://www.w3.org/2000/svg" xmlns:xlink="http://www.w3.org/1999/xlink" x="0px" y="0px"
	 viewBox="0 0 1135.8 1011.7" style="enable-background:new 0 0 1135.8 1011.7;" xml:space="preserve">
<style type="text/css">
	.st0{fill:#FEFEFE;}
	.st1{fill:#030303;}
	.st2{fill:#050505;}
</style>
<path d="M534.2,412.9c0.3,13.5,0.1,27.1,0.1,42.1c-35.4-10.9-32.5-35.9-16.7-49.6c4-3.5,9.1-7.1,14.2-4.7
	C536.5,402.9,534.1,408.7,534.2,412.9z"/>
<path d="M615.8,552.8c2.5,11.4-6.5,17.4-14.7,22.9c-8.4,5.7-13.6,5.4-13.2-6.8c0.4-11.8,0.1-23.6,0.1-36.6l0,0
	C602.5,534.4,612.9,539.6,615.8,552.8z"/>
<path d="M562.5,156c-190-0.6-346.9,155.6-346.3,344.8c0.6,189.6,155,342.8,345.3,342.8c190.3,0,345.4-154.1,345.2-342.9
	C906.5,311.7,751.6,156.6,562.5,156z M631.1,618.8c-9.5,5.9-20,11-30.7,14.1c-9.1,2.6-12,6.5-12.1,15.6c-0.1,16.1-6.8,28.9-24.9,29
	c-17.5,0.1-29.9-9.2-28.8-27.7c0.9-15-9.7-12.8-17.3-15c-41.1-12-62.4-41.7-61.2-84.2c0.5-16.4,7.3-26.3,23.5-27.6
	c17-1.4,26.9,7,28.9,24.6c1.3,11.9,1.5,24.7,13.5,32.2c7.1,4.4,12.8,5.4,12.6-6.2c-0.3-17.4-0.6-34.9,0.2-52.3
	c0.4-8.9-4.2-11.9-11.1-14.1c-12.4-3.9-23.2-11-33.6-18.5c-26-18.9-40.2-44.3-33.3-76.5c6.9-32.7,28.4-54.9,60.5-64.5
	c10.4-3.1,17.2-4.7,19-17.1c1.9-13.1,12.4-17.9,25.2-17.9c13.3,0,23.2,6.5,24.3,19.1c1.5,15.5,10.4,20.5,22.7,26
	c27.2,12.1,42.9,34.8,51.7,62.8c4.9,15.7-0.5,27.4-15.1,33.3c-13.9,5.6-25.2-0.3-32.7-12.8c-6.4-10.6-9.5-23.5-24-31
	c-0.2,5.1-0.1,7.4-0.5,9.6c-4.8,34.6,2.4,57.3,40.2,74C684,518,683.2,586.4,631.1,618.8z"/>
<path d="M998.5,566.6c-9.8,13.3-19.4,26.8-29.4,39.9c-10.5,13.8-24.2,20.1-39.1,8.8c-14.3-10.9-14.4-25.6-3.7-40
	c28.9-39,57.4-78.2,86.7-116.8c13.6-17.9,33.5-18,44.8,1.3c26,44.3,50.4,89.6,74.7,134.9c8.1,15.1,0.2,26.5-13.1,34
	c-13.9,7.8-25.4,2-33-10c-10.3-16.2-18.9-33.4-31-55.1c-10.8,94.8-40.7,175.9-93.5,248.3c-148.5,203.8-436.6,260.9-652,129
	c-90.1-55.1-155.3-131.5-197.4-228.2c-7.6-17.4-12.8-33.7,7.2-45.5c15.3-9,30.3,0.3,40.8,24c55.1,124,146.7,209,276.4,248.3
	c248,75.3,501-76,556.7-322.4c3.7-16.2,5.7-32.7,8.6-49.1C1001,567.5,999.7,567.1,998.5,566.6L998.5,566.6z"/>
<path d="M136,444.8c10.9-14.3,21.9-28.5,32.8-42.8c9.8-13,22.6-16.2,35.7-7.2c13.8,9.5,16.5,23.7,6.5,37.8
	c-29.1,40.7-58.2,81.3-88.4,121.2c-14,18.5-34.8,16.9-46.3-3.3c-24.4-42.7-47.8-85.9-71.4-129c-8.1-14.7-6.5-28.9,8.1-37.7
	c16-9.7,29.1-2.5,38.1,12.5c8.8,14.8,17.1,30,28.1,49.6c6.4-37.1,11.7-69.4,21.3-100.9c63-206.8,258-351.1,474.2-344.8
	c211.1,6.2,359.9,110,449.2,300.4c4.1,8.7,9.5,17.9,4.9,28.2c-4.6,10.3-12.1,17.4-24,18.2c-14.6,1-22.3-8.2-27.2-20
	c-17.2-41.6-38.8-80.6-68.4-114.5C791.2,77.2,643,23.4,468.3,65.1c-174.4,41.7-282.6,156-326.5,330.1c-4,15.8-6,32.1-9,48.2
	C133.9,443.9,134.9,444.3,136,444.8L136,444.8z"/>
<path class="st0" d="M534.2,412.9c0.3,13.5,0.1,27.1,0.1,42.1c-35.4-10.9-32.5-35.9-16.7-49.6c4-3.5,9.1-7.1,14.2-4.7
	C536.5,402.9,534.1,408.7,534.2,412.9z"/>
<path class="st0" d="M601.1,575.7c-8.4,5.7-13.6,5.4-13.2-6.8c0.4-11.8,0.1-23.6,0.1-36.6l0,0c14.4,2.1,24.8,7.4,27.8,20.5
	C618.3,564.1,609.3,570.1,601.1,575.7z"/>
<path class="st1" d="M534.2,412.9c0.3,13.5,0.1,27.1,0.1,42.1c-35.4-10.9-32.5-35.9-16.7-49.6c4-3.5,9.1-7.1,14.2-4.7
	C536.5,402.9,534.1,408.7,534.2,412.9z"/>
<path class="st2" d="M601.1,575.7c-8.4,5.7-13.6,5.4-13.2-6.8c0.4-11.8,0.1-23.6,0.1-36.6l0,0c14.4,2.1,24.8,7.4,27.8,20.5
	C618.3,564.1,609.3,570.1,601.1,575.7z"/>
</svg>
