<?xml version="1.0" encoding="utf-8"?>
<!-- Generator: Adobe Illustrator 24.0.0, SVG Export Plug-In . SVG Version: 6.00 Build 0)  -->
<svg version="1.1" id="Layer_1" xmlns="http://www.w3.org/2000/svg" xmlns:xlink="http://www.w3.org/1999/xlink" x="0px" y="0px"
	 viewBox="0 0 1405.5 1090.4" style="enable-background:new 0 0 1405.5 1090.4;" xml:space="preserve">
<style type="text/css">
	.st0{fill:#FEFEFE;}
	.st1{fill:#040404;}
	.st2{fill:#010101;}
</style>
<path d="M816.9,615.4L816.9,615.4c-0.9-65.1-53.2-117-116.2-115.3c-61.8,1.7-112.7,53.5-111.6,113.8
	c1.2,63.5,52.5,114.9,114.4,114.3C764.3,727.5,817.7,674.4,816.9,615.4z M704.1,683c-35.9,0.8-68.1-30.5-69.2-67.2
	c-1.1-37,29-68,66.8-68.6l0,0c37.8-0.6,68.1,28.2,69.4,66.2C772.3,648.9,740.2,682.2,704.1,683z M928.4,591.7
	c-13.9,1.4-28.1,1.1-42.1,0.1c-16.4-1.2-24.8,1.2-24.6,21.7c0.2,20.5,6.9,26.5,25.8,23.8c6.4-0.9,13.1-0.2,19.6-0.2v0
	c8.4,0,17-1,25.2,0.2c18.2,2.6,20.9-5.8,21.7-22.1C955.3,594.1,946.8,589.9,928.4,591.7z M928.4,591.7c-13.9,1.4-28.1,1.1-42.1,0.1
	c-16.4-1.2-24.8,1.2-24.6,21.7c0.2,20.5,6.9,26.5,25.8,23.8c6.4-0.9,13.1-0.2,19.6-0.2v0c8.4,0,17-1,25.2,0.2
	c18.2,2.6,20.9-5.8,21.7-22.1C955.3,594.1,946.8,589.9,928.4,591.7z M816.9,615.4L816.9,615.4c-0.9-65.1-53.2-117-116.2-115.3
	c-61.8,1.7-112.7,53.5-111.6,113.8c1.2,63.5,52.5,114.9,114.4,114.3C764.3,727.5,817.7,674.4,816.9,615.4z M704.1,683
	c-35.9,0.8-68.1-30.5-69.2-67.2c-1.1-37,29-68,66.8-68.6l0,0c37.8-0.6,68.1,28.2,69.4,66.2C772.3,648.9,740.2,682.2,704.1,683z
	 M446.7,627.5L446.7,627.5c0.9-0.3,1.9-0.4,2.6-1c1.9-1.6,2.9-3.7,3.4-5.9C450.6,622.7,448.6,625.1,446.7,627.5z M816.9,615.4
	L816.9,615.4c-0.9-65.1-53.2-117-116.2-115.3c-61.8,1.7-112.7,53.5-111.6,113.8c1.2,63.5,52.5,114.9,114.4,114.3
	C764.3,727.5,817.7,674.4,816.9,615.4z M704.1,683c-35.9,0.8-68.1-30.5-69.2-67.2c-1.1-37,29-68,66.8-68.6l0,0
	c37.8-0.6,68.1,28.2,69.4,66.2C772.3,648.9,740.2,682.2,704.1,683z M928.4,591.7c-13.9,1.4-28.1,1.1-42.1,0.1
	c-16.4-1.2-24.8,1.2-24.6,21.7c0.2,20.5,6.9,26.5,25.8,23.8c6.4-0.9,13.1-0.2,19.6-0.2v0c8.4,0,17-1,25.2,0.2
	c18.2,2.6,20.9-5.8,21.7-22.1C955.3,594.1,946.8,589.9,928.4,591.7z M928.4,591.7c-13.9,1.4-28.1,1.1-42.1,0.1
	c-16.4-1.2-24.8,1.2-24.6,21.7c0.2,20.5,6.9,26.5,25.8,23.8c6.4-0.9,13.1-0.2,19.6-0.2v0c8.4,0,17-1,25.2,0.2
	c18.2,2.6,20.9-5.8,21.7-22.1C955.3,594.1,946.8,589.9,928.4,591.7z M816.9,615.3c-0.9-65.1-53.2-117-116.2-115.3
	c-61.8,1.7-112.7,53.5-111.6,113.8c1.2,63.5,52.5,114.9,114.4,114.3C764.3,727.5,817.7,674.4,816.9,615.3L816.9,615.3z M704.1,683
	c-35.9,0.8-68.1-30.5-69.2-67.2c-1.1-37,29-68,66.8-68.6l0,0c37.8-0.6,68.1,28.2,69.4,66.2C772.3,648.9,740.2,682.2,704.1,683z
	 M446.7,627.5c0.9-0.3,1.9-0.5,2.6-1c1.9-1.6,2.9-3.7,3.4-5.9C450.6,622.7,448.6,625.1,446.7,627.5L446.7,627.5z M1111.8,456.6
	c0-44.5-2-46.6-45.5-46.6c-121,0-242.1,0-363.1,0l0,0c-123.8,0-247.7-0.1-371.5,0.1c-32.8,0-37.2,4.7-37.4,37.6
	c-0.1,26.3-0.8,52.6,0.3,78.8c0.7,16-1.6,24-20.9,21.9c-50-5.6-96.6,8-140.7,30.4c-35.4,17.9-72.1,33.1-111.9,34
	c-27.9,0.6-19.5,18.2-20.2,32.3c-1.2,22.5,15.8,14,25.6,13c46.2-4.5,88.9-20.3,130.7-40.2c84.9-40.3,165.3-31.6,239.6,26.6
	c38.4,30.1,76.5,60.4,114.5,91c37.9,30.5,41.6,61.7,15.7,103.1c-9.3,14.9-15.6,16.5-30,6.5c-50-34.7-101.7-67-151.2-102.3
	c-17.1-12.2-21.6-3.6-29,8.5c-6.9,11.2-15.7,18.7,2.7,30.2c57.1,35.9,112.9,73.8,168.4,112c16.8,11.6,34.4,17.5,54.1,20.6
	c116.6,18.3,233.1,37.3,349.7,55.5c11.8,1.8,22,5.2,29.3,14.5c9.2,11.8,12.9,24.7,6,39.3c-8.3,17.6-22.7,23.2-41.2,23.2
	c-104.1-0.2-208.3-0.8-312.4,0.1c-77.4,0.7-150.1-14.4-218.8-51.3c-46.9-25.2-94.6-49.8-144.2-68.7
	c-59.7-22.7-123.8-16.7-186.6-17.7C5.2,908.6,0.3,913.7,0,932.2c-0.3,20.3,6.4,25,25.5,24.5c79.8-2.2,159.3-3.9,231.7,40.3
	c31.8,19.4,66.4,34.3,100.2,50.3c46.8,22.1,95,41.1,147.4,41.7c128.5,1.4,257.1,1.6,385.6,1.4c47.4-0.1,81.5-31.8,85-76
	c3.4-43-26.8-80.8-72.6-89.1c-35.9-6.5-72.1-11.6-108.2-17.3c-71.2-11.3-142.5-22.5-213.7-34.1c-6.2-1-16.6,1.8-16.1-10
	c0.9-18.9,29.6-44.6,49.5-44.6c152.9,0,305.9,0,458.8,0c35.3,0,38.6-3.4,38.6-38.9C1111.9,672.4,1111.9,564.5,1111.8,456.6z
	 M339.5,522.5c0.9-7.3,0.1-14.9,0.1-22.3c0-45.1,0-45.6,44.5-44.9c13.4,0.2,32.8-7.5,38.9,4.4c7.3,14.5-8,29-16.9,41.6
	c-11.4,16.3-27.4,27.2-45.4,35.8C343.2,545.6,337.2,541.5,339.5,522.5z M1051.7,773.4c-23.4-0.5-46.7-0.2-71.9-0.2
	c11-48.9,40.8-78.1,86.7-86.2c0,24.5-0.6,48.6,0.2,72.8C1067.2,771.7,1061.9,773.6,1051.7,773.4z M1054.8,642.5
	c-64.2,15.8-104,56.1-119.9,120c-2.8,11.3-10.6,10.8-19.3,10.8c-104.1-0.1-208.3-0.1-312.4-0.1c-7.3,0-15.5,1.8-18-8.5
	c-11.1-45.1-49.5-66.4-81.2-93.5c-12.8-10.9-25.7-21.6-38.6-32.4c21.4-0.5,42.8-1.4,64.2-1.4c8.8,0,15.4-2,13.8-12.1
	c-1.8-11,7.6-29.5-6.3-31.7c-25.4-4.1-52.4-3.9-77.9,0c-12.9,2-4.1,16.7-6.4,27c-2.1,2.2-4.1,4.5-6,7c-18-19.3-39.8-33.8-63.1-49.2
	c44.3-25.9,76.6-60.5,87.4-111.4c2.3-10.6,9.6-12,19-12c141.7,0.2,283.3,0.2,425-0.1c12.5,0,18.3,3.9,21.5,16.3
	c16,61.7,56,100.3,117.3,115.7c15.7,3.9,13.7,13.6,12.4,23C1064.7,621.2,1074.9,637.5,1054.8,642.5z M1061,540
	c-14.4,5.3-30.6-9.4-43.8-19.9c-2.9-2.3-5.7-4.8-8.1-7.7c-13-15.7-32.9-32.9-25.4-52.2c5.1-13.3,30.3-4.4,46.4-4.8
	c36.4-1,36.5-0.3,36.5,46.8h0C1063.3,513.7,1074.4,535.1,1061,540z M928.4,591.7c-13.9,1.4-28.1,1.1-42.1,0.1
	c-16.4-1.2-24.8,1.2-24.6,21.7c0.2,20.5,6.9,26.5,25.8,23.8c6.4-0.9,13.1-0.2,19.6-0.2v0c8.4,0,17-1,25.2,0.2
	c18.2,2.6,20.9-5.8,21.7-22.1C955.3,594.1,946.8,589.9,928.4,591.7z M816.9,615.3c-0.9-65.1-53.2-117-116.2-115.3
	c-61.8,1.7-112.7,53.5-111.6,113.8c1.2,63.5,52.5,114.9,114.4,114.3C764.3,727.5,817.7,674.4,816.9,615.3L816.9,615.3z M704.1,683
	c-35.9,0.8-68.1-30.5-69.2-67.2c-1.1-37,29-68,66.8-68.6l0,0c37.8-0.6,68.1,28.2,69.4,66.2C772.3,648.9,740.2,682.2,704.1,683z
	 M446.7,627.5L446.7,627.5c0.9-0.3,1.9-0.4,2.6-1c1.9-1.6,2.9-3.7,3.4-5.9C450.6,622.7,448.6,625.1,446.7,627.5z M816.9,615.4
	L816.9,615.4c-0.9-65.1-53.2-117-116.2-115.3c-61.8,1.7-112.7,53.5-111.6,113.8c1.2,63.5,52.5,114.9,114.4,114.3
	C764.3,727.5,817.7,674.4,816.9,615.4z M704.1,683c-35.9,0.8-68.1-30.5-69.2-67.2c-1.1-37,29-68,66.8-68.6l0,0
	c37.8-0.6,68.1,28.2,69.4,66.2C772.3,648.9,740.2,682.2,704.1,683z M928.4,591.7c-13.9,1.4-28.1,1.1-42.1,0.1
	c-16.4-1.2-24.8,1.2-24.6,21.7c0.2,20.5,6.9,26.5,25.8,23.8c6.4-0.9,13.1-0.2,19.6-0.2v0c8.4,0,17-1,25.2,0.2
	c18.2,2.6,20.9-5.8,21.7-22.1C955.3,594.1,946.8,589.9,928.4,591.7z M928.4,591.7c-13.9,1.4-28.1,1.1-42.1,0.1
	c-16.4-1.2-24.8,1.2-24.6,21.7c0.2,20.5,6.9,26.5,25.8,23.8c6.4-0.9,13.1-0.2,19.6-0.2v0c8.4,0,17-1,25.2,0.2
	c18.2,2.6,20.9-5.8,21.7-22.1C955.3,594.1,946.8,589.9,928.4,591.7z M816.9,615.4L816.9,615.4c-0.9-65.1-53.2-117-116.2-115.3
	c-61.8,1.7-112.7,53.5-111.6,113.8c1.2,63.5,52.5,114.9,114.4,114.3C764.3,727.5,817.7,674.4,816.9,615.4z M704.1,683
	c-35.9,0.8-68.1-30.5-69.2-67.2c-1.1-37,29-68,66.8-68.6l0,0c37.8-0.6,68.1,28.2,69.4,66.2C772.3,648.9,740.2,682.2,704.1,683z
	 M446.7,627.5L446.7,627.5c0.9-0.3,1.9-0.4,2.6-1c1.9-1.6,2.9-3.7,3.4-5.9C450.6,622.7,448.6,625.1,446.7,627.5z M816.9,615.4
	L816.9,615.4c-0.9-65.1-53.2-117-116.2-115.3c-61.8,1.7-112.7,53.5-111.6,113.8c1.2,63.5,52.5,114.9,114.4,114.3
	C764.3,727.5,817.7,674.4,816.9,615.4z M704.1,683c-35.9,0.8-68.1-30.5-69.2-67.2c-1.1-37,29-68,66.8-68.6l0,0
	c37.8-0.6,68.1,28.2,69.4,66.2C772.3,648.9,740.2,682.2,704.1,683z M928.4,591.7c-13.9,1.4-28.1,1.1-42.1,0.1
	c-16.4-1.2-24.8,1.2-24.6,21.7c0.2,20.5,6.9,26.5,25.8,23.8c6.4-0.9,13.1-0.2,19.6-0.2v0c8.4,0,17-1,25.2,0.2
	c18.2,2.6,20.9-5.8,21.7-22.1C955.3,594.1,946.8,589.9,928.4,591.7z M928.4,591.7c-13.9,1.4-28.1,1.1-42.1,0.1
	c-16.4-1.2-24.8,1.2-24.6,21.7c0.2,20.5,6.9,26.5,25.8,23.8c6.4-0.9,13.1-0.2,19.6-0.2v0c8.4,0,17-1,25.2,0.2
	c18.2,2.6,20.9-5.8,21.7-22.1C955.3,594.1,946.8,589.9,928.4,591.7z M816.9,615.4L816.9,615.4c-0.9-65.1-53.2-117-116.2-115.3
	c-61.8,1.7-112.7,53.5-111.6,113.8c1.2,63.5,52.5,114.9,114.4,114.3C764.3,727.5,817.7,674.4,816.9,615.4z M704.1,683
	c-35.9,0.8-68.1-30.5-69.2-67.2c-1.1-37,29-68,66.8-68.6l0,0c37.8-0.6,68.1,28.2,69.4,66.2C772.3,648.9,740.2,682.2,704.1,683z"/>
<path d="M1405.5,603.6c-4.1-184.7-83.8-329.7-231.8-437.1C1067,89.2,945.1,62.6,814.8,68.1c-39.7,1.7-39.8,0.3-43.3-39.2
	c-2.2-25.3-15.3-35.5-37.7-24.6C644.8,47.8,556.2,92.2,468,137.5c-21.6,11.1-20.7,32.2,1,43.2c88.4,44.8,177.1,89.1,266,132.8
	c20.1,9.9,32.6,1.7,36.6-19.4c2.8-14.8-8.8-35.3,6.8-43.2c12.7-6.4,31.3-1.5,47.2-1.5c14.1,0,28.2-0.2,42.2,0.2
	c91.6,2.5,172.1,33.5,239.5,96.1c72.7,67.6,111.4,151.4,117.1,250.5c2,35.1,7.6,40.8,41.8,40.9c16.9,0.1,33.8,0,50.7,0v0
	c18.8,0,37.6-0.7,56.3,0.2C1397.4,638.4,1406,627.8,1405.5,603.6z M1292.4,592.4c-15.6-0.1-22.2-2.5-24-20.8
	c-20.4-204.5-193.8-363.5-398.8-367c-34.7-0.6-69.5,1-104.1-0.5c-26.7-1.2-41.9,6.7-39.5,36c0.8,10.2,0.9,20-14.7,12
	c-59.7-30.4-119.6-60.3-184.3-92.8l0,0c63.4-31.9,121.2-60.6,178.6-90c14.3-7.3,22.2-9,20.7,11.4c-2,26.6,13.6,33,37.2,32.9
	c70.2-0.2,140.4-2.8,210.1,11.6c185.5,38.5,350,209.6,379.8,396.8C1364.7,593.5,1364.7,593,1292.4,592.4z"/>
<path class="st0" d="M446.7,627.5L446.7,627.5L446.7,627.5C446.7,627.5,446.7,627.5,446.7,627.5z"/>
<path class="st0" d="M543.3,625.2c1.7,10.1-4.9,12.1-13.8,12.1c-21.4,0.1-42.8,0.9-64.2,1.4c13-13.1,29.7-6.9,44.8-8.7
	c10.1-1.2,22.1,0,22.8-14.4c0.7-15.3-11.9-12.9-21.7-14.9c-24.5-5-43.2,3.3-58.6,19.7c2.3-10.3-6.4-25.1,6.4-27
	c25.5-3.9,52.5-4.1,77.9,0C550.9,595.8,541.5,614.2,543.3,625.2z"/>
<path class="st0" d="M816.9,615.4L816.9,615.4c-0.9-65.1-53.2-117-116.2-115.3c-61.8,1.7-112.7,53.5-111.6,113.8
	c1.2,63.5,52.5,114.9,114.4,114.3C764.3,727.5,817.7,674.4,816.9,615.4z M704.1,683c-35.9,0.8-68.1-30.5-69.2-67.2
	c-1.1-37,29-68,66.8-68.6l0,0c37.8-0.6,68.1,28.2,69.4,66.2C772.3,648.9,740.2,682.2,704.1,683z"/>
<path class="st0" d="M954.1,615.3c-0.9,16.3-3.6,24.7-21.7,22.1c-8.3-1.2-16.8-0.2-25.2-0.2v0c-6.6,0-13.2-0.8-19.6,0.2
	c-18.9,2.7-25.6-3.3-25.8-23.8c-0.2-20.5,8.2-22.9,24.6-21.7c14,1,28.2,1.3,42.1-0.1C946.8,589.9,955.3,594.1,954.1,615.3z"/>
<path class="st1" d="M543.3,625.2c1.7,10.1-4.9,12.1-13.8,12.1c-21.4,0.1-42.8,0.9-64.2,1.4c-6.2-3.8-12.4-7.5-18.7-11.3
	c0.9-0.3,1.9-0.5,2.6-1c1.9-1.6,2.9-3.7,3.4-5.9c2.3-10.3-6.4-25.1,6.4-27c25.5-3.9,52.5-4.1,77.9,0
	C550.9,595.8,541.5,614.2,543.3,625.2z"/>
<path class="st2" d="M816.9,615.4L816.9,615.4c-0.9-65.1-53.2-117-116.2-115.3c-61.8,1.7-112.7,53.5-111.6,113.8
	c1.2,63.5,52.5,114.9,114.4,114.3C764.3,727.5,817.7,674.4,816.9,615.4z M704.1,683c-35.9,0.8-68.1-30.5-69.2-67.2
	c-1.1-37,29-68,66.8-68.6l0,0c37.8-0.6,68.1,28.2,69.4,66.2C772.3,648.9,740.2,682.2,704.1,683z"/>
<path class="st1" d="M954.1,615.3c-0.9,16.3-3.6,24.7-21.7,22.1c-8.3-1.2-16.8-0.2-25.2-0.2v0c-6.6,0-13.2-0.8-19.6,0.2
	c-18.9,2.7-25.6-3.3-25.8-23.8c-0.2-20.5,8.2-22.9,24.6-21.7c14,1,28.2,1.3,42.1-0.1C946.8,589.9,955.3,594.1,954.1,615.3z"/>
</svg>
