<?xml version="1.0" encoding="utf-8"?>
<!-- Generator: Adobe Illustrator 24.0.0, SVG Export Plug-In . SVG Version: 6.00 Build 0)  -->
<svg version="1.1" id="Layer_1" xmlns="http://www.w3.org/2000/svg" xmlns:xlink="http://www.w3.org/1999/xlink" x="0px" y="0px"
	 viewBox="0 0 1171 1129.2" style="enable-background:new 0 0 1171 1129.2;" xml:space="preserve">
<style type="text/css">
	.st0{fill:#FEFEFE;}
	.st1{fill:#0C0C0C;}
	.st2{fill:#070707;}
	.st3{fill:#090909;}
	.st4{fill:#0B0B0B;}
	.st5{fill:#060606;}
</style>
<path d="M288.2,536.9c0.9,11.9-5.7,19.9-17,20.8c-11.8,1-17.7-7.6-20.2-18.7v0c1.7-11,6.9-19,19-19.2
	C280.9,519.8,287.4,526.1,288.2,536.9z"/>
<path d="M367.5,505.9L367.5,505.9c-1,11.7-6.7,19.9-18.4,20.3c-12,0.4-18.6-8.1-18.8-19.3c-0.2-10.3,5.8-17.7,16.8-18.6
	C359.6,487.3,365.2,494.9,367.5,505.9z"/>
<path d="M446,476.1c1.1,11.4-6.3,18.5-18.1,21.1v0c-10.9-1.5-18.3-7-18.7-19.1c-0.4-11,5.4-17.9,16.1-19.2
	C437.5,457.5,444.9,465,446,476.1z"/>
<path d="M745.5,458.8c-12-1.2-19.7,6.2-20.5,17.5c-0.9,11.4,6.3,18.6,18.4,20.9h0c10.7-1.7,18.3-7.2,18.5-19.4
	C762.1,466.9,756.1,459.9,745.5,458.8z M820.6,488.2c-10.9,1-16.9,8-16.7,18.7c0.3,11.6,6.9,19.6,18.8,19.2
	c11.9-0.3,17.1-9,18.6-20.2C838.5,495.1,833.1,487.1,820.6,488.2z M901.3,519.9c-10.8-0.3-17.5,5.7-18.4,16.7
	c-1,11.9,5.2,20,16.6,21.1c11.7,1.1,17.9-7.2,20.5-18.7C918.3,528.5,913.5,520.2,901.3,519.9z M901.3,519.9
	c-10.8-0.3-17.5,5.7-18.4,16.7c-1,11.9,5.2,20,16.6,21.1c11.7,1.1,17.9-7.2,20.5-18.7C918.3,528.5,913.5,520.2,901.3,519.9z
	 M820.6,488.2c-10.9,1-16.9,8-16.7,18.7c0.3,11.6,6.9,19.6,18.8,19.2c11.9-0.3,17.1-9,18.6-20.2
	C838.5,495.1,833.1,487.1,820.6,488.2z M745.5,458.8c-12-1.2-19.7,6.2-20.5,17.5c-0.9,11.4,6.3,18.6,18.4,20.9h0
	c10.7-1.7,18.3-7.2,18.5-19.4C762.1,466.9,756.1,459.9,745.5,458.8z M745.5,458.8c-12-1.2-19.7,6.2-20.5,17.5
	c-0.9,11.4,6.3,18.6,18.4,20.9h0c10.7-1.7,18.3-7.2,18.5-19.4C762.1,466.9,756.1,459.9,745.5,458.8z M820.6,488.2
	c-10.9,1-16.9,8-16.7,18.7c0.3,11.6,6.9,19.6,18.8,19.2c11.9-0.3,17.1-9,18.6-20.2C838.5,495.1,833.1,487.1,820.6,488.2z
	 M901.3,519.9c-10.8-0.3-17.5,5.7-18.4,16.7c-1,11.9,5.2,20,16.6,21.1c11.7,1.1,17.9-7.2,20.5-18.7
	C918.3,528.5,913.5,520.2,901.3,519.9z M901.3,519.9c-10.8-0.3-17.5,5.7-18.4,16.7c-1,11.9,5.2,20,16.6,21.1
	c11.7,1.1,17.9-7.2,20.5-18.7C918.3,528.5,913.5,520.2,901.3,519.9z M820.6,488.2c-10.9,1-16.9,8-16.7,18.7
	c0.3,11.6,6.9,19.6,18.8,19.2c11.9-0.3,17.1-9,18.6-20.2C838.5,495.1,833.1,487.1,820.6,488.2z M745.5,458.8
	c-12-1.2-19.7,6.2-20.5,17.5c-0.9,11.4,6.3,18.6,18.4,20.9h0c10.7-1.7,18.3-7.2,18.5-19.4C762.1,466.9,756.1,459.9,745.5,458.8z
	 M1170.9,832.5c-1.1-13.6-9.9-15.9-21.3-15.8c-18.7,0.3-34.8,7.3-50.1,17.4c-15.8,10.5-27.4,25.5-40.9,38.5
	c-22.4,21.6-47.6,26.9-70.4,16.7c-16.5-7.4-22.9-15.9-15.7-35.9c41.2-115.2,80.8-231,120.9-346.6c9.4-27.1,7.3-31.5-19.4-41.7
	c-36.4-14-72.6-28.5-109.2-41.6c-12.2-4.4-16.5-10.1-16.3-23.3c0.9-48.5,0.3-97,0.4-145.5c0.1-17-4.4-29-24.7-29.1
	c-14.7-0.1-34,6.6-42.8-2.8c-9.6-10.3-2.1-29.7-3.1-45.1c-0.2-2.3,0-4.7,0-7c-0.4-26.5-5.1-31.6-31.6-31.6
	c-58.7-0.2-117.4-0.6-176,0.3c-14.8,0.2-18.5-4.2-18-18.4c1.1-28.9,0.4-57.9,0.3-86.8c-0.1-31.9-1.7-33.6-32.5-33.6
	c-25.8,0-51.7,0.9-77.4-0.3c-18.7-0.8-25.3,7.4-25.1,24.9c0.3,32.9-0.5,65.7,0.4,98.6c0.3,12.5-3.7,15.9-15.9,15.6
	c-30.5-0.8-61-0.3-91.5-0.3l0,0c-30.5,0-61,0.3-91.5-0.1c-18.8-0.2-27.4,8.7-26.7,27.3c0.3,7,0,14.1,0,21.1c0,25.5-13,38.4-39,38.6
	c-26.7,0.2-31.4,4.7-31.5,31.3c-0.2,47.7-0.7,95.5,0.3,143.2c0.3,14.2-4.3,20.5-17.5,25.2c-34.5,12.3-68.4,26.2-102.6,39.4
	c-28.4,11-29.5,13.6-19.2,43.3C123.1,623,162.6,738,203.1,852.7c5.7,16.1,2.2,23.7-12,31.5c-29.3,16-53.5,13.6-78.3-11.1
	c-15.5-15.4-30.2-31.6-49.1-43.4c-13-8.1-26.7-12.5-41.9-12.9c-11.3-0.3-20.3,1.7-21.6,15.4c-1.2,13.6,5.4,21.3,18.4,21.9
	c20.6,0.8,34.8,12.3,48.1,25.9c6.6,6.7,12.9,13.6,19.8,20c45.6,42.7,95.5,43.4,141.9,1.8c8.7-7.8,16.5-16.6,24.9-24.9
	c31.3-30.9,62.3-31.1,94.4-0.8c13,12.3,25.2,25.9,39.5,36.5c38.2,28.4,82,26.5,118.3-4.3c11.9-10.1,22.3-21.9,33.5-32.8
	c29.9-29,60.3-29.5,90.8-1.3c14.3,13.3,26.6,28.6,42.9,39.8c38.5,26.6,83.5,24.4,118.5-6.8c12.2-10.9,23.1-23.4,35.1-34.5
	c26.6-24.7,56.6-25.4,84.1-2c9.5,8.1,17.5,17.9,26.6,26.4c17.2,16.3,35.7,29.7,60.3,33.5c41.1,6.4,70.7-12.7,96.8-40.9
	c16.6-17.9,32.9-35.6,60.2-36.4C1166.4,853.2,1171.9,844.8,1170.9,832.5z M560.8,39.1c14.2-5.5,32.1-2,48.4-1.4
	c8,0.3,6,7.6,6.1,12.6c0.2,12.4,0.1,24.9,0.1,37.3c0,7.8-1.2,15.8,0.2,23.3c4.6,24.8-6.7,29.9-29.2,28.5
	c-30.5-1.9-30.6-0.5-30.6-31.4c0-11.7-0.8-23.4,0.2-34.9C557.1,61.3,549.1,43.6,560.8,39.1z M330.3,203.6
	c1.3-14.2-4.1-28.4,20.9-27.9c78.9,1.7,157.8,0.6,236.7,0.6c77.4,0,154.7,1.1,232.1-0.6c25.1-0.6,19.6,13.8,20.9,27.9
	c1.5,16.4-2,22.7-20.9,22.6c-156.3-0.9-312.6-0.9-468.8,0C332.3,226.3,328.8,220,330.3,203.6z M552.2,823.3
	c-21.2,6.7-37.1,22.4-52.1,38.6c-40.3,43.5-71.1,43.7-112.6,1.2c-24.4-24.9-49.5-47.7-88.1-46.8c-23.1,0.5-42,10.3-61.7,22.7
	c-38.3-110.5-76.2-220-114.3-329.5c-3.5-10,0.4-13.3,9.2-16.7c139-53.3,278-106.7,416.7-160.9c17.7-6.9,17.6,0.6,17.5,13.8
	c-0.2,105.6-0.1,211.3-0.1,316.9c0,46.2-0.2,92.3,0.2,138.5C566.9,812.6,565.1,819.3,552.2,823.3z M567.5,285.8
	c-95.1,37.1-190.4,73.3-285.7,109.8c-6.4,2.5-12.9,4.8-21.8,8h0c0-44.1,0.5-84.8-0.3-125.4c-0.3-13.2,4.9-15.2,16.3-15.2
	c206.4,0.3,412.8,0.3,619.1-0.1c14.2,0,16.5,5.3,16.2,17.7c-0.7,33.6-1,67.3,0.1,100.8c0.5,17.5-2.6,21.2-20.3,14.3
	c-95.8-37.3-192.2-73.1-288.1-110.2C590.2,280.6,580.1,280.9,567.5,285.8z M919.1,832c-39.5-27.3-87.2-22-122.3,18.4
	c-50.6,58.2-93.8,57.8-138.1,0.2c-7.7-10.1-20-19.6-31.9-22.9c-22.4-6.1-22.7-20.3-22.5-38.6c0.7-72.7,0.3-145.5,0.3-218.2l0,0
	c0-73.5,0.4-147-0.3-220.5c-0.2-18.2,1.4-25,22.4-16.8c135.8,52.8,272,104.7,408.3,156c18,6.8,20.4,13.7,13.9,31.8
	c-35.8,99.7-70.1,200-104.3,300.2C939.5,836.1,937.4,844.6,919.1,832z M901.3,519.9c-10.8-0.3-17.5,5.7-18.4,16.7
	c-1,11.9,5.2,20,16.6,21.1c11.7,1.1,17.9-7.2,20.5-18.7C918.3,528.5,913.5,520.2,901.3,519.9z M820.6,488.2
	c-10.9,1-16.9,8-16.7,18.7c0.3,11.6,6.9,19.6,18.8,19.2c11.9-0.3,17.1-9,18.6-20.2C838.5,495.1,833.1,487.1,820.6,488.2z
	 M745.5,458.8c-12-1.2-19.7,6.2-20.5,17.5c-0.9,11.4,6.3,18.6,18.4,20.9h0c10.7-1.7,18.3-7.2,18.5-19.4
	C762.1,466.9,756.1,459.9,745.5,458.8z M745.5,458.8c-12-1.2-19.7,6.2-20.5,17.5c-0.9,11.4,6.3,18.6,18.4,20.9h0
	c10.7-1.7,18.3-7.2,18.5-19.4C762.1,466.9,756.1,459.9,745.5,458.8z M820.6,488.2c-10.9,1-16.9,8-16.7,18.7
	c0.3,11.6,6.9,19.6,18.8,19.2c11.9-0.3,17.1-9,18.6-20.2C838.5,495.1,833.1,487.1,820.6,488.2z M901.3,519.9
	c-10.8-0.3-17.5,5.7-18.4,16.7c-1,11.9,5.2,20,16.6,21.1c11.7,1.1,17.9-7.2,20.5-18.7C918.3,528.5,913.5,520.2,901.3,519.9z
	 M901.3,519.9c-10.8-0.3-17.5,5.7-18.4,16.7c-1,11.9,5.2,20,16.6,21.1c11.7,1.1,17.9-7.2,20.5-18.7
	C918.3,528.5,913.5,520.2,901.3,519.9z M820.6,488.2c-10.9,1-16.9,8-16.7,18.7c0.3,11.6,6.9,19.6,18.8,19.2
	c11.9-0.3,17.1-9,18.6-20.2C838.5,495.1,833.1,487.1,820.6,488.2z M745.5,458.8c-12-1.2-19.7,6.2-20.5,17.5
	c-0.9,11.4,6.3,18.6,18.4,20.9h0c10.7-1.7,18.3-7.2,18.5-19.4C762.1,466.9,756.1,459.9,745.5,458.8z"/>
<path d="M1009.1,1128c-29.9,1.4-52.9-13.9-73.7-33.9c-7.3-7-13.5-15.2-20.8-22.3c-27.2-26-60.1-26.3-88-0.9
	c-9.2,8.4-17.4,18-26.5,26.6c-44.4,42.3-102.4,42-146.5-0.6c-63.3-61.2-73.3-61.2-136.6-0.3c-45.5,43.8-105.5,43.1-150-1.9
	c-4.4-4.4-8.4-9.3-12.6-13.9c-34.8-37.9-69-38.6-104.5-2.3c-6,6.2-11.9,12.5-18,18.5c-44.3,42.6-102.7,43.2-146.2,0.2
	c-21.1-20.9-39.3-44.4-72.7-46.8c-10.5-0.7-14-11.2-12.8-21.8c1.4-12.2,9.4-14.8,20-14.7c14.4,0.2,27.9,3.3,40.2,10.9
	c14,8.7,26.7,19,38.2,30.8c49.1,50.3,73.4,50,122-1.5c50.4-53.5,105-54.8,157.1-3.6c6.7,6.6,13,13.6,19.7,20.1
	c28.9,28.1,58.5,28.6,89,2c14.7-12.8,26.5-28.6,42.7-40c36-25.3,75.2-25.8,111.1-0.5c14.2,10,26,22.4,38.1,34.7
	c33.1,33.6,63.3,34.1,97.5,1.5c7.3-7,13.8-15,21.1-22c43.7-41.6,98.2-42.4,142.8-2.1c9.3,8.4,17.5,17.9,26.5,26.6
	c28.8,27.8,59.4,28.5,89.2,1.9c14-12.5,25-27.9,40.6-38.8c17.2-12,35.9-18.7,56.8-19.2c11-0.2,17.5,5.6,18.1,17.1
	c0.6,10.9-3.8,19.6-15.1,19.8c-28.2,0.6-45.2,18.7-62.3,37.2C1070.9,1113.2,1044.9,1130.3,1009.1,1128L1009.1,1128z"/>
<path class="st0" d="M761.9,477.8c-0.2,12.1-7.8,17.6-18.5,19.4h0c-12.1-2.3-19.3-9.5-18.4-20.9c0.8-11.2,8.5-18.6,20.5-17.5
	C756.1,459.9,762.1,466.9,761.9,477.8z"/>
<path class="st0" d="M841.3,506c-1.5,11.1-6.7,19.9-18.6,20.2c-11.9,0.3-18.5-7.6-18.8-19.2c-0.2-10.7,5.8-17.7,16.7-18.7
	C833.1,487.1,838.5,495.1,841.3,506z"/>
<path class="st0" d="M919.9,539c-2.6,11.5-8.8,19.8-20.5,18.7c-11.3-1.1-17.5-9.2-16.6-21.1c0.9-10.9,7.6-16.9,18.4-16.7
	C913.5,520.2,918.3,528.5,919.9,539z"/>
<path class="st0" d="M288.2,536.9c0.9,11.9-5.7,19.9-17,20.8c-11.8,1-17.7-7.6-20.2-18.7v0c1.7-11,6.9-19,19-19.2
	C280.9,519.8,287.4,526.1,288.2,536.9z"/>
<path class="st0" d="M367.5,505.9L367.5,505.9c-1,11.7-6.7,19.9-18.4,20.3c-12,0.4-18.6-8.1-18.8-19.3c-0.2-10.3,5.8-17.7,16.8-18.6
	C359.6,487.3,365.2,494.9,367.5,505.9z"/>
<path class="st0" d="M427.9,497.2L427.9,497.2c-10.9-1.5-18.3-7-18.7-19.1c-0.4-11,5.4-17.9,16.1-19.2c12.2-1.4,19.6,6.2,20.7,17.2
	C447.1,487.5,439.7,494.5,427.9,497.2z"/>
<path class="st1" d="M761.9,477.8c-0.2,12.1-7.8,17.6-18.5,19.4h0c-12.1-2.3-19.3-9.5-18.4-20.9c0.8-11.2,8.5-18.6,20.5-17.5
	C756.1,459.9,762.1,466.9,761.9,477.8z"/>
<path class="st2" d="M841.3,506c-1.5,11.1-6.7,19.9-18.6,20.2c-11.9,0.3-18.5-7.6-18.8-19.2c-0.2-10.7,5.8-17.7,16.7-18.7
	C833.1,487.1,838.5,495.1,841.3,506z"/>
<path class="st3" d="M919.9,539c-2.6,11.5-8.8,19.8-20.5,18.7c-11.3-1.1-17.5-9.2-16.6-21.1c0.9-10.9,7.6-16.9,18.4-16.7
	C913.5,520.2,918.3,528.5,919.9,539z"/>
<path class="st4" d="M427.9,497.2L427.9,497.2c-10.9-1.5-18.3-7-18.7-19.1c-0.4-11,5.4-17.9,16.1-19.2c12.2-1.4,19.6,6.2,20.7,17.2
	C447.1,487.5,439.7,494.5,427.9,497.2z"/>
<path class="st5" d="M367.5,505.9c-1.1,11.7-6.7,19.9-18.4,20.3c-12,0.4-18.6-8.1-18.8-19.3c-0.2-10.3,5.8-17.7,16.8-18.6
	C359.6,487.3,365.2,494.9,367.5,505.9L367.5,505.9z"/>
<path class="st3" d="M271.2,557.7c-11.8,1-17.7-7.6-20.2-18.7v0c1.7-11,6.9-19,19-19.2c10.9-0.1,17.3,6.2,18.1,17
	C289.1,548.8,282.5,556.8,271.2,557.7z"/>
</svg>
