<?xml version="1.0" encoding="utf-8"?>
<!-- Generator: Adobe Illustrator 24.0.0, SVG Export Plug-In . SVG Version: 6.00 Build 0)  -->
<svg version="1.1" id="Layer_1" xmlns="http://www.w3.org/2000/svg" xmlns:xlink="http://www.w3.org/1999/xlink" x="0px" y="0px"
	 viewBox="0 0 1200.9 1202.5" style="enable-background:new 0 0 1200.9 1202.5;" xml:space="preserve">
<style type="text/css">
	.st0{fill:#FEFEFE;}
	.st1{fill:#010101;}
</style>
<path d="M775.4,590.5c-0.4,39.7,0.5,39.7-38.3,39.7h-36.1c-16.8,0-33.8,1.4-50.4-0.4c-19.3-2.1-22.4,6.2-21.8,23.1
	c1.2,35.2-0.4,70.5,0.7,105.7c0.5,15.3-4.5,18.5-18.9,18.5c-40.3-0.3-40.3,0.4-40.3-40c0-28.8-1.1-57.7,0.4-86.5
	c0.9-17.5-5.5-21.4-21.7-20.8c-35.2,1.2-70.5-0.3-105.7,0.7c-14.2,0.4-19.3-2.8-19.2-18.3c0.4-39.7-0.5-39.7,38.3-39.7
	c28,0,56.2-1.5,84,0.5c21.1,1.5,25.2-6.5,24.3-25.6c-1.5-34.4,0.4-68.9-0.8-103.3c-0.5-15.3,4.5-18.6,18.9-18.5
	c40.3,0.3,40.3-0.5,40.3,39.9c0,28.8,1.1,57.7-0.4,86.5c-0.9,17.5,5.5,21.4,21.7,20.8c35.2-1.2,70.5,0.3,105.7-0.7
	C770.4,571.8,775.6,575,775.4,590.5z"/>
<path d="M599.3,0C267.4-0.7-11.3,282.5,0.4,600.5c-7.9,336.9,279.8,603.5,600.2,602c337.5-1.6,600.6-283.6,600.3-601.8
	C1200.5,280,932.8,0.7,599.3,0z M919.1,759.7c-1.8,84-77,159-161.3,160.8c-105.6,2.3-211.3,2.3-316.8,0
	c-84.5-1.8-157.8-76.7-160.7-161.2c-1.8-52.7-0.3-105.6-0.3-158.4h-0.5c0-49.6-0.3-99.2,0.1-148.8c0.7-91.4,72.9-168.1,164.1-170
	c104-2.2,208-2.1,312,0c88,1.7,161.5,74.9,163.4,163.2C921.4,550,921.4,654.9,919.1,759.7z"/>
<path class="st0" d="M775.4,590.5c-0.4,39.7,0.5,39.7-38.3,39.7h-36.1c-16.8,0-33.8,1.4-50.4-0.4c-19.3-2.1-22.4,6.2-21.8,23.1
	c1.2,35.2-0.4,70.5,0.7,105.7c0.5,15.3-4.5,18.5-18.9,18.5c-40.3-0.3-40.3,0.4-40.3-40c0-28.8-1.1-57.7,0.4-86.5
	c0.9-17.5-5.5-21.4-21.7-20.8c-35.2,1.2-70.5-0.3-105.7,0.7c-14.2,0.4-19.3-2.8-19.2-18.3c0.4-39.7-0.5-39.7,38.3-39.7
	c28,0,56.2-1.5,84,0.5c21.1,1.5,25.2-6.5,24.3-25.6c-1.5-34.4,0.4-68.9-0.8-103.3c-0.5-15.3,4.5-18.6,18.9-18.5
	c40.3,0.3,40.3-0.5,40.3,39.9c0,28.8,1.1,57.7-0.4,86.5c-0.9,17.5,5.5,21.4,21.7,20.8c35.2-1.2,70.5,0.3,105.7-0.7
	C770.4,571.8,775.6,575,775.4,590.5z"/>
<path class="st1" d="M775.4,590.5c-0.4,39.7,0.5,39.7-38.3,39.7h-36.1c-16.8,0-33.8,1.4-50.4-0.4c-19.3-2.1-22.4,6.2-21.8,23.1
	c1.2,35.2-0.4,70.5,0.7,105.7c0.5,15.3-4.5,18.5-18.9,18.5c-40.3-0.3-40.3,0.4-40.3-40c0-28.8-1.1-57.7,0.4-86.5
	c0.9-17.5-5.5-21.4-21.7-20.8c-35.2,1.2-70.5-0.3-105.7,0.7c-14.2,0.4-19.3-2.8-19.2-18.3c0.4-39.7-0.5-39.7,38.3-39.7
	c28,0,56.2-1.5,84,0.5c21.1,1.5,25.2-6.5,24.3-25.6c-1.5-34.4,0.4-68.9-0.8-103.3c-0.5-15.3,4.5-18.6,18.9-18.5
	c40.3,0.3,40.3-0.5,40.3,39.9c0,28.8,1.1,57.7-0.4,86.5c-0.9,17.5,5.5,21.4,21.7,20.8c35.2-1.2,70.5,0.3,105.7-0.7
	C770.4,571.8,775.6,575,775.4,590.5z"/>
</svg>
