<?xml version="1.0" encoding="utf-8"?>
<!-- Generator: Adobe Illustrator 24.0.0, SVG Export Plug-In . SVG Version: 6.00 Build 0)  -->
<svg version="1.1" id="Layer_1" xmlns="http://www.w3.org/2000/svg" xmlns:xlink="http://www.w3.org/1999/xlink" x="0px" y="0px"
	 viewBox="0 0 1262.8 1264.4" style="enable-background:new 0 0 1262.8 1264.4;" xml:space="preserve">
<style type="text/css">
	.st0{fill:#FEFEFE;}
</style>
<path d="M630.4,0C284.4,0.2-6.9,288.8,0.1,632.5c-6.9,342.4,283.3,632.1,631,631.8c346.9-0.3,632-288.3,631.7-632.4
	C1262.6,288.2,976.4-0.2,630.4,0z M630.2,1177.4c-300.7,1.1-541.9-241.8-544.7-543.8C82.9,335,328.6,88.1,630,86.6
	c299.5-1.5,545.8,244,545.7,545.6C1175.7,926.7,942.4,1176.3,630.2,1177.4z M630.6,130.2c-275.9,0.3-500.9,224.8-502.1,501
	c-1.2,275.5,226.2,503.3,502.3,503.3c275.1-0.1,501.2-225.6,502.1-500.9C1133.9,357.4,906.8,129.9,630.6,130.2z M858.6,489.3
	c-5.3,77.3-40.1,138-98.5,185.7c-39,31.9-80.6,60.7-120.9,91.1c-24.9,18.8-48.7,38.9-65,66.2c-9.2,15.5-8.5,23.1,13.4,22.8
	c82.5-1,165,0.1,247.6-0.8c17.3-0.2,23.6,3.9,22.6,22c-1.5,28.5-1,57.3-0.2,85.9c0.4,12.5-2.4,17.5-16.4,17.4
	c-140.6-0.5-281.3-0.6-421.9,0.1c-16.5,0.1-16.1-7.9-16.9-20c-7.5-115.1,44.8-200.4,132.4-268.3c38.5-29.9,78.9-57.5,115-90.5
	c22.1-20.2,40.1-43.3,49.1-72.1c23.5-75.2-20.8-130-99.3-123.2c-67,5.8-82.6,12-163.5,66.9c0-41.1,0.2-78.8-0.1-116.6
	c-0.1-8.1,1.1-13.9,9.1-18.6c97.1-56.7,199.1-70.4,304.8-30C823.5,335.5,864,409.8,858.6,489.3z"/>
<path class="st0" d="M630.6,130.2c-275.9,0.3-500.9,224.8-502.1,501c-1.2,275.5,226.2,503.3,502.3,503.3
	c275.1-0.1,501.2-225.6,502.1-500.9C1133.9,357.4,906.8,129.9,630.6,130.2z M858.6,489.3c-5.3,77.3-40.1,138-98.5,185.7
	c-39,31.9-80.6,60.7-120.9,91.1c-24.9,18.8-48.7,38.9-65,66.2c-9.2,15.5-8.5,23.1,13.4,22.8c82.5-1,165,0.1,247.6-0.8
	c17.3-0.2,23.6,3.9,22.6,22c-1.5,28.5-1,57.3-0.2,85.9c0.4,12.5-2.4,17.5-16.4,17.4c-140.6-0.5-281.3-0.6-421.9,0.1
	c-16.5,0.1-16.1-7.9-16.9-20c-7.5-115.1,44.8-200.4,132.4-268.3c38.5-29.9,78.9-57.5,115-90.5c22.1-20.2,40.1-43.3,49.1-72.1
	c23.5-75.2-20.8-130-99.3-123.2c-67,5.8-82.6,12-163.5,66.9c0-41.1,0.2-78.8-0.1-116.6c-0.1-8.1,1.1-13.9,9.1-18.6
	c97.1-56.7,199.1-70.4,304.8-30C823.5,335.5,864,409.8,858.6,489.3z"/>
<path d="M630.6,130.2c-275.9,0.3-500.9,224.8-502.1,501c-1.2,275.5,226.2,503.3,502.3,503.3c275.1-0.1,501.2-225.6,502.1-500.9
	C1133.9,357.4,906.8,129.9,630.6,130.2z M858.6,489.3c-5.3,77.3-40.1,138-98.5,185.7c-39,31.9-80.6,60.7-120.9,91.1
	c-24.9,18.8-48.7,38.9-65,66.2c-9.2,15.5-8.5,23.1,13.4,22.8c82.5-1,165,0.1,247.6-0.8c17.3-0.2,23.6,3.9,22.6,22
	c-1.5,28.5-1,57.3-0.2,85.9c0.4,12.5-2.4,17.5-16.4,17.4c-140.6-0.5-281.3-0.6-421.9,0.1c-16.5,0.1-16.1-7.9-16.9-20
	c-7.5-115.1,44.8-200.4,132.4-268.3c38.5-29.9,78.9-57.5,115-90.5c22.1-20.2,40.1-43.3,49.1-72.1c23.5-75.2-20.8-130-99.3-123.2
	c-67,5.8-82.6,12-163.5,66.9c0-41.1,0.2-78.8-0.1-116.6c-0.1-8.1,1.1-13.9,9.1-18.6c97.1-56.7,199.1-70.4,304.8-30
	C823.5,335.5,864,409.8,858.6,489.3z"/>
</svg>
