<?xml version="1.0" encoding="utf-8"?>
<!-- Generator: Adobe Illustrator 24.0.0, SVG Export Plug-In . SVG Version: 6.00 Build 0)  -->
<svg version="1.1" id="Layer_1" xmlns="http://www.w3.org/2000/svg" xmlns:xlink="http://www.w3.org/1999/xlink" x="0px" y="0px"
	 viewBox="0 0 1298.3 1297.2" style="enable-background:new 0 0 1298.3 1297.2;" xml:space="preserve">
<style type="text/css">
	.st0{fill:#FEFEFE;}
</style>
<path d="M648.4,132.7c-283.9,1.4-514.4,232-514.9,515c-0.5,283.2,233.1,516.6,516.5,516.1c282.6-0.5,514.9-232.9,515-515
	C1165,365,931.1,131.3,648.4,132.7z M803.8,961.2c-114.2,76-236,69.8-359.6,25.6c-8.2-3-12.1-7.6-11.9-17.1
	c0.5-39.5,0.2-79.1,0.2-123C479,879.1,527.6,894,580,898.1c29.9,2.3,58.5-0.4,86.1-13c35.6-16.3,55.4-42,55.2-82.5
	c-0.2-39.7-20.3-63.5-54.8-79.7c-44-20.7-90.6-20.9-137.2-18.8c-21.9,1-28.6-5.8-26.6-27.3c2-20.6,2.3-41.7-0.1-62.2
	c-2.9-25.3,7.8-30.3,30.4-29.2c25.8,1.2,52,0,77.7-2.9c56-6.3,87.2-36.5,88.9-83.5c1.8-51-24.2-81.6-75.2-87.2
	c-58.6-6.4-112.8,7-165.5,42c0-41,0.1-78.6-0.1-116.1c0-7.4,3.8-11,9.8-13.4c103.6-39.6,207.1-53.7,309.4,4
	c65.3,36.8,87.6,96,78.4,166.8c-9.5,73.2-52.6,119.9-124.1,139.5c-3.3,0.9-6.6,1.5-17,4c39,6.9,69,18,96.9,35.8
	C906.5,734.8,901.8,896,803.8,961.2z"/>
<path d="M650.4,0.1C293.4-6.2,0.6,296.9,0,646.9c-0.6,350.8,290.4,649.7,648,650.3c355.7,0.5,649.6-294.2,650.2-647.8
	C1298.9,296.8,1005.9-4.7,650.4,0.1z M649.5,1208c-322.8-1.5-560.4-260-560.1-560.8c0.4-308.5,251-558.7,559.4-559.4
	c308.1-0.7,561.1,252.8,560.2,561.3l0,0C1208,957.7,958.1,1209.4,649.5,1208z"/>
<path class="st0" d="M648.4,132.7c-283.9,1.4-514.4,232-514.9,515c-0.5,283.2,233.1,516.6,516.5,516.1
	c282.6-0.5,514.9-232.9,515-515C1165,365,931.1,131.3,648.4,132.7z M803.8,961.2c-114.2,76-236,69.8-359.6,25.6
	c-8.2-3-12.1-7.6-11.9-17.1c0.5-39.5,0.2-79.1,0.2-123C479,879.1,527.6,894,580,898.1c29.9,2.3,58.5-0.4,86.1-13
	c35.6-16.3,55.4-42,55.2-82.5c-0.2-39.7-20.3-63.5-54.8-79.7c-44-20.7-90.6-20.9-137.2-18.8c-21.9,1-28.6-5.8-26.6-27.3
	c2-20.6,2.3-41.7-0.1-62.2c-2.9-25.3,7.8-30.3,30.4-29.2c25.8,1.2,52,0,77.7-2.9c56-6.3,87.2-36.5,88.9-83.5
	c1.8-51-24.2-81.6-75.2-87.2c-58.6-6.4-112.8,7-165.5,42c0-41,0.1-78.6-0.1-116.1c0-7.4,3.8-11,9.8-13.4
	c103.6-39.6,207.1-53.7,309.4,4c65.3,36.8,87.6,96,78.4,166.8c-9.5,73.2-52.6,119.9-124.1,139.5c-3.3,0.9-6.6,1.5-17,4
	c39,6.9,69,18,96.9,35.8C906.5,734.8,901.8,896,803.8,961.2z"/>
<path d="M648.4,132.7c-283.9,1.4-514.4,232-514.9,515c-0.5,283.2,233.1,516.6,516.5,516.1c282.6-0.5,514.9-232.9,515-515
	C1165,365,931.1,131.3,648.4,132.7z M803.8,961.2c-114.2,76-236,69.8-359.6,25.6c-8.2-3-12.1-7.6-11.9-17.1
	c0.5-39.5,0.2-79.1,0.2-123C479,879.1,527.6,894,580,898.1c29.9,2.3,58.5-0.4,86.1-13c35.6-16.3,55.4-42,55.2-82.5
	c-0.2-39.7-20.3-63.5-54.8-79.7c-44-20.7-90.6-20.9-137.2-18.8c-21.9,1-28.6-5.8-26.6-27.3c2-20.6,2.3-41.7-0.1-62.2
	c-2.9-25.3,7.8-30.3,30.4-29.2c25.8,1.2,52,0,77.7-2.9c56-6.3,87.2-36.5,88.9-83.5c1.8-51-24.2-81.6-75.2-87.2
	c-58.6-6.4-112.8,7-165.5,42c0-41,0.1-78.6-0.1-116.1c0-7.4,3.8-11,9.8-13.4c103.6-39.6,207.1-53.7,309.4,4
	c65.3,36.8,87.6,96,78.4,166.8c-9.5,73.2-52.6,119.9-124.1,139.5c-3.3,0.9-6.6,1.5-17,4c39,6.9,69,18,96.9,35.8
	C906.5,734.8,901.8,896,803.8,961.2z"/>
</svg>
