<?xml version="1.0" encoding="utf-8"?>
<!-- Generator: Adobe Illustrator 24.0.0, SVG Export Plug-In . SVG Version: 6.00 Build 0)  -->
<svg version="1.1" id="Layer_1" xmlns="http://www.w3.org/2000/svg" xmlns:xlink="http://www.w3.org/1999/xlink" x="0px" y="0px"
	 viewBox="0 0 1111.8 1111" style="enable-background:new 0 0 1111.8 1111;" xml:space="preserve">
<style type="text/css">
	.st0{fill:#FEFEFE;}
</style>
<path d="M487.4,418.4c0.2-41.7,32.3-74.9,71.9-74.4c40.1,0.5,70.8,34,69.8,76.1c-1,42.2-32.7,75.3-71.8,74.9
	C518.5,494.6,487.2,460.4,487.4,418.4z"/>
<path d="M643,687.8c-1.9,49.5-38.1,82-89.6,80.5v0c-53-1.6-85.2-35.4-83.9-88.2c1.3-51.9,41.5-88.2,95.5-86
	C609.5,595.9,644.8,638.3,643,687.8z"/>
<path d="M556.1,113.6c-242.1-0.2-440.2,197.2-441.8,440.3c-1.6,241.8,198.6,442.7,441.4,442.8c241.9,0.2,440.6-197.8,441.8-440.2
	C998.8,314.1,799.2,113.8,556.1,113.6z M710.9,812c-75.6,67.1-236.3,66-311.5-2.1c-86.8-78.7-66.3-207.9,40.9-258
	c6-2.8,12-5.6,20.1-9.4c-41.6-24-75.8-52.3-88.2-98.2c-17.1-63.7,9.2-128.8,70-162.8c78.3-43.7,159.9-44,236.3,3.5
	c92.6,57.5,93.7,170.4,5.4,234.2c-9.5,6.9-19.8,12.6-30.9,19.6c17.4,10.1,35.5,18.4,51,30C784.5,629.2,787.4,744.1,710.9,812z"/>
<path d="M556.3,0.1C250.4-4.8,0.1,255,0,554.7c-0.1,300.7,249.5,556.2,555.6,556.3c305.1,0.1,556-252.9,556.2-555.5
	C1112,253.4,860.8-4.3,556.3,0.1z M557,1034.3C283,1034.5,77.3,814.9,76.5,555h0C76.1,291.7,289.9,75.4,554.9,75.8
	c270.7,0.3,479.6,215.8,480.4,479.4C1036.1,818.7,822.8,1034.3,557,1034.3z"/>
<path class="st0" d="M487.4,418.4c0.2-41.7,32.3-74.9,71.9-74.4c40.1,0.5,70.8,34,69.8,76.1c-1,42.2-32.7,75.3-71.8,74.9
	C518.5,494.6,487.2,460.4,487.4,418.4z"/>
<path class="st0" d="M643,687.8c-1.9,49.5-38.1,82-89.6,80.5v0c-53-1.6-85.2-35.4-83.9-88.2c1.3-51.9,41.5-88.2,95.5-86
	C609.5,595.9,644.8,638.3,643,687.8z"/>
<path class="st0" d="M556.1,113.6c-242.1-0.2-440.2,197.2-441.8,440.3c-1.6,241.8,198.6,442.7,441.4,442.8
	c241.9,0.2,440.6-197.8,441.8-440.2C998.8,314.1,799.2,113.8,556.1,113.6z M710.9,812c-75.6,67.1-236.3,66-311.5-2.1
	c-86.8-78.7-66.3-207.9,40.9-258c6-2.8,12-5.6,20.1-9.4c-41.6-24-75.8-52.3-88.2-98.2c-17.1-63.7,9.2-128.8,70-162.8
	c78.3-43.7,159.9-44,236.3,3.5c92.6,57.5,93.7,170.4,5.4,234.2c-9.5,6.9-19.8,12.6-30.9,19.6c17.4,10.1,35.5,18.4,51,30
	C784.5,629.2,787.4,744.1,710.9,812z"/>
<path d="M487.4,418.4c0.2-41.7,32.3-74.9,71.9-74.4c40.1,0.5,70.8,34,69.8,76.1c-1,42.2-32.7,75.3-71.8,74.9
	C518.5,494.6,487.2,460.4,487.4,418.4z"/>
<path d="M643,687.8c-1.9,49.5-38.1,82-89.6,80.5v0c-53-1.6-85.2-35.4-83.9-88.2c1.3-51.9,41.5-88.2,95.5-86
	C609.5,595.9,644.8,638.3,643,687.8z"/>
<path d="M556.1,113.6c-242.1-0.2-440.2,197.2-441.8,440.3c-1.6,241.8,198.6,442.7,441.4,442.8c241.9,0.2,440.6-197.8,441.8-440.2
	C998.8,314.1,799.2,113.8,556.1,113.6z M710.9,812c-75.6,67.1-236.3,66-311.5-2.1c-86.8-78.7-66.3-207.9,40.9-258
	c6-2.8,12-5.6,20.1-9.4c-41.6-24-75.8-52.3-88.2-98.2c-17.1-63.7,9.2-128.8,70-162.8c78.3-43.7,159.9-44,236.3,3.5
	c92.6,57.5,93.7,170.4,5.4,234.2c-9.5,6.9-19.8,12.6-30.9,19.6c17.4,10.1,35.5,18.4,51,30C784.5,629.2,787.4,744.1,710.9,812z"/>
<path class="st0" d="M487.4,418.4c0.2-41.7,32.3-74.9,71.9-74.4c40.1,0.5,70.8,34,69.8,76.1c-1,42.2-32.7,75.3-71.8,74.9
	C518.5,494.6,487.2,460.4,487.4,418.4z"/>
<path class="st0" d="M643,687.8c-1.9,49.5-38.1,82-89.6,80.5v0c-53-1.6-85.2-35.4-83.9-88.2c1.3-51.9,41.5-88.2,95.5-86
	C609.5,595.9,644.8,638.3,643,687.8z"/>
<path d="M643,687.8c-1.9,49.5-38.1,82-89.6,80.5v0c-53-1.6-85.2-35.4-83.9-88.2c1.3-51.9,41.5-88.2,95.5-86
	C609.5,595.9,644.8,638.3,643,687.8z"/>
<path d="M629.1,420.2c-1,42.2-32.7,75.3-71.8,74.9c-38.9-0.4-70.1-34.6-69.9-76.6c0.2-41.7,32.3-74.9,71.9-74.4
	C599.4,344.5,630.1,378,629.1,420.2z"/>
</svg>
