<?xml version="1.0" encoding="utf-8"?>
<!-- Generator: Adobe Illustrator 24.0.0, SVG Export Plug-In . SVG Version: 6.00 Build 0)  -->
<svg version="1.1" id="Layer_1" xmlns="http://www.w3.org/2000/svg" xmlns:xlink="http://www.w3.org/1999/xlink" x="0px" y="0px"
	 viewBox="0 0 1109.5 1108.5" style="enable-background:new 0 0 1109.5 1108.5;" xml:space="preserve">
<style type="text/css">
	.st0{fill:#FEFEFE;}
	.st1{fill:#020202;}
</style>
<path d="M554.9,617c0,9.3,0.9,17.3-13,17.1c-42.6-0.7-85.3-0.3-132.5-0.3c53-68,102.3-133.9,145.5-204.8
	C554.8,491.7,554.8,554.4,554.9,617z"/>
<path d="M554.8,0.1C249.5-4.7-0.1,254.8,0,553.8c0.1,298.1,246.2,554.8,554.7,554.7c307.8-0.1,554.6-254.7,554.7-554.5
	C1109.6,252.5,858.7-4.4,554.8,0.1z M554.3,1032.3c-264.1,1-476.4-213-478-477.7C74.7,292.7,287.5,76.5,553,75.7
	c268.5-0.8,479.3,213.1,480,477.6C1033.6,811.2,829.1,1031.3,554.3,1032.3z M551.2,113.8c-245.8,2.5-440,200.1-436.4,444.8
	c3.8,259.4,213.8,438,443.4,435.6c243.8-2.6,436.9-197.5,437.1-444.8C989.1,294.2,784.9,111.4,551.2,113.8z M705.8,733.8
	c-23.2-1-30.6,5.5-28.7,28.8c2.2,27.2-0.2,54.7,0.8,82c0.5,13-4,16.1-16.3,15.8c-30.3-0.8-60.6-0.8-90.9,0
	c-12.9,0.3-16.4-4.3-16.1-16.6c0.7-29.5-0.7-59.2,0.6-88.7c0.7-16.3-3.5-21.4-20.6-21.1c-74.6,1-149.3-0.5-223.9,1
	c-20.6,0.4-21.9-6.6-24.1-24.6c-6.9-56,12-98.4,49.6-140.5c83.4-93.1,153.9-196,209.5-308.5c4.9-9.9,10.7-14.1,22-13.8
	c31,0.8,62.1,1,93.1-0.1c13.8-0.5,17.3,3.7,17.2,17.3c-0.8,58.4-0.3,116.8-0.3,175.1l0,0c0,57.6,0.6,115.3-0.4,172.9
	c-0.3,15.9,2.8,22.4,20.3,21.5c17.3-0.9,40.2-8.2,51,3.2c10.6,11.3,2.9,33.8,3.1,51.4C752.1,734.3,751.7,735.7,705.8,733.8z"/>
<path class="st0" d="M554.9,617c0,9.3,0.9,17.3-13,17.1c-42.6-0.7-85.3-0.3-132.5-0.3c53-68,102.3-133.9,145.5-204.8
	C554.8,491.7,554.8,554.4,554.9,617z"/>
<path class="st0" d="M551.2,113.8c-245.8,2.5-440,200.1-436.4,444.8c3.8,259.4,213.8,438,443.4,435.6
	c243.8-2.6,436.9-197.5,437.1-444.8C989.1,294.2,784.9,111.4,551.2,113.8z M705.8,733.8c-23.2-1-30.6,5.5-28.7,28.8
	c2.2,27.2-0.2,54.7,0.8,82c0.5,13-4,16.1-16.3,15.8c-30.3-0.8-60.6-0.8-90.9,0c-12.9,0.3-16.4-4.3-16.1-16.6
	c0.7-29.5-0.7-59.2,0.6-88.7c0.7-16.3-3.5-21.4-20.6-21.1c-74.6,1-149.3-0.5-223.9,1c-20.6,0.4-21.9-6.6-24.1-24.6
	c-6.9-56,12-98.4,49.6-140.5c83.4-93.1,153.9-196,209.5-308.5c4.9-9.9,10.7-14.1,22-13.8c31,0.8,62.1,1,93.1-0.1
	c13.8-0.5,17.3,3.7,17.2,17.3c-0.8,58.4-0.3,116.8-0.3,175.1l0,0c0,57.6,0.6,115.3-0.4,172.9c-0.3,15.9,2.8,22.4,20.3,21.5
	c17.3-0.9,40.2-8.2,51,3.2c10.6,11.3,2.9,33.8,3.1,51.4C752.1,734.3,751.7,735.7,705.8,733.8z"/>
<path d="M554.9,617c0,9.3,0.9,17.3-13,17.1c-42.6-0.7-85.3-0.3-132.5-0.3c53-68,102.3-133.9,145.5-204.8
	C554.8,491.7,554.8,554.4,554.9,617z"/>
<path d="M551.2,113.8c-245.8,2.5-440,200.1-436.4,444.8c3.8,259.4,213.8,438,443.4,435.6c243.8-2.6,436.9-197.5,437.1-444.8
	C989.1,294.2,784.9,111.4,551.2,113.8z M705.8,733.8c-23.2-1-30.6,5.5-28.7,28.8c2.2,27.2-0.2,54.7,0.8,82c0.5,13-4,16.1-16.3,15.8
	c-30.3-0.8-60.6-0.8-90.9,0c-12.9,0.3-16.4-4.3-16.1-16.6c0.7-29.5-0.7-59.2,0.6-88.7c0.7-16.3-3.5-21.4-20.6-21.1
	c-74.6,1-149.3-0.5-223.9,1c-20.6,0.4-21.9-6.6-24.1-24.6c-6.9-56,12-98.4,49.6-140.5c83.4-93.1,153.9-196,209.5-308.5
	c4.9-9.9,10.7-14.1,22-13.8c31,0.8,62.1,1,93.1-0.1c13.8-0.5,17.3,3.7,17.2,17.3c-0.8,58.4-0.3,116.8-0.3,175.1l0,0
	c0,57.6,0.6,115.3-0.4,172.9c-0.3,15.9,2.8,22.4,20.3,21.5c17.3-0.9,40.2-8.2,51,3.2c10.6,11.3,2.9,33.8,3.1,51.4
	C752.1,734.3,751.7,735.7,705.8,733.8z"/>
<path class="st0" d="M541.9,634.1c-42.6-0.7-85.3-0.3-132.5-0.3c53-68,102.3-133.9,145.5-204.8c0,62.7-0.1,125.3,0.1,188
	C554.9,626.3,555.8,634.3,541.9,634.1z"/>
<path class="st1" d="M541.9,634.1c-42.6-0.7-85.3-0.3-132.5-0.3c53-68,102.3-133.9,145.5-204.8c0,62.7-0.1,125.3,0.1,188
	C554.9,626.3,555.8,634.3,541.9,634.1z"/>
</svg>
