<?xml version="1.0" encoding="utf-8"?>
<!-- Generator: Adobe Illustrator 24.0.0, SVG Export Plug-In . SVG Version: 6.00 Build 0)  -->
<svg version="1.1" id="Layer_1" xmlns="http://www.w3.org/2000/svg" xmlns:xlink="http://www.w3.org/1999/xlink" x="0px" y="0px"
	 viewBox="0 0 1182.2 1181.1" style="enable-background:new 0 0 1182.2 1181.1;" xml:space="preserve">
<style type="text/css">
	.st0{fill:#FEFEFE;}
</style>
<path d="M590.9,120.8c-257.9,0.5-468.3,210.5-469.3,468.5c-1,256.8,209.6,468.8,467.4,470.3c257.9,1.6,471-210.1,471.7-468.4
	C1061.4,333.2,848.9,120.3,590.9,120.8z M463.1,853.7c-25.1-1.8-50.4-1.6-75.5-0.1c-17.2,1-20.5-5.3-20.4-21.2
	c0.7-122.8,0.4-245.6,0.4-368.5v-18.7c-28.2,22.4-56.7,32.8-86.1,41.3c-17.7,5.1-27.9,4-25.9-19.1c2.1-23.4-6-50.4,3.2-69.8
	c8.9-18.9,40.1-15.9,59.6-27.4c19.6-11.5,42.2-18.8,59.7-32.7c26.8-21.3,55.8-25,88-23.7c14.5,0.6,18.6,4.2,18.4,18.8
	c-0.8,65.3-0.3,130.7-0.3,196c0,100.8-0.4,201.5,0.4,302.3C484.6,847.7,482,855.1,463.1,853.7z M885.7,775.6
	c-30,58.3-79.5,87.3-144.6,88.5c-72.2,1.4-131.1-22.3-164.3-91.4C549.1,715.2,545.2,653.4,544,591c-1.9-71.4,13.1-139,51.4-199.8
	c37.1-59,113.4-84.2,192.4-66.6c64.7,14.3,102.2,58,118.5,118.4C936.6,555.5,941.2,667.9,885.7,775.6z M782.8,439.5
	c-22.4-39-62.6-42-89.6-6.1c-7.2,9.5-11.3,20.5-15.1,31.7c-14,41.7-14.3,85.1-15.6,135.8h0c0.7,15.4,0.6,38.3,3,61
	c3.4,32.1,7.9,64.4,28.7,90.9c24.1,30.8,60,30.2,83.4-1.1c7.1-9.4,11.9-20.1,15.3-31.6c20-68.7,16.7-138.6,10.4-208.5
	C800.9,486.6,795.7,462,782.8,439.5z"/>
<path d="M591.3,0.1C266-5,0.3,271.4,0,590c-0.3,317.8,264.5,591.2,591.1,591.1c325.4-0.1,591.4-270.8,591.1-590.9
	C1181.9,269.1,914.9-4.7,591.3,0.1z M590.7,1099.9c-281.7,1.2-510.3-230-509.3-510.7c1-280.9,227.7-507.7,509-509.2
	c279.8-1.6,509.7,228.2,510.5,510.1l0,0C1100.1,865.4,882.6,1098.7,590.7,1099.9z"/>
<path class="st0" d="M590.9,120.8c-257.9,0.5-468.3,210.5-469.3,468.5c-1,256.8,209.6,468.8,467.4,470.3
	c257.9,1.6,471-210.1,471.7-468.4C1061.4,333.2,848.9,120.3,590.9,120.8z M463.1,853.7c-25.1-1.8-50.4-1.6-75.5-0.1
	c-17.2,1-20.5-5.3-20.4-21.2c0.7-122.8,0.4-245.6,0.4-368.5v-18.7c-28.2,22.4-56.7,32.8-86.1,41.3c-17.7,5.1-27.9,4-25.9-19.1
	c2.1-23.4-6-50.4,3.2-69.8c8.9-18.9,40.1-15.9,59.6-27.4c19.6-11.5,42.2-18.8,59.7-32.7c26.8-21.3,55.8-25,88-23.7
	c14.5,0.6,18.6,4.2,18.4,18.8c-0.8,65.3-0.3,130.7-0.3,196c0,100.8-0.4,201.5,0.4,302.3C484.6,847.7,482,855.1,463.1,853.7z
	 M885.7,775.6c-30,58.3-79.5,87.3-144.6,88.5c-72.2,1.4-131.1-22.3-164.3-91.4C549.1,715.2,545.2,653.4,544,591
	c-1.9-71.4,13.1-139,51.4-199.8c37.1-59,113.4-84.2,192.4-66.6c64.7,14.3,102.2,58,118.5,118.4C936.6,555.5,941.2,667.9,885.7,775.6
	z M782.8,439.5c-22.4-39-62.6-42-89.6-6.1c-7.2,9.5-11.3,20.5-15.1,31.7c-14,41.7-14.3,85.1-15.6,135.8h0c0.7,15.4,0.6,38.3,3,61
	c3.4,32.1,7.9,64.4,28.7,90.9c24.1,30.8,60,30.2,83.4-1.1c7.1-9.4,11.9-20.1,15.3-31.6c20-68.7,16.7-138.6,10.4-208.5
	C800.9,486.6,795.7,462,782.8,439.5z"/>
<path d="M590.9,120.8c-257.9,0.5-468.3,210.5-469.3,468.5c-1,256.8,209.6,468.8,467.4,470.3c257.9,1.6,471-210.1,471.7-468.4
	C1061.4,333.2,848.9,120.3,590.9,120.8z M463.1,853.7c-25.1-1.8-50.4-1.6-75.5-0.1c-17.2,1-20.5-5.3-20.4-21.2
	c0.7-122.8,0.4-245.6,0.4-368.5v-18.7c-28.2,22.4-56.7,32.8-86.1,41.3c-17.7,5.1-27.9,4-25.9-19.1c2.1-23.4-6-50.4,3.2-69.8
	c8.9-18.9,40.1-15.9,59.6-27.4c19.6-11.5,42.2-18.8,59.7-32.7c26.8-21.3,55.8-25,88-23.7c14.5,0.6,18.6,4.2,18.4,18.8
	c-0.8,65.3-0.3,130.7-0.3,196c0,100.8-0.4,201.5,0.4,302.3C484.6,847.7,482,855.1,463.1,853.7z M885.7,775.6
	c-30,58.3-79.5,87.3-144.6,88.5c-72.2,1.4-131.1-22.3-164.3-91.4C549.1,715.2,545.2,653.4,544,591c-1.9-71.4,13.1-139,51.4-199.8
	c37.1-59,113.4-84.2,192.4-66.6c64.7,14.3,102.2,58,118.5,118.4C936.6,555.5,941.2,667.9,885.7,775.6z M782.8,439.5
	c-22.4-39-62.6-42-89.6-6.1c-7.2,9.5-11.3,20.5-15.1,31.7c-14,41.7-14.3,85.1-15.6,135.8h0c0.7,15.4,0.6,38.3,3,61
	c3.4,32.1,7.9,64.4,28.7,90.9c24.1,30.8,60,30.2,83.4-1.1c7.1-9.4,11.9-20.1,15.3-31.6c20-68.7,16.7-138.6,10.4-208.5
	C800.9,486.6,795.7,462,782.8,439.5z"/>
<path class="st0" d="M792.8,720.1c-3.4,11.5-8.2,22.1-15.3,31.6c-23.4,31.3-59.3,31.9-83.4,1.1c-20.8-26.6-25.2-58.9-28.7-90.9
	c-2.4-22.7-2.3-45.6-3-61h0c1.3-50.7,1.6-94,15.6-135.8c3.8-11.2,7.9-22.2,15.1-31.7c27-35.9,67.2-32.9,89.6,6.1
	c12.9,22.4,18.1,47,20.4,72C809.5,581.5,812.8,651.4,792.8,720.1z"/>
<path d="M792.8,720.1c-3.4,11.5-8.2,22.1-15.3,31.6c-23.4,31.3-59.3,31.9-83.4,1.1c-20.8-26.6-25.2-58.9-28.7-90.9
	c-2.4-22.7-2.3-45.6-3-61h0c1.3-50.7,1.6-94,15.6-135.8c3.8-11.2,7.9-22.2,15.1-31.7c27-35.9,67.2-32.9,89.6,6.1
	c12.9,22.4,18.1,47,20.4,72C809.5,581.5,812.8,651.4,792.8,720.1z"/>
</svg>
