<?xml version="1.0" encoding="utf-8"?>
<!-- Generator: Adobe Illustrator 24.0.0, SVG Export Plug-In . SVG Version: 6.00 Build 0)  -->
<svg version="1.1" id="Layer_1" xmlns="http://www.w3.org/2000/svg" xmlns:xlink="http://www.w3.org/1999/xlink" x="0px" y="0px"
	 viewBox="0 0 1242.9 1241.8" style="enable-background:new 0 0 1242.9 1241.8;" xml:space="preserve">
<style type="text/css">
	.st0{fill:#FEFEFE;}
</style>
<path d="M621.6,0.1C278-5.2-0.2,287.5,0,620.3c0.2,336.6,279.6,621.6,621.4,621.5c340.6-0.1,621.2-282.5,621.5-621.2
	C1243.2,285.5,964-4.9,621.6,0.1z M622.1,1156.3c-308.3-0.9-536.5-248-536.4-536.5C85.8,324.7,325.3,85.3,620.9,84.1
	c294.6-1.3,537,241.4,536.5,537.1C1157,916.2,918.1,1157.2,622.1,1156.3z M1115.1,618.1C1111,344.6,889.6,124.9,620.3,127
	C347,129.1,124.2,353.5,127.9,623c3.7,275.1,227.6,495.1,499.8,491C898.1,1110,1119.1,885.1,1115.1,618.1z M729.3,837.1
	c0,33.9-1,67.9,0.4,101.8c0.7,18.4-3,26.2-23.7,25c-33-2-66.2-1.7-99.3-0.1c-19.4,1-24.8-4.7-24.7-24.4
	c0.8-154.8,0.5-309.6,0.5-464.3v-28.9c-46,28.7-90,50.4-142.8,56.1c0-38.7,0.2-76.6-0.1-114.5c-0.1-10.1,6.3-11.7,13.8-14.2
	c63-21,121.2-51,176.7-87.8c28.2-18.7,62.8-6.6,94.5-6.5c9,0,4.6,14.1,4.6,21.6C729.3,479.5,729.3,658.3,729.3,837.1z"/>
<path class="st0" d="M1115.1,618.1C1111,344.6,889.6,124.9,620.3,127C347,129.1,124.2,353.5,127.9,623
	c3.7,275.1,227.6,495.1,499.8,491C898.1,1110,1119.1,885.1,1115.1,618.1z M729.3,837.1c0,33.9-1,67.9,0.4,101.8
	c0.7,18.4-3,26.2-23.7,25c-33-2-66.2-1.7-99.3-0.1c-19.4,1-24.8-4.7-24.7-24.4c0.8-154.8,0.5-309.6,0.5-464.3v-28.9
	c-46,28.7-90,50.4-142.8,56.1c0-38.7,0.2-76.6-0.1-114.5c-0.1-10.1,6.3-11.7,13.8-14.2c63-21,121.2-51,176.7-87.8
	c28.2-18.7,62.8-6.6,94.5-6.5c9,0,4.6,14.1,4.6,21.6C729.3,479.5,729.3,658.3,729.3,837.1z"/>
<path d="M1115.1,618.1C1111,344.6,889.6,124.9,620.3,127C347,129.1,124.2,353.5,127.9,623c3.7,275.1,227.6,495.1,499.8,491
	C898.1,1110,1119.1,885.1,1115.1,618.1z M729.3,837.1c0,33.9-1,67.9,0.4,101.8c0.7,18.4-3,26.2-23.7,25c-33-2-66.2-1.7-99.3-0.1
	c-19.4,1-24.8-4.7-24.7-24.4c0.8-154.8,0.5-309.6,0.5-464.3v-28.9c-46,28.7-90,50.4-142.8,56.1c0-38.7,0.2-76.6-0.1-114.5
	c-0.1-10.1,6.3-11.7,13.8-14.2c63-21,121.2-51,176.7-87.8c28.2-18.7,62.8-6.6,94.5-6.5c9,0,4.6,14.1,4.6,21.6
	C729.3,479.5,729.3,658.3,729.3,837.1z"/>
</svg>
