<?xml version="1.0" encoding="utf-8"?>
<!-- Generator: Adobe Illustrator 24.0.0, SVG Export Plug-In . SVG Version: 6.00 Build 0)  -->
<svg version="1.1" id="Layer_1" xmlns="http://www.w3.org/2000/svg" xmlns:xlink="http://www.w3.org/1999/xlink" x="0px" y="0px"
	 viewBox="0 0 1022.4 1021.5" style="enable-background:new 0 0 1022.4 1021.5;" xml:space="preserve">
<style type="text/css">
	.st0{fill:#FEFEFE;}
</style>
<path d="M575.5,575.8c2.3,10.5,3,21.4,4,29.3c-2,38.9-9,72.2-46.5,88.8c-24.3,10.8-46.9,5.5-66.3-11.2c-31.7-27.5-41-89.6-20-126.1
	c15.8-27.5,43.7-40.4,76-35.2C551.1,525.9,568.5,543.5,575.5,575.8z"/>
<path d="M513.8,104.5L513.8,104.5c-220.1-4.2-404.1,177-408.6,402.3c-4.3,219.5,176.9,405.3,399.3,409.5
	c224.1,4.2,410.2-175.4,412.2-402.2C918.7,286.9,738.9,107.9,513.8,104.5z M421.3,771.2c-58.2-29.4-85.7-81.2-97.8-142.5
	C303.9,529,310.2,432.2,361,342c62.8-111.6,183.1-130.4,283.3-103.8c7.5,2,14,3.9,13.8,14.2c-0.5,29.1-0.2,58.2-0.2,88.1
	c-152.1-66.3-225.8,38.9-225.2,144.1c56.8-66.6,145.6-62.8,196.2-29.4c50.7,33.5,67.4,84.9,67.5,141.1
	C696.4,770.5,529.6,825.9,421.3,771.2z"/>
<path d="M511.4,0.1C228.8-4.4-0.1,236.3,0,510.1c0.1,276.9,229.9,511.4,511,511.4c280.1,0,511-232.2,511.4-510.9
	C1022.7,235,793-3.9,511.4,0.1z M511.6,951.2c-253.9-1-441-204.4-441.2-441.4C71,266.9,267.8,70,510.8,69.1
	C753.3,68.3,952.6,267.9,952,511C951.5,753.8,754.9,952.1,511.6,951.2z"/>
<path class="st0" d="M575.5,575.8c2.3,10.5,3,21.4,4,29.3c-2,38.9-9,72.2-46.5,88.8c-24.3,10.8-46.9,5.5-66.3-11.2
	c-31.7-27.5-41-89.6-20-126.1c15.8-27.5,43.7-40.4,76-35.2C551.1,525.9,568.5,543.5,575.5,575.8z"/>
<path class="st0" d="M513.8,104.5L513.8,104.5c-220.1-4.2-404.1,177-408.6,402.3c-4.3,219.5,176.9,405.3,399.3,409.5
	c224.1,4.2,410.2-175.4,412.2-402.2C918.7,286.9,738.9,107.9,513.8,104.5z M421.3,771.2c-58.2-29.4-85.7-81.2-97.8-142.5
	C303.9,529,310.2,432.2,361,342c62.8-111.6,183.1-130.4,283.3-103.8c7.5,2,14,3.9,13.8,14.2c-0.5,29.1-0.2,58.2-0.2,88.1
	c-152.1-66.3-225.8,38.9-225.2,144.1c56.8-66.6,145.6-62.8,196.2-29.4c50.7,33.5,67.4,84.9,67.5,141.1
	C696.4,770.5,529.6,825.9,421.3,771.2z"/>
<path d="M575.5,575.8c2.3,10.5,3,21.4,4,29.3c-2,38.9-9,72.2-46.5,88.8c-24.3,10.8-46.9,5.5-66.3-11.2c-31.7-27.5-41-89.6-20-126.1
	c15.8-27.5,43.7-40.4,76-35.2C551.1,525.9,568.5,543.5,575.5,575.8z"/>
<path d="M513.8,104.5L513.8,104.5c-220.1-4.2-404.1,177-408.6,402.3c-4.3,219.5,176.9,405.3,399.3,409.5
	c224.1,4.2,410.2-175.4,412.2-402.2C918.7,286.9,738.9,107.9,513.8,104.5z M421.3,771.2c-58.2-29.4-85.7-81.2-97.8-142.5
	C303.9,529,310.2,432.2,361,342c62.8-111.6,183.1-130.4,283.3-103.8c7.5,2,14,3.9,13.8,14.2c-0.5,29.1-0.2,58.2-0.2,88.1
	c-152.1-66.3-225.8,38.9-225.2,144.1c56.8-66.6,145.6-62.8,196.2-29.4c50.7,33.5,67.4,84.9,67.5,141.1
	C696.4,770.5,529.6,825.9,421.3,771.2z"/>
<path class="st0" d="M579.5,605.1c-2,38.9-9,72.2-46.5,88.8c-24.3,10.8-46.9,5.5-66.3-11.2c-31.7-27.5-41-89.6-20-126.1
	c15.8-27.5,43.7-40.4,76-35.2c28.3,4.6,45.7,22.2,52.7,54.4C577.8,586.3,578.5,597.2,579.5,605.1z"/>
<path d="M579.5,605.1c-2,38.9-9,72.2-46.5,88.8c-24.3,10.8-46.9,5.5-66.3-11.2c-31.7-27.5-41-89.6-20-126.1
	c15.8-27.5,43.7-40.4,76-35.2c28.3,4.6,45.7,22.2,52.7,54.4C577.8,586.3,578.5,597.2,579.5,605.1z"/>
</svg>
