<?xml version="1.0" encoding="utf-8"?>
<!-- Generator: Adobe Illustrator 24.0.0, SVG Export Plug-In . SVG Version: 6.00 Build 0)  -->
<svg version="1.1" id="Layer_1" xmlns="http://www.w3.org/2000/svg" xmlns:xlink="http://www.w3.org/1999/xlink" x="0px" y="0px"
	 viewBox="0 0 998.7 999.8" style="enable-background:new 0 0 998.7 999.8;" xml:space="preserve">
<style type="text/css">
	.st0{fill:#FEFEFE;}
</style>
<path d="M557.3,463.1c-16.8,21.9-38.8,31.3-66.4,26.5c-26.7-4.6-43.8-20.7-53.3-45.3c-4.8-12.5-5.9-25.8-6.1-43.8h0
	c1.1-26.1,6.9-55,34.6-73.9c22-15.1,47-14.9,68.9-0.1C573,352.4,585.3,426.8,557.3,463.1z"/>
<path d="M498.9,103c-217.7-0.2-395.8,177.4-397.3,395.9c-1.4,217.5,178.5,398,397,398.2v0c217.5,0.2,396.3-178,397.3-395.9
	C897,283.2,717.5,103.1,498.9,103z M661.6,641.1C606.2,779.7,463.5,799,356.2,759.3c-6.7-2.5-9.6-5.6-9.5-12.7
	c0.3-27.7,0.1-55.4,0.1-85.1c58.8,28.3,116.8,41.2,173.9,4.6c37.1-23.8,57.5-78.6,55.7-136.5c-1.1-0.2-3-1-3.3-0.5
	c-37.7,48-88.4,57.6-143.6,43.8C374.2,559,339,521.5,324.4,466.2c-25-94.3,13.4-185.3,92.7-221.2c110.9-50.2,223-1.7,257.5,114.4
	C702.6,454,698.3,549.3,661.6,641.1z"/>
<path d="M498.7,0C223.6,0-5.7,230.6,0.1,500.2C-5.3,768.9,221,1000,499,999.8c277.5-0.2,499.7-229.8,499.7-499.9
	C998.7,228.2,772.5,0,498.7,0z M499.2,931.2c-248.6-1-431.6-200.3-431.4-431.8C68,261.9,260.9,69.2,498.5,68.5
	C735.7,67.8,930.6,263,930,500.7C929.3,738.3,737,932.1,499.2,931.2z"/>
<path class="st0" d="M557.3,463.1c-16.8,21.9-38.8,31.3-66.4,26.5c-26.7-4.6-43.8-20.7-53.3-45.3c-4.8-12.5-5.9-25.8-6.1-43.8h0
	c1.1-26.1,6.9-55,34.6-73.9c22-15.1,47-14.9,68.9-0.1C573,352.4,585.3,426.8,557.3,463.1z"/>
<path class="st0" d="M498.9,103c-217.7-0.2-395.8,177.4-397.3,395.9c-1.4,217.5,178.5,398,397,398.2v0
	c217.5,0.2,396.3-178,397.3-395.9C897,283.2,717.5,103.1,498.9,103z M661.6,641.1C606.2,779.7,463.5,799,356.2,759.3
	c-6.7-2.5-9.6-5.6-9.5-12.7c0.3-27.7,0.1-55.4,0.1-85.1c58.8,28.3,116.8,41.2,173.9,4.6c37.1-23.8,57.5-78.6,55.7-136.5
	c-1.1-0.2-3-1-3.3-0.5c-37.7,48-88.4,57.6-143.6,43.8C374.2,559,339,521.5,324.4,466.2c-25-94.3,13.4-185.3,92.7-221.2
	c110.9-50.2,223-1.7,257.5,114.4C702.6,454,698.3,549.3,661.6,641.1z"/>
<path d="M557.3,463.1c-16.8,21.9-38.8,31.3-66.4,26.5c-26.7-4.6-43.8-20.7-53.3-45.3c-4.8-12.5-5.9-25.8-6.1-43.8h0
	c1.1-26.1,6.9-55,34.6-73.9c22-15.1,47-14.9,68.9-0.1C573,352.4,585.3,426.8,557.3,463.1z"/>
<path d="M498.9,103c-217.7-0.2-395.8,177.4-397.3,395.9c-1.4,217.5,178.5,398,397,398.2v0c217.5,0.2,396.3-178,397.3-395.9
	C897,283.2,717.5,103.1,498.9,103z M661.6,641.1C606.2,779.7,463.5,799,356.2,759.3c-6.7-2.5-9.6-5.6-9.5-12.7
	c0.3-27.7,0.1-55.4,0.1-85.1c58.8,28.3,116.8,41.2,173.9,4.6c37.1-23.8,57.5-78.6,55.7-136.5c-1.1-0.2-3-1-3.3-0.5
	c-37.7,48-88.4,57.6-143.6,43.8C374.2,559,339,521.5,324.4,466.2c-25-94.3,13.4-185.3,92.7-221.2c110.9-50.2,223-1.7,257.5,114.4
	C702.6,454,698.3,549.3,661.6,641.1z"/>
<path class="st0" d="M557.3,463.1c-16.8,21.9-38.8,31.3-66.4,26.5c-26.7-4.6-43.8-20.7-53.3-45.3c-4.8-12.5-5.9-25.8-6.1-43.8h0
	c1.1-26.1,6.9-55,34.6-73.9c22-15.1,47-14.9,68.9-0.1C573,352.4,585.3,426.8,557.3,463.1z"/>
<path d="M557.3,463.1c-16.8,21.9-38.8,31.3-66.4,26.5c-26.7-4.6-43.8-20.7-53.3-45.3c-4.8-12.5-5.9-25.8-6.1-43.8h0
	c1.1-26.1,6.9-55,34.6-73.9c22-15.1,47-14.9,68.9-0.1C573,352.4,585.3,426.8,557.3,463.1z"/>
</svg>
