<?xml version="1.0" encoding="utf-8"?>
<!-- Generator: Adobe Illustrator 24.0.0, SVG Export Plug-In . SVG Version: 6.00 Build 0)  -->
<svg version="1.1" id="Layer_1" xmlns="http://www.w3.org/2000/svg" xmlns:xlink="http://www.w3.org/1999/xlink" x="0px" y="0px"
	 viewBox="0 0 1384.2 1043.4" style="enable-background:new 0 0 1384.2 1043.4;" xml:space="preserve">
<style type="text/css">
	.st0{fill:#FEFEFE;}
</style>
<path d="M833.2,764.6c0.6,75.4-63.9,138.3-141.8,138.2v0c-76.7-0.1-139.2-61.2-139.8-136.8C551,685.4,614.7,620,693.2,620.8
	C771.4,621.6,832.6,684.5,833.2,764.6z"/>
<path d="M1194.3,923c-3.2-141.8-45.2-268.6-135.1-379.2c-36.5-44.9-59.8-95-62.6-154.7c-2-42.3-29.2-61.9-71.3-59.5
	c-40.2,2.3-67.7,23.3-84.1,58.9c-13.1,28.2-32.5,39.5-64.8,37.8c-53.7-2.9-107.8-3.4-161.5,0c-36.3,2.3-60.1-7.6-74.1-41.7
	c-4.3-10.5-12.5-20-20.7-28.1c-26.8-26.4-59.6-33.8-94.6-22.2c-33.2,11-39.9,40-40.4,71c-0.6,31.1-9.1,60.1-25.8,85.9
	c-19.5,30.4-40.1,60.2-61.5,89.3c-80,108.3-113.4,230.3-106.4,363.8c3.6,68.6,36.6,98.8,104.7,98.9c132.2,0.3,264.4,0.1,396.6,0.1h0
	c129.3,0,258.5,0.2,387.8,0C1162.4,1043.2,1196.1,1004.7,1194.3,923z M691.9,984.1C567.7,984,471.4,885.9,471,759
	c-0.4-120,99.3-218.4,221.3-218.5c123.6-0.1,222,99.9,221.4,224.9C913.1,885.8,813.3,984.1,691.9,984.1z"/>
<path d="M691.2,0.5c153.7-3.6,304.9,11.8,451.2,61.6c56.6,19.3,111.1,44.5,156.8,83.7c86.9,74.4,96.8,171.4,75.6,276.1
	c-2.7,13.4-6,26.7-9.5,39.9c-11.1,42.4-23.7,53.5-67.1,54.5c-65.1,1.4-125.9-15.1-180.6-50.8c-41.6-27.1-59.5-63.7-49.2-115.2
	c17.9-89.1-0.5-118.6-88.7-138c-192.9-42.6-386.3-42.2-579.3,1.1c-15.1,3.4-30,8.9-44.1,15.4c-38.5,17.8-50.4,40.1-45.7,82
	c1.5,13.6,1.8,27.6,5.3,40.7c13.1,50.1-6.7,85.9-47.6,112.5c-58.2,37.9-122.1,55.5-191.7,51.4c-29.9-1.7-48.4-15.4-56-45.6
	C5.3,409.5-6.5,348.9,4,286.9c15.7-92.1,76.1-149.5,155.6-189.6C264.1,44.7,376.7,22,491.8,8.1C558.1,0.1,624.7,1.9,691.2,0.5z"/>
<path class="st0" d="M833.2,764.6c0.6,75.4-63.9,138.3-141.8,138.2v0c-76.7-0.1-139.2-61.2-139.8-136.8
	C551,685.4,614.7,620,693.2,620.8C771.4,621.6,832.6,684.5,833.2,764.6z"/>
<path d="M833.2,764.6c0.6,75.4-63.9,138.3-141.8,138.2v0c-76.7-0.1-139.2-61.2-139.8-136.8C551,685.4,614.7,620,693.2,620.8
	C771.4,621.6,832.6,684.5,833.2,764.6z"/>
</svg>
