<?xml version="1.0" encoding="utf-8"?>
<!-- Generator: Adobe Illustrator 24.0.0, SVG Export Plug-In . SVG Version: 6.00 Build 0)  -->
<svg version="1.1" id="Layer_1" xmlns="http://www.w3.org/2000/svg" xmlns:xlink="http://www.w3.org/1999/xlink" x="0px" y="0px"
	 viewBox="0 0 1154.6 1153.1" style="enable-background:new 0 0 1154.6 1153.1;" xml:space="preserve">
<style type="text/css">
	.st0{fill:#100F0D;}
	.st1{fill:#FEFEFE;}
</style>
<path class="st0" d="M684.7,281.3c1.2-10.4,6.3-24.7-7.7-27.7c-16.3-3.4-38.2-10.7-48.7,6.8c-7.4,12.3-10.2,7.6-17.6,3.8
	c-30.9-15.8-61.1-13.1-89.5,6c-50.1,33.7-66.9,106.1-40,168c24.7,56.9,92.7,79.5,139.3,30.2c35.5,33.8,80.3,34.7,120.5,3.7
	c64.5-49.6,83.1-143.9,43.2-219.1c-70.2-132.2-263.6-153.5-371.7-40.9C292.5,337.3,350,545,517.4,589.7
	c67.2,17.9,132.6,8.5,196.9-14.9c17.9-6.5,30.9-15.8,25.7-36.7c-4.6-18.4-21.9-23.6-45.6-14.7C663.3,535,631.6,543.8,598,544
	c-50.9,0.4-98.4-9.3-134.7-48.3c-55-59.1-66.1-144.4-29-214.2c35.2-66.1,103.7-98.1,185.8-86.8c77.5,10.7,133.8,81.4,125.8,159
	c-3.5,33.4-15.8,62.9-46.1,81c-7.4,4.4-17.3,9.6-26.1,3.4c-8.1-5.7-5.4-15.6-4.6-23.7C674.1,370,679.5,325.7,684.7,281.3z
	 M601.7,415.9c-10.6,13.8-25.1,22-42.2,17.9c-16.9-4.1-22.2-19.9-25.3-35.4c-1.3-6.7-1.1-13.8-1.6-20.7c0.2-14.9,3.1-29.1,11.5-41.6
	c9.1-13.6,21-23,38.4-20c18.4,3.1,30.3,14.8,34.7,32.7C623.3,373.5,617,396,601.7,415.9z M684.7,281.3c1.2-10.4,6.3-24.7-7.7-27.7
	c-16.3-3.4-38.2-10.7-48.7,6.8c-7.4,12.3-10.2,7.6-17.6,3.8c-30.9-15.8-61.1-13.1-89.5,6c-50.1,33.7-66.9,106.1-40,168
	c24.7,56.9,92.7,79.5,139.3,30.2c35.5,33.8,80.3,34.7,120.5,3.7c64.5-49.6,83.1-143.9,43.2-219.1
	c-70.2-132.2-263.6-153.5-371.7-40.9C292.5,337.3,350,545,517.4,589.7c67.2,17.9,132.6,8.5,196.9-14.9c17.9-6.5,30.9-15.8,25.7-36.7
	c-4.6-18.4-21.9-23.6-45.6-14.7C663.3,535,631.6,543.8,598,544c-50.9,0.4-98.4-9.3-134.7-48.3c-55-59.1-66.1-144.4-29-214.2
	c35.2-66.1,103.7-98.1,185.8-86.8c77.5,10.7,133.8,81.4,125.8,159c-3.5,33.4-15.8,62.9-46.1,81c-7.4,4.4-17.3,9.6-26.1,3.4
	c-8.1-5.7-5.4-15.6-4.6-23.7C674.1,370,679.5,325.7,684.7,281.3z M601.7,415.9c-10.6,13.8-25.1,22-42.2,17.9
	c-16.9-4.1-22.2-19.9-25.3-35.4c-1.3-6.7-1.1-13.8-1.6-20.7c0.2-14.9,3.1-29.1,11.5-41.6c9.1-13.6,21-23,38.4-20
	c18.4,3.1,30.3,14.8,34.7,32.7C623.3,373.5,617,396,601.7,415.9z M684.7,281.3c1.2-10.4,6.3-24.7-7.7-27.7
	c-16.3-3.4-38.2-10.7-48.7,6.8c-7.4,12.3-10.2,7.6-17.6,3.8c-30.9-15.8-61.1-13.1-89.5,6c-50.1,33.7-66.9,106.1-40,168
	c24.7,56.9,92.7,79.5,139.3,30.2c35.5,33.8,80.3,34.7,120.5,3.7c64.5-49.6,83.1-143.9,43.2-219.1
	c-70.2-132.2-263.6-153.5-371.7-40.9C292.5,337.3,350,545,517.4,589.7c67.2,17.9,132.6,8.5,196.9-14.9c17.9-6.5,30.9-15.8,25.7-36.7
	c-4.6-18.4-21.9-23.6-45.6-14.7C663.3,535,631.6,543.8,598,544c-50.9,0.4-98.4-9.3-134.7-48.3c-55-59.1-66.1-144.4-29-214.2
	c35.2-66.1,103.7-98.1,185.8-86.8c77.5,10.7,133.8,81.4,125.8,159c-3.5,33.4-15.8,62.9-46.1,81c-7.4,4.4-17.3,9.6-26.1,3.4
	c-8.1-5.7-5.4-15.6-4.6-23.7C674.1,370,679.5,325.7,684.7,281.3z M601.7,415.9c-10.6,13.8-25.1,22-42.2,17.9
	c-16.9-4.1-22.2-19.9-25.3-35.4c-1.3-6.7-1.1-13.8-1.6-20.7c0.2-14.9,3.1-29.1,11.5-41.6c9.1-13.6,21-23,38.4-20
	c18.4,3.1,30.3,14.8,34.7,32.7C623.3,373.5,617,396,601.7,415.9z M684.7,281.3c1.2-10.4,6.3-24.7-7.7-27.7
	c-16.3-3.4-38.2-10.7-48.7,6.8c-7.4,12.3-10.2,7.6-17.6,3.8c-30.9-15.8-61.1-13.1-89.5,6c-50.1,33.7-66.9,106.1-40,168
	c24.7,56.9,92.7,79.5,139.3,30.2c35.5,33.8,80.3,34.7,120.5,3.7c64.5-49.6,83.1-143.9,43.2-219.1
	c-70.2-132.2-263.6-153.5-371.7-40.9C292.5,337.3,350,545,517.4,589.7c67.2,17.9,132.6,8.5,196.9-14.9c17.9-6.5,30.9-15.8,25.7-36.7
	c-4.6-18.4-21.9-23.6-45.6-14.7C663.3,535,631.6,543.8,598,544c-50.9,0.4-98.4-9.3-134.7-48.3c-55-59.1-66.1-144.4-29-214.2
	c35.2-66.1,103.7-98.1,185.8-86.8c77.5,10.7,133.8,81.4,125.8,159c-3.5,33.4-15.8,62.9-46.1,81c-7.4,4.4-17.3,9.6-26.1,3.4
	c-8.1-5.7-5.4-15.6-4.6-23.7C674.1,370,679.5,325.7,684.7,281.3z M601.7,415.9c-10.6,13.8-25.1,22-42.2,17.9
	c-16.9-4.1-22.2-19.9-25.3-35.4c-1.3-6.7-1.1-13.8-1.6-20.7c0.2-14.9,3.1-29.1,11.5-41.6c9.1-13.6,21-23,38.4-20
	c18.4,3.1,30.3,14.8,34.7,32.7C623.3,373.5,617,396,601.7,415.9z M1154.6,496c0.1-21.8-7.5-35.4-25.4-47.4
	c-45.4-30.4-89.3-63-134.5-93.6c-12.2-8.3-17-16.7-16.8-31.7c0.9-92.5,0.6-185,0.7-277.4c0-36.4-9-45.8-44.2-45.8
	C696.2,0,458.1,0,220,0.1c-34.8,0-43.1,8.7-43.2,44.1c-0.3,93.2-0.7,186.5-0.3,279.7c0.1,13-3.7,21.1-14.6,28.3
	c-44.7,30-88.3,61.8-133.5,91C8.1,456.4-0.1,471.6,0,496.1c1,204.2,0.8,408.4,1,612.6c0,38.7,5.6,44.3,44.1,44.3
	c176.5,0,352.9,0,529.4,0l0,0c177.3,0,354.5,0,531.7,0c39.5,0,48.2-8.9,48.2-49C1154.4,901.4,1154,698.7,1154.6,496z M978.9,429.5
	c26.9,18.5,51.6,35.5,77.9,53.6c-26.2,18.1-50.4,34.8-77.9,53.8V429.5z M246.2,86.3c-0.1-15.6,5.8-17,18.7-17
	c104.8,0.4,209.7,0.3,314.5,0.3l0,0c103.3,0,206.6,0.4,309.8-0.4c16.5-0.1,20.1,4.4,20,20.4c-0.7,159.5-0.6,319.1-0.3,478.6
	c0,12.8-3.6,20.7-14.4,28.1c-64.7,44.4-129.1,89.4-193.1,134.8c-9.7,6.8-16.2,7.6-25.6-0.2c-23.1-19.1-47.5-36.8-70.8-55.7
	c-18.3-14.9-35.7-15-54.2-0.4c-24.2,19.1-49.2,37.1-73,56.7c-8.9,7.3-15,6.5-23.7,0.4c-65-45.3-130.2-90.4-195.6-135.2
	c-9.2-6.3-12.7-13.4-12.6-24.7C246.4,410,246.7,248.1,246.2,86.3z M175.3,428.1v111.1c-27.8-19.3-53.1-36.8-80.6-55.9
	C121.7,464.8,146.8,447.6,175.3,428.1z M69.1,551c113.5,78.2,225.2,155.2,339.3,234c-112.7,87.6-224.1,174-339.3,263.6V551z
	 M139.7,1081.9C283.2,970.6,423.8,861.7,564,752.3c10.1-7.9,16.2-8.6,26.9-0.2c140.1,109.5,280.8,218.3,424.5,329.8H139.7z
	 M1083.9,1047.1c-113.6-88.1-224.8-174.4-338-262.2c112.6-78.4,224-155.8,338-235.1V1047.1z M517.4,589.7
	c67.2,17.9,132.6,8.5,196.9-14.9c17.9-6.5,30.9-15.8,25.7-36.7c-4.6-18.4-21.9-23.6-45.6-14.7C663.3,535,631.6,543.8,598,544
	c-50.9,0.4-98.4-9.3-134.7-48.3c-55-59.1-66.1-144.4-29-214.2c35.2-66.1,103.7-98.1,185.8-86.8c77.5,10.7,133.8,81.4,125.8,159
	c-3.5,33.4-15.8,62.9-46.1,81c-7.4,4.4-17.3,9.6-26.1,3.4c-8.1-5.7-5.4-15.6-4.6-23.7c4.9-44.4,10.4-88.7,15.5-133
	c1.2-10.4,6.3-24.7-7.7-27.7c-16.3-3.4-38.2-10.7-48.7,6.8c-7.4,12.3-10.2,7.6-17.6,3.8c-30.9-15.8-61.1-13.1-89.5,6
	c-50.1,33.7-66.9,106.1-40,168c24.7,56.9,92.7,79.5,139.3,30.2c35.5,33.8,80.3,34.7,120.5,3.7c64.5-49.6,83.1-143.9,43.2-219.1
	c-70.2-132.2-263.6-153.5-371.7-40.9C292.5,337.3,350,545,517.4,589.7z M601.7,415.9c-10.6,13.8-25.1,22-42.2,17.9
	c-16.9-4.1-22.2-19.9-25.3-35.4c-1.3-6.7-1.1-13.8-1.6-20.7c0.2-14.9,3.1-29.1,11.5-41.6c9.1-13.6,21-23,38.4-20
	c18.4,3.1,30.3,14.8,34.7,32.7C623.3,373.5,617,396,601.7,415.9z M684.7,281.3c1.2-10.4,6.3-24.7-7.7-27.7
	c-16.3-3.4-38.2-10.7-48.7,6.8c-7.4,12.3-10.2,7.6-17.6,3.8c-30.9-15.8-61.1-13.1-89.5,6c-50.1,33.7-66.9,106.1-40,168
	c24.7,56.9,92.7,79.5,139.3,30.2c35.5,33.8,80.3,34.7,120.5,3.7c64.5-49.6,83.1-143.9,43.2-219.1
	c-70.2-132.2-263.6-153.5-371.7-40.9C292.5,337.3,350,545,517.4,589.7c67.2,17.9,132.6,8.5,196.9-14.9c17.9-6.5,30.9-15.8,25.7-36.7
	c-4.6-18.4-21.9-23.6-45.6-14.7C663.3,535,631.6,543.8,598,544c-50.9,0.4-98.4-9.3-134.7-48.3c-55-59.1-66.1-144.4-29-214.2
	c35.2-66.1,103.7-98.1,185.8-86.8c77.5,10.7,133.8,81.4,125.8,159c-3.5,33.4-15.8,62.9-46.1,81c-7.4,4.4-17.3,9.6-26.1,3.4
	c-8.1-5.7-5.4-15.6-4.6-23.7C674.1,370,679.5,325.7,684.7,281.3z M601.7,415.9c-10.6,13.8-25.1,22-42.2,17.9
	c-16.9-4.1-22.2-19.9-25.3-35.4c-1.3-6.7-1.1-13.8-1.6-20.7c0.2-14.9,3.1-29.1,11.5-41.6c9.1-13.6,21-23,38.4-20
	c18.4,3.1,30.3,14.8,34.7,32.7C623.3,373.5,617,396,601.7,415.9z M684.7,281.3c1.2-10.4,6.3-24.7-7.7-27.7
	c-16.3-3.4-38.2-10.7-48.7,6.8c-7.4,12.3-10.2,7.6-17.6,3.8c-30.9-15.8-61.1-13.1-89.5,6c-50.1,33.7-66.9,106.1-40,168
	c24.7,56.9,92.7,79.5,139.3,30.2c35.5,33.8,80.3,34.7,120.5,3.7c64.5-49.6,83.1-143.9,43.2-219.1
	c-70.2-132.2-263.6-153.5-371.7-40.9C292.5,337.3,350,545,517.4,589.7c67.2,17.9,132.6,8.5,196.9-14.9c17.9-6.5,30.9-15.8,25.7-36.7
	c-4.6-18.4-21.9-23.6-45.6-14.7C663.3,535,631.6,543.8,598,544c-50.9,0.4-98.4-9.3-134.7-48.3c-55-59.1-66.1-144.4-29-214.2
	c35.2-66.1,103.7-98.1,185.8-86.8c77.5,10.7,133.8,81.4,125.8,159c-3.5,33.4-15.8,62.9-46.1,81c-7.4,4.4-17.3,9.6-26.1,3.4
	c-8.1-5.7-5.4-15.6-4.6-23.7C674.1,370,679.5,325.7,684.7,281.3z M601.7,415.9c-10.6,13.8-25.1,22-42.2,17.9
	c-16.9-4.1-22.2-19.9-25.3-35.4c-1.3-6.7-1.1-13.8-1.6-20.7c0.2-14.9,3.1-29.1,11.5-41.6c9.1-13.6,21-23,38.4-20
	c18.4,3.1,30.3,14.8,34.7,32.7C623.3,373.5,617,396,601.7,415.9z M684.7,281.3c1.2-10.4,6.3-24.7-7.7-27.7
	c-16.3-3.4-38.2-10.7-48.7,6.8c-7.4,12.3-10.2,7.6-17.6,3.8c-30.9-15.8-61.1-13.1-89.5,6c-50.1,33.7-66.9,106.1-40,168
	c24.7,56.9,92.7,79.5,139.3,30.2c35.5,33.8,80.3,34.7,120.5,3.7c64.5-49.6,83.1-143.9,43.2-219.1
	c-70.2-132.2-263.6-153.5-371.7-40.9C292.5,337.3,350,545,517.4,589.7c67.2,17.9,132.6,8.5,196.9-14.9c17.9-6.5,30.9-15.8,25.7-36.7
	c-4.6-18.4-21.9-23.6-45.6-14.7C663.3,535,631.6,543.8,598,544c-50.9,0.4-98.4-9.3-134.7-48.3c-55-59.1-66.1-144.4-29-214.2
	c35.2-66.1,103.7-98.1,185.8-86.8c77.5,10.7,133.8,81.4,125.8,159c-3.5,33.4-15.8,62.9-46.1,81c-7.4,4.4-17.3,9.6-26.1,3.4
	c-8.1-5.7-5.4-15.6-4.6-23.7C674.1,370,679.5,325.7,684.7,281.3z M601.7,415.9c-10.6,13.8-25.1,22-42.2,17.9
	c-16.9-4.1-22.2-19.9-25.3-35.4c-1.3-6.7-1.1-13.8-1.6-20.7c0.2-14.9,3.1-29.1,11.5-41.6c9.1-13.6,21-23,38.4-20
	c18.4,3.1,30.3,14.8,34.7,32.7C623.3,373.5,617,396,601.7,415.9z M684.7,281.3c1.2-10.4,6.3-24.7-7.7-27.7
	c-16.3-3.4-38.2-10.7-48.7,6.8c-7.4,12.3-10.2,7.6-17.6,3.8c-30.9-15.8-61.1-13.1-89.5,6c-50.1,33.7-66.9,106.1-40,168
	c24.7,56.9,92.7,79.5,139.3,30.2c35.5,33.8,80.3,34.7,120.5,3.7c64.5-49.6,83.1-143.9,43.2-219.1
	c-70.2-132.2-263.6-153.5-371.7-40.9C292.5,337.3,350,545,517.4,589.7c67.2,17.9,132.6,8.5,196.9-14.9c17.9-6.5,30.9-15.8,25.7-36.7
	c-4.6-18.4-21.9-23.6-45.6-14.7C663.3,535,631.6,543.8,598,544c-50.9,0.4-98.4-9.3-134.7-48.3c-55-59.1-66.1-144.4-29-214.2
	c35.2-66.1,103.7-98.1,185.8-86.8c77.5,10.7,133.8,81.4,125.8,159c-3.5,33.4-15.8,62.9-46.1,81c-7.4,4.4-17.3,9.6-26.1,3.4
	c-8.1-5.7-5.4-15.6-4.6-23.7C674.1,370,679.5,325.7,684.7,281.3z M601.7,415.9c-10.6,13.8-25.1,22-42.2,17.9
	c-16.9-4.1-22.2-19.9-25.3-35.4c-1.3-6.7-1.1-13.8-1.6-20.7c0.2-14.9,3.1-29.1,11.5-41.6c9.1-13.6,21-23,38.4-20
	c18.4,3.1,30.3,14.8,34.7,32.7C623.3,373.5,617,396,601.7,415.9z"/>
<path class="st1" d="M684.7,281.3c1.2-10.4,6.3-24.7-7.7-27.7c-16.3-3.4-38.2-10.7-48.7,6.8c-7.4,12.3-10.2,7.6-17.6,3.8
	c-30.9-15.8-61.1-13.1-89.5,6c-50.1,33.7-66.9,106.1-40,168c24.7,56.9,92.7,79.5,139.3,30.2c35.5,33.8,80.3,34.7,120.5,3.7
	c64.5-49.6,83.1-143.9,43.2-219.1c-70.2-132.2-263.6-153.5-371.7-40.9C292.5,337.3,350,545,517.4,589.7
	c67.2,17.9,132.6,8.5,196.9-14.9c17.9-6.5,30.9-15.8,25.7-36.7c-4.6-18.4-21.9-23.6-45.6-14.7C663.3,535,631.6,543.8,598,544
	c-50.9,0.4-98.4-9.3-134.7-48.3c-55-59.1-66.1-144.4-29-214.2c35.2-66.1,103.7-98.1,185.8-86.8c77.5,10.7,133.8,81.4,125.8,159
	c-3.5,33.4-15.8,62.9-46.1,81c-7.4,4.4-17.3,9.6-26.1,3.4c-8.1-5.7-5.4-15.6-4.6-23.7C674.1,370,679.5,325.7,684.7,281.3z
	 M601.7,415.9c-10.6,13.8-25.1,22-42.2,17.9c-16.9-4.1-22.2-19.9-25.3-35.4c-1.3-6.7-1.1-13.8-1.6-20.7c0.2-14.9,3.1-29.1,11.5-41.6
	c9.1-13.6,21-23,38.4-20c18.4,3.1,30.3,14.8,34.7,32.7C623.3,373.5,617,396,601.7,415.9z"/>
<path class="st0" d="M684.7,281.3c1.2-10.4,6.3-24.7-7.7-27.7c-16.3-3.4-38.2-10.7-48.7,6.8c-7.4,12.3-10.2,7.6-17.6,3.8
	c-30.9-15.8-61.1-13.1-89.5,6c-50.1,33.7-66.9,106.1-40,168c24.7,56.9,92.7,79.5,139.3,30.2c35.5,33.8,80.3,34.7,120.5,3.7
	c64.5-49.6,83.1-143.9,43.2-219.1c-70.2-132.2-263.6-153.5-371.7-40.9C292.5,337.3,350,545,517.4,589.7
	c67.2,17.9,132.6,8.5,196.9-14.9c17.9-6.5,30.9-15.8,25.7-36.7c-4.6-18.4-21.9-23.6-45.6-14.7C663.3,535,631.6,543.8,598,544
	c-50.9,0.4-98.4-9.3-134.7-48.3c-55-59.1-66.1-144.4-29-214.2c35.2-66.1,103.7-98.1,185.8-86.8c77.5,10.7,133.8,81.4,125.8,159
	c-3.5,33.4-15.8,62.9-46.1,81c-7.4,4.4-17.3,9.6-26.1,3.4c-8.1-5.7-5.4-15.6-4.6-23.7C674.1,370,679.5,325.7,684.7,281.3z
	 M601.7,415.9c-10.6,13.8-25.1,22-42.2,17.9c-16.9-4.1-22.2-19.9-25.3-35.4c-1.3-6.7-1.1-13.8-1.6-20.7c0.2-14.9,3.1-29.1,11.5-41.6
	c9.1-13.6,21-23,38.4-20c18.4,3.1,30.3,14.8,34.7,32.7C623.3,373.5,617,396,601.7,415.9z"/>
</svg>
