<?xml version="1.0" encoding="utf-8"?>
<!-- Generator: Adobe Illustrator 24.0.0, SVG Export Plug-In . SVG Version: 6.00 Build 0)  -->
<svg version="1.1" id="Layer_1" xmlns="http://www.w3.org/2000/svg" xmlns:xlink="http://www.w3.org/1999/xlink" x="0px" y="0px"
	 viewBox="0 0 1173.7 957.4" style="enable-background:new 0 0 1173.7 957.4;" xml:space="preserve">
<style type="text/css">
	.st0{fill:#000002;}
	.st1{fill:#FEFEFE;}
	.st2{fill:#FCFCFC;}
</style>
<path class="st0" d="M1170.6,529.7c-12.6-25.4-30.7-43.2-60.5-46c-21.4-2-42.3-0.3-62.2,8.3c-11.7,5-21,4.6-31.4-5.5
	c-17-16.4-38.8-18.3-61.7-14.7c-34.1,5.4-64.3,20.6-92.4,39.2c-25.8,17.1-47.5,22.4-80.1,10.2c-57.8-21.5-120.3-20.4-181.7-14.8
	c-20.1,1.8-38.2-0.7-56.5-10.3c-65.4-34-133-39.6-202.1-11.7c-61,24.6-113.9,62.6-166,101.7c-12.8,9.6-20.1,10.9-27.1-5.8
	c-7.7-18.4-19.6-23.7-38.7-11.3c-30.2,19.6-61.5,37.8-93.2,54.8c-19.1,10.3-21.4,20.3-10.2,39c54.7,91.5,108.2,183.8,162.1,275.7
	c13,22.2,19.9,23.7,43.2,10.1c28.4-16.6,56.9-33.1,85.4-49.7c27.1-15.8,27.9-17.3,11.9-45.3c-5.9-10.3-5.8-15.4,5.3-21.1
	c16-8.2,31.7-17.3,46.6-27.4c14.1-9.6,27.4-10.2,44-6.1c71,17.4,142.6,31.3,216,31.7c97.4,2.5,185.5-27,267-78.4
	c95.1-59.9,181-132.7,274.6-194.7C1174,550.3,1176.5,541.5,1170.6,529.7z M885.6,532.6c25.3-13.3,50.2-28.8,80.3-29.9
	c10.8-0.4,21.3-0.4,32,10.2c-46.8,25.6-89.4,55.2-132.4,85.9c-1.7-2.9-3.1-4.5-3.7-6.3C847.5,553.5,847.1,552.8,885.6,532.6z
	 M274.8,876.1c-23,13.3-46.2,26.4-68.9,40.3c-12.2,7.5-14.6-2.3-18.8-9.3c-48.1-81.6-95.9-163.3-144.2-244.7
	c-5.3-9-6.7-13.9,4.4-19.6c22.2-11.5,43.6-24.6,65.1-37.5c7.2-4.3,12-5.3,17,3.2c49.3,84.5,98.9,168.8,148.4,253.2
	c1.2,2,2.3,4.1,3.5,6.1h0C281.9,872.5,278.2,874.1,274.8,876.1z M1117.5,550.3c-63.7,47.1-129,92.1-191.6,140.6
	c-132.5,102.8-280,130.8-441.8,93.9c-23.7-5.4-47.9-9-70.9-16.5c-25-8.3-46.5-6.8-68.1,9.1c-14.4,10.6-31.1,18.1-46.4,27.6
	c-8.5,5.3-14.1,6.9-20.3-3.9c-31.8-54.9-64.1-109.6-96.9-163.9c-5.9-9.7-4.6-14.8,4.2-20.9c45.7-31.7,89.8-65.8,139.3-91.8
	c67.5-35.4,135.6-36.5,202.7-1.2c25.8,13.6,51.2,16.4,79.1,14.9c58-3.1,116.3-6.4,172.4,13.4c27.9,9.9,49.5,26.6,54.1,62.3
	c-64.6,0-128-0.5-191.4,0.4c-13.7,0.2-37-8.4-36.4,16.1c0.5,22.3,22.6,14,35.9,14.1c61.3,0.5,122.5-0.7,183.8,0
	c20.6,0.2,37.7-5,54.5-17.1c47-33.8,93.3-69,146.3-93.7c17.8-8.3,35.8-16.2,55.4-19c9.2-1.3,19.1-2.6,27.9-0.6
	c10.5,2.4,23.1,7.4,26,18C1138.2,542.7,1124.4,545.2,1117.5,550.3z"/>
<path class="st0" d="M866.6,13.3C812.8-14.2,747.9,1.7,705.5,53.8c-7.9,9.7-10.9,9.8-17.8-0.3c-24.3-35.7-57.8-54.4-95.2-51.7
	C519.2,2.2,468.9,42.5,459,107.3c-7.2,46.7,8.2,89.8,30,130.6c48.6,90.8,123.7,159.5,194.8,231.4c11.2,11.3,20.7,6,30-3.8
	c38.8-41.1,79.1-80.9,116.7-123c44-49.4,82.5-102.7,99.8-168.2C948.5,105.2,923.8,42.7,866.6,13.3z M904.9,140.9L904.9,140.9
	c-3,50.6-33.5,98.8-68.2,144.8c-38.9,51.5-84.7,96.8-130,142.6c-5.9,5.9-9.7,11.2-18.4,2.3c-60.8-62.4-123.7-122.9-167.6-199.3
	c-18.5-32.3-31.7-66.4-32-104.4c-0.3-39.1,24.8-76.7,60.5-89.8c42.1-15.4,81.3-5.5,107.9,28.3c8.7,11,15.2,23.7,22.8,35.5
	c11.4,17.5,22.5,17.7,33.6,0.4c5.1-7.9,9.2-16.4,14.3-24.3c27.3-42.1,64-55.5,111.5-41C879.5,48.2,905.9,86.6,904.9,140.9z"/>
<polygon class="st1" points="833.4,613.9 833.4,613.9 833.4,613.9 "/>
<polygon class="st2" points="998,513 998,513 998,513 "/>
</svg>
