<?xml version="1.0" encoding="utf-8"?>
<!-- Generator: Adobe Illustrator 24.0.0, SVG Export Plug-In . SVG Version: 6.00 Build 0)  -->
<svg version="1.1" id="Layer_1" xmlns="http://www.w3.org/2000/svg" xmlns:xlink="http://www.w3.org/1999/xlink" x="0px" y="0px"
	 viewBox="0 0 916.5 1095.4" style="enable-background:new 0 0 916.5 1095.4;" xml:space="preserve">
<path d="M618.2,476.7c-54.5,3.3-103.7,18.8-143.3,64.2c0-18.8,0.8-33.3-0.3-47.7c-1-12.9,3.1-18,16.5-18.8
	c28.7-1.7,56-9.9,80.8-24.7c58.7-34.8,76.1-91,78.9-154.3c1.2-26.7-5-32.6-31.8-30.8c-54.4,3.7-104.2,18.5-142.4,62.3
	c-5-31.9-4.7-59.9,22.9-80c3.5-2.5,5.9-6.4,8.6-9.9c37-48.3,49.9-100.1,22.1-157.3C517.1,52.5,497.9,29.6,476,8.9
	c-12.2-11.6-24.5-12-36.7-0.5c-75.8,70.7-101.5,153.1-21.8,240.5c22.1,24.2,24.8,47.7,20.7,76.7c-44.4-41.5-92-60.9-147.8-61.2
	c-14.7-0.1-26.6,2.6-26.7,20.8c-0.6,92.7,35.7,160.1,129.8,185.4c15.4,4.1,38.8-6.7,45.2,14.5c4.7,15.8,0,34.3-0.5,53.9
	c-42.3-46.7-94.9-61.7-153.2-62.4c-14.3-0.2-21.2,7-21.3,21.6c-0.4,84.1,32.1,160.4,128.6,183.9c10.6,2.6,21.5,5.6,32.2,5.6
	c14.6-0.1,15.9,7.1,15.5,18.9c-0.8,25.6,0.5,51.2-0.5,76.7c-0.6,17,11,11.3,19.2,11.9c8.7,0.7,17.2,2.3,16.6-12.2
	c-1.1-26.3,0.1-52.6-0.5-78.9c-0.3-10.5,1.9-15,13.7-16.2c28.4-2.9,56.1-9.4,81.1-24c59.6-34.8,78.1-91.2,81.3-155.4
	C652.2,480.3,646.1,475,618.2,476.7z M476.1,428.3c6.7-73.6,52.6-119.7,126.2-127c8.7-0.9,14.1-1.5,12.7,9.9
	c-9.6,77.7-49,120.6-130,128.2v0C475.6,441.5,475.4,436.4,476.1,428.3z M426.5,439.6L426.5,439.6c-71.6-4.8-122.3-56.1-126.8-127.2
	c-0.6-9.2,0.5-12.3,11.4-11.4c73.3,5.8,122.8,55.6,127.6,128.5C439.5,441.4,434.1,441.1,426.5,439.6z M439,644
	c-0.1,8.4-3.4,10.2-10.4,9.3c-82.2-10.9-119.5-52.1-129-129.8c-1.6-13.2,6.8-9.5,13.6-9.5C382.8,517.3,440.1,576.8,439,644z
	 M466.2,231.5c-4.9,4.6-8.3,9.8-15.7,2.2c-25.6-26.3-44-55.8-46.4-93.3h0c3-37.9,21.8-67.3,47.4-93.4c6.5-6.6,9.8-1.5,14.1,2.4
	C522.8,100.9,523,178.6,466.2,231.5z M615.1,526c-4.8,71.3-58.9,124.5-129.5,126v0c-9.9,2.7-10.2-2.9-9.6-10.8
	c4.9-71.3,52.4-120.3,123.6-127.1C608.4,513.3,616.1,511.1,615.1,526z"/>
<path d="M795.2,601.8c56.8,29.4,65.4,78.8,24.8,120.6c-30.5,31.5-62.5,61.6-92.7,93.4c-10.1,10.6-15,5.9-21.7-2.1
	c-6.1-7.2-17-11.5-4.2-23.7c32.9-31.2,64.5-63.7,96.6-95.8c12.2-12.2,15.7-26.3,7.7-41.8c-6.8-13.2-18.6-17.6-33.2-15.9
	c-8.8,1-14.5,6.4-20.2,12c-48.1,48-96,96.3-144.5,144c-8.3,8.2-9.7,16.8-9.7,27.5c0.2,84.8-0.1,169.6,0.3,254.5
	c0.1,13.2-0.1,21-17.7,20.9c-17.4-0.1-18.1-7.5-18-21c0.5-88.5,0.5-177,0-265.4c-0.1-15.2,4.9-26.1,15.5-36.6
	c67.5-66.9,134.4-134.5,201.8-201.5c8.9-8.9,12.9-17.8,12.8-30.6c-0.6-63.6-0.2-127.2-0.3-190.9c-0.1-27.4,11.4-48.3,35.6-60.8
	c21.4-11.1,42.2-7.2,62.1,5.6c19.3,12.4,26,31.2,26.1,52.4c0.4,126.5,0.2,253,0.3,379.5c0,11-5,19.3-11.5,27.5
	c-46,58.6-91.6,117.5-137.8,176c-7.2,9.2-10.5,18.3-10.4,29.9c0.5,39.5-0.5,79,0.6,118.4c0.4,14.1-4.3,17.4-17.4,16.9
	c-11.6-0.4-19-0.6-18.7-16c1-44.6,0.7-89.2,0.2-133.8c-0.1-13,6.5-22,13.8-31.2c44.6-57,88.9-114.1,133.9-170.7
	c8.7-11,12.2-21.9,12.1-35.8c-0.5-115.5-0.3-231.1-0.3-346.6c0-2.9,0.1-5.9,0-8.8c-0.7-22.3-11.5-36.5-27.7-34.6
	c-19.8,2.3-25.6,16-25.5,34.4c0.3,56.3-0.5,112.6,0.3,168.9C828.6,551.8,831.7,583.1,795.2,601.8L795.2,601.8z"/>
<path d="M118.2,601.2c-35.8-18.4-31.5-50.6-31.1-82.2c0.7-54.1,0.2-108.2,0.2-162.3c0-8.8,0.3-17.8-4.3-25.6
	c-5.6-9.5-14.3-15.3-25.5-13.5c-11.5,1.9-20.3,8.5-22.3,20.9c-1,6.4-0.9,13.1-0.9,19.7c0,117,0.2,234-0.3,351
	c0,13.2,3.4,23.5,11.6,33.9c45.3,57.3,89.9,115.1,135.2,172.4c8.6,10.9,12.8,22,12.6,36c-0.7,42.4-0.9,84.8,0.1,127.2
	c0.4,15-6,16.4-18.1,16.4c-12.1,0-18.3-1.2-17.9-16.2c1.2-38.7,0-77.5,0.6-116.2c0.2-13.1-3-23.4-11.4-33.9
	C101.3,871.5,57,813.4,11.6,756.2C3.3,745.8,0,735.5,0,722.3c0.3-123.6,0.2-247.1,0.2-370.7c0-41.2,23.6-68.8,59.2-69.5
	c35.4-0.7,62.7,28.6,63,69.6c0.5,61.4,0.7,122.9-0.3,184.3c-0.3,16,4.6,27,15.8,38.1c66.6,65.8,132.3,132.4,198.7,198.3
	c10.6,10.5,15.4,21.4,15.3,36.5c-0.6,89.2-0.6,178.4,0,267.6c0.1,13.9-2.9,18.8-17.8,18.6c-14.1-0.2-18.2-3.7-18.1-18.1
	c0.7-85.5,0.1-171.1,0.6-256.6c0.1-12.6-3.2-21.6-12.4-30.6C257.8,744.2,212.1,698,166.1,652c-18.7-18.7-37-21.1-51.4-7.1
	c-14.9,14.5-12.7,34.3,6.4,53.5c29.4,29.5,58.5,59.4,88.8,88c11,10.4,11.4,16.2,0.5,27.3c-10.7,10.8-16,9-25.4-0.8
	c-27.3-28.5-55.7-56-83.6-83.9C53.7,681.4,58.5,637.1,118.2,601.2L118.2,601.2z"/>
</svg>
