<?xml version="1.0" encoding="utf-8"?>
<!-- Generator: Adobe Illustrator 24.0.0, SVG Export Plug-In . SVG Version: 6.00 Build 0)  -->
<svg version="1.1" id="Layer_1" xmlns="http://www.w3.org/2000/svg" xmlns:xlink="http://www.w3.org/1999/xlink" x="0px" y="0px"
	 viewBox="0 0 1324.6 1260.1" style="enable-background:new 0 0 1324.6 1260.1;" xml:space="preserve">
<path d="M379.1,1259.2c-52.7,8.3-93.7-55.3-66.8-107.9c47-91.7,93.2-183.8,139.8-275.6C591.9,600,731.7,324.4,871.6,48.8
	c23.2-45.6,64.6-60.7,105.2-39.1c38.5,20.4,51.3,64.5,29.8,107.2c-51.8,103.1-104.2,205.8-156.4,308.7
	c-132.6,261.5-265.2,523-397.7,784.6C436.7,1241.6,416.3,1264.9,379.1,1259.2L379.1,1259.2z"/>
<path d="M1040.7,600.8c-157-0.6-285.9,126.5-287.8,285.2c-1.9,162,127,290.9,293.2,290.3c159.6-0.6,284.7-142.3,278.2-284.7
	C1331.9,741.9,1203,601.4,1040.7,600.8z M1038.3,1025.3c-72.9-0.6-134-62.4-134.5-135.8c-0.5-74.8,60.8-136.9,135.3-137.2
	c74.5-0.3,135.5,61.2,135.7,136.6C1175,962.8,1111.9,1025.9,1038.3,1025.3z"/>
<path d="M284.8,86.2C120.5,85.8-8.4,229.7,0.4,372.7c-8.5,146.4,119,289.6,284.5,289.1c156.8-0.5,287.8-130.7,287.1-286.5
	C571.4,215.8,442.5,86.5,284.8,86.2z M283.6,510.6c-75.7-0.6-134.3-62.5-133.9-141.4c0.3-71.5,62-130.2,136.3-129.8
	c75.4,0.4,135.6,61.8,134.8,137.6C420.1,449.3,356.5,511.2,283.6,510.6z"/>
</svg>
