<?xml version="1.0" encoding="utf-8"?>
<!-- Generator: Adobe Illustrator 24.0.0, SVG Export Plug-In . SVG Version: 6.00 Build 0)  -->
<svg version="1.1" id="Layer_1" xmlns="http://www.w3.org/2000/svg" xmlns:xlink="http://www.w3.org/1999/xlink" x="0px" y="0px"
	 viewBox="0 0 1153.7 1155.5" style="enable-background:new 0 0 1153.7 1155.5;" xml:space="preserve">
<style type="text/css">
	.st0{fill:#FEFEFE;}
</style>
<path d="M856.6,709c-25.8-11.7-52.5-21.4-78.6-32.3c-72.8-30.5-73.4-31.1-129.3,25.5c-13.2,13.4-23,12.5-37.8,4.5
	c-58.9-31.5-105.6-76.3-143.3-130.7c-34.7-50.2-34.8-50.9,7.7-93.1c22.5-22.4,27.1-46.9,15.2-75.6c-14.6-35.4-28.7-71-43.7-106.2
	c-20.8-48.7-58.4-58.4-101.7-26.7c-77.6,56.8-108.5,139.8-82.6,238.4c41.6,158.7,141.5,271.1,286.2,345c49,25,100.7,41.3,156.5,41.4
	v0c76.9,0,135.9-32.9,178.3-96.4C909.3,764.2,899.2,728.3,856.6,709z M857,783.1c-44.8,69.1-122.5,98.2-210.3,75.9
	C524,827.8,432.3,752.8,361,650.7c-42-60.1-70.4-125.7-73.6-197.1v0c0.7-70,30.4-120.8,85-157.9c17.6-11.9,32.2-8.1,40.8,11.7
	c16.8,38.6,32.7,77.7,48.4,116.8c5,12.4,2.5,23.5-8.2,33.2c-12.5,11.3-22.9,25.2-36,35.6c-16.4,12.9-17.2,26.8-9.1,44
	c46.2,97.6,117.3,169.4,217.8,211.1c13.9,5.8,22.7,3.2,31.6-7.9c6.7-8.3,15-15.5,22.5-23.1c21.3-21.6,45.6-26.8,72.9-15.6
	c30.5,12.5,60.8,25.3,91.1,38.4C866.5,749.5,870.2,762.8,857,783.1z"/>
<path d="M575.6,0C244.9,0.4-9.3,282.5,0.3,575.1c-9.3,323.4,270.6,581.4,577.4,580.4c310.2-1,575.9-262,576.1-576.5
	C1153.9,266.6,893.6-0.4,575.6,0z M584,1122.2C272.2,1122.3,31.1,882,31.5,571.3c0.3-295.2,246-537.9,544.6-538.2
	c300.2-0.3,545.6,245.3,545,545.4C1120.6,875.5,876.9,1122.1,584,1122.2z"/>
<path class="st0" d="M856.6,709c-25.8-11.7-52.5-21.4-78.6-32.3c-72.8-30.5-73.4-31.1-129.3,25.5c-13.2,13.4-23,12.5-37.8,4.5
	c-58.9-31.5-105.6-76.3-143.3-130.7c-34.7-50.2-34.8-50.9,7.7-93.1c22.5-22.4,27.1-46.9,15.2-75.6c-14.6-35.4-28.7-71-43.7-106.2
	c-20.8-48.7-58.4-58.4-101.7-26.7c-77.6,56.8-108.5,139.8-82.6,238.4c41.6,158.7,141.5,271.1,286.2,345c49,25,100.7,41.3,156.5,41.4
	v0c76.9,0,135.9-32.9,178.3-96.4C909.3,764.2,899.2,728.3,856.6,709z M857,783.1c-44.8,69.1-122.5,98.2-210.3,75.9
	C524,827.8,432.3,752.8,361,650.7c-42-60.1-70.4-125.7-73.6-197.1v0c0.7-70,30.4-120.8,85-157.9c17.6-11.9,32.2-8.1,40.8,11.7
	c16.8,38.6,32.7,77.7,48.4,116.8c5,12.4,2.5,23.5-8.2,33.2c-12.5,11.3-22.9,25.2-36,35.6c-16.4,12.9-17.2,26.8-9.1,44
	c46.2,97.6,117.3,169.4,217.8,211.1c13.9,5.8,22.7,3.2,31.6-7.9c6.7-8.3,15-15.5,22.5-23.1c21.3-21.6,45.6-26.8,72.9-15.6
	c30.5,12.5,60.8,25.3,91.1,38.4C866.5,749.5,870.2,762.8,857,783.1z"/>
<path d="M856.6,709c-25.8-11.7-52.5-21.4-78.6-32.3c-72.8-30.5-73.4-31.1-129.3,25.5c-13.2,13.4-23,12.5-37.8,4.5
	c-58.9-31.5-105.6-76.3-143.3-130.7c-34.7-50.2-34.8-50.9,7.7-93.1c22.5-22.4,27.1-46.9,15.2-75.6c-14.6-35.4-28.7-71-43.7-106.2
	c-20.8-48.7-58.4-58.4-101.7-26.7c-77.6,56.8-108.5,139.8-82.6,238.4c41.6,158.7,141.5,271.1,286.2,345c49,25,100.7,41.3,156.5,41.4
	v0c76.9,0,135.9-32.9,178.3-96.4C909.3,764.2,899.2,728.3,856.6,709z M857,783.1c-44.8,69.1-122.5,98.2-210.3,75.9
	C524,827.8,432.3,752.8,361,650.7c-42-60.1-70.4-125.7-73.6-197.1v0c0.7-70,30.4-120.8,85-157.9c17.6-11.9,32.2-8.1,40.8,11.7
	c16.8,38.6,32.7,77.7,48.4,116.8c5,12.4,2.5,23.5-8.2,33.2c-12.5,11.3-22.9,25.2-36,35.6c-16.4,12.9-17.2,26.8-9.1,44
	c46.2,97.6,117.3,169.4,217.8,211.1c13.9,5.8,22.7,3.2,31.6-7.9c6.7-8.3,15-15.5,22.5-23.1c21.3-21.6,45.6-26.8,72.9-15.6
	c30.5,12.5,60.8,25.3,91.1,38.4C866.5,749.5,870.2,762.8,857,783.1z"/>
</svg>
