<?xml version="1.0" encoding="utf-8"?>
<!-- Generator: Adobe Illustrator 24.0.0, SVG Export Plug-In . SVG Version: 6.00 Build 0)  -->
<svg version="1.1" id="Layer_1" xmlns="http://www.w3.org/2000/svg" xmlns:xlink="http://www.w3.org/1999/xlink" x="0px" y="0px"
	 viewBox="0 0 1053.3 1050.5" style="enable-background:new 0 0 1053.3 1050.5;" xml:space="preserve">
<style type="text/css">
	.st0{fill:#FEFEFE;}
</style>
<path d="M729.1,741.6c11.8,12.9,7.5,31.2-8.9,46.4c-39.3,36.4-85.3,45-136.5,32.2c-38.1-9.5-71.4-28-100.7-53.9
	c-106.7-94.4-156.5-204.1-157.9-351c-1.9-47.9,11.7-94.7,42.3-136.3c25.6-34.8,59.6-54.5,103.3-54.7c25-0.1,34,8.6,36.6,33.1
	c3.9,36.9,7.7,73.8,10.7,110.8c2.5,31.3-11.9,44.1-43.9,43.2c-42.9-1.2-36.5-7.9-34.3,35.7c4.6,92.2,46.2,167,112.5,229.5
	c9,8.5,13.3,6,19.3-1.9c6.8-8.9,13.7-17.8,21.5-25.8c14.3-14.9,29.9-17.1,44.4-2.9C669.1,676.9,699.5,709,729.1,741.6z"/>
<path d="M524.6,0C255.7-2.5-18.9,230.8,1,559.1c16.6,273,250.9,496.4,522.9,491.2c280,6.4,530-224.7,529.4-526.3
	C1052.7,233.5,815.3,2.8,524.6,0z M523.3,971.5L523.3,971.5C267,966.9,74.6,764.5,80.1,505.5C85.1,271.1,292.9,75.3,531.7,80
	c250.8,4.9,445.9,207,441.6,457.4C969.1,777,763.1,975.7,523.3,971.5z"/>
<path class="st0" d="M720.2,788c-39.3,36.4-85.3,45-136.5,32.2c-38.1-9.5-71.4-28-100.7-53.9c-106.7-94.4-156.5-204.1-157.9-351
	c-1.9-47.9,11.7-94.7,42.3-136.3c25.6-34.8,59.6-54.5,103.3-54.7c25-0.1,34,8.6,36.6,33.1c3.9,36.9,7.7,73.8,10.7,110.8
	c2.5,31.3-11.9,44.1-43.9,43.2c-42.9-1.2-36.5-7.9-34.3,35.7c4.6,92.2,46.2,167,112.5,229.5c9,8.5,13.3,6,19.3-1.9
	c6.8-8.9,13.7-17.8,21.5-25.8c14.3-14.9,29.9-17.1,44.4-2.9c31.5,30.8,61.9,62.9,91.5,95.5C740.9,754.5,736.6,772.8,720.2,788z"/>
<path d="M720.2,788c-39.3,36.4-85.3,45-136.5,32.2c-38.1-9.5-71.4-28-100.7-53.9c-106.7-94.4-156.5-204.1-157.9-351
	c-1.9-47.9,11.7-94.7,42.3-136.3c25.6-34.8,59.6-54.5,103.3-54.7c25-0.1,34,8.6,36.6,33.1c3.9,36.9,7.7,73.8,10.7,110.8
	c2.5,31.3-11.9,44.1-43.9,43.2c-42.9-1.2-36.5-7.9-34.3,35.7c4.6,92.2,46.2,167,112.5,229.5c9,8.5,13.3,6,19.3-1.9
	c6.8-8.9,13.7-17.8,21.5-25.8c14.3-14.9,29.9-17.1,44.4-2.9c31.5,30.8,61.9,62.9,91.5,95.5C740.9,754.5,736.6,772.8,720.2,788z"/>
</svg>
