<?xml version="1.0" encoding="utf-8"?>
<!-- Generator: Adobe Illustrator 24.0.0, SVG Export Plug-In . SVG Version: 6.00 Build 0)  -->
<svg version="1.1" id="Layer_1" xmlns="http://www.w3.org/2000/svg" xmlns:xlink="http://www.w3.org/1999/xlink" x="0px" y="0px"
	 viewBox="0 0 1241.3 1287.6" style="enable-background:new 0 0 1241.3 1287.6;" xml:space="preserve">
<style type="text/css">
	.st0{fill:#282828;}
</style>
<path class="st0" d="M1228,1037.9c-9.1-19.1-20.9-36.5-34.7-52.4c-39.1-45.1-81.3-87.3-125.2-127.8c-20-18.5-42.1-34.5-65.5-48.4
	c-67-39.8-131-40.5-195.1,9.3c-64.8,50.3-119.6,48.7-184-1.3c-60.7-47.1-110.5-105-159-164c-49.7-60.4-67.1-130.7-0.5-206
	c52.5-59.4,53.4-123.6,17.3-189.8C431.1,165.3,359.1,90.8,278.2,25.5C241.4-4.2,196.4-10,155.8,19.1C75.5,76.9,19.2,151,4.5,252.6
	C-10.4,354.7,13,450,55.4,540.9C186.7,822.5,390,1040.4,654.8,1200c87.3,52.6,182.3,90,287.9,87.4l0,0c24.5-0.9,49-0.6,73.4-4.8
	c79.4-13.8,138.3-60.4,191.4-117.2C1244.2,1126.4,1251.1,1086.4,1228,1037.9z M1153.4,1136.8c-58.2,61.1-127,95-212.3,93.3h0
	c-81.6-1.2-157.6-25.9-227.2-65.7c-281.6-161.1-494.7-385.6-621-687C58,394.2,46,307.3,73.1,217.9c19.4-63.8,63.2-108.2,112.7-148.1
	c19.7-15.9,43.5-10.9,60.8,4.5c72.3,64.2,141.2,131.7,186.8,218.6c20.6,39.2,19.1,76.6-11.4,112c-36.8,42.8-62.4,90.5-59.7,149.9
	c1.9,40.8,13.8,77.4,37.9,110C455.7,740,519.7,807.3,591,867.5c63.9,53.9,150.3,60.7,222.7,18.1c11.3-6.6,22.1-14.2,33.2-21.3
	c53.9-34.9,84.4-35.8,137.1,1.9c69,49.3,126.8,110.7,179.4,176.7C1192.6,1079.8,1186.6,1102,1153.4,1136.8z"/>
</svg>
