<?xml version="1.0" encoding="UTF-8"?>
<svg id="Layer_1" data-name="Layer 1" xmlns="http://www.w3.org/2000/svg" viewBox="0 0 1233.39 1234.32">
  <path d="M916.96,1234.04c-115.18-.1-209.24-38.45-301.31-85.75-151.82-78-468.5-394.19-541.31-548.7C30.02,505.57-6.11,410.62.87,304.96,8.71,186.01,56.87,87.82,158.43,20.61c48.55-32.13,96.18-26.41,136.65,15.13,48.85,50.15,82.89,109.3,99.65,177.44,10.01,40.72,5.91,77.65-32.22,105.27-21.45,15.54-38.11,36.83-54.58,57.84-31.01,39.56-36.03,80.26-9.96,124.59,14.45,24.56,29.59,48.55,48.19,70.02,101.57,117.33,211.04,226.76,329.43,327.14,21.7,18.4,46.91,31.56,72.16,44.72,31.8,16.57,61.32,12.62,91.11-4.57,30.65-17.68,56.69-40.88,78.27-68.32,23.45-29.82,53.25-37.32,88.08-30.55,71.7,13.93,135.45,44.14,187.99,95.72,48.37,47.49,53.34,97.26,13.39,152.42-57.72,79.68-137.03,124.94-233.48,140.79-21.66,3.56-43.49,7.1-56.16,5.79Z" style="stroke-width: 0px;"/>
  <path d="M636.64,80.77c220.84,13.33,412.21,144.7,498.22,354.34,22.74,55.44,36.29,113.02,41.13,172.86,2.94,36.3-11.47,62.1-38.84,64.65-30.75,2.87-53.31-17.08-56.02-53.73-4.73-63.9-20.28-124.6-49.89-181.31-81.88-156.86-211.77-243.22-387.36-260.88-46.84-4.71-69-30.49-54.86-66.57,8.62-22,25.59-29.59,47.62-29.37Z" style="stroke-width: 0px;"/>
  <path d="M954.87,610.34c1.09,36.6-15.66,57.98-42.3,60.46-25.13,2.34-47.91-15.94-52.09-45.96-7.4-53.08-26.09-100.89-61.57-141.14-38.07-43.18-85.73-70.64-142.49-81.73-9.88-1.93-19.87-3.46-29.62-5.94-28.26-7.19-42.72-27.82-38.45-54.19,4.09-25.3,23.14-41.15,51.2-39.07,67.55,5.01,127.86,29.74,181.26,71.11,79.49,61.58,123.02,143.25,134.05,236.47Z" style="stroke-width: 0px;"/>
</svg>