<?xml version="1.0" encoding="utf-8"?>
<!-- Generator: Adobe Illustrator 24.0.0, SVG Export Plug-In . SVG Version: 6.00 Build 0)  -->
<svg version="1.1" id="Layer_1" xmlns="http://www.w3.org/2000/svg" xmlns:xlink="http://www.w3.org/1999/xlink" x="0px" y="0px"
	 viewBox="0 0 1185.4 1186.8" style="enable-background:new 0 0 1185.4 1186.8;" xml:space="preserve">
<style type="text/css">
	.st0{fill:#FEFEFE;}
</style>
<path d="M947.8,591.6c1.5,24.4-15,40.8-44,41.3c-42.7,0.7-85.4,0.2-128,0.2l0,0c-41.1,0-82.2,0.9-123.3-0.4
	c-16.4-0.5-21.1,3.7-20.9,20.5c1,81.4,0.4,162.8,0.5,244.2c0,19-2.7,36.9-21.1,46.9c-28.7,15.8-58.2-4.3-58.5-40.7
	c-0.7-64.8,0.2-129.6-0.4-194.4c-0.3-25,10.9-58.4-4.7-72.5c-13.6-12.3-46.5-3.5-70.9-3.6c-64-0.2-128,0-192.1-0.1
	c-20.9,0-39.7-4.5-46.1-28.3c-7.8-29.2,10.3-50.3,44.7-50.6c54.5-0.5,109.1-0.1,163.6-0.1c28.5,0,57-1,85.4,0.4
	c16.5,0.8,21-3.7,20.8-20.5c-1-82.2-0.7-164.4-0.3-246.6c0.1-33.1,14.9-49.8,41.3-48.9c25,0.8,38.2,17.3,38.3,49.7
	c0.3,79,1,158.1-0.5,237.1c-0.5,23.1,4.3,30.1,28.9,29.6c79.8-1.9,159.7-0.9,239.5-0.6C930.4,554.2,946.3,567.2,947.8,591.6z"/>
<path d="M591.5,0C266.7,0.3-6.6,271.3,0.1,594c-6.3,321.4,266.2,593.3,592.5,592.8c326.1-0.4,593.1-271.3,592.8-593.8
	C1185,270.6,916.3-0.3,591.5,0z M592.2,1108.3c-283.8,0.1-515-231.6-515-515.9C77.3,310,308.7,78.9,591.8,78.7
	c283-0.3,513.9,229.9,515.1,513.3C1108,875.1,875.7,1108.2,592.2,1108.3z"/>
<path class="st0" d="M903.8,632.9c-42.7,0.7-85.4,0.2-128,0.2l0,0c-41.1,0-82.2,0.9-123.3-0.4c-16.4-0.5-21.1,3.7-20.9,20.5
	c1,81.4,0.4,162.8,0.5,244.2c0,19-2.7,36.9-21.1,46.9c-28.7,15.8-58.2-4.3-58.5-40.7c-0.7-64.8,0.2-129.6-0.4-194.4
	c-0.3-25,10.9-58.4-4.7-72.5c-13.6-12.3-46.5-3.5-70.9-3.6c-64-0.2-128,0-192.1-0.1c-20.9,0-39.7-4.5-46.1-28.3
	c-7.8-29.2,10.3-50.3,44.7-50.6c54.5-0.5,109.1-0.1,163.6-0.1c28.5,0,57-1,85.4,0.4c16.5,0.8,21-3.7,20.8-20.5
	c-1-82.2-0.7-164.4-0.3-246.6c0.1-33.1,14.9-49.8,41.3-48.9c25,0.8,38.2,17.3,38.3,49.7c0.3,79,1,158.1-0.5,237.1
	c-0.5,23.1,4.3,30.1,28.9,29.6c79.8-1.9,159.7-0.9,239.5-0.6c30.7,0.1,46.6,13.1,48,37.5C949.3,616,932.8,632.4,903.8,632.9z"/>
<path d="M903.8,632.9c-42.7,0.7-85.4,0.2-128,0.2l0,0c-41.1,0-82.2,0.9-123.3-0.4c-16.4-0.5-21.1,3.7-20.9,20.5
	c1,81.4,0.4,162.8,0.5,244.2c0,19-2.7,36.9-21.1,46.9c-28.7,15.8-58.2-4.3-58.5-40.7c-0.7-64.8,0.2-129.6-0.4-194.4
	c-0.3-25,10.9-58.4-4.7-72.5c-13.6-12.3-46.5-3.5-70.9-3.6c-64-0.2-128,0-192.1-0.1c-20.9,0-39.7-4.5-46.1-28.3
	c-7.8-29.2,10.3-50.3,44.7-50.6c54.5-0.5,109.1-0.1,163.6-0.1c28.5,0,57-1,85.4,0.4c16.5,0.8,21-3.7,20.8-20.5
	c-1-82.2-0.7-164.4-0.3-246.6c0.1-33.1,14.9-49.8,41.3-48.9c25,0.8,38.2,17.3,38.3,49.7c0.3,79,1,158.1-0.5,237.1
	c-0.5,23.1,4.3,30.1,28.9,29.6c79.8-1.9,159.7-0.9,239.5-0.6c30.7,0.1,46.6,13.1,48,37.5C949.3,616,932.8,632.4,903.8,632.9z"/>
</svg>
