<?xml version="1.0" encoding="utf-8"?>
<!-- Generator: Adobe Illustrator 24.0.0, SVG Export Plug-In . SVG Version: 6.00 Build 0)  -->
<svg version="1.1" id="Layer_1" xmlns="http://www.w3.org/2000/svg" xmlns:xlink="http://www.w3.org/1999/xlink" x="0px" y="0px"
	 viewBox="0 0 1032.7 1166.2" style="enable-background:new 0 0 1032.7 1166.2;" xml:space="preserve">
<style type="text/css">
	.st0{fill:#FEFEFE;}
	.st1{fill:#010101;}
	.st2{fill:#060606;}
	.st3{fill:#FCFCFC;}
	.st4{fill:#020202;}
</style>
<path d="M250.2,398.5L250.2,398.5c0.3,3.7-3.9,8.4-8.2,12.9c-18.3,19-36.6,37.9-55,56.8c-7.5,7.7-16.6,13.8-26.5,6.1
	c-11.8-9.2-28.1-17.1-26.3-35.3c1.3-14.1,13-21.1,25.2-13.6c10.4,6.4,14.5,2.4,20.7-4.1c12.3-12.9,24.9-25.6,37.7-37.9
	c5.8-5.6,12.8-8.3,21.2-4.4C246.1,382.4,249.6,387.6,250.2,398.5z"/>
<path d="M297.2,346.9c0.1-16.5-7.4-24.6-23.7-24.6c-54.2,0-108.5,0.1-162.7-0.1c-17.7-0.1-25.1,8.4-24.7,25.9
	c0.5,25.6,0.1,51.3,0.2,76.9h0c0,28,0.2,55.9,0,83.9c-0.1,15.3,6.9,23.4,22.3,23.4c55,0.1,110,0.1,165,0.1
	c16.2,0,23.8-8.1,23.7-24.6C296.9,454.2,296.9,400.5,297.2,346.9z M258.2,427.8L258.2,427.8c0,21.7,8.5,51.1-2.2,62.9
	c-12.6,13.9-42.3,4.2-64.6,4c-22.1-0.2-51.6,10.3-64.1-4.6c-10.8-12.9-3.3-41.5-3.2-63.2c0.1-21.6-7.2-50.2,3.6-63.1
	c11.4-13.5,40.8-2.9,62.2-4.2c0.8,0,1.6,0,2.3,0c21.5,0.5,50.4-7.2,62.7,3.8C269.3,376.1,257.1,405.7,258.2,427.8z"/>
<path d="M334.1,721.6c-57.3-0.3-105.2,45.7-105.9,101.8c-0.8,58.8,47.3,107.8,105.4,107.6c56.5-0.2,103.7-47,104.2-103.6
	C438.3,768.5,392.6,721.8,334.1,721.6z M332.5,893.4c-35.6-0.5-66-31.8-66-67.8c0-37,31.8-67.8,68.8-66.6
	c36.4,1.1,65.1,31.5,64.5,68.3C399.2,863.5,368.2,894,332.5,893.4z"/>
<path d="M522.8,774.5c-14.4-1.6-18.6-8.1-24.3-19.3c-6.6-12.8-1.4-19.9,6.5-28c5.9-6.1,10.9-13.2,17-19.1
	c16.1-15.8,15.1-28.9-1.6-45.1c-44.1-42.9-43.8-43.9-92.1-4.7c-9.2,7.4-15.9,6.9-24.7,2c-8.3-4.6-18-5.2-18.8-19.5
	c-3.5-71,1.2-60.9-68.5-61.8c-0.8,0-1.6,0.1-2.3,0c-20.8-2-30.1,8.3-30.6,28.4c-0.3,10.9-2,21.8-1.4,32.6c0.7,13.8-9.3,16-18.4,20
	c-8.6,3.7-16.5,8.4-24.6-1.6c-4.8-5.9-11.7-10.1-17.6-15.2c-29.1-25.2-29.3-25.2-56.3,1.7c-42.1,41.9-44.6,35.9-3.8,82
	c7.5,8.5,12.6,14.9,6.8,28.2c-5.8,13.3-12,19.5-26.5,19.2c-11.5-0.3-23.1,2-34.7,3.1c-13.8,1.3-21,8.5-20.6,22.8
	c0.2,7.8-0.1,15.6,0,23.3c0.8,42.4-10.2,52.8,48.1,52.7c19.9,0,31.8,7.5,36.2,27c3.9,17.7-12.2,23.7-20.3,33.7
	c-24.1,29.7-24.5,30.9,1.6,57.1c40.8,40.9,36,44.7,82.3,3.4c9.7-8.6,17.4-10.3,30.7-5.8c21.1,7.2,16.9,23,17.7,37.6
	c2.3,42.9,2.4,43.3,43.8,43.3c55.5,0,55.8,0,58.4-55.7c0.6-12,3.1-19,15.4-24.4c13.4-5.8,22.1-4.1,32.9,5.1
	c12.5,10.7,22.4,26.3,40.9,28.4c11.2,0.8,16.6-7.8,23-14.2c51.9-51.7,47.8-41,5-90.4c-6.2-7.2-7.3-12.6-4.7-22.3
	c7.6-28.2,30.3-21.6,48.9-23.1c31-2.6,34.4-5.5,34.5-36.1C581.1,766,583.7,781.3,522.8,774.5z M534.1,838.5
	c-46.5-7.9-65.2,19.5-78,58.2c-4.5,13.6-5.5,23.2,4.2,33.6c7.4,7.9,14,16.6,21.6,24.4c6.8,7,6.8,11.8-0.5,19.1
	c-7.7,7.7-12.8,5.9-19.2-0.6c-3.8-3.9-8.6-6.8-12.2-10.8c-16.9-18.7-35.3-24-56.9-7.7c-1.8,1.4-4.1,2.7-6.3,3
	c-34.6,3.5-41.5,26-39.7,55.9c0.6,9.8,3.3,24.1-15.2,20.8c-9.7,1.7-13.6-3.4-11.9-11.8c10.3-51.8-29.3-61.8-63.3-76.3
	c-9.3-4-18.1-2-25.8,4.8c-8.8,7.7-18,14.8-26.7,22.5c-6.7,6-11.8,7.8-19.3,0c-7.3-7.6-7.1-13.2,0.3-19.1
	c28.6-23.1,33.1-47.4,14.9-82c-10.8-20.5-18.8-33.7-42.7-32.1c-6.9,0.5-13.9-1.3-20.8-1.3c-7.8-0.1-13.1-0.8-12.8-11.2
	c0.2-9.1,1.6-16.1,12.1-14.8c42.2,5.3,61.5-17.2,73.2-54.6c5-15.9,7.6-27.3-5.1-39.6c-7.2-7-12.6-15.8-19.8-22.8
	c-7.3-7.1-6.4-12.1,0.8-18.6c5.9-5.3,10.8-9.4,17-1.5c25.4,32.8,54.1,35.1,90,15.5c15.3-8.4,26-14.6,26.1-32.8
	c0.1-9.3,1.7-18.6,1.8-27.9c0.1-9,1.8-14.7,12.7-14.4c9.5,0.2,15.9,3.2,14.3,13.2c-6.8,42.4,16,59.9,52.9,71.8
	c18.1,5.8,30,7.7,43.2-6.3c6.8-7.3,15.6-12.8,22.7-19.9c6.5-6.5,10.5-3.2,15.1,1.8c4.7,5,12,10.3,3.3,16.8
	c-36.1,26.9-33.8,57.9-14.5,94.3c7.6,14.3,14.3,22.4,30.6,22.4c11.6,0,23.1,2.2,34.7,3c9.4,0.6,8.1,7.1,8.4,13.3
	C543.6,833.5,543,840,534.1,838.5z"/>
<path d="M698,427.7c-0.3,18.3-15,18.4-28.8,18.4c-100.7-0.1-201.4-0.2-302.1,0c-14.2,0-28.4-1-28.1-19.2c0.3-18.2,15-18.4,28.8-18.4
	c51.1,0.2,102.2,0.1,153.4,0.1l0,0c49.6,0,99.2,0.1,148.7-0.1C684,408.5,698.3,409.4,698,427.7z"/>
<path d="M338.6,340.2c0.3-9.9,6.3-15.7,15.8-17.2c6.1-0.9,12.4-0.9,18.5-0.9c127.9,0,255.9,0,383.8,0c6.2,0,12.4,0,18.5,0.9
	c9.7,1.5,15.2,7.7,15.4,17.5s-5,16.4-14.7,18.1c-6.8,1.2-13.9,1.1-20.8,1.1c-63.6,0.1-127.2,0-190.7,0c-63.6,0-127.1,0-190.7,0
	c-6.2,0-12.5,0.3-18.6-0.7C344.7,357.5,338.3,351.3,338.6,340.2z"/>
<path d="M1032.6,789.5c0.2-16.1-5-24.2-21.4-26.8c-33-5.1-64.6-15.2-95.9-27c-16.3-6.1-23.2-14-23.1-33.4c1.1-179,0.6-358,0.6-537
	c0-31.5-3.1-34.5-34.8-34.5c-45-0.1-90-0.9-135,0.4c-17.3,0.5-23.8-3.8-21.4-21.5c2.9-21.9-7.8-31.2-29.7-30.5
	c-28.7,0.9-57.4-0.2-86.1,0.4c-11.9,0.3-19.2-2.5-25.8-14.1c-50-87.7-176.7-87.2-226.1,0.3c-6.5,11.6-14.1,14-25.9,13.7
	c-27.1-0.6-54.3-0.3-81.5-0.2c-30.9,0.1-34.3,2.3-33.7,32.8c0.3,16.9-6.6,18.9-20.6,18.7c-45-0.7-90-0.3-135-0.2
	c-33.6,0-35.4,1.8-35.5,35.8c0,160.3,0,320.7,0,481H0c0,161.1,0,322.2,0,483.4c0,32.8,1.8,34.7,33.7,34.7
	c255.3,0,510.5-0.6,765.7,0.5c51.1,0.2,97.8-12.6,143.2-32.9c59.3-26.5,87.7-74.9,89.2-138.3C1033.6,926.5,1031.9,858,1032.6,789.5z
	 M439.4,36.6c34-2.4,61.6,10.2,84.2,42H374C385.1,54.2,407.9,38.8,439.4,36.6z M229.8,159c1.7-40.6,0.4-40.6,41.7-40.6h176.7
	c65.1,0,130.2,0.8,195.3-0.5c18.2-0.3,21.6,5.3,21.2,22.1c-1.1,40.6-0.2,40.6-41.7,40.6c-123.2,0-246.4-0.3-369.6,0.3
	C236.6,181,229,178.8,229.8,159z M543.2,1128.7c-161.3,0-322.6-0.3-483.9,0.5c-18.6,0.1-22.8-5.1-22.7-23.2c1.2-305,1.9-610,2-915
	c0-18,4-24.1,22.8-23.3c37.9,1.6,76,0.9,114,0.2c13.1-0.3,17.2,3.9,17.3,17.2c0.4,31.7,2.2,32.8,33.2,32.9c147.4,0,294.7,0,442.1,0
	c30.9,0,34-2,33.4-32.8c-0.3-15.5,5.5-17.5,18.7-17.3c38.8,0.8,77.6,1,116.3-0.1c15.1-0.4,19.3,3.7,19.3,19.2
	c-0.6,169.6-0.4,339.2-0.4,512.4c-19.8-22.2-32.9-10.7-50.5,2.8c-44.3,34.1-96.6,51.7-151.4,60.5c-15.3,2.5-25.2,7.8-24.9,24.3
	c1.1,71.5-2.9,143.1,2.2,214.6c3.7,52.8,25.4,95.1,77.6,127l0,0H543.2z M995.7,817.4c-0.8,29.5-0.3,59.1-0.3,88.6h0
	c0,25.7,0,51.3,0,77c-0.1,59.6-29.6,97.8-82.8,122.7c-63,29.5-122.2,23.5-181.4-9.1c-36.8-20.2-58.5-50.5-62.4-92.1
	c-6-64.4-1.3-129-2.5-193.5c-0.1-7.6,1-13,10.3-15.1c53-12.3,104.1-29.4,149.2-61.1c6.4-4.5,10-0.6,14.2,2.3
	c41.8,29.6,89.1,46.2,138.5,56.8C993.6,797.2,996.1,804,995.7,817.4z M948.7,835.8c-10.3-5.3-17.7,0.4-24.5,7.5
	c-39.5,40.8-78.8,81.7-118.5,122.1c-10.7,10.9-19.5,29.4-33.3,29.8c-10,0.3-20.5-16.8-30.8-26.1c-1.1-1-2.1-2.3-3.3-3.2
	c-8.9-6.8-18.3-9.5-27-0.3c-9.5,10-6.7,19.6,2.4,28.4c14.5,14,28.9,28.3,43.5,42.2c11.6,11,22.7,10.7,34.2-1.3
	c52.9-54.8,106.1-109.3,159.2-163.9c5-5.2,8.7-10.9,8.7-18.4v0C959.4,844.7,955.2,839.2,948.7,835.8z"/>
<path class="st0" d="M250.2,398.5L250.2,398.5c0.3,3.7-3.9,8.4-8.2,12.9c-18.3,19-36.6,37.9-55,56.8c-7.5,7.7-16.6,13.8-26.5,6.1
	c-11.8-9.2-28.1-17.1-26.3-35.3c1.3-14.1,13-21.1,25.2-13.6c10.4,6.4,14.5,2.4,20.7-4.1c12.3-12.9,24.9-25.6,37.7-37.9
	c5.8-5.6,12.8-8.3,21.2-4.4C246.1,382.4,249.6,387.6,250.2,398.5z"/>
<path class="st0" d="M297.2,346.9c0.1-16.5-7.4-24.6-23.7-24.6c-54.2,0-108.5,0.1-162.7-0.1c-17.7-0.1-25.1,8.4-24.7,25.9
	c0.5,25.6,0.1,51.3,0.2,76.9h0c0,28,0.2,55.9,0,83.9c-0.1,15.3,6.9,23.4,22.3,23.4c55,0.1,110,0.1,165,0.1
	c16.2,0,23.8-8.1,23.7-24.6C296.9,454.2,296.9,400.5,297.2,346.9z M258.2,427.8L258.2,427.8c0,21.7,8.5,51.1-2.2,62.9
	c-12.6,13.9-42.3,4.2-64.6,4c-22.1-0.2-51.6,10.3-64.1-4.6c-10.8-12.9-3.3-41.5-3.2-63.2c0.1-21.6-7.2-50.2,3.6-63.1
	c11.4-13.5,40.8-2.9,62.2-4.2c0.8,0,1.6,0,2.3,0c21.5,0.5,50.4-7.2,62.7,3.8C269.3,376.1,257.1,405.7,258.2,427.8z"/>
<path class="st0" d="M334.1,721.6c-57.3-0.3-105.2,45.7-105.9,101.8c-0.8,58.8,47.3,107.8,105.4,107.6
	c56.5-0.2,103.7-47,104.2-103.6C438.3,768.5,392.6,721.8,334.1,721.6z M332.5,893.4c-35.6-0.5-66-31.8-66-67.8
	c0-37,31.8-67.8,68.8-66.6c36.4,1.1,65.1,31.5,64.5,68.3C399.2,863.5,368.2,894,332.5,893.4z"/>
<path class="st0" d="M522.8,774.5c-14.4-1.6-18.6-8.1-24.3-19.3c-6.6-12.8-1.4-19.9,6.5-28c5.9-6.1,10.9-13.2,17-19.1
	c16.1-15.8,15.1-28.9-1.6-45.1c-44.1-42.9-43.8-43.9-92.1-4.7c-9.2,7.4-15.9,6.9-24.7,2c-8.3-4.6-18-5.2-18.8-19.5
	c-3.5-71,1.2-60.9-68.5-61.8c-0.8,0-1.6,0.1-2.3,0c-20.8-2-30.1,8.3-30.6,28.4c-0.3,10.9-2,21.8-1.4,32.6c0.7,13.8-9.3,16-18.4,20
	c-8.6,3.7-16.5,8.4-24.6-1.6c-4.8-5.9-11.7-10.1-17.6-15.2c-29.1-25.2-29.3-25.2-56.3,1.7c-42.1,41.9-44.6,35.9-3.8,82
	c7.5,8.5,12.6,14.9,6.8,28.2c-5.8,13.3-12,19.5-26.5,19.2c-11.5-0.3-23.1,2-34.7,3.1c-13.8,1.3-21,8.5-20.6,22.8
	c0.2,7.8-0.1,15.6,0,23.3c0.8,42.4-10.2,52.8,48.1,52.7c19.9,0,31.8,7.5,36.2,27c3.9,17.7-12.2,23.7-20.3,33.7
	c-24.1,29.7-24.5,30.9,1.6,57.1c40.8,40.9,36,44.7,82.3,3.4c9.7-8.6,17.4-10.3,30.7-5.8c21.1,7.2,16.9,23,17.7,37.6
	c2.3,42.9,2.4,43.3,43.8,43.3c55.5,0,55.8,0,58.4-55.7c0.6-12,3.1-19,15.4-24.4c13.4-5.8,22.1-4.1,32.9,5.1
	c12.5,10.7,22.4,26.3,40.9,28.4c11.2,0.8,16.6-7.8,23-14.2c51.9-51.7,47.8-41,5-90.4c-6.2-7.2-7.3-12.6-4.7-22.3
	c7.6-28.2,30.3-21.6,48.9-23.1c31-2.6,34.4-5.5,34.5-36.1C581.1,766,583.7,781.3,522.8,774.5z M534.1,838.5
	c-46.5-7.9-65.2,19.5-78,58.2c-4.5,13.6-5.5,23.2,4.2,33.6c7.4,7.9,14,16.6,21.6,24.4c6.8,7,6.8,11.8-0.5,19.1
	c-7.7,7.7-12.8,5.9-19.2-0.6c-3.8-3.9-8.6-6.8-12.2-10.8c-16.9-18.7-35.3-24-56.9-7.7c-1.8,1.4-4.1,2.7-6.3,3
	c-34.6,3.5-41.5,26-39.7,55.9c0.6,9.8,3.3,24.1-15.2,20.8c-9.7,1.7-13.6-3.4-11.9-11.8c10.3-51.8-29.3-61.8-63.3-76.3
	c-9.3-4-18.1-2-25.8,4.8c-8.8,7.7-18,14.8-26.7,22.5c-6.7,6-11.8,7.8-19.3,0c-7.3-7.6-7.1-13.2,0.3-19.1
	c28.6-23.1,33.1-47.4,14.9-82c-10.8-20.5-18.8-33.7-42.7-32.1c-6.9,0.5-13.9-1.3-20.8-1.3c-7.8-0.1-13.1-0.8-12.8-11.2
	c0.2-9.1,1.6-16.1,12.1-14.8c42.2,5.3,61.5-17.2,73.2-54.6c5-15.9,7.6-27.3-5.1-39.6c-7.2-7-12.6-15.8-19.8-22.8
	c-7.3-7.1-6.4-12.1,0.8-18.6c5.9-5.3,10.8-9.4,17-1.5c25.4,32.8,54.1,35.1,90,15.5c15.3-8.4,26-14.6,26.1-32.8
	c0.1-9.3,1.7-18.6,1.8-27.9c0.1-9,1.8-14.7,12.7-14.4c9.5,0.2,15.9,3.2,14.3,13.2c-6.8,42.4,16,59.9,52.9,71.8
	c18.1,5.8,30,7.7,43.2-6.3c6.8-7.3,15.6-12.8,22.7-19.9c6.5-6.5,10.5-3.2,15.1,1.8c4.7,5,12,10.3,3.3,16.8
	c-36.1,26.9-33.8,57.9-14.5,94.3c7.6,14.3,14.3,22.4,30.6,22.4c11.6,0,23.1,2.2,34.7,3c9.4,0.6,8.1,7.1,8.4,13.3
	C543.6,833.5,543,840,534.1,838.5z"/>
<path class="st0" d="M698,427.7c-0.3,18.3-15,18.4-28.8,18.4c-100.7-0.1-201.4-0.2-302.1,0c-14.2,0-28.4-1-28.1-19.2
	c0.3-18.2,15-18.4,28.8-18.4c51.1,0.2,102.2,0.1,153.4,0.1l0,0c49.6,0,99.2,0.1,148.7-0.1C684,408.5,698.3,409.4,698,427.7z"/>
<path class="st0" d="M790.7,340.6c0.2,9.8-5,16.4-14.7,18.1c-6.8,1.2-13.9,1.1-20.8,1.1c-63.6,0.1-127.2,0-190.7,0
	c-63.6,0-127.1,0-190.7,0c-6.2,0-12.5,0.3-18.6-0.7c-10.5-1.6-16.9-7.8-16.6-18.9c0.3-9.9,6.3-15.7,15.8-17.2
	c6.1-0.9,12.4-0.9,18.5-0.9c127.9,0,255.9,0,383.8,0c6.2,0,12.4,0,18.5,0.9C785,324.5,790.5,330.8,790.7,340.6z"/>
<path class="st0" d="M959.2,852.6L959.2,852.6c0,7.5-3.7,13.3-8.7,18.4c-53.1,54.6-106.3,109.1-159.2,163.9
	c-11.6,12-22.6,12.2-34.2,1.3c-14.7-13.9-29-28.1-43.5-42.2c-9.1-8.8-11.9-18.3-2.4-28.4c8.8-9.2,18.1-6.5,27,0.3
	c1.2,0.9,2.2,2.2,3.3,3.2c10.3,9.3,20.8,26.4,30.8,26.1c13.8-0.4,22.6-18.9,33.3-29.8c39.8-40.5,79.1-81.4,118.5-122.1
	c6.8-7,14.2-12.8,24.5-7.5C955.2,839.2,959.4,844.7,959.2,852.6z"/>
<path d="M334.1,721.6c-57.3-0.3-105.2,45.7-105.9,101.8c-0.8,58.8,47.3,107.8,105.4,107.6c56.5-0.2,103.7-47,104.2-103.6
	C438.3,768.5,392.6,721.8,334.1,721.6z M332.5,893.4c-35.6-0.5-66-31.8-66-67.8c0-37,31.8-67.8,68.8-66.6
	c36.4,1.1,65.1,31.5,64.5,68.3C399.2,863.5,368.2,894,332.5,893.4z"/>
<path d="M522.8,774.5c-14.4-1.6-18.6-8.1-24.3-19.3c-6.6-12.8-1.4-19.9,6.5-28c5.9-6.1,10.9-13.2,17-19.1
	c16.1-15.8,15.1-28.9-1.6-45.1c-44.1-42.9-43.8-43.9-92.1-4.7c-9.2,7.4-15.9,6.9-24.7,2c-8.3-4.6-18-5.2-18.8-19.5
	c-3.5-71,1.2-60.9-68.5-61.8c-0.8,0-1.6,0.1-2.3,0c-20.8-2-30.1,8.3-30.6,28.4c-0.3,10.9-2,21.8-1.4,32.6c0.7,13.8-9.3,16-18.4,20
	c-8.6,3.7-16.5,8.4-24.6-1.6c-4.8-5.9-11.7-10.1-17.6-15.2c-29.1-25.2-29.3-25.2-56.3,1.7c-42.1,41.9-44.6,35.9-3.8,82
	c7.5,8.5,12.6,14.9,6.8,28.2c-5.8,13.3-12,19.5-26.5,19.2c-11.5-0.3-23.1,2-34.7,3.1c-13.8,1.3-21,8.5-20.6,22.8
	c0.2,7.8-0.1,15.6,0,23.3c0.8,42.4-10.2,52.8,48.1,52.7c19.9,0,31.8,7.5,36.2,27c3.9,17.7-12.2,23.7-20.3,33.7
	c-24.1,29.7-24.5,30.9,1.6,57.1c40.8,40.9,36,44.7,82.3,3.4c9.7-8.6,17.4-10.3,30.7-5.8c21.1,7.2,16.9,23,17.7,37.6
	c2.3,42.9,2.4,43.3,43.8,43.3c55.5,0,55.8,0,58.4-55.7c0.6-12,3.1-19,15.4-24.4c13.4-5.8,22.1-4.1,32.9,5.1
	c12.5,10.7,22.4,26.3,40.9,28.4c11.2,0.8,16.6-7.8,23-14.2c51.9-51.7,47.8-41,5-90.4c-6.2-7.2-7.3-12.6-4.7-22.3
	c7.6-28.2,30.3-21.6,48.9-23.1c31-2.6,34.4-5.5,34.5-36.1C581.1,766,583.7,781.3,522.8,774.5z M534.1,838.5
	c-46.5-7.9-65.2,19.5-78,58.2c-4.5,13.6-5.5,23.2,4.2,33.6c7.4,7.9,14,16.6,21.6,24.4c6.8,7,6.8,11.8-0.5,19.1
	c-7.7,7.7-12.8,5.9-19.2-0.6c-3.8-3.9-8.6-6.8-12.2-10.8c-16.9-18.7-35.3-24-56.9-7.7c-1.8,1.4-4.1,2.7-6.3,3
	c-34.6,3.5-41.5,26-39.7,55.9c0.6,9.8,3.3,24.1-15.2,20.8c-9.7,1.7-13.6-3.4-11.9-11.8c10.3-51.8-29.3-61.8-63.3-76.3
	c-9.3-4-18.1-2-25.8,4.8c-8.8,7.7-18,14.8-26.7,22.5c-6.7,6-11.8,7.8-19.3,0c-7.3-7.6-7.1-13.2,0.3-19.1
	c28.6-23.1,33.1-47.4,14.9-82c-10.8-20.5-18.8-33.7-42.7-32.1c-6.9,0.5-13.9-1.3-20.8-1.3c-7.8-0.1-13.1-0.8-12.8-11.2
	c0.2-9.1,1.6-16.1,12.1-14.8c42.2,5.3,61.5-17.2,73.2-54.6c5-15.9,7.6-27.3-5.1-39.6c-7.2-7-12.6-15.8-19.8-22.8
	c-7.3-7.1-6.4-12.1,0.8-18.6c5.9-5.3,10.8-9.4,17-1.5c25.4,32.8,54.1,35.1,90,15.5c15.3-8.4,26-14.6,26.1-32.8
	c0.1-9.3,1.7-18.6,1.8-27.9c0.1-9,1.8-14.7,12.7-14.4c9.5,0.2,15.9,3.2,14.3,13.2c-6.8,42.4,16,59.9,52.9,71.8
	c18.1,5.8,30,7.7,43.2-6.3c6.8-7.3,15.6-12.8,22.7-19.9c6.5-6.5,10.5-3.2,15.1,1.8c4.7,5,12,10.3,3.3,16.8
	c-36.1,26.9-33.8,57.9-14.5,94.3c7.6,14.3,14.3,22.4,30.6,22.4c11.6,0,23.1,2.2,34.7,3c9.4,0.6,8.1,7.1,8.4,13.3
	C543.6,833.5,543,840,534.1,838.5z"/>
<path class="st1" d="M250.2,398.5L250.2,398.5c0.3,3.7-3.9,8.4-8.2,12.9c-18.3,19-36.6,37.9-55,56.8c-7.5,7.7-16.6,13.8-26.5,6.1
	c-11.8-9.2-28.1-17.1-26.3-35.3c1.3-14.1,13-21.1,25.2-13.6c10.4,6.4,14.5,2.4,20.7-4.1c12.3-12.9,24.9-25.6,37.7-37.9
	c5.8-5.6,12.8-8.3,21.2-4.4C246.1,382.4,249.6,387.6,250.2,398.5z"/>
<path class="st1" d="M297.2,346.9c0.1-16.5-7.4-24.6-23.7-24.6c-54.2,0-108.5,0.1-162.7-0.1c-17.7-0.1-25.1,8.4-24.7,25.9
	c0.5,25.6,0.1,51.3,0.2,76.9h0c0,28,0.2,55.9,0,83.9c-0.1,15.3,6.9,23.4,22.3,23.4c55,0.1,110,0.1,165,0.1
	c16.2,0,23.8-8.1,23.7-24.6C296.9,454.2,296.9,400.5,297.2,346.9z M258.2,427.8L258.2,427.8c0,21.7,8.5,51.1-2.2,62.9
	c-12.6,13.9-42.3,4.2-64.6,4c-22.1-0.2-51.6,10.3-64.1-4.6c-10.8-12.9-3.3-41.5-3.2-63.2c0.1-21.6-7.2-50.2,3.6-63.1
	c11.4-13.5,40.8-2.9,62.2-4.2c0.8,0,1.6,0,2.3,0c21.5,0.5,50.4-7.2,62.7,3.8C269.3,376.1,257.1,405.7,258.2,427.8z"/>
<path class="st2" d="M790.7,340.6c0.2,9.8-5,16.4-14.7,18.1c-6.8,1.2-13.9,1.1-20.8,1.1c-63.6,0.1-127.2,0-190.7,0
	c-63.6,0-127.1,0-190.7,0c-6.2,0-12.5,0.3-18.6-0.7c-10.5-1.6-16.9-7.8-16.6-18.9c0.3-9.9,6.3-15.7,15.8-17.2
	c6.1-0.9,12.4-0.9,18.5-0.9c127.9,0,255.9,0,383.8,0c6.2,0,12.4,0,18.5,0.9C785,324.5,790.5,330.8,790.7,340.6z"/>
<path d="M698,427.7c-0.3,18.3-15,18.4-28.8,18.4c-100.7-0.1-201.4-0.2-302.1,0c-14.2,0-28.4-1-28.1-19.2c0.3-18.2,15-18.4,28.8-18.4
	c51.1,0.2,102.2,0.1,153.4,0.1l0,0c49.6,0,99.2,0.1,148.7-0.1C684,408.5,698.3,409.4,698,427.7z"/>
<path class="st1" d="M959.2,852.6L959.2,852.6c0,7.5-3.7,13.3-8.7,18.4c-53.1,54.6-106.3,109.1-159.2,163.9
	c-11.6,12-22.6,12.2-34.2,1.3c-14.7-13.9-29-28.1-43.5-42.2c-9.1-8.8-11.9-18.3-2.4-28.4c8.8-9.2,18.1-6.5,27,0.3
	c1.2,0.9,2.2,2.2,3.3,3.2c10.3,9.3,20.8,26.4,30.8,26.1c13.8-0.4,22.6-18.9,33.3-29.8c39.8-40.5,79.1-81.4,118.5-122.1
	c6.8-7,14.2-12.8,24.5-7.5C955.2,839.2,959.4,844.7,959.2,852.6z"/>
<path class="st0" d="M334.1,721.6c-57.3-0.3-105.2,45.7-105.9,101.8c-0.8,58.8,47.3,107.8,105.4,107.6
	c56.5-0.2,103.7-47,104.2-103.6C438.3,768.5,392.6,721.8,334.1,721.6z M332.5,893.4c-35.6-0.5-66-31.8-66-67.8
	c0-37,31.8-67.8,68.8-66.6c36.4,1.1,65.1,31.5,64.5,68.3C399.2,863.5,368.2,894,332.5,893.4z"/>
<path class="st3" d="M250.2,398.5c0.3,3.7-3.9,8.4-8.2,12.9c-18.3,19-36.6,37.9-55,56.8c-7.5,7.7-16.6,13.8-26.5,6.1
	c-11.8-9.2-28.1-17.1-26.3-35.3c1.3-14.1,13-21.1,25.2-13.6c10.4,6.4,14.5,2.4,20.7-4.1c12.3-12.9,24.9-25.6,37.7-37.9
	c5.8-5.6,12.8-8.3,21.2-4.4C246.1,382.4,249.6,387.6,250.2,398.5L250.2,398.5z"/>
<path d="M334.1,721.6c-57.3-0.3-105.2,45.7-105.9,101.8c-0.8,58.8,47.3,107.8,105.4,107.6c56.5-0.2,103.7-47,104.2-103.6
	C438.3,768.5,392.6,721.8,334.1,721.6z M332.5,893.4c-35.6-0.5-66-31.8-66-67.8c0-37,31.8-67.8,68.8-66.6
	c36.4,1.1,65.1,31.5,64.5,68.3C399.2,863.5,368.2,894,332.5,893.4z"/>
<path class="st4" d="M250.2,398.5c0.3,3.7-3.9,8.4-8.2,12.9c-18.3,19-36.6,37.9-55,56.8c-7.5,7.7-16.6,13.8-26.5,6.1
	c-11.8-9.2-28.1-17.1-26.3-35.3c1.3-14.1,13-21.1,25.2-13.6c10.4,6.4,14.5,2.4,20.7-4.1c12.3-12.9,24.9-25.6,37.7-37.9
	c5.8-5.6,12.8-8.3,21.2-4.4C246.1,382.4,249.6,387.6,250.2,398.5L250.2,398.5z"/>
</svg>
