<?xml version="1.0" encoding="utf-8"?>
<!-- Generator: Adobe Illustrator 24.0.0, SVG Export Plug-In . SVG Version: 6.00 Build 0)  -->
<svg version="1.1" id="Layer_1" xmlns="http://www.w3.org/2000/svg" xmlns:xlink="http://www.w3.org/1999/xlink" x="0px" y="0px"
	 viewBox="0 0 1457.1 1276.1" style="enable-background:new 0 0 1457.1 1276.1;" xml:space="preserve">
<style type="text/css">
	.st0{fill:#010101;}
</style>
<path d="M613.4,736.7c0.1-15.7-8.5-19-19-24.2C403.6,617.5,212.6,522.8,22.2,426.9c-24.3-12.2-22,0.3-22,16.7
	C0.5,605.1,0.7,766.5,0,928c-0.1,24.5,8.5,38.8,31,49.7c95.9,46.5,191,94.6,286.5,142.1c97,48.3,194.1,96.4,295.5,146.8v0
	C612.9,1086.7,612.7,911.7,613.4,736.7z M119.9,745.1c6.8-15.3,19.7-23.3,35.2-16.1c42,19.5,83.3,40.5,124.5,61.6
	c7.9,4.1,11.7,12.6,12.1,21.9h0c0.7,20.3-20.9,35.5-40.9,26.3c-40.3-18.6-79.8-38.9-119.2-59.2C117.7,772.4,113.4,759.7,119.9,745.1
	z M347.1,970.2c-10.9,22.6-29.5,19.7-49.4,9.5c-50-25.6-100.7-50-150.9-75.2c-10.3-5.1-21.2-9.7-26.5-21.5
	c-8.7-19.3,5.1-40.8,30.4-41v0c4.7,1.9,12.9,4.7,20.6,8.6c51.2,25.5,102.1,51.6,153.4,76.7C343.4,936.5,357.3,948.8,347.1,970.2z"/>
<path d="M671.3,1266.5c0-180.4,0.2-355.4-0.4-530.3c0-13.1,5-18.5,15.7-23.8c192.9-95.2,385.7-190.6,578.1-286.7
	c17.6-8.8,19.1-3,19.1,12.6c-0.4,83.6-0.6,167.3,0.2,250.9c0.2,16.6-4.4,19-20.1,16.2c-189.7-35-353.4,76.7-385.3,263.9
	c-9.4,55.4-2.5,110.3,18.5,163c3.6,9,10.8,17.9-5.2,25.6C819.7,1192.5,748,1228.5,671.3,1266.5L671.3,1266.5z"/>
<path d="M1193.8,755.4c-145.1,1.1-261.3,119.5-259.9,262.5c1.5,147.9,116,259.3,265.1,258c142.1,6.3,259.5-127.1,258-259.2
	C1455.4,878.8,1346.6,754.3,1193.8,755.4z M1328.1,964.9c-49,48.6-97.9,97.2-146.7,146.1c-8.1,8.1-16.8,12.9-27.8,11.2l0,0
	c-8-0.2-14-3.5-18.8-8.4c-25.5-25.3-51.3-50.4-76-76.4c-12.5-13.2-12.2-28.7,0.9-41.5c13.5-13.2,27.9-11,40.9,2
	c2.8,2.7,5.5,5.5,8.4,8.1c16.4,14.8,29.7,42.9,48.7,42c16-0.7,31-26.5,46.1-41.4c27.7-27.3,55.1-54.8,82.6-82.3
	c13.9-13.9,29.5-21,45.5-5C1347.7,934.8,1342.5,950.6,1328.1,964.9z"/>
<path d="M889.4,118.9c-222.9,111.5-440.6,220.3-658,329.7c-13.6,6.8-24,7.3-37.6,0.2c-55.1-28.6-110.7-56.2-166.4-83.6
	c-13.9-6.9-26-14.9-26-31.6c0-16.7,11.8-24.9,25.7-31.8C224.1,203.7,421,105.3,617.9,7c12.6-6.3,25.9-10.2,39.2-3.7
	C733.4,41,809.6,79.1,889.4,118.9L889.4,118.9z"/>
<path d="M394.7,548.1C516,487.3,633.4,428.4,750.8,369.6c99.7-49.9,199.8-99.3,299.2-149.9c15.5-7.9,27.3-8.2,42.8-0.1
	c54.1,28.4,109,55.3,163.8,82.3c13.9,6.9,26.1,14.9,25.6,31.8c-0.4,16.6-12.4,24.4-26.4,31.3c-197.9,98.3-395.5,197-593.2,295.8
	c-10.9,5.4-21.8,9.9-33.3,4.3C552.2,626.9,475.2,588.3,394.7,548.1L394.7,548.1z"/>
<path class="st0" d="M281.1,488.1c219.8-109.6,438.3-218.2,656.5-327.6c28.3-14.2,43.8,8.2,68.2,16.9
	C790,285,577.4,389.8,366.2,497.3C333.4,513.9,309.1,511.6,281.1,488.1L281.1,488.1z"/>
</svg>
