<?xml version="1.0" encoding="UTF-8"?>
<svg id="Layer_1" data-name="Layer 1" xmlns="http://www.w3.org/2000/svg" viewBox="0 0 1060.93 1063.56">
  <path d="M113.5,910.97c0-31,.49-62.02-.2-93-.34-15.28,5.78-21.25,20.83-21.17,62,.33,124.01.07,186.02.22,7.11.02,15.5-1.36,18.99,7.52,3.3,8.37-2.13,13.75-7.51,19.13-16.19,16.17-31.85,32.89-48.46,48.61-8.63,8.17-8.85,12.47,1.65,19.57,95.4,64.53,200.42,89.1,313.49,70.02,194.37-32.8,333.59-175.8,363.15-371.08,10.06-66.46,3.55-132.36-18-196.46-9.96-29.63-8.56-32.01,20.98-43.82,6.83-2.73,13.59-5.63,20.4-8.41,34.34-14.02,38.42-12.46,49.53,23.75,48.33,157.59,31.38,307.81-56.16,447.72-164.6,263.09-504.76,328.91-758.3,147.72-12.65-9.04-19.22-7.44-28.76,3.19-15.76,17.55-32.94,33.84-49.69,50.5-5.64,5.61-11.17,13.12-20.68,8.41-7.95-3.94-7.32-11.93-7.3-19.4.06-31,.03-62.01.03-93.01Z" style="stroke-width: 0px;"/>
  <path d="M789.61,181.35c-60.93-44.88-125.58-71.79-196.73-82.01-226.32-32.51-433.46,114.45-486.31,331.19-19.13,78.46-15.14,156.54,9.34,233.54,11.09,34.89,10.49,36.1-23.76,50.39-53.72,22.42-54.29,22.15-70.62-33.21C-63.42,393.15,111.14,85.05,401.54,16.07c157.19-37.34,304.6-9.83,437.37,84.7,13.38,9.53,20.82,9.68,31.68-2.8,15.96-18.35,33.96-34.92,51.21-52.14,4.71-4.7,9.67-9.55,17.32-6.15,7.53,3.35,7.49,10.14,7.49,16.91-.01,63.51-.2,127.02.13,190.52.08,14.71-7.49,19.57-20.56,19.57-62.03,0-124.06-.03-186.09.04-7.81,0-15.24-1.36-18.78-8.87-4-8.5,2.84-13.71,8.04-18.75,19.53-18.92,39.25-37.64,60.27-57.76Z" style="stroke-width: 0px;"/>
  <path d="M645.3,720.56c-2.34-25.21,6.48-46.54,14.24-67.66,12.2-33.19,28.29-64.67,46.21-95.2,4.31-7.34,11.48-16.04.79-23.12-9.03-5.98-14.76,2.49-20.35,8.06-64.95,64.77-107.47,141.89-123.58,232.26-3.48,19.51-10.7,23.13-28.21,22.46-33.05-1.27-33.08-.34-27.39-32.62.77-4.35.97-8.87,2.26-13.06,8.7-28.34,8.15-52.99-5.23-82.9-28.54-63.76-5.38-124.21,31.43-178.75,34.34-50.87,86.48-76.55,143.64-92.82,43.53-12.39,88.51-15.54,133.5-18.02,12.03-.66,21.04,2.06,20.64,16.15-2.08,73.97-6.79,147.45-42.19,214.92-31.1,59.28-81.45,92.76-145.77,110.3Z" style="stroke-width: 0px;"/>
  <path d="M227.92,418.54c0-9.25.34-15.91-.07-22.53-.78-12.65,5.76-17.54,17.43-16.86,81.76,4.72,160.81,19.21,232.12,62.91,11.91,7.3,13.68,12.3,5.56,25.12-38.32,60.47-57.31,125.75-41.81,197.73,2.6,12.07,7.13,24.18,13.15,34.95,7.62,13.64,3.36,17.83-10.37,19.56-61.09,7.69-110.02-12.69-146.37-62.56-40.83-56.01-55.94-120.96-64.79-187.98-2.32-17.54-3.42-35.24-4.85-50.32Z" style="stroke-width: 0px;"/>
</svg>