<?xml version="1.0" encoding="utf-8"?>
<!-- Generator: Adobe Illustrator 24.0.0, SVG Export Plug-In . SVG Version: 6.00 Build 0)  -->
<svg version="1.1" id="Layer_1" xmlns="http://www.w3.org/2000/svg" xmlns:xlink="http://www.w3.org/1999/xlink" x="0px" y="0px"
	 viewBox="0 0 1165.8 1166.5" style="enable-background:new 0 0 1165.8 1166.5;" xml:space="preserve">
<path d="M610.7,747.9c0-50.1,0.5-100.1-0.3-150.2c-0.2-13.8,4.1-21.3,16.6-27.3c95-45.6,189.9-91.6,284.5-138
	c20.1-9.9,25.3-2.7,25.2,17c-0.3,101.8-0.3,203.6,0.1,305.4c0.1,13.1-5,19.4-16.4,24.9c-95,45.6-189.9,91.7-284.5,138.1
	c-20,9.8-25.6,2.8-25.4-17.2C611,849.7,610.7,798.8,610.7,747.9L610.7,747.9z"/>
<path d="M596.6,1166.3c-137,2.8-249.6-35.1-351.1-107.3c-11.8-8.4-18.9-8.8-29.9,0.9c-20.3,17.9-42.1,34.1-63.4,50.9
	c-9.1,7.1-18.8,11.6-30.4,5.4c-12-6.4-16.2-16.7-14.8-29.7c5.5-52.3,10.7-104.7,16.7-156.9c1.9-17,13.5-25.7,30.1-24.1
	c52.2,5,104.3,10.8,156.4,16.8c11.5,1.3,20.4,8.2,24.6,19.6c4.5,12.3-1.4,21.8-9.8,29.4c-11.9,10.8-24.1,21.5-37.3,30.6
	c-12.3,8.5-11.5,12.7,0.7,20.8c69.5,45.9,144.9,76.8,227.7,86.4c264.5,30.8,499.3-125.2,573.7-381c32.2-110.9,26.6-221.1-12.6-329.6
	c-10.9-30.1-8.4-46.6,8.5-52.6c18.8-6.7,32.3,4,43.7,34.9c124.2,334.8-79.9,703.7-428.5,775.7
	C662.2,1164.3,623.8,1167.3,596.6,1166.3L596.6,1166.3z"/>
<path d="M891.7,156.4C707.9,15,427.3,23.4,250.6,174.2C69.8,328.5,10.8,550.6,91.5,773.8c6.4,17.8,8.2,34.9-11.7,43.2
	c-21.1,8.8-31.8-4.3-39.6-23.4C-44,588.5,6.8,340.3,167,176.5C368.1-29.1,682.1-58.7,918,106.7c15.8,11.1,25,10.5,38.5-1.9
	c18-16.6,38.1-31,57.2-46.4c9.9-8,20.1-11.8,32.5-4.9c12.3,6.7,15.7,17.5,14.4,30c-5.3,50.6-11.2,101.2-16.5,151.8
	c-2.2,21-13.8,30.2-34.2,28.1c-50.5-5.4-100.9-11.3-151.3-17.1c-12.8-1.5-22.4-7.4-26.1-20.5c-3.8-13.4,2.4-22.8,12.2-30.9
	C860.3,182.3,875.8,169.5,891.7,156.4L891.7,156.4z"/>
<path d="M556.9,599.7c0.1-16-5.6-23.9-19.7-30.6c-93.6-44.7-186.7-90.4-280-135.7c-21.8-10.6-26.6-7.7-26.8,16.7
	c-0.3,50.9-0.1,101.8-0.1,152.7c0,49.2,0.7,98.4-0.4,147.6c-0.3,16.1,5.4,24.2,19.6,31c92.8,44.4,185.2,89.6,277.8,134.4
	c25.1,12.2,29.1,9.7,29.2-18.3C556.6,798.2,556.2,698.9,556.9,599.7z M467.8,661c-8.4,17.8-23.9,18.9-40.9,10.3
	c-34.7-17.4-69.7-34.2-104.6-51.3c-13-6.4-19-17.2-15.5-31.3c3.2-12.8,12.1-20.1,29.6-19.5c3.1,1.1,9.6,2.8,15.6,5.7
	c32.7,15.7,65.3,31.8,98,47.5C466.9,630.5,476.2,643.2,467.8,661z"/>
<path d="M886,373.2c1.7,11.6-4.3,14.2-9.4,16.7c-94,45.4-188.2,90.6-282.1,136.1c-7.6,3.7-13.8,3.8-21.4,0.1
	c-30.2-14.9-60.7-29.1-91-43.8c-5.1-2.5-11.9-4.5-12.1-11.6c-0.3-8.2,6.5-10.9,12.7-13.9c93.3-45,186.6-90,279.8-135.1
	c7.4-3.6,14.2-4.3,21.7-0.6c30.3,14.8,60.5,29.6,90.9,44.1C880.5,367.8,885.4,370.5,886,373.2L886,373.2z"/>
<path d="M697.4,286.6c-0.7,8.5-8,10.1-13.8,12.9C591,344.1,498.4,388.5,406,433.4c-8.4,4.1-15.2,4.8-23.7,0.5
	c-29.4-14.6-59.2-28.5-88.7-42.8c-6-2.9-13.1-5.1-12.9-13.7c0.2-8.6,7.7-10.1,13.6-13c91.8-44.3,183.6-88.5,275.3-133
	c7.9-3.8,15.1-6.8,23.8-2.5c31,15.2,62.1,30.2,93.2,45.2C691.9,276.7,697.3,279.3,697.4,286.6L697.4,286.6z"/>
</svg>
