<?xml version="1.0" encoding="utf-8"?>
<!-- Generator: Adobe Illustrator 24.0.0, SVG Export Plug-In . SVG Version: 6.00 Build 0)  -->
<svg version="1.1" id="Layer_1" xmlns="http://www.w3.org/2000/svg" xmlns:xlink="http://www.w3.org/1999/xlink" x="0px" y="0px"
	 viewBox="0 0 1202.2 1154.9" style="enable-background:new 0 0 1202.2 1154.9;" xml:space="preserve">
<style type="text/css">
	.st0{fill:#FEFEFE;}
</style>
<path d="M508.3,538.5c-29.6-30.4-74.6-33.6-108.8-7.8c-32.6,24.6-44.9,72-20.5,104.3c16.8,22.3,18.7,43.9,17.8,68.4
	c0,12-0.3,24,0.1,36c1.2,34,22,55.2,53.5,54.7c30.2-0.5,50.6-21.7,51.5-54.4c0.6-21.6,0.4-43.2,0-64.8c-0.2-10.7,1.9-19,9.7-27.8
	C539.5,615.3,537.4,568.3,508.3,538.5z M477.5,626.5c-12.3,10.1-14.9,21.1-14.5,35.4c0.6,24.8,0.2,49.6,0.1,74.4
	c0,9.4-1.4,18.4-13.3,18.8c-12,0.4-14.1-8.5-14.3-17.9c-0.2-14.4-0.1-28.8-0.1-43.2c0-12-0.5-24,0.1-36c0.6-12.9-3.3-22.1-13.8-30.9
	c-20.4-16.9-21.1-43-3.9-61.3c17.1-18.2,44.8-18.5,62-0.8C497.5,583.4,497.7,609.9,477.5,626.5z M508.3,538.5
	c-29.6-30.4-74.6-33.6-108.8-7.8c-32.6,24.6-44.9,72-20.5,104.3c16.8,22.3,18.7,43.9,17.8,68.4c0,12-0.3,24,0.1,36
	c1.2,34,22,55.2,53.5,54.7c30.2-0.5,50.6-21.7,51.5-54.4c0.6-21.6,0.4-43.2,0-64.8c-0.2-10.7,1.9-19,9.7-27.8
	C539.5,615.3,537.4,568.3,508.3,538.5z M477.5,626.5c-12.3,10.1-14.9,21.1-14.5,35.4c0.6,24.8,0.2,49.6,0.1,74.4
	c0,9.4-1.4,18.4-13.3,18.8c-12,0.4-14.1-8.5-14.3-17.9c-0.2-14.4-0.1-28.8-0.1-43.2c0-12-0.5-24,0.1-36c0.6-12.9-3.3-22.1-13.8-30.9
	c-20.4-16.9-21.1-43-3.9-61.3c17.1-18.2,44.8-18.5,62-0.8C497.5,583.4,497.7,609.9,477.5,626.5z M508.3,538.5
	c-29.6-30.4-74.6-33.6-108.8-7.8c-32.6,24.6-44.9,72-20.5,104.3c16.8,22.3,18.7,43.9,17.8,68.4c0,12-0.3,24,0.1,36
	c1.2,34,22,55.2,53.5,54.7c30.2-0.5,50.6-21.7,51.5-54.4c0.6-21.6,0.4-43.2,0-64.8c-0.2-10.7,1.9-19,9.7-27.8
	C539.5,615.3,537.4,568.3,508.3,538.5z M477.5,626.5c-12.3,10.1-14.9,21.1-14.5,35.4c0.6,24.8,0.2,49.6,0.1,74.4
	c0,9.4-1.4,18.4-13.3,18.8c-12,0.4-14.1-8.5-14.3-17.9c-0.2-14.4-0.1-28.8-0.1-43.2c0-12-0.5-24,0.1-36c0.6-12.9-3.3-22.1-13.8-30.9
	c-20.4-16.9-21.1-43-3.9-61.3c17.1-18.2,44.8-18.5,62-0.8C497.5,583.4,497.7,609.9,477.5,626.5z M1063.6,972.5
	c-9-52.6-33.8-95.9-75.3-129.8c-15.6-12.7-34.3-20-50.8-31.1h0c47.9-54.8,49.4-118,4.6-163.6c-40.2-40.9-105.6-43.9-150.4-6.5
	c-21,17.5-34.9,40.1-38.6,67.2c-5.5,40,6.5,74.9,37.6,103.3c-11.5,6-21,10.3-29.7,15.8c-53.8,33.6-87.8,80.7-97.4,144.1
	c-2.6,17,2.1,28.6,21.9,28.6c118.6,0,237.1,0,355.7,0C1060.2,1000.5,1066.6,990.3,1063.6,972.5z M863.3,654.1
	c40.1-0.1,72.6,32.8,72.6,73.5c0,41.1-31.7,71.8-73.6,71.4v0c-41.4-0.4-72-31.9-71.5-73.7C791.3,686.6,824.3,654.2,863.3,654.1z
	 M706.7,960.9c13.3-69.1,79.4-121.3,155.2-123c73.7-1.7,139.1,48.7,158.5,123H706.7z M1063.6,972.5c-9-52.6-33.8-95.9-75.3-129.8
	c-15.6-12.7-34.3-20-50.8-31.1h0c47.9-54.8,49.4-118,4.6-163.6c-40.2-40.9-105.6-43.9-150.4-6.5c-21,17.5-34.9,40.1-38.6,67.2
	c-5.5,40,6.5,74.9,37.6,103.3c-11.5,6-21,10.3-29.7,15.8c-53.8,33.6-87.8,80.7-97.4,144.1c-2.6,17,2.1,28.6,21.9,28.6
	c118.6,0,237.1,0,355.7,0C1060.2,1000.5,1066.6,990.3,1063.6,972.5z M863.3,654.1c40.1-0.1,72.6,32.8,72.6,73.5
	c0,41.1-31.7,71.8-73.6,71.4v0c-41.4-0.4-72-31.9-71.5-73.7C791.3,686.6,824.3,654.2,863.3,654.1z M706.7,960.9
	c13.3-69.1,79.4-121.3,155.2-123c73.7-1.7,139.1,48.7,158.5,123H706.7z M508.3,538.5c-29.6-30.4-74.6-33.6-108.8-7.8
	c-32.6,24.6-44.9,72-20.5,104.3c16.8,22.3,18.7,43.9,17.8,68.4c0,12-0.3,24,0.1,36c1.2,34,22,55.2,53.5,54.7
	c30.2-0.5,50.6-21.7,51.5-54.4c0.6-21.6,0.4-43.2,0-64.8c-0.2-10.7,1.9-19,9.7-27.8C539.5,615.3,537.4,568.3,508.3,538.5z
	 M477.5,626.5c-12.3,10.1-14.9,21.1-14.5,35.4c0.6,24.8,0.2,49.6,0.1,74.4c0,9.4-1.4,18.4-13.3,18.8c-12,0.4-14.1-8.5-14.3-17.9
	c-0.2-14.4-0.1-28.8-0.1-43.2c0-12-0.5-24,0.1-36c0.6-12.9-3.3-22.1-13.8-30.9c-20.4-16.9-21.1-43-3.9-61.3
	c17.1-18.2,44.8-18.5,62-0.8C497.5,583.4,497.7,609.9,477.5,626.5z M1197.1,761.7c-24.5-146.9-132.2-250.4-279.1-276.5
	c-14.6-2.6-17.7-8.4-17.4-22c0.9-41.7,0.3-83.4,0.3-125.1c0-41.7-0.7-83.4,0.3-125.1c0.5-19-6.8-28.6-24.2-35.9
	C742.9,120.6,609.1,63.5,475.6,5.9C457.2-2,441.2-1.9,422.9,6C290.1,63.3,157.2,120.3,23.8,176.2c-17.7,7.4-24,16.3-23.8,35.3
	c0.8,113.9,0.4,227.8,0.6,341.7c0,20.8-1.2,42.1,2.2,62.5c35.5,210.1,153.4,352.6,354.1,425.1c45.1,16.3,91.7,27.4,140.5,12.6
	c26.8-8.1,53.9-15.1,79.5-26.4c9.7-4.3,16.3-4.9,24.4,4.7c70.9,84.2,161.3,124.3,271.9,123.3C1055.4,1153.2,1235,988.7,1197.1,761.7
	z M554,995.5c-67.9,29.2-134.8,30.5-204.6,2.9C162.1,924.3,40.6,753.8,37.3,552.1c-1.8-107.4-0.1-214.8-0.8-322.3
	c-0.1-13.8,5.2-19.2,16.9-24.1c125.8-53.3,251.4-106.9,376.8-161c13.5-5.8,24.3-5.8,38.1,0.2C592.8,98.9,717.5,152.4,842.7,205
	c15.2,6.4,19.9,13.5,19.7,29.5c-0.9,75.3-0.7,150.7-0.1,226.1c0.1,14.4-2.1,21.1-19,21.4c-42.8,0.6-83.5,12.5-124.7,30.2h0
	c-1.3-15.3-1.3-26.5-3.3-37.4c-4.8-26-21.6-42.7-47.4-42c-20.6,0.6-23.3-7.8-22.6-25c2-48.8-4.9-95.5-33-137.6
	c-47.8-71.7-135.7-104-218.8-79.3c-82.6,24.5-139.7,100.3-140.2,186c0,4.8-0.3,9.6,0.1,14.4c1.9,23.8,3.9,44.3-32.5,42.9
	c-23.4-0.9-38.8,25-39,55c-0.4,58.5-0.1,117-0.1,175.6c0,49.7-0.3,99.4,0.1,149.1c0.3,43.7,18.3,61.4,61.2,61.4
	c89,0,178,0.3,267-0.3c14.2-0.1,20.6,2.8,23.3,18.4c4.9,28.4,14.8,55.8,29.7,80.6C570.8,987.2,565.3,990.7,554,995.5z M220.6,495.1
	c-0.1-18.5,5.5-25.4,24.7-25.1c68.1,0.9,136.1,0.4,204.2,0.4v0c67.3,0,134.6,0.5,201.8-0.3c19.2-0.3,26.4,5,27.6,25.4
	c1.6,27.2-7.5,43.6-29.4,61.4c-81.3,66-124.9,152.5-124.8,258.4c0,18.5-4.6,22.3-22.3,22.1c-85.7-1-171.4-1-257.1,0
	c-19.5,0.2-24.8-6.8-24.7-25C221.2,706.5,221.2,600.8,220.6,495.1z M292.3,391c-4.8-98.4,63-152.2,118.5-164.9
	c103.3-23.6,191.1,46,195.8,154.6c0.4,8.8-0.9,17.8,0.3,26.4c2.9,20-4.7,25.9-24.7,25.4c-15.9-0.4-18.4-5.9-17.9-19.6
	c0.8-21.6,1.4-43.2-4.2-64.5c-14.2-54.7-68.3-91.2-126.1-84.4c-53.9,6.4-98.3,54.9-99.8,109.4c-0.3,10.4-0.2,20.8,0,31.3
	c0.3,15.1,3.4,28.4-21.6,28.2c-24.3-0.2-20.4-13.3-20.3-27.5C292.3,400.6,292.3,395.8,292.3,391z M386.2,431.9
	c-8.4,0.1-13.8-1.5-13.4-11.7c0.7-17.5-0.9-35.3,1.3-52.6c4.8-37.4,36.9-65.1,73.7-65.6c38.3-0.5,69.9,26.2,76.8,65.1
	c10.5,59,5.9,64.7-52.2,64.7h-24v0C427.7,431.8,407,431.6,386.2,431.9z M861.7,1116.7L861.7,1116.7
	c-168.3-0.9-299.2-133.2-298.4-301.6c0.7-163.9,137-296.9,302.9-295.7c164.7,1.2,300.2,138.2,298.2,301.5
	C1162.4,986.4,1028.2,1117.6,861.7,1116.7z M988.3,842.8c-15.6-12.7-34.3-20-50.8-31.1h0c47.9-54.8,49.4-118,4.6-163.6
	c-40.2-40.9-105.6-43.9-150.4-6.5c-21,17.5-34.9,40.1-38.6,67.2c-5.5,40,6.5,74.9,37.6,103.3c-11.5,6-21,10.3-29.7,15.8
	c-53.8,33.6-87.8,80.7-97.4,144.1c-2.6,17,2.1,28.6,21.9,28.6c118.6,0,237.1,0,355.7,0c19.2,0,25.6-10.3,22.5-28
	C1054.5,920,1029.8,876.7,988.3,842.8z M863.3,654.1c40.1-0.1,72.6,32.8,72.6,73.5c0,41.1-31.7,71.8-73.6,71.4v0
	c-41.4-0.4-72-31.9-71.5-73.7C791.3,686.6,824.3,654.2,863.3,654.1z M706.7,960.9c13.3-69.1,79.4-121.3,155.2-123
	c73.7-1.7,139.1,48.7,158.5,123H706.7z M396.8,703.5c0,12-0.3,24,0.1,36c1.2,34,22,55.2,53.5,54.7c30.2-0.5,50.6-21.7,51.5-54.4
	c0.6-21.6,0.4-43.2,0-64.8c-0.2-10.7,1.9-19,9.7-27.8c28-31.9,25.9-78.9-3.2-108.7c-29.6-30.4-74.6-33.6-108.8-7.8
	c-32.6,24.6-44.9,72-20.5,104.3C395.8,657.3,397.7,678.9,396.8,703.5z M417.9,566c17.1-18.2,44.8-18.5,62-0.8
	c17.6,18.2,17.8,44.7-2.3,61.3c-12.3,10.1-14.9,21.1-14.5,35.4c0.6,24.8,0.2,49.6,0.1,74.4c0,9.4-1.4,18.4-13.3,18.8
	c-12,0.4-14.1-8.5-14.3-17.9c-0.2-14.4-0.1-28.8-0.1-43.2c0-12-0.5-24,0.1-36c0.6-12.9-3.3-22.1-13.8-30.9
	C401.4,610.3,400.7,584.2,417.9,566z M508.3,538.5c-29.6-30.4-74.6-33.6-108.8-7.8c-32.6,24.6-44.9,72-20.5,104.3
	c16.8,22.3,18.7,43.9,17.8,68.4c0,12-0.3,24,0.1,36c1.2,34,22,55.2,53.5,54.7c30.2-0.5,50.6-21.7,51.5-54.4
	c0.6-21.6,0.4-43.2,0-64.8c-0.2-10.7,1.9-19,9.7-27.8C539.5,615.3,537.4,568.3,508.3,538.5z M477.5,626.5
	c-12.3,10.1-14.9,21.1-14.5,35.4c0.6,24.8,0.2,49.6,0.1,74.4c0,9.4-1.4,18.4-13.3,18.8c-12,0.4-14.1-8.5-14.3-17.9
	c-0.2-14.4-0.1-28.8-0.1-43.2c0-12-0.5-24,0.1-36c0.6-12.9-3.3-22.1-13.8-30.9c-20.4-16.9-21.1-43-3.9-61.3
	c17.1-18.2,44.8-18.5,62-0.8C497.5,583.4,497.7,609.9,477.5,626.5z M1063.6,972.5c-9-52.6-33.8-95.9-75.3-129.8
	c-15.6-12.7-34.3-20-50.8-31.1h0c47.9-54.8,49.4-118,4.6-163.6c-40.2-40.9-105.6-43.9-150.4-6.5c-21,17.5-34.9,40.1-38.6,67.2
	c-5.5,40,6.5,74.9,37.6,103.3c-11.5,6-21,10.3-29.7,15.8c-53.8,33.6-87.8,80.7-97.4,144.1c-2.6,17,2.1,28.6,21.9,28.6
	c118.6,0,237.1,0,355.7,0C1060.2,1000.5,1066.6,990.3,1063.6,972.5z M863.3,654.1c40.1-0.1,72.6,32.8,72.6,73.5
	c0,41.1-31.7,71.8-73.6,71.4v0c-41.4-0.4-72-31.9-71.5-73.7C791.3,686.6,824.3,654.2,863.3,654.1z M706.7,960.9
	c13.3-69.1,79.4-121.3,155.2-123c73.7-1.7,139.1,48.7,158.5,123H706.7z M1063.6,972.5c-9-52.6-33.8-95.9-75.3-129.8
	c-15.6-12.7-34.3-20-50.8-31.1h0c47.9-54.8,49.4-118,4.6-163.6c-40.2-40.9-105.6-43.9-150.4-6.5c-21,17.5-34.9,40.1-38.6,67.2
	c-5.5,40,6.5,74.9,37.6,103.3c-11.5,6-21,10.3-29.7,15.8c-53.8,33.6-87.8,80.7-97.4,144.1c-2.6,17,2.1,28.6,21.9,28.6
	c118.6,0,237.1,0,355.7,0C1060.2,1000.5,1066.6,990.3,1063.6,972.5z M863.3,654.1c40.1-0.1,72.6,32.8,72.6,73.5
	c0,41.1-31.7,71.8-73.6,71.4v0c-41.4-0.4-72-31.9-71.5-73.7C791.3,686.6,824.3,654.2,863.3,654.1z M706.7,960.9
	c13.3-69.1,79.4-121.3,155.2-123c73.7-1.7,139.1,48.7,158.5,123H706.7z M508.3,538.5c-29.6-30.4-74.6-33.6-108.8-7.8
	c-32.6,24.6-44.9,72-20.5,104.3c16.8,22.3,18.7,43.9,17.8,68.4c0,12-0.3,24,0.1,36c1.2,34,22,55.2,53.5,54.7
	c30.2-0.5,50.6-21.7,51.5-54.4c0.6-21.6,0.4-43.2,0-64.8c-0.2-10.7,1.9-19,9.7-27.8C539.5,615.3,537.4,568.3,508.3,538.5z
	 M477.5,626.5c-12.3,10.1-14.9,21.1-14.5,35.4c0.6,24.8,0.2,49.6,0.1,74.4c0,9.4-1.4,18.4-13.3,18.8c-12,0.4-14.1-8.5-14.3-17.9
	c-0.2-14.4-0.1-28.8-0.1-43.2c0-12-0.5-24,0.1-36c0.6-12.9-3.3-22.1-13.8-30.9c-20.4-16.9-21.1-43-3.9-61.3
	c17.1-18.2,44.8-18.5,62-0.8C497.5,583.4,497.7,609.9,477.5,626.5z M508.3,538.5c-29.6-30.4-74.6-33.6-108.8-7.8
	c-32.6,24.6-44.9,72-20.5,104.3c16.8,22.3,18.7,43.9,17.8,68.4c0,12-0.3,24,0.1,36c1.2,34,22,55.2,53.5,54.7
	c30.2-0.5,50.6-21.7,51.5-54.4c0.6-21.6,0.4-43.2,0-64.8c-0.2-10.7,1.9-19,9.7-27.8C539.5,615.3,537.4,568.3,508.3,538.5z
	 M477.5,626.5c-12.3,10.1-14.9,21.1-14.5,35.4c0.6,24.8,0.2,49.6,0.1,74.4c0,9.4-1.4,18.4-13.3,18.8c-12,0.4-14.1-8.5-14.3-17.9
	c-0.2-14.4-0.1-28.8-0.1-43.2c0-12-0.5-24,0.1-36c0.6-12.9-3.3-22.1-13.8-30.9c-20.4-16.9-21.1-43-3.9-61.3
	c17.1-18.2,44.8-18.5,62-0.8C497.5,583.4,497.7,609.9,477.5,626.5z M508.3,538.5c-29.6-30.4-74.6-33.6-108.8-7.8
	c-32.6,24.6-44.9,72-20.5,104.3c16.8,22.3,18.7,43.9,17.8,68.4c0,12-0.3,24,0.1,36c1.2,34,22,55.2,53.5,54.7
	c30.2-0.5,50.6-21.7,51.5-54.4c0.6-21.6,0.4-43.2,0-64.8c-0.2-10.7,1.9-19,9.7-27.8C539.5,615.3,537.4,568.3,508.3,538.5z
	 M477.5,626.5c-12.3,10.1-14.9,21.1-14.5,35.4c0.6,24.8,0.2,49.6,0.1,74.4c0,9.4-1.4,18.4-13.3,18.8c-12,0.4-14.1-8.5-14.3-17.9
	c-0.2-14.4-0.1-28.8-0.1-43.2c0-12-0.5-24,0.1-36c0.6-12.9-3.3-22.1-13.8-30.9c-20.4-16.9-21.1-43-3.9-61.3
	c17.1-18.2,44.8-18.5,62-0.8C497.5,583.4,497.7,609.9,477.5,626.5z"/>
<path class="st0" d="M1063.6,972.5c-9-52.6-33.8-95.9-75.3-129.8c-15.6-12.7-34.3-20-50.8-31.1h0c47.9-54.8,49.4-118,4.6-163.6
	c-40.2-40.9-105.6-43.9-150.4-6.5c-21,17.5-34.9,40.1-38.6,67.2c-5.5,40,6.5,74.9,37.6,103.3c-11.5,6-21,10.3-29.7,15.8
	c-53.8,33.6-87.8,80.7-97.4,144.1c-2.6,17,2.1,28.6,21.9,28.6c118.6,0,237.1,0,355.7,0C1060.2,1000.5,1066.6,990.3,1063.6,972.5z
	 M863.3,654.1c40.1-0.1,72.6,32.8,72.6,73.5c0,41.1-31.7,71.8-73.6,71.4v0c-41.4-0.4-72-31.9-71.5-73.7
	C791.3,686.6,824.3,654.2,863.3,654.1z M706.7,960.9c13.3-69.1,79.4-121.3,155.2-123c73.7-1.7,139.1,48.7,158.5,123H706.7z"/>
<path class="st0" d="M508.3,538.5c-29.6-30.4-74.6-33.6-108.8-7.8c-32.6,24.6-44.9,72-20.5,104.3c16.8,22.3,18.7,43.9,17.8,68.4
	c0,12-0.3,24,0.1,36c1.2,34,22,55.2,53.5,54.7c30.2-0.5,50.6-21.7,51.5-54.4c0.6-21.6,0.4-43.2,0-64.8c-0.2-10.7,1.9-19,9.7-27.8
	C539.5,615.3,537.4,568.3,508.3,538.5z M477.5,626.5c-12.3,10.1-14.9,21.1-14.5,35.4c0.6,24.8,0.2,49.6,0.1,74.4
	c0,9.4-1.4,18.4-13.3,18.8c-12,0.4-14.1-8.5-14.3-17.9c-0.2-14.4-0.1-28.8-0.1-43.2c0-12-0.5-24,0.1-36c0.6-12.9-3.3-22.1-13.8-30.9
	c-20.4-16.9-21.1-43-3.9-61.3c17.1-18.2,44.8-18.5,62-0.8C497.5,583.4,497.7,609.9,477.5,626.5z"/>
<path d="M1063.6,972.5c-9-52.6-33.8-95.9-75.3-129.8c-15.6-12.7-34.3-20-50.8-31.1h0c47.9-54.8,49.4-118,4.6-163.6
	c-40.2-40.9-105.6-43.9-150.4-6.5c-21,17.5-34.9,40.1-38.6,67.2c-5.5,40,6.5,74.9,37.6,103.3c-11.5,6-21,10.3-29.7,15.8
	c-53.8,33.6-87.8,80.7-97.4,144.1c-2.6,17,2.1,28.6,21.9,28.6c118.6,0,237.1,0,355.7,0C1060.2,1000.5,1066.6,990.3,1063.6,972.5z
	 M863.3,654.1c40.1-0.1,72.6,32.8,72.6,73.5c0,41.1-31.7,71.8-73.6,71.4v0c-41.4-0.4-72-31.9-71.5-73.7
	C791.3,686.6,824.3,654.2,863.3,654.1z M706.7,960.9c13.3-69.1,79.4-121.3,155.2-123c73.7-1.7,139.1,48.7,158.5,123H706.7z"/>
<path d="M508.3,538.5c-29.6-30.4-74.6-33.6-108.8-7.8c-32.6,24.6-44.9,72-20.5,104.3c16.8,22.3,18.7,43.9,17.8,68.4
	c0,12-0.3,24,0.1,36c1.2,34,22,55.2,53.5,54.7c30.2-0.5,50.6-21.7,51.5-54.4c0.6-21.6,0.4-43.2,0-64.8c-0.2-10.7,1.9-19,9.7-27.8
	C539.5,615.3,537.4,568.3,508.3,538.5z M477.5,626.5c-12.3,10.1-14.9,21.1-14.5,35.4c0.6,24.8,0.2,49.6,0.1,74.4
	c0,9.4-1.4,18.4-13.3,18.8c-12,0.4-14.1-8.5-14.3-17.9c-0.2-14.4-0.1-28.8-0.1-43.2c0-12-0.5-24,0.1-36c0.6-12.9-3.3-22.1-13.8-30.9
	c-20.4-16.9-21.1-43-3.9-61.3c17.1-18.2,44.8-18.5,62-0.8C497.5,583.4,497.7,609.9,477.5,626.5z"/>
</svg>
