<?xml version="1.0" encoding="utf-8"?>
<!-- Generator: Adobe Illustrator 24.0.0, SVG Export Plug-In . SVG Version: 6.00 Build 0)  -->
<svg version="1.1" id="Layer_1" xmlns="http://www.w3.org/2000/svg" xmlns:xlink="http://www.w3.org/1999/xlink" x="0px" y="0px"
	 viewBox="0 0 1362.9 1179.6" style="enable-background:new 0 0 1362.9 1179.6;" xml:space="preserve">
<style type="text/css">
	.st0{fill:#FEFEFE;}
</style>
<path d="M407.6,481.7c-0.4,57.2-0.3,114.4-0.1,171.6c0.1,20.8-10.4,29-30.5,28.9c-70.8-0.3-141.7-0.3-212.5,0
	c-20.5,0.1-30.4-9.3-30.5-29.4c-0.1-57.2,0-114.4-0.1-171.6c0-21,10.7-28.4,31-27.9c35.4,0.9,70.8,0.3,106.2,0.3v0
	c35.4,0,70.9,0.6,106.2-0.2C398,452.8,407.8,460.6,407.6,481.7z"/>
<path d="M1332.9,544.4c-43.7-1-86.5-9.5-129.1-19.4c-17.5-4.1-22.4-12.3-22.3-29.8c0.8-121.9,0.5-243.9,0.4-365.8
	c-0.1-83.5-46.2-129.1-130.3-129.1c-153.8-0.1-307.6,0-461.4,0H475.6c-119.2,0-238.4-0.4-357.7,0.2C51.2,0.7,0.6,46.3,0.4,107.3
	C-0.3,307.5,0.3,507.7,0,708c-0.1,42.6,20.9,72.1,55.3,93.9c22.5,14.3,48,15,73.7,15c191.1-0.1,382.2,0.3,573.3-0.5
	c19.3-0.1,26.2,4,27.9,24.4c3,34.4,12.8,67.6,27.9,99.1c57.3,119.5,157.4,189.2,275.8,237.9c10.4,4.3,19.3,0.5,28.8-3.2
	c70.8-28.1,135.6-66.3,189.5-120.4c68.6-68.7,111.1-149.6,110.3-249.6c-0.6-75.5-0.7-151.1,0.5-226.6
	C1363.3,555.2,1357.2,544.9,1332.9,544.4z M43.9,108.2c3.9-29.7,21.7-52.7,50.9-60.1c8.7-2.2,17.9-3.3,26.9-3.3
	c311.9-0.2,623.8-0.2,935.7-0.1c47.7,0,75.9,25.3,79.8,67.9c1.7,18.4-2.4,24.6-22.6,24.5c-175.5-0.9-351-0.5-526.5-0.5l0,0
	c-172.8,0-345.6-0.6-518.3,0.6C45.5,137.5,41.1,129.8,43.9,108.2z M757.1,544.9c-22,0.3-30.7,8.6-30.3,31
	c1,58.2-0.4,116.5,0.8,174.7c0.3,17.2-4.9,21-21.3,21c-196.5-0.6-393.1-0.2-589.6-0.5c-46.2-0.1-72.5-26.7-72.8-73.2
	c-0.5-104.6,0.3-209.3-0.6-313.9c-0.1-17.2,5.1-21,21.5-20.9c350.3,0.5,700.6,0.4,1050.9,0c15.7,0,22.7,2.3,21.9,20.4
	c-1.5,37.2-0.5,74.5-0.5,114.8h0c-27.9-8.9-50.1-21.1-70.8-35.4c-15.1-10.4-26.6-9-41.8,0.5C943,515,853.9,543.4,757.1,544.9z
	 M1227.5,725c-0.2,9.7-4.9,17.1-11.6,23.8c-64.6,64-129.2,128-193.5,192.3c-15.1,15.1-28.6,15.9-44,0.4
	c-33.8-34.3-68.2-68.1-102.3-102.1c-11.3-11.2-18.7-23.5-5.1-37.7c14-14.7,26-6.7,37.2,4.6c25.7,25.8,52.2,50.8,76.6,77.7
	c12.7,14,19.7,11.6,31.6-0.6c56-57.1,113-113.3,169.6-169.8c7.4-7.4,15-13.3,26.3-9.1C1221.9,707.8,1225.9,715.5,1227.5,725
	L1227.5,725z"/>
<path class="st0" d="M407.5,653.3c0.1,20.8-10.4,29-30.5,28.9c-70.8-0.3-141.7-0.3-212.5,0c-20.5,0.1-30.4-9.3-30.5-29.4
	c-0.1-57.2,0-114.4-0.1-171.6c0-21,10.7-28.4,31-27.9c35.4,0.9,70.8,0.3,106.2,0.3v0c35.4,0,70.9,0.6,106.2-0.2
	c20.5-0.5,30.3,7.3,30.1,28.4C407.2,538.9,407.4,596.1,407.5,653.3z"/>
<path d="M407.5,653.3c0.1,20.8-10.4,29-30.5,28.9c-70.8-0.3-141.7-0.3-212.5,0c-20.5,0.1-30.4-9.3-30.5-29.4
	c-0.1-57.2,0-114.4-0.1-171.6c0-21,10.7-28.4,31-27.9c35.4,0.9,70.8,0.3,106.2,0.3v0c35.4,0,70.9,0.6,106.2-0.2
	c20.5-0.5,30.3,7.3,30.1,28.4C407.2,538.9,407.4,596.1,407.5,653.3z"/>
</svg>
