<?xml version="1.0" encoding="utf-8"?>
<!-- Generator: Adobe Illustrator 24.0.0, SVG Export Plug-In . SVG Version: 6.00 Build 0)  -->
<svg version="1.1" id="Layer_1" xmlns="http://www.w3.org/2000/svg" xmlns:xlink="http://www.w3.org/1999/xlink" x="0px" y="0px"
	 viewBox="0 0 1074.4 963.4" style="enable-background:new 0 0 1074.4 963.4;" xml:space="preserve">
<path d="M745.9,307.9c-0.2-12.3-5.2-13.4-15.1-14.5c-78.9-8.9-146.3-42-203-97.4c-18.4-18-37.2-35.7-58.8-50.1s-42.4-14.2-63.9,0.2
	c-21.6,14.5-40.2,32.2-58.6,50.3c-49.3,48.3-108.1,78.9-175.5,93.4c-13.6,2.9-32.9-2.1-39.6,9.2c-6.3,10.7-1.3,27.9-1.3,36.2v0
	c-1.3,40.7,5.5,74.4,13.7,107.8c38.5,156.3,123.8,277.8,265.6,357.8c18.3,10.3,33.6,13.8,52.8,1.5c23.4-15.1,47-29.9,69.8-46
	c10.7-7.6,13.4-16,13.8-28.5c4.1-121.1,62-208.5,168.3-264.5c9.8-5.1,15.3-10.4,17.7-21.2C742,398,746.5,353.3,745.9,307.9z
	 M509.4,456.2c-10.9,14.1-15,27.7-14.2,44.8c1.1,22.9,0.8,45.8,0.1,68.7c-1.1,37.6-25.7,62.9-59.6,62.2c-33-0.8-55.2-25.8-55.7-63.1
	c-0.2-12.9,0-25.8,0-38.7c0-7.2-0.3-14.3,0-21.5c1-20.1-2-37-16.1-54.7c-28-35.1-19.4-87.1,14.4-115.9
	c35.2-29.9,85.7-29.3,119.5,1.6C530.9,369.9,537,420.5,509.4,456.2z"/>
<path d="M1073.9,731.8c6.9-117-93.2-235-232.6-235c-127.4,0-232.5,104.6-232.6,232.1C608.5,856.4,709.9,959,831.7,963.2
	C979.9,968.4,1082.2,840.3,1073.9,731.8z M959.9,695.3c-43.3,43.8-86.9,87.3-130.8,130.5c-19.9,19.6-41.5,20.9-61,2.7
	c-23.6-21.9-46.2-45-68.4-68.3c-13.2-13.8-14.9-30.7-6.9-47.8c7.4-15.9,21.3-22.3,38.3-22.5c22.6-1,35.1,15.3,47.2,29.8
	c13.3,15.8,22,17.3,36.9,0.7c26.8-29.8,56.3-57.1,84.8-85.3c19-18.8,44.2-20.4,61.1-4.3C980.3,649.1,980.2,674.8,959.9,695.3z"/>
<path d="M559.4,822.6c7,15.7,12.9,31,20.6,45.3c4.6,8.5,0.3,11.4-5.4,15.2c-35.9,23.7-74.1,43.2-113.5,60.2
	c-20,8.6-38.9,4.1-57.9-4.3C237,865,119.7,743.3,50.5,575.7c-33.6-81.4-53.6-165.9-50.1-255c1.3-33.7-0.1-67.4,0.4-101.1
	c0.5-38,27-64.5,65-59.9c84.7,10.2,151.9-20.1,210-79.9C315.1,39.1,361.1,7,419.8,1c75-7.7,130.3,31.4,180.1,79.9
	c39.4,38.3,81.9,69.2,137.5,78c21.4,3.4,42.8,3.1,64.3,1.1c45-4.2,74.1,20.6,73.7,65.1c-0.6,59.4,3.5,119-4,178.3
	c-2.6,20.5-5.7,32.8-32.3,30.7c-32.3-2.6-32.6,0.5-26.9-32.6c10-57.7,4.3-115.9,6-173.9c0.4-13.8-8.5-10.2-15.8-9.4
	c-72.4,8.4-137.8-9.5-195.6-53.4c-17-12.9-32.3-28.4-47.7-43.3c-21.8-21-45.5-39.2-73-52.2c-32.5-15.4-64.7-15.3-97.2-0.1
	c-33.7,15.7-61.2,39.4-86.9,65.7C250.1,188,187.1,216.7,113,220.4c-8.6,0.4-17.2,0.5-25.8-0.1c-30-2.2-29-2.3-30.2,29
	c-3.7,97.4,4.3,192.8,39.4,285.1C155,688.5,256.7,802.8,404.6,876.5c22.8,11.3,41.4,11.4,63.7-0.2
	C499.5,860.2,529.2,842,559.4,822.6z"/>
</svg>
