<?xml version="1.0" encoding="utf-8"?>
<!-- Generator: Adobe Illustrator 24.0.0, SVG Export Plug-In . SVG Version: 6.00 Build 0)  -->
<svg version="1.1" id="Layer_1" xmlns="http://www.w3.org/2000/svg" xmlns:xlink="http://www.w3.org/1999/xlink" x="0px" y="0px"
	 viewBox="0 0 957.2 1088.4" style="enable-background:new 0 0 957.2 1088.4;" xml:space="preserve">
<style type="text/css">
	.st0{fill:#100F0D;}
	.st1{fill:#FEFEFE;}
	.st2{fill:#11100E;}
	.st3{fill:#FDFDFD;}
</style>
<path class="st0" d="M323,393.3c0.1-17.6-0.2-35.3,1.2-52.9c6-72.8,66.9-127.6,140.6-127.1c73.9,0.5,133.7,55.5,139.4,128.5
	c1,13.2,1.3,26.4,1.9,39.6c-0.2,0-0.3,0-0.5,0c0,8.8-1,17.8,0.2,26.4c3.1,21.5-4.1,29.2-26.9,27.4c-30.3-2.4-30.2-0.6-30.2-32.3
	c0-20.5,1.4-41.1-1.9-61.6c-6.9-42.8-41-71.5-84.3-70.6c-43.8,0.9-76.6,30.5-80.3,74.4c-2.1,24.8-2.2,49.9-1.9,74.9
	c0.1,11.3-2.7,14.8-14.4,15C323,436,322.9,436.6,323,393.3z"/>
<path class="st0" d="M603.9,547.5c-0.3-25.7-12.3-37.2-38.2-37.6c-32.9-0.4-65.9-0.1-98.8-0.1v0c-35.1,0-70.3-0.4-105.4,0.1
	c-24.5,0.4-36.2,12.3-36.4,36.8c-0.4,41.8-0.4,83.7,0,125.5c0.2,24.4,11.8,37.7,35.8,38c68.8,0.8,137.6,0.8,206.4,0
	c24-0.3,36.4-13.9,36.7-37.4C604.4,631.2,604.4,589.3,603.9,547.5z M499,594.6c-11.7,18.6-17.6,38.5-17,60.9
	c0.3,8.9-9.3,12.5-18,12.3c-9.8-0.3-18-5-17.8-15.5c0.3-19.2-2.4-36.2-14.2-52.7c-8.2-11.5-3.2-26.2,7.2-35.9
	c10.7-10.1,24-13.4,38.5-7.7c14.7,5.7,21.1,17.1,22.4,32.9C499.8,590.4,500,592.9,499,594.6z"/>
<path class="st0" d="M656.9,501.5c-0.2-26.7-12.5-39.2-39.4-39.3c-101.9-0.5-203.8-0.5-305.7,0c-28,0.1-39.6,12.6-39.7,41.1
	c-0.3,70.6-0.3,141.2,0,211.8c0.1,30.9,11.9,42.5,42.6,42.7c49.8,0.2,99.7,0.1,149.5,0c51.3,0,102.6,0.3,153.9-0.2
	c25.4-0.2,38.5-12.9,38.7-37.8C657.3,647.1,657.3,574.3,656.9,501.5z M629.2,695.1c-0.3,24.7-13.8,37.3-38.8,37.5
	c-42.5,0.4-85,0.1-127.4,0.1v0c-41,0-82,0.2-123-0.1c-27.6-0.2-39.9-12.5-40.1-40.6c-0.3-54.4-0.3-108.7,0-163.1
	c0.1-28.2,12.2-41,39.7-41.2c83.5-0.3,167-0.3,250.4,0c25.8,0.1,39,13.4,39.2,39.7C629.8,583.4,629.8,639.3,629.2,695.1z"/>
<path class="st0" d="M956.5,219.2c-3.2-47.1-27.4-73.2-74.4-80.9c-49.8-8.2-100.4-11.1-149.3-25.1C669.5,95,611.1,66.3,558.1,27.9
	C507.6-8.7,459-9.1,408,25.6c-22.9,15.6-47.2,29.5-71.7,42.5c-80.2,42.5-166.8,61.4-256.4,70.5c-50.7,5.2-78.3,37.3-79.3,88.8
	c-1.8,95.6,0.4,190.9,17.3,285.6c43.8,244,171.9,428.2,385,553.2c48.3,28.3,96.4,31.1,144.9,0.4c83.2-52.7,155.2-117.9,215-196.3
	C894,698.3,950.9,501.3,956.7,287.5h0C956.7,264.8,958,241.9,956.5,219.2z M707.1,794C653.4,868.8,585.7,929.2,510,980.9
	c-21,14.3-41.4,14.2-63.7,1.9c-155.6-85.8-260.4-213.4-314-382.9c-30.7-97.2-43.2-184.4-44.2-290.7c0-16.2,1.1-32.4-0.3-48.5
	c-1.8-22.1,7.1-31,29.2-34.1c68.2-9.3,135.7-21.9,200.1-47.7c50.5-20.2,98.3-45.3,142.8-76.5c15.3-10.7,26.7-11.5,42.6,0.1
	C605.3,177.4,721.3,216.3,847,227.5c13.4,1.2,24.1,2.6,23.8,20.9C867.1,445.7,824.3,631.2,707.1,794z"/>
<path class="st1" d="M323,393.3c0.1-17.6-0.2-35.3,1.2-52.9c6-72.8,66.9-127.6,140.6-127.1c73.9,0.5,133.7,55.5,139.4,128.5
	c1,13.2,1.3,26.4,1.9,39.6c-0.2,0-0.3,0-0.5,0c0,8.8-1,17.8,0.2,26.4c3.1,21.5-4.1,29.2-26.9,27.4c-30.3-2.4-30.2-0.6-30.2-32.3
	c0-20.5,1.4-41.1-1.9-61.6c-6.9-42.8-41-71.5-84.3-70.6c-43.8,0.9-76.6,30.5-80.3,74.4c-2.1,24.8-2.2,49.9-1.9,74.9
	c0.1,11.3-2.7,14.8-14.4,15C323,436,322.9,436.6,323,393.3z"/>
<path class="st1" d="M603.9,547.5c-0.3-25.7-12.3-37.2-38.2-37.6c-32.9-0.4-65.9-0.1-98.8-0.1v0c-35.1,0-70.3-0.4-105.4,0.1
	c-24.5,0.4-36.2,12.3-36.4,36.8c-0.4,41.8-0.4,83.7,0,125.5c0.2,24.4,11.8,37.7,35.8,38c68.8,0.8,137.6,0.8,206.4,0
	c24-0.3,36.4-13.9,36.7-37.4C604.4,631.2,604.4,589.3,603.9,547.5z M499,594.6c-11.7,18.6-17.6,38.5-17,60.9
	c0.3,8.9-9.3,12.5-18,12.3c-9.8-0.3-18-5-17.8-15.5c0.3-19.2-2.4-36.2-14.2-52.7c-8.2-11.5-3.2-26.2,7.2-35.9
	c10.7-10.1,24-13.4,38.5-7.7c14.7,5.7,21.1,17.1,22.4,32.9C499.8,590.4,500,592.9,499,594.6z"/>
<path class="st1" d="M656.9,501.5c-0.2-26.7-12.5-39.2-39.4-39.3c-101.9-0.5-203.8-0.5-305.7,0c-28,0.1-39.6,12.6-39.7,41.1
	c-0.3,70.6-0.3,141.2,0,211.8c0.1,30.9,11.9,42.5,42.6,42.7c49.8,0.2,99.7,0.1,149.5,0c51.3,0,102.6,0.3,153.9-0.2
	c25.4-0.2,38.5-12.9,38.7-37.8C657.3,647.1,657.3,574.3,656.9,501.5z M629.2,695.1c-0.3,24.7-13.8,37.3-38.8,37.5
	c-42.5,0.4-85,0.1-127.4,0.1v0c-41,0-82,0.2-123-0.1c-27.6-0.2-39.9-12.5-40.1-40.6c-0.3-54.4-0.3-108.7,0-163.1
	c0.1-28.2,12.2-41,39.7-41.2c83.5-0.3,167-0.3,250.4,0c25.8,0.1,39,13.4,39.2,39.7C629.8,583.4,629.8,639.3,629.2,695.1z"/>
<path class="st2" d="M603.9,547.5c-0.3-25.7-12.3-37.2-38.2-37.6c-32.9-0.4-65.9-0.1-98.8-0.1v0c-35.1,0-70.3-0.4-105.4,0.1
	c-24.5,0.4-36.2,12.3-36.4,36.8c-0.4,41.8-0.4,83.7,0,125.5c0.2,24.4,11.8,37.7,35.8,38c68.8,0.8,137.6,0.8,206.4,0
	c24-0.3,36.4-13.9,36.7-37.4C604.4,631.2,604.4,589.3,603.9,547.5z M499,594.6c-11.7,18.6-17.6,38.5-17,60.9
	c0.3,8.9-9.3,12.5-18,12.3c-9.8-0.3-18-5-17.8-15.5c0.3-19.2-2.4-36.2-14.2-52.7c-8.2-11.5-3.2-26.2,7.2-35.9
	c10.7-10.1,24-13.4,38.5-7.7c14.7,5.7,21.1,17.1,22.4,32.9C499.8,590.4,500,592.9,499,594.6z"/>
<path class="st2" d="M656.9,501.5c-0.2-26.7-12.5-39.2-39.4-39.3c-101.9-0.5-203.8-0.5-305.7,0c-28,0.1-39.6,12.6-39.7,41.1
	c-0.3,70.6-0.3,141.2,0,211.8c0.1,30.9,11.9,42.5,42.6,42.7c49.8,0.2,99.7,0.1,149.5,0c51.3,0,102.6,0.3,153.9-0.2
	c25.4-0.2,38.5-12.9,38.7-37.8C657.3,647.1,657.3,574.3,656.9,501.5z M629.2,695.1c-0.3,24.7-13.8,37.3-38.8,37.5
	c-42.5,0.4-85,0.1-127.4,0.1v0c-41,0-82,0.2-123-0.1c-27.6-0.2-39.9-12.5-40.1-40.6c-0.3-54.4-0.3-108.7,0-163.1
	c0.1-28.2,12.2-41,39.7-41.2c83.5-0.3,167-0.3,250.4,0c25.8,0.1,39,13.4,39.2,39.7C629.8,583.4,629.8,639.3,629.2,695.1z"/>
<path class="st0" d="M579,435.3c-30.3-2.4-30.2-0.6-30.2-32.3c0-20.5,1.4-41.1-1.9-61.6c-6.9-42.8-41-71.5-84.3-70.6
	c-43.8,0.9-76.6,30.5-80.3,74.4c-2.1,24.8-2.2,49.9-1.9,74.9c0.1,11.3-2.7,14.8-14.4,15c-43,0.9-43.1,1.5-42.9-41.8
	c0.1-17.6-0.2-35.3,1.2-52.9c6-72.8,66.9-127.6,140.6-127.1c73.9,0.5,133.7,55.5,139.4,128.5c1,13.2,1.3,26.4,1.9,39.6
	c-0.2,0-0.3,0-0.5,0c0,8.8-1,17.8,0.2,26.4C608.9,429.5,601.7,437.1,579,435.3z"/>
<path class="st3" d="M603.9,547.5c-0.3-25.7-12.3-37.2-38.2-37.6c-32.9-0.4-65.9-0.1-98.8-0.1v0c-35.1,0-70.3-0.4-105.4,0.1
	c-24.5,0.4-36.2,12.3-36.4,36.8c-0.4,41.8-0.4,83.7,0,125.5c0.2,24.4,11.8,37.7,35.8,38c68.8,0.8,137.6,0.8,206.4,0
	c24-0.3,36.4-13.9,36.7-37.4C604.4,631.2,604.4,589.3,603.9,547.5z M499,594.6c-11.7,18.6-17.6,38.5-17,60.9
	c0.3,8.9-9.3,12.5-18,12.3c-9.8-0.3-18-5-17.8-15.5c0.3-19.2-2.4-36.2-14.2-52.7c-8.2-11.5-3.2-26.2,7.2-35.9
	c10.7-10.1,24-13.4,38.5-7.7c14.7,5.7,21.1,17.1,22.4,32.9C499.8,590.4,500,592.9,499,594.6z"/>
<path class="st0" d="M603.9,547.5c-0.3-25.7-12.3-37.2-38.2-37.6c-32.9-0.4-65.9-0.1-98.8-0.1v0c-35.1,0-70.3-0.4-105.4,0.1
	c-24.5,0.4-36.2,12.3-36.4,36.8c-0.4,41.8-0.4,83.7,0,125.5c0.2,24.4,11.8,37.7,35.8,38c68.8,0.8,137.6,0.8,206.4,0
	c24-0.3,36.4-13.9,36.7-37.4C604.4,631.2,604.4,589.3,603.9,547.5z M499,594.6c-11.7,18.6-17.6,38.5-17,60.9
	c0.3,8.9-9.3,12.5-18,12.3c-9.8-0.3-18-5-17.8-15.5c0.3-19.2-2.4-36.2-14.2-52.7c-8.2-11.5-3.2-26.2,7.2-35.9
	c10.7-10.1,24-13.4,38.5-7.7c14.7,5.7,21.1,17.1,22.4,32.9C499.8,590.4,500,592.9,499,594.6z"/>
</svg>
