<?xml version="1.0" encoding="utf-8"?>
<!-- Generator: Adobe Illustrator 24.0.0, SVG Export Plug-In . SVG Version: 6.00 Build 0)  -->
<svg version="1.1" id="Layer_1" xmlns="http://www.w3.org/2000/svg" xmlns:xlink="http://www.w3.org/1999/xlink" x="0px" y="0px"
	 viewBox="0 0 751.3 922.5" style="enable-background:new 0 0 751.3 922.5;" xml:space="preserve">
<style type="text/css">
	.st0{fill:#FEFEFE;}
</style>
<path d="M555.7,357.4c-3,5.3-7.3,9.9-11.7,14.2c-70.5,71-141.1,141.8-211.7,212.7c-20.8,20.9-30.3,20.2-49.4-2.7
	c-27.3-32.7-54.5-65.4-82-98c-4.9-5.8-9.3-11.5-9.8-19.6l0,0c0.9-9.7,5-17.7,14.4-21.8c10.6-4.7,19.5-0.3,26.4,7.5
	c22.4,25.5,45,50.9,66.2,77.4c9.3,11.6,14.1,13.4,25.6,1.6C385.4,465.3,448,403,510.3,340.5c4.7-4.8,9.7-9.7,15.5-12.9
	c9.7-5.4,19.2-3.3,27,4.4C560.3,339.5,560.7,348.6,555.7,357.4z"/>
<path d="M750.3,487.9c-2.9-36.8-0.5-74.1-0.5-111.1h-1c0-55-0.5-110,0.4-164.9c0.2-14.3-4.1-21.6-16.9-28.3
	c-115-59.1-229.6-118.8-344.1-179c-11.8-6.2-20.7-6.2-32.4,0.2C241.8,67.1,127.5,129,13,190.5c-9.2,5-13.1,10.1-13,21
	c0.8,103.1,0.6,206.3,1.6,309.5C2,560.2,9.8,598.3,29,633c76,137.6,190.6,230.2,335.8,286.9c11.8,4.6,22.7,2.6,34-1.9
	c113.1-44.6,205-117.2,279-212.7C727.3,641.6,756.9,571.1,750.3,487.9z M660.5,655c-68.8,98.1-156.6,173.3-268.3,219.2
	c-9.2,3.8-17.2,4.5-26.5,0.5C241.4,821.6,140.2,741.5,71.8,623.2C53,590.6,44.2,555,44.6,517.1c0.4-43.2,0.1-86.5,0.1-129.7h-2.8
	l0,0c0-48.8,0.4-97.6-0.3-146.3c-0.2-11.8,2.7-18.5,13.9-24.4C157,162.4,258.2,107.5,359.2,52.3c9.9-5.4,17.4-5.1,27.1,0
	c101.4,53.1,203,105.9,304.7,158.4c10.4,5.4,15.1,11,15.2,23.6c0.1,87.1-0.2,174.2,2.7,261.2C710.8,554.8,693.9,607.3,660.5,655z"/>
<path class="st0" d="M555.7,357.4c-3,5.3-7.3,9.9-11.7,14.2c-70.5,71-141.1,141.8-211.7,212.7c-20.8,20.9-30.3,20.2-49.4-2.7
	c-27.3-32.7-54.5-65.4-82-98c-4.9-5.8-9.3-11.5-9.8-19.6l0,0c0.9-9.7,5-17.7,14.4-21.8c10.6-4.7,19.5-0.3,26.4,7.5
	c22.4,25.5,45,50.9,66.2,77.4c9.3,11.6,14.1,13.4,25.6,1.6C385.4,465.3,448,403,510.3,340.5c4.7-4.8,9.7-9.7,15.5-12.9
	c9.7-5.4,19.2-3.3,27,4.4C560.3,339.5,560.7,348.6,555.7,357.4z"/>
<path d="M555.7,357.4c-3,5.3-7.3,9.9-11.7,14.2c-70.5,71-141.1,141.8-211.7,212.7c-20.8,20.9-30.3,20.2-49.4-2.7
	c-27.3-32.7-54.5-65.4-82-98c-4.9-5.8-9.3-11.5-9.8-19.6l0,0c0.9-9.7,5-17.7,14.4-21.8c10.6-4.7,19.5-0.3,26.4,7.5
	c22.4,25.5,45,50.9,66.2,77.4c9.3,11.6,14.1,13.4,25.6,1.6C385.4,465.3,448,403,510.3,340.5c4.7-4.8,9.7-9.7,15.5-12.9
	c9.7-5.4,19.2-3.3,27,4.4C560.3,339.5,560.7,348.6,555.7,357.4z"/>
</svg>
