<?xml version="1.0" encoding="utf-8"?>
<!-- Generator: Adobe Illustrator 24.0.0, SVG Export Plug-In . SVG Version: 6.00 Build 0)  -->
<svg version="1.1" id="Layer_1" xmlns="http://www.w3.org/2000/svg" xmlns:xlink="http://www.w3.org/1999/xlink" x="0px" y="0px"
	 viewBox="0 0 1047.7 1042.1" style="enable-background:new 0 0 1047.7 1042.1;" xml:space="preserve">
<style type="text/css">
	.st0{fill:#FEFEFE;}
	.st1{fill:#010101;}
</style>
<path d="M1013.8,360.2c-3-7-2.8-20.4-17.8-11.6c-10.4,6.1-21.7,7.8-13.1,25.6c18.1,37.4,25.6,78,29.8,119.3c1,9.8,0,14-11.4,13.7
	c-27.8-0.8-55.5-0.2-83.3-0.3c-5.4,0-9.6,0.7-12.1-7.5c-2.9-9.6-29.7-10-32-0.6c-2.3,9.5-6.8,8.9-13.2,8.9
	c-66.9,0-133.9-0.2-200.8,0.2c-10.2,0.1-13.5-2.9-13.3-13.3c0.6-32.8,0.8-65.5-0.1-98.3c-0.3-12.3,5-13.2,15-13.6
	c35.6-1.4,70.6-7.1,105.2-15.8c9.5-2.4,14.9-4.5,9.3-15c-4.1-7.7,1.2-22.7-18.2-17.4c-31.5,8.6-63.9,13.4-96.8,14.7
	c-11,0.4-14.7-2.2-14.6-13.8c0.6-61.2,0.6-122.5,0-183.7c-0.1-12.1,3.9-13.7,14.8-13.2c21.5,1,42.5,4.9,62.9,11
	c18,5.3,12.9-9.5,16.5-16.7c4.2-8.5,3.3-12.9-8.2-15.6c-151.3-35-284.5,0.1-394.6,108.6c-92,90.7-131.3,204.2-121.9,333.4
	c1.1,14.6-3.6,14.3-14.9,12.6c-35.8-5.5-71.8-10.2-107.8-14.7c-62.5-7.8-44.9-17.7-82.1,34.6c-17.8,25.1-15.5,32.3,13.1,43.4
	c70.1,27.2,140.2,54.4,212,82.3c-19.9,18.5-39.3,35.1-56.9,53.4c-12.2,12.7-24.4,17.7-41.3,11c-32-12.7-59.3-6.3-80.9,21.4
	c-1.7,2.2-4.3,3.8-6.3,5.7c-16,15.2-14.6,25.9,5.6,35.3c28.3,13.2,56.7,26.2,85.6,38.1c11.6,4.8,17.8,11.9,21.9,23.5
	c10.9,30.8,22.6,61.2,34.6,91.6c8.5,21.6,19.9,23.4,36.1,6.5c6.9-7.2,13.1-15.1,20.5-21.7c11.7-10.4,15.8-21.6,12.1-37.8
	c-5-21.4-6.7-43.5-9.7-65.4c-0.9-7-2-13.5,4.2-19.7c19.2-19,37.7-38.5,57.7-59c3.1,7.8,5.2,13,7.2,18.2
	c25.5,68.5,50.9,137,76.6,205.3c7.6,20.2,16.5,23,33.6,11.1c14.6-10.1,28.5-21.3,43.3-31.1c11.1-7.3,14-16.6,11.6-29.2
	c-3.4-18-6-36.2-9.4-57.5c47.8,17.2,92.7,25.8,139.5,26.4C924.6,947.8,1132.5,638.7,1013.8,360.2z M532.5,150.4
	c21.9-6.4,44.3-9.8,67.1-11.7c11.3-0.9,14.8,1.7,14.6,13.3c-0.7,30.6-0.3,61.2-0.3,91.8v0c0,29.9-0.4,59.8,0.2,89.7
	c0.2,11.2-1.3,16.6-14.7,15.4c-56.3-5-110.6-17.4-163-38.9c-9.7-4-10.2-8.3-6.4-17c20.1-45.7,45.1-88.4,75.2-128.3
	C512.6,154.8,522.4,153.3,532.5,150.4z M375.1,236.3c21.7-19.2,44.5-36.6,71.5-48.5c-16.6,29.4-33,58.4-45.5,89.2
	c-4.9,12.1-10.1,11.5-20.2,6C344.3,263.2,344.3,263.7,375.1,236.3z M253.4,456.7c9.6-56.2,31.5-107.3,63.8-154.1
	c6.5-9.4,11.7-13.2,21.4-5.1c3.2,2.7,7.2,4.6,10.8,6.8c22,12.7,29.5,30.8,22.6,54.2c-12.1,41.1-20.4,83-20.2,125.8
	c0.1,20.5-7.2,25.8-25.7,23.4c-9.1-1.2-18.5-0.2-27.7-0.2v-0.2l0,0h-2.1C262,507,247.8,490.2,253.4,456.7z M430.1,1000.6
	c-26.5-70.6-53.2-138.5-77.3-207.3c-16.8-48-25-49.9-58.7-13.3c-18.8,20.4-38.4,40.2-58.6,59.2c-11.1,10.4-14.8,21.2-12.2,36
	c4.1,23.1,6.4,46.5,10.7,69.6c1.6,8.5-0.6,15.5-7.3,17.9c-10,3.6-8-7.8-10-12.2c-12.8-28.4-15.2-64.4-37.2-84.7
	c-21.3-19.6-54.3-26.4-82.1-38.8c-2.6-1.2-4.9-2.8-8.6-5.1c7.9-14.7,20.1-14.2,31.9-9.5c36.1,14.6,64.2,6.7,89.5-23.7
	c18-21.7,41.4-39,62-58.7c18.2-17.3,16.2-27.9-7.1-37.1c-67.4-26.5-135-52.3-202.2-79.2c-6-2.4-20.8,0.9-16.7-12.8
	c2.9-9.9,9.4-16.4,24-14.2c87.2,13.4,174.7,24.4,261.8,38.1c26.3,4.2,45.6,0.8,64.2-20.1c26.4-29.7,56.8-56,84.4-84.8
	c11.3-11.8,24.8-13,38.9-13.5c9.5-0.4,12.2,21,3.3,32.4c-12.7,16.3-26.3,31.8-39.6,47.6c-20.6,24.5-40.9,49.3-62,73.4
	c-8.3,9.5-10.1,19-8.1,31.3c15,91.9,29.1,184,44.1,276C460.7,989.6,439.1,987.3,430.1,1000.6z M614.3,720.7
	c-1.5,27.7-0.4,55.5-0.4,83.3v0c0,30.6-0.5,61.3,0.3,91.9c0.3,11.6-3.2,15.1-14.5,13.1c-20.3-3.6-40.7-6.5-61.1-9.5
	c-8.5-1.3-13.6-6.8-18.5-13.1c-19.2-24.8-36.5-50.9-51.6-78.3c-11.2-20.2-7.2-44.7-14-66.3c-13.5-42.9-3.3-77,30.6-107.3
	c21-18.8,35.2-45.2,56-64.3c28.1-25.8,19-57.5,18.9-87.7c0-11.7-10.2-15.4-22-13.8c-38.4,5.2-74.2,13-100.4,47.1
	C418,541,392.3,561.2,369.8,584c-6.4,6.5-12.3,10.6-22.2,9c-28.1-4.5-56.3-8.3-84.5-12c-22.2-2.9-12.5-20.5-13.8-31.8
	c-1.7-13.7,10.7-7.5,16.8-7.7c21.3-0.8,42.7-0.6,64.1-0.2c9.3,0.2,19.9-4.7,22.9,13.1c1.5,8.8,19.9,5.5,27.9,0.8
	c17-10.1,18.5-33.3,4.9-48.3c-3.7-4-2.4-7.8-2.3-11.8c2-50,11-98.7,25.6-146.7c3.9-12.9,9.3-11,17.8-7.4
	c55.5,23.4,113.3,37.3,173.4,40.9c11.5,0.7,13.9,4.9,13.7,15.5c-0.6,32-0.1,64.1-0.4,96.1c0,4.9,3.3,13.7-5.4,13.5
	c-13.6-0.4-14.3,6.5-14.5,17.1c-0.3,11.7,0.9,19.1,15.5,17.6c5.6-0.6,4.6,6,4.6,9.9c0.1,34.2-0.5,68.4,0.3,102.6
	c0.3,12.7-7.4,11.1-15.1,11.5c-37.1,1.9-73.4,8.5-109.4,17.5c-8.7,2.2-18.8,2.8-13.4,17.1c4.1,11,5.5,21.2,22.2,15.7
	c30.5-10.1,62.5-12.9,94.3-16.9C611.6,696.7,615.2,703.5,614.3,720.7z M663.9,540.8c32,1.2,64,0.4,96,0.4v0
	c33.4,0,66.9,0.4,100.3-0.2c10.8-0.2,13,2.9,11.9,13.4c-5,47.5-14.3,94-29.9,139.2c-3.5,10.1-7.1,14.7-18.8,9.8
	c-51.4-21.9-105.7-32.7-161.2-36.8c-13.7-1-15.9-6-15.6-18.1c0.8-29.9,0.9-59.8,0-89.6C646.2,545.2,649.4,540.3,663.9,540.8z
	 M717.2,901.2c-16,3-31.7,8-49.6,7.6l0,0c-17.4,6-21.3-2.2-21-19.9c1-57.7,0.9-115.4,0-173.1c-0.2-14.6,4-17.8,17.9-16.5
	c50.6,4.7,99.6,15.3,146.9,34.2c10.4,4.1,12,7.9,7,18.3c-23.6,48.8-51.4,94.9-84.3,138C729.5,895.8,725,899.7,717.2,901.2z
	 M878.3,819.2c-27.1,22.3-55.3,43-89.7,54.2c22.7-36.9,43.3-74.5,61.7-113.1c3.4-7.1,7.4-7.4,13.3-4.2c3.1,1.7,6.3,3.3,9.4,4.9
	C918.4,784.4,918.6,785.9,878.3,819.2z M1008.9,586.1c-9.3,59-32.4,112.6-65.7,162.2c-6.1,9.1-10.9,10.1-19.7,4.2
	c-9.3-6.4-19-13.3-29.6-16.7c-23.3-7.5-26.5-19.1-17.8-42C892.1,652,901.5,608,903.3,563c0.7-16.6,5.4-24.6,23.4-22.2
	c11.2,1.5,22.7,0.3,34.1,0.3l0,0h8.5C1015.2,541.2,1016,541.3,1008.9,586.1z"/>
<path d="M880.7,66.1L880.7,66.1c-40.7,0.1-72,32.3-71.8,73.7c0.2,39,32.8,71.9,71.6,72.2c39.7,0.3,73.8-33.7,73.3-73
	C953.3,97.9,921.3,66,880.7,66.1z M882.1,178.4c-21.9,0.5-39.4-16.5-39.7-38.2c-0.2-22.8,15.9-40.2,37.6-40.7
	c22.2-0.5,40.3,17.9,40,40.8C919.9,160.8,902.8,178,882.1,178.4z"/>
<path d="M879,0C806,1.9,758.9,57.3,760.2,132.3c1.9,113.6,41.9,214.9,94,312.8c12.8,24,40.7,23.8,53.9,0
	c9.2-16.7,16.7-34.4,25.5-51.5c41-79.4,65-163.2,68.3-257.4l0,0c0-0.2-0.1-4.2,0-8.2C1003.6,52.8,951.2-1.8,879,0z M882.3,420.7
	c-0.3,0.4-1.3,0.4-2.1,0.6v0c-51-90.8-84.8-186.6-87.5-292.1c-1.3-53.5,34.7-95.8,85.7-97.1c51.9-1.3,90.7,37.3,90.9,91.7
	C969.7,231.3,934.7,328.6,882.3,420.7z"/>
<path class="st0" d="M880.7,66.1L880.7,66.1c-40.7,0.1-72,32.3-71.8,73.7c0.2,39,32.8,71.9,71.6,72.2c39.7,0.3,73.8-33.7,73.3-73
	C953.3,97.9,921.3,66,880.7,66.1z M882.1,178.4c-21.9,0.5-39.4-16.5-39.7-38.2c-0.2-22.8,15.9-40.2,37.6-40.7
	c22.2-0.5,40.3,17.9,40,40.8C919.9,160.8,902.8,178,882.1,178.4z"/>
<path class="st1" d="M880.7,66.1L880.7,66.1c-40.7,0.1-72,32.3-71.8,73.7c0.2,39,32.8,71.9,71.6,72.2c39.7,0.3,73.8-33.7,73.3-73
	C953.3,97.9,921.3,66,880.7,66.1z M882.1,178.4c-21.9,0.5-39.4-16.5-39.7-38.2c-0.2-22.8,15.9-40.2,37.6-40.7
	c22.2-0.5,40.3,17.9,40,40.8C919.9,160.8,902.8,178,882.1,178.4z"/>
</svg>
