<?xml version="1.0" encoding="UTF-8"?>
<svg id="Layer_1" data-name="Layer 1" xmlns="http://www.w3.org/2000/svg" viewBox="0 0 1336.03 1339.09">
  <path d="M757.04,1110.22c0-69.59.46-139.18-.35-208.75-.18-15.86,3.14-21.79,20.33-21.2,39.97,1.37,80.03-.08,120.03.72,13.67.27,18.27-4.48,19.81-17.9,6.2-53.99,12.86-107.96,20.91-161.7,2.7-18.02-3.56-20.32-19.25-20.01-48,.95-96.05-.16-144.05.66-13.92.24-18.07-3.67-17.76-17.78.93-42.8-.27-85.65.55-128.46.94-48.72,35.92-83.76,84.35-84.95,31.11-.77,62.26-.84,93.36.03,14.11.4,20.61-2.16,20.2-18.55-1.12-44.58-.55-89.2-.26-133.81.06-9.97-1.21-16.78-13.29-18.59-113.89-17.01-222.33-11.54-310.51,76.05-45.54,45.24-69.17,100.91-71.29,164.9-1.57,47.23-1.02,94.56-.16,141.83.27,14.89-3.58,19.73-18.94,19.37-44.44-1.03-88.94.32-133.38-.73-15.55-.37-19.04,4.79-18.82,19.51.83,53.51,1.22,107.07-.16,160.56-.47,18.23,6.88,19.84,21.65,19.56,42.67-.8,85.38.27,128.05-.58,15.03-.3,21.81,1.82,21.71,19.81-.81,139.17-.91,278.34.06,417.51.14,20.1-8.22,19.15-21.92,16.1-223.16-49.57-386.86-177.12-478.39-386.57C-88.75,607.98,47.93,226.98,381.41,66.74c397.07-190.79,857.14,46.48,939.55,470.55,52.75,271.46-33.49,499.84-250.45,673.22-85.82,68.59-185.49,110.61-294.9,127.86-17.01,2.68-18.96-1.99-18.83-16.72.59-70.47.27-140.95.26-211.43Z" style="stroke-width: 0px;"/>
</svg>