<?xml version="1.0" encoding="utf-8"?>
<!-- Generator: Adobe Illustrator 24.0.0, SVG Export Plug-In . SVG Version: 6.00 Build 0)  -->
<svg version="1.1" id="Layer_1" xmlns="http://www.w3.org/2000/svg" xmlns:xlink="http://www.w3.org/1999/xlink" x="0px" y="0px"
	 viewBox="0 0 1225.2 1230.6" style="enable-background:new 0 0 1225.2 1230.6;" xml:space="preserve">
<style type="text/css">
	.st0{fill:#FEFEFE;}
</style>
<path d="M806.8,357.7c0.4,12.8-4.9,14.8-15.7,14.4c-19.6-0.7-39.2-0.6-58.8-0.1c-36.7,1-59.5,22.8-60.9,59.5
	c-1.1,27.8,0.2,55.7-0.6,83.5c-0.3,11.7,3.2,15.6,15.1,15.3c31.8-0.7,63.7,0.3,95.5-0.5c12.2-0.3,15.5,3.6,13.8,15.5
	c-5.2,36.4-10.1,72.9-14.1,109.5c-1.2,11.1-6.3,13.2-15.9,13.1c-22-0.4-44.2,1.2-66.1-0.5c-21.4-1.7-29.9,3.6-28.7,27.4
	c2.2,43.3,0.6,86.8,0.6,130.2l0,0c0,45.9-0.6,91.8,0.3,137.6c0.3,14.6-2.9,20.1-18.7,19.5c-33.4-1.3-67-1.3-100.4,0
	c-15.8,0.6-18.5-4.8-18.5-19.3c0.7-90.1-0.4-180.2,0.8-270.3c0.3-21-6.1-26.5-26-25.1c-25.2,1.7-50.6-0.3-75.9,0.7
	c-13.3,0.5-16.4-4.1-16.1-16.7c0.8-34.4,1.1-68.8-0.1-103.2c-0.6-16.3,5.8-19,20-18.4c25.3,1,50.7-0.7,75.9,0.6
	c16.5,0.8,23.5-3.2,22.1-21.2c-1.6-22,0.8-44.3-0.6-66.3c-6.8-109.1,73.7-186.2,181-193.4c26.2-1.8,52.1,1,78.1,4
	c10.6,1.2,13.6,5.8,13.5,15.8C806.2,298.8,805.8,328.3,806.8,357.7z"/>
<path d="M1225.2,612.5C1222.5,274,939.4-2.4,606.8,0C261.1,2.5-11,300.2,0.3,611.9C-10.4,945,275.7,1233,615.2,1230.6
	C962.3,1228.1,1227.7,932.6,1225.2,612.5z M645.4,1196.2C321.9,1213.4,49.2,965.8,31.9,643C15.2,331,261.3,43.3,597.4,34.1
	c306.3-8,579.7,231.1,594.7,561.1C1206.1,904.6,957.5,1179.5,645.4,1196.2z"/>
<path class="st0" d="M671.4,431.5c-1.1,27.8,0.2,55.7-0.6,83.5c-0.3,11.7,3.2,15.6,15.1,15.3c31.8-0.7,63.7,0.3,95.5-0.5
	c12.2-0.3,15.5,3.6,13.8,15.5c-5.2,36.4-10.1,72.9-14.1,109.5c-1.2,11.1-6.3,13.2-15.9,13.1c-22-0.4-44.2,1.2-66.1-0.5
	c-21.4-1.7-29.9,3.6-28.7,27.4c2.2,43.3,0.6,86.8,0.6,130.2l0,0c0,45.9-0.6,91.8,0.3,137.6c0.3,14.6-2.9,20.1-18.7,19.5
	c-33.4-1.3-67-1.3-100.4,0c-15.8,0.6-18.5-4.8-18.5-19.3c0.7-90.1-0.4-180.2,0.8-270.3c0.3-21-6.1-26.5-26-25.1
	c-25.2,1.7-50.6-0.3-75.9,0.7c-13.3,0.5-16.4-4.1-16.1-16.7c0.8-34.4,1.1-68.8-0.1-103.2c-0.6-16.3,5.8-19,20-18.4
	c25.3,1,50.7-0.7,75.9,0.6c16.5,0.8,23.5-3.2,22.1-21.2c-1.6-22,0.8-44.3-0.6-66.3c-6.8-109.1,73.7-186.2,181-193.4
	c26.2-1.8,52.1,1,78.1,4c10.6,1.2,13.6,5.8,13.5,15.8c-0.4,29.5-0.8,59,0.2,88.5c0.4,12.8-4.9,14.8-15.7,14.4
	c-19.6-0.7-39.2-0.6-58.8-0.1C695.5,373,672.8,394.8,671.4,431.5z"/>
<path d="M671.4,431.5c-1.1,27.8,0.2,55.7-0.6,83.5c-0.3,11.7,3.2,15.6,15.1,15.3c31.8-0.7,63.7,0.3,95.5-0.5
	c12.2-0.3,15.5,3.6,13.8,15.5c-5.2,36.4-10.1,72.9-14.1,109.5c-1.2,11.1-6.3,13.2-15.9,13.1c-22-0.4-44.2,1.2-66.1-0.5
	c-21.4-1.7-29.9,3.6-28.7,27.4c2.2,43.3,0.6,86.8,0.6,130.2l0,0c0,45.9-0.6,91.8,0.3,137.6c0.3,14.6-2.9,20.1-18.7,19.5
	c-33.4-1.3-67-1.3-100.4,0c-15.8,0.6-18.5-4.8-18.5-19.3c0.7-90.1-0.4-180.2,0.8-270.3c0.3-21-6.1-26.5-26-25.1
	c-25.2,1.7-50.6-0.3-75.9,0.7c-13.3,0.5-16.4-4.1-16.1-16.7c0.8-34.4,1.1-68.8-0.1-103.2c-0.6-16.3,5.8-19,20-18.4
	c25.3,1,50.7-0.7,75.9,0.6c16.5,0.8,23.5-3.2,22.1-21.2c-1.6-22,0.8-44.3-0.6-66.3c-6.8-109.1,73.7-186.2,181-193.4
	c26.2-1.8,52.1,1,78.1,4c10.6,1.2,13.6,5.8,13.5,15.8c-0.4,29.5-0.8,59,0.2,88.5c0.4,12.8-4.9,14.8-15.7,14.4
	c-19.6-0.7-39.2-0.6-58.8-0.1C695.5,373,672.8,394.8,671.4,431.5z"/>
</svg>
