<?xml version="1.0" encoding="utf-8"?>
<!-- Generator: Adobe Illustrator 24.0.0, SVG Export Plug-In . SVG Version: 6.00 Build 0)  -->
<svg version="1.1" id="Layer_1" xmlns="http://www.w3.org/2000/svg" xmlns:xlink="http://www.w3.org/1999/xlink" x="0px" y="0px"
	 viewBox="0 0 1260.4 1262.1" style="enable-background:new 0 0 1260.4 1262.1;" xml:space="preserve">
<style type="text/css">
	.st0{fill:#FEFEFE;}
	.st1{fill:#2C2C2C;}
</style>
<path d="M628.1,0C263.7,0.8-10,310,0.3,626.1c-10.2,349.7,288.6,637.7,631.5,636.1c353.3-1.7,629.3-299.4,628.7-630.3
	C1259.8,288,974.8-0.8,628.1,0z M1013.1,475.9c-11.1,9-14.7,18.1-15.3,31.6c-4.7,100.8-31.6,195-88.2,279.3
	C801.8,947.4,590.3,1026.9,402.7,979c-48.8-12.5-96-28.3-140.7-54.2c84.6-3.4,165.5-16.4,235.2-77c-70.7-16.2-132-39.8-152.8-115.9
	c21.5-5.4,43,8.4,64.3-6c-78.4-26.9-123-79.5-123.6-164.7c10.5-0.7,16.8,8.1,25.5,9.8c8.9,1.8,18.1,2.2,34.6,4
	c-64.8-68.9-78-141.7-38.5-223.9c39.2,40.5,79.4,78.3,126.9,107.5c62.5,38.5,129.5,61.7,203,67.2c16.4,1.2,16.5-3.5,16-16.8
	c-4-100.2,53.9-170.5,152.1-186.7c49.8-8.2,93.4,5.4,130.4,38.3c12.4,11,23.1,13.9,38.1,8.1c26.4-10.2,53.1-19.4,82.5-30
	c-10.4,31.9-29,55.5-50.7,77.2v0c-4.8,1.5-9.2,3.4-11,9.4c8.3,2.6,16,3.4,23-2.8c19.8,1,36.1-12.4,56.6-14.2
	C1058,436.2,1036.4,457.2,1013.1,475.9z"/>
<path class="st0" d="M1017,422.6L1017,422.6c-7,6.2-14.6,5.4-23,2.8c1.8-6,6.2-7.9,11-9.4C1002.3,430.4,1012.2,421.9,1017,422.6
	C1017,422.6,1017,422.6,1017,422.6z"/>
<path class="st1" d="M1017,422.6c-7,6.2-14.6,5.4-23,2.8c1.8-6,6.2-7.9,11-9.4C1007.2,421.5,1012.6,421,1017,422.6
	C1017,422.6,1017,422.6,1017,422.6z"/>
</svg>
