<?xml version="1.0" encoding="utf-8"?>
<!-- Generator: Adobe Illustrator 24.0.0, SVG Export Plug-In . SVG Version: 6.00 Build 0)  -->
<svg version="1.1" id="Layer_1" xmlns="http://www.w3.org/2000/svg" xmlns:xlink="http://www.w3.org/1999/xlink" x="0px" y="0px"
	 viewBox="0 0 1304.7 1303.2" style="enable-background:new 0 0 1304.7 1303.2;" xml:space="preserve">
<style type="text/css">
	.st0{fill:#FEFEFE;}
</style>
<path d="M767.2,652.2c-65.9,35.3-129.2,69.2-195.7,104.7V546.3C637.3,581.9,700.8,616.2,767.2,652.2z"/>
<path d="M658.2,0C284.4-2.6,11,305.9,0.4,624.4c-13,388.8,304.9,685.9,649.7,678.6c369,7,650.6-305.8,654.5-640.1
	C1308.9,301.2,1012.2,2.5,658.2,0z M1029,830.4c-8.3,56-47.9,87.2-108,87.6c-89.4,0.5-178.8,0.1-268.2,0.1c-87.7,0-175.3,0.1-263,0
	c-71.4-0.1-106.2-30.7-116-102.1c-15.7-114.2-15.5-228.4,1.5-342.4c7.9-53.2,45.1-88.2,99-88.5c184.9-0.9,369.8-0.9,554.7-0.1
	c54,0.2,92,33.4,100.1,87.5C1046.9,591.6,1046.7,711.2,1029,830.4z"/>
<path class="st0" d="M767.2,652.2c-65.9,35.3-129.2,69.2-195.7,104.7V546.3C637.3,581.9,700.8,616.2,767.2,652.2z"/>
<path d="M767.2,652.2c-65.9,35.3-129.2,69.2-195.7,104.7V546.3C637.3,581.9,700.8,616.2,767.2,652.2z"/>
</svg>
