<?xml version="1.0" encoding="utf-8"?>
<!-- Generator: Adobe Illustrator 24.0.0, SVG Export Plug-In . SVG Version: 6.00 Build 0)  -->
<svg version="1.1" id="Layer_1" xmlns="http://www.w3.org/2000/svg" xmlns:xlink="http://www.w3.org/1999/xlink" x="0px" y="0px"
	 viewBox="0 0 1260 1258.5" style="enable-background:new 0 0 1260 1258.5;" xml:space="preserve">
<style type="text/css">
	.st0{fill:#FEFEFE;}
</style>
<path d="M769.5,629.2c-0.2,77.5-61.5,138.6-139,138.6h0c-77.4,0.1-139.1-61-139.5-138.3c-0.4-78.3,62-140.5,140.4-140
	C708.7,490,769.7,551.6,769.5,629.2z"/>
<path d="M972.7,446.3c-1.6-93-60.3-156.2-150.5-158.5c-128.2-3.3-256.6-3.4-384.7,0.1c-91.7,2.5-149.9,68.9-150,161.1
	c-0.1,106.5-0.2,213,0,319.4c0.1,23.4-0.2,47.1,2.6,70.3c8.6,70.6,66.8,127.2,137.7,130.2c65.3,2.7,130.7,0.6,196.1,0.6v1.6
	c62,0,124.1,0,186.1,0c92.7,0,160.9-62.6,162.6-155C974.8,692.8,974.8,569.5,972.7,446.3z M629,838.3L629,838.3
	C512,837.7,420,745.5,420.2,629c0.2-118.9,94.3-212.8,212.2-211.7c115.9,1,208.9,96.6,207.9,213.8
	C839.4,746.5,745.2,838.8,629,838.3z M905.7,404.4c-0.7,28.1-22,48.3-50.6,48c-27.6-0.2-51.3-24.6-50.4-51.9
	c0.9-26.5,24.2-48.5,51.4-48.3C884.3,352.5,906.4,375.7,905.7,404.4z"/>
<path d="M629.4,0.2C282.7-7.7-3,294.3,0,630.7c3.1,350.8,296.4,630.7,634,627.8c349.5-3,626.8-295.7,626-630.8
	C1259.2,292.2,980-6.3,629.4,0.2z M1041.5,832.2c-7.3,119.4-101.8,208-222,210.3c-126.5,2.4-253.2,2.5-379.7-0.1
	c-127.8-2.6-221.4-101.2-223.3-230.8c-0.9-62-0.1-124.1-0.2-186.1c0-60.4-0.4-120.7,0.1-181.1c1.1-128.6,95.2-227,224-229.5
	c126.5-2.5,253.2-2.5,379.7,0c125.3,2.5,217.5,92,222.6,222.6C1047.9,568.9,1049.4,700.8,1041.5,832.2z"/>
<path class="st0" d="M769.5,629.2c-0.2,77.5-61.5,138.6-139,138.6h0c-77.4,0.1-139.1-61-139.5-138.3c-0.4-78.3,62-140.5,140.4-140
	C708.7,490,769.7,551.6,769.5,629.2z"/>
<path class="st0" d="M972.7,446.3c-1.6-93-60.3-156.2-150.5-158.5c-128.2-3.3-256.6-3.4-384.7,0.1c-91.7,2.5-149.9,68.9-150,161.1
	c-0.1,106.5-0.2,213,0,319.4c0.1,23.4-0.2,47.1,2.6,70.3c8.6,70.6,66.8,127.2,137.7,130.2c65.3,2.7,130.7,0.6,196.1,0.6v1.6
	c62,0,124.1,0,186.1,0c92.7,0,160.9-62.6,162.6-155C974.8,692.8,974.8,569.5,972.7,446.3z M629,838.3L629,838.3
	C512,837.7,420,745.5,420.2,629c0.2-118.9,94.3-212.8,212.2-211.7c115.9,1,208.9,96.6,207.9,213.8
	C839.4,746.5,745.2,838.8,629,838.3z M905.7,404.4c-0.7,28.1-22,48.3-50.6,48c-27.6-0.2-51.3-24.6-50.4-51.9
	c0.9-26.5,24.2-48.5,51.4-48.3C884.3,352.5,906.4,375.7,905.7,404.4z"/>
<path d="M769.5,629.2c-0.2,77.5-61.5,138.6-139,138.6h0c-77.4,0.1-139.1-61-139.5-138.3c-0.4-78.3,62-140.5,140.4-140
	C708.7,490,769.7,551.6,769.5,629.2z"/>
<path d="M972.7,446.3c-1.6-93-60.3-156.2-150.5-158.5c-128.2-3.3-256.6-3.4-384.7,0.1c-91.7,2.5-149.9,68.9-150,161.1
	c-0.1,106.5-0.2,213,0,319.4c0.1,23.4-0.2,47.1,2.6,70.3c8.6,70.6,66.8,127.2,137.7,130.2c65.3,2.7,130.7,0.6,196.1,0.6v1.6
	c62,0,124.1,0,186.1,0c92.7,0,160.9-62.6,162.6-155C974.8,692.8,974.8,569.5,972.7,446.3z M629,838.3L629,838.3
	C512,837.7,420,745.5,420.2,629c0.2-118.9,94.3-212.8,212.2-211.7c115.9,1,208.9,96.6,207.9,213.8
	C839.4,746.5,745.2,838.8,629,838.3z M905.7,404.4c-0.7,28.1-22,48.3-50.6,48c-27.6-0.2-51.3-24.6-50.4-51.9
	c0.9-26.5,24.2-48.5,51.4-48.3C884.3,352.5,906.4,375.7,905.7,404.4z"/>
<path class="st0" d="M769.5,629.2c-0.2,77.5-61.5,138.6-139,138.6h0c-77.4,0.1-139.1-61-139.5-138.3c-0.4-78.3,62-140.5,140.4-140
	C708.7,490,769.7,551.6,769.5,629.2z"/>
<path d="M769.5,629.2c-0.2,77.5-61.5,138.6-139,138.6h0c-77.4,0.1-139.1-61-139.5-138.3c-0.4-78.3,62-140.5,140.4-140
	C708.7,490,769.7,551.6,769.5,629.2z"/>
</svg>
