<?xml version="1.0" encoding="utf-8"?>
<!-- Generator: Adobe Illustrator 24.0.0, SVG Export Plug-In . SVG Version: 6.00 Build 0)  -->
<svg version="1.1" id="Layer_1" xmlns="http://www.w3.org/2000/svg" xmlns:xlink="http://www.w3.org/1999/xlink" x="0px" y="0px"
	 viewBox="0 0 1146.7 1145.4" style="enable-background:new 0 0 1146.7 1145.4;" xml:space="preserve">
<style type="text/css">
	.st0{fill:#FEFEFE;}
</style>
<path d="M271.1,777.5C271.1,777.5,271.1,777.5,271.1,777.5L271.1,777.5L271.1,777.5z"/>
<path d="M875.4,391.9c4.2,5.6-1.9,7.8-4.2,10.7c-5.6,7.2-10.7,15.8-18.1,20.5c-25,15.9-28,39.7-30,66.5
	c-12.6,176.9-147.4,318.1-323.9,336.6c-80.2,8.4-156.7-9.3-228.1-48.7c45.2-3.1,89.6-8.5,130.4-28.8c14.8-7.4,29.9-15,43-29.7
	c-48.9-14.8-98.6-27.6-112.5-86.7c14.7-3.4,29.4,2.4,46.6-6C319.9,604,286.4,565.8,287,502c15.2,1.7,26.6,14.3,44.8,9.6
	c-48.4-49-59.3-104.2-28.8-168.9c24.7,26.1,50,49.7,78.3,69.6c50.1,35.4,105.3,57.4,166.9,62.8c14.4,1.3,16.2-1.9,15.8-16.6
	c-1.5-54.7,20.3-98.9,70.1-124c48.9-24.6,98.1-22,141.4,13.6c12.1,9.9,22,10.6,34.3,6.5c19.2-6.5,38.1-13.6,59.6-21.3
	c-9.5,25.7-23.2,45.6-45.8,61.6c14.7,6.1,27-1.3,39.5-3.4C867.2,390.8,871.5,386.8,875.4,391.9z"/>
<path d="M578.6,0C257.2-2.5,10.5,263.1,0.4,546.5c-12.2,343.7,268.6,605.2,571,598.8v0c323.9,6,571.9-269.3,575.3-562.6
	C1150.4,260.7,885.2,2.4,578.6,0z M605.4,1114.5c-302.2,16.6-557.3-213.7-574-514.8C15.3,308.5,245.7,40.6,559.3,31.8
	c286.3-7.9,542.1,214.8,556.4,522.1C1129.1,842.3,897.3,1098.4,605.4,1114.5z"/>
<path class="st0" d="M271.1,777.5C271.1,777.5,271.1,777.5,271.1,777.5L271.1,777.5L271.1,777.5z"/>
<path class="st0" d="M871.2,402.6c-5.6,7.2-10.7,15.8-18.1,20.5c-25,15.9-28,39.7-30,66.5c-12.6,176.9-147.4,318.1-323.9,336.6
	c-80.2,8.4-156.7-9.3-228.1-48.7c45.2-3.1,89.6-8.5,130.4-28.8c14.8-7.4,29.9-15,43-29.7c-48.9-14.8-98.6-27.6-112.5-86.7
	c14.7-3.4,29.4,2.4,46.6-6C319.9,604,286.4,565.8,287,502c15.2,1.7,26.6,14.3,44.8,9.6c-48.4-49-59.3-104.2-28.8-168.9
	c24.7,26.1,50,49.7,78.3,69.6c50.1,35.4,105.3,57.4,166.9,62.8c14.4,1.3,16.2-1.9,15.8-16.6c-1.5-54.7,20.3-98.9,70.1-124
	c48.9-24.6,98.1-22,141.4,13.6c12.1,9.9,22,10.6,34.3,6.5c19.2-6.5,38.1-13.6,59.6-21.3c-9.5,25.7-23.2,45.6-45.8,61.6
	c14.7,6.1,27-1.3,39.5-3.4c4.2-0.7,8.5-4.8,12.4,0.3C879.6,397.5,873.5,399.6,871.2,402.6z"/>
<path d="M271.1,777.5C271.1,777.5,271.1,777.5,271.1,777.5L271.1,777.5L271.1,777.5z"/>
<path d="M871.2,402.6c-5.6,7.2-10.7,15.8-18.1,20.5c-25,15.9-28,39.7-30,66.5c-12.6,176.9-147.4,318.1-323.9,336.6
	c-80.2,8.4-156.7-9.3-228.1-48.7c45.2-3.1,89.6-8.5,130.4-28.8c14.8-7.4,29.9-15,43-29.7c-48.9-14.8-98.6-27.6-112.5-86.7
	c14.7-3.4,29.4,2.4,46.6-6C319.9,604,286.4,565.8,287,502c15.2,1.7,26.6,14.3,44.8,9.6c-48.4-49-59.3-104.2-28.8-168.9
	c24.7,26.1,50,49.7,78.3,69.6c50.1,35.4,105.3,57.4,166.9,62.8c14.4,1.3,16.2-1.9,15.8-16.6c-1.5-54.7,20.3-98.9,70.1-124
	c48.9-24.6,98.1-22,141.4,13.6c12.1,9.9,22,10.6,34.3,6.5c19.2-6.5,38.1-13.6,59.6-21.3c-9.5,25.7-23.2,45.6-45.8,61.6
	c14.7,6.1,27-1.3,39.5-3.4c4.2-0.7,8.5-4.8,12.4,0.3C879.6,397.5,873.5,399.6,871.2,402.6z"/>
</svg>
