<?xml version="1.0" encoding="utf-8"?>
<!-- Generator: Adobe Illustrator 24.0.0, SVG Export Plug-In . SVG Version: 6.00 Build 0)  -->
<svg version="1.1" id="Layer_1" xmlns="http://www.w3.org/2000/svg" xmlns:xlink="http://www.w3.org/1999/xlink" x="0px" y="0px"
	 viewBox="0 0 1644.1 918.8" style="enable-background:new 0 0 1644.1 918.8;" xml:space="preserve">
<style type="text/css">
	.st0{fill:#FEFEFE;}
</style>
<path d="M823.7,142.4c-175.5-1.7-319.3,138.5-321.3,313.4c-2,177.1,142.3,326.4,319.2,323.2c192.8-3.5,319.7-155.8,320.5-316.1
	C1143.1,287.6,1001.1,144.1,823.7,142.4z M822.7,669.5c-117.2,0.5-211.8-94-212.1-211.6c-0.3-111.5,96-206,210.4-206.6
	c115.7-0.5,211.8,93.7,212.2,208.1C1033.8,573.5,938,669.1,822.7,669.5z"/>
<path d="M1608.2,379C1404.5,128.8,1138.8,7.8,822.9,0v0c-38.5,2.2-72.7,3.7-106.8,6.2c-15.3,1.1-30.6,4.2-45.8,6.5
	C406.8,54,192.2,178.9,28.1,389.4c-38,48.8-37.3,96.6,1.5,144.9c206,256.3,475.3,386.6,802.5,384.5
	C1148,916.7,1408,788,1608.2,542.1C1656,483.4,1656.2,438,1608.2,379z M1519.6,479.9c-150.4,182.5-341.9,292.4-576.5,322.4
	c-266.8,34.1-503.9-36.9-709.7-210.7c-39.7-33.5-74.4-72-108-111.7c-14.1-16.6-11-26.4,1.4-41.1C309,222.7,541.8,114.9,822.3,109.8
	c283.4,5.8,515.2,115.7,696.9,331.8C1531.8,456.5,1532,464.8,1519.6,479.9z"/>
<path class="st0" d="M823.7,142.4c-175.5-1.7-319.3,138.5-321.3,313.4c-2,177.1,142.3,326.4,319.2,323.2
	c192.8-3.5,319.7-155.8,320.5-316.1C1143.1,287.6,1001.1,144.1,823.7,142.4z M822.7,669.5c-117.2,0.5-211.8-94-212.1-211.6
	c-0.3-111.5,96-206,210.4-206.6c115.7-0.5,211.8,93.7,212.2,208.1C1033.8,573.5,938,669.1,822.7,669.5z"/>
<path d="M823.7,142.4c-175.5-1.7-319.3,138.5-321.3,313.4c-2,177.1,142.3,326.4,319.2,323.2c192.8-3.5,319.7-155.8,320.5-316.1
	C1143.1,287.6,1001.1,144.1,823.7,142.4z M822.7,669.5c-117.2,0.5-211.8-94-212.1-211.6c-0.3-111.5,96-206,210.4-206.6
	c115.7-0.5,211.8,93.7,212.2,208.1C1033.8,573.5,938,669.1,822.7,669.5z"/>
</svg>
