<?xml version="1.0" encoding="utf-8"?>
<!-- Generator: Adobe Illustrator 24.0.0, SVG Export Plug-In . SVG Version: 6.00 Build 0)  -->
<svg version="1.1" id="Layer_1" xmlns="http://www.w3.org/2000/svg" xmlns:xlink="http://www.w3.org/1999/xlink" x="0px" y="0px"
	 viewBox="0 0 956.9 963.9" style="enable-background:new 0 0 956.9 963.9;" xml:space="preserve">
<style type="text/css">
	.st0{fill:#282828;}
	.st1{fill:#292929;}
	.st2{fill:#2A2A2A;}
	.st3{fill:#2B2B2B;}
</style>
<path class="st0" d="M630.3,815c-27.3-35.7-58.8-67.9-95.6-94c-45-31.9-71.5-31.2-117.6-0.4c-33.6,22.5-61.8,21-92.8-4.7
	c-26.7-22.2-50.1-47.6-73.2-73.4c-35.3-39.5-40.1-77.1-4.1-117.7c20.3-22.9,25.3-50.4,12.9-78.9c-25.6-58.5-69.4-102.3-119.5-139.9
	c-17.8-13.4-39.9-13.2-57.8,0c-38.9,28.8-69.1,64.2-78.6,114.1c-12,63.2,5.4,121,33.3,175.9C104.4,728.2,203.1,832,329,909.8
	c49.4,30.5,102,53.1,182,54l0,0c32.6,1.4,75-19.5,111.2-57.1C652.2,875.5,656.5,849.3,630.3,815z M602.3,879.1
	c-46.9,49.3-102.8,61.3-166.8,41.9c-79.1-24-144.4-70.8-203.7-126.4c-74-69.3-137.4-146.8-176.6-241.7c-12-29.1-21.2-59.1-20.8-95.9
	h0c-2.7-47,20.3-86.2,59.8-117.6c11.2-8.9,23.1-10.1,33.4-1.4c39.7,33.6,77.1,69.5,100,117.4c11.8,24.6-2.2,42.4-16.1,60.7
	c-31.4,41.2-31.6,86-1.5,127.7c6.8,9.3,14,18.3,21.5,27.1c21.8,25.3,45.2,49.1,70.8,70.5c44.9,37.5,92,39.3,138.3,3.5
	c21.6-16.7,42.5-16.9,63.8-3.3c41,26.1,73.5,61.6,102.7,99.8C617.1,854.4,613.9,867,602.3,879.1z"/>
<path class="st0" d="M723.8,790.9c9.8,3,17,4.8,23.9,7.5c9.8,3.9,13.9,11.8,10.6,21.7c-3.2,9.7-10.9,14-21.3,10.9
	c-23.3-7-46.6-13.9-69.6-21.6c-11.6-3.9-15.5-12.6-10.7-24.4c8.9-21.9,17.8-43.8,26.8-65.7c3.8-9.3,10.5-15.5,20.7-11.9
	c11.5,4,15.2,13.2,10.7,24.8c-3.1,8.2-6.8,16.3-11.1,26.3c10.4-0.7,17.5-5.5,24.6-9.8C856.9,672,924.9,558.2,922.3,409.3
	c-2.7-153.5-78.5-267.4-214.9-336.2c-106.5-53.7-217.1-52.4-326.9-5.3c-2.4,1-4.7,2.1-6.9,3.3c-11.7,5.9-23.4,7.1-29-6.9
	c-5.5-13.6,6-19,16-23.9C429.8,6.5,503.4-5.2,579.2,2.1C762,19.7,909.1,151.6,947.7,330c38.3,177.5-45.1,361-204,449.1
	C737.7,782.4,731.9,786,723.8,790.9L723.8,790.9z"/>
<path class="st0" d="M385.4,497.3c-4.5,0-9,0-13.5,0c-37.9,0-37.8,0-36.1-37.7c1.2-28.2,14.4-48.2,39.2-61.4
	c28.2-15,34.1-27.7,29.4-58.9c-1.7-11.1-8.2-15.1-18.5-15c-10.8,0.1-16.8,5-16.2,16.5c0.2,3.8-0.1,7.7-0.1,11.5
	c-0.2,19.4-8,25.2-26.6,19.9c-3.2-0.9-5.4-2.1-6.7-5.7c-11.9-31.4,9.6-66.1,42.8-69c40.5-3.5,56.7,11,59.1,51.3
	c2,33.5-9.3,58.7-41.1,73c-5.8,2.6-11.3,6.1-16.3,10.1c-10,8-13,20-10,31.2c2.9,10.8,14.2,4.1,21.6,5.1c8.2,1.1,16.8,1.2,24.9,0
	c16.1-2.4,19.5,5.2,18.3,19.3c-0.6,7.2-2.1,10.2-9.8,10C412.3,497,398.8,497.3,385.4,497.3L385.4,497.3z"/>
<path class="st1" d="M555.3,417.2c-22.9,2.3-16-13.5-16.5-24.7c-0.5-10.9-0.1-21.8-0.1-32.6l0,0c0-14.1,0.6-28.2-0.3-42.3
	c-0.4-6.4,5.3-18.7-7-17.8c-13.8,1-32.6-10.5-40.9,8.6c-15.1,34.5-28.5,69.7-41.4,105.1c-9.1,24.9-3.8,31.9,21.7,31.9
	c36.2,0,36.6,0,36.3,35.7c-0.1,11.4,1.3,16.9,15.1,16.8c13.6-0.1,18.6-3.9,16.5-17.3c-0.7-4.4-0.2-9-0.1-13.4
	c0.2-10.7-4.3-23.9,15.4-22.4c8.2,0.6,6.2-8.4,5.8-13.6C559.5,426.2,563.2,416.4,555.3,417.2z M507.1,410.9
	c-1.7,11.3-13.9,4.6-21.3,5.3c-7.8,0.7-4.9-5.7-3.7-9.3c8.1-24.8,16.4-49.4,24.8-74.1c0.8-2.3,1.9-4.9,7.8-3.4
	C512.4,356.2,511.2,383.8,507.1,410.9z"/>
<path class="st1" d="M747.6,328c-21.2,0-39.8-0.7-58.3,0.3c-11.2,0.6-12.6-4.4-12.1-13.4c0.5-8.2-1.8-16.5,11.8-16.1
	c26.8,0.9,53.8,0.6,80.6,0.1c9.1-0.2,12.5,2.6,12,11.9c-0.5,10.2-0.6,20.2-4,30.1c-15.9,47.2-31.3,94.5-46.9,141.8
	c-4.2,12.6-23.2,20.6-34.7,14.3c-6.8-3.7-1.7-8.7-0.3-12.8c16.1-48.4,32.3-96.8,48.5-145.2C745.4,336,746.2,333,747.6,328L747.6,328
	z"/>
<path class="st1" d="M586.6,519.8c-12.3,2.3-14.1-2.7-10.6-15.9c18-67.9,34.9-136.2,52.3-204.3c3.3-13.1,17.8-19.6,30.7-14.5
	c6.8,2.7,3.7,7.5,2.8,11.1c-18,71.3-36.5,142.4-54.4,213.7C604.4,521.8,596.2,519.6,586.6,519.8z"/>
<path class="st2" d="M317.8,94.7c-0.3,4.6-1.3,9-4.9,12.1c-9.8,8.3-19.4,16.8-29.6,24.4c-7.6,5.6-16,4.8-22.3-2.5
	c-6.5-7.5-5.4-16,1.4-22.3c9.8-9.1,20-18.1,31.1-25.4C304.1,73.8,317.4,82,317.8,94.7z"/>
<path class="st3" d="M207.3,205.1c-10.2-2.3-17.2-9.9-12.8-21.6c5-13.1,13.6-24.9,25.4-33.1c10.9-7.6,19.9-2.8,24.5,8.4
	C249.6,171.3,222.9,205.7,207.3,205.1L207.3,205.1z"/>
<path class="st2" d="M154.3,257.1c2.6-20.1,18.8-40.6,30.8-38.2c10.6,2.1,14.4,9.6,13,19.9c-2.6,18.8-18.1,39.6-28.6,38.8
	C159.7,276.8,152.9,267.7,154.3,257.1z"/>
</svg>
