<?xml version="1.0" encoding="utf-8"?>
<!-- Generator: Adobe Illustrator 24.0.0, SVG Export Plug-In . SVG Version: 6.00 Build 0)  -->
<svg version="1.1" id="Layer_1" xmlns="http://www.w3.org/2000/svg" xmlns:xlink="http://www.w3.org/1999/xlink" x="0px" y="0px"
	 viewBox="0 0 1123.7 885.8" style="enable-background:new 0 0 1123.7 885.8;" xml:space="preserve">
<style type="text/css">
	.st0{fill:#FEFEFE;}
</style>
<path d="M1038.2,97.2C978.9,41.3,904.3,20.3,826.4,8.7c-87.1-13-175-7.3-253.7-8.4c-54.7,0-100.5-0.1-146.2,0
	c-60,0.2-119.5,5-178.5,17.3C102.4,48.1-8,153.6,0.5,316.6c2.3,44.9,19.4,68.6,63.8,78.7c40.8,9.3,81.9,5,123,2.5
	c56.6-3.5,92.2-32.5,111.6-85.4c9-24.4,23.3-46.8,34.3-70.5c15-32.4,40.7-46.5,75.3-46.5c102.7-0.1,205.4-0.1,308.1,0
	c33.6,0,58.9,14,73.7,45.4c14.3,30.4,29.6,60.4,43.7,90.9c14.7,31.9,37.4,53.7,72.7,60.7c50.4,10.1,101,12.3,151.7,3.2
	c11.9-2.1,23-6.6,33.3-12.8c15.5-9.2,28-22.4,29.9-40.1C1131.3,248.4,1109.2,164.1,1038.2,97.2z M1072,321.3
	c-0.2,13-8.9,17.4-18,19.5c-46.6,10.5-93.5,9.7-140.1-0.6c-16.1-3.5-23.8-16.6-30.5-30.6c-16-32.9-31.8-65.9-49-98.2
	c-23.9-45-62.6-67.7-113.2-68c-106.4-0.6-212.9-0.6-319.4,0.1c-50.8,0.3-88.9,23.8-112.7,68.8c-17.1,32.3-33.3,65.1-49,98.2
	c-8.7,18.5-21.4,29.8-42.1,32.5c-40.3,5.2-80.4,7.3-120.7-0.1c-17.8-3.3-25.9-11.8-25.8-31.9C52,184.3,121.1,101,251.4,71.7
	c62.5-14,125.7-19,189.6-18.3c40.5,0.5,80.9,0.1,111.8,0.1c84.5,3,159.5-4.3,234.3,4.3c61.2,7,121.3,17.5,175.7,49.3
	C1045.2,155.4,1073.2,230.7,1072,321.3z"/>
<path d="M561.3,423.3c-90.8,0.7-168.1,76.6-167.8,164.8c0.3,94.7,76.2,171.5,168.8,170.9c91.2-0.6,168.5-77.5,168-167.3
	C729.8,499.1,653,422.6,561.3,423.3z M559.4,705.1C495,704,446.6,653,447.2,586.8c0.5-60.4,53.6-110.9,115.8-110.3v0
	c63.9,0.6,114.2,52.6,113.6,117.4C675.9,655.9,623,706.1,559.4,705.1z"/>
<path d="M1029.3,761.2c-14.5-58.8-29-117.6-43.1-176.5c-7.9-33-23.4-61-48.6-84.1c-24.4-22.4-50.5-42.7-78.6-59.7
	c-53.6-32.5-89.3-75.6-97.6-139.9c-3.4-26-22-39.9-48.5-42c-17.9-1.4-36,0.1-53.9-1.1c-21.6-1.4-35.4,5.5-46.7,26
	c-22.5,40.9-78.3,41-100.9,0.2c-11.2-20.3-24.8-28-46.6-26.1c-10.4,0.9-21,0.2-31.5,0.2c-51.8,0.1-65.6,10.3-75,60.2
	c-8.4,44.5-31.3,78.4-68,104.2c-29.4,20.6-58.7,41.5-87.2,63.3c-34.4,26.2-57.4,59.5-66.7,103c-12.2,57-27.3,113.3-41.2,170
	c-17.5,71.7,25.8,126.8,99.9,126.9c122.2,0.1,244.4,0,366.6,0c123.7,0,247.4,0.2,371.1-0.1C1001.5,885.6,1045.8,828,1029.3,761.2z
	 M924.8,832.5c-57.7,0.3-115.4,0.1-173.1,0.1H560.7l0,0c-119.1,0-238.3,0-357.4,0.1c-13.6,0-26.7-0.6-38.8-8.4
	c-16.3-10.5-24-24.5-19.3-43.7c16.4-66.8,32.8-133.5,49.7-200.2c5-19.7,18.5-34.3,33.9-46.4c25.3-19.8,51.1-39.1,77.8-57.1
	c55.2-37.2,92.9-86,104.8-152.7c1.8-9.9,5.8-13.3,16.2-13.7c24.4-1,43.4,1.7,61.9,23.8c40.7,48.8,112.4,42.9,154.2-8.4
	c9.9-12.2,49.2-21.1,62.8-14.5c5.9,2.9,5.3,8.3,6.3,13.3c12.4,63.6,47,111.7,99.8,148.6c135.6,94.5,105.3,70,142.7,209.7
	c7.5,28.1,14,56.6,21,84.9C986.5,809.2,968.5,832.2,924.8,832.5z"/>
<path class="st0" d="M561.3,423.3c-90.8,0.7-168.1,76.6-167.8,164.8c0.3,94.7,76.2,171.5,168.8,170.9c91.2-0.6,168.5-77.5,168-167.3
	C729.8,499.1,653,422.6,561.3,423.3z M559.4,705.1C495,704,446.6,653,447.2,586.8c0.5-60.4,53.6-110.9,115.8-110.3v0
	c63.9,0.6,114.2,52.6,113.6,117.4C675.9,655.9,623,706.1,559.4,705.1z"/>
<path d="M561.3,423.3c-90.8,0.7-168.1,76.6-167.8,164.8c0.3,94.7,76.2,171.5,168.8,170.9c91.2-0.6,168.5-77.5,168-167.3
	C729.8,499.1,653,422.6,561.3,423.3z M559.4,705.1C495,704,446.6,653,447.2,586.8c0.5-60.4,53.6-110.9,115.8-110.3v0
	c63.9,0.6,114.2,52.6,113.6,117.4C675.9,655.9,623,706.1,559.4,705.1z"/>
</svg>
