<?xml version="1.0" encoding="utf-8"?>
<!-- Generator: Adobe Illustrator 24.0.0, SVG Export Plug-In . SVG Version: 6.00 Build 0)  -->
<svg version="1.1" id="Layer_1" xmlns="http://www.w3.org/2000/svg" xmlns:xlink="http://www.w3.org/1999/xlink" x="0px" y="0px"
	 viewBox="0 0 1027.9 1027" style="enable-background:new 0 0 1027.9 1027;" xml:space="preserve">
<path d="M514.5,0.1C231.8-4.6,0.2,235.4,0,512.6c-0.1,276.2,227.7,514.2,513.4,514.4c285.1,0.2,514-235.6,514.4-513.2
	C1028.3,234.7,796-3.9,514.5,0.1z M822.1,742.1c-39.6,59.5-96.7,88.1-160.7,93.3C618.9,835,584.9,826,553,809
	C406.3,730.9,294.6,618,216.4,471.6c-47.9-89.7-21.4-202.2,61-261.5c43.1-30.9,80.9-23.2,108.4,22.2c11.7,19.3,23.8,38.3,34.7,57.9
	c22.3,39.9,8.5,79.6-33.3,97.8c-34.1,14.8-42.6,41.2-23.1,72.4c51.5,82.5,117.8,150.4,200.9,201.5c34.9,21.4,58.4,14,74.5-23.4
	c17-39.7,56.7-54.2,94.6-33.3c23.3,12.8,46.1,26.7,68.4,41.2C838.4,669.6,845.9,706.3,822.1,742.1z"/>
</svg>
