<?xml version="1.0" encoding="utf-8"?>
<!-- Generator: Adobe Illustrator 24.0.0, SVG Export Plug-In . SVG Version: 6.00 Build 0)  -->
<svg version="1.1" id="Layer_1" xmlns="http://www.w3.org/2000/svg" xmlns:xlink="http://www.w3.org/1999/xlink" x="0px" y="0px"
	 viewBox="0 0 1088.4 1091.2" style="enable-background:new 0 0 1088.4 1091.2;" xml:space="preserve">
<style type="text/css">
	.st0{fill:#1B1C1F;}
	.st1{fill:#FEFEFE;}
</style>
<path class="st0" d="M369.9,246.2c-12-21-9.7-30.6,10.4-43.2c12.9-8,26-15.7,39.2-23.1c16.5-9.1,30.3-6.7,40.2,10.6
	c30.3,52.7,60.7,105.3,91,158c2.9,5,6,10,5.5,14.4l0,0c0.5,15.8-8.6,23.1-19.5,27.7c-21.8,9.2-38.2,33.8-66.1,24.7
	c-5-1.6-8.5-9.4-11.8-15C429.1,349,399.4,297.6,369.9,246.2z"/>
<path class="st0" d="M714.6,877.2c4.1,7.1,3.3,11-3.9,15.1c-46.6,26.4-92.5,33.9-140.8,2.2c-75.7-49.8-131.1-118.4-179.6-193
	c-57.3-88.1-101.5-182.3-119.6-287c-3-17.1-4-34.6-5.1-44.4l0,0c-1.9-60.6,24.9-101.8,74.3-125c9.1-4.3,11.1-0.2,14.5,5.7
	c30.6,53.5,61.3,106.9,91.9,160.3c2.3,4.1,6.5,8.2,0.3,13c-30.4,23.3-31.1,56.6-25.7,89.3c11.8,72.8,44.8,134.5,103.6,180.3
	c24.3,19,51.8,29.8,82.9,16.9c8.3-3.4,11.4-0.4,15.2,6.3C653,770.6,683.7,824,714.6,877.2z"/>
<path class="st0" d="M818.3,814c5.1,8.8,7.1,18.9-0.2,26.4c-19,19.5-44,29.4-64.9,40.2c-13.8,0-20.8-5.2-26-14.1
	c-31-54-62.1-108-93.2-161.9c-9.4-16.3-5.9-29.1,10.1-38.5c14.3-8.4,28.9-16.5,43.2-24.9c15.3-9,28-6.1,36.8,9.1
	C755.7,704.7,787,759.4,818.3,814z"/>
<path class="st0" d="M544.8,0.1C224.1-5.4,3.4,271.4,0,533.2c-4,314.6,251.9,549.5,526,557.8c307.4,9.3,560.9-244.1,562.4-543.1
	C1089.9,253,845.5-6.1,544.8,0.1z M532.6,1025.9c-264.3-4.2-470.5-223.6-468.5-490.2C66,279,285,62.9,544.7,63.6
	c264.9,0.7,480.6,218.6,479.5,484.5C1023.2,816,805.9,1030.3,532.6,1025.9z"/>
<path class="st1" d="M369.9,246.2c-12-21-9.7-30.6,10.4-43.2c12.9-8,26-15.7,39.2-23.1c16.5-9.1,30.3-6.7,40.2,10.6
	c30.3,52.7,60.7,105.3,91,158c2.9,5,6,10,5.5,14.4l0,0c0.5,15.8-8.6,23.1-19.5,27.7c-21.8,9.2-38.2,33.8-66.1,24.7
	c-5-1.6-8.5-9.4-11.8-15C429.1,349,399.4,297.6,369.9,246.2z"/>
<path class="st1" d="M714.6,877.2c4.1,7.1,3.3,11-3.9,15.1c-46.6,26.4-92.5,33.9-140.8,2.2c-75.7-49.8-131.1-118.4-179.6-193
	c-57.3-88.1-101.5-182.3-119.6-287c-3-17.1-4-34.6-5.1-44.4l0,0c-1.9-60.6,24.9-101.8,74.3-125c9.1-4.3,11.1-0.2,14.5,5.7
	c30.6,53.5,61.3,106.9,91.9,160.3c2.3,4.1,6.5,8.2,0.3,13c-30.4,23.3-31.1,56.6-25.7,89.3c11.8,72.8,44.8,134.5,103.6,180.3
	c24.3,19,51.8,29.8,82.9,16.9c8.3-3.4,11.4-0.4,15.2,6.3C653,770.6,683.7,824,714.6,877.2z"/>
<path class="st1" d="M818.1,840.4c-19,19.5-44,29.4-64.9,40.2c-13.8,0-20.8-5.2-26-14.1c-31-54-62.1-108-93.2-161.9
	c-9.4-16.3-5.9-29.1,10.1-38.5c14.3-8.4,28.9-16.5,43.2-24.9c15.3-9,28-6.1,36.8,9.1c31.6,54.5,62.9,109.2,94.2,163.8
	C823.4,822.8,825.4,832.9,818.1,840.4z"/>
<path class="st0" d="M710.7,892.3c-46.6,26.4-92.5,33.9-140.8,2.2c-75.7-49.8-131.1-118.4-179.6-193
	c-57.3-88.1-101.5-182.3-119.6-287c-3-17.1-4-34.6-5.1-44.4l0,0c-1.9-60.6,24.9-101.8,74.3-125c9.1-4.3,11.1-0.2,14.5,5.7
	c30.6,53.5,61.3,106.9,91.9,160.3c2.3,4.1,6.5,8.2,0.3,13c-30.4,23.3-31.1,56.6-25.7,89.3c11.8,72.8,44.8,134.5,103.6,180.3
	c24.3,19,51.8,29.8,82.9,16.9c8.3-3.4,11.4-0.4,15.2,6.3c30.5,53.5,61.2,106.9,92.1,160.2C718.8,884.4,718,888.2,710.7,892.3z"/>
<path class="st0" d="M556.3,362.8L556.3,362.8c0.6,15.8-8.6,23.1-19.5,27.7c-21.8,9.2-38.2,33.8-66.1,24.7c-5-1.6-8.5-9.4-11.8-15
	c-29.8-51.3-59.5-102.7-89-154.1c-12-21-9.7-30.6,10.4-43.2c12.9-8,26-15.7,39.2-23.1c16.5-9.1,30.3-6.7,40.2,10.6
	c30.3,52.7,60.7,105.3,91,158C553.6,353.5,556.8,358.5,556.3,362.8z"/>
<path class="st0" d="M818.1,840.4c-19,19.5-44,29.4-64.9,40.2c-13.8,0-20.8-5.2-26-14.1c-31-54-62.1-108-93.2-161.9
	c-9.4-16.3-5.9-29.1,10.1-38.5c14.3-8.4,28.9-16.5,43.2-24.9c15.3-9,28-6.1,36.8,9.1c31.6,54.5,62.9,109.2,94.2,163.8
	C823.4,822.8,825.4,832.9,818.1,840.4z"/>
</svg>
