<?xml version="1.0" encoding="utf-8"?>
<!-- Generator: Adobe Illustrator 24.0.0, SVG Export Plug-In . SVG Version: 6.00 Build 0)  -->
<svg version="1.1" id="Layer_1" xmlns="http://www.w3.org/2000/svg" xmlns:xlink="http://www.w3.org/1999/xlink" x="0px" y="0px"
	 viewBox="0 0 934.2 1054.1" style="enable-background:new 0 0 934.2 1054.1;" xml:space="preserve">
<style type="text/css">
	.st0{fill:#100F0D;}
	.st1{fill:#FEFEFE;}
</style>
<path class="st0" d="M745.3,316.2C656.6,270.6,567.9,225,479.5,179c-8.9-4.6-16.5-5.3-25.3-0.8C364.4,224.6,274.6,271,184.6,317
	c-9.4,4.8-13.1,10.6-11.9,21.3c10.3,90.5,26.7,179.6,60.8,264.6c45,112,110.1,208,215.6,272.2c12.3,7.5,22,8.4,34.2,0.6
	c50.8-32.5,95.7-71.3,131.3-120.2c90.5-124.4,128.5-267,144.4-418.2l0,0C762.2,326.1,754.7,321,745.3,316.2z M674.7,423.8
	c-4.6,8.3-11.1,15.9-17.9,22.7C594,509.4,530.9,571.9,468,634.6c-10,10-20.2,19.4-33.2,18.5l0,0c-14.8,0.7-23.7-6.4-31.6-14.1
	c-32.7-32-65.4-64.2-97.3-97c-18.6-19.2-19.3-42.1-3.5-57.3c16.4-15.9,38-15.3,57.6,3c21.3,19.9,42,40.5,62.1,61.5
	c8.9,9.3,14.2,8.8,23.2-0.3c52.6-53.4,105.8-106.2,158.9-159.1c5.4-5.4,10.7-11.2,17.2-15c16.3-9.4,32.4-7.5,45.9,5.4
	C680.2,392.5,683.5,407.9,674.7,423.8z"/>
<path class="st0" d="M907.9,215.7C767.9,145.7,628,75.6,488.1,5.5c-13.3-6.7-27-7.5-40.1-1C305.6,75.6,163.3,147,20.8,218.2
	C5.3,226,0,238.4,0,255.5c-0.5,153,25.5,300.7,87.8,441.2c72,162.3,186.3,282,351.4,351.1c17.4,7.3,34.2,8.9,52.2,1.5
	c139.4-57.1,245-152.6,319.2-282.9C894.9,618.2,927.5,456.5,934,293.6c0-15.3-0.4-25,0.1-34.8C935,238.5,926,224.7,907.9,215.7z
	 M838.3,285.3L838.3,285.3c-7.8,69.6-17.3,134.1-33.3,197.4C772.3,612.8,719.7,733,631,835.4c-42.2,48.7-92.9,87.4-147.2,121.5
	c-13.5,8.5-24.4,4.3-36.6-2.7C354.7,900.8,284,825.8,229.8,734.8c-75.5-126.8-112.7-266-129.5-411.3c-5.2-45-4.2-45.1,37.1-65.7
	c103.5-51.6,207-103.1,310.2-155.3c13.8-7,24.9-6.9,38.7,0c110.7,55.7,221.8,110.8,332.8,166C828.4,273.1,839,276.5,838.3,285.3z"/>
<path class="st1" d="M745.3,316.2C656.6,270.6,567.9,225,479.5,179c-8.9-4.6-16.5-5.3-25.3-0.8C364.4,224.6,274.6,271,184.6,317
	c-9.4,4.8-13.1,10.6-11.9,21.3c10.3,90.5,26.7,179.6,60.8,264.6c45,112,110.1,208,215.6,272.2c12.3,7.5,22,8.4,34.2,0.6
	c50.8-32.5,95.7-71.3,131.3-120.2c90.5-124.4,128.5-267,144.4-418.2l0,0C762.2,326.1,754.7,321,745.3,316.2z M674.7,423.8
	c-4.6,8.3-11.1,15.9-17.9,22.7C594,509.4,530.9,571.9,468,634.6c-10,10-20.2,19.4-33.2,18.5l0,0c-14.8,0.7-23.7-6.4-31.6-14.1
	c-32.7-32-65.4-64.2-97.3-97c-18.6-19.2-19.3-42.1-3.5-57.3c16.4-15.9,38-15.3,57.6,3c21.3,19.9,42,40.5,62.1,61.5
	c8.9,9.3,14.2,8.8,23.2-0.3c52.6-53.4,105.8-106.2,158.9-159.1c5.4-5.4,10.7-11.2,17.2-15c16.3-9.4,32.4-7.5,45.9,5.4
	C680.2,392.5,683.5,407.9,674.7,423.8z"/>
<path class="st0" d="M745.3,316.2C656.6,270.6,567.9,225,479.5,179c-8.9-4.6-16.5-5.3-25.3-0.8C364.4,224.6,274.6,271,184.6,317
	c-9.4,4.8-13.1,10.6-11.9,21.3c10.3,90.5,26.7,179.6,60.8,264.6c45,112,110.1,208,215.6,272.2c12.3,7.5,22,8.4,34.2,0.6
	c50.8-32.5,95.7-71.3,131.3-120.2c90.5-124.4,128.5-267,144.4-418.2l0,0C762.2,326.1,754.7,321,745.3,316.2z M674.7,423.8
	c-4.6,8.3-11.1,15.9-17.9,22.7C594,509.4,530.9,571.9,468,634.6c-10,10-20.2,19.4-33.2,18.5l0,0c-14.8,0.7-23.7-6.4-31.6-14.1
	c-32.7-32-65.4-64.2-97.3-97c-18.6-19.2-19.3-42.1-3.5-57.3c16.4-15.9,38-15.3,57.6,3c21.3,19.9,42,40.5,62.1,61.5
	c8.9,9.3,14.2,8.8,23.2-0.3c52.6-53.4,105.8-106.2,158.9-159.1c5.4-5.4,10.7-11.2,17.2-15c16.3-9.4,32.4-7.5,45.9,5.4
	C680.2,392.5,683.5,407.9,674.7,423.8z"/>
</svg>
