<?xml version="1.0" encoding="utf-8"?>
<!-- Generator: Adobe Illustrator 24.0.0, SVG Export Plug-In . SVG Version: 6.00 Build 0)  -->
<svg version="1.1" id="Layer_1" xmlns="http://www.w3.org/2000/svg" xmlns:xlink="http://www.w3.org/1999/xlink" x="0px" y="0px"
	 viewBox="0 0 967.2 1167" style="enable-background:new 0 0 967.2 1167;" xml:space="preserve">
<path d="M966.4,406.5c0-65.9-0.5-121.4,0.3-176.9c0.2-14.4-3.6-22-17.5-28.1C800.1,136.3,651.2,70.6,502.4,4.6c-14-6.2-26-6.2-40,0
	c-148,65.7-296.2,131.2-444.7,196c-13.7,6-17.8,13-17.8,27.5c0.7,104,1.1,207.9,0.3,311.8c-0.7,83.3,15.7,163,47.8,239.2
	c76.8,182.2,204,313,392.8,380c27.9,9.9,53.9,10.7,81.8,0.3c246.8-91.9,385.7-273.1,435-527.3C972.9,554.3,964.9,474.8,966.4,406.5z
	 M745.8,482C629.6,597.7,513.3,713.4,397.1,829.1c-14.6,14.5-29,14.8-43.2,0.8c-60.5-59.9-120.8-120-181.7-179.4
	c-9.9-9.6-12.2-15.1-0.7-25.3c18.6-16.6,35.6-35.1,53.2-52.8c3.2-3.2,6.6-6.3,15.9-15c3.2,6.3,5,13,9.2,17.3
	c36.8,37.3,74.5,73.6,110.7,111.3c11.2,11.7,16.8,11.9,28.5,0.2c107.6-107.8,216.1-214.6,323.7-322.4c12.5-12.5,20.1-15.1,32.4-0.7
	c18.1,21.3,41.4,37.7,58,60.6C784,443.1,765.1,462.7,745.8,482z"/>
</svg>
