<?xml version="1.0" encoding="utf-8"?>
<!-- Generator: Adobe Illustrator 24.0.0, SVG Export Plug-In . SVG Version: 6.00 Build 0)  -->
<svg version="1.1" id="Layer_1" xmlns="http://www.w3.org/2000/svg" xmlns:xlink="http://www.w3.org/1999/xlink" x="0px" y="0px"
	 viewBox="0 0 788 962" style="enable-background:new 0 0 788 962;" xml:space="preserve">
<style type="text/css">
	.st0{fill:#FEFEFE;}
	.st1{fill:#010101;}
</style>
<path d="M501,328.7L501,328.7c-0.1,6.6-4.7,10.5-8.7,14.6c-37.8,37.7-75.9,75.3-113.6,113.2c-10.3,10.4-19.3,10.7-29.6,0.1
	c-17.5-18-35.4-35.6-53.5-53c-8.2-7.9-11.2-15.7-2.3-24.8c8.7-8.8,15.9-4.5,23,2.7c11.8,11.9,24.4,23,35.4,35.6
	c8.6,9.8,14.2,10.4,23.8,0.4c31.3-32.4,63.6-63.9,95.6-95.7c5.5-5.5,11.3-11.3,20.1-6.5C496.6,318.1,499.9,322.7,501,328.7z"/>
<path d="M394.5,134c-143.3-0.3-256.8,111.7-257.8,254.3C135.8,530.9,249.9,644.9,394,645.1c142.9,0.2,257.5-112.8,258-254.4
	C652.5,247.8,538.6,134.3,394.5,134z M392.5,614.8c-126.3-0.8-226.9-101.9-225.9-227.2c1-124.8,104-225.4,229.4-224.2
	c126.5,1.3,226.2,102,225.5,227.7C620.6,516.7,519.4,615.6,392.5,614.8z"/>
<path d="M765.9,333c-17.7-23.3-24.8-48.7-21.4-77.6c5.5-46.5-12.2-80.2-55.9-98.8c-29.2-12.5-49.3-33.1-62-62.4
	c-17.5-40.3-48.8-57.9-92.8-52.4c-29.2,3.6-56-1.9-80.1-19.8c-39.4-29.3-79.4-29.3-119.1-0.2c-24,17.6-50.5,24.6-79.9,20l0,0
	c-41.4-5.9-72.9,9-90,47.2c-15,33.5-38.1,56.7-71.4,71.4c-36.5,16.1-54.1,45.3-49.1,85c4.5,36.2-5.6,66.8-26.5,95.6
	c-23.4,32.4-23,66.2,0.8,98.2c21.1,28.3,29.9,58.6,25.6,93.8c-4.9,39.9,12.8,69.1,49.2,85.1c33.5,14.8,56.9,38,71.2,71.6
	c14.9,35.1,44.3,50.4,80.6,47.4c38.5-3.3,71.8,5,103.2,27.4c29.7,21.1,61.2,20.1,91.9,0.4c4.9-3.1,10.3-5.5,14.8-9
	c22.1-17.4,47.7-21.6,74.6-18.9c46.2,4.7,80.8-11.2,99.1-55.5c11.4-27.7,30.5-47,57.9-58.5c44.2-18.6,63.7-51.8,57.9-99.4
	c-3.5-28.9,3.3-54.5,21.2-77.6C794.7,408.5,794.3,370.4,765.9,333z M738.8,432.7c-21.3,26.3-29.3,57.3-24.5,90.5
	c5.3,36.9-9.5,60.3-43.3,74c-31.2,12.7-53.8,34.8-66.5,66.1c-14.1,34.8-39,48.5-76,43.9c-33.9-4.3-65.1,4.5-92.5,25.2
	c-27.6,20.8-54.8,21.9-82.6,0.6c-29.7-22.7-63.6-29.6-100.1-25.7c-31.3,3.3-53.5-8.2-65.9-37.9c-14.8-35.5-39.9-60.6-75.8-75.3
	c-30.3-12.4-41.9-35.8-37.5-67.8c4.8-35.6-3.6-67.8-25.9-95.9c-21.3-26.8-22.3-53.3-0.9-80.4C70.7,320,78.7,286.1,74,248.5
	c-3.6-29.3,6.8-51.3,35.6-63.1c37.3-15.3,64.3-41.2,79.8-79.1c9.7-23.7,27.2-37.2,54.1-34.1c44.9,5.1,85-6.2,121.3-33.1
	c19.1-14.1,40.2-13.8,59.2,0.2c35.8,26.3,75.1,38.2,119.4,32.8c28.8-3.5,46.1,11.6,56.9,36.3c14.1,32.5,36.3,56.2,68.5,72.5
	c46.7,23.7,46.1,24.8,45.1,83.2l0,0c-4.6,27.2,5,56.1,24.6,81.5C761.2,374.8,762.8,403.1,738.8,432.7z"/>
<path d="M34.1,840.9c25,0,49.9,0.5,74.7-0.2c17.9-0.5,30.4,5.8,39.1,22.1c11.8,22,25.3,43.2,38.2,64.8c7.1-1.3,8-7.8,10.7-12.4
	c26-44.3,51.9-88.6,77.8-133c5.4-9.3,11.2-18.6,24-11.8c12.9,7,8.3,16.4,2.6,26c-28.5,48.8-56.5,97.8-85.3,146.4
	c-15.3,25.7-40.3,25.4-56-0.1c-12.1-19.7-23.9-39.6-35-59.8c-4.6-8.3-10-11.7-19.7-11.6c-23.8,0.3-47.6-0.2-71.4-0.9
	c-28.8-0.9-42.1-22.5-28-47.2c28.2-49.7,57.4-98.8,86.1-148.2c5.6-9.6,12.6-14.9,23.5-8.2c10.5,6.5,7.6,14.8,2.6,23.3
	c-25.2,43.3-50.5,86.5-75.4,129.9C39.1,825.9,33.4,831.1,34.1,840.9L34.1,840.9z"/>
<path d="M600.6,930.5c14.2-23.9,27.9-46.2,40.7-69.1c8.1-14.5,19.5-21,36-20.7c25.7,0.5,51.4,0.2,77.8,0.2
	c-0.2-8.7-5.3-13.9-8.6-19.6c-24.7-42.8-49.5-85.5-74.3-128.3c-5.5-9.4-10.4-19.2,2.1-26.5c12.6-7.4,18.5,1.8,23.9,11.2
	c27.4,47.2,55.1,94.2,82.3,141.5c16.8,29.3,4.5,50.5-29.1,51.5c-26.9,0.8-58.7-8.5-79.5,4.7c-19.8,12.6-28.5,42.9-42.1,65.3
	c-17.3,28.5-42,28.4-59.1-0.6c-27.9-47.6-55.5-95.4-83.3-143.1c-5.6-9.6-10-19.3,2.4-26.4c12.7-7.2,18.4,2.2,23.8,11.6
	c14.1,24.5,28.4,48.8,42.7,73.2C570.7,879.9,585,904.2,600.6,930.5L600.6,930.5z"/>
<path class="st0" d="M501,328.7L501,328.7c-0.1,6.6-4.7,10.5-8.7,14.6c-37.8,37.7-75.9,75.3-113.6,113.2
	c-10.3,10.4-19.3,10.7-29.6,0.1c-17.5-18-35.4-35.6-53.5-53c-8.2-7.9-11.2-15.7-2.3-24.8c8.7-8.8,15.9-4.5,23,2.7
	c11.8,11.9,24.4,23,35.4,35.6c8.6,9.8,14.2,10.4,23.8,0.4c31.3-32.4,63.6-63.9,95.6-95.7c5.5-5.5,11.3-11.3,20.1-6.5
	C496.6,318.1,499.9,322.7,501,328.7z"/>
<path class="st0" d="M394.5,134c-143.3-0.3-256.8,111.7-257.8,254.3C135.8,530.9,249.9,644.9,394,645.1
	c142.9,0.2,257.5-112.8,258-254.4C652.5,247.8,538.6,134.3,394.5,134z M392.5,614.8c-126.3-0.8-226.9-101.9-225.9-227.2
	c1-124.8,104-225.4,229.4-224.2c126.5,1.3,226.2,102,225.5,227.7C620.6,516.7,519.4,615.6,392.5,614.8z"/>
<path d="M501,328.7L501,328.7c-0.1,6.6-4.7,10.5-8.7,14.6c-37.8,37.7-75.9,75.3-113.6,113.2c-10.3,10.4-19.3,10.7-29.6,0.1
	c-17.5-18-35.4-35.6-53.5-53c-8.2-7.9-11.2-15.7-2.3-24.8c8.7-8.8,15.9-4.5,23,2.7c11.8,11.9,24.4,23,35.4,35.6
	c8.6,9.8,14.2,10.4,23.8,0.4c31.3-32.4,63.6-63.9,95.6-95.7c5.5-5.5,11.3-11.3,20.1-6.5C496.6,318.1,499.9,322.7,501,328.7z"/>
<path d="M394.5,134c-143.3-0.3-256.8,111.7-257.8,254.3C135.8,530.9,249.9,644.9,394,645.1c142.9,0.2,257.5-112.8,258-254.4
	C652.5,247.8,538.6,134.3,394.5,134z M392.5,614.8c-126.3-0.8-226.9-101.9-225.9-227.2c1-124.8,104-225.4,229.4-224.2
	c126.5,1.3,226.2,102,225.5,227.7C620.6,516.7,519.4,615.6,392.5,614.8z"/>
<path class="st0" d="M501,328.7L501,328.7c-0.1,6.6-4.7,10.5-8.7,14.6c-37.8,37.7-75.9,75.3-113.6,113.2
	c-10.3,10.4-19.3,10.7-29.6,0.1c-17.5-18-35.4-35.6-53.5-53c-8.2-7.9-11.2-15.7-2.3-24.8c8.7-8.8,15.9-4.5,23,2.7
	c11.8,11.9,24.4,23,35.4,35.6c8.6,9.8,14.2,10.4,23.8,0.4c31.3-32.4,63.6-63.9,95.6-95.7c5.5-5.5,11.3-11.3,20.1-6.5
	C496.6,318.1,499.9,322.7,501,328.7z"/>
<path class="st1" d="M501,328.7L501,328.7c-0.1,6.6-4.7,10.5-8.7,14.6c-37.8,37.7-75.9,75.3-113.6,113.2
	c-10.3,10.4-19.3,10.7-29.6,0.1c-17.5-18-35.4-35.6-53.5-53c-8.2-7.9-11.2-15.7-2.3-24.8c8.7-8.8,15.9-4.5,23,2.7
	c11.8,11.9,24.4,23,35.4,35.6c8.6,9.8,14.2,10.4,23.8,0.4c31.3-32.4,63.6-63.9,95.6-95.7c5.5-5.5,11.3-11.3,20.1-6.5
	C496.6,318.1,499.9,322.7,501,328.7z"/>
</svg>
