<?xml version="1.0" encoding="utf-8"?>
<!-- Generator: Adobe Illustrator 24.0.0, SVG Export Plug-In . SVG Version: 6.00 Build 0)  -->
<svg version="1.1" id="Layer_1" xmlns="http://www.w3.org/2000/svg" xmlns:xlink="http://www.w3.org/1999/xlink" x="0px" y="0px"
	 viewBox="0 0 848 1130.9" style="enable-background:new 0 0 848 1130.9;" xml:space="preserve">
<style type="text/css">
	.st0{fill:#FEFEFE;}
</style>
<path d="M603.4,342.4c0.5,0.6-4.7,6.8-7.8,9.9c-75,74.1-150.1,148.1-225.3,222c-3,3-5,7.8-11.7,7.3h0c-2.7-2.5-6-5.5-9.2-8.7
	c-31.8-31.5-63.4-63.2-95.7-94.2c-8.3-8-9.7-12.4-0.7-21.4c23.2-23.1,22.6-23.6,45.5-1.1c13.5,13.3,26.9,26.8,40.5,39.9
	c18.4,17.7,25.4,18,43.6,0.1c58.4-57.4,116.6-115.2,175.1-172.5c4.7-4.6,8.8-16.1,17.1-10.3C585.7,321.2,594.4,332.2,603.4,342.4z"
	/>
<path d="M424.3,160.4L424.3,160.4c-150-0.1-274.2,122.2-274.7,270.4C149.1,587.4,269.7,711,423.4,711.5
	c150.7,0.5,275.9-124.7,275.1-275.2C697.6,283.1,575.7,160.4,424.3,160.4z M398.4,607.2c-27.6,27.3-48.1,26.9-75.8-0.6
	c-34.5-34.2-68.9-68.5-103.3-102.9c-25.7-25.7-25.7-45.4,0-72c7.9-8.2,15.7-16.5,24-24.3c10.4-9.9,20.8-14.2,32.4-14.2l0,0
	c16.3,0.3,28.5,8.5,39.5,19.7c14.9,15.1,30.3,40.7,45.8,40.9c15,0.2,30.6-25.8,45.6-40.6c42.1-41.6,84-83.5,126-125.2
	c27.8-27.5,50.3-27.5,78.3-0.3c6.5,6.4,13.1,12.6,19.5,19.2c23.7,24.4,23.6,46.6-0.9,71C552.6,454.5,475.5,530.9,398.4,607.2z"/>
<path d="M839.5,439.8c10.3-10.6,12.2-17.3,0.4-28.7c-20.1-19.5-38-41.4-57.2-61.9c-10.1-10.8-14.3-21.5-10.1-37
	c7.3-27,10.8-55.1,18.1-82.1c4.5-16.6-0.5-22.6-16-26.7c-26.3-6.9-52-16.1-78.2-23.8c-14.3-4.2-23.1-12.1-27.3-27
	c-8-28.4-18.4-56.1-26.5-84.5c-3.3-11.6-7.8-13.9-19.2-11.2c-27.3,6.5-54.9,11.2-82.3,17.3c-16.6,3.7-30,2.7-43.2-10.9
	C478.6,43.4,456.3,26.1,436,6.7c-9-8.7-14.7-9.1-23.9-0.1c-20.6,20.2-42.9,38.6-63.7,58.6c-11.6,11.2-23.9,14.3-39.4,10.6
	c-26.5-6.4-53.4-11.4-79.9-17.9c-13.8-3.4-21.3-2.1-25.3,14.1c-6.2,25.7-16.4,50.4-23.5,75.9c-5,17.8-14.3,28.4-32.9,33.1
	c-26.4,6.7-52,16.4-78.1,23.9c-12.4,3.5-16.5,7.7-12.7,22c8.5,32.2,14.1,65.1,19.7,91.9h0c1.8,16.2-4.3,23-10.5,29.8
	c-19.9,21.9-39.5,44.2-59.9,65.6c-8.1,8.5-7.8,14.4,0.1,22.8c20.3,21.5,39.3,44.3,59.8,65.7c10.7,11.2,12.8,22.8,9.5,37.3
	c-6.6,28-11.1,56.6-18.6,84.3c-3.5,12.8-0.2,17.3,11.3,20.8c25.4,7.5,50.2,17,75.8,23.8c20.4,5.4,32.3,16.4,37.7,37.3
	c6.5,25.6,15.9,50.5,23.5,75.9c3.3,10.9,7.2,16,20.5,12.5c27.1-7.2,55.1-10.8,82-18.4c17.9-5,30.2-0.5,42.8,11.8
	c20,19.7,41.7,37.7,61.8,57.2c8.8,8.5,14.5,9.1,23.7-0.1c20.9-20.9,43.4-40.2,64.9-60.6c10.3-9.8,21.3-12.8,35.3-9.4
	c28,6.7,56.6,11.2,84.3,18.8c14.9,4.1,19.7-0.1,23.5-14c7.2-26.2,17.4-51.7,24.7-77.9c4.5-16.3,12.6-25.8,29.5-30.4
	c25.5-7,49.9-18.2,75.6-24.3c19.8-4.6,20.7-13.6,16.3-30.4c-6.9-26.3-10.4-53.6-17.4-79.9c-3.6-13.7-0.2-23.3,8.6-32.9
	C800.9,482.7,819.4,460.5,839.5,439.8z M425.4,754.2c-174.4,1.1-316.5-141.2-317.9-318.4c-1.4-173.4,141.6-317.4,315.9-318.1
	c173.5-0.7,317.4,144,318,319.7C742,608.5,597.8,753.1,425.4,754.2z"/>
<path d="M65.4,1068.1c33.7-93.1,65.5-181.3,98.8-273.4c11.7,34.5,34,48.5,66.9,41.8c23-4.7,46.8-7.2,68.8-15
	c24.6-8.7,34,10,47.8,21.1c13,10.5,0.8,21.1-2.5,30.4c-30.2,85.6-61.3,170.8-92.8,257.8c-11.4-13.6-12.7-30.3-18.3-45
	c-8.7-22.6-15.6-45.8-23.9-68.6c-8.1-22.1-17.8-26.1-37.7-14.4C138.2,1023.2,104.3,1044.4,65.4,1068.1L65.4,1068.1z"/>
<path d="M783.3,1068.1c-38.5-23.4-71.3-43.6-104.4-63.3c-23.7-14.1-32.4-10.5-41.7,16.1c-12.6,36.4-25.1,73-37.8,109.7
	c-7.1-3.6-7-10.9-9.2-16.8c-29.9-82.5-59.8-165-89.5-247.6c-7.7-21.5,17.4-50.6,40.1-46.1c29.7,5.9,59.3,12.3,89,18.8
	c34.5,7.5,37,6.2,48.3-25.9c1.7-4.9,3.9-9.6,7-17.1C717.8,886.4,749.5,974.2,783.3,1068.1L783.3,1068.1z"/>
<path class="st0" d="M603.4,342.4c0.5,0.6-4.7,6.8-7.8,9.9c-75,74.1-150.1,148.1-225.3,222c-3,3-5,7.8-11.7,7.3h0
	c-2.7-2.5-6-5.5-9.2-8.7c-31.8-31.5-63.4-63.2-95.7-94.2c-8.3-8-9.7-12.4-0.7-21.4c23.2-23.1,22.6-23.6,45.5-1.1
	c13.5,13.3,26.9,26.8,40.5,39.9c18.4,17.7,25.4,18,43.6,0.1c58.4-57.4,116.6-115.2,175.1-172.5c4.7-4.6,8.8-16.1,17.1-10.3
	C585.7,321.2,594.4,332.2,603.4,342.4z"/>
<path class="st0" d="M424.3,160.4L424.3,160.4c-150-0.1-274.2,122.2-274.7,270.4C149.1,587.4,269.7,711,423.4,711.5
	c150.7,0.5,275.9-124.7,275.1-275.2C697.6,283.1,575.7,160.4,424.3,160.4z M398.4,607.2c-27.6,27.3-48.1,26.9-75.8-0.6
	c-34.5-34.2-68.9-68.5-103.3-102.9c-25.7-25.7-25.7-45.4,0-72c7.9-8.2,15.7-16.5,24-24.3c10.4-9.9,20.8-14.2,32.4-14.2l0,0
	c16.3,0.3,28.5,8.5,39.5,19.7c14.9,15.1,30.3,40.7,45.8,40.9c15,0.2,30.6-25.8,45.6-40.6c42.1-41.6,84-83.5,126-125.2
	c27.8-27.5,50.3-27.5,78.3-0.3c6.5,6.4,13.1,12.6,19.5,19.2c23.7,24.4,23.6,46.6-0.9,71C552.6,454.5,475.5,530.9,398.4,607.2z"/>
<path d="M603.4,342.4c0.5,0.6-4.7,6.8-7.8,9.9c-75,74.1-150.1,148.1-225.3,222c-3,3-5,7.8-11.7,7.3h0c-2.7-2.5-6-5.5-9.2-8.7
	c-31.8-31.5-63.4-63.2-95.7-94.2c-8.3-8-9.7-12.4-0.7-21.4c23.2-23.1,22.6-23.6,45.5-1.1c13.5,13.3,26.9,26.8,40.5,39.9
	c18.4,17.7,25.4,18,43.6,0.1c58.4-57.4,116.6-115.2,175.1-172.5c4.7-4.6,8.8-16.1,17.1-10.3C585.7,321.2,594.4,332.2,603.4,342.4z"
	/>
<path d="M424.3,160.4L424.3,160.4c-150-0.1-274.2,122.2-274.7,270.4C149.1,587.4,269.7,711,423.4,711.5
	c150.7,0.5,275.9-124.7,275.1-275.2C697.6,283.1,575.7,160.4,424.3,160.4z M398.4,607.2c-27.6,27.3-48.1,26.9-75.8-0.6
	c-34.5-34.2-68.9-68.5-103.3-102.9c-25.7-25.7-25.7-45.4,0-72c7.9-8.2,15.7-16.5,24-24.3c10.4-9.9,20.8-14.2,32.4-14.2l0,0
	c16.3,0.3,28.5,8.5,39.5,19.7c14.9,15.1,30.3,40.7,45.8,40.9c15,0.2,30.6-25.8,45.6-40.6c42.1-41.6,84-83.5,126-125.2
	c27.8-27.5,50.3-27.5,78.3-0.3c6.5,6.4,13.1,12.6,19.5,19.2c23.7,24.4,23.6,46.6-0.9,71C552.6,454.5,475.5,530.9,398.4,607.2z"/>
<path class="st0" d="M595.6,352.3c-75,74.1-150.1,148.1-225.3,222c-3,3-5,7.8-11.7,7.3h0c-2.7-2.5-6-5.5-9.2-8.7
	c-31.8-31.5-63.4-63.2-95.7-94.2c-8.3-8-9.7-12.4-0.7-21.4c23.2-23.1,22.6-23.6,45.5-1.1c13.5,13.3,26.9,26.8,40.5,39.9
	c18.4,17.7,25.4,18,43.6,0.1c58.4-57.4,116.6-115.2,175.1-172.5c4.7-4.6,8.8-16.1,17.1-10.3c11,7.7,19.6,18.7,28.6,28.9
	C603.9,343,598.7,349.2,595.6,352.3z"/>
<path d="M595.6,352.3c-75,74.1-150.1,148.1-225.3,222c-3,3-5,7.8-11.7,7.3h0c-2.7-2.5-6-5.5-9.2-8.7c-31.8-31.5-63.4-63.2-95.7-94.2
	c-8.3-8-9.7-12.4-0.7-21.4c23.2-23.1,22.6-23.6,45.5-1.1c13.5,13.3,26.9,26.8,40.5,39.9c18.4,17.7,25.4,18,43.6,0.1
	c58.4-57.4,116.6-115.2,175.1-172.5c4.7-4.6,8.8-16.1,17.1-10.3c11,7.7,19.6,18.7,28.6,28.9C603.9,343,598.7,349.2,595.6,352.3z"/>
</svg>
