<?xml version="1.0" encoding="utf-8"?>
<!-- Generator: Adobe Illustrator 24.0.0, SVG Export Plug-In . SVG Version: 6.00 Build 0)  -->
<svg version="1.1" id="Layer_1" xmlns="http://www.w3.org/2000/svg" xmlns:xlink="http://www.w3.org/1999/xlink" x="0px" y="0px"
	 viewBox="0 0 1001.5 1003.4" style="enable-background:new 0 0 1001.5 1003.4;" xml:space="preserve">
<path d="M497.8,0C218.4,1.5-8,240.6,0.2,499.8c-8.3,273,227.3,504.7,502,503.6c273.4-1.2,499.2-232.5,499.3-499.8
	C1001.5,221.4,763.9-1.4,497.8,0z M468.8,483.4c-27.3-0.7-54.6-0.5-81.9-0.1c-8.6,0.1-13.3-1-13.1-11.6c0.6-46.7,4.8-93.1,8.9-139.5
	c0.7-7.9,4.3-9.8,11.8-9c25.8,2.7,51.6,5.4,77.5,7c10.1,0.6,9.8,6.1,9.8,13.2c-0.2,21.3-0.1,42.6-0.1,63.9c0,20.7-0.4,41.3,0.2,62
	C482.2,479.2,480,483.7,468.8,483.4z M481.7,44.4L481.7,44.4c0,81.7-0.1,159.4,0.1,237.1c0,7.6-2.1,10.6-10.2,10.4
	c-24.7-0.5-49.1-4.1-73.5-7.5c-7.1-1-8.8-3.8-7.6-10.3c12.7-65.3,25.4-130.7,57.9-189.9C456.1,70.3,464.7,56.8,481.7,44.4z
	 M424.3,50.9c-40.1,68.3-56.5,138.7-69,210.2c-2.6,15-7.2,14.5-19,11.1c-29.4-8.5-58.5-17.5-86.6-29.8c-7-3-11.3-6.1-6.9-14.6
	C282.7,150.8,335.9,87.3,424.3,50.9z M195.1,520.4c21.3,0.4,42.7,0.1,64,0.1l0,0c20.7,0,41.4,0.5,62-0.2
	c10.5-0.3,15.7,1.9,15.8,13.9c0.3,57.4,4.2,114.6,12.8,171.4c1.4,9-1.4,12.9-10.8,15c-31.9,7-62.9,16.7-92.8,30
	c-9.1,4.1-13.4,3.1-17.7-7c-28.7-67.7-41.7-138.6-46.3-211.5C181.5,521.2,186.6,520.3,195.1,520.4z M182.1,469.1
	c4.1-63.4,15.5-125.2,37.2-185.1c3.2-8.8,6.5-11.1,15.7-6.9c32.6,15.2,66.4,27.1,101.8,33.9c9.3,1.8,10.3,6.3,9.4,13.7
	c-5.9,49-9.1,98.1-9.3,147.5c-0.1,10.9-6.2,11.1-14.3,11c-21.3-0.3-42.6-0.1-63.9-0.1c-20.7,0-41.3-0.5-61.9,0.2
	C185.6,483.7,181.3,481.1,182.1,469.1z M278.6,94.3c2.9-1.6,5.2-3.8,8.2,0.3c3.2,4.3-0.9,5.8-2.7,7.7c-30.3,33.2-55.6,69.8-75,110.4
	c-3.2,6.7-6.6,6.5-12.1,2.8c-12.6-8.6-25.6-16.8-39.2-25.7C192.3,149.3,233.6,119.5,278.6,94.3z M38.5,454.3
	c9.8-81.5,37.1-156.3,85.2-223.2c7.4-10.3,13-13.1,22.8-3.9c12.6,11.8,36.5,14.5,40.4,29.5c3.5,13.5-9,30.9-13.8,46.7
	c-16.4,53.1-26.2,107.4-27.5,163.1c-0.3,12.5-3.1,18.3-16.8,17c-12.6-1.2-25.3-0.3-38-0.3h-26C35.3,483.1,35,483.1,38.5,454.3z
	 M125.8,776.3c-51.5-71.1-80.6-150.6-88.3-238.1c-1.2-13.8,1.8-19.4,16.5-17.9c11.9,1.3,24,0.3,35.9,0.3c13.3,0,26.7,0.9,39.9-0.3
	c12.9-1.1,15.3,4.3,15.7,16c2.8,77.1,18.1,151.7,49,222.6c4.8,11,2.1,15.6-7.4,19.7c-4.3,1.8-8.3,4.3-12.3,6.7
	C145.6,802.9,145.2,803.1,125.8,776.3z M180.8,838.2c-4.8-4.5-6.5-7.9,0.5-11.9c9.2-5.3,18.2-11.1,27.3-16.7
	c4.3-2.6,8.3-4.2,11.4,1.7c19.2,35.9,43.8,68,69.3,100.1C247.6,894.5,212.7,868.4,180.8,838.2z M250.8,790L250.8,790
	c30.7-16.1,63.2-23.7,95-33.2c12.7-3.8,12.5,4.7,14,12.3c8.7,43.8,20.1,86.9,36.8,128.4c6.9,17.3,15.1,34,28,54.7
	C341.7,919.6,290.8,861.2,250.8,790z M481.7,958.7c-18.2-13.6-27.7-29.3-36.2-45.6c-25.4-48.9-38.8-101.8-49.8-155.4
	c-1.7-8.3,0.7-11,8.1-11.6c22.6-2,45.2-3.7,67.8-6c12.5-1.3,10.1,7.3,10.1,14.2C481.7,821,481.7,887.8,481.7,958.7z M481.9,534
	c-0.6,26-0.2,52-0.2,78.1c0,25.4-0.3,50.7,0.2,76.1c0.2,8.8-1.5,13-11.7,13.5c-23.9,1.4-47.8,4-71.6,6.9c-8.8,1-11.5-1.9-12.5-10.4
	c-6.6-54.3-10.9-108.8-12.3-163.5c-0.3-11.5,3.3-14.7,14.5-14.3c26.7,0.8,53.4,0.7,80.1,0C479,520,482.2,523.5,481.9,534z
	 M882.5,238.8c46,67.7,71.6,142.1,80.4,223c1.9,18-2.9,24-20.7,21.6c-10.5-1.4-21.3-0.3-32-0.3V482l0,0c-17.3,0-38.5,6.1-50.7-1.7
	c-12.1-7.8-4.8-30.9-6.5-47.2c-6.1-57.3-17.5-113.2-38.4-166.9c-3.8-9.9-1.7-14.2,7-18.5c8.9-4.5,18.2-9.1,25.4-15.7
	C862.8,217,871.3,222.2,882.5,238.8z M663.5,534.5c0.1-11.7,4.7-14.3,15.5-14.2c40,0.5,80,0.8,120-0.1c15.2-0.3,23.5,2.4,18.4,18.8
	v0c-4,69.7-18.3,136.3-43.8,200.7c-5,12.5-9.5,15.8-22.9,9.6c-27.7-12.9-57.2-21.7-87.1-28.2c-10.8-2.4-14.5-6.2-12.9-17.2
	C659.3,647.7,663.2,591.2,663.5,534.5z M665.9,310.6c34-6.5,66.5-18.4,98.1-32.5c8.8-4,13.4-5.2,17.4,6
	c21.7,60.6,32.6,123.2,36.9,187.2c0.7,10.5-3.7,12.2-12.6,12c-22-0.4-44-0.1-65.9-0.1l0,0c-20.7,0-41.3-0.5-61.9,0.2
	c-10.2,0.3-14.2-2.7-14.3-13.3c-0.1-48-3.1-95.8-9-143.4C653.4,317.4,654.9,312.7,665.9,310.6z M712.2,89.9
	c49.9,24.9,92.3,57.5,129.1,98c-0.8,1.4-1.1,2.7-1.9,3.3c-13.8,9.2-28,25.8-41.5,25.2c-12.8-0.5-16.1-24.4-24.4-37.5
	c-16-25.4-33.4-49.6-53.1-72.2C716.8,102.5,710.1,99.8,712.2,89.9z M737.9,193.8c27.3,44.5,26.9,45-22.9,62.3
	c-18.2,6.3-36.9,11-55.1,17.3c-9.4,3.2-12.2,1.2-14-8.8c-9.4-54.4-21.5-108.2-42.6-159.5c-7-17-15.5-33.2-27-53.8
	C651.1,81.3,699.8,131.8,737.9,193.8z M518.6,277c0.3-76,0.2-152,0.2-232.1c20.1,14.4,29.9,32.3,38.9,50.4
	c27.7,56,40.4,116.5,51.9,177.4c1.3,7.1,0.8,10.7-7.8,11.8c-23.1,3-46.2,6.1-69.5,7.4C519.6,292.7,518.5,287.2,518.6,277z
	 M518.5,468.3c0.7-20.6,0.2-41.3,0.2-61.9c0-21.3,0.3-42.6-0.2-63.9c-0.2-8.2,1.9-11.6,10.8-12.2c25.2-1.7,50.4-3.9,75.5-7
	c10.4-1.3,12.4,3.2,13.1,11.9c3.8,44.5,7.5,88.9,8.5,133.5c0.3,11.1-2.4,15.1-14.1,14.7c-26.6-0.9-53.3-0.9-79.9,0
	C520.5,483.8,518.2,479,518.5,468.3z M518.8,610.1L518.8,610.1c0-25.3,0.4-50.7-0.2-76c-0.3-10.3,2.7-14,13.4-13.8
	c27.3,0.7,54.7,0.6,82.1,0c9.3-0.2,12.8,2.2,12.6,12.2c-1.1,56.1-6,111.8-12.5,167.5c-1,8.4-5.2,9.2-12.2,8.5
	c-23.8-2.6-47.7-5.4-71.6-6.8c-10.1-0.6-11.9-4.6-11.7-13.5C519,662.2,518.8,636.1,518.8,610.1z M518.7,958.6
	c0-70.5,0.3-136.5-0.3-202.5c-0.1-13,2.9-17.8,16.5-16c19.8,2.7,39.8,3.6,59.7,5.8c5.2,0.6,12.7-0.4,10.4,9.9
	C591.8,817,578,878,543.5,931.7C537.5,940.9,530.9,949.8,518.7,958.6z M576.4,952.2c34.9-59.8,51.7-120.4,63.6-182.5
	c2.6-13.6,7.4-15.2,19.7-11.6c26.8,7.9,53.7,15.2,79.3,26.5c4.7,2.1,12.6,2.5,7.3,11.6C707,864.1,656.4,919.7,576.4,952.2z
	 M713.2,912.5c-5-6.7,1.8-9.5,4.8-12.9c22.3-24.8,42.4-51.3,57.9-80.8c6.1-11.6,12.1-13.3,22.4-5.8c8.5,6.2,17.7,11.5,26.6,17.2
	C805.3,856.5,752.9,895,713.2,912.5z M867.3,786c-9.9,13.2-18.3,19.5-32.4,5.7c-9.4-9.3-28.6-10.3-31.3-22.4
	c-2.3-10.3,7.6-23.3,12-35.1c23.8-63.6,36.8-129.4,39.2-197.2c0.4-12.9,3.9-17.8,17.2-16.7c12.6,1.1,25.4,0.2,38.1,0.2h24
	c32,0,31.5-0.1,27.7,31.2C951.3,638.3,919.8,716.3,867.3,786z"/>
</svg>
