<?xml version="1.0" encoding="utf-8"?>
<!-- Generator: Adobe Illustrator 24.0.0, SVG Export Plug-In . SVG Version: 6.00 Build 0)  -->
<svg version="1.1" id="Layer_1" xmlns="http://www.w3.org/2000/svg" xmlns:xlink="http://www.w3.org/1999/xlink" x="0px" y="0px"
	 viewBox="0 0 1237.3 1237.3" style="enable-background:new 0 0 1237.3 1237.3;" xml:space="preserve">
<style type="text/css">
	.st0{fill:#FEFEFE;}
</style>
<path class="st0" d="M483.1,657.9c1.9,65.3,16.9,127.8,45.1,192.5c-84.3-39.3-133.8-99.3-151.6-185c-2.8-13.5,0.4-18.2,14.9-17.5
	c26.2,1.2,52.5,0.4,78.7,0.3C477.2,648.1,482.8,647.9,483.1,657.9z"/>
<path class="st0" d="M376.3,578.3c15.1-78.6,57.4-137.4,127.8-175.9c6.3-3.4,13-6,24-11c-28.6,64-42.8,126.5-45,191.7
	c-0.3,9.8-5.6,10-12.7,10c-27.5-0.1-55-0.7-82.4,0.2C375,593.8,374.4,588.5,376.3,578.3z"/>
<path class="st0" d="M586.2,842.5c-26.9-41.5-37.4-88.8-43.9-136.9c-2.5-18.5-12.8-42.2-0.9-54.3c8.9-9,33.4-2.7,51-3.1
	c9.2-0.2,18.3,0,27.5,0l0,0c22.9,0,45.8,0.3,68.7-0.1c8.3-0.2,11.6,2.3,11,11.1c-4.2,61.7-13.8,122-44.4,177.1
	c-1.3,2.3-2.7,4.5-4.2,6.7C629.2,874.9,607.4,875.2,586.2,842.5z"/>
<path class="st0" d="M537.7,580.6c4.1-57.1,12.8-113.1,38.9-164.8c9.1-18.1,19.3-39.7,41.7-40.1c22.7-0.4,32.8,21.6,42,39.5
	c26.5,51.6,35.1,107.7,39.3,164.8c0.8,10.6-2.4,13.7-12.8,13.4c-22.9-0.7-45.8-0.2-68.8-0.2c-22.3,0-44.5-0.3-66.8,0.2
	C541.9,593.5,536.9,592.1,537.7,580.6z"/>
<path class="st0" d="M860.6,663.8c-16.7,86.9-67.1,147-151.6,186.8h0c28.5-65.1,43.3-127.7,45.4-193.1c0.3-8.5,4.7-9.4,11.3-9.4
	c28.9,0.1,57.8,0.5,86.6-0.1C867.2,647.7,861.9,657.3,860.6,663.8z"/>
<path class="st0" d="M754.2,582c-2.4-64.7-16.4-126.8-45.2-191.2c85.3,38.8,134.1,99.8,151.9,186.1c2.8,13.5-1.2,16.9-14.4,16.5
	c-26.2-0.9-52.5-0.4-78.7-0.2C759.7,593.3,754.6,592.6,754.2,582z"/>
<path class="st0" d="M618.8,128.9L618.8,128.9c-269.6-4.1-492.4,223.7-492.6,491.4C126.1,887,347.6,1113,618.5,1113
	c270.5,0,492.5-224.4,492.6-492.2C1111.1,353.2,888.3,124.9,618.8,128.9z M619.1,921.9c-166.3,0.4-302.4-136.5-301.6-303.3
	c0.8-164.5,136.9-299.4,301.8-299.1v0c165.5,0.2,301.3,136.7,300.7,302.2C919.3,786.5,784.1,921.5,619.1,921.9z"/>
<path d="M483.1,657.9c1.9,65.3,16.9,127.8,45.1,192.5c-84.3-39.3-133.8-99.3-151.6-185c-2.8-13.5,0.4-18.2,14.9-17.5
	c26.2,1.2,52.5,0.4,78.7,0.3C477.2,648.1,482.8,647.9,483.1,657.9z"/>
<path d="M376.3,578.3c15.1-78.6,57.4-137.4,127.8-175.9c6.3-3.4,13-6,24-11c-28.6,64-42.8,126.5-45,191.7c-0.3,9.8-5.6,10-12.7,10
	c-27.5-0.1-55-0.7-82.4,0.2C375,593.8,374.4,588.5,376.3,578.3z"/>
<path d="M699.7,659.1c-4.2,61.7-13.8,122-44.4,177.1c-1.3,2.3-2.7,4.5-4.2,6.7c-21.8,32-43.7,32.3-64.9-0.4
	c-26.9-41.5-37.4-88.8-43.9-136.9c-2.5-18.5-12.8-42.2-0.9-54.3c8.9-9,33.4-2.7,51-3.1c9.2-0.2,18.3,0,27.5,0l0,0
	c22.9,0,45.8,0.3,68.7-0.1C697,647.9,700.3,650.3,699.7,659.1z"/>
<path d="M699.7,579.9c0.8,10.6-2.4,13.7-12.8,13.4c-22.9-0.7-45.8-0.2-68.8-0.2c-22.3,0-44.5-0.3-66.8,0.2
	c-9.4,0.2-14.4-1.2-13.5-12.6c4.1-57.1,12.8-113.1,38.9-164.8c9.1-18.1,19.3-39.7,41.7-40.1c22.7-0.4,32.8,21.6,42,39.5
	C686.8,466.8,695.4,522.8,699.7,579.9z"/>
<path d="M860.6,663.8c-16.7,86.9-67.1,147-151.6,186.8h0c28.5-65.1,43.3-127.7,45.4-193.1c0.3-8.5,4.7-9.4,11.3-9.4
	c28.9,0.1,57.8,0.5,86.6-0.1C867.2,647.7,861.9,657.3,860.6,663.8z"/>
<path d="M860.9,576.9c2.8,13.5-1.2,16.9-14.4,16.5c-26.2-0.9-52.5-0.4-78.7-0.2c-8.1,0.1-13.2-0.6-13.6-11.2
	c-2.4-64.7-16.4-126.8-45.2-191.2C794.3,429.5,843.1,490.6,860.9,576.9z"/>
<path d="M618.8,128.9L618.8,128.9c-269.6-4.1-492.4,223.7-492.6,491.4C126.1,887,347.6,1113,618.5,1113
	c270.5,0,492.5-224.4,492.6-492.2C1111.1,353.2,888.3,124.9,618.8,128.9z M619.1,921.9c-166.3,0.4-302.4-136.5-301.6-303.3
	c0.8-164.5,136.9-299.4,301.8-299.1v0c165.5,0.2,301.3,136.7,300.7,302.2C919.3,786.5,784.1,921.5,619.1,921.9z"/>
<path class="st0" d="M483.1,657.9c1.9,65.3,16.9,127.8,45.1,192.5c-84.3-39.3-133.8-99.3-151.6-185c-2.8-13.5,0.4-18.2,14.9-17.5
	c26.2,1.2,52.5,0.4,78.7,0.3C477.2,648.1,482.8,647.9,483.1,657.9z"/>
<path class="st0" d="M376.3,578.3c15.1-78.6,57.4-137.4,127.8-175.9c6.3-3.4,13-6,24-11c-28.6,64-42.8,126.5-45,191.7
	c-0.3,9.8-5.6,10-12.7,10c-27.5-0.1-55-0.7-82.4,0.2C375,593.8,374.4,588.5,376.3,578.3z"/>
<path class="st0" d="M699.7,659.1c-4.2,61.7-13.8,122-44.4,177.1c-1.3,2.3-2.7,4.5-4.2,6.7c-21.8,32-43.7,32.3-64.9-0.4
	c-26.9-41.5-37.4-88.8-43.9-136.9c-2.5-18.5-12.8-42.2-0.9-54.3c8.9-9,33.4-2.7,51-3.1c9.2-0.2,18.3,0,27.5,0l0,0
	c22.9,0,45.8,0.3,68.7-0.1C697,647.9,700.3,650.3,699.7,659.1z"/>
<path class="st0" d="M699.7,579.9c0.8,10.6-2.4,13.7-12.8,13.4c-22.9-0.7-45.8-0.2-68.8-0.2c-22.3,0-44.5-0.3-66.8,0.2
	c-9.4,0.2-14.4-1.2-13.5-12.6c4.1-57.1,12.8-113.1,38.9-164.8c9.1-18.1,19.3-39.7,41.7-40.1c22.7-0.4,32.8,21.6,42,39.5
	C686.8,466.8,695.4,522.8,699.7,579.9z"/>
<path class="st0" d="M860.6,663.8c-16.7,86.9-67.1,147-151.6,186.8h0c28.5-65.1,43.3-127.7,45.4-193.1c0.3-8.5,4.7-9.4,11.3-9.4
	c28.9,0.1,57.8,0.5,86.6-0.1C867.2,647.7,861.9,657.3,860.6,663.8z"/>
<path class="st0" d="M754.2,582c-2.4-64.7-16.4-126.8-45.2-191.2c85.3,38.8,134.1,99.8,151.9,186.1c2.8,13.5-1.2,16.9-14.4,16.5
	c-26.2-0.9-52.5-0.4-78.7-0.2C759.7,593.3,754.6,592.6,754.2,582z"/>
<path d="M699.7,659.1c-4.2,61.7-13.8,122-44.4,177.1c-1.3,2.3-2.7,4.5-4.2,6.7c-21.8,32-43.7,32.3-64.9-0.4
	c-26.9-41.5-37.4-88.8-43.9-136.9c-2.5-18.5-12.8-42.2-0.9-54.3c8.9-9,33.4-2.7,51-3.1c9.2-0.2,18.3,0,27.5,0l0,0
	c22.9,0,45.8,0.3,68.7-0.1C697,647.9,700.3,650.3,699.7,659.1z"/>
<path d="M686.8,593.3c-22.9-0.7-45.8-0.2-68.8-0.2c-22.3,0-44.5-0.3-66.8,0.2c-9.4,0.2-14.4-1.2-13.5-12.6
	c4.1-57.1,12.8-113.1,38.9-164.8c9.1-18.1,19.3-39.7,41.7-40.1c22.7-0.4,32.8,21.6,42,39.5c26.5,51.6,35.1,107.7,39.3,164.8
	C700.4,590.5,697.3,593.6,686.8,593.3z"/>
<path d="M528,391.5c-28.6,64-42.8,126.5-45,191.7c-0.3,9.8-5.6,10-12.7,10c-27.5-0.1-55-0.7-82.4,0.2c-12.9,0.4-13.5-4.9-11.6-15
	c15.1-78.6,57.4-137.4,127.8-175.9C510.3,399,517,396.5,528,391.5z"/>
<path d="M846.5,593.4c-26.2-0.9-52.5-0.4-78.7-0.2c-8.1,0.1-13.2-0.6-13.6-11.2c-2.4-64.7-16.4-126.8-45.2-191.2
	c85.3,38.8,134.1,99.8,151.9,186.1C863.7,590.4,859.8,593.8,846.5,593.4z"/>
<path d="M860.6,663.8c-16.7,86.9-67.1,147-151.6,186.8h0c28.5-65.1,43.3-127.7,45.4-193.1c0.3-8.5,4.7-9.4,11.3-9.4
	c28.9,0.1,57.8,0.5,86.6-0.1C867.2,647.7,861.9,657.3,860.6,663.8z"/>
<path d="M528.2,850.4c-84.3-39.3-133.8-99.3-151.6-185c-2.8-13.5,0.4-18.2,14.9-17.5c26.2,1.2,52.5,0.4,78.7,0.3
	c6.9,0,12.6-0.2,12.8,9.8C484.9,723.3,500,785.8,528.2,850.4z"/>
</svg>
