<?xml version="1.0" encoding="utf-8"?>
<!-- Generator: Adobe Illustrator 24.0.0, SVG Export Plug-In . SVG Version: 6.00 Build 0)  -->
<svg version="1.1" id="Layer_1" xmlns="http://www.w3.org/2000/svg" xmlns:xlink="http://www.w3.org/1999/xlink" x="0px" y="0px"
	 viewBox="0 0 1095.3 1170.2" style="enable-background:new 0 0 1095.3 1170.2;" xml:space="preserve">
<style type="text/css">
	.st0{fill:#FEFEFE;}
	.st1{fill:#010101;}
</style>
<path d="M205.9,83.8c-49.5-0.6-90.2,38.5-91.5,88c-1.3,50.7,38.4,91.9,89.3,92.7c50.1,0.8,91.4-40,91.7-90.6
	C295.7,125.2,255.2,84.4,205.9,83.8z M256.2,175.4c-1,27.8-24.4,50.7-51.6,50.6c-28.5-0.1-51.4-24.1-50.9-53.3v0
	c0.5-28.4,22.7-50,51.3-49.8C234.2,123,257.3,146.7,256.2,175.4z M205.9,83.8c-49.5-0.6-90.2,38.5-91.5,88
	c-1.3,50.7,38.4,91.9,89.3,92.7c50.1,0.8,91.4-40,91.7-90.6C295.7,125.2,255.2,84.4,205.9,83.8z M256.2,175.4
	c-1,27.8-24.4,50.7-51.6,50.6c-28.5-0.1-51.4-24.1-50.9-53.3v0c0.5-28.4,22.7-50,51.3-49.8C234.2,123,257.3,146.7,256.2,175.4z
	 M205.9,83.8c-49.5-0.6-90.2,38.5-91.5,88c-1.3,50.7,38.4,91.9,89.3,92.7c50.1,0.8,91.4-40,91.7-90.6
	C295.7,125.2,255.2,84.4,205.9,83.8z M256.2,175.4c-1,27.8-24.4,50.7-51.6,50.6c-28.5-0.1-51.4-24.1-50.9-53.3v0
	c0.5-28.4,22.7-50,51.3-49.8C234.2,123,257.3,146.7,256.2,175.4z M793.4,519.6c-49.3-0.3-90.2,39.5-91,88.5
	c-0.8,49.1,41.4,92.7,90.1,93c48.3,0.4,91.2-43,91-92.1C883.4,560.3,842.6,519.9,793.4,519.6z M793.4,661.7L793.4,661.7
	c-28.5,0.3-50.9-21.3-51.4-49.6c-0.6-30,21.2-52.8,50.4-53.1c28.9-0.2,52,22.9,52,52.1C844.4,638.6,821.4,661.4,793.4,661.7z
	 M205.9,83.8c-49.5-0.6-90.2,38.5-91.5,88c-1.3,50.7,38.4,91.9,89.3,92.7c50.1,0.8,91.4-40,91.7-90.6
	C295.7,125.2,255.2,84.4,205.9,83.8z M256.2,175.4c-1,27.8-24.4,50.7-51.6,50.6c-28.5-0.1-51.4-24.1-50.9-53.3v0
	c0.5-28.4,22.7-50,51.3-49.8C234.2,123,257.3,146.7,256.2,175.4z M793.4,519.6c-49.3-0.3-90.2,39.5-91,88.5
	c-0.8,49.1,41.4,92.7,90.1,93c48.3,0.4,91.2-43,91-92.1C883.4,560.3,842.6,519.9,793.4,519.6z M793.4,661.7L793.4,661.7
	c-28.5,0.3-50.9-21.3-51.4-49.6c-0.6-30,21.2-52.8,50.4-53.1c28.9-0.2,52,22.9,52,52.1C844.4,638.6,821.4,661.4,793.4,661.7z
	 M1087.5,525.3C1032.9,203.7,693.6-6,383.1,96.5c-16.2,5.4-22.9,4.1-32.5-11.6C311.8,21.5,253.8-9,179.9,2.3
	C110.2,13,61.7,54.1,40.5,122.4C19.4,190.7,39,253.9,71.2,313.9c7.6,14.2,7.7,23.8-0.2,37.9C-0.2,480-17.8,616.1,18,757.9
	c61.8,244.5,276.7,410.3,531.7,412.3v0c51.2,0,101.6-6.2,150.6-21C967.3,1068.2,1133.9,798.7,1087.5,525.3z M72.1,200.8
	c-9.3-60.8,12-110.3,64.5-142.4c47.5-29.1,97.3-28.1,143.2,4.6c39.4,28,57.7,68.5,59.1,114.5c-0.5,39.9-12.4,74.5-29.1,107.5
	c-24.1,48-57.5,89.2-94.8,127.5c-6.2,6.3-10.8,12.2-20.2,2.3C136.7,353.2,85.5,287.6,72.1,200.8z M105.4,368.2
	c21.9,28.2,43.7,53.9,67.4,77.7c23,23.2,41.3,23.5,64.4,0.3c64.2-64.6,117.6-135.9,137.8-230.9c23.8,20.9,49.2,35.8,68.8,58
	c12.6,14.3,15.9,32.4,7,48.3c-38.8,69-37.2,145.9-46.3,220.8c-3.6,29.6-10.4,58.6-24.5,85.2c-14.7,27.7-32.7,34.2-56.8,15.4
	c-74.3-57.9-150.2-44.6-227.5-9.5c-17.7,8-34.6,17.5-54.6,27.6C32.7,556.4,54.2,460.3,105.4,368.2z M503.5,1129
	c-134.8-14.1-248.5-71.4-338.2-173.9C105.8,887.1,67.6,808.5,49.4,720c-1.5-7.3-3.5-13.1,4.2-18.4c52-35.6,107.6-60.9,172.3-59
	c24.3,0.7,44.7,11.1,64.1,25.9c54.8,41.8,101.1,29.3,129.3-34c23.1-51.8,29-107.2,31.2-162.8c1.5-38.3,8.7-74.4,25.8-108.6
	c3.1-6.3,5.8-12.8,8.2-19.4c17.4-47.2,8.9-80.5-29.2-113.4c-20.7-17.9-41.6-35.8-62.8-53.1c-10.1-8.3-19.4-17-16.9-31
	c2.5-13.7,16.3-11.9,25.7-14.9C600.6,66.3,838,146.5,959,321.6l0,0c-51.6,4.3-100,12.8-144.7,35.6c-35.1,17.9-63.5,42.8-80.2,79.2
	c-3.1,6.7-5.8,12.7-12.9,15.7c-86.4,37.3-122.6,133.4-89.1,234.8c5,15.3,4,25.4-5.9,37.7c-29.1,36-53.4,75.1-74.3,116.5
	c-20.2,40.1-17.7,78.5,5.3,116c35.4,58,90.3,94.6,145.4,130.9c5.1,3.4,10.5,6.5,18.2,11.3C648.9,1126.9,576.9,1136.7,503.5,1129z
	 M848.5,488.4c53.1,25.8,76.1,71.6,78.8,124.9h0c-1.4,40-12.4,73.2-28,105c-24.1,49-57.7,91-95.7,129.7c-6.1,6.2-11.3,12.7-20.6,2.8
	c-57.1-60.3-107.4-124.5-122-209.5c-9.8-56.7,7-104.6,52.7-139.3C754.7,470.9,801.5,465.5,848.5,488.4z M1052.4,681.9
	C1028.4,856.5,938,986.5,784,1072.5c-11.8,6.6-20.3,6.6-31.8-0.5c-52.8-32.4-105.8-64.6-145.9-113.1c-31-37.5-39.3-69.7-11.6-115.8
	c19-31.5,37.4-63.2,62.8-94.5c28.7,48.2,60,91.9,99.3,129.5c28.7,27.4,44.9,27.5,73.2-1.2c61.9-62.7,113-131.9,131.7-220.5
	c19.5-92.6-29.7-182-116.7-212.3c-20-7-41.3-5.8-64.3-9.2c19.9-26.7,45.1-41.7,73-52.5c38.4-14.8,78.7-19.9,119.6-21.4
	c11.8-0.5,16.4,5.9,21,14.7C1044.8,471.8,1067.2,573.8,1052.4,681.9z M792.5,701.2c48.3,0.4,91.2-43,91-92.1
	c-0.1-48.7-40.9-89.2-90.1-89.5c-49.3-0.3-90.2,39.5-91,88.5C701.6,657.2,743.8,700.8,792.5,701.2z M792.4,559
	c28.9-0.2,52,22.9,52,52.1c0,27.5-23,50.3-51,50.6l0,0c-28.5,0.3-50.9-21.4-51.4-49.6C741.4,582.1,763.1,559.3,792.4,559z
	 M295.4,173.9c0.3-48.8-40.2-89.6-89.5-90.2c-49.5-0.6-90.2,38.5-91.5,88c-1.3,50.7,38.4,91.9,89.3,92.7
	C253.8,265.3,295.1,224.5,295.4,173.9z M153.7,172.7L153.7,172.7c0.5-28.4,22.7-50,51.3-49.8c29.2,0.1,52.3,23.8,51.2,52.5
	c-1,27.8-24.4,50.7-51.6,50.6C176.1,225.9,153.2,201.9,153.7,172.7z M205.9,83.8c-49.5-0.6-90.2,38.5-91.5,88
	c-1.3,50.7,38.4,91.9,89.3,92.7c50.1,0.8,91.4-40,91.7-90.6C295.7,125.2,255.2,84.4,205.9,83.8z M256.2,175.4
	c-1,27.8-24.4,50.7-51.6,50.6c-28.5-0.1-51.4-24.1-50.9-53.3v0c0.5-28.4,22.7-50,51.3-49.8C234.2,123,257.3,146.7,256.2,175.4z
	 M205.9,83.8c-49.5-0.6-90.2,38.5-91.5,88c-1.3,50.7,38.4,91.9,89.3,92.7c50.1,0.8,91.4-40,91.7-90.6
	C295.7,125.2,255.2,84.4,205.9,83.8z M256.2,175.4c-1,27.8-24.4,50.7-51.6,50.6c-28.5-0.1-51.4-24.1-50.9-53.3v0
	c0.5-28.4,22.7-50,51.3-49.8C234.2,123,257.3,146.7,256.2,175.4z M205.9,83.8c-49.5-0.6-90.2,38.5-91.5,88
	c-1.3,50.7,38.4,91.9,89.3,92.7c50.1,0.8,91.4-40,91.7-90.6C295.7,125.2,255.2,84.4,205.9,83.8z M256.2,175.4
	c-1,27.8-24.4,50.7-51.6,50.6c-28.5-0.1-51.4-24.1-50.9-53.3v0c0.5-28.4,22.7-50,51.3-49.8C234.2,123,257.3,146.7,256.2,175.4z
	 M205.9,83.8c-49.5-0.6-90.2,38.5-91.5,88c-1.3,50.7,38.4,91.9,89.3,92.7c50.1,0.8,91.4-40,91.7-90.6
	C295.7,125.2,255.2,84.4,205.9,83.8z M256.2,175.4c-1,27.8-24.4,50.7-51.6,50.6c-28.5-0.1-51.4-24.1-50.9-53.3v0
	c0.5-28.4,22.7-50,51.3-49.8C234.2,123,257.3,146.7,256.2,175.4z"/>
<path class="st0" d="M205.9,83.8c-49.5-0.6-90.2,38.5-91.5,88c-1.3,50.7,38.4,91.9,89.3,92.7c50.1,0.8,91.4-40,91.7-90.6
	C295.7,125.2,255.2,84.4,205.9,83.8z M256.2,175.4c-1,27.8-24.4,50.7-51.6,50.6c-28.5-0.1-51.4-24.1-50.9-53.3v0
	c0.5-28.4,22.7-50,51.3-49.8C234.2,123,257.3,146.7,256.2,175.4z"/>
<path class="st0" d="M793.4,519.6c-49.3-0.3-90.2,39.5-91,88.5c-0.8,49.1,41.4,92.7,90.1,93c48.3,0.4,91.2-43,91-92.1
	C883.4,560.3,842.6,519.9,793.4,519.6z M793.4,661.7L793.4,661.7c-28.5,0.3-50.9-21.3-51.4-49.6c-0.6-30,21.2-52.8,50.4-53.1
	c28.9-0.2,52,22.9,52,52.1C844.4,638.6,821.4,661.4,793.4,661.7z"/>
<path class="st1" d="M205.9,83.8c-49.5-0.6-90.2,38.5-91.5,88c-1.3,50.7,38.4,91.9,89.3,92.7c50.1,0.8,91.4-40,91.7-90.6
	C295.7,125.2,255.2,84.4,205.9,83.8z M256.2,175.4c-1,27.8-24.4,50.7-51.6,50.6c-28.5-0.1-51.4-24.1-50.9-53.3v0
	c0.5-28.4,22.7-50,51.3-49.8C234.2,123,257.3,146.7,256.2,175.4z"/>
<path class="st1" d="M793.4,519.6c-49.3-0.3-90.2,39.5-91,88.5c-0.8,49.1,41.4,92.7,90.1,93c48.3,0.4,91.2-43,91-92.1
	C883.4,560.3,842.6,519.9,793.4,519.6z M793.4,661.7L793.4,661.7c-28.5,0.3-50.9-21.3-51.4-49.6c-0.6-30,21.2-52.8,50.4-53.1
	c28.9-0.2,52,22.9,52,52.1C844.4,638.6,821.4,661.4,793.4,661.7z"/>
</svg>
