<?xml version="1.0" encoding="utf-8"?>
<!-- Generator: Adobe Illustrator 24.0.0, SVG Export Plug-In . SVG Version: 6.00 Build 0)  -->
<svg version="1.1" id="Layer_1" xmlns="http://www.w3.org/2000/svg" xmlns:xlink="http://www.w3.org/1999/xlink" x="0px" y="0px"
	 viewBox="0 0 978.6 980" style="enable-background:new 0 0 978.6 980;" xml:space="preserve">
<style type="text/css">
	.st0{fill:#FEFEFE;}
</style>
<path d="M490.3,0C220.3-1.6-8.7,228.9,0.3,489.6C-6.3,760.2,225.8,981.1,489.7,980c277.8-1.2,488.5-234.4,488.9-488.5
	C979.1,226.5,758.1,1.6,490.3,0z M511.3,952.8C260.3,967.5,41.1,771.6,25.9,514C10.5,253.1,218.1,34,475.2,27.4
	c240.3-7.8,462.1,176.7,476.1,438.8C964.8,718.2,772.7,937.5,511.3,952.8z M673.7,316.1c-123.3-0.5-246.6-0.5-369.8,0
	c-29.9,0.1-53.2,19.9-60.5,48.9c-2.4,9.4-3.4,19.2-4.7,28.9c-9.7,71-7.6,141.9,2.4,212.5c5.4,37.8,30.5,57.9,68.7,57.9
	c59.3,0,118.7,0,178.1,0v0c60.7,0,121.3,0.1,182,0c35,0,60.2-19.6,65.7-54.3c12.7-79.1,12.7-158.5,1-237.7
	C731.6,339.3,705.9,316.3,673.7,316.1z M436.2,558.7V421.6c42.2,22.6,83.7,44.8,128,68.5C520.1,513.7,479.1,535.7,436.2,558.7z"/>
<path class="st0" d="M736.5,372.3c-4.9-33.1-30.6-56.1-62.8-56.2c-123.3-0.5-246.6-0.5-369.8,0c-29.9,0.1-53.2,19.9-60.5,48.9
	c-2.4,9.4-3.4,19.2-4.7,28.9c-9.7,71-7.6,141.9,2.4,212.5c5.4,37.8,30.5,57.9,68.7,57.9c59.3,0,118.7,0,178.1,0v0
	c60.7,0,121.3,0.1,182,0c35,0,60.2-19.6,65.7-54.3C748.2,531,748.2,451.5,736.5,372.3z M436.2,558.7V421.6
	c42.2,22.6,83.7,44.8,128,68.5C520.1,513.7,479.1,535.7,436.2,558.7z"/>
<path d="M736.5,372.3c-4.9-33.1-30.6-56.1-62.8-56.2c-123.3-0.5-246.6-0.5-369.8,0c-29.9,0.1-53.2,19.9-60.5,48.9
	c-2.4,9.4-3.4,19.2-4.7,28.9c-9.7,71-7.6,141.9,2.4,212.5c5.4,37.8,30.5,57.9,68.7,57.9c59.3,0,118.7,0,178.1,0v0
	c60.7,0,121.3,0.1,182,0c35,0,60.2-19.6,65.7-54.3C748.2,531,748.2,451.5,736.5,372.3z M436.2,558.7V421.6
	c42.2,22.6,83.7,44.8,128,68.5C520.1,513.7,479.1,535.7,436.2,558.7z"/>
<path class="st0" d="M564.3,490.1L564.3,490.1L564.3,490.1C564.3,490.1,564.3,490.1,564.3,490.1z"/>
</svg>
