<?xml version="1.0" encoding="utf-8"?>
<!-- Generator: Adobe Illustrator 24.0.0, SVG Export Plug-In . SVG Version: 6.00 Build 0)  -->
<svg version="1.1" id="Layer_1" xmlns="http://www.w3.org/2000/svg" xmlns:xlink="http://www.w3.org/1999/xlink" x="0px" y="0px"
	 viewBox="0 0 955.3 679.2" style="enable-background:new 0 0 955.3 679.2;" xml:space="preserve">
<style type="text/css">
	.st0{fill:#FEFEFE;}
</style>
<path d="M619.1,282.2c-65.3-38.3-130.8-76.2-196.6-113.6c-37.2-21.1-73.5,0.5-73.8,43.4c-0.3,37.6-0.1,75.3-0.1,112.9
	c0,38.9-0.4,77.8,0.1,116.7c0.5,41.2,37.4,62.8,73.4,42.4c65.8-37.3,131.4-75.1,196.7-113.5C657.7,347.7,657.8,304.9,619.1,282.2z
	 M595.9,339.3c-62.2,36.1-124.4,72-186.7,107.9c-18.2,10.5-22.3,8.2-22.4-12.3c-0.2-36.4,0-72.7,0-109.1c0-36.4-0.2-72.7,0.1-109.1
	c0.1-19.3,4.5-21.6,21.4-11.9c62.3,35.9,124.5,71.8,186.7,107.9C614.3,323.9,614.5,328.5,595.9,339.3z"/>
<path d="M954,153.4c-1.1-79.3-78.4-153-157.8-153.1c-212.4-0.4-424.8-0.4-637.2,0C77.9,0.5,1.4,75.8,0.7,157
	c-1,121.8-1,243.6,0.1,365.5c0.7,80.4,73.7,154.8,154.2,156c107.1,1.6,214.3,0.4,321.4,0.4v-0.1c109.1,0,218.1,1.3,327.2-0.5
	c75.5-1.2,149.7-76.2,150.6-151.7C955.6,402.2,955.7,277.8,954,153.4z M918.5,501.3c-0.5,85.4-58.2,142.1-143.6,142.3
	c-99.5,0.2-199,0-298.5,0v0c-98.2,0-196.4,0.1-294.6,0c-87.4-0.1-144.6-57.1-144.8-144.8c-0.2-106.5-0.1-213,0-319.5
	c0.1-83.5,53.8-141.5,136.8-142c202.2-1.3,404.4-1.3,606.5,0c84.2,0.5,137.7,56.4,138.2,140.7C919.2,285.7,919,393.5,918.5,501.3z"
	/>
<path class="st0" d="M619.1,282.2c-65.3-38.3-130.8-76.2-196.6-113.6c-37.2-21.1-73.5,0.5-73.8,43.4c-0.3,37.6-0.1,75.3-0.1,112.9
	c0,38.9-0.4,77.8,0.1,116.7c0.5,41.2,37.4,62.8,73.4,42.4c65.8-37.3,131.4-75.1,196.7-113.5C657.7,347.7,657.8,304.9,619.1,282.2z
	 M595.9,339.3c-62.2,36.1-124.4,72-186.7,107.9c-18.2,10.5-22.3,8.2-22.4-12.3c-0.2-36.4,0-72.7,0-109.1c0-36.4-0.2-72.7,0.1-109.1
	c0.1-19.3,4.5-21.6,21.4-11.9c62.3,35.9,124.5,71.8,186.7,107.9C614.3,323.9,614.5,328.5,595.9,339.3z"/>
<path d="M619.1,282.2c-65.3-38.3-130.8-76.2-196.6-113.6c-37.2-21.1-73.5,0.5-73.8,43.4c-0.3,37.6-0.1,75.3-0.1,112.9
	c0,38.9-0.4,77.8,0.1,116.7c0.5,41.2,37.4,62.8,73.4,42.4c65.8-37.3,131.4-75.1,196.7-113.5C657.7,347.7,657.8,304.9,619.1,282.2z
	 M595.9,339.3c-62.2,36.1-124.4,72-186.7,107.9c-18.2,10.5-22.3,8.2-22.4-12.3c-0.2-36.4,0-72.7,0-109.1c0-36.4-0.2-72.7,0.1-109.1
	c0.1-19.3,4.5-21.6,21.4-11.9c62.3,35.9,124.5,71.8,186.7,107.9C614.3,323.9,614.5,328.5,595.9,339.3z"/>
</svg>
