<?xml version="1.0" encoding="UTF-8"?>
<svg id="Layer_2" data-name="Layer 2" xmlns="http://www.w3.org/2000/svg" viewBox="0 0 98.89 98.89">
  <g id="Objects">
    <g>
      <path d="M49.45,0C22.14,0,0,22.14,0,49.45s22.14,49.45,49.45,49.45,49.45-22.14,49.45-49.45S76.75,0,49.45,0ZM49.45,94.4c-24.83,0-44.96-20.13-44.96-44.96S24.62,4.49,49.45,4.49s44.96,20.13,44.96,44.96-20.13,44.96-44.96,44.96Z" style="fill: #000; stroke-width: 0px;"/>
      <path d="M22.62,31.22c5.25.01,10.51-.04,15.76.06,1.7.03,3.46.24,5.09.72,3.33.99,5.63,3.18,6.14,6.72.51,3.53-.69,6.48-3.77,8.51-.09.06-.15.16-.27.3,3.4,1.66,5.1,4.45,5.26,8.12.22,5.14-3.21,9.21-8.72,10.35-1.56.32-3.18.45-4.78.47-4.9.06-9.8.03-14.7.04V31.22ZM29.74,45.33c2.2,0,4.31.02,6.41,0,1.09-.01,2.2.02,3.27-.17,2.03-.37,3.36-1.77,3.38-3.36.01-1.57-1.32-3.1-3.43-3.24-3.18-.21-6.38-.05-9.63-.05v6.84ZM29.73,59.43c3.03,0,5.96.02,8.89-.02.57,0,1.15-.21,1.7-.41,1.53-.56,2.49-1.69,2.46-2.97-.05-1.55-.98-2.5-2.32-3.1-.39-.17-.82-.35-1.23-.35-3.15-.03-6.3-.02-9.49-.02v6.86ZM79.08,54.74h-18.67c-.62,3.43,2.68,6.85,6.4,6.45,1.3-.14,2.52-.9,3.78-1.37.31-.12.62-.35.93-.36,2.23-.03,4.47-.02,6.95-.02-.43.79-.72,1.49-1.15,2.1-2.39,3.31-5.81,4.7-9.72,4.89-1.81.09-3.71-.08-5.47-.52-5.04-1.26-8.16-5.16-8.66-10.62-.31-3.32-.06-6.59,1.47-9.63,2.32-4.6,7.4-7.09,12.95-6.36,6.46.85,9.93,4.26,11.01,10.78.02.14.12.28.18.41v4.23ZM71.98,50c-.34-3.61-2.55-5.34-6.43-5.13-2.93.16-5.07,2.34-5,5.13h11.43ZM74.31,31.3h-16.31v4.57h16.31v-4.57Z" style="fill: #000; stroke-width: 0px;"/>
    </g>
  </g>
</svg>