<?xml version="1.0" encoding="UTF-8"?>
<svg id="Layer_2" data-name="Layer 2" xmlns="http://www.w3.org/2000/svg" viewBox="0 0 98.89 98.89">
  <g id="Objects">
    <g>
      <path d="M15.43,27.39c6.48.01,12.96-.04,19.44.08,2.1.04,4.27.29,6.28.89,4.1,1.22,6.95,3.93,7.57,8.29.63,4.36-.85,8-4.65,10.5-.11.07-.19.2-.34.37,4.2,2.05,6.29,5.49,6.49,10.02.28,6.34-3.96,11.36-10.76,12.77-1.93.4-3.93.55-5.9.58-6.04.08-12.09.04-18.14.05V27.39ZM24.21,44.8c2.71,0,5.31.02,7.91,0,1.35-.02,2.72.02,4.03-.21,2.51-.45,4.15-2.19,4.17-4.15.02-1.94-1.63-3.83-4.24-4-3.92-.26-7.87-.07-11.88-.07v8.44ZM24.19,62.19c3.74,0,7.36.03,10.97-.02.7-.01,1.42-.26,2.09-.51,1.89-.69,3.08-2.09,3.03-3.66-.06-1.91-1.21-3.08-2.87-3.82-.48-.21-1.01-.43-1.52-.43-3.88-.04-7.77-.02-11.71-.02v8.46ZM85.09,56.41h-23.04c-.77,4.23,3.31,8.45,7.9,7.96,1.6-.17,3.11-1.11,4.67-1.69.39-.15.77-.43,1.15-.44,2.75-.04,5.51-.02,8.58-.02-.53.97-.88,1.84-1.42,2.59-2.94,4.08-7.17,5.8-12,6.03-2.24.11-4.57-.1-6.74-.64-6.22-1.55-10.07-6.36-10.69-13.1-.38-4.09-.08-8.13,1.81-11.88,2.86-5.68,9.13-8.75,15.97-7.85,7.97,1.05,12.25,5.25,13.58,13.31.03.18.15.34.23.51v5.22ZM76.33,50.56c-.42-4.46-3.15-6.59-7.94-6.33-3.61.2-6.26,2.89-6.17,6.33h14.11ZM79.2,27.48h-20.12v5.64h20.12v-5.64Z" style="fill: #1966d8; stroke-width: 0px;"/>
      <path d="M88.52,0H10.37C4.67,0,0,4.67,0,10.37v78.14c0,5.71,4.67,10.37,10.37,10.37h78.14c5.71,0,10.37-4.67,10.37-10.37V10.37c0-5.71-4.67-10.37-10.37-10.37ZM92.37,87c0,2.95-2.42,5.37-5.37,5.37H11.89c-2.95,0-5.37-2.42-5.37-5.37V11.89c0-2.95,2.42-5.37,5.37-5.37h75.11c2.95,0,5.37,2.42,5.37,5.37v75.11Z" style="fill: #1966d8; stroke-width: 0px;"/>
    </g>
  </g>
</svg>