<?xml version="1.0" encoding="UTF-8"?>
<svg id="Layer_2" data-name="Layer 2" xmlns="http://www.w3.org/2000/svg" viewBox="0 0 98.89 98.89">
  <g id="Objects">
    <path d="M40.33,40.7c-.02,1.83-1.55,3.46-3.9,3.88-1.23.22-2.52.19-3.78.2-2.43.03-4.87,0-7.4,0v-7.9c3.75,0,7.45-.18,11.12.06,2.44.16,3.98,1.93,3.97,3.74ZM37.62,53.57c-.45-.2-.95-.4-1.42-.4-3.63-.03-7.27-.02-10.95-.02v7.92c3.5,0,6.88.03,10.26-.02.66,0,1.33-.25,1.96-.47,1.77-.64,2.88-1.95,2.84-3.42-.05-1.79-1.14-2.89-2.68-3.58ZM66.6,44.25c-3.38.18-5.86,2.71-5.77,5.93h13.2c-.39-4.17-2.95-6.17-7.43-5.93ZM98.89,49.45c0,27.31-22.14,49.45-49.45,49.45S0,76.75,0,49.45,22.14,0,49.45,0s49.45,22.14,49.45,49.45ZM57.89,33.86h18.83v-5.28h-18.83v5.28ZM49.61,56.71c-.19-4.24-2.15-7.46-6.08-9.38.14-.16.21-.28.31-.35,3.56-2.34,4.94-5.75,4.35-9.83-.59-4.08-3.25-6.62-7.09-7.76-1.88-.56-3.91-.8-5.88-.83-6.06-.11-12.13-.06-18.19-.07v40.75c5.66,0,11.32.03,16.97-.04,1.84-.02,3.72-.17,5.52-.54,6.36-1.32,10.33-6.02,10.07-11.95ZM82.24,50.76c-.07-.16-.19-.31-.21-.48-1.24-7.54-5.25-11.47-12.71-12.45-6.4-.84-12.27,2.03-14.95,7.34-1.77,3.52-2.05,7.29-1.7,11.12.58,6.3,4.19,10.81,10.01,12.26,2.03.51,4.22.7,6.31.6,4.52-.22,8.47-1.83,11.23-5.65.5-.69.83-1.51,1.33-2.42-2.87,0-5.45-.02-8.03.02-.36,0-.72.27-1.08.41-1.45.55-2.87,1.42-4.37,1.59-4.29.46-8.11-3.49-7.39-7.45h21.56v-4.89Z" style="fill: #000; stroke-width: 0px;"/>
  </g>
</svg>