<?xml version="1.0" encoding="UTF-8"?>
<svg id="Layer_2" data-name="Layer 2" xmlns="http://www.w3.org/2000/svg" viewBox="0 0 54.49 54.49">
  <g id="Design">
    <g>
      <path d="M27.25,54.49C12.22,54.49,0,42.27,0,27.25S12.22,0,27.25,0s27.25,12.22,27.25,27.25-12.22,27.25-27.25,27.25Z" style="fill: #333033; stroke-width: 0px;"/>
      <path d="M37.59,22.76c-7.45,0-7.46,7.42-7.46,7.46,0,0-.51,7.43,7.46,7.43,0,0,6,.34,6.6-4.38.05-.42-.27-.79-.69-.79h-2.08c-.3,0-.57.19-.66.48-.18.62-.82,1.61-3.05,1.61,0,0-2.89.19-3.35-2.58-.07-.42.27-.79.69-.79h8.66c.37,0,.68-.29.69-.67.07-1.99-.3-7.76-6.8-7.76ZM34.77,28.59c-.28,0-.47-.27-.39-.53.28-.86,1.09-2.46,3.28-2.46s2.79,1.69,2.92,2.53c.04.24-.16.46-.4.46h-5.41ZM25.83,26.86c-.24-.08-.28-.41-.05-.53.83-.42,1.81-1.34,1.81-3.34,0-3.47-2.42-5.17-5.49-5.17h-9.59c-.28,0-.51.23-.51.51v18.4c0,.28.23.51.51.51h9.59s6.17.19,6.17-5.74c0,0,.21-3.77-2.44-4.64ZM16.45,21.64c0-.2.17-.37.37-.37h5.28s1.37,0,1.37,2.02-.8,2.32-1.72,2.32h-4.93c-.2,0-.37-.16-.37-.37v-3.6ZM21.81,33.79h-5c-.2,0-.37-.16-.37-.37v-4.46c0-.2.17-.37.37-.37h5.28s2.05-.02,2.04,2.67c0,2.27-1.52,2.5-2.32,2.52ZM33.41,18.6v1.66c0,.2.16.37.36.37h7.28c.2,0,.37-.16.37-.37v-1.66c0-.2-.16-.36-.37-.36h-7.28c-.2,0-.36.16-.36.36Z" style="fill: #fff; stroke-width: 0px;"/>
    </g>
  </g>
</svg>