<?xml version="1.0" encoding="UTF-8"?>
<svg id="Layer_2" data-name="Layer 2" xmlns="http://www.w3.org/2000/svg" viewBox="0 0 581.42 581.42">
  <g id="Layer_1-2" data-name="Layer 1">
    <path d="M290.71,0c160.55,0,290.71,130.15,290.71,290.71s-130.15,290.71-290.71,290.71S0,451.26,0,290.71,130.15,0,290.71,0" style="fill: #010101; stroke-width: 0px;"/>
    <g>
      <path d="M291.73,335.76c0,7.86-1.57,14.76-4.71,20.69-3.15,5.94-7.47,10.91-12.97,14.93-5.5,4.02-11.88,7.07-19.12,9.17-7.25,2.1-14.98,3.14-23.18,3.14h-89.84v-185.95h99.52c6.46,0,12.31,1.4,17.55,4.19,5.24,2.8,9.69,6.42,13.36,10.87,3.67,4.45,6.5,9.52,8.51,15.19,2.01,5.68,3.01,11.39,3.01,17.15,0,9.08-2.27,17.59-6.81,25.53-4.54,7.95-11.18,13.84-19.91,17.68,10.65,3.14,19.07,8.78,25.28,16.89,6.19,8.12,9.3,18.29,9.3,30.51ZM178.06,228.64v46.88h48.19c6.11,0,11.3-2.1,15.58-6.29,4.27-4.19,6.42-9.95,6.42-17.28s-1.96-12.83-5.89-17.02c-3.93-4.19-8.77-6.28-14.53-6.28h-49.76ZM255.32,328.95c0-3.32-.57-6.5-1.7-9.56-1.13-3.05-2.67-5.72-4.58-7.99-1.92-2.27-4.19-4.06-6.81-5.37-2.62-1.31-5.5-1.96-8.64-1.96h-55.52v48.97h53.69c3.32,0,6.42-.61,9.3-1.83,2.88-1.22,5.37-2.92,7.47-5.11,2.09-2.18,3.75-4.76,4.98-7.73,1.22-2.97,1.83-6.11,1.83-9.43Z" style="fill: #fff; stroke-width: 0px;"/>
      <path d="M370.01,383.68c-10.66,0-20.3-1.82-28.93-5.46-17.09-7.28-29.15-19.5-36.16-36.67-3.3-8.29-4.95-17-4.95-26.14s1.61-18.4,4.82-26.77c6.89-17.39,18.94-29.78,36.16-37.18,8.71-3.72,18.48-5.58,29.31-5.58s20.51,1.86,29.06,5.58c28.09,12.24,41.31,39.46,40.1,69.03-.09,2.03-.3,3.72-.63,5.08h-102.78c.51,5.25,1.78,9.9,3.81,13.96,2.03,4.06,4.65,7.53,7.87,10.41,3.21,2.88,6.85,5.08,10.91,6.6,4.06,1.52,8.28,2.29,12.69,2.29,6.76,0,13.15-1.65,19.16-4.95,6.01-3.3,10.11-7.65,12.31-13.07l29.18,8.12c-4.91,10.15-12.73,18.49-23.47,25-10.74,6.51-23.56,9.77-38.45,9.77ZM404.53,303.5c-.85-9.98-4.53-17.98-11.04-23.98-6.51-6-14.42-9.01-23.73-9.01-4.57,0-8.84.8-12.82,2.41-3.98,1.61-7.49,3.85-10.53,6.72-3.04,2.88-5.54,6.34-7.49,10.41-1.95,4.06-3.09,8.55-3.42,13.45h69.03Z" style="fill: #fff; stroke-width: 0px;"/>
      <path d="M325.27,206.56h88.98v22.08h-88.98v-22.08Z" style="fill: #fff; stroke-width: 0px;"/>
    </g>
  </g>
</svg>