<?xml version="1.0" encoding="UTF-8"?>
<svg id="Layer_2" data-name="Layer 2" xmlns="http://www.w3.org/2000/svg" xmlns:xlink="http://www.w3.org/1999/xlink" viewBox="0 0 99.43 62.15">
  <defs>
    <linearGradient id="Degradado_sin_nombre_17" data-name="Degradado sin nombre 17" x1="0" y1="31.08" x2="99.43" y2="31.08" gradientUnits="userSpaceOnUse">
      <stop offset=".25" stop-color="#327ef9"/>
      <stop offset="1" stop-color="#0157ff"/>
    </linearGradient>
  </defs>
  <g id="Objects">
    <path d="M0,0c9.25.02,18.5-.06,27.75.11,3,.06,6.1.42,8.96,1.27,5.86,1.74,9.91,5.61,10.81,11.83.9,6.22-1.21,11.42-6.64,14.99-.16.1-.27.29-.48.53,5.99,2.93,8.98,7.84,9.27,14.31.4,9.05-5.66,16.21-15.36,18.22-2.75.57-5.61.79-8.42.82-8.63.11-17.26.06-25.89.07V0ZM12.52,24.86c3.87,0,7.58.03,11.29-.01,1.92-.02,3.88.04,5.76-.3,3.58-.65,5.92-3.13,5.95-5.92.02-2.77-2.33-5.46-6.05-5.71-5.6-.37-11.23-.1-16.95-.1v12.04ZM12.51,49.68c5.34,0,10.5.04,15.66-.03,1-.01,2.03-.37,2.99-.72,2.69-.98,4.39-2.98,4.32-5.22-.08-2.73-1.73-4.4-4.09-5.45-.68-.3-1.44-.61-2.17-.62-5.54-.05-11.09-.03-16.71-.03v12.08ZM99.43,41.43h-32.89c-1.09,6.04,4.72,12.07,11.27,11.36,2.28-.25,4.45-1.58,6.66-2.42.55-.21,1.09-.62,1.64-.63,3.93-.05,7.87-.03,12.25-.03-.75,1.39-1.26,2.63-2.03,3.69-4.2,5.83-10.24,8.27-17.13,8.61-3.19.16-6.53-.14-9.63-.91-8.87-2.21-14.37-9.08-15.26-18.69-.54-5.84-.11-11.6,2.59-16.96,4.08-8.11,13.03-12.49,22.8-11.2,11.37,1.5,17.49,7.5,19.38,18.99.04.25.21.49.33.73v7.46ZM86.92,33.07c-.6-6.36-4.49-9.41-11.33-9.04-5.16.28-8.94,4.13-8.8,9.04h20.13ZM91.03.14h-28.72v8.05h28.72V.14Z" style="fill: url(#Degradado_sin_nombre_17); stroke-width: 0px;"/>
  </g>
</svg>