<?xml version="1.0" encoding="UTF-8"?>
<svg id="Layer_2" data-name="Layer 2" xmlns="http://www.w3.org/2000/svg" xmlns:xlink="http://www.w3.org/1999/xlink" viewBox="0 0 286.28 286.28">
  <defs>
    <linearGradient id="Degradado_sin_nombre_9" data-name="Degradado sin nombre 9" x1="41.93" y1="41.93" x2="244.36" y2="244.36" gradientUnits="userSpaceOnUse">
      <stop offset="0" stop-color="#426db5"/>
      <stop offset="1" stop-color="#342f8f"/>
    </linearGradient>
  </defs>
  <g id="Layer_1-2" data-name="Layer 1">
    <g>
      <circle cx="143.14" cy="143.14" r="143.14" style="fill: url(#Degradado_sin_nombre_9); stroke-width: 0px;"/>
      <g>
        <path d="M143.64,165.32c0,3.87-.77,7.27-2.32,10.19-1.55,2.92-3.68,5.37-6.39,7.35-2.71,1.98-5.85,3.48-9.41,4.51-3.57,1.03-7.37,1.55-11.41,1.55h-44.23v-91.56h49c3.18,0,6.06.69,8.64,2.06,2.58,1.38,4.77,3.16,6.58,5.35,1.81,2.19,3.2,4.69,4.19,7.48.99,2.79,1.48,5.61,1.48,8.45,0,4.47-1.12,8.66-3.35,12.57-2.24,3.91-5.5,6.81-9.8,8.7,5.24,1.55,9.39,4.32,12.45,8.32,3.05,4,4.58,9.01,4.58,15.02ZM87.68,112.58v23.08h23.73c3.01,0,5.57-1.03,7.67-3.1,2.1-2.06,3.16-4.9,3.16-8.51s-.97-6.32-2.9-8.38c-1.93-2.06-4.32-3.09-7.16-3.09h-24.5ZM125.72,161.97c0-1.63-.28-3.2-.84-4.71-.56-1.5-1.31-2.81-2.26-3.93-.95-1.12-2.06-2-3.35-2.64-1.29-.64-2.71-.97-4.26-.97h-27.34v24.11h26.44c1.63,0,3.16-.3,4.58-.9,1.42-.6,2.64-1.44,3.68-2.51,1.03-1.07,1.85-2.34,2.45-3.8.6-1.46.9-3.01.9-4.64Z" style="fill: #fff; stroke-width: 0px;"/>
        <path d="M182.19,188.92c-5.25,0-9.99-.9-14.24-2.69-8.42-3.58-14.35-9.6-17.81-18.06-1.62-4.08-2.44-8.37-2.44-12.87s.79-9.06,2.37-13.18c3.39-8.56,9.33-14.66,17.81-18.31,4.29-1.83,9.1-2.75,14.43-2.75s10.1.92,14.31,2.75c13.83,6.03,20.34,19.43,19.74,33.99-.04,1-.15,1.83-.31,2.5h-50.61c.25,2.58.87,4.87,1.87,6.87,1,2,2.29,3.71,3.87,5.12,1.58,1.42,3.37,2.5,5.37,3.25,2,.75,4.08,1.13,6.25,1.13,3.33,0,6.48-.81,9.43-2.44,2.96-1.62,4.98-3.77,6.06-6.43l14.37,4c-2.42,5-6.27,9.1-11.56,12.31-5.29,3.21-11.6,4.81-18.93,4.81ZM199.19,149.44c-.42-4.91-2.23-8.85-5.44-11.81-3.21-2.96-7.1-4.44-11.68-4.44-2.25,0-4.35.4-6.31,1.19-1.96.79-3.69,1.9-5.19,3.31-1.5,1.42-2.73,3.12-3.69,5.12-.96,2-1.52,4.21-1.69,6.62h33.99Z" style="fill: #fff; stroke-width: 0px;"/>
        <path d="M160.16,101.71h43.81v10.87h-43.81v-10.87Z" style="fill: #fff; stroke-width: 0px;"/>
      </g>
    </g>
  </g>
</svg>