<?xml version="1.0" encoding="UTF-8"?>
<svg id="Layer_2" data-name="Layer 2" xmlns="http://www.w3.org/2000/svg" xmlns:xlink="http://www.w3.org/1999/xlink" viewBox="0 0 98.89 98.89">
  <defs>
    <linearGradient id="Degradado_sin_nombre_17" data-name="Degradado sin nombre 17" x1="6.62" y1="24.72" x2="92.27" y2="74.17" gradientTransform="translate(49.45 -20.48) rotate(45)" gradientUnits="userSpaceOnUse">
      <stop offset=".25" stop-color="#327ef9"/>
      <stop offset="1" stop-color="#0157ff"/>
    </linearGradient>
  </defs>
  <g id="Objects">
    <g>
      <circle cx="49.45" cy="49.45" r="49.45" transform="translate(-20.48 49.45) rotate(-45)" style="fill: url(#Degradado_sin_nombre_17); stroke-width: 0px;"/>
      <path d="M17.04,28.49c6.07.01,12.13-.04,18.19.07,1.97.04,4,.28,5.88.83,3.84,1.14,6.5,3.68,7.09,7.76.59,4.08-.79,7.48-4.35,9.83-.1.07-.17.19-.31.35,3.93,1.92,5.89,5.14,6.08,9.38.26,5.93-3.71,10.63-10.07,11.95-1.8.37-3.68.51-5.52.54-5.66.07-11.32.04-16.97.04V28.49ZM25.25,44.79c2.54,0,4.97.02,7.4,0,1.26-.01,2.55.02,3.78-.2,2.35-.42,3.88-2.05,3.9-3.88.02-1.81-1.53-3.58-3.97-3.74-3.67-.24-7.37-.06-11.12-.06v7.9ZM25.24,61.06c3.5,0,6.88.03,10.26-.02.66,0,1.33-.25,1.96-.48,1.77-.64,2.88-1.95,2.84-3.42-.05-1.79-1.14-2.89-2.68-3.58-.45-.2-.95-.4-1.42-.4-3.63-.03-7.27-.02-10.95-.02v7.92ZM82.24,55.65h-21.56c-.72,3.96,3.1,7.91,7.39,7.45,1.5-.16,2.92-1.03,4.37-1.59.36-.14.72-.41,1.08-.41,2.58-.04,5.16-.02,8.03-.02-.49.91-.83,1.73-1.33,2.42-2.76,3.82-6.71,5.42-11.23,5.65-2.09.1-4.28-.09-6.31-.6-5.82-1.45-9.42-5.95-10.01-12.26-.35-3.83-.07-7.61,1.7-11.12,2.68-5.32,8.54-8.19,14.95-7.34,7.46.98,11.47,4.92,12.71,12.45.03.17.14.32.21.48v4.89ZM74.03,50.17c-.39-4.17-2.95-6.17-7.43-5.93-3.38.18-5.86,2.71-5.77,5.93h13.2ZM76.72,28.58h-18.83v5.28h18.83v-5.28Z" style="fill: #fff; stroke-width: 0px;"/>
    </g>
  </g>
</svg>