<?xml version="1.0" encoding="UTF-8"?>
<svg id="Layer_2" data-name="Layer 2" xmlns="http://www.w3.org/2000/svg" viewBox="0 0 34.02 20.82">
  <g id="Design">
    <path d="M26.87,5.19c-7.82,0-7.83,7.79-7.83,7.83,0,0-.54,7.8,7.83,7.8,0,0,6.29.36,6.92-4.6.06-.44-.28-.83-.72-.83h-2.19c-.32,0-.6.2-.69.51-.19.65-.86,1.69-3.2,1.69,0,0-3.03.2-3.52-2.71-.07-.44.28-.83.72-.83h9.09c.39,0,.72-.31.73-.7.07-2.09-.31-8.15-7.14-8.15ZM23.91,11.31c-.29,0-.49-.28-.41-.56.29-.9,1.14-2.58,3.44-2.58s2.93,1.77,3.06,2.65c.04.26-.16.48-.42.48h-5.68ZM14.52,9.49c-.26-.08-.29-.43-.05-.56.87-.44,1.9-1.41,1.9-3.51,0-3.64-2.54-5.43-5.76-5.43H.54C.24,0,0,.24,0,.54v19.32c0,.3.24.54.54.54h10.07s6.48.2,6.48-6.02c0,0,.22-3.95-2.56-4.87ZM4.67,4.01c0-.21.17-.39.39-.39h5.55s1.44,0,1.44,2.12-.84,2.43-1.81,2.43h-5.18c-.21,0-.39-.17-.39-.39v-3.78ZM10.31,16.77h-5.25c-.21,0-.39-.17-.39-.39v-4.68c0-.21.17-.39.39-.39h5.55s2.15-.02,2.14,2.81c0,2.38-1.6,2.63-2.44,2.65ZM22.48.81v1.74c0,.21.17.38.38.38h7.65c.21,0,.38-.17.38-.38V.81c0-.21-.17-.38-.38-.38h-7.65c-.21,0-.38.17-.38.38Z" style="fill: #4176fa; stroke-width: 0px;"/>
  </g>
</svg>