<?xml version="1.0" encoding="UTF-8"?>
<svg id="Layer_2" data-name="Layer 2" xmlns="http://www.w3.org/2000/svg" viewBox="0 0 98.89 98.89">
  <g id="Objects">
    <g>
      <path d="M33.26,33.52c-4.39-.29-8.82-.08-13.31-.08v9.45c3.04,0,5.95.02,8.87,0,1.51-.02,3.05.03,4.52-.24,2.81-.51,4.65-2.45,4.67-4.65.02-2.17-1.83-4.29-4.75-4.48Z" style="fill: #1c1c1c; stroke-width: 0px;"/>
      <path d="M69.46,42.25c-4.05.22-7.02,3.24-6.91,7.1h15.81c-.47-5-3.53-7.39-8.9-7.1Z" style="fill: #1c1c1c; stroke-width: 0px;"/>
      <path d="M34.75,53.41c-.54-.24-1.13-.48-1.7-.48-4.35-.04-8.7-.02-13.12-.02v9.48c4.2,0,8.24.03,12.29-.03.79-.01,1.59-.29,2.35-.57,2.12-.77,3.45-2.34,3.39-4.1-.06-2.14-1.36-3.45-3.21-4.28Z" style="fill: #1c1c1c; stroke-width: 0px;"/>
      <path d="M0,0v98.89h98.89V0H0ZM59.03,23.49h22.55v6.32h-22.55v-6.32ZM37.05,71.48c-2.16.45-4.4.62-6.61.64-6.77.09-13.55.04-20.32.05V23.39c7.26.01,14.53-.05,21.79.09,2.36.04,4.79.33,7.04,1,4.6,1.37,7.78,4.4,8.49,9.29.7,4.89-.95,8.96-5.21,11.77-.13.08-.21.23-.38.42,4.7,2.3,7.05,6.15,7.28,11.23.31,7.1-4.44,12.73-12.06,14.31ZM88.18,55.91h-25.82c-.86,4.74,3.71,9.47,8.85,8.92,1.79-.19,3.49-1.24,5.23-1.9.43-.16.86-.49,1.29-.49,3.09-.04,6.17-.02,9.61-.02-.59,1.09-.99,2.07-1.59,2.9-3.3,4.57-8.04,6.5-13.44,6.76-2.51.12-5.12-.11-7.56-.71-6.97-1.74-11.28-7.13-11.98-14.68-.42-4.59-.09-9.11,2.03-13.32,3.21-6.37,10.23-9.8,17.9-8.79,8.93,1.17,13.73,5.89,15.22,14.91.03.2.17.38.26.57v5.85Z" style="fill: #1c1c1c; stroke-width: 0px;"/>
    </g>
  </g>
</svg>