<?xml version="1.0" encoding="UTF-8"?>
<svg id="Layer_1" data-name="Layer 1" xmlns="http://www.w3.org/2000/svg" xmlns:xlink="http://www.w3.org/1999/xlink" viewBox="0 0 495.65 495.65">
  <defs>
    <linearGradient id="Degradado_sin_nombre_18" data-name="Degradado sin nombre 18" x1="72.59" y1="72.59" x2="423.07" y2="423.07" gradientUnits="userSpaceOnUse">
      <stop offset="0" stop-color="#5b67af"/>
      <stop offset="1" stop-color="#644a9e"/>
    </linearGradient>
  </defs>
  <circle cx="247.83" cy="247.83" r="247.83" style="fill: url(#Degradado_sin_nombre_18); stroke-width: 0px;"/>
  <path d="M356.43,148.53c-20.55-9.46-42.26-16.17-64.56-19.95-2.83,4.95-6.03,11.6-8.26,16.98-23.72-3.54-47.83-3.54-71.55,0-2.53-5.8-5.37-11.47-8.49-16.98-22.33,3.78-44.07,10.51-64.62,20.03-40.74,60.74-51.8,120.05-46.29,178.44,23.92,17.77,50.71,31.3,79.22,39.98,6.41-8.69,12.09-17.9,16.98-27.53-9.26-3.46-18.2-7.73-26.71-12.76,2.22-1.68,4.37-3.37,6.45-5.06,50.15,23.72,108.29,23.72,158.44,0,2.12,1.75,4.33,3.45,6.54,5.09-8.52,5.06-17.48,9.35-26.76,12.82,4.88,9.62,10.56,18.81,16.98,27.47,28.52-8.65,55.32-22.18,79.22-39.98,6.45-67.7-11.15-126.47-46.57-178.55ZM195.81,291.19c-15.45,0-28.12-14.15-28.12-31.52s12.39-31.63,28.12-31.63,28.29,14.15,28.15,31.55c-.14,17.4-12.42,31.6-28.15,31.6ZM299.79,291.19c-15.45,0-28.12-14.15-28.12-31.52s12.39-31.63,28.12-31.63,28.29,14.15,28.12,31.55c-.17,17.4-12.39,31.6-28.12,31.6Z" style="fill: #fff; stroke-width: 0px;"/>
</svg>