<?xml version="1.0" encoding="UTF-8"?>
<svg id="Layer_2" data-name="Layer 2" xmlns="http://www.w3.org/2000/svg" viewBox="0 0 428.87 428.87">
  <g id="Layer_1-2" data-name="Layer 1">
    <g>
      <circle cx="214.43" cy="214.43" r="214.43" style="fill: #010101; stroke-width: 0px;"/>
      <path d="M308.4,128.52c-17.78-8.19-36.56-13.99-55.86-17.26-2.45,4.28-5.21,10.04-7.15,14.69-20.52-3.06-41.39-3.06-61.91,0-2.19-5.02-4.64-9.92-7.34-14.69-19.32,3.27-38.13,9.1-55.91,17.33-35.25,52.56-44.82,103.87-40.05,154.4,20.69,15.38,43.88,27.08,68.55,34.59,5.55-7.52,10.46-15.49,14.69-23.82-8.01-2.99-15.75-6.69-23.11-11.04,1.93-1.45,3.79-2.91,5.58-4.38,43.39,20.52,93.7,20.52,137.09,0,1.84,1.52,3.75,2.99,5.65,4.41-7.38,4.37-15.13,8.09-23.16,11.09,4.22,8.32,9.13,16.27,14.69,23.77,24.67-7.49,47.86-19.19,68.55-34.59,5.58-58.58-9.65-109.43-40.3-154.5ZM169.43,251.95c-13.37,0-24.33-12.24-24.33-27.27s10.72-27.37,24.33-27.37,24.48,12.24,24.36,27.3c-.12,15.06-10.75,27.35-24.36,27.35ZM259.4,251.95c-13.37,0-24.33-12.24-24.33-27.27s10.72-27.37,24.33-27.37,24.48,12.24,24.33,27.3c-.15,15.06-10.72,27.35-24.33,27.35Z" style="fill: #fff; stroke-width: 0px;"/>
    </g>
  </g>
</svg>