<?xml version="1.0" encoding="UTF-8"?>
<svg id="Layer_2" data-name="Layer 2" xmlns="http://www.w3.org/2000/svg" viewBox="0 0 669.07 669.07">
  <g id="Layer_1-2" data-name="Layer 1">
    <path d="M334.54,0c184.76,0,334.54,149.78,334.54,334.54s-149.78,334.54-334.54,334.54S0,519.3,0,334.54,149.78,0,334.54,0" style="fill: #010101; stroke-width: 0px;"/>
    <path d="M334.53,167.7c-92.11,0-167.04,74.85-167.04,166.84s74.94,166.83,167.04,166.83,167.05-74.84,167.05-166.83-74.94-166.84-167.05-166.84h0ZM444.45,246.44c19.05,23.62,30.64,53.44,31.17,85.94-6.34-1.3-33.19-6.31-65.28-6.31-10.35,0-21.25.52-32.17,1.87-.92-2.24-1.85-4.48-2.81-6.73-2.83-6.66-5.89-13.28-9.05-19.79,49.39-20.35,73.21-48.59,78.15-54.98h0ZM334.53,193.82c35.6,0,68.13,13.22,92.98,35-3.93,5.37-25.27,32.04-72.89,50.03-22.04-40.29-46.17-73.66-51.91-81.4,10.23-2.37,20.88-3.63,31.82-3.63h0ZM273.91,207.49c4.87,6.7,29.03,40.42,51.64,80.39-60.68,15.95-114.56,16.99-127.56,16.99h-1.38c9.34-43.05,38.43-78.83,77.31-97.38h0ZM193.4,334.76c0-1.16.02-2.32.06-3.48.84.01,2.09.01,3.7.01,17.51,0,78.31-1.45,140.95-20.04,3.8,7.44,7.42,14.98,10.79,22.53-1.58.45-3.14.91-4.69,1.41-70.54,22.78-109.31,83.09-115.27,92.95-22.1-24.9-35.54-57.6-35.54-93.39h0ZM334.53,475.69c-32.37,0-62.24-10.96-86.08-29.34,4.03-7.9,33.3-60.59,110.6-87.5.05-.02.1-.04.15-.05,19.38,50.46,27.59,92.81,29.84,105.94-16.77,7.05-35.2,10.95-54.52,10.95h0ZM414.47,450.85c-1.89-10.86-9.5-50.55-27.05-98.96,9.84-1.53,19.42-2.13,28.4-2.13,29.5,0,52.57,6.46,57.93,8.1-6.37,38.44-28.38,71.71-59.28,93h0Z" style="fill: #fff; stroke-width: 0px;"/>
  </g>
</svg>