<?xml version="1.0" encoding="UTF-8"?>
<svg id="Layer_2" data-name="Layer 2" xmlns="http://www.w3.org/2000/svg" xmlns:xlink="http://www.w3.org/1999/xlink" viewBox="0 0 669.68 669.68">
  <defs>
    <linearGradient id="Degradado_sin_nombre_11" data-name="Degradado sin nombre 11" x1="98.07" y1="98.07" x2="571.61" y2="571.61" gradientUnits="userSpaceOnUse">
      <stop offset="0" stop-color="#f06798"/>
      <stop offset="1" stop-color="#dc228f"/>
    </linearGradient>
  </defs>
  <g id="Layer_1-2" data-name="Layer 1">
    <path d="M334.84,0c184.93,0,334.84,149.91,334.84,334.84s-149.91,334.84-334.84,334.84S0,519.77,0,334.84,149.91,0,334.84,0" style="fill: url(#Degradado_sin_nombre_11); stroke-width: 0px;"/>
    <path d="M334.84,167.85c-92.19,0-167.2,74.91-167.2,166.99s75.01,166.98,167.2,166.98,167.2-74.91,167.2-166.98-75.01-166.99-167.2-166.99h0ZM444.86,246.67c19.07,23.64,30.66,53.49,31.2,86.02-6.35-1.3-33.22-6.31-65.34-6.31-10.36,0-21.27.52-32.2,1.87-.92-2.25-1.85-4.48-2.82-6.74-2.84-6.67-5.89-13.29-9.06-19.81,49.43-20.36,73.28-48.63,78.22-55.03h0ZM334.84,193.99c35.63,0,68.19,13.24,93.07,35.04-3.94,5.37-25.29,32.07-72.95,50.07-22.06-40.33-46.21-73.72-51.96-81.48,10.24-2.37,20.9-3.63,31.84-3.63h0ZM274.16,207.68c4.87,6.71,29.06,40.46,51.68,80.46-60.73,15.96-114.66,17-127.68,17h-1.38c9.35-43.09,38.47-78.9,77.38-97.47h0ZM193.58,335.06c0-1.16.02-2.32.06-3.48.84.01,2.09.01,3.71.01,17.53,0,78.38-1.45,141.08-20.06,3.81,7.44,7.43,15,10.8,22.55-1.58.45-3.14.91-4.7,1.41-70.6,22.8-109.41,83.17-115.38,93.03-22.12-24.93-35.57-57.65-35.57-93.47h0ZM334.84,476.12c-32.4,0-62.3-10.97-86.16-29.37,4.04-7.91,33.33-60.65,110.7-87.57.05-.02.1-.04.15-.05,19.4,50.51,27.62,92.9,29.87,106.04-16.79,7.06-35.23,10.96-54.57,10.96h0ZM414.85,451.26c-1.89-10.87-9.51-50.6-27.07-99.05,9.85-1.53,19.44-2.14,28.43-2.14,29.52,0,52.62,6.46,57.98,8.1-6.38,38.48-28.41,71.77-59.34,93.09h0Z" style="fill: #fff; stroke-width: 0px;"/>
  </g>
</svg>