<?xml version="1.0" encoding="UTF-8"?>
<svg id="Layer_2" data-name="Layer 2" xmlns="http://www.w3.org/2000/svg" viewBox="0 0 60.6 60.43">
  <g id="Design">
    <g>
      <path d="M51.9,49.92h0c-1.91-.02-3.5,1.46-3.61,3.36h0c-.14,2.44-2.63,4.02-4.89,3.11h0c-1.77-.71-3.79.1-4.58,1.83h0c-1.01,2.22-3.9,2.8-5.69,1.13h0c-1.4-1.3-3.57-1.28-4.93.06h0c-1.75,1.7-4.65,1.2-5.71-1h0c-.83-1.72-2.87-2.48-4.62-1.73h0c-2.24.96-4.77-.56-4.96-3h0c-.15-1.9-1.78-3.35-3.68-3.28h0c-2.44.08-4.24-2.25-3.55-4.59h0c.54-1.83-.45-3.76-2.25-4.39h0c-2.3-.8-3.14-3.63-1.65-5.56h0c1.17-1.51.94-3.67-.51-4.91h0c-1.86-1.58-1.62-4.52.47-5.78h0c1.63-.99,2.2-3.08,1.3-4.76h0c-1.16-2.15.12-4.8,2.52-5.22h0c1.88-.33,3.17-2.08,2.93-3.97h0c-.31-2.42,1.85-4.43,4.24-3.96h0c1.87.37,3.7-.79,4.16-2.64h0c.59-2.37,3.32-3.46,5.38-2.16h0c1.61,1.02,3.74.6,4.84-.96h0c1.4-2,4.35-2.03,5.8-.07h0c1.13,1.54,3.27,1.91,4.86.85h0c2.03-1.35,4.79-.32,5.43,2.03h0c.5,1.84,2.36,2.96,4.22,2.55h0c2.38-.53,4.58,1.43,4.33,3.86h0c-.2,1.9,1.13,3.62,3.02,3.9h0c2.41.37,3.76,2.99,2.64,5.16h0c-.87,1.7-.25,3.78,1.4,4.73h0c2.12,1.21,2.42,4.14.6,5.77h0c-1.42,1.27-1.6,3.43-.4,4.92h0c1.54,1.9.76,4.74-1.52,5.6h0c-1.79.67-2.73,2.62-2.15,4.44h0c.75,2.32-1,4.69-3.44,4.67Z" style="fill: #5b4fe9; stroke-width: 0px;"/>
      <path d="M31.84,14.05c-10.27-.92-18.85,7.66-17.93,17.93.7,7.88,7.04,14.22,14.92,14.92,10.27.92,18.85-7.66,17.93-17.93-.7-7.88-7.04-14.22-14.92-14.92ZM41.18,22.35c1.57,2.09,2.55,4.64,2.69,7.41,0,.16-.14.29-.31.26-3.03-.61-5.88-.73-8.57-.33-.11.02-.22-.05-.27-.15-.31-.73-.62-1.44-.94-2.12-.06-.13,0-.27.12-.33,2.51-1.14,4.83-2.68,6.88-4.76.11-.11.29-.1.38.02ZM38.76,20.22c-1.81,1.85-3.87,3.24-6.18,4.28-.12.05-.26,0-.33-.11-1.62-2.95-3.23-5.26-4.46-6.85-.12-.15-.03-.37.15-.4.78-.14,1.58-.21,2.39-.21,3.17,0,6.09,1.09,8.4,2.92.12.09.13.27.02.38ZM24.7,18.35c1.15,1.38,2.92,3.74,4.73,6.97.08.14,0,.33-.15.37-3.48,1.02-7.42,1.46-11.8,1.63-.17,0-.3-.15-.26-.32,1.01-3.83,3.67-7.01,7.16-8.72.11-.05.23-.03.31.06ZM17.03,30.28c4.7-.15,9.4-.61,13.7-1.98.12-.04.25.02.3.13.26.55.52,1.11.77,1.69.06.14-.01.29-.15.34-4.28,1.39-8.09,4.22-11.5,8.5-.1.12-.28.13-.38.02-1.91-2.08-2.94-5.17-2.98-8.45,0-.14.11-.25.25-.26ZM22.25,41.02c3.14-4.03,6.6-6.62,10.51-7.84.13-.04.27.03.32.16,1.01,2.83,1.86,5.99,2.4,9.46.02.12-.05.24-.16.28-1.54.61-3.23.95-4.99.95-3.01,0-5.78-.98-8.03-2.65-.11-.08-.14-.25-.05-.36ZM38.16,41.08c-.54-2.98-1.29-5.74-2.17-8.26-.05-.15.05-.32.21-.33,2.25-.23,4.64-.07,7.2.49.14.03.23.17.2.3-.68,3.22-2.51,6.03-5.04,7.96-.15.11-.37.02-.4-.16Z" style="fill: #fff; stroke-width: 0px;"/>
    </g>
  </g>
</svg>