<?xml version="1.0" encoding="UTF-8"?>
<svg id="Layer_2" data-name="Layer 2" xmlns="http://www.w3.org/2000/svg" viewBox="0 0 34.63 34.63">
  <g id="Design">
    <path d="M18.89.07C8.11-.89-.89,8.11.07,18.89c.74,8.27,7.4,14.93,15.66,15.66,10.79.96,19.78-8.04,18.82-18.82C33.82,7.47,27.16.81,18.89.07ZM28.7,8.78c1.65,2.19,2.67,4.87,2.83,7.78,0,.17-.15.31-.32.27-3.18-.64-6.18-.76-8.99-.35-.12.02-.23-.05-.28-.16-.32-.77-.65-1.51-.99-2.22-.06-.13,0-.29.13-.35,2.63-1.2,5.07-2.82,7.23-4.99.11-.11.3-.11.4.02ZM26.16,6.55c-1.9,1.95-4.07,3.4-6.49,4.49-.13.06-.28,0-.34-.12-1.7-3.1-3.39-5.52-4.68-7.2-.12-.16-.03-.39.16-.42.82-.15,1.66-.22,2.51-.22,3.33,0,6.39,1.15,8.82,3.07.12.1.13.29.02.4ZM11.39,4.59c1.2,1.45,3.07,3.93,4.97,7.32.08.15,0,.34-.16.39-3.65,1.07-7.79,1.53-12.38,1.71-.18,0-.32-.16-.27-.33,1.06-4.02,3.85-7.35,7.52-9.15.11-.05.24-.03.32.07ZM3.34,17.11c4.94-.16,9.87-.64,14.39-2.07.13-.04.26.02.32.14.27.57.54,1.17.81,1.77.06.14-.01.31-.16.36-4.49,1.46-8.5,4.43-12.08,8.93-.1.13-.29.14-.4.02-2-2.18-3.08-5.43-3.13-8.87,0-.14.11-.26.26-.27ZM8.83,28.39c3.3-4.23,6.93-6.95,11.03-8.23.14-.04.28.03.33.17,1.06,2.97,1.95,6.29,2.52,9.93.02.12-.05.25-.17.29-1.62.64-3.39,1-5.23,1-3.15,0-6.07-1.03-8.43-2.78-.12-.09-.14-.26-.05-.38ZM25.53,28.45c-.56-3.13-1.36-6.03-2.28-8.67-.06-.16.05-.33.22-.35,2.36-.24,4.87-.07,7.56.52.14.03.24.18.21.32-.72,3.38-2.64,6.33-5.29,8.36-.16.12-.38.03-.42-.17Z" style="fill: #f23f7e; stroke-width: 0px;"/>
  </g>
</svg>