<?xml version="1.0" encoding="UTF-8"?>
<svg id="Layer_2" data-name="Layer 2" xmlns="http://www.w3.org/2000/svg" viewBox="0 0 54.49 54.49">
  <g id="Design">
    <g>
      <path d="M27.25,54.49C12.22,54.49,0,42.27,0,27.25S12.22,0,27.25,0s27.25,12.22,27.25,27.25-12.22,27.25-27.25,27.25ZM27.25,2.93C13.84,2.93,2.93,13.84,2.93,27.25s10.91,24.31,24.31,24.31,24.31-10.91,24.31-24.31S40.65,2.93,27.25,2.93Z" style="fill: #333033; stroke-width: 0px;"/>
      <path d="M28.78,10.84c-10.27-.92-18.85,7.66-17.93,17.93.7,7.88,7.04,14.22,14.92,14.92,10.27.92,18.85-7.66,17.93-17.93-.7-7.88-7.04-14.22-14.92-14.92ZM38.12,19.14c1.57,2.09,2.55,4.64,2.69,7.41,0,.16-.14.29-.31.26-3.03-.61-5.88-.73-8.57-.33-.11.02-.22-.05-.27-.15-.31-.73-.62-1.44-.94-2.12-.06-.13,0-.27.12-.33,2.51-1.14,4.83-2.68,6.88-4.76.11-.11.29-.1.38.02ZM35.7,17.01c-1.81,1.85-3.87,3.24-6.18,4.28-.12.05-.26,0-.33-.11-1.62-2.95-3.23-5.26-4.46-6.85-.12-.15-.03-.37.15-.4.78-.14,1.58-.21,2.39-.21,3.17,0,6.09,1.09,8.4,2.92.12.09.13.27.02.38ZM21.64,15.15c1.15,1.38,2.92,3.74,4.73,6.97.08.14,0,.33-.15.37-3.48,1.02-7.42,1.46-11.8,1.63-.17,0-.3-.15-.26-.32,1.01-3.83,3.67-7.01,7.16-8.72.11-.05.23-.03.31.06ZM13.97,27.07c4.7-.15,9.4-.61,13.7-1.98.12-.04.25.02.3.13.26.55.52,1.11.77,1.69.06.14-.01.29-.15.34-4.28,1.39-8.09,4.22-11.5,8.5-.1.12-.28.13-.38.02-1.91-2.08-2.94-5.17-2.98-8.45,0-.14.11-.25.25-.26ZM19.2,37.82c3.14-4.03,6.6-6.62,10.51-7.84.13-.04.27.03.32.16,1.01,2.83,1.86,5.99,2.4,9.46.02.12-.05.24-.16.28-1.54.61-3.23.95-4.99.95-3.01,0-5.78-.98-8.03-2.65-.11-.08-.14-.25-.05-.36ZM35.1,37.88c-.54-2.98-1.29-5.74-2.17-8.26-.05-.15.05-.32.21-.33,2.25-.23,4.64-.07,7.2.49.14.03.23.17.2.3-.68,3.22-2.51,6.03-5.04,7.96-.15.11-.37.02-.4-.16Z" style="fill: #333033; stroke-width: 0px;"/>
    </g>
  </g>
</svg>