<?xml version="1.0" encoding="UTF-8"?>
<svg id="Layer_2" data-name="Layer 2" xmlns="http://www.w3.org/2000/svg" viewBox="0 0 98.89 98.89">
  <g id="Objects">
    <g>
      <path d="M50.2,21.64c-16.74,0-25.63,11.24-25.63,23.47,0,5.69,3.03,12.77,7.88,15.03.73.34,1.13.19,1.3-.52.13-.54.78-3.17,1.08-4.4.1-.39.05-.73-.27-1.11-1.6-1.94-2.89-5.52-2.89-8.85,0-8.56,6.48-16.83,17.51-16.83,9.53,0,16.2,6.49,16.2,15.78,0,10.49-5.3,17.76-12.19,17.76-3.81,0-6.66-3.15-5.74-7.01,1.09-4.61,3.21-9.59,3.21-12.91,0-2.98-1.6-5.46-4.91-5.46-3.89,0-7.02,4.03-7.02,9.42,0,3.44,1.16,5.76,1.16,5.76,0,0-3.84,16.25-4.55,19.28-.68,2.93-.53,6.89-.26,9.89.07.75.57,1.39,1.28,1.64.87.31,1.85-.04,2.31-.84,1.49-2.55,3.27-5.98,4-8.8.47-1.81,2.42-9.22,2.42-9.22,1.26,2.41,4.96,4.45,8.89,4.45,11.7,0,20.13-10.75,20.13-24.12s-10.46-22.4-23.91-22.4" style="fill: #1966d8; stroke-width: 0px;"/>
      <path d="M88.52,0H10.37C4.67,0,0,4.67,0,10.37v78.14c0,5.71,4.67,10.37,10.37,10.37h78.14c5.71,0,10.37-4.67,10.37-10.37V10.37c0-5.71-4.67-10.37-10.37-10.37ZM92.37,87c0,2.95-2.42,5.37-5.37,5.37H11.89c-2.95,0-5.37-2.42-5.37-5.37V11.89c0-2.95,2.42-5.37,5.37-5.37h75.11c2.95,0,5.37,2.42,5.37,5.37v75.12Z" style="fill: #1966d8; stroke-width: 0px;"/>
    </g>
  </g>
</svg>