<?xml version="1.0" encoding="UTF-8"?>
<svg id="Layer_2" data-name="Layer 2" xmlns="http://www.w3.org/2000/svg" viewBox="0 0 15.96 34.35">
  <g id="Design">
    <path d="M3.52,17.31v16.61c0,.24.19.43.43.43h6.17c.24,0,.43-.19.43-.43v-16.88h4.47c.22,0,.41-.17.43-.4l.43-5.08c.02-.25-.18-.47-.43-.47h-4.9v-3.61c0-.85.69-1.53,1.53-1.53h3.45c.24,0,.43-.19.43-.43V.43c0-.24-.19-.43-.43-.43h-5.82C6.29,0,3.52,2.77,3.52,6.19v4.9H.43c-.24,0-.43.19-.43.43v5.08c0,.24.19.43.43.43h3.08v.27Z" style="fill: #3c5a99; fill-rule: evenodd; stroke-width: 0px;"/>
  </g>
</svg>