<?xml version="1.0" encoding="UTF-8"?>
<svg id="Layer_2" data-name="Layer 2" xmlns="http://www.w3.org/2000/svg" viewBox="0 0 98.89 98.89">
  <g id="Objects">
    <g>
      <path d="M69.9,28.37c-5.45-5.46-12.71-8.46-20.44-8.47-15.92,0-28.88,12.95-28.89,28.88,0,5.09,1.33,10.06,3.86,14.44l-4.1,14.97,15.31-4.02c4.22,2.3,8.97,3.51,13.8,3.52h.01c15.92,0,28.88-12.96,28.89-28.88,0-7.72-3-14.97-8.45-20.43M49.47,72.8h-.01c-4.31,0-8.53-1.16-12.22-3.34l-.88-.52-9.09,2.38,2.43-8.86-.57-.91c-2.4-3.82-3.67-8.24-3.67-12.78,0-13.23,10.78-24,24.02-24,6.41,0,12.44,2.5,16.98,7.04,4.53,4.54,7.03,10.57,7.03,16.98,0,13.24-10.78,24-24.01,24M62.64,54.82c.72.36,1.2.54,1.38.84.18.3.18,1.75-.42,3.43-.6,1.69-3.49,3.23-4.87,3.43-1.24.19-2.82.26-4.55-.29-1.05-.33-2.39-.78-4.11-1.52-7.24-3.12-11.97-10.41-12.33-10.9-.36-.48-2.95-3.91-2.95-7.46s1.86-5.3,2.53-6.02c.66-.72,1.45-.9,1.93-.9s.96,0,1.38.02c.44.02,1.04-.17,1.62,1.24.6,1.45,2.05,5,2.23,5.36.18.36.3.78.06,1.27-.24.48-.36.78-.72,1.2-.36.42-.76.94-1.08,1.27-.36.36-.74.75-.32,1.47.42.72,1.87,3.09,4.01,5,2.76,2.46,5.08,3.22,5.8,3.58.72.36,1.14.3,1.56-.18.42-.48,1.8-2.11,2.29-2.83.48-.72.96-.6,1.62-.36.66.24,4.21,1.99,4.93,2.35" style="fill: #1966d8; fill-rule: evenodd; stroke-width: 0px;"/>
      <path d="M88.52,0H10.37C4.67,0,0,4.67,0,10.37v78.14c0,5.71,4.67,10.37,10.37,10.37h78.14c5.71,0,10.37-4.67,10.37-10.37V10.37c0-5.71-4.67-10.37-10.37-10.37ZM92.37,87c0,2.95-2.42,5.37-5.37,5.37H11.89c-2.95,0-5.37-2.42-5.37-5.37V11.89c0-2.95,2.42-5.37,5.37-5.37h75.11c2.95,0,5.37,2.42,5.37,5.37v75.12Z" style="fill: #1966d8; stroke-width: 0px;"/>
    </g>
  </g>
</svg>