<?xml version="1.0" encoding="UTF-8"?>
<svg id="Layer_1" data-name="Layer 1" xmlns="http://www.w3.org/2000/svg" viewBox="0 0 721.48 721.48">
  <path d="M360.74,721.48C161.83,721.48,0,559.65,0,360.74S161.83,0,360.74,0s360.74,161.83,360.74,360.74-161.83,360.74-360.74,360.74ZM360.74,38.75c-177.55,0-321.99,144.44-321.99,321.99s144.44,321.98,321.99,321.98,321.98-144.44,321.98-321.98S538.28,38.75,360.74,38.75Z" style="fill: #245a9b; stroke-width: 0px;"/>
  <path d="M304.17,362.44v209.08c0,3.01,2.44,5.44,5.45,5.44h77.64c3.01,0,5.45-2.44,5.45-5.44v-212.48h56.29c2.83,0,5.19-2.17,5.43-4.99l5.41-64.02c.27-3.18-2.24-5.91-5.43-5.91h-61.7v-45.42c0-10.65,8.63-19.28,19.28-19.28h43.38c3.01,0,5.45-2.44,5.45-5.45v-64.02c0-3.01-2.44-5.45-5.45-5.45h-73.3c-43.01,0-77.89,34.87-77.89,77.89v61.72h-38.82c-3.01,0-5.45,2.44-5.45,5.45v64.02c0,3.01,2.44,5.44,5.45,5.44h38.82v3.41Z" style="fill: #245a9b; fill-rule: evenodd; stroke-width: 0px;"/>
</svg>