<?xml version="1.0" encoding="UTF-8"?>
<svg id="Layer_1" data-name="Layer 1" xmlns="http://www.w3.org/2000/svg" viewBox="0 0 822.48 822.48">
  <path d="M411.24,822.48C184.48,822.48,0,637.99,0,411.24S184.48,0,411.24,0s411.24,184.48,411.24,411.24-184.48,411.24-411.24,411.24ZM411.24,44.18c-202.4,0-367.06,164.66-367.06,367.06s164.66,367.06,367.06,367.06,367.06-164.66,367.06-367.06S613.64,44.18,411.24,44.18Z" style="fill: #312c30; stroke-width: 0px;"/>
  <path d="M346.75,413.18v238.35c0,3.43,2.78,6.21,6.21,6.21h88.51c3.43,0,6.21-2.78,6.21-6.21v-242.23h64.17c3.23,0,5.91-2.47,6.19-5.68l6.17-72.98c.31-3.62-2.55-6.73-6.19-6.73h-70.34v-51.78c0-12.14,9.84-21.97,21.97-21.97h49.46c3.43,0,6.21-2.78,6.21-6.21v-72.98c0-3.43-2.78-6.21-6.21-6.21h-83.56c-49.04,0-88.79,39.75-88.79,88.79v70.36h-44.26c-3.43,0-6.21,2.78-6.21,6.21v72.98c0,3.43,2.78,6.21,6.21,6.21h44.26v3.88Z" style="fill: #312c30; fill-rule: evenodd; stroke-width: 0px;"/>
</svg>