<?xml version="1.0" encoding="UTF-8"?>
<svg id="Layer_2" data-name="Layer 2" xmlns="http://www.w3.org/2000/svg" xmlns:xlink="http://www.w3.org/1999/xlink" viewBox="0 0 98.89 98.89">
  <defs>
    <linearGradient id="Degradado_sin_nombre_31" data-name="Degradado sin nombre 31" x1="6.62" y1="24.72" x2="92.27" y2="74.17" gradientUnits="userSpaceOnUse">
      <stop offset=".45" stop-color="#3f6bac"/>
      <stop offset="1" stop-color="#373487"/>
    </linearGradient>
    <linearGradient id="Degradado_sin_nombre_31-2" data-name="Degradado sin nombre 31" x1="33.08" y1="38.98" x2="64.35" y2="57.03" xlink:href="#Degradado_sin_nombre_31"/>
  </defs>
  <g id="Objects">
    <g>
      <path d="M49.45,0C22.14,0,0,22.14,0,49.45s22.14,49.45,49.45,49.45,49.45-22.14,49.45-49.45S76.75,0,49.45,0ZM49.45,94.4c-24.83,0-44.96-20.13-44.96-44.96S24.62,4.49,49.45,4.49s44.96,20.13,44.96,44.96-20.13,44.96-44.96,44.96Z" style="fill: url(#Degradado_sin_nombre_31); stroke-width: 0px;"/>
      <path d="M51.61,79.1v-27.05h9.08l1.36-10.54h-10.44v-6.73c0-3.05.85-5.13,5.22-5.13h5.58v-9.43c-.97-.13-4.28-.42-8.13-.42-8.05,0-13.56,4.91-13.56,13.94v7.77h-9.1v10.54h9.1v27.05h10.89Z" style="fill: url(#Degradado_sin_nombre_31-2); stroke-width: 0px;"/>
    </g>
  </g>
</svg>