<?xml version="1.0" encoding="UTF-8"?>
<svg id="Layer_2" data-name="Layer 2" xmlns="http://www.w3.org/2000/svg" viewBox="0 0 54.59 54.59">
  <g id="Design">
    <g>
      <path d="M27.29,54.59C12.24,54.59,0,42.34,0,27.29S12.24,0,27.29,0s27.29,12.24,27.29,27.29-12.24,27.29-27.29,27.29Z" style="fill: #3c5a99; stroke-width: 0px;"/>
      <path d="M23.01,27.42v15.82c0,.23.18.41.41.41h5.87c.23,0,.41-.18.41-.41v-16.08h4.26c.21,0,.39-.16.41-.38l.41-4.84c.02-.24-.17-.45-.41-.45h-4.67v-3.44c0-.81.65-1.46,1.46-1.46h3.28c.23,0,.41-.18.41-.41v-4.84c0-.23-.18-.41-.41-.41h-5.55c-3.25,0-5.89,2.64-5.89,5.89v4.67h-2.94c-.23,0-.41.18-.41.41v4.84c0,.23.18.41.41.41h2.94v.26Z" style="fill: #fff; fill-rule: evenodd; stroke-width: 0px;"/>
    </g>
  </g>
</svg>