<?xml version="1.0" encoding="UTF-8"?>
<svg id="Layer_2" data-name="Layer 2" xmlns="http://www.w3.org/2000/svg" viewBox="0 0 54.49 54.49">
  <g id="Design">
    <g>
      <path d="M27.25,54.49C12.22,54.49,0,42.27,0,27.24S12.22,0,27.25,0v2.93C13.84,2.93,2.93,13.84,2.93,27.24s10.91,24.31,24.32,24.31v2.93Z" style="fill: #4176fa; stroke-width: 0px;"/>
      <path d="M27.25,54.49v-2.93c13.41,0,24.31-10.91,24.31-24.31S40.65,2.93,27.25,2.93V0c15.02,0,27.25,12.22,27.25,27.24s-12.22,27.25-27.25,27.25Z" style="fill: #ff0084; stroke-width: 0px;"/>
      <g>
        <path d="M41.65,27.24c0,3.15-2.55,5.7-5.7,5.7s-5.7-2.55-5.7-5.7,2.55-5.7,5.7-5.7,5.7,2.55,5.7,5.7Z" style="fill: #ff0084; stroke-width: 0px;"/>
        <path d="M24.24,27.24c0,3.15-2.55,5.7-5.7,5.7s-5.7-2.55-5.7-5.7,2.55-5.7,5.7-5.7,5.7,2.55,5.7,5.7Z" style="fill: #4176fa; stroke-width: 0px;"/>
      </g>
    </g>
  </g>
</svg>