<?xml version="1.0" encoding="UTF-8"?>
<svg id="Layer_2" data-name="Layer 2" xmlns="http://www.w3.org/2000/svg" viewBox="0 0 54.59 54.59">
  <g id="Design">
    <g>
      <path d="M27.29,54.59C12.24,54.59,0,42.34,0,27.29S12.24,0,27.29,0s27.29,12.24,27.29,27.29-12.24,27.29-27.29,27.29Z" style="fill: #333033; stroke-width: 0px;"/>
      <g>
        <path d="M41.69,26.84c0,3.15-2.55,5.7-5.7,5.7s-5.7-2.55-5.7-5.7,2.55-5.7,5.7-5.7,5.7,2.55,5.7,5.7Z" style="fill: #fff; stroke-width: 0px;"/>
        <path d="M24.29,26.84c0,3.15-2.55,5.7-5.7,5.7s-5.7-2.55-5.7-5.7,2.55-5.7,5.7-5.7,5.7,2.55,5.7,5.7Z" style="fill: #fff; stroke-width: 0px;"/>
      </g>
    </g>
  </g>
</svg>