<?xml version="1.0" encoding="UTF-8"?>
<svg id="Layer_2" data-name="Layer 2" xmlns="http://www.w3.org/2000/svg" xmlns:xlink="http://www.w3.org/1999/xlink" viewBox="0 0 60.6 60.43">
  <defs>
    <linearGradient id="Degradado_sin_nombre_32" data-name="Degradado sin nombre 32" x1="0" y1="30.22" x2="60.6" y2="30.22" gradientUnits="userSpaceOnUse">
      <stop offset="0" stop-color="#cd9b2d"/>
      <stop offset="0" stop-color="#cd9c2e"/>
      <stop offset=".04" stop-color="#deb74d"/>
      <stop offset=".09" stop-color="#eccc65"/>
      <stop offset=".14" stop-color="#f5db76"/>
      <stop offset=".19" stop-color="#fbe480"/>
      <stop offset=".25" stop-color="#fde784"/>
      <stop offset=".38" stop-color="#f5db76"/>
      <stop offset=".62" stop-color="#e2bc53"/>
      <stop offset=".84" stop-color="#cd9b2d"/>
      <stop offset=".9" stop-color="#b78a28"/>
      <stop offset=".99" stop-color="#997322"/>
    </linearGradient>
  </defs>
  <g id="Design">
    <g>
      <circle cx="30.32" cy="29.86" r="23.75" style="fill: #fff; stroke-width: 0px;"/>
      <path d="M51.9,49.92h0c-1.91-.02-3.5,1.46-3.61,3.36h0c-.14,2.44-2.63,4.02-4.89,3.11h0c-1.77-.71-3.79.1-4.58,1.83h0c-1.01,2.22-3.9,2.8-5.69,1.13h0c-1.4-1.3-3.57-1.28-4.93.06h0c-1.75,1.7-4.65,1.2-5.71-1h0c-.83-1.72-2.87-2.48-4.62-1.73h0c-2.24.96-4.77-.56-4.96-3h0c-.15-1.9-1.78-3.35-3.68-3.28h0c-2.44.08-4.24-2.25-3.55-4.59h0c.54-1.83-.45-3.76-2.25-4.39h0c-2.3-.8-3.14-3.63-1.65-5.56h0c1.17-1.51.94-3.67-.51-4.91h0c-1.86-1.58-1.62-4.52.47-5.78h0c1.63-.99,2.2-3.08,1.3-4.76h0c-1.16-2.15.12-4.8,2.52-5.22h0c1.88-.33,3.17-2.08,2.93-3.97h0c-.31-2.42,1.85-4.43,4.24-3.96h0c1.87.37,3.7-.79,4.16-2.64h0c.59-2.37,3.32-3.46,5.38-2.16h0c1.61,1.02,3.74.6,4.84-.96h0c1.4-2,4.35-2.03,5.8-.07h0c1.13,1.54,3.27,1.91,4.86.85h0c2.03-1.36,4.79-.32,5.43,2.03h0c.5,1.84,2.36,2.96,4.22,2.55h0c2.38-.53,4.58,1.43,4.33,3.86h0c-.2,1.9,1.13,3.62,3.02,3.9h0c2.41.37,3.76,2.99,2.64,5.16h0c-.87,1.7-.25,3.78,1.4,4.73h0c2.12,1.21,2.42,4.14.6,5.77h0c-1.42,1.27-1.6,3.43-.4,4.92h0c1.54,1.9.76,4.74-1.52,5.59h0c-1.79.67-2.73,2.62-2.15,4.44h0c.75,2.32-1,4.69-3.44,4.67ZM39.49,19.09c-1.11,0-2.01.9-2.01,2.01s.9,2.01,2.01,2.01,2.01-.9,2.01-2.01-.9-2.01-2.01-2.01ZM30.57,21.66c-4.65,0-8.43,3.78-8.43,8.43s3.78,8.43,8.43,8.43,8.43-3.78,8.43-8.43-3.78-8.43-8.43-8.43ZM30.57,35.49c-2.98,0-5.4-2.42-5.4-5.4s2.42-5.4,5.4-5.4,5.4,2.42,5.4,5.4-2.42,5.4-5.4,5.4ZM47.57,23.08c0-5.68-4.6-10.28-10.28-10.28h-13.57c-5.68,0-10.28,4.6-10.28,10.28v13.57c0,5.68,4.6,10.28,10.28,10.28h13.57c5.68,0,10.28-4.6,10.28-10.28v-13.57ZM44.35,36.65c0,3.9-3.16,7.06-7.06,7.06h-13.57c-3.9,0-7.06-3.16-7.06-7.06v-13.57c0-3.9,3.16-7.06,7.06-7.06h13.57c3.9,0,7.06,3.16,7.06,7.06v13.57Z" style="fill: url(#Degradado_sin_nombre_32); stroke-width: 0px;"/>
    </g>
  </g>
</svg>