<?xml version="1.0" encoding="UTF-8"?>
<svg id="Layer_2" data-name="Layer 2" xmlns="http://www.w3.org/2000/svg" viewBox="0 0 35.83 35.83">
  <g id="Design">
    <path d="M27.34,6.6c-1.16,0-2.11.94-2.11,2.11s.94,2.11,2.11,2.11,2.11-.94,2.11-2.11-.94-2.11-2.11-2.11ZM17.97,9.3c-4.88,0-8.85,3.97-8.85,8.85s3.97,8.85,8.85,8.85,8.85-3.97,8.85-8.85-3.97-8.85-8.85-8.85ZM17.97,23.81c-3.13,0-5.67-2.54-5.67-5.67s2.54-5.67,5.67-5.67,5.67,2.54,5.67,5.67-2.54,5.67-5.67,5.67ZM35.83,10.79c0-5.96-4.83-10.79-10.79-10.79h-14.24C4.83,0,0,4.83,0,10.79v14.24c0,5.96,4.83,10.79,10.79,10.79h14.24c5.96,0,10.79-4.83,10.79-10.79v-14.24ZM32.45,25.04c0,4.09-3.32,7.41-7.41,7.41h-14.24c-4.09,0-7.41-3.32-7.41-7.41v-14.24c0-4.09,3.32-7.41,7.41-7.41h14.24c4.09,0,7.41,3.32,7.41,7.41v14.24Z" style="fill: #333033; stroke-width: 0px;"/>
  </g>
</svg>