<?xml version="1.0" encoding="UTF-8"?>
<svg id="Layer_2" data-name="Layer 2" xmlns="http://www.w3.org/2000/svg" viewBox="0 0 98.89 98.89">
  <g id="Objects">
    <g>
      <path d="M49.45,0C22.14,0,0,22.14,0,49.45s22.14,49.45,49.45,49.45,49.45-22.14,49.45-49.45S76.75,0,49.45,0ZM49.45,94.4c-24.83,0-44.96-20.13-44.96-44.96S24.62,4.49,49.45,4.49s44.96,20.13,44.96,44.96-20.13,44.96-44.96,44.96Z" style="fill: #ff00ba; stroke-width: 0px;"/>
      <path d="M48.37,28.83c6.54,0,7.31.03,9.9.14,2.39.11,3.68.51,4.55.84,1.14.44,1.96.97,2.82,1.83.86.86,1.39,1.67,1.83,2.82.34.86.73,2.16.84,4.55.12,2.58.14,3.36.14,9.9s-.02,7.31-.14,9.9c-.11,2.39-.51,3.68-.84,4.55-.44,1.14-.98,1.96-1.83,2.82-.86.86-1.67,1.39-2.82,1.83-.86.34-2.16.73-4.55.84-2.58.12-3.36.14-9.9.14s-7.32-.03-9.9-.14c-2.39-.11-3.68-.51-4.55-.84-1.14-.44-1.96-.97-2.82-1.83-.86-.86-1.39-1.67-1.83-2.82-.34-.86-.73-2.16-.84-4.55-.12-2.58-.14-3.36-.14-9.9s.02-7.31.14-9.9c.11-2.39.51-3.68.84-4.55.44-1.14.98-1.96,1.83-2.82.86-.86,1.67-1.39,2.82-1.83.86-.34,2.16-.73,4.55-.84,2.58-.12,3.36-.14,9.9-.14M48.37,24.42c-6.65,0-7.49.03-10.1.15-2.61.12-4.39.53-5.94,1.14-1.61.63-2.98,1.46-4.34,2.82-1.36,1.36-2.2,2.73-2.83,4.34-.61,1.56-1.02,3.34-1.14,5.95-.12,2.61-.15,3.45-.15,10.1s.03,7.49.15,10.1c.12,2.61.53,4.39,1.14,5.94.63,1.61,1.46,2.98,2.83,4.34,1.36,1.36,2.73,2.2,4.34,2.82,1.56.61,3.34,1.02,5.94,1.14,2.61.12,3.45.15,10.1.15s7.49-.03,10.1-.15c2.61-.12,4.39-.53,5.94-1.14,1.61-.63,2.98-1.46,4.34-2.82,1.36-1.36,2.2-2.73,2.83-4.34.61-1.56,1.02-3.34,1.14-5.94.12-2.61.15-3.45.15-10.1s-.03-7.49-.15-10.1c-.12-2.61-.53-4.39-1.14-5.95-.63-1.61-1.46-2.98-2.83-4.34-1.36-1.36-2.73-2.2-4.34-2.82-1.56-.61-3.34-1.02-5.94-1.14-2.61-.12-3.45-.15-10.1-.15M48.37,36.34c-6.95,0-12.58,5.63-12.58,12.58s5.63,12.58,12.58,12.58,12.58-5.63,12.58-12.58-5.63-12.58-12.58-12.58M48.37,57.08c-4.51,0-8.16-3.66-8.16-8.16s3.66-8.16,8.16-8.16,8.16,3.66,8.16,8.16-3.66,8.16-8.16,8.16M64.38,35.84c0-1.62-1.32-2.94-2.94-2.94s-2.94,1.32-2.94,2.94,1.32,2.94,2.94,2.94,2.94-1.32,2.94-2.94" style="fill: #ff00ba; stroke-width: 0px;"/>
    </g>
  </g>
</svg>