<?xml version="1.0" encoding="UTF-8"?>
<svg id="Layer_2" data-name="Layer 2" xmlns="http://www.w3.org/2000/svg" viewBox="0 0 86.19 86.19">
  <g id="Objects">
    <path d="M43.1,7.77c11.51,0,12.87.05,17.41.25,4.2.19,6.48.89,8,1.48,2.01.78,3.45,1.72,4.95,3.22,1.51,1.51,2.44,2.94,3.23,4.96.59,1.52,1.29,3.8,1.48,8,.21,4.55.25,5.91.25,17.42s-.04,12.87-.25,17.41c-.19,4.2-.89,6.48-1.48,8-.78,2.01-1.72,3.45-3.23,4.95-1.51,1.51-2.94,2.44-4.95,3.22-1.52.59-3.8,1.29-8,1.48-4.54.21-5.91.25-17.41.25s-12.87-.04-17.41-.25c-4.2-.19-6.48-.89-8-1.48-2.01-.78-3.45-1.72-4.95-3.22-1.51-1.51-2.44-2.94-3.22-4.95-.59-1.52-1.29-3.8-1.48-8-.21-4.54-.25-5.91-.25-17.41s.04-12.87.25-17.42c.19-4.2.89-6.48,1.48-8,.78-2.01,1.72-3.45,3.22-4.96,1.51-1.51,2.94-2.44,4.95-3.22,1.52-.59,3.8-1.29,8-1.48,4.55-.21,5.91-.25,17.41-.25M43.1,0c-11.7,0-13.17.05-17.77.26-4.59.21-7.72.94-10.46,2-2.84,1.1-5.24,2.57-7.63,4.97-2.4,2.4-3.87,4.8-4.97,7.63-1.07,2.74-1.79,5.87-2,10.46-.21,4.6-.26,6.07-.26,17.77s.05,13.17.26,17.77c.21,4.59.94,7.72,2,10.46,1.1,2.84,2.57,5.24,4.97,7.63,2.39,2.4,4.8,3.87,7.63,4.97,2.74,1.07,5.87,1.79,10.46,2,4.6.21,6.06.26,17.77.26s13.17-.05,17.77-.26c4.59-.21,7.72-.94,10.46-2,2.84-1.1,5.24-2.57,7.63-4.97,2.4-2.4,3.87-4.8,4.97-7.63,1.07-2.74,1.79-5.87,2-10.46.21-4.6.26-6.07.26-17.77s-.05-13.17-.26-17.77c-.21-4.59-.94-7.72-2-10.46-1.1-2.83-2.57-5.24-4.97-7.63-2.4-2.4-4.8-3.87-7.63-4.97-2.74-1.07-5.87-1.79-10.46-2-4.6-.21-6.06-.26-17.77-.26M43.1,20.97c-12.22,0-22.13,9.91-22.13,22.13s9.91,22.13,22.13,22.13,22.13-9.91,22.13-22.13-9.91-22.13-22.13-22.13M43.1,57.46c-7.93,0-14.37-6.43-14.37-14.36s6.43-14.37,14.37-14.37,14.36,6.43,14.36,14.37-6.43,14.36-14.36,14.36M71.27,20.09c0-2.86-2.31-5.17-5.17-5.17s-5.17,2.32-5.17,5.17,2.32,5.17,5.17,5.17,5.17-2.32,5.17-5.17" style="fill: #020202; stroke-width: 0px;"/>
  </g>
</svg>