<?xml version="1.0" encoding="UTF-8"?>
<svg id="Layer_1" data-name="Layer 1" xmlns="http://www.w3.org/2000/svg" xmlns:xlink="http://www.w3.org/1999/xlink" viewBox="0 0 772.48 772.48">
  <defs>
    <linearGradient id="Degradado_sin_nombre_2" data-name="Degradado sin nombre 2" x1="74.16" y1="651.97" x2="1032.41" y2="-163.97" gradientUnits="userSpaceOnUse">
      <stop offset="0" stop-color="#ffe185"/>
      <stop offset=".21" stop-color="#ffbb36"/>
      <stop offset=".38" stop-color="#ff5176"/>
      <stop offset=".52" stop-color="#f63395"/>
      <stop offset=".74" stop-color="#a436d2"/>
      <stop offset="1" stop-color="#5f4eed"/>
    </linearGradient>
  </defs>
  <path d="M386.24,772.48C173.27,772.48,0,599.21,0,386.24S173.27,0,386.24,0s386.24,173.27,386.24,386.24-173.27,386.24-386.24,386.24ZM386.24,36.69c-192.74,0-349.55,156.8-349.55,349.55s156.8,349.55,349.55,349.55,349.55-156.8,349.55-349.55S578.98,36.69,386.24,36.69ZM516.47,229.53c-15.78,0-28.58,12.8-28.58,28.58s12.8,28.58,28.58,28.58,28.58-12.79,28.58-28.58-12.8-28.58-28.58-28.58ZM389.41,266.18c-66.2,0-120.06,53.86-120.06,120.06s53.86,120.06,120.06,120.06,120.06-53.86,120.06-120.06-53.86-120.06-120.06-120.06ZM389.41,463.15c-42.41,0-76.91-34.5-76.91-76.91s34.5-76.9,76.91-76.9,76.9,34.5,76.9,76.9-34.5,76.91-76.9,76.91ZM631.66,286.46c0-80.87-65.56-146.43-146.44-146.43h-193.27c-80.88,0-146.44,65.56-146.44,146.43v193.29c0,80.87,65.56,146.43,146.44,146.43h193.27c80.88,0,146.44-65.56,146.44-146.43v-193.29ZM585.8,479.75c0,55.54-45.03,100.57-100.58,100.57h-193.27c-55.55,0-100.58-45.03-100.58-100.57v-193.29c0-55.54,45.03-100.57,100.58-100.57h193.27c55.55,0,100.58,45.03,100.58,100.57v193.29Z" style="fill: url(#Degradado_sin_nombre_2); stroke-width: 0px;"/>
</svg>