<?xml version="1.0" encoding="UTF-8"?>
<svg id="Layer_2" data-name="Layer 2" xmlns="http://www.w3.org/2000/svg" viewBox="0 0 54.23 54.23">
  <g id="Design">
    <g>
      <circle cx="27.09" cy="26.88" r="23.75" style="fill: #fff; stroke-width: 0px;"/>
      <path d="M27.11,54.23C12.16,54.23,0,42.07,0,27.11S12.16,0,27.11,0s27.11,12.16,27.11,27.11-12.16,27.11-27.11,27.11ZM36.26,16.11c-1.11,0-2.01.9-2.01,2.01s.9,2.01,2.01,2.01,2.01-.9,2.01-2.01-.9-2.01-2.01-2.01ZM27.34,18.69c-4.65,0-8.43,3.78-8.43,8.43s3.78,8.43,8.43,8.43,8.43-3.78,8.43-8.43-3.78-8.43-8.43-8.43ZM27.34,32.51c-2.98,0-5.4-2.42-5.4-5.4s2.42-5.4,5.4-5.4,5.4,2.42,5.4,5.4-2.42,5.4-5.4,5.4ZM44.34,20.11c0-5.68-4.6-10.28-10.28-10.28h-13.57c-5.68,0-10.28,4.6-10.28,10.28v13.57c0,5.68,4.6,10.28,10.28,10.28h13.57c5.68,0,10.28-4.6,10.28-10.28v-13.57ZM41.12,33.68c0,3.9-3.16,7.06-7.06,7.06h-13.57c-3.9,0-7.06-3.16-7.06-7.06v-13.57c0-3.9,3.16-7.06,7.06-7.06h13.57c3.9,0,7.06,3.16,7.06,7.06v13.57Z" style="fill: #333033; stroke-width: 0px;"/>
    </g>
  </g>
</svg>