<?xml version="1.0" encoding="UTF-8"?>
<svg id="Layer_2" data-name="Layer 2" xmlns="http://www.w3.org/2000/svg" viewBox="0 0 547.96 547.96">
  <g id="Layer_1-2" data-name="Layer 1">
    <g>
      <circle cx="273.98" cy="273.98" r="273.98" style="fill: #010101; stroke-width: 0px;"/>
      <g>
        <path d="M349.47,182.31c-9.23,0-16.72,7.49-16.72,16.72s7.49,16.72,16.72,16.72,16.72-7.49,16.72-16.72-7.49-16.72-16.72-16.72Z" style="fill: #fff; stroke-width: 0px;"/>
        <path d="M275.15,203.75c-38.72,0-70.23,31.5-70.23,70.22s31.5,70.22,70.23,70.22,70.22-31.5,70.22-70.22-31.5-70.22-70.22-70.22ZM275.15,318.96c-24.81,0-44.98-20.18-44.98-44.98s20.18-44.98,44.98-44.98,44.98,20.18,44.98,44.98-20.18,44.98-44.98,44.98Z" style="fill: #fff; stroke-width: 0px;"/>
        <path d="M330.9,416.56h-113.85c-47.23,0-85.65-38.42-85.65-85.65v-113.85c0-47.23,38.42-85.65,85.65-85.65h113.85c47.23,0,85.66,38.42,85.66,85.65v113.85c0,47.23-38.43,85.65-85.66,85.65ZM217.05,158.23c-32.44,0-58.83,26.39-58.83,58.82v113.85c0,32.44,26.39,58.83,58.83,58.83h113.85c32.44,0,58.83-26.39,58.83-58.83v-113.85c0-32.44-26.39-58.82-58.83-58.82h-113.85Z" style="fill: #fff; stroke-width: 0px;"/>
      </g>
    </g>
  </g>
</svg>