<?xml version="1.0" encoding="UTF-8"?>
<svg id="Layer_2" data-name="Layer 2" xmlns="http://www.w3.org/2000/svg" viewBox="0 0 98.89 98.89">
  <g id="Objects">
    <path d="M72.74,32.37c-.54-1.4-1.19-2.39-2.24-3.44-1.05-1.05-2.04-1.69-3.43-2.24-1.05-.41-2.64-.9-5.55-1.03-3.15-.14-4.1-.18-12.07-.18s-8.92.03-12.07.18c-2.91.13-4.49.62-5.55,1.03-1.39.54-2.39,1.19-3.43,2.24-1.05,1.04-1.69,2.04-2.24,3.44-.41,1.05-.89,2.63-1.03,5.55-.14,3.15-.17,4.1-.17,12.07s.03,8.92.17,12.07c.13,2.91.62,4.49,1.03,5.55.54,1.39,1.19,2.39,2.24,3.43,1.05,1.05,2.04,1.69,3.43,2.23,1.05.41,2.64.9,5.55,1.03,3.15.14,4.09.17,12.07.17s8.92-.03,12.07-.17c2.91-.13,4.49-.62,5.55-1.03,1.39-.54,2.39-1.19,3.43-2.23,1.05-1.05,1.69-2.04,2.24-3.43.41-1.05.89-2.64,1.03-5.55.14-3.15.17-4.1.17-12.07s-.03-8.92-.17-12.07c-.13-2.91-.62-4.49-1.03-5.55ZM49.45,65.33c-8.47,0-15.34-6.87-15.34-15.34s6.87-15.34,15.34-15.34,15.34,6.87,15.34,15.34-6.87,15.34-15.34,15.34ZM65.39,37.63c-1.98,0-3.59-1.61-3.59-3.58s1.61-3.59,3.59-3.59,3.58,1.61,3.58,3.59-1.6,3.58-3.58,3.58ZM59.4,49.99c0,5.5-4.46,9.96-9.96,9.96s-9.96-4.46-9.96-9.96,4.46-9.96,9.96-9.96,9.96,4.46,9.96,9.96ZM49.45,0C22.14,0,0,22.14,0,49.45s22.14,49.45,49.45,49.45,49.45-22.14,49.45-49.45S76.75,0,49.45,0ZM79.14,62.31c-.14,3.18-.65,5.35-1.39,7.25-.76,1.97-1.78,3.63-3.45,5.29-1.66,1.66-3.33,2.68-5.29,3.45-1.9.74-4.07,1.24-7.25,1.39-3.19.14-4.2.18-12.32.18s-9.13-.03-12.32-.18c-3.18-.15-5.35-.65-7.25-1.39-1.97-.76-3.63-1.78-5.29-3.45-1.66-1.66-2.68-3.33-3.45-5.29-.74-1.9-1.24-4.07-1.39-7.25-.15-3.19-.18-4.2-.18-12.32s.04-9.13.18-12.32c.14-3.18.65-5.35,1.39-7.25.76-1.96,1.78-3.63,3.45-5.29,1.66-1.66,3.33-2.68,5.29-3.44,1.9-.74,4.07-1.24,7.25-1.39,3.19-.15,4.2-.18,12.32-.18s9.13.03,12.32.18c3.18.15,5.35.65,7.25,1.39,1.97.76,3.63,1.78,5.29,3.44,1.66,1.66,2.68,3.33,3.45,5.29.74,1.9,1.24,4.07,1.39,7.25.15,3.19.18,4.2.18,12.32s-.04,9.13-.18,12.32Z" style="fill: #000; stroke-width: 0px;"/>
  </g>
</svg>