<?xml version="1.0" encoding="UTF-8"?>
<svg id="Layer_2" data-name="Layer 2" xmlns="http://www.w3.org/2000/svg" viewBox="0 0 98.89 98.89">
  <g id="Objects">
    <g>
      <path d="M49.41,28.56c6.97,0,7.79.03,10.55.15,2.54.12,3.93.54,4.85.9,1.22.47,2.09,1.04,3,1.95.91.91,1.48,1.78,1.95,3,.36.92.78,2.3.9,4.85.13,2.75.15,3.58.15,10.55s-.03,7.79-.15,10.54c-.12,2.54-.54,3.93-.9,4.85-.47,1.22-1.04,2.09-1.95,3-.91.91-1.78,1.48-3,1.95-.92.36-2.3.78-4.85.9-2.75.12-3.58.15-10.55.15s-7.79-.03-10.55-.15c-2.54-.12-3.93-.54-4.85-.9-1.22-.47-2.09-1.04-3-1.95-.91-.91-1.48-1.78-1.95-3-.36-.92-.78-2.3-.9-4.85-.13-2.75-.15-3.58-.15-10.54s.03-7.79.15-10.55c.12-2.54.54-3.93.9-4.85.47-1.22,1.04-2.09,1.95-3,.91-.91,1.78-1.48,3-1.95.92-.36,2.3-.78,4.85-.9,2.75-.13,3.58-.15,10.55-.15M49.41,23.86c-7.09,0-7.98.03-10.76.16-2.78.13-4.67.57-6.33,1.21-1.72.67-3.17,1.56-4.62,3.01-1.45,1.45-2.34,2.91-3.01,4.62-.65,1.66-1.09,3.56-1.21,6.33-.13,2.78-.16,3.67-.16,10.76s.03,7.98.16,10.76c.13,2.78.57,4.67,1.21,6.33.67,1.72,1.56,3.17,3.01,4.62,1.45,1.45,2.91,2.34,4.62,3.01,1.66.65,3.56,1.09,6.33,1.21,2.78.13,3.67.16,10.76.16s7.98-.03,10.76-.16c2.78-.13,4.67-.57,6.33-1.21,1.72-.67,3.17-1.56,4.62-3.01,1.45-1.45,2.34-2.91,3.01-4.62.65-1.66,1.09-3.56,1.21-6.33.13-2.78.16-3.67.16-10.76s-.03-7.98-.16-10.76c-.13-2.78-.57-4.67-1.21-6.33-.67-1.72-1.56-3.17-3.01-4.62-1.45-1.45-2.91-2.34-4.62-3.01-1.66-.65-3.56-1.09-6.33-1.21-2.78-.13-3.67-.16-10.76-.16M49.41,36.55c-7.4,0-13.4,6-13.4,13.4s6,13.4,13.4,13.4,13.4-6,13.4-13.4-6-13.4-13.4-13.4M49.41,58.65c-4.8,0-8.7-3.89-8.7-8.7s3.9-8.7,8.7-8.7,8.7,3.89,8.7,8.7-3.89,8.7-8.7,8.7M66.47,36.02c0-1.73-1.4-3.13-3.13-3.13s-3.13,1.4-3.13,3.13,1.4,3.13,3.13,3.13,3.13-1.4,3.13-3.13" style="fill: #1966d8; stroke-width: 0px;"/>
      <path d="M88.52,0H10.37C4.67,0,0,4.67,0,10.37v78.14c0,5.71,4.67,10.37,10.37,10.37h78.14c5.71,0,10.37-4.67,10.37-10.37V10.37c0-5.71-4.67-10.37-10.37-10.37ZM92.37,87c0,2.95-2.42,5.37-5.37,5.37H11.89c-2.95,0-5.37-2.42-5.37-5.37V11.89c0-2.95,2.42-5.37,5.37-5.37h75.11c2.95,0,5.37,2.42,5.37,5.37v75.11Z" style="fill: #1966d8; stroke-width: 0px;"/>
    </g>
  </g>
</svg>