<?xml version="1.0" encoding="UTF-8"?>
<svg id="Layer_2" data-name="Layer 2" xmlns="http://www.w3.org/2000/svg" viewBox="0 0 98.89 98.89">
  <g id="Objects">
    <g>
      <path d="M76.28,28.72c-.63-1.6-1.37-2.74-2.58-3.94-1.21-1.2-2.35-1.94-3.96-2.56-1.21-.47-3.04-1.03-6.39-1.18-3.63-.16-4.72-.2-13.91-.2s-10.28.04-13.91.2c-3.36.15-5.18.71-6.39,1.18-1.61.62-2.75,1.36-3.96,2.56-1.2,1.2-1.95,2.34-2.58,3.94-.47,1.21-1.03,3.02-1.18,6.35-.17,3.61-.2,4.69-.2,13.83s.03,10.22.2,13.83c.15,3.34.71,5.15,1.18,6.36.63,1.6,1.37,2.74,2.58,3.93,1.21,1.2,2.35,1.94,3.96,2.56,1.21.47,3.04,1.03,6.39,1.18,3.63.16,4.72.2,13.91.2s10.28-.04,13.91-.2c3.36-.15,5.18-.71,6.39-1.18,1.61-.62,2.75-1.36,3.96-2.56,1.2-1.2,1.95-2.34,2.58-3.93.47-1.21,1.03-3.02,1.18-6.36.17-3.61.2-4.69.2-13.83s-.03-10.22-.2-13.83c-.15-3.34-.71-5.15-1.18-6.35ZM49.45,66.48c-9.76,0-17.68-7.87-17.68-17.57s7.91-17.57,17.68-17.57,17.68,7.87,17.68,17.57-7.91,17.57-17.68,17.57ZM67.82,34.75c-2.28,0-4.13-1.84-4.13-4.11s1.85-4.11,4.13-4.11,4.13,1.84,4.13,4.11-1.85,4.11-4.13,4.11Z" style="fill: #1c1c1c; stroke-width: 0px;"/>
      <path d="M0,0v98.89h98.89V0H0ZM83.66,63.02c-.17,3.64-.75,6.13-1.6,8.31-.88,2.25-2.06,4.16-3.97,6.06-1.91,1.9-3.83,3.07-6.1,3.95-2.19.85-4.69,1.42-8.35,1.59-3.67.17-4.84.21-14.19.21s-10.52-.04-14.19-.21c-3.66-.17-6.17-.74-8.35-1.59-2.26-.87-4.19-2.04-6.1-3.95-1.91-1.9-3.09-3.81-3.97-6.06-.85-2.18-1.43-4.66-1.6-8.31-.17-3.65-.21-4.82-.21-14.11s.04-10.46.21-14.11c.17-3.64.75-6.13,1.6-8.31.88-2.25,2.06-4.16,3.97-6.06,1.91-1.9,3.83-3.07,6.1-3.95,2.19-.85,4.69-1.43,8.35-1.59,3.67-.17,4.84-.21,14.19-.21s10.52.04,14.19.21c3.66.17,6.16.74,8.35,1.59,2.26.87,4.18,2.04,6.1,3.95,1.91,1.9,3.09,3.81,3.97,6.06.85,2.18,1.43,4.66,1.6,8.31.17,3.65.21,4.82.21,14.11s-.04,10.46-.21,14.11Z" style="fill: #1c1c1c; stroke-width: 0px;"/>
      <path d="M49.45,37.5c-6.34,0-11.48,5.11-11.48,11.41s5.14,11.41,11.48,11.41,11.47-5.11,11.47-11.41-5.14-11.41-11.47-11.41Z" style="fill: #1c1c1c; stroke-width: 0px;"/>
    </g>
  </g>
</svg>