<?xml version="1.0" encoding="UTF-8"?>
<svg id="Layer_2" data-name="Layer 2" xmlns="http://www.w3.org/2000/svg" viewBox="0 0 60.6 60.43">
  <g id="Design">
    <g>
      <path d="M51.9,49.92h0c-1.91-.02-3.5,1.46-3.61,3.36h0c-.14,2.44-2.63,4.02-4.89,3.11h0c-1.77-.71-3.79.1-4.58,1.83h0c-1.01,2.22-3.9,2.8-5.69,1.13h0c-1.4-1.3-3.57-1.28-4.93.06h0c-1.75,1.7-4.65,1.2-5.71-1h0c-.83-1.72-2.87-2.48-4.62-1.73h0c-2.24.96-4.77-.56-4.96-3h0c-.15-1.9-1.78-3.35-3.68-3.28h0c-2.44.08-4.24-2.25-3.55-4.59h0c.54-1.83-.45-3.76-2.25-4.39h0c-2.3-.8-3.14-3.63-1.65-5.56h0c1.17-1.51.94-3.67-.51-4.91h0c-1.86-1.58-1.62-4.52.47-5.78h0c1.63-.99,2.2-3.08,1.3-4.76h0c-1.16-2.15.12-4.8,2.52-5.22h0c1.88-.33,3.17-2.08,2.93-3.97h0c-.31-2.42,1.85-4.43,4.24-3.96h0c1.87.37,3.7-.79,4.16-2.64h0c.59-2.37,3.32-3.46,5.38-2.16h0c1.61,1.02,3.74.6,4.84-.96h0c1.4-2,4.35-2.03,5.8-.07h0c1.13,1.54,3.27,1.91,4.86.85h0c2.03-1.35,4.79-.32,5.43,2.03h0c.5,1.84,2.36,2.96,4.22,2.55h0c2.38-.53,4.58,1.43,4.33,3.86h0c-.2,1.9,1.13,3.62,3.02,3.9h0c2.41.37,3.76,2.99,2.64,5.16h0c-.87,1.7-.25,3.78,1.4,4.73h0c2.12,1.21,2.42,4.14.6,5.77h0c-1.42,1.27-1.6,3.43-.4,4.92h0c1.54,1.9.76,4.74-1.52,5.59h0c-1.79.67-2.73,2.62-2.15,4.44h0c.75,2.32-1,4.69-3.44,4.67Z" style="fill: #5b4fe9; stroke-width: 0px;"/>
      <g>
        <path d="M45.54,32.16v10.17c0,.25-.2.46-.46.46h-5.25c-.25,0-.46-.2-.46-.46v-9.46c0-2.49-.89-4.19-3.12-4.19-1.7,0-2.71,1.14-3.16,2.25-.16.4-.2.95-.2,1.5v9.9c0,.25-.2.46-.46.46h-5.25c-.25,0-.46-.2-.46-.46.01-2.52.06-14.74.01-17.62,0-.25.2-.46.45-.46h5.24c.25,0,.46.2.46.46v2.17s-.03.04-.04.06h.04v-.06c.82-1.26,2.28-3.06,5.55-3.06,4.05,0,7.09,2.65,7.09,8.34h0ZM17.62,42.79h5.25c.25,0,.46-.2.46-.46v-17.62c0-.25-.2-.46-.46-.46h-5.25c-.25,0-.46.2-.46.46v17.62c0,.25.2.46.46.46Z" style="fill: #fff; stroke-width: 0px;"/>
        <circle cx="20.06" cy="18.6" r="3.3" style="fill: #fff; stroke-width: 0px;"/>
      </g>
    </g>
  </g>
</svg>