<?xml version="1.0" encoding="UTF-8"?>
<svg id="Layer_2" data-name="Layer 2" xmlns="http://www.w3.org/2000/svg" xmlns:xlink="http://www.w3.org/1999/xlink" viewBox="0 0 98.89 98.89">
  <defs>
    <linearGradient id="Degradado_sin_nombre_101" data-name="Degradado sin nombre 101" x1="92.27" y1="24.72" x2="6.62" y2="74.17" gradientUnits="userSpaceOnUse">
      <stop offset="0" stop-color="#c49c3c"/>
      <stop offset=".13" stop-color="#f6ea93"/>
      <stop offset=".25" stop-color="#eac140"/>
      <stop offset=".42" stop-color="#564128"/>
      <stop offset=".61" stop-color="#b4842a"/>
      <stop offset=".83" stop-color="#f3dda2"/>
      <stop offset="1" stop-color="#af832b"/>
    </linearGradient>
  </defs>
  <g id="Objects">
    <path d="M49.45,0C22.14,0,0,22.14,0,49.45s22.14,49.45,49.45,49.45,49.45-22.14,49.45-49.45S76.75,0,49.45,0ZM34.52,74.36h-12.05v-38.71h12.05v38.71ZM28.5,30.35c-3.86,0-6.98-3.13-6.98-6.98s3.12-6.97,6.98-6.97,6.97,3.13,6.97,6.97-3.12,6.98-6.97,6.98ZM79.58,74.36h-12.02v-18.82c0-4.49-.09-10.27-6.26-10.27s-7.22,4.89-7.22,9.94v19.15h-12.02v-38.71h11.53v5.29h.16c1.61-3.04,5.53-6.25,11.39-6.25,12.17,0,14.42,8.02,14.42,18.44v21.24Z" style="fill: url(#Degradado_sin_nombre_101); stroke-width: 0px;"/>
  </g>
</svg>