<?xml version="1.0" encoding="UTF-8"?>
<svg id="Layer_2" data-name="Layer 2" xmlns="http://www.w3.org/2000/svg" viewBox="0 0 54.49 54.49">
  <g id="Design">
    <g>
      <g>
        <path d="M27.25,54.49C12.22,54.49,0,42.27,0,27.25S12.22,0,27.25,0s27.25,12.22,27.25,27.25-12.22,27.25-27.25,27.25Z" style="fill: #007ab9; stroke-width: 0px;"/>
        <path d="M42.65,29.32v10.17c0,.25-.2.46-.46.46h-5.25c-.25,0-.46-.2-.46-.46v-9.46c0-2.49-.89-4.19-3.12-4.19-1.7,0-2.71,1.14-3.16,2.25-.16.4-.2.95-.2,1.5v9.9c0,.25-.2.46-.46.46h-5.25c-.25,0-.46-.2-.46-.46.01-2.52.06-14.74.01-17.62,0-.25.2-.46.45-.46h5.24c.25,0,.46.2.46.46v2.17s-.03.04-.04.06h.04v-.06c.82-1.26,2.28-3.06,5.55-3.06,4.05,0,7.09,2.65,7.09,8.34h0ZM14.73,39.95h5.25c.25,0,.46-.2.46-.46v-17.62c0-.25-.2-.46-.46-.46h-5.25c-.25,0-.46.2-.46.46v17.62c0,.25.2.46.46.46Z" style="fill: #fff; stroke-width: 0px;"/>
      </g>
      <circle cx="17.17" cy="15.76" r="3.3" style="fill: #fff; stroke-width: 0px;"/>
    </g>
  </g>
</svg>