<?xml version="1.0" encoding="UTF-8"?>
<svg id="Layer_2" data-name="Layer 2" xmlns="http://www.w3.org/2000/svg" viewBox="0 0 98.89 98.89">
  <g id="Objects">
    <path d="M0,0v98.89h98.89V0H0ZM32.48,76.74h-12.75v-40.98h12.75v40.98ZM26.1,30.15c-4.09,0-7.39-3.31-7.39-7.39s3.3-7.38,7.39-7.38,7.38,3.31,7.38,7.38-3.3,7.39-7.38,7.39ZM80.18,76.74h-12.72v-19.93c0-4.75-.09-10.87-6.62-10.87s-7.64,5.18-7.64,10.52v20.27h-12.72v-40.98h12.21v5.6h.17c1.7-3.22,5.86-6.62,12.05-6.62,12.89,0,15.27,8.48,15.27,19.52v22.48Z" style="fill: #1c1c1c; stroke-width: 0px;"/>
  </g>
</svg>