<?xml version="1.0" encoding="UTF-8"?>
<svg id="Layer_2" data-name="Layer 2" xmlns="http://www.w3.org/2000/svg" viewBox="0 0 30.21 28.86">
  <g id="Design">
    <g>
      <path d="M30.21,17.7v10.68c0,.26-.21.48-.48.48h-5.51c-.26,0-.48-.21-.48-.48v-9.93c0-2.61-.93-4.4-3.28-4.4-1.79,0-2.85,1.2-3.32,2.37-.17.42-.21.99-.21,1.58v10.39c0,.26-.21.48-.48.48h-5.51c-.26,0-.48-.21-.48-.48.01-2.64.07-15.48.01-18.5,0-.27.21-.48.48-.48h5.5c.26,0,.48.21.48.48v2.28s-.03.04-.04.06h.04v-.06c.86-1.32,2.39-3.21,5.83-3.21,4.26,0,7.45,2.78,7.45,8.76h0ZM.9,28.86h5.51c.26,0,.48-.21.48-.48V9.88c0-.26-.21-.48-.48-.48H.9c-.26,0-.48.21-.48.48v18.5c0,.26.21.48.48.48Z" style="fill: #007ab9; stroke-width: 0px;"/>
      <path d="M6.93,3.46c0,1.91-1.55,3.46-3.46,3.46S0,5.38,0,3.46,1.55,0,3.46,0s3.46,1.55,3.46,3.46Z" style="fill: #007ab9; stroke-width: 0px;"/>
    </g>
  </g>
</svg>