<?xml version="1.0" encoding="UTF-8"?>
<svg id="Layer_2" data-name="Layer 2" xmlns="http://www.w3.org/2000/svg" xmlns:xlink="http://www.w3.org/1999/xlink" viewBox="0 0 98.89 98.89">
  <defs>
    <linearGradient id="Degradado_sin_nombre_122" data-name="Degradado sin nombre 122" x1="6.62" y1="24.72" x2="92.27" y2="74.17" gradientUnits="userSpaceOnUse">
      <stop offset=".56" stop-color="#7595c9"/>
      <stop offset="1" stop-color="#3665a7"/>
    </linearGradient>
    <linearGradient id="Degradado_sin_nombre_122-2" data-name="Degradado sin nombre 122" x1="26.05" y1="46.24" x2="74.57" y2="46.24" xlink:href="#Degradado_sin_nombre_122"/>
  </defs>
  <g id="Objects">
    <g>
      <path d="M49.45,0C22.14,0,0,22.14,0,49.45s22.14,49.45,49.45,49.45,49.45-22.14,49.45-49.45S76.75,0,49.45,0ZM49.45,94.4c-24.83,0-44.96-20.13-44.96-44.96S24.62,4.49,49.45,4.49s44.96,20.13,44.96,44.96-20.13,44.96-44.96,44.96Z" style="fill: url(#Degradado_sin_nombre_122); stroke-width: 0px;"/>
      <path d="M26.85,38.11h10.06v32.35h-10.06v-32.35ZM31.89,22.02c3.22,0,5.83,2.61,5.83,5.83s-2.61,5.83-5.83,5.83-5.83-2.61-5.83-5.83,2.6-5.83,5.83-5.83M43.22,70.46h10.04v-16c0-4.22.8-8.31,6.03-8.31s5.23,4.83,5.23,8.58v15.73h10.04v-17.74c0-8.71-1.88-15.41-12.05-15.41-4.89,0-8.17,2.68-9.51,5.23h-.14v-4.42h-9.64v32.35Z" style="fill: url(#Degradado_sin_nombre_122-2); stroke-width: 0px;"/>
    </g>
  </g>
</svg>