<?xml version="1.0" encoding="UTF-8"?>
<svg id="Layer_2" data-name="Layer 2" xmlns="http://www.w3.org/2000/svg" viewBox="0 0 98.89 98.89">
  <g id="Objects">
    <g>
      <path d="M25.8,41.05h10v32.15h-10v-32.15ZM30.8,25.06c3.2,0,5.79,2.6,5.79,5.79s-2.59,5.8-5.79,5.8-5.8-2.6-5.8-5.8,2.59-5.79,5.8-5.79M42.07,73.2h9.98v-15.9c0-4.19.79-8.26,5.99-8.26s5.2,4.8,5.2,8.53v15.63h9.98v-17.63c0-8.66-1.87-15.32-11.98-15.32-4.86,0-8.12,2.67-9.46,5.19h-.14v-4.39h-9.58v32.15Z" style="fill: #1966d8; stroke-width: 0px;"/>
      <path d="M88.52,0H10.37C4.67,0,0,4.67,0,10.37v78.14c0,5.71,4.67,10.37,10.37,10.37h78.14c5.71,0,10.37-4.67,10.37-10.37V10.37c0-5.71-4.67-10.37-10.37-10.37ZM92.37,87c0,2.95-2.42,5.37-5.37,5.37H11.89c-2.95,0-5.37-2.42-5.37-5.37V11.89c0-2.95,2.42-5.37,5.37-5.37h75.11c2.95,0,5.37,2.42,5.37,5.37v75.11Z" style="fill: #1966d8; stroke-width: 0px;"/>
    </g>
  </g>
</svg>