<?xml version="1.0" encoding="UTF-8"?>
<svg id="Layer_2" data-name="Layer 2" xmlns="http://www.w3.org/2000/svg" viewBox="0 0 434.09 434.09">
  <g id="Layer_1-2" data-name="Layer 1">
    <path d="M217.04,0c119.87,0,217.04,97.17,217.04,217.04s-97.17,217.04-217.04,217.04S0,336.91,0,217.04,97.17,0,217.04,0" style="fill: #010101; stroke-width: 0px;"/>
    <g>
      <path d="M130.09,166.22h37.32v119.87h-37.32v-119.87ZM148.75,106.65c11.93,0,21.6,9.68,21.6,21.59s-9.67,21.62-21.6,21.62-21.63-9.7-21.63-21.62,9.67-21.59,21.63-21.59" style="fill: #fff; stroke-width: 0px;"/>
      <path d="M190.78,166.22h35.74v16.4h.49c4.98-9.43,17.14-19.36,35.28-19.36,37.72,0,44.68,24.81,44.68,57.09v65.74h-37.23v-58.28c0-13.91-.27-31.79-19.36-31.79s-22.35,15.14-22.35,30.77v59.29h-37.24v-119.87Z" style="fill: #fff; stroke-width: 0px;"/>
    </g>
  </g>
</svg>