<?xml version="1.0" encoding="UTF-8"?>
<svg id="Layer_2" data-name="Layer 2" xmlns="http://www.w3.org/2000/svg" viewBox="0 0 98.89 98.89">
  <g id="Objects">
    <path d="M0,0v98.89h98.89V0H0ZM55.05,69.59c-4.79,0-9.29-2.49-10.83-5.42,0,0-2.37,9.02-2.94,11.23-.89,3.44-3.06,7.61-4.87,10.72-.57.97-1.75,1.4-2.82,1.02-.87-.31-1.48-1.08-1.56-2-.33-3.66-.51-8.49.32-12.05.86-3.69,5.54-23.49,5.54-23.49,0,0-1.41-2.83-1.41-7.02,0-6.57,3.81-11.47,8.55-11.47,4.03,0,5.98,3.03,5.98,6.66,0,4.05-2.58,10.11-3.91,15.73-1.12,4.7,2.36,8.54,7,8.54,8.4,0,14.85-8.86,14.85-21.64,0-11.31-8.13-19.22-19.74-19.22-13.44,0-21.33,10.08-21.33,20.51,0,4.06,1.56,8.41,3.51,10.78.39.47.44.88.33,1.35-.36,1.49-1.15,4.7-1.31,5.36-.21.86-.68,1.05-1.58.63-5.9-2.75-9.6-11.37-9.6-18.31,0-14.9,10.83-28.59,31.22-28.59,16.39,0,29.13,11.68,29.13,27.29s-10.27,29.39-24.52,29.39Z" style="fill: #fff; fill-rule: evenodd; stroke-width: 0px;"/>
  </g>
</svg>