<?xml version="1.0" encoding="UTF-8"?>
<svg id="Layer_2" data-name="Layer 2" xmlns="http://www.w3.org/2000/svg" xmlns:xlink="http://www.w3.org/1999/xlink" viewBox="0 0 98.89 98.89">
  <defs>
    <linearGradient id="Degradado_sin_nombre_136" data-name="Degradado sin nombre 136" x1="6.62" y1="24.72" x2="92.27" y2="74.17" gradientUnits="userSpaceOnUse">
      <stop offset=".21" stop-color="#b87362"/>
      <stop offset="1" stop-color="#c02421"/>
    </linearGradient>
    <linearGradient id="Degradado_sin_nombre_136-2" data-name="Degradado sin nombre 136" x1="27.66" y1="49.45" x2="74.04" y2="49.45" xlink:href="#Degradado_sin_nombre_136"/>
  </defs>
  <g id="Objects">
    <g>
      <path d="M49.45,0C22.14,0,0,22.14,0,49.45s22.14,49.45,49.45,49.45,49.45-22.14,49.45-49.45S76.75,0,49.45,0ZM49.45,94.4c-24.83,0-44.96-20.13-44.96-44.96S24.62,4.49,49.45,4.49s44.96,20.13,44.96,44.96-20.13,44.96-44.96,44.96Z" style="fill: url(#Degradado_sin_nombre_136); stroke-width: 0px;"/>
      <path d="M51.66,20.87c-15.67,0-23.99,10.52-23.99,21.97,0,5.33,2.84,11.96,7.37,14.07.69.32,1.05.18,1.21-.49.12-.5.73-2.97,1.01-4.12.09-.37.05-.68-.25-1.04-1.5-1.82-2.7-5.17-2.7-8.29,0-8.01,6.06-15.76,16.39-15.76,8.92,0,15.17,6.08,15.17,14.77,0,9.82-4.96,16.63-11.42,16.63-3.56,0-6.23-2.95-5.38-6.56,1.02-4.32,3.01-8.98,3.01-12.09,0-2.79-1.5-5.12-4.59-5.12-3.64,0-6.57,3.77-6.57,8.82,0,3.22,1.09,5.39,1.09,5.39,0,0-3.6,15.21-4.26,18.05-.64,2.74-.5,6.45-.24,9.26.06.71.53,1.3,1.2,1.54.82.29,1.73-.04,2.16-.79,1.39-2.39,3.06-5.59,3.75-8.24.44-1.7,2.26-8.63,2.26-8.63,1.18,2.26,4.64,4.17,8.32,4.17,10.95,0,18.84-10.07,18.84-22.58s-9.79-20.97-22.39-20.97" style="fill: url(#Degradado_sin_nombre_136-2); stroke-width: 0px;"/>
    </g>
  </g>
</svg>