<?xml version="1.0" encoding="UTF-8"?>
<svg id="Layer_2" data-name="Layer 2" xmlns="http://www.w3.org/2000/svg" viewBox="0 0 504.28 504.28">
  <g id="Layer_1-2" data-name="Layer 1">
    <path d="M252.14,0c139.25,0,252.14,112.89,252.14,252.14s-112.89,252.14-252.14,252.14S0,391.39,0,252.14,112.89,0,252.14,0" style="fill: #010101; stroke-width: 0px;"/>
    <path d="M234.92,299.22c-.23.78-.44,1.44-.61,2.1-9.98,39.09-11.08,47.77-21.34,65.92-4.89,8.63-10.4,16.8-16.49,24.63-.69.88-1.33,2.03-2.71,1.75-1.5-.32-1.62-1.67-1.78-2.88-1.64-11.88-2.55-23.79-2.15-35.78.52-15.62,2.45-20.99,22.59-105.67.29-1.29-.04-2.37-.47-3.53-4.82-13.01-5.77-26.2-1.56-39.58,9.12-28.88,41.86-31.1,47.59-7.26,3.53,14.74-5.8,34.03-12.97,62.54-5.93,23.53,21.76,40.25,45.43,23.08,21.83-15.83,30.3-53.79,28.69-80.69-3.17-53.63-61.98-65.23-99.3-47.95-42.78,19.78-52.5,72.8-33.19,97.03,2.45,3.08,4.34,4.97,3.53,8.09-1.24,4.85-2.34,9.74-3.68,14.57-1,3.59-4,4.9-7.63,3.42-7.12-2.88-13.05-7.42-17.86-13.38-16.4-20.31-21.1-60.48.59-94.49,24.03-37.68,68.72-52.92,109.52-48.3,48.73,5.54,79.54,38.84,85.3,76.61,2.63,17.21.74,59.64-23.42,89.63-27.79,34.46-72.84,36.75-93.62,15.6-1.6-1.62-2.89-3.52-4.45-5.46Z" style="fill: #fff; fill-rule: evenodd; stroke-width: 0px;"/>
  </g>
</svg>