<?xml version="1.0" encoding="UTF-8"?>
<svg id="Layer_2" data-name="Layer 2" xmlns="http://www.w3.org/2000/svg" xmlns:xlink="http://www.w3.org/1999/xlink" viewBox="0 0 98.89 98.89">
  <defs>
    <linearGradient id="Degradado_sin_nombre_101" data-name="Degradado sin nombre 101" x1="92.27" y1="24.72" x2="6.62" y2="74.17" gradientUnits="userSpaceOnUse">
      <stop offset="0" stop-color="#c49c3c"/>
      <stop offset=".13" stop-color="#f6ea93"/>
      <stop offset=".25" stop-color="#eac140"/>
      <stop offset=".42" stop-color="#564128"/>
      <stop offset=".61" stop-color="#b4842a"/>
      <stop offset=".83" stop-color="#f3dda2"/>
      <stop offset="1" stop-color="#af832b"/>
    </linearGradient>
  </defs>
  <g id="Objects">
    <path d="M49.45,0C22.14,0,0,22.14,0,49.45s22.14,49.45,49.45,49.45,49.45-22.14,49.45-49.45S76.75,0,49.45,0ZM49.45,94.4c-24.83,0-44.96-20.13-44.96-44.96S24.62,4.49,49.45,4.49s44.96,20.13,44.96,44.96-20.13,44.96-44.96,44.96ZM51.66,20.87c12.6,0,22.39,8.98,22.39,20.97s-7.89,22.58-18.84,22.58c-3.68,0-7.14-1.91-8.32-4.17,0,0-1.82,6.93-2.26,8.63-.69,2.64-2.35,5.85-3.75,8.24-.44.75-1.35,1.07-2.16.79-.67-.23-1.14-.83-1.2-1.54-.26-2.81-.4-6.52.24-9.26.66-2.83,4.26-18.05,4.26-18.05,0,0-1.09-2.17-1.09-5.39,0-5.05,2.93-8.82,6.57-8.82,3.1,0,4.59,2.33,4.59,5.12,0,3.11-1.98,7.77-3.01,12.09-.86,3.61,1.81,6.56,5.38,6.56,6.45,0,11.42-6.81,11.42-16.63,0-8.69-6.25-14.77-15.17-14.77-10.33,0-16.39,7.75-16.39,15.76,0,3.12,1.2,6.47,2.7,8.29.3.36.34.67.25,1.04-.27,1.15-.89,3.61-1.01,4.12-.16.66-.53.8-1.21.49-4.54-2.11-7.37-8.74-7.37-14.07,0-11.45,8.32-21.97,23.99-21.97" style="fill: url(#Degradado_sin_nombre_101); stroke-width: 0px;"/>
  </g>
</svg>