<?xml version="1.0" encoding="UTF-8"?>
<svg id="Layer_2" data-name="Layer 2" xmlns="http://www.w3.org/2000/svg" viewBox="0 0 64.04 78.91">
  <g id="Objects">
    <path d="M33.13,0C11.49,0,0,14.53,0,30.34c0,7.35,3.92,16.51,10.18,19.42.95.44,1.45.25,1.67-.67.17-.7,1.01-4.1,1.39-5.69.12-.5.06-.94-.35-1.44-2.07-2.51-3.73-7.14-3.73-11.44,0-11.06,8.37-21.76,22.64-21.76,12.32,0,20.95,8.4,20.95,20.4,0,13.56-6.85,22.96-15.76,22.96-4.92,0-8.61-4.07-7.42-9.06,1.41-5.96,4.15-12.39,4.15-16.69,0-3.85-2.07-7.06-6.34-7.06-5.03,0-9.07,5.21-9.07,12.17,0,4.44,1.5,7.45,1.5,7.45,0,0-4.97,21.01-5.88,24.92-.88,3.78-.69,8.91-.34,12.79.09.97.74,1.8,1.66,2.12,1.13.4,2.39-.05,2.99-1.08,1.92-3.3,4.22-7.73,5.17-11.38.61-2.34,3.12-11.92,3.12-11.92,1.64,3.12,6.41,5.76,11.49,5.76,15.12,0,26.02-13.9,26.02-31.19S50.52,0,33.13,0" style="fill: #020202; stroke-width: 0px;"/>
  </g>
</svg>