<?xml version="1.0" encoding="UTF-8"?>
<svg id="Layer_2" data-name="Layer 2" xmlns="http://www.w3.org/2000/svg" xmlns:xlink="http://www.w3.org/1999/xlink" viewBox="0 0 578.29 578.29">
  <defs>
    <linearGradient id="Degradado_sin_nombre_5" data-name="Degradado sin nombre 5" x1="84.69" y1="84.69" x2="493.6" y2="493.6" gradientUnits="userSpaceOnUse">
      <stop offset="0" stop-color="#f05042"/>
      <stop offset="1" stop-color="#ed1941"/>
    </linearGradient>
  </defs>
  <g id="Layer_1-2" data-name="Layer 1">
    <path d="M289.14,0c159.69,0,289.14,129.45,289.14,289.14s-129.45,289.14-289.14,289.14S0,448.83,0,289.14,129.45,0,289.14,0" style="fill: url(#Degradado_sin_nombre_5); stroke-width: 0px;"/>
    <path d="M269.4,343.14c-.26.9-.51,1.65-.7,2.4-11.44,44.83-12.71,54.78-24.47,75.6-5.61,9.89-11.92,19.27-18.91,28.24-.79,1.01-1.53,2.33-3.11,2-1.72-.37-1.86-1.92-2.05-3.3-1.88-13.62-2.92-27.28-2.47-41.03.59-17.92,2.81-24.06,25.9-121.17.34-1.48-.04-2.71-.54-4.05-5.52-14.91-6.62-30.05-1.79-45.38,10.45-33.12,48-35.66,54.57-8.33,4.04,16.9-6.66,39.02-14.87,71.72-6.8,26.98,24.95,46.16,52.1,26.46,25.03-18.15,34.75-61.68,32.9-92.53-3.64-61.5-71.08-74.8-113.87-54.99-49.05,22.68-60.2,83.49-38.06,111.27,2.81,3.54,4.97,5.69,4.05,9.28-1.43,5.56-2.69,11.17-4.22,16.7-1.14,4.12-4.59,5.62-8.75,3.92-8.16-3.3-14.97-8.5-20.48-15.35-18.81-23.29-24.19-69.36.68-108.36,27.55-43.21,78.8-60.69,125.59-55.38,55.88,6.36,91.21,44.54,97.82,87.86,3.01,19.73.84,68.39-26.86,102.78-31.87,39.52-83.53,42.14-107.36,17.88-1.84-1.86-3.31-4.04-5.1-6.26Z" style="fill: #fff; fill-rule: evenodd; stroke-width: 0px;"/>
  </g>
</svg>