<?xml version="1.0" encoding="UTF-8"?>
<svg id="Layer_2" data-name="Layer 2" xmlns="http://www.w3.org/2000/svg" xmlns:xlink="http://www.w3.org/1999/xlink" viewBox="0 0 98.89 98.89">
  <defs>
    <linearGradient id="Degradado_sin_nombre_101" data-name="Degradado sin nombre 101" x1="92.27" y1="24.72" x2="6.62" y2="74.17" gradientUnits="userSpaceOnUse">
      <stop offset="0" stop-color="#c49c3c"/>
      <stop offset=".13" stop-color="#f6ea93"/>
      <stop offset=".25" stop-color="#eac140"/>
      <stop offset=".42" stop-color="#564128"/>
      <stop offset=".61" stop-color="#b4842a"/>
      <stop offset=".83" stop-color="#f3dda2"/>
      <stop offset="1" stop-color="#af832b"/>
    </linearGradient>
  </defs>
  <g id="Objects">
    <path d="M49.45,0C22.14,0,0,22.14,0,49.45s22.14,49.45,49.45,49.45,49.45-22.14,49.45-49.45S76.75,0,49.45,0ZM54.95,67.27c-4.38,0-8.49-2.27-9.9-4.96,0,0-2.17,8.25-2.69,10.27-.82,3.14-2.8,6.96-4.46,9.8-.52.89-1.6,1.28-2.57.93-.79-.28-1.35-.99-1.43-1.83-.31-3.34-.47-7.76.29-11.02.78-3.37,5.06-21.47,5.06-21.47,0,0-1.29-2.59-1.29-6.41,0-6,3.49-10.49,7.82-10.49,3.68,0,5.47,2.77,5.47,6.09,0,3.7-2.36,9.24-3.58,14.38-1.02,4.3,2.15,7.8,6.39,7.8,7.68,0,13.58-8.1,13.58-19.78,0-10.34-7.43-17.57-18.05-17.57-12.29,0-19.5,9.22-19.5,18.75,0,3.71,1.43,7.69,3.21,9.86.35.43.41.8.3,1.24-.33,1.36-1.05,4.3-1.2,4.9-.19.79-.63.96-1.44.58-5.4-2.51-8.77-10.4-8.77-16.74,0-13.62,9.9-26.14,28.54-26.14,14.98,0,26.63,10.68,26.63,24.95s-9.39,26.87-22.42,26.87Z" style="fill: url(#Degradado_sin_nombre_101); stroke-width: 0px;"/>
  </g>
</svg>