<?xml version="1.0" encoding="UTF-8"?>
<svg id="Layer_2" data-name="Layer 2" xmlns="http://www.w3.org/2000/svg" viewBox="0 0 54.49 54.49">
  <g id="Design">
    <g>
      <path d="M27.25,54.49C12.22,54.49,0,42.27,0,27.25S12.22,0,27.25,0s27.25,12.22,27.25,27.25-12.22,27.25-27.25,27.25ZM27.25,2.93C13.84,2.93,2.93,13.84,2.93,27.25s10.91,24.31,24.31,24.31,24.31-10.91,24.31-24.31S40.65,2.93,27.25,2.93Z" style="fill: #333033; stroke-width: 0px;"/>
      <path d="M29.33,35.99c-1.95-.15-2.77-1.12-4.3-2.05-.68,3.57-1.48,7.03-3.38,9.38-.55.69-1.67.34-1.71-.54-.29-5.69,1.68-10.21,2.65-14.98-1.83-3.09.22-9.3,4.09-7.77,4.76,1.88-4.12,11.48,1.84,12.68,6.23,1.25,8.77-10.81,4.91-14.73-5.58-5.66-16.24-.13-14.93,7.98.25,1.54,1.54,2.25,1.38,3.77-.1.95-1.08,1.49-1.94,1.09-2.47-1.15-3.24-3.68-3.12-6.9.22-6.15,5.52-10.45,10.84-11.05,6.73-.75,13.04,2.47,13.91,8.8.98,7.14-3.04,14.87-10.23,14.32h0Z" style="fill: #333033; stroke-width: 0px;"/>
    </g>
  </g>
</svg>