<?xml version="1.0" encoding="UTF-8"?>
<svg id="Layer_2" data-name="Layer 2" xmlns="http://www.w3.org/2000/svg" xmlns:xlink="http://www.w3.org/1999/xlink" viewBox="0 0 98.89 98.89">
  <defs>
    <linearGradient id="Degradado_sin_nombre_136" data-name="Degradado sin nombre 136" x1="6.62" y1="24.72" x2="92.27" y2="74.17" gradientTransform="translate(93.63 -4.75) rotate(84.19)" gradientUnits="userSpaceOnUse">
      <stop offset=".21" stop-color="#b87362"/>
      <stop offset="1" stop-color="#c02421"/>
    </linearGradient>
  </defs>
  <g id="Objects">
    <g>
      <circle cx="49.45" cy="49.45" r="49.45" transform="translate(-4.75 93.63) rotate(-84.19)" style="fill: url(#Degradado_sin_nombre_136); stroke-width: 0px;"/>
      <path d="M50.73,15.45c-18.64,0-28.54,12.52-28.54,26.14,0,6.34,3.38,14.22,8.77,16.74.82.38,1.25.21,1.44-.58.14-.6.87-3.54,1.2-4.9.11-.43.05-.81-.3-1.24-1.78-2.16-3.21-6.15-3.21-9.86,0-9.53,7.21-18.75,19.5-18.75,10.62,0,18.05,7.23,18.05,17.57,0,11.68-5.9,19.78-13.58,19.78-4.24,0-7.42-3.51-6.39-7.8,1.22-5.14,3.58-10.68,3.58-14.38,0-3.32-1.78-6.09-5.47-6.09-4.33,0-7.82,4.48-7.82,10.49,0,3.83,1.29,6.41,1.29,6.41,0,0-4.28,18.1-5.06,21.47-.76,3.26-.6,7.68-.29,11.02.08.84.64,1.55,1.43,1.83.97.34,2.06-.04,2.57-.93,1.66-2.84,3.64-6.66,4.46-9.8.52-2.02,2.69-10.27,2.69-10.27,1.41,2.68,5.52,4.96,9.9,4.96,13.03,0,22.42-11.98,22.42-26.87s-11.65-24.95-26.63-24.95" style="fill: #fff; stroke-width: 0px;"/>
    </g>
  </g>
</svg>