<?xml version="1.0" encoding="UTF-8"?>
<svg id="Layer_2" data-name="Layer 2" xmlns="http://www.w3.org/2000/svg" viewBox="0 0 37.6 35.39">
  <g id="Design">
    <path d="M0,27.57v-.59c.24-.28.5-.52.89-.59,3.08-.61,5.15-2.58,6.7-5.16,1.31-2.17,1.1-2.67-1.31-3.52-.14-.05-.28-.09-.42-.14-.52-.21-1.04-.44-1.47-.82-1.08-.94-.44-2.29.83-2.6.93-.22,1.74.37,2.64.49.6.08.84-.13.77-.77-.19-1.66-.19-3.32-.11-4.98.15-3.17,1.71-5.59,4.35-7.15,3.86-2.29,7.89-2.31,11.77-.04,2.42,1.42,3.99,3.58,4.33,6.46.22,1.88.13,3.76-.01,5.64-.06.82.1.97.91.78,1-.23,1.84-.75,2.88-.29.56.24,1.04.77,1.03,1.38-.01.42-.25.8-.57,1.07-.48.42-1.11.65-1.69.89-.45.18-.92.33-1.37.53-.91.43-1.17.99-.75,1.89,1.48,3.12,3.64,5.49,7.15,6.31.43.1.77.28,1.03.62v.59c-.33.68-.93,1.06-1.6,1.32-.69.26-1.37.55-2.11.6-1.02.06-1.55.51-1.71,1.57-.15,1.01-.45,1.15-1.48,1.07-.24-.02-.48-.06-.73-.11-2.01-.36-3.9-.15-5.55,1.18-.32.26-.68.48-1.03.7-2.82,1.83-5.7,2.04-8.64.32-.8-.47-1.56-1.01-2.34-1.52-.64-.42-1.34-.66-2.11-.77-1.22-.18-2.39.09-3.57.22-.61.07-1.2-.11-1.23-.74-.08-1.52-1.01-1.89-2.29-2.03-.6-.07-1.18-.31-1.75-.54-.61-.26-1.17-.62-1.46-1.27Z" style="fill: #fefb01; stroke-width: 0px;"/>
  </g>
</svg>