<?xml version="1.0" encoding="UTF-8"?>
<svg id="Layer_2" data-name="Layer 2" xmlns="http://www.w3.org/2000/svg" viewBox="0 0 417.75 417.75">
  <g id="Layer_1-2" data-name="Layer 1">
    <path d="M208.88,0c115.36,0,208.88,93.52,208.88,208.88s-93.52,208.88-208.88,208.88S0,324.23,0,208.88,93.52,0,208.88,0" style="fill: #010101; stroke-width: 0px;"/>
    <path d="M208.89,321.88c-9.21,0-18.46-2.66-27.47-7.91-3.58-2.09-7.04-4.4-10.49-6.72l-3.94-2.63c-3-1.95-6.31-3.15-10.38-3.75-1.5-.23-2.96-.32-4.4-.32-3.54,0-7.01.51-10.5,1l-5.52.71-1.77.08c-6.82,0-11.62-4.08-11.95-10.15-.22-4.12-1.07-5.9-8.6-6.72-4.53-.51-8.78-2.29-12.19-3.72-5.91-2.46-9.83-5.96-11.97-10.69l-.53-1.16v-7.03l1.43-1.67c1.97-2.29,4.54-4.74,8.72-5.56,15.09-3,26.74-12.03,36.63-28.45,3.76-6.24,4.03-8.09,3.98-8.59-.22-.25-1.64-1.53-8.83-4.08-1.44-.48-2.13-.7-2.8-.97-3.49-1.44-7.19-3.09-10.49-5.93-4.44-3.88-6.26-9.07-4.99-14.29,1.39-5.67,6.18-10.16,12.5-11.69,1.3-.31,2.63-.46,3.96-.46,3.54,0,6.63,1.05,9.37,1.98.88.29,1.75.59,2.57.82-.8-8.74-.92-17.79-.41-28.71.97-20.71,11.07-37.35,29.22-48.1,12.64-7.5,25.7-11.3,38.82-11.3s25.91,3.72,38.43,11.07c16.84,9.87,26.9,24.93,29.09,43.53,1.34,11.38.87,22.66.08,33.24.66-.2,1.3-.4,1.94-.6,2.87-.9,6.12-1.93,9.75-1.93,2.64,0,5.13.53,7.59,1.61,6.08,2.67,9.92,8.16,9.77,13.95-.1,3.94-2.1,7.89-5.48,10.83-3.41,2.97-7.43,4.59-10.99,6.02l-4.33,1.67c-1.54.56-3.07,1.11-4.55,1.81-1.84.85-2.29,1.47-2.33,1.53.02.02,0,.62.66,2.01,9.34,19.76,21.82,30.85,39.27,34.94,4.2.97,7.35,2.93,9.63,5.99l1.18,1.58v6.89l-.59,1.24c-2.41,4.96-6.64,8.53-12.93,10.9-5.14,1.98-9.58,3.68-14.49,4-3.53.23-4.34.97-4.84,4.42-.8,5.42-2.91,11.65-12.26,11.65-.9,0-1.91-.05-3.04-.14-1.52-.12-3.1-.39-4.66-.68-3.32-.59-6.31-.9-9.23-.9-7.73,0-14.23,2.22-19.87,6.78-1.83,1.47-3.82,2.75-5.79,4.02-11.18,7.24-21.62,10.61-31.99,10.61Z" style="fill: #fff; stroke-width: 0px;"/>
    <path d="M208.87,101.8c11.87,0,23.76,3.4,35.43,10.25,14.67,8.61,24.14,21.64,26.2,39.1,1.34,11.37.81,22.75-.09,34.13-.29,3.71.21,5.15,2.54,5.15.77,0,1.75-.16,2.97-.44,4.32-1.01,8.13-2.89,12.25-2.89,1.67,0,3.39.31,5.2,1.11,3.37,1.48,6.31,4.67,6.22,8.35-.06,2.52-1.53,4.85-3.44,6.5-2.91,2.54-6.71,3.95-10.24,5.38-2.74,1.11-5.59,1.97-8.26,3.22-5.51,2.58-7.1,5.99-4.52,11.45,8.93,18.87,22.05,33.21,43.27,38.18,2.59.61,4.67,1.67,6.24,3.76v3.55c-2.01,4.14-5.61,6.42-9.69,7.97-4.15,1.57-8.31,3.33-12.77,3.62-6.15.39-9.39,3.08-10.33,9.48-.76,5.17-2.19,6.58-6.41,6.58-.75,0-1.59-.04-2.53-.12-1.47-.12-2.93-.39-4.39-.65-3.39-.6-6.73-.94-9.99-.94-8.44,0-16.38,2.27-23.6,8.09-1.95,1.58-4.12,2.89-6.23,4.26-9.16,5.94-18.43,9.06-27.82,9.06-8.08,0-16.24-2.31-24.48-7.11-4.85-2.83-9.45-6.09-14.16-9.17-3.9-2.55-8.08-3.97-12.76-4.68-1.76-.27-3.51-.38-5.24-.38-5.52,0-10.92,1.1-16.38,1.71-.49.05-.97.08-1.45.08-3.13,0-5.84-1.23-6.02-4.54-.5-9.2-6.14-11.45-13.88-12.3-3.6-.4-7.16-1.86-10.56-3.28-3.71-1.55-7.08-3.75-8.85-7.67v-3.55c1.46-1.69,3-3.13,5.36-3.59,18.66-3.7,31.15-15.6,40.57-31.22,7.92-13.13,6.65-16.14-7.94-21.3-.84-.3-1.69-.54-2.51-.87-3.15-1.3-6.27-2.68-8.88-4.94-6.53-5.68-2.67-13.86,5.04-15.72.88-.21,1.73-.3,2.58-.3,4.59,0,8.81,2.67,13.42,3.25.48.06.91.09,1.32.09,2.69,0,3.74-1.37,3.35-4.76-1.16-10.02-1.12-20.1-.65-30.16.9-19.18,10.33-33.8,26.32-43.27,11.75-6.96,23.77-10.47,35.81-10.47M208.87,89.94c-14.2,0-28.28,4.08-41.86,12.12-19.95,11.82-31.05,30.12-32.12,52.92-.36,7.73-.41,14.56-.15,20.86-1.67-.35-3.48-.59-5.44-.59-1.81,0-3.62.21-5.36.63-8.49,2.05-14.96,8.19-16.88,16.05-1.79,7.34.77,14.87,6.84,20.15,3.96,3.44,8.34,5.39,12.14,6.96.8.33,1.6.6,2.41.86,1.68.59,2.98,1.08,3.99,1.49-.41.75-.93,1.65-1.58,2.73-8.98,14.9-19.37,23.06-32.71,25.71-6.74,1.33-10.59,5.8-12.04,7.48l-2.88,3.34v10.52l1.05,2.33c2.78,6.16,7.71,10.65,15.09,13.73,3.77,1.58,8.46,3.53,13.84,4.13,1.69.19,2.7.4,3.28.57.02.16.04.36.05.59.51,9.28,7.85,15.76,17.86,15.76.9,0,1.82-.05,2.75-.15,1.82-.2,3.64-.45,5.45-.71,3.43-.48,6.66-.93,9.63-.93,1.15,0,2.3.07,3.47.24,3.24.49,5.8,1.41,8.05,2.88l4.12,2.73c3.48,2.33,6.95,4.65,10.56,6.75,9.93,5.79,20.18,8.73,30.45,8.73,11.53,0,23.06-3.69,34.28-10.97l1.11-.71c2.1-1.34,4.19-2.71,6.12-4.27,4.61-3.73,9.74-5.46,16.15-5.46,2.42,0,5.08.26,7.91.76,2.05.37,3.78.65,5.51.79,1.29.1,2.44.16,3.48.16,7.06,0,15.86-2.82,18.06-16.12,5.57-.45,10.29-2.26,14.46-3.86l1.2-.46c7.77-2.94,13.05-7.48,16.16-13.87l1.19-2.45v-10.23l-2.37-3.16c-3.1-4.15-7.49-6.91-13.02-8.2-14.59-3.42-25.35-12.5-33.66-28.47.43-.16.86-.31,1.29-.47,1.21-.44,2.43-.89,3.62-1.37l.82-.33c3.82-1.54,8.57-3.45,12.76-7.1,4.63-4.03,7.37-9.55,7.51-15.16.2-8.21-5.03-15.87-13.31-19.51-3.18-1.4-6.54-2.11-9.97-2.11-1.86,0-3.61.21-5.25.52.41-8.56.4-17.2-.64-25.99-2.41-20.51-13.47-37.09-31.98-47.95-13.44-7.88-27.38-11.88-41.43-11.88h0Z" style="fill: #010101; stroke-width: 0px;"/>
  </g>
</svg>