<?xml version="1.0" encoding="UTF-8"?>
<svg id="Layer_2" data-name="Layer 2" xmlns="http://www.w3.org/2000/svg" xmlns:xlink="http://www.w3.org/1999/xlink" viewBox="0 0 527.58 527.58">
  <defs>
    <linearGradient id="Degradado_sin_nombre_6" data-name="Degradado sin nombre 6" x1="77.26" y1="77.26" x2="450.31" y2="450.31" gradientUnits="userSpaceOnUse">
      <stop offset="0" stop-color="#f8ec24"/>
      <stop offset="1" stop-color="#fdba37"/>
    </linearGradient>
  </defs>
  <g id="Layer_1-2" data-name="Layer 1">
    <path d="M263.79,0c145.69,0,263.79,118.1,263.79,263.79s-118.1,263.79-263.79,263.79S0,409.47,0,263.79,118.1,0,263.79,0" style="fill: url(#Degradado_sin_nombre_6); stroke-width: 0px;"/>
    <path d="M263.8,406.5c-11.64,0-23.31-3.36-34.69-9.99-4.53-2.63-8.89-5.56-13.24-8.49l-4.97-3.32c-3.79-2.46-7.97-3.98-13.11-4.74-1.89-.29-3.74-.41-5.56-.41-4.47,0-8.86.64-13.25,1.27l-6.97.9-2.23.1c-8.61,0-14.68-5.15-15.1-12.82-.28-5.21-1.35-7.45-10.87-8.49-5.72-.64-11.09-2.89-15.4-4.7-7.46-3.1-12.42-7.53-15.12-13.5l-.66-1.46v-8.88l1.8-2.11c2.49-2.89,5.73-5.99,11.01-7.02,19.06-3.78,33.77-15.2,46.26-35.93,4.75-7.88,5.09-10.22,5.02-10.85-.27-.31-2.07-1.93-11.15-5.15-1.82-.6-2.69-.88-3.53-1.23-4.41-1.81-9.08-3.9-13.24-7.49-5.61-4.9-7.9-11.45-6.3-18.04,1.76-7.16,7.8-12.84,15.79-14.77,1.64-.39,3.32-.59,5-.59,4.47,0,8.38,1.33,11.83,2.5,1.11.37,2.2.74,3.25,1.03-1.01-11.04-1.16-22.47-.52-36.26,1.22-26.16,13.99-47.17,36.91-60.74,15.97-9.47,32.46-14.27,49.03-14.27s32.72,4.7,48.53,13.98c21.27,12.46,33.97,31.48,36.74,54.97,1.69,14.38,1.1,28.62.11,41.98.83-.25,1.64-.51,2.45-.76,3.63-1.13,7.73-2.44,12.31-2.44,3.34,0,6.48.66,9.59,2.03,7.68,3.37,12.52,10.3,12.34,17.61-.13,4.97-2.65,9.97-6.92,13.67-4.3,3.75-9.38,5.79-13.88,7.61l-5.47,2.11c-1.94.7-3.88,1.4-5.74,2.28-2.32,1.07-2.89,1.85-2.95,1.93.02.02,0,.78.83,2.54,11.8,24.95,27.56,38.95,49.59,44.12,5.31,1.23,9.29,3.71,12.16,7.57l1.49,1.99v8.7l-.75,1.56c-3.04,6.26-8.39,10.77-16.33,13.77-6.5,2.5-12.09,4.64-18.3,5.05-4.46.29-5.48,1.23-6.12,5.58-1,6.85-3.68,14.71-15.49,14.71-1.13,0-2.41-.06-3.83-.18-1.92-.16-3.91-.49-5.88-.86-4.19-.74-7.97-1.13-11.66-1.13-9.76,0-17.98,2.81-25.09,8.56-2.31,1.85-4.82,3.47-7.31,5.07-14.12,9.15-27.31,13.4-40.4,13.4Z" style="fill: #fff; stroke-width: 0px;"/>
    <path d="M263.78,128.56c14.99,0,30,4.3,44.74,12.95,18.53,10.87,30.49,27.32,33.08,49.38,1.69,14.36,1.02,28.74-.12,43.1-.37,4.69.26,6.5,3.21,6.5.98,0,2.21-.2,3.75-.56,5.45-1.28,10.27-3.64,15.47-3.64,2.11,0,4.28.39,6.57,1.4,4.26,1.87,7.97,5.9,7.86,10.55-.08,3.19-1.94,6.12-4.34,8.21-3.68,3.2-8.47,4.98-12.94,6.79-3.46,1.4-7.06,2.49-10.43,4.07-6.96,3.26-8.96,7.57-5.7,14.46,11.28,23.83,27.85,41.93,54.65,48.22,3.27.77,5.89,2.1,7.88,4.75v4.49c-2.54,5.23-7.08,8.11-12.24,10.06-5.24,1.99-10.5,4.21-16.13,4.57-7.77.5-11.86,3.89-13.04,11.97-.96,6.53-2.77,8.31-8.1,8.31-.95,0-2.01-.06-3.19-.15-1.86-.15-3.7-.49-5.54-.82-4.28-.76-8.49-1.19-12.61-1.19-10.65,0-20.69,2.86-29.8,10.22-2.47,1.99-5.2,3.65-7.87,5.38-11.56,7.5-23.28,11.44-35.13,11.44-10.21,0-20.51-2.92-30.91-8.98-6.13-3.57-11.94-7.69-17.88-11.58-4.92-3.22-10.21-5.01-16.12-5.91-2.23-.34-4.43-.48-6.62-.48-6.97,0-13.79,1.39-20.69,2.15-.61.07-1.23.1-1.82.1-3.95,0-7.37-1.55-7.6-5.74-.64-11.62-7.75-14.46-17.52-15.53-4.55-.5-9.05-2.35-13.34-4.14-4.68-1.96-8.94-4.74-11.18-9.68v-4.49c1.84-2.13,3.78-3.95,6.77-4.54,23.57-4.67,39.34-19.7,51.23-39.43,10-16.59,8.39-20.38-10.03-26.9-1.06-.37-2.14-.68-3.17-1.1-3.98-1.64-7.92-3.38-11.21-6.24-8.25-7.17-3.37-17.5,6.36-19.85,1.11-.27,2.19-.38,3.26-.38,5.8,0,11.12,3.38,16.95,4.1.6.07,1.15.11,1.66.11,3.39,0,4.72-1.73,4.23-6.01-1.46-12.66-1.42-25.38-.83-38.09,1.13-24.23,13.05-42.68,33.24-54.65,14.84-8.8,30.02-13.22,45.22-13.22M263.78,113.58c-17.93,0-35.72,5.15-52.86,15.31-25.19,14.93-39.22,38.04-40.56,66.83-.46,9.76-.52,18.39-.19,26.34-2.11-.45-4.4-.75-6.87-.75-2.29,0-4.57.27-6.76.8-10.73,2.58-18.9,10.35-21.32,20.27-2.26,9.27.97,18.78,8.64,25.45,5,4.34,10.54,6.81,15.34,8.79,1.01.41,2.02.76,3.04,1.09,2.12.75,3.76,1.36,5.04,1.88-.52.95-1.18,2.09-2,3.45-11.34,18.81-24.47,29.13-41.31,32.46-8.51,1.69-13.37,7.33-15.21,9.45l-3.64,4.22v13.28l1.33,2.94c3.51,7.78,9.74,13.45,19.05,17.34,4.76,1.99,10.68,4.46,17.48,5.21,2.13.23,3.41.51,4.14.71.02.21.05.45.06.75.64,11.72,9.92,19.9,22.56,19.9,1.14,0,2.3-.07,3.47-.19,2.3-.25,4.59-.57,6.89-.89,4.33-.6,8.41-1.17,12.16-1.17,1.45,0,2.9.08,4.38.31,4.09.62,7.32,1.77,10.17,3.64l5.2,3.45c4.39,2.94,8.78,5.87,13.34,8.53,12.54,7.31,25.48,11.02,38.46,11.02,14.56,0,29.12-4.66,43.29-13.85l1.4-.9c2.65-1.7,5.29-3.43,7.73-5.39,5.83-4.7,12.31-6.89,20.39-6.89,3.05,0,6.42.32,9.99.96,2.59.46,4.77.83,6.96,1,1.63.13,3.09.2,4.39.2,8.91,0,20.03-3.56,22.8-20.36,7.04-.57,12.99-2.86,18.26-4.88l1.52-.58c9.81-3.72,16.48-9.45,20.4-17.52l1.51-3.1v-12.92l-2.99-3.99c-3.92-5.24-9.45-8.72-16.45-10.36-18.43-4.32-32.02-15.79-42.5-35.96.54-.2,1.08-.39,1.62-.59,1.53-.56,3.06-1.12,4.57-1.73l1.03-.42c4.82-1.94,10.82-4.35,16.11-8.96,5.85-5.09,9.3-12.07,9.48-19.14.25-10.37-6.35-20.04-16.81-24.63-4.02-1.77-8.26-2.66-12.6-2.66-2.35,0-4.56.26-6.62.65.51-10.81.5-21.73-.81-32.82-3.05-25.91-17.01-46.85-40.38-60.55-16.97-9.96-34.58-15-52.32-15h0Z" style="fill: #010101; stroke-width: 0px;"/>
  </g>
</svg>