<?xml version="1.0" encoding="UTF-8"?>
<svg id="Layer_2" data-name="Layer 2" xmlns="http://www.w3.org/2000/svg" xmlns:xlink="http://www.w3.org/1999/xlink" viewBox="0 0 98.89 98.89">
  <defs>
    <linearGradient id="Degradado_sin_nombre_189" data-name="Degradado sin nombre 189" x1="6.62" y1="24.72" x2="92.27" y2="74.17" gradientTransform="translate(36.74 -19.32) rotate(34.53)" gradientUnits="userSpaceOnUse">
      <stop offset="0" stop-color="#e9edb9"/>
      <stop offset="1" stop-color="#edde80"/>
    </linearGradient>
  </defs>
  <g id="Objects">
    <g>
      <circle cx="49.45" cy="49.45" r="49.45" transform="translate(-19.32 36.74) rotate(-34.53)" style="fill: url(#Degradado_sin_nombre_189); stroke-width: 0px;"/>
      <path d="M49.87,81.29c-.18,0-.35,0-.52-.01h0c-.11,0-.22.01-.34.01-4.02,0-6.6-1.82-9.09-3.59-1.72-1.22-3.35-2.37-5.26-2.68-.94-.16-1.87-.23-2.77-.23-1.62,0-2.9.25-3.83.43-.57.11-1.06.21-1.43.21s-.81-.08-.99-.71c-.16-.54-.27-1.07-.38-1.57-.29-1.3-.49-2.11-1.04-2.19-6.38-.98-8.2-2.33-8.61-3.28-.06-.14-.09-.27-.1-.41-.02-.37.24-.69.6-.75,9.8-1.61,14.2-11.63,14.38-12.06,0-.01.01-.02.02-.03.6-1.22.72-2.27.35-3.14-.67-1.58-2.86-2.28-4.32-2.74-.36-.11-.69-.22-.96-.32-2.9-1.15-3.14-2.32-3.02-2.92.19-1.02,1.56-1.73,2.66-1.73.3,0,.57.06.79.16,1.3.61,2.48.92,3.49.92,1.4,0,2.01-.59,2.09-.67-.04-.66-.08-1.36-.12-2.07-.29-4.63-.65-10.39.81-13.68,4.39-9.85,13.71-10.62,16.46-10.62.07,0,1.21-.01,1.21-.01h.16c2.76,0,12.1.77,16.49,10.62,1.47,3.29,1.1,9.05.81,13.68v.2c-.05.65-.09,1.27-.12,1.87.07.07.63.61,1.9.66h0c.96-.04,2.07-.34,3.29-.91.36-.17.75-.2,1.02-.2.41,0,.83.08,1.18.23h.02c.98.36,1.63,1.05,1.64,1.77.01.68-.5,1.7-3.05,2.7-.26.1-.6.21-.96.32-1.45.46-3.65,1.16-4.32,2.74-.37.86-.25,1.92.35,3.14,0,.01.01.02.02.03.18.43,4.57,10.44,14.38,12.06.36.06.62.38.6.75,0,.14-.04.28-.1.41-.4.95-2.23,2.29-8.61,3.27-.52.08-.72.76-1.03,2.18-.11.52-.23,1.03-.39,1.56-.13.46-.42.68-.91.68h-.08c-.34,0-.82-.06-1.43-.18-1.08-.21-2.29-.41-3.83-.41-.9,0-1.83.08-2.77.23-1.91.32-3.54,1.47-5.26,2.68-2.5,1.77-5.08,3.59-9.1,3.59" style="fill: #fff; stroke: #0f0f0f; stroke-miterlimit: 10; stroke-width: 2px;"/>
    </g>
  </g>
</svg>