<?xml version="1.0" encoding="UTF-8"?>
<svg id="Layer_2" data-name="Layer 2" xmlns="http://www.w3.org/2000/svg" xmlns:xlink="http://www.w3.org/1999/xlink" viewBox="0 0 60.6 60.43">
  <defs>
    <linearGradient id="Degradado_sin_nombre_32" data-name="Degradado sin nombre 32" x1="0" y1="30.22" x2="60.6" y2="30.22" gradientUnits="userSpaceOnUse">
      <stop offset="0" stop-color="#cd9b2d"/>
      <stop offset="0" stop-color="#cd9c2e"/>
      <stop offset=".04" stop-color="#deb74d"/>
      <stop offset=".09" stop-color="#eccc65"/>
      <stop offset=".14" stop-color="#f5db76"/>
      <stop offset=".19" stop-color="#fbe480"/>
      <stop offset=".25" stop-color="#fde784"/>
      <stop offset=".38" stop-color="#f5db76"/>
      <stop offset=".62" stop-color="#e2bc53"/>
      <stop offset=".84" stop-color="#cd9b2d"/>
      <stop offset=".9" stop-color="#b78a28"/>
      <stop offset=".99" stop-color="#997322"/>
    </linearGradient>
  </defs>
  <g id="Design">
    <g>
      <path d="M51.9,49.92h0c-1.91-.02-3.5,1.46-3.61,3.37h0c-.14,2.44-2.63,4.02-4.89,3.11h0c-1.77-.71-3.79.1-4.58,1.83h0c-1.01,2.22-3.9,2.8-5.69,1.13h0c-1.4-1.3-3.57-1.28-4.93.06h0c-1.75,1.7-4.65,1.2-5.71-1h0c-.83-1.72-2.87-2.48-4.62-1.73h0c-2.24.96-4.77-.56-4.96-3h0c-.15-1.9-1.78-3.35-3.68-3.28h0c-2.44.08-4.24-2.25-3.55-4.59h0c.54-1.83-.45-3.76-2.25-4.39h0c-2.3-.8-3.14-3.63-1.65-5.56h0c1.17-1.51.94-3.67-.51-4.91h0c-1.86-1.58-1.62-4.52.47-5.78h0c1.63-.99,2.2-3.08,1.3-4.76h0c-1.16-2.15.12-4.8,2.52-5.22h0c1.88-.33,3.17-2.08,2.93-3.97h0c-.31-2.42,1.85-4.43,4.24-3.96h0c1.87.37,3.7-.79,4.16-2.64h0c.59-2.37,3.32-3.46,5.38-2.16h0c1.61,1.02,3.74.6,4.84-.96h0c1.4-2,4.35-2.03,5.8-.07h0c1.13,1.54,3.27,1.91,4.86.85h0c2.03-1.36,4.79-.32,5.43,2.03h0c.5,1.84,2.36,2.96,4.22,2.55h0c2.38-.53,4.58,1.43,4.33,3.86h0c-.2,1.9,1.13,3.62,3.02,3.9h0c2.41.37,3.76,2.99,2.64,5.16h0c-.87,1.7-.25,3.78,1.4,4.73h0c2.12,1.21,2.42,4.14.6,5.77h0c-1.42,1.27-1.6,3.43-.4,4.92h0c1.54,1.9.76,4.74-1.52,5.59h0c-1.79.67-2.73,2.62-2.15,4.44h0c.75,2.32-1,4.69-3.44,4.67Z" style="fill: url(#Degradado_sin_nombre_32); stroke-width: 0px;"/>
      <path d="M12.48,39.09v-.56c.23-.27.47-.49.84-.57,2.94-.58,4.9-2.46,6.39-4.91,1.25-2.07,1.05-2.54-1.25-3.35-.13-.05-.27-.08-.4-.14-.5-.2-.99-.42-1.4-.78-1.03-.89-.42-2.18.79-2.47.89-.21,1.66.36,2.52.46.58.07.8-.12.73-.73-.18-1.58-.18-3.16-.1-4.75.14-3.02,1.63-5.32,4.14-6.81,3.67-2.18,7.51-2.2,11.21-.03,2.31,1.35,3.8,3.41,4.12,6.16.21,1.79.13,3.58-.01,5.37-.06.78.1.92.87.74.96-.22,1.76-.72,2.75-.28.53.23.99.74.98,1.32,0,.4-.24.76-.54,1.02-.46.4-1.06.62-1.61.85-.43.17-.88.31-1.3.51-.87.41-1.12.94-.71,1.8,1.41,2.97,3.47,5.23,6.81,6.01.41.1.73.26.98.59v.56c-.32.65-.88,1.01-1.53,1.25-.65.25-1.31.52-2.01.57-.97.06-1.48.48-1.63,1.49-.14.96-.43,1.1-1.41,1.02-.23-.02-.46-.06-.69-.1-1.92-.34-3.71-.15-5.29,1.13-.31.25-.65.46-.98.67-2.68,1.74-5.43,1.94-8.23.31-.76-.45-1.49-.96-2.23-1.44-.61-.4-1.27-.62-2.01-.74-1.16-.18-2.27.08-3.4.21-.58.06-1.14-.1-1.18-.7-.08-1.45-.97-1.8-2.18-1.94-.57-.06-1.13-.29-1.66-.52-.58-.24-1.11-.59-1.39-1.21Z" style="fill: #fff; stroke-width: 0px;"/>
    </g>
  </g>
</svg>