<?xml version="1.0" encoding="UTF-8"?>
<svg id="Layer_2" data-name="Layer 2" xmlns="http://www.w3.org/2000/svg" viewBox="0 0 98.89 98.89">
  <g id="Objects">
    <path d="M0,0v98.89h98.89V0H0ZM86,68.06c-.44,1.02-2.41,2.47-9.3,3.54-.56.09-.78.82-1.12,2.36-.12.56-.25,1.11-.42,1.69-.15.5-.46.74-.99.74h-.09c-.36,0-.89-.07-1.54-.2-1.17-.23-2.47-.44-4.14-.44-.97,0-1.98.08-2.99.25-2.07.34-3.82,1.58-5.68,2.9-2.7,1.91-5.49,3.88-9.83,3.88-.19,0-.37,0-.56-.01-.12,0-.24.01-.37.01-4.34,0-7.13-1.97-9.83-3.88-1.86-1.31-3.62-2.56-5.69-2.9-1.01-.17-2.02-.25-2.99-.25-1.75,0-3.13.27-4.14.47-.61.12-1.14.22-1.54.22s-.87-.09-1.07-.77c-.17-.59-.3-1.15-.41-1.7-.31-1.41-.53-2.28-1.12-2.37-6.89-1.06-8.86-2.51-9.3-3.55-.06-.15-.1-.29-.11-.44-.02-.39.26-.74.65-.81,10.59-1.74,15.34-12.57,15.54-13.03,0-.01.01-.03.02-.04.65-1.31.78-2.45.38-3.39-.73-1.71-3.1-2.47-4.67-2.96-.39-.12-.75-.24-1.04-.35-3.13-1.24-3.39-2.51-3.27-3.16.21-1.1,1.68-1.87,2.88-1.87.33,0,.61.06.86.17,1.41.66,2.68.99,3.77.99,1.51,0,2.17-.63,2.25-.72-.04-.72-.08-1.46-.13-2.24-.32-5.01-.71-11.23.88-14.78,4.75-10.65,14.82-11.47,17.79-11.47.08,0,1.3-.01,1.3-.01h.18c2.98,0,13.07.83,17.82,11.48,1.58,3.55,1.19,9.78.88,14.78v.22c-.06.7-.1,1.37-.13,2.02.08.08.68.66,2.06.71h0c1.04-.04,2.24-.37,3.56-.99.39-.18.81-.22,1.1-.22.45,0,.9.08,1.27.24h.02c1.06.39,1.76,1.13,1.77,1.91.02.73-.54,1.84-3.29,2.92-.28.11-.65.23-1.03.35-1.57.5-3.94,1.25-4.67,2.96-.4.93-.27,2.07.38,3.39,0,.01.01.03.02.04.2.46,4.94,11.28,15.54,13.03.39.06.67.41.65.81,0,.15-.05.3-.11.44Z" style="fill: #1c1c1c; stroke-width: 0px;"/>
  </g>
</svg>