<?xml version="1.0" encoding="UTF-8"?>
<svg id="Layer_2" data-name="Layer 2" xmlns="http://www.w3.org/2000/svg" viewBox="0 0 98.89 98.89">
  <g id="Objects">
    <g>
      <path d="M50.54,74.35c-.14,0-.27,0-.4,0h0c-.08,0-.17,0-.26,0-3.11,0-5.1-1.41-7.03-2.77-1.33-.94-2.59-1.83-4.07-2.07-.72-.12-1.44-.18-2.14-.18-1.25,0-2.24.19-2.96.33-.44.09-.82.16-1.1.16s-.62-.06-.77-.55c-.12-.42-.21-.82-.3-1.22-.22-1.01-.38-1.63-.8-1.69-4.93-.76-6.34-1.8-6.65-2.54-.04-.1-.07-.21-.08-.32-.01-.28.19-.53.46-.58,7.57-1.25,10.97-8.99,11.11-9.32,0,0,0-.02.01-.03.46-.94.55-1.75.27-2.42-.52-1.22-2.21-1.76-3.34-2.12-.28-.09-.54-.17-.74-.25-2.24-.89-2.43-1.79-2.34-2.26.15-.79,1.2-1.34,2.06-1.34.23,0,.44.04.61.12,1.01.47,1.92.71,2.7.71,1.08,0,1.56-.45,1.61-.51-.03-.51-.06-1.05-.1-1.6-.23-3.58-.51-8.03.63-10.57,3.4-7.61,10.6-8.21,12.72-8.21.05,0,.93,0,.93,0h.13c2.13,0,9.35.59,12.74,8.21,1.13,2.54.85,6.99.63,10.57v.16c-.04.5-.07.98-.1,1.45.05.06.49.47,1.47.51h0c.75-.03,1.6-.27,2.54-.71.28-.13.58-.16.79-.16.32,0,.64.06.91.17h.02c.76.28,1.26.81,1.27,1.37.01.53-.39,1.31-2.35,2.09-.2.08-.46.16-.74.25-1.12.36-2.82.89-3.34,2.12-.28.67-.19,1.48.27,2.42,0,0,0,.02.01.03.14.33,3.54,8.07,11.11,9.32.28.05.48.3.46.58,0,.11-.03.21-.08.32-.31.73-1.72,1.77-6.65,2.53-.4.06-.56.59-.8,1.69-.09.4-.18.79-.3,1.21-.1.36-.33.53-.7.53h-.06c-.26,0-.63-.05-1.1-.14-.83-.16-1.77-.31-2.96-.31-.69,0-1.41.06-2.14.18-1.48.25-2.73,1.13-4.06,2.07-1.93,1.37-3.93,2.77-7.03,2.77" style="fill: #1966d8; stroke-width: 0px;"/>
      <path d="M88.52,0H10.37C4.67,0,0,4.67,0,10.37v78.14c0,5.71,4.67,10.37,10.37,10.37h78.14c5.71,0,10.37-4.67,10.37-10.37V10.37c0-5.71-4.67-10.37-10.37-10.37ZM92.37,87c0,2.95-2.42,5.37-5.37,5.37H11.89c-2.95,0-5.37-2.42-5.37-5.37V11.89c0-2.95,2.42-5.37,5.37-5.37h75.11c2.95,0,5.37,2.42,5.37,5.37v75.11Z" style="fill: #1966d8; stroke-width: 0px;"/>
    </g>
  </g>
</svg>