<?xml version="1.0" encoding="UTF-8"?>
<svg id="Layer_2" data-name="Layer 2" xmlns="http://www.w3.org/2000/svg" viewBox="0 0 80.48 75.54">
  <g id="Objects">
    <path d="M40.75,75.54c-.21,0-.41,0-.62-.01h0c-.13,0-.27.01-.4.01-4.77,0-7.83-2.16-10.79-4.25-2.04-1.44-3.97-2.81-6.24-3.18-1.11-.18-2.21-.28-3.28-.28-1.92,0-3.44.3-4.54.51-.67.13-1.25.25-1.69.25s-.96-.1-1.18-.84c-.19-.64-.32-1.27-.45-1.87-.34-1.55-.58-2.5-1.23-2.6-7.56-1.17-9.73-2.76-10.21-3.89-.07-.16-.11-.32-.12-.48-.02-.43.28-.82.71-.89,11.62-1.91,16.84-13.79,17.05-14.3,0-.01.01-.03.02-.04.71-1.44.85-2.69.42-3.72-.8-1.88-3.4-2.71-5.12-3.25-.42-.13-.82-.26-1.14-.39-3.44-1.36-3.72-2.75-3.59-3.46.23-1.21,1.85-2.06,3.16-2.06.36,0,.67.07.94.19,1.55.72,2.94,1.09,4.14,1.09,1.66,0,2.39-.7,2.47-.79-.04-.79-.09-1.61-.15-2.46-.35-5.5-.78-12.32.96-16.22C25.1.92,36.15.02,39.41.02c.08,0,1.43-.01,1.43-.01h.19c3.27,0,14.34.91,19.56,12.6,1.74,3.9,1.31,10.73.96,16.23v.24c-.06.77-.11,1.51-.15,2.22.08.09.75.73,2.26.78h0c1.14-.04,2.46-.41,3.9-1.08.42-.2.89-.24,1.21-.24.49,0,.98.09,1.39.27h.03c1.17.42,1.93,1.24,1.95,2.1.02.81-.6,2.02-3.61,3.21-.31.12-.71.25-1.14.39-1.72.55-4.32,1.37-5.12,3.25-.44,1.02-.29,2.28.41,3.72,0,.01.01.03.02.04.22.51,5.43,12.38,17.05,14.3.43.07.74.45.71.89,0,.16-.05.33-.12.49-.48,1.12-2.64,2.71-10.21,3.88-.62.1-.86.9-1.23,2.59-.13.61-.27,1.22-.46,1.85-.16.55-.5.81-1.08.81h-.09c-.4,0-.97-.07-1.69-.21-1.28-.25-2.72-.48-4.54-.48-1.07,0-2.17.09-3.28.28-2.27.38-4.2,1.74-6.24,3.18-2.97,2.1-6.03,4.26-10.79,4.26" style="fill: #020202; stroke-width: 0px;"/>
  </g>
</svg>