<?xml version="1.0" encoding="UTF-8"?>
<svg id="Layer_1" data-name="Layer 1" xmlns="http://www.w3.org/2000/svg" viewBox="0 0 672.47 672.47">
  <path d="M336.23,672.47C150.83,672.47,0,521.63,0,336.23S150.83,0,336.23,0s336.24,150.83,336.24,336.23-150.83,336.23-336.24,336.23Z" style="fill: #312c30; stroke-width: 0px;"/>
  <path d="M116.67,452.4v-6.9c2.83-3.27,5.81-6.06,10.4-6.97,36.2-7.17,60.41-30.25,78.67-60.54,15.36-25.47,12.89-31.3-15.41-41.32-1.62-.58-3.29-1.04-4.87-1.69-6.11-2.52-12.16-5.2-17.22-9.59-12.67-11.01-5.18-26.88,9.76-30.48,10.92-2.63,20.43,4.4,31.04,5.72,7.09.88,9.91-1.5,9.05-9.05-2.24-19.43-2.18-38.97-1.27-58.49,1.74-37.21,20.04-65.55,51.04-83.92,45.26-26.82,92.57-27.16,138.16-.42,28.45,16.69,46.82,41.96,50.81,75.84,2.59,22.05,1.56,44.13-.18,66.19-.75,9.58,1.2,11.34,10.68,9.12,11.77-2.75,21.62-8.82,33.85-3.45,6.54,2.87,12.25,9.06,12.07,16.2-.12,4.89-2.97,9.39-6.66,12.61-5.65,4.92-13.02,7.65-19.87,10.43-5.31,2.15-10.84,3.82-16.02,6.25-10.69,5.01-13.76,11.62-8.76,22.2,17.32,36.6,42.76,64.4,83.92,74.05,5.02,1.18,9.05,3.23,12.1,7.3v6.9c-3.9,8.03-10.88,12.45-18.8,15.45-8.04,3.05-16.13,6.46-24.77,7.01-11.93.76-18.21,5.97-20.03,18.39-1.73,11.82-5.29,13.49-17.34,12.52-2.85-.23-5.69-.76-8.51-1.26-23.59-4.19-45.74-1.8-65.14,13.87-3.79,3.06-7.99,5.61-12.09,8.27-33.05,21.44-66.9,23.9-101.42,3.77-9.41-5.49-18.33-11.82-27.46-17.78-7.56-4.94-15.68-7.7-24.75-9.07-14.31-2.17-28.02,1.04-41.94,2.58-7.16.79-14.07-1.25-14.48-8.65-.97-17.84-11.91-22.2-26.91-23.85-6.99-.77-13.89-3.61-20.48-6.36-7.19-3.01-13.74-7.27-17.16-14.87Z" style="fill: #fff; stroke-width: 0px;"/>
</svg>