<?xml version="1.0" encoding="UTF-8"?>
<svg id="Layer_1" data-name="Layer 1" xmlns="http://www.w3.org/2000/svg" viewBox="0 0 629.47 629.47">
  <path d="M314.73,629.47C141.19,629.47,0,488.28,0,314.73S141.19,0,314.73,0s314.74,141.19,314.74,314.73-141.19,314.73-314.74,314.73ZM314.73,33.81c-154.9,0-280.92,126.02-280.92,280.92s126.02,280.92,280.92,280.92,280.92-126.02,280.92-280.92S469.64,33.81,314.73,33.81Z" style="fill: #fffa00; stroke-width: 0px;"/>
  <path d="M109.21,423.47v-6.45c2.65-3.07,5.44-5.67,9.73-6.53,33.88-6.71,56.55-28.31,73.64-56.67,14.37-23.84,12.07-29.3-14.42-38.67-1.52-.54-3.08-.97-4.56-1.59-5.72-2.35-11.39-4.86-16.12-8.97-11.86-10.31-4.85-25.16,9.14-28.53,10.22-2.46,19.13,4.12,29.05,5.35,6.63.83,9.28-1.41,8.47-8.47-2.1-18.19-2.04-36.48-1.19-54.75,1.63-34.83,18.76-61.36,47.78-78.55,42.37-25.11,86.65-25.42,129.33-.39,26.64,15.62,43.83,39.28,47.56,70.99,2.43,20.64,1.46,41.31-.16,61.96-.71,8.97,1.13,10.62,10,8.54,11.01-2.58,20.24-8.25,31.68-3.23,6.12,2.69,11.46,8.48,11.3,15.17-.11,4.58-2.78,8.79-6.24,11.8-5.29,4.61-12.18,7.16-18.6,9.76-4.97,2.02-10.15,3.58-14.99,5.85-10.01,4.69-12.88,10.88-8.2,20.78,16.21,34.26,40.03,60.28,78.56,69.32,4.7,1.1,8.47,3.02,11.32,6.83v6.45c-3.65,7.51-10.18,11.65-17.6,14.46-7.53,2.85-15.09,6.05-23.19,6.56-11.17.71-17.04,5.59-18.75,17.21-1.62,11.06-4.95,12.63-16.23,11.72-2.67-.22-5.32-.71-7.96-1.18-22.08-3.92-42.81-1.69-60.97,12.98-3.54,2.86-7.48,5.25-11.31,7.74-30.94,20.07-62.62,22.37-94.94,3.53-8.81-5.14-17.16-11.06-25.71-16.65-7.07-4.62-14.68-7.21-23.17-8.49-13.39-2.03-26.23.98-39.26,2.41-6.7.74-13.17-1.17-13.55-8.1-.91-16.7-11.15-20.78-25.19-22.33-6.54-.72-13.01-3.38-19.17-5.96-6.73-2.81-12.86-6.81-16.06-13.92Z" style="fill: #fffa00; stroke-width: 0px;"/>
</svg>