<?xml version="1.0" encoding="UTF-8"?>
<svg id="Layer_2" data-name="Layer 2" xmlns="http://www.w3.org/2000/svg" viewBox="0 0 98.89 98.89">
  <g id="Objects">
    <g>
      <path d="M49.45,0C22.14,0,0,22.14,0,49.45s22.14,49.45,49.45,49.45,49.45-22.14,49.45-49.45S76.75,0,49.45,0ZM49.45,94.4c-24.83,0-44.96-20.13-44.96-44.96S24.62,4.49,49.45,4.49s44.96,20.13,44.96,44.96-20.13,44.96-44.96,44.96Z" style="fill: #000; stroke-width: 0px;"/>
      <path d="M49.79,75.28c-.14,0-.28,0-.42-.01h0c-.09,0-.18.01-.27.01-3.26,0-5.35-1.48-7.38-2.91-1.4-.99-2.72-1.92-4.27-2.18-.76-.13-1.51-.19-2.24-.19-1.31,0-2.35.2-3.11.35-.46.09-.86.17-1.16.17s-.66-.07-.8-.57c-.13-.44-.22-.87-.31-1.28-.23-1.06-.4-1.71-.84-1.78-5.17-.8-6.65-1.89-6.98-2.66-.05-.11-.07-.22-.08-.33-.02-.3.19-.56.49-.61,7.95-1.31,11.52-9.44,11.66-9.78,0,0,0-.02.01-.03.49-.99.58-1.84.28-2.54-.54-1.29-2.32-1.85-3.5-2.22-.29-.09-.56-.18-.78-.26-2.35-.93-2.55-1.88-2.45-2.37.16-.83,1.26-1.41,2.16-1.41.24,0,.46.04.64.13,1.06.5,2.01.75,2.83.75,1.14,0,1.63-.48,1.69-.54-.03-.54-.06-1.1-.1-1.68-.24-3.76-.53-8.43.66-11.1,3.56-7.99,11.12-8.61,13.35-8.61.06,0,.98,0,.98,0h.13c2.24,0,9.81.62,13.38,8.62,1.19,2.67.9,7.34.66,11.1v.16c-.04.52-.07,1.03-.1,1.52.06.06.51.5,1.54.54h0c.78-.03,1.68-.28,2.67-.74.29-.14.61-.16.83-.16.33,0,.67.06.95.18h.02c.8.29,1.32.85,1.33,1.43.01.55-.41,1.38-2.47,2.19-.21.08-.49.17-.78.26-1.18.37-2.96.94-3.5,2.22-.3.7-.2,1.56.28,2.54,0,0,0,.02.01.03.15.35,3.71,8.47,11.67,9.78.29.05.5.31.49.61,0,.11-.03.22-.08.33-.33.77-1.81,1.86-6.98,2.65-.42.07-.59.62-.84,1.77-.09.42-.18.83-.31,1.27-.11.38-.34.55-.74.55h-.06c-.27,0-.66-.05-1.16-.15-.88-.17-1.86-.33-3.11-.33-.73,0-1.48.06-2.24.19-1.55.26-2.87,1.19-4.27,2.18-2.03,1.43-4.12,2.91-7.38,2.91" style="fill: #000; stroke: #0f0f0f; stroke-miterlimit: 10; stroke-width: 2px;"/>
    </g>
  </g>
</svg>