<?xml version="1.0" encoding="UTF-8"?>
<svg id="Layer_2" data-name="Layer 2" xmlns="http://www.w3.org/2000/svg" viewBox="0 0 587.6 587.6">
  <g id="Layer_1-2" data-name="Layer 1">
    <path d="M293.8,0c162.26,0,293.8,131.54,293.8,293.8s-131.54,293.8-293.8,293.8S0,456.06,0,293.8,131.54,0,293.8,0" style="fill: #010101; stroke-width: 0px;"/>
    <path d="M125.38,286.86s146.98-60.32,197.95-81.56c19.54-8.5,85.81-35.68,85.81-35.68,0,0,30.58-11.89,28.04,16.99-.85,11.89-7.65,53.52-14.44,98.55-10.2,63.72-21.24,133.38-21.24,133.38,0,0-1.7,19.54-16.14,22.94-14.44,3.4-38.23-11.89-42.48-15.29-3.4-2.55-63.72-40.78-85.81-59.47-5.95-5.1-12.74-15.29.85-27.19,30.58-28.04,67.12-62.87,89.2-84.96,10.2-10.2,20.39-33.98-22.09-5.1-60.32,41.63-119.79,80.71-119.79,80.71,0,0-13.59,8.5-39.08.85-25.49-7.65-55.22-17.84-55.22-17.84,0,0-20.39-12.74,14.44-26.34h0Z" style="fill: #fff; stroke-width: 0px;"/>
  </g>
</svg>