<?xml version="1.0" encoding="UTF-8"?>
<svg id="Layer_2" data-name="Layer 2" xmlns="http://www.w3.org/2000/svg" xmlns:xlink="http://www.w3.org/1999/xlink" viewBox="0 0 315.75 315.75">
  <defs>
    <linearGradient id="Degradado_sin_nombre_12" data-name="Degradado sin nombre 12" x1="46.24" y1="46.24" x2="269.51" y2="269.51" gradientUnits="userSpaceOnUse">
      <stop offset="0" stop-color="#30b5e3"/>
      <stop offset=".8" stop-color="#676eb3"/>
      <stop offset="1" stop-color="#765ca7"/>
    </linearGradient>
  </defs>
  <g id="Layer_1-2" data-name="Layer 1">
    <path d="M157.87,0c87.19,0,157.87,70.68,157.87,157.87s-70.68,157.87-157.87,157.87S0,245.07,0,157.87,70.68,0,157.87,0" style="fill: url(#Degradado_sin_nombre_12); stroke-width: 0px;"/>
    <path d="M67.37,154.15s78.98-32.41,106.37-43.83c10.5-4.57,46.11-19.17,46.11-19.17,0,0,16.43-6.39,15.07,9.13-.46,6.39-4.11,28.76-7.76,52.96-5.48,34.24-11.41,71.67-11.41,71.67,0,0-.91,10.5-8.67,12.33-7.76,1.83-20.54-6.39-22.83-8.22-1.83-1.37-34.24-21.91-46.11-31.96-3.2-2.74-6.85-8.22.46-14.61,16.43-15.07,36.07-33.78,47.93-45.65,5.48-5.48,10.96-18.26-11.87-2.74-32.41,22.37-64.37,43.37-64.37,43.37,0,0-7.3,4.57-21,.46-13.7-4.11-29.67-9.59-29.67-9.59,0,0-10.96-6.85,7.76-14.15h0Z" style="fill: #fff; stroke-width: 0px;"/>
  </g>
</svg>