<?xml version="1.0" encoding="UTF-8"?>
<svg id="Layer_2" data-name="Layer 2" xmlns="http://www.w3.org/2000/svg" viewBox="0 0 458.06 458.06">
  <g id="Layer_1-2" data-name="Layer 1">
    <path d="M229.03,0c126.49,0,229.03,102.54,229.03,229.03s-102.54,229.03-229.03,229.03S0,355.52,0,229.03,102.54,0,229.03,0" style="fill: #010101; stroke-width: 0px;"/>
    <path d="M282.32,219.03c1.08.44,2.06.93,3.1,1.38,14.35,6.93,24.86,17.3,30.36,30.17,7.71,17.93,8.45,47.07-14.89,70.36-17.79,17.79-39.45,25.8-70.07,26.04h-.15c-34.49-.25-60.98-11.84-78.81-34.49-15.87-20.15-24.03-48.2-24.32-83.33v-.25c.25-35.13,8.4-63.19,24.27-83.33,17.84-22.65,44.37-34.25,78.86-34.49h.15c34.54.25,61.37,11.79,79.74,34.34,9.04,11.15,15.72,24.57,19.95,40.14l-19.85,5.31c-3.49-12.68-8.75-23.49-15.82-32.13-14.35-17.59-35.87-26.63-64.12-26.83-28.01.25-49.18,9.24-62.99,26.73-12.87,16.36-19.56,40.04-19.8,70.36.25,30.32,6.93,54,19.8,70.41,13.76,17.49,34.98,26.48,62.99,26.73,25.26-.2,41.96-6.19,55.87-20.1,15.87-15.82,15.58-35.28,10.51-47.12-3-6.98-8.4-12.77-15.67-17.15-1.82,13.22-5.8,23.73-12.14,31.84-8.4,10.71-20.34,16.51-35.72,17.34-11.6.64-22.75-2.16-31.4-7.86-10.22-6.78-16.21-17.1-16.85-29.14-1.23-23.73,17.54-40.78,46.78-42.45,10.37-.59,20.1-.15,29.09,1.38-1.18-7.27-3.59-13.07-7.17-17.3-4.91-5.75-12.58-8.7-22.7-8.75h-.34c-8.16,0-19.16,2.26-26.19,12.92l-16.9-11.6c9.43-14.3,24.71-22.16,43.14-22.16h.39c30.76.2,49.09,19.41,50.95,52.92l-.1.1h.05ZM205.67,252.83c.64,12.33,13.95,18.08,26.83,17.34,12.58-.69,26.83-5.6,29.23-35.97-6.49-1.42-13.66-2.16-21.32-2.16-2.36,0-4.72.05-7.08.2-21.08,1.18-28.1,11.4-27.61,20.54l-.05.05h0Z" style="fill: #fff; stroke-width: 0px;"/>
  </g>
</svg>