<?xml version="1.0" encoding="UTF-8"?>
<svg id="Layer_2" data-name="Layer 2" xmlns="http://www.w3.org/2000/svg" xmlns:xlink="http://www.w3.org/1999/xlink" viewBox="0 0 344.74 344.74">
  <defs>
    <linearGradient id="linear-gradient" x1="50.49" y1="50.49" x2="294.25" y2="294.25" gradientUnits="userSpaceOnUse">
      <stop offset="0" stop-color="#24114b"/>
      <stop offset=".96" stop-color="#020104"/>
      <stop offset="1" stop-color="#010101"/>
    </linearGradient>
  </defs>
  <g id="Layer_1-2" data-name="Layer 1">
    <g>
      <circle cx="172.37" cy="172.37" r="172.37" style="fill: url(#linear-gradient); stroke-width: 0px;"/>
      <path d="M212.47,164.84c.81.33,1.55.7,2.33,1.04,10.8,5.21,18.71,13.02,22.85,22.71,5.81,13.5,6.36,35.43-11.2,52.95-13.39,13.39-29.69,19.41-52.73,19.6h-.11c-25.96-.18-45.89-8.91-59.31-25.96-11.94-15.16-18.08-36.28-18.3-62.72v-.18c.18-26.44,6.32-47.55,18.27-62.72,13.42-17.05,33.39-25.77,59.35-25.96h.11c26,.18,46.19,8.87,60.02,25.85,6.8,8.39,11.83,18.49,15.01,30.21l-14.94,3.99c-2.63-9.54-6.58-17.68-11.91-24.18-10.8-13.24-26.99-20.04-48.26-20.19-21.08.18-37.02,6.95-47.41,20.12-9.69,12.31-14.72,30.14-14.9,52.95.18,22.82,5.21,40.64,14.9,52.99,10.35,13.16,26.33,19.93,47.41,20.12,19.01-.15,31.58-4.66,42.04-15.12,11.94-11.91,11.72-26.55,7.91-35.46-2.26-5.25-6.32-9.61-11.8-12.91-1.37,9.95-4.36,17.86-9.13,23.96-6.32,8.06-15.31,12.42-26.88,13.05-8.73.48-17.12-1.63-23.63-5.92-7.69-5.1-12.2-12.87-12.68-21.93-.92-17.86,13.2-30.69,35.2-31.95,7.8-.44,15.12-.11,21.89,1.04-.89-5.47-2.7-9.84-5.4-13.02-3.7-4.33-9.47-6.55-17.08-6.58h-.26c-6.14,0-14.42,1.7-19.71,9.73l-12.72-8.73c7.1-10.76,18.6-16.68,32.47-16.68h.3c23.15.15,36.94,14.61,38.35,39.83l-.07.07h.04ZM154.79,190.29c.48,9.28,10.5,13.61,20.19,13.05,9.47-.52,20.19-4.22,22-27.07-4.88-1.07-10.28-1.63-16.05-1.63-1.77,0-3.55.04-5.32.15-15.86.89-21.15,8.58-20.78,15.46l-.04.04h0Z" style="fill: #fff; stroke-width: 0px;"/>
    </g>
  </g>
</svg>