<?xml version="1.0" encoding="UTF-8"?>
<svg id="Layer_2" data-name="Layer 2" xmlns="http://www.w3.org/2000/svg" viewBox="0 0 436.55 436.55">
  <g id="Layer_1-2" data-name="Layer 1">
    <g>
      <circle cx="218.28" cy="218.28" r="218.28" style="fill: #010101; stroke-width: 0px;"/>
      <path d="M312.51,194.88h-.04c-2.01.19-4.02.3-6.04.31-22.11,0-42.74-11.14-54.85-29.64v100.94c0,41.2-33.4,74.61-74.61,74.61s-74.61-33.4-74.61-74.61,33.4-74.61,74.61-74.61c1.56,0,3.08.14,4.61.24v36.76c-1.53-.18-3.04-.46-4.61-.46-21.03,0-38.08,17.05-38.08,38.08s17.05,38.08,38.08,38.08,39.61-16.57,39.61-37.61l.37-171.44h35.17c3.32,31.54,28.75,56.18,60.38,58.49v40.86Z" style="fill: #fff; stroke-width: 0px;"/>
    </g>
  </g>
</svg>