<?xml version="1.0" encoding="UTF-8"?>
<svg id="Layer_2" data-name="Layer 2" xmlns="http://www.w3.org/2000/svg" viewBox="0 0 63.93 73.22">
  <g id="Objects">
    <path d="M33.96,0h12.36c1.2,10.57,7.3,16.13,17.62,17.58v12.14c-6.27.28-11.8-1.79-17.24-5.27-.08.87-.18,1.5-.18,2.13-.01,7.72.02,15.44-.01,23.16-.06,13.03-9.4,22.54-22.92,23.43-10.81.71-21.65-8.71-23.35-20.29-2.03-13.84,9.66-26.76,23.61-26.09.76.04,1.51.19,2.38.3v12.31c-.66,0-1.32.03-1.97,0-6.3-.34-11.34,4.03-11.57,10.05-.22,5.74,4.3,10.7,9.93,10.92,6.37.24,11.27-4.22,11.31-10.58.08-15.44.03-30.89.03-46.33,0-1.1,0-2.21,0-3.46Z" style="fill: #020202; stroke-width: 0px;"/>
  </g>
</svg>