<?xml version="1.0" encoding="UTF-8"?>
<svg id="Layer_2" data-name="Layer 2" xmlns="http://www.w3.org/2000/svg" viewBox="0 0 98.89 98.89">
  <g id="Objects">
    <g>
      <path d="M50.81,19.19h10.12c.99,8.65,5.98,13.21,14.43,14.4v9.94c-5.13.23-9.67-1.47-14.11-4.31-.06.71-.15,1.23-.15,1.75,0,6.32.02,12.65-.01,18.97-.05,10.67-7.7,18.46-18.77,19.19-8.85.58-17.73-7.13-19.12-16.62-1.67-11.33,7.91-21.92,19.33-21.36.62.03,1.24.15,1.95.25v10.08c-.54,0-1.08.02-1.61,0-5.16-.28-9.29,3.3-9.47,8.23-.18,4.7,3.52,8.77,8.13,8.94,5.21.2,9.23-3.46,9.26-8.66.07-12.65.03-25.29.03-37.94,0-.9,0-1.81,0-2.83Z" style="fill: #1966d8; stroke-width: 0px;"/>
      <path d="M88.52,0H10.37C4.67,0,0,4.67,0,10.37v78.14c0,5.71,4.67,10.37,10.37,10.37h78.14c5.71,0,10.37-4.67,10.37-10.37V10.37c0-5.71-4.67-10.37-10.37-10.37ZM92.37,87c0,2.95-2.42,5.37-5.37,5.37H11.89c-2.95,0-5.37-2.42-5.37-5.37V11.89c0-2.95,2.42-5.37,5.37-5.37h75.11c2.95,0,5.37,2.42,5.37,5.37v75.11Z" style="fill: #1966d8; stroke-width: 0px;"/>
    </g>
  </g>
</svg>