<?xml version="1.0" encoding="UTF-8"?>
<svg id="Layer_2" data-name="Layer 2" xmlns="http://www.w3.org/2000/svg" xmlns:xlink="http://www.w3.org/1999/xlink" viewBox="0 0 98.89 98.89">
  <defs>
    <linearGradient id="Degradado_sin_nombre_8" data-name="Degradado sin nombre 8" x1="6.62" y1="24.72" x2="92.27" y2="74.17" gradientTransform="translate(88.01 -8.89) rotate(78.47)" gradientUnits="userSpaceOnUse">
      <stop offset=".21" stop-color="#444242"/>
      <stop offset="1" stop-color="#211915"/>
    </linearGradient>
  </defs>
  <g id="Objects">
    <g>
      <circle cx="49.45" cy="49.45" r="49.45" transform="translate(-8.89 88.01) rotate(-78.47)" style="fill: url(#Degradado_sin_nombre_8); stroke-width: 0px;"/>
      <g>
        <path d="M52.27,21.78h10.02c.98,8.57,5.92,13.08,14.29,14.26v9.84c-5.09.23-9.57-1.45-13.98-4.27-.06.71-.15,1.22-.15,1.73,0,6.26.02,12.52-.01,18.79-.05,10.56-7.62,18.28-18.59,19-8.77.57-17.56-7.06-18.94-16.46-1.65-11.22,7.83-21.71,19.15-21.16.61.03,1.22.15,1.93.24v9.98c-.54,0-1.07.02-1.6,0-5.11-.27-9.2,3.27-9.38,8.15-.18,4.65,3.49,8.68,8.05,8.85,5.16.2,9.14-3.42,9.17-8.58.07-12.52.03-25.05.03-37.57,0-.9,0-1.79,0-2.81Z" style="fill: #bf335e; stroke-width: 0px;"/>
        <path d="M49.84,19.46h10.02c.98,8.57,5.92,13.08,14.29,14.26v9.84c-5.09.23-9.57-1.45-13.98-4.27-.06.71-.15,1.22-.15,1.73,0,6.26.02,12.52-.01,18.79-.05,10.56-7.62,18.28-18.59,19-8.77.57-17.56-7.06-18.94-16.46-1.65-11.22,7.83-21.71,19.15-21.16.61.03,1.22.15,1.93.24v9.98c-.54,0-1.07.02-1.6,0-5.11-.27-9.2,3.27-9.38,8.15-.18,4.65,3.49,8.68,8.05,8.85,5.16.2,9.14-3.42,9.17-8.58.07-12.52.03-25.05.03-37.57,0-.9,0-1.79,0-2.81Z" style="fill: #74b4cb; stroke-width: 0px;"/>
        <path d="M65.62,30.51c-2.7-2-4.5-4.88-5.36-8.73h-7.99c0,1.01,0,1.91,0,2.81,0,12.52.04,25.05-.03,37.57-.03,5.16-4.01,8.78-9.17,8.58-2.66-.1-5.01-1.52-6.48-3.6-2.48-1.58-4.12-4.43-4-7.58.18-4.88,4.27-8.42,9.38-8.15.53.03,1.06,0,1.6,0v-7.91c-11.09-.22-20.28,10.11-18.65,21.17.56,3.79,2.32,7.28,4.79,10.08,3.38,2.74,7.55,4.33,11.72,4.06,10.97-.72,18.54-8.44,18.59-19,.03-6.26,0-12.52.01-18.79,0-.51.09-1.02.15-1.73,4.4,2.82,8.89,4.5,13.98,4.27v-9.84c-3.44-.49-6.29-1.54-8.53-3.2Z" style="fill: #fff; stroke-width: 0px;"/>
      </g>
    </g>
  </g>
</svg>