<?xml version="1.0" encoding="UTF-8"?>
<svg id="Layer_1" data-name="Layer 1" xmlns="http://www.w3.org/2000/svg" xmlns:xlink="http://www.w3.org/1999/xlink" viewBox="0 0 468.71 468.71">
  <defs>
    <linearGradient id="linear-gradient" x1="68.64" y1="68.64" x2="400.07" y2="400.07" gradientUnits="userSpaceOnUse">
      <stop offset="0" stop-color="#24114b"/>
      <stop offset=".96" stop-color="#020104"/>
      <stop offset="1" stop-color="#010101"/>
    </linearGradient>
  </defs>
  <path d="M0,234.35C0,104.92,104.92,0,234.35,0s234.35,104.92,234.35,234.35-104.92,234.35-234.35,234.35S0,363.78,0,234.35" style="fill: url(#linear-gradient); stroke-width: 0px;"/>
  <path d="M283.44,197.74c17.02,12.16,37.88,19.32,60.4,19.32v-43.32c-4.26,0-8.51-.44-12.68-1.33v34.1c-22.52,0-43.37-7.16-60.4-19.32v88.4c0,44.23-35.87,80.07-80.11,80.07-16.51,0-31.85-4.99-44.6-13.54,14.55,14.87,34.84,24.09,57.28,24.09,44.25,0,80.12-35.85,80.12-80.07v-88.4h0ZM299.08,154.03c-8.7-9.5-14.41-21.78-15.65-35.35v-5.57h-12.02c3.02,17.25,13.35,31.99,27.67,40.92h0ZM174.02,308.19c-4.86-6.37-7.49-14.16-7.48-22.18,0-20.23,16.41-36.63,36.65-36.63,3.77,0,7.52.58,11.12,1.72v-44.29c-4.2-.57-8.44-.82-12.68-.73v34.47c-3.6-1.14-7.35-1.72-11.12-1.72-20.24,0-36.65,16.4-36.65,36.63,0,14.3,8.2,26.69,20.16,32.72Z" style="fill: #ee2857; fill-rule: evenodd; stroke-width: 0px;"/>
  <path d="M270.75,187.19c17.03,12.16,37.88,19.32,60.4,19.32v-34.1c-12.57-2.68-23.7-9.24-32.07-18.38-14.32-8.93-24.64-23.67-27.67-40.92h-31.57v173.03c-.07,20.17-16.45,36.5-36.65,36.5-11.9,0-22.48-5.67-29.17-14.45-11.96-6.03-20.16-18.42-20.16-32.72,0-20.23,16.4-36.63,36.65-36.63,3.88,0,7.62.6,11.12,1.72v-34.47c-43.47.9-78.43,36.4-78.43,80.06,0,21.79,8.71,41.55,22.84,55.98,12.75,8.56,28.09,13.54,44.6,13.54,44.24,0,80.11-35.85,80.11-80.07v-88.41Z" style="fill: #fff; fill-rule: evenodd; stroke-width: 0px;"/>
  <path d="M331.15,172.41v-9.22c-11.34.02-22.45-3.16-32.07-9.16,8.51,9.32,19.73,15.74,32.07,18.38ZM271.41,113.11c-.29-1.65-.51-3.31-.66-4.97v-5.57h-43.6v173.03c-.07,20.17-16.45,36.5-36.65,36.5-5.93,0-11.53-1.41-16.49-3.91,6.7,8.78,17.27,14.45,29.17,14.45,20.2,0,36.58-16.33,36.65-36.5V113.11h31.57ZM201.63,206.09v-9.82c-3.64-.5-7.32-.75-10.99-.74-44.25,0-80.12,35.85-80.12,80.07,0,27.73,14.1,52.16,35.52,66.53-14.13-14.43-22.83-34.19-22.83-55.98,0-43.66,34.96-79.16,78.43-80.05h0Z" style="fill: #34c0c9; fill-rule: evenodd; stroke-width: 0px;"/>
</svg>