<?xml version="1.0" encoding="UTF-8"?>
<svg id="Layer_2" data-name="Layer 2" xmlns="http://www.w3.org/2000/svg" viewBox="0 0 98.89 98.89">
  <g id="Objects">
    <path d="M0,0v98.89h98.89V0H0ZM82.61,42.8c-6.51.29-12.26-1.86-17.9-5.47-.08.91-.19,1.56-.19,2.22-.01,8.02.03,16.04-.01,24.06-.07,13.53-9.76,23.41-23.81,24.33-11.23.74-22.48-9.04-24.25-21.07-2.11-14.37,10.03-27.79,24.52-27.09.79.04,1.57.2,2.47.31v12.78c-.69,0-1.37.03-2.04,0-6.55-.35-11.78,4.19-12.02,10.43-.22,5.96,4.47,11.12,10.31,11.34,6.61.25,11.71-4.38,11.74-10.99.08-16.04.03-32.08.04-48.11,0-1.15,0-2.29,0-3.59h12.84c1.25,10.97,7.58,16.75,18.3,18.26v12.61Z" style="fill: #fff; stroke-width: 0px;"/>
  </g>
</svg>