<?xml version="1.0" encoding="UTF-8"?>
<svg id="Layer_2" data-name="Layer 2" xmlns="http://www.w3.org/2000/svg" xmlns:xlink="http://www.w3.org/1999/xlink" viewBox="0 0 98.89 98.89">
  <defs>
    <linearGradient id="Degradado_sin_nombre_101" data-name="Degradado sin nombre 101" x1="92.27" y1="24.72" x2="6.62" y2="74.17" gradientUnits="userSpaceOnUse">
      <stop offset="0" stop-color="#c49c3c"/>
      <stop offset=".13" stop-color="#f6ea93"/>
      <stop offset=".25" stop-color="#eac140"/>
      <stop offset=".42" stop-color="#564128"/>
      <stop offset=".61" stop-color="#b4842a"/>
      <stop offset=".83" stop-color="#f3dda2"/>
      <stop offset="1" stop-color="#af832b"/>
    </linearGradient>
    <linearGradient id="Degradado_sin_nombre_101-2" data-name="Degradado sin nombre 101" x1="71.69" y1="38.48" x2="27.65" y2="63.91" xlink:href="#Degradado_sin_nombre_101"/>
    <linearGradient id="Degradado_sin_nombre_101-3" data-name="Degradado sin nombre 101" x1="69.65" y1="36.52" x2="25.61" y2="61.95" xlink:href="#Degradado_sin_nombre_101"/>
    <linearGradient id="Degradado_sin_nombre_101-4" data-name="Degradado sin nombre 101" x1="70.32" y1="37.7" x2="26.97" y2="62.73" xlink:href="#Degradado_sin_nombre_101"/>
  </defs>
  <g id="Objects">
    <g>
      <path d="M49.45,0C22.14,0,0,22.14,0,49.45s22.14,49.45,49.45,49.45,49.45-22.14,49.45-49.45S76.75,0,49.45,0ZM49.45,94.4c-24.83,0-44.96-20.13-44.96-44.96S24.62,4.49,49.45,4.49s44.96,20.13,44.96,44.96-20.13,44.96-44.96,44.96Z" style="fill: url(#Degradado_sin_nombre_101); stroke-width: 0px;"/>
      <g>
        <path d="M51.1,26.28h8.44c.82,7.22,4.99,11.02,12.04,12.01v8.29c-4.28.19-8.06-1.22-11.77-3.6-.05.6-.12,1.03-.13,1.46,0,5.28.02,10.55,0,15.83-.04,8.9-6.42,15.4-15.66,16.01-7.39.48-14.79-5.95-15.95-13.86-1.39-9.45,6.6-18.28,16.13-17.82.52.03,1.03.13,1.63.21v8.41c-.45,0-.9.02-1.34,0-4.31-.23-7.75,2.75-7.9,6.86-.15,3.92,2.94,7.31,6.78,7.46,4.35.16,7.7-2.88,7.72-7.23.06-10.55.02-21.1.02-31.65,0-.75,0-1.51,0-2.36Z" style="fill: url(#Degradado_sin_nombre_101-2); stroke-width: 0px;"/>
        <path d="M49.06,24.32h8.44c.82,7.22,4.99,11.02,12.04,12.01v8.29c-4.28.19-8.06-1.22-11.77-3.6-.05.6-.12,1.03-.13,1.46,0,5.28.02,10.55,0,15.83-.04,8.9-6.42,15.4-15.66,16.01-7.39.48-14.79-5.95-15.95-13.86-1.39-9.45,6.6-18.28,16.13-17.82.52.03,1.03.13,1.63.21v8.41c-.45,0-.9.02-1.34,0-4.31-.23-7.75,2.75-7.9,6.86-.15,3.92,2.94,7.31,6.78,7.46,4.35.16,7.7-2.88,7.72-7.23.06-10.55.02-21.1.02-31.65,0-.76,0-1.51,0-2.36Z" style="fill: url(#Degradado_sin_nombre_101-3); stroke-width: 0px;"/>
        <path d="M62.35,33.63c-2.27-1.68-3.79-4.11-4.51-7.36h-6.73c0,.85,0,1.61,0,2.36,0,10.55.03,21.1-.02,31.65-.02,4.35-3.38,7.39-7.72,7.23-2.24-.09-4.22-1.28-5.46-3.04-2.09-1.33-3.47-3.73-3.37-6.38.15-4.11,3.6-7.09,7.9-6.86.44.02.89,0,1.34,0v-6.66c-9.34-.19-17.08,8.51-15.71,17.83.47,3.19,1.95,6.14,4.04,8.49,2.85,2.31,6.36,3.65,9.87,3.42,9.24-.61,15.62-7.11,15.66-16.01.03-5.27,0-10.55,0-15.83,0-.43.07-.86.13-1.46,3.71,2.37,7.49,3.79,11.77,3.6v-8.29c-2.9-.41-5.3-1.3-7.19-2.7Z" style="fill: url(#Degradado_sin_nombre_101-4); stroke-width: 0px;"/>
      </g>
    </g>
  </g>
</svg>