<?xml version="1.0" encoding="UTF-8"?>
<svg id="Layer_2" data-name="Layer 2" xmlns="http://www.w3.org/2000/svg" xmlns:xlink="http://www.w3.org/1999/xlink" viewBox="0 0 98.89 98.89">
  <defs>
    <linearGradient id="Degradado_sin_nombre_101" data-name="Degradado sin nombre 101" x1="92.27" y1="24.72" x2="6.62" y2="74.17" gradientUnits="userSpaceOnUse">
      <stop offset="0" stop-color="#c49c3c"/>
      <stop offset=".13" stop-color="#f6ea93"/>
      <stop offset=".25" stop-color="#eac140"/>
      <stop offset=".42" stop-color="#564128"/>
      <stop offset=".61" stop-color="#b4842a"/>
      <stop offset=".83" stop-color="#f3dda2"/>
      <stop offset="1" stop-color="#af832b"/>
    </linearGradient>
  </defs>
  <g id="Objects">
    <path d="M49.45,0C22.14,0,0,22.14,0,49.45s22.14,49.45,49.45,49.45,49.45-22.14,49.45-49.45S76.75,0,49.45,0ZM75.51,42.66c-5.09.23-9.57-1.45-13.98-4.27-.06.71-.15,1.22-.15,1.73,0,6.26.02,12.52-.01,18.79-.05,10.56-7.62,18.28-18.59,19-8.77.57-17.56-7.06-18.94-16.46-1.65-11.22,7.83-21.71,19.15-21.16.61.03,1.22.15,1.93.24v9.98c-.54,0-1.07.02-1.6,0-5.11-.27-9.2,3.27-9.38,8.15-.18,4.65,3.49,8.68,8.05,8.85,5.16.2,9.14-3.42,9.17-8.58.07-12.52.03-25.05.03-37.57,0-.9,0-1.79,0-2.81h10.02c.98,8.57,5.92,13.08,14.29,14.26v9.84Z" style="fill: url(#Degradado_sin_nombre_101); stroke-width: 0px;"/>
  </g>
</svg>