<?xml version="1.0" encoding="UTF-8"?>
<svg id="Layer_2" data-name="Layer 2" xmlns="http://www.w3.org/2000/svg" viewBox="0 0 54.49 54.49">
  <g id="Design">
    <g>
      <path d="M27.25,54.49C12.22,54.49,0,42.27,0,27.25S12.22,0,27.25,0s27.25,12.22,27.25,27.25-12.22,27.25-27.25,27.25Z" style="fill: #2c455c; stroke-width: 0px;"/>
      <path d="M28.2,18.32v-5.67c0-.35-.28-.63-.63-.63h-3.35c-.32,0-.59.23-.62.55-.14.84-1.91,5.09-4.17,6.07-.47.21-.9.3-1.35.32-.33.01-.6.29-.6.62v4.32c0,.35.28.63.63.63h2.04c.34,0,.62.28.63.62.05,7.45.05,11.97.05,12,.42,3.4,2.21,5.44,5.38,6.21,1.28.35,2.66.51,4.05.51,1.64-.05,3.24-.31,4.84-.79.26-.08.44-.33.44-.6v-5.27c0-.42-.4-.72-.8-.6-.71.21-1.37.4-1.97.58-1.59.46-2.92.16-4-.87-.1-.16-.25-.36-.31-.57-.15-.82-.25-1.69-.25-2.51v-8.1c0-.35.28-.63.63-.63h5.87c.35,0,.63-.28.63-.63v-4.33c0-.35-.28-.63-.63-.63h-5.88c-.35,0-.63-.28-.63-.63Z" style="fill: #fff; stroke-width: 0px;"/>
    </g>
  </g>
</svg>