<?xml version="1.0" encoding="UTF-8"?>
<svg id="Layer_1" data-name="Layer 1" xmlns="http://www.w3.org/2000/svg" viewBox="0 0 761.48 761.48">
  <path d="M380.74,761.48C170.8,761.48,0,590.68,0,380.74S170.8,0,380.74,0s380.74,170.8,380.74,380.74-170.8,380.74-380.74,380.74ZM380.74,40.9c-187.39,0-339.83,152.45-339.83,339.84s152.45,339.83,339.83,339.83,339.84-152.45,339.84-339.83S568.13,40.9,380.74,40.9Z" style="fill: #312c30; stroke-width: 0px;"/>
  <g>
    <path d="M599.56,241.79c-14.1,6.38-29.61,10.25-44.83,12.8,7.22-1.21,17.87-14.29,22.12-19.58,6.49-8.07,11.89-17.26,14.93-27.18.39-.78.68-1.75-.09-2.34-.97-.39-1.6-.19-2.38.2-16.98,9.1-34.55,15.7-53.24,20.37-1.55.39-2.7,0-3.67-.97-1.55-1.75-3-3.4-4.65-4.76-7.86-6.68-16.29-11.93-25.79-15.81-12.48-5.09-26.12-7.24-39.56-6.37-13.08.85-25.92,4.54-37.53,10.6-11.63,6.08-22.01,14.53-30.28,24.73-8.55,10.55-14.86,23.01-18.08,36.21-3.12,12.74-2.86,25.35-.96,38.24.29,2.14.1,2.42-1.84,2.14-73.14-10.88-133.76-37.05-182.97-93.13-2.14-2.43-3.3-2.43-5.05.19-21.54,32.28-11.09,84.14,15.82,109.63,3.59,3.4,7.27,6.8,11.25,9.89-1.45.3-19.35-1.64-35.31-9.89-2.14-1.35-3.21-.58-3.4,1.85-.2,3.49.1,6.7.58,10.48,4.13,32.72,26.79,62.99,57.83,74.8,3.69,1.55,7.76,2.91,11.73,3.59-7.07,1.55-14.35,2.66-34.63,1.07-2.52-.49-3.49.78-2.52,3.2,15.24,41.53,48.13,53.89,72.76,60.93,3.3.58,6.6.58,9.9,1.35-.2.3-.4.3-.59.59-8.17,12.46-36.5,21.73-49.69,26.34-23.99,8.38-50.11,12.16-75.47,9.66-4.06-.6-4.91-.55-6.01,0-1.11.69-.14,1.66,1.16,2.71,5.15,3.4,10.38,6.41,15.72,9.32,16.1,8.53,32.89,15.33,50.44,20.18,90.66,25.04,192.77,6.64,260.85-60.99,53.45-53.11,72.19-126.35,72.19-199.69,0-2.87,3.39-4.46,5.41-5.97,13.91-10.45,24.96-22.96,35.33-36.92,2.33-3.14,2.19-5.93,2.19-7.07v-.39c0-1.17.14-.82-1.66,0Z" style="fill: #312c30; stroke-width: 0px;"/>
    <path d="M289.24,561.93c-.58.04-7.32,0,0,0,0,0-1.17,0,0,0Z" style="fill: #312c30; fill-rule: evenodd; stroke-width: 0px;"/>
    <path d="M304.18,562.32c0-.75,7.86,0,0,0,0-.39.96,0,0,0Z" style="fill: #312c30; fill-rule: evenodd; stroke-width: 0px;"/>
    <path d="M461.15,198.51c-.49.39-1.16.39-1.84,0h1.84Z" style="fill: #312c30; fill-rule: evenodd; stroke-width: 0px;"/>
  </g>
</svg>