<?xml version="1.0" encoding="UTF-8"?>
<svg id="Layer_2" data-name="Layer 2" xmlns="http://www.w3.org/2000/svg" viewBox="0 0 33.4 27.51">
  <g id="Design">
    <g>
      <path d="M33.27,3.3c-1.06.48-2.23.77-3.37.96.54-.09,1.34-1.08,1.66-1.47.49-.61.89-1.3,1.12-2.05.03-.06.05-.13,0-.18-.07-.03-.12-.01-.18.01-1.28.68-2.6,1.18-4.01,1.53-.12.03-.2,0-.28-.07-.12-.13-.23-.26-.35-.36-.59-.5-1.23-.9-1.94-1.19-.94-.38-1.97-.55-2.98-.48-.98.06-1.95.34-2.82.8-.88.46-1.66,1.09-2.28,1.86-.64.79-1.12,1.73-1.36,2.73-.23.96-.22,1.91-.07,2.88.02.16,0,.18-.14.16-5.5-.82-10.07-2.79-13.77-7.01-.16-.18-.25-.18-.38.01-1.62,2.43-.83,6.33,1.19,8.25.27.26.55.51.85.74-.11.02-1.46-.12-2.66-.74-.16-.1-.24-.04-.26.14-.01.26,0,.5.04.79.31,2.46,2.02,4.74,4.35,5.63.28.12.58.22.88.27-.53.12-1.08.2-2.61.08-.19-.04-.26.06-.19.24,1.15,3.13,3.62,4.06,5.48,4.58.25.04.5.04.75.1-.01.02-.03.02-.04.04-.61.94-2.75,1.63-3.74,1.98-1.81.63-3.77.91-5.68.73-.31-.04-.37-.04-.45,0-.08.05-.01.12.09.2.39.26.78.48,1.18.7,1.21.64,2.48,1.15,3.8,1.52,6.82,1.88,14.51.5,19.63-4.59,4.02-4,5.43-9.51,5.43-15.03,0-.22.26-.34.41-.45,1.05-.79,1.88-1.73,2.66-2.78.18-.24.16-.45.16-.53v-.03c0-.09.01-.06-.12,0Z" style="fill: #3cf; stroke-width: 0px;"/>
      <path d="M9.92,27.39s-.55,0,0,0c0,0-.09,0,0,0Z" style="fill: #fff; fill-rule: evenodd; stroke-width: 0px;"/>
      <path d="M11.04,27.42c0-.06.59,0,0,0,0-.03.07,0,0,0Z" style="fill: #fff; fill-rule: evenodd; stroke-width: 0px;"/>
      <path d="M22.85.04s-.09.03-.14,0h.14Z" style="fill: #fff; fill-rule: evenodd; stroke-width: 0px;"/>
    </g>
  </g>
</svg>