<?xml version="1.0" encoding="UTF-8"?>
<svg id="Layer_2" data-name="Layer 2" xmlns="http://www.w3.org/2000/svg" xmlns:xlink="http://www.w3.org/1999/xlink" viewBox="0 0 98.89 98.89">
  <defs>
    <linearGradient id="Degradado_sin_nombre_101" data-name="Degradado sin nombre 101" x1="92.27" y1="24.72" x2="6.62" y2="74.17" gradientUnits="userSpaceOnUse">
      <stop offset="0" stop-color="#c49c3c"/>
      <stop offset=".13" stop-color="#f6ea93"/>
      <stop offset=".25" stop-color="#eac140"/>
      <stop offset=".42" stop-color="#564128"/>
      <stop offset=".61" stop-color="#b4842a"/>
      <stop offset=".83" stop-color="#f3dda2"/>
      <stop offset="1" stop-color="#af832b"/>
    </linearGradient>
  </defs>
  <g id="Objects">
    <path d="M49.45,0C22.14,0,0,22.14,0,49.45s22.14,49.45,49.45,49.45,49.45-22.14,49.45-49.45S76.75,0,49.45,0ZM79.23,38.35c.03.6.04,1.2.04,1.81,0,18.49-14.07,39.81-39.81,39.81-7.9,0-15.25-2.32-21.45-6.28,1.09.13,2.21.19,3.34.19,6.56,0,12.59-2.24,17.38-5.99-6.12-.11-11.29-4.16-13.07-9.72.85.16,1.73.25,2.63.25,1.28,0,2.51-.17,3.69-.49-6.4-1.28-11.23-6.94-11.23-13.72,0-.06,0-.12,0-.18,1.89,1.05,4.04,1.68,6.34,1.75-3.76-2.51-6.23-6.79-6.23-11.65,0-2.56.69-4.97,1.9-7.03,6.9,8.47,17.21,14.03,28.84,14.62-.24-1.02-.36-2.09-.36-3.19,0-7.73,6.27-13.99,13.99-13.99,4.03,0,7.66,1.7,10.21,4.42,3.19-.63,6.18-1.79,8.88-3.4-1.05,3.27-3.26,6.01-6.15,7.74,2.83-.34,5.53-1.09,8.03-2.2-1.87,2.81-4.25,5.27-6.98,7.25Z" style="fill: url(#Degradado_sin_nombre_101); stroke-width: 0px;"/>
  </g>
</svg>