<?xml version="1.0" encoding="UTF-8"?>
<svg id="Layer_2" data-name="Layer 2" xmlns="http://www.w3.org/2000/svg" xmlns:xlink="http://www.w3.org/1999/xlink" viewBox="0 0 98.89 98.89">
  <defs>
    <linearGradient id="Degradado_sin_nombre_47" data-name="Degradado sin nombre 47" x1="6.62" y1="24.72" x2="92.27" y2="74.17" gradientUnits="userSpaceOnUse">
      <stop offset=".25" stop-color="#9abce2"/>
      <stop offset="1" stop-color="#368ac8"/>
    </linearGradient>
  </defs>
  <g id="Objects">
    <g>
      <circle cx="49.45" cy="49.45" r="49.45" style="fill: url(#Degradado_sin_nombre_47); stroke-width: 0px;"/>
      <path d="M39.46,79.97c25.74,0,39.81-21.32,39.81-39.81,0-.61-.01-1.21-.04-1.81,2.73-1.97,5.11-4.44,6.98-7.25-2.51,1.11-5.2,1.86-8.03,2.2,2.89-1.73,5.11-4.47,6.15-7.74-2.7,1.6-5.7,2.77-8.88,3.4-2.55-2.72-6.19-4.42-10.21-4.42-7.73,0-13.99,6.27-13.99,13.99,0,1.1.12,2.17.36,3.19-11.63-.58-21.94-6.15-28.84-14.62-1.2,2.07-1.9,4.47-1.9,7.03,0,4.85,2.47,9.14,6.23,11.65-2.29-.07-4.45-.7-6.34-1.75,0,.06,0,.12,0,.18,0,6.78,4.83,12.43,11.23,13.72-1.17.32-2.41.49-3.69.49-.9,0-1.78-.09-2.63-.25,1.78,5.56,6.95,9.6,13.07,9.72-4.79,3.75-10.82,5.99-17.38,5.99-1.13,0-2.24-.06-3.34-.19,6.19,3.97,13.54,6.28,21.45,6.28" style="fill: #fff; stroke-width: 0px;"/>
    </g>
  </g>
</svg>