<?xml version="1.0" encoding="UTF-8"?>
<svg id="Layer_2" data-name="Layer 2" xmlns="http://www.w3.org/2000/svg" viewBox="0 0 54.59 54.59">
  <g id="Design">
    <g>
      <path d="M27.29,54.59C12.24,54.59,0,42.34,0,27.29S12.24,0,27.29,0s27.29,12.24,27.29,27.29-12.24,27.29-27.29,27.29Z" style="fill: #3cf; stroke-width: 0px;"/>
      <g>
        <path d="M42.98,17.33c-1.01.46-2.12.73-3.21.92.52-.09,1.28-1.02,1.59-1.4.47-.58.85-1.24,1.07-1.95.03-.06.05-.13,0-.17-.07-.03-.11-.01-.17.01-1.22.65-2.48,1.13-3.82,1.46-.11.03-.19,0-.26-.07-.11-.13-.22-.24-.33-.34-.56-.48-1.17-.86-1.85-1.13-.89-.36-1.87-.52-2.84-.46-.94.06-1.86.33-2.69.76-.83.44-1.58,1.04-2.17,1.77-.61.76-1.06,1.65-1.3,2.6-.22.91-.2,1.82-.07,2.74.02.15,0,.17-.13.15-5.24-.78-9.59-2.66-13.12-6.68-.15-.17-.24-.17-.36.01-1.54,2.31-.79,6.03,1.13,7.86.26.24.52.49.81.71-.1.02-1.39-.12-2.53-.71-.15-.1-.23-.04-.24.13-.01.25,0,.48.04.75.3,2.35,1.92,4.52,4.15,5.36.26.11.56.21.84.26-.51.11-1.03.19-2.48.08-.18-.03-.25.06-.18.23,1.09,2.98,3.45,3.86,5.22,4.37.24.04.47.04.71.1-.01.02-.03.02-.04.04-.59.89-2.62,1.56-3.56,1.89-1.72.6-3.59.87-5.41.69-.29-.04-.35-.04-.43,0-.08.05-.01.12.08.19.37.24.74.46,1.13.67,1.15.61,2.36,1.1,3.62,1.45,6.5,1.79,13.82.48,18.7-4.37,3.83-3.81,5.17-9.06,5.17-14.31,0-.21.24-.32.39-.43,1-.75,1.79-1.65,2.53-2.65.17-.22.16-.42.16-.51v-.03c0-.08.01-.06-.12,0Z" style="fill: #fff; stroke-width: 0px;"/>
        <path d="M20.73,40.28s-.52,0,0,0c0,0-.08,0,0,0Z" style="fill: #fff; fill-rule: evenodd; stroke-width: 0px;"/>
        <path d="M21.8,40.31c0-.05.56,0,0,0,0-.03.07,0,0,0Z" style="fill: #fff; fill-rule: evenodd; stroke-width: 0px;"/>
        <path d="M33.06,14.23s-.08.03-.13,0h.13Z" style="fill: #fff; fill-rule: evenodd; stroke-width: 0px;"/>
      </g>
    </g>
  </g>
</svg>