<?xml version="1.0" encoding="UTF-8"?>
<svg id="Layer_2" data-name="Layer 2" xmlns="http://www.w3.org/2000/svg" xmlns:xlink="http://www.w3.org/1999/xlink" viewBox="0 0 98.89 98.89">
  <defs>
    <linearGradient id="Degradado_sin_nombre_47" data-name="Degradado sin nombre 47" x1="6.62" y1="24.72" x2="92.27" y2="74.17" gradientUnits="userSpaceOnUse">
      <stop offset=".25" stop-color="#9abce2"/>
      <stop offset="1" stop-color="#368ac8"/>
    </linearGradient>
    <linearGradient id="Degradado_sin_nombre_47-2" data-name="Degradado sin nombre 47" x1="25.17" y1="52.26" x2="77.18" y2="52.26" xlink:href="#Degradado_sin_nombre_47"/>
  </defs>
  <g id="Objects">
    <g>
      <path d="M49.45,0C22.14,0,0,22.14,0,49.45s22.14,49.45,49.45,49.45,49.45-22.14,49.45-49.45S76.75,0,49.45,0ZM49.45,94.4c-24.83,0-44.96-20.13-44.96-44.96S24.62,4.49,49.45,4.49s44.96,20.13,44.96,44.96-20.13,44.96-44.96,44.96Z" style="fill: url(#Degradado_sin_nombre_47); stroke-width: 0px;"/>
      <path d="M41.53,73.4c19.63,0,30.36-16.26,30.36-30.36,0-.46,0-.92-.03-1.38,2.08-1.51,3.9-3.39,5.32-5.53-1.91.85-3.97,1.42-6.13,1.68,2.2-1.32,3.89-3.41,4.69-5.9-2.06,1.22-4.35,2.11-6.78,2.59-1.95-2.07-4.72-3.37-7.79-3.37-5.89,0-10.67,4.78-10.67,10.67,0,.84.09,1.65.28,2.43-8.87-.45-16.73-4.69-22-11.15-.92,1.58-1.45,3.41-1.45,5.36,0,3.7,1.88,6.97,4.75,8.88-1.75-.05-3.39-.53-4.83-1.33,0,.04,0,.09,0,.14,0,5.17,3.68,9.48,8.56,10.46-.9.24-1.84.37-2.81.37-.69,0-1.36-.07-2.01-.19,1.36,4.24,5.3,7.33,9.97,7.41-3.65,2.86-8.25,4.57-13.25,4.57-.86,0-1.71-.05-2.55-.15,4.72,3.03,10.33,4.79,16.36,4.79" style="fill: url(#Degradado_sin_nombre_47-2); stroke-width: 0px;"/>
    </g>
  </g>
</svg>