<?xml version="1.0" encoding="UTF-8"?>
<svg id="Layer_1" data-name="Layer 1" xmlns="http://www.w3.org/2000/svg" viewBox="0 0 781.47 781.47">
  <path d="M390.73,781.47C175.28,781.47,0,606.18,0,390.73S175.28,0,390.73,0s390.74,175.28,390.74,390.73-175.28,390.73-390.74,390.73ZM390.73,41.98c-192.31,0-348.76,156.45-348.76,348.76s156.45,348.76,348.76,348.76,348.76-156.45,348.76-348.76S583.04,41.98,390.73,41.98Z" style="fill: #0cf; stroke-width: 0px;"/>
  <g>
    <path d="M615.3,248.14c-14.47,6.55-30.39,10.52-46.01,13.14,7.41-1.24,18.34-14.66,22.7-20.09,6.66-8.28,12.21-17.71,15.32-27.9.4-.8.7-1.8-.1-2.4-1-.4-1.64-.19-2.44.2-17.43,9.34-35.46,16.11-54.64,20.91-1.59.4-2.77,0-3.77-1-1.59-1.79-3.08-3.49-4.78-4.88-8.06-6.86-16.72-12.24-26.47-16.22-12.81-5.22-26.8-7.43-40.6-6.54-13.42.87-26.6,4.65-38.52,10.88-11.94,6.24-22.59,14.91-31.07,25.38-8.77,10.83-15.25,23.62-18.56,37.17-3.2,13.08-2.93,26.02-.98,39.24.3,2.19.1,2.49-1.88,2.19-75.06-11.17-137.27-38.03-187.78-95.58-2.19-2.5-3.38-2.5-5.18.19-22.1,33.13-11.38,86.35,16.23,112.5,3.68,3.49,7.46,6.97,11.54,10.15-1.49.3-19.86-1.69-36.23-10.15-2.19-1.39-3.29-.59-3.49,1.9-.2,3.58.1,6.87.59,10.75,4.24,33.58,27.5,64.64,59.34,76.76,3.78,1.59,7.96,2.99,12.04,3.68-7.26,1.59-14.73,2.73-35.54,1.1-2.59-.5-3.58.8-2.59,3.28,15.64,42.62,49.39,55.3,74.67,62.53,3.38.59,6.77.59,10.16,1.39-.2.31-.41.31-.6.6-8.39,12.78-37.46,22.3-50.99,27.03-24.62,8.6-51.43,12.48-77.45,9.91-4.16-.61-5.04-.57-6.17,0-1.14.71-.14,1.7,1.19,2.78,5.28,3.49,10.65,6.58,16.13,9.56,16.52,8.76,33.75,15.73,51.77,20.71,93.04,25.69,197.84,6.81,267.69-62.59,54.86-54.5,74.09-129.67,74.09-204.93,0-2.95,3.48-4.57,5.55-6.13,14.27-10.72,25.62-23.56,36.26-37.89,2.39-3.22,2.24-6.08,2.24-7.26v-.4c0-1.2.15-.84-1.71,0Z" style="fill: #0cf; stroke-width: 0px;"/>
    <path d="M296.84,576.68c-.6.05-7.52,0,0,0,0,0-1.2,0,0,0Z" style="fill: #fff; fill-rule: evenodd; stroke-width: 0px;"/>
    <path d="M312.17,577.08c0-.77,8.07,0,0,0,0-.4.99,0,0,0Z" style="fill: #fff; fill-rule: evenodd; stroke-width: 0px;"/>
    <path d="M473.25,203.73c-.5.4-1.19.4-1.89,0h1.89Z" style="fill: #fff; fill-rule: evenodd; stroke-width: 0px;"/>
  </g>
</svg>