<?xml version="1.0" encoding="UTF-8"?>
<svg id="Layer_2" data-name="Layer 2" xmlns="http://www.w3.org/2000/svg" viewBox="0 0 77.48 62.97">
  <g id="Objects">
    <path d="M24.37,62.97c29.24,0,45.23-24.22,45.23-45.23,0-.69-.01-1.37-.05-2.05,3.1-2.24,5.8-5.04,7.93-8.23-2.85,1.26-5.91,2.12-9.13,2.5,3.28-1.97,5.8-5.08,6.99-8.79-3.07,1.82-6.47,3.15-10.09,3.86-2.9-3.09-7.03-5.02-11.6-5.02-8.78,0-15.9,7.12-15.9,15.89,0,1.25.14,2.46.41,3.62-13.21-.66-24.92-6.99-32.76-16.61-1.37,2.35-2.15,5.08-2.15,7.99,0,5.51,2.81,10.38,7.07,13.23-2.61-.08-5.06-.8-7.2-1.99,0,.07,0,.14,0,.2,0,7.7,5.48,14.13,12.75,15.58-1.33.36-2.74.56-4.19.56-1.03,0-2.02-.1-2.99-.29,2.02,6.32,7.89,10.91,14.85,11.04-5.44,4.26-12.29,6.8-19.74,6.8-1.28,0-2.55-.07-3.79-.22,7.04,4.51,15.39,7.14,24.37,7.14" style="fill: #020202; stroke-width: 0px;"/>
  </g>
</svg>