<?xml version="1.0" encoding="UTF-8"?>
<svg id="Layer_2" data-name="Layer 2" xmlns="http://www.w3.org/2000/svg" viewBox="0 0 98.89 98.89">
  <g id="Objects">
    <path d="M0,0v98.89h98.89V0H0ZM77.77,35.75c.03.64.04,1.28.04,1.92,0,19.63-14.95,42.28-42.28,42.28-8.39,0-16.2-2.46-22.78-6.67,1.16.14,2.35.21,3.54.21,6.96,0,13.37-2.38,18.45-6.36-6.5-.12-11.99-4.42-13.88-10.32.91.17,1.84.27,2.8.27,1.35,0,2.67-.18,3.92-.52-6.8-1.36-11.92-7.37-11.92-14.57,0-.06,0-.13,0-.19,2,1.12,4.29,1.78,6.73,1.86-3.99-2.66-6.61-7.21-6.61-12.37,0-2.72.74-5.27,2.01-7.47,7.33,8.99,18.28,14.9,30.63,15.52-.26-1.09-.39-2.22-.39-3.39,0-8.2,6.65-14.86,14.86-14.86,4.28,0,8.13,1.81,10.85,4.69,3.38-.67,6.56-1.9,9.43-3.61-1.11,3.47-3.47,6.38-6.53,8.22,3.01-.36,5.87-1.16,8.53-2.34-1.99,2.98-4.51,5.6-7.41,7.69Z" style="fill: #1c1c1c; stroke-width: 0px;"/>
  </g>
</svg>