<?xml version="1.0" encoding="UTF-8"?>
<svg id="Layer_2" data-name="Layer 2" xmlns="http://www.w3.org/2000/svg" viewBox="0 0 98.89 98.89">
  <g id="Objects">
    <g>
      <path d="M40.34,74.88c23.15,0,35.81-19.18,35.81-35.81,0-.55-.01-1.09-.04-1.63,2.46-1.78,4.59-3.99,6.28-6.52-2.25,1-4.68,1.68-7.23,1.98,2.6-1.56,4.59-4.02,5.53-6.96-2.43,1.44-5.12,2.49-7.99,3.05-2.3-2.45-5.57-3.98-9.19-3.98-6.95,0-12.59,5.64-12.59,12.58,0,.99.11,1.95.33,2.87-10.46-.53-19.73-5.53-25.94-13.15-1.08,1.86-1.7,4.02-1.7,6.33,0,4.37,2.22,8.22,5.6,10.47-2.06-.06-4-.63-5.7-1.57,0,.05,0,.11,0,.16,0,6.1,4.34,11.18,10.1,12.34-1.06.29-2.17.44-3.32.44-.81,0-1.6-.08-2.37-.23,1.6,5,6.25,8.64,11.76,8.74-4.31,3.37-9.73,5.39-15.63,5.39-1.01,0-2.02-.06-3-.17,5.57,3.57,12.18,5.65,19.29,5.65" style="fill: #1966d8; stroke-width: 0px;"/>
      <path d="M88.52,0H10.37C4.67,0,0,4.67,0,10.37v78.14c0,5.71,4.67,10.37,10.37,10.37h78.14c5.71,0,10.37-4.67,10.37-10.37V10.37c0-5.71-4.67-10.37-10.37-10.37ZM92.37,87c0,2.95-2.42,5.37-5.37,5.37H11.89c-2.95,0-5.37-2.42-5.37-5.37V11.89c0-2.95,2.42-5.37,5.37-5.37h75.11c2.95,0,5.37,2.42,5.37,5.37v75.11Z" style="fill: #1966d8; stroke-width: 0px;"/>
    </g>
  </g>
</svg>