<?xml version="1.0" encoding="UTF-8"?>
<svg id="Layer_2" data-name="Layer 2" xmlns="http://www.w3.org/2000/svg" viewBox="0 0 71.08 71.4">
  <g id="Objects">
    <path d="M60.72,10.37C54.04,3.69,45.16,0,35.69,0,16.18,0,.3,15.87.3,35.38c0,6.24,1.63,12.32,4.72,17.69L0,71.4l18.76-4.92c5.17,2.82,10.99,4.3,16.91,4.31h.02c19.5,0,35.38-15.87,35.39-35.38,0-9.45-3.67-18.34-10.36-25.03M35.69,64.81h-.01c-5.28,0-10.46-1.42-14.97-4.1l-1.07-.64-11.13,2.92,2.97-10.85-.7-1.11c-2.95-4.68-4.5-10.09-4.5-15.65,0-16.21,13.2-29.4,29.43-29.4,7.86,0,15.24,3.07,20.8,8.62,5.55,5.56,8.61,12.95,8.61,20.8,0,16.22-13.2,29.41-29.42,29.41M51.82,42.79c.89.44,1.47.66,1.7,1.03.22.37.22,2.14-.52,4.2-.74,2.07-4.27,3.95-5.97,4.2-1.52.23-3.45.32-5.57-.35-1.28-.41-2.93-.95-5.04-1.86-8.87-3.83-14.66-12.76-15.11-13.35-.44-.59-3.61-4.79-3.61-9.15s2.28-6.49,3.09-7.37c.81-.89,1.77-1.11,2.36-1.11s1.18,0,1.7.03c.54.03,1.27-.21,1.99,1.52.74,1.77,2.51,6.12,2.73,6.56.22.44.37.96.07,1.55-.29.59-.44.96-.88,1.47-.44.52-.93,1.15-1.33,1.55-.44.44-.9.92-.39,1.8.52.89,2.29,3.78,4.92,6.13,3.38,3.01,6.23,3.94,7.11,4.39.88.44,1.4.37,1.92-.22.52-.59,2.21-2.58,2.8-3.46.59-.89,1.18-.74,1.99-.45.81.3,5.16,2.43,6.04,2.88" style="fill: #020202; fill-rule: evenodd; stroke-width: 0px;"/>
  </g>
</svg>