<?xml version="1.0" encoding="UTF-8"?>
<svg id="Layer_2" data-name="Layer 2" xmlns="http://www.w3.org/2000/svg" xmlns:xlink="http://www.w3.org/1999/xlink" viewBox="0 0 98.89 98.89">
  <defs>
    <linearGradient id="Degradado_sin_nombre_163" data-name="Degradado sin nombre 163" x1="6.62" y1="24.72" x2="92.27" y2="74.17" gradientTransform="translate(49.45 -20.48) rotate(45)" gradientUnits="userSpaceOnUse">
      <stop offset=".25" stop-color="#a3c492"/>
      <stop offset="1" stop-color="#3f813c"/>
    </linearGradient>
  </defs>
  <g id="Objects">
    <g>
      <circle cx="49.45" cy="49.45" r="49.45" transform="translate(-20.48 49.45) rotate(-45)" style="fill: url(#Degradado_sin_nombre_163); stroke-width: 0px;"/>
      <path d="M71.75,25.79c-5.83-5.83-13.58-9.05-21.84-9.05-17.02,0-30.87,13.84-30.87,30.86,0,5.44,1.42,10.75,4.12,15.43l-4.38,15.99,16.37-4.29c4.51,2.46,9.59,3.75,14.75,3.76h.01c17.01,0,30.87-13.85,30.87-30.87,0-8.25-3.21-16-9.03-21.84M49.91,73.27h-.01c-4.6,0-9.12-1.24-13.06-3.57l-.94-.56-9.71,2.55,2.59-9.47-.61-.97c-2.57-4.09-3.93-8.8-3.92-13.65,0-14.14,11.52-25.65,25.67-25.65,6.85,0,13.3,2.67,18.14,7.52,4.85,4.85,7.51,11.29,7.51,18.15,0,14.15-11.52,25.65-25.66,25.65M63.98,54.06c.77.39,1.29.58,1.48.9.19.32.19,1.87-.45,3.67-.64,1.8-3.72,3.45-5.21,3.67-1.33.2-3.01.28-4.86-.3-1.12-.36-2.56-.83-4.4-1.63-7.74-3.34-12.79-11.13-13.18-11.64-.39-.51-3.15-4.18-3.15-7.98s1.99-5.66,2.7-6.43c.71-.77,1.54-.97,2.06-.97s1.03,0,1.48.03c.47.02,1.11-.18,1.73,1.32.64,1.54,2.19,5.34,2.38,5.73.19.39.32.84.07,1.35-.26.51-.39.84-.77,1.29-.39.45-.81,1.01-1.16,1.35-.39.39-.79.8-.34,1.57.45.77,2,3.3,4.29,5.34,2.95,2.63,5.43,3.44,6.2,3.83.77.39,1.22.32,1.67-.19.45-.51,1.93-2.25,2.44-3.02.51-.77,1.03-.64,1.74-.39.71.26,4.5,2.12,5.27,2.51" style="fill: #fff; fill-rule: evenodd; stroke-width: 0px;"/>
    </g>
  </g>
</svg>