<?xml version="1.0" encoding="UTF-8"?>
<svg id="Layer_2" data-name="Layer 2" xmlns="http://www.w3.org/2000/svg" viewBox="0 0 98.89 98.89">
  <g id="Objects">
    <g>
      <path d="M49.56,19.45c-16.74,0-30.35,13.61-30.36,30.34,0,5.73,1.6,11.32,4.64,16.15l.72,1.15-3.07,11.2,11.49-3.01,1.11.66c4.66,2.76,10,4.23,15.45,4.23h.01c16.73,0,30.34-13.61,30.35-30.34,0-8.11-3.15-15.73-8.88-21.46-5.73-5.73-13.35-8.9-21.46-8.9ZM67.41,62.83c-.76,2.13-4.41,4.08-6.16,4.34-1.57.23-3.56.33-5.75-.36-1.32-.42-3.02-.98-5.2-1.92-9.15-3.95-15.13-13.16-15.58-13.77-.46-.61-3.73-4.94-3.73-9.44s2.36-6.69,3.19-7.61c.84-.91,1.83-1.14,2.43-1.14s1.22,0,1.75.03c.56.03,1.31-.21,2.05,1.57.76,1.83,2.59,6.32,2.81,6.77.23.46.38.99.08,1.6-.3.61-.46.99-.91,1.52-.46.53-.96,1.19-1.37,1.6-.46.46-.93.95-.4,1.86.53.91,2.36,3.9,5.07,6.32,3.49,3.11,6.43,4.07,7.34,4.53.91.46,1.44.38,1.98-.23.53-.61,2.28-2.66,2.89-3.57.61-.91,1.22-.76,2.05-.46.84.31,5.32,2.51,6.23,2.97.91.46,1.52.68,1.75,1.07.23.38.23,2.21-.53,4.34Z" style="fill: #fff; fill-rule: evenodd; stroke-width: 0px;"/>
      <path d="M0,0v98.89h98.89V0H0ZM49.55,86.32h-.02c-6.11,0-12.12-1.53-17.45-4.44l-19.36,5.08,5.18-18.92c-3.2-5.53-4.88-11.81-4.87-18.25,0-20.13,16.39-36.5,36.51-36.5,9.77,0,18.94,3.8,25.83,10.7,6.89,6.9,10.69,16.07,10.68,25.82,0,20.13-16.39,36.5-36.51,36.5Z" style="fill: #fff; fill-rule: evenodd; stroke-width: 0px;"/>
    </g>
  </g>
</svg>