<?xml version="1.0" encoding="UTF-8"?>
<svg id="Layer_1" data-name="Layer 1" xmlns="http://www.w3.org/2000/svg" viewBox="0 0 733.47 733.47">
  <path d="M366.74,733.47C164.52,733.47,0,568.95,0,366.73S164.52,0,366.74,0s366.73,164.52,366.73,366.73-164.52,366.73-366.73,366.73Z" style="fill: #312c30; stroke-width: 0px;"/>
  <g>
    <path d="M384.04,128.01c-122.09,0-221.42,99.32-221.42,221.41,0,42.95,12.19,84.2,35.36,120l-33.63,74.09c-3.1,6.83-1.97,14.83,2.89,20.54,3.73,4.37,9.13,6.79,14.71,6.79,1.7,0,3.42-.23,5.11-.69l92.68-25.43c32,17.11,67.87,26.12,104.29,26.12,122.09,0,221.42-99.33,221.42-221.42s-99.33-221.41-221.42-221.41ZM384.04,532.17c-32.34,0-64.16-8.6-92.01-24.88-2.99-1.74-6.36-2.64-9.75-2.64-1.72,0-3.44.23-5.12.69l-60.54,16.61,21.09-46.45c2.87-6.32,2.13-13.68-1.93-19.31-22.56-31.27-34.48-68.18-34.48-106.77,0-100.77,81.98-182.74,182.75-182.74s182.75,81.98,182.75,182.74-81.98,182.75-182.75,182.75Z" style="fill: #fff; fill-rule: evenodd; stroke-width: 0px;"/>
    <path d="M469.17,382.58c-9.27-5.55-21.34-11.74-32.26-7.27-8.38,3.43-13.73,16.55-19.16,23.25-2.79,3.44-6.11,3.98-10.39,2.25-31.46-12.53-55.57-33.53-72.93-62.47-2.94-4.5-2.41-8.04,1.13-12.21,5.25-6.17,11.83-13.18,13.25-21.51,1.42-8.32-2.48-18.05-5.92-25.46-4.4-9.47-9.31-22.97-18.79-28.33-8.72-4.92-20.2-2.17-27.97,4.16-13.41,10.92-19.87,28.02-19.68,44.98.06,4.82.65,9.62,1.77,14.27,2.71,11.19,7.87,21.63,13.69,31.56,4.39,7.49,9.15,14.75,14.3,21.74,16.83,22.86,37.76,42.72,62,57.57,12.11,7.42,25.16,13.92,38.66,18.39,15.15,5.01,28.65,10.22,45.01,7.11,17.13-3.25,34.01-13.85,40.81-30.36,2.01-4.89,3.02-10.33,1.9-15.49-2.33-10.67-16.77-17.01-25.41-22.18Z" style="fill: #fff; fill-rule: evenodd; stroke-width: 0px;"/>
  </g>
</svg>