<?xml version="1.0" encoding="UTF-8"?>
<svg id="Layer_2" data-name="Layer 2" xmlns="http://www.w3.org/2000/svg" viewBox="0 0 54.59 54.59">
  <g id="Design">
    <g>
      <path d="M27.29,54.59C12.24,54.59,0,42.34,0,27.29S12.24,0,27.29,0s27.29,12.24,27.29,27.29-12.24,27.29-27.29,27.29Z" style="fill: #60fc7c; stroke-width: 0px;"/>
      <g>
        <path d="M28.58,9.53c-9.09,0-16.48,7.39-16.48,16.48,0,3.2.91,6.27,2.63,8.93l-2.5,5.51c-.23.51-.15,1.1.22,1.53.28.33.68.51,1.09.51.13,0,.25-.02.38-.05l6.9-1.89c2.38,1.27,5.05,1.94,7.76,1.94,9.09,0,16.48-7.39,16.48-16.48s-7.39-16.48-16.48-16.48ZM28.58,39.6c-2.41,0-4.77-.64-6.85-1.85-.22-.13-.47-.2-.73-.2-.13,0-.26.02-.38.05l-4.51,1.24,1.57-3.46c.21-.47.16-1.02-.14-1.44-1.68-2.33-2.57-5.07-2.57-7.95,0-7.5,6.1-13.6,13.6-13.6s13.6,6.1,13.6,13.6-6.1,13.6-13.6,13.6Z" style="fill: #fff; fill-rule: evenodd; stroke-width: 0px;"/>
        <path d="M34.92,28.47c-.69-.41-1.59-.87-2.4-.54-.62.26-1.02,1.23-1.43,1.73-.21.26-.45.3-.77.17-2.34-.93-4.14-2.5-5.43-4.65-.22-.33-.18-.6.08-.91.39-.46.88-.98.99-1.6.11-.62-.18-1.34-.44-1.89-.33-.7-.69-1.71-1.4-2.11-.65-.37-1.5-.16-2.08.31-1,.81-1.48,2.09-1.46,3.35,0,.36.05.72.13,1.06.2.83.59,1.61,1.02,2.35.33.56.68,1.1,1.06,1.62,1.25,1.7,2.81,3.18,4.61,4.28.9.55,1.87,1.04,2.88,1.37,1.13.37,2.13.76,3.35.53,1.27-.24,2.53-1.03,3.04-2.26.15-.36.22-.77.14-1.15-.17-.79-1.25-1.27-1.89-1.65Z" style="fill: #fff; fill-rule: evenodd; stroke-width: 0px;"/>
      </g>
    </g>
  </g>
</svg>