<?xml version="1.0" encoding="UTF-8"?>
<svg id="Layer_2" data-name="Layer 2" xmlns="http://www.w3.org/2000/svg" viewBox="0 0 34.6 34.6">
  <g id="Design">
    <g>
      <path d="M17.3,0C7.76,0,0,7.76,0,17.3,0,20.65.95,23.88,2.76,26.67L.14,32.46c-.24.53-.15,1.16.23,1.6.29.34.71.53,1.15.53.13,0,.27-.02.4-.05l7.24-1.99c2.5,1.34,5.3,2.04,8.15,2.04,9.54,0,17.3-7.76,17.3-17.3S26.84,0,17.3,0ZM17.3,31.58c-2.53,0-5.01-.67-7.19-1.94-.23-.14-.5-.21-.76-.21-.13,0-.27.02-.4.05l-4.73,1.3,1.65-3.63c.22-.49.17-1.07-.15-1.51-1.76-2.44-2.69-5.33-2.69-8.34,0-7.87,6.4-14.28,14.28-14.28s14.28,6.4,14.28,14.28-6.4,14.28-14.28,14.28Z" style="fill: #60fc7c; fill-rule: evenodd; stroke-width: 0px;"/>
      <path d="M23.95,19.89c-.72-.43-1.67-.92-2.52-.57-.65.27-1.07,1.29-1.5,1.82-.22.27-.48.31-.81.18-2.46-.98-4.34-2.62-5.7-4.88-.23-.35-.19-.63.09-.95.41-.48.92-1.03,1.03-1.68.11-.65-.19-1.41-.46-1.99-.34-.74-.73-1.79-1.47-2.21-.68-.38-1.58-.17-2.19.32-1.05.85-1.55,2.19-1.54,3.51,0,.38.05.75.14,1.12.21.87.62,1.69,1.07,2.47.34.58.72,1.15,1.12,1.7,1.31,1.79,2.95,3.34,4.84,4.5.95.58,1.97,1.09,3.02,1.44,1.18.39,2.24.8,3.52.56,1.34-.25,2.66-1.08,3.19-2.37.16-.38.24-.81.15-1.21-.18-.83-1.31-1.33-1.98-1.73Z" style="fill: #60fc7c; fill-rule: evenodd; stroke-width: 0px;"/>
    </g>
  </g>
</svg>