<?xml version="1.0" encoding="UTF-8"?>
<svg id="Layer_2" data-name="Layer 2" xmlns="http://www.w3.org/2000/svg" viewBox="0 0 98.89 98.89">
  <g id="Objects">
    <path d="M49.92,21.95c-14.15,0-25.67,11.51-25.67,25.65,0,4.85,1.35,9.57,3.92,13.65l.61.97-2.59,9.47,9.71-2.55.94.56c3.94,2.34,8.46,3.57,13.06,3.57h.01c14.14,0,25.65-11.51,25.66-25.65,0-6.85-2.66-13.3-7.51-18.15-4.85-4.85-11.29-7.52-18.14-7.52ZM65.01,58.63c-.64,1.8-3.73,3.45-5.21,3.67-1.33.2-3.01.28-4.86-.3-1.12-.36-2.56-.83-4.4-1.63-7.74-3.34-12.79-11.13-13.18-11.64-.39-.51-3.15-4.18-3.15-7.98s1.99-5.66,2.7-6.43c.71-.77,1.54-.97,2.06-.97s1.03,0,1.48.03c.47.02,1.11-.18,1.73,1.32.64,1.54,2.19,5.34,2.38,5.73.19.39.32.84.06,1.35-.26.51-.39.84-.77,1.29-.39.45-.81,1.01-1.16,1.35-.39.38-.79.8-.34,1.57.45.77,2,3.3,4.29,5.34,2.95,2.63,5.43,3.44,6.2,3.83.77.39,1.22.32,1.67-.19.45-.51,1.93-2.25,2.44-3.02.51-.77,1.03-.64,1.74-.39.71.26,4.5,2.12,5.27,2.51.77.39,1.29.58,1.48.9.19.32.19,1.87-.45,3.67ZM49.45,0C22.14,0,0,22.14,0,49.45s22.14,49.45,49.45,49.45,49.45-22.14,49.45-49.45S76.75,0,49.45,0ZM49.91,78.49h-.01c-5.17,0-10.24-1.3-14.75-3.76l-16.37,4.29,4.38-15.99c-2.7-4.68-4.12-9.99-4.12-15.43,0-17.02,13.86-30.86,30.87-30.86,8.26,0,16.01,3.22,21.84,9.05,5.83,5.84,9.04,13.59,9.03,21.84,0,17.02-13.86,30.86-30.87,30.86Z" style="fill: #000; stroke-width: 0px;"/>
  </g>
</svg>