<?xml version="1.0" encoding="UTF-8"?>
<svg id="Layer_1" data-name="Layer 1" xmlns="http://www.w3.org/2000/svg" viewBox="0 0 696.47 696.47">
  <path d="M348.24,696.47C156.22,696.47,0,540.25,0,348.23S156.22,0,348.24,0s348.23,156.22,348.23,348.23-156.22,348.23-348.23,348.23ZM348.24,37.41c-171.39,0-310.83,139.43-310.83,310.82s139.43,310.82,310.83,310.82,310.82-139.43,310.82-310.82S519.62,37.41,348.24,37.41Z" style="fill: #312c30; stroke-width: 0px;"/>
  <g>
    <path d="M364.67,121.55c-115.93,0-210.25,94.31-210.25,210.24,0,40.78,11.58,79.95,33.58,113.95l-31.94,70.35c-2.94,6.49-1.87,14.08,2.75,19.5,3.54,4.15,8.67,6.45,13.97,6.45,1.62,0,3.25-.21,4.86-.66l88-24.14c30.38,16.25,64.45,24.8,99.03,24.8,115.93,0,210.25-94.32,210.25-210.25s-94.32-210.24-210.25-210.24ZM364.67,505.33c-30.71,0-60.92-8.17-87.37-23.63-2.84-1.66-6.04-2.51-9.26-2.51-1.63,0-3.26.22-4.86.65l-57.49,15.77,20.02-44.11c2.72-6,2.02-12.99-1.83-18.33-21.42-29.69-32.74-64.74-32.74-101.38,0-95.68,77.84-173.53,173.53-173.53s173.53,77.84,173.53,173.53-77.84,173.53-173.53,173.53Z" style="fill: #312c30; fill-rule: evenodd; stroke-width: 0px;"/>
    <path d="M445.5,363.28c-8.81-5.27-20.26-11.15-30.63-6.9-7.96,3.26-13.04,15.71-18.19,22.07-2.65,3.27-5.81,3.78-9.87,2.14-29.87-11.9-52.76-31.84-69.25-59.32-2.79-4.27-2.29-7.64,1.07-11.6,4.98-5.86,11.23-12.52,12.58-20.42,1.35-7.9-2.36-17.14-5.63-24.17-4.17-8.99-8.84-21.81-17.84-26.9-8.28-4.68-19.18-2.06-26.56,3.95-12.73,10.37-18.87,26.61-18.69,42.71.05,4.58.62,9.14,1.68,13.55,2.57,10.62,7.48,20.54,13,29.97,4.16,7.11,8.69,14.01,13.57,20.64,15.98,21.7,35.86,40.57,58.87,54.66,11.5,7.04,23.89,13.22,36.71,17.46,14.39,4.75,27.2,9.7,42.74,6.75,16.26-3.09,32.3-13.15,38.75-28.83,1.91-4.64,2.87-9.81,1.8-14.71-2.21-10.13-15.93-16.16-24.12-21.06Z" style="fill: #312c30; fill-rule: evenodd; stroke-width: 0px;"/>
  </g>
</svg>