<?xml version="1.0" encoding="UTF-8"?>
<svg id="Layer_2" data-name="Layer 2" xmlns="http://www.w3.org/2000/svg" viewBox="0 0 60.6 60.43">
  <g id="Design">
    <g>
      <path d="M51.9,49.92h0c-1.91-.02-3.5,1.46-3.61,3.36h0c-.14,2.44-2.63,4.02-4.89,3.11h0c-1.77-.71-3.79.1-4.58,1.83h0c-1.01,2.22-3.9,2.8-5.69,1.13h0c-1.4-1.3-3.57-1.28-4.93.06h0c-1.75,1.7-4.65,1.2-5.71-1h0c-.83-1.72-2.87-2.48-4.62-1.73h0c-2.24.96-4.77-.56-4.96-3h0c-.15-1.9-1.78-3.35-3.68-3.28h0c-2.44.08-4.24-2.25-3.55-4.59h0c.54-1.83-.45-3.76-2.25-4.39h0c-2.3-.8-3.14-3.63-1.65-5.56h0c1.17-1.51.94-3.67-.51-4.91h0c-1.86-1.58-1.62-4.52.47-5.78h0c1.63-.99,2.2-3.08,1.3-4.76h0c-1.16-2.15.12-4.8,2.52-5.22h0c1.88-.33,3.17-2.08,2.93-3.97h0c-.31-2.42,1.85-4.43,4.24-3.96h0c1.87.37,3.7-.79,4.16-2.64h0c.59-2.37,3.32-3.46,5.38-2.16h0c1.61,1.02,3.74.6,4.84-.96h0c1.4-2,4.35-2.03,5.8-.07h0c1.13,1.54,3.27,1.91,4.86.85h0c2.03-1.35,4.79-.32,5.43,2.03h0c.5,1.84,2.36,2.96,4.22,2.55h0c2.38-.53,4.58,1.43,4.33,3.86h0c-.2,1.9,1.13,3.62,3.02,3.9h0c2.41.37,3.76,2.99,2.64,5.16h0c-.87,1.7-.25,3.78,1.4,4.73h0c2.12,1.21,2.42,4.14.6,5.77h0c-1.42,1.27-1.6,3.43-.4,4.92h0c1.54,1.9.76,4.74-1.52,5.6h0c-1.79.67-2.73,2.62-2.15,4.44h0c.75,2.32-1,4.69-3.44,4.67Z" style="fill: #5b4fe9; stroke-width: 0px;"/>
      <g>
        <path d="M31.43,13.74c-9.09,0-16.48,7.39-16.48,16.48,0,3.2.91,6.27,2.63,8.93l-2.5,5.51c-.23.51-.15,1.1.22,1.53.28.33.68.51,1.09.51.13,0,.25-.02.38-.05l6.9-1.89c2.38,1.27,5.05,1.94,7.76,1.94,9.09,0,16.48-7.39,16.48-16.48s-7.39-16.48-16.48-16.48ZM31.43,43.82c-2.41,0-4.77-.64-6.85-1.85-.22-.13-.47-.2-.73-.2-.13,0-.26.02-.38.05l-4.51,1.24,1.57-3.46c.21-.47.16-1.02-.14-1.44-1.68-2.33-2.57-5.07-2.57-7.95,0-7.5,6.1-13.6,13.6-13.6s13.6,6.1,13.6,13.6-6.1,13.6-13.6,13.6Z" style="fill: #fff; fill-rule: evenodd; stroke-width: 0px;"/>
        <path d="M37.76,32.68c-.69-.41-1.59-.87-2.4-.54-.62.26-1.02,1.23-1.43,1.73-.21.26-.45.3-.77.17-2.34-.93-4.14-2.5-5.43-4.65-.22-.33-.18-.6.08-.91.39-.46.88-.98.99-1.6.11-.62-.18-1.34-.44-1.89-.33-.7-.69-1.71-1.4-2.11-.65-.37-1.5-.16-2.08.31-1,.81-1.48,2.09-1.46,3.35,0,.36.05.72.13,1.06.2.83.59,1.61,1.02,2.35.33.56.68,1.1,1.06,1.62,1.25,1.7,2.81,3.18,4.61,4.28.9.55,1.87,1.04,2.88,1.37,1.13.37,2.13.76,3.35.53,1.27-.24,2.53-1.03,3.04-2.26.15-.36.22-.77.14-1.15-.17-.79-1.25-1.27-1.89-1.65Z" style="fill: #fff; fill-rule: evenodd; stroke-width: 0px;"/>
      </g>
    </g>
  </g>
</svg>