<?xml version="1.0" encoding="UTF-8"?>
<svg id="Layer_2" data-name="Layer 2" xmlns="http://www.w3.org/2000/svg" xmlns:xlink="http://www.w3.org/1999/xlink" viewBox="0 0 406.01 406.01">
  <defs>
    <linearGradient id="Degradado_sin_nombre_8" data-name="Degradado sin nombre 8" x1="59.46" y1="59.46" x2="346.55" y2="346.55" gradientUnits="userSpaceOnUse">
      <stop offset="0" stop-color="#6fc05e"/>
      <stop offset="1" stop-color="#0bb25b"/>
    </linearGradient>
  </defs>
  <g id="Layer_1-2" data-name="Layer 1">
    <g>
      <circle cx="203" cy="203" r="203" style="fill: url(#Degradado_sin_nombre_8); stroke-width: 0px;"/>
      <g>
        <path d="M98.48,307.79l15.02-56.06c-8.51-15.35-12.98-32.55-12.98-50,0-57.07,46.43-103.51,103.51-103.51s103.51,46.43,103.51,103.51-46.43,103.51-103.51,103.51c-17.13,0-34.05-4.33-49.2-12.54l-56.35,15.09ZM157.62,271.68l3.55,2.12c13.03,7.76,27.85,11.87,42.85,11.87,46.28,0,83.94-37.65,83.94-83.94s-37.66-83.94-83.94-83.94-83.94,37.65-83.94,83.94c0,15.28,4.25,30.33,12.28,43.52l2.18,3.57-8.39,31.3,31.48-8.43Z" style="fill: #fff; stroke-width: 0px;"/>
        <path d="M242.53,216.12c-4.26-2.55-9.8-5.39-14.82-3.34-3.85,1.58-6.31,7.6-8.8,10.68-1.28,1.58-2.81,1.83-4.77,1.04-14.45-5.76-25.53-15.41-33.51-28.7-1.35-2.07-1.11-3.69.52-5.61,2.41-2.84,5.44-6.06,6.09-9.88.65-3.82-1.14-8.29-2.72-11.7-2.02-4.35-4.28-10.55-8.63-13.01-4.01-2.26-9.28-1-12.85,1.91-6.16,5.02-9.13,12.88-9.04,20.67.02,2.21.3,4.42.81,6.56,1.24,5.14,3.62,9.94,6.29,14.5,2.02,3.44,4.21,6.78,6.57,9.99,7.73,10.5,17.35,19.63,28.49,26.45,5.56,3.41,11.56,6.4,17.76,8.45,6.96,2.3,13.16,4.69,20.68,3.27,7.87-1.49,15.63-6.36,18.75-13.95.92-2.25,1.39-4.75.87-7.12-1.07-4.9-7.71-7.82-11.67-10.19Z" style="fill: #fff; fill-rule: evenodd; stroke-width: 0px;"/>
      </g>
    </g>
  </g>
</svg>