<?xml version="1.0" encoding="UTF-8"?>
<svg id="Layer_1" data-name="Layer 1" xmlns="http://www.w3.org/2000/svg" viewBox="0 0 632.47 632.47">
  <path d="M316.24,632.47C141.86,632.47,0,490.6,0,316.23S141.86,0,316.24,0s316.23,141.86,316.23,316.23-141.86,316.23-316.23,316.23ZM316.24,33.97c-155.64,0-282.26,126.62-282.26,282.26s126.62,282.26,282.26,282.26,282.26-126.62,282.26-282.26S471.87,33.97,316.24,33.97Z" style="fill: #00fb73; stroke-width: 0px;"/>
  <g>
    <path d="M331.16,110.38c-105.28,0-190.93,85.65-190.93,190.92,0,37.03,10.51,72.6,30.49,103.47l-29,63.89c-2.67,5.89-1.7,12.79,2.5,17.71,3.22,3.77,7.88,5.85,12.69,5.85,1.47,0,2.95-.19,4.41-.6l79.91-21.92c27.59,14.75,58.53,22.52,89.93,22.52,105.28,0,190.93-85.65,190.93-190.93s-85.65-190.92-190.93-190.92ZM331.16,458.89c-27.88,0-55.32-7.42-79.34-21.46-2.58-1.5-5.48-2.28-8.41-2.28-1.48,0-2.96.2-4.41.59l-52.21,14.32,18.18-40.06c2.47-5.45,1.84-11.8-1.66-16.65-19.45-26.96-29.73-58.79-29.73-92.07,0-86.89,70.69-157.58,157.58-157.58s157.58,70.69,157.58,157.58-70.69,157.58-157.58,157.58Z" style="fill: #00fb73; fill-rule: evenodd; stroke-width: 0px;"/>
    <path d="M404.56,329.9c-8-4.78-18.4-10.12-27.82-6.27-7.23,2.96-11.84,14.27-16.52,20.05-2.41,2.97-5.27,3.43-8.96,1.94-27.13-10.81-47.91-28.92-62.88-53.87-2.54-3.88-2.08-6.94.98-10.53,4.52-5.32,10.2-11.37,11.42-18.55,1.22-7.17-2.14-15.56-5.11-21.95-3.79-8.16-8.03-19.81-16.2-24.42-7.52-4.25-17.42-1.87-24.12,3.58-11.56,9.41-17.14,24.16-16.97,38.79.05,4.16.56,8.3,1.53,12.31,2.33,9.64,6.79,18.65,11.81,27.21,3.78,6.45,7.89,12.72,12.33,18.74,14.51,19.71,32.56,36.84,53.46,49.64,10.44,6.4,21.69,12.01,33.34,15.85,13.06,4.32,24.7,8.81,38.81,6.13,14.77-2.81,29.33-11.94,35.19-26.18,1.74-4.21,2.61-8.91,1.63-13.36-2.01-9.2-14.46-14.67-21.91-19.12Z" style="fill: #00fb73; fill-rule: evenodd; stroke-width: 0px;"/>
  </g>
</svg>