<?xml version="1.0" encoding="UTF-8"?>
<svg id="Layer_2" data-name="Layer 2" xmlns="http://www.w3.org/2000/svg" viewBox="0 0 98.89 98.89">
  <g id="Objects">
    <g>
      <path d="M49.45,0C22.14,0,0,22.14,0,49.45s22.14,49.45,49.45,49.45,49.45-22.14,49.45-49.45S76.75,0,49.45,0ZM49.45,94.4c-24.83,0-44.96-20.13-44.96-44.96S24.62,4.49,49.45,4.49s44.96,20.13,44.96,44.96-20.13,44.96-44.96,44.96Z" style="fill: #a3c492; stroke-width: 0px;"/>
      <path d="M69.33,29.63c-4.93-4.93-11.49-7.65-18.47-7.66-14.39,0-26.11,11.71-26.12,26.11,0,4.6,1.2,9.09,3.49,13.05l-3.7,13.53,13.84-3.63c3.81,2.08,8.11,3.18,12.48,3.18h.01c14.39,0,26.11-11.71,26.12-26.11,0-6.98-2.71-13.53-7.64-18.47M50.86,69.8h-.01c-3.89,0-7.72-1.05-11.05-3.02l-.79-.47-8.22,2.16,2.19-8.01-.52-.82c-2.17-3.46-3.32-7.45-3.32-11.55,0-11.96,9.74-21.7,21.72-21.7,5.8,0,11.25,2.26,15.35,6.36,4.1,4.1,6.35,9.55,6.35,15.35,0,11.97-9.74,21.7-21.71,21.7M62.76,53.54c.65.33,1.09.49,1.25.76.16.27.16,1.58-.38,3.1-.54,1.52-3.15,2.92-4.4,3.1-1.12.17-2.55.24-4.11-.26-.95-.3-2.16-.7-3.72-1.38-6.55-2.82-10.82-9.41-11.15-9.85-.33-.44-2.67-3.54-2.67-6.75s1.69-4.79,2.28-5.44c.6-.65,1.31-.82,1.74-.82s.87,0,1.25.02c.4.02.94-.15,1.47,1.12.54,1.31,1.85,4.52,2.01,4.84.16.33.27.71.06,1.14-.22.44-.33.71-.65,1.09-.33.38-.69.85-.98,1.14-.33.33-.67.68-.29,1.33.38.65,1.69,2.79,3.63,4.52,2.49,2.22,4.6,2.91,5.25,3.24.65.33,1.03.27,1.41-.16.38-.43,1.63-1.9,2.07-2.56.43-.65.87-.54,1.47-.33.6.22,3.81,1.8,4.46,2.12" style="fill: #a3c492; fill-rule: evenodd; stroke-width: 0px;"/>
    </g>
  </g>
</svg>