<?xml version="1.0" encoding="UTF-8"?>
<svg id="Layer_2" data-name="Layer 2" xmlns="http://www.w3.org/2000/svg" viewBox="0 0 477.89 477.89">
  <g id="Layer_1-2" data-name="Layer 1">
    <path d="M238.95,0c131.97,0,238.95,106.98,238.95,238.95s-106.98,238.95-238.95,238.95S0,370.91,0,238.95,106.98,0,238.95,0" style="fill: #010101; stroke-width: 0px;"/>
    <g>
      <path d="M115.91,362.28l17.68-65.98c-10.01-18.06-15.28-38.31-15.28-58.86,0-67.18,54.65-121.83,121.83-121.83s121.83,54.65,121.83,121.83-54.65,121.83-121.83,121.83c-20.17,0-40.08-5.09-57.91-14.76l-66.32,17.77ZM185.53,319.79l4.18,2.49c15.33,9.14,32.78,13.97,50.44,13.97,54.48,0,98.8-44.32,98.8-98.8s-44.32-98.8-98.8-98.8-98.8,44.32-98.8,98.8c0,17.99,5,35.7,14.45,51.23l2.56,4.21-9.87,36.84,37.05-9.93Z" style="fill: #fff; stroke-width: 0px;"/>
      <path d="M285.47,254.39c-5.01-3-11.54-6.35-17.45-3.93-4.53,1.85-7.43,8.95-10.36,12.57-1.51,1.86-3.31,2.15-5.62,1.22-17.01-6.78-30.05-18.13-39.44-33.78-1.59-2.43-1.31-4.35.61-6.6,2.84-3.34,6.4-7.13,7.16-11.63.77-4.5-1.34-9.76-3.2-13.77-2.38-5.12-5.04-12.42-10.16-15.32-4.72-2.66-10.93-1.17-15.13,2.25-7.25,5.9-10.75,15.15-10.64,24.32.03,2.61.35,5.2.96,7.72,1.46,6.05,4.26,11.7,7.41,17.07,2.37,4.05,4.95,7.98,7.73,11.76,9.1,12.36,20.42,23.1,33.53,31.13,6.55,4.01,13.6,7.53,20.91,9.94,8.19,2.71,15.49,5.52,24.34,3.84,9.26-1.76,18.39-7.49,22.07-16.42,1.09-2.64,1.63-5.59,1.02-8.38-1.26-5.77-9.07-9.2-13.74-11.99Z" style="fill: #fff; fill-rule: evenodd; stroke-width: 0px;"/>
    </g>
  </g>
</svg>