<?xml version="1.0" encoding="UTF-8"?>
<svg id="Layer_2" data-name="Layer 2" xmlns="http://www.w3.org/2000/svg" xmlns:xlink="http://www.w3.org/1999/xlink" viewBox="0 0 74.45 52.36">
  <defs>
    <linearGradient id="Degradado_sin_nombre_116" data-name="Degradado sin nombre 116" x1="0" y1="26.18" x2="74.45" y2="26.18" gradientUnits="userSpaceOnUse">
      <stop offset=".38" stop-color="#c56b58"/>
      <stop offset="1" stop-color="#b21f15"/>
    </linearGradient>
  </defs>
  <g id="Objects">
    <path d="M73.7,11.3s-.73-5.13-2.96-7.39c-2.83-2.96-6-2.98-7.46-3.15-10.42-.75-26.05-.75-26.05-.75h-.03s-15.63,0-26.05.75c-1.46.17-4.63.19-7.46,3.15C1.47,6.17.75,11.3.75,11.3c0,0-.75,6.02-.75,12.05v5.65c0,6.02.75,12.05.75,12.05,0,0,.73,5.13,2.96,7.39,2.83,2.96,6.55,2.87,8.21,3.18,5.96.57,25.31.75,25.31.75,0,0,15.64-.02,26.06-.78,1.46-.17,4.63-.19,7.46-3.15,2.23-2.26,2.96-7.39,2.96-7.39,0,0,.74-6.02.74-12.05v-5.65c0-6.02-.74-12.05-.74-12.05ZM29.53,35.84V14.92l20.11,10.5-20.11,10.42Z" style="fill: url(#Degradado_sin_nombre_116); stroke-width: 0px;"/>
  </g>
</svg>