<?xml version="1.0" encoding="UTF-8"?>
<svg id="Layer_2" data-name="Layer 2" xmlns="http://www.w3.org/2000/svg" viewBox="0 0 98.89 98.89">
  <g id="Objects">
    <g>
      <path d="M79.5,37.48s-.6-4.23-2.44-6.09c-2.33-2.44-4.95-2.46-6.15-2.6-8.58-.62-21.46-.62-21.46-.62h-.03s-12.88,0-21.46.62c-1.2.14-3.81.16-6.15,2.6-1.84,1.86-2.44,6.09-2.44,6.09,0,0-.61,4.96-.61,9.93v4.65c0,4.96.61,9.93.61,9.93,0,0,.6,4.23,2.44,6.09,2.33,2.44,5.4,2.37,6.76,2.62,4.91.47,20.85.62,20.85.62,0,0,12.89-.02,21.47-.64,1.2-.14,3.81-.16,6.15-2.6,1.84-1.86,2.44-6.09,2.44-6.09,0,0,.61-4.96.61-9.93v-4.65c0-4.96-.61-9.93-.61-9.93ZM43.11,57.7v-17.23l16.57,8.65-16.57,8.59Z" style="fill: #1966d8; stroke-width: 0px;"/>
      <path d="M88.52,0H10.37C4.67,0,0,4.67,0,10.37v78.14c0,5.71,4.67,10.37,10.37,10.37h78.14c5.71,0,10.37-4.67,10.37-10.37V10.37c0-5.71-4.67-10.37-10.37-10.37ZM92.37,87c0,2.95-2.42,5.37-5.37,5.37H11.89c-2.95,0-5.37-2.42-5.37-5.37V11.89c0-2.95,2.42-5.37,5.37-5.37h75.11c2.95,0,5.37,2.42,5.37,5.37v75.11Z" style="fill: #1966d8; stroke-width: 0px;"/>
    </g>
  </g>
</svg>