<?xml version="1.0" encoding="UTF-8"?>
<svg id="Layer_2" data-name="Layer 2" xmlns="http://www.w3.org/2000/svg" xmlns:xlink="http://www.w3.org/1999/xlink" viewBox="0 0 98.89 98.89">
  <defs>
    <linearGradient id="Degradado_sin_nombre_101" data-name="Degradado sin nombre 101" x1="92.27" y1="24.72" x2="6.62" y2="74.17" gradientUnits="userSpaceOnUse">
      <stop offset="0" stop-color="#c49c3c"/>
      <stop offset=".13" stop-color="#f6ea93"/>
      <stop offset=".25" stop-color="#eac140"/>
      <stop offset=".42" stop-color="#564128"/>
      <stop offset=".61" stop-color="#b4842a"/>
      <stop offset=".83" stop-color="#f3dda2"/>
      <stop offset="1" stop-color="#af832b"/>
    </linearGradient>
    <linearGradient id="Degradado_sin_nombre_101-2" data-name="Degradado sin nombre 101" x1="75.49" y1="34.4" x2="23.4" y2="64.47" xlink:href="#Degradado_sin_nombre_101"/>
  </defs>
  <g id="Objects">
    <g>
      <path d="M49.45,0C22.14,0,0,22.14,0,49.45s22.14,49.45,49.45,49.45,49.45-22.14,49.45-49.45S76.75,0,49.45,0ZM49.45,94.4c-24.83,0-44.96-20.13-44.96-44.96S24.62,4.49,49.45,4.49s44.96,20.13,44.96,44.96-20.13,44.96-44.96,44.96Z" style="fill: url(#Degradado_sin_nombre_101); stroke-width: 0px;"/>
      <path d="M76.63,38.35s-.54-3.82-2.21-5.51c-2.11-2.21-4.47-2.22-5.56-2.35-7.76-.56-19.41-.56-19.41-.56h-.02s-11.64,0-19.41.56c-1.08.13-3.45.14-5.56,2.35-1.66,1.68-2.2,5.51-2.2,5.51,0,0-.56,4.49-.56,8.98v4.21c0,4.49.56,8.98.56,8.98,0,0,.54,3.82,2.2,5.51,2.11,2.21,4.88,2.14,6.12,2.37,4.44.43,18.86.56,18.86.56,0,0,11.66-.02,19.42-.58,1.08-.13,3.45-.14,5.56-2.35,1.66-1.68,2.21-5.51,2.21-5.51,0,0,.55-4.49.55-8.98v-4.21c0-4.49-.55-8.98-.55-8.98ZM43.72,56.64v-15.59l14.99,7.82-14.99,7.77Z" style="fill: url(#Degradado_sin_nombre_101-2); stroke-width: 0px;"/>
    </g>
  </g>
</svg>