<?xml version="1.0" encoding="UTF-8"?>
<svg id="Layer_2" data-name="Layer 2" xmlns="http://www.w3.org/2000/svg" viewBox="0 0 98.89 98.89">
  <g id="Objects">
    <g>
      <path d="M49.45,0C22.14,0,0,22.14,0,49.45s22.14,49.45,49.45,49.45,49.45-22.14,49.45-49.45S76.75,0,49.45,0ZM80.45,51.79c0,5.02-.62,10.03-.62,10.03,0,0-.61,4.27-2.47,6.15-2.36,2.47-5,2.48-6.21,2.63-8.68.63-21.71.65-21.71.65,0,0-16.12-.15-21.08-.62-1.38-.26-4.48-.18-6.84-2.65-1.86-1.88-2.46-6.15-2.46-6.15,0,0-.62-5.02-.62-10.03v-4.7c0-5.02.62-10.03.62-10.03,0,0,.6-4.27,2.46-6.15,2.36-2.47,5-2.48,6.21-2.63,8.68-.63,21.69-.63,21.69-.63h.03s13.02,0,21.69.63c1.21.14,3.85.16,6.21,2.63,1.86,1.88,2.47,6.15,2.47,6.15,0,0,.62,5.02.62,10.03v4.7Z" style="fill: #000; stroke-width: 0px;"/>
      <polygon points="43.04 57.49 59.8 48.81 43.04 40.07 43.04 57.49" style="fill: #000; stroke-width: 0px;"/>
    </g>
  </g>
</svg>