<?xml version="1.0" encoding="UTF-8"?>
<svg id="Layer_2" data-name="Layer 2" xmlns="http://www.w3.org/2000/svg" viewBox="0 0 98.89 98.89">
  <g id="Objects">
    <g>
      <polygon points="42.42 57.18 60.8 47.66 42.42 38.08 42.42 57.18" style="fill: #1c1c1c; stroke-width: 0px;"/>
      <path d="M0,0v98.89h98.89V0H0ZM83.45,50.93c0,5.5-.68,11.01-.68,11.01,0,0-.67,4.69-2.7,6.75-2.59,2.71-5.48,2.72-6.81,2.88-9.52.69-23.81.71-23.81.71,0,0-17.68-.16-23.12-.68-1.51-.28-4.91-.2-7.5-2.91-2.04-2.06-2.7-6.75-2.7-6.75,0,0-.68-5.5-.68-11.01v-5.16c0-5.5.68-11.01.68-11.01,0,0,.66-4.69,2.7-6.75,2.59-2.71,5.48-2.72,6.81-2.88,9.52-.69,23.79-.69,23.79-.69h.03s14.28,0,23.79.69c1.33.16,4.23.17,6.81,2.88,2.04,2.06,2.7,6.75,2.7,6.75,0,0,.68,5.5.68,11.01v5.16Z" style="fill: #1c1c1c; stroke-width: 0px;"/>
    </g>
  </g>
</svg>