<?xml version="1.0" encoding="UTF-8"?>
<svg id="Layer_2" data-name="Layer 2" xmlns="http://www.w3.org/2000/svg" viewBox="0 0 374.62 374.62">
  <g id="Layer_1-2" data-name="Layer 1">
    <path d="M187.31,0c103.45,0,187.31,83.86,187.31,187.31s-83.86,187.31-187.31,187.31S0,290.76,0,187.31,83.86,0,187.31,0" style="fill: #010101; stroke-width: 0px;"/>
    <path d="M278.29,163.56c0-22.05-17.88-39.93-39.93-39.93h-102.1c-22.05,0-39.93,17.88-39.93,39.93v47.51c0,22.05,17.88,39.93,39.93,39.93h102.1c22.05,0,39.93-17.88,39.93-39.93v-47.51ZM218.24,190.87l-45.78,22.65c-1.79.97-7.89-.33-7.89-2.37v-46.49c0-2.07,6.15-3.36,7.94-2.34l43.82,23.84c1.84,1.05,3.77,3.7,1.91,4.71Z" style="fill: #fff; stroke-width: 0px;"/>
  </g>
</svg>