<?xml version="1.0" encoding="UTF-8"?>
<svg id="Layer_1" data-name="Layer 1" xmlns="http://www.w3.org/2000/svg" viewBox="0 0 706.47 706.47">
  <path d="M353.24,706.47C158.46,706.47,0,548.01,0,353.23S158.46,0,353.24,0s353.23,158.46,353.23,353.23-158.46,353.23-353.23,353.23ZM353.24,37.95c-173.85,0-315.29,141.44-315.29,315.29s141.43,315.29,315.29,315.29,315.28-141.44,315.28-315.29S527.08,37.95,353.24,37.95Z" style="fill: #312c30; stroke-width: 0px;"/>
  <path d="M564.74,299.67c0-50.1-40.61-90.71-90.71-90.71h-235.28c-50.1,0-90.71,40.61-90.71,90.71v110.27c0,50.1,40.61,90.71,90.71,90.71h235.28c50.1,0,90.71-40.61,90.71-90.71v-110.27ZM416.29,360.35l-93.83,51.46c-4.08,2.21-7.75-.75-7.75-5.38v-105.64c0-4.7,3.78-7.64,7.86-5.32l94.48,54.17c4.17,2.38,3.46,8.42-.76,10.7Z" style="fill: #312c30; stroke-width: 0px;"/>
</svg>