<?xml version="1.0" encoding="UTF-8"?>
<svg id="Layer_1" data-name="Layer 1" xmlns="http://www.w3.org/2000/svg" viewBox="0 0 727.47 727.47">
  <path d="M363.74,727.47C163.17,727.47,0,564.3,0,363.73S163.17,0,363.74,0s363.73,163.17,363.73,363.73-163.17,363.73-363.73,363.73Z" style="fill: #312c30; stroke-width: 0px;"/>
  <path d="M581.52,308.57c0-51.59-41.82-93.41-93.41-93.41h-242.27c-51.59,0-93.41,41.82-93.41,93.41v113.54c0,51.59,41.82,93.41,93.41,93.41h242.27c51.59,0,93.41-41.82,93.41-93.41v-113.54ZM428.67,371.07l-96.62,52.99c-4.2,2.27-7.98-.77-7.98-5.54v-108.78c0-4.84,3.9-7.87,8.1-5.48l97.29,55.78c4.3,2.45,3.57,8.67-.78,11.02Z" style="fill: #fff; stroke-width: 0px;"/>
</svg>