<?xml version="1.0" encoding="UTF-8"?>
<svg id="Layer_2" data-name="Layer 2" xmlns="http://www.w3.org/2000/svg" viewBox="0 0 54.59 54.59">
  <g id="Design">
    <g>
      <path d="M27.29,54.59C12.24,54.59,0,42.34,0,27.29S12.24,0,27.29,0s27.29,12.24,27.29,27.29-12.24,27.29-27.29,27.29Z" style="fill: red; stroke-width: 0px;"/>
      <path d="M43.63,23.15c0-3.87-3.14-7.01-7.01-7.01h-18.18c-3.87,0-7.01,3.14-7.01,7.01v8.52c0,3.87,3.14,7.01,7.01,7.01h18.18c3.87,0,7.01-3.14,7.01-7.01v-8.52ZM32.16,27.84l-7.25,3.98c-.32.17-.6-.06-.6-.42v-8.16c0-.36.29-.59.61-.41l7.3,4.19c.32.18.27.65-.06.83Z" style="fill: #fff; stroke-width: 0px;"/>
    </g>
  </g>
</svg>