<?xml version="1.0" encoding="UTF-8"?>
<svg id="Layer_1" data-name="Layer 1" xmlns="http://www.w3.org/2000/svg" viewBox="0 0 676.47 676.47">
  <path d="M338.24,676.47C151.73,676.47,0,524.74,0,338.23S151.73,0,338.24,0s338.23,151.73,338.23,338.23-151.73,338.23-338.23,338.23ZM338.24,36.34c-166.47,0-301.9,135.43-301.9,301.9s135.43,301.9,301.9,301.9,301.9-135.43,301.9-301.9S504.7,36.34,338.24,36.34Z" style="fill: red; stroke-width: 0px;"/>
  <path d="M540.76,286.94c0-47.97-38.89-86.86-86.86-86.86h-225.29c-47.97,0-86.86,38.89-86.86,86.86v105.58c0,47.97,38.89,86.86,86.86,86.86h225.29c47.97,0,86.86-38.89,86.86-86.86v-105.58ZM398.62,345.05l-89.85,49.28c-3.9,2.11-7.42-.72-7.42-5.16v-101.15c0-4.5,3.62-7.32,7.53-5.09l90.47,51.87c4,2.28,3.32,8.06-.73,10.25Z" style="fill: red; stroke-width: 0px;"/>
</svg>