<svg xmlns="http://www.w3.org/2000/svg" width="16" height="16" viewBox="0 0 16 16" fill="none">
<mask id="mask0_2416_8288" style="mask-type:alpha" maskUnits="userSpaceOnUse" x="0" y="2" width="16" height="13">
<path d="M0.955637 7.49785C0.406703 6.92443 0.361205 6.03523 0.848743 5.40877L2.50105 3.28563C2.8042 2.89611 3.27015 2.6683 3.76373 2.6683H12.2697C12.7671 2.6683 13.2363 2.89968 13.5391 3.29435L15.165 5.41345C15.6447 6.03867 15.5977 6.92009 15.0542 7.49078L9.17576 13.664C8.54635 14.3249 7.49243 14.3263 6.86128 13.667L0.955637 7.49785Z" fill="white"/>
</mask>
<g mask="url(#mask0_2416_8288)">
<path d="M-0.00012207 6.49948L2.98146 2.6683H13.0587L15.9982 6.49948L8.02009 14.8775L-0.00012207 6.49948Z" fill="url(#paint0_linear_2416_8288)"/>
<path d="M-0.00012207 6.49954L3.69212 7.71878L8.02009 14.8776L-0.00012207 6.49954Z" fill="black" fill-opacity="0.1"/>
<path d="M15.978 6.49954L12.2243 7.71878L8.02008 14.8776L15.978 6.49954Z" fill="black" fill-opacity="0.1"/>
<g style="mix-blend-mode:overlay">
<path d="M7.95879 3.50618L2.94879 2.66669L3.69229 7.71879H7.93774H7.97984H12.2244L12.9679 2.66669L7.95879 3.50618Z" fill="white"/>
</g>
<g style="mix-blend-mode:soft-light">
<path d="M2.94879 2.66669L8.02026 4.35072L13.0589 2.66837L2.94879 2.66669Z" fill="white"/>
</g>
<g style="mix-blend-mode:overlay">
<path d="M7.95857 3.50604L3.69208 7.71865H12.2242L7.95857 3.50604Z" fill="white"/>
</g>
<g style="mix-blend-mode:soft-light">
<path d="M8.02004 4.35062L3.69208 7.71868H12.2242L8.02004 4.35062Z" fill="white"/>
</g>
<g style="mix-blend-mode:soft-light">
<path d="M3.69212 7.71879L-0.00012207 6.49955L2.94862 2.66669H3.69212V7.71879Z" fill="white"/>
</g>
<g style="mix-blend-mode:soft-light">
<path d="M12.2243 7.71879L15.9999 6.49955L13.0512 2.66669H12.3077L12.2243 7.71879Z" fill="white"/>
</g>
<g style="mix-blend-mode:soft-light" opacity="0.5">
<path d="M3.69208 7.71878L7.99899 14.8667L12.2242 7.71878H3.69208Z" fill="white"/>
</g>
<g style="mix-blend-mode:soft-light" opacity="0.3" filter="url(#filter0_i_2416_8288)">
<path d="M3.69208 7.71878L7.99899 14.8667L12.2242 7.71878H3.69208Z" fill="black"/>
</g>
</g>
<defs>
<filter id="filter0_i_2416_8288" x="3.69208" y="3.71878" width="8.53217" height="11.1479" filterUnits="userSpaceOnUse" color-interpolation-filters="sRGB">
<feFlood flood-opacity="0" result="BackgroundImageFix"/>
<feBlend mode="normal" in="SourceGraphic" in2="BackgroundImageFix" result="shape"/>
<feColorMatrix in="SourceAlpha" type="matrix" values="0 0 0 0 0 0 0 0 0 0 0 0 0 0 0 0 0 0 127 0" result="hardAlpha"/>
<feOffset dy="-4"/>
<feGaussianBlur stdDeviation="15"/>
<feComposite in2="hardAlpha" operator="arithmetic" k2="-1" k3="1"/>
<feColorMatrix type="matrix" values="0 0 0 0 1 0 0 0 0 1 0 0 0 0 1 0 0 0 1 0"/>
<feBlend mode="normal" in2="shape" result="effect1_innerShadow_2416_8288"/>
</filter>
<linearGradient id="paint0_linear_2416_8288" x1="7.99904" y1="2.6683" x2="7.99904" y2="14.8775" gradientUnits="userSpaceOnUse">
<stop stop-color="#0294C1"/>
<stop offset="0.434333" stop-color="#4FC3F7"/>
<stop offset="1" stop-color="#B3E5FC"/>
</linearGradient>
</defs>
</svg>