<?xml version="1.0" encoding="UTF-8"?>
<svg id="Layer_1" data-name="Layer 1" xmlns="http://www.w3.org/2000/svg" viewBox="0 0 1118.81 1195.2">
  <path d="M919.26,141.75c12.41,7.07,26.3,10.34,39.53,15.27,44.28,16.5,89.07,31.63,133.01,49.04,10.55,4.18,19.18,10.43,23.8,21.32,2.62,6.18,2.25,12.82,2.54,19.12.76,16.44.24,32.94.23,49.42-4.19-1.46-3.13-5.17-3.2-8.11-.23-9.94-.49-19.91.04-29.83.43-8.19-2.01-14.59-8.51-19.48-10.48-10.3-8.24-12.45-24.5-3.64-39.07,21.17-78.04,42.52-116.97,63.96-31.27,17.22-62.68,34.19-94.02,51.29-35.5,19.37-71.12,38.53-106.57,58-28.66,15.75-57.6,30.99-86.32,46.64-11.84,6.45-23.71,12.85-35.48,19.41-6.37,3.55-11.66,8.4-16.09,14.34-6.31,8.46-9.85,9.16-20.08,6.52-7.89-2.04-14.43-6.78-21.79-9.84-46.6-19.39-94.55-35.12-141.98-52.27-10.1-3.65-20.15-7.44-30.18-11.26-7.99-3.04-10.05-8.01-6.99-16.05,2.71-7.11,7.42-12.53,14.9-14.76,30.27-9,56.07-27.16,83.89-41.12,27.21-13.65,53.92-28.31,80.65-42.92,23.66-12.93,47.53-25.47,71.31-38.15,23.34-12.44,46.7-24.88,70.12-37.19,50.16-26.37,100.26-52.84,150.25-79.53,8.36-4.46,16.21-9.81,22.89-16.68,5.56-1.21,10.07,1.95,14.96,3.56,1.67.74,3.22,1.67,4.53,2.96Z" style="fill: #f3d16d; stroke-width: 0px;"/>
  <path d="M9.42,263.1c5.44-6.85,13.29-10.44,20.64-14.41,76.01-41.01,152.06-81.96,228.28-122.59,74.69-39.81,149.61-79.2,224.4-118.81,14.25-7.54,28.31-9.75,44.37-4.2,54.04,18.68,107.81,38.09,161.69,57.21,1.17.41,2.38.7,3.58,1.04-.35,3.8-3.83,4.12-6.27,5.32-39.62,19.48-78.37,40.62-117.43,61.18-18.98,9.99-37.92,20.04-56.85,30.12-49.97,26.6-99.94,53.18-149.77,80.04-40.61,21.89-81.5,43.26-121.17,66.84-6.39,3.8-13.15,7.3-17.25,14-4.44,6.02-8.52,12.28-12.14,18.83-3.27,4.38-2.84,11.15-8.89,13.73-9.46-.16-17.84-4.42-26.45-7.47-45.58-16.17-91.07-32.58-136.34-49.59-15.34-5.76-28.81-12.49-30.39-31.24Z" style="fill: #f2cf6d; stroke-width: 0px;"/>
  <path d="M222.02,318.45c4.22-7.99,12.08-11.78,19.29-16.03,38.44-22.7,77.86-43.63,117.23-64.65,86.44-46.15,172.9-92.25,259.45-138.18,24.63-13.07,49.59-25.51,74.39-38.24,15.84-9.08,32.1-12.86,49.7-4.8,6.07,2.78,12.6,4.58,18.91,6.84,40.47,14.5,80.95,28.99,121.42,43.5,17.37,6.23,31.55,15.85,36.84,34.86-1.54-.3-3.37.27-4.43-1.47-5.17-7.14-11.29-13.06-20.03-15.61-6.88-4.54-13.53-1.84-19.87,1.06-11.8,5.4-23.37,11.3-34.81,17.41-31.03,16.56-62.23,32.79-93.21,49.45-36.91,19.85-73.84,39.64-110.71,59.56-28.31,15.29-56.78,30.29-84.93,45.87-44.5,24.62-90.19,47.14-133.07,74.65-4.65,2.98-9.06,6.2-12.33,10.74-.36.59-.78,1.14-1.21,1.67-1.8,1.94-3.55,3.92-4.66,6.37-1.53,2.7-3.2,5.32-4.78,7.99-3.02,4.6-5.32,9.61-8.34,14.2-4.03,6.13-8.47,6.98-14.33,2.64-1.62-1.2-3.19-2.54-4.14-4.29-5.19-9.53-13.99-13.28-23.8-16.58-26-8.74-51.72-18.32-77.53-27.63-11.26-4.06-22.37-8.51-33.73-12.32-12.75-4.28-15.01-9.65-10.09-22.25.91-2.34,2.22-4.47,3.28-6.72,3.25-6.89,2.68-7.88-4.52-8.06Z" style="fill: #6a8bab; stroke-width: 0px;"/>
  <path d="M9.42,263.1c3.42.56,4.49,3.2,4.5,6.01.05,9.26,4.74,13.89,13.27,17.42,55.26,22.89,111.92,41.93,168.26,61.87,2.56.91,5.31,1.27,7.97,1.88,1.67,6.77-2.18,12.45-3.69,18.59-9.09,18.03-11.63,37.7-12.43,57.31-1.16,28.37-3.02,56.79-1.7,85.21.7,15.18,2.93,30.26,7.31,44.87,3.22,10.74,1.81,14.71-7.71,20.32-5.91,3.48-12.32,5.77-18.84,7.07-14.75,2.94-26.35,11.12-35.64,22.01-9.2,10.79-19.96,19.38-31.1,27.81-4.44,3.36-9.75,6.42-10.16,13.06-.29,2.42-1.19,4.71-1.58,7.1-2.32,10.38-1.83,20.92-.87,31.32,1.15,12.45-1.85,22.19-13.96,27.74-2.71,1.24-5.13,3.09-7.39,5.08-6.2,5.44-8.68,12.02-6.16,20.12,1.82,8.8,5.73,16.92,8.22,25.5,1.45,5.01,3.22,9.94,3.72,15.19.63,9.6-3.07,17.95-7.43,26.15-3.4,6.39-6.3,12.97-5.18,20.52.2,1.2.23,2.41.11,3.62-2.34,11.5.79,22.81,1.3,34.2.98,22.06,12,41.38,17.66,62.19,3.06,11.24,5.56,22.55,7.93,33.94,1.55,7.45,5.35,14.41,8.35,21.51,1.49,3.53,4.72,7.61,1.67,11.12-2.81,3.23-7.54,2.09-11.38,1.1-21.22-5.49-42.74-9.89-63.07-18.51-7.25-3.07-13.65-7.16-19.14-12.74-1.07-4.9-1.4-9.85-1.43-14.86-1.11-217.45-1.14-434.9.11-652.34.06-11.06-.43-22.57,8.49-31.37Z" style="fill: #e09e0f; stroke-width: 0px;"/>
  <path d="M87.77,647.44c-1.75-6.15,2.61-9.56,6.48-12.34,14.28-10.28,27.6-21.58,39.09-34.9,10.68-12.38,25.13-17.22,40.26-20.76,5.98-1.4,10.95-4.79,16.01-7.82,5.11-3.06,3.33-8.64,1.96-12.88-5.21-16.18-7.33-32.82-8.09-49.64-1.29-28.15.59-56.29,1.8-84.37.83-19.36,3.02-39.06,12.88-56.67,1.25.9,1.67,2.21,1.83,3.65-4.24,47.21-1.62,94.53-2.16,141.79-.1,8.94,3.1,16.58,10.94,21.68,9.18,10.21,20.79,13.55,34.14,12.29,9.11-.86,16.84,3.17,24.46,7.38,4.36,2.51,7.48,6.44,11.1,9.79,3.57,3.3,7.9,5.01,12.46,6.32,10.21,6.51,20.65,5.85,31.38,1.32,5.59-2.36,11.51-3.12,17.55-1.67,5.98,3.46,9.08,9.79,14.09,14.27,3.84,3.43,7.72,6.27,12.9,7,12.75,1.26,22.8-7.41,22.7-22.41-.22-34.7-.13-69.4-.03-104.1.03-10.97,1.34-21.86,2.4-32.76,2.16-3.6,3.6-1.02,4.83.73,3.86,5.46,5.67,11.66,5.91,18.28,1.47,39.65,3.85,79.29,2.97,118.99-.25,11.17-.74,22.43-4.6,33.21-1.76,4.92-4.38,8.7-8.88,11.55-13.1,8.31-15.9,17.24-1.34,30.34,4.51,4.06,9.11,7.78,15.29,8.96,1.72.33,3.34,1.18,4.62,2.39,15.01,14.18,30.33,27.77,41.46,45.82,14.91,24.19,29.72,48.49,46.07,71.78,2.75,3.91,4.96,8.09,6.61,12.57,8.36,22.73,19.31,44.52,26.53,67.6,5.41,17.31,10.85,34.71,15.1,52.38,2.26,9.41,5.29,18.55,6.48,28.37,2.04,16.91-1.28,34.05,2.67,50.73,3.27,13.79,3.63,27.82,2.24,41.64-.99,9.86-.97,19.77-2.25,29.58-.23,1.74-.35,3.69-1.52,4.96-9.7,10.53-7.16,23.52-7.3,35.94-.03,2.5.23,5.04-.42,7.44-1.49,5.52-.48,10.34,3.28,14.65,1.15,1.31,2.74,2.97,2.49,4.5-1.44,8.86,4.63,15.38,6.74,23.09,1.14,4.16,3.59,6.66,7.16,9.02,9.62,6.33,20.12,11.05,29.92,17.06,14.36,8.81,33.76-.37,36.7-16.9.87-4.91,2.05-9.73,2.04-14.8,0-2.76,1.12-6.01,4.52-5.84,3.3.17,4.2,3.38,4.07,6.22-.2,4.05.07,7.95,1.41,11.8,2.18,6.3,4.11,7.58,9.86,4.39,17.27-9.59,35.53-17.13,53.05-26.22,35.02-18.16,69.62-37.1,104.54-55.44,41.12-21.59,82.16-43.34,123.02-65.44,29.21-15.81,58.76-30.98,88.03-46.68,21.78-11.69,43.93-22.67,65.71-34.36,2.64-1.41,5.28-2.97,8.26-3.49,4.95-.86,8.67.08,7.83,6.42-.44,1.62-1.71,2.6-2.88,3.64-.86.64-1.73,1.28-2.59,1.92-2.38-.47-4.26.57-6.32,1.64-43.78,22.96-87.43,46.17-130.99,69.53-56.11,30.08-112.47,59.68-168.63,89.67-46.03,24.58-92.11,49.06-138.51,72.94-9.32,4.8-19.02,8.76-28.29,13.73-9.06,4.87-18.87,5.74-28.98,1.97-40.25-14.98-80.96-28.74-120.5-45.57-11.91-5.07-24.23-9.48-34.58-17.68-7.55-5.99-7.83-8.94-1.03-15.45,2.18-2.09,4.28-4.28,5.77-6.86,7.53-13.03,16.72-24.82,26.42-36.27,3.26-3.85,5.18-8.42,6.19-13.47,3.04-15.28,8.12-29.8,15.79-43.47,7.74-13.79,10.36-28.49,5.91-44.06-3.95-13.82-3.22-27.94-.17-41.56,4.32-19.3.63-37.04-6.61-54.76-6.52-15.96-11.58-32.42-13.92-49.59-2.58-18.9-11.54-34.91-22.44-50.05-1.05-1.45-2.47-2.45-4.1-3.18-4.02-3.39-7.76-7.04-10.18-11.82-.59-1.62-.62-3.51-1.72-4.88-10.24-12.71-15.27-28.33-23.56-42.13-3.63-6.04-7.53-11.64-13.37-15.7-4.64-13.38-14.67-20.2-28.02-22.95-14.08-2.9-23.17-12.02-29.91-24.02-3.54-6.31-6.96-12.7-10.59-18.95-7.74-13.33-14.55-16.89-29.1-12.66-13.79,4.01-24.08.81-33.36-9.81-5.85-6.69-11.92-13.37-19.94-17.94-5.14-2.93-10.08-4.02-15.68-2.37-6.26,1.95-12.27,4.45-18.05,7.54-10.25,9.14-20.08,8.5-32.17,1.89-14.69-8.04-35.88-.27-47.61,14.91-2.25,2.91-3.4,6.31-4.38,9.79-2.08,4.38-1.67,9.84-5.8,13.33-14.29,1.03-26.24,8.24-38.49,14.64-1.53.8-3,1.79-4.85,1.6Z" style="fill: #d68e0c; stroke-width: 0px;"/>
  <path d="M57.72,827.91c-.07-.9-.14-1.81-.21-2.71-1.29-5.74,2.76-4.08,5.27-3.45,3.74.94,6.18,4.04,8.95,6.53,2.49,2.23,4.41,2.5,4.9-1.52,1.38-11.35,3.25-22.65,2.73-34.15-.12-2.7-.94-5.17-3.91-5.56-5.05-.67-5.28-4.37-5.65-8.12-2.69-12.49-6.84-24.5-11.71-36.29-.52-1.26-.25-2.85-.34-4.29,5.59-2.13,7.86,2.24,9.63,5.73,4.82,9.51,9.71,19.06,11.6,29.75.33,1.85-.02,4.56,2.72,4.51,2.37-.05,3.05-2.55,3.23-4.45.92-9.75,5.42-18.06,10.53-26.04,1.79-2.8,4.19-7.48,8.14-1.59-2.94,14.31-7.75,28.25-8.63,42.97-1.23,3.61-.93,7.32-.78,11.03,0,5.04.02,10.08,0,15.11-.14,3.16-.39,6.32.57,9.42,5.09,56.05,26.62,105.32,61.61,148.99,9.98,12.46,21.43,23.52,33.76,33.68,3.24,2.67,7.01,4.83,9.15,8.68.9,2.11,2.24,3.92,3.99,5.36,30.32,24.89,64.26,38.34,104,31.02,28.09-5.17,58.44-34.59,63.25-59.9,3.86-10.94,9.63-21.17,12.13-32.63,1.27-5.8,2.54-11.6,2.99-17.54.67-3.03,1.21-6.08,1.79-9.12.92-2.61.9-5.33.82-8.05.08-2.42.03-4.88,1.62-6.94,5.82-.48,6.19,4.14,6.67,7.84,3.14,23.89,3.13,47.58-3.62,71.07-3.05,10.61-7.13,20.66-12.05,30.47-3.68,7.33-2.4,9.93,5.53,11.38,7.16,1.31,13.99,3.42,20.58,6.55,7,3.32,13.89,1.78,18.18-3.59,3.94-4.94,3.8-9.65-.69-16.4-4.55-6.83-9.12-13.64-13.63-20.49-9.76-14.82-1.79-26.4,14.83-26.63,11.24-.16,21.66-1.19,31.86-5.59.93-.4,1.96-.11,2.9.3,1.6,3.89-1.56,5.21-3.85,6.82-4.9,3.44-10.36,5.73-15.97,7.84-14.69,5.53-17.54,12.89-10.92,27.17,5.1,11,7.67,22.03.45,33.21-6.31,6.76-14.1,8.9-23.09,7.5-6.93-1.08-13.94-.77-20.89-.44-7.1.33-10.1,4.11-9.36,11.43.48,4.73.66,9.45.5,14.18-.36,10.31-6.15,15.93-16.57,16.09-6.93.11-13.12-2.66-19.25-5.42-5.45-2.45-10.66-5.41-16.2-7.7-5.47-2.26-10.18-1.35-14.35,2.86-2.11,2.13-4.09,4.35-6.01,6.65-7.58,9.14-13.12,10.84-24.04,7.48-6.93-4.93-12.22-11.58-18.12-17.55-7.42-7.51-15.75-11.31-26.18-7.39-18.92,7.11-28.16-.25-36.52-16.5-1.69-3.29-3.85-6.35-5.79-9.51-2.71-1.62-4.01-4.37-5.5-6.95-6.32-10.96-15.51-18.34-27.94-20.75-17.06-3.31-26.78-13.28-29.56-30.3-.16-.98-.55-1.93-.7-2.91-3.22-22.27-14.36-39.33-32.99-51.99-11.34-7.71-17.38-18.42-14.35-32.77,1.29-4.54.6-9.19.74-13.79-.32-14.87-5.22-27.94-14.15-39.93-5.08-6.82-11.33-13.35-12.06-22.63Z" style="fill: #143452; stroke-width: 0px;"/>
  <path d="M454.77,765.26c8.92,3.02,10.46,12.16,15,18.66,8.71,12.48,11.55,27.08,14.11,41.95,3.32,19.36,10.36,37.8,17.52,56.06,5.41,13.81,4.87,27.63,2.28,41.81-2.64,14.47-3.88,28.96.39,43.49,4.39,14.91,1.55,29.32-5.65,42.53-6.25,11.48-11.82,23.12-14.36,35.9-2.28,11.5-6.33,21.57-14.84,30.17-8.92,9.01-14.73,20.53-21.87,30.97-1.11,1.63-2.32,3.28-3.78,4.59-7.19,6.46-7.16,6.56.03,12.39,12.05,9.76,26.67,14.43,40.6,20.32,37.6,15.89,76.4,28.69,114.52,43.22,9.54,3.64,18.94,2.52,27.38-2.1,7.68-4.21,15.76-7.41,23.48-11.44,45.09-23.52,90.21-47,135.23-70.65,31.77-16.69,63.41-33.61,95.08-50.49,44.42-23.68,88.8-47.42,133.2-71.13,26.6-14.2,53.21-28.37,79.79-42.61,2.46-1.32,4.61-1.88,6.65.54-14.38,9.51-29.9,16.99-45.01,25.2-34.2,18.59-68.52,36.97-102.81,55.39-26.16,14.05-52.34,28.08-78.55,42.04-32.66,17.4-65.37,34.71-98.06,52.07-24.78,13.15-49.56,26.31-74.34,39.46-20.8,11.04-41.77,21.77-62.35,33.21-15.63,8.69-30.82,11.22-48.41,4.79-55.88-20.44-112.17-39.77-168.28-59.57-1.6-.57-3.06-1.56-4.58-2.35-3.77-3.31-8.55-4.99-12.61-7.85-8.54-6.01-8.6-12.13-.11-18.26,1.83-1.32,3.76-2.55,5.9-3.18,9.14-2.68,15.15-9,20.55-16.46,9.29-12.85,17-26.34,19.63-42.25,3.6-9.15,5.98-18.41,3.9-28.39-.71-3.38.08-6.98-.29-10.43-1.33-12.57,3.29-21.37,14.81-27.35,8.65-4.49,15.72-11.02,12.9-22.58-1.31-10.57-6.25-20.01-9.33-30.03-4.47-13.85-2.9-26.82,4.7-39.38,3.57-5.89,6.54-12.41,4.7-19.81-2.8-9.58-9.52-16.89-14.63-25.12-2.5-4.03-5.34-7.84-7.45-12.12-7.49-12.79-5.94-26.87-5.42-40.67.22-5.75.22-11.36-.79-16.99-.1-1.33.18-2.54,1.15-3.52Z" style="fill: #c56f07; stroke-width: 0px;"/>
  <path d="M57.72,827.91c5.69,11.86,14.44,21.76,21.09,33.03,5.25,8.9,5.88,18.65,7.05,28.4-1.72,5.01.34,10.31-1.17,15.34-2.02,12.25,1.77,22.58,12.04,29.3,21.15,13.84,33.18,32.95,36.6,57.9,2.23,16.24,11.77,25.34,28.05,28.45,16.57,3.17,26.77,14.31,32.86,29.59-21.82-7.66-43.7-15.12-65.43-23.01-32.75-11.9-65.41-24.03-98.05-36.21-12.15-4.53-23.11-10.62-27.81-23.98-.61-1.74-.88-3.3-.67-5.04.99.09,2.27-.18,2.93.33,19.85,15.58,43.99,19.64,67.51,25.51,7.41,1.85,14.48,5.26,23.42,3.59-3.64-8.95-7.1-17.55-10.65-26.12-.55-1.34-2.18-2.48-2.22-3.74-.77-23.77-9.83-45.71-17.89-67.22-7.16-19.11-6.58-38.31-9.32-57.49-.43-2.99-.02-5.98,1.68-8.63Z" style="fill: #cf7e0e; stroke-width: 0px;"/>
  <path d="M1102.13,937.52c.56-1.03,1.13-2.06,1.69-3.09,2.72-5.13,1.86-10.73,1.96-16.15,3.25-164.87.77-329.75,1.55-494.63.01-2.49-.15-4.99.1-7.48.5-53.44.11-106.88.19-160.32,0-2.54-.88-4.9-1.19-7.35-.53-4.09-2.5-8.29.34-12.3,7.73,4.93,11.16,11.36,10.76,21.12-.52,12.82-1.6,25.8.85,38.61.15,33.21.44,66.43.43,99.65-.08,164.37-.22,328.74-.42,493.11-.01,9.22-.35,18.49-1.37,27.65-1.06,9.51-4.93,17.64-14.88,21.19Z" style="fill: #e0ad68; stroke-width: 0px;"/>
  <path d="M451.68,1042.5c-.8,14.22-8.23,25.73-15.44,37.25-6.83,10.91-15.52,19.25-28.18,24.08-11.53,4.4-11.26,11.22-.7,17.73q8.41,5.19,9.8,8.1c-14.19-3.52-27.54-9.48-41.28-14.3-16.84-5.91-33.52-12.26-50.27-18.43,3.23-8.12,7.27-9.98,14.38-6.66,2.7,1.26,5.37,2.57,8.12,3.73,24.05,10.08,48.53-.57,56.49-25.32,2.53-7.88,6.46-12.53,14.82-13.1,3.02-.21,5.63-1.89,8.47-2.78,6-2.08,11.4-5.41,17.09-8.13,2.12-1.02,3.98-2.95,6.7-2.18Z" style="fill: #b15407; stroke-width: 0px;"/>
  <path d="M429.17,1054.23c-2.52,1.04-5.07,3.02-7.54,2.94-10.4-.35-13.31,6.18-16,14.62-7.39,23.17-35.68,34.84-57.43,24.26-.89-.43-1.85-.81-2.62-1.4-7.41-5.63-14.13-5.63-19.96,2.3-9.09,2.72-17.05,8.32-26.39,10.39-2.6.62-5.19.99-7.73-.23-3.98-1.34-7.61-3.27-10.65-6.22,11.14,1.53,18.66-3.18,25.46-12.09,8.28-10.84,12.04-10.79,24.37-4.75,7.58,3.71,14.95,7.87,23.19,10.16,13.09,3.64,21.47-2.36,21.37-15.72-.03-4.19.26-8.34-.87-12.58-1.65-6.2,3.51-12.77,9.98-12.67,8.65.13,17.28-.63,26.01,1,7.07,1.32,13.48-2.2,18.85-7.05,2.22,2.36,1.78,4.71-.03,7.05Z" style="fill: #252836; stroke-width: 0px;"/>
  <path d="M291.49,1107.1c2.58.07,5.16.15,7.73.23-2.62,1.41-5.21,1.59-7.73-.23Z" style="fill: #143452; stroke-width: 0px;"/>
  <path d="M1106.77,236.21c3.21,13.41,3.06,27.06,3.02,40.72-.12,46.35-.08,92.7-.11,139.05-5.02-1.7-3.3-6.07-3.31-9.34-.17-31.97-.36-63.94,0-95.9.19-16.75-1.06-33.41-1.69-50.1-.3-7.95-2.7-9.41-9.9-5.7-21.75,11.21-43.45,22.5-64.98,34.13-23.5,12.7-47.01,25.39-70.6,37.89-50.95,27.01-101.83,54.13-152.84,81.02-52.79,27.83-105.5,55.81-159.17,81.92-5.65,2.75-10.95,5.88-15.48,10.34-8.65,8.5-18.68,9.77-29.68,5.09-55.64-23.69-113.43-41.54-170.05-62.59-8.42-3.13-17.04-5.72-25.23-9.49-5.5-2.53-9.55-6.28-11.38-12.18,1.11-13.99,8.86-24.1,19.6-32.05,12.48-9.24,26.65-15.7,40.18-23.18,49.36-27.29,99.29-53.52,148.91-80.32,23.49-12.69,47.07-25.24,70.7-37.67,48.37-25.44,96.44-51.44,144.88-76.75,20.13-10.52,40.05-21.46,60.57-31.2,5.93-2.82,11.83-6.73,19.06-4.77.24.29.47.59.7.88-1.7,3.76-4.64,6.2-7.96,8.62-16.22,11.83-34.56,19.85-52.11,29.24-41.99,22.47-84.36,44.21-126.47,66.46-36.1,19.08-72.04,38.48-108.07,57.69-46.4,24.74-92.9,49.33-139.21,74.24-14.27,7.68-28.24,15.82-44.08,19.99-5.81,1.53-10.23,5.07-12.99,10.47-4.5,8.81-4.63,14.18,6.35,18.19,53.52,19.55,107.54,37.73,160.7,58.29,10.91,4.22,20.7,10.82,31.93,14.38,7.15,2.26,12.71,1.1,16.64-5.42,6.96-11.58,18.89-16.7,29.93-22.73,34.34-18.74,69-36.91,103.36-55.61,46.39-25.24,92.59-50.81,138.93-76.13,30.39-16.6,60.92-32.96,91.34-49.51,32.17-17.5,64.23-35.18,96.44-52.6,12.42-6.72,13.19-6.35,22.05,4.65Z" style="fill: #edc134; stroke-width: 0px;"/>
  <path d="M198.36,371.14c-.07-1.03-.15-2.05-.22-3.08,1.76-5.93,3.52-11.85,5.28-17.78,3-4.15,3.44-9.62,7.01-13.46,2.98,3.43,1.82,7.61,1.87,11.48.18,14.45,1.1,16.43,14.89,21.33,27.96,9.93,55.7,20.47,83.75,30.11,13.21,4.54,26.07,10.01,39.33,14.38,7.22,2.38,13.19,6.99,19.72,10.6,4.98,2.75,8.59,2.33,11.73-3.13,4.47-7.77,8.59-15.72,13.02-23.52.3-3.2,2.54-5.25,4.47-7.49,1.46-2.03,3.23-3.84,4.54-5.99h0c6.71-9.55,16.99-14.64,26.62-20.13,40.92-23.3,82.46-45.49,123.93-67.82,56.44-30.4,113.07-60.45,169.69-90.52,50.68-26.92,101.33-53.93,153.05-78.85,5.66-2.72,11.47-6.53,18.38-3.51,9.34,1.63,17.05,8.18,19.43,16.52-4.95-1.43-9.9-2.87-14.84-4.3,0,0-.02-.45-.02-.45-8.34-2.04-16.3-.67-24.07,2.59-32.5,13.64-63.34,30.67-94.63,46.75-14.87,7.64-29.75,15.28-44.51,23.14-52.65,28.04-105.32,56.05-157.91,84.22-39.17,20.98-78.28,42.07-117.33,63.26-11.19,6.07-22,12.84-33.17,18.93-19.62,10.7-29.81,28.05-36.12,48.47-3.06,6.44-4.82,13.49-9.12,19.36-4.86,3.64-9.39,2.74-13.36-1.35-7.2-7.41-16.39-11.16-25.85-14.47-40.46-14.17-80.69-29-121.08-43.36-6.16-2.19-12.19-4.61-16.93-9.23-2.22-2.16-4.9-2.12-7.51-2.71Z" style="fill: #436585; stroke-width: 0px;"/>
  <path d="M394.74,398.06c-3.23,9.74-8.63,18.46-13.15,27.58-1.77,3.57-4.9,4.77-8.77,2.67-47.92-25.98-101.1-38.43-151.24-58.69-8.43-3.41-11.15-7.1-11.18-16.34-.02-5.49.02-10.97.04-16.46,2.74-6.83,6.86-12.79,11.59-18.37,2.88.42,3.72-5.62,7.49-2.37,3.43,2.96.94,6.13-.05,8.92-1.47,4.18-4.31,7.75-5.6,12.13-2.54,8.61-.91,12.72,7.27,15.71,13.76,5.03,27.59,9.88,41.39,14.8,26.67,9.51,53.07,19.79,80.11,28.28,6.46,2.03,12.14,5.74,15.44,12.21,1.47,2.89,3.39,5.56,6.21,7.35,4.42,2.8,7.8,3.06,11-2.44,2.95-5.07,4.65-11.05,9.46-14.97Z" style="fill: #42698c; stroke-width: 0px;"/>
  <path d="M895.4,123.77c-6.67.07-12.6,2.72-18.43,5.52-43.38,20.86-85.79,43.64-128.5,65.81-40.46,21-80.6,42.61-120.82,64.06-42.41,22.62-84.97,44.98-127.05,68.21-28.96,15.99-58.72,30.61-86.37,48.91-3.7,2.45-7,5.51-10.49,8.29,1.33-5.29,5.63-7.96,9.66-10.82,21.58-15.31,45.11-27.32,68.21-40.02,44.94-24.7,90.02-49.14,135.11-73.56,28.47-15.41,57-30.7,85.62-45.84,56.14-29.71,111.8-60.35,168.59-88.83,4.45-2.23,9.04-3.86,13.99-4.96,4.53-1.01,7.65,0,10.49,3.22Z" style="fill: #42698c; stroke-width: 0px;"/>
  <path d="M403.74,384.58c-.1,3.06-2.06,4.72-4.54,5.99.24-2.96,2.12-4.68,4.54-5.99Z" style="fill: #42698c; stroke-width: 0px;"/>
  <path d="M102.48,745.89c-2.21-2.59-3.99-.42-4.61,1.06-3.55,8.52-10.74,15.57-10.5,25.67.04,1.65-.89,3.32-1.27,5-.64,2.85-2.3,4.4-5.27,4.04-3.15-.38-3.74-2.68-3.86-5.41-.53-12.03-7.09-21.89-11.86-32.38-1.34-2.96-3.72-5.29-7.38-5.53-2.56-12.18-.51-19.53,10.59-24.74,14.68-6.9,18.58-17.43,16.62-32.51-1.21-9.24-2.09-18.85,1.23-28.07,2.6-2.63,5.61-1.3,8.48-.81,19.06,3.28,25.43-.02,33.57-17.58.74-1.6,1.57-3.11,2.72-4.44,1.53-4.41,3.06-8.81,4.59-13.22,4.1-3.24,7.6-.48,11.01,1.32,6.61,3.49,12.72,7.78,19.64,10.82,7.14,3.13,13.04,1.81,18.79-2.71,3.75-2.96,6.75-6.61,9.85-10.21,6.08-7.06,13.4-7.44,20.12-1.07,6.53,6.17,12.72,12.7,19.13,18.99,8.32,8.15,17.65,11.13,29.38,7.81,16.44-4.66,22.28-1.68,31.13,13.39,4.8,8.17,8.7,16.85,14.42,24.49,5.92,7.89,13.55,13.16,23.04,15.73,3.86,1.04,7.72,2.08,11.43,3.58,9.63,3.87,16.03,10.57,18.94,20.73,2.69,9.37,3.94,19.05,6.72,28.41,2.51,8.48,7.47,15.08,13.9,20.86,8.72,7.84,18.69,14.16,27.17,22.29,3.2,3.07,6.05,1.88,9.38-.14,3.96-2.41,7.08-7.64,13.03-4.8.4,1.22.46,2.51.02,3.66-4.53,11.84-2.99,23.36,1.75,34.72-1,5.92-5.4,6.39-10.14,6.28-8.11-.18-9.98,1.78-9.51,10.04.31,5.4,2.57,10.07,5.2,14.66,4.76,8.29,10.87,15.52,17.63,22.18,5.89,5.81,8.66,5.54,15.64,1.04,6.67-4.3,13.72-8.06,22.21-6.34,1.27,3.98-2.32,5.07-4.4,6.63-4.97,3.72-9.95,7.43-14.82,11.28-4.56,3.61-8.2,7.98-10.69,13.22-3.95,8.3-1.69,13.18,7.12,15.62,1.43.4,2.94.56,3.93,1.87-4.28,10.17-9.54,13.3-20.06,11.97-6.56-.83-8.92,1.14-8.06,7.72,1.24,9.52,5.5,18.06,10.12,26.3,2.85,5.09,7.56,4.95,12.38,2.56,4.57-2.27,9.22-3.87,14.19-1.06.73,3.68-.94,5.15-4.49,4.9-8.86,3.06-17.22,8.37-27.04,7.28-4.2-.47-8.02-1.28-12.39-.07-13.25,3.67-15.58,9.82-9.31,21.74,4.56,8.68,10.41,16.35,15.99,24.22,4.56,6.43,2.76,12.44-1.36,17.02-4.23,4.71-10.39,8.45-17.38,5.05-8.35-4.06-16.81-7.13-26.17-8.14-6.55-.71-8.87-5.43-5.42-11.29,9.35-15.88,14.16-33.22,17.35-51.08,2.69-15.04,1.95-30.26.39-45.35-.53-5.1,1.01-11.37-4.93-14.86-3.98-6.48-2.75-13.94-3.39-20.89-1.96-21.08-5.95-41.65-12.7-61.69-19.18-56.1-50.63-103.16-100.79-136.36-19.93-13.19-41.76-21.43-65.62-23.16-18.64-1.35-36.01,4.11-52.35,12.87-12.39,6.64-24.13,14.11-32.21,26.09-6.71,7.48-11.7,16.03-15.99,25.08-1.05,2.21-1.05,5.67-4.81,5.74Z" style="fill: #153c5c; stroke-width: 0px;"/>
  <path d="M69.79,778.92c1.17,3.64,2.51,6.6,7.47,6.11,3.5-.34,4.11,2.72,4.24,5.73.48,11.18-.84,22.25-2.59,33.22-.52,3.26,1.98,8.63-2.7,9.7-3.79.87-5.49-4.42-8.54-6.37-3.04-1.95-5.41-8.17-10.17-2.11-2.36-7.23.42-13.56,3.7-19.66,4.5-8.38,8.84-16.74,8.58-26.62Z" style="fill: #153c5c; stroke-width: 0px;"/>
  <path d="M130.94,630.2c-1.89,16.58-16.51,30.09-33.85,24.4-3.44-1.13-7.27-1.09-10.92-1.58-.61-2.19.96-3.75,1.6-5.58,13.22-8.68,26.4-17.47,43.17-17.24Z" style="fill: #616181; stroke-width: 0px;"/>
  <path d="M396.52,420.51c2.98,7.35,9.22,10.85,16.15,13.32,44.76,15.97,89.6,31.73,134.3,47.87,18.45,6.66,37.12,12.72,54.87,21.28,12.42,5.99,20.14,4.26,29.74-5.3,3.25-3.24,6.87-5.65,10.93-7.67,26.37-13.11,52.89-25.93,78.99-39.54,55.9-29.15,111.62-58.63,167.33-88.14,34.97-18.52,69.75-37.37,104.67-55.97,33.64-17.92,67.33-35.76,101.05-53.53,9.12-4.81,11.69-2.96,12.26,7.26,2.73,49.1.89,98.24,1.51,147.36.04,2.86-1.14,6.04,1.36,8.55.01,152.27.2,304.54-.2,456.81-.05,17.28-1.17,34.61-1.16,51.93,0,4.12-1.6,7.13-4.51,9.7.19-7.95-4.54-6.41-8.86-4.24-15.81,7.97-31.54,16.1-47.22,24.33-12.98,6.82-25.8,13.94-38.77,20.79-53.73,28.42-107.67,56.47-161.17,85.32-27.18,14.66-54.65,28.73-81.96,43.13-13.65,7.2-26.76,15.48-40.62,22.23-17.01,8.27-33.36,17.88-50.89,25.14-7.1,2.94-13.62,7.26-20.53,10.71-5.43,2.71-9.5,2.39-10.5-5.05-.61-4.54-3.89-8.59-1.64-13.68.88-1.99-.2-5-2.77-5.03-2.05-.02-3.17,3-2.59,4.68,2.24,6.48-1.59,12.14-2.19,18.2-1.02,10.23-9.27,16.95-20.74,17.95-7.68.67-14.96.16-22-4.79-8.89-6.24-18.9-10.88-28.43-16.2-.65-.36-1.74-.51-1.93-1.02-3.25-8.66-10.07-16.05-10.15-25.73-.03-3.69.01-6.64-2.69-9.45-4.2-4.37-4.58-9.18-4.07-15.54.85-10.59.96-21.37,1.22-32.07.07-2.88.14-6.2,2.16-7.53,8.47-5.61,7.55-13.52,6.32-21.74-.26-1.71-.48-3.59-.05-5.22,5.44-20.34,1.92-40.39-1.19-60.6-.94-6.13-1.06-12.61-.78-19.09.64-15.07-1.58-29.89-4.97-44.85-4.06-17.91-12.75-34.39-14.6-52.98-.76-7.63-4.69-15.17-8.18-22.26-7.49-15.22-12.88-31.24-18.79-47.05-4.43-11.87-12.6-21.32-18.87-31.98-12.99-22.08-27.89-42.9-41.38-64.64-7.16-11.54-17.87-19.77-26.84-29.53-8.68-9.43-20.82-11.41-29.63-19.96-12.02-11.66-13.69-23.02.33-31.34,9.26-5.5,12.13-13.57,13-22,2.64-25.5,3.02-51.13.8-76.77-.76-8.84-.32-17.78-.39-26.68-.12-15.41-1.21-30.75-2.85-46.07-.53-4.96-4.36-8.29-5.69-12.79-3.19-2.85-1.14-5.74-.09-8.64.68-1.06,1.59-1.77,2.88-1.91Z" style="fill: #df9e1a; stroke-width: 0px;"/>
  <path d="M198.36,371.14c1.83-1.32,3.71-4.94,6.01-1.83,7.47,10.11,19.24,11.94,29.76,15.8,39.68,14.57,79.54,28.67,119.34,42.94,6.19,2.22,11.99,5.3,16.19,10.33,3.84,4.61,7.95,5.45,13.14,3.23,4.29,6.93,2.75,14.69,2.05,21.85-2.07,21.18-.83,42.36-1.17,63.53-.23,14.21-.03,28.43-.05,42.64,0,4.51-.3,8.96-1.9,13.25-3.21,8.61-7.68,11.31-17.22,10.26-9.8-1.6-14.51-9.68-20.46-16.15-1.33-1.44-2.36-3.17-3.52-4.77-3.92-2.36-6.5-6.08-9.34-9.49-3.74-4.48-6.98-5.02-11.82-.84-8.4,7.25-17.63,13.35-29.79,10.21-10.02-1.15-15.21-9.12-21.67-15.31-4.36-3.11-7.03-7.63-9.92-11.96-2.63-3.93-5.26-7.84-8.49-11.36-3.64-3.98-7.18-4.94-11.58-1.21-2.87,2.43-6.41,3.77-9.84,5.29-6.42,2.85-12.78,3.69-19.26.31-8.58-4.03-12.88-11.28-13.01-20.26-.69-47.12-1.67-94.26,1.54-141.34.12-1.73.67-3.42,1.02-5.13Z" style="fill: #153c5f; stroke-width: 0px;"/>
  <path d="M454.77,765.26c.03.99.06,1.99.08,2.98-4.22,7.99-10.7,13.09-19.47,15.3-4.7.06-8.57,1.96-11.84,5.26-3.76,3.8-7.59,3.97-11.67.39-3.53-3.11-9.38-3.93-9.81-10.06,4.7-2.88,7.72,1.68,11.5,2.73,2.96.83,5.79,2.48,7.81-1.13,2.01-3.6,2.01-7.18-1.4-10.1-1.91-1.63-4.27-2.53-6.47-3.67-5.55-2.9-11.05-6-14.64-11.27-3.8-5.58-9.18-9-14.81-12.21-1.88-1.07-3.99-3.05-6.09-1.31-2.32,1.93-.97,4.69-.14,6.95,2.76,7.43,7.66,13.31,13.77,18.23,2.52,2.03,5.26,3.79,7.68,5.92,1.72,1.52,4.46,2.84,2.65,6.01-2.16.95-3.87-.2-5.58-1.22-17.8-10.61-27.69-26.09-28.91-46.93-1.06-18.07-9.34-28.97-26.51-34.96-2.83-.99-5.69-1.88-8.6-2.58-12.43-2.98-21.17-10.2-26.93-21.75-7.47-14.97-15.56-29.48-30.29-39.14-4.94-3.24-6.56-9.49-4.04-15.44,2.02-4.79,1.02-8.76-1.82-12.59-6.74-9.11-13.87-17.72-26.15-19.43-1.75-.24-3.3-1.14-4.22-2.81,10.27-5.34,17.02,1.93,23.78,7.29,6.02,4.77,11.13,10.73,16.51,16.28,7.02,7.24,15.02,10.42,24.94,6.63.92-.35,1.96-.37,2.93-.6,16.44-3.97,23.67-.84,32.08,13.87,5.68,9.93,10.35,20.43,17.87,29.29,4.69,5.53,10.47,9.01,17.15,11.31,2.59.89,5.16,1.95,7.83,2.44,13.09,2.43,21.3,10.08,24.89,22.82,2.71,4.02,3.8,8.63,4.77,13.26,3.45,16.38,10.47,30.46,24.73,40.31,3.6,2.49,7.29,5.28,9.41,9.43,3.01,3.5,6.02,7,9.03,10.49Z" style="fill: #455c82; stroke-width: 0px;"/>
  <path d="M238.85,582.45c14.44.96,23.97,9.56,31.76,20.68,3.36,4.79,5.77,9.45,1.84,15.73-2.63,4.2-.27,10.3,3.3,12.34,15.28,8.74,22.96,23.29,30.25,37.95,6.23,12.54,15.12,20.19,28.96,23.16,16.32,3.5,28.92,12.19,33.38,29.43,1.92,7.41,1.7,15.14,3.44,22.72,3.98,17.35,16.16,26.61,30.48,34.35h0c3,6.02,9.71,7.43,14.4,11.37,2.37,1.99,4.5-.98,6.14-2.73,3.37-3.61,7.14-6.17,12.36-5.66,1.02,2.84-.84,3.8-2.99,4.56-4.72.6-8.05,3.8-11.57,6.48-4.9,3.73-8.26,4.16-13.13-1.21-6.09-6.71-13.66-12.28-21.25-17.38-15.25-10.26-20.2-25.67-22.97-42.5-1.13-6.86-2.55-13.73-6.23-19.76-5.2-8.51-13.89-11.87-22.92-13.87-15.34-3.41-25.29-12.92-32.57-26.21-4.65-8.49-8.58-17.45-15.2-24.74-4.54-5.01-9.77-7.61-16.58-4.85-17.24,6.98-30.88,1.7-42.39-12.01-4.32-5.14-9.4-9.65-14.24-14.35-5.06-4.91-11.69-4.66-16.33.51-.66.73-1.06,1.69-1.65,2.48-11.65,15.7-22.42,17.59-38.96,7.51-6.45-3.93-12.15-9.86-20.64-9.47.55-3.43,1.01-6.9,4.14-9.17,3.58-2.01,5.51.85,7.64,2.72,2.79,2.46,5.36,5.11,8.59,7.08,14.19,8.64,23.07,7.88,35.66-3.17,2.99-2.62,5.72-5.49,8.49-8.33,6.22-6.38,9.22-6.26,15.23.23,1.01,1.09,2.08,2.13,3.08,3.23.75.77,1.42,1.62,2.04,2.49,5.39,7.54,12.43,13.49,19.06,19.84,2.34,2.24,5.43,3.48,8.5,4.53,2.37.81,4.46.03,6.12-1.63,1.89-1.89.57-3.81-.57-5.36-7.47-10.19-14.75-20.57-24.53-28.79-.6-.34-1.17-.73-1.73-1.13-1.89-1.55-4.39-2.11-6.2-3.76-2.05-1.87-3.06-3.87-.15-5.91,5.53-3.57,11.35-6.45,17.97-7.39Z" style="fill: #2a5684; stroke-width: 0px;"/>
  <path d="M217.83,610.95c-.8-.57-1.69-1.05-2.39-1.74-8.41-8.29-8.57-8.43-16.61,1.04-6.49,7.65-14.82,12.86-24.12,15-10.23,2.36-18.09-4.69-25.74-10.54-3.07-2.35-4.8-6.5-9.3-6.92,10.51-17,34.6-24.51,51.99-15.57,8.88,4.57,16.99,9.02,25.15-.84.81-.97,2.69-1.06,4.07-1.55-1.72,3.35.41,4.92,3.02,5.86,1.86.67,3.61,1.16,4.4,3.18-.71.75-1.61.96-2.61.99q-8.34.25-7.09,8.44c.15,1.01-.04,1.9-.77,2.65Z" style="fill: #566288; stroke-width: 0px;"/>
  <path d="M364.51,593.14c11.56-.95,16.69-6.93,16.73-20.09.09-30.17-.18-60.34.14-90.5.14-13.65,2.02-27.26,1.43-40.95,2.51-6.53,5.01-13.06,7.52-19.59,1.61-1.02,3.21-1.43,4.76.11.3,3.09-2.93,5.65-1.37,8.93-3.09,43.35-1.56,86.76-1.96,130.15-.04,4.74.14,9.51-.36,14.21-1.42,13.54-13.37,21.31-26.89,17.73Z" style="fill: #473d4e; stroke-width: 0px;"/>
  <path d="M208.82,537.87c11.03,2.02,20.72-1.51,29.12-8.15,4.77-3.77,7.92-2.67,11.48,1.05,7.44,7.78,12.93,16.93,18.48,26.04-11.15-6.44-23.15-8.28-35.9-7.44-9.69.64-16.69-5.15-23.18-11.5Z" style="fill: #ba670a; stroke-width: 0px;"/>
  <path d="M445.74,754.77c-24.47-13.9-35.76-35.93-38.91-63,8.93,3.67,12,12.38,16.28,19.74,7.23,12.41,11.79,26.33,21.16,37.58,1.29,1.55,1.61,3.62,1.46,5.68Z" style="fill: #bf6c06; stroke-width: 0px;"/>
  <path d="M289.58,572.12c11.69-.31,21.74-4.86,29.93-12.88,4.35-4.26,7.45-3.79,11.1.18,3.67,3.99,7.59,7.79,9.93,12.82-6.48-.74-12.76-.27-18.87,2.4-11.09,4.85-21.92,5.07-32.09-2.51Z" style="fill: #a04d0a; stroke-width: 0px;"/>
  <path d="M375.49,833.97c7.79,18.66,10.94,38.4,13.19,58.29.97,8.6,1.14,17.3,1.67,25.95-.06,2.45-.13,4.9-.19,7.34-1.48,2.34,0,5.11-1.09,7.51-.65,3.02-.01,6.31-1.97,9.05-8.38,13.39-13.14,28.49-20.12,42.54-7.52,15.14-17.1,28.79-30.15,39.59-17.28,14.29-37.35,21.56-59.85,21.82-3.24.04-6.48.01-9.73.09-24.2-1.57-45.47-10.83-64.94-24.78-1.61-1.15-3.16-2.41-3.68-4.49-21.32-16.67-40.51-35.41-55.92-57.8-24.45-35.52-41.08-74.18-47.79-116.99-.89-5.66-.91-11.34-1.8-16.96-1.02-2.97.44-6.22-1-9.14l-.02-15.93c1.58-3.42-.14-7.18,1.08-10.64.7-15.03,4.57-29.37,9.31-43.53,5.74-10.93,10.22-22.62,19.14-31.63,10.56-9.28,22.02-16.97,35.52-21.52,25.31-8.53,49.97-4.91,73.9,4.53,28.4,11.2,51.72,29.85,71.8,52.65,8.26,9.38,15.81,19.29,21.8,30.33,5.37,9.88,3.27,13.83-7.81,14.02-4.49.08-8.98-.02-13.37,1.26-5.71,1.67-9.91,4.69-10.59,11.11-.57,2.03-1.92,3.5-3.75,4.37-15.99,7.63-27.4,20.81-39.88,32.7-2.64,2.51-4.75,5.81-8.79,6.45-6.21-1.71-9.29-7.09-13.24-11.42-8.84-9.69-15.45-21.31-25.82-29.68-11.45-9.25-23.44-8.55-33.68,2.05-9.54,5.4-20.22,8.87-28.3,16.75-1.08,1.03-2.21,2.01-3.24,3.08-10.68,11.1-11.3,17.57-2.56,30.17,14.74,21.24,28.48,43.16,43.21,64.41,6.26,9.03,13.74,16.9,20.76,25.22,1.79,7.31,10.64,14.21,19.24,14.99,7.26.66,13.74-1.48,19.82-5.31,6.38-4.01,12.16-9.05,16.98-14.51,18.16-20.6,39.95-37.46,58.4-57.71,8.27-9.08,14.97-18.74,13.06-31.96.52-3.17,1.31-6.19,4.48-7.85,7.38.66,13.69-.86,17.97-7.75,1.91-3.09,4.54-2.38,6.76.13,2.34,2.65,3.78,5.81,5.17,9.02,6.89,15.87,9.27,32.93,13.52,49.57-.14-12.34,1.09-24.71-.66-37.05-1.02-7.18-.66-14.4-.44-21.61.08-2.73.44-5.56,3.62-6.74Z" style="fill: #69be4b; stroke-width: 0px;"/>
  <path d="M460.63,973.69c2.07-.94,3.57-2.45,4.56-4.48,6.75-4.84,13.54-9.62,18.19-16.74,3.88,8.77-1.22,14.65-6.58,20.43-.5.53-1.17.99-1.86,1.24-21.07,7.89-20.18,25.04-18.01,42.71,1.13,9.16-.64,17.69-5.25,25.66-7.01,4.86-14.64,8.53-22.51,11.73.01-2.35.02-4.7.03-7.05,4.88-9.3,4.02-18.66.24-28.01-.93-2.3-2.26-4.44-3.27-6.71-5.07-11.42-1.89-19.5,10.27-25.08,6.29-2.89,13.1-4.6,18.88-8.68,2.05-1.45,4.26-2.55,5.31-5Z" style="fill: #3d2f3a; stroke-width: 0px;"/>
  <path d="M198.62,1016.88c20.61,14.83,42.97,25.24,68.65,27.32,20.43,3.03,39.24-2.37,57.4-11.09,17.43-8.37,31.83-20.27,42.37-36.63,1.19-1.85,2.39-3.91,5.18-3.52-.84,10.76-6.78,19.36-13.11,27.21-25.24,31.32-57.63,42.31-97.11,33.53-22-4.89-40.68-15.76-58.18-29.17-2.27-1.74-6.26-3.25-5.2-7.65Z" style="fill: #0e1d24; stroke-width: 0px;"/>
  <path d="M372.22,992.96c-6.48,8.44-12.22,17.48-20.45,24.49-23.61,20.13-50.77,29.78-81.86,27.92-.9-.05-1.77-.77-2.65-1.18,16.59.4,32.48-1.83,47.95-8.75,16.59-7.42,28.78-19.24,39.17-33.5,9.17-12.59,15.05-26.85,20.98-41.12,2.84-6.84,5.09-14.19,11.72-18.72.22,15.04-5.33,28.56-11.07,42.02-1.26,2.95-2.54,5.89-3.81,8.83Z" style="fill: #3d8a28; stroke-width: 0px;"/>
  <path d="M366.25,1071.44c0,1.74.24,3.53-.05,5.23-.67,3.89-.95,8.42-5.08,10.2-4.15,1.78-6.78-1.79-9.55-4.21q-11.58-10.1-.92-20.59c3.08-3.01,6.54-8.22,10.71-6.14,4.29,2.14,5.39,8.01,4.92,13.28-.07.74,0,1.49,0,2.24h-.03Z" style="fill: #153c5c; stroke-width: 0px;"/>
  <path d="M84.68,904.68c.09-5.13-.64-10.33,1.17-15.33-.36,5.11,1.43,10.39-1.17,15.33Z" style="fill: #153c5c; stroke-width: 0px;"/>
  <path d="M93.17,789.43c-.02,3.58.8,7.24-1.08,10.63.27-3.55-1.24-7.29,1.08-10.63Z" style="fill: #153c5c; stroke-width: 0px;"/>
  <path d="M92.11,815.99c1.79,2.89,1.14,6.04,1,9.14-2.11-2.85-.83-6.08-1-9.14Z" style="fill: #153c5c; stroke-width: 0px;"/>
  <path d="M389.07,933.06c-.13-2.57-.73-5.22,1.09-7.51-.16,2.53.98,5.25-1.09,7.51Z" style="fill: #153c5c; stroke-width: 0px;"/>
  <path d="M475.59,873.32c-8.17,1-16.2,2.53-22.5,8.36-5.02,4.64-10.13,4.04-14.58-.09-9.31-8.65-17.42-18.36-23.01-29.91-1.97-4.07-2.97-8.35-2.81-12.97.29-8.61,2.79-10.74,11.51-9.3,4.1.68,7.31-.56,9.51-4.18,11.47-6.34,19.43-5.88,28.31,1.64,5.15,7.77,10.25,15.58,15.47,23.3,2.63,3.9,4.83,7.95,5.79,12.59,1.17,6.23-1.24,9.86-7.69,10.54Z" style="fill: #4a5c80; stroke-width: 0px;"/>
  <path d="M483.38,952.46c-2.29,9.68-9.5,14.02-18.19,16.74-5.25-.15-10.23-.11-14.96,3.26-3.72,2.65-8.98,2.32-11.47-1.58-6.55-10.27-12.35-21.07-12.46-33.77-.04-4.44,2.85-8.24,6.91-6.5,11.35,4.87,17.05-2.09,23.02-9.33,8.27-4.46,12.64-4.1,17.95,1.51,3.67,9.7,8.39,19.07,9.2,29.65Z" style="fill: #3d4e6f; stroke-width: 0px;"/>
  <path d="M462.01,826.88c-9.12-5.94-18.76-3.02-28.31-1.63-8.56-12.65-6.99-25.7-1.53-38.9,1-1.52,2-3.04,2.99-4.56,8.83-1.22,13.21-8.9,19.69-13.54,1.9,4.88,2.31,9.76,1.93,15.1-1.05,14.77-2.38,29.74,5.22,43.53Z" style="fill: #44394a; stroke-width: 0px;"/>
  <path d="M474.18,922.81c-5.67-4.23-11.92-1.55-17.95-1.51-5.46.39-10.32-.31-13.4-5.77-3.3-5.86-.16-10.58,2.4-15.3,4.4-8.13,12.12-12.93,19.18-18.35,3.72-2.85,7.45-5.7,11.18-8.55,3.64-2.73,7.78-5.09,7.68-10.54,3.21,6.64-.1,12.46-2.46,18.33-2.48,6.19-6.38,11.67-8.16,18.28-2.19,8.14.95,15.64,1.52,23.43Z" style="fill: #492f34; stroke-width: 0px;"/>
  <path d="M395.09,422.13c-1.59-.04-3.18-.07-4.76-.11,4.49-12.73,9.81-24.91,18.93-35.27,7.28-8.26,16.78-13.21,25.96-18.4,27.27-15.44,54.88-30.27,82.45-45.18,51.03-27.59,102.06-55.2,153.23-82.53,32.3-17.25,64.86-34.04,97.32-50.99,23.83-12.45,47.54-25.13,71.58-37.14,13.75-6.87,27.57-13.76,42.29-18.5,6.22-2,12.18-1.99,17.89,1.54-7.97.29-14.89,3.86-21.72,7.36-83.79,42.98-166.75,87.53-249.79,131.91-66.79,35.69-133.29,71.94-200.02,107.76-15.81,8.49-27.94,19.68-31.92,37.94-.48.54-.95,1.08-1.43,1.62Z" style="fill: #6d5963; stroke-width: 0px;"/>
  <path d="M375.49,833.97c-3.21,9.5-1.88,19.17-.93,28.78,1.39,14.08.54,28.1-.69,42.34-8.58-21.45-8.77-45.56-23.04-66.31-4.82,9.46-11.38,14.99-22.02,10.5-4.06-5.43-5.34-12.21-8.88-17.93-6.86-11.11-13.87-21.9-28.43-23.69-.21-9.31,5.09-14.24,16.76-15.26,3.71-.32,7.47-.02,11.21-.09,6.53-.13,8.22-2.54,5.05-8.25-5.17-9.32-10.94-18.25-17.72-26.57-16.84-20.68-36.6-38.02-60-50.62-32.18-17.33-65.73-24.11-100.56-7.47-6.89,3.29-13.04,8.15-19.42,12.45-1.66,1.12-2.98,2.67-5.22,2.43,23.96-31.74,74.15-51.28,121.52-32.61,34.39,13.55,61.69,36.04,84.72,64.26,19.68,24.12,34.44,51.11,45.38,80.21.95,2.54,1.52,5.22,2.26,7.84Z" style="fill: #7cca69; stroke-width: 0px;"/>
  <path d="M296.31,625.86c3.86.46,7.46,1.34,8.8,6.18,3.35,12.1,8.34,22.85,18.98,30.98,6.24,4.77,6.47,14.22,10.23,21.22,1.32,2.46-1.49,3.21-3.6,3.11-6.5-.33-11.78-2.85-15.86-8.19-7.32-9.57-11.11-21.08-17.52-31.14-2.17-3.41-4.66-6.37-7.35-9.3-1.99-2.17-5.77-3.69-3.31-7.94,2.15-3.73,5.48-4.76,9.65-4.91Z" style="fill: #6682a0; stroke-width: 0px;"/>
  <path d="M402.26,778.8c-2.42-4.34-7.08-6.07-10.69-9.01-8.07-6.58-14.62-14.04-16.84-24.65-.47-2.25-.31-3.75,1.33-5.29,1.92-1.82,3.73-.9,5.42.13,6.72,4.09,14.01,7.16,18.57,14.39,4.24,6.72,11.62,9.95,18.65,13.12,5.18,2.33,7.04,6.05,5.78,11.38-1.48,6.28-4.75,7.7-10.73,4.97-3.8-1.74-7.65-3.36-11.48-5.03,0,0,0,0,0,0Z" style="fill: #6885a3; stroke-width: 0px;"/>
  <path d="M217.83,610.95c-.39-1.14-.54-2.47-1.23-3.38-1.83-2.44-2.4-4.81-.5-7.43,2.04-2.8,4.87-3.07,7.95-2.42,1.43.3,2.83.76,4.25,1.15,0,0,.15.13.15.13,8.42,7.75,15.52,16.71,22.67,25.57,2.31,2.86,4.43,6.54.85,10.03-3.36,3.28-7.18,1.86-10.26-.34-8.54-6.11-15.37-14.05-22.37-21.79-.51-.51-1.01-1.02-1.52-1.54Z" style="fill: #6283a4; stroke-width: 0px;"/>
  <path d="M219.35,612.49c6.31,4.5,11.04,10.66,16.68,15.87,1.46,1.35,2.72,2.97,4.35,4.06,3.39,2.25,7.48,4.5,10.76.85,3.11-3.46,0-6.85-2.12-9.92-6.07-8.77-15.2-14.96-20.56-24.33,6.42,1.6,8.9,7.41,12.6,11.88,4.72,5.7,9.5,11.38,13.78,17.39,1.41,1.98,5.31,4.35,1.7,7.52-2.83,2.49-6.08,3.95-10.12,2.18-5.33-2.33-9.99-5.5-13.68-9.97-4.35-5.28-10.93-8.63-13.39-15.53Z" style="fill: #566288; stroke-width: 0px;"/>
  <path d="M291.51,807.64c7.66-1.94,13.49.8,18.44,6.68,8.73,10.37,16.53,21.16,18.87,34.95-.9,2.57-1.8,5.15-2.7,7.72-.23.28-.45.57-.68.85-9.65,3.96-17.07,10.93-24.39,18.03-22.84,22.16-46.23,43.74-69.12,65.85-8.34,8.06-18.17,13.98-30.59,13.28-2.29-.3-4.47-.75-4.87-3.6-22.02-20.67-35.23-47.79-52.57-71.89-3.91-5.44-7.5-11.12-11.25-16.67-10.8-15.99-9.6-23.46,5.82-36.01,10.81-2.16,18.56,1.62,24.61,10.99,9.59,14.85,19.43,29.55,29.06,44.38,6.73,10.37,8.86,10.16,17.1,1.29,6.07-6.54,11.02-14.16,18.52-19.38,3.11-2.16,4.91-5.58,6.47-9.01,1.3-2.71,3.19-4.81,6.07-5.89,8.57-7.96,17.42-15.63,25.62-23.95,7.46-7.58,15.96-13.33,25.59-17.6Z" style="fill: #d7d8d8; stroke-width: 0px;"/>
  <path d="M235.81,854.93c-.35,3.99-2.69,7.23-5.48,9.39-8.94,6.9-15.55,15.85-22.74,24.32-4.71,5.54-9.71,5.2-13.97-1-11.93-17.37-22.61-35.57-35.09-52.59-3.49-4.76-7.32-7.03-13.05-6.83-2.37.09-5.04.87-7.01-1.39,7.69-8.6,18.49-11.93,28.41-16.73,7.69-3.17,11.73,2.04,15.24,7.17,10.13,14.79,20.1,29.68,29.78,44.77,4.74,7.39,4.54,7.37,11.15,1.29,3.76-3.46,7.11-7.72,12.75-8.4Z" style="fill: #e3e8e8; stroke-width: 0px;"/>
  <path d="M196.47,951.41c1.62.83,3.24,1.66,4.87,2.49,17.42.19,30.32-9.19,42.54-20.04,24.15-21.46,46.43-44.91,70.68-66.26,3.91-3.44,6.64-8.11,11.28-10.79,0,0,.28.18.28.18,3.9,13.52-3.86,23.05-12.08,31.5-16.65,17.11-34.47,33.09-51.12,50.2-8.14,8.36-16.02,16.98-25.65,23.52-13.17,8.95-27.72,7.15-38.56-4.02-1.76-1.82-4.8-3.45-2.23-6.79Z" style="fill: #418d24; stroke-width: 0px;"/>
  <path d="M235.81,854.93c-4.69,4.08-9.96,7.68-13.92,12.38-4.62,5.47-6.9,3.59-9.99-1.19-10.41-16.12-21.09-32.07-31.57-48.14-3.22-4.94-7.28-8.12-13.44-7.87,4.42-9.83,22.73-12.98,33.39-4.51,6.21,4.93,11.45,10.81,16.36,17.05,7.33,9.33,14.05,19.25,23.66,26.55-1.5,1.91-2.99,3.82-4.49,5.74Z" style="fill: #84d076; stroke-width: 0px;"/>
  <path d="M450.24,870.21c0,3.1-.53,6.06-3.55,7.64-3.11,1.63-5.1-.73-7.08-2.53-7.41-6.74-12.72-15.1-18.03-23.47-1.55-2.44-1.63-5.2-1.19-7.92.36-2.19,1.46-3.51,4.11-2.97,7.38,1.51,25.62,22.13,25.73,29.24Z" style="fill: #6c86a2; stroke-width: 0px;"/>
  <path d="M360.74,840.98c-35.07-78.79-82.35-141.88-172.15-158.97,9.8-4.74,19.61-2.54,29.07-1.3,32.11,4.21,58.33,21.12,81.87,41.73,13.36,11.69,23.25,27.08,32.53,42.45,12.68,21.01,22.54,43.23,28.64,67.05.43,1.67.79,3.37,1.02,5.08.09.64-.31,1.35-.99,3.96Z" style="fill: #93d888; stroke-width: 0px;"/>
  <path d="M325.84,856.81c-8.56,12.79-21.19,21.59-31.92,32.23-16.79,16.66-33.89,33.06-51.62,48.71-11.43,10.09-24.3,18.42-40.96,16.14,17.99-.84,28.93-13.16,40.74-24.48,23.66-22.67,47.74-44.9,71.65-67.32,3.42-3.21,7.73-4.32,12.11-5.28Z" style="fill: #abb69c; stroke-width: 0px;"/>
</svg>