<?xml version="1.0" encoding="UTF-8"?>
<svg id="Layer_1" data-name="Layer 1" xmlns="http://www.w3.org/2000/svg" viewBox="0 0 1045.52 1254.21">
  <path d="M950.5,1206.1c-20.48,2.99-41.17,3.22-61.78,4.44-86.96,5.12-173.94,9.93-260.92,14.92-98.99,5.68-197.97,11.42-296.95,17.17-65.81,3.83-131.59,8.38-197.45,11.29-29.53,1.31-59.16-1.72-87.76-9.9-14.52-4.15-26.62-12.85-34.74-26.17-.61-7.67,5.3-5.94,9.01-5.47,7.77.99,15.39,2.69,23.33,2.55,19.1-.33,38.03-2.94,57.09-3.89,19.56-.98,39.1-2.53,58.65-3.94,20.32-1.47,40.65-3.05,60.99-4.13,18.79-1,37.53-2.64,56.31-3.77,29.47-1.79,58.93-3.56,88.38-5.77,20.06-1.51,40.17-2.24,60.25-3.64,29.19-2.04,58.41-3.69,87.59-5.79,19.54-1.4,39.14-2.06,58.68-3.64,29.69-2.39,59.44-3.99,89.17-5.78,22.42-1.35,44.88-2.53,67.3-3.85,22.69-1.34,45.37-2.81,68.07-3.99,20.88-1.09,41.72-3.01,62.61-3.47,12.04-.26,23.98-1.94,36.02-1.78,9.19.12,17.25,2.57,24.58,8.6,8.14,6.69,17.92,10.66,28.05,13.63,6.77,1.99,13.71,3.65,19.81,7.36,4.62,2.81,7.83,6.43,4.19,12.22h0c-3.92,2.47-8.77-1.92-12.53,1.69l.03-.05c-2.52,1.35-5.47-.24-7.98,1.18Z" style="fill: #c42b1d; stroke-width: 0px;"/>
  <path d="M313.2,561.02c11.42-21.69,22.71-43.44,34.28-65.04,14.54-27.16,29.3-54.19,43.96-81.28,9.52-13.87,16.61-29.34,28.06-41.97,10.43-11.52,23.11-19.22,37.96-23.4,3.17-.89,6.65-1.69,9.54,1.1-.49,3.24-3.26,2.94-5.46,3.53-7.14,2.35-11.65,8.56-17.91,12.23-2.04,1.2-1.78,3.42.35,4.32,16.14,6.79,21.96,22.47,30.53,35.61,22.68,34.77,43.1,70.94,64.85,106.29,2.88,4.68,5.24,9.64,7.47,14.65,1.07,2.4,2.16,5.14-.32,7.22-2.62,2.2-5.38,1.03-7.96-.54-9.37-5.72-15.26-14.91-22.4-22.8-8.75-9.67-16.78-19.95-24.2-30.73-3.21-4.67-7.14-9.15-13.57-9.73-3.65-1.12-5.86-4.12-8.51-6.54-10.29-9.44-22.33-13.44-36.22-11.78-16.6,3.02-29.22,11.83-38.72,25.72-12.17,17.78-21.06,37.35-31.19,56.23-31.53,58.75-62.52,117.8-93.8,176.69-16.19,30.48-32.17,61.08-48.4,91.54-29.39,55.15-58.83,110.28-87.9,165.61-19.09,36.33-39.93,71.78-56.41,109.44-5.85,13.38-8.24,27.47-5.96,42.1.09,12.69,7.49,21.3,16.27,29.14,2.58,3.6,8.99,3.93,8.65,10.06,1.42,8.84,6.87,14.61,14.37,18.74,2.23,1.23,5.57,1.58,5.66,4.63.1,3.38-3.14,4.46-5.76,5.61-2.16.94-4.45,1.6-6.81,1.69-23.17.88-46,5.67-69.2,6.23-7.14.17-14.04-1.72-20.58-4.18-6.87-2.59-7.31-9.55-8.68-15.62-1.96-13.55,2.66-25.97,7.6-38,9.15-22.29,21.35-43.12,32.59-64.4,13.82-26.13,27.49-52.34,41.15-78.56,15.23-29.23,30.65-58.37,46.11-87.47,17.68-33.28,34.74-66.88,52.63-100.04,26.46-49.05,51.87-98.66,78.27-147.74,16.09-29.92,31.47-60.24,47.34-90.28,1.37-2.59,2.17-5.32,2.28-8.24Z" style="fill: #f38c80; stroke-width: 0px;"/>
  <path d="M970.98,1203.28c1.2-7.83-4.19-10.44-10.05-12.61-11.23-4.15-23.2-6.2-33.73-12.4-4.5-2.65-8.85-5.26-12.92-8.68-9.76-8.2-21.75-5.81-33.06-5.17-3.54.2-7.18,1.03-10.83,1.04-34.94.15-69.71,3.94-104.62,5.12-24.4.82-48.84,2.69-73.22,4.5-28.79,2.13-57.62,3.82-86.42,5.6-20.77,1.28-41.55,3.09-62.39,3.89-28.31,1.08-56.54,3.95-84.82,5.93-8.31.58-16.62.69-24.95,1.4-21.79,1.84-43.73,1.89-65.54,3.54-32.96,2.5-65.96,4.23-98.93,6.5-22.58,1.55-45.18,2.79-67.74,4.46-31.92,2.37-63.82,4.87-95.8,6.35-20.51.95-40.96,3.09-61.45,4.5-7.83.54-15.56-.15-23.24-2.41-3.44-1.01-8.46-3.18-10.37,3.01-5.98-6.75-8.51-14.87-9.42-23.64-1-4.25.79-4.88,3.76-2.48,2.77,2.25,3.92,5.9,6.21,8.63,6.36,8.72,16.27,8.72,24.93,7.86,11.7-1.16,23.47-1.49,35.12-2.09,33.62-1.73,67.1-5.34,100.72-7.05,22.65-1.15,45.28-3.03,67.89-4.75,32.5-2.47,65.02-4.85,97.54-7.09,25.54-1.76,51.08-3.71,76.63-5.48,32.84-2.28,65.7-4.42,98.53-7.01,26.82-2.12,53.68-3.98,80.57-5.36,15.4-.79,30.74-2.48,46.12-3.59,19.81-1.42,39.65-2.33,59.43-4.21,26.54-2.52,53.16-4.03,79.75-5.74,26.86-1.73,53.66-4.15,80.56-5.38,14.88-.68,29.8-1.87,44.43-4.71,11.82-2.29,20.36,2.06,27.54,10.8,2.66,3.24,4.78,6.88,7.57,10.02,8.01,9.02,20.18,12.26,30.62,6.78,11.08-5.81,21.79-12.49,30.28-22.03,2.5-2.81,4.5-5.85,4.73-9.68,1.18-19.55-.42-38.61-9.47-56.48-4.08-8.06-9.92-14-18.53-17.11-3.44-1.24-6.89-2.57-9.84-4.81-3.08-2.35-5.33-5.3-4.22-9.39,1.19-4.38,4.62-6.03,8.92-6.31,10.25-.67,11.91-3.22,7.05-12.73-6.31-12.37-14.78-23.4-22.77-34.69-10.86-13.79-19.52-29.14-30.07-43.16-.46-.55-.86-1.14-1.23-1.75-1.55-3.5-3.53-6.66-6.79-8.87-3.62-4.52-7.63-8.78-9.69-14.36-3.16-7.86-8.71-14.18-13.51-20.99-10.63-18.65-24.14-35.41-35.01-53.9-11.65-19.8-24.21-39.01-34.5-59.68-5.68-11.41-9.61-23.75-16.95-34.35-1.5-2.16-2.11-4.78-2.58-7.36-.46-2.53-1.52-5.62,1.6-6.91,2.79-1.15,3.97,1.68,5.3,3.56,19,26.77,38,53.54,57.01,80.3,50.47,71.03,101.43,141.72,151.16,213.26,18.06,25.97,28.64,55.36,24.21,87.96-3,22.08-14.54,39.53-32.66,52.26-12.28,8.62-26.12,14.11-40.86,17.16Z" style="fill: #cd3e30; stroke-width: 0px;"/>
  <path d="M625.25,303.24c-5.05-5.35-6.25-11.93-5.99-18.96,1.25-1.37-.38-4.21,1.87-4.73,2.49-.57,3.5,1.72,4.41,3.61.79,1.65,1.17,3.49,2.12,5.06,1.63,2.68,3.26,5.89,7.05,5.08,3.44-.73,5.62-3.98,5.34-7-1.09-11.73,7.23-17.69,13.97-24.89,39.48-42.15,79.4-83.88,119.98-124.98,8.05-8.16,15.68-16.8,23.78-24.96,8.56-8.63,18.37-10.24,29.46-5.47,11.96,5.15,20.03,14.85,28.5,24.09,1.19,1.3,1.99,3.13.97,5.08-1.74,1.87-4.39,3.08-4.69,6.03-1.03,10.13-7.21,17.16-14.26,23.64-26.98,24.79-52.26,51.3-78.49,76.84-23.23,22.63-46.79,44.92-69.54,68.04-2.03,2.06-4.4,3.7-6.7,5.43-4.77,3.6-9.4,3.97-14.38.34-4.01-2.93-8.34-5.42-11.99-8.85-3.13-2.95-7.5-4.62-10.81-2.5-7.44,4.76-13.89,2.22-20.61-.92Z" style="fill: #eda020; stroke-width: 0px;"/>
  <path d="M499.47,180.57c.08,13.01.19,26.02.21,39.02,0,2.28.46,4.73-1.29,6.7-3.03-2.17-1.79-5.76-2.85-8.59-.68-1.82-1.78-3.32-3.89-3.26-2.01.06-2.28,1.84-2.56,3.37-.46,2.57-1.02,5.11-2.11,7.49-3.88,8.44-9.18,10.87-18.1,8.53-6.54-1.71-13.16-3.05-19.4-5.85-5.52-2.48-10.12.6-14.61,3.22-4.76,2.78-9.38,5.77-15.3,4.42-4.22-5.64-5.3-12.04-4.58-18.88,1.33-1.49-.35-4.63,2.59-5.12,2.69-.45,3.31,2.02,4.4,3.72,1.11,1.74,1.94,4.05,4.54,3.66,2.89-.44,4.51-2.71,5.26-5.27,1.69-5.8,2.46-11.78,2.65-17.81,1.16-36.87,2.14-73.76,2.15-110.63,0-20.13-.33-40.29-.47-60.44-.09-12.75,5.83-19.2,18.57-20.6,8.2-.91,16.23-.29,23.65,3.84,9.59,5.34,15.58,13.01,15.74,24.44.03,2.09.15,4.19.08,6.28-1,31.94,1.23,63.83,1.91,95.74.33,15.31,1.17,30.76,3.4,46.02Z" style="fill: #f2aa32; stroke-width: 0px;"/>
  <path d="M297.1,370.67c1.42,1.11,1.66,2.67,1.65,4.32-7.55,1.66-11.26-4.54-15.39-8.5-5.98-5.73-12.52-7.08-20.12-6.14-11.35,1.4-18.69,9.23-20.49,22.34-.72,5.26-1.77,10.26-4.64,14.82-4.27,6.79-7.44,7.94-14.12,3.68-17.43-11.1-35.51-21.1-53.1-31.94-16.24-10.01-32.39-20.23-49.09-29.44-9.99-5.51-19.04-10.96-19.24-23.96.68-5.3,1.99-10.35,5.73-14.44,5.66-8.42,12.89-14.68,22.71-18.07,6.23-2.16,11.79-1.27,17.25,1.6,37.2,19.59,74.19,39.58,111.01,59.87,2.52,1.39,5.01,2.98,7.76,3.73,12.9,3.52,23.06,10.66,30.07,22.13Z" style="fill: #fdc868; stroke-width: 0px;"/>
  <path d="M856.17,135.01c-9.04-13.4-19.79-24.89-35.95-29.36-7.22-2-14.12.11-19.41,5.59-24.64,25.52-49.16,51.14-73.72,76.73-1.09,1.13-2.21,2.22-3.31,3.35-19.11,19.64-38.48,39.03-57.17,59.06-6.93,7.43-13.72,14.99-20.93,22.16-2.19,2.18-3.34,4.55-3.12,7.66.13,1.82.17,3.68-.04,5.48-.6,5.03-3.05,9.78-7.86,10.61-4.84.83-7.37-3.98-9.25-8.05-1.17-2.53-1.93-5.24-3.08-8.45-1.38,2.03-2.23,3.27-3.07,4.51-.75-11.5,3.95-20.65,11.91-28.6,42.86-42.84,85.65-85.75,128.47-128.63,8.1-8.12,16.81-15.72,24.19-24.45,11.29-13.38,35.38-16.59,49.9-2.87,9.98,9.44,21.2,18.04,24.85,32.37.38,1.48.42,3.04.61,4.56-1.84.97-3.13.94-3.01-1.65Z" style="fill: #fac05c; stroke-width: 0px;"/>
  <path d="M499.47,180.57c-4.25-7.79-2.81-16.63-4.23-24.91-2.59-15.17-1.21-30.72-2.05-46.06-1.42-25.76-1.48-51.51-1.33-77.27.09-15.59-14.25-24.36-25.63-25.93-3.85-.53-7.87-.39-11.76-.04-10.71.99-16.05,7.03-16.05,17.7,0,17.01.02,34.02,0,51.02-.02,28.09,1.17,56.26-.54,84.24-1.05,17.14.91,34.46-2.64,51.44-.42,2.02-.65,4.22-1.65,5.94-1.82,3.15-3.95,6.59-8.28,6.17-4.22-.41-4.89-4.13-5.74-7.44-.25-.97-.09-2.13-1.47-2.58-2.3.21-1.34,3.19-3.11,3.9,0-41.31,1.33-82.59,2.68-123.88.56-17.26.38-34.54.54-51.82.19-20.56,10.25-34.58,28.19-39.31,20.45-5.4,39.61,1.97,49.69,18.81,3.66,6.12,4.87,12.98,4.66,19.58-1.51,46.81-.36,93.63-1.28,140.43Z" style="fill: #fcc970; stroke-width: 0px;"/>
  <path d="M639.27,507.53c17.92,25.02,37.14,49.13,53.39,75.33-.66,4.26,2.25,7.38,3.68,10.91,19.64,48.43,44.66,93.85,76.11,135.66,6.25,11.18,15.4,20.5,20.78,32.25-1.6,5.89-3.1,6.56-7.11,2.27-6.08-6.5-10.79-14.11-16.03-21.28-41.66-57.02-81.82-115.11-122.7-172.68-26.04-36.67-51.36-73.86-77.76-110.27-18.88-26.04-37.42-52.33-56.92-77.92-8.63-11.33-20.37-18.59-32.35-25.6-2.49-2.06-7-1.56-7.65-5.98,9.38-2.54,17.14,2.18,24.86,6.03,15.76,7.86,25.99,21.53,35.8,35.52,34.85,49.71,69.76,99.38,105.4,148.53,3.36,4.63,6.68,9.33,12.29,13.99-6.53-12.8-8.16-25.85-13.28-37.77-1.22-2.84-3.57-6.78,1.5-8.99Z" style="fill: #e18f88; stroke-width: 0px;"/>
  <path d="M639.27,507.53c-3.31,4.34.12,8.03,1.55,11.57,5.03,12.53,6.85,26.06,12.63,38.51-9.78-5.68-15.53-14.83-21.67-23.45-35.79-50.27-71.21-100.81-107.13-150.98-12.66-17.69-29.09-30.37-51.68-32.91-2.08,1.79-4.17,1.84-6.27.02-13.76-.99-24.44,6.28-34.74,13.69-14.68,10.56-23.56,26.01-32.79,41.09-2.14,3.49-3.8,7.51-7.72,9.62,9.87-21.14,21.13-41.21,40.44-55.53,18.1-13.42,38.67-16.87,58.48-8.15,25.42,11.18,50.42,24.52,69.72,45.28,10.57,11.38,19.1,24.69,28.18,37.39,16.07,22.47,31.86,45.14,47.8,67.71,1.36,1.92,2.83,3.73,3.21,6.14Z" style="fill: #e7afab; stroke-width: 0px;"/>
  <path d="M856.17,135.01c.62,1.25,1.73,1.6,3.01,1.65,1.56,11.78-2.41,21.73-10.64,29.89-51.84,51.43-103.7,102.82-155.7,154.08-12.58,12.41-28.49,14.51-43.89,5.95-9.95-5.53-18.03-13.3-23.69-23.35,8.79,2.8,17.21-.05,25.73-1.63,2.9-.54,4.95,1.3,6.73,3.31,3.88,4.38,9.26,6.74,13.79,10.23,2.55,1.96,5.26,2.16,7.92.17,2.92-2.18,6-4.2,8.64-6.69,17.27-16.33,33.58-33.61,51.04-49.79,21.81-20.2,42.19-41.95,63.35-62.86,12.35-12.2,25.05-24.06,37.57-36.09,5.6-5.38,9.96-11.41,9.95-19.63,0-4.2,2.61-5.29,6.19-5.26Z" style="fill: #d57509; stroke-width: 0px;"/>
  <path d="M9.57,1200.06c-2.95-1.33-3.42-4.45-4.95-6.82-2.05-3.17-2.57-.98-3.11.95-2.82-12.21-1.26-24.22,1.34-36.27,5.16-23.88,17.31-44.69,28.56-65.9,65.6-123.7,131.27-247.37,196.84-371.09,20.15-38.03,39.97-76.24,60.08-114.3,8.09-15.31,16.58-30.42,24.88-45.63,2.36,3.36.89,6.49-.7,9.52-20.72,39.41-41.47,78.8-62.21,118.2-31.38,59.61-62.69,119.25-94.15,178.81-15.24,28.84-30.89,57.46-46.12,86.31-18.61,35.26-37.25,70.52-55.36,106.04-13.24,25.97-28.51,50.92-39.77,77.89-4.93,11.8-8.69,24.04-8.42,37.1.86,6.99,2.32,13.85,4.64,20.51.13,1.3-.05,2.56-.65,3.74-.3.31-.6.62-.9.92Z" style="fill: #df5749; stroke-width: 0px;"/>
  <path d="M791.86,761.8c-6.32-10.81-14.94-20.13-20.49-31.44-12.58-18.06-22.3-37.73-32.24-57.27-6.28-12.34-9.97-25.84-17.04-37.85-1.52-2.58-2.88-6.52,1.88-8.36,20.78,29.13,41.71,58.16,62.25,87.46,8.8,12.55,18.81,24.31,25.91,38.02-1.91-.44-3.08-3.76-5.32-2.05-1.71,1.31-.23,3.46.5,5.04,5.61,12.21,10.94,24.58,17.11,36.51,4.17,8.07,7.85,16.36,12.48,24.25,15.15,25.85,30.61,51.47,47.97,75.93,4.18,5.89,8.61,11.79,10.69,18.94-.35.13-.71.26-1.06.4-3.82-.77-5.28-4.08-7.13-6.84-30.24-45.22-61.13-90.01-91.54-135.11-1.64-2.43-2.27-5.26-3.95-7.6Z" style="fill: #e66455; stroke-width: 0px;"/>
  <path d="M299.93,378.4c.12,1.07.24,2.13.36,3.2-16,2.69-25.49,13.86-34.16,26.14-1.69,2.39-4.14,4.02-6.8,5.13-6.99,2.94-13.44,6.72-19.18,11.7-37.29-22.1-74.57-44.22-111.88-66.3-7.64-4.52-15.65-8.57-19.94-17-.81-6.39,3.15-4.7,6.21-3.37,6.97,3.03,13.4,7.11,19.88,11.04,29.98,18.15,60.97,34.56,90.66,53.19,4.63,2.9,8.89,3.37,13.37-1.04,3.79-3.73,8.48-5.31,14.38-4.04,6.67,1.45,17.75-11.09,18.07-19.53.42-10.88,3.76-12.99,13.61-8.06,5.3,2.66,11.06,4.64,15.42,8.95Z" style="fill: #d77b0f; stroke-width: 0px;"/>
  <path d="M299.93,378.4c-6.39-2.94-12.81-5.8-19.15-8.85-2.31-1.11-4.38-1.49-6.58.05-2.37,1.66-2.32,3.68-1.4,6.19,1.9,5.21-.98,9.65-4.16,12.69-5.57,5.32-9.12,15.34-20.71,9.76-2.72-1.31-7.65,2.68-10.33,6.06-2.54,3.2-5.1,3.67-8.69,1.56-10.74-6.32-21.66-12.34-32.45-18.58-26.82-15.5-53.57-31.13-80.48-46.45-1.99-1.14-5.55-6.07-7.64.45-5.53-7.65-6.65-16.31-5.76-25.41,1.41.19,2.7.78,2.59,2.35-.67,8.9,5.34,12.8,11.86,16.66,22.63,13.4,45.17,26.96,67.72,40.5,13.63,8.18,27.24,16.38,40.81,24.66,4.63,2.83,7.75,2.72,10.58-2.8,2.43-4.74,4.12-9.3,4.54-14.68,1.35-17.13,18.29-28.73,34.71-24.01,6.86,1.97,10.09,8.9,16.05,12.25,2.44,1.38,4.34,3.73,7.34,4.2,1.1.89,1.37,2.07,1.18,3.41Z" style="fill: #ea9620; stroke-width: 0px;"/>
  <path d="M419.58,235.63c5.59-1.87,11.14-3.71,16.04-7.21,6.06-4.32,12.14-4.69,18.93-.67,6.03,3.57,13.51,3.2,20.13,5.74,4.25,1.63,10.72-6.79,12.38-14.13.66-2.92-2.66-8.69,3.56-8.24,5.5.39,8.59,4.37,7.55,10.52-.25,1.5.13,3.11.22,4.67-6.12,27.37-41.71,39.26-66.97,22.3-4.95-3.32-9.74-6.95-11.84-12.96Z" style="fill: #cc5d02; stroke-width: 0px;"/>
  <path d="M240.15,424.57c1.85-5,5.59-8.25,10.44-9.78,8.9-2.82,14.68-8.82,20.18-16.15,7.19-9.59,15.44-18.74,29.52-17.04,2.92,17.56-3.81,31.27-17.85,41.17-13.4,9.45-27.8,10.65-42.29,1.8Z" style="fill: #bd4402; stroke-width: 0px;"/>
  <path d="M723.97,626.87c-2.5,3.29-1.02,6.39.45,9.5,9.11,19.23,18,38.57,27.4,57.66,4.37,8.86,9.65,17.27,14.67,25.8,1.98,3.37,4.31,6.53,4.89,10.53-9.5-10.41-16.23-22.77-24.21-34.26-12.07-17.37-22.34-35.82-31.74-54.66-8.95-17.92-16.41-36.59-24.53-54.93-.85-1.92.23-2.89,1.77-3.65,10.53,14.61,21.72,28.74,31.31,44.01Z" style="fill: #ec7668; stroke-width: 0px;"/>
  <path d="M297.1,370.67c-2.73-1.25-4.64-3.43-6.11-5.91-3.1-5.24-7.94-8.58-13.24-10.6-35.52-13.53-67.02-34.75-100.59-52-10.92-5.61-21.64-11.64-32.66-17.05-8.72-4.28-22.97.79-30.31,10.34-1.73,2.25-2.74,5.13-5.88,5.95,9.36-18.87,32.08-26.63,51.34-16.46,23.07,12.19,45.65,25.33,68.39,38.13,18.43,10.37,36.83,20.79,55.16,31.34,6.47,3.73,11.44,8.98,13.91,16.24Z" style="fill: #f6cda2; stroke-width: 0px;"/>
  <path d="M958.45,1204.97c3.39-6.38,8.53.17,12.53-1.7-3.98,1.99-8.26,1.8-12.53,1.7Z" style="fill: #cd3e30; stroke-width: 0px;"/>
  <path d="M950.5,1206.1c2.38-2.3,5.24-1.35,7.98-1.18-2.48,1.61-5.25,1.31-7.98,1.18Z" style="fill: #cd3e30; stroke-width: 0px;"/>
  <path d="M69.29,1119.9c-3.15-19.44,2.07-37.47,10.82-54.29,27.23-52.36,55.08-104.4,82.68-156.57,20.27-38.31,40.5-76.64,60.79-114.94,52.2-98.56,104.38-197.13,156.69-295.63,8.46-15.93,17.12-31.88,33.6-41.38,6.14-3.54,12.46-6.57,19.81-6.44,15.11-.18,27.48,6.56,36.1,17.99,13.85,18.37,26.4,37.76,37.68,57.84,16.56,29.48,35.36,57.49,55.01,84.94,51.65,72.14,100.38,146.26,149.39,220.19,30.94,46.67,61.38,93.67,92.7,140.09,6.68,9.9,12.86,19.72,10.07,32.63-.91,4.23.77,8.71,4.35,11.25,13.06,9.25,13.44,22.11,10.71,35.88-2.06,10.42-6.25,20-13.08,28.21-8.2,9.84-16.16,11.67-25.69,3.51-9.39-8.03-18.43-8.29-29.65-5.62-20.4,4.85-41.52,4.58-62.31,6.67-29.11,2.93-58.3,5.15-87.46,7.53-28.12,2.3-56.21,4.97-84.37,6.99-21.87,1.57-43.72,3.86-65.59,5.51-26.58,2-53.13,4.28-79.65,6.89-31.2,3.08-62.46,5.54-93.66,8.66-20.53,2.05-41.14,3.47-61.69,5.37-27.84,2.57-55.74,4.38-83.54,7.35-17.68,1.89-35.45,2.55-53.26,2.1-10.37-.26-15.98-6.57-20.45-14.74Z" style="fill: #e9e9e9; stroke-width: 0px;"/>
  <path d="M9.63,1196.86c-3.36-6.99-3.59-14.43-3.17-21.97,1.82,1.23,1.27,3.22,1.67,4.95,1.37,5.93,4.03,9.53,11.03,11.1,20.58,4.6,40.66.48,60.79-2.09,6.75-.86,13.41-1.37,20.16-1.36,5.61.01,10.67-1.38,17.45-6.2-13.67-.03-16.77-10.78-23.63-17.16-3.92-3.64-2.41-5.77,2.27-6.65,1.37-1.03,2.99-1.15,4.5-.71,20.68,6.01,41.59,2.99,62.34,1.09,24.47-2.23,49.01-3.46,73.47-5.74,30.97-2.88,62.01-4.84,93-7.43,29.42-2.46,58.9-4.34,88.33-6.8,30.47-2.55,60.97-4.73,91.43-7.39,4.19-.37,8.35-.69,12.45.62,3.48,2.23,7.37,2.53,11.33,2.26,30.05-2.09,60.06.16,90.02,1.68,21.38,1.08,42.88.99,64.13,4.2,3.39.51,8.95-.41,8.97,4.12.03,4.82-5.72,4.55-9.33,5.02-28,3.62-55.97,7.45-84.11,10.1-35.66,3.37-71.27,7.36-106.95,10.36-26.82,2.25-53.65,4.5-80.47,6.82-30.15,2.61-60.33,5.03-90.49,7.42-22.34,1.77-44.71,3.51-67.03,5.38-35.58,2.99-71.2,5.51-106.78,8.63-17.91,1.57-35.89,2.83-53.85,3.96-21.06,1.33-42.02,4.34-63.2,4.35-5.56,0-10.89-1.18-16.32-1.83-4.21-.5-6.28-3.36-7.98-6.74Z" style="fill: #ee8175; stroke-width: 0px;"/>
  <path d="M521.64,1132.53c-18.74.6-37.39,2.41-56.05,4.12-15.3,1.4-30.64,2.31-45.96,3.54-24.9,2-49.79,4.15-74.69,6.1-15.84,1.24-31.73,1.94-47.54,3.42-23.32,2.19-46.72,3.2-70.03,5.78-14.72,1.63-29.59,2.35-44.4,3.18-17.7.99-35.24,3.76-53.03,3.77-11.59,0-22.92-.48-33.76-4.97-2.78-3.11-7.48-3.85-9.64-7.74-.54-.9-1.19-1.72-1.74-2.61-4.31-6.82-2.65-10.69,5.16-10.46,46.91,1.41,93.16-6.74,139.78-9.48,42.52-2.5,84.94-6.34,127.35-10.02,42.17-3.66,84.39-6.51,126.56-10.22,30.96-2.72,62.01-4.5,93.01-6.82,32.04-2.39,64.05-5.32,96.12-7.17,31.29-1.81,62.45-6.03,93.88-5.36,6.36.13,12.63.52,18.28,3.6,7.14,3.89,14.38,6.1,22.52,3.65,1.75-.53,3.64-.25,5.37.52,2.88,3.87-1.09,4.92-2.98,6.2-7.63,5.19-16.23,8.41-25.15,10.41-16.04,3.6-32.35,5.33-48.81,5.48-3.04-.24-6.05-.09-8.97.89-3.9.78-7.86.63-11.8.68-3.51-.27-6.99-.14-10.37.98-8.96.88-17.84,2.75-26.92,2.21-3.52-.25-7.02-.32-10.43.85-3.96.78-7.97.65-11.97.68-3.57-.32-7.09-.08-10.53,1.02-15.55,2.08-31.2,2.96-46.86,3.76-3.1-.28-6.17-.23-9.16.8-3.91.78-7.87.65-11.82.68-3.44-.2-6.86-.27-10.19.88-3.46.7-6.96.66-10.46.68-3.53-.28-7.01-.09-10.41,1.01-8.13.08-16.27,3.31-24.39-.07Z" style="fill: #bbb8b8; stroke-width: 0px;"/>
  <path d="M813.58,1096.28c-1.56.13-3.26-.11-4.66.44-8.07,3.11-15.53,2.44-22.89-2.36-5.36-3.5-11.52-4.29-17.99-4.39-26.37-.41-52.51,2.63-78.73,4.68-19.2,1.5-38.49,1.9-57.7,3.36-22.27,1.69-44.49,4.1-66.75,6-9.6.82-19.23.73-28.87,1.51-25.65,2.08-51.29,4.4-76.95,6.16-16.87,1.16-33.73,2.67-50.61,3.68-23.33,1.4-46.59,4.03-69.89,5.96-15.03,1.25-30.1,2.08-45.14,3.33-23.04,1.91-46.05,4.41-69.12,5.92-14.54.95-29.07,1.94-43.56,3.47-22.74,2.39-45.65,2.77-68.33,6.03-5.09.73-10.53.53-15.6-.38-13.46-2.41-14.14-1.95-10.22,10.05-10.03-7.47-16.8-16.83-17.27-29.83.51.11,1.31.06,1.48.36,7.3,12.96,19.46,12.51,32.04,12.37,26.34-.3,52.39-3.78,78.54-6.18,15.02-1.38,30.1-2.12,45.13-3.43,21.48-1.86,42.94-4,64.41-5.98,12.69-1.17,25.38-2.23,38.07-3.41,21.47-2,42.92-4.11,64.4-6.05,13.73-1.24,27.5-1.98,41.2-3.43,23.52-2.48,47.2-3.03,70.69-5.95,14.18-1.77,28.52-2.22,42.77-3.43,22.78-1.94,45.53-4.36,68.33-5.92,13.5-.93,26.94-2.4,40.42-3.38,23.33-1.7,46.59-4.14,69.9-5.99,15.62-1.24,31.04-2.8,46.27-6.51,4.95-1.21,9.17.52,13.42,4.26,13.36,11.77,19.93,14.44,32.32-4.06,8.33-12.44,11.67-26.44,9.35-41.55-.77-5-3.26-8.52-7.39-11.31-6.37-4.3-10.12-10.42-8.23-18.08,2.48-10.02-1.9-17.52-7.01-25.22-23.37-35.22-46.59-70.54-69.92-105.79-31.66-47.85-63.18-95.8-95.12-143.45-31.04-46.31-63.11-91.92-95.52-137.29-18.94-26.51-34.72-55.16-51.56-83.08-7.67-12.71-15.88-25.18-24.85-37-8.56-11.29-20.77-17.38-34.76-19.73,14.36-3.06,26.23,2.15,36.9,11.18,2.96,2.5,5.72,5.26,8.57,7.9,8.58,7.18,13.01,17.44,19.12,26.38,22.64,33.1,44.79,66.53,67.13,99.83,23.3,35.67,47.25,70.9,70.79,106.4,3.03,4.57,6.06,9.15,9.25,13.63,19.11,29.07,38.81,57.74,58.13,86.67,40.55,60.72,81.48,121.19,121.33,182.36,14.65,22.49,21.54,47.59,15.7,74.86-3.03,14.14-10.72,25.41-21.56,34.68-1.5,1.28-3.01,3.15-5.45,1.75Z" style="fill: #d2bcbb; stroke-width: 0px;"/>
  <path d="M644.06,716.42c-12.71-16.07-23.12-33.72-34.51-50.69-15.33-22.84-30.36-45.88-45.52-68.83,2.77-3.65,4.48-.32,5.89,1.23,3.86,4.27,7.18,9.01,10.48,13.72,28.64,40.95,56.87,82.24,87.77,121.51,10.21,12.97,19.44,27.35,33.82,36.7,2.86,1.86,3.39,5.15,4.78,7.93.94,1.88,2.43,4.16,4.75,2.73,1.97-1.21.27-3.33-.5-4.87-5.95-11.94-12.89-23.29-19.99-34.58-19.49-31.01-39.45-61.73-58.88-92.76-25.68-41.02-52.06-81.6-77.45-122.82-19.33-31.39-38.9-62.65-58.18-94.07-10.79-17.59-22.48-34.65-32.44-52.75-4.71-8.56-5.67-17.53-3.65-26.95,2.14-.33,4.59.55,6.25-1.62,2.09,0,4.18-.01,6.27-.02,2.16,2.35,6.06,1.74,7.88,4.66,20.4,20.93,37.94,44.22,55.88,67.19,9.66,12.37,21.36,22.95,31.1,35.24,1.63,2.05,4.68,3.95,2.52,7.43-3.87,1.03-5.4-2.39-7.82-4.12-2.01-1.44-3.79-4.68-6.53-2.76-2.24,1.58-.38,4.39.31,6.52,4.03,12.52,10.59,23.87,16.84,35.32,2.12,3.89,4.38,7.63,6.12,11.75,3.04,7.2,7.31,13.65,11.74,20.18,18.47,27.19,36.45,54.73,54.54,82.18,7.32,11.12,13.09,23.26,21.89,33.41,1.54,1.77,2.85,3.79,3.77,5.96,1.14,2.7,4.17,6.14.34,8.22-3.25,1.77-5.85-1.61-7.48-4.22-11.88-19.15-27.4-35.55-40.7-53.65-9.95-13.54-20.79-26.76-32.83-40.38,4.12,10.04,9.3,18.16,14.52,26.15,25.88,39.63,50,80.38,75.8,120.05,27.23,41.86,54.48,83.72,81.45,125.75,9.74,15.18,19.29,30.48,28,46.31,6.78,12.33,16.35,23.03,21.5,36.35.19.48.57.88.8,1.35,1.74,3.45,4.97,7.78.71,10.41-3.6,2.22-6.28-2.3-8.68-5-10.27-11.51-21.6-21.99-31.96-33.46-15.67-17.33-29.01-36.4-42.71-55.14-19.28-26.36-38.62-52.72-57.06-79.7-7.8-11.42-16.16-22.45-23.88-33.92-1.45-2.16-2.61-4.55-4.98-5.94Z" style="fill: #e86b5c; stroke-width: 0px;"/>
  <path d="M460.45,351.91c-1.17,19.92,10.41,34.93,20.1,50.4,22.49,35.93,44.5,72.14,66.5,108.36,17.04,28.04,35.06,55.48,52.64,83.19,23.28,36.71,46,73.79,70.04,109.99,11.38,17.14,20.85,35.45,33.17,52.01,4.74,6.38,7.55,14.22,11.02,21.49.86,1.81,3.84,4.36.63,5.92-2.63,1.27-6.42,1.49-8.49-1.77-11.8-18.51-29.36-32.12-42.21-49.72-12.88-17.65-26.03-35.11-38.75-52.88-18.45-25.79-36.59-51.8-54.96-77.65-1.43-2.02-2.38-5.29-6.1-4.36-13.78-20.36-27.59-40.71-41.34-61.09-14.35-21.25-28.67-42.53-42.96-63.82-.41-.61-.39-1.49-.58-2.25,9.53-1.33,12.18,6.83,16.42,12.33,13.31,17.3,26.28,34.86,42.93,49.24,2.07,1.79,4.37,3.9,6.86,2.1,3.01-2.17.33-4.87-.83-6.89-11.56-20.11-23.01-40.3-35.01-60.15-14.14-23.42-28.75-46.56-43.23-69.78-6.32-10.14-11.83-21.08-24.81-24.69-2.89-.8-4.66-3.72-1.28-5.76,7.1-4.28,12.55-10.85,20.24-14.22Z" style="fill: #ec7668; stroke-width: 0px;"/>
  <path d="M955.19,997.4c11.38,12.65,20.97,26.64,27.67,42.19,3.82,8.86.19,12.34-9.01,10.27-4.44-1-8.17-.3-9.76,4-1.75,4.71,1.92,6.93,5.52,8.91,5.9,3.23,12.91,3.96,18.17,8.75,8.96,8.16,13.02,18.94,15.75,30.08,2.53,10.32,3.35,20.96,3.79,31.7.43,10.44-2.55,18.27-10.67,24.52-9.88,7.59-19.46,15.78-31.74,19.22-11.72,3.28-22.54-.9-29.62-10.67-.92-1.27-1.81-2.56-2.59-3.91-7.29-12.49-17.63-17.11-32.13-14.22-16.05,3.2-32.43,3.96-48.81,4.84-26.2,1.41-52.32,4.08-78.49,5.98-17.9,1.3-35.85,2.02-53.75,3.3-26.44,1.89-52.83,4.42-79.28,5.95-14.81.85-29.55,2.41-44.33,3.38-27.26,1.79-54.6,2.6-81.8,5.04-21.25,1.9-42.57,2.63-63.77,4.63-31.57,2.98-63.26,4.03-94.82,7.28-16.51,1.7-33.21,2.2-49.81,3.47-29.55,2.26-59.12,4.27-88.69,6.24-18.17,1.21-36.38,1.95-54.54,3.3-24.61,1.83-49.19,4.07-73.79,6.09-8.56.7-17.2.9-25.72,1.2-13.41.47-26.92,3.4-40.4.49-5.71-1.23-11.4-2.43-12.96-9.37,0,0,.07-.06.07-.06,14.71,7.62,30.67,5.34,45.97,4.35,27.85-1.8,55.68-4.31,83.52-6.51,44.53-3.52,89.06-6.93,133.59-10.44,30.45-2.4,60.94-4.43,91.37-7.03,36.96-3.16,73.96-5.82,110.93-8.76,29.68-2.36,59.37-4.79,89.08-6.95,28.65-2.08,57.28-4.74,85.91-7.12,28.12-2.34,56.27-4.37,84.36-6.92,32.01-2.9,64.08-5.12,96.04-8.61,13.24-1.45,26.55-2.46,39.8-3.89,13.13-1.42,25.8-4.42,36.78-12.33,8.84-6.37,13.79-14.35,13.21-25.9-.88-17.56-6.64-33.3-16-47.81-52.93-82.01-105.87-164.01-158.68-246.1-14.29-22.22-28.07-44.76-42.9-66.63-2.52-3.72-4.25-7.81-5.51-12.1-.45-1.53-.83-3.34.53-4.41,1.42-1.11,2.99-.06,4.29.82,2.42,1.63,4.29,3.82,6.06,6.1,35.55,45.94,70.24,92.52,104.29,139.59,19.76,27.32,39.64,54.56,60,81.46,11.98,15.83,23.92,31.74,35.42,47.95,3.95,5.57,8.15,10.87,13.32,15.6-4.74-11.28-11.83-21.1-17.58-31.65-2.63-4.83-5.3-9.63-7.61-14.62-1.53-3.3-3.75-7.35-.04-10.01,3.47-2.49,7.33.21,9.84,2.67,6.34,6.21,12.56,12.61,18.12,19.54,12.78,15.92,26.64,30.93,39.3,46.95,2.42,3.06,5.1,5.99,11.05,6.91-2.84-9.33-8.84-15.75-13.47-22.87-.51-.56-.96-1.17-1.38-1.81-1.38-2.45-2.44-5.09-4.13-7.38-.38-.59-.66-1.22-.85-1.89-.14-1.07.05-2.05.89-2.81Z" style="fill: #df5749; stroke-width: 0px;"/>
  <path d="M909.61,931.42c2.1,5.42,6.1,9.57,9.44,14.17,2.44,2.9,4.15,6.28,6.32,9.36h0c10.13,15.07,20.41,30.03,29.79,45.57l.02.02c1.88,2.42,2.7,5.48,4.7,7.82l.02.03c2.24,3.53,4.79,6.86,6.74,10.56,1.04,1.98,3.48,4.45,1.04,6.22-2.7,1.96-4.76-.97-6.3-2.89-2.94-3.68-6.19-7.09-9.06-10.83-45.26-58.89-89.97-118.2-134.1-177.93-25.94-35.11-51.51-70.49-77.29-105.71-26.74-36.53-52.39-73.77-75.62-112.59-11.55-19.29-22.76-38.77-35.28-57.45-1.57-2.34-3.43-4.77-1.95-7.94,6.12-.47,7.44,5.08,9.8,8.56,12.2,17.94,24.12,36.08,36.3,54.04,34.64,51.07,70.6,101.22,106.64,151.31,34.21,47.54,68.41,95.09,103.21,142.22,6.94,9.4,14.62,18.23,21.25,28.59-2.4-4.93-8.02-7.82-5.51-14.04,5.63,1.51,6.11,7.67,9.83,10.89Z" style="fill: #e86b5c; stroke-width: 0px;"/>
  <path d="M955.17,1000.53c-11.55-14.13-20.77-29.78-29.79-45.57,6.14,4.37,8.78,11.42,12.99,17.25,5.91,8.18,11.24,16.77,16.82,25.18,0,1.04-.01,2.09-.02,3.13Z" style="fill: #e66455; stroke-width: 0px;"/>
  <path d="M909.61,931.42c-4.73-2.29-5.66-7.84-9.4-10.98-4.15-1.81-6.63-4.48-4.81-9.36,0,0,.15-.11.15-.12,6.35,5.68,10.57,12.81,14.06,20.46Z" style="fill: #e66455; stroke-width: 0px;"/>
  <path d="M925.38,954.96c-3.4-2.25-5.28-5.52-6.32-9.36,3.8,1.98,5.6,5.3,6.32,9.36Z" style="fill: #e66455; stroke-width: 0px;"/>
  <path d="M895.4,911.08c.36,3.76,3.02,6.33,4.81,9.36-.2,7.76,7.2,11.87,9.64,21.02-7.08-8.26-13.25-14.52-18.35-21.56-34.5-47.58-68.59-95.46-103.18-142.98-45.5-62.5-90.3-125.49-133.4-189.68-8.51-12.68-15.6-26.44-26.45-37.49-2.33.69-3.37-1.12-4.33-2.54-16.79-24.88-33.49-49.83-50.31-74.7-.69-2.39-2.2-4.38-3.32-6.56-.06-.35-.11-.69-.16-1.04-1.98-5.85-6.38-10.07-10.48-14.24-19.94-20.3-37.36-42.62-53.93-65.67-3.17-4.41-6.83-8.85-11.22-11.89-6.78-4.68-11.33-10.53-13.87-18.19,14.92,6.89,27.32,16.79,36.98,30.2,34.55,47.95,68.99,95.98,103.1,144.25,48.66,68.87,96.42,138.38,146.66,206.13,6.82,9.19,13.41,18.56,20.27,27.73,2.29,3.06,4.18,3.24,4.01-1.44,8.26,8.09,13.51,18.4,19.95,27.77,26.55,38.63,52.61,77.6,78.79,116.48,1.34,1.99,2.68,3.84,4.8,5.03Z" style="fill: #ec7668; stroke-width: 0px;"/>
  <path d="M575.06,471.21c17.8,26.18,35.61,52.36,53.41,78.55,3.73,10.74,11.64,18.99,17.2,28.66,12.34,21.46,24.99,42.79,38.49,63.53,18.3,28.14,36.68,56.26,57.2,82.9,10.32,13.4,19.77,27.47,29.8,41.11,26.07,35.43,52.16,70.84,78.38,106.15,20.95,28.21,42,56.34,63.22,84.34,16.66,21.97,33.65,43.69,50.55,65.48.87,1.12,1.72,2.63,3.85,2.52-.58-6.24-6.65-9.95-7.27-16.04,7.17,6.67,11.77,15.13,16.42,23.54.97,1.75,1.02,3.52-.56,5.02-1.79,1.69-3.4.33-5.01-.39-6.75-3.04-10.45-9.27-14.93-14.6-14.42-17.13-28.26-34.75-43.69-51-3.52-3.71-5.38-9.21-10.98-10.8-1.62-.46-3.2-2.61-4.91-.79-1.41,1.5-.73,3.5.16,5.14,4.95,9.19,9.85,18.42,14.96,27.52,4.96,8.83,10.9,17.17,13.9,28.48-10.36-7.21-16.5-16.66-23.11-25.63-15.11-20.53-29.68-41.48-45.26-61.65-29.44-38.11-56.57-77.91-85.47-116.41-21.87-29.14-43.95-58.13-65.96-87.16-1.86-2.46-3.92-4.77-6.52-6.56,1.92,14.41,12.04,24.19,18.9,35.54,17.64,29.21,36.6,57.63,55.15,86.28,16.3,25.17,32.87,50.16,49.14,75.34,18.39,28.48,36.55,57.11,54.86,85.65,9.72,15.15,19.67,30.15,29.25,45.39,9.58,15.24,15.6,31.53,16.21,49.95.4,12.08-5.26,19.83-14.04,26.27-11.51,8.44-24.95,11.35-38.84,12.8-18.59,1.94-37.15,4.15-55.76,5.95-14.49,1.4-29.04,2.23-43.55,3.49-22.26,1.93-44.49,4.08-66.75,6.02-14.25,1.24-28.52,2.21-42.78,3.39-24.08,2-48.14,4.45-72.25,5.97-14.55.92-29.04,2.47-43.57,3.33-25.44,1.51-50.78,4.05-76.16,6.24-15.81,1.37-31.69,1.91-47.49,3.37-23.81,2.2-47.69,3.39-71.49,5.77-15.76,1.58-31.65,2.35-47.47,3.53-26.18,1.96-52.4,3.43-78.53,6.12-15.78,1.62-31.67,2.15-47.49,3.38-24.88,1.93-49.71,4.52-74.61,5.94-26.02,1.49-51.97,4.74-78.12,3.49-5.57-.27-9.86-2.93-13.9-6.33,0-1.05,0-2.09,0-3.14,5.04,5.63,12.2,5.84,18.69,6.1,22.15.9,44.16-1.43,66.13-4.18,8.77-1.1,17.64-.8,26.49-1.63,29.5-2.76,59.11-4.34,88.65-6.62,32.12-2.47,64.26-4.87,96.32-7.95,24.83-2.39,49.74-3.84,74.55-6.3,32.3-3.2,64.69-5.21,96.96-8.85,14.4-1.62,29.02-2,43.52-3.49,25.04-2.58,50.16-4.3,75.14-7.63,12.09-1.62,24.33-2.09,36.46-3.46,14.43-1.63,28.84-3.52,43.22-5.57,6.46-.92,13.25-.38,20.91-4.22-6.5-1.06-11.47-2.67-16.38-2.49-9.72.35-19.2-1.54-28.84-1.91-25.98-1.02-51.96-2.02-77.92-3.98-14.03-1.06-28.58.94-42.92.93-3.29,0-7,.91-8.97-3.07,8.38-.58,16.76-1.15,25.14-1.73,2.94-1.7,6.44.43,9.36-1.38,3.68-.07,7.35-.13,11.03-.2,2.95-1.69,6.47.45,9.4-1.38,4.19-.07,8.39-.14,12.58-.21,2.43-1.52,5.42.33,7.82-1.32,16.24-1.14,32.49-2.27,48.73-3.41,2.97-1.57,6.42.4,9.37-1.28,4.2-.1,8.4-.19,12.6-.29,2.98-1.56,6.44.41,9.39-1.29,9.44-.62,18.88-1.24,28.31-1.86,2.98-1.54,6.41.37,9.38-1.25,4.19-.12,8.38-.25,12.58-.37,2.47-1.33,5.37.25,7.83-1.15,21.54-1.62,43.27-1.94,63.69-10.54,5.33-2.25,10.15-5.14,14.72-8.59,22.43-16.31,29.34-38.83,26.2-65.39-3.06-25.88-17.21-46.58-31.2-67.44-35.34-52.68-70.5-105.49-105.76-158.23-18.89-28.25-37.84-56.47-56.82-84.66-.89-1.32-1.91-2.47-1.94-4.15,3.5-1.95,3.78,1.58,4.85,3.12,16.2,23.3,32.94,46.23,49.21,69.49,21.48,30.7,43.66,60.95,66.72,90.46,11.36,14.54,25.23,27.16,38.34,40.28,3.07,3.07,4.18,8.72,10.97,9.02-2.11-9.2-6.69-16.97-11.12-24.12-31.72-51.17-63.47-102.35-96.48-152.69-29.88-45.57-58.92-91.66-87.81-137.84-9.52-15.22-20.62-29.54-28.14-46-1.06-2.32-2.95-4.37-1.64-8.03,28.88,32.26,54.64,67.13,82.12,100.65.55-3.94-1.25-6.79-3.17-9.42-15.47-21.28-27.88-44.6-43.16-65.93-13.89-19.39-24.88-40.73-40.44-58.97-2.6-3.05-3.71-7.4-5.42-11.2-7.85-17.49-19.34-33.23-24.97-51.79-.87-2.88-3.28-6.4.11-8.56,3.51-2.23,6.2,1.15,8.74,3.27,2.59,2.17,5.06,4.49,7.58,6.75,0,0,.01.02.01.02,1.38,2.23,3.25,4.09,4.69,6.27Z" style="fill: #e66455; stroke-width: 0px;"/>
  <path d="M341.26,888.97c-3.96,6.7,2.14,11.34,3.72,16.79,3.5,12.14,5.43,23.89-1.95,35.29-1.11,1.72-2.19,3.49-3.52,5.04-10.32,12.01-3.1,26.05-4.58,39.07,2.87,3.27,1.93,7.29,2.14,11.07.58,10.5-1.31,21.11,1.6,31.48,1.04,3.05,4.62,4.94,4.02,8.74-.27,2.48.06,4.94,2.23,6.34,9.19,5.97,12.96,16.9,21.63,23.34,3.97,2.95,5.54,6.8,3.48,11.7-.49,1.17-.34,2.59-.72,3.82-1.09,3.52,2.91,7.47-.14,10.4-4.08,3.91-9.81,4.86-15.18,5.72-28.99,4.68-58.23,7.16-87.47,9.73-28.44,2.49-56.73,6.74-85.19,8.88-14.78,1.11-29.47,3.19-44.32,3.66-12.19.39-24.34,1.93-36.5,3.02-4.31.38-8.31-.74-12.18-2.36-11.63-4.87-12.53-8.9-10.69-24.39,1.54-13.03,7.07-25.02,13.17-36.62,21.14-40.2,42-80.56,63.49-120.57,27.44-51.1,54.16-102.57,80.93-154.02,17.84-34.29,36.15-68.34,54.29-102.47,12.62-23.75,25.3-47.48,37.99-71.2.94-1.76,1.45-4.67,3.91-4.29,2.85.44,1.31,3.43,1.84,5.27.91,3.21,1.9,6.4,2.86,9.6,3.72,3.58,2.51,8.27,2.76,12.6,1.94,34.23.87,68.52,1.84,102.75,1.31,46.26,2.64,92.51,2.85,138.79.02,4.35.89,8.98-2.28,12.82Z" style="fill: #efefef; stroke-width: 0px;"/>
  <path d="M341.26,888.97c-1.72-88.99-3.44-177.97-5.17-266.96.07-7.83.38-15.67.15-23.49-.23-7.68,3.39-13.11,10.34-14.68,24.15-5.46,48.47-10.22,72.73-15.19,1.25-.26,2.79-.38,3.88.12,12.23,5.6,25.44,9.34,35.81,18.53.48,1.05.17,1.76-.92,2.14-9.23-1.4-17.16-6.08-25.32-10.14-11.74-5.83-17.34-3.11-18.2,10.07-1.26,19.28-2.61,38.55-3.63,57.84-1.15,21.64-2.82,43.24-4.14,64.86-1.2,19.54-2.31,39.09-3.68,58.62-1.55,22.13-2.72,44.29-4.23,66.42-.78,11.45-1.56,22.92-2.11,34.4-.48,10.02-3.29,13.68-13.1,15.51-13.1,2.44-26.42,3.56-39.42,6.62-.99-1.56-1.99-3.12-2.98-4.68Z" style="fill: #6f748d; stroke-width: 0px;"/>
  <path d="M344.23,893.65c5.07-7,13.23-4.12,19.88-5.95,6.97-1.92,14.36-2.36,21.59-3.28,5.99-.76,8.45-4.27,8.77-10.03,1.56-28.62,2.87-57.27,4.93-85.86,2.38-33.01,4.14-66.05,6.34-99.06,2.19-33.02,4.37-66.03,6.14-99.07.67-12.61,2.46-15.28,10.73-16.74,1.52-.27,3.52-.7,4.61,0,9.88,6.44,21.35,9.59,31.48,15.47,2.97,2.91,2.59,6.72,2.55,10.33-.28,26.65-2.83,53.18-4.12,79.77-1.05,21.65-2.36,43.28-3.67,64.91-1.48,24.23-2.69,48.48-4.23,72.71-1.37,21.62-2.75,43.26-3.64,64.91-.42,10.15-2.59,19.23-12.59,24.34-4.13,1.19-8.32,1.06-12.21-.55-15.05-6.24-30.55-4.61-45.98-2.57-7.36.98-14.42.49-21.54-1.11-1-.54-2-1.08-3.01-1.62-2.09-2.11-4.62-3.81-6-6.56l-.02-.04Z" style="fill: #292c43; stroke-width: 0px;"/>
  <path d="M432.12,904.71c7.49-4.02,10.36-10.85,10.82-18.77,2.8-48.55,5.42-97.12,8.19-145.67,2.59-45.42,5.33-90.83,7.89-136.25.28-4.94-.19-9.92-.32-14.88.1-.61.2-1.22.3-1.84,16.35,9.84,23.27,23.94,22.03,43.26-2.26,35.08-3.06,70.25-5.07,105.35-1.52,26.49-3.34,52.97-4.84,79.47-1.32,23.35-1.21,46.84-4.52,70.06-1.73,12.14-6.73,22.03-20.22,24.74-9.95,2-19.13,6.68-29.36,7.96-4.1.51-7.72.15-11.47-.79-7.93-2-15.82-4.17-23.72-6.27,7.59-4.29,16.22-1.97,24.23-3.79,8.55-1.94,17.49-.52,26.08-2.57Z" style="fill: #aaaaac; stroke-width: 0px;"/>
  <path d="M342.67,1036.46c-1.57-2.06-3.14-4.12-4.71-6.19-2.38-7.1,3.49-7.11,7.34-7.77,10.52-1.79,21.17-2.76,31.79-3.81,13.51-1.34,15-2.77,14.99-16.29,0-15.88,2.26-31.66,1.73-47.58-.33-9.93.11-9.78-9.69-9.21-3.54.21-8.73,2.25-8.52-4.75,4.03.87,7.68-1.02,11.3-2.01,18.52-5.09,34.7,3.5,51.55,8.24,7.55,4,9.9,10.58,10.2,18.76.72,19.02-1.27,37.93-1.93,56.88-.38,10.78-6.22,17.58-15.92,20.59-2.89.23-5.74-.04-8.45-1.09-15.16-5.84-30.67-4.16-46.23-2.3-6.18.74-12.44,1.54-18.54-.71.45-4.18.46-4.14,5.86-4.67,10.88-1.06,21.82-1.37,32.65-2.99,1.51-.23,3.18-.01,4.68-1.76-1.76-3.64-5.04-4.82-8.77-4.5-12.45,1.07-24.93,1.76-37.34,3.21-9.35,1.09-9.32,1.34-5.48,9.63-.61.78-1.32.89-2.13.33-1.46-.68-2.92-1.36-4.39-2.04Z" style="fill: #2c3048; stroke-width: 0px;"/>
  <path d="M375.6,940.87c.71,4.49,4.2,2.96,6.78,2.92,2.04-.03,4.05-.95,6.1-1.13,5.5-.49,9-1.28,8,7.7-2.06,18.54-1.54,37.37-1.95,56.08-.24,11.06-1.92,13.17-12.81,14.35-11.35,1.23-22.77,1.94-34.05,3.61-3.56.53-9.65-1.21-9.71,5.87-3.13-3.3-3.28-7.44-3.25-11.62.07-11.16.14-22.33.21-33.49,2.07-6.83.9-13.86,1.24-20.8.55-11.04,6.34-18.73,17.19-20.86,7.31-1.44,14.69-3.02,22.25-2.63Z" style="fill: #6e738c; stroke-width: 0px;"/>
  <path d="M430.61,1041.46c9.8-3.17,13.87-10.8,14.25-20.21.76-18.96.77-37.94,1.23-56.91.17-7.04-2.94-12.44-7.63-17.23,7.6,2.74,15.09,5.77,21.24,11.16,9.69,8.5,8.99,20.59,9.94,31.76.95,11.12.8,22.45-1.51,33.45-1.93,9.2-5.82,17.1-16.25,19.97-15.85,4.36-31.79,8.24-48.31,7.19-8.92-.57-17.73-2.82-26.58-4.31,2.82-3.17,6.66-2.35,10.22-2.6,14.46-1.02,28.89-2.53,43.41-2.25Z" style="fill: #adadaf; stroke-width: 0px;"/>
  <path d="M432.12,904.71c-16.36,5.37-33.32,5.93-50.3,6.36-9.52-3.07-19.04-6.13-28.56-9.2,13.45-.3,26.83-1.45,40.15-3.26,9.05-1.23,17.4,1.62,25.77,4.3,4.25,1.36,8.48,2.27,12.95,1.81Z" style="fill: #65666f; stroke-width: 0px;"/>
  <path d="M430.61,1041.46c-14.6,3.25-29.5,3.63-44.33,4.63-3.09.21-6.2.16-9.3.23-9.93-2.76-20.46-3.25-29.92-7.81.61-.16,1.22-.32,1.84-.48,2.69-2.1,5.31-1.96,7.85.26,13.81.39,27.49-1.28,41.15-2.91,6.45-.77,12.34,1.24,18.31,2.97,4.73,1.37,9.41,2.94,14.4,3.11Z" style="fill: #71727b; stroke-width: 0px;"/>
  <path d="M344.25,893.69c2.46,1.77,4.83,3.62,6,6.56-3.11-1.17-5.49-3.01-6-6.56Z" style="fill: #6f748d; stroke-width: 0px;"/>
  <path d="M714.77,1116.94c-2.85,2.52-6.22,1.1-9.38,1.25,2.87-2.35,6.2-1.21,9.38-1.25Z" style="fill: #ee8175; stroke-width: 0px;"/>
  <path d="M677.07,1120.04c-2.84,2.58-6.23,1.13-9.39,1.29,2.86-2.38,6.21-1.23,9.39-1.29Z" style="fill: #ee8175; stroke-width: 0px;"/>
  <path d="M655.08,1121.62c-2.83,2.58-6.21,1.14-9.37,1.29,2.85-2.4,6.19-1.23,9.37-1.29Z" style="fill: #ee8175; stroke-width: 0px;"/>
  <path d="M576.57,1127.84c-2.8,2.7-6.23,1.19-9.4,1.38,2.84-2.48,6.21-1.29,9.4-1.38Z" style="fill: #ee8175; stroke-width: 0px;"/>
  <path d="M556.14,1129.43c-2.79,2.68-6.21,1.14-9.36,1.38,2.82-2.53,6.19-1.29,9.36-1.38Z" style="fill: #ee8175; stroke-width: 0px;"/>
  <path d="M735.18,1115.42c-2.33,2.27-5.17,1.16-7.83,1.15,2.36-2.09,5.15-1.28,7.83-1.15Z" style="fill: #ee8175; stroke-width: 0px;"/>
  <path d="M596.98,1126.31c-2.27,2.43-5.16,1.23-7.82,1.32,2.3-2.29,5.14-1.35,7.82-1.32Z" style="fill: #ee8175; stroke-width: 0px;"/>
  <path d="M1002.39,1122.3c-.26,23.07-11.99,39.07-31.57,49.93-7.46,4.14-16.33.47-19.14-7.37-2.59-7.23-4.31-14.49-11.87-19.21-5.53-3.45-3.81-9.88-.76-14.8,5.54-8.93,9.22-18.67,13.2-28.29,2.16-5.22,5.11-9.7,10.76-11.68,3.18-1.12,6.39-2.11,9.55-3.27,17.16-6.28,20.93-4.52,26.66,13.07,2.26,6.94,3.74,14.09,3.18,21.61Z" style="fill: #e66455; stroke-width: 0px;"/>
  <path d="M959.89,1008.38c-3.17-1.64-4.16-4.6-4.7-7.82,3.15,1.65,4.16,4.6,4.7,7.82Z" style="fill: #e66455; stroke-width: 0px;"/>
  <path d="M575.06,471.21c-2.5-1.39-4.58-3.1-4.69-6.27,2.52,1.38,4.58,3.09,4.69,6.27Z" style="fill: #e86b5c; stroke-width: 0px;"/>
  <path d="M356.75,1038.29c-2.62-.09-5.24-.17-7.85-.26-1.05-.76-2.23-1.39-3.12-2.31-1.73-1.79-4.99-3.08-3.95-6.12,1.05-3.07,4.34-2.11,6.86-2.37,14.45-1.5,28.89-3,43.33-4.57,5.36-.58,9.15,2.48,12.04,6.03,3.12,3.84-.11,4.61-3.48,4.86-13.22.98-26.42,2.1-39.63,3.12-1.59.12-3.14.17-4.19,1.62Z" style="fill: #13162e; stroke-width: 0px;"/>
</svg>