<?xml version="1.0" encoding="UTF-8"?>
<svg id="Layer_1" data-name="Layer 1" xmlns="http://www.w3.org/2000/svg" viewBox="0 0 1013.44 1013.71">
  <path d="M15.94,921.54c-8.84-17.97-13.56-37.03-14.77-56.95-1.9-31.23-.91-62.5-.93-93.75-.11-124.2-.05-248.4-.05-372.6,0-69.68-.1-139.37.1-209.05.03-12.42-.47-24.89.93-37.29,1.3-3.37-.29-7,.96-10.37.8-16.52,5.59-31.99,12.39-46.91C32.63,55.01,62.05,27.38,102.42,11.26c9.37-3.74,19.17-5.74,28.97-7.76,2.04-1.19,4.5.21,6.54-1.03,1.19-.08,2.38-.16,3.57-.25,3.79-1.36,7.85.4,11.64-1.02,1.62-.08,3.25-.15,4.87-.23,2.24-.96,4.59-.48,6.89-.48,227.95-.02,455.9-.02,683.84,0,2.3,0,4.65-.47,6.89.48,2.05.1,4.1.19,6.15.29,3.37,1.26,7.01-.31,10.38.95,24.02,3.31,46.79,10.06,66.87,24.25.39.88.13,1.49-.77,1.83-2.72.57-4.97-.71-7.14-1.99-23.78-14.1-49.89-19.36-77.07-19.37-229.3-.14-458.59-.11-687.89-.04-40.71.01-77.26,11.91-108.32,39-8.98,7.83-16.8,16.55-22.34,27.16-5.76,4.3-8.92,10.68-11.83,16.81-9.8,20.59-15.63,42.14-15.89,65.27-.21,18.38.09,36.77-.66,55.14.98-16.89-.51-33.81.9-50.71.85-10.2,4.5-19.73,6.8-29.57,1.1-4.71,2.35-9.44,3.99-14,.65-1.81.33-5.68,4.46-4.01,1.54,2.74.29,5.42-.35,8-2.23,9.01-3.04,18.38-5.37,27.22-5.53,20.98-3.7,42.21-4.7,63.38-1.23,25.9-1.1,51.85-2.63,77.71-2.92,49.32-3.49,98.66-3.41,148.03.22,140.44-.11,280.88-.04,421.33,0,8.48.97,16.85,3.72,24.91,2.65,7.76,6.09,10.15,14.1,9.58,4.47-.32,8.15.9,10.38,4.64,6.11,10.25,12.73,20.04,13.01,33,.24,11.19,7.27,20.13,14.71,28.04,23.71,25.21,53.07,39,87.4,42.61,9.47.99,18.93,1.37,28.44,1.37,224.5-.04,449-.05,673.5.01,20.46,0,40.39-2.73,59.7-9.55,7.53-1.32,14.22-4.81,21.05-8.02,2-.94,4.66-3.46,6.47.54-5.15,5.91-12.23,8.84-19.07,11.94-22.45,10.18-46.05,14.18-70.71,14.17-228.34-.17-456.68-.22-685.02,0-42.75.04-79.92-13.57-111.53-42.18-9.73-8.81-17.83-19.12-24.8-30.31-3.66-5.88-6.52-12.37-12.17-16.82Z" style="fill: #fd7672; stroke-width: 0px;"/>
  <path d="M939.03,983.51c-8.73,2.69-16.2,8.58-25.41,10.08-.61-2.92,1.69-4.1,3.47-5.37,11.89-8.42,19.78-20.24,27.52-32.18,1.6-2.46,2.91-5.09,5.44-6.79,17.2-11.4,29.5-26.96,38.57-45.26,2.07-4.18,4.25-8.28,7.64-11.57,6.29-6.11,8.72-13.77,9.21-22.27.45-7.81.05-15.62.05-23.43.01-110.44,1.03-220.89-.33-331.31-.98-79.38.24-158.77-1.22-238.13-.44-23.63-.03-47.29-1.18-70.88-.68-13.93-.94-27.83-1.09-41.75-.06-5.4-1.78-10.32-3.9-15.22-3.79-8.76-6.07-17.93-6.65-27.47,2.68-4.47,3.61-.31,4.39,1.16,3.56,6.72,6.72,13.65,8.55,21.07.59,2.4,1.53,4.72,1.75,7.2-1.22-10.77-2.21-21.56-5.11-32.08-5.09-18.49-12.34-35.87-25.15-50.49-.51-.35-.98-.76-1.41-1.21-2.54-4.4-5.66-8.44-8.35-12.75-.7-3.79-6.06-5.07-5.25-9.68,6.1.18,7.86,5.76,11.36,9.16,13.87,15.05,24.2,32.32,31.45,51.37,7.41,19.47,9.99,39.89,9.99,60.58.06,227.37.07,454.74,0,682.11,0,26.21-4.77,51.53-16.38,75.28-1.75,3.58-4,6.91-6.02,10.35-5.82,5.3-8.83,12.68-13.98,18.57-9.22,10.54-19.34,19.97-30.66,28.12-2.11,1.52-4.13,3.82-7.31,2.78Z" style="fill: #c26967; stroke-width: 0px;"/>
  <path d="M939.03,983.51c17.77-10.76,32.3-24.95,44.39-41.76,2.1-2.91,2.96-7.19,7.56-7.72-8.86,17.97-22.56,31.79-37.81,44.31-20.95,17.21-45.18,27.45-71.52,32.53-10.67,2.06-21.77,2.71-32.67,2.71-228.04.15-456.08.16-684.12.07-35.34-.01-68.31-9.1-97.29-29.65-21.58-15.3-38.4-35.2-50.5-58.88-.56-1.1-.77-2.39-1.14-3.59,3.87-1.08,5.26,1.86,6.73,4.35,8.49,14.34,17.62,28.23,29.77,39.77,23.7,22.52,52,36.08,84.07,41.66,7.4,1.29,15.08,1.41,22.63,1.41,231.88.07,463.76.04,695.64.1,29.6,0,56.87-7.85,82.11-23.1.85-.51,1.43-1.48,2.14-2.23Z" style="fill: #f49795; stroke-width: 0px;"/>
  <path d="M855.64.95c-2.11.06-4.22.16-6.33.16-228.32,0-456.64,0-684.96,0-2.11,0-4.22-.1-6.33-.15,2.12-1.39,4.51-.86,6.79-.86,228.01-.03,456.03-.03,684.04,0,2.28,0,4.67-.52,6.79.86Z" style="fill: #fd8783; stroke-width: 0px;"/>
  <path d="M971.95,54.33c-4.31-2.29-6.1-7.78-11.31-8.94-7.84-4.04-13.6-10.89-21-15.53-.72-.45-.97-1.31-.62-2.2.02-.4.02-.81.01-1.21,13.34,6.5,24.3,15.81,32.91,27.89Z" style="fill: #e08380; stroke-width: 0px;"/>
  <path d="M153.15,1.19c-3.71,2.22-7.74.84-11.63,1.02,3.75-1.83,7.73-.99,11.63-1.02Z" style="fill: #fd8783; stroke-width: 0px;"/>
  <path d="M872.16,2.2c-3.47-.17-7.09,1.19-10.38-.95,3.49-.07,7.05-.77,10.38.95Z" style="fill: #fd8783; stroke-width: 0px;"/>
  <path d="M2.18,141.52c-.1,3.48,1.17,7.08-.96,10.37-.06-3.49-.84-7.05.96-10.37Z" style="fill: #fe908c; stroke-width: 0px;"/>
  <path d="M137.94,2.46c-1.93,1.9-4.31.96-6.54,1.03,1.97-1.66,4.29-1.13,6.54-1.03Z" style="fill: #fd8783; stroke-width: 0px;"/>
  <path d="M939.02,27.66c7.38,5.7,15.51,10.49,21.62,17.74,1.37,3.49,6.02,4.67,6.29,8.94-2.98.57-4.64-1.63-6.49-3.25-5.93-5.19-12.81-8.86-19.51-12.9-8.64-5.2-17.72-4.53-27.01-3.47-4.51.51-3.78,3.17-2.26,5.83,3.32,5.8,5.02,12.04,5.63,18.65.65,7.07-1.5,9.14-8.36,6.96-10.68-3.4-21.27-6.92-32.53-7.98-4-.38-7.98-.74-12-.74-66.96,0-133.94-.86-200.88.29-48.78.84-97.55.57-146.32.99-30.58.27-61.12,2.05-91.7,2.65-14.01.28-28.24,2.59-40.88,7.83-12.58,5.22-26.77,9.26-36.2,19.97-9.14,10.37-16.87,22-19.95,35.97-2.36,10.72-9.6,18.67-15.72,27.2-2.57,3.57-5.56,6.89-8.31,10.36-2.8,2.36-5.16.44-7.44-.94-7.32-4.46-14.35-3.86-21.34.78-4.05,2.69-7.88,5.58-11.33,9.04-19.77,19.85-39.59,39.64-59.41,59.44-2.52,2.52-4.87,5.3-8.49,6.41-7.31,1.07-8.43-.15-6.66-7.2,2.41-9.61,5.56-19.01,7.47-28.77,1.38-7.08,1.84-14.32,1.78-21.38-.12-16.98-1.51-34-4.18-50.75-1.42-8.89-.96-17.68-.84-26.4.1-7.45,3.28-14.8,9.55-19.99,1.14-.94,2.46-1.71,3.36-2.88,14.92-19.2,36.34-23.9,58.76-26.34,15.31-1.66,30.7-2.52,45.97-4.52,18.9-2.48,36.92-8.88,55.52-12.71,6.37-1.31,12.9-2.23,19.92-5.18-4.08-1.6-7.53-1.75-10.99-1.75-77.06,0-154.12-.09-231.18.06-5.64.01-11.27,1.2-16.96.61-1.67-.17-3.67-.12-4.16-2.11-.58-2.39,1.4-3.38,3.16-4.04,4.97-1.86,10.25-2.61,15.47-2.99,4.89-.36,9.59-1.23,14.28-2.55,3.56-.66,7.16-.51,10.75-.51,229.4,0,458.8,0,688.2,0,12.3,0,24.42,1.55,36.4,4.32,3.86.89,7.81,1.71,12.51-2.02-9.9-2.53-18.82-4.5-28.09-4.52-24.5-.07-49.01-.02-73.51-.02-74.99,0-149.99-.87-224.96.32-47.3.75-94.62,1.68-141.89.69-96.31-2.01-192.61-.15-288.91-1.09-14.09-.14-27.79,1.56-41.26,5.45-2.65.59-5.51.76-7.74,2.52-1.69,1.33-4.95,2.19-3.76,5.01.97,2.3,3.73,1.11,5.74.84,1.88-.25,3.66-1.03,5.53-1.35,1.92-.33,4.04-.58,4.82,1.75.86,2.56-.88,4.01-2.98,4.8-3.78,1.42-7.75,2.21-11.78,2.16-5.96-.07-11.14,1.85-15.92,5.3-32.22,23.27-51.76,54.36-58.14,93.68-1.29,7.98-1.15,15.98-1.4,23.99-.07,2.19,1.29,5.92-3.31,5.77-2.87,17.15-2.03,34.51-2.24,51.67-.48,40.11-1.03,80.23-1.98,120.31-1.47,62.3-.33,124.58-.85,186.86-.36,43.29.92,86.61-.27,129.88-1.85,67.36-.3,134.72-1.2,202.06-.12,8.96-.34,17.33,7.31,23.65,2.13,1.76,4.19,3.68,6.87,4.42,6.69,1.84,11.08,6.41,15.36,11.56,13.61,16.38,26.74,33.2,44.66,45.48,21.44,14.69,45.13,22.07,70.86,22.09,96.31.08,192.62-.18,288.92.48,87.19.6,174.38,1.07,261.58,1.09,3.17,0,6.33.04,9.5-.08,32.46.19,64.93.54,97.37.25,23.94-.22,48.06,1.95,71.94-2.27,15.47-2.73,30.16-7.81,44.61-13.74,4.33-1.78,8.61-3.61,13.4-3.05,3.23.38,6.4,1.1,6.27,5.46-5.38,9.27-12.06,17.61-18.45,26.18-4.81,6.46-12.28,9.49-17.08,15.65-20.33,7.69-41.43,10.2-63.06,10.2-228.13-.09-456.25.13-684.38-.23-41.78-.07-78.42-14.6-106.69-46.33-8.08-9.07-13.81-19.32-13.99-33.28-.13-10.39-7.07-20.89-14.83-29.27-1.46-1.57-3.41-1.34-5.32-.69-8.75,2.97-13.72-2.26-16.47-9.44-2.96-7.73-3.91-16-3.92-24.14-.13-168.98-.36-337.97.15-506.95.09-30.66,3.11-61.32,3.9-92.03.22-8.58.7-17.22.9-25.84.45-19.8,1.04-39.61,1.61-59.41.57-20.1,5.74-39.68,10.25-59.26.42-1.83.58-3.71.85-5.57-.34-5.73,2.78-10.46,4.89-15.36,3.15-7.32,4.02-15.21,6.55-22.65,3.43-11.59,11.91-19.53,20.37-27.25,16.71-15.24,36.12-26.12,57.56-33.17,12.18-4,24.74-6.05,37.66-7,28.9-2.12,57.79-.95,86.68-.97,205.97-.17,411.93-.16,617.9-.02,27.95.02,54.74,5.47,78.99,20.36,1.75,1.08,3.86,1.58,5.81,2.35Z" style="fill: #f55e57; stroke-width: 0px;"/>
  <path d="M34.06,73.35c.89,14.08-6.4,25.71-11.44,38.01-3.82,7.32-4.84,15.55-7.39,23.29-6.89,20.9-7.22,42.57-6.58,64.3.13,4.6.26,9.21-2.51,15.17,0-4.74,0-7.9,0-11.05,0-17.1-.22-34.21.03-51.31.39-27.38,8.69-52.41,23.32-75.41.9-1.41,1.63-4.2,4.57-2.99Z" style="fill: #fe908c; stroke-width: 0px;"/>
  <path d="M949.16,951.75c-4.01-4.64-8.66-5.38-16.41-1.81-11.68,5.38-23.78,9.59-36.19,12.7-10.15,2.55-20.48,4.25-31.09,4.42-17.05.27-34.13.41-51.15.6-17.97.2-36.05-.44-54.09-.66-14.78-.18-29.56-.03-44.34-.03-1.52-1.09-3.27-.67-4.91-.64-24.49.42-48.97-.3-73.44-.8-44.13-.9-88.25.05-132.36-.54-50.83-.68-101.66.44-152.49.08-33.56-.23-66.95-2.48-100.36-5.67-16.12-1.54-32.37-2.56-48.59-3.41-18.93-.99-38.02.16-56.81-3.45-13.78-2.65-27.09-6.55-39.17-13.88-2.54-1.54-6.86-3.03-5.13-6.68,1.53-3.22,5.3-.98,8.01-.14,19.22,6.02,38.85,7.56,58.82,5.66,2.11-.2,4.21-.37,6.32-.32,24.06.65,48.02-1.5,72-2.75,14.84-.77,29.93-.91,44.42-5.24,10.84-3.75,12.61-6.07,10.32-17.08-2.51-12.09-4.68-24.3-8.47-36.09-1.79-5.56-3.49-11.28-8.36-15.23-1.18-.96-1.71-2.38-1.12-3.98,3.68-2.7,8.43-2.7,12.31-4.9,4.08-1.41,6.55-5.92,11.37-5.92,13.3,5.71,27.17,8.98,41.6,10.12,4.95.39,9.59-.87,14.39-1.5,15.42-2.05,30.24-5.94,43.68-13.91,11.21-6.65,22.29-13.46,33.07-20.87,20.01-13.75,31.26-35.06,47.32-52.16,11.13-11.85,22.05-23.76,35.47-33.13,13.54-9.44,28.09-8.71,43.06-4.75,16.89,4.47,30.57,14.98,45.05,23.97,1.61,1,3.07,2.23,4.99,2.61,3.31,1.2,5.48,3.86,7.85,6.23,26.39,26.37,52.78,52.74,79.14,79.15,3.29,3.3,6.76,6.37,10.63,8.94,7.24,4.81,14.72,6.1,22.48,1.1,3.88-1.87,6.69-5.91,11.57-5.77,19.23,3.33,37.74,1.18,55.64-6.77,12.66-5.62,23.6-13.9,34.88-21.67,3.7-2.56,6.29-6.21,8.51-10.09,11.33-19.81,14.73-41.14,11.72-63.54-.81-5.99-.85-12.22-3.45-17.89-3.24-7.72-6.41-15.48-13.44-20.78-1.19-.9-1.75-2.32-1.65-3.91,1.81-4.39.94-8.66-.37-12.99-4.36-14.42-10.86-27.92-18.13-41.04-11.07-19.97-21.38-40.39-27.74-62.29-5.15-17.71-7.45-35.86-6.22-54.82,1.51-23.39,9.68-44.46,18.11-65.51,5.3-13.23,12.51-25.76,18.82-38.63,7.7-15.72,15.69-31.32,21.96-47.67,8.39-21.86,7.01-43.82-.2-65.7-.46-1.4-1.08-2.75-1.24-4.24.18-4.01,3.12-6.64,5.04-9.76,2.77-4.52,4.72-9.18,3.68-14.62-2.55-8.35-7.27-15.29-13.71-21.12-26.97-27.18-54.16-54.14-81.16-81.29-2.31-2.32-5.36-4.3-5.2-8.25,1.1-3.76,3.93-3.96,7.08-3.43,15.55,2.63,30.25,7.79,44.01,15.44,20.48,11.39,38.7,25.58,53.36,44.07,5.91,7.45,11.48,15.19,16.55,23.19,7.93,12.52,18.43,23.13,25.99,35.87,5.72,9.65,9.65,19.97,13.12,30.72,5.18,16.02,6.77,32.57,9.91,48.9.46,2.38,1.22,4.48,3.13,6.02,2.39,1.92,4.17,4.36,4.75,7.31,1.74,8.92,6.14,17.01,7.84,25.97.55,2.92.23,7.59,5.17,7.17,4.16-.36,7.4-6.86,5.87-10.99-.62-1.67-1.33-3.33.17-4.67,7.13-6.36,6.15-15.5,7.32-23.5,1.94-13.31,2.66-26.84,1.72-40.37-.23-3.39.84-6.69,1.2-10.05,3.13-29.13,6.72-58.21,9.03-87.44,2.87-36.4,4.42-72.83,4.81-109.32.06-5.93-.11-11.81-1.74-17.58-.93-3.3-1.01-6.69.09-10,.6-1.81,1.3-3.67,3.52-4.08,2.21-.4,3.62.98,4.7,2.58,3.67,5.43,6.16,11.53,9.6,17.09.73,1.19,1.41,2.4.8,3.87,1.57,9.74,2.97,19.55,7.35,28.52,2.65,5.42,4,10.96,4.02,17.01.12,32.27.68,64.55,1.55,96.8,2.04,75.78-.35,151.56,1.13,227.32,2.37,121.61.33,243.21,1.14,364.82.07,10.89,2.57,23.02-4.57,31.81-12.39,15.25-18.82,34.33-32.61,48.47-6.33,6.49-13.31,12.21-21.2,16.76Z" style="fill: #d13d36; stroke-width: 0px;"/>
  <path d="M991.03,117.68c-4.11-4.58-6.05-10.42-9.17-15.56-1.06-1.74-1.8-5.14-4.67-4.16-2.23.76-2.22,3.79-2.56,6.03-.19,1.24-.31,2.61.04,3.78,4.68,15.97,2.63,32.35,2.14,48.45-.59,19.32-.68,38.73-2.46,57.97-2.21,23.99-3.34,48.06-7,71.96-2.4,15.67-3.85,31.66-4.95,47.48-.96,13.76-.51,27.73-1.87,41.54-.65,6.61-2.22,13.12-3.45,19.67-.19,1.01-.52,2.6-1.16,2.82-5.97,2.03-4.6,4.54-1.13,8.07,1.91,1.95.05,4.34-1.84,5.16-3.99,1.73-5.33,9.37-10.95,6.23-3.26-1.82-3.11-7.04-4.21-10.84-2.67-9.18-5.49-18.33-8.29-27.47-.45-1.48-1.59-2.45-2.99-3.1-2.83-1.32-3.57-3.73-3.96-6.66-3.37-25.39-7.67-50.56-19.16-73.83-4.97-10.06-12.41-18.49-19.3-27.19-6.41-8.1-11.9-16.81-17.79-25.23-11.46-16.38-24.51-31.1-40.79-42.65-19.72-14-40.96-24.81-65.23-28.71-3.45-.55-4.72.59-5.15,3.62-5.37-1.02-8.17-5.71-12.05-8.75-13.44-10.52-23.42-10.19-35.68,2.06-57.94,57.9-115.85,115.83-173.78,173.75-2.84,2.84-5.67,5.66-8.9,8.08-12.51,9.37-21.34,9.66-34.11.9-3.31-2.27-6.43-4.77-9.28-7.63-58.85-58.8-117.56-117.74-176.52-176.43-1.01-1-2.45-1.79-2.15-3.6,4.07-8.92,11.83-15.22,16.77-23.58,3.55-6,7.6-11.49,7.5-18.99-.05-4.35,3.18-7.8,5.4-11.2,3.46-5.3,6.01-11.08,9.38-16.32,5.76-8.94,14.73-13.98,24.62-17.37,3.42-1.17,6.54-2.74,9.35-5.12,3.27-2.77,7.36-4.08,11.48-5.04,20.14-4.7,40.49-6.36,61.22-6.86,16.69-.4,33.49-1.53,50.18-1.83,45.93-.8,91.91.72,137.82-.51,72.76-1.96,145.51-.17,218.26-1.12,18.52-.24,36.46,1.9,53.81,8.67,7.47,2.92,7.33,2.43,6.78-5.38-.49-6.98-2.86-12.99-6.16-18.96-3.22-5.81-2.23-6.07,4.07-7.23,22.73-4.2,38.33,8.4,53.78,21.74,2.72,4.12,6.76,7.44,7.62,12.68,1.83,1.84,1.83,4.2,1.42,6.42-.85,4.65.59,8.56,3.33,12.17,5.01,7.57,7.8,16.18,11.38,24.42,1.04,2.39,2.52,5,.35,7.65Z" style="fill: #d9433d; stroke-width: 0px;"/>
  <path d="M991.03,117.68c-1.69-9.35-6.27-17.58-10.16-26.07-.86-1.88-2.28-3.49-2.57-5.64-3.47-5.98-4.12-12.32-2.35-18.95,8.02,7.18,12.6,16.71,17.25,26.08,6.28,12.67,9.63,26.37,12.5,40.14,1.45,6.98-.45,14.24,1.47,21.35-5.41-11.33-8.43-23.57-14.82-34.35-.44-.85-.87-1.71-1.31-2.56Z" style="fill: #e08380; stroke-width: 0px;"/>
  <path d="M975.94,67.02c-1.2,6.56,1.3,12.67,2.35,18.95-3.63-3.04-4.93-6.77-3.98-11.51.48-2.4.18-4.96.23-7.45.46,0,.93,0,1.39,0Z" style="fill: #f55e57; stroke-width: 0px;"/>
  <path d="M302.67,163.43c20.9,19.33,40.47,40.02,60.65,60.09,39.66,39.44,79.02,79.18,118.83,118.48,19.46,19.21,30.92,18.74,50.35-.72,51.91-51.96,103.79-103.95,155.68-155.92,7.22-7.23,14.37-14.52,21.69-21.64,7.75-7.53,20.29-8.63,29.4-2.12,5.62,4.02,10.6,8.94,15.86,13.46,23.63,23.79,47.26,47.57,70.87,71.38,5.19,5.23,10.28,10.56,15.42,15.85,2.12,3.93,5.27,7.1,7.86,10.68,3.24,4.47,2.93,5.51-2.34,6.08-2.84.31-3.48,2.01-4.01,4.07-3.02,11.65-9.94,20.81-18.28,29.14-51.26,51.19-102.5,102.39-153.62,153.72-5.7,5.72-12.69,9.75-18.33,15.54-15.83,16.28-15.06,33.97,2.63,48.57,9.77,8.06,19.62,15.99,28.33,25.25,46.59,49.55,95.58,96.73,143.73,144.74,17.84,17.79,13.23,35.84-.14,49.33-25.28,25.5-50.73,50.82-76.15,76.18-3.46,3.46-6.1,7.54-9.21,11.24-4.08,4.85-2.38,10.89-4.38,16.08-6.97,5.02-14.15,4.49-21.34.64-5.25-2.82-9.54-6.9-13.72-11.07-26.55-26.54-53.1-53.08-79.67-79.61-1.78-1.78-3.69-3.41-5.55-5.11-4.12-1.92-7-5.35-10.12-8.45-16.9-16.77-33.64-33.7-50.58-50.43-9.15-9.21-18.16-18.57-27.61-27.47-7.58-7.14-16.05-12.81-27.11-12.78-11.98-3.65-22.19.11-30.58,8.44-20.38,20.21-40.87,40.32-60.65,61.14-24.57,25.86-50.19,50.68-75.34,75.97-8.79,8.83-17.57,17.66-26.44,26.41-5.51,5.44-10.62,11.01-9.82,19.6.1,1.08-.59,2-1.26,2.83-3.95,2.28-8.08,3.96-12.75,3.8-3.42,1.72-6.17-.35-8.83-1.83-5.18-2.88-9.83-6.48-14.05-10.71-26.84-26.92-53.69-53.84-80.66-80.64-6.87-7.57-15.15-13.83-20.7-22.63-2.25-3.58-4.25-7.19-5.11-11.37-.3-1.88-.31-3.76-.02-5.64,1.89-8.78,7.27-15.41,13.38-21.58,3.69-3.72,7.41-7.41,11.08-11.14,32.37-32.08,64.46-64.43,96.72-96.62,1.2-1.19,2.28-2.48,3.33-3.81,19.96-19.15,39.31-38.92,58.88-58.47,4.93-4.93,9.42-10.22,12.68-16.5,4.06-7.8,3.07-15.07-1.77-22.07-2.52-3.65-5.37-7.04-8.53-10.18-25.57-25.51-51.12-51.04-76.6-76.63-2.84-2.85-6.19-5.11-8.81-8.18-4.42-5.67-9.84-10.39-14.89-15.45-19.48-19.53-38.93-39.09-58.56-58.48-7.52-8.21-16.38-15.14-22.51-24.7-5.79-9.03-6.24-17.81.1-26.46,10.63-14.51,23.47-26.9,37.54-38.05,21.8-21.64,43.61-43.29,65.42-64.92,1.64-1.63,3.31-3.24,5.07-4.73,13.14-11.11,19.82-11.59,34.48-2.57Z" style="fill: #f1f1f1; stroke-width: 0px;"/>
  <path d="M156.93,729.91c3.68,11.21,12.1,18.88,20.08,26.88,1.91,1.92,3.67,3.99,5.5,6-3.63.91-5.19,2.46-4.28,6.85,1.79,8.64,2.43,17.51,4.98,26.02,1.76,5.87-.26,11.72-.19,17.59.12,10.04-1.85,20.09-2.9,30.08-.99,9.4-8.31,16.32-7.74,25.66.44,7.27-1.88,12.74-8.64,15.95-.98.47-1.92.93-1.3,2.32.26.58.64,1.56.32,1.8-6.46,4.8-3.52,13.79-8.09,18.96-7.31,8.28-20.12,14.64-33.88,9.85-17.04-5.93-32.52-14.88-46.9-25.86-13.37-10.21-28.12-17.76-44.79-21.13-4.33-.88-8.84-1.51-11.34-5.94-.76-2.17-.88-4.41-.75-6.68.07-27.92,0-55.84.04-83.75,0-2.75-.2-5.44-1.02-8.08-.7-3.77-.55-7.58-.55-11.38,0-172.36,0-344.72,0-517.08,0-3.59-.15-7.18.41-10.75.78-2.91,1.48-5.83.28-8.82-.77-6.68-.73-13.35-.04-20.03,1.51-5.4,1.1-10.88.6-16.36-.11-.66-.13-1.32-.09-1.99.65-3.18.73-6.35-.2-9.51-.07-1.66-.36-3.37,1.12-4.64,2.14-2.11,1.25-4.8,1.19-7.21-.79-31.34,8.56-59.57,26.59-84.9,10.06-14.13,22.72-25.8,37.21-35.42,6.58-4.37,14.43-2.01,21.39-4.27,1.38-.45,2.86-.61,4.21-1.11,1.3-.48,2.18-1.55,1.43-2.96-.56-1.05-1.73-.9-2.81-.61-3.44.9-6.95,1.58-10.32,2.67-2.4.78-3.63-.48-4.69-2.09-1.34-2.04-.26-3.8,1.4-4.87,3.29-2.13,6.13-5.33,10.59-5.01.22,1.69-.83,3.46,2.69,3.71,6.82.48,13.39,0,19.87-1.95,6.48-1.94,13.19-2.43,19.84-3.23,3.21-.38,6.73-1.1,9.6,1.48-6.48,3.76-13.98,1.86-20.8,3.78-3.5.98-7.44.72-10.24,4.97,4.15,0,8.46.71,12.41-.17,5.69-1.27,11.33-.98,16.99-.98,73.31-.04,146.62,0,219.93-.06,4.67,0,9.22.52,13.78,1.29,1.59.27,3.86-.3,3.99,1.97.11,1.84-2.07,1.72-3.4,2.17-11.16,3.82-22.79,5.76-34.24,8.39-14.31,3.28-28.25,8.23-42.94,9.81-10.01,1.07-20.01,2.49-30.04,2.94-21.41.96-42.08,4.46-61.22,14.79-3.46,1.87-5.32,4.92-7.2,7.75-3.42,5.15-10.02,7.04-12.53,12.83-2.61,6.01-3.9,12.07-4.5,18.88-.93,10.55,1.13,20.66,2.4,30.65,1.03,8.06-.48,16.33,2.56,24.55,1.77,4.8.67,11.5.38,17.2-.67,13.53-1.94,27.13-6.84,40.05-1.33,3.51-1.98,7.27-3.04,10.88-.4,1.37-1.75,2.73-.61,4.11,1.31,1.58,3.05.78,4.67.23.79-.26,1.64-.32,2.47-.47-9.13,9.3-18.24,18.62-27.38,27.9-17.54,17.8-17.57,28.67-.13,46.6,4.54,4.66,9.01,9.39,13.51,14.08-7.65,1.37-7.79,1.39-6.32,10.02,2.44,14.35,3.72,28.86,5.45,43.28,1.02,8.46,2.58,17.42,1.65,25.65-1.09,9.65.31,19.25-1.35,28.87-1.77,10.28-3.59,20.71-2.2,31.35.49,3.72-1.96,7.25-2.12,11.11-.14,3.37-.79,6.68.41,10.01.75,2.06.61,4.25-.38,6.17-2.03,3.94-1.9,8.11-1.87,12.35.1,15.94.29,31.89.24,47.81-.04,12,2.21,24.04,1.01,35.75-.91,8.84,1.79,16.91,1.41,25.34-.39,8.6-2.74,16.97-2.69,25.7.07,13.98-4.18,27.34-7.23,40.85-1.15,5.12-1.16,10.46-3.03,15.46-.43,1.15-.43,2.75.75,3.47,1.24.76,2.3-.47,3.4-1.04,3.33-1.73,5.47-6.23,10.31-4.46-4.2,4.4-8.34,8.85-12.6,13.2-5.22,5.32-9.16,11.41-11.62,18.45-1.85,2.1-1.38,4.21,0,6.31Z" style="fill: #fd7672; stroke-width: 0px;"/>
  <path d="M17.55,165.87c0,1.68,0,3.37,0,5.05.95,2.96.95,5.93,0,8.89.01.42,0,.83,0,1.25.97,5.5.97,11,0,16.5,0,7.18,0,14.35,0,21.53.93,2.12.93,4.24,0,6.36,0,180.41,0,360.81,0,541.22,1.13,2.19.56,4.55.56,6.83.05,26.3.01,52.61.06,78.91,0,2.27-.58,4.63.59,6.82.02,2.11.03,4.21.05,6.32,3.95,5.11,10.19,6.71,15.52,9.35,19.83,9.82,37.8,22.29,54.68,36.44,14.41,12.08,31.3,18.58,49.65,20.55,27.96,3.01,56.05,2.18,84.1.56,5.28-.3,10.56-.26,15.83-.2,16.07.19,32.03-1.26,47.97-3.05,2.49-.28,5.04-1.1,7.19,1-9.56,4.43-19.99,4.25-30.09,4.9-18.45,1.19-36.94,2.07-55.39,3.06-18.27.98-36.56,1.33-54.82,1.87-16.06.47-32.37-.93-47.44-7.98-.99-.46-1.99-.64-3.49.97,8.56,5.92,17.52,10.67,27.35,13.55,19.13,5.62,38.81,5.96,58.61,6.79,25.73,1.07,51.51,2.28,77.15,5.69,12.37,1.65,25.02,1.63,37.52,2.85,46.91,4.55,93.98,3.13,140.93,2.21,59.82-1.17,119.62-.97,179.41-.68,29.65.14,59.3,2.42,89,2.29,1.29,0,2.55.06,3.38,1.27-69.48,0-138.98.99-208.44-.23-119.06-2.09-238.12.04-357.16-1.27-26.9-.3-51.33-9.98-72.76-26.62-16.46-12.78-28.91-29.3-41.97-45.22-2.75-3.34-5.7-5.36-9.63-6.5-9.33-2.72-14.5-9.4-17.63-18.24-1.45-4.11.51-7.82.5-11.77-.19-58.71-1.13-117.44.2-176.12.99-43.68.65-87.33.86-130.99.31-65.43-.61-130.87.42-196.29.41-25.92-.43-51.9,1.19-77.75,1.31-20.89-.34-41.78,1.22-62.56,1.34-17.85.13-35.77,2.35-53.54.1-.79.01-1.71,1.7-2.16,1.48,2.54.48,5.48.81,8.17Z" style="fill: #fc574f; stroke-width: 0px;"/>
  <path d="M155.72,20.1c-11.14-.32-22.19.9-32.66,4.49-7.43,2.55-14.91-1.05-22.11,1.57-.4.15-1.26-.26-1.55-.66-.62-.86.04-1.63.68-2.13,1.3-1.02,3.02-1.54,3.65-3.29,10.5-4,21.43-6.28,32.6-6.29,94.42-.1,188.84-.8,283.24.35,43.05.53,86.12,1.37,129.13.59,109.79-1.99,219.58-.36,329.37-.95,9.51-.05,18.7,2.34,27.82,4.84,1.41.39,3.3.59,3.36,2.33.09,2.2-2.27,1.2-3.35,1.92-5.03,3.34-10.15,2.55-15.67,1.2-13.75-3.36-27.79-4.05-41.93-4.05-230.86.08-461.73.06-692.59.07Z" style="fill: #fd8783; stroke-width: 0px;"/>
  <path d="M846.42,307.47c11.06,26.34,11.18,52.7-.52,78.8-12,26.78-25.94,52.67-37.98,79.39-7.25,16.1-14.65,32.68-16.24,50.73-1.48,16.82-3.18,33.31.41,50.6,2.89,13.9,7.39,27.07,12.01,40.15,4.58,12.94,11.88,24.95,18.37,37.17,8.2,15.43,16.27,30.84,20.66,47.93,1.01,3.91.73,6.95-1.74,9.93-2.25.53-3.54-1.05-4.84-2.34-23.21-23.22-46.61-46.26-69.56-69.73-.44-.45-.78-.99-1.13-1.51-1.01-1.68-2.28-3.12-4-4.14-1.72-1.13-3.08-2.6-4.25-4.27-13.39-14.54-27.87-27.99-41.62-42.17-1.93-1.99-4.95-3.6-3.94-7.27,1.32-2.91-.41-5.31-1.34-7.83-5.17-14.03-10.28-28.03-13.05-42.85-3.33-17.8,1.06-34.28,7.24-50.58,2.99-7.88,7.01-15.32,10.28-23.09,1-2.37,2.13-4.64.65-7.19-1-3.07,1.28-4.71,3.01-6.44,40.72-40.8,81.49-81.56,122.27-122.29,1.46-1.46,2.82-3.25,5.28-3.01Z" style="fill: #902b26; stroke-width: 0px;"/>
  <path d="M293.76,930.19c-23.36,3.1-46.89,3.06-70.37,4.2-24.67,1.2-49.31,1.24-73.89.59-28.31-.75-52.69-12.26-73.53-31.68-9.38-8.74-20.76-14.99-31.94-21.28-6.79-3.82-13.73-7.36-20.62-10.99-2.3-1.21-4.46-2.49-4.59-5.49,6.5,4.49,14.6,3.5,21.63,6.34,15.91,6.43,30.29,15.23,44.05,25.51,11.46,8.56,24.3,15.24,38.13,19.34,11.9,3.53,21.83-1.54,30.66-9.04,2.56-2.18,2.59-5.62,2.42-8.87-.12-2.33-.41-5.08,1.51-6.55,2.52-1.93,7.66-2.57,1.45-6.38-.65-.4-.24-1.93.66-1.97,11.94-.59,10.97-9.66,11.52-17.59.16-2.39.52-4.6,1.74-6.63,6.91-11.48,6.91-24.52,8.48-37.22.89-7.23.54-14.56.81-21.79.3-7.91-2.02-16.11-4.31-23.86-1.23-4.17.33-8.7-2.46-12.61-1.04-1.45.76-2.66,2.49-2.47,1.65.18,3.27.69,4.9,1.05,26.81,26.63,53.62,53.25,80.41,79.9,6.35,6.31,13.11,11.93,22.08,14.11,6.58,6.49,10.07,14.71,12.23,23.4,2.98,11.99,5.66,24.08,7.9,36.22,1.36,7.37-2.33,11.32-11.36,13.77Z" style="fill: #f55e57; stroke-width: 0px;"/>
  <path d="M557.59,698.05c20.3,19.49,40.13,39.45,59.67,59.69-5.32-.02-8.5-4.22-12.49-6.66-11.84-7.22-23.16-15.27-36.78-19.17-16.96-4.85-32.47-4.89-47.45,7.14-13.22,10.62-24.49,22.74-35.52,35.41-9.8,11.26-18.27,23.6-28.17,34.64-6.87,7.67-16.08,13.51-24.93,19.06-13.48,8.44-26.74,17.39-42.08,22.53-10.02,3.36-20.43,5.64-30.7,6.48-17.9,1.48-35.51-1.29-51.38-10.86-.45-2.5,1.4-3.84,2.83-5.29,7.38-7.48,14.78-14.94,22.31-22.27,1.53-1.49,2.94-3.85,5.81-2.52,1.83,3.04,4.42,3.17,7.66,2.56,10.9-2.07,20.95-6.36,30.65-11.5,25.53-13.53,47.15-32.22,68.33-51.6,17.37-15.9,33.65-33.02,52.61-47.16,15.87-11.84,33.13-16.08,52.38-10.11,2.51.78,4.91,1.18,7.25-.39Z" style="fill: #b3413d; stroke-width: 0px;"/>
  <path d="M766.44,627.27c24.99,24.97,49.98,49.94,74.97,74.91,7.12,6.19,13,13.22,15.25,22.68,2.24,5.06.19,9.52-2.32,13.66-3.06,5.04-6.82,9.63-10.98,13.81-29.89,29.97-59.83,59.89-89.79,89.79-1.74,1.73-3.2,4.03-6.13,4.02-3.43,2.08-5.9,5.56-9.92,6.76-3.16-11.3,3.43-19.03,10.35-26.06,25.94-26.34,52.19-52.38,78.36-78.49,5.82-5.81,9.82-12.59,11.35-20.69,1.98-10.53-3.25-18.21-10.22-25.17-43.03-43.01-86.22-85.87-128.97-129.15-14.94-15.12-29.95-29.99-45.97-44.06-15.46-13.57-19.81-31.07-1.08-48.11,50.78-46.22,97.54-96.48,146.52-144.5,11.71-11.48,24.03-22.43,34.35-35.32,4.46-5.57,7.14-11.83,9.26-18.49,1.02-3.22.52-8.53,6.95-4.93,2.01,1.13,2.11-1.44,1.27-2.7-1.03-1.56-2.47-2.87-3.83-4.19-2.49-2.42-4.53-5.03-4.43-8.75,6.96,5.65,12.07,12.54,14.29,21.35-3.52,4.1-5.58,8.59-5.46,14.25.08,3.73-2.82,6.44-5.37,9.02-29.59,29.83-59.74,59.11-89.83,88.42-17.84,17.38-35.59,34.86-53.17,52.5-13.57,13.61-27.96,26.35-41.46,40.01-2.53,2.56-4.94,5.2-6.85,8.27-4.27,6.87-4.16,9.45.85,15.73,1.33,1.67,2.26,3.57,3.18,5.46,3.58,7.32,8.35,13.63,14.99,18.51,5.62,4.13,10.67,8.93,15.58,13.9,23.3,23.57,46.83,46.91,70.65,69.96,1.35,1.35,2.69,2.7,4.04,4.05,1.02,1.37,2.21,2.56,3.59,3.56Z" style="fill: #d5d2d2; stroke-width: 0px;"/>
  <path d="M747.45,846.14c31.01-31.06,62.03-62.11,92.99-93.22,3.55-3.57,6.9-7.36,10.09-11.27,3.95-4.84,5.79-10.58,6.14-16.8,4.5,6.35,3.93,14.1,4.69,21.09,2.52,23.38-1.37,45.72-14.5,65.87-1.77,2.71-3.83,5.18-6.35,6.97-15.12,10.72-30.31,21.39-48.29,26.96-13.08,4.05-26.59,3.6-40.05,3.19-1.9-.06-3.65-1.01-4.71-2.8Z" style="fill: #a02f29; stroke-width: 0px;"/>
  <path d="M338.17,815.99c-10.13,10.11-20.26,20.22-30.4,30.34-3.58,1.86-5.89,5.64-10.03,6.67-1.62-9.52,2.68-16.39,9.22-22.87,30.18-29.86,60.52-59.57,90-90.12,24.28-25.16,49.12-49.74,73.61-74.67,7.14-7.27,16.27-9.13,25.77-10.11,2.15-.22,4.13.7,5.42,2.65.11.95-.34,1.69-1.14,2.03-9.78,4.22-16.69,12.01-23.98,19.3-43.7,43.7-87.39,87.41-131.13,131.08-2.19,2.18-3.92,5.06-7.34,5.7Z" style="fill: #d5c8c8; stroke-width: 0px;"/>
  <path d="M758.82,619.67c-2.15-.08-3.3-1.71-4.64-3.02-24.07-23.63-48.17-47.23-72.16-70.94-6.85-6.77-15.62-11.32-21.17-19.64-3.8-5.7-6.24-12.14-11.17-17.36-3.23-3.42-.49-8.92,2.19-12.86,6.34-9.32,15.01-16.47,23.04-24.2,1.81-1.74,3.95-3.15,5.72-4.92,21.07-21.01,41.62-42.55,63.27-62.95,20.88-19.67,40.38-40.74,61.45-60.16,13.34-12.3,25.78-25.47,38.93-37.93,3.04-2.89,5.35-6.05,4.78-10.48-.72-5.61,1.67-9.31,6.66-11.56,2.23,6.99-1.33,12.44-4.81,17.87-1.34,2.09-2.98,3.98-4.48,5.96-43.05,42.94-86.1,85.87-129.13,128.82-.58.58-1.01,1.33-1.5,1.99-.36,3.05-2.85,4.6-4.73,6.5-12.5,12.59-25.04,25.15-37.64,37.65-4.08,4.05-7.61,8.51-10.67,13.33-4.44,6.99-4.93,14.18-.68,21.55,2.34,4.06,5.12,7.71,8.45,11.02,12.29,12.21,24.53,24.46,36.74,36.75,1.89,1.9,4.38,3.45,4.71,6.5,14.31,14.45,28.64,28.89,42.92,43.38,1.42,1.45,3.43,2.47,3.93,4.71Z" style="fill: #d0c7c7; stroke-width: 0px;"/>
  <path d="M181.13,691.95c-4.74,1.09-7.6,5.03-11.38,7.57-3.55,2.39-5.22,2.21-5.21-2.53.02-6.29,1.69-12.62,3.44-18.21,3.22-10.26,3.35-21.03,6.79-31.26,1.46-4.34.79-10.48.58-15.84-.23-5.93,1.96-11.92,2.23-17.92.24-5.44,1.26-11.3-2.7-16.09-1.35-1.63-1.37-3.22-.05-4.5,3.05-2.98,2.19-6.19,1.66-9.88-.75-5.17.02-10.56-.6-15.76-1.41-11.82.8-23.75-.43-35.32-1.19-11.19,1.5-22.22-.59-33.22-.12-.62-.37-1.43-.09-1.86,6.31-10.06-.49-21.71,4.18-32.52,1.87-4.33.11-11.55.62-17.54.59-6.91,1.39-13.74,2.51-20.57.57-3.49.62-7.13-.3-10.68-.36-1.41-1.12-3.21-.59-4.28,5.48-11.05.29-22.48-.21-33.28-.78-16.69-3.3-33.67-6.26-50.37-.32-1.83-2.62-4.07,0-5.68,2.06-1.26,4,.48,5.93,1.23.97.37,2.01.54,3.02.8,24.27,24.14,48.55,48.29,72.81,72.45.25.25.24.75.35,1.14-1.43,3.95,1.07,6.96,2.76,9.93,11.65,20.44,20.61,42,27.24,64.53,5.5,18.67,9.92,37.58,8.6,57.21-1.09,16.34-6.4,31.77-11.85,47.07-1.13,3.17-2.44,6.29-3.66,9.43-.84,2.18-.91,4.09.99,5.73-.03,1.46-1.22,2.13-2.08,2.98-31.91,31.9-63.84,63.79-95.78,95.68-.59.59-1.3,1.04-1.96,1.56Z" style="fill: #f55e57; stroke-width: 0px;"/>
  <path d="M338.17,815.99c28.52-28.68,57.03-57.36,85.56-86.02,18.58-18.67,37.25-37.25,55.75-56,6.56-6.64,13.62-12.45,22.29-16.1,8.34-1.43,15.29,1.72,21.51,6.81,12.39,10.13,23.26,21.83,34.3,33.36-.14,2.17-.33,5.05-3.41,3.36-3.9-2.13-8.19-1.7-12.19-2.96-10.21-3.21-19.97-.7-29.37,3.31-12.01,5.12-21.59,13.81-31.05,22.46-22.47,20.54-43.76,42.47-67.86,61.1-20.45,15.81-42.05,30.13-68.17,35.37-4.09.82-7.87,1.52-7.37-4.7Z" style="fill: #9d312c; stroke-width: 0px;"/>
  <path d="M280.95,591.73c-1.44-.14-2.86,1.67-4.14.46-1.36-1.28-.05-2.72.49-4.04,6.9-16.73,12.6-33.85,15.72-51.72,2.05-11.73,1.24-23.52-.86-35.11-3.07-16.93-7.93-33.42-13.82-49.61-6.21-17.07-14.73-33.03-23.19-49.03-1.06-2-3.49-4.89,1.71-4.86,29.11,27.15,56.52,56.02,84.91,83.9,18.91,18.56,19.08,29.87.82,48.86-17.54,18.24-35.64,35.94-53.54,53.84-2.57,2.57-5.39,4.88-8.09,7.31Z" style="fill: #ca4642; stroke-width: 0px;"/>
  <path d="M156.93,729.91c-2.6-2.1-4.43-4.2,0-6.31,0,2.1,0,4.21,0,6.31Z" style="fill: #f55e57; stroke-width: 0px;"/>
  <path d="M232.19,31.83c-1.16,2.48-2.77,2.18-4.17,2.17-19.69-.16-39.18,3.21-58.93,2.8-11.05-.23-21.75,3.2-32.33,7.03-8.59,3.11-17.34,5.99-26.09,8.78-2.64.84-3.67-.7-4.42-3.09-2.98-9.42,1.98-15.84,12.54-16.83,15.12-1.42,30.26-1.19,45.41-1.21,21.73-.02,43.46,0,65.18.01.81,0,1.63.18,2.81.33Z" style="fill: #fd8783; stroke-width: 0px;"/>
  <path d="M18.77,859.21c-1.9-1.67-1.21-3.92-1.21-5.94-.03-28.87-.01-57.74,0-86.61,2,1.9,1.19,4.36,1.2,6.58.05,28.66.02,57.31.02,85.97Z" style="fill: #f55e57; stroke-width: 0px;"/>
  <path d="M17.55,197.55c0-5.5,0-11,0-16.5,2.03,5.5,2.02,11,0,16.5Z" style="fill: #f55e57; stroke-width: 0px;"/>
  <path d="M17.55,179.8c0-2.96,0-5.93,0-8.89,1.95,2.96,1.95,5.93,0,8.89Z" style="fill: #f55e57; stroke-width: 0px;"/>
  <path d="M17.55,225.44c0-2.12,0-4.24,0-6.36,1.83,2.12,1.83,4.24,0,6.36Z" style="fill: #f55e57; stroke-width: 0px;"/>
  <path d="M711.97,571.58c-14.83-14.66-30.01-28.97-44.37-44.07-13.64-14.35-13.83-25.08-.72-39.87,15.37-17.34,32.26-33.24,48.91-49.35,4.91.65,3.51,3.27,2.21,6.3-5.03,11.77-10.77,23.18-15.01,35.35-6.61,18.97-5.72,37.52.22,56.18,3.38,10.61,6.46,21.36,11.46,31.38,1.66,3.32.31,4.12-2.71,4.08Z" style="fill: #571c1a; stroke-width: 0px;"/>
  <path d="M766.44,627.27c-2.19-.18-3.39-1.36-3.59-3.56,1.85.52,3.08,1.68,3.59,3.56Z" style="fill: #d0c7c7; stroke-width: 0px;"/>
</svg>