<?xml version="1.0" encoding="UTF-8"?>
<svg id="Layer_1" data-name="Layer 1" xmlns="http://www.w3.org/2000/svg" viewBox="0 0 1383.35 1383.35">
  <path d="M691.67,1383.22c-228.44,0-456.89-.02-685.33.13-5.18,0-6.35-1.17-6.35-6.35C.14,920.12.14,463.23,0,6.35,0,1.17,1.17,0,6.35,0c456.88.14,913.77.14,1370.66,0,5.18,0,6.35,1.17,6.35,6.35-.14,456.88-.14,913.77,0,1370.65,0,5.18-1.17,6.35-6.35,6.35-228.44-.15-456.88-.13-685.33-.13Z" style="fill: #fdfdfd; stroke-width: 0px;"/>
  <path d="M772.36,482.3c2.97-5.95,6.71-11.41,10.72-16.7,3.92-3.64,8.43-6.32,13.34-8.39,4.7-1.98,9.44-2.24,14.05.03,12.3,6.04,25.55,7.76,38.94,7.81,35.2.14,70.34,2.36,105.53,3.1,12.37.26,24.77,1.71,37.14,2.72,4.42.36,8.43,1.55,7.69,7.39-.38,3,1.14,4.84,3.56,6.09,14.69,7.56,29.15,15.76,45.45,19.5,14.79,3.4,29.89,5.37,44.59,9.25,5.15,1.36,9.27,3.93,12.11,8.48.49.78.95,1.63,1.62,2.23,16.37,14.55,19.91,34.94,25.5,54.62,8.51,29.92,9.87,60.79,13.46,91.37,2.47,21.02,2.28,42.23,4.08,63.32.49,5.72,1.19,9.97,7.88,10.53,1.12.09,2.01,1.05,2.69,2.02,1.16,4.19-2.34,5.62-4.61,7.78-.58.35-1.21.64-1.83.9-4.1,2.12-3.78,6.45-3.51,9.63.75,8.83,2.02,17.69,5.15,26.09,3.34,8.97,9.92,13.87,19.39,15,14.16,2.33,28.41,1.15,42.62,1.42,2.54.05,5.05-.09,7.5-.85,3.18.03,7.22-1.6,7.6,3.89-3.55,33.62-18.51,61.54-43.37,83.95-8.06,7.26-17.14,13.75-27.21,18.39-3.96-1.04-3.41-4.85-4.51-7.57-1.59-3.94-3.27-7.85-4.49-11.93-11.76-26.61-31.72-44.84-57.76-57.05-10.67-5-21.98-7.84-33.3-10.78-57.19-18.44-109.76-5.91-159.64,23.94-12.66,7.58-24.25,16.67-34.35,27.55-2.83,3.05-5.67,6.08-7.56,9.8-5.97,11.71-16.34,14.04-28.06,12.9-11.08-1.07-18.62-7.3-22.96-17.41-2.87-6.67-3.49-13.73-3.48-20.95.06-66.96,1.08-133.95-.29-200.88-1.11-54.3-.49-108.57-1.06-162.85-.05-4.4-.55-8.73-1.74-12.96-.89-3.16-2.06-6.17-5.73-7.1-3.3-.93-5.04,1.4-6.92,3.36-.95.99-1.61,2.21-2.43,3.31-7.32,9.71-9.27,9.6-15.81-.96Z" style="fill: #ef6768; stroke-width: 0px;"/>
  <path d="M156.02,719.78c-11.9-4.55-16.64-12.79-16.81-25.88-1.3-98.06-.3-196.12-.65-294.18-.01-2.93-.74-6,.92-8.78,3.12,2.95,2.23,6.85,2.24,10.42.09,29.01.11,58.01.02,87.02-.04,11.46,5.1,21.37,9.1,31.6,1.45,3.72,4.36,3.73,6.88.49,1.88-2.42,2.61-5.35,3.44-8.23,5.73-19.78,8.29-40.13,10.37-60.5,2.26-22.18,5-44.4,4.59-66.72-.25-13.32-1.4-26.63-1.3-39.98.02-2.29-.41-4.61.66-6.79,3.85-2.27,7.87-3.98,12.45-3.85,10.2-1.31,11.32,0,8.25,9.52-2.75,8.51-1.38,11.08,7.22,12.15,15.53,1.93,31.14,3.04,46.76,3.83,32.61,1.66,65.21,3.39,97.8,5.34,11.94.71,23.92,1.03,35.84,1.31,29.9.7,59.74,2.49,89.63,3.33,39.99,1.13,79.98,2.7,119.96,4.18,22.51.83,45.03,1.73,67.54,2.68,11.72.5,23.42,1.18,35.16,1.3,12.38.13,19.02,6.89,19.12,19.5.21,28.09-.79,56.2.27,84.25,1.66,43.96.03,87.93,1.52,131.84.83,24.4.98,48.77.92,73.15-.04,16.47,15.27,21.3,28.03,17.77,2.89-.8,3.88-3.75,4.5-6.52.66-2.94.55-5.95.56-8.94.1-34.76-1.08-69.56.52-104.27,1.4-30.32-1.11-60.79,3.66-90.97,1.66-10.47,4.08-20.77,6.1-31.16.6-3.07,1.45-6.48,5.64-6.85,1.55,5.96.52,12,.56,18-4.66,9.33-4.55,19.61-5.34,29.57-3.28,41.53-.77,83.15-1.51,124.73-.34,19.5.86,39.04-1.2,58.51-.27,2.5.21,5.01.55,7.53,1.21,8.9-4.71,18.98-13.13,22.08-2.84,1.04-5.32,2.68-8.1,3.76-10.32,1.22-20.7.82-31.04.83-181.68.14-363.35-.02-545.03.13-2.27,0-4.64.37-6.66-1.17Z" style="fill: #f4cb75; stroke-width: 0px;"/>
  <path d="M189.45,925.59c-5.43-.76-10.79-1.72-15.44-4.93-.66-3.62,2.42-4.59,4.49-6.17,10.18-7.79,13.49-19.67,7.99-31.22-3.36-7.06-4.47-14.25-4.71-21.98-.88-29.17-2.68-58.29-7.57-87.12-1.3-7.69-2.48-15.53-6.54-22.4-3.58-6.07-9.17-6.14-13.13-.29-2.63,3.88-3.76,8.37-4.65,12.9-1.99,10.16-3.39,20.42-5.28,30.59-.57,3.05-.64,6.49-4.25,7.86-1.5-.63-1.33-1.87-1.33-2.97-.03-19.78-.02-39.56-.02-59.34,0-.93.07-1.83.65-2.61.15-3-.09-6.13,2.71-8.26,10.95,2.99,21.42.9,31.75-2.95,7.44-2.77,15.17-3.45,23.08-3.45,139.07.06,278.15.07,417.22.04,41.85,0,83.72.93,125.47-3.37,10.81-1.11,20.71,7.68,20.73,18.46.06,41.44.63,82.88-.29,124.32-.08,3.46-1.16,6.79-1.21,10.24-1.6,6.45-2.84,13.01-6.26,18.9-4.64,8-12.35,11.1-21.14,8.31-6.53-2.07-11.87-6.09-16.78-10.63-5.56-5.15-12-7.43-19.48-7.36-7.13.07-14.27.09-21.4,0-35.39-.48-70.77-1.29-105.96-5.6-5.49-.67-10.9-1.81-16.27-3.05-5.36-1.24-9.82-4.08-12.89-8.65-14.39-21.43-34.33-36.3-56.83-48.07-19.56-10.23-40.43-16.14-62.34-18.96-23.64-3.05-46.25.45-68.35,8.79-5.18,1.95-10.66,2.9-16.15,3.53-29.69,3.38-57.54,13.15-83.57,27.05-21.25,11.34-36.79,28.88-43.19,53.1-2.19,8.28-5.04,16.25-11.68,22.27-3.85,3.49-3.17,9.66-7.37,13.03Z" style="fill: #fbaf46; stroke-width: 0px;"/>
  <path d="M766.89,456.14c-1.94.81-2.56,2.49-2.95,4.36-3.14,15.2-6.63,30.33-8.06,45.85-1.99,21.56-.38,43.2-1.53,64.73-2.18,40.61-.55,81.21-1.18,121.81-.16,10.64-2.05,15.09-14.76,15.08-8.92,0-14.64-3.65-20.27-9.18-2.16-2.12-2.38-4.84-2.3-7.67,1.04-41.16-1.93-82.27-1.41-123.42.2-15.88.62-31.79-.08-47.64-1.85-41.6-1.03-83.2-1.29-124.8-.06-8.93-6.23-14.96-15.18-15.17-19.04-.45-38.11-.46-57.13-1.5-24.5-1.33-49.02-1.92-73.53-2.86-26.58-1.01-53.16-1.86-79.74-2.77-23.82-.81-47.64-1.8-71.46-2.77-22.21-.9-44.43-1.68-66.62-2.72-26.3-1.23-52.57-2.98-78.88-4.09-20.1-.85-40.16-2.62-60.24-4.06-4.32-.31-8.62-.98-12.94-1.42-2.46-.25-3.52-1.96-4.34-3.92-1.42-3.4-.94-6.65.58-9.97,4.23-9.27,4.17-9.3-5.68-9.65,2.16-1.91,4.81-1.3,7.27-1.3,169.86,0,339.72.04,509.58.07,1.48,3.45-1.27,3.93-3.39,4.46-3.57.89-7.23,1.66-10.91,1.62-25.55-.26-50.99,2.14-76.48,3.18-37.88,1.54-75.83,2.26-113.58,6.38-3.19.35-6.38.41-9.59.33,31.44,2.74,62.91,4.59,94.48,5.57,29.87.92,59.72,2.25,89.61,2.75,8.7.15,17.41,1.27,26.16,1.35,6.24.06,11.53,2.56,16.08,6.91,10.62,10.16,17.57,21.76,16.1,37.19-.44,4.56.03,9.2-.08,13.8-.86,34.29,1.22,68.53,1.79,102.79.4,23.84,1.16,47.79,3.51,71.6.61,6.17-1.13,12.34-.5,17.68.81-40.55,4.24-81.73,10.64-122.69,2.24-14.32,4.24-28.67,6.85-42.93,1.04-5.67,2.28-11.31,5.53-16.22,1.15-1.74,2.61-3.56,5-2.89,2.43.68,1.67,3.02,1.61,4.69-.35,9.14.96,18.32-.71,27.43Z" style="fill: #feeb91; stroke-width: 0px;"/>
  <path d="M496.25,927.36c-5.52,10.47-12.52,19.78-21.79,27.23-2.12,1.7-2.93,3.85-3.66,6.36-11.72,40.43-35.96,70.06-76.04,84.63-25.88,9.4-52.27,9.07-78.16-1.25-1.15-4.12,2.19-3.71,4.35-3.99,3.4-.45,6.92-.11,10.21-1.33,2.08-.78,5.31-.72,5.65-3.21.37-2.69-2.83-3.29-4.81-4.12-5.09-2.16-9.9-4.85-14.89-7.18-8.23-3.84-15.16-9.51-22.08-15.21-1.25-1.03-2.38-2.19-3-3.72-.51-1.25-1.2-2.67.13-3.77,1.27-1.05,2.65-.39,3.81.37,3.26,2.15,5.98,4.98,9.22,7.2,10.17,6.98,21.67,10.67,30.54,13.01-9.44-2.31-20.21-9.13-31.36-14.67-8.63-4.29-16.19-11.71-19.34-22.27-2.09-6.98-6.06-13.38-9.49-19.84-5.18-9.77-6.42-19.91-5.2-30.64.41-3.63.75-7.28.76-10.75-.43,2.95.41,8.26-3.22,8.12-4.31-.17-2.89-5.49-2.68-8.57.65-9.22,3.12-18.09,6.51-26.69,1.1-2.78,2.23-5.55,3.03-8.43.34-1.25,1.2-2.78-.32-3.73-1.05-.66-2.17.18-3.19.68-.83.41.23-.05-.6.35-2.96,1.41-6.02,5.29-9.19,2.41-3.63-3.29-.17-7.28,1.11-10.78,1.66-4.55,5.33-8.05,6.9-12.68,13.52-17.47,30.62-29.8,51.95-36.05,3.44-.17,6.85-.29,10.26-1.07,3.42-.79,7.13-.89,9.9,1.55,6.08,5.35,13.55,6.37,21.04,7.69,18.12,3.19,34.94,9.51,50.03,20.33,13.49,9.67,23.11,22.32,29.63,37.33,6.94,15.97,11.05,32.58,10.31,50.23-.29,6.8-.48,13.67.37,21.13,3.12-1.86,3.74-4.58,4.57-7.01,3.21-9.43,4.39-19.24,5-29.13.15-2.52.04-5.07.67-7.54.7-2.71,1.47-5.62,4.42-6.56,3.29-1.05,5.73.71,7.5,3.46.96,4.96,4.24,6.17,8.9,6.13,4.14-.03,8.63-1.27,12.29,2Z" style="fill: #434343; stroke-width: 0px;"/>
  <path d="M189.45,925.59c1.27-7.46,4.33-13.8,10.12-19.03,4.82-4.36,5.56-11.06,7.1-16.94,6.36-24.24,21.9-41.65,42.76-53.42,24.86-14.03,51.99-23.54,80.37-27.25,14.34-1.87,27.44-7.03,41.16-10.42,20.24-4.99,40.28-4.32,60.59-.94,27.47,4.57,51.8,16.41,74.78,31.45,13.82,9.05,24.49,21.35,34,34.66,3.43,4.8,7.89,7.28,13.62,8.37,16.44,3.14,32.98,4.67,49.7,5.63,27.05,1.55,54.1,3.3,81.17,2.35,14.53-.51,27.27,1.71,37.45,12.83,3.05,3.34,7.28,4.75,11.49,5.98,6.81,2,13.39-.87,17.06-6.94,3.23-5.35,4.4-11.42,6.46-17.17,4.04,6.15-.32,11.68-1.28,17.46-1.26,3.54-2.86,6.9-5.1,9.94-8.7,10.04-20.38,13.93-32.86,12.88-20.25-1.71-40.47-.88-60.69-.95-19.56-.07-39.05-.91-58.56-2.19-25.65-1.68-48.67-11.31-71.37-22.17-4.36-2.09-8.65-4.33-13.22-5.93-13.19-4.63-23.36-12.63-31.99-23.93-19.52-25.55-46.26-37.92-78.3-38.36-14.06-.19-27.89-1.83-41.85-3.37-30-3.32-57.27,5.29-81.58,23.14-2.98,2.19-5.43,5.13-6.81,8.58-3.5,8.75-8.09,17.05-10.86,26.1-1.85,6.67-6.01,12.29-8.43,18.73-3.72,9.9-7.2,19.8-8.02,30.46-.12,1.61.21,3.9-2.49,4.12-1.42-3.24-4.33-1.92-6.61-1.95-11.66-.13-23.31-.1-34.97-.06-4.37.02-8.66-.45-12.86-1.65Z" style="fill: #e39e43; stroke-width: 0px;"/>
  <path d="M795.97,474.12c6.38-1.22,8.12,3.63,9.21,7.96,1.09,4.37,1.96,8.87,1.95,13.55-.14,40.51-.92,81.03.1,121.52,2.1,82.8.55,165.6,1.3,248.39.11,12.21,4.06,22.91,16.05,29.06,13.17,6.75,27.81,1.65,35.24-11.01,6.51-11.1,16.95-18.87,27.08-26.72,26.07-20.22,55.56-33.01,87.66-39.39,25.1-4.99,50.5-5.33,75.61.7,4.81,1.16,9.33,3.52,13.99,5.33-2.35,2.52-5.39,2.18-8.27,1.7-5.18-.86-10.38-.9-15.59-.91-2.63-.18-5.26-.29-7.82.57-2.13.5-4.32.59-6.48.83-3.83.9-7.6,2.09-11.55,2.47-29.28,3.24-56.98,11.02-79.81,30.58-8.86,7.59-16.11,17.09-20.96,27.98-3.32,7.45-8.5,12.87-15.54,16.94-18.19,10.52-36.47,20.42-58.1,22.2-9.23.76-18.3-.24-27.44-.41-19.63-6.64-30.44-21.79-38.37-39.73.33-1.38,1.3-1.79,2.57-1.78,2.61-.66,2.78-2.87,2.93-4.91.36-5.05,1.42-10.03,1.57-15.09,1.29-42.5,2.8-85.05,1.18-127.52-1.83-47.82-1.34-95.62-.63-143.39.38-25.72.27-51.47.99-77.19.2-7.34.99-14.68,1.73-21.98.82-8.05,4.87-14.73,11.38-19.75Z" style="fill: #c14e4f; stroke-width: 0px;"/>
  <path d="M1160.77,747.57c-1.04-2.17-2.9-2.95-5.13-2.67-6.67.85-7.02-3-7.46-8.35-2-24.62-2.21-49.33-5-73.93-2.39-21.1-4.02-42.32-7.49-63.27-1.9-11.46-5.58-22.64-8.82-33.85-.82-2.84-1.97-5.55-2.3-8.56-1.21-11.09-7.81-19.26-15.04-27.03-.63-.67-1.54-1.19-1.91-1.98-6.72-14.15-20.35-14-33.03-16.78-17.28-3.8-35.28-5.1-51.11-14.6-7.36-4.42-16.07-6.4-23.27-11.46-2.43-1.71-4.86-2.68-2.8-6.27,3.05-5.31-1-5.86-4.56-6.06-5.49-.31-11.01-1.05-16.4-1.15-11.26-.2-22.39-1.8-33.66-1.88-18.59-.14-37.22-.57-55.75-1.59-13.56-.74-27.1-.12-40.59-1.08-12.73-.91-25.58-1.64-37.11-8.32-3.8-2.2-7.96-1.78-11.93.1-4.77,2.27-9.55,4.52-14.33,6.77,9.78-14.51,22.56-23.79,40.52-26.35,13.52-1.93,26.95-1.11,40.4-1.26,24.32-.27,48.65.02,72.97.08-1.1,4.61-5.01,3.21-7.87,3.37-27.58,1.56-55.18,1.67-82.8,1.47-6.26-.05-12.44.6-18.37,2.6-2.56.86-5.98,2.09-5.55,5.26.46,3.38,4.18,2.9,6.82,3.19,24.79,2.78,49.68.76,74.51,1.52,48.98,1.49,97.95,2.59,146.95,2.93,19.56.13,38.93,2.17,56.3,13.31,18.23,11.7,31.16,26.93,36.85,48.08,8.68,32.23,17.67,64.38,26.27,96.63,10.21,38.25,21.17,76.31,30.77,114.72,3.89,15.58,3.79,15.54-12.47,15.66-6.19.05-12.43-.71-18.57.68-3.01.33-6.01,2.16-9.04.07Z" style="fill: #f87071; stroke-width: 0px;"/>
  <path d="M1169.01,745.95c8.34-2.39,16.91-1.19,25.28-.84,6.93.29,7.59-2.35,6.15-7.76-6.61-24.78-13.13-49.58-19.81-74.34-9.79-36.26-19.66-72.5-29.55-108.73-3.68-13.48-7.41-26.95-11.3-40.37-8.39-29.01-45.08-51.76-72.57-52.64-26.66-.85-53.35.32-79.92-1.34-20.01-1.25-40.01.29-59.91-1.24-28.27-2.17-56.53-.48-84.77-1.26-5.7-.16-11.44-.64-17.06-1.6-2.66-.45-6.68-.38-7.11-4.21-.39-3.4,2.76-5.05,5.29-6.58,5.7-3.42,12.21-3.86,18.56-4.05,11.27-.33,22.57-.45,33.83-.02,18.86.73,37.6-2.21,56.45-1.47,1.61.06,3.26.09,4.38-1.42,46.45.03,92.97-1.41,139.33.63,30.11,1.33,53.52,18.6,72.15,42.07,13.03,16.4,17.16,36.33,22.61,55.7,15.44,54.94,30.6,109.96,45.85,164.95.3,1.08.28,2.25.4,3.38-.55.45-1.51-.03-1.9.81.77.17,1.63-.13,2.31.46,2.25,3.88,2.7,8.27,3.57,12.55-7.65-.64-.04,4.34-1.98,5.29-.4,1.34,1.08.41.16.46-.29.02-.27-.19-.2-.64.24-1.57.19-3.4,2.69-2.5,2.8,7.66,5.08,15.46,6.48,23.51-3.96,3.42-8.99,3.2-13.63,3.44-12.98.67-25.99.32-38.99.18-2.48-.03-5.08-.09-6.81-2.42Z" style="fill: #fe8d8e; stroke-width: 0px;"/>
  <path d="M766.89,456.14c.01-9.2.04-18.41.01-27.61,0-1.3.39-3.09-1.35-3.47-1.59-.34-2.2,1.24-2.9,2.42-4.24,7.09-5.08,15.19-6.39,23.03-4.57,27.24-8.48,54.58-11.41,82.05-2.18,20.48-3.19,41.04-4.48,61.59-.49,7.85-.03,15.86-1.33,24.49-3.17-2.13-2.44-4.76-2.42-6.96.3-27.08-2.52-54.05-3.22-81.11-.35-13.74-.24-27.52-1-41.26-1.75-31.46-1.1-62.94-1.41-94.41-.18-17.92-17.19-33.45-35.07-34.34-18.59-.93-37.19-.5-55.75-1.35-25.43-1.15-50.88-1.59-76.28-2.9-23.48-1.21-47.11-1.36-70.41-5.24-2.41-.4-4.75-1.26-8.53-2.29,17.25-2.66,33.15-3.85,49.13-4.72,33.18-1.79,66.37-3.07,99.58-4.29,18.52-.68,37.01-2.28,55.58-2.69,5.22-.12,11.29,1.01,15.52-3.93,29.44-2.08,56.11,20.19,61.93,50.37,1.49,7.74,1.43,15.85,1.47,23.79.12,23.17-.06,46.34-.13,69.52-.59.32-1.1.21-1.55-.28-.38-.91-.3-1.75.4-2.48,0-5.97,0-11.95,0-17.92Z" style="fill: #fefeab; stroke-width: 0px;"/>
  <path d="M1140.31,1009.28c-23.38,29.28-54.18,43.66-91.25,42.46-51.21-1.66-85.13-29.76-107.07-74.22-2.61-5.3-5.43-9.33-10.85-12.27-15.23-8.25-27.07-20.27-36.08-35.06,2.28-2.64,5.44-2.06,8.34-2.12,7.11-.14,14.23-.06,21.34-.05,3.85,0,5.81-1.67,6.56-5.48,2.34-11.97,5.94-23.56,10.99-34.68,1.23-2.79,2.57-5.51,4.86-7.63,13.37-8.18,27.48-14.11,43.51-14.14,5.94,2.04,6.89,4.11,3.48,9.33-4.4,6.73-9.32,13.13-13.21,20.18-31.32,56.75,4.78,127.52,70.26,133.54,29.75,2.73,57.04-2.87,81.52-20.52,4.47-3.22,5.08-2.96,7.6.67Z" style="fill: #3c3c3c; stroke-width: 0px;"/>
  <path d="M1140.31,1009.28c-1.9-2.96-3.67-1.49-5.65.02-17.45,13.3-37.11,19.94-59.04,21.84-24.37,2.1-46.99-1.76-67.52-15.21-17.05-11.18-28.44-26.89-35.31-46.06-8.36-23.3-6.46-46.13,3.02-68.49,4.03-9.51,10.35-17.78,16.37-26.17,1.59-2.21,6.59-6.36-1.35-7.38-.75-2.97,1.85-3.84,3.41-5.29,7.17-6.65,15.08-12.4,22.64-18.6,32.16-8.36,62.5-5.84,89.32,15.67,20.95,16.8,35.37,37.92,40.27,64.74,3.02,16.52,2.19,32.91-2.94,49.01-1.42,4.48-2.96,8.96-3.03,13.87,6.99-6.71,10.99-15.15,13.7-24.12,4.47-14.8,4.21-29.93,2.1-45.1-.44-3.14-1.89-6.24-.48-9.48,2.17-2.15,3.19-.28,4.06,1.3.87,1.59,1.13,3.47,2.23,4.97.51,1.78,1.03,3.56,1.54,5.34,1.25,2.25-.1,4.86,1,7.12.74,7.36.86,14.72.04,22.09-1.3,2.67.39,5.74-1.12,8.38-2.23,10.34-4.87,20.63-9.71,30.03-3.87,7.51-7.11,15.57-13.56,21.52Z" style="fill: #494949; stroke-width: 0px;"/>
  <path d="M139.66,737.92v63.47c3.9-6.89,4.01-14.58,5.5-21.93,1.72-8.5,2.1-17.33,5.61-25.37,1.85-4.24,3.44-8.92,9.67-9.34,6.42-.42,8.3,3.87,10.26,8.33,5.04,11.49,6.01,23.87,7.61,36.08,2.38,18.14,4.28,36.3,4.51,54.68.1,8.4.96,16.89,1.09,25.37.06,4.01,1.73,7.56,3.45,11.08,7.46,15.29,3.73,28.38-10.57,37.44-1.1.7-1.87,1.94-2.79,2.93-20.15-9.08-31.41-25.03-34.22-46.52-2.78-21.25-.91-42.71-1.15-64.07-.24-21.61-.09-43.23-.04-64.85,0-2.45-.75-5.09,1.06-7.31Z" style="fill: #fdbc62; stroke-width: 0px;"/>
  <path d="M175.46,338.23c.84,1.89,1.67,3.77,1.53,5.93-1.01,16.31,2.16,32.55,1.23,48.79-1.38,24.37-3.1,48.73-6.4,72.97-2.16,15.86-4.45,31.63-8.68,47.08-.91,3.32-1.57,6.77-3.76,9.53-1.39,1.75-2.79,4.12-5.39,3.77-2.94-.4-4.79-2.72-5.79-5.36-5.73-14.98-9.28-30.11-8.74-46.56.92-27.79.1-55.63.02-83.45.4-23.57,15.28-45.37,35.98-52.7Z" style="fill: #d8b467; stroke-width: 0px;"/>
  <path d="M243.89,929.25c1.62-19.01,8.04-36.42,17.56-52.8,2.67-4.15,2.85-10.43,9.55-11.13-1.85,6.47-7.3,11.1-9.01,17.66-.41,1.57-1.32,3.25-.02,4.53,1.53,1.5,2.89-.35,4.3-.83.21-.07.37-.28.58-.37,3.32-1.49,6.26-6.96,9.93-3.57,3.12,2.87-.53,7.36-1.86,10.78-4.73,12.21-8.78,24.47-8.07,38.19,4.3-2.43,1.21-7.5,5.4-10.48,0,4.72.67,8.96-.12,12.92-3.32,16.65,4.04,30.45,11.81,43.87,3.09,5.33,3.21,11.49,7.55,16.6,7.62,8.96,17.62,13.38,27.62,18.24,8.35,4.06,16.47,8.66,26.43,10.67-9.43,3.66-25.42-2.99-53.04-21.52.34,3.44,2.41,4.94,4.47,6.73,10.49,9.11,22.48,15.63,35.19,20.98,1.69.71,3.32,1.59,4.92,2.49,1.57.88,3.7,1.69,3.32,3.85-.34,1.91-2.3,2.59-4.12,3.22-4.57,1.59-9.1,3.08-14.08,2.73-2.07-.15-4.84-1.05-5.63,2.32-47.87-16.97-77.41-67.16-72.7-115.08Z" style="fill: #535353; stroke-width: 0px;"/>
  <path d="M754.5,892.72c.52-6.05,3.67-11.69,2.77-17.96,2.89-44.78.74-89.62,1.37-134.42.16-11.41-7.35-18.72-18.87-18.93-9.66-.17-19.2.88-28.68,2.6-5.42.98-10.85,1.54-16.4,1.54-164.61-.06-329.22.02-493.84-.12-10.97,0-21.4,1.31-31.68,5.18-7.52,2.83-15.39,4.38-23.53,1.9-1.74-.53-2.99-.96-3.28-2.85,2.75-5.77,7.81-8.37,13.65-9.88,2.87-.92,5.8-1.11,8.81-1.11,187.35.03,374.7.02,562.06,0,4.14,0,8.28-.11,12.43-.17,2.39-1.19,4.84-1.78,7.46-.81,13.77,4.42,18.27,14.57,18.18,28.19-.22,32.9.39,65.8-.3,98.69-.28,13.02-.06,26.2-2.48,39.14-2.57,2.98-2.7,8.06-7.67,9.03Z" style="fill: #e3842d; stroke-width: 0px;"/>
  <path d="M1169.01,745.95c19.82.34,39.65.91,59.43-1.2,6.01-.41,8.32,2.99,9.71,8.37,4.1,15.91,4.25,32.11,4.54,48.35.07,3.63-1.39,5.25-4.49,5.49-2.23.18-3.99.65-5.19,2.59-1.38-4.11-4.73-2.13-7.36-2.38-15.32.91-30.58.99-45.86-1.25-8.86-1.3-14.33-6.82-17.37-14.02-4.64-10.97-7.05-22.74-7.81-34.73-.09-1.37-.02-2.76.76-4,1.8-1.87,3.59-3.74,5.39-5.6,2.75-.54,5.5-1.08,8.25-1.62Z" style="fill: #fef093; stroke-width: 0px;"/>
  <path d="M795.97,474.12c-6.27,8.48-9.24,17.6-10,28.51-1.81,25.97.28,51.93-1.17,77.82-2.46,43.84-1.46,87.69-.92,131.51.39,31.68.92,63.37,1.06,95.06.09,19.74-2.11,39.41-1.54,59.17.17,5.84-1.32,11.76-2.29,17.6-.31,1.85.36,4.86-2.3,5.14-2.69.29-1.55-3.51-3.42-4.54-3.92-4.38-3.46-9.77-3.46-15.05,0-113.7.04-227.4-.07-341.11,0-8.87.59-17.85-1.31-27.25-3.25,1.73-3.3,4.35-3.76,6.64-1.64,8.16-1.9,16.44-1.9,24.74.01,54.32,0,108.64.03,162.96,0,4.41-.08,8.78-1.89,12.87-1.1,2.49-2.18,5.24-5.71,5.1-.56-.76-1.09-1.69-.8-2.55,5.88-17.39,3.18-35.39,3.4-53.1.52-42.49.35-84.99.05-127.49-.08-10.81,1.6-21.45,1.73-32.21.04-3.78.41-7.93,4.21-10.43.77-.47,1.58-.84,2.42-1.13,2.15-.57,2.5-2.92,4.04-4.08.82.33,1.88.44,2.43,1.03,6.31,6.66,6.33,6.7,11.93-.85,2.54-3.42,4.44-7.49,9.26-8.36Z" style="fill: #d44b3e; stroke-width: 0px;"/>
  <path d="M754.5,892.72c1.89-2.76,3.77-5.51,5.66-8.27,3.1,3.29-.09,6.35-.33,9.52-8.31,18.21-23.39,27.52-42.15,31.8-4.22.96-8.64,1.39-12.97,1.4-56.83.1-113.66.08-170.48.07-1.14,0-2.29-.17-3.43-.26,1.27-4.41,5.5-1.68,8.5-3.65-14.37-2.98-22.17-14.68-32.59-22.72-2.55-1.96-5.18-3.84-7.58-5.97-9.6-8.52-20.11-12.77-32.87-7.7-1.06.42-2.27.22-3.41-.09-5.35-5.61-10.12-11.54-11.17-19.61,1.58-3.77-.31-6.71-2.38-9.54-2.05-2.8-4.04-5.61-5.34-8.84-.76-1.9-1.86-3.98-.17-5.82,1.67-1.82,3.87-1.16,5.8-.38,9.93,4.01,19.58,8.95,26.17,17.44,8.32,10.71,19.11,17.83,30.51,24.39,8.58,4.93,17.08,9.97,25.26,15.59,14.89,10.24,31.99,14.01,49.59,15.39,26.83,2.11,53.75,2.65,80.65,2.78,19.3.1,38.61-1.01,57.92-1.46,12.33-.29,23.41-4.83,30.69-15.82,1.37-2.76,2.75-5.51,4.12-8.27Z" style="fill: #cf8f36; stroke-width: 0px;"/>
  <path d="M948.04,881.62c-1.35,1.88-2.71,3.75-4.06,5.63-3.44,8.1-9.25,12.52-18.34,12.93-7.34.33-13.48,3.59-18.7,9-6.65,6.89-12.88,14.35-21.8,18.64-1.45.69-2.75,1.65-4.48,1.5-18.19-.33-36.39.64-54.56-.53-4.81.16-9.36-.7-13.48-3.34.37-2.07,1.79-2.51,3.58-2.2,27.3,4.66,51.37-4.21,74.73-17.14,11.32-6.26,18.38-15.23,24.68-26.48,14.89-26.6,39.56-40.65,68.57-47.44,9.95-2.33,19.51-7.11,30.19-5.74.25,2.25-1.61,2.53-3.02,3.04-25.18,9.05-45.01,24.8-59.53,47.27-1.11,1.72-2.8,3.02-3.78,4.86Z" style="fill: #a04041; stroke-width: 0px;"/>
  <path d="M769.67,876.14c-.46-.84-.92-1.69-1.37-2.53-4.28-2.79-3.43-7.25-3.42-11.25.13-38.6-.17-77.21.17-115.81.08-9.69-1.02-18.33-9.65-24.29-.78-.54-1.1-1.44-1.16-2.4.15-2.22,1.17-3.91,2.98-5.18,6.06-4.25,7.76-10.29,7.75-17.41-.09-53.83-.06-107.66-.04-161.48,0-3.67-.25-7.39,1.42-10.84.95-1.96,2.2-3.66,4.7-3.18,2.53.48,2.05,2.65,2.13,4.42.05,1.15.01,2.3.01,3.45,0,113.64,0,227.27,0,340.91,0,1.84.36,3.75-.18,5.5-.85,2.73-2.16,1.47-3.32.11Z" style="fill: #1b0301; stroke-width: 0px;"/>
  <path d="M462.87,885.85c2-.45,4.07-.72,6-1.38,9.52-3.27,17.97-1.37,25.85,4.68,9.46,7.26,19.05,14.32,27.25,23.09,5.92,6.33,14.67,7.87,22.5,12.23-4.69,3.02-9.76-.3-13.68,2.52-11.51.13-23.03.25-34.54.38-4.53-.08-9.13-.68-13.58-.14-6.8.83-9.77-1.52-8.81-8.41-4.77-9.8-6.98-20.58-11.61-30.44-.39-.84.05-1.77.62-2.53Z" style="fill: #ab752b; stroke-width: 0px;"/>
  <path d="M769.67,876.14c2.06.83,2.89.23,2.84-2.08-.11-4.37.03-8.75.03-13.12-.06-109.34-.11-218.67-.29-328.01,0-3.37,1.61-9.76-1.69-9.56-4.3.26-3.33,6.48-3.34,10.42-.1,51.79-.27,103.58-.07,155.37.04,10.97-.25,21.25-10.61,28.08-.84.55-1.13,1.95-1.67,2.95-.28-.21-.57-.42-.85-.63-1.21-3.39.19-5.44,3.36-6.59,5.48-4.46,5.48-10.7,5.49-16.92.04-58.02.03-116.05.16-174.07.02-7.32.67-14.67,3.33-21.62.83-2.16,2-4.89,4.41-4.81,2.93.1,1.38,3.32,2.09,5.06,1.35,3.3.93,6.81.93,10.24.07,117.66.11,235.32.17,352.98,0,6.88-.39,13.8,1.45,20.56-.38.44-.76.89-1.14,1.34-1.53-3.19-3.06-6.39-4.59-9.58Z" style="fill: #8b2f14; stroke-width: 0px;"/>
  <path d="M883.04,928.61c.19-2.97,2.79-3.38,4.75-4.37,6.78-3.43,11.31-9.41,16.25-14.75,6.65-7.19,14.3-11.19,24.12-11.31,7.62-.09,11.33-6.14,15.81-10.93-1.83,7.77-5.96,14.77-7.46,22.69-.89,4.68-3.32,9.25-3.36,13.88-.05,6.24-3.29,6.32-7.83,6.26-10.08-.12-20.17.06-30.26.12-.45.06-.84-.07-1.18-.37-3.49-1.49-7.38.56-10.85-1.22Z" style="fill: #803132; stroke-width: 0px;"/>
  <path d="M754.86,720.19c10.33,6.1,12.58,15.35,12.41,26.85-.57,38.81-.27,77.63-.32,116.45,0,3.45-.07,6.87,1.34,10.12-3.86,6.36-3.3,14.55-8.46,20.37-1.28-3.22,1.05-6.32.33-9.52,4.42-48.03,1.93-96.18,2.38-144.27.09-9.36-4.2-16.81-14.26-19.42-.7-.18-1.16-1.29-1.74-1.97,2.94-2.58,5.52-2.09,7.8.93.15.18.32.33.51.47Z" style="fill: #8b2f14; stroke-width: 0px;"/>
  <path d="M1162.11,914.81c-3.42-1.04-2.04-5.83-5.4-6.92-3.69-2.38-7.74-11.57-6.53-15,.88-2.51,2.51-3.05,4.73-1.47,2.51,6.82,5.02,13.64,7.53,20.46-.11.97-.22,1.95-.33,2.93Z" style="fill: #4a4949; stroke-width: 0px;"/>
  <path d="M883.04,928.61c3.6.6,7.45-1.09,10.85,1.22-20.36.01-40.73.06-61.09,0-2.23,0-4.47-.67-6.7-1.04,18.98-.06,37.96-.12,56.94-.18Z" style="fill: #c14e4f; stroke-width: 0px;"/>
  <path d="M1221.96,721.24c-2.6,1.15-1.23,3.99-2.47,6.27-1.46-4.16-4.45-7.37-3.14-11.85,2.49-.38,3.1,2.35,4.94,2.97.22.87.45,1.74.67,2.61Z" style="fill: #f87071; stroke-width: 0px;"/>
  <path d="M1217.72,706.08c-4.72,3.51-5.14.55-5.05-3.3,2.25-.8,3.01,1.58,4.63,2.03.22.4.36.82.41,1.27Z" style="fill: #f87071; stroke-width: 0px;"/>
  <path d="M768.32,486.39c.06.42-.01.81-.22,1.17-5.07-3.19-3.41-6.94-.9-10.77.28.01.57.03.85.04.09,3.18.18,6.37.27,9.56Z" style="fill: #feeb91; stroke-width: 0px;"/>
  <path d="M1163.58,957.73c-.05-2.85-.98-5.81,1.12-8.38.11,2.86.63,5.77-1.12,8.38Z" style="fill: #6d6b6b; stroke-width: 0px;"/>
  <path d="M1164.65,927.27c-1.94-2.15-1.23-4.67-1-7.12,1.61,2.19,1.15,4.68,1,7.12Z" style="fill: #6d6b6b; stroke-width: 0px;"/>
  <path d="M896.98,703.53c-16.85-1-28.88-11.98-32.13-29.35-1.03-9.86-.36-19.75-.41-29.63-.12-23.25.03-46.49-.1-69.74-.02-4.45.49-7.44,6.02-5.58,2.1.7,4.25.31,5.81-1.25,11.52-11.55,26.66-13.24,41.54-14.2,38.77-2.51,77.59-4.12,116.45-4.57,22.87-.26,38.28,10.87,49.28,29.67,5.64,9.64,8.46,20.42,11.1,31.13,5.18,21,10.53,41.97,14.66,63.21.97,5.01,1.54,10.02.61,15.08-2,10.84-7.94,15.77-18.91,15.77-62.14,0-124.29,0-186.43-.03-2.5,0-5.06.54-7.49-.53Z" style="fill: #e5e3e2; stroke-width: 0px;"/>
  <path d="M896.98,703.53c58.93-.04,117.86-.08,176.79-.12,4.37,0,8.75,0,13.12-.02,16.13-.06,24.47-9.66,21.07-25.79-6.19-29.33-11.81-58.86-21.69-87.25-6.89-19.82-19.63-34.95-41.29-38.23-14.89-2.25-30.29-1.29-45.42-.02-2.71.23-5.44.75-8.19.69-24.8-.58-49.49,1.91-74.23,2.98-8.14.35-16.31,2.27-24.26,4.28-5.3,1.34-10.16,4.18-13.93,8.53-2.83,3.27-5.9,6.09-10.46,2.25-2.28-1.92-3.24-.57-3.32,1.85-.06,1.84-.04,3.68-.04,5.52-.09,31.99-.18,63.99-.27,95.98-2.02-2.15-1.17-4.83-1.17-7.25-.06-31.07.05-62.15-.03-93.22-.05-21.12,17.06-39.67,39.07-39.33,43,.66,86.03-.34,129.05-.71,8.04-.07,16,1.93,24.07.74,7.77-2.64,13.8,1.57,20,5.09,9.95,8.74,16.38,19.45,20,32.33,9.54,33.93,17.11,68.31,24.57,102.72,2.39,11.04.81,21.62-8.78,29.44-2.48,1.23-5.11.69-7.7.68-66.81.03-133.62.08-200.43.07-2.2,0-4.64.76-6.52-1.21Z" style="fill: #c6b8b8; stroke-width: 0px;"/>
  <path d="M1154.9,891.43c-2.35-.09-4.47.4-3.33,3.35,1.68,4.38,2.21,9.22,5.13,13.12,2.14,11.97,3.21,24.01,2.74,36.2-.61,15.88-6.05,29.97-15.03,42.84-1.41,2.03-3.21,3.95-6.58,4.29-1.44-5.89,1.65-11.02,3.26-16.1,7.81-24.54,7.29-48.78-3.14-72.22-6.93-15.59-17.56-28.59-30.61-40.03-20.1-17.62-43.59-22.48-69.03-21.08-7.09.39-14.57.55-21.24,4.01-4.53,1.66-10.18,4.1-12.77-1.21-2.42-4.95,3.73-6.85,6.87-9.55,4.58-3.94,11.63-4.71,14.27-11.13,2.25-.12,4.5-.24,6.76-.37,2.16-1.46,4.89.29,7.03-1.26,8.37-.92,16.58,1.68,24.93,1.21,24.79,4.83,47.08,14.98,65.56,32.33,10.71,10.06,19.7,21.67,25.18,35.59Z" style="fill: #6d6b6b; stroke-width: 0px;"/>
  <path d="M1074.74,540.5c-5.93-3.16-12.12-5.54-18.89-6.08-.63-6.08,1.59-8.32,9.16-7.77,16.9,1.24,30.21,9.05,40.79,22.34,8.25,10.36,10.56,22.75,13.33,34.96,6.87,30.3,13.24,60.71,20,91.03,1.19,5.33,1.37,10.41-.52,15.51-.89,2.4-2.23,5.6-4.38,5.84-8.74.96-14.93,7.73-23.17,9.5-2.37.51-5.05,1.06-7.12-1.16,2.06-1.89,4.68-.96,7.03-1.39,11.59-6.07,14.93-15.36,12.67-28.14-5.27-29.82-11.43-59.44-18.42-88.89-2.14-9-4.31-18.05-9.68-26.21-5.5-8.35-12.8-14.17-20.79-19.55Z" style="fill: #be5455; stroke-width: 0px;"/>
  <path d="M1155.38,753.17c2,11.02,3.83,22.06,6.74,32.9,3.17,11.79,12.14,18.72,24.29,19.8,13.08,1.17,26.17.71,39.24,1.29-2.13,2.02-4.78,1.19-7.2,1.2-15.05.02-30.13.65-45.12-1.35-11.32-5.08-16.78-14.2-18.73-26.13-.92-5.63-2.84-11.15-3.47-16.83-.41-3.72-1.02-7.92,2.75-10.77l1.5-.11Z" style="fill: #ca9558; stroke-width: 0px;"/>
  <path d="M1153.88,753.28c-2.85,6.12-.69,12.17.43,18.17.79,4.25,2.4,8.36,3.14,12.61,1.5,8.63,5.6,15.33,13.16,19.91,1.11.67,1.83,2.01,2.73,3.04-11.15-2.55-18.16-9.45-20.54-20.54-2.03-9.48-5.22-18.92-3.11-28.87q.62-2.94,4.2-4.32Z" style="fill: #9f4038; stroke-width: 0px;"/>
  <path d="M677.17,668.82c-4.13,2.15-8.6,2.73-13.17,2.73-143.7.02-287.39.03-431.09.06-13.21,0-22.26-7.47-21.56-21.62.76-15.58-.64-31.23-.78-46.82-.12-13.95,1.72-28.04.79-41.99-1.25-18.83,0-37.59.19-56.37.13-12.87-.72-25.7-1.15-38.54-.43-13.06,1.36-26.12,1.23-39.24-.09-8.74,7.67-16.04,16.39-16.55,2.98-.17,5.99-.04,8.98-.04,138.86-.01,277.72-.07,416.58.14,5.59,0,11.18-3.57,16.77-.17-1.14,2.25-2.31,4.46-3.33,6.78-1.79,4.08-1.34,7.45,1.82,10.67,11.12,11.37,12.08,26.37,14.11,40.86.75,5.36-1.83,8.93-7.8,10.21-7.87,1.69-8.32,3.48-3.67,9.92,3.18,4.4,4.66,9.47,5.83,14.63,2.25,9.86,3.87,19.85,5.38,29.85,1.28,8.47-.6,11.54-8.45,14.81-5.71,2.38-6.52,4.33-3.1,9.18,3.13,4.43,4.93,9.29,6.14,14.48,2.45,10.53,3.82,21.26,5.6,31.91.97,5.8-.6,10.08-6.66,12.69-7.37,3.17-6.9,4.16-3.7,11.4,5.77,13.07,11.16,26.44,4.65,41.01Z" style="fill: #f3a641; stroke-width: 0px;"/>
  <path d="M677.17,668.82c-1.55-1.08-.7-2.34-.37-3.66,3.49-13.98-.28-26.83-7.33-38.6-3.09-5.17-2.45-7.54,2.26-10.28,10.05-5.85,9.98-5.92,8.28-17.57-1.48-10.18-2.89-20.35-5.51-30.33-.95-3.64-2.37-6.93-4.74-9.8-5.29-6.42-4.16-11.04,4.06-12.36,6.68-1.07,8.15-4.96,7.34-10.07-2.06-13.07-3.53-26.29-7.6-38.98-.99-3.09-2.14-5.97-4.45-8.42-5.47-5.79-4.39-9.17,3.45-11.55,9.37-2.84,10.33-4.37,7.92-14.4-2.28-9.49-2.67-19.58-8.43-28.02-1.16-1.69-2.41-3.35-3.82-4.84-5.46-5.77-5.98-12.71-1.11-18.65.57-.7,2.13-.59,3.23-.86,6.83.52,11.39,4.57,15.16,9.81,1.55,2.12,2.04,4.47,2.03,7.12-.05,74.79-.04,149.57-.04,224.36,0,1.15.01,2.3-.52,3.37-.89,6.28-4.65,10.52-9.81,13.75Z" style="fill: #c47829; stroke-width: 0px;"/>
  <path d="M767.2,476.79c.04,3.61-1.04,7.32.9,10.77-4.35,3.33-5.2,7.75-5.43,13.12-2.65,61.56-.57,123.15-1.13,184.72-.09,9.46-.24,18.76-4.16,27.56-1.52,2.02-3.64,3.78-3.02,6.76-2.38-2.18-5.13-1.23-7.8-.93-2.41-.1-4.82-.19-7.23-.29,3.69-5.02,11.1-4.15,14.77-10.24,2.36-3.93,4.27-7.84,4.31-11.86.33-36.8.25-73.6.28-110.41.02-19.98-.05-39.97.04-59.95.07-15.33,1.93-30.51,4.1-45.66.39-2.75.53-5.62,4.08-6.3.1.91.2,1.82.3,2.73Z" style="fill: #eca85f; stroke-width: 0px;"/>
  <path d="M686.98,655.08c-.02-73.07-.04-146.13-.06-219.2,0-5.26.34-10.55-1.42-15.65,2.96,1.33,2.66,4,2.66,6.52,0,74.38,0,148.75,0,223.13,0,1.81.33,3.73-1.18,5.21Z" style="fill: #f3a641; stroke-width: 0px;"/>
  <path d="M663.65,730.38c16.38-.27,32.54-1.95,48.67-3.6,7.09-.72,14.13-1.35,21.25-1.24,12.49.2,18.2,5.84,18.21,18.11.02,24.62.82,49.27-.28,73.84-.75,16.76-.7,33.49-1.14,50.23-.26,9.92-4.99,15.15-13.14,15.33-8.52.18-13.15-5.25-14.59-14.75-1.88-12.38-.54-24.77-1.28-37.12-1.69-28-1.17-56.02-1.36-84.04-.06-9.2-6.79-14.8-18.76-14.56-12.63.25-25.03-2.47-37.56-2.19Z" style="fill: #fecd6a; stroke-width: 0px;"/>
  <path d="M750.39,901c-5.24,13.4-17.12,16.7-29.35,17.72-12.95,1.08-26.07.24-39.11.27-4.36.01-8.52,1.39-12.94,1.47-23.69.44-47.32-1.28-70.97-1.87-21.4-.53-43.57-1.64-62.3-13.94-17.62-11.57-37.03-20.33-53.26-34.03-5.38-4.55-8.78-10.86-14.42-15.41-6.26-5.05-13.56-7.66-20.3-11.53-1-.57-2.23-.98-3.17.05-1,1.08.04,2.1.37,3.14,2.02,6.46,7.92,10.57,10.04,17.08,1.23,3.76-.38,3.92-3.07,3.9-3.49.51-4.66-2.5-6.38-4.43-23.33-26.18-52.41-39.65-87.56-39.25-12.64.15-24.99,2.9-37.16,6.27-19.95,6.85-36.65,18.32-49.81,34.88-4.25,2.8-5.98,7.75-9.55,11.13,5.29-24.05,17.32-42.59,41.76-50.92,17.3-5.9,34.99-13.5,53.26-9.76,27.2,5.57,55.43.02,82.19,9.87,18.85,6.94,33.9,18.18,45.68,33.87,7.56,10.07,16.6,17.28,28.46,21.65,15.28,5.62,29.53,13.69,44.74,19.63,15.59,6.09,31.78,8.56,48.21,9.81,33.73,2.57,67.54.97,101.31,1.59,8.18.15,16.23,2.15,24.49-.36,7.22-2.2,13.37-5.83,18.85-10.83Z" style="fill: #d09038; stroke-width: 0px;"/>
  <path d="M282.1,928.52c2.19-9.79,4.61-19.49,4.37-29.72-.08-3.44,1.74-7,4.2-9.97,12.27-14.87,27.76-24.56,46.58-28.5,21.9-4.57,42.1.19,60.64,12.42,1.95,1.29,3.29,2.73,1.57,5.67-1.85,3.18-6.57,6.8-4.34,9.93,3.57,5.01,7.6,10.39,14,12.65-1.92,4.81-.46,9.02,1.58,13.54,2.24,4.96,5.65,10.49-.22,15.57-.64,1.13-1.7,1.28-2.85,1.22-8.96-.49-11.97-7.57-15.1-15.01-3.36,4.06,1.85,7.86-1.35,10.91-2.25-3.38-4.29-6.92-6.8-10.1-8.89-11.28-20.93-14.63-34.7-13.37-5.13-5.76-11.21-5.78-19.2-.04-2.23,1.26-3.97-.28-5.78-1.09-2.53-1.14-4.93-.76-7.36.2-2.58,1.02-4.68,2.47-3.4,5.65,1.31,3.26,3.99,3.71,6.84,2.3,3.52-1.74,6.03-4.96,9.44-6.91,4.83,3.85,10.35-.71,15.33,1.28-4.08,8.94-12.36,12.14-20.76,15.17-1.53-1.47-3.07-2.83-5.03-.58-2.08,2.99-3.18,6.65-6.43,8.81-6.18,4.11-11.38,1.74-12.1-5.6-.39-4.03,1.05-7.67,2.56-11.27.99-2.35,2.14-4.73.11-7.07-1.2-1.39-2.62-2.94-4.56-2.65-2.11.31-1.42,2.53-1.82,3.96-2.24,8.03-1.81,16.95-7.88,23.73-2.7.92-5.31,1.22-7.54-1.1Z" style="fill: #2e2e2e; stroke-width: 0px;"/>
  <path d="M320.8,830.44c10.99-6.59,23.43-7.69,35.62-7.97,38.43-.88,69.85,13.92,93.85,44.14.41.52,1.08.83,1.63,1.24,3.66,6,7.31,12,10.97,18,4.38,10.75,9.72,21.18,10.99,32.97-7.22-3.34-9.28-1.82-9.43,7.63-.19,11.52-1.6,22.8-5.32,33.75-1.32,3.88-2.84,9.59-6.75,9.04-3.72-.53-1.78-6.37-1.68-9.75.62-21.26-.81-41.97-9.23-62.06-10.62-25.34-29.13-41.77-54.07-51.73-10.68-4.26-21.92-6.45-33.24-8.35-3.11-.52-6.94-1.1-8.94-3.12-5.26-5.34-10.83-6-17.54-3.85-2.08.67-4.57.08-6.87.07Z" style="fill: #6a6663; stroke-width: 0px;"/>
  <path d="M389.77,963.15c-4.79,2.78-10.51,4.75-9.76,12.07.25,2.39-1.35,3.23-3.47,3.21-4.49-.04-4.99,3.49-5.58,6.56-.39,2.07,1.45,3.54,3.19,3.96,3.5.84,5.83-1.22,6.81-4.31,1.51-4.78,3.51-3.51,6.36-1.19,6.58,5.36,8.8,13.26,12.29,20.41,1.23,2.52-.7,3.48-2.7,3.42-8.2-.25-15.01,3.81-22.07,6.97-4.73,2.12-7.41,2-7.22-4.21.31-9.94-3.23-19.34-4.51-29.07-.34-2.6-.75-4.81,2.14-5.5,9.25-2.22,14.98-9.4,21.81-15.05,2.22-.41,3.08.54,2.72,2.72Z" style="fill: #181818; stroke-width: 0px;"/>
  <path d="M290.39,928.49c1.76-8.7,4.98-17.06,5.71-26.01.16-2,1.24-4.48,4.05-2.66,3.32,2.15,9.04,2.8,6.85,9.09-1.21,3.46-3.08,6.72-3.98,10.25-.93,3.67-.75,8.4,2.9,9.79,3.67,1.4,7.3-1.34,9.46-4.98,1.28-2.15,2.6-4.27,3.9-6.41,2.54-.69,3.61.82,4.33,2.87-5.98,13.4-7.57,26.67,1.05,39.68,5.01,7.56,11.94,12.54,20.55,15.22,1.95.61,4.72.8,3.9,3.6-.81,2.78-3.38,2.28-5.8,1.77-8.11-1.72-10.87-9.99-17.06-13.74-5.91-3.58-9.22-8.23-11.24-14.56-1.42-4.43.04-8.6.35-12.8.38-5.1-1.77-7.01-6.22-7.76-5.4-.91-10.76-1.98-16.15-2.98-.97.61-1.83.47-2.59-.38Z" style="fill: #0f0f0f; stroke-width: 0px;"/>
  <path d="M346.61,998.28c-.84,4.04-1.7,8.97-2.97,13.8-.56,2.15-2.16,5.14-4.74,2.71-6.18-5.83-14.39-8.94-20.05-15.4-1.6-1.82-3.17-3.54-1.25-5.95,2.67-3.35,3.88-7.86,7.93-10.04.38-.21,1.61.73,2.18,1.37,3.58,4.02,8.45,5.11,13.39,6.27,3.19.75,6.27,2.04,5.51,7.24Z" style="fill: #0f0f0f; stroke-width: 0px;"/>
  <path d="M414.95,993.88c6.36-5.94,3.22-9.53-2.22-13.15-3.6-2.39-6.61-5.64-9.98-8.39-3.01-2.46-1.07-4.81.5-6.47,3.57-3.75,6.25-7.86,7.61-12.87,1.27-4.68,5.11-4.04,8.44-3.49,3.51.58,6.57,2.01,6.44,6.6-.21,6.99-3.6,13.21-4.64,20-.31,2.02-1.48,4.14-.65,6.03,2.55,5.8-.66,8.98-5.49,11.73Z" style="fill: #0c0c0c; stroke-width: 0px;"/>
  <path d="M410.48,930.12c3.59-7.16-.14-13.23-3.37-19.04-2.43-4.37-2.25-7.42,2.01-10.07q7.26-4.84,10.52,3.04c2.19,5.27,4.32,10.57,6.61,15.8.62,1.43,1.48,2.9,2.6,3.95,8.6,8.01,10.22,16.08,5.21,29.14,0-6.99-.14-13.16.05-19.33.12-3.86-1.36-5.47-5.24-5.08-6.12.61-12.25,1.07-18.38,1.6Z" style="fill: #0b0b0b; stroke-width: 0px;"/>
  <path d="M294.45,983.85c1.81-11.61-6.87-21.49-5.44-33.04.78-1.95,2-2.75,4-1.56,7.13-.99,12.04,1.02,12.53,9.17.05.87.69,1.69.95,2.56,1.11,3.64,6.67,6.11,4.21,10.28-1.84,3.12-5.86,4.95-8.91,7.35-1.07.84-2.15,1.66-3.22,2.49-.91,1.61-1.47,3.73-4.11,2.76Z" style="fill: #151515; stroke-width: 0px;"/>
  <path d="M293.01,949.25c-1.33.52-2.67,1.04-4,1.56-1.37.05-2.78-.1-4.11.18q-9.77,2.04-9.81-8.09c-.01-2.52.32-5.09-.03-7.56-.8-5.7,1.93-7.39,7.04-6.81,2.76-.01,5.53-.02,8.29-.03.86.13,1.73.25,2.59.38-.66,6.79-1.64,13.59.03,20.38Z" style="fill: #535353; stroke-width: 0px;"/>
  <path d="M389.77,963.15c-.52-1.3-1.42-2.21-2.72-2.72,5.73-10.53,7.27-21.57,4.13-33.2.25-2.68-1.09-4.88-2.2-7.13-1.17-2.35-.11-4.08,1.74-5.29,2.37-1.55,3.74.71,4.11,2.14,1.84,7.06,6.29,11.59,12.79,14.39-.88.03-1.77.05-2.65.08-3.25,2.73-8.32,3.34-9.69,8.27.24,2.75-1.04,5.8,2.95,7.48,2.27.95,1.06,3.59.25,5.5-.97,2.29-2.33,4.43-.79,7.1.96,1.67,2.52,3.73.05,5.41-1.9,1.29-3.91.88-5.73-.47-.73-.54-1.5-1.04-2.25-1.56Z" style="fill: #0d0d0d; stroke-width: 0px;"/>
  <path d="M294.45,983.85c1.37-.92,2.74-1.84,4.11-2.76,3.43,4.87,7.02,9.62,11.5,13.6,2.91,2.58,2.53,4.81-.02,7.56-2.73,2.94-4.41,1.64-6.79-.44-3.44-3.01-6.55-6.26-9.72-9.52-3.76-3.87-2.8-5.99.93-8.43Z" style="fill: #535353; stroke-width: 0px;"/>
  <path d="M345.55,905.14c-1.71.42-3.74.38-5.07,1.33-4.67,3.35-7.61,1.43-10.09-2.73h0c.03-3.42.53-6.12,5.17-4.53,1.09.37,2.75-.16,3.88-.77,6.12-3.29,9.5-1.61,10.25,5.32-1.5.11-3.11-.13-4.14,1.39Z" style="fill: #101010; stroke-width: 0px;"/>
  <path d="M395.29,939.69c-1.53-8.33,4.93-7.31,9.69-8.27,1.14,7.87-5.05,7.16-9.69,8.27Z" style="fill: #2e2e2e; stroke-width: 0px;"/>
  <path d="M323.6,920.43c-1.44-.96-2.89-1.91-4.33-2.87,3.72-2.86,4.85-.52,5.51,2.75-.39.06-.79.1-1.18.12Z" style="fill: #101010; stroke-width: 0px;"/>
  <path d="M1025.44,823.93c2.36,3.88-.68,5.22-3.21,6.76-4.85,2.95-9.75,5.82-14.56,8.85-1.53.96-3.18,2.31-2.69,4.38.57,2.44,2.86,1.73,4.57,1.81,2.5.11,5.01.07,7.52.09-8.75,7.34-17.5,14.68-26.25,22.02-10.52,1.57-21.45,1.05-30.7,8.19-3.37,2.6-8.88,1.85-12.08,5.61,5.42-12.63,14.41-22.49,24.47-31.51,12.21-10.96,26.72-17.87,41.86-23.65,3.69-.84,7.38-1.69,11.07-2.53Z" style="fill: #4a4949; stroke-width: 0px;"/>
  <path d="M1039.23,822.3c-2.03,2.14-4.63,1.15-7.03,1.26,2.04-2.12,4.65-1.06,7.03-1.26Z" style="fill: #a04041; stroke-width: 0px;"/>
  <path d="M1084.77,860.93c6.76,2.6,13.38,5.48,19.34,9.68,26.96,19.81,37.97,47.39,34.48,79.56-2.39,22.01-12.19,41.9-30.66,56.1-2.3,1.77-4.91,2.53-7.71,2.6-8.14.22-15.92,2.06-23.58,4.73-3.26,1.14-6.73,1.94-9.84-.67-2.09-1.89-1.19-4.89-2.63-7.02,10.51-2.26,20.92-5.07,31.7-5.76,8.49,3.11,13.77-1.29,18.07-7.83,1.25-1.9,2.79-4.09.37-6.12-2.26-1.89-4.66-1.4-6.91.37-4.42,3.47-7.41,8.05-10.13,12.86-5.69-.82-7.63-4.97-8.76-9.85,5.36-4.58,11.19-8.66,15.57-14.3,8.14,2.18,7.75,1.99,11.86-6.37,2.97-6.03,3.93-12.59,6.4-18.71.42-.19.89-.23,1.31-.37,2.96-1.05,7.33,3.91,9.11-2.28,2.14-7.45.17-15.17-4.82-17.99-5.47-4.32-7.47-10.7-9.91-16.81-.93-2.33-2.1-4.56-2.94-6.9-1.64-4.53-4.25-5.52-8.31-2.85-1.13.74-2.43,1.27-3.88.94-4.13-5.88-10.22-9.94-14.5-15.68.01-1.72,1-3.01,1.99-4.26,1.81-2.3,1.33-4.16-.95-5.8-5.38-3.85-11.78-4.82-17.98-6.34-.87-.21-1.98-.08-2.45.83-.78,1.51.24,2.63,1.24,3.55,2.85,2.64,5.87,5.06,8.12,8.32,2.42,3.52,3.35,7.12.78,10.82-2.6,3.73-5.86,6.97-10.88,4.62-5.61-2.62-5.07,3.98-8.18,5-4.3,1.05-8.55,1.35-12.71-.57-1.5-1.19-2.42-2.79-2.68-4.61-1.85-12.99-6.22-25.69-4.76-39.08.99-2.66,3.47-2.8,5.66-3.12,13.31-1.95,26.39-1.02,39.17,3.33Z" style="fill: #2b2c2c; stroke-width: 0px;"/>
  <path d="M1040.55,860.92c2.66,8.66,1.03,17.91,3.95,26.63,1.71,5.08,1.93,10.66,2.82,16.02-.79,1.9-2.57,2.5-4.25,3.24-19.63,8.67-26.83,22.22-22.86,43.05.89,6.8,5.79,11.07,10.03,15.71,1.67,1.82,3.84,3.2,4.67,5.7.53,2.24,1.56,4.44.6,6.81-4.16,1.8-5.62-.96-7-4.06-3.8-8.55-6.43-9.21-14.28-4.4-4.42,2.71-8.45,6.26-13.78,7.25-1.79,1.47-3.59,2.94-5.38,4.41-4.92.44-3.51-4.03-4.92-6.32-.31-.61-.54-1.25-.68-1.91-.69-6.8-3.86-12.95-5.18-19.59-.1-1.09.08-2.11.65-3.06,1.54-1.61,3.51-2.28,5.65-2.59,4.85-.54,7.88,1.63,9.38,6.21.57,1.75,1.31,3.44,2.4,4.96,1.48,2.06,3.32,3.34,5.86,1.95,2.18-1.19,2.7-3.29,1.58-5.34-2.4-4.41-1.79-7.72,1.55-11.75,2.46-2.97,2.52-7.8-2.03-10.03-4.4-2.16-4.15-4.86-2.16-8.34.46-.8.97-1.57,1.37-2.4,1.14-2.38,3.68-5.29-.13-6.99-3.59-1.59-5.26,1.56-6.5,4.43-.27.64-.36,1.33-.47,2.01q-1.54,9.53-11.32,8c-1.77-.11-3.5-.35-5.07-1.23-3.47-2.82-1.85-6.21-.89-9.39,2.54-8.43,5.82-16.72,3.91-25.82,1.34-2.75,2.72-5.48,5.52-7.09,2.07-.13,2.51,1.48,1.85,2.65-2.59,4.62.35,6.78,3.62,8.8,6.08,3.76,11.43,8.53,17.35,12.48,5.06,3.38,10.42,1.28,11.11-4.72.4-3.49,1.21-6.16,4-8.24.95-.71,1.61-1.77,1.05-2.99-.71-1.55-2.19-1.38-3.59-1.3q-11.39.68-15.74-9.17c-.29-2.9,1.26-4.98,3.48-6.28,8.2-4.81,14.76-11.61,21.96-17.65.68-.21,1.31-.09,1.88.35Z" style="fill: #0f0f0f; stroke-width: 0px;"/>
  <path d="M1040.55,860.92c-.44.02-.88.05-1.32.06-6.36,2.94-12.96,5.58-18.08,10.53-3.6,3.49-7.98,6.82-6.92,12.91,1,1.53,2.24,2.96,2.97,4.61,2,4.53,5.12,5.38,9.48,3.52,3.03-1.29,6.25-2.52,8.3,1.55,1.97,3.9-1.62,4.55-3.68,6.05-1.78,1.29-3.31,2.64-1.8,5.07,1.28,2.06-.1,3.24-1.26,4.76-4.08,5.38-7.95,7.05-13.85,1.78-5.77-5.16-12.52-9.21-18.84-13.76-3.09-2.22-6.26-4.37-1.52-8.14,1.07-.85.63-2.06-.45-2.89,12.7-16.62,28.97-27.81,49.88-30.8,14.02-2,28.12-1.79,41.32,4.73-13.44-2.67-26.9-4.45-40.55-1.43-1.33.3-2.75.15-3.67,1.43Z" style="fill: #3c3c3c; stroke-width: 0px;"/>
  <path d="M1033.65,971.44c-5.68-6.45-13.37-11.45-15.13-20.76,5.95,1.61,11.84,3.92,16.63,7.46,5.25,3.88,10.66,7.06,16.59,9.54,3.22,3.3,7.9,4.36,11.31,7.37,1.14,2.82,3.35,2.78,5.71,2.04,5.94-1.88,9.11,1.69,11.66,6.07,2.85,4.9-.86,7.74-3.91,10.48-3.92,3.53-8.57,6.16-12.53,9.66-5.69-4.72-19.19-2.08-20.69,4.05-.71.47-1.34.39-1.91-.25-2.28-4.09-.48-8.07.37-12.06.58-2.7.99-5.44,1.68-8.1,1.45-5.59.76-10.03-5.54-12.07-1.79-.58-2.98-2.11-4.24-3.44Z" style="fill: #282828; stroke-width: 0px;"/>
  <path d="M1066.81,1012.92c4.21.36,8.17-.56,12.15-1.89,4.34-1.44,9.08-3.99,13.2-3.33,15.22,2.45,23-8.31,29.14-17.93,9.7-15.19,17.16-31.82,16.16-51.05-1.05-20.13-7.51-37.82-19.57-53.91-4.07-5.43-10.01-8.7-13.77-14.21,12.22,5.97,20.54,16.03,26.73,27.56,15.24,28.38,15.44,57.37.03,85.63-8.46,15.51-20.95,26.81-39.74,29.38-6.48.89-12.65,3.75-19.34,4.32-3.75.32-5.08-1.12-4.99-4.57Z" style="fill: #3c3c3c; stroke-width: 0px;"/>
  <path d="M1000.44,976.88c5.78-3.98,11.51-8.02,17.34-11.91,3.3-2.2,12.7,2.83,12.34,7.3-.38,4.57,2.67,4.57,4.92,6.04,6.23,1.36,4.1,5.44,2.67,8.92-1.2,2.91-3.73,4.49-6.92,5.11-2.61.51-6.55-1.01-7.56,1.84-1.11,3.13,2.97,4.7,4.62,7.06,3.89,5.56,10.93,7.69,14.64,13.45-.48,1.76,1.79,4.56-1.92,5.09-5.41-7.35-14.06-10.05-21.35-14.65-4.85-3.06-9.09-5.55-4.8-11.97.76-1.13,1.58-2.62.31-3.78-4.69-4.25-7.92-10.2-14.29-12.53Z" style="fill: #282828; stroke-width: 0px;"/>
  <path d="M1063.98,1003.31c.98-5.72,6.58-6.54,10.15-9.48,6.97-5.75,7.25-8.78,1.79-14.14-2.9-2.85-5.31-1.23-8.11-.54-2.83.69-6.42,1.99-5.13-3.52,2.89-3.31,6.65-4.87,10.89-5.52,3.17.02,4.91,2.2,6.62,4.41,3.21,4.79,8.42,8.42,8.78,14.89,2.36,3.56,4.27,7.51,8.15,9.81.34.24.48.5.42.79-.07.3-.15.46-.25.46-10.85,2.92-21.62,6.37-33.1,5.43-.07-.86-.13-1.73-.2-2.59Z" style="fill: #0c0c0c; stroke-width: 0px;"/>
  <path d="M985.48,950.87c-.05.88-.1,1.76-.15,2.63.38,7.29,3.6,13.83,5.49,20.73h0c.69,3.65,1.85,7.24,1.37,11.04-.46.93-.91,1.85-1.37,2.78-.43.55-.59,1.37-1.48,1.43-.93-.81-1.47-1.9-1.17-3.06,3.32-12.78-3.74-21.94-11.15-30.67-5.34-6.29-6.27-23.24-.51-28.93,4.89-4.84,2.58-11.33,4.57-16.81,1.98-5.48,1.87-11.82,6.99-15.91,5.44,6.24,1.34,12.54.15,18.84-.98,5.18-5.14,9.81-2.75,15.59-7.39,3.85-9.95,10.57-7.86,18.91,1.27,5.07,5.95.77,7.88,3.44Z" style="fill: #3c3c3c; stroke-width: 0px;"/>
  <path d="M1040.57,1019.79c2.03-1.47,1.23-3.61,1.33-5.54-1.66-2.31-2.03-4.58.19-6.78.4-.04.81-.08,1.21-.11,0,.68.02,1.37.02,2.06,0,9.74,4.16,13.3,13.95,11.42,3.38-.65,6.59-1.59,10.08-.31-5.37,3.82-22.03,3.29-26.78-.74Z" style="fill: #3c3c3c; stroke-width: 0px;"/>
  <path d="M989.33,989.48c.49-.48.99-.96,1.48-1.43,5.26,5.63,10.52,11.26,17.02,18.22-9.24-4.01-13.51-10.81-18.5-16.79Z" style="fill: #282828; stroke-width: 0px;"/>
  <path d="M992.19,985.27c-2.76-3.39-.8-7.37-1.37-11.04,2.26,1.84.69,5.99,4.25,7.05-.18,1.89-1.16,3.2-2.88,3.99Z" style="fill: #282828; stroke-width: 0px;"/>
  <path d="M1074.74,540.5c8.63,2.54,14.91,8.01,20.01,15.31,13.96,20,14.4,44.08,20.33,66.49,4.68,17.68,6.96,35.86,10.61,53.75,2.97,14.56-1.71,23.47-14.72,27.23,8.17-8.88,9.85-19.09,7.18-30.7-7.89-34.37-15.19-68.88-24.92-102.82-3.37-11.76-10.13-20.91-18.5-29.26Z" style="fill: #906969; stroke-width: 0px;"/>
  <path d="M345.55,878.44c.34,3.78-1.23,6.44-5.21,7.46-4.78,1.22-9.21,2.8-9.98,8.69-.21,1.62-1.55,2.65-2.95,1.91-4.07-2.14-5.82-6.29-7.67-10.15-1.45-3.02.4-5.43,2.73-7.03,4.69-3.22,9.41-6.46,14.44-9.06,5.24-2.71,8.66.64,8.64,8.19Z" style="fill: #101010; stroke-width: 0px;"/>
  <path d="M330.39,903.74c-1.47,5.09-6.09,7.27-10.05,9.29-3.08,1.57-6.78.87-8.41-4.08-1.56-4.73.82-5.86,4.06-7.68,5.66-3.18,9.9-.05,14.4,2.48,0,0,0,0,0,0Z" style="fill: #434343; stroke-width: 0px;"/>
  <path d="M308.88,920.68c-.2-3.26.96-4.15,2.43-4.96,1.4,2.44-.46,3.13-2.43,4.96Z" style="fill: #434343; stroke-width: 0px;"/>
  <path d="M1051.6,968.72c-6.36-1.41-11.79-4.23-16.65-8.8-4.59-4.32-12.12-4-16.42-9.23-6.45-22.59,9.17-43.48,28.81-47.11,4.72-.03,9.44-.05,14.16-.07,8.03-.84,13.51,4.17,19.35,8.39.51.45.98.94,1.44,1.45,5.06,5.98,8.47,12.74,9.68,20.55.79,7.17.19,14.16-2.64,20.88-1.17,2.78-2.37,5.48-5.38,6.79-5.98.86-11.25,3.61-16.66,6.11-5,2.32-10.21,4.44-15.68,1.05Z" style="fill: #494949; stroke-width: 0px;"/>
  <path d="M1088.96,989.4c-3.23-4.6-6.47-9.2-9.7-13.8-1.78-3.22.66-5.23,2.36-7.16,8.13-9.2,13.13-19.69,13.97-32.05.23-3.38,2.25-5.4,5.43-6.28,2.2-.61,4.5-.83,6.65-1.67,6.62-1.38,13.25-3.63,19.83.12,6.55.35,8.97,4.3,8.2,13.38-.02.23-.08.45-.11.68q-1.57,11.19-13.58,8.17c-.51.46-1.13,1.01-1.76.93-6.31-.82-12.04-1.49-13.42,7.47-.85,5.51-6.31,10.24-2.8,16.57-2.8,7.01-8.08,11.28-15.08,13.65Z" style="fill: #3c3c3c; stroke-width: 0px;"/>
  <path d="M1089.01,888.62c5.74,3.99,12.11,7.41,13.72,15.14-.04.34-.07.68-.1,1.02-1.41,2.35-1.3,4.69-.09,7.11,1.11,2.25,1.95,4.62,2.84,6.96,1.31,3.43,3.14,7.31.09,10.26-3.05,2.96-7.13,2.21-10.82.38-.73-.54-1.49-1.17-1.71-2.03-1.75-6.8-6.2-11.18-12.38-14.06l.09.09c-4.53-4.8-4.61-9.54-.08-14.46,3.02-3.29,3.75-8.46,8.44-10.42Z" style="fill: #3c3c3c; stroke-width: 0px;"/>
  <path d="M1089.01,888.62c-2.06,3.5-3.56,7.55-6.32,10.37-4.52,4.61-4.92,9.17-2.04,14.51-5.7-4.65-12.22-7.74-19.16-10-.83-5.62.82-8.44,6.63-5.2,4.95,2.76,7.27-.79,9.71-3.67,2.41-2.84,1.61-5.7-.43-8.76-2.62-3.93-6.62-6.27-9.73-9.58-1.26-1.34-2.91-2.76-1.58-4.73,1.04-1.54,2.98-2.71,4.8-2.01,6.18,2.38,12.96,2.83,18.78,6.49,4.81,3.02,6.42,5.73,1.35,9.83-.85.69-1.34,1.83-1.99,2.76Z" style="fill: #0a0a0a; stroke-width: 0px;"/>
  <path d="M1104.04,975.76c-4.36-2.47-4.57-5.63-2.12-9.77,1.74-2.93,3.03-6.2,4.08-9.46,2.47-7.69,3.83-8.52,11.98-6.48,1.32.33,2.69.5,4.03.75,1.42,4.93-.38,9.35-2.21,13.74-1.04,2.5-2.4,4.86-3.43,7.36q-3.81,9.31-12.35,3.87Z" style="fill: #0c0c0c; stroke-width: 0px;"/>
  <path d="M1127.51,928.56c-6.92-.06-13.81.21-20.63,1.47.57-7.25-1.97-13.81-4.54-20.37-.79-2.01-1.02-4.02.41-5.89,0,0-.01-.01-.01-.01,10.05-6.95,10.31-7.06,14.99,3.93,3.02,7.09,6.03,14.15,9.78,20.87Z" style="fill: #090909; stroke-width: 0px;"/>
  <path d="M1097.28,1000.47c-.07-.42-.12-.83-.16-1.25.22-7.75,6.51-11.31,11.28-15.7,2.61-2.4,5.88,0,8.12,1.59,2.48,1.78,1.35,4.33-.15,6.71-1.99,3.16-4.5,5.8-7.16,8.34-3.88,3.7-7.81,5.55-11.93.31Z" style="fill: #3c3c3c; stroke-width: 0px;"/>
  <path d="M990.72,928.73c5.56,1.52,10.91,3.17,8.71-6.41-.45-1.95,1.57-4.73,2.95-6.79,2.03-3.03,5.42-2.83,8.02-1.4,2.73,1.51,2.98,4.42,1.24,7.21-1.09,1.75-2.11,3.55-3.24,5.27-1.93,2.92-1.73,4.55,2.1,5.76,4.41,1.4,5.99,11.9,1.95,13.88-4.22,2.07-3.49,4.19-1.78,6.96,2.56,4.16,3.05,7.72-2.2,10.08-5.78,2.59-7.43-2.31-9.03-5.69-1.93-4.08-2.07-9.35-8.68-8.28-3.27-6.86-3.23-13.72-.04-20.59Z" style="fill: #282828; stroke-width: 0px;"/>
  <path d="M1042.08,1007.48c-.06,2.26-.12,4.52-.19,6.78-8.77-3.95-15.01-10.95-21.04-18.03-2.24-2.62-1.33-5.3,2.84-5.39,2.3-.05,4.6,0,6.9-.05,3.57-.09,5.15-2.62,6.43-5.43,1.31-2.88,1.05-5.37-1.99-7.05-.46-2.29-.93-4.58-1.39-6.87,3.36,1.39,6.67,2.93,10.1,4.11,2.75.94,2.31,3.05,2.32,5.04.02,5.76-1.71,11.24-3,16.75-.8,3.39-1.31,6.69-.98,10.13Z" style="fill: #0a0a0a; stroke-width: 0px;"/>
  <path d="M990.72,928.73c.02,6.86.03,13.73.04,20.59-1.76.52-3.53,1.03-5.29,1.55-1.51.45-3.12.71-4.53,1.4-3.78,1.84-5.12.08-5.25-3.41-.12-3.44-.07-6.88-.06-10.33q.03-9.73,9.81-10.01c1.76.07,3.51.13,5.27.2Z" style="fill: #494949; stroke-width: 0px;"/>
  <path d="M1014.23,884.43c-2.21-2.5-1.7-5.09.02-7.48,6.21-8.59,13.89-14.97,24.98-15.97-5.45,7.2-12.39,12.7-19.98,17.44-2.37,1.48-4.76,2.82-5.02,6.01Z" style="fill: #2b2c2c; stroke-width: 0px;"/>
  <path d="M990.82,974.23c-3.71-6.41-7.5-12.8-5.49-20.73,2.77,6.66,5.74,13.27,5.49,20.73Z" style="fill: #282828; stroke-width: 0px;"/>
  <path d="M1051.6,968.72c7.12.72,13.48-1.49,19.55-4.94,3.8-2.16,7.69-4.08,12.29-3.32,0,5.6-2.76,8.65-9.77,10.83-3.67,1.44-7.33,2.88-11,4.33-3.91-1.95-8.86-2.23-11.07-6.9Z" style="fill: #3c3c3c; stroke-width: 0px;"/>
  <path d="M1062.32,981.2c2.59.09,6.02-.05,7.71,3.39.57,1.17-8.7,6.59-10.83,6.06-3.09-.78-6.47-1.75-6.99-5.58-.27-2.04,4.46-3.84,10.11-3.87Z" style="fill: #494949; stroke-width: 0px;"/>
  <path d="M1073.67,971.29c3.64-3.27,8.44-5.49,9.77-10.83,7.55-7.94,6.93-17.92,6.93-27.74,1.43-1.36,3-2.56,4.19-4.16,1.34.25,2.7.47,4.03.76,5.86,1.28,8.27-1.32,6.32-7.12-1.17-3.46-2.5-6.94-4.31-10.09-2.16-3.75-1.89-6.41,2.15-8.34-.24,2.15.66,3.99,1.52,5.88,2.96,6.52,5.14,13.15,2.61,20.38-7.7,1.14-9.44,5.43-10.3,13.19-1.13,10.26-6.68,19.65-14.28,27.26-1.44,1.44-3.08,2.78-3.03,5.11-1.88-1.42-2.55-4.39-5.59-4.31Z" style="fill: #282828; stroke-width: 0px;"/>
  <path d="M1094.56,928.56c1.48,4.28-1.37,4.21-4.19,4.16-1.85-7.16-5.21-13.55-9.81-19.31,9.29.77,12.34,7.31,14,15.14Z" style="fill: #0a0a0a; stroke-width: 0px;"/>
</svg>