<?xml version="1.0" encoding="UTF-8"?>
<svg id="Layer_1" data-name="Layer 1" xmlns="http://www.w3.org/2000/svg" viewBox="0 0 1240.29 705.6">
  <path d="M116.58,468.98c-5.23-8.36-4.32-17.9-4.37-26.95-.37-66.9-.34-133.8-.43-200.7,5.74-1.76,11.36-2.76,16,2.51-6.71,10.92-3.15,22.1-.37,33.03,1.98,7.75,5.92,14.88,9.09,22.24,3.24,7.5,8.89,11.58,17,13.04,22.43,4.02,45.12,5.93,67.67,8.91,24.09,3.18,48.12,6.78,72.25,9.57,43.4,5.02,86.43,12.75,129.93,17.05,37.03,3.67,74.32,3.8,111.23,8.92.77.11,1.55.1,2.32.14,16.7.73,20.1-2.8,18.33-19.74-.94-9-2.29-17.95-3.41-26.93-1.28-10.24-5.67-19.39-12.23-27.28-5.25-6.31-9.29-12.99-10.11-21.3-.27-.79-.39-1.62-.39-2.45.13-1.66,1.41-2.85,1.81-4.4,2.15-7.13,6.73-11.5,14.25-12.43,5.81-.72,7.61-4.21,7.55-9.7-.09-8.77-3.58-16.22-9.05-22.53-8.54-9.85-15.66-19.74-12.23-33.97,1.33-5.54-4.48-7.72-7.5-10.93-6.4-6.82-7.61-11.63-4.02-20.07.41-.95.69-2.28,1.49-2.67,8.29-4.13,13.12-13,22-16.13,2.54-.9,4.04-2.05,4.63-4.5,1.46-6.08,5.89-8.31,11.51-8.39,4.88-.07,8.24-1.87,10.81-6.09,3-4.92,6.37-9.79,13.54-7.72.73.21,1.66-.03,2.22-.52,8.75-7.58,19.04-11.08,30.45-11.74.75-.04,1.66-.33,2.13-.86,7.33-8.31,17.49-8.78,27.39-9.98,4-.49,7.18-2.34,10.1-5.2,4.65-4.56,10.27-6.86,16.98-5.48,2.58.53,5.22.65,7.56-.75,15.77-9.43,31.67-18.66,38.96-37.12,2.37-5.99,5.66-11.61,9.19-17.06,2.24-3.45,5-5.9,9.25-6.26,24.55,8.45,49.12,16.87,73.65,25.37,9.96,3.45,19.85,7.1,29.78,10.65,2.68.96,5.39,1.85,6.77,4.68-3.73,3.05-7.38.94-10.99-.25-28.52-9.4-56.87-19.33-85.18-29.34-14.98-5.29-18.63-2.39-19.51,13.79-2.3,42.42-.66,84.89-1.99,127.3-1.98,63.12.08,126.25-1.71,189.33-.92,32.34-.38,64.66-1.06,96.98-.13,6.24-1.09,12.39-2.03,18.51-1.89,12.29-7.16,17.13-19.62,17.83-10.6.59-21.23,0-31.84.23-33.65.73-67.28-1.16-100.88-2.13-25.62-.74-51.29.31-76.81-1.41-23.28-1.57-46.59.15-69.76-1.6-25.35-1.91-50.72.06-75.99-1.53-23.01-1.45-46.07-.08-68.99-1.69-20.7-1.45-41.39-.1-62.02-1.38-24.3-1.5-48.6-1-72.89-1.59-9.24-.23-18.44-2.75-27.67.04-.96.1-1.9.32-2.8.67Z" style="fill: #3b94d4; stroke-width: 0px;"/>
  <path d="M1211.62,407.49c8.76,16.19,15.6,33.17,20.88,50.79-6.27,3.95-13.69,4.11-20.56,6.04-8.07,2.26-15.93,4.47-21.15,11.8-1.31,1.84-3.26,3.77-5.89,2.21-2.71-1.6-2.49-4.32-1.76-6.91,1.59-5.66,5.23-9.99,9.26-14.08,1.97-2,4.77-3.09,6.77-6.66-13.47-.62-20.62-10.85-29.73-18.08-1.72-11.55-4.67-22.64-12.08-32.07-4.97-6.32-10.47-11.84-19.83-13.99,5.19,13.43,12.25,24.72,19.03,36.19,1.58,2.68,5.6,5.64.93,9.19-4.73,1.53-9.22.26-13.66-1.22-7.66-2.56-15.64-3.32-23.56-4.53-5.22-.79-8.4,1.29-10.46,5.85-1.84,4.08-2.74,8.26-2.45,12.79,2.19,34.08,1.77,68.12-1.55,102.12-.83,8.47-.58,17-2.18,25.45-4.51,23.81-15.69,34.12-39.64,36-20.16,1.58-40.2-.45-60.23-2.28-8.74-.79-17.5-1.31-26.23-2.27-9.59-1.05-18.44,1.21-26.42,6.84-4.44,3.13-9.17,5.01-14.23,1.06-3.9-7.95-5.67-16.62-8.28-25.01-.12-6.74-1.51-13.36-2.46-19.98-1.33-9.31-6.61-16.01-15.48-19.86-14.02-6.09-28.97-8.02-43.89-9.2-20.39-1.62-40.79-1.51-61.02,2.92-14.23,3.12-21.96,11.63-24.46,25.59-1.23,6.87-2.26,13.78-3.87,20.59-3.06,12.98-11.09,19.59-24.57,18.53-29.38-2.31-58.83-3.38-88.2-5.7-26.02-2.05-52.1-3.43-78.14-5.28-27.58-1.96-55.18-3.74-82.78-5.55-19.34-1.27-38.68-2.64-58.03-3.73-21.93-1.23-43.85-3.06-65.77-3.87-19.54-.72-39.17-4.69-58.75-.14-2.02.47-4.1.56-6.15.02-2.4-.8-3.88-2.61-4.29-4.94-1.35-7.63-5.58-14.17-7.93-21.41-2.63-17.5-8.9-24.43-26.12-28.16-25.77-5.58-51.71-6.5-77.78-2.3-11.48,1.85-18.38,8.62-21.51,19.67-1.83,6.47-3.56,12.97-5.75,19.34-2.69,7.84-7.85,12.65-16.18,13.7-12.47,1.58-24.8,5.17-37.56,2.75-3.06-3.54-3.22-7.82-3.06-12.17-1.04-1.95-1.21-4.35-.48-6.05,4.63-10.78,5.57-22.61,9.75-33.46,3.39-8.81,10.87-13.52,20.36-12.09,9.22,1.39,17.41-.52,25.52-4.39,4.95-2.36,10.21-3.93,15.71-3.97,39.58-.29,79.35-2.12,118.5,4.63,31.59,5.45,63.36,5.47,95.05,5.76,49.91.46,99.8,1.63,149.7,2.28,31.47.41,63.07-.12,94.51,3.64,14.58,1.74,29.47.55,44.22.66,17.61.14,35.15.56,51.54,8.62,5.92,2.91,10.29.85,13.63-4.92,2.37-4.1,3.33-8.7,4.09-13.29,2.13-12.77,2.98-25.66,3.62-38.59,1.6-32.27,2.06-64.61,6.17-96.72.33-2.57.75-5.12,1.36-7.64,2.87-11.72,6.92-15.16,18.93-15.24,53.56-.37,107.09-2.01,160.67-1.82,30.74.11,61.5-1.57,92.27-1.4,14.3.08,19.84-5.92,18.59-20.22-1.32-15.03-5.23-29.6-9.96-43.84-15.34-46.18-31.95-91.92-48.59-137.65-4.16-11.43-8.71-22.72-12.09-34.43-1.74-6.03-2.76-12.15-1.62-18.4,1.57-8.57,7.59-12.54,15.88-9.94,7.83,2.46,15.99,4.2,23.03,8.76-1.06,5.11-4.61,2.63-7.13,2.07-4.78-1.06-9.25-3.36-14.13-4.1-8.4-1.26-11.72,2.01-10.64,10.33.5,3.88,1.86,7.52,3.13,11.18,20.61,59.32,42.94,117.99,67.58,175.76,1.89,4.43,3.38,9.34,8.26,11.78,1.26.98,2.22,2.27,2.64,3.73,3.01,10.44,9.97,13.54,20.45,12.7,10.72-.86,21.56-.17,32.34-.2,3.34,0,6.73.08,9.47-2.34,5.87-2.32,4.14-8.46,6.34-12.62,3.48,5.96,6.82,12.01,10.48,17.87,11.42,18.3,27.66,33.06,38.35,51.93,3.03,5.35,7.12,10.09,9.38,15.91-3.45,1.35-5.15-1.46-7.21-3.17-3-2.49-6.13-4.63-11.2-6.05,7.3,16.31,15.76,30.82,26.04,44.91,2.55-4.94,1.16-9.11.44-13.36-.39-2.35-2.49-5.5,1.81-6.71Z" style="fill: #3c95d4; stroke-width: 0px;"/>
  <path d="M738.12,4.52c-5.9,3.67-9.5,9.28-12.25,15.36-4.06,8.98-9.47,17.16-14.46,25.59-2.99,5.06-7.9,8.09-12.88,10.85-5.18,2.87-10.61,5.17-14.93,9.53-2.63,2.65-6.46,3.67-10.1,2.1-5.66-2.45-11.14-.54-14.28,3.12-7.04,8.18-15.69,9.14-25.23,8.3-3.95-.35-6.3,2.01-8.46,4.58-3.19,3.79-7.28,6.25-12.02,6.16-10.15-.19-18.44,3.25-25.25,10.68-.79.87-2.61,1.96-3.26,1.62-10.1-5.23-11.55,4.09-14.67,9.2-2.37,3.89-5.31,3.5-8.55,3.49-6.45-.02-11.94.69-12.15,9.23-.07,2.73-1.67,5.53-5.77,4.09-5.11-1.79-7.3,1.25-7.75,5.7-.46,4.63-2.03,6.9-6.94,4.86-2.57-1.07-3.6.8-4.94,2.48-6.96,8.71-5.46,17.94,5.31,26.17,4.58,3.5,6.04,6.61,3.19,11.65-3.28,5.8,5.63,23.33,10.85,28.05,9.26,8.38,12.26,19.22,10.82,31.28-.52,4.38-4.61,5.1-8.3,5.47-7.59.76-12.41,4.39-13.19,12.36-15.49-2.07-30.56-6.2-45.78-9.59-1.24-.28-2.22-1.25-3.04-2.27-6.18-11.82-11.91-23.76-15.67-36.7-3.47-11.91-2.94-13.54,9.73-15.52,9.42-1.48,12.58-5.37,12.22-14.45-.21-5.48-2.86-8.59-8.06-9.84-6.38-1.53-12.82-1.42-19.25-.56-10.86,1.44-19.27-3.09-22.87-13.62-3.01-8.78-5.57-17.71-8.81-26.43-2.28-6.14-.71-8.3,5.79-9.83,2.26-.53,4.57-.89,6.81-1.51,8.01-2.22,10.42-6.11,8.91-14.37-1.03-5.67-5.58-7.94-13.39-6.87-5.03.69-9.22,3.12-13.35,5.85-3.2,2.12-6.45,4.68-10.62,1.98-1.04-.78-2.03-1.61-3.09-2.39-2.73-1.56-5.67-2.52-8.73-3.09-44-8.12-87.76-17.54-132.05-24.06-6.96-1.02-13.97-1.26-20.9-.39-16.46,2.08-33.04.96-49.54,2.55-17.98,1.74-36.17,1.06-54.14,3.12-9.15,1.05-17.93-2.15-26.98-1.43-1.28.1-2.59-.07-3.74.69-.88,0-1.77-.01-2.65-.02-1.84-2.12-1.15-4.4-.43-6.68,1.58-2.72,2.36-5.57,2.58-8.79.69-10.06,4.51-13.84,14.58-16.13,11.47-2.6,23.21-2.31,34.75-2.75,29.97-1.14,59.81-4.14,89.76-5.43,24.51-1.06,48.94-3.95,73.45-5.31,18.06-1.01,36.07-2.76,54.13-3.77,19.87-1.12,39.68-2.95,59.55-4.07,19.61-1.11,39.21-2.27,58.8-3.69,22.42-1.62,44.87-2.88,67.3-4.13,20.64-1.15,41.25-2.8,61.9-3.75,20.9-.96,41.78-2.36,62.64-4.09,4.14-.34,8.26-.54,12.4-.46,7.83.14,15.47-.28,22.52-4.45,2.08-1.23,4.7-2.28,7.37-1.02,1.03.45,2.06.9,3.09,1.35Z" style="fill: #3b94d4; stroke-width: 0px;"/>
  <path d="M1025.43,99.6c-7.65-5.1-16.49-7.2-25.21-9.11-7.33-1.61-11.44,2.58-12.09,10.32-.92,10.97,3.22,20.87,6.84,30.74,15.09,41.18,30.14,82.37,44.45,123.84,7.15,20.73,14.73,41.29,19.21,62.82,1.47,7.05,3.1,14.11,2.51,21.39-.87,10.83-6.68,16.29-17.54,16.35-15.53.07-31.09-.56-46.59.13-50.01,2.2-100.05.42-150.04,1.84-18.83.54-37.68,1.23-56.5.99-19.37-.24-19.07,4.86-21.05,18.83-3.49,24.7-4,49.73-5.34,74.66-1.22,22.79-.35,45.86-5.9,68.31-1.11,4.5-2.11,9.08-5.6,12.55-4.04,4.03-8.37,5.94-13.83,2.57-12.13-7.48-25.96-8.18-39.5-8.77-17.52-.77-35.3,1.44-52.61-.59-23.64-2.77-47.32-2.11-70.95-3.38-7.03-.38-14.2-.72-21.31-.91-27.11-.73-54.24,1.49-81.36-1.31-7.49-.77-15.19.31-22.88.03-26.19-.95-52.43-.98-78.63-1.31-25-.32-49.53-2.5-74.15-6.33-15.2-2.37-30.74-2.83-46.16-3.35-16.03-.54-32.11.35-48.13-.26-14.74-.56-28.76,1.02-41.98,8.04-4.78,2.54-10.03,1.73-15.15.61-7.68-1.68-15.64.78-18.26,7.82-5.03,13.54-8.65,27.6-12.85,41.44-2.54-21.9-2.32-43.79.6-65.63.45-3.41,2.39-7.4,5.45-8.03,9.87-2.03,8.44-9.08,8.19-15.88-.05-1.29-.02-2.59-.03-3.88.73.13,1.85-.1,1.99.79,1.31,7.97,6.99,7.32,13.17,7.69,40.77,2.43,81.66,1.28,122.42,4.22,16.49,1.19,33.08,1.08,49.59,1.41,26.11.52,52.23,1.39,78.3,2.33,38.21,1.38,76.48,1.57,114.66,4.05,16.5,1.07,33.08,1.05,49.6,1.38,24.81.49,49.63,1.43,74.41,2.35,21.41.79,42.91.41,64.28,2.78,7.91.88,14.68,4.92,22.28,6.37,8.49.71,16.95,3.27,25.51.65,6.37-5.35,5.19-13.27,6.88-20.21,1.07-3.09.78-6.41,1.53-9.55,1.21-3.71.75-7.53.8-11.32-.04-5.42.11-10.83-.13-16.24-.11-4.19-.11-8.38.63-12.53,2.05-7.8.65-15.75,1.02-23.62-.02-8.61.14-17.21-.11-25.82-.06-6.66-.44-13.34.56-19.97,1.98-6.33.86-12.84,1.12-19.27,0-6.05.1-12.1-.08-18.16-.18-3.74-.05-7.46.6-11.16,1.94-7.21.82-14.55.91-21.84,0-5.54-.32-11.09.6-16.59,1.7-5.27,1.05-10.69.97-16.07.02-4.96-.26-9.94.61-14.87,1.27-3.83,1.2-7.78.96-11.75.04-4.45-.2-8.92.63-13.34,1.45-4.31,1.06-8.76.91-13.19.13-3.23-.27-6.59,2.25-9.23,3.69,0,4.5,2.79,5.44,5.53,1.72,5.02,1.71,10.22,1.31,15.35-2.5,31.67-1,63.4-1.49,95.09-.07,4.47,1.02,8.7,1.78,13.01.53,2.97,2.08,5.27,5.28,6.01,1.8.61,3.43,1.58,5.03,2.58,3.89,1.82,8.06,1.63,12.18,1.63,78.27.02,156.53.02,234.8,0,1.55,0,3.1.01,4.65-.09,9.84-.64,13.21-4.42,12.79-14.41-.35-8.35-3.37-16.12-5.38-24.1-3.78-17.47-9.55-34.37-15.46-51.2-12.17-34.64-24.21-69.34-38.83-103.06-2.78-6.41-5.79-12.7-8.73-19.02-.66-1.39-1.17-2.86-2.09-4.12-2.12-2.83-4.01-5.8-5.46-9.03-1.3-2.16-3.27-3.33-5.73-3.3-13.28.19-26.59-1.19-39.83.82-.87.25-1.75.38-2.65.46-10.48.74-21.05-.92-31.48,1.13-2.75.59-5.54.72-8.34.61-9.69.38-19.44-1.06-29.07,1-4.16.82-8.37.64-12.58.6-8.25.24-16.56-1.02-24.74.94-4.58.86-9.21.65-13.83.58-4.84-.15-9.7.15-14.52-.22-4.35-.33-8.7-.95-11.19-5.32-.23-6.16,4.21-9.64,7.9-13.48,1.03-1.07,2.36-.56,3.17.77,1.01,7.32,5.44,9.5,12.43,9.11,26.24-1.44,52.48-2.94,78.73-4.28,14.15-.72,28.33-1.31,42.48-1.73,14.91-.44,29.86-1.5,44.81-.52,6.8.45,10.34-3.43,12.17-9.59,1.76-5.94,4.42-11.17,11.85-11.22,13.54,3.65,26.62,8.61,39.65,13.73,2.36.93,4.95,1.39,6.68,3.5-4.01,3.01-7.69.65-11.43-.7-.28-.3-.55-.6-.82-.91Z" style="fill: #449fdb; stroke-width: 0px;"/>
  <path d="M937.07,610.69c4.66,2.23,8.78,1.58,12.83-1.74,10.51-8.62,22.72-8.36,35.35-6.75,12.22,1.56,24.52,3,36.82,3.43,18.17.63,36.46,2.9,54.49-1.33,13.22-3.11,22.99-16.24,24.97-33.12,4.61-39.29,5.53-78.75,4.46-118.23-.22-8.27-1.99-16.22,2.47-23.97,2.61-4.54,5.16-5.94,11.03-5.51,13.46.98,25.79,7.44,39.36,7.09,3.84.5,4.66,4.49,7.33,6.43,2.78-.5,1.61-4.27,4.11-4.92,3.51.28,5.24,3.2,7.32,5.33,7.05,7.22,15.41,11.53,26.28,11.99-2.41,5.32-7.47,6.32-10.49,9.58-4.1,4.41-7.61,9.01-9.18,14.9-.36,1.35-.07,2.66,1.03,3.48,1.37,1.02,2.53.04,3.23-1,10.68-15.79,28.4-14.37,44.03-18.05,2.9,1.74,4.2,4.74,4.81,7.68,3.86,18.74,5.16,37.45-3.55,55.33-2.38,4.89-2.73,9.91-2.99,15.01-.57,11.11-1.33,22.17-3.63,33.1-2.91,13.81-9.45,25.1-22.05,32.17-12.14,6.81-23.98,14.17-36.78,19.75-13.52-5.29-15.74-8.95-16.2-23.75-.7-22.68.45-44.96,9.78-66.19,1.73-3.94,4.85-11.01.32-12.56-5.31-1.81-6.5,5.82-8.21,10.01-3.64,8.95-4.57,18.56-5.13,28.12-1.1,18.94-7.32,36.11-19.24,50.66-12.52,15.29-30.24,19.99-49.19,20.84-19.71.89-39.19-2.1-58.74-3.89-16.22-1.48-32.37-3.54-48.57-5.19-7.2-.74-14.45-.39-21.56,1.54-4.49,1.22-9.11,2.17-13.62-.21-3.08-3.1-4-6.39-.89-10.03Z" style="fill: #2a77be; stroke-width: 0px;"/>
  <path d="M116.82,467.97c5.98-5.27,13.43-3.87,19.96-3,18.08,2.42,36.18.2,54.2,1.39,26.85,1.77,53.79.21,80.56,1.86,19.92,1.22,39.83-.29,59.62,1.33,27.65,2.27,55.36-.23,82.9,1.71,22.25,1.57,44.5-.37,66.6,1.44,26.88,2.21,53.8-.28,80.57,1.65,18.36,1.32,36.73-.19,54.95,1.43,29.2,2.6,58.4.69,87.58,1.29,14.45.3,18.87-4.91,20.43-19.17,2.32-21.17.76-42.35,1.41-63.5,2.1-67.75.48-135.54,1.88-203.28.94-45.44.54-90.87,1.4-136.3.19-10.27,1.06-20.57,1.55-30.87.59-12.36,6.08-16.24,17.54-12.38,30.8,10.38,61.46,21.19,92.12,31.96,2.73.96,5.32,1.91,8.24,1.68,7.57,6.49,5.99,15.87,7.41,24.21.81,4.76.42,9.72.57,14.59-4.67,3.57-10.42,2.84-15.63,3.32-17.6,1.62-34.93,3.83-50.58,12.9-6.89-1.1-13.45-3.62-20.38-4.6-9.79-1.38-18.38,1.05-25.86,7.58-2.33,2.03-5.16,3.43-7.51,5.48-2.66,2.73-2.22,6.17-2.37,9.52-.62,14.42-.05,28.84-.18,43.26-.13,14.11.43,28.27-1.2,42.37-.8,6.96,1.68,13.78,1.46,20.83-2.41,77.28-1.45,154.59-1.6,231.9,0,4.99-.94,9.8-2.15,14.53-1.93,7.56-7.37,11.72-14.81,13.1-15.14,2.8-30.4,1.79-45.64.88-2.83-.17-5.64-.84-8.49-.76-32.08.88-64.11-1.42-96.17-1.88-43.94-.63-87.87-2.06-131.8-3.28-17.83-.5-35.67-.51-53.49-1.16-43.15-1.58-86.33-2.02-129.47-3.47-18.87-.63-37.82.27-56.58-1.41-22.72-2.03-45.54.38-68.17-2.67-3.09-.42-6.17-.73-8.87-2.48Z" style="fill: #2a80d8; stroke-width: 0px;"/>
  <path d="M484.68,243.88c11.22,2.63,22.4,5.51,33.69,7.79,5.1,1.03,9.92,2.5,14.55,4.76-.4,1.64-1.82,1.47-3.02,1.69-4.13,2.42-7.36,5.11-7.7,10.66-.33,5.4-4.76,6.79-9.56,7.08-7.54.46-14.96-.96-22.44-1.27-12.65-.53-25.32-.93-37.97-1.4-27.38-1.01-54.8-1.61-82.11-3.66-25.27-1.89-50.37-5.7-75.58-8.37-26.22-2.78-52.44-5.67-78.62-8.75-28.16-3.31-56.4-5.95-84.51-9.63-9.7-1.27-19.38-2.5-29.13-3.3-4.46-6.17-3.66-8.58,3.35-9.31,2.36-.25,4.52-.79,6.63-1.77,5.2-3.78,11.54-1.94,17.21-3.45,1.98-.53,4.11-.49,6.17-.44,42.38,1.07,84.71-2.15,127.08-1.58,10.85.15,21.7.37,32.56.28,3.1-.02,6.21.06,9.19-1.03,16.88-1.13,33.79-.22,50.68-.53,6.15.05,12.31.04,18.46.02,24.06.03,46.86,7.61,70.22,11.87,6.61,1.2,13.17,2.72,19.74,4.14,2.77,1,5.7,1.22,8.56,1.8,4.24,1.26,9.01,1.04,12.54,4.37Z" style="fill: #e1e0e0; stroke-width: 0px;"/>
  <path d="M472.3,241.44c-2.65-.51-5.56.12-7.91-1.75-.42-6.16-4.13-9.16-9.84-10.17-16.53-2.93-32.9-6.49-49.89-6.52-18.33-.04-36.69-1.25-55.02-.57-24.72.92-49.44.47-74.15.79-1.03.26,0,1.7-.37.74-.1-.27.1-.48.6-.48,9.68-.13,19.39-1.46,29,.74-2.81.28-5.62.76-8.43.8-51,.77-101.99,1.46-152.99,2.26-10.34.16-20.68.75-31.02,1.15-.13-18.07-.26-36.14-.38-54.21,2.97-2.92,6.69-2.45,10.25-2,53.38,6.69,106.88,12.37,160.29,18.8,11.79,1.42,23.62,2.58,35.56,2.55,41.14-.11,82.28-.13,123.42,0,1.82,0,3.62.05,5.35-.57,8.65-6.08,9.53-5.39,14.4,4.18,5.77,11.35,7.85,23.78,11.87,35.62.98,2.88,1.86,5.97-.74,8.65Z" style="fill: #2774be; stroke-width: 0px;"/>
  <path d="M116.82,467.97c41.03,1.54,82.06,2.72,123.12,3.39,11.54.19,23.19.63,34.78,1.12,27.89,1.18,55.84.72,83.68,1.99,20.17.92,40.35-.29,60.4,1.34,21.45,1.74,42.95-.09,64.28,1.68,17.86,1.48,35.68.03,53.43,1.35,23.5,1.74,47.07.18,70.48,1.78,18.63,1.27,37.24-.11,55.74,1.42,13.69,1.13,27.33,1.01,41,1.36,5.01.13,9.79-1.03,14.49-2.14,7.91-1.86,11.93-10.2,11.96-23.68.09-36.5.06-73.01.07-109.51,0-22.48-.18-44.97.06-67.45.19-17.89,1.77-35.81,1.11-53.66-.54-14.59-.26-29.2-.68-43.79-.28-9.92.78-19.98.49-30.06-.39-13.32.27-26.66.46-39.99.05-3.48-.08-7.02,4.84-7.2-1.69,110.95-.21,221.9-.84,332.85-.06,10.84-1.51,21.65-1.83,32.51-.21,7.3-3.41,13.72-9.68,17.74-4.87,3.12-5.88,6.54-3.58,11.66,1.27,2.82,1.78,5.97.27,9.03-3.68.23-7.03-.23-10.23-2.57-3.38-2.48-7.77-3.35-11.75-3.37-10.85-.08-21.54-1.87-32.42-1.94-37.15-.25-74.26-2.47-111.42-3.27-31.7-.69-63.41-1.99-95.12-3.03-33-1.08-66-2.08-99.01-3.11-31.19-.98-62.39-1.98-93.57-3.12-35.59-1.31-71.16-2.69-106.77-3.12-8.69-.11-17.46-1.73-26.2-1.02-3.64.3-3.66-1.21-3.82-3.8-.15-2.45,1-5.26-1.52-7.23-4.37-1.19-9.46-.65-12.47-5.14.13-.33.2-.67.23-1.01Z" style="fill: #1b5aaf; stroke-width: 0px;"/>
  <path d="M29.59,161.75c-3.9-6.45-.1-7.73,5.3-7.75,12.94-.05,25.89-.28,38.82.03,11.09.26,22.06-1.03,33.09-1.57,2.42-.12,4.8-.03,5.13-3.28,1.84-1.66,4.11-2.27,6.46-2.18,12.16.49,24.17-1.67,36.32-1.81,39.46-.47,78.87-2.81,118.34-3.15,5.41-.05,10.73-1.64,16.18-1.36,28.57,1.33,56.21,8.55,84.1,13.99,20.06,3.91,40.3,7.04,60.08,12.32,2.16.48,4.4.49,6.55,1.08,1.48.32,2.93.74,4.34,1.26,2.86,1.05,6.59,2.25,6.16,5.63-.39,3.07-4.27,2.76-6.97,3.1-2.94.4-4.5,2.18-5.22,4.98-1.79,6.97-6.76,8.85-13.43,9.16-11.44.53-22.69-1.55-34.08-1.68-48.85-.57-97.62-2.06-146.3-7.18-41.12-4.32-82.31-8.19-123.53-11.67-29.01-2.45-57.94-5.83-86.93-8.62-1.51-.15-3.09-.4-4.42-1.29Z" style="fill: #dedede; stroke-width: 0px;"/>
  <path d="M116.38,77.72c2-1.64,4.42-1.15,6.7-1.25,39.7-1.73,79.48-2.49,119.09-5.49,26.27-1.99,51.25,3.07,76.54,7.98,28.05,5.45,56.18,10.44,84.26,15.76,4.2.8,8.73,1.22,11.79,4.91-6.05,1.88-10.85,4.56-12.04,11.89-.58,3.56-4.91,4.29-8.37,4.31-27.66.14-55.33.72-82.99-.29-11.36-.42-22.71-1.37-34.09-1.07-28.51.75-56.73-3.3-85.04-5.41-27.04-2.02-54.07-4.4-81.07-6.91-24.66-2.29-49.39-3.72-74.05-6.16-12.3-1.22-24.68-1.54-36.85-3.96-1.11-5.42,1.55-7.7,6.63-7.93,1.29-.06,2.59-.08,3.88-.03,27.66,1.03,55.25-1.52,82.87-2.03,11.55-.21,23.58.19,35.13-2.22-.02-.7-.03-1.4-.05-2.1h-12.34Z" style="fill: #dfdfdf; stroke-width: 0px;"/>
  <path d="M439.68,169.62c-2.12-.16-4.23-.31-6.35-.47-3.05-6.27-8.08-9.7-14.9-11.09-23.29-4.73-46.52-9.74-70.02-13.38-13.08-2.03-26.3-.2-39.44-1.48-6.07-.59-12.24-2.06-18.39-.25-59.51,3.16-119.1,4.26-178.66,6.23.07-13.96.13-27.92.2-41.88,4.57-3.62,9.92-2.56,14.92-2.01,42.37,4.71,84.77,9.08,127.21,13.07,27.8,2.61,55.64,2.82,83.59,1.02,24.23-1.56,48.58-.4,72.87-.39,10.3-2.85,10.86-2.61,16.68,6.61,2.35,3.73,4.55,7.59,5.23,11.96,1.69,10.84,7.14,20.85,7.06,32.06Z" style="fill: #2672be; stroke-width: 0px;"/>
  <path d="M810.51,682.32c-13.98-14.54-19.76-32.13-19.66-52.03.01-2.64,2.03-6.54-2.93-7.39-.41-.33-.6-.71-.58-1.14.02-.45.08-.67.18-.68,1.26-2.11,2.58-4.18,4.1-6.13,5.67-10.16,11.19-20.34,19.85-28.5,17.26-16.27,37.16-21.51,60.05-15.32,3.24.88,6.4,2.05,9.58,3.15q8.26,2.86,7.43-5.63c8.52-.41,13.77,5.25,19.3,10.39,7.27,6.46,10.11,14.43,9.66,24.21-.33,7.2,2.15,14.28,3.32,21.42,4.14,25.32-9.51,55.86-31.24,68.97-22.73,13.72-51.51,11.25-72.32-6.19-2.16-1.81-3.89-4.2-6.73-5.14Z" style="fill: #388fd0; stroke-width: 0px;"/>
  <path d="M735.03,3.18c-18.3,12.05-39.32,7.12-59.16,9.34-28.9,3.24-58.07,2.92-87,6.11-9.19,1.02-18.49.64-27.78,1.45-21.29,1.87-42.72,2.01-64.05,3.48-25.69,1.76-51.4,3.14-77.08,4.9-21.04,1.44-42.08,2.93-63.13,4.35-29.78,2.02-59.59,3.7-89.3,6.43-15.66,1.44-31.36,1.53-47.02,2.78-29.49,2.37-59.03,4.1-88.53,6.36-10.58.81-13.43,4.18-13.9,14.64-.16,3.62.07,7.46-4.62,8.67-1.31-2-.89-4.1-.32-6.2.41-3.33.6-6.7,1.27-9.98,2.78-13.51,9.49-19.86,22.99-21.04,14.67-1.29,29.37-2.16,44.07-3.1,39.96-2.56,79.93-5.09,119.9-7.56,19.6-1.21,39.22-2.21,58.82-3.4,41.01-2.47,82.01-5.03,123.01-7.49,20.38-1.22,40.78-2.17,61.15-3.45,37.9-2.38,75.78-5.2,113.7-7.27,21.68-1.19,43.38-2.9,65.14-1.92,4.11.18,8.2.67,11.84,2.89Z" style="fill: #6ac6ef; stroke-width: 0px;"/>
  <path d="M788.13,621.8c-.12.36-.19.72-.21,1.1-30.57,1.2-61-1.82-91.48-3.23-40.05-1.85-80.05-4.67-120.08-6.96-39.51-2.26-79.04-4.33-118.55-6.62-4.68-.27-7.89.73-11.31,4.51-23.51,25.94-69.71,26.79-91.59,2.08-3.46-3.91-6.04-8.36-8.5-12.91-2.48-1.57-5.42.04-7.95-1.17-7.95.47-15.23-1.29-21.48-6.47-.47-.95-.42-1.87.17-2.76,3.12-3.86,7.55-4.13,11.98-4.28,20.96-.69,41.83.95,62.72,2.39,19.07,1.31,38.15,2.46,57.23,3.74,27.58,1.85,55.15,3.83,82.73,5.61,25.78,1.66,51.54,3.6,77.32,5.32,26.55,1.78,53.08,3.86,79.63,5.56,22.68,1.45,45.33,3.69,68.1,3.72,4.42,0,8.79-.3,12.99-1.76,2.9-.58,5.35-2.81,8.53-2.36,2.46,5.35,4.16,11.23,9.76,14.48Z" style="fill: #174c91; stroke-width: 0px;"/>
  <path d="M211.22,657.44c-19.2-12.06-27.54-30.34-29.58-52.1-.4-4.33.05-8.73.1-13.1-2.54-3.06-1.29-6.35-.52-9.56,6.94-28.89,30.85-49.05,60.97-47.05,3.75-.04,7.29,1.11,10.9,1.89,4.48,1.77,9.06,3.31,13.39,5.49,9.89,6.31,18.86,13.53,24.62,24.12,2.95,5.42,3.73,10.61.19,16.06-3.66,5.64-4.22,12.23-4.69,18.6-.44,5.95-1.22,11.79-2.36,17.61-.54,1.93-1.17,3.84-1.87,5.72-4.77,12.05-11.77,22.65-22.55,29.94-13,8.79-27.21,10.72-42.07,4.63-2.13-.87-4.05-2.37-6.53-2.25Z" style="fill: #3c94d4; stroke-width: 0px;"/>
  <path d="M938.7,619.91c8.2,1.58,15.62-2.75,23.63-3.03,14.25-.49,28.15,2.64,42.27,3.52,12.53.78,24.94,3.37,37.47,4.16,12.07.76,24.09,2.24,36.27,1.83,40.79-1.39,57.56-20.69,66.62-56.49,2.96-11.7,1.68-24.07,4.79-35.83,1.47-5.55,3.74-10.75,6.65-15.62,1.39-2.33,3.25-5.76,6.3-4.78,3.46,1.12,4.52,5.02,3.95,8.45-.76,4.55-1.62,9.28-3.59,13.38-10.61,22.16-8.9,45.78-8.45,69.19.11,5.78,2.83,10.99,9.51,12.66,1.95.49,4,1.39,4.2,3.97-41.67,23.4-86.66,18.1-131.37,15.17-1.55-.1-3.1-.24-4.63-.49-9.56-1.53-16.85.59-24.85,7.65-18.52,16.35-40.81,22.73-65.63,16.77-1.19-.29-2.26-1.1-3.38-1.67-3.02-6.7,1.19-12.64,1.97-18.94,3.36-4.53,8.73-3.03,13.17-4.29,2.89-.81,6.03-.3,8.93-1.24,3.31-.8,6.67-.85,10.06-.54-8.09-.9-16.49-.15-23.99-4.25-1.99-4.53-8.57-4.35-9.89-9.58Z" style="fill: #174f97; stroke-width: 0px;"/>
  <path d="M789.3,99.63c12.6-11.1,28.71-11.35,43.98-13.87,7.56-1.25,15.33-1.2,23.01-1.74,35.73-1.6,71.42-4.3,107.2-4.33,9.38,0,19.01.03,27.85,4.28-5.52,2.89-8.91,6.93-10.18,13.49-1.63,8.38-7.47,10.26-17.2,9.94-16.89-.57-33.82.11-50.74.37-2.02.03-4.05,1.15-6.03,1.05-18.59-.92-37.04,1.69-55.61,1.88-17.18.17-34.3,2.94-51.54,2.89q-12.48-.04-12.19-12.22c-.64-1.52-.3-2.23,1.46-1.75Z" style="fill: #6ac7f0; stroke-width: 0px;"/>
  <path d="M242.72,537.42c-21.52-.82-38.73,7.33-50.75,25.27-5.92,8.83-9.48,18.78-10.23,29.54-14.9-.63-29.85.15-44.72-1.49-7.97-.88-15.08-3.3-19.11-11.04,11.95-1.56,23.87-3.37,35.85-4.61,8.46-.87,13.91-4.62,16-13.09,1.29-5.24,3.54-10.28,4.54-15.56,3.21-16.93,14.52-24.11,30.4-25.66,25.74-2.51,51.34-1.7,76.57,4.53,15,3.71,22.93,13.91,23.25,29.51-.25.07-.58.28-.72.19-14.59-9.05-31.79-10.36-47.51-16.04-4.41-1.52-8.87-2.58-13.57-1.56Z" style="fill: #1758bc; stroke-width: 0px;"/>
  <path d="M1070.51,304.66c-4.84.78-4.93-3.63-6.11-6.16-10.45-22.44-19.53-45.45-28.36-68.56-8.63-22.6-17.5-45.12-25.9-67.81-6.35-17.14-12.16-34.48-18.1-51.77-.74-2.16-.98-4.53-1.17-6.82-.58-6.89,2.32-9.92,9.19-10.22,3.47-.15,6.62.84,9.83,1.79,5.17,1.53,10.01,4.21,15.54,4.48,0,0,0,0,0,0,7.1,2.88,14.97,3.65,21.6,7.84,8.99,6.18,12.5,16.07,16.73,25.32,7.78,17.02,17.57,33.08,24.12,50.68-4.21.95-5.08-2.57-6.43-5.07-2.43-4.51-5.03-8.89-7.83-13.18-1.77-2.7-3.84-4.75-7.23-5.02-17.75-5.04-35.61-9.69-53.13-15.47-6.19-3.24-4.92-9.91-7.08-15.05,4.98,18.34,11.98,36,18.36,53.86,1.52,4.26,2.24,9.1,6.55,11.9,7.88,17.65,13.82,36.04,20.75,54.05,5.83,15.15,10.8,30.62,17.21,45.56,1.28,2.98,2.93,6.13,1.46,9.64Z" style="fill: #2c7cc2; stroke-width: 0px;"/>
  <path d="M412.96,121.15c-39.84.52-79.68,1.12-119.53,1.54-29.78.31-59.2-4.37-88.78-6.83-30.87-2.57-61.5-7.7-92.52-8.56-11.09-3.41-22.68-3.14-34.04-4.55-23.65-2.93-47.54-3.76-71.09-7.64-2.59-.43-5.09-.76-6.76-3.08,20.12-.31,40.06,2.13,60.03,4.06,7.94.77,15.92,1.04,23.87,1.65,31.01,2.37,62,4.94,92.97,7.86,21.76,2.05,43.65,2.78,65.39,5.01,21.33,2.19,42.72.18,63.97,1.76,28.92,2.16,57.83.31,86.73,1.31,6.08.21,9.07-1.6,9.25-8.14.25-9.28,7.72-4.9,12.31-5.92.54.5,1.08,1,1.62,1.49-.34.39-.7.79-1.17.99-9.29,3.88-9.95,6.73-3.28,14.01,1.33,1.45,3.36,2.81,1.04,5.03Z" style="fill: #b5b6b8; stroke-width: 0px;"/>
  <path d="M29.59,161.75c23.44.5,46.7,3.17,69.97,5.8,13.29,1.5,26.66,2.26,39.97,3.49,25.07,2.31,50.13,4.8,75.18,7.21,19.18,1.85,38.39,3.66,57.6,5.29,42.95,3.65,85.99,4.06,129.04,4.95,8.17.17,16.45.73,24.66,1.27,5.97.39,9.64-1.6,10.14-7.6.46-5.45,3.24-7.19,8.24-6.5-5.73,8.08-.05,13.25,4.77,18.63-3.4,2.63-7.46,1.8-11.2,1.8-43.93-.02-87.88.69-131.77-.68-24.91-.77-49.73-4.87-74.56-7.69-24.82-2.82-49.59-6.15-74.43-8.82-15.1-1.63-30.06-4.61-45.32-4.68-11.91-1.54-23.81-3.13-35.72-4.59-13.79-1.69-27.59-3.21-41.38-4.95-1.96-.25-4.07-.88-5.19-2.92Z" style="fill: #b4b4b7; stroke-width: 0px;"/>
  <path d="M256.38,537.71c8.6,2.03,17.2,4.05,25.8,6.09,8.29,1.97,15.98,5.14,22.33,11.03,5.16,7.5,7.09,16.23,9.39,24.81,2.54,3.19,4.17,6.64,3.12,10.86-.02.55-.04,1.09-.05,1.64.35,14.37-1.43,28.28-8.93,40.94-6.06,10.22-14.03,18.32-25.29,22.76-4.13,1.24-8.25,2.77-12.48,3.37-3.72.53-8.56,4.84-11.07.2-2.09-3.87,3.16-6.48,5.8-8.96,7.69-7.22,12.62-16.02,16.08-25.81.15-1.69-.39-3.55,1.27-4.84,2.58-1.74,1.52-4.77,1.88-6.97,1.25-7.64,3.86-13.54,10.59-18.45,7.67-5.6,7.63-16.72,1.4-24.03-8.87-10.41-18.02-20.5-30.9-26.19-3.94-1.66-7.89-3.32-11.83-4.97-.18-2.73,1.15-2.49,2.88-1.48Z" style="fill: #041743; stroke-width: 0px;"/>
  <path d="M102.29,239.5c6.29-3.07,12.71-.26,18.83.32,30.81,2.89,61.52,6.74,92.29,10.12,30.25,3.33,60.52,6.42,90.76,9.78,20.22,2.25,40.41,4.82,60.62,7.21,8.46,1,17,1.05,25.48,1.63,19.58,1.34,39.25,1.28,58.87,2.05,20.38.8,40.75,1.82,61.12,2.92,6.55.35,11.08-.42,10.48-8.91-.41-5.86,4.2-6.98,9.17-6.5-.03.51-.03,1.02,0,1.52-2.66,3.32-3.71,7.18-4.44,11.35-1.58,8.96-4.33,10.93-13.16,10.11-3.35-.31-6.71-.54-10.07-.44-37.24,1.1-74.42-1.31-111.63-1.92-27.63-.46-54.94-6.16-82.38-9.58-55.16-6.89-110.25-14.28-165.39-21.34-5.23-.67-10.98,0-15.4-4.01-4.98-2.33-10.59-.72-15.66-2.48-3.07-1.1-6.66.52-9.49-1.83Z" style="fill: #8a909f; stroke-width: 0px;"/>
  <path d="M941.53,640.35c.76,6.43-2.73,12.15-3.08,18.4-1.43.34-1.93,1.54-2.56,2.68-17.53,31.93-45.42,45.5-80.82,44.07-18-.72-32.91-9.3-44.56-23.19,7.92,2.59,13.62,8.99,21.18,12.27,37.21,16.11,74.5-2.5,84.86-42.29,3.18-12.21,4.13-24.28.5-36.54-.94-3.19-2.08-6.65-1.74-9.84,1.13-10.46-1.73-19.23-9.42-26.42.91-.6,1.89-.83,2.92-.41,14.39,5.83,23.56,28.63,16.81,42.24-2.94,5.92-2.27,12.1-2.05,18.25.13,3.79,2.66,3.5,5.57,2.95,4.11-.79,7.67-4.83,12.37-2.19Z" style="fill: #2266af; stroke-width: 0px;"/>
  <path d="M1066.89,158.72c3.47-.51,5.24,1.42,7.45,3.94,5.54,6.33,6.77,15.35,13.54,20.78,14.76,30.16,27.57,61.2,41.28,91.83,4.64,10.36,9.58,20.6,14.38,30.89-.1,4.64,4.41,10.94-4.47,12.43-6.37-6.84-8.14-15.97-11.6-24.17-17.16-40.75-35.5-80.97-54.05-121.09-2.23-4.83-6.75-8.68-6.53-14.6Z" style="fill: #205da7; stroke-width: 0px;"/>
  <path d="M1211.62,407.49c-1.11,7.19,3.17,14.32.25,21.54-.26.63-.46,1.29-1.11,3.14-12.75-16.21-22.29-33.15-30.44-51.79,9.88.4,14.88,7.32,21.41,11.47,5.09,4.08,6.65,10.38,9.88,15.63Z" style="fill: #c8cacc; stroke-width: 0px;"/>
  <path d="M281.09,624.64c-1.48,10.43-7.4,18.44-14.12,26.04-2.45,2.77-5.94,4.79-7.59,9.29,8.67.02,15.65-4.32,23.38-4.13-23.23,8.68-46.52,15.78-70.58,2.72-.4-.22-.65-.74-.96-1.12,6.15-2.12,10.85,2.78,16.61,3.42,21.05,2.37,36.88-8.49,46.94-24.78,2.29-3.71,4.23-7.63,6.33-11.45Z" style="fill: #1a4c8d; stroke-width: 0px;"/>
  <path d="M1047.03,107.44c-7.51-1.76-15.11-3.26-21.6-7.84,4.08.54,8.17,1.07,12.25,1.61,3.68,1.23,6.9,3.16,9.35,6.23Z" style="fill: #3c95d4; stroke-width: 0px;"/>
  <path d="M113.14,65.5c.11,2.07.22,4.13.32,6.2.09,2,.17,4.01.26,6.01-3.26-3.92-2.15-8.06-.59-12.21Z" style="fill: #dfdfdf; stroke-width: 0px;"/>
  <path d="M338.46,598.6c2.74-.2,5.61-1.27,7.95,1.17-2.67-.23-5.45.24-7.95-1.17Z" style="fill: #2670b7; stroke-width: 0px;"/>
  <path d="M127.44,243.8c23.78,2.93,47.56,5.78,71.33,8.8,25.8,3.29,51.58,6.75,77.38,10.1,26.05,3.39,52.1,6.81,78.17,10.07,11.76,1.47,23.54,3.39,35.35,3.7,38.77,1,77.55,1.39,116.33,1.95,14.64.21,14.74.15,17.71-14.52.77-3.81,3.19-4.23,6.21-4.26,1.7.29,3.22,1.18,2.88,2.98-1.25,6.68,2.31,11.3,6.4,15.73,12.48,13.52,15.58,30.38,17.02,47.82.55,6.66,2.09,13.21,1.63,20-.68,10.16-3.26,13.38-13.07,12.76-17.17-1.08-34.29-3.08-51.46-4.3-8.73-.62-17.48-1.21-26.2-1.59-34.21-1.52-68.07-5.61-101.93-10.53-21.83-3.17-43.7-6.31-65.69-8.55-23.98-2.45-47.77-6.78-71.68-10.01-15.01-2.03-30.11-3.39-45.14-5.33-11.46-1.48-22.88-3.27-34.27-5.17-5.45-.91-9.36-4.38-11.81-9.19-7.63-14.99-14.55-30.36-14.98-47.47-.11-4.4-2.02-11.39,5.83-13Z" style="fill: #1b58a4; stroke-width: 0px;"/>
  <path d="M1066.89,158.72c13.94,22.14,23.29,46.53,34.06,70.21,13.44,29.56,26.95,59.12,38.12,89.66.15,3.45-1.13,5.07-4.94,5-16.53-.32-33.06-.49-49.59-.48-3.71,0-5.68-1.67-7.15-4.71-2.23-4.6-4.58-9.15-6.87-13.72-11.8-31.55-23.6-63.1-35.39-94.65-1.75-4.68-3.51-9.36-5.26-14.05-3.38-3.24-3.61-7.91-5.13-11.93-4.18-11.07-8.16-22.23-11.67-33.55-.73-2.35-2.15-4.86.12-7.23,17.9,5.15,35.8,10.3,53.7,15.45Z" style="fill: #c3c3c3; stroke-width: 0px;"/>
  <path d="M317.03,590.5c-1.54-3.48-3.44-6.85-3.12-10.86,9.49-.61,18.67-3.87,28.32-3.07,31.28,2.61,62.71,2.89,93.97,6.04,9.46.95,19.01.59,28.55,1.47,20.5,1.87,41.16,1.94,61.7,3.48,30.79,2.31,61.59,4.37,92.4,6.3,22.59,1.41,45.21,2.73,67.73,4.78,21.28,1.94,42.67,1.71,63.9,4.26,16.16,1.94,23.79-5.14,26.31-23.33.71-5.09,1.1-10.27,2.39-15.21,4.82-18.48,15.9-26.38,36.46-28.33,14.19-1.34,28.36-1.87,42.52-1.27,17.73.76,35.36,2.85,52.14,9.33,12.13,4.68,18.67,13.6,18.7,26.63,0,5.71,2.7,11.11,1.54,16.88-4.43.07-5.01-3.68-6.51-6.53-3.75-13.63-12.59-21.76-26.09-25.97-26.17-8.16-52.7-9.79-79.55-5.22-24.83,4.23-28.94,9.75-36.17,35.87-1.3,4.7-2.01,9.58-2.99,14.37-.94,4.58-3.06,8.15-7.07,10.57-10.37,6.18-21.92,3.67-32.54,2.65-11.54-1.11-23.11-.77-34.66-2.2-18.62-2.31-37.52-2.24-56.28-3.57-25.4-1.8-50.76-4.11-76.15-5.91-7.96-.56-15.93-1.08-23.89-1.64-27.75-1.96-55.56-2.89-83.3-4.99-23.62-1.79-47.27-3.07-70.88-4.77-21.37-1.53-42.68-3.06-64.11-2.92-4.79.03-9.25.57-13.35,3.13Z" style="fill: #2670b7; stroke-width: 0px;"/>
  <path d="M925.89,581.57c1.39,2.14,2.27,4.67,4.66,6.03,3.14,7.42,5.78,14.99,6.51,23.09-.37,3.23-.92,6.5,1.63,9.22,3.8,2.52,8.9,3.37,10.76,8.37-.42.32-.88.52-1.39.54-2.54.07-.63.43-.06.76,4.78,2.79,10.9,2.34,15.19,6.29-6.89,3.1-14.85,1.02-21.67,4.48-4.61,1.57-9.33,2.88-13.8,4.76-5.6,2.36-6.7.09-6.37-5.04.53-8.35-.89-16.81,4.99-24.35,3.34-4.29.38-9.26-1.43-13.88-3.8-9.69-9.97-17.19-19.01-22.34-5.05-4.63-10.62-8.4-17.26-10.39-7.98.37-14.91-2.92-21.82-6.28-.39-1.5.45-2.33,1.63-2.98,19.1.19,36.88,4.94,52.86,15.62,2.12,1.42,3.38,3.81,4.57,6.09Z" style="fill: #031458; stroke-width: 0px;"/>
  <path d="M1170.29,432.05c-.15,1.01-.38,2.02-.45,3.03-.14,2.06-.58,4.51-2.6,4.81-1.19.18-2.95-1.8-4.07-3.13-1.62-1.92-2.9-4.13-4.32-6.22-8.27-15.07-18.27-29.25-24.06-45.73,17.34-.79,33.94,21.46,35.49,47.24Z" style="fill: #c8c9cc; stroke-width: 0px;"/>
  <path d="M449.16,194.29c-2.63-3.66-10.16-1.97-9.61-9.4.3-4.09.5-7.55,4.84-9.22,1.67-.2,3.5.57,5.04-.84-2.08-3.99-6.97-2.63-9.75-5.2-3.52-8.81-6.2-17.86-7.86-27.22-1.22-6.91-4.36-12.95-8.03-18.92-3.16-5.14-6.3-5.79-10.83-2.32.12-1.36-.07-3.09-1.37-3.31-8.67-1.47-6.7-8.11-5.72-13.13,1.14-5.88,6.9-2.48,10.5-3.58,5.08,3.87,7.36-1.72,10.34-3.51,6.87-4.12,13.56-6.53,21.74-4.44,4.97,1.27,7.17,3.82,6.74,8.65-.49,5.49,2.62,12.53-5.76,14.92-4.19,1.19-8.43,2.51-12.73,2.92-4.34.41-5.72,2.2-4.06,5.97,3.96,8.98,6.76,18.29,9.36,27.75,2.47,8.96,11.54,13.11,20.95,11.9,5.82-.75,11.94-.76,17.72.19,10.67,1.74,12.65,5.05,11.85,16.74-.54,7.9-4.63,11.47-13.92,12.18-11.35.86-11.83,1.73-8.14,12.18,1.97,5.58,3.42,11.33,5.16,16.99,1.06,3.43,1.81,7.06,4.98,9.37,3.77,2.76,4.74,6.55,4.1,10.95-4.25-.22-8.39-.98-12.39-2.45-2.28-13.34-5.87-26.32-11.11-38.81-.79-1.87-2.02-3.58-2.64-5.5-2.65-8.19-3.32-8.43-9.39-2.84Z" style="fill: #3b94d4; stroke-width: 0px;"/>
  <path d="M789.3,99.63c-.49.58-.97,1.17-1.46,1.75-3.16,4.05-6.32,8.1-9.48,12.15-.42,4.52-1.22,8.98-2.66,13.28-.71,2.12-.98,5.64-4.91,3.25-3.76-4.6-8.72-5.58-14.02-3.88-4.8,1.54-5.07,6.3-5.52,10.31-1.97,17.47-2.72,35.02-1.84,52.58.71,14.21.77,28.42,1.54,42.64,2.42,44.43,5.05,88.93,3.21,133.42-1.45,34.94-.9,69.86-1.41,104.79-.09,5.9-1.48,11.25-5.18,15.9-1.08,1.51-2.67,2.33-4.28,3.18-5,2.62-8.51,11.21-6.77,16.17.63,1.79,2.01,2.17,3.56,2.42,2.49.41,5.24-.03,7.19,2.18-8.8,3.38-17.59.97-26.38-.03-1.95-4.41-2.01-9.38-4.99-13.6-2.3-3.25.4-6.06,3.5-7.2,9.95-3.66,12.1-11.7,12.42-20.95,3.3-95.63.72-191.29,1.52-286.93.18-21.73.1-43.45-.06-65.18-.03-3.84.69-7.11,3.27-9.93,9.56-6.79,18.39-15.36,31.77-12.58,7.19,1.49,14.74,1.72,21,6.28Z" style="fill: #062fa8; stroke-width: 0px;"/>
  <path d="M745.62,486.34c4.35-7.09,5-14.85,4.9-23-.28-21.74-.86-43.52.1-65.22,1.33-29.97,1.72-59.93,1.23-89.89-.44-26.28-.89-52.65-3.41-78.78-1.54-15.96-1.69-32.01-1.9-47.8-.21-16.25-1.05-33.03,2.6-49.27,1.21-5.37,2.55-10.54,10.35-9.62,5.9.69,12.53-.89,12.88,8.15,1.59,1.6,2,3.67,1.74,5.72-2.69,20.94-3.32,42.08-6.08,63.02-.2,1.54-.67,3.02-1.91,4.11-.1,2.97-.2,5.95-.3,8.92-1.64,4.12.22,8.55-1.13,12.7-.14,4.57-.29,9.14-.43,13.71-1.57,3.6.15,7.52-1.09,11.15-.16,5.08-.32,10.15-.48,15.23-1.69,5.19.36,10.66-1.17,15.87-.13,5.58-.26,11.16-.39,16.74-1.7,7.3.37,14.78-1.13,22.09-.2,3.68-.4,7.36-.6,11.04-1.03,6.31-.19,12.67-.46,19-.29,6.04.6,12.11-.5,18.13-.19,6.78-.39,13.56-.58,20.35-1.04,8.86-.18,17.75-.47,26.62-.3,7.64.61,15.31-.49,22.93-.19,4.19-.37,8.38-.56,12.57-1.06,5.69-.25,11.44-.5,17.15-.24,3.56.53,7.16-.5,10.67-.86,3.13.73,6.7-1.7,9.55-2.36-1.96-5.67.2-8.02-1.84Z" style="fill: #051c74; stroke-width: 0px;"/>
  <path d="M1043.93,301.76c2.16,9.99,6.76,19.42,6.45,29.98-.25,8.32-4.21,12.66-12.69,13.19-1.55.1-3.1.07-4.65.07-80.91-.05-161.82-.09-242.73-.21-3.11,0-6.94,1.45-8.81-2.8-.55-3.96,1.48-6.31,4.86-7.84,4.09-.94,8.25-.58,12.38-.58,75.09-.03,150.18,0,225.26-.05,5.62,0,11.54.66,15.72-4.5,3.73-6.16,2.11-12.74,1.51-19.25-.28-3.04-2.1-6.67,2.7-8.03Z" style="fill: #1246a1; stroke-width: 0px;"/>
  <path d="M784.68,335.93c.06,2.6-2.31,3.94-3.17,6.07-1.02-.54-2.04-1.07-3.06-1.61-8.23-3.74-8.31-11.88-8.32-18.64-.01-26.04-.82-52.08.71-78.15.7-11.93,2-24.05.66-36.14-1.32-11.89,1.01-23.7,1.73-35.53.64-10.57,1.2-21.11,1.25-31.69.02-3.91.63-7.7,1.7-11.44,2.2-7.68,4.71-9.5,12.6-9.79,4.85-.18,9.78.88,14.56-.71,4.64-.04,9.28-.07,13.91-.11,8.22-2.04,16.71.7,24.92-1.44,4.12-.04,8.24-.07,12.36-.11,7.07-1.51,14.22-.27,21.32-.71,2.76-.17,5.62.72,8.26-.73l7.7-.07c8.09-1.57,16.28-.28,24.4-.75,2.76-.16,5.63.74,8.27-.75.5.04,1,.04,1.5,0,13.72-1.71,27.49-.44,41.24-.69,3.51-.07,5.2,2.83,6.87,5.43,1.6,2.56,3.2,5.12,4.8,7.68-.03,2.62-1.74,1.77-2.94,1.26-2.27-.97-3.99-2.83-6.13-4.04-3.68-2.34-7.8-2.6-11.97-2.58-26.6.1-53.14,1.8-79.71,2.56-20.65.59-41.26,2.32-61.93,2.08-5.7-.07-11.33.68-16.99,1.07-7.1.49-9.73,4.31-10.94,10.69-3.05,16.03-4.29,32.29-5.62,48.48-3.57,43.5-6.03,87.07-5,130.76.1,4.4.21,8.78,1.22,13.07-.21,4.05,4.12,4.13,5.78,6.55Z" style="fill: #175dcd; stroke-width: 0px;"/>
  <path d="M784.68,335.93c-2.87-.4-6.41.76-7.65-3.35,1.5-1.29,3.28-1.28,5.12-1.25,79.65,1.36,159.31.27,238.96.57,12.19.05,15.35-3.34,14.24-15.43-1.2-12.95-5.11-25.38-8.98-37.67-13.92-44.15-28.64-88.04-45.74-131.09-2.1-5.3-5.12-10.17-7.22-15.46-1.21-3.03-3.13-6.14-.68-9.49,2.48.29,2.73,4.81,6.18,3.28,1.24.74,1.46,1.93,1.43,3.24,4.23,14.08,11.03,27.13,16.29,40.81,15.49,40.26,30.41,80.73,42.34,122.19,3.44,11.95,6.07,24.47,3.54,37.23-3.78,6.54-10.21,6.19-16.41,6.19-76.33.04-152.66.04-228.99.06-4.14,0-8.28.12-12.42.18Z" style="fill: #3c95d4; stroke-width: 0px;"/>
  <path d="M803.34,118.29c-4.27,2.9-9.05,1.19-13.58,1.37-6.36.25-10.07,3.01-11.43,9.33-.93,4.31-1.52,8.57-1.54,13.01-.23,36.13-4.28,72.08-5.08,108.22-.58,26.08-2.07,52.07.32,78.13.47,5.18,3.81,8.29,6.42,12.05-5.61.51-6.78-3.42-7.81-7.67-2.17-8.9-1.75-17.96-1.52-26.96.56-21.15-.04-42.31.58-63.47.32-10.98,3.9-22.45-.45-33.57-.77-1.96-1.01-3.97-3.12-4.97,1.07-21.54,2.93-43.01,5.5-64.42.34-2.8.5-5.62.75-8.43,3.1-5.41,1.2-12.54,5.98-17.37,3.92,5.17,9.61,4.64,15.12,4.7,3.29.04,6.58.04,9.86.07Z" style="fill: #3c95d4; stroke-width: 0px;"/>
  <path d="M1042.49,329.48c1.28-19.81-5.52-38.11-11.37-56.39-15-46.84-31.53-93.15-50.99-138.37-.81-1.87-2.16-3.73.2-5.47,9.02,16.22,15.63,33.53,22.2,50.8,14.98,39.37,29.64,78.86,41.26,119.4.21.72.11,1.53.16,2.31-3.39,6.15,1.78,12.19.22,18.37-.78,3.06,1.17,6.63-1.66,9.36Z" style="fill: #1a5cc6; stroke-width: 0px;"/>
  <path d="M745.62,486.34c2.33,2.12,7.42-7.82,8.02,1.84-.27,7.74-.75,15.41-6.37,21.57-12.74-.16-11.9-.22-12.66-12.13-.58-9.11,4.93-9.91,11.01-11.28Z" style="fill: #000c66; stroke-width: 0px;"/>
  <path d="M974.1,118.35c-3.84-3.95-8.43-5.14-13.96-4.94-11.37.41-22.76.17-34.15.2,4.12-3.17,8.88-1.32,13.31-1.48,8.68-.32,17.38-.04,26.07-.13,4.58-.05,8.13,1.06,8.73,6.36Z" style="fill: #3c95d4; stroke-width: 0px;"/>
  <path d="M924.49,113.61c-10.77,3.22-21.79.81-32.67,1.5,10.76-3.32,21.79-.74,32.67-1.5Z" style="fill: #3c95d4; stroke-width: 0px;"/>
  <path d="M884.12,115.18c-9.73,3.14-19.73.8-29.58,1.45,9.73-3.23,19.73-.71,29.58-1.45Z" style="fill: #3c95d4; stroke-width: 0px;"/>
  <path d="M756.91,415.25c.03-8.87-1.52-17.79.95-26.58.06,8.68.12,17.35.18,26.02-.15.65-.53.83-1.14.55Z" style="fill: #062fa8; stroke-width: 0px;"/>
  <path d="M842.18,116.74c-8.16,3.04-16.62.87-24.93,1.45,8.16-3.12,16.63-.78,24.93-1.45Z" style="fill: #3c95d4; stroke-width: 0px;"/>
  <path d="M756.91,415.25c.38-.18.76-.36,1.14-.55-.39,7.84,1.65,15.81-1.14,23.53,0-7.66,0-15.32,0-22.98Z" style="fill: #3c95d4; stroke-width: 0px;"/>
  <path d="M760.01,320.16c.02-7.38-.98-14.81,1.13-22.09-.28,7.37,1.53,14.84-1.13,22.09Z" style="fill: #3c95d4; stroke-width: 0px;"/>
  <path d="M758.45,368.32c-.02-6.13-.04-12.26-.06-18.4.17-.63.56-.81,1.16-.54-.19,6.32,1.53,12.75-1.09,18.93Z" style="fill: #3c95d4; stroke-width: 0px;"/>
  <path d="M759.54,349.39c-.37.22-.75.4-1.16.54.09-6.26-1.35-12.6,1.03-18.74.04,6.07.08,12.13.12,18.2Z" style="fill: #062fa8; stroke-width: 0px;"/>
  <path d="M755.31,468.08c.1-5.77-1.52-11.65,1.03-17.28.06,5.59.11,11.18.17,16.76-.18.68-.59.83-1.2.52Z" style="fill: #062fa8; stroke-width: 0px;"/>
  <path d="M761.53,281.32c.04-5.31-.87-10.7,1.17-15.86-.25,5.3,1.48,10.74-1.17,15.86Z" style="fill: #3c95d4; stroke-width: 0px;"/>
  <path d="M764.69,225.38c0-4.27-.88-8.61,1.13-12.7-.24,4.24,1.41,8.66-1.13,12.7Z" style="fill: #3c95d4; stroke-width: 0px;"/>
  <path d="M755.31,468.08c.4-.18.8-.35,1.2-.52-.25,3.7,1.32,7.6-1.17,11.07-.01-3.52-.02-7.03-.03-10.55Z" style="fill: #3c95d4; stroke-width: 0px;"/>
  <path d="M763.17,250.23c-.06-3.75-.81-7.58,1.09-11.14-.19,3.73,1.3,7.63-1.09,11.14Z" style="fill: #3c95d4; stroke-width: 0px;"/>
  <path d="M304.71,224.22h-31.15c.61-2.19,1.72-1.77,2.48-1.76,43.87.6,87.68-2.49,131.55-1.86,17.12.25,33.56,4.29,50.24,7.06,5.16.86,8.23,3.84,9.2,9.04.43,2.31-1.29,2.42-2.65,2.98-21.92-4.41-43.84-8.77-65.75-13.25-8.09-1.65-16.27-2.46-24.49-2.98-6.01-.59-12.03-.58-18.04,0-17.13.26-34.26.51-51.39.77Z" style="fill: #0f3988; stroke-width: 0px;"/>
  <path d="M356.09,223.45c6.02-1.78,12.04-1.7,18.05,0-6.02,0-12.03,0-18.05,0Z" style="fill: #2774be; stroke-width: 0px;"/>
  <path d="M290.59,142.95c1.13-1.31,2.68-1.37,4.24-1.4,29.08-.63,58.08-.66,86.61,6.57,13.89,3.52,28.11,5.73,42.06,9.02,5.87,1.38,11.01,4.38,9.83,12.01-47.5-9.18-94.47-21.26-142.75-26.2Z" style="fill: #113c8b; stroke-width: 0px;"/>
  <path d="M892.12,617.01c11.92,10.1,6.01,21.15,1.46,31.91-2.7,6.38-5.95,12.55-9.28,18.64-4.16,7.62-12.49,9.61-25.27,5.98-9.84-2.8-18.36-7.89-24.91-15.94.25-.29.5-.58.75-.87,5.9-1.25,11.75.75,17.68.23,15.11-1.32,25.41-9.19,31.67-22.7,2.38-5.13,1.95-10.24-1.64-14.61-8.99-10.94-29.88-19.25-45.25-4.11-2.59,2.55-4.55,6.78-9.51,4.72-.78-7.89,2.76-13.38,9.51-17.08,9.24.43,17.91-4,27.46-2.47,11.53,1.84,21.13,5.97,27.33,16.3Z" style="fill: #97a6c5; stroke-width: 0px;"/>
  <path d="M868.56,560.95c-.48.46-.96.92-1.43,1.39-1.39,1.96-3.4,1.89-5.46,1.7-2.94-.77-5.89-1.26-8.86-.1-32.24,3.88-50.11,24.09-60.32,53.03-2.07,1.06-.97,4.97-4.36,4.84-9.16-.66-9.79-7.17-9.71-14.17.2-13.48,3.09-26.4,9.71-38.11,5-8.83,10.45-10.43,20.77-8.29,8.82,1.82,17.41-.94,26.09-1.65,8.71-.71,17.3-2.93,26.12-2.22,2.83.23,6.45-.66,7.46,3.59Z" style="fill: #0639b8; stroke-width: 0px;"/>
  <path d="M829.91,656.27c.25,1.46.5,2.91.92,5.35-11.86-10.13-23.25-19.64-21.02-36.62,2.44-18.58,11.42-32.78,30.31-37.93,10.77-2.94,21.96-2.65,32.28,3.13,2.82,1.58,5.27,3.29,5.56,6.85-2.16.94-4.14.02-5.95-.86-6.61-3.23-13.36-3.6-20.34-1.54-10.9-.16-24.04,10.21-27.97,21.88-2.96,8.78-3.62,17.57-.98,26.54.53,1.8.66,2.07,1.25,1.58.52-.43.81-1.23,1.52-1.6,4.52,3.4,4.01,8.47,4.39,13.24Z" style="fill: #124290; stroke-width: 0px;"/>
  <path d="M792.48,616.96c2.55-25.93,31.92-54.77,60.48-54.63,2.6-.73,5.2-.79,7.79.04,2.12-.01,4.25-.02,6.37-.04,7.48,1.31,14.73,3.32,21.53,6.78,1,1.48,2.37,2.84,2.9,4.47.49,1.53,1.93,3.36.19,5.02-1.59,1.51-3.25.73-5.01.1-6.53-2.32-12.96-5.3-19.7-6.6-29.43-5.7-54.75,7.71-69.58,36.22-1.53,2.94-3.3,5.76-4.96,8.64Z" style="fill: #57b4e8; stroke-width: 0px;"/>
  <path d="M851.56,593.52c9.68-5.37,18.02-.79,26.41,3.52,5.96,5.78,14.6,9.65,14.15,19.96-5.82-3.59-10.05-9.27-16.91-11.68-9.49-3.32-18.91-4.43-28.27-.76-3.6,1.41-6.49-.39-9.7-.12,1.8-7.55,7.42-10.07,14.33-10.93Z" style="fill: #7d8499; stroke-width: 0px;"/>
  <path d="M829.91,656.27c-3.4-3.64-2.36-8.83-4.51-12.9-3.66-4.13-3.43-8.31-.14-12.52,1.16-.27,2.19.19,2.48,1.22,2.32,8.3,5.18,16.44,6.98,24.88-.2.21-.4.42-.61.63-1.4-.44-2.81-.88-4.21-1.32Z" style="fill: #97a6c5; stroke-width: 0px;"/>
  <path d="M868.56,560.95c-10.72-3.76-21.29.09-31.94.54-11.03.47-21.91,5.84-33.22.12-4.33-2.19-13.56,6.65-17.02,14.69-4.32,10.05-5.35,20.89-7.97,31.34-2.15.87-3.5,3.38-6.23,3.08,4.06-4.68,5.36-10.44,6.2-16.32,1.2-8.45,3.89-16.48,6.59-24.51,4.26-12.67,14.12-18.66,26.37-21,30.26-5.76,60.2-4.96,89.68,5.03,13.68,4.64,22.25,13.34,24.88,27.66-16.36-14.51-36.72-17.93-57.33-20.63Z" style="fill: #1a5fc2; stroke-width: 0px;"/>
  <path d="M223.8,627.83c-4.75-3.53-6.68-9.34-10.8-13.37-3.03-.38-3.48-2.83-3.66-5.08-.71-8.77-.71-17.45,4.75-25.06,6.39-7.02,13.41-12.98,23.67-12.73,11.59.28,28.04,16.81,28.59,28.56.05,1.05-.14,2.05-.36,3.05-2.89,13.5-23.52,28.16-37.14,26.39-1.79-.23-3.57-.57-5.05-1.75Z" style="fill: #d4d4d5; stroke-width: 0px;"/>
  <path d="M223.8,627.83c20.11,2.54,35.01-12.12,39.96-24.04.58-1.4,1.3-2.71.88-4.41-2.7-10.96-10.23-18.8-19.23-23.86-9.18-5.16-18.43-1.19-25.91,6.03-1.09,1.05-2.44,1.83-3.67,2.74-1.4-2.01-.79-4.04.36-5.76,4.81-7.22,11.09-12.77,19.35-15.67,2.88-1.01,6.09-1.23,8.45,1.64,13.42,7.56,21.4,18.86,24.19,34.08,1.24,6.73-.14,12.88-2.81,18.78-2.22,4.92-4.91,9.71-7.93,14.19-3.73,5.53-8.48,8.44-15.87,6.21-6.8-2.05-13.14-4.3-17.78-9.94Z" style="fill: #8b95ae; stroke-width: 0px;"/>
  <path d="M244,564.5c-11.77-.92-24,7.68-28.16,19.79-5.01,9.67-6.01,19.71-2.84,30.16.18,1.96.36,3.91.68,7.41-8.89-11.25-20.1-19.79-15.7-35.54,4.16-14.88,12.8-25.49,28.66-27.81,6.18-.91,13.62-1.83,17.36,5.99Z" style="fill: #123d88; stroke-width: 0px;"/>
  <path d="M265.34,544.16c6.17-.73,9.87,4,14.07,6.97,7.96,5.63,14.69,12.76,20.7,20.47,4.91,6.3,3.68,19.58-3.77,24.32-7.65,4.88-10.06,11.6-11.7,19.43-.35,1.66.05,3.77-2.27,4.45,1.17-9.45,2.42-18.89,3.45-28.36.29-2.68.97-5.27,2.57-7.2,5.8-7.01,3.26-13.12-1.06-19.65-5.72-8.63-14.09-14.23-21.98-20.43Z" style="fill: #0e378f; stroke-width: 0px;"/>
  <path d="M256.38,537.71c-.96.49-1.92.98-2.88,1.48-3.59-.59-7.19-1.18-10.78-1.76,4.6-1.86,9.16-2.16,13.66.29Z" style="fill: #0e378f; stroke-width: 0px;"/>
  <path d="M963.2,635.87c-7.78-.77-14.79-3.4-21.11-8.57,3.1-1.99,5,.99,7.37.98,7.79,3.36,16.51,1.77,24.4,4.61-2.83,3.54-7.01,2.31-10.65,2.98Z" style="fill: #747a90; stroke-width: 0px;"/>
  <path d="M1013.19,143.26c5.36,16.32,10.73,32.64,16.05,48.97.39,1.19.42,2.49.62,3.73-2.75-.24-3.75-2.02-4.59-4.46-6.72-19.48-13.58-38.92-20.4-58.37-.34-.97-.94-1.94-.96-2.92-.05-2.12-1.27-5.27,2.37-5.34,2.9-.06,3.54,2.18,3.21,4.96-.58,4.91-.25,9.7,3.69,13.42Z" style="fill: #3c95d4; stroke-width: 0px;"/>
  <path d="M972.71,122.75c4.1,14.43,11.66,27.44,16.83,41.46,17.03,46.16,33.33,92.55,46.28,140.04,1.54,5.65,2.42,11.54,2.12,17.57-.45,8.93-3.36,12.17-12.16,12.33-6.2.11-12.41.03-18.61.03-70.06,0-140.13.01-210.19.02-6.7,0-13.42.35-19.95-1.63-1.85-6.01-1.64-12.21-1.82-18.4-1.09-36.96,1.02-73.85,3.56-110.66,1.59-23.06,3.3-46.2,7.48-69.04,1.15-6.3,3.46-9.9,10.86-10.36,23.44-1.44,46.9-2.06,70.35-2.93,30.95-1.15,61.87-3.08,92.86-3.07,4.75,0,9.38.09,12.4,4.63Z" style="fill: #4eaae1; stroke-width: 0px;"/>
  <path d="M834.73,656.96c-6.11-7.63-6.57-17.05-8.31-26.07-2.75-4.24-2.1-7.85,2.03-10.8,3.52-.37,5.05-3.27,7.11-5.53,15.39-16.9,40.75-8.54,50.04,5.79,4.43,6.82,1.96,16.21-4.64,23.87-12.63,14.66-28.3,17.65-46.23,12.74Z" style="fill: #d2d2d3; stroke-width: 0px;"/>
  <path d="M828.45,620.09c-1.29,3.48-2.22,7.04-2.03,10.8-2.18,4.01-.7,8.32-1.02,12.48-.22,1.52-.44,3.04-.68,4.7-5.23-2.32-4.61-7.51-5.25-11.53-2.9-18.28,7.16-36.2,24.98-43.27,2.44-.97,4.83-2.13,7.11.27-5.29,2.97-10.8,5.64-14.32,10.92-5.3,3.88-7.47,9.52-8.79,15.64Z" style="fill: #16214a; stroke-width: 0px;"/>
  <path d="M860.75,562.37c-2.6-.01-5.19-.03-7.79-.04,2.61-1.93,5.2-1.94,7.79.04Z" style="fill: #1a5fc2; stroke-width: 0px;"/>
  <path d="M977.05,154.1c10.91,22.58,19.02,46.28,27.38,69.85,9.91,27.91,20,55.8,26.21,84.87.48,2.26.92,4.56,1.02,6.85.44,10.56-2.06,13.52-12.7,13.78-13.19.32-26.39.15-39.59.13-59.77-.07-119.54-.15-179.3-.23-2.4-3.49-1.67-7.54-1.59-11.28.89-38.45,2.74-76.85,5.69-115.19.81-10.52,1.62-21.14,4.68-31.31,3.22-10.7,6.67-13.13,17.68-13.84,32.47-2.09,64.99-2.34,97.5-3.08,14.96-.34,29.87-2.08,44.87-1.83,2.81.05,5.7-.79,8.16,1.29Z" style="fill: #e1e1e1; stroke-width: 0px;"/>
  <path d="M795.93,320.67c-.77,2.14.42,4.69-1.35,6.62-13.73-2.93-12.33-14.62-12.72-23.96-1.01-24.23.7-48.45,2.45-72.64,1.34-18.5,2.12-37.05,3.42-55.55.9-12.83,2.44-25.61,4.88-38.26,1.08-5.61,3.96-7.86,10.09-7.99,32.76-.72,65.57-1.11,98.23-3.37,17.25-1.2,34.55.21,51.76-2.2,6.97-.98,12.57,2.56,13.55,10.62-8.06,1.88-16.41,1.84-24.48,1.89-20.66.13-41.25,1.47-61.88,2.03-20.63.56-41.24,1.74-61.88,1.9-17.03-1.4-16.89-1.4-17.13,15.56-.24,17.27-2.91,34.38-3.57,51.65-.66,17.23-2.71,34.4-2.64,51.68.04,11.57-1.06,23.09-1.07,34.66,0,4.21,1.09,8.1,3.19,11.74,1.16,5.29,2.23,10.58-.86,15.63Z" style="fill: #1e60b1; stroke-width: 0px;"/>
  <path d="M795.93,320.67c-.14-5.31-.29-10.62-.43-15.93-2.32-3.16-2.13-7.02-1.95-10.45,1.8-33.74,2.83-67.53,5.88-101.2.26-2.85.84-5.62,1.77-8.32,2.07-5.37,1.8-11.16,2.91-16.72,2.22-11.08,11.24-19.69,22.6-19.43,25.08.57,50.09-1.19,75.09-2.13,20.35-.76,40.81.18,61.1-2.31,3.35-.41,6.76-.52,9.48,2.13,1.86,2.41,4.14,4.57,4.66,7.78-13.95,3.17-28.3,2.12-42.31,2.46-28.12.67-56.24,3.12-84.39,2-9.87-.39-19.47,2.25-29.31,1.68-3.61-.21-5.39,2.27-7.16,5.03-4.06,6.34-4.88,13.68-5.65,20.71-1.68,15.33-2.26,30.77-3.46,46.16-2.11,27-3.34,54.02-3.34,81.11,0,5.27-1.41,10.68-1.37,16.1-6.01-.69-1.41-6.42-4.13-8.67Z" style="fill: #b5b6bb; stroke-width: 0px;"/>
  <path d="M972.39,146.31c-33.65,1.46-67.33,2.2-100.98,3.44-14.9.55-29.81.64-44.71,1.09-10.42.31-18.52,7.73-20.54,17.83-1.09,5.43.07,11.3-3.02,16.33-4.25-10.07-.87-28.28,7.41-34.83,4.11-3.25,3.53-8.52,7.02-11.66,1.79-1.22,3.79-1.42,5.9-1.47,20.11-.54,40.22-1.02,60.32-1.75,22.4-.81,44.8-1.86,67.2-2.8,5.15-.21,10.33-.55,15.27,1.44,1.75,4.27,6.16,7.22,6.13,12.38Z" style="fill: #9497a4; stroke-width: 0px;"/>
  <path d="M817.56,138.52c-.73,5.59.76,12.14-7.48,14.06-2.38.55-3.27,3.73-3.83,6.37-1.8,8.59-3.49,17.19-3.13,26.05-2.81,16.59-3.06,33.4-4.17,50.13-1.53,23.18-2.34,46.41-3.46,69.61-5.33-1.88-4.02-7.23-4.06-10.49-.2-17.16-.18-34.38,1.16-51.47,2.01-25.64,2.3-51.4,5.59-76.96,1.02-7.89.39-16.01.37-24.02-.01-5.09,2.26-7.66,7.17-5.77,3.89,1.5,8.45-.8,11.83,2.5Z" style="fill: #2c3c6c; stroke-width: 0px;"/>
</svg>