<?xml version="1.0" encoding="UTF-8"?>
<svg id="Layer_1" data-name="Layer 1" xmlns="http://www.w3.org/2000/svg" viewBox="0 0 1278.75 1278.13">
  <path d="M857.18,543.08c-.47.16-.64.47-.52.96-2.05,4.74-5.61,8.31-9.19,11.88-55.26,55.3-110.63,110.48-165.78,165.9-7.12,6.31-14.45,12.2-24.61,12.54-3.04-.91-5.96-2.25-9.25-2.21-14.48.19-25.86-6.09-35.92-16.19-59.08-59.31-118.38-118.4-177.5-177.68-15.81-15.85-19.75-34.62-12.16-55.68.98-2.72,1.23-5.75,3.04-8.16,17.26-24.02,57.56-23.83,74.62-1.44-4.39,1.9-8.3-.41-12.26-1.56-6.36-1.84-12.57-1.96-18.75.52-2.28.91-4.48,2.12-4.87,4.8-.42,2.85,1.62,4.41,3.81,5.49,15.6,7.68,26.94,20.6,39.24,32.24,18.91,17.89,36.58,37.04,55.27,55.16,4.84,4.69,10.74,6.69,17.19,7.58,2.67.37,5.53.88,7.22-1.84,1.45-2.33.05-4.57-1-6.75-2.13-4.41-6.39-8.11-4.59-13.83,1.44-1.59,3.05-.86,4.16.15,3.6,3.26,7.11,2.66,10.75.2,3.44-4.76,2.39-10.25,2.39-15.46.08-81.95.23-163.89-.09-245.84-.07-17.74,2.48-34.4,12.17-49.54,18.74-17.82,46.41-19.14,63.54-3.05-2.4,3.56-5.99,2.74-9.41,2.56-5.84-.31-11.73-.87-17.33,1.45-2.24.93-4.34,2.17-4.59,4.99-.25,2.81,1.53,4.37,3.62,5.71,1.57,1.01,3.29,1.74,5,2.48,8.85,3.8,13.84,10.61,15.19,19.99,1.29,8.94,2.43,17.89,2.42,26.99-.09,76.62-.03,153.25-.08,229.87,0,9.37.9,18.63,3.27,27.65,2.46,9.38,9.32,14.36,18.66,14.39,7.02.02,8.69-1.98,7.12-8.65-.6-2.55-2.07-4.96-1.09-7.73,5.8-.81,8.96-5.46,12.61-9.12,25.89-25.96,51.63-52.08,77.44-78.12,10.41-10.5,22.04-18.36,37.81-16.98.97,4.21-2.41,5.53-5.01,7.02-6.32,3.61-11.61,8.38-16.7,13.51-17.07,17.19-34.22,34.29-51.37,51.4-5.28,5.27-9.77,11.15-15.34,18.66,4.98-2.25,7.27-4.98,9.8-7.38,18.29-17.43,35.18-36.28,54.32-52.87,6.97-6.04,13.4-10.8,22.39-4.06,1.24.93,2.96,1.17,4.47,1.69,14.26,4.96,17.32,9.55,16.94,24.7-.33,13.33-4.77,24.44-14.52,34.1-49.72,49.27-98.99,99.01-148.71,148.28-8.63,8.55-17.63,16.86-28.57,25.02,7.46.9,13-.77,18.07-4.12,4.89-3.24,9.19-7.21,13.35-11.37,53.42-53.48,106.9-106.91,160.3-160.41,4.91-4.92,10.19-9.36,15.68-13.56,2.66-2.03,5.56-4.51,9.3-1.85-1.79,7.35-7.74,11.86-11.97,17.55Z" style="fill: #c7d8e8; stroke-width: 0px;"/>
  <path d="M995.94,947.45c-.11.55-.22,1.09-.32,1.64-3.93,2.26-6.69,6.55-11.8,6.81-23.29,3.53-46.73,2.01-70.11,2.03-191.08.11-382.17.03-573.25.13-16.97,0-32.04-3.74-44.02-16.73-7.95-8.63-12.57-18.51-12.62-30.18-.22-46.57-.17-93.15-.04-139.72.04-12.93,6.09-23.47,13.57-33.41,6.35-5.89,13.71-9.35,22.48-9.48,2.38,3.69,2.52,4.01-.93,6.95-4.25,3.62-8.65,7.05-12.68,10.95-8.63,8.36-12.37,18.68-11.63,30.34,2.47,39.11.55,78.26,1.28,111.15.42-26.07-.76-58.39.53-90.67.47-11.76,4.6-22.3,11.83-31.67,4.75-6.16,10.36-9.65,18.52-8.3,9,1.48,16.31,5.11,19.56,14.21,2.26,6.31,3.12,12.91,3.16,19.62.1,19.42-.61,38.87,1.6,58.24.33,2.9.44,5.83.94,8.73,3.61,20.97,10.14,27.29,31.49,29.01,13.24,1.07,26.49,2.05,39.84,2.04,153.64-.15,307.29-.1,460.93-.1,4.52,0,9.05.04,13.57-.34,10.65-.89,19.34-4.32,21.33-15.97-16.71-5.82-34.27-6-52-5.98-148.58.18-297.17.1-445.75.09-7.46,0-14.93-.62-20.9,5.5-2.18,2.24-5.59,2.23-8.27.72-4.52-2.56-9.46-4.81-11.68-10.1,83.61-.06,167.22-.11,250.83-.18,3.72,0,7.45-.15,11.17-.23,36.36.11,72.72.29,109.08.29,32.91,0,65.81-.19,98.72-.29,3.37-2.77,7.44-2.26,11.33-2.27,9.2-.02,18.4-.25,27.59.17,6.99-.44,14.1.77,20.97-1.45,6.72-3.09,6.23-9.4,6.3-15.09.26-19.93.61-39.88-.05-59.8-.59-17.88,4.11-33.56,15.53-47.26,6.49-5.06,13.75-8.15,22.04-8.58,2.08,3.47-.47,5.45-2.53,7.45-2.48,2.41-5.41,4.32-8.04,6.56-10.31,8.8-16.08,19.76-15.56,33.53.87,22.87.61,45.74.63,68.62,0,2.86.29,5.75,0,7.15.07-13.98-.11-29.41.06-44.84.16-14.66,3.14-28.53,12.22-40.55,4.99-6.61,11.02-10.67,19.83-8.92,9.21,1.84,16.49,5.83,19.35,15.58,1.52,5.17,2.19,10.39,2.19,15.75,0,35.68.02,71.35-.01,107.03,0,2.93-.13,5.85-.53,8.76-3.58,26.03-14.81,37.12-41.12,39.1-41.45,3.12-82.96,1.5-124.46.92-4.79-.07-9.52.69-14.32.67-37.54-.1-75.08.35-112.61-.19-28.41-.41-56.83,1.24-85.24-.56-5.01-.32-10.04.75-15.12.74-60.15-.08-120.3.25-180.45-.21-21.98-.17-43.98,1.3-60.42.07,9.87.41,25.29.63,40.66-.27,6.45-.38,12.72.5,19.08.48,60.69-.15,121.39.15,182.08-.19,24.96-.14,49.94-.16,74.9-.27,23.12-.1,46.29.31,69.43.31,68.39.01,136.78.23,205.17-.06,4.52-.02,9.08-.22,13.55.56,14.63,2.56,27.98-.38,40.26-8.78,3.15-2.16,6.55-5.08,10.84-1.99-.94,5.33-5.98,8.07-8,12.71Z" style="fill: #c9d9e9; stroke-width: 0px;"/>
  <path d="M1003.94,934.74c-4.55-.73-7.37,2.6-10.57,4.75-12.48,8.38-25.88,11.64-40.75,8.3-2.55-.57-5.3-.34-7.95-.34-37.8-.02-75.6-.02-113.4-.02-49.92,0-99.85.41-149.76-.19-21.66-.26-43.29.74-64.94.2-41.63-1.05-83.26.28-124.9-.35-26.02-.39-52.12.03-78.19.3-20.36.21-40.72.21-61.08-.05-6.69-.09-13.36-1.3-21.37-2.13,4.3-3.64,8.15-2.51,11.61-2.51,193.26-.06,386.51-.05,579.77-.06,9.55,0,18.96-1.41,28.33-3.15,15.41-2.86,24.24-12.34,27.16-27.46,1.15-5.96,1.98-11.96,1.95-18.13-.19-36.2-.04-72.4-.12-108.61-.03-15.81-5-21.99-19.17-25.7-6.94-1.81-11.69.65-15.99,5.71-10.56,12.42-13.47,27.45-14.21,42.94-.65,13.54-.16,27.15-.12,40.72.01,3.71-.04,7.35-3.21,11.59,0-10.07-.35-18.99.07-27.88.89-18.89-1.39-37.66-1.77-56.5-.33-16.66,6.97-28.81,19.88-38.6,3.31-2.51,8.68-3.65,8.89-9.32,26.85-5.82,55.24,17.09,55.66,46.37.68,46.58.28,93.17.08,139.76-.03,7.14-1.51,14.26-5.89,20.34Z" style="fill: #dce8f2; stroke-width: 0px;"/>
  <path d="M696.88,560.99c2.54,5.8,8.65,11.62,2.53,17.97-4.12,4.28-19.81.04-24.89-5.58-3.56-3.94-5.07-8.76-5.84-13.7-1.06-6.77-2.02-13.64-2.03-20.47-.14-79.48-.09-158.96-.11-238.44,0-8.22-1.55-16.26-2.85-24.33-1.38-8.57-6.5-13.6-14.46-16.24-1.75-.58-3.36-1.58-5.1-2.23-3.85-1.44-4.93-4.23-4.79-8.16.14-4.07,2.88-5.34,5.88-6.61,6.88-2.9,14.12-2.44,21.18-1.56,2.74.34,5.15.13,7.7-.33,16.43,12.34,19.49,29.57,19.41,48.86-.37,87.06-.15,174.13-.09,261.19,0,3.53-1.28,7.72,3.45,9.65Z" style="fill: #eef4fa; stroke-width: 0px;"/>
  <path d="M506.85,478.91c-3.52-53.99,12.14-103.6,35.92-150.91,12.53-24.93,29.67-46.93,51.89-64.44,2.21,5.31-2.49,7.98-4.46,11.7-9.65,13.09-15.01,28.15-18.78,43.66-6.6,27.16-9.33,54.89-11.27,82.76-2.73,39.23-3.36,78.49-3.12,117.78.01,1.86-.12,3.72-.65,5.51-3.1,5.7-5.84,1.27-7.91-.69-9.63-9.11-18.91-18.58-28.2-28.03-5.14-5.23-11.22-9.8-13.42-17.34Z" style="fill: #164890; stroke-width: 0px;"/>
  <path d="M869.15,525.53c-8.96,1.05-14.35,7.83-20,13.45-55.69,55.32-111.12,110.89-166.62,166.4-7.47,7.47-15.67,13.34-26.7,14.31-2.36.21-4.57.31-5.69-1.51-1.73-2.82,1.33-3.41,2.93-4.5,9.89-6.78,18.45-15.2,26.87-23.55,49.17-48.67,97.7-97.97,147.06-146.44,11.9-11.68,16.08-24.88,15.29-40.61-.38-7.57-3.49-13.08-11.44-15.25-4.82-1.31-9.66-2.68-13.91-5.72-5.08-3.64-8.78.83-11.82,3.51-13.55,11.93-26.79,24.19-39.11,37.44-7.4,7.96-15.41,15.37-23.25,22.9-2.27,2.18-5.03,3.73-9.18,4.13,2.48-8.31,8.26-13.89,13.53-19.32,19.82-20.44,40.26-40.26,60.18-60.6,5.25-5.36,13.4-6.67,17.45-13.42,1.6.04,3.2.09,4.8.13,6.57,5.23,14.49,6.67,22.46,7.92,20.31,12.32,27.55,37.98,17.14,60.7Z" style="fill: #e6eff6; stroke-width: 0px;"/>
  <path d="M589.8,273.08c1.04-3.47,4.54-5.68,4.86-9.52,1.51-1.55,3.02-3.09,4.53-4.64,1.72,1.84,1.33,4.04.67,6.02-3.11,9.29-2.61,18.89-2.61,28.45,0,83.21.02,166.41-.05,249.62,0,4.93,1.16,10.2-2.55,14.54-6.09,7.41-8.77-.96-12.87-2.79-5.21-1.6-8.5-5.05-9.91-10.32-.39-38.86-1.76-77.71.76-116.54.57-8.78.26-17.57.33-26.35.22-31.15,2.11-62.2,5.12-93.2,1.23-12.65,4.81-24.51,11.72-35.26Z" style="fill: #071d43; stroke-width: 0px;"/>
  <path d="M573.93,546.3c2.62,2.82,5.24,5.64,7.86,8.46.17,4.77,2.87,8.42,5.33,12.19,2.07,3.17,4.31,6.76,1.84,10.27-2.4,3.4-6.31,2.59-10.2,2.07-13.14-1.76-21.15-10.66-29.57-19.56-13.14-13.88-26.61-27.47-40.38-40.73-13.68-13.17-26.33-27.62-43.96-36.13-5.76-2.78-5.28-8.38.6-11.6,6.27-3.44,13.1-4.21,20.04-2.51,4.87,1.19,9.63,2.82,14.43,4.26,2.31,1.97,4.62,3.93,6.92,5.9,15.65,16.29,31.33,32.56,47.94,47.9,9.79,3.15,13.17,12.59,19.14,19.49Z" style="fill: #f6fafc; stroke-width: 0px;"/>
  <path d="M425.3,474.45c1.31,6.16-2.53,11.26-3.61,16.95-3.34,17.65,1.2,32.64,13.72,45.19,59.82,59.93,119.74,119.75,179.57,179.66,9.09,9.1,19.77,14.12,32.74,13.96,3.5-.04,6.99,0,9.25,3.39-3.45,5.53-9.38,4.44-14.14,4.21-13.74-.67-25.95-5.94-35.76-15.72-59.59-59.42-119.17-118.84-178.45-178.57-11.91-12-17.91-26.91-16.47-44.26.29-3.5.74-6.88,2.72-9.88,1.48-2.21,2.47-4.7,3.93-6.92,2.89-2.09,2.84-6.56,6.51-8.01Z" style="fill: #6b8caf; stroke-width: 0px;"/>
  <path d="M890.26,862.54c-13.29,0-26.59,0-39.88,0-4.55-5.91-2.56-11.68.04-17.7,12.16-28.22,28.32-53.69,50.54-75.15,5.68-5.49,10.95-11.42,16.4-17.15,2.14,5.1-.89,8.56-3.81,12.07-9.45,9.92-13.51,22.54-17.07,35.23-4.44,15.85-5.09,32.36-7.24,48.6-.64,4.81,1.93,9.32,1.02,14.11Z" style="fill: #113e7f; stroke-width: 0px;"/>
  <path d="M594.66,557.54c.03-89.12.13-178.24.02-267.36-.01-10.72.52-21.2,4.52-31.26,4.01-4.69,5.32-11.49,11.38-14.58.49,3.32-.46,6.3-2.1,9.13-5.78,9.95-7.33,20.88-7.33,32.13-.01,86.87.02,173.75-.06,260.62,0,4.71,1.72,10.97-6.42,11.33Z" style="fill: #7c9aba; stroke-width: 0px;"/>
  <path d="M912.94,763.9c1.47-3.79,2.94-7.57,4.41-11.36,4.78-5.34,7.74-12.39,14.7-15.68-.73,2.24-.98,4.83-2.28,6.68-8.62,12.24-11.26,25.83-10.91,40.59.5,20.94.3,41.9.02,62.84-.08,5.83.35,12.74-8.19,13.96-2.29-2.65-2.16-5.91-2.17-9.07-.07-24.66-.14-49.32.04-73.98.04-5.04.31-10.15,4.38-13.98Z" style="fill: #8da9c5; stroke-width: 0px;"/>
  <path d="M852.01,464.83c-9.04,1.76-17.04.56-22.46-7.92,8.5-.21,15.92,2.61,22.46,7.92Z" style="fill: #c7d8e8; stroke-width: 0px;"/>
  <path d="M418.8,482.46c-.32,2.39-1.21,4.54-2.75,6.42-.71.7-1.38.66-2-.12.58-1.54,1.16-3.07,1.74-4.61,1.01-.56,2.01-1.12,3.01-1.68Z" style="fill: #0f3d7f; stroke-width: 0px;"/>
  <path d="M380.56,862.94c1.9.8,4.54,1.06,5.59,2.49,5.99,8.23,11.54,8.9,18.06.42,2.26-2.93,6.56-1.43,9.94-1.43,150.7-.05,301.4-.04,452.1-.04,7.72,0,15.44,0,23.16,0,6.32,0,12.34-.06,18.35,3.51,4.97,2.95,11.21,1.97,16.72-.79-2.62,16.92-11.25,24.2-29.48,24.36-21.83.19-43.67.04-65.5.05-139.78,0-279.57.08-419.35-.14-12.11-.02-24.31-1.43-36.3-3.28-11.91-1.84-20.15-8.15-22.65-21.2-3.41-17.82-4.08-35.72-4.27-53.75-.13-12.18,1.08-24.41-1.48-36.55-1.68-8-5.54-13.91-13.61-15.91-13.24-3.29-15.38-1.82-22.92,8.01-9.15,11.93-10.97,25.84-11.27,39.81-.63,29.81-.16,59.64-.25,89.46,0,2.71,1.17,5.86-2.18,8.5-1.63-2.52-.92-5.14-.92-7.52-.06-26.36-.13-52.72,0-79.08.08-14.33-1.88-28.51-2.64-42.77-.97-18.1,8.5-30.99,22.62-41.29,2.19-1.6,8.27-1.49,5.56-7.26,19.84-5.43,44.71,8.5,53.17,29.81,2.76,6.96,4.18,14.16,4.16,21.69-.05,24.66,0,49.32.09,73.98.01,3.31-.92,7.13,3.32,8.94Z" style="fill: #dce8f2; stroke-width: 0px;"/>
  <path d="M845.52,568.75c-5.98,14.28-15.13,26.67-23.71,39.37-18.56,27.45-39.38,53.13-61.01,78.21-25.63,29.72-52.51,58.28-79,87.21-19.41,21.21-38.77,42.48-63.29,57.69-36.5,22.63-72.98,27.58-112.55,1.15-22.76-15.2-40.8-35.43-58.95-55.51-12.79-14.15-25.55-28.33-37.79-42.95-22.29-26.62-45.65-52.81-56.91-86.49-9.63-28.79-7.06-57.39,5.1-85.27,10.66-24.43,26.05-45.43,44.99-63.97,2.03-1.99,3.68-4.73,7.17-4.44.34.71.35,1.42.1,2.16-2.72,4.01-5.3,8.15-9.43,10.96-17.82,19.84-29.65,42.79-35.05,68.87-5.98,28.88,2,54.74,17.92,78.76,13.87,20.92,30.64,39.54,46.62,58.77,19.39,23.34,39.24,46.33,60.45,67.98,11.1,11.33,22.93,22.14,36.29,31.14,25.41,17.1,51.86,18.6,79.77,7.22,16.07-6.55,29.66-16.65,42.01-28.5,30.55-29.31,59.44-60.27,87.99-91.49,36.63-40.06,72.7-80.69,102.78-126.14,1.49-2.24,2.59-5.57,6.5-4.73Z" style="fill: #154e9d; stroke-width: 0px;"/>
  <path d="M680.77,719.94c.26-.45.45-.98.8-1.34,57.91-57.9,115.84-115.78,173.78-173.66.37-.37.87-.6,1.31-.9-.55,1.8-1.1,3.6-1.65,5.4-1.98,3.16-3.52,6.59-5.95,9.46-27.35,31.58-56.03,61.9-84.91,92.07-17.85,18.66-36.68,36.36-54.05,55.43-15.43,16.94-31.72,33-47.9,49.17-10.07,10.06-21.83,17.75-34.94,23.44-23.28,10.09-44.09,5.92-63.04-10.32-27.36-23.46-50.89-50.61-74.75-77.44-22.45-25.24-44.65-50.69-67.3-75.75-6.78-7.5-13.35-15.22-19.28-23.41-17.14-23.69-16.58-49.07-6.52-75.15,2.2-5.71,5.4-10.97,8.94-15.99,1.08-1.53,1.78-3.37,4.2-2.73,2.43,3.43.49,6.69-.58,9.85-7.67,22.63-4.3,42.48,12.78,60.23,17.68,18.36,35.23,36.87,52.48,55.63,27.33,29.71,55.11,58.98,82.71,88.43,11.07,11.81,22.53,23.26,34.71,34.02,16.71,14.77,34.79,14.62,53.37,5.6,14.77-7.17,26.24-18.71,35.79-32.06Z" style="fill: #0a2651; stroke-width: 0px;"/>
  <path d="M848.7,557.55c2.11-2.7,3.3-6.11,6.31-8.1-1.7,7.16-5.61,13.22-9.5,19.31-10.13,13.87-19.86,28.05-30.48,41.52-13.6,17.25-27.67,34.14-41.98,50.81-24.72,28.79-50.65,56.48-77.03,83.78-23.79,24.62-46.19,50.52-74.83,70.04-25.56,17.42-65.94,18.62-91.8,1.65-25.07-16.45-45.42-37.93-64.85-60.42-14.72-17.04-29.79-33.78-44.23-51.06-19.33-23.13-40-45.36-51.76-73.86-11.44-27.73-8.77-55.01,2.6-81.86,5.8-13.71,13.44-26.5,22.32-38.5,1.76-2.37,3.57-4.63,6.25-6.01,2.32,4.02-1.04,6.51-2.78,9.16-9.61,14.65-16.27,30.45-19.5,47.69-3.88,20.74-.22,40.19,9.95,58.53,12.5,22.54,30.41,40.94,46.64,60.6,20.99,25.42,42.97,49.99,65.11,74.39,13.04,14.36,26.77,28.08,42.86,39.25,28.41,19.71,56.83,17.83,85.2.43,23.89-14.65,42.05-35.76,61.07-55.79,4.94-5.2,9.85-10.44,14.84-15.6,51.23-52.94,101.25-106.94,145.56-165.95Z" style="fill: #154b97; stroke-width: 0px;"/>
  <path d="M680.77,719.94c-2.27,10.49-11.09,16-18.11,22.5-9.62,8.91-21.08,14.54-34.44,17.01-12.56,2.32-23.5-.43-32.93-7.73-15.98-12.37-30.19-26.75-43.14-42.32-1.02-1.23-2.14-2.37-3.29-3.48-33.16-31.88-62.67-67.24-94.79-100.13-12.75-13.06-25.87-25.9-37.59-40.04-13.61-16.42-16.42-34.37-10.67-54.35,1.24-4.3,3.66-8.32,3.44-13.01-.92-1.06-.84-2.11.06-3.13.08-.5.16-.99.26-1.49,1.5-1.67,2.99-3.33,4.48-5,.67.04,1.33.08,2,.12-5.5,21.82.55,40.01,16.4,55.79,58.77,58.49,117.26,117.27,176.02,175.78,13.49,13.43,29.57,18.98,48.51,13.15,9.22-2.31,16.77-7.54,23.8-13.66Z" style="fill: #031737; stroke-width: 0px;"/>
  <path d="M297.35,738.01c.49,3.14-.86,5.75-2.56,8.16-6.39,9.01-8.74,18.99-8.69,30.01.23,43.91.06,87.82.14,131.73.05,27.26,20.4,47.42,48.08,47.46,64.13.09,128.27.04,192.4.04,144.23,0,288.47-.05,432.7.14,9.06.01,17.88-2.77,26.95-1.56.25,1.11-.04,2.06-.86,2.84-6.53,5.26-14.35,6.69-22.38,7.37-3.45.29-6.92.17-10.37.17-206.23,0-412.47-.09-618.7.15-20.45.02-36.81-6.81-49.24-22.98-5.32-6.91-8.94-14.57-8.97-23.44-.19-47.9-.24-95.8.02-143.7,0-1.33.18-2.65.4-3.96,1.29-4.52,2.3-9.17,5.09-13.12,2.87-4.68,5.53-9.52,8.7-13.99,1.74-2.44,3.53-5.41,7.3-5.33Z" style="fill: #89a6c3; stroke-width: 0px;"/>
  <path d="M281.35,757.33c-.98,3.79-1.96,7.59-2.94,11.38-1.4-.08-2.78.36-4.19.2-.29-.19-.59-.39-.88-.59.07-3.95,5.11-5.34,4.86-9.45.67-1.29,1.88-1.48,3.15-1.54Z" style="fill: #02204e; stroke-width: 0px;"/>
  <path d="M912.94,763.9c-3.66,20.3-1.14,40.79-1.77,61.18-.37,11.94-.33,23.9-.47,35.85-6.54,3.96-13.61,1.17-20.43,1.62-2.86-4.12-3.75-8.75-3.16-13.63,2.51-20.9,3.31-42.14,11.23-62.01,2.84-7.11,6.51-13.91,10.06-20.72.75-1.45,1.62-4.42,4.56-2.29Z" style="fill: #051b3e; stroke-width: 0px;"/>
  <path d="M573.93,546.3c-6.38-6.5-12.76-13-19.14-19.49-.02-24.2-1.03-48.44.14-72.58,2.21-45.61,3.05-91.46,14.26-136.11,4.06-16.15,8.99-32.2,20.61-45.03-8.21,20.18-10,41.39-11.39,62.91-1.75,27.03-1.97,54.07-3.21,81.08-1.98,43.09-.78,86.15-1.28,129.22Z" style="fill: #0b2e63; stroke-width: 0px;"/>
  <g>
    <g>
      <path d="M94.54,936.24c8.08,9.2,12.64,20.6,19.14,30.8,15.36,24.11,32.11,47.12,50.84,68.69,1.97,2.27,3.98,4.28,3.51,7.58-12.37-10.55-21.21-24.1-31.12-36.72-14.72-18.74-27.08-39.05-39.26-59.47-.79-1.32-1.03-2.96-1.52-4.46-.88-2.05-3.5-3.66-1.6-6.4l.02-.02Z" style="fill: #022356; stroke-width: 0px;"/>
      <path d="M185.64,1062.45c10.4,5.33,16.55,15.34,25.03,22.8,2.31,2.03,5.21,3.89,5.33,7.57-5.39-.67-7.84-5.31-10.95-8.68-6.56-7.14-15.3-12.36-19.42-21.68Z" style="fill: #022356; stroke-width: 0px;"/>
      <path d="M168.03,1043.32c6.78,3.53,12.91,7.65,14.42,15.95-5.39-4.79-11.78-8.68-14.42-15.95Z" style="fill: #022356; stroke-width: 0px;"/>
      <path d="M94.52,936.26c.53,2.13,1.07,4.27,1.6,6.4-3.19-1.71-4.23-4.72-4.79-8,1.07.53,2.13,1.07,3.2,1.6Z" style="fill: #032353; stroke-width: 0px;"/>
      <g>
        <path d="M986.15,955.43c.14-.47.22-.94.22-1.43,3.05-1.7,5.17-5.14,9.25-4.91-.85,2.15-3.32,3.43-3.24,6.07-1.32,2.84-2.92,5.5-4.91,7.94-19.14,26.63-46.35,38.85-77.75,43.79-26.63,4.19-53.64,5.72-80.31,4.81-50.3-1.72-100.57-1.43-150.82-.72-41.49.58-83.02-.1-124.45,1.61-33.53,1.39-67.07-.34-100.51,1.46-31.13,1.68-62.28-.04-93.32,1.73-17.78,1.02-35.58.99-53.37,2.3-19.34,1.43-38.42-.72-52.7-16.89-10.66-12.07-14.53-26.59-14.96-41.98-.79-27.93,1.81-55.76,4-83.59,1.5-19.11,3.51-38.14,7.31-56.95,3.67-18.19,9.38-35.5,21.33-50.17.47-.04.94-.1,1.41-.17,0,0,.25.22.25.22,2,2.44,1.23,5.08.32,7.57-7.09,19.59-7.69,40.21-8.9,60.6-1.5,25.21-2.16,50.48-1.99,75.76.08,11.64-1.92,23.18-.03,34.98,3.99,24.9,19.3,38.89,44.46,39,67.05.28,134.1-1.21,201.14-1.9,126.94-1.3,253.88-.93,380.81-1.44,16.7-.07,33.42-1.9,50.1-3.73,18.76-2.06,33.44-11.43,46.66-23.96Z" style="fill: #02204e; stroke-width: 0px;"/>
        <path d="M987.78,960.28c1.53-1.71,3.07-3.41,4.6-5.12-1.86,14.05-9.22,25.94-15.71,38.01-15.23,28.34-36.5,51.33-63.81,68.49-22.18,13.94-46.47,22.49-72.29,26.29-20.4,3-40.93,4.57-61.63,5.23-27.01.86-54.02,2.12-81.03,3.1-24.88.9-49.78,1.98-74.64,3.28-18.76.98-37.56,1.38-56.3,2.87-26.97,2.15-54.11,1.55-81,3.72-30.86,2.48-61.85,2.5-92.63,5.87,8.17-6.5,18.33-6.25,27.83-7.81,11.19-1.84,22.38-2.69,33.19-7.08,7.15-2.9,15.45-3.6,23.3-4.04,14.32-.79,28.19-3.74,42.23-6.34,17.34-3.22,35.17-3.79,52.55-6.85,28.37-5,57.17-6.04,85.61-10.54,15.02-2.38,30.44-3.27,45.8-3.94,22.92-1,45.75-3.97,68.64-5.86,11.34-.93,22.73-.81,34.11-1.61,40.73-2.87,80.41-9.34,116.92-28.9,14.13-7.57,26.55-17.43,37.8-28.81,1.35-1.36,2.47-2.79,2.45-4.82-1.06-3.19,1.57-4.7,3.1-6.67,7.23-9.3,14.4-18.63,20.91-28.46Z" style="fill: #266aca; stroke-width: 0px;"/>
        <path d="M987.78,960.28c-5.46,13.45-15.05,24.08-24.01,35.13-16.87,14.76-34.78,27.82-56.55,34.59-22.86,7.11-46.18,10.6-70.15,11.96-48.12,2.73-96.24-.11-144.32,1.53-34.73,1.18-69.47,2.08-104.18,3.44-15.91.62-31.84.3-47.71,1.23-33.64,1.97-67.34,2.09-100.98,3.57-17.25.76-34.49.38-51.71,1.21-37.58,1.81-75.12,5.55-112.76,4.59-41.51-1.06-61.79-24.27-63.71-60.99-2.92-56.18,5.25-111.45,23.06-165.03,7.09-21.32,18.01-40.64,31.86-58.3,1.44-1.83,3.53-3.15,5.31-4.71-1.22,6.18-5.8,10.64-8.24,16.25-9.51,21.9-13.02,45.08-15.88,68.53-3.14,25.75-4.18,51.64-5.9,77.47-1.12,16.84-2.13,33.98,3.69,50.47,7.02,19.86,20.16,31.55,41.85,33.52,22.28,2.02,44.34-.42,66.48-1.58,2.12-.11,4.25-.22,6.38-.19,59.29.82,118.56-1.32,177.83-2.16,37.46-.53,74.97.66,112.37-1.27,53.17-2.74,106.35-1.64,159.47-.78,21.21.34,42.34-.55,63.47-.93,25.68-.46,51.28-3.91,75.08-14.64,14.53-6.55,25.84-17.46,35.94-29.62.99-1.19,2.2-2.2,3.3-3.29Z" style="fill: #266aca; stroke-width: 0px;"/>
        <path d="M219.19,1096.01c3.27-.4,5.35,1.51,7.55,3.57,19.04,17.88,39.2,34.39,60.86,49.02,2.47,1.67,4.92,3.17,5.11,6.54-11.66-4.75-20.79-13.33-30.4-20.95-15.03-11.93-30.72-23.23-43.11-38.18Z" style="fill: #022356; stroke-width: 0px;"/>
        <g>
          <g>
            <path d="M772.05,14.18c20.65,2.53,40.39,8.9,60.07,15.11,78.17,24.67,149.09,63.01,212.38,115.1,58.85,48.44,107.91,105.41,146.54,171.26,33.45,57.02,57.37,117.76,72.15,182.16.66,2.89,1.29,5.69.87,8.65-3.7,1.93-4.52-1.26-5.87-3.37-1.52-2.39-1.34-5.75-4.3-7.58-2.22,1.66-1.17,3.85-.9,5.76,2.71,19.23,4.16,38.6,6.61,57.86.2,1.59.41,3.21.19,4.78-.48,3.43,1.46,9.03-3.26,9.34-4.3.29-4.4-5.55-4.92-8.9-6.28-40.91-14.75-81.3-28.51-120.41-27.51-78.17-68.07-148.65-123.29-210.7-46.23-51.96-99.28-95.42-159.59-129.93-45.71-26.15-94.19-45.75-144.99-59.65-20.74-5.67-41.76-10.02-62.93-13.67-2.47-1.58-5.27-1.32-8.01-1.37-1.2-.03-2.35-.26-3.45-.75-2.66-1.28-5.52-.64-8.3-.85-1.25-.03-2.48-.15-3.62-.72-2.17-1.24-6.02-1.27-5.46-4.72.53-3.23,4.08-3.01,6.6-2.97,14.38.2,28.6,2.26,42.87,3.75,10.19,1.07,20.32,2.96,31.5,3.53-1.86-3.87-4.97-4.24-7.28-5.65-2.37-1.44-5.79-2.02-5.11-6.05Z" style="fill: #266aca; stroke-width: 0px;"/>
            <path d="M732.12,28.64c25.22,4.72,50.28,10.04,74.98,17.19,26.05,7.54,51.47,16.77,76.32,27.46,36.45,15.67,70.81,35.25,103.52,57.68,22.54,15.46,43.57,32.78,64.02,50.94,42.36,37.64,78.29,80.63,108.87,128.2,24.21,37.66,43.82,77.63,59.43,119.58,14.55,39.11,24.4,79.37,31,120.55,1.17,7.27,1.81,15.19,6.43,23.35,1.78-6.3,1.39-11.39.68-16.35-2.85-19.86-3.56-39.98-7.39-59.72-.48-2.45.33-5.35,2.65-6.12,2.75-.9,3.86,1.93,5.02,4.04,2.05,3.73.81,9.38,6.42,11.03,5.45,27.3,10.69,54.63,12.74,82.46,2.86,38.77,2.74,77.53-1.44,116.19-4.51,41.67-11.67,82.84-25.45,122.61-.99-11.25-10.13-21.27-5.04-33.43-5.15-27.02,3.7-52.92,6.4-79.3,3.72-36.28,4.97-72.71,2.91-109-3.2-56.28-14.3-111.26-33.25-164.48-15.74-44.18-36.24-86.06-60.94-125.96-30.14-48.67-67.47-91.33-109.23-130.09-32.53-30.19-68.65-55.74-106.98-78.25-49.59-29.13-102.46-50.23-157.86-64.91-28.87-7.65-58.41-12.21-88.19-15.51-29.43-3.26-58.88-3.76-88.28-2.6-32.21,1.27-64.2,5.62-95.97,11.45-16.78,3.08-33.44,6.6-50.86,6.26-9.85-.19-19.43,1.64-28.07-4.56-4.43-3.18-8.07,4.62-12.52.86,19.27-8.65,39.66-13.9,60.03-19,16.81-4.21,33.86-7.79,51-10.34,15.55-2.31,31-5.81,46.85-5.89,4.79-1.72,9.91.42,14.7-1.25,3.08-.12,6.16-.23,9.24-.35,5.88-1.89,12.06.66,17.95-1.19,8,0,16,0,24,0,8.76,14.01,7.51,16.57-8.86,18.15-1.05.1-2.06.45-3.13.22,12.53.32,25.03,1.27,37.56,1.68,12.88.43,25.94,1.01,38.39,5.23,1.05,0,2.1.01,3.16.02,2.4,1.97,5.61-.26,8.04,1.58l3.15.02c2.39,1.97,5.61-.26,8.03,1.58Z" style="fill: #266aca; stroke-width: 0px;"/>
          </g>
          <path d="M709.75,25.45c-26.68-1.79-53.37-3.59-80.05-5.38,5.09-4.74,11.1-3.72,16.47-5.48,3.14-1.03,5.53-1.6,2.18-4.82-2.93-2.81-2.53-6.19-2.56-9.6,26.39-.66,52.57,1.92,78.67,5.38,15.99,2.12,32.02,4.15,47.59,8.63,2.65,4.71,8.41,3.99,12.09,6.92,1.9,1.51,5.83,1.65,4.56,5.33-.93,2.71-3.95,2.44-6.28,2.15-9.93-1.24-19.82-2.81-29.76-3.95-15.89-1.83-31.75-4.21-47.95-3.92.1,3.97,4.17,2.45,5.05,4.73Z" style="fill: #266aca; stroke-width: 0px;"/>
          <path d="M621.78.17c-5.79,3.3-11.98.5-17.94,1.19,5.88-1.9,11.93-1.29,17.94-1.19Z" style="fill: #6194dc; stroke-width: 0px;"/>
          <path d="M594.6,1.71c-4.7,2.78-9.79.89-14.7,1.26,4.76-2,9.76-1.24,14.7-1.26Z" style="fill: #6194dc; stroke-width: 0px;"/>
          <path d="M720.94,27.04c-2.71-.35-5.78,1.09-8.04-1.58,2.71.35,5.76-1.01,8.04,1.58Z" style="fill: #266aca; stroke-width: 0px;"/>
          <path d="M732.12,28.64c-2.71-.35-5.78,1.09-8.03-1.58,2.71.35,5.76-1.01,8.03,1.58Z" style="fill: #266aca; stroke-width: 0px;"/>
          <g>
            <path d="M1249.9,827.72c-11.36,39.39-27.54,76.82-46.75,112.95-18.61,35.01-40.47,67.92-65.35,98.81-.81,1.01-1.87,1.82-2.81,2.73-1.54-1.03-1.51-2.64-1.64-4.24-.59-6.95-3.14-8.31-8.9-4-8.93,6.7-17.39,13.96-25.58,21.61-30.54,28.55-62.17,55.73-98.09,77.57-12.56,7.64-25.7,7.87-39.28,5.93-7.46-1.06-12.31-7.99-14.35-15.18-5.75-20.19,2-38.01,10.22-55.09,17.07-35.47,30.16-72.1,37.48-110.78.65-3.41.39-6.9,0-10.35,1.12-5.91,6.45-9.56,8.11-15.19,2.81-6.68,4.75-13.55,4.77-20.84.08-44.86.33-89.73-.08-134.59-.26-28.54-23.58-49.31-51.87-47.18-8.07.75-15.44,3.51-22.22,7.9-6.82,3.79-10.1,10.89-15.16,16.34-16.07,17.94-34.5,33.86-46.9,54.91-6.59,11.19-13.51,22.2-18.31,34.35-2.04,5.18-4.61,10.16-2.32,16.04,1.08,2.78-.6,4.5-3.36,5.21-10.92.81-21.83.34-32.74.36-52.43.06-104.86.03-157.28.01-3.99,0-7.99.24-11.94-.36-2.43-.95-4.99-2.07-1.3-4.59,2.45-1.68,5.47-2.03,8.39-2.35,7.68-.85,15.28-2.25,22.87-3.63,9.99-1.82,17.11-6.76,21.49-16.77,5.94-13.59,13.88-26.17,21.92-38.77,12.02-18.85,24.48-37.38,36.89-55.96,17.74-26.55,35.34-53.22,51.05-81.07,18.35-32.53,34.81-65.9,46.12-101.61,1.68-5.3,3.7-10.59,2.87-16.35.53-5.33,5.48-7.61,8.02-11.56,1.59-2.48,2.89-5.08,4.01-7.79,8.68-23.87,2.89-44-16.63-57.76-6.62-4.09-13.41-7.69-21.53-7.45-1.56.02-3.12,0-4.68-.02-16.73-1.93-28.67,7.25-39.04,18.18-23.99,25.31-48.64,49.95-73.28,74.62-3.01,3.02-6,6.06-9.69,8.27-2.86,1.72-5.75,2.94-8.87.49-3.96-4.53-2.87-10.07-2.87-15.28-.07-82.17-.05-164.35-.05-246.52,0-2.93-.07-5.85.01-8.78.51-17.44-3-33.36-17.04-45.3-12.66-14.14-37.11-16.64-54.09-5.45-2.66,1.75-5.16,3.75-7.65,5.73-5.58,3.6-7.61,10.11-11.98,14.71-1.92,1.92-3.81,3.86-5.65,5.85-51.01,45-73.46,104.25-84.26,169.23-2.08,12.52-4.95,25.11-2.02,37.97.47,2.07.16,4.25-1.03,6.16-4.88,2.04-6.3-2.4-8.86-4.72-18.83-22.09-55.45-19.61-71.65.8-3.03,2.45-4.16,6.48-7.29,8.86-1.32.93-2.77,1.55-4.3,2.03-9.65,2.78-17.57,8.83-25.8,14.14-38.13,24.58-72.41,54.1-106.47,83.86-5.53,4.83-11.35,7.08-18.54,8-10.52,1.34-20.78,4.27-31.56,1.4-10.11-2.69-19.26-6.79-27.85-12.98-10.31-7.43-21.26-14.1-32.55-19.99-16.43-8.57-29.58-21.68-45.09-31.49-26.31-16.64-35.64-43.28-41.04-71.69-4.35-22.92-2.92-46.25.24-69.15,1.84-13.33,8.01-25.92,13.76-38.19,19.98-42.62,45.43-81.79,75.06-118.36,17.09-21.1,35.73-40.82,53.43-61.37,1.74-2.02,3.44-4.09,4.9-6.3,2.28-3.44,7.03-6.76,4.9-11.01-2.21-4.41-6.61.19-10.06-.1-.82-.07-1.48-.51-2.02-1.12,18.3-17.14,38.74-31.49,59.55-45.29,42.48-28.16,87.48-51.33,135.74-67.99,8.07-3.32,15.4-.4,23.48,1.07,12.28,2.23,25.37,1.19,37.98-.76,31.29-4.82,62.33-11.23,93.94-14.08,33.16-3,66.28-3.55,99.55-1.39,35.13,2.28,69.64,7.75,103.8,16,35,8.45,68.84,20.32,101.84,34.62,45.63,19.77,87.87,45.42,127.58,75.19,25.14,18.85,48,40.32,70.03,62.74,39,39.72,71.91,83.83,98.93,132.52,31.89,57.47,54.26,118.3,67.19,182.72,9.96,49.62,12.18,99.77,10.1,150.09-1.19,28.95-5.45,57.72-9.93,86.38-1.37,8.73-1.86,17.47-.3,26.23.57,3.2.5,6.34-.06,9.52-.61,3.44-1.14,7.13.63,10.19,3.4,5.86,3.53,12.08,3.13,18.48Z" style="fill: #266aca; stroke-width: 0px;"/>
            <path d="M226.74,151.47c.27,0,.55.07.8,0,4.81-1.22,10.64-6.68,14.21-.84,2.91,4.75-2.56,9.64-5.75,13.71-14.24,18.15-30.71,34.37-45.47,52.07-21.72,26.05-42.46,52.82-60.01,81.99-16.07,26.69-30.46,54.07-40.42,83.72-1.97,5.86-1.36,11.49-2.05,17.21-3.11,25.76-2.63,51.27,4.81,76.37,4.09,13.8,10.83,26.55,18.91,38.03,4.51,6.41,12.72,11.09,19.79,15.52,10.61,6.65,19.59,15.38,30.18,21.93,9.38,5.79,19,11.22,28.19,17.28,6.61,4.36,13.39,8.8,19.97,12.91,13.03,8.14,27.79,14.34,44.31,10.08,4.33-1.12,8.69-2.1,13.31-2.06,10.59.11,15.99-8.82,22.79-14.62,29.4-25.1,58.66-50.32,91.03-71.65,9.97-6.57,19.8-13.31,30.53-18.58,1.11-.54,2.6-.29,3.92-.41,1.6,1.99.43,3.66-.59,5.36-1.69,2.13-3.28,4.37-5.71,5.79-9.11,6.26-16.12,14.61-22.92,23.14-17.66,22.14-31.68,46.19-36.31,74.54-3.63,22.24-1.13,43.9,8.19,64.75,12.13,27.15,30.95,49.67,49.82,72,24.2,28.64,48.68,57.09,75.96,82.96,11.9,11.28,25,20.89,39.9,27.54,24.11,10.77,48.58,10.42,72.79-.09,20-8.68,37.49-21.18,53.06-36.34,24.22-23.59,46.35-49.13,69.32-73.9,30.78-33.19,60.4-67.34,87.37-103.7,13.63-18.38,26.79-37.12,37.15-57.62,3.33-6.25,7.2-12.24,9.53-19,.65-1.74,1.24-3.51,2.11-5.16.42-.65.99-1.1,1.73-1.32,3.1,4.53.32,8.99-.91,12.97-9.67,31.28-22.94,61.01-38.64,89.77-11.19,20.51-22.72,40.8-35.5,60.33-16.24,24.81-33.98,48.67-49.37,73.98-12.58,20.68-27.68,39.95-36.29,63.11-3.22,8.67-12.53,11.39-21.42,13.19-10.8,2.19-22.08,1.88-32.49,6.11-3.44,3.63-7.95,2.42-12.05,2.43-71.42.08-142.84.09-214.26.02-11.4-.01-22.82,1.09-34.2-.26-6.91-1.63-6.95-7.19-6.98-12.57-.12-22.56-.05-45.11-.04-67.67,0-5.06-.32-10.06-1.32-15.03-5.19-25.76-25.96-41.52-52.44-39.71-8.4.97-15.98,4.03-22.74,9.11-5.23,2.63-8.14,7.37-10.98,12.14-1.49,2.5-2.85,5.07-5.23,6.88-1.2.89-2.48,1.65-3.71,2.5-2.91,1.89-5.69,3.99-8.84,5.49-15.98,10.04-30.5,22.18-46.8,31.8-13.67,8.06-27.81,14.36-43.54,16.92-3.5.57-6.86.43-10.26-.43-2.32-.59-4.68-1.62-7.02-1.36-19.66,2.12-31.57-11.16-42.93-23.24-20.13-21.4-35.49-46.44-47.83-73.06-16.07-34.66-32.88-69.16-39.78-107.22-3.01-16.59-1.79-33.36-.79-50.08,1.66-27.87,6.98-55.21,12.03-82.58,2.81-19.58,9.52-38.13,16.09-56.59,19.38-54.39,47.75-104.28,78.21-153.06,3.38-5.41,6.76-10.82,9.56-16.57,4.12-8.44,3.94-8.89-4.53-12.5,17.99-24.4,39.49-45.57,61.25-66.5,7.36-7.08,14.61-14.34,23.28-19.91Z" style="fill: #266aca; stroke-width: 0px;"/>
            <path d="M142.2,237.89c2.93,1.18,6.45-3.11,8.85.48,2.59,3.9.4,7.73-1.64,11.18-10.79,18.28-21.78,36.44-32.49,54.75-30.42,51.99-56.33,105.93-70.85,164.76-.57,2.29-.72,4.68-1.07,7.02-2.59,4.13-2.52,9.04-3.93,13.52-1.82,7.05-3.04,14.22-4.48,21.34-.61,3.03.11,7.08-4.05,8.58-3.12-9.4,1.21-18.11,2.91-26.93,7.86-40.81,20.99-80.09,35.67-118.87,1.13-2.99,2.14-6.01,3.01-9.08q2.84-10.03-6.87-10.03c16.47-35.52,37.76-68.08,61.01-99.43,4.41-5.94,9.27-11.54,13.93-17.29Z" style="fill: #266aca; stroke-width: 0px;"/>
            <path d="M17.39,491.9c10.03-5.75,10.67-5.71,9.88,5.78-1.21,17.63-2.96,35.26-5.4,52.76-1.13,8.14-1.39,16.34-2.08,24.44-2.09,24.57-3.15,49.31-1.82,73.95,3.52,65.44,12.65,129.92,34.91,191.99,10.58,29.52,23.07,58.19,37.66,85.95,1.59,3.02,2.68,6.31,4.01,9.47-.32.13-.63.27-.95.4-1.07-.31-1.63-1.2-2.27-1.98-3.19-3.73-5.19-8.05-6.39-12.77-3.2-5.06-5.57-10.54-8-15.99-3.17-3.74-5.18-8.06-6.37-12.79-1.34-2.55-1.72-5.5-3.21-7.99-1.29-.69-1.56-1.88-1.58-3.19-1.33-2.56-1.72-5.5-3.21-7.99-1.29-.69-1.56-1.88-1.58-3.2-1.33-2.56-1.72-5.49-3.2-7.99-1.88-1.15-1.54-3.03-1.59-4.79-1.33-2.56-1.72-5.5-3.2-8-1.88-1.15-1.54-3.03-1.59-4.79-3.58-9.46-6.63-19.1-9.58-28.77h0c-12.35-37.86-18.35-77.03-23.61-116.3-3.73-27.83-6.91-55.77-5.88-83.96.37-10.12-1.18-20.13-1.42-30.19-.13-5.6-2.41-8.11-7.33-9.23,1.41-23.04,5.48-45.69,10.04-68.26,1.12-5.55,1.04-11.4,3.79-16.58Z" style="fill: #266aca; stroke-width: 0px;"/>
            <path d="M67.27,354.61c3.47-1.09,7.25-5.55,9.94-3.53,3.83,2.87.86,8.03-.4,11.8-7.38,22.14-15.29,44.11-22.72,66.23-9.03,26.89-15.79,54.39-21.54,82.15-.53,2.56-.25,5.3-.34,7.95.61,7.43,1.54,14.94-4.78,20.78,1.04-24.06,7.01-47.32,11.58-70.8.95-4.91,2.31-9.73,3.23-14.64,1.09-5.75-5.13-11.39-11.35-10.47,9.21-31.01,21.39-60.81,36.38-89.46Z" style="fill: #266aca; stroke-width: 0px;"/>
            <path d="M3.56,576.74c9.16-3.83,8.75-3.6,9.62,6.27,1.81,20.64.26,41.36,1.68,61.93,3.84,55.8,9.6,111.39,26.14,165.23.61,1.98.55,4.16.8,6.25-7.35-16.53-10.69-34.2-14.32-51.74-6.89-33.34-10.46-67.22-16.03-100.78-.51-3.06-.36-7.21-4.79-6.74-3.57.38-4.8,3.67-4.74,7.25.05,2.92-.15,5.84-.24,8.76-2.57-22.66-1.73-45.36-.44-68.03.54-9.47.25-19.05,2.32-28.41Z" style="fill: #266aca; stroke-width: 0px;"/>
            <path d="M1.99,679.01c2.92,5.86,1.13,12.06,1.28,18.12-1.69-5.95-1.51-12.03-1.28-18.12Z" style="fill: #266aca; stroke-width: 0px;"/>
            <g>
              <path d="M40.21,488.86c.8-4.55-.68-9.97,4.79-12.77-2.28,12.99-4.63,25.98-6.84,38.98-4.85,28.53-7.44,57.32-5.65,86.19.98,15.82,6.07,31.13,11.84,46,5.53,14.26,10.39,28.84,16.93,42.63,12.08,25.47,23.32,51.55,40.22,74.32,6.59,8.88,13.16,17.97,20.69,26.09,7.95,8.58,18.11,14.5,28.15,20.4,4.45,2.61,8.74-2.08,13.19-.37,15.03,5.8,28.93.14,41.95-5.81,15.8-7.22,30.37-16.96,44.4-27.41,6.5-4.84,12.5-10.65,20.41-13.42-8.3,8.56-16.96,16.82-24.82,25.77-10.42,11.86-21.17,23.57-27.91,38.16-15.47,25.24-27.56,52.15-39.03,79.35-5.08,12.04-10.51,23.81-17.91,34.67-7.32,10.74-17.95,15.38-30.14,17.49-4.53.79-7.52-2.02-10.42-4.8-12.93-12.36-21.1-28.03-29.27-43.51-30.31-57.38-50.4-118.22-60.21-182.39-2.93-19.15-4.58-38.45-6.4-57.74-.84-28.15-1.65-56.27.59-84.4.95-11.89,1.75-23.76,3.28-35.6,2.35-18.29,7.16-36.08,10.57-54.15.48-2.52.08-5.33,1.6-7.66Z" style="fill: #266aca; stroke-width: 0px;"/>
              <path d="M25.82,672.61c3.63,7.4,2.09,15.59,2.83,23.28,5.96,61.97,21.53,121.29,46.73,178.17,10.77,24.31,22.55,48.02,38.02,69.78,2.98,4.19,6.64,7.61,10.28,11.07,6.28,5.97,12.6.58,18.32-1.13,12.75-3.82,18.9-14.92,24.5-25.84,12.12-23.63,20.54-48.98,33.22-72.35,5.27-9.71,9.69-20.05,17.84-27.96-5.37,12.68-11.15,25.2-16.02,38.07-8.75,23.13-12.71,47.39-15.98,71.79-2.4,17.89-3.78,35.82-3.11,53.85.75,20.15,2.82,40.09,12.01,59.23-4.05.12-6.22-2.37-8.62-4.59-30.64-28.28-55.91-60.82-76.91-96.77-.76-1.3-2.14-2.24-3.22-3.35,0,0,0,0,0,0-10.47-18.19-19.92-36.9-28.77-55.93h0c-15.96-35.59-28.9-72.22-37.79-110.23-6.4-27.34-11.19-54.95-13.43-82.98-.65-8.08-3.33-16.08.11-24.11Z" style="fill: #266aca; stroke-width: 0px;"/>
            </g>
            <path d="M41.8,816.42c4.29,9.23,7.63,18.77,9.58,28.77-5.19-8.93-8.28-18.55-9.58-28.77Z" style="fill: #266aca; stroke-width: 0px;"/>
            <path d="M76.93,905.91c3.76,4.78,6.37,10.14,8,15.99-4.79-4.27-7.13-9.76-8-15.99Z" style="fill: #266aca; stroke-width: 0px;"/>
            <path d="M67.34,885.13c2.57,2.06,3.31,4.86,3.21,7.99-2.53-2.07-3.28-4.87-3.21-7.99Z" style="fill: #266aca; stroke-width: 0px;"/>
            <path d="M62.55,873.94c2.57,2.06,3.31,4.86,3.21,7.99-2.53-2.08-3.28-4.87-3.21-7.99Z" style="fill: #266aca; stroke-width: 0px;"/>
            <path d="M57.77,862.76c2.56,2.07,3.3,4.86,3.2,7.99-2.53-2.08-3.28-4.87-3.2-7.99Z" style="fill: #266aca; stroke-width: 0px;"/>
            <path d="M52.97,849.98c2.56,2.07,3.31,4.86,3.2,8-2.52-2.08-3.28-4.87-3.2-8Z" style="fill: #266aca; stroke-width: 0px;"/>
            <g>
              <path d="M995.94,947.45c2.55,3.66,1.66,7.76.94,11.55-7.14,37.46-19.19,73.37-36.18,107.45-6.47,12.98-10.48,26.49-13.52,40.42-2.41,11.06,5.48,29.43,13.8,30.25,11.65,1.16,23.73,2.95,34.86-3.57,21.34-12.5,41.41-26.8,60.17-42.83,22.36-19.11,44.22-38.79,66.38-58.13,1.75-1.52,3.98-2.82,6.21-3.39,5.44-1.41,8.33,1.33,7.2,6.75-.43,2.08-1.2,4.06-.82,6.23-16.51,18.08-31.43,37.6-49.29,54.43-8.44,7.95-16.15,16.76-26.07,23.04-5.82-6.77-6.62-7.13-14.52-2.22-23.28,14.46-45.84,30.03-69.43,44-70.72,41.9-146.07,71.46-227.41,84.74-25.69,4.2-51.68,5.68-77.66,7.5-21.91,1.54-43.62.34-65.25-.88-45.48-2.56-90.3-10.03-134.07-23.21-30.15-9.08-59.38-20.47-87.73-34.05-18.47-8.85-36.57-18.56-53.17-30.68-5.19-3.79-12.25-7.11-11.32-15.11,1.15-9.89,5.34-18.76,14.59-23.51,18.9-9.72,39.17-14.9,60.36-16.47,29.86-3.22,59.96-2.68,89.83-5.83,15.86-1.68,31.87-1.34,47.78-1.9,38.78-1.37,77.44-4.63,116.25-5.49,24.95-.55,49.92-1.85,74.85-3.08,37.14-1.84,74.44-1.51,111.37-6.76,72.28-10.27,122.26-49.7,151.26-116.3,1.91-4.38,3.9-8.75,4.89-13.47.35-3.09,1.6-5.77,3.6-8.14.58-.64,1.28-1.09,2.1-1.36Z" style="fill: #266aca; stroke-width: 0px;"/>
              <path d="M393.34,1112.01c-20.77,1.75-40.69,6.89-59.29,16.25-9.08,4.57-11.47,14.12-13.62,23.21-.64,2.7,2.19,4.08,3.84,5.67,10.07,9.66,22.32,16.17,34.31,22.9,43.28,24.31,89.31,41.94,137.32,54.13,26.36,6.69,53.26,10.81,80.36,13.99,22.95,2.7,46.01,4.19,68.91,4.08,76.32-.38,150.63-12.67,222.17-40.57,46.47-18.13,90.5-40.67,132.35-67.66,15.38-9.92,30.67-19.98,46.16-29.74,9.28-5.85,12.85-4.29,13.8,5.4-8.98,7.61-17.95,15.22-26.93,22.83-15.2-4.7-26.54,4.48-38.14,11.29-54.08,31.76-110.1,59.15-170.28,77.49-11.95,3.64-24.27,5.97-35.97,10.44-15.68,5.48-32.18,6.97-48.4,9.8-44.01,7.68-88.51,7.91-132.82,6.03-48.39-2.05-96.12-10.02-142.57-24.47-33.07-10.29-65.44-22.39-96.41-37.92-46.79-23.45-90.52-51.56-129.38-86.9-44.59-40.55-86.42-83.52-119.5-134.3-3.92-6.02-7.52-12.23-11.43-18.26-1.8-2.78-4.18-5.74-2.25-9.55,4.68-.94,5.64,3.11,7.31,5.78,13.44,21.42,27.58,42.33,44.21,61.46,10.57,12.16,22.4,23.06,34.02,34.18-2.97-4.57-4.29-9.67-5.51-14.83-7.31-31.01-6.41-62.2-2.4-93.51,3.63-28.29,8.63-56.22,19.55-82.79,3.94-9.59,8.55-18.88,12.53-28.44,5.92-14.27,16.31-25.49,26.11-36.95,8.61-10.07,18.21-19.37,28.9-27.37,2.63-1.61,5.27-3.21,7.9-4.82,2.49,5.3-2.79,7.25-4.61,10.71-.64.63-1.32,1.21-2.02,1.78-17.92,20.35-29.5,44.13-37.53,69.76-10.71,34.21-15.84,69.43-19.14,105.03-1.36,14.64-1.1,29.22-1.36,43.84-.11,6.45.84,12.74,2.43,18.95,7.43,29,27.28,45.17,57.28,46.26,23.16.84,46.25-.62,69.32-2.6,15.9-1.37,31.91-1.21,47.81-1.58,25.25-.6,50.52-1.42,75.75-2.35,40.64-1.5,81.32-1.71,121.93-4.27,17.5-1.1,35.07-.8,52.62-1.6,58.22-2.65,116.51-1.34,174.77-2.08,33.54-.42,66.95-3.38,98.75-15.85,15.1-5.92,28.18-14.86,40.6-25.01,2.61-2.13,4.88-5.07,8.84-4.79,2.59,5.31-1.8,7.87-4.62,10.6-14.89,14.42-31.99,25.57-51.18,33.43-27.58,11.3-56.29,16.98-86,19.69-37.88,3.46-75.87,5.34-113.77,8.42-39.8,3.23-79.37,8.29-119,12.7-33.25,3.7-66.37,9.21-99.5,14.27-31.53,4.81-62.35,13.17-94.02,16.94-.83.1-1.5.47-2.18.9Z" style="fill: #266aca; stroke-width: 0px;"/>
              <path d="M1.99,679.01c-.1-1.95-.21-3.89-.31-5.84-1.15-3.37-.5-6.86-.56-10.29-.07-3.9,1.55-6.93,5.76-7.24,4-.29,5.53,2.91,6.26,6.08,2.57,11.13,3.54,22.53,5.24,33.81,6.01,39.88,11.22,79.93,24.08,118.41.35.77.61,1.58.82,2.39,1.98,9.68,5.42,18.91,9.07,28.06.68,1.74,1.18,3.55,1.79,5.31.77,2.75,1.84,5.38,3.06,7.96.64,1.63,1.12,3.31,1.71,4.95.78,2.63,1.71,5.19,3.05,7.6.63,1.22,1.2,2.47,1.72,3.75.84,2.59,1.77,5.16,3.12,7.54.64,1.24,1.23,2.49,1.75,3.79.88,2.68,1.91,5.29,3.3,7.75,1.97,4.31,4.29,8.44,6.24,12.75,1.81,5.6,4.5,10.75,7.84,15.59,2.21,4.21,4.23,8.52,6.45,12.72,1.3,3.01,3.04,5.76,4.92,8.43,20.12,35.42,43.25,68.7,70.66,98.91.5.55.94,1.14,1.35,1.75,3.81,5.77,8.88,10.32,14.2,14.63,1.52,1.12,2.75,2.5,3.59,4.2,8.41,11.19,18.19,20.99,29.42,29.34,1.73.87,3.09,2.15,4.24,3.68,16.21,17.91,35.57,32.14,54.61,46.74,5.64,4.33,11.19,8.86,17.78,11.79,1.4.65,2.68,1.47,3.86,2.45,16.4,13.39,35.35,22.67,53.62,33,9.26,5.24,18.94,9.73,28.55,14.32,2.69,1.56,5.62,2.52,8.54,3.53,26.14,11.94,52.94,22.06,80.6,29.87,3.7,1.49,7.53,2.57,11.45,3.3,8.02,2.25,16.15,4.1,24.23,6.12,2.46.87,5.01,1.34,7.59,1.71.73.13,1.44.33,2.14.55,2.49.88,5.15.81,7.72,1.31.81.16,1.6.36,2.4.57,20.46,3.31,40.87,6.9,61.56,8.49,17.72,2.79,35.67,3.34,53.42,5.8,1.05.15,2.12.12,3.15.32,3.57.71,7.96.69,9.08,5,1.05,4.01-2.59,5.92-5.29,8-5.87,0-11.73,0-17.6,0-7.59-1.54-15.36.46-22.95-1.14-3-.13-6-.26-9-.39-4.88-1.64-10.04.36-14.92-1.19-29.03-1.48-57.56-6.58-85.76-13.14-83.54-19.44-160.42-53.91-229.84-104.44-108.69-79.13-185.54-182.09-230.24-308.97-16.77-47.6-27.18-96.59-32.22-146.76-.16-1.57,0-3.17.02-4.76-1.65-5.95.55-12.18-1.28-18.12Z" style="fill: #266aca; stroke-width: 0px;"/>
              <path d="M295.84,1156.8c-1.05-.55-2.1-1.11-3.15-1.66-10.45-8.97-22.3-16.07-32.88-24.88-12-9.99-24.34-19.59-35.43-30.64-1.54-1.54-3.5-2.36-5.21-3.61-1.06-1.06-2.12-2.13-3.18-3.19-10.13-10.11-20.26-20.23-30.36-30.36-1.06-1.06-2.13-2.12-3.19-3.18-3.55-6.45-9.57-10.68-14.42-15.95h0c-8.46-11.89-18.5-22.5-27.28-34.14-17.77-23.55-33.36-48.47-47.86-74.13-18.58-34.42-34.15-70.14-46.39-107.29-13.43-40.77-21.64-82.62-26.23-125.27-3.15-29.31-5.32-58.66-4.56-88.14.79-30.26,2.95-60.44,6.95-90.47,1.02-7.63,1.71-15.31,2.52-22.97.64-6.1-.93-9.68-7.79-9,3.2-16.31,7.37-32.34,13.5-47.82,1.7-3.38,4.27-2.82,6.61-1.09,3.87,2.88,7.71,6.01,6.79,11.68-.8,4.97-2,9.88-3.08,14.8-4.93,22.54-9.47,45.14-11.9,68.11-.09.82-.28,1.63-.5,2.43-1.48,3.76-.73,7.81-1.41,11.68-.11.79-.29,1.56-.5,2.32-1.2,4.29-.25,8.73-.9,13.06-.08.83-.25,1.64-.47,2.44-1.35,4.56-.56,9.24-.73,13.87.05,2.27-.17,4.51-.69,6.73-1.72,7.44-.57,14.97-.76,22.45.09,14.34.1,28.68.01,43.01.04,5.11-.74,10.26.84,15.29.84,4.03.54,8.12.63,12.19-.04,3.02-.1,6.05.94,8.96,5.02,60.02,19.6,117.74,41.91,173.59,2.96,7.4,6.01,14.78,9.64,21.88.39.71.7,1.46.97,2.21,6.31,15.91,14.37,30.96,22.71,45.88,1.66,2.98,3.42,5.92,4.64,9.13.03.38.05.76.08,1.15,6.38,15.6,16.62,28.88,26,42.64,28.46,41.74,64.23,77.05,100.63,111.56,30.27,28.69,64.3,52.66,100.42,73.69,37.1,21.6,76.09,38.91,116.72,52.45,32.67,10.89,66.19,18.26,100.31,23.58,43.54,6.78,87.28,7.31,130.98,5.68,36.13-1.35,72.12-6.09,107.24-15.58,33-7.68,65.08-18.28,96.6-30.61,15.56-6.09,30.64-13.36,46.54-18.6,2.77-.91,5.54-1.94,8.48-2.14,3.17-.21,6.99-.82,8.56,2.57,1.65,3.56-.22,6.66-3.59,8.66-32.7,20.31-68.36,33.99-104.57,46.36-9.69,3.31-19.26,7.35-29.64,8.28-2.45-2.96,1.76-4.52,1.5-7.66-12.54-.07-24.82,2.14-36.96,4.45-54.97,10.46-110.58,12.58-166.11,9.63-63.08-3.35-124.77-15.59-184.09-38.32-42.79-16.4-83.79-36.22-121.95-61.73-2.2-1.47-4.64-2.59-6.94-3.93Z" style="fill: #266aca; stroke-width: 0px;"/>
              <path d="M295.84,1156.8c10.62,1.3,17.63,9.36,26.17,14.41,58.08,34.28,119.72,59.36,185.71,73.65,30.04,6.5,60.39,10.26,91,12.82,31.11,2.6,62.25,1.99,93.26.89,28.42-1.01,56.83-4.68,84.89-10.31,11.62-2.33,23.56-3.03,35.35-4.54,2.34-.3,4.56.13,5.29,2.33.77,2.31-1.7,2.92-3.26,3.81-1.85,1.05-3.95,1.84-3.89,4.52-29.76,9.82-60.5,14.94-91.46,18.93-24.27,3.13-48.64,5.03-73.15,4.64,5.06-10.1,4.82-9.58-7.29-11.09-17.79-2.22-35.81-2.45-53.42-6.22-21.3-3.21-42.74-5.49-63.91-9.58h0c-2.38-1.96-5.59.27-7.99-1.6h0c-2.38-1.97-5.6.29-7.99-1.6-8.82-.95-17.37-2.96-25.57-6.38-3.62-1.46-7.53-1.89-11.19-3.21-28.38-6.85-55.54-16.99-81.49-30.34-2.49-1.5-5.43-1.87-7.98-3.22-16.29-6.3-31.39-14.95-46.51-23.53-10.53-5.97-21.07-11.97-30.93-19.06-2.16-1.55-4.46-2.81-5.67-5.32Z" style="fill: #266aca; stroke-width: 0px;"/>
              <path d="M944.6,1199.73c1.17-2.82,3.98-6.35,1.6-8.56-2.35-2.18-6.55-1.17-9.87.08-21.79,8.22-43.56,16.52-65.37,24.68-25.06,9.38-50.78,16.65-76.6,23.6-2,.54-4.22.24-6.34.32,22.15-6.94,44.46-13.41,66.42-20.92,37.22-12.72,72.49-29.86,106.85-48.89,17.84-9.88,35.62-19.86,53.48-29.7,6.4-3.53,12.27-1.08,17.95,2.16-26.45,21.79-55.27,40.04-85.13,56.71-.83.46-1.98.36-2.98.53Z" style="fill: #266aca; stroke-width: 0px;"/>
              <path d="M605.23,1276.79c7.67.09,15.42-1.6,22.95,1.14-7.69.32-15.36.46-22.95-1.14Z" style="fill: #266aca; stroke-width: 0px;"/>
              <path d="M581.3,1275.2c5,.08,10.14-1.55,14.92,1.19-5.02.15-10.04.4-14.92-1.19Z" style="fill: #266aca; stroke-width: 0px;"/>
              <path d="M521.16,1251.04c13.86,1.87,27.75,3.55,41.57,5.68,7.46,1.15,15.28.41,22.34,3.9-21.55-1.57-42.96-4.02-63.91-9.58Z" style="fill: #266aca; stroke-width: 0px;"/>
              <path d="M468.42,1238.26c4.06-.09,7.94.44,11.19,3.21-4.06.07-7.92-.53-11.19-3.21Z" style="fill: #266aca; stroke-width: 0px;"/>
              <path d="M378.95,1204.7c3.13-.09,5.93.64,7.98,3.22-3.12.06-5.91-.68-7.98-3.22Z" style="fill: #266aca; stroke-width: 0px;"/>
              <path d="M505.18,1247.84c2.69.39,5.75-1.07,7.99,1.6-2.69-.38-5.75,1.06-7.99-1.6Z" style="fill: #266aca; stroke-width: 0px;"/>
              <path d="M513.17,1249.44c2.69.39,5.75-1.07,7.99,1.6-2.69-.38-5.75,1.06-7.99-1.6Z" style="fill: #266aca; stroke-width: 0px;"/>
            </g>
            <path d="M25.82,672.61c1.35,45.98,9.22,90.89,21.88,135.05,7.62,26.57,17.06,52.44,28.43,77.62.63,1.39.55,3.09.81,4.65-8.85-13.73-13.62-29.26-19.16-44.39-10.31-28.14-19.07-56.83-24.46-86.32-4.07-22.31-9.1-44.57-9.15-67.46-1.78-2.42.39-5.6-1.53-7.99-.02-4.26-.04-8.52-.06-12.78-1.99-4.64.6-9.77-1.54-14.39,0-14.89,0-29.79,0-44.68,2.25-7.34-.59-15.04,1.57-22.39,0-2.13.02-4.25.02-6.38,2.16-4.62-.49-9.77,1.58-14.4.02-.53.02-1.06,0-1.59,2.18-4.61-.49-9.76,1.6-14.39h0c2.21-4.05-.53-8.72,1.6-12.78,0,0,0,0,0,0,3.45-6.5,1.72-14.19,4.78-20.78,3.71-8.62,3.66-18.13,6.39-26.98.36-1.18,1.07-2.26,1.62-3.38-.68,13.78-5.08,26.91-6.97,40.51-2.42,17.5-4.43,35-6.03,52.6-2.73,30.22-.54,60.44-1.39,90.64Z" style="fill: #266aca; stroke-width: 0px;"/>
            <path d="M76.94,889.92c10.47,18.19,19.54,37.1,28.77,55.93-5.01-3.23-6.51-9.03-8.9-13.76-7.01-13.85-15.7-26.97-19.87-42.16Z" style="fill: #266aca; stroke-width: 0px;"/>
            <path d="M22.61,589.53c-.75,7.45,1.72,15.12-1.57,22.39.77-7.45-1.76-15.12,1.57-22.39Z" style="fill: #266aca; stroke-width: 0px;"/>
            <path d="M24.22,568.75c-.65,4.78,1.54,9.88-1.58,14.4.69-4.78-1.6-9.89,1.58-14.4Z" style="fill: #266aca; stroke-width: 0px;"/>
            <path d="M25.82,552.77c-.67,4.78,1.54,9.88-1.6,14.39.7-4.78-1.6-9.89,1.6-14.39Z" style="fill: #266aca; stroke-width: 0px;"/>
            <path d="M21.04,656.6c3.09,4.52.93,9.6,1.54,14.39-3.12-4.52-.87-9.61-1.54-14.39Z" style="fill: #266aca; stroke-width: 0px;"/>
            <path d="M27.42,539.98c-.67,4.24,1.54,8.85-1.6,12.78.7-4.24-1.61-8.86,1.6-12.78Z" style="fill: #266aca; stroke-width: 0px;"/>
            <path d="M22.64,683.77c2.57,2.27,1.23,5.29,1.53,7.99-2.59-2.26-1.17-5.3-1.53-7.99Z" style="fill: #266aca; stroke-width: 0px;"/>
          </g>
        </g>
      </g>
    </g>
    <path d="M409.3,495.24c-.02,1.04-.04,2.09-.06,3.13-10.21,12.79-15.28,27.7-17.45,43.64-3.26,23.98,6.5,43.36,21.93,60.76,23.2,26.15,45.93,52.73,69.37,78.67,12.27,13.57,24.27,27.38,36.9,40.65,13.91,14.62,27.86,29.08,42.76,42.74,20.64,18.92,42.59,22.75,67.88,10.46,12.08-5.87,22.78-13.52,32.16-23.05,30.22-30.71,60.53-61.32,90.54-92.23,19.42-20,38.56-40.28,57.5-60.74,10.97-11.85,21.27-24.34,31.95-36.46,1.73-1.97,3.93-3.53,5.91-5.28-6.24,13.32-16.14,24.13-25.2,35.38-22.59,28.07-46.43,55.06-71.19,81.28-18.22,19.3-36.48,38.56-54.66,57.88-14.02,14.91-27.98,29.88-42.83,43.92-16.31,15.43-34.19,28.99-57.01,33.05-17.64,3.14-34.81,1.32-50.49-8.71-20.56-13.16-37.52-30.13-53.37-48.49-13.84-16.04-28.75-31.18-42.29-47.47-22.12-26.63-46.78-51.26-64.76-81.23-16.27-27.13-16.06-55.07-5.28-83.99,4.59-12.31,12.62-22.6,18.1-34.32,4.55-1.84,4.98-7.79,9.56-9.6Z" style="fill: #0f3d7f; stroke-width: 0px;"/>
  </g>
  <path d="M986.15,955.43c-7.04,13.52-19.7,19.57-33.18,23.76-11.62,3.61-23.92,4.5-36.03,4.9-112.2,3.73-224.47-.29-336.66,2.1-64.08,1.36-128.16-.6-192.18,1.58-27.63.94-55.23.74-82.83,1.13-24.41.34-42.49-16.96-44.62-41.49-2.44-28.09.18-56.16.58-84.2.29-20.77,1.32-41.73,4.18-62.47,1.53-11.09,5.17-21.54,8.17-32.19,1.6.41,3.41-5.47,4.83.17.01,48.16.82,96.35-.3,144.48-.57,24.58,24.74,49.22,48.87,48.49,4.25-.13,8.52.02,12.77.02,204.11.02,408.23-.01,612.34.14,11.89,0,23.32-1.01,34.06-6.41Z" style="fill: #021736; stroke-width: 0px;"/>
</svg>