<?xml version="1.0" encoding="UTF-8"?>
<svg id="Layer_1" data-name="Layer 1" xmlns="http://www.w3.org/2000/svg" viewBox="0 0 1210.78 1160.11">
  <path d="M55.32,703.24c-9.59-6.15-12.04-16.53-14.65-26.35-11.52-43.27-20.11-87.21-29.03-131.07-4.01-19.72-7.31-39.59-11.29-59.32-1.3-6.43,1.22-7.74,6.71-6.68,14.33,2.75,28.64,5.55,42.98,8.25,5.43,1.02,10.94,1.67,16.35,2.78,7.79,1.6,12.06-1.62,15.05-8.83,9.35-22.55,18.85-45.06,28.91-67.3,30.3-66.99,68.12-129.33,116.2-185.15,76.82-89.19,168.75-157.12,279.94-197.58,43.68-15.9,88.67-25.87,135.11-30,80.89-7.2,158.23,5.01,231.77,39.81,32.29,15.28,61.87,34.99,90.55,56.13,3.2,3.57,6.69,6.86,10.4,9.86,21.24,17.18,37.29,38.84,52.83,60.95,34.52,49.09,57.51,103.42,73.13,161.09.71,6.66,5.7,11.93,6.1,18.7-9.92-.45-18.39,4.15-27.12,7.84-25.01,10.57-49.83,21.62-75.57,30.37-3.36,1.14-6.18,3.39-9.64,4.24-5.38-2.51-6.99-7.73-8.7-12.65-8.46-24.41-16.15-49.11-27.6-72.38-21.63-43.97-50.28-82.36-89.41-112.42-12.84-7.33-24.73-16.16-37.72-23.3-7.94-4.37-16.06-8.2-24.63-11.71-1.08,3.14,1.76,6.69-1.26,9.31-13.73-3.05-27.47-6.1-41.2-9.15.78-1.12,1.96-1.85,3.2-1.73,8.02.78,12.5-3.83,16.13-10.63-4.04-2.54-8.55-4.16-13.05-5.55-30.99-9.62-62.55-15.46-95.14-16.9-47.78-2.11-94,5.6-139.28,19.74-34.2,10.68-65.51,27.68-95.95,46.38-35.72,21.94-67.63,48.75-97.53,77.81-37.63,36.57-72.12,75.9-92.54,113.74,5.57-9.74,19.4-25.39,34.93-39.59,7.95-7.26,17.48-10.81,28.31-10.99,7.05-.12,14.12.67,21.12-1.09,9.72-2.45,16.8-9.05,24.29-15,10.48-8.33,20.25-17.5,30.68-25.89,2.64-2.12,5.16-5.2,9.3-3.15-14.49,14.95-29.83,29.08-43.18,45.11-1.75,2.1-3.36,4.33-5.03,6.49-2.39,4.82-7.39,5.76-11.66,7.64-20.49,9.05-41.17,17.67-61.15,27.84-7.58,4.11-8.06,11.45-8.54,18.77-.52,7.95.94,15.98-.98,23.87-2.32,3.77-5.97,5.69-10.13,5.52-12.38-.5-20.37,6.56-26.84,15.61-15.3,21.39-27.61,44.45-36.67,69.17-2.95,8.04-1.49,10.78,6.47,13.59,12.59,4.67,25.71,7.34,38.73,10.39,7.11,2.92,15.8,1.75,21.54,8.24-2.78,8.05-9.88,12.44-15.67,17.76-13.91,12.76-27.96,25.38-41.95,38.06-24.62,22.33-49.48,44.39-74.59,66.17-10.85,9.4-21.65,18.87-33,27.68-4.58,3.56-9.25,6.94-14.17,10.04-5.93,3.74-11.87,6.67-19.16,4.75-2.26-.6-4.48.46-6.72.69Z" style="fill: #c76152; stroke-width: 0px;"/>
  <path d="M331.2,958.13c36.93,23.62,77.44,37.69,120.68,43.45,100.59,13.4,192.28-12.67,277.95-64.23,46.02-27.7,85.73-62.94,121.84-102.45,4.08-9.75,12.06-16.61,18.47-24.6,17.83-22.23,33.85-45.66,48.2-70.26,4.53-8.2,9.66-16.06,13.74-24.52,12.95-25.66,25.18-51.63,35.69-78.41,2.25-5.73,1.33-8.26-4.8-9.41-11.14-2.09-20.67-7.77-29.73-14.31-5.42-4.74-11.98-7.9-17.42-12.63-14.79-11.86-14.8-12.63-.19-27.27,5.21-4.72,10.22-9.69,16.49-13.08,20.01-17.67,39.99-35.37,60.03-53,27.43-24.13,54.49-48.67,82.88-71.69,17.8-14.43,24.42-14.17,47.84-2.51,4.36,8.87,6.63,18.45,9.13,27.9,9.74,36.91,17.34,74.3,25.16,111.65,5.12,24.47,10.01,48.98,15.12,73.45-3.8,4.97-8.65,2.82-13.16,1.7-18.89-4.67-37.98-8.3-57.09-11.94-6.48-1.23-10.72.76-13.74,6.43-2.85,5.37-5.6,10.79-7.21,16.66-8.99,32.96-25.33,62.72-41,92.67-17.35,33.15-37.39,64.73-59.37,95.03-21.68,29.89-45.49,57.93-71.29,84.41-34.34,35.25-71.62,66.82-112.67,93.95-72.38,47.83-150.78,80.73-236.68,94.71-19.41,3.16-39.04,4.47-58.73,5.58-44.27,2.48-87.72-2.09-130.52-12.88-64.08-16.16-120.98-46.18-170.4-90.2-1.67-1.48-2.94-3.56-5.49-3.76-31.58-29.14-56.9-63.15-78.04-100.39-22.25-39.19-37.31-81.23-48.83-124.63-2.47-9.29-1.36-11.88,7.58-16.03,28.74-13.33,58.05-25.29,87.63-36.62,6.74-2.58,12.72-2.48,17.8,3.28,6.18,17.09,11.36,34.52,18.04,51.46,12.18,30.89,29.6,58.51,50.35,84.23,11.42,14.16,23.18,27.96,36.06,40.89,14,14.06,30.5,24.86,45.68,37.36Z" style="fill: #ca6c5d; stroke-width: 0px;"/>
  <path d="M266.17,416.27c.67-11.05-.62-22.12,1.11-33.2.99-6.37,4.11-9.97,9.68-12.16,10.79-1.77,20.95,1.85,31.22,3.95,27.62,5.63,55.27,11.18,82.5,18.53,5.48,1.48,11.42,2.63,14.57,8.39-4.48,35.13-3.05,70.44-3.21,105.7-.05,11.26.3,11.56,11.59,10.14,9.32-1.17,18.15-.37,25.87,5.62,8.94,6.93,18.74,8.95,29.91,6.53,7.88-1.71,15.56.04,22.33,4.81,1.65,1.16,3.45,2.09,5.2,3.11,9.75,5.7,11.21,4.86,11.24-6.75.05-26.24-.04-52.49.05-78.73.02-6.8.22-13.64,3.57-19.87,6.24-7.26,14.15-6.52,22.35-4.73,33.83,7.38,67.58,15.1,101.24,23.17,15.07,3.61,28.98,3,43.52-3.19,43.7-18.62,88-35.8,132.54-52.34,4.76-1.77,9.6-3.1,14.62-3.88,8.74-1.36,17.49-2.69,25.77-6.08,2.6-1.07,5.38-1.36,8.19-1.32,8,.1,12.24,4.17,10.78,11.88-1.59,8.34-1.01,16.47-.7,24.82.39,10.54-3.16,20.38-9.96,28.77-14.08,17.35-25.8,36.05-34.58,56.71-8.01,18.83-19.01,36.22-27.49,54.88-12.11,26.65-25.48,52.68-36.35,79.94-12.9,32.36-24.69,65.18-38.89,97.03-5.73,12.85-9.04,26.84-17.64,38.35-5.79,7.74-10.8,15.78-13.21,25.3-.75,2.96-2.84,5.74-6.49,5.27-4.11-.53-4.06-4.11-3.87-7.09.7-10.92-2.72-21.58-1.94-32.49,1.27-17.62.95-35.32,2.77-52.91.21-2.01.53-4.08.21-6.05-2.75-17.14,1.13-34.28.02-51.39-2.22-34.21-2.04-68.61-9.56-102.37-2.18-9.76-2.93-19.9-4.84-29.8,1.9,9.55-.68,18.94-.95,28.42-2.37,84.12-1.31,168.27-1.51,252.4-.04,17.94.11,35.89-.04,53.83-.11,12.87-.77,25.78-2.8,38.47-2.21,13.75-8.06,16.72-21.37,12.89-28.43-8.18-57.45-13.97-86.23-20.71-63.47-14.88-127.24-28.49-190.53-44.18-27.22-6.75-54.51-13.22-81.88-19.36-8-1.79-15.13-4.66-15.71-14.55,0-.09-.48-.26-.65-.19-.19.08-.29.39-.43.6-2.01-2.72-1.18-5.86-1.18-8.81-.06-60.65-.03-121.31-.12-181.96,0-2.82,1.38-6.15-1.79-8.39-1.48-15.36-.3-30.75-.64-46.13-.2-8.82.59-17.68-1.48-26.39,2.49-5.07,3.16-10.42,3.03-16.04-.43-18.54.55-37.08-.47-55.62.7-14,.24-28.01.4-42.02.04-3.73-.33-7.57,2.25-10.78Z" style="fill: #d6bb98; stroke-width: 0px;"/>
  <path d="M266.18,812.41l.37-4.46c1.12,12.58,10.37,15.48,20.46,17.53,38.41,7.79,76.14,18.44,114.29,27.33,53.79,12.54,107.74,24.36,161.57,36.7,25.21,5.78,50.31,12.04,75.46,18.07.49.12,1.01.08,1.5.21,17.11,4.49,21.14,1.09,22.4-17.16,1.62-23.43,1.42-46.87,1.43-70.31.02-65.7.11-131.39-.04-197.09-.06-24.72,1.76-49.37,2.04-74.09.11-9.68-.27-19.96,2.74-29.67,4.76,15.84,5.88,32.21,9.08,48.18,2.72,13.61,4.34,27.17,4.7,41.06.58,22.07,3.6,44.03,2.81,66.2-.86,23.8-.16,47.69-1.92,71.4-1.21,16.19-1.28,32.07,1.11,48.05.24,1.64-.7,3.43-.63,5.13.09,2.26-1.53,5.59,2.19,6.23,2.78.48,4.18-2.3,4.42-4.36,1.29-11,8.1-19.15,14.1-27.6,8.84-12.45,12.18-27.27,18.34-40.85,7.17-15.81,13.82-31.89,19.83-48.17,7.32-19.8,15.56-39.23,22.88-59.01,4.83-13.05,11.76-25.05,17.57-37.57,16.64-35.85,34.59-71.09,52.18-106.49,5.51-11.08,13.21-20.87,20.84-30.43,8.98-11.25,14.09-22.79,11.26-37.39-.89-4.6-.39-9.42.9-14.21,3.17-11.8-1.43-16.14-13.32-13.38-39.78,9.2-77.81,23.49-115.4,39.2-23.46,9.81-47.12,19.13-70.78,28.46-9.56,3.77-19.46,2.19-29.04.05-35.77-8-71.5-16.23-107.2-24.55-7-1.63-13.37-1.64-18.92,3.57-2.05-4.23.87-6.62,3.51-8.88,3.47-2.96,7.59-4.92,11.74-6.76,17.7-7.86,35.68-15.05,53.25-23.19,1.15-.53,2.4-.73,3.66-.86,4.06.47,7.06-1.87,10.18-3.9.74-.34,1.5-.56,2.3-.72,10.28-1.91,19.58-6.67,29.17-10.44,19.05-7.48,38.23-14.6,57.62-21.09,12.94-4.33,26.29-6.25,40.12-6.65,18.89-.55,37.68.57,56.4,1.91,18.57,1.33,37.16,3.56,55.62,6.3,8.32,1.24,16.64.85,24.96.89,7.68.04,14.67,1.08,18.61,8.89,1.14,2.26,3.41,3.42,5.74,2.76,10.08-2.87,20.95-3.83,29.06-11.62,2.68-2.71,5.66-4.98,9.14-6.57,1.76-.8,3.38-1.18,4.23,1.21.24,25.59-1.43,51.04-8,75.82-4.94,18.67-4.91,37.32-3.56,56.35,1.27,17.86,1.46,35.84-.31,53.72-1.12,11.35-.49,22.66.13,33.99-1.81,2.03-3.55,4.13-5.45,6.07-7.08,7.19-6.97,9.55.99,15.84,1.53,1.21,3.59,1.81,4.36,3.88-2.5,8.61-2.12,17.45-2.11,26.27.02,31.54-.02,63.08.03,94.62.01,7.09.1,14.21,5.07,20.07-19.19,33.9-42.43,64.87-68.17,94.02-2.83-2.87-5,.27-7.26,1.01-7.11,2.36-13.43,6.77-20.91,8.24-9.01,1.36-17.21,5.65-26.26,7.02-10.96,1.67-15.43-2.76-12.62-13.64,6.26-24.23,15.22-47.64,22.05-71.71,9.1-32.04,18.94-63.86,25.79-96.53,5.96-28.43,14.19-56.32,22.26-84.23,4.49-15.51,8.12-31.27,11.04-47.16.28-1.5.43-3.01.19-4.52-.35-2.28-.76-4.66-3.36-5.44-2.28-.68-3.87.82-5.21,2.36-3.15,3.62-6.06,7.42-8.67,11.47-14.44,22.45-25.59,46.48-33.49,71.9-9.4,30.25-22.69,58.91-34.96,87.99-20.73,49.11-41.92,98.02-63.16,146.92-4.73,10.9-10.41,21.34-15.74,31.96-5.33,10.64-13.69,18.57-22.43,26.23-5.94,2.56-11.97,4.93-17.79,7.74-11.57,5.57-22.81,1.03-33.85-1.36-51.54-11.16-103.01-22.67-154.44-34.34-37.54-8.51-74.99-17.39-112.45-26.23-26.26-6.2-52.55-12.29-78.67-19.03-14.96-3.86-15.7-5.61-15.55-21.11Z" style="fill: #d0ac8c; stroke-width: 0px;"/>
  <path d="M194.94,1018.58c2.71-3.03,3.94.18,5.35,1.44,36.85,32.92,78.6,57.73,124.49,75.88,33.45,13.23,68.22,21.18,103.76,25.38,19.94,2.36,40.21,3.62,60.27,3.05,47.13-1.33,93.53-8.21,138.84-21.81,34.84-10.46,68.64-23.5,101.03-40.05,42.97-21.95,83.14-48.17,120.71-78.56,26.97-21.82,51.7-45.98,75.16-71.29,39.99-43.15,73.87-90.95,102.86-142.2,16.41-29.02,31.52-58.66,44.49-89.37,5.19-12.28,6.98-25.79,13.51-37.65,4.71-8.55,7.58-11.44,18.51-9.11,19.14,4.08,38.51,7.11,57.4,12.41,3.5.98,6.96.52,10.45.15,12.49,6.32,23.38,14.78,33.1,24.79.32.38.63.77.95,1.14,1.84,2.15,6.22,3.73,4.61,6.72-1.3,2.42-5.46.8-8.37.51-7.98-6.75-17.32-11.21-26.54-15.88-.9-.46-1.84-1.05-2.82-1.04-18.92.28-34.21-11.03-51.46-16.1-6.54-1.92-12.93-4.39-19.89-4.17-7.1.23-10.01,3.53-9.34,10.66.43,4.61,1.89,8.99,4.69,12.63,4.78,6.22,10.43,11.62,16.66,16.41,4.4,3.38,7.65,2.55,10.61-2.07,1.7-2.66,2.14-7.22,7.17-6.17-12.06,29.65-24.42,59.16-38.26,88.04-41.74,87.07-96.29,164.78-167.68,230.25-77.81,71.36-166.45,123.47-268.94,150.68-29.46,7.82-59.47,12.69-89.96,15.13-37.45,3-74.72,2.24-111.68-3.74-57.31-9.27-110.69-29.51-160.06-60.24-33.47-20.83-65.18-43.98-94.53-70.31-1.85-1.66-3.39-3.68-5.08-5.53Z" style="fill: #b74a3a; stroke-width: 0px;"/>
  <path d="M398.01,285.83c-6.81,1.5-11.1,6.86-15.87,11.11-11.84,10.56-23.94,20.8-36.76,30.1-6.85,4.97-15.18,6.5-23.77,5.9-12.66-.88-25.04.36-34.82,9.29-12.28,11.22-23.88,23.16-33.2,37.11-3.74,5.59-7.83,10.95-12.52,17.48-.49-7.08,3.84-10.81,6.27-14.99,15.22-26.17,33.14-50.36,52.91-73.34,12.36-14.37,25.72-27.84,39.12-41,22.74-22.33,46.82-43.43,73.05-61.86,24.6-17.28,50.26-32.74,77.33-45.75,34.92-16.79,71.61-28.01,110.06-33.28,13.65-1.87,27.31-5.33,40.95-5.29,17.42.05,34.94-.38,52.38,1.66,14.72,1.73,29.47,3.25,43.84,6.81,17.01,4.21,34.3,7.78,50.13,16.2-6.37,7.77-12.3,15.33-23.61,12.68-.93-.09-1.87-.18-2.8-.28-2.4-1.54-5.35.22-7.76-1.28-1.96-.13-3.93-.25-5.89-.38-3.04-1.27-6.39.27-9.42-1.05-2.42-.15-4.84-.3-7.26-.45-14.16-.86-28.32-.88-42.48.01-2.41.15-4.81.3-7.22.45-2.53,1.22-5.42-.19-7.95,1.07-52.41,4.87-101.78,20.21-148.97,43.12-46.19,22.41-87.59,51.81-125.76,85.95Z" style="fill: #b63f2d; stroke-width: 0px;"/>
  <path d="M404.37,401.19c-16.42-8.84-34.88-10.66-52.57-14.92-20.64-4.96-41.61-8.57-62.35-13.14-4.15-.92-8.66.34-12.48-2.21,19.17-10.31,39.55-17.96,59.23-27.16,4.53-2.12,9.07-4.21,13.61-6.32,18.14-7.8,36.26-15.64,54.42-23.39,45.27-19.31,90.59-38.49,135.79-57.96,6.34-2.73,12.31-1.7,18.4-.36,36.77,8.08,73.5,16.29,110.24,24.48.42.09.75.62,1.12.95-.53,4.94-5.17,4.96-8.23,6.26-37.89,16.04-75.53,32.65-113.3,48.95-44.26,19.1-88.45,38.35-132.38,58.21-1.84.83-3.61,1.8-5.33,2.86-2.17,1.05-3.05,4.24-6.16,3.74Z" style="fill: #c7a37c; stroke-width: 0px;"/>
  <path d="M408.89,396.66c17.13-10.09,35.72-17.1,53.81-25.12,44.78-19.83,89.81-39.08,134.75-58.54,23.06-9.99,46.14-19.93,69.19-29.93,1.11-.48,2.08-1.26,3.12-1.91,15.52-8.68,30.94-3.52,46.36.36,24.97,6.29,50.39,10.66,75.13,17.91-2.3,7.15-9.31,6.32-14.17,8.59,2.04-.35,5.31-1.92,6.09,1.43.54,2.33-2.64,3.31-4.69,4.15-19.16,7.82-38.14,16.06-57.2,24.11-34.86,14.73-69.29,30.45-104.34,44.72-3.73,1.52-7.43,3.07-11.38,3.98-8.73.72-16.46,4.72-24.34,7.91-20.55,8.34-41.02,16.88-61.71,24.88-6.08,2.35-12.25,2.7-18.58,1.45-28.7-5.67-57.09-12.76-85.66-19.02-2.79-.61-6.22-.85-6.4-4.99Z" style="fill: #b64333; stroke-width: 0px;"/>
  <path d="M678.93,906.75c-.36-2.95,1.43-4.99,3.53-6.28,9.09-5.56,13.76-14.65,18.43-23.47,14.75-27.88,26.46-57.16,38.82-86.14,12.55-29.42,25.18-58.81,37.84-88.18,14.43-33.51,28.68-67.03,39.97-101.83,8.33-25.67,21.1-49.47,37.43-71.18,2.19-2.91,4.71-6,8.57-4.77,4.63,1.47,5.2,6.21,4.71,10.1-.98,7.69-2.38,15.38-4.39,22.86-7.73,28.89-16.55,57.51-23.48,86.58-6.74,28.3-12.39,56.91-20.8,84.74-7.63,25.23-13.94,50.87-23.13,75.65-4.19,11.29-7,23.1-10.12,34.76-2.21,8.25,1.02,11.13,9.18,9.92,9.43-1.39,18.14-6.39,28-5.37-47.83,21.67-95.9,42.82-144.56,62.59Z" style="fill: #c59573; stroke-width: 0px;"/>
  <path d="M261.83,540.36c2.27,2.14,3.39,4.57,3.37,7.88-.16,19.33-.13,38.66-.07,57.99,0,2.61-.52,4.93-2.04,7.02-41.79,37.15-82.74,75.25-126.18,110.51-17.49,14.2-29.21,15.12-48.62,3.3-11.59-7.06-22.86-14.67-32.97-23.82,1.08-2.33,3.1-4.03,5.41-3.05,10.38,4.41,17.94-2.18,24.8-7.37,15.83-11.97,30.94-24.93,45.98-37.9,20.96-18.07,41.65-36.46,62.35-54.83,11.49-10.2,22.82-20.58,34.13-30.97,10.76-9.89,21.4-19.91,32.09-29.88.95-.2,1.12.81,1.75,1.11Z" style="fill: #b93827; stroke-width: 0px;"/>
  <path d="M606.14,384.66c25.18-10.69,50.38-21.32,75.52-32.09,32.55-13.94,64.9-28.35,97.85-41.33.91-.36,1.71-.98,2.8-1.62-3.37-2.11-6.32,1.58-9.83-.15,5.73-4.7,13.67-4.85,18.78-10.03,9.05,16.78,27.03,13.51,41.39,18.21,7.29,2.38,15,3.5,22.17,6.43,12.68,4.2,24.66,10.13,37.05,15.05,9.34,3.71,11.44,8.06,8.6,17.78-1.67,5.72.3,6.08,5,4.88,3.73-.96,7.28-3.92,11.48-1.54-2.04,3.8-5.36,5.76-9.4,6.98-6.27,1.9-12.37,4.34-18.68,6.08-4.75,1.31-9.46,1.88-11.12-4.94-1.3-5.36-6.23-6.8-10.69-6.47-22.79,1.69-45.08-3.26-67.55-5.22-11.62-1.01-23.61-3.72-35.02-3.26-11.91.48-23.65-1-35.42-1.11-36.31-.32-67.36,16.43-100.23,27.49-10.66,3.59-20.37,10.07-32.02,10.69,1.12-5.1,6.12-4.02,9.31-5.83Z" style="fill: #c89d76; stroke-width: 0px;"/>
  <path d="M994.03,390.96c1.41-2.91,3.78-4.31,6.85-5.36,30.42-10.42,59.85-23.31,89.27-36.21,5.55-2.43,10.94-3.22,16.71-1.54,10.53,2.66,17.71,10.18,25.16,17.31,2.51,2.08,4.97,4.22,7.53,6.23,5.2,4.07,4.47,7.28-1.31,9.84-14.04,6.21-28,12.61-42.15,18.55-15.31,6.42-30.95,12.08-46.17,18.7-8.12,3.53-14.84,2.6-21.84-2.48-11.4-8.27-23.6-15.46-34.05-25.04Z" style="fill: #bc4133; stroke-width: 0px;"/>
  <path d="M1204.87,671.64c-11.03-8.26-22.07-16.53-33.1-24.79-6.6-16.21-8.08-33.63-11.8-50.51-11.42-51.79-20.23-104.18-36.1-154.94-.81-2.58-.68-5.46-1-8.2,14.07,7.43,27.17,16.28,38.1,27.9,4.93,5.24,6.84,12.14,7.73,19.27,2.65,21.37,5.41,42.72,8.04,64.08,1.95,15.9,3.77,31.81,5.61,47.72,2.05,17.65,3.94,35.32,6.15,52.96.92,7.39,6.32,12.41,10.76,17.81,2.23,2.71,5.12,4.91,5.62,8.71Z" style="fill: #e5dad9; stroke-width: 0px;"/>
  <path d="M331.2,958.13c-14.46-7.04-26.92-17.08-38.42-27.95-36.53-34.54-67.51-73.41-89.1-119.17-9.38-19.89-15.84-40.9-22.79-61.71-.62-1.85-.49-3.42.18-5.1,10.62,3.74,18.29,12.1,27.74,17.7,11.2,6.63,17.31,16.78,21,29.21,12.34,41.55,30.24,80.49,55.75,115.77,10.39,14.37,22.49,27.15,35.05,39.58,3.72,3.68,8.16,6.78,10.59,11.67Z" style="fill: #e0bbb9; stroke-width: 0px;"/>
  <path d="M1098.88,329.97c-3.2-10.02-6.47-20.02-9.58-30.07-12.42-40.18-30.01-78.05-52.48-113.49-15.2-23.97-31.88-47.03-52.23-67.08-5.37-5.29-11.16-10.15-16.68-15.28-1.81-1.69-3.96-3.25-4.03-6.13,13.74,8.51,25.78,19.23,37.94,29.71,36.2,31.2,65.65,68.01,89.61,109.28.62,1.07,1.01,2.28,1.5,3.42,5.65,11.04,6.06,22.19,2.78,34.26-2.53,9.31.7,18.94,2.39,28.34,1.03,5.69,2.71,11.27,2.92,17.08.13,3.45.7,7.11-2.15,9.96Z" style="fill: #d3a09b; stroke-width: 0px;"/>
  <path d="M916.96,574.13c-3.09-2.19-3.05-5.37-3.11-8.75-.35-21.41,2.69-42.72,1.58-64.15-.56-10.78-.94-21.57-1.55-32.35-.76-13.44,1.28-26.48,4.54-39.51,5.06-20.24,8-40.84,7.54-61.78-.11-5.1.91-9.98,1.6-14.94-1.21-3.22-.77-6.17,1.41-8.85,3.01,4.66,2.89,10.03,2.9,15.17.17,67.14.19,134.29.24,201.43-3.83,5.93-10.14,9.12-15.16,13.72Z" style="fill: #d6bb98; stroke-width: 0px;"/>
  <path d="M1098.88,329.97c1.43-13.28-3.51-25.74-5.04-38.64-.98-8.28-1.73-16.18,1.29-24.4,1.95-5.29,1.48-11.38-.41-17.06-1.03-3.08-2.38-6.14-1.78-9.54,16.81,26.56,27.46,55.84,37.65,85.33.66,1.9,1.1,3.88,1.83,5.75,4.43,11.31,6.85,22.58-.4,33.75-8.39-5.77-16.78-11.54-25.17-17.31-5.31-4.78-7.36-11.01-7.97-17.88Z" style="fill: #dbc0be; stroke-width: 0px;"/>
  <path d="M1131.14,674.29c-3.77,1.11-4.11,4.85-5.7,7.58-3.67,6.32-6.73,7.16-12.39,2.68-9.08-7.19-18.52-14.06-22.09-26.04-3.79-12.7.33-18.41,13.48-17.59,4.2.26,8.54,1.21,12.44,2.77,12.11,4.83,25.07,7.45,36.42,14.3,2.73,1.65,6.02,2.78,9.39,2.52,14.81-1.15,25.42,7.93,36.82,15.06,1.52.95,2.5,2.5,2.53,4.44-19.08-3.62-38.18-7.13-57.23-10.91-5.87-1.17-10.27.44-13.69,5.2Z" style="fill: #ae4033; stroke-width: 0px;"/>
  <path d="M928.97,343.81c.24,3.06.47,6.13-1.41,8.85-3.53,2.53-7.07,5.06-10.6,7.59-5.02,1.49-9.98,3.31-15.09,4.38-4.23.89-6.66.16-4.31-5.47,4.95-11.85,3.41-13.92-8.41-19.1-11.55-5.06-23.93-8.41-34.32-15.97,10.73-.32,20.54,4.1,30.83,6.07,11.8,2.26,23.33,5.88,35.01,8.78,3.32.82,6.04,2.41,8.31,4.88Z" style="fill: #cb9870; stroke-width: 0px;"/>
  <path d="M804.72,167.82c-.46-3.44-.92-6.87-1.61-12.01,24.52,9.01,46,21.32,65.22,37.71-8.73-1.83-15.76-7.49-23.91-10.61-13.22-5.07-26.47-10.06-39.7-15.08Z" style="fill: #d3adab; stroke-width: 0px;"/>
  <path d="M687.91,155.24c14.16-2.26,28.32-2.28,42.48-.01-14.16,0-28.32,0-42.48.01Z" style="fill: #c76152; stroke-width: 0px;"/>
  <path d="M737.64,155.68c3.2-.19,6.49-1.19,9.42,1.05-3.21.29-6.44.7-9.42-1.05Z" style="fill: #c76152; stroke-width: 0px;"/>
  <path d="M672.74,156.76c2.41-2.09,5.21-1.39,7.94-1.07-2.49,1.55-5.21,1.37-7.94,1.07Z" style="fill: #c76152; stroke-width: 0px;"/>
  <path d="M752.96,157.11c2.69-.17,5.47-.96,7.76,1.28-2.71.29-5.36.26-7.76-1.28Z" style="fill: #c76152; stroke-width: 0px;"/>
  <path d="M266.17,416.27c.04,15.37.14,30.75.05,46.12-.01,2.46-.83,4.91-1.27,7.37.18,9.07-5.71,15.9-9.06,23.6-4.16,9.56-6.65,19.99-13.46,28.31-5,2.32-9.29.13-13.49-2.23-5.91-3.32-11.43-7.32-17.62-10.13-3.21-1.45-6.47-2.9-10.12-2.36-2.54.38-5.01,1.14-6.13,3.75-1.14,2.66.88,4.14,2.46,5.75,1.21,1.23,2.69,2.37,2.11,4.47-7.81-1.6-11.23-5.66-8.68-12.45,11.18-29.7,24.42-58.33,46.28-82.06,4.18-4.54,9.45-6.95,15.35-6.85,4.98.09,9.31-1.14,13.58-3.28Z" style="fill: #d1847b; stroke-width: 0px;"/>
  <path d="M241.8,520.85c7.72-17.03,15.44-34.06,23.16-51.09,1.83,1.59,1.17,3.74,1.17,5.67.01,19.15-.12,38.3-.02,57.44.02,3.57-.32,6.43-4.28,7.49-.58-.37-1.17-.74-1.75-1.11-5.9-5.55-14.4-4.07-20.98-7.77-2.4-4.38.29-7.47,2.69-10.62Z" style="fill: #fefdfd; stroke-width: 0px;"/>
  <path d="M241.8,520.85c-.9,3.54-1.8,7.08-2.69,10.62-13.39-2.62-26.91-4.78-39.47-10.55-.66-.74-1.19-1.68-1.99-2.19-3.48-2.2-7.65-4.51-4.82-9.29,2.62-4.42,7.42-5.77,12.45-4.44,8.35,2.2,15.32,7.22,22.55,11.64,4.32,2.65,8.6,5.2,13.98,4.21Z" style="fill: #dfb9b7; stroke-width: 0px;"/>
  <path d="M919.84,740.88c-3.92.46-5.46-.79-6.18-5.2-1.2-7.27-1.25-14.48-1.26-21.75-.02-34,0-68-.02-102,0-4.59-.16-9.18,4.48-12.01,5.63,3.94,11.26,7.88,16.89,11.82,1.19,5.72.76,11.51.77,17.28.03,21.87-.02,43.75.03,65.62.02,7.29.03,14.56-1.1,21.79-4.54,8.15-9.07,16.3-13.61,24.45Z" style="fill: #d6bb98; stroke-width: 0px;"/>
  <path d="M933.44,716.43c-1.95-1.5-1.32-3.67-1.32-5.59,0-30.93.02-61.86.08-92.79,0-2.2-.54-4.6,1.54-6.31,9.85,7.18,20.53,12.84,32.55,15.03,6.02,1.1,6.53,2.97,4.43,8.23-11.08,27.77-23.46,54.93-37.28,81.43Z" style="fill: #fefefe; stroke-width: 0px;"/>
  <path d="M606.14,384.66c-3.1,1.95-6.2,3.89-9.3,5.84-.47.07-.93.14-1.4.21-2.76,2.09-5.96,3.24-9.17,4.39-8.74,3.55-17.54,6.94-26.19,10.69-12.4,5.37-24.75,10.88-37,16.6-4.54,2.12-8.98,4.77-9.7,10.59-2.23,5.43-2.72,11.15-2.74,16.92-.05,28.81-.06,57.61-.12,86.42-.02,9.41-2.11,10.64-10.22,6.09-1.97-1.11-4.02-2.14-5.8-3.52-9.21-7.13-19.19-9.06-30.54-5.9-10.64,2.96-19.13-3.06-26.99-8.78-7.78-5.66-15.99-5.53-24.5-3.98-12.36,2.25-12.74,2.14-12.72-10.49.04-23.25-.59-46.52.42-69.73.56-12.93-.78-26.28,4.2-38.81,1.51-1.51,3.02-3.02,4.53-4.53,5.03,4.55,11.76,4.08,17.7,5.47,24.45,5.73,49.18,10.26,73.55,16.28,12.95,3.2,23.13-3.04,33.97-7.16,21.18-8.05,42.12-16.74,63.19-25.1,2.8-1.11,5.7-2.15,8.84-1.48Z" style="fill: #c86656; stroke-width: 0px;"/>
  <path d="M382.84,781.61c-.19,12.08,1.04,24.21-1.18,36.24-1.81,9.84-8.44,14.81-18.26,13.28-17.92-2.8-35.5-7.16-53.01-11.74-14.41-3.77-20.61-12.27-21.71-27.04-1.64-21.95-.84-43.86.31-65.78.66-12.49,9.24-19.28,21.35-16.7,14.98,3.18,29.94,6.46,44.85,9.98,20.02,4.73,26.72,12.88,27.59,33.75.39,9.32.07,18.67.07,28.01Z" style="fill: #445561; stroke-width: 0px;"/>
  <path d="M619.66,835.14c0,11.26-3.28,13.94-14.47,11.4-52.38-11.92-104.75-23.85-157.1-35.89-12.68-2.92-17.68-12.34-13.17-24.32,1.78-4.72,5.79-5.33,10.03-4.48,12.58,2.5,25.17,4.98,37.68,7.83,41.2,9.4,82.36,18.94,123.52,28.5,12.06,2.8,13.52,4.79,13.52,16.97Z" style="fill: #425561; stroke-width: 0px;"/>
  <path d="M434.37,831.26c.02-12.74,2.44-14.65,15.01-11.78,52.92,12.06,105.85,24.08,158.74,36.25,10.3,2.37,15.82,15.16,10.7,24.47-2.2,4-5.86,4.83-10.4,3.81-30.85-6.97-61.75-13.65-92.59-20.65-22.99-5.22-45.92-10.74-68.86-16.19-11.57-2.75-12.61-4.15-12.6-15.9Z" style="fill: #425561; stroke-width: 0px;"/>
  <path d="M619.67,797.93c.02,11.68-2.49,13.96-14.05,11.4-39.21-8.68-78.38-17.54-117.54-26.41-14.44-3.27-28.83-6.71-43.23-10.15-9.52-2.28-14.65-17.05-8.8-25.1,2.63-3.62,5.97-3.71,10.08-2.77,35.81,8.16,71.67,16.08,107.49,24.19,17.91,4.06,35.78,8.29,53.64,12.57,10.85,2.6,12.39,4.76,12.41,16.28Z" style="fill: #425561; stroke-width: 0px;"/>
  <path d="M586.26,395.09c2.62-2.37,5.62-3.97,9.17-4.39-1.96,3.76-5.18,4.88-9.17,4.39Z" style="fill: #c89d76; stroke-width: 0px;"/>
</svg>