<?xml version="1.0" encoding="UTF-8"?>
<svg id="Layer_1" data-name="Layer 1" xmlns="http://www.w3.org/2000/svg" viewBox="0 0 1116.48 1116.48">
  <path d="M.1,557.68C.1,373.5.12,189.31,0,5.12,0,.94.94,0,5.12,0c368.74.11,737.49.11,1106.23,0,4.18,0,5.12.94,5.12,5.12-.11,368.74-.11,737.49,0,1106.23,0,4.18-.94,5.12-5.12,5.12-368.74-.11-737.49-.11-1106.23,0-4.18,0-5.13-.94-5.12-5.12.12-184.56.1-369.12.1-553.67Z" style="fill: #fefefe; stroke-width: 0px;"/>
  <path d="M135,441.68c4.12-5.37,9.71-9.12,14.78-13.44,16.8-14.32,24.25-32.28,21.12-54.34-4.57-32.23,3.51-60.31,27.59-82.93,11.92-11.2,26.4-17.54,42.29-20.93,20.35-4.35,33.82-16.75,41.15-35.97,3.75-9.84,6.03-20.26,11.82-29.27,20.12-31.32,49.12-44.45,85.74-41.38,9.63.81,19.42-.55,28.88,1.65,12.17,2.82,21.15-3.11,29.62-10.17,4.97-4.14,9.11-9.26,13.67-13.9,15.06-15.31,33.28-23.34,54.73-25.18,16.27-1.39,32.49-2.89,48.83-1.95,18.52,1.07,37.18,1.17,55.5,3.69,16.2,2.22,30.45,10.12,42.35,21.77,6.22,6.09,11.75,12.93,19.38,17.5,5.28,3.16,10.42,4.72,16.77,2.82,15.27-4.56,30.97-2.17,46.49-1.74,10.54.29,21.17.65,31.28,4.26,28.08,10.04,46.74,29.3,55.9,57.66,7.61,23.55,23.25,36.98,47.85,41.68,42.67,8.16,71.55,44.93,70.53,88.02-.05,2.2.27,4.49-.99,6.52-1.67-1.27-1.66-3.26-2.03-5.03-1.88-9-7.19-15.34-15.26-19.38-9.66-4.84-17.86-10.92-23.08-20.89-4.04-7.71-9.37-14.74-15.92-20.67-1.34-1.21-2.34-2.91-4.92-3.35,1.57,5.23,3.99,9.85,5.23,14.84,2.06,8.29,1.32,8.55-5.23,14.26-5.56,4.85-11.69,5.82-18.4,6.11-3.31.14-6.42.49-6.69,4.9-.09,1.36-1.13,2.34-2.25,3.05-2.28,1.43-2.38,3.37-1.89,5.81.99,4.98-1.52,7.7-6.27,6.24-4.23-1.29-8.2-2.05-12.48-.71-1.05.33-2.28-.01-3.23-.6-11.44-7.02-24.55-11.37-34.11-21.41-2.19-2.3-4.9-4.04-7.61-5.62-11.02-6.39-19.38-16.09-29.72-23.38-23.03-16.25-47.41-29.72-73.55-40.35-29.27-11.91-59.41-20.27-90.65-24.54-12.1-1.65-24.25-3.48-36.59-2.99-10.38.42-20.78-.61-31.18.42,22.09-1.2,44.02.55,65.73,4.4,37.3,6.61,72.24,19.71,105.08,38.67,25.13,14.5,47.56,32.32,67.69,53.06,13.49,13.9,24.83,29.55,35.34,45.8,2.92,4.51,3.49,10.18,6.89,14.53.92,1.18,1.17,2.9-.59,3.84-1.68.9-3.64.65-4.4-1.02-2.14-4.67-4.54-3.5-7.5-.9-1.23,1.08-3.24,2.1-4.63,1.55-5.1-2.02-7.03.86-9.37,4.64-2.19,3.54-7.01,3.54-12.11.78.82,2.13,3.68,3.64,1.79,6.27-1.69,2.36-4.18,2.79-6.93,2.71-6.98-.21-6.98-.17-8.43,6.43-1.38,6.29-8.49,9.43-15.13,6.1-3.45-1.73-5.39-1.75-6.81,2.02-.39,1.04-1.26,2.16-2.32,2.27-4.2.44-7.43,1.81-8.31,6.5-.17.87-1.57,1.2-2.42.95-6.45-1.94-13.28,2.6-19.67-1.29-2.27-1.38-3.44.59-4.02,2.43-1.04,3.27-3.5,5.69-4.91,8.72-.67,1.43-1.71,2.56-3.46,2.16-2.05-.47-2.16-2.24-2.41-3.93-.33-2.26,1.81-4.07,1.03-6.84-4.04,1.61-7.11,3.91-10.3,6.89-4.15,3.87-5.97,10.3-12.53,11.73-1.85.4-1.72,2.69-1.36,4.37.66,3.08,1.21,6.19,2.48,9.12,2.44,5.66.83,9.22-5.19,10.84-4.84,1.3-9.85,2.05-14.86,2.12-22.45.35-44.89,1.73-67.36,1.19-2.39-.06-4.83-.2-7.41.76,1.9,1.21,3.82.68,5.61.68,26.57.04,53.14.02,79.71.04,2.22,0,4.51-.26,6.61.64,1.86.8,2.25,1.91.11,3.01-2.89.98-5.88.7-8.84.7-27.26.02-54.53,0-81.79.03-3.12,0-6.34-.4-9.17,1.46-3.98,1.91-6.79,4.83-8.79,8.88-3.62,7.35-5.71,7.98-13.11,4.06-10.18-5.39-20.34-10.71-31.61-13.61-8.12-2.09-16.42-2.92-24.66-4.2-3.02-.47-4.64,2.04-7.07,2.78-6.25,1.12-12.56.5-18.84.54-14.62.1-29.24.02-43.86.04-2.95,0-5.96-.21-8.53,1.7-4.84,3.14-9.67,2.77-14.49-.08-3.58-2.12-7.3-3.42-11.5-1.97-6.49.74-13,.36-19.5.37-24.71.05-49.42,0-74.13.03-6.7,0-6.88.24-6.87,6.89.04,44.03.02,88.07-.02,132.1,0,3.28.69,6.74-1.59,9.68-4.06-1.12-2.99-4.6-3.02-7.23-.17-17.45-.19-34.9-.05-52.35.13-17.45.16-34.9.2-52.33.13-10.31.09-20.64.07-31.87-2.76,2.42-4.33,4.6-4.99,7-2.58,9.27-7.29,17.96-7.92,27.75-.48,7.51-3.46,14.39-5.08,21.62-1.58,7.06-12.15,13.3-20.36,12.76-2.61-.17-5.09-.25-7.69.47-4.34,1.21-5.86.07-6.24-4.4-1.27-15.2-.79-30.28,1.2-45.49,5.07-38.84,18.04-75,35.39-109.79,3.38-6.78,7.51-13.17,11.14-19.17-15.9,22.01-29.41,46.04-41.61,70.92-8.35,17.01-13.59,35.41-23.58,51.66-2.99,4.87-6.59,8.18-12.24,10.49-7.98,3.26-16.37,6.23-23.17,11.98-1.28,1.08-3,2.48-4.48,1.91-6.59-2.52-13.72.15-20.24-2.35-3.27-1.26-5.98-1.04-8.46,1.9-3.55,4.21-5.68,3.86-7.76-1.26-8.14-19.98-7.49-39.84,1.03-59.58,2.13-4.93,5.49-9.23,7.15-14.38Z" style="fill: #f47a74; stroke-width: 0px;"/>
  <path d="M135,441.68c2.15,2.73-.56,4.56-1.56,6.33-7.79,13.74-11.53,28.36-10.71,44.18.45,8.62,2.89,16.69,5.98,24.62.36.91,1.42,1.99,2.3,2.15,1.32.24,1.42-1.28,1.9-2.26,1.88-3.84,4.75-5.62,9-3.71,3.42,1.55,6.81,2.48,10.61,1.27,1.34-.43,3.31-.56,4.37.12,5.94,3.85,9.59-.22,14.18-3.07,6.39-3.97,13.19-7.84,20.35-9.82,5.28-1.46,7.46-4.72,9.95-8.49,7.1-10.75,10.94-23.01,16.09-34.67,14.39-32.57,30.56-64.14,52.84-92.2.21-.27.61-.39,2.04-1.28-2.12,4.37-3.53,7.94-5.48,11.19-18.65,31.05-31.64,64.33-39.32,99.69-3.61,16.59-6.14,33.38-6.53,50.37-.15,6.43,1.39,12.85,1.03,19.36-.18,3.26,1.82,4.15,4.24,2.56,2.69-1.77,5.05-1.13,7.88-.72,6.53.96,18.64-5.63,20.29-13.69,2.85-13.95,4.98-28.1,9.88-41.62,1.79-4.95,3.83-9.55,6.98-13.7.56-.74,1.33-1.28,2.93-.9v32.45c-1.38,9.75-1.25,19.61-1.4,29.39-.34,22.1-2.57,44.1-2.58,66.21,0,7.55-2.11,15.05,1.08,22.54,5.2,12.19,13.88,20.66,26.46,24.53,8.52,2.62,16.29-.78,22.86-5.99,4.61-3.66,9.48-7.27,12.98-12.14,3.85-5.36,6.38-11.22,6.25-18.1-.23-12.08,8.51-24.21,19.68-26.72,7.76-1.75,12.92-7.88,19.3-11.95,10.03-6.4,14.38-4.42,16.33,7.39,1.56,9.43,1.7,18.95,1.02,28.35-1.45,20.02,15.42,36.71,33.12,40.32,3.63.74,7.09.24,10.39-1.03,5.02-1.93,10.17-3.76,14.76-6.48,4.65-2.76,9.58-3.9,14.69-4.84,3.04-.56,5.98-.15,8.62,1.42,13.85,8.22,29.24,11.89,44.88,14.12,8.82,1.26,17.82-.36,25.97-4.53,4.84-2.48,9.55-2.77,14.45-.56,16.04,7.23,33.33,8.11,50.38,10.81,11.75,1.86,23.28.05,34.91,1.21,7.59.76,14.06-4.65,19.79-9.1,5.13-3.98,9.45-7.97,16.63-7.09,7.83.97,14.28,4.58,19.38,10.03,6.3,6.73,13.31,10.44,22.62,9.19,1.67-.23,3.36-.09,4.96.48,9.25,3.3,18.97,3.35,28.57,4.16,2.98.25,5.94.09,8.56,1.85.92.62,2.16,1.47,2.97.34,2.89-4.01,6.32-2.32,10-1.57,5.61,1.15,10.55.67,15-4.44,4.06-4.66,9.63-8.06,14.52-12.04,1.3-1.05,3.23-1.82,3.51-3.44,1.16-6.92,5.5-12.5,7.71-18.94,4.81-14.01-5.04-40.7-20.75-45.34-6.31-1.86-6.44-4.43-1.9-9.02,4.06-4.11,7.77-8.58,10.88-13.39,4.68-7.24,3.08-15.43,2.2-23.33-.52-4.65-2.66-8.88-4.76-13.04-2.81-5.55-2.68-11.2,1.56-15.6,9.97-10.34,2.28-30.23-5.64-36.63-1.69-1.37-3.79-1.46-5.53-2.49-.44-.42-.66-.95-.65-1.56,1.78-3.52,4.7-2.23,7.26-1.51,6.49,1.8,11.22,6.56,14.31,11.84,5.38,9.18,10.85,18.72,9.33,30.2-.17,1.29-.07,2.65-.58,3.84-4.94,11.72,2.18,19.93,8.69,27.88,2.6,3.18,4.73,5.68,4.66,10.05-.07,3.99,2.06,7.8,1.26,12.05-.39,2.09,1.33,2.33,2.99,1.44,4.28-2.31,5.78-6.25,5.67-10.75-.29-11.48,1.46-22.83.48-34.45-1.11-13.15-2.26-26.3-4.47-39.25-6.05-35.49-18.21-68.86-36.16-100.12-15.17-26.43-33.57-50.37-55.33-71.66-18.77-18.37-39.66-34.05-62.56-46.96-12.77-7.2-25.65-14.19-39.36-19.5-.35-.13-.67-.32-1-.5-1.25-.71-3.27-1.23-2.83-2.91.54-2.06,2.7-1.68,4.27-1.26,6.46,1.75,12.81,3.93,18.96,6.53,18.16,7.67,35.8,16.34,52.47,26.99,15.55,9.93,29.95,21.31,43.96,33.24,24.48,20.86,45.05,45.31,63.94,71.13,9.85,13.46,18.04,28.04,25.03,43.33,9.2,20.13,16.17,41.2,25.74,61.08,6.3,13.09,12.76,26.31,21.61,38.11,2.98,3.97,6.71,5.55,10.99,5.07,4.72-.53,7.82,1,10.46,4.63.93,1.28,2.23,2.98,4.1,2.14,1.58-.71,1.2-2.57,1-4.02-.29-2.07.41-3.56,2.08-4.79,9.98-7.36,13.15-18.4,16.02-29.63,3.28-12.81,1.51-25.88,2.19-38.82.11-2.16-.46-5,2.09-5.87,2.75-.94,4.4,1.53,5.74,3.49,5.95,8.69,8.02,18.73,9.36,28.88.73,5.49,1.63,11.02,1.37,16.64-.21,4.43,2.33,7.73,5.08,10.82,3.09,3.47,6.6,6.54,9.74,9.97,3.76,4.09,4.56,8.44,2.2,13.8-3.9,8.86-9.73,15.66-18.29,20.22-6.4,3.41-12.01,8.08-18.12,11.98-4.71,3.01-4.21,8.83-3.8,13.78.59,7.08,2.67,13.79,5.93,20.19,4.21,8.26,8.87,16.32,11.11,25.48,1.51,6.16,2.13,12.44,3.19,18.66.79,4.69,3.13,7.73,6.87,10.8,7.76,6.38,11.56,15.61,15.08,24.8.3.79.26,1.84-.45,2.62-3.97,7.62-7.82,15.31-14.15,21.37-1.49.57-2.37-.56-2.33-1.54.28-7.03-4.67-11.16-8.85-15.4-4.41-4.46-5.56-9.09-4.39-15.13,2.26-11.67,4.24-23.45,1.28-35.35-.48-1.94-.51-4.07-2.32-6.02-2.13,1.98-2,4.65-2.33,7.01-2.58,18.35-8.59,35.31-19.68,50.34-5.6,7.58-12.6,13.55-20.28,18.91-15.28,10.66-26.58,24.3-30.48,43-1.94,9.32-.95,18.88-1.29,28.32-.33,9.29-1.84,18.18-6.46,26.17-3.37,5.82-7.97,10.03-15.97,8.17-4.04-.94-8.47-.87-12.75-.37-3.08.36-4.87-.87-6.66-3.69-2.7-4.26-5.75-8.07-4.41-13.57.21-.85-.26-1.92.26-2.72,5.96-9.15,8.39-20.04,14.41-29.14,2.2-3.32,3.29-7.08,3.97-10.93.69-3.89,1.25-7.68,4.86-10.22,1.55-1.09,1.71-3.06.66-4.53-3.02-4.21-.99-8.24-.56-12.63.66-6.67,2.41-13.08,3.2-19.69,1.62-13.64,4.47-27.07,7.21-40.53,3.51-17.28,5.5-34.83,7.38-52.37,1.23-11.43,2.84-22.83,2.33-34.41-1.28-28.66-5.39-56.84-12.47-84.67-5.92-23.31-13.71-45.9-23.34-67.91-8.23-18.81-18.8-36.26-30.56-53.02-15.65-22.31-34.41-41.85-48.65-55.28,21.51,21.88,43.32,52.74,60.56,86.87,1.6,3.16,3.04,6.37,3.72,9.87,1.52,7.72,5.49,14.54,8.02,21.91,8.47,24.68,14.24,49.85,16.82,75.86,1.5,15.18,2.59,30.34,1.91,45.53-.9,20.19-2.96,40.26-7.36,60.07-4.97,22.37-11.76,44.17-20.94,65.1-6.24,14.24-13.78,27.96-22.5,40.94-2.11,3.14-5.31,2.47-8.3,3.2-2.38.59-1.28,5.65-5.06,6.4-3.84.77-6.91-1.16-10.01-2.68-5.54-2.7-8.19-2.53-12.99,1.37-3.74,3.04-6.93,6.7-11.03,9.33-7.84,5.04-10,4.84-16.05-1.81-.32.1-.37.36-.24.82.62,2.25,4.32,3.45,2.85,6.13-1.58,2.89-4.35.33-6.58.47-2.53.16-4.74,1.34-6.31,3.2-3.87,4.59-8.72,4.3-13.78,3.15-1.62-.37-3.16-1.07-4.75-1.58-3.91-1.24-6.66-.16-9.03,3.29-3.79,5.52-5.92,5.65-11.21,1.44-5.41-4.29-9.78-3.79-14.24,1.66-5.1,6.23-10.45,7.23-17.56,3.26-1.43.65-1.23,2.16-1.71,3.31-2.28,5.42-5.58,7.03-11.07,4.82-3.33-1.34-6.28-2.24-9.17.73-.95.98-2.38,1.36-3.64.95-4.87-1.56-7.61,1.52-10.5,4.5-4.14,4.28-5.8,4.57-10.4.98-2.49-1.94-4.62-2.86-7.45-.92-1.54,1.05-3.23.18-4.86-.09-8.11-1.36-11.32.19-15.42,7.51-1.16,2.06-2.67,2.72-5.07,2.21-6.57-1.4-13.62.22-19.92-3.29-1.37-.76-2.96.32-3.86,1.57-2.8,3.9-6.32,3.98-10.35,2.28-1.71-.72-3.6-.89-5.42-1.26-.73-.15-2-.48-2.13-.17-2.22,5.02-7.98,2.39-11.07,5.17-3.97,3.58-7.97,3.79-12.05.61-2.44-1.91-4.38-2.34-6.71.14-2.77,2.95-6.69,3.72-10.31,3.09-4.75-.83-9.69-.06-14.3-1.83-.87-.33-1.95-.64-2.73-.2-6.14,3.5-12.92,2.16-19.45,2.75-3.72.34-7.32,1.27-10.43,3.56-1.7,1.25-3.63,1.83-5.74,1.8-1.29-.01-3.07-.41-3.66.76-2.58,5.09-6.11,2.68-9.44,1.38-6.57-2.57-12.96-6.25-20.35-2.77-.24.12-.49.13-.54.08-4.88-4.28-9.88.56-14.81-.21-1.48-.23-3.07-.38-4.41.23-4.53,2.07-8.6,1.62-12.44-1.6-1.38-1.16-3.11-1.23-4.75-.52-4.14,1.8-8.73,0-13.01,1.97-2.41,1.11-4.71-1.7-7.07-2.69-3.22-1.35-5.8-1.8-8.19,1.55-1.26,1.76-3.32,2.95-5.45,3.76-3.04,1.16-5.31.21-7.28-2.33-1.84-2.38-3.62-5.14-6.56-.56-1.93,2.99-4.88,1.12-6.81-.49-4.98-4.16-10.31-7.91-14.9-12.52-14.96-15.01-28.71-31.04-40.75-48.51-.36-.44-.66-.91-.95-1.39-21.73-34.35-37.7-71.12-46.51-110.9-.2-.56-.34-1.14-.46-1.72-3.01-14.9-5.31-29.93-6.57-45.06-1.21-14.54-1.29-29.12-.53-43.76.74-14.31,1.98-28.49,4.54-42.57.19-1.05.07-2.25.55-2.52-.87,1.51-1.09,3.9-1.59,6.1-4.25,18.66-6.93,37.52-8.24,56.66-1.34,19.5-1.19,38.98-.59,58.43.64,20.76,3.43,41.4,6.79,61.93,1.01,6.22,1.18,12.56,1.94,18.82,1.02,8.44,3.41,16.65,4.95,25.02,1.23,6.69,2.36,13.6,7.88,18.57.54.48.95,1.28.95,1.98,0,7.7,4.17,14.13,6.43,21.13,1.22,3.79-1.01,7.27-.52,11.02.3,2.27-.85,4.6.4,6.99.74,1.43-.18,2.99-1.43,3.9-3.82,2.76-5.59,6.86-7.36,10.95-1.59,3.7-4.81,6.09-7.15,9.19-.66.88-15.72,2.71-16.63,2.17-1.75-1.04-2.33-2.8-2.82-4.62-1.06-3.98-1.37-8.04-1.3-12.15.42-22.37-7.13-41.36-23.75-56.62-3.46-3.17-7.23-5.82-11.2-8.2-22.72-13.58-34.97-34.13-39.6-59.65-3.36-18.55-.29-35.98,8.76-52.68,11.23-20.71,9.65-41.27-2.57-61.2-.39-.63-.73-1.29-1.11-1.92-.34-.45-.65-.93-.93-1.41-1-2.21-2.1-4.35-4.02-5.94-.76-.92-1.21-1.97-1.48-3.12-5.55-11.47-8.26-23.71-9.75-36.26-.59-5,.09-9.97.77-14.93.4-2.9.55-5.84.43-8.78,3.18-12.26,9.6-22.7,17.95-32.06Z" style="fill: #ef615b; stroke-width: 0px;"/>
  <path d="M830.9,413.82c-3.73-12.39-10.85-23.1-17.2-34.16-10.9-18.98-24.57-36.02-38.33-52.94-5.1-6.28-10.9-11.99-15.77-18.66,3.82,3.23,7.81,6.27,11.42,9.71,22.61,21.54,42.7,45.15,59.02,71.9,18.97,31.09,31.78,64.6,41.13,99.69,4.76,17.89,8.45,35.97,10.64,54.23,2.55,21.22,3.88,42.51.79,64.09-2.58,18.03-4.1,36.28-7.37,54.2-1.88,10.31-3.35,20.75-6.03,30.9-1.53,5.78-1,11.8-2.65,17.48-1.84,6.32-.5,13.22-3.84,19.27-1.43,2.59.66,4.53,2.02,6.47,2.25,3.2,2.05,6.04-1.65,7.73-2.5,1.14-2.94,3.01-3.2,5.31-.66,5.95-3.05,11.2-5.58,16.64-3.2,6.86-9.2,12.64-9.03,20.99.02.81-.51,2.01-1.15,2.4-3.48,2.07-2.32,5.66-3.36,8.44-1.86,4.95,3.05,5.56,3.42,8.02,1.43,9.44,8.43,4.04,12.56,4.9,13.26,2.76,20.24-1.19,23.93-12.43,1.15-3.5,2.09-7.13,2.55-10.77,1.1-8.72,1.36-17.52,1.18-26.3-.34-16.9,6.54-30.77,17.61-42.98,5.52-6.09,12.19-10.72,18.78-15.55,17.92-13.13,27.4-31.69,32.64-52.71,1.51-6.07,2.32-12.31,3.49-18.47.3-1.6.43-3.78,2.46-3.81,1.94-.03,2.42,2.16,2.84,3.69,3.09,11.25,3.48,22.6,1.1,34.04-.75,3.6-1.36,7.24-1.89,10.88-.42,2.87-.02,5.53,2.53,7.49,3.54,2.72,5.19,7.19,9.06,9.72,1.76,1.15,1.76,3.53,1.76,5.63,0,1.78-.59,3.8,1.41,5.05-5.29,7.13-12.77,11.77-19.68,17.01-17.77,13.48-26.02,31.26-24.53,53.51,1.93,28.84-7.03,53.56-27.81,73.82-1.54,1.5-2.87,3.42-5.3,3.68-3.82-3.98-7.66-7.87-12.62-10.61-3.44-1.89-3.54-5.43-2.49-8.9,1.68-5.51,3.55-10.96,5.42-16.41,1.26-3.69,1.87-7.46,2.26-12.19-2.69,2.3-3.71,4.68-4.93,6.86-9.49,16.82-21.82,30.82-38.83,40.51-8.25,4.7-17.1,7.24-26.24,8.92-15.79,2.9-29.67,9.09-40.73,21.16-6.84,7.47-10.35,16.64-14.43,25.58-1.75,3.83-2.7,8.19-6.56,10.75-2.83.97-4.38,3.38-6.1,5.54-15.14,19.1-35,29.48-59.13,31.68-9.98.91-19.54-1.96-29.07-4.35-14.89-3.73-29.46-2.81-43.8,2.5-10.36,3.83-18.44,11.06-26.49,18.2-15.21,13.48-33.09,19.75-53.12,19.4-17.42-.31-33.1-6.18-46.58-17.45-8.85-7.41-17.69-14.67-29.19-17.91-12.79-3.61-25.43-4.6-38.34-.68-9.05,2.74-18.11,5.95-27.69,5.99-33.85.14-58.61-15.13-74.39-44.91-4.25-8.02-7.34-16.58-13.62-23.5-10.18-11.24-22.26-18.97-37.28-21.72-5.66-1.04-11.41-1.75-16.97-3.16-28.23-7.2-46.76-25.31-57.75-51.85-5.26-12.7-5.67-25.96-5.4-39.42.26-13.07-4.14-24.73-11.83-35.22-4.78-6.52-10.61-11.93-17.37-16.29-24.51-15.8-39.51-37.66-43.05-66.93-.06-.53-.24-1.1-.66-1.29.89,2.55,1.87,5.19-.44,7.7-2.05-11.48-.02-22.65,2.59-33.78,4.27-.61,3.17,2.6,2.96,4.59-1.69,15.8.13,31.18,6.28,45.8,6.08,14.45,15.18,26.79,28.44,35.55,9.16,6.05,18.06,12.18,24.86,21.12,9.46,12.45,14.46,26.29,14.28,41.83-.18,15.09,1.47,29.69,9.01,43.08,13,23.07,32.34,36.72,58.96,39.59,7.36.79,14.74,1.3,21.76,4.28,5.4,2.29,9.1-1.34,7.96-7.14-1.14-5.8-2.64-11.34-5.37-16.77-3.2-6.37-3.48-13.94-6.73-20.47-.73-1.47-.82-3.28-1.73-4.69-11.31-17.68-18.82-37.29-28.14-55.96-10.35-20.73-21.79-41.05-28.96-63.24-6.57-20.35-10.77-41.24-14.15-62.37-3.87-24.15-4.37-48.4-4.21-72.74.04-6.7,1.22-13.3,1.32-19.99.03-1.74.08-4.35,2.58-4.14,2.84.24,1.58,2.9,1.52,4.51-.4,11.3.36,22.6,1.36,33.79,1.4,15.65,3.27,31.32,7.07,46.65h0c5.04,24.24,13.12,47.46,23.48,69.92,5.83,12.64,12.74,24.68,19.72,36.69,1.03,1.78,2.29,3.37,3.63,4.91h0c8.85,13.73,18.97,26.42,29.83,38.66,11.15,12.57,23.26,24.01,36.19,34.59,29.33,23.98,61.84,42.27,97.95,54.16,17.7,5.83,35.59,10.72,54.06,13.06,13.03,1.65,26.11,2.58,39.34,2.68,18.38.14,36.59-1.51,54.75-3.29,13.99-1.37,27.8-4.84,41.34-8.91,26.42-7.94,51.85-18.35,75.68-32.27,17.68-10.33,33.81-22.86,49.18-36.43,13.56-11.98,25.83-25.12,37.02-39.26,21.72-27.43,38.79-57.53,51.07-90.33,9.77-26.09,16.69-52.91,19.9-80.56,2.1-18.04,3.58-36.24,2.41-54.41-2.03-31.54-7.03-62.61-17.36-92.6-3.06-8.89-6.46-17.68-10.43-26.23Z" style="fill: #eb544f; stroke-width: 0px;"/>
  <path d="M990.35,682.55c-1.75-8.78-8.15-15.24-11.57-23.19-.27-.64-.92-1.31-1.55-1.56-10.59-4.21-9.97-14.1-11.3-22.78-1.13-7.37-2.87-14.47-6.05-21.22-4.86-10.35-11.21-20.04-12.68-31.84-.62-4.99.39-9.54,1.41-14.2.41-1.89,2.2-2.58,3.77-3.65,9.45-6.41,19.94-11.3,28.23-19.45,4.15-4.08,6.15-9.26,8.14-14.37,1.37-3.53-.78-6.68-3.33-9.39-4.18-4.45-9.04-8.24-12.55-13.37-1.9-2.78-2.61-5.55-2.64-8.83-.11-13.04-2.12-25.78-6.84-37.97-1.05-2.71-2.92-5.13-4.6-7.55-.69-.99-1.62-2.4-3.07-1.94-1.63.51-1.02,2.2-1.03,3.4-.06,7.18.06,14.36-.05,21.54-.22,15.82-3.63,30.77-12.53,44.14-.7,1.06-1.43,2.19-2.41,2.95-2.92,2.27-7.35,3.42-5.1,8.85.55,1.34-.04,3.43-2.03,4.1-1.72.58-2.81-.59-3.82-1.69-1.5-1.63-3.01-3.27-4.34-5.04-1-1.34-2.04-1.83-3.76-1.64-10.33,1.18-16.84-2.33-20.98-12.46-3.59-8.79-8.66-16.71-13.26-24.89-3.1-5.51-5.83-11.18-7.86-17.11-6.92-20.19-15.6-39.68-24.72-58.87-9.62-20.25-23.15-38.23-37.22-55.68-10.94-13.57-22.52-26.58-35.23-38.51-21.77-20.44-45.1-38.79-71.28-53.41-17.53-9.79-35.82-17.71-54.84-24.05-1.23-.41-2.39-1.05-3.96-.46,1.65,2.56,4.54,2.59,6.84,3.66,27.84,12.81,54.3,27.99,78.2,47.23,22.16,17.83,41.31,38.53,58.03,61.66,17.4,24.07,31.27,49.92,41.28,77.74,7.63,21.21,13.03,43.05,15.53,65.62,1.49,13.42,3.09,26.86,2.8,40.27-.18,8.2-.08,16.6-1.66,24.83-.9,4.66-4.54,6.39-7.82,7.8-3.45,1.48-4.12-2.38-3.3-4.28,2.43-5.63-3.07-10.5-1.03-16,.26-.72-1.04-2.47-2.03-3.12-8.03-5.31-10.15-14.08-13.32-22.25-.5-1.29-.72-2.53.05-3.73,8.94-13.95-4.46-39.89-15.24-47-3.19-2.11-6.9-4.72-11.16-1.75-1.19,1.01-2.58,1.01-4.01.8-1.44-.36-2.91-.49-4.4-.49-31.1.04-62.19-.15-93.26.11-.51.21-1.03.44-1.51.72-2.32,2.01-.69,5.04-1.87,7.34-5.02,6.56-7.72,6.78-13.67,1.01-4.21-4.09-8.07-8.73-14.76-8.51-.54.03-1.07,0-1.61-.06-.82-.15-1.55-.47-2-1.22-1.94-1.68-4.28-.93-6.43-.93-28.25-.05-56.49-.02-84.74-.09-2.08,0-5.78,1.02-5.86-1.33-.1-2.91,3.83-2.93,6.14-2.97,12.82-.21,25.69.6,38.45-.29,15.76-1.1,31.69.58,47.28-2.83,6.93-1.52,7.4-3.21,4.7-9.55-1.49-3.51-2.35-7.45-2.6-11.26-.15-2.26.59-5.57,4.57-4.43,1.52.44,2.85.08,3.11-1.38.67-3.77,4.9-5.19,5.88-7.36,2.38-5.3,7.51-6.15,10.89-9.48.97-.95,2.15-1.91,3.12-.12.67,1.25,3.1,2.29,1.04,4.15-.99.89-2.11,1.66-2.06,3.1.05,1.55-.93,3.76,1.22,4.35,2.33.64,1.5-1.93,2.26-2.92,2.36-3.08,4.3-6.26,5.52-10.03.81-2.53,3.37-3.26,5.26-1.02,2.26,2.69,4.81,2.22,7.58,1.72,1.63-.29,3.27-.64,4.92-.68,3.89-.1,8.65,2.21,9.67-4.57.23-1.53,1.71-3.94,4.96-1.86,2.45,1.57,3.73-1.25,4.22-3.53,1-4.69,3.28-4.87,6.53-1.97,3.43,3.05,7.23,2.21,10.95.87,3.38-1.22,3.79-4.04,3.79-7.26,0-4.65,3.22-6.91,8.28-5.83,1.87.4,3.53.91,5.36-.03,2.76-1.42,4.08-2.77.59-5.01-1.54-.99-4.26-2.18-1.93-4.57,1.78-1.82,3.11-.14,4.45,1.41,2.78,3.2,8.14,1.97,10.05-2.12,1.39-2.97,3.16-7.7,6.71-4.86,2.88,2.31,4.11.42,6.06.2.68-.08,1.63-.44,1.93-.97,3.98-7.01,5.8-2.96,7.47,1.45.59,1.55,1.67,2.12,3.02,1.58,2.16-.87.48-1.97-.01-3.02-12.48-26.6-30.57-49.12-51.65-69.21-17.99-17.13-37.85-31.85-59.53-44.22-31.04-17.72-64.11-29.79-98.99-36.79-15.17-3.04-30.68-4.15-46.19-5.06-9.33-.55-18.65.92-29.28-.18,3.44-2.5,6.17-2.95,8.98-2.95,13.75-.04,27.57-.88,41.24.22,14.29,1.15,28.58,2.88,42.73,5.72,20.17,4.05,39.99,9.21,59.22,16.5,20.99,7.96,41.93,16.32,60.88,28.38,15.69,9.99,30.99,20.58,45.32,32.8,12.21,10.42,24.92,21,39.44,28.37,4.04,2.05,8.11,5.06,12.13,5.96,5.91,1.32,12.37.14,18.58,1.69,2.2.55,3.33-1.31,2.04-4.03-1.54-3.25-2.8-6.88,2.79-7.92.91-.17,1.71-1.17,1.5-2.11-1.87-8.62,5.28-5.01,8.6-6.17,5.22-1.83,12.28,1.27,15.44-5.97.07-.15.24-.32.4-.37,2.57-.72,5.91-.47,6.46-4.09.59-3.92-.78-7.64-1.98-11.28-1.28-3.86-2.93-7.6-4.44-11.39-.41-1.02-1.26-2.15-.27-3.06,1.28-1.19,2.59.03,3.43.75,5.51,4.71,10.55,9.89,14.72,15.85,2.23,3.19,4.83,6.24,6.4,9.74,4.41,9.83,12.61,15.22,21.73,19.67,10.79,5.28,16.41,13.87,16.83,25.87-.1,1.79-.2,3.59-.3,5.38-1.32,4.9-.16,9.92-2.4,15.06-3.25,7.44-8.42,11.95-15.19,15.4-5.98,3.05-6.42,4.45-3.13,10.24,3.82,6.7,8.51,12.8,15.19,16.72,12.41,7.28,21.16,17.97,28.59,29.83,3.55,5.67,8.24,9.08,14.25,11.66,11.88,5.1,20.54,13.64,25.13,25.95.44,16.44-3.02,31.91-11.11,46.33-4.61,8.22-9.41,16.38-10.99,25.92-2.28,13.76-.78,26.94,6.16,39.21,9.33,16.51,14.31,34.12,12.67,53.12-.95,11.01-3.06,21.91-8.82,31.69Z" style="fill: #eb6b67; stroke-width: 0px;"/>
  <path d="M223.13,623.48c-3.75-9.15-4.18-18.98-5.51-28.58-2.43-17.6-3.83-35.29-3.45-53.08.02-.8-.36-1.61-1.66-2.4-.55,5.69-1.47,11.37-1.57,17.06-.23,13.37-.6,26.78.08,40.13.62,12.12,2.21,24.21,3.66,36.3,1.85,15.46,5.38,30.55,8.8,45.61,3.51,15.46,9.26,30.44,16.19,44.79,8.45,17.49,17.33,34.76,25.96,52.16,3.61,7.27,7.48,14.54,10.57,21.91,4.57,10.9,11.66,20.46,15.5,31.62.41,1.19.58,2.54.54,3.8-.16,4.68,1.45,8.92,4.14,12.44,1.98,2.59,2.82,5.05,2.61,8.14-.12,1.66-.08,3.3,1.02,4.78,2.49,3.33.46,5.91-1.6,8.4-2.27,2.75-5.09,2.96-7.98,1.28-6.69-3.87-14.24-3.86-21.51-4.49-14.66-1.27-27.63-6.47-39.2-15.32-16.01-12.25-25.5-28.62-29.24-48.23-1.23-6.47-1.53-13.24-1.27-19.84.63-15.89-4.79-29.45-13.83-42.21-8-11.28-20.49-16.85-30.42-25.61-11.32-9.98-19.37-22.03-24.48-36.31-4.7-13.11-4.47-26.54-4.4-40.07,0-1.94,1.32-4.68-1.99-5.57,3.15-10.08,8.72-19.13,12.27-29.03,7.02-13.53,6.42-27.42,1.87-41.45-1.26-3.87-3.02-7.54-5.23-11.01-1.22-1.93-2.94-4.02-1.29-6.62,7.08,8.01,10.87,17.55,12.2,27.98,1.88,14.69-.75,28.45-8.33,41.47-9.72,16.69-10.04,34.73-6.15,53.22,3.71,17.64,12.66,32.17,25.26,44.73,3.33,3.31,7.35,5.6,11.27,8.04,20.27,12.59,33.27,29.77,36.27,54.17,1,8.1-.41,16.32,1.92,24.27.52,1.79.52,3.82,2.56,4.56,2.1.76,3.64-.52,4.68-2.13,1.58-2.43,2.66-2.26,4.6-.14,2.22,2.41,3.86,1.34,6.16-1.1,4.55-4.81,6.83-10.72,9.89-16.28.43-.77,1.06-1.72,1.81-1.99,6.83-2.4,2.97-4.51-.81-7.02,4.72-1.18,1.84-5.04,2.87-6.72,2.93-4.78.59-8.66-.85-12.54-1.96-5.28-5.35-10.08-4.25-16.16.08-.45-.29-1.14-.66-1.48-9.1-8.49-7.65-20.42-10.66-31-5.04-17.73-3.92-36.2-8.19-53.99-1.77-7.38-1.95-15.34-2.55-23.05-1.76-22.39-1.9-44.87-1.02-67.27.92-23.4,3.82-46.67,9.91-69.41.29-1.06.7-2.11,1.2-3.1.39-.76.56-1.82,2.01-1.98.46,7.84-2.27,15.28-2.63,22.97-.26,5.51-1.4,10.97-1.72,16.48-.56,9.51-1.32,19.06-1.04,28.56.44,14.93,1.47,29.85,3.77,44.64,1.33,8.55,2.61,17.11,3.91,25.67Z" style="fill: #ef5f5b; stroke-width: 0px;"/>
  <path d="M326.77,931.39c-5.47-8.35-9.18-17.58-13.42-26.55-9.19-17.06-23.53-27.33-42.57-29.68-26.1-3.22-47.2-14.7-63.68-35.01-.48-.59-1.1-.99-1.69-1.44-3.32-4.27-5.53-9.08-6.93-14.28-.66-1.83.65-1.77,1.79-1.88,5.41,5.19,7.99,12.51,13.3,17.77,1.09,1.78,2.4,3.38,3.98,4.76,12.43,12.53,26.95,21.17,44.63,23.9,1.83.63,3.76.59,5.64.91,10.86,1.9,21.25,4.76,30.59,11.2,9.48,6.53,16.64,14.7,21.32,25.12.85,2.74,2.02,5.35,3.39,7.88,1.04,2.27,2.13,4.51,3.3,6.72.89,2,1.94,3.91,3.43,5.54,2.06,3.42,5.14,5.98,7.65,9.02,1.67,2.83,4.01,4.96,6.82,6.63,9.19,7.95,19.73,13.46,31.23,17.22,1.64.69,3.39.84,5.12,1.1.5.09.99.22,1.47.36,2.22.72,4.57.34,6.82.78.53.08,1.05.22,1.57.37,4.67.41,9.34.66,13.98-.27.54-.17,1.09-.27,1.65-.35,2.21-.28,4.5-.03,6.62-.94,6.93-1.61,13.53-4.44,20.55-5.74,2.2-.29,4.46.07,6.62-.65.54-.18,1.09-.3,1.65-.39,2.84-.35,5.69-.33,8.54-.11.56.05,1.12.16,1.66.31,2.1.8,4.38.59,6.53,1.15,10.38,2.23,20.02,6.08,28.14,13.14,1.43,1.49,2.92,2.89,4.71,3.95,5.03,3.7,9.51,8.18,15.24,10.93,1.41.99,2.91,1.79,4.56,2.31.95.37,1.87.79,2.79,1.22,3.08,1.61,6.4,2.47,9.79,3.1,3.3.97,6.68,1.56,10.07,2.13,6.93.97,13.85.77,20.78.12.56-.17,1.13-.28,1.7-.36,1.91-.28,3.89-.1,5.71-.91,2.49-1,5.09-1.63,7.69-2.27,2.04-.33,3.97-.99,5.77-2.02,6.69-2.75,12.4-7.13,18.35-11.09,2.38-.82,4.13-2.4,5.47-4.49.75-1.04,1.69-1.87,2.85-2.43,3-1.18,4.76-3.81,6.99-5.9,9.02-7.44,19.77-10.55,31.03-12.39,5.04-.07,10.07-.21,15.09.08,6.4,1.41,12.71,3.18,19.08,4.69,2.13.83,4.42.84,6.65,1.16.56.07,1.11.2,1.65.35,5.28.69,10.55.6,15.82,0,.51-.15,1.04-.25,1.57-.33,1.77-.25,3.59-.12,5.32-.65.47-.16.96-.27,1.45-.37,1.68-.28,3.42-.33,4.99-1.11,2.08-.89,4.18-1.69,6.37-2.27,1.96-.35,3.83-.95,5.46-2.16,5.13-2.81,10.24-5.65,15.19-8.77,2.36-.79,4.11-2.34,5.4-4.44.97-1.43,2.12-2.65,3.71-3.39,1.67-.53,2.65-1.72,3.24-3.33.63-1.16,1.55-2.04,2.58-2.83,8.62-7,14.71-15.81,17.49-26.51,3.88-14.89,13.74-24.57,26.32-32.24,8.92-5.44,19.09-6.78,29-8.89,18.44-3.93,33.3-13.78,46.04-27.25,2.04-2.16,3.97-4.44,6.41-6.16,1.26-.89,2.73-1.41,4.13-.36,1.51,1.14.96,2.7.4,4.06-1.86,4.48-4.45,8.56-7.23,12.51-2.24,3.18-4.5,6.38-7.08,9.3-2.81,3.19-3.58,5.89.7,8.61,3.12,1.98,4.09,4.76,1.29,7.92-4.27,1.13-8.48,2.64-12.81,3.29-8.85,1.34-17.19,3.93-24.96,8.36-10.7,3-21.63,4.92-32.51,7.09-15.2,3.02-24.26,12.94-28.87,27.05-2.66,8.15-5.52,16.08-9.94,23.45-2.83,4.72-2.28,5.91,2.31,8.97,3.54,2.36,8.46,3.93,6.43,9.94-8.23,4.18-15.96,9.64-25.64,10.17-.12-5.81-4.88-11.64.06-17.43,3.12-4.56,7.83-7.93,9.79-13.46-9.82,8.66-20.74,15.38-32.91,20.15-16.83,6.6-33.96,7.38-51.43,3.43-4.71-1.07-9.4-2.36-14.14-3.15-16.2-2.72-30.93,1.06-44,11.02-8.26,6.29-15.2,14.23-24.57,19.13-11.47,6-23.31,10.03-36.45,11.01-25.23,1.89-46.62-5.99-65.36-22.59-17.27-15.3-37.2-19.37-59.21-12.45-14.23,4.48-28.63,6.18-43.43,3.79-20.66-3.34-37.56-13.4-51.53-28.72-1.63-1.78-3.13-3.67-5.08-5.13Z" style="fill: #d43b38; stroke-width: 0px;"/>
  <path d="M718.28,952.44c-2.24.75-4.48,1.5-6.71,2.25-1.67,1.28-3.89-.26-5.55,1.09l-.03.02c-1.67,1.28-3.9-.26-5.55,1.1-.38,0-.76.01-1.14.02-5.94.86-11.88.86-17.82,0l-.03-.02c-2.04-1.44-4.61.27-6.66-1.1-6.53-.63-12.75-2.57-18.98-4.48-5.57-.92-11.13-.92-16.7,0-10.85,2.11-21.24,5.37-30.13,12.29-2.54,1.47-4.18,4.02-6.67,5.55-1.07.43-1.82,1.18-2.26,2.24-2.07,1.21-3.52,3.19-5.55,4.45-5.98,4.31-11.68,9.1-18.98,11.18-1.79.9-3.81,1.21-5.56,2.2-2.61.75-5.22,1.5-7.83,2.25-1.67,1.29-3.9-.26-5.55,1.09-.38,0-.76.01-1.14.02-7.43.85-14.85.85-22.28,0-3.53.04-6.97-.32-10.07-2.24-3.35-1.06-6.78-1.89-10.01-3.33-.92-.04-1.76-.24-2.26-1.13-1.42-.86-3.18-1.03-4.43-2.21-6.45-1.99-11.03-6.6-15.64-11.17-1.52-1.05-2.86-2.34-4.43-3.33-8.31-6.54-17.86-10.49-27.91-13.4-2.04-1.44-4.61.27-6.66-1.1-.38,0-.76-.01-1.14-.02-3.33-.89-6.67-.89-10,0l-.03.02c-2.06,1.36-4.62-.33-6.66,1.1-7.22,1.31-13.87,4.77-21.21,5.6-2.06,1.36-4.62-.34-6.67,1.09-.38,0-.76.01-1.14.02-5.2.87-10.39.87-15.59,0l-.03-.02c-2.43-1.48-5.33.32-7.77-1.1l-.03-.02c-1.65-1.36-3.88.19-5.55-1.1-12.35-3.12-23.34-8.72-32.37-17.86-2.59-1.85-4.81-4.08-6.67-6.67-3.32-2.37-6.18-5.12-7.82-8.95-1.33-1.72-1.9-3.89-3.33-5.55-1.84-1.88-2.86-4.17-3.36-6.72-1.02-2.63-2.19-5.19-3.33-7.77-6.93-13.34-17.13-23.29-30.67-29.91-6.56-3.21-13.86-3.55-20.65-5.8-1.65-1.36-3.88.19-5.55-1.09-13.54-.68-24.58-7.39-35.3-14.76-3.95-2.71-7.75-5.71-10.45-9.8-.99-1.57-2.27-2.91-3.33-4.43-5.64-4.89-9.42-11.07-12.29-17.87-3.5-4.24-4.4-9.77-7.16-14.39-1.25-1.69-.47-3.65-.71-5.47-1.05-6.95-.16-13.95-.47-20.92-.09-2.01.35-4.05-.37-6.02-.17-1.43-.35-2.87-.52-4.3.77-7.7-1.88-14.69-5.18-21.29-4.78-9.53-11.12-17.88-20.46-23.64-14.58-8.99-26.71-20.44-35.17-35.57-2.62-4.68-3.9-9.96-6.9-14.43-1.74-4.19-2.68-8.53-2.38-13.09.12-2.71.24-5.42.42-9.22,3.1,4.93,2.98,9.69,4.1,14.02,5.58,21.54,17.38,38.71,35.78,51.19,9.74,6.6,18.97,13.67,25.15,23.9,5.72,9.48,9.88,19.66,9.35,30.9-.84,17.95,1.21,35.23,10.39,51.01,12.85,22.07,30.97,36.97,56.94,40.87,15.73,2.36,30.72,6.46,42.91,17.6,6.91,6.31,13.14,13.19,16.56,21.92,8.7,22.2,23.53,38.51,45.62,47.54,17.61,7.2,35.7,7.34,53.68.91,19.01-6.8,37.42-4.96,55.37,3.6,6.58,3.14,11.95,8.1,17.46,12.71,16.77,14.03,35.62,19.77,57.59,17.51,18.75-1.93,33.58-10.72,46.91-22.9,19.99-18.26,43.06-22.67,68.63-15.71,16.14,4.39,32.14,5.13,47.85-.98,15.68-6.09,28.95-15.65,38.75-29.59,1.14-1.63,1.85-3.92,4.61-2.49,2.7,1.71,1.16,3.43-.1,4.99-1.72,2.13-4.03,3.75-5.46,6.15-1.07.43-1.82,1.18-2.25,2.26-.85,1.37-1.96,2.48-3.33,3.32-1.52.73-2.63,1.85-3.37,3.36-2.07,1.21-3.52,3.19-5.55,4.44-4.87,3.58-10.2,6.35-15.63,8.94-1.78.91-3.81,1.2-5.55,2.21Z" style="fill: #ea4b46; stroke-width: 0px;"/>
  <path d="M1002.45,486.29c-3.68-3.19-5.26-7.87-8.27-11.64-6.32-7.91-14.64-12.19-23.51-15.86-2.41-1-3.93-2.38-5.34-4.46-4.35-6.42-8.8-12.78-13.4-19.02-5.38-7.32-13.35-11.61-20.47-16.87-6.58-4.87-11.2-11.23-14.84-18.38-1.97-3.87-1.68-6.97,3.27-8.49,10.13-3.11,14.94-11.41,18.81-20.32.81-1.87.41-4.42.09-6.59-.22-1.5-.17-2.51,1.21-3.24-.93,14.8,1.94,28.61,10.41,41.07,4.89,7.2,11.76,12.21,18.48,17.42,18.75,14.54,29.57,33.58,32.7,57.06.41,3.1,1.59,6.12.86,9.32Z" style="fill: #f47a74; stroke-width: 0px;"/>
  <path d="M746.13,949.1c-2.1,2.78-3.35,5.55-.81,8.86,1.98,2.57.1,5.23-.3,7.84-1.89,1.53-4.15,1.27-6.35,1.29-1.89.85-4-.07-5.89.74-20.35-.01-40.7.77-60.83-3.79-8.11-1.83-15,3.08-21.4,7.46-4.25,2.91-8.03,6.56-11.86,10.04-18.21,16.52-39.59,23.95-64.1,22.69-11.85-.61-23.71-.89-35.56-1.55-8.75-.49-17.07-2.85-24.96-6.7,2.6-2.36,5.63-1.59,8.46-.89,21.98,5.41,43.03,2.69,63.64-6.31,9.79-4.27,17.67-10.91,25.17-18.11,14.85-14.27,32.26-18.88,51.81-12.99,24.96,7.52,48.75,4.87,72.1-5.86,3.38-1.55,6.62-4.42,10.89-2.72Z" style="fill: #c92c2a; stroke-width: 0px;"/>
  <path d="M746.13,949.1c-10.36,3.36-19.85,8.93-30.55,11.52-17.84,4.31-35.33,3.79-52.97-1.48-18.65-5.57-35.66-1.79-49.52,12.18-21.41,21.58-47.55,29.52-77.2,27.91-7.35-.4-14.3-3.79-21.82-3.24-9.58-2.85-17.18-8.96-24.54-15.3-6.14-5.3-12.54-10.07-20.09-13.15-9.16-5.27-19.11-6.19-29.35-5.13-4.44.46-8.74,1.81-12.94,3.25-21.48,7.37-42.64,6.05-63.61-2.02-16.22-6.22-27.71-17.85-36.77-32.24,2.57-1.37,3.14,1.3,4.12,2.37,10.68,11.7,23.07,20.92,38.04,26.32,15.15,5.46,30.65,6.13,46.41,2.85,10.09-2.1,19.65-6.26,30.34-6.18,16.45.13,30.24,5.97,42.26,16.82,13.9,12.55,30.03,19.81,48.88,21.33,26.46,2.14,49.11-5.81,68.02-24.39,12.1-11.89,26.98-17.53,43.56-17.83,8.6-.16,16.94,3.51,25.45,5.12,18.92,3.57,37.2,1.39,54.64-7.1,8.89-4.33,17.18-9.49,24.22-16.51,1.33-1.33,2.8-2.41,5.31-2.58-1.45,7.74-7.57,12.03-11.88,17.49Z" style="fill: #d32b28; stroke-width: 0px;"/>
  <path d="M770.67,955.64c-.13-5.72-4.79-7.61-8.75-9.66-3.7-1.92-4.65-4.4-2.53-7.56,6.62-9.85,8.9-21.49,13.65-32.06,6.25-13.93,18.15-21.06,33.01-22.88,7.93-.97,15.51-3.29,23.31-4.69,1.3-.23,2.78-1.66,3.89.36-6.36,4.79-12.3,10.02-17.15,16.39-4.45,3.31-9.14,6.18-14.22,8.5-5.82,2.66-8.82,8.24-12.19,13.28-1.5,2.25-.25,4.23,1.71,5.73,3.12,2.39,4.6,5.69,5.3,9.44-6.06,7.94-12.69,15.33-21.16,20.81-1.51.98-2.83,2.43-4.88,2.33Z" style="fill: #d63f3c; stroke-width: 0px;"/>
  <path d="M753.96,927.9c.04-2.59,2.26-3.69,3.67-5.33,1.45-1.68,3.22-3.23,1.89-5.81,4.22-5.1,6.13-11.43,8.54-17.35,9.67-23.73,28-36.26,52.34-40.44,27.95-4.8,47.48-20.8,61.99-44.15,2.15-3.46,4.17-6.99,6.39-10.41.78-1.21.76-3.88,3.17-2.86,1.84.78,1.24,2.73,1.03,4.44-1,7.97-3.99,15.38-6.6,22.86-3.17,9.09-2.72,10.39,4.92,14.06,3.8,1.83,6.54,4.77,7.59,9.03-8.22,7.08-17.25,12.71-27.85,15.54.4-2.94.97-5.54-2.69-7.44-4.99-2.58-5-4.59-1.21-9.06,5.4-6.36,10.4-13.01,14.08-20.53.7-1.44,3.11-3.28.89-4.71-1.87-1.2-3.28,1.19-4.44,2.5-5.52,6.24-11.56,11.86-18.26,16.85-12.79,9.54-27.44,14.05-42.86,17.06-22.31,4.36-37.76,16.74-44.36,39.2-3.15,10.74-9.28,19.67-18.23,26.55Z" style="fill: #d63f3c; stroke-width: 0px;"/>
  <path d="M175.19,187.45c-3.05-8.28,1.78-18.73,10.22-22.16,9.92-4.02,20.96.18,25.23,9.64.52,1.16.72,2.46,1.08,3.69-3.7,4.69-7.85,8.95-13.38,11.39-6,2.65-12.14,3.18-18.07-.52-1.57-.98-3.16-1.93-5.08-2.05Z" style="fill: #f0c965; stroke-width: 0px;"/>
  <path d="M859.83,970.38c-2.53-7.65.01-15.99,6.46-21.23,6.55-5.32,16.09-6,23.29-1.66,7.09,4.28,10.81,11.97,9.42,19.48-.34.19-.84.41-1.03.21-5.24-5.37-10.89-2.96-16.45-.83-4.98,1.91-10.11,2.61-15.33,1.78-2.71-.43-4.69.23-6.37,2.25Z" style="fill: #f06964; stroke-width: 0px;"/>
  <path d="M363.54,963.63c8.36,1.19,16.52,3.38,24.89,4.68,12.43,1.94,24.14-.35,35.9-3.57,7.8-2.13,15.44-5.11,23.75-4.48,5.88.45,11.66,1.48,17.3,3.24,2.11.66,3.64,1.74,4.07,4.02-4.86-1.09-8.96,1.65-13.35,2.77-7.02,1.79-14.03,3.58-21.31,3.22-19.2-.95-38.57.43-57.49-4.26-4.85-1.2-9.53-2.88-13.76-5.63Z" style="fill: #c92c2a; stroke-width: 0px;"/>
  <path d="M859.83,970.38c0-3.29.62-5.21,4.85-3.99,6.09,1.76,12.13.38,17.89-1.96,6.03-2.44,11.85-4.13,16.43,2.53-1.01,10.27-8.49,17.67-18.7,18.52-9.2.76-17.84-5.61-20.48-15.1Z" style="fill: #d83430; stroke-width: 0px;"/>
  <path d="M123.86,677.05c2.32-1.04,2.34,1.19,2.73,2.22,7.65,19.9,21.16,34.77,39.05,45.96,14.58,9.11,23.04,22.49,26.88,39,.61,2.62,1.54,5.43-.94,7.75-4.33-19.21-15.61-32.95-32.12-43.5-18.8-12.02-30.62-29.52-35.6-51.43Z" style="fill: #e23c38; stroke-width: 0px;"/>
  <path d="M205.41,838.71c3.33.43,4.9,3.25,6.82,5.35,14.21,15.61,31.59,25.48,52.46,28.65,9.92,1.51,19.51,3.33,28.3,8.61,7.63,4.59,13.67,10.64,18.79,17.77,1.21,1.68,1.94,3.59,1.59,5.75-7.69-9.42-16.39-17.48-28.1-21.8-6.34-2.34-12.97-3.07-19.51-4.13-22.9-3.68-41.1-15.07-55.35-33.09-1.79-2.26-4.4-3.99-4.98-7.11Z" style="fill: #d32b28; stroke-width: 0px;"/>
  <path d="M921.22,925.71c-2.98-6.19-.23-11.18,3.85-15.4,4.63-4.79,10.45-5.97,16.82-3.57,6.36,2.4,9.68,7.18,10.42,13.78.19,1.73.68,3.73-.87,5.26-2.96-3.61-6.66-4.22-10.82-2.54-6.26,2.53-12.8,2.68-19.4,2.47Z" style="fill: #e9b854; stroke-width: 0px;"/>
  <path d="M796.71,932.49c-3.11-3.22-4.17-7.95-8.48-10.45-1.8-1.05-.81-3.88.38-6.01,6.13-10.96,16.62-15.97,27.5-20.49-5.31,8.68-8.31,18.44-12.96,27.42-1.77,3.41-3.58,6.84-6.44,9.53Z" style="fill: #eb544f; stroke-width: 0px;"/>
  <path d="M123.88,233.18c-3-7.85-.02-15.46,7.39-18.87,7.47-3.43,14.75-.88,19.17,6.72-1.54,4.86-3.8,9.22-8.61,11.64-3.8,1.92-7.72,2.5-11.7.62-2.11-1-4.13-1.58-6.24-.12Z" style="fill: #f57f79; stroke-width: 0px;"/>
  <path d="M175.19,187.45c.29-1.51.68-2.25,2.55-1.35,14.29,6.83,18.41,6.11,29.92-4.91,1.17-1.12,2.14-2.6,4.06-2.56,2.09,12.17-5.67,19.89-12.55,22.13-9.05,2.95-18.16-.99-23.13-9.62-.72-1.25-.7-2.43-.84-3.68Z" style="fill: #e49f34; stroke-width: 0px;"/>
  <path d="M921.22,925.71c.23-1.49,1.1-2.67,2.58-2.11,6.52,2.43,12.22-.86,18.2-2.32,6.14-1.49,8.16-.5,9.44,4.5-2.5,7.77-8.63,12.47-15.79,12.08-7.22-.4-12.73-5.03-14.43-12.14Z" style="fill: #ce8129; stroke-width: 0px;"/>
  <path d="M131.69,542.07c3.6,8.77,9.23,16.73,10.48,26.45,1.23,9.57,1.54,19.06-2.21,28.21-.72,1.75-1.05,4.08-3.62,4.43,1.13-5.91,2.26-11.82,2.23-17.87,2.2-9.24-.14-17.94-3.39-26.45-1.72-4.49-4.29-8.62-6.89-12.66-4.73-7.35-8.75-15.02-11.36-23.4-.36-1.16-.45-2.65-2.1-2.95-2.1-9.32-3.47-18.67-.89-28.13,3.66,1.28,2.32,4.62,2.59,7.03,1.21,10.7,3.37,21.14,7.27,31.19.87,2.24,2,4.39,3.43,6.36.02.92.22,1.75,1.11,2.23,1.35,1.72,1.92,3.9,3.35,5.58h0Z" style="fill: #eb544f; stroke-width: 0px;"/>
  <path d="M114.82,517.83c.48-1.39,1.45-3.74,2.28-.61,3.98,14.97,14.1,26.82,20.15,40.68,2.98,6.83,3.74,14.25,3.37,21.73-.08,1.62-.61,2.87-2.06,3.66-.05-14.33-6.41-26.37-13.71-38.1-5.23-8.41-8.79-17.47-10.03-27.36Z" style="fill: #ea4b46; stroke-width: 0px;"/>
  <path d="M123.88,233.18c.13-1.95.09-3.73,3.13-2.92,14.09,3.74,14.11,3.67,22.13-8.22.29-.43.86-.67,1.3-1,3.51,9.16.8,16.93-7.11,20.37-7.81,3.4-15.43.18-19.45-8.22Z" style="fill: #eb4945; stroke-width: 0px;"/>
  <path d="M127.23,534.27c-2.68-1.49-3.29-4.34-4.33-6.84-4.72-11.29-5.96-23.38-7.92-35.3-.14-.85-.69-1.63-1.04-2.44-.54-5.62,1.12-10.82,3.11-15.95,1.04,1.82,1.57,3.8,1.24,5.86-3.12,19.23,1.54,37.17,8.94,54.67Z" style="fill: #ef5f5b; stroke-width: 0px;"/>
  <path d="M193.66,808.7c3.78,4.1,6.21,8.87,7.16,14.39-1.01.04-1.89.33-2.33,1.35-2.58-4.95-3.99-10.25-4.82-15.73Z" style="fill: #d63f3c; stroke-width: 0px;"/>
  <path d="M192.1,776.28c2.08,8.92.48,17.96.84,26.94-1.86-8.93-.59-17.96-.84-26.94Z" style="fill: #eb544f; stroke-width: 0px;"/>
  <path d="M732.78,967.84c1.8-1.55,3.89-.82,5.89-.74-1.84,1.26-3.88.87-5.89.74Z" style="fill: #d63f3c; stroke-width: 0px;"/>
  <path d="M798.7,474.05c2.59-1.08,4.62.04,6.53,1.66,11.7,9.88,13.91,27.35,5.01,39.63-3.02,4.16-3.2,8.58-.68,12.93,4.94,8.51,6.23,17.68,5.78,27.33-.23,5.01-1.31,9.42-4.92,13.15-4.09,4.22-6.92,9.43-11.67,13.26-3.08,2.49.94,3.71,2.64,4.26,6.8,2.21,12.54,6.08,15.96,12.19,6.6,11.81,11.51,24.38,5.82,37.93-2.31,5.51-4.21,11.37-6.95,16.41-2.78,5.09-9.06,8.28-13.85,12.25-1.27,1.05-3.23,1.57-4.02,2.86-5.33,8.63-12.65,7.43-20.39,4.4-3.35-1.31-4.3.85-5,3.33-.37,1.34-1.21,3.21-2.3,1.46-4.23-6.85-11.06-3.14-16.57-4.4-7.49-1.71-15.51-.6-22.76-4.08-1.1-.53-2.59-.67-3.81-.45-10.61,1.95-17.94-2.57-25.03-10.3-6.04-6.59-14.56-10.04-24.15-8.74-1.37.18-2.63.52-3.42,1.6-4.69,6.43-12.1,8.93-18.52,12.85-3.27,2-6.74,2.97-10.6,1.77-1.22-.38-2.57-.69-3.81-.56-19.29,2.14-38.06-2.32-57-4.48-8.41-.96-15.78-5.03-23.62-7.66-3.92-1.32-7.3-1.34-11.14.67-13.91,7.29-28.46,6-43,2.22-10.35-2.69-20.52-5.8-29.88-11.32-6.86-4.05-13.67-.83-19.95,2.17-7.48,3.57-14.73,8.32-22.96,9.08-7.99.74-15.66-2.55-22.1-7.44-3.96-3-7.26-6.91-10.7-10.56-5.29-5.63-6.32-12.84-6.72-20.08-.57-10.35.74-20.75-1.07-31.09-.38-2.19-.69-4.4-1.44-6.46-2.09-5.73-4.28-6.32-9.48-3.03-9.3,5.9-17.78,12.78-28.56,16.72-8.64,3.16-12.85,12.11-12.94,21.66-.1,10.99-4.21,19.53-12.89,26.31-4.35,3.39-8.02,7.45-13.1,10.14-13.31,7.06-24.81,1.92-34.89-7.36-8.09-7.44-13.77-17.01-12.82-28.94,1.36-16.97,1.52-34,2.42-50.99.75-14.03.93-28.09,2.08-42.09.34-4.16,1.31-8.27,1.99-12.41.05,35.78.09,71.56.21,107.33,0,2.07-1.04,4.5,1.21,6.19,1.07-.82,2.17-.85,3.3-.14,2.91,11.01,8.04,14.43,19.77,15.67,13.69,1.45,22.41-5.02,28.27-16.2,3.05-5.8,2.2-12.67,2.75-19.08.39-4.49,1.06-8.81,2.94-12.91,3.23-7.06,8.17-11.78,16.34-12.42,2.57-.2,5.11-1.08,7.68-1.19,11.58-.49,18.11-8.27,24.21-16.63,1.55-2.12,2.42-4.7,2.07-7.36-.66-4.95-.89-9.97-2.11-14.84-.96-3.8-2.85-6.8-6.57-8.41-2.69-1.11-5.67-.5-8.38-1.45-3.61-1.99-7.48-3.18-11.51-3.92-1.24-.23-2.89-.37-3-1.95-.13-1.78,1.43-2.47,2.91-2.8,3.25-.72,6.55-1.18,9.87-1.54,13.81-1.49,22.42-12.98,19.81-26.54-.97-5.03-1.26-10.39-5.37-14.28-.63-1.53-.61-2.99.53-4.31,2.82-2.71,5.46-.86,7.93.5,4.86,2.67,9.68,5.06,15.39,2.75,2.75,2.72,1.94,6.23,1.94,9.46.06,42.03.04,84.06.04,126.09,0,3.33,0,6.67.18,9.98-.49,6.66,3.05,11.31,7.88,15.14,8.52,6.75,24.99,9.18,35.16.08,4.03-3.6,8.85-6.12,13.05-9.53,6.98-5.67,11.1-5.81,18.45-.31,5.82,4.35,11.47,8.97,18.43,11.32,11.86,4.02,24.02,6.58,36.62,5.53,5.76-.48,10.48-3.54,14.44-7.71,5.91-6.22,7.95-6.65,14.66-.5,6.56,6.02,14.16,8.62,22.67,9.44,10.54,1.01,21.1,1.42,31.7,1.23,8.92-.15,17.84-.25,26.75.03,9.19.28,16.54-3.32,22.95-9.52,4.57-4.41,8.3-9.51,12.15-14.52,1.04-1.36,1.98-2.86,1.6-4.6-1.61-7.46-3.29-14.94-8.14-21.12-2.23-2.85-5.29-4.63-8.97-5.17-.64,0-1.26,0-1.89.06-11-.21-22,.53-32.97-.39-2.54-.63-4.84-1.84-7.02-3.22-4.51-2.86-4.61-6.33-.33-9.68,2.38-1.86,5.14-2.8,8.15-3.22,5.49-.77,10.99-1.48,16.49-2.14,13.48-1.63,23.24-14.17,21.48-27.79-.12-.92-.25-1.84-.25-2.76,0-7.11-2.2-13.07-8.75-16.76-2.56-3.54-1.44-6.65,1.21-9.51,2.4-2.59,4.62-5.34,7-7.94,3.29-3.6,4.43-7.72,3.79-12.33-.97-7-2.05-14-6.78-19.73-.24-.89-.14-1.72.48-2.45,4.49-.96,7.51,1.51,9.85,4.73,4.87,6.69,8.08,14.12,9.2,22.41.62,4.61-1.46,8.26-3.67,11.95-5.81,9.69-5.5,13.88,1.43,22.97,1.63,2.14,2.91,2.25,3.91-.3,1.23-3.11,2.55-6.39,2.01-9.71-.99-6.08-.42-12.22-1.3-18.29-.63-4.33.25-8.56,2.33-12.37,1.14-2.08,2.84-4.59,5.25-.86.72,2.74.45,5.53.45,8.3.07,38.12-.1,76.24.1,114.34.08,2.53.54,4.97,2.08,7.09-.46,7.43,6.51,15.08,15.84,17.23,8.92,2.06,18.09,1.49,27.09,2.48,13.57,1.49,27.02-1.07,40.53-.57,17.95.66,35.33-19.36,27.67-37.99-2.2-5.36-3.03-11.27-9.86-12.89-7.49-1.47-15.11.11-22.6-1-3.9-1.17-7.92-1.88-11.89-2.81-2.34-.55-5.1-1.02-5.17-4.1-.07-2.72,2.1-4.25,4.32-5.31,4.94-2.34,10.34-3.16,15.66-3.56,8.43-.63,14.59-4.76,19.86-10.92,4.58-5.37,6.51-11.11,5.48-18.43-1.08-7.65-1.91-15-7.55-20.96-2.16-2.28-1.68-5.11.18-7.66,2.52-3.44,5.06-6.87,7.74-10.19,2.86-3.53,3.93-7.46,2.87-11.97-1.64-6.99-2.09-14.44-7.97-19.72-.34-.57-.29-1.11.13-1.61Z" style="fill: #ef5f5b; stroke-width: 0px;"/>
  <path d="M403.77,623.57c-1.77-1.91-.89-4.25-.9-6.37-.17-46.96-.26-93.92-.37-140.88-.13-4.14,2.87-3.43,5.37-3.43,20.78,0,41.56.02,62.34.01,2.04,0,4.07-.1,6.11-.15,3.22-2.2,6.6-.65,9.74-.06,12.61,2.35,23.73,7.42,31.09,18.63,2.82,4.37,4.66,9.15,5.86,14.19.44,1.97.5,3.94,0,5.91-1.89,4.07-3.15,8.35-3.71,12.78-1.74,13.79-9.12,24.05-19.83,32.32-4.43,3.42-4.39,3.46.48,6.77,5.16,4.23,8.63,9.92,12.84,14.96,4.56,6.57,10.49,12.19,13.69,19.7.3,2.87,1.5,5.26,3.37,7.47,3.59,4.26,6.87,8.77,10.06,13.32,1.34,1.91,3.22,4.15-.39,5.88-13.4,1.24-26.82.36-40.21.51-5.92.38-10-2.25-13.36-7.13-9.65-13.99-20.29-27.26-30.19-41.08-1.39-1.94-2.68-4.02-5.04-5.01-5.64-.35-6.06-.13-6.13,5.49-.17,12.92,0,25.84-.09,38.76-.02,2.72.4,5.6-1.8,7.86-2.38,1.4-5.02,1.2-7.6,1.22-7.98.04-15.96.07-23.94-.01-2.55-.03-5.26.32-7.39-1.68Z" style="fill: #e1e2ea; stroke-width: 0px;"/>
  <path d="M627.91,589.98c11.77.06,23.55.13,35.32.19,3.28,3.63,1.88,7.75,1.22,11.79-3.35,3.03-2.41,7.07-2.59,10.87-.22,4.4.08,9.05-4.62,11.72-1.42.53-2.89.69-4.38.69-29.48.01-58.96.26-88.44-.11-6.12-.59-7.12-1.48-7.36-7.32-.38-9.26.5-18.53,0-27.8-.2-35.6-.07-71.2-.07-106.8,0-2.4-.09-4.86,1.62-6.88-.13-4.14,2.86-3.43,5.37-3.43,30.81.01,61.61.03,92.42.04,1.67,0,3.33-.09,5-.14.7.07,1.39.14,2.09.21,1.73,4.23,1.79,8.68,1.7,13.15-.06,4.78.03,9.56-.06,14.34-.07,2.12-.49,4.12-1.97,5.75-2.47,2.18-5.53,1.82-8.46,1.83-14.82.06-29.64.13-44.45-.04-4.31-.05-6.24,1.15-5.29,5.74.66,3.21-.62,6.69,1.26,9.75,1.81,1.86,4.13,1.36,6.3,1.36,13.12.04,26.24,0,39.35.04,2.56,0,5.22-.37,7.49,1.34,2.93,8.76,1.58,17.65.86,26.52-2.4,5.88-6.6,7.98-13.06,7.73-12.39-.48-24.81-.15-37.22-.14-9.46,0-9.55.15-5.5,8.57.91,3.24.64,6.57.66,9.87.05,9.51.03,9.55,9.79,9.51,4.42-.02,8.82-.01,13.02,1.68Z" style="fill: #e0e2ea; stroke-width: 0px;"/>
  <path d="M379.18,473.07c.08,1.45.16,2.91.24,4.36,2.94,8.67,2.04,17.52.65,26.23-.69,4.32-4.96,4.42-8.55,4.45-13.34.11-26.67.03-40.01.04q-10.85.01-10.69,10.63c.1,6.57.41,6.96,6.89,7,9.08.07,18.15,0,27.23.02,3.71,0,7.4.15,10.89,1.65,2.89.83,6.09-.61,8.85,1.18,3.12,4.14,1.85,8.88,1.63,13.4-.18,3.68-.81,7.33-.85,11.04-.1,8.56-1.16,9.66-9.56,9.72-12.01.09-24.03.03-36.04.02-3.33,0-6.65.04-9.97.09-3.63.73-2.47,3.67-2.48,5.82-.09,15.9-.03,31.79-.06,47.69,0,2.56.34,5.22-1.51,7.43-1.93,1.37-4.17,1.38-6.38,1.39-8.11.06-16.22.08-24.33,0-2.19-.02-4.47.07-6.25-1.63-1.07-.08-2.13-.16-3.2-.24-.12-36.76-.25-73.52-.37-110.28-.04-12.07.15-24.14-.2-36.2-.09-3.33.66-4.11,3.81-4.1,33.42.16,66.84.2,100.26.27Z" style="fill: #dddfe8; stroke-width: 0px;"/>
  <path d="M558.62,476.31c.02,37.93.03,75.85.05,113.78-.81,4.55-.41,9.23-1.58,13.73-1.61,6.16-5.87,7.94-11.37,4.81-3.5-2-5.78-5.2-8.21-8.24-4.98-6.22-10.46-12.03-14.33-19.13-4.14-7.59-4.05-14.8.38-22.14,4.66-7.72,8.07-15.86,8.48-25.06.66-14.61-2.29-28.06-12.27-39.33-.97-1.1-1.89-2.33-3.47-2.66-10-13.31-24.11-18.15-39.97-19.33.79-3.07,3.3-3.3,5.7-3.06,19.63,1.96,38.33,6.99,55.42,17.18,8.89,5.3,8.89,5.26,13.47-3.69,1.67-3.26,3.03-6.95,7.71-6.86Z" style="fill: #f06460; stroke-width: 0px;"/>
  <path d="M830.9,413.82c7.71,13.83,12.24,28.88,16.61,43.96,4.68,16.16,8.16,32.67,9.83,49.33,1.88,18.88,3.36,37.77,1.78,56.97-2.01,24.37-4.99,48.43-11.4,72.01-8.1,29.8-19.39,58.26-35.32,84.85-11.83,19.74-25.39,38.05-40.79,55.22-20.35,22.68-43.72,41.61-69.46,57.42-18.08,11.1-37.67,19.45-57.73,26.87-19.19,7.1-38.89,11.85-58.79,15.6-8.79,1.66-18.05,3.37-27.36,1.78-6.85-1.18-13.27,2.38-20.27,2.33-24.75-.17-49.42-1.56-73.47-7.23-19.94-4.7-39.44-11.17-58.3-19.52-24.72-10.95-47.47-25.05-68.54-41.79-16.51-13.12-31.65-27.75-45.05-44.19-7.37-9.05-14.26-18.4-20.98-27.91-1.02-1.44-1.8-2.76-1.66-4.53,6.94,7.2,11.68,16.12,18.37,23.52,10.13,11.2,19.43,23.21,31.75,32.28,2.78,2.04,4.67,5.2,7.97,6.68,1.33.6,2.71,1.66,3.68-.49,1.86-4.14,4.43-4.54,7.37-1.16,1.42,1.63,1.29,5.17,4.85,4.16,3.64-1.03,6.93-2.91,8.36-6.51.83-2.11,1.28-3.05,3.25-1.36,2.7,2.33,6.97,1.5,9.28,4.64.27.37,1.35.68,1.47.53,3.74-4.54,9.4.11,13.49-2.87,2.53-1.84,4.45-.13,6.35,1.52,2.69,2.34,5.45,3.73,8.94,1.08,1.86-1.41,4.41-.94,6.51-.55,2.83.52,5.19,1.67,6.14-2.63.37-1.66,2.63-2.02,3.79.17,1.92,3.62,4.2,4.16,7.54,1.49,2.15-1.72,4.75-2.17,7.01.26.38.41.97,1.12,1.25,1.03,5.88-1.94,9.55,3.6,14.63,4.25.79.1,2.36,1.01,2.21-.1-.85-6.36,3.37-3.41,6-3.52,1.26-.05,2.77-.07,3.71-.74,6.63-4.72,13.71-6.65,21.7-4.15.47.15,1.19.11,1.57-.17,7.95-5.73,16.31-1.75,24.56-1.18,4.12.28,8.64.85,11.27-3.64,1.96-3.34,4.14-2.39,6.38-.51,5.84,4.9,8.19,5.02,12.58-.85,3.23-4.31,4.5,1.03,7.16.74-.9-5.36,1.86-6.04,6.15-4.59,2.61.88,5.46.73,7.98,2.2,2.2,1.28,4.24.77,5.61-1.69,2-3.6,4.43-4.82,8.56-2.48,4.2,2.38,8.9,3.82,13.78,1.36.47-.24,1.33-.49,1.57-.26,5.5,5.18,5.7.79,6.52-3.37.65-3.27,3.63-3.68,6.44-4.34,3.85-.9,7.64-1.68,11.33.19,1.25.64,2.18.6,2.89-.4,3.2-4.48,5.34-1.53,7.84.87,2.96,2.86,5.52,4.33,8.91-.37,2.52-3.49,5.77-8.37,11.82-4.86,1.08.63,2.17.16,2.84-.96,2.45-4.14,5.51-3.2,9.04-1.42,6.68,3.35,9.8,1.53,10.97-6.06.19-1.24-.24-2.77,1.49-3.19.98-.24,1.69.42,2.42,1.06,5.04,4.51,11.77,3.38,15.58-2.58,4-6.25,11.81-6.72,16.36-.98,2.61,3.29,5.56,3.12,7.86-.44,4.52-7,6.7-7.42,14.59-4.3,4.93,1.95,9.81,3.55,14.03-2.64,1.41-2.07,5.62-6.13,10.01-2.25.82.73,2.02.99,3.09-.14-.12-2.78-3.62-2.8-4.37-5.29-.58-1.93-.36-3.49,1.12-4.41,2.06-1.29,2.23.77,2.89,2.05,3.05,5.93,5.99,6.24,11.91,2.74,4.65-2.75,8.21-6.58,12.04-10.14,2.33-2.16,5.34-2.52,7.8-4.07,3.59-2.27,4.78,1.22,6.98,2.47,2.05,1.16,4.41,1.93,6.59,2.61,3.08.96,6.2.02,5.36-4.44-.68-3.64.13-4.73,3.56-2.63,2.92,1.78,4.95.38,6.52-2.06,18.56-28.69,31.66-59.8,40.09-92.81,5.07-19.85,8.18-40.04,9.53-60.59.77-11.7,1.25-23.38.67-34.98-1.48-29.74-5.9-59.04-15.13-87.54-3.53-10.9-8.51-21.26-11.45-32.34Z" style="fill: #ef5f5b; stroke-width: 0px;"/>
  <path d="M798.7,474.05c0,.38.01.76.02,1.14,2,2.59,1.54,5.65,1.58,8.58.06,5.02.08,10.03,0,15.05-.12,8.07-1.26,9.24-9.53,9.29-13.93.09-27.87.02-41.8.03-9.46,0-12.59,4.52-9.65,13.59.84,2.59,2.79,2.83,4.81,2.84,9.65,0,19.32.69,28.95-.5,5.19-.64,10.39-.84,15.55-.05,5.54.85,6.95,2.46,7.15,8.1.23,6.68.18,13.38.03,20.06-.15,6.83-1.46,8.21-8.24,8.3-13.19.18-26.38.04-39.57.07-9.15.02-9.17.1-9.01,9.44.07,4.29,1.23,8.48,1.09,12.76-.14,4.08,1.73,5.64,5.71,5.52,8.91-.27,17.81.08,26.66,1.21.57.07,1.07.27,1.57.49,6.45.08,12.91.12,19.36.27,1.77.04,3.72-.6,5.27.89.96,1.19,1.49,2.53,1.46,4.07.16,7.4.45,14.8.21,22.2-.2,6.2-1.51,7.75-7.54,7.76-30.91.09-61.82.32-92.73-.09-1.48-.18-2.97-.3-4.09-1.48-3.93.04-3.58-2.07-2.32-4.63-.82-1.97-.41-4.04-.41-6.06-.03-38.24.21-76.49-.2-114.73-.09-8.47-.51-16.88.67-25.29l.04-.04c1.19-.72,2.52-.48,3.8-.48,31.46-.01,62.92-.01,94.38,0,1.1,0,2.23-.12,3.28.38,1.1.1,2.21.21,3.31.31.02.33.09.65.21.96Z" style="fill: #dfe1e9; stroke-width: 0px;"/>
  <path d="M269.97,735c-3.79-1.23-4.9-4.93-6.55-7.8-13.73-23.94-25.63-48.75-33.53-75.29-2.78-9.33-6.52-18.48-6.75-28.43,3.48,11.78,6.77,23.62,10.49,35.32,8.22,25.84,20.75,49.67,34.75,72.76.67,1.1,1.62,2.03,1.59,3.44Z" style="fill: #ef5f5b; stroke-width: 0px;"/>
  <path d="M131.69,542.07c-2.24-1.18-2.95-3.28-3.35-5.58,2.25,1.17,2.96,3.28,3.35,5.58Z" style="fill: #ef5f5b; stroke-width: 0px;"/>
  <path d="M762.86,790.74c3.78-6.18,9.01-11.01,14.49-15.61,1.06-1.53,2.35-2.88,3.36-4.45,13.6-16.54,25.53-34.24,36.8-52.42,1.43-1.67,2-3.86,3.35-5.58.48-2.55,1.5-4.83,3.35-6.69,1.26-1.23,1.46-2.99,2.23-4.46,1.15-4.07,2.98-7.8,5.57-11.15,1.14-2.59,2.32-5.17,3.35-7.8,1.01-1.75,1.31-3.79,2.23-5.58h0c1.01-1.75,1.31-3.79,2.23-5.58,1.47-2.84,1.97-6.05,3.35-8.92,2.79-6.88,4.35-14.16,6.69-21.19,5.74-18.73,9.16-37.97,11.49-57.34,2.18-18.07,2.28-36.38,1.14-54.49-1.87-29.75-7.23-58.99-16.7-87.37-.73-2.19-3.22-5.6.1-6.77,2.29-.81,3.03,3.09,3.93,5.23,10.86,26.09,17.6,53.33,22.09,81.13,1.41,8.73,2.15,17.59,2.65,26.47.33,5.89.9,11.77.97,17.69.26,21.18-1.75,42.09-5.29,63.01-4.26,25.2-10.82,49.63-20.01,73.39-13.24,34.24-31.51,65.69-54.9,93.9-28.65,34.55-63.11,62.23-102.81,83.33-28.79,15.3-59.43,25.5-91.37,31.14-27.08,4.78-54.49,5.37-82.05,3.5-47.57-3.23-91.22-18.78-132.21-41.87-31.85-17.94-60.37-40.44-84.48-68.39-24.33-28.21-43.56-59.49-58.99-93.21-6.78-14.82-12.15-30.21-16.19-46.03-.52-2.02-1.29-3.9,1.08-5.81,3.69,4.81,4.6,10.76,7.09,15.96,5.09,11.28,9.73,22.8,15.38,33.79,7.79,15.14,16.74,29.67,26.84,43.4,10.97,14.92,22.93,29.09,36.3,41.89,21.73,20.81,45.68,38.61,72.31,52.93,28.95,15.57,59.43,26.54,91.61,32.66,15.02,2.85,30.2,5.15,45.61,4.99,6.99-.07,13.99-.09,20.99,0,18.38.26,36.38-2.59,54.38-6.03,28.59-5.46,55.74-15.13,81.55-28.25,19.78-10.06,38.48-22.07,55.66-36.32,7.27-6.03,14.16-12.44,21.26-18.63,2.07-1.23,3.55-3.18,5.57-4.47Z" style="fill: #ea4641; stroke-width: 0px;"/>
  <path d="M235.41,674.77c-3.58-4.3-3.73-10.33-7.78-15.64.62,7.92,3.26,14.22,5.25,20.65,10.99,35.44,29.09,67.29,50.12,97.53,13.69,19.69,30.01,37.25,47.73,53.32,13.7,12.42,29.06,22.83,44.61,32.9,21.92,14.2,45.59,24.79,70,33.69,16.5,6.01,33.58,10.11,50.97,12.89,16.83,2.68,33.84,3.94,50.77,3.71,14.12-.19,28.34-.99,42.47-3.14,10.6-1.61,21.14-3.2,31.5-5.95,14.3-3.79,28.39-8.24,42.23-13.46,29.91-11.29,56.67-28.19,81.55-47.81,22.57-17.81,42.48-38.42,59.6-61.79,13.2-18.03,24.83-36.86,34.35-57,12.86-27.21,22.25-55.51,28.1-85.14,5.07-25.7,8.29-51.46,7.41-77.61-.61-18.07-2.45-36.07-5.84-53.87-4.37-22.95-10.68-45.32-19.72-66.89-.57-1.37-1.15-2.73-1.8-4.06-.22-.45-.69-.78-1.22-1.37-.8,3.77,1.15,6.8,2.1,9.83,5.43,17.49,9.02,35.36,12.07,53.37,4.14,24.44,4.28,49.14,3.07,73.7-1.1,22.28-5.31,44.29-11.66,65.78-.3,1.02-.95,1.94-1.44,2.9,2.36-11,5.1-21.94,6.97-33.03,1.93-11.43,3.6-22.9,4.41-34.54.79-11.31.86-22.59.83-33.88-.04-15.73-2.11-31.29-4.6-46.79-3.85-24.03-10.77-47.18-19.84-69.73-6.17-15.33-13.62-30.01-21.82-44.34-1.37-2.39-2.52-4.9-3.3-7.68,5.4,5.09,9.31,11.31,13.12,17.56,17.69,29,30.53,60.1,39.12,92.89,4.48,17.11,7.72,34.52,9.8,52.16,2.22,18.84,2.61,37.72,1.87,56.58-.49,12.47-2.51,24.9-4.56,37.3-3.47,21.03-8.16,41.67-15.24,61.75-3.57,10.11-7.11,20.27-11.45,30.06-7.36,16.61-15.15,33.08-25.25,48.22-9.43,14.12-19.06,28.16-30.73,40.6-8.66,9.24-17.07,18.79-26.41,27.3-9.81,8.94-20.22,17.35-31.04,25.04-15.47,10.99-31.41,21.2-48.51,29.78-12.49,6.27-24.98,12.3-38.52,15.34-10.33,2.33-19.91,6.79-30.16,9.1-10.31,2.32-20.75,4.55-31.28,4.94-16.66.61-33.39,2.75-50,1.09-19.39-1.93-38.78-3.1-58.03-7.7-29.59-7.08-56.82-19.33-83.03-33.88-20.83-11.56-40.48-25.18-58.49-41.04-23.37-20.58-43.12-44.18-60.13-70.17-16.71-25.53-30.71-52.45-40.87-81.23-7.14-20.24-11.98-41.13-15.08-62.38-.32-2.17-.04-4.43-.04-7.09,2.1,2.1,2.5,4.57,2.95,6.74,3.27,15.82,8.41,31.05,13.89,46.2.49,1.37.65,2.86.96,4.3Z" style="fill: #ec4944; stroke-width: 0px;"/>
  <path d="M849.85,641.32c-1.25,7.37-2.82,14.64-6.69,21.19,1.63-7.25,3.27-14.5,6.69-21.19Z" style="fill: #ec4944; stroke-width: 0px;"/>
  <path d="M843.16,662.51c-.34,3.27-.96,6.42-3.35,8.92.34-3.27.96-6.42,3.35-8.92Z" style="fill: #ec4944; stroke-width: 0px;"/>
  <path d="M835.36,682.58c0,3.08-1.31,5.6-3.35,7.8.01-3.08,1.32-5.6,3.35-7.8Z" style="fill: #ec4944; stroke-width: 0px;"/>
  <path d="M762.86,790.74c-1.37,2.09-2.74,4.19-5.57,4.47,1.39-2.07,2.75-4.17,5.57-4.47Z" style="fill: #ec4944; stroke-width: 0px;"/>
  <path d="M820.86,712.68c-.38,2.3-1.09,4.4-3.35,5.58.39-2.29,1.11-4.39,3.35-5.58Z" style="fill: #ec4944; stroke-width: 0px;"/>
  <path d="M837.59,677c.07,2.18-.46,4.13-2.23,5.58-.07-2.18.46-4.13,2.23-5.58Z" style="fill: #ec4944; stroke-width: 0px;"/>
  <path d="M839.82,671.43c.07,2.18-.46,4.13-2.23,5.58-.07-2.18.46-4.13,2.23-5.58Z" style="fill: #ec4944; stroke-width: 0px;"/>
  <path d="M780.71,770.68c-.09,2.26-1.55,3.48-3.36,4.45.11-2.25,1.57-3.47,3.36-4.45Z" style="fill: #ec4944; stroke-width: 0px;"/>
  <path d="M826.43,701.54c.1,1.91-.2,3.62-2.23,4.46.19-1.77.78-3.33,2.23-4.46Z" style="fill: #ec4944; stroke-width: 0px;"/>
  <path d="M692.52,493.01c-5.5,3.58-4.79,9.24-4.87,14.63-.15,9.28,3.23,18.61-.46,27.85-.75,1.87-.95,4.54-3.09,4.91-2.77.48-2.85-2.9-4.38-4.35-.36-.34-.32-1.05-.57-1.54-7.39-14.12-8.12-10.17,1.06-24.48,2.47-3.85,2.36-7.7,1.5-12.17-1.42-7.34-4.91-13.51-8.93-19.49-1.8-2.68-4.46-4.45-7.97-4.32-.36-.23-.49-.47-.38-.73.11-.26.22-.39.33-.39,4.44-1.04,7.72,1.43,10.94,3.79,1.62,1.18,2.9,2.81,4.34,4.25q6.04,6.03,12.5.93c1.03,3.7,1.04,7.41,0,11.11Z" style="fill: #ef615b; stroke-width: 0px;"/>
  <path d="M730.69,465.12c-7.23,0-14.46.03-21.69-.01-2.59-.01-5.46.2-6.24-3.19-.88-3.82,2.53-3.4,4.52-4.12,10.97-3.92,22.13-5.57,33.61-2.41,1.45.4,2.77.93,4.28.21,6.6-3.16,11.87,1.96,17.8,2.99,1.24.21,2.24,1.43,1.83,2.99-.37,1.4-1.69,1.1-2.73,1.36-2.69.66-5.32,1.95-8.02,2.05-7.78.28-15.57.1-23.36.1v.04Z" style="fill: #f47a74; stroke-width: 0px;"/>
  <path d="M692.52,493.01c0-3.7,0-7.41,0-11.11.64-2.96-1.05-6.22,1.16-8.98.03,46.46.06,92.93.08,139.39,0,2.23-.09,4.46-.14,6.68-1.71-1.92-.94-4.26-.94-6.4-.09-39.86-.12-79.72-.16-119.59Z" style="fill: #f47a74; stroke-width: 0px;"/>
  <path d="M795.17,472.77c-33.82.04-67.64.07-101.45.11,1.28-1.53,3.05-1.06,4.66-1.07,30.69-.02,61.38-.01,92.07.02,1.61,0,3.37-.45,4.73.94Z" style="fill: #f47a74; stroke-width: 0px;"/>
  <path d="M931.06,427.95c-6.27-2.28-11-6.05-15.39-10.33-.42-.41-.65-1.77-.48-1.87.73-.43,1.64-.77,2.48-.75,3.93.08,12.26,7.84,13.39,12.95Z" style="fill: #f47a74; stroke-width: 0px;"/>
  <path d="M773.53,461.28c.1,1.26-.75,1.54-1.71,1.55-1.03,0-2.42.41-2.78-.98-.34-1.33.75-1.93,1.9-2.11,1.23-.2,2.1.4,2.59,1.54Z" style="fill: #f47a74; stroke-width: 0px;"/>
  <path d="M664.75,472.93c.02.37.03.74.05,1.12,0,.77.02,1.53.03,2.3,1,1.24,1.29,2.71,1.37,4.25-.04,1.82.08,3.67-.89,5.33-.41.57-.93.7-1.56.38-.09-4.44-.17-8.87-.26-13.31.42-.02.84-.04,1.25-.06Z" style="fill: #f47a74; stroke-width: 0px;"/>
  <path d="M292.13,857.48c.91-.34,1.13.21,1.08.7-.05.43-.33,1.02-.69,1.2-.58.31-1.02-.17-.97-.74.04-.44.41-.85.58-1.16Z" style="fill: #eb544f; stroke-width: 0px;"/>
  <path d="M533.16,992.6c7.43,0,14.85,0,22.28,0-7.43,1.82-14.85,1.82-22.28,0Z" style="fill: #d63f3c; stroke-width: 0px;"/>
  <path d="M681.48,956.92c5.94,0,11.88,0,17.82,0-5.94,1.8-11.88,1.8-17.82,0Z" style="fill: #d63f3c; stroke-width: 0px;"/>
  <path d="M639.1,951.32c5.57-1.8,11.13-1.8,16.7,0-5.57,0-11.13,0-16.7,0Z" style="fill: #d63f3c; stroke-width: 0px;"/>
  <path d="M389.31,962.49c5.2,0,10.39,0,15.59,0-5.2,1.78-10.39,1.78-15.59,0Z" style="fill: #d63f3c; stroke-width: 0px;"/>
  <path d="M336.88,935.74c2.68,1.76,4.9,3.99,6.67,6.67-3.5-.94-5.72-3.17-6.67-6.67Z" style="fill: #d63f3c; stroke-width: 0px;"/>
  <path d="M513.09,987.03c3.59.35,6.96,1.35,10.01,3.33-3.71.01-7.14-.81-10.01-3.33Z" style="fill: #d63f3c; stroke-width: 0px;"/>
  <path d="M602.3,969.17c1.79-2.37,3.33-5.04,6.67-5.55-1.8,2.36-3.34,5.03-6.67,5.55Z" style="fill: #d63f3c; stroke-width: 0px;"/>
  <path d="M319.04,906.75c2.04,2.19,3.35,4.7,3.33,7.77-2.01-2.2-3.33-4.71-3.33-7.77Z" style="fill: #d63f3c; stroke-width: 0px;"/>
  <path d="M440.61,954.67c3.34-1.77,6.67-1.77,10,0-3.34,0-6.67,0-10,0Z" style="fill: #d63f3c; stroke-width: 0px;"/>
  <path d="M594.49,975.86c1.38-2.07,2.73-4.17,5.55-4.45-1.37,2.08-2.73,4.18-5.55,4.45Z" style="fill: #d63f3c; stroke-width: 0px;"/>
  <path d="M739.46,941.28c1.38-2.07,2.74-4.17,5.55-4.44-1.37,2.08-2.73,4.18-5.55,4.44Z" style="fill: #d63f3c; stroke-width: 0px;"/>
  <path d="M325.73,921.24c2.25,1.16,2.96,3.25,3.33,5.55-2.23-1.18-2.94-3.27-3.33-5.55Z" style="fill: #d63f3c; stroke-width: 0px;"/>
  <path d="M381.5,961.38c2.59.41,5.43-1.03,7.78,1.1-2.58-.42-5.43,1.02-7.78-1.1Z" style="fill: #d63f3c; stroke-width: 0px;"/>
  <path d="M433.91,955.78c1.95-2,4.44-.76,6.66-1.1-1.95,2-4.44.75-6.66,1.1Z" style="fill: #d63f3c; stroke-width: 0px;"/>
  <path d="M451.75,954.69c2.23.34,4.71-.92,6.66,1.1-2.22-.35-4.71.9-6.66-1.1Z" style="fill: #d63f3c; stroke-width: 0px;"/>
  <path d="M674.78,955.8c2.23.34,4.71-.91,6.66,1.1-2.22-.35-4.71.9-6.66-1.1Z" style="fill: #d63f3c; stroke-width: 0px;"/>
  <path d="M406.03,962.48c1.95-2,4.44-.76,6.67-1.09-1.96,1.99-4.44.75-6.67,1.09Z" style="fill: #d63f3c; stroke-width: 0px;"/>
  <path d="M486.32,969.19c2.26.07,3.47,1.53,4.43,3.33-2.24-.09-3.45-1.55-4.43-3.33Z" style="fill: #d63f3c; stroke-width: 0px;"/>
  <path d="M213.1,840.96c1.8.96,3.26,2.17,3.33,4.43-1.77-.98-3.24-2.19-3.33-4.43Z" style="fill: #d63f3c; stroke-width: 0px;"/>
  <path d="M718.28,952.44c1.44-1.76,3.37-2.3,5.55-2.21-1.45,1.75-3.38,2.29-5.55,2.21Z" style="fill: #d63f3c; stroke-width: 0px;"/>
  <path d="M569.96,989.24c1.45-1.76,3.38-2.3,5.56-2.2-1.45,1.75-3.38,2.29-5.56,2.2Z" style="fill: #d63f3c; stroke-width: 0px;"/>
  <path d="M706.01,955.79c1.56-1.85,3.68-.85,5.55-1.09-1.56,1.83-3.68.84-5.55,1.09Z" style="fill: #d63f3c; stroke-width: 0px;"/>
  <path d="M700.43,956.9c1.56-1.85,3.68-.85,5.55-1.1-1.56,1.84-3.68.84-5.55,1.1Z" style="fill: #d63f3c; stroke-width: 0px;"/>
  <path d="M262.18,869.94c1.87.25,3.99-.75,5.55,1.09-1.87-.26-3.99.74-5.55-1.09Z" style="fill: #d63f3c; stroke-width: 0px;"/>
  <path d="M748.39,933.48c.72-1.5,1.82-2.61,3.33-3.33-.09,2.12-1.2,3.23-3.33,3.33Z" style="fill: #d63f3c; stroke-width: 0px;"/>
  <path d="M506.39,983.69c1.77.16,3.31.75,4.43,2.21-1.9.1-3.59-.2-4.43-2.21Z" style="fill: #d63f3c; stroke-width: 0px;"/>
  <path d="M556.58,992.59c1.56-1.85,3.68-.85,5.55-1.09-1.56,1.84-3.68.84-5.55,1.09Z" style="fill: #d63f3c; stroke-width: 0px;"/>
  <path d="M375.92,960.26c1.87.25,3.99-.75,5.55,1.1-1.87-.26-3.99.74-5.55-1.1Z" style="fill: #d63f3c; stroke-width: 0px;"/>
  <path d="M516.29,492.07c2.29-2.5,3.33.2,4.27,1.3,7.61,8.96,11.84,19.1,12.79,31.09.99,12.46-1.79,23.45-7.83,34.2-6.42,11.44-5.08,18.85,3.63,29.09,4.17,4.91,8.14,9.99,12.06,15.1,1.63,2.12,3.64,3.67,5.88,4.98,4.09,2.39,7.16,1.2,8.33-3.36,1.22-4.76,2.17-9.58,3.24-14.38.08,9.18.48,18.38.13,27.54-.17,4.53,1.12,6.43,5.6,6.03,4.24,5.48,10.12,6.67,16.69,7.23,22.23,1.89,44.48.58,66.71,1,7.13.13,13.05-1.89,16.98-8.44,1.63-2.72,2.33-5.58,2.18-8.45-.35-6.81-.25-13.73-2.5-20.32-.26-1.57-.66-3.15.3-4.64,7.37,1.53,10.92,6.89,13.88,13.2,5.06,10.8,5.3,20.2-4.53,29.04-5.77,5.19-10.54,11.33-18.19,14.11-2.48.9-4.82,1.67-7.49,1.66-16.17-.06-32.34.23-48.5-.15-7.53-.17-15.05-1.38-22.53-2.46-6.74-.97-11.57-5.48-16.48-9.73-3.85-3.33-6.81-4.3-10.65,1.03-7.08,9.82-18.17,10.36-28.78,8.83-11.79-1.7-23.89-3.33-34.13-10.44-3.03-2.1-5.93-4.39-8.85-6.64-6.87-5.31-10.27-4.65-17.23.28-8.02,5.68-14.69,13.86-25.26,15.38-12.98,1.86-26.5-3.16-32.8-16.39-.79-1.65-.06-2.85.57-4.18,12.92-.1,25.84-.19,38.76-.29,3.43-1.92,2.9-5.32,2.93-8.36.13-12.55-.08-25.1.11-37.64.1-6.58.98-7.18,7.56-6.28,11.78,15.89,23.69,31.69,35.25,47.74,2.44,3.38,5.01,5.11,9.04,4.86,1.9,2.71,4.63,4.44,7.75,4.89,10.7,1.56,21.41,3.52,32.3,1.45,3.12-.59,5.66-1.68,6.24-5.21.15-1-.05-2-.09-2.99.11-1.86-.68-3.04-2.56-3.43-6.49-5.89-11.29-13.06-15.66-20.57-4.52-6.27-9.04-12.55-13.57-18.82-3.02-9.43-.42-17.52,5.03-25.48,10.28-15.02,9.96-31.41,4.88-48.14-1.83-4.41-3.65-8.83-5.48-13.24Z" style="fill: #e9504b; stroke-width: 0px;"/>
  <path d="M774,589.99c-10.77.1-21.53.11-32.3.34-2.95.06-3.79-.98-3.83-3.84-.09-7.05,0-14.16-.93-21.12-.79-5.9,1.48-6.65,6.55-6.54,14.29.31,28.6-.1,42.89.22,5.56.13,7.96-1.19,7.47-7.28-.54-6.64-.39-13.39.14-20.03.39-4.88-1.63-6.07-5.92-6.01-14.48.22-28.97.03-43.43.51-5.42.18-7.45-.94-7.36-6.89.19-13.37-.17-13.35,13.09-13.33,14.11.02,28.23-.22,42.33.13,4.8.12,5.87-1.43,5.74-5.92-.25-8.34.15-16.7.27-25.05.69.22,1.52.27,2.06.69,7.4,5.72,9.36,26.39,3.24,33.43-.96,1.11-1.76,2.36-2.64,3.54q-6.17,8.37-.1,17.01c1.46,2.06,1.76,4.46,2.3,6.77,3.08,13.2,2.09,24.98-9.69,34.35-6.49,5.16-13.87,5.39-21.2,6.79-4.13.79-8.46,1.09-11.94,3.85-.96.76-2.24,1.62-1.89,3.15.34,1.51,1.76,1.57,3.01,1.98,3.99,1.3,8.42.93,12.13,3.25Z" style="fill: #e64643; stroke-width: 0px;"/>
  <path d="M278.87,623.61c12.2-.12,24.39-.25,36.59-.37,2.54-1.63,1.89-4.22,1.9-6.55.05-16.11,0-32.23.04-48.34,0-2.56-.39-5.26,1.92-7.23,15.91-.04,31.83-.23,47.74-.04,4.81.06,6.84-1.06,6.72-6.39-.18-8.67.55-17.36.89-26.05,8.48,2.66,7.89,10.33,8.93,16.82.95,5.9,2.16,11.88-2.23,17.45-6.76,8.57-14.34,14.93-25.92,16.06-18.13,1.77-23.62,8.36-24.18,26.89-.34,11.15-2.7,21.14-11.82,29.19-9.97,8.81-36.2,6.9-40.53-5.74-.7-2.03-1.48-3.78-.06-5.71Z" style="fill: #e64743; stroke-width: 0px;"/>
  <path d="M658.94,553.08c.06-8.86.13-17.73.19-26.59-.14-.19-.27-.39-.41-.58.15-.19.29-.37.44-.56,7.24,1.34,9.43,7.03,9.8,13.04.46,7.47,3.07,14.98-2.04,22.47-6.76,9.91-15.56,14.49-27.3,14.78-4.89.12-9.93.37-14.57,2.45-2.43,1.09-4.98,2.46-5.21,5.28-.25,3.03,3.01,3.23,4.89,4.49,1.06.71,2.12,1.42,3.18,2.13-6.98.09-13.95.08-20.93.32-2.88.1-3.85-.87-3.78-3.77.15-5.87-.03-11.75-.08-17.62-.29-1.26-.69-2.51-.9-3.78-.73-4.28.47-5.72,4.91-5.74,14.27-.06,28.55-.29,42.8.12,5.2.15,8.09-1.35,9-6.43Z" style="fill: #e3413e; stroke-width: 0px;"/>
  <path d="M695.95,623.62c1.11,0,2.22,0,3.33,0,2.86,5.37,7.28,7.91,13.39,8.58,5.75.64,11.47.81,17.23.81,17.83,0,35.66.06,53.5-.02,12.16-.06,19.55-8.41,18.23-20.48-.66-6.05-.54-12.23-2.91-18.01-.02-1.12-.05-2.24-.07-3.37,5.08,1.12,7.86,4.28,8.95,9.36.97,4.49,3.04,8.73,3.22,13.42.6,15.36-12.8,30.21-28.78,30.54-11.09.22-22.13,2.1-33.22,1.25-12.76-.97-25.66-.29-38.26-3.24-7.24-1.7-11.41-7.17-15.74-12.46-2.04-2.49-.36-4.46,1.14-6.39Z" style="fill: #e64643; stroke-width: 0px;"/>
  <path d="M365.82,527.46c-14.1.08-28.21.06-42.31.32-3.56.07-4.47-1.26-4.37-4.52.12-4.07.09-8.19-.37-12.24-.45-4.02,1.02-5.1,4.9-5.05,16.15.18,32.3-.14,48.44.23,5.58.13,7.08-2,6.98-7.07-.14-7.23.2-14.47.33-21.71.82.37,2.14.53,2.38,1.13,3.28,8.2,7.06,17.06,3.29,25.39-3.98,8.78-10.64,15.99-22,15.92-3.65-.02-7.48.49-12.02,2.62,5.97,1.05,11.02,1.23,14.76,4.96Z" style="fill: #e44341; stroke-width: 0px;"/>
  <path d="M664.82,480.77c0-1.47,0-2.95.01-4.42.18.02.42-.03.54.07,7.75,6.34,9.65,24.8,3.31,32.17-2.16,2.51-4.06,5.29-6.5,7.48-2.93,2.63-4.11,5.5-3.02,9.28h0c-12.13,1.23-24.3.2-36.44.55-2.68-.15-3.95-1.85-4.25-4.26-.32-2.57,1.4-4.09,3.39-5.22,2.61-1.49,5.52-2.38,8.46-2.36,6.45.05,12.8-1.27,19.3-.83,7.71.52,11.71-2.27,12.8-7.97.4-1.51.8-3.02,1.19-4.53.43-.29.88-.31,1.33-.08,1.93,1,1.62-.69,1.64-1.54.11-6.17-.31-12.3-1.77-18.33Z" style="fill: #e3413e; stroke-width: 0px;"/>
  <path d="M684.81,582.31c0,1.3,0,2.23,0,3.16-.04,7.43-1.36,8.18-7.99,4.49-2.91-1.62-5.82-3.26-8.75-4.84-2.83-1.53-2.61-3.4-.43-5.19,3.43-2.81,6.89-5.61,10.55-8.1,2.53-1.72,4.49-.58,5.79,2.08,1.4,2.85.54,5.86.82,8.41Z" style="fill: #ef615b; stroke-width: 0px;"/>
  <path d="M664.76,590.03c.02,1.52.05,3.05.07,4.57,2.41,8.36,1.62,16.91,1.37,25.41-.04,1.56-.38,3.46-2.7,3.55-2.49-7.15-2.43-14.3-.01-21.45-.08-3.98-.17-7.96-.25-11.94.51-.05,1.02-.09,1.52-.14Z" style="fill: #ef615b; stroke-width: 0px;"/>
  <path d="M460.82,505.03c10.75,1.12,15.24,4.88,15.47,12.97.36,12.8-3.61,18.05-14.93,19.78-.91.14-1.81.39-2.72.51q-11.28,1.57-11.57-9.53c-2.5-6.66-1.31-13.56-1.25-20.38.02-2.66,1.71-3.88,4.47-3.68,3.5.25,7.04-.32,10.54.32Z" style="fill: #e2403f; stroke-width: 0px;"/>
  <path d="M521.77,505.31c3.66,3.23,4.09,7.96,4.47,12.13,1.26,13.49-.15,26.57-8.66,37.96-4.59,6.14-7.5,12.74-4.65,20.63.39,1.07-.02,2.2-1.09,2.9-4.05-4.83-8.1-9.66-12.15-14.5-4.11-3.86-4.12-4.74.13-8.02,12.48-9.63,21.11-21.32,20.85-37.98-.03-2.17.26-4.44,1.28-6.49-.06-2.21-.12-4.43-.18-6.64Z" style="fill: #e34240; stroke-width: 0px;"/>
  <path d="M545.36,623.27c.38,5.28-2.18,7.25-7.34,8.19-11.32,2.05-22.36.2-33.37-1.59-2.84-.46-7.94-.65-7.22-6.26,14.46-.1,28.92-.21,43.39-.31,1.51-1.11,3.02-.79,4.54-.02Z" style="fill: #cf2928; stroke-width: 0px;"/>
  <path d="M453.14,571c-4.98-1.12-6.29.97-6.17,5.85.34,14.01.08,28.03.3,42.05.06,3.71-1.1,5.14-4.74,4.38.13-15.47.28-30.94.38-46.42.05-7.71,2.34-9.05,10.22-5.86Z" style="fill: #b48aa0; stroke-width: 0px;"/>
  <path d="M521.96,511.95c1.92,19.06-5.03,34.12-20.77,44.89-3.59,2.46-4.38,4.38-1.49,7.59-1.4-.01-2.29-1.01-3.39-1.67-3.45-2.06-3.07-3.66.07-5.77,13.37-8.96,20.89-21.43,22.41-37.55.25-2.65.96-5.48,3.16-7.5Z" style="fill: #c3a4bb; stroke-width: 0px;"/>
  <path d="M460.82,505.03c-.18.03-.36.05-.55.09-4.28.78-10.07-2.07-12.54,1.34-2.02,2.79-.46,8.16-.51,12.38-.04,3.31-.1,6.61-.16,9.92-2.46-1.84-3.04-4.43-3.13-7.34-.13-4.42.27-8.86-.88-13.24-.47-1.81-.39-4,2.4-3.9,5.12.18,10.31-1.04,15.36.74Z" style="fill: #b39eb6; stroke-width: 0px;"/>
  <path d="M545.36,623.27c-1.51,0-3.03.02-4.54.02-3.23-6.49-8.12-11.8-12.52-17.45-1.91-2.46-3.32-4.89-2.88-8.09,5.23,4.93,8.68,11.26,13.18,16.76,1.04,1.27,2.18,2.44,3.28,3.65,1.83.3,2.32,1.55,2.27,3.19l1.21,1.91Z" style="fill: #c1a0b4; stroke-width: 0px;"/>
  <path d="M663.52,623.26c2.3-2.51,1.01-5.57,1.11-8.35.24-6.76.15-13.54.2-20.31,3.23,1.33,2.43,4.61,2.61,6.82.64,8.04,3.37,16.21-1.93,24.03-3.72,5.49-8.57,7.99-14.82,8.02-19.67.1-39.35.48-59-.21-6.52-.23-13.31.01-19.76-1.98-3.88-1.2-7.32-2.81-7.54-7.62,28.03-.08,56.05-.16,84.08-.25,3.16,0,6.31-.06,9.46-.09,1.85-.82,3.71-1.6,5.58-.06Z" style="fill: #d62d2b; stroke-width: 0px;"/>
  <path d="M662.43,505.25c3.94,2.87.45,5.19-1.14,6.48-3.49,2.84-8.08,3.44-12.48,3.26-8.22-.35-16.4-.11-24.41,1.75-5.12,1.18-5.72,3.4-3.17,8.39-5.87,1.43-11.76.91-17.66.24-1.42-5.57.8-11.5-1.7-16.98-.72-1.57.75-1.97,1.73-2.12,1.64-.26,3.33-.22,5-.22,16.16-.01,32.32.02,48.49-.04,1.78,0,3.73.66,5.33-.75Z" style="fill: #e3403e; stroke-width: 0px;"/>
  <path d="M658.94,553.08c1.43,5.48-.78,7.05-6.23,6.9-13.18-.35-26.38-.12-39.57-.14q-9.31-.01-10.01,9.06c-.82-1.23-1.84-2.37-2.41-3.7-1.77-4.13-.46-6.26,4.08-6.29,13.31-.1,26.62-.21,39.92.02,5.75.1,11.21.34,14.22-5.85Z" style="fill: #ef615b; stroke-width: 0px;"/>
  <path d="M663.52,623.26c-1.86.02-3.72.04-5.58.06,3.16-4.86,2.11-10.35,2.34-15.64.11-2.49-.01-4.94,3.21-5.56.01,7.05.02,14.1.03,21.15Z" style="fill: #c39db2; stroke-width: 0px;"/>
  <path d="M603.58,525.37c5.89-.08,11.77-.16,17.66-.24,12.64.07,25.28.14,37.92.21-.01.38-.02.77-.03,1.15-16.59-.08-33.19-.14-49.78-.29-1.92-.02-4.06.87-5.77-.83Z" style="fill: #ef615b; stroke-width: 0px;"/>
  <path d="M664.69,500.75h-.54s-.53-.03-.53-.03c.04-4.81.09-9.61.13-14.42.29,0,.58-.02.86-.05,2.37,4.82,2.8,9.65.08,14.5Z" style="fill: #ef615b; stroke-width: 0px;"/>
  <path d="M319.32,561.12c-.04,19.11-.08,38.22-.13,57.33,0,2.53.66,5.65-3.73,4.8.05-19.09.1-38.18.17-57.27,0-2.51-.71-5.65,3.69-4.85Z" style="fill: #c193a8; stroke-width: 0px;"/>
  <path d="M790.03,735.3c.07.85-.37,1.42-1.15,1.48-.39.03-1.02-.36-1.2-.72-.35-.7-.11-1.46.69-1.72.8-.26,1.35.22,1.66.96Z" style="fill: #ef615b; stroke-width: 0px;"/>
  <path d="M713.93,754.85c-.44-.52-.93-.84-.97-1.21-.05-.43.19-1.18.5-1.3.82-.31,1.29.29,1.27,1.05-.01.41-.42.81-.79,1.46Z" style="fill: #ef615b; stroke-width: 0px;"/>
  <path d="M798.71,594.52c4.75,2.13,3.05,6.81,3.71,10.31,1.6,8.47,2.96,17.02-4.36,24.19-3.35,3.29-6.67,5.63-11.48,5.62-22.4-.04-44.82.29-67.21-.22-6.13-.14-13.15.5-18.05-5.05-1.45-1.64-3.34-3.13-2.03-5.75,29.7-.09,59.39-.18,89.09-.25,9.89-.02,9.88,0,10.01-9.94.08-6.31.22-12.61.33-18.92Z" style="fill: #e13c39; stroke-width: 0px;"/>
  <path d="M866.99,521.84c.97,6.65,2.4,13.27,2.83,19.95,1.06,16.43,1.64,32.82.36,49.36-1.41,18.12-4.21,35.92-8.12,53.57-7.03,31.67-18.32,61.83-34.02,90.2-11.03,19.93-23.8,38.7-38.83,55.98-7.31,8.4-14.95,16.54-22.78,24.31-16.31,16.17-34.59,30.17-54.29,42.06-21.14,12.76-43.16,23.77-66.8,31.25-20.64,6.53-41.6,11.35-63.17,14.01-19.07,2.36-38.18,2.88-57.16,1.71-36.38-2.23-71.54-10.43-105.13-25.08-26.48-11.55-51.48-25.74-74.03-43.63-21.49-17.05-40.9-36.44-57.32-58.66-6.94-9.39-13.73-18.83-19.4-29.04-.5-.9-.83-1.91-.62-3.13,7.38,9.11,14.69,18.27,22.14,27.32,12.97,15.76,27.59,29.89,43.32,42.88,17.47,14.42,36.44,26.67,56.49,37.06,17.94,9.29,36.72,16.73,56.17,22.42,17.59,5.14,35.47,8.86,53.64,10.92,5.84.66,11.7,1.65,17.68,1.46,10.86-.33,21.67.95,32.63.12,23.92-1.81,47.58-4.62,70.74-11.18,20.2-5.72,39.75-13.12,58.54-22.38,12.96-6.38,25.33-13.9,37.33-21.99,21.62-14.57,40.94-31.82,58.66-50.84,17.86-19.16,32.98-40.38,46.04-63.08,10.11-17.58,18.49-35.98,25.07-55.09,7.15-20.79,12.32-42.1,15.42-64,2.31-16.34,4.12-32.67,3.96-49.08-.09-9.09,1.4-18.25-1.27-27.31.64-.02,1.28-.05,1.92-.07Z" style="fill: #df302c; stroke-width: 0px;"/>
  <path d="M664.69,500.75c-.02-4.83-.05-9.66-.07-14.5.06-1.83.13-3.66.2-5.48,3.8,6.75,3.51,14.08,2.93,21.42-.08.95-.6,2.62-1.86,2.32-1.99-.47-.79-2.48-1.18-3.77Z" style="fill: #e3403e; stroke-width: 0px;"/>
  <path d="M544.14,621.36c-.75-1.06-1.51-2.13-2.27-3.19,2.81-.33,3.41.52,2.27,3.19Z" style="fill: #e34240; stroke-width: 0px;"/>
  <path d="M700.42,857.65c-.74.38-1.49.75-2.23,1.13-2.42,1.79-5.43,2.57-7.8,4.45-32.68,15.78-66.56,27.63-102.73,32.46-18.2,2.43-36.47,4.01-54.77,3.1-39.07-1.93-76.9-9.63-112.87-25.64-12.57-5.6-24.61-12.1-36.49-18.96-.93-.53-1.68-1.37-2.23-2.64,6.43,2.76,12.86,5.49,19.11,8.46,26.27,12.5,53.9,20.35,82.42,25.63,24.01,4.45,48.26,5.57,72.46,4.15,32.77-1.93,64.7-8.59,95.48-20.52,17.99-6.97,35.58-14.62,51.89-24.99,26.37-15.36,49.63-34.56,71.01-56.3,17.24-17.53,31.83-37.04,45.5-57.34.83-1.23,1.56-2.54,2.51-3.68,1.24-1.47,2.41-4.19,4.63-2.8,1.91,1.19.11,3.36-.66,4.94-3.25,6.67-7.11,12.99-10.97,19.32-15.86,25.97-36.03,48.33-58.11,69.04-2.93,2.75-6,5.48-9.31,7.86-2.08,1.21-3.54,3.2-5.58,4.46-3.06,2.11-6.07,4.3-8.92,6.69-2.54,1.94-5.31,3.56-7.8,5.58h0c-1.59.98-2.91,2.32-4.46,3.34h0c-3,1.81-5.96,3.69-8.92,5.58h0c-3.64,2.37-7.43,4.46-11.15,6.69Z" style="fill: #d01d1a; stroke-width: 0px;"/>
  <path d="M747.26,825.32c10.16-9.98,20.73-19.57,30.4-30.01,19.51-21.07,36.37-44.07,48.91-70.79-2.49.47-3.01,2.05-3.86,3.33-16.73,25.39-35.27,49.3-57.57,70.13-17.46,16.31-36.16,31.01-56.4,43.73-1.84,1.16-4.05,1.73-6.09,2.57,6.99-4.79,14-9.54,20.95-14.39,12.15-8.48,23.47-17.94,34.37-27.99,21.75-20.05,40.55-42.5,56.48-67.4,13.13-20.53,23.76-42.23,32.26-65.09,7.57-20.36,12.28-41.44,17.36-62.45.72-2.98-.22-6.33,2.62-10.03-.92,8.78-1.36,16.56-2.6,24.22-3.96,24.54-10.37,48.44-19.72,71.49-13.02,32.09-30.14,61.73-52.25,88.51-12.67,15.34-26.66,29.31-41.5,42.49-1,.89-1.96,1.71-3.38,1.69Z" style="fill: #e22a26; stroke-width: 0px;"/>
  <path d="M700.42,857.65c3.13-3.21,6.89-5.36,11.15-6.69-2.98,3.46-6.79,5.53-11.15,6.69Z" style="fill: #e22a26; stroke-width: 0px;"/>
  <path d="M732.76,836.47c2.11-3.38,5.18-5.48,8.92-6.69-2.29,3.14-5.36,5.25-8.92,6.69Z" style="fill: #e22a26; stroke-width: 0px;"/>
  <path d="M711.57,850.96c2.41-2.76,5.26-4.82,8.92-5.57-2.41,2.76-5.25,4.82-8.92,5.57Z" style="fill: #e22a26; stroke-width: 0px;"/>
  <path d="M724.96,842.05c1.82-2.95,4.58-4.59,7.8-5.58-1.82,2.96-4.58,4.59-7.8,5.58Z" style="fill: #e22a26; stroke-width: 0px;"/>
  <path d="M690.38,863.23c1.85-2.8,4.81-3.66,7.8-4.45-1.85,2.8-4.81,3.66-7.8,4.45Z" style="fill: #e22a26; stroke-width: 0px;"/>
  <path d="M741.68,829.78c1.39-2.08,2.75-4.18,5.58-4.46-1.39,2.07-2.75,4.19-5.58,4.46Z" style="fill: #e22a26; stroke-width: 0px;"/>
  <path d="M720.49,845.39c.98-1.79,2.2-3.26,4.46-3.34-.98,1.79-2.2,3.26-4.46,3.34Z" style="fill: #e22a26; stroke-width: 0px;"/>
</svg>