<?xml version="1.0" encoding="UTF-8"?>
<svg id="Layer_1" data-name="Layer 1" xmlns="http://www.w3.org/2000/svg" viewBox="0 0 1024.27 1058.17">
  <path d="M768.64,982.82c-4.54,9.76-9.22,19.34-17.06,27.13-9.41,9.34-20.68,14.45-33.44,17.32-24.65,5.55-49.03,12.5-74.16,15.5-29.75,3.55-57.92-1.02-82.9-18.92.09-3.22,2.79-2.85,4.74-3.33,8.29-2.01,16.71-3.42,25.06-5.17,15.91-3.34,22.39-9.96,25.6-25.9,1.69-8.36,1.3-17.01,3.67-25.28,2.81-7.47,4.58-15.19,4.87-23.14,1.02-28.37,1.67-56.74,1.46-85.14-.25-33.24-.68-66.5.08-99.73,1.2-52.35,1.69-104.71,2.91-157.05,1.09-46.89.31-93.75.79-140.62.09-8.99-1.68-17.96-1.21-27.01.07-1.32-.09-2.66.1-3.96.37-2.48-.34-6.18,3.03-6.41,2.87-.19,3.91,3.05,4.67,5.66.93,3.16,1.45,6.44,2.76,9.48.29.73.65,1.44,1.07,2.1.34.7.51,1.44.55,2.22-.81,3.74.21,7.33.91,10.96,4.32,34.88,3.92,69.95,2.71,104.89-1.86,53.75.06,107.49-1.41,161.21-1.68,61.65-.73,123.3-.89,184.96-.02,8.35,1.69,16.64,1.87,25.1,1.72-4.84,2.22-9.92,2.82-14.94,1.81-15.31,2.47-30.69,3.15-46.09,2.08-47.34-.05-94.73,1.52-142.04.94-28.2-.18-56.4,1.17-84.54,1.38-28.79,1.76-57.62,3.62-86.4,2.02-31.21,1.67-62.51,1.49-93.78-.02-2.86-.06-5.73.05-8.59.34-8.49,2.17-10.66,10.29-12.98,16.32-4.66,32.98-7.94,49.34-12.46,12.12-3.35,23.18-8.27,32.06-17.48,3.23-3.35,6.97-6.35,11.6-7.33,6.01-1.28,8.98-4.39,9.61-10.68.57-5.76,2.87-6.72,8.54-4.92,2.12,1.9,2.71,4.5,3.04,7.12,1.25,10.03,2.9,20.03,2.45,30.2-.16,9.7.22,19.4-.11,29.08-1.38,39.83,0,79.71-1.25,119.51-1.65,52.83-1.86,105.67-2.76,158.5-.41,24.21-.04,48.46-1.12,72.64-1.53,34.32-.96,68.69-2.71,102.98-1.09,21.3-.67,42.73-3.85,63.91-.72,4.77-.97,9.72-4.75,13.42Z" style="fill: #b00117; stroke-width: 0px;"/>
  <path d="M994.69,545.04c-1.66,30.99-.43,62.04-1.54,93.02-.39,10.96-.59,21.94-.95,32.91-1.04,32.1-.7,64.25-1.73,96.33-.64,19.79.41,39.63-1.14,59.33-1.92,24.42,0,48.85-1.32,73.22-.62,11.39.48,23.55-7.92,33.23-.7.81-1.58,1.47-2.37,2.2-9.49.99-18.13,5.25-27.41,7.15-32.37,6.62-64.92,12.25-97.37,18.45-16.23,3.1-32.31,6.9-48.56,9.88-3.25.59-6.49,1.22-9.73,1.87-10.59,2.12-17.22.02-14.8-13.08.16-.86.05.22.03-.66-.89-32.37,1.28-64.7,1.55-97.06.29-34.55.25-69.14,1.43-103.66,1.79-52.41.34-104.8,1-157.2.21-16.83,3.84-21.71,20.71-24.91,37.22-7.06,74.63-13.04,111.93-19.65,22.76-4.04,45.46-8.51,68.42-11.4,3.25-.41,6.52-1.28,9.77.04Z" style="fill: #e3dddc; stroke-width: 0px;"/>
  <path d="M783.35,422.21c-.84-11.99-.58-24.11-4.04-35.81-4.1-4.61-4.28-10.59-5.68-16.15-2.05-9.73-7.17-18.04-12.18-26.41-3.16-5.16-7.05-9.77-10.93-14.38-2.07-3.12-4.68-5.73-7.75-7.88-2.11-1.45-3.98-3.24-6.23-4.51-2.92-1.93-5.59-4.18-8.55-6.06-2.18-1.19-4.26-2.51-5.79-4.52-11.32-10.11-25.33-15.44-38.69-21.96-3.65-1.78-8.87-2.21-8.74-8.17,1.87-1.62,4.23-2.07,6.51-2.71,2.31-.21,4.75-1.74,6.83.62-3.29,2.28-1.21,3.2.99,4.29,7.28,3.59,14.51,7.29,21.79,10.89,14.85,7.35,28.32,16.81,40.64,27.78,8.56,7.62,15.05,17.23,20.93,26.94,7.15,11.81,16.36,14.35,29.47,11.85,41.85-7.99,83.91-14.89,125.82-22.57,27.1-4.96,54.09-10.52,81.1-15.92,1.85-.37,3.64-1.52,5.23-2.63,5.42-3.76,6.77-3.26,8.57,2.84,2.17,7.37,1.84,14.96.97,22.26-.82,6.82-.85,13.57-.96,20.36-.5,29.9-.09,59.85-1.67,89.7-1.02,19.37-.44,38.68-.98,58.01-.1,3.76-.81,7.32-2.5,10.69-6.33,5.87-14.08,8.5-22.33,10.57-39.16,9.81-79.08,15.59-118.73,22.79-22.54,4.1-45.08,8.2-67.62,12.27-3.04.55-6.06,1.1-9.17,1.13-6.06.06-9.97-2.94-12.16-8.39-1.32-3.29-2.23-6.76-2.1-10.3.66-19.17-2.17-38.28-1.32-57.42.81-18.28.23-36.54.52-54.81.07-4.17-.19-8.32-1.23-12.38Z" style="fill: #e5e2e0; stroke-width: 0px;"/>
  <path d="M269.92,999.83c-16.88,4.85-33.72,3.4-50.04-1.84-29.98-9.63-56.14-26.05-79.24-47.34-14.82-13.66-24.42-30.43-29.02-50.07-.4-1.7-1.01-3.35-1.52-5.03-4.2-7.88-4.54-16.62-4.52-25.11.09-34.8-1.15-69.58-1.88-104.35-.61-29.07.38-58.17-1.18-87.17-1.26-23.58.16-47.16-1.28-70.65-1.54-25.33-.26-50.65-1.23-75.95-1.62-42.02-2.53-84.05-2.62-126.1-.02-9.72,2.4-19.22,1.7-28.93.89-13.32,3.31-26.33,8.3-38.77,1.34-3.35,2.21-7.23,6.53-8.33,3.3.51,4.3,2.73,4.11,5.7-.5,7.44,2.81,13.1,8.16,17.87,2.31,2.06,4.7,4.03,7.35,5.6,10.09,5.97,16.96,14.67,23.82,24.15,7.13,9.85,9.44,20.02,11.19,31.58,5.38,35.58,7.72,71.28,8.78,107.21.88,29.7,1.77,59.4,2.62,89.1,1.22,42.48,1.46,84.98,2.76,127.44,1.21,39.88-.31,79.75,1.2,119.57.91,23.92.09,48.06,5.47,72.04,1.36-2.09.63-4.15.72-6.06,1.87-40.28.19-80.63,1.65-120.88,1.55-42.52,1.74-85.05.69-127.51-1.77-71.16-.21-142.3-.98-213.44-.03-3.08-.26-6.2.31-9.24.5-2.68.59-5.95,4.63-6.02,1.48,1.56,1.5,3.55,1.59,5.51.75,16.95,1.99,33.88,1.43,50.86.23,7.29-.95,14.65.89,21.88,1.02,9.05.42,18.13.54,27.2-.85,7.78,1,15.41,1.21,23.14.16,12.1.18,24.2.15,36.29-.1,7.74-1.02,15.5.77,23.18,1.11,10.81.38,21.64.53,32.47,0,8.56-1.07,17.15.79,25.66.68,3.49.56,7.02.56,10.54.01,19.39.32,38.79-.06,58.17-.72,36.14.89,72.24,1.71,108.33.46,20.19.64,40.5,3.39,60.63,1.21,8.85,3.27,17.27,7.56,25.1,4,7.75,9.39,13.9,17.27,18.36,11.07,6.26,21.12,14.25,32.03,20.84,1.54.93,3.75,1.74,3.18,4.37Z" style="fill: #aa0017; stroke-width: 0px;"/>
  <path d="M620.76,965.5c-.51,8.53-1.17,17.03-2.77,25.46-2.83,14.94-11.43,23.38-26.4,26.24-10.22,1.96-20.64,3.09-30.52,6.64-15.05,2.73-30.13,5.34-45.15,8.22-38.43,7.36-76.86,14.75-115.24,22.35-9.03,1.79-17.9,4.41-27.25,3.61.25-4.56,4.02-3.9,6.82-4.49,67.92-14.2,136.25-26.39,204.15-40.71,3.03-.64,6-1.42,8.83-2.71,11-5.04,14.47-11.76,13.09-23.81-1.53-13.38-1.35-26.82-.03-40.22.32-3.3.51-6.59.51-9.89,0-19.83.27-39.67-.05-59.5-.82-49.79,1.39-99.55,1.66-149.33.15-27.7,2.07-55.42,2.48-83.15.08-5.71,1.53-11.34,1.18-17.12-.45-7.38-2.72-10.15-10.01-11.81-8.94-2.03-17.56.71-26.13,2.23-53.68,9.53-107.41,18.78-160.99,28.88-23.23,4.38-46.47,7.08-70.07,7.12-4.87,0-9.05-1.89-13.08-4.12-24.52-13.52-49.95-25.24-74.83-38.04-5.5-2.83-11.18-5.22-16.84-7.67-5.52-2.39-6.88-1.67-6.3,4.46,2.8,29.71,3.13,59.73,17.16,87.51,8.99,17.79,15.96,36.7,24.31,54.79,9.7,21.03,18.01,43.14,33.6,61.15,5.39,6.22,7.43,14.48,10.19,22.12,5.47,15.1,13.63,29.02,18,44.67,4.49,16.09,6.48,32.42,7.61,48.86,2.34,34.25,4.44,68.52,4.2,102.89-.05,6.76,2.87,12.26,7.51,17.09,2.11,2.2,5.57,4.14,3.71,8.26-4.37-.83-8.46-2.3-11.98-5.13-1.04-2.63-3.39-3.92-5.5-5.51-24.82-18.71-50.84-35.71-76.25-53.57-9.55-6.71-18.61-14.09-27.56-21.61-4.9-4.11-7.68-9.09-7.43-15.47.78-20.06-1.01-40.06-1.63-60.07-.59-19.1-1.7-38.23-3.38-57.3-.77-8.77-1.01-17.59-1.35-26.36-.88-22.65-2.23-45.28-3.2-67.92-1.36-31.64-3.12-63.28-4.64-94.91-.81-16.91-2.36-33.83-1.71-50.81.33-8.72,3.84-11.45,12.28-9.47,3.23.76,6.35,1.95,9.26,3.5,33.05,17.62,66.9,33.68,99.65,51.88,2.32,1.29,4.64,2.65,7.33,2.85,2.57.19,2.35-1.25,1.4-2.91-9.95-9.52-21.84-16.3-33.35-23.5-21.85-13.66-44.04-26.88-67.05-38.39-17.44-8.73-23.35-22.6-24.19-40.46-.91-19.36-4.27-38.48-5.84-57.77-1.79-21.91-5.02-43.74-4.65-65.77.19-11.18.59-22.43,3.16-33.43,1.11-4.77.97-9.68.62-14.48-.98-13.33,6.37-21.41,16.88-27.53,5.39-3.14,11.52-4.17,17.51-5.67,13.21-3.32,26.45-6.66,38.88-12.49,6.45-1.96,12.93-3.68,19.74-1.88.74,3.75-2.16,4.36-4.6,4.98-19.17,4.86-37.62,12.38-57.24,15.63-7.11,1.17-13.41,4.07-18.53,9.34-4.26,4.37-6.4,9.3-5.32,15.55.79,4.58.64,9.24-.36,13.8-5.16,23.59-3.44,47.25-1.16,70.98,2.89,30.06,8.21,59.75,12.47,89.6,2.23,15.64,9.66,26.98,23.11,34.91,25.99,15.32,52.23,30.27,76.41,48.45,2.64,1.98,5.56,3.66,7.93,5.93,11.51,11.02,24.89,13.27,40.26,10.46,67.01-12.23,134.14-23.8,201.2-35.72,7.93-1.41,16.06-2.82,22.57-8.51,3.82-3.34,6.36-7.09,6.99-12.25.75-6.13,1.39-12.22,1.37-18.42-.09-28.64-.31-57.28.03-85.91.37-30.69-2.1-61.13-6.99-91.36-2.33-14.42-11.8-24.25-23.81-31.76-22.7-14.18-47.23-24.5-72.25-33.72-13.42-4.95-27.05-9.46-40.03-15.4-9.9-4.53-19.61-3.53-29.58-2.18-6.11.82-12.28.64-18.38,1.66-2.82.47-5.7-.36-8-2.39-.81-3.71,2.3-3.15,4.12-3.48,12.56-2.3,25.19-4.22,37.83-6.11,4.71-.7,8.64,1.27,12.67,2.94,21.77,9.03,43.67,17.77,65.4,26.89,14.96,6.75,30.6,11.99,45.08,19.79,10.05,5.41,19.83,11.3,26.5,21.03,9.43,11.98,14.11,26.01,17.53,40.6,5,24.51,4.5,49.33,4.24,74.14-.24,32.49-.01,64.98-.09,97.46.1,1.6-.07,3.18-.46,4.73-2.67,9.08-7.5,16.77-15.08,22.04.52,2.41,2.05,2.48,3.21,2.9,7.66,2.75,10.87,8.35,10.92,16.27.09,13.87-.32,27.74.27,41.63.94,35.92-.63,71.82-1.6,107.68-1.58,58.16-.21,116.3-.96,174.45-.08,5.93.04,11.89-2,17.59Z" style="fill: #c1b3ac; stroke-width: 0px;"/>
  <path d="M360.1,1055.48c-.15-3.31-2.88-4.87-4.9-6.73-5.88-5.41-8.67-12.01-8.29-19.94.95-20.03-.57-40.03-1.58-59.98-1.38-27.05-1.67-54.34-7.76-80.92-3.48-15.18-8.87-29.8-16.21-43.65-2.35-4.44-4.13-9.24-5.67-14.03-3.2-9.99-8.19-18.91-15.16-26.7-6.73-7.52-9.94-16.92-14.11-25.84-7.68-16.42-16.72-32.09-22.13-49.7-2.78-9.08-8.47-17.64-12.66-26.55-10.02-21.27-16.93-43.07-17.36-66.88-.17-9.55-1.98-19.13-2.47-28.75-.35-6.9.97-7.86,7.35-4.79,14.67,7.07,29.38,14.05,43.94,21.35,16.92,8.48,33.7,17.24,50.53,25.89,4.71,2.42,9.36,4.84,14.97,2.77,1.36-.5,3.07-.2,4.6-.09,22.18,1.7,43.59-3.32,65.15-7.25,31.19-5.69,62.43-11.08,93.65-16.6,26.05-4.61,52.13-9.1,78.14-13.91,5.87-1.09,11.39-.42,16.84,1.32,4.4,1.4,7.36,4.82,6.9,9.42-1.89,18.81-.02,37.76-2.34,56.54-.11.87-.19,1.76-.15,2.63.96,21.13-1.05,42.19-1.48,63.29-1.33,64.95-.9,129.9-1.42,194.84-.08,9.81-1.1,19.71-1.05,29.58.03,5.69.06,11.32,1.05,17.05,2.27,13.17-6.56,23.58-21.55,26.62-30.22,6.12-60.39,12.49-90.67,18.34-37.79,7.31-75.75,13.7-113.24,22.48-3.21.75-7.33-1.41-9.57,2.74-4.7.48-9.08-.72-13.34-2.54Z" style="fill: #cec1ba; stroke-width: 0px;"/>
  <path d="M41.35,848.08c-7.39-8.01-10.14-17.81-10.37-28.36-.65-29.5-1.01-59.01-1.62-88.51-.83-40.5-1.37-81.02-2.87-121.5-.66-17.84-.13-35.68-1.02-53.48-1.41-28.36-.29-56.79-2.68-85.12,18.92,14.78,41.35,23.55,61.63,36.03,9.65,5.94,14.45,14.15,14.57,25.6.48,47.54-.93,95.06-1.76,142.57-1.07,61.59-.44,123.17-.94,184.75-.03,3.76,1.04,7.43.94,11.17-.13,4.8-2.29,6.37-6.85,4.99-3.61-1.09-6.76-3.17-9.91-5.21-9.62-6.2-19.25-12.38-28.98-18.41-3.17-1.96-6.28-4.11-10.14-4.53Z" style="fill: #b3a093; stroke-width: 0px;"/>
  <path d="M533.37,326.83c-20.68-8.37-41.54-16.35-61.98-25.28-8.85-3.87-17.16-4.96-26.55-2.77-10.35,2.41-21.09,2.94-31.4,5.76-1.16,3.65-4.51,3.09-7.14,3.44-25.95,3.41-51.76,7.72-77.62,11.66-6.06.92-11.93,3.28-18.22,2.49-1.68-.41-3.42-.72-4.61-2.31,1.44-3.11,4.41-3.3,7.16-3.79,33.37-6.01,66.67-12.39,100.05-18.35,12.99-2.32,26.03-4.42,39.05-6.58,5.51-.91,10.95-.28,16.73,2.3-9.16-5.3-17.99-2.12-26.66-.95-14.82,2.01-29.5,5.17-44.49,5.86-3.31.15-8.7,1.38-9.33-2.32-.76-4.47,5.08-4.29,8.25-5.79,2.48-1.17,5.36-1.42,7.68-3.25-12.1.23-24.07,1.44-35.92,3.48-35.33,6.07-70.47,13.15-105.69,19.8-11.06,2.09-21.5,6.45-32.4,9.14-7.47,1.84-20.63-4.03-24.32-10.76-2.41-4.41-.08-7.67,2.79-10.57,5-5.04,9.76-10.18,11.85-17.21.56-1.87,1.73-3.68.18-5.58-.97-.87-2.01-1.67-2.83-2.7-.71-1.12-1.31-2.27-.68-3.64,2.56-.89,5.07-2.13,7.91-1.36,3.3,2.17,4.6,5.58,4.3,9.15-.56,6.61.66,13.18-.22,19.79-.81,6.06.46,7.68,6.81,7.31,12.53-.73,24.94-2.74,37.38-4.44,37.05-5.07,73.85-11.73,110.06-18.12-8.81.26-18.25-.12-27.69.05-20.34.5-40.42-1.84-60.38-5.46-16.85-4.19-32.99-10.25-48.44-18.22-2.54-1.31-5.16-3.65-8.54-2.08-26.64-12.55-54.98-22.47-73.69-47.36-3.42-4.55-6.82-9.12-8.67-14.61,1.67-1.62,3.25-.68,4.77.22,21.36,12.59,44.4,22.34,63.86,38.11,1.48,1.2,3.39,3.21,5.17,2.03,2.3-1.53.8-4.19-.17-5.93-6.7-12.04-9.02-26.17-18.3-37.07-3.55-4.17-3.99-10.19-3.11-15.78.61-3.84-.73-6.36-4.03-8.13-13.34-7.13-26.02-15.66-41.25-18.65-4.54-.89-7.7-4.05-10.21-7.83.5-2.34.92-4.72,2.58-6.61,2.16-1.54,3.67.17,5.32,1.08,12.47,6.87,25.25,13.12,38.38,18.64,4.45,1.87,8.93,3.55,13.85,3.92,3.64.27,7.04,2.4,6.73,5.96-.75,8.6,5.93,14.42,7.14,22.26.56-5.97,2.91-11.43,3.45-17.26,5.08-13.53,13.89-24.09,25.75-32.21,26.35-17.21,55.1-23.8,86.31-19.58,10.6,2.59,20.88,6.13,30.85,10.57,14.8,7.2,28.68,15.82,41.72,25.93,5.11,3.96,10.97,7.12,16.74,10.24,11.35,9.3,19.86,20.98,27.63,33.26,1.17,1.85,2.18,3.84,1.9,6.18-1,2.99.5,5.54,1.47,8.19,1.13,3.08,2.42,6.09,3.59,9.16,1.46,3.82,1.3,7.82-1.74,10.32-3.33,2.73-5.92-.82-8.5-2.66-6.21-9.04-11.94-18.38-18.48-27.25-22.13-29.98-49.33-53.07-84.95-65.36-4.83-2.8-10.21-3.33-16.82-4.54,5.8,5.77,11.68,9.31,16.16,14.4,1.16,1.32,2.55,2.44,3.56,3.89,1,1.44,2.23,3.08.52,4.69-1.38,1.31-2.87.33-4.2-.48-.38-.23-.75-.48-1.05-.79-8.16-8.39-19.05-13.45-26.97-22.13-2.51-2.75-5.84-2.75-9.17-2.68-3.73.08-7.49-.38-11.15.72-13.28,1.83-14.02,3.45-5.54,14.51,11.98,15.61,26.36,28.92,41.06,41.9,1.9,1.68,4.69,2.8,4.18,6.14-.74.69-1.63.92-2.62.89-11.27-5.7-20.5-14.25-29.62-22.63-10.55-9.69-21.59-19.15-29-32.18-.39,1.86.41,3.47-.73,4.78-3.02.94-3.55-1.76-4.74-3.35-.91-1.22-1.42-2.91-3.38-1.35-8.69,5.21-17.38,10.14-24.05,18.24-13.98,16.98-17.1,41.36-7.14,60.8,1.55,3.02,3.95,5.26,6.11,7.73,5.12,8.15,12.88,13.39,20.6,18.67,2.99,2.04,6.81,3.45,6.52,8.14,2.44,4.04,7.02,4.22,10.74,5.68,12.37,4.85,25.49,6.39,38.58,7.84,17.06,1.9,34.21,1.52,51.34,1.51,2.87,0,5.73.04,8.2-1.8,6.12-1.42,12.43-1.67,18.57-3.03,13.49-1.56,27.09-2.14,40.46-4.71,4.94-.95,9.95-1.76,14.47-4.13,4.02-2.69,4.8-7.16,5.68-11.31,1.13-5.31,2.42-10.52,4-15.72,1.06-3.48,4.59-7.92-2.16-10.22-1.3-.44-1.51-3-1.14-4.81,2.93-3.2,6.32-5.72,10.51-7.07,1.77,2.81.96,5.89.92,8.34,7.38-17.71,17.2-34.47,30.71-48.89,4.77-5.1,9.02-10.75,14.83-14.81,1.87-1.31,3.53-3.66,6.25-1.51-1.35,6.54-7.2,9.75-11,14.39-9.18,11.2-16.37,23.3-21.03,37.04-5.58,16.44-11.1,32.93-21.05,47.46-1.48,2.17-2.38,4.72-2.89,7.33-.55,2.83.35,5.13,3.46,5.12,10.73-.04,19.74,5.74,29.54,8.72,21.81,6.62,43.48,7.9,66.33,6.03,16.71-1.37,23.22-10.68,29.55-22.79,1.43-2.74,1.85-5.88,3.37-8.58,1.16-1.38,1.52-4.41,4-3.36,1.96.84,1.55,3.4,1.25,5.38-.23,1.52-.7,3-1.31,4.41-8.99,20.67-22.09,36.67-46.85,40.41,2.64.4,4.02-1.08,5.78-.98,1.78.1,3.23-1.33,4.96-1.63,18.54-3.18,31.21-13.93,39.87-30.26,1.76-3.33,3.45-7.94,8.99-6.9,2.83,5.12,6.2,4.96,11.38,2.66,14.87-6.61,31-8.07,46.97-9.78,5.02-.54,9.99-1.76,15.09-1.51,5.96.52,12.73-1.28,16.45,5.68.63,3.99-6.34,3.63-4.74,7.36,1.15,2.68,5.39,2.5,7.71,4.61,2.5,2.26,3.03,4.62,1.01,7.49-1.28,1.82-2.82,3.31-4.65,4.56-6.67,3.24-14.17,3.3-21.13,5.44-2.21.26-4.42.52-6.63.78-1.89-5.29-5.69-7.11-11.21-7.2-19.85-.35-38.72,5.22-57.87,9.09-3.25.66-5.92,2.88-8.61,4.8-5.79,4.14-12.37,6.67-18.85,9.42-3.73,1.48-7.61,2.05-11.6,1.92-20.65-2.1-41.56-1.32-62.04-5.75,24.39,11.58,50.09,19.55,74.79,30.03,5.88,2.49,11.96,4.58,17.5,7.78,16.51,9.52,33.94,12.72,52.78,9.12,10.41-1.99,20.77-4.04,30.68-7.83,6.71-2.57,12.58-6.26,16.26-12.81,2.03-3.62,1.63-6.13-2.31-7.96-6.01-2.79-11.77-6.1-16.87-10.33-2.77-2.29-6.38-4.3-5.83-8.88,1.71-1.93,3.75-.97,5.4-.22,13.27,6.01,27.25,10.64,39.07,19.55,1.8,4.33-.99,6.79-4,8.68-6.97,4.37-13,9.77-18.83,15.5-5.48,5.39-12.52,8.11-19.73,10.29-13.27,4.02-26.99,6.56-39.75,12.27-5.79,2.59-11.27.9-15.02-3.59-9.41-11.29-22.51-16.87-35.04-23.07-18.76-9.29-38.39-16.67-58.27-23.28-1.05-.35-2.09-.91-3.16-.92-11.58-.08-22.66-2.65-33.48-6.59-.8-.29-1.73-.19-2.8,1.08,1.81,3.37,5.36,4.62,8.63,6.07,25.19,11.14,50.75,21.4,75.96,32.49,4.67,2.05,9.02,4.62,13.21,7.45,1.81,1.22,3.93,3.07,2.44,5.39-1.34,2.07-3.71.59-5.37-.25-14.38-7.3-29.42-12.99-44.63-18.24-3.08-1.06-6.09-2.62-9.53-2.2Z" style="fill: #c8051a; stroke-width: 0px;"/>
  <path d="M113.16,330.98c-8.12,13.87-10.43,29.32-12.31,44.9-2.09,8.74-3.69,17.61-4.43,26.51-2.05,24.71-4.18,49.43-4.23,74.26,0,3.78-.59,7.46-1.91,10.99-2.18,5.84-5.88,7.54-11.37,4.58-18.57-10-37.38-19.56-56.07-29.34-4.7-2.46-9.46-4.61-14.43-6.36-2.02-2.74-2.57-5.98-2.68-9.22-.51-15.36-1.06-30.71-1.28-46.07-.49-34.45-3.2-68.85-2.72-103.33-1.16-4.34-1.03-8.72.35-12.93,1.63-4.95,4.77-6.04,8.28-2.4,20.25,20.98,46.24,34.13,69.41,51.1,8.69,6.36,10.76,5.9,17.25-2.6,4.31-5.64,9.84-9.33,16.22-12.03,2.04-.87,4.09-1.76,6.28-.39,1.41,5.93-3.13,8.78-6.36,12.32Z" style="fill: #c8b9b2; stroke-width: 0px;"/>
  <path d="M346.89,641.67c.74,1.74,4.39,1.88,3.18,4.32-1.15,2.32-3.82,2.49-6.41,1.94-5.1-1.07-9.03-4.45-13.51-6.74-28.77-14.74-57.5-29.57-86.22-44.42-6.01-3.11-11.66-6.85-18.55-8.09-5.72-1.03-8.18.64-8.15,6.68.11,19.53,1.09,39,2.6,58.47.78,10.05.62,20.16,1.07,30.23.66,14.67,1.58,29.36,1.9,44.07.6,27.81,2.11,55.62,3.92,83.39.98,15.08,1.6,30.18,2.62,45.25,1.33,19.7,1.97,39.41,2.88,59.11.49,10.74,1.53,21.57.67,32.19-.9,11.13,3.71,18.23,11.88,24.51,16,12.29,32.3,24.11,49.04,35.39,17.45,11.75,34.47,24.14,51.51,36.48,1.53,1.11,5.66,2.19,2.8,5.89-16.84-9.45-32.48-20.78-48.73-31.16-9.9-6.33-19.65-12.9-29.47-19.36-13.71-8.93-27.46-17.77-41.09-26.82-5.18-3.44-8.9-8.31-11.63-13.9-7.87-23.1-5.57-46.85-5.26-70.61.23-17.57-.13-35.22-1.21-52.8-.13-2.19-.71-4.37-.64-6.57.69-20.94-.99-41.83-1.66-62.72-1.1-34.08-1.68-68.19-3.3-102.27-.9-18.88-1.97-37.82-1.74-56.76.06-4.62-.09-9.23-.7-13.84-1.74-13.06,3.46-17.85,16.22-15.19,1.07.22,2.07.75,3.26.74-12.27-10.8-20.15-23.16-20.43-40.57-.36-21.51-1.1-43.15-3.44-64.49-1.41-12.84.99-26.04-3.5-38.54-1.64-20.15.14-40.02,4.91-59.64,1.35-4.3,2.75-8.59,4.46-12.77,1.52-3.34,3.19-6.59,5.74-9.31,1.79-.93,2.4-4.89,5.62-2.23.52,1.26.62,2.57.32,3.89-5.54,24.32-8.24,48.96-7.17,73.86.86,19.96,2.66,39.88,4.46,59.79,1.28,14.22,2.87,28.41,3.43,42.69.33,8.34,1.2,16.68,2.86,24.87,1.67,8.23,7.91,13.02,14.27,17.41,15.41,10.65,31.96,19.41,48.31,28.48,22.1,12.27,44.06,24.76,64.9,39.12Z" style="fill: #ab988c; stroke-width: 0px;"/>
  <path d="M783.35,422.21c2.02,3.51,2.55,7.34,2.55,11.31-.02,12.32.3,24.66-.07,36.97-.77,25.51,1.9,50.93,1.5,76.42-.05,3.21.78,6.55,1.79,9.63,1.94,5.94,6.75,8.34,14.41,6.97,24.94-4.46,49.84-9.17,74.78-13.68,28.58-5.16,57.24-9.97,85.76-15.42,13.74-2.63,27.3-6.26,40.87-9.71,3.15-.8,6.01-2.64,8.3-5.19,1.12-1.24,2.41-2.96,4.26-.76-2.37,9.36-8.31,15.62-17.32,18.55-4.21,1.37-6.19,3.33-5.48,7.72-10.06,3.22-20.66,3.14-30.96,5.11-23.84,4.57-47.85,8.22-71.77,12.39-29.52,5.15-59.01,10.4-88.5,15.71-4.29.77-8.63,1.75-12.2,4.53-4.13,3.23-5.47,7.49-5.45,12.76.14,47.81.9,95.64-.24,143.42-.7,29.48.31,59-1.32,88.4-1.28,23.12.5,46.25-1.26,69.24-1.77,23.07.18,46.15-1.71,69.17-.47,5.7,3.57,6.35,7.88,5.54,14.19-2.67,28.34-5.56,42.52-8.25,28.15-5.35,56.35-10.45,84.46-16.01,18.65-3.69,37.65-6.07,55.51-13.13,2.3-.91,4.67-1.91,6.07,1.35-8.41,9.91-20.5,10.89-32.03,13.16-30.47,6.01-60.94,11.99-91.42,17.91-28.53,5.54-57.08,10.99-85.63,16.48,6.13-25.03,5.15-50.67,6.23-76.09,1.28-30.12,1.28-60.29,2.11-90.43,1.59-57.65,1.62-115.32,2.78-172.97,1.48-73.05,2.78-146.1,3.29-219.16,0-.65.19-1.3.29-1.95Z" style="fill: #bfb0a7; stroke-width: 0px;"/>
  <path d="M8.41,456.53c5.08-2.65,8.75,1.2,12.52,3.16,19.89,10.32,39.62,20.94,59.4,31.48,4.1,2.18,6.85.87,8.14-3.32.9-2.91,1.92-6.01,1.78-8.97-.68-14.31.91-28.54,1.68-42.76,1.02-18.95,2.14-37.99,6.39-56.63.38-1.65,1.09-2.83,2.54-3.6-1.21,24.42-1.49,48.86-1.06,73.3.86,48.44,1.65,96.89,2.84,145.33,1.26,51.53,1.97,103.06,2.6,154.6.49,40.74,1.44,81.47,2.44,122.2.2,8.1,1.58,16.17,2.42,24.25-19.02-12.34-38.04-24.68-57.05-37.04-4.43-2.88-8.66-5.99-11.69-10.44,3.43-3.25,6.06-.4,8.72,1.25,12.85,8,25.62,16.12,38.5,24.08,1.76,1.09,3.93,3.16,5.97,1.6,2.17-1.65,1.31-4.52.56-6.75-.88-2.61-.76-5.21-.76-7.83-.01-51.96-.86-103.94.28-155.88.79-35.91-.22-71.85,1.5-107.71,1.04-21.55.21-43.06.84-64.58.29-9.83-3.5-17.54-12.14-22.45-13.74-7.81-27.57-15.46-41.38-23.14-5.18-2.88-10.24-6.1-15.68-8.37-3.62-1.51-2.71-5.27-4.98-7.19-6.32-3.37-12.04-7.32-14.39-14.59Z" style="fill: #a59081; stroke-width: 0px;"/>
  <path d="M542.59,123.23c.32-.3.64-.6.95-.89,3.96-4.04,9.33-4.69,14.43-5.71,14.19-2.82,28.54-4.67,42.84-6.83,18.38-2.78,36.61-6.5,55.07-8.76,8.26-1.01,16.49-2.38,24.86-2.02,7.22-.75,14.12,1.93,21.26,1.98,9.93.81,17.57,6.36,25.12,12.14,5.45,5.09,10.29,10.72,14.1,17.13,1.4,2.36,4.05,5.12.37,7.92-4.42-1.35-4.82-7.39-9.58-8.38-1.6,1.52-.51,2.97-.11,4.36,2.78,9.49-.13,15.25-9.47,18.37-7.14,2.39-14.6,3.32-22.03,4.21-17.31,2.08-34.39,5.35-51.17,10.04-5.18,1.45-10.7,2.58-14.68,7.35,2.69,2.25,5.29.93,7.7.48,22.5-4.28,44.91-9.06,67.74-11.36,8.97-.9,17.91-2.57,26.96-2,5.03.32,8.5-1.28,10.29-6.1,4.42.21,3.25,4.1,4.32,6.53.13,1.56-.08,3.04-.99,4.35-1.85,1.88-4.14,2.37-6.67,2.08-18.02-2.08-35.48.19-52.67,6.02-10.64,3.61-21.59,5.61-33.1,4.22-8.22-.99-16.06,2.13-23.71,4.97-3.26,1.21-4.58,3.52-3.96,7.29,1.53,9.39-1.35,12.52-11.75,13.49-.72-.13-1.38-.39-2.01-.77-3.07-3.55-3.76-8.11-5.19-12.36-3.14-11.9-5.87-23.93-13.93-33.84-3.91-4.81-7.99-9.34-13.23-12.74-1.85-1.2-3.68-2.44-4.95-4.29-6.15-8.96-15.44-11.48-25.48-12.39-1.75-.16-3.51.05-5.28,0-2.76-.48-6.21-.03-6.04-4.46Z" style="fill: #fd6363; stroke-width: 0px;"/>
  <path d="M550.41,111.36c4.41-5.74,8.82-11.47,13.23-17.21,3.64.75,5.72-1.68,7.71-3.99,11.38-13.19,23.59-25.51,37.5-36.08,4.74-3.6,9.6-6.99,14.47-10.4,16.83-11.74,35.21-10.72,53.96-6.74,4.52.96,8.94,2.38,13.34,3.77,5.17,1.63,10.33,2.02,15.63.93,3.04-.62,6.11-.86,9.19-.37,1.29.2,2.81.49,3.07,2,.24,1.42-.89,2.4-1.98,3.19-1.07.79-2.31,1.27-3.52,1.79-21.84,9.3-39.52,24.54-56.89,40.15-3.78,3.4-8.05,7.27-5,13.51-12.92,3.21-26.21,4.24-39.25,6.78-4.92.96-9.9,1.59-14.82,2.54-5.63,1.09-11.16,2.09-15.91-2.8-1.98-2.03-4.9-1.38-7.54-.83-5.19,1.08-9.98,3.31-14.92,5.1-2.98,1.07-5.97,1.91-8.26-1.34Z" style="fill: #fe4752; stroke-width: 0px;"/>
  <path d="M612.74,190.66c1.34,3.96,2.69,7.92,4.03,11.89,2.82,2.87,3.42,6.36,2.84,10.18-1.96,4-3.57,8.03-.87,13,3.17-4.42.31-8.63.61-12.64,3.45-5.37,6.43-11.27,13.91-11.97,17.48-1.9,34.48-6.53,51.88-8.86,14.38-1.93,28.25-6.54,42.79-7.79,7.64-.66,13.57-5.96,20.02-9.67,1.43-.82,1.61-2.54,1.69-4.11-.15-2.84,1.65-5.38,1.27-8.25,2.38-3.22,4.57-1.53,6.38.49,2.49,2.78,5.03,2.18,7.65.53,2.42-1.52,4.83-3.06,6.81-5.18,9.2-9.86,16.42-21.21,23.43-32.6,4.69-7.62,2.62-12.83-6.16-14.87-10.89-2.54-20.64-7.23-30.4-12.3-4.65-2.41-9.71-4.11-15.24-2.97-1.94.4-3.98.32-5.54-1.32-.84-3.23-.48-6.11,2.44-8.22,4.38,3.12,9.85,1.84,14.51,3.52,14.06,5.08,28.29,9.84,41.79,16.28,12.95,6.17,15.37,15.07,7.32,26.83-9.48,13.84-20.49,26.41-34.22,36.35-2.15,1.56-4.51,4.01-6.88,3.62-7.91-1.29-8.25,2.98-7.39,8.74.16,1.05-.41,2.15-.46,3.29,1.28.35,1.12-1.01,1.72-1.45,13.23-9.73,26.39-19.53,38.24-30.97.28-.27.84-.16,1.28-.12,2.36,2.65,0,4.43-1.3,6.25-7.37,10.41-17.37,17.82-28.04,24.46-2.12,1.32-4.69,2.15-5.37,5.28,11.06-4.55,21.22-10.49,29.61-19.22,5.06-5.24,11.32-9.33,15.21-15.71,7.76-9.73,14.81-19.9,19.47-31.54,2.22-4.86,2.57-10.17,3.71-15.48-3.78,5.18-5.38,11.27-8.53,16.54-1.37,2.29-2.31,6.05-6.55,4.06-.79-3.21,1.49-5.34,2.69-7.87,5.4-11.41,7.97-23.11,4.56-35.75-3.03-11.21-10.19-18.71-20-24.15-1.15-.64-2.44-1.01-3.61-1.63-1.88-.99-4.64-1.4-4.62-4.1.02-2.91,3.25-2.12,4.76-3.07-10.1.02-20.24-2-30.44-.58-1.51.21-3.06-.28-4.3-1.36-.66-2.52,1.35-3.08,2.91-3.97,16.69-3.21,33.03-2.86,48.67,4.76,1.96.96,4.11,1.46,6.25,1.94,23.54,23.69,21.01,51.09,9.78,78.66-10.3,25.26-30.5,42.6-51.93,58.43-1.7,1.26-3.99,1.82-5.34,4.52,17.93,6.03,35.94,11.46,52.86,19.73-1.88,4.03-4.9,1.66-7.22.97-15.16-4.55-30.21-9.48-45.73-12.76-1.94-.41-3.85-.95-5.83-1.1-6.3-.49-8.26.96-9.58,7.08-.46,2.15-.88,4.31-1.72,6.36-3.15,4.45-6.03,9.05-8.73,13.81-5.82,10.25-28.4,21.48-38.6,19.65-3.56-6.96-10.12-4.86-15.86-5.26.28-3.52,3.37-3.02,5.43-3.45,13.18-2.78,25.67-7.73,38.35-12.03,8.98-3.04,12.09-12.97,7.05-20.87-7.61-11.93-9.09-12.69-23.1-9.02-19.02,4.97-38.73,5.26-57.95,8.81-7.77,1.43-15.61,2.45-23.21,4.83-6.14,1.92-10.3,5.41-12.53,11.52-1.95,5.34-3.84,10.8-8.6,14.57-1.84,1.45-1.58,3.42-.68,5.4.98,2.17,2.36,4.31,1.15,6.86-7.49,4.97-10,13.7-15.16,20.44-7.75,10.12-18.06,15.3-29.85,17.63-5.15,1.02-10.27,3.58-16.58,2.5,32.7-7.82,46.61-31.63,49.56-50.21-.98,1.21-1.73,2.15-2.49,3.09-6.07-1.14-6.75-5.8-6.76-10.68,0-2.58.7-5.12,2.01-7.41.4-.59.97-.89,1.68-.91,3.77,2.12,4.98.26,5.31-3.31.31-3.38-.75-7,1.67-10.04,2.88-1.92,1.99-4.91,2.23-7.61.32-3.53-1.01-7.36,1.86-10.44Z" style="fill: #c10c20; stroke-width: 0px;"/>
  <path d="M254.35,80.92c1.23-.01,2.46-.02,3.7-.03,2.28-5.08-.15-10.57,1.39-15.72,1.3-13.89,4.59-27.04,14.3-37.71,1.86-2.05,3.74-4.3,6.71-4.95,8.92-1.83,16.93.45,24.21,5.59,6.82,4.81,13.43,9.89,19.1,16.07,14.17,15.79,24.4,34.08,33.46,53.1,1.41,2.95,2.62,6.01,4.15,8.92,1.09,2.58,2.42,5.34.2,7.77-1.7,1.87-3.95.75-5.94-.03-.59-.31-1.08-.76-1.47-1.31-1-6.82-4.17-12.82-7.37-18.78-1.13-2.1-2.35-4.74-5.4-3.34-3.14,1.44-3.5,4.21-2.22,7.24.6,1.41,1.52,2.66,2.21,4.02,1.77,3.49.55,5.39-3.19,5.95-9.61-1.05-18.62-5.1-28.31-5.67-18.47-1.07-34.31-10.42-51.26-16.27-2.15-.74-4.84-1.49-4.26-4.85Z" style="fill: #ab0113; stroke-width: 0px;"/>
  <path d="M119.6,319.1c-8.57,1.44-15.63,5.55-20.87,12.45-7.69,10.13-9.46,10.64-20.03,3.43-19.88-13.56-39.61-27.35-59.51-40.89-4.3-2.93-6.26-7.81-10.24-11-2.34-1.88-3.23-1.92-4.9.74-2.8,4.48-2.04,9.31-2.33,14.07-2.09-13.02-2.9-26.09,1.14-38.84,2.2-6.95,4.46-7.44,10.79-4.17,27.93,14.4,56.37,27.9,83.58,43.54,15.21,8.75,26.83,6.52,39.55-3.56,6.88-5.45,14.16-11.26,23.82-11.47.26,1.03-.25,1.77-.91,2.46-5.66,4.52-11.49,8.8-17.43,12.96-6.92,5-12.64,11.21-17.99,17.8-1.26,1.38-2.41,3.01-4.68,2.47Z" style="fill: #ddd3d3; stroke-width: 0px;"/>
  <path d="M323.03,45.53c-3.76-3.34-7.65-6.54-11.25-10.04-8.75-8.51-19.29-12.51-31.33-12.98,8.8-6.8,19.6-7.25,29.85-8.81,30.79-4.67,61.68-8.73,92.51-13.17,19.94-2.87,35.37,6.25,49.4,18.61,17.15,15.1,28.32,34.59,38.56,54.61,9.1,17.8,16.77,36.22,23.33,55.11.59,1.68,1.25,3.28.75,5.08-1.45,2.22-.38,4.56-.34,6.86.04,2.73-.19,5.26-3.84,5.33-2.73-1.59-2.7-4.33-2.82-6.95-1.02-21.33-10.93-39.51-20.53-57.79-1.35-2.58-3.55-4.46-6.55-5.14-4.63-3.18-6.22-8.41-8.5-13.08-4.58-9.38-10.83-17.47-17.91-25.05-10.71-11.45-24.05-14.12-38.6-10.95-12.67,2.76-25.48,4.78-38.11,7.64-14.09,3.2-27.93,1.44-41.77-1.59-5.54-1.21-11.11-2.99-16.83-.79-1.83.65-3.34-.31-5.97-1.51,3.13,3.45,5.86,5.79,8.18,8.49,1.47,1.71,3.79,3.34,1.77,6.13Z" style="fill: #fe6164; stroke-width: 0px;"/>
  <path d="M821.26,50.93c-3.13,1.79-5.89.45-8.73-.9-9.7-4.62-20.08-6.36-30.65-5.79-5.2.28-10.39,1.39-15.66,1.21-6.6,3.21-13.84,4.68-20.52,7.66-1.24.65-2.51,1.2-3.91,1.36-2.27-.01-4.16-.51-4.19-3.34,1.19-3.37,4.35-4.03,7.16-5.08,6.34-2.36,12.86-4.15,20.11-5.78-2.23.08-3.78.15-5.34.14-21.53-2.13-38.95,8.62-56.68,18.21-14.26,7.71-26.58,17.79-36.45,30.84-3.72,4.92-8.86,8.48-14.38,11.34-.33.03-.66.06-.99.09-4.32-.93-4.81-2.91-2.24-6.48,8.75-12.16,21.23-20.12,32.65-29.25,10.97-8.77,23.04-15.73,36.24-20.78-.09-.56-.18-1.12-.27-1.68-2.65,0-5.51-.64-7.93.11-9.7,3.03-18.57-.26-27.62-2.84-13.63-3.88-27.57-6.09-41.45-2.44-11.82,3.11-21.29,10.93-30.99,18.17-15.25,11.37-27.55,25.69-40.54,39.33-2.08,2.18-4.5,5.28-5.24-.89,27.16-34.76,58.8-63.72,101.62-78.06,7.86-2.63,15.85-4.98,24.29-4.93,14.98-2.15,28.28,3.36,41.68,8.82,12.08,4.93,25.28,5.07,37.87,7.85,2.87.63,5.51,2.85,8.73,1.78,13.22,4.48,26.5,8.84,38.38,16.42,1.96,1.25,4.19,2.43,5.04,4.91Z" style="fill: #fc7771; stroke-width: 0px;"/>
  <path d="M317.79,32.1c3.07-4.54,7.51-2.74,11.39-2.09,9.69,1.62,19.18,4.31,29.08,4.75,11.55.51,22.56-2.58,33.71-4.73,9.44-1.82,18.75-4.63,28.26-5.7,17.39-1.95,30.64,5.5,41.61,18.99,8.14,10.02,12.02,22.39,19.93,32.4,5.7,8.68,10.07,18.01,13.51,27.8,1.75,7.76,2.19,15.25-3.82,21.68-1.84,1.97-3.7,3.89-6.29,4.62-14.54,4.13-28.91,9.83-44.48,5.43-8.73-2.47-14.69.61-19.3,8.3-2.2,3.66-1.92,5.85.96,8.48,2.43,2.22,4.8,4.54,6.95,7.03,1.36,1.58,3.41,3.03,2.14,5.67-8.73-3.98-16.62-9.31-24.15-15.21-10.55-8.26-22.46-14.29-34.04-20.86-6.55-5.38-14.44-8.13-22.24-10.88-5.58-1.97-11.34-3.51-17.15-4.79-3.66-.81-7.2-1.86-9.88-4.87-2.4-2.69-5.78-2.87-9.15-2.87-9.25.02-18.5-.16-27.74.07-6.11.15-11.75-1.19-17.17-3.94-9.65-4.88-19.83-8.44-29.99-12.08-7-2.51-13.97-3.56-21.33-2.13-2.31.45-5.3,1.72-6.47-2.03,13.83-3.9,27.86-5.75,42.23-4.23,6.1,5.36,14.35,5.97,21.24,9.57,16.11,8.4,34.09,9.28,51.39,12.81,4.03.82,7.51,3.82,11.93,2.87,5.74,1.18,12.02,1.04,16.01,6.51l-.05-.03c16.81,4.95,31.54,13.99,46.06,23.8.17-11.19,9.37-20.13,22.17-21.29,7-.63,14.12-.86,21.08.17,12.52,1.85,23.25-3.38,34.17-7.94,2.64-1.1,3.78-3.56,4.07-6.37.23-2.2.29-4.44-.31-6.56-4.77-16.86-11.96-32.59-22.45-46.69-10.1-13.58-24.34-15.99-39.63-13.31-14.29,2.51-28.67,4.56-42.86,7.66-9.61,2.1-19.15,1.17-28.68-1.54-7.49-2.13-14.98-5.55-23.13-2.84-.64.3-1.31.46-2.01.5-3.28-.76-5.83-2.17-5.57-6.14Z" style="fill: #fd595e; stroke-width: 0px;"/>
  <path d="M342.8,118.33c-26.37-3.41-51.44.86-75.16,12.9-4.08,2.07-8,4.43-12,6.66-1.9-1.47-3.18.23-4.68.88-1.68.72-3.44,2.31-4.95-.27.43-2.99,2.85-4.38,4.99-5.82,14.89-10.04,30.82-17.65,44.64-20.21-14.05,1.48-31.22,6.08-46.18,17.08-.72.53-1.58.77-2.46.87-4.05-2.09-7.12-.29-9.84,2.59-5.09,5.37-7.16,12.35-9.94,18.94-.91,2.16.71,2.9,2.02,4.14,3.99,3.78,3.37,6.83-1.68,9.95-8.11-2.37-8.38-2.81-6.71-11.04.26-1.29.65-2.57.67-3.89.07-4.49-1.62-5.82-5.49-3.58-5.29,3.07-10.36,2.67-15.82.81-12.08-4.13-23.17-10.55-35.12-15-2.87-1.07-5.44-2.96-6.29-6.3,1.6-3.91,3.76-7.45,6.85-10.38,3.95-.88,6.12-4.15,8.78-6.69,12.36-11.8,32.28-15.07,47.74-8.13,13.74,6.17,28.01,8.61,43.11,5.72,16.08-3.08,32.42-2.91,48.73-2.7,1.54.02,3.4-.23,4.42.95,5.54,6.35,13.56,6.71,20.81,8.97,1.69.53,4.17.61,3.56,3.58Z" style="fill: #fd595e; stroke-width: 0px;"/>
  <path d="M152.82,140.5c12.27,8.64,27.87,9.9,40.31,18.27,4.72,3.18,10.23,5.2,14.9,8.45,6.03,4.2-.13,10.61,2.18,16.09,1.61,3.83,2.37,7.88,5.72,10.68,2.89,2.41,3.61,5.94,4.97,9.16,3.76,8.9,7.58,17.77,11.34,26.67.94,2.24,2.06,4.89-.26,6.65-2.12,1.61-4.14-.23-5.88-1.6-19.12-15.01-40.6-26.06-62.14-36.99-2.69-1.36-4.24-4.76-7.86-4.36-8.78-17.2-9.39-34.9-3.27-53.02Z" style="fill: #a70015; stroke-width: 0px;"/>
  <path d="M356.03,279.46h35l.14,2.19c-10.39,1.88-20.76,3.87-31.16,5.63-24.99,4.22-49.95,8.59-75,12.38-16.62,2.51-33.34,4.47-50.07,6-8.06.74-8.57-1.4-7.84-9.33.87-9.58,2.15-19.44-1.92-28.8,8.86-2.73,18.19-3.15,28.04-5.17-5.53-2.57-10.15-4.71-14.77-6.86,1.41-4.86,4.25-1.76,6.09-.77,12.64,6.79,26.1,11.56,39.58,16.29,3.25,1.14,6.6,2.01,9.91,3-3.22,2.89-7.05,1.91-10.67,1.47-8.5-1.02-17.03-1.87-25.54-2.83-3.08-.35-6.66-.87-8.18,2.48-1.45,3.2,1.08,5.8,3.04,8.17,2.52,3.04,6.15,3.98,9.75,5.09,11.52,3.57,23.15,1.64,34.66.52,16.61-1.61,33.07-4.58,49.63-6.69,4.33-.55,8.61-.72,13.25-.66-1.54-.58-3.89.52-3.93-2.12Z" style="fill: #a30111; stroke-width: 0px;"/>
  <path d="M342.8,118.33c-3.05-2.93-7.22-2.82-10.91-3.62-5-1.09-9.83-1.86-12.89-6.61-.84-1.31-2.36-1.89-4.01-1.93-13.58-.32-27.26-.61-40.59,2.03-19.43,3.85-37.96,3.12-55.96-6.01-11.28-5.73-32.15-.89-42.09,8.29-2.9,2.68-4.34,9.11-10.7,6.16,11.39-16.55,26.83-27.11,46.46-31.49.54.35,1.19,1.1,1.6.99,18.95-5.37,34.98,4.05,51.03,11.07,9.99,4.36,19.6,7.02,30.38,6.36,6.79-.41,13.62-.17,20.43-.04,4.3.08,8.89-.39,11,4.97.73,1.84,3.03,1.44,4.69,1.84,12.99,3.18,25.8,6.83,37.78,13,4.54,2.34,5.4,3.06,4.22,5.32-10.15-3.44-20.3-6.89-30.44-10.33Z" style="fill: #fe8b7d; stroke-width: 0px;"/>
  <path d="M709.21,246.27c12.64-1.6,22.77-8.63,33.03-15.35,2.86-1.88,4.31-4.9,5.73-7.92,1.77-3.79,3.48-7.65,7.47-9.74.33-.06.67-.11,1-.17,3.55-.44,7.05-.35,10.26,1.45,5.12,2.88,5.39,6.84.63,10.23-3.83,2.74-8.37,3.82-12.8,5.08-.77.46-1.54.92-2.25,1.48-1.59,1.55-3.44,2.93-3.3,5.51,6.88,1.56,13.3-1.24,19.87-2.13,14.74-1.99,29.4-4.7,44.23-5.87,13.21-1.04,26.29.49,39.05,4.3,3.47,1.03,6.46,2.76,8.63,5.69.84,1.13,1.32,2.45-1.02,2.42-.8-.11-1.6-.22-2.41-.33-15.73-3.3-31.42-1.56-47.17-.01-14.63,1.44-29.2,3.26-43.73,5.4-9.96,1.46-20.05,2.18-29.76,5.06-8.2,7.3-16.15,15-27.43,17.46.08-.2.14-.42.25-.61q4.8-8.8-4.54-13.52c-1.34-.68-3.1-1.14-3.16-2.97-.07-2.04,1.59-3.02,3.16-3.81,1.36-.68,2.85-1.11,4.28-1.65Z" style="fill: #d71c2c; stroke-width: 0px;"/>
  <path d="M751.56,230.48c.43-.45.85-.91,1.28-1.36,9.81-2.16,19.41-5.3,29.5-6.2,1.68-.15,3.77-.59,4.02-2.73.23-2.03-1.56-3.03-3.07-3.9-3.96-2.27-8.28-2.78-12.76-2.33-5.01.51-9.97.27-14.89-.82,0,0-.19.13-.19.13.49-3.69.85-7.4,1.51-11.05.76-4.23,4.32-4.62,7.61-4.79,6.92-.36,13.41,2.08,19.93,3.82,12.49,3.35,24.85,7.21,37.25,10.87,1.63.48,3.21,1.71,4.9.15,14.97,6.64,28.18,15.48,37.56,29.52-1.99,1.09-3.3.75-4.46-.53,1.26-3.93-2.28-4.26-4.28-4.97-14.91-5.26-30.25-6.72-45.99-5.18-19.63,1.92-39.03,5.36-58.49,8.46-5.05.81-5.24.35-3.65-3.99,25.15-3.88,50.22-8.37,75.78-8.82-15.69-2.72-31.06.39-46.48,2.38-5.45.71-10.85,1.84-16.29,2.63-3.02.44-6.15,1.12-8.77-1.3Z" style="fill: #fc6365; stroke-width: 0px;"/>
  <path d="M759.46,38.71c3.27.21,6.69-.63,11.61,1.34-12.07,3.74-22.98,5.46-32.7,10.62-6.74,4.58-14.49,7.29-21.42,11.58-11.04,6.84-22.36,13.23-32.78,21.03-2.66,1.99-5.05,4.25-7.33,6.64-2.48,2.6-2.66,4.96.65,7,1.28.8,2.78,1.21,3.95,2.2.38.55.38,1.09-.06,1.61-19.09.53-37.84,3.86-56.63,6.92-21.12,3.45-42.22,7.03-63.38,10.24-6.13.93-11.77,3.42-17.82,4.44.2-4.97,4.6-7.3,6.87-10.98,4.39,2.36,8.11-.42,11.74-1.96,4.27-1.82,8.69-2.93,13.08-4.23,2.42-.72,5.45-.86,6.8,1.12,4.29,6.3,10.06,4.87,15.84,3.75,17.11-3.3,34.31-5.94,51.6-8.04.56-.07,1.05-.72,1.57-1.1,0,0,.03-.01.03-.01,6.81-3.65,12.7-8.36,17.87-14.19,20.65-23.26,46.11-38.65,76.35-46.2,4.71-1.17,9.56-.38,14.17-1.79Z" style="fill: #e72736; stroke-width: 0px;"/>
  <path d="M510.77,145.65c2.9-1.32,2.58-3.42,1.92-6.05-.52-2.07-1.7-5.01,2.17-5.66,1.16,4.51,3.16,4.7,6.59,1.76,2.72-2.33,5.34-5.02,8.96-6.12,6.48-.36,12.43-4.33,19.19-2.86,3.84.97,7.75,1.58,11.6,2.49,2.67.63,6.72.51,6.42,4.18-.33,3.97-4.45,3.61-7.43,3.55-6.88-.14-13.6.43-20.01,3.11-4.71,1.39-8.15,5.75-13.45,5.76-10.2,4.94-16.32,14.27-23.61,22.26-12.41,13.6-20.33,30.05-29.27,46.5v-11.84c-1.71-1.92-.57-3.79.29-5.48,4.27-8.42,7.9-17.17,13.11-25.1,5.58-8,11.19-15.98,18.38-22.68,1.57-1.46,2.86-3.3,5.14-3.82Z" style="fill: #cc0217; stroke-width: 0px;"/>
  <path d="M158.81,127.03c14.42,9.38,30.46,15.24,46.47,21.1,3.44,1.26,6.89.08,9.92-2.17,1.88-1.39,4.21-3.79,6.34-2.03,1.84,1.53,2.13,4.68,2.02,7.31-.06,1.5-.64,2.99-1.08,4.45-1.22,4.08-3.11,8.47,4.33,7.81.31-.03.76,1.42,1.14,2.18,1.58,1.56,1.24,3.43.85,5.31.95-.97.66-3.41,3.09-2.69-.14,6.59-3.54,12.7-2.89,19.43.06.64-.76,1.76-1.4,1.99-1.32.46-2.17-.74-2.18-1.76-.13-8.58-9.3-14.41-7.03-23.88.66-2.75-2.03-4.88-5.02-4.97-11.21-.33-20.46-6.29-30.12-10.74-9.48-4.36-19.15-8.54-27.85-14.48.42-2.65,1.92-4.76,3.41-6.87Z" style="fill: #e42635; stroke-width: 0px;"/>
  <path d="M159.27,284.85c.45-.48.89-.96,1.34-1.44,15.43-5.84,31.2-10.47,47.52-13.06,3.35,1.61,7.19-1.56,10.43,1.07.61,1.05,1.63,1.32,2.73,1.42,2.09,2.33,1.53,4.81.49,7.37-2.6,6.48-6.81,11.57-12.35,15.88-8.68,6.76-8.65,9.58.01,15.69,3.37,2.37,3.98,5.4,4.29,9.03.47,5.41,1.61,6.05,6.74,4,8.35-3.33,16.42-7.38,25.06-10.01,2.53-.77,5.02-1.83,7.52.03-.4,4.16-4.22,4.44-6.9,5.69-7.43,3.5-15.55,5.45-22.48,10.07-3.56,2.3-6.62,5.34-10.5,7.18-8.05,1.71-12.93-4.08-11.02-13.93.84-4.31-.44-6.46-3.95-8.51-9.19-5.39-9.87-12.65-2.05-20.06,3.03-2.87,6.79-4.91,9.76-7.85,2.72-2.7,7.55-5.4,5.68-9.48-1.92-4.2-7.1-2.12-10.78-1.5-12.14,2.03-24.12,4.8-35.69,9.14-1.88.7-4.33,2.84-5.86-.71Z" style="fill: #e42635; stroke-width: 0px;"/>
  <path d="M777.84,29.61c-2.09,2.03-4.16.12-6.2-.1-19.02-2.01-37.81-4.98-55.32-13.3-6.67-3.17-13.78-4.15-21.1-4.11-1.9,0-3.99.64-5.66-.94,1.24-.1,2.48-.2,3.72-.31,6.24-1.04,12.49-.61,18.74-.24,22.17,2.5,42.75,10.51,63.37,18.36.79.3,1.64.43,2.46.64Z" style="fill: #d51d2e; stroke-width: 0px;"/>
  <path d="M736.66,251.38c8.98-4.47,18.97-4.49,28.53-6.2,19.87-3.55,39.94-5.72,60.04-7.57,10.92-1.01,21.75-1.11,32.11,3.32-33.1-.37-65.88,3.22-98.58,7.84-7.34,1.04-14.72,1.75-22.09,2.61Z" style="fill: #dcd1cc; stroke-width: 0px;"/>
  <path d="M549.06,127.21c-3.61-.33-6.81.98-10.09,2.29-2.72,1.09-5.69,2.72-8.56.08,3.52-3.15,8.09-4.29,12.18-6.35,1.26,3.28,4.18,2.59,6.72,2.84.4.36.5.65.29.87-.18.19-.36.28-.54.28Z" style="fill: #fe4752; stroke-width: 0px;"/>
  <path d="M712.02,10.61c-6.25.08-12.5.16-18.74.24,6.22-1.93,12.47-1.87,18.74-.24Z" style="fill: #fc7771; stroke-width: 0px;"/>
  <path d="M259.44,65.17c-.26,5.26,2.13,10.75-1.39,15.72,1.53-5.14-.88-10.64,1.39-15.72Z" style="fill: #fd595e; stroke-width: 0px;"/>
  <path d="M218.56,271.41c-3.47-.47-7.14,1.13-10.43-1.07,3.17.29,5.89-2.2,9.14-1.46.43.84.86,1.69,1.3,2.53Z" style="fill: #e0172a; stroke-width: 0px;"/>
  <path d="M775.15,369.28c1.38,5.71,2.77,11.42,4.15,17.13-3.79-2.23-6.45-.59-6.36,3.2.22,8.6-3.02,12.88-11.98,13.62-3.63.3-6.98,3.58-9.63,6.59-7.86,8.93-18.06,14.02-29.23,17.01-18.4,4.92-36.91,9.42-55.44,13.83-5.65,1.35-6.43,5.03-6.42,9.83.07,23.35.59,46.71-.13,70.04-.7,23.02-1.89,46.03-2.83,69.04-.36,8.74-.45,17.53-1.01,26.28-2.03,32.08-.05,64.25-1.6,96.3-1.53,31.47-.87,62.9-.83,94.34.03,25.08-1.27,50.11-1.79,75.16-.33,15.88-1.89,31.87-5.13,47.55-.38,1.85-1.25,3.6-2.2,6.25-2.15-3.05-2.7-5.8-2.87-8.46-.6-9.63-1.33-19.27-1.35-28.9-.13-49.12-.93-98.25.17-147.35,1.31-58.35-.12-116.72,1.46-175.03.78-28.82.6-57.61.78-86.41.08-13.1-1.58-26.21-2.45-39.32,2.92-.07,2.67,2.46,3.23,4.15,1.19,3.59,2.91,6.84,5.8,10.55,1.94-6.82.99-13.34,2.1-19.6,2.11-11.91,4.28-14.33,16.37-15.53,4.85-.48,9.47-1.91,14.05-3.47,10.6-3.61,20.86-8.14,31.67-11.25,6.68-1.92,12.11-6.25,16.23-11.89,3.96-5.43,9.08-7.93,15.81-7.72,5.74.18,11.29-1.58,16.95-2.29,4.13-.52,5.53-2.81,5.55-6.7.02-3.72-.59-7.58.75-11.12,1.04-2.74,1.27-6.9,6.14-5.8Z" style="fill: #dd1528; stroke-width: 0px;"/>
  <path d="M620.76,965.5c0-34.57.2-69.14-.03-103.71-.29-46.03.52-92.05,1.6-138.05.47-19.81.67-39.62.98-59.42.85-16.58,1.3-33.14-.33-49.72-1.02-10.45-1.46-20.94,1.64-31.2,0-1.23.01-2.46.02-3.69.81-1.18.6-2.54.6-3.84,0-30.62,0-61.24,0-91.87,0-1.31.2-2.66-.59-3.85.19-25.12-.2-50.21-4.15-75.11.71-5.03,2.74-6.08,7-3.51,4.79,2.89,7.07,7.8,8.77,12.66,2.81,8.06,6.36,16.23,2.88,25.09-4.09-5.05-2.28-12.42-7.62-18.61,0,10.29-.33,19.32.18,28.3.17,3,.77,6.07.77,9.13.01,37.68.69,75.37-.2,113.03-.83,34.99-.17,69.99-1.46,104.93-.69,18.7-.14,37.38-1.03,56.04-2.81,59.2.19,118.46-1.69,177.64-.54,17.1,1.89,34.83-4.72,51.54-.65,1.65-.74,3.42-2.63,4.22Z" style="fill: #dd1528; stroke-width: 0px;"/>
  <path d="M775.15,369.28c-5.23,2.68-5.12,7.56-5.13,12.42,0,12.34-.01,12.41-11.98,13.95-5.2.67-10.34,1.86-15.68,1.45-4.67-.35-7.92,2.37-10.34,5.99-4.59,6.87-10.86,11.77-18.69,13.79-13.64,3.52-26.07,10.45-39.84,13.53-2.6.58-5.13,1-7.78,1.04-7.58.12-11.29,3.49-12,11.08-.59,6.31-1.97,12.57-1.4,18.98.23,2.62-.58,5.05-2.24,7.62-4.66-5.92-7.65-12.28-9.6-19.18-1.47-3.06-2.52-6.13-.23-9.28,3.99-.69,2.05,4.45,5.23,4.99,2.54-2.7,2.5-6.3,2.42-9.73-.12-5.1,2.33-8.08,6.7-10.31,5.36-2.74,11.3-3.67,16.78-5.95,8.33-3.46,8.74-6.5,1.9-12.33-2.8-2.38-6.83-4.61-5.67-8.89,1.3-4.8,6.23-5.41,10.3-5.57,16.81-.64,33.03-4.98,49.53-7.53,7.01-1.09,14.03-.94,21.05-.14,1.53.17,3.04.52,4.58.63,11.5.84,13.87-1.79,11.96-13.26-.38-.52-.7-1.08-.99-1.66-.87-2.34-1.42-4.82-2.89-6.92-.96-2.42-2.51-4.66-2.44-7.42.77-4.75.27-9.81,3.41-13.98,6.03,8.06,10.43,16.92,13.04,26.65Z" style="fill: #e92635; stroke-width: 0px;"/>
  <path d="M766.06,370.63c2.46,3.42,1.22,7.6,2.21,11.36.59,2.25-1.91,3.58-4.06,4.48-3.57,1.48-7.42,1.99-11,1.2-18.22-3.99-35.58,1.82-53.2,4.4-6.7.98-13.28,2.68-20.12,2.36-1.3-.06-2.74-.14-3.9.32-2.56,1.02-6.42.67-7.27,3.72-.99,3.56,2.76,5.18,4.96,7.03,2.97,2.5,7.89,4.24,7.27,8.46-.73,4.99-6.1,6.45-10.38,8.07-4.9,1.85-10.09,2.71-14.93,4.97-4.37,2.04-6.63,4.62-6.01,9.54.39,3.08-.18,6.12-1.31,9.03-.74,1.9-1.73,3.93-3.98,3.78-2.65-.18-2.43-2.65-2.59-4.59-.12-1.51.09-3.14-1.52-4.1.16-.42.2-.85.12-1.29-.96-1.56-.48-3.26-.45-4.9,2.99-1.99,2.4,2.22,4.36,2.28,2.65-4.11,1.64-10.92,8.29-12.64,1.52-.49,2.64-1.54,3.79-2.57q7.86-7.04.68-14.14c-3.26-3.25-5.48-7.07-4.04-11.83,1.51-4.96,5.8-6.54,10.35-6.72,23.9-.92,47.38-5.58,71.11-7.96,5.03-.5,10.13-.52,15.14-.1,8.19.68,14.72-.69,16.47-10.16Z" style="fill: #fc6564; stroke-width: 0px;"/>
  <path d="M640.52,434.09c-.05,1.76-.1,3.52-.15,5.28-.41,0-.81-.02-1.21-.09-.23-10.81-1.95-21.24-7.49-30.77-1.47-2.53-3.21-4.65-5.72-6.15-3.21-1.91-4.89-.8-5.44,2.67-4.09-13.49-8.45-26.86-16.85-38.46,4-4.14-.92-8.8.76-13.08,6.17.37,6.82,6.49,10.19,9.78.66,1.05,1.22,2.16,1.78,3.27,3.69,7.69,7.65,15.24,11.44,22.89.3.56.54,1.14.76,1.73,2.43,6.99,5.93,13.49,9.28,20.07,1.44,5.5,2.83,11.01,3.57,16.65.28,2.17.86,4.35-.91,6.2Z" style="fill: #e92635; stroke-width: 0px;"/>
  <path d="M604.73,353.43c.82,2.67,1.82,5.31,2.42,8.03.6,2.74.56,5.4-3.5,5.12-13.73-16.23-32.85-23.66-51.62-31.66-6.24-2.66-12.44-5.39-18.66-8.09,2.67-2.36,5.35-.87,8.03,0,17.33,5.56,34.21,12.26,50.94,21.06-2.01-4.12-8.52-8.67-14.91-11.38-26.07-11.02-52.11-22.1-78.13-33.25-2.6-1.11-4.94-2.84-7.38-4.33-1.94-1.19-2.8-2.99-1.73-5.04,1.01-1.96,3.1-1.42,4.74-1.05,2.13.48,4.17,1.35,6.24,2.1,7.68,2.77,15.42,4.35,23.75,4.5,9.26.17,17.67,4.89,26.26,8.13,23.23,8.75,46.15,18.14,67.08,31.84,4.55,2.98,6.33,8.29,11.3,10.85,3.48,1.79,6.57,2.52,9.94.89,12.15-5.9,25.39-8.36,38.23-12,9.53-2.7,18.09-6.52,24.8-14.04,4.11-4.61,8.97-8.34,14.42-11.34,2.91-1.6,5.65-3.57,5.46-7.54.42-1.07.82-1.06,1.19.03,1.78,1.28,3.57,2.56,5.35,3.84-.04,5.7-4.27,7.76-8.55,9.62-8.88,3.86-9.28,4.3-8.81,14.31.22,4.79-1.85,8.54-5.92,10.19-18.91,7.64-36.04,18.01-52.14,30.56-8,6.24-19.72,2.6-26.98-6.28-4.45-5.45-8.03-11.59-13.1-16.55-3.13-4.21-6.87-8.06-8.3-13.33-.43-1.6-1.45-2.71-2.92-3.39-5.81-2.65-11.41-5.77-17.45-7.91-2.5-.89-5.19-1.08-6.25,1.67-.97,2.52,1.96,3.03,3.5,3.97,6.96,4.24,14.22,8.07,19.58,14.44,1.47,1.75,4,3.03,3.12,6.02Z" style="fill: #dd1528; stroke-width: 0px;"/>
  <path d="M584.83,289.84c19.85-13.13,41.97-19.44,65.35-22.54,7.89-1.05,15.7-1.22,23.56-1.09,6.44.11,8.7,3.01,7.73,8.85-2.21.59-4.41,1.19-6.62,1.78-2.66,2.63-6.64,1.81-9.55,3.69-.17,2.98,2.64,3.24,4.21,4.5,3.43,2.73,7.28,4.98,10.28,8.23,5.08,5.51,4.4,12.12-1.67,16.38-3.8,2.67-7.96,4.74-12.38,6.12-29.78,9.3-59.29,11.74-88.73-1.91-12.32-5.71-25.37-9.85-38.04-14.81-1.02-.4-2.05-.79-3.05-1.25-2.54-1.18-6.43-2.01-5.46-5.44,1.11-3.92,5.09-2.65,7.86-1.71,3.22,1.09,6.63-.12,9.72,1.29,2.53,2.59,5.72,3.95,9.07,5.17,16.25,5.94,33.12,9.66,50.27,10.47,15.6.74,31.23-1.15,46-7.1,2.86-1.15,5.6-2.58,8.1-4.41,2.55-1.87,2.9-4.08.07-5.74-8.18-4.8-15.46-10.56-26.64-8.18-14.18,3.02-28.16,7.25-42.65,8.86-2.58.29-5.26,1.19-7.43-1.15Z" style="fill: #83000d; stroke-width: 0px;"/>
  <path d="M614.02,350.72c5.4,3.43,8.37,9.05,11.71,14.06,7.78,11.67,22.45,15.39,33.12,4.62,12.02-12.15,27.34-18.86,42.99-24.92,6.19-2.4,9.56-6.03,7.62-13.65-1.37-5.38,1.67-10.23,7.3-11.62,5.59-1.38,9.43-4.34,12.19-9.12,3.03,1.71,6,3.5,8.27,6.21-1.55,9.01-2.07,9.39-11.1,8.01-2.34-.36-5.06-1.61-6.47,1.24-1.35,2.74,1.2,4.4,2.72,6.16,1.73,1.99,3.72,3.74,5.53,5.67,6.84,7.28,5.01,17.06-4.22,20.96-8.52,3.6-17.4,6.33-26.48,8.03-15.16,2.84-27.84,11.95-42.42,16.19-9.53,2.77-18.63,2.8-26.81-3.82-4.04-4.76-6.73-10.38-9.98-15.65-.45-4.4-5.87-7.21-3.97-12.37Z" style="fill: #fc454f; stroke-width: 0px;"/>
  <path d="M628.46,377.28c10.16,7.81,20.97,6.63,31.49,1.41,19.37-9.62,40.34-14.45,60.72-21.06,11.07-3.59,13.04-12.07,4.93-20.22-2.17-2.18-4.39-4.32-6.51-6.55-1.87-1.97-3.54-4.03-1.68-6.96,1.8-2.84,4.4-2.36,7.04-1.8,1.49.31,2.98.82,4.48.87,2.91.1,8.33,3.05,5.05-4.42-.77-1.75,1.8-1.94,3.25-2.24,3.16-.13,4.05,3.05,6.26,4.3-1.69,4.93.42,7,7.86,7.71,4.04,4.43,8.34,8.66,10.76,14.31-.03,5.08-1,10-2.5,14.84-4.97-2.87-5.08-9.1-8.88-12.78-2.61-3.88-5.66-7.41-8.75-10.91-3.25-4.19-7.89-5.34-12.8-5.88-1.1-.12-2.35-.32-3.03.68-.94,1.38.16,2.47.97,3.48.83,1.04,1.87,1.88,3,2.55,4.4,2.61,7.8,5.56,6.56,11.57-1.43,6.93-3.17,13.41-11.06,15.67-8.03,2.3-15.97,4.98-24.24,6.29-4.62.73-9.23,1.65-13.21,3.91-10.55,5.99-22.99,7.56-33.09,14.62-3.38,2.36-7.62,1.82-11.51.57-4.19-1.34-8.43-2.49-12.67-3.66-2.3-1.52-4-3.27-2.44-6.28Z" style="fill: #fc6564; stroke-width: 0px;"/>
  <path d="M663.09,278.32c3.92-.49,7.84-.98,11.75-1.47,2.1,3.79,6.04,4.82,9.61,6.43,12.77,5.76,25.52,11.54,36.85,19.97,1.1.82,2.08,1.59,2.29,3.02,0,0-.59-.07-.59-.07,0,0-.6.04-.6.04-14.09-7.61-28.53-14.45-43.63-19.86-5.69.36-10.28-2.71-15.12-4.95-1.2-.56-1.9-1.78-.58-3.1Z" style="fill: #dcd6d1; stroke-width: 0px;"/>
  <path d="M751.35,328.32c-4.91,2.99-7.87,1.34-12.51-6.97,1.31-1.74,3.4,1.34,4.64-.74,3.26,1.92,5.98,4.39,7.86,7.71Z" style="fill: #fc6567; stroke-width: 0px;"/>
  <path d="M119.6,319.1c1.21-1.07,2.42-2.14,3.64-3.21,2.72,1.32,2.01,3.57,1.6,5.76-.15.63-.35,1.24-.58,1.84-.48,1.23-.97,2.45-1.47,3.67-3.19,10.86-1.35,15.83,8.4,21.37,8.87,5.04,18.06,8.74,28.7,8.53,9.97-.2,16.27,4.31,17.03,13.83,1.41,17.59,4.68,35.01,5.36,50.99,1.67-10.85,3.65-23.43,7.88-35.51,1.48-4.23,3.48-8.13,6.71-11.21,1.15-1.1,2.77-3.9,4.71-.54-4.25,20.03-6.04,40.28-5.23,60.75.04,4,2.66,8.09-.42,11.97-2.47,2.4-2.44,5.47-2.44,8.59.02,68.31-1.01,136.65.4,204.93.86,41.83,1.45,83.67.55,125.44-.77,35.66.22,71.32-1.23,106.93-.54,13.18-.6,26.34-1.06,39.51-.06,1.59.89,4.14-1.54,4.39-2.14.22-2.41-2.26-2.74-3.92-1.26-6.43-3.14-12.85-3.4-19.34-.37-9.21-1.33-18.37-1.73-27.58-1.95-44.46.11-88.96-1.48-133.37-.9-25.09.45-50.2-1.25-75.19-1.22-18.05.3-36.12-1.31-54.04-1.56-17.4-.17-34.75-1.15-52.08-1.37-24.34-1.66-48.71-2.79-73.04-1.31-28.16-3.24-56.35-8.89-84.11-.78-3.83.43-8.2-.85-11.76-5.17-14.3-13.43-26.69-25.22-36.46-5.39-4.47-11.81-7.52-16.92-12.53-5.27-5.17-7.83-10.88-6.43-18.17.53-2.77-.58-4.2-3.29-4.55,2.15-3.96,4.29-7.92,6.44-11.87Z" style="fill: #c50e1f; stroke-width: 0px;"/>
  <path d="M195.92,447.34c.14-3.99.28-7.98.42-11.97,2.01,4.7,2.83,9.28,1.6,14.59-1.01,4.36-.7,9.28.11,13.76,2.17,11.89,3.07,23.84,3.48,35.9.54,15.76,1.44,31.51,2.72,47.23,1.07,13.19,9.72,22.03,18.91,30.39,1.84,1.67,4.98,2.01,5.61,5.53-5.29.16-9.54-3.25-14.58-3.3-7.86-.08-10.6,1.6-9.95,9.27,2.29,27.33,1.01,54.8,3.74,82.1.07.66.07,1.32.05,1.98-.69,24.19,1.23,48.33,1.62,72.5.46,28.51,1.51,57.05,2.69,85.54.67,16.15.12,32.33,1.27,48.42.88,12.29-.83,24.43-.44,36.68.42,12.96.94,25.81,4.14,38.44.38,1.5,2.05,3.23-.12,4.74-8.47-11.56-9.53-25.14-10.45-38.71-1.98-29.4-2.09-58.87-3.07-88.31-1.55-46.2-.52-92.4-1.02-138.6-1.49-8.39.35-16.9-1-25.3-.11-10.96-.22-21.91-.34-32.87-1.48-7.5.37-15.15-.99-22.66-.1-12.37-.21-24.74-.31-37.11,3.21-3.26,6.89-3.52,10.84-2.13-4.13-6.36-10.64-11.8-11.87-20.28-.11-9.18-.22-18.36-.33-27.53-1.48-7.07.41-14.3-1-21.38-.58-18.96-1.17-37.92-1.75-56.89Z" style="fill: #8d7669; stroke-width: 0px;"/>
  <path d="M199,553.14c3.67,7.32,9.21,13.43,14,20.85-4.91.26-9.05.16-12.97,1.56-.52-7.46-1.7-14.9-1.03-22.42Z" style="fill: #8a7161; stroke-width: 0px;"/>
  <path d="M201.66,668.19c2.35,8.35.61,16.86,1,25.29-2.08-8.36-.83-16.86-1-25.29Z" style="fill: #8a7161; stroke-width: 0px;"/>
  <path d="M200.34,612.66c2.35,7.46.62,15.11.99,22.66-2.06-7.48-.83-15.1-.99-22.66Z" style="fill: #8a7161; stroke-width: 0px;"/>
  <path d="M197.67,504.22c2.29,7.03.71,14.25,1,21.38-1.99-7.05-.86-14.24-1-21.38Z" style="fill: #8a7161; stroke-width: 0px;"/>
  <path d="M309.79,320.37c13.35-.56,26.29-3.99,39.47-5.8,17.23-2.37,34.36-5.46,51.61-7.74,4.11-.54,8.76.37,12.57-2.29,7.83,2.75,16,.93,23.37-.52,14.98-2.94,28.21.04,41.93,5.63,29.68,12.1,60.41,21.71,88.68,37.11,13.06,7.11,26.05,14.2,34.42,27.72,5.09,8.22,5.36,17.04,6.74,25.76,9.2,57.9,4.58,116.27,5.16,174.45.21,21.68-6.66,27.48-33.19,32.5-28.35,5.36-56.8,10.2-85.23,15.17-27.13,4.74-54.27,9.38-81.41,14.03-13.36,2.29-26.84,3.98-40.06,6.92-11.87,2.64-22-.72-30.76-7.77-25.75-20.73-54.01-37.55-82.43-54.16-8.55-4.99-16.77-10.15-22.82-18.48-6.47-8.92-6.89-19.31-8.47-29.35-4.15-26.33-8.44-52.62-11.05-79.2-1.6-16.21-2.32-32.35-2.41-48.6-.04-6.86.98-13.5,2.32-20.18,1.42-7.08,2.12-14.06.9-21.48-1.37-8.35,4.77-13.85,10.95-18.2,4.26-2.99,9.22-4.96,14.6-5.77,20.69-3.09,39.94-11.65,60.25-16.21.89-.2,1.54-1.44,2.31-2.2.56-.98,1.94-.42,2.54-1.33Z" style="fill: #ccc1ba; stroke-width: 0px;"/>
  <path d="M346.89,641.67c-15-8.6-30.03-17.15-44.99-25.82-21.07-12.21-42.85-23.18-63.39-36.31-3.33-2.13-6.68-4.23-9.83-6.6-7.8-5.86-12.02-13.67-12.65-23.5-.76-11.78-1.7-23.56-2.7-35.32-1.65-19.38-3.86-38.71-5.01-58.12-1.51-25.56-3.29-51.09,1.54-76.69,1.77-9.36,2.77-18.95,4.94-28.3,2.07-6.38,7.84-9,12.74-12.49,3.03-2.16,6.32-3.86,9.67-5.49,9.16-3.64,18.8-5.43,28.38-7.48,4.93-.46,9.75-1.57,14.63-2.3,2.57-.38,5.11-1.07,7.19,1.22-5.1,4.66-11.91,5.31-18.04,7.25-8.94,2.83-17.9,5.72-27.26,7.28-9,1.5-16.21,6.59-21.95,13.63-2.1,2.57-4.18,5.52-4.05,8.85.84,21.78-5.64,43.12-4.02,64.89,1.41,18.96,3.28,37.89,5.05,56.83,1.76,18.94,3.59,37.87,5.5,56.8.75,7.4,1.93,14.75,4.01,21.91,1.3,4.47,4.47,7.4,8.26,9.89,18.18,11.96,37.59,21.81,56.39,32.72,18.23,10.58,35.93,21.96,53.1,34.15,1.03.73,1.69,1.98,2.51,3Z" style="fill: #bfb0a8; stroke-width: 0px;"/>
  <path d="M287.4,324.48c-7.65-.53-14.86,2.89-22.49,2.55,1.66-5.24,6.65-5.16,10.59-6.13,14.77-3.62,29.75-6.25,44.74-8.77,5.65-.95,11.26-2.1,16.88-3.24,6.06-1.23,11.58-2.94,16.37-7.65,5.39-5.28,13.41-6.14,19.94-8.68-34.89,3.69-69.36,11.76-104.02,18.79-3.91.79-7.67,1.93-11.32,3.51-1.65.65-3.3,1.62-5.04.23-11.46.88-21.12,6.96-31.41,11.13-8.2,3.33-9.54,2.88-9.54-6.12,0-4.1-1.67-6.38-5.13-8.29-8.22-4.55-8.59-7.88-1.61-14.48,4.75-4.49,10.46-7.98,13.78-13.93,1.87-3.34,3.34-6.65,2.14-10.56,3.52,1.78,2.59,4.34,1.63,7.29-2.53,7.78-7.31,13.87-13.14,19.43-5.32,5.08-4.8,8.04,1.42,11.75.76.45,1.82.62,2.3,1.25,6.44,8.43,14.74,6.31,22.61,3.45,24.48-8.9,50.25-11.83,75.58-16.78,20.39-3.98,40.76-8.2,61.27-11.4,10.54-1.64,21.21-3.31,31.99-3.17,1.72.02,4.12-.33,4.41,1.8.29,2.09-2.2,2.64-3.77,3.03-5.72,1.41-11.3,3.13-18.09,6.15,10.06,2.18,18.57.35,26.98-.76,13.21-1.75,26.36-4.01,39.5-6.22,6.98-1.18,12.89,1.75,18.94,4.31,1.05.44,2.05,1.28,1.53,2.5-.53,1.24-1.85,1.07-2.84.56-14.31-7.24-28.49-1.51-42.51.84-31.26,5.23-62.41,11.19-93.59,16.88-8.81,1.61-17.61,3.27-26.39,5.03-.26.05-2.89-.75-1.24,1.35.28.36,1.26.17,1.91.24-.85.45-1.69.89-2.54,1.33-6.6,1.07-13.38.86-19.86,2.77Z" style="fill: #e0172a; stroke-width: 0px;"/>
  <path d="M624.62,583.4c-.09,25.96-.18,51.91-.32,77.87,0,1.02-.64,2.03-.99,3.05-.02-12.76-.07-25.53-.07-38.29,0-11.38-2.6-14.75-13.59-17.38-1.02-.24-2.38.17-2.86-1.09-.59-1.56.66-2.59,1.71-3.18,8.37-4.72,12.22-12.85,16.11-20.97Z" style="fill: #a77f76; stroke-width: 0px;"/>
  <path d="M624.66,480.15c1.26,1.49,1.02,3.3,1.02,5.03,0,29.83,0,59.67,0,89.5,0,1.73.26,3.54-1.03,5.02,0-33.18,0-66.37.01-99.56Z" style="fill: #a77f76; stroke-width: 0px;"/>
  <path d="M600.77,771.05c0,15.19.62,27.56-.11,39.86-2.56,43.13.03,86.3-1.44,129.4-.64,18.75-1.34,37.62-4.91,56.21-1.32,6.87-4.11,10.94-11.32,12.39-50.2,10.07-100.35,20.43-150.54,30.57-16.08,3.25-32.2,6.29-48.37,9.07-4.28.74-8.85.7-13.16.1-9.11-1.28-10.96-4.56-12.28-14.06-2.05-14.72-.22-29.47-1.26-44.14-1.54-21.76-.41-43.55-1.41-65.28-1.51-32.72-1.71-65.46-2.82-98.16-.64-18.69-.05-37.39-1.07-56.03-1.18-21.48-1.76-42.98-2.8-64.45-.66-13.76-1.09-27.58-2.38-41.33-.53-5.63,2.86-8.65,7.66-8.8,33.67-1.05,66.19-9.7,99.22-14.89,25.7-4.04,51.19-9.45,76.88-13.59,21.14-3.41,41.95-9.11,63.47-9.99,8.46-.35,10.36,2.06,10.67,10.37.78,20.69-.94,41.34-1.68,61.97-1,27.88-2.55,55.73-2.34,80.79Z" style="fill: #e3dde0; stroke-width: 0px;"/>
  <path d="M526.74,145.81c3.75-2.59,7.47-5.24,11.89-6.62,6.56-1.36,12.85-4.72,19.86-2.62.58,2.38-1.43,2.55-2.74,2.75-22.89,3.45-34.39,20.61-45.45,38.03-4.96,7.81-8.44,16.46-10.53,25.55-.58,2.51-1.53,5.64.79,7.47,2.43,1.91,5.16-.12,7.33-1.37,5.75-3.3,10.42-8.05,15.31-12.46,4.27-3.85,8.62-7.58,13.83-10.07,4.45-2.13,8.37-4.94,11.52-8.68,6.82-8.09,14.12-15.72,21.77-23.01,3.58-3.41,3.85-8.14,5.85-12.17,3.79-.59,6.19,1.96,8.6,4.09,12.55,11.1,19.21,25.48,22.66,41.57.51,2.38.8,5.06-.46,7.13-4.81,7.88-5.55,16.49-5.26,25.38.02.64-.51,1.2-.92,1.71-.77,6.63-3.48,13.68,3.96,18.57-2.17,9.68-8.12,17.37-13.39,25.42-2.34,3.58-6.03,5.93-9.81,5.97-10.13.1-19.97,2.55-30.03,2.9-23.29.8-44.95-6.13-66.32-14.22-3.33-1.26-6.4-2.14-10.11-1.78-5.67.55-7.52-2.18-5.81-7.79,1.34-4.41,3.48-8.37,6.13-12.24,6.11-8.92,9.54-19.21,13.27-29.27,5.63-15.19,9.98-30.97,20.57-43.79,5.71-6.91,11.65-13.63,17.49-20.44Z" style="fill: #ab0015; stroke-width: 0px;"/>
  <path d="M459.31,252.92c-6.92,4.83-15.24,5.04-23.04,6.24-11.17,1.72-22.47,3.03-33.84,3.01-17.27,1.68-34.47,2.01-51.88.96-17.8-1.07-35.4-3.18-53.02-5.43-.75.1-1.51.05-2.25-.11-3.38-1.25-6.11-3.15-7.62-6.66-1.08-2.51-3.53-3.8-5.74-5.2-2.21-1.4-4.57-2.59-6.4-4.52-2.54-2.68-4.19-5.96-3.21-9.51,1.07-3.87,4.95-2.63,7.82-3.12,3.36-.02,6.73-.12,10.05.53,5.65,1.53,11.41.6,17.11.71,7.42.52,14.68-1.96,22.1-1.24,5.64.54,11.2-2.9,16.89-.38,2.68,2.57,3.66,6.26,6.37,9,2.95,2.98-.45,5.06-2.73,6.66-3.52,2.47-8.04,3.18-11.94,5.89,3.01,2.2,5.93,2.33,8.67,2.48,8.79.47,17.61.55,26.39.04,9.38-.54,11.22-3.13,12.05-12.46.5-5.59,1.47-11.29,4.7-16.22,5.93-3.53,12.39-5.45,19.15-6.7,8.65-1.6,10.24-4.17,9.72-13.2-.64-11.07-6.78-19.28-13.69-27.07-12.01-13.53-27.78-22.1-42.64-31.84-2.94-1.93-6.23-3.33-8.83-5.74-2.23-2.07-2.15-2.4-.04-5.11,18.85,6.8,36.31,16.09,51.63,29.12,11.91,10.13,22.08,21.85,31.71,34.14,7.3,9.33,13.98,19,19.8,29.3,7.23,8.17,7.49,17.05,2.68,26.45Z" style="fill: #ab0015; stroke-width: 0px;"/>
  <path d="M619.27,247.62c-1.26-2.29-1.57-5-3.4-7.08-1.68-1.91-1.76-4.83.29-5.85,5.84-2.9,7.68-8.32,9.08-13.71,2.69-10.36,11.02-13.21,19.63-15.04,16.03-3.41,32.27-5.76,48.62-7.26,10.49-.96,20.76-3.12,30.96-5.67,10.67-2.67,13.41-1.33,19.38,7.84,3.14,4.82,6.4,8.83,4.04,15.52-2.23,6.29-5.53,9.69-11.9,11.68-14.17,4.43-28.19,9.36-42.61,12.97-19.09,1.65-38.16,3.44-56.62,9.04-2.08.63-4.12,1.49-6.05,2.5-8.16,4.29-8.37,4.23-11.42-4.93Z" style="fill: #ab0015; stroke-width: 0px;"/>
  <path d="M353.49,133.92c-2.03,4.13,1.77,4.51,3.86,5.84,17.19,10.96,35.3,20.68,49.26,36.04,7.32,8.06,13.05,16.91,14.17,28.2.89,8.98-1.79,13.35-10.76,14.4-6.86.81-12.82,4.24-19.48,5.43-.17-.24-.34-.47-.52-.7-1.48-4.79-6.14-4.56-9.67-6.12-6.25-2.59-11.71-6.57-17.49-9.97-1.64-.97-3.47-2.03-2.89-4.51,2.83-1.65,5.06.22,7.32,1.39,3.88,2.02,7.74,4.04,13.27,5.89-2.7-3.5-5.36-5.26-7.72-7.14-16.08-12.84-27.13-29.1-33.5-48.59-1.14-3.48-3.02-6.11-6.14-8.2-4.54-3.05-9.08-6.32-12.15-10.94-2.72-4.09-6.28-5.86-11.01-6-2.34-.07-4.9.41-6.79-1.66,8.67-1.47,16.55-3.65,24.43,4.59,7.91,8.26,18.58,13.83,27.6,21.25-4.34-8.13-11.7-13.17-18.39-18.85-1.6-1.36-4.78-2.25-3.6-4.61,1.21-2.42,3.88-.21,5.91.12,4.93.8,9.97,1.21,14.28,4.15Z" style="fill: #bb0014; stroke-width: 0px;"/>
  <path d="M290.12,230.71c-3.36-.14-6.72-.28-10.08-.42-8.25-.35-16.56.62-24.71-1.65-2.76-.77-5.66-.98-7.52-3.55-9.98-6.74-12.08-17.55-13.12-28.12-2.53-25.72,9.03-44.49,30.67-57.6,2.43-1.47,5-2.72,7.5-4.08,2.62-.68,2.78,1.72,3.46,3.04,7.24,13.95,17.7,25.45,27.87,37.19,1.67,1.92,4.11,3.49,3.44,6.65-5.71,2.04-11.82,1.94-17.69,3.3-6.16,1.43-12.26,2.91-18.17,5.15-2.59,1.01-5.09,2.24-7.54,3.55-2.87,1.44-5.47,3.31-7.95,5.34-1.37,1.1-2.91,1.98-4.2,3.18-3.03,2.77-2.89,4.48,1.51,5.2,3.8.62,7.52,1.65,11.11,3.12,13.93,4.91,27.22,11.16,40.1,18.52-5.01,2.11-9.85,1.59-14.69,1.17Z" style="fill: #fefefe; stroke-width: 0px;"/>
  <path d="M663.09,278.32c3.96,5.16,10.82,4.66,15.69,8.05,3.18,7.45,10.49,10.19,16.5,14.41,1.07.75,2.33,1.22,3.51,1.82,10.22,5.13,10.76,8.51,2.52,17.02-3.88,4-8.64,6.66-13.83,8.68-14.22,5.54-29.18,7.46-44.17,9.24-12.05,1.43-23.04-2.28-33.56-7.48-28-13.83-57.55-23.75-86.6-34.96-5.28-2.04-10.25-4.87-15.18-8.49,21.77,1.81,43.44,3.43,65.13,4.71-.02,1.26-.72,2.21-1.85,2.38-7.77,1.18-15.57,2.36-23.17-.95-4.57-.49-9.13-1.02-13.7-1.42-1.24-.11-2.94-.25-3.06,1.57-.07,1.13,1.07,1.77,2.17,2.18,24.62,9.26,48.44,21.11,74.39,26.11,13.49,2.6,27.5.24,41.07-2.98,10.04-2.38,20.22-4.15,28.82-10.47,4.59-3.38,5.31-8.62,1.33-12.8-3.95-4.15-8.93-7.05-13.56-10.37-2.03-1.45-5.67-2.61-2.44-6.26Z" style="fill: #ae0012; stroke-width: 0px;"/>
  <path d="M303.25,127.27c2.86.02,5.75-.22,8.58.11,3.43.41,6.84.84,9,4.42,3.56,5.93,8.91,10.17,14.8,13.59,2.79,1.62,3.91,3.97,4.76,6.75,6.89,22.41,20.23,40.11,39.17,53.77,1.68,1.21,4.66,2.83,3.48,4.88-1.58,2.75-4.21.22-6.37-.48-5.84-1.9-10.54-6.3-16.66-7.59-2.09.77-3.46-.44-4.81-1.72-2.41-2.98-5.34-5.21-9.11-6.21-1.78-.69-3.58-1.37-3.28-3.84-5.71-5.36-11.34-10.81-17.15-16.06-12.4-11.2-24.21-22.98-32.96-37.3-4.65-7.61-3.5-9.18,5.29-10.21,1.74-.2,3.52-.08,5.28-.11Z" style="fill: #9c0011; stroke-width: 0px;"/>
  <path d="M548.08,292.75c8.33-.58,16.8,1.22,25.02-1.44,3.91-.49,7.82-.98,11.73-1.47,13.31-.17,25.75-4.92,38.65-7.25,6.24-1.13,12.48-2.26,18.76-3.15,3.77-.53,7.28-.17,10.17,3.16,2.79,3.21,7.27,4.01,10.8,6.21,4.58,2.86,4.59,5.06.19,8.2-10.57,7.53-22.86,9.75-35.32,11.41-25.45,3.39-49.67-2.07-73.47-10.36-2.78-.97-6.35-1.11-6.55-5.32Z" style="fill: #2d0002; stroke-width: 0px;"/>
  <path d="M307.21,181.57c-8.89-10.66-18.93-20.39-26.29-32.29-2.83-4.57-5.38-9.31-8.06-13.97,1.32-2.23,2.81-4.02,3.88.02.7,2.65,2.3,4.57,3.97,6.53,5.86,4.99,9.16,12.17,14.9,17.28,2.45,2.19,4.69,4.62,7.04,6.93,5.64,5.41,10.55,11.59,17.05,16.1,7.9,7.33,16.9,13.24,25.41,19.79,8.87,8.06,18.92,14.15,30.16,18.32,2.45.91,5.18,1.83,5.38,5.07.29,4.53,2.21,2.38,4.06,1.13,1.78-1.2,2.64-4.5,5.82-2.66,0,0,.01.01.01.02-.73,7.01-5.48,13.3-3.25,20.94.67,2.28-.77,5.07-3.64,6.34-3.02,1.34-6.03,3.08-9.31,3.01-11.59-.25-23.25,1.29-34.78-1.16-1.95-.41-3.87-.58-5.43-2.68,3.69-4.04,9.29-4.42,13.57-7.12,2.44-1.54,10.09-2.95,1.04-6.81-2.97-1.27-1.53-4.69-1.84-7.2,3.19-2.55,3.33-4.68-.55-6.85-4.98-2.78-10.26-5.16-14.38-9.27-1.98-1.97-4.62-3.75-4-7.11.36-1.95,1.98-2.96,3.86-3.04,3.58-.14,6.43,1.05,7.46,4.9-3.01,2.05-1.46,3.31.72,4.65,6.65,4.1,13.72,7.35,20.76,10.66-3.47-1.82-7.23-3.22-9.62-6.63-2.58-4.6-7.29-6.84-11.27-9.77-7.89-5.8-15.64-11.8-23.78-17.27-3.26-2.28-7.06-3.96-8.88-7.86Z" style="fill: #bb0014; stroke-width: 0px;"/>
  <path d="M488.5,172.33c-4.77,10.19-10.93,19.7-14.65,30.4-1.61,4.28-5.29,5.6-9.27,6.5-2.89-1.27-3.83-3.67-3.84-6.6-7.32-14.53-18.18-26.31-29.31-37.89-3.13-5.69-8.53-9.31-12.85-13.91-2.2-2.35-3.17-4.28-.07-6.35,1.56-1.05,2.3-2.58,3.18-4.09,4.08-6.96,8.87-9.79,16.42-7.41,16.44,5.18,31.52-.45,46.75-4.81,6.62-1.89,11.34-11.35,9.81-18.2-.48-2.15-1.11-4.22-1.01-6.44,5.95,3.84,6.39,9.94,5.84,15.95-.46,5.04-2.87,9.68-5.25,14.16-2.18,4.11-5.88,5.88-10.36,5.86-5.56-.01-10.96.84-16.26,2.4-6.24,1.84-12.55,2.18-18.93.85-1.08-.22-2.18-.32-3.28-.39-10.17-.67-12.06,2.1-8.03,11.35,4.9,11.25,13.69,19.27,22.27,27.5,2.57,2.46,5.14,1.77,7.73-.09,4.11-2.95,7.95-6.32,12.57-8.47,2.74-1.28,5.59-3,8.53-.32Z" style="fill: #f26460; stroke-width: 0px;"/>
  <path d="M356.03,279.46c1.81,2.08,4.61.76,8.31,2.29-26.91,2.96-51.96,7.81-77.44,9.9-9.43.77-18.24-.19-27.24-1.92-4.55-.87-8.17-3.4-10.37-7.43-1.51-2.76-4.55-5.91-2.08-9.03,2.37-2.99,6.29-3.39,10.25-2.87,12.14,1.61,24.26,3.52,36.56,3.6,20.59,2.72,41.14,5.9,62.01,5.45Z" style="fill: #3e0003; stroke-width: 0px;"/>
  <path d="M231.88,168.3c-1.99,1.37-1.3,4.47-3.98,5.82-1.92-2.87.42-5.71.04-8.44,1.8-3.58,6.56-7.86-2.22-8.84-1.27-.14-1.78-1.5-1.28-2.56,4.01-8.62,5.9-18.54,14.05-24.67,2.14-1.61,5.33-4.99,7.78.16-.33,3.93-5.26,5.34-5.27,9.5,1.86,1.84,3.63-1.42,5.42-.04,2.94-.36,4.8-2.69,7.22-4,.92-.5,1.98-1.52,2.67-.3.37.66-.4,1.96-.65,2.97-9.99,8.52-19,17.81-23.77,30.41Z" style="fill: #fc877e; stroke-width: 0px;"/>
  <path d="M247.81,225.09c10.74,1.73,21.49,3.46,32.23,5.19-2.15.73-5.77-1.25-6.34,1.58-.54,2.68.14,6.13,2.89,8.26.34.27.59.74.96.88,8.02,2.97,12.26,10.13,17.71,15.95-8.36,2.09-14.94-1.64-21.16-6.51-.34-4.67-4.64-5.31-7.55-7.21-7.13-4.66-13.37-10.29-19.07-16.55-.22-.24.21-1.05.33-1.6Z" style="fill: #bb0014; stroke-width: 0px;"/>
  <path d="M301.91,166.95c-8.24-7.38-15.9-15.24-21.21-25.1.81-2.81-3.69-6.48-.99-7.54,3.79-1.49,4.51,3.74,6.27,6.19,10.21,14.21,23.41,25.42,36.59,36.63,5.66,4.82,11.77,9.11,17.67,13.65,1.52.9,2.72,2.24,4.25,3.1,1.55.88,3.48,1.69,2.24,3.9-1.23,2.19-3.29,1.89-5.18.83-2.68-1.5-5.15-3.34-7.67-5.1-5.57-3.87-10.54-8.52-16.14-12.35-6.04-3.88-9.92-10.18-15.82-14.21Z" style="fill: #fb7e75; stroke-width: 0px;"/>
  <path d="M317.78,180.16c7.41,3.69,12.97,9.99,20.02,14.19,1.67,1,3.24,2.17,4.85,3.28.96.67,2.03,1.11,2.9.08,1.37-1.62-.18-2.25-1.23-2.89-1.7-1.03-3.25-2.18-4.09-4.06.86.05,1.71.11,2.57.16.92,1.44,2.2,2.34,3.92,2.56,3.15,2.19,6.47,4.14,9.36,6.68,1.31.84,2.62,1.69,3.92,2.53,6.39,5.48,13.94,9.11,21.19,13.21,1.65,1.89,1.22,3.7-.53,5.12-2.02,1.65-4.06.56-6.12-.29-10.98-4.54-20.67-11.25-30.3-18.04-8.93-5.99-17.94-11.87-25.31-19.84-.64-.79-1.94-1.29-1.16-2.69Z" style="fill: #f23944; stroke-width: 0px;"/>
  <path d="M274.11,250.45c6.75,3.17,13.65,5.82,21.16,6.51,0,0,0-.01,0-.01,7.02-.24,13.7,2.02,20.59,2.83,10.38,1.21,20.73,2.47,31.19,2.59,9.87,1.98,19.86.83,29.79,1.14,2.34.24,4.9-.65,6.87,1.41-.07,2.13-1.54,2.34-3.18,2.36-29.11.34-58.24.83-86.77-6.47-7.21-1.85-14.16-4.55-20.8-7.94-.75-.38-2.5-.65-1.34-2.12.36-.46,1.64-.21,2.5-.28Z" style="fill: #f56564; stroke-width: 0px;"/>
  <path d="M346.72,263.56c-17.42-.14-34.63-1.9-51.45-6.61,4.51-3.06,9.06-.22,13.37.38,12.13,1.68,24.29,2.67,36.49,3.69,19.1,1.59,38.2.88,57.29,1.17-6.05,2.2-12.38,2.46-18.71,2.73-2.13-.01-4.25-.03-6.38-.05-7.57-1.57-15.23-.29-22.83-.74-2.6-.15-5.26.57-7.78-.56Z" style="fill: #bb0014; stroke-width: 0px;"/>
  <path d="M460.74,202.62c1.28,2.2,2.56,4.4,3.84,6.6,1.02,2.77.15,8.48,6.31,3.57.11,1.26.56,2.41.24,3.27-4.32,11.44-4.94,23.92-9.86,35.17-.31.71-1.28,1.13-1.95,1.69,2.85-9.2,1.4-17.95-2.68-26.45,2.59.69,3.88,5.41,7.06,3.23,3.52-2.41,2.07-6.23.79-9.54-1.72-4.45-3.56-8.86-5.27-13.32-.68-1.77-1.92-3.89,1.53-4.22Z" style="fill: #bb0014; stroke-width: 0px;"/>
  <path d="M253.05,315.09c1.31-.45,2.62-.89,3.93-1.34,22.19-6.1,44.92-9.52,67.5-13.65,3.24-.59,8.21-2.21,8.97,2.37.63,3.77-4.3,4.23-7.42,4.99-4.06,1-8.16,1.89-12.3,2.44-24.89,3.33-48,12.56-71.25,21.33-1.99.75-4.26,1.36-5.34,3.59-8.24,4.3-16.02,9.23-22.34,16.18-1.37,1.22-2.74,2.45-4.11,3.67-4.36,2.63-5.71,7.56-8.64,11.29-2.98,2.39-3.5,7.82-8.89,7.23-1.52-2.5-.58-4.87.96-6.74,5.43-6.61,9.85-14.12,16.73-19.49,4.05-3.24,8.29-6.25,11.96-9.95,2.59-2.61,3.23-5.05-.22-7.43,8.64-6.62,19.65-8.12,28.93-13.34.56-.31,1.03-.78,1.54-1.17Z" style="fill: #f85358; stroke-width: 0px;"/>
  <path d="M193.4,373.19c3.92-1.36,4.22-6.38,7.98-7.91,1.29-1,1.6-3.54,4.11-2.61-.35,4.29-2.78,7.91-3.92,11.94-6.22,1.04-7.47,6.6-9.21,11.07-4.4,11.27-6.28,23.22-8.06,35.14-.29,1.96-.2,3.95-2.48,5.98-2.5-6.93-1.72-13.95-2.76-20.63-1.65-10.59-2.71-21.23-3.11-32.01-.42-11.49-6.03-15.83-17.82-15.36-11.73.47-21.46-4.66-30.75-10.42-8.99-5.58-10.16-12.92-5.32-22.81,1.75,1.44,1.8,3.5,1.7,5.43-.34,6.69,3.28,10.59,8.92,13.18,8.2,3.77,16.26,7.49,25.79,4.12,7.67-2.71,14.04,4.29,19.9,13.97,2.68,4.43,2.84,9.63,1.72,14.71-.67,3.04-.9,6.08-.43,9.13.3,1.93.59,4.22,2.95,4.63,2.05.35,2.88-1.62,3.85-3.04.5-.72.84-1.54,1.23-2.32.61-1.42,1.27-2.82,1.55-4.36.42-1.78,1.04-3.48,1.87-5.11.57-1.07,1.18-2.1,2.28-2.73Z" style="fill: #e42635; stroke-width: 0px;"/>
  <path d="M205.49,362.67c-1.37.87-2.74,1.74-4.11,2.61,2.34-4.2,3.82-9.16,9.3-10.6-1.73,2.66-3.46,5.33-5.19,7.99Z" style="fill: #e92836; stroke-width: 0px;"/>
  <path d="M596.99,132.61c12.34,3.17,25.93.83,39.45-.15,13.73-.99,27.38-3.08,41.08-4.49,10.88-1.12,21.62-3.64,32.64-3.32,5.19.15,14.09,11.04,13.11,16.04-.42,2.12-2.11,3.18-4.18,3.72-14.85,3.86-29.82,6.88-45.17,8.09-13.57,1.07-26.82,4.08-39.88,7.94-4.05,1.2-6.61,4.26-9.35,7.09-3.63,3.73-7.42,4.04-10.7,0-7.61-9.34-14.19-19.46-22.3-28.46-3.53-3.91-1.54-6.48,5.31-6.45Z" style="fill: #f32f3c; stroke-width: 0px;"/>
  <path d="M747.57,155.06c.84,5.93-1.42,8.1-7.68,8.07-24.2-.14-47.95,3.98-71.63,8.46-9.89,1.87-19.74,3.99-29.66,5.7-2.34.4-5.75,1.72-7.02-1.52-1.33-3.38,2.2-4.59,4.27-5.68,12-6.33,25.37-8.08,38.38-11.08,15.14-3.5,30.81-3.68,45.87-7.71,10.89-2.92,13.37-7.32,9.58-17.56-.88-2.36-2.66-5.31.34-7.13,2.78-1.68,4.34,1.34,5.84,2.98,2.34,2.57,4.31,5.49,6.43,8.26,4.57,3.41,3.65,9.22,5.97,13.62.17.63.23,1.27.21,1.92-.13.64-.43,1.21-.89,1.68Z" style="fill: #fda08b; stroke-width: 0px;"/>
  <path d="M740.84,86.1c-.91,2.7-1.82,5.4-2.73,8.1.22,1.08-.05,2.08-.47,3.06-.42.98-.89,1.93-1.36,2.89-.91,1.72-1.69,3.5-2.56,5.25-1.96,3-3.19,6.58-6.62,8.42-.3.03-.61.05-.92.08-7.4-4.84-14.56-10.18-23.63-11.63-5.66-1.11-11.97-.02-16.51-4.91-.17-2.78,1.66-4.43,3.51-6,14.17-11.97,29.21-22.61,46.26-30.16,7.8-3.45,10.34-1.91,9.26,6.61-.78,6.17,0,12.87-4.24,18.29Z" style="fill: #fefefe; stroke-width: 0px;"/>
  <path d="M732.82,104.59c.74-1.79,1.21-3.72,2.83-5.01,3.99-4,8.56-3.55,12.63-.72,11.93,8.31,21.48,18.93,27.41,32.23,3.66,8.2-2.1,22.59-9.86,27.33-4.42,2.7-7.41,1.97-10.43-2.83-2.69-4.28-4.38-9.12-7.44-13.33-.54,3.48,2.68,7.1-.54,10.34-2.86-4.52-3.11-9.95-5.13-14.76-.74-7.77-6.79-12.37-10.92-18.09-1.52-2.1-3.44-3.91-5.18-5.85,0,0,.03-.01.03-.01,1.95-1.2,3.81.31,5.69.16,3.72-.28,5.25-3.13,5.64-6.21.66-5.21-3.78,0-4.8-2.1-.08-.17-.16-.36-.15-.54.02-.21.15-.41.23-.61Z" style="fill: #f73d4a; stroke-width: 0px;"/>
  <path d="M617.95,202.75c10.88-1.11,12.95-3.74,9.93-13.23-1.41-4.42,1.53-6.67,4.41-7.59,10.36-3.31,20.47-6.95,32.07-4.97,8.26,1.41,16.97-1.38,25.03-4.16,18.13-6.26,36.52-9.21,55.65-6.14,1.6.26,3.39-.66,5.1-1.03,1.56,2.86.51,4.55-2.43,5.37-.85.24-1.75.43-2.61.33-15.99-1.79-30.2,3.78-44.4,10.11-9.05,4.03-18.91,5.78-28.58,7.91-9.48,2.08-18.77,4.57-27.5,9-3.09,1.57-6.4,2.97-9.99,3.21-.66.24-1.35.38-2.05.42-3.07.41-5.77,1.63-8.47,3.18-2.6,1.49-5.53,2.01-6.16-2.41Z" style="fill: #f73d4a; stroke-width: 0px;"/>
  <path d="M600.78,222.5c-1.3-9.41-1.72-18.62,4.52-26.84.91-1.2.99-3.46.69-5.08-3.56-19.22-11.49-35.86-28.43-47.01-.51-.33-1.27-.28-1.91-.41-6.3.1-11.64-2.87-17.13-5.36-4.62-3.32-9.07.3-13.59.5-2.03.09-4.13.96-6.29.88,6.25-3.81,13.19-4.15,20.23-3.97,1.76.04,3.52.02,5.27-.07,1.13-.05,2.42-.41,2.57-1.62.21-1.71-1.27-2.13-2.6-2.19-5.34-.23-10.36-1.54-15.04-4.13.08-.38.16-.77.26-1.15,10-2.06,20.01,1.38,26.36,7.17,14.33,13.08,30.88,25.3,34.55,46.61.63,3.64,1.67,7.22,2.52,10.82-.02,5.23-.24,10.48.01,15.7.16,3.33-1.27,3.64-3.84,2.9-3.93,3.57-2.31,10.06-6.99,13.23-.38,0-.76,0-1.14,0Z" style="fill: #c8051a; stroke-width: 0px;"/>
  <path d="M737.02,96.9c-.07-1.07-.01-2.09,1.08-2.69,12.59-2.56,23,2.66,33.11,9.16,4.12,2.65,8.93,3.34,13.71,4.2,14.83,2.66,18.12,10.62,9.73,23.2-1.09,1.63-2.31,3.19-3.6,4.68-6.44,7.47-10.19,16.96-17.75,23.58-1.81,1.58-3.72,3.05-5.6,4.54-4.42,3.51-8.73,5.59-12.55-.83-.76-1.28-2.32-1.03-3.63-1.06-.42.63-.83.63-1.25,0-1.88-1.81-.56-4.93-2.71-6.62.02-.44.04-.89.06-1.33,3.98-4.55,4.44-4.53,7.28.32,5.31,9.07,8.69,9.55,15.46,1.43,7.39-8.87,12.19-19.34,16.91-29.78,1.42-3.14.32-5.77-2.95-6.93-9.33-3.29-16.85-9.4-24.59-15.22-6.69-5.03-14.48-6.69-22.71-6.64Z" style="fill: #dc1d2d; stroke-width: 0px;"/>
  <path d="M750.29,161.68c.42,0,.83,0,1.25,0-.01,3.08-.02,6.16-.03,9.25-1.11,1.95-2.41,3.56-4.8,4.17-16.79,4.24-32.67,11.41-49.87,14.57-19.39,3.56-38.81,7.16-57.94,12.04-1.68.43-3.46.7-5.08-.38,14.37-7.7,29.73-12.57,45.65-15.7,9.5-1.87,19.01-4.13,27.46-8.6,11.95-6.33,24.33-8.25,37.5-7.44,2.77.17,6.15.73,5.72-3.95.05-1.32.1-2.64.14-3.95Z" style="fill: #e52131; stroke-width: 0px;"/>
  <path d="M623.11,190.27c.33,4.56-.39,7.04-3.05,7.73-3.42.88-3.78-2.41-4.43-4.47-1.18-3.73-1.93-7.61-2.74-11.45-.26-1.25-.63-2.9.57-3.67,1.47-.94,3.03.12,4.18,1.03,4.12,3.22,5.04,7.94,5.46,10.84Z" style="fill: #fccfcd; stroke-width: 0px;"/>
  <path d="M617.95,202.75c1.51,3.24,3.72,2.19,5.92.94,2.68-1.53,5.44-2.74,8.64-2.33.43.29.58.58.44.88-.14.29-.29.44-.43.44-4.25,1.25-7.78,3.31-9.28,7.87-.59,1.78-2.05,2.66-3.94,2.74l-.06-.03c-.82-3.57-1.65-7.14-2.47-10.71.39.08.79.15,1.19.2Z" style="fill: #e52131; stroke-width: 0px;"/>
  <path d="M686.36,96.89c2.57,4.05,7.31,2.05,10.75,3.82,1.65.85,3.62,1.06,5.44,1.56-3.13,2.62-6.23-.06-9.06-.58-4.07-.75-8.09-.56-12.11-.94.04-.39.07-.78.08-1.17,1.16-1.77,2.61-3,4.91-2.68Z" style="fill: #fe4752; stroke-width: 0px;"/>
  <path d="M686.36,96.89c-1.73.71-2.61,3-4.91,2.68-1.39-.27-3.01.12-3.99-1.37,2.29-5.5,7-8.99,11.29-12.56,11.99-9.97,25.13-18.37,38.38-26.56,4.67-2.88,9.79-4.76,15.18-5.82.84-.44,1.68-.89,2.52-1.33,6.25-.95,11.77-5.23,18.48-4.03,9.13-.09,18.25-.99,27.4-.02,3.08.33,6.14.18,8.9,2.92-1.15,1.96-3.79.41-4.96,1.89-.29,1.09.32,1.54,1.24,1.84,10.66,3.51,19.18,9.91,24.3,19.91,8.07,15.76,5.71,31.33-2.27,46.42-1.12,2.12-2.8,3.95-2.9,6.51.52,1.07.44,2.22-.18,3.11-5.07,7.31-9.83,14.85-16.02,21.32-.63.66-1.41.96-2.34.62-8.13,6.05-13.78,14.83-22.38,20.37-3.68,2.37-7.44,4.63-11.18,6.92-2.85,1.74-5.67,3.48-6.19,7.21-.16,1.16-.56,2.26-1.93,2.2-1.76-.09-2.21-1.62-1.87-2.86,1.25-4.55.92-8.98.06-13.57-.51-2.71,1.63-3.75,3.76-2.28,4.03,2.77,7.33.73,10.24-1.44,10.2-7.61,19.56-16.13,27.22-26.42,4.17-5.6,9.56-10.37,11.46-17.45,2.05-7.66.79-12.87-6.29-15.93-17.42-7.53-34.3-16.89-53.68-18.84-2.88-.29-4.55-1.3-4.88-4.21,1.44-8.35,2.79-16.71,2.42-26.04-21.91,8.67-40.42,21.15-56.9,36.82Z" style="fill: #ab0015; stroke-width: 0px;"/>
  <path d="M796.49,152.42c6.8-7.89,12.9-16.3,18.54-25.05,7.25-5.78,7.85-15.39,12.91-22.45.94-1.31.68-3.55,3.63-3.42-1.24,7-.91,14.19-4.63,20.58-3.26-.09-4.19,2.52-5.35,4.74-1.69,3.21-3.17,6.53-5.72,9.2-8.69,11.88-17.08,24-29.35,34.01,2.63-.21,4.25-2.11,5.98-.52-8.22,9.12-18.48,15.26-29.56,20.2-1.48.66-3.38,2.03-4.5-.43-.89-1.95.3-3.27,1.93-4.35,6.21-4.14,12.58-8.06,18.5-12.58,7.14-5.44,13.83-11.45,17.61-19.93Z" style="fill: #ef3c46; stroke-width: 0px;"/>
  <path d="M632.51,202.68c0-.44,0-.88,0-1.32.43-.02.87-.03,1.3-.03,10.76-.88,20.87-4.79,31.38-6.9,19.08-3.83,38.22-7.74,56.87-13.21,9.89-2.9,19.69-6.66,29.44-10.29.18,2.09-.14,4.24-2.04,5.23-8.23,4.28-15.4,10.62-25.62,10.8-10.26.18-20.02,4.18-30.15,5.61-20.47,2.89-40.52,8.34-61.17,10.11Z" style="fill: #dc1d2d; stroke-width: 0px;"/>
  <path d="M815.05,135.28c2.27-4.2,4.36-8.52,6.91-12.56,1.02-1.61,2.67-5.72,4.98-.65-4.07,12.12-11.26,22.32-19.59,31.81-1.83,1.56-3.14,3.65-5.03,5.15-.95.76-1.94,2.24-3.27.9-1.21-1.22-.13-2.37.69-3.42,5.4-6.86,10.77-13.75,15.31-21.23Z" style="fill: #fddfdf; stroke-width: 0px;"/>
  <path d="M815.05,135.28c-3.2,9.18-10.93,15.45-15.89,24.18,3.91-.88,4.9-4.91,8.19-5.57-3.47,6.61-9.85,10.46-14.85,15.61-3.25-.5-5.54,5.84-7.53,2.88-2.09-3.12,3.06-5.42,5.36-7.51,9.63-8.74,16.19-19.98,24.73-29.59Z" style="fill: #fb9194; stroke-width: 0px;"/>
  <path d="M601.92,222.49c1.58-4.42,3.09-8.86,4.77-13.24.52-1.36,1.49-2.29,2.22,0-.16,4.36-.18,8.74-.56,13.08-.18,2.12-1.72,3.58-3.93,3.77-2.74.23-2.28-1.99-2.5-3.63Z" style="fill: #edb370; stroke-width: 0px;"/>
  <path d="M619.29,213.29c1.97,1.62,2.97,3.58,2.68,6.25-.32,2.95.76,6.26-2.35,8.39-.8.55-1.81.5-2.22-.44-1.3-2.98-2.91-6.04-1.67-9.38.68-1.85.41-4.66,3.51-4.85,0,0,.06.03.06.03Z" style="fill: #c8051a; stroke-width: 0px;"/>
  <path d="M763.32,47.9c-6.41.17-12.02,4.04-18.48,4.03,6.71-3.53,13.85-5.63,21.37-6.47-.96.81-1.93,1.63-2.89,2.44Z" style="fill: #fe4752; stroke-width: 0px;"/>
  <path d="M324.46,37.35c1.88-5.02,6.01-2.41,9.02-2.26,3.88.2,7.89,1.05,11.5,2.48,14.18,5.61,28.17,3.42,42.64.86,14.14-2.5,28.13-6.12,42.71-6.55,14.62-.44,24.95,6.18,32.74,17.32,9.36,13.37,16.13,28.14,20.68,43.84,2.82,9.72.41,13.57-8.72,17.93-13.34,6.38-27.22,7.72-41.55,5.68-10.05-1.43-18.44,2.48-26.63,7.29-3.51,2.06-5.49,5.12-3.94,9.42.69,1.9,1.17,3.76.32,6.52-5.61-3.57-11.05-6.98-16.43-10.47-10.13-6.56-21.49-10.79-31.92-16.77q7.35,1.13,5.06-6.4c2.09-1.2,2.9.97,4.65,1.82-9.09-20.81-21.8-39.14-33.36-58.13-1.06-4.83-4.95-8.15-6.76-12.58Z" style="fill: #f22e3e; stroke-width: 0px;"/>
  <path d="M332.38,49.24c12.91,20.04,26.25,39.84,35.53,62.79-5.1-.28-4.73-5.16-7.98-5.79-7.38-15.6-15.21-30.96-25.12-45.14-3.73-5.33-7.85-10.39-11.79-15.57-1.04-5.48-6.36-7.53-9.23-11.52-1.17-1.63-4.69-2.91-2.93-5.02,1.94-2.32,3.61.94,5.28,2.05.55.36,1.1.71,1.65,1.06,1.28,2.23,3.03,4,5.24,5.32,4.73,2.67,6.05,8.03,9.34,11.83Z" style="fill: #fb8a7c; stroke-width: 0px;"/>
  <path d="M354.93,112.68c-5.34-2.17-10.67-4.34-16.01-6.51,5.53-2.6.05-4.94-.76-6.18-3.08-4.73-2.25-8.23,1.96-11.33,2.28-1.67,4.95-1.64,6.22.99,3.56,7.39,9.33,14.01,8.6,23.02Z" style="fill: #f22e3e; stroke-width: 0px;"/>
  <path d="M159.27,284.85c7.85-.47,14.63-4.74,22.24-6.18,8.58-1.63,16.95-4.39,25.77-4.6,2.52-.06,5.65-.85,6.95,2.29,1.25,3.02-.56,5.52-2.39,7.76-3.51,4.28-7.94,7.59-12.45,10.64-2.71,1.84-4.42,4.11-5.82,6.9-2.54,5.02-1.78,8.92,3.66,11.27,5.64,2.44,9.82,4.59,6.14,12.57-2.72,5.91,3.97,12.21,10.02,10.78-.6,6.34-5.72,6.52-10.15,7-4.62.49-5.69-3.07-6.38-6.79-.78-4.2-3.82-7.72-2.68-12.63.8-3.44-2.36-3.07-4.46-2.14-3.32,1.48-3.37,4.74-3.89,7.82-.72,4.28-1.32,8.89-7.12,9.43-7.3-14.38-20.79-17.97-34.26-9.11-.37.24-.73.49-1.1.72-11.97,7.49-17.44,4.61-18.5-9.74,2.17-9.05,9.32-14.63,14.88-21.32.69-.83,1.84-1.23,2.19-2.37,5.79-4.1,11.58-8.2,17.36-12.3Z" style="fill: #fd525b; stroke-width: 0px;"/>
  <path d="M141.9,297.15c-4.6,6.38-9.16,12.78-13.81,19.12-.92,1.25-2.02,2.33-2.06,4.01-.66.8-1.03,2.1-2.52,1.47.07-1.96,1.04-3.96-.27-5.86,4.97-7.5,11.5-13.43,18.66-18.74Z" style="fill: #e42635; stroke-width: 0px;"/>
  <path d="M488.5,172.33c-8.66-.5-14.09,5.73-19.97,10.31-4.71,3.67-7.39,2.88-11.1-.9-8.63-8.8-17.68-17.15-22.44-28.98-3.88-9.64-1.92-13.88,8.12-11.89,14.92,2.96,28.57-3.71,42.98-3.17,2.63.1,4.97-1.44,6.38-4.05,5.32-9.87,8.36-19.79,1.2-30.13-2.14-7.53-6.57-14.01-9.72-21.09-.98-2.19-2.28-4.2-2.18-6.72,4.26-2.04,5.22,1.91,6.56,4.08,8.13,13.13,13.53,27.47,18.71,41.97,2.81,7.87,1.39,16.11,3.74,23.88-7.42,8.89-14.85,17.79-22.27,26.68Z" style="fill: #fe9282; stroke-width: 0px;"/>
  <path d="M742.32,53.26c-18.11,8.44-34.54,19.58-50.24,31.8-5.16,4.01-9.76,8.74-14.61,13.14-6.41-2.97-6.75-4.37-2.07-9.17,11.49-11.78,26.03-19.2,39.9-27.52,7.28-4.37,14.41-9.29,23.07-10.84.04,2.81,2.19,2.41,3.96,2.59Z" style="fill: #fe4752; stroke-width: 0px;"/>
  <path d="M759.46,38.71c-8.12,2.44-16.55,3.47-24.66,6.16-22.12,7.36-41.41,18.98-57.72,35.72-6.56,6.73-12.39,14.38-21.11,18.78-1.62.82-3.08,1.61-4.9,1.52,17.6-14.09,30.09-33.97,51.24-44.15,18.25-8.79,35.51-20.18,57.15-18.03Z" style="fill: #fe4752; stroke-width: 0px;"/>
  <path d="M332.38,49.24c-4.61-2.76-6.04-8.03-9.34-11.83.47-.02.95-.04,1.42-.06,4.34,2.83,6.73,6.96,7.92,11.89Z" style="fill: #fe6164; stroke-width: 0px;"/>
  <path d="M246.41,139.22c-1.03.79-2.09,1.56-3.1,2.37-1.06.85-2.15,1.65-3.46.6-1.39-1.11-1.47-2.58-.78-4.12,1.56-3.5,4.39-5.89,7.19-8.31,16.72-13.04,36.13-18.1,57.09-19.57-2.19,3.47-2.32,2.95-6.41,3.92-18.74,4.48-36.26,11.58-50.54,25.11Z" style="fill: #e52232; stroke-width: 0px;"/>
  <path d="M751.56,230.48c15.12-.85,29.87-4.53,44.91-5.98,9.41-.91,18.83-1.65,28.18.54,1.56.37,4.11-.14,3.8,2.42-.22,1.81-2.38,1.63-3.89,1.59-12.11-.31-24.07,1.21-36.08,2.52-11.12,1.22-22.1,3.12-33.13,4.87-2.77.44-5.59,1.68-8.01-.87.59-2.38,1.78-4.26,4.23-5.1Z" style="fill: #fa9b89; stroke-width: 0px;"/>
  <path d="M755.62,213.14c4.59.04,9.11-.03,13.71-.9,5.92-1.13,11.86-.24,16.9,3.52,1.68,1.25,3.77,2.63,3.36,5.25-.45,2.83-3.11,3.06-5.09,3.38-10.53,1.71-21.11,3.17-31.67,4.72,4.2-1.67,8.44-3.27,12.6-5.05,1.99-.86,4.36-1.98,4.03-4.54-.3-2.33-2.76-3.1-4.63-4.24-2.88-1.76-6.69.89-9.21-2.14Z" style="fill: #f63947; stroke-width: 0px;"/>
  <path d="M178.96,338.84c3.77-2.81,5.41-6.46,5.37-11.25-.05-5.87,3.83-9.25,9.04-8.54,3.26.45,5.26,2.1,3.12,5.25-1.86,2.74-1.62,4.7.38,7,.7.8,1.01,1.93,1.5,2.91,1.26,2.51-1.23,7.17,3.22,7.61,4.63.46,9.15-.95,11.79-5.54,3.07-2.23,6.14-4.46,9.2-6.69,5.7.68,6.55,2.23,3.13,6.56-3.81,4.83-8.9,8.28-13.87,11.81-1.01-1.26-.27-2.5.29-4.81-9.76,7.45-18.17,14.72-21.52,26.32-.77,2.66-.51,4.72,1.65,6.48-.55,1.69-1.09,3.38-1.64,5.07-4.6,2.3-4.82-1.18-5.47-4.11-.41-5.32.82-10.47,2.01-15.57,1.03-4.4.1-6.79-4.83-6.51-8.47-4.11-9.97-11.24-3.37-15.99Z" style="fill: #fc7d74; stroke-width: 0px;"/>
  <path d="M743.58,333.57c2.91,3.33,6.52,6.13,7.93,10.59-3.16,5.72-6.79,11.17-9.29,17.27-1.57,3.84-5.21,5.75-8.79,7.58-2.28,1.16-4.97,1.8-6.56,4.19,14.42,3.58,29.26-.38,35.33-9.37,3.12,1.26,2.42,4.14,2.77,6.57.54,7.2-1.89,9.98-9.72,10.67-6.13.54-12.28-.17-18.44.65-19.52,2.6-39.26,3.48-58.64,7.25-.65.13-1.32.13-1.98.1-3.97-.19-8.84.04-9.59-4.88-.69-4.52,4.12-4.85,7.25-6.14,15.69-6.43,31.78-11.66,48.45-14.75,11.82-2.19,13.76-11.48,16.22-20.65.57-2.13.37-4.41,1.01-6.52.58-1.92,1.25-4.02,4.06-2.57Z" style="fill: #fe9b87; stroke-width: 0px;"/>
  <path d="M743.58,333.57c-2.83.33-2.66,2.45-2.64,4.45.07,7.55-3.27,14.02-6.54,20.51-1.16,2.29-2.89,3.73-5.45,4.37-4.89,1.22-9.66,3.1-14.6,3.9-14.65,2.34-27.74,9.5-41.93,13.22-2.02.53-4.88,1.1-4.91,3.69-.05,3.32,3.44,2.99,5.51,3.61,5.46,1.63,11.03-.34,16.24-1.19,14.94-2.46,30.16-2.32,44.97-5.12,8.05-1.52,16.24.08,24.17-2.26,4.42-1.3,6.94-3.54,6.57-8.34.37.06.74.15,1.1.24-.04,10.46-1.37,11.89-11.76,11.85-25.27-.09-50.13,3.66-75,7.48-4.53.7-9.22.27-13.82.49-4.65.21-9.97.26-11.2,5.9-1.22,5.6,2.47,9.58,7.01,12.26,7.09,4.17,7.3,4.51,1.07,9.5-3.35,2.68-5.21,7.27-10.11,7.99-.16-.42-.36-.99-.13-1.25,10.89-11.65-1.15-20.47-4.11-30.2-1.2-3.96-6.56-4.41-10.67-5.31-3.49-.76-7.78-1.25-6.2-6.82,4.37-.46,8.14,1.65,12.08,2.91,5.43,1.74,10.33,1.67,14.72-2.48,1.09-1.03,2.46-2.02,3.87-2.43,9.97-2.85,19.11-7.86,28.84-11.18,10.31-3.53,21.16-5.48,31.75-8.19,8.46-2.17,13.92-9.93,13.18-18.55-.21-2.5-1.88-3.84-3.84-5-1.7-1-3.53-1.86-5.01-3.12-2.19-1.86-4.91-4.42-3.76-7.14,1.38-3.27,4.85-1.25,7.58-1.02,5.52.46,10.31,1.91,13.03,7.26Z" style="fill: #fc6567; stroke-width: 0px;"/>
  <path d="M762.2,363.82c.53,5.41-2.58,7.87-7.24,9.44-9.59,3.24-19.47,2.65-29.32,2.61-1.12,0-2.53-.14-2.55-1.42-.01-.89.82-2.13,1.64-2.64,2.4-1.52,4.88-3.02,7.52-4.05,5.78-2.24,9.17-6.37,10.92-12.2,1.42-4.74,4.06-8.7,8.34-11.4,4.59,3.29,5.08,9.07,8.1,13.31,1.09,2.02,2.85,3.78,2.58,6.35Z" style="fill: #febda2; stroke-width: 0px;"/>
  <path d="M631.14,382.51c.6,3.59,2.77,5.14,6.36,5.29,8.22.35,13.26,4.52,15.36,12.6,1.08,4.16,2.23,8.39,5.52,11.69,2.42,2.43,1.6,5.24-.45,7.65-1.84,2.16-3.78,4.23-5.68,6.34-4.83.33-3.49,4.74-4.77,7.37-1.1,2.25-.97,6-3.74,6.21-2.96.22-1.01-4.27-3.22-5.57-1.36-7.93-2.72-15.87-4.08-23.8-1.92-7.15-6.45-13.09-9.26-19.83h0c-3.49-8.17-7.2-16.23-11.98-23.75-1.06-.55-1.24-1.56-1.34-2.61-.45-1.87-3.44-4.1-.73-5.53,3.45-1.82,4.36,2.25,6.16,4.09,3.06,4.87,6.12,9.74,9.19,14.6.38,2.01,1.04,3.87,2.68,5.23Z" style="fill: #f78f89; stroke-width: 0px;"/>
  <path d="M619.28,362.67c-1.65-1.24-3.31-2.49-4.98-3.74-2.57,1.75.38,3.58-.45,5.18-3.75-2.95-5.1-7.95-9.12-10.68-6.35-9.09-15.53-14.58-24.93-19.87-1.85-1.04-5.7-2.29-4.29-4.49,1.52-2.38,4.01-6.04,8.6-3.83,6.51,3.13,13.23,5.82,19.8,8.82,4.94,2.26,2.51,8.92,6.87,11.79,1.5.99,2.19,3.21,3.25,4.86.8,4.4,4.94,7.34,5.25,11.95Z" style="fill: #fc6564; stroke-width: 0px;"/>
  <path d="M627.17,390.47c3.7,6.32,10.19,11.34,9.26,19.83-4.95-5.74-7.43-12.63-9.26-19.83Z" style="fill: #fc6564; stroke-width: 0px;"/>
  <path d="M615.19,366.72c5.97,6.92,9.72,14.96,11.98,23.74-4.84-7.49-8.57-15.53-11.98-23.74Z" style="fill: #fc6564; stroke-width: 0px;"/>
  <path d="M178.96,338.84c-4.07,8.18-3.25,11.18,3.99,14.61,6.18,2.93,4.27,8.45,3.54,12.99-.53,3.29-.63,6.26.26,9.37.27,2.5-.55,5.81,3.88,5.2.39,1.55-.57,2.73-1.13,4.01-7.48-.53-10.44-3.71-9.51-10.6.93-6.9.04-13.05-5.67-17.87-3.09-2.61-3.89-6.33-3.46-10.21.58-5.31-1.87-7.37-6.89-6.8-8.45.97-16.99.03-25.4,2.63-6.64,2.05-13.37-2.74-14.91-9.57-.71-3.13-1.73-6.4-.28-9.66.04-.4.09-.81.14-1.21.84-.49,1.68-.98,2.52-1.47.02.44-.02.89.07,1.31,2.84,13.54,6.71,14.98,17.81,6.66,10.29-7.72,24.35-6.62,32.73,2.61,2.03,2.24,2.55,5.03,2.32,7.99Z" style="fill: #f85358; stroke-width: 0px;"/>
  <path d="M123.37,322.96c-.23,4.28.66,8.39,2.82,12.01,2.98,4.99,7.32,7.65,13.23,5.3,9.2-3.66,18.89-1.56,28.31-2.56,4.4-.46,6.08,2.83,5.02,7.08-1.25,5.02.08,9.35,4.12,12.33,5.06,3.74,6,9.09,4.51,14.09-2.43,8.19,2.09,11.19,8.12,13.82-1.47,3.85-2.99,9.51-7.29,8.72-4.61-.84-4.62-6.66-4.58-11.14.02-2.22.51-4.31.97-6.47,2-9.3-4.63-22.41-13.01-26.04-2.75-1.19-5.53-.75-8.35.17-12.09,3.95-21.73-2.2-31.06-8.24-5.94-3.84-3.77-10.7-4.12-16.48.04-1.07.26-2.05,1.31-2.61Z" style="fill: #e92836; stroke-width: 0px;"/>
  <path d="M409.04,633.73c-15.25,3.09-30.37,7.12-46.12,6.57-3.93-.14-7.73-1.05-10.74-3.93-8.31-5.11-11.39-12.46-11.19-22.24.54-26.66-2.86-53.12-4.96-79.65-1.2-15.15-7.86-26.44-19.22-36.06-14.47-12.25-28.91-24.42-45.07-34.48-7.3-4.55-13.5-10.81-18.68-17.61-6.91-9.06-15.82-16.58-20.79-27.17-3.9-8.31-6.82-16.93-6.05-26.09.77-9.13-1.84-17.88-1.74-26.91.09-7.89,3.34-13.56,9.92-17.34,9.69-5.57,20.52-5.86,31.29-6.21,1.32-.04,2.59.52,3.43,1.69-.63,2.91-3.16,2.69-5.22,3.03-5.22.87-10.46,1.7-15.54,3.13-7.57,2.13-14.5,6.01-15.39,14.43-.9,8.53,4.35,14.4,11.94,18.04,21.64,10.4,42.6,22.15,64.14,32.76,2.37,1.17,4.65,2.55,7.09,3.54,17.4,7.06,25.18,20.37,27.36,38.66,2.41,20.16,2.5,40.39,3.91,60.57,1.3,18.64,2.22,37.31,3.54,55.96.99,14.04,1.45,28.11,2.97,42.12,1.26,11.63,6.83,16.19,18.66,14.42,17.64-2.65,35.19-5.92,52.78-8.91,51.68-8.8,103.36-17.56,154.9-27.15,11.89-2.21,13.81-3.91,15.75-15.9,1.02-6.31,1.69-12.64,1.61-19.06-.25-20.47,1.27-40.96.96-61.38-.5-32.07.81-64.31-4.71-96.16-.34-1.95-.41-3.97-.22-5.93,1.39-14.62-6.25-24.17-17.71-31.52-18.65-11.96-38.97-20.46-59.48-28.54-17.01-6.7-34.37-12.51-51.2-19.64-9.31-3.95-18.64-2.06-28-1.09-33.3,3.48-66.52,7.58-99.37,14.18-15.54,3.13-31.06,6.46-46.35,10.71-2.73.76-5.52,1.86-8.2-.23,0-3.32,2.86-3.64,4.96-4.37,20.6-7.12,41.73-12.03,63.22-15.76,16.18-2.81,32.4-5.2,48.66-7.31,13.24-1.72,26.51-3.3,39.82-4.33,3.74-.29,7.31-1.29,11.07-1.53,11.13-.72,20.37,4.99,30.1,8.65,20.34,7.65,40.87,14.85,60.69,23.85,13.83,6.29,27.6,12.74,40.23,21.21,12.95,8.69,19.1,20.8,21.01,36.77,3.55,29.74,4.49,59.48,5.22,89.36.72,29.71-.51,59.37-.44,89.06.01,4.65-.89,9.48-1.8,14.16-2.22,2.19-3.58,5.24-6.61,6.63-5.18,3.75-11.37,4.75-17.38,5.82-28.1,5.01-56.09,10.58-84.2,15.5-26.43,4.62-52.78,9.7-79.29,13.86-3.16.5-6.47.7-9.54,1.84Z" style="fill: #d8cdcd; stroke-width: 0px;"/>
  <path d="M268.84,344.17c-8.8-.18-17.51.75-26.07,2.63-12.61,2.78-18.93,9.76-17.22,22.28,1.86,13.63.75,27.65,4.99,40.94,2.41,7.55,5.64,14.68,11.5,20.43,7.64,7.51,13.37,16.67,21.25,24.13,10.16,9.62,22.77,15.61,33.42,24.4,11.69,9.65,23.3,19.4,33.58,30.54,5.81,6.29,6.22,14.9,7.18,22.85,2.11,17.37,3.01,34.87,4.42,52.31.92,11.44.99,22.82.9,34.21-.06,7.86,5.38,12.14,9.39,17.47-9.7-3.76-14.52-11.1-14.46-21.25.09-15.17-.05-30.26-3.98-45.08-2.23-8.4-6.21-16.02-11.04-23.01-3.95-5.72-9.78-10.13-13.95-15.74-8.9-11.98-23.67-15.31-34.56-24.35-11.1-9.21-24.31-15.72-34.06-26.76-3.13-3.55-5.55-7.22-7.16-11.65-9.9-27.24-10.14-55.32-8.08-83.74.47-6.45-1.1-13.03-1.07-19.63.03-8.47,4.07-14.03,11.15-17.98,6.85-3.83,14.5-4.66,21.95-6.46,14.68-3.55,29.11-8.17,43.79-11.74,28.49-6.93,57.32-11.98,86.47-15.32,20.18-2.31,40.31-5.03,60.44-7.7,7.94-1.05,15.12,1.06,22.39,3.95,32.64,12.97,66.14,23.86,97.19,40.63,9.47,5.12,18.97,10.12,26.2,18.53,5.79,6.73,9.11,14.3,10.03,23.07,1.63,15.42,3.39,30.83,5.09,46.25.12,1.09.2,2.2.17,3.29-.95,29.92,2.69,59.82,1.11,89.69-.98,18.61.06,37.31-2.47,55.83-.14,1-.83,1.93-1.26,2.89,2.76-44.22,1.3-88.49,1-132.72-.11-16.94.03-34.21-4.6-50.93-1.21-4.37-1.33-9.2-1.42-13.67-.3-15.43-9.87-24.45-21.25-31.86-28.03-18.26-59.42-29.29-90.52-40.87-5.76-2.14-11.81-3.8-17.15-6.73-12.08-6.63-24.69-4.8-37.31-3.37-13.24,1.5-26.41,3.68-39.66,5.02-19.4,1.96-38.54,5.38-57.58,9.42-16.31,3.46-32.44,7.65-48.19,13.18-2.03.71-4.35.84-5.94,2.58-3.95,4.68-8.83,5.96-14.6,4.02Z" style="fill: #d7cec4; stroke-width: 0px;"/>
  <path d="M409.04,633.73c10.31-3.61,21.21-4.45,31.84-6.47,20.77-3.97,41.66-7.32,62.48-11.07,25.96-4.68,51.92-9.38,77.84-14.33,6.19-1.18,12.17-3.4,18.25-5.14-6.08,6.62-14.76,6.15-22.47,7.72-20.56,4.19-41.27,7.68-61.93,11.35-29.06,5.16-58.13,10.23-87.19,15.34-6.24,1.1-12.4,2.81-18.82,2.61Z" style="fill: #d7cec4; stroke-width: 0px;"/>
  <path d="M237.13,334.82c.05-3.07,2.58-3.81,4.68-4.92,11.72-6.22,24.79-8.73,36.99-13.57,15.45-6.12,31.89-7.24,47.85-10.75,2.04-.45,4.33-.73,6.11-2.57-1.31-2.47-3.15-1.89-5.41-1.57-22.31,3.15-44.56,6.59-66.45,12.05-1.26.31-2.62.18-3.94.26,9.61-5.34,20.57-5.44,30.91-7.87,21.91-5.15,44.04-9.23,66.26-12.8,8.24-1.33,16.59-2,25.08-2.26-2.95,3.79-7.51,3.95-11.33,5.57-6.1,2.59-12.49,3.76-17.01,10.06-2.81,3.92-9.61,3.52-14.71,4.55-20.34,4.09-40.9,7.02-61.11,11.82-3.66.87-7,2.25-10.16,4.22-9.11,3.13-18.85,4-27.78,7.79Z" style="fill: #e42635; stroke-width: 0px;"/>
  <path d="M558.52,137.81c6.39-.39,11.61,2.95,17.13,5.36,2.8,4.96-.49,8.59-3.27,11.67-8.36,9.29-17.21,18.13-25.71,27.29-3.75,4.04-9.27,5-13.36,8.25-6.5,5.17-12.75,10.66-18.98,16.16-2.15,1.89-4.1,3.77-7.01,4.65-2.88.87-5.99,3.62-8.57,1.26-2.53-2.31-1.63-6.44-.83-9.43,3.78-14.11,9.92-27.18,18.98-38.72,5.54-7.07,11.38-13.88,18.82-19.14,6.86-4.85,14.53-6.97,22.8-7.35Z" style="fill: #900011; stroke-width: 0px;"/>
  <path d="M338.98,207.82c-.8-1.72-2.41-2.43-4.01-3.15-1.91-.86-3.93-1.2-5.44.48-2,2.24.39,3.42,1.54,4.82,4.71,5.74,11.85,7.92,17.67,12.05,1.56,1.11,4.19,1.81,3.83,3.92-.47,2.73-3.12,3.29-5.69,3.2-5.82-.84-11.41,1.43-17.17,1.27-6.83-1.43-13.66-2.85-20.66-7.52,2.07,2.55,4.28,3.76,4.03,6.06-.41,3.78-4.21,1.03-5.78,2.74-5.72-.36-11.56,1.29-17.17-.98,4.54,0,9.08,0,13.62,0,.09-.34.18-.68.27-1.02-13.5-5.91-26.99-11.82-40.49-17.73,1.99-2.95,4.89-2.37,7.72-1.93,6.73,1.05,13.15,3.27,19.63,5.29-11.27-3.8-22.33-8.32-34.24-9.95-2.26-.31-4.18-1.36-4.68-3.94,1.16-1.01,2.32-2.02,3.48-3.04,20.21,5.91,40.13,12.59,59.06,21.94,4.55,2.25,9.37,3.83,14.37,4.73,2.42.43,5.22.61,6.38-2.04,1.13-2.6-1.45-3.85-3.1-5.15-3.8-2.99-8.19-5.16-11.77-8.46-3.07-2.84-4.88-5.9-1.06-9.47,2.35-2.19,1.85-4.07-.14-6.18-1.44-1.54-3.42-2.95-2.79-5.58,6.65,2.85,11.45,8.27,17.23,12.34,5.31,3.74,10.5,7.64,15.85,11.32,1.55,1.07,2.69,2.15,2.71,4.1-5.98-.14-10.32-2.94-13.2-8.12Z" style="fill: #c8051a; stroke-width: 0px;"/>
  <path d="M307.29,231.69c11.81-5.41-3.35-6.15-.99-10.88,7.62,3.13,15.51,6.37,23.4,9.61-7.47.42-14.94.85-22.41,1.27Z" style="fill: #bb0014; stroke-width: 0px;"/>
  <path d="M344.25,202.7c10.09,5.69,20.16,11.43,30.28,17.06,4.2,2.34,6.79,1.5,6.67-3.84,2.46.78,4.95,1.5,7.38,2.36,2.87,1.02,3.62,2.87,1.93,5.53-3.29.43-3.81,3.98-6.18,5.51-1.84,1.18-3.84,1.64-5.58.73-2.25-1.18-.05-2.48.42-3.73,1.07-2.82-1.06-3.22-2.95-3.94-10.25-3.91-20.03-8.67-28.38-15.95-1.3-1.13-2.4-2.48-3.59-3.73Z" style="fill: #c8051a; stroke-width: 0px;"/>
  <path d="M316.39,188.17c1.45,1.65,2.77,3.43,4.37,4.91,2.96,2.75,5.02,5.1-.2,7.79-3.06,1.58-2.88,3.87-.33,6.3,4.18,3.98,9.52,6.34,13.83,10.04,1.9,1.63,5.85,3.08,3.91,6.59-1.69,3.07-5.14,3.81-8.65,3.17-8.75-1.59-16.73-5.38-24.64-9.14-12.74-6.05-25.81-11.1-39.54-14.32-3.8-.89-6.85-2.68-9.7-5.11,2.1-2.57,5-3.91,7.94-5.18,6.12,4.51,12.9,3.78,19.88,2.83,8.51-1.16,17.12-.26,25.68-.52,1.48-.04,3.51.4,4.12-1.23.7-1.85-.94-3.28-2.21-4.45-2.47-2.28-5.52-2.46-8.67-2.06-8.27,1.03-16.62,1.44-24.74,3.63-2.42.65-5.62,2.29-7.11-1.75,11.81-4.89,23.97-8.2,36.89-8.08,3.06,2.2,6.12,4.4,9.18,6.6Z" style="fill: #fb4c55; stroke-width: 0px;"/>
  <path d="M270.32,189.65c5.59,2.49,10.39-1.68,15.72-1.9,6.07-.26,12.11-1.46,18.17-2.18,6.65-.79,9.61,3.74,12.28,8.65,1.22,2.23-.41,2.82-1.94,3.03-1.94.27-3.94.18-5.92.13-12.05-.26-24.06.22-36.07,1.26-4.09.35-8.15-.19-9.18-5.42,1.9-2,4.45-2.72,6.95-3.56Z" style="fill: #fb7f75; stroke-width: 0px;"/>
  <path d="M251.95,201.42c5.55,3.99,12.5,2.86,18.59,5.13,8.04,2.99,16.43,5.07,23.81,9.74-6.71.81-12.48-2.62-18.73-3.68-4.02-.68-7.97-2.16-12.1-.66-5.64-1.33-11.27-2.66-17.05-4.02,1.14-3.06,3.11-4.95,5.48-6.51Z" style="fill: #bb0014; stroke-width: 0px;"/>
  <path d="M356.09,200.18c-3.67-1.45-6.98-3.42-9.36-6.68,3.95,1.06,7.35,2.9,9.36,6.68Z" style="fill: #bb0014; stroke-width: 0px;"/>
  <path d="M338.98,207.82c4.4,2.71,8.8,5.41,13.2,8.12,3.52,3.89,9.3,4.83,13.47,10.85-11.53-4.82-21.37-9.25-30.31-15.52-.9-.63-1.71-1.55-1.06-2.77,1.22-2.3,3.16-.23,4.7-.67Z" style="fill: #5e0007; stroke-width: 0px;"/>
  <path d="M317.78,180.16c.39.9.77,1.79,1.16,2.69-7.16-3.72-11.79-10.13-17.03-15.9,6.6,2.83,10.13,9.35,15.87,13.21Z" style="fill: #c8051a; stroke-width: 0px;"/>
  <path d="M346.72,263.56c8.37-.02,16.73-.07,25.1-.05,1.92,0,4.03-.53,5.51,1.35-10.21-.35-20.5,1.18-30.61-1.3Z" style="fill: #c8051a; stroke-width: 0px;"/>
  <path d="M192.27,375.96c-4.43,2.22-4.52-.93-3.94-3.61,1.25-5.79,3-11.61,7.07-16.05,4.43-4.83,8.86-9.77,14.43-13.42,1.49-.98,2.85-3.74,4.87-1.55,1.7,1.85-1.17,2.81-1.82,4.24-.36.79-.7,1.59-1.04,2.39-6.48,5.54-10.84,12.92-16.49,19.18-1.4,1.55-2.27,3.72-1.95,6.04-.21.99.02,2.16-1.13,2.77Z" style="fill: #fdc1b5; stroke-width: 0px;"/>
  <path d="M737.02,96.9c12.77-3.76,21.98,3.41,30.79,10.63,4.89,4.01,10.25,6.75,15.91,9.09,6.65,2.75,7.71,4.64,4.71,10.83-4.21,8.7-8.35,17.46-13.96,25.39-1.51,2.14-3.15,4.24-5.03,6.05-7.17,6.94-10.13,6.42-14.6-2.52-1.64-3.29-2.9-6.95-7.21-2.64-.17-.36-.24-.73-.22-1.12.58-4.65-1.89-8.89-1.82-13.94,5.23,2.32,6.32,7.45,8.79,11.52,1.96,3.23,2.39,8.64,7.2,8.43,4.25-.19,6.92-4.16,9.14-7.77,5.58-9.04,6.27-17.66-.46-26.83-5.63-7.66-11.93-14.58-18.72-21.12-4.55-4.38-9.84-5.81-15.89-3.32.46-.89.92-1.79,1.37-2.68Z" style="fill: #e52131; stroke-width: 0px;"/>
  <path d="M732.82,104.59c2.47,1.21,3.73-4.83,6.13-1.34,1.83,2.67.87,6.04-.99,8.61-1.69,2.33-3.16,5.65-7.11,4.28-1.61-.56-3.09-1.49-4.63-2.26,2.2-3.1,4.4-6.2,6.61-9.29Z" style="fill: #fd6363; stroke-width: 0px;"/>
  <path d="M203.94,281.18c-.27,2.21-1.57,3.02-3,3.68-12.81,5.92-24,15.19-39.18,16.16-9.05.58-15.03,8.47-21.78,14.01-2.25,1.85-4.61,6.08-7.34,3.88-3.8-3.07.4-6.43,2.23-9.02,14.96-21.14,37.54-28.33,61.43-32.74,2.85-.53,6.67.24,7.64,4.03Z" style="fill: #fd7c75; stroke-width: 0px;"/>
  <path d="M186.75,375.82c-1.76-2.77-2.47-5.45-1.63-8.98,1.07-4.52,1.48-9.41-2.17-13.38,6.53-.64,7.7.55,6.23,6.96-1.17,5.09-2.48,10.14-2.43,15.41Z" style="fill: #fd525b; stroke-width: 0px;"/>
  <path d="M653.82,413.89c-.07,4.29-7.54,11.94-10.34,11.73-1.94-.15-2.41-1.89-2.59-3.33-.92-7.59-2.47-15.12-1.81-22.84.2-2.34.61-4.4,3.31-4.96,2.93-.6,5.46.42,6.63,3.04,2.49,5.6,3.86,11.57,4.81,16.35Z" style="fill: #fdf3f1; stroke-width: 0px;"/>
  <path d="M268.84,344.17c5.06-.65,9.94-1.91,14.6-4.02,11.73-2.67,23.48-5.24,35.17-8.04,24.92-5.96,50.16-10,75.57-13.13,17.35-2.14,34.69-4.36,52.03-6.51,9.02-1.12,17.27,1.34,25.55,4.78,24.52,10.19,49.88,18.3,74.03,29.46,12.79,5.91,25.49,12.01,36.62,20.69,8.16,6.37,14.02,14.36,13.14,25.73-.69,9.02,1.21,17.9,2.66,26.74,2.01,12.26,1.1,24.57,1.2,36.86.13,16.26,2.68,32.49,1.27,48.73-1.83,21.09-.71,42.2-1.36,63.29-.22,6.94-1.77,13.86-3.86,20.58-1.24,3.98-4.29,5.38-7.88,6.04-21.49,4-42.97,8.06-64.49,11.87-24.32,4.31-48.67,8.4-73.01,12.59-26.7,4.6-53.35,9.56-80.15,13.58-7.9,1.18-17.63-3.5-18.03-15.29-.75-22.5-3.27-44.94-4.89-67.42-.58-8.08-.85-16.23-1.11-24.29-.47-14.26-1.72-28.49-1.92-42.78-.16-11.94-2.36-23.91-4.24-35.77-2.21-13.87-12.32-20.97-23.95-26.79-24.41-12.21-48.57-24.91-73.06-36.96-6.67-3.29-9.88-8.68-11.91-14.98-2.07-6.44,3.41-15.08,10.89-18.35,7.3-3.2,15.12-4.26,22.92-5.29,1.5-.2,3.13.16,4.21-1.32Z" style="fill: #e5e3e4; stroke-width: 0px;"/>
  <path d="M367.86,430.14c-11.09.15-20.01-2.73-26.37-12.39-3.58-5.44-9.24-8.84-15.56-11.62-16.1-7.08-31.74-15.21-47.59-22.86-7.52-3.63-15.14-7.06-22.65-10.72-3.64-1.77-7.06-3.94-6.57-8.84.49-4.89,4.32-6.79,8.18-7.41,33.98-5.44,66.6-17.03,100.54-22.41,23.94-3.79,47.83-8.28,72.11-9.69,5.65-.33,11.24-1.55,16.85-2.42,9.47-1.47,17.69,2.61,25.96,6.05,28.17,11.73,56.31,23.52,84.34,35.59,9.26,3.99,18.53,8.38,23.42,18.19,3.33,6.69,2.15,10.8-5.07,12.51-11.89,2.82-24.01,4.72-36.06,6.84-21.1,3.71-42.22,7.28-63.32,10.95-27.13,4.72-54.25,9.47-81.36,14.27-9.04,1.6-17.93,4.2-26.84,3.95Z" style="fill: #fdfdfd; stroke-width: 0px;"/>
</svg>