<?xml version="1.0" encoding="UTF-8"?>
<svg id="Layer_1" data-name="Layer 1" xmlns="http://www.w3.org/2000/svg" viewBox="0 0 1070.21 1070.86">
  <path d="M401.32,1053.11c-15.11-2.41-29.29-8.02-43.68-12.86-16.11-5.43-31.64-12.34-47.12-19.33-8.94-7.84-19.44-13.32-29.6-19.26-33.92-19.83-65.93-42.23-95.25-68.52-36.85-33.04-68.93-70.14-96.24-111.33-18.12-27.33-33.1-56.43-46.41-86.39-4.15-9.34-9.28-18.19-13.87-27.31-9.97-26.31-16.47-53.54-21.26-81.19-2.57-14.81-5.46-29.61-5.39-44.75,3.16-5.38,3.27-11.43,3.4-17.35.25-12.02-.14-24.05.11-36.07,1.02-48.31,8.05-95.66,21.87-142.06,10.53-35.35,25.61-68.8,41.04-102.14,1.74-3.77,4.35-7.63.26-11.58,6.75-14.81,16.22-27.99,25.33-41.33,6.87-10.06,14.66-19.5,22.04-29.22,8.05-4.15,13.7-10.89,19.77-17.4,16.06-17.23,32.55-34.07,51.18-48.64,5.21-4.08,9.85-8.87,15.42-12.53,25.09-20.65,51.52-39.38,79.8-55.42,5.32-3.01,9.99-6.54,13.13-11.86,21.54-10.73,43.6-20.27,66.35-28.14,2.26-.78,4.48-2,7.04-1.6,10.4.78,20.32-2.11,30.19-4.53,28-6.86,56.36-11.7,85-14.27,31.08-2.79,62.29-2.7,93.47-.57,45.89,3.14,90.42,12.64,133.77,27.9,60.15,21.18,114.72,52.27,163.71,93.01,42.51,35.35,78.05,76.87,107.66,123.51,1.91,3.01,3.76,6.07,5.39,9.24,1.87,6.03,5.58,11.15,8.6,16.57,16.58,29.75,29.14,61.07,37.75,94,.56,2.16.94,4.36,1.47,6.52,2.26,9.11.73,16.45-6.76,23.37-29.43,27.22-57.81,55.56-86.73,83.31-25.21,24.19-49.95,48.86-75.28,72.92-17.11,16.25-34.22,32.51-51.22,48.88-14.1,13.58-28.15,27.23-42.05,41-18.66,18.49-37.72,36.55-56.68,54.71-23.01,22.04-45.54,44.55-68.25,66.89-5.86,5.76-12.11,11.17-18.14,16.77-4.14,3.85-5.09,7.5-3.48,12.94,3.03,10.23.23,16.41-8.55,21.39-1.61-5.49-3.34-10.98-2.8-16.81.59-6.32-2.36-9.4-8.64-9.37-6.51.02-12.74-1.27-18.06-5.41-2.42-9.78-8.9-15.81-17.96-19.48-1.54-2.27-2.18-4.61-.55-7.12,4.42-2.94,6.03-7.26,6.86-12.37,15.82-96.7,31.94-193.36,48.05-290.02.78-4.66,1.96-9.45-4.76-10.8-1.79-3.68-.79-7.35-.13-11.09.86-4.92-1.26-7.45-6-7.04-21.54,1.86-43.12.61-64.68.79-29.36.25-58.72.09-88.08.03-3.49,0-7.18.62-10.25-1.88.13-3.2,2.75-3.04,4.8-3.37,2.86-.46,5.78-.25,8.67-.25,42.75,0,85.5,0,128.24-.04,2.58,0,5.28.62,8.36-1.11-2.74-1.61-5.33-1.3-7.79-1.3-45.64-.04-91.28-.08-136.93.05-5.12.01-11.07-1.05-13.64,5.57-.63,4.58-3.53,5.57-7.67,5.06-6.84-.85-8.27.76-7.27,7.47.58,3.95,1.24,8.06-4.16,9.45-3.82-.52-3.72,2.39-4.01,4.74-2.2,17.63,11.42,34.32,29.2,35.85,16.87,1.46,18.49,3.46,15.73,19.69-13.21,77.57-26.8,155.07-40.21,232.6-4.95,28.63-3.01,56.87,9,83.84,7.97,20.67,24.29,32.47,43.84,40.43,13.54,5.51,27.83,7.87,42.49,7.8,1.12,0,2.24-.03,3.34.15,2.62.43,5.87.43,6.85,3.26.9,2.61-1.74,4.36-3.41,6.07-22.98,23.67-47.03,46.23-71.05,68.83-9.7,9.13-18.74,18.95-28.36,28.21-16.71,16.07-33.7,31.84-50.26,48.07-2.62,2.57-2.27,3.86.51,5.48,6.16,3.59,12.84,6.27,18.53,10.68,2.03,1.57,4.86,2.64,4.39,6.06Z" style="fill: #e6c559; stroke-width: 0px;"/>
  <path d="M619.72,820.39c.63-1.62.79-4.03,1.97-4.73,8.77-5.19,5.77-12.5,3.59-19.44-1.14-3.64-.74-6.04,2.15-8.69,23.33-21.35,45.06-44.36,67.88-66.23,21.36-20.46,42.71-40.93,64.1-61.37,15.54-14.84,31.23-29.59,46.41-44.74,10.68-10.66,21.69-20.99,32.45-31.56,14.58-14.33,29.96-27.86,44.32-42.4,4.92-4.98,9.76-10.24,14.74-15.1,28.96-28.31,58.62-55.89,87.15-84.65,13.45-13.56,27.25-26.88,41.96-39.03,10.08-8.33,10.31-17.52,7.4-28.46-9.82-36.94-24.01-72.04-43.62-104.91-1.23-2.06-1.87-4.47-2.78-6.72,4.19-.35,4.9,3.37,6.34,5.82,14.49,24.64,26.38,50.52,36.76,77.12,4.13,10.6,7.43,21.47,11.15,32.2.27.63.47,1.28.63,1.95.54,3.46,1.77,6.7,3.07,9.93,8.69,31.41,15.4,63.17,17.82,95.77,1.4,18.88,2.97,37.73,2.46,56.68-1.04,38.39-5.45,76.36-13.87,113.87-4.1,18.27-9.58,36.18-13.49,54.49-.51,2.39-1.48,4.71-.16,7.11-10.03,28.98-22.54,56.8-38.87,82.82-5.99,3.45-9.66,8.97-13.27,14.61-27.41,42.85-61.36,80.22-97.66,115.51-13.07,12.7-27.35,24.18-41.9,35.22-5.21,3.96-9.57,8.55-13.17,13.94-24.68,16.8-50.51,31.58-77.79,43.76-1.59.71-3.28,1.19-4.92,1.78-3.95-2.87-7.77-.51-11.41.59-16.84,5.09-33.19,11.65-50.09,16.66-36.87,10.92-74.33,18.32-112.71,21.16-20.87,1.55-41.73,2.81-62.67,2.57-4.65-.05-9.36.16-13.31,3.24-17.4-.16-34.57-2.83-51.66-5.61-15.96-2.59-31.93-5.44-47.39-10.44-3.62-4.76-9.03-7.07-13.9-10.1-2.64-1.64-5.59-2.76-8.33-4.26-7.8-4.29-7.77-4.3-1.26-9.62,1.2-.98,2.23-2.18,3.35-3.27,15.8-15.36,31.6-30.71,47.4-46.07,16.18-15.73,32.01-31.84,48.63-47.09,16.71-15.33,32.55-31.49,48.59-47.47,1.55-1.54,3-3.17,4.65-4.93-3.11-2.32-6.34-2.37-9.63-2.39-26.61-.15-51.01-7.02-71.22-25-7.07-6.29-13.47-13.58-16.21-23.16,3.24-.59,4.14,2.1,5.36,4.05,15.91,25.31,40.11,35.32,68.67,36.93,12.69.72,25.38.22,37.54-4.1,2.89-1.02,6.85-1.13,7.28-5.58,9-5.11,19.16-6.82,28.85-9.9,1.59-.09,3.18.18,4.42,1.14,3.73,2.89,7.44,2.07,11.25.27,4.41-2.08,8.8-4.23,13.14-6.45,8.51-4.36,9-5.67,5.71-14.32.82-4,1.26-8.14,4.1-11.42Z" style="fill: #c29831; stroke-width: 0px;"/>
  <path d="M1040.97,378.78c-6.43-15.03-10.87-30.78-17.18-45.87-9.85-23.54-21.11-46.34-33.97-68.36-.52-.89-1.58-1.47-2.38-2.2-15.72-25.88-33.23-50.51-53.05-73.38-14.57-16.81-30.21-32.61-46.77-47.56-20.54-18.54-42.47-35.12-65.67-50.06-54.02-34.78-112.44-59.13-175.33-72.43-22.56-4.77-45.36-7.89-68.4-9.72-24.49-1.94-48.97-1.43-73.41-.81-20.79.53-41.43,3.84-62.03,6.95-22.37,3.38-44.05,10.01-66.41,13.43-3.01.46-5.17.28-7.12-1.95,22.96-8.52,46.77-13.9,70.76-18.32C472.92,2.44,506.19-.49,539.69.07c133.16,2.21,250.17,46.79,350.34,134.65,57.74,50.64,101.93,111.49,133.58,181.45.54,1.19.82,2.5,1.22,3.76-.45,5.1,2.28,9.35,4.01,13.77,4.76,12.13,8.49,24.58,12.38,36.99.84,2.67,2.16,5.47-.25,8.1Z" style="fill: #bd8711; stroke-width: 0px;"/>
  <path d="M29.15,708.1c7.75,8.26,11.57,18.75,16.16,28.77,19.22,41.95,41.61,81.96,70.19,118.41,18.98,24.21,39.39,47.07,61.77,68.11,31.7,29.81,66.74,55.18,104.48,76.84,7.89,4.53,15.56,9.47,23.29,14.28,2.48,1.54,4.75,3.35,5.49,6.41-20.64-8.88-40.06-20.02-59.1-31.87-35.04-21.8-66.85-47.57-95.41-77.36-43.74-45.62-81.68-95.34-107.57-153.44-6.68-14.99-12.55-30.34-18.69-45.57-.56-1.38-.42-3.05-.61-4.58Z" style="fill: #f8eab3; stroke-width: 0px;"/>
  <path d="M69.18,272.96c4.14-1.52,5.87-.96,4.52,4.11-1.9,7.16-5.28,13.68-8.48,20.21-17.72,36.24-32.16,73.75-41.95,112.85-6.45,25.76-10.48,52.02-13.03,78.57-2.43,25.32-2.35,50.6-2.31,75.92,0,4.74-1.48,9.19-1.53,13.86-.02,2.38-1.57,3.55-3.91,3.67-2.22-21.08-2.95-42.21-2.25-63.38,1.44-43.52,7.71-86.31,19.6-128.22,11.68-41.19,27.64-80.59,49.33-117.59Z" style="fill: #c08c15; stroke-width: 0px;"/>
  <path d="M1040.97,378.78c-2.41-13.92-7.77-26.95-12.02-40.32-1.91-6.02-6.5-11.53-4.13-18.53,6.74,14.5,12.04,29.55,17.39,44.59,5.9,16.62,10.34,33.71,14.38,50.83,5.27,22.38,9.1,45.08,11.19,68.05,2.62,28.7,3.19,57.39,1.41,86.14-2.36,38.09-8.88,75.49-19.23,112.19-3.39,12.01-7.84,23.72-11.81,35.57-3.04-1.67-2.44-4.08-1.83-6.91,5.22-24.47,12.99-48.33,17.24-73.02,3.19-18.52,6.08-37.06,7.7-55.83,1.7-19.71,3.09-39.41,2.35-59.15-1.29-34.09-4.2-68.02-12.24-101.32-2.65-10.96-5.15-21.96-7.71-32.94-1.11-3.06-1.47-6.33-2.68-9.36h0Z" style="fill: #a46d0c; stroke-width: 0px;"/>
  <path d="M500.37,1069.15c.16-6.02,5.4-4.47,8.44-4.95,5-.79,10.2-.2,15.32-.25,56.97-.57,113.05-7.19,167.51-24.73,17.93-5.78,35.81-11.74,53.79-17.36,1.91-.6,7.14-4.01,5.13,3.08-40.07,17.66-81.47,30.83-124.81,37.81-21.54,3.47-43.07,6.56-64.93,6.77-16.69.68-33.37.78-50.06-.04-3.46-.11-6.93-.22-10.39-.33Z" style="fill: #a26d0f; stroke-width: 0px;"/>
  <path d="M833.28,979.4c1.1-8.98,8.82-12.59,14.75-17.2,55.2-42.88,101.45-93.88,139.42-152.48,2.91-4.5,5.48-9.37,11.84-9.61-3.11,10.38-10.29,18.47-15.88,27.4-5.98,9.56-13.13,18.38-19.57,27.66-3.07,4.42-8.47,5.71-11.89,9.48-16.73,18.38-34.7,35.84-49.71,55.54-18.96,24.88-44.04,41.75-68.95,59.21Z" style="fill: #e4d4a7; stroke-width: 0px;"/>
  <path d="M203.23,124.33c-22.41,18.19-43.22,38.1-63.24,58.85-4.45,4.62-8.71,9.42-12.99,14.21-2.81,3.15-6.21,4.94-10.45,5.02,3.81-7.13,9.76-12.62,14.97-18.58,8.92-10.21,18.54-19.83,28.06-29.51,5.36-5.45,12.88-7.71,18.98-12.23,8.35-6.2,15.43-14.02,24.58-19.18.41.29.56.6.45.92-.11.33-.23.5-.36.5Z" style="fill: #f5e7ac; stroke-width: 0px;"/>
  <path d="M203.23,124.33c-.03-.47-.06-.94-.09-1.42,5.83-6.49,12.93-11.61,20.15-16.14,11.43-7.18,18.11-19.36,29.78-26.21,14.11-8.29,27.9-17.1,42.79-23.99.12,4.59-2.57,7.2-6.22,9.41-18.19,11.04-36.55,21.83-53.86,34.24-10.97,7.87-21.71,16.06-32.55,24.11Z" style="fill: #f5e6aa; stroke-width: 0px;"/>
  <path d="M510.77,1069.48c16.69.01,33.37.03,50.06.04-16.69,1.73-33.38,1.86-50.06-.04Z" style="fill: #c29831; stroke-width: 0px;"/>
  <path d="M581.94,852.52c-9.87,3.09-19.75,6.17-29.62,9.26-4.76,4.59-11.12,4.33-16.91,4.98-18.02,2.02-36.09,2.47-53.64-3.15-28.58-9.14-44.73-29.49-51.55-58.07-5.86-24.56-4.17-48.96.23-73.59,11.87-66.48,22.87-133.11,34.3-199.66,1.47-8.57,3.2-17.09,4.49-25.69,1.77-11.79-2.53-17.32-14.69-17.37-9.31-.03-16.97-2.94-23.2-9.81-7.51-8.27-9.97-20.28-5.69-28.16,1.67-3.53,3.78-6.91.6-10.86-2.07-2.58.1-4.48,1.84-6.16,1.85-1.79,3.77-4.48,6.67-2.24,3.25,2.51,5.63.97,8.17-.89,2.67-2.86,5.66-3.9,9.24-1.63,52.41.03,104.82.06,157.23.1,1.78,0,3.56.12,5.08-1.14,2.89-2.38,5.08-.36,6.96,1.47,2.04,2,4.5,4.52,2.47,7.54-2.68,3.98-1.51,8.14-1.61,12.27,2.18,2.58,1.27,5.48.79,8.3-11.6,68.03-22.94,136.1-34.51,204.14-4.93,28.97-9.75,57.95-14.68,86.92-.77,4.54.42,9.46-2.39,13.64-.91,2.46.88,4.41,1.24,6.63,5.31,6.71,10.7,13.34,17.45,18.71,6.31,1.8,11.97,6.41,19.32,3.54,2.76-1.08,10.82,6.91,9.47,9.51-3.52,6.81,1.97,12.84.72,19.27-.06,4.23-1.73,8.05-3.03,11.97-.61,1.31-.19,2.5.13,3.83,1.39,5.78-1.07,8.68-6.89,7.54-3.42-.67-6.04.36-8.87,1.71-6.15,2.93-12.27,5.99-19.11,7.07Z" style="fill: #fefefe; stroke-width: 0px;"/>
  <path d="M642.36,247.74c3.58,11.34,2.75,23.03,2.73,34.66,1.67,9.57-1.04,17.94-6.92,25.45-2.26,3.99-4.53,7.97-6.79,11.96-5.31,7.27-5.85,17.15-12.72,23.53-3.92,3.64-7.81,7.01-14.14,5.26-4.16-1.15-7.56,3.53-11.98,3.15-4.41,1.42-8.82,2.85-13.24,4.27-9.39,5.19-19.64,3.88-29.36,2.63-38.4-4.94-68.17-33.57-74.66-71.59-2.1-12.32-1.68-24.85,1.5-37.12.63-2.42,1.45-4.68,3.46-6.31,2.25-4.74,4.52-9.47,6.74-14.23.36-.77.94-1.95.63-2.43-5.18-8.01,2.05-11.73,5.98-16.03,4.1-4.48,7.76-9.04,15.94-8.58,5.67.32,11.68-5.32,17.53-8.3,1.07-1.87,2.92-2.64,4.79-3.32,9.64-3.52,19.62-5.11,29.85-5.21,2.39-.02,4.93-.13,6.69,2.06,7.64,1.73,15.28,3.47,22.92,5.2,15.47,3.49,26.78,13.35,36.66,24.89,5.76,6.73,9.86,14.73,13.22,23.01.91,2.26,2.01,4.5,1.18,7.05Z" style="fill: #fefefe; stroke-width: 0px;"/>
  <path d="M425.67,451.27c-1.43,17.66,4.44,29.08,17.65,34.51,4.46,1.83,9.14,1.75,13.81,1.9,11.66.35,16.24,6.47,14.26,17.77-6.97,39.85-13.65,79.75-20.48,119.62-5.14,30.01-10.47,59.99-15.47,90.02-3.25,19.5-7.91,38.87-7.26,58.84.48,14.5,2.19,28.87,7.24,42.6,10.84,29.49,36.41,47.85,68.25,49.27,16.4.73,32.65-.16,48.66-4.01.87.36,2.66.27,1.57,1.88-1.25,1.82-2.97,3.12-5.29,3.77-36.21,10.21-70.15,7.44-99.85-17.92-4.81-4.11-8.52-9.57-11.71-15.19-.97-1.71-1.51-3.77-3.65-4.55-11.83-24.18-14.93-49.95-10.8-76.04,9.75-61.53,20.61-122.88,31.08-184.29,3.72-21.85,7.57-43.69,11.45-65.52.99-5.55-.87-8.34-6.69-8.97-9.89-1.06-19.72-1.84-27.94-9.06-8.4-7.38-14.53-23.55-11.4-33.83.56-1.85,1.1-4.18,3.49-4.43,2.39-.25,2.57,1.98,3.09,3.64Z" style="fill: #bf8913; stroke-width: 0px;"/>
  <path d="M571.52,762.73c-1.46-12.21,2.35-23.83,4.22-35.63,4.87-30.72,10.25-61.35,15.44-92.01,5.16-30.44,10.37-60.88,15.48-91.33,5.26-31.33,10.43-62.68,15.65-94.02,1.34-.92,1.88-3.35,4.26-2.29,2.26,1.01,2.52,3.09,2.23,5.1-1.45,10.09-2.92,20.18-4.59,30.23-5.55,33.45-11.19,66.89-16.79,100.33-4.32,25.78-8.68,51.56-12.92,77.35-5.11,31.03-10.21,62.06-15.1,93.13-.79,5.02-2.54,8.42-7.88,9.14Z" style="fill: #bc8614; stroke-width: 0px;"/>
  <path d="M480.23,243.63c-6.57,23.07-6.18,45.58,4.79,67.47,15.98,31.87,52.35,50.92,87.64,45.66,2.2-.33,4.42-.5,6.63-.74,3.13,3,2.72,4.58-1.92,6.15-8.87,3-18.12,2.5-27.13,1.66-34.98-3.26-67.05-30.01-77.27-63.84-5.05-16.71-6.17-33.46-.8-50.35,1.3-4.1,3.33-6.75,8.07-6.01Z" style="fill: #c08a12; stroke-width: 0px;"/>
  <path d="M452.19,429.49c-3.08.54-6.16,1.08-9.24,1.63-2.92-3.9-1.81-6.52,2.59-8.06,2.96-1.04,5.99-1.5,9.16-1.49,47.95.07,95.91.07,143.86.09,1.56,0,3.17-.12,4.65.24,2.04.5,3.86,1.83,3.81,4.08-.07,3.14-2.79,2.23-4.58,2.29-4.01.14-8.03.06-12.04.06-43.49,0-86.98,0-130.48.06-2.59,0-5.38-.83-7.73,1.09Z" style="fill: #cb9a24; stroke-width: 0px;"/>
  <path d="M642.36,247.74c-5.66-13.76-11.9-27.13-23.26-37.35-8.28-7.45-18-12.57-27.8-17.6,11.91-5.22,19.98,3.03,27.87,9.03,11.37,8.65,20.18,19.86,24.83,33.7,1.38,4.1,2.52,8.64-1.64,12.22Z" style="fill: #f9ebad; stroke-width: 0px;"/>
  <path d="M568.38,187.59c-14.23-.73-27.99,1.53-41.33,6.47-3.53-3.37-2-6.4,1.46-7.87,12.56-5.34,25.61-8.06,39.32-5.36,2.37.46,4.25,1.82,4.45,4.27.22,2.74-2.5,1.78-3.91,2.49Z" style="fill: #c7951e; stroke-width: 0px;"/>
  <path d="M638.16,307.85c2.79-8.35,5.81-16.64,6.92-25.45,2.16-3.47.84-7.35,1.32-11.02.17-1.27-.18-2.89,1.5-3.3,1.82-.45,2.86.84,3.59,2.28.5.98,1.14,2.03,1.18,3.07.47,12.15-1.7,23.76-7.89,34.35-1.77,3.02-4.38,4.81-6.63.07Z" style="fill: #c9961f; stroke-width: 0px;"/>
  <path d="M592.53,351.75c5.03-2.67,9.35-6.86,16.17-4.04,3.37,1.39,14.32-8.23,14.13-12.47-.33-7.23,5.14-10.63,8.55-15.43,3.15,3.91,2.32,7.63-.23,11.51-7.18,10.91-17.16,18.34-28.79,23.92-4.75,2.28-6.81-1.62-9.81-3.49Z" style="fill: #fae9a5; stroke-width: 0px;"/>
  <path d="M590.21,788.07c-8.62-3.62-14.08-10.19-17.45-18.71,8.35.5,18.55,11.43,17.45,18.71Z" style="fill: #f1e2b2; stroke-width: 0px;"/>
  <path d="M581.94,852.52c7.78-3.6,15.6-7.12,23.32-10.84,1.92-.93,3.23-.67,4.78.6,1.66,1.36,3.28.82,4.75-.55,1.46-1.37,2.17-2.76.65-4.58-1.79-2.14-.76-3.61,1.25-4.79,4.48,5.71,3.99,9.69-2.37,13.26-6.18,3.48-12.93,5.97-19.05,9.54-5.58,3.25-9.01-1.26-13.33-2.64Z" style="fill: #e3ca7b; stroke-width: 0px;"/>
  <path d="M1040.97,378.78c2.3,2.72,2.79,5.96,2.68,9.36-2.23-2.74-2.75-5.96-2.68-9.36Z" style="fill: #bd8711; stroke-width: 0px;"/>
</svg>