<?xml version="1.0" encoding="UTF-8"?>
<svg id="Layer_1" data-name="Layer 1" xmlns="http://www.w3.org/2000/svg" viewBox="0 0 1269.02 897.06">
  <path d="M991.49,541.95c-29.22,29.37-58.36,58.82-87.67,88.09-85.84,85.71-171.76,171.34-257.66,256.99-2.23,2.22-4.67,4.22-7.02,6.33-2.95-3.6-.34-6.54,1.39-9.3,4.2-6.73,8.15-13.64,12.67-20.14,9.03-12.99,7.12-24.23-4.37-39.03-4.03-5.19-6.97-10.24-8.52-16.57-4.27-17.37-4.13-35.17-5.03-52.78-2.04-39.59-2.23-79.24-1.87-118.89.03-3.66.4-7.37-.78-12.03,0,0-1,1.29-.03.86.22-.1.39.14.37.7-.89,19.62-3.73,25.01-23.67,27.5-11.26,1.41-22.52,3.03-33.61,5.34-7.43,1.55-13.58,6.81-20.77,9.53-5.42,2.05-10.75,3.28-16.22,1.88-6.58-1.69-12.82-.94-18.43,2.24-11.56,6.55-23.59,6.79-36.12,4.23-5.16-1.06-10.42-2.16-15.6.08-4.37.71-5.44-2.44-6.51-5.57,1.1-2.87-.48-4.01-2.99-4.54-7.34-6.22-12.42-14.27-17.89-22-1.27-1.78-2.83-3.31-4.27-4.95-.51-.58-.95-1.21-1.36-1.86-1.3-2.45-3.35-4.75-1.69-7.84,2.71-3.38,6.26-2.18,9.56-1.59,8.31,1.5,16.86,1.9,25.13,2.08,10.96.24,22.15-.62,33.11-2.91,24.55-5.14,49.54-8.67,73.51-15.95,14.9-4.52,29.55-9.65,44.91-12.51,5.46-1.02,7.27-5.6,8.39-10.47,2.4-10.44,1.9-21.04,1.76-31.62.16-6.4-.44-12.82.52-19.19.22-.86.62-1.64,1.17-2.34,4.69-1.23,5.21,2.25,5.66,5.33.58,3.92.36,7.92.3,11.88-.51,34.89.82,69.64,4.58,104.39,1.99,18.41,12.3,32.14,20.43,47.39,13.75,25.8,32.26,48.88,43.31,76.24,3.16,7.82,4.63,15.01.49,20.23,4.7-6.91,11.4-15.3,17.71-23.97,3.86-4.22,7.52-8.6,10.4-13.58,9.79-12.5,19.84-24.8,28.58-38.09,9.44-10.86,17.28-22.96,26.42-34.06,3.41-4.48,5.83-9.82,10.92-12.88,1.44-.65,3.21-.64,4.43-1.64,15.47-12.67,32.86-22.83,47.29-36.93,8.84-8.64,19.62-15.08,29.33-22.77,18.76-14.86,37.9-29.25,56.51-44.33,11.4-9.24,22.15-19.56,35.11-26.83,3.85-2.16,5.96-5.9,8.9-8.88,2.11-2.13,4.78-3.7,7.82-2.02,2.8,1.55,3.13,4.03,1.44,6.75Z" style="fill: #492d12; stroke-width: 0px;"/>
  <path d="M467.4,676.7c.53-3.46,2.67-3.97,5.76-3.51,7.01,1.04,14.12,1.49,21.05,2.85,7.4,1.45,14.08-.38,20.57-3.32,7.88-3.56,15.12-7.33,24.65-4.33,9.67,3.05,19.02-2.35,26.36-7.51,8.78-6.17,18.54-4.71,27.65-7.3,8.63-2.45,17.93-1.71,26.74-4.52,6.38-2.04,8.63-5.76,9.32-11.91.61-5.41,2.23-10.7,3.59-16.9,2.02,5.31,2.67,9.82,2.64,14.57-.13,16.4.35,32.8-.12,49.19-.73,25.1,1.36,50.12,2.12,75.16.54,17.69.63,35.75,5.74,53.16,1.11,3.78,2.82,6.57,5.47,9.22,7.73,7.72,12.18,16.95,12.16,28.03-.02,10.88-8.67,17.68-12.82,26.61-2.73,5.88-8.8,9.99-9.13,17.16-2.89,4.61-6.08,4.98-9.69.77-1.66-1.94-3.45-3.76-5.18-5.64-13-17.28-26.07-34.51-39.03-51.83-28.34-37.87-56.92-75.56-85.13-113.52-1.58-2.13-3.51-3.95-5.09-6.07-7.52-10.46-15.3-20.72-23.2-30.9-2.14-2.76-5.51-5.12-4.41-9.46Z" style="fill: #2f1804; stroke-width: 0px;"/>
  <path d="M227.42,492.63c-15.95-15.75-31.81-31.59-47.87-47.21-17.58-17.09-33.95-35.41-52.67-51.33-2.16-1.84-4.58-3.64-5.54-6.57-2.73-6.73-2.81-13.8-2.59-20.9.63-21.02-1.44-42.1,1.41-63.07,1.38-10.17,5.29-13.68,15.71-13.08,8.95.51,17.61,3.05,26.38,4.73,7.29,2.25,14.62,2.91,22.08.63,5.66-1.72,7.21.7,5.7,5.94-.56,1.51-1.39,3-.54,4.7.53.86,1.11,1.67,1.68,2.49,18.85,24.96,37.71,49.9,56.6,74.82,17.61,24.17,36.28,47.54,54.1,71.57,3.4,4.94,7.29,9.52,10.69,14.45,1.71,2.48,4.2,4.88,2.53,8.45-5.5,3.41-11.81,1.53-17.69,2.71-19.37,3.89-38.71,7.9-58.21,11.13-3.92.65-7.78,1.35-11.74.54Z" style="fill: #f6e8c9; stroke-width: 0px;"/>
  <path d="M991.49,541.95c-.14-2.36.16-5.26-2.79-5.87-2.41-.5-4.46,1.15-6.11,2.98-10.71,11.91-24.56,20.01-36.67,30.22-7.98,6.72-17.21,11.9-23.89,20.21-3.88,4.83-10.09,6.56-14.86,10.3-16.33,12.78-32.28,26.08-49.61,37.55-4.83,3.2-7.25,8.67-12.22,12.13-12.48,8.68-24.23,18.42-36.3,27.69-2.34,1.8-4.97,3-8.05,2.82-1.27-3.7,1.48-5.93,3.36-8.23,6.51-7.98,12.46-16.39,18.66-24.6,7.69-10.82,16.23-20.99,23.88-31.84,9.02-13.07,19.43-25.09,28.56-38.08,8.64-13.41,19.93-24.82,28.71-38.13,1.16-1.6,2.6-2.85,4.47-3.55,5.94-1.89,10.49-5.57,14.95-9.95,9.42-9.24,20.61-16.39,30.9-24.62,15.86-12.69,33.36-23.2,48.52-36.9,13.92-12.59,30.27-22.15,44.43-34.51,18.13-15.83,37.65-29.94,56.62-44.71,16.26-12.66,32.79-24.99,49.21-37.45,17.68-13.41,35.32-26.81,51.96-41.58,12.79-11.36,26.09-22.38,41.32-30.62,2.58-1.39,5.16-2.83,8.13-2.92,2.02-.06,4.48-.1,3.84,3.24-1.95,2.13-3.83,4.34-5.87,6.38-86.21,86.07-172.43,172.13-258.66,258.18-.73.72-1.65,1.25-2.48,1.86Z" style="fill: #573715; stroke-width: 0px;"/>
  <path d="M.54,266.99c-2.4-6,3.84-6.61,6.07-9.73,7.33-.3,13.14-4.08,18.13-8.84,6.34-6.06,13.18-11.29,20.54-16.05,17.76-11.48,33.23-26,50.28-38.43,13.01-9.49,26.5-18.32,39.26-28.16,32.18-24.82,65.39-48.26,97.62-73.02,15.49-11.89,32.11-22.27,47.65-34.15,7.46-5.71,16.56-6.47,25.69-6.44,17.38,2.66,34.45,7.73,52.33,6.27,2.31-.19,4.77.32,6.24,2.62-.82,3.55-4.04,3.45-6.25,3.07-12.49-2.18-20.29,3.8-25.86,14.07-39.35,33.4-83.7,59.78-125.76,89.39-24.83,17.49-49.8,34.78-74.83,51.98-27.4,18.83-54.29,38.43-83.09,55.17-4.01,1.21-7.87-.08-11.69-.91-12.05-2.62-24.19-4.73-36.33-6.85Z" style="fill: #ab8034; stroke-width: 0px;"/>
  <path d="M1258.51,275.53c-3.51-4.22-7.07-.9-9.78.64-16.78,9.51-31.73,21.61-45.93,34.54-13.84,12.6-29,23.51-43.66,35.04-13.22,10.39-26.55,20.69-40.08,30.64-18.43,13.55-36.99,27.01-54.33,41.79-23.23,19.8-48.82,36.51-71.52,57.03-12.58,11.37-28.37,19.15-41.15,30.35-9.84,8.62-22.24,13.97-30.29,24.97-2.58,3.52-7.54,6.58-13,6.49-2.03-3.04.37-4.93,1.92-6.9,29.9-38.26,58.57-77.46,88.26-115.88,1.79-2.31,3.53-4.64,6.46-5.62,2.54-.7,5.19-1.1,7.26-2.96,31.16-27.97,66.76-50.05,100.04-75.2,20.42-15.43,40.42-31.46,61.61-45.88,4.02-2.37,8.79-1.67,13.01-3.27,15.06-3.44,30.05-7.19,45.23-10.13,8.42-1.85,16.92-3.32,25.32-5.3,3.14-.74,6.84-2.01,8.46,2.65-2.6,2.34-5.21,4.68-7.81,7.02Z" style="fill: #6f491c; stroke-width: 0px;"/>
  <path d="M1232.75,273.21c-15.29,3.3-30.58,6.61-45.87,9.91-8.65-.82-16.59,3.78-25.67,2.29-7.96-1.31-15.46-2.97-22.47-6.82-32.14-17.66-63.85-36.07-95.5-54.59-11.8-6.9-20.7-17.06-29.57-27.2-2.94-3.36-5.29-7.25-8.99-9.91-10.41-11.24-16.96-25.12-25.57-37.6-4.9-7.1-9.4-14.51-14.31-21.63-12.41-18.53-24.14-37.5-36.12-56.3-3.65-5.72-7.78-8.1-14.24-6.88-14.95-.75-29.77,1.83-44.68,1.72-3.39-.03-6.82.23-10.09-.98-3.99-3.48-.43-4.2,1.98-4.66,4.96-.94,10.01-.49,15.71-.31-17.47-2.33-31.94-11.03-47.39-17.04-21.43-8.34-42.22-18.23-63.62-26.68-4.12-1.63-11.01-2.46-9.53-8.45,1.39-5.6,7.93-3.52,12.5-3.74.5-.02.98.3,1.42.61,11.62.06,23.24.13,34.87.19,4.67,1.87,9.74-.48,14.41,1.35,12.69.88,25.52-1.54,38.11,1.62,8.91,4.53,18.42,7.46,27.92,10.38,22.44,6.91,44.6,14.65,66.78,22.3,12.55,4.33,24.91,6.4,38.01,3.37,3.91-.9,8.22-2.92,11.89.95.23.93-.06,1.65-.85,2.18-17.4,5.64-35.5,8.28-53.28,12.26-22.03,4.31-18.67,1.94-8.47,18.23,6.29,10.05,13.25,19.66,19.65,29.64,7.34,12.26,14.94,24.43,23.73,35.61,7.5,9.52,17.55,16.68,27.98,23.09,51.14,31.39,103.05,61.47,154.92,91.61,4.11,2.38,8.06,5.01,12.13,7.44,15.6,9.33,31.81,10.3,48.78,4.95.8-.09,1.6-.06,2.4.05,1.54.47,3.28.76,3.02,3.02Z" style="fill: #ecd99f; stroke-width: 0px;"/>
  <path d="M770.75,4.96c-4.6.37-11.81-1.25-12.59,3.53-.79,4.82,6.67,5.03,10.78,6.76,26.62,11.24,53.43,22.08,79.84,33.79,11.3,5.01,23.14,7.88,37.18,11.59-10.68,3.22-19.73-.56-27.97,2.86-2.75,3.33-6.61,2.39-10.11,2.47-6.46.16-12.92.05-19.38.07-7.67.33-15.43-1-23.02,1.08-10.66.58-21.29,1.54-31.95,2.16-25.55-.08-51.04,2.91-76.6,1.68-5.53-.47-11.09-.58-16.63-.33-9.35.43-17.05-3.15-23.67-9.33-18.17-16.95-37.84-32.18-55.93-49.22-5.05-4.76-11.25-7.58-17.49-10.33,2.2-2.15,4.99-1.41,7.55-1.41,28.24-.06,56.5-.83,84.7.17,30.32,1.08,60.61,2.8,90.95,2.99,1.61.01,3.18.14,4.35,1.46Z" style="fill: #f3e7ba; stroke-width: 0px;"/>
  <path d="M947.09,57.6c16.22-3.45,32.45-6.83,48.63-10.43,2.33-.52,4.55-.97,6.91-.7,13.25,17.08,30.2,30.17,47.41,42.76,45.33,33.17,92.45,63.76,139.05,95.09.67.45,1.41.68,2.22.68,26.15,25.59,51.74,51.71,76.26,78.88-1.12,1.47-2.74,1.51-4.36,1.54-5.54.27-10.27-1.95-14.89-4.68-39.8-23.56-78.85-48.35-118.39-72.34-35.49-21.53-70.34-44.05-105.25-66.46-26.01-16.7-50.97-35-75.14-54.3-3.19-2.55-5.95-5.64-2.46-10.03Z" style="fill: #c39b4b; stroke-width: 0px;"/>
  <path d="M364.23,61.9c-.46-.25-.92-.74-1.37-.73-20.02.52-39.52-3.26-59.03-6.96-23.08-1.79-45.3-8.33-67.94-12.53-4.26-.79-9.86-.16-11.44-6.27,24.72-5.32,49.69-9.65,74.09-16.16,51.19-13.64,103.59-10.39,155.59-12.9,6.79-1.11,13.63-.15,20.43-.56,4.18-.25,5.17,2.17,6.1,5.59,4.3,15.95,3.58,32.74,8.26,48.64,1.33,4.53-1.16,6.94-5.68,7.38-2.36.22-4.73.13-7.09.44-34.72.37-69.35-2.03-104.02-3.22-2.87-.1-5.86-.1-7.9-2.72Z" style="fill: #402a17; stroke-width: 0px;"/>
  <path d="M224.46,35.41c8.9,5.72,19.5,4.96,29.22,7.58,16.54,4.47,33.78,5.91,50.15,11.23-9.76-.14-18.75,2.07-26.41,8.51-17.57,14.77-38.18,25.43-55.47,40.5-16.72,14.57-35.51,26.33-53.09,39.7-21.3,16.2-42.67,32.51-64.95,47.54-13.88,9.36-27.72,19.23-39.69,31.18-4.77,4.76-10.74,7.75-16.3,11.07-10.54,6.29-18.54,15.63-28.67,22.21-3.49,2.27-7.49,6.92-12.64,2.33,24.97-25.85,49.88-51.75,74.91-77.54,45.3-46.66,90.67-93.26,136.05-139.84,1.91-1.96,3.21-5.13,6.89-4.47Z" style="fill: #895d1f; stroke-width: 0px;"/>
  <path d="M164.06,297.25c-8.21-.05-16.01-2.59-23.97-4.08-4.24-.79-8.23-.87-12.4.52-3.19,1.06-4.71,2.61-4.98,6.08-2.21,28.61-2.65,57.21-.2,85.82.05.6-.76,1.28-1.17,1.93-16.65-17.37-33.93-34.1-51.46-50.56-2.1-1.97-3.88-4.29-5.81-6.45-6.18-13.28-5.91-27.66-6.81-41.78-.26-4.09-.3-8.37.38-12.53,3.44-2.4,7.01-.83,10.51-.26,8.43,1.4,16.67,3.8,25.13,5.04,8.86,2.55,18.1,3.4,26.99,5.83,10.93,2.98,20.9.08,30.3-5.15,17.25-9.59,34.28-19.59,51.24-29.69,5.21-3.1,10.12-6.61,14.67-10.66,2.68-2.39,5.34-5.24,9.55-4.71,1.77,2.34.81,4.65-.49,6.59-10.53,15.68-19.71,32.31-33.48,45.69-8.06,7.82-17.24,10.34-27.99,8.36Z" style="fill: #ebd09e; stroke-width: 0px;"/>
  <path d="M1191.32,185c-5.82,1.47-9.26-3.38-12.99-5.86-30.89-20.58-61.85-41.04-92.38-62.17-20.56-14.23-40.69-28.99-60.38-44.32-7.87-6.13-14.43-13.94-21.56-21-1.45-1.44-1.52-3.29-1.37-5.18,0,0-.23-.29-.23-.29.64-.84,1.31-1.83,2.32-2.07,13.96-3.41,27.62-8.52,42.35-7.53,28.39,29,56.68,58.09,85.21,86.96,19.97,20.21,38.11,42.18,59.03,61.47Z" style="fill: #ab7d2f; stroke-width: 0px;"/>
  <path d="M433.99,632.33c.97,2.18,3.42,3.56,3.4,6.27-13.25-.45-26.51-.14-39.76-.81-7.61-.39-15.17-.03-22.45,2.56-20.66-20.64-41.32-41.28-61.98-61.92-1.76-5.37,1.88-7.52,5.85-8.1,17.88-2.63,35.83-4.81,53.93-5.29,3.73-.1,7.19,1.35,10.74,2.25,6.53,1.83,8.59,8.2,12.63,12.57,3.06,3.3,5.57,7.04,8.38,10.54,7.53,11.49,16.62,21.82,24.6,32.98,1.99,2.78,4.08,5.46,4.65,8.96Z" style="fill: #b98645; stroke-width: 0px;"/>
  <path d="M496.54,716.41c12.74,14.75,23.84,30.76,35.52,46.32,29.07,38.74,58.18,77.45,87.21,116.22,2.15,2.87,5.18,5.39,5,9.53-1.98-1.7-4.07-3.29-5.92-5.13-55.31-55.18-110.6-110.38-165.89-165.59-.92-.92-1.69-1.99-2.52-2.99.02-5.06,4.04-6.5,7.52-6.24,13.32.98,27.09.17,39.08,7.88Z" style="fill: #74431b; stroke-width: 0px;"/>
  <path d="M496.54,716.41c-11.26-2.45-22.52-4.68-34.05-5.73-5.16-.47-9.38-.43-12.55,4.1-25.48-24.25-50.21-49.24-74.76-74.43,2.03-3.6,5.4-4.98,9.23-4.81,10.15.47,20.4-1.47,30.46,1.22,2.16.58,4.07-.52,6.11-.86,5.73-.96,11.42-1.1,16.42,2.7,0,0-.14-.04-.14-.04,1.19,1.99,2.31,4.05,4.75,4.8,5.84,7.43,11.68,14.85,17.52,22.28,1.34,1.4,4.06,1.81,3.37,4.67,1.5,2.13,3,4.26,4.5,6.39,9.71,13.24,19.43,26.48,29.14,39.71Z" style="fill: #9d662e; stroke-width: 0px;"/>
  <path d="M385.05,568.56c-8.63,0-17.17-.85-25.93-.42-12.64.63-24.91,4-37.54,3.79-4.62-.07-7.59,1.75-8.37,6.49-16.61-15.15-32.16-31.36-47.67-47.63-.11-4.84,3.78-5.32,6.97-5.76,12.76-1.75,25.38-4.36,38.15-5.95,5.21-.65,10.5-.81,15.6-2.11,8.41-2.15,16.15-1.02,23.26,4.03,7.69,4.61,11.12,12.92,16.73,19.36,1.88,2.16,3.44,4.59,5.24,6.83,4.26,7.28,12.02,12.36,13.58,21.36Z" style="fill: #ddb97c; stroke-width: 0px;"/>
  <path d="M349.92,522.57c-14.99-8.95-30.17-1.12-45.19-.17-11.2.71-22.27,3.41-33.43,5.02-2.55.37-4.61.95-5.76,3.4-13.32-12.12-25.77-25.09-38.12-38.18,11.75-4.46,24.41-4.51,36.51-7.51,13.13-3.25,26.76-4.41,39.96-7.42,3.79-.87,7.84,2.99,11.04-1.11,2.62-.7,3.87,1.23,5.11,2.85,9.77,12.76,19.05,25.88,28.66,38.76.94,1.26,1.79,2.64,1.22,4.37Z" style="fill: #e8cc98; stroke-width: 0px;"/>
  <path d="M1047.08,36.57c-14.89,3.2-29.78,6.4-44.67,9.61-4.59-3.9-9.27-.34-13.47.52-12.62,2.59-24.32.44-36.21-3.71-22.05-7.7-44.32-14.76-66.48-22.14-9.46-3.15-18.89-6.4-28.29-9.74-2.53-.9-3.15-2.19.19-2.99,21.66.55,43.4.06,64.93,2,15.87,1.43,31.48,5.94,47.17,9.26,24.69,5.22,49.36,10.59,74.02,15.94.98.21,1.88.83,2.81,1.26Z" style="fill: #e4c981; stroke-width: 0px;"/>
  <path d="M583.2,1.75c7.79-1.46,13.02,3.77,17.96,7.99,19.15,16.36,37.85,33.23,56.66,49.98,6.3,5.61,13.15,9.37,21.99,8.8,4.97-.32,9.99.14,14.98.25-1.53,4.22-5.34,3.61-8.52,3.7-9.33.27-18.67.18-27.99.06-9.75-.64-19.56-.72-29.29-.17-8.99.51-15.37-2.84-21.62-9.06-14.44-14.37-27.73-29.75-41.1-45.05-6.25-7.15-11.94-14.26-22.77-13.15-1.27.13-2.51-.72-3.29-1.91,14.26-2.68,28.67-.78,43-1.44Z" style="fill: #dfc98f; stroke-width: 0px;"/>
  <path d="M540.2,3.19c19.2-3.46,26.31,12.45,36.03,23.27,12.51,13.92,25.04,27.77,38.37,40.91,2.6,2.56,5.53,2.66,8.73,2.68,11.09.09,22.17.23,33.26.35-1.32,3.94-4.83,3.43-7.81,3.65-4.94.37-9.9.07-14.85-.03-24.71,1.46-49.31-2.14-74.01-1.55-2.1.05-4.19-.4-6.01-1.56-2.23-5.42,2.57-3.86,4.63-4.24,7.39-1.38,7.5-1.27,3.35-7.81-10.03-15.81-21.42-30.71-31.47-46.51-2.34-3.68-5.75-5.22-10.02-5.25-6.33-.05-12.66,0-19,.05-2.61-.12-5.29,0-7.13-2.38,15.24-2.49,30.62-.83,45.92-1.59Z" style="fill: #bc9d5f; stroke-width: 0px;"/>
  <path d="M494.28,4.78l7.87.61c6.59,8.34,11.21,17.79,15.07,27.59,3.58,9.1,6.91,18.24,12.2,26.58,4.1,6.46,2.61,8.94-5.04,9.4-4.21.25-8.45.04-12.68.37-8.88.11-17.75.25-26.61-.03-3.21-.1-7.03.5-8.57-3.73,1.84-.12,3.68-.44,5.51-.33,4.99.29,6.73-.9,4.52-6.34-2.63-6.43-5.13-13.05-3.41-20.47,1.17-5.05-1.21-9.82-2.89-14.52-.44-1.24-.64-2.6-1.25-3.74-2.22-4.2,2.78-10.98-3.6-13.11-4.27-1.43-9.41-.25-14.15-.32-2.37-.03-4.73-.25-7.09-.38,13.32-2,26.76-1.12,40.14-1.58Z" style="fill: #614322; stroke-width: 0px;"/>
  <path d="M57.61,276.43c.97,1.2,2.96,2.59,2.77,3.58-3.24,17.08,1.56,33.43,4.23,49.97.02.14-.36.35-.55.53-4.59-4.3-9.58-8.25-13.69-12.97-15.6-17.86-33.96-32.97-49.82-50.55,11.5-2.93,21.98,2.71,32.97,3.99,5.42.63,10.8,1.67,16.19,2.52,3.09-.23,6.64-1.73,7.9,2.94Z" style="fill: #dbb678; stroke-width: 0px;"/>
  <path d="M1263,263.95c1.52-.03,3.05-.05,4.57-.08,3.13,2.51.44,3.44-1.25,4.63-2.01-2.98-4.73-1.25-7.02-.81-8.88,1.69-17.7,3.65-26.55,5.51-1.06-.52-2.12-1.05-3.19-1.57.55-3.61,3.64-3.16,6.01-3.61,9.09-1.7,18.03-4.44,27.42-4.08Z" style="fill: #e2ca8a; stroke-width: 0px;"/>
  <path d="M820.03,6.5c-4.81-.36-9.83,1.49-14.41-1.35,4.82.29,9.82-1.34,14.41,1.35Z" style="fill: #f3e7ba; stroke-width: 0px;"/>
  <path d="M824.56,648.16c-7.86,10.61-15.71,21.21-23.57,31.82-3.23,4.23-6.46,8.47-9.7,12.7-4.55-1.92-1.96-5.1-.43-6.67,12.33-12.64,7.63-26.33,2.69-39.92-16.36-44.99-32.67-90.01-50-134.63-10.35-26.64-18.37-54.13-30.15-80.21-5.03-11.13-7.89-23.01-11.93-34.49-8.17-23.22-17.82-45.78-28.07-68.12-1.83-3.98-4.24-5.89-8.61-5-8.39,1.71-16.86,1.1-25.33.93-1.3-.16-2.5-.57-3.57-1.36-.63-.72-.76-1.52-.4-2.41.65-.62,1.4-1.07,2.26-1.35,3.08-.54,6.18-.98,9.19-1.87,18.69.14,37.31-2.54,56.02-1.54,4.01,1.33,8.16,1.3,12.32,1.2,4.99.3,10.06-.7,14.95,1,5.05,4.23,7.55,10.03,9.67,16.02,16.36,46.04,30.23,92.89,45.05,139.43,12.81,40.23,26.07,80.32,38.15,120.78.38,1.27.83,2.51,1.33,3.73,6.83,16.64,12,33.28.1,49.96Z" style="fill: #9f7121; stroke-width: 0px;"/>
  <path d="M638.82,322.81c9.19-.59,18.45.65,27.6-1.5,3.21-.75,6.26-.6,8.11,3.91,7.85,19.21,16.71,38.01,24.33,57.31,7.04,17.84,11.58,36.6,19.12,54.32,12.69,29.8,22.24,60.78,34.2,90.89,16.04,40.35,30.37,81.39,45.27,122.2,2.71,7.43,3.5,15.41,3.72,23.25.12,4.25-4.41,6.85-6.34,10.46-1.51,2.82-6.22,4.56-3.55,9.04-9.2,11.08-16.63,23.56-26.74,33.92-3.11-5.02,2.04-7.34,3.52-10.87,13.41-12.72,14.1-27.39,6.9-43.46-13.81-30.82-26.63-62.12-39.1-93.45-14.07-35.34-30.71-69.59-43.66-105.37-8.55-23.62-20.52-45.75-30.33-68.82-10.01-23.52-20.8-46.89-23.76-72.75-.35-3.09-1.81-6.22.7-9.08Z" style="fill: #835616; stroke-width: 0px;"/>
  <path d="M726.29,776.98c-6.59,11.89-15.78,21.79-25.26,32.33,13.35-15.48,2.31-27.99-3.68-41.13-6.24-13.69-13.17-26.83-23.05-38.43-7-8.22-8.96-19.51-15.67-28.2-3.15-4.08-4.99-9.21-8.42-13.3-7.3-8.7-8.15-19.65-9.65-30.15-5.41-37.96-5.26-76.19-4.88-114.41.03-3.13.59-6.52-3.16-8.23-4.18-5.77-1.88-12.34-2.27-18.57-.13-3.41-.12-6.81.63-10.17,2.05-8.57.56-17.28.97-25.92.04-19.5-.03-38.99.04-58.48.01-3.39-.48-6.88,1.34-10.05.66-.93,1.54-1.22,2.63-.87,3.87,5.78,1.86,12.31,2.24,18.52.27,4.47.1,8.98.02,13.46-.62,27.48-1.99,55.13.38,82.41,2.34,26.91,7.89,53.39,22.89,77.44,13.51,21.66,25.35,44.51,35.88,67.9,4.24,9.41,8.88,18.72,14.47,27.29,9.33,14.3,14.37,30.55,22.26,45.49,4.34,8.22,3.85,17.32-2.02,25.52-1.84,2.57-4.4,4.6-5.7,7.56Z" style="fill: #573009; stroke-width: 0px;"/>
  <path d="M635.73,444.9c-.01-11.11-.03-22.22-.04-33.33-2.9-3.28-2.05-7.31-2.19-11.12-.18-4.89.46-9.85-1.19-14.62-.84-14.14-1.53-28.28.31-42.38,1.56-2.98,3.16-2.29,4.41.16,2.12,4.12,2.31,8.63,2.38,13.15.25,15.61,2.14,31.14,3.99,46.58,2.35,19.57,10.46,37.56,19.02,55.24,7.59,15.68,15.56,31.18,22.31,47.28,8.77,20.92,17.04,42.03,27.94,62.09,8.93,16.44,15.28,34.25,22.67,51.5,10.83,25.28,21.4,50.68,32.65,75.77,3.15,7.02,4.97,13.95,1.09,21.26.14,4.12-5.6,5.6-4.54,10.13-8.31,13.55-18.03,26.02-28.66,37.8-1.9-3.45.46-5.98,2.02-8.57,1.49-2.48,3.3-4.93,5.44-6.78,12.06-10.37,8.41-21.99,2.96-33.77-8.74-18.89-16.95-38.01-25.23-57.1-7.45-17.17-17.39-33.17-24.87-50.39-10.32-23.73-21.81-46.92-32.64-70.41-5.31-11.52-12.95-21.7-17.6-33.66-5.65-14.55-7.95-29.49-8.63-44.85-.21-4.71-.28-9.41-1.61-13.97Z" style="fill: #6d4310; stroke-width: 0px;"/>
  <path d="M635.73,444.9c4.98,8.34,3.26,17.91,4.44,26.84,2.42,18.34,7.84,35.35,17.76,50.89,7.56,11.85,12.15,25.13,18.55,37.54,14.81,28.68,26.02,59.06,41.88,87.32,8.32,14.81,14.1,31.07,20.69,46.81,2.64,6.29,4.45,12.87,8.31,18.69,2.59,3.9,4.97,8.18,4.29,13.29-.07.51-.18,1.29.1,1.55,9.48,8.86-1.76,13.05-4.45,18.99-2.89,6.37-10.17,10.02-11.4,17.57-1.98,5.13-5.01,9.45-9.6,12.58-.24-2.4,1.43-3.79,2.72-5.47,6.72-8.8,7.01-20.52,1.7-30.28-8.39-15.43-14.42-32.05-23.7-47.07-10.95-17.73-18.2-37.39-28.73-55.42-11.4-19.52-21.86-39.63-31.74-59.96-5.29-10.89-5.4-23.44-7.66-35.29-6.25-32.69-1.9-65.73-3.15-98.58Z" style="fill: #623b0d; stroke-width: 0px;"/>
  <path d="M632.43,516.32c.03,6.37.06,12.75.1,19.12-.02.52-.04,1.04-.04,1.55-2.7,7.07-9.04,9.31-15.41,11.17-13.16,3.85-26.41,7.6-39.68,10.86-24.85,6.1-49.81,12.06-75.2,15.72-32.41,4.67-64.72,5.96-96.19-5.38-12.4-4.47-24.59-9.68-33.42-20.24-.51-.61-1.4-.67-2.19-.79-6.82-8.59-13.64-17.18-20.46-25.76-10.43-13.99-20.85-27.99-31.31-41.96-1.08-1.45-2.45-2.68-3.68-4.02-4.81-6.79-9.62-13.57-14.44-20.36,1.25-4.48,3.94-2.49,5.44-.71,8.69,10.35,19.46,18.59,28.61,28.44,10.44,11.23,20.68,22.63,34.23,30.39,6.66,3.81,12.04,9.38,18.43,13.67,13.37,9,28.22,14.36,43.35,18.98,20.97,6.41,42.38,4.71,63.59,1.28,35.23-5.7,70.02-13.44,104.28-23.49,9.62-2.82,19.64-4.24,28.78-8.68,1.67-.81,3.54-1.17,5.23.21Z" style="fill: #79480f; stroke-width: 0px;"/>
  <path d="M433.99,632.33c-10.23-13.74-20.46-27.48-30.69-41.22,4.35-3.68,8.78-1.91,13.39-.46,16.68,5.24,33.48,9.3,51.22,5.96,15.32-2.89,31.12-1.91,46.39-4.8,23.03-4.36,46.36-7.63,68.61-15.46,6.79-2.39,13.82-3.5,20.9-4.28,9.57-1.05,17.94-4.15,24.07-12.02,1.1-1.42,2.44-2.86,4.64-2.4-.08,10.26.36,20.51-1.47,30.74-1.66,9.3-4.59,11.9-14.1,13.94-12.24,2.62-24.62,4.53-36.21,10.25-7.09,3.5-15.72,3.78-23.54,5.94-22.03,6.07-44.63,9.51-67.08,13.17-9.86,1.6-20.41,2.84-31.16.26-6.88-1.65-14.82-.75-22.22-2.13-.72-.13-1.8,1.63-2.71,2.52Z" style="fill: #573009; stroke-width: 0px;"/>
  <path d="M632.51,557.65c-6.59,9.54-14.84,15.82-27.18,16.34-16.43.69-31.28,8.45-47.26,11.67-27.03,5.44-54.17,9.2-81.57,12.39-18.22,2.12-35.42,1.03-52.94-2.31-6.8-1.3-12.66-6.77-20.27-4.62-6.09-7.52-12.17-15.03-18.25-22.55-4.89-6.74-9.78-13.49-14.67-20.23,1.18-1.8,2.55-1.61,3.89-.27,15.63,15.68,35.67,21.76,56.6,25.31,18.12,3.08,36.25,2.4,54.73.82,30.84-2.65,60.49-10.6,90.43-17.06,14.23-3.07,28.37-7.53,42.49-11.59,5.4-1.56,9.87-4.79,13.97-8.54,0,6.88.02,13.77.03,20.65Z" style="fill: #623b0d; stroke-width: 0px;"/>
  <path d="M462.9,670.31c-1.12-1.56-2.25-3.11-3.37-4.67,2.05.36,4.79-.98,5.83,1.87.67,1.85-.79,2.6-2.46,2.79Z" style="fill: #2f1804; stroke-width: 0px;"/>
  <path d="M442.01,643.36c-4.43,1.22-4.31-2.08-4.75-4.8,2.33.87,3.52,2.86,4.75,4.8Z" style="fill: #b98645; stroke-width: 0px;"/>
  <path d="M695.41,817.63c.06,2.55-1.21,3.64-3.51,4.15-.05-2.55,1.2-3.65,3.51-4.15Z" style="fill: #573009; stroke-width: 0px;"/>
  <path d="M476.51,65.58c12.09,2.21,24.32,1.3,36.49,1.62,6.76.78,13.41.76,20.23-.41,6.53-1.12,13.51-2.54,19.68,1.94,1.5.39,3.01,1.14,4.51,1.13,25.65-.16,51.22,2.78,76.88,1.88.67.83,1.17,1.74,1.53,2.74.77,3.39.51,6.85.51,10.28.02,74.08.02,148.16,0,222.25,0,3.69.38,7.42-.77,11.04-.43.98-1.09,1.77-1.96,2.39-12.27,2.99-24.68,1.56-37.03.84-4.21-.25-8.41-.87-12.65-.86-37.81.12-75.52-2.82-113.32-3.54-27.45-.52-54.91-2.03-82.37-3.05-28.51-1.06-57.06-1.63-85.53-3.24-30.84-1.74-61.71-2.09-92.54-3.4-7.43-.32-15.3.17-22.3-3.6-.38-2.28,2.43-4.18.66-6.95-8.03,2.89-16.21,4.56-24.46.62,15.91.86,27.03-7.68,35.62-19.52,9.5-13.09,19.59-25.9,26.37-40.79,5.81-13.3,15.36-24.29,22.69-36.66,5.87-9.92,12.94-19.12,18.89-29.02,17.5-27.7,35.9-54.8,53.62-82.35,2.58-4,5.61-7.66,9.05-10.97,5.69-13.55,15.6-18.92,30.08-15.7,1.2.27,2.56-.2,3.85-.33,37.43,1.22,74.86,2.45,112.28,3.67Z" style="fill: #fbf3b3; stroke-width: 0px;"/>
  <path d="M187.85,303.58c34.29,1.45,68.58,2.71,102.9,3.56,27.67.69,55.35,2.13,83.04,3.07,27.95.95,55.89,2.11,83.84,3.18,30.06,1.15,60.13,2.03,90.18,3.18,28.73,1.11,57.43,3.32,86.21,2.83.95.24,1.48.82,1.5,1.82.03.42,0,.83-.08,1.24,1.19,6.53,2.4,13.06-1.18,19.29-.08,14.79-.15,29.58-.23,44.37,1.57,3.03.68,6.24.67,9.38-.94,7.11-.64,14.3-1.45,21.42-2.33,5.03-7.37,5.89-11.83,6.94-38.36,9.05-76.68,18.21-115.52,25.2-30.73,5.53-56.85-1.79-79.81-22.64-25.06-22.76-50.42-45.21-74.17-69.36-9.65-9.82-19.93-19.01-30.24-28.05-12.33-10.82-27.06-17.44-44.11-16.95-12.44.36-24.74-2.79-37.22-1.37-12.89,1.52-25.54-2.41-38.4-1.53-5.02.26-9.97.14-14.52-2.4-1.71-1.3-1.07-2.29.41-3.18Z" style="fill: #eacf66; stroke-width: 0px;"/>
  <path d="M187.44,306.76c4.92.07,9.84.15,14.76.22,11.31-.84,19.47,5.62,27.11,12.44,7.09,6.33,14.25,12.64,21.03,19.3,30.74,30.21,62.18,59.71,92.34,90.52,18.88,19.29,38.84,37.41,59.59,54.69,19.99,16.64,42.26,27.21,68.92,25.53,12.13-.76,24.2-2.56,36.08-5.27,40.23-9.18,80.34-18.86,119.99-30.35,1.93-.56,3.96-1.89,5.88.11.31,2.51.1,5.03.16,7.54-.03,2.94.08,5.89-.08,8.83-2.72,4.49-7.52,5.72-11.97,7.06-46.63,14-93.72,26.27-141.99,33-25.59,3.57-49.99-1.34-72.08-15.63-23.17-15-43.67-33.25-63.84-51.94-32.38-30-63.85-60.95-95.32-91.87-17.84-17.52-34.22-36.58-51.29-54.92-2.51-2.7-5.34-5.02-7.99-7.54-.43-.57-.86-1.14-1.29-1.7Z" style="fill: #aa7720; stroke-width: 0px;"/>
  <path d="M188.73,308.46c3.5,1.32,6.5,3.44,9.18,5.99,11.97,11.37,21.91,24.65,33.6,36.22,18.83,18.65,36.11,38.9,56.68,55.78,1.83,1.5,3.43,3.29,5.12,4.96,19.69,19.48,39.43,38.86,60.01,57.45,18.18,16.42,36.49,32.46,57.23,45.47,21.64,13.57,45.39,16.95,70.53,13.65,40.76-5.35,80.19-16.64,119.96-26.39,10.68-2.62,20.9-7.09,31.33-10.71,1.91,3.75.48,7.75.89,11.6-2.82,6.84-9.56,7.98-15.38,9.89-8.53,2.79-17.28,4.97-25.99,7.19-35.59,9.1-71.34,17.8-107.67,23.08-33.25,4.83-64.5-1.68-92.65-21.56-28.38-20.05-54.11-42.98-79.35-66.78-22.18-20.92-41.1-44.69-62.13-66.56-1.09-1.14-1.9-2.55-3.55-3.01-19.27-25.43-38.54-50.85-57.81-76.28Z" style="fill: #905d17; stroke-width: 0px;"/>
  <path d="M246.54,384.74c2.47-2.19,3.16.71,4.22,1.68,13.82,12.67,25.18,27.58,37.61,41.52,8.16,9.15,17.53,17.23,26.51,25.62,7.87,7.35,15.64,14.83,23.38,22.28,19.46,18.73,41.22,34.26,63.57,49.11,17.64,11.72,37.55,15.71,58.35,16.91,21.38,1.23,41.59-5.16,62.27-8.57,31.14-5.13,61.23-14.58,91.86-21.79,6.5-1.53,12.24-4.85,18.11-7.84,1.02,1,.99,2.07.18,3.17-.06,3.16-.11,6.33-.17,9.49-45.67,16.45-93,26.29-140.62,34.77-29.48,5.25-58.47,2.23-85.8-10.16-12.87-5.83-24.29-14.54-35.97-22.72-12.46-8.72-24.2-18.03-33.96-29.43-9.94-11.61-23.29-19.79-31.79-32.72-1.07-1.63-2.6-1.6-3.8.17-14.25-18.47-28.55-36.9-42.71-55.44-3.96-5.19-7.51-10.7-11.24-16.06Z" style="fill: #8d5a15; stroke-width: 0px;"/>
  <path d="M1005.15,409.72c-26.6,34.87-53.29,69.67-79.72,104.66-5.64,7.47-12.28,14.23-16.67,22.63-1.13,1.02-2.27,2.04-3.4,3.06-3.4-.71-2.31-3.33-1.6-4.96,5.51-12.73,2.78-25.45.26-38.19-10.47-52.88-22.36-105.47-32.98-158.32-1.69-8.42-2.39-17.54-11.56-22.27-1.54-.79-2.82-2.7-.35-4.37,7.99-1.95,16.17-2.96,24.31-2.8,21.67.42,43.25-2.08,64.91-1.6,14.84-.36,29.62-2.56,44.5-1.59,28.66-1.59,57.39-1.14,86.02-3.33,1.81-.35,3.53-.3,4.91,1.16,1.53,3.98-1.32,6.52-3.32,9.13-22.92,30.05-45.73,60.18-68.49,90.36-1.91,2.54-3.74,5.14-6.81,6.44Z" style="fill: #faf2b5; stroke-width: 0px;"/>
  <path d="M858.09,313.36c12.8,4.04,13.37,15.68,15.58,25.9,6.86,31.83,13.46,63.71,19.85,95.64,5.41,27.01,11.96,53.8,15.61,81.17.88,6.58-.94,12.37-2.95,18.32-.61,1.8-3,3.44-.83,5.67-8.08,13.8-19.66,24.99-28.51,38.22-4.07-.86-3.5-4.38-3.42-6.96.48-14.51-3.59-28.27-7.03-42.05-15.99-64.03-31.55-128.18-48.33-192.01-.81-3.07-1.75-6.09-2.64-9.13-1.59-5.4-3.92-9.73-10.52-10.09-1.74-.1-5.38-.19-3.48-4.12,6.32-2.92,13.02-1.16,19.54-1.64,5.53.18,11.08.8,16.52-.85,4.68-.83,9.38-.75,14.1-.54,2.45.08,4.86.26,6.5,2.47Z" style="fill: #efdb7f; stroke-width: 0px;"/>
  <path d="M824.56,648.16c-.4-.6-1.28-1.58-1.14-1.76,11.22-14.33,5.39-28.96.74-43.49-7.14-22.31-14.15-44.68-21.72-66.84-9.28-27.15-16.43-54.94-26.08-81.99-9.11-25.55-16.17-51.81-24.6-77.61-6.27-19.2-11.68-38.76-20.89-56.9,8.05-4.03,16.95-3.11,25.4-3.59,19.24-1.1,20.42.73,26,19.56,18.46,62.3,35.35,125.05,53.97,187.3,5.75,19.23,10.22,38.83,15.99,58.07,3.71,12.4,3.48,24.33-3.9,35.49-7.92,10.59-15.84,21.18-23.76,31.77Z" style="fill: #c29937; stroke-width: 0px;"/>
  <path d="M848.32,616.39c-2.51-4.98,3.01-7.47,3.66-11.83,2.01-13.38-2.7-25.35-6.04-37.61-6.91-25.36-14.04-50.65-21.28-75.92-14.27-49.76-28.62-99.5-43.12-149.19-1.74-5.97-2.74-12.1-5.83-17.86-2.53-4.72-5.02-6.45-10.17-6.09-11.54.81-23.11,1.14-34.67,1.67-5.25-.05-10.5-.09-15.75-.14-.5-.96-.31-1.75.57-2.38,5.27-2.44,10.88-1.12,16.35-1.49,3.61.28,7.18.21,10.67-.95,3.74-.81,7.53-.56,11.31-.62,12.3.52,24.45-2.04,36.73-1.73,3.57.09,7.43-.52,10.2,2.72.2.17.42.51.6.49,12.68-1.17,15.41,7.87,17.79,17.29,17,67.4,34.15,134.76,50.87,202.23,3.15,12.71,6.7,25.56,5.31,38.98-.16,1.55-.19,3.21,1.33,4.32-9.51,12.71-19.01,25.41-28.52,38.11Z" style="fill: #d5b24b; stroke-width: 0px;"/>
  <path d="M330.3,77.93c-20.46,31.3-40.92,62.6-61.38,93.9-5.5,6.98-12.8,11.82-20.06,16.63-41.87,27.76-84.6,54.18-127.19,80.81-8.62,5.39-17.2,11.52-27.61,13.55-12.41-.66-24.13-5.28-36.46-6.38-1.94-2.85-5.99-.01-7.9-2.94-.03-2.22,1.55-3.11,3.19-4.09,45.96-27.47,88.73-59.66,132.85-89.85,18.91-12.94,38.04-25.54,56.95-38.48,16.3-11.15,32.15-22.98,48.71-33.72,13.71-8.9,25.77-19.84,38.89-29.43Z" style="fill: #c39d4e; stroke-width: 0px;"/>
  <path d="M1083.59,305.36c-.64-1.42-1.87-1.75-3.27-1.77-.32-.2-.65-.4-.98-.59-22.62-33.94-44.17-68.58-66.84-102.48-1.61-2.41-3.19-4.84-4.91-7.17-1.29-2.24-3.97-4.12-1.98-7.25,4.19-1.16,4.22,3.11,5.57,4.88,14.71,19.24,33.73,32.71,54.95,44,24.6,13.08,48.47,27.52,72.61,41.46,13.41,7.75,27.72,8.61,42.52,5.9,2.09-.38,4.02-1.58,5.62.78-3.85,2.77-9.07.15-12.84,3.24-18.64,7.75-38.75,9.6-58.13,14.39-7.67,1.89-15.44,3.46-23.2,5-3.01.6-6.18,1.89-9.12-.38Z" style="fill: #f7edca; stroke-width: 0px;"/>
  <path d="M1083.59,305.36c30.15-6.33,60.3-12.67,90.44-19-11.51,8.62-23.34,16.84-34.46,25.94-16.1,13.18-33.22,24.92-50.04,37.09-21.71,15.71-43.15,31.81-64.61,47.86-3.57,2.67-6.85,5.79-9.89,9.06-2.81,3.02-5.91,4.25-9.9,3.4,17.72-23.63,35.43-47.27,53.17-70.88,8.4-11.18,16.85-22.31,25.27-33.47Z" style="fill: #845b27; stroke-width: 0px;"/>
  <path d="M858.09,313.36c-2.16-.19-4.32-.38-6.49-.57-2.57-2.09-4.7-4.77-4.44-8.06.63-7.98-1.33-15.78-.95-23.73,1.56-32.71,2.7-65.46,4.85-98.12,2.21-33.53-.15-67.15,3.28-100.62,1.32-12.91-.45-14.31-13.16-14.48-4.19-.05-8.5.57-12.48-1.43-1.03-.61-1.2-1.42-.54-2.41,9.94-.16,19.88-.31,29.82-.47,19.55-.37,39.1-.75,58.66-1.12,4.58,3.32,5.16,8.31,5.7,13.38,2.13,19.99,2.37,40.12,2.86,60.14.65,26.41,2.98,52.8,2.02,79.25-.99,27.25,2.48,54.41,1.56,81.64-.24,7,2.82,9.35,9.47,9.19,3.58-.09,8.12-1.29,10.09,3.68-30.08,1.24-60.16,2.47-90.24,3.71Z" style="fill: #a1721f; stroke-width: 0px;"/>
  <path d="M948.33,309.65c-4.96-2.72-10.33-1.21-15.49-1.3-4.53-.09-6.85-1.06-6.59-6.2,1.32-26.14-2.4-52.19-1.51-78.32,1.02-29.84-1.35-59.62-2.02-89.42-.45-19.93-.87-39.98-2.87-59.88-.41-4.12-2.11-8.12-3.21-12.17,5.98-1.51,9.37.87,12.6,6.21,11.95,19.75,24.53,39.11,36.88,58.62,10.33,17.47,12.16,36.98,13.27,56.58,1.51,26.65,3.96,53.22,6.12,79.82.13,1.58.32,3.17.28,4.75-.37,13.73.49,27.24,7.02,39.75-14.83.52-29.66,1.03-44.48,1.55Z" style="fill: #cfaa3e; stroke-width: 0px;"/>
  <path d="M1263,263.95c-8.98,3.07-18.33,4.53-27.63,6.19-1.99.35-4.19-.25-5.81,1.5-.48,0-.97.02-1.45.03-10.71-1.41-20.11-6.26-29.13-11.71-48.81-29.49-97.81-58.68-146.54-88.31-22.34-13.58-44.45-27.52-66.75-41.14-10.19-6.23-19.44-13.58-27.56-22.34-9.11-13.9-18.16-27.83-27.39-41.66-2.43-3.63-2.58-5.42,2.48-6.01,4.67-.55,9.24-1.91,13.86-2.91-.59,3.72.55,6.51,3.7,8.89,23.66,17.95,47.3,35.97,72.29,52.01,47.84,30.7,95.96,60.98,144.19,91.06,27.46,17.12,55.37,33.52,83.1,50.22,3.88,2.33,8.07,3.86,12.64,4.18Z" style="fill: #d7b96d; stroke-width: 0px;"/>
  <path d="M992.81,308.1c-9.17-5.87-8.75-15.9-8.96-24.53-.3-12.62-1.41-25.18-2.15-37.74-1.4-23.76-4.94-47.43-5.57-71.19-.45-16.71-6.54-31.67-10.01-47.44,10.67,12.77,18.18,27.65,27.56,41.29,4.02,5.84,7.96,11.74,11.93,17.61-.08,2.74,2.32,4.12,3.39,6.23,16.67,28.57,15.15,61.03,19.68,92.2.08.52.03,1.06.06,1.58.91,17.11,1.09,17.17,17.99,15.5,8.95-.88,17.96-.38,26.94-.28,2.42.03,4.74.5,6.53,2.35,0,0,.11-.1.11-.1-7.58,3.65-15.95,2.02-23.79,2.66-21.15,1.73-42.46,1.37-63.71,1.85Z" style="fill: #e8cf65; stroke-width: 0px;"/>
  <path d="M958.14,108.17c4.75.55,6.65,4.94,9.95,7.44,22.31,16.92,46.6,30.79,70.39,45.37,45.39,27.83,91.12,55.1,136.76,82.51,17.14,10.29,34.05,21.04,52.88,28.17-21.38,8.15-40.06,2.12-58.57-9.53-22.95-14.44-46.88-27.33-70.18-41.22-33.92-20.22-68.66-39.13-101.09-61.75-8.35-5.82-16.03-12.6-21.39-21.73-5.86-9.98-12.46-19.53-18.74-29.26Z" style="fill: #e2ca8a; stroke-width: 0px;"/>
  <path d="M732.37,317.74c-5.74.12-11.48.24-17.23.37-3.66.82-7.32.88-10.97-.04-19.63.51-39.25,1.02-58.88,1.53-2.52,1.5-5.54-.22-8.07,1.24-.57.13-1.13.26-1.7.39-.5-.61-1-1.22-1.5-1.82l.13.08c1.32-2.21.74-4.65.74-6.98.03-77.44.03-154.88,0-232.32,0-2.35.48-4.77-.62-7.03-.06-.47-.05-.94.02-1.41,7.43-.47,14.95.68,22.29-1.34,12.73-.65,25.53.55,38.19-1.63,26.35-.57,52.69-1.14,79.04-1.71,3.68,4.81,2.97,10.33,1.07,15.16-4.85,12.32-4.65,25.53-5.9,38.18-1.39,14.06-4.44,27.92-4.75,42.28-.25,11.78-3.98,23.75-4.71,35.9-1.54,25.54-6.94,50.73-7.22,76.4-.03,2.92-.39,5.83-1.23,8.62-2.64,8.74-1.79,17.23,1.47,25.62.83,2.14,2.33,4.3.56,6.69-3.68.19-7.36.38-11.05.57-3.1,1.47-6.62-.41-9.7,1.25Z" style="fill: #57330a; stroke-width: 0px;"/>
  <path d="M753.11,315.92c-6.52-11.6-7.27-23.35-3.67-36.37,2.47-8.94.62-18.8,2-28.28,2.61-17.88,6.17-35.97,5.63-53.86-.49-16.51,9.45-31.69,4.31-48.27,5.45-11.55,3.3-24.36,6.05-36.33.89-3.89,1.9-7.65,1.65-11.67-.36-5.86.11-11.5,2.93-16.91,2.79-5.37,1.74-11.38,1.79-17.16,10.61-.66,21.22-1.32,31.83-1.98,7.3-.8,14.6-.84,21.89.03,5.54.11,11.09.29,16.63.31,11.75.02,14.67,2.66,13.43,14.18-2.15,19.93-3.42,39.88-2.68,59.9.8,21.4-1.11,42.72-2.08,64.02-1.03,22.6-1.77,45.25-3.35,67.77-.77,10.98,1.93,21.9-.67,32.76-.73,3.05,3.75,5.18,2.78,8.73-4.75.18-9.5.36-14.25.54-5.26,1.53-10.77-.48-16.02,1.14-6.8.17-13.59.33-20.39.5-15.98-1.54-31.86,2.23-47.83.95Z" style="fill: #7d5013; stroke-width: 0px;"/>
  <path d="M827.55,65.12c-7.3,0-14.6-.02-21.89-.03,7.39-2.68,14.99-.99,22.51-1.13-.21.39-.42.77-.62,1.16Z" style="fill: #ecd99f; stroke-width: 0px;"/>
  <path d="M94.07,282.82c11-7.59,23.36-12.79,34.57-20.11,26.41-17.25,53.06-34.15,80.01-50.56,20.69-12.6,40.53-26.38,60.28-40.32-10.63,18.8-23.33,36.26-34.93,54.43-2.37,3.71-4.14,7.98-7.94,10.67-22.09,18.25-47.81,30.75-72.18,45.39-11.64,6.99-23.99,10.3-37.61,5.66-7.19-2.45-15.18-1.75-22.19-5.16Z" style="fill: #dfc581; stroke-width: 0px;"/>
  <path d="M552.91,68.73c-13.3-.63-26.68.89-39.91-1.54,4.2-.12,8.41-.4,12.61-.32,4.8.1,5.39-1.02,2.78-5.29-10.83-17.73-16.78-37.79-26.24-56.19.78-.1,1.57-.17,2.35-.29,16.02-2.54,27.7,1.51,35.64,17.6,6.88,13.94,17.26,26.16,26.14,39.11,1.15,1.67,3.44,3,1.97,5.4-1.15,1.89-3.33,1.07-5.09,1.17-3.41.18-6.83.24-10.24.36Z" style="fill: #876635; stroke-width: 0px;"/>
  <path d="M634.26,341.76c.02-6.45-1.46-13,1.18-19.29,1.13.11,2.25.23,3.38.34,3.31,24.09,9.97,47.05,20.21,69.25,9.59,20.78,18.75,41.76,28.16,62.64,8.64,19.17,14.63,39.56,23.62,58.55,12.98,27.39,22.49,56.15,34.87,83.76,12.58,28.05,24.45,56.45,34.58,85.5,4.86,13.93-.49,24.93-11.18,33.97,2.81-13.66-5.3-24.35-10.06-35.84-14.01-33.79-28.33-67.46-42.71-101.1-3.1-7.24-6.5-14.43-10.55-21.17-11.33-18.84-17.2-39.98-26.03-59.86-5.54-12.47-12.16-24.45-18.05-36.77-10.68-22.34-20.04-44.78-21.73-70.3-1.1-16.51-.16-33.56-5.69-49.68Z" style="fill: #7a4d13; stroke-width: 0px;"/>
  <path d="M704.17,318.06c3.66.01,7.31.02,10.97.04-.02.44-.03.88-.03,1.32-3.66-.39-7.57,1.34-10.94-1.36Z" style="fill: #c29937; stroke-width: 0px;"/>
  <path d="M637.22,320.83c2.42-2.19,5.33-1.19,8.07-1.24-2.41,2.23-5.32,1.22-8.07,1.24Z" style="fill: #7a4d13; stroke-width: 0px;"/>
  <path d="M632.65,481.5c-.09-2.67-.18-5.35-.27-8.02-4.18-6.58-1.7-13.86-2.19-20.83-.44-8.63-.15-17.27-.15-25.9,0-3.16.22-6.31,2.56-8.82.9-7.52-.85-15.19,1.28-22.64,1.97,5.4.93,10.9.55,16.38-.12,23.24-.25,46.47-.37,69.71-.41.76-.88.77-1.4.12Z" style="fill: #7a4d13; stroke-width: 0px;"/>
  <path d="M632.65,481.5c.47-.04.94-.08,1.4-.12-.69,8.47,1.68,17.12-1.46,25.46-.06-1.06-.12-2.11-.17-3.17-.01-4.26-.03-8.52-.04-12.78.09-3.13.18-6.26.27-9.39Z" style="fill: #623b0d; stroke-width: 0px;"/>
  <path d="M634.43,411.67c-.18-5.46-.36-10.92-.55-16.38.05-3.06.1-6.11.16-9.16,3.51,8.29.78,16.98,1.65,25.45-.42,0-.84.03-1.26.1Z" style="fill: #623b0d; stroke-width: 0px;"/>
  <path d="M634.28,73.15c1.85,2.63,1.06,5.63,1.06,8.46.13,76.56.22,153.12.23,229.69,0,2.73,1.23,5.84-1.42,8.18-.08-80.8-.16-161.6-.22-242.4,0-1.31.23-2.62.35-3.93Z" style="fill: #bc9d5f; stroke-width: 0px;"/>
  <path d="M632.6,417.93c-.06,11.62-.13,23.24-.19,34.86-3.96,4.76-9.6,6.54-15.22,7.92-39.52,9.71-78.54,21.56-118.66,28.74-13.2,2.36-26.44,4.53-40.09,2.49-18.27-2.73-33.06-11.79-47.03-23.1-19.98-16.18-37.65-34.76-55.98-52.67-29.1-28.43-58.43-56.62-87.12-85.46-6.31-6.35-13.33-12.05-21.65-15.86-2.62-1.2-5.35-2.63-4.87-6.35,15.87-1.04,31.79.62,47.38,2.22,12.37,1.27,24.68,7.48,34.3,16.59,16.68,15.81,32.66,32.39,49.7,47.79,22.27,20.14,42.96,42.12,67.51,59.64,11.01,7.86,22.82,13.17,37.14,13.62,27.99.88,54.48-6.76,81.37-12.19,20.1-4.06,40.03-8.97,59.98-13.71,4.58-1.09,8.97-3,13.44-4.54Z" style="fill: #d3ab3f; stroke-width: 0px;"/>
  <path d="M241.78,308.51c4.3,6.17,12.16,6.85,17.6,11.54,8.02,6.91,15.52,14.3,23.03,21.71,36.28,35.75,72.06,72.04,109.09,106.99,14.76,13.93,29.51,28.72,49.38,36.17,12.23,4.59,24.34,6.4,37.7,5.02,47.41-4.93,92.22-20.95,138.38-31.17,5.33-1.18,10.31-3.94,15.45-5.97,0,6.9-.02,13.79-.03,20.69-12.62,6.35-26.51,8.55-39.99,11.99-27.75,7.09-55.54,14.09-83.49,20.34-21.81,4.88-43.81,8.86-66.24,2.78-16.46-4.47-30.1-13.67-43.03-24.24-34.82-28.46-65.59-61.18-97.52-92.68-17.8-17.57-35.45-35.34-53.99-52.11-11.09-10.03-21.28-21.16-34.16-29.29-4-2.53-8.51-.07-11.75-3.29,13.19.51,26.39,1.02,39.58,1.53Z" style="fill: #b98828; stroke-width: 0px;"/>
  <path d="M821.33,314.47c5.21-2.22,10.65-1.2,16.02-1.14-5.19,2.53-10.65,1.23-16.02,1.14Z" style="fill: #d5b24b; stroke-width: 0px;"/>
  <path d="M732.37,317.74c3.02-2.04,6.4-1.34,9.7-1.25-2.96,2.51-6.42,1.17-9.7,1.25Z" style="fill: #c29937; stroke-width: 0px;"/>
  <path d="M1080.21,303.69c-14.77-.23-29.55-.59-44.26,1.36-5.2.69-7.51-.54-8.3-6.94-3.31-27.06-4.19-54.46-10.68-81.12-2.05-8.44-6.98-15.91-7.98-24.66,20.84,29.7,39.9,60.56,59.51,91.06,4.2,6.53,10.18,12.17,11.7,20.29Z" style="fill: #f5e893; stroke-width: 0px;"/>
</svg>