<?xml version="1.0" encoding="UTF-8"?>
<svg id="Layer_1" data-name="Layer 1" xmlns="http://www.w3.org/2000/svg" viewBox="0 0 1155.19 1138.85">
  <path d="M644.45,1096.17c-3.8.72-7.46,2.48-11.48,1.63-.09-7.59-1.43-9.01-9.06-9.45-3.38-.19-6.72.19-10.06.73-22.57,3.69-45.14,7.43-67.68,11.31-10.8,1.86-19-1.93-26.08-10.18-14.61-17.02-20.9-38.08-27.26-58.59-16.48-53.18-30.14-107.19-43.97-161.13-10.3-40.16-21.08-80.2-31.17-120.4-12.2-48.62-26.4-96.79-36.01-146-6.13-31.41-16.64-61.38-26.24-91.67-9.03-28.48-17.73-57.09-28.11-85.14-6.05-16.32-13.18-32.1-22.74-46.68-3.59-5.47-7.35-10.92-14.79-11.53-.83-.21-1.47-.68-1.94-1.39-1.63-3.1-.9-6.5-1.26-9.77.14-4.49-.42-9.03.79-13.46,5.45-7.46,8.9-8.17,16.04-3.01,4.11,2.97,8.27,5.78,12.8,8.08,6.89,3.5,11.55,9.33,15.69,15.62,3.39,5.14,7.6,7.29,14.06,6.12,22.2-4.05,44.87-4.99,66.94-9.99,6.16-1.39,11.17.59,14.21,5.98,12.84,22.83,28.36,44.02,38.24,68.68,14.25,35.57,26.61,71.8,39.33,107.89,3.09,8.78,5.93,17.81,7.7,27.06,1.29,6.74,4.45,12.7,7.73,18.6,1.06,1.91,2.49,3.56,4.31,4.8,1.86,1.26,3.9,2.18,6.08,1.06,1.99-1.03,1.98-3.13,2.05-5.08.11-3.16-1.06-6.21-1.03-9.32.03-2.78-1.49-6.58,3.35-7.24,2.44,2.55,3.1,5.92,3.91,9.13,3.76,14.84,8.31,29.47,11.95,44.35,10.2,37.6,22.29,74.65,32.61,112.21,6.56,23.86,14.32,47.42,17.34,72.19,1.16,9.51,4.4,18.71,6.71,28.05,8.96,33.82,17.59,67.73,26.77,101.49.67,4.17,2.58,8.07,2.82,12.34-1.46,4.62-3.65,4.03-5.7.55-2.1-3.56-2.79-7.68-3.83-11.63-10.39-39.37-20.97-78.69-31.7-117.97-.69-2.51-1.08-5.18-3.46-7.38-.92,7.85-1.43,15.78-.36,23.63,5.58,40.87,14.38,81.11,24.4,121.09,5.45,21.74,10.81,43.46,19.39,64.28,6.24,15.13,14.89,27.86,29.43,36.24,5.56,3.2,9.89,8.41,16.1,10.76,7.55,7.09,7.37,8.12-1.15,13.41-3.97,2.47-8.08,3.93-12.72,4.51-7.8.97-15.49,2.65-22.95,5.2Z" style="fill: #c91b25; stroke-width: 0px;"/>
  <path d="M635.83,953.05c-1.64-3.65-3.16-7.34-2.96-11.47-4.59-20.25-9.68-40.39-14.28-60.64-2.72-11.96-4.25-24.09-6.23-36.16-.78-4.78-.42-9.59,1.8-14.07,2.47-4.02,6.02-3.38,9.52-1.96,6.03,2.43,12.37,4.02,18.27,6.71,10.9,4.96,22.6,6.92,34.23,8.08,11.25,1.13,21.88-3.13,31.41-8.86,10.52-6.32,20.01-14.15,28.54-23.06,3.86-4.03,8.01-7.65,13.66-8.98,2.42-.41,4.8.02,7.04.8,6.34,2.21,12.2,1.3,17.75-2.28,16.68-10.71,29.15-25.7,41.42-40.88,3.79-4.68,7.43-9.49,11.35-14.07,1.67-1.95,3.1-4.58,6.47-3.25,2.19,2.06,2.17,4.81,2.04,7.42-1.54,29.71,5.39,58.34,11.16,87.09,1.9,9.47,3.38,18.97,4.48,28.52,2.66,23.07,9.13,45.24,15.17,67.53.31,1.16.95,2.28,1.01,3.46,1.21,21.73,15.12,38.16,23.65,56.83,1.94,4.24,5.3,7.57,9.26,9.92,9.68,5.73,18.37,13.07,29.59,16.28,8.49,2.42,8.77,6.93,1.96,15.12-11.29,4.32-21.97,10.57-34.55,10.7.14-5.69,7.17-4.02,9.05-8.69-7.27-1.61-14.42-1.15-21.46-.54-30.97,2.68-61.73,6.99-92.41,11.91-35.68,5.73-71.49,10.62-106.93,17.75-6.69.22-11.02-3.36-15.01-8.4-12.78-16.1-18.7-35.12-23.74-54.53-3.46-13.29-6.85-26.61-10.71-39.78-1.06-3.64.69-7.09-.56-10.51Z" style="fill: #ce576b; stroke-width: 0px;"/>
  <path d="M1104.53,843.16c-1.04,10.77-2.83,21.29-10.32,29.83-3.75-1.51-5.92,1.21-8.08,3.31-4.15,4.03-7.97,8.37-11.28,13.16-2.36,3.41-5.1,7.29-9.71,6.22-4.71-1.09-5.12-6.04-5.78-9.99-1.76-10.48-4.23-20.77-6.98-30.77-.61-.53-.78-.34-.9.38-.49,2.96.75,7.29-2.94,8.16-4.23.99-5.29-3.56-6.48-6.45-5.99-14.56-8.78-30.07-12.8-45.2-13.01-48.95-26.14-97.86-39.14-146.81-12.5-47.09-25.17-94.13-37.62-141.24-8.75-33.11-18.03-66.09-26-99.41-1.52-6.34-3-12.71-3.25-19.23-.17-4.36.03-8.89,5.6-10.4,3.84-1.04,2.57-4.07,2.28-6.56-3.44-29.71-8.15-59.24-13.02-88.74-2.83-17.11-6.56-34.06-8.92-49.55.24,3.25.55,8.2,1.34,13.11.39,2.39.67,4.79-.02,7.17-.41,1.42-1.01,2.76-2.75,2.91-1.39.11-2.17-.85-2.86-1.86-.96-1.41-1.6-2.99-2.02-4.62-4.35-17.05-9.95-33.78-13.39-51.07-.19-.96-.12-1.92.12-2.86,4.15-2.23,4.99-5.64,4.32-10.15-2.77-18.65-6.5-36.93-17.66-52.76-3.15-4.47-2.79-8.7.51-13.25,5.23-7.21,10.9-14.03,16.58-20.88,5.19-6.27,4.49-9.17-2.78-12.52-.88-.4.21.12-.66-.28-11.41-5.18-11.99-8.1-3.57-17.77,11.51-.66,21.82,2.84,30.75,9.85,13.4,10.52,20.83,25.16,26,40.91,11.71,35.68,16.84,72.78,22.86,109.67.93,5.71,1.97,11.41,2.89,17.12,6.27,50.82,15.75,100.98,29.84,150.28,12.92,45.22,24.48,90.81,36.54,136.27,20.11,75.76,40.82,151.35,60.24,227.29,4.95,19.35,9.57,38.87,10.43,59,.12,2.73-.56,5.22-1.37,7.74Z" style="fill: #ee4660; stroke-width: 0px;"/>
  <path d="M1104.53,843.16c-1.12-28-7.95-54.97-15.07-81.84-26.04-98.25-52.4-196.41-78.34-294.68-10.77-40.79-22.65-81.3-31.68-122.53-5.03-22.96-7.19-46.39-10.81-69.59-.62-3.97-2.66-7.86-1.4-12.07,21.42-24.73,41.66-50.43,62.63-75.53,2-2.39,3.69-6.1,8.07-4-4.82,8.87-11.16,16.71-17.2,24.72-1.8,2.4-2.34,4.17-1.58,7.01,19.15,71.25,38.24,142.52,57.27,213.81,17.36,65.04,34.8,130.06,51.87,195.17,8.5,32.41,16.8,64.87,24.02,97.62,7.6,34.48.2,64.59-22.56,91.28-8.58,10.06-16.82,20.41-25.21,30.62Z" style="fill: #f0a0b9; stroke-width: 0px;"/>
  <path d="M288.46,358.06c.13,3.33.27,6.66.4,9.99.67,1.05.92,2.19.82,3.43-1.97,24.88,1.88,48.84,10.52,72.23,7.93,21.47,18.27,41.85,27.49,62.74,2.21,3.96,3.56,8.16,3.36,12.76-.64,6.96-5.77,8.93-11.44,10.08-14.4,2.93-28.99,4.72-43.5,6.99-44.25,6.93-88.5,13.88-132.89,19.81-16.4,2.19-32.94,4.94-49.59,3.76-25.77-1.83-38.39-10.89-44.63-33.41-6.37-23-11.89-46.21-18.24-69.21-1.68-6.07-3.64-12.09-6.75-17.51-5.25-9.12-10.47-18.65-22.96-19.28-1.98-4.61-.85-8.97,1.04-13.27,3.15-4.16,7.8-3.93,11.93-3.13,37.13,7.18,73.82,1.41,110.56-3.37,40.86-5.32,81.49-12.11,122.16-18.67,4.52-.73,8.97-1.82,13.47-2.65,9.38-1.73,16.24-6.8,21.23-14.84,1.69-2.72,2.78-6.4,7.04-6.45Z" style="fill: #d58ca1; stroke-width: 0px;"/>
  <path d="M1037.93,182.91c-7,1.44-9.17,8.2-13.01,12.7-17.34,20.34-33.94,41.31-50.92,61.96-1.74,2.12-3.4,4.81-6.77,4.88-2.45-14.15-4.88-28.31-7.36-42.46-5.08-29.04-9.71-58.22-19.31-86.2-5.36-15.64-13.44-30.19-27.48-39.63-7.82-5.26-17.33-7.91-27.09-8.31-1.73,1.62-3.84,2.01-6.06,1.67-17.22-2.67-34.11,1.03-51.07,2.8-15.09,1.57-30.19,3.2-45.14,5.94-3.09.57-6.23.74-9.27-.42-3.2-2-1.46-4.56-.54-6.78,2.05-5,3.71-10.11,5.16-15.31,2.68-13.28,3.98-26.5-1.18-39.56-.78-1.98-1.49-4.09-.24-6.21,15.55-.94,30.73-4.44,46.11-6.53,21.31-2.89,42.55-6.26,63.83-9.35,16.31-2.38,32.58-5.26,48.97-6.79,14.31-1.34,28.84-3.66,43.12-1.61,15.22,2.18,25.55,11.75,30.6,26.38,6.04,17.47,10.39,35.43,14.93,53.34,5.24,20.68,10.49,41.36,16.43,61.85,3.85,13.29,1.4,25.49-3.72,37.66Z" style="fill: #f0cce0; stroke-width: 0px;"/>
  <path d="M329.36,518.66c-.28-4.01-1.67-7.72-3.14-11.4-13.7-36.87-24.71-74.55-33.71-112.82-2.01-8.53-5.16-17.12-2.37-26.16,3.81-3.18,6.24.16,8.57,2.14,7.49,6.39,12.09,15.12,16.31,23.6,13.11,26.32,22.23,54.23,30.71,82.35,5.75,19.07,11.72,38.11,18.5,56.84,11.48,31.72,17.66,64.74,25.3,97.44,8.3,35.5,17.85,70.71,26.88,106.04,9.63,37.65,19.21,75.32,28.95,112.94,15.81,61.1,31.03,122.39,49.71,182.68,5.53,17.84,11.4,35.94,22.72,51.88,9.2,12.97,19.61,16.53,34.44,13.54,21.31-4.3,42.81-7.74,64.28-11.21,4.18-.68,8.78-.53,12.89.46,7.48,1.8,8.19,4.67,3.56,10.82-3.24,1.17-6.56,1.88-10.02,1.68-2.77,1.46-6.02-.43-8.76,1.24-3.22,1.28-6.55,1.92-10.03,1.66-2.3,1.3-5.04-.23-7.33,1.13-.5.08-1.01.16-1.51.24-2.68,1.66-5.96-.48-8.61,1.37-3.18,1.34-6.53,1.71-9.94,1.65-2.35,1.2-5.08-.25-7.42,1.08-.53.07-1.06.14-1.58.21-2.16,1.59-4.94-.25-7.1,1.3-16.84,2.83-33.65,5.89-50.55,8.39-6.56.97-10.96-3.39-14.6-8.35-4.47-2.27-6.2-6.53-7.89-10.83-10.39-26.54-18.1-53.92-25.61-81.38-15.64-57.23-30.45-114.68-45.27-172.13-13.55-52.55-27.24-105.06-40.34-157.73-13.39-53.84-27.49-107.48-45.34-160.04-1.58-2.67-.57-5.86-1.72-8.62Z" style="fill: #99080c; stroke-width: 0px;"/>
  <path d="M332.21,526c7.3,18.53,12.42,37.77,18.42,56.72,9.13,28.81,15.83,58.29,23.35,87.55,14.2,55.27,28.43,110.54,42.73,165.78,13.63,52.68,27.16,105.39,41.13,157.97,9.37,35.25,18.45,70.61,31.91,104.61,1.49,3.76,3.83,7.18,5.77,10.76-58.92,8.99-117.82,18.13-176.79,26.84-14.74,2.18-29.67,3.35-44.64,2.12-20.45-1.68-35.56-10.68-44.76-29.88-12.88-26.87-20.35-55.46-28.06-83.96-26.41-97.66-52.44-195.43-78.63-293.15-11.53-43.01-23.09-86.01-34.59-129.03-.43-1.6-.39-3.32-.56-4.98-.69-1.52-.65-3.06-.2-4.62,3.95-.53,4.04,2.88,4.64,5.08,8.07,29.21,17.33,58.08,24.43,82.02-5.42-25.29-11.9-55.79-15.32-86.85-.55-4.97-.25-9.63,1.91-14.06,1.32-2.71,1.72-5.47,1.54-8.4.93-2.52,3.21-2.5,5.32-2.97,7.07-1.59,14.37-1.13,21.48-2.46,2.66-.5,5.8-.26,6.71,2.8.91,3.07-2.14,4.27-4.27,4.75-15.48,3.45-17.9,15.27-17.95,28.24-.07,19.87,3.18,39.38,7.67,58.68,12.39,53.35,26.79,106.19,40.8,159.13,16.42,62.02,32.59,124.11,49.71,185.95,7.59,27.42,14.99,54.89,25.72,81.35,5.57,13.73,15.86,23.51,26.01,33.35,6.08,5.89,14.86,5.12,22.72,5.4,23.02.83,45.6-3.25,68.18-6.98,29.94-4.94,60.18-8.37,89.47-16.78,13.75-3.95,15.11-6.33,14.35-20.34-1.66-30.63-11.78-59.47-18.77-88.95-5.56-23.46-11.33-46.92-17.95-70.09-9.35-32.72-16.87-65.89-25.73-98.72-7.85-29.09-14.29-58.57-22.05-87.7-11.72-44.03-21.05-88.75-37.55-131.4-5.76-14.9-13.93-28.61-22.05-42.3-4.14-7-9.96-11.71-18.61-11.91-2.16-.05-4.32-.55-6.4-1.13-2.12-.59-5.53-.02-5.4-3.39.11-2.81,3.06-3.63,5.36-4.09,6.6-1.33,13.22-2.57,19.68-4.48,8.26-1.08,15.09-5.08,21.25-10.46Z" style="fill: #ac383f; stroke-width: 0px;"/>
  <path d="M932.17,1035.13c3.36-11.16,2.75-9.93-8.75-15.62-15.04-7.45-31.15-14.38-37.82-32.29-4.68-12.56-14.58-22.69-17.36-36.22-4.61-22.49-11.98-44.37-16.21-66.87-3.71-19.69-5.08-39.85-9.49-59.47-5.71-25.35-9.82-50.83-8.61-76.93.08-1.69.11-3.42-1.57-4.52-.91-2.38.38-4.21,1.65-5.92,4.28-5.78,7.98-11.96,12.22-17.75,1.37-1.87,2.29-5.15,5.91-3.54,4.93,8.8,5.71,18.85,8.03,28.36,9.08,37.25,19.17,74.23,28.91,111.3,6.62,25.18,13.58,50.27,20.08,75.48,4.3,16.68,10.82,32.45,17.46,48.23,2.83,6.71,7.25,11.87,14.02,14.88,3.11,1.38,5.71,3.47,8.09,5.95,4.83,5.02,7.74,5.31,13.76.69,9.42-7.23,17.29-16.06,24.68-25.3,10.38-12.98,21.68-25.23,30.96-39.09,3.55-5.31,5.03-11.21,6.4-17.44,6.55-29.76-1.8-57.99-8.55-86.25-8.68-36.35-18.3-72.47-28.11-108.53-10-36.76-19.6-73.62-29.53-110.4-9.8-36.29-18.68-72.86-28.96-109-10.88-38.25-19.69-77.11-33.04-114.64-1.73-4.86-3.41-9.51-8.61-11.86-2.84-1.28-3.94-4.09-2.52-6.67,2.61-4.74,4.93-10.04,11.13-11.38,4.79,2.88,4.65,8.2,5.82,12.64,5.91,22.37,11.25,44.88,17.24,67.23,22.15,82.63,44.33,165.25,66.12,247.97,16.26,61.74,34.18,123.06,47.58,185.54,2.79,13.01,4.88,26.21,3.67,39.44-1.56,16.99-8.75,31.34-23.43,41.12-8.32,9.94-16.32,20.17-25.04,29.75-16,17.59-30.01,37.34-51.56,49.1-1.46.79-3.04,1.35-4.57,2.01Z" style="fill: #e27692; stroke-width: 0px;"/>
  <path d="M84.72,268.25c5.68-9.78,13.7-17.75,20.83-26.37,9.15-11.06,17.46-22.83,27.96-32.8,12.73-12.1,29.36-15.19,45.05-20.55,3,.49,4.25,3.04,5.73,5.15,7.36,10.5,17.95,16.49,29.33,21.46,2.97,1.29,7.3,1.37,7.6,5.58.29,4.07-3.84,4.95-6.95,6.89,4.77-.86,8.31-4.59,13.14-3.69,6.5.82,12.92.28,19.41-.45,8.21-.93,16.38-1.33,21.34,7.82,2.09,3.86,6.16,1.82,9.16.72,11.75-4.31,23.37-8.93,34.91-13.79,18.85-7.93,37.55-16.26,57.05-22.57,7.43-2.41,14.95-3.64,22.74-3,3.23.26,6.48.67,6.21,5.19-.66,2.64-2.87,3.72-4.96,4.91-55.84,31.93-110.97,65.04-165.63,98.95-4.57,2.83-8.05,3.27-12.01-1.03-4.26-4.62-9.58-8.09-15.27-10.8-8.48-4.03-15.62-9.46-20.33-17.79-1.04-1.84-2.14-3.87-4.73-3.99-13.03,1.6-25.86,4.2-38.7,6.75-3.23.64-6.5,1.92-9.58-.5-.06-4.23,3.64-3.83,6.03-4.49,10.93-3.03,22.19-4.51,33.35-6.46,4.6-.81,7.78-2.44,7.68-7.67,1.19-7.68,8.8-8.79,14.65-14.04-30.1,7.08-60.02,7.86-87.65,19.44-3.37,1.41-6.49,3.06-9.4,5.25-1.99,1.5-3.9,3.97-6.94,1.89Z" style="fill: #ec6b8d; stroke-width: 0px;"/>
  <path d="M6.61,391.34c17.05-25.49,37.64-48.18,56.77-72.03,2.64-3.29,6.11-6.14,7.03-10.62,3.99-5.56,7.42-11.66,14.17-14.55,18.14-5.02,36.41-9.4,55.17-11.18,9.1-.87,18.17-2.37,27.35-2.08,4.13.13,8.58.35,10.01,5.32,1.33,4.63-1.5,7.8-4.7,10.58-3.09,2.69-6.88,4.45-9.8,7.39-6.92,6.97-7.56,12.41-2.31,20.62,2.64,4.13,6.19,7.37,10.06,10.29,8.28,6.23,16.53,12.52,24.92,18.62,2.55,1.85,5.34,3.79,4.61,7.52-.69,3.56-3.72,4.83-6.78,5.78-8.1,2.53-16.57,3.08-24.85,4.62-48.11,8.93-96.59,15.45-144.97,22.6-5.61.83-11.98,3.01-16.67-2.87Z" style="fill: #f1d4e4; stroke-width: 0px;"/>
  <path d="M890.39,211.85c5.33,20.11,10.66,40.22,15.99,60.33l2.26-.27c1.06-9.25-2.66-18.58-.19-28.78,3.46,8.46,4.64,16.75,6.13,24.9,6.24,34.14,12.05,68.36,16.3,102.81.94,7.6,2.03,15.18,2.77,22.8.23,2.42.92,5.92-4.06,3.36-3.97-2.04-4.11,2.12-4.39,4.35-.77,6.05.76,11.99,2.2,17.76,17.65,71.07,37.12,141.67,56.09,212.4,13.43,50.08,26.58,100.23,39.87,150.34,6.15,23.18,12.34,46.35,18.56,69.51,1.12,4.18,2.97,8.02,6.01,11.92,3.22-4.83-.2-10.44,3.49-15.85,4.66,9.36,5.7,18.82,8.05,27.83,1.14,4.38,1.6,8.94,2.6,13.37.51,2.25.61,5.43,3.34,5.85,2.7.42,5.1-1.61,6.42-3.96,3.11-5.54,7.41-10.05,11.75-14.56,1.65-1.72,3.43-3.31,5.19-4.92,3.01-2.76,4.64-1.57,5.42,1.94-4.94,5.94-9.88,11.88-14.82,17.83-2.36,1.58-4.64,3.23-5.11,6.33-8.23,10.06-16.45,20.12-24.68,30.18-4.4-5.82-3.28-12.86-4.18-19.42-3.6-26.1-9.99-51.58-16.72-76.98-14.2-53.61-28.71-107.14-42.84-160.76-21.75-82.53-44.3-164.86-65.28-247.59-5.24-20.66-7.45-41.73-9.07-62.89-.39-5.12-1.54-9.99-2.96-14.84-.53-2.31.1-4.49.75-6.67.54-1.66,1.1-3.32,1.56-5,.34-4.79,3.62-9.59-.08-14.37-5.3-13.5-7.97-27.75-11.78-41.67-6.11-22.3-12.25-44.6-17.95-67.01-3.61-14.19-10.42-26.3-22.19-35.33-6.3-9.93-16.9-10.62-26.74-11.24-21.42-1.35-42.82.12-64.07,3.34-3.6.54-7.17.9-10.77.16-9.23-1.39-18.03,1.74-27,2.78-21.9,2.54-43.51,7.81-65.78,6.49-3.6-.21-8.74,1.01-9.21-4.35-.44-5.13,4.25-6.51,8.35-7.29,26.94-5.11,53.6-11.56,80.49-16.88,7.48-.2,14.58-2.17,21.57-4.69,7.84-2.82,12.47-8.52,14.75-16.34,2.5-8.59.8-12.59-7.15-16.98-2.68-1.48-5.77-2.55-6.69-6.02-.02-2.71,1.44-4.38,3.78-5.43.78-.17,1.57-.14,2.34.04,6.62,2.12,11.78,6.36,16.21,11.55,7.26,8.52,6.4,22.46-1.77,30.1-6.95,6.5-8.93,7.44-24.33,11.89,23.81-2.58,47.66-3.96,71.58-2.33,24.35,3.85,40.22,18.21,49.9,40.28,2.27,7.26,6.7,13.92,6.05,21.98Z" style="fill: #e92f4c; stroke-width: 0px;"/>
  <path d="M379.92,55.46c23.15,3.11,44.22,11.56,63.44,24.74,8.01,2.53,13.77,8.37,19.82,13.7,5.66,4.98,5.51,4.92,10.64-.57,6.33-6.77,10.79-15.28,18.9-20.38,5.49-5.35,10.78-10.93,16.52-15.98,8.26-7.26,18.8-7.74,29.02-8.8,7.9-.82,15.17-3.32,21.99-7.31,5.83-2.19,7.76.65,8.07,6.04.42,7.3-1.06,14.33-3.63,20.97-1.94,5.01-1.02,7.53,4.1,8.64,1.8,3.69-1.63,3.93-3.43,4.56-6.3,2.19-12.29,5.13-18.55,7.36-21.42,8.26-40.35,20.86-58.96,34.01-3.18,5.89-2.16,12.53-3.37,18.77-.53,2.73.29,6.13-2.88,7.55-3.49,1.56-5.9-1.08-8.04-3.23-4.63-4.62-11.41-6-15.86-10.83-.86-1.18-1.11-2.53-1.06-3.95.13-1.55.29-3.12-1.77-3.65-11.62-2.11-23.44-2.28-35.08-4.21-6.87-1.14-12.85-3.93-18.85-6.89-5.14-2.53-5.28-5.19-1.14-9.5,7-7.28,6.59-12.17-1.79-17.98-7.42-5.15-15.74-8.28-24.49-10.33-20.72-4.86-41.84-6.37-62.98-7.66-2.4-.15-4.88.03-7.11-1-2.72-1.25-5.49-2.66-3.08-6.45.49-.1.97-.2,1.46-.3,11.76-3.97,24.1-5.49,36.07-8.6,1.39-.07,2.78-.15,4.17-.22,7.85-1.04,15.69-.91,23.54-.04,1.86.12,3.71.24,5.57.37,2.8,1.35,6-.39,8.77,1.15Z" style="fill: #ec5071; stroke-width: 0px;"/>
  <path d="M457.79,126.34c1.48.94,1.54,1.97.18,3.08-9.57,7.31-20.81,10.51-32.28,13.17-10.47.75-20.46-2.44-30.65-3.88-29.6-4.2-59.24-5.85-89.05-2.97-2.4.23-4.8,0-7.19.03-7.01,1.49-7.53,2.5-4.11,8.07.62,1.02,1.21,2.11,2.07,2.91,9.58,9.02,17.3,19.57,25,30.15,2.2,3.45.52,5.97-2.09,8.12-3.65,3-7.09,6.25-11.57,9.58,14.34-3.73,28.26-4.88,41.97-7.31,2.68-.54,5.37-.55,8.08-.33,3.44,1.01,7.63,1.22,7.12,6.54-8.64,5.22-18.45,6.75-28.09,8.75-17.23,3.58-35,2.91-52.24,6.76-16.72,3.73-33.28,7.88-49.34,13.89-2.94,1.1-5.83,2.35-9.09,1.84-4.42,1.77-8.83,3.56-13.26,5.3-1.22.48-2.47.35-3.02-.97-.63-1.52.79-1.99,1.72-2.65,2.72-1.95,8.56-1.36,7.73-5.84-.59-3.18-5.98-3-9.14-4.49-13.19-6.22-24.74-14.37-31.98-27.53-4.54-13.01-5.86-25.78,2.87-37.78,6.44-9.7,16.09-14.82,26.55-18.89,24-9.33,49.2-13.12,74.55-16,20.54-2.33,41.16-3.69,61.86-3.12,22.36.62,44.52,2.74,66.4,7.73,15.44,3.52,31.27,4.43,47.01,5.87Z" style="fill: #db182e; stroke-width: 0px;"/>
  <path d="M457.79,126.34c-19.83,1.36-39.02-3.39-58.38-6.27-30.03-4.45-60.04-6.53-90.44-4.18-22.76,1.76-45.36,3.99-67.72,8.68-21.8,4.57-42.89,10.58-59.83,26.18,12.67-27.74,32.52-48.71,59.18-63.43,18.97-10.47,39.91-15.95,59.75-24.21.31,6.24,5.03,5.24,8.96,5.44,22.9,1.12,45.72,2.86,68.05,8.55,8.44,2.15,16.27,5.69,23.38,10.69,8.67,6.1,8.69,13.57.23,20.14-1.29,1-3.29,1.78-2.78,3.73.52,1.97,2.64,2.37,4.34,3.29,16.11,8.7,34.16,7.2,51.38,10.02,1.41.23,2.91,0,3.88,1.38Z" style="fill: #ef6990; stroke-width: 0px;"/>
  <path d="M569.35,77.31c-1.19-.02-2.4-.18-3.58-.05-6.07.67-6.82-1.1-4.23-6.67,3.4-7.32,4.97-15.28,4.97-23.56,0-4.82-1.79-6.52-6.26-6.16,21.35-13.9,45.25-21.71,69.45-28.55,31.79-8.97,64.18-13.88,97.36-11.88,4.56.27,9.07.45,13.2,2.69-5.24,7.11-13.31,10.91-19.56,16.84-1.4,1.33-3.17,2.24-4.51,3.61-8.44,8.7-11.18,20.52,2.03,29.24,4.29,2.83,9.52,3.56,13.73,6.36,1.81,1.2,6.6,2.35,1.92,6.01-5.16.31-9.02-3.72-13.96-4.15-21.87-5.45-43.85-4.19-65.83-1.09-25.51,3.6-50.38,10.07-75.13,17.04-3.11.88-6.32,2.8-9.6.31Z" style="fill: #ed658a; stroke-width: 0px;"/>
  <path d="M6.61,391.34c5.54,2.53,11.28,1.73,16.98.91,21.74-3.14,43.5-6.19,65.2-9.59,24.54-3.84,49.03-7.99,73.53-12.07,9.89-1.65,19.76-3.45,29.62-5.28,2.83-.53,6.01-1.16,6.75-4.5.78-3.52-2.79-4.09-4.75-5.56-9-6.77-18.12-13.38-27.13-20.13-1.72-1.29-3.22-2.91-4.65-4.54-11.42-12.99-10.59-21.85,4.81-32.35,2.19-1.49,4.36-2.92,6.28-4.77,2.09-2.01,3.27-4.31,2.38-7.1-.97-3.05-3.76-3.41-6.46-3.51-9.86-.36-19.57,1.36-29.34,2.14-19.14,1.52-37.5,7.15-56.21,10.95-1.42-1.48-.17-2.63.46-3.86,6.31-8.51,16.04-11.27,25.2-15.01,5.61-.26,10.83-2.58,16.4-3.05.35.04.69.09,1.04.14,12.22-2.07,24.45-4.11,36.67-6.21,4.47-.77,8.92-1.66,13.38-2.49,5.08,11.16,12.6,20.89,18.38,31.65-1.21,3.91-4.53,6.16-7.06,9.02-6.39,7.26-7,11.96-2.53,20.34,9.78,18.33,34.75,26.24,54.78,17.29,7.69-3.44,14.92-7.9,22.98-10.54,5.18-1.7,10.66-5.16,15.25.51,4.87,6.02,7.73,12.92,4.76,20.83-2.4,6.38-7.57,9.8-13.78,11.8-12.21,3.94-24.86,5.7-37.48,7.66-46.9,7.3-93.75,14.89-140.75,21.47-27.2,3.81-54.52,6.23-81.99,6.73-1.91.03-3.87.4-5.63-.72,0-3.67.64-7.15,2.9-10.17Z" style="fill: #ecbad1; stroke-width: 0px;"/>
  <path d="M3.72,401.51c1.6-.47,3.24-1.44,4.8-1.33,10.86.77,21.54-1.44,32.35-1.61,20.14-.32,39.96-3.94,59.87-6.55,21.32-2.8,42.58-6.11,63.84-9.35,15.12-2.31,30.24-4.65,45.29-7.38,16.93-3.07,34.18-4.21,50.9-8.53,6.24-1.61,12.74-2.61,17.55-7.65,6.21-6.5,4.98-20.66-2.28-25.87-2.6-1.86-4.86-.74-7.45.11-9.42,3.1-18.19,7.62-26.96,12.12-19.52,10.02-49.33,1.29-58.71-19.5-4-8.86-3.54-13.67,3.27-20.88,2.81-2.97,5.64-5.93,8.45-8.9,7.95,1.45,14.05,6.06,19.68,11.5,1.61,3.72-.33,7.06-1.1,10.53-2.34,10.58,3.75,17.11,14.44,15.08,10.8-2.05,20.37-7.24,29.79-12.65,11.72-6.73,23.87-12.56,36.44-17.47,3.64-1.42,8.49-4.26,10.37,2.66-6.27,12.1-11.26,24.73-15.27,37.75-.17,4.82-.35,9.64-.52,14.46-.2.13-.51.22-.59.4-9.32,21.98-29.47,24.14-49.27,27.18-23.12,3.54-46.18,7.56-69.31,11.06-18.65,2.82-37.41,4.89-56.04,7.81-18.45,2.88-37.08,3.94-55.63,5.29-12.99.95-26.29-.4-39.23-3.15-5.5-1.17-10.93-1.39-16.31.52.44-1.91-.35-4.19,1.63-5.65Z" style="fill: #e5aec6; stroke-width: 0px;"/>
  <path d="M909.6,343.74c2.81,3.31,3.58,7.61,3.69,11.48.97,34.55,9.01,67.83,17.77,100.97,10.12,38.25,20.64,76.4,30.81,114.64,10.29,38.69,20.31,77.46,30.56,116.16,14.74,55.63,29.86,111.17,44.27,166.89,6.23,24.08,11.2,48.5,12.9,73.44-9.77,12.11-19.77,23.89-36.25,26.94,5.82-6.96,11.97-13.58,16.09-21.91,9.62-19.43,5.47-39.14,1.41-58.65-12.62-60.64-30.29-120.01-45.94-179.88-27.85-106.48-57.5-212.49-84.32-319.24-1.16-4.62-2.02-9.37-4.42-13.6,1.73-7.89,6.46-13.43,13.43-17.23Z" style="fill: #d40d18; stroke-width: 0px;"/>
  <path d="M332.21,526c-3.71,9.27-12.09,10.37-20.37,11.63-55.31,12.07-111.47,18.94-167.38,27.24-11.81,1.75-23.91,1.83-35.73,3.88-6.83,1.18-13.49,3.34-20.57,2.95-1.73-.1-3.16,1.05-4.29,2.39-.6.6-1.3,1.03-2.1,1.31-1.91-3.63-5.25-2.65-8.26-2.47-13.18.77-24.75-2.54-33.48-13.11-5.51-6.68-7.84-14.85-10.04-22.91-9.73-35.66-19.22-71.38-28.62-107.13-.77-2.94-.24-6.22-.32-9.34,7.99-4.08,12.24,1.09,16.87,6.4,11.4,13.06,14.91,29.36,19.04,45.38,5.2,20.21,10.05,40.5,16.34,60.41,5.71,18.06,20.55,23.83,36.78,24.95,23.74,1.63,47.3-2.64,70.78-6.03,21.3-3.07,42.57-6.37,63.85-9.57,17.27-2.59,34.54-5.13,51.8-7.78,14.18-2.18,28.36-4.39,42.5-6.8,4.98-.85,10.33-1.77,10.36-8.73,2.08,2.01,1.98,4.86,2.84,7.34Z" style="fill: #ac545e; stroke-width: 0px;"/>
  <path d="M734.1,64.31c.05-5.08-4.7-4.4-7.39-5.59-3.71-1.65-7.71-2.72-10.94-5.27-11.33-8.95-12.08-18.78-2.1-29.65,7.47-8.14,16.69-15.1,26.6-20.66,16.28,2.53,28.55,11.1,37.39,24.84,7.08,15.16,7.6,30.73,2.95,46.64-.93-.22-2.2-.85-2.77-.23-6.47,7.1-15.48,12.53-15.83,23.72-.05,1.68-.08,3.37-.73,4.96-.47,1.15-1.15,2.14-2.58,2.1-1.4-.04-2.07-1.04-2.53-2.19-.36-.89-.62-1.86-.56-2.81.83-14.24-7.73-23.08-17.72-31.14-1.59-1.28-4.04-1.94-3.78-4.73Z" style="fill: #f24c70; stroke-width: 0px;"/>
  <path d="M684.96,1064.61c21.38-5.19,43.2-7.96,64.87-11.54,26.84-4.44,53.72-8.71,80.65-12.57,14.88-2.13,29.95-2.97,44.86-4.97,10.05-1.35,20.09-1.32,30.16-1.32,2.31,0,5.35-.58,5.87,2.65.45,2.77-2.6,2.99-4.28,4.16-2.93,2.05-7.13,1.6-9.47,4.82-16.42,5.53-33.66,6.87-50.59,9.67-34.1,5.64-68.29,10.67-102.45,15.91-12.81,1.97-25.64,3.81-38.46,5.75-2.08.32-4.4-.05-5.99,1.89-8.16,9.96-19.67,12.08-31.49,13.61-8.08,1.04-16.12,2.33-24.18,3.5,6.16-4.54,13.49-6.3,20.72-6.54,7.23-.25,12.85-3.78,18.17-7.27,4.18-2.74-.69-5.39-2.71-7.64-1.04-4.43.63-7.7,4.33-10.1Z" style="fill: #b23a45; stroke-width: 0px;"/>
  <path d="M84.85,293.28c-.41.88-.82,1.77-1.23,2.65-5.28,3.35-7.24,10.13-13.21,12.76-1.22-15.6,2.07-29.61,14.31-40.44,11.98-8.56,25.45-13.85,39.72-16.65,21.25-4.18,42.66-7.57,63.99-11.36,1.45-.26,3.08-.96,3.64.82.57,1.81-1.49,1.99-2.51,2.85-4.6,3.92-11.88,4.58-14,11.51-1.87,2.64-4.8,2.82-7.62,3.44-19.2,4.19-38.76,6.58-57.48,13.12-11.48,4.01-20.71,9.81-25.61,21.3Z" style="fill: #df2039; stroke-width: 0px;"/>
  <path d="M81.76,575.4c.11-.48.22-.96.32-1.43,1.69-3.63,5.26-3.06,8.17-3.27,4.89-.36,9.87-1.85,14.75.21,2.38,1.13,3.5,2.95,1.68,5.15-6.73,8.16-4.03,17.61-2.71,26.2,4.15,27.16,8.89,54.24,15.08,81.03.47,2.04.31,4.24-.12,6.51-4.47-6.62-5.77-14.42-8.03-21.78-7.46-24.28-14.52-48.68-21.78-73.02-.26-.86-.96-1.59-1.46-2.38-1.67-1.57-1.72-3.96-2.91-5.77-1.41-3.71-2.8-7.43-2.99-11.45Z" style="fill: #a42d30; stroke-width: 0px;"/>
  <path d="M492.72,72.95c-6.74,8.33-13.51,16.64-20.19,25.01-2.33,2.91-4.3,2.77-7.1.35-7.21-6.21-14.69-12.1-22.07-18.12,16.41-2.71,32.7-6.26,49.36-7.25Z" style="fill: #f0cadf; stroke-width: 0px;"/>
  <path d="M337.87,54.2c-3.67,4.9-9.67,2.93-14.45,4.59-6.84,2.38-14.38,2.77-21.61,4.01,11.33-5.77,23.45-8.25,36.07-8.6Z" style="fill: #ef6990; stroke-width: 0px;"/>
  <path d="M365.58,53.94c-7.85.01-15.7.03-23.54.04,7.84-2.07,15.69-1.84,23.54-.04Z" style="fill: #ef6990; stroke-width: 0px;"/>
  <path d="M1074.28,897.14c-.69-4.05.7-6.41,5.11-6.33-.97,2.71-2.79,4.72-5.11,6.33Z" style="fill: #ee4660; stroke-width: 0px;"/>
  <path d="M84.76,586.85c1.91,1.45,2.64,3.5,2.91,5.77-.06,1.57-.12,3.14-.18,4.72-1.42-3.36-2.68-6.77-2.73-10.49Z" style="fill: #bb434f; stroke-width: 0px;"/>
  <path d="M379.92,55.46c-2.96-.09-6.08,1-8.77-1.15,3.01-.28,6.04-.75,8.77,1.15Z" style="fill: #ef6990; stroke-width: 0px;"/>
  <path d="M614.18,1100.72c2.63-2.46,5.78-1.25,8.76-1.24-2.72,1.87-5.78,1.25-8.76,1.24Z" style="fill: #c91b25; stroke-width: 0px;"/>
  <path d="M586.7,1105.12c2.54-2.53,5.69-1.24,8.61-1.37-2.64,1.9-5.64,1.57-8.61,1.37Z" style="fill: #c91b25; stroke-width: 0px;"/>
  <path d="M596.83,1103.51c2.18-2.11,4.8-1.33,7.33-1.13-2.27,1.53-4.81,1.28-7.33,1.13Z" style="fill: #c91b25; stroke-width: 0px;"/>
  <path d="M569.35,1107.85c2.21-2.15,4.87-1.26,7.42-1.08-2.28,1.73-4.89,1.13-7.42,1.08Z" style="fill: #c91b25; stroke-width: 0px;"/>
  <path d="M560.66,1109.35c2.06-2.14,4.65-1.32,7.1-1.3-2.16,1.59-4.59,1.65-7.1,1.3Z" style="fill: #c91b25; stroke-width: 0px;"/>
  <path d="M750.13,803.87c-11.38,4.52-17.8,15.1-26.98,22.35-12.5,9.87-25.83,18.18-41.61,19.21-13.49.87-26.94-2.79-39.71-7.98-6.65-2.7-13.49-4.95-20.19-7.52-2.13-.82-4.1-1.24-6.12.11-3.04-.29-4.87.82-5.55,4.05-.54,2.56-.5,5.9-4.49,6.02-6.79-21.31-8.16-43.81-14.3-65.27-10.77-37.61-20.98-75.39-32.69-112.73-3.58-11.42-7.02-22.91-9.26-34.71,4.09-.15,4.73,3.4,6.15,5.94,4.52,8.1,7.61,16.94,13.14,24.55,5.87,8.07,7.26,8.36,14.64,1.59.53-.49,1.24-.66,1.98-.66,3,1.4,3.65,4.44,4.56,7.08,13.5,38.87,40.05,67.08,73.48,89.42,26.07,17.42,52.63,34.07,82.45,44.64,1.88.67,4.45.92,4.48,3.9Z" style="fill: #ae3b3f; stroke-width: 0px;"/>
  <path d="M288.98,343.59c.68-14.07,7.1-25.97,14.16-37.64,3.44-8.57,9.16-15.63,14.98-22.63,3.73-4.01,6.24-9.16,11.22-12.01,3.32-.83,6.24-2.49,8.94-4.53,26.88-20.25,54.97-38.77,82.73-57.76,8.48-5.8,15.53-13.59,24.87-18.33,3.68-1.87,7.26-3.96,11.5-3.72,11.8.67,23.33-3.05,35.15-2.02,3.79.33,4.52-1.72,3.1-5.06-1.35-3.18-4.16-6.19-1.78-10.07.48-.17,1.12-.36,1.35-.08,5.51,6.86,10.37,14.04,10.9,23.25-.31,1.6-4.99,1.14-2.48,3.48,6.02,5.62,4.62,11.97,1.93,17.84-5.92,12.94-9.75,25.98-7.23,40.43.97,5.57-3.11,10.51-3.35,16.06-1.2,5.73-6.06,9.16-8.71,13.98-5.06,5.18-7.72,12.21-13.07,17.18-4.27-3.16-2.52-7.37-1.69-11.2,5.07-23.42,13.65-45.66,22.76-67.72,4.99-12.08,4.9-11.73-7.45-15.11-20.45-5.61-39.08-.49-55.57,10.86-22.58,15.54-46.44,29.5-66.47,48.49-15.9,15.07-32.51,29.41-47.4,45.51-4.72,5.1-9.33,10.73-6.55,18.72.72,2.08,1.27,4.66,3.34,5.36,9.35,3.14,17.55,9.75,28.66,7.53,21.25-4.24,42.87-6.39,64.17-10.28,12.18-2.23,20.79,2.39,27.66,11.25,14.91,19.23,28.29,39.5,39.37,61.21,2.39,4.68,6.3,7.05,10.53,9.35,6.43,17.62,10.58,35.9,15.4,53.98,2.05,7.68,4.74,15.12,6.96,22.72.85,3.42,2.27,6.6,4.2,9.55.76,1.19,1.38,2.45,1.72,3.83.71,7.02,3.04,13.43,7.29,19.1,2.09,3.42,2.84,7.4,4.6,10.97,3.66,10.61,7.04,21.3,9.51,32.26.41,1.83,1.33,3.64.31,5.55-2.55,3.28-1.11,6.75-.72,10.28.53,4.75,3.23,10.33-2.12,13.8-3.85,2.5-10.21-2.17-14.08-8.63-6.93-11.56-8.33-24.93-12.66-37.33-4.58-13.11-8.23-26.54-12.84-39.64-6.61-18.79-13.3-37.57-20.7-56.06-9.45-23.62-18.52-47.45-34.27-67.99-4.93-6.43-8.29-14.06-12.33-21.15-2.2-3.86-5.83-5.59-9.76-4.46-17.82,5.16-36.43,4.94-54.49,8.38-5.86,1.12-11.81,1.79-17.67,2.87-5.8,1.07-9.67-2.19-11.73-6.52-6.78-14.25-22.02-18.02-32.81-27.26-3.3-2.82-6.4,1.7-9.39,3.42Z" style="fill: #df2344; stroke-width: 0px;"/>
  <path d="M534.55,573.89c-3.81-12.57-7.63-25.14-11.44-37.72-1.21-18.68,4.03-25.6,22.81-29.11,19.16-3.58,38.55-5.09,58.03-4.73,13.08.24,25.23,3.83,31.93,16.01,6.95,12.63,5.37,25.51-2.68,37.49-2.32,3.3-5.98,4.68-9.38,6.38-17.37,8.68-30.46,21.36-37.42,39.83-4.4,15.78-5.01,31.61-1.13,47.59.76,3.13,2.49,6.43-.18,9.57-6.97,10.44-10.77,10.29-18.07-.22-5.49-7.9-8.83-16.87-13.39-25.22-1.24-2.27-1.79-5.02-4.39-6.34-4.89-17.84-9.79-35.69-14.68-53.53Z" style="fill: #c64755; stroke-width: 0px;"/>
  <path d="M684.96,1064.61c-1.44,3.37-2.89,6.73-4.33,10.1-26.66-12.93-43.85-33.55-52.37-62.12-9.4-31.52-17.28-63.37-24.38-95.47-5.59-25.27-10.39-50.67-14.06-76.26-1.12-7.8-.32-15.89-.2-23.85.03-2.08.44-4.88,3.09-4.96,2.4-.07,2.2,2.59,2.69,4.42,11.55,42.86,23.14,85.71,34.75,128.55.82,3.01,1.56,6.13,2.95,8.88,1.53,3.04,2.26.95,2.72-.84,4.35,16.37,8.69,32.74,13.05,49.11,5.19,19.49,10.85,38.75,23.7,54.99,3.32,4.2,6.84,7.31,12.38,7.46Z" style="fill: #df3348; stroke-width: 0px;"/>
  <path d="M290.15,368.28c1.84,19.91,7.08,39.11,12.59,58.21,7.38,25.58,15.23,51.03,22.84,76.55.4,1.35.44,2.81.64,4.22-14.87-31.64-31.55-62.68-37.18-97.74-2.19-13.64-3.8-27.64-.18-41.47.43.07.86.14,1.29.23Z" style="fill: #b15862; stroke-width: 0px;"/>
  <path d="M605.49,840.12c2.77-2.17,2.36-5.44,3.11-8.38,1.1-4.26,3.24-6.81,6.92-1.69-3.56,19.03,3.2,36.92,6.11,55.24,3.01,18.91,9.22,37.18,11.24,56.29-6.09-15.34-8.65-31.66-13.11-47.45-5.05-17.92-9.55-36-14.29-54Z" style="fill: #df3348; stroke-width: 0px;"/>
  <path d="M585.24,600.04c8.42-21.96,25.72-34.51,46.21-43.67,7.44-5.59,16.4-4.74,24.83-5.5,17.92-1.62,34.14,2.69,47.46,15.52,3.27,4.32,5.04,9.47,7.72,14.13.12.75-.04,1.44-.47,2.06-4.15,2.67-7.38-.38-10.67-1.97-14.61-7.03-29.48-13.08-45.9-14.34-5.65-.43-11.17,0-16.21,2.43-6.45,3.09-6.79,7.77-1.22,12.2,2.64,2.1,5.39,4.15,8.43,5.57,19.31,9.05,36.38,21.65,53.87,33.62,4,2.74,8.14,7.83,13.41,5.05,5.62-2.96,3.39-9.44,3.65-14.55.42-8.17-.23-16.33-.5-24.5,1.87-3.21,5.76-4.8,6.87-8.62,2.66-5.04,6.77-9.39,7.28-15.45,9.81-9.66,20.32-18.46,31.72-26.21,10.73-5.45,21.48-10.85,34.14-7.61,1.94,3.95-1.61,4.85-3.71,6.35-5.1,3.66-11.31,5.45-16.25,9.36-3.83,3.03-10.06,5.28-8.98,11.06,1.08,5.76,5.83,9.68,11.75,11.71,8.93,3.07,17.14,7.42,24.56,13.45,10.47,8.52,17.02,19.51,21.53,31.93,4.04,11.11,6.39,22.73,9.96,33.98,3.58,11.3,8.54,12.33,16.74,3.83,5.07-5.26,8.45-11.69,12.38-17.74,1.65-2.54,3.22-6.17,7-5.07,3.5,1.02,3.87,4.71,3.88,7.87.04,7.21.78,14.44-.92,21.6-.79,3.31-.45,6.71.28,10.04-2.18,14.15-8.57,26.68-15.39,38.97-1.99,3.59-2.92,8.26-7.47,10.04-6.29,9.21-12.57,18.42-18.86,27.63-10.4,11.14-19.02,23.74-29.23,35.08-8.23,9.13-17.28,17.03-27.1,24.21-5.59-6.36-13.11-9.56-20.68-12.7-29.62-12.31-55.24-31.15-81.04-49.73-11.36-8.19-22.3-16.65-31.15-27.74-16.64-20.87-29.28-44.1-40.33-68.19-5.5-11.99-13.01-23.16-15.79-36.36-.54-2.58-.98-5.2-1.8-7.73Z" style="fill: #dd2739; stroke-width: 0px;"/>
  <path d="M585.24,600.04c1.78.65,2.31,2.09,2.86,3.81,10.6,32.68,27.18,62.33,45.02,91.53,12.95,21.19,31.37,35.95,51.17,49.72,15.57,10.83,30.96,21.93,47.51,31.28,10.07,5.69,20.79,9.94,31.26,14.76,5.46,2.51,11.19,4.67,12.97,11.37-8.29,6.79-17.13,3.41-25.89,1.37-32.44-11.92-62.01-29.23-90.41-48.65-28.25-19.32-51.58-43.1-65.99-74.68-3.18-6.98-5.78-14.22-8.65-21.35-3.15-12.58-5.28-25.27-4.21-38.3.59-7.13,1.25-14.26,4.36-20.86Z" style="fill: #a1090d; stroke-width: 0px;"/>
  <path d="M835.2,151.2c-26.18-1.37-52.29,1.08-78.52,2.08,4.83-5.04,11.41-4.36,16.9-6.65,10.75-4.48,19.22-12.08,18.47-24.43-.57-9.38-7.1-14.19-13.62-19.12-2.08-1.57-4.97-1.89-6.66-4.13-1.09-1.97-1.87-3.85,1.45-4.35,14.21.26,27.94-3.58,41.99-4.92,23.56-2.25,46.93-7.03,70.78-3.83-.12.71-.09,1.48-.37,2.12-4.2,9.63-4.18,9.69,5.82,13.61,9.06,3.55,9.89,7.84,3.5,15.3-6.22,7.27-11.95,14.95-18.02,22.34-2.5,3.05-1.72,5.86.25,8.52,12.01,16.17,15.56,35.23,18.73,54.43.35,2.12.13,4.32.23,6.48.23,4.96-2.07,5.3-5.74,3.19-2.44-7.21-4.87-14.42-7.31-21.63,2.65-1.62,4.12-3.59,3.6-7.06-2.44-16.47-10.9-28.12-25.98-35.58-9.8-4.85-18.44-7.88-25.51,3.63Z" style="fill: #ee587b; stroke-width: 0px;"/>
  <path d="M773.22,94.61c-1.65,1.06-1.27,2.8-1.45,4.35-.5,0-1,0-1.5,0-5.24,2.31-7.66,7.42-9.82,11.89-7.63,15.75-20.73,24.84-35.99,31.59-21.2,9.37-43.45,15.37-66.06,20.08-8.18,1.71-16.18,3.97-24.85,2.27-6.39-1.26-11.35,3.13-16.09,6.84-7.76,6.07-15.45,12.22-23.68,17.65-1.21.66-2.47,1.23-3.7,1.84-1.18.62-2.34,1.3-3.44,2.06-11.05,5.18-22.02,10.53-32.55,16.72-4.98,2.68-9.47,6.15-14.22,9.2-2.34,1.49-4.3,3.57-6.96,4.56-4.62,1.46-8.88,2.06-10.29-4.25,1.22-2.03,3.64-1.93,5.38-3.04,5.55-2.63,9.74-7.24,14.97-10.34,16.94-11.49,36.88-17.52,53.54-29.45,15.03-10.76,29.03-22.85,43.19-34.73.97-.73,2.22-1.35,2.7-2.38,5.41-11.66,16.31-12.2,26.85-13.27,11.29-1.15,22.21-4.34,33.43-5.86,7.33-1,13.61-4.57,19.65-8.7,4.33-2.97,8.39-6.55,13.86-7.41,2.14,2.78,3.73,3.13,6.15-.2,7.36-10.13,7.44-12.9.12-22.98-3.75-5.16-8.58-8.93-13.61-12.69-3.01-2.25-7.76-3.33-7.68-8.51,4.98-.43,8.31,3.92,12.96,4.47,9.42,6.65,18.52,13.45,22.29,25.27,1.5,4.7-.2,9.57,1.61,14.12,2.94-.02,2.26-2.35,2.06-3.6-1.27-8.13,3.37-13.47,8.32-18.8,2.59-2.79,4.84-5.9,7.39-8.74,3.43-3.81,4.57-1.81,4.84,2.06-.75,7.3-4.44,13.51-7.38,19.99Z" style="fill: #ea2e4a; stroke-width: 0px;"/>
  <path d="M105.01,570.91c-7.79-.07-15.59-.3-22.92,3.06.26-4.04,3.39-4.22,6.24-4.45,32.42-2.69,64.51-7.81,96.62-12.83,35.89-5.62,71.84-10.8,107.76-16.22,6.38-.96,12.6-2.92,19.13-2.83-7.67,4.44-17.19,2.83-26.35,7.77,5.09.96,8.71,2.29,12.3,2.19,10.09-.28,15.81,5.61,20.63,13.29,19.4,30.89,31.43,64.65,40.11,99.93,8.31,33.77,18.53,67.07,26.55,100.9,9.07,38.28,19.13,76.3,28.73,114.44,12.12,48.15,25.01,96.1,37.18,144.23,3.58,14.17,6.71,28.46,10.39,42.62,2.24,8.62,1.2,17.67,1.86,26.49.54,7.3-6.64,10.63-13.07,12.56-24.14,7.27-49.09,10.57-73.87,14.64-17.69,2.91-35.34,6.16-53.12,8.33-16.9,2.06-33.94,3.13-50.93.27-3.98-.67-7.44-2.95-9.9-5.64-11.49-12.54-22.32-25.17-28.19-42.03-16.83-48.38-28.85-98.07-42.29-147.38-8.52-31.25-16.93-62.53-25.12-93.87-14.13-54.09-28.19-108.2-42-162.37-6.04-23.71-10.77-47.67-11.12-72.3-.08-5.39,1.17-10.48,2.05-15.67,1.16-6.8,5.28-11.09,11.79-13.3,3.34-1.13,7.07-1.46,11.52-5.6-12.65.16-23.39.73-33.96,3.76Z" style="fill: #bb434f; stroke-width: 0px;"/>
  <path d="M851.22,715.58c8.69-15.72,17.28-31.48,21.64-49.1,1.47-16.48,5-32.74,4.05-49.49-1.15-20.07-5.07-39.24-16.5-56.09-10.87-16.01-26.97-24.12-45.35-28.38-4.21-.98-8.6-1.12-12.65-2.81-.65-.45-1.14-1.03-1.51-1.73-4.28-15.64-6.08-31.68-6.33-47.82-.18-11.77,3.18-15.34,14.71-18.67,8.34-2.41,10.53-10.64,15.55-16.23-13.14,6.66-26.36,6.63-39.36.53-15.28-7.17-25.28-18.99-28.72-35.79-4.25-20.77-10.8-40.94-15.78-61.52-2.69-11.1-11.11-17.81-21.95-20.97-7.8-2.27-14.15.43-18.75,7.23-5.85,8.64-6.7,8.81-15.04,2.56-2.13-1.6-4.44-2.87-6.76-4.16-3.84-4.37-4.53-9.68-4.56-15.19,7.29-13.23,20.34-15.04,33.37-16.53,10.83-1.24,21.89-.15,32.27,2.07,13.66,2.92,22.86,13.11,28.11,25.95,6.21,15.18,9.4,31.35,13.8,47.11,3.43,12.29,6.39,24.73,10.18,36.91,2.25,7.24,4.22,15.15,11.97,18.95,10.4,5.09,18,3.62,26.89-4.82,16.46-15.63,30.29-33.57,44.68-51.02,9.64-11.7,19.17-23.5,28.95-35.09,1.65-1.96,3.17-4.43,6.44-3.64-.33,1.97-.67,3.94-1,5.91-4.61,5.64-9.7,10.9-13.43,17.23-4.27,2.24-5.8,6.92-8.97,10.18-2.01,2.07-2.16,4.95,1.93,5.78,5.02,1.02,6.48,5.09,8,9.27,11.39,31.17,18.29,63.64,27.84,95.34,7.19,23.86,13.16,48.06,19.78,72.07,6.62,24,12.51,48.24,19.08,72.28,8.72,31.93,17.29,63.9,25.66,95.92,9.04,34.56,17.39,69.31,26.83,103.76,5.4,19.7,8.37,39.83,12.54,59.74,1.94,9.28-1.29,18.62-1.47,27.95-.4,20.39-14.09,33.5-25.65,47.69-10.3,12.65-20.08,25.8-32.31,36.75-2.85,2.55-5.85,5-9.02,7.12-4.75,3.17-9.22,2.6-12.51-2.27-1.67-2.47-3.37-4.72-6.26-5.66-11.13-3.59-15.25-13-19.52-22.65-10.86-24.51-16.94-50.48-23.81-76.21-10.1-37.77-20.15-75.54-29.97-113.38-5.95-22.95-11.42-46.03-17.11-69.05Z" style="fill: #f1a0ba; stroke-width: 0px;"/>
  <path d="M213.25,307.79c-6.21-3.87-12.41-7.73-18.62-11.6-8.88-8.54-14.55-18.95-17.85-30.73,2.93,1.58,4,4.65,5.65,7.22,3.86,6.03,8.94,10.59,15.36,13.82,7.71,3.89,15.53,7.66,20.79,15.04,1.96,2.75,4.01,1.14,6.21-.21,25.84-15.84,51.49-32.02,77.67-47.27,31.57-18.39,62.13-38.54,94.68-55.24,4.28-4.54,10.42-5.91,15.47-9.13,4.06-2.59,9.6-4.05,8.56-10.95-.4-2.68,2.47-3.41,4.42-4.04,5.69-1.86,11.42-3.59,17.08-5.57-18.72,7.27-38.12,12.02-57.94,14.58-9.44,1.22-18.83,2.95-28.36,3.54-2.4.15-4.8.15-6.94,1.47-10.45,3.37-21.57,3.03-32.15,5.73-4.31,1.1-8.71,1.85-13.78,1.53,4.84-3.94,9.62-7.97,14.56-11.78,2.45-1.89,4.7-3.57,2.51-7,13.24-2.91,25.95-7.49,38.62-12.24,2.45-.92,5.07-1.53,7.52.22,1.13,3.97-3.65,3.72-4.65,6.67,7.37,1.37,14.37-.7,21.36-1.69,15-2.12,29.68-5.89,44.36-9.57,6.19-1.55,12.28-1.89,18.41.47,6.62,2.54,8.54,5.87,6.43,12.72-1.74,5.63-4.87,10.41-9.88,13.81-6.02,4.08-12.51,7.05-19.55,8.96-20.84,5.67-39.77,15.38-57.44,27.67-6.37,6.28-14.98,8.99-22.23,13.9-4.7,3.18-9.81,5.78-14.78,8.55-9.61,5.27-18.87,11.12-28.17,16.9-16.37,9.73-33.01,19-49.02,29.33-8.52,5.33-17.36,10.11-25.96,15.29-4.08,2.45-8.36,3.87-12.33-.4Z" style="fill: #e82949; stroke-width: 0px;"/>
  <path d="M349.44,188.72c4.83-4.94,11.93-4.33,17.45-4.89,26.54-2.67,52.46-7.35,77.33-17.2.88-.35,1.78-.69,2.71-.87.38-.07.85.3,1.46.54-3.2,6.54-10.28,5.26-15.4,7.72-2.55,1.23-5.51,1.57-8.23,2.47-1.07.36-2.92,1.38-2.16,2.34,5.44,6.84-2.35,7.98-4.94,9.82-6.19,4.42-13.12,7.91-20.53,10.16.38-4.38-2.56-4.11-5.62-4.38-12.96-1.16-24.64,3.67-36.18,8.17-24.56,9.58-48.81,19.93-73.24,29.85-3.31,1.34-6.9,1.96-10.28,3.15-2.44.85-4.38.23-5.69-1.71-6.26-9.24-9.66-10.41-20.83-8.38-6.21,1.13-12.66,2.32-18.79-.8,23.19-10.51,47.61-16.91,72.76-19.87,22.27-2.62,44.53-4.73,65.93-11.89,3.92-5.35,10.11-4.38,14.27-5.73-6.3.58-13.78,2.02-21.37,1.47-2.89,0-5.78,0-8.67.01Z" style="fill: #ee3966; stroke-width: 0px;"/>
  <path d="M84.85,293.28c.98-11.87,9.37-17.08,19.04-20.9,21.49-8.5,44.21-11.9,66.81-15.74,1.64-.28,3.24-.8,4.86-1.21,2.09,6.96-1.43,8.87-7.72,9.9-13.83,2.28-27.95,3.41-41.12,8.83,0,0,0,0,0,0-5.72,1.73-11.58,2.93-17.39,4.29-8.56,4.29-18,7.11-24.49,14.83Z" style="fill: #ab0a11; stroke-width: 0px;"/>
  <path d="M910.6,337.84c-9.75,8.95-17.27,19.84-25.72,29.92-17.57,20.95-33.96,42.92-53.75,61.95-12.96,12.46-30.02,9.77-37.62-6.57-7.22-15.53-9.67-32.61-14.54-48.91-4.46-14.93-7.54-30.27-13.13-44.87-5.59-14.59-19.96-24.36-35.44-24.94-9.06-.34-17.95-1.77-27.18-.65-11.33,1.36-20.74,5.37-28.26,13.88-3.26-1.17-3.67-4.28-4.51-6.95-6.91-21.95-16.85-42.46-28.98-61.98-1.92-3.09-5.12-6.15-2.77-10.52,4.25-4.88,4.33-10.7,3.02-16.44-2.27-9.94,1.33-16.55,9.92-21.64,13.63-8.09,28.79-10.76,43.97-13.28,32.71-5.43,65.46-10.68,98.28-15.39,16.84-2.42,33.77-4.81,50.91-3.57,6.09-.36,11.29,1.39,15.13,6.37,15.3,8.96,20.05,24.37,24.27,40.02,7.47,27.78,14.79,55.59,22.21,83.38,1.9,7.12,3.92,14.21,5.88,21.32,2.27,4.76-.28,9.61.29,14.41-.85,1.4-.22,3.46-1.97,4.46Z" style="fill: #f1c6d7; stroke-width: 0px;"/>
  <path d="M592.42,188.65c9.49-7.27,18.93-14.6,28.49-21.77,3.7-2.77,7.91-5.32,12.64-4.12,11.34,2.88,21.77-1.64,32.33-3.87,20.16-4.26,40.04-9.91,58.84-18.51,14.34-6.56,27.25-14.96,33.88-30.5,1.72-4.04,5.3-7.32,8.14-10.85.98-1.23,2.32-1.75,3.52-.06-.96,1.43-1.93,2.86-2.89,4.29-1.36,2.67.58,3.92,2.27,5.29,4.81,3.89,5.24,8.73,3.34,14.28-4.64,13.55-12.64,23.56-27.35,26.77-28.04,5.84-56.07,11.69-84.12,17.52-2.84.59-5.35,1.98-5.04,5.05.32,3.06,3.35,1.92,5.32,2.06,22.89,1.58,45.18-3.28,67.63-6.38,7.78-1.07,15.52-2.46,23.28-3.64,1.67-.25,3.39-.25,4.6,1.31-.41,3.84-3.69,3.33-6.03,3.67-50.23,7.26-100.33,15.41-150.55,22.72-1.67.24-3.36.23-5.04.01-1.63-.54-3.56-.79-3.28-3.26Z" style="fill: #e01228; stroke-width: 0px;"/>
  <path d="M594.94,190.28c18.18-2.6,36.38-5.11,54.55-7.82,20.98-3.13,41.98-6.24,62.9-9.74,14.97-2.51,30.2-3.31,44.94-7.21,25.03-2.31,49.99-6.02,75.22-4.29,9.77.67,19.5,2.35,26.71,10.15.73.79,2.11,1.55.66,2.88-4.85-1.17-8.72-5.48-14.25-4.49-10.72-1.64-21.5-1.44-32.19-.21-60.62,6.97-120.75,17.3-181.05,26.46-7.85,1.19-15.7,2.37-23.57,3.38-7.56.97-11.43-1.74-13.92-9.11Z" style="fill: #c11925; stroke-width: 0px;"/>
  <path d="M835.2,151.2c.75-4.02,4.06-6.4,6.31-9.4,1.17-1.56,3.66-2.91,5.84-1.92,14.35,6.47,29.79,11.54,36.84,27.76,2.41,5.54,3.62,11.41,4.56,17.28.59,3.66.34,7.97-5.67,5.3-4.57-6.13-7.5-13.26-12.42-19.26-9.31-11.35-22.06-16.03-35.46-19.75Z" style="fill: #f195a0; stroke-width: 0px;"/>
  <path d="M745.64,149.59c5.99-4.95,14.82-5.99,18.84-13.67,2.22-4.24,4.78-8.35,6.59-12.77,2.22-5.43,2.6-10.73-3.76-14.15-3.37-1.81-3.2-3.87.06-5.76,1.85,3.59,5.66,4.4,8.85,5.79,5.47,2.38,7.3,6.33,7.15,12.01-.32,12-6.78,20.23-19.56,24.68-5.91,2.05-11.91,3.54-18.17,3.87Z" style="fill: #ea2e4a; stroke-width: 0px;"/>
  <path d="M912.56,333.38c-.1-4.8-.2-9.6-.29-14.41,5.55,4.69.07,9.61.29,14.41Z" style="fill: #ee4660; stroke-width: 0px;"/>
  <path d="M364,223.68c5.81-6.74,14.23-9.51,21.59-13.78,12.29-7.12,25.56-12.04,39.31-15.89,9.42-2.64,18.94-6.31,23.85-15.99,6.5-12.79,1.79-14.81-9.57-16.77-4.85-.84-9.53.76-14.16,2-17.59,4.71-35.43,8.22-53.43,10.75-4.55.64-9.56,1.37-14.17-1.78,2.16-3.85,7.05-3.45,9.25-6.67,2.61-4.55,7.51-4.84,11.75-5.92,13.67-3.49,27.26-7.22,40.69-11.54,4.67-.17,9.05-1.52,13.28-3.43.88-.4,1.46-.77.57-.39-.08.03-.27-.19-.47-.29-2.14-.3-4.16-.7-4.95-3.06,10.14-3.84,20.28-7.68,30.43-11.51,0,1.42,0,2.84-.01,4.26.65,6.13.49,12.3,4.89,17.62,5.11,6.19,11.7,7.11,18.8,6.48,4.39-.39,3.88-4.17,3.67-7.28-.68-10.04-.72-20.05,1.44-29.95,17.45-11.88,35.24-23.18,54.47-32.01,1.49-.68,3.2-.87,4.8-1.29,4.67,0,6.79,1.56,3.84,6.25-17.84,8.69-32.1,21.86-45.66,36.05-7.44,7.79-11.12,16.69-11.19,27.29-.02,2.38-.02,4.75.75,7.04.53,2.03.73,4.07.23,6.13-.14,3.85,2.01,6.92,3.78,9.99,3.04,5.28.51,7.64-4.25,7.03-12.5-1.6-24.61,2.06-37.02,1.98-9.17-.07-16.61,6.44-23.03,12.26-10.76,9.75-23.25,16.78-34.9,25.12-19.08,13.66-38.99,26.13-57.47,40.66-3.49,2.74-7.03,6.02-12.11,5.68-.35-.62-.44-1.27-.22-1.95,4.08-6.62,9.72-12.02,14.36-18.2,14.65-13.35,31.88-23.03,48.3-33.85,5.8-3.82,12.13-6.81,17.51-11.31,4.54-3.8,10.47-4.18,14.05-5.85-16.12,4.62-33.91,9.58-49.73,19.77-2.63,1.7-5.53,4.16-9.26,2.35Z" style="fill: #d10a16; stroke-width: 0px;"/>
  <path d="M548.93,93.08c2.67-3.76-.62-4.55-2.91-5.84,7.21-4.65,15.84-5.94,23.33-9.93,20.14-5.12,40.04-11.14,60.44-15.3,23.55-4.79,47.23-7.87,71.29-6.37,6.81.42,13.73,1.12,20.06,4.2,2.98,3.85,7.12,6.36,11.13,8.83,6.57,4.04,10.99,9.97,14.98,16.21,4.33,6.77-.27,21.14-7.63,24.88-.77.39-2.12.71-2.66.32-2.21-1.61.5-3.45.01-5.22-.25-.44-.44-.94-.23-1.33,5.06-9.71,4.67-12.2-3.22-19.96-11.89-9.12-26.11-9.79-39.96-9.63-11.46.13-23.02,1.61-34.4,3.62-3.11-.14-5.23,1.26-7.26,3.68-4.46,5.32-8.8,10.73-13.14,16.14-1.64,2.04-3.28,4.16-6.01,4.9-4.64-2.46-1.68-5.11-.11-7.61,2.88-4.57,7.42-7.96,10.23-13.6-4.66-.22-8.21,1.46-11.92,2.13-4.78.52-9.26,2.74-14.17,2.54-14.68-8.68-29.05-3.94-43.47.89-6.36,2.13-12.85,3.83-18.99,6.61-1.73.78-3.64,1.41-5.38-.17Z" style="fill: #e11c33; stroke-width: 0px;"/>
  <path d="M486.75,120.55c.81,10.75-.83,21.53,1.02,32.35.68,4-.55,7.97-7.91,7.39-9.55-.76-16.52-3.22-21.27-11.77-2.81-5.05-2.96-9.78-.62-14.84,6.41,3.97,13.8,6.4,18.91,12.39,1.06,1.24,2.42,2.53,4.31,1.59,1.88-.93,1.3-2.86,1.51-4.44,1.02-7.62-.55-15.7,4.06-22.68Z" style="fill: #db182e; stroke-width: 0px;"/>
  <path d="M263.21,193.12c-18.19-.61-36.48-.74-53.37-9.12-3.94-1.96-7.66-4.13-8.1-9.27-.18-2.08-1.79-3.3-3.47-4.35-7.06-4.4-6.74-11.64.81-15.68,13.5-7.22,28.41-10.18,43.1-13.58,10.69-2.48,21.63-3.93,32.46-5.77,5.21-.88,8.92-.17,10.97,6.09,2.61,7.99,7.55,14.99,12.83,21.61.74.93,1.42,1.93,2.02,2.97,8.79,15.33,4.02,24.03-13.55,25.71-7.89.76-15.73,1.71-23.69,1.4Z" style="fill: #cd040e; stroke-width: 0px;"/>
  <path d="M427.55,140.94c2.04,2,4.64,1.34,7.07,1.51-3.47,5.81-9.9,4.66-15.09,6.44-14.74,4.15-29.4,8.46-45.07,7.22-23.76-1.87-47.35-4.39-69.39-14.34-3.62-1.63-8.75-2.17-8.9-7.94,25.48-1.52,50.98-2.95,76.43-.02,15.02,1.73,29.94,4.24,44.92,6.31,3.32.46,6.68.56,10.03.82Z" style="fill: #f1cde1; stroke-width: 0px;"/>
  <path d="M296.17,133.82c9.28,8.27,21.08,10.92,32.53,13.9,13.46,3.5,27.37,4.69,41.22,5.97,15.01,1.38,29.71-.23,44.09-4.68,2.11-.65,4.13-1.21,6.33-.85.48.33.62.65.45.95-.17.3-.34.44-.51.44-17.87,5.33-35.74,10.67-53.61,16-8.32.22-15.24,4.9-22.93,7.09-7.56,2.15-14.74,6.66-23.16,4.55-2.56-1.46-4.82-3.38-5.89-6.11-2.46-6.27-7.14-10.72-11.8-15.23-3.8-3.67-7.44-7.43-10.38-11.89-3.49-5.27-3.22-8.81,3.67-10.14Z" style="fill: #d04153; stroke-width: 0px;"/>
  <path d="M358.11,188.71c9.11-3.32,18.73-1.97,28.13-3.31-6.44,4.42-14.29,4.39-21.03,7.57-1.45-2.96-4.22-3.7-7.1-4.26Z" style="fill: #e82949; stroke-width: 0px;"/>
  <path d="M109.34,278.45c5.5-2.62,11.31-4,17.39-4.29-5.35,3.23-11.2,4.47-17.39,4.29Z" style="fill: #ec6b8d; stroke-width: 0px;"/>
  <path d="M213.25,307.79c4.39,1.9,8.26.89,12.25-1.54,8.42-5.12,17.04-9.89,25.58-14.81.98-.29,2.1-.28,2.66.49,5.24,7.18,11.63,5.46,18.52,2.92,12.53-4.61,24.82-10.02,38.02-12.59,3.11-.61,6.69-2.16,8.84,2-5.32,7.23-10.65,14.46-15.97,21.69-1.25-4.74-4.31-2.61-6.84-1.67-12.87,4.8-25.17,10.81-37.13,17.53-9.86,5.54-19.78,10.8-30.97,13.39-10.1,2.33-21.09-3.97-16.89-17.64.98-3.18,2.74-6.23,1.94-9.77Z" style="fill: #db7f96; stroke-width: 0px;"/>
  <path d="M505.66,494.21c-9.06-25.55-15.13-51.93-21.9-78.13-2.17-1.38-3.1-3.52-3.67-5.9-4.46-18.54-10.67-36.64-13.89-55.49-.06-1.94-.44-3.86-.65-5.79.03-1.23.36-2.33,1.37-3.14,19.26-4.44,38.9-6.64,58.36-9.89,28.52-4.76,57.19-8.63,85.32-15.53,6.15-1.51,12.03-3.62,16.98-7.68,5.4-4.42,6.21-9.57,1.19-14.22-13.99-12.95-29.11-23.03-49.86-18.4-12.42,2.77-24.87,5.99-37.85,4.81-3.36-.31-6.83-.09-9.97-1.41-14.55-6.12-27.32-1.2-39.71,6.23-2.05,1.23-3.7,3.13-6.16,3.66-3.93-1.9-1.45-4.17-.08-5.94,2.72-3.53,6.38-6.26,8.93-9.98,1.58-2.2,3.5-4,6.02-5.08,3.81-1.51,7.31-3.7,11.1-5.24,6.55-2.66,13.52-5.11,20.34-2.47,15.15,5.88,30.25,3.85,45.49,1.15,6.95-1.23,13.82-1.02,20.79.36,6.9,1.37,12.44,4.49,17.26,9.65,6.77,7.24,14.92,12.88,23.27,18.18,3.07,3.09,2.84,7.27,3.7,11.1.11,11.69-1.79,22.96-5.85,33.99-5.87,15.95-8.55,32.29-8.07,49.58.53,19.35,3.72,38.32,5.2,57.51,1.07,13.94-2.82,21.17-15.84,26.82-15.14,6.57-31.29,9.66-47.36,12.83-17.5,3.44-35.1,6.35-52.66,9.45-4,.7-8.08,1.98-11.78-1.01Z" style="fill: #d58ba0; stroke-width: 0px;"/>
  <path d="M505.66,494.21c13.01-.2,25.52-3.8,38.24-5.89,20.3-3.33,40.54-7.08,60.38-12.71,4.89-1.39,9.47-3.37,14.11-5.29,11.83-4.89,13.7-11.36,12.78-24.45-1.12-15.96-4.43-31.78-5.26-47.74-1.11-21.32.54-42.4,9.25-62.53,4.2-9.7,5.25-20.4,4.95-31.07,5-.16,5.65,4.05,6.61,7.25,6.61,22.18,14.23,44.07,19.63,66.59,15.41,64.26,28.78,129,45.24,193.02.83,3.22,2.21,6.54-.61,9.55-4.2-3.3-5.65-8.12-7.18-12.91-1.93-2.49-3.43-5.13-4.21-8.28-6.66-26.93-13.88-53.71-19.67-80.85-3.04-9.37-12.27-14.05-20.03-8.46-17.51,12.6-38.06,15.33-58.08,19.95-26.41,6.1-53.28,9.6-80,13.99-4.05.67-8.15,1.01-11.86-1.46-2.23-2.51-3.93-5.29-4.3-8.72Z" style="fill: #ba6573; stroke-width: 0px;"/>
  <path d="M631.47,81.79c3.08-2.03,6.77-2,10.18-2.9,1.27-.34,2.97-.39,3.76,1.2.77,1.54-.19,2.72-1.14,3.82-3.43,3.94-6.87,7.88-10.29,11.82-1.52,1.75-3.82,3.34-1.33,5.99,1.91,1.27,3.84,2.5,6.28,1.29,14.65-3.96,29.72-5.24,44.66-7.28,15.48-2.12,30.72-5.14,45.2-11.27,2.24-.95,4.55-1.47,6.98-1.48,2.52,1.3,3.41,3.98,4.79,6.13,4.05,6.3,2.21,11.55-3.59,15.76-5.46,3.42-11.12,6.55-16.32,10.32-9.99,7.25-21.92,7.39-33.25,9.87-9.56,2.09-19.2,3.47-28.92,4.52-4.59.5-9.4,1.29-11.33,7.11-1.03,3.1-3.96,5.34-6.92,7.07,3.4-16.64-9.25-26.86-15.89-39.45-2-3.79-5.21-6.91-7.93-10.28-8.95-11.11-14.93-13.03-28.29-8.51-6.15,2.08-12.26,4.3-18.42,6.38-3.23,1.09-6.17,2.73-8.71,5-1.49,1.33-2.68,2.97-1.74,5.08.86,1.93,2.73,1.7,4.4,1.45,3.35-.49,6.71-.71,10.08-.4,5.77.53,9.31,3.65,10.16,9.45,1.01,6.9-2.06,12.79-7.63,14.7-4.71,1.61-9.54,1.52-14.22.06-5.4-1.69-10.28-1.17-15.23,1.64-10.54,5.99-21.35,10.59-34.1,9.89-7.83-.43-12.23,8.31-9.05,16.58,3.76,9.78,9.54,18.63,16.59,26.09,8.26,8.74,12.88,17.1,5.62,28.4-.06.71-.18,1.41-.34,2.1-.64,2.01-.76,4.21-2.19,5.92-5.16,3.17-8.44,1.26-10.62-3.87-2.51-5.9-4.86-11.88-7.66-17.65-.55-1.13-.36-2.32.53-3.31-2.86-8.18-6.58-15.93-11.58-23.03-1.93-1.62-1.06-3.91-1.42-5.9-1.55-2.23.23-5.04-1.27-7.27-.09-11.03,3.47-20.43,11.52-28.29,12.64-12.34,24.4-25.7,40.82-33.37,1.72-.8,3.53-1.4,5.3-2.09,13.74-4.86,27.31-10.08,41.68-13.16,9.94-2.13,18.47-.73,26.58,4.99,5.85,3.98,10.68,3.23,14.28-3.12Z" style="fill: #ce506a; stroke-width: 0px;"/>
  <path d="M681.96,478.25c6.08,30.22,14.5,59.88,21.84,89.8-6.89-3.28-11.98-9.38-19.34-11.99-16.02-5.67-32.06-3.37-48.14-.56-1.63.29-3.26.58-4.88.87,1.31-3.05,2.73-6.06,3.91-9.15,8.54-22.39-3.65-41.36-27.79-42.67-22.7-1.24-45.34,1.23-67.69,5.66-9.17,1.82-14.24,8.24-15.41,19.15-.25,2.31.74,4.88-1.35,6.82-1.45-3.39-2.9-6.79-4.35-10.18-1.35-4.19-4.49-8.11-1.66-12.87,1.91-3.23-5.1-3.46-2.46-7.05,9.88-2.96,20.16-3.56,30.25-5.16,29.44-4.66,58.71-10.15,87.88-16.24,7.8-1.63,15.25-4.42,22.61-7.47,9.01-3.73,17.86-2.72,26.58,1.05Z" style="fill: #c03741; stroke-width: 0px;"/>
  <path d="M467.87,354.03c4.15,20.98,10.78,41.33,15.89,62.06-5.48.55-8.39-2.73-10.55-7.1-11.22-22.67-25.61-43.34-40.65-63.53-7.85-10.54-18.62-11.05-31.01-8.64-21.08,4.1-42.5,6.48-63.73,9.82-4.38.69-8.16-.06-11.55-2.56-2.23-1.65-4.74-2.38-7.24-3.08-10.62-2.99-14.42-11.84-8.81-21.52,6.39-11.02,16.54-18.66,25.37-27.47,2.03-2.02,4.59-3.52,6.55-5.59,19.96-21.03,42.26-39.13,66.86-54.44,11.97-7.45,22.32-17.22,35.84-22.54,14.39-5.65,28.5-7.16,43.42-3.18,13.32,3.55,13.63,3.44,8.35,16.08-9.36,22.4-17.92,45.04-23.39,68.76-.82,3.54-1.77,6.99.26,10.42,1.55,2,.34,3.86-.26,5.76-3.9,7.71-4.59,15.99-4.65,24.47-.03,4.92,1.3,10.11-1.76,14.71-.08.97-.16,1.94-.24,2.91.02,2.22-.9,2.07-2.24.89-4.75-12.15-2.57-24.72-2.32-37.18.62-2.68,1.11-5.4,1.47-8.13.62-2.82,1.66-5.7,1.13-8.55-3.06-16.72,4.63-30.48,12.03-44.3,3.87-7.23,7.94-14.36,10.91-22.01,2.53-6.54,1.55-8.04-5.17-9.28-1.9-.35-3.76-.83-5.61-1.35-8.49-2.39-16.86-2.33-24.25,2.97-16.2,11.62-35.34,17.43-52.54,27.07-14.37,8.05-27.96,17.21-39.45,29-12.93,13.26-28.33,24.04-39.27,39.28-6.11,8.52-5.28,10.68,4.04,14.94,6.69,3.06,13.22,3.6,20.36,2.13,21-4.32,42.4-6.24,63.49-10.08,6.54-1.19,12.47-.16,16.96,5.4,1.69,2.09,4.01,3.52,6.29,4.81,6.52,3.68,10.95,9.04,14.57,15.57,5.37,9.69,13.95,16.98,20.42,26.1,1.1-3.77-.03-7.08-.85-10.42.17-4.09-4.88-8.76,1.31-12.2Z" style="fill: #e53e5a; stroke-width: 0px;"/>
  <path d="M319.12,284.26c-5.07-2.49-9.84-.07-14.43,1.36-10.7,3.33-21.47,6.65-31.73,11.09-9.15,3.97-16.31,3.73-21.88-5.27,15.74-10.66,32.22-20.07,49.07-28.86,8-1.47,15.67.4,23.23,2.62,2.85.84,6.12,1.92,5.98,6.03-.12.5-.24.99-.37,1.49-3.29,3.85-6.59,7.69-9.88,11.54Z" style="fill: #cc4d62; stroke-width: 0px;"/>
  <path d="M505.57,193.03c3.31,7.45,7.11,14.74,9.77,22.42,1.79,5.16,5.58-.07,7.48,2.37.44.23.61.5.52.81-.1.33-.21.49-.34.49,2.17,5.25,6.11,4.24,10.15,2.88,1.11,2.73-.61,4.62-2.07,6.46-10.19,12.78-20.66,25.33-30.83,38.13-1.61,2.03-3.35,4.16-6.23,4.6-.32-.35-.98-.87-.91-1.02,5.82-11.18.68-23.4,3.37-34.97,1.7-7.32,3.94-14.25,7.22-20.97,4.4-9.03,2.89-13.83-6.6-19.35,3.64.14,5.09-3.75,8.46-1.85Z" style="fill: #d80f24; stroke-width: 0px;"/>
  <path d="M681.96,478.25c-14.81-3.71-27.97,2.31-41.77,6.24-25.77,7.34-52.33,11.26-78.77,15.51-12.27,1.97-24.61,3.61-36.76,6.16-3.52.74-7.24-1.89-10.36,1.09-1.59.84-2.05-.62-2.86-1.39-.49-.97-.99-1.95-1.48-2.92,19.22-.06,37.82-4.89,56.65-7.77,23.58-3.61,46.94-8.56,69.87-15.31,6.72-1.98,13.63-3.95,18.57-8.89,7.01-7.01,14.62-4.4,22.1-2.5,4.55,1.16,2.82,6.66,4.81,9.78Z" style="fill: #c64755; stroke-width: 0px;"/>
  <path d="M494.02,271.19c11.91-14.58,23.84-29.14,35.7-43.76,1.34-1.65,2.29-3.61,3.43-5.43,1.97-1.41,3.94-2.83,5.91-4.24.96,6.39,3.57,12.15,6.2,18.01,3.04,6.77.44,13.76-6.41,14.91-15.56,2.62-27.33,10.71-37.34,22.22-.46.53-1.2.78-1.84,1.1-1.44,1.39-2.87,2.79-4.31,4.18-3.58,1.6-4.49,7.64-10,6.01,1.49-5.27,6.12-8.44,8.67-13Z" style="fill: #e53e5a; stroke-width: 0px;"/>
  <path d="M485.35,284.19c4.57.06,5.78-5.49,10-6.01-2.43,5.97-9.81,8.09-11.42,14.7-1.78,6.21-4.98,11.15-11.62,13.01.39-1.46.78-2.92,1.17-4.39,2.34-6.88,6.65-12.42,11.86-17.33Z" style="fill: #db7892; stroke-width: 0px;"/>
  <path d="M511.44,505.86c.95.46,1.91.93,2.86,1.39,3.98,1.61,8.8,2.34,3.49,8.45-2.26,2.6,1.61,6.69.97,10.3-4.59-5.93-7.61-12.43-7.32-20.13Z" style="fill: #c91b25; stroke-width: 0px;"/>
  <path d="M638.64,239.38c5.17,11.27,12.34,21.41,17.95,32.47,7.51,14.78,12.68,30.36,18.36,45.8,1.56,4.76,1.57,9.97,4.3,14.37,4.05,5.78,4.47,12.69,5.65,19.26,7.03,38.95,15.78,77.53,24.42,116.14.65,2.27.86,4.64,1.7,6.86,6.24,25.63,12.23,51.33,18.88,76.86.98,3.74,1.35,7.47,1.17,11.29,1.06,6.83-3.94,10.82-7.3,15.58-6.23.8-7.63-4.01-9.07-8.25-3.74-10.96-5.86-22.35-8.49-33.6-10.89-46.67-20.17-93.71-32.04-140.14-10.2-39.9-21.87-79.39-40-116.61-.63-1.3-1.12-2.66-1.48-4.06-4.51-13.79-11.86-26.19-19.55-38.32-5.67-8.94-8.91-18.55-10.61-28.8-.45-2.74-1.21-6.34,1.9-7.75,2.78-1.27,4.63,1.78,6.51,3.49,10.01,9.09,17.87,20.01,25.84,30.83,1,1.35,1.87,2.81,1.87,4.59Z" style="fill: #dcd6d8; stroke-width: 0px;"/>
  <path d="M802.39,528.69c39.35,3.28,65.63,25.21,73.68,65.38,4.72,23.55,3.35,46.71-1.88,69.87-.2.9-.88,1.69-1.33,2.54-2.4-3.84-1.29-7.82-.53-11.82,1.4-7.41.54-14.89.48-22.34-.01-1.59-.63-3.56-2.4-4.13-2.19-.71-2.68,1.45-3.57,2.79-5.34,7.96-9.59,16.66-16.93,23.23-6.28,5.62-13.06,4.48-15.65-3.52-3.62-11.18-6.6-22.58-9.9-33.87-7.22-24.72-23.02-41.14-47.64-48.74-6.49-2.01-8.98-7.57-12.47-12.32-2.03-2.77.43-4.28,1.95-6.09,6.88-8.19,16.87-11.66,25.63-17,1.62-.99,3.63-1.47,4.32-3.57,1.96-2.08,4.08-1.67,6.25-.4Z" style="fill: #ed4c67; stroke-width: 0px;"/>
  <path d="M802.39,528.69c-2.08.13-4.17.26-6.25.4-12.45-.94-23.72,2.96-34.58,8.51-14.97,2.4-23.79-3.51-26.8-17.9-.69-3.31-1.03-6.65-1.15-10.03-.46-12.73,3.38-22.58,16.52-27.26,5.16-1.84,10.34-3.98,15.13-6.8,3.68-2.16,7.54-4.17,10.51-9.12-22.96,1.14-44.16,9.33-66.38,7.58-1.85-1.63-1.11-3.86-1.39-5.86-1.28-4.76,2.46-4.91,4.98-4.44,10.87,2,20.93-1.57,31.18-3.9,14.32-3.25,28.84-4.95,43.51-5.37,2.39-.07,4.84-.1,7.1.88,3.02,1.31,4.5,3.89,1.65,6.05-11.28,8.53-9.86,20.57-9.35,32.3.23,5.26,1.26,10.49,1.87,15.74.99,8.51,3.31,15.96,13.09,18.02.06.42.17.83.33,1.22Z" style="fill: #e0637e; stroke-width: 0px;"/>
  <path d="M709.41,474.06c.85-1.53,1.91-3.12,3.83-2.79,17.07,2.96,33.01-3.79,49.5-5.73,3.8-.45,7.56-1.18,11.36-1.61,1.58-.18,3.55-.69,4.42,1.37.82,1.93-.67,3.13-1.8,4.35-4.86,5.25-11.18,8.25-17.52,11.17-2.4,1.1-4.83,2.13-7.31,3.04-16.84,6.18-16.97,13.96-15.74,33.19,1.04,16.37,12.71,18.97,25.42,20.55-10.17,8.28-20.34,16.56-30.51,24.84-6.31-20.31-10.54-41.15-15.66-61.77-2.19-8.81-5.2-17.47-5.99-26.61Z" style="fill: #d44d65; stroke-width: 0px;"/>
  <path d="M634.29,274.05c7.97,18.23,16.25,36.36,22.51,55.27,15.53,46.9,26.72,94.93,37.02,143.21,6.79,31.83,14.67,63.43,22.14,95.11,1.06,4.5,2.62,8.86,7.8,10.38-.51,4.1-2.62,6.75-6.81,7.5-3.67.76-4.75-1.94-5.96-4.47,0,0-.02-.08-.02-.08-1-12.78-5.76-24.69-8.59-37.04-12.96-56.54-25.68-113.15-39.25-169.55-5.16-21.42-12.37-42.36-18.69-63.49-.75-2.52-1.59-5.11-4.32-6.34-1.45-3.22-.57-7.09-2.81-10.08-3.61-3.08-5.08-7.51-7.01-11.58-4.71-9.96-9.03-20.1-14.44-29.72-.83-1.48-1.54-3.01-.77-4.76,4.58-1.72,5.65,2.32,7.22,4.81,4.28,6.77,8.04,13.86,11.98,20.84Z" style="fill: #b4a6a6; stroke-width: 0px;"/>
  <path d="M711,581.04c1.99,1.49,3.97,2.98,5.96,4.47,1.95,10.74,1.3,21.59,1.21,32.4-.08,10.1-5.7,13.42-13.76,7.79-21.68-15.15-43.78-29.58-67.01-42.24-3.94-2.15-8.23-5.16-6.77-9.87,1.41-4.54,5.75-7.47,10.91-8.46,10.61-2.03,20.92-.46,31.09,2.46,10.9,3.13,21.29,7.53,31.37,12.75,2.08,1.08,4.36,3.75,7,.7Z" style="fill: #eb5d74; stroke-width: 0px;"/>
  <path d="M524.49,210.48c-1.57-2.59-.2-4.63,1.36-6.51,4.79-5.77,2.64-10.38-1.92-15.14-8.69-9.07-15.73-19.42-21.19-30.71-5.99-12.38-.11-22.14,13.37-21.34,11.16.66,20.07-4.33,29.07-9.26,5.86-3.21,11.45-4.6,17.69-2.01,3.04,1.26,6.18,1.13,9.25.84,7.3-.68,10.47-4.82,10.17-12.77-.24-6.3-3.46-8.85-11.27-8.84-2.63,0-5.26-.22-7.84.8-2.38.94-4.98,1.14-6.28-1.59-1.34-2.82-.99-5.71,1.59-7.85,1.66-1.37,3.37-2.88,5.32-3.68,11.32-4.62,22.68-9.47,34.75-11.44,6.78-1.11,12.34,3.68,16.73,8.46,11.63,12.65,19.19,28.07,28.11,42.55,3.11,5.05-3.26,7.51-3.17,11.73-16.11,13.09-31.47,27.14-48.98,38.44-11.48,7.41-24.52,11.75-36.28,18.63-3.88,2.27-7.05,5.82-11.7,6.72-.75-3.73,2.31-4.92,4.51-6.53,8.97-6.59,19.27-10.78,29.09-15.83,17.05-8.77,31.95-20.4,45.41-33.96.96-.97,2.34-1.79,2.08-4.24-5.57,2.66-10.63,5.59-15.17,9.41-16.66,14.02-34.49,26.03-55.17,33.46-8.3,2.98-14.7,8.92-20.93,15.02-2.43,2.38-4.2,6.12-8.59,5.61Z" style="fill: #eb6388; stroke-width: 0px;"/>
  <path d="M615.47,247.92c6.3,13.09,12.63,26.16,18.89,39.27,1.12,2.35,1.97,4.84,2.94,7.26-9.08-3.27-16.29-9.5-22.53-16.34-10.36-11.34-23.05-12.34-36.75-10.48-14.82,2.01-29.49,5.71-44.34-.55-7.97-3.36-15.9-.99-23.48,2.55-3.44,1.6-6.49,4.2-10.53,4.37,8.6-12.85,19.77-21.57,35.56-24.19,9.8-1.63,12.13-7.37,7.24-16.08-2.86-5.1-5.73-9.9-3.41-15.97,4.83-2.87,8.92-6.96,14.37-8.82,11.15-6.92,20.48-3.99,29.23,4.83,5.03,5.07,10.46,9.74,15.05,15.25,1.3,1.56,2.26,4.1,4.91,1.64,7.66,3.23,10.52,10.05,12.86,17.26Z" style="fill: #db7892; stroke-width: 0px;"/>
  <path d="M615.47,247.92c-4.78-5.35-7.16-12.5-12.86-17.16-.28-.26-.55-.51-.83-.76-3.32-12.25-5.81-24.79-12.52-35.87-.76-1.26-.87-2.74.19-4.05.99-.48,1.98-.96,2.97-1.43.84.54,1.68,1.09,2.52,1.63,4.75,6.43,10.32,7.9,18.66,6.51,42.21-7.05,84.55-13.36,126.9-19.53,28.32-4.13,56.62-8.49,85.29-9.68,6.76-.28,13.39.21,19.88,2.18-1.68.07-3.36.27-5.03.2-25.28-1.09-49.87,4.35-74.64,7.94-23.35,3.38-46.71,6.82-69.94,10.96-15.67,2.79-31.54,5.13-45.44,14.35-7.02,4.66-9.15,9.91-6.79,17.55,1.17,3.78.82,7.67.5,11.46-.29,3.35-1.32,6.76-5.69,7.16-9.76-10.87-17.16-23.73-28.32-33.4-1.77-1.53-2.96-3.8-6.31-4.74.19,13.35,4.34,24.85,11.25,35.75,7.45,11.75,14.38,23.84,19.04,37.07-4.78-4.67-7.31-10.86-11-16.26-2.37-3.48-3.9-7.62-7.82-9.87Z" style="fill: #dba8b7; stroke-width: 0px;"/>
  <path d="M524.49,210.48c2.64-2.45,5.38-4.8,7.89-7.37,7.14-7.32,15.18-13.07,24.96-16.55,18.81-6.7,34.8-18.21,49.91-30.94,4.84-4.08,10.45-6.8,15.6-10.29,1.34-.91,3.03-1.94,4.53-.19,1.89,2.2-.1,3.5-1.36,4.82-13.23,13.76-27.9,25.68-44.69,34.85-10.96,5.99-22.79,10.36-32.95,17.86-1.94,1.43-4.12,2.5-5.12,4.87-4.71,3.55-8.97,7.74-14.46,10.19-5.29.94-5.45-2.06-4.5-5.9.05-.45.11-.9.19-1.35Z" style="fill: #f2939f; stroke-width: 0px;"/>
  <path d="M602.61,230.76c-.09,1.41-.18,2.82-.28,4.32-2.52.36-3.45-1.63-4.42-2.95-6.42-8.78-14.87-15.42-23.02-22.38-4.14-3.53-8.62-4.79-13.82-2.19-2.36,1.18-4.95,1.72-7.64,1.38,10.06-7.59,21.81-11.98,33-17.41,5.25,5.53,8.23,12.38,9.57,19.6,1.27,6.88,3.96,13.1,6.49,19.46l.13.17Z" style="fill: #b54c50; stroke-width: 0px;"/>
  <path d="M602.49,230.59c-4.09-4.74-7.2-9.58-7.56-16.43-.29-5.59-2.84-11.15-5.93-16.08-1.29-2.06-2.7-3.97-2.57-6.55,1-.48,2.01-.96,3.01-1.45,4.92,9.31,9.09,18.89,11.6,29.2.92,3.77,1.77,7.43,1.44,11.31Z" style="fill: #db7892; stroke-width: 0px;"/>
  <path d="M524.3,211.84c.01,3.1.82,5.6,4.5,5.89-1.57,2-3.78,1.29-5.8,1.39-.05-.44-.12-.87-.18-1.3.44-2.01-.55-4.37,1.48-5.98Z" style="fill: #eb6388; stroke-width: 0px;"/>
  <path d="M308.96,1109.38c-13.75,1.84-25.45-4.25-37.06-9.95-9.02-4.43-12.35-13.87-16.29-22.25-14.8-31.49-21.58-65.53-31.22-98.69-8.11-27.87-14.53-56.17-22.73-84.02-8.53-28.98-16.38-58.21-23.4-87.59-6.35-26.59-13.97-52.83-20.22-79.45-5.41-23.08-12.39-45.83-15.82-69.32-1.81-12.4-6.1-25-2.33-37.59,4.39-14.69,10.24-27.94,27.06-33.72,18.65-6.41,38.12-6.35,57.03-10.18,9.49-1.92,19.13-1.74,28.6-2.18,18.79-.88,38.44-1.97,54.35,10.91,12.34,9.99,20.17,23.71,25.57,38.56,18.92,51.99,30.64,106,44.37,159.45,13.2,51.36,26.36,102.72,39.56,154.07,7.58,29.47,15.73,58.85,21.97,88.65,2.59,12.37,3.58,25.1,4.99,37.69,1.12,9.98-4.12,16.74-12.6,20.69-21.3,9.91-44.15,14.26-67.17,17.8-13.7,2.1-27.13,5.7-41.07,6.54-4.53.27-9.09.32-13.59.61Z" style="fill: #d25e75; stroke-width: 0px;"/>
  <path d="M802.06,527.47c-11.16,0-11.46.08-13.87-10.89-2.78-12.69-4.38-25.62-3.27-38.61.54-6.37,1.99-12.95,8.65-16.46,1.37-.72,3.74-1.09,3.08-3.28-.57-1.87-2.7-1.66-4.39-1.68-13.23-.23-26.31,1.33-39.28,3.65-8.24,1.48-16.44,3.29-24.56,5.34-4.8,1.22-9.36,1.55-14.16.09-2.44-.74-5.44-1.4-6.25,2.55-5.16-15.12-7.57-30.93-11.04-46.44-6.41-28.59-11.82-57.4-17.62-86.13-.23-1.16-.09-2.39-.12-3.59,3.87.42,6.42,2.95,9.08,5.45,3.63,3.41,7.11,4.41,9.17-1.57,3.37-9.79,15.48-13.62,24.59-9.63,10.11,4.43,18.54,10.78,20.91,22.08,4.52,21.53,11.87,42.3,16.1,63.95,3.68,18.82,24.54,36.03,42.92,35.69,8.31-.16,16.37.1,22.9-6.17,1.06-1.02,2.63-1.72,3.81-.31.95,1.13-.2,2.17-.9,3.12-3.82,5.22-7.53,10.54-11.51,15.64-1.66,2.13-4.21,3.08-6.93,3.49-9.54,1.45-12.39,4.82-13.09,14.57-.6,8.48,1.13,16.75,1.98,25.08.83,8.06,2.48,16.04,3.77,24.06Z" style="fill: #da90a4; stroke-width: 0px;"/>
  <path d="M364,223.68c12.66-5.15,23.71-13.74,37.08-17.36,9.33-2.53,18.66-5.03,28.04-7.18-30.48,15.35-58.51,34.26-85.52,54.81-7.05.49-13.44-3.02-15.87-8.72,12.09-7.18,24.18-14.36,36.27-21.55Z" style="fill: #8a0304; stroke-width: 0px;"/>
  <path d="M327.73,245.23c4.27,4.77,10.21,6.49,15.87,8.72-4.15,6.26-8.87,12.04-14.24,17.29-6.03-6.93-14.77-5.44-22.46-7.19-2.24-.51-4.83.62-6.75-1.46,8.37-7.09,18.26-11.77,27.59-17.35Z" style="fill: #b4202e; stroke-width: 0px;"/>
  <path d="M420.28,149.55c.02-.46.04-.93.06-1.39,4.28-3.12,10.42-1.57,14.28-5.72,1.35.02,3.2-.51,3.62,1.17.39,1.58-1.38,1.44-2.45,1.71-5.19,1.35-9.77,4.91-15.52,4.23Z" style="fill: #db182e; stroke-width: 0px;"/>
  <path d="M491.3,156.83c2.12,2.13,1.1,4.8,1.27,7.27-2.31-2.09-1.22-4.78-1.27-7.27Z" style="fill: #df2344; stroke-width: 0px;"/>
  <path d="M735.77,82.97c-11.38,7.04-24.21,10.05-37.05,12.46-20.38,3.82-41.15,5.2-61.49,9.38-1.13-1.31-.91-2.79-.04-3.97,6.4-8.62,12.01-17.91,20.55-24.75,19.83-3.31,39.65-6.23,59.74-1.93,6.87,1.47,13.19,3.81,18.29,8.82Z" style="fill: #f1cae0; stroke-width: 0px;"/>
  <path d="M657.74,76.08c-6.13,8.12-12.23,16.26-18.4,24.34-1.03,1.35-2.11,2.58-2.11,4.39-4.42,3.26-4.12-.48-4.57-3.1,6.2-7.5,12.48-14.94,18.56-22.54,1.77-2.21,3.46-3.93,6.52-3.09Z" style="fill: #eb6388; stroke-width: 0px;"/>
  <path d="M631.47,81.79c.25,4.18-2.26,7.08-5.66,7.99-3.71.99-6.52-1.84-8.62-4.87,4.63-1.65,9.26-3.27,14.28-3.11Z" style="fill: #eb6388; stroke-width: 0px;"/>
  <path d="M472.32,305.9c4.86-3.45,7.7-8.72,11.62-13.01,8.08-7.17,17.49-11.69,28.02-13.85,4.5-.93,9.03-1.13,13.47.56,13.56,5.14,27.29,3.92,41.07,1.02,6.08-1.28,12.14-2.85,18.29-3.48,20.23-2.08,34.56,9.19,47.76,22.25,4.01,3.97,1.95,10.94-3.39,14.98-10.18,7.69-22.47,9.62-34.39,11.72-38.08,6.71-76.29,12.68-114.43,19.04-4.5.75-8.93,1.81-13.53,1.34-.87-11.29-1.05-22.57,1.84-33.62.64-2.46,2.41-4.63,3.66-6.93Z" style="fill: #edb9d1; stroke-width: 0px;"/>
  <path d="M467.87,354.03c-3.41,4.3,1.25,8.5.17,12.77-2.95,2.21-2.99,2.28-5.89.27-6.43-4.45-11.86-9.88-15.31-17-2.93-6.04-6.99-10.8-13.06-13.96-5.69-2.97-10.3-6.98-11.36-13.99-.69-4.57-3.94-5.53-8.13-4.72-16.09,3.09-32.41,4.73-48.51,7.75-8.05,1.51-16.25,2.03-24.21,4.08-2.33.6-4.8.48-7.2.19-7.01-.84-9.71-4.76-7.69-11.61,1.3-4.42,3.25-8.72,6.63-11.9,13.33-12.54,26.47-24.09,46.19-27.47,26.1-4.47,51.19-13.51,73.22-29.21,3.17-2.26,6.71-3.87,10.43-4.89,5.94-1.64,8.8,1.2,7.53,7.3-.54,2.62-1.89,4.94-3.06,7.32-2.03,4.11-3.89,8.27-5.58,12.54-4.56,11.59-3.8,22.56,3.03,33.03-.3,2.45.96,5.21-1.44,7.24-4.32,2.92-7.82-.55-11.35-1.85-5.64-2.08-9.51-1.41-12.43,4.27-4.05,7.89-3.98,11.22,1.37,15.75,5.86,4.98,11.08,10.5,15.35,16.95,1.95,2.95,4.14,6.26,8.66,3.91.46-.48.91-.96,1.37-1.44,1.7,1.2,1.43,2.95,1.28,4.66Z" style="fill: #ec6187; stroke-width: 0px;"/>
  <path d="M465.07,304.54c-6.92-6.28-9.63-13.61-7.57-23.15,2.11-9.79,5.88-18.74,10.5-27.47,1.27-2.4,2.54-5.21.78-7.48-2.15-2.77-4.74-.26-7.17.43-5.91,1.69-10.74,5.47-15.61,8.77-22.82,15.44-49.16,20.78-75.21,26.92-9.22,2.17-17.16,6.21-23.39,13.24-5.83,6.56-14.38,10.35-17.91,19.35-3.69,9.39-1.99,13.39,7.87,12.36,13.26-1.39,26.38-4.18,39.57-6.32,13.42-2.18,26.86-4.31,40.29-6.44,4.33-.69,6.89,2.12,6.99,5.55.22,7.76,4.92,11.65,10.9,14.73,6.01,3.11,10.44,7.6,13.1,13.82,3.57,8.34,10.7,13.37,17.43,18.75.83.66,1.81.1,2.41-.8,1.93,1.35,1.18,3.5,1.59,5.31.62,2.74,2.94,6.78.32,7.94-3.53,1.56-5.58-2.91-7.3-5.48-6.95-10.34-14.41-20.57-22.34-29.85-7.28-8.53-15.72-19.71-29.69-18.26-13.77,1.43-27.4,4.15-41.08,6.38-9.67,1.58-19.33,3.25-28.98,4.97-8.19,1.46-14.9-2.99-21.86-5.81-4.31-1.75-5.19-6.13-2.35-10.39,5.74-8.63,12.1-16.64,20.39-23.13,10.05-7.85,18.48-17.53,27.82-26.2,11.1-10.31,23.59-18.17,36.58-25.38,17.79-9.88,37.2-16.58,54.14-28.23,5.92-4.07,13.38-3.15,20.32-1.55,3.03.7,5.83,2.24,9.1,2.02,6.41-.43,7.55,3.23,5.82,8.31-3.11,9.16-7.56,17.73-12.62,25.92-5.91,9.56-8.99,20.2-12.42,30.71-1.41,4.3,1.75,8.38,1.2,12.81-.33,2.62-.08,5.3-1.6,7.66Z" style="fill: #e54d74; stroke-width: 0px;"/>
  <path d="M465.22,350.81c-.21,2.52-.33,5.4-4.02,3.05-1.98-1.26-4.14-2.72-5.33-4.65-4.85-7.85-10.87-14.48-18.44-19.73-2.73-1.9-3.22-4.76-2.36-7.69.88-2.96,2.14-5.82,3.4-8.66,2.61-5.91,6.43-8.28,13.05-5.39,3.85,1.68,7.61,4.13,12.11,4.05-.15,13.04-.36,26.08,1.59,39.03Z" style="fill: #f099a3; stroke-width: 0px;"/>
  <path d="M861.57,588.66c-.51,7.36-1.8,13.71-5.92,19.03-4.18,5.41-9.14,5.33-12.84-.37-4.57-7.05-8.96-14.24-12.98-21.62-6.98-12.82-17.27-21.65-30.66-27.2-3.92-1.62-9.15-3.23-9.35-7.99-.21-4.9,5.46-6.14,8.84-8.6,5.39-3.92,11.41-3.14,17.28-1.38,21.75,6.52,39.87,17.04,44.64,41.77.45,2.34.73,4.72.97,6.35Z" style="fill: #f096a0; stroke-width: 0px;"/>
  <path d="M716.75,605.21c0,1.44.07,2.89-.02,4.32-.37,5.82-3.75,7.8-8.42,4.27-15.48-11.69-31.66-22.33-47.98-32.78-1.75-1.12-3.21-2.35-2.43-4.61.88-2.55,3.18-2.8,5.37-2.55,16.6,1.89,32.43,5.87,45.46,17.23q8,6.98,8.01,14.12Z" style="fill: #f093a0; stroke-width: 0px;"/>
</svg>