<?xml version="1.0" encoding="UTF-8"?>
<svg id="Layer_1" data-name="Layer 1" xmlns="http://www.w3.org/2000/svg" viewBox="0 0 1117.9 1158.36">
  <path d="M285.27,1081.71c-21.28-3.66-42.58-7.27-63.85-10.98-28.86-5.03-57.71-10.1-86.55-15.22-18.2-3.23-36.46-6.19-54.52-10.03-18.09-3.85-28.78-17.77-29.48-35.99-2.67-69.62-5.58-139.23-8.24-208.86-2.17-56.86-4.13-113.72-6.18-170.58-.14-3.86-.33-7.71-.38-11.57-.12-9.71-.25-17.98-12.72-22.15-10.89-3.64-15.1-14.92-15.58-26.43-1.64-39.75-3.04-79.5-4.66-119.25C1.98,422.95.23,395.28,0,367.55c-.05-6.6.69-12.93,4.74-18.44,1.31-1.06,2.83-.98,4.02-.11,7.53,5.5,16.6,6.04,25.23,7.99,54.51,12.31,109.77,20.29,164.9,29.09,19.72,3.15,39.45,6.25,59.17,9.43,5.95.96,12.08-.37,17.87,1.76,3.6,5.4-1.35,9.73-1.82,14.63-1.72,6.15-3.63,12.25-4.35,18.65-3.29,13.48-2.7,27.19-2.49,40.86.27,18.27.13,36.54.15,54.8-.52,3.16.07,6.21.92,9.24,1.52,15.12.99,30.33,1.56,45.47.77,20.44,1.3,40.94,2.19,61.37,1.48,33.92,1.71,67.88,3.84,101.77.98,15.62.8,31.3,1.25,46.94.61,21.42,1.36,42.87,2.16,64.27,1.12,30.3,1.81,60.64,3.66,90.93.82,13.43,1.36,26.92,1.68,40.4-.06,3.94.15,7.89.03,11.84-.35,3.39-.18,6.75.88,10.03.92,15.06,1.52,30.13,3.17,45.14.07,7.38,1.57,14.55,3.01,21.75,1.31,6.53.6,7.06-6.49,6.36Z" style="fill: #c00401; stroke-width: 0px;"/>
  <path d="M712.3,1157.06c-16.59-1.55-32.84-5.23-49.23-8.03-28.57-4.89-57.07-10.17-85.6-15.31-18.49-3.33-36.98-6.71-55.48-10.02-.92-.16-1.91.07-2.87.13-4.6,1.64-9.04.02-13.46-.85-8.66-1.71-17.67-1.97-25.87-5.78-.82-.52.28-.04-.6-.4-17.27-7.23-20.98-21.82-22.42-38.64-1.43-16.64-1.43-33.24-1.17-49.85.69-43.41-1.48-86.77-1.9-130.16-.29-29.84-1.19-59.73-2.69-89.57-1.46-29.12-2.15-58.26-2.87-87.4-.24-9.86-1.58-19.68-1.38-29.59.3-15.39,7.69-23.03,23.05-21.28,13.84,1.58,27.63,3.96,41.39,6.3.95.15-.28-1.3.05-.39.14.39-.05.53-.59.41-12.39-2.72-25.1-3.52-37.52-6.14-6.74-1.42-12.89-3.98-18.61-7.61-5.82-3.69-9.21-8.86-9.68-16.03-.4-6.26-1-12.49-.95-18.77.18-21.67-1.61-43.3-1.46-64.98.05-7.03,1.27-13.94,1.31-20.9.07-12.26-1.28-24.47-.94-36.77.55-19.77,1.91-39.45,5.42-58.92.9-4.98,2.91-9.85,8.97-10.99,4.02,3.73,2.78,8.55,2.13,12.89-3.8,25.61-4.77,51.42-3.65,77.17,1.4,32.03,1.17,64.09,2.77,96.1.34,6.74,1.43,13.42,2.48,20.09,1.31,8.36,6.18,13.27,14.18,15.53,4.66,1.31,9.4,2.14,14.15,2.96,75.83,13.04,151.92,24.48,227.97,36.13,5.42.83,10.61.26,15.75-1.07,9.78-2.52,16.25-11.16,16.42-22.1.24-14.95-.57-29.94.21-44.86,1.36-26.2,1.8-52.48,5.5-78.55.98-6.91,4.21-11.4,10.27-14.59,25.18-13.24,50.21-26.81,74.94-40.82,14.66-8.31,24.82-21.39,28.26-39.13,2.59-13.35,4.11-26.59,4.16-40.16.03-8.2,3.12-16.06,4.54-24.13.49-1.87,1.16-3.7,1.8-5.52,1.2-2.63,1.63-5.89,5.28-6.55,3,.72,5.27,2.54,7.24,4.81,4.1,6.35,7.43,13.08,9.85,20.26,6.28,19.19,7.56,39.14,8.51,59.04.72,15.11.24,30.28.12,45.43-2.94,97.88-1.11,195.79-1.36,293.69-.16,61.75.23,123.51-.22,185.26-.09,11.97-.49,24.13-2.86,35.99-3.73,18.65-11.54,34.57-28.87,44.64-8.74,5.08-16.8,11.31-25.15,17.03-5.01,3.43-10.02,6.64-16.02,8.01-27.1,18.45-54.07,37.09-81.38,55.22-7.15,4.75-15.32,7.99-24.17,8.71-5.92.89-11.85.83-17.77.04Z" style="fill: #9b0000; stroke-width: 0px;"/>
  <path d="M286.98,1053.99c-2.42-15.28-3.21-30.68-3.04-46.13-1.61-2.76.3-6.02-1.25-8.79,0-3.89,0-7.79.01-11.68,2.43-1.36,4.27,0,5.74,1.59,4.4,4.8,5.17,1.33,5.97-2.45,3.47-16.36,3.1-33.09,4.74-49.63,2.88-29.14.3-58.31-.35-87.41-1.1-49.16-2.11-98.32-2.87-147.49-.38-24.76-2.96-49.53-5.03-74.26-1.84-22.09-2.59-44.27-5.6-66.27-2.82-20.59-7.29-40.83-12.4-60.95-3.74-14.72-7.44-29.49-6.94-44.87.21-6.49.7-12.98,2.04-19.37.42-1.98,1.06-3.79,3.5-3.94,2.31-.14,3.4,1.41,4.32,3.21.89,1.75,1.27,3.63,1.65,5.53.56,2.83,2.04,5.11,4.99,5.51,7.3.99,12.38,5.49,16.48,10.89,5.88,7.76,13.72,11.99,22.81,14.32,12.38,3.17,24.89,5.84,37.42,8.33,8.99,1.79,18.06,3.25,26.75,6.27,9.07,3.15,11.69,6.52,11.73,15.88.19,36.9,3.4,73.63,5.49,110.44,1.21,21.4,2.35,42.83,3.53,64.23,2.44,44.3,2.97,88.62,4.31,132.94,1.07,35.17,1.65,70.36,2.94,105.51,1.42,38.49,2.16,77.14,9.83,115.15.79,3.93,1.27,7.95,3.62,12.63,1.75-5.78,2.05-10.52,2.04-15.29-.07-34.5.97-69.01.04-103.48-.95-35.38-1.79-70.77-3.2-106.12-.68-17.1.23-34.24-1.22-51.26-1.63-19.27,0-38.6-1.51-57.77-1.22-15.44-.34-30.84-1.21-46.21-1.92-33.67-2.25-67.38-3.15-101.07-.47-17.58.83-35.06.67-52.61-.09-9.74,3.02-19.44,5.36-29.02.57-2.34,1.31-5.33,4.22-4.98,3.03.36,2.69,3.61,2.72,5.87.23,20.02.07,40.04.11,60.07,0,3.62-.12,7.24,1.09,10.74.66,3.34.71,6.72.6,10.09-1,31.35,1.14,62.66,1.76,93.98.59,29.37,1.6,58.76,2.77,88.13,1.63,41.16,3.38,82.32,4.55,123.5.61,21.69-.17,43.43,1.28,65.04,2.32,34.67-.13,69.43,2.73,104.06.36,4.34.98,8.62,1.76,12.89.28,1.54.75,2.95,2.78,1.56,5.38.84,3.77,5.27,3.8,8.27.11,13.88,1.56,27.52,5.86,40.77-3.24,5.12-6.9,5.2-10.66-.09-3.22-4.52-4.56-10.04-7.62-14.79.06,11.95.34,23.9,6.78,34.59,3.25,5.39,8.65,8.12,14.42,10.28,6.26,2.34,11.75,5.62,12.4,13.3-17.27,4.04-34.67,4.5-52.19,2-17.17-13.17-38.35-16.21-58.06-22.97-4.55-1.56-9.34-2.43-13.8-4.27-2.28-.95-4.54-2.42-4.76-5.02-.25-3,2.56-3.84,4.75-4.66,8.44-3.16,17.22-5.14,26.2-4.15,6.35.7,12.47.71,18.61-.87,4.08-1.04,8.13-.56,12.2.12,4.65.78,7.3-1.27,8.32-5.84.97-4.31,1.19-8.51.05-12.86-6.35-24.04-10.65-48.5-14.44-73.05-1.64-10.64-4.91-20.56-10.78-29.65-4.47-6.92-7.21-14.71-10.42-22.24-5.49-12.84-14.15-16.43-27.35-10.93-6.57,2.74-11.45,7.99-17.36,11.64-9,5.57-13.19,13.44-14.32,23.65-2.7,24.36-11.72,47.19-17.47,70.82-2.41,9.9-7.21,10.9-14.58,3.64-1.56-1.54-2.72-3.37-4.15-4.99Z" style="fill: #9d601f; stroke-width: 0px;"/>
  <path d="M835.62,1093.09c14.29-9.67,28.34-19.73,42.95-28.9,15.41-9.68,21.97-24.54,24.8-41.2,2.73-16.09,3.11-32.49,3.11-48.85,0-140.63-.12-281.26.33-421.9.05-14.63.7-29.34,1.24-44.01,3.3.53,3.11,3.34,3.4,5.58.84,6.69,1.56,13.38,1.7,20.17.86,41.73-3.07,83.44-1.34,125.13,1.86,44.86.23,89.72,1.47,134.55,1.12,40.48,1.7,80.98,2.96,121.45,1.22,39.25,5.26,78.4,3.84,119.4,3.45-6.63,4.67-12.19,5.77-17.81,3.52-18.09,3.48-36.49,4.18-54.75.98-25.54,1.21-51.18.04-76.7-2.48-54.26-1.15-108.53-.96-162.78.11-30.84.53-61.73,1.43-92.57.95-32.52.99-65.1,2.94-97.55,2.3-38.21,4.37-76.63,18.25-113.12,4.07-10.69,9.26-20.05,18.74-26.76,3.73-2.64,7.07-5.84,10.65-8.69,5.94-4.73,9.81-10.35,10.26-18.28.25-4.34,1.66-8.62,7.73-5.44,3.86,2.92,4.95,7.4,6.55,11.6,6.73,16.89,7.64,34.85,8.55,52.57,2.25,44.28,2.96,88.65,1.37,132.94-1.12,31.09-.89,62.14-.99,93.21-.26,82.66-.08,165.33-.09,247.99,0,6.27.51,12.5.96,18.75,1.35,18.79-.14,37.48-3.03,56.07-1.31,1.62-2.8,2.88-3.23,5.32-5.22,29.26-21.76,51.36-44.49,69.43-25.21,20.04-52.16,36.97-84.01,44.27-12.18,2.79-24.66,3.79-37.16,1.3-2.56-.51-5.26-.28-7.89-.39Z" style="fill: #8e5119; stroke-width: 0px;"/>
  <path d="M1012.41,973.17c-3.39-2.78-.26-5.78-.32-8.67-.35-17.52,2.66-34.89.55-52.58-1.64-13.8-.42-27.94-.41-41.92.01-98.88-.63-197.76.4-296.63.38-36.37,1.53-72.77.55-109.11-.75-27.73.06-55.76-6.77-83.06-.87-3.48-1.84-6.93-2.77-10.39,7.01.66,8.34,6.64,10.16,11.59,6.08,16.55,10,33.74,14.39,50.78.48,1.87.72,3.8,1.33,5.63,2.09,6.35,4.25,7.34,10.02,4.09,3.27-1.84,6.52-3.03,10.3-2.66,1.69.16,3.46.2,5.03-.35,17.66-6.25,36.68-8.73,52.88-19.05,2.7-1.72,5.41-3.44,8.55-.86-.08,17.88-.16,35.77-.24,53.65-1.05,3.48.24,7.16-.88,10.64-.28,9.44-5.24,16.31-12.81,21.06-3.81,2.39-5.02,4.82-5.04,9.15-.5,120.35-1.14,240.7-1.78,361.04-.04,6.75-.01,13.52-.47,20.25-.94,13.96-6.82,25.7-18.25,33.71-21.24,14.9-42.93,29.16-64.43,43.68Z" style="fill: #980000; stroke-width: 0px;"/>
  <path d="M276.55,398.33c-24.61.56-48.35-5.88-72.47-9.21-25.53-3.52-50.83-8.63-76.33-12.41-32.63-4.84-64.93-11.37-97.19-18.17-9.15-1.93-18.12-3.83-25.83-9.44,3.7-8.14,10.15-13.55,18.41-16,25.99-7.68,50.49-19.19,75.69-28.89,24.3-9.36,48.37-19.31,72.54-28.99,8.16-6.83,17.94-9.05,28.17-9.23,25.78-.47,51.28,2.9,76.75,6.35,3.81.51,7.61,1.26,11.42,1.56,13.97,1.08,26.76,4.43,37.1,14.96,4.5,4.58,10.83,7.07,16.99,9.25,8.09,3.02,16.75,3.37,25.06,5.35,6.42.99,12.82,2.09,19.22,3.2,2.6.45,5.94.79,6.38,3.75.53,3.52-3.03,4.45-5.59,5.65-1.96.92-3.98,1.69-6.01,2.44-19.79,8.43-39.81,16.39-57.93,28.24-2.16,1.59-4.47,3-6.5,4.77-9.5,6.63-17.43,14.84-24.36,24.07-4.03,4.83-7.1,10.25-9.95,15.83-1.66,2.47-2.14,5.9-5.59,6.92Z" style="fill: #db2f2c; stroke-width: 0px;"/>
  <path d="M366.47,305.51c-8.05-2.51-16.84-1.78-24.56-5.69-.6-1.05-1.48-1.89-2.19-2.86-4.52-6.18-3.52-9.59,3.61-12.57,1.95-.82,4.29-.71,6.3-2.85-2.38-3.29-6.17-4.25-9.66-5.19-11.97-3.23-22.89-8.69-33.22-15.37-2.16-1.4-6.76-2.13-3.16-6.53,3.98.08,7.53,1.72,10.88,3.51,16.11,8.63,33.81,10.67,51.52,12.21,7.63.67,15.22,2.15,22.92,1.88.74.08,1.47.25,2.18.45,2.69,1.07,5.58.84,8.39,1.17.69.08,1.38.22,2.05.39,2.3.81,4.7.76,7.09.83,9.72,1.77,19.1,4.37,26.89,10.9,1.11.93,2.3,1.73,3.86,1.4,5.94-9.45,9.34-18.83,5.68-30.55-2.77-8.89,1.92-17.4,6.62-25.17,3.2,2.82,1.81,6.65,2.11,10.07.33,3.81,1.28,6.63,5.98,5.74,3.13,1.63,2.61,4.96,3.55,7.61.51,2.64.25,5.14-1.31,7.41-4.46,4-4.74,8.41-1.22,13.17,3.58,6.04,7.87,11.57,11.92,17.27,2.77,3.9,6.29,7.13,11.25,6.94,10.15-.39,20.23.82,30.29,1.4,23.82,1.38,45.81-4.96,67.58-13.25,6.04-2.3,11.68-5.66,18.47-6.01,4.82-.25,2.85-3.42,1.43-5.62-11.45-17.8-18.33-37.68-26.06-57.17-2.59-6.52-5.3-12.96-9.24-18.79-8.1-12-16.2-24.05-27.04-33.83-9.96-8.99-21.71-13.05-35.19-11.54-1.75.4-3.52.55-5.3.6-5.45.08-10.57.98-14.15,5.71-4.8,4.13-9.97,7.89-13.3,13.47-7.93,9.78-13.02,21.04-17.05,32.86-2.35,2.87-2.26,9.94-9.02,5.3-1.19-3.91.33-7.34,1.95-10.74,4.53-8.16,8.07-16.73,10.52-25.75,3.42-6.47,8.09-11.87,14.04-16.13,3.34-2.39,5.76-5.69,8.62-8.5,9.8-9.64,21.44-15.1,35.7-12.48,6.16,1.02,11.75,4.56,18.24,4.18,5.13,3.23,10.26,6.46,15.59,9.81.66-1.58,1.38-3.29,2.09-5,4.14-.04,4.3-.05,4.54,3.32.21,2.84-.51,5.83,1.83,8.16,8.88,9.29,17.48,18.81,24.82,29.39,3.24,5.05,6.66,9.99,10.04,14.96,4.27,6.75,7.42,14.02,10.27,21.45.57,1.5,1.09,3.5,3.17,3.44,1.71-.04,1.97-1.9,2.64-3.12,4.21-7.58,8.76-14.95,13.28-22.35,3.8-6.23,8.47-11.69,14.21-16.22,8.4-1.82,13.97-8.11,19.93-13.39,6.79-6.02,13.77-11.78,20.79-17.51,17.76-13.23,37.35-23.07,58.69-28.56,28.82-7.42,56.73-2.82,83.58,9.37,14,6.35,26.42,14.72,35.59,27.38,3.83,5.29,7.36,10.7,9.21,17.04.29,1.44.7,2.85,1.13,4.26,1.54,6.98,3.27,13.94,3.47,21.21-.03-6.82,2.2-12.98,5.44-18.85,1.68-3.04,2.2-6.28,1.7-9.75-.71-4.9,1.68-7.93,6.28-8.98,10.19-2.32,19.52-6.76,28.54-11.75,10.49-5.8,22.32-8.85,32.18-15.9,1.04-.74,2.27-.64,3.31.25.63,1.88,2.22,3.45,1.89,5.65-2.11,6.33-6.65,9.81-13.06,11.04-15.53,2.98-28.03,12.43-41.63,19.5-3.64,1.89-4.64,5.3-4.44,9.19.4,7.64.19,15.03-7.25,19.88-1.16.76-1.75,2.31-2.19,3.69-4,12.37-8.91,24.4-13.72,36.47-.83,2.09-2.47,5.02-.05,6.63,2.03,1.35,3.91-1.14,5.43-2.55,17.51-16.13,37.16-28.93,59.04-38.32,3.99-1.71,7.7-3.93,10.97-6.88,1.69-1.52,3.41-3.69,6.25-2.1-4.26,12.34-12.98,21.72-20.95,31.6-4.57,9.13-13.36,13.69-21.54,18.22-15.27,8.46-30.6,16.87-46.42,24.31-2.39,1.12-4.84,2.11-7.58,1.87-2.22-.74-4.21-.05-6.25.86-14.94,6.7-29.95,13.22-45.76,17.72-17.29,4.25-34.94,6.04-52.61,7.3-6.19.44-12.34,1.54-18.56,1.54-5.09,0-10.19-.08-15.28.04-9.64.33-19.22-.11-25.68-1.72,17.75,2.14,38.34,5.74,58.92,9.4,28.44,5.06,57.11,8.58,85.69,12.74,9.79,1.42,19.45,3.54,29.24,4.96,2.39.35,4.76.83,7.19.61,6.42-.57,8.78-3.63,6.6-9.63-2.81-7.74-4.32-15.81-6.83-23.62-1.33-4.13-2.34-8.44.36-12.55,10.94-1.42,21.36.06,31.01,5.69-4.31,4.23-9.5,2.16-14.35,1.82-7.17-.5-9.11,1.82-6.01,8.23,2.95,6.09,7.05,11.49,11.13,16.87,6.61,8.71,5.91,11.21-1.8,18.82-6.76,6.68-14.08,9.07-22.95,6.2-41.28-13.35-84.49-16.85-126.78-25-15.64-3.01-31.54-3.89-47.35-5.49-2.77-.28-5.68-.74-8.77.53,3.92,1.5,7.91,1.62,11.31,3.54,2.08,1.17,4.58,2.36,3.84,5.32-.6,2.44-2.99,2.91-5.19,3.22-5.6.8-11.1-.55-16.51-1.45-8.68-1.46-17.78-.8-25.98-4.8.69-3.39.1-5.68-3.84-6.92-3.39-1.07-8.83-1.92-7.8-6.75.93-4.37,6.09-3.72,9.9-3.93.71-.04,1.42.05,2.86-.12-12.23-1.42-23.71-3.16-35.11-5.29-4.83-.9-8.86-.07-13.04,2.36-6.86,4-13.11,8.95-18.72,12.03q7.66-3.79,12.7,4.74c.86,1.45,2.25,2.52,2.86,4.15-5.4,7.19-12.23,8.58-18.85,3.6-3.92-2.95-7.59-.9-10.83.66-8.95,4.31-18,2-27.07,1.28q2.58-4.38,13.75-9.03c-8.65,1.63-15.76,3.78-23.21,3.99-7.71.22-15.41-.29-23.12-.21-6.98.08-13.96-.03-20.86,1.31-1.15-.01-2.27-.18-3.39-.44-11.88-2.8-22.83-7.51-32.41-15.26-4.76-3.84-10.28-6.38-16.37-7.22-18.84-2.59-37.7-5.1-56.73-5.71-10.77-.35-11.68.7-14.41,10.86Z" style="fill: #ae6b20; stroke-width: 0px;"/>
  <path d="M286.98,1053.99c4.03.54,5.84,4.05,8.39,6.47,3.15,2.99,5.06,2.62,7.15-1.21,1.7-3.12,1.51-6.52,2.51-9.71,7.5-24.03,13.73-48.37,18.07-73.18.92-5.24,1.94-10.32,8.33-12.81,4.01-1.55,7.11-5.57,10.46-8.66,9.4-8.66,20.65-10.65,32.86-9.37,3.79.4,5,3.47,6.14,6.3,5.57,13.83,11.91,27.22,19.33,40.21,4.78,8.36,5.07,18.43,6.54,27.84,3.48,22.25,7.61,44.36,13.47,66.1,1.22,4.52.07,8.49-.37,12.68-.66,6.33-4.54,9.03-10.47,7.3-4.89-1.42-9.37-.98-14.14.13-4.85,1.13-9.6,1.83-14.85.47-8.17-2.12-24.01,1.69-31.94,6.5,3.94,5.65,10.61,5.3,16.06,7.07,15.5,5.04,31.44,8.74,46.49,15.15,5.28,2.25,10.57,4.73,13.34,10.34-30.76-3.69-60.99-10.34-90.7-18.73-18.16-5.13-30.37-18.84-38.23-35.96-2.15-4.67-4.15-8.99-10.14-9.22,4.91.45,5.88-1.49,4.53-6.15-2.03-6.99-3.71-14.15-2.82-21.57Z" style="fill: #8d4f16; stroke-width: 0px;"/>
  <path d="M1116.31,419.99c-2.14.07-4.41-.38-6.18,1.32-4.86,4.64-11.07,6.84-17.18,8.84-12.94,4.24-25.95,8.37-39.15,11.65-5.57,1.38-11.17.62-16.45,4.83-4.31,3.44-7.92-.57-9.2-5.46-3.44-13.21-6.39-26.56-10.34-39.61-3.27-10.82-4.09-22.97-14.16-30.74-1.5-2.91-3-5.83-4.5-8.74-4.74-5.61-8.24-12.09-12.62-17.96-2.7-3.91-8.06-5.9-8.33-11.56.86-2.31,2.86-3.24,4.97-3.74,16.22-3.82,29.66-13.46,44.11-20.97,26.63-13.83,52.73-28.66,79.1-42.99,9.19,4.66,11.54,13.13,11.52,22.3-.07,36.35-.43,72.69-.78,109.04-.08,7.93-.53,15.86-.82,23.79Z" style="fill: #ae0000; stroke-width: 0px;"/>
  <path d="M1106.38,264.86c-3.32,5.97-9.91,7.48-15.2,10.42-28.74,16.03-57.77,31.54-86.7,47.21-6.36,3.45-12.98,6.26-20.1,7.74-2.17.45-4.18,1.11-5.58,2.96-6.02-.76-7.9-6.9-12.45-9.64-2.37-1.43-4-4.05-6.84-4.93-5.74-2.81-10.74-6.79-16.05-10.28-2.11-1.77-4.62-2.4-7.31-2.49-1.82-.19-3.5-.76-5.02-1.78-7.25-3.19-14.92-4.94-22.59-6.71-3.22-.74-6.69-.79-9.26-3.33-9.89-3.13-20.14-4.4-30.36-5.78-4.76,2.63-9.5.02-14.25-.01-1.42-.24-2.83-.52-4.25-.79-2.95-.56-7.69-.22-7.34-3.96.33-3.47,4.4-5.04,8.38-4.07,26.35-12.55,53.47-23.74,75.59-43.61,39.96,5.72,79.92,11.46,119.89,17.16,14.74,2.1,29.52,4.01,44.25,6.19,5.41.8,10.88,1.78,15.19,5.67Z" style="fill: #db2a29; stroke-width: 0px;"/>
  <path d="M211.48,68.03c3.87-5.97,9.16-10.69,15.38-13.68,11.58-5.58,23.19-11.22,35.59-14.91,14.22-3.5,28.75-5.55,42.93-9.21,2.1-.54,4.21-1.01,6.19-1.91,11.13-5.02,22.2-10.21,34.46-11.97,19.02-.59,36.95,4.07,54.4,11.17,31.52,12.81,57.67,33.06,80.46,57.97,1.25,2.99,4.32,4.56,5.79,7.38.96.99,1.93,1.98,2.89,2.96,1.65,2.62,4.19,4.53,5.81,7.18.45.45.9.9,1.36,1.35,1.04,1.63,2.36,3.03,3.63,4.48,1.14,1.29,2.27,2.8.62,4.38-1.38,1.32-3.14,1.03-4.72.21-2.62-1.34-4.5-3.59-6.57-5.59-13.5-13.01-26.3-26.69-41.06-38.47-19.65-15.7-40.53-21.23-64.62-12.58-5.43,1.95-11.16,3.03-16.56,5.09-5.08,1.95-5.37,3.2-1.13,6.67,8.37,6.87,17.1,13.29,25.21,20.49,6.31,5.59,12.68,11.16,17.48,18.15,2.2,3.21,4.16,6.84-.46,9.95-2.54.8-5,.71-7.33-.66-3.28-3.33-7.11-5.91-11.33-7.94-.59-.33-1.14-.72-1.67-1.14-10.66-12.14-21.19-24.38-35.35-32.76-4.37-2.59-8.74-5.1-13.61-6.64-18.62-8.7-37.74-15.67-59.16-17.13,6.37,1.98,12.17,3.51,17.85,5.38,5.67,1.86,11.6,3.28,16.42,7.15.45,4.18-3.04,4.35-5.59,5.48-4.47-.07-8.03-2.74-11.99-4.26-2.75-2.37-6.21-3.1-9.55-4.11-8.21-1.89-16.41-3.77-24.92-3.34-14.55-.82-28.05,2.69-40.85,9.51-3.03,1.62-6.27,3.95-10.01,1.36Z" style="fill: #fbd888; stroke-width: 0px;"/>
  <path d="M211.48,68.03c5.2-.37,9.28-3.5,13.78-5.6,11.69-5.43,23.98-7.85,36.86-7.14,1.67,1.84,5.48-1.23,6.23,2.72-5.24,2.38-10.21,5.23-15,8.42-.89.37-1.8.67-2.74.86-30.19,6-41.66,33.11-32.69,60.71,1,3.09,3.3,6.04,1.36,9.56-4.48.64-4.8-3.25-5.88-5.82-3.02-7.25-5.1-14.82-6.75-22.52-.6,10.03,1.86,19.54,4.58,28.99,9.35,27.58,29.44,46.4,51.73,63.42,5.6,3.75,10.99,7.87,17.4,10.24,2.83,1.04,5.7,1.96,7.06-2.08.5-1.1,1.13-2.13,1.65-3.22,1.37-2.89,2.35-6.04,1.64-9.11-1.2-5.17-5.3-.42-7.78-1.84-.98-.56-2.31-.6-3.41-1.09-.59-.26-1.15-.59-1.69-.96-1.72-1.36-3.29-2.94-5.25-4.02-.55-.33-1.06-.71-1.55-1.12-1.88-1.75-3.76-3.5-6.04-4.78-.59-.37-1.13-.78-1.66-1.23-9.6-9.43-19.51-18.54-26.8-30.07-7.29-11.55-6.29-18.16,4.42-26.64,4.41-3.5,9.49-5.62,14.66-7.59,8.09-3.09,16.1-6.35,23.69-10.57,4.08-2.17,8.41-3.65,12.94-4.54,4.42-.51,9.34.93,12.85-3.25,3.09,2.49,3.06,5.74,2.28,9.19-1.32,1.23-3,1.68-4.67,1.57-10.71-.74-19.64,3.86-28.32,9.26-4.77,2.97-10.04,4.61-15.44,5.92-3.75.91-7.47,1.9-10.7,4.16-5.78,4.03-7.55,9.13-3.69,14.92,8.92,13.39,17.49,27.16,30.08,37.63,4.66,3.88,9.26,7.11,14.92.97,2.74-2.97,5.23-1.46,6.11,2.3.5,2.12.33,4.31.39,6.48.08,3.05.96,5.71,3.73,7.38,9.12,5.49,18.4,10.52,29.56,10.08,2.4-.09,4.84-.03,7.19.51,27.95,6.41,56.44,9.69,84.68,14.41,7.93,1.32,12.75,5.76,16.36,12.29,2.97-2.45,1.96-5.06,2.3-7.33.02-1.46.11-2.91.46-4.34.27-1.02.75-1.95,1.39-2.79,2.24-2.17,2.54-5.16,3.29-7.96.29-.61.74-1.08,1.33-1.41,5.67,2.09,3.87-4.84,7.01-5.8,2.57,3.12.72,6.48.25,9.61-.64,4.31-.93,8.51.31,12.73-.17,1.28-.94,1.98-2.17,2.24-2.99,11.49-8.79,22.73-2.78,34.99,1.07,2.17.67,4.52-.51,6.88-2.87,5.73-5.41,11.63-8.08,17.46-2.85-3.85-2.26-8.35-1.96-12.59.89-12.94-5-23.9-10.03-35.02-3.06-6.76-9.87-8.92-16.56-10.42-13.65-3.06-27.51-4.92-41.41-6.47-15.77-1.75-31.72-1.85-47.19-6.25-8.44-2.4-11-.81-15.24,6.69-9.95,17.59-7.82,22.7,11.77,27.49,19.42,4.75,38.09,12.4,58.08,14.98,2.87.37,5.76.59,8.61,1.02,1.96.3,4.62,0,4.66,3.23-30.53-1.09-60.8-3.44-88.31-18.77-3.3.58-4.04-2.08-4.84-4.18-1.59-4.14-4.38-7.33-7.46-10.35-1.09-1.96-1.36-4.19-2.07-6.28-2.21-9.69-5.79-11.91-15.34-8.92-16.2,5.08-32.81,8.82-48.72,14.9-3.38,1.29-7.18,3.25-10.85.25,18.13-9.84,37.89-15.72,58.35-23.23-18.8-10.95-33.94-24.54-47.35-39.94-21.91-25.14-31.96-53.91-24.48-87.35,1.84-8.21,5.34-15.8,11.47-21.87Z" style="fill: #a36623; stroke-width: 0px;"/>
  <path d="M627.08,14.91c18.35-16.34,39.86-16.63,62.54-13.07,21.08,3.31,42.32,5.52,63.49,8.27,13.53,1.76,27.18,2.75,40.5,5.94,4.64,1.11,9.31,2.29,13.09,5.5-.47.9-1.22,1.6-2.2,1.64-19.85.9-31.27,14.76-43.13,27.97-11.81,15.4-21.7,31.98-30.37,49.31-3.74,6.46-6.22,13.61-10.61,19.73-1.6,1.56-2.83,4.21-5.5,3.45-2.71-.77-2.59-3.46-2.63-5.79,4.28-14.2,12.97-26.17,19.76-39.12,8.6-13.28,15.89-27.35,25.68-41.05-7.84-.58-14.39.93-20.67,2.72-14.97,4.25-29.75,4.04-44.97,1.21-14.87-2.77-29.98-4.2-44.86-7.12-12.17-2.39-21.9,3.7-31.33,10.21-5.42,3.38-9.34,8.19-12.84,13.41-1.06,1.58-2.52,3.76-4.49,2.74-2.43-1.25-1.38-3.76-.39-5.73,3.89-7.81,9.33-14.54,15.04-21.03,5.25-5.97,9.71-12.47,13.91-19.18Z" style="fill: #fcd584; stroke-width: 0px;"/>
  <path d="M408.44,116.04c3.61-3.59.4-6.36-1.49-8.74-9.35-11.71-21.1-20.88-32.72-30.17-4.11-3.29-8.23-6.56-12.29-9.9-3.44-2.83-2.33-4.85,1.38-5.96,15.57-4.66,30.76-10.74,47.49-10.52,15.53.21,26.95,8.97,38.71,17.25,16.24,11.43,28.99,26.62,43.17,40.27,1.04,1,2.02,2.07,3.09,3.03,1.25,1.13,2.75,2.59,4.34,1.02,1.43-1.42-.3-2.56-1.19-3.55-1.16-1.29-2.15-2.59-2.19-4.41,6.49,5.29,11.09,12.13,15.57,19.06-1.33,4.05-4.27,4.12-7.55,2.89-3.61-1.35-7.18-2.79-10.81-4.11-7.42-2.7-14.47-3.41-21.1,2.11-2.75,2.29-6.16,2.16-9.65,1.6-16.37-2.58-32.78-4.96-49.28-6.63-2.21-.22-5.1.26-5.48-3.25Z" style="fill: #efbd6b; stroke-width: 0px;"/>
  <path d="M627.08,14.91c-2.23,11.92-12.18,18.67-18.7,27.68-3.89,5.38-7.62,10.71-9.75,17.12,5.37-5.25,8.9-12.18,15.55-16.08,1.82,4.66-2.11,7.07-4.22,9.94-11.17,15.19-19.68,31.45-22.09,50.47-1.25,9.9,2.21,15.36,11.58,18.81,14.26,5.25,29.16,6.26,44.07,7.06,7.65.41,14.78,1.88,21.28,6.05,9.78,6.27,12.02,12.82,4.62,21.53-9.6,11.29-20.3,21.78-32.24,30.79-4.4,5.31-8.8,10.62-13.2,15.93-7.95,7.2-16.17,11.38-26.03,3.03-1.56-1.32-4.08-1.42-5.81-2.8-4.18-4.29-6.98-9.52-9.96-14.63,2.42-2.39,5.31-1.8,8.16-1.2,1.89.4,3.65,1.24,5.45,1.94,16.21,6.32,19.76,5.37,30.67-8.47,3.28-4.16,6.5-8.4,8.89-13.17,4.15-8.29,2.46-10.81-6.99-10.37-.72.03-1.46,0-2.16.18-12.52,3.03-24.47-.12-36.26-3.68-16.76-5.05-23.56-17.7-18.55-34.75,3.46-11.8,7.78-23.33,13.31-34.36,2.28-3.33,4.01-6.98,6.06-11.04-2.97,3.39-4.64,6.99-6.39,10.55-12.87,22.03-22.93,45.04-24.95,70.88-.13,1.69-.36,3.37-1.8,4.56-3.49-1.78-2.95-5.02-2.68-7.98.23-2.42,1.12-4.88-2.79-4.68,12.46-39.95,28.18-78.38,53.53-112.14,6.04-8.04,13.3-15.09,21.42-21.15Z" style="fill: #f8d484; stroke-width: 0px;"/>
  <path d="M948,204.24c-14.01,11.28-31.36,16.61-46.37,25.97-10.1,6.29-18.83,14.79-28.16,22.32-.93.75-1.65,1.8-2.63,2.48-1.93,1.34-4.02,3.54-6.43,2.16-2.5-1.43-1.76-4.56-1.01-6.6,5.25-14.46,8.38-30.52,17.03-42.62,6.08-8.51,7.01-15.86,7.23-24.72.06-2.44,1.08-4.03,3.22-5.18,14.13-7.57,27.06-17.95,43.32-20.66,6.81-1.14,9.85-6.2,14.46-9.69,7.84,18.94,7.21,37.78-.65,56.54Z" style="fill: #8e4f17; stroke-width: 0px;"/>
  <path d="M863.38,182.53c-9.19-23.4-27.43-37.07-49.8-46.27-46.71-19.21-89.38-9-129.75,17.87-2,1.33-4.04,2.6-6.06,3.9-4.57-3.01-2.61-6.07.18-8.77,3.46-3.34,7.61-5.8,11.7-8.3,5.68-3.96,11.57-7.55,17.77-10.65,3.8-1.83,7.61-3.64,11.2-5.86,16.93-10.33,35.84-14.45,55.05-17.66,26.33,1.23,50.13-7.5,73.21-18.79,5.79-2.83,11.18-2.87,16.76.06-.02,4.1-3.32,4.98-6.2,5.99-12.27,4.32-24.34,9.11-35.88,15.14-8.75,4.57-18.06,4.08-25.07,3.81,13.03-1.18,28.11,2.68,43.48,2.49,12.45-.15,23.41-5.13,34.47-9.76,7.6-3.19,15.22-3.46,23.31-2.81,11.51.91,20.59,6.04,28.46,13.98,2.24,2.26,4.65,4.17,7.87,4.79,1.81,2.48,3.62,4.96,5.43,7.44-2.17,5.36-6.02,4.74-10.09,2.7-3.72-1.86-6.52-4.92-9.53-7.7-9.71-8.97-16.2-9.66-28.29-4.57-12.4,5.22-24.81,10.87-39.1,9.87.1,2.77,2.15,3.92,3.62,5.11,9.32,7.51,13.72,17.77,16.73,28.91.93,3.45,1.61,6.48-2.25,8.8-2.86,1.72-1.07,4.88-1.52,7.37-.62,3.45-1.26,6.89-5.69,2.93Z" style="fill: #f8d484; stroke-width: 0px;"/>
  <path d="M863.38,182.53c6.9,1.59,3.47-3.76,3.84-6.12.38-2.5-3.22-6.19,3.21-6.05,3.51.08,1.56-3.35,1.08-5.11-3.11-11.51-7.25-22.47-17.35-29.96-2.45-1.82-4.88-3.67-6.65-6.55,18.34.45,33.42-6.94,48.95-13.25,8.71-3.54,16.94-.51,23.69,6.14,2.73,2.69,5.41,5.39,8.5,7.77,4.02,3.09,7.32,3.03,10.85-.28,1.17,1.84,3.44,3.13,2.93,5.82-.99,4-4.25,5.81-7.56,7.2-12.44,5.24-23.8,12.68-36.42,17.56-5.51,2.13-10.92,3.88-16.83,2.18-4.87-1.4-7.12,1.25-5.35,5.13,4.41,9.68-4.8,14.61-7.31,21.67-1.44,4.04-2.9-1.94-4.5-3.18-1.15-.71-1.41-1.74-1.08-2.98Z" style="fill: #f4c471; stroke-width: 0px;"/>
  <path d="M213.49,240.41c11.24-.67,20.97-6.59,31.7-9.12,9.57-2.25,18.93-5.45,28.36-8.3,11.05-3.34,15.63-.1,16.3,11.64,1.89,4.87-1.17,5.97-4.93,6.22-5.03.33-10.07.19-15.11.24-2.64.02-5.36-.05-7.71,1.36-2.67,1.6-6.19,3.45-5.63,6.75.51,3.02,4.38,2.06,6.87,2.46,11.34,1.81,22.85,2.55,34.04,5.35.84.49,1.63,1.05,2.24,1.8,2.28,2.83,5.18,6.07,3.53,9.62-1.78,3.83-6.05,1.84-9.16,1.49-22.17-2.51-44.15-6.59-66.46-8-15.34-.96-30.04,1.99-44.42,7.07-2.83,1-5.41,3.34-8.8,2.06,9.31-15.01,23.45-23.84,39.18-30.63Z" style="fill: #f8d787; stroke-width: 0px;"/>
  <path d="M773.24,108.67c-19.22,3.18-37.84,8.2-55,17.75-2.24-3.07.27-5.18,1.52-7.55,3.55-6.21,5.7-13.16,10.01-18.96,4.67-.56,4.75-4.98,6.34-7.91,5.74-10.63,8.29-11.32,18.33-4.34,3.81,2.65,7.36,5.57,9.34,9.86,1.8,3.89,4.47,4.52,8.24,3.18,11.36-4.03,22.71-8.08,34.08-12.05,6.02-2.1,8.67-6.66,8.69-12.8.04-14.06-1.39-27.9-6.65-41.1-3.08-7.72-7.9-10-15.45-6.53-9.05,4.16-16.76,10.32-23.87,17.31-2.4,2.35-4.17,6.23-8.7,5.24,11.92-15.48,24.83-29.4,46.58-29.21,14.88,7.5,18.99,21.9,22.98,36.26,2,7.19,1.78,14.66,1.91,22.07.04,2.01-1.6,5.12,2.41,5.53,1.56-.5,3.61-1.43,4.24.65.6,1.97-1.69,2.71-3.13,3.31-19.59,8.21-38.35,19.11-60.6,18.7-.45,0-.87.31-1.27.6Z" style="fill: #b27229; stroke-width: 0px;"/>
  <path d="M174.31,271.05c13.18-6.74,27.21-10.56,41.94-11.32,12.71-.65,25.34,1,37.93,2.65,15.84,2.08,31.65,4.39,47.93,6.66-.28-4.78-2.96-7.83-5.18-11.09-3.89-1.95-8.25-2.03-12.37-3.02-1.62-.39-3.33-.5-4.88-1.13-3.36-1.37-7.21-2.78-6.74-7.24.5-4.67,4.31-5.89,8.44-6.04,3.35-.12,6.7-.03,10.05-.15,4.61.73,5.57,4.78,7.4,8.07,1.23,2.22.95,5.37,3.94,6.53,6.44,6.95,14.98,10.66,23.28,14.53,7.6,3.55,16.13,4.8,23.58,8.86,1.41.77,3.48,1.13,3.5,3.22.03,2.76-2.73,2.17-4.23,3.09-.59.36-1.37.42-2.06.61-9.17,2.39-9.7,3.6-5.16,11.36.55.94,1.54,2.03.22,3.18-10.41-2.39-18.78-8.44-26.22-15.6-3.94-3.8-8.29-5.4-13.32-6.08-21.29-2.88-42.51-6.5-63.89-8.35-22.53-1.95-45.5-5.59-67.1,5.44.98-1.39,1.95-2.78,2.92-4.18Z" style="fill: #bf863a; stroke-width: 0px;"/>
  <path d="M934.08,121.68c-3.76,2.32-6.39.46-8.57-2.46-10.82-14.51-36.89-18.28-50.39-11.63-14.11,6.95-28.99,11.5-45.12,9.85-11.42-1.17-22.75-3.31-34.31-3.08-1.33.03-2.87-.44-3.88-2.87,26.31,3.71,45.37-15.41,68.79-20.58.95-.21,1.64-1.61,2.45-2.46,4.04-3.23,8.86,1.08,12.98-1.35,11.2,2.37,21.98,5.77,32.08,11.37,10.45,5.8,18.27,14.4,25.97,23.19Z" style="fill: #fdeb9d; stroke-width: 0px;"/>
  <path d="M476.53,1143.61c-3.64-6.64-9.07-10.49-16.41-12.97-12.95-4.38-16.87-15.92-18.04-27.97-.68-6.97-4.49-14.46,1.22-22.35,2.6,6.01,4.74,11.51,7.34,16.78,1.94,3.94,4.24,8.07,9.86,4.69,6.26,5.56,12.5,11.15,20.36,14.45,12.75,2.53,25.51,5.06,38.26,7.58-12.69,9.83-26.86,16.51-42.6,19.79Z" style="fill: #804615; stroke-width: 0px;"/>
  <path d="M408.44,116.04c9.82,1.41,19.63,2.81,29.45,4.22,5.18.74,10.37,1.5,15.55,2.21,8.05,1.09,15.51,3.12,23.6-2.68,8.79-6.3,17.76,1.12,26.32,3.98,3.31,1.11,6.05,2.77,8.95-.35,3.55,4.76,7.1,9.51,10.65,14.27-.96.93-2.13,1.08-3.38.91-16.48-5.57-33.92-6.04-50.79-9.5-2.9-1.04-5.97-1.11-8.98-1.51-.78-.11-1.54-.29-2.29-.51-20.52-2.8-40.99-5.99-61.61-7.92-.78-.08-1.54-.26-2.29-.47-4.07-1.37-8.3-.55-12.44-.89-1.15-.07-2.29-.26-3.41-.53-4.15-1.88-9.35.78-13.05-3-.31-.69-.37-1.41-.17-2.14,2.64-2.47,6.16-.12,8.97-1.66,4.91-1.17,5.3-3.7,1.83-6.91-4.03-3.74-8.32-7.18-12.96-10.17-14.09-9.06-28.15-18.14-43.32-25.34-1.96-.93-3.85-1.97-4.85-4.06-13.02-4.65-26-9.41-39.88-12.53,9.99-5.51,38.27,1.2,66.09,15.32,17.58,9.06,32.33,21.56,44.84,36.8,1.23,1.5,2.76,2.68,4.4,3.73h0c3.58,2.85,7.81,4.67,11.53,7.32,2.1,2.13,4.83,1.01,7.26,1.42Z" style="fill: #d19947; stroke-width: 0px;"/>
  <path d="M864.47,185.51c1.72.41,1.44,3.14,4.13,3.09.68-4.35-1.06-10.37,6.35-11.22,1.55-.18.97-2.88.53-4.53-.68-2.54-1.83-5.09-1.86-7.64-.03-2.93.44-7.64,4.74-5.91,10.13,4.1,18.54-.46,26.69-4.62,12.55-6.39,25.91-11.3,37.38-19.74,1.7,2.21,3.76,4.2,4.33,7.11-17.1,10.06-35.43,17.59-53.31,26.04-1.08.51-2.17,1.14-3.33,1.34-7.68,1.32-15.25,2.62-11.28,13.62.2.56-.14,1.48-.51,2.05-5.58,8.64-7.33,18.48-9.95,28.52-1.31-9.37-2.62-18.74-3.94-28.12Z" style="fill: #ca9143; stroke-width: 0px;"/>
  <path d="M876.04,87.11c-4.06,2.96-8.68.62-12.98,1.35-5.13-2.22-9.45-.9-14.73,1.08-19.12,7.16-36.64,19.73-58.63,17.98-5.38-.43-10.88,1.84-16.46,1.16,1.66-1.87,4.02-1.47,6.06-1.63,20.36-1.6,37.3-12.8,55.75-19.73.57-.21,2.02.37,1.66-1.2-.03-.12-.4-.18-.62-.23-.7-.16-1.4-.31-2.09-.47,11.47-2.94,22.82-.13,34.21.76,2.62.2,5.22.63,7.83.95Z" style="fill: #e3b263; stroke-width: 0px;"/>
  <path d="M346.03,16.35c-.43.57-.79,1.57-1.29,1.64-16.28,2.44-29.59,13.44-45.82,15.93-12.16,1.87-23.97,5.99-36.48,5.52,19.91-8.09,40.17-15.12,60.95-20.66,7.46-1.99,15.15-1.15,22.64-2.43Z" style="fill: #bc8239; stroke-width: 0px;"/>
  <path d="M520.09,137.56c.96.04,1.91.08,2.87.12,3.78,2,8.41,2.29,11.48,5.71-.84,2.27-2.32,2.45-4.45,1.69-4.35-1.55-8.78-2.89-13.17-4.31.53-1.63,1.75-2.57,3.26-3.2Z" style="fill: #efbd6b; stroke-width: 0px;"/>
  <path d="M712.3,1157.06c5.93-.01,11.85-.02,17.77-.04-5.92,1.75-11.85,1.8-17.77.04Z" style="fill: #c80805; stroke-width: 0px;"/>
  <path d="M486.68,92.86c-2.3-2.17-6.07-3.18-5.79-7.37,2.36,2.12,5.31,3.78,5.79,7.37Z" style="fill: #efbd6b; stroke-width: 0px;"/>
  <path d="M495.38,103.01c-2.65-1.81-5.39-3.56-5.81-7.18,2.84,1.66,5.33,3.61,5.81,7.18Z" style="fill: #efbd6b; stroke-width: 0px;"/>
  <path d="M1115.19,484.28c.09-3.56-1.26-7.25.88-10.64.07,3.58,1.13,7.24-.88,10.64Z" style="fill: #ae0000; stroke-width: 0px;"/>
  <path d="M431.64,551.74c-2.45-2.41-1.36-5.48-1.37-8.25-.09-22.38-.05-44.77-.05-67.2-3.08.1-2.66,2.15-2.98,3.67-3.18,15.01-6.29,29.93-5.88,45.53.62,23.98-.24,48,.31,71.99.41,18.03.53,36.12,1.7,54.07.98,14.94-.21,29.88,1.23,44.69,1.88,19.25-.11,38.57,1.57,57.7,1.56,17.84.27,35.62,1.22,53.39,1.78,33.39,1.6,66.85,3.15,100.21,1.94,41.7.34,83.35,1.05,125.02.07,4.27-.92,8.56-1.39,12.84-.16,1.47-.36,3.18-2.08,3.3-1.7.12-2.21-1.66-2.73-2.97-3.93-9.9-5.2-20.45-6.62-30.85-3.81-27.82-4.92-55.85-6.31-83.89-.75-15.16-.31-30.3-1.09-45.42-1.11-21.4-.59-42.86-1.8-64.2-.93-16.38.32-32.78-1.28-49.02-1.8-18.3-.13-36.6-1.38-54.82-1.85-26.82-2.66-53.68-4.33-80.5-1.45-23.21-2.97-46.42-4.39-69.64-1.33-21.82-3.22-43.63-2.51-65.49.24-7.56-2.95-11.33-9.34-13.26-9.41-2.84-19.09-4.51-28.7-6.54-14.53-3.07-29.17-5.68-43.4-10.14-9.16-2.87-14.25-10.22-20.26-16.68-3.16-3.4-6.46-6.3-11.6-6.49-4.53-.17-6.59-3.2-7.11-7.64-.34-2.92-.18-7.76-3.66-7.45-3.55.32-2.88,5.24-3.57,8.44-4.61,21.42,3.39,41.24,8,61.37,6.31,27.58,12.17,55.09,14.02,83.49,1.73,26.53,3.51,53.09,5.81,79.57,2.11,24.25,2.88,48.46,2.57,72.74-.41,31.8,1.39,63.55,1.97,95.32.34,18.49-.84,37.18,1.33,55.5,2.01,16.96.16,33.61-.63,50.31-.81,17.16-1.03,34.52-5.49,51.35-.55,2.06-.56,4.79-3.14,5.08-2.28.26-2.71-2.39-3.58-4.01-1.4-2.63-2.88-5.06-6.19-5.48-1.46-25.22-2.37-50.45-3.33-75.69-1.01-26.44-1.85-52.9-2.91-79.34-1.16-28.86-1.91-57.73-2.88-86.6-.96-28.62-1.64-57.25-2.88-85.85-1.15-26.69-1.7-53.4-3.07-80.06-.78-15.18-.56-30.33-1.16-45.48-1.24-2.26.08-4.87-.97-7.16-.1-27.01-.45-54.01-.12-81.01.07-5.83.71-11.96,2.86-17.64,1.18-2.53,1.69-6.25,5.4-5.72,4.05.58,4.79,4.24,5.05,7.77.12,1.68.19,3.38.12,5.06-.14,3.68,1.24,5.87,5.17,6.42,9.14,1.29,16.74,5.78,23.64,11.73,8.21,7.08,17.94,11.12,28.27,14.06,18.11,5.16,36.43,9.42,54.82,13.43,9.98,2.17,12.66,5.1,12.75,15.22.3,35.68,2.5,71.28,4.56,106.88,2.17,37.52,4.56,75.02,5.84,112.6,1.06,30.83,1.9,61.66,2.84,92.49,1.15,37.58,1.8,75.18,3.08,112.74.7,20.65.98,41.48,5.03,61.92.31,1.58.59,3.22.09,4.37.8-23.26,2.89-46.89.54-70.67-1.63-16.53-.86-33.24-1.36-49.85-.67-22.39-1.67-44.8-2.04-67.22-.52-31.82-.89-63.65-1.61-95.45-.67-29.62-1.12-59.29-2.89-88.86-1.82-30.4-.95-60.76-.97-91.13,0-16.34,3.7-32.46,5.77-48.67.15-5.86.84-11.58,4.15-16.65,5-4.18,7.37-3.51,8.53,2.43.37,1.9.46,3.85.25,5.75-2.68,24.72-.74,49.51-1.37,74.26-.09,3.54.59,7.3-2.27,10.26Z" style="fill: #ae732b; stroke-width: 0px;"/>
  <path d="M424.4,474.98c-1.77,13.28-3.56,26.55-5.28,39.83-.31,2.38-.47,4.79-.47,7.18-.03,26.05-.78,52.13.18,78.14,1.13,30.75,2.07,61.51,3.1,92.25.46,13.69,1.03,27.4.92,41.08-.23,29.39,1.4,58.73,1.91,88.09.54,31.23,1.78,62.48,2.92,93.7.56,15.38,1.01,30.77.94,46.14-.05,10.18-1.43,20.35-2.87,30.53-4.09-6.87-4.88-14.62-5.28-21.89-.51-9.34-1.43-18.68-2.03-28.01-1.35-20.93-.08-41.93-1.6-62.76-1.28-17.6-.22-35.14-1.17-52.66-1.8-33.14-2.22-66.32-3.07-99.49-.53-20.62-1.75-41.25-2.89-61.86-1.37-24.9-2.62-49.83-4.32-74.7-1.35-19.66-2.07-39.31-3.01-58.97-.62-12.98-.98-25.93-1.07-38.91-.04-5.92-3.72-8.05-8.54-8.92-21.03-3.81-41.67-9.16-62.17-15.14-10.61-3.1-19.56-8.74-27.92-15.93-5.21-4.48-11.37-8.14-18.82-8.11-4.76.02-7.08-2.43-7.08-7.15,0-1.93-.04-3.86,0-5.79.06-2.94.34-6.37-2.88-7.53-3.41-1.23-3.52,3.21-5.64,4.47.67-5.96,1.78-11.81,4.37-17.29,6.03.46,7.07,4.85,7.44,9.62q1.19,15.12,16,17.16c2.15.3,4.32.76,6.45.77,9.34.05,16.54,4,22.36,11.17,3.55,4.37,8.24,7.48,13.59,9.25,18.49,6.11,36.55,13.69,56.08,16.33,9.16,1.24,12.35,4.58,14.19,13.69.81,4,1.61,8.03,1.71,12.15.09,4.05-.25,8.13.83,13.59,3.83-7.6,7.03-13.91,6.83-21.37,1.49-6.12.23-12.86,4.1-18.46.69-.6,1.43-.67,2.22-.21Z" style="fill: #bb8135; stroke-width: 0px;"/>
  <path d="M420.03,493.83c.42,9.38-4.77,16.84-8.3,25.64-3.21-3.31-3.35-6.74-3.21-10.17.27-6.5-.48-12.9-1.45-19.32-1.37-9.04-5.48-11.72-17.83-13.6-20.27-3.1-39.3-10.48-58.09-18.42-1.5-.63-3.19-1.62-4.02-2.92-9.49-14.92-25.18-14.98-39.94-15.93-7.55-.48-9.44-2.88-9.13-9.84.28-6.41,2.35-13.83-5.45-17.98,1.32-4.32,2.64-8.64,3.95-12.96,1.49-2.48,2.99-4.95,4.48-7.43,5.92,7.69,2.82,15.97,1.6,24.13-.44,1.62-.88,3.22-.99,4.93-.57,9.24.99,11.24,10.48,10.98,24.7-.68,49.04,1.96,73.16,7.07,1.65.35,3.35.47,4.95,1.03,6.74,2.36,7.75,7.04,2.56,11.77-7.23,6.6-7.03,7.63,1.77,12.27,6.28,3.31,12.87,5.12,19.96,5.79,11.5,1.09,16.71,5.88,18.85,17.26.78,4.17,3.1,6.28,6.65,7.69Z" style="fill: #d69e4c; stroke-width: 0px;"/>
  <path d="M282.68,999.07c2.34,2.65.94,5.84,1.25,8.79-2.28-2.66-1.11-5.82-1.25-8.79Z" style="fill: #8d4f16; stroke-width: 0px;"/>
  <path d="M265.5,527.22c1.84,2.18.91,4.74.97,7.16-1.9-2.17-1.14-4.71-.97-7.16Z" style="fill: #8d4f16; stroke-width: 0px;"/>
  <path d="M466.22,915.67c.82-34.45-.81-62.13-1.72-89.77-.86-26.33-2.39-52.71-3.94-79.05-1.13-19.13-2.59-38.24-3.97-57.35-.53-7.29,7.9-13.01,17.07-11.59,40.18,6.24,80.39,12.3,120.54,18.69,37.56,5.98,75.03,12.53,112.62,18.29,8.49,1.3,17.33.48,26,.35,4.22-.06,8.1.85,11.9,2.46,3.71,1.56,5.71,4.12,5.45,8.38-1.26,20.36-.66,40.81-2.8,61.13-.15,1.43-.08,2.89-.12,4.34-2.14,84.34-.74,168.7-1.83,253.04-.31,24.04-.58,48.12-1.04,72.17-.08,4.31.2,8.54,1.06,12.88,1.98,10-6.94,19.57-17.84,19.97-19.41.71-37.98-4.68-56.83-7.95-36.31-6.3-72.54-13-108.79-19.63-23.78-4.35-47.56-8.69-71.28-13.36-10.1-1.99-14.46-8.31-15.73-18.55-3.12-25.24-4.85-50.54-6.05-75.94-.47-9.83-1.25-19.69-.96-29.49.75-25.3-2.63-50.5-1.75-69.03Z" style="fill: #c80805; stroke-width: 0px;"/>
  <path d="M878.95,389.59c-5.61,20.7-3.67,42.27-7.81,63.31-4.66,23.62-18.31,37.83-38.5,48.3-23.28,12.07-46.14,24.94-69.22,37.39-8.38,4.52-6.35,13.12-7.2,19.95-2.12,17.12-2.09,34.49-3.49,51.67-1.74,21.45-.94,42.84-.92,64.24,0,10.36-11.25,22.44-21.18,23.83-14.26,1.99-27.52-2.38-41.14-4.08-23.96-3-47.8-7.02-71.67-10.76-25.29-3.96-50.57-8.01-75.83-12.18-21.24-3.51-42.45-7.24-63.67-10.9-11.4-1.96-18.94-7.66-19.86-20.12-.4-5.47-1.91-10.89-2.1-16.35-.7-20.19-1.58-40.4-1.37-60.6.15-15.19-1.65-30.25-1.63-45.41.03-23.54.12-47.06,4.2-70.37.66-3.74.09-7.7.09-11.56-.43-.82-.38-1.61.12-2.38,4.35-4.48,10.04-3.91,15.52-4.04,2.88-.07,5.76.11,8.64.07,28.14,3.95,56.17,8.72,84.27,12.96,49.54,7.47,99.12,14.66,148.77,21.34,10.36,1.39,19.65-1.26,27.05-8.99,8.78-9.18,19.24-15.77,30.45-21.65,25.6-13.43,51.59-26.08,77.14-39.6,6.18-2.56,12.45-4.88,19.15-5.62,3.51-.39,7.15-1.23,10.2,1.57Z" style="fill: #c90905; stroke-width: 0px;"/>
  <path d="M987.72,343.21c4.7,5.75,8.92,11.79,11.43,18.87-2.37-1.3-6.15-4.21-5.57,1.44,1.47,14.22-8.81,20.36-17.69,27.49-7.51,6.04-15.66,11.56-19.02,21.1-4.86,13.8-10.4,27.43-12.76,42-3.51,21.76-6.11,43.59-7.36,65.62-1.79,31.7-1.73,63.46-3.12,95.14-1.21,27.47.11,54.92-1.23,82.32-2.83,57.58-1.61,115.2-.83,172.76.42,31.05,1.17,62.14.62,93.16-.36,20.26-.47,40.79-5.43,60.77-1.45,5.86-3.98,11.14-6.95,16.07-2.07-.38-1.72-1.55-1.73-2.39-.09-26,.68-52.03-1.54-77.96-2.59-30.23-2.1-60.54-3.24-90.8-.6-15.87-.24-31.75-1.07-47.59-2.43-46.47-.07-93.02-1.8-139.46-.97-26.02-1.76-52.06-.64-77.96,1.07-24.82.52-49.59.9-74.37.11-7.07-.65-14.24-2.64-21.15-.04-9.15-.19-18.3-.1-27.45.26-26.46-2.03-52.63-8.57-78.34,4-1.55,5.67,1.53,7.44,3.95,4.91,6.7,7.77,14.36,9.98,22.29.96,3.46,1.65,7.03,4.38,11.84,2.55-8.64,4.4-16.06,5.01-23.77.27-3.36.06-6.74.08-10.11.09-15.86,8.88-23.16,24.62-22.47,13.14.57,24.23-5.98,33.1-15.11,5.76-5.93,2.79-13.59.54-20.54.28-2.24-.69-5.22,3.17-5.33Z" style="fill: #a56b27; stroke-width: 0px;"/>
  <path d="M878.95,389.59c-10.15-.74-19.55,2.24-28.84,5.76,1.54-10.83-.79-14.3-12.39-13.68-19.64,1.05-37.57-4.54-55.41-11.47-8.8-3.42-18.14-4.92-27.31-6.87-30.41-6.46-61.02-11.53-92.07-14.03-12.46-1-24.94-2.08-37.36-3.57-3.47-.42-6.76,0-9.89,1.37-31.11,13.64-63.51,24.18-94.03,39.26-13.03,6.44-25.13,14.26-37,22.52-2.19,1.52-4.08,3.38-5.67,5.53-4.05,5.47-3.84,8.31.93,13.08,1.15,1.15,2.88,1.95,2.34,4.06-8.24.4-16.74-1.43-24.51,2.9-3.07-1.19-3.9-3.69-3.91-6.68,6.42-16.97,18.4-29.02,33.53-38.52,28.8-18.09,60.41-30.06,91.83-42.44,6.74-2.65,13.73-4.91,20.02-8.35,14.2-7.77,28.98-7.17,44.29-5.49,22.48,2.47,44.99,4.77,67.5,7.05,22.27,2.26,44.23,6.62,66.25,10.51,19.5,3.45,38.56,8.68,57.69,13.67,10.25,2.68,21.1,3.13,30.82,7.68,6.14,2.87,13.32,4.96,14.65,13.29-.02,1.62.29,3.36-1.46,4.41Z" style="fill: #b81e1a; stroke-width: 0px;"/>
  <path d="M454.83,428.62c.97,1.94,1.94,3.89,2.92,5.83-.03.49-.06.99-.1,1.48-5.91,3-7.54,8.76-8.27,14.45-1.46,11.4-1.65,22.97-3.41,34.31-1.66,10.7.22,21.41-1.28,32.04-.9,6.33,1.65,12.39,1.41,18.63-.34,9.11-1.4,18.22-1.32,27.32.22,24.91.84,49.81,1.37,74.72.41,19.09,6.73,26.11,27.32,31.64,13.88,3.73,28.31,4.32,42.06,8.92-8.66-1.3-17.28-2.98-25.98-3.81-9.44-.9-18.76-3.48-28.5-.96-9.07,2.35-11.86,4.99-12.03,14.17-.37,20.47,1.17,40.9,1.93,61.32.56,14.91.12,29.83,1.04,44.7,1.87,30.49,2.35,61.02,3.26,91.54.41,13.68.47,27.39,1.03,41.08,1.9,46.48,1.21,93,1.59,139.5.08,9.28,1.71,18.59,3.11,27.82,1.26,8.36,6.05,14.46,13.59,18.41,2.3,1.2,5.09,1.79,6.31,4.52-8.82-1.95-15.14-7.43-20.36-14.45-5.56-10.88-6.03-22.79-7.1-34.6-.49-5.38,1.22-10.95-1.39-16.15-3.32-3.56-2.18-8.03-2.3-12.17-.15-5.43-.15-10.87-.02-16.31.06-8.5,1.13-17.04-.9-25.47-1.28-18.49-.36-37-.59-55.5.08-9.44,1.19-18.92-.84-28.3-1.29-16.04-.36-32.1-.59-48.14.25-5.71.86-11.44-.81-17.07-1.21-10.64-.4-21.33-.59-31.99.37-3.44.29-6.85-.82-10.18-1.07-7.35-.44-14.74-.6-22.11.22-4.69.62-9.38-.85-13.97-1.07-7.4-.45-14.84-.6-22.26.2-5.15.72-10.32-.86-15.37-1.12-8.34-.43-16.71-.6-25.07.28-4.76.61-9.52-.88-14.17-1.18-10.68-.38-21.39-.59-32.08.33-4.82.6-9.64-.89-14.35-1.24-14.52-.35-29.07-.58-43.6.24-6.23.89-12.48-.9-18.63-1.3-19.43-.63-38.88-.51-58.32.12-20.38-1.45-40.82,1.45-61.14.67-11.05,3.29-21.72,6.41-32.29.68-2.3,1.38-4.61,3.61-6,2.74-.96,4.95-.21,6.69,2.07Z" style="fill: #980502; stroke-width: 0px;"/>
  <path d="M454.83,428.62c-1.98-.49-3.95-.98-5.93-1.47-.46-9.31,5.13-16.22,10.05-22.97,12.07-16.57,30.22-24.77,48.14-33.05,3.04-1.4,6.16-2.71,9.33-3.83,22.89-10.04,45.83-19.96,68.7-30.04,2.85-1.26,5.87-2.14,8.89-2.98,4.46-.57,7.78-3.54,11.51-5.57,7.27-3.97,14.88-4.74,22.79-2.92,3.76.87,7.55.98,11.35,1.22,42.15,5.94,84.22,12.35,126.36,18.29,13.77,1.94,27.55,4.13,41.49,4.7,17.02,2.59,34.18,4.48,50.6,10.08,8.23,3.39,16.07,7.5,22.9,13.29,1.85,1.57,4.87,2.66,3.44,6.14-2.74.89-1.92,4.34-4.05,5.66-6.52-9.93-17.14-13.55-27.63-15.36-18.02-3.1-35.28-8.96-53.1-12.63-26.68-5.5-53.35-11.07-80.49-13.97-25.91-2.77-51.89-5.09-77.66-8.81-17.23-2.49-32.37,1.85-47.85,8.5-29.13,12.51-59.35,22.52-87.31,37.68-15.58,8.45-31.66,16.55-41.94,32-3.45,5.18-6.42,10.68-9.61,16.04Z" style="fill: #a9211e; stroke-width: 0px;"/>
  <path d="M986.15,349.01c6.19,13.33,3.07,22.35-10.16,28.97-5.16,2.58-10.42,4.94-15.65,7.38-2.92,1.36-6.04,1.64-9.18,1.25-15.41-1.88-23.27,4.65-22.86,20.01.31,11.21-1.69,21.95-4.49,32.65-.47,1.8-.6,4.4-2.86,4.39-2.22-.01-2.33-2.65-2.94-4.4-3.76-10.84-5.55-22.44-12.71-31.96-1.63-2.17-2.97-4.39-5.9-4.83-3.13-6.15-6.25-12.3-9.38-18.45,5.16-1.62,6.21,3.61,9.24,5.54.43.48.82,1,1.17,1.54,1.83,3.43,5.09,5.68,7.31,8.79,2.75,3.39,3.43,7.91,6.23,11.26,4.89,1.86,5.65-1.56,6.26-4.97.43-2.43-.5-4.77-.85-7.14-.78-5.35.69-10.03,4.27-14.04,3.49-3.9,5.39-8.27,5.66-13.68.59-12.01,6.77-16.3,18.37-13.06,5.79,1.62,11.21,4.32,17.24,5.33,11.49,1.92,14.66.11,17.85-11.05.33-1.16.65-2.32,1.38-3.32.62-.61,1.29-.68,2.01-.2Z" style="fill: #dba654; stroke-width: 0px;"/>
  <path d="M899.25,391c-3.72-1.48-5.07-6.09-9.23-6.99-1.82-1.54-4.41-2.12-5.56-4.5-6.76-8.47-16.25-12.96-25.66-17.58-12.51-6.65-26.23-9.47-39.91-12.25-10.65-2.16-21.06-5.24-31.58-7.88-3.08-.77-6.93-1.27-7-5.9,2.21-2.04,4.87-1.69,7.5-1.39,23.32,2.63,45.67,8.91,67.39,17.68,7.97,3.22,13.95,9.26,20.73,14.16,6.92,5.74,14.96,10.17,20.64,17.38,1.66,2.1,4.67,3.79,2.65,7.27Z" style="fill: #f0c06f; stroke-width: 0px;"/>
  <path d="M441.57,660.35c.12,11.04.25,22.08.37,33.12,1.49,4.29-.39,8.86,1.08,13.15.12,8.65.24,17.29.35,25.94,1.52,4.78-.39,9.82,1.08,14.6.12,7.68.24,15.36.36,23.03,1.51,4.29-.37,8.87,1.09,13.16.12,7.68.23,15.36.35,23.03,1.42,2.81-.24,6,1.1,8.82.09,11.08.18,22.15.26,33.23,1.77,5.23-.37,10.75,1.21,15.99.1,16.36.2,32.72.3,49.07,1.71,9.16-.47,18.49,1.15,27.65.11,18.77.22,37.53.32,56.3,1.61,8.2-.44,16.56,1.11,24.77.09,9.61.19,19.21.28,28.82-.16,2.6-.33,5.21-.57,9.12-6.41-6.38-6.29-13.99-6.42-20.51-.34-16.82-2.28-33.56-1.86-50.44.9-35.86-1.35-71.69-1.72-107.55-.3-29.27-1.48-58.59-2.75-87.86-1.09-25.19-1.97-50.38-2.91-75.58-1.21-32.66-1.6-65.35-3.07-97.98-1.03-22.87-.36-45.7-1.07-68.53,0-23.09-.09-46.19.09-69.28.05-6.68.93-13.35,1.34-20.03.12-1.89.47-4.37-1.6-5.15-2.41-.9-2.42,2.54-4.14,3.25-2.36-2.75-.92-5.5.24-8.06,1.12-2.49,2.94-4.63,6.06-4.1,2.79.47,3.58,2.89,4.13,5.31.73,3.24.41,6.74,2.38,9.68-2.42,32.32-.79,64.7-1.22,97.05-.11,8.16.07,16.32.12,24.48,1.53,5.76-.41,11.74,1.12,17.5.11,14.91.22,29.83.33,44.74,1.5,4.31-.38,8.9,1.08,13.21Z" style="fill: #bb8135; stroke-width: 0px;"/>
  <path d="M489.49,321.58c15.23-3.05,30.64-.64,45.95-1.45,8.82-.46,17.07-3.98,26.74-4.89-4.89,7.63-14.03,6.62-19.08,12.07-.18.24-.37.47-.55.71-1.75,1.15-3.82,1.66-5.62,2.71-.53.28-1.09.5-1.65.7-2.03.56-3.97,1.32-5.83,2.34-.56.3-1.15.53-1.75.74-2.55.74-4.89,1.94-7.18,3.28-14.97,7.3-30.75,12.69-45.84,19.72-8.54,3.98-16.64,8.75-25.06,12.93-9.28,4.61-18.91,7.46-29.28,6.51-19.2-1.75-38.48-3.05-56.46-11.22-7.94-3.61-14.46-8.72-19.16-15.98-3.99-6.17-3.02-9.6,3.52-12.68,11.21-5.29,21.08-12.61,31.02-19.84,4.1-1.82,8.19-3.64,14.15-6.29-9.97-3.31-18.54-4.01-26.94-5.42-2.5-7.91.61-12.47,8.84-12.92,15.38-.84,30.46,2.34,45.67,3.65,4.25.37,8.56.36,12.83,1.08,9.7,1.63,18.12,5.51,25.7,11.86,7.85,6.58,17.84,8.93,27.3,12.2-6.64,4.45-13.26,1.35-19.23-1.02-17.91-7.11-36.58-10.24-55.53-12.31-4.39-.48-7.93.07-9.43,5.38-1.19,4.23-5.65,5.66-9,7.94-5.99,4.07-6.18,6.73-1.02,11.95,3.21,3.26,7.41,4.47,11.58,5.56,26.37,6.88,52.75,8.11,79.08-.23,12.4-3.93,24.67-8.21,36.79-13.31-7.64-.41-15.29-.21-22.93-.47-2.82-.1-6.51,1.04-7.62-3.3Z" style="fill: #853502; stroke-width: 0px;"/>
  <path d="M379.26,317.23c-7.81,10.26-18.9,16.1-30.17,21.3-5.54,2.55-6.19,5.03-3.24,9.74,5.93,9.48,14.75,14.97,25.12,18.16,21.18,6.51,42.71,10.73,64.96,7.16,10.14-1.63,18.5-7.86,27.4-12.46,18.8-9.72,38.51-17.23,58.08-25.12,2.32-1.19,4.97-1.56,7.24-2.89h0c2.32-1.19,4.96-1.58,7.23-2.9h0c2.32-1.19,4.98-1.55,7.23-2.91,0,0,0,0,0,0,11.05-2.27,22.94.73,33.43-5.43,1.72-1.01,5.25-.98,5.89,1.1,2.31,7.51,6.3,3.89,10.23,2.11,2.37-1.07,5.2-1.19,6.94-3.51.69-1.9,2.02-2.56,3.95-2.03,1.51,1.86,2.27,3.96,1.98,6.39-.95,1.49-2.42,2.28-3.99,2.88-11.27,4.35-23.17,5.86-34.99,7.7-1.67-5.45,4.88-4.95,6.12-8.55-5.62,1.58-10.88,3.81-16.15,5.94-8.78,3.54-17.52,6.65-27.23,4.97-1.9-.33-3.88.09-5.66.8-18.51,7.37-36.99,14.8-54.29,24.81-.61.35-1.05.98-1.53,1.52-1.57,1.58-3.45,2.65-5.49,3.48-8.73,2.3-10.93,10-14.25,16.92-5.32,11.1-12.1,20.69-24.99,24.16-7.3,1.97-14.27,1.72-19.39-4.03-10.78-12.1-25.11-17.24-39.84-21.93-9.3-2.96-16.98-7.32-19.18-18.3-1.25-6.25-6.9-9.57-12.63-11.98-4.23-1.78-8.53-3.45-10.47-8.15,5.53-5.58,12.68-8.55,19.59-11.78,12.61-5.91,25.4-11.45,38.11-17.15Z" style="fill: #be7c29; stroke-width: 0px;"/>
  <path d="M321.56,346.17c4.66,3.38,9.81,5.79,14.98,8.29,4.81,2.32,9.34,5.85,10.08,11.5,1.28,9.78,8.03,13.55,16.07,16.34,4.09,1.42,8.17,2.87,12.3,4.13,10.97,3.36,20.29,9,28.45,17.35,9.1,9.31,24.27,7.1,32.86-2.91,6.49-7.56,10.91-15.99,14.45-25.17,1.84-4.77,6.57-6.6,11.34-7.77,1.89,3.29,1.91,6.54-1.01,9.11-11.22,9.89-17.54,23.11-24.62,35.81-1.39,2.5-2.5,5.17-4.7,7.16-12.15,6.25-24.8,4.9-36.09-.72-13.51-6.73-27.54-11.28-41.89-15.4-7.62-2.19-15.29-4.39-22.38-8.07-9.9-5.14-11.54-13.86-4.34-22.54,1.39-1.67,2.93-3.19,4.4-4.78,1.62-1.77,3.61-3.61,2.42-6.29-1.19-2.67-3.94-2.32-6.31-2.5q-9.87-.73-11.72-9.12c1.13-2.47,3.62-3.2,5.71-4.43Z" style="fill: #e5b05d; stroke-width: 0px;"/>
  <path d="M315.85,350.59c2.87,7.15,8.61,7.5,15.3,7.32,5.92-.16,7.92,4.56,4.37,9.35-1.97,2.66-4.64,4.79-6.84,7.3-7.09,8.06-5.71,15.22,4.12,19.82,12.66,5.92,26.23,9.27,39.7,12.68,11.77,2.99,21.11,11.74,33.16,13.55,8.72,1.32,17.66,2.65,26-2.07,2.76,5.58-1.12,7.67-5.23,8.6-4.91,1.12-9.89,2.02-14.86,2.91-2.98.54-5.61-.34-8.21-1.92-14.1-8.57-29.67-13.61-45.47-17.72-10-2.6-20.18-4.58-29.99-7.84-11.99-3.99-17.35-16.11-12.72-27.96.81-2.08,3.87-4.53,1.54-6.31-2.7-2.07-5.25.81-7.44,2.65-.55.46-1.02,1.02-1.47,1.58-2.45,3.1-4.73,6.39-8.74,7.73-1.14.27-2.32.36-3.44.78-1.82.7-3.68,1.15-5.27-.48-2.12-2.18.23-3.86.73-5.75,6.56-9.81,14.59-18.12,24.78-24.22Z" style="fill: #fad686; stroke-width: 0px;"/>
  <path d="M291.07,374.82c-.55,4.27-.97,8.31,5.08,3.76.8-.6,1.72-.01,2.28.84-3.78,10.37-9.12,20.06-13.06,30.36-1.22,1.98-.94,4.79-3.37,6.1-.33-.1-.66-.19-.99-.29,1.21-8.23,2.22-16.46.02-24.69,2.24-6.05,5.26-11.62,10.04-16.08Z" style="fill: #e8b865; stroke-width: 0px;"/>
  <path d="M690.8,142.04c-3.63,2.57-7.21,5.21-10.91,7.68-3.29,2.19-4.42,4.78-2.11,8.31-11.11,9.39-22.27,18.72-33.28,28.23-2.27,1.96-4.65,2.21-7.32,2.03,7.98-10.31,17.87-18.76,27.29-27.63,9.97-9.38,9.66-16.96-1.71-23.85-5.67-3.44-11.9-4.75-18.56-4.98-16.08-.55-32.04-2.09-47.32-7.77-8.65-3.22-12.34-10.62-11.1-19.89,2.87-21.53,13.03-39.49,26.1-56.17,1.06-1.35,2.19-2.57,2.29-4.38,13.63-11.38,28.63-13.31,45.83-9.08,15.71,3.86,32.01,5.39,48.11,7.51,11.94,1.57,23.19-2.92,34.71-4.93,4.94-.86,9.91-1.64,14.89-2.16,2.41-.25,4.97.41,2.35,3.55-10.08,12.08-16.88,26.21-25.11,39.45-.48.77-1.41,1.27-2.12,1.89-2.35-4.03.74-6.84,2.41-9.81,4.06-7.25,8.92-14.08,11.79-22.3-4.25-.77-6.78,1.31-9.15,3.12-8.69,6.66-18.16,11.77-28.49,15.38-3.41,1.19-6.62,2.91-9.72,4.77-7.69,4.63-7.77,5.02-3.52,13.02,3.73,7.04,3.1,14.65,1.89,21.95-2.01,12.08-3.1,24.38-7.23,36.05Z" style="fill: #e0a955; stroke-width: 0px;"/>
  <path d="M503.93,153.54c14.03-2.86,26.24,1.75,36.12,11.01,19.38,18.17,33.08,40.12,42.09,65.31,5.88,16.42,12.15,32.89,22.59,47.27,3.09,4.26,2.53,7.39-3.69,6.73-7.25-.77-12.9,3.5-18.98,6.03-28.63,11.89-58.17,16.01-88.89,11.56-1.89-.27-4.02-.56-5.73.03-5.71,1.96-10.61-.55-13.57-4.29-5.45-6.88-11.48-13.55-14.7-21.99-1.3-4.53-1.04-8.89,1.44-13,1.53-2.21,1.67-4.7,1.44-7.26,1.12-1.19,2.56-1.31,4-.96,18.97,4.58,38.48,5.61,57.65,8.83,4.53.76,9.12.39,13.68.34,1.57-.02,3.75.48,4.3-1.59.49-1.84-1.23-3.07-2.52-4.06-7.28-5.59-13.33-12.47-19.99-18.72-11.16-10.48-18.69-23.79-28.04-35.66-5.06-6.43-10.02-12.89-15.93-18.6-2.93-2.84-5.87-5.89-4.54-10.65,2.55-6.17,7.43-10.01,13.07-13.09,1.13-1.56,2.38-2.8,4.52-1.77,3.07,6.13,9.2,8.94,14.17,13,10.61,8.67,21.41,17.08,32.97,24.48,3.67,2.35,7.46,4.42,11.74,5.35,2.31.5,4.93,1.35,6.69-.96,1.5-1.96.51-4.26-.37-6.18-4.75-10.42-11.4-19.57-20.19-26.84-6.84-5.66-14.34-10.54-23.57-11.79-2.07-.28-4.33-.63-5.79-2.54Z" style="fill: #893201; stroke-width: 0px;"/>
  <path d="M757.56,285.49c-17.33-.95-34.56,1.39-51.87,1.75-15.28.31-30.41-.47-45.62-1.49-12.24-.82-24.32-2.1-36.3-4.71-5.15-1.12-8.73-3.15-9.27-9.01-.3-3.26-.98-6.46-2.8-9.52-1.52-2.56-.92-6.01,1.99-7.65,4.67-2.63,5.65-7.44,7.82-11.59,9.53-18.17,22.42-33.9,35.93-49.16,2.92-3.82,6.34-7.15,10.09-10.14,18.09-18.19,39.34-31.21,63.78-39,1.82,5.4-2.93,6.52-5.86,8.29-14,8.5-27.84,17.3-39.85,28.45-13.34,12.39-23.27,26.81-23.73,46.11-.12,4.89,1.03,8.08,6,8.94,8.1,1.4,15.65,4.3,22.92,8.02h.02c3.29,7.5,11.67,13.01,8.31,23.13-.95,2.86,1.99,4.87,4.71,5.43,11.82,2.44,23.62,1.94,35.45-.52-6.14-4.27-13.31-5.23-19.96-7.61-3.06-1.1-8.04-1.47-7.9-5.08.17-4.49,5.36-3.74,8.72-4.45,4.92-1.04,10.09-1.34,13.94-5.21,2.52-2.2,5.65-1.56,8.31-1.09,13.67,2.42,27.41.69,41.1,1.14,12.06-3.42,24.63-3,36.91-4.75,4.5-.64,8.99-1.31,13.47-2.07,2.58-.44,5.25-1.01,7.44,1.17-1.96,7.72-7.17,12.55-13.88,16.38-5.07,2.9-10.78,5.47-12.3,12.12-3.61,4.47-9.2,5.06-14.08,6.6-12.17,3.83-24.83,5.6-37.48,7.19-2.15.27-4.36.08-6.05-1.67Z" style="fill: #903f06; stroke-width: 0px;"/>
  <path d="M520.09,137.56c-.14,2.03-1.39,2.93-3.26,3.2-12.46-2.49-24.35,1.42-32.34,9.54-8.52,8.65-19.31,15.47-25.2,26.66-4.13,8.32-7.35,17.02-10.51,25.74-1.48,3.27-2.72,6.59-2.43,10.28-.16.45-.24.92-.24,1.4-1.25,2.76-.96,6.1-3.16,8.5-.48.52-.95,1.04-1.43,1.56-4.28,3.41-8.3,1.31-12-.95-3.98-2.43-3.8-6.32-2.6-10.3,1.61-5.36-.91-8.33-5.86-9.64-8.61-2.28-17.09-4.52-26.31-3.34-11.82,1.51-23.52.11-34.91-3.9-17.49-6.16-35.36-9.19-54.02-6.29-7.58,1.18-9.5-1.06-10.68-9.76.04-3.02.6-5.84,2.97-7.98.8-.35,1.55-.24,2.22.32,2.12,9.32,2.13,9.09,12.32,9.45,27.04.97,53.68,5.51,80.39,9.35,7.17,1.03,14.26,2.44,21.41,3.57,2.52.4,5.13,1.53,8.18-.15-2.28-4.76-6.9-5.59-11.05-6.77-16.52-4.7-33.53-6.84-50.48-9.29-11.22-1.62-22.43-3.37-33.54-5.61-13.35-2.69-16.48-7.78-12.72-20.84,1.85-6.43-1.68-4.92-5.13-4.05-3.67-2.07-1.23-4.45-.07-6.41,2.83-4.82,7.26-8.28,11.03-12.31,6.08-5.43,12.4-10.45,20.84-11.7,12.07-3.41,24.27-4.18,36.62-1.91.96.04,1.93.08,2.89.12,4.18,1.87,8.81-.52,12.99,1.37l.06.03c21.69,2.85,43.38,5.74,65.06,8.69l.06.03c2.7,1.75,5.99-.33,8.69,1.34,15.86,1.74,31.68,3.75,47.21,7.47,1.78.43,3.35,1.7,5.02,2.58Z" style="fill: #fbd888; stroke-width: 0px;"/>
  <path d="M391.08,273.76c-10.36-2.7-21.19-2.71-31.52-5.7-16.59-4.8-33.29-9.23-49.87-14.04-8.79-2.55-12.76-13.92-7.8-21.65,1.03-1.61,2.58-2.9,3.56-4.53,7.28-12.06,8.09-12.78,21.5-8.82,13.98,4.13,28.42,3.68,42.63,5.47,15.9,2,31.83,3.67,47.37,7.88,8.54,2.32,12.75,8.25,16.27,15.92,6.32,13.74,8.2,27.96,7.13,42.8-9.56-7.2-19.69-13.14-31.91-14.44-2.14-1.75-5.02.25-7.18-1.4-.5-.02-1-.03-1.5-.05-2.65-1.84-5.96.35-8.62-1.4l-.07-.04Z" style="fill: #965619; stroke-width: 0px;"/>
  <path d="M470.66,173.87c2.41,9,10.86,13.21,15.99,20.08,14.22,19.04,27.13,39.18,45.34,54.94,3.81,3.3,7.63,6.59,11.37,9.97,1.21,1.09,2.84,2.3,1.92,4.25-.81,1.72-2.6,1.88-4.36,1.98-9.66.54-19.21-.53-28.73-1.86-12.32-1.73-24.59-4.01-36.96-5.11-4.72-.42-8.49-3.5-13.19-3.17-2.76-1.73-.14-5.5-2.76-7.28-4.49-4.74-5.91-10.6-6.14-16.88-5.49-7.91.09-15.73.21-23.59,3.13-12.48,8.13-23.98,17.31-33.31Z" style="fill: #965619; stroke-width: 0px;"/>
  <path d="M605.37,324.47c-3.61-.37-2.41-2.32-1.4-4.22,4.29-5.92,10.48-6.86,17.05-6.07,6.12.74,12.27,1.47,18.29,2.93,2.57.9,5.28,1.05,7.97,1.31,1.17.23,2.22.69,3,1.65,8.69,2.73,17.78,3.01,26.71,4.18,5.43.71,10.83,2.43,16.45,1.63,1.47-.21,3.23-.28,3.55-1.87.35-1.72-1.39-2.42-2.73-2.83-4.35-1.31-8.75-2.43-13.12-3.68-1.55-.44-3.93-.47-3.74-2.61.17-2.02,2.39-2.1,4.07-2.01,10.54.58,21.19.46,31.6,1.99,32.69,4.8,65.26,10.33,97.91,15.38,19.03,2.94,37.39,8.5,55.91,13.47,9.18,2.46,21.56-2.84,25.78-10.91,2.05-3.92-.39-6.9-2.74-9.72-5.39-6.48-10.51-13.2-13.73-21.03-2.79-6.79.35-10.73,7.27-9.07,5.3,1.27,10.54.66,15.8,1.05,11.4,1.71,22.78,3.49,33.18,8.91-3.5,2.68-6.99.51-10.34-.23-9.61-2.12-19.1-4.87-29.01-5.27-2.56-.1-5.74-.66-7.24,2.02-1.73,3.11.87,5.43,2.63,7.61,2.74,3.37,5.95,6.27,9.41,8.91,2.5,1.9,4.81,4.01,6.54,6.66,4.57,7.05,3.67,12.61-3.4,17.12-3.94,2.51-6.01,5.22-4.87,10.01.69,2.88-.23,5.72-.95,8.52-1.41,5.45-4.45,7.83-10.08,5.54-3.87-1.64-7.09-4.35-10.68-6.45-1.88-1.51-4.06-2.25-6.42-2.56-1.42-.33-2.69-.96-3.87-1.78-17.57-9.11-36.62-13.16-55.9-16.41-17.33-2.92-34.71-5.47-52.07-8.21-1.8-.29-3.61-.63-6.35-.17,10.58,3.62,21.36,2.7,30.58,7.79,1.93,3.38,5.54,3.48,8.69,4.26,17.79,4.42,35.65,8.61,53.42,13.11,6.01,1.52,11.74,3.95,16.26,8.51-16.6-4.91-33.7-7.34-50.72-10.1-30.73-4.83-61.59-8.75-92.27-13.85-31.5-5.23-63.01-10.38-94.62-14.9-3.52-.5-6.57-.42-9.71,1.16-1.91.96-4.01,1.82-6.1.23Z" style="fill: #c98b36; stroke-width: 0px;"/>
  <path d="M690.8,244.77c-9.16-2.46-18.35-4.81-27.46-7.45-2.83-.82-3.97-3.42-3.87-6.27.82-21.68,10.64-38.58,26.99-52.44,12.13-10.28,25.16-19.09,38.74-27.24,2.44-1.47,6.11-2.38,6.11-6.43,7.19-4.06,15.32-4.84,23.4-6.48-16.41,11.96-32.73,23.93-42.1,42.49l1.31,1.49c4.46-3.69,9.28-7.02,13.3-11.14,10.09-10.33,20.63-20.13,32.06-28.95,1.09-.84,2.53-1.22,3.8-1.82,2.51,2.98.72,5.42-1.13,7.68-1.68,2.06-3.73,4.08-6.17,4.92-11.05,3.83-14.38,13.48-17.78,23.04-3.48,9.78-7.19,19.33-13.08,28.06-5.51,8.16-13.11,14.03-20.05,20.65-1.47,1.41-3.76,2.13-4.09,4.7,4.15.45,7.15-4.59,11.55-2.2-1.78,6.59-6.97,8.17-12.85,8.75-1.98-.16-3.75.42-5.53,1.28-2.1,1.01-4.79,2.96-6.52.65-1.56-2.09.74-4.69,2.09-6.37,3.29-4.09,7.27-7.63,10.69-11.63,2.57-3,6.17-7.58,2.84-10.31-2.84-2.33-5.64,3.14-7.88,5.56-5.39,5.84-7.24,13.99-12.46,20.07-1.49,1.74-.05,3.57,1.7,4.79,2.15,1.5,4.25,3.06,6.37,4.59Z" style="fill: #a25812; stroke-width: 0px;"/>
  <path d="M489.49,321.58c6.41,3.01,13.22,1.06,19.84,1.51,5.46.37,10.96.08,17.6.08-5.6,5.99-12.55,6.73-18.51,9.02-23.88,9.19-48.21,16.52-74.35,13.99-12.91-1.25-25.62-3.32-37.91-7.67-5.29-1.87-7.38-6.71-10.27-10.69-1.55-2.13.61-4.12,2.4-5.34,2.98-2.02,6.36-3.48,9.16-5.7,1.9-1.51,5.76-2.27,3.67-6.5-1.47-2.97,1.59-2.65,3.11-3.43,6.21-3.18,12.39-.04,18.4.53,15.76,1.48,31.08,5.35,45.83,11.41,5.73,2.36,12.01,3.32,18.35,2.61.9.07,1.79.13,2.69.2Z" style="fill: #2f0800; stroke-width: 0px;"/>
  <path d="M848.67,224.42c-3.11-4.71-7.17-8.39-12.08-11.14-3.2-1.19-6.44-2.28-9.48-3.85-9.14-5.12-19.33-7.03-29.28-9.68-2.51-.67-5.31-.52-7.36-2.53-3.22-.24-6.72.76-9.3-2.14,13.44-13.5,25.57-28.04,34.04-45.27,1.35-2.75,2.05-4.46,5.59-2.84,29.99,13.72,47.19,44.98,37.86,76.79-.25.87-.91,1.62-1.37,2.43-3.37,1.88-6.18.98-8.61-1.76Z" style="fill: #fefefe; stroke-width: 0px;"/>
  <path d="M557.6,160.86c.57-28.34,10.92-53.36,26.06-76.75,1.62-.82,3.03-1.21,2.9,1.46-4.87,11.48-9.74,22.98-13.24,34.97-2.59,8.9-2.18,17.53,3.63,25.33,4.95,6.65,12.93,6.67,19.78,9.14,11.67,4.2,23.58,2.34,35.51,1.61,7.81-.48,9.71,2.6,6.6,9.56-4.57,10.24-11.52,18.75-19.62,26.41-5.72,5.41-11.81,5.2-18.55,2.15-5.85-2.65-11.63-5.92-18.5-4.92-8.19-9.65-16.38-19.3-24.57-28.94Z" style="fill: #fcefa1; stroke-width: 0px;"/>
  <path d="M712.61,227.59c-3.57,0-6.09,2.75-9.29,3.57-1.82.47-4.29,2.89-5.64.14-.99-2.01.99-4.21,2.77-5.34,3.91-2.48,6.76-6.11,10.29-8.94,12.23-9.79,19.24-22.86,24.21-37.31,1.32-3.85,2.64-7.71,4.29-11.42,3.1-6.97,6.06-13.64,14.74-16.26,4.52-1.37,9.67-4.83,9.13-11.48,3.18-3.39,7.05-4.45,11.69-4.34,7.47.19,14.79,1.26,22.11,2.49,2.86.48,3.88,1.24,2.12,4.73-11.56,22.96-30.75,39.24-48.88,56.42-3.99,3.78-8.65,6.86-13.01,10.26-2.76,5.05-8.15,7.17-12.11,10.89-1.45,1.28-2.92,2.53-4.72,3.3-2.38.77-4.54,2.03-6.77,3.14-.31.06-.62.11-.93.15Z" style="fill: #833504; stroke-width: 0px;"/>
  <path d="M854.4,286.7c4.95-.53,9.71.72,14.51,1.57-.05,12.48,4.49,23.91,8.4,35.42,2.58,7.59.12,12.14-8.19,12.22-10.09.1-19.83-2.94-29.76-4.37-22.22-3.2-44.43-6.51-66.62-10-21.96-3.45-43.87-7.17-65.81-10.79-8.84-1.46-17.68-2.96-26.43-5.53,10.76-.21,21.45.79,32.14.49,33.05,4.42,65.63,11.97,98.92,14.74,10.07.84,20.16,1.21,30.17-.99,5.96-1.31,10.5-4.55,13.93-9.52,3.91-5.67,4.91-11.38.69-17.4-1.2-1.71-2.83-3.4-1.95-5.86Z" style="fill: #934207; stroke-width: 0px;"/>
  <path d="M503.93,153.54c19.01,1.44,32.41,11.91,43.06,26.76,3.9,5.44,7.97,10.74,9.36,17.63,1.03,5.13-.98,6.55-5.62,6.37-4.99-.19-9.43-2.05-13.54-4.52-16.3-9.77-30.31-22.69-45.8-33.58-2.26-1.59-3.66-3.83-3.25-6.81,2.1-4.16,6.47-4.33,10.13-5.74,1.89-.04,3.78-.08,5.67-.12Z" style="fill: #6f2200; stroke-width: 0px;"/>
  <path d="M854.4,286.7c5.5,6.17,9.73,12.6,5.2,21.27-5.67,10.86-15.29,14.58-26.75,15-22.39.83-44.37-2.94-66.33-6.44-16.98-2.71-33.83-6.21-50.72-9.42-1.1-.21-2.11-.92-3.15-1.39,5.3,0,10.6,0,15.89,0,24.48,3.03,49,5.79,73.58,7.82,7.68.63,15.37.25,22.9-1.77,2.32-.62,4.7-1.14,6.82-2.29,4.26-2.31,9.9-5.18,8.52-10.25-1.39-5.12-7.33-2.48-11.44-2.19-6.7.46-13.3,2.16-20.06,1.93-2.83-.1-5.84.34-8.11-2.06,15.79-5.67,31.56-11.39,46.62-18.86,1.87-.93,3.69-1.87,4.1,1.41-3.06.54-5.7,1.82-8.01,4.08,3.24,3.56,7.97.2,10.95,3.18Z" style="fill: #672302; stroke-width: 0px;"/>
  <path d="M800.75,296.91c10.37.54,20.56-.84,30.74-2.6,4.32-.75,9.77-1.16,11.98,2.66,2.55,4.4-2.03,7.83-5.07,10.84-6.26,6.22-14.72,6.74-22.66,7.77-11.73,1.52-23.46-1.08-35.19-1.7-11.19-.59-22.28-2.88-33.46-3.8-6.49-.53-12.34-3.06-18.56-4.36,24.17-2.14,48.35-4.24,72.22-8.82Z" style="fill: #3f0e00; stroke-width: 0px;"/>
  <path d="M828.19,207.87c2.91,1.63,6.53,2.16,8.39,5.41-1.87,2.71-3.38,5.57-7.21,6.34-20.94,4.17-39.55,14.42-58.79,22.99-5.35,2.38-10.68,4.4-16.63,3.56-2.39-.34-5-1.1-5.97-3.47-1.04-2.51,1.59-3.72,2.99-5.21,4.16-4.42,9.66-7.05,14.48-10.58,2.38-1.74,5.38-4.27,2.23-6.91-7.11-5.97-1.95-9.7,1.81-13.8,1.1-1.2,2.6-2.04,3.92-3.04.95.85,1.52,2,1.41,3.2-.45,4.94,2.29,5.69,6.53,6.2,11.51,1.38,23.04,1.22,34.58,1.32,5.22.05,9.41-1.46,12.26-6Z" style="fill: #f1c06e; stroke-width: 0px;"/>
  <path d="M734.11,250.46c-.31,4.17-2.89,5.44-6.71,6.04-5.1.8-10.48.62-15.94,3.44,8.7,4.71,18.01,5.51,26.35,9.06,2.11.9,5.67.68,5.69,3.46.03,3.73-4.04,3.02-6.25,3.28-11.46,1.35-22.98,2.17-34.38-.59-5.46-1.32-7.85-4.64-5.45-10.16,1.66-3.83,1.23-6.89-2.3-9.34-3.83-2.66-3.69-6.91-4.28-10.86,6.19.77,12.25.99,17.79-2.76,4.06-2.75,8.34-.39,12.52-.11.81,1.68-.34,2.6-1.53,3.7,4.57,1.02,7.59-1.77,10.97-3.81,2.84-1.72,5.37-5.04,9.43-2.76-1.51,4.05-10.5,4.21-5.92,11.41Z" style="fill: #a25812; stroke-width: 0px;"/>
  <path d="M640.1,318.72c-4.97-.56-10.15-.42-14.87-1.83-7.84-2.34-14.55-.14-21.25,3.36-1.46.44-2.92.88-4.38,1.32-2.51-.11-4.33-1.56-4.66-3.8-1.09-7.45-4.78-6.62-9.74-3.61-1.92,1.17-4.32,1.55-6.84,1.61,9.87-7.41,19.32-15.57,30.84-19.83,4.07-1.5,9.7,1.39,14.65,2.11,8.03,1.16,16.08,2.22,24.13,3.25,3.04.39,5.97.95,8.99,3.37-6.05,2.48-12.6-1.21-17.87,3.48,2.92,4.24,7.72,4.48,11.72,6.1,1.62.66,3.45,1.13,3.25,3.2-.2,2.02-2.05,2.42-3.79,2.63-.95-.03-1.9-.06-2.85-.09-2.26-1.5-5.07.25-7.33-1.26Z" style="fill: #8f3d05; stroke-width: 0px;"/>
  <path d="M848.67,224.42c2.87.59,5.74,1.17,8.61,1.76-2,9.05-5.82,16.54-15.92,18.69-17.49,2.82-35.02,5.32-52.77,5.73-1.69.04-3.37-.05-5.06-.08,21.1-10.24,41.72-21.67,65.14-26.1Z" style="fill: #da2b29; stroke-width: 0px;"/>
  <path d="M828.19,207.87c1.87,7.2-3.84,7.67-8,7.83-14.89.55-29.8.24-44.66-1.29-2.77-.29-3.88-1.2-3.08-4.16.62-2.29.67-4.73.97-7.1,2.91-3.52,6.52-5.11,11.18-4.66,1.95.19,4.3.9,5.86-1.27,13.39.68,25.92,4.42,37.74,10.66Z" style="fill: #fae293; stroke-width: 0px;"/>
  <path d="M737.3,211.9c11.68-6.81,22.1-15.42,31.66-24.75,12.99-12.66,27.96-23.73,36.23-40.66.89-1.82,2.36-3.52,4.51-2.57,2.76,1.23,1.64,3.84.79,5.62-4.06,8.55-10.06,15.8-16.4,22.69-9.6,10.44-20.18,19.89-30.93,29.13-8.73,7.16-17.57,14.18-27.18,20.13-3.26,2.02-7.16,4.73-8.3-2.17,2.31-3.64,5.89-5.63,9.62-7.43Z" style="fill: #f4d888; stroke-width: 0px;"/>
  <path d="M757.56,285.49c19.7-1.66,39.05-5.01,57.61-12.13,2.62-.05,4.59-2.68,7.49-1.94-14.73,14.37-92.54,26.78-125.07,19.09,10.26-.72,20.52-1.55,30.79-2.13,9.77-.55,19.6-.38,29.18-2.89Z" style="fill: #f2d584; stroke-width: 0px;"/>
  <path d="M592.14,204.44c4.89-.85,8.85,1.48,12.4,4.22,3.89,3.01,7.22,2.95,10.64-.44,2.44-2.41,5.25-4.02,8.8-4-4.52,8.99-10.53,17.1-14.96,26.2-2.42,4.97-4.71.43-5.81-1.85-3.86-7.96-7.41-16.07-11.08-24.13Z" style="fill: #e5c06f; stroke-width: 0px;"/>
  <path d="M728.5,218.82c.46,5.2,3.47,3.56,5.89,1.94,7.88-5.28,15.64-10.75,23.39-16.22,1.72-1.21,2.94-3.2,5.37-3.18-11.11,12.22-25.07,20.75-38.83,29.46-6.26,3.96-12.26,8.64-19.62,10.53-4.18,1.08-7.8.85-5.21-5.2,4.43-2.76,9.44-4.64,13.11-8.56,0,0-.02-.02-.02-.02,2.13-1.96,4.97-2.73,7.28-4.37,1.39-1.05,2.79-2.09,4.18-3.14,1.47-.46,2.56-2.26,4.44-1.24Z" style="fill: #d8a150; stroke-width: 0px;"/>
  <path d="M603.13,286.5c-12.56,15.71-72.64,27.44-93.53,18.08,33.1,3.63,63.73-4.97,93.53-18.08Z" style="fill: #d79e4c; stroke-width: 0px;"/>
  <path d="M740.02,239.05c-4.09.24-7.27,2.79-9.88,5.26-4.23,4.01-8.65,3.72-15.41,2.83,2.9-2.37,4.65-3.79,6.4-5.22,7.82-3.21,14.09-8.91,21.18-13.29,1.62-1,3.15-2.16,4.68-3.31,2.63-1.98,6.04-3.9,8.21-.84,2.29,3.23-1.05,5.43-3.64,7.37-3.66,2.73-7.32,5.41-11.54,7.21Z" style="fill: #903f06; stroke-width: 0px;"/>
  <path d="M453.14,230.78c2.05,5.63,4.09,11.26,6.14,16.88-.34,1.91-1.24,3.23-3.39,2.49-2.19-.76-3.67-2.41-3.79-4.76-.24-4.53-.25-9.08-.36-13.62.46-.33.93-.66,1.4-.99Z" style="fill: #f0ca7a; stroke-width: 0px;"/>
  <path d="M448.77,202.7c1.46-9.41,4.65-18.12,10.51-25.74-1.99,9.2-5.65,17.71-10.51,25.74Z" style="fill: #c99041; stroke-width: 0px;"/>
  <path d="M460.61,262.21c.21,4.41,0,8.77-1.44,13-4.17-4.85-4.55-9.28,1.44-13Z" style="fill: #965619; stroke-width: 0px;"/>
  <path d="M498.26,153.66c-3.38,1.91-6.75,3.83-10.13,5.74-1.46.46-2.93.92-4.39,1.38,2.65-6.85,8.83-6.49,14.52-7.12Z" style="fill: #965619; stroke-width: 0px;"/>
  <path d="M728.5,218.82c-1.48.41-2.96.83-4.44,1.24,3.83-4.01,8.5-6.93,13.08-9.96.05.6.11,1.19.16,1.79-2.93,2.31-5.87,4.62-8.8,6.93Z" style="fill: #a25812; stroke-width: 0px;"/>
  <path d="M667.53,183.95c-2.66,4.08-6.09,7.39-10.09,10.14,1.76-4.98,5.17-8.31,10.09-10.14Z" style="fill: #a25812; stroke-width: 0px;"/>
  <path d="M457.4,254.48c-.14,1.14-.95,1.68-1.93,1.6-1.39-.11-2.07-1.03-1.69-2.44.29-1.07,1.14-1.41,2.18-1.22,1.13.21,1.44,1.03,1.44,2.05Z" style="fill: #a36623; stroke-width: 0px;"/>
  <path d="M391.15,273.79c2.88.42,6.1-1.18,8.63,1.41-2.88-.43-6.09,1.18-8.63-1.41Z" style="fill: #a36623; stroke-width: 0px;"/>
  <path d="M401.28,275.24c2.42.31,5.16-.98,7.18,1.4-2.42-.32-5.16.97-7.18-1.4Z" style="fill: #a36623; stroke-width: 0px;"/>
  <path d="M986.15,349.01c-.48,0-.96,0-1.45,0-7.7-9.35-14.31-19.61-23.47-27.73-1.05-.93-1.75-2.28-1.32-3.86,6.48,2,10.08,7.6,14.76,11.84,1.41,1.27,2.75,2.61,4.12,3.93,2.97,3.34,5.95,6.68,8.93,10.01-2.32,1.45-1.36,3.78-1.57,5.8Z" style="fill: #c98b36; stroke-width: 0px;"/>
  <path d="M959.91,317.42c7.44,7.95,15.64,15.22,21.42,24.63,1.37,2.24,2.94,4.3,3.36,6.96-.49,14.87-5.81,18.8-20.49,16.34-5.81-.98-10.93-3.48-16.41-5.13-11.59-3.49-16.88,0-16.58,11.8.14,5.58-1.85,9.87-5.55,13.45-4.7,4.55-5.62,9.73-3.98,15.8,1.37,5.1,1.75,9.8-4.15,12.91-3.8,2-4.68.31-5.32-2.78,3.8-5.07,4.24-10.58,2.12-16.42-2.31-6.38-1.64-11.78,4.75-15.59,4.5-2.68,5.13-6.84,3.25-11.32-1.79-4.26-3.11-8.54-3.61-13.16-.35-3.26-2.14-5.87-5.19-7.36-1.8-.88-3.74-1.15-5.57-.16-2.31,1.25-1.45,3.24-.97,5.09,1.73,6.62-1.61,11.95-5.36,16.48-4.49,5.43-14.39,1.13-16.88-6.92,7.04,1.75,11.77-3.41,9.61-11.84-1.47-5.75-.54-8.73,4.84-11.48,7.98-4.08,8.71-10,2.36-16.83-3.73-4.02-8.26-7.29-12.29-11.05-1.74-1.62-3.37-3.47-4.6-5.49-4.1-6.72-2.45-9.69,5.35-9.91,10.46-.31,20.37,2.88,30.46,4.92,3.99.8,7.95,1.72,11.92,2.59,1.12,1.46,2.77,1.24,4.31,1.4,2.48.91,5.01,1.64,7.44,2.68,5.24,3.46,10.47,6.92,15.71,10.38Z" style="fill: #f0c06f; stroke-width: 0px;"/>
  <path d="M944.2,307.04c-2.86.15-5.33-.77-7.44-2.68,2.98-.5,5.42.52,7.44,2.68Z" style="fill: #c98b36; stroke-width: 0px;"/>
  <path d="M253.53,65.23c4.03-4.18,8.21-8.06,14.7-7.26.57-.4,1.21-.58,1.91-.57,2.68.33,5.34.86,8.06.7,1.04.02,2.07.07,3.06.4,2.11,1.5,4.8.61,7.01,1.71,2.92,1.16,6.22,1.34,8.8,3.39,4.37.02,7.55,3.23,11.53,4.29,9.51,1.29,16.49,7.45,24.05,12.5,1.91,1.75,3.85,3.48,5.62,5.36,1.66,1.76,2.37,3.67-.65,4.95-6.37-.36-10.59-5.3-16.09-7.55-2.66-1.09-5.08-2.73-7.75-3.8-3.42-1.36-7-5.37-10.41-2.77-2.82,2.15.36,6.21.68,9.43.29,2.86,1.01,5.72-.96,8.3-3.3.51-3.08-2.39-3.82-4.15-1.3-3.11-3.45-3.97-6.35-2.6-14.82,6.99-30.57,11.77-45.29,18.99-4.24,2.08-7.69,4.98-9.22,9.66-.44,1.35-1.46,2.87-.49,4.11,1.33,1.71,3.15.51,4.62-.03,9.73-3.56,19.4-7.27,29.02-11.09,2.57-1.02,5.25-2.89,8.07-.44-8.39,6.27-18.57,8.68-27.91,12.92-1.74.79-3.67,1.29-5.22,2.34-14.78,9.98-16.87,15.63-6.69,30.19,7.37,10.54,17.47,18.4,25.32,28.36-2.74,1.81-4.66-.08-6.3-1.71-7.5-7.46-15.44-14.48-21.87-23-5.2-6.89-8.77-14.35-9.8-22.94-.33-2.74-1.11-5.14-3.27-6.99-10.72-9.2-7.75-21.23.28-30.06,8.57-9.42,20.1-15.56,31.43-21.5,1.09-.57,2.34-.48,3.48.07,1.36,3.89-2.04,4.9-4.14,6.43-6.82,4.93-14.21,9.05-20.57,14.64-2.35,2.07-4.76,4.05-6,8.28,5.27-1.67,9.47-4.27,13.93-6.11,14.45-5.96,29.37-10.82,43.14-18.35,3.46-1.89,8.88-3.5,7.82-8.13-.92-4.05-6.52-2.95-10.12-3.89-3.73-.97-7.65,1.44-11.38-.49-3.83-2.29-7.9-3.11-12.33-2.34-2.1.36-4.29.69-5.95-1.24Z" style="fill: #965619; stroke-width: 0px;"/>
  <path d="M331.77,81.36c-7.72-4.49-15.44-8.98-23.16-13.47,1.87-1.3,3.74-2.6,5.61-3.9,21.37,9.58,41.11,21.91,59.89,35.83,1.15.85,2.2,1.9,3.11,3.01,1.42,1.73,4.18,2.78,2.99,5.93-1.26,3.32-4.13,2.74-6.68,3-4.72-.01-6.7-4.18-9.73-6.61-10.39-8.33-21.45-15.73-32.02-23.8Z" style="fill: #efbd6b; stroke-width: 0px;"/>
  <path d="M389.66,107.3c-.9-.27-2.12-.25-2.67-.85-13.94-15.09-29.27-28.53-46.57-39.68,10.16,2.91,18.61,9.05,26.33,15.75,8.48,7.35,16.7,15.2,22.91,24.78Z" style="fill: #efbd6b; stroke-width: 0px;"/>
  <path d="M281.09,59.49c-.9-.03-1.79-.06-2.69-.09-2.77-1.68-6.18.51-8.91-1.44l-.63-.09s-.63.09-.63.09c-2.04-.89-4.07-1.79-6.11-2.68,9.11-.73,17.87.94,26.4,4.03-.27.26-.55.52-.82.78-2.21-.07-4.51.76-6.6-.6Z" style="fill: #efbd6b; stroke-width: 0px;"/>
  <path d="M401.19,114.62c-4.5-1.4-8.94-2.9-11.53-7.32,4.75,1,8.54,3.53,11.53,7.32Z" style="fill: #efbd6b; stroke-width: 0px;"/>
  <path d="M297.08,63.6c-3.02-.86-6.04-1.71-9.07-2.57-.3-.29-.4-.57-.28-.84.12-.27.23-.4.33-.4,0,0,.45-.47.45-.47,3.18.78,7.02.23,8.56,4.28Z" style="fill: #efbd6b; stroke-width: 0px;"/>
  <path d="M298.53,172.48c-.53,2.39-1.07,4.79-1.6,7.18-1.43,10.06-.7,11.36,9.05,10.91,10.93-.51,20.68,2.22,30.42,7.09,13.66,6.83,28.87,9.03,43.69,11.94,19.88,3.91,38.77,10.96,57.95,17.11,1.43.46,2.59,1.21,3.7,2.14.03,1.44.13,2.89.06,4.33-.13,2.55.74,5.86-2.58,6.8-3.75,1.07-4.22-2.71-5.02-4.86-2.69-7.21-9.02-7.93-15.13-8.99-27.55-4.77-55.41-7.74-82.69-14.16-4.14-.97-8.62-.54-12.94-.63-9.86-.22-17.18-6.68-25.6-10.4-4.75-2.1-3.48-6.82-3.75-10.82-.15-2.26,1.27-5.48-1.27-6.55-2.64-1.12-2.96,2.46-4.3,3.91-2.6,2.82-5.36,2.82-8.44,1.06-4.42-2.52-8.2-5.79-11.84-9.34-10.22-9.99-17.58-22.14-25.73-33.68-4-5.66-2.62-11.46,2.66-15.97,1.08-.93,2.27-2.08,3.58-2.35,15.25-3.16,28.05-12.17,42.34-17.59,5.32-2.02,10.99-.43,16.48-.89,3.25.86,3.19,3.46,3.19,6.04-.17.47-.44,1.07-.83,1.09-21.59.76-30.54,17.6-40.25,32.65-4.48,6.94,3.26,24.24,10.85,28.34,3.71,2.01,5.37-.35,6.76-3.01,2.44-4.68,4.23-9.71,7.4-13.98,1.52-2.05,3.12-5.09,6.2-3.43,2.71,1.46,1.2,4.4.42,6.52-1.14,3.13-.29,6.83-2.76,9.55Z" style="fill: #c99041; stroke-width: 0px;"/>
  <path d="M441.72,228.85c-7.13-.55-14.02-3.22-20.34-5.61-21.94-8.28-45.03-11.5-67.45-17.49-6-1.6-12.31-2.51-17.71-5.81-9.57-5.87-19.79-8.01-31.01-7.36-10.57.61-11.93-1.95-8.29-12.91.37,8.54,1.85,10.01,9.91,8.41,15.29-3.03,30.33-1.13,44.78,3.48,16.25,5.19,32.13,8.57,49.46,6,8.22-1.22,17.02,2.28,25.06,5.53,3.58,1.45,4.66,4.66,3.84,8.43-2.41,11.05-.79,12.87,11.54,12.93.07,1.47.13,2.93.2,4.4Z" style="fill: #e4ae5c; stroke-width: 0px;"/>
  <path d="M310.18,114.44c-.88-1.91-1.76-3.82-2.64-5.73-2.86-2.25-.71-6.36-3.24-8.73-1.41-.98-1.77-2.51-2.15-4.04-.07-.66.14-1.22.61-1.68.44-4.85-.62-9.54-2.01-14.08-.74-2.41-1.54-4.5.35-6.58,2.42-2.65,4.76.15,6.34.9,10.2,4.81,20.14,10.2,30.16,15.4,10.83,5.12,20.86,11.25,27.27,21.88.1.38.09.76,0,1.14-7.89,2.89-16.09,4.56-24.3,6.18-7.01,2.61-13.25,6.5-18.9,11.37-7.52-2.7-9.59-9.29-11.48-16.03Z" style="fill: #fefefe; stroke-width: 0px;"/>
  <path d="M253.53,65.23c5.41.19,10.77-2.7,16.27.03,1.47.73,2.42,1.35,2.62,2.95-3.02,4.88-7.08,8.2-13.03,8.68-12.74,5.27-24.56,12.58-33.92,22.3-7.33,7.61-11.26,19.63.69,27.91,1.86,1.29,2.83,3.13,2.83,5.52.02,11.83,6.06,21.21,13.64,29.23,6.98,7.38,13.08,15.95,22.54,20.72,0,0,.01.01.01.01,2.64,1.63,4.53,4.2,7.22,5.78h.02c2.01,1.34,3.72,3.08,5.78,4.33h.02c2.17,2.02,5.02,2.78,7.52,4.18,2.14,1.21,4.26,2.92,2.95,5.76-1.35,2.93-3.91,2.17-6.24,1.24-10.67-4.26-19.69-11.01-28.05-18.73-2.47-2.28-4.65-4.88-7.47-6.79-7.98-8.57-16.43-16.76-22.29-27.08-.96-4.94-7.02-7.75-5.76-13.62-2.28-9.44-6.13-18.42-5.96-28.52.4-23.52,17.08-41.89,40.62-43.9Z" style="fill: #8c450e; stroke-width: 0px;"/>
  <path d="M302.75,94.25c.36.25.44.58.25.97.78,7.97.66,8.12-6.95,8.42-1.18.05-2.38-.09-3.38.74-4.34,1.46-8.67,2.91-13.01,4.37-11.09,2.37-20.92,8.21-31.68,11.49-.46.14-.85.49-1.31.59-3.81.79-9.68,4.93-10.87,2.25-2.2-4.93.92-10.78,5.3-14.46,7.7-6.46,17.57-8.71,26.58-12.59,7.71-3.32,15.58-6.25,23.26-9.63,7.5-3.31,8.85-2.71,10.5,5.42.18.87.86,1.63,1.31,2.44Z" style="fill: #8c450e; stroke-width: 0px;"/>
  <path d="M262.2,202.85c-23.01-16.63-43.03-35.72-52.26-63.66-.51-1.57-1.23-3.41.66-4.35,1.93-.96,3.76.12,4.97,1.65,2.61,3.34,4.7,7.04,6.96,10.62,10.92,17.37,23.14,33.67,39.27,46.66,1.69,1.36,3.57,2.7,4.37,4.73,1.5,3.81.38,5.66-3.97,4.35Z" style="fill: #f6dda7; stroke-width: 0px;"/>
  <path d="M291.43,240.38c-3.1,2.83-6.93.89-10.35,1.56-2.85.56-6.13,1.11-6.81,4.36-.83,3.89,2.92,4.35,5.39,5.56,5.52,2.69,12.46,1.36,17.27,6.09-13.28-1.54-26.58-2.93-39.82-4.72-4.5-.61-6.56-2.78-2.63-7.22,4.19-4.74,8.6-7.94,15.45-7.1,4.97.61,10.08.01,15.12.21,3.34.13,4.99-1.08,4.81-4.49,1.83,1.56,1.33,3.76,1.58,5.75Z" style="fill: #e4ae5a; stroke-width: 0px;"/>
  <path d="M262.2,202.85c6.58-1.23,3.04-4.01.62-5.79-16.76-12.33-27.9-29.48-39.81-45.97-.67-.93-.91-2.16-1.35-3.25,2.74-.99,3.1,1.64,4.36,2.89,6.27,9.44,13.8,17.86,21.45,26.18,9.07,9.95,18.85,18.95,30.97,25.26,3.67,1.91,7.93,3.61,9.84,7.94.53,4.19-.36,6.1-5.3,4.55-7.84-2.46-14.51-6.73-20.79-11.8Z" style="fill: #dfa958; stroke-width: 0px;"/>
  <path d="M226.03,150.73c-1.45-.96-2.91-1.92-4.36-2.89-2.2-3.31-4.14-6.83-6.67-9.87-1.89-2.27-4.64-4.42-5.06,1.21-4.06-10.08-5.76-20.57-5.46-31.4.05-1.74.3-3.86,2.2-4.03,2.53-.24,1.77,2.2,2.05,3.71,1.94,10.55,3.74,21.14,10.15,30.19,1.58,4.8,6,8.04,7.15,13.08Z" style="fill: #d09645; stroke-width: 0px;"/>
  <path d="M288.29,210.1c-13.15-7.91-26.49-15.56-36.72-27.39-1.56-1.8-3.55-3.29-4.09-5.81,5.79,4.92,11.63,9.78,17.37,14.76,5.69,4.94,12.56,7.81,19.17,11.14,1.33.67,2.8,1.25,3.64-.6.78-1.71-.46-2.71-1.73-3.42-2.9-1.63-6.21-2.7-7.71-6.09,3.83.77,7.62,2.92,11.44-.3,1.43-1.21,2.84-.4,2.87,1.44.11,5.8,1.23,11.91-4.24,16.27Z" style="fill: #965619; stroke-width: 0px;"/>
  <path d="M292.67,104.39c.95-1.34,2.38-1.56,3.82-1.41,6.01.6,6.48-3.37,6.5-7.75,1.45,1.31,1.29,3.05,1.29,4.75.01,3.47-1.18,5.52-5.18,4.83-2.11-.36-4.29-.29-6.44-.42Z" style="fill: #965619; stroke-width: 0px;"/>
  <path d="M272.4,188.35c-3.66-.36-5.43-3.08-7.22-5.78,3.66.36,5.43,3.08,7.22,5.78Z" style="fill: #965619; stroke-width: 0px;"/>
  <path d="M442.94,222.89c.58-3.01,1.09-6.05,3.16-8.5.12,3.27.28,6.56-3.16,8.5Z" style="fill: #c99041; stroke-width: 0px;"/>
  <path d="M278.2,192.69c-2.93-.09-4.51-2-5.78-4.32,2.92.1,4.51,2.01,5.78,4.32Z" style="fill: #965619; stroke-width: 0px;"/>
  <path d="M760.12,50.75c8.14-5.92,14.15-14.39,23.15-19.3,3.16-1.72,6.1-3.9,9.37-5.34,8.22-3.61,13.78-.96,17.1,7.43,5.4,13.63,6.87,27.86,6.99,42.35.06,7.39-3.07,12.34-10.18,14.76-12.29,4.17-24.57,8.38-36.79,12.74-3.33,1.19-5.56,1.02-6.64-2.8-2.35-8.32-9.91-11.43-16.2-15.64-3.31-2.22-5.34.84-6.76,3.36-2.37,4.19-4.28,8.64-6.67,12.83-2.9,5.1-3.02.84-3.72-1.23,8.18-17.58,17.63-34.38,30.35-49.16Z" style="fill: #8c4009; stroke-width: 0px;"/>
  <path d="M690.8,142.04c-2.78-2.18-.48-4.4.03-6.52,2.72-11.15,4.24-22.49,5.79-33.84,1.31-9.6-.65-18.04-7.71-24.51,12.06-13.03,30.46-14,43.51-24.65,3.51-2.86,7.09-5.84,11.57-7.11,1.66-.47,3.67-2.12,5.29-.06,1.31,1.67-.16,3.24-.92,4.62-3.78,6.96-7.68,13.85-11.54,20.76-1.63,2.92-3.72,5.63-4,9.13-5.82,12.78-13.97,24.37-19.02,37.53-1.61,4.92-2.64,10.08-5.75,14.4-5.76,3.42-11.51,6.83-17.27,10.25Z" style="fill: #c58a3a; stroke-width: 0px;"/>
  <path d="M708.06,131.79c-.12-5.62,2.64-10.08,5.75-14.4.52,1.64-.87,4.25,1.3,4.86,2.24.63,2.47-3.01,4.64-3.37-.51,2.52-1.01,5.03-1.52,7.55-3.39,1.79-6.78,3.58-10.18,5.36Z" style="fill: #e0a955; stroke-width: 0px;"/>
  <path d="M586.56,85.57c-.63-1.16-1.71-1.41-2.9-1.46,1.29-5.75,4.94-9.91,9.34-13.66-.36,5.83-3.09,10.6-6.44,15.12Z" style="fill: #fcd584; stroke-width: 0px;"/>
  <path d="M839.82,133.51c1.08,1.81,2.44,3.32,4.43,4.18,2.56,1.69,4.79,3.8,6.68,6.17,2.43,3.04,1.85,5.13-2.35,5.49-20.15-15.63-43.01-24.84-68.83-28.55,6.14-2.6,15.43-2.45,26.83.33,6.29,1.53,12.51,3.36,18.76,5.05,5.17,1.77,10.25,3.73,14.49,7.34Z" style="fill: #d09745; stroke-width: 0px;"/>
  <path d="M848.58,149.34c2.49-1.36,3.49-2.98,1.18-5.43-1.9-2.01-3.67-4.15-5.5-6.23,4.54.57,6.33,4.7,9.31,7.27,2.42,2.09,3.6,5.18.87,7.38-3.07,2.48-4.32-1.08-5.86-3Z" style="fill: #f4c471; stroke-width: 0px;"/>
  <path d="M839.82,133.51c-5.13-1.86-10.07-4.08-14.49-7.34,6.15-.16,11.15,1.95,14.49,7.34Z" style="fill: #f4c471; stroke-width: 0px;"/>
  <path d="M364.87,111.78c-8.39-8.17-18.03-14.78-27.27-21.88.96-4.82-5.12-4.85-5.82-8.54,13.65,6.36,25.08,15.9,36.39,25.58,1.83,1.57,3.58,3.22,5.37,4.83-2.89,2.78-5.78.94-8.66,0Z" style="fill: #a36623; stroke-width: 0px;"/>
  <path d="M459.11,126.13c-18.46-.5-36.51-4.41-54.76-6.68-3.37-.42-7.34.87-10.31-2.01,18.44.66,36.57,4.02,54.77,6.66,3.38.49,7.33-.83,10.3,2.03Z" style="fill: #efbd6b; stroke-width: 0px;"/>
  <path d="M340.55,119.1c7.82-3.16,15.89-5.33,24.3-6.18,3.76,3.89,9.35-.3,13.25,3-11.61,0-23.29-.56-34.37,4.04-1.19.49-2.32.18-3.18-.86Z" style="fill: #efbd6b; stroke-width: 0px;"/>
  <path d="M393.98,117.41c-4.33-.49-8.89,1.3-12.99-1.37,4.33.46,8.89-1.28,12.99,1.37Z" style="fill: #efbd6b; stroke-width: 0px;"/>
  <path d="M467.86,127.51c-2.92-.3-6.11,1.12-8.69-1.35,2.93.25,6.09-1,8.69,1.35Z" style="fill: #efbd6b; stroke-width: 0px;"/>
  <path d="M466.5,365.2c6.84-7.11,16.25-9.74,24.72-13.95,6.87-3.41,14.02-6.26,21.1-9.22,7.23-3.02,14.2-5.95,22.68-4.79,10.66,1.46,19.68-5.31,29.45-8.36,3.8-1.19,7.36-3.15,11.71-3.46-.02,7.07-7.93,6-9.88,10.6-1.06,3.17-4,4-6.59,5.15-21.15,9.34-42.38,18.5-63.54,27.81-8.98,3.95-17.68,8.42-25.12,15.06,12.2-5.54,23.98-11.98,36.77-16.14,5.46-1.78,5.67-1.83,8.98,1.2-16.86,6.95-33.45,14.27-47.46,26.49-9.93,8.66-15.96,19.54-20.42,31.58-5.13,11.54-7.02,23.86-8.77,36.21-4.16-1.67-3.75-5.48-4.12-8.88-.23-2.13,0-4.75-2.85-4.92-2.41-.14-3.65,1.97-4.27,4.09-.66,2.25-1.06,4.58-1.57,6.87-1.9,4.63-3.14,9.39-2.93,14.45,0,0-.71,0-.71,0h-.71c-1.96-1.73-1.81-4.08-1.88-6.37.84-8.17,3-15.88,6.48-23.44,6.94-15.08,14.3-29.95,21.54-44.87,6.82-14.05,18.98-23.34,31.89-31.61,1.79-1.15,5.45-1.55,3.81-4.89-1.49-3.03-4.36-2.02-7-1.11-3.66,1.26-6.82,5.02-11.32,2.49Z" style="fill: #cc8f3b; stroke-width: 0px;"/>
  <path d="M422.95,467.77c.01,2.4.02,4.81.03,7.21-.98,6.28-1.97,12.56-2.95,18.84-6.31,3.44-7.75-1.15-8.52-5.6-2.28-13.28-6.17-16.94-19.79-17.56-9.27-.42-17.07-4.91-24.66-9.46-3.9-2.33-4.29-5.93.24-9.17,2.87-2.05,8.59-2.7,7.31-7.55-1.24-4.69-6.56-3.59-10.47-4.47-23.53-5.34-47.31-7.58-71.42-7.04-13.42.3-16.15-4.01-11.72-17.38,0,0,.16.1.16.1,5.11,10.51,8.08,12.11,20.43,10.14,9.94-1.59,19.76-.28,29.44,1.31,18.79,3.08,37.67,5.16,56.6,6.99,4.08.39,8.15,1.08,12.01,2.48,6.3,2.29,7.18,7.04,2.12,11.44-3.32,2.88-7.56,4.19-11.46,6.05-1.94.92-4.31,1.82-4.14,4.43.16,2.55,2.55,3.29,4.59,4.02,3.17,1.14,6.5,1.78,9.7,2.85,7.7,2.57,13.13,7.57,15.72,15.5,4.81-3.76.77-10.85,6.76-13.12Z" style="fill: #e8b865; stroke-width: 0px;"/>
  <path d="M482.25,431.55c-11.78-8.25-11.22-15.49,1.38-24.57,24.19-17.43,50.99-29.66,78.58-40.48,17.22-6.75,34.43-13.55,51.37-20.94,9.85-4.29,19.46-.51,29.09-.37,12.13.19,24.24,2.37,36.34,3.87,15.42,1.9,30.93,3.4,46.21,6.13,17.19,3.07,34.19,7.18,51.22,11.1,9.59,2.21,18.41,6.78,27.92,9.42,7.95,2.2,15.71,4.05,24.03,3.85,5.47-.13,11.01-.88,16.49.86,10.58,3.36,11.71,6.35,5.23,14.93-28.46,14.71-56.96,29.34-85.36,44.18-7.71,4.03-14.48,9.48-20.37,15.92-8.98,9.81-19.91,12.09-32.77,9.96-18.41-3.06-36.97-5.16-55.45-7.78-24.4-3.47-48.8-6.97-73.18-10.59-21.06-3.13-42.09-6.44-63.14-9.67-12.53-1.93-25.06-3.87-37.59-5.81Z" style="fill: #db2f2c; stroke-width: 0px;"/>
  <path d="M450.28,941.17c-2.65-9.12-.8-18.43-1.15-27.65,2.62,9.12.91,18.43,1.15,27.65Z" style="fill: #9d601f; stroke-width: 0px;"/>
  <path d="M451.71,1022.24c-2.64-8.15-.79-16.51-1.11-24.77,2.52,8.16.88,16.5,1.11,24.77Z" style="fill: #9d601f; stroke-width: 0px;"/>
  <path d="M440.15,602.39c-2.5-5.7-.91-11.66-1.12-17.5,2.36,5.71.97,11.65,1.12,17.5Z" style="fill: #9d601f; stroke-width: 0px;"/>
  <path d="M448.83,864.44c-2.61-5.16-.78-10.66-1.21-15.99,2.56,5.17.98,10.65,1.21,15.99Z" style="fill: #9d601f; stroke-width: 0px;"/>
  <path d="M444.46,747.16c-2.39-4.72-.89-9.72-1.08-14.6,2.32,4.72.96,9.72,1.08,14.6Z" style="fill: #9d601f; stroke-width: 0px;"/>
  <path d="M443.03,706.62c-2.36-4.22-.95-8.75-1.08-13.15,2.21,4.23,1.03,8.74,1.08,13.15Z" style="fill: #9d601f; stroke-width: 0px;"/>
  <path d="M441.57,660.35c-2.33-4.24-.96-8.79-1.08-13.21,2.21,4.25,1.02,8.78,1.08,13.21Z" style="fill: #9d601f; stroke-width: 0px;"/>
  <path d="M445.91,783.36c-2.33-4.22-.93-8.76-1.09-13.16,2.23,4.23,1.06,8.75,1.09,13.16Z" style="fill: #9d601f; stroke-width: 0px;"/>
  <path d="M447.35,815.22c-2.17-2.72-1.01-5.85-1.1-8.82,2.08,2.73,1.11,5.84,1.1,8.82Z" style="fill: #9d601f; stroke-width: 0px;"/>
  <path d="M516.78,369.09c-3.71-2.92-6.86.13-10.03,1.16-12.19,3.96-23.39,10.15-34.83,15.8-1.52.75-3.54,3.01-5,.69-1.25-1.99.93-3.23,2.5-4.47,12.25-9.71,26.73-15.17,40.76-21.47,18.65-8.38,37.4-16.53,56.11-24.78,12.5-5.64,27.38-3.23,39.09-11.54,10.41-6.58,21.32-2.74,31.93-1.12,32.57,4.98,65.09,10.33,97.61,15.6,23.33,3.78,46.64,7.64,69.96,11.52,1.11.19,2.14.89,3.2,1.36-15.09-.27-29.9-3.11-44.8-5.03-18.68-2.4-37.32-5.2-55.97-7.89-17.93-2.58-35.88-5.03-53.75-7.98-4.93-.82-10.1-.08-14.82-2.2-16.6-7.41-31.25-2.55-45.11,7.21-25.62,11.05-51.24,22.1-76.86,33.15Z" style="fill: #ae6b20; stroke-width: 0px;"/>
  <path d="M593.64,335.94c9.2-12.32,33.95-16.27,45.11-7.2-4.59.81-9.03-.52-13.34-1.51-9.16-2.1-16.57,1.56-23.85,6.09-2.46,1.53-4.86,3.01-7.92,2.62Z" style="fill: #a5281d; stroke-width: 0px;"/>
  <path d="M884.78,362.05c1.55,3.64,5.08,5.14,8.16,6.73,4.15,2.14,7.88,1.66,9.44-3.85,1.34-4.73,6.22-8.77,1.63-14.48-1.48-1.83-.21-4.99,2.79-5.48,3.51-.57,7.74-1.43,9.95,2.2,5.36,8.8,7.33,18.75,8.32,28.87.21,2.15-2,3.17-3.74,3.98-7.24,3.37-8.08,8.91-4.82,15.34,2.45,4.85.37,9.39-.05,14.04-.24,2.63-2.09,2.87-4.24,1.99-3.03-3.35-3.73-7.86-5.79-11.7-1.86-3.33-5.22-5.41-7.16-8.66,0,0-.03-.04-.03-.04-3.67-7.44-9.76-12.7-16.43-17.13-2.64-1.75-5.02-3.42-6.77-6.01-4.27-3.5-8.56-7.03-12.24-11.12-2.62-2.91-2-3.93,2-4.67l3.04,1.36c1.93,1,4.14,1.42,5.92,2.75,3.94.93,6.68,3.92,10.03,5.87Z" style="fill: #f9e497; stroke-width: 0px;"/>
  <path d="M899.28,391.04c3.08,2.32,6.53,4.33,7.16,8.67-3.04-2.35-6.49-4.36-7.16-8.67Z" style="fill: #f0c06f; stroke-width: 0px;"/>
  <path d="M865.8,352.07c-4.44.97-1.74,2.84-.44,4.29,3.5,3.89,7.12,7.68,10.69,11.51-3.88-.12-5.42-3.71-8.1-5.58-19.53-13.62-42.02-19.03-64.85-23.23-7.46-1.37-14.91-3.52-22.65-2.99-10.81-.72-21.21-3.72-31.79-5.69-1.63-.3-3.77-.78-3.49-2.87.31-2.32,2.71-1.75,4.17-1.55,14.25,1.9,28.51,3.78,42.71,6,14.7,2.3,29.37,4.78,43.85,8.31,10.55,2.57,20.37,6.79,29.91,11.81Z" style="fill: #eec371; stroke-width: 0px;"/>
  <path d="M528.64,333.12c-1.87,2.32-4.39,3-7.24,2.89,1.89-2.27,4.4-2.98,7.24-2.89Z" style="fill: #ae6b20; stroke-width: 0px;"/>
  <path d="M535.87,330.22c-1.86,2.33-4.39,3.01-7.23,2.9,1.88-2.28,4.39-2.99,7.23-2.9Z" style="fill: #ae6b20; stroke-width: 0px;"/>
  <path d="M543.11,327.31c-1.85,2.35-4.38,3.03-7.23,2.91,1.89-2.27,4.39-2.99,7.23-2.91Z" style="fill: #ae6b20; stroke-width: 0px;"/>
  <path d="M422.95,467.77c-2.17,4.11-1.93,8.75-2.85,13.13-.33,1.58.17,3.61-2.19,3.92-1.64.21-3.01-.84-3.35-2.23-3.21-13.25-14.03-15.67-25.07-18.09-3.01-.66-6.36-2.2-6.72-5.77-.39-3.84,3.15-5.02,5.95-6.34,3.69-1.74,7.49-3.26,11.18-5.01,2.37-1.12,3.77-3.29,3.68-5.77-.1-2.83-2.96-2.98-4.93-3.33-8-1.42-16.02-3.36-24.08-3.63-13.73-.47-27.07-3.38-40.61-5.03-11.63-1.42-23.16-4.13-34.96-1.15-2.26.57-4.84.36-7.19,0-9.04-1.41-10.69-3.5-10.63-12.77,2.14-1.38.54-4.54,2.79-5.87,2.99,7.98,9,9.32,17.02,9.88,20.41,1.41,40.8,3.43,61.09,6.18,7.88,1.07,15.7.85,23.78-.55-10.2-4.65-20.33-9.13-31.23-11.55-9.18-2.04-18.26-4.5-27.36-6.84-12.42-3.19-17.52-11.83-19-23.54-.48-3.82-.41-7.73-2.55-11.16,2.34-3.9,5.52-6.67,10.21-7.21,1.69-.2,3.45-.12,4.64,1.38,1.46,1.83-.08,3.06-1,4.43-7.83,11.67-4.83,27.8,13.36,31.6,20.67,4.31,41.08,9.74,60.59,18.05,1.32.56,3.21.51,4.03,1.44,7.99,9.17,17.66,5.19,27.14,3.94,4.69-.62,7.05-2.6,6.97-7.33,6.32-12.71,12.83-25.31,21.83-36.41.91-1.12,1.6-2.64,2.77-3.27,4.46-2.4,6.18-6.07,5.84-10.93,1.47-.91,2.94-1.82,4.42-2.73,4.52-.29,8-3.21,12.01-4.77,2.26-.88,4.31-2.03,6.6.2,3.28,3.2,5.51,5.27-.58,8.54-18.14,9.72-31.82,23.53-39.31,43.37-4.49,11.9-10.53,23.27-16.47,34.57-3.46,6.59-4.67,13.56-5.81,20.67Z" style="fill: #f7d889; stroke-width: 0px;"/>
  <path d="M305.72,372.24c3.44.21,4.11,2.42,4.37,5.42,2.15,24.6,6.5,24.38,25.44,29.3,16.46,4.28,32.98,8.25,48.86,14.45,2.51.98,6.58,1.17,5.91,4.92-.59,3.29-4.28,2.21-6.8,2.34-16.61.86-32.84-3.2-49.28-3.91-12.95-.56-25.56-3.97-38.6-3.42-8.86.37-11.4-2.59-11.64-11.5,3.96-10.54,7.13-21.47,14.47-30.4,3.1-1.71,5.34-4.29,7.28-7.18Z" style="fill: #fdf5a9; stroke-width: 0px;"/>
  <path d="M337.96,140.92c15.84,1.65,28.92,3.02,42,4.37,12.84,1.33,25.68,2.63,38.52,3.98,16.27,1.71,32.46,2.33,48.65-1.17,3.97-.86,5.86,1.61,4.16,5.77-.27.67-.5,1.45-1,1.9-10.28,9.27-17.6,20.9-25.72,31.91-2.49,3.38-6.43,5.78-9.64,1.54-9.59-12.66-24.14-11.69-37.26-13.69-21.96-3.35-44.34-3.84-65.84-10.27-8.36-2.5-9.61-4.75-6.02-12.75,2.95-6.57,7.37-11.18,12.16-11.59Z" style="fill: #dda653; stroke-width: 0px;"/>
  <path d="M310.18,114.44c4.3,5.01,6.01,11.86,11.48,16.03-4.06,6.01-11.11,9.75-13.17,17.28-3.45,8.03-3.34,17.29-8.58,24.7-.46,0-.92.02-1.38.03-1.07-5.26,1.65-10.12,2.27-16.37-6.14,4.62-8.24,10.52-10.69,16.04-4.42,9.99-7.48,10.96-14.43,2.62-8.92-10.7-13.78-22.11-3.4-34.92,6.38-7.88,13.28-15.09,21.16-21.43,5-4.02,10.42-5.77,16.74-3.98Z" style="fill: #e4b162; stroke-width: 0px;"/>
  <path d="M299.9,172.45c2.5-8.36,2.04-17.74,8.58-24.7,1.16-.84,2.38-1.6,3.46-2.54,1.58-1.38,3.22-2.29,5.16-.85,1.89,1.41,1.43,3.19.85,5.2-1.52,5.31-6.31,10.53-1.63,16.25,4.52,5.53,11.51,5.39,17.78,6.57,25.16,4.74,50.79,6.66,75.68,13.02,4.71,1.2,9.3,2.64,13.26,5.46,1.64,1.17,4.31,2.56,3.46,4.94-.88,2.47-3.67,2.87-6.17,2.46-8.97-1.47-17.91-3.21-26.91-4.51-21.79-3.15-43.4-7.6-65.51-8.42-5.96-.22-11.87-1.47-17.92-1.38-11.76.19-11.86-.07-10.08-11.5Z" style="fill: #fcf4a4; stroke-width: 0px;"/>
  <path d="M640.1,318.72c2.5.08,5.18-.88,7.32,1.26-2.5-.08-5.19.96-7.32-1.26Z" style="fill: #ae6b20; stroke-width: 0px;"/>
  <path d="M874.75,356.18c-2.4,0-4.38-.91-5.92-2.75,2.57-.36,4.65.33,5.92,2.75Z" style="fill: #eec371; stroke-width: 0px;"/>
  <path d="M719.87,223.21c-1.8,2.51-4.35,3.76-7.28,4.37,1.42-3.14,4.17-4.05,7.28-4.37Z" style="fill: #a25812; stroke-width: 0px;"/>
  <path d="M977.43,343.82c-.21,3.98-1.75,6.46-6.31,4.14-1.88-.95-3.75-2.29-5.1-3.89-8.42-9.96-19.16-15.28-31.84-18.09-13.94-3.09-25.13-12.75-38.33-17.85-2.08-.8-3.27-2.94-2.9-5.31.35-2.23,2.26-2.55,4.2-3.2,8.49-2.82,15.93,1.49,23.77,3.08,22.07,4.46,40.16,15.17,53.3,33.76,1.55,2.2,3,4.34,3.2,7.35Z" style="fill: #fce597; stroke-width: 0px;"/>
  <path d="M259.38,76.88c4.34-2.89,8.69-5.79,13.03-8.68,5.66-.77,11.35-1.73,16.93.2,2.6.9,6.29.58,7.23,3.9,1.08,3.79-2.4,5.8-4.75,7.35-7.03,4.61-14.72,8.05-22.54,11.2-12.46,5.01-24.79,10.38-37.18,15.56-1.71.71-3.95,2.22-5.29.86-1.85-1.86-.04-3.9,1.23-5.7,4.11-5.82,10.19-9.25,15.77-13.34,5.19-3.8,11.29-6.35,15.59-11.36Z" style="fill: #a36623; stroke-width: 0px;"/>
  <path d="M269.5,57.97c3.05,0,6.25-.96,8.91,1.44-3-.25-6.31,1.32-8.91-1.44Z" style="fill: #a36623; stroke-width: 0px;"/>
  <path d="M288.07,59.79c.09.42.07.83-.05,1.24-2.35-.33-5.04.87-6.92-1.53,2.33.1,4.65.2,6.98.29Z" style="fill: #a36623; stroke-width: 0px;"/>
  <path d="M423.39,446.95c-1.07,7.08-2.13,14.17-3.21,21.25-.29,1.9-.35,4.06-3.27,3.55-8.63-1.53-13.97-10.43-11-18.78,1.75-4.93,2.9-10.23,6.42-14.31,1.64-1.89,3.25-4.76,6.39-3.78,3.16.99,3.81,4.07,4.17,6.97.21,1.66.04,3.36.04,5.04.15.02.3.04.45.06Z" style="fill: #fcf9ef; stroke-width: 0px;"/>
</svg>