<?xml version="1.0" encoding="UTF-8"?>
<svg id="Layer_1" data-name="Layer 1" xmlns="http://www.w3.org/2000/svg" viewBox="0 0 828.57 1025.91">
  <path d="M720.86,265.24c15.2,8.66,30.39,17.32,45.59,25.97,14.1,8.03,28.29,15.87,41.93,24.71,13.49,8.75,20.48,20.55,20.18,36.83-.64,33.97-1.21,67.99-4.54,101.77-1.03,10.44-1.17,20.79-1.77,31.18-2.95,50.55-5.9,101.09-8.82,151.64-3.18,55.03-6.22,110.06-9.51,165.08-1.28,21.31-2.99,42.59-4.7,63.87-1.67,20.92-14.12,33.11-33.46,38.03-53.35,13.56-106.86,26.52-160.3,39.71-2.69-.84-2-3.1-1.61-4.75,3.65-15.37,2.25-31.12,2.85-46.62.81-21.1,1.5-42.25,1.91-63.39.65-33.51,1.95-67.02,2.9-100.52.44-15.56.36-31.14,1.05-46.69.73-16.2,1.79-32.38,1.1-48.61,1.11-22.12.58-44.3,2.25-66.4.1-1.28.22-2.55.18-3.83-.73-24.1,1.07-48.15,1.58-72.22.68-31.95,2.13-63.88,2.41-95.84.05-6.01-.41-11.89-1.58-17.74-2.15-9.83-4.69-19.56-8.96-28.74-4.12-10.26-12-17.27-20.54-23.7-1.85-2.07-5.63-2.94-4.35-6.96,1.14-1.24,2.62-1.3,4.14-1.19,15.15,1.17,30.33.26,45.49.54,7.12.13,14.06-1.11,20.87-3,11.32-3.14,16.44-11.74,14.62-23.43-1.12-7.23-5.28-12.98-8.56-19.17-.67-3.1,1.59-4.51,3.54-6.11,5.7-4.66,11.44-9.22,15.78-15.33,1.83-2.58,4.33-4.71,8.03-3.9,10.84,6.14,22.58,10.76,32.32,18.82Z" style="fill: #286de4; stroke-width: 0px;"/>
  <path d="M461.7,989.85c-1.47-.07-2.96.16-4.32-.78-7.53-5.17-15.31-3.95-23.72-1.97-52.93,12.43-105.96,24.46-158.97,36.56-3.94.9-7.98,1.45-12,1.9-14.19,1.58-26.4-2.14-36.66-12.62-16.33-16.67-29.94-35.6-45.1-53.24-2.92-3.4-5.83-6.82-8.59-10.35-6.72-8.6-12.79-17.98-24.94-19.67,1.45-6.83-3.79-11.12-6.23-16.48-1.14-2.5-1.91-5.17-2.8-7.78-2.28-5.83-.81-12.19-2.67-18.08-1.01-10.85-1.22-21.79-1.4-32.62-.34-20.29-1.26-40.56-1.9-60.82-.92-29-1.77-58.02-3.19-87.01-.82-16.82-1.29-33.7-1.72-50.57-.66-26.23-1.79-52.45-2.57-78.68-.83-27.92-2.28-55.82-2.35-83.77,0-.86-.19-1.7-.45-2.51-.24-.76-.39-1.55-.5-2.34-.49-9.54-.14-19.09-.23-28.64-.03-2.55,0-5.09-.82-7.55-.47-2.33-.67-4.67-.54-7.04-.28-10.14.98-20.32-.83-30.42-.87-5.5-.5-11.03-.53-16.55.48-5.43-.35-10.92.62-16.34,1.05-2.79,2.05-5.59,2.82-8.49,1.1-4.16,2.89-8.02,5.78-11.31,5.86-6.67,10.22-6.54,15.33.59,7.46,10.42,15.34,20.54,23.12,30.72,7.2,9.42,17.33,15.78,25.98,23.69,2.99,2.73,6.13,5.38,9.52,7.58,10.46,6.81,14.16,16.97,15.51,28.78,3.06,26.74,4.28,53.58,5.3,80.45.31,8.09,1.27,16.16,1.26,24.29-.01,6.67,3.02,11.42,9.47,13.74,1,.36,2.01.74,2.94,1.26,1.67.92,3.88,1.81,3.25,4.11-.5,1.8-2.68,1.88-4.36,2.02-4.9.41-9.82.07-14.73.24-3.37.12-4.76,1.67-1.86,4.08,7.51,6.23,7.33,14.52,7.95,23.24,1.42,20.22,1.81,40.49,3.34,60.7.76,9.99,1.29,20.08,1.29,30.04-.02,25.63,1.62,51.21,1.74,76.83.16,33.07,1.77,66.12,2.63,99.19.66,25.16,1.69,50.32,2.55,75.48.57,16.61.93,33.27,2.45,49.85.59,6.48,3.77,10.65,10,12.64,5.23,1.67,10.49,1.73,15.83.85,17.09-2.82,33.9-6.95,50.73-10.95,45.52-10.8,91.18-20.99,136.36-33.19,4.09-1.1,7.95-3.26,12.38-2.9,3.85,2.55,2.11,6,.39,8.26-3.15,4.15-4.83,8.24-3.44,13.39.22.8-.45,1.59-1.09,2.18Z" style="fill: #0c48c5; stroke-width: 0px;"/>
  <path d="M75.55,823.33c-14.99-18.89-29.96-37.79-44.96-56.67-4.79-6.03-7.49-12.79-7.91-20.55-1.5-27.52-3.24-55.02-4.67-82.54-3.35-64.43-6.57-128.86-9.87-193.3-1.42-27.73-2.92-55.46-4.29-83.19-.24-4.89-.48-9.84,1.53-14.53.41-.95.71-1.85.41-3.03-5.66-21.95-3.12-44.48-4.63-66.73-1.04-7.61-.18-15.25-.49-22.87-.1-2.3.53-4.68-.55-6.9,0-2.13,0-4.27-.01-6.4,2.22-1.78,4.41-.99,5.38,1.05,3.73,7.81,11.18,11.49,17.64,16.11,10.02,7.16,21.01,12.93,30.42,20.98,3.57,3.06,7.31,6.03,7.01,11.48-.52,3.93-1.06,7.85-1.71,11.77-1.37,8.94-.89,17.97-.02,26.81,1.5,15.1,1.3,30.25,1.93,45.35,1.46,34.91,3.11,69.83,4.36,104.75,1.04,28.95,3.1,57.87,3.61,86.85.09,4.92,1.59,9.7,1.18,14.65-.19,28.39,1.87,56.71,2.9,85.06,1.01,27.91,2.48,55.82,3.95,83.72.64,12.12.34,24.31,1.9,36.43.5,3.87,2.52,9.08-3.12,11.71Z" style="fill: #0f4cc7; stroke-width: 0px;"/>
  <path d="M615.52,633.36c.19,31.12-1.06,62.21-2.24,93.3-.06,1.71-.07,3.41-.1,5.12-.51,26.22-.63,52.46-1.65,78.66-1.09,27.89-1.25,55.83-2.78,83.67-.89,16.25,1.23,32.86-3.86,48.82-.09.28.36.72.55,1.09-.85,1.63-1.7,3.27-2.55,4.9-8.6,3.96-17.98,5.1-27.06,7.13-23.11,5.18-45.64,12.34-68.32,19-6.34,1.86-12.74,3.53-19.27,4.54-11.69,1.82-16.53-2.98-18.4-14.4-2.5-15.27-1.77-30.55-2.46-45.83-.75-46.99,1.15-93.95,1.65-140.92.28-26.03-.33-52.11,1.01-78.11,1.54-29.89-.1-59.81,1.39-89.64,1.42-28.41-.24-56.82,1.18-85.16,1.69-33.53.63-67.04,1.12-100.55.04-2.56-.04-5.14,1.18-7.52,3.36-2.16,3.48.99,3.69,2.64.97,7.4,3.05,14.62,3.01,22.19-.12,23.5.86,47.04-.24,70.48-2.01,42.5.14,85-1.21,127.47-2.44,77.09-.32,154.19-1.23,231.28-.11,8.99,1.94,17.84,1.25,26.97.74-3,1.03-6,2.49-8.65.62-1.12,1.33-2.41,2.76-2.36,1.43.05,2.07,1.4,2.52,2.55,1.58,4.02,1.86,8.31,2.48,12.53.89,6.06,1.07,12.25,2.77,18.62,2.07-1.4,2.19-3.4,2.87-5.02,7.49-17.74,16.97-34.41,26.4-51.16,5.36-9.53,11.9-18.19,17.62-27.43,3.22-5.2,6.02-6,11.19-3.94,11.23,4.47,21.07,11.23,30.7,18.34,5.6,4.14,9,10.23,13.39,15.44,1.02,1.21,1.92,3.31,3.93,2.58,1.57-.57,1.2-2.56,1.5-3.98,1.7-8.19,1.83-16.58,2.24-24.85,1.07-21.73,2.22-43.46,3.04-65.21.98-26,2.09-52.01,3.16-78,.7-16.99,4.09-33.9,2.07-51.06-.55-4.67-1.46-10.36,4.19-13.53Z" style="fill: #73b9f6; stroke-width: 0px;"/>
  <path d="M425.67,0c16.64.42,30.9,7.16,43.58,17.28,4.1,3.27,8.39,5.03,13.23,5.53,26.34,2.74,52.73,5,79.03,8.04,6.99.81,14.4.99,20.8,4.83-15.57,9.93-25.2,25.04-34.94,40.05-8.7,13.41-16.61,27.29-24.39,41.24-5.53,7.59-8.08,16.87-13.75,24.38-.62.26-1.25.34-1.91.24-4.11-1.71-3.19-5.01-2.48-8.15,1.96-8.73,4.63-17.29,5.88-26.19.5-3.57.26-7.01-2.17-9.65-5.47-5.96-7.19-13.39-8.94-20.88-1.84-7.88-3.41-15.87-7.16-23.15-2.79-5.41-4-5.58-8.31-1.32-8.78,8.65-19.07,15.6-26.95,25.36-4.14,5.13-6.07,10.06-4.98,16.34,1.09,6.3,2.08,12.61,2.73,18.98.11,1.06.43,2.1.43,3.17,0,3.22.18,7.22-3.28,8.28-3.81,1.18-4.5-3.1-5.74-5.56-2.69-5.31-4.16-11.18-7.16-16.37-2.85-5-5.45-10.15-8.85-14.82-1.44-2.64-3.75-4.6-5.54-6.97-12.63-14.51-28.2-24.16-47-28.48-6.57-1.35-13.22-.16-19.8-.72-4.08-.35-9.86.59-10.91-4.39-1.12-5.37,4.71-6.5,8.53-7.74,11.64-3.77,21.17-11.11,30.83-18.06C398.67,12.49,411.39,4.87,425.67,0Z" style="fill: #b1e9fe; stroke-width: 0px;"/>
  <path d="M289.74,92.22c2.53,3.35,5.46,6.29,8.88,8.73,2.79,2.84,2.16,6.16,1.32,9.5-5.49,5.11-11.93,8.77-18.71,11.86-4.47,2.04-8.99,3.96-12.84,7.09-1.15.94-2.59,1.91-2.38,3.56.28,2.14,2.3,2.27,3.94,2.6,8.37,1.67,16.9,2.23,25.32,3.62,2.48.41,5.25.21,6.47,3.18-.98,3.16-3.6,2.58-5.83,2.34-20.58-2.2-41.18-4.25-61.73-6.7-9-1.07-16.29,1.18-22.76,7.44-11.55,11.18-17.19,25.49-20.63,40.54-2.27,9.94.35,18.67,10.54,24.41,14.73,8.3,30.6,12.87,46.78,16.99,39.73,10.12,80.2,17.29,119.23,30.18,2.64.87,5.98,1.21,7.35,3.56,2.64,4.54,5.56,4.26,9.23,1.78,2.74,6.46.14,12.54-1.58,18.58-.88,3.07-3.68,3.14-6.4,2.22-24.75-8.43-50.56-12.08-76.16-16.5-18.5-3.2-37-6.42-55.46-9.86-17.69-3.3-34.5-9.65-51.29-15.93-4.89-1.83-7.79-5.69-9.87-10.37-4.04-9.06-5.82-18.7-7.74-28.32-.47-4.63.16-9.15,1.47-13.59.8-2.18,1.05-4.47,1.24-6.77.07-.64.21-1.27.38-1.89,1.3-5.18,3.23-10.18,4.56-15.36.45-1.83,1.1-3.57,2.2-5.11,2.96-2.92,4.31-6.81,6.23-10.36,2.55-4.73,5.33-9.38,10.02-12.24,4.1-2.49,5.3-4.69.65-7.72-.89-.58-1.37-1.61-1.88-2.56-2.46-4.12-6.92-5.59-10.69-7.84-15.2-9.09-30.43-18.24-48.42-20.83-9.96-1.44-20.17-1.92-29.94-.08-21.26,3.99-33.52,18.31-39.62,38.27-2.14,6.99.15,13.93,2.58,20.61,7.26,24.21,24,40.12,45.43,51.94,14.68,8.1,30.51,13.05,46.66,17.17,3.38.86,7.38.98,8.94,5.16-1.31,7.31-7.17,5.62-11.96,6.07-12.03-1.59-23.62-4.85-34.86-9.4-9.64-5.32-19.92-9.34-29.7-14.39,1.38-3.53-2.09-3.73-3.65-4.75-19-12.51-31.81-29.26-35.5-52.08-4.34-26.79,6.77-51.85,30.06-64.92,15.19-7.2,30.91-3.98,46.5-2.2,25.77,2.95,46.66,16.69,67.31,30.88,5.59,3.84,10.67,8.46,17.48,10.41,6.99,2,9.12,1.38,12.03-5.29,3.76-8.61,7.4-17.07,14.37-23.92,5.14-5.04,10.86-7.55,17.68-7.44,7.27.12,14.49.78,21.21-2.95,1.16-.64,2.5-.18,3.56.71Z" style="fill: #91d2fc; stroke-width: 0px;"/>
  <path d="M75.55,823.33c2.9-3.83,1.84-8.4,1.16-12.26-2.02-11.41-1.16-22.95-1.82-34.37-.83-14.2-1.37-28.48-1.92-42.72-1.2-31.24-2.88-62.47-4.06-93.72-.43-11.27-.62-22.55-.92-33.82,2.59-1.13,4.6-2.71,6.11-5.31,2.37-4.08,3.7-3.88,5.91.42,1.52,2.95,2.18,6.36,7.16,5.14,1.96-.48,3.73,2.77,3.36,4.73-1.15,6.1,2.09,11.26,3.76,16.41,5.34,16.53,5.7,33.63,7.48,50.57,2.54,24.2,4.57,48.46,6.14,72.73,2.85,43.98,10.09,87.4,15.82,131.01.97,7.4,2.78,14.69,5.13,21.76,2.77,8.33,4.96,8.69,10.95,2.67,2.59,5.23,4.55,10.8,8.76,15.12,2.99,3.07-1.03,5.3-1.17,8.01-7.73-2.62-13.73-7.71-18.65-13.94-14.36-18.2-28.61-36.49-42.71-54.89-6.79-8.86-7.78-19.6-8.74-30.23-.23-2.55-.22-5.09-1.74-7.3Z" style="fill: #4690de; stroke-width: 0px;"/>
  <path d="M289.74,92.22c-5.2.76-9.38,4.87-15.01,4.37-4.19-.37-8.48-.8-12.63-.33-12.04,1.36-17.67,10.61-23.15,19.79-1.3,2.17-1.96,4.71-3.01,7.03-5.98,13.17-12.4,14.48-24.3,5.73-16.13-11.86-32.31-23.87-51.32-30.78-21.66-7.88-43.9-11.52-66.88-6.07-1.21.29-2.55.06-3.82.07,7.73-6.85,17.18-10.97,26.06-15.87,18.82-10.37,38.27-19.62,57.01-30.13,19.4-10.89,39.01-9.57,58.36-1.6,24.18,9.96,42.97,27.15,58.71,47.79Z" style="fill: #a7e2fe; stroke-width: 0px;"/>
  <path d="M678.31,83.32c23.37,4.82,41.17,17.29,52.62,38.44-4.94,6.46-11.33,11.49-16.93,17.3-7.84,8.14-15.87,16.1-23.96,23.98-4.27,4.16-5.56,8.89-4.18,14.54,1.46,6.01,2.66,12.08,4.15,18.07,2.47,9.92,1.22,19.44-2.08,28.86-.73,2.09-1.2,5.2-4.15,4.82-2.82-.36-2.9-3.31-3.08-5.65-.87-11.41-4-22.13-8.96-32.46-4.34-9.03-11.36-15.84-17.79-23.19-.84-.96-1.72-1.9-2.46-2.94-9.14-9.84-21.21-14.75-33.27-19.57-6.13-2.45-12.6-3.99-18.71-6.51-2.11-.87-4.78-1.69-4.91-4.46-.15-3.13,2.55-4.61,4.97-5.02,14.88-2.53,23.76-13.14,32.86-23.64,4.18-4.82,8.79-9.27,13.09-13.99,4.43-4.86,10.29-7.56,17.03-7.7,5.27-.11,10.5-.75,15.76-.87Z" style="fill: #b3ebfe; stroke-width: 0px;"/>
  <path d="M98.69,213.79c5.84-1.01,9.85,3.13,14.57,5.22,5.19,2.3,10.56,4.27,15.18,7.68-2.03,4.04-6.19,3.29-9.54,3.98-5.85,1.21-11.82,1.85-17.36,4.28-1.17.51-2.41.91-3.51,1.57-4.2,2.51-9.57,4.75-9.65,10.18-.08,5.55,5.63,6.97,9.82,8.83,8.35,3.71,16.49,7.9,25.12,10.96-2.01,4.86-6.77,3.58-10.28,4.01-11.01,1.36-20.82,5.22-29.55,11.97-9.78,7.29-16.88,16.57-20.83,28.18-1.15,1.6-.41,4.69-3.65,4.63-1.12-8.41-8.8-11.04-14.24-15.19-10.58-8.08-22.53-14.25-33.02-22.55-2.83-2.25-5.99-4-6.72-8.02-.48-2.68-2.65-3.01-4.93-2.92-1.18-21.46,13.27-39.72,35.28-43.44,21.03-3.55,42.19-6.28,63.3-9.38Z" style="fill: #2469e1; stroke-width: 0px;"/>
  <path d="M678.31,83.32c-4.09,1.95-8.44,2.53-12.9,2.43-8.91-.2-15.57,3.35-21.4,10.32-8,9.58-17.03,18.32-25.7,27.34-4.57,4.76-11.25,4.71-16.89,7.06-2.14.89-5.47,1.15-5.6,3.53-.16,3.01,3.47,3.39,5.7,4.11,12.38,4.01,24.76,7.96,36.12,14.46,5.52,3.16,11.04,6.35,15.12,11.43-.87,1.13-1.92,1.9-3.44,1.77-3.97-1.24-6.66-4.51-10.15-6.5-19.7-11.25-40.77-12.26-62.49-8.31-2.62.48-4.66,2.07-6.13,4.28-4,6.04-8.82,11.46-12.88,17.45-3.1,2.33-6.61,4.16-9.09,7.28-2.39,2.17-4.51,4.63-7.07,6.61-3.1,1.79-5.27,4.69-8.1,6.81-2.51,1.6-4.6,3.88-7.55,4.78-1.69.52-3.59.8-4.78-.67-1.41-1.74.13-3.27,1.22-4.45,6.08-6.6,12.62-12.75,18.91-19.15,4.32-4.4,9.01-8.49,11.99-14.33-2.2-1.29-3.75.23-5.28.98-7.87,3.85-15.69,7.79-23.53,11.7-1.53.76-3.02,1.62-4.63,2.19-1.81.65-3.94,1.59-5.26-.38-1.26-1.87.24-3.63,1.32-5.2.85-1.23,1.93-2.28,3-3.33,3.96-3.89,7.7-8,12.19-11.34,5.68-4.22,11.02-8.64,13.67-15.67,1.65-4.38,6.07-6.5,9.67-9.11,5.38-3.91,9.56-8.38,10.33-15.43.35-3.19,2.23-5.95,3.85-8.74,6.8-11.72,11.95-24.06,14.08-37.56.58-3.66.76-7.2-.32-10.76-.36-2.01-.47-3.98.78-5.77,7.07-1.76,6.25,3.79,7.36,7.16.28-1.59-1.53-4.13.88-5.98,2.43,9.44,1.35,19.05.66,28.51-.62,8.6-1.82,17.22-4.56,26.9,10.88-6.88,21.04-12.53,31.67-17.24,10.72-4.76,21.9-7.9,33.68-8.61,5.99-.95,11.98-1.02,17.97.03,2.69-.42,5.06.85,7.57,1.4Z" style="fill: #8fd1fd; stroke-width: 0px;"/>
  <path d="M298.77,111.36c-.05-3.47-.1-6.94-.15-10.4,2.04-8.62,3.66-17.37,8.19-25.18,3.92.18,3.46,2.96,3.14,5.49-.38,2.97-1.52,5.78-2.22,8.68-1.66,6.88-2.63,13.79-.45,21.2.53-15.88,5.16-30.08,14.94-42.23,11.55-14.35,27.33-18.82,45.02-18.38,1.75.04,2.82.78,3.13,2.54-2.5,9.45-6.05,18.58-7.82,28.26-3.29,18-3.07,36.02-.92,54.09.33,2.76.76,5.49.57,8.28-.1,4.39-2.24,7.06-6.73,6.42-15.95-2.28-32.07-3.34-47.91-6.46-8.88-3.1-8.92-3.11-9.44-12.49-.25-4.43-1.42-8.77-1.21-13.24.11-2.34.23-4.66,1.85-6.56Z" style="fill: #4d98e6; stroke-width: 0px;"/>
  <path d="M650.19,165.38c.53-1.07,1.49-1.35,2.58-1.39,5.03,5.75,10.4,11.23,15,17.3,7.03,9.3,10.85,20.16,13.15,31.49,1.04,5.11,1.44,10.34,2.86,15.6,3.88-7.89,7.28-15.97,5.8-24.91-1.44-8.78-3.81-17.4-5.6-26.12-1.07-5.2-.71-10.02,3.51-14.16,12.65-12.42,25.12-25.01,37.62-37.58,1.7-1.71,3.64-2.93,5.81-3.86,4.09,7.7,8.52,15.26,9.08,24.28-2.88,7.09-7.86,12.55-13.28,17.78-7.99,7.72-15.52,15.92-23.68,23.46-6.28,5.8-8.79,12.43-8.91,20.97-.21,15.17-3.85,29.57-13.05,42.12-10.72,14.63-25.96,22.37-42.57,28.01-24.51,8.32-49.92,9.39-75.33,7.6-20.78-1.46-41.69-3.04-61.92-8.75-3.5-.99-9.36-1.07-8.81-5.56.6-4.89,6.36-2.25,9.84-2.97.62-.13,1.28-.06,1.92-.1,17.21,1.38,34.34,3.61,51.59,4.55,32.91,1.79,65.34.94,95.32-15.45,15.56-8.5,24-22.54,22.33-37.78-1.73-19-7.2-36.39-21.46-50.04-1.21-1.16-2.36-2.55-1.81-4.51Z" style="fill: #8ecffc; stroke-width: 0px;"/>
  <path d="M469.41,920.63c-.47,15.98.42,31.88,2.49,47.74.98,7.46,6.86,11.63,15.57,9.67,9.31-2.1,18.67-4.25,27.73-7.22,24.67-8.11,49.92-14.02,75.15-19.95,4-.94,8.09-3.28,12.55-1.93-4.08,8.15-10.75,12.91-19.47,15.16-35.51,9.16-70.99,18.42-106.8,26.39-4.96,1.1-10.06,1.89-14.93-.63-.06-1.25.35-2.82-.25-3.71-3-4.49-1.14-7.51,2.32-10.65,2.39-2.17,2.81-5.48,3.04-8.65-1.46-14.22-.72-28.47-.3-42.7.05-1.58.53-3.51,2.89-3.51Z" style="fill: #4187d5; stroke-width: 0px;"/>
  <path d="M504.05,270.42c-3.54.39-7.18-.64-11.63.95,5.26,4.71,11.61,5.42,17.16,6.39,30.63,5.36,61.63,9.14,92.63,6.38,25.69-2.29,50.91-8.83,71.18-26.36,10.87-9.4,14.95-22.96,17.86-36.69,1.24-5.87,1.34-11.8,1.34-17.77,0-5.3,1.84-9.9,5.73-13.74,10.94-10.79,21.52-21.97,32.77-32.43,3.63-3.37,3.83-9.16,8.91-11.12.47,2.94.93,5.87,1.4,8.81.35.56.4,1.15.15,1.77-2.05,10.77-8.08,18.96-16.06,26.22-7.57,6.89-14.57,14.42-21.82,21.67-1.97,1.97-4.31,3.84-5.11,6.5-3.36,11.19-6.9,22.33-8.93,33.87,0,.98-.22,1.89-.99,2.57-2.65-.5-4.55.82-5.96,2.78-5.75,7.97-13.54,13.75-21,19.89-3.77,5-9.42,7.11-14.89,9.32-8.3,3.34-16.93,5.6-25.82,6.76-2.42.03-4.83.1-7.14.96-.72.19-1.45.29-2.19.35-8.33-.59-16.53,1.74-24.81,1.35-29.52-1.39-58.92-4.04-88.14-8.59-1.68-.26-3.35-.64-4.9-1.37-5.91-3.22-12.63-3.66-18.97-5.42-4.53-1.25-9.03-2.54-13.37-4.32-1.83-.75-3.54-2.03-3.66-4.1-.16-2.72,2.04-3.42,4.25-3.86,13.14,1.53,25.99,4.84,39.11,6.5,1.41.18,3.02.68,2.9,2.73Z" style="fill: #77befa; stroke-width: 0px;"/>
  <path d="M369.52,52.57c-5.84-3.53-11.85-.6-17.28.54-23.8,4.99-37.88,22.56-41.9,47.41-.71,4.39-1.19,8.82-1.9,13.21-.11.71-.84,1.32-1.77,2.69-3.05-9.59-3.15-18.39-.57-27.29.83-2.86,1.52-5.77,2.45-8.59.71-2.16.43-3.76-1.75-4.76,5.29-12.73,15.21-21.57,26-29.16,18.8-13.22,37.96-25.94,57.35-38.29,10.66-6.79,23.18-7.64,35.51-8.33-.59,1.54-1.89,2.31-3.31,2.81-17.36,6.13-31.53,17.63-46.42,27.85-7.48,5.14-15.53,8.79-23.94,11.91-1.89.7-4.48,1.47-4.12,4.21.35,2.6,3.09,1.85,4.75,2.31,6.06,1.67,12.32.33,18.47.78,2.47.18,5.17-.84,7.34,1.23-1.45,1.61-2.68,3.46-4.85,4.25-1.71-.41-2.81-1.7-4.07-2.78Z" style="fill: #8dcefb; stroke-width: 0px;"/>
  <path d="M688.61,244.75c-.35-.73-1.17-1.63-.98-2.16,3.56-9.78,5.75-19.94,8.31-30,.78-3.08,2.88-5.6,5.22-7.9,9.11-8.96,17.96-18.2,27.2-27.02,5.26-5.01,9.21-10.54,10.34-17.81.25-1.62.97-2.77,2.4-3.51,1.46,4.71.9,9.47.34,14.23-.45,10.68-5.13,19.76-11.36,27.97-9.4,12.4-20.31,23.5-31.06,34.73-2.37,4.82-5.02,9.39-10.42,11.47Z" style="fill: #6cb5f8; stroke-width: 0px;"/>
  <path d="M688.61,244.75c3.47-3.82,6.94-7.65,10.42-11.47-.26,2.91,2.07,3.81,3.86,5.33,8.48,7.17,17.35,14.14,17.98,26.63-11.05-5.37-21.9-11.08-32.21-17.78-.01-.9-.03-1.8-.04-2.7Z" style="fill: #8ecffc; stroke-width: 0px;"/>
  <path d="M591.33,52.33v8.39c-3.21-3.38-2.11-9.28-7.74-9.5-.96-.14-1.7-.66-2.34-1.36-3.41-4.64-6.8-3.06-10.19.03-7.6,6.93-13.81,15.04-19.64,23.44-9.12,13.12-17.12,26.93-24.76,40.96-1.11,2.03-1.47,5.13-4.96,4.85-.4-.92-.43-1.8.27-2.6,14.61-26.94,28.97-54.05,51-76.02,2.63-2.62,5.36-4.91,9.35-4.83,7.38,3.18,8.22,9.9,9.01,16.64Z" style="fill: #60aaf2; stroke-width: 0px;"/>
  <path d="M.12,273.01c2.59,9.85.91,19.84,1.05,29.77-1.45-9.89-1.2-19.83-1.05-29.77Z" style="fill: #2469e1; stroke-width: 0px;"/>
  <path d="M670.74,81.92c-5.99-.01-11.98-.02-17.97-.03,5.99-1.98,11.98-2.08,17.97.03Z" style="fill: #b3ebfe; stroke-width: 0px;"/>
  <path d="M741.45,170.58c-.11-4.74-.22-9.48-.34-14.23.1-.5.19-1.01.29-1.51,1.73,5.24,1.68,10.49.04,15.74Z" style="fill: #8ecffc; stroke-width: 0px;"/>
  <path d="M615.52,633.36c-2.48,4.21-2.77,8.87-2.46,13.55,1.67,25.32-2.81,50.39-2.97,75.67-.06,8.63-.57,17.41-.9,26.13-.88,23.61-1.47,47.24-2.68,70.83-.81,15.89-2.47,31.73-3.75,47.59-.07.85.07,1.87-.35,2.5-1.14,1.73.13,4.95-2.41,5.41-2.16.39-2.32-2.71-3.78-3.88-4.43-3.53-6.25-9.21-10.38-12.9-9.03-8.04-18.35-15.78-29.89-20.02-3.51-1.29-6.15-5.44-10.21-4.22-4.11,1.23-4.1,6.17-6.33,9.15-18.56,24.84-32.62,52.1-44.14,80.77-.31.76-.87,1.42-1.99,3.2-5.57-12.93-3.19-26.54-7.71-39.23-3.71,5.12-2.28,11.44-5.31,16.3-1.31-1.2-1.96-2.61-1.83-4.12.73-8.35-1.42-16.51-1.41-24.84.11-72.65-.86-145.32.43-217.95.77-43.55-.58-87.12,1.22-130.62,1.19-28.83.41-57.61.88-86.4.13-8.03-2.18-15.84-3.62-23.72-2.33-2.13-1.91-4.97-2.02-7.68.58-6.03-.33-11.91-1.87-17.7-2.19-8.25-4.17-16.54-5.17-25.04-.74-6.26-2.99-11.96-6.74-17.08-2.01-2.75-3.97-5.57-5.59-8.58-3.62-6.72-1.64-10.78,5.87-11.5,18.46-1.79,36.97-2.83,55.47-4.17,17.64-1.27,35.35-1.49,52.94-3.41,7.31-.8,14.48-.41,21.29,2.75,8.94,5.86,16.37,13.04,20.37,23.23-1.92.66-3.4-.39-4.62-1.51-5.08-4.67-11.16-4.89-17.46-4.05-22.85,3.02-45.58,6.97-68.53,9.28-9.98,1.01-19.98,1.85-29.9,3.33-8.82,1.32-10.88,3.72-11.07,12.55-.13,6,.26,11.91,1.45,17.83,1.43,7.11,2.37,14.29,2.49,21.6.17,10.68,5.51,20.03,8.27,30.36,2.37-10.5,9.87-13.53,19.24-15.32,31.67-6.03,63.5-11.24,94.86-18.82,8.58-2.07,10.37-4.11,11.08-13.03.38-4.84-.03-9.87,3.18-14.07,2.07,4.28,2.42,8.92,2.54,13.53.78,30.1-1.1,60.16-1.66,90.24-.49,26.42-1.86,52.83-2.34,79.27-.45,24.94-1.64,49.86-2.5,74.79Z" style="fill: #97d5fd; stroke-width: 0px;"/>
  <path d="M619.48,375.53c-1.33,7.09-.64,14.43-2.63,21.44-1.19,4.17-3.92,5.95-8.16,6.93-34.54,7.99-69.48,13.87-104.27,20.55-4.5.87-7.85,3.06-9.41,7.61-1.08,3.15-2.35,6.23-4.21,9.36-3.18-12.93-10.19-24.59-9.96-38.41.21-12.53-4.65-24.61-3.83-37.34.57-8.85,2.23-11.8,10.78-12.96,11.98-1.62,24-2.9,36.04-4,14.37-1.32,28.6-3.64,42.86-5.74,7.76-1.15,15.56-2.02,23.29-3.32,8.45-1.43,14.84,2.11,20.54,7.74,4.72,8.83,7.51,18.27,8.98,28.14Z" style="fill: #d8f9fe; stroke-width: 0px;"/>
  <path d="M590.13,324.16c-9.72-1.19-19.36-.76-29.16-.08-26.26,1.84-52.57,2.9-78.81,5.1-6.75.56-13.51,1.59-20.32,1.54-2.78-.02-5.92-.32-7.37,2.6-1.3,2.62.57,4.95,2.11,6.97,15.57,20.38,15.93,44.98,19.1,68.79-1.26.03-2.07-.77-2.22-1.82-1.98-13.68-8.15-25.58-15.62-36.94-2.06-16.17-11.74-27.62-23.53-37.66-5.39-4.59-10.34-9.58-15.21-14.67-3.84-4.01-3.53-7.85-.65-12.65,7.43-12.37,19.01-13.56,31.67-13.44,16.15.17,32.41,1.69,48.42-1.29,17.84-3.32,34.83-1.17,51.26,6.24,12.47,6.23,24.43,13.24,34.96,22.49,1.79,1.61,3.58,3.21,5.37,4.82Z" style="fill: #72bcfb; stroke-width: 0px;"/>
  <path d="M584.77,319.34c-11.46-6.96-22.92-13.92-34.37-20.88-4.11-2.53-9.2-3.57-12.15-7.9.04-.67.34-1.19.9-1.55,4.29-1.26,7.29,1.56,10.51,3.45,15.57,9.15,32.02,13.47,50.09,9.57,4.96-1.07,9.11-3.41,12.5-7.15,2.11-2.32,2.72-4.76.54-7.4-.32-.65-.24-1.24.24-1.77.32-.12.65-.14.98-.05,2.13-1.12,4.66.34,6.74-1.07,14.6-2.14,28.22-7.04,40.95-14.46,2.85,4.18,6.08,8.15,7.87,12.95,7.03,18.9-.61,32.23-20.52,34.67-20.47,2.51-41.04,2.12-61.58.37-1.19-.1-2.06.25-2.7,1.23Z" style="fill: #0a42bd; stroke-width: 0px;"/>
  <path d="M459.09,370.49c8.82,10.56,13.98,22.67,15.52,36.35.09.77.71,1.49,1.08,2.23.09,2.5.18,5,.27,7.5-.05,7.69-.07,15.38-.14,23.07-.45,52.75-.2,105.53-1.65,158.26-.77,28.19.42,56.4-1.17,84.53-1.53,27.12.3,54.26-1.21,81.32-1.62,29.04.26,58.11-1.35,87.08-1.3,23.28-.24,46.54-1.02,69.79-2.05,1.88-1.22,4.35-1.23,6.57-.09,10.76-.06,21.52-.04,32.28,0,2.54.09,5.08-1.32,7.36-54.05,15.98-109.27,27.29-163.99,40.58-14.38,3.49-28.77,8.12-43.76,7.99-15.51-.13-20.47-7-20.79-20.37-.58-24.04-1.78-48.08-2.64-72.12-.4-11.27-.37-22.56-.94-33.83-1.51-30.01-1.78-60.06-2.92-90.06-.65-17.06.17-34.14-1.05-51.13-1.24-17.26-.45-34.55-1.32-51.77-.92-18.06-1.85-36.1-2.57-54.17-.6-15.06-2.26-30.09-2.42-45.2-.06-5.62-4.86-8.22-8.02-11.85-1.35-1.54-3.95-2.75-3.04-5.17.98-2.59,3.73-1.4,5.71-1.44,6.53-.13,13.07-.05,20.57-.05-2.11-3.05-4.64-3.02-6.65-3.76-7.97-2.93-10.78-6.81-11.1-15.19-.81-21.48-1.26-42.99-2.71-64.42-1.09-16.06-2.06-32.18-4.96-48.08-1.35-7.4-4.72-13.17-10.99-17.95-11.49-8.75-23.03-17.66-33.16-27.89-10.89-11-19.4-24.18-28.37-36.84-4.75-6.71-6.17-6.84-12.07-.79-3.44,3.52-4.97,7.93-6.22,12.44-.63,2.27-.86,4.61-2.69,6.33-2.23-1.9-1.7-4.52-1.84-6.97,4.11-27.94,19.72-46.23,47.39-52.27,2.2-.26,4.45-.09,6.59-.84.61-.18,1.24-.3,1.87-.4,2.24-.22,4.48-.36,6.65-1.03,1.71-.25,3.37-.26,4.75,1.02-.71,4.15-5.06,4-7.42,6.22-1.83,1.72-4.99,2.73-5.04,5.41-.06,3.14,3.43,3.55,5.63,4.29,22.46,7.59,42.84,20.09,65.4,27.45,7.58,2.48,15.17,3.78,23.19,3.87,24.32.26,48.66.02,72.75-3.01,20.14-2.53,39.48-8.95,58.1-17.16,6.25-2.75,12.45-5.56,19.64-6.8-1.01-2.7-3.85-3.51-4.93-5.72-2.03-4.59-4.11-9.18-5.26-14.08-.92-3.93-1.5-7.93,2.48-10.8,1.37-.18,1.86.79,2.14,1.81,2.55,9.34,8.26,16.7,15.07,23.17,9.7,9.23,17.83,19.92,27.64,29.01,1.6,1.49,2.47,3.42,3.57,5.22Z" style="fill: #2c72e6; stroke-width: 0px;"/>
  <path d="M139.8,906.55c-1.16,2.73-.31,7.22-4.62,7.35-4.21.12-6.2-3.5-7.3-7.05-3.33-10.74-5.8-21.7-7.31-32.86-1.87-13.85-3.85-27.68-5.63-41.54-2.05-15.96-4.16-31.91-5.85-47.91-1.92-18.12-3.49-36.27-5.04-54.42-1.06-12.47-1.53-24.99-2.78-37.44-1.94-19.38-2.76-38.9-6.62-58.05-.8-3.98-4.63-7.22-2.81-11.97.31-.8-.5-2.51-2.2-2.59-3.31-.15-2.9-2.6-1.63-3.92,3.23-3.34.22-5.79-.35-8.95-2.77.91-.82,3.69-2.9,4.9-2.34-4.26-7.52-6.75-6.83-13.48-3.87,2.93-2.08,11.96-9.97,7.79-1.63-30.6-2.91-61.21-4.06-91.82-.73-19.34-1.64-38.68-2.53-58.01-1.43-31.25-2.9-62.49-4.01-93.75-.35-9.99-.75-19.99-.86-29.99-.02-2.07-.55-4.31,1.13-6.1,1.08.85,1.7,2.06,1.68,3.33-.18,11.04,7.35,16.3,15.77,20.48,7.65,3.8,15.42,7.36,23.19,10.93,6.42,2.95,9.64,7.23,10.17,14.71,1.57,22.15,1.69,44.33,2.74,66.48,1.35,28.56,1.38,57.17,3.38,85.71.98,14.04.87,28.16,1.24,42.23.38,14.51,1.89,28.98,1.55,43.51.1,9.29-.9,18.6.67,27.85.54,2.67.64,5.37.58,8.08.09,9.06-.77,18.15.52,27.19.23.74.38,1.49.46,2.25-.44,19.85.98,39.67,1.78,59.46,1.05,25.76,1.78,51.55,3.33,77.31.81,13.39,1.24,26.85,1.75,40.28.44,11.71.87,23.45,2.36,35.1.29,2.24.29,4.65,2.44,6.49,3.24-2.68,2.57-7.5,6.04-9.66,2,5.86,1.02,12.13,2.5,18.06Z" style="fill: #539be6; stroke-width: 0px;"/>
  <path d="M116.73,650.04c0-2.56-.01-5.11-.02-7.67-1.36-6.89-.2-13.86-.63-20.78-.15-2.49.66-5.07-.64-7.45-.79-28.71-2.06-57.41-2.84-86.13-.64-23.59-1.7-47.18-2.5-70.77-.82-24.23-1.99-48.45-2.48-72.7-.08-4.21-1.19-8.37-1.33-12.65-.13-4-3.35-6.19-6.73-7.77-8.1-3.78-16.14-7.71-24.39-11.14-6.14-2.56-10.6-6.99-15.09-11.56-4.29-4.36-1.29-9.83-2.43-14.65.45-3.82.9-7.64,1.36-11.46,1.92-1.16.56-3.99,2.59-5.1,1.39-.59,2.59.02,3.51.87,11.14,10.38,25.16,15.87,38.4,22.67,10.14,5.21,10.99,6.75,8.78,18.09-.86,4.4-1.49,8.83-2.37,13.22-1.83,9.14,1.19,17.17,5.41,24.85.35-2.67.2-5.74,4.5-4.84.47,4.51-.58,9.1.62,13.58.09,5.46.17,10.93.26,16.39,1.12,8.05.15,16.14.51,24.2.1,2.3-.6,4.69.62,6.89.04,2.06.08,4.11.13,6.17,1.17,10.18.16,20.4.55,30.59.09,2.28-.74,4.69.73,6.83l-.04-.06c.73,1.17.58,2.48.54,3.74-.6,23.68.41,47.36.86,71.02.72,37.54,2.01,75.08,3.02,112.62.86,32.02,2.1,64.04,1.37,96.08-.08,3.5.94,9.52-2.41,9.61-4.12.1-3.66-5.98-3.8-9.45-.77-19.38-1.84-38.75-3.06-58.08-.78-12.31-.29-24.67-1.73-36.94h0c-1.38-6.89-.2-13.85-.63-20.77-.15-2.49.67-5.06-.64-7.45Z" style="fill: #79bff8; stroke-width: 0px;"/>
  <path d="M118,678.26c1.81,1.45,1.23,3.5,1.28,5.36.74,26.55,2.64,53.02,4.99,79.47.56,6.3.25,12.66,2.09,19.02,1.21-2.03.58-4.1.59-6.04.06-15.38.21-30.77,0-46.14-.33-23.02-.67-46.07-1.63-69.04-.76-18.34.43-36.72-1.1-54.95-1.4-16.64-.87-33.23-1.02-49.85-.2-22.14-.01-44.29.01-66.43,1.11,1.24.93,2.77.97,4.25.56,21.33,1.01,42.67,1.69,64,1.22,38.37,2.32,76.75,3.95,115.11,1.5,35.37,2.91,70.74,3.88,106.13,1,36.46,2.39,72.9,3.6,109.35.16,3.95-3.05,7.03-2.78,11.05.09,1.35-.87,2.4-2.22,2.8-1.92.56-2.61-.88-3.36-2.2-2.85-5.01-2.87-10.74-3.05-16.09-.72-22.31-2.29-44.57-3.02-66.88-.74-22.51-1.68-45.02-2.52-67.53-.89-23.79-2.54-47.56-2.35-71.38Z" style="fill: #6eb6f7; stroke-width: 0px;"/>
  <path d="M123.25,489.71c-1.91-1.35-1.36-3.39-1.37-5.21,0-10.73.05-21.46.08-32.2,2.1,12.41.84,24.94,1.28,37.41Z" style="fill: #6eb6f7; stroke-width: 0px;"/>
  <path d="M121.84,446.13c-2.65-5.8-.83-11.91-1.21-17.87-.28-4.38.03-8.8.08-13.21,2.14,10.3.79,20.72,1.13,31.08Z" style="fill: #6eb6f7; stroke-width: 0px;"/>
  <path d="M120.45,398.65c-2.52-4.55-.45-9.51-1.27-14.21-1.99-3.69-3.38-7.31,1.29-10.16.08,2.6.15,5.2.23,7.8-.08,5.52-.17,11.05-.25,16.57Z" style="fill: #6eb6f7; stroke-width: 0px;"/>
  <path d="M439.92,101.15c5.39,6.67,5.74,15.9,11.45,23,4.99-6.74,1.06-13.43.77-19.81-.26-5.66-2.23-11.2-2.02-17.01.1-2.7.68-5.18,2.49-7.07,7.2-7.49,13.29-16.14,22.09-21.96,3.82-2.52,7.16-5.56,9.82-9.06,3.97-5.21,6.01-2.71,8.24,1.2,4.71,8.27,6.51,17.48,8.69,26.57,1.67,6.99,3.09,13.9,8.55,19.46,5.48,5.58,2.09,12.51.97,18.78-1.18,6.67-2.98,13.25-4.83,19.79-.74,2.59-1.01,4.56,1.76,5.87.55.68,1.01,1.53.66,2.32-3.54,8.05-6.3,16.53-12.47,23.16-3.33,1.08-3.5-1.4-3.8-3.5-.34-2.38.53-4.64,1.16-6.9,3.42-12.2,5.63-24.54,4.95-37.29-.26-4.9.02-9.81.88-14.68.6-3.37.51-6.82.25-10.23-.27-3.66-.68-8.12-3.93-9.69-3.66-1.77-5.76,2.62-8.15,4.82-14.95,13.75-22.91,31.02-25.48,51-1.39,10.8-3.32,21.53-5.11,32.27-.28,1.69-.55,3.39-1.12,5-.89,2.52-1.06,6.49-4.41,6.17-3.55-.33-2.75-4.25-2.87-6.88-.57-12.14.34-24.3-.97-36.47-1.09-10.1-3.65-19.69-6.97-29.18-.77-2.21-1.87-4.33-1.9-6.75.06-1.15.38-2.18,1.29-2.96Z" style="fill: #9ad9fd; stroke-width: 0px;"/>
  <path d="M373.36,55c1.34-1.76,1.82-4.64,5.08-3.9,18.68,3.18,33.19,13.61,46.19,26.63.68.68.85,1.89,1.25,2.86-.18.24-.35.47-.51.72-.1,4.61,2.72,8.36,3.68,12.7,2.84,12.85-2.35,20.2-15.4,21.58-8.49.9-16.48-1.52-24.58-3.28-8.73-1.89-11.32-.61-14.36,7.91-2.82,7.88-2.96,16.32-4.8,24.41-.46,2.01-.05,4.36-2.33,5.63-.81-.08-1.38-.49-1.73-1.21-2.07-9.29-1.37-18.74-.82-28.03,1.15-19.13,1.82-38.33,5.01-57.29.53-3.12.56-6.44,3.32-8.72Z" style="fill: #87cffc; stroke-width: 0px;"/>
  <path d="M496.28,165.22c3.81-8.13,8.66-15.76,11.61-24.3.33-.09.67-.15,1.02-.18.56-.37,1.14-.37,1.72-.05,1.8,2.59.22,4.87-.66,7.22-.95,2.53-2.66,4.85-2.14,8.94,13.06-11.61,27.08-21.42,29.93-39.72,1.57-10.08,8.92-15.74,15.83-21.68,5.69-4.89,11.04-10.08,16.07-15.59,6.34-6.94,10.41-15.06,11-24.67.11-1.88-.08-3.9,1.59-5.34.44.45.89.9,1.33,1.35,0,2.1,0,4.2,0,6.3.88,8.78-1.55,16.69-6.05,24.17-5.09,8.47-11.43,15.94-18.01,23.21-2.99,3.3-5.15,6.67-5.29,11.25-.28,8.78-4.16,15.52-10.58,21.68-13.08,12.55-26.16,25.09-39.92,36.9-2.94,2.52-5.42,5.42-8.1,8.17-1.74,1.78-3.66,4.51-6.4,3.15-3.03-1.5-1.28-4.46-.72-6.87,2.06-4.94,4.38-9.74,7.77-13.95Z" style="fill: #59a3ed; stroke-width: 0px;"/>
  <path d="M510.45,140.92c-.51-.06-1.02-.12-1.54-.18,3.84-8.35,7.35-16.87,13.05-24.21,0,.86.01,1.72.02,2.58-1.49,8.52-6,15.43-11.53,21.81Z" style="fill: #6ab5fa; stroke-width: 0px;"/>
  <path d="M439.92,101.15c0,.86,0,1.72-.01,2.58-5.81-3.76-7.97-9.69-9.51-15.99.2-.25.4-.49.6-.74,4.46,3.78,6.25,9.25,8.93,14.15Z" style="fill: #87cffc; stroke-width: 0px;"/>
  <path d="M425.88,80.58c2.3,1.66,4.67,3.28,5.11,6.42,0,0-.14.12-.14.12-3.89-.4-6.33-1.96-5.1-6.43l.14-.11Z" style="fill: #87cffc; stroke-width: 0px;"/>
  <path d="M366.66,149.87c.49,0,.98,0,1.46-.01,6.6-2.01,13.03.31,19.45,1.08,9.91,1.18,19.87,2.18,29.72,3.81,5.28.88,6.97,4.53,3.17,7.9-13.7,12.15-17.81,29.06-23.53,45.22-.99,2.8-1.98,5.61-2.6,8.52-.23,2.54-.26,5.12-1.52,7.44-1.09,1.73-1.47,3.68-1.73,5.67-.1.55-.26,1.09-.43,1.62-.69,1.86-.63,3.85-1,5.78-.1.59-.25,1.16-.42,1.73-.86,4.28-1.53,8.58-2.16,12.89-1.19,3.74-.12,8.21-3.6,11.22-.29.31-.65.58-.84.94-1.04,1.97.52,5.53-2.42,6.03-2.89.5-3.08-3.1-4.17-4.92-2.25-3.76-5.91-4.61-9.55-5.77-43.75-13.93-89.02-21.78-133.29-33.61-13.78-3.68-27.34-8.62-38.7-17.6-7.48-5.91-7.58-15.26-5.47-23.03,4.17-15.37,9.7-30.45,22.22-41.67,6.86-6.15,14.38-7.9,23.51-6.86,12.97,1.47,25.9,3.45,39,3.95,7.25.27,14.46,1.79,21.68,2.85,2.11.31,4.19,1.06,5.98-.79,2.12-1.12,4.25-.95,6.39-.09,15.69,2.12,31.39,4.22,47.08,6.37,3.99.55,6.18-.66,5.55-5.07,3.45.79,3.15,5.22,6.2,6.39Z" style="fill: #a7e2fe; stroke-width: 0px;"/>
  <path d="M461.73,262.73c-1.26.15-2.87.22-2.97,1.74-.13,1.99,1.62,2.84,3.23,3.3,7.85,2.23,15.74,4.35,23.6,6.53,2.75.76,5.83.56,8.13,2.71-2.47,2.18-5.24,1.12-7.9.63-14.87-2.72-29.5-6.47-44.06-10.48-5.44-1.5-8.14-.36-10.91,5-3.85,7.44-7.1,15.43-13.09,21.65-2.34-.73-4.37-.8-6.22,1.4-2.05,2.43-4.41,4.62-6.76,6.78-4.8,4.41-9.93,7.46-16.54,3.25-.66,8.24,1.5,10.27,8.76,8.67,1.64-.36,3.26-1.25,4.75.34-.47,4.3-3.85,5.3-7.18,6.36-2.55.33-5.07.41-7.39-.96-2.34-1.91-4.38-4.19-5.56-6.93-3.15-7.32-9.1-10.02-16.48-11.43-33.94-6.46-68.29-10.37-102.32-16.21-19.12-3.28-38.18-6.9-57.31-10.11-12.09-2.03-22.05-6.29-27.71-17.81-3.62-5.45-2.02-12.33-4.91-17.98-1.5-3.18,3.79-5.14,1.53-8.48-13.39-4.84-27.56-7.19-40.69-12.92-24.37-10.64-45.7-24.71-57.4-49.91-1.53-3.29-3.13-6.54-3.22-10.27-.94-1.54-.7-3.18-.41-4.83,3.4-1.01,3.82,1.92,4.47,3.8,12.4,35.83,40.91,51.76,74.97,60.85,3.08.82,6.27,1.26,9.4,1.93,4.86,1.03,9.39,1.39,11.94-4.24.51-1.13,1.7-2.04,3-.53,2.38,9.05,3.46,18.38,7.5,27.05,3.56,7.65,8.28,12.78,16.82,15.12,31.63,8.7,64.03,13.15,96.32,18.13,22.38,3.45,44.77,6.82,67.11,10.57,3.8.64,7.57,1.47,11.11,3.01,3.91,1.71,5.94.9,6.44-3.65.73-6.55,2.7-12.96,2.38-19.65-.05-1.08.04-2.14,1.24-2.66,3.11,1.71,2.3,4.77,2.28,7.36-.06,7.05.22,14.06,1.45,21.01.56,3.15.73,6.66,4.4,7.87,3.31,1.09,5.62-1.19,7.87-3.18,10.56-9.35,17.99-20.97,24.38-33.36.5-.97.63-2.01.84-3.06,1.29-6.33,1.37-6.45,6.98-3.42,3.85,2.08,7.9,1.24,11.9,1.42,4,.22,7.9,1.11,11.75,2.11,1.86.48,4.38.54,4.48,3.47Z" style="fill: #6ab5fa; stroke-width: 0px;"/>
  <path d="M386.04,262.74c-1.93,7.6-2.16,15.39-2.53,23.15-.31,6.51-1.73,7.33-7.73,4.63-8.65-3.89-18.15-4.21-27.29-5.86-31.89-5.76-64.1-9.5-96.04-15.1-18.22-3.2-36.18-7.17-54.08-11.69-6.63-1.67-11-5.2-13.88-11.05-5.13-10.38-8.87-21.13-8.82-32.9-2.45-2.99-1.78-6.34-1.13-9.7.5-1.05,1.05-2.04,2.49-1.75,2.17,9.28,3.84,18.67,7.58,27.56,2.23,5.29,5.63,8.5,10.98,10.62,31.79,12.64,65.2,18.19,98.73,23.62,24.65,3.99,49.08,9.28,73.6,14.05,2.94.57,5.56,2,8.06,3.69,2.84,1.92,4.78,1.21,5.43-2.28,1.06-5.62,2.45-11.2,2.08-16.99.9-3.85.63-7.96,2.51-11.6.25.24.5.48.75.72,1.38,3,1.09,6.09.5,9.2-.24.67-.64,1.23-1.21,1.67Z" style="fill: #77befa; stroke-width: 0px;"/>
  <path d="M173.2,238.16c4.57,2.34,2.93,7.04,3.75,10.67.54,2.44.88,4.98,1.53,7.43-.5,4.06-3.87,3.91-6.65,4.37-6.85,1.14-13.76,1.94-20.55,3.44-6.9,1.36-13.84,2.46-20.78,3.57-2.49.4-5.08,1.11-7.25-.99-8.69.69-14.81-5.77-22.42-8.15-3.97-1.24-7.95-3.01-11.31-5.75-4.58-3.74-4.83-6.99-.88-11.28,7.4-8.02,17.31-10.31,27.45-12.03,4.17-.71,8.43-.94,12.35-2.74,11.22,3.85,22.48,7.51,34.28,9.22,3.38,1.3,7.36-.22,10.49,2.24Z" style="fill: #0438b0; stroke-width: 0px;"/>
  <path d="M201.25,126.91c1.65,3.09,6.02,3.39,7.28,7.7-9.87,4.09-14.8,12.92-19.12,22.27-.68,1.47-1.15,3.35-3.41,3.25-2.7.93-4.46-1.03-6.3-2.28-13.95-9.49-22.19-22.77-25.67-39.16-.39-1.64-.54-3.31-.57-5,.12-2.71-.21-5.45.47-8.12.9-2.63,2.87-3.04,5.12-2.15,15.08,6.01,29.37,13.45,42.2,23.49Z" style="fill: #fefefe; stroke-width: 0px;"/>
  <path d="M155.39,118.92c4.26,18.16,14.6,31.79,30.61,41.21-.44,1.72-.87,3.43-1.31,5.15-3.95,4.39-3.98,10.08-5.11,15.4,0,.42,0,.85-.01,1.27-1.57,1.92.21,4.49-1.26,6.43-.05,4.73-1.99,9.29-1.3,14.09-.45.46-.9.91-1.35,1.37-3.59-.7-3.48-3.89-4.07-6.42-.72-3.08-1.99-5.64-4.89-7.1-13.41-6.78-18.08-19.03-20.77-32.69-1.95-9.9-.36-19.11,4.59-27.74,2.02-3.52,2.08-7.84,4.86-10.98Z" style="fill: #6eb7f7; stroke-width: 0px;"/>
  <path d="M307.83,142.17c-2.13.03-4.26.06-6.39.09-7.9-2.57-16.26-2.22-24.31-3.88-3.3-.68-6.68-1.06-10.04-1.34-2.38-.2-3.31-1.72-3.85-3.62-.56-2,.78-3,2.25-4.08,3.08-2.26,5.98-4.93,9.67-6.03,8.61-2.57,14.97-9.49,23.6-11.94.45,8.19,1.29,16.39,1.21,24.58-.06,6.16,5.45,3.93,7.84,6.23Z" style="fill: #6fb8f6; stroke-width: 0px;"/>
  <path d="M201.25,126.91c-11.75-6.05-22.37-14.24-34.88-18.83-3.67-1.34-6.92-4.6-11.4-3.11-.56.34-1.12.34-1.69.01-4.2-4.03-9.59-4.56-15-5.05-.65-.07-1.28-.2-1.9-.37-15.43-1.82-30.1-.16-43.21,9.11-11.75,8.31-17.82,19.6-18.33,33.97-.12,3.31.86,6.87-1.69,9.78-.02,1.73-.03,3.45-.05,5.18-4.99-9.69-4.92-19.17-.35-29.24,7.86-17.3,20.38-29.3,39.2-31.86,16.19-2.21,32.78-1.38,48.27,5.32,13.47,5.83,26.19,13.11,38.47,21.13,1.27.83,4.12,1.1,2.56,3.95Z" style="fill: #77befa; stroke-width: 0px;"/>
  <path d="M179.58,180.68c.11-5.66-1.28-11.82,5.11-15.4-1.7,5.13-3.41,10.27-5.11,15.4Z" style="fill: #77befa; stroke-width: 0px;"/>
  <path d="M173.2,238.16c-3.64-.05-7.17-.65-10.49-2.24,4.3-.83,10.29,2.12,11.7-5.22,3.15,3.06.14,5.12-1.21,7.46Z" style="fill: #77befa; stroke-width: 0px;"/>
  <path d="M178.31,188.38c.27-2.17-.87-4.62,1.26-6.43-.27,2.17.82,4.61-1.26,6.43Z" style="fill: #77befa; stroke-width: 0px;"/>
  <path d="M120.47,374.28c-2.31,3.15-.78,6.78-1.29,10.16-1.43,2.33-2.86,4.66-4.35,7.09-8.11-10.66-8.07-22.34-5.42-34.51,3.63-16.62,3.56-16.65-11.74-24.29-12.74-6.36-25.79-12.23-36.07-22.54,3.17-12.02,10.54-21.04,20.25-28.39,4.22-2.05,7.46.46,10.63,2.51,7.55,4.86,14.54,10.51,21.46,16.2,6.75,5.54,13.9,7.76,22.57,5.48,14.85-3.91,29.54-3.17,44.07,2.06,6.32,2.28,13.08,1.61,19.69,1.71,2.73.04,6.11-.33,7.31,2.73,1.35,3.44-2.43,4.42-4.16,6.36-5.55,2.45-11.38,3.4-17.42,3.06-1.69-.04-3.39-.09-5.08-.13-1.97,1.39-4.5-.26-6.46,1.18-.37.14-.76.19-1.16.16-2.02,1.29-4.56-.34-6.53,1.17-26.93,6.02-41.66,23.32-46.28,49.99Z" style="fill: #a9e3fd; stroke-width: 0px;"/>
  <path d="M202.67,317.98c.68-.79,1.25-1.71,2.05-2.34.95-.76,2.64-1.13,2.1-2.7-.46-1.32-1.98-1.41-3.29-1.45-7.41-.21-14.89.71-22.2-1.3-4.68-1.29-9.34-2.63-14.04-3.82-9.3-2.34-18.58-1.64-27.6,1.13-13.08,4.02-22.72-1.69-32.31-9.65-7.72-6.41-14.89-14.09-25.51-16.05,10.47-9.88,23.79-12.14,37.29-13.87,1.46-.19,3,.02,4.09-1.29,9.36-1.33,18.72-2.66,28.07-3.98,2.54-.27,5.08.06,7.62.04,6.96-.05,12.72,2.38,17.09,8.19,5.49,7.28,10.66,14.9,18.26,20.32,2.09,1.49,4.12,3.27,6.6,3.81,12.43,2.7,24.5,7.1,37.24,8.32,3.83.37,7.69.66,11.24,2.1,3.93,1.59,4.03,3.48.7,6.65-.62.3-1.27.52-1.94.67-3,.54-6.16.19-9.03,1.55-10.21,2.8-20.75,3.48-31.15,5.09-1.88.29-3.81.09-5.29-1.43Z" style="fill: #86cbfe; stroke-width: 0px;"/>
  <path d="M650.19,165.38c12.83,12.24,20.89,27.01,23.85,44.57.5,2.99.34,5.92.38,8.88-1.11,1.75-2.8,1.59-4.51,1.35-4.56-1.78-8.86-4.09-13.09-6.55-6.08-3.47-12.32-6.68-18.74-9.42-8.21-3.51-16.59-6.48-25.87-4.2-3.53.87-7.17.19-10.62-1.09-14.51-7.14-28.43-15.39-42.62-23.14-1.13-.62-2.09-1.48-2.37-2.85,3.3-8.73,10.24-14.97,15.74-22.11,2.57-3.34,8.42-2.78,12.72-3.1,17.56-1.31,34.87-.35,51.06,7.88,5.19,2.64,9.42,6.48,14.07,9.79Z" style="fill: #fefefe; stroke-width: 0px;"/>
  <path d="M489.92,179.38c.43,1.97-2.79,4.29-.15,5.69,1.88,1,3.18-1.67,4.43-2.97,15.68-16.2,33.61-30,49.15-46.36,4.51-4.75,9.1-9.15,8.6-16.26-.73-10.26,6.68-16.12,12.39-22.67,9.98-11.45,18.17-23.57,19.24-39.29,3.22,5.89.59,11.84-.7,17.34-2.68,11.43-7.33,22.25-13.58,32.3-1,1.61-2.3,3.39-2.39,5.15-.59,11.07-8.6,16.47-16.41,22.07-1.03.74-2.62,1.36-2.93,2.36-4.16,13.27-17.27,18.27-25.46,27.78-2.46,2.85-5.99,4.87-7.14,8.89,2.54,1.64,4.18-.37,5.89-1.21,9.79-4.77,19.49-9.72,29.26-14.55,1.84-.91,4.21-2.59,5.71-.33,1.09,1.64-.89,3.47-2.03,4.98-8.02,10.62-18.23,19.15-27.42,28.64-1.73,1.79-4.04,3.02-6.92,5.12,7.58,2.76,9.7-3.43,14.06-3.88.36.53.45,1.11.3,1.73-5.81,7.77-14.55,11.76-22.17,17.21-6.54,3-12.54,7.09-19.39,9.47-4.34.15-8.45,4.76-13.01.68,1.76-7.29,7.08-11.77,12.64-16.07,17.69-6.48,32.08-17.24,42.75-32.92-11.35,3.3-20.57,10.17-29.76,17.07-14.54,12.18-27.74,25.71-40.46,39.74-.51.39-1.06.71-1.61,1.02-2.04,1.14-4.32,2.78-6.26.37-1.66-2.05.13-4.07,1.32-5.73,4.98-6.9,10.84-13.08,16.25-19.63,3.25-3.94,6.5-7.88,9.03-12.33,1.24-2.19,2.26-4.23.59-7.05-1.68-2.85-.86-5.78,2.52-7.38,1.39-.28,2.63-.01,3.65,1.02Z" style="fill: #60aaf2; stroke-width: 0px;"/>
  <path d="M511.53,210.06c7.33-5.53,14.66-11.06,21.99-16.59,2.11-3,4.76-5.48,7.63-7.73,2.14-2.21,4.28-4.42,6.41-6.63,3.1-.06,5.73,1.25,8.19,2.94,6.6,4.54,12.94,9.43,19.1,14.55,1.95,1.62,4.01,3.35,2.38,6.39-1.31,1.28-2.93,1.91-4.68,2.28-15.58,2.15-31.12,4.58-46.71,6.63-2.99.03-5.91.71-8.88.86-2.17.11-4.91.74-5.43-2.71Z" style="fill: #1a5dd5; stroke-width: 0px;"/>
  <path d="M577.08,202.37c-.12-3.34-3.06-4.16-5.09-5.89-7.63-6.52-15.59-12.54-24.42-17.36,2.6-2.66,4.33-6.6,9.04-6.19,14.96,8.15,29.92,16.3,44.88,24.46,1.63,1.05,2.05,2.83.14,3.25-8.07,1.77-16.06,5.62-24.55,1.74Z" style="fill: #3782ee; stroke-width: 0px;"/>
  <path d="M541.15,185.74c-1.72,3.39-4.51,5.72-7.63,7.73,0-.43,0-.86,0-1.29,2.07-2.71,3.93-5.68,7.64-6.44Z" style="fill: #59a3ed; stroke-width: 0px;"/>
  <path d="M366.66,149.87c-5.79,1.48-4.22-4.18-6.2-6.39-.97-15.08-3.18-30.01-1.86-45.29,1.36-15.87,4.45-31.08,10.92-45.61,1.96-.27,3.72-.21,3.84,2.43-5.12,31.42-6.68,63.09-6.7,94.87Z" style="fill: #fdfdfe; stroke-width: 0px;"/>
  <path d="M511.53,210.06c4.75,3.55,9.62-1.52,14.39.19,1.42,4.6-2.87,5.54-5.04,7.81-2.43,2.55-7.97,3.78-7.15,7.3.95,4.1,6.41,3.31,10.09,3.72,41.14,4.54,82.19,5.66,122.99-3.32,7.75-1.71,14.89-5.29,22.68-6.75,1.64-.06,3.29-.11,4.93-.17,2.67,2.73,1.65,6.12,1.15,9.1-2.34,13.98-10.37,23.99-22.51,30.88-20.73,11.76-43.38,16.12-66.86,16.7-25.16.63-50.2-1.26-75.12-4.84-2.31-.33-4.69-.18-7.04-.26-9.32-1.7-18.64-3.41-27.96-5.11-4.79-.87-9.58-1.72-14.37-2.58-5.27-2.55-10.97-3.19-16.68-3.85-7.64-1.48-7.97-2.57-2.92-9.07,6.39-8.24,13.78-15.45,22.13-21.69,11.46-15.05,25.39-27.61,39.78-39.72,3.24.82,3.71,1.89,1.25,4.93-3.84,4.73-8.14,9.06-12.84,12.97-5.43,3.65-8.36,9.57-12.8,14.12-1.34,3.47,1.07,2.96,2.92,2.56,3.5-.75,6.63-2.53,9.95-3.81,6.34-3.04,12.67-6.07,19.01-9.11Z" style="fill: #448ddc; stroke-width: 0px;"/>
  <path d="M416.94,293.75c4.7-8.99,10.69-17.31,14.16-26.94,1.55-4.29,4.55-2.94,7.35-2.24,16.27,4.11,32.46,8.56,48.96,11.66,2.08.39,4.21.51,6.31.76,12.78,3.44,25.97,4.29,39.01,5.85,18.81,2.25,37.71,4.03,56.69,3.97,7.87-.02,15.74-.72,23.61-1.11-.01.44-.03.89-.04,1.33-4.45,3.23-9.84,2.5-14.74,2.87-19.37,1.46-38.62-1.23-57.89-2.8-1.25-.1-2.47-.59-3.72-1.07.63,1.24,2.38,1.77,2.11,3.49-.01.41-.01.82,0,1.23-10.79-.65-21.49-2.19-32.15-3.86-20.07-3.14-39.91-7.51-59.44-13.06-5.58-1.59-8.73-.35-11.51,4.58-5.77,10.24-11.95,20.23-19.17,29.54-1.25,1.62-2.09,3.87-4.79,3.61-3.28,3.05-2.77,6.63-1.83,10.51,1.14,4.71,4.16,8.79,4.39,13.77-6.44-.44-9.71-6.14-14.76-8.88-2.14-1.88-5.32-2.69-6.15-5.93.08-1.04,1.08-1.29,1.66-1.89,2.66-1.1,5.08-2.51,6.69-5.01,4.23-7.44,9.68-13.96,15.26-20.39Z" style="fill: #2766b1; stroke-width: 0px;"/>
  <path d="M620.75,284.59c-1.97,2.07-4.43,1.09-6.74,1.07,2.08-1.4,4.43-1.09,6.74-1.07Z" style="fill: #2766b1; stroke-width: 0px;"/>
  <path d="M510.45,140.92c3.84-7.27,7.69-14.54,11.53-21.81,8.94-15.15,17.07-30.78,27.13-45.25,6.43-9.25,13.18-18.24,21.57-25.84,5.42-4.91,8.71-4.32,11.58,1.85.85,13.7-4.58,24.8-14.23,34.08-6.74,6.47-13.49,12.94-20.48,19.13-4.5,3.99-7.47,8.61-8.17,14.58-1.8,15.53-13.29,24.59-23.41,34.38-2.86,2.76-5.72,6.3-10.35,7.1-1.52-7,4.7-11.81,4.84-18.21Z" style="fill: #3e87db; stroke-width: 0px;"/>
  <path d="M411.68,311.57c9.04-11.35,16.67-23.65,23.78-36.25,2.44-4.34,5-5.14,9.85-3.82,25.84,7.03,51.86,13.27,78.64,15.78,5.01.47,10.2.9,14.79,3.49,4.23,2.04,8.3,4.33,11.65,7.71-2.05-.52-4.26-.69-6.11-1.61-15.07-7.5-30.85-6.88-46.82-4.35-7.07,1.12-14.07,1.49-21.3,1.27-14.11-.44-28.29-.57-42.39,1.06-4.93.57-15.6,10.81-16.42,15.83-.47,2.89,1.46,4.78,3.3,6.54,7.69,7.35,15.76,14.34,23.11,22.03,8.32,8.71,15.2,18.41,15.32,31.27-15.69-15.76-32.25-30.72-44.85-49.32-2.05-3.02-2.79-6.12-2.56-9.61Z" style="fill: #4a94e4; stroke-width: 0px;"/>
  <path d="M538.75,289.53c-2.6-1.35-5.21-2.69-7.81-4.04,27.35,1.25,54.63,4.87,82.05,1.55,7.29.96,3.46,5.17,1.75,7.62-5.34,7.66-13.68,9.66-22.36,10.35-16.09,1.29-30.73-3.16-44.3-11.62-2.89-1.8-5.74-3.74-9.34-3.87Z" style="fill: #011878; stroke-width: 0px;"/>
  <path d="M400.13,325.64c4.71,3.4,9.41,6.81,14.12,10.21,2.9,2.27,6.79,3.46,8.63,7.99-11.16-.93-19.72,5.1-28.98,8.86-16.02,6.49-32.67,10.8-49.44,14.69-5.58,1.3-11.4,1.07-17.08,1.57-22.51,1.97-45.13,2.1-67.69,1.32-12.26-.42-23.3-6.4-34.44-11.08-17.23-7.23-33.85-15.87-51.52-22.09-3.69-1.3-4.86-2.9-1.51-6.24,4.01-3.99,8.76-6.62,13.77-8.96,5.09-3.28,11.35-1.63,16.67-3.94,12.55-.7,24.8-3.52,37.21-5.19,2.78-1.74,6.16.5,8.92-1.35h0c3.91-.19,7.34-3.9,11.59-1.61,1.76,2.87-.44,4.8-1.7,6.92-3.84,6.41-3.13,11.37,2.57,16.39,6.82,5.99,14.83,9.43,23.87,9.72,25.63.82,51.21.12,76.68-3.12,13.84-1.76,25.86-8.51,38.31-14.08Z" style="fill: #0e4cc9; stroke-width: 0px;"/>
  <path d="M174.45,322.96c1.86-2.02,4.26-1.07,6.46-1.18-1.92,1.68-4.26,1.05-6.46,1.18Z" style="fill: #86cbfe; stroke-width: 0px;"/>
  <path d="M166.76,324.29c1.87-2.11,4.29-1.13,6.53-1.17-1.97,1.55-4.31,1.02-6.53,1.17Z" style="fill: #86cbfe; stroke-width: 0px;"/>
  <path d="M115.45,614.13c2.86,6.5.63,13.32,1.24,19.97.25,2.73.03,5.51.02,8.27-2.66-6.73-.67-13.75-1.25-20.61-.21-2.53-.02-5.08-.02-7.63Z" style="fill: #6eb6f7; stroke-width: 0px;"/>
  <path d="M116.73,650.04c2.74,6.07.71,12.46,1.24,18.69.27,3.16.04,6.36.03,9.54-2.82-6.5-.63-13.32-1.25-19.96-.25-2.73-.03-5.51-.03-8.26Z" style="fill: #6eb6f7; stroke-width: 0px;"/>
  <path d="M489.92,179.38c-1.28,0-2.56,0-3.84,0-1.4-1.52-.83-3.24-.33-4.84,2.85-9.04,3.28-18.46,4.41-27.77.18-1.46.82-3.39-.59-4.18-1.92-1.08-3.08.96-4.12,2.14-4.09,4.65-8.04,9.4-11.26,14.73-7.29,12.08-13.52,24.7-19.47,37.48-1.53,3.3-3.1,8.48-7.73,6.88-3.91-1.35-2.61-6.45-2.09-9.82.92-5.93.63-11.94,1.7-17.83.43-2.34-.01-3.87-2.87-3.37-3.45.61-5.43-1.89-8.5-4.39.18,11.68,1.88,22.57,1.37,33.5-.1,2.86.37,5.83-1.52,8.36-4.93,1.15-4.95-2.89-5.52-5.68-.84-4.1-.51-8.4-1.55-12.5-.09-5.7-2.04-10.85-4.76-15.76-3.61-3.73-6.28-3.83-9.88.19-3.87,4.32-6.59,9.41-8.84,14.75-2.83,6.69-4.75,13.68-6.98,20.57-.7,2.18-.52,6.18-5,4.76,5.35-16.8,9.52-34.08,20.3-48.65,1.45-1.96,3.14-3.38,5.11-4.7,1.81-1.21,3.63-3.04,3.07-5.23-.59-2.29-3.18-1.47-5.01-1.71-15.96-2.15-31.92-4.31-47.88-6.48.77-11.41,1.96-22.75,6.28-33.49,2.57-6.39,5.59-7.65,12.2-6.39,10.3,1.98,20.38,6.11,31.25,3.05,8.17-2.3,11.98-8.25,9.97-16.66-.74-3.09-1.72-6.12-2.63-9.16-.82-2.74-3.44-4.88-2.85-8.53,1.29.76,2.35,1.39,3.4,2.01.41,3.17,2.83,4.74,5.1,6.43,2.37,5.89,5.61,11.3,9.06,16.61,11.43,25.12,10.71,51.98,10.97,78.81,4.51-6.02,4.25-13.11,5.69-19.72,2.89-13.25,2.79-27.05,7.17-40.02,5.39-15.92,14.6-29.3,27.43-40.17,3.86-3.27,5.69-2.45,7.86,2.18,3.44,7.37,2.7,14.8,1.55,22.42-.47,3.14-.5,6.39-.34,9.58.73,14.42-1.42,28.42-5.8,42.13-1.39,4.35-1.02,5.15,1.85,6.29-1.04,5.2-4.35,9.39-6.37,14.15Z" style="fill: #6ab5fa; stroke-width: 0px;"/>
  <path d="M434.8,201.2c.94-12.03-1.93-24-1.19-36.26,2.88.56,3.99,2.42,5.01,4.21,1.26,2.22,3.31,3.34,5.32,2.19,7.52-4.28,4.73,1.89,4.55,4.56-.52,7.81-1.46,15.59-2.11,23.39-.11,1.35-.65,3.38,1.3,3.79,1.6.34,2.66-1.21,3.35-2.51,2-3.76,4.03-7.53,5.74-11.43,6.52-14.83,13.97-29.11,24.19-41.8,1.6-1.98,3.25-3.95,5.1-5.69,1.26-1.19,2.32-3.83,4.54-2.39,1.84,1.19,2.19,3.63,1.8,5.83-2.01,11.44-2.1,23.25-6.32,34.28-1.59,1.65-2.71,3.97-1.39,5.7,3.33,4.36.64,7.43-1.53,10.78-6.16,9.49-14.39,17.31-21.23,26.26-.26.34-.66.57-.88.92-1.43,2.21-4.97,4.57-3.42,6.76,1.86,2.64,4.02-2.22,6.63-1.69-6.29,8.32-14.6,14.73-21.26,22.78-4.09,4.95-2.51,6.31,2.05,7.98-5.56-.29-11.75,1.91-15.47-4.83-4.8,19-15.91,32.88-29.46,44.94-5.92,5.27-11.46,1.76-12.82-6.98-1.52-9.74-1.13-19.5-1.25-29.26,0-.43,0-.85,0-1.28,1.4-2.92.31-6.02.67-9.02.02-.63.14-1.24.35-1.84.53-2.2.02-4.49.57-6.68.9-2.2-.34-4.7.95-6.84h0c1.61-1.9-.17-4.48,1.28-6.42h0c1.63-1.91-.16-4.49,1.27-6.43,1.71-2.31,1.21-5.03,1.42-7.62,4.24-2.17,3.84-6.68,4.96-10.29,3.22-10.38,6.72-20.59,13.34-29.41,2.24-2.99,4.76-5.36,8.88-5.23,2.68.08,4.59.85,4.79,3.88-9.79.63-14.11,7.4-17.64,15.35-9.72,21.94-13.16,45.36-16.61,68.8-.87,5.94-1.66,11.78.95,17.59,2.32,5.15,4.17,6.17,8.67,3.05,7.18-4.98,14.19-10.24,20.62-16.19,2.9-2.69,5.45-6.22,3.3-10.21-5.87-10.9-2.29-22.21-1.78-33.29.37-8.05,2.56-15.98,3.7-24.01.33-2.35.47-5.26,3.88-5.72.64,4.19,1.44,8.33,1.49,12.63.03,2.47.03,5.75,3.64,6.61,3.09,6.08,1.72,12.5,1.05,18.74-.54,5.07-.74,10.06-.54,15.84,5.72-8.17,11.68-14.93,18.53-21.13,6.1-5.53,10.53-12.82,15.73-19.29,4.87-6.05,9.82-11.86,10.18-20.1.08-1.78,1.78-4.12-.52-5.16-1.93-.87-3.58,1.12-4.81,2.5-8.53,9.57-17.14,19.09-23.29,30.47-.3.56-.58,1.15-.92,1.69-1.54,2.44-2.68,6.35-6.2,5.24-3.3-1.05-2.75-4.79-2.48-7.84.64-7.23.06-7.99-6.69-9.89Z" style="fill: #59a3ed; stroke-width: 0px;"/>
  <path d="M388.59,237.08c0,2.57,0,5.14.01,7.71-1.55,1.92.22,4.49-1.26,6.42h0c-.4.58-.81.57-1.24.04,0,0-.1-.09-.1-.09-.03-4.86.5-9.61,2.59-14.07Z" style="fill: #77befa; stroke-width: 0px;"/>
  <path d="M389.86,230.66c-.25,2.17.92,4.63-1.28,6.42.23-2.18-.69-4.59,1.28-6.42Z" style="fill: #77befa; stroke-width: 0px;"/>
  <path d="M391.13,224.23c-.21,2.19.94,4.64-1.27,6.43.22-2.18-.64-4.58,1.27-6.43Z" style="fill: #77befa; stroke-width: 0px;"/>
  <path d="M138.52,98.64c5.72.91,12.5-.78,15.64,6.41,1.04,2.92-.31,6.07.84,8.98.13,1.63.26,3.26.39,4.9.34,4.91-1.6,9.2-4.14,13.12-10.23,15.75-1.4,50.92,17.11,57.18,3.18,1.08,4.44,3.8,4.75,6.94.28,2.77.81,5.42,2.55,7.69,0,3.36,0,6.72-.01,10.08-4.3,8.82-4.27,8.65-15.95,6.65-20.73-3.55-39.52-11.4-56.37-24.06-12.5-9.4-20.85-21.7-26.47-36.09-1.07-2.73-1.22-5.92-3.71-7.99,0-9.3-.52-18.5,3.9-27.37,9-18.08,24.3-25.92,43.38-27.57,5.52-.48,11.39-1.51,16.86,1.08-1.22,1.49-3.01,1.83-4.65,1.61-8.07-1.07-14.9,2.37-21.97,5.4-6.51,2.79-11.04,7.32-13.56,13.69-5.14,12.97-5.57,26.17-.64,39.33,3.17,8.49,11.24,10.94,19.26,6.66,9.66-5.15,15.01-12.8,16.1-23.69.82-8.19,3.44-15.63,8.76-22.26,6.25-7.79,5.47-12.55-1.91-19.47-.27-.26-.22-.76-.13-1.2Z" style="fill: #4289d7; stroke-width: 0px;"/>
  <path d="M260.45,310.44c-3.93-.17-7.67,1.86-11.66.99.3-1.57,3.46-.56,2.72-2.69-.58-1.67-2.33-2.32-4.18-2.4-12.12-.53-23.59-4.73-35.47-6.46-14.14-2.06-24.47-9.74-31.86-21.03-6.49-9.92-14.19-15.97-26.39-15.17-.74.05-1.54-.66-2.31-1.02,6.56-2.44,13.52-2.7,20.34-3.72,2.52-.38,5.13-.3,6.82-2.68,2.65.36,3.07,2.76,3.98,4.57,3.29,6.51,9.06,9.49,15.75,10.74,19.36,3.61,38.73,7.21,58.17,10.39,35.09,5.74,70.17,11.73,105.4,16.46,13.55,1.82,20.47,9.53,25.78,20.47-.25.3-.49.6-.73.9-2.57,1.54-5.34,1.16-8.08.76-29.06-4.26-58.33-6.83-87.44-10.69-7.7-1.02-15.28.33-22.87,1.39-2.72.38-5.49,1.16-7.98-.81Z" style="fill: #438cda; stroke-width: 0px;"/>
  <path d="M416.94,293.75c-3.83,7.74-8.72,14.67-15.26,20.39-.63.06-1.32-.01-1.88.22-3.66,1.51-7.19,4.04-11.11.41-4.16-3.84-2.52-8.3-2.1-13.08,7.61,5.82,10.39,5.65,17.1-.82,3.05-2.94,6.03-5.97,9-8.99,3.11-3.16,4.16-1.76,4.25,1.87Z" style="fill: #77befa; stroke-width: 0px;"/>
  <path d="M394.99,319.15c-.43.44-.85.88-1.28,1.33-2.52,1.7-4.89,2.45-6.53-1.1,0,0,.37-.48.38-.49,2.48.08,4.96.17,7.43.26Z" style="fill: #438cda; stroke-width: 0px;"/>
  <path d="M386.09,251.24c.41-.03.83-.04,1.24-.04-.54,3.41,1.26,7.1-1.28,10.26.01-3.41.03-6.81.04-10.22Z" style="fill: #6ab5fa; stroke-width: 0px;"/>
  <path d="M155,114.02c-1.73-2.86-.82-5.96-.84-8.98.27-.03.55-.06.82-.08,0,3.02.01,6.04.02,9.05Z" style="fill: #91d2fc; stroke-width: 0px;"/>
  <path d="M138.52,98.64c8.81,3.75,11.11,12.61,4.58,20.21-5.96,6.95-9.12,14.75-9.68,23.7-.82,13.14-9.24,20.51-19.84,26-5.37,2.78-14.92-.41-17.28-5.91-7.42-17.24-7.26-34.27,2.87-50.58,2.45-3.94,6.54-5.86,10.51-8.07,8.69-4.83,17.89-6.22,27.6-5.43.41,0,.83.01,1.24.07Z" style="fill: #276ab7; stroke-width: 0px;"/>
  <path d="M248.79,311.43c-2.68,2.41-5.92,1.06-8.92,1.35,2.68-2.37,5.91-1.11,8.92-1.35Z" style="fill: #438cda; stroke-width: 0px;"/>
  <path d="M577.08,202.37c8.12.67,15.87-2.07,23.86-2.6,1.82-.12.73-1.5.55-2.4,3.04.89,6.16,1.97,9.29,1.14,12.23-3.22,22.88,1.37,33.32,6.67,4.67,2.37,9.76,4.05,13.84,7.52,1.7,6.54.74,8.57-5.61,10.19-11.16,2.85-22.55,4.63-34,5.56-13.14,1.06-26.3,1.97-39.52,1.55-5.14-.17-10.21-.79-15.2-1.8-6.65-1.35-7.99-5.31-3.43-10.43,4.24-4.75,8.54-9.48,13.15-13.89,1.25-.5,2.5-1.01,3.76-1.51Z" style="fill: #9bdbfc; stroke-width: 0px;"/>
  <path d="M573.32,203.88c-1.37,6.67-7.42,9.65-11.31,14.33-1.47,1.76-4.07,3.35-3.05,5.83.92,2.24,3.66,2.53,6.07,2.8,29.05,3.34,57.66-.08,86.22-5.18,5.74-1.02,6.43-4.51,6.68-8.96,3.85,2.1,7.7,4.2,11.55,6.3-6.89,5.54-15.43,7.07-23.62,8.84-23.94,5.17-48.28,7.51-72.72,6.48-17.99-.76-36.07-.91-53.93-3.73-1.67-.26-3.32-.77-4.91-1.37-1.76-.67-4.13-1.1-4.56-3.12-.55-2.55,2.15-3.21,3.61-4.66,4-3.96,10.17-5.46,12.56-11.19,13.91-2.15,27.81-4.33,41.73-6.4,1.85-.28,3.78,0,5.67.03Z" style="fill: #7bc1f5; stroke-width: 0px;"/>
  <path d="M492.45,206.29c2.29-5.48,7.41-8.54,10.93-12.96.95-1.19,4.89-2.77.65-4.94,7.61-7.22,16.95-11.9,25.81-17.23,1.85-1.11,4.88-3.39,6.89-.92,2.05,2.52-.74,4.57-2.35,6.49-11.37,13.56-24.79,24.2-41.94,29.56Z" style="fill: #59a3ed; stroke-width: 0px;"/>
  <path d="M492.52,219.17c-3.07,2.66-6.75,4.12-10.56,5.32-1.48.47-3.26,2.01-4.4-.14-1-1.9.54-3.06,2.09-3.93,4.66,3.41,8.45-2.13,12.87-1.25Z" style="fill: #59a3ed; stroke-width: 0px;"/>
  <path d="M387.18,319.38c1.97,1.62,4.32.91,6.53,1.1,1.49,2.52,4.33,3.38,6.41,5.16-.06,1.63-.7,2.92-2.28,3.52-14.79,5.64-28.93,12.32-45.44,13.53-20.81,1.52-41.56,2.03-62.37,2.16-10.28.07-19.55-2.31-27.98-8.65-9.19-6.92-10.45-13.25-3.37-22.45.75-.98,1.19-2.2,1.77-3.31,7.16-.97,14.29-2.33,21.48-2.82,10.69-.72,21.16,1.9,31.73,3.04,19.88,2.16,39.72,4.74,59.57,7.13,4.65.56,9.3,1.06,13.95,1.58Z" style="fill: #0431a4; stroke-width: 0px;"/>
  <path d="M429.61,190.9c-4.06,7.5-2.8,16.12-5.07,24.01-2.26,7.84-.43,16.1-2.5,24-1.22,4.65.78,9.1,3.01,12.78,3.77,6.21.45,10.6-3.35,14.01-6.76,6.08-14.2,11.45-21.63,16.74-5.31,3.78-7.42,2.54-10.16-3.19-4.95-10.35-1.27-20.58.19-30.64,2.92-20.16,6.76-40.24,15.44-58.91,2.53-5.45,4.67-11.49,11.12-14.18,2.79-1.16,5.24-1.61,7.86.02,3.13,4.64,4.92,9.74,5.1,15.36Z" style="fill: #448ddc; stroke-width: 0px;"/>
  <path d="M434.8,201.2c6.32-2.06,10.08,1.57,8.68,8.8-.58,2.98-1.73,5.72,1.42,8.71,4.39-6.81,8.39-13.71,13.08-20.12,5.62-7.67,11.35-15.34,19.03-21.2,1.15-.87,2.28-2.25,3.94-1.4,1.96,1.01,1.48,3.07,1.16,4.58-1.66,8.01-2.84,15.8-9.34,22.38-4.44,4.5-8.78,9.74-12.2,15.37-4.82,7.94-13.42,12.21-18.84,19.73-2.28,3.17-2.76,8.25-7.93,9.66-1.48-12.75,2.04-25.13.94-37.6.02-2.98.03-5.96.05-8.94Z" style="fill: #448ddc; stroke-width: 0px;"/>
  <path d="M387.33,251.21c.29-2.17-.83-4.61,1.26-6.42-.28,2.17.85,4.61-1.26,6.42Z" style="fill: #6ab5fa; stroke-width: 0px;"/>
</svg>