<?xml version="1.0" encoding="UTF-8"?>
<svg id="Layer_1" data-name="Layer 1" xmlns="http://www.w3.org/2000/svg" viewBox="0 0 1048.49 946.21">
  <path d="M355.2,882.04c-9.87-11.04-12.62-24.76-12.95-38.71-.98-42.33-.7-84.7-1.93-127.03-1.01-34.92-.53-69.84-1.19-104.76-.25-13.53-.59-27.05-.96-40.58-.04-1.65.59-3.56-1.18-4.82-.57-.65-.86-1.4-.87-2.26.66-33.1-2.62-66.16-1.14-99.26.02-.75.1-1.5.21-2.24,4.89-10.09,11.26-19.22,18.39-27.87,2.44-1.29,5.14-1.66,7.62-.75,6.77,2.47,13.75,1.92,20.69,1.91,26.35-.02,52.65,1.63,79.01,1.64,11.48,0,23.01,1.29,34.55.67,19.57,1,39.14,2.07,58.75,1.82,8.94-.26,17.78,1.66,26.73,1.32,1.74-.07,3.47.38,4.88,1.58.46.86.31,1.6-.44,2.22-9.85,2.94-19.97,1.76-29.87,1.09-10.05-.68-20.07-1.07-30.1-.84-14,.32-27.92-.98-41.88-1.3-8.54-.2-9.53.91-9.55,9.31-.07,40.63-1.09,81.29.29,121.88,1.23,36.26.16,72.5,1.02,108.73,1.2,50.21,1.11,100.44,1.5,150.66.1,13.06,1.13,26.15,1.06,39.25-.02,3.04.21,6.14-1.13,9.02-2.77,3.47-6.72,2.86-10.25,2.42-24.83-3.06-49.84-4.24-74.65-7.47-7.18-.93-13.96-3.32-20.93-5.01-10.91-2.66-11.33-2.46-14.6,7.8-.2.64-.68,1.1-1.13,1.57Z" style="fill: #6698fa; stroke-width: 0px;"/>
  <path d="M756.54,140.09c-.46-3.86-.92-7.73-1.38-11.59,15.91-23.46,31.3-47.26,46.85-70.96,2.87-4.37,5.51-8.92,8.97-12.88,5.46-6.25,8.58-6.95,16.01-3.29,22.73,11.21,44.16,24.69,65.88,37.66,30.91,18.45,61.58,37.3,92.83,55.17,7.95,4.54,16.03,8.87,25.04,11.06,11.13,6.72,22.93,12.39,32.88,20.97.69,8.33-1.29,15.84-5.82,23-14.01,22.16-29.32,43.42-44.41,64.83-2.48,3.52-6.08,5.54-9.93,7.24-7.21,3.18-14.73,5.55-22.25,7.76-5.83,1.71-8.58,5.19-9.59,11-.87,5-1.12,9.98-.94,14.99.2,5.24-1.22,9.88-4.09,14.21-18.72,28.2-37.35,56.45-58.41,82.99-5.72,7.21-7.76,7.24-13.09.15-1.2-1.6-2.46-3.06-4.32-3.9-4.7-4.52-6.68-10.94-11.58-15.52-7.35-6.87-15.23-12.12-25.35-13.53-1.94-.27-3.9-.56-5.1-2.42-3.42-6.1-.39-10.53,4.06-14.25,7.37-6.15,14.45-12.65,21.93-18.66,9.59-7.7,17.93-16.54,24.67-26.87,2.91-4.46,4.78-9.35,5.86-14.49,1.96-9.37.46-12.43-7.77-16.95-3.01-2.85-4.02-7.19-7.54-9.72-7.24-5.2-15.36-5.17-23.67.61-6.61,4.6-12.38,10.3-19.03,14.86-1.84,1.26-3.36,3.76-6.23,2.08-7.38-3.84-7.7-10.41-7.69-17.74,0-11.61-1.71-22.99-10.14-32.07-4.44-5.35-7.58-11.65-12.84-16.45-14.25-12.97-30.57-16.88-48.41-9.86-18.14,7.14-28.63,20.81-29.82,40.8-.13,2.17.12,4.39-1.09,6.36-3.93,1.39-2.56-2.79-4.83-4.45-2.21,9.56-9.96,12.04-17.92,14.26-3.16.37-6.33.4-9.48.1-2.71-.26-4.91-1.26-5.52-4.27-.1-1.24.62-2.01,1.6-2.6,10.56-6.31,18.22-15.4,24.86-25.56,9.43-14.43,18.73-28.95,27.76-43.63,3.94-6.41,9.06-11.1,16.07-13.75,4.53-1.71,8.62-4.26,12.53-7.03,3.97-2.81,6.35-6.34,2.18-10.86-1.88-2.04-.79-4.64-1.72-6.82Z" style="fill: #f77f91; stroke-width: 0px;"/>
  <path d="M802.04,925.08c-7.51,4.76-14.67,10.02-22.7,14.01-16.37,8.13-33.49,8.11-50.99,5.77-22.83-3.05-45.68-5.94-68.52-8.89-4.52-.58-9.04-1.12-13.57-1.68-.43-.39-.86-.78-1.32-1.14-4.54-1.69-9.4-1.97-14.01-3.29-6.29-1.8-11.72-4.76-14.65-11.07-6.08-9.22-8.44-19.38-8.86-30.36-2-51.96-1.64-103.95-1.16-155.91.18-19.63,1.09-39.27,1.12-58.92.05-30.79-1.16-61.56-1.64-92.34-.54-34.69-1.97-69.37-2.41-104.07-.12-9.55-1.9-19.06-.78-28.65,5.6-.55,5.68,3.97,5.99,7.32.54,5.86,1.64,11.75,1.5,17.6-.51,20.98,1.17,41.89,1.62,62.84,2.43,114.21.53,228.44,1.18,342.65.13,22.14,2.13,24.5,23.86,26.97,24.3,2.76,48.6,5.44,72.93,7.9,7.99.81,16.21,1.45,23.97-1.7,8.86-3.6,14.81-9.31,15.64-19.73,2.24-28.06,3.93-56.15,6.26-84.2,2.06-24.79,2.09-49.7,2.92-74.55.42-12.4.59-24.86,1.85-37.25.71-6.91.28-13.95.23-20.88-.14-21.63,1.42-43.2,1.78-64.8.62-37.53,2.47-75.03,2.66-112.58.06-12.63,2.96-25.13,4.25-37.73.67-6.53,4.74-10.66,11.11-12.28,4.44-1.12,8.94-2,13.24-3.62,1.18-.4,2.4-.54,3.64-.62,16.71-1.82,33.62-.97,50.28-3.71,4.38-.72,9.05-1.36,13.35.99.64.62.83,1.37.59,2.23-4.2,4.79-4.57,10.76-4.65,16.6-.37,27.71.03,55.43-.29,83.15-.08,7.22-1.23,14.31-1.22,21.54.13,89.27.19,178.54-.2,267.81-.06,14.59-1.6,29.13-4.04,43.55-1.81,10.69-6.09,19.96-14.36,27.19-1.12.98-2.44,1.89-2.73,3.53.25,2.08-.93,3.53-2.63,4.05-9.12,2.77-16.58,8.66-24.87,12.97-1.37.71-2.92.87-4.37,1.31Z" style="fill: #306cc9; stroke-width: 0px;"/>
  <path d="M184.78,683.99c-2.18.32-3.87-.96-5.26-2.19-27.7-24.52-57.32-46.83-84.17-72.3-10.85-10.3-18.54-22.7-19.83-38.52-1.32-16.16,3.45-30.41,11.24-44.03,6.8-11.87,13.78-23.64,20.68-35.46,1.18-4.85,5.97-7.94,6.77-13.78-4.87,2.01-9.39,3.43-13.86,5.01-12.76,4.52-24.45,1.54-35.63-4.97-1.78-1.04-4.1-2-3.18-4.91,1.74-1.02,3.5-.54,4.95.37,7.46,4.71,15.11,2.73,22.57.47,11-3.34,21.47-8.16,32.13-12.43,3.57-1.43,6.11-3.95,8.23-7.09,1.67-2.47,2.87-5.44,6.04-6.54,2.17-.25,3.13,1.29,3.93,2.86,9.1,17.78,24.06,30.32,38.72,43.07,22.25,19.34,45.6,37.35,68.34,56.1,4.26,3.51,7.91,6.58,11.9-.07.43-.72,1.48-.85,2.39-.66.83,6.05-.1,11.71-3.78,16.75-.29.52-.63,1.01-.98,1.49-2.48,3.27-4.67,6.75-6.88,10.2-.3.5-.64.97-1.01,1.42-1.6,1.69-2.94,3.56-3.93,5.68-16.01,23.81-31.77,47.79-48.17,71.33-3.98,5.72-7.91,11.49-8.95,18.63-1.12,3.11.28,6.82-2.29,9.58Z" style="fill: #6fa0fd; stroke-width: 0px;"/>
  <path d="M860.82,443.32c.1-.52.19-1.03.29-1.55,2-3.98,6.02-3.88,9.51-4.36,10.25-1.42,20.52-2.72,30.82-3.78,4.33-.44,8.67-.94,12.29,2.37,2.3,3.04,1.96,6.63,1.94,10.09-.37,57.84-1.08,115.69-1.7,173.53-.3,27.48-.01,55-.97,82.48-1.41,40.56-2.31,81.13-2.69,121.71-.06,6.74-1.13,13.47-1.63,20.22-.33,4.39-1.37,8.61-4.23,12.15-3.61,12.59-11.39,22.15-21.45,30.26-13.39,10.8-28.16,19.51-42.47,28.93-11.8,7.77-24.88,9.57-38.49,9.71,9.04-5.7,17.58-12.29,28.05-15.36,1.53-.45,2.83-1.06,3.3-2.72.42-2.78,2.83-3.47,4.82-4.61,12.08-5.85,17.92-15.99,20.06-28.81,2.01-12.07,3.48-24.16,3.46-36.42-.04-21.16-.51-42.34.09-63.48,1.47-51.68.36-103.38,1.55-155.04.57-24.64.7-49.26.9-73.89.15-18.09-1.08-36.16-1.41-54.25-.15-8.35-.36-17-3.15-25.16-.52-7.38-1.85-14.81,1.1-22.02Z" style="fill: #83a1ca; stroke-width: 0px;"/>
  <path d="M352.61,436.68c-4.26,8.88-10.53,16.47-15.81,24.68-1.37,1.16-2.11,2.78-3.04,4.26-.88,1.52-1.75,3.06-2.89,4.41-3.96,4.4-7.07,9.39-9.87,14.58-.29.53-.63,1.03-.99,1.51-8.72,11.48-16.37,23.67-24.12,35.8-2.51,4.05-5.07,8.07-7.89,11.92-2.06,2.06-3.8,4.34-4.99,7.02-.28.52-.6,1-.96,1.47-1.8,1.92-3.2,4.11-4.32,6.49-.28.52-.61,1.01-.97,1.48-2.71,3.09-4.95,6.51-6.8,10.18-.28.52-.61,1.01-.97,1.48-3.18,3.48-5.52,7.52-7.67,11.68-17.38,26.12-34.39,52.48-51.72,78.63-2.05,3.09-4.35,6-6.57,8.97-.64.86-1.17,1.79-1.75,2.69-2.85,4.42-2.61,7.87,2.95,9.73-3.13,3.7-7.24,5.92-11.62,7.74-2.73-.83-4.51-2.49-4.74-5.48.79-4.22,3.44-7.55,5.71-10.94,32.04-47.89,63.77-95.97,95.92-143.78,14.49-21.54,28.57-43.37,43.16-64.85,26.86-39.54,53.22-79.42,79.72-119.2,9.43-14.16,17.58-29.14,26.82-43.44,3.66-5.66,2.94-10.11-1.15-15.9-12.57-17.77-30.7-28.99-47.38-41.85-11.56-8.91-23.83-16.93-35.6-25.62-4.39-3.24-8.98-6.2-13.93-8.55-3-1.42-5.66-3.31-7.71-5.95-5.96-7.7-4.13-16.06,4.78-19.82,14.12-5.95,26.89-14.56,40.93-20.54,6.06-2.58,4.63-7.14,5.41-11.4,8.21-4.81,17.1-3.02,25.84-2.71,9.42,2.73,19.13,4.85,26.45,12.16.55,3.3,2.85,5.12,5.41,6.98,26.11,18.96,51.97,38.25,75.41,60.54,2.55,2.43,5.47,4.3,8.53,6.02,5.03,2.83,5.26,4.88.82,8.68-4,3.42-8.68,5.86-13.24,8.41-10.86,6.08-21.59,12.39-32.03,19.12-18.33,11.8-31.64,28.71-43.77,46.31-27.85,40.41-55.47,80.99-81.95,122.33-1.06,1.65-2.67,2.9-3.37,4.79Z" style="fill: #2e6ccc; stroke-width: 0px;"/>
  <path d="M61.63,473.15c10.85,9.01,23.05,12.21,36.81,8.41,6.26-1.73,12.31-4.06,19.84-7.76-3.13,7.48-5.57,13.38-10.83,17.69-14.88,2.5-29.68,2.93-43.09-5.24-24.11-14.69-37.75-36.05-39.54-64.55-.77-12.3,1.42-23.84,8.63-34.12,1.48-2.11,1.23-3.42-1.15-5.25-11.27-8.68-21.23-18.52-28.07-31.35-6.7-12.55-4.86-24.43,1.54-36.07,14.16-25.76,28.52-51.42,42.96-77.02,2.97-5.26,5.46-10.89,9.91-15.21.59.32,1.14.76,1.28,1.4,5.26,23.5,21.63,38.47,39.89,51.98,1.57,1.16,3.18,2.27,4.66,3.56,3.81,3.26,8.05,5.94,11.95,9.1,10.92,8.87,12.84,18.47,5.75,30.89-9.94,17.41-20,34.75-30.34,51.93-4.38,7.28-8.37,14.79-12.43,22.25-2.31,4.26-4.86,8.34-10.03,9.66-7.19-.35-13.29-3.85-19.42-7.05-4.46-2.33-7.27-1.53-9.35,3.03-9.2,20.17-5.3,38.94,6.22,56.75,2.92,4.52,6.46,8.72,11.02,11.89,1.76,1.22,3.41,2.74,3.79,5.09Z" style="fill: #cfe1fc; stroke-width: 0px;"/>
  <path d="M904.45,856.18c2.85-10.35,3.58-21.11,3.56-31.62-.05-29.24,1.14-58.44,1.84-87.64.84-35.11.08-70.26,1.45-105.32,1.59-40.58-.31-81.17,1.3-121.7.88-22.25.65-44.46.95-66.7.03-2.3.84-4.84-1.06-6.88-.65-3.24,1.95-3.42,3.92-4.03,3.11-.98,6.33-1.66,8.98-3.74.22-.02.43-.07.65-.07,15.98-.31,16.39.15,16.17,16.05-.98,69.45-1.9,138.9-2.88,208.34-.71,50.66-1.3,101.33-2.31,151.98-.47,23.43-12.03,40.36-32.56,51.33Z" style="fill: #3671c9; stroke-width: 0px;"/>
  <path d="M436.45,154.59c-7.28-6.16-16.4-8.35-25.01-11.65,3.04-2.87,6.53-1.56,9.89-1,8.65,1.45,16.52,5.35,24.89,7.85-10-7.28-20.49-13.67-32.54-16.97-3.8-1.04-7.47-2.38-11.12-3.79-1.91-.74-4.4-1.26-3.92-4.31,13.7-5.8,26.97-12.67,41.56-16.22,10.12-2.46,20.29-.69,30.44-.89,9.94,1.65,18.58,6.5,26.4,12.3,27.12,20.11,53.9,40.65,80.29,61.71,6.23,4.97,6.42,7.35,1.72,13.59-1.89,2.5-4.33,4.28-6.95,5.85-7.47,4.48-14.76,9.27-22.29,13.65-5.04,3.48-10.48,6.24-15.93,9-3.74,1.89-6.71,1.41-10.21-1.08-25.23-17.88-48.7-38.05-73.54-56.44-4.78-3.54-10.94-5.61-13.69-11.6Z" style="fill: #83a1cb; stroke-width: 0px;"/>
  <path d="M549.09,213.53c6.6-4.19,13.19-8.38,19.79-12.56,2.02-1.28,4.19-2.36,6.08-3.8,7.61-5.8,7.47-9.61-.01-15.36-25.67-19.72-51.3-39.48-76.87-59.33-8.35-6.48-18.24-10-27.42-14.89,8.51-4.46,17.39-8.07,26.67-10.45,17.25-4.41,32.99.01,47.06,9.98,26.49,18.77,52.37,38.37,77.45,58.99,8.87,7.29,8.75,8.94,3.84,19.49-5.18,11.15-12.51,20.91-19.27,31.05-1.31,1.97-3.19,3.62-3.59,6.13-.05.31-.1.61-.14.92-6.31,10.45-13.47,20.25-22.5,28.53-8.03,7.36-14.38,16.26-22.36,23.64-1.77,1.64-3.21,4.36-6.45,3.1-2.39-5.28,1.48-8.83,3.98-12.29,10.48-14.44,20.8-29.02,31.89-43.02,6.35-8.02,12.44-16.25,18.43-24.55,1.57-2.17,4.95-4.87,2.99-7.26-2.56-3.12-6.05-.18-8.75,1.31-12.95,7.16-25.88,14.36-38.7,21.77-1.7.98-3.34,2.08-5.17,2.78-4.08,1.55-6.94,1-6.94-4.21Z" style="fill: #326dc9; stroke-width: 0px;"/>
  <path d="M235.86,256.83c-1.7-2.52-3.39-5.06-5.11-7.57-9.84-14.36-10.03-28,.6-42.65,8.65-11.92,15.08-25.43,22.83-38.03,1.92-3.12.35-4.68-1.01-6.91-11.02-18.04-21.87-36.2-27.83-56.69-6.48-22.27-5.92-43.89,7.68-63.71,6.69-9.75,15.74-16.86,27.05-20.59,7.17-2.37,14.21-5.32,21.82-6.18,4.09,2.25,8.78,2.49,13.14,3.91,31.76,10.33,48.74,32.67,54.04,65.1,4.49,27.52-3.53,52.66-13.56,77.53-.9,2.22-1.95,4.38-2.65,6.69-4.14,4.98-8.87,8.81-15.92,8.05-1.64-3.18.16-5.92,1.26-8.65,4.47-11.06,9.29-21.98,12.39-33.54,10.01-24.35,9.74-48.57-2.44-71.93-6.47-12.42-16.16-22.16-30.62-25.59-4.17-2.12-8.66-3.02-13.27-3.53-21.34-2.45-38.53,9.02-46.44,28.57-5.97,14.75-5.67,29.77.04,44.76,5.47,14.34,12.02,28.12,20.06,41.16,6.9,11.19,12.54,23.01,18.3,34.77,4.39,8.97,6.34,18.54,5.67,28.58-2.04,5.95-5.35,11.12-9.62,15.71-9.27,12.43-23.9,18.85-34,30.36-.59.67-1.5.82-2.39.39Z" style="fill: #bbd2f4; stroke-width: 0px;"/>
  <path d="M331.54,167.67c.3-5.42,3.67-9.71,5.42-14.6,6.72-18.74,12.72-37.64,11.54-57.88-1.2-20.7-6.58-40.09-21.35-55.46-10.97-11.41-24.54-18.68-40.28-21.44-2.5-.44-4.92-.41-5-3.79,17.15-5.33,33.87-12.61,51.9-14.27,24.77-2.29,49.82,13.44,62.09,37.76,7.35,14.56,9.96,30.03,8.97,46.19-.08,1.23-.75,2.41-1.15,3.62-5.33-5.53-6.36-5.76-12.64-1.41-11.3,7.83-21.95,16.54-32.72,25.07-2.66,2.1-4.1,5.05-5.24,8.16-3.01,8.19-6.18,16.32-8.65,24.71-3.15,7.39-5.29,15.21-9.39,22.22-.97.97-1.98,1.85-3.5,1.15Z" style="fill: #7d9cc7; stroke-width: 0px;"/>
  <path d="M871.39,388.23c3.27-1.54,4.01,1.55,5.13,3.15,4.48,6.42,5.34,6.68,9.75.78,9.64-12.87,19.69-25.44,28.59-38.86,9.75-14.69,19.58-29.33,29.63-43.82,3.27-4.72,5.04-9.54,4.54-15.27-.23-2.6-.11-5.24-.02-7.86.42-12.6,2.52-17.15,14.57-19.42,21.48-4.04,33.27-18.61,44.04-35.45,9.73-15.21,20.48-29.76,29.96-45.16,3-4.87,4.36-9.86,4.49-15.39.04-1.73-.2-3.55,1.57-4.71,2.39,1.53,3.12,4.02,3.8,6.55.77,2.27.85,4.54-.06,6.8-2.74,8.75-8.72,15.7-13.28,23.42-10.56,17.91-21.98,35.31-32.45,53.27-4.75,8.14-12.6,10.11-20.32,12.25-19.33,5.36-21.32,7.94-16.86,27.68,2.4,10.6.92,19.76-5.14,29.1-21.8,33.64-43.22,67.53-63.75,101.97.56,3.62-1.37,6.54-4.36,7.14-9.28,1.87-18.58,4.44-28.23,2.75-2.04-2.33.04-4.01,1.08-5.68,6.99-11.27,10.3-23.18,6.84-36.42-.59-2.25-1.24-4.66.5-6.82Z" style="fill: #dc6b66; stroke-width: 0px;"/>
  <path d="M235.86,256.83c10.08-12.4,25.35-19.01,35.3-31.55,1.82,2.18.47,4.14-.62,5.92-6.33,10.32-12.16,20.92-18.62,31.16-1.68,2.67-3.76,4.73-7,5.32-16.06,3.59-31.01.67-45.59-6.72-21.99-11.14-43.96-22.34-66.38-32.6-10.14-4.64-20.59-8.46-31.53-10.8-5.83-1.25-11.74-1.53-17.52,0-9.05,2.39-12.9,9.25-9.67,17.99,5.49,14.83,15.4,26.21,28.6,34.79,1.48.96,3.16,1.63,4.93,1.63,17.19-.06,32.32,7.73,47.15,14.48,16.16,7.35,31.37,7.76,47.59,2.68,3.45-1.08,6.84-3.24,10.7-1.39,1.35,3.39-1.69,3.95-3.48,4.92-7.12,3.85-14.64,6.78-22.46,8.85-3.82,1.01-6.4,2.13-5.24,7.03,1,4.22-1.14,8.11-2.94,11.84-4.85,10.03-10.84,19.42-16.8,28.79-9.1,14.31-14.94,29.98-20.52,45.83-1.12,3.2.65,5.42,1.36,8.06-2.93,3.24-6.6,3.41-10.52,2.56-1.8-1.44-1.69-3.43-1.4-5.38,2.68-17.79,7.26-34.95,16.69-50.51,4.51-7.45,8.97-14.93,13.26-22.51,1.07-1.9,2.18-3.77,3-5.8,4.28-10.66,3.16-13.46-7.68-16.46-19.03-5.26-36.92-12.85-52.96-24.5-15.12-9.48-27.72-21.51-37.5-36.52-4.26-6.54-6.97-13.45-7.35-21.25,4.31-10.85,12.64-15.31,23.97-15.74,21.71-.81,40.94,7.74,59.73,16.63,21.42,10.14,42.03,22,63.05,33.01,6.4,3.35,13.06,5.73,20.56,5.7,4.65-.02,8.04-1.01,9.92-5.45Z" style="fill: #799cd6; stroke-width: 0px;"/>
  <path d="M1010.73,145.25c-10.49,1.22-18.31-5.33-26.35-10.03-40.36-23.58-80.34-47.81-120.56-71.63-11.79-6.98-23.86-13.51-35.95-19.96-9.29-4.96-11.77-4.25-17.74,4.64-7.27,10.83-14.44,21.74-21.43,32.75-8.98,14.13-19.27,27.42-27.27,42.18-1.36,2.5-3.19,4.71-6.28,5.29-3.71-10.57-.88-19.76,4.97-28.93,13.1-20.53,25.52-41.48,38.45-62.12,8.38-13.39,14.36-14.4,27.94-6.06,59.32,36.43,118.71,72.76,178.03,109.19,2.18,1.34,4.74,2.31,6.19,4.67Z" style="fill: #fbb3bf; stroke-width: 0px;"/>
  <path d="M602.99,942.23c-33.1-4.24-66.19-8.57-99.31-12.64-7.66-.94-12.73-5.52-16.88-11.11-2.36-3.19-5.04-4.98-8.58-6.03,2.37-2.2-1.32-6.9,3.38-8.16,15.1-3.73,29.95.37,44.91,1.22,17.27.98,34.16,4.63,51.28,6.62,12.74,1.48,16.7-2.26,16.64-15.03-.24-52.4-.08-104.81-.07-157.21,0-3-.38-6.18,2.01-8.68,4.12,1.56,3.2,5.21,3.21,8.27.09,23.32.04,46.64.05,69.96,0,21.79.01,43.59,0,65.38-.01,18.74.59,37.4,5.69,55.63,1.17,4.19-.02,8.16-2.32,11.79Z" style="fill: #8da7d5; stroke-width: 0px;"/>
  <path d="M479.96,905.56c-1.76,2,5.56,6.29-1.74,6.89-23.46-2.91-46.92-5.89-70.39-8.72-12.31-1.48-24.42-3.72-35.84-8.76-6.64-2.93-12.54-6.88-16.8-12.94-.01-1.31-.03-2.62-.03-3.93,0-8.15,2.89-10.41,10.99-8.73,8.92,1.84,17.36,5.54,26.59,6.32,10.57.89,21.06,2.71,31.63,3.68,17.07,1.57,34.18,2.78,51.27,4.14,4.36,6.77,5.31,14.22,4.33,22.05Z" style="fill: #3070dc; stroke-width: 0px;"/>
  <path d="M602.99,942.23c1.62-7.67-.52-14.84-2.35-22.22-2.57-10.36-2.69-21.17-2.78-31.74-.39-49.8-.18-99.61-.25-149.41,0-2.5,1.01-5.29-1.26-7.45-1.77-1.65-1.87-3.86-2.03-6.04-.1-1.31-.09-2.62-.08-3.93.37-87.8-2.31-175.58-1.3-263.38.05-4.37-.34-8.73-.24-13.1.13-.87.47-1.66,1.02-2.35,10.77-3.01,21.63-1.89,32.5-.71.84.09,1.43.9,1.84,1.68-1.66,3.19-4.76,2.49-7.45,2.63-4.55.24-9.12-.06-13.68.19-2.42.13-4.98.04-5.15,3.49,1.02,8.06.67,16.16.61,24.21-.89,130.16,2.08,260.3,1.38,390.46-.02,4.59.06,9.17-.05,13.75-.23,1.99-.27,4-.27,6,.11,4.08-.52,8.22.78,12.23.32,6.67,2.12,13.1,3.12,19.67.03,5.61-.14,11.23.43,16.83.37,3.68-.29,6.88-3.55,9.11l-.61.16-.62-.07Z" style="fill: #7394de; stroke-width: 0px;"/>
  <path d="M343.54,144.09c1.86-10.8,6.27-20.72,10.65-30.63,1.57-3.56,5.36-5.04,8.22-7.28,10.07-7.88,19.8-16.23,30.66-23.07,5.51-3.47,8.99-1.9,10.62,4.67-.23,12.74-4.35,24.63-7.95,36.64-.39,3.76-3.51,4.54-6.25,5.86-11.76,5.66-24.08,10.34-33.04,20.6-3.03,3.47-5.42,7.37-8.31,10.92-2.14,2.01-4.21,4.2-7.58,3.64-3.67-2.84-1.44-5.82,0-8.57,2.11-4.04,4.46-7.94,2.98-12.78Z" style="fill: #4268b4; stroke-width: 0px;"/>
  <path d="M673.71,249.06c1.23,4.14,4.51,4.03,7.89,3.88,2.61-.11,5.23-.02,7.84-.02,1.13,3.02-1.12,4.83-2.56,6.85-1.62,2.26-2.59,4.47-.98,7.12,8.69,18.71,14.64,38.18,16.66,58.79,1.47,15.01-.41,29.11-10.17,41.32-.7.76-1.5,1.42-2.34,2.02-3.41,2.09-6.7,4.42-10.56,5.71-8.93,1.12-16.82-.47-22.22-8.54-.06-.7.09-1.37.45-1.98,2.44-1.54,4.6-.05,6.81.67,11.71,3.82,17.98.9,22.58-10.6.8-2.01,1.29-4.17,2.87-5.8,2.52-2.37,3.72-5.53,3.93-8.73,1.44-21.74-1.72-42.75-10.59-62.77-.78-1.08-1.4-2.25-1.73-3.55-.32-2.16-.96-4.18-2.53-5.8-7.25-13.48-15.5-26.15-26.5-37.05-7.31-7.24-15.56-10.82-25.63-10.63-1.25.02.75,2.28-1.15,2.41-10.57,1.4-15.07,8.51-17.04,18.02-3.32,16.03-.62,31.64,3.38,47.14,1.41,6.39,3.72,12.49,6,18.62.83,2.23,3.04,5.45-.09,6.81-2.48,1.08-3.7-2.35-4.81-4.37-5.84-10.53-9.44-21.96-13.17-33.33-.47-1.45-1.12-2.86-1.32-4.37-.27-2-1.87-.61-2.68-1.2-3.11-16.45-3.32-32.46,6.85-46.96,0,0-.06.1-.06.1,4.26-2.59,6.58-7.38,11.55-9.35,14.31-5.67,25.42.93,35.98,9.12,7.62,5.9,13.84,13.27,19.63,20.97,1.25,1.83,4.95,2.01,3.74,5.52Z" style="fill: #ee8681; stroke-width: 0px;"/>
  <path d="M673.71,249.06c-1.25-1.84-2.49-3.68-3.74-5.52,3.27-.68,3.94-3.73,5.36-6.02,13.36-21.58,26.88-43.07,39.9-64.85,6.07-10.15,15.9-13.59,26.14-16.6,3.56-1.05,6.98-2.33,10.18-4.08,4.68-2.56,5.04-7.2,4.99-11.89.78,1.72,1.27,3.65,2.37,5.14,4.94,6.71,4.13,10.35-3.07,14.87-5.36,3.36-11.31,5.51-16.72,8.65-10.35,5.99-13.73,17.55-20.17,26.65-11.37,16.07-19.64,34.38-34.77,47.71-3.08,2.71-5.93,5.8-10.46,5.96Z" style="fill: #fbbac2; stroke-width: 0px;"/>
  <path d="M347.02,161.16c8.84-17.34,25.14-25.07,41.77-32.29,2.61-1.13,5.18-2.1,6.94-4.45.83,1.47,1.96-.03,2.91.29,4.08,3.89,9.52,4.73,14.59,6.19,13.1,3.77,24.69,10.35,35.52,18.41.79.59,1.24,1.62,2.91,3.87-14.58-3.14-26.27-11.55-40.22-10.25-9.27-.49-18.57-1.34-27.42,2.59-4.67,4.73-10.76,7.14-16.56,9.96-4.85,2.36-9.88,4.37-14.77,6.66-1.85.87-4.37,2.65-5.68-.98Z" style="fill: #abc4ed; stroke-width: 0px;"/>
  <path d="M204.21,673.64c-7.95-.09-8.63-1.05-5.49-8.09.78-1.75,2.01-3.3,3.03-4.94,2.2,6.84,2.32,6.99,8.48,2.1,30.02-23.8,59.8-47.9,89.82-71.69,10.23-8.1,19.81-17.02,30.61-24.4,1.79-1.22,3.49-3.73,6.21-1.51,0,.35.04.7.11,1.04-44.26,35.83-88.52,71.66-132.78,107.5Z" style="fill: #1a5dce; stroke-width: 0px;"/>
  <path d="M862.43,436.41c8.98.47,17.67-2.05,26.55-2.58,4.18-.25,4.3-4.47,6.58-6.57,9.94.58,19.94-.48,29.83,1.29-1.18,4.12-4.84,4.54-8.15,5.18-1.96.38-3.93.31-4.75,2.6-6.38-3.17-12.81-.26-19.08.31-10.84.98-21.9,1.19-32.3,5.15-18.47.23-36.8,2.65-55.23,3.63-3.04.16-6.1.05-9.15.06-.22-.85.05-1.51.8-1.97,11.34-3.26,23.2-2.77,34.74-4.74,7.47-1.27,15.05-1.97,22.59-2.87,2.51-.3,5.16-1.21,7.57.53Z" style="fill: #588fea; stroke-width: 0px;"/>
  <path d="M604.22,942.14c3.62-8.49.17-17.34,1.35-25.96,2.61-.09,3.1,2.14,3.89,3.79,4.04,8.44,10.39,12.38,19.95,11.56,5.59-.48,11.33-.59,16.75,1.63.04.37.07.74.1,1.12-3.04-.01-5.95.2-8.67,1.97-10.26,6.7-21.33,9.14-33.37,5.89Z" style="fill: #6886ba; stroke-width: 0px;"/>
  <path d="M188.67,676.32c1.31,1.69,2.61,3.38,3.92,5.06-2.44,1.36-4.68,3.32-7.81,2.61.49-3.41-1.33-7.12,1.29-10.27,1.32.41,1.81,1.66,2.61,2.59Z" style="fill: #5586e8; stroke-width: 0px;"/>
  <path d="M1047.35,179.57c.02-2.27.04-4.53.06-6.8,1.45,2.28,1.47,4.54-.06,6.8Z" style="fill: #f77f91; stroke-width: 0px;"/>
  <path d="M593.71,444.4c1.85,2.26,1.36,4.94,1.37,7.53.02,47.36-.65,94.73.26,142.07.88,45.8.66,91.59,1.01,137.39,0,55.25.02,110.5.04,165.75,0,2.16.53,4.35.26,6.46-1.01,7.91-8.47,12.5-17.29,11.08-20.11-3.24-40.19-6.6-60.58-7.75-6.25-.35-12.47-1.49-18.67-2.42-6.8-1.02-13.35,2.2-20.13,1.03-1.44-7.35-2.89-14.7-4.33-22.05.22-15.7-.47-31.38-.82-47.07-.74-33.62.32-67.29-.69-100.9-1.46-48.9.27-97.83-1.31-146.69-1.49-46.07-.36-92.12-1.11-138.17-.14-8.39.51-9.1,8.86-8.9,32.71.77,65.41,1.68,98.11,2.51,2.4.06,4.8-.06,7.2-.1,2.66-2.01,5.27-1.95,7.83.2Z" style="fill: #c8daf9; stroke-width: 0px;"/>
  <path d="M797.66,444.22c-.31.42-.62.83-.93,1.25-.88.04-1.75.08-2.63.12-6.34,1.82-12.85,2.15-19.38,2.15-28.15.02-56.32.68-84.45-.23-18.31-.59-36.62-.87-54.93-1.14-2.59-.04-5.31.04-7.25-2.24-11.43-1.76-22.92-1.01-34.4-.9-2.61.63-5.23.62-7.84,0-10.44-.54-20.88-1.07-31.32-1.61-1.16-.66-2.24-1.39-2.35-2.91.04-1.46.57-2.54,2.17-2.77,2.17.41,4.34.55,6.32-.67,8.88-5.47,17.68-10.79,23.14-20.41,6.24-10.99,11.91-22.17,16.12-34.1,1.2-3.4,2-7.27,6.14-8.7,7.17-1.04,14.28-.49,21.44.3,9.73,1.07,19.55.09,29.32.62,7.95.98,15.71,4.51,23.94,1.85,4.32-1.37,8.11-3.41,9.96-7.9,9.31-13,11.39-27.2,9.74-43.08-2.12-20.4-9.24-39.04-16.31-57.85,2.27-4.51,4.64-5.1,8.8-1.83,5.09,4,8.94,9.28,10.81,15.29,6.07,19.57,14.74,38.12,21.76,57.31,1.96,5.37,2.41,10.57-.92,15.58-2.94,4.74-7.73,7.52-11.89,10.91-15.51,12.64-13.59,27.99,4.67,36.26.39.18.75.43,1.12.66,4.29,5.21,9.69,5.26,15.46,3.23,6.45-2.27,12.21-5.74,17.55-10.01,32.05-25.63,64.94-50.18,97.18-75.58,8.88-7,18.23-13.64,23.52-24.2,2.67-5.32,5.28-10.6,3.29-16.82.67-4.08.04-8.43,2.57-12.1,10.35,3.32,10.46,6.23,8.7,18.99-1.18,8.52-6.04,15.82-11.44,22.41-8.82,10.77-19.53,19.57-30.31,28.3-4.04,3.27-7.94,6.72-11.89,10.11-3.77,3.24-5.78,7.01-3.46,12.01-3.79,2.75-8.42,1.79-12.61,2.71-17.71,3.88-29.76,14.12-35.52,31.27-6.08,18.1-1.47,33.94,11.19,47.79,1.73,1.89,4.36,3.05,4.93,5.92Z" style="fill: #ed6a71; stroke-width: 0px;"/>
  <path d="M549.09,213.53c1.98,5.09,5.09,3.73,8.61,1.71,13.75-7.89,27.57-15.66,41.37-23.48.94-.53,1.79-1.33,2.79-1.62,3.04-.89,6.49-3.14,9.14-.12,2.87,3.27-.91,5.71-2.47,7.83-16.85,22.85-33.97,45.5-50.87,68.31-2.78,3.75-6.13,7.43-5.93,12.66.93,1.15.18,2.03-.57,2.77-11.57,11.59-24.93,20.64-39.62,27.8-.98.48-2.06.65-3.15.66-5.38-1.06-10.37.51-15.21,2.49-18.49,7.54-36.86,15.39-55.38,22.88-5.53,2.24-7.78,7.32-11.37,11.27-10.86,6.86-13.65,13.05-11.09,25.82,2.64,13.19,7.09,25.57,16.7,35.58,5.86,6.11,12.34,8.8,20.53,5.14,4.37.53,8.63,1.49,12.71,3.16,1.54,3.49-1.77,5.44-2.78,8.68,7.96,1.52,15.75-2.3,23.54-.44,5.89,3.11,8.83,8.18,9.66,14.64-9.21,2.47-18.53.61-27.8.73-3.24.04-6.48-.68-9.73-.74-29.83-.57-59.66-1.07-89.49-1.62-1.91-.04-3.78.13-5.62-1.1-3.39-2.26-6.98-1.71-10.44.14,2.57-10.24,9.88-17.85,15.36-26.34,17.09-26.51,34.96-52.52,52.7-78.61,13.82-20.33,27.54-40.68,45.26-58.07,10.96-10.76,24.62-17.08,37.21-25.17,7.32-4.71,15.04-8.78,22.37-13.47,3.04-1.94,6.06-4.44-.33-6.75-3.14-1.14-6.05-3.54-8.48-5.96-17.34-17.23-37.18-31.41-56.27-46.51-6.82-5.4-13.74-10.64-21.05-15.4-1.56-1.02-5.55-2.12-2.93-5.81,22.09,16.69,44.34,33.19,66.2,50.19,7.54,5.86,15.44,11.21,22.83,17.23,2.49,2.02,4.42,2.11,7.02.63,5.48-3.12,11.05-6.08,16.58-9.11Z" style="fill: #1a5dce; stroke-width: 0px;"/>
  <path d="M336.88,565.11c-10.26,4.21-17.5,12.54-25.95,19.18-26.8,21.07-53.33,42.48-79.96,63.77-7.13,5.7-14.21,11.44-21.35,17.13-1.18.94-2.45,1.82-3.79,2.51-1.29.67-2.67,2.01-4.18.91-1.47-1.06-1.04-2.63-.52-4.17.41-1.21.43-2.55.63-3.83,9.06-14.02,18.83-27.56,27.61-41.79,9.33-15.11,19.55-29.68,29.42-44.46.46-.69,1.31-1.11,1.98-1.66,2.6-3.93,4.98-8,7.89-11.73h0c2.51-4.01,4.98-8.04,7.86-11.8h0c1.72-2.64,3.22-5.43,5.24-7.87h0c1.71-2.64,3.24-5.4,5.2-7.87,2.21-4.22,4.73-8.23,7.9-11.8,8.61-12.02,16.25-24.7,24.91-36.69h0c3.32-5.35,6.77-10.61,10.43-15.73.89-1.31,1.78-2.62,2.68-3.93,1.14-1.08,1.46-3.37,3.85-2.63.11,15.94-.14,31.89.45,47.81.59,15.92.91,31.84.82,47.77-.01,2.31.78,4.84-1.13,6.88Z" style="fill: #0645a3; stroke-width: 0px;"/>
  <path d="M495.69,439.27c-3.13-4.56-4.83-10.12-9.55-13.56-3.69-3.93-5.62-8.98-8.57-13.38-1.07-4.54,1.52-6.54,5.21-8.35,12.96-6.36,26.66-9.9,40.95-11.41,2.15.65,3.44,2,3.52,4.33q-5.62,4.6-1.5,11.36c3.04,4.95,6.59,9.59,9.39,14.7,1.87,3.41,4.24,4,7.26,1.43,6.37,2.68,7.56,9.08,10.27,14.38.62.96,1.23,1.92,1.85,2.87-18.19.52-36.34-.34-54.5-1.26-1.46-.07-2.89-.73-4.34-1.11Z" style="fill: #c7c9e2; stroke-width: 0px;"/>
  <path d="M585.85,443.24c2.61,0,5.23,0,7.84,0,0,.39.01.78.01,1.17-2.61-.07-5.22-.14-7.83-.2,0-.32-.01-.64-.03-.96Z" style="fill: #598ef5; stroke-width: 0px;"/>
  <path d="M336.74,462.65c-1.28.88-2.57,1.75-3.85,2.63.1-2.5,1.39-3.83,3.91-3.92.04.43.03.86-.06,1.29Z" style="fill: #1a5dce; stroke-width: 0px;"/>
  <path d="M878.07,264.72c.74,4.43-.64,8.66-1.25,12.96-.39,4.7-3.14,7.93-6.62,10.73-31.74,25.51-63.47,51.05-95.26,76.5-12.58,10.07-25.1,20.22-37.69,30.28-5.39,4.31-11.22,8.51-18.95,6-15.5-3.86-18.6-13.3-16.9-24.74,1.25-8.43,8.14-12.91,14.17-17.56,2.72-2.1,5.05-4.64,7.92-6.53,1.43-2.2,3.12-4.08,5.22-5.75,29.19-23.12,58.44-46.18,86.73-70.42,1.81-1.55,3.62-3.24,6.34-2.73,7.05-5.42,14.05-10.9,21.16-16.25,14.75-11.09,26.48-8.56,35.12,7.5Z" style="fill: #f2f4f5; stroke-width: 0px;"/>
  <path d="M710.2,244.98c-.88-19.71,6.6-35.32,23.55-45.59,23.58-14.3,53.9-5.62,67.34,18.82.84,1.52,1.65,3.05,2.47,4.57,3.24,3.41,4.24,7.63,4.36,12.17-.06,4,.02,8-.04,12-3.33,25.41-22.25,43.22-48.66,44.14-21.24.74-43.25-13.21-49.24-38.01-.65-2.67-1.91-5.46.23-8.1Z" style="fill: #ece5e4; stroke-width: 0px;"/>
  <path d="M797.66,444.22c-30.8-23.06-25.92-68.59,9.17-84,7.13-3.13,14.98-4,22.85-3.68,13.35,2.31,24.87,7.77,33.73,18.48,3.37,4.07,5.04,8.99,7.98,13.21,3.25,12.86,4.14,25.52-2.21,37.89-1.91,3.72-4.5,6.87-6.75,10.3-21.48,3.52-43.07,6.12-64.77,7.8Z" style="fill: #ebe4e3; stroke-width: 0px;"/>
  <path d="M806.34,234.65c-.93-3.96-1.86-7.91-2.78-11.87,6.36,2.59,7.07,8.98,8.92,14.22,2.62,7.39,3.22,15.25,2.84,23.15-.19,3.93-1.33,8.49,4.93,9.36,1.6.22,1.55,2.41,1.54,3.96-14.73,12.04-29.32,24.25-44.22,36.08-18,14.29-35.38,29.39-54.07,42.81,4.72-9.09.23-17.43-3.17-25.17-6.38-14.52-12.15-29.17-16.83-44.32-2.05-6.63-5.92-12.56-11.25-17.33-2.91-2.61-5.59-3.4-8.07.47-2.74-2.7-.27-4.83,1.08-6.68,1.51-2.08,3.16-4.03,4.19-6.41,7.05-2.83,14.35-5.34,15.77-14.39.15-.97.98-2.08,2.3-1.69,1.19.35,1.38,1.52,1.53,2.62.25,1.86-.56,3.96,1.16,5.51,3.07,28.91,26.46,45.36,49.83,44.25,24.59-1.17,40.93-16.58,46.22-41.62.89-4.31.75-8.63.09-12.96Z" style="fill: #f47784; stroke-width: 0px;"/>
  <path d="M628.09,444.13c34.42.58,68.84,1.31,103.26,1.67,20.92.22,41.84-.13,62.75-.22-3.94,3.11-8.88,3.15-13.44,4.26-6.16,1.5-9.33,5.48-9.88,11.47-2.05,22.07-4.93,44.04-4.15,66.34.73,20.9-.86,41.84-1.58,62.73-.54,15.68.69,31.49-1.2,47-1.9,15.65.13,31.29-1.84,46.94-.74,5.9-.2,12.38-.27,18.61-.21,18.96-1.08,37.92-1.88,56.83-1.02,24.03-.24,48.24-4.65,72.12-1.41,7.63-.34,15.57-1.31,23.42-1.68,13.55-1.84,27.29-2.92,40.92-.71,8.95-7.35,13.59-14.42,17.09-9.17,4.54-19.25,3.31-28.97,2.5-14.67-1.23-29.29-3.17-43.92-4.87-14.2-1.65-28.38-3.46-42.59-5-4.18-.45-6.24-2.93-7.35-6.43-1.98-6.24-2.96-12.67-2.96-19.24.01-101.58.32-203.16-.27-304.73-.12-20.9.14-41.91-1.36-62.73-1.36-18.91.42-37.9-2.25-56.72-.44-3.12-.79-6.07-3.95-7.69-.9.62-1.77.61-2.6-.13.97-3.21,3.16-4.09,6.41-4.01,7.11.16,14.24-.06,21.36-.12Z" style="fill: #598ef5; stroke-width: 0px;"/>
  <path d="M600.33,448.27c.87.04,1.74.09,2.6.13,2.26,9.14,2.32,18.63,2.31,27.81-.03,30.96,1.3,61.9,2.03,92.82.5,21.34-.55,42.75,1.08,64.01,1.96,25.51,1.78,51.05.81,76.46-1.81,47.33-1.09,94.66-.57,141.96.18,16.4-.66,33.04,2.06,49.46,1.18,7.12,5.43,12.7,7.98,19.11-3.63.67-4.82-2.28-6.35-4.47-4.95-7.14-6.89-15.4-8.23-23.8-.64-4.06-1.4-8.08-2.32-12.09-.07-32.74-.16-65.48-.21-98.21-.05-29.9.59-59.82-.21-89.71-2.17-81.16-.51-162.33-1.01-243.49Z" style="fill: #3a60c4; stroke-width: 0px;"/>
  <path d="M860.82,443.32c.17,7.3.34,14.59.51,21.89,1.78,19.54,2.57,39.08.95,58.7-.91,11.09-.26,22.25-.29,33.37-.06,20.95.63,41.92-.16,62.84-1.37,36.42-.14,72.87-1.49,109.24-.94,25.09-.48,50.15-.99,75.22-.06,2.84,0,5.68-.51,8.48-2.09,7.82-.74,15.8-1.07,23.7-.14,13.61.72,27.25-2.74,40.7-2.84,11.06-7.17,20.87-17.58,26.85-1.35.9-2.7,1.79-4.05,2.69-1.25.35-2.49.7-5.13,1.43,4.94-4.77,9.49-8.17,12.94-12.65,6.87-8.9,8.03-19.59,9.39-30.11,4.6-35.58,2.47-71.36,2.62-107.06.27-65.69-.66-131.39.39-197.06.55-34.36.54-68.72,1.06-103.08.06-3.88.85-7.75,1.26-11.63.32-3.04,3.21-2.43,4.89-3.53Z" style="fill: #1f4697; stroke-width: 0px;"/>
  <path d="M601.75,879.68c3.83,5.34,3.69,11.81,5.12,17.83,2.02,8.47,4.48,16.77,11.76,22.52,4.25,6.26,10.84,7.9,17.7,9.41,3.36.74,7.63-.28,9.82,3.73-6.27.03-12.54.03-18.81.09-10.88.1-15.42-2.91-19.79-13.1-.58-1.36-1.33-2.65-2-3.97-1.01-6.51-3.49-12.81-2.77-19.56-1.45-3.87.39-8.04-1.06-11.91,0-1.68,0-3.35,0-5.03Z" style="fill: #173e99; stroke-width: 0px;"/>
  <path d="M260.72,549.32c-7.2,7.49-7.46,7.81-15.87.93-23.89-19.55-48.24-38.53-71.54-58.82-14.53-12.65-28.16-25.85-37.13-43.17-1.94-1.89-2.99-4.2-3.32-6.87-3.62-15.03,4.41-26.66,11.27-38.63.36-1.59,1.54-2.68,2.43-3.96,1.67-2.49,3.22-5.04,4.38-7.82,13.13-22.04,27.39-43.37,40.67-65.31,1.22-2.02,2.48-4.14,4.96-4.97,3.35.73,2.76,3.55,2.85,5.77.53,12.47,6.23,22.49,14.53,31.32,9.73,10.35,20.58,19.43,31.48,28.5,23.61,19.65,47.1,39.47,70.56,59.31,9.13,7.73,9.2,9.26,2.65,19.02-7.77,11.59-15.08,23.47-22.81,35.09-9.2,13.37-18.03,26.99-27.16,40.41-2.27,3.34-4.07,7.19-7.93,9.19Z" style="fill: #cdddfb; stroke-width: 0px;"/>
  <path d="M188.67,676.32c-1.68-.04-2.56-.9-2.61-2.59.18-8.93,6.22-15.04,10.73-21.81,13.71-20.57,27.58-41.03,41.44-61.5,1.69-2.49,3.67-4.78,5.52-7.16,1.19-1.83,2.75-3.38,3.92-5.23h0c2.93-3.73,5.43-7.74,7.86-11.8h0c20.91-28.25,39.84-57.83,59.11-87.2,16.04-24.44,30.18-50.07,46.89-74.07,1.76-2.52,3.2-5.2,3.84-8.26,5.28-11.57,12.84-21.78,19.57-32.47,7.6-12.08,11.12-25.53,15.18-38.87.89-2.91.03-5.73-1.64-8.1-3.89-5.51-7.65-11.05-12.81-15.63-10.78-9.56-21.08-19.7-29.61-31.36-10.85-14.82-25.14-26-39.11-37.46-8.06-6.62-12.69-5.83-19.48,2.27-8.13,9.71-14.77,20.55-21.99,30.94-16.43,23.67-31.51,48.24-47.46,72.23-3.73,5.61-3.44,10.97-1.4,16.76,2.5,5.68,6.62,10.14,10.77,14.61,1.34,1.45,3.96,3.17,1.85,5.36-1.49,1.54-3.87.24-5.29-1.08-11.35-10.55-22.37-21.34-26.07-37.28-2.16-9.32-.65-12.99,7.71-17.72.97-.55,1.72-1.34,2.26-2.3,3.93-6.98,9.16-13.29,11-21.35.18-.93.46-1.83.85-2.69.41-.85,1.01-1.57,1.72-2.19.46-.4.95-.77,1.45-1.12,4.2-3.67,6.83-8.27,8.14-13.66,1.21-3.22,1.79-6.72,4.05-9.5,1.92-.06,3.39-1.05,4.31-2.58,7.26-12.07,14.45-24.18,21.62-36.3.3-.5.14-1.27.19-1.92,3.91-4.25,6.29-9.5,9.34-14.31,3.96-9.99,11.4-17.27,18.98-24.45,5.81-3.94,11.62-7.89,17.87-11.14,5.43-1.28,10.13-3.91,14.19-7.71.9-.43,1.8-.85,2.7-1.28,2.08-.95,4.29-1.17,6.54-1.16,2.08-1.36,4.16-2.71,6.24-4.07,1.57,2.22,3.14.5,4.48-.18,9.39-4.77,19.48-8.13,28.28-14.11,1.18-.8,2.81-.92,4.24-1.35,5.09,4.34,3.42,7.47-1.81,9.91-14.61,6.82-28.08,15.89-43.17,21.76-8.08,3.14-10.07,10.46-4.74,17.37,1.58,2.05,3.6,3.69,5.93,5.05,25.42,14.77,48.33,33.13,71.91,50.54,10.95,8.09,20.34,17.51,28.51,28.39,3.33,4.44,4.37,8.02,1.46,12.94-14.75,24.9-30.05,49.44-46.21,73.46-33.66,50.02-67.11,100.17-100.61,150.3-21.88,32.74-43.79,65.45-65.5,98.31-13.79,20.87-28.53,41.12-41.11,62.78Z" style="fill: #4e88f0; stroke-width: 0px;"/>
  <path d="M133.61,441.71c1.85,1.79,2.96,3.87,2.56,6.55-6.67,12.82-19.2,17.06-31.53,21.68-9.1,3.4-18.07,7.07-27.89,8.11-2.59.28-4.63-.4-6.82-1.34-2.76-1.19-5.13-3.3-8.3-3.54-22.6-16.12-30.68-38.14-26.39-65.14.2-1.28.6-2.55,1.07-3.76,5.1-12.96,5.91-13.18,18.41-7.34,4.7,2.2,9.72,3.73,14.6,5.56,10.7,1.62,21.32,3.74,32.01,5.38,4.7,3.6,5.78,9.6,9.25,14.08,5.42,7,11.2,13.39,19.53,16.97,1.39.6,2.76,1.35,3.5,2.82Z" style="fill: #4670cc; stroke-width: 0px;"/>
  <path d="M366.97,397.17c-2.68,9.67-9.69,16.89-14.82,25.09-19.34,30.88-38.16,62.1-58.65,92.24-8.65,12.72-17.13,25.57-26.04,38.11-3.47,4.89-7.92,9.09-11.92,13.61,3.41-5.12,3.56-11.23,5.17-16.9,11.32-16.67,22.65-33.34,33.97-50.01,10.26-13.97,19.28-28.75,28.79-43.22,2.76-4.2,1.63-7.17-2.17-9.87-4.43-3.15-8.35-6.93-12.55-10.37-1.3-1.06-3.04-2.67-1.91-4.37,1.43-2.15,3.57-.75,5.16.25,2.57,1.61,4.9,3.6,7.69,4.86,1.59.89,3.17,1.8,4.58,2.96,2.75,1.43,3.58,6.41,8.18,4.39,10.13-13.56,18.86-28.05,28.5-41.92,1.47-2.12,2.28-5.39,6-4.86Z" style="fill: #5586e8; stroke-width: 0px;"/>
  <path d="M255.54,566.22c-1.23,4.86-3.82,8.8-7.86,11.79,1.62-4.59,4.29-8.49,7.86-11.79Z" style="fill: #5586e8; stroke-width: 0px;"/>
  <path d="M247.67,578.02c-.11,2.64-1.84,4.07-3.92,5.23.08-2.66,1.8-4.09,3.92-5.23Z" style="fill: #5586e8; stroke-width: 0px;"/>
  <path d="M837.45,904.31c15.32-13.7,18.18-31.93,18.51-51.06.09-5.24.05-10.49.06-15.73,1.62-7.79-.54-15.76,1.16-23.54.03-20.74-.61-41.51.26-62.22,1.46-34.9,0-69.83,1.46-104.68,1.33-31.86.45-63.69,1.03-95.53.53-28.78.94-57.56,1.4-86.34,3.56,8.4,3.13,17.51,3.5,26.21,1.48,35.16,2.72,70.4,1.36,105.57-1.72,44.69.3,89.4-1.4,134.03-1.46,38.15,0,76.29-1.19,114.4-.41,13.15-1.67,26.39-6.09,39.06-3.47,9.96-10.51,16.12-20.06,19.84Z" style="fill: #5578c3; stroke-width: 0px;"/>
  <path d="M319.78,484.95c-7.44,12.82-15.1,25.48-24.91,36.69,7.37-12.86,14.84-25.66,24.91-36.69Z" style="fill: #1a5dce; stroke-width: 0px;"/>
  <path d="M330.21,469.22c-2.43,5.94-6.07,11.08-10.43,15.73,2.04-6.2,5.56-11.41,10.43-15.73Z" style="fill: #1a5dce; stroke-width: 0px;"/>
  <path d="M276.52,549.18c-1.65,4.58-4.34,8.46-7.86,11.79,1.19-4.88,3.8-8.82,7.86-11.79Z" style="fill: #1a5dce; stroke-width: 0px;"/>
  <path d="M268.65,560.98c-1.7,4.53-4.26,8.49-7.89,11.73,1.28-4.82,3.81-8.79,7.89-11.73Z" style="fill: #1a5dce; stroke-width: 0px;"/>
  <path d="M281.76,541.32c-.86,3.21-2.48,5.92-5.24,7.86.52-3.44,2.08-6.18,5.24-7.86Z" style="fill: #1a5dce; stroke-width: 0px;"/>
  <path d="M286.96,533.45c-.8,3.24-2.44,5.92-5.2,7.87.5-3.43,2.09-6.15,5.2-7.87Z" style="fill: #1a5dce; stroke-width: 0px;"/>
  <path d="M102.11,408.91c-11.22-.68-22.43-1.41-32.79-6.45,7.99-3.93,9.94-12.42,13.98-19.16,12.16-20.3,23.89-40.87,35.51-61.49,12.43-22.08,4.49-25.82-8.25-35.83-2.35-1.85-5.5-2.68-7.06-5.54,9.21,3.34,17,9.43,26.04,13.24,9.68,4.09,19.62,7.19,29.61,10.18,9.6,2.88,10.94,4.52,7.93,14.35-2.9,9.47-8.62,17.6-13.92,25.79-12.12,18.7-18.36,39.26-20.83,61.17-.06.43-.07,1.12-.31,1.2-9.76,3.25-19.56,6.22-29.91,2.52Z" style="fill: #97b6ed; stroke-width: 0px;"/>
  <path d="M508.77,308.88c16.16-7.38,30.5-17.36,42.95-30.05,15.79-15.24,31.57-30.48,44.73-48.16,2.03-2.73,3.25-6.14,6.42-7.96-6.05,12.86-7.4,26.48-6.55,40.45.14,2.32-.51,4.82,1.28,6.85,2.46,3.76,2.88,7.93,2.45,12.27-11.48,12.16-23.16,24.27-37.82,32.54-10.65,6-20.57,12.96-30.57,19.87-6.09,4.21-12.03,8.67-19.64,9.81-5.25.79-10.41,1.04-14.9-2.6-4.31-10.47-2.68-20.18,3.85-29.18,1.87-2.58,4.57-3.84,7.81-3.82Z" style="fill: #d8dbed; stroke-width: 0px;"/>
  <path d="M317.35,175.38c-4.37,6.01-11.49,8.07-17.28,12.04-4.04,1.72-4.88-.09-3.7-3.57,1.32-3.92,3.31-7.59,5.06-11.34,3.13-6.72,2.8-13.25-.78-19.44-7.75-13.4-16.26-26.34-26.31-38.12-7.49-8.78-15.37-17.23-23.7-25.25-2.36-2.27-4.25-4.98-6.02-7.73-6.33-9.78-5.07-22.81,2.92-31.19,5.8-6.07,12.58-10.74,20.3-14.02,2.42-1.03,4.83-2.06,6.9-3.69,2.95-2.32,6.12-3.14,9.71-1.76,4.75.27,9.68-.08,13.27,4.03,0,6.39-3.19,12.07-3.95,18.36-1.04,8.63-.15,16.94,2.08,25.16,4.2,15.49,11.8,29.45,19.89,43.18,1.67,2.83,4.22,4.18,7.03,5.52,3.22,1.54,7.26,2.12,8.69,6.22-1.44,12.03-7.44,22.5-11.47,33.64-.95,2.62-1.75,5.3-2.62,7.96Z" style="fill: #456cbf; stroke-width: 0px;"/>
  <path d="M284.44,31.32c-8.61.56-14.4,7.37-22.12,10.05-3.36,1.17-6.22,3.94-9.15,6.19-15.54,11.91-13.59,27.7-2.26,40.05,7.06,7.69,14.44,15.1,21.58,22.73,11.11,11.87,19.12,25.83,28.21,39.07,6.13,8.93,5.93,18.33.63,27.72-1.39,2.47-2.57,5.05-3.81,7.61-1.5,3.09.96,2.49,2.55,2.69-7.24,7.25-13.32,15.47-19.57,23.55.12-11.99-3.05-23.02-8.28-33.84-7.99-16.51-18.04-31.84-26.27-48.19-4.71-9.36-8.81-18.98-11.88-28.99-7.96-25.92,3.39-54.97,25.79-65.47,7.71-3.61,15.97-5.34,24.58-3.16Z" style="fill: #638dd5; stroke-width: 0px;"/>
  <path d="M331.44,133.78c-1.11-.66-2.15-1.68-3.35-1.94-11.11-2.43-15.78-11.11-20.33-20.21-7.23-14.44-14.44-28.81-15.91-45.29-.97-10.94.75-21.26,5.85-31,7.49-1.84,12.05,3.64,16.89,7.41,14.07,10.96,20.69,26.08,23.61,43.41,2.56,15.2.16,29.68-4.06,44.14-.47,1.62-1.4,2.63-2.71,3.47Z" style="fill: #fefefe; stroke-width: 0px;"/>
  <path d="M340.78,165.23c-1.9,1.96-3.98,2.91-6.54,1.16,2.85-7.53,5.11-15.31,9.29-22.29,5.7,3.81.9,7.56-.27,11.13-1.09,3.3-4.91,5.83-2.48,10.01Z" style="fill: #2e6ccc; stroke-width: 0px;"/>
  <path d="M245.05,266.08c.77,3.89-2.05,6.85-2.67,10.38-2.55,4.04-7.11,4.63-11.03,6.19-5.76,2.31-11.44,5-17.74,5.63-8.73.64-16.63,4.66-25.34,5.86-9.89,1.36-19.17.73-27.94-3.7-13.1-6.61-27.45-9.84-40.81-15.71-.98-.43-2.15-.9-3.14-.75-15.53,2.38-23.75-8.73-32.57-18.09-4.74-5.03-8.02-11.38-10.72-17.86-5.12-12.24,1.24-22.25,14.55-23.16,11.4-.79,21.96,2.45,32.39,6.39,27.8,10.5,53.49,25.45,80.22,38.19,11.18,5.33,22.54,9.23,35.13,7.88,3.23-.34,6.44-.83,9.65-1.25Z" style="fill: #5078c7; stroke-width: 0px;"/>
  <path d="M213.6,288.28c9.08-5.19,19.53-7.03,28.77-11.83-1.57,5.76-4.24,10.82-9.16,14.45-1.32-2.2-2.96-1.87-5.01-.93-9.12,4.19-18.45,7.86-28.02,10.86-5.29,1.66-7.98,4.97-9.55,10.39-3.18,11.01-10.17,20.17-16,29.87-9.09,15.12-18.93,29.81-25.8,46.17-1.71,4.06-3.77,8-1.08,12.4l-2.33,2.81c-.84.65-1.68.69-2.5-.04-4.8-.85-4.21-3.67-3.11-7.31,7.14-23.78,19.36-45.04,32.45-65.87,3.02-4.81,5.79-9.72,7.5-15.15.51-1.63,1.49-3.76.89-4.99-3.87-7.89,1.75-7.83,6.86-9.39,9.11-2.76,18.26-5.69,26.1-11.45Z" style="fill: #698ce0; stroke-width: 0px;"/>
  <path d="M142.93,402.44c.83.01,1.67.02,2.5.04-1.06,5.29-4.85,9.2-7.1,13.89-3.35,6.98-6.33,13.88-3.58,21.84.43,1.25.11,2.61-1.13,3.5-16.46-5.21-25.22-17.81-31.5-32.8,10.21-.13,20.33-1.01,30.22-3.72,3.51-1.01,7.33-.82,10.6-2.75Z" style="fill: #fefefe; stroke-width: 0px;"/>
  <path d="M601.74,884.71c2.24,3.8.9,7.92,1.06,11.91-2.23-3.8-.99-7.92-1.06-11.91Z" style="fill: #3a60c4; stroke-width: 0px;"/>
  <path d="M690.68,349.91c-.15.16-.38.3-.43.49-4.28,16.35-13.06,23.27-32.19,13.66-5.05-.42-7.43-5.13-11.49-7.14-7.42-7.47-13.61-15.89-18.91-24.95-3.36-5.76-2.75-7.85,3.22-10.88,8.37-4.25,16.73-8.48,24.76-13.34,4.53-5.73,4.24-14.16-.74-21.47-4.08-5.99-8.23-7.09-16.99-4.48-6.92,2.43-14,4.32-21,6.5-2.01.63-4.09,1.62-6.16.09-5.19-17.23-7.76-34.64-2.69-52.35,3.1-10.84,7.47-14.15,18.37-14.86,5.5-2.12,9.71,1.19,13.88,3.67,11.71,6.96,20.11,17.3,27.33,28.54,15.23,23.72,23.91,49.73,26.25,77.85.37,6.48-.09,12.81-3.21,18.68Z" style="fill: #d1d2ee; stroke-width: 0px;"/>
  <path d="M656.56,309.05c-8.56,4.64-17.02,9.52-25.74,13.83-4.13,2.04-4.77,3.88-2.33,7.81,5.64,9.07,12.02,17.52,19.17,25.41,3.03,3.61,7.06,6.12,10.3,9.5,5.92,6.89,13.7,8.54,22.29,7.89,3.47-1.01,6.43-2.92,9.16-5.23.44-.44.88-.88,1.33-1.32,1.7.16,2.38.83.99,2.28-2.62,2.74-5.11,5.66-8.91,6.88-.17-.13-.38-.4-.52-.37-14.96,3.37-25.19-4.82-35.23-14.02-13.04-11.95-22.81-26.33-31.91-41.28-1.9-3.12-3.29-6.74-7.02-8.37-5.54-8.88-8.45-18.62-9.33-29-.4-4.35-.8-8.71-1.2-13.06,1.84-4.13,2.23-.59,2.66.6,3.14,8.78,6.03,17.66,9.3,26.39,2.03,5.43,4.59,10.67,8.28,15.32-1.69-8.2-6.03-15.59-7.09-23.93,9.19-2.63,18.37-5.26,27.56-7.89,3.73,1.63,5.28,5.12,6.34,8.53,1.93,6.19,5.19,11.26,10.16,15.37,1.31,1.09,3.58,2.23,1.74,4.67Z" style="fill: #e75d60; stroke-width: 0px;"/>
  <path d="M692.23,330.1c-3.41-30.51-12.87-58.79-31.56-83.46-8.87-11.71-18.83-22.35-34.23-25.47.09-.78-3.04-1.88,0-2.29,9.66-1.3,17.84,1.6,25.02,8.4,12.19,11.56,21.76,24.89,28.83,40.08,1.37,1.49,1.58,3.55,2.58,5.22.01,1.08.21,2.08,1.28,2.65,5.93,15.86,10.6,32,10.44,49.13-.02,2.03,1.32,5.04-2.35,5.74Z" style="fill: #e0585b; stroke-width: 0px;"/>
  <path d="M692.23,330.1c2.54-8.99,1.3-17.94-.7-26.75-2.15-9.45-4.9-18.76-7.39-28.13,6.43,10.65,7.96,22.81,10.45,34.64,1.9,9.01,1.54,18.2,1.33,27.33-.11,4.82-.9,9.55-5.25,12.72.52-6.6,1.04-13.21,1.55-19.81Z" style="fill: #f47784; stroke-width: 0px;"/>
  <path d="M657.96,365.61c-4.5-2-8.04-5.06-10.3-9.5,3.47,2.65,6.93,5.29,10.4,7.94-.03.52-.07,1.04-.1,1.56Z" style="fill: #f47784; stroke-width: 0px;"/>
  <path d="M689.41,368.27c-2.01,3.58-5.11,5.23-9.16,5.23,2.82-2.15,5.67-4.25,9.16-5.23Z" style="fill: #ed6a71; stroke-width: 0px;"/>
  <path d="M682.86,272.57c-1.69-1.33-2.4-3.14-2.58-5.22,2.36,1,2.71,2.99,2.58,5.22Z" style="fill: #f47784; stroke-width: 0px;"/>
  <path d="M718.29,401.19c10.21-.51,17.41-6.83,24.83-12.78,42.02-33.74,84.06-67.47,126.12-101.16,3.29-2.64,5.03-6.41,7.58-9.58,3.71,6.63-1.04,11.75-3.41,17.06-4.5,10.13-13.47,16.48-21.79,23.02-32.76,25.8-65.81,51.23-98.75,76.8-6.24,4.84-12.85,9.17-20.56,11.08-5.27,1.31-11.03,2.28-14.03-4.45Z" style="fill: #c86175; stroke-width: 0px;"/>
  <path d="M658.07,374.88c-17.96-.37-35.91-.75-53.87-1.12-3.89,2.58-8.26,1.52-12.47,1.63-17.73.99-35.17,3.67-52.09,9.23-5.48.46-11.01,2.01-16.36-.7-5.63-2.52-9.38-7.26-13.41-11.62-1.15-1.25-2.95-2.9-.65-4.83,3.31-1.33,5.89.54,8.52,2.01,5.13,2.85,10.49,4.41,16.25,2.31,24.28-8.86,49.99-11.17,75.07-16.4,6.82-1.42,13.55-3.06,20.16-5.23,2.65-.1,4.66,1.33,6.12,3.23,5.37,7.03,12.36,12.14,19.53,17.09,1.5,1.04,3.61,1.87,3.2,4.4Z" style="fill: #9f9ec2; stroke-width: 0px;"/>
  <path d="M591.27,373.74c4.31,0,8.63,0,12.94.01-5.52,16.23-12.21,31.88-21.81,46.2-5.82,8.69-14.94,12.92-23.4,18.08-2.24,1.37-3.67.5-4.52-1.77-.63-6.26,4.88-9.86,6.54-15.13,8.94-13.98,17.34-28.31,26.25-42.32,1.17-1.84,2.04-3.88,4-5.09Z" style="fill: #f797a1; stroke-width: 0px;"/>
  <path d="M658.07,374.88c-10.28-6.58-19.37-14.51-27.35-23.74-4.73-1.71-6.32-6.29-8.89-9.92-4.89-6.91-8.21-14.68-11.78-22.3-.97-2.08-2.19-4.32-.78-6.76,3.04-1.4,3.4,1.36,4.39,2.93,6.64,10.42,12.82,21.16,20.69,30.72,8.3,10.09,17.52,19.3,28.7,26.28,4.16,2.6,8.71,3.61,13.67,2.96,2.04-.27,4.37-.98,6.1,1.06-8.42,3.03-16.57.68-24.75-1.23Z" style="fill: #bf4745; stroke-width: 0px;"/>
  <path d="M562.27,422.04c-2.6,4.75-5.19,9.49-7.79,14.24-.6.83-1.2,1.65-1.8,2.48-4.11-4.08-6.29-9.5-9.77-14.02-.96-2,.31-2.95,1.78-3.82,5.94-.9,11.91-2.27,17.58,1.13Z" style="fill: #2969d2; stroke-width: 0px;"/>
  <path d="M508.77,308.88c-11.36,4.97-14.59,19.38-10.56,33.14,3.26,4.83,5.18,10.09,5.15,15.99-4.76,1.42-6.91-2.27-8.62-5.21-5.18-8.89-7.76-8.5-17.3-5.2-9.62,3.32-19.42,6.33-28.5,11.01-7.9,4.08-15.77,5.69-24.2,1.96-3.29-5.1-2.24-9.89,1.04-14.51,2.44-6.79,7.28-10.67,14.01-13.31,18.93-7.43,37.63-15.43,56.45-23.13,4.05-1.66,8.23-2.78,12.54-.74Z" style="fill: #ee857d; stroke-width: 0px;"/>
  <path d="M523.14,382.52c5.03,2.59,10.44-.03,15.57,1.14-1.08,6-6.99,10.01-14.33,9.73-12.99,3.75-26.76,4.6-39.04,11.12-3.76,2-6.98,3.5-7.13,8.21-3.63,3.57-7.68,5.91-13.03,4.48-4.66.3-8.82-1.67-13.16-2.86-8.2-3.89-13.46-10.08-14.93-19.21.56-1.01,1.44-1.72,2.54-1.87,18.66-2.59,34.76-12.19,51.78-19.17,7.2-2.95,13.02-3.77,19.14,1.86,3.49,3.21,7.87,5.38,12.59,6.57Z" style="fill: #b13a39; stroke-width: 0px;"/>
  <path d="M437.61,395.9c3.42,7.23,7.93,13.6,14.41,18.43-6.55,4.34-12.75,2.46-17.87-2.12-14.64-13.08-21.05-30.1-21.01-49.33.02-7.91,3.67-14.78,12.62-16.82-.03,4.81-2.46,9.65.1,14.44,1.55,1.2,1.58,2.99,1.82,4.69,1.14,8.02,3.58,15.62,7.39,22.75,1.34,2.51,2.3,5.1,2.52,7.95Z" style="fill: #cacae3; stroke-width: 0px;"/>
  <path d="M465.18,417.19c4.34-1.49,8.69-2.98,13.03-4.48,4.8,3.01,6.25,8.07,7.93,12.99-8.8.67-17.6,1.35-26.98,2.06.88-4.6,4.44-7.06,6.02-10.58Z" style="fill: #fbfbfc; stroke-width: 0px;"/>
  <path d="M524.38,393.38c5.31-2.45,11.3-3.9,14.33-9.72,5.26-3.93,11.74-3.89,17.73-5.39,11.42-2.85,23.06-4.15,34.82-4.53-8.47,16.82-19.17,32.29-28.99,48.3-6.08-.03-12.17-.06-18.25-.09-6.35-7.87-13.55-15.16-17.17-24.91-.82-1.22-1.65-2.44-2.47-3.66Z" style="fill: #fefefe; stroke-width: 0px;"/>
  <path d="M526.85,397.04c6.15,8.01,12.66,15.77,17.17,24.91-.37.93-.74,1.85-1.11,2.78-2.59,5.49-5.37,4.88-8.28.26-3.93-6.24-7.9-12.47-11.8-18.73q-4.41-7.07,4.02-9.23Z" style="fill: #d05756; stroke-width: 0px;"/>
  <path d="M758.57,262.33c-12.37.03-21.86-9.02-22.01-20.99-.15-12.05,9.83-22.46,21.62-22.54,12.24-.09,21.8,9.62,21.78,22.1-.03,12.39-9.01,21.39-21.38,21.42Z" style="fill: #f67c8d; stroke-width: 0px;"/>
  <path d="M806.34,234.65c1.71,4.33,1.84,8.65-.09,12.96.03-4.32.06-8.64.09-12.96Z" style="fill: #f77f91; stroke-width: 0px;"/>
  <path d="M825.65,427.26c-11.59,0-22.1-10.62-22.06-22.27.04-11.35,10.57-22.02,21.68-21.98,11.67.04,22.14,9.98,22.39,21.26.28,12.13-10.12,22.99-22.01,22.99Z" style="fill: #f2727b; stroke-width: 0px;"/>
  <path d="M857.18,813.98c-.59,7.84,1.46,15.81-1.16,23.54.43-7.85-1.49-15.81,1.16-23.54Z" style="fill: #306cc9; stroke-width: 0px;"/>
  <path d="M319.73,437.74c-4.93-.06-7.11-5.56-13.68-6.35,7.2,6.09,13.07,11.26,19.19,16.12,2.31,1.84,3.12,3.59,1.48,6.05-9.92,14.82-19.87,29.61-29.86,44.38-.44.65-1.43.92-2.17,1.37,7.82-12.3,15.37-24.79,23.6-36.81,3.84-5.61,4.4-9.36-1.4-14.05-15.38-12.45-30.54-25.19-45.43-38.22-18.34-16.06-38.19-30.36-55.37-47.78-10.77-10.92-18.57-23.02-18.37-39.02,0-.74-.71-1.49-1.09-2.24-.52-5.07,3.3-7.61,6.35-10.43,3.34-3.08,7.37-5.32,11.41-7.28,5.53-2.68,10.63-6.13,16.17-8.77-1.63,9.82-8.49,17.01-12.89,25.44-.37.71-1.21,1.4-1.97,1.64-5.49,1.75-8.28,5.77-7.07,11.15,2.9,12.86,8.67,24.09,19.44,32.19,3.73,2.81,4.78,8.6,11.26,9.37-4.79-6.8-11.96-11.28-13.91-19.31,2.38-.77,3.71.9,4.93,2.36,15.6,18.76,35.5,32.77,53.67,48.69,10.66,9.34,21.72,18.2,32.93,26.87,1.46,1.13,3.51,2.09,2.79,4.62Z" style="fill: #698ce0; stroke-width: 0px;"/>
  <path d="M230.55,294.71c-4.55,7.41-13.38,8.16-19.86,12.62-5.61,3.86-11.05,7.53-14.07,13.86-14.89,23.54-29.79,47.09-44.68,70.63-1,.21-1.65-.16-1.88-1.18-.41-1.8.15-3.48.86-5.05,10.62-23.33,23.64-45.3,37.77-66.65,5.78-5.39,8.36-13.21,14.11-18.63,4.73-2.23,9.63-3.99,14.62-5.54,4.51-.22,8.17-4.82,13.16-2.52,0,.81-.01,1.63-.02,2.44Z" style="fill: #365bba; stroke-width: 0px;"/>
  <path d="M189.99,319.75c-14.13,21.13-26.68,43.16-37.47,66.17-.76,1.61-2.77,3.73-.58,5.9-.2,3.25-2.66,5.3-4.18,7.85-5.08-1.09-3.75-4.39-2.55-7.56,4.84-12.85,11.62-24.69,18.62-36.46,7.55-12.68,16.04-24.8,22.63-38.04.87-1.74,2.07-3.54,2.23-5.39.74-8.64,6.49-11.73,13.84-13.95,9.35-2.82,18.41-6.53,27.22-10.79,1.23-.6,2.79-2.38,3.97-.81.62.82-.29,2.79-.51,4.24-.43.02-.86.03-1.29.03-5.01,1.14-9.72,3.1-14.4,5.15-4.8,1.78-9.61,3.56-14.41,5.34-6.53,4.56-8.74,12.22-13.12,18.32Z" style="fill: #5780d7; stroke-width: 0px;"/>
  <path d="M319.73,437.74c-11.66-9.67-23.41-19.23-34.95-29.04-19.5-16.56-40.47-31.5-56.8-51.55-.66-.81-1.7-1.32-2.57-1.96-3.16-6.06-2.87-11.62,1.05-17.55,19.92-30.15,39.08-60.81,60-90.29,3.39-4.78,6.59-9.78,10.52-14.09,7.68-8.41,12.93-8.81,21.79-1.48,16.94,14.03,33.03,28.84,46.26,46.71,6.16,8.33,14.29,15.33,22.1,22.29,5.8,5.17,9.93,11.39,13.95,17.8,1.61,2.57,1.22,5.24.53,8.17-4.83,20.71-14.78,38.96-26.57,56.37-3.03,4.47-6.34,8.81-8.06,14.05-9.09,10.45-15.46,22.78-23.56,33.91-3.53,4.85-6.02,10.46-10.57,14.57-4.46.73-5.87-3.84-9.11-5.24-1.33-.89-2.67-1.78-4-2.67Z" style="fill: #77a6fe; stroke-width: 0px;"/>
  <path d="M217.53,296.09c4.23-3.32,9-5.11,14.4-5.15-.45.44-.9.88-1.35,1.32-4.62.36-8.28,3.97-13.05,3.83Z" style="fill: #5078c7; stroke-width: 0px;"/>
  <path d="M323.73,440.41c3.81.4,5.57,4.36,9.11,5.24-5.73,2.92-6.3-3.1-9.11-5.24Z" style="fill: #698ce0; stroke-width: 0px;"/>
  <path d="M502.94,357.89c-1.77-5.23-4.17-10.28-4.73-15.87,10.66,3.25,20.19.59,28.66-6.05,14.01-10.98,29.93-19.02,44.39-29.29,7.42-5.27,14.09-11.51,20.31-18.19,2.1-2.25,4.41-4.17,7.24-5.43,4.18,9.45,5.22,20.03,10.46,29.1,5.07,14.14,12.33,27.07,21.45,38.98-17.3,6.71-35.64,8.81-53.74,11.8-13.11,2.17-26.03,4.98-38.47,9.57-8.45,3.12-16.19,2.6-23.48-2.55-1.95-1.38-3.9-1.78-6.11-1.76-4.49-1.99-5.63-5.92-5.98-10.31Z" style="fill: #bebeda; stroke-width: 0px;"/>
  <path d="M656.56,309.05c-.03-.22.03-.55-.09-.63-9.98-6.76-12.45-18.4-18.15-27.94,8.07-3.49,13.73-1.91,18.16,5.07,5.64,8.9,5.67,18.6.08,23.49Z" style="fill: #f18d87; stroke-width: 0px;"/>
  <path d="M502.94,357.89c1.99,3.44,3.98,6.88,5.98,10.31,3.47,6.03,8.79,10.23,14.22,14.32-5.93.71-10.69-2.03-14.6-5.88-4.43-4.36-8.79-4.37-14.14-2.02-14.7,6.47-29.61,12.48-44.29,19-4.12,1.83-8.81-.94-12.51,2.28-7.2-10.71-11.39-22.42-11.74-35.4.72-.41,1.78-1.36,2.11-1.16,8.51,5.36,15.35-.56,22.51-3.41,10.68-4.25,21.39-8.32,32.37-11.76,5.93-1.86,9.08.44,11.6,5.19,1.96,3.69,4.22,7.1,8.47,8.52Z" style="fill: #d65c55; stroke-width: 0px;"/>
  <path d="M189.99,319.75c3.41-6.8,4.58-15.2,13.12-18.32-4.55,5.98-7.6,13.03-13.12,18.32Z" style="fill: #5078c7; stroke-width: 0px;"/>
</svg>