<?xml version="1.0" encoding="UTF-8"?>
<svg id="Layer_1" data-name="Layer 1" xmlns="http://www.w3.org/2000/svg" viewBox="0 0 1304.23 780.9">
  <path d="M170.18,97.81c1.8-2.36,4.42-1.74,6.77-1.69,50.17,1.07,100.29-2.16,150.46-1.72,53.2.47,106.4.19,159.6.24,9.3.29,18.54-.78,27.81-1.39,8.58-1.97,17.32-1.27,25.97-1.31,48.33-.19,96.67-.12,145-.08,3.26,0,6.52.07,9.74.69,4.47,1.5,9.11,1.26,13.72,1.26,96.74,0,193.47,0,290.21.02,4.32,0,8.71-.51,12.95.83,1.46.67,2.26,1.77,2.23,3.41-.2.77-.42,1.86-1.2,1.97-11.75,1.61-12.37,10.85-14.08,19.77-8.07,41.9-1.13,80.65,24.81,114.98,16.86,22.32,38.39,39,64.95,48.63,5.65,2.05,11.49,3.2,17.52,3.35,17.44,4.8,35.15,6.92,53.26,6.13,6.54-.28,12.9-1.63,19.38-2.23,2.75-.25,5.39-.93,7.56,1.45-.02,113.94.11,227.88-.25,341.83-.05,15.69-.54,31.5-1.8,47.11-1.16,14.43-8.5,26.69-21.03,35.06-24.05,12.67-50.11,7.25-75.24,7.34-163.69.55-327.39,1.62-491.07-.14-134.03-1.44-268.05-.36-402.08-1.17-7.1-.04-14.11-.71-21.09-1.87-24.17-4.01-40.73-23.23-42.84-47.61-1.72-19.84-1.38-39.65-1.39-59.48-.08-150.1.25-300.19-.29-450.28-.11-29.6,10.19-51.08,37.84-63.13,1-.44,1.82-1.18,2.59-1.96Z" style="fill: #e1e5ea; stroke-width: 0px;"/>
  <path d="M695.71,94.85c-58.69,0-117.39,0-176.08.03-1.61,0-3.22.4-4.83.61-2.2-.72-4.89.82-7.21-1.84,4.2-3.8,9.7-2.96,14.34-3.76,34.29-5.92,68.56-12.03,102.87-17.83,51.99-8.78,103.96-17.7,155.92-26.69,54.26-9.39,108.6-18.4,162.77-28.3,23.39-4.28,43.63-.09,60.82,16.72,9.95,10.33,11.28,23.95,14.12,36.99.74,3.4,1.48,6.8,2.22,10.21,1.29,6.6-.72,11.55-7.13,14.32-102.7-.05-205.39,0-308.08-.04-3.24,0-6.52.43-9.73-.41Z" style="fill: #41addf; stroke-width: 0px;"/>
  <path d="M1273.14,57.41c13.18,15.71,20.81,34.2,26.07,53.69,2.37,8.79,4.16,17.84,3.61,27.11,1.02,5.16.96,10.32.04,15.49.26,5.37.15,10.7-1.8,15.82-14.84,43.9-37.49,81.46-82.14,101.18-18.98,8.11-38.7,12.68-59.42,11.96-67.5-2.35-122.6-52.42-131.67-116.37-6.36-44.85,6.57-84.18,37.99-115.74,52.19-52.41,135.03-58.31,193.87-2.95,4.04,3.8,7.33,8.77,13.43,9.82Z" style="fill: #b8df6b; stroke-width: 0px;"/>
  <path d="M170.18,97.81c.66,4.01-2.79,4.52-5.13,5.71-21.88,11.22-32.58,28.71-32.55,53.66.23,165.63,0,331.26.34,496.88.03,15.75.11,32.1,11.03,45.65,8.25,10.23,18.8,15.93,31.58,18.18,14.84,2.61,29.78,1.51,44.68,1.53,113.41.1,226.84-1.22,340.23.36,190,2.64,379.99.28,569.98,1.43,9.69.06,18.92-.94,27.65-5.25,1.92-.95,3.91-2.33,5.76.14-6.77,5.54-13.95,10.22-22.92,11.29-319.82,2.35-639.65.39-959.47.98-12.9.02-23.47-5.91-34.3-11.56-16.96-10.93-23.27-27.45-23.39-46.62-.28-43.72-.15-87.43-.09-131.15.34-3.5.29-7.01.08-10.51-.21-2.07-.12-4.13.05-6.19.04-84.88.21-169.76-.11-254.63-.18-31.86-.43-63.71.11-95.57.13-4.63-1.13-9.49,2.24-13.59-1.25-23.56,8.28-41.71,27.75-54.69,4.92-3.29,10.37-5.71,16.47-6.07Z" style="fill: #bac1cc; stroke-width: 0px;"/>
  <path d="M125.97,158.57c-.05,4.18-.11,8.37-.16,12.55-2.06,3.02-5.2,3.56-8.54,3.94-21.87,2.46-43.76,4.82-65.51,8.29-23.32,3.72-36.95,15.95-41.86,37.39-1.66,7.26.18,14.16,1.31,20.97,7.94,47.63,16.44,95.17,24.83,142.73,17.22,97.6,34.91,195.12,53.52,292.46,3.32,17.36,6.37,34.77,9.74,52.12,4.02,20.74,20.87,34.11,41.81,33.84,14-.18,64.3-11.25,78.09-17.46-4.96-1.47-9.12-1.89-13.25-2.46-10-1.37-19.85-3.45-29.19-7.35-3.63-1.51-7.98-2.6-8.53-7.7,1.04-1.21,2.33-1.4,3.78-.92,14.36,3.95,28.71,7.49,43.73,8.55,19.23,1.35,38.5,1.33,57.71,2.77,4.33.33,8.72.03,12.91,1.43,2.28.76,5.07,1.32,5.12,4.42.05,2.84-2.2,4.3-4.51,5.21-9.89,3.88-20.32,5.86-30.62,8.21-15.59,3.57-31.2,7.06-46.93,9.85-.81.15-1.63.33-2.42.56-2.59.65-5.32.56-7.9,1.34-.68.23-1.39.41-2.09.56-2.42.39-4.89.53-7.22,1.39-.68.2-1.37.31-2.08.36-2.46.02-4.85.51-7.21,1.17-.67.22-1.35.34-2.04.43-2.37.28-4.79.27-7.11.97-.65.23-1.31.39-1.98.53-2.71.26-5.45.29-8.08,1.16-.67.24-1.36.41-2.05.54-2.88.35-5.8.45-8.59,1.42-.77.19-1.55.29-2.34.33-4.12.29-8.24.55-12.36.06-6.13.22-11.6-1.92-16.9-4.69-8.69-6.07-16.67-12.75-22.66-21.77-4.27-6.45-4.97-14.09-8.3-20.77-5.72-30.34-11.63-60.64-17.1-91.02-7.45-41.36-14.52-82.79-21.83-124.17-7.35-41.65-14.85-83.27-22.16-124.92-7.5-42.72-14.9-85.46-22.23-128.2-1.79-10.42-3.68-20.87-4.56-31.39-2.29-27.61,16.3-52.16,43.45-57.45,27.39-5.34,54.88-10.21,82.32-15.29Z" style="fill: #1787c5; stroke-width: 0px;"/>
  <path d="M1273.14,57.41c-.9,4.12-2.88,2.05-4.51.69-6.65-5.53-13.23-11.14-19.86-16.7-28.31-23.77-61.35-33.19-97.6-29.81-26.63,2.48-50.76,12.8-71.85,29.65-27.73,22.15-43.74,51.01-49.24,85.88-9.26,58.71,22.12,113.92,73.03,139.09,35.72,17.66,72.71,19.5,110.09,4.45,1.97-.79,4.14-1.06,6.22-1.57-.4,5.34-5.2,5.98-8.65,7.27-20.1,7.52-40.74,10.53-62.34,8.55-39.69-3.64-71.8-21.85-98.98-49.86-11.61-11.96-21.16-25.51-27.87-40.91-.56-1.29-.33-3.4-2.69-3.31-2.73-1.89-3.22-4.94-3.96-7.81-7.1-27.46-7.89-55.19,1.08-82.1,11.61-34.83,34.36-61.41,66.05-79.93,26.75-15.63,55.96-21.59,86.78-20.3,1.1.05,2.16.07,3.03.85,30.2,2.12,57.02,12.67,79.54,33.01,7.78,7.02,15.68,14.12,21.74,22.86Z" style="fill: #a1d435; stroke-width: 0px;"/>
  <path d="M1171.86,1.54c-35.4-1.51-68.49,5.94-97.62,26.77-44.11,31.54-66.34,74.07-61.75,128.87.95,11.34,2.16,23.11,7.84,33.57,7.96,17.24,16.21,34.38,29.08,48.61,24,26.53,53.5,42.74,89.3,47.22,13.53,1.7,27.06,1.4,40.61,1.61,3.39.05,7.17-.85,9.8,2.48-.76.48-1.51.97-2.27,1.45-11.55.82-22.9,3.18-34.59,3.32-16.11.2-31.65-2.41-47.02-6.73-33.13-8.34-58.38-27.95-77.03-55.87-24.91-37.29-32.63-77.99-21.16-121.82,1.18-4.49,2.46-8.91,6.42-11.89.09-.94.18-1.88.28-2.83.2-.67.61-1.15,1.26-1.42,1.88-4.63,3.76-9.26,5.65-13.89,9.68-15.36,20.19-30,33.89-42.16,32.73-29.03,71.09-41.14,114.44-38.46.98.06,1.92.77,2.88,1.18Z" style="fill: #8bbe5c; stroke-width: 0px;"/>
  <path d="M1189.11,290.66c-15.36-1.57-30.76-.15-46.23-1.5-30.96-2.69-57.37-14.77-80.79-34.28-20.46-17.03-34.58-38.37-41.77-64.14,1.73-1.42,2.38.05,2.93,1.22,23.13,48.81,61.46,78.99,114.06,89.34,28.13,5.54,56.43,3.17,82.11-12.23,15.01-8.63,29.6-17.72,41.47-30.69,10.88-11.89,19.39-25.12,25.88-39.84,4.35-9.86,9.5-19.36,14.29-29.02-5.4,37.7-23.82,67.99-52.9,91.99-17.33,14.3-36.96,24.3-59.04,29.16Z" style="fill: #9dd225; stroke-width: 0px;"/>
  <path d="M171.88,727.89c-1.15-.16-2.29-.32-3.44-.47-8.73-1.58-17.53-3.05-21.35-12.81,1.48.58,3.09.95,4.42,1.77,10.63,6.59,21.94,9.8,34.68,9.77,81.58-.23,163.17-.86,244.75.15,216.42,2.66,432.84.48,649.26,1.05,17.61.05,35.24-1.58,52.89-1.21,2.61.06,5.48-.99,7.76,1.27-4.07,1.93-8.41,1.84-12.76,1.84-223.24.12-446.48.26-669.71.38-7.58,0-15.16-.18-22.68,1.01-10.03-.79-19.9,1.49-29.93,1.36-24.71-.32-49.42.03-74.13-.18-45.57.25-91.14-.03-136.71.21-8.06.04-15.2-3.7-23.04-4.13Z" style="fill: #8f95a0; stroke-width: 0px;"/>
  <path d="M1004.3,33.79c-2.51.46-4.02-1.18-5.63-2.65-13.98-12.71-30.76-15.86-48.63-12.87-69.65,11.63-139.24,23.62-208.83,35.57-55.22,9.48-110.41,19.15-165.63,28.62-21.85,3.75-43.75,7.17-66.49,10.88,2.29.87,4,1.51,5.71,2.16-9.29.56-18.6,1.9-27.79-.85,21.27-3.83,42.52-7.73,63.8-11.48,29.8-5.24,59.62-10.39,89.43-15.55,39.4-6.82,78.8-13.58,118.19-20.41,35.41-6.14,70.82-12.35,106.23-18.5,30.08-5.22,60.07-11.16,90.3-15.32,19.68-2.71,36.73,4.31,49.34,20.41Z" style="fill: #a1cce7; stroke-width: 0px;"/>
  <path d="M331.63,729.38c32.94-.05,65.88-.11,98.82-.15,1.85,0,3.84-.35,5.23,1.4-42.55,7.63-85.07,15.39-127.65,22.85-50.87,8.91-101.76,17.69-152.69,26.24-13.59,2.28-27.06,1.72-39.17-6.27-.09-2.84,1.34-2.84,3.33-1.78,4.71,4.21,10.47,4.95,16.44,4.97,4.85,1.22,9.7,1.28,14.55-.04l.12-.06c3-1.92,6.7.51,9.67-1.56l.13-.07c2.99-1.92,6.7.51,9.67-1.57l.12-.07c2.43-1.8,5.63.38,8.04-1.54.59-.03,1.17-.07,1.76-.1,2.43-1.81,5.63.4,8.02-1.54.59-.03,1.17-.06,1.76-.09,2.43-1.8,5.63.4,8.03-1.54l.14-.08c2.43-1.81,5.63.38,8.03-1.55l.13-.07c38.32-6.29,76-15.62,113.89-23.95,1.59-.35,3.13-.85,4.66-1.4q9.13-3.24,6.97-12.05Z" style="fill: #0e5394; stroke-width: 0px;"/>
  <path d="M119.51,771.68c-1.39.07-2.62.44-3.33,1.78-16.53-9.41-26.32-23.29-28.11-42.45.91.95,2.38,1.76,2.63,2.86,3.93,16.96,15.1,28.34,28.81,37.81Z" style="fill: #2274b3; stroke-width: 0px;"/>
  <path d="M1302.86,153.69c-.01-5.16-.03-10.32-.04-15.48,1.9,5.15,1.85,10.32.04,15.48Z" style="fill: #bde179; stroke-width: 0px;"/>
  <path d="M912.62,417.64c38.25-.12,76.49-.3,114.74-.34,21.43-.02,42.87.39,64.3.17,7.23-.08,10.47,2.27,10.28,9.79-.32,12.74-.05,25.5-.11,38.26-.01,2.87.61,6.18-3.2,7.5-49.96.14-99.92.06-149.88.07-46.76.01-93.52.12-140.28-.03-41.56-.13-83.09-2.22-124.65-2.28-3.82,0-7.59-.55-11.24-1.76-5.17-1.71-8.32-5.17-8.67-10.65-.63-10.04-.69-20.12-.02-30.15.48-7.32,2.82-8.75,11.63-8.96,76.1-1.78,152.2-.31,228.3-.83,2.94-.02,5.99.74,8.81-.77Z" style="fill: #7a7b7c; stroke-width: 0px;"/>
  <path d="M657.85,313.05c2.81-3.35,6.7-3.2,10.5-3.2,104.97.01,209.94.02,314.91.1,10.07,0,10.93,1.09,10.94,11.44,0,12.51-.12,25.02.04,37.53.07,5.32-2.03,8.23-7.46,8.52-4.88.26-9.76.84-14.64.84-97.9.09-195.8.1-293.7.16-6.27,0-12.5-.31-18.67-1.49-2.92-1.62-3.99-4.32-4.03-7.43-.18-13.19-.2-26.38-.02-39.57.03-2.5,1.24-4.65,2.12-6.9Z" style="fill: #717272; stroke-width: 0px;"/>
  <path d="M658.02,205.42c3.64-2.97,8-3.08,12.38-3.08,67.7,0,135.41-.02,203.11.06,12.71.02,13.2.7,13.23,13.5.03,11.69-.26,23.39.07,35.07.2,7.13-3.14,9.87-9.73,9.89-2.72,0-5.44.13-8.16.14-64.71.03-129.43.07-194.14,0-5.1,0-10.36.83-15.26-1.51-2.61-1.89-3.72-4.55-3.81-7.66-.39-13.19-.19-26.39.03-39.58.04-2.5,1.16-4.67,2.28-6.83Z" style="fill: #6f7071; stroke-width: 0px;"/>
  <path d="M368.43,582.55c-48.14,0-96.28.06-144.41-.04-13.56-.03-14.68-1.38-14.7-15.09,0-3.81,0-7.62.02-11.42.07-12.44,1.44-14.04,14.11-14.07,70.71-.13,141.42-.14,212.13-.16,27.2,0,54.39.01,81.59.19,11.27.07,12.14,1.12,12.21,12.05.04,6.26-.26,12.52.07,18.76.36,6.8-3.18,9.33-9.26,9.56-4.62.17-9.24.28-13.87.28-45.96.02-91.93.01-137.89.01,0-.03,0-.06,0-.09Z" style="fill: #696a6b; stroke-width: 0px;"/>
  <path d="M370.64,613.35c38.57,0,77.15-.04,115.72.02,10.64.02,11.45.96,11.51,11.8.04,6.52-.16,13.04.04,19.56.17,5.82-2.82,8.54-8.18,9.04-3.78.35-7.6.4-11.39.41-72.8.02-145.6.02-218.4.02-2.72,0-5.43-.16-8.15-.14-7.4.07-10.93-3.01-10.25-10.92.58-6.74.42-13.59.07-20.36-.35-6.81,3.04-9.35,9.24-9.39,8.96-.07,17.93-.15,26.89-.16,30.97-.02,61.94,0,92.9,0v.12Z" style="fill: #676869; stroke-width: 0px;"/>
  <path d="M240.08,192.19c9.76-7.55,21.4-9.25,33.06-9.3,65.25-.25,130.5-.33,195.74-.01,28.6.14,49.88,16.14,57.3,42.91,2.28,8.22,2.67,17.15,2.7,25.76.22,59.54.32,119.08,0,178.61-.1,17.93-1.28,35.99-16.03,49.39-1.13-1.2-1.35-2.64-1.14-4.2,11.88-17.68,10.97-37.54,9.69-57.45-.63-9.79.22-19.55.82-29.27,2.5-40.48.9-80.96.83-121.44-.01-7.22,0-14.49-1.23-20.64.06,50.88.4,102.77-.24,154.66-.16,13.03.85,26.02.25,39.04-.24,5.24-.83,10.32-3.43,14.94-1.49,2.65-3.45,5.62-6.81,4.79-3.83-.94-4.13-4.7-3.96-8.05.26-4.88,1.14-9.7,1.14-14.62-.02-59.81.25-119.62-.22-179.42-.11-13.69,0-27.8-7-40.56-1.71-3.11-4.5-7.4-.03-10.13,4.23-2.58,6.77,1.6,9.36,4.28.69.72,1.03,1.76,2.12,2.24.11-3.39-2.1-5.54-4.07-7.71-10.59-11.68-23.67-17.88-39.58-17.88-22.23,0-44.46.21-66.68-.88-2.68-.13-5.35.93-8.08.91-1.44.2-2.89.2-4.34.07-9.37-1.06-18.95.57-28.09-.57-19.67-2.45-39.2.81-58.87-.19-14.28-.73-29.1-.44-43.58,1.38-5.7.76-10.33,4.93-16.21,5.14-1.38-.15-2.58-.63-3.4-1.82Z" style="fill: #edc775; stroke-width: 0px;"/>
  <path d="M963,613.37c9.77,0,19.55.09,29.32-.03,6.77-.08,10.02,2.99,9.9,9.83-.12,7.33-.12,14.66.03,21.99.11,5.82-2.96,8.71-8.35,8.75-20.63.17-41.26.27-61.89-.03-5.74-.08-9.65-3.23-9.39-9.88.26-6.5.19-13.02.38-19.53.22-7.94,3.89-11.75,12.32-11.27,9.2.51,18.45.12,27.69.12v.04Z" style="fill: #747576; stroke-width: 0px;"/>
  <path d="M1062.55,613.38c9.78,0,19.56.02,29.34,0,6.55-.02,10.16,2.57,9.83,9.75-.33,7.32-.21,14.67-.02,22,.14,5.35-2.27,8.5-7.49,8.56-21.18.22-42.36.33-63.54.12-5.33-.05-8.36-3.59-8.38-9.1-.03-7.59-.14-15.16.66-22.77.65-6.18,3.53-8.64,9.43-8.58,10.05.09,20.1.02,30.16.03Z" style="fill: #777879; stroke-width: 0px;"/>
  <path d="M695.16,613.41c9.77,0,19.53.11,29.3-.04,6.14-.09,8.93,2.49,8.74,8.78-.24,7.86-.26,15.74.08,23.6.23,5.23-2.25,7.96-6.94,8.01-20.88.24-41.77.25-62.65.08-4.61-.04-7.5-2.7-7.45-7.8.08-8.14.05-16.28.06-24.41,0-5.84,3.17-8.25,8.74-8.23,10.04.04,20.07.01,30.11.01Z" style="fill: #68696a; stroke-width: 0px;"/>
  <path d="M794.04,654.14c-9.49,0-18.98.04-28.46-.01-6.8-.04-10.64-2.82-10.22-10.36.39-7.03.22-14.09.1-21.14-.1-5.96,2.43-9.24,8.61-9.24,20.33,0,40.66,0,60.99.03,5.4,0,7.79,2.8,7.72,8.16-.09,7.59-.37,15.21.2,22.76.57,7.49-3.36,9.66-9.67,9.72-9.76.09-19.52.02-29.27.02,0,.02,0,.05,0,.07Z" style="fill: #6e6f72; stroke-width: 0px;"/>
  <path d="M912.62,417.64c-2.73,2.73-6.19,1.51-9.31,1.51-68.79.09-137.58.02-206.37.16-8.36.02-16.72,1.12-25.08,1.55-4.22.21-5.64,2.48-5.63,6.34.04,10.6.01,21.21.03,31.81,0,4.1,2.03,6.64,6.05,7.48,2.9.61,5.82,1.53,8.75,1.61,20.05.58,40.11.79,60.16,1.38,116.28,3.42,232.61,1.49,348.92,2.01,2.85.01,6.04-1.12,8.48,1.5-3.02,1.31-6.13,1.81-9.46,1.81-139.29,0-278.57.08-417.86.12-3.25,0-6.51-.28-9.76-.43-3.74-.72-5.69-3.1-5.75-6.79-.26-14.13-.31-28.27.03-42.4.05-2.19,1.03-4.21,2.54-5.88,2.57-.68,4.92-1.85,7.77-1.85,82.16.08,164.33.06,246.49.06Z" style="fill: #57595e; stroke-width: 0px;"/>
  <path d="M240.08,192.19c1.21.09,2.42.18,3.64.27-.02,3.94-3.35,5.33-5.78,7.32-13.18,10.82-19.82,24.42-19.81,41.74.01,28.77-.59,57.57-.43,86.32.22,38.01.09,76.02.54,114.03.31,26.18,23.17,49.51,49.5,49.87,23.9.33,47.81-.08,71.71.11,42.34.33,84.69-.5,127.03.08,12.44.17,23.62-2.69,33.79-9.72,4.67-.92,7.22-6.39,12.57-5.89,0,1.07,0,2.15-.01,3.22-11.8,13.71-27.41,19.2-44.8,19.27-65.19.28-130.39.2-195.58.11-37.34-.05-60.75-30.43-60.29-61.01,1.01-66.54.12-133.1.52-199.65.12-20.24,10.49-35.34,27.4-46.09Z" style="fill: #d4a169; stroke-width: 0px;"/>
  <path d="M1013.46,99.13c-18.38,50.72-9.71,97.32,21.98,140.05,16.76,22.6,39.4,37.56,65.59,47.35,1.5.56,3.25.58,4.2,2.17-16.05-.6-29.73-7.71-42.83-16.05-38.9-24.76-62.01-60.06-67.75-105.77-2.25-17.96-.68-36.2,3.98-54.04,3.16-12.1,3.24-12.82,14.83-13.72Z" style="fill: #aebebf; stroke-width: 0px;"/>
  <path d="M878.68,643.15c-7.03,0-14.07.19-21.1-.07-5.06-.19-10.16-1.18-9.9-7.95.22-5.79,1.8-10.47,9.19-10.86,14.87-.78,29.71-.88,44.57.14,6.42.44,7.9,4.26,7.96,9.87.06,5.69-2.18,8.73-8,8.75-7.57.02-15.15,0-22.72,0,0,.04,0,.07,0,.11Z" style="fill: #6d6e71; stroke-width: 0px;"/>
  <path d="M1015,94.88c-.42.47-.84.95-1.26,1.42-102.85-.09-205.7-.17-308.55-.32-3.17,0-6.54.98-9.48-1.13,8.95-.12,17.91-.34,26.86-.33,97.48.1,194.96.23,292.44.36Z" style="fill: #aebebf; stroke-width: 0px;"/>
  <path d="M658.02,205.42c-.08,15.43-.14,30.86-.26,46.28-.02,2.76.29,5.39,1.76,7.79-7.4-.5-7.46-7.05-7.58-11.4-.33-11.91.72-23.86,1.2-35.79.13-3.39,2.2-5.34,4.88-6.88Z" style="fill: #acb2bc; stroke-width: 0px;"/>
  <path d="M658.36,419.43c-.16,15.87-.23,31.74-.54,47.6-.07,3.36,1.29,5.58,3.73,7.48-5.94.52-8.42-2.59-8.43-8.15-.02-12.93.05-25.85-.01-38.78-.02-3.95,1.42-6.78,5.26-8.15Z" style="fill: #abb1bc; stroke-width: 0px;"/>
  <path d="M657.85,313.05c-.03,14.87-.05,29.74-.1,44.6-.01,3.26-.06,6.5,2.03,9.29-5.08-.49-6.68-3.75-6.67-8.33.02-12.32.1-24.63-.05-36.95-.05-3.96,1.54-6.66,4.79-8.62Z" style="fill: #acb2bd; stroke-width: 0px;"/>
  <path d="M1116.35,250.58c14.4,2.84,28.14,7.66,43.08,7.23,39.36-1.14,70.05-17.8,92.99-49.62,13.99-19.41,20.4-41.53,20.49-64.73.11-29-10.55-54.93-28.94-77.57-4.26-5.24-7.81-11.04-11.71-16.57-.81-1.15-1.64-2.4-.93-3.73,1.13-2.12,2.79-.73,4.22-.28,14.61,4.71,25.02,15.12,33.67,26.9,34.09,46.41,32.28,110.46-4.18,154.85-26.01,31.67-60.67,46.78-102.06,43.47-17.46-1.4-33.55-7.54-46.64-19.95Z" style="fill: #bde179; stroke-width: 0px;"/>
  <path d="M1217.82,233.22c-37.27,25.59-91.16,22.41-125.48-7.06-24.43-20.97-34.3-48.03-36.38-79.46-2.04-30.94,8.15-56.54,30-77.67,31.13-30.1,77.24-39.23,118.02-19.01,4.62,2.29,9.22,4.64,13.82,6.96,7.17,4.5,13.15,10.37,18.88,16.5,1.73,1.84,4.66,3.45,2.34,6.77-.75.39-1.54.55-2.39.48-4.72-1.39-7.47-5.3-10.65-8.55-15.7-16.06-34.94-24.04-57.08-26.35-18.92-1.97-36.67.79-53.18,10.4-3.21,1.27-4.12,3.76-3.69,6.98-8.19,7.41-17.85,12.86-25.64,20.94-16.21,16.82-24.68,36.46-24.83,59.75-1.56,6.93-1.98,13.79,1.22,20.44,8.4,44.56,46.8,76.03,91.37,74.84,47.55-1.26,85.76-40.54,86.13-87.92.08-9.96-2.22-19.32-3.99-28.88.54-2.3,1.68-3.91,4.33-3.75,6.5,12.26,9.98,25.49,8.04,39.15-5.63,39.54-27.46,66.93-65.56,83.27,35.64-10.53,58.67-32.21,70.62-65.81.99-2.8.46-6.86,4.86-7.59,2.86,3.13,1.71,6.59.75,9.99-5.98,21.18-18.82,37.64-35.64,51.26-1.87,1.51-3.81,3.05-5.9,4.32Z" style="fill: #9bd621; stroke-width: 0px;"/>
  <path d="M1239.04,79.8c-3.15-7.93-10.22-12.35-16.15-17.73-1.79-1.63-3.98-2.79-5.09-5.09,14.41,6.91,24.88,18.48,32.64,31.65,24.27,41.17,22.04,82.01-5.63,120.74-6.89,9.64-15.1,19.19-26.99,23.84,6.6-6.34,13.64-12.28,19.7-19.09,11.72-13.15,20.02-28.09,21.05-46.22-1.97-1.94-1.78-4.39-1.49-6.81,1.64-14.02.86-27.92-1.96-41.72-1.45-11.08-6.26-20.84-11.85-30.31-1.73-2.93-4.48-5.43-4.22-9.27Z" style="fill: #a5d73a; stroke-width: 0px;"/>
  <path d="M147.09,714.61c5.32,7.27,14.27,8.49,21.36,12.81,5.22,6.88,13.42,7.89,20.82,9.79,9.37,2.41,19.07,3.56,28.65,5.07,2.43.38,4.81.48,6.51,2.51-.18,1.69-1.48,2.31-2.73,2.72-26.77,8.78-53.98,16.04-82.2,17.48-20.79,1.06-38.88-14.64-42.64-35.07-9.94-53.87-19.78-107.77-29.7-161.64-9.05-49.1-18.28-98.16-27.19-147.28-7.85-43.28-15.46-86.61-23.01-129.95-3.47-19.93-6.49-39.94-9.76-59.91-3.24-19.79,15.32-44.66,36.14-48.53,24.96-4.64,50.14-7.5,75.39-9.85,2.39-.22,4.73-1.08,7.09-1.64-.02,32.17-.05,64.33-.07,96.5-.7,1.84-.46,3.76-.46,5.65,0,81.52,0,163.05,0,244.57,0,1.89-.22,3.81.43,5.66,0,1.75,0,3.5,0,5.25-.69,3.15-.69,6.3,0,9.45.15,44.22.24,88.44.49,132.66.1,17.78,6.59,32.68,20.9,43.76Z" style="fill: #3b9bd1; stroke-width: 0px;"/>
  <path d="M125.7,523.5c-2.09-2.65-1.16-5.76-1.16-8.65-.06-79.53-.06-159.07,0-238.6,0-2.89-.94-6.01,1.21-8.63.09,19.83.25,39.65.26,59.48.04,62.49.03,124.97.01,187.46,0,2.98-.2,5.96-.31,8.94Z" style="fill: #50b2df; stroke-width: 0px;"/>
  <path d="M125.69,538.19c-1.84-3.15-1.84-6.3,0-9.45,0,3.15,0,6.3,0,9.45Z" style="fill: #50b2df; stroke-width: 0px;"/>
  <path d="M331.63,729.38c.84,1.05,1.53,2.28,2.54,3.13,4.84,4.08,3.23,6.19-1.89,8.34-13.79,5.8-28.48,8.03-42.91,11.11-24.17,5.15-48.49,9.65-72.77,14.27-3.41.65-6.99.39-10.49.55,16.17-5.22,33.12-7.07,49.53-11.3,10.21-2.63,20.6-4.59,30.59-8.08,1.77-.62,4.09-.86,3.81-3.36-.25-2.17-2.53-1.54-3.98-1.93-2.08-.55-4.2-1.25-6.32-1.34-15.7-.64-31.41-.97-47.11-1.74-20.73-1.01-41.53-1.84-60.76-11.14,53.23,2.73,106.51.42,159.76,1.49Z" style="fill: #2274b3; stroke-width: 0px;"/>
  <path d="M150.5,776.62c-4.84,2.55-9.69,2.48-14.55.03,4.85-.01,9.7-.02,14.55-.03Z" style="fill: #2274b3; stroke-width: 0px;"/>
  <path d="M170.09,773.36c-2.84,2.88-6.43,1.16-9.67,1.57,2.85-2.85,6.44-1.1,9.67-1.57Z" style="fill: #2274b3; stroke-width: 0px;"/>
  <path d="M160.29,774.99c-2.85,2.84-6.43,1.17-9.67,1.56,2.85-2.84,6.44-1.1,9.67-1.56Z" style="fill: #2274b3; stroke-width: 0px;"/>
  <path d="M205.99,766.85c-2.26,2.65-5.31,1.27-8.03,1.55,2.27-2.64,5.32-1.22,8.03-1.55Z" style="fill: #2274b3; stroke-width: 0px;"/>
  <path d="M197.82,768.47c-2.27,2.62-5.3,1.28-8.03,1.54,2.27-2.62,5.32-1.22,8.03-1.54Z" style="fill: #2274b3; stroke-width: 0px;"/>
  <path d="M188.04,770.11c-2.27,2.64-5.31,1.26-8.03,1.54,2.27-2.62,5.31-1.23,8.03-1.54Z" style="fill: #2274b3; stroke-width: 0px;"/>
  <path d="M178.25,771.75c-2.28,2.62-5.32,1.27-8.05,1.54,2.28-2.63,5.32-1.23,8.05-1.54Z" style="fill: #2274b3; stroke-width: 0px;"/>
  <path d="M512.85,476.34c-3.75,1.48-5.14,6.53-9.88,6.49-.64-2.95,1.34-4.93,3.53-7.86-17.21,8.12-34.41,10.62-52.26,10.46-31.54-.29-63.08.17-94.61-.16-23.39-.25-46.66,2.49-70.06,1.88-10.89-.28-21.72-1.02-32.51-2.2-20.67-2.27-38.23-21.34-38.64-42.08-1.07-54.6-1.35-109.22-.76-163.83.13-11.66,1.42-23.41.49-35-2.25-28.06,22.61-52.05,51.79-52.41,22.56-.27,45.13-.04,67.7-.08,33.7-.06,67.39.28,101.09-.71,10.3-.3,20.61,1.75,30.92-.41-17.02-.55-34.05-.43-51.08-.44-5.71,0-11.43.26-17.12-.15-2.97-.22-6.83.61-7.72-3.96,27.53,0,55.08-.64,82.58.28,15.73.53,27.87,9.69,37.86,21.52,3.24,3.83,1.66,8.23,1.76,13.27-4.79-2.93-5.82-8.18-9.42-11.17-1.41-1.17-2.64-3.18-4.81-1.71-1.83,1.24-.86,3-.03,4.33,10.34,16.61,9.38,35.27,9.44,53.62.18,54.38.07,108.77.07,163.15,0,8.12.34,16.25-1.5,24.29-.46,1.99-.51,4.86,2.22,5.39,2.02.39,3.19-1.81,4.05-3.49,2.5-4.91,3.55-10.09,3.54-15.68-.09-63.9-.05-127.8-.05-191.71,0-1.36-.15-2.74.03-4.07.37-2.76-1.38-7.53,2.29-7.6,3.83-.08,2.27,4.68,2.48,7.41,3.23,42.76,1.29,85.59,1.5,128.39.06,12.64-2.69,25.29-2.65,37.93.03,9.68.95,19.41,1.32,29.14.52,13.87-2.86,26.27-11.54,37.15Z" style="fill: #ebbd44; stroke-width: 0px;"/>
  <path d="M393.73,185.88c2.42,2.66,5.61,1.56,8.47,1.57,22.84.1,45.68.03,68.53.17,2.47.01,6.51-1.5,7.08,1.88.74,4.37-3.87,2.18-5.97,3.21-3.3,1.62-6.89,1.4-10.41,1.29-16.6-.49-33.19-.31-49.79-.15-47.31.46-94.63-.2-141.94.34-21.31.24-37.19,10.57-46.15,30.35-1.43,3.15-2.58,6.7-2.72,10.12-2.16,53.22-2.27,106.47-1.34,159.7.29,16.49.8,33.02,1.23,49.54.48,18.5,19.12,37.43,37.46,39.09,17.61,1.59,35.25,2.23,52.83,1.34,52.14-2.62,104.31-.46,156.44-1.74,14.49-.35,29.13-3.2,41.28-12.65,1.03-.8,2.23-2,3.44-.47.97,1.22.45,2.63-.49,3.7-2.86,3.26-5.79,6.45-8.7,9.67-9.5,8.06-20.44,11.63-32.93,11.57-33.69-.17-67.37.03-101.06.03-33.59,0-67.19.02-100.78-.13-28.11-.13-52.2-24.48-52.28-52.72-.09-33.42-.08-66.83-.08-100.25,0-33.32.26-66.64-.02-99.95-.16-19.82,7.84-34.95,24.05-46.02,1.32-.9,2.56-1.93,3.84-2.9,5.19-.69,9.01-5.38,14.56-5,1.21-.77,2.56-.74,3.91-.74,23.72.01,47.46.47,71.16-.25,19.04-.58,38.09,1.54,57.1-.59,1.1,0,2.19,0,3.29,0Z" style="fill: #e3a711; stroke-width: 0px;"/>
  <path d="M390.44,185.88c-1.86,2.28-4.46,1.59-6.82,1.59-41.78.02-83.56,0-125.34-.01,2.45-2.54,5.62-1.54,8.48-1.57,22.57-.18,45.15.22,67.7-.47,18.69-.58,37.33-.07,55.99.46Z" style="fill: #ebbd44; stroke-width: 0px;"/>
  <path d="M1059.53,143.36c.44-35.54,18.71-60.21,47.72-78.36,1.59-.99,3.15-2.02,4.73-3.03,1.8-3.35,5.54-3.57,8.4-5.22,38.69-14.16,81.69-.21,104.29,29.15,2.31,3.01,4.76,6.04,4.11,10.25-.58,1.98-2.3,2.73-3.6,1.5-4.56-4.34-9.19-2.39-13.92-.7-6.97-1.34-11.9,2.59-16.71,6.59-20.16,16.75-39.85,34.08-61.15,49.41-2.17,1.56-3.93,3.76-6.71,4.41-7.3-1.79-9.34-9.26-14.43-13.47-2.25-1.86-3.92-4.48-5.62-6.88-5.02-7.1-10.83-10.85-19.37-5.69-8.1-.73-13.44,4.32-18.93,9.05-2.53,2.18-4.66,5.55-8.8,2.99Z" style="fill: #b8e06d; stroke-width: 0px;"/>
  <path d="M1237.2,122.1c10.73,28.68,6.17,55.75-10.98,80.13-19.1,27.16-46.45,39.64-79.62,39.06-40.58-.72-82.55-38.42-85.47-76.63,5.08-3.19,7.27,1.02,9.89,3.92,11.44,12.66,22.25,25.9,34.19,38.1,2.99,3.06,6.01,6.36,12.32,5.98-6.43-8.1-12.35-15.5-18.46-22.79-9.23-11-18.77-21.77-27.44-33.21-2.53-3.34-7.36-7.55-.73-11.9,15.99,20.9,33.57,40.5,50.24,60.84,4.16,5.07,7.7,4.63,12.28.7,31.32-26.83,63.16-53.05,94.61-79.74,2.62-2.22,5.13-5,9.16-4.47Z" style="fill: #b8df6b; stroke-width: 0px;"/>
  <path d="M1237.2,122.1c-20.43,16.98-40.89,33.91-61.28,50.94-14.57,12.17-29.04,24.47-43.54,36.73-4.13,3.49-7.87,3.02-11.27-1.05-15.83-18.93-31.61-37.89-47.52-56.76-1.71-2.02-2.55-4.07-2.53-6.61,3.47-7.18,8.63-12.48,16.47-14.8,10.34-6.48,9.57-7.92,17.99,2.4,6.61,8.09,13.73,15.76,20.62,23.62,4.72,2.57,8.44,1.24,12.47-2.13,21.66-18.13,43.37-36.18,65.04-54.29,2.25-1.88,4.02-4.56,7.49-4.3,6.21-5.75,11.43-3.5,16.25,2.01,7.25,3.06,10.45,9.73,14.06,15.96.95,1.64.78,3.71-1.08,5.09-1.06,1.06-2.12,2.12-3.18,3.18Z" style="fill: #eaede9; stroke-width: 0px;"/>
  <path d="M1240.38,118.91c.03-9.7-8.98-13.83-12.98-21.05-.56-9.32-7.05-15.03-13.28-20.45-27.74-24.12-59.4-29.48-94.18-18.79-2.9.32-7.17,3.42-6.61-3.26,15.79-10.08,33.02-13.09,51.61-12.09,29.09,1.57,52.13,14.33,71.03,35.73.34.38.92.56,1.38.83,9.6,10.91,14.69,24.17,19.59,37.53,4.35,16.72,4.31,33.59,1.65,50.54-4.95,14-10.26,27.77-19.7,39.58-14.04,17.55-32.14,28.78-53.47,35.12-2.22.66-4.73.97-7.03-.31-.03-2.27,1.87-2.62,3.25-3.15,37.17-14.35,58.29-41.64,65.13-80.51,1.9-10.81-1.97-20.83-4.16-31.08-.62-2.91-1.48-5.76-2.23-8.64Z" style="fill: #78c410; stroke-width: 0px;"/>
  <path d="M1087.53,130.55c-5.49,4.93-10.98,9.87-16.47,14.8-4.4,4.99.56,8.16,2.83,11.01,11.11,13.93,22.66,27.49,34.09,41.16,3.46,4.14,7.04,8.18,10.53,12.3,1,1.18,2.85,2.23,2.09,4.02-.96,2.25-3.29,1.36-5.04,1.35-4.07-.03-7.06-2.32-9.8-5.07-12.96-13-24.68-27.12-36.61-41.04-2.26-2.64-4.32-4.8-8.03-4.43-5.11-6.75-2.93-14.05-1.6-21.29,7.07-.5,8.89-8.46,14.86-10.48,4.25-1.44,7.83-6.83,13.14-2.33Z" style="fill: #8fce28; stroke-width: 0px;"/>
  <path d="M1256.93,117.37c-6.14-12.71-12.16-25.49-19.59-37.53.57-.01,1.13-.02,1.7-.04,9.1,11.03,15.05,23.56,17.89,37.57Z" style="fill: #8fce28; stroke-width: 0px;"/>
  <path d="M1113.32,55.36c.61,4.33,4.07,2.87,6.61,3.26-2.21,2.18-5.18,2.52-7.96,3.35-4.16-2.22-4.08-2.61,1.34-6.61Z" style="fill: #8fce28; stroke-width: 0px;"/>
  <path d="M81.63,595.45c-6.8-12.77-9.34-26.77-12.25-40.59-7.34-34.87-14.62-69.76-21.26-104.77-7.04-37.12-13.34-74.37-19.92-111.58-5.92-33.48-11.74-66.98-17.7-100.45-4.2-23.57,8.47-43.33,31.56-49.46,14.02-3.72,28.25-4.54,42.64-4.4,6.8.07,8.75,3.49,8.79,9.8.18,24.83-.18,49.66.61,74.51.28,8.81.15,18.11-.05,27.1-.23,9.99,1.18,20.36.76,30.37-1.25,30.25-.43,60.52-1.64,90.73-.9,22.7-2.18,45.41-3.33,68.1-1.01,19.98-2.46,39.93-3.17,59.96-.59,16.93-3.29,33.79-5.05,50.68Z" style="fill: #50b2df; stroke-width: 0px;"/>
  <path d="M368.22,454.88c-27.98.51-55.94.39-83.77-3.04-1.08-.13-2.18-.14-3.24-.34-14.88-2.79-16.62-5.49-13.04-20.25,10.73-44.27,50.41-75.75,95.96-77.68,49-2.07,94.08,30.79,105.47,80.39,2.49,10.85.98,13.75-9.65,16.28-14.86,3.54-30.13,3.78-45.26,4.49-15.46.72-30.98.16-46.47.16Z" style="fill: #e3e3e3; stroke-width: 0px;"/>
  <path d="M368.87,331.4c-29.19,0-51.82-22.36-51.88-51.15-.06-27.9,21.75-50.89,51.07-51.47,29.13-.57,52,23.04,51.98,52.14-.02,29.04-21.73,50.46-51.16,50.47Z" style="fill: #e3e3e4; stroke-width: 0px;"/>
  <path d="M1211.14,95.85c-24.84,20.96-49.74,41.87-74.49,62.94-4.85,4.13-7.72,1.88-10.5-2.23,16.68-13.73,34.3-26.27,50.51-40.6,7.28-6.43,14.96-12.42,22.68-18.33,3.42-2.62,7.31-5,11.81-1.78Z" style="fill: #8cc649; stroke-width: 0px;"/>
</svg>