<?xml version="1.0" encoding="UTF-8"?>
<svg id="Layer_1" data-name="Layer 1" xmlns="http://www.w3.org/2000/svg" viewBox="0 0 1152.73 1149.91">
  <path d="M1045.54,242.25c9.87,14.55,20.87,28.38,28.11,44.58-1.91,2.43-.07,4.54.66,6.69.84,2.49,2.23,4.77,3.22,7.2.79,1.92,2.5,4.44.37,5.88-2.44,1.64-4.29-.97-5.89-2.6-2.54-2.57-4.41-5.66-6.11-8.82-1.93-3.58-3.94-7.1-6.53-10.4,4.99,9.44,5.84,20.1,9.24,30.02,1.84,5.35,2.87,10.71-2.14,15.24-2.56,2.31-.19,6.21-2.48,8.71-4.73.7-5.73-3.31-6.52-6.16-3.69-13.3-12.76-24.19-16.47-37.45-.72-2.57-2.71-4.5-4.63-6.34-7.48-7.17-13-15.89-17.82-21.95,17.31,22.07,30.21,49.41,41.9,77.42.82,1.97,1.94,3.95.55,6.13-4.02.29-3.54,2.49-2.53,5.35,3.69,10.46,3.03,20.46-2.18,30.53-3.62,6.99-8.75,11.82-15.36,15.56-3.41,1.93-5.86.59-8.3-1.8-2.05-2.01-2.67-5.05-5.38-7.1-4.6,11.91-13.7,21.33-16.3,34.15-1.15,5.66-6.65,8.32-11.68,9.78-18.14,5.24-34.08,15.27-51.18,22.73-18.71,8.16-35.99,19.13-54.84,26.98-5.54,2.3-10.94,4.88-16.78,6.37-2.83.47-5.96.43-7.87,2.96-4.03,5.36-8.86,4.54-14.15,2.39-9.36-3.8-9.39-3.73-14.64,4.39-4.02,6.21-15.5,8.38-21.9,3.64-12.58-9.33-21.15-22.08-28.61-35.54-2.54-4.57-3.07-9.66,1.51-13.85,3.5-3.2,2.7-6.21-.47-9.16-1.94-1.81-3.98-3.46-6.16-4.95-4.31-2.95-8.84-5.71-3.74-11.81,1.59-1.9.1-3.75-1.79-4.63-18.85-8.81-29.27-25.65-40.1-42.07-6.99-10.61-13.46-21.58-21.78-31.27-.94-1.09-1.96-2.22-2.39-3.57-3.26-10.19-10.3-18.39-14.74-27.85-5.28-11.25-10.8-22.36-16.42-33.44-2.83-5.58-6.06-10.6-10.43-15.29-6.94-7.45-8.25-17.24-6.34-26.97,2.18-11.08,2.49-22.33,4.03-33.45.87-6.27,2.97-12.09,4.84-18.02,1.02-3.24,2.25-6.41.1-9.65-.95-4.67,3.51-5.83,5.55-8.58,11.65-9.68,24.43-17.28,39.23-21.12,29.85-8.55,59.37-7.7,88.53,3.1,21.39,8.29,39.63,20.74,52.58,40.11,9.26,14.04,16.9,28.9,22.12,44.91,1.63,4.99,3.49,5.79,7.1,1.73,7.22-8.11,16.2-14.12,24.87-20.51,12.37-7.31,24.52-14.9,39.1-17.44,16.06-2.8,31.43-.03,46.7,4.45,17.24,6.7,31.75,17.35,44.3,30.81Z" style="fill: #f6292f; stroke-width: 0px;"/>
  <path d="M1069.6,869.26c-6.73,13.98-15.68,26.57-24.55,39.2-16.52,23.52-34.68,45.68-55.3,65.76-22.14,19.45-43.84,39.39-67.4,57.18-46.09,34.8-96,62.2-150.55,81.58-31.11,11.05-62.7,19.74-95.17,24.99-17.46,2.82-35.06,5.13-52.89,5.63-9.5.27-19.16.56-28.64,2.2-10.11,1.75-20.06-1.02-30.13-1.14-59.56-.68-117.24-11.7-173.17-32.13-23.68-8.65-47.24-17.54-69.66-29.2-40.42-21.03-78.18-45.87-111.04-77.7-2.42-2.34-5.34-4.11-7.56-6.65-1.09-1.24-2.49-2.74-1.33-4.43.94-1.37,2.56-.44,3.96-.24,8.88,1.25,16.03,5.64,22.28,11.86,18.63,18.55,41.11,31.87,62.84,46.24-27.59-20.29-54.28-41.63-78.32-66.1-8.02-7.97-17.05-14.96-23.79-24.2-4.54-7.95-12.25-13.24-17.37-20.7-.43-.48-.81-1-1.17-1.54-1.18-2.31-3.05-3.97-5.19-5.37-13.55-13.84-23.3-30.37-33.16-46.82-1.31-2.19-2.88-4.58-1.2-7.37,4.11-1.64,5.83,1.63,8.04,3.9,7.76,12.37,15.33,24.89,25.69,35.37,1.35,1.36,2.53,3.19,4.3,3.77,9.88,3.25,16.72,10.07,24.02,17.26,7.84,7.71,15.22,15.86,22.25,24.13,10.64,12.53,22.76,23.38,35.03,34.04,10.47,9.08,21.31,17.81,32.27,26.34-1.82-1.53-3.97-2.66-5.52-4.49-1.76-2.08-5.35-3.89-3.26-7.08,2.05-3.13,5.15-.94,7.78.05,11.66,5.86,22.21,13.84,34.68,18.19,2.93,1.02,5.41,2.96,7.76,5.01,7.42,6.23,15.77,10.9,24.54,14.89,1.75.8,3.69,1.32,5.11,2.61,13.11,11.94,31.13,13.07,46.09,20.96,2.9,1.53,6.53.94,10.01,1.06-8.45-4.56-14.69-11.97-23.61-16.08-12.61-5.81-23.65-14.57-35.64-21.61-.41-.24-.82-.52-1.16-.85-1.68-1.59-4.61-3.09-3.03-5.7,1.3-2.15,3.96-.56,5.93.12,10.29,3.59,19.16,9.94,28.61,15.11,27.85,15.24,56.74,28.68,86.16,39.95,32.27,12.36,65.83,21.11,101.36,22.66,45.11,1.97,88.58-3.53,130.98-18.1,15.38-5.29,29.83-13.25,45.91-16.7.46-.1,1.01-.25,1.31-.58,9.96-10.92,24.02-13.41,37.03-18.03.9-.32,1.82-.7,2.57-1.28,22.38-17.31,49.17-27.27,72.29-43.41,18.1-12.64,36.26-25.11,53.55-38.9,19.54-15.59,37.57-32.68,54.78-50.74,10.95-11.48,19.86-24.68,30.87-36.09,2.4-2.48,4.35-7.03,8.43-5.19,4.23,1.91,1.8,6.43,1.45,9.79-.64,5.95-3.01,11.61-3.4,18.84,5.79-5.06,7.58-12.38,13.48-16.01,6.98-7.01,12.34-15.28,17.96-23.31,15.26-21.81,27.6-45.49,42.35-67.53,11.15-16.66,17.43-35.46,27.66-52.34,2.14-3.53,2.63-7.7,3.91-11.56.99-2.98,2.74-5.13,6.21-4.92,3.34.2,4.15,2.84,4.84,5.45,1.7,6.4-.56,12.33-2.29,18.29-11.42,39.33-28.11,76.36-48.75,111.67Z" style="fill: #f78a01; stroke-width: 0px;"/>
  <path d="M190.34,961.29c6.93,8.45,15.18,15.57,23.05,23.09,2.18,4.43-.17,5.24-3.78,4.36-4.7-1.14-9.05-3.38-13-6.04-7.73-5.23-15.65-10.16-23.44-15.29-11.16-7.35-18.46-18.73-27.68-28.1-6.19-6.29-12.15-12.9-17.31-18.26,20.67,29.05,46.12,55.78,73.15,80.88,28.19,26.17,59.6,48.19,92.77,67.73,11.58,6.82,23.48,13,35.09,19.73,2.42,1.4,6.33,1.93,5.13,6.38-26.1-11.02-50.39-25.41-73.99-40.9-40.04-26.28-76.04-57.41-108.5-92.6-29.17-31.63-54.35-66.21-75.54-103.66-6.06-10.72-13.13-20.93-17.05-32.77,4.24-4.02,5.86.31,7.38,2.72,5.62,8.91,11.01,17.97,16.56,26.94,6.67,10.78,14.12,21.02,20.48,30.14-7.39-13.47-16.61-27.68-21.81-43.93-.22-.68-.51-1.35-.63-2.06-.33-1.93-.65-4.19,1.45-5.07,1.74-.73,3.09.94,4.07,2.29,3.25,4.46,5.95,9.27,8.6,14.1,1.85,3.37,3.74,6.7,6.35,9.55,1.11,1.21,2.4,2.76,4.25,1.71,1.49-.85.78-2.56.73-3.96-.4-10.67-5.97-19.56-10.11-28.92-1.16-2.63-2.43-5.18-3.24-7.95-4.73-8.27-8.35-16.95-9.98-26.38-.21-7.53-2.06-14.99.89-22.58,1.66-4.27-.92-8.9-1.43-13.39,1.09-3.54-1.25-7.21.38-10.73,4.67-1.1,4.65,3.12,5.84,5.52,3.94,7.96,5.59,16.85,9.76,24.74,9.98,18.89,22.28,36.28,34.88,53.45,1.8,2.45,3.9,4.67,5.42,7.33-2.57-5.69-4.57-11.61-8.1-16.79-1.63-2.39-3.36-5.14-1.37-7.95,2.09-2.96,5.19-.95,7.66-.71-4.03-10.75-5.27-22.35-10.09-32.85-.98-2.14-.74-4.73.74-6.9,3.38-1.21,3.97,2.01,5.63,3.53,1.83,2.95,3.85,5.79,5.08,9.08,5.54,14.24,15.12,24.78,28.82,31.21-.95-1.52-1.56-3.44-.83-5.42,3.46-9.47.74-18.53-2.14-27.4-3.48-10.71-7.61-21.2-12.22-31.49-1.58-3.53-3.53-6.83-6.93-8.98-.83-.72-1.48-1.57-1.86-2.62-.23-1.12-.07-2.16.66-3.08,3.78-2.13,8.36-2.15,10.51,1.08,5.29,7.92,14.34,10.79,20.78,17.01,4.99,4.83,10.05,9.47,16.63,12.24,4.41,1.86,8.62,3.87,13.49,4.56,6.81.96,9.43,4.88,7.56,11.49-1.03,3.66,1.02,4.21,3.27,4.97,4.29,1.46,8.78,2.36,12.91,4.33,5.66,5.63,8.48,13.15,13.04,19.53,6.09,8.53,11.51,17.53,17.83,25.91,1.62,2.15,4.22,4.22,2.43,7.57-.9.4-1.83.4-2.81.3-1.56-.15-3.42-1.49-4.59.45-1.08,1.79-.83,3.94.55,5.39,9.28,9.77,6.02,21.3,4.65,32.54-.23,1.87-1.77,4.19-.46,5.52,6.38,6.48,5.36,17.51,14.2,22.53,2.84,1.61,4.87,4.58,7.27,6.93,1.86,1.82,2.94,4.11.63,6.27-3.89,3.65-1.37,6.29,1.03,9.18,5.67,6.81,13.33,11.07,20.78,15.27,12.7,7.17,24.8,15.36,37.66,22.24,18.23,9.75,38.41,15.13,56.81,24.26,15.17,7.52,31.99,9.76,47,17.45,7.19,3.69,15.56,5.38,22.83-1.25.51-.46,1.29-.63,1.99-.81,14.42-3.86,27.26-10.33,36.94-22.13,8.98-1.11,17.64,1.53,26.42,2.41,49.3,4.95,97.7.63,145.37-12.8,13.43-3.78,26.55-8.4,39.57-13.36,2.68-1.02,5.31-2.32,8.32-1.84,3.52,3.23-.12,5.04-1.66,6.87-5.19,6.16-12.83,9.16-18.9,14.27-20.71,17.44-45.24,28.27-70.39,36.74-29.79,10.03-60.7,16.24-92.27,18.27-5.35.34-10.52-.72-15.75-1.33-14.88-1.74-30.05.52-44.81-4.31-5.56-1.82-11.66-.54-17.03,4.67-4.72,4.58-12.64,4.51-19.1,4.32-37.92-1.14-73.97-10.11-108.71-25.56-32.62-14.5-59.59-36.42-85.16-60.57-6.64-6.27-13.59-12.22-21.13-17.35-23.45-15.96-45.35-33.48-63.87-55.32-16.89-19.91-35.24-38.58-50.66-59.75-3.61-6.84-9.23-12.18-13.98-18.15-4.24-5.32-8.96-10.3-13.98-16.62,2.74,8.49,6.31,15.26,9.89,22.01,1.09,2.55,1.8,5.2,2.22,7.94,1.2,6.45,4.8,11.79,8.05,17.28,6.17,12.44,11.67,25.25,20.47,36.22,1.04,1.29,1.57,2.97,1.31,4.75,5.74,13.95,14.61,26.02,23.24,38.19,3.81,5.37,8.5,10.12,12.8,15.15,1.29,2.03,2.97,3.75,4.32,5.73l.02.02c4.87,8.39,12.19,14.65,18.71,21.61Z" style="fill: #fea226; stroke-width: 0px;"/>
  <path d="M1069.6,869.26c3.29-10.59,9.72-19.65,14.61-29.45,9.27-18.6,18.04-37.36,23.96-57.33,3.53-11.9,8.75-23.29,10.87-35.62.24-1.4,1.08-3.15.54-4.13-1.39-2.49.4-7.04-3.99-7.47-4.64-.46-4.39,3.75-4.84,6.56-1.25,7.79-6.14,13.93-9.19,20.88-4.16,9.51-9.94,18.26-12.38,28.61-1.22,5.17-7.19,7.02-10.14,11.66-6.92,10.9-11.85,22.82-19.04,33.59-12.57,18.86-24.55,38.11-38.44,56.06-.71.91-1.73,1.58-2.6,2.37-2.21-5,1.5-8.16,3.93-11.41,11.47-15.35,22.49-30.96,31.33-48.03,1.67-3.22,3.26-6.36,3.98-9.92,3.94-12.72,11.51-23.7,17.06-35.66,13.86-29.91,23.87-61.11,34.03-92.36,8.26-25.42,10.86-51.63,12.35-77.86.85-14.91-.63-30.14-1.57-45.2-1.5-23.92-3.35-47.8-6.48-71.57-.41-3.08,0-6.22.42-9.33,1.41-10.27,1.39-20.5-.52-30.75-3.17-16.94-5.07-34.05-6.34-51.22-3.65-14.14-9.4-27.48-15.58-40.66,1.64-9.01,1.1-18.26,2.91-27.26,2.01-2.17,2.83-.25,3.61,1.16,11.05,19.94,19.65,40.89,26.69,62.58,5.46,16.82,9.61,34,15.15,50.78,4.79,19.98,7.91,40.26,9.91,60.67,2.89,29.53,3.87,59.16,1.82,88.81-.44,6.43-1.18,12.83-1.78,19.25-1.17,2.88.22,6.03-.96,8.91-1.93,13.71-3.42,27.49-5.87,41.1-5.36,29.71-12.83,58.92-23.09,87.35-12.76,35.35-28.02,69.56-47.66,101.69-.71,1.17-1.78,2.12-2.68,3.18Z" style="fill: #f19f08; stroke-width: 0px;"/>
  <path d="M1095.66,343.11c-.15,9.67,0,19.37-2.85,28.78,1.27,8.51-3.75,15.17-7.07,22.11-7.27,15.2-16.76,29.06-27.8,41.82-10.5,12.92-22.02,24.9-33.9,36.54-11.44,9.49-22.35,19.61-34.28,28.52-2.06,1.54-4.02,4.66-7.2,1.57.82-4.55,4.42-7.3,7.03-10.65,4.2-5.38,4.25-5.13-2.09-8.21-10.45-5.09-20.55-3.26-30.51,1.25-3.71,1.68-7.24,3.73-11,5.35-4.51,1.94-8.84,1.95-13.86,1.47-7.9-.77-16.26-1.91-24,1.54-8.38,3.74-17,4.72-25.97,2.96-2.76-.54-5.98-.46-5.84-4.63,16.26-6.45,31.99-13.94,47.48-22.13,19.28-10.2,39.1-19.42,58.82-28.76,6.67-3.16,14.33-3.74,20.86-7.59,3.09-1.82,5.82-3.94,6.37-7.36,1.52-9.5,6.39-17.22,11.82-24.81,1.92-2.69,3.38-5.81,3.17-9.39-.07-1.26.56-2.57,1.83-2.77,1.34-.22,1.98,1.06,2.5,2.17.21.43.43.86.66,1.28,6.09,10.85,12.99,11.04,20.57.35,8.2-11.55,11.57-23.98,5.94-37.77-.72-1.77-1.22-3.63-1.74-5.47-.11-.39.14-.87.29-1.7,2.03.93,3.96,1.82,5.88,2.7,6.34,4.41,6.92,12.18,10.48,18.21,2.76,4.67,4.21,10.06,6.18,13.93-5.4-11.89-8.25-25.91-14.01-38.87-.66-1.49-1.23-3.17.15-4.69.37-4.39-1.57-8.98,3.73-12.52,3.12-2.09,1.15-7.02-.06-10.09-4-10.22-4.29-21.64-10.19-31.23-.86-1.4-1.32-3.61.47-4.47,2.05-.98,2.63,1.3,3.53,2.64,5.15,7.66,7.96,16.95,16.63,22.48-2.19-4.94-4.03-10.09-6.69-14.77-2.23-3.91-.17-3.95,2.62-4.04,7.7,10.79,12.76,23,18.71,34.73,2.01,4.55,3.55,9.29,4.69,14.11.6,2.52.54,5.24-1.39,7.44Z" style="fill: #dd2127; stroke-width: 0px;"/>
  <path d="M1045.54,242.25c-2.45,0-3.92-1.95-5.34-3.32-11.3-10.91-24.27-19.24-38.52-25.68-3.28-2.02-5.83-4.79-8.48-7.57-4.54-4.76-8.44-9.74-15.44-12.45-8.56-3.31-14.28-11.72-21.05-18.08-7.66-7.21-16.23-13.3-23.92-20.4-15.18-14.02-34.87-21.77-49.78-36.12-1.71-1.65-3.72-3-5.15-4.94-6.14-6.78-13.78-11.21-22.31-14.26-2-.8-3.8-1.89-5.31-3.43-13.24-9.78-28.54-15.49-43.51-21.73-16.35-6.81-32.58-13.9-48.91-20.74-.66-.28-1.31-.62-1.9-1.02-1.73-1.17-4.38-2.16-3.26-4.75.92-2.13,3.34-1.11,5.2-.88.94.12,1.91.04,2.79.5,7.52,2.72,15.26,4.83,22.84,7.38-7.69-2.65-15.55-4.78-23.2-7.59-20.77-3.96-40.7-11.01-61.06-16.47-23.95-6.42-47.95-11.55-72.78-12.86-18.65-.99-37.27-2.77-55.97-2.69-41.19.18-81.77,4.79-121.58,15.81-8.21,2.27-16.4,5.54-25.24,4.81-3.48-4.26,1.04-5.25,3.1-6.24,6.99-3.36,14-6.8,21.63-8.61,2.96.18,5.31-1.23,7.54-2.96,13.98-3.64,28.02-6.94,42.52-7.72,9.14.77,18.09-1.21,27.04-2.33,15.25-1.91,30.52-2.31,45.85-2.75,44.88-1.29,89.18,3.76,132.83,13.29,56.75,12.4,110.87,32.17,161.26,61.71,20.49,12.01,40.21,25.08,59.64,38.66,1.39.98,3.05,1.32,4.33,2.42,36.19,27.45,68.16,59.22,96.59,94.58,6.86,8.54,13.99,16.91,19.55,26.43Z" style="fill: #fdc258; stroke-width: 0px;"/>
  <path d="M334.32,1095.75c-4.59-6.29-12.1-8.21-18.41-11.68-34.83-19.17-67.9-40.78-98.67-66.07-19.88-16.34-37.76-34.67-55.42-53.18-14.24-14.93-27.11-31.21-39.25-48.18,3.05-1.89,4.02.45,5.19,1.6,12.29,12.07,23.9,24.78,35.14,37.84,3.29,3.81,6.84,7.49,11.29,9.9,11.34,6.13,20.83,15.3,32.93,20.08,1.79.71,6,5.33,6.27-1.67,9.28,6.86,16.69,15.75,25.19,23.46,16.86,15.32,35.34,28.45,53.3,42.27,1.97,1.52,3.95,2.7,4.13,5.44-1.4,1.34-2.77.55-3.91-.22-10.1-6.81-20.32-13.45-30.45-20.21-16-10.67-29.83-23.77-44.58-35.85-3.44-2.81-9.9-.44-14.13-4.17,11.49,10.45,22.17,21.47,34.2,31.17,30.35,24.46,63.16,44.96,98.35,61.44,32.08,15.03,65.24,27.45,99.62,36.45,21.46,5.62,42.93,11.13,64.95,14.04,11.1,1.47,22.39,1.63,33.43,3.36,15.92,2.5,31.97.51,47.95,2.4,10.3,1.21,21.14.39,31.42-1.39,9.99-1.72,20-1.26,29.96-2.18,30.77-2.87,60.93-8.48,90.55-16.94,37.34-10.67,73.19-24.98,107.88-42.68,37.11-18.93,70.46-43.12,102.92-68.75,12.92-10.2,24.88-21.63,37.19-32.6,2.54-2.26,4.92-4.57,8.41-5.19-22.04,23.87-46.8,44.59-72.85,63.92-59.99,44.51-126.47,75.44-198.6,94.04-59.63,15.37-120.47,20.65-181.83,16.22-69.78-5.03-136.77-21.94-200.35-51.55-.64-.3-1.21-.74-1.81-1.11Z" style="fill: #fe8c14; stroke-width: 0px;"/>
  <path d="M95.23,821.5c2.57,6.04,4.66,12.35,7.84,18.05,3.59,6.43,4.66,13.3,5.71,20.32.28,1.88,1.55,3.65-1.13,4.76-2.19.91-3.89.76-5.76-1.07-5.78-5.66-8.34-13.33-12.78-19.81-1.86-2.71-3.51-5.57-6.03-7.98,3.83,20.3,15.99,36.9,26.15,56.55-8.42-5.03-11.29-12.08-15.45-17.84-10.35-14.32-19.31-29.57-28.35-44.74-1.38-2.31-2.09-5.83-6.19-3.92-10.75-19.2-18.51-39.7-25.77-60.37-3.84-10.93-8.63-21.62-10.35-33.23,3.6-3.18,3.8,1.07,4.3,2.41,2.56,6.92,5.57,13.7,7.47,20.84,2.4,9.03,6.2,17.49,10.09,25.92,2.96,7.57,5.66,15.25,8.35,20.4-7.66-21.89-9.87-47.18-14.14-72.15-4.37-25.52-7.04-51.24-11.45-76.73-2.85-16.48-4.61-33.19-2.36-49.99.33-2.45-.07-5.5,3.29-6.52,3.34,3.65,3.55,8.37,3.54,12.78-.04,25.97,5.2,51.3,8.73,76.87,8.05-2.27,18.26,1.99,21.93,9.2,9.68,19.05,16.93,38.95,20.84,60,.17.94.3,1.89,0,2.83,2.93,7,4.38,13.69.67,21.29-2.38,4.89,1.93,10.66.78,16.19-2.74.41-3.02-1.92-3.72-3.54-4.26-9.92-8.73-19.76-11.2-30.35-1.39-5.96-4.55-11.36-8.13-15.94-6.96-8.9-9.37-19.58-13.23-28.36,2.7,22.19,16.03,41.62,24.34,62.98,5.66,14.54,12.7,28.48,22.01,41.14Z" style="fill: #feb142; stroke-width: 0px;"/>
  <path d="M43.35,781.14c-4.62-7.57-7.49-15.86-10.11-24.28-2.48-7.96-5.41-15.78-8.19-23.65-.28-.8-.59-2.03-1.93-.99-5.55-15.18-8.97-30.92-11.95-46.75-3.73-19.83-7.19-39.72-8.21-59.93,1.07-11.48-.5-22.91-.71-34.37-.63-35.99,1.62-71.8,6.7-107.39,4.1-28.66,11.4-56.63,20.81-84.05,4.11-12,7.41-24.29,13.27-35.62,1.69-3.27,2.41-7.52,7.02-8.44,3.44,2.64,2.33,6.86,3.56,10.27.27,1.66.31,3.33.12,5.01-8.14,22.83-16.09,45.7-21.83,69.32-5.69,23.37-9.25,47.05-12.61,70.83-3.24,22.89-3.94,45.85-4.78,68.86-1.74,19.61-1.24,39.18.11,58.79.67,9.71,2.53,19.31,2.17,27.41.57,2.6,1.92,1.77.99,2.02-.29.08-.49-.04-.51-.36-1.21-14.7-3.09-29.37-3.3-44.12-.07-4.96-2.08-9.96-.07-14.93,5.13-.99,4.71,3.25,5.42,6.04,2.6,10.31,1.54,20.97,2.53,31.45.96,10.13,4.25,19.64,5.93,29.54,3.13,18.4,6.27,36.78,10.61,54.98,2.8,11.76,5.62,23.7,6.78,35.82.47,4.85,1.66,10.06-1.81,14.54Z" style="fill: #fec669; stroke-width: 0px;"/>
  <path d="M929.41,121.24c-9.43-2.64-16.69-9.21-24.49-14.46-31.67-21.35-64.82-39.76-100.07-54.54-31.19-13.08-63.33-23.09-96.19-30.8-24.14-5.66-48.78-8.34-73.35-11.55-26.54-3.47-53.06-2.45-79.6-2.48-17.17-.02-34.15,3.05-51.19,4.98-2.15.24-4.2,1.33-5.77-1.05.34-2.75,2.62-2.75,4.56-3.25,18.69-3.94,37.58-5.86,56.68-5.84,3.21,0,6.78,1,9.41-2,6.26,0,12.51,0,18.76,0,5.76,1.55,11.76-.45,17.52,1.15,23.74-.07,47.09,3.68,70.39,7.54,39.93,6.62,78.6,17.94,116.06,33.1,49.4,19.99,95.55,45.82,137.27,79.21Z" style="fill: #fedd7b; stroke-width: 0px;"/>
  <path d="M115.55,232.21c3.72-9.9,11.97-16.52,18.18-24.57,16.47-21.31,35.75-40.13,55.48-58.33,21.97-20.26,45.97-38.11,70.81-54.76.68-.46,3.5-5.45,4.59.56.29,1.6,2.8-.41,4.18-.97,8.89-3.6,15.93-10.72,25.31-13.4.9,3.32-2.04,4.78-3.39,7.01-9.15,7.01-18.87,13.27-29.02,18.59-13.58,7.13-23.48,18.82-35.93,27.25-15.54,10.51-29.46,23.06-42.8,36.06-14.54,14.17-28.57,28.98-40.7,45.4-1.56,1.9-3.73,2.96-5.79,4.17-5,2.81-9.66,6.09-14.12,9.7-1.94,1.57-3.76,3.84-6.81,3.28Z" style="fill: #fee88e; stroke-width: 0px;"/>
  <path d="M289.81,86.59c1.43-1.95,2.87-3.9,4.3-5.86,8.06-6.81,16.14-13.94,26.24-17.25,18.19-5.96,34.94-15.29,52.9-21.71,9.1-6.53,19.74-9.54,30.24-12.5,12.41-3.5,25.09-6.05,37.52-9.56,2.73-.77,5.56-1.66,8.36-.07.68.59.81,1.28.38,2.07-9.01,4.53-19.33,6.27-27.35,12.92-.98,1.86-2.78,2.62-4.61,3.19-18.98,5.96-38.06,11.63-56.83,18.25-1.27.45-6.35-1.75-3.77,3.59.43.9-1.59,2.2-2.83,2.95-2.67,1.62-5.41,3.2-8.31,4.27-17.5,6.45-34.68,13.73-52.19,20.12-1.36.5-2.81.73-4.05-.42Z" style="fill: #fee286; stroke-width: 0px;"/>
  <path d="M115.55,232.21c6.53-4.97,12.43-10.83,20.07-14.25,1.99,3.62-.74,5.87-2.55,8.23-28.89,37.61-54.26,77.43-75.55,119.83-3.38,6.74-3.42,6.72-7.93,6.29-1.8-4.96,1.04-9.09,2.43-13.47,14.35-34.57,34.26-65.99,55.04-96.9,2.38-3.54,5.63-6.5,8.48-9.73Z" style="fill: #fe7c8b; stroke-width: 0px;"/>
  <path d="M52.03,338.84c.33,4.83-2.57,9.36-1.33,14.28.76,1.03.62,1.99-.25,2.89-5.62,5.57-8.37,12.93-10.94,19.98-9.16,25.17-16.93,50.82-23.38,76.8-5.36,21.59-6.67,43.81-9.05,65.89-3.33,30.87-2.36,61.76-2.74,92.66-.06,4.71,3.43,9.92-1.38,14.2-2.13-1.61-1.35-3.85-1.28-5.94.97-2.8,1.02-5.59-.03-8.38-3.2-30.08-1.16-60.05,1.18-90.09,2.45-31.44,8.4-62.23,16.24-92.61,7.51-29.1,18.12-57.26,29.92-84.93.73-1.7,2.01-3.17,3.03-4.75Z" style="fill: #fee3ae; stroke-width: 0px;"/>
  <path d="M449.74,20.22c-12.96,1.78-25.2,6.66-38.01,9-13.43,2.46-25.43,9.09-38.49,12.56-3.67-2.79-6.44.89-9.66,1.37-2.51.38-4.97,1.09-7.46,1.66l-.12-.14c8.32-5.86,18.21-8.09,27.52-11.55,25.93-9.62,52.64-16.65,79.67-22.3,13.67-2.86,27.65-4.22,41.49-6.26,3.84,3.29-.69,3.84-1.8,5.51-1.5.04-3.1-.29-4.13,1.27-14.47,2.8-29.14,4.57-43.34,8.73-1.85,1.37-3.74,1.52-5.67.15Z" style="fill: #feefbb; stroke-width: 0px;"/>
  <path d="M1095.66,343.11c.59-7.44-2.79-14.28-3.3-21.55,6.41,9.19,10.29,19.66,14.58,29.84,12.71,30.12,22.97,61.1,30.54,92.93,1.09,4.59,2.69,9.14,2.43,13.98-4.88-4.82-5.27-11.51-7.05-17.54-8.38-28.36-16.62-56.74-30.22-83.21-2.44-4.75-6.65-8.67-6.99-14.45Z" style="fill: #fdb220; stroke-width: 0px;"/>
  <path d="M502.89,10.07c-.18-2.09,3.37-2.97,1.8-5.51,21.54-1.92,43-5.15,64.72-4.31,1.24,4.62-2.64,3.79-4.76,4.03-3.55.4-7.19.35-10.77.08-17.37-1.28-34.07,3.16-50.99,5.72Z" style="fill: #fee07c; stroke-width: 0px;"/>
  <path d="M605.69,1.4c-5.84-.42-11.83,1.44-17.52-1.15,5.86.1,11.81-1.14,17.52,1.15Z" style="fill: #fee07c; stroke-width: 0px;"/>
  <path d="M356.13,44.81c-1.33,2.45-3.31,3.53-6.92,3.3,1.92-3.16,4.3-3.42,6.8-3.44,0,0,.12.14.12.14Z" style="fill: #feefbb; stroke-width: 0px;"/>
  <path d="M1.65,611.22c2.11,2.79,2.24,5.58.03,8.38,0-2.79-.02-5.59-.03-8.38Z" style="fill: #fec669; stroke-width: 0px;"/>
  <path d="M1148.91,635.95c-.08-3.01-1.17-6.14.96-8.91.22,3.03.61,6.08-.96,8.91Z" style="fill: #fea821; stroke-width: 0px;"/>
  <path d="M879.17,112.47c11.65,12.24,26.53,20.06,40.08,29.74,13.5,9.64,26.6,19.99,38.47,31.78,6.59,6.55,12.99,14.57,21.13,18,10.84,4.56,15.52,13.94,22.83,21.27-10.13-2.79-20.42-5.05-30.9-5.55-17.35-.84-32.85,5.16-47.39,14.12-2.64,1.63-5.39,3.09-8.09,4.63-6.12-7.94-13.31-14.88-20.73-21.55-4.64-4.17-5.59-3.64-6.5,2.53-1.02,6.88-3.06,7.52-8.72,3.58-6.12-4.26-10.87-10.85-19.05-11.79-12.75-18.29-30.38-30.26-50.5-39.02-8.99-7.67-19.77-12.51-29.67-18.75-12.96-8.18-27.95-11.38-41.88-17.18-1.32-.55-3.01-.52-4.07-1.39-11.56-9.49-26.81-9.64-39.63-15.82-6.26-3.02-13.03-3.19-19.52-4.65-32.96-7.44-65.56-16.68-99.06-21.54-12.07-1.75-24.31-2.69-36.57-2.52-4.11.06-8.18-.08-11.9-2.16-7.06-3.94-14.79-4.43-22.44-3.26-23,3.53-45.9,7.69-68.72,12.2-10.12,2-19.95,5.75-29.21,10.13-17.6,8.33-35.83,15.12-53.59,23.01-34.28,15.23-65.02,36.01-94.3,59.18-2.31,1.83-4.26,3.89-5.05,6.82-.52,1.91-1.04,3.97,1.7,4.6,6.13,1.41,3.43,4.45,1.21,7.06-2.65,3.1-5.41,6.1-7.96,9.3-2.16,2.71-4.95,5.01.54,7.5,2.93,1.33.83,3.91-.51,5.37-3.87,4.22-7.39,8.87-12.6,11.67-2.88.38-5.03-1.19-7.15-2.75-9.32-6.89-19.79-11.54-30.52-15.63-7.54-2.87-15.54-2.04-23.37-2.33-2.83-.1-5.72.8-8.29-1.11-.79-7.09,4.78-10.73,8.83-14.66,5.23-5.07,10.29-9.96,13.07-16.88,1.27-3.16,3.95-5.41,6.46-7.65,20.43-18.3,42.7-34.12,65.63-49.12,34.64-22.66,71.33-41.59,108.95-58.55,32.5-14.65,66.97-23.57,102.09-29.62,10.39-1.79,20.85-3.34,31.25-5.06,22.71-3.75,45.51-1.79,68.27-2.23,2.16-.04,4.3.43,6.4.92,7.25,1.68,7.63,2.79,2.32,9.05,42.1,11.4,84.67,17.73,128.01,22.36-1.24-2.64-3.66-2.94-5.06-4.45-1.45-1.56-3.69-3.03-2.73-5.38,1.01-2.45,3.74-2.21,5.68-1.47,16.38,6.26,34.87,4.82,50.46,13.91,1.24.72,2.64,1.29,4.05,1.45,17.85,2.06,34.27,8.8,50.7,15.45,13.77,5.56,27.42,11.42,40.16,19.16,1.46.97,2.91,1.94,4.37,2.92,7.86,4.49,15.57,9.22,23.01,14.38Z" style="fill: #fec831; stroke-width: 0px;"/>
  <path d="M681.97,177.68c-1.15,3.08-5.61,3.16-6.15,6.79-.04,1.54-.85,2.74-1.82,3.8-16.4,17.99-24.62,39.64-28.41,63.29-.42,2.59-.98,5.18-2.1,7.61-1.67,2.96-2.8,6.05-2.93,9.51-1.28,32.79,2.45,64.97,11.53,96.51.31.7.53,1.43.72,2.17.59,3.6,1.57,7.1,2.93,10.49,4.37,14.86,10.33,29.16,15.54,43.73.79,3.39,2.32,6.43,4.4,9.21,4.68,9.14,8.67,18.6,13.18,27.83,10.8,22.12,22.44,43.77,35.29,64.76,1.27,2.71,2.54,5.43,4.47,7.77.42.56.78,1.15,1.13,1.76,14.13,23.62,26.23,48.44,42.78,70.62,9.71,13.01,21.43,22.31,37.92,25.02,6.98,1.15,13.31-.53,19.75-2.37,11.1-3.17,21.16-9.04,32.11-12.6,2.96-.96,5.89-2.08,8.94-2.71,2.78-.58,5.9-1.76,7.93,1.22,2.14,3.16.4,6.38-1.66,8.53-6.76,7.07-13.38,14.42-23.32,17.37-7.7,2.28-14.24,6.67-20.04,12.19-9.64,3.97-20.01,4.43-30.09,6.13-18.37,3.1-36.76,6.13-55.39,7.33-2.87-.28-5.68-.05-8.42.9-11.11,2.15-22.34,3.18-33.64,3.45-3.42-.38-6.76-.03-10.04,1.03-10.05,2.68-20.43,2.14-30.64,2.79-26.92,1.73-53.9,2.81-80.9,1.94-1.44-.05-2.85-.27-4.2-.78-3.3-4.73-2.63-7.24,2.58-8.59,16.21-4.17,32.01-9.75,48.17-14.05,6.67-1.78,13.57-1.59,20.42-3.25,17.73-4.3,33.05-15.56,51.73-16.92,6.35-.46,11.33-4.24,14.89-10.13,3.54-5.86,6.07-12.64,12.31-16.58,1.01-.64,1.65-1.88,1.7-3.08.26-6.03,3.65-12.02,2.63-17.65-2.02-11.19-3.42-22.9-9.03-32.97-15.44-27.67-30.79-55.37-45.03-83.69-17.51-34.84-32.3-70.72-42.33-108.42-6.62-24.86-10.47-50.28-12.17-75.96-.54-8.09,1.59-16.19,1.3-24.4-.34-9.49-.13-9.4-9.17-13.03-14.07-5.64-29.31-6.74-43.65-11.39-7.84-2.54-15.81.06-23.37,1.99-9.07,2.32-18.09,4.58-27.38,5.96-7.35,1.09-7.53,2.34-6.08,9.64,2.21,11.16,1.63,22.54.66,33.72-2.04,23.42-4.75,46.86-11.2,69.53-4.11,14.45-7.92,28.99-14.73,42.71-7.34,14.79-12.23,30.75-19.19,45.8-8.57,18.53-17.6,36.82-27.38,54.73-2.81,5.14-5.18,10.23-4.98,16.27.19,5.81-2.66,10.66-5.6,15.34-7.69,12.23-13.58,25.4-20.25,38.16-3.3,6.31-3.03,11.95.49,18.34,5.32,9.67,9.15,20.09,11,31.05.73,4.36,3.03,6.16,6.94,8.02,15.63,7.44,32.41,11.71,48.77,16.56,11.22,3.33,20.87,9.28,31.56,13.2,1.84.68,3.65,1.68,5.5.78,4.95-2.4,9.4-.46,13.83,1.37,6,2.47,11.93,4.92,18.5,5.64,3.31.37,6.53,1.79,9.19,3.91,2.3,1.84,4.45,4.03,1.3,7.05-3.19,1.46-6.58,1.11-9.92,1.15-42.68.51-85.14-2.74-127.6-6.71-39.17-3.66-77.98-9.56-116.69-16.29-4.49-.78-8.99-1.49-13.15-3.47-4.38-6.82-11.22-10.89-17.59-15.49-5.55-4.01-9.97-9-13.05-15.11-1.08-2.13-2.28-4.45-.3-6.7,1.82-2.07,4.3-2.02,6.68-1.37,6.47,1.78,12.96,3.42,19.11,6.31,9.34,4.38,18.83,8.49,28.86,11.1,18.2,4.75,34.03-1.02,45.56-14.48,17.63-20.59,31.92-43.73,44.73-67.69,9.21-16.53,18.57-32.98,27.84-49.47,17.33-30.84,31.72-62.91,44.66-95.76,9.46-24.01,15.75-48.75,19.92-74.16,2.55-15.52,2.28-30.98.73-46.52,0-2.29,0-4.58-.01-6.87-.11-3.73.46-7.51-.77-11.17-2.66-12.11-4.71-24.33-8.86-36.14-4.69-13.35-12.06-24.88-21.2-35.46-1.86-2.15-4.06-4.13-4.29-7.26.15-6.68,3.64-9.1,10.2-10.4,13.45-2.66,27.95-.03,40.4-7.8,1-.62,2.49-.62,3.27-1.42,7.67-7.92,17.63-5.46,26.99-6.55,14.86-1.73,29.45,2.96,44.23.92,1.42-.2,3.17-.31,4.19.62,5.92,5.41,13.03,5.12,20.25,4.6,1.18-.08,2.59-.07,3.51.59,9.14,6.63,20.59,5.53,30.58,9.25,6.02,2.24,11.55,1.37,17.23-1.66,8.02-4.26,12.88-1.07,13.68,8.41Z" style="fill: #fee060; stroke-width: 0px;"/>
  <path d="M642.57,258.08c3.71-26.82,11.7-51.8,31.01-71.89.65-.67,1.49-1.15,2.24-1.72,3.97.16,4.26,2.51,2.95,5.39-8.58,18.83-7.4,39.53-10.89,59.3-1.5,8.5-.51,18.88,8.89,24.89,1.17.75,2.39,1.9,2.89,3.15,4.76,11.99,13.26,22.1,17.31,34.41,2.2,6.68,5.56,12.69,9.78,18.27,1.29,1.71,2.63,3.46,3.51,5.39,11.57,25.38,29.8,46.52,44.84,69.67,5.57,8.57,14.1,15.51,24.28,19.46,4.63,1.79,7.1,4.68,1.92,8.74-3.15,2.46-2.33,4.28.5,5.99,4.33,2.61,8.38,5.51,11.82,9.27,2.64,2.89,3.88,5.67-.03,8.31-6.35,4.28-5.15,9.86-2.03,14.95,7.49,12.2,15.45,24.14,26.9,33.13,6.59,5.17,17.36,2.23,20.84-5.43,2.87-6.33,5.9-7.29,12.56-4.26,5.75,2.61,11.61,6.82,16.42-1.8,1.6-2.87,5.23-1.63,8.04-1.78,6.32,4.92,13.73,3.18,20.8,3.22,1.82,0,3.66-1.03,5.45-1.71,11.18-4.2,22.32-5.72,34.19-2.13,4.08,1.23,8.46-2.54,12.6-4.26,5.67-2.36,10.87-5.41,17-7.14,10.9-3.08,19.64,1.8,28.94,5.04,3.19,1.11.76,2.95-.33,4.24-3.98,4.75-8.02,9.45-12.03,14.17-1.79,4.91-5.48,7.45-10.48,8.36-15.11,1.45-29.67,5.17-43.95,10.23-12.86,4.56-26.03,8.22-38.87,12.75-11.95,4.21-23.01,10.67-34.53,15.98-7.41,3.42-14.71,7.03-22.62,9.18-15.38,4.18-28.83,1.18-40.26-10.34-10.35-10.44-18.08-22.97-27.7-33.97-10.09-11.54-19.67-23.51-30.48-34.43-11.79-11.9-22.7-24.66-36.17-34.86-4.13-3.13-8.08-6.91-9.56-12.31-.7-2.57-2.99-2.83-4.95-3.63-2.34-1.52-3.45-3.95-4.53-6.34-14.92-33.04-27.09-66.99-33.86-102.73-1.47-7.75-1.94-15.64-3.69-23.35-.79-4.56-.53-9.16-.49-13.75.09-5.6.03-11.19.03-16.78.27-3.03.54-6.05,1.73-8.9Z" style="fill: #dd1f25; stroke-width: 0px;"/>
  <path d="M236.44,229.3c4.48-4.92,8.96-9.83,13.5-14.81-2.01-2.63-6.55.7-7.3-3.03-.66-3.27,3.16-4.47,4.62-6.82,3.14-5.07,7.85-8.83,11.64-13.3-2.68-2.39-6.98,2.94-7.59-1.77-.56-4.31.55-9.1,4.6-12.19,8.93-6.8,17.77-13.74,26.87-20.3,32.41-23.37,67.87-40.78,105.08-55.25,15.58-6.06,30.45-14.37,46.8-18.04,19.26-4.32,38.73-7.85,58.35-10.54,9.97-1.37,20.19-5.28,29.59-.94,14.43,6.65,29.59,3.3,44.3,5.4,14.64,2.09,29.19,4.31,43.6,7.75,21.05,5.02,42.35,9.01,63.31,14.35,11.15,2.84,23.06,3.69,33.06,10.51,1.39.95,3.72.7,5.6.68,4.23-.06,8.63.75,11.53,3.38,8.56,7.75,19.51,10.29,29.79,13.45,19.83,6.09,36.46,17.81,54,27.98,1.14.66,5.2,1.23,2.01,4.39-29.86-10.55-60.07-11.28-90.58-3.2-2.33-2.41-5.62-2.54-8.55-3.43-4.92-1.49-9.55-3.52-13.01-7.34-4.25-4.7-9.4-6.02-15.51-5.83-13.29.42-26.08-2.47-39-5.47-19.58-4.55-39.69-6.24-59.61-8.99-20.73-2.86-41.62-1.88-62.35-4.05-2.83-.3-5.73-.46-8.59.71,5.09,1.1,10.33.41,15.46,1,3.05.35,7.76.62,7.62,3.84-.17,3.79-5.07,4.01-8.21,3.71-16.48-1.57-32.39,2.66-48.56,4.18-11.21,1.05-22.26,1.86-33.05,6-8.88,3.41-18.59,4.72-23.06,14.74-10.09.34-19.83-2.52-29.92-3.01-24.04-1.17-46.73,3.12-68.35,13.46-27.97,13.01-42.96,37.1-54.68,64-2.49,5.71-4.11,11.77-6.82,17.39-.96,1.99-2.56,4.58-4.77,2.44-7.25-7.04-16.44-12.09-21.81-21.06Z" style="fill: #fed33d; stroke-width: 0px;"/>
  <path d="M422.4,155.23c1.79-10.73,10.65-11.38,18.79-14.45,22.07-8.33,45.48-7.06,68.03-11.36,8.57-1.63,17.07,1.97,25.96-1.69-6.53-3.7-13.14-1.77-19.43-2.29-3.35-.28-8.82,1.04-8.68-3.42.13-3.95,5.6-2.41,8.64-2.24,29.24,1.59,58.46,2.9,87.61,6.56,22.03,2.76,43.34,8.66,65.21,11.65,6.13.84,12.44.44,18.66.38,3.26-.03,6.18.28,8.38,3.04,4.99,6.29,11.54,9.98,19.43,11.16,2.78.41,4.58,1.26,4.19,4.43-13.72,4.55-26.14,11.42-37.24,20.68q-5.52-10.38-15.74-4.88c-5.81,3.11-11.72,1.97-17.27-.53-3.63-1.63-7.21-2.54-11.09-2.13-4.33.46-8.28-.84-11.44-3.38-5.43-4.38-11.41-4.71-17.61-3.19-2.63.64-5.16.72-6.69-1.01-5.97-6.75-13.36-4.91-20.69-4.1-1.89.21-3.95.52-5.72.02-13.68-3.88-27.57-.36-41.32-1.31-1.89-.13-4.1-.47-5.47,1.1-6.55,7.48-16.49,7.94-24.62,12.11-6.12,3.14-12.71-2.31-18.86,1.15-1.6.9-3.77,1.6-5.5,1.31-7.31-1.23-10.49,2.39-11.51,8.99-5.17-.33-7.76-4.77-11.5-7.34-2.3-1.58-4.46-3.4-6.84-4.89-6.44-4.74-13.82-7.55-21.14-10.5-2.35-.94-5.27-1.05-6.54-3.87Z" style="fill: #fed754; stroke-width: 0px;"/>
  <path d="M860.29,199.21c1.36-3.39,3.6-2.57,5.68-.98,5.09,3.9,10.05,7.97,15.1,11.92,1.19.93,1.97,3.14,4.04,1.89,1.37-.83,1.11-2.48,1.32-3.88.44-2.92-1.7-7.27,1.55-8.45,3.43-1.24,6.37,2.36,8.89,4.75,5.2,4.93,10.13,10.14,15.27,15.14,1.99,1.93,3.42,3.96,3.15,6.86-9.17,7.17-18.57,14.08-26.46,22.73-2.53,2.77-4.25,3.54-5.64-1.09-5.2-17.41-13.47-33.42-22.91-48.87Z" style="fill: #fed33d; stroke-width: 0px;"/>
  <path d="M1063.6,338.83c5.82,16.3,11.63,32.6,17.45,48.9-8.81-11.46-13.83-24.84-20.25-37.48-11.61-30.73-26.71-59.63-46.67-87.54,6.68,3.18,8.81,8.83,12.81,12.59,15.94,15.01,23.02,35.07,31.14,54.55,1.36,3.26,2.13,6.94,5.52,8.98Z" style="fill: #ef396d; stroke-width: 0px;"/>
  <path d="M1059.34,827.27c-4.04,12.09-11.38,22.35-17.75,33.22-6.99,11.92-18.02,21.12-22.63,34.52-5.4,3.31-7.59,9.05-10.81,14.06-1.18,1.84-2.74,4.87-5.38,3.66-2.14-.98-.85-3.79-.51-5.88,1.11-6.82,3.7-13.35,3.99-20.34.06-1.56,1.79-3.43-.05-4.58-2.32-1.46-3.43,1.11-4.5,2.37-8.69,10.16-17.12,20.55-25.88,30.64-6.55,7.54-13.24,14.95-20.61,21.78-7.84,7.28-15.39,14.84-23.4,21.99-23.94,21.39-50.09,39.63-76.7,57.43-12.95,8.67-27.84,14-39.77,24.2-2.46,2.1-5.47,2.93-8.43,3.88-6.15,1.97-11.88,3.83-15.99,9.9-3.4,5.03-10.32,5.77-16.01,7.43-9.21,2.68-17.91,5.49-24.79,13.15-4.1,4.56-11.5,4.11-17.37,6.02-5.23,1.7-10.54,3.08-15.53,5.5-24.77,12.02-51.12,18.34-78.25,22.18-18.72,2.64-37.43,5.14-56.35,4.13-29.32-1.57-58.18-4.66-86.62-13.7-41.32-13.12-79.95-31.71-118.31-51.36-10.04-5.14-18.99-12.76-31.27-15.12,3.03,4.45,7.21,6.6,11.02,8.47,12.66,6.23,23.36,15.59,36.45,21.32,6.84,2.99,12.3,9.57,19.15,13.48,1.08.61,2.05,1.72,1.18,2.91-.97,1.32-2.58.58-3.99.56-11.17-.18-20.31-6.62-30.52-9.76-20.5-6.3-37.44-19.18-55.54-29.92-.56-.33-.84-1.14-1.25-1.72,1.39-2.98-.54-4.99-2.06-7.13-5.52-7.76-13.61-13.4-17.97-22.21-1.33-2.68-4.68-4.06-7.5-5.38-10.68-5-19.97-12.34-30.33-17.88-2.11-1.13-3.81-2.92-5.3-4.81-1.01-1.28-2.65-2.9-1.37-4.39,1.83-2.13,3.33.22,4.08.65-21.82-20.07-48.49-35.65-70.06-57.44-16.46-13.28-29.56-30.13-46.14-43.76,12.51,20.8,29.89,36.38,48.83,50.46,4.54,4.97,11.08,7.83,14.66,13.82-2.14,9.25-2.06,9.55,6.65,15.34,3.8,2.53,7.46,5.24,11.18,7.87,4.46,2.82,8.47,6.28,13.07,8.9,1.47.83,3.24,1.85,3.62,3.37,1.96,7.95,9.82,10.02,14.45,15.16,5.81,6.45,13.15,10.73,19.31,16.52,2.02,1.9,5.2,4.02,3.05,7.84-2.19.49-4.9-3.24-6.31-.13-1.06,2.35,2.31,3.82,3.9,5.46,2.51,2.59,6.71,3.54,7.87,8.39-8.87-2.66-14.18-9.57-20.62-14.51-12.11-9.29-23.61-19.47-34.74-29.94-11.62-10.92-20.82-24.34-32.21-35.22-8.65-8.26-14.82-20.93-29.23-22.72-3.09-.38-5.95-4.62-8.42-7.51-8.85-10.32-17.25-21-22.87-33.54.32-.12.63-.23.95-.35,4.96,1.69,5.67,7.09,9.13,10.14-11.12-12.84-16.96-28.68-24.86-43.35-4.12-7.64-9.69-14.17-16.04-20.05-2.55-2.93-5.74-5.26-8.06-8.41l-1.48-8.58c-1.26-2.23-2.19-4.65.72-6.13,2.29-1.17,4.17.58,5.63,2.14,4.75,5.06,8.73,10.8,13.87,15.51,14.08,19.66,30.85,37.08,46.49,55.43,19.66,23.07,42.41,42.98,68.02,59.47,12.73,8.19,23.44,18.94,34.37,29.23,15.6,14.69,32.23,28.23,50.95,38.17,24.23,12.86,49.28,24.83,76.83,29.11,11.53,1.79,22.89,3.58,34.11,6.98,7.42,2.25,15.42-.57,23.15-1,2.52-.14,5.03-1.39,7.73-1.24,2.7.15,4.22-.57,6.07-3.39,3.68-5.64,10.51-4.36,16.2-4.05,4.69.26,9.38,1.72,13.91,3.17,10.06,3.21,20.22-.21,30.47,1.11,33.13,4.24,64.68-5.18,96.46-12.8,20.78-4.98,39.32-14.86,58.06-24.25,15.56-7.79,28.65-19.54,42.58-29.9,1.67-1.24,2.77-3.24,4.13-4.9-.11-3.28,2.72-3.57,4.75-4.5,47.89-21.8,89.62-52.16,125.79-90.26,7.05-7.42,12.59-16.24,20.83-22.57.97-.17,2.25-.3,2.66.54,2.01,4.12,3.4,2.32,4.95-.31,3.19-5.41,7.62-9.85,11.66-14.59,1.2-1.41,2.95-3.21,4.9-2.08,2.35,1.36,1.42,3.83.59,5.81-3.39,8.03-8.71,14.89-13.6,22-1.21,1.76-2.74,3.36-3,6.47,7.48-6.89,13.26-14.57,18.85-22.08,11.44-15.36,24.6-29.5,33.96-46.39.81-1.47,1.6-3.37,2.99-3.99,12.77-5.67,16.14-19.69,25.47-28.38,2.5-2.33,4.88-5.28,8.54-2.25,3.52,2.91,1.06,5.51-.94,7.97-.91,1.12-2.41,2.36-2.12,3.64,1.65,7.2.21,14.4.49,21.54.21,5.18,2.74,10.09-4.02,12.86-1.65.68-.32,2.39-.03,3.36,2.07,6.84-.04,12.44-3.8,18.24-5.07,7.83-9.19,16.27-12.14,25.19-1.97,5.95-5.74,11.01-8.54,16.52-5.94,11.67-11.7,23.7-21.77,32.73-9.11,8.16-15.64,18.89-27.1,26.06,3.41.34,6.29-2.27,7.58.19,1.47,2.81-1.57,4.66-3.31,6.51-3.19,3.39-7.86,5.37-9.57,10.57,7.13-1.87,14.32-3,20.81-6.73,23.6-13.58,45.84-28.87,64.14-49.38,5.09-5.71,10.82-10.77,17.06-15.39,6.49-4.8,11.66-10.73,15.59-18.38,5.08-9.88,11.27-19.54,20.43-26.62,3.41-2.64,6.65-5.48,9.41-8.86,1.57-1.93,3.78-3.34,6.33-1.97,2.62,1.42,2.27,4.07,1.64,6.41-2.7,9.96-6.29,19.6-9.88,27.86,4.87-9,11.29-18.54,18.49-27.56.87-1.09,1.62-2.47,3.43-1.91Z" style="fill: #fe8c14; stroke-width: 0px;"/>
  <path d="M209.02,939.74c-4.72-4.42-10.7-7.44-14.39-13-4.92-4.92-5.02-5.58-1.39-8.67,23.66,22.58,52.09,39.38,75.99,62.63-4.71.74-6.46-3.89-10.87-4.88,6.16,9.14,15.77,11.88,23.38,17.26,4.83,3.41,10.07,6.3,15.44,8.97,4.45,2.22,8.8,4.87,10.49,10.94,1.06,3.81,5.82,6.55,8.77,9.9,3.14,3.57,6.16,7.25,9.11,10.98,3.11,3.93-.3,3.56-2.64,3.84-3.4-2.6-7.13-4.46-11.15-6.01-11.01-4.23-20.73-10.88-30.68-17.08-.21-4.38-3.93-7.99-6.45-8.92-10.55-3.91-14.8-15.15-24.58-19.7-3.08-1.44-6.17-3.26-5.93-7.99.13-2.55-3.05-3.94-5.27-5.38-4.2-2.73-8.27-5.67-12.39-8.52-6.2-7.84-11.67-16.21-17.44-24.37Z" style="fill: #fea350; stroke-width: 0px;"/>
  <path d="M131.25,880.58c-9.7-12.29-17.18-25.85-23.06-40.33-1.38-2.59-.08-3.42,2.31-3.55,1.72.55,2.78,1.91,3.51,3.38,6.99,14.07,15.33,27.32,24.2,40.26.95,1.38,1.71,2.94.3,4.55,0,0-.05.04-.05.04-2.63-1.07-3.84-4.48-7.19-4.35Z" style="fill: #fe8c14; stroke-width: 0px;"/>
  <path d="M190.34,961.29c-8.24-5.47-15.5-11.78-18.71-21.61,6.5,6.98,13.98,13.1,18.71,21.61Z" style="fill: #fe8c14; stroke-width: 0px;"/>
  <path d="M171.61,939.66c-2.33-1.24-4.2-2.83-4.32-5.73,2.33,1.24,4.2,2.82,4.32,5.73Z" style="fill: #fe8c14; stroke-width: 0px;"/>
  <path d="M83.71,758.08c-5.25-13.33-7.08-27.74-12.93-40.88-3.31-7.42-6.43-14.93-10.09-22.17-2.92-5.78-9.77-5.86-14.69-8.75-1.63-.96-3.43,1.04-4.05,3.12-.36,1.22-.99,2.39-2.46,1.52-.68-.4-1.43-1.53-1.35-2.24,1.34-11.32-2.58-22.04-3.84-33.05-1.5-13.23-3.99-26.38-3.78-39.72.11-6.52-1.62-12.77-1.59-19.22-1.98-1.81-2.04-4.27-2.06-6.65-.41-39.27-.41-78.56,5.79-117.47,4.07-25.54,9.45-50.87,18.01-75.38,1.17-3.35,1.81-7.02,4.91-9.37,2.66-1.33,4.16.46,5.14,2.35,7.37,14.18,16.87,27.01,25.52,40.39.07,3.86.55,7.57,2.81,10.93,9.87,14.71,18.73,30.08,29.97,43.89,4.92,6.05,10.91,10.79,16.75,15.66,34.15,28.44,71.07,52.84,109.84,74.5,10.87,6.07,22.01,11.65,32.8,17.88,2.04,1.18,4.48,1.96,4.92,4.79-.07.73-.37,1.36-.88,1.89-3.02,1.56-5.6-.03-8.16-1.25-36.57-17.44-73.12-34.95-108.2-55.32-4.98-2.89-10.17-5.38-15.55-7.46-3.95-1.52-6.32-.66-5.61,3.93,2.3,14.87.23,30.11,5.11,44.85,3.41,10.33,8.36,19.07,16.18,26.55,7.28,6.96,15.42,12.99,22.21,20.44,5.48,6,13.63,8,19.4,13.48.86,3.07-1.37,4.97-2.9,6.97-5.35,6.99-9.05,14.66-10.4,23.4-1.08,3.27-1.22,6.55-.2,9.87.22.66.37,1.34.5,2.02.36,2.1.86,4.18.71,6.34-1.1,5.37.45,10.8-.29,16.17-2.04,1.89-3.57.15-5-.88-10.76-7.73-22.97-12.85-34.42-19.34-5.38-3.05-11.84.05-17.45-2.74-1.47-.73-1.97,1.49-2.1,2.98-.98,10.56,2.19,20.85,2.05,31.38-.04,2.98,4.09,4.73,3.88,8.23-.67,2.5-3.21,3.61-4.27,5.81-.42.58-.91,1.1-1.44,1.59-1.58,1.17-3.31,2.38-5.13.79-1.95-1.7-1.25-4-.51-6.01,3.43-9.24-.55-17.32-3.9-25.49-.63-1.53-1.6-3.23-3.55-3.11-2.18.14-3.13,1.97-3.84,3.8-.8,2.05-.89,4.23-.76,6.36.76,12.3-1.43,24.85,3.27,36.82.62,1.57.54,3.3-.52,4.81-4.17.66-5.17-2.89-6.45-5.39-4.48-8.77-8.27-17.92-9.7-27.69-1.18-8.13-3.3-15.92-5.9-23.64-1.84-5.46-3.14-11.01-3.39-16.84-.34-7.96-3.64-15.13-8.68-20.88-5.6-6.39-10.33-13.13-13.86-20.79-.49-1.06-1.08-2.15-2.15-2.34-10.35,9.8-7.32,22.35-7.23,34.24.03,3.59.69,7.14-1.12,10.53-1.39,2.61-.19,4.98.61,7.55,4.73,15.34,14.65,28.58,17.94,44.47.94,4.52,4.36,8.69,2.1,13.7-.9,3.36,3.57,6.73-.01,10.09Z" style="fill: #febd2b; stroke-width: 0px;"/>
  <path d="M194.61,710.55c-1.21-5.76-2.74-11.52-.2-17.32,3.36,1.89,3.66,5.46,4.58,8.61,15.17,51.92,40.58,98.27,75.1,139.86,25.22,30.39,54.48,56.01,87.68,77.26,44.06,28.66,92.15,47,143.83,56.11,25.81,4.55,51.85,6.86,78.01,5.75,54.99-2.34,107.85-13.82,157.5-38.37,15.28-7.56,30.39-15.38,44.54-24.94,34.65-22.5,64.82-49.96,90.64-82.2,33.09-41.32,56.93-87.4,71.19-138.42.77-2.75.64-6.49,5.03-6.66,4.18,5.06,1.27,10.43.7,15.69-1.89,9.61-5.37,18.75-8.5,27.99-13.12,40.2-33.68,76.46-58.43,110.51-1.9,2.61-4.29,4.41-6.99,5.97-38.43,48.14-85.67,85.11-141.22,111.61-3.41,1.63-7.43,2.07-10.22,4.98-21.27,7.7-42.43,15.8-64.57,20.77-23.47,5.28-47.19,8.3-71.25,10-16.82,1.19-33.38-.21-50.03-.65-12.06-.33-24.07-2.57-36.1-3.95-2.81,1.76-5.65.41-8.36-.11-68.82-13.36-129.55-43.47-182.83-88.79-17.73-15.08-33.84-31.79-48.14-50.2-1.58-2.04-3.75-3.8-4-6.66-7.09-10.58-14.3-21.08-21.23-31.76-4.25-6.54-8.07-13.35-12.09-20.03-5.24-3.3-6.85-9.15-9.34-14.17-10.23-20.6-18.84-41.87-25.12-64.04-.63-2.23-1.92-4.51-.16-6.82Z" style="fill: #fedf53; stroke-width: 0px;"/>
  <path d="M262.55,847.37c6.83,7.64,13.69,15.25,20.47,22.94,33.51,38,73.92,66.92,119.07,89.26,30.7,15.18,63.2,25.45,96.85,31.98,2.33.45,4.63,1.05,6.95,1.58-1.33,7.31-7.66,10.1-12.94,13.38-6.48,4.03-13.6,7.02-21.16,8.67-1.16.25-2.66.37-3.37,1.14-8.72,9.4-18.13,3.58-26.62.41-8.71-3.25-16.86-7.6-26.38-8.66-7.26-.81-12.66-6.47-19.44-8.98-19.73-7.3-39.28-15.06-58.24-24.29-5.75-2.8-9.88-7.42-15.4-10.3-14.15-7.4-28.75-14.27-40.01-26.01-3.16-3.3-10.6-7.32-1-12.43,2.14-1.14-.23-2.9-1.34-3.92-3.31-3.03-6.89-5.78-10.07-8.92-3.1-3.06-7.76-5.54-5.5-11.33.18-.47-.28-1.56-.76-1.88-7.37-4.88-6.73-11.3-4.25-18.61,2.11-6.22-.64-12.75.05-19.15.19-1.79-.53-3.44-2.15-4.27-6.82-3.47-5.45-8.45-2.98-13.84,2.91,1.14,5.56,2.19,8.2,3.23Z" style="fill: #fe8c14; stroke-width: 0px;"/>
  <path d="M83.72,747.99c-4.55-15.51-8.74-31.08-17.31-45.13-3.03-4.96-2.81-11.6-6.78-16.4-.36-.43-.36-1.5-.08-2.07,5.86-12.09,1.9-24.55,1.44-36.87-.05-1.36-.51-3.97.8-3.61,7.86,2.16,4.32-5.06,6.32-7.55,1.87-2.33,3.71-5.31,5.22-.88,4.35,12.84,15.53,21.12,21.12,33.05,2.26,4.83,3.65,9.68,3.79,15.13.27,10.43,6.22,19.56,7.67,29.71,1.46,10.24,3.98,20.06,8,29.58,1.88,4.45,3.92,8.69,7.22,12.25,4.12.78,7.27,2.71,8.45,7.03-.01.66-.11,1.31-.27,1.95-.72,2.16-.7,4.34-.12,6.54.16.99.08,1.92-.57,2.74-.93,4.69.52,8.79,2.62,12.97,4.58,9.1,2.9,20.35,9.64,28.82.37.46.06,2.1-.46,2.5-1.17.9-2.17-.17-3.04-.96-2.01-1.85-4.47-3.96-6.75-1.37-1.85,2.1.39,4.56,1.81,6.35,5.03,6.3,6.53,14.19,10.6,22.01-6.37-2.33-8.73-7.62-11.61-11.64-12.43-17.44-25.43-34.59-34.73-54.02-3.39-7.08-5.81-14.64-8.62-22-1.11-2.9-2.01-5.88-4.37-8.1Z" style="fill: #feb01e; stroke-width: 0px;"/>
  <path d="M194.61,710.55c8.29,29.66,20.08,57.9,34.62,85.02-6.34-1.15-12.54-2.74-18.35-5.61-2.49-1.23-3.62-2.63-.47-4.42,1.79-1.02,3.3-2.1,2.18-4.49-1.24-2.66-2.67-5.3-5.99-5.55-13.68-1.04-23.89-8.5-33.15-17.74-2.7-2.69-5.11-5.55-9.45-5.85-2.85-.2-4.46-2.82-5.65-5.1-3.01-5.75-7.39-8.56-13.96-7.44-2.96-.63-4.07-2.72-4.36-5.48.03-1.12.45-2.1,1.17-2.95-5.99-7.18-4.09-16.24-6.06-24.36-1.52-6.25.51-12.26-.82-18.38-.92-4.19,2.24-5.07,5.35-3.34,3.52,1.95,6.71,3.32,10.74,1.47,1.06-.49,2.98-.04,4.09.65,13.14,8.26,28.33,13.05,40.12,23.58Z" style="fill: #fead1d; stroke-width: 0px;"/>
  <path d="M145.78,743.62c7.12,1.84,8.13,8.68,10.11,13.87,5.19,13.57,12.04,26.66,13.69,41.4.35,3.07,1.3,6.61.22,9.2-1.97,4.71-2.09,9,.39,13.79-15.46-8.17-28-18.15-33.09-35.04,9.82,1.79,13.53-1.3,13.82-11.92.2-7.51-.96-14.76-4.75-21.45-1.77-3.13-3.55-6.44-.4-9.85Z" style="fill: #feb04f; stroke-width: 0px;"/>
  <path d="M95.23,821.5c-9.24-9.29-14.58-20.91-20.37-32.44-7.17-14.26-11.69-29.6-19.72-43.59-5.76-10.03-7.69-22.1-8.81-33.82.57-.2,1.13-.4,1.7-.6,1.69,3.97,4.04,7.79,4.93,11.92,2.49,11.56,10.6,20.11,15.65,30.27,1.72,3.46,2.95,6.81,4,10.52,3.1,10.98,7.5,21.54,12.55,31.8,1.95,9.19,5.81,17.64,10.07,25.93Z" style="fill: #feba47; stroke-width: 0px;"/>
  <path d="M145.78,743.62c-.01,2.83-.38,5.6,1.48,8.24,5.53,7.84,5.88,16.9,5.54,26.02-.07,1.85-.7,3.75-1.4,5.5-3.26,8.16-7.28,9.1-14.29,3.46-1.1-3.03-4.01-5.1-4.47-8.47-.14-4.05,2.01-7.41,3.77-10.7,4.32-8.08,4.44-17.4,8.11-25.62l1.26,1.56Z" style="fill: #fece88; stroke-width: 0px;"/>
  <path d="M144.52,742.06c.13,13.44-4.55,25.31-11.88,36.32-1.34-1.64-2.68-3.28-4.02-4.92-.12-.77-.24-1.54-.36-2.32-.86-2.44-.96-4.88.07-7.3v-.02c.07-10.45,2.13-20.29,8.7-28.78h0c1.11-1.31,2.02-3.27,4.15-1.3-.1,2.53,2.22,3.69,3.2,5.61.05.9.09,1.8.14,2.7Z" style="fill: #fefdfb; stroke-width: 0px;"/>
  <path d="M118.3,825.84c-7.39-2.09-8.93-10.32-14.76-14.07-1.35-.87-2.18-3.13-4.02-2.49-2.4.83-1.02,3.32-1.44,5.05-5.78-7.31-9-15.73-10.42-25.14,10.61,11.92,22.03,23.08,30.63,36.65Z" style="fill: #feb01e; stroke-width: 0px;"/>
  <path d="M111.09,837.37c-1.89.03-2.83,1.02-2.9,2.89-4.07-5.19-6.86-11.02-8.63-17.35,3.56,1.62,6.74,3.68,8.66,7.26.38,2.63,4.01,3.97,2.87,7.2Z" style="fill: #feb01e; stroke-width: 0px;"/>
  <path d="M252.22,839.65c.05,1.71-.3,2.79-1.97,2.34-1.52-.41-3.59-.37-3.43-2.78.1-1.56.99-2.83,2.67-2.75,2.07.1,2.6,1.76,2.74,3.19Z" style="fill: #fe8c14; stroke-width: 0px;"/>
  <path d="M879.28,850.38c21.95-28.4,40.38-58.91,54.44-91.97,3.44-8.09,6.07-16.52,9.07-24.8,8.7-7.39,19.85-9.32,30.04-13.33,3.35-1.32,6.93-2.12,9.74-4.47,7.05-5.91,15.19-8.95,24.28-9.91,7.52-.8,14.28-4.09,20.91-7.45,3.78-1.92,7.2-2.45,10.75.21.96.72,2.09,1.69,3.19,1.56,8.02-.95,15.35-4.68,23.58-5.44,3.7-.34,5.9-5.87,8.6-9.25,17.89-22.46,22.39-49.19,25.42-76.65,2.17-19.67.73-39.31,1.25-58.95.13-4.9,1-9.23,3.59-13.62,4.03-6.83,2.74-14.97,3.41-22.5.87-9.69,2.36-19.52-.8-29.26-1.09-3.35-.87-7.3.88-10.58,2.2-4.11,2.73-8.66,1.39-12.59-4.31-12.69-1.65-26.17-5.08-38.92-1.24-4.6-1.98-9.62,4.37-11.66,3.52,5.45,1.34,11.67,1.97,17.46,2.09,19.17,8.5,38.04,6.46,57.42-2.46,23.38,3.51,45.95,4.38,68.94.34,8.84.83,17.64,1.52,26.46.8,10.23-.72,20.54,1.39,30.79,1.52,7.36-1,14.72-1.38,22.11-1.23,23.9-5.99,47.12-13.14,70-9.91,31.74-20.97,63-35.14,93.11-4.79,10.17-11.16,19.55-15.04,30.17-8.21,11.74-16.43,23.48-24.64,35.22,3.56-11.26,7.35-22.22,10.76-33.31.62-2.01,2.05-4.41-.56-5.69-2.45-1.19-4.17,1.02-5.09,2.87-1.61,3.25-4.69,4.66-7.18,6.84-10.31,9.05-18.32,19.79-23.81,32.42-2.77,6.37-8.57,10.51-13.81,14.23-5.56,3.95-10.61,8.27-15.02,13.23-19.18,21.58-42.43,37.81-67.2,52.13-6.31,3.65-13.67,4.27-20.28,7.08-1.27.54-3.1.79-3.81-.75-.38-.83.16-2.34.71-3.29,1.7-2.95,4.29-5.06,6.97-7.14,2.89-2.24,5.47-4.86,7.39-8.33-2.96,1.24-5.92,2.48-9.46,3.96-.32-3.74,2.17-5.27,3.98-6.65,10.17-7.76,17.5-18.29,26.73-26.97,9.19-8.64,14.19-20.23,20.16-31.02,8.02-14.48,12.62-30.72,22.26-44.37,3.24-4.58,2.4-8.93,1.21-13.65-.48-1.9.66-1.57,3.33-5.38,1.71-2.44,4.57-6.83.52-10.31-2.01-1.72-2.87-3.29-.69-5.28,3.49-3.2,2.92-6.85,1.23-10.54-2.15-4.69-1.98-8.7,2.49-12.05,1.65-1.24,3.61-2.79.99-5.16-2.4-2.16-4.37-.77-5.34,1.1-3.73,7.22-13.6,10.43-13.08,20.5.12,2.28-2.77,3.58-4.77,3.78-6.78.68-9.62,5.87-12.64,10.65-15.19,24.08-33.42,45.81-51.84,67.4-.74.87-1.73,1.53-3.43,1.82,2.05-13.96,15.32-22.55,18.58-37.99-6.84,5.56-10.55,11.58-14.95,16.95-1.2,1.46-1.9,3.34-3.13,4.78-1.02,1.2-2.14,3.24-3.98,2.47-2.22-.93-.55-2.84-.36-4.36.21-1.66-1.06-1.88-2.28-2.06Z" style="fill: #fea821; stroke-width: 0px;"/>
  <path d="M1108.32,410.8c-3.75,3.29-3.87,7.4-2.56,11.77,2,6.67,3.85,13.26,1.41,20.34-.97,2.81,1.26,5.49,1.89,8.26,1.84,8.12,5.21,16.02-.14,24.45-1.61,2.54-1.22,7.37-.03,10.49,4.18,10.91.25,21.77.38,32.61.05,3.87-.83,8.01-.94,12.06-.05,1.9.53,4.25-1.12,5.46-5.91,4.35-4.72,10.56-4.61,16.44.29,14.85.34,29.72.26,44.54-.07,12.23-3.19,24.47-5.29,36.66-1.41,8.2-3.5,16.29-5.06,24.47-.9,4.73-4.14,8.08-6.73,11.66-3.51,4.87-5.9,10.49-9.59,15.07-4.41,5.48-5.62,15.46-17.21,12.44-3.57-.93-8.43,2.63-12.57,4.42-3.35,1.45-6.23,2.36-8.8-1.38-1.63-2.38-3.99-3.44-6.82-1.65-10.06,6.36-21.14,9.38-32.92,10.44-2.25.2-4.81,1.35-6.5,2.86-10.35,9.31-23.79,11.71-36.19,16.29-4.22,1.56-7.55,5.24-12.41,5.12,2.85-9.12,5.69-18.24,8.53-27.36,6.65-8.52,14.28-16.2,21.24-24.45,2.73-3.24,5.78-7.05,10.65-2.32,1.97,1.92,3.49.04,4.75-1.42,2.71-3.13,5.42-5.94,10.11-6.05,3-.07,4.17-3.04,5.5-5.25,6.82-11.32,12.27-23.37,18.37-35.08,1.66-3.19,3-6.55,4.82-9.67,1.09-1.88,2.32-4.04,4.79-3.8,2.36.23,3.52,2.37,4.37,4.4,3.37,8.04,4.73,16.6,6.44,25.07.42,2.06-.04,4.36,1.53,6,.56.37,1.26.5,1.45.1,6.53-13.51,18.56-23.77,22.21-39.08,4.67-19.58,8.73-38.91,9.16-59.41.66-31.25-1.56-62.24-3.49-93.3-.18-2.84-.06-6.31-3.18-7.5-3.25-1.24-5.3,1.73-7.14,3.79-7.18,8.01-15.34,15.31-19.19,25.82-.58,1.59-1.5,3.08-2.87,4.09-11.98,8.81-23.57,18.2-36.53,25.6-1.87,1.07-3.85,2.04-6.15,1.47-2.62-5.4,2.52-6.98,5.09-9.22,8.69-7.55,17.03-15.37,24.01-24.57,1.89-2.49,3.64-5.03,4.84-7.93,6.74-10.32,13.46-20.66,20.6-30.72,1.66-2.34,2.8-4.88,3.79-7.53,15.46-19.22,29.04-39.52,36.35-63.41,2.05.12,2.84,1.69,3.43,3.24,4,10.45,7.97,20.9,11.82,31.4.47,1.28.19,2.84.26,4.27Z" style="fill: #fdb220; stroke-width: 0px;"/>
  <path d="M1056.47,435.3c.81,5.07-2.35,8.64-4.86,12.37-6,8.91-12.15,17.73-18.24,26.58-8.61,12.37-20.07,21.44-32.15,30.39-26.24,19.43-53.42,37.46-80.41,55.77-8.73,5.93-18.84,9.42-28.02,14.67-19.77,11.3-39.59,22.55-60.39,31.92-4.17,1.88-8.39,3.5-12.81,4.7-10.58,2.85-20.06.73-28.27-6.34-11.64-10.01-19.44-23-27.13-36.03-.97-1.64-1.66-3.5-.73-5.48,3.83-1.49,4.85,1.97,6.43,3.94,5.66,7.03,10.73,14.52,16.6,21.39,9.14,15.95,23.39,20.23,40.47,12.24,26.32-12.31,51.53-26.68,76.81-40.95,37.11-20.95,71.51-45.77,104.16-73.07,5.71-4.77,10.78-10.22,15.33-16.12,11.07-11.99,22.14-23.97,33.21-35.96Z" style="fill: #e87a23; stroke-width: 0px;"/>
  <path d="M1023.25,471.26c-2.18,7.9-8.44,12.75-14.17,17.59-28.9,24.37-59.34,46.79-91.9,65.96-30.09,17.72-60.43,35.13-92.33,49.51-16.1,7.26-33.52.59-39.43-14.64,6.37-.09,10.53,4.92,15.97,7.07,6.97,2.76,13.19,2.97,20.04-.1,50.66-22.74,98.77-49.94,144.07-82.09,2.34-1.66,4.58-3.49,7.41-4.32,4.18-1.28,6.55-5.07,10.06-7.28,7.71-3.48,13.22-9.94,19.91-14.8,7.16-5.2,12.75-12.29,20.39-16.9Z" style="fill: #d45622; stroke-width: 0px;"/>
  <path d="M851.79,95.17c-8.7-2.11-15.65-7.99-24.1-10.87-13.98-4.76-27.61-10.55-41.29-16.16-5.86-2.4-12.03-3.15-18.12-3.78-10.77-1.12-19.24-8.56-29.79-10.05-12.43-1.76-24.67-4.48-37.37-8.78,1.62,5.16,5.18,6.28,8.24,8,1.42.8,3.5,1.76,2.87,3.56-.51,1.47-2.62,2.15-4.37,1.83-22.95-4.22-46.52-4.5-69.19-10.1-8.81-2.17-17.77-2.36-26.38-4.36-11.52-2.67-22.89-6.14-34.47-8.73-2.15-.48-2.65-2.17-.49-3.52,1.79-1.12,3.79-1.9,6.26-3.11-3.28-2.55-7.05-2.82-10.17-2.89-18-.36-36.04-.93-53.99.07-13.25.74-26.38,3.73-39.56,5.76-22.91,3.53-45.44,8.89-67.55,15.69-26.56,8.18-52.28,18.5-76.61,32.18-17.12,9.62-35.21,17.61-51.9,27.88-28.05,17.25-56,34.77-80.54,57.1-5.97,5.43-12.16,10.06-15.29,18.11-3,7.72-11.88,10.86-16.19,17.86-1.37,2.23-3.01,4.29-4.53,6.42-8.36,3.49-16.63,7.26-25.97,7.26,2.7-8.68,10.31-13.68,15.82-20.08,17.95-20.86,38.08-39.61,59.58-56.79,23.26-18.59,47.57-35.74,73.11-51.09,22.26-8.89,45.02-16.6,67.62-27.05-2.46-2.41-4.88.96-6.65-2.32,23.96-7.55,47.79-15.07,71.63-22.58,17.71-2.76,34.83-8.09,52.3-11.87,21.96-4.75,44.01-8.79,66.58-8.18,6.54.18,12.77-1.6,19.27-1.63,53.75-.19,106.86,4.11,158.41,20.78,14.05,4.54,28.57,7.67,42.07,13.89v-.02c-2.45.37-5.1-.78-8.17,1.22,11.14,5.89,22.56,9.78,33.5,14.74,20.42,9.26,41.87,16.3,61.18,28,1.63.99,3.53,1.59,4.27,3.6Z" style="fill: #fed33d; stroke-width: 0px;"/>
  <path d="M879.17,112.47c-8.44-3.56-16.21-8.2-23.01-14.38,9.01,2.66,16.6,7.56,23.01,14.38Z" style="fill: #fed33d; stroke-width: 0px;"/>
  <path d="M761.02,47.63c8.85.75,17.09,3.41,24.69,7.99-8.68-1.27-17.04-3.53-24.68-8,0,0-.01.02-.01.02Z" style="fill: #fed33d; stroke-width: 0px;"/>
  <path d="M449.74,20.22c1.89-.05,3.78-.1,5.67-.15-1.53,1.79-2.95,3.95-5.67,1.65,0-.5,0-1,0-1.5Z" style="fill: #fedd7b; stroke-width: 0px;"/>
  <path d="M57.68,387.71c-1.61.81-2.32,2.19-2.9,3.88-10.46,30.35-17.4,61.49-21.56,93.3-4.86,37.15-4.27,74.49-4.29,111.82-2.35,7.03-3.14,14.26-2.81,21.63,1.28,28.55,6.47,56.69,10.67,84.82,3.53,23.65,6.42,47.51,11.22,71.06,2.11,10.36,5.73,20.01,8.51,30.03.55,1.98,2.05,3.86.14,6.72-6.67-9.22-10.36-19.34-13.3-29.82,2.22-19.74-4.33-38.21-8.8-56.86-4.17-17.38-5.27-35.34-10.07-52.47-5.22-18.6-4.85-37.68-7.01-56.54-.31-2.71-.76-5.18-2.86-7.08-1.83-1.52-1.36-3.66-1.5-5.63-.09-3.2.29-6.44-.68-9.58.26-4.47-.73-9,.59-13.42-1.12-44.66,5.56-88.52,14.82-131.94,5.63-26.39,14.02-52.15,24.21-77.22,5.65,4.54,6.29,10.72,5.62,17.31Z" style="fill: #feba47; stroke-width: 0px;"/>
  <path d="M61.98,724.43c-3.66-3.68-4.44-8.13-5.72-12.29-.41-1.32-2.23-3.18.39-4.12,1.86-.67,3.35.71,4.1,2.11,2.34,4.35,4.29,8.85,1.23,14.3Z" style="fill: #feba47; stroke-width: 0px;"/>
  <path d="M141.3,214.55c8.52-2.89,16.69-7.05,25.97-7.26,26.54-3.62,48.53,7.09,69.17,22.01,8.2,6.54,16.08,13.46,23.94,21.58,6.96-20.78,15.45-39.89,27.97-56.98,9.08-12.4,20.52-21.87,34.58-28.11,2.86,5.53-1.04,8.47-4.6,11.25-3.32,2.61-7.34,4.28-11.84,7.7,7.52.87,11.79,3.98,13.74,10.13.9,2.84,3.84,3.23,6.44,3.94,6.1,1.67,12.48.53,18.58,2.01,2.1.51,4.24.94,6.1,2.11,1.24.78,2.43,1.71,2.26,3.37-.17,1.71-1.56,2.63-2.98,2.63-10.3.01-19.29,5.49-29.2,6.87-3.45.48-5,2.11-6.22,4.98-1.23,2.91-1.66,5.45,1.07,7.79,2.39,2.05,3.32,5.42,5.78,7.31,5.74,4.42,8.72,9.41,5.34,16.75-1.33,2.9.91,3.82,3.31,4.09,5.05.56,9.9,1.91,14.59,3.81,3.5,1.42,5.68,3.88,4.51,7.84-1.09,3.69-4.19,4.36-7.55,3.83-4.25-.67-8.58-1-12.54-3.04-3.73-1.92-7.7-1.68-10.96.69-3.72,2.72-2.14,7.02-.7,9.95,5.86,11.95,4.51,22.94-2.1,34.19-3.52,5.99-1.02,10.51,5.64,12.66,3.43,1.11,6.94,1.99,9.9,4.17,1.94,1.44,4.06,2.94,3.45,5.79-.52,2.41-2.64,3.22-4.73,3.94-4.16,1.45-8.53,1.21-12.8,1.75-2.51.32-6.02.18-6.44,3.39-.41,3.11,2.75,4.24,5.24,5.08,6.38,2.15,12.65,4.55,18.62,7.7,8.14,4.3,8.83,6.03,6.73,14.84-2.7,11.37-3.17,23.44-10.89,33.18-6.83,8.62-14.42,16.59-20.29,26.06-3.18,5.14-9.53,5.37-15.08,3.28-13.93-5.24-27.91-10.38-39.33-20.55-8.31-7.4-18.29-12.16-28.05-17.39-8.72-4.68-17.56-8.47-27.08-11.11-5.83-1.61-10.8-5.2-14.41-10.3-1.99-2.81-4.47-5.01-7.66-6.36-5.32-2.24-7.48-7.27-10.16-11.76-1.83-3.06.21-5.46,2.15-7.69,8.23-9.44,19.27-13.28,31.13-14.92,5.42-.75,10.95-1.19,16.45-1.41-3.38.21-6.74-.21-9.79-1.55-4.97-2.18-10-2.97-15.41-2.46-2.73.26-6.49.73-7.47-2.68-1.06-3.68,2.43-5.3,5.04-6.97,1.21-.78,2.47-1.7,3.83-1.96,9.05-1.68,12.22-9.75,17.35-15.69,1.31-1.51.93-3.14.18-4.72-1.45-3.05-2.54-6.23-3.62-9.41-.98-2.87-2.77-3.94-5.94-4-7.48-.13-9.6-3.95-6.36-10.69.95-1.97,2.33-3.63,3.72-5.29,1.3-1.55,2.44-3.44,1.23-5.25-3.72-5.54-.52-8.78,3.43-12.11,3.06-2.58,4.53-6.19,5.04-10.1.43-3.33-1.64-5.06-4.23-3.18-6.25,4.55-13.31,3.14-20.11,3.72-6.53.56-11.77,3.94-16.53,8-3.65,3.11-7.41,6.11-11.03,9.26-3.76,3.27-6.86,3.49-8.41-3.16-4.79,7.01-10.48,11.46-17.99,13.54-2.82.78-4.24,3.76-6.19,5.86-4.02,4.32-7.08,9.79-13.32,11.57-3.79-3.65,1.47-5.71,1.51-8.7-4.59,9.98-11.13,18.91-15.63,28.95-2.25,2.46-2.83,6.4-6.62,7.51-3.73-.51-4.92,2.2-6.18,4.85-4.63,9.73-10.47,18.87-13.8,29.24-1.16,3.63-3.19,6.98-5.09,10.32-1.28,2.26-2.72,5.41-5.8,4.25-3.71-1.39-1.23-4.51-.63-6.81,1.81-6.85,5.28-13.13,7.08-19.39-2.98,8.22-6.68,16.78-9.32,25.73-.62,2.09-1.84,4.79-5.19,3.1-2.07-3.14-1.11-6.77-1.67-10.16.08-.96.16-1.92.25-2.89,6.69-7.35,9.92-16.78,14.41-25.33,19.35-36.86,42.43-71.19,67.81-104.07,1.27-1.64,1.82-3.83,2.7-5.76,1.89-1.14,3.79-2.27,5.68-3.41Z" style="fill: #fe5153; stroke-width: 0px;"/>
  <path d="M52.13,366.17c4.2-1.23,4.49-5.2,5.71-8.4,3.1-8.1,5.25-16.61,11.16-23.51-2.91,7.93-5.83,15.86-8.71,23.81-.53,1.46-1.99,3.41.13,4.34,2.02.88,2.71-1.37,3.43-2.8,6.98-13.78,12.14-28.43,19.97-41.79,1.38-2.36,1.85-7.72,6.98-3.89-.06,5.77-4.65,10.05-5.13,15.68-3.93,5.91-6.43,12.6-10.19,18.6-.59.77,1.1.43.17.18,2.3-3.24,3.3-7.29,6.27-10.12,4.95-3.95,8.11-9.43,12.14-14.17,2.21-2.6,4.35-5.41,8.08-5.38,5.02.05,7.76-2.79,10.3-6.61,1.9-2.86,4.13-6.62,8.38-2.62,1.55,1.46,2.54.42,3.61-.58.53-.49,1.04-1,1.52-1.53,4.89-5.28,9.76-10.02,17.97-5.96,9.13,4.51,14.64,12.25,13.52,21.61-1.02,8.53-1.9,17.19-5.65,25.15-.61,1.31-1.49,2.78-1.11,4.11,2.26,7.99-2.8,12.57-7.8,17.17-13.66,12.59-16,28.83-14.62,46.12.26,3.2.2,6.01-.94,9.05-2.5,6.67-1.27,9.96,5.02,13.63,3.96,2.31,4.51,4.09,0,6.18-2.29,1.06-4.27,2.47-3.73,5.42.5,2.71,2.61,4.18,4.99,4.63,13.17,2.48,25.93,7.16,39.47,7.58,5.07.16,9.97.9,14.94,1.86,45.84,8.94,91.36,19.69,137.82,25.19,9.75,1.15,19.55,1.9,29.3,3.17,2.36.31,4.84.12,6.8,1.88.52,1.92-.48,3.1-1.97,4.05-12.96,2.9-25.8.18-38.62-1.11-35.42-3.54-69.72-13.44-104.76-18.96-31-4.88-61.4-13.36-92.87-15.36-2.64-.17-5.26-.33-7.89-.06-.76.07-1.53.03-2.28-.09-11.16-8.97-21.74-18.47-28.49-31.46-10.43-13.69-19.75-28.08-27.39-43.52-1.87-5.77-3.75-11.54-5.62-17.31.02-1.41.05-2.82.07-4.23Z" style="fill: #fd292c; stroke-width: 0px;"/>
  <path d="M13.02,579.56c.1,4.75.2,9.5.3,14.25,1.3,2.78-.48,5.98,1.16,8.71.04,1.89.08,3.78.12,5.67-.85,20.1,2.98,40,2.04,60.13-1.14-10.33-2.91-20.65-3.3-31.01-.69-18.17-2.8-36.32-1.54-54.55.08-1.09.79-2.15,1.21-3.22Z" style="fill: #fedac5; stroke-width: 0px;"/>
  <path d="M339.98,62.36c-1.67,3.66-5.12,4.09-8.85,4.02,2.95-1.34,5.9-2.68,8.85-4.02Z" style="fill: #fed33d; stroke-width: 0px;"/>
  <path d="M556.07,55.7c-21.99.43-43.75,4.13-65.74,2.77,21.87-2.32,43.56-7.98,65.74-2.77Z" style="fill: #fed33d; stroke-width: 0px;"/>
  <path d="M566.72,55.79c8.59-1.87,17.05-4.02,25.55,0h-25.55Z" style="fill: #fed33d; stroke-width: 0px;"/>
  <path d="M607.98,56.55c-2.76,1.65-4.45,1.18-6.74.2,2.22-2.7,3.99-1.82,6.74-.2Z" style="fill: #fed33d; stroke-width: 0px;"/>
  <path d="M563.63,671.72c-1.12-6.92-7.72-7.96-12.06-8.19-8.59-.45-15.27-5.32-23.04-7.34-1.37-.36-3.18-1.77-3.94-1.31-10.97,6.69-17.38-3.51-25.63-6.74-1.77-.69-3.3-2.36-5.08-2.61-14.05-2.04-26.54-9.67-40.65-11.32-3.62-.42-5.9-3.01-8.94-4.33-3.96-1.71-7.76-4.04-12.12-4.27-5.13-.27-6.38-3.6-6.85-7.63-1.41-12.08-5.97-23.1-11.77-33.55-3.12-5.62-3.62-10.69-.7-16.27,7.33-14.01,13.55-28.6,22.3-41.87,3.19-4.83,5.45-10.16,4.53-16.27-.58-3.83,1.28-7.02,3.01-10.16,18.28-33.2,33.69-67.66,47.94-102.81,7.57-18.66,13.94-37.44,18.32-56.92,3.6-16.01,5.61-32.33,7.34-48.7,1.12-10.55.93-21.02,1.19-31.53.1-4.08.07-8.05-1.98-11.88-2.36-4.41-.71-7.68,4.23-8.24,12.83-1.45,25.34-4.66,37.67-8.02,13.98-3.8,26.1.83,38.59,5.02,2.36.79,4.66,1.28,7.03,1.01,9.04-1.03,15.88,6.06,24.58,6.52,2.41.13,2.38,3.29,2.27,5.46-.47,8.82-.12,17.62-.97,26.5-1.15,12.05,1.55,24.19,3.07,36.25,3.5,27.85,10.96,54.78,20.05,81.19,5.34,15.52,11.63,30.75,18.65,45.71,17.83,38,37.41,75.02,58.67,111.19,1.84,3.12,3.25,6.37,2.91,10.19-.62,6.98,5.17,12.33,5.15,19.09-.03,8.49.27,18.79-4.72,24.35-4.89,5.45-9.03,11.29-12.58,17.31-4.34,7.36-10.73,9.91-18.13,10.97-3.55.51-7.13.66-10.51,1.93-14.2,5.33-28.38,10.71-42.57,16.06-.67.25-1.39.79-2.01.71-10.87-1.47-20.39,4.25-30.66,5.61-6.62.88-12.45,3.36-18.38,5.75-4.25,1.71-8.22,3.77-13.02,3.31-4.09-.39-5.54,2.06-5.37,5.82-5.26,3.04-10.53,3.05-15.79-.01Z" style="fill: #fef289; stroke-width: 0px;"/>
  <path d="M563.63,671.72c5.26,0,10.53,0,15.79.01,18.19-.16,36.39.17,54.55-.59,21.27-.89,42.57-1.68,63.74-4.17,2.86-1.02,6,.43,8.82-.98,11.58.16,22.97-1.67,34.39-3.28,2.35-1.08,5.06.35,7.36-1.06,20.14-1.23,39.98-4.69,59.83-8.03,8.84-1.49,17.87-1.97,26.4-5.08.95-.74,1.91-1.51,3.1-1.76,20.42-4.26,40.76-9,61.27-12.74,11.81-2.16,23.47-.23,33.7,6.94,12.71,8.8,19.58,20.91,20.5,36.37-2.16,5.8-12.44,9.37-17.67,5.22-5.6-4.45-8.56-1.63-11.84,2.38-1.82,2.23-3.28,4.74-5.21,6.89-2.98,3.33-6.3,5.31-10.68,2.42-1.95-1.28-4.05-1.85-6.09-.59-14.99,9.28-30.9,6.98-46.75,3.51-8.63-1.89-16.99-1.48-25.68-.36-21.86,2.83-43.74,5.56-65.75,7.19-37.3,2.76-74.63,5.2-111.99,6.81-24.89,1.07-49.86,1.17-74.82-.56-14.08-.97-28.26-1.6-42.39-1.77-32.63-.41-65.1-3.57-97.64-5.34-18.2-.99-36.33-2.84-54.55-3.38-16.1-.48-31.95-3.38-47.94-4.89-23.41-2.22-46.76-4.91-69.92-9.1-5.21-.94-10.54-.43-15.82-.41-7.69.02-15.16-.25-22.61-3.11-8.13-3.12-16.02.23-23.66,3.3-2.75,1.1-5.19,3.85-8.63,1.9-.18-.49-.37-.98-.55-1.47-.63-3.3-.6-6.61-.02-9.91.89-12.16,7.45-21.47,15.15-30.21,7.99-10.56,19.69-14.19,31.67-13.03,16.9,1.63,33.39,6.55,50.03,10.22,1.68.37,3.06,1.34,4.36,2.43,29.95,6.3,60.18,10.82,90.52,14.82,43.71,5.76,87.59,9.15,131.6,10.97,15.78.65,31.59.34,47.39.47Z" style="fill: #2c1515; stroke-width: 0px;"/>
  <path d="M451.31,168.6c6.34,3.58,11.43,8.79,17.11,13.23,17.9,17.65,27.47,39.59,32.71,63.73.99,4.59,1.51,9.28,2.25,13.92.84,3.7.2,7.46.4,11.18,0,2.46,0,4.91,0,7.37,2.25,40.72-10.13,78.4-24.03,115.77-.67,1.8-1.53,3.51-2.74,5.02-15.21,10.68-32.35,18.33-47.02,29.91-2.85,2.25-5.14,3.93-3.91,8.1,1.15,3.92-1.12,7.23-4.64,7.66-13.03,1.6-19.86,11.32-27.88,19.78-2.65,2.79-4.76,7.79-10.36,5.58,1.42-6.97,7.24-11.01,11.06-16.37,2.8-3.93,5.91-7.5,6.39-12.61.29-3.14,2.69-4.85,5.1-6.58,11.56-8.26,19.89-19.16,25.63-32.08,1.19-2.68,2.96-4.91,4.63-7.25,4.15-5.83,3.58-8.39-2.81-11.97-5.24-2.94-10.68-5.46-16.62-6.71-2.11-.44-4.26-.85-6.27-1.61-3.83-1.46-9.5-1.52-8.94-7.46.53-5.72,5.53-7.49,10.39-8.36,6.52-1.17,13.27.4,20.56-1.15-2.84-3.63-6.53-4.04-9.76-5.3-8.1-3.16-9.5-8.4-3.03-13.87,10.44-8.84,16.97-19.82,20.64-32.86,1.59-5.63,6.1-9.12,11.19-11.59,5.18-2.51,7.54-5.74,4.15-11.34-1.96-3.25-1.23-6.47.69-9.5,4.84-7.67,7.76-15.89,7.65-25.09-.05-4.75,2.21-8.16,6.45-10.4,2.01-1.06,4.94-1.69,4.56-4.82-.38-3.17-2.62-5.15-5.58-5.94-6.9-1.84-10-6.69-9.79-13.31.43-13.38-3.98-25.4-9.31-37.28-2.21-4.94-2.06-5.01,1.12-7.83Z" style="fill: #e01b20; stroke-width: 0px;"/>
  <path d="M294.12,645.46c-12.31-2.51-24.85-4.26-36.89-7.72-17.94-5.15-34.26-3.63-49.17,8.1-6.83-2.35-13.3-5.63-18.51-10.51-9.24-8.66-19.08-16.69-28.06-25.55-5.82-5.74-10.37-13.16-12.56-21.4-3.39-12.72-5.69-25.58-4.81-38.9.26-3.96-1.05-8.01-1.26-12.04-.23-4.46,1.37-5.94,6.14-4.09,17.73,6.87,33.38,17.69,50.23,26.23,19.64,9.95,39.01,20.45,59.18,29.32,8.06,3.54,15.23,9.13,24.15,10.72,4.85-.05,8.45,3.1,12.54,4.96,8.28,3.77,16.2,8.27,24.73,11.59,19.57,7.62,38.57-2.85,47.48-14.49,12.67-16.57,25.04-33.36,36.46-50.83,1.67-2.56,2.62-6.51,7.07-6-2.73,8.85-8.74,15.89-13.48,23.55-8.06,13-17.05,25.43-25.74,38.03-9.05,13.12-21.65,21.07-37.32,22.99-11.95,1.47-22.93-3.5-33.8-7.95-9.5-3.89-18.62-8.78-28.8-10.91-2.36-.49-4.89-1.92-6.55.51-1.43,2.09.76,4.04,1.69,5.85,4.85,9.33,13.45,14.69,21.83,20.26,2.99,1.99,6.37,3.7,5.45,8.26Z" style="fill: #fed64e; stroke-width: 0px;"/>
  <path d="M932.54,642.82c-17.68-11.85-36.03-6.71-54.53-2.5-14.38,3.28-28.7,7.04-43.49,8.2,4.24-5.95,10.21-9.84,17.02-11.42,10.29-2.38,16.46-10.26,23.94-16.36,1.9-1.55,4.25-4.79,2.87-7.59-1.85-3.77-5.32-.82-7.64-.25-12.11,2.97-23.3,8.54-34.7,13.4-28.7,12.24-52.45-3.01-65.57-22.58-7.31-10.9-14.93-21.62-21.58-32.91-7.47-12.69-14.01-25.92-20.96-38.92,4.47-.47,5.36,3.5,7.02,6.06,13.17,20.27,25.91,40.81,40.55,60.11,7.34,9.67,16.04,17,27.75,20.5,12.02,2.4,23.37.29,34.16-5.21,12.19-6.21,24.6-11.91,37.22-17.2,7.29-3.06,14.29-6.81,20.75-11.47,4.1-2.96,8.4-5.7,13.1-7.48,23.5-8.87,43.69-23.6,64.96-36.42,2.26-1.36,4.77-2.42,6.76-4.1,7.15-6.04,14.72-.68,22.05-.9,2.18-.07,2.51,2.96,1.66,4.71-4.17,8.58-4.16,18.15-6.58,27.15-5.62,20.92-16.61,38.62-30.86,54.54-3.01,3.36-5.94,6.79-11.65,4.66-3.59-1.34-5.23,2.59-7.22,4.83-4.25,4.77-7.85,10.36-15.03,11.16Z" style="fill: #fed754; stroke-width: 0px;"/>
  <path d="M410.84,544.86c-8.69,9.59-14.47,21.23-22.29,31.44-7.11,9.28-13.45,19.2-21.01,28.09-10.02,11.78-28.48,20.97-47.04,13.87-13.23-5.06-25.71-11.59-37.94-18.64.01-.52.02-1.04.04-1.56,3.83-2.17,6.95.36,10.08,1.76,8.53,3.82,16.67,8.44,25.36,11.99,15.96,6.51,29.55,2.61,41.48-8.95,7.99-7.75,13.5-17.44,19.76-26.48,11.88-17.15,23.33-34.59,34.35-52.32,4.4-7.08,7.42-14.45,8.48-22.67,2.29-7.42,6.96-13.63,10.78-20.21,14.46-24.86,27.3-50.51,38.56-76.96.88-2.06,2.14-3.7,3.89-5.03,10.15-23.7,17.92-48.23,22.85-73.45,3.03-15.5,5.76-31.27,5.07-47.28.16-.73.55-.88,1.16-.44,4.11,28.73-1.37,56.52-8.41,84.13-6.45,25.33-17.01,49.17-26.91,73.24-11.4,27.71-27.19,53.23-40.33,80.08-5.02,10.26-11.89,19.61-17.92,29.37Z" style="fill: #efae5c; stroke-width: 0px;"/>
  <path d="M802.83,619.77c-11.93-2.4-20.35-9.82-27.57-19.08-16.16-20.74-29.62-43.3-44.05-65.21-.93-1.41-1.58-2.97-3.31-3.59,0,0-.06-.09-.06-.09-1.66-2.22-2.42-4.98-4.26-7.11-7.58-9.6-13.26-20.45-18.86-31.16-10.75-20.52-21.94-40.89-30.23-62.63-1.89-2.61-2.89-5.65-4.23-8.53-6.41-14.54-12.29-29.27-15.92-44.79-1.11-3.28-1.54-6.75-2.82-9.98l-.06-.1c-5.94-20.56-9.45-41.54-10.97-62.88-.18-2.59.12-4.73,2.37-6.27,2.2,11.31,4.22,22.66,6.62,33.93,6.01,28.21,15.51,55.26,27.25,81.57,2.42,5.42,4.26,11.1,7.66,16.04,3.52,1.48,4.01,5.1,5.48,7.95,4.87,9.45,10.22,18.69,13.89,28.73,5.51,15.74,13.98,30.03,22.74,44.03,16.8,26.84,32.09,54.62,50.27,80.6,3.47,4.96,7.22,9.57,11.65,13.66,10.89,10.06,23.32,12.69,37.33,7.75,9.78-3.45,18.73-8.66,28.04-13.09,2.61-1.24,5.29-3.81,8.47-.99-.12,2.97-2.52,3.88-4.62,4.9-8.99,4.4-17.81,9.14-26.97,13.21-8.99,3.99-18.26,4.79-27.85,3.13Z" style="fill: #eeac57; stroke-width: 0px;"/>
  <path d="M642.87,298.36c-.96,14.9.58,29.59,3.36,44.23,1.59,8.35,4.77,16.35,5.23,24.93-5.07-9.9-6.29-20.92-8.34-31.54-4.14-21.57-5.47-43.48-4.61-65.48.18-4.57.23-9.08,4.06-12.41.01,2.88.03,5.75.04,8.63-.8,5.75-.81,11.5,0,17.25.09,4.8.17,9.6.26,14.4Z" style="fill: #fed754; stroke-width: 0px;"/>
  <path d="M651.52,367.61c2.36,2.93,3.01,6.33,2.82,9.98-2.34-2.93-2.94-6.35-2.82-9.98Z" style="fill: #fed754; stroke-width: 0px;"/>
  <path d="M503.24,270.72c.04-3.75.09-7.49.13-11.24,2.3,3.73.97,7.77,1.01,11.69-.6.4-.98.25-1.14-.45Z" style="fill: #efae5c; stroke-width: 0px;"/>
  <path d="M670.26,422.38c2.39,2.36,3.71,5.25,4.23,8.53-3.25-1.93-4.21-5-4.23-8.53Z" style="fill: #fed754; stroke-width: 0px;"/>
  <path d="M723.58,524.7c2.92,1.47,3.82,4.15,4.26,7.11-2.85-1.51-3.76-4.18-4.26-7.11Z" style="fill: #fed754; stroke-width: 0px;"/>
  <path d="M706.54,665.99c-2.82,1.4-5.83,1.08-8.82.98,2.75-2.03,5.86-.85,8.82-.98Z" style="fill: #fed754; stroke-width: 0px;"/>
  <path d="M748.29,661.64c-2.33,1.21-4.82,1.33-7.36,1.06,2.22-1.98,4.87-.97,7.36-1.06Z" style="fill: #fed754; stroke-width: 0px;"/>
  <path d="M503.24,270.72c.37.18.75.33,1.15.45,0,2.29.01,4.58.02,6.87-.4.11-.79.25-1.16.43,0-2.58,0-5.17,0-7.75Z" style="fill: #fd2e31; stroke-width: 0px;"/>
  <path d="M702.1,466.77c-5.9-12.29-11.8-24.59-17.71-36.88,2.32-3.03,4.42-.63,4.86,1.01,3.11,11.49,13.5,16.36,21.27,23.37,12.99,11.72,24.35,24.93,36.24,37.66,14.84,15.88,27.5,33.61,41.48,50.2,17.43,20.68,31.45,22.44,59.53,9.53,12.15-5.58,24.58-10.66,36.18-17.53,6.07-3.59,13.55-4.31,20.33-6.55,21.03-6.95,41.96-14.42,63.84-18.5,1.87-.35,3.24.53,4.77,1.15-9.31,9.76-21.04,16.4-32.14,23.6-33.08,21.44-67.53,40.6-103.14,57.52-8.04,3.82-15.75,9.24-25.1,9.6-10.67.41-18.73-5.9-27.09-11.28-8.77-7.37-13.42-18.13-21.44-26.11-8.85-8.18-14.86-18.55-21.45-28.4-14.75-22.03-28.77-44.52-40.42-68.39Z" style="fill: #b51d21; stroke-width: 0px;"/>
  <path d="M642.61,283.95c-1.93-5.75-1.92-11.5,0-17.25,0,5.75,0,11.5,0,17.25Z" style="fill: #eeac57; stroke-width: 0px;"/>
  <path d="M451.31,168.6c-2.15,1.49-1.42,3.26-.49,5.05,4.21,8.06,6.96,16.68,9.69,25.31,1.69,5.36-.18,10.89.73,16.31.85,5.09,2.29,9.28,8.52,9.67,5.46.34,6.96,5.11,7.94,9.04.9,3.61-3.55,3.89-5.85,4.94-4.57,2.07-6.56,5.19-6.27,10.13.53,8.98-2.63,16.92-7.38,24.29-2.06,3.2-3.48,5.89-.52,9.64,3.75,4.74,2.64,8.97-3.09,11.49-7.96,3.5-11.82,9.23-14.65,17.88-3.13,9.55-7.97,19.38-17.19,25.67-2.62,1.79-6.25,3.79-5.79,7.62.53,4.42,5.03,4.5,8.25,5.81.43.18.97.09,1.41.24,3.79,1.34,9.16,2.79,8.72,6.87-.36,3.36-5.82,1.38-9,1.74-6.13.69-12.47-1.3-18.45,1.49-2.73,1.27-5.37,2.86-5.35,6.12.03,3.49,3.4,3.59,5.81,4.22,9.5,2.48,18.99,4.92,27.49,10.1,5.77,3.52,7.12,7.36,3.14,12.19-7.11,8.63-9.92,19.88-17.95,27.99-4.82,4.88-8.35,11.03-15.03,13.93-1.24.54-3.1,1.67-3.16,2.62-.82,13.87-13.11,20.46-19.35,30.85.92,2.22-.6,3.63-1.87,4.91-5,5.03-9.15,10.77-13.67,16.19-1.56,1.88-2.94,4.51-6.23,3.44-18.56-1.01-37.01-3.14-55.38-5.82-26.15-3.81-52.1-8.79-77.92-14.35-22.33-4.81-44.73-8.96-67.44-11.64-8.71-1.03-17.2-3.82-25.86-5.42-4.98-.92-9.15-2.82-9.32-8.2-.16-5.19,4.05-6.83,9.08-7.39-5.06-.48-8.75-2.95-10.14-7.03-1.43-4.2-1.99-8.98,1.93-12.73.96-.92.73-2.01.5-3.28-3.66-19.76.15-37.24,15.32-51.52,3.72-3.5,10.54-6.54,5.13-13.81-.32-.44.33-1.86.84-2.61,5.21-7.65,5.08-16.82,6.97-25.33,2.4-10.81-5.86-21.74-16.75-23.71-3.07-.56-5.07.78-6.89,2.85-3.31,3.75-6.6,7.53-9.55,10.92-3.94-1.72-.95-6.09-4.36-6.09-2.24,0-3.31,2.46-4.31,4.41-2.41,4.71-5.09,8.44-11.62,6.78-3.05-.77-4.66,2.77-6.5,4.93-4.32,5.05-7.36,11.23-13.24,14.88-1.7-1.75-1.21-3.65.07-5.2,5.1-6.19,7.16-14.02,11.32-20.71.41-2.04,1.43-3.82,2.43-5.61.46-.48.97-.93,1.5-1.33,6.13-5.48,7.83-13.72,12.5-20.12.28-.19.56-.37.84-.55,3.15-1.04,4.8-3.88,7.05-5.98,6.25-5.84,10.19-14.16,20.1-15.94,6.26-1.12,7.32-9.82,13.35-12.04,1.24.93,1,1.79.65,2.72-.61,1.61-1.25,3.64.34,4.63,1.8,1.12,2.8-1.12,4.12-2.01,7.07-4.77,12.54-11.35,20.32-15.64,5.43-2.99,10.64-2.61,15.33-2.48,4.77.13,8.21-.72,11.64-3.33,2.12-1.61,4.5-2.33,6.69-1.06,2.55,1.47,1.71,4.4,1.19,6.56-1.25,5.17-3.09,10.15-8.19,12.99-2.74,1.52-4.44,3.87-1.55,6.19,4.84,3.88,1.92,6.7-.88,9.28-1.87,1.72-2.92,3.74-3.99,5.86-1.03,2.04-1.46,4.14.1,6.08,1.49,1.85,3.35,1.33,5.24.59,4.48-1.77,6.59.34,7.77,4.53,1.16,4.13,2.1,8.4,4.93,11.87.96,1.18,1.75,3.21.37,3.81-7.83,3.39-7.34,15.46-18,16.4-3.85.34-11.19,2.94-10.19,7.16.9,3.8,7.75,1.67,12.12,1,3.84-.59,6.46,2.91,9.99,3.52,5.25.91,10.52,1.72,15.72,3.79-9.71,1.2-19.48,2.02-29.11,3.71-7.58,1.33-14.7,4.24-20.51,9.68-6.96,6.5-6.07,15.14,2.69,19.18,4.59,2.12,7.86,4.9,10.72,8.95,3.74,5.29,9.56,7.91,15.66,9.58,20.06,5.47,37.76,15.61,53.66,28.57,11.85,9.66,25.66,14.76,39.55,19.84,5.21,1.9,10.5.29,13.15-5.59,4.03-8.96,11.73-15.01,17.64-22.48,6.59-8.34,8.66-18.45,10.16-28.68.03-.24.01-.48.05-.72,2.49-14.5,2.52-14.57-11.49-20.35-4.84-2-10-3.27-14.75-5.46-2.41-1.11-5.38-2.85-4.82-6.38.53-3.34,3.72-3.1,6.13-3.97,5.05-1.82,10.56.16,15.58-2.11,1.68-.76,4.1-.37,4.41-2.83.32-2.47-2.22-2.78-3.62-3.93-2.7-2.21-5.96-2.94-9.26-3.57-9.94-1.89-10.37-9.27-6.43-16.3,5.52-9.83,8.29-19,2.25-29.53-1.59-2.77-1.99-6.39-2.3-9.67-.51-5.35,8.95-10.2,14.24-6.6,4.57,3.11,9.63,2.51,14.29,4.16,2.47.88,4.91.18,5.61-2.84.64-2.75-.47-4.63-3.3-5.44-5.01-1.43-9.77-3.67-15.18-3.66-5.72,0-7.07-2.56-4.18-7.4,1.89-3.17,2.6-7.26-.09-9.28-4.72-3.55-7.44-8.55-11.34-12.62-1.38-1.44-4.99-2.55-3.26-4.54,2.97-3.41,1.56-11.4,6.75-10.71,9.15,1.2,15.32-6.25,23.78-5.97,3.46.11,6.96-.73,11.49-1.26-4.43-4.61-9.42-4.54-14.13-5.05-3.55-.39-7.11-.17-10.72-.68-5.98-.85-10.42-2.46-11.59-9.31-.6-3.49-3.75-4.6-7.27-4.5-2.06.06-5.11.79-5.68-1.72-.64-2.83,2.61-3.51,4.58-4.7,2.67-1.6,5.29-3.3,8.04-4.74,4.25-2.23,6.36-5.66,6.4-10.42,13.71-8.44,29.04-12.27,44.68-14.14,18.36-2.19,36.76-1.25,54.78,3.58,10.21,3.21,20.34,6.6,28.91,13.37Z" style="fill: #fd2e31; stroke-width: 0px;"/>
  <path d="M520.16,76.61c-9,10.47-19.89,11.22-30.4,12.72-6.18.88-12.19,2.09-17.99,4.47-13.45,5.5-27.93,7.94-41.43,12.91-20.39,7.5-41.24,14.05-60.63,24.16-5.71,2.97-11.54,5.32-18.11,6.5-7.37,1.32-12.28,7.92-18.52,11.85-16.13,10.17-32.41,20-49.59,28.32-1.74.84-3.44,1.76-5.97.45,11.59-10.21,21.6-21.57,34.59-30.15,24.54-16.19,51.41-27.25,78.07-39.05,21-9.3,42.86-15.83,64.67-22.5,10.25-3.13,22.04-2.05,31.63-6.28,11.27-4.97,21.94,2.1,33.67-3.39Z" style="fill: #feec91; stroke-width: 0px;"/>
  <path d="M193.25,918.07c-3.36,3.5.96,5.77,1.39,8.67-8.01-3.02-13.37-9.54-19.5-14.97-12.89-11.41-24.69-23.77-31.7-39.99,18.48,13.44,32.67,31.46,49.81,46.29Z" style="fill: #fea226; stroke-width: 0px;"/>
  <path d="M111.09,837.37c-.71-2.5-4.56-3.75-2.87-7.2,10.69,8.21,17.82,19.17,22.63,31.43,4.33,11.02,11.26,20.39,17.11,30.46,1.14,1.96,3.12,3.51,2.82,6.46-6.09-3.02-6.65-10.64-12.29-13.62-5.38-8.81-10.2-18.04-16.32-26.3-4.9-6.6-7.39-14.16-11.08-21.23Z" style="fill: #fea226; stroke-width: 0px;"/>
  <path d="M209.02,939.74c8.58,6.15,13.07,15.21,17.44,24.37-4.84-3.35-9.69-6.68-14.52-10.05-6.63-4.63-7.25-7.76-2.92-14.32Z" style="fill: #fea226; stroke-width: 0px;"/>
  <path d="M193.48,687.43c8.71-4.49,18.24-11.29,27.48-8.09,17.53,6.07,35.54,2.05,53.09,5.72,17.43,3.65,35.3,5.26,53.1,6.83,15.17,1.35,30.3,3.26,45.4,5.24,8.55,1.12,17.13.6,25.73,1.53,18.25,1.98,36.71,2,55.04,3.29,30.27,2.13,60.59,3.23,90.89,4.7,35.18,1.7,70.34,3.08,105.51,2.24,26.16-.62,52.35-2.34,78.4-4.5,27.74-2.3,55.68-2.76,83.23-7.87,8.3-1.54,17-1.83,25.5-3.17,10.38-1.64,20.44,1.88,30.42,3.69,12.22,2.22,23.02.59,33.42-5.7,3.12-1.88,5.62-4.05,8.32,1.42,2.12,4.28,5.37.78,7.35-1.5,3.28-3.78,5.16-8.68,9.18-11.89,3.53-2.82,7.15-5.89,9.91.88.55,1.35,1.51,2.72,3.19,2.38,3.66-.74,6.98-2.43,11.08-1.8,2.17.33.93-3.14,1.52-4.82,4.56,3.91,4.61,7.25.22,14.38-5.99,19.63-12.13,39.19-20.49,57.99-30.36,68.27-76.17,123.73-137.65,166.22-1.95,1.35-4.11,2.4-6.17,3.59-3.52-3.02-4.07-4.75-.68-7.43,12.05-9.48,22.01-21.48,35.38-29.33,6.13-3.6,10.88-8.41,14.15-14.8-3.8,1.85-6.75,4.72-9.63,7.76-1.6,1.68-3.38,4.29-5.89,2.97-2.34-1.23-.69-3.88-.31-5.91.22-1.18.57-2.33.62-3.54.15-3.45-1.15-4.53-4.27-2.59-1.02.63-1.92,1.44-2.9,2.13-2.35,1.65-4.82,3.94-7.73,1.67-2.67-2.08-1.85-5.23-1.13-8.03.89-3.49,2.26-6.83,3.57-10.18,2.45-6.28,1.23-8.23-5.65-8.62-7.68-.44-15.31.67-22.96,1.11-15.62.9-31.27.95-46.84-1.88-8.25-1.5-16.71-1.74-24.91,1.14-2.53.89-5.31,1.4-7.81.57-12.44-4.12-25.24-2.41-37.88-2.35-14.64.07-29-1.91-43.39-3.99-3.19-.46-5.26,2.22-8.17,2.25-3.25.39-6.48.29-9.69-.31-7.1-1.76-14.31-.49-21.46-.81-31.4-1.4-62.05,3.34-92.35,11.16-12.09,3.12-23.64,7.75-35.18,12.4-4.22,1.7-8.31,3.72-12.76,4.79-9.84,3.32-20.5.65-30.34,4.13-1.81.64-3.89.53-5.7-.08-10.83-3.65-21.82-1.57-32.77-1.09-1.68.07-3.4.42-5.03.1-10.33-2.03-20.46-1.28-30.62,1.37-5.11,1.33-10.42,1.61-15.44-1.15-1.63-.9-4.08-1.86-5.32-.06-1.61,2.33.92,3.93,2.35,5.31,11.26,10.86,23.41,20.62,36.5,29.19,3,1.97,6.29,3.66,8.54,6.54,2.69,3.42,3.83,6.86-1.29,9.3-35.32-22.08-65.54-49.88-91.73-82.12-34.89-42.94-59.41-91.25-74.07-144.58-.36-1.93-1.59-3.71-.93-5.8Z" style="fill: #641d1d; stroke-width: 0px;"/>
  <path d="M423.7,501.54c-.19,10.02-5.03,18.28-10.2,26.33-14.98,23.31-29.96,46.63-46.51,68.89-15.68,21.09-32.61,25.25-56.33,14.02-9.28-4.39-17.94-10.19-28.07-12.7-15.4-8.63-30.75-17.36-46.22-25.87-26.2-14.41-50.96-31.05-75-48.73-12.95-9.52-25.67-19.49-37.5-30.34-11.29-10.36-19.07-23.76-27.35-36.6-2.98-4.61-5.94-9.23-8.91-13.85-2.26-3.51-3.79-7.17-2.54-11.45,9.09,10.05,18.18,20.09,27.26,30.13,11.65,25.33,35.21,38.57,56.01,54.37,38.12,28.95,79.97,51.9,122.47,73.64,10.02,5.12,20.29,9.8,30.56,14.42,16.36,7.35,33.96-.36,40.47-17.23,6.05-9.45,13.34-17.99,19.91-27.07,11.77-16.25,22.88-32.94,33.71-49.82,3.14-2.3,2.95-8,8.23-8.13Z" style="fill: #eb9535; stroke-width: 0px;"/>
  <path d="M137.03,735.04c-2.9,9.59-5.79,19.18-8.69,28.78.31-5.14-5.95-4.79-7.21-8.62-5.06-14.2-4.16-28.98-4.25-43.66,0-1.67-.26-3.46.24-5,.99-3.07,3.2-5.84,6.17-6.51,3.06-.68,4.25,2.62,5.21,5.02,3.7,9.22,8.86,18.31,3.52,28.66-.57,1.1-.96,2.68.09,3.3,2.2,1.3,3.08-1.73,4.93-1.98Z" style="fill: #fed28b; stroke-width: 0px;"/>
  <path d="M34.74,608.11c-2.96-17.81.93-35.46.18-53.22l2.17-.12c.67,7.73,1.34,15.46,2.01,23.19,1.73,8.44.58,16.94.37,25.4-.06,2.36.06,6.41-4.73,4.75Z" style="fill: #fee4a4; stroke-width: 0px;"/>
  <path d="M34.74,608.11c3.25-.12,2.78-2.58,2.9-4.65.49-8.5.97-17,1.46-25.5,2.81,6.94,2.88,14.23,2.83,21.54-.06,8.71-.01,17.43-.01,26.92-4.2-2.06-5.97-4.56-5.8-8.54.14-3.32.33-6.69-1.37-9.77Z" style="fill: #feba47; stroke-width: 0px;"/>
  <path d="M42.41,668.92c-1.8-3.73-4.09-7.35-2.98-12.23,2.61,4,2.78,8.13,2.98,12.23Z" style="fill: #feb01e; stroke-width: 0px;"/>
  <path d="M192.9,676.05c0,3.3.02,6.61.02,9.91-1.76-3.3-1.73-6.6-.02-9.91Z" style="fill: #fead1d; stroke-width: 0px;"/>
  <path d="M141.18,733.75c-1.38.43-2.76.86-4.15,1.29,0-2.77,1.42-4.11,4.16-4.11,0,.94-.01,1.88-.01,2.82Z" style="fill: #fed28b; stroke-width: 0px;"/>
  <path d="M951.47,690.4c-.82-4.78,3.24-9.64-.22-14.38-.68-14.2-8.16-24.56-18.71-33.2,7.14-4.22,12.2-10.6,17.5-16.76,1.85-2.15,3.77-4.78,6.59-.61,1.55,2.29,3.42.7,4.76-.76,9.54-10.39,18.58-21.04,24.82-33.97,6.72-13.92,11.65-28.17,12.75-43.65.08-1.1.93-2.15,1.48-3.19,1.08-2.06,3.52-4.09,2.04-6.43-1.42-2.24-3.31.68-5.06.62-.87-.03-1.91-.29-2.57-.82-4.64-3.74-8.77-1.83-13.14.71-14.05,8.15-27.6,17.09-41.8,25.05-32.28,18.09-65.24,34.75-98.66,50.58-10.57,5-21.22,8.77-33.12,7.61-1.87-.18-3.9.35-5.33-1.43,23.07,2.01,40.77-10.63,59.06-21.64,3.35-5.58,9.91-6.36,14.76-9.72,4.5-3.12,9.63-5.38,14.75-7.46,4.75-1.64,9.32-3.61,13.09-7.07,11.13-6.9,22.55-13.34,33.5-20.51,17.17-11.24,34.34-22.49,50.74-34.85,2.54-1.91,4.77-4.88,8.68-3.98,12.94-4.95,22.77-14.8,34.38-21.71,11.73-6.98,13.41-20.99,23.23-28.96,3.87-3.14,6.76-7.47,10.49-10.82,3.79-3.4,6.74-2.59,8.54,2.54,2.35,6.71,1.6,13.8,2.13,20.58.83,10.68,2.52,21.37,2.02,32.21-.34,7.36,1.01,14.91.88,22.14-.36,20.87,1.07,42.04-3.93,62.55-4.56,18.68-8.36,37.88-23.07,52.26-1.7,1.66-1.99,4.78-2.93,7.22-.99,2.59-2.88,5.49-5.26,5.29-2.87-.23-2.95-3.99-3.16-6.41-.78-8.87-2.96-17.39-5.68-25.8-.78-2.43-.96-6.06-3.88-6.2-2.49-.12-2.88,3.45-3.9,5.52-7.54,15.23-14.65,30.69-23.66,45.13-1.42,2.27-2.04,7.44-7.76,3.93-2.1-1.29-4.84,3.16-6.68,5.57-2.54,3.33-4.67,7.18-7.81.47-1.6-3.43-3.42-1.36-4.87.26-5.58,6.23-11.14,12.48-16.6,18.81-2.48,2.88-4.35,6.39-8.57,7.15.13-5.28,3.24-10.54.15-15.85Z" style="fill: #fec337; stroke-width: 0px;"/>
  <path d="M360.21,919.92c3.88-5.03,1.3-7.96-3.12-10.79-15.52-9.96-30.2-21.03-43.26-34.11-1.89-1.89-5.38-3.74-2.94-7.07,2.24-3.05,5.86-2.37,8.45-.54,6.36,4.51,13.09,2.27,19.24.73,7.88-1.98,15.41-2.66,23.31-.83,7.26,1.69,14.55-.77,21.93-.55,6.41.19,12.67-.59,18.92,1.67,1.93.69,4.61,1.11,6.31.31,9.36-4.45,19.78-.43,29.18-3.98-.26,4.38-4.3,4.68-7,6.03-18.17,9.08-34.97,20.23-50.79,32.91q-13.26,10.56,1.41,17.86c42.59,20.99,87.61,33.35,134.66,39.64,25.1,3.35,50.14,4.47,75.31,3.83,35.39-.9,70.2-6.22,104.19-16.14,25.6-7.47,50.56-16.72,73.78-30.1,7.51-4.33,7.58-4.91,1.27-10.39-12.54-10.88-26.06-20.37-40.46-28.63-6.57-3.86-13.09-7.84-20.14-10.81-29.39-14.14-60.16-23.72-92.51-28.15-2.57-.35-6.02.64-6.82-3.42,7.07-5.19,15.09-1.75,22.01-.84,9.1,1.19,18.12,2.22,27.28,2.25,8.65.03,17.29.05,25.94-.01,3.87-.03,7.6.06,11.17,2.01,2.85,1.56,6.25,1.52,9.14.44,14.02-5.22,27.79-1.66,41.62.7,1.63.28,3.33,1.25,4.84.98,15.12-2.67,30.44-1.46,45.65-2.46,14.76-.97,15.26.43,10.2,13.67-1.11,2.91-2.1,5.87-2.92,8.87-.49,1.81-1.05,4.08.73,5.36,2.03,1.45,3.5-.43,4.92-1.7,1.07-.96,2-2.27,3.26-2.79,2.3-.95,4.02-4.56,6.84-2.68,2.47,1.65,1.29,4.95,1.06,7.42-.25,2.7-1.45,5.32-2.51,8.89,5.18-4.87,9.55-9.15,14.16-13.18,1.28-1.12,3.21-3.04,4.99-1.4,1.79,1.65.09,3.82-.98,5.14-4.91,6.06-9.39,12.44-17.09,15.78-8.27,3.58-13.19,11.66-20.45,16.78-4.67,3.29-8.65,7.54-13.11,11.14-2.58,2.08-3.31,3.98-.69,6.44-19.56,14.4-41.21,24.97-63.47,34.35-59.57,25.09-121.75,34.35-185.99,28.82-63.24-5.44-121.72-25.6-175.42-59.5-.79-.5-1.39-1.29-2.08-1.94Z" style="fill: #862629; stroke-width: 0px;"/>
  <path d="M128.33,763.84c-.02,2.43-.05,4.87-.07,7.3-2.04-2.45-1.76-4.88.07-7.3Z" style="fill: #fed28b; stroke-width: 0px;"/>
  <path d="M985.91,852.07c-.14,4.92-3.61,7.8-6.21,10.54-13.48,14.23-25.84,29.62-41.46,41.72-2.31,1.79-5,5.37-7.84,2.32-2.37-2.55-.18-5.7,2.2-8.12,10.9-11.09,22.56-21.47,31.53-34.35,4.34-6.24,12.06-8.49,17.16-14.01,2.35-2.55,4.23-.98,4.62,1.9Z" style="fill: #feab53; stroke-width: 0px;"/>
  <path d="M1033.76,749.36c-15.38,36.89-37.07,69.91-61.36,101.38,20.45-33.79,40.9-67.59,61.36-101.38Z" style="fill: #fee3bd; stroke-width: 0px;"/>
  <path d="M997.42,514.54c-29.81,21.63-60.04,42.6-92.29,60.52-4.05,2.89-8.95,4.25-12.97,7.19-10.09,5.29-20.18,10.58-30.27,15.88-10.66,4.89-21.3,9.81-31.97,14.67-22.81,10.39-39.74.74-51.19-15.88-25.79-37.43-49.47-76.23-70.95-116.33-2.33-4.34-5-8.72-5.68-13.82,7.11,11.8,14.14,23.66,21.35,35.4,11.85,19.28,24.25,38.2,37.58,56.5,1.12,1.53,1.96,3.26,2.94,4.9,7,15.91,16.46,30.19,29.79,41.41,11.53,9.71,24.12,6.72,36.41,1.08,24.79-11.38,48.14-25.5,72.24-38.19,30.08-15.83,57.66-35.44,84.83-55.64,9.94-7.39,20.45-13.95,30.13-21.77,6.06-4.89,9.25-12.27,16-16.22-6.03,13.25-16.95,22.29-27.47,31.64-3.05,2.71-6.27,5.17-8.49,8.66Z" style="fill: #ed983a; stroke-width: 0px;"/>
  <path d="M612.51,38.84c28.65,2.23,57.56,1.3,85.25,10.68-4.79,2.24-75.56-5.81-85.25-10.68Z" style="fill: #fef3b4; stroke-width: 0px;"/>
  <path d="M14.48,602.52c-2.08-2.68-1.16-5.76-1.16-8.71,2.17,2.67.99,5.78,1.16,8.71Z" style="fill: #fec669; stroke-width: 0px;"/>
  <path d="M97.86,308.34c-.35.15-.67.34-.97.58-.88-.69-1.02-1.5-.41-2.44,4.31-11.25,11.51-20.8,18.48-32.04.17,5.57-3.85,8.24-4.07,12.21,0,0,.03.05.03.05-4.92,6.87-7.54,15.13-13.06,21.64Z" style="fill: #feb8bb; stroke-width: 0px;"/>
  <path d="M96.48,306.48c.14.81.27,1.63.41,2.44-.6,1.7-1.2,3.4-1.8,5.1-4.66,4.15-4.08,11.85-10.18,15.02-.55-6.02,3.23-10.35,5.89-15.12,1.89-2.48,3.78-4.97,5.68-7.45Z" style="fill: #febbbf; stroke-width: 0px;"/>
  <path d="M114.11,461.24c7.06-2.69,14.42-.7,21.1.39,18.49,3.02,36.97,6.39,55.37,10.11,17.66,3.57,35.55,6.25,53.31,9.59,29.42,5.53,58.48,13.04,88.6,14.82,9.29.55,18.58.69,27.87,1.14,9.27-.44,17.58,3.32,26.11,6.07,1.16.37,1.85,1.43,1.41,2.83-8.34,4.03-13.15,11.6-18.68,18.49-6.74,8.39-13.1,17.11-21.65,23.91-12.61,10.02-26.11,10.51-40.56,4.78-15.16-6.01-29.83-13.13-44.8-19.56-29.35-12.6-59.37-23.22-90.84-29.25-2.6-.5-5.17-1.05-7.83-.52-5.78.34-8.77-4.42-12.63-7.3-11.65-8.7-22.57-18.3-32.98-28.46-1.91-1.87-4.78-3.49-3.79-7.03Z" style="fill: #e00d13; stroke-width: 0px;"/>
  <path d="M387.78,505.89c-8.61-4.54-18.58-4.77-27.42-8.6.46-.98.92-1.96,1.37-2.94,8.38-7.18,14-16.82,21.77-24.54,6.92-2.47,11.13-8.32,15.15-13.69,4.9-6.55,10.56-10.8,18.57-12.11,5.6-.92,10.3-2.55,6.13-9.72-1.28-2.2-.25-3.64,1.71-4.65,12.65-6.58,22.36-17.87,36.5-22.25,4.97-1.54,7.34-8.43,13.77-8.19-13.44,34.44-31.12,66.73-49.82,98.5-.71,1.21-1.21,2.55-1.81,3.83-3.67,1.84-3.34,6.86-6.95,8.75-1.92,1.15-4.03,1.79-6.18,1.13-7.49-2.3-15.64-1.87-22.79-5.53Z" style="fill: #c52c32; stroke-width: 0px;"/>
  <path d="M114.11,461.24c14.46,16.04,30.9,29.8,48.74,41.91,3.77.63,6.27,3.41,9.14,5.5,45.74,33.35,94.93,60.73,145.96,85.01,13.96,6.64,26.45,4.21,38.65-3.95,2.04-1.36,3.53-4.22,6.75-2.99-4.01,15.1-23.17,27.66-42,19.14-26.62-12.05-52.68-25.29-78.08-39.72-28.27-16.07-55.94-33.14-81.69-53.07-15.63-12.1-32.52-22.83-44.38-39.24-2.72-3.76-4.89-7.66-4.86-12.46.59-.04,1.18-.08,1.78-.12Z" style="fill: #d85818; stroke-width: 0px;"/>
  <path d="M84.92,329.05c4.45-4.29,5.05-11.19,10.18-15.02-2.45,7.1-5.99,13.65-10.23,19.8-1.38,2-2.72,3.81-2.64,6.33-2.12,4.59-6.35,7.99-6.86,13.48-1.95-5.25,3.79-19.09,9.55-24.59Z" style="fill: #fe5153; stroke-width: 0px;"/>
  <path d="M97.86,308.34c3.48-7.74,7.21-15.33,13.06-21.64-3.23,7.89-5.39,16.43-13.06,21.64Z" style="fill: #fe5153; stroke-width: 0px;"/>
  <path d="M611.12,837.38c9.92,1.91,19.84,3.8,29.75,5.74,24.87,4.85,48.44,13.43,71.09,24.66,5.18,4.57,11.11,8.19,15.86,13.37,10.34,11.27,10.09,18.3-1.11,28.58-22.45,20.61-48.68,32.22-78.95,36.4-31.45,4.35-62.92,6.62-94.6,5.53-11.94-.41-23.74-2.91-35.62-4.39-18.53-2.3-37.17-4.38-54.63-11.79-3.75-1.83-6.62-4.64-9.17-7.91-4.79-6.14-10.62-11.44-17.56-14.62-8.5-3.9-12.59-12.3-19.9-17.31-3.23-2.21-1.37-5.7.63-8.29,4.16-5.4,9.39-9.84,15.26-13,16.21-8.71,31.62-19.25,49.75-23.85,18.34-4.65,36.93-7.4,55.9-8.53,14.25-.84,28.22-.55,42.24,1.8,4.83.81,8.82-1.61,12.66-4.21,2.53-1.72,4.94-4.06,8.44-2.3,3.32.03,6.63.07,9.95.1Z" style="fill: #de3343; stroke-width: 0px;"/>
  <path d="M601.17,837.28c-1.16.23-2.79.05-3.42.75-8.21,9.2-18.51,8.62-29.14,6.38-9.49-1.99-19.04-.13-28.42-.52-11.52-.47-22.6,1.87-33.66,3.14-11.81,1.35-24.5,2.86-35.16,8.68-14.88,8.12-31.11,13.91-44.46,24.78-2.22,1.81-4.44,3.64-6.46,5.66-6.18,6.19-5.71,5.67,1.22,11.05,5.28,4.1,7.9,11.29,15.01,13.66,2.74.91,4.75,3.22,7.15,4.67,7.78,4.71,11.81,13.1,18.89,18.4,3.09,2.63,7.23,3.53,10.29,6.16,1.35,1.16,4.43,1.87,2.02,4.75-9.93,2.19-19.52-.65-28.85-2.94-14.35-3.52-28.48-8.08-42.15-13.84-8.4-3.54-16.44-7.67-22.76-14.53-3.37-3.66-4.44-7.3-.72-11.33,9.65-9.66,21.25-16.62,32.86-23.53,8.15-4.85,16.54-9.29,24.82-13.91,20.16-8,40.29-15.91,61.54-20.95,32.15-7.62,64.68-8.83,97.46-7.9,1.46.04,2.87.2,3.94,1.36Z" style="fill: #c52532; stroke-width: 0px;"/>
  <path d="M363.36,586.72c-2.66,1.99-5.24,4.1-8.01,5.94-13.16,8.72-26.33,8.45-40.54,1.63-47.04-22.57-92.51-47.81-135.19-77.9-5.82-4.1-11.99-7.8-16.76-13.24,6.79-4.06,13.07.57,19.15,1.9,32.81,7.15,64.06,19.02,94.52,33.07,11.51,5.31,22.93,11.19,34.97,14.93,18.43,5.71,30.2,1.33,44.26-14.96,7.32-8.49,13.99-17.53,21.1-26.21,2.77-3.38,6.08-6.22,10.94-5.99,10.02-.9,19.19,3.75,28.97,4.4-15.97,26.76-34.05,52.04-53.4,76.43Z" style="fill: #b40a0f; stroke-width: 0px;"/>
  <path d="M892.16,582.25c3.37-4.13,8.18-5.65,12.97-7.19-3.33,4.19-8.14,5.7-12.97,7.19Z" style="fill: #eeac57; stroke-width: 0px;"/>
  <path d="M989.71,596.74c.1-2.59.6-4.02,2.54-5.01.59,2.14-.36,3.4-2.54,5.01Z" style="fill: #fed754; stroke-width: 0px;"/>
  <path d="M380.56,902.21c-2.94,8.49,3.51,12.1,8.76,15.79,13.55,9.53,29.51,13.56,44.97,18.58,13.43,4.36,27.2,7.18,41.4,7.42,2.14-1.91,4.48-1.05,6.82-.54,15.24,3.32,30.49,6.64,46.15,7.3,1.69.07,3.49.11,4.92.93,7.82,4.49,16.41,4.4,25.07,5.07,15.61,1.2,31.11-.58,46.65-.83,14.37-.24,28.58-3.1,42.86-4.82,16.83-2.03,32.84-6.81,48.88-11.89,8.96-2.83,15.51-8.45,20.6-16.01,3.74-5.55,8.39-9.8,14.81-12.02,2.73-.95,5.17-2.52,7.25-4.59,5.42-5.41,5.48-9.07.16-14.73-2.3-2.45-4.87-4.65-7.02-7.24-1.61-1.94-3.98-3.81-2.09-6.88,16.77,8.92,31.5,20.73,46.14,32.65,4.82,3.92,1.37,5.88-1.94,7.89-13.15,7.98-27.23,14-41.42,19.83-28.89,11.87-58.97,19.37-89.68,24.38-32.98,5.38-66.47,7-99.51,4.08-59.56-5.27-117.48-18.32-170.87-46.98-8.64-4.64-8.88-5.36-1.39-11.14,2.78-2.14,4.36-5.93,8.47-6.25Z" style="fill: #bd2a35; stroke-width: 0px;"/>
  <path d="M730.76,877.74c1.31,5.62,6.11,8.59,9.98,11.83,8.85,7.42,8.58,14.38-2.43,20.32-10.63,5.74-18.31,13.19-25.27,22.27-4.21,5.5-10.62,7.33-16.65,9.42-18.28,6.36-37.11,10.15-56.35,12.75-20.66,2.8-41.36,3.17-62.05,4.57-10.86.73-21.37-1.79-32.05-.52-.7.08-1.55.15-2.13-.15-16.99-8.96-36.52-5.54-54.21-11.13-4.51-1.43-9.27-2.09-13.92-3.1-3.97-3.8-10.05-4.9-12.97-10.06,23.7,7.79,48.41,9.73,72.88,13.45,19.22,2.92,38.25,2.48,57.3,2.09,21.41-.44,42.72-3.23,63.84-7.32,16.06-3.12,31.94-6.53,45.46-16.3,8.89-6.42,17.65-13.12,25.83-20.41,7.81-6.95,7.79-12.67.63-20.32-4.4-4.7-8.57-9.75-14.07-13.32-1.53-.99-2.47-2.22-2.64-4.03,6.27,3.32,12.53,6.64,18.8,9.96Z" style="fill: #c0313d; stroke-width: 0px;"/>
  <path d="M568.99,946.93c-12.12,2.59-25.56-3.76-39.56-6.37-5.15-.96-10.38-1.58-15.47-2.82-13.16-3.21-16-10.46-8.36-21.78,6.19-9.17,16.32-13.05,25.72-17.61,15.45-7.49,32.71-8.99,49.17-12.39,10.67-2.21,22.51,2.58,33.36,6.33,11.19,3.87,21.09,10.12,30.19,17.63,1.66,1.37,3.21,2.93,4.56,4.6,7.88,9.72,5.1,19.87-6.87,23.3-14.46,4.15-29.36,5.97-44.29,7.79-8.62,1.05-17.17,1.16-28.44,1.31Z" style="fill: #df4d60; stroke-width: 0px;"/>
</svg>