<?xml version="1.0" encoding="UTF-8"?>
<svg id="Layer_1" data-name="Layer 1" xmlns="http://www.w3.org/2000/svg" viewBox="0 0 924.28 924.22">
  <path d="M11.16,265.92c.82-50.67,14.26-96.77,48.52-135.53,25.97-29.39,57.07-51.95,91.57-70.18,47.3-25,97.87-40.25,150.21-49.73C350.67,1.56,400.47-1.43,450.4.61c83.08,3.4,163.87,18.66,241.3,49.69,61,24.45,117.15,56.74,163.65,103.98,28.75,29.21,51.16,62.44,62.47,102.39,6.6,23.32,7.69,47,5.32,70.97-.1.98-.58,1.92-.88,2.88-8.68,55.46-36.14,101.8-70.33,144.87-16.93,21.33-35.19,41.5-55.18,59.97-30.28,27.97-62.19,54-95.88,77.8-43.49,30.72-88.69,58.72-135.37,84.24-53.26,29.11-107.45,56.42-163.65,79.51-17.28,7.1-33.07,3.86-47.33-7.52-19.51-15.57-37.99-32.32-56.61-48.94-21.64-19.33-42.79-39.22-63.09-59.9-49.22-50.17-95.41-103.01-135.05-161.22-29.23-42.93-54.32-88.15-71.07-137.52-10.26-30.26-17.69-61.2-17.19-93.52.01-.81-.01-1.62-.37-2.38Z" style="fill: #be151b; stroke-width: 0px;"/>
  <path d="M11.16,265.92c2.74,8.77,2.1,17.96,3.15,26.94,2.38,20.34,6.91,40.13,13.02,59.6,14.65,46.7,37.17,89.59,63.6,130.55,20.74,32.14,43.87,62.48,68.38,91.84,14.27,17.09,28.97,33.76,44.08,50.1,14.31,15.48,28.37,31.22,43.66,45.74,22.63,21.47,44.92,43.32,68.52,63.73,14.52,12.56,28.48,25.85,44.23,36.87,12.8,8.96,26.89,10.28,41.53,4.23,40.08-16.57,79.11-35.39,117.7-55.15,60.42-30.94,118.86-65.23,174.64-103.94,25.73-17.86,50.38-37.15,74.18-57.57,18.32-15.72,36.3-31.8,52.72-49.47,32.63-35.12,61.86-72.74,81.61-116.88,8.53-19.05,14.77-38.87,18.86-59.35.18-.92.81-1.76,1.22-2.63-1.9,23.63-3.76,47.27-5.72,70.89-1.29,15.55-3.11,31.07-3.98,46.64-1.75,31.3-10.33,60.75-23.26,89.07-19.73,43.2-47.87,80.56-80.26,114.92-49.52,52.52-106.37,96.03-166.59,135.39-79.22,51.78-162.71,95.55-249.6,132.89-15.59,6.7-30.31,4.75-43.75-6.05-72.01-57.87-138.63-121.36-198.74-191.53-41.85-48.86-79.34-100.83-108.22-158.59-18.77-37.53-33.15-76.58-39.38-118.27-3.56-23.78-3.47-47.63-.91-71.56,2.22-20.75,3.63-41.59,5.4-62.39,1.3-15.35,2.61-30.69,3.91-46.04Z" style="fill: #660b0f; stroke-width: 0px;"/>
  <path d="M280.34,329.35c-13.97-13.82-23.73-30.2-28.03-49.33-6.93-30.77,1.72-57.61,22.98-80.3,23.84-25.43,54.27-39.67,87.13-49.39,37.06-10.97,75.09-14.08,113.42-12.06,48.27,2.54,94.69,13.49,138.14,35.23,22.94,11.48,43.92,25.94,61.38,44.95,15.49,16.87,26.89,36.23,29.68,59.25,2.91,23.99-4.16,45.61-19.28,64.51-6.19,7.74-12.57,15.29-21.53,20.06-2.45-.21-3.93-1.97-5.51-3.52-27.84-27.31-61.51-44.48-98.03-56.9-27.07-9.2-54.99-13.95-83.28-16.85-33.29-3.42-66.34-1.24-99.19,5.02-24.26,4.62-47.53,12.06-69.58,23.23-7.62,3.86-14.76,8.49-21.85,13.22-1.96,1.31-3.68,3.33-6.45,2.87Z" style="fill: #660b0f; stroke-width: 0px;"/>
  <path d="M280.34,329.35c22.96-17.98,49.27-29.12,77.16-36.38,36.01-9.37,72.66-12.75,109.93-10.28,42.41,2.81,83.36,11.38,122.35,28.47,28.03,12.29,53.46,28.48,74.44,51.1-6.59,7.05-14.98,11.56-23.28,16.09-26.81,14.65-55.71,22.88-85.74,27.83-26.17,4.31-52.52,5.25-78.82,3.4-58.42-4.11-113.72-18.8-163.07-51.7-12.15-8.1-23.49-17.29-32.98-28.54Z" style="fill: #fefefe; stroke-width: 0px;"/>
</svg>