<?xml version="1.0" encoding="UTF-8"?>
<svg id="Layer_1" data-name="Layer 1" xmlns="http://www.w3.org/2000/svg" viewBox="0 0 1110.15 928.43">
  <path d="M87.77,750.75c-5.75-15.45-7.49-31.81-10.48-47.86-7.92-42.43-15.69-84.89-23.36-127.37-8.53-47.23-16.82-94.5-25.37-141.72-7.16-39.5-14.61-78.94-21.82-118.43-4.36-23.89-8.39-47.79-6.04-72.29,3.16-32.9,15.34-62.03,35.77-87.84,17.59-22.22,40.72-37.39,64.92-51.2,23.05-13.15,44.98-28.24,69.14-39.48,22.37-10.4,46.03-14.61,70.37-16.34,34.14-2.43,68.26-5.01,102.39-7.56,27.67-2.07,55.35-4.14,83.01-6.29,28.35-2.2,56.7-4.52,85.05-6.73,18.68-1.45,37.36-2.78,56.04-4.2,30.89-2.34,61.78-4.71,92.68-7.04,30.67-2.31,61.34-4.52,92.01-6.86,36.88-2.8,73.84-4.91,110.63-8.69,75.6-7.77,127.2,38.16,152.45,90.84,10.21,21.3,14.81,44.11,19.29,67.01,7.32,37.38,14.74,74.74,22.01,112.12,2.15,11.07,3.91,22.22,5.85,33.34-4.87-.23-4.92-4.36-5.61-7.51-2.33-10.61-4.03-21.42-6.37-31.95-3-13.53-5.42-27.22-8.65-40.72-5.12-21.38-8.95-43.07-13.28-64.63-1.35-6.73-4.63-13.01-4.35-16.86,6.1,24.75,8.91,53.27,13.85,81.45,10.82,61.62,21.46,123.28,33.24,184.72,7.33,38.23,14.51,76.48,21.9,114.7,6.85,35.45,3.48,69.87-12.3,102.36-9.22,18.99-23.62,34.33-41.2,46.13-9.74,6.54-21.49,8.41-32.71,11.06-32.43,7.66-64.39,17.12-96.85,24.62-30.85,7.12-52.52,27.06-71.2,51.14,20.96-27.17,46.62-47.13,81.39-53.14,4.98-.86,9.7-3.29,14.96-2.37,3.73.66,5.25,2.84,2.37,5.61-6.27,6.03-12.14,12.83-21.27,14.8-2.8-1.23-1.1-3.11-.49-4.62,1.66-4.13.34-5.48-3.63-3.82-13.86,5.82-27.57,11.67-39.55,21.32-22.93,18.48-37.72,42.8-52.02,67.89-15.48,27.14-30.85,54.41-48.55,80.22-3.48,5.08-4.63,9.91-2.42,15.58-2.91,3.22-4.72,1.35-6.17-1.43-1.53-2.94-1.42-6.21-1.4-10.28-6.33,3.7-12.63,1.94-18.87,1.64-1.05-.08-2.06-.29-3.06-.62-19.49-8.3-36.51-20.8-54.27-32.02-20.13-12.72-40.2-25.55-60.99-37.16-14.79-8.26-30.58-14.22-47.24-17.63-2.73-.56-5.41-1.21-8.04-2.12-4.67-1.39-9.47-.4-14.19-.73-1.54-.03-3.07-.17-4.56-.54-14.39-2.4-28.44.41-42.52,2.71-11.85,1.94-23.4,5.16-35.03,8.03-1.72.6-3.5,1.02-5.11,1.92-1.97,1.02-4.06,1.61-6.28,1.74-16.73,2.32-33.17,6.22-49.42,10.6-39.51,10.65-77.64,8.01-113.67-11.65-28.73-15.68-53.01-36.42-66.52-67.44-3.85-8.83-11.31-13.65-20.07-18.77-.48,5.38,1.06,9.67,2.1,13.99.86,3.6,2.15,7.09,2.88,10.73.92,4.59-.57,8.39-4.25,10.99-9.62,6.8-20.91,10.87-31.26,4.62-15.87-9.58-32.17-6.02-48.55-5.07-8.33.48-16.69,1.58-24.81-.77-4.82-1.4-6.58-.71-5.12,4.47.25.9.06,1.84-.22,2.73-4.02,2.47-5.04-1.4-6.7-3.38-3.52-4.2-4.79-9.8-8.44-13.96Z" style="fill: #fe595c; stroke-width: 0px;"/>
  <path d="M87.77,750.75c3.64.8,4.58,4.01,6.12,6.74,2.31,4.09,4.02,8.63,8.36,11.2,4.57,1.97,6.4,6.53,9.08,10.13,7.4,9.94,16.76,13.76,29.24,13.36,18.82-.6,37.73-1.67,56.53.95,2.74.38,5.53.54,7.72,2.55,2.27,12.07,11.15,17.16,21.83,19.09,11.85,2.14,23.66,4.17,35.02,8.3,16.73,8,33.53,15.86,51.97,19.15,34.02,6.07,67.88,7.53,101.82-1.45,19.23-5.09,38.8-8.92,58.35-12.71,7.63-.73,14.98-2.83,22.35-4.77,2.01-.59,4.03-1.19,6.08-1.66,4.09-.39,8.11-1.17,12.04-2.42.68-.24,1.37-.39,2.08-.52,26.32-1.9,51.7,1.27,75.22,14.21,12.21,6.72,22.56,16.12,34.04,23.91,21.44,14.54,43.44,28.22,65.58,41.63,15.01,9.09,31.44,14.35,49.52,13.26,6.31-.38,12.83.27,18.81,3.09-8.48,7.17-18.83,9.78-29.32,12.03-5.66-1.64-11.5-.56-17.24-1.19-21.43-2.34-41.38-9.65-60.93-18.18-12.04-5.25-20.67-15.46-31.33-22.8-13.71-9.43-26.89-19.68-39.13-31-23.38-21.63-51.08-26.47-81.3-20.84-14.77,2.75-29.33,6.58-43.69,11.08-20.53,5.09-41.21,9.65-61.57,15.38-51.1,14.37-103.53,13.7-155.56,11.78-53.79-1.98-97.01-27.14-128.29-71.56-10.49-14.9-18.77-30.96-23.39-48.73Z" style="fill: #d25758; stroke-width: 0px;"/>
  <path d="M759.51,914.77c-24.14-.99-48.54-.89-69.89-14.84-28.69-18.75-58.68-35.51-85.76-56.72-15.78-12.36-33.94-18.86-53.73-21.82-11.77-1.76-23.47-.62-35.19-1.2.54-3.78,3.89-3.64,6.31-3.99,33.67-4.86,65.96-2.21,94.96,17.91,29.08,20.18,59.34,38.51,89.26,57.36,5.14,3.24,10.61,5.78,16.35,7.48,8.44,2.49,16.83,4.89,24.52,9.39,3.6,2.1,7.52,2.18,11.01-.76,3.25-2.73,2.25-6.19,1.82-9.65-.54-4.3-3.43-4.75-6.95-5.04-3.58-.3-8.2.98-9.38-4.52,6.19-.37,12.53,2.34,18.59-1.5,2.55-1.62,3.09.28,2.51,2.63-.81,3.25-.09,6.36,1.18,9.35,1.01,2.37,2.4,2.55,4,.48-.46-1.53.25-2.78,1.2-3.78,16.19-16.93,25.66-38.31,38.17-57.67,12.42-19.22,22.75-39.71,35.59-58.66,16.59-24.48,38.66-42.63,65.28-55.32,1.81-.87,3.62-2.22,5.84-1.08,9.25-3.48,15.85-10.35,22.44-17.51-20.84,1.11-40.35,6.7-58.02,17.41-17.39,10.54-30.53,26.07-44.31,40.78,9.03-17.31,22.68-30.48,38.01-41.87,14.95-11.11,32.9-15.05,50.56-19.54,30.11-7.66,60.11-15.74,90.28-23.13,40.03-9.8,60.69-38.43,73-74.89,5.93-17.56,7.95-35.95,7.23-54.56-.53-13.63-3.58-26.88-6.06-40.2-8.13-43.61-16.47-87.18-24.64-130.78-6.9-36.82-14.29-73.57-20.3-110.54-4.98-30.6-11.17-61.02-14.55-91.9-1.34-12.28-4.67-24.35-7.08-36.52-.4-2.01-2.76-5.01.77-5.6,2.33-.39,3.37,3.05,3.55,5.24.91,11.53,4.58,22.47,7.18,33.62,4.9,21,7.07,42.54,13.43,63.27,2.86,9.31,4.68,19.32,6.01,28.73,1.47,10.4,4.33,20.52,5.64,30.91.39,3.08.71,6.54,3.95,8.43.25.39.3.8.17,1.24,1.31,2.18-.76,5.06,1.46,7.06l-.04-.07c1.42,9.38,1.61,19.02,5.57,27.89l-.03-.06c1.73,2.54-.82,5.93,1.63,8.33v-.07c-.66,4.97.45,9.62,2.54,14.1,0,2.29-.45,4.69,1.48,6.55.62,4.82.4,9.8,2.65,14.31.32.36.44.78.36,1.25-.58,2.06-.49,4.01,1.01,5.7.07,2.34-.4,4.8,1.45,6.76,1.44,2.2-.33,4.97,1.28,7.14,2.69,4.61.58,10.19,2.99,14.86,1.29,2.32-.54,5.2,1.34,7.42.52,9.47,3.85,18.38,5.51,27.62,1.47,2.19-.4,5.01,1.35,7.14.93,4.59,1.86,9.19,2.79,13.78,1.51,2.16-.31,4.93,1.3,7.07,2.37,13.07,4.3,26.24,7.22,39.19,3.98,17.66,6.56,35.37,5.6,53.51-.87,16.3-3.82,32.19-9.04,47.66-3.34-.95-2.29-3.63-2-5.71.58-4.16.69-8.31.51-12.48-.06-1.49.45-3.7-1.68-4.01-1.88-.28-2.67,1.69-3.23,3.13-4.09,10.39-10.2,19.74-15.12,29.7-10.26,20.75-26.05,35.83-47.01,45.34-9.07,4.11-19.15,5.29-28.61,8.38-15.61,5.11-31.95,7.74-47.17,14.49,24.18-.6,48.04-4.12,71.75-8.9,22.3-6.78,38.97-20.97,52.3-39.64,1.93-2.7,2.94-6.43,6.96-7.13,1.08.35,1.85.88,1.39,2.2-10.78,20.52-26.52,36.49-45.89,48.77-17.04,10.81-36.34,15.91-55.79,20.49-25.52,6.01-51.15,11.63-76.39,18.67-29.05,8.11-49.89,27.74-65.52,52.61-19.15,30.47-36.96,61.79-55.66,92.54-7.94,13.06-16.98,25.35-30.23,33.75Z" style="fill: #df4e51; stroke-width: 0px;"/>
  <path d="M456.57,843.87c1.22-2.59,3.64-3.49,6.13-4.08,17.24-4.04,34.2-10.01,51.93-10.96,23.4-1.26,45.68,3.51,63.78,19.62,17.6,15.67,36.92,29.08,55.21,43.81,26.48,21.33,57.3,29.45,90.19,32.22,2.41.2,4.5.88,6.39,2.32-24.2,2.61-48.46,1.32-72.71,1.23-6.47-.02-12.96-.65-19.4-.25-29.39,1.83-55.17-7.86-79.35-23.66-24.71-16.15-49.74-31.81-74.64-47.66-8.59-5.47-18.15-8.84-27.52-12.59Z" style="fill: #c35455; stroke-width: 0px;"/>
  <path d="M1029.07,693.57c-7.81,3.69-16.39,4.2-24.7,5.14-16.21,1.83-32.25,5.73-48.74,4.63-1.5-.1-3.18.66-4.87-1.03,4.94-4.72,11.52-5.64,17.42-7.37,18.76-5.52,37.97-9.59,56.55-15.64,17.37-5.66,32.25-15.74,43-31.07,9.72-13.86,17.61-28.71,24.27-44.25.36-.85.62-1.84,1.22-2.48,1.63-1.75,2.06-5.38,5.19-4.84,3.79.66,2.57,4.23,2.97,6.85.97,6.39-1.83,12.66-.46,19.04-2.75,9.03-6.39,17.65-11.9,25.38-.53-.56-1.06-1.11-1.59-1.67-2.09-3.28.53-5.69,1.66-8.27,2.49-5.72,4.75-11.44,4.53-18.92-4.28,2.98-5.19,7.11-6.97,10.52-10.8,20.76-25.52,37.83-45.78,49.89-4.81,2.86-10.06,4.59-15.51,6.65.35,2.99,6.37,3.22,3.71,7.42Z" style="fill: #fe595c; stroke-width: 0px;"/>
  <path d="M1069.47,340.29c-6-8.47-5.85-18.17-5.57-27.89,2.83,9.1,4.24,18.49,5.57,27.89Z" style="fill: #fe595c; stroke-width: 0px;"/>
  <path d="M1073.62,362.6c-4.09-4.11-5.33-8.74-2.55-14.1,1.42,4.6,2.87,9.19,2.55,14.1Z" style="fill: #fe595c; stroke-width: 0px;"/>
  <path d="M1077.75,383.46c-4.26-4.14-3.25-9.26-2.65-14.31,1.53,4.65,2.92,9.33,2.65,14.31Z" style="fill: #fe595c; stroke-width: 0px;"/>
  <path d="M1079.12,390.41c-2.41-1.53-4.2-3.17-1.01-5.7,1.37,1.72,1.23,3.7,1.01,5.7Z" style="fill: #fe595c; stroke-width: 0px;"/>
  <path d="M1063.94,312.47c-3.18-1.8-1.9-4.52-1.46-7.06,1.68,2.11,1.46,4.61,1.46,7.06Z" style="fill: #fe595c; stroke-width: 0px;"/>
  <path d="M1071.08,348.57c-3.1-2.28-1.25-5.52-1.63-8.33,1.77,2.53,1.23,5.52,1.63,8.33Z" style="fill: #fe595c; stroke-width: 0px;"/>
  <path d="M1081.85,404.31c-2.26-2.05-1.13-4.71-1.28-7.14,1.69,2.15,1.26,4.69,1.28,7.14Z" style="fill: #fe595c; stroke-width: 0px;"/>
  <path d="M1097.13,482.2c-2.25-2.02-1.13-4.66-1.3-7.07,1.63,2.14,1.3,4.63,1.3,7.07Z" style="fill: #fe595c; stroke-width: 0px;"/>
  <path d="M1093.04,461.35c-2.37-2.02-1.17-4.71-1.35-7.14,1.83,2.12,1.26,4.69,1.35,7.14Z" style="fill: #fe595c; stroke-width: 0px;"/>
  <path d="M1086.17,426.59c-2.52-2.1-1.28-4.87-1.34-7.41,1.55,2.27,1.37,4.86,1.34,7.41Z" style="fill: #fe595c; stroke-width: 0px;"/>
  <path d="M374.72,220.8c8.12-8.63,14.59-18.86,24.7-25.56,1.45,4.75-2.36,7.1-4.74,9.93-18.43,21.85-30.97,46.64-36.73,74.65-4.33,21.03-2.56,42.02,2.85,62.6,3.35,12.74,6.87,25.51,12.43,37.57,4.63,10.04,10.7,18.94,19.6,25.68,5.9,4.46,11.04,9.89,17.66,13.44,4.27,2.29,8.28,2.28,11.17-1.67,6.2-8.48,15.76-13.28,22.48-21.13,1.24-1.45,3.03-2.42,4.91-2.28,6.13.43,10.13-2.7,14.46-6.68,4.83-4.44,12.18-3.64,18.2-6.02,10.45-4.13,20.76-7.95,29.53-15.68,5.4-4.76,13.09-6.8,20.47-7.49,8.19-.77,16.23-1.16,21.59-8.79,1.2-1.71,3.38-2.44,5.34-3.13,10.25-3.57,19.74-9.11,30.36-11.71,3.23-.79,5.93-2.54,8.5-4.55,3.99-3.13,7.9-5.66,13.42-6.43,5.23-.73,9.36-5.4,14.6-7.51,6.74-2.71,14.31-4.07,19.59-9.94,1.86-2.07,4.71-1.34,7.27-1.2,9.03.49,18.15,1.35,25.81-5.19,1.06-.91,2.66-1.45,3.93-1.06,10.96,3.4,20.65-2.96,29.79-6.11,9.33-3.21,18.56-7.59,28.23-10.54,3.39-1.03,5.53-4.36,7.65-6.87,7.3-8.61,17.08-14.31,24.74-22.8,8.02-8.9,15.23-18.74,24.62-26.78,13.12-11.23,21.29-26.16,20.26-44.53-.33-5.84.64-11.55,1.37-17.29.91-7.15-1.34-12.66-7.71-16.44-2.38-1.41-4.65-3.04-6.91-4.66-2.21-1.59-4.79-3.06-4.35-6.49,25.07,4.54,45.73,17.63,64.95,33.56,23.54,19.51,38.01,44.97,47.99,73.33,14.16,40.27,19.14,81.78,14.57,124.15-4.32,40.02-18.94,76.84-38.05,111.92-31.77,58.32-68.22,113.72-106.19,168.13-8.74,12.52-18.16,24.54-29.36,35.04-14.26,7.65-30.16,8.21-45.64,9.95-8.44.95-16.06-3.56-23.33-7.85-17.15-10.14-33.5-21.5-50.07-32.53-45.08-30.01-90.53-59.49-135.31-89.95-28.9-19.65-57.23-40.15-82.4-64.63-15.69-15.27-29.05-32.36-40.54-50.95-1.21-1.96-2.17-4.12-4.38-5.26-2.15-1.58-2.97-3.99-3.92-6.32-9.91-23.33-17.74-47.29-22.11-72.31-4.95-28.3-6.39-56.63.12-84.89,4.25-18.46,11.35-35.73,22.42-51.25,1.66-2.33,3.5-4.29,6.14-5.44Z" style="fill: #fefefe; stroke-width: 0px;"/>
  <path d="M799.83,136.11c2.52,4.9,7.65,6.89,11.89,9.2,9.13,4.97,10.19,12.73,8.68,21.23-1.07,6.02-.84,11.95-1.17,17.93-.69,12.48-4.64,23.32-12.62,33.52-6.03,7.71-15.4,12.17-19.71,20.82-4.45,8.92-15.09,12.15-18.39,21.83-.5,1.47-2.54,2.74-4.15,3.44-8.49,3.72-13.54,11.35-19.91,17.44-4.8,4.59-11.14,3.78-16.66,5.65-3.56,1.21-6.98,2.02-9.64,4.82-2.51,2.65-5.57,3.93-9.3,3.88-4.2-.06-8.3.97-12,2.87-4.22,2.18-7.94,5.53-13,1.51-1.23-.98-3.77-.59-5.18.88-7.87,8.22-17.96,5.48-27.43,5.53-1.75,0-3.61-1.36-5.08.48-6.37,7.94-16.42,8.45-24.81,12.29-1.99.91-3.43,2.21-5.01,3.53-1.4,1.17-3.26,3.41-4.31,3.1-7.61-2.24-10.87,4.29-15.85,7.3-1.57.95-3.14,2.2-4.87,2.55-12.01,2.47-22.47,9.02-33.99,12.75-1.64.53-3.14,1.3-3.86,2.74-2.6,5.16-6.91,7.13-12.4,7.35-8.49.34-16.46,3.08-24.52,5.43-2,.58-4.44,1.17-5.15,3.19-1.54,4.36-5.37,5.37-8.86,7-11.02,5.15-22.24,9.39-34.11,12.64-7.47,2.05-13.16,10.47-22.58,9.6-5.35,9.43-16.73,12.6-22.43,21.84-3.07,4.97-7.95,5.92-13.23,2.68-22.91-14.03-38.54-33.01-45.89-59.67-5.36-19.47-10.36-38.72-10.45-58.92-.12-26.86,9.26-50.98,22.02-74.13,6.61-12,16.43-21.6,23.56-33.16,20.37-18.7,44.65-28.09,71.96-30.09,33.74-2.47,64.55,8.27,94.91,21.17,18.41,7.83,36.55,16.35,56.25,20.87,12.1,2.78,22.75.57,32.87-6.23,14.44-9.69,26.99-21.7,40.46-32.59,19.82-16.02,41-29.17,66.73-33.1,12.43-1.9,24.87-1.86,37.23.83Z" style="fill: #fefefe; stroke-width: 0px;"/>
  <path d="M374.72,220.8c-19.93,26.48-29.88,56.34-30.67,89.46-1,41.76,8.07,81.39,24.41,119.57.72,1.68,1.29,3.41,1.94,5.12.15,6.98,3.05,13.24,5.57,19.47,11.49,28.39,28.84,53.09,48.74,76.12,1.51,1.75,3.15,3.4,4.1,5.56,2.29,6.19,5.72,11.69,10.62,16.07,11.85,10.62,21.37,23.61,33.97,33.47,1.29,1.01,2.63,2.23,2.93,3.79,1.06,5.53,4.67,8.69,9.27,11.32,2.44,1.39,4.37,3.58,3.76,6.83-.38,2.02-1.79,3.22-3.71,3.71-3.24.82-6.22.09-7.87-2.85-2.56-4.53-6.65-5.86-11.32-7-10.89-2.67-20.58-7.62-29.62-14.54-12.09-9.25-25.12-17.25-37.38-26.34-21.78-16.15-41.87-33.94-58.94-55.24-13.82-17.25-24.49-36.06-33.61-56.14-6.32-13.91-13.21-27.53-16.89-42.4-3.03-12.24-6.6-24.42-7.04-37.17-2.99-10.47-1.8-21.23-1.22-31.75.76-13.75,3.23-27.38,6.85-40.77,3.95-14.64,12.35-26.73,21.18-38.58,11.02-14.79,25.48-25.29,42.21-32.71,7.19-3.19,14.59-5.8,22.69-5.01Z" style="fill: #e82c32; stroke-width: 0px;"/>
  <path d="M283.01,369.62c2.03,13.39,5.94,26.32,9.52,39.33,3.55,12.9,8.59,25.15,15.07,36.94,3.63,6.6,6.39,13.76,9.62,20.64,9.21,19.59,22.89,35.76,37.06,51.69,19.11,21.47,41.88,38.5,65.55,54.48,7.61,5.14,15.34,10.19,22.48,15.94,8.04,6.48,17.45,9.36,27.1,11.62,4.17.98,7.45,2.21,9.06,6.36,1.08,2.78,3.14,3.81,6.04,3.52,1.75-.18,3.31-.76,3.69-2.58.66-3.17-1.71-4.61-3.98-5.77-4.77-2.44-9.04-5.03-9.15-11.36-.03-1.78-1.95-2.89-3.43-4.1-7.24-5.95-13.88-12.41-19.85-19.79-4.22-5.22-10.11-9.23-14.82-14.24-4.32-4.6-7.98-9.56-9.55-15.81,3.43-.85,4.99,1.93,6.84,3.77,27.69,27.42,58.02,51.47,90.29,73.34,18.37,12.44,36.76,24.88,55.01,37.51,15.07,10.43,31.59,18.31,48.86,24.48,6.61,2.36,13.4,4.06,19.91-.55,6.85,2.67,14.18,4.61,18.22,11.68-13.81,11.91-29.68,18.91-47.89,20.89-23.08,2.5-41.58-8.65-59.86-19.99-22.93-14.22-45.51-29.03-68.17-43.7-24.98-16.17-49.63-32.81-73.82-50.15-26.52-19.01-51.41-39.97-73.18-64.25-19.26-21.48-33.41-46.19-42.96-73.64-7.31-21-12.18-42.39-15.35-64.37-1.05-7.3-2.76-14.44-2.31-21.88Z" style="fill: #e03337; stroke-width: 0px;"/>
  <path d="M144.3,176.06c-2.49,11.49-1.6,23.31-1.76,35.09-.28,20.02,5.31,39.2,8.54,58.71,5.14,31.1,10.89,62.1,16.49,93.12,6.34,35.1,12.88,70.17,19.18,105.28,6.63,36.92,13.31,73.83,19.54,110.82,3.82,22.69,7.93,45.32,12.17,67.94,4.06,21.71,7.71,43.49,11.47,65.26.35,2.03.6,4.36-1.63,5.61-1.97,1.1-3.44-.63-5.06-1.38-10.76-4.97-12.37-15.52-14.96-25.22-11.54-43.22-19.13-87.26-26.92-131.26-4.45-25.17-9.44-50.23-14.07-75.37-6.93-37.57-13.7-75.17-20.67-112.74-4.32-23.31-9.06-46.55-13.28-69.88-4.95-27.4-10.24-54.76-13.95-82.33-1.61-11.96-1.88-24.49.95-36.62,1.57-6.72,13.94-15.87,20.56-15.05,5.31.66,1.97,5.21,3.4,8.03Z" style="fill: #fe8c8e; stroke-width: 0px;"/>
  <path d="M742.86,888.37c2.56,3.12,6.12,2.65,9.58,2.81,2.84.13,7.33-1.25,7.77,2.44.53,4.48,4.3,9.25.3,13.83-2.9,3.32-6.41,5.32-11.03,4.25-.89-.21-1.74-.61-2.61-.94-26.3-9.96-51.4-21.96-74.9-37.82-21.96-14.83-44.14-29.41-66.66-43.43-10.3-6.41-21.85-9.65-33.79-11.53-18.13-2.86-36.23-3.1-54.24.92-.83.19-1.56.86-2.33,1.3,0,0,0,0,0,0-4.11,1.19-8.41,1.53-12.51,2.77-1.73.96-3.54,1.59-5.56,1.4-7.36,2.05-15.13,2.47-22.24,5.54-26.05,5.59-52.06,11.4-78.18,16.67-14.69,2.96-29.48,3.28-44.58,1.92-14.43-1.3-28.93-1.83-43.06-5.12-16.94-3.94-32.86-10.73-48.14-19.01-3.62-2.27-7.51-4.31-7.94-9.31-.16-3.79-5.19-7.63-1.8-10.86,3.47-3.32,7.79.46,11.47,1.88,23.52,9.03,47.22,17.41,72.2,21.5,21.83,3.57,43.56,3.62,65.21-1.41,20.75-4.82,41.52-9.56,62.29-14.29,2.04.18,3.86-.48,5.62-1.42,2.5-.95,5.28-.85,7.72-2.04,21.69-5.11,43.27-10.9,65.84-10.47,4.34-.32,8.63.43,12.93.71,1.49,0,2.98-.02,4.47.04,32.72,3.47,61.02,17.76,88.55,34.87,26.26,16.31,52.12,33.27,78.82,48.87,4.38,2.56,9.15,4.32,13.97,5.92.94,0,1.88.02,2.82.03Z" style="fill: #e93b40; stroke-width: 0px;"/>
  <path d="M795.33,23.94c-9.98,5.74-19.28,6.35-28.29,7.46-31.31,3.84-62.77,6.11-94.2,8.74-27.77,2.32-55.54,4.57-83.32,6.75-29.16,2.29-58.32,4.52-87.47,6.99-29.6,2.5-59.23,4.78-88.84,7.15-28.46,2.27-56.93,4.51-85.39,6.75-22.96,1.81-45.92,3.52-68.86,5.59-19.99,1.8-39.91,4.24-58.28,13.23-6.53,3.2-8.25-1.37-10.75-5.8-2.91-5.16.05-6.85,3.89-8.9,16.64-8.87,34.71-12.26,53.19-13.88,27.1-2.38,54.21-4.62,81.32-6.77,20.23-1.6,40.5-2.85,60.73-4.46,26.43-2.11,52.83-4.48,79.26-6.63,19.08-1.55,38.18-2.89,57.26-4.38,28.73-2.24,57.46-4.57,86.19-6.78,13.8-1.06,27.59-2.3,41.41-2.8,39.21-1.42,78.33-5.56,117.63-4.3,7.5.24,14.98,1.23,24.49,2.05Z" style="fill: #fe9fa0; stroke-width: 0px;"/>
  <path d="M462.12,811.87c-15.02,5.11-30.72,7.46-46.02,11.43-20.38,5.3-40.83,8.76-62.07,8.23-18.23-.46-35.43-5.29-52.75-9.77-15.19-3.93-29.58-10.32-44.23-15.86-1.69-.64-3.45-1.1-5.14-1.63-3.02,4.68,5.88,7.1,1.84,11.73-3.22,1.19-5.4-.85-7.28-2.76-7.01-7.11-15.45-10.26-25.33-11.17-5.52-.51-11.58-1.05-15.99-5.52-8.76-1.88-17.58-3.17-26.58-2.8-14.24.59-28.47-.29-42.76.69-13.28.91-21.85-7.96-28.96-18.07-1.71-2.44-3.07-5.12-4.6-7.68-.07-.46-.13-.92-.2-1.37-.57-3.49-3.95-7.52-1.3-10.24,2.28-2.35,5.36,2.18,8.69,2.43,2.68.2,5.41.92,8.18.89,12.39-.12,24.74-.69,37.02-2.64,7.86-1.25,15.09,1,21.85,5.02,11.26,6.69,22.38,6,33.44-.62,4.68-2.8,7.01-6.08,5.13-11.95-2.25-7-3.74-14.24-5.45-21.41-.41-1.73-1.17-4.01.68-5.09,1.78-1.04,3.34.84,4.93,1.69,11.56,6.24,18.34,16.36,23.29,28.13,6.59,15.68,19.33,26.53,31.49,37.34,19.62,17.43,42.79,28.77,68.45,34.64,24.85,5.68,49.31,2.87,73.78-3.11,16.5-4.03,32.95-8.53,49.9-10.51Z" style="fill: #fc3e44; stroke-width: 0px;"/>
  <path d="M666.55,686.7c-6.11-3.59-12.21-7.17-18.32-10.76-2.88,1.13-4.85-.83-6.94-2.16-56.21-35.76-111.93-72.28-165.2-112.34-31.73-23.86-60.47-50.93-83.6-83.54-6.71-9.46-12.33-19.57-17.88-29.72-1.21-2.22-3.42-4.65-1.4-7.64,2.87-1.31,2.69,1.5,3.42,2.71,16.78,27.71,38.12,51.21,63.09,71.91,35.42,29.36,73.98,54.15,112.08,79.64,30.46,20.38,61.43,39.99,91.79,60.52,13.57,9.17,27.4,17.92,41.04,26.94,11.75,7.77,23.82,9.21,37.44,6.7,10.64-1.95,21.09-4.57,31.66-6.74-18.04,17.96-48.91,22.4-73.51,10.69-4.52-2.15-8.65-5.19-13.68-6.23Z" style="fill: #d0adae; stroke-width: 0px;"/>
  <path d="M915.2,722.82c-37.49,16.58-64.02,44.33-83.87,79.83-16.25,29.06-33.12,57.84-52.16,85.23-2.88,4.14-6.68,7.65-10.05,11.45-4.84-3.59-3.44-8.32-.92-11.85,17.55-24.69,31.28-51.72,47.34-77.32,8.45-13.46,15.27-27.96,24.37-41.08,18.42-26.55,42.57-45.68,73.23-56.34,1.81-.63,3.51-1.41,5.09.29,1.58,1.7.82,3.45-.12,5.1-.91,1.6-1.94,3.13-2.92,4.69Z" style="fill: #fdadae; stroke-width: 0px;"/>
  <path d="M740.04,888.34c-7.58.22-13.87-3.63-19.85-7.32-24.07-14.85-47.98-29.93-72.14-44.65-18.92-11.53-37.66-22.95-58.74-30.16-9.77-3.34-20.05-4.16-29.92-6.87,3.71-1.14,7.43-1.09,11.15-.02,33.89,5.35,62.23,23.06,90.78,40.48,25.74,15.71,49.91,34.02,77.22,47.15.58.28,1,.92,1.49,1.39Z" style="fill: #fc3e44; stroke-width: 0px;"/>
  <path d="M541.35,799.34c-21.68-.95-42.39,4.7-63.25,9.33-1.12.25-2.28.29-3.43.43-.94.77-1.88.76-2.81-.03,16.01-5.71,32.68-8.51,49.39-11.14,7.75-1.22,15.53-1.64,23.35-1.35,2.22.08,4.68-.74,6.49,1.36-3.05,1.82-6.7-.49-9.74,1.4Z" style="fill: #df4e51; stroke-width: 0px;"/>
  <path d="M570.54,799.33c-3.72,0-7.43.02-11.15.02-1.38,0-2.76,0-4.15,0-.46-.31-.61-.62-.46-.94.15-.31.3-.47.45-.47,5.08.73,10.43-1.56,15.3,1.39Z" style="fill: #df4e51; stroke-width: 0px;"/>
  <path d="M555.24,797.93c0,.47,0,.94,0,1.41-4.63,0-9.26,0-13.9,0,2.93-2.68,6.51-.85,9.74-1.4,1.38,0,2.77,0,4.15,0Z" style="fill: #fc3e44; stroke-width: 0px;"/>
  <path d="M471.86,809.07c.94,0,1.87.02,2.81.03-1.96,2.26-4.59,1.05-6.93,1.36.98-1.64,2.61-1.32,4.12-1.39Z" style="fill: #fc3e44; stroke-width: 0px;"/>
  <path d="M205.14,796.56c7.17,1.45,14.06,4.03,21.53,4.4,7.87.39,14.36,4.32,19.79,9.92,2.12,2.19,4.44,4.01,7.28,5.12,2.31,2.79,4.62,5.58,6.93,8.37-12.59-4.27-25.74-5.97-38.68-8.69-6.56-1.38-11.77-6-16.42-10.96-2.56-2.72-2.08-5.35-.44-8.17Z" style="fill: #fe595c; stroke-width: 0px;"/>
  <path d="M474.64,829.91c6.81-4.28,14.53-4.89,22.24-5.54-7.04,3.34-14.72,4.14-22.24,5.54Z" style="fill: #df4e51; stroke-width: 0px;"/>
  <path d="M502.44,822.96c3.86-2.33,8.11-2.87,12.51-2.77-3.85,2.37-8.11,2.9-12.51,2.77Z" style="fill: #df4e51; stroke-width: 0px;"/>
  <path d="M1029.07,693.57c-.07-2.91-2.02-3.8-4.45-4.44-1.24-.33-2.95-.77-3.06-2.35-.11-1.74,1.68-2.11,2.91-2.41,12.2-2.99,21.96-10,31.41-17.98,13.86-11.71,23.61-26.26,31.77-42.2,1.46-2.86,1.53-9.02,6.25-7.27,3.84,1.43,1.25,6.45.79,10.01-.9,7.06-5.24,12.75-7.28,19.33-8.36,11.8-16.63,23.71-28.69,32.15-9.16,6.41-18.1,13.39-29.66,15.15Z" style="fill: #fdb0b1; stroke-width: 0px;"/>
  <path d="M373.21,440.54c5.94,14.36,14.61,27.07,23.33,39.84,14.12,20.69,31.8,38.21,50.18,54.73,29.27,26.32,61.76,48.63,94.33,70.68,21.6,14.63,43.35,29.03,65.16,43.34,13.89,9.11,28.01,17.88,42.02,26.8-3.54,5.63-8.87,4.3-13.7,3.01-20.73-5.54-39.44-15.54-57.25-27.23-15.8-10.37-31.42-21-46.92-31.82-17.18-12-34.82-23.48-50.97-36.75-16.9-13.89-33.77-28-48.74-44.12-.93-1-2.15-1.71-3.24-2.56-12.24-14.56-24.76-28.98-34.57-45.31-9.8-16.31-19.14-32.99-23.51-51.84-.38-1.63-.5-3.22,1.07-4.38.94,1.87,1.88,3.73,2.81,5.6Z" style="fill: #ca262a; stroke-width: 0px;"/>
</svg>