<?xml version="1.0" encoding="UTF-8"?>
<svg id="Layer_1" data-name="Layer 1" xmlns="http://www.w3.org/2000/svg" viewBox="0 0 598.65 598.72">
  <path d="M105.96,527.63c-16.74-13.59-31.3-29.3-44.37-46.38-23.09-30.19-39.87-63.6-50.21-100.19-5.36-18.95-8.82-38.22-10.38-57.88-1.13-14.22-1.33-28.45-.46-42.62,1.87-30.57,8.34-60.25,19.42-88.86,17.27-44.59,43.67-82.92,79.11-114.98,25.08-22.69,53.34-40.43,84.49-53.58.54-.23,1.19-.18,1.79-.26.11,2.18-1.74,2.48-3.12,3.11-15.39,7.05-29.93,15.59-44.05,24.88-2.49,1.64-4.92,3.36-7.06,5.45-11.35,8.18-22.09,17.1-32.08,26.88-3.56,3.48-6.81,7.29-9.83,11.26-3.18,4.18-4.4,8.61-1.43,13.52,3.25,5.36,1.38,10.33-1.44,15.14-4.11,6.99-8.73,13.66-12.74,20.72-2.68,4.73-5.41,9.44-7.81,13.33,8.57-14.57,19.78-28.22,31.61-41.42,19.16-21.39,41.46-38.9,66.33-53.04,30.02-17.08,62.19-28.15,96.52-32.66,5.31-.7,10.61-1.54,15.99-1.51,1.4.09,2.75-.19,4.09-.57,2.17-.35,4.36-.33,6.55-.26,7.2.07,14.41.03,21.6,0,1.35-.11,2.68.03,4,.27,2.64.88,5.38.4,8.07.57.6.02,1.2.12,1.78.26,1.65.63,3.38.45,5.09.55.56.03,1.11.13,1.65.27,1.54.59,3.19.41,4.78.67.35.05.7.14,1.05.23,1.54.51,3.18.21,4.74.5,1.2.26,2.4.57,3.6.86,1.3.49,2.7.47,4.05.67.34.06.68.14,1.01.24,1.17.38,2.41.38,3.59.67,23.66,4.67,46.08,12.87,67.5,23.87,23.23,11.93,44.24,26.93,63.11,45.04,17.92,17.2,33.2,36.45,46.55,57.31-2.58-4.12-4.89-8.37-6.49-13.02-2.31-6.71-1.42-8.1,5.59-7.86.76.06,1.45.38,2.19.48,8.56,1.13,13.93,6.34,18.2,13.46,20.42,34.04,32.31,70.96,37.66,110.13,1.47,10.77,1.88,21.6,1.74,32.48-.11,8.57-4.99,13.81-11.66,17.9-2.28,1.4-4.16.49-5.28-2.26-1-2.45-1.27-5.09-1.51-7.69-.98-10.8-1.44-21.64-3.08-32.39-1.98-12.97-4.34-25.84-8.16-38.41-1.32-4.34-2.31-8.78-3.72-13.11,1.01,3.89,2.25,7.74,3.16,11.66,2.91,12.54,4.29,25.29,5.6,38.07.93,9.09,1,18.21,1.03,27.26.04,11.8-1.17,23.63-2.86,35.38-4.47,31.1-14.19,60.5-28.75,88.23-9.3,17.72-20.58,34.21-33.88,49.25-17.13,19.37-36.2,36.49-58.04,50.42-22.89,14.6-47.32,25.77-73.56,32.89-19.82,5.38-39.93,8.4-60.52,9.27-29.62,1.25-58.5-2.38-86.85-10.63-28.66-8.34-55.06-21.45-79.43-38.63-4.68-3.3-9.27-6.75-13.73-10.34-55.26-45.15-86.46-103.82-97.77-173.67,1.39,10.49,2.54,21.08,4.45,31.58,1.95,10.71,4.81,21.16,7.84,31.59,2.72,9.34,6.41,18.39,8.42,27.95.99,4.7.36,8.57-3.28,12.28-3.84,3.91-3.77,8.92-1.56,13.94,4.44,10.11,10.24,19.43,16.57,28.42,8.42,11.96,17.78,23.11,27.93,33.68,5.18,5.39,11.21,9.94,15.71,15.99.64,1.12,1.9,2.08.93,3.61Z" style="fill: #f55f61; stroke-width: 0px;"/>
  <path d="M126.91,501.51c6.66,4.76,13.22,9.67,20,14.25,19.5,13.17,40.45,23.48,62.69,31.15,16.95,5.84,34.33,9.9,52.09,12.1,7.86.98,15.88,1.12,23.74,1.91,10.4,1.05,20.66-.03,30.91-.49,13.22-.59,26.34-2.87,39.28-5.92,22.15-5.22,43.38-12.88,63.56-23.46,16.8-8.81,32.45-19.29,47.13-31.33,9.87-8.09,18.89-17.05,27.53-26.34,12.55-13.49,23.33-28.39,32.66-44.33,12.33-21.07,21.49-43.46,27.78-67,3.46-12.93,5.71-26.11,7.33-39.44,1.05-8.64,1.87-17.38,1.76-25.94-.14-11.35-.13-22.78-1.68-34.13-1.26-9.2-2.28-18.44-4.03-27.56-1.03-5.35-2.51-10.61-3.79-15.92-.19-.79-1-1.52,0-2.75,1.3,3.35,2.89,6.42,3.68,9.68,2.27,9.4,5.7,18.51,7.17,28.1,1.54,10.03,3.44,20,4.32,30.14.69,7.9.7,15.86,2.16,23.69.2,1.1.43,2.21.84,3.24.8,2.02,2.13,2.61,4.09,1.29,6.87-4.65,10.98-10.34,10.94-19.38-.17-35.81-7.89-69.97-21.05-103.08-5.17-12.99-11.68-25.28-18.6-37.41-4.49-7.87-11.17-11.6-19.67-12.97.34-2.45,2.75-2.62,4.27-3.66,2.37-1.62,2.66-3.17,1.18-5.58-5.31-8.66-11.93-16.29-18.59-23.87-12.05-13.72-25.54-25.95-40.1-36.9-12.76-9.59-26.03-18.5-40.84-24.82-2.27-.97-4.98-.82-6.86-2.75-1.83-3.86-5.3-5.89-8.83-7.78-12.27-6.59-25.45-10.84-38.7-14.93-19.4-5.99-39.36-9.12-59.5-11.06-6.68-.65-13.41-1.28-20.16-.98-1.66.07-4.55.45-4.56-1.27-.02-2.46,2.9-2.09,4.81-2.2,7.99-.47,15.95.33,23.91.87,17.33,1.19,34.41,4.01,51.23,8.43,25.74,6.76,50.09,16.78,73.13,30.11,25.71,14.88,48.42,33.44,68.55,55.17,16.6,17.93,30.61,37.76,42.26,59.27,11.89,21.95,20.98,44.98,27.2,69.13,4.65,18.04,7.29,36.4,8.71,54.98.81,10.61.9,21.21.43,31.77-1.07,23.83-4.84,47.29-11.62,70.22-.14.48-.21.98-.32,1.46-.07.38-.19.75-.32,1.12-1.34,3.71-2.57,7.45-3.73,11.23-11.2,33-28.23,62.73-50.55,89.42-24.03,28.74-52.56,52.04-85.37,70.15-32.48,17.93-67.13,29.37-103.77,34.8-10.59,1.57-21.26,2.52-32.01,2.78-7.72.18-15.4.05-23.1-.09-18.03-.35-35.79-2.83-53.37-6.6-23.78-5.1-46.57-13.2-68.41-23.86-15.26-7.45-29.69-16.34-43.3-26.54-1.59-1.19-3.12-2.47-5.01-3.2-2.16-3.07-6.37-3.62-8.42-6.83.16-1.3-1.17-1.88-1.43-2.98,2.48-4.56,3.69-4.88,7.65-1.76,35.3,27.73,75.26,45.24,118.91,55.07,24.69,5.56,49.62,7.04,74.75,6.34,18.68-.52,36.87-4.41,54.88-9.15,23.98-6.31,47.21-14.67,69.17-26.26,19.61-10.35,37.7-22.9,54.63-37.27,17.33-14.71,31.92-31.87,46.41-49.2,8.74-10.45,17.35-20.96,23.92-32.97,11.08-20.25,19.43-41.58,25.04-63.98,3.25-12.97,5.47-26.12,6.61-39.44.11-1.31.71-2.97-.65-3.81-1.18-.72-2.34.45-3.42,1.01-1.88.99-3.54,2.35-5.43,3.32-4.47,2.3-6.93,1.36-8.74-3.31-.4-1.04-.64-2.14-1.41-3.41-1.35,7.05-2.32,13.89-3.55,20.67-5.27,28.95-14.59,56.45-28.35,82.52-9.56,18.11-21.09,34.83-34.44,50.23-19.69,22.7-42.65,41.49-68.82,56.48-29.64,16.97-61.31,27.78-94.97,32.88-17.05,2.59-34.28,3.57-51.49,2.65-32.42-1.73-63.7-8.72-93.62-21.55-22.53-9.66-43.15-22.43-62.33-37.61-2.71-2.14-2.91-2.65-2.37-4.6Z" style="fill: #f55f61; stroke-width: 0px;"/>
  <path d="M582.4,386.11c1.49-6.14,3.09-12.26,4.44-18.44,2.75-12.59,4.86-25.27,6.17-38.12,1.46-14.29,2.03-28.62,1.19-42.88-1.03-17.42-3.3-34.73-7.22-51.83-5.68-24.77-14.34-48.41-25.88-70.97-10-19.54-22.14-37.69-36.26-54.55-8.83-10.54-18.37-20.4-28.46-29.63-14.87-13.61-31.22-25.33-48.67-35.52-18.15-10.6-37.26-18.94-57.18-25.52-13.11-4.33-26.53-7.59-40.1-9.89-10.97-1.86-22.11-2.77-33.28-3.38-5.97-.33-11.93-.34-17.89-.56-1.35-.05-2.72-.1-4.34,1.49,2.52,0,4.44-.01,6.35,0,13.17.12,26.19,1.76,39.23,3.52,16.81,2.26,33.19,6.25,49.17,11.67,12.21,4.13,24.64,8.07,35.16,16.08,1.67,1.27,2.49,2.68,2.5,4.68-1.51,1.25-3.1.5-4.64.15-7.45-1.7-14.46-4.7-21.57-7.39-25.37-9.6-51.63-15.39-78.59-17.72-32.81-2.83-65.25-.18-97.17,8.12-2.65.69-5.34,1.25-7.94,2.15-1.41.49-2.89.89-4.3-.12.2-2.54,2.48-2.5,4.07-2.98,13.51-4.13,27.25-7.27,41.23-9.32,13.96-2.05,27.98-3.07,42.11-3.3,16.98-.28,33.72,1.31,45.06,3.23-7.01-1.12-19.42-2.58-31.95-3.35-8.86-.54-17.72-.8-26.55-.5-32.96,1.08-64.91,7.32-95.51,19.87-2.08.85-4.08,1.9-6.04,2.98-1.06.58-2.35,1.07-2.19,2.68-.18,2.03-1.7,1.82-3.05,1.77-.9-.03-1.75-.39-2.03-1.37-.41-1.41.31-2.45,1.34-3.24,2.08-1.6,4.34-2.95,6.72-4.05,8.25-3.8,16.51-7.6,23.1-9.29-10.5,3.49-23.22,7.65-35.5,13.09-12.45,5.52-24.47,11.79-35.98,19.08-2.18,1.38-4.08,3.8-7.23,3,1.17-2.22,3.44-3.22,5.35-4.51,14.96-10.1,30.46-19.26,47-26.57.91-.4,1.85-.79,2.28-1.81,9.74-4.79,20.05-8.06,30.41-11.11,13.71-4.03,27.69-7.07,41.84-9,23.31-3.17,46.73-3.57,70.15-1.44,25.13,2.28,49.56,7.85,73.28,16.48.59,1.48,1.98,1.74,3.26,2.23,13.2,5,26.01,10.89,38.37,17.66,15.55,8.51,30.19,18.39,44.11,29.42,12.17,9.64,23.18,20.48,33.68,31.78,13.84,14.88,25.76,31.3,36.06,48.87,13.37,22.8,23.59,46.9,30.52,72.38,3.67,13.51,6.35,27.21,8.2,41.12,2.09,15.74,2.51,31.53,2.04,47.32-.55,18.58-2.91,37-7.31,55.11-1.56,6.43-2.86,12.92-5.12,19.15-.46,1.28-.43,3.08-2.46,3.25Z" style="fill: #f55f61; stroke-width: 0px;"/>
  <path d="M582.4,386.11c3.94-8.13,5.2-17.04,7.34-25.67,2.59-10.46,4.24-21.15,5.27-31.86,1.32-13.61,2.28-27.3,1.56-40.99-.73-13.95-1.76-27.89-4.39-41.67-4.49-23.52-11.37-46.25-21.02-68.2-7.69-17.5-17.14-33.99-28.06-49.59-6.03-8.61-12.64-16.88-19.69-24.77-5.74-6.43-11.9-12.41-17.96-18.5-15.97-16.06-34.23-29.14-53.57-40.78-15.93-9.58-32.72-17.42-50.13-23.9-1.71-.64-1.87-1.15-.73-2.37,80.48,30.32,138.23,84.72,173.11,163.35,10.19,22.98,16.8,47.03,20.83,71.8,3.54,21.76,4.56,43.74,2.93,65.67-5.63,75.84-35.13,141.03-89.33,194.49-40.42,39.87-88.71,65.82-144.18,78.28-28.16,6.32-56.64,8.67-85.43,6.59-43.94-3.19-85.32-15.17-123.97-36.48-14.31-7.89-28-16.63-40.61-27.04,1.61-.1,2.84.69,4.07,1.61,11.14,8.41,23.02,15.64,35.28,22.3,24.55,13.34,50.55,22.7,77.77,28.75,10.52,2.34,21.18,3.83,31.89,5.11,8.52,1.02,17.07,1.57,25.6,1.71,12.84.21,25.66-.37,38.5-1.6,16.87-1.62,33.35-4.96,49.64-9.28,15.4-4.08,30.27-9.74,44.84-16.27,17.8-7.98,34.45-17.87,50.41-28.99,9.69-6.75,18.56-14.53,27.51-22.21,9.97-8.55,18.65-18.31,27.16-28.2,11.11-12.92,20.73-26.95,29.37-41.67,8.86-15.1,15.61-31.11,21.57-47.5.12-.33.44-.58.67-.87,1.52-3.65,2.67-7.42,3.73-11.22h0Z" style="fill: #f55f61; stroke-width: 0px;"/>
  <path d="M265.42,461.09c-8.78-5.94-16.76-12.91-24.95-19.59-23.38-19.05-46.62-38.27-68.84-58.67-17.02-15.63-33.25-32-45.65-51.73-.39-.62-.7-1.3-1.04-1.95,2.11-.85,3.22.92,4.52,1.88,2.98,2.2,6.09,2.62,9.54,1.41,2.15-.76,3.67-2.02,4.26-4.31.56-2.18,1.57-4.21,2.44-6.27,1.25-2.98,4.38-3.8,7.14-2.07,5.2,3.25,11.13,4.77,16.66,7.22,3.85,1.7,7.75,3.15,11.66,4.63,3.07,1.16,6.01,2.45,9.37,1.36.47-.15,1.03-.3,1.48-.14,3.52,1.23,6.95,1.41,10.7.64,1.77-.36,3.8.32,5.66-.8,1.64-.99,3.41-.34,5.1.08,2.2.54,4.01.31,4.72-2.24.48-1.73,1.72-2.65,3.28-3.33,2.42-1.04,4.63-2.44,6.69-4.09.49-.39,1-1.05,1.55-.99,4.14.46,4.72-3.79,7.27-5.44,1.42-.91.79-2.73.72-4.21-.1-2.08,0-4.17,2.43-4.89,2.11-.63,1.98-1.64,1.18-3.33-1.49-3.14-1-3.72,2.68-3.68,4.8.05,5.1-.34,3.88-5.06-.28-1.09-.39-2.21-.67-3.3-.64-2.46.36-3.7,2.85-3.37,2,.27,3.28-.54,4.51-1.97,1.71-1.98,3.47-3.94,5.72-5.35.92-.57,1.39-1.35,1.55-2.42.71-4.76,3.7-7.81,7.35-10.72,2.43-1.94,4.54-3.98,7.68-4.89,2.6-.75,2.23-2.88,1.24-4.91-2.08-4.23-1.48-5.58,3.22-6.09,3.95-.43,8.13-1.21,11.55,2.28-.26-2.35-.95-4.54-1.57-6.76-.44-1.57-.02-3.1,1.61-3.76,1.68-.68,2.48.58,3.08,1.91.3.67.44,1.63,1.35,1.58,2.63-.16,3.7,1.65,4.6,3.61,1.93-.33,1.86-1.99,2.49-3.09,1.64-2.92,3.88-4.05,7.09-3.16,1.27.35,2.13.28,2.99-.67.51-.56,1.27-1.33,1.87-1.06,4.2,1.89,3.43-1.5,3.95-3.58.27-1.09,1.06-2.03,1.17-3.15.34-3.67,2.37-4.61,5.69-3.8,1.69.41,3.47,0,4.54-1.21,3.17-3.57,7.54-5.64,10.85-9,1.27-1.29,2.14-2.72,2.24-4.58-1.17,1.25-2.5,2.11-4.05.9-1.4-1.1-1.23-2.58-.37-4.04.45-.77,1.78-1.49.63-2.51-.97-.86-2.32-.49-3.12.24-3.82,3.5-8.85,3.77-13.43,5.22-1.22.38-2.28.99-3.33,1.66-2.94,1.9-5.79,3.66-9.68,3.16-3.01-.39-5.48,1.38-7.34,3.78-1.35,1.74-2.89,2.62-5.18,1.72-1.96-.77-3.66-.06-5.05,1.46-.42.46-.8.96-1.26,1.38-1.1,1.01-2.16,2.25-3.89,1.4-2.16-1.06-.32-2.54-.25-4.15-4.78.19-9.43.92-14.01,1.7-4.26.73-6.74-.14-7.76-4.2-.63-2.51-2.05-3.74-4.6-3.05-3.25.88-5.55-.59-7.66-2.71-1.88-1.88-3.81-3.29-6.71-3.6-2.73-.29-5.16-1.86-6.41-4.62-.64-1.42-1.58-2.57-2.96-3.27-9.67-4.93-18.19-11.74-27.82-16.78-5.68-2.98-11.65-4.28-17.79-5.38-6.98-1.25-14.17-1.02-21.08-2.8-.48-.12-1.04-.27-1.48-.11-4.99,1.8-9.28-.42-13.55-2.44-3.37-1.59-6.71-1.44-10.22-.66-2.24.5-4.6,1.5-6.79-.28,13.39-11.68,28.8-18.77,46.52-20.97,21.21-2.63,40.28,3.65,58.7,13.25,9.59,5,19.05,10.22,28.89,14.78,18.3,8.49,36.17,7.49,53.88-1.43,11.34-5.71,22.5-11.77,33.92-17.31,10.57-5.13,21.66-8.74,33.54-9.32,9.6-.03,19.09.68,28.39,3.34,15.96,4.57,29.43,13.27,41.58,24.36,15.41,14.07,23.24,31.8,25.42,52.2,3.88,36.26-5.68,68.69-28.32,97.26-9.07,11.45-18.52,22.61-29.31,32.47-10.77,9.84-21.62,19.59-32.79,28.99-13.65,11.48-27.01,23.3-40.61,34.84-13.06,11.08-26.34,21.76-41.85,29.37-12.22,5.99-25.03,7.04-38.26,5.29-5.21-.69-9.58-3.44-13.93-6.15Z" style="fill: #fefefe; stroke-width: 0px;"/>
  <path d="M139.67,180.1c2.12.03,4.22.1,6.28-.64,5.55-1.99,10.47.13,15.35,2.46,1.12.54,2.39,1.61,3.39,1.42,9.63-1.84,18.86,1.39,28.27,2.12,11.47.9,21.37,6.2,30.46,12.93,4.53,3.35,9.75,5.46,14.37,8.62,1.96,1.34,3.89,2.26,4.71,4.91.73,2.37,3.68,4.07,5.55,3.69,3.63-.72,5.03,1.78,6.82,3.48,2.29,2.19,4.22,3.78,7.68,2.42,2.6-1.02,4.89,1.08,5.23,4.2.32,2.97,3.88,4.88,6.3,3.07,2.18-1.64,4.07.56,6.1-.18,2.57-.95,5.25-1.56,8.04-1.29.94.09,2.21-.38,2.56.92.33,1.23-.99,1.16-1.66,1.6-.66.43-1.26,1-.47,1.77.56.54,1.31.82,1.99.14.87-.89,1.71-1.81,2.52-2.75,1.78-2.05,3.85-3.21,6.44-1.63,1.41.86,2.11.57,3.05-.67,2.96-3.92,6.63-6.18,11.85-4.78.76.2,1.93-.49,2.7-1.06,4.23-3.15,8.95-4.93,14.16-5.66,1.69-.24,3.31-.95,4.54-2.37,1.29-1.48,3.04-2.23,5.03-1.94,2.09.31,2.93,2.3,1.72,3.34-1.48,1.27-3.17,2.24-1.62,3.97,1.7,1.89,2.91-.56,4.35-1.4,1.02,2.87.03,5.1-2.27,6.68-2.38,1.63-3.78,4.44-7.03,5.13-1.83.39-1.84,3.21-3.95,4.17-2.04.93-3.78,1.65-5.99.9-2.23-.75-3.22-.32-3.5,2.49-.27,2.72-1.92,5.22-1.89,8.21.01,1.4-1.44,2.49-2.73.59-1.3-1.91-2.22-1.01-2.99.32-1.01,1.73-1.82,2.23-3.69.7-1.88-1.54-4.93.1-6.14,2.83-.54,1.23-.44,2.83-1.72,3.63-1.07.67-2.28,1.88-2.8-.8-.66-3.4-1.05-3.45-4.63-2.41-.98-.55-.31-1.58-.64-2.32-.43-.97-.59-2.59-2.05-2.1-1.42.48-2.15,2.13-1.11,3.34,1.61,1.88.42,4.41,2.01,6.29.96,1.13-.42,2.15-1.4,2.51-1.06.38-1.5-.35-1.36-1.5.16-1.36-.78-2.43-1.93-2.15-3.2.79-6.33-.87-9.56.18-2.43.79-3.22,1.64-1.58,3.85,3.05,4.1,2.27,6.32-2.68,7.64-1.93.51-3.31,1.41-4.64,3.18-1.66,2.19-4.58,3.36-6.17,5.85-.46.72-1.5,1.41-1.47,2.07.37,7.25-7.54,8.4-9.93,13.6-.38.82-1.59.72-2.42.41-3.69-1.36-4.02-.01-2.61,3.04.33.72.03,1.72.28,2.51,1.63,5.25.74,6.45-4.63,6.21-1-.04-2.13-1.56-2.95-.02-.65,1.22,1.21,1.53,1.34,2.28.27,1.6,2.48,4.07-1.72,4.25-3.34.14-2.58,3.23-2.04,4.93.85,2.68-.3,4.01-2.15,5.26-1.24.84-2.78,1.48-2.39,3.36.42,2.03-.53,1.92-1.79,1.23-1.6-.87-2.56-.47-3.83.87-1.32,1.4-3.21,2.33-4.96,3.25-2.23,1.17-4.78,1.58-4.96,5.13-.08,1.61-2.28,2.25-4.3,1.67-2.55-.74-5.23-2.08-7.52.75-.29.36-1.28.5-1.75.29-2.27-1.03-4.26-1.56-6.36.61-.87.89-2.45-.06-3.4-.84-1.4-1.13-3.02-1.6-4.54-1.02-4.02,1.52-7.3.06-10.76-1.8-1.89-1.01-4.47-.71-6.39-1.69-5.77-2.94-11.72-5.36-17.86-7.36-1.34-.43-2.31-1.41-3.36-2.31-2.22-1.91-5.22-1.01-6,1.84-.69,2.52-1.95,4.8-2.72,7.31-1.27,4.13-9.6,5.71-13.63,2.91-1.72-1.19-3.13-2.84-5.17-3.56-8.7-13.84-14.3-28.92-17.31-44.91-2.95-15.64-3.34-31.39-.99-47.22,3.3-22.13,13.64-40.25,30.43-54.84.84-.73,1.74-1.39,2.61-2.09Z" style="fill: #fefefe; stroke-width: 0px;"/>
  <path d="M126.91,501.51c.47,3.07,3.3,3.97,5.3,5.55,13.99,11.05,28.84,20.83,44.81,28.78,24.4,12.14,49.99,20.74,76.99,24.92,8.82,1.37,17.67,2.3,26.56,3.07,8.61.75,17.2.76,25.76.47,22.89-.79,45.38-4.29,67.39-10.84,15.2-4.52,29.9-10.26,44.07-17.29,18.32-9.09,35.42-20.15,51.11-33.27,15.4-12.88,29.19-27.32,41.37-43.34,13.55-17.83,24.62-36.97,33.59-57.49,9.52-21.8,15.44-44.55,19.67-67.82.99-5.45,1.44-11,3.26-17.33,1.16,2.88,1.98,4.84,2.74,6.82,1.26,3.29,2.84,4.07,6.01,2.46,3.1-1.57,6.03-3.48,9.05-5.22,2.23-1.29,3.23-.62,3.08,1.95-.43,7.43-1.24,14.82-2.44,22.16-1.8,11.02-4.53,21.84-7.6,32.57-3.18,11.14-7.5,21.85-12.1,32.46-4.36,10.06-9.32,19.82-15.29,29.04-4.73,7.31-10.05,14.21-15.84,20.69-6.21,6.95-11.68,14.51-18.05,21.34-7.97,8.55-15.68,17.29-24.4,25.16-12.59,11.36-25.85,21.77-40.1,30.92-17.66,11.34-36.4,20.53-56.08,27.87-19.85,7.41-40.26,12.72-60.97,16.97-7.65,1.57-15.47,1.97-23.25,2.68-10.23.93-20.44.73-30.62.47-9.86-.25-19.7-1.17-29.52-2.57-18.64-2.67-36.78-7.31-54.57-13.2-17.02-5.64-33.5-12.64-49.04-21.8-8.04-4.74-16.09-9.47-23.79-14.74-4.4-3.01-8.87-6.03-12.78-9.61-2.53-2.32-3.82-1.75-5.51.46-.29.38-.79.58-1.2.87-13.91-13.84-27.93-27.57-39.5-43.53-8.1-11.18-15.82-22.59-21.36-35.32-2.45-5.63-1.75-11.39,2.73-15.32,3.31-2.91,3.18-6.3,2.48-9.85-1.97-9.9-5.84-19.24-8.65-28.9-3.01-10.36-5.87-20.74-7.77-31.39-1.39-7.81-2.48-15.65-3.41-23.51-.4-3.43-.07-6.95-.07-11.1,2.03,9.82,3.67,19.05,5.86,28.15,7.09,29.36,18.58,56.89,34.71,82.49,8.17,12.97,17.52,24.97,27.56,36.54,9.09,10.47,19.48,19.47,29.8,28.6Z" style="fill: #f55f61; stroke-width: 0px;"/>
  <path d="M130.73,55.76c6.21-3.63,12.38-7.33,18.64-10.88,17.6-9.98,36.09-17.88,55.52-23.53,2.92-.85,5.68-2.59,9.01-1.92-5.03,2.21-10.31,3.77-15.3,6.06-5.76,2.65-11.76,4.79-17.13,8.25-1.24.79-3.27,1.51-2.5,3.14.79,1.68,2.7,1.19,4.15.18,3.07-2.55,7.07-2.9,10.6-4.35,5.17-2.12,10.57-3.66,15.88-5.41,1.14-.38,2.35-.98,3.53,0,7.59-1.82,15.16-3.73,22.77-5.44,10.76-2.42,21.66-3.94,32.63-5.18,11.55-1.31,23.09-1.39,34.65-1.36,18.93.04,37.57,2.68,56.08,6.38,19.84,3.97,38.72,10.95,57.63,17.91,3.35,1.23,6.96,1.79,10.44,2.66,8.56,1.35,15.78,5.85,23.02,10.12,16.83,9.94,32.22,21.79,46.64,35.04,12.29,11.29,23.23,23.71,33.41,36.83,6.89,8.89,6.67,9.06-2.67,15.36-.37,0-.75.02-1.12.03-4.75.06-5.28.98-3.6,5.59,1.75,4.81,3.9,9.42,6.22,13.97.48.94,1.31,1.8,1.08,3.85-3.51-6.1-7.34-11.17-11.04-16.32-9.06-12.62-18.81-24.63-29.57-35.89-14.14-14.81-29.8-27.74-46.84-38.93-16.53-10.86-34.19-19.66-52.79-26.54-10.97-4.06-22.15-7.33-33.49-10.17-1.63-.41-3.57.28-4.92-1.21-1.11-.87-2.6.15-3.71-.73l-.03-.02c-1.37-.93-3.08.2-4.45-.73-1.34.09-2.63-.03-3.8-.77-1.63-.96-3.57.23-5.2-.73l-.04-.02c-1.63-.96-3.57.23-5.2-.73-.52,0-1.04-.02-1.55-.02-1.63-.96-3.56.23-5.19-.73-.52,0-1.04-.02-1.56-.03-2.66-.98-5.52.27-8.18-.72-1.27,0-2.54-.02-3.8-.03-7.47-.6-14.95-.59-22.42,0-2.27.01-4.54.02-6.8.03-1.1.87-2.58-.14-3.68.71-17.31.82-34.22,4.08-50.88,8.65-17.46,4.79-34.27,11.36-50.38,19.59-19.11,9.77-36.85,21.64-53.07,35.77-6.19,5.4-12.49,10.7-18.09,16.71-11.27,12.09-21.99,24.67-31.31,38.36-2.44,3.59-5.33,6.9-7.06,10.97-.26.62-.72,1.31-2.54,1.17,3.4-4.55,5.36-9.46,8.08-13.95,4.9-8.08,9.91-16.1,14.85-24.16,3.14-5.12,4.09-10.26.62-15.74-2.87-4.53-.93-8.81,1.8-12.48,6.79-9.12,15.07-16.81,23.79-24.08,6.11-5.09,12.15-10.26,18.87-14.55Z" style="fill: #f55f61; stroke-width: 0px;"/>
  <path d="M2.47,301.6c.15-32.41,4.43-61.03,13.05-89.05,7.63-24.81,18.51-48.08,32.19-70.06,5.39-8.66,11.39-16.93,17.86-24.83.86-1.05,1.73-3.01,3.43-2.23,1.78.82.74,2.55.41,3.98-2.64,11.51-8.99,21.28-14.75,31.31-9.07,15.81-16.79,32.2-23.19,49.28-4.77,12.73-8.15,25.84-11.24,38.99-2.45,10.45-3.85,21.17-5.03,31.91-1.46,13.3-1.56,26.59-1.28,39.9.2,9.9,1.4,19.76,2.74,29.59,1.87,13.79,4.74,27.35,8.34,40.78,2.37,8.85,5.23,17.58,6.51,26.71.45,3.25.19,6.47.29,9.7.03,1.08-.49,2.08-1.48,2.4-1.42.46-1.53-1.02-1.9-1.79-6.54-13.35-11.26-27.38-15.32-41.65-4.25-14.96-7.2-30.2-8.84-45.63-1.14-10.75-2.17-21.56-1.78-29.29Z" style="fill: #f55f61; stroke-width: 0px;"/>
  <path d="M265.42,461.09c5.14,1.41,9.55,4.63,15.01,5.43,4.13.61,8.2.43,12.29.46,12.21.07,23.01-4.47,33.28-10.59,14.28-8.49,26.53-19.6,39.26-30.13,14.74-12.19,28.97-24.96,43.57-37.3,11.67-9.86,23.34-19.87,33.67-31.21,13.49-14.8,26.69-29.88,35.45-48.18,6.28-13.12,9.96-26.97,11.59-41.41,1.92-17.03,1.16-33.91-4.73-50.02-3.99-10.9-9.36-21.2-18.69-29.11-8.09-6.86-16.1-13.63-25.55-18.6-10.47-5.52-21.44-9.07-33.31-9.84-4.07-.26-8.12-.97-12.17-1.48,4.49-1.5,9.14-.95,13.65-.56,23.28,2.01,42.4,12.64,58.55,29.05,13.6,13.81,21.92,30.29,24.56,49.59,5.5,40.19-4.32,76.21-29.34,108.09-13.29,16.94-28.92,31.6-44.92,45.9-17.08,15.27-34.66,29.96-52.35,44.51-14.02,11.53-27.81,23.4-43.07,33.33-5.98,3.89-12.69,5.12-19.8,5.67-13.81,1.07-25.37-3.63-35.73-12.23-.47-.39-.83-.91-1.24-1.37Z" style="fill: #cababa; stroke-width: 0px;"/>
  <path d="M286.53,28.76c4.53-1.55,9.2-.53,13.8-.64,2.86-.07,5.86-.87,8.63.64-7.48,0-14.95,0-22.42,0Z" style="fill: #f55f61; stroke-width: 0px;"/>
  <path d="M312.76,28.79c2.72.38,5.57-.83,8.18.72-2.72-.35-5.57.86-8.18-.72Z" style="fill: #f55f61; stroke-width: 0px;"/>
  <path d="M322.5,29.54c1.72.29,3.62-.67,5.19.73-1.73-.25-3.63.71-5.19-.73Z" style="fill: #f55f61; stroke-width: 0px;"/>
  <path d="M329.24,30.29c1.73.28,3.63-.67,5.2.73-1.73-.25-3.63.71-5.2-.73Z" style="fill: #f55f61; stroke-width: 0px;"/>
  <path d="M334.47,31.04c1.73.29,3.63-.67,5.2.73-1.73-.25-3.63.71-5.2-.73Z" style="fill: #f55f61; stroke-width: 0px;"/>
  <path d="M343.47,32.54c1.48.24,3.14-.59,4.45.73-1.49-.21-3.15.64-4.45-.73Z" style="fill: #f55f61; stroke-width: 0px;"/>
  <path d="M276.04,29.51c1.04-1.2,2.44-.54,3.68-.71-1.03,1.25-2.44.58-3.68.71Z" style="fill: #f55f61; stroke-width: 0px;"/>
  <path d="M347.96,33.29c1.25.18,2.66-.48,3.71.73-1.26-.14-2.67.53-3.71-.73Z" style="fill: #f55f61; stroke-width: 0px;"/>
  <path d="M582.39,386.12c-.47,4-1.48,7.82-3.73,11.22.71-3.92,1.94-7.66,3.73-11.22Z" style="fill: #d84447; stroke-width: 0px;"/>
  <path d="M413.78,565.36c-2.04,1.18-3.34,2.42-5.58,1.71,1.64-1.05,2.97-2.11,5.58-1.71Z" style="fill: #f55f61; stroke-width: 0px;"/>
  <path d="M442.46,550.7c-1.88,1.65-3,2.74-5.25,3.07,1.19-1.86,2.56-2.48,5.25-3.07Z" style="fill: #f55f61; stroke-width: 0px;"/>
  <path d="M400.51,570.5c-2.03,1.18-3.13,2.15-5.14,1.96,1.22-1.68,2.56-2.09,5.14-1.96Z" style="fill: #f55f61; stroke-width: 0px;"/>
  <path d="M420.69,561.79c-.54,1.12-1.39,1.59-2.69,1.58.59-1.33,1.68-1.39,2.69-1.58Z" style="fill: #f55f61; stroke-width: 0px;"/>
  <path d="M213.13,27.3c-8.57,2.9-17.13,5.81-25.7,8.68-1.4.47-2.87.73-4.3,1.09-.69-.13-1.65.2-1.89-.75-.22-.85.52-1.43,1.13-1.76,2.86-1.53,5.68-3.17,8.66-4.41,18.9-7.86,38.55-13.01,58.72-16.41,18.96-3.19,38.05-4.4,57.19-3.56,15.8.7,31.59,2.11,46.96,6.34-5.19.27-10.25-.96-15.32-1.62-6.78-.88-13.58-1.39-20.36-1.72-9.28-.45-18.61-.33-27.91-.06-12.03.35-23.98,1.76-35.84,3.74-13.23,2.21-26.29,5.2-39.07,9.32-.79.25-1.78.24-2.28,1.12Z" style="fill: #f55f61; stroke-width: 0px;"/>
  <path d="M286.08,246.85c1.09.18,1.88.74,1.79,1.92-.09,1.14-.84,1.79-2.01,1.6-1.16-.18-1.57-1.05-1.53-2.16.04-1.13.77-1.41,1.75-1.37Z" style="fill: #fff; stroke-width: 0px;"/>
  <path d="M259.41,280.57c.08.95-.45,1.33-1.32,1.37-.79.04-1.68-.14-1.78-.96-.11-.96.74-1.59,1.6-1.74.84-.14,1.31.52,1.5,1.33Z" style="fill: #fefefe; stroke-width: 0px;"/>
</svg>