<?xml version="1.0" encoding="UTF-8"?>
<svg id="Layer_1" data-name="Layer 1" xmlns="http://www.w3.org/2000/svg" viewBox="0 0 1167.34 913.04">
  <path d="M362.35,896.01c-11-11.22-18.39-24.99-26.16-38.34-33.46-57.5-67.26-114.78-105.04-169.6-40.94-59.39-83.7-117.39-131.9-171.17-23.02-25.69-49.08-48.27-74.65-71.33-7.86-7.09-16.04-14.17-20.22-24.43-.91-2.23-2.16-4.34-1.7-6.9,2.65-5.36,5.67-5.86,10.82-.91,8.07,7.77,16.76,14.79,25.21,22.1,33.51,28.97,68.61,55.95,105.23,80.76,10.82,7.33,21.35,16.91,34.6,19.61,12.83,2.61,25.38,8.87,39.12,5.29,5.35-1.4,9.97,4.43,14.61,2.55,4.13-1.68,4.95-8.08,9.91-10.03,2.47-.97,4.92-2.08,7.29-3.33,3.77-1.98,6.95-4.61,8.38-8.74,4.73-13.59,10.99-26.46,18.62-38.63,3.07-4.9,2.63-8.81-1.26-13.07-26.63-29.17-55.67-55.58-88.07-78.27-21.56-15.1-44.71-27.51-67.38-40.74-2.23-1.3-5.12-2.02-5.42-5.33,2.1-4.11,5.36-2.23,8.19-1.38,11.16,3.34,22.29,6.98,32.6,12.4,20.62,10.84,42.64,18.69,63.11,29.85,6.44,3.51,13.2,5.82,20.61,1.14,4.54-2.87,9.36-.58,13.83,1.6,23.47,11.43,44.4,26.76,65.14,42.37,3.87,2.91,7.76,5.83,11.08,9.41,19.15,18.62,37.41,38.02,54.69,58.44,7.16,8.46,15.41,16.04,21.68,25.34,2.82,4.18,2.83,7.85.04,12.07-5.14,7.77-11.41,14.5-18.02,20.97-5.21,5.09-11.38,4.05-17.82,3.21-4-.52-8.86-3.74-11.79-1.12-2.91,2.6,1.09,7.12,1.22,10.94.34,9.28-.92,18.46-2.43,27.52-1.75,10.55,2.73,18.44,8.97,25.88,2.84,3.38,6.57,3.28,9.78.68,8.77-7.1,18.27-11.77,29.95-11.38,4.01.13,7.02-2.77,9.75-5.77,19.02-20.87,33.26-44.83,45.35-70.16,7.03-14.72,15.7-28.52,23.57-42.76,2.82-5.1,6.19-9.89,8.29-15.39.97-2.53,2.56-4.78,4.68-6.44,13.71-10.72,23.56-25.22,36.06-36.99,16.16-15.21,30.22-32.2,44.83-48.73,13.84-15.65,25.56-33.06,38.36-49.58,16.68-21.54,33.61-42.88,52.39-62.57,50.44-52.9,105.36-100.86,164.49-143.78,48.72-35.36,100.6-65.43,156.34-88.67,21.31-8.88,42.09-19,64.61-24.74,6.21-1.58,12.21-2.76,18.64-1.08,7.89,2.06,9.98,4.25,10.26,12.6.16,4.86.28,9.74,0,14.59-.48,8.16,2.67,14.09,9.87,17.98,7.53,4.07,14.97,3.83,22.18-.56,8.72-5.32,10.08-5.22,14.13,4.41,3.82,9.08,7.09,18.4,10.57,27.63-2.13,1.47-4.22.53-6.13-.37-4.68-2.19-9.28-1.9-13.93-.04-22.61,8.64-43,21.47-63.6,33.87-26.01,15.66-52.15,31.07-76.33,49.61-24.49,18.77-48.59,38.06-71.7,58.44-26.75,23.59-51.77,49.14-78.83,72.39-22.32,19.17-43.5,39.56-64.08,60.46-18.86,19.16-36.68,39.41-54.07,60.02-19.86,23.55-39.84,47.02-61.02,69.47-37.06,39.29-70.91,81.21-98.97,127.55-1.39,2.29-2.79,4.56-4.56,6.58-12.34,17.21-22.17,35.94-32.95,54.1-24.07,40.5-47.96,81.1-71.05,122.16-9.99,17.77-18.76,36.23-28.07,54.38-6.37,12.42-14.87,22.53-26.22,30.62-8.18,5.83-16.3,8.47-25.67,3.33Z" style="fill: #45bd3f; stroke-width: 0px;"/>
  <path d="M114.94,345.7c16.69,9.8,33.47,19.46,50.06,29.42,22.03,13.23,42.96,28.01,61.96,45.38,12.7,11.6,25.4,23.2,37.86,35.05,4.9,4.66,9.24,9.92,13.62,15.09,2.85,3.37,3.62,6.64.82,11.13-8.03,12.91-15.22,26.31-19.8,40.95-1.75,5.59-6.62,8.06-11.51,10.39-5,2.39-10.92,3.33-11.81,10.9-.29,2.42-4.63,4.26-7.93,1.69-4.45-3.47-9.23-3.47-14.48-2.19-5.24,1.28-10.61,1.46-15.53-1.49-6.31-3.79-13.75-1.33-20.5-4.04-5.01-2.02-9.45-4.53-13.93-7.34-17.59-11-35.27-21.84-51.69-34.59-25.58-19.86-51.72-39.01-75.99-60.55-8.14-7.22-16.84-13.82-24.46-21.64-3.01-3.09-6.14-4.02-8.96.36-2.88-3.48-2.29-7.93-2.46-11.79-.71-16.21.27-32.49,4.45-48.14,5.57-20.87,23.33-33.55,46.22-34.33,5.28-.18,10.6.58,15.9.9,14.72,6.19,28.8,13.68,42.98,20.98,1.94,1,3.93,1.92,5.18,3.84Z" style="fill: #45bd3f; stroke-width: 0px;"/>
  <path d="M545.45,630.4c15.67-25.64,32.36-50.6,50.99-74.19,9.14-11.57,18.91-22.65,28.5-33.85,19.2-22.45,39.88-43.55,59.15-65.97,17.82-20.73,34.72-42.28,53.85-61.91,10.8-11.09,20.32-23.46,31.58-34.14,27.77-26.35,55.19-53.08,84.64-77.61,6.87-5.73,13.48-11.94,19.65-18.35,21.08-21.9,44.62-40.93,67.95-60.23,23.69-19.6,47.69-38.92,73.97-54.9,30.22-18.38,59.82-37.91,91.84-53.21,3.74-1.78,7.46-3.5,11.56-4.24,5-1.66,9.2,2.33,12.14,4.18,8.61,5.42,18.71,9.04,25.31,17.43.44.56.66,1.28.93,1.95-3.25,3.33-6.5,6.65-9.76,9.98-7.3,1.47-14.02.51-18.68-5.84-2.36-3.21-4.91-3.41-8.23-2.59-9.34,2.31-17.74,6.75-25.67,11.95-54.1,35.44-106.42,73.34-156.42,114.38-28.91,23.72-57.15,48.17-84.44,73.8-26.23,24.64-51.85,49.9-76.62,75.92-31.63,33.22-62.37,67.28-92.56,101.86-37,42.38-70.69,87.18-101.49,134.16-27.32,41.67-52.28,84.77-75.91,128.66-18.21,33.83-34.43,68.61-50.84,103.32-4.17,8.82-9.53,16.94-15.08,24.93-1.43,2.05-2.45,5.03-5.99,4.26-1.76-3.14.35-5.61,1.55-8.15,2.4-5.05,4.24-10.3,5.99-15.69-6.94,9.82-13.87,19.56-22.67,27.84-8.4,7.91-17.44,13.93-29.53,13.86-2.65-.01-5.3.66-7.67,2.03-4.29-1.05-7.99-3.3-11.66-5.62-1.63-3.86,1.56-4.41,3.84-5.42,15.61-6.93,27.27-18.07,35.84-32.76,12.24-20.98,22.04-43.22,33.95-64.37,14.87-26.41,30.04-52.64,45.31-78.82,18.06-30.98,36.02-62.03,54.7-92.64Z" style="fill: #2d7c23; stroke-width: 0px;"/>
  <path d="M1139.36,93.14c-4.23-4.3-6.16-9.73-7.82-15.36-1.1-3.71-2.38-7.4-3.96-10.94-3.92-8.77-3.81-8.39-11.91-3.54-8.07,4.83-16.53,4.82-24.81-.13-6.81-4.07-10.58-9.64-9.91-17.9.32-3.87.05-7.78.05-11.67,0-13.71-6.64-18.8-20.34-15.52-16.52,3.95-32.71,9.08-48.11,16.18-24.24,11.16-49.29,20.55-72.79,33.31-28.97,15.73-57.39,32.29-84.84,50.66-28.01,18.75-54.18,39.81-80.38,60.83-18.68,14.99-36.46,31.09-54,47.47-15.81,14.76-31.35,29.78-46.35,45.33-20.67,21.44-39.07,44.82-57.61,68.12-15.04,18.91-28.44,39.08-45.04,56.89-9.46,10.16-17.78,21.78-27.97,31.13-15.53,14.27-27,32.46-44.3,44.85-6,4.29-6.96,11.5-10.45,17.22-13.63,22.34-26.04,45.39-37.57,68.9-9.48,19.33-23.09,35.73-36.66,52.15-2.43,2.94-6.36,4.85-10.41,4.47-10.78-1-19.15,3.86-27.16,10.19-6.28,4.97-9.22,3.59-14.48-1.84-11.91-12.31-7.68-26.75-6.24-40.63.72-6.91,1.34-13.43-1.2-19.96-.81-2.09-1.53-4.41-.12-6.27,1.83-2.42,3.96.08,5.97.26,7.88.72,15.98,6.17,23.58.07,8.49-6.82,15.26-15.31,21.13-24.5,1.59-2.49.12-4.26-1.03-5.95-6.13-8.99-12.76-17.43-21.03-24.76-6.64-5.88-12.17-13.12-17.64-20.18-9.99-12.89-22.29-23.49-33.66-35.02-1.52-1.54-2.83-3.29-4.24-4.95,3.18-2.02,4.88.66,6.81,2.25,17.66,14.49,32.49,31.67,47.07,49.11,7.59,9.08,16.34,17.15,23.59,26.54,3.61,4.68,6.76.98,9.98-.72,4.37-6.35,8.75-12.69,13.12-19.04,3.06,3.35,1.27,6.87.22,10.27-1.19,3.84-3.24,7.4-4.54,12.98,8.55-8.83,15.08-17.24,21.6-25.65,25.93-33.43,52.35-66.47,80.53-98.02,17.14-19.2,35.39-37.39,52.37-56.79,20.32-23.21,40.93-46.2,63.07-67.75,28.76-27.98,58.89-54.4,89.97-79.78,34.49-28.17,70.15-54.76,107.35-79.21,24.17-15.88,48.68-31.27,73.56-46.04,8.29-4.92,16.96-9.84,20.63-19.76,41.24-20.96,83.99-37.96,129.04-48.78,10.23-2.46,20.57-2.74,30.22,2.8,18.61,8.34,30.06,23.02,37.21,41.65,3.13,8.15,5.93,16.42,9.05,24.57,2.73,7.13,6.69,11.84,15.19,12.24,7.91.37,12.06,5.87,11.61,13.36.07,3.25-.97,6.15-2.75,8.83-5.95-3.49-12.36-5.8-18.96-7.73-1.98-.58-5.03-.74-4.63-4.24Z" style="fill: #45bd3f; stroke-width: 0px;"/>
  <path d="M1126.42,141.49c-15.48,10.37-30.95,20.75-46.43,31.12-76.35,51.14-145.14,111.41-210.73,175.45-67.49,65.89-131.55,134.91-189.33,209.61-32.48,41.99-58.59,87.96-85.25,133.66-27.38,46.94-51.98,95.32-76.87,143.57-4.89,9.48-10.7,18.47-15.85,27.81-6.49,11.78-15.95,20.03-28.52,24.7-17.43,6.48-33.91,15.42-52.03,20.09,1.25-7.38,8.55-9.27,12.7-14.03.62-.34,1.26-.63,1.91-.88,4.55-1.88,8.35-4.93,12.23-7.84,4.3-3.22,8.65-6.76,13.79-8.04,23.99-5.99,36.46-23.65,47.47-43.94,37.99-70.02,75.15-140.5,115.41-209.26,3.31-5.66,7.29-10.92,9.92-16.98,1.04-2.38,1.62-4.28-1.15-6.25-7.51-5.34-9.79-14.9-5.81-23.48,6.92-14.89,16.48-28.02,27.19-40.34,17.05-19.6,33.16-39.98,50.19-59.6,13.04-15.03,26.12-30.04,39.62-44.62,33.81-36.52,67.66-73.01,103.16-107.93,24.19-23.55,48.95-46.48,74.75-68.24,49.61-41.85,101.49-80.61,157.39-113.78,4.19-2.49,8.5-4.73,13.2-6.12,3.41-1.01,6.87-1.25,9.74,1.13,4.15,3.44,8.58,3.78,13.67,2.72,3.19-.67,6.8-1.29,9.65,1.48Z" style="fill: #53804f; stroke-width: 0px;"/>
  <path d="M933.39,50.46c1.51,7.01-3.87,10.01-8.13,13.35-13.39,10.49-28.64,18.1-42.97,27.13-31.98,20.14-63.7,40.59-94.03,63.2-22.11,16.48-43.84,33.39-65.12,50.93-33.69,27.77-66.31,56.71-96.55,88.18-20.96,21.81-41.13,44.37-60.68,67.49-9.38,11.09-20.03,21.11-29.97,31.74-21.83,23.33-42.13,47.96-62.08,72.9-15.25,19.06-29.69,38.79-46.04,56.95-1.4,1.55-2.86,5.1-5.54,3.16-2.09-1.51.58-3.88,1.18-5.86,1.95-6.42,6.2-12.23,5.19-19.44,25.97-37.47,53.72-73.6,82.28-109.12,19.43-24.17,40.61-46.77,61.68-69.51,20.51-22.13,42.31-42.9,64.33-63.38,45.99-42.79,94.09-83.11,146.02-118.68,47.2-32.33,95.92-62.05,147.1-87.67,1.07-.54,2.23-.91,3.35-1.36Z" style="fill: #68d16a; stroke-width: 0px;"/>
  <path d="M415.52,519.23c-5.85,7.78-6.44,7.63-12.37.41-10.4-12.67-21.87-24.39-32.49-36.89-11.07-13.03-22.51-25.87-36.14-36.45-2.05-1.59-3.36-4.27-6.46-4.25-24.21-19.41-49.1-37.8-77.03-51.68-5.12-2.54-9.43-3.37-14.72.6-5.27,3.95-11.58.89-16.46-1.75-20.92-11.33-43.34-19.45-64.4-30.48-11.42-5.98-23.74-9.73-35.95-13.72-1.73-.57-3.26-1.03-4.56.69-16.36-7.68-33.11-14.6-48.16-24.83,20.11.47,40.27-1.33,60.35,1.53,15.77,2.25,30.31,8.14,44.88,14.11,53.03,21.74,102.83,49.1,146.13,86.98,32.19,28.15,62.28,58.55,91.06,90.22,1.85,2.04,2.9,5.22,6.33,5.52Z" style="fill: #5db859; stroke-width: 0px;"/>
  <path d="M1126.42,141.49c-4.33.12-8.67-.58-12.97.98-3.47,1.26-6.99.17-9.42-2.37-3.73-3.89-7.6-3.3-11.97-1.68-9.41,3.49-17.6,9.21-25.97,14.46-34.43,21.6-67.92,44.6-99.99,69.57-20.38,15.87-39.98,32.74-59.35,49.89-19.56,17.33-38.2,35.64-57.78,52.93-14.54,12.92-27.94,27.01-41.43,40.99-7.08,7.34-14.51,14.35-21.42,21.85-19.37,21.05-38.79,42.05-57.9,63.35-15.22,16.96-30.16,34.15-45.06,51.36-18.57,21.45-36.87,43.1-52.49,66.92-21.85,33.32-45.81,65.21-66.67,99.21-24.92,40.63-49.27,81.65-67.64,125.66-9.29,22.25-19.11,44.08-30.86,65.06-7.54,13.46-16.84,25.53-29.49,34.7-.48,0-.96.02-1.44.02-1.41-2.09-.57-3.44,1.44-4.41,10.64-12.16,17.93-26.36,24.62-40.89,13.71-29.78,27.97-59.27,43.42-88.2,16.22-30.39,33.06-60.41,50.97-89.82,25.33-41.6,52.44-81.95,82.23-120.57,25.16-32.63,52.08-63.65,79.73-94.14,16.94-18.67,34.15-37.08,51.18-55.66,22.84-24.93,47.03-48.51,71.21-72.06,22.36-21.78,45.59-42.68,69.51-62.84,37.95-31.98,76.85-62.7,117.01-91.79,22.36-16.2,45.51-31.31,68.45-46.69,8.66-5.81,17.89-10.59,28.3-12.75,2.29-.47,4.97-1.37,5.85.91,3.58,9.18,12.26,7.71,19.24,9.83-6.01,6.84-13.5,11.72-21.31,16.18Z" style="fill: #41803a; stroke-width: 0px;"/>
  <path d="M1165.71,96.29c-1.16-6.68-4.94-11.68-11.76-11.55-9.72.17-13.86-5.24-16.7-13.15-3.27-9.12-6.49-18.26-10.07-27.26-5.79-14.55-14.97-26.45-28.33-34.94-2.22-1.41-4.14-3.27-6.2-4.92,37.75,10.36,66.67,29.83,73.64,71.74,1.11,6.68,1.89,13.45-.58,20.07Z" style="fill: #85c683; stroke-width: 0px;"/>
  <path d="M545.45,630.4c.45,4.34-2.74,7.23-4.68,10.38-23.67,38.58-45.93,77.98-68.56,117.16-17.33,30-34.23,60.24-49.54,91.36-9.36,19.02-21,36.45-39.69,48.12-3.7,2.31-9.51,1.5-11.17,7-3.7-2.19-6.82-5.02-9.46-8.4,25.25,4.09,38.38-12.67,47.81-31.01,32.37-63.01,68.2-124,104.36-184.85,9.15-15.41,17.94-31.03,27.56-46.16.91-1.44,1.55-3.05,3.38-3.6Z" style="fill: #44813e; stroke-width: 0px;"/>
  <path d="M436.02,890c-.48,1.47-.96,2.94-1.44,4.41-4.39,4.37-8.79,8.73-13.18,13.1-12.33,5.53-24.87,7.86-37.92,2.53,1.24-3.86,4.51-4.05,7.65-3.92,10.7.44,18.9-4.63,26.42-11.48,8.8-8.01,16.1-17.24,22.44-27.27,1.41-2.24,2.69-4.53,6.15-5.77-.79,10.76-7.34,18.95-10.12,28.4Z" style="fill: #2b7122; stroke-width: 0px;"/>
  <path d="M1139.36,93.14c3.75,2.78,8.22,3.62,12.62,4.62,4.62,1.05,8.59,3.01,10.98,7.36-.94,3.88-2.52,7.41-5.46,10.22-11.59-9.81-25.13-16.45-38.38-23.56,7.15-5.52,13.57-.23,20.24,1.36Z" style="fill: #41803a; stroke-width: 0px;"/>
  <path d="M36.5,332.63c2.32-.3,4.23.84,6.22,1.74,11.55,5.26,21.8,12.64,31.93,20.11,6.76,4.98,11.34,11.9,14.43,19.76,2.89,7.36,1.19,10.23-6.56,10.87-17.62,1.45-33.83-3.9-49.74-10.49-5.57-2.31-11.09-4.78-16.26-8.02-5.48-3.44-7.71-7.44-5.35-13.96,3.99-11.01,14.63-19.7,25.32-20.01Z" style="fill: #45bd3f; stroke-width: 0px;"/>
  <path d="M414.8,543.62c-2.32,14.69-4.66,28.4-10.83,41.15-1.88,3.87-5.86,5.31-9.57,5.85-6.02.88-10.9,3.65-15.64,7.09-4.76,3.45-9.3,1.62-9.76-4.19-.42-5.31-.28-10.68.02-16.01.2-3.54,1.94-7.21,5.29-8.14,13.07-3.63,21.17-14.11,31.28-21.8,2.33-1.77,4.66-3.4,9.2-3.95Z" style="fill: #45bd3f; stroke-width: 0px;"/>
  <path d="M436.01,894.39c6.45-7.84,14.05-14.66,19.79-23.16,15.26-22.6,27.61-46.65,36.62-72.37,4.04-11.52,9.76-22.22,15.2-33.06,16.67-33.18,34.74-65.57,54.4-97.08,28.22-45.24,59.36-88.5,90.22-131.92,8.79-12.37,19.59-23.33,29.57-34.85,16.16-18.65,32.32-37.31,48.66-55.8,10.27-11.62,20.83-22.97,31.32-34.4,25.8-28.12,53.3-54.59,80.21-81.63,2-2.01,3.58-4.77,6.97-4.83-2.27,2.51-4.45,5.1-6.81,7.52-19.98,20.51-40.36,40.66-59.91,61.57-24.63,26.34-49.03,52.91-72.71,80.09-22.22,25.49-43.53,51.78-64.89,78.01-5,6.15-8.79,13.32-12.99,20.12-4.06,6.57-3.84,13.13-2.93,20.06.36,2.73,1.26,5.1,4.68,5.58,6.27.88,5.83,4.35,3.24,8.76-7.23,12.32-14.44,24.65-21.49,37.08-11.11,19.6-22.23,39.19-33.08,58.93-22.97,41.81-45.77,83.72-68.65,125.59-2.9,5.32-5.91,10.58-8.71,15.95-8.59,16.45-21.25,27.72-39.5,32.66-9.29,2.52-16.09,9.73-24.1,14.68-1.63,1-2.94,2.62-5.11,2.51Z" style="fill: #44813e; stroke-width: 0px;"/>
  <path d="M455.84,473.52c3.01-9.75,8.97-17.75,14.76-25.62,19.67-26.68,40.88-52.13,62.33-77.4,28.17-33.19,58.72-64.12,90.22-94,23.68-22.46,48.19-44.1,73.15-65.25,40.71-34.49,83.16-66.52,127.94-95.44,18.91-12.21,37.49-25.04,57.92-34.76,3.04-1.44,6.01-2.99,9.97-3.27-.01,3.41-2.51,4.4-4.6,5.77-20.3,13.24-40.52,26.6-60.88,39.75-19.53,12.61-38.43,26.1-57.12,39.92-27.63,20.44-54.23,42.16-80.31,64.5-36.71,31.45-71.5,65.05-104.52,100.31-33.07,35.31-65.24,71.49-94.63,110.04-8.49,11.14-18.14,21.41-27.41,31.94-1.58,1.8-3,4.66-6.81,3.51Z" style="fill: #71d576; stroke-width: 0px;"/>
</svg>