<?xml version="1.0" encoding="UTF-8"?>
<svg id="Layer_1" data-name="Layer 1" xmlns="http://www.w3.org/2000/svg" viewBox="0 0 750 750">
  <path d="M749.06,749.92c-248.47,0-496.95,0-745.42.08-3.04,0-3.64-.6-3.64-3.64C.09,497.85.08,249.33.08.82,1.38.12,2.78.46,4.13.46c246.9-.02,493.81-.02,740.71-.01,5.14,0,4.59-.52,4.59,4.6,0,246.94,0,493.89-.01,740.83,0,1.34.34,2.74-.36,4.03Z" style="fill: #565555; stroke-width: 0px;"/>
  <path d="M749.06,749.92c0-248.06,0-496.12,0-744.18q0-4.92-4.92-4.92c-248.02,0-496.04,0-744.06,0C.25.59-.3.04.46.06c1,.03,2,0,3,0C251.11.07,498.78.08,746.44,0c2.81,0,3.44.63,3.44,3.44-.08,247.7-.07,495.4-.12,743.11,0,1.1.86,2.54-.7,3.37Z" style="fill: #fefefe; stroke-width: 0px;"/>
  <path d="M83.14,441.32c-3.39-10.52-4.24-21.5-5.67-32.34-2.1-15.85-2.22-31.81-1.62-47.8.94-25.07,5.37-49.58,12.67-73.47,7.52-24.61,18.17-47.9,31.81-69.84,21.97-35.34,50.01-64.85,84.17-88.5,21.18-14.67,43.94-26.31,68.21-35.16,23.68-8.63,48.06-14.19,73.01-16.59,23.74-2.28,47.54-1.73,71.28,1.76,25.18,3.7,49.52,10.29,72.9,20.07,24.22,10.13,46.79,23.28,67.58,39.46,30.58,23.8,55.64,52.34,75.21,85.79,15.48,26.44,26.45,54.6,33.35,84.41,7.18,31.03,9.19,62.45,6.25,94.06-2.56,27.52-8.88,54.28-18.96,80.11-10.54,26.99-24.58,51.95-42.28,74.9-18.27,23.68-39.68,44.02-64,61.4-7.72,5.52-15.83,10.36-24.05,15.04-9.4,5.14-19.11,9.66-28.93,13.89-13.36,5.75-27.08,10.47-41.16,14.25-15.39,4.13-30.98,7.04-46.77,8.67-15.85,1.63-31.78,1.71-47.73.95-14.12-.67-28.05-2.57-41.82-5.41-21.79-4.5-42.83-11.46-63.09-20.82-14.42-6.66-28.32-14.24-41.56-22.93-11.97-7.86-23.54-16.36-34.16-26.06-3.86-3.53-7.86-6.91-11.76-10.4-5.02-4.49-9.2-9.82-13.87-14.67-8.73-9.1-16.33-19.17-23.48-29.53-8.71-12.62-16.33-25.9-23.15-39.68-6.15-12.43-10.88-25.38-15.61-38.35-2.43-6.66-3.91-13.61-5.78-20.44-.26-.95-.2-2.01-1-2.76Z" style="fill: #fef7f7; stroke-width: 0px;"/>
  <path d="M83.14,441.32c2.25,1.39,1.99,4,2.53,6.01,6.1,22.65,15.18,44.09,26.21,64.71,8.54,15.98,18.53,31.03,29.93,45.14,12.31,15.26,25.91,29.19,40.91,41.86,17.9,15.13,37.2,28.1,57.93,38.89,24.58,12.79,50.45,22.24,77.66,27.58,13.17,2.59,26.45,4.64,39.97,5.21,9.23.39,18.45.63,27.65.45,11.82-.24,23.58-1.36,35.31-3.07,22.84-3.32,44.89-9.49,66.33-17.79,10.89-4.22,21.55-9.13,31.94-14.55,1.11-.58,2.14-1.31,3.48-1.13-7.64,5.74-16.54,9.1-25.09,13.07-25.81,11.97-52.9,19.49-81.05,23.71-23.48,3.52-47,3.88-70.5,1.83-15.1-1.32-30.07-4.06-44.86-7.81-24.9-6.31-48.56-15.62-71.05-27.91-23.75-12.98-45.36-28.98-64.68-47.92-18.96-18.57-35.24-39.27-48.76-62.19-15.5-26.28-26.67-54.23-33.7-83.88-.17-.71-.11-1.48-.16-2.22Z" style="fill: #d9d9d9; stroke-width: 0px;"/>
  <path d="M543.73,187.4c21.16,18.66,38.38,40.47,52.1,65.07,16.6,29.77,26.83,61.59,30.42,95.5,6.45,61.01-7.13,117.36-41.08,168.33-32.34,48.55-76.69,81.91-132.18,100.25-33.65,11.12-68.2,15.07-103.38,11.29-66.75-7.17-122.53-35.98-166.82-86.59-26.16-29.9-43.91-64.33-53.79-102.74-7.88-30.64-9.84-61.75-6-93.19,4.48-36.69,16.39-70.79,35.73-102.29.52-.84,1.14-1.62,1.72-2.43,1.72-.38,2.7-1.62,3.64-2.99,11.36-16.65,24.3-32,39.13-45.61,16.78-15.4,35.23-28.48,55.5-39.05,19.59-10.22,40.07-17.87,61.62-22.58,15.98-3.5,32.14-5.27,48.56-5.55,23.6-.4,46.74,2.17,69.51,8.31,20.69,5.58,40.35,13.67,59.09,24.09,15.17,8.44,29.49,18.15,43.32,28.61.92.7,2.13.74,2.93,1.58Z" style="fill: #fe3734; stroke-width: 0px;"/>
  <path d="M543.73,187.4c-3.94-.35-6.75-3.07-9.82-5.03-10.5-6.71-20.64-14.01-31.41-20.32-28.52-16.69-59.05-27.78-91.7-33.01-17.57-2.81-35.3-3.26-52.95-2.19-30.64,1.86-59.99,9.4-87.87,22.48-21.48,10.08-41.19,22.85-59.17,38.26-16.36,14.02-30.48,30.11-42.97,47.65-1.44,2.02-3.11,3.89-4.66,5.84-1.23,1.54-2.03.79-2.74-.49,6.58-11.67,14.84-22.13,23.68-32.11,34.9-39.43,77.95-65.71,128.93-78.59,39.36-9.94,78.99-10.2,118.62-.97,41.62,9.7,78.41,28.75,110.57,56.84.55.48,1,1.09,1.49,1.64Z" style="fill: #fe6160; stroke-width: 0px;"/>
  <path d="M329.54,293.76c.49-2.26,2.34-1.43,3.63-1.45,10.43-.11,20.87-.12,31.3-.17.64-.75,1.51-1.04,2.43-1.22,3.55-.86,7.18-.29,10.76-.55,4.95,1.3,10.1,1.13,15.09,1.32,20.79.78,33.73,12.35,42.79,29.74,1.66,3.96,3.85,7.71,5.01,11.89.2.71.57,1.37.78,2.1.37,1.27.29,3.11,1.89,3.35,1.74.26,1.36-1.71,1.93-2.7.52-.9,1.09-1.72,2.34-1.22,2,1.44,1.39,3.61,1.43,5.52.29,12.56,4.6,23.37,13.88,32,5.5,5.11,12.23,8.06,19.19,10.56,6.92,2.49,14.01,4.44,20.97,6.79,2.13.72,4.21,1.56,6.16,2.69,4.79,2.79,6.75,7.33,5.49,12.72-.54,2.31-2,3.68-4.36,4.01-1.98.27-3.98.18-5.98.25-3.02.12-5.52,1.43-7.68,3.44-1.33,1.24-1.25,2.47.53,3.15,5.18,1.99,16.52,1.21,21.02-3.97,5.99-6.89,4.61-14.29-3.66-18.19-1.58-.75-3.25-1.25-4.89-1.85-8.07-2.96-16.36-5.25-24.47-8.1-19.58-6.89-30.25-20.99-33.66-41.09-.12-.74-.38-1.48-.38-2.2,0-3.09-1.48-5.11-4.26-6.29-1.51-1.23-1.22-2.85-.93-4.44.78-4.28,1.84-8.46,4.46-12.06,1.11-1.53,1.58-3.33,2.09-5.1,11.57-14.45,26.01-23.73,44.97-24.85,3.6.84,7.21.69,10.81,0,3.16.35,6.2,1.36,9.34,1.83,1.72-.13,3.12.78,4.63,1.36,5.42,1.17,10.24,3.54,14.36,7.28,5.77,3.68,10.28,8.47,13.13,14.76,3.59,7.94,5.85,16.29,6.82,24.91.38,3.35,1.72,7.25-2.05,9.9-1.21.45-2.45.74-3.75.53-5.07-3.05-10.64-1.8-16.01-1.6-3.33.12-6.67.53-10.03.53-3.95,0-5.06-.86-5.48-4.86-.21-2-.53-3.96-1.17-5.84-2.98-8.76-7.73-11.8-17.67-11.49-2.86.09-6.13-.04-8.52,2.08-6.03,5.36-3.52,10.99,2.56,14.87,4.38,2.79,9.64,3.93,14.74,5.14,3.34.24,6.69.15,10.02.51,3.75-.11,7.49-.83,11.24-.23,1.87,1.36.76,2.23-.55,2.98-.94.54-2.27.13-3.47,1.74,10.51,5.01,20.47,10.71,26.02,21.52,4.92,7.59,7.55,15.83,6.88,24.93-.33,4.49.15,8.86,1.12,13.22-.61,4.91-1.8,9.69-3.47,14.34-2.71,3.11-4.56,6.76-6.61,10.32-2.77,4.82-6.91,8.44-11.54,11.49-6.07,4.9-13.16,7.36-20.75,8.5-8.21,1.23-16.45,2.6-24.72.36-5.8-.16-11.25-1.78-16.52-4.1-1.76-.78-3.53-1.14-5.43-.78-.78-.02-1.55-.25-1.99-.86-3.95-5.46-8.95-9.99-13.23-15.15-.7-.85-1.42-1.74-1.74-2.85-.3-3.24-1.28-6.3-2.43-9.33-3.06-8.07-4.78-16.47-5.66-25.03-.48-4.62-.32-5.7,5.42-6.43,7.29-.93,14.43-2.82,20.7-3.03-7.26.67-15.49,2.35-23.78,3.65-2.7.42-4.02,1.82-4.4,4.66-.49,3.66-2.59,6.96-2.75,10.75-1.34,3.61-1.69,7.57-3.79,10.91-1.36,3.84-3.25,7.41-5.36,10.91-2.29,3.81-5.39,6.66-9.19,8.84-10.59,10.05-23.45,14.07-37.76,14.3-1.62.03-3.23.12-4.84.18-1.95,2.18-4.52,1.15-6.85,1.31-12.21.5-24.42.19-36.63.22s-24.58.08-36.86.02c-10.25-.05-10.08.43-13.03-8.41-.36-1.06-.71-2.13-1.01-3.2-1.65-6.64-4.21-13-6.3-19.51-.63-1.97-2.22-2.56-4.11-2.57-7.85-.07-15.7-.07-23.56,0-1.72.02-3.44.42-4.01,2.17-2.25,6.95-4.79,13.81-6.59,20.9-.19,1.48-.97,2.71-1.64,4-2.47,3.47-5.93,5.32-10.04,6.09-8.37.97-16.76.59-25.14.19-2.31.33-4.62.12-6.93,0-2.69.14-5.58.72-6.73-2.82.17-3.71,1-7.3,2.24-10.77,1.04-2.9,1.49-5.71.32-8.66-.58-1.47-.45-2.91.51-4.22,3.35-1.26,4.59-4.01,5.66-7.22,3.05-9.08,5.08-18.51,9.35-27.18.61-1.24.28-2.7.42-4.07,7.77-23.4,15.18-46.91,22.58-70.43,2.43-7.72,5.2-15.33,7.54-23.08,1.59-5.27,2.88-6.06,8.39-5.7.74.05,1.48.2,2.23.2,1.63.11,3.21-.52,4.85-.28,3.78.3,7.48.45,10.07-3.17.86-1.2,2.23-1.52,3.68-1.44,1.2.11,2.04.79,2.72,1.71,1.3,1.78,2.98,2.73,5.22,3.03,4.57.62,5.86,4.32,7.09,7.99-.08,5.3,3.56,9.39,4.69,14.3-.37,4.83,2.65,8.73,3.67,13.19,5.86,25.52,14.64,50.19,22.18,75.22,3.51,11.64,7.53,23.11,10.92,34.78,1.1,3.79,1.58,7.78,3.93,11.33.73-4.43.76-8.88.39-13.33-.1-1.23-.37-2.46-.44-3.71-.26-4.77-.17-9.77-6.66-10.66-2.75-3.12-3.23-7.15-4.29-10.94-.43-1.55-.65-3.15-1.44-4.58-1.59-3.39-2.5-7.01-3.65-10.55-.38-1.17-.62-2.43.13-3.61,2.7-1.85,5.86-2.51,8.99-2.67,2.45-.12,3.29-1.2,4.16-3.27,1.2-2.84.96-5.75,1.24-8.65.7-3.36-.24-6.77.3-10.13-.37-2.3.02-4.6-.02-6.9-.59-10.57-.15-21.15-.26-31.73-.06-5.85.04-11.7-.03-17.55-.06-5.23-.12-10.44,1.72-15.45Z" style="fill: #595959; stroke-width: 0px;"/>
  <path d="M204.14,453.6c8.86-.1,17.73-.2,26.59-.3,1.42,1,1.14,2.28.68,3.67-2.28,6.83-1.24,13.13,2.52,19.29,5.81,9.52,13.01,17.9,20.28,26.29,7.24,8.35,15.38,15.58,24.25,22.09,13.26,9.73,28.2,15.87,43.83,20.42,17.34,5.05,35.08,7.5,53.15,6.8,9.36-.36,18.63-1.54,27.28-5.6,1.48-.69,2.88-1.48,4.23-2.39,6.46-4.39,7.62-9.18,3.88-16.02-2.03-3.72-4.32-7.29-6.52-10.91-2.01-7.75-6.72-14.11-10.9-20.69-6.29-9.9-12.2-20-17.81-30.28-1.44-2.64-2.24-5.53-2.88-8.47-.34-1.58-.36-2.97,1.08-4.02,2.24.02,4.49.03,6.73.05,16.72,25.16,33.45,50.33,50.16,75.5,1.1,1.65,2.05,3.4,3.07,5.11,1.57,5.63-.66,10.23-4.09,14.38-5.17,6.25-12.27,9.08-19.94,10.78-2.29.51-4.61.95-6.81,1.83-20.91,3.11-41.77,2.89-62.54-1.1-48.81-9.39-87.95-34.21-117.66-74.01-.51-.69-1.1-1.32-1.65-1.97-4.45-1.14-5.45-5.25-7.37-8.57-3.48-5.45-6.55-11.12-9.26-16.99-.73-1.57-1.7-3.16-.3-4.87Z" style="fill: #f3ecec; stroke-width: 0px;"/>
  <path d="M378.34,292.13c-3.75,0-7.5,0-11.26,0-1.59-.9-2.39-2.44-3.25-3.94-3.24-5.73-7.58-10.59-12.03-15.38-6.7-9.49-13.28-19.06-19.25-29.03-4.76-8.37-6.62-17.67-8.62-26.91-1.51-6.96-.75-13.44,4.78-18.58,3.75-3.48,8.33-5.4,13.29-6.38,9.15-1.81,18.48-2.06,27.72-3.12,7.65-.87,15.1.66,22.64,1,6.02.27,11.8,1.55,17.68,2.44,17.21,3.96,32.75,11.79,47.63,20.99,18.08,11.18,33.62,25.26,46.26,42.4,2.76,3.75,5.92,7.45,6.35,12.47-.52,3.9-.11,7.92-2.29,11.58-1.83,3.08-4.04,5.34-7.64,6-7.24,1.33-14.49,2.58-21.67,4.22-1.22.28-2.5.22-3.53-.73-1.15-1.98.33-2.62,1.7-3.29,3.94-1.93,8.2-2.99,12.32-4.42,6.72-2.34,7.66-4.3,6.13-11.2-2.05-9.27-7.9-16.11-14.51-22.2-9.93-9.16-21.14-16.67-33.09-22.99-23.83-12.6-48.38-23.22-75.56-26.04-9.92-1.03-19.88-1.62-29.67,1.24-6.33,1.85-8.79,5-8.83,11.68-.03,5.32-1.25,10.53.19,15.98,3.29,12.4,9.3,23.34,16.68,33.64,2.11,2.94,4.66,5.53,6.98,8.3,2.66,3.19,5.92,5.85,9.85,7.26,7.05,2.52,14.02,5.24,21.07,7.74,6.29,2.24,12.65,3.75,19.39,3.47,2.07-.09,4.47-.04,4.41,3.15-1.54,2.33-3.98,1.77-6.09,1.68-5.92-.25-11.79-1.12-17.68-1.77-3.45-.38-6.82-.55-10.11.75Z" style="fill: #f3ecec; stroke-width: 0px;"/>
  <path d="M214.9,475c2.06,3.01,4.11,6.02,6.17,9.03-6.2,2.61-6.42,2.8-10.81-2.3-7.08-8.24-12.25-17.88-18.58-26.63-6.65-9.19-8.55-19.25-9.96-29.93-2-15.19-4.2-30.41-3.96-45.7.4-25.97,4.4-51.46,15.11-75.35,6.62-14.78,14.44-29.01,24.68-41.72,4.45-5.52,7.27-12.21,12.57-17.14,4.66-4.34,8.09-4.47,12.52.05,4.24,4.31,6.73,9.89,10.39,14.59,6.9,8.89,14.79,16.97,24.08,23.33,8.05,5.51,13.89,12.49,18.62,20.95,3.74,6.7,8.53,12.93,15.19,17.18,4.55,2.9,6.93,1.87,7.93-3.4,1.55-8.16,3.42-16.11,9.61-22.24.51-.5.73-1.29,1.09-1.95-.07,21.73-.14,43.45-.21,65.18-2.02,2.89-3.59.94-4.86-.64-4.75-5.92-9.15-12.1-13.12-18.58-8.78-14.3-16.93-28.99-26.41-42.86-1.29-1.89-2.82-3.53-4.64-4.79-3.79-2.64-7.35-5.55-10.45-8.96-1.21-1.32-2.38-1.61-3.91-.8-2.87-.17-3.69-2.63-4.83-4.56-.68-1.16-1.14-2.43-2.23-3.31-4.1-4.98-7.35-10.57-11.26-15.7-1.73-2.27-3.6-4.42-5.4-6.62-2-2.43-4.55-2.68-6.79-.5-1.92,1.86-4.77,2.85-5.62,5.75-10.05,12.93-18.57,26.79-25.24,41.76-.47.71-.85,1.47-1.17,2.28-.42.91-.99,1.68-1.91,2.15-2.01.19-2.48,1.82-3.12,3.31-6.6,15.45-10.67,31.57-13.03,48.18-1.39,9.78-1.61,19.6-1.5,29.45.04,3.23.23,6.48-.39,9.7-1.72,2.35-2.02,4.97-1.55,7.78,1.97,11.87,4.1,23.71,6.4,35.53.81,4.18,2.82,7.94,3.59,12.09.11.6.33,1.21.04,1.82-.09,1.42.67,1.86,1.98,1.85,1.31,0,2.63.14,3.94.22,3.34,2.19,4.28,6.03,6.14,9.19,2.86,4.88,5.88,9.48,10.93,12.36Z" style="fill: #d4312f; stroke-width: 0px;"/>
  <path d="M518.55,245.99c2.01-1.29,2.62.79,3.49,1.66,11.71,11.57,20.76,25.1,29.27,39.11,9.16,15.09,14.25,31.74,17.81,48.63,3.87,18.36,6.86,37.09,5.31,56.03-1.55,18.9-6.34,37.05-13.53,54.62-6.63,16.21-14.07,31.95-24.3,46.26-4.93,6.9-11.76,11.82-17.84,17.5-3.03,2.83-6.01,1.18-8.68-4.11.51-.45,1.2-.69,1.72-.38,3.56,2.13,5.85.07,8-2.37,8.19-9.26,14.93-19.52,20.67-30.44,5.78-11.01,10.99-22.27,14.55-34.24,2.67-5.12,3.85-10.76,5.52-16.21,7.39-24.05,8.15-48.47,3.64-73.14-1.25-6.85-1.65-13.87-4.42-20.38-7.84-25.75-17.57-50.59-34.57-71.94-1.78-2.24-3.54-4.51-5.41-6.68-.96-1.11-2.17-2.2-1.24-3.93Z" style="fill: #bd1815; stroke-width: 0px;"/>
  <path d="M471.14,450.94c1.11-.45,2.1-1.55,3.45-.89,5.83,2.86,12.12,4.18,18.39,5.58,1.51,1.08,1.48,2.73,1.7,4.35,1.04,7.71,3.53,14.76,9.33,20.3,4.29,4.1,8.8,4.48,13.92,1.35,3.42-2.08,5.77-5.18,8.01-8.29,5.55-7.73,10.24-15.95,12.67-25.27.13-.49.09-.99.04-1.49,7.34-5.67,12.44-13.08,16.56-21.25,1.62,1.37,1.12,3.02.62,4.67-2.56,3.17-2.13,7.31-3.5,10.91-8.1,21.26-19.12,40.85-32.91,58.9-3.23,4.23-7.94,5.49-11.57,3.33-6.96-7-12.1-15.38-17.72-23.4-.78-1.11-1.64-2.16-2.46-3.23-3.6-2.36-5.65-6.07-8.12-9.4-2.41-3.26-4.4-6.82-6.95-9.99-.07-2.15-3.04-3.63-1.46-6.17Z" style="fill: #f3ecec; stroke-width: 0px;"/>
  <path d="M508.63,267.48c-2.38-6.71-6.78-12.18-11.25-17.52-13.5-16.11-29.52-29.27-47.84-39.57-12.42-6.98-25.43-12.67-39-17.05-.63-1.55-.17-2.08,1.43-1.52,14.95,2.49,29.06,7.59,42.69,14.03,11.72,5.53,22.85,12.09,33.02,20.2,12.49,12.55,23.88,25.93,31.77,41.95,3.16,6.41,5.15,13.2,5.05,20.44-.02,1.61.26,3.69-2.37,3.79-1.51-.3-3.01-.61-4.52-.91-.89-.84-2.08-1.48-2.26-2.82-.99-7.41-5.18-13.8-6.73-21.02Z" style="fill: #f3ecec; stroke-width: 0px;"/>
  <path d="M411.98,191.82c-.76.24-1.26.72-1.43,1.52-7.07-1.88-14.36-2.81-21.56-3.23-7.51-.44-14.95-2.37-22.75-.06-7.44,2.2-15.56,1.48-23.2,3.36-5.36,1.32-10.38,3.12-14.26,7.48-4.02,4.52-4.39,9.67-3.15,15.06,1.84,8,3.27,16.12,6.36,23.8.52,1.29.7,2.64.58,4.04-8.18-11.62-16.01-23.47-22.66-36.05-2.76-5.21-1.52-8.37,4.08-10.55,12.52-4.88,25.69-6.93,38.95-8.34,15.82-1.68,31.64-1.54,47.4.7,3.91.56,7.88.93,11.65,2.28Z" style="fill: #f3ecec; stroke-width: 0px;"/>
  <path d="M474.32,456.31c4.45,6.73,8.9,13.46,13.35,20.19-1.84.54-2.75-.88-3.74-1.9-8-8.32-17.34-14.85-27.19-20.76-5.24-3.15-9.97-7.05-14.3-11.32-5.77-5.69-12.02-7.02-19.31-3.48,5.39-5.99,9.94-12.52,13.02-20.01,1.84-1.82,3.09-.27,4.36.82,2.66,2.29,4.42,5.34,6.59,8.04,4.45,5.52,9.61,10.36,14.61,15.36,3.07,3.07,6.24,6.04,8.76,9.62,1,1.42,2.28,2.62,3.84,3.47Z" style="fill: #c42826; stroke-width: 0px;"/>
  <path d="M522.14,292.23c1.95-6.62-.2-12.8-2.38-18.84-4.38-12.13-12.36-22.04-20.3-31.96-4.03-5.04-7.85-10.24-11.77-15.37,4.21,2.24,7.28,5.99,11.26,8.54,11.85,7.62,20.46,18.41,28.71,29.52,2.82,3.79,5.45,7.73,7.89,11.78,1.03,1.7,2.24,3.36,1.53,5.54-1.24,1.78-1.01,3.72-.7,5.7.45,2.8,1.22,5.54,1.53,8.36.19,1.74.32,3.64-2.37,3.56-4.15-2.91-8.86-4.71-13.42-6.82Z" style="fill: #f3ecec; stroke-width: 0px;"/>
  <path d="M536.35,281.03c-8.43-15.35-19.37-28.76-31.84-40.98-1.86-1.82-3.71-3.64-5.56-5.46,5.84,1.48,9.78,6.04,14.63,9.13,1.59,1.02,3.12,1.94,4.98,2.27,15.68,17.29,27.24,37.06,35.12,58.98,2.65,7.37,4.91,14.88,7.35,22.33-1,1.83-2.71,2.22-4.59,2.28-1.93-.44-1.78-2.27-2.19-3.57-4.4-13.86-9.81-27.29-16.92-40-.88-1.56-1.42-3.17-.96-4.98Z" style="fill: #af2b2a; stroke-width: 0px;"/>
  <path d="M507.85,503.13c4.24-.24,7.8-1.57,10.56-5.14,15.4-19.99,27.23-41.84,34.95-65.89.22-.69.59-1.33.89-2,2.13.29,2.24,1.9,2.49,3.58.31,2.11-.82,4.14-.19,6.23-5.97,17.63-13.97,34.29-24.27,49.79-3.57,5.38-7.42,10.58-11.97,15.2-4.58,4.65-5.01,4.65-10.22.8-1.03-.61-1.83-1.41-2.22-2.57Z" style="fill: #b03534; stroke-width: 0px;"/>
  <path d="M402.92,561.11c2.44-2.41,5.83-2.57,8.8-3.7,4.76-1.82,9.42-3.75,13.52-6.86,5.45-4.14,7.06-10.24,8.53-16.43,2.85,3.63,5.04,7.67,6.92,11.86,1.63,3.61.76,6.36-2.64,7.62-11.33,4.18-23.1,6.49-35.13,7.52Z" style="fill: #f3ecec; stroke-width: 0px;"/>
  <path d="M351.81,272.81c6.99,4.94,12.43,11.11,15.27,19.33-.87,0-1.74,0-2.61,0-4.22-6.44-8.44-12.89-12.67-19.33Z" style="fill: #f3ecec; stroke-width: 0px;"/>
  <path d="M406.02,516.05c2.08,3.55,4.16,7.09,6.25,10.64,4.52,7.68,3.19,13.64-4.21,18.62-7.14,4.81-15.24,6.7-23.62,7.57-27.75,2.87-54.4-1.94-80.18-12.1-13.67-5.39-26.04-12.99-37.05-22.84-13.27-11.87-24.78-25.18-34.42-40.16-4.84-7.52-5.96-15.15-2.18-23.37.15-.32.08-.74.11-1.11,2.73-1.77,5.47-3.55,8.2-5.32,5.99-2.62,12.24-1.73,18.44-1.34,7.04.45,13.28,3.18,19.11,6.99,4.94,3.22,10.29,4.54,16.25,4.75,13.07.46,26.09,1.86,39.1,3.27,10.43,1.13,20.8,2.48,30.8,5.84,8.77,2.96,15.85,8.24,21.51,15.55,8.1,10.47,14.82,21.85,21.88,33.01Z" style="fill: #f9f2f2; stroke-width: 0px;"/>
  <path d="M203.09,298.34c5.99-13.26,13.42-25.69,21.69-37.63,1.11-1.6,2.52-2.99,3.79-4.48,6.81-3.38,11.35-2.35,15.9,3.91,5.82,8,8.12,17.12,8.24,26.9.03,2.15-.64,3.87-2.45,5.09q-7.39.45-9.61,7.42c-9.37,29.24-18.74,58.47-28.12,87.7-.34,1.06-.85,2.06-1.28,3.09-.69,1.33-1.25,2.72-2.05,3.99-3.32,5.27-9.11,6.05-13.59,1.69-1.6-1.56-2.93-3.39-3.94-5.42-3.82-7.65-5.9-15.76-6.44-24.28.69-11.58,2.1-23.07,4.84-34.35,2.23-9.21,5.12-18.21,9.02-26.87.47-1.04.99-2.02,2.19-2.39.3-.78.61-1.55.91-2.33-.43-1.01.28-1.5.91-2.04Z" style="fill: #f3ecec; stroke-width: 0px;"/>
  <path d="M406.02,516.05c-4.84-5.39-8.26-11.8-12.7-17.48-4.37-5.6-8.19-11.63-12.75-17.06-7.96-9.49-18.96-13.43-30.74-15.47-16.56-2.88-33.27-4.54-50.06-5.28-10.43-.46-20.63-1.53-29.17-8.48-.84-.68-2.03-.94-3.07-1.36-7.72-3.1-15.76-3.38-23.89-2.5-1.66.18-3.2.37-4.72-.45.3-1.23.6-2.45.9-3.68,3.44-6.54,8.46-11.3,15.62-13.48,6.06-1.85,12.2-1.71,17.71,1.41,5.03,2.85,10.2,5.66,14.34,9.88,1.3,3.61,1.61,8.43,4.15,10.49,2.76,2.24,7.64.64,11.6.66,23.52.11,47.04.15,70.55.21.62,8.26,5.09,14.97,9.02,21.84,6.9,12.07,14.08,23.98,21.08,35.99.87,1.49,1.42,3.16,2.12,4.75Z" style="fill: #f3ecec; stroke-width: 0px;"/>
  <path d="M366.3,390.92c0-9.37.02-18.74.03-28.11.93-2.35.98-4.85,1.11-7.32.13-2.51.6-4.94,1.45-7.29,1.44-3.98,3.92-7.14,8.21-7.9,4.23-.76,7.56,1.71,9.98,4.76,7.87,9.88,11.01,21.64,12.37,33.9.71,6.37-.18,12.66-2.79,18.65-3.86,8.87-12,11.82-20.66,9.56-4.52-1.18-7.07-4.83-8.19-9.37-.56-2.28-.31-4.74-1.52-6.87Z" style="fill: #d43230; stroke-width: 0px;"/>
  <path d="M508.63,267.48c5.13,7.14,7.76,15.23,8.99,23.84-3.01-.5-6.03-1-9.04-1.5-3.95-.39-7.9-.29-11.85-.06-17.82,1.31-31.64,9.87-42.63,23.54-2.4,2.53-4.11,5.64-6.46,8.18-4.5,4.85-8.15,4.99-13.28.84-4.04-7.52-9.18-14.15-15.77-19.65-9.32-7.77-20.46-9.69-32.05-10.25-2.73-.13-5.47-.19-8.2-.28,2.44-2.59,5.6-2.39,8.66-1.97,7.11.97,14.23,1.53,21.41,1.31,1.24-.04,2.48.05,3.6-.65.9-2.12,2.87-1.87,4.51-1.72,5.07.49,10.25.75,14.94,2.98,8.39,3.99,16.79,3.88,25.36.66,4.43-1.67,9-2.93,13.43-4.61,1.62-.62,3.33-1.34,4.81.36,8.81-1.67,17.72-2.95,26.39-5.14,5.57-1.41,6.16-6.98,7.11-11.75.26-1.32.07-2.74.08-4.11Z" style="fill: #f3ecec; stroke-width: 0px;"/>
  <path d="M366.3,390.92c1.81,1.44,2.02,3.67,2.71,5.64,2.32,6.59,5.25,9.27,10.57,9.52,7.35.34,12.49-2.54,15.18-8.59,3.52-7.92,4.13-16.23,2.11-24.52-2.23-9.17-4.34-18.5-10.58-26.1-2.28-2.78-4.98-5.35-8.72-4.87-4.14.53-5.87,4-7.38,7.64-1.77,4.28-1.11,9.22-3.87,13.17-.1-4.66-.2-9.32-.3-13.98-.16-5.35.09-10.7-.12-16.05-.1-2.64,1.06-3.67,3.44-3.72,5.95-.13,11.91-.55,17.83.62,1.78.35,2.86,1.43,3.79,2.76,4.77,6.84,9.3,13.83,13.78,20.86,1.15,1.8,1.02,3.84,1.25,5.77,1.28,10.51.79,21-.77,31.46-.83,3.63-1.49,7.32-2.52,10.89-2.62,9.14-7.78,13.27-17.24,13.68-5.35.23-10.72,0-16.07.11-2.46.05-3.29-1.01-3.25-3.36.11-6.98.11-13.95.15-20.93Z" style="fill: #d43230; stroke-width: 0px;"/>
  <path d="M538.65,446.58c1.91.86,1.45,2.41,1.02,3.84-3.59,11.89-9.6,22.46-18.56,31-7.38,7.03-16.38,5.05-22.2-4.26-4.11-6.57-6.57-13.63-5.93-21.53,12.74,1.14,25.29.63,37.25-4.52,2.92-1.26,5.62-3,8.43-4.52Z" style="fill: #f3ecec; stroke-width: 0px;"/>
  <path d="M447.25,334.19c4.6-1.44,4.76-1.27,5.25,3.42,2.44,23.54,14.43,39.31,37.48,46.16,6.94,2.06,13.79,4.4,20.67,6.64,1.42.46,2.82,1,4.21,1.57,4.87,2.03,8.92,4.84,8.73,10.83-.21,6.4-3.24,11.43-9.06,13.98-5.96,2.61-12.36,2.84-18.67.82-1.4-.45-3.04-.96-3.34-2.66-.33-1.84,1.47-2.36,2.54-3.34,3.31-3.05,7.12-4.39,11.64-4.09,2.13.14,4.97.8,5.87-1.95.97-2.96,1.12-6.16-1.03-8.92-2.1-2.7-5.14-3.89-8.22-4.93-8.62-2.92-17.3-5.67-25.87-8.69-20.15-7.11-31-25.03-30.14-44.78.05-1.12-.07-2.24-.12-3.36-.19-.25-.18-.49.07-.7Z" style="fill: #282828; stroke-width: 0px;"/>
  <path d="M328.86,376.3c2.03,4.4-.77,8.08-1.85,12-.2.73-1.07,1.31-1.75,1.12-3.87-1.04-7.42,1.56-11.23.87-2.06-.18-2.5-1.87-3.01-3.37-5.16-15.05-10.06-30.19-14.8-45.38-.51-1.63-1.19-3.41.39-4.89,1.51-1.41,3.13-1.15,4.79-.18.52.31,1.21.25,1.82.32,3.36,1.28,4.33,4.66,6.07,7.25,5.88,8.77,12.28,17.19,17.67,26.29,1.1,1.85,1.9,3.76,1.9,5.94Z" style="fill: #f3ecec; stroke-width: 0px;"/>
  <path d="M536.35,281.03c8.59,13.56,14.31,28.36,18.8,43.7.41,1.42.96,2.8,1.44,4.19,1.85.62,2.13,2.25,2.52,3.84,4.95,19.84,5.3,39.98,3.91,60.23-.33,4.74-.94,9.44-1.8,14.1-.35,1.88-.29,4.1-2.56,5.05-1.15-3.14-.56-6.41-.5-9.59.2-10.32-2.26-19.88-7.45-28.77.73-5.54.07-11.17,1.12-16.67.66-3.47-.19-7.3,2.45-10.3,2.07-5.41.37-10.83-.43-16.1-1.96-12.83-7.81-23.65-18.3-31.67,1.53-1,.9-2.4.64-3.7-.58-2.92-1.21-5.83-1.82-8.74-.47-2.25-.05-4.19,1.96-5.57Z" style="fill: #f3ecec; stroke-width: 0px;"/>
  <path d="M558.67,412.15c2.72-14.98,3.66-30.08,3.23-45.3-.34-11.98-2.24-23.72-4.9-35.36-.19-.84-.27-1.71-.4-2.57,1.04-1.75,2.84-1.39,4.43-1.62,3.45,6.57,3.45,13.94,4.92,20.98,2.97,14.15,3.34,28.49,2.43,42.77-.97,15.23-4.78,29.97-10.29,44.24-.58,1.51-1.03,3.07-1.54,4.6-.77-3.27-1.53-6.54-2.3-9.81.32-1.59.64-3.18.97-4.77,1.86-4.21,2.38-8.77,3.45-13.18Z" style="fill: #772625; stroke-width: 0px;"/>
  <path d="M287.5,442.11c-4.08-.72-7.35-3.1-10.49-5.51-10.81-8.29-23.46-6.13-32.6,3.36-1.45,1.51-2.53,3.44-4.57,4.33,2.27-7.48,4.57-14.95,6.8-22.44.47-1.59,1.4-2.18,2.98-2.18,9.59-.02,19.18-.04,28.77-.13,1.69-.02,2.42.75,2.88,2.26,2.04,6.78,4.16,13.54,6.24,20.31Z" style="fill: #f3ecec; stroke-width: 0px;"/>
  <path d="M303.34,338.23c-1.93-.1-4.2-2.03-5.62-.47-1.37,1.52.42,3.7,1,5.51,5.05,15.7,10.19,31.36,15.3,47.03,1.43,4.53,2.86,9.06,4.29,13.59-1.03,2.38-.07,4.64.56,6.85,2.53,9,5.64,17.83,8.32,26.79.72,2.4,1.27,4.81,1.35,7.32-.22-7.25-3.42-13.72-5.32-20.54-.51-1.83-1.78-3.79.38-5.46,3.04,2.44,4.73.84,6.21-2.29.79,4.31.78,8.48,1.1,12.56.51,6.45.19,12.97.17,19.46,0,1.21.1,2.96-1.25,3.22-1.6.3-1.62-1.6-1.96-2.66-5.04-15.8-10.03-31.62-15.02-47.44-6.87-21.77-14.23-43.39-19.9-65.52-1.98-7.72-4.13-15.4-6.2-23.1,1.82-.76,2.8.36,3.64,1.68,4.15,6.51,8.34,12.98,12.57,19.44.78,1.2,1.78,2.56.36,4.03Z" style="fill: #f3ecec; stroke-width: 0px;"/>
  <path d="M531.19,348.5c-4.09-.73-8.1.85-12.18.45-1.36-.98-2.25-2.21-2.58-3.92-.23-1.21-.59-2.41-.91-3.61-2.49-9.59-7.11-13.14-17.36-13.26,7.71.1,11.81,4.21,12.91,12.95.36,2.83,1.13,5.82-2.47,7.32-7.76-1.63-15.89-2.45-20.56-10.32-2.87-4.84-2.21-8.81,2.61-11.88,6.51-4.14,13.59-4.13,20.41-1.18,6.53,2.83,8.78,8.89,9.5,15.49.57,5.26.78,5.91,6.12,5.51,6.47-.48,12.93-.77,19.42-.66,1.61.03,3.3-.2,4.43,1.38-.28.89-.95,1.38-1.77,1.72-1.56.57-3.21.63-4.84.82-.82.07-1.63.28-2.45.39-2.27-.09-4.52.23-6.79.27-1.37-.02-2.69-.15-3.5-1.49Z" style="fill: #f3ecec; stroke-width: 0px;"/>
  <path d="M187.24,366.42c-.89,9.63,2.75,18.03,7.67,25.82,4.16,6.59,9.41,6.46,14.39.34.62-.76,1.29-1.49,1.93-2.24-1.96,8.71-5.35,16.98-7.93,25.5-1.01,3.32-2.41,6.52-3.29,9.87-.82,3.14-2.35,4.14-5.32,2.7-.74-.08-1.22-.5-1.53-1.15-3.74-8.27-5-17.15-6.24-26.02-1.4-10-2.35-20.03-2.03-30.13.06-1.8-.56-4.21,2.36-4.69Z" style="fill: #f3ecec; stroke-width: 0px;"/>
  <path d="M265.99,281.69c.58-1.26-.54-2.4-.24-3.87,1.63-.14,2.36,1.17,3.2,2.06,4.29,4.55,9.02,8.58,14.1,12.21,1.26.9,2.17,2.02,3,3.28,7.26,11.02,14.26,22.2,20.86,33.64,5.66,9.82,11.77,19.38,18.88,28.24.93,1.16,1.61,2.7,3.54,1.69.02,2.25.03,4.5.05,6.75-2.02,2.84-3.6.98-4.92-.63-2.92-3.55-5.66-7.26-8.26-11.04-10.51-15.25-20.33-30.94-29.71-46.91-1.55-2.64-2.11-5.83-4.35-8.1-1.2-4.12-3.09-7.12-8.2-7.01-2.83.06-3.09-3.61-5.04-5.08-2.13-1.1-4.55-2.03-2.9-5.22Z" style="fill: #c21b18; stroke-width: 0px;"/>
  <path d="M548.34,346.93c.73-.05,1.46-.09,2.19-.14,1.25,0,2.51.02,3.76.02.3,8.15-1.89,16.15-1.53,24.31.06,1.36-.57,2.38-2.04,2.67-5.81-9.32-14.35-15.25-24.23-19.53-1.27-.55-3.34-.58-3.01-2.61.3-1.85,1.96-2.36,3.73-2.36,1.36,0,2.74-.05,3.97-.78,1.22-.04,2.44-.08,3.66-.12,2.19-.95,4.59.2,6.79-.69.73-.05,1.46-.11,2.18-.16,1.44-.71,3.1.24,4.52-.62Z" style="fill: #f3ecec; stroke-width: 0px;"/>
  <path d="M250.25,292.13c1.98-11.1-.89-21.14-6.86-30.42-3.01-4.68-7.2-7.06-12.98-5.51-.58.16-1.23.03-1.85.03,1.41-2.22,3.32-4.02,5.24-5.77,3.62-3.31,6.69-3.08,9.85.66,5.99,7.09,11.36,14.64,16.36,22.47,1.45,4.16.75,8.3-.22,12.4-.61,2.59-1.76,4.89-4.31,6.17l-5.22-.03Z" style="fill: #f3ecec; stroke-width: 0px;"/>
  <path d="M405.24,390.52c0-8.46.96-16.87.45-25.4-.4-6.67-2.94-11.92-6.42-17.11-2.57-3.83-5.49-7.5-7.58-11.58-2.35-4.59-6.09-5.87-10.66-5.98-3.74-.09-7.49.07-11.23-.06-2.56-.09-3.57.88-3.55,3.48.05,4.99-.13,9.98-.22,14.97-.76-5.83-.21-11.7-.43-17.54-.09-2.45,1.55-3.4,3.52-3.55,7.83-.59,15.75-1.04,23.34,1.38,6.62,2.11,10.13,7.58,12.05,13.84,3.18,10.37,3.5,21.09,2.68,31.81-.25,3.24-.35,6.46-.4,9.69-.04,2.16-.28,4.23-1.55,6.05Z" style="fill: #3b2020; stroke-width: 0px;"/>
  <path d="M282.14,299.01c2.34.87,3.13,3.11,4.3,4.98,12.62,20.19,24.42,40.91,39.16,59.71.97,1.24,1.63,3.03,3.78,1.98.09,3.55.98,7.14-.52,10.62-8.51-12.69-17.01-25.39-25.51-38.08-5.41-8.46-10.39-17.2-16.58-25.14-1.54-4.69-3.08-9.38-4.63-14.07Z" style="fill: #8e0e0c; stroke-width: 0px;"/>
  <path d="M474.32,456.31c-2.08-.33-3.58-1.58-4.99-3.03-9.64-9.97-20.21-19.06-28.36-30.44-1.16-1.62-2.46-3.5-4.81-3.82,1.17-3.48,2.35-6.96,3.52-10.44,2.78-1.76,3.87.8,4.99,2.26,3.41,4.45,6.39,9.2,8.09,14.61.82,2.63,2.2,4.98,3.49,7.39,2.89,5.53,8.62,8.65,11.83,13.92.9,1.47,2.04,2.8,3.07,4.19,1.06,1.79,2.12,3.58,3.18,5.37Z" style="fill: #870d0b; stroke-width: 0px;"/>
  <path d="M194.1,427.58c.2.28.39.56.58.83,0,.37-.1.79.03,1.1,3.5,7.86-.56,14.75-2.8,21.87-7.14-11.52-7.2-24.9-9.73-37.61-1.11-5.57-1.82-11.3-1.57-17.04.05-1.05-.68-2.74,1.5-2.67,2.06.93,2.14,2.9,2.42,4.72,1.04,6.67,2.54,13.22,4.67,19.62,1.11,3.34,2.57,6.49,4.89,9.18Z" style="fill: #b61816; stroke-width: 0px;"/>
  <path d="M456.24,432.83c-4.92-6.1-7.23-13.8-12.18-19.89-1.32-1.62-2.24-3.59-4.39-4.37-.06-5.15,3.22-9.62,3.04-14.82-.03-.97.84-1.63,1.74-1.68,9.44-.5,18.55-3.36,27.97-3.98,2.36-.16,4.65.43,6.94,1.9-3.34.38-6.67.84-10.02,1.12-6.08.51-12.1,1.42-18.11,2.48-2.74.48-3.83,1.5-3.37,4.44,1.67,10.6,3.62,21.11,7.26,31.24.42,1.17.75,2.36,1.12,3.54Z" style="fill: #231e1e; stroke-width: 0px;"/>
  <path d="M260.41,354.4c2.65,8.78,5.28,17.56,7.97,26.32.5,1.62-.23,2.02-1.61,2.02-4.36-.01-8.71-.07-13.07-.02-2.05.02-2.29-1-1.79-2.62,2.6-8.54,5.21-17.09,7.81-25.63.23-.02.47-.04.7-.07Z" style="fill: #f3ecec; stroke-width: 0px;"/>
  <path d="M447.25,334.19c-.04.23-.06.46-.07.7-1.05,1.26-.75,2.81-.93,4.26-.21,1.67-1.32,2.28-2.81,2.39-1.41.11-2.37-.49-2.73-1.93-1.49-6-4.25-11.53-6.37-17.3.37,0,.81-.13,1.1.03,6.19,3.16,9.94-.77,13.63-4.72,1.52-1.63,2.97-3.3,5.01-4.32-2.68,5.56-5.64,11-6.61,17.23-.19,1.23-.51,2.41-.24,3.66Z" style="fill: #f3ecec; stroke-width: 0px;"/>
  <path d="M508.61,348.43c1.04-2.99,1.24-5.98.4-9.1-1.99-7.38-5.23-10.06-12.95-10.49-.73-.04-1.45-.15-2.45-.26,6.02-3.21,19.6-1.39,22.2,7.32,1.28,4.3,2.58,8.59,3.2,13.05-3.47-.05-7.01,1.04-10.4-.52Z" style="fill: #f3ecec; stroke-width: 0px;"/>
  <path d="M323.61,418.86c.67,4.73,2.42,9.2,4.16,13.53,2.2,5.49,1.79,10.96,1.15,16.7-.9-2.88-1.81-5.76-2.69-8.64-2.94-9.53-5.98-19.03-8.72-28.62-.73-2.56-1.91-5.56.81-7.94,1.76,4.99,3.53,9.98,5.29,14.96Z" style="fill: #f3ecec; stroke-width: 0px;"/>
  <path d="M214.9,475c-3.33.27-5.66-1.23-7.51-3.94-3.8-5.54-7.72-11-9.55-17.61,2.11-.16,4.21-.31,6.3.14,3.58,7.13,7.17,14.27,10.76,21.4Z" style="fill: #c43837; stroke-width: 0px;"/>
  <path d="M255.47,292.16c3.16-5.79,3.32-12.31,4.53-18.57,2,2.7,3.99,5.41,5.99,8.11.97,1.74,1.93,3.48,2.9,5.22-.64.35-1.59.54-1.87,1.08-2.61,4.95-7.05,4.6-11.55,4.16Z" style="fill: #f3ecec; stroke-width: 0px;"/>
  <path d="M496.73,289.76c3.95-.83,7.91-.91,11.85.06-3.95-.02-7.9-.04-11.85-.06Z" style="fill: #debdbd; stroke-width: 0px;"/>
  <path d="M475.05,288.48c-5.77,1.95-11.6,3.75-17.31,5.89-9.3,3.5-18.27,3.47-27.47-.73-5.68-2.59-12-3.04-18.28-2.83-.99-.59-2.08-.92-3.22-.82-11.4,1.02-21.51-3.48-31.71-7.46-5.2-2.03-10.88-2.94-15.41-6.57-7.09-5.68-12.57-12.75-17.35-20.37-5.72-9.12-10.5-18.67-12.64-29.36-1.3-6.5-.22-12.99.82-19.27,1.05-6.34,6.51-8.71,15.63-9.81,18.25-2.2,36.02,1.03,53.45,6.04,8,2.3,15.87,5.32,23.46,8.76,17.82,8.09,35.32,16.83,50.64,29.29,6.5,5.29,12.43,11.08,17.09,18.12,2.98,4.49,4.29,9.54,5.23,14.7.65,3.56-1.86,6.81-6.08,8.35-5.61,2.05-11.43,3.53-16.86,6.06Z" style="fill: #f3ecec; stroke-width: 0px;"/>
  <path d="M194.1,427.58c-3.3-.85-4.75-3.45-5.8-6.32-3.23-8.8-5.15-17.91-6.19-27.21-.59-20.09.16-40.07,5.24-59.65,2.66-10.25,5.65-20.4,10.65-29.82.67-1.26,1.14-3.03,3.25-1.88-5.37,13.94-9.79,28.13-12.04,42.94-1.05,6.89-1.98,13.79-1.98,20.78-1.32,8.96-.34,17.9.48,26.81,1.01,11.03,3.06,21.9,6.34,32.51.17.56.04,1.22.04,1.84Z" style="fill: #bb3d3c; stroke-width: 0px;"/>
  <path d="M203.09,298.34c.02.82-.26,1.52-.91,2.04-1.94-1.68-.29-1.76.91-2.04Z" style="fill: #bb3d3c; stroke-width: 0px;"/>
  <path d="M197.02,346.38c.54-15.2,3.82-29.46,8.19-43.55,3.8-12.26,10.74-22.65,18.48-32.64,1.19-1.54,2.68-2.59,4.3-3.51,4.19-2.38,8.49-1.09,9.93,3.51,3.36,10.69,4.1,21.02-3.33,30.88-4.49,5.96-6.24,13.52-8.93,20.48-4.93,12.77-8.9,25.91-14.86,38.28-.49,1.01-.97,2.06-1.68,2.9-3.45,4.14-7.34,3.55-9.41-1.4-2.05-4.91-2.63-10.09-2.7-14.95Z" style="fill: #f3ecec; stroke-width: 0px;"/>
  <path d="M541.64,347.7c-2.17,1.15-4.48.84-6.79.69,2.16-1.26,4.49-.79,6.79-.69Z" style="fill: #595959; stroke-width: 0px;"/>
  <path d="M548.34,346.93c-1.42.83-2.97.73-4.53.62,1.41-.9,2.96-.82,4.53-.62Z" style="fill: #595959; stroke-width: 0px;"/>
</svg>