<?xml version="1.0" encoding="UTF-8"?>
<svg id="Layer_1" data-name="Layer 1" xmlns="http://www.w3.org/2000/svg" viewBox="0 0 651.38 830.1">
  <path d="M475.34,125.13c7.68,3.7,11.42,10.72,14.76,17.93,5.77,12.47,8.56,25.83,11.29,39.2.51,2.51,1.07,5.03,3.06,7.48,1.96-3.24,1.34-6.46,1.01-9.3-.88-7.51,3.19-12.13,8.05-16.96,10.68-10.62,21.73-20.99,25.86-36.48,1.05-3.92,3.31-8.54,9.2-8.25,2.14.11,2.73-1.62,2.89-3.58.35-4.35-.91-8.32-3.18-11.84-3.66-5.68-5.91-12.15-10.16-17.49-.7-.88-1.39-2.01-.99-3.76,1.29-.06,1.9,1.06,2.72,1.73,19.31,15.86,27.23,37.77,32.38,61.12.48,2.2.28,4.61,3.17,5.28-7.25,14.31-7.34,29.86-7.89,45.34-.02,9.13.01,18.26,0,27.39-.14,3.62.15,7.27-.32,10.88-.27,2.12-1.04,4.12-3.15,5.07-2.37,1.06-4.06-.54-5.42-2.04-8.29-9.12-15.11-7.45-18.7,4.13-.86,2.76-2.82,4.48-5.25,6.11-6.5,4.36-14.2,7.47-17.34,15.66-.62,1.61-2.03,2.91-4.04,2.72-2.39-.22-2.97-2.24-3.42-4.05-1.74-7.05-2.36-14.29-3.54-21.44-.25-1.52-.24-3.1-.74-4.59-3.53-25.18-5.86-50.56-12.53-75.23-3.11-11.5-7.12-22.48-16.01-30.97-1.11-1.06-2.27-2.24-1.72-4.06Z" style="fill: #dcdfe1; stroke-width: 0px;"/>
  <path d="M536.01,660.05c-1.89,12.7-6.17,24.73-10.72,36.63-5.36,14.02-11.34,27.78-19.75,40.32-4.2,4.15-7.08,9.33-10.74,13.88-12.36,15.36-26.33,29.01-43.63,38.81-9.73,5.52-20.75,6.63-31.56,8.05-14.09,1.85-28.35,3.05-42.47,2.58-14.64-.49-29.55,1.42-43.96-3.01-2.83-.87-5.82-1.45-8.14-3.32-7.55-6.08-16.39-10.31-23.45-17.18-8.22-8.01-14.92-16.42-14.5-28.69.3-8.76,3.28-16.63,8.21-23.67,3.77-5.4,7.82-10.61,11.58-16.03,1.82-2.62,3.9-5.37,7.4-4.92,3.69.48,4.36,4.03,5.38,6.97.63,1.81.67,3.76,1.27,5.57.26,1.06.39,2.13.44,3.21.05,2.24-.15,4.5.18,6.73,1.71,11.64,6.79,16.11,19.54,17.25.52.07,1.03.18,1.54.33,4.1.73,8.2.7,12.3-.04,4.02-1.28,8.08-2.44,11.48-5.12,5.62-2.42,10.68-5.75,15.5-9.48,20.75-3.19,41.11-8.07,61.26-13.89,5.18-1.49,10.19-3.41,15.16-5.44,18.91-7.75,37.69-15.83,55.95-25.02,7.92-3.98,11.41-12.22,15.72-19.47,1.42-2.39,2-5.78,6.03-5.05Z" style="fill: #919193; stroke-width: 0px;"/>
  <path d="M404.05,436.2c14.48-1.76,28.64-1.06,42.09,5.31,5.12.72,8.68,4.05,12.22,7.37,2.15,2.01,4.18,4.16,6.31,6.2,2.25,2.72,5.34,4.99,5.02,9.13-2.62,10.34-9.34,18.92-12.47,29.1-1.62,5.25-5.82,8.82-11,11.22-13.68,6.35-27.01,9.06-41.13.45-10.54-6.43-21.52-3.61-31.71,1.87-8.82,4.74-15.3,12.48-22.85,18.86-8.47,7.16-17.29,7.75-27.08,2.98-10.24-4.99-19.56-11.19-27.82-19.02-1.78-1.68-3.72-3.12-5.99-4.09-15.83-6.8-28.73-17.32-39.39-30.76-2.08-2.62-3.54-5.55-5.08-8.47-3.29-6.27-4.36-6.7-11-4.53-.84.27-1.67.47-2.55.29-1.86-2.12-.02-3.48,1.11-4.87,1.76-2.16,4.11-3.69,6.3-5.39,1.9-1.28,3.66-2.82,6.02-3.23,4.14-.36,8.1-1.95,12.35-1.68,5.66.37,7.26,2.59,5.3,7.72-4.59,12.04.75,24.31,12.97,29.66,7,3.06,14.26,5.49,21.19,8.74,4.75,2.23,9.11,5.03,13.11,8.42,4.39,3.71,9.13,6.91,14.14,9.75,5.7,3.23,11.35,3.86,17.29.5,4.67-2.65,9.83-4.49,13.76-8.33,5.23-5.1,5.58-8.13,1.68-14.14-2.27-3.49-4.65-6.91-7.2-10.22-4.81-6.25-4.63-9.71.62-15.47,1.19-1.31,2.06-2.78,2.98-4.25,4.04-4.34,8.9-7.67,13.75-11.02,5.58-3.17,11.15-6.29,17.25-8.5,6.45-2.33,13-3.58,19.82-3.61Z" style="fill: #ea4c5b; stroke-width: 0px;"/>
  <path d="M451.22,799.49c-15.82,11.48-32.91,20.32-51.93,25.22-12.77,2.17-25.58,4.27-38.54,4.46-15.95.23-31.49-2.13-46.84-6.92-13.73-4.29-25.48-12.25-38.21-18.36-1.85-.89-3.74-1.6-5.63-2.33-2.45-1.02-4.89-2.04-7.34-3.06-1.98-1.28-1.43-2.41.25-3.37,1.36-.78,2.85-1.05,4.41-.69,1.44.34,2.78,1.09,3.98,1.04-5.58-2.04-9.72-6.6-14.17-10.6-11.69-10.5-20.89-23.02-29.86-35.89-10.57-15.17-18.81-31.53-27.2-47.86-3.95-7.7-6.76-15.96-9.62-24.14-.53-1.52-2.22-4.08,1.39-4.67,1.71,1.07,3.42,2.13,5.13,3.2,1.78,9.86,5.79,18.92,10.47,27.63,7.47,13.9,14.91,27.83,24.35,40.58,5.63,7.59,11.9,14.47,19.48,20.11,5.04,3.75,8.25,2.2,8.87-4.2.38-3.94-.21-7.93,1.26-11.83,2.3-6.11,5.38-11.56,10.26-16.05,7.4-6.8,13.05-15.35,21.16-21.48.82-.62,1.79-1.41,1.5-2.54-.45-1.75-2.15-1.63-3.46-1.59-8.37.22-16.61-.94-24.84-2.25-10.33-1.64-20.23-4.87-30.09-8.25-1.48-.51-2.96-1.07-3.76-2.58.14-1.14-.61-2.46.65-3.4,2.72-.61,5.09.56,7.52,1.45,17.05,6.23,34.49,10.42,52.78,10.18,2.93-.04,5.85-.14,8.56-1.43-.03-1.29-1.04-1.34-1.77-1.58-16.59-5.33-32.3-12.72-47.17-21.65-12.91-7.76-25.17-16.62-36.17-27.03-2.65-2.51-5.28-5-8.35-7.01-10.92-7.13-17.69-17.9-24.81-28.37-1.31-1.93-1.3-4.29-1.96-6.43-.29-1.33-.31-2.67.03-4,.58-1.46.82-3.2,2.77-3.59.87.33,1.51.95,1.7,1.83,2.82,13.14,12.12,21.47,21.05,30.65,12.09,12.41,25.37,23.16,39.37,33.09,17.54,12.44,37.01,21.19,57.34,27.99,6.03,2.02,12.74,1.52,18.52,4.67-.54,2.53-.65,5.18-2.15,7.43-3.36-2.96-6.94-4.46-11.29-1.96-1.22.7-2.49,1.3-3.19,2.56-4.77,8.62-11.98,15.19-18.63,22.22-2.32,2.45-4.15,5.14-5.08,8.35-1.49,5.14-2.37,10.47-6.04,14.76-1.47,1.72-.35,3.56.63,5.28,2.75,4.84,6.71,8.93,9.16,13.87,2.64,5.31,5.78,10.17,9.4,14.82,2.44,3.14,21.56,14.56,25.11,14.48,14.05-.34,28.02,1.8,42.07,1.12,1.89-.09,3.85-.19,5.63.67,1.45.7,1.75,1.62.16,2.59-9.45,1.55-18.97,1.47-28.46.97-3.19-.17-6.36-.16-9.54-.41,16.05,1.65,32.11.28,48.15.05,22.98-.33,45.9-1.78,68.41-7.06,1.62-.38,3.77-1.61,4.58,1.3Z" style="fill: #72737c; stroke-width: 0px;"/>
  <path d="M86.41,183.45c.09-.35.18-.69.27-1.04.75-7.04,3.59-13.26,7.59-18.99,1.01-1.44,2.32-2.74,4.34-2.17,1.72.48,2.22,1.99,2.63,3.56,3.47,13.07,8.46,25.65,12.48,38.55,5.16,16.57,10.1,33.16,12.7,50.38,1.01,6.67,2.46,13.26,4.1,19.83,1.63,6.52,2.43,13.23,4.04,19.8,2.42,9.86,5.97,19.17,10.69,28.12,4.86,9.21,8.09,19.16,12.8,28.47,4.82,9.53,11.09,17.55,20.69,22.65,1.05.56,2.02,1.35,2.81,2.29.43.75.49,1.53.17,2.33-2.43,1.88-4.22-.06-6.08-1.1-8.72-4.87-14.55-12.78-20.76-20.2-4.08-4.88-8.43-9.19-14.42-11.6-9.82-3.94-15.71-11.59-19.89-20.9-2.7-6.02-4.98-12.21-7.59-18.26-1.94-4.49-4.39-8.05-10.49-7.24-3.83.51-6.13-2.65-7.69-5.97-2.47-15.29-3.59-30.73-5.53-46.08-.22-1.76-.66-3.35-1.5-4.88-1.13-3.49-1.36-7.02-.97-10.69.57-5.39-1.17-10.55-2.13-15.79-.58-3.14-1.73-6.51,1.8-8.86,2.95-.78,3.83-3.59,2.26-5.14-4.48-4.42-2.06-9.69-2.71-14.55-.11-.84-.11-1.73.39-2.51Z" style="fill: #7d828b; stroke-width: 0px;"/>
  <path d="M96.07,292.92c2.78,2.53,5.09,5,9.87,3.5,3.44-1.08,5.65,2.85,7,5.8,3.45,7.52,6.4,15.27,9.9,22.77,3.32,7.12,7.64,13.78,15.35,16.65,10.49,3.91,16.8,12.25,23.53,20.34,5.42,6.51,11.28,12.6,19.67,15.39,6.32-.6,11.71,1.89,16.16,5.91,2.9,2.61,2.07,6.28.17,9.5-1.59,2.7-4.11,4.59-6.08,6.96-2.07,2.13-4.56,3.71-7.06,5.24-4.1,2.52-7.12,5.84-9.25,10.2-2.52,5.14-4.33,5.67-10.02,4.7-8-1.36-14.43-5.5-20.29-10.79-1.66-1.51-3.14-3.21-4.97-4.54-15.03-14.6-25.58-31.81-30.72-52.24-1.14-4.54-2.12-9.14-3.48-13.61-1.29-4.27-2.49-4.36-5.72-.84-.8,1.76-1.56,3.35-4.08,3.05-13.59-1.62-26.92-4.01-38.97-11.08-5.72-3.36-9.05-8.59-11.83-15.02-.26,1.52-.41,2.34-.55,3.17-3.34-1.4-2.31-4.17-1.85-6.54.45-2.29,1.88-2.11,3.31-.66.98,1,1.61,2.24,2.18,3.51,3.76,8.43,10.38,13.84,18.9,16.64,7.86,2.58,15.83,5.02,24.11,6.06,5.27.66,6.82-.6,6-5.93-.96-6.21-.75-12.41-.77-18.63,0-1.87.18-3.75-.48-5.56-.18-.53-.29-1.07-.38-1.62.64-4.09-2.36-8.28.34-12.31Z" style="fill: #6a6d78; stroke-width: 0px;"/>
  <path d="M475.34,125.13c15.32,14.21,19.37,33.32,23.09,52.66,3.69,19.15,6.36,38.43,8.18,57.84.91,2.71.54,5.46.26,8.21-3.31.03-2.58-2.64-2.65-4.38-.18-4.84-.94-9.59-1.81-14.32-.79-1.86-1.32-3.78-1.36-5.81,0-1.88.05-3.77-.59-5.59-.26-1.05-.39-2.12-.43-3.2-.04-2.14.12-4.3-.78-6.34-1.96-7.41-1.85-15.13-3.42-22.62-2.35-11.21-4.03-22.57-8.51-33.25-2.24-5.34-4.95-10.33-9.06-14.47-9.78-10.27-22.63-12.95-35.91-14.42-23.43-2.59-46.73.08-70.06,1.8-33.73,2.49-67.34,6.2-100.95,9.86-26.54,2.89-53.16,5.56-79.16,12.18-5.57,1.42-10.97,3.27-16.25,5.47-7.74,3.27-15.13,7.02-19.97,14.34-2.02,2.42-3.11,5.73-6.48,6.88-2.07.77-2.53,2.71-3.27,4.44-2.08,4.85-3.07,10.01-3.45,15.18-.95,12.98-.89,26-.06,39,.7,11.05,1.36,22.1,2.59,33.12.26,2.36.41,4.89-1.1,7.06-3.09.47-2.51-2.08-2.81-3.64-1.14-5.77-1.48-11.67-1.95-17.5-1.3-16.04-1.32-32.14-1.55-48.23-.13-9.17.54-18.31.21-27.46-.24-6.62-2.88-12.44-6.6-17.78-4.38-6.28-7.98-12.81-10.02-20.36-2.3-8.5-2.91-16.66.47-24.93.72-1.75,1.1-3.65,1.09-5.58,20.48-17.93,51.75-31.94,61.75-27.45-7.89,3.49-15.11,7.72-21.89,12.86-10.05,7.61-9.25,18.55-1.8,27,4.51,5.1,8.42,10.43,10.93,16.79,1.61,4.09,4.27,5.05,8.99,4.63,16.52-1.47,32.76-4.74,49.18-6.75,13.69-1.68,27.37-3.5,41.08-5,14.75-1.61,29.54-2.91,44.31-4.37,16.83-1.66,33.65-3.37,50.48-5.02,4.64-.46,9.3-.63,13.95-1.03,19.01-1.62,38.13-1.98,57.15-1,13.38.69,26.98,2.27,38.16,11.2Z" style="fill: #cfcfcf; stroke-width: 0px;"/>
  <path d="M123.03,103.28c2.72,1.12,1.66,3.12.93,4.78-7.09,16.11-1.52,30.54,7.55,43.29,7.36,10.34,9.27,21.13,7.78,32.82-.55,4.3.42,8.2.38,12.28-.09,8.26.01,16.52-.01,24.78-.05,15.41,1.88,30.68,3.25,45.99.05.61.61,1.18.93,1.78,2.16,2.59,2.05,5.85,2.38,8.88,1.95,18.14,4.65,36.18,9.49,53.78,3.76,13.68,8.95,26.7,21.3,35.38,6.4,4.49,13.51,7.24,21.05,8.58,19.09,3.4,38.33,2.66,57.6,1.66,17.51-.91,34.91-2.83,52.35-4.4,24.54-2.21,49-5.14,73.49-7.78,22.95-2.48,45.85-5.3,68.46-10.05,9.85-2.07,19.69-4.18,28.95-8.39,6.42-2.92,12.04-6.87,16.75-12.11,1.89-2.1,3.49-4.36,3.05-7.42-.27-3.14,2.05-5.52,2.47-8.47,1-3.77,2.42-7.42,3.47-11.18.72-1.77.6-3.64.64-5.5.04-1.15.18-2.28.45-3.4,1-4.37.3-8.81.51-13.21.09-1.85-.16-3.76.82-5.47,3.32-1.32,2.72,1.58,2.92,3.02.44,3.27.2,6.59.18,9.89-.02,3.14.34,6.23.92,9.31.49,2.57,1.81,3.67,4.37,2.96,6.06-1.68,12.01-.98,18,.51,3.73.93,7.64.86,11.41.25,6.23-1.01,11.46-3.64,14.61-9.64,2.18-4.15,4.29-8.34,6.5-12.47.97-1.81,1.62-3.9,3.8-4.74,2.3-.03,2.77,1.79,3.28,3.42,5.52,17.41-4.05,41.51-25.49,45.75-6.49,1.28-13.1-.73-19.45-2.49-10.5-2.92-16.49-1.11-23.09,7.59-4.7,6.19-10.51,10.99-17.42,14.51-3.71,1.89-7.52,3.57-11.04,5.83-10.25,3.86-21.06,5.31-31.72,7.38-3.22.63-6.45,1.12-9.62,2.03-12.96,2.34-26.05,3.86-39.12,5.31-14.29,1.59-28.54,3.55-42.84,5.12-26.19,2.86-52.26,6.74-78.55,8.85-8.29.66-16.61.83-24.87,1.89-14.2-.34-28.4-.79-42.53-2.28-24.05-2.54-42.15-13.35-51.73-36.67-7.45-18.15-11.68-36.95-14.45-56.3-3.87-26.99-5.73-54.15-8.21-81.27-.85-9.25-4.07-17.44-9.69-24.85-7.79-10.26-12.33-22.02-15.09-34.52-.37-1.67-.26-3.84-2.15-4.44-2.18-.69-3.41,1.27-4.64,2.68-1.83,2.1-3.14,4.58-4.84,6.77-1.22,1.57-2.18,3.73-4.86,3.07-.14-4.04,2.36-7.17,3.87-10.57,6.01-13.55,12.47-26.89,22.55-38.04,1.49-1.64,3.31-2.99,4.97-4.48Z" style="fill: #b2b3b4; stroke-width: 0px;"/>
  <path d="M527.49,485.93c.99,1.39,2.04,1.95,3.9,1.22,8.57-3.39,17.45-3.69,26.48-2.36,6.48.96,12.04,4.02,17.53,7.31.91,4.57.19,8.85-1.89,13.05-3.23,6.53-7.01,12.73-10.9,18.87-9.71,15.34-20.57,29.93-29.85,45.56-1.16,1.95-2.68,4.05-5.34,3.01-2.29-.89-4.3-2.44-3.34-5.53,1.82-1.08,3.49-2.26,3.83-4.6.77-5.27,3.14-9.87,5.88-14.35,1.73-2.83,2.65-6.04,3.39-9.26.61-2.65.45-5.2-1.53-7.33-1.21-1.31-1.84-2.9-2.46-4.54-2.09-5.5-4.46-6.97-9.79-6.27-6.58.86-11.58,4.72-12.25,9.5-.26,1.87.13,3.86-1.11,5.53-3.21.51-3.47-2.34-4.3-4.12-2.18-4.71-4.31-9.44-6.65-14.08-1.69-3.35-3.69-4.39-6.84-1.67-1.71,1.47-3.71,2.57-5.76,3.49-2.14.96-4.34,1.55-5.86-1.13-1.25-5.98-.38-12.03-.61-18.04-.08-2.06.3-4.14-.37-6.16-1.47-7.51-3.4-14.87-6.89-21.74-.78-1.53-1.63-3.1-1.04-4.94,3.31-2.84,6.55-1.38,9.53.45,9.01,5.52,18.39,10.41,26.51,17.38,8.07,6.93,8.28,6.69,17.79,1.54.61-.33,1.23-.64,1.92-.77Z" style="fill: #89c2f9; stroke-width: 0px;"/>
  <path d="M232.42,692.33c10.76,5.36,22.34,8.06,34.03,10.24,8.31,1.55,16.72,2.57,25.23,2.17,1.94-.09,4.22.06,4.96,2.03.93,2.48-1.52,3.64-3.08,4.83-9.98,7.65-17.5,17.74-25.96,26.84-4.3,4.63-6.66,11.32-6,18.32.15,1.55.17,3.15-.08,4.68-.98,5.99-5.36,7.78-10.19,4.27-11.26-8.18-19.6-18.97-27.06-30.49-8.38-12.93-15.67-26.49-22.26-40.41-2.29-4.83-4.02-9.94-5.83-14.98-.51-1.41-.69-3.11.83-4.3.31-.02.61.02.9.14,7.82,2.5,14.58,7.25,22.08,10.45,4.24,1.81,9.15,2.41,12.41,6.21Z" style="fill: #5f6068; stroke-width: 0px;"/>
  <path d="M435.76,361.76c11.11-2.41,22.2-4.9,33.33-7.17,2.54-.52,4.98-1.15,7.31-2.26,6.74-2.29,12.94-5.79,19.43-8.64,6.06-2.66,12.05-2.72,18.14-.08,4.45,1.93,9.02,3.57,13.63,5.12,5.39,1.82,10.84,1.77,15.7-.84,24.08-12.94,38.9-29.23,35.48-59.75-.17-1.56-.5-3.1.55-4.5,3.49-.34,3.41,2.8,4.45,4.72,2,3.69,1.28,8.15,3.17,11.9-.43,16.99-3,33.52-10.47,49.01-2.09.3-3.94.93-5.48,2.59-12.21,13.13-27.43,20.98-44.72,25.03-8.33,1.95-16.04,5.51-23.86,8.82-1.08.18-2.14.11-3.2-.16-12.79-3.89-24.77-10.08-37.78-13.33-3.83-5.11-8.33-9.04-15.31-8.5-1.82-.62-3.63-.42-5.48-.1-1.91.33-3.71-.01-4.87-1.86Z" style="fill: #8d8b95; stroke-width: 0px;"/>
  <path d="M140.69,403.55c3.3,2.76,6.69,5.41,9.87,8.3,4.83,4.37,10.81,5.9,16.9,7.14,2.2.45,4.77.49,5.67-2.31,2.86-8.92,10.64-12.76,17.68-17.38,2.41-1.7,4.61-.89,6.71.61,1.55,1.11,3.17,2.17,4.59,3.41,7.61,6.64,17.31,9.36,26.19,13.31,9.63,4.28,20.54,4.86,31.11,5.02,15.75.23,31.53,1.32,47.27.02,10.87-.9,21.76-1.65,32.62-2.61,15.02-1.33,29.93-3.64,44.97-4.66,9.16-.62,18.03-3.54,27.29-3.66,2.25-.03,4.48-.59,6.63.51,3.68,4.76,2.3,8.91-3.72,10-5.62,1.01-11.26,2.21-16.98,2.43-13.02.48-25.7,3.64-38.64,4.63-8.97.68-17.84,2.11-26.8,2.87-13.07,1.11-26.18,1.99-39.21,3.57-1.2.15-2.4.38-3.61.38-14.38-.09-28.7,1.36-43.09,1.34-6.6,0-13.3.74-19.94,1.34.24,3.19,4.27,2.46,4.16,5.31-4.6.48-9.04-.83-13.57-1.18-7.5-1.15-14.06-5.48-21.69-6.28-16.46-1.73-30.61-8.91-43.61-18.73-3.74-2.83-6.79-6.38-10.04-9.71-.92-.93-1.93-2.13-.76-3.64Z" style="fill: #7785b0; stroke-width: 0px;"/>
  <path d="M536.01,660.05c-2.01.85-3.65,2.24-4.26,4.29-2,6.7-7.47,11.16-10.78,17.02-1.08,1.91-3.08,3.23-5.19,4.21-22.3,10.39-44.38,21.45-67.71,29.24-18.8,6.28-38.07,11.39-57.86,13.9-2.91.37-5.81.77-8.72,1.16-.72-1.38-.07-2.62.39-3.88,3.94-6.96,4.32-14.79,5.43-22.44.43-2.96-1.41-4.62-3.57-6.34-2.99-2.37-6.64-4.62-5.42-9.5,3.37-1.85,6.69-.93,10.06.06,7.31,2.14,14.45,4.77,22.02,6.14,10.83,1.95,21.46.74,32.01-1.37,27.23-5.46,53.08-14.68,76.94-29.1.89-.54,1.78-1.07,2.66-1.63,13.42-8.58,15.21-12.91,11.66-28.54-.69-3.04-1.31-6.09-2.03-9.13-.27-1.81-.45-3.6,1.02-5.06,1.54,0,2.09,1.17,2.44,2.31,3.31,11.01,4.62,22.32,5.02,33.77-1.37,1.63-2.74,3.25-4.11,4.88Z" style="fill: #56565c; stroke-width: 0px;"/>
  <path d="M592.25,515.92c3.6,6.93,4.08,14.53,4.48,22.07.5,9.43,1.11,18.91-1.44,28.2-2.28,1.42-2.62,3.97-3.36,6.19-4.71,14.19-12.22,26.6-22.83,37.2-3.54,3.53-6.2,7.88-9.36,11.78-6,7.4-11.28,7.14-16.26-1.03-3.96-6.5-7.38-13.37-10.21-20.41-2.58-6.42-6.29-11.97-10.62-17.22-.02-.02-.57.29-.94.32-2.36-1.41-1.94-4.42-3.63-6.22-2.26-3.9-2.64-8.38-3.96-12.57-.19-.76-.27-1.54-.21-2.32,2.2-3.18,3.64-3.29,5.85.03,2.69,4.05,4.5,8.61,6.68,12.95,2.12,4.22,4.57,8.22,7.76,11.69,3.38,3.67,6.26,3.71,8.85-.57,9.25-15.23,22.27-27.47,32.68-41.75,5.13-7.04,8.63-15.03,11.81-23.14.87-2.23,1.05-5.36,4.71-5.17Z" style="fill: #5982ac; stroke-width: 0px;"/>
  <path d="M91.64,156.36c3.06-1.46,3.98-4.66,5.81-7.12,1.03-1.39,1.89-2.93,3.07-4.17,1.75-1.84,3.52-4.65,6.32-3.69,2.45.84,2.26,3.86,2.69,6.29,1.95,11.01,5.81,21.57,12.26,30.52,7.51,10.41,12.29,21.02,12.92,34.11.83,17.35,3.26,34.63,4.92,51.95,1.77,18.37,3.85,36.74,8.53,54.58,3.72,14.16,7.95,28.33,16.7,40.55,8.67,12.12,21.3,17.23,35.16,20,7.95,1.59,16.04,2.28,24.2,2.28,8.29,0,16.54,1.5,24.87.98-.55,2.92-3.02,2.4-4.89,2.48-4.14.18-8.29.11-12.38.91-15.93.7-31.24-2.03-45.96-8.17-1.61-.67-3.18-1.35-4.48-2.53-12.68-5.14-20.31-15.26-25.84-27.09-6.66-14.25-13.37-28.53-18.94-43.22-3.19-8.42-6.08-17.22-6.33-26.51-.14-5.22-2.75-9.86-3.4-15.11-1.27-10.22-3.36-20.41-6-30.38-5.57-20.99-11.93-41.76-19.82-62.03-.72-1.85-1.02-3.64-1-5.56.01-1.42-.07-2.98-1.76-3.35-1.65-.36-2.47,1.08-3.16,2.23-3.43,5.75-6.48,11.67-8.44,18.11.04-8.99,1.79-17.66,4.97-26.05Z" style="fill: #959598; stroke-width: 0px;"/>
  <path d="M591.04,136.66c-1.46-1.64-1.91-3.74-1.99-5.76-.48-12.49-.18-24.92,1.42-37.37,1.21-9.45,2.49-18.86,4.72-28.12,4.57-18.98,11.69-36.91,22.52-53.26,1.93-2.92,4.33-5.42,6.96-7.7,8.45-7.36,15.36-5.54,19.31,5.07-2.33,36.29-15.57,69.41-29.66,102.29-2,4.66-4.51,8.97-8.36,12.41-2.55,2.29-3.94,5.07-4.18,8.63-.41,5.91-1.56,6.54-7.21,4.69-1.16-.38-2.31-.74-3.52-.88Z" style="fill: #83bef4; stroke-width: 0px;"/>
  <path d="M592.25,515.92c-2.28,1.13-2.69,3.4-3.49,5.5-4.6,12.02-11.31,22.62-19.29,32.85-7.93,10.15-17.82,18.73-23.93,30.42-4.39,8.4-7.95,8.16-14.07.6-5.31-6.56-7.96-14.54-12.13-21.7-.89-1.53-1.52-5.39-4.54-1.62-2.47-.16-2.83-2.27-3.35-3.96-1.52-4.91-3.7-9.53-5.79-14.19-1.96-5.91-4.7-11.45-7.8-16.84-1.85-3.22-3.78-3.6-6.41-.82-2.6,2.75-5.17,5.58-8.13,7.93-1.5,1.2-3.2,3.78-5.51.85.54-5.48.67-11.06,3.92-15.87,4.44.48,7.59-2.31,10.37-4.9,3.6-3.35,5.4-2.23,7.51,1.37,3.84,6.53,5.64,14.07,10.11,20.28,1.1.26,1.92,1.01,2.29,1.96,3.49,9.05,8.45,17.41,12.23,26.33.4.95.67,1.98.12,3.01.27,2.53,1.81,4.29,4.08,4.78,1.66.35,2.5-1.53,3.27-2.89,8.47-14.9,18.91-28.52,28.01-43.02,3.68-5.86,6.94-11.98,10.8-17.72,3.34-4.97,3.52-10.7,4.88-16.16,7.97,6.27,14.51,13.56,16.85,23.82Z" style="fill: #78a5d5; stroke-width: 0px;"/>
  <path d="M87.56,206.34c-3.35.9-2.47,3.88-1.89,5.56,3.23,9.46,2.2,19.3,3.11,28.96,1.99,7.27,1.86,14.82,2.93,22.2,0,4.85.59,9.69.32,14.55-.16,2.85-.45,5.84-3.36,7.12-3.04,1.34-4.8-1.31-6.46-3.19-3.47-3.93-7.83-6.25-12.74-7.7-17.24-5.09-26.54-16.61-28.39-34.46-.38-3.7-.16-7.68-2.43-11.02.66-5.53,4.64-8.72,8.63-11.71,9.61-7.2,20.21-12.49,31.83-15.66,1.8-.33,3.59-.58,5.35.18.33.36.66.73.99,1.09,1.38,1.01,2.86,1.97,2.11,4.08Z" style="fill: #77a4d2; stroke-width: 0px;"/>
  <path d="M566.02,195.14c-.45-13.21,2-26.08,4.43-38.96.55-2.89,2.08-4.98,4.93-5.96,15.24.31,29.66,3.76,42.94,11.42,3,1.73,5.79,3.81,7.17,7.22-.72,9.83-.89,19.64.41,29.45.2,1.53-.07,3.12-.73,4.57-2.21,1.93-2.95,4.56-3.49,7.31-1.16,5.9-4.79,9.51-10.55,10.91-6.76,1.64-13.66,2.39-20.61,2.34-4.64-.04-8.85-1.57-12.42-4.65-1.71-1.47-3.39-3.04-5.64-3.62-2.85-.73-3.56-3.03-4.2-5.42-.63-5.97-1.77-11.93-.63-17.27.05.31,0,1.32-.21,2.33-.38.47-.83.58-1.38.33Z" style="fill: #8bc9fa; stroke-width: 0px;"/>
  <path d="M230.37,443.08c-1.32-1.94-4.19-.24-5.48-2.38-.66-1.1-2.86-1.32-2.22-3.08.5-1.4,2.1-1.79,3.49-1.78,6.58,0,13.16-.97,19.67-.91,14.58.15,29.16-.46,43.62-1.55,12.85-.97,25.76-2.22,38.6-3.42,14.76-1.38,29.55-2.81,44.2-4.86,14-1.96,28.09-3.02,42.07-5.06,4.76-.69,5.88-3.42,3.69-8.22,3.23-3.45,7.88-3.21,11.92-4.26,12.7-3.29,25.41-6.43,37.46-11.8,4.11-1.83,7.48-4.9,11.88-6.27,6.59-2.05,13.52-2.56,20.04-4.82,1.03.01,2.07.03,3.1.04.5,3.07-2.02,4.05-3.86,5.39-2.02,1.47-3.54,3.23-1.92,5.56,3.59,5.13,3.46,10.14.43,15.38-.49.85-.55,1.97-.67,2.99-8.98,3.32-18.43,4.64-27.8,6-12.33,1.79-24.5,4.66-36.99,5.39-15.38.18-30.69,1.33-45.98,2.96-14.14,1.5-28.34,2.48-42.49,3.9-17.56,1.77-35.16,3.04-52.73,4.67-9.3.86-18.69,1.2-28.05,1.38-7.84.15-15.57,1.11-23.32,2.09-2.46.31-4.72,1.05-6.62,2.71-.68-.01-1.36-.02-2.04-.03Z" style="fill: #727fab; stroke-width: 0px;"/>
  <path d="M369.01,803.72c-.89-1.09-2.14-1.05-3.35-.99-14.57.74-29.1-1.6-43.63-.88-6.36.31-10.32-3.11-14.79-6.24-1.27-.89-2.39-2.17-3.8-2.66-9.21-3.23-13.36-10.72-17.37-18.89-3.01-6.15-7.51-11.58-11.5-17.23-1.09-1.54-2.35-3.48-.98-4.63,5.43-4.56,5.39-11.38,7.62-17.22,1.03-2.7,2.52-4.83,4.45-6.89,6.82-7.28,14.36-13.89,19.04-23.08,2.02-3.96,7.26-3.51,11.21-4.26,3.6-.69,2.33,3.61,4.06,5.04,2.31,3.49,2.32,6.98-.02,10.47-.84-2.77-1.5-5.61-2.58-8.29-1.78-4.42-4.69-5.26-7.29-1.48-8.16,11.86-19.21,22.3-21.46,37.33-1.29,8.65.69,16.95,6.5,24.23,8.82,11.05,20.74,18.12,32.23,25.59,6.31,4.11,14.33,4.23,21.79,4.84,8.96.74,18.08.91,26.93.63,17.69-.55,35.4-1.72,53.06-4.13,18.94-2.58,32.72-12.94,46.04-24.96,10.07-9.08,18.6-19.51,26.59-30.42.86-1.18,1.36-3.42,3.76-2.6-9.52,15.88-20.12,30.9-33.13,44.19-4.4,4.5-9.29,8.15-14.58,11.41-7.16-.49-13.05,3.83-19.74,5.22-3.55.74-6.99,1.75-9.91,1.27.22-.08,1.11-.24,1.51,1.05-1.29,2.11-3.3,1.7-5.25,1.53-3.54-1.06-7.21-1-10.73-.43-2.8.45-5.42.27-8.12-.17-.69-.08.2-.1-.14.5,1.01-.6,1.86-.68,2.32.66-3.37,3.43-7.47,1.69-11.33,1.63-7.41-.87-14.83-1.93-22.13.71-1.9.5-3.75.72-5.3-.87Z" style="fill: #76777b; stroke-width: 0px;"/>
  <path d="M144.79,488.88c11.84-5.31,23.87-5.48,35.99-1.14,2.32.83,4.57,1.43,7.02,1.27,1.03-.44,1.98-.13,2.92.3,3.62,2.24,7.28,4.43,10.84,6.77,1.56,1.03,3.12,2.14,3.48,4.21-2.75,7.69-2.18,15.3-.56,23.22.99,4.81,1.55,10.31-2.52,14.6-.81.1-1.44-.32-1.52-1.03-.72-6.42-6.1-8.35-10.63-11.05-1.63-.97-3.64-1.78-5.34-.32-1.88,1.62-.63,3.57.13,5.24,3.15,6.9,7.15,13.39,7.7,21.33.28,4.06,3.07.62,4.7.75,1.15.06,1.99.62,2.59,1.59.84,3.55-.65,6.29-3.01,8.74-6.82,1.96-8.65,1.03-10.05-5.97-1.29-6.46-3.97-12.07-8.01-17.28-5.22-6.73-9.55-14.11-13.44-21.65-4.71-9.13-11.28-17.08-15.79-26.28-.96-1.95-3.37-1.72-4.53-3.29Z" style="fill: #a1caf5; stroke-width: 0px;"/>
  <path d="M496.38,414.03c-2.19-1.9-1.02-3.59.22-5.4,2.41-3.53,2.42-7.18-.19-10.56-3.15-4.07-2.88-7.1,2.08-9.36,1.72-.79,3.04-2.24,3.93-3.99,8.27-4.85,17.33-7.76,26.53-10,16.4-3.99,30.23-12.13,41.72-24.38,1.75-1.87,3.35-3.55,5.8-1.05-7,15.75-17.06,29.14-30.27,40.27-14.61,12.32-31.35,20.09-49.81,24.48Z" style="fill: #627089; stroke-width: 0px;"/>
  <path d="M9.39,63.56c8.79.44,13.74,6.98,18.68,12.71,15.23,17.71,24.71,38.68,32.49,60.46,1.09,3.06,3.08,5.88,2.84,9.35-.89,5.8,1.72,11.18,1.99,16.86.13,2.68.09,5.24-1.11,7.61-2.77,5.44-8.7,6.04-11.96.97-7.24-11.25-14.07-22.74-19.3-35.1-7.5-17.74-15.08-35.46-21.32-53.71-1.46-4.28-2.75-8.6-3.8-12.99-.56-2.33-.57-4.49,1.48-6.17Z" style="fill: #85bef6; stroke-width: 0px;"/>
  <path d="M569.33,209.49c.97,2.3,1.5,4.96,5.09,4.52.74-.09,1.77,1,2.45,1.74,6.08,6.64,13.67,7.25,21.89,5.68,3.88-.74,7.89-.33,11.77-1.48,5.44-1.61,8.96-4.52,9.94-10.53.34-2.06-.88-6.23,3.8-5.95,2.56,3.57,2.1,7.83,2.74,11.85.31,1.97.11,4.56,2.58,5.16,2.18.53,3.17-1.67,4.38-3.08,5.43-6.33,7.23-13.94,7.86-22.01.15-1.98-.87-4.64,2.25-5.47,5.41,10.05,6.71,21.02,7.23,32.17-1.76,2.59-2.93,5.5-4.5,8.2-5.16,8.82-10.79,10.51-19.49,5.67-2.76-1.54-5.36-1.78-8.44-1.05-11.32,2.69-22.79,4.5-34.47,4.1-3.36-.11-6.12.14-7.99,3.38-.73,1.26-1.96,2.63-3.82,1.23-2.57-2.89-1.55-6.61-2.22-9.92-1.38-6.75-1.32-13.69-2.35-20.5-.21-1.39.05-2.77,1.33-3.71Z" style="fill: #79a7d3; stroke-width: 0px;"/>
  <path d="M184.51,600.52c-.69,1.02-1.37,2.05-2.06,3.07-1.12.96-.86,3.34-2.96,3.17-1.32-.11-2.03-1.32-2.28-2.56-1.94-9.54-8.18-16.85-13.58-24.32-8.33-11.53-16.31-23.3-24.64-34.82-.41-.56-.76-1.17-1.2-1.7-1.09-1.31-2.01-3.17-4.07-2.65-1.92.48-2.51,2.39-2.73,4.09-.77,5.84-2.03,11.67-1.34,17.59,1.27,10.84,2.77,21.61,5.74,32.21,3.59,12.84,10.62,23.67,18.21,34.24,3.48,4.84,6.65,9.73,7.88,15.67.12,1.89.84,3.99-1.68,4.99-.12-.35-.24-.7-.36-1.05-2.5-7.18-7.57-12.76-12.05-18.62-13.19-17.24-20.08-36.93-23.39-58.06-.51-3.25-1.7-6.35-1.81-9.66,1.03-6.91.54-13.87.42-20.79-.13-7.76,2.45-14.68,5.88-21.33,2.59-5.02,6.21-5.33,9.67-.79,6.2,8.14,11.57,16.88,17.73,25.07,8.46,11.23,16.22,22.94,22.7,35.46,1.36,2.63,2.74,5.23,3.73,8.01.8,2.23,2.16,3.92,4.24,5.05,1,1.18.68,2.49.36,3.8-.5,1.49-.94,3.02-2.41,3.91Z" style="fill: #5c7a9b; stroke-width: 0px;"/>
  <path d="M97.95,311.74c-.12,7.42.28,14.82,1.03,22.2.41,4.01-1.73,5.4-5.33,4.82-12.08-1.95-24.17-4.16-34.92-10.35-5.1-2.93-9.22-7.31-11.46-12.98-.7-1.78-1.45-3.45-3.45-5.76-.1,3.41-.88,5.89.88,8.3.22,1.32.59,2.66-.34,4.2-3.75-2.55-5.2-6.55-6.95-10.35-2.37-4.98-5.82-9.41-7.5-14.76-.41-1.32-.88-2.63-1.06-3.99-.19-1.48.34-2.79,1.74-3.46,1.26-.61,2.34.09,3.34.82,1.52,1.11,2.32,2.9,3.77,4.35.98-2.29.3-4.42.7-6.43.23-1.2.4-2.52,1.75-2.96,1.59-.51,2.67.5,3.43,1.71,1.74,2.78,2.95,5.84,5.16,8.37,7.19,8.27,16.45,13.09,26.73,16.18,4.97,1.49,10.13,2.45,13.79,6.68,1.24,1.43,2.36,1.02,3.21-.59,1.23-2.33,1.93-4.77,2.18-7.41.14-1.5-.44-3.74,2.29-3.81h0c1.22,1.56-.21,3.65,1.03,5.22Z" style="fill: #243e60; stroke-width: 0px;"/>
  <path d="M38.65,228.36c2.9.23,2.83,2.32,3.08,4.49.53,4.78.91,9.63,2.11,14.26,3.25,12.48,11.4,20.76,23.56,24.61,6.57,2.08,12.64,4.39,16.93,10.11.86,1.15,1.95,2.98,3.7,2.29,1.9-.76,2.53-2.85,2.58-4.78.13-5.19.08-10.39.1-15.59,1.23-.26,1.41.54,1.5,1.46,1.22,11.63,2.1,23.3,3.6,34.91.39,3-.94,5.45-3.5,7.03-2.71,1.67-4.66-.15-6.32-1.9-3.34-3.52-7.48-5.52-12.03-6.84-5.68-1.65-11.02-4.07-16.21-6.88-9.73-5.26-15.87-13.29-18.02-24.09-.56-2.82-1.6-2.34-3.34-1.7-.92-.91-1.3-2.08-1.33-3.3-.19-7.76-.75-15.53.59-23.25.29-1.68.41-3.46,1.82-4.73.4-2.04.81-4.08,1.21-6.11Z" style="fill: #5680aa; stroke-width: 0px;"/>
  <path d="M573.43,243.88c3-7.14,8.92-6.34,15.18-6.33,10.5,0,21.02-1.23,31.06-4.46,4.37-1.41,7.35.6,9.91,2.72,4.4,3.64,7.74,2.18,11.39-.71,2.8-2.21,4.6-5.09,6.13-8.25.93-1.92,1.28-4.52,4.19-4.76.38,8.6-.45,17.02-3.86,25.04-1.72,0-2.78,1.26-4.03,2.13-4.98,3.49-6.72,3.36-11.72-1.35.65,4.61-.74,6.08-5.35,5.5-7.58-.95-15.07,1.27-22.52,2.55-4.93.85-9.82,1.92-14.83,2.28-4.02.29-6.87,1.71-7.25,6.4-.21,2.6-1.64,4.63-4.91,3.75-3.82-6.58-3.69-14.05-4.87-21.24.09-1.26.36-2.45,1.46-3.26Z" style="fill: #5c86b1; stroke-width: 0px;"/>
  <path d="M144.79,488.88c3.92-.46,5.05,1.54,6.78,5.05,2.99,6.09,7.68,11.38,11.02,17.42,6.52,11.78,13.37,23.33,21.34,34.22,1.86,2.55,2.96,5.98,3.42,9.15.77,5.3,1.57,9.85,8.65,8.21.37.42.52.91.47,1.47-2.06,6.46-3.52,13.11-6.25,19.35-.43.32-.91.45-1.44.42-3.62-3.65-5.82-8.22-7.07-13.03-1.43-5.54-4.05-10.31-7.43-14.77-12.06-15.93-23.77-32.09-33.49-49.61-2.85-5.13-3.31-5.04-7.12-.89-.98,1.07-1.76,2.81-3.75,1.59-.88-3.2.87-5.62,2.41-8.1,2.87-5.02,7.57-7.86,12.46-10.48Z" style="fill: #81abd4; stroke-width: 0px;"/>
  <path d="M522.08,582.8c.29-.45.32-1.84,1.05-1.05,4.55,4.93,8.25,10.3,10.92,16.65,3.46,8.24,6.9,16.66,12.5,23.82,3.47,4.44,6.38,4.6,10.19.49,3.03-3.28,5.66-6.93,8.44-10.45,4.02-5.1,8.66-9.62,12.56-14.9,6.07-8.22,10.06-17.21,13.36-26.69.68-1.94,1.5-3.95,2.76-5.53.96-1.2,1.1.43,1.43,1.04-4.17,30.88-15.75,58.35-37.27,81.27-5.52,1.82-7.13,1.27-9.76-3.47-1.77-3.19-3.17-6.54-4.32-10.01-2.46-7.43-5.51-14.52-10.18-20.95-3.47-4.79-4.6-10.79-6.73-16.27-.68-1.75-.78-3.78-2.34-5.12-1.72-1.29-2.61-3.12-3.3-5.08-.27-1.34-.38-2.66.68-3.76Z" style="fill: #446588; stroke-width: 0px;"/>
  <path d="M9.39,63.56c-1.63,5.01.61,9.56,2.11,14,8.24,24.42,17.71,48.36,29.17,71.46,3.37,6.8,7.41,13.28,11.46,19.71,1.47,2.34,2.14,6.48,6.62,5.05,3.79-1.21,6.07-5.58,5.39-9.96-.55-3.57-1.28-7.12-1.5-10.71-.15-2.31-.93-4.84.76-7.02,2.24,9.67,5.12,19.25,5.83,29.18.58,8.16,1.26,16.51-3.57,23.94-11.34-11.06-20.49-23.75-28.06-37.63-13.35-25.27-25.11-51.21-33.18-78.71-1.16-3.95-.86-8.28-3.21-11.89.68-5.27,2.89-7.27,8.18-7.41Z" style="fill: #6d9dce; stroke-width: 0px;"/>
  <path d="M37.46,265.88c.34-1.84-.38-3.81.74-5.76,2.14.75,1.83,2.96,2.02,4.27,2.44,16.17,13.1,24.96,27.29,30.39,7.55,2.89,15.84,4.16,21.14,11.23.67.89,1.67,1.37,2.71.57,1.82-1.39,3.53-3.11,3.34-5.52-.69-8.93-1.31-17.88-2.58-26.73-.5-3.52.79-7.31-1.43-10.57-.64-7.63-1.28-15.27-1.93-22.9,3.68,2.81,2.04,7.16,2.56,10.62,2.07,13.74,3.23,27.61,4.73,41.44.04,4.55,1.51,9.01.86,13.6-1.8,4.23-1.01,9.12-3.8,13.2-1.37,2-1.89,3.51-3.8.8-2.89-4.1-7.1-5.64-11.79-6.89-11.01-2.94-21.16-7.61-29.01-16.34-2.48-2.76-4.4-5.73-5.69-9.18-.36-.97-.95-2.11-2.14-1.89-1.34.25-1.02,1.61-1.05,2.59-.06,2.08-.02,4.17-.07,6.25-.03.99.24,2.35-1.09,2.59-1.18.21-1.67-.96-2.18-1.88-1.3-2.34-2.74-6.32-5.38-5.05-3.08,1.47.11,4.88.49,7.44.76,5.08,5.36,8.5,5.98,13.66-6.9-8.58-11-18.35-12.51-29.24-.31-5.53-1.51-11.03-.59-16.6,2.83-4.04,4.49-.52,5.66,1.26,2.27,3.48,3.4,7.56,4.75,11.49.67,1.95.87,4.06,2.31,6.59.18-4.46.47-8.19-.66-11.89-.25-2.61-.93-5.28,1.09-7.55Z" style="fill: #3e5f84; stroke-width: 0px;"/>
  <path d="M159.79,649.51c1.59-1.56.4-3.48.66-5.21-1.36-8.77-6.2-15.98-10.53-23.41-6.02-10.32-12.38-20.52-12.96-32.98-.06-1.21-.23-2.42.02-3.62.47-2.22.88-4.59,3.52-5.26,2.48-.63,3.8,1.21,5.07,2.86,5.69,7.39,12.75,13.69,17.37,21.94,1.18,2.11,2.86,3.95,4.87,5.35,3.41,2.38,5.84,5.37,6.35,9.95,1.64-1.9,1.33-4.77,3.84-5.41,1.19-.3,1.84.68,2.19,1.76-1.69,11.07-1.7,22.43-5.58,33.13-.15.52-.37,1.02-.62,1.51-.59,1.32-2.04,1.63-2.98,2.55-1.78,2.59-4.08,3.79-7.28,2.91-3.16-.87-3.67-3.37-3.94-6.06Z" style="fill: #283f5d; stroke-width: 0px;"/>
  <path d="M591.04,136.66c1.4-2.96,3.06-1.14,4.57-.18,3.1,1.98,5.13,1.56,4.76-2.48-.44-4.84,1.67-8.19,5.04-11.31,7.94-7.37,10.41-17.8,14.36-27.26,9.04-21.67,16.41-43.93,20.72-67.09.85-4.56,1.94-9.1,1.66-13.81-.11-1.88-.31-3.9,1.82-5.01,2.34,8.55,3.85,17.2,3.09,26.11-.55,1.44.09,3.05-.6,4.47-2.48,6.9-3.03,14.23-4.87,21.3-6.56,25.24-16.9,48.82-30.12,71.24-2.69,4.56-5.81,9.06-6.6,14.54-7.32,2.46-12.49-1.46-13.84-10.51Z" style="fill: #6da1d5; stroke-width: 0px;"/>
  <path d="M577.42,268.04c1.71-.22,3.28-1.03,3.08-2.86-.81-7.54,4.45-8.19,9.7-8.64,10.63-.9,20.98-3.56,31.53-4.93.85-.11,1.71-.33,2.56-.29q6.55.3,5.75-6.51c1.46-.1,2.08,1.1,2.81,1.96,4.38,5.15,5.41,5.17,10.69.56,1.03-.9,2.41-4.23,3.9-.21-1.69,4.88-3.95,9.46-7.08,13.59-3.51.97-5-1.91-7.13-4.08.33,3.05,1.33,5.57,1.63,8.24-.08,1.7-.59,3.2-1.96,4.3-14.4-2.54-27.08,4.03-40.31,7.67-2.87.79-4.22,3.39-5.95,5.56-2.71,3.42-4.95,3.3-6.31-.78-1.45-4.37-5.5-8.33-2.92-13.59Z" style="fill: #44668c; stroke-width: 0px;"/>
  <path d="M527.49,485.93c-5.7,7.08-11.16,8.17-17.47,2.62-9.19-8.06-19.89-13.74-30.08-20.24-2.55-1.62-5.33-1.22-8.09-1.26-1.85-.28-2.39-1.59-2.5-3.22-1.84-2.74-3.68-5.48-5.52-8.22,1.33-3.86,4.5-2.48,6.86-2.01,9.28,1.82,18.51,3.91,27.41,7.22,2.4.89,4.72,2.09,7.34,2.33,9.3,5.71,16.07,13.86,22.05,22.78Z" style="fill: #6c9acd; stroke-width: 0px;"/>
  <path d="M204.26,499.4c-4.81-3.14-9.62-6.29-14.42-9.43-.83-.66-.81-1.54-.32-2.3,4.34-6.79,7.8-14.32,14.98-18.79,7.91-4.91,15.69-10,23.33-15.32,1.42-.99,3.15-1.32,4.62-2.18,3.86-2.42,7.88-4.47,12.45-5.18.78,1.94-.93,2.31-1.98,3.04-1.23.86-3.02,1.18-2.92,3.23-3.22,2.88-7.03,5.21-8.89,9.38-.08,2.54-1.78,4.02-3.52,5.49-6.82,7.3-9.74,16.48-12.38,25.78-.43,1.52.06,3.08.51,4.57.32,2.72.92,5.52-2.24,7.14-4.01-.22-6.91-2.33-9.21-5.44Z" style="fill: #6f96c8; stroke-width: 0px;"/>
  <path d="M644.07,189.91c-2,3.96-.97,8.37-1.68,12.55-1.26,7.33-4.96,13.09-9.38,18.55-2.55,3.15-5.7,2.28-6.53-1.82-1.04-5.18-1.5-10.48-2.21-15.73.62-8.61-1.57-17.11-.99-25.75.21-3.17.48-6.15,2.21-8.86,10.31,3.39,14.94,11.79,18.57,21.06Z" style="fill: #acd3ef; stroke-width: 0px;"/>
  <path d="M577.42,268.04c-.01,5.37,3.19,9.75,4.57,14.7.61,2.18,2.48,1.32,2.96-.02,2.59-7.28,9.3-8.12,15.27-9.94,6.73-2.04,13.55-3.86,20.41-5.43,4.2-.96,8.55-1.21,12.28,1.81-7.21,10.22-18.16,14.99-29.09,19.59-4.58,1.93-9.08,5.1-14.65,3.58-1.84-.5-1.75,1.16-1.87,2.25-.21,1.88-.25,3.78-.37,5.67-2.26-.15-1.88-1.95-2.26-3.41-1.21-4.62-1.88-9.47-5.02-13.37-2.88-1.91-3.12-5.21-4.03-8.07-1.49-4.72-3.25-9.39-3.66-14.39-.02-1.89.05-3.79-.62-5.61-.16-.54-.26-1.1-.32-1.66.33-2.3-1.32-5.27,2.18-6.51,1.1,6.99,1.99,14.01,4.22,20.77Z" style="fill: #314865; stroke-width: 0px;"/>
  <path d="M232.41,443.12c-.21-2.66,1.4-3.92,3.68-4.09,7.73-.56,15.36-2.02,23.14-2.27,19.47-.63,38.92-1.65,58.29-3.95,9.57-1.14,19.25-1.4,28.86-2.28,13.02-1.19,26-3.18,39.05-3.7,10.97-.43,21.71-4.18,32.91-1.77,3.45.74,7.18-2.18,11.05-.78.81.29,1.67.36,2.21,1.13-8.47,2.4-17.26,2.78-25.92,3.92-14.19,1.87-28.48,3.02-42.73,4.48-6.42,2.86-13.23,2.88-20.06,2.84-3.37-1.39-6.91-.72-10.24-.27-14.53,1.97-29.23,1.79-43.74,3.91-13.98,2.05-28.2,1.35-42.2,3.3-4.77-.29-9.57.51-14.31-.48h.01Z" style="fill: #5e6e9f; stroke-width: 0px;"/>
  <path d="M604.87,147.18c-3.44-.84-1-2.65-.47-3.81,5.17-11.32,12.1-21.7,17.55-32.9,8.56-17.61,14.94-35.95,19.85-54.84,1.08-4.14,1.66-8.42,2.35-12.66.24-1.48.7-2.65,2.09-3.33,1,2.03.57,4.13.32,6.22-2.18,30.34-10.25,58.87-26.25,84.91-3.99,6.48-8.44,12.68-15.44,16.4Z" style="fill: #567da5; stroke-width: 0px;"/>
  <path d="M1.21,70.98c1.88.11,2.61,1.21,2.93,2.99,3.37,18.44,10.48,35.64,18,52.65,5.21,11.8,10.92,23.39,16.4,35.07,3.69,6.55,7.12,13.25,11.16,19.62,1.75,2.75,3.89,5.78,2.6,9.53-2.68.69-3.63-1.52-4.86-3.05-4.13-5.15-7.45-10.83-10.75-16.54-12.4-21.47-22.92-43.82-31.16-67.2.91,2.26,1.57,4.46-.41,6.56-2.97-7.71-3.55-15.84-4.26-23.95-.53-4.56-.68-9.12.11-13.67.08-.67.15-1.34.23-2.01Z" style="fill: #4c6f92; stroke-width: 0px;"/>
  <path d="M342.73,435.57c6.74-.59,13.47-1.17,20.21-1.76,1.5,1.79,3.56.92,5.35,1,11.92.52,23.85.94,35.76,1.39-13.2,1.84-25.31,6.68-36.8,13.24-9.81.84-19.39-.12-28.67-3.56-2.64-2.68-5.87-4.09-9.59-4.5-2.05-.23-4.07-.66-6.02-1.36-.79-.28-1.74-.59-1.8-1.56-.07-1.07.88-1.44,1.73-1.5,6.61-.44,13.13-2.26,19.83-1.39Z" style="fill: #9298a7; stroke-width: 0px;"/>
  <path d="M5.13,110.6c.58-2.92-.42-5.74-.37-8.75,3.95,4.92,5.4,11.01,7.66,16.62,9.03,22.52,19.93,44.06,33.14,64.41,1.85,2.86,3.49,5.98,6.51,7.91,1.34.74,1.87,2.01,2.08,3.42.2,1.4.28,3-1.11,3.73-1.31.69-2.15-.69-3.03-1.47-1.94-1.72-3.55-3.77-5.46-5.53-12.11-13.59-21.02-29.13-27.99-45.86-2.62-6.57-5.06-13.2-7.37-19.88l.03.05c-1.39-4.89-2.77-9.79-4.09-14.7v.05Z" style="fill: #37516e; stroke-width: 0px;"/>
  <path d="M260.59,792.3c-5.47-.94-9.23-4.8-12.75-8.42-19.85-20.45-33.52-45.12-46.66-70.05-7.52-14.26-12.71-29.53-17.58-44.88-.19-.59.04-1.32.07-2.01,1.91-.01,3.16.75,4.03,2.2,5.72,17.24,12.81,33.89,21.59,49.81,10.53,19.1,21.21,38.09,35.54,54.74,4.08,4.74,8.73,8.89,12.95,13.47,1.33,1.44,3.44,2.57,2.81,5.13Z" style="fill: #c6c6c7; stroke-width: 0px;"/>
  <path d="M525.3,591.16c3.73,2.5,3.62,6.92,4.71,10.51,2.92,9.52,10.31,16.66,13.23,26.13,1.42,4.59,3.58,8.95,5.08,13.52,1.6,4.86,4.67,6.93,9.7,6.14-3.97,7.21-9.62,10.51-17.91,7.71-3.15-6.03-1.96-12.79-3.21-19.15-1.12-5.67-1.96-11.39-4.24-16.76-3.37-2.84-3.32-7.08-4.24-10.85-.83-3.38-1.66-6.7-3.24-9.81-1.04-2.5-1.89-5,.12-7.44Z" style="fill: #2e3f55; stroke-width: 0px;"/>
  <path d="M260.59,792.3c-8.46-9.37-17.74-17.99-25.13-28.32-8.58-11.98-15.82-24.7-23.03-37.56-8.08-14.41-15.5-29.03-21.39-44.4-1.55-4.04-4.17-8.1-3.34-12.88,1.4,1.06,2.8,2.11,4.2,3.17-2.36,1.95-.38,3.97.22,5.65,7.77,21.75,18.14,42.31,30.46,61.73,10.35,16.32,21.37,32.37,36.31,45.09,5.16,4.39,9.88,9.47,16.72,11.71-2.71-.35-5.42.65-7.77-.94-.92-1.72-3.2-.7-4.27-2.12-.99-.38-1.99-.76-2.98-1.15Z" style="fill: #8f9094; stroke-width: 0px;"/>
  <path d="M140.69,403.55c4.47,7.98,11.87,12.84,19.16,17.73,10.33,6.93,21.56,11.47,34.12,12.72,8.13.81,15.43,4.64,22.82,7.9-1.55-.08-3.23.2-4.63-.3-9.49-3.44-19.66-4.04-29.2-7.05-17.36-5.46-32.45-14.44-44.07-28.91-6.07-7.54-13.18-14.24-18.27-22.59-7.65-12.57-12.11-26.34-15.54-40.54-.51-2.09.31-7.04-4.97-4.67.23-2.13.8-4.74,3.07-4.72,2.81.02,3.53,2.98,4.07,5.31,2.96,12.79,6.3,25.44,12.27,37.24,5.36,10.59,13.3,19.2,21.16,27.88Z" style="fill: #abb1bc; stroke-width: 0px;"/>
  <path d="M132.33,499.35c-.66,2.79-1.33,5.58-1.99,8.36.76,2.25-.81,3.9-1.46,5.8-2.2,3.9-3.38,8.09-3.64,12.56-.85,3.27-1.37,6.59-1.92,9.91-.5,5.6-.63,11.19.09,16.79.03,3.02.33,6.04-.18,9.05,2.93,9.91,3.23,20.37,6.43,30.25,5.57,17.2,14.51,32.46,25.71,46.52,2.28,2.86,3.76,6.14,4.05,9.86-6.93-9.26-14.29-18.23-20.66-27.85-6.62-10-9.76-21.67-13.2-33.05-4.42-14.64-6.11-29.78-5.67-45.01.31-10.79.35-21.82,6.52-31.54,2.33-3.68,1.24-9.13,5.92-11.66Z" style="fill: #aebccd; stroke-width: 0px;"/>
  <path d="M505.44,463.15c-1.57,1.26-3.31.99-4.9.27-9.53-4.29-19.77-6.04-29.81-8.48-2.29-.55-4.76-1.21-6.89.67-5.51-5.19-10.86-10.58-17.7-14.1,14.61.2,28.15,4.67,41.26,10.62,6.44,2.92,12.74,6.19,18.04,11.02Z" style="fill: #5478a7; stroke-width: 0px;"/>
  <path d="M369.01,803.72c1.76-.04,3.51-.08,5.27-.11,7.2-1.58,14.51-.79,21.78-1,3.92-.18,7.93.81,11.75-.81,5.39-1.41,10.88-1.46,16.39-1.28,1.9.05,3.84.42,5.57-.77,6.15-1.8,12.51-2.72,18.73-4.25,3.05-.75,5.77-3.21,9.24-2.03-.89,3.4-3.52,4.91-6.52,6.02-.52-.93-1.32-.98-2.22-.71-17.05,5.17-34.71,5.88-52.3,7.29-17.34,1.39-34.68.63-52.01.72-6.05.03-12-1.52-18.1-1.41,14.16-.59,28.32-.45,42.43-1.66Z" style="fill: #bababc; stroke-width: 0px;"/>
  <path d="M37.46,265.88c.04,2.77.08,5.54.12,8.31.43.59.51,1.29.42,1.97-.17,1.25.71,3.08-1.21,3.5-2.08.45-2.65-1.5-3.01-2.87-1.5-5.66-2.93-11.35-3.89-17.14-.17-1.02-.3-2.05-.59-3.05-.87-3.09-2.03-1.05-3.13-.16-.49.26-.95.22-1.38-.11,2.52-9.21,3.03-19.25,10.34-26.75,2.08,1.55.66,3.85,2.32,4.9-.92,8.82-1.23,17.67-.85,26.53.07,1.65-.55,3.45.87,4.88Z" style="fill: #88a2ba; stroke-width: 0px;"/>
  <path d="M270.06,801.56c8.83.75,15.66,5.97,22.96,10.19,16.6,9.59,34.63,14.51,53.64,15.97,15.76,1.21,31.39-.17,46.94-2.89,1.85-.32,3.79-.09,5.69-.12-8.98,3.49-18.57,3.96-27.92,4.76-19.09,1.64-37.96.21-56.48-5.81-16.1-5.23-31.01-12.45-44.82-22.1Z" style="fill: #bcbcbf; stroke-width: 0px;"/>
  <path d="M44.55,190.95c3.34,1.19,4.68,4.83,7.95,6.46,1.7-2.38-.29-4.46-.43-6.62-1.47-7.89-7-13.86-9.98-21.05-1.12-2.71-2.35-5.38-3.53-8.07,3.41,2.25,3.69,6.48,5.96,9.46,6.02,7.87,10.74,16.77,18.72,23.07,1.52,1.2,2.22,3.04,2.44,5-3.97,4.32-8.38,3.54-12.59.69-3.44-2.33-6.4-5.29-8.53-8.95Z" style="fill: #3e6cac; stroke-width: 0px;"/>
  <path d="M171.02,652.66c.66-.71,1.32-1.42,1.98-2.12,2.79-1.56,4.17.78,5.6,2.26,8.94,9.27,19.3,16.81,29.5,24.57,4.78,3.63,10.25,5.71,15.61,8.15,2.95,1.34,6.2,2.25,8.54,4.74.06.69,1.43,1.27.18,2.07-11.94-4.63-23.98-9.07-34.49-16.67,1.32-1.27-.05-1.9-.75-2.32-7.76-4.7-14.08-11.07-20.48-17.37-1.53-1.51-3.23-3.18-5.68-3.3Z" style="fill: #c6c6c7; stroke-width: 0px;"/>
  <path d="M232.44,451.39c-8,5.89-15.81,12.07-24.61,16.75-9.06,4.82-13.39,13.41-18,21.83-.68-.32-1.35-.65-2.03-.97,6.78-15.36,18.27-26.02,33.39-32.81,3.71-1.66,6.84-4.79,11.26-4.8Z" style="fill: #b6c2d8; stroke-width: 0px;"/>
  <path d="M457.74,793.47c-8.81,4.41-18.33,5.61-27.98,6.27-1.11-.36-2.44.3-3.84-1.12,9.61.09,17.56-4.64,26.23-6.78,2.04-.5,4.02-1.34,5.68.75.07.3.04.59-.09.86Z" style="fill: #72737c; stroke-width: 0px;"/>
  <path d="M87.56,206.34c-.7-1.36-1.41-2.72-2.11-4.08,2.17-.28,1.04-1.46.81-2.57-1.12-5.41-1.62-10.84.15-16.23.03,3.08-.06,6.17.14,9.23.13,2-.97,4.14,2.93,5.02,2.69.6,1.22,5.15,1.08,7.91-.12,2.37-1.78,1.3-3,.72Z" style="fill: #c0c8d4; stroke-width: 0px;"/>
  <path d="M239.99,452.48c-2.44-1.76-.16-2.57.8-3.45,1.22-1.12,3.48-.78,4.1-2.83.69-.37,1.38-.74,2.06-1.11,1.18-1.26,2.8-1.67,4.34-2.24,4.21-.49,8.41-2.87,12.65-.14-1.25,2.27-3.67,2.29-5.74,2.89-4.42,1.29-8.85,2.51-13.18,4.07-1.68.94-3.36,1.87-5.04,2.81Z" style="fill: #2e314f; stroke-width: 0px;"/>
  <path d="M634.87,264.87c-3.37-2.93-2.58-6.89-3.24-11.6,3.58,2.79,4.84,6.77,8.74,7.45-1.11,2.34-3.36,3.17-5.49,4.15Z" style="fill: #314865; stroke-width: 0px;"/>
  <path d="M25.1,264.8c-.07,5.93-.13,11.85-.2,17.78-2.63-8.74-1.92-17.5-.11-26.26.14.1.29.21.43.31,1.76,2.75,1.66,5.47-.12,8.17Z" style="fill: #88a2ba; stroke-width: 0px;"/>
  <path d="M9.19,125.21c3.44,6.26,5.66,12.98,7.37,19.88-3.59-6.21-6.19-12.78-7.37-19.88Z" style="fill: #4c6f92; stroke-width: 0px;"/>
  <path d="M263.57,793.45c3.23.02,3.49.15,4.27,2.11-1.82.79-5.88-2.35-5.12,2.94-.8-.22-1.66-.33-2.39-.68-.98-.48-2.57-.67-2.13-2.29.3-1.11,1.51-1.2,2.54-1.29.99-.08,2.07.14,2.82-.79Z" style="fill: #c6c6c7; stroke-width: 0px;"/>
  <path d="M5.12,110.56c2.76,4.51,3.89,9.48,4.09,14.7-2.4-4.61-4.18-9.4-4.09-14.7Z" style="fill: #4c6f92; stroke-width: 0px;"/>
  <path d="M251.11,444.07c-1.35.48-2.53,1.68-4.16,1.02-2.62-2.38-5.79-.59-8.66-1.12-1.95-.36-4.06.37-5.9-.85,5.01-.11,10.02-.23,15.02-.34,1.35.08,3.22-1.33,3.69,1.29Z" style="fill: #7785b0; stroke-width: 0px;"/>
  <path d="M.98,72.99c-.04,4.56-.08,9.11-.11,13.67-1.1-4.57-1.26-9.13.11-13.67Z" style="fill: #6d9dce; stroke-width: 0px;"/>
  <path d="M646.57,45.86c-.11-2.07-.21-4.15-.32-6.22.31-1.33-.31-2.85.81-4.01.14,3.43.88,6.88-.49,10.23Z" style="fill: #83bef4; stroke-width: 0px;"/>
  <path d="M84.46,201.16c-1.78-.06-3.57-.12-5.35-.18,1.82-1.08,3.62-1.51,5.35.18Z" style="fill: #c0c8d4; stroke-width: 0px;"/>
  <path d="M506.59,244.01c0-2.8.02-5.59.03-8.39,1.04,5.87,2.3,11.71,3.04,17.62.39,3.12,1.08,6.1,1.92,9.08.9,3.17,3.11,3.33,4.09.7,3.62-9.7,12.29-13.42,20.23-18.08,2.56-1.5,2.89-4.37,3.61-6.66,3.19-10.2,10.89-11.88,18.31-4.23,1.63,1.68,2.96,5.27,5.91,3.88,2.72-1.28,2.37-4.71,2.32-7.51-.03-2.08.04-4.16.06-6.24,2.23.15,2.34,2.01,2.27,3.43-.25,5.58,1.52,11,1.19,16.56-.03,2.08-.17,4.14-.57,6.2-.81,4.13-2.69,6.72-7.42,5.98-3.91-.61-6.12,1.66-7.78,4.81-5.96,11.31-15.53,17.82-27.77,20.68-2.72.64-5.29,1.62-7.87,2.66-4.48,1.8-6.39,1.01-7.73-3.73-1.8-6.35-1.94-13-3.13-19.48-.16-.85-.3-1.71-.56-2.54-.22-.81-.35-1.64-.41-2.48-.2-3.03.24-6.11-.59-9.11-.16-1.18-.02-2.27.85-3.17Z" style="fill: #d1d1d1; stroke-width: 0px;"/>
  <path d="M568.16,244.99c-.19-6.98-.72-13.94-2.06-20.81-.03-9.68-.05-19.36-.08-29.04.3-.1.6-.14.92-.14,1.08,3.3,1,6.76,1.13,10.15.49,12.58,1.55,25.09,3.43,37.54.59,3.91-.4,7.92.73,11.8-.05.31-.03.62.07.92.92,1.53.37,3.18.41,4.79-.27.59-.71.77-1.31.54-2.44-3-2.29-6.68-2.73-10.22-.23-1.84.49-3.76-.51-5.53Z" style="fill: #b2b3b4; stroke-width: 0px;"/>
  <path d="M305.68,741.24c.78-3.65,1.51-7.73,2.56-11.71.49-1.85,1.69-3.64,3.86-3.76,1.98-.12,2.97,1.54,3.79,3.1.81,1.53,1.76,3.03,2.3,4.66,4.24,12.85,16.86,16.14,28.13,14.46,21.51-3.21,42.03-10.9,63.62-13.66,8.69-1.11,17.36-2.38,26.06-3.49,2.45-.31,4.67-1.18,6.93-2.07,2.88-1.14,5.71-2.19,8.98-1.24,2.22.65,4.39-.13,6.45-1.31,8.52-4.87,14.29-2.66,18.51,6.27,2.09,4.43,4.45,8.38,2.74,13.62-.9,2.77-1.78,5.16-4.4,6.67-.88.51-1.9,1.17-2.32,2.02-5.58,11.37-17.17,15.68-26.36,22.87-7.95,6.22-17.4,9.12-26.17,13.54-4.18,2.11-8.72,2.53-13.06,2.88-16.16,1.28-32.67,2.25-48.23-2.48-14.45-4.4-28.78-10.14-39.88-21.4-2.15-2.18-4.96-3.71-7.31-5.71-5.22-4.44-4.17-10.99-5.39-16.76-.43-2.01-.53-4.09-.82-6.5Z" style="fill: #9b9ba0; stroke-width: 0px;"/>
  <path d="M382.69,726.57c-.4,1.1-.79,2.2-1.19,3.3-3.58,4.99-9.03,7.1-14.39,9.36-17.33,8.39-39.25-2.04-43.15-20.75-1.29-6.2-2.73-12.49-1.51-18.93.2-.78.39-1.57.95-2.19,2.93-2.08,6.35-3.61,8.11-7.06,2.07-2.67,2.86-6.38,6.38-7.88,1.38.08,2.74.24,4.14.13,7.23-.57,10.01,1.26,12.25,8.07.81,2.47,1.2,5.02,1.5,7.61,1.1,9.55,5.71,16.81,14.13,21.67,4.17,2.41,9.02,3.48,12.77,6.67Z" style="fill: #386ca6; stroke-width: 0px;"/>
  <path d="M323.2,698.48c.5,8.43.64,16.95,3.67,24.96,3.92,10.35,12.32,15.21,22.68,16.53,5.76.73,11.75.75,17.55-.74-3.2,3.24-7.4,4.23-11.63,5.14-4.52.76-9.05.8-13.57-.03h0c-3.73-.57-7.28-1.62-10.64-3.42-7.27-3.9-10.29-10.22-10.72-18.12-.06-1.17.38-2.42-.52-3.47-.02-1.02-.04-2.05-.06-3.07,0-3.49.01-6.98.02-10.47.12-2.61-.63-5.47,2.15-7.29.36-.26.72-.26,1.08-.01Z" style="fill: #5e6372; stroke-width: 0px;"/>
  <path d="M320.02,719.32c2.03,1.97.75,4.59,1.34,6.88,2.48,9.67,9.71,14.07,18.31,17.08.77.27,1.49.7,2.23,1.05-15.56.06-22.03-7.34-21.88-25.02Z" style="fill: #76777b; stroke-width: 0px;"/>
  <path d="M341.91,744.34c4.52.01,9.04.02,13.57.03-4.53,1.65-9.05,1.68-13.57-.03Z" style="fill: #76777b; stroke-width: 0px;"/>
  <path d="M227.71,465.93c1.13-1.36,2.26-2.72,3.39-4.08,10.56-4.83,10.77-4.58,16.18,5.56,5.98,11.23,15.16,19.62,25.34,27.01,10.98,7.97,24.11,12.45,33.87,22.65,5.49,5.73,13.59,8.91,21.12,12.03,11.13,4.61,19.38-1.19,26.83-8.47,4.84-4.73,9.92-9.13,15.35-13.17,8.43-6.27,18.04-7.51,28.09-7.01,3.24.16,5.96,2,8.54,3.63,15.34,9.74,29.62,4.41,43.49-3.19,4.26-2.34,6.35-7.17,7.73-11.96,2.59-8.98,8.18-16.56,11.72-25.1.84,1.07,1.67,2.15,2.51,3.22,4.15,8.25,7.85,16.65,8.8,25.98-.31,6.71-2.89,13.13-2.94,19.82-.08,11.6-4,21.73-9.65,31.73-4.49,7.95-7.96,16.53-12.1,24.74-3.3,6.54-6.98,12.75-11.86,18.26-2.16,2.44-4.41,4.95-5.09,8.34-2.08,4.16-6.04,6.55-9.35,9.47-6.7,5.93-13.42,11.87-20.32,17.57-6.05,6.15-12.59,11.83-17.92,18.68-1.46,1.88-3.06,3.8-5.69,4.23-2.42-.39-5.66,1.72-7.15-1.29-1.56-3.14,1.16-5.44,2.9-7.76,8.98-12.01,19.76-22.27,30.92-32.22,6.73-6,13.07-12.48,16.89-20.91.89-1.95,2.56-3.24,4.21-4.54,1.61-1.27,3.23-2.57,4.07-5.23-3.11.12-5.65,1.51-6.84,3.37-4.04,6.25-10.8,7.9-16.83,10.65-5.23,2.38-9.94,5.7-15.25,7.88-.8.33-1.76.82-2.02,1.58-2.59,7.39-10.48,9.87-14.56,15.87-1.31,1.92-3.27,3.07-5.43,3.87-1.46.55-3.18.71-4.38,1.62-8.15,6.19-16.05,3.99-24.11-.24-8.2-4.3-16.08-8.98-21.93-16.36-2.45-3.09-5.65-5.1-9.04-6.88-4.84-2.54-8.87-5.92-12.28-10.25-4.3-5.46-9.62-9.99-14.5-14.93-6.2-6.29-11.8-13.17-18.7-18.76-1.21-.98-2.5-2.04-3.22-3.38-4.89-9.06-12.73-15.88-18.36-24.43-5.23-7.94-11.61-15.12-17.12-22.93-2.11-3-4.24-6.01-5.45-9.43-1.23-3.51-3.29-5.45-7.02-5.54-.64-.92-.81-1.96-.83-3.05,1.09-6.3,4.44-11.53,7.99-16.66Z" style="fill: #ce3846; stroke-width: 0px;"/>
  <path d="M245.03,449.67c5.63-3.8,12.16-5.18,18.56-6.88,2.88-2.02,6.2-1.68,9.44-1.79,4.31-.15,8.65.36,12.94-.41,6.87-.12,13.51,1.27,20.04,3.25,4.77,1.79,9.66,3.27,14.21,5.61,5.09,2.58,9.84,5.75,14.68,8.74,5.28,3.27,10.38,4.48,16.1,1.56,1.07-.54,2.24-1.01,3.41-.14-.75,1.97-1.92,3.63-3.4,5.15-4.73,4.83-4.8,8.5-.2,13.76,3.56,4.06,6.13,8.77,9.17,13.17,1.83,2.66,1.58,5.25-.04,7.72-6.31,9.66-16.24,14.16-26.78,16.12-5.54,1.03-10.91-3.64-15.85-6.86-7.36-4.78-13.4-11.5-21.8-14.79-6.6-2.58-13.1-5.41-19.68-8.02-10.66-4.23-15.18-12.97-17.27-23.45-.51-2.55,1.01-4.57,2.25-6.71,3.24-5.57,2.11-7.14-4.2-7.52-4.03-.24-7.58,2.16-11.58,1.48Z" style="fill: #f3606d; stroke-width: 0px;"/>
  <path d="M421.44,450.33c3.85-.54,7.5.98,9.92,5.4,1.1,2,3.21,3.07,5.37,3.91,8.16,3.17,15.06,17.7,12.36,26.07-.72,2.24-2.5,3.97-4.47,4.89-4.19,1.97-8.47,3.7-13.1,4.74-6.14,1.39-10.04-1.25-13.14-5.8-4.89-7.19-10.94-10.72-19.9-8.03-4.09,1.23-8.44,1.83-12.72,2.16-5.37.42-6.8-1.84-6.23-7.2,1.44-13.49,9.57-20.6,22.03-23.5,6.2-1.44,12.5-2.64,19.86-2.63Z" style="fill: #f9848c; stroke-width: 0px;"/>
  <path d="M354.41,459.61c-7.48,5.06-14.54,3.91-21.62-1.1-4.23-2.99-8.85-5.44-13.3-8.13,1.36-1.86,3.42-2.46,5.44-2.15,5.18.79,9.73-.86,14.21-3.05,6.97,1.53,13.99,2.78,21.13,3.07,2.4.1,4.8-.08,6.98,1.2-4.28,3.39-8.56,6.78-12.84,10.16Z" style="fill: #6e92c8; stroke-width: 0px;"/>
  <path d="M179.27,615.09c-1.14-1.19-1.67-.6-2.1.65-.83,2.42-1.71,4.82-2.57,7.21-2.09-.5-1.45-1.96-1.57-3.03-.38-3.38-1.28-6.58-4.36-8.43-3.08-1.85-5.44-4.32-7.13-7.38-4.64-8.42-12.18-14.53-17.64-22.28-.84-1.19-1.58-2.38-3.25-1.95-1.63.41-1.89,1.78-2.08,3.23-.99,7.23.82,13.88,3.62,20.5,4.26,10.08,10.97,18.81,15.5,28.73,1.75,3.83,3.06,7.7,2.76,11.97-3.13-10.73-11.21-18.47-16.83-27.7-7.35-12.08-11.1-25.2-13.31-38.92-1.01-6.28-2.3-12.57-2.07-18.98.17-4.64.48-9.31,1.16-13.9.37-2.49,1.15-5.51,4.07-6.1,2.74-.55,4.02,1.94,5.49,3.94,8.6,11.67,16.59,23.78,25.12,35.51,6.15,8.45,13.47,16.72,14.89,28.24,1.43-1.15,2.45-1.97,3.47-2.79-.01,1.4-.02,2.8-.03,4.21-.54,2.56,1.28,5.61-1.61,7.68-.58.13-1.09,0-1.54-.39Z" style="fill: #405b79; stroke-width: 0px;"/>
  <path d="M180.36,615.1c2.3-1.98-.3-5.34,2.06-7.3,5.98,13.84,15.32,24.79,27.12,34.25,11.83,9.5,23.3,19.42,35.71,28.22,8.81,6.25,18.34,11.06,28.06,15.61,9.55,4.47,19.06,9.07,29.31,11.84,1.07.29,2.65.71,2.27,2.31-.32,1.35-1.75,1.36-2.97,1.61-11.77,2.36-23.33.51-34.92-1.51-11.94-2.08-23.12-6.72-34.75-9.86-13.34-4.63-25.48-11.31-36.32-20.46-6.62-5.58-13.45-10.91-19.44-17.18-.98-1.02-2.02-1.91-3.49-2.08-.01-.34,0-.68.05-1.01,2.89-2.06,4.93.03,6.89,1.59,2.71,2.16,4.87,4.96,7.49,7.22,17.1,14.72,36.03,25.9,58.6,29.91,1.8.32,3.71,1.16,5.58-.54-1.06-3.02-3.7-4.47-6.13-6.01-9.37-5.95-18.93-11.62-27.03-19.37-1.99-1.91-4.21-3.78-6.67-4.96-11.17-5.38-18.42-15.1-26.63-23.73-4.93-5.18-7.21-11.32-4.81-18.54Z" style="fill: #5f6068; stroke-width: 0px;"/>
  <path d="M323.2,698.48c-.36,0-.72,0-1.08.01-13.19-1.22-25.52-5.38-37.69-10.43-24.22-10.04-46.12-24.09-65.15-41.66-11.1-10.25-23.62-19.78-31.27-33.58-2.19-3.95-2.37-8.2-3.5-12.31.35-1.39.7-2.78,1.05-4.17,4.15,2.94,5.7,7.85,8.65,11.7,2.34,3.05,4.48,6.14,7.71,8.31,2.46,1.65,4.73,3.59,6.62,5.85,8.6,10.26,18.54,19.22,28.29,28.29,10.92,10.16,23.15,18.83,36.46,25.71,14.94,7.72,29.83,15.7,46.77,18.43,1.66.27,3.42.84,4.16,2.74-.34.37-.68.73-1.02,1.1Z" style="fill: #76777b; stroke-width: 0px;"/>
  <path d="M499.3,384.67c-2.77,2.61-6.28,4.09-9.86,4.03-4.37-.08-8.68.98-11.91,2.99-18.32,11.45-39.19,14.93-59.54,20.13-9.48.46-18.92,1.41-28.21,3.34-8.65,1.8-17.57,1.2-26.17,2.97-10.86,2.24-21.97,1.56-32.87,3.62-7.57,1.43-15.48,1.14-23.25,1.5-8.54.4-17.21,1.68-25.62.75-14.73-1.63-29.63.33-44.34-3.35-6.98-1.75-13.52-3.39-19.38-7.56-1.06-.76-2.59-1.24-3.88-1.21-3.47.07-5.57-2.15-8.21-3.83-4.94-3.13-8.58-8.66-15.26-8.76,1-3.32,4.56-4.52,6.07-7.55,2.21-4.42,1.25-8.25-3.34-10.07-3.99-1.58-8.1-2.88-12.16-4.3,0-.68-.01-1.37-.02-2.05,16.03,6.55,32.72,9.58,50.01,9.39,2.28,2.96,1.88,6.9,4.99,9.96,7.49,7.34,17.13,9,26.4,11.24,9.54,2.31,19.47,2.44,29.35,2.95,10.45.53,20.74-1.05,31.12-.28,5.35.4,10.75-.84,16.02-1.59,15.64-2.23,31.63-1.5,47.03-5.13,11.77-2.78,23.86-4.61,35.05-9.56,4.63-2.02,9.59-2.78,14.51-3.64,7.21-1.27,13.76-4.42,20.46-7.13,4.74-1.91,4.13-6.67,5.5-10.38,13.06,2.93,25.08,8.76,37.48,13.52Z" style="fill: #90829b; stroke-width: 0px;"/>
  <path d="M97.95,311.74c-1.7-1.48-.84-3.46-1.03-5.23,1.73,1.47.84,3.46,1.03,5.23Z" style="fill: #3e5f84; stroke-width: 0px;"/>
  <path d="M155.12,162.35c4.34-7.39,11.42-11.14,18.95-14.29,3.51,1.23,6.72-.45,9.96-1.24,3.98-.97,7.96-2.02,11.9-3.17,1.79-.52,3.62-1.25,5.38.13-2.04,7.9-6.77,11.94-14.57,11.9-10.11-.05-18.58,3.66-25.88,10.43-1.42,1.32-2.57,2.8-3.33,4.6-3.82,9-3.83,18.27-1.61,27.56,1.18,4.93,2.58,5.37,6.76,2.71,3.08-1.96,6.04-2.39,9.27-.52,3.08,1.78,6.45,2.49,9.99,2.47,3.19-.02,6.2.77,9.06,2.11,2.4,1.13,4.83,1.61,7.54,1.49,5.74-.25,8.73,2.95,9.15,8.89.64,9.11-2.28,17.85-2.54,26.86-.36,12.05.71,23.9,4.9,35.28,1.13,3.08,2.94,5.94,6.41,7.1,1.43.8,2.77,1.78,4.36,2.31,7.3.72,14.35.47,21.44-2.26,12.79-4.92,26.09-5.56,39.79-4.5,9.72.75,19.85.48,28.69-5.17.58-.37,1.21-.68,1.79-1.06,10.17-6.83,20.75-7.84,31.99-2.66,8.02,3.7,16.16,4.42,24.67.89,4.91-2.03,10.44-2.44,15.26-4.97,1.22-.64,2.74-.89,4.07-.6,7.94,1.75,16.41,1.61,23.87,4.67,7.53,3.08,15.53,3.49,23.09,5.95,2.6.85,5.09-.58,7.57-1.3,6.96-2.01,9.96-.63,12.72,5.92,1.15,2.71,2.29,5.43,3.26,8.22,2.13,6.03.39,11.71-1.93,17.17-2.33,5.46-2.88,10.62.35,15.9,1.97,3.22,1.38,6.28-1.11,9.07-2.42,2.71-1.28,4.21,1.76,5.18,4.29,1.37,8.54.68,12.88.34,2.34-.18,6.65-1.56,5.2,3.91-5.82,3.7-12.37,5.4-18.98,6.9-29.02,6.61-58.57,9.52-88.07,12.79-22.42,2.49-44.88,4.58-67.33,6.77-29.54,2.88-59.09,5.57-88.83,4.59-2.61-.09-5.22-.16-7.59-1.43-2.87-2.35-.3-3.5,1.17-4.71,4.85-4,4.97-4.03,1.44-9.31-1.55-2.32-1-4.07.42-6.13,5.93-8.6,5.04-12.75-3.85-18.01-3-1.77-5.67-3.98-8.49-5.99-5.55-3.98-10.23-3.38-14.46,1.95-2.47,3.11-4.69,6.07-9.39,4.6-1.98-.62-2.79.82-2.96,2.62-.22,2.28.43,4.48.59,6.71.16,2.07,1.1,4.66-2.2,5.42-4.21-3.83-4.9-9.28-6.62-14.27-5.32-18.6-7.99-37.68-10.2-56.83-3.02-26.22-5.17-52.5-4.39-78.94.31-10.7,1.58-21.13,7.07-30.6.99-1.71,1.36-3.54,1.61-5.43Z" style="fill: #171719; stroke-width: 0px;"/>
  <path d="M499.16,326.21c2.82,3.51.5,6.12-1.63,8.64-7.93,9.38-18.56,14.35-30.04,17.54-20.33,5.66-41.15,8.86-62.06,11.38-22.44,2.71-44.95,4.82-67.39,7.46-21.43,2.52-42.93,4.28-64.4,6.31-19.01,1.8-38.04,2.55-57.07,1.77-15.42-.63-30.67-2.74-43.32-13.21-6.77-5.6-11.2-12.74-14.44-20.62-5.61-13.66-8.41-28.1-10.72-42.61-1.79-11.24-3.51-22.5-4.26-33.88-.1-13.8-2.48-27.47-2.84-41.22-.43-16.37-1.77-32.88,1.97-49.1.61-2.66,1.78-5.26,3.07-7.68.73-1.37,1.43-3.98,4.08-2.07.83,5.2-1.93,9.74-2.76,14.64-2.57,15.2-1.9,30.37-1.18,45.67.93,19.62,2.93,39.1,5.44,58.56,1.78,13.78,3.98,27.49,7.3,41,3.68,14.82,9.33,28.38,23.35,36.58,5.29,3.09,11.03,5.11,17.04,6.14,17.04,2.92,34.16,2.75,51.36,1.56,17.82-1.23,35.61-2.69,53.39-4.3,22.46-2.04,44.9-4.28,67.32-6.65,24.85-2.63,49.73-5.24,74.23-10.26,15.3-3.14,30.58-6.73,43.45-16.46,4.04-2.32,5.87-7.08,10.11-9.19Z" style="fill: #e1e0e0; stroke-width: 0px;"/>
  <path d="M506.76,299.18c-.08.93-.17,1.85-.25,2.78-.93,1.76.11,3.82-.85,5.57-1.14,3.82-2.29,7.65-3.43,11.47-.55.67-1.11,1.34-1.73,1.94-.89.86-1.89,1.77-3.16,1.05-1.17-.67-1.3-2.04-1.17-3.26.34-3.28.64-6.55.73-9.86.13-5.03-1.28-9.22-5.47-12.27-4.26-3.09-5.24-7.54-5.08-12.46.43-12.8,4.09-25.06,7.45-37.18,2.82-10.18,3.37-20.2,2.66-30.39-.49-7.06-.65-14.23-2.48-21.16-1.65-6.11-.88-12.59-2.8-18.66-2.64-15.25-6.5-30.04-16.16-42.64,1.1-2.67,2.95-.96,4.55-.78,4.3,3.06,6.48,7.77,8.29,12.31,6.72,16.85,9.89,34.56,11.58,52.56.19,2,.7,3.96,1.07,5.94.96,2.07-.3,4.42.84,6.47.06.98.13,1.96.19,2.93.93,1.7-.24,3.73.85,5.41.33,1.74.65,3.47.98,5.21,1.48,3.26.69,6.79,1.06,10.17,1.41,12.66,3.96,25.32,3.4,38.03-.39,8.93-.17,17.91-1.07,26.82Z" style="fill: #171719; stroke-width: 0px;"/>
  <path d="M479.56,133.34c-1.41,1.27-2.94-.42-4.38.18-2.04.42-3.43-1.07-5.11-1.72-8.32-5.54-17.76-7.4-27.47-8.35-1.89-.18-3.8-.12-5.67-.57-6.92-.89-13.89-.67-20.75-.14-17.26,1.32-34.55,1.93-51.79,3.7-21.36,2.19-42.74,4.19-64.11,6.29-22.07,2.17-44.09,4.69-66.09,7.48-6.8.4-13.45,1.88-20.16,2.95-4.28.19-8.42,2.9-12.84.75-7.59,1.88-15.18,3.75-22.76,5.65-1.82.46-3.76,1.48-4.38-1.5,11.11-5.66,23.17-8.24,35.29-10.16,62.74-9.93,125.95-15.55,189.25-20.22,18.87-1.39,37.82-2.08,56.48,2.13,9.38,2.12,18.22,5.57,24.47,13.53Z" style="fill: #151617; stroke-width: 0px;"/>
  <path d="M157.66,329.41c-5.68-21.3-8.17-43.13-10.43-64.97-2.2-21.19-4.01-42.45-3.15-63.8.44-10.84,1.53-21.61,6.02-31.71,1.67-2.19,3.34-4.39,5.01-6.58,1.79,2.36.94,4.56-.42,6.71-5.16,8.19-6.3,17.45-6.59,26.76-.35,11.25-.65,22.56.07,33.77.9,14.06,2.3,28.11,3.75,42.14,1.92,18.51,4.63,36.84,8.61,55,.59,2.68,1.3,5.34,1.95,8.01-3.47-.1-3.25-3.53-4.84-5.34Z" style="fill: #303133; stroke-width: 0px;"/>
  <path d="M506.76,299.18c.85-25.1-1.76-50.04-3.4-75.02,1.95,4.27,1.66,8.91,2.22,13.41.27,2.16-.66,4.5,1.01,6.44.01,1.03.03,2.06.04,3.09,1.32,3.03-.38,6.38,1.01,9.4,0,.68,0,1.37,0,2.05.75,5.25,1.78,10.46,1.51,15.81-.09,1.73-.04,3.48-1.34,4.87-.87,6.62,1.01,13.39-1.06,19.95Z" style="fill: #b2b3b4; stroke-width: 0px;"/>
  <path d="M501.34,210.61c-1.7-1.97-1.02-4.25-.84-6.47,1.16,2.04,1.09,4.24.84,6.47Z" style="fill: #3f4042; stroke-width: 0px;"/>
  <path d="M502.38,218.95c-1.58-1.6-1.11-3.52-.85-5.41.95,1.7,1.11,3.52.85,5.41Z" style="fill: #3f4042; stroke-width: 0px;"/>
  <path d="M422.16,393.05c-7.1,4.66-15.59,4.86-23.37,7.35-16.96,5.42-34.62,5.42-52.05,7.19-9.51.97-18.93,3.01-28.62,2.23-3.2-.26-6.49.92-9.74.89-15.71-.14-31.58.52-46.93-3.29-10.34-2.57-21.06-5.11-28.69-13.76-2.45-2.77-.84-5.98-1.38-8.94,4.01-1.45,8.18-.93,12.31-1.08,1.82-.07,3.85.71,5.39-.99,15.42-1.47,30.91-1.94,46.3-3.98,16.2-2.15,32.54-3.22,48.71-5.56,14.82-2.14,29.71-3.69,44.55-5.58,13.13-1.67,26.25-3.74,39.48-4.73,2.56-.19,5.1-.67,7.65-1.02,3.23,2.59,7.18-1.87,10.38,1.06-.71,3.27-3.7,2.83-5.81,3.16-14.2,2.22-28.49,3.89-42.76,5.62-19.96,2.42-39.82,5.44-59.65,8.76-4.33.73-4.91,1.09-7.42,3.71.63,1.08,1.78,1.1,2.74,1.05,15.46-.83,30.18,3.94,45.24,6.09,12.1,1.73,24.16,1.68,36.27.63,2.56-.22,5.2-.87,7.4,1.19Z" style="fill: #a57a92; stroke-width: 0px;"/>
  <path d="M507.82,279.24c-.06-6.89-.12-13.79-.17-20.68,2.22,5.48,2.12,11.39,3.05,17.1.31,1.89.68,3.72,1.18,5.55.81,2.95,2.3,4.11,5.28,2.34,3.31-1.98,7.16-2.41,10.76-3.54,10.64-3.34,19.64-9.07,24.68-19.61,2.07-4.32,4.81-7.18,10.22-5.22,2.05.74,3.75-.09,4.23-2.53.5-2.54,1.41-5.01,1.12-7.66,2.32,5.02,1.83,10.75,3.95,15.82,1.59,6.43,2.52,12.8-1.85,18.64-4.41,5.63-6.66,12.45-10.18,18.59-3.57,6.23-9.15,8.37-15.26,9.33-4.51.71-9.31.78-13.89-.78-5.43-1.85-10.95-1.51-16.3.26-3.58,1.18-4.38-.12-5-3.47-1.15-6.2-.81-12.4-.95-18.61-.04-1.87.47-3.84-.86-5.52Z" style="fill: #cfcfcf; stroke-width: 0px;"/>
  <path d="M570.25,279.44c1.09-6.17,2.51-12.3,1.85-18.64,0,0,.37-.33.37-.33.37-.24.65-.17.81.26.77,7.97,4.13,15.21,6.37,22.77,1.7,11.41,1.56,22.66-2.72,33.6-3.99,10.2-11.58,17.39-19.82,24.05-1.6,1.29-3.69,1.98-5.25,3.3-9.95,8.43-20.91,8.86-31.85,2.98-11.12-5.98-21.4-5-31.87,1.1-3.58,2.08-7.55,3.38-11.73,3.81,2.94-2.53,6.62-3.71,9.99-5.43,7.36-3.75,13.51-8.8,18.28-15.59,5.43-7.72,13.56-10.25,22.64-7.24,5.77,1.91,11.94,3.38,17.73,2.95,6.93-.51,14.3-3.17,18.63-8.97,7.39-9.91,12.13-21,8.53-33.91-.46-1.63-.61-3.42-1.94-4.7Z" style="fill: #b2b3b4; stroke-width: 0px;"/>
  <path d="M487.82,284.63c-.54,5.32,1.68,8.81,6.01,12.14,6.58,5.06,4.51,12.77,4,19.7-.11,1.5-.65,2.98-.52,4.63,2.26.54,2.9-2.43,4.92-2.1-.2,2.75-2.09,4.79-3.07,7.21-2.29,3.59-4.98,6.83-8.45,9.37-3.16,1.1-6.19,2.5-9.16,4.06-1.58.83-3.15,2.14-5.19,1.24-1.31-3.79-4.49-2.2-6.53-1.66-4.76,1.27-9.24.55-13.7-.77-4.06-1.2-4.77-3.45-1.72-6.18,3.53-3.16,3.8-5.92,1.11-9.8-3.26-4.7-2.22-9.69-.15-14.76,2.19-5.35,4.84-10.79,2.28-16.85,3.89-2.61,8.61-2,12.85-2.73,5.82-1,11.09-4.83,17.32-3.52Z" style="fill: #1e2d3c; stroke-width: 0px;"/>
  <path d="M505.66,307.53c-.1-1.91-.14-3.82.85-5.57-.11,1.88.79,3.92-.85,5.57Z" style="fill: #b2b3b4; stroke-width: 0px;"/>
  <path d="M524.36,567.12c-4.88-10.43-9.75-20.86-14.63-31.29,0-11.34,6.3-17.51,17.05-16.61,1.34.11,2.79.46,3.93,1.14,3.6,2.13,8.61,16.45,7.36,20.56-1.16,3.82-2.55,7.5-4.88,10.85-2.4,3.46-3.3,7.52-4.09,11.66-.4,2.08-.44,6.03-4.74,3.7Z" style="fill: #b0e7fe; stroke-width: 0px;"/>
  <path d="M437.8,596.3c-.36-4.18,2.71-6.81,4.99-9.36,10.36-11.61,15.72-25.93,22.26-39.63.15-.31.19-.69.39-.96,9.72-13.14,10.74-28.63,12.17-44.08.29-3.14,2-6.15,3.05-9.22,2.04,6.53.79,13.23,1.09,19.86.09,2.06,0,4.12-.01,6.18-1,5.59-2,11.17-2.99,16.76.73,5.95-1.74,11.22-3.99,16.36-5.26,12.04-12.75,22.62-22.21,31.78-3.36,3.26-6.58,6.67-9.97,9.89-1.31,1.24-2.43,3.1-4.77,2.44Z" style="fill: #d26971; stroke-width: 0px;"/>
  <path d="M422.16,393.05c-9.49.73-18.99,1.11-28.52,1.1-11.15-.02-21.93-2.47-32.76-4.47-9.2-1.7-18.32-3.47-27.74-2.92-2.4.14-5.67.5-6.06-2.48-.31-2.42,2.91-3.15,4.93-3.94,6.49-2.55,13.5-2.71,20.27-3.83,18.52-3.05,37.17-5.25,55.78-7.72,12.71-1.68,25.75-1.77,38.08-5.98,7.37-1.26,12.19,2.29,15.68,8.33,1.6,6.62-.67,9.74-7.04,12.69-10.44,4.83-21.65,6.48-32.62,9.21Z" style="fill: #9c6d81; stroke-width: 0px;"/>
  <path d="M382.69,726.57c-11.64-3.34-21.74-8.52-26.72-20.66-1.7-4.15-1.2-8.47-2.34-12.64-2.41-8.83-3.76-10.07-12.64-9.2-1.6.16-2.67.18-3.37-1.35-2.24-5.6-1.51-11.61-2.37-17.4,2-2.01,4.2-.92,6.27-.26,10.85,3.47,21.04,2.08,30.67-3.91,1.57-.98,3.04-2.41,5.17-1.55,2.6,3.78-.47,7.05-.96,10.55-1.35,3.36-.72,6.71.06,10.05-.19,2.85,1.25,5.33,1.87,8,1.5,3.79,3.71,6.98,7.51,8.8,1.62.77,3.2,1.69,2.98,3.79-.96,8.84-.74,17.98-6.12,25.77Z" style="fill: #203d66; stroke-width: 0px;"/>
  <path d="M378.32,688.2c-2.82-1.74-3.38-4.42-3.11-7.44,1.49-1.2,3.01-.57,4.4.09,6.93,3.35,14.48,4.6,21.81,6.59,9.84,2.68,19.65,1.1,29.36-.57,21.51-3.71,41.22-13.04,61.23-21.08,11.62-4.67,22.17-12.04,32.84-18.81,4.62-2.93,6.64-7.28,6.47-12.8-.09-3.07-.6-6.25.81-9.22.21-.19.41-.37.62-.56,2.36,6.53,3.34,13.36,3.98,20.21.69,7.47-4.28,11.83-9.69,15.46-23.41,15.75-49.19,25.9-76.61,32.18-9.45,2.16-18.93,3.98-28.63,4.11-11.6.16-22.51-3.33-33.29-7.06-3.46-1.2-6.74-1.27-10.19-1.09Z" style="fill: #898a8b; stroke-width: 0px;"/>
  <path d="M526.49,598.3c3.54,6.55,3.46,14.17,6.17,20.96.03,1.71.05,3.43.08,5.14,0,0-.13.1-.13.1-3.84-1.71-2.63-5.83-4.15-8.66-1.02-3.77-1.66-7.63-2.86-11.36-.68-2.1-1.02-4.35.88-6.18Z" style="fill: #898a8b; stroke-width: 0px;"/>
  <path d="M437.8,596.3c19.15-16.43,35.36-34.84,40.94-60.46,5.19-2.74,8.71-7.4,12.62-11.49,3.4-3.56,5.43-2.02,7.07,1.03,3.1,5.76,6.49,11.42,8.23,17.83-3.33.31-3.94-2.93-5.8-4.52-3.37-2.88-5.02-2.78-6.52,1.31-6.72,18.38-19,32.91-32.2,46.81-4.06,4.27-8.44,8.25-11.95,13.03-1.12,1.52-2.43,2.91-2.68,5.32,2.86.73,5.16-.63,7.34-1.7,10.59-5.19,20.95-10.83,33.03-12.09,3.42-.36,6.23-2.9,9.01-5.01,3.59-2.73,7.15-5.51,10.82-8.13,4.18-2.98,7.44-6.25,6.21-11.99-.18-.83.3-1.69,1.04-2.26,1.39,4.18,2.77,8.35,4.16,12.53,2.68,6.85-1.62,11.18-6.24,14.43-8.64,6.07-16.67,13.03-25.93,18.23-.6.34-1.28.62-1.76,1.1-14.29,14.24-33.55,20.65-49.86,31.68-8.49,5.74-16.83,11.61-26.32,15.64-2.39,1.02-4.71,2.22-7.15,3.12-6.55,2.41-9.78.13-10.22-6.95-.45-7.12,3.38-12.59,6.8-18.17,2.9-4.74,6.93-8.65,10.21-13.13,9.71-8.72,19.43-17.43,29.14-26.15Z" style="fill: #e6e4e4; stroke-width: 0px;"/>
  <path d="M408.66,622.45c-.66,4.01-3.9,6.42-6,9.52-4.64,6.83-10.21,13.2-9.69,22.28.32,5.72,2.81,7.51,7.91,5.36,11.15-4.71,21.64-10.37,31.65-17.41,10.7-7.52,22.66-13.24,34.12-19.65,5.16-2.88,10.24-5.85,14.14-10.38,2.11-2.45,4.87-3.87,7.56-5.39,8.31-4.67,15.12-11.43,23.27-16.38,4.81-2.92,8.06-7.64,7.5-13.92,2.31,1.49,1.34,4.51,2.95,6.32.07,1.36.14,2.71.21,4.07,4.52,9.13,2.98,16.88-3.76,24.74-6.92,8.08-14.98,14.45-23.97,19.71-4.93,2.88-9.58,6.3-14.96,8.41-1.32.52-2.44,1.41-3.16,2.63-1.84,3.11-4.71,5.07-7.62,6.96-15.06,9.82-29.43,20.76-46.3,27.57-11.66,4.71-23.59,5.86-35.67,2.65-8.55-2.27-10.57-6.01-9.3-14.65.23-1.56.35-3.09.32-4.65.65-6.03,2.75-11.25,8.1-14.68,7.48-7.79,14.07-16.44,22.7-23.1Z" style="fill: #c4c4c4; stroke-width: 0px;"/>
  <path d="M514.97,563.96c.12,2.55.53,5.13.29,7.65-.44,4.66-5.07,5.85-7.86,8.46-3.63,3.4-7.85,6.2-11.96,9.06-3.58,2.49-7.51,3.91-12,4.4-8.76.96-16.42,5.22-24.09,9.22-3.24,1.69-6.53,3.19-10.08,4.12-1.13.3-2.24,1.15-3.34-.06-1.1-1.21-.25-2.32.31-3.32,2.43-4.43,5.65-8.27,9.23-11.78,13.65-13.39,26.23-27.6,34.7-44.96,1.28-2.63,2.09-5.49,3.19-8.21,1.76-4.34,4.01-4.92,7.36-1.75,2.11,2,3.97,4.26,5.95,6.41,3.67,5.84,4.69,12.84,8.14,18.77.06.66.11,1.33.17,1.99Z" style="fill: #fefdfd; stroke-width: 0px;"/>
  <path d="M627.54,31.05c1.44,21.69-4.81,41.96-11.44,62.15-.22.66-.34,1.4-.74,1.93-1.47,1.98-1.98,5.82-4.79,5.35-3.07-.51-1.35-4.08-1.8-6.3-.07-.34.06-.79-.11-1.02-6.9-9.26-2.66-18.95-.8-28.36,2.64-13.4,5.48-26.84,13.58-38.34,1.31-1.85,2.12-5.24,5.14-4.11,2.81,1.05.65,4.01.96,6.09.13.85.02,1.73.02,2.6Z" style="fill: #b9f7fe; stroke-width: 0px;"/>
  <path d="M85.55,261.75c-5.08-9.94-8.42-20.02-7.44-30.98.11-1.2.01-2.45.3-3.61.28-1.11.6-2.61,2.16-2.49,1.16.08,1.55,1.21,1.72,2.29.58,3.75,1.38,7.47,1.7,11.24.66,7.84,1.05,15.7,1.56,23.55Z" style="fill: #addafa; stroke-width: 0px;"/>
  <path d="M595.59,213.72c-9.71-.02-20.24-9.63-21.3-20.27-.48-4.8-1.41-9.55-1.95-14.34-.61-5.34.92-6.51,6.16-5.56,6.96,1.26,13.23,3.61,18.39,8.81,2.36,2.38,5.37,4.15,8.78,5.29,6.42,2.15,10.65,15.88,6.92,21.48-1.23,1.84-2.98,3.06-5.06,3.39-3.57.56-7.2.75-11.94,1.21Z" style="fill: #b7f6fe; stroke-width: 0px;"/>
  <path d="M572.23,254.49c-2.53-8.98-3.36-18.22-3.97-27.45-.7-10.66-.9-21.36-1.32-32.04.15-2.01.3-4.02.45-6.03.13,6.91,1.68,13.66,1.94,20.52.77,11.54,2.03,23.01,4.1,34.39-.08,1.13-.15,2.25-.23,3.38-1.87,2.2-.3,4.87-.98,7.23Z" style="fill: #44668c; stroke-width: 0px;"/>
  <path d="M396.05,802.6c-7.22,1.1-14.49,1.41-21.78,1,.62-.57,1.24-1.62,1.87-1.62,6.64-.06,13.33-1.33,19.91.62Z" style="fill: #72737c; stroke-width: 0px;"/>
  <path d="M424.2,800.51c-5.41,1.11-10.89,1.39-16.39,1.28-1.13-.11-2.26-.23-3.39-.34,6.66-.32,13.15-3.65,19.79-.94Z" style="fill: #72737c; stroke-width: 0px;"/>
  <path d="M195.94,564.04c.01-.37.03-.74.05-1.11,1.55-2.54,2.93-5.14,3.16-8.19.07-4.84,2.28-8.88,4.77-12.82,4.85-1.86,6.57,1.89,8.25,4.97,4.53,8.3,10.17,15.83,17.25,21.93,6.65,5.72,11.97,13.05,20.05,17.09,24.19,19.89,51.49,35.9,73.28,58.78,1.67,1.75,3.55,3.33,4.57,5.61.73,2.16,2.01,4.03,3.16,5.97,2.5,4.24,4.28,8.71,4.57,13.7.41,7.14-3.4,10.23-10.01,7.65-11.05-4.3-20.49-11.21-28.18-20.04-5.66-6.5-12.26-11.73-18.82-17.11-16.09-13.2-32.02-26.59-48.67-39.12-7.27-5.47-14.02-11.88-19.19-19.66-3.1-4.66-6.98-8.62-11.7-11.72-2.1-1.38-4.01-2.96-2.51-5.92Z" style="fill: #f0efef; stroke-width: 0px;"/>
  <path d="M196.93,553.57c-1.43.98-1.77,3.81-4.35,2.81-2.32-.9-1.81-3.1-1.82-4.94-.01-6.91-3.91-12.39-6.54-18.35-1.16-2.64-4.15-5.5-1.36-8.39,3.17-3.29,6.62-.73,9.37,1.1,4.37,2.9,10.59,4.74,8.98,12.17.87,5.83-.58,11.03-4.28,15.61Z" style="fill: #bee7fd; stroke-width: 0px;"/>
  <path d="M196.93,553.57c1.43-5.2,2.85-10.41,4.28-15.61,3.23-5.02,3.26-10.91,1.74-15.95-2.4-7.97-1.83-15.23,1.31-22.6,2.82,1.74,5.64,3.48,8.46,5.22.05.26.09.53.15.79.21,1.57.41,3.33-.41,4.59-5.87,9.09-4.1,19.8-6.47,29.61.07,1.23-.95,1.84-1.52,2.71-1.77,4.13-3.54,8.27-5.31,12.4-.74-.39-1.48-.77-2.22-1.16Z" style="fill: #81abd4; stroke-width: 0px;"/>
  <path d="M54.2,157.47c0,1.27.05,2.14-.01,3.01-.07.98.3,2.31-1.01,2.64-1.24.31-1.74-.85-2.19-1.77-6.77-13.97-15.63-26.9-20.46-41.84-2.12-6.58-4.74-13.01-7.12-19.5-.57-1.54-.9-3.2.56-4.3,1.85-1.4,2.76.54,3.83,1.5,5.47,4.86,8.5,11.38,11.35,17.84,5.09,11.54,10.16,23.11,13.91,35.19.78,2.51,1.41,5,1.14,7.25Z" style="fill: #b5f1fe; stroke-width: 0px;"/>
  <path d="M324.22,697.38c-2.99-1.49-6.28-1.85-9.48-2.59-18.15-4.19-34.32-12.91-50.18-22.2-13.63-7.98-25.25-18.5-37-29.06-10.55-9.49-18.91-21.06-30.46-29.67-5.22-3.9-8.75-10.94-11.54-17.5.31-1.05.62-2.11.93-3.16-1.18-3.55-.55-6.7,2.13-9.38.37-.01.75-.02,1.12-.03,1.5-.36,2.14.84,2.98,1.65,12.33,11.93,23.35,25.13,35.86,36.88,21.95,20.63,43.11,42.22,69.62,57.29,9.69,5.51,19.87,9.65,31.17,10.37,1.04.07,2.08.22,2.86,1.03-1.71,3.34-4.2,5.7-8.02,6.38Z" style="fill: #9b9ba0; stroke-width: 0px;"/>
  <path d="M188.63,583.81c-.71,3.13-1.42,6.25-2.13,9.38-1.58.13-3.14,1.18-4.14-1.44-8.04-21.11-21.9-38.68-34.87-56.79-3.62-5.05-7.04-10.24-10.7-15.26-2.68-3.68-4.88-3.62-6.85.29-3.44,6.83-6.14,13.81-6.01,21.77.11,6.68,1.04,13.45-.7,20.08-.11-3.14-.21-6.27-.32-9.41-.7-5.49-.74-10.99.02-16.48.14-3.55-.25-7.15,1.17-10.56,1.82-3.99,2-8.52,4.05-12.44.73-1.74,1.45-3.49,2.18-5.23,1.62-.63,2.05-2.27,2.93-3.52,3.52-5.03,4.51-5.24,7.41-.08,10.74,19.14,23.54,36.87,36.69,54.37,2.62,3.48,4.51,7.27,5.24,11.67.83,5.02,4.8,8.75,6.02,13.65Z" style="fill: #6791bb; stroke-width: 0px;"/>
  <path d="M332.24,691c-12.64.96-23.65-4.08-34.15-10-16.75-9.46-31.49-21.6-45.63-34.68-13.19-12.2-26.67-24.13-38.86-37.31-7.86-8.51-16.43-16.33-23.86-25.23,1.43-6.78,2.95-13.53,6.2-19.74.07,1.39-.03,2.91,1.42,3.69,7.6,4.07,12.15,11.11,17.33,17.57,6.52,8.14,14.59,14.62,22.93,20.77,15.01,11.06,28.6,23.9,43.51,35.06,11.13,8.33,18.78,20.28,30.58,27.8,4.69,2.99,9.31,6,14.59,7.79,5.13,1.74,7.75-.49,7.55-5.97-.21-5.57-2.35-10.42-5.16-15.03-.99-1.63-2.24-3.09-2.46-5.07,1.89-.9,2.75.68,3.91,1.58,2.64,3.89,6.73,7.15,5.57,12.7,2.52,5.73,1.75,11.81,1.9,17.8-.99,3.28-3.7,5.44-5.37,8.28Z" style="fill: #cbcbcb; stroke-width: 0px;"/>
  <path d="M378.43,659.94c0,1.39-.02,2.77-.03,4.16-.08,11.28,4,15.04,15.58,15.69,15.99.89,29.84-4.13,43.62-12.05,11.09-6.37,20.94-14.44,32.02-20.68,2.38-1.34,4.75-2.87,5.68-5.77.53-1.65,2.1-2.2,3.5-2.89,16.04-7.9,31.32-16.9,41.93-31.86,2.9-4.08,4.71-8.83,2.81-14.15-.63-1.76-1.56-3.52-1.26-5.52,1.01,1.43,2.01,2.86,3.02,4.29.38,2.38-.48,4.97,1.19,7.14-.82,6.26,3.36,11.66,3.05,17.82.8,2.48.93,5.06,1.03,7.62.28,7.23-2.44,12.46-9.26,15.9-9.54,4.82-19.02,9.81-27.15,17.04-3.9,3.47-9.46,4.16-14.17,6.33-3.8,1.75-7.61,3.36-10.65,6.33-.74.73-1.58,1.41-2.55,1.77-17.97,6.51-34.93,16.36-54.66,17.05-11.77.41-22.9-2.77-33.5-7.59-4.28-1.95-4.62-6.07-3.39-10.28.89-3.4,1.78-6.81,2.67-10.21.17-.05.35-.09.52-.14Z" style="fill: #a9a9aa; stroke-width: 0px;"/>
  <path d="M25.1,264.8c.04-2.72.08-5.45.12-8.17.34-.78.64-1.57,1.02-2.33.51-1.02.59-2.6,2.13-2.51,1.5.09,1.62,1.49,1.86,2.69,1.36,6.69,2.78,13.37,4.1,20.07.33,1.65.27,3.4,2.15,4.37,1.74-1.31.61-3.22,1.09-4.73,1.94,4.09.59,8.42.89,12.64.05.75-.36,1.48-1.11,1.45-1.2-.04-1.6-1.05-1.94-2.07-1.76-5.37-3.49-10.75-5.35-16.09-.85-2.45-1.86-4.9-4.97-5.31Z" style="fill: #5680aa; stroke-width: 0px;"/>
  <path d="M180.36,615.1c-.49,8.09,2.75,14.23,8.07,20.47,8.68,10.19,19.75,17.08,29.91,25.29,9.59,7.74,19.72,14.54,30.03,21.2,2.36,1.53,6.46,3.56,5.01,6.74-1.26,2.78-5.19,1.13-8.07.58-24.79-4.72-45.42-17-63.22-34.5-2.56-2.52-4.79-5.67-9.04-5.37,4.04-11.12,3.52-23.07,6.22-34.43.36,0,.72.01,1.08.02Z" style="fill: #4f4f53; stroke-width: 0px;"/>
  <path d="M328.97,652.65c-.91-.67-1.82-1.34-2.73-2.01-9-11.13-20-20.16-31.23-28.82-15.21-11.73-31.2-22.44-45.85-34.91-18.71-14.32-29.28-29.7-37-53.83-2.03-.73-2.6,3.01-4.84,1.64-1.71-2.42-.28-4.92.45-6.94,2.73-7.52,3.84-15.32,4.94-23.15,0,0,.01,0,.01,0,2.92-1.79,1.69-4.68,1.91-7.18,1.12-5.4,1.1-11.28,6.27-14.98.03,1.13.07,2.26.1,3.39.44,5.1-2.72,9.53-2.71,14.55.07,18.64,6.13,35.53,14.55,51.89,8.04,15.64,19.32,28.5,32.4,39.97,5.55,5.48,11.75,10.18,18.04,14.76,15.81,11.51,30.58,24.31,45.67,36.71,2.27,1.87,4.37,3.97,5.9,6.51.85,1.41,2.37,3.05.52,4.57-1.43,1.18-2.94.19-4.16-.88-.67-.58-1.4-1.01-2.23-1.28Z" style="fill: #974753; stroke-width: 0px;"/>
  <path d="M220.88,482.45c-3.08,4.58-3.22,10.39-6.27,14.98-1.24-1.08-1.15-2.59-.84-3.88,2.27-9.7,6.01-18.75,12.16-26.68.37-.48,1.17-.64,1.77-.95-1.63,5.77-5.67,10.55-6.82,16.52Z" style="fill: #eee4e9; stroke-width: 0px;"/>
  <path d="M573.28,260.73c-.28-.06-.55-.15-.81-.26-.06-1.69-.11-3.37-.17-5.06,1.7,1.52.94,3.49.98,5.32Z" style="fill: #44668c; stroke-width: 0px;"/>
  <path d="M339.14,445.18c-2.23,4.93-7.15,4.68-11.07,4.62-2.93-.05-5.73.12-8.58.58-4.37-1.73-8.74-3.45-13.1-5.18,2.11-2.11,4.89-1.14,7.36-1.59,1.97-.36,4.1-.21,6.67-2.47-11.89-2.16-22.84.44-33.78.6-7.68.44-15.42-.55-23.05,1.04-4.39-1.84-8.36.48-12.48,1.29-.74-1.83-2.42-.99-3.69-1.29,2.17-1.08,4.48-1.79,6.89-1.76,20.41.22,40.54-3.64,60.9-4.33,8.23-.28,16.44-1.6,24.64-2.56,1.45-.17,2.34.11,2.89,1.43-6.83.76-13.65,1.51-20.48,2.27-.01.2-.02.4-.03.6,3.84.82,7.69,1.59,11.52,2.47,2.44.56,4.63,1.54,5.4,4.27Z" style="fill: #3b4a6d; stroke-width: 0px;"/>
  <path d="M128.16,512.95c-1.14,4.22-.75,8.93-4.05,12.44.18-4.53.99-8.85,4.05-12.44Z" style="fill: #81abd4; stroke-width: 0px;"/>
  <path d="M122.94,535.94c0,5.49-.01,10.99-.02,16.48-1.53-5.5-1.54-10.99.02-16.48Z" style="fill: #81abd4; stroke-width: 0px;"/>
  <path d="M507.64,256.5c-1.9-2.97-.63-6.27-1.01-9.4,2.05,2.95.58,6.28,1.01,9.4Z" style="fill: #cfcfcf; stroke-width: 0px;"/>
  <path d="M405.99,783.25c-5.78-3.54-11.1,1.61-16.59,1.36-9.72-.45-19.44-1.36-29.06-4.11-6.96-1.99-11.4-6.67-16.71-10.47-2.84-2.03-3.93-6.06-3.3-9.29.67-3.38,4.11-4.18,7.56-3.96,1.49.09,3.32-.12,4.49-.92,10.86-7.48,24.2-5.84,36.11-9.74,9.67-3.16,20.44-3.13,30.96-3.1,7.66.02,15.53.57,23.2-1.45,3.89-1.02,5.03,2.81,6.83,5.23,2.8,3.76,4.15,7.32-.97,10.35-.58.34-1.29.91-1.41,1.49-1.14,5.69-5.65,7.99-10.23,9.93-9.02,3.83-16.03,11.53-26.03,13.42-1.51.29-2.98.77-4.86,1.26Z" style="fill: #a8a8ab; stroke-width: 0px;"/>
  <path d="M216.94,500.45c.35-5.15,1.91-9.96,4.05-14.61,2.66-1.64,4.79-2.46,6.34,1.61,4.57,12.01,13.48,21.2,20.9,31.35,3.05,4.17,5.58,8.86,9.18,12.48,8.23,8.26,13.93,18.44,22.76,26.48,9.6,8.75,19.23,17.96,27.25,28.46.94,1.23,1.97,2.69,3.3,3.28,12.4,5.58,19.95,17.35,31.28,24.35,5.5,3.39,12,4.41,17.22,8.22.26.19.73.32.99.22,7.17-2.8,14.94-4.63,20.79-9.82,2.92-2.59,5.06-6.07,8.79-7.83.76-.36,1.87-.91,2-1.54,1.59-7.42,8.08-9.54,13.65-12.23,10.46-5.04,20.99-9.81,29.53-18,.97-.93,2.64-2.24,4.1-.55,1.38,1.59.1,3.28-.9,4.12-9.76,8.13-13.94,20.94-24.2,28.63-6.54,4.91-11.78,11.23-17.84,16.65-5.75,5.14-9.71,11.71-14.88,17.29-1.22,1.32-2.76,3.22-2.02,5.06.93,2.32,2.96.61,4.54.38.98-.14,1.63.4,2.19,1.11-2.95,4.57-6.1,9.03-7.53,14.4-.19-.03-.37.02-.52.14-1.07-.2-2.03.03-2.93.68-11.39,8.32-23.62,9.89-36.72,4.56-.77-.31-1.69-.27-2.55-.39-1.19-4.68-3.89-8.52-6.74-12.28,1.95.54,3.89,1.09,6.43,1.8-1.66-5.17-5.38-8.07-8.93-11.13-19.19-16.55-39.49-31.71-59.39-47.37-.92-.72-1.53-1.84-2.29-2.77,2.72-1.48,4.12.95,5.85,2.09,3.15,2.07,5.95,4.76,10.31,5.17.46-2.46-1.23-3.91-2.37-5.41-12.2-16.14-24.4-32.29-35.89-48.95-7.78-11.28-13.65-23.67-20.23-35.63-1.83-3.33-4.06-6.45-5.53-9.99Z" style="fill: #a71c29; stroke-width: 0px;"/>
  <path d="M334.28,506.67c-5.21-.11-11.01-2.85-16.11-6.82-11.06-8.59-22.94-15.47-36.56-19.07-7.78-2.06-12.04-7.83-15.13-14.65-1.85-4.08-.53-6.96,4.09-7.38,16.5-1.51,32.09.97,44.42,13.31,4.48,4.48,9.72,7.76,14.85,11.27,2.42,1.65,4.89,2,7.73.22,4.63-2.9,10.52-2.77,12.45-.18,3.06,4.11,3.06,13.18,0,16.7-2.95,3.4-9.8,6.57-15.75,6.6Z" style="fill: #fc989f; stroke-width: 0px;"/>
  <path d="M286.64,441.74c6.67-2.9,13.86-1.95,20.81-2.72,4.09-.45,8.43-1.79,12.47.81.99.64,3.13-.25,2.92,1.92-.16,1.62-1.83,1.87-3.13,2.27-4.35,1.32-8.84,1.2-13.32,1.18-6.53-1.48-13.03-3.12-19.76-3.46Z" style="fill: #090b19; stroke-width: 0px;"/>
  <path d="M487.82,284.63c-9.86,3.03-19.57,6.79-30.17,6.25-1.33-3.37-2.82-6.69-3.94-10.13-1.39-4.29-4.76-5.61-8.12-3.96-9.87,4.83-19.04.08-27.92-2.26-6.11-1.61-12.2-3.44-18.46-4.37-2.42-.36-4.76-.83-7.04-1.62-2.38-.82-5.09-1.35-7.08-.1-5.3,3.32-11.62,3.24-17.11,5.67-7.94,3.52-15.55,2.17-23.07-1.05-4.65-1.99-9.5-3.34-14.44-3.94-6.2-.76-11.49,2.69-16.35,5.7-7.34,4.54-14.98,6.52-23.49,6.76-11.73.34-23.49-1.58-35.21.86-5.26,1.1-10.32,2.61-15.29,4.56-6.64,2.6-13.38,2.54-20.19.74.1-.25.2-.5.3-.76,9.52-5.24,17.47-12.99,27.61-17.28,1.6-.68,3.11-1.64,4.84-1.86,10.79-1.38,21.54-3.46,32.1,1.75,3.98,1.97,8.66,2.57,13.14,3.02,6.78.68,11.89-3.65,13.3-10.48,1.97-9.49-1.47-17.78-5.6-25.86-3.97-7.77-10.41-13.26-17.53-18.09-5.03-3.41-10.25-5.63-16.5-5.22-5.34.34-10.55-1.31-16.05-.55-16.22,2.24-29.32,10.11-37.23,23.91-7.41,12.92-8.31,27.69-4.3,42.36.37,1.36,1.34,2.42,2.38,3.36.37.4.66.86.88,1.36.16.53.16,1.07.02,1.6-.16.22-.32.44-.48.66-7.47-1.15-8.58-7.59-9.94-13.04-3.88-15.56-4.68-31.25-.88-47.08.94-3.92.9-8.34.14-12.31-.69-3.65-3.15-6.67-7.91-5.32-.98.28-2.4.83-2.98.4-7.6-5.66-17.9-1.87-25.58-7.5-2.69-1.97-5.38.22-7.29,2.28-3.21,3.45-5.4,2.51-6.8-1.41-4.1-11.45-4.42-23.42,1.81-33.63,5.11-8.38,14.64-13.83,24.65-13.35,9.59.46,14.73-3.79,19.19-10.81,4.17-.67,8.34-1.34,12.52-2.02,1.5,3.63.1,7.49,1,11.26,1.09,4.6,3.39,7.87,7.48,10.04,3.25,1.72,6.66,3.1,10.27,3.62,15.47,2.23,30.87,3.86,46.5.35,12.87-2.89,26.17-3.34,39.31-3.66,10.46-.26,20.69-2.34,31.08-2.64,11.4-.32,22.76-2.17,34.2-.92,1.04.11,2.1.2,3.11-.02,9.18-1.93,17.79-.1,26.47,3.12,10.64,3.94,19.15,10.34,25.59,19.55,3.4,4.86,7.06,9.42,11.67,13.21,3.52,2.89,6.24,6.44,8.3,10.56,2.17,4.35,4.72,8.53,8.26,11.95,6.34,6.13,12.05,5.53,16.57-1.97,3.47-5.77,7.4-11.36,8.88-18.16.3-1.38.49-3.25,2.7-3.21,2.64,7.8,2.15,16.02,3.07,24.04,2.11,18.4-5.56,35.26-8.79,52.83-.78,4.27-1.84,8.44-1.6,12.81Z" style="fill: #303133; stroke-width: 0px;"/>
  <path d="M476.36,340.89c4.95-1.31,8.55-6.28,14.35-5.3-7.64,7.27-17.29,10.76-27.09,13.48-27.97,7.75-56.77,10.66-85.52,13.68-29.97,3.14-59.92,6.5-89.94,9.1-26.41,2.29-52.87,4.98-79.45,2.59-14.07-1.27-27.24-4.99-37.24-15.9-7.59-8.27-11.53-18.31-13.82-29.12,2.36,1.1,2.65,4.08,4.84,5.34,1.32,4.65,3.02,9.15,5.41,13.37,1.31.55,2.34,1.43,3.07,2.65,6.04,10.12,15.74,14.48,26.64,16.97,2.32.53,4.83.56,6.74,2.31,16.06,2.03,32.15,1.38,48.23.44,11.04-.64,22.08-1.48,33.1-2.49,16.67-1.53,33.32-3.29,49.98-4.97,10.48-1.06,20.95-2.24,31.43-3.2,14.95-1.37,29.83-3.26,44.72-5.13,16.28-2.04,32.37-4.81,48.36-8.42,5.6-1.26,10.65-4.02,16.18-5.38Z" style="fill: #595a5a; stroke-width: 0px;"/>
  <path d="M204.36,370.04c-15.54-1.67-28.88-7-36.46-21.92,2.67-3.51-.35-6.95-.18-10.47.28-5.97.35-6.36,6.08-4.96,2.53.62,3.68-.32,5.06-2.25,6.66-9.33,11.55-9.77,20.45-2.43,2.37,1.96,5.21,3.36,7.84,5.01,7.51,4.7,8.82,11.64,2.94,18.09-2.39,2.62-2.71,4.12-.02,6.66,3.79,3.57,3.28,6.09-1.21,9-1.56,1.01-3.66,1.27-4.5,3.27Z" style="fill: #142b43; stroke-width: 0px;"/>
  <path d="M219.94,287.74c-1.5,0-2.54-.7-3.13-2.07,0,0,.03-.04.03-.04,2.03-.81,3.81-1.25,3.13,2.06l-.03.04Z" style="fill: #303133; stroke-width: 0px;"/>
  <path d="M233.52,138.79c20.06-2.43,40.11-5.06,60.2-7.22,19.6-2.1,39.27-3.49,58.87-5.6,23.08-2.48,46.21-4.04,69.39-4.93,5.29-.2,10.72-.93,15.95.86-5.62,3.26-5.52,3.46-3.15,10.05,2.06,5.76,6.08,10.32,8.85,15.62.38.85.66,1.75,1.26,2.49,5.54.78,8.61,4.35,11.05,9.05,2.18,4.2,5.33,7.73,9.55,10.08,4.18,2.32,7.52,1.71,10.77-1.76,7.43-7.92,7.81-17.07,1.66-26.09-2.26-3.31-6.61-5.27-6.73-10.01,1.78-.09,2.61,1.55,3.99,2.18,11.34,11.95,14.62,27.1,16.89,42.64-.86,8.42-5.04,15.34-10.86,20.99-3.76,3.65-11.72,2.07-16.76-2.28-4.26-3.68-7.27-8.4-10.2-13.09-5.09-8.14-11.23-15.44-17.52-22.6-6.97-7.92-16.72-10.38-26.62-11.56-15.05-1.79-30.04,1.07-45.08,1.5-14.54.42-28.96,2.84-43.5,3.6-11.59.61-23.09,2.41-34.64,3.39-13.87,1.18-27.96,3.44-41.64-1.8-4.37-1.68-8.96-2.95-12.65-5.93-4.34-3.5-3.95-6.51.94-9.58Z" style="fill: #565759; stroke-width: 0px;"/>
  <path d="M233.52,138.79c-3.87,4.72-3.52,7.46,1.67,9.97,7.65,3.71,15.81,7.22,24.13,7.23,8.88,0,17.94.29,26.79-1.06,12.28-1.87,24.61-2.84,36.97-3.8,14.24-1.11,28.45-2.67,42.68-3.87,4.31-.36,8.66-.31,12.99-.22,6.08.12,12.05-1.83,17.97-1.63,16.39.55,32.65,1.33,44.26,16.33,6.76,8.74,13.25,17.64,19.62,26.66,2.11,2.99,4.34,5.96,7.72,7.49,8.55,3.89,12.9,2.32,16.98-6.37,2.13-4.54,5.68-8.34,6.79-13.37,3.09,5.93,1.62,12.61,3.07,18.81-2.38,8.53-6.35,16.31-11.28,23.62-4.47,6.63-10.39,7.41-16.58,2.17-3.91-3.31-6.74-7.54-8.91-12.03-2.88-5.95-7.25-10.25-12.1-14.6-4.67-4.2-8.38-9.6-11.92-14.87-3.54-5.28-8.73-8.77-13.86-11.36-10.28-5.18-20.97-8.4-33.36-6.87-8.46,1.05-17.47,1.15-26.15.77-9.1-.4-17.91,1.01-26.74,2.14-9.29,1.19-18.6.85-27.88,1.62-10.49.87-20.95,1.67-31.23,3.93-11.7,2.57-23.36.89-35.02-.03-4.42-.35-8.85-1.12-13.17-2.52-12.21-3.94-16.25-11.91-13.22-25.06,6.51-1.63,13.13-2.48,19.8-3.1Z" style="fill: #3f4042; stroke-width: 0px;"/>
  <path d="M471.19,131.34c2.51,3.05,5.25,5.94,7.5,9.17,8.02,11.49,5.9,20.69-2.64,29.14-3.55,3.51-8.48,3.29-13.21-.41-2.16-1.69-4.37-3.62-5.77-5.92-3.42-5.59-6.16-11.7-13.92-12.27,4.34-2.19,9.12-1.6,13.71-1.99,3.06-.26,4.01,2.17,4.23,4.86.2,2.42.25,4.86,1.24,7.14.45,1.04,1.16,1.74,2.4,1.52,1.32-.24,1.65-1.35,1.51-2.36-.58-4.29-.52-8.66-1.54-12.9-.47-1.98-1.86-3.14-3.78-2.82-6.07.99-12.59-.25-18.09,3.6-4.22-5.66-8.07-11.51-10.28-18.32-2.09-6.41-1.46-7.41,5.36-7.87,11.88.37,23.44,1.82,33.26,9.43Z" style="fill: #6e7379; stroke-width: 0px;"/>
  <path d="M474.3,300.23c1.53-2.72,4.32-2.29,6.43-1.8,2.21.51,1.37,3.2,1.6,4.93.54,4.1.74,8.24,1.22,12.35.33,2.83-.14,4.49-3.61,4.59-4.46.13-8.92.81-13.37,1.34-6.64.79-6.79.65-5.85-6.78,1.78-1.16,3.83-1.3,5.86-1.56,7.29-.93,7.5-1.16,7.1-8.67-.08-1.54-.43-3.05.62-4.4Z" style="fill: #aefafb; stroke-width: 0px;"/>
  <path d="M474.3,300.23c1.96,16.56,3.51,13.07-11.52,14.72-.67.07-1.37-.05-2.05-.09,6.4-3.14,11.34-7.63,13.57-14.63Z" style="fill: #243f59; stroke-width: 0px;"/>
  <path d="M375.24,670.29c.19,7.47,1.43,8.88,8.62,11.5,7.52,2.73,15.32,4.9,23.16,4.98,9.04.09,17.98-1.5,26.89-4.23,10.62-3.25,20.26-8.63,30.67-12.29,6.28-2.2,11.16-8.05,17.99-9.73,10.43-2.58,16.96-11.49,26.32-15.8,3.6-1.66,6.79-4.32,10.49-5.65,7.57-2.72,9.93-8.41,10.15-15.66.08-2.43.02-4.86.02-7.28,2.09,2.4,1.07,5.94,3.07,8.37.29,20.01.4,20.2-17.37,29.99-11.6,6.39-22.81,13.28-35.59,17.76-16.41,5.76-32.28,13.23-49.5,16.27-10.47,1.85-21.06,2.77-31.84-.31-7.81-2.23-15.46-4.8-23.11-7.44-.67-3.49-1.55-6.99.04-10.47Z" style="fill: #949496; stroke-width: 0px;"/>
  <path d="M208.48,534.97c1.13-1.85,1.72-4.17,4.54-5.03,3.9,23.37,18.48,39.93,34.91,55.32.49.46.81,1.09,1.22,1.64-.79-.27-1.77-.34-2.36-.85-13.32-11.46-27.14-22.45-35.6-38.43-1.43-2.7-2.69-5.83-6.74-5.29.25-.8.5-1.6.75-2.4,0-2.37.82-4.2,3.27-4.96Z" style="fill: #c1b7ba; stroke-width: 0px;"/>
  <path d="M208.48,534.97c-1.09,1.65-2.18,3.31-3.27,4.96,1.1-9.68-.27-19.89,5.45-28.61,1.43-2.18-.21-4.98,2.04-6.71.55,8.24-.14,16.22-3.95,23.8-.94,1.87-2.71,4.29-.28,6.56Z" style="fill: #6f96c8; stroke-width: 0px;"/>
  <path d="M216.94,500.45c2.82,1.71,4.17,4.61,5.6,7.33,8.22,15.58,16.25,31.29,26.57,45.64,5.13,7.13,11.26,13.6,15.93,21,5.18,8.23,11.74,15.35,17.09,23.4.74,1.11,1.88,2.49,1,3.81-1.23,1.85-2.82.17-4.21-.12-5.64-1.18-8.88-6.47-14.13-8.34-19.08-14.83-31.84-34.22-40.57-56.46-4.56-11.64-7.43-23.66-7.28-36.26Z" style="fill: #901b25; stroke-width: 0px;"/>
  <path d="M436.72,262.64c-2.81,2.43-5.9,2.89-8.98.76-9.96-6.89-21.79-9.01-33.11-11.22-5.96-1.17-13.43,1.06-19.2,5.58-6.36,4.98-13.47,8.78-21.22,11.26-5.96,1.9-9.88-1.27-13.08-5.53-3.82-5.08-5.3-11.17-6.46-17.3-.34-1.82.34-3.5,1.32-4.92,3.68-5.32,5.47-11.57,8.56-17.17,7.32-13.27,18.04-21.66,33.1-25.2,11.04-2.59,21.58-2.76,32.52,0,4.43,1.12,7.3,4.04,10.3,6.63,5.42,4.68,10.93,9.67,14.85,15.56,3,4.51,4.16,10.52,5.12,16.04,1.2,6.89,3.03,13.94.48,20.98-.75,2.08-1.22,4.51-4.21,4.55-1.41-1.58-1.22-3.54-1.27-5.44-.41-16.93-7.82-30.49-20.82-40.81-15.57-12.36-41.05-8.99-53.63,6.35-8.23,10.04-12.43,21.55-13.49,34.32-.16,1.98-.87,4.72,1.19,5.77,2.31,1.18,3.56-1.54,4.93-2.89,4.22-4.15,7.57-9.04,11.2-13.69,4.56-5.85,9.95-10.8,17.02-13.27,12.26-4.28,22.9-.79,32.13,7.7,4.85,4.46,8.63,9.95,13.45,14.49,2.91,2.75,5.77,5.49,9.3,7.43Z" style="fill: #263343; stroke-width: 0px;"/>
  <path d="M219.97,287.7c-.15-2.05-1.68-2-3.13-2.06,0-.68-.02-1.35-.03-2.03,3.17-.9,5.24-3,7.09-5.69,4.34-6.31,7.48-13.31,11.81-19.62,3.42-4.98,7.79-8.93,13.29-11.29,11.94-5.13,22.68-2.03,32.67,5.35,5.17,3.82,9.47,8.68,14.79,12.32,1.94,1.33,4.1,4.15,6.26,2.79,2.67-1.68.53-4.82-.15-7.1-4.33-14.51-12.14-26.81-25.89-33.74-23.15-11.66-49.15.7-57.02,26.2-2.67,8.66-2.75,17.41-2.39,26.28.06,1.51.82,3.1-.46,4.47-6.06-2.84-5.53-8.8-6.13-13.89-1-8.49.37-17.05,2.5-25.16,3.44-13.12,12.83-21.67,24.59-27.85,5.58-2.93,11.36-5.43,17.67-5.47,10.74-.07,21.54-1.27,31.65,4.67,14.93,8.77,23.22,21.86,26.39,38.35,2.59,13.47-7.05,21.82-20.54,19.09-5.81-1.18-10.87-4.59-16.61-5.25-16.64-1.91-31.83,1.49-44.47,13.39-3.3,3.1-7.56,4.84-11.87,6.26Z" style="fill: #253346; stroke-width: 0px;"/>
  <path d="M167.54,179.72c-.32-7.07-.32-7.03,6.68-7.71,4.13-.4,8.27-.85,12.38-1.42,2.34-.32,3.23.67,3.12,2.84-.09,1.68,1.16,4.04-2.17,4.12-1.37.03-2.72.51-4.09.66-8.63.94-8.53.92-7.98,9.65.13,2.04,2.14,5.1-1.44,6.05-2.89.76-5.81.82-5.68-3.83.1-3.44-.52-6.9-.82-10.35Z" style="fill: #b8fcfc; stroke-width: 0px;"/>
  <path d="M187.93,327.48c.45.01.91.02,1.36.03,2.78,1.98,2.67,5.15,2.75,7.92.12,4.24,2.22,5.35,5.93,4.96,1.19-.13,2.4-.19,3.59-.37,3.36-.5,5.84.17,5.76,4.29.35,2.63-.35,4-3.45,4.11-5.17.17-10.33.77-15.47,1.4-2.37.29-3.56-.32-3.81-2.8-.63-6.17-1.39-12.33-2.1-18.5,1.61-1.4,3.77,0,5.45-1.05Z" style="fill: #c9fafc; stroke-width: 0px;"/>
  <path d="M207.32,344.32c-.79-1.81-1.16-3.87-4.13-3.16-3.65.87-8.12,2.29-11.01.43-3.15-2.03-1-7.03-2.14-10.57-.36-1.13-.5-2.34-.75-3.51,4.12-.23,4.2,3.51,5.4,5.85,1.45,2.83,2.97,4.39,6.49,4.64,3.26.23,8.42.07,6.14,6.31Z" style="fill: #20486f; stroke-width: 0px;"/>
  <path d="M187.93,327.48c-1.82.35-3.63.7-5.45,1.05,1.52-1.89,3.53-1.22,5.45-1.05Z" style="fill: #20486f; stroke-width: 0px;"/>
  <path d="M442.85,148.09c.11-1.76.13-3.52,2.67-3.54,1.2,0,2.41-.56,3.59-.5,5.5.29,12.74-4.06,15.9-.29,3.2,3.82,2.18,11.18,2.98,16.99.3,2.14-.03,3.8-2.81,3.78-2.19-.02-4.75.83-4.65-2.87.02-.85-.29-1.71-.41-2.57-1.25-8.62-1.25-8.6-10.22-8.09-2.24.13-4.5.03-6.75.04-.1-.98-.2-1.97-.3-2.95Z" style="fill: #c2fbfc; stroke-width: 0px;"/>
  <path d="M436.72,262.64c-3.59,1.17-5.51-1.52-7.48-3.53-5.57-5.71-10.78-11.77-16.42-17.4-8.06-8.07-17.71-11.16-28.96-8.11-5.68,1.54-10.29,4.84-14.23,9.1-6.12,6.62-10.82,14.43-17.31,20.75-1.26,1.22-2.54,2.82-4.42,2.01-1.51-.65-1.75-2.55-1.74-4.08.15-18.03,5.46-34.29,20.11-45.4,21.42-16.25,50.43-8.76,63.21,15.34,5.19,9.8,8.64,20.02,7.21,31.35,0,0,.02-.03.02-.03Z" style="fill: #b5fefe; stroke-width: 0px;"/>
  <path d="M216.79,283.57c-3.29-19.3-.43-37.17,13.95-51.42,15.27-15.13,40.39-14.99,56.05-.26,9.19,8.65,15.27,19.18,18,31.56.47,2.14,1.46,4.83-.52,6.24-2.18,1.55-4.26-.59-5.97-1.94-4.9-3.85-9.67-7.85-14.48-11.82-6.62-5.47-13.49-10-22.66-10.12-10.58-.14-18.29,4.76-23.97,12.97-5.21,7.53-9.66,15.59-14.54,23.36-1.37,2.18-3.14,3.97-5.84,1.47,0,0-.02-.04-.02-.04Z" style="fill: #c1fefe; stroke-width: 0px;"/>
</svg>