<?xml version="1.0" encoding="UTF-8"?>
<svg id="Layer_1" data-name="Layer 1" xmlns="http://www.w3.org/2000/svg" viewBox="0 0 1016.09 1172.2">
  <path d="M195.38,776.03c2.48-3.35,4.96-6.69,7.44-10.04,3.75-8.44,12.35-11.92,18.36-18.07,3.63-1.89,6.23-6.91,11.52-3.86.08,8.68-4.59,15.89-7.31,23.71-11.93,13.17-18.85,28.9-20.21,46.29-1.31,16.76-1.41,33.72,1.57,50.5,4.14,23.27,15.58,33.36,38.7,29.56,33.47-5.49,65.99-15.12,94.33-34.71,22.43-15.5,37.22-36.52,41.43-64.11.78-5.11-1.25-11.06,4.18-14.89,3.04-1.26,5.26.62,7.28,2.25,9.39,7.59,16.84,16.97,23.98,26.6.88,1.18,1.45,2.57.77,4.12-1.74,2.41-2.93,5.06-3.62,7.95-8.75,36.53-31.1,63.44-61.71,83.37-22.89,14.91-46.46,28.93-70.85,41.4-10.12,5.17-20.62,7.98-32.24,8.5-17.67.78-33.62,7.95-48.48,17.31-7.44,4.68-14.09,10.56-22,14.53-14.78,7.42-29.9-1.57-30.51-18.19-.14-3.89-.36-7.83.76-11.66,2.2-6.99,5.37-13.62,7.8-20.52,3.12-8.87,2.22-11.78-5.82-16.89-3.13-1.99-4.26-4.49-3.78-7.97.1-.73.2-1.46.44-2.15,11.24-32.03,20.22-64.74,29.71-97.3,3.76-12.91,11.23-24.3,18.25-35.74Z" style="fill: #e7a130; stroke-width: 0px;"/>
  <path d="M474.57,1059.66c5.69-12.65,14.83-22.89,23.82-33.09,25.66-29.14,51.78-57.88,77.47-87,3.86-4.37,9.38-8.16,9.13-15.17.56-2.88.99-5.96,2.9-8.2,5.4-6.36,4.5-13.38,1.61-20.01-7.03-16.12-15.73-31.35-26.46-45.35-1.58-1.69-2.79-3.55-2.61-6,3.05-5.9,6.55-2.47,9.39-.08,4.85,4.09,9.28,8.59,15.14,11.44,6.23,3.03,11.9,2.85,18.18-.14,10.19-4.86,19.94-10.43,29.31-16.65,15.47-10.28,31.08-20.31,46.87-30.08,6.05-3.75,12.61-5.3,19.51-5.55,9.18-.32,14.64,5.2,17.55,13.05,6.15,16.56,11.59,33.66,10.98,51.36-.71,20.57-11.72,36.95-26.62,50.53-19.35,17.64-39.84,33.88-61.76,48.24-36.98,23.87-75.06,45.61-116.08,62.03-15.64,6.26-30.63,14.19-41.89,27.48-1.4,1.66-3.07,3.18-5.42,3.52-.34-.11-.69-.22-1.04-.34Z" style="fill: #d13a4e; stroke-width: 0px;"/>
  <path d="M149.94,956.86c-.02,4.4-.26,8.81-.03,13.2.67,12.97,14.39,21.32,25.86,15.59,5.21-2.6,10.44-5.48,14.97-9.11,15.4-12.36,33.1-19.38,52.13-23.55.95-.21,1.93-.6,2.86-.51,22.05,1.97,39.17-10.15,56.91-20.15,14.64-8.25,29.07-16.9,43.3-25.85,32.73-20.58,57.02-47.75,66.31-86.42.66-2.76-.09-6.88,4.68-7.11,3.12.18,4.71,2.63,6.17,4.74,5.6,8.15,12.87,15.45,14.09,25.99-2.18,3.86-3.45,8.05-4.73,12.27-9.42,31.16-27.36,56.64-52.58,76.9-31.27,25.11-62.81,49.93-97.21,70.71-12.11,7.32-24.71,13.98-38.28,18.36-4.43,1.43-9.25,2.78-11.88-3.21-.44-2.66.58-5.06,1.31-7.52,2.47-7.92,5.98-15.51,7.8-23.64,1.61-7.21.16-8.72-6.79-7.1-14.56,3.4-27.23,9.84-38.04,20.67-20.56,20.58-39.33,42.74-58.74,64.34-11.09,12.34-22.62,24.34-35.91,34.45-2.53,1.92-5.19,3.68-8.07,5.03-8.92,4.17-13.1,1.46-13.2-8.5,12.16-24.94,24.33-49.89,36.49-74.83-1.07-2.64.49-4.73,1.53-6.87,8.71-17.97,18.34-35.5,26.29-53.84.77-1.78,1.72-3.53,3.7-4.32.36.09.71.19,1.07.28Z" style="fill: #e7c15a; stroke-width: 0px;"/>
  <path d="M650.89,69.39c2.91-6.57,6.8-12.48,11.91-17.55,21.42-17.19,46.42-24.58,73.33-26.76,20.48-3.57,40.56-.96,60.49,3.93,2.81.69,5.74,1.16,8.05,3.14,2.39,3.52,6.45,4.26,9.98,5.76,20.01,8.53,38.28,19.55,52.96,35.97,11.87,13.28,18.03,28.46,15.68,46.38-1.91,14.55-10.71,25.03-21.96,33.42-18.28,13.64-39.71,18.75-61.89,20.33-21.82,1.56-43.46-.82-64.59-6.79-4.37-1.24-8.69-.76-13.05-.44-7.76-1.04-14.61-4.61-21.57-7.87-8.22-5.24-16.92-9.78-24.31-16.23-17.28-15.07-28.44-33.17-28.48-56.96-.01-5.8,2.9-10.77,3.46-16.33Z" style="fill: #e65261; stroke-width: 0px;"/>
  <path d="M286.52,1106.49c-1.49.38-2.29,2.32-4.15,1.86-2.94-2.75-3.17-3.78.68-7.24,6.73-6.05,13.66-11.91,19.93-18.41,13.87-14.4,28.68-28.01,36.4-47.33,2.98-7.45,4.31-15.08,5.1-22.79.73-7.18,2.62-13.9,5.1-20.55,1.11-2.64,3.45-3.97,5.67-5.52,17.91-12.54,34.16-26.83,47.14-44.59,2.29-3.13,4.31-6.59,8.09-8.3,3.05-1.06,6.25-.69,9.38-.97,14.66-1.34,27.28-6.55,36.39-18.69,1.47-1.96,3.21-3.66,5.76-4.21,3.41-.56,6.65.3,9.82,1.31,2.05.65,4.25,1.53,2.88,4.51-10,21.96-19.65,44.09-31.45,65.18-21.67,38.72-53.88,66.99-90.29,91.08-9.55,6.31-19.12,12.6-29.63,17.29-12.71,4.86-25.18,10.22-36.81,17.36Z" style="fill: #c00939; stroke-width: 0px;"/>
  <path d="M546.65,846.6c-1.04-4.54,1.37-8.71,1.46-13.12.46-.04.92-.12,1.36-.25,10.63-1.83,19.39-7.78,28.33-13.16,43.53-26.19,86.62-53.15,131.64-76.77,2.81-1.48,5.68-2.83,8.65-3.99,5.92-2.33,11-1.57,14.96,3.79,2.02,9.48,6.64,18.67,3.31,28.76,3.49,9.95,4.03,20.48,5.65,30.75,3.24,20.49,7.58,40.81,9.56,61.51,2.64,27.68,1.87,54.73-14.39,78.87-5.44,8.07-11.45,15.77-19.65,21.37-9.28,6.11-19.93,9.04-30.1,13.1-23.86,9.53-47.2,20.28-70.89,30.22-18.49,7.76-37.19,15.01-55.8,22.46-.68.27-1.38.51-2.1.67-2.12.48-4.93,1.64-5.92-.82-1.04-2.59,2.04-3.47,3.81-4.46,11.76-6.58,24.34-11.46,36.35-17.53,39.99-20.22,79.3-41.58,115.24-68.6,8.4-6.32,16.74-12.76,22.67-21.69,8.73-11.33,11.92-24.31,12.23-38.42.72-32.41-6.37-63.66-13.99-94.77-4.5-18.35-16.2-23.31-33.35-14.57-18.96,9.67-37.22,20.61-55.16,32.06-12.98,8.29-25.79,16.82-38.51,25.52-11.16,7.64-22.78,14.44-37.42,11.79-5-.9-3.69,3.01-3.31,5.82.96,1.47,1.93,2.95,2.89,4.42,1.16,1.59,1.93,3.39,2.8,5.14,1.35,2.71,2.86,5.69.1,8.02-2.62,2.21-5.16-.12-7.18-1.69-5.23-4.04-10.27-8.32-13.25-14.44Z" style="fill: #b2191a; stroke-width: 0px;"/>
  <path d="M1013.75,216.18c-4.73-12.11-7.38-24.95-12.98-36.75-5.42-7.23-8.32-15.81-12.67-23.61-5.69-10.2-12.3-19.77-19.46-28.98-2.22-2.86-4.64-5.66-5.26-9.44-.75-4.73-3.26-8.71-5.8-12.56-4.66-7.05-5.43-14.44-3.13-22.43,2.64-9.17,5.56-18.26,8.94-27.16,3.57-9.41,5.3-19.33,8.64-28.76.97-2.74,1.31-7.37,6.55-5.59,10.26,11.22,14.01,25.58,18.19,39.48,14.24,47.47,18.79,96.24,18.21,145.61-.04,3.4-.79,6.79-1.21,10.19Z" style="fill: #b31a18; stroke-width: 0px;"/>
  <path d="M80.86,1096.45c3.5,10.14,6.62,11.25,16.07,4.89,15.51-10.43,27.85-24.37,40.53-37.84,8.82-9.36,16.9-19.43,25.29-29.19,11.46-13.33,24.16-25.47,36.46-37.99,10.96-11.15,25.17-15.37,39.7-18.73,5.38-1.24,5.97,2.75,5.22,6.86-1.71,9.35-5.06,18.16-8.92,26.81-3.82-.82-7.02.31-10.32,2.39-18.7,11.76-35.6,25.85-51.71,40.8-31.33,29.07-62.28,58.54-92.23,89.05-5.11,5.21-11.74,8.78-16.29,14.63-6.42,4.69-12.83,9.39-19.25,14.08l-1.2-.92c12.21-24.94,24.42-49.89,36.64-74.83Z" style="fill: #e8cd85; stroke-width: 0px;"/>
  <path d="M351.14,992.06c-3.68,10.1-4.23,20.8-6.2,31.24-2.59,13.72-9.01,25.99-18.3,36.71-12.89,14.88-26.49,29-41.55,41.71-1.58,1.34-6.33,2.64-2.74,6.63-9.98,5.83-19.97,7.41-30.22.51-4.82-3.24-6.66-7.38-5.56-13.13,1.79-9.34,6.57-17.3,11.54-25.09,6.83-10.69,14.09-21.1,21.17-31.64.78-2.85,3.05-4.4,5.39-5.69,20.36-11.15,38.64-25.46,57.96-38.16,2.53-1.66,4.86-4.33,8.51-3.09Z" style="fill: #d82a4e; stroke-width: 0px;"/>
  <path d="M45.35,784.86c-9.76,15.15-19.82,30.08-32.49,43.02-1.94,1.98-4.17,4.65-7.5,3.34-2.7-1.07-2.49-3.91-2.61-6.35-2.14-6.16,1.31-10.8,4.22-15.6,7.24-15.16,15.45-29.81,23.26-44.68,15.95-26.65,30.5-54.13,47.75-80,1.49-2.24,3.09-4.41,4.51-6.69,10.94-17.48,27.27-24.34,47.23-24.31,20.8.04,41.59-.01,62.39.01.49,0,.98,0,1.47.03,11.16.43,12.6,1.63,15.07,12.54.59,2.47.54,5,.73,7.52,1.09,8.18,3.59,16.41-.89,24.38-25.05-.43-50.11-2.13-75.14.18-6.74.62-13.4,2.1-20.09,3.19-6.57-10.58-5.65-26.68,2.43-35.56-6.74.39-11.92,3.01-16.52,7.11-5.53,4.94-10.01,10.76-14.02,16.93-22.71,34.88-44.64,70.24-64.49,106.84-1.99,3.66-3.81,7.37-4.4,12.27,3.72-.43,5.64-2.93,7.52-5.19,4.87-5.84,10.8-10.67,15.44-16.73,1.43-1.87,3.2-3.97,6.15-2.27Z" style="fill: #d2294b; stroke-width: 0px;"/>
  <path d="M233.57,1018.49c2.48,4.28,6.04,3.19,9.62,1.91,19.21-6.84,36.92-16.59,53.79-27.92,30.13-20.24,59.33-41.84,86.94-65.29,23.45-19.91,39.92-45.27,47.9-75.47.83-3.13,1.32-6.23,4.44-7.98,1.78.49,2.59,1.84,3.08,3.47.62,2.78.37,5.62.55,8.43-1.63,11.79-1.95,23.87-7.48,34.83-1.96,1.38-4.02,2.52-5.24,4.89-12.94,25.28-31.4,45.76-53.77,63.14-38.45,29.88-76.79,59.89-118.72,84.88-7.8,4.65-15.9,8.72-24.55,11.47-3.06.97-7.22,3.07-8.45-2.7.52-1.87,1.04-3.74,1.57-5.61-1.47-7.84,3.82-13.99,5.4-21.07.61-2.73.83-6.41,4.92-6.98Z" style="fill: #e7cd84; stroke-width: 0px;"/>
  <path d="M978.58,20.9c-5.65,1.79-5.42,7.32-6.28,11.38-3.09,14.59-8.77,28.3-13.51,42.31-3.95,11.68-5.83,22.44,2.67,33.01,2.3,2.87,4.49,6.52,3.6,10.8-6.45-1.69-9.17-7.91-14.02-11.54-10.08-11.48-22.52-20.51-32.93-31.65-4.09-7.56-9.69-14.09-14.38-21.24-4.02-6.12-5.54-12.53-3.1-19.49,7.45-21.27,17.08-31.38,40.09-31.34,14.82,1.25,28.32,5.3,37.87,17.77Z" style="fill: #d8252c; stroke-width: 0px;"/>
  <path d="M195.38,776.03c.6,5.23-3.31,8.55-5.55,12.46-10.2,17.8-15.36,37.34-20.27,57-5.21,20.87-12.72,41.01-19.58,61.35-1.96,5.8-2.7,9.97,4.86,12.24,6.83,2.04,6.38,8.75,4.91,13.65-2.48,8.28-5.3,16.6-9.82,24.14,0,0-.4-.28-.4-.28-6.25-3.54-10.6.06-14.83,3.99-11.09,10.28-20.39,22.18-30.13,33.68-1.57,1.86-2.87,4.03-5.06,5.18-3.35,1.76-6.17,1.79-6.85-2.94,18.43-43.81,39.53-86.46,57.13-130.63,7.66-19.22,12.77-39.45,22.96-57.67,6.43-11.5,13.26-22.73,22.63-32.16Z" style="fill: #e7c15a; stroke-width: 0px;"/>
  <path d="M919.75,75.25c-11.19-7.5-22.38-14.99-33.57-22.49-7.64-8.54-17.34-14.28-27.5-18.96-22.07-10.17-45.46-14.1-69.72-12.93-6.82-1.14-14.18,1.67-20.55-2.79,32.79-9,66.21-14.48,100.08-16.97,22.92-1.69,45.88-1.5,68.77.92,1.17.12,2.29.73,3.43,1.11-24.31,4.29-34.5,13.87-39.09,35.95-1.13,5.45,1.14,9.36,3.57,13.57,4.48,7.78,11.37,14,14.57,22.6Z" style="fill: #e41848; stroke-width: 0px;"/>
  <path d="M45.35,784.86c-7.58,5.33-13.01,12.84-19.41,19.35-3.39,3.45-8.07,9.75-10.84,7.62-4.24-3.26.53-9.37,2.68-13.45,7.36-13.99,15.34-27.66,23.38-41.27,14-23.7,28.26-47.27,43.8-70,7.17-10.48,14.56-21.01,28.66-23.04,2.3-.33,2.29-.41,6.94,1.65-16.51,6.93-7.6,19.94-8.21,30.73-.09,1.65.58,3.33.9,5-13.92,6.37-22.29,18.39-30.71,30.31-12.46,17.65-24.79,35.4-37.18,53.11Z" style="fill: #ce1829; stroke-width: 0px;"/>
  <path d="M233.57,1018.49c-3.44,9.35-6.88,18.7-10.32,28.05-10.65,2.79-19.16,9.52-27.86,15.66-42.38,29.92-82.54,62.85-125.12,92.5-1.79,1.25-3.73,2.28-5.61,3.41.54-4.69,4.4-7.12,7.51-9.48,8.23-6.25,14.95-14.01,22.3-21.13,20.15-19.54,39.82-39.6,60.41-58.67,22.29-20.65,44.42-41.62,70.58-57.59,3.23-1.97,6.51-5.4,9.76,0-.55,2.41-1.09,4.83-1.64,7.24Z" style="fill: #e9d4b1; stroke-width: 0px;"/>
  <path d="M8.63,809.62c-1.32,5.33-7.41,8.82-5.88,15.25-2.18-9.6-2.21-19.41-2.47-29.14-1.26-47.58,1.59-94.88,11.43-141.55,4.91-23.26,11.82-45.93,25.16-66,14.58-21.92,36.01-34.43,60.22-42.96,33.52-11.82,68-20.26,102.32-29.28,15.61-4.1,31.13-8.56,46.71-12.76,1.6-.43,3.37-.2,5.06-.28-.95,1.93-1.9,3.86-2.85,5.78-5.17,4.22-11.71,4.65-17.77,6.31-40.79,11.14-82.08,20.49-122.22,33.94-13.29,4.45-25.83,10.39-37.33,18.49-23.56,16.59-36.19,40.46-44.81,67.02-7.19,22.17-11.94,44.91-14.63,68.01-1.21,10.39-2.13,20.9-2.17,31.4-.08,23.4-.65,46.8-.22,70.2-.23,1.84-.82,3.66-.57,5.56Z" style="fill: #e52d7a; stroke-width: 0px;"/>
  <path d="M221.68,1052.16c3.11,4.02,6.53,1.72,9.85.43,23.19-9.01,43.14-23.54,63.4-37.47,25.45-17.49,49.67-36.66,74.18-55.44,23.52-18.02,43.32-39.06,56.89-65.64.78-1.53.53-5.6,4.48-3.37,2.35,5.22-1.35,9.31-2.67,13.81-.82,2.79-1.91,5.55-3.33,8.13-5.04,7.12-7.05,16.22-14.2,21.97-15.95,23.03-36.28,41.56-59.15,57.47-17.85,9.97-33.35,23.45-50.82,33.98-7.05,4.25-14.03,8.64-21.03,12.96-9.65,1.7-17.48,7.71-26.39,11.22-9.11,3.59-18.44,6-27.96,7.84-6.33,1.22-5.77-1.94-3.25-5.9Z" style="fill: #e8d1a4; stroke-width: 0px;"/>
  <path d="M731.71,918.62c-4.47,9.77-13.38,15.36-21.36,21.47-27.01,20.64-56.41,37.48-86.2,53.77-21.05,11.51-42.9,21.3-64.32,32.01-2.15,1.07-4.23,2.27-5.8,4.72,11.93-4.61,23.88-9.18,35.8-13.84,36.8-14.39,72.2-32.16,109.46-45.48,6.12-2.19,11.91-5.3,18.26-6.91-9.56,9.29-20.76,16.36-31.89,23.52-2.18,1.4-4.29,2.89-6.44,4.34-43.6,12.75-86.62,27.17-128.3,45.34-1.13.49-2.18,1.1-3.19,1.79-20.36,8.6-40.98,16.44-62.4,22.07-6.83-1.97-7.17-3-2.59-7.67,3.5-3.57,7.79-5.85,12.42-7.59,33.69-12.64,66.61-27.12,98.96-42.78,26.62-12.89,52.37-27.54,77.36-43.44,19.08-12.14,38.49-23.82,55.14-39.38,1.38-1.29,2.83-2.81,5.1-1.96Z" style="fill: #bc142e; stroke-width: 0px;"/>
  <path d="M92.67,996.49c4.36,5.69,7,1.25,9.46-1.83,9.97-12.5,20.23-24.73,31.74-35.88,2.52-2.44,5.33-4.23,8.5-5.48,3.37-1.33,6.2-.9,7.17,3.29-9.71,19.75-19.4,39.51-29.12,59.26-.96,1.95-2.04,3.85-3.07,5.77-9.9,1.77-18.72,6.67-28.18,9.74-4.35,1.41-8.62,3.08-14.73,5.29,6.3-14.52,11.53-27.64,18.22-40.15Z" style="fill: #e9d2a4; stroke-width: 0px;"/>
  <path d="M208.48,698.08c.79-8.38-.19-16.69-1.06-25,2.24-2.23,2.37-5.31,2.98-8.09,4.83-22.35,19.76-34.36,40.87-39.93,8.76-2.31,17.77-2.66,26.8-2.21,2.69.14,5.39.34,7.17,2.83.94,4.59-1.4,7.67-4.73,10.3-3.24,1.4-6.71,1.22-10.06.99-8.79-.59-16.58,2.02-24.5,5.68-13.58,6.28-19.49,19.51-18.38,34.92.51,7.06,2.59,13.83,3.88,20.75-2.88,7.63-10.34,11.4-14.91,17.62-.66.37-1.32.37-1.98-.01-2.36-5.84-2.89-12.3-6.08-17.85Z" style="fill: #a0919c; stroke-width: 0px;"/>
  <path d="M546.65,846.6c4.42,4.14,8.67,8.5,13.35,12.32,1.68,1.37,3.88,4.3,6.12,2.87,2.46-1.58.25-4.4-.34-6.64-.49-1.87-1.06-3.72-1.59-5.58,12.24,16.17,23.02,33.2,29.02,52.74,2.79,9.09-4.27,15.15-8.22,22.08-7.51-13-14.55-26.28-23.7-38.26-1.5-4.73-4.58-8.61-7.62-12.28-6.71-8.11-8.4-17.21-7.03-27.25Z" style="fill: #c21a2c; stroke-width: 0px;"/>
  <path d="M546.58,1037.61c22.67-10.29,46.16-18.53,69.25-27.77,15.12-6.05,30.8-10.14,46.73-13.32,5.64-1.12,10.28-6.07,16.66-4.3-30.49,19.2-63.14,34-96.58,47.19-2.68,1.06-5.4,2-8.09,3-4.26-8.6-4.62-8.62-14.89-5.84-4.23,1.14-8.43,4.47-13.07,1.04Z" style="fill: #c41233; stroke-width: 0px;"/>
  <path d="M546.58,1037.61c7.27.53,13.5-3.55,20.45-4.8,7.05-1.27,8.19.81,7.48,6.68-.12.96.01,1.95.03,2.92-24.45,10.5-49.87,18.22-75.26,26.03-5.59,1.72-11.26,3.22-16.94,4.62-9.08,2.24-11.84-.5-9.7-9.58.32-1.35,1.26-2.55,1.91-3.82l.48.34c3.29.52,6.57,1.07,9.8-.31,12.08-2.25,23.26-7.3,34.65-11.59,9.06-3.41,18.77-5.18,27.08-10.49Z" style="fill: #d13a4e; stroke-width: 0px;"/>
  <path d="M214.57,715.93c.4.04.76-.07,1.07-.33,6.32-7.28,14.88-9.5,23.93-10.4,2.84-.28,5.88-.36,7.92,2.4,1.34,4.86-1.41,8.26-4.17,11.66-9.72,6-16.55,14.21-19.41,25.46-.42,1.64-.84,3.33-2.2,4.53-6.29,5.58-12.58,11.17-18.87,16.75-5.37-16.05-3.24-30.94,7.02-44.52,1.46-1.93,3.14-3.7,4.72-5.55Z" style="fill: #100907; stroke-width: 0px;"/>
  <path d="M286.52,1106.49c10.33-9.91,23.2-14.42,36.81-17.36-11.65,7.1-23.88,12.99-36.81,17.36Z" style="fill: #d82a4e; stroke-width: 0px;"/>
  <path d="M515.65,482.2c-1.65,1.63-1.24,3.81-1.52,5.8-1.75,13.63-8.35,25.54-14.47,37.35-20.57,39.74-43.01,78.45-65.91,116.89-2.38,3.99-5.1,7.76-7.92,11.46-8.89,11.66-15.91,13.26-29.05,6.55-3.25-1.6-6.5-3.19-9.74-4.81-10.16-5.07-10.22-5.13-17.25,3.26-4.49,5.36-8.77,10.91-13.14,16.37-3.35,7.69-9.52,13.28-14.64,19.65-7.71,9.74-16.03,18.97-23.65,28.79-2.53,3.07-5.46,5.8-7.84,9.01-3.08,2.11-5.15,5.14-7.33,8.08-10.72,11.71-21.37,23.48-32.87,34.45-5.52,5.26-11.42,9.98-18.5,12.96-3.65,1.54-7.41,2.69-11.11-.04-.48-1.58.24-2.89,1.07-4.1,14.19-20.59,24.57-43.37,37.15-64.89,14.68-25.13,29.36-50.27,43.42-75.77,16.18-29.34,32.31-58.71,50.45-86.94,9.06-14.11,20.2-26.33,31.81-38.22,3.94-4.04,7.78-8.13,11.04-12.74,7.49-10.58,17.59-17.56,29.85-21.44,10.51-3.32,21.22-5.85,32.13-7.51,6.21-.94,12.27.51,18.09,2.13,5.54,1.54,10.43,1.95,15.35-1.48,1.51-1.05,3.49-2.02,5.34-.19.94,1.96.96,3.8-.75,5.39Z" style="fill: #ae2425; stroke-width: 0px;"/>
  <path d="M474.82,886.62c-2.52,5.57-5.14,11.08-9.07,15.85-5.17,1.37-4.33-2.63-4-5.08.96-7.31-.36-14.39-1.49-21.5-4.37-22.47-16.22-41.24-29.42-59.33-15.54-21.31-34.32-39.41-55.12-55.52-2.84-2.2-6.14-4.2-7.06-8.16-.55-2.98.14-5.82.97-8.64,4.1-13.93,4.05-28.39,5.5-42.66.41-4.05-1.92-7.44-3.35-11.06-.93-2.36-3.16-5.41,1.33-6.91,48.31,25.62,87.43,60.69,112.93,109.77,4.85,9.34,7.58,19.36,9.14,29.72-13.94,11.84-15.87,28.28-17.02,44.93-.44,6.35-1.31,12.56-3.33,18.59Z" style="fill: #090809; stroke-width: 0px;"/>
  <path d="M553.81,827.33c4.19-17.24,14.4-31.29,24.43-45.33,17.58-24.6,40.93-43.29,64.23-62.08,12.66-10.21,25.9-18.78,41.7-23.31,16-4.59,31.25.17,40.82,13.48,3.47,4.82,4.24,10.26,3.8,16.01-14.29,1.9-25.8,10-37.4,17.47-38.36,24.72-77.23,48.6-116.61,71.64-4.86,2.84-9.42,6.08-13.98,9.35-2.02,1.45-3.77,4.11-6.98,2.78Z" style="fill: #805c76; stroke-width: 0px;"/>
  <path d="M553.81,827.33c26.45-19.28,55.67-34.08,83.19-51.64,22.39-14.29,45.01-28.23,67.53-42.31,4.99-3.12,10.39-5.34,15.84-7.53,2.98-1.19,5.65-1.21,8.42.23.97,3.43,1.94,6.87,2.91,10.3,0,1.98,0,3.95,0,5.93-6.38-4.66-12.25-1.94-18.28,1.02-27.81,13.64-53.79,30.48-80.69,45.72-25.2,14.28-48.79,31.3-75.02,43.77-2.35,1.12-5.31,5.04-8.23.39,1.45-1.97,2.89-3.93,4.34-5.9Z" style="fill: #86110f; stroke-width: 0px;"/>
  <path d="M373.11,683.61c-2.98,3.15.04,5.37,1.36,7.69,2.64,4.63,3.24,9.19,2.48,14.63-1.51,10.78-1.37,21.75-3.63,32.5-1.09,5.2-3.9,10.08-3.15,15.64-1.77.82-3.38.16-4.76-.82-6.69-4.78-13.6-9.25-20.41-13.84-1.25-.84-2.04-2.05-2.08-3.64,3.1-14.15,4.82-28.23-1.96-41.91,5.24-6.27,10.47-12.53,15.71-18.8,5.31,3.19,11.75,4.2,16.46,8.54Z" style="fill: #2c2725; stroke-width: 0px;"/>
  <path d="M474.82,886.62c1.76-20.16,0-41.06,12.78-58.88,1.99-2.77,3.87-5,7.58-4.64.44.04.88.09,1.31.16,1.62,14.53-1.44,27.96-9.19,40.4-4.61,7.39-7.16,15.93-12.48,22.95Z" style="fill: #3a3436; stroke-width: 0px;"/>
  <path d="M515.65,482.2c-.04-1.91-.08-3.82-.11-5.73-2-2.42-1.83-4.88-.15-7.37,4.11-.09,3.17,3.25,3.78,5.54.11,3,.21,6.01.1,9.01-.24,2.14-.23,4.38-2.09,5.95-.45,0-.91-.02-1.36-.04-.05-2.45-.1-4.91-.16-7.36Z" style="fill: #a9a7b0; stroke-width: 0px;"/>
  <path d="M7.4,805.48c0-25.1-.91-50.25.2-75.31,1.92-43.35,9.15-85.69,28.68-125.14,12.77-25.79,33.39-42.89,59.51-53.52,30.56-12.44,62.8-19.52,94.57-28.02,19.27-5.15,38.65-9.89,57.98-14.81-4.61,14.59-9.2,29.19-13.83,43.78-9.87,31.11-17.38,62.86-25.58,94.42-.36,1.4-.28,2.92-.4,4.38.81,5,2.03,10.05-1.57,14.58-.31-9.79-7.16-10.21-14.45-10.2-21.27.03-42.55-.34-63.82.09-13.8.28-27.31,2.48-37.13,13.84-8.16,9.44-14.81,19.98-21.18,30.64-12.39,20.73-24.37,41.7-36.58,62.53-.71,1.22-1.9,2.16-2.86,3.23-2.47-5.02.97-8.96,2.76-12.96,6.97-15.63,14.45-31.04,21.03-46.85.85-2.03,1.51-4.18,2.61-6.06,11.51-19.67,7.2-39.06-1-58.33-4.12-9.69-12.4-10.57-18.36-1.77-6.23,9.19-9.8,19.69-12.95,30.24-7.31,24.52-9.42,49.8-11.61,75.19-1.43,16.61,2.43,33.23-1.37,49.62-.85,3.66-.17,8.28-4.66,10.42Z" style="fill: #eb6e91; stroke-width: 0px;"/>
  <path d="M517.36,474.81c-.34-1.97.39-4.21-1.45-5.81-2.67-1.39-3.26-4.51-5.36-6.38-1.45-1.62-2.95-3.19-4.71-4.49-1.67-1.72-5.06-1.82-4.97-5.2,5.79.98,7.28-2.79,8.79-7.31,7.81-23.46,5-45.64-7.38-66.83-.69-1.19-.76-2.75-1.11-4.13,3.46-.24,5.03,2.6,7.19,4.45,7.98,6.84,16.05,13.54,25.51,18.33,6.4,3.78,13.64,6.03,19.57,10.68,4.53,5.69,10.86,8.98,16.92,12.6,7.58,4.52,14.7,9.62,20.77,16.07,8.48,9.01,9.82,21.12,2.99,31.47-6.31,9.57-12.88,18.98-19.5,28.32-10.29,14.53-23.41,15.43-37.21,3.28-8.15-7.18-14.22-16.02-20.05-25.05Z" style="fill: #dad8da; stroke-width: 0px;"/>
  <path d="M552.45,408.91c-6.44-3.38-12.88-6.76-19.33-10.13-13.13-11.05-25.06-23.14-35.64-36.77-16.42-21.17-21.56-44.92-18.7-70.97.94-11.96,4.43-23.11,10.61-33.4,4.01.63,2.44,3.41,1.83,5.41-1.04,3.41-2.33,6.75-3.47,10.14-.62,1.68-1.18,3.38-1.66,5.11-.89,2.39-.76,4.9-.86,7.38-4.06,28.42,3.72,52.97,23.95,73.45,3.77,3.81,7.49,7.67,11.47,11.27,6.85,5.84,14.35,10.64,22.73,13.99,18.44,9.02,37.74,10.25,57.98,8.38,17.45-1.61,34.58-3.85,50.83-10.38,27.78-11.16,50.21-28.55,61.89-57.09,11.3-27.59,8.57-54.56-4.95-80.8-1.43-2.77-4.85-5.38-2.14-9.23,4.6-.12,6.52,3.64,8.83,6.48,3.94,4.86,7.11,10.28,10.01,15.84,6.1,12.45,11.21,25.21,11.98,39.29-.14,1.14-.5,2.19-1.23,3.08-2.21.45-2.94,1.68-3.06,4.06-1.84,35.19-21.28,59.33-49.44,77.74-15.05,9.84-31.67,16.31-48.93,21.17-5.21,1.47-10.14,3.59-14.78,6.32-7.71,4.54-15.71,7.83-24.9,7.4-3.73-.18-7.27.8-10.31,3.14-.68.35-1.4.58-2.16.7-10.61-2.72-21.41-4.97-30.56-11.57Z" style="fill: #cd2231; stroke-width: 0px;"/>
  <path d="M500.87,452.94c2.02,1.43,4.04,2.86,6.06,4.29.1,5.05-4.2,5.06-7.17,5.46-23.73,3.22-46.91,9.43-70.64,12.56-2.91.38-5.78,1.13-8.69,1.31-5.53.36-7.85,2.46-6.44,8.45,1.27,5.39-2.17,9.25-6.13,12.45-4.99,4.04-10.89,6.52-16.49,9.49-5.82,3.08-10.62,7.05-12.11,13.86-3.49,15.89-12.73,29-20.87,42.57-6.53,10.88-13.67,21.41-20.99,31.8-5.77,8.19-11.51,16.38-19,23.2-13.88,12.64-24.2,28.07-34.1,43.82-2.33,3.71-4.39,7.66-7.83,10.55-1.16.97-2.61,1.6-4.07.85-1.51-.78-1.57-2.33-1.42-3.84.49-4.9,2.91-9.33,3.42-14.23,2.63-6.93,3.69-14.66,10.02-19.7.73-.11,1.43-.01,2.11.27,1.71,1.45.79,3.59,1.47,5.8,6.45-7.73,11.48-16.1,16.81-24.19,11.99-18.23,28.17-33.04,40.6-50.9,9.36-13.44,16.58-27.62,17.72-44.29.11-1.64,1.23-3.63-.56-4.75-2.13-1.33-3.71.46-4.96,1.87-3.56,4.01-7.19,7.96-10.19,12.46-1.56,2.33-2.96,5.28-6.69,4.69-1.86-3.33.69-5.54,2.19-7.85,8.86-13.73,19.01-26.39,31.19-37.37,2.32-2.09,4.78-4.15,6.33-6.98,13-10.68,28.82-15.05,44.47-19.68,17.28-5.12,34.77-9.54,51.93-15.03,8.85-2.83,16.16,1.15,24.04,3.05Z" style="fill: #e86478; stroke-width: 0px;"/>
  <path d="M380.44,484.59c.35,3.8-2.68,5.55-4.88,7.66-12.65,12.15-23.7,25.59-33.02,40.45-.75,1.19-1.12,2.61-1.67,3.92.86,1.84-.12,3.38-1.03,4.75-11.87,18.12-22.06,37.23-32.97,55.92-5.21,6.7-8.34,14.49-11.61,22.21-.24.63-.55,1.23-.9,1.81-3.82,4.63-4.71,11.1-9.47,15.13-4.25,5.75-6.42,12.46-8.71,19.11-7.68,22.55-18.38,43.99-25.88,68.49,4.63-5.22,7.07-9.73,9.55-14.16,6.9-12.29,17.07-21.95,25.81-32.75,18.23-22.53,32.21-47.83,47.11-72.53,2.78-4.61,5.42-9.3,8.37-13.8,1.38-2.1,2.25-5.19,5.9-4.25,1.58,3.2-.36,5.72-1.77,8.19-31.41,55.04-61.55,110.82-96.64,163.69-2.98,4.48-4.95,9.59-8.42,13.76-5.07,6.11-9.59,6.6-16.38,1.87-1.04-2.4-.83-4.68.71-6.81,2.48-7.85,4.96-15.71,7.44-23.56,1.59-9.1,4.91-17.48,10.43-24.94,1.54-3.47,3.09-6.95,4.63-10.42,1.13-10.46,7.32-19.03,10.75-28.63.9-2.52,2.39-4.82,3.48-7.28,4.1-10.42,9.9-20.06,13.94-30.52,1.05-2.73,2.53-5.28,5.21-6.83,1.46-2.98,2.91-5.96,4.37-8.94-.53-3.19.86-5.4,3.55-6.95,15.54-29.01,30.29-58.47,48.49-85.96,11.2-16.91,23.15-33.23,39.38-45.85,1.33-1.03,2.82-1.85,4.23-2.77Z" style="fill: #df2d65; stroke-width: 0px;"/>
  <path d="M486.12,273.41c-.68-5.63,5.69-9.8,3.28-15.78,8.94-18.65,22.91-32.75,40.13-43.75,20.43-13.04,43.05-19.43,67.07-21.29,6.81-.82,13.62-.81,20.43,0,15.61,1.73,30.82,5.18,45.65,10.36,2.81-.49,4.66.53,5.37,3.37-.74,5.32-4.59,4.38-7.82,3.48-6.85-1.92-13.75-3.6-20.72-4.88-38.24-7.04-74.3-2.17-106.03,21.68-20.96,15.76-34.96,36.45-37.18,63.3-1.83,22.12,5.01,41.96,18.32,59.66,7.27,9.67,15.91,17.91,25.56,25.14,2.35,1.76,4.93,3.47,6.16,6.19,2.02,4.45.57,6.13-4.19,4.38-8.49-2.49-15.63-7.18-21.9-13.31.8-3.48-1.72-5.42-3.65-7.51-12.55-13.65-22.67-28.69-27.21-46.96-2.29-9.24-3.78-18.52-2.32-28.14.81-5.3.6-10.71-.95-15.95Z" style="fill: #ea5f6e; stroke-width: 0px;"/>
  <path d="M652.52,138.39c-3.53-6.7-6.42-13.66-8.83-20.84.21-.41.17-.79-.13-1.14-1.38-6.82-.87-13.67-.25-20.52,1.14-9.23,2.12-18.51,7.58-26.5,1.73,1.32,1.16,2.86.64,4.59-5.84,19.77.57,36.75,11.83,52.76,9.69,13.78,23.97,21.77,37.53,30.73-.25,4.24,3.39,5.57,5.84,7.76,6.74,5.99,15.33,9.68,21.01,16.97,1.05,1.35,2.15,2.67,3.01,4.15.86,1.48,1.91,3.17.83,4.77-1.16,1.73-3.09.99-4.73.59-1.9-.46-3.79-.95-5.77-.95-2.99-.43-5.67-2.06-8.72-2.27-1.36-.28-2.59-.82-3.61-1.77-2.68-3.16-6.42-4.53-10.14-5.92-14.07-7.65-26.78-17.06-37.56-28.97-3.62-4-7.15-8.05-8.54-13.46Z" style="fill: #df2d4c; stroke-width: 0px;"/>
  <path d="M288.34,619.17c-1.18,2.32-2.37,4.63-3.55,6.95-26.6-5.61-66.53,4.64-72.45,39.3-.48,2.8.36,7.49-4.91,7.66-.15-2.41-.3-4.82-.45-7.23.99-4.81-1.19-9.97,1.57-14.59,5.84-3.59,7.82-10.37,12.58-15,11.07-10.78,24.5-15.9,39.37-17.2,9.21-.81,18.56.02,27.84.11Z" style="fill: #c2b6bc; stroke-width: 0px;"/>
  <path d="M478.78,291.03c.53,12.6-.51,25.25,3.45,37.66,5.62,17.59,15.95,32.12,27.85,45.75,7.35,8.42,16.56,15.09,23.04,24.34-12.54-5.53-22.07-15.06-31.95-24.11-20.42-24.41-27.01-52.52-22.39-83.63Z" style="fill: #df6676; stroke-width: 0px;"/>
  <path d="M643.32,95.89c.08,6.84.17,13.68.25,20.52-2.54-6.81-2.18-13.65-.25-20.52Z" style="fill: #e3e1e2; stroke-width: 0px;"/>
  <path d="M617.02,192.58c-6.81,0-13.62,0-20.43,0,6.81-2,13.62-1.99,20.43,0Z" style="fill: #e3e1e2; stroke-width: 0px;"/>
  <path d="M224.55,767.25l.3,7.36c2.78,5.99,9.33,8.47,12.85,13.78,1.45,5.54.62,11.19.79,16.8.5,17.05,13.42,31.97,30.24,34.76,26.85,4.44,59.79-8.32,73.85-35.55,11.68-22.64,6.35-54.84-30.52-60.06-3.84-.54-8.05-.22-9.61-5.03,1.95-3.25,3.46-6.96,7.93-7.58,6.32-.98,11.24,2.88,16.3,5.35,20.1,9.79,38.31,22.62,55.78,36.5,2.06,1.64,4.31,3.38,4.11,6.53-5.32,5.41-2.71,12.59-3.93,18.87-5.3,27.27-20.7,47.37-42.88,62.97-19.27,13.56-41.37,20.61-63.61,27.29-11.64,3.5-23.25,6.85-35.58,7.45-20.91,1.01-32.52-9.17-35.99-32.68-2.85-19.33-3.47-38.92-.17-58.27,2.28-13.39,8.53-25.36,16.47-36.38.94-1.3,2.15-1.93,3.67-2.1Z" style="fill: #e79028; stroke-width: 0px;"/>
  <path d="M386.57,780.1c-13.84-13.53-30.2-23.54-46.47-33.76-9.45-5.94-19.72-9.95-29.72-14.63.44-4.33,4.13-6.06,6.85-8.56,10.63.82,18.87,6.47,26.58,13.17,8.79,5.92,17.57,11.83,26.36,17.75,30.39,23.32,57.38,49.82,76.7,83.29,6.7,11.6,12.95,23.49,14.51,37.15,1.6,2.7.44,5.37-.7,7.61-6.62,13.06-15.43,24.11-29.37,30.05-2.79,1.19-5.66,3.33-8.65.33,2.51-7.32,6.26-14.19,7.84-21.84,4.97-11.14,6.02-23.13,7.55-35.01.76-3.02,1.1-6.03-.23-9-.52-.97-1.04-1.95-1.55-2.92-3.89-11.87-11.54-21.37-19.33-30.79-8.17-12.75-18.72-23.31-30.36-32.85Z" style="fill: #693119; stroke-width: 0px;"/>
  <path d="M242.42,718.75c-2.76,8.61-6.21,16.93-10.42,24.94-4.56-.24-6.49,4.39-10.3,5.55.78-13.6,9.68-26.7,20.72-30.49Z" style="fill: #692a0c; stroke-width: 0px;"/>
  <path d="M731.71,918.62c-17.73,16.78-38.33,29.59-58.79,42.6-6.53,1.28-11.53,5.72-17.36,8.46-4.01,1.89-8.13,3.5-12.51,3.3-4.27-.19-7.97-1.63-5.39-7.28,16.36-10.97,32.3-22.55,47.11-35.51,11.48-10.04,23.21-19.64,31.57-33.11,12.47-20.1,10.11-40.42,3.98-61.14-2.32-7.84-3.55-16.08-8.23-23.3-3.4-5.24-7.85-7.39-13.41-7.03-7.26.48-13.8,2.79-20.43,6.61-25.5,14.68-48.48,33.37-75.21,46.12-10.21,4.87-19.24.58-29.02-7.11-2.48-1.95-4.43-4.58-6.9-6.56-1.85-1.48-4.21-3.21-5.84.49-1.93-2.16-4.59-4.71-2.93-7.47,1.66-2.77,4.8-.63,7.38-.15,12.88,2.42,23.39-3.52,33.26-10.36,29.49-20.42,59.84-39.43,91.24-56.75,5.97-3.29,12.01-6.37,19.28-6.17,10.88.3,16.11,3.53,19.57,14,6.35,19.23,9.28,39.23,12.89,59.08,2.81,15.43,3.72,31.02,2.8,46.61-.75,12.75-3.44,25.11-13.08,34.66Z" style="fill: #c21a2c; stroke-width: 0px;"/>
  <path d="M637.66,965.7c-.24,5.71,3.23,6.34,7.64,5.5,7.72-1.47,14.25-5.78,21.28-8.91,1.91-.85,3.74-3.72,6.33-1.07-16.57,9.76-32.83,20.09-49.77,29.17-41.48,22.25-84.49,41.21-128.49,57.94-4.28,1.63-8.66,3.39-11.97,6.89-3.25,3.44-1.65,4.46,2.15,4.47-6.86,3.6-6.98,3.61-9.8.31,16.24-20.01,39.09-29.35,61.94-38.98,30-12.64,58.31-28.6,85.86-45.9,4.95-3.11,9.87-6.28,14.81-9.42Z" style="fill: #c41233; stroke-width: 0px;"/>
  <path d="M855.23,114.83c.08,20.72-13.41,32.29-35.3,38-32.03,8.36-63.28,3.82-93.27-9.94-1.52-.7-3.17-1.09-4.76-1.62-16.25-6.58-28.63-17.26-35.64-33.63-1.27-2.96-2.26-5.96-.98-9.2,9.36-15.02,22.85-24.37,39.76-29.16,7.3-2.06,14.61-3.92,22.16-4.81,18.28.29,36.63-1.38,54.65,3.72,12.58,3.56,24.52,8.21,35.3,15.66,6.4,5.59,13.05,11.07,16.45,19.14,1.54,3.67,3.56,7.56,1.63,11.83Z" style="fill: #7d7d80; stroke-width: 0px;"/>
  <path d="M721.31,189.2c3.29-1.36,5.86,1.78,9.44,1.43-3.26-9.87-12.13-13.97-19.29-19.7-3.79-3.03-7.69-5.93-11.37-9.09-1.86-1.59-3.24-3.61.8-4.37,6.77,2.64,13.17,6.32,20.47,7.49,26.01,5.94,52.3,9.88,79.03,8.61,18.37-.87,36.54-3.79,53.13-12.44,13.09-6.82,23.91-16.32,29.9-30.18,6.82-15.76,3.32-30.64-4.71-44.97-3.11-5.54-3.05-5.58-1.7-9.18,9.28,9.44,15.04,20.77,17.99,33.6-.68,5.91,2.62,11.84-.06,17.74-9.42,27.76-31.42,40.39-57.65,47.95-11.78,3.39-23.71,6.05-35.92,7.21-7.63.72-13.4,3.93-17.02,10.94-1.43,2.77-3.14,5.58-6.22,7.04-12.85,2-24.93-2.19-37.23-4.63-2.61-.52-5.04-1.8-7.76-1.85-2.99-.15-5.86-.84-8.67-1.83-.68-.25-1.32-.59-1.92-1-.84-.74-1.42-1.6-1.23-2.8Z" style="fill: #d11c27; stroke-width: 0px;"/>
  <path d="M686.3,99.41c1.59,14.7,11.38,24.13,21.7,32.99,4.13,3.54,9.23,5.95,13.9,8.87-1.44-.15-3.11.12-4.3-.51-16.95-8.93-31.37-20.28-39.01-38.8-7.05-17.09.24-34.47,16.35-45.66,10.95-7.6,23.61-11.25,36.76-13.37,17.64-2.85,34.94-.96,52.12,3.08,3.54.83,7.16,1.75,10.1,4.11,15.76,12.68,34.51,21.21,49.21,35.36,6.34,6.11,12.54,12.45,14.37,21.5.55,2.71,2.62,6.46-2.27,7.83-1.45-12.44-9.04-21.11-17.8-29.07-14.4-11.6-31.26-17.65-49-21.71-3.05-.17-5.94-.95-8.77-2.05-9.43-3.21-18.66-6.65-28.83-7.68-18.63-1.88-35.59,1.89-50.7,12.75-9.26,6.65-14.49,15.74-12.6,27.75-.08,1.62-.77,3.07-1.22,4.58Z" style="fill: #d4202c; stroke-width: 0px;"/>
  <path d="M877.01,76.82c-.63,4.89,3.49,7.66,5.32,11.4,12.58,25.74,6.89,50.34-16.04,67.33-15.3,11.34-32.81,15.79-51.48,18.46-23.32,3.34-46.11-1.29-69.13-2.09-8.28-.29-16.75-2.69-24.3-6.95,12.22-2.44,23.29,3.33,34.93,5.02,32.19,4.67,63.6,3.55,93.37-11.22,12.79-6.35,23.54-15.49,28.82-28.84,7.85-19.85,2.28-37.78-11.23-53.48-15.99-18.58-36.66-30.22-59.07-39.19-1.4-.56-4.46.05-2.87-3.26,19.79,6.54,38.9,14.45,55.18,27.9,5.72,4.72,12.42,8.38,16.51,14.92Z" style="fill: #df2d4c; stroke-width: 0px;"/>
  <path d="M422.66,912.51c15.13-2.35,24.89-12.11,32.42-24.36,2.58-4.19,6.66-7.98,6.3-13.63,2.76,7.53,3.86,15.26,2.24,23.17-.49,2.38-1.16,4.33,2.14,4.79-1.55,2.94-3.1,5.88-4.64,8.83-12.35,17.78-29.77,24.5-50.82,23.29,4.12-7.36,8.25-14.72,12.37-22.08Z" style="fill: #2d1e18; stroke-width: 0px;"/>
  <path d="M7.4,805.48c3.26-10.97,5.44-21.88,3.37-33.57-2.14-12.1.74-24.34,1.35-36.48,1.06-21.1,3.94-42.12,9.97-62.53,3.46-11.71,7.61-23.12,13.82-33.77,3.3-5.66,7.58-7.54,13.87-7.14,6.26.4,7.16,5.67,8.76,9.46,11.53,27.35,10.49,38.01-1.74,65.58-8.69,19.6-18.93,38.55-25.84,58.93-7.44,14.55-14.88,29.09-22.33,43.64-1.68-1-1.23-2.64-1.23-4.14Z" style="fill: #ea88a4; stroke-width: 0px;"/>
  <path d="M437.82,846.66c2.45,2.94,1.8,5.96.23,9-.08-3-.15-6-.23-9Z" style="fill: #e7c15a; stroke-width: 0px;"/>
  <path d="M788.97,20.87c8.73-5.74,18.27-1.77,26.94-.91,23.29,2.3,45.07,10.02,64.07,24.35,2.97,2.24,6.09,4.2,6.21,8.45-19.43-10.52-39.21-20.18-60.8-25.59-9.9-2.48-19.85-4.55-30.08-4.98-2.19-.09-4.39-.06-6.33-1.32Z" style="fill: #e95871; stroke-width: 0px;"/>
  <path d="M280.42,635.06c-5.92,12.72-11.84,25.45-17.75,38.17-8.28,8.95-18.17,16.14-26.98,24.52-1.34,1.27-2.76,2.94-5.06,1.81-4.54-11.49-6.51-23.27-4.28-35.59,3-16.57,19.21-26.47,36.48-28.8,5.77-.78,11.73-.12,17.6-.11Z" style="fill: #857685; stroke-width: 0px;"/>
  <path d="M230.62,699.56c9.08-7.8,18.17-15.6,27.24-23.42,1.44-1.24,2.64-2.87,4.8-2.91-5.21,11.7-10.41,23.4-15.62,35.09-8.8-3.49-16.53.65-24.38,3.53-2.47.91-4.69,2.47-7.03,3.73,3.81-6.45,9.85-10.81,14.98-16.03Z" style="fill: #5b3942; stroke-width: 0px;"/>
  <path d="M886.95,160.42c2.51,1.35,3.04,4.13,3.13,6.29.61,15.11,1.57,30.34-4.71,44.69-3.66,8.36-11.5,10.12-19.4,10.69-15.21,1.1-29.92-2.97-44.8-5.15-13.69-2-27.33-4.32-40.99-6.5,0,0,0,0,0,0-.48-.76-.39-1.45.27-2.05,5.85-2.9,11.48.21,17.15.84,20.59,2.27,38-3.63,51.87-19.24,4.73-3.77,10.31-6.24,15.26-9.67,6.56-4.55,13.02-9.2,17.27-16.24,1.09-1.81,2.31-3.79,4.95-3.65Z" style="fill: #847d8d; stroke-width: 0px;"/>
  <path d="M886.95,160.42c-8.95,13.66-21.26,23.23-36.15,29.65-8.47,8.08-19.76,8.21-30.21,10.74-10.62,1.57-21.24,3.22-32.02,2.94-3.63-.09-7.45.02-9.83-3.62,2.69-4.33,5.22-8.78,8.11-12.96,3.83-5.53,10.29-5.26,15.85-5.93,17.2-2.07,34.03-5.67,49.92-12.43,17.15-7.3,31.53-18.1,38.62-36.37.71-1.83,1.61-3.59,3.7-4.26-.52,11.28-3.14,22.04-7.99,32.25Z" style="fill: #9c1210; stroke-width: 0px;"/>
  <path d="M302.46,739.29c2.67,1.71,5.33,2.8,8.71,3.15,37.49,3.83,46.69,36.91,33.25,62.7-13.32,25.55-36.74,36.81-64.17,37.89-24.18.96-45.23-14.64-43.73-41.79.24-4.39-.04-8.8-.08-13.21,1.47-1.53,3.02-1.42,4.62-.23,11.43.89,19.36-5.89,26.69-12.99,11.89-11.52,23.17-23.66,34.71-35.54Z" style="fill: #e9691a; stroke-width: 0px;"/>
  <path d="M241.06,787.82c-1.54.07-3.08.15-4.62.23-4.51-3.92-11.94-5.32-11.58-13.44,8.44,3.31,13.02-1.16,17.12-7.86,23.31-38.07,47.06-75.87,69.04-114.73,11.17-19.76,22.29-39.55,33.36-59.36,1.05-1.88,1.58-4.06,2.35-6.1-2.16-3.32.61-5.65,1.98-7.9,10.78-17.7,21.78-35.27,31.38-53.65,6.02-11.53,16.62-18.32,26.4-25.97,4.08-3.19,8.19-6.45,10.72-10.9,4.8-8.43,12.55-12.14,21.33-14.09,22.75-5.06,45.59-9.72,68.66-13.14,1.49-.22,2.91-.2,4.21.68,2.96,1.59,3.4,4.71,4.5,7.42-.12,2.49-.25,4.97-.38,7.46-6.86,5.21-13.74,6.61-22.41,3.31-6.87-2.61-14.69-2.4-22.27-.53-17.5,4.3-36.12,6.51-48.69,21.22-7.59,8.88-14.64,18.4-23.07,26.36-19.33,18.25-31.61,41.27-44.92,63.56-12.88,21.57-24.62,43.83-37.04,65.69-16.51,29.07-33.2,58.03-49.78,87.06-3.87,6.78-7.91,13.51-11.27,20.54-4.13,8.63-9.05,16.7-15.02,24.15Z" style="fill: #d92f50; stroke-width: 0px;"/>
  <path d="M343.81,736.32c-8.86-4.39-17.72-8.78-26.58-13.17,6.74-10.71,15.5-19.77,23.71-29.29,4.83,3.49,5.9,8.82,6.26,14.14.65,9.61.85,19.26-3.39,28.32Z" style="fill: #575152; stroke-width: 0px;"/>
  <path d="M511.41,461.58c-14.33,2.47-28.69,4.72-42.96,7.47-10,1.93-19.87,4.51-29.78,6.86-8.82,2.1-16.14,5.94-20.69,14.6-3.08,5.84-8.95,9.85-14.44,13.21-13.52,8.29-21.26,21-28.82,34.16-8.85,15.41-18.09,30.59-27.12,45.9-.48.81-.58,1.83-.85,2.76-8.56,10.37-14.26,22.55-21.26,33.89-14.45,23.41-27.86,47.5-47.08,67.59-10.17,10.63-17.1,23.6-25.18,35.74-.89,1.34-1.37,3.7-3.52,3-2.21-.72-1.39-2.88-.86-4.39,7.89-22.78,16.35-45.33,27.36-66.83-.07,5.84-3.9,10.92-3.56,17.47,5.96-2.62,7.81-8.25,10.64-12.7,9.43-14.86,19.18-29.4,32.04-41.61,18.47-17.52,30.56-39.74,44.19-60.78,8.49-13.11,15.95-26.81,19.57-42.29,1.37-5.88,7.09-7.74,11.6-10.47,5.22-3.16,10.93-5.56,15.92-9.01,4.84-3.35,8.09-7.71,4.72-14.35-2.89-5.69,2.43-6.27,5.59-6.7,17.58-2.4,35.03-5.5,52.42-8.96,10.95-2.18,21.98-3.98,32.99-5.85,2.11-.36,3.72-1.08,4.62-3.06,2.34.59,3.38,2.5,4.48,4.36Z" style="fill: #e25f7a; stroke-width: 0px;"/>
  <path d="M667.13,205.71c11.84,4.61,21.95,12.05,32.08,19.48,3.84,2.66,9.13,4.07,8.79,10.3-2.36,2.26.35,3.38,1.15,4.86,19.26,35.69,19.86,71.01-3.87,104.77-16.66,23.72-40.8,37.17-68.46,44.43-20.89,5.48-42.35,6.76-63.77,5.71-10.83-.53-21.49-3.91-30.91-9.98,3.7-.01,5.67-1.09,2.16-4.4-3.54-3.34-7.29-6.46-11.09-9.49-19.3-15.39-32.91-34.53-37.58-59.07-5.39-28.33,2.83-52.78,22.17-73.91,28.76-31.44,65.64-40.35,106.27-38.02,12.31.71,24.45,3.89,36.33,7.53,2.79.85,5.81,2.58,6.74-2.2Z" style="fill: #e5475a; stroke-width: 0px;"/>
  <g>
    <path d="M895,110.42c6.08.17,9.93,4.75,14.61,7.6,4.97,3.02,9.76,6.27,14.97,8.93,11.24,5.73,25.37.45,26.31-13.38.18-2.63.94-5.22,1.43-7.82,4.24,4.22,8.49,8.44,12.73,12.65,13.22,17.91,26.23,35.94,34.43,56.88.53,1.35.86,2.77,1.29,4.16-8.85,4.52-12.8,12.36-16.66,21.22-4.82,11.05-12.26,20.92-18.41,31.38-5.16,8.78-9.32,18.09-14.65,26.8-6.44,10.52-12.07,21.58-18.65,32.08-10.34,16.49-19.67,33.66-30.63,49.72-19.2,28.14-37.37,57.09-59.02,83.42-13.44,16.34-25.89,33.5-40.49,48.94-7.47,7.91-13.52,17.18-20.95,25.28-10.65,11.6-20.42,24.04-31.4,35.32-13.58,13.95-26.32,28.66-39.74,42.73-8.07,8.46-17.05,16.05-25.56,24.1-11.28,10.68-23.11,20.71-34.83,30.89-8.49,7.38-17.07,14.59-26.59,20.46-11.36,7-21.68,15.62-34.51,20.42-17.36,6.51-32.13,1.54-40.5-14.77-12.27-23.9-17.68-49.89-23.05-75.85-6.08-29.36-8.64-59.14-9.37-89.08-.02-.98.04-1.96.07-2.94.77-.44,1.43-.32,2,.36,1.1,1.67,1.18,3.58,1.25,5.48,3.8,31.38,8.41,62.56,23.58,90.97,5.15,9.64,8.75,20.04,17.17,27.94,10.86,10.18,22.72,12.36,36.56,8.14,18.95-5.78,34.83-16.72,49.21-29.77,22.82-20.7,43.64-43.46,65.53-65.12,30.98-30.64,58.69-64.18,87.83-96.46,18.87-20.9,37.82-41.63,53.29-65.25,18.37-28.04,36.7-56.11,49.11-87.51,2.17-5.5,3.76-11.16,4.51-16.99,1.59-12.27-3.03-19.05-15.08-21.95-11.42-2.75-23.13-4.04-34.64-6.41-13.69-2.81-26.99-6.92-40.32-11-4.24-1.3-8.43-2.49-12.89-2.54-6.02-1.01-11.77-3.04-17.58-4.77-2.12-.63-5.64-.68-4.63-4.72,7.42-2.59,14.42,1.01,21.47,1.99,15.94,2.21,31.83,4.91,47.74,7.39,27.08,4.22,38.01-5.01,38.28-32.32.09-8.76.87-17.61-1.87-26.19-.01-6.76,3.77-12.57,4.75-19.12.68-4.58,1.76-9.11,2.24-13.74.79-3.37.68-6.74.12-10.14-.43-2.62-.95-5.36,1.54-7.42Z" style="fill: #dad8da; stroke-width: 0px;"/>
    <path d="M517.2,495.46c3.1,4.89,3.19,10.64,4.22,16.02,5.08,26.59,12.91,52.1,29.16,74.18,12.05,16.37,28.34,24.33,48.95,17.43,27.45-9.19,48.27-26.78,66.64-48.25,6.03-7.05,12.93-13.35,19.48-19.95,9.66-9.72,19.44-19.33,29.06-29.1,18.67-18.97,35.6-39.22,49.84-61.9,6.05-9.64,13.72-18.57,23.05-26.18,33.64-27.44,62.32-59.1,81.83-98.6,7.34-14.86,15.59-29.25,19.98-45.29,3.23-11.79-.71-24.96-13.54-30.42-21.15-8.99-43.5-14.37-64.9-22.53-2.47-.94-5.29-1.06-7.28-3.1,10.77-.1,20.35,4.89,30.3,7.8,17.6,5.14,35.54,8.2,53.51,11.08,19.05,3.05,22.92,14.07,19.34,29.56-4.96,21.51-15.92,40.4-26.76,59.09-11.72,20.21-24.37,39.94-38.31,58.78-10.45,14.12-22.11,27.21-33.85,40.22-20.71,22.95-41.26,46.03-61.2,69.67-7.36,8.72-15.34,17.15-24.71,23.93-3.3,2.39-4.92,6.03-7.62,8.82-14.07,14.52-27.51,29.71-42.31,43.44-16.92,15.7-32.49,33.18-53.1,44.52-11.59,6.37-23.7,12.04-37.1,11.88-14.89-.17-25.37-9.65-31.91-21.64-9.52-17.45-19.09-35.09-23.27-54.98-3.8-18.07-8.07-36.03-9.5-54.5Z" style="fill: #dad8da; stroke-width: 0px;"/>
    <path d="M583.19,419.01c1.37,3.27,4.72,3.27,7.35,4.2,23.9,8.4,48.82,13.6,72.39,23.08,7.54,3.04,14.81,6.3,20.65,12.1,5.91,5.87,6.66,13.39,1.49,20.99-4.37,6.43-8.71,13.06-14.14,18.54-14.73,14.86-27.12,31.79-43.09,45.71-8.34,7.27-16.64,13.7-26.12,19.27-14.33,8.42-38.26,1.29-47.57-7.46-18.83-17.71-26.85-40.82-33.79-64.59-.75-2.58-.91-5.3-3.16-7.17.05-2.95.1-5.91.15-8.86,4.2.44,4.96,4.4,6.87,7.01,7.71,10.5,15.45,20.56,29.11,24.18,5.53,1.46,9.26.47,13.17-3.22,9.17-8.64,14.63-19.98,22.01-29.92,2.41-3.25,5.42-6.15,6.53-10.44,3.61-13.99.89-21.58-12.46-31.1-7.91-5.64-16.27-10.64-24.34-16.06-2.39-1.61-4.85-3.35-5.8-6.36,10.25,3.37,20.5,6.73,30.75,10.1Z" style="fill: #dad8da; stroke-width: 0px;"/>
    <g>
      <path d="M1013.75,216.18c1.3,16.27,3.23,32.43,1.87,48.91-2.93,35.41-10.11,69.97-19.24,104.18-13.32,49.87-30.84,98.21-54.19,144.32-19.01,37.54-41.34,73.05-66.51,106.77-6.31,7.35-15.01,9.4-24.01,10.62-2.71.37-5.24.92-7.59,2.36-24.37,14.95-48.13,30.82-67.83,51.77-12.7,13.5-23.57,28.59-34.7,43.41-2.67,3.56-4.54,8.35-10.26,8.2-3.47-2.53-2.87-6.65-3.98-10.1,1.33-19.18-19.5-34.47-41.55-28.5-11.72,3.17-22.56,8.17-32.16,15.53-22.31,17.12-44.49,34.51-63.05,55.8-15.01,17.22-27.61,36.11-35.41,57.85-1.32,2.67-2.63,5.36-5.58,6.66-.75.14-1.46.04-2.15-.29-6.1-7-7.82-16.13-11.47-24.29-12.43-27.79-29.56-52.16-51.74-72.96-3.47-3.25-7.2-6.34-12.13-7.89,10.87,20.8,14.38,44.17,24.86,64.93,4.9,9.7,7.18,19.81.15,29.76-.66.35-1.36.41-2.08.19-1.72-1.59-2.24-3.76-2.68-5.9-5.02-24.45-18.48-44.38-34.01-63.13-23.97-28.92-52.86-51.83-85.9-69.59-3.22-2.22-6.91-3.43-10.44-5-2.39-1.06-5.03-1.99-5.73-5.04,3.5-9.81,11.41-16.19,18.36-23.27,2.32-2.36,5.48-1.71,8.27-.32,5.25,2.61,10.7,4.87,15.48,8.38,21.3,13.51,42.12,27.7,62.66,42.33,2.4,1.71,4.99,3.13,7.77,4.11,11,3.87,14.84,2.84,19.88-8.09,13.94-30.26,18.96-61.88,19.2-94.79.25-33.49.84-66.99,4.16-100.36.48-4.87.24-9.79.18-14.69.38-2.41.04-5.21,3.27-6.07,2.27,1.71,2.04,4.24,2.19,6.64.67,53.72,8.66,106.19,26.82,156.92,2.16,6.02,5.25,11.64,8.71,16.95,6.21,9.51,20.58,12.9,33.13,8.44,16.65-5.92,30.5-16.61,44.46-26.81,21.54-15.74,40.87-34.16,60.27-52.46,28.15-26.55,53.25-55.91,79.43-84.3,15.61-16.93,30.1-34.77,44.79-52.39,23.95-28.71,47.2-58.08,67.32-89.76,11.02-17.35,24.05-33.4,34.01-51.43,10.52-19.03,22.65-37.08,33.04-56.23,9.64-17.77,17.96-36.41,30.47-52.56,2.6-3.36,3.19-7.66,4.96-11.41,3.31-7.05,7.46-13.24,15.97-14.66,6.99,9.67,9.79,20.89,11.95,32.35.31,1.63-.47,3.43.75,4.93Z" style="fill: #dad8da; stroke-width: 0px;"/>
      <path d="M251.2,502.91c11.98-29.92,24.44-59.63,39.02-88.41,23.67-46.72,52.17-90.34,83.67-132.11,27.72-36.75,58.68-70.57,92.1-102.12,23.41-22.1,48.62-42.08,75.15-60.38,35.86-24.72,73.48-46.38,112.74-65.21,2.84-1.36,5.49-3.35,8.93-2.84-2.1,7.21-8.49,11.92-10.98,18.9-4.18,8-5.79,16.7-7,25.51-1.25,6.51-1.11,13.01-.09,19.53.19.77.28,1.55.3,2.33-3.15,20.94,4.83,39.14,14.17,56.96,2.6,4.95,5.91,9.52,7.87,14.81,2.6,7.03,1.83,9.35-4.65,14.06-5.32.53-9.78-2.47-14.68-3.68-10.15-2.49-20.46-4.07-30.7-6.02-6.54-1.48-13.11-1.21-19.68-.25-25.86,2.57-50.31,9.29-71.67,24.8-14.59,10.59-26.56,23.54-34.81,39.71-6.03,10.22-8.96,21.42-10.62,33.05-3.24,28.41,1.49,54.86,19.11,78.17,1.18,1.56,2.43,3.06,3.26,4.85,4.41,8.39,7.95,17.01,10.73,26.19,4.97,16.36,2.33,31.75-2.58,47.28-1.42,4.48-4.35,6.91-9.21,6.66-12.44-5.29-24.37-3.12-36.87.96-17.88,5.82-36.3,9.99-54.21,15.79-10.25,3.32-20.03,7.85-28.77,14.31-20.4,14.03-34.01,33.97-47.08,54.32-15.17,23.62-28.08,48.54-41.2,73.32-1.47,2.77-2.56,5.91-6.04,6.96-7.02,1.07-14.09.36-21.14.53-20.93.48-38.44,7.66-50.65,25.51-1.7,2.48-3.2,5.72-7.27,4.92-2.58-3.82-.58-7.59.3-11.27,10.59-44.15,22.89-87.82,37.81-130.72.77-2.73,2.06-5.08,4.72-6.41Z" style="fill: #dad8da; stroke-width: 0px;"/>
      <path d="M474.7,915.57c-.03-4.38-3.51-2.88-5.77-3.3-2.58-.47-5.21-.67-7.82-.98-1.78-4.23,2.09-6.43,3.4-9.55,3.4-5.39,6.62-10.89,9.45-16.62,6.71-11.28,12.1-23.24,17.82-35.01,2.47-5.09,2.93-10.7,2.92-16.35,0-3.56-.81-7.35,1.78-10.5,5.19-11.5,2.97-22.22-2.9-32.86-4.61-8.36-7.19-17.6-10.15-26.64-3.66-11.14-7.08-22.35-12.93-32.63-.99-1.74-3.05-4.02-.6-5.86,1.93-1.44,3.55.72,5.12,1.76,15.3,10.16,26.62,24.21,37.61,38.55,14.25,18.58,24.03,39.54,32.47,61.21.88,2.27,1.99,4.45,2.99,6.68,3.03,4.12,0,8.48.53,12.7-1.42,10.67,1.36,20.01,8.03,28.56,2.44,3.13,6.62,6.2,4.62,11.39-9.52,2.55-17.94,7.66-26.58,12.08-16.77,8.58-34.36,13.62-53.16,14.21-2.95.09-5.15.81-6.85,3.14Z" style="fill: #dad8da; stroke-width: 0px;"/>
      <path d="M736.37,771.86c-.22-10.06-3.39-19.65-4.68-29.54-1.47-1.98-1.8-3.96,0-5.93,8.99-6.38,13.96-16.23,20.16-24.77,19.29-26.57,42.96-48.25,69.98-66.51,7.24-4.89,14.9-9.15,22.12-14.08,4.45-3.03,9.55-.97,14.16-2.76,6.01-2.33,12.04-4.54,17.56-7.92-10.01,14.76-21.49,28.38-32.8,42.12-28.15,34.2-58.89,65.98-90.7,96.75-4.86,4.7-9.55,9.67-15.81,12.63Z" style="fill: #dad8da; stroke-width: 0px;"/>
      <path d="M919.75,75.25c11.13,9.86,22.85,19.11,32.56,30.49,2.68,8.48-.12,15.71-6.34,21.14-5.72,4.99-12.87,5.37-20.04,2.61-6.68-2.57-12.55-6.57-18.4-10.57-4.04-2.77-8.23-5.27-12.6-7.46-1.59-1.24-2.49-2.97-2.95-4.86-2.71-11.09-9.09-20.12-16.05-28.83-17.38-18.04-38.51-30.18-61.55-39.4-3.1-1.24-6.66-1.63-9.06-4.36-19.35-6.59-39.32-8.99-59.67-8.73-3.17.04-6.35-.12-9.52-.19,5.56-2.63,11.73-2.77,17.6-3.59,5.07-.71,9.86-1.98,14.68-3.4,6.68,1.51,13.52.12,20.24,1.11,13.03,1.92,26.14,3.02,38.97,6.56,20.73,5.7,39.93,14.63,58.51,25.15,11.79,7.31,24.33,13.59,33.62,24.35Z" style="fill: #dad8da; stroke-width: 0px;"/>
      <path d="M396.78,660.25c17.8,4.06,21.08,2.99,31.26-12.86,18.72-29.16,35.39-59.54,52.33-89.75,12.63-22.54,24.55-45.44,33.76-69.64-1.41,28.44-2.86,56.87-4.2,85.32-.25,5.37-.21,10.76-.07,16.14.75,29.6-1.64,58.69-10.3,87.32-3.07,10.15-9.11,18.69-12.02,28.76-1.15,3.98-4.85,5.55-10.03,4.88-11.62-1.5-19.92-8.54-28.89-14.82-15.18-10.61-30.32-21.3-46.22-30.85-2-1.2-4.55-2.02-5.62-4.51Z" style="fill: #dad8da; stroke-width: 0px;"/>
      <path d="M667.13,205.71c-1.49-.92-2.98-1.85-4.46-2.77,7.58-6.44,3.12-12.9-.56-18.7-8.88-13.98-14.71-29.1-18.73-45.07-1.84-7.33-1.88-14.45.32-21.63,5.52,5.61,6.5,13.45,9.87,20.13,1.32,10.06,7.57,17.31,14.05,24.36,12.95,14.08,27.94,25.96,42.1,38.73,4.99,4.5,9.13,9.62,11.99,15.61,3.33,6.99.47,11.52-7.11,12.03-5.18.35-10.26-.21-15.22-1.79-10.68-7.06-22.01-13.13-32.24-20.9Z" style="fill: #dad8da; stroke-width: 0px;"/>
      <path d="M583.19,419.01c.51-.23,1.02-.45,1.53-.68,4.01-1.39,7.8.36,11.68.8,3.04,1.14,6.36.73,9.44,1.65,10.05,3.52,20.68,3.97,31.03,4.23,23.27.58,46.93,4.44,69.47-5.39,6.56-2.86,12.63-6.44,18.21-10.85,12.2-9.65,19.19-21.61,18.37-37.88-.95-18.8-2.16-37.49-6.83-55.81-1.52-5.98.24-12,.14-18-1.06-14.07-6.64-26.8-11.86-39.62,3.21-1.89,3.74-2.05,7.08,1.09,7.67,7.19,15.31,14.44,22.21,22.37,5.93,6.82,11.83,13.68,17.53,20.7,1.24,1.52,2.58,2.93,4.13,4.15,14.4,11.31,23.56,10.79,36.27-2.29,10.51-10.81,17.72-23.05,17.66-38.86-.04-10.19-3.86-17.76-12.24-23.5-14.97-10.25-30.32-19.73-47.39-26.14-6.41-2.41-12.66-5.2-18.92-7.98-2.5-1.11-5.9-1.6-5.99-5.49,1.19-1.15,2.63-1.25,4.16-1.04,1.81.39,3.56.96,5.33,1.5,8.26,3.04,17.04,4.4,25.24,7.64.25.28.49.56.73.85,7.35,3.99,15.65,4.96,23.51,7.34,21.86,6.86,43.9,13.16,65.56,20.66,25.67,8.88,26.24,27.32,19.03,45.56-11.13,28.16-26.1,54.27-43.67,78.73-12.98,18.07-28.68,33.81-46.4,47.68-15.01,11.74-27.43,26.18-37.35,42.84-9.64,16.19-22.5,30.15-35.17,44.02-11.87,13-24.6,25.24-37.31,37.44-13.26,12.72-24.76,27.11-38.14,39.68-14.43,13.55-30.72,23.93-49.68,30.31-21.13,7.11-37.2.72-50.84-17.09-16.55-21.62-24.7-46.93-28.88-73.62-.97-6.21-2.27-12.37-3.64-18.51,0-1.95-.02-3.91-.03-5.86.01-1.98.03-3.95.05-5.93,4.72.52,4.39,4.68,5.2,7.68,3.75,13.99,8.76,27.48,15.69,40.2,6.66,12.2,14.89,23.25,27.9,29.16,18.05,8.21,39.64,3.63,53.81-11.52,5.02-5.38,10.43-10.24,15.71-15.3,15.2-14.56,28.38-30.96,41.93-46.98,14.1-16.67,11.53-27.15-8.64-36-14.97-6.57-30.45-12.11-46.38-16.02-11.18-2.75-22.07-6.39-32.92-10.14-2.8-.97-6.49-1.33-6.31-5.74Z" style="fill: #dad8da; stroke-width: 0px;"/>
      <path d="M708,235.49c-1.51-4.65-6.51-6.31-8.79-10.3,5.04.61,10,1.78,15.17,1.45,7.15-.45,9.1-4.04,5.33-10.71-5.37-9.49-13.87-16.03-21.78-23.18-15.64-14.13-33.04-26.63-43.44-45.72-1.43-2.63-3.4-5.29-1.97-8.64,12.21,17.56,28.44,30.57,46.71,41.27,3.23,2.42,7.46,3.16,10.33,6.17.93.4,1.86.79,2.78,1.19,3.63,1.14,6.94,3.06,10.54,4.27h.01c5.15,2.85,11.12,3.52,16.36,6.15,2.12,1.07,4.8,1.39,5.66,4.18,11.18,7.11,24,10.57,35.9,16.09,15.34,7.11,29.66,15.81,42.7,26.56,4.07,3.36,6.02,7.54,6.9,13.11,2.8,17.88-3.7,32.19-15.14,45.05-.49.55-1.09.99-1.54,1.57-13.47,17.22-26.87,16.24-44.88-2.9-12.69-13.49-24.26-28.04-37.9-40.66-1.79-1.65-3.23-4.55-6.58-2.99-5.22-7.49-9.57-15.65-16.38-21.96Z" style="fill: #dad8da; stroke-width: 0px;"/>
    </g>
  </g>
  <path d="M736.23,297.07c.29.39.84.78.84,1.16,0,16.83,5.25,32.95,6.63,49.64.95,11.47,2.38,23.03.74,34.27-2.55,17.48-15.47,27.69-29.83,35.75-11.81,6.63-24.55,10.12-38.41,10.14-20.99.03-41.92-.42-62.76-3.12-2.93-.38-5.74-1.03-8.28-2.6,1.49-2.17,3.78-2.25,5.92-1.79,8.72,1.86,17.54,1.03,26.29.83,16.81-.38,30.14-8.48,41.64-20.11,5.39-5.32,12.18-8.79,17.95-13.71,24.44-20.81,37.23-46.9,37.24-79.12,0-2.86-.54-5.89,1.53-8.41.16-.97.33-1.95.49-2.92Z" style="fill: #847a8a; stroke-width: 0px;"/>
  <path d="M735.74,299.99c3.04,45.57-17.46,78.34-55.28,101.7-3.01,3.72-7.12,5.82-11.33,7.88-23.12,11.31-47.5,14.23-72.8,11.17-4.04.03-7.87-.99-11.61-2.42,1.26-3.07,4.54-3.59,6.74-3.39,11.85,1.08,21.48-4.2,31.64-9.12,16.64-8.06,35.28-11.18,51.53-20.56,25.31-14.6,45.56-33.32,54.12-62.35,2.15-7.3,3.33-14.69,3.05-22.33-.05-1.4-1.06-3.88,1.61-3.92.76-.01,1.56,2.16,2.34,3.33Z" style="fill: #ac241c; stroke-width: 0px;"/>
  <path d="M486.12,273.41c5.88,4.24,3.45,10.58,2.85,15.57-1.97,16.37,2.26,31.21,8.83,45.8,5.52,12.25,14.58,21.84,23.35,31.65,2.11,2.36,4.9,4.6-.92,5.54-27.95-22.19-42.28-50.18-36.84-86.58,1.78-2.22-.23-5.18,1.44-7.42.04-1.63-.28-3.36,1.29-4.56Z" style="fill: #ea838b; stroke-width: 0px;"/>
  <path d="M484.83,277.97c-.13,2.54.96,5.32-1.44,7.42.1-2.55-.85-5.3,1.44-7.42Z" style="fill: #ea5f6e; stroke-width: 0px;"/>
  <path d="M305.61,596.85c10.83-20.62,22.4-40.8,35.26-60.24,5.98-4.77,8.95-12.05,14.4-17.31,1.39-1.34,2.43-2.96,4.3-3.77,4.29-1.87,6.58-1,6.18,4.18-1.8,23.15-12.58,42.5-27.32,59.35-16.56,18.93-31.87,38.67-45.62,59.67-1.87,2.86-3.77,5.59-7.07,7.1-1.83-3.43,1.49-6.2.78-9.33,1-6.04,4.63-10.9,7.28-16.2h.01c3.74-7.93,7.37-15.9,11.81-23.47Z" style="fill: #e88b99; stroke-width: 0px;"/>
  <path d="M293.79,620.32c-1.43,5.85-4.7,10.87-7.28,16.2-.54-.03-1.07-.05-1.61-.08,2.42-5.67,4.03-11.8,8.89-16.13Z" style="fill: #e25f7a; stroke-width: 0px;"/>
  <path d="M305.61,596.85c-2.98,8.3-6.82,16.17-11.81,23.45,2.17-8.71,6.03-16.56,11.81-23.45Z" style="fill: #e25f7a; stroke-width: 0px;"/>
  <path d="M709.57,185.83c-3.71-1.62-7.79-2.61-10.33-6.17,3.94,1.23,8.05,2.16,10.33,6.17Z" style="fill: #a1a0aa; stroke-width: 0px;"/>
  <path d="M722.9,191.29c-4.19.24-7.38-1.97-10.54-4.27,3.43-1.11,5.79,2.2,8.95,2.18.53.7,1.06,1.39,1.59,2.09Z" style="fill: #a1a0aa; stroke-width: 0px;"/>
  <path d="M686.3,99.41c-.02-1.64-.03-3.27-.05-4.91,0-8.42,5.15-13.92,11.09-18.72,16.04-12.94,35.01-17.36,55.07-18.79,9.59-.69,18.65,1.48,27.8,3.56,2.91.58,5.81,1.16,8.72,1.74,1.38,4.43-1.82,3.44-4.11,3.44-10.42,0-20.83-.78-31.25-.03-2.39.17-4.87-.56-7.17.63-19.99,3.4-39.19,8.54-53.39,24.51-2.41,2.71-4.49,5.7-6.72,8.57Z" style="fill: #1a0f0c; stroke-width: 0px;"/>
  <path d="M746.41,66.33c7.98-1.9,16.05-2.2,24.26-2.07,6.07.1,12.75,3.68,18.27-1.97,15.72,3.15,30.23,9.12,43.32,18.47,2,1.43,4.12,2.63,5.17,5-15.9-9.84-33.06-16.19-51.63-18.65-13.1-1.73-26.26-.38-39.39-.78Z" style="fill: #5e2e29; stroke-width: 0px;"/>
  <path d="M778.74,200.12c14.26,3.16,28.34.15,42.46-1.26.3,3.9-2.79,4.96-5.44,5.87-8.58,2.94-17.26,4.49-26.55,3.99-13.53-.73-26.41-4-39.3-7.58-6.5-2.5-14.18-2.34-19.15-8.36,11.31,1.32,22.12,5.18,33.49,6.37,4.84.51,9.64.86,14.48.98Z" style="fill: #1f1118; stroke-width: 0px;"/>
  <path d="M730.76,192.78c5.73,3.69,12.41,4.93,18.66,7.3.47.58.38,1.09-.17,1.56-1.44,0-2.88,0-4.32-.01-7.35-3.41-15.64-4.83-22.01-10.32,2.62.49,5.23.99,7.85,1.48Z" style="fill: #a1a0aa; stroke-width: 0px;"/>
  <path d="M780.21,60.55c-13.55-.99-27.07-2.4-40.68-.1-18.92,3.2-36.33,9.07-48.39,25.21-2,2.67-3.28,5.88-4.89,8.84-3.04-8.6,1.63-21.39,11.48-28.33,16.25-11.44,34.09-16.19,54.32-13.61,10.03,1.28,19.01,4.51,28.16,7.99Z" style="fill: #9c100d; stroke-width: 0px;"/>
  <path d="M749.24,201.63c.06-.52.12-1.04.17-1.56,11.45,2.29,22.81,5.19,34.36,6.72,13.2,1.75,26.14.31,37.43-7.93,10.16-1.93,20.07-4.74,29.6-8.8-6.75,12.64-19.29,16.3-31.59,20.23-9.88,3.16-19.8,1.37-29.61-.48-3.16-.6-6.25-.94-9.43-.83-5.81,1.17-10.69-2.2-16.03-3.28-3.53-.71-7.05-1.44-10.41-2.76-1.55-.23-3.32.27-4.47-1.32Z" style="fill: #5b465a; stroke-width: 0px;"/>
  <path d="M596.34,420.74c19.78.4,39.34-.73,58.2-7.54,8.93-3.22,17.63-6.89,25.92-11.51-1.07,4.56-5.22,6.11-8.38,8.68-17.53,14.27-38,14.62-58.96,12.43-2.66-.28-5.27-.9-7.96-.49-2.93-.57-6.13.32-8.83-1.56Z" style="fill: #66435b; stroke-width: 0px;"/>
  <path d="M753.72,202.95c9.1.75,17.52,4.52,26.45,6.04,0,.48,0,.97,0,1.45-9.21-1.11-18.11-3.32-26.45-7.49Z" style="fill: #a1a0aa; stroke-width: 0px;"/>
  <path d="M691.75,289.85c8.38,38.93-19.46,68.93-53.58,79.11-32.64,9.73-63.28,4.81-91.45-14.54-9.69-4.99-15.66-13.43-20.92-22.54-5.37-10.1-8.7-20.64-7.16-32.27.91-2.8,1.1-5.74,1.49-8.64.12-.72.32-1.42.55-2.12,3.49-10.8,7.37-21.39,16.71-28.8,33.79-31.39,83.14-34.41,120.6-13.67,1.91,1.06,3.79,2.27,6.03,2.57,14.87,9.81,25.25,22.68,27.74,40.91Z" style="fill: #4e4e51; stroke-width: 0px;"/>
  <path d="M520.19,298.76c-.98,11.96,2.59,22.94,7.3,33.67-5.4.25-6.63-4.36-8.55-7.76-5.93-10.48-6.14-22.09-4.99-33.54,1.88-18.73,8.97-36.13,21.8-49.41,24.14-24.98,54.62-30.21,87.79-22.96,10.37,2.27,19.77,6.84,28.83,12.22,4.36,2.5,8.72,5.01,13.07,7.51,4.58.94,7.72,4.14,10.76,7.25,8.63,8.85,15.32,19.03,19.73,30.61.91,2.38,2.62,4.91.44,7.55.06,3.22.07,6.41-4.62,5.95-5.25-15.89-13.76-29.5-27.65-39.32-8.16-4.4-16.32-8.78-24.72-12.73-35.98-22.42-89.35-9.06-110.75,27.6-4.44,7.6-5.5,16.02-7.08,24.37l.02-.05c-1.82,2.8.28,6.2-1.38,9.03Z" style="fill: #ce1b21; stroke-width: 0px;"/>
  <path d="M652.37,230.98c-13.34-5.3-26.6-10.98-41.07-12.4-30.38-2.98-58.49,3.57-77.53,28.34-14.72,19.15-22.73,42.24-16.55,67.54,1.67,6.84,4.01,13.61,10.28,17.96,5.64,8.01,11.54,15.77,19.22,21.99-11.96-3.71-18.57-13.65-26-22.54-29.03-34.71-13.03-76.87,15.82-99.46,21.23-16.62,45.68-23.2,72.49-22.04,13.38.58,24.03,7.31,34.55,14.36,2.97,1.99,7.01,2.59,8.8,6.25Z" style="fill: #dd2a3f; stroke-width: 0px;"/>
  <path d="M696.37,283.9c-4.87-17.03-13.62-31.47-27.99-42.21-1.14-.85-1.96-2.12-2.94-3.2-.11-1.56-2.1-3.2-.11-4.65,2.06-1.51,3.81.26,5.27,1.24,18.36,12.27,31.01,28.36,34.72,50.82,2.86,17.3-1.44,32.68-10.7,47.08-.78,1.22-1.53,2.53-4.1,2.87,2.12-6.39,4.32-12.38,6.08-18.5,3.2-11.13,3.57-22.32-.23-33.44Z" style="fill: #e88089; stroke-width: 0px;"/>
  <path d="M521.55,289.78c-2.52-22.29,10.93-36.6,26.55-48.15,26.39-19.52,55.65-21.43,85.94-9.15,2.52,1.02,4.71,2.47,6.52,4.5-6.28,2.53-11.69-1.63-17.52-2.47-31.6-4.52-59.38,3.23-83.22,24.63-.92.82-1.47,1.94-2.02,3.04-6.66,5.34-10.04,12.78-13.17,20.41-.99,2.41-.96,5.27-3.08,7.2Z" style="fill: #900f0a; stroke-width: 0px;"/>
  <path d="M537.8,262.17c1.84-6.78,7.99-9.77,12.91-13.19,24.58-17.05,51.54-21.9,80.6-13.96,3.03.83,6.16,1.31,9.25,1.95,8.08,4.11,16.53,7.58,23.54,13.56-1.96,1.62-3.04-.34-4.42-1.08-36.11-19.43-72-19.96-107.43,1.62-5.16,3.14-9.65,7.37-14.44,11.1Z" style="fill: #1a0e0b; stroke-width: 0px;"/>
  <path d="M520.19,298.76c.21-3.05-1.19-6.34,1.38-9.03-.23,3.04.78,6.28-1.38,9.03Z" style="fill: #900f0a; stroke-width: 0px;"/>
</svg>