<?xml version="1.0" encoding="UTF-8"?>
<svg id="Layer_1" data-name="Layer 1" xmlns="http://www.w3.org/2000/svg" viewBox="0 0 1044.3 1128.74">
  <path d="M934.32,251.61c7.48,9.73,8.71,21.04,7.49,32.65-1.85,17.54-8.13,34.21-10.86,51.58-5.74,36.41,4.15,68.34,28.32,95.93,10.07,11.5,21.63,21.68,30.91,33.88,6.8,8.94,10.42,19.19,10.53,30.54-.66.44-1.33.45-2.01.04-1.68-1.55-2.23-3.65-2.82-5.74-.46-2.1-1.89-2.74-3.68-1.95-4.98,2.18-10.57,4.3-12.63,9.58-6.22,15.91-18.32,27.35-29.66,39.11-24.43,25.33-39.35,54.96-43.03,89.91-1.3,12.34-1.24,24.78,1.86,37.16,3.89,15.51,6.47,31.33,9.7,47,3.51,17.01-11.02,39.59-32.21,44.51-1.65.38-3.27.35-4.71-.76-.97-1.31-1.13-2.77-.81-4.32,1.18-3.42,4.3-4.01,7.2-4.97,16.72-5.53,22.44-16.13,19.04-33.12-2.77-13.84-6.14-27.54-8.98-41.37-4.96-24.15-1.68-47.8,3.11-71.42,2.85-14.06,7.72-27.66,9.59-41.95.28-2.11.92-4.17-.01-6.22-3.55-7.81-2.59-16.1-2.65-24.28-.12-15.07-1.84-29.95-4.55-44.78-3-16.43-6.69-32.73-10.13-49.05-2.33-11.03-4.61-22.56-11.48-32.35-2.77-3.96-3.59-9.17-5.05-13.83-6.43-20.65-17.29-38.81-28.64-57.07-15.28-24.57-35.32-44.66-56.23-63.86-17.58-16.14-36.41-30.95-56.99-43.52-13.83-8.45-28.43-15.65-41.61-25.2-3.43-2.49-7.41-4.53-11.61-1.02-4.21.91-6.9-2.23-10.07-3.93-15.21-8.15-30.6-15.87-46.9-21.66-33.3-12.53-67.77-19.7-103.17-22.59-3.49-1.17-7.08-.9-10.67-.7-7.12.03-14.23.06-21.34.03-4.88-.17-9.77-.71-14.57.69-3.2.6-6.42.74-9.65.3-1.86-.5-3.85-1.05-3.61-3.52.18-1.83,1.73-3,3.32-3.29,11.77-2.11,22.33-7.83,34.18-10.4,22.17-4.81,44.4-4.5,66.54-4.4,19.89.09,39.89,1.72,59.82,3.13,12.42.88,24.62,3.28,37.09,3.9,9.63.48,19.32,2.99,28.84,5.25,3.99.95,7.93,2.13,11.69.23,4.27-2.17,8.26-4.27,13.32-2.58,2.46.82,3.77-1.37,4.74-3.32,1.58-3.17,4.04-5.33,7.53-5.78,5.75-.74,11.58-.47,16.19-5.32,1.75-1.85,4.62-.27,5.93,1.98,5.06,8.73,11.41,16.78,13.94,26.83,4.56,18.12,15.16,32.71,27.21,46.42,22.03,25.05,49.75,40.46,81.96,48.31,9.6,2.34,18.95,5.64,28.35,8.68,5.33,1.72,9.91,1.61,14.73-1.51,5.28-3.41,11.05-5.43,17.24-1.85Z" style="fill: #4376e2; stroke-width: 0px;"/>
  <path d="M934.32,251.61c-6.99-.41-13.52.52-19.2,5.23-2.65,2.2-5.92,2.43-9.35,1.22-21.89-7.73-44.89-12.09-66.16-21.68-11.6-5.23-22.36-12.09-31.89-20.29-12.45-10.71-23.61-22.85-32.69-36.75-4.94-7.56-9.22-15.56-11.11-24.22-2.44-11.22-9.64-19.74-14.47-29.58-1.74-3.53-4.15-2.86-5.78,0-2.39,4.17-5.2,4.66-9.95,3.84-4.6-.79-10.29.25-11.32,6.7-.83,5.22-4.17,4.71-7.18,3.14-3.53-1.85-5.93-1.52-8.66,1.3-1.8,1.86-4.45,2.64-7.17,2.37-8.18-.8-16.09-3.18-24.29-4.23-5.62-.72-11.19-2.58-17.12-2.97-11.86-.78-23.67-2.34-35.48-3.66-8.15-.91-16.35-.91-24.52-1.59-16.24-1.35-32.73-2.65-48.89-1.26-15.71,1.35-31.45.44-47.38,4-12.03,2.68-22.88,8.9-35.2,9.98-3.14.28-3.44,1.71-1.43,4.04-.87,3.88-4.26,3.08-6.78,3.4-23.37,2.97-46.32,7.79-68.63,15.4-26.12,8.91-51.14,20.16-74.43,35.09-3.55,2.28-7.19,4.49-11.46,5.28-3.7-.95-8.18,1.43-11.16-2.06-1.31-1.53,5.6-13.11,9.07-14.32,6.54-2.29,9.91-7.51,13.82-12.54,3.51-4.51,4.21-8.93,1.08-13.61-2.63-3.93-2.97-8.2-3.47-12.7-1.42-12.81-1.76-25.73-3.73-38.49-1.55-10.06,2.14-13.51,12.95-12.25,18.07,2.1,36.31,2.56,54.18-.34,33.39-5.41,62.6-19.95,86.83-43.85,7.04-6.95,14.1-13.85,21.78-20.11,11.25-9.16,24.85-9.53,36.28-.54,12.77,10.04,24.25,21.6,36.87,31.83,21.05,17.07,45.24,26.15,72.01,29.99,27.62,3.96,53.84-2,80.11-8.69,10.21-2.6,20.29-4.11,30.5-.07,2.63,1.04,5.56,1.36,8.32.28,4.85-1.89,9.23-.59,13.54,1.65,7.77,4.65,11.71,11.96,14.07,20.36.29.65.53,1.33.74,2.01,4.04,13.46,9.2,26.51,10.92,40.74,2.28,18.77,13.89,33.03,25.81,46.84,10.52,12.19,22.19,23.09,37.4,28.95,18.39,7.1,36.89,14.19,57.02,14.87,7.54.26,14.56,3.77,22.16,3.74.74.04,1.41.29,2,.74,1.32.5,1.24,1.74,1.47,2.81Z" style="fill: #5184eb; stroke-width: 0px;"/>
  <path d="M715.09,968.02c-1.42.02-2.84.05-4.26.07-.41-8.37-5.85-11.84-13.05-14.28-9.62-3.26-19.66-4.6-29.41-7.29-34.07-9.41-63.82-26.32-88.72-51.29-16.36-16.41-28.72-35.96-40.37-55.89-1.48-2.54-3.33-5.37-.8-8.44,3.7.31,4.67,3.59,6.35,5.99,7.82,11.16,14.14,23.37,23.74,33.27,2.41,2.48,4.25,5.56,7.83,7.37.48-2.84-1.3-4.58-2.29-6.55-12.81-25.64-20.76-52.74-20.33-81.42.45-30.21,9.19-58.37,25.98-83.82,27.05-41.01,65.27-64.82,113.59-70.85,33.19-4.14,65.16,2.37,94.58,19.18,5.92,3.39,12.23,6.09,17.91,9.9,4.21,2.83,8.07,2.47,12.53.2,13.83-7.05,13.89-6.89,23.62,4.9,1.95,2.36,4.13,4.52,6.65,6.3,7.98,8.42,15.16,17.33,17.5,29.14-.16.69-.31,1.69-.86,1.87-9.74,3.12-8.66,11.13-8.2,18.58.74,11.97,3.54,23.69,4.64,35.64,3.1,33.65-.21,66-15.47,96.89-14.65,29.65-36.05,52.65-64.09,69.57-10.24,6.18-21.06,11.49-32.52,15.28-5.5,1.82-9.79,5.01-13.24,9.95-3.75,5.37-9.83,8.68-14.01,13.84-1.81,2.24-4.97.86-7.32,1.9Z" style="fill: #242a4e; stroke-width: 0px;"/>
  <path d="M528.47,993.61l-5.65,2.67c-3.86-.29-7.18-1.42-8.68-5.47-3.24-8.64-9.17-13.99-18.48-15.4-10.48-1.58-18.38-7.55-26.07-14.48-12.91-11.63-24.91-24.4-39.6-33.92-19.06-12.34-39.87-19.33-62.53-22.25-21.2-2.73-41.06,2.64-61.31,6.5-9.69,1.85-19.1,5.08-29.02,5.84-6.96.54-13.55-.82-19.83-3.77-1.75-.82-3.27-1.93-3.25-4.17,1.8-2.02,3.9-.97,5.9-.51,8.89,2.06,17.67,1.61,26.54-.45,18.32-4.25,36.4-9.76,55.19-11.67,20.15-2.05,39.91.39,59.14,6.57,23.8,7.65,43.28,22.12,61.31,39.04,7.07,6.64,15.27,12.08,23.11,18.54.79-2.46-.25-3.24-.82-4.15-4.23-6.66-9.59-12.49-12.33-20.26-1.89-5.33-7.07-8.68-12.41-10.97-12.4-5.32-22.98-13.73-34.62-20.33-1.44-.82-3.2-1.83-3.49-3.36-1.36-7.07-7.42-11.3-10.24-17.49-2.28-5-6.31-8.47-10.96-11.61-9.93-6.68-18.47-15.2-27.48-23.03-11.38-9.89-22.61-19.73-35.76-27.33-12.43-7.18-22.7-17.48-34.81-25.24-2.85-1.83-7.01-5.45-.67-8.88,7.34,2.73,13.56,7.46,20.19,11.42,35.73,21.34,74.22,35.56,115.02,42.95,30.35,5.5,61.15,6.58,91.99,4.57,3.17.9,3.84,3.81,5.04,6.31,7.77,16.27,15.62,32.48,27.81,46.08,6.97,9.57,15.98,17.2,24.33,25.45,1.6,1.58,4.16,2.56,3.49,5.56-1.92,2.22-4.59,3.32-7.19,4.26-14.5,5.26-25.91,14.98-36.71,25.48-5.21,5.07-11.45,8.99-15.98,14.8-6.9,8.87-7.07,10.81-1.16,18.69Z" style="fill: #3c6cda; stroke-width: 0px;"/>
  <path d="M884.66,918.85c20.33,20.13,40.61,40.3,60.99,60.37,19.54,19.23,37.54,39.97,57.67,58.62.06,1.29-.77,1.65-1.84,1.75-5.26-1.79-7.85-6.77-11.93-9.98-9.11-9.1-18.12-18.29-27.77-27.64-.98,3.5,1.15,5.2,1.73,7.35.49,1.83,1.26,3.63-.4,5.26-1.62,1.59-3.45,1.1-5.26.44-4.38-1.6-8.12-4.54-13.01-6.77.16,3.83,2.14,5.88,3.76,8.02,18.16,23.98,36.06,48.16,53.6,72.6,4.37,6.08,9.2,11.89,13.75,17.87,4.16,5.46,3.24,9.5-2.49,13.23-4.49-2.1-6.48-6.67-9.79-9.96-36.89-36.69-73.42-73.74-110.57-110.17-11.24-11.02-22.82-21.75-33.98-32.87-2.31-2.3-4.79-3.45-8.15-3.34-3.46.11-4.08-1.85-2.18-4.54,1.91-2.71,4.36-4.94,6.98-6.95,9.28-7.09,16.34-16.18,23.03-25.6,1.93-2.57,2.31-6.34,5.85-7.68Z" style="fill: #282e51; stroke-width: 0px;"/>
  <path d="M880.3,927.44c-8.34,13.42-20.61,23.29-31.76,34.82,5.88-2.58,8.95.72,12.46,4.1,48.48,46.66,95.76,94.53,143.39,142.05,3.35,3.34,6.47,6.79,8.71,10.98.19,1.05-.03,2.03-.49,2.97-2.83,4.53-7.45,5.32-12.22,5.79-5.14,0-8.77-2.97-12.13-6.33-50.34-50.31-100.63-100.67-151.04-150.9-3.92-3.91-4.89-8.07-2.61-12.65,1.72-3.46.88-5.41-1.67-7.84-6.46-6.16-12.66-12.59-18.96-18.91-.44-.51-.72-1.09-.86-1.75-1.46-5.64.49-9.95,4.72-13.79,4.7-4.26,9.02-8.93,13.52-13.41,1.33-1.32,2.61-2.74,4.3-3.62,2.99-1.55,5.62-.68,7.46,1.83,2,2.72-.29,4.43-2.19,5.71-4.72,3.18-8.71,7.14-12.75,11.08-3.04,2.97-3.18,4.99.51,7.8,7.49,5.71,13.34,13.23,20.42,19.44,1.61,1.41,2.34,3.19,2.8,5.54,6.98-5.52,12.87-11.41,17.21-18.87,2.45-4.21,5.58-7.93,11.19-4.05Z" style="fill: #020623; stroke-width: 0px;"/>
  <path d="M814.11,930.08c-.04.48-.08.96-.12,1.44-.39.1-.78.14-1.18.13-7.18,1.32-13.66,4.03-19.92,8-14.34,9.07-30.26,14.77-46.25,20.24-3.72,1.27-7.76,2.02-10.46,5.33-6.85,2.3-13.85,3.41-21.08,2.79,8.6-2.83,14.31-10.18,19.15-16.42,5.62-7.24,12.43-10.15,19.9-13.01,36.85-14.1,65.92-37.89,85.38-72,13.92-24.41,21.83-50.98,21.41-79.85-.29-19.77-2.72-39.16-5.56-58.61-.67-4.61-.34-9.39-.14-14.08.26-6.12,4.91-8.27,9.76-10.1,2.7-.19,3.58,1.98,4.5,3.77,5.75,11.11,9.25,23.02,12.25,35.09.58,2.31.52,4.68-1.21,6.65-3.2-.21-3.35-2.97-3.92-5.08-1.34-5-2.96-9.89-5.03-14.68,4.43,18.28,8.06,36.65,8.03,55.59-.05,29.14-6.11,56.79-19.65,82.69-4.77,9.12-10.18,17.97-11.91,28.36.04.45-.03.87-.21,1.28-.6.38-1.21.35-1.81,0-4.21-3.52-7.71-.57-10.43,1.91-7.21,6.59-14.05,13.6-20.79,20.69-2.78,2.92-3.9,6.34-.71,9.87Z" style="fill: #404665; stroke-width: 0px;"/>
  <path d="M515.8,990.84c1.13,3.37,4.58,3.75,7.01,5.45-2.56.95-4.99,2.47-7.93,1.83-2.25.86-3.57-.81-4.85-2.03-6.04-5.75-13.68-8.35-21.44-10.14-9.47-2.18-17.86-6.26-24.71-12.89-8.11-7.85-16.82-15.04-24.83-23-25.32-25.17-56.42-35.87-91.54-34.77-14.3.45-28.27,4.64-42.18,8.11-14.5,3.61-28.97,5.96-43.92,2.81-11.24-2.37-20.92-8.29-31.17-12.94-6.54-8.41-8.18-18.78-11.17-28.55-5.83-19.06-10.7-38.46-22.97-54.81-2.31-8.09-7.04-14.79-12.55-20.9-14.98-16.6-32.56-29.06-54.69-34.53-18.05-4.46-35.56-10.94-53.93-14.21-6.8-6.51-11.29-14.28-12.89-23.63-.66-1.55-1.28-3.24.42-4.39,1.3-.88,2.7-.03,3.95.64.84.45,1.63,1.04,2.15,1.81,8.96,13.16,23.26,16.76,37.25,21.03,11.92,3.64,24.12,6.36,35.83,10.7,41.44,15.38,68.82,43.81,80.6,86.79,3.92,14.3,9.39,28.11,13.65,42.31,1.25,4.16,3.95,7.31,7.5,9.96,16.84,12.6,34.86,13.89,54.74,8.02,40.33-11.92,80.46-13.92,119.23,6.33,13.67,7.14,25.59,16.72,36.68,27.28,6.64,6.33,13.93,11.92,20.31,18.54,5.56,5.76,12.64,8.95,20.46,10.33,9.39,1.65,16.59,6.22,20.98,14.84Z" style="fill: #2352c8; stroke-width: 0px;"/>
  <path d="M515.8,990.84c-7.19-9.77-18.06-12.46-28.96-15.14-6.68-1.64-11.24-6.51-16.13-10.86-15.73-14-30.3-29.43-48.67-40.22-16.19-9.5-33.85-14.27-52.32-17.33-21.75-3.61-42.26,2.06-63.11,6.04-9.69,1.85-18.9,5.5-29.07,5.65-14.76.22-26.76-5.87-38.14-14.11-3.61-2.61-4.8-6.86-6.12-10.83-6.56-19.78-11.7-40.05-19.56-59.38-9.6-23.6-26.49-41.02-47.63-54.69-18.5-11.97-39.9-15.96-60.45-22.33-14.53-4.51-29.74-7.77-38.66-22.24-1.46-2.37-4.67-4.54-4.92,1.27-4.46-10.74-2.46-21.51-.34-32.36,3.77-19.23,11.04-37.85,10.65-57.81-.14-7.24-1-14.46-1.53-21.69,2.44-10.38-1.54-19.98-4.51-29.37-5.43-17.19-14.42-32.42-27.85-44.99-11.79-11.04-21.97-23.79-35.45-33.03-1.16-3.1-2.46-6.17-1.78-9.61-.9-4.48-.82-8.96-.06-13.44-.58-5.37.97-10.29,3.15-15.08,6.24-1.15,5.39,3.91,5.81,7.16.75,5.8-.19,11.7,1.42,17.52,2.18,7.88,5.62,14.78,11.52,20.66,9.14,9.11,18.52,18.02,26.88,27.9,17.29,20.42,27.76,43.93,32.45,70.22,3.99,22.38-.28,43.93-5.17,65.59-2.37,10.5-6.29,20.76-6.09,31.77.03,1.41.08,2.83.56,4.17.7,6.51,2.12,12.68,8.2,16.54,4.64,3.54,10.39,4.7,15.49,7.26,13.02,4.81,26.42,8.33,39.73,12.18,37.34,10.8,65.1,33.57,83.95,67.35,5.12,9.18,5.45,19.83,8.37,29.7,3.54,11.94,8.16,23.51,11.95,35.36,1.5,4.7,5.17,7.7,9,10.53,2.22,1.64,5.06,2.67,5.97,5.7,6.54,5.77,14.56,7.55,22.66,6.16,17.96-3.08,35.76-7.03,53.63-10.65,28.62-5.8,55.77-.7,82.11,10.87,17.05,7.49,31.06,19.14,44.42,31.76,6.14,5.8,12.39,11.48,18.65,17.15,6.29,5.7,13.93,8.38,22.16,9.79,9.6,1.66,15.14,7.77,17.81,16.84Z" style="fill: #3266d9; stroke-width: 0px;"/>
  <path d="M230.26,913.27c3.81-1.41,6.75.94,9.6,2.6,21.15,12.32,43.11,11.58,65.96,5.57,17.13-4.51,34.43-9.44,52.46-8.24,30.35,2.02,57.66,11.8,79.9,33.31,10.29,9.95,20.95,19.46,31.66,28.94,7.82,6.92,17.88,7.89,27.06,11.03,7.14,2.44,12.83,6.45,17.98,11.63-12.84,5.22-25.27,2.54-37.46-2.21-8.46-3.3-15.06-9.39-21.66-15.44-12.3-11.25-23.25-24.18-37.47-33.08-30.51-19.09-63.15-23.42-98.02-13.77-14.83,4.1-29.79,9.32-45.61,7.64-19.26-2.04-34.57-10.78-44.39-27.99Z" style="fill: #1945bc; stroke-width: 0px;"/>
  <path d="M997.72,490.59c.5,1.87,1.01,3.73,1.51,5.6,3.2,4.94-1.07,10.43,1.14,15.44-2.52,15.47-12.29,26.58-22.51,37.42-6.95,7.36-14.18,14.48-20.7,22.21-24.89,29.49-32.48,63.24-24.41,100.83,2.9,13.52,6.45,26.88,8.91,40.52,4.74,26.3-12.83,56.02-40.58,64.82-4.91,1.56-9.87,2.98-14.81,4.46-3.82-1.93-3.53-5.03-2.42-8.38,2.29-3.11,5.9-3.66,9.24-4.66,27.74-8.3,42.07-32.15,36.13-60.55-2.36-11.28-5-22.51-7.52-33.77-9.49-42.46.26-80.02,28.37-113.17,8.08-9.53,17.12-18.11,25.39-27.45,8.71-9.83,13.41-20.83,14.73-33.59.24-2.35.28-4.77,1.55-6.82,1.33-2.15,2.61-4.79,5.99-2.91Z" style="fill: #829fe9; stroke-width: 0px;"/>
  <path d="M775.71,94.93c3.47,6.68,5.11,13.98,7,21.19-.72,1.1-.35,2.98-2.14,3.29-1.81.31-2.21-.99-2.69-2.43-.57-1.74-1.05-3.55-2.03-5.14l-.03-.06c-6.53-26.47-35.64-44-62.6-38.28-17.01,3.61-33.78,8.24-51.06,10.72-18.75,2.69-36.49-1.38-54.1-6.51-20.86-6.07-37.83-18.59-53.13-33.62-7.22-7.09-14.8-13.81-22.32-20.56-16.38-14.72-40.08-13.85-57.39.74-13.32,11.23-24.56,24.74-38.78,34.93-34.58,24.8-72.44,32.25-113.8,21.64-10.46-2.68-21.22-4.13-31.64-7.07-12.19-2.97-23.51-1.04-34.08,5.75-3.01,1.93-4.37,4.69-5.11,7.98-2.02,1.98-4.39,2.19-6.11.07-1.98-2.45-.5-4.89,1.29-6.89,8.24-9.21,18.85-13.49,30.9-14.51,4.18-.36,8.41-.12,12.61-.06,14.67,2,28.89,6.21,43.38,9.12,23.91,4.8,46.59,1.24,68.99-7.23,15.51-5.86,28.18-15.85,40.16-26.84,7.78-7.14,15.32-14.56,23.12-21.69,21.55-19.68,55.39-18.35,73.99,1.21,7.48,7.86,15.16,16.03,24.6,21.93,12.96,10.63,26.66,19.8,42.84,25.14,23.86,7.87,47.76,9.05,72.09,2.73,12.05-3.13,24.19-6.08,36.46-7.97,21.03-3.24,37.4,5.8,50.57,21.66,2.99,3.6,5.32,7.75,9.01,10.76Z" style="fill: #719cf3; stroke-width: 0px;"/>
  <path d="M588.97,930.19c-7.53-7.55-15.11-15.05-22.54-22.7-2.1-2.15-3.77-4.72-5.64-7.1-11.92-15.95-21.87-33-28.76-51.75-.57-1.57-.92-3.13-.94-4.78.16-2.43.5-5.05,3.29-5.58,2.55-.49,3.49,2.07,4.51,3.78,9.58,15.96,19.78,31.46,32.05,45.54,14.84,17.03,32.21,30.84,51.95,41.78,16.99,9.41,35.14,15.84,53.61,21.54,5.83,1.8,11.73,3.65,16.86,7.11,2.33,1.57,4.79,3.65,3.82,6.91-.98,3.26-4.09,2.64-6.6,2.55-4.21-.14-8.46.6-12.64-.47-24.91-3.02-47.97-11.4-69.54-24.08-2.6-1.53-5.18-3.09-7.78-4.64-5-1.1-9.12-3.46-11.65-8.11Z" style="fill: #020726; stroke-width: 0px;"/>
  <path d="M775.71,94.93c-3.4.35-4.8-2.01-6.5-4.4-9.25-12.98-20.7-22.74-36.94-26.07-10.58-2.17-20.36,1.07-30.42,2.97-18.53,3.5-36.52,9.98-55.84,9.13-30.46-1.35-57.74-10.42-80.41-31.47-.5-.47-1.17-.76-1.77-1.14-8.55-7.32-17-14.92-24.67-23.01-18.91-19.96-53-20.61-73.67-1.08-12.11,11.45-23.72,23.51-37.03,33.62-17.39,13.22-37.26,19.78-58.78,23.25-23.15,3.73-44.45-3.65-66.36-7.97-12.58-2.48-25-5.77-38.04-1.53-12.11,3.94-21.77,10.61-29.04,21.06-2.36,3.39-4.26,8.25-10.13,6.58,4.5-14.18,14.99-22.96,27.48-29.57,14.63-7.74,30.08-7.37,45.81-3.69,18.68,4.38,37.07,11.2,56.53,10.47,29.8-1.11,56.45-10.66,78.33-31.89,10.44-10.14,21.11-20.11,32.33-29.37,17.29-14.27,48.84-14.23,66.74-1.15,13.56,9.91,24.79,22.32,37.21,33.44,18.18,16.27,39.62,24.21,63.39,27.94,23.94,3.76,45.98-4.13,68.39-9.54,29.45-7.11,55.07,2.2,70.79,27.01,1.25,1.97,2.72,3.86,2.59,6.4Z" style="fill: #a9bef7; stroke-width: 0px;"/>
  <path d="M70.61,725.19c-2.59-4.4-1.74-9.14-.79-13.63,3.71-17.39,8.62-34.58,11.37-52.11,2.47-15.79.98-31.78-2.79-47.49-4.51-18.79-12.79-36.01-24.05-51.31-8.67-11.79-19.51-22.13-30.21-32.23-11.27-10.64-16.15-23.22-15.76-38.4.1-3.94,1.51-8.76-4.04-10.74,2.66-8.73,8.35-15.48,14.28-22.13,13.19-14.8,28.69-27.64,38.55-45.26,2.72-4.86,5.11-9.9,7.64-14.86,3.55-.75,4.56-3.77,5.75-6.55,9.93-23.29,11.98-47.25,5.18-71.66-3.92-14.07-6.32-28.44-9.66-42.62-.98-4.15-2.14-8.16-4.24-11.88.34-5.37,2.82-9.89,5.69-14.25,6.21-.52,8.67,3.82,7.36,8.35-5.96,20.62,2.1,39.59,6.81,58.66,9.48,38.34,2.5,73.41-17.5,106.62-2.2,3.65-4.97,6.82-8.08,9.74-13.55,12.73-24.64,27.61-36.47,41.83-5.24,7.57-7.22,15.89-5.74,25,.21.71.35,1.43.44,2.16-.01,8.11,3.66,14.24,9.71,19.47,11.59,10,22.2,21.04,32.59,32.25,6.79,7.32,9.81,17.08,14.12,25.93,10.65,21.89,16.57,44.94,15.81,69.44-.4,12.99-3.62,25.55-6.52,38.13-1.64,7.09-2.57,14.36-5.24,21.2-2.89,5.08-.87,11.42-4.21,16.37Z" style="fill: #4477e3; stroke-width: 0px;"/>
  <path d="M775.87,111.84c.86,1.3,2.13,2.49,2.5,3.91,1.21,4.65,2.78,1.77,4.34.37,2.93,9.86,5.87,19.73,8.8,29.59-1.81,3.56-.44,6.95.72,10.25,6.8,19.37,20.24,33.5,35.88,46.1,18.4,14.81,40.64,20.34,62.55,26.61,14.88,4.26,28.37,11.02,40.68,20.28-5.26,3.16-9.76-1.21-14.68-1.49-19.3-1.09-37.65-6.35-55.94-12.33-12.73-4.16-25.24-9.81-34.12-18.96-17.17-17.71-36.48-35.13-39.75-61.65-1.84-14.86-8.15-28.25-11-42.67Z" style="fill: #6893ee; stroke-width: 0px;"/>
  <path d="M677.94,967.02c4.46-.07,8.92-.16,13.38-.21,1.92-.02,4.02,0,4.73-2.16.73-2.22-1.25-3.48-2.64-4.53-4.95-3.74-10.89-5.46-16.67-7.2-21.63-6.49-42.57-14.47-61.98-26.19-23.79-14.36-43.2-33.24-59.4-55.77-7.39-10.28-13.15-21.54-20.42-31.84-2.56.88-1.97,3-2.18,4.78-4.65-1.18-4.73-5.52-5.46-8.85-3.21-14.68-4.2-29.59-3.46-44.61.09-1.89.33-3.74,1.4-5.37,1.79-2.72,3.85-2.64,5.45-.05,1.74,2.81,2.6,6.07,2.51,9.38-.18,6.37,1.15,12.55,2.06,18.78.77,6.04,4.04,11.66,3.13,18,0,5.59,3.69,9.56,6.35,13.89,10.8,17.6,22.03,35,36.82,49.56,25.58,25.19,55.92,42.16,90.8,51.05,10.62,2.71,21.63,4,31.77,8.64,6.68,3.05,8.64,6.54,6.72,13.77-11.03,1.77-21.96.2-32.89-1.07Z" style="fill: #0f153d; stroke-width: 0px;"/>
  <path d="M814.11,930.08c-4.76-.8-5.38-3.19-2.54-6.78,8.3-10.48,17.66-19.92,28.19-28.15,3.49-2.73,6.57-3.25,6.8,2.73,1.67,3.99,4.52,6.76,8.6,8.24,4.85,2.61,8.26,6.75,11.62,10.95.26,2.71,1.47,5.23,1.6,9.03,2.89-3.88,6.19-6.08,9.2-8.65,2.62-.84,5.09-.9,7.09,1.4-1.45,2.86-2.9,5.72-4.36,8.58-6.8-1.81-8.9,3.37-11.56,7.75-4.82,7.97-11.44,14.02-20.11,18.78,2.65-4.6.8-7.03-2.62-9.77-7.66-6.15-13.17-14.69-21.85-19.84-3.16-1.87-1.12-4.09.53-5.76,4.79-4.83,9.35-9.93,15.24-13.53,1.38-.84,4.26-1.41,2.05-3.8-1.28-1.38-3.56-3.12-5.58-1.12-7.36,7.26-14.6,14.65-21.79,22.09-2.27,2.35,1.92,5.36-.52,7.84Z" style="fill: #23294b; stroke-width: 0px;"/>
  <path d="M588.97,930.19c3.89,2.7,7.77,5.41,11.65,8.11-17.19,6.93-30.41,19.21-43.55,31.74-8.94,8.53-16.98,18.26-28.6,23.58-8.1-3.33-8.7-5.79-4.21-14.05,5.79-10.65,16.24-16.67,24.48-24.83,11.35-11.24,24.72-19.81,40.23-24.54Z" style="fill: #7492e2; stroke-width: 0px;"/>
  <path d="M74.95,760.28c1.26-1.45,3.02-1.5,4.56-1.08,23.84,6.49,48.44,10.83,70.84,21.58,19.79,9.5,35.43,24.12,45.94,43.78,1.07,2,2.35,3.63-.17,5.35-12.4-14.94-26.28-28.19-44.21-36.23-14.15-6.34-29.36-9.71-44.13-14.25-12.49-3.84-24.38-8.48-32.82-19.15Z" style="fill: #1842b7; stroke-width: 0px;"/>
  <path d="M226.13,94.87c4.39-.85,6.53-4.29,8.7-7.63,10.29-15.86,25.89-22.63,43.78-24.38,5.82-.57,11.95,1.71,17.89,2.94,14.64,3.02,29.23,6.33,43.89,9.27,16.01,3.21,31.6.49,47.11-3.64,21.88-5.82,40.22-17.27,56.03-33.41,8.18-8.35,16.99-16.2,26.16-23.45,18.93-14.97,46.41-14.68,64.87,1.16,10.26,8.8,21.12,17.17,29.28,28.23-3.28-.06-4.81-2.74-6.73-4.69-8.4-8.53-16.97-17-26.68-23.9-18.68-13.27-46.03-10-63.04,5.37-13.03,11.77-24.76,24.99-39.16,35.27-16.94,12.1-35.74,18.74-56.27,22.11-23.77,3.91-45.94-2.88-68.53-7.61-4.11-.86-8.22-1.68-12.34-2.52-18.44-3.25-34.11,1.73-46.68,15.78-3.13,3.5-6.66,6.58-9.73,10.12-1.91,2.3-3.68,4.68-4.23,7.74-1.8,5.09-3.41,10.28-6.41,14.81-1.4,2.12-2.45,5.43-6.28,3.87,1.99-8.74,4.28-17.37,8.35-25.42Z" style="fill: #81acfc; stroke-width: 0px;"/>
  <path d="M884.99,773.39c-.35,2.95-.17,5.82,1.28,8.5-1.47,23.4-4.01,46.56-12.75,68.66-6.49,16.42-14.74,31.77-25.46,45.78-1.38-7.68,1.76-14.11,5.41-20.52,12.77-22.47,20.74-46.23,23.14-72.32,2.25-24.53-.63-48.09-6.85-71.57-.77-2.91-1.42-5.89,1-8.92,4.87,8.5,6.2,17.84,9.79,26.33.61.26,1.06.7,1.33,1.31.07,1.44.15,2.88.22,4.32,5.24,5.47,5.73,11.69,2.89,18.43Z" style="fill: #75788b; stroke-width: 0px;"/>
  <path d="M61.84,264.32c2.7.23,4.1,1.58,4.61,4.36,4.5,24.78,12.83,48.83,15.18,73.95,1.31,13.94-1.39,27.94-6.43,41.23-1.41,3.72-2.65,7.51-4.23,11.15-1.2,2.74-2.83,5.29-6.16,2,2.57-10.69,6.07-21.12,7.27-32.18,2.17-19.94-3.43-38.68-7.75-57.68-3.21-14.12-7.95-28.2-2.49-42.85Z" style="fill: #3368dc; stroke-width: 0px;"/>
  <path d="M3.03,517.41c7.55.3,11.29,6.62,16.02,10.87,8.14,7.31,15.21,15.81,23.08,23.44,18.34,17.77,26.68,40.31,31.12,64.67.48,2.64,2.23,6.75-2.41,8.41-4.17-13.54-8.05-27.07-15.53-39.44-6.94-11.46-16.59-20.36-25.31-30.15-9.49-10.67-20.52-20.12-26.01-33.87-.52-1.3-1.5-2.41-.96-3.94Z" style="fill: #2353c9; stroke-width: 0px;"/>
  <path d="M794.24,151.34c5.73,9.39,11.26,18.84,18.77,27.09,13.86,15.22,29.85,26.67,49.74,32.91,15.41,4.84,31.32,8.27,46.13,14.88,8.43,3.77,15.78,9.13,20.74,17.22-1.79,3.42-4.5,2.51-6.42.68-15.29-14.64-35.71-17.39-54.63-23.16-20.72-6.31-39.08-16.04-54.42-31.28-8.72-8.66-15.89-18.53-21.34-29.56-1.49-3.02-2.1-6.36,1.42-8.79Z" style="fill: #a3b8f1; stroke-width: 0px;"/>
  <path d="M71.88,243.11c7.36-9.53,16.72-16.23,28.25-19.8,12.04-3.72,24.05-7.51,36.13-11.09,30.37-9,52.02-28.62,67.91-55.35.58-.98,1.39-1.83,2.09-2.74,4.16,3.28,2.95,7.07.68,10.62-13.95,21.89-31.97,39.13-56.27,49.23-13.23,5.5-26.97,9.41-40.76,13.16-10.77,2.93-20.68,7.48-29.28,14.78-2.44,2.07-5.22,5.54-8.76,1.19Z" style="fill: #a7bef8; stroke-width: 0px;"/>
  <path d="M1000.39,1128.15c3.81-2.48,9.17-2.48,11.59-7.2,2.97-.92,5.57-2.43,7.33-5.05,4.08-6.05,10.61-9.96,14.14-16.51,3.58-6.63,3.06-12.48-2.22-18.03-12.65-13.3-24.48-27.33-36.65-41.05-2.04-2.3-4.19-4.52-5.38-7.38-.64-1.55-1.8-3.69,1.47-3.97,3.75,3.35,7.49,6.69,11.24,10.04,8.52,4.71,13.09,13.54,20.39,19.52,2.04,1.67,3.12,4.75,6.45,4.65,19.33,13.44,19.54,27.49,6.61,45.12-7.48,10.2-17.28,17.71-30.23,20.12-1.63.3-3.21.68-4.75-.25Z" style="fill: #585c73; stroke-width: 0px;"/>
  <path d="M794.24,151.34c-1.77,4.21-1.03,7.76,1.45,11.79,16.84,27.23,39.66,46.45,70.97,55.04,12.42,3.41,24.74,7.26,36.91,11.45,6.91,2.37,13.18,6.24,18.16,11.81,2.21,2.47,4.51,4.23,7.88,2.03,1.14,1.75,3.36,2.84,3.22,5.35-.5.05-.99.09-1.49.14-9.42-2.09-16.04-9.47-24.84-12.91-15.75-6.14-32.36-9.49-48.13-15.47-28.66-10.87-50.78-29.36-64.97-56.79-2.47-4.77-4.39-9.85-4.83-15.32-.17-2.1-.06-3.98,2.93-2.74,2.05,1.33,1.34,3.99,2.72,5.64Z" style="fill: #719cf3; stroke-width: 0px;"/>
  <path d="M18.32,474.98c4.53-9.76,13.82-15.74,19.52-24.51,8.18-12.59,21.83-20.36,28.76-34.15,8.92-17.76,14.77-36.06,17.06-55.98,2.6-22.65-4.66-43.44-9.12-64.8-2.49-11.94-5.79-23.6-1.34-35.82,1.79-4.91-1.14-7.98-5.67-9.65.38-1.85,1.34-3.29,3.01-4.23,1.84-.18,3.62.14,5.41.54,4.82,1.94,5.75,5.48,3.27,9.64-4.69,7.83-4.55,16.14-2.91,24.59,2.36,12.23,4.92,24.42,8.32,36.43,6.6,23.35,4.28,46.59-1.7,69.63-6.42,24.73-19.42,45.67-37.73,63.37-7.44,7.19-13.76,15.4-20.86,22.9-1.62,1.71-2.87,3.77-5.57,3.84-.86-.42-1-1.02-.44-1.79Z" style="fill: #6b9bf5; stroke-width: 0px;"/>
  <path d="M74.88,247.47c-1.64-.03-3.38.21-4.34-1.64.05-1.1.23-2.15,1.35-2.73,3.2,1.83,5.28-.24,7.39-2.15,9.66-8.74,21.29-12.99,33.74-16.3,30.38-8.06,59.66-18.58,80.41-44.24,4.55-5.63,8.48-11.77,12.81-17.58,2.23-2.99.6-5.81.03-8.71,1.17-3.39,2.05-6.91,4.23-9.86,6.1,2.55,3.93,7.03,2.67,11.31-15.58,38.67-46.39,58.59-84.84,69.56-16.17,4.62-32.91,8.32-46.3,19.68-2.05,1.73-4.66,2.06-7.15,2.65Z" style="fill: #81acfc; stroke-width: 0px;"/>
  <path d="M217.78,120.29c7.43-4.51,8.15-12.8,11.15-19.8,1.38-1.49,2.12-4.15,5.07-2.8,2.27,1.95,2.34,4.57,2.22,7.26-3.04,12.71-7.36,25.03-11.14,37.52-.75,2.47-1.87,4.78-3.72,6.67-1.46,1.29-3.06,2.09-5.06,1.47-3.77-1.91-1.36-7.1-4.85-9.17,2.11-7.05,4.21-14.1,6.32-21.15Z" style="fill: #6a94ef; stroke-width: 0px;"/>
  <path d="M736.17,965.23c-1.57-4.98,2.92-4.62,5.27-5.42,12.6-4.3,25.12-8.79,37.19-14.41,5.71-2.66,11.79-5.15,16.53-9.12,5.49-4.6,11.2-5.27,17.65-4.62-21.57,16.76-45.97,27.42-72.47,33.5-1.32.3-2.77.06-4.17.07Z" style="fill: #7b7e8c; stroke-width: 0px;"/>
  <path d="M211.46,141.44c1.39-.17,3.29-1.35,3.29,1.45,0,2.48.11,4.89,1.45,7.08,1.01,2.18,4.93-.51,5.12,3.06-.2,3.53-2.32,6.11-4.38,8.66-1.16,1.45-2.69,3.17-4.72,2.24-2.04-.93-1.7-3.13-1.29-5,.25-1.12.22-2.35,1.02-3.31.14-3.86,2.68-8.03-1.45-11.35.32-.94.64-1.88.96-2.83Z" style="fill: #719cf3; stroke-width: 0px;"/>
  <path d="M1028.76,1063.16c-1.32,1.6-2.46.65-3.45-.35-7.81-7.92-15.59-15.88-23.38-23.82.47-.38.93-.77,1.4-1.15,9.92,6.99,15.85,17.99,25.43,25.32Z" style="fill: #363c5d; stroke-width: 0px;"/>
  <path d="M877.58,917.45c-.61,5.66-8.09,5.99-8.37,12.99-3.48-5.1-3.74-9.12-2.43-13.38,3.42,5.03,7.22-.31,10.8.39Z" style="fill: #020623; stroke-width: 0px;"/>
  <path d="M855.15,906.11c-5.87.38-9.11-1.98-8.6-8.25.43-.08.86-.16,1.28-.25,2.24,3,5.95,4.74,7.31,8.5Z" style="fill: #020623; stroke-width: 0px;"/>
  <path d="M1000.36,511.62c-2.57-4.99-.62-10.3-1.14-15.44.49,0,.98,0,1.47.01,2.39,5.2-.51,10.28-.33,15.43Z" style="fill: #5a86e6; stroke-width: 0px;"/>
  <path d="M1.19,494.36c.02,4.48.04,8.96.06,13.44-1.55-4.47-1.75-8.95-.06-13.44Z" style="fill: #4477e3; stroke-width: 0px;"/>
  <path d="M304.01,205.17c17.48-10,34.61-20.59,53.17-28.65,29.59-12.84,60.14-22.12,92.14-26.5,5.28-.72,10.5-1.88,15.74-2.83,3.27-.09,6.54-.18,9.8-.26,4.71-1.37,9.67.48,14.36-1.09,7.35,0,14.71,0,22.06.01,3.26,1.45,6.83-.17,10.12,1.02,36.05,2.5,71.07,9.66,104.69,23.16,7.95,4,16.03,7.74,24.02,11.66,25.23,12.36,49.05,27.02,71.09,44.33,20.75,16.3,39.73,34.55,54.42,56.75,5.59,8.44,11.42,16.86,7.26,28.07-1.12,3.02.58,6.48,1.06,9.73.34,2.32.99,4.95-1.58,6.34-2.42,1.31-4.6-.2-6.44-1.67-4.24-3.39-8.17-7.16-11.31-11.59-3.47-4.9-8.31-6.9-13.95-7-14.05-.25-28.15-1.21-42.1,1.5-2.1.41-4.51.92-6.25-.17-7.82-4.88-16.67-7.2-25.03-10.72-6.36-2.68-13.65-3.45-19.05-8.49-1.34-1.25-3.64-.37-5.46.15-2.17.62-4.4.6-6-1-4.63-4.64-9.92-4.36-15.72-2.95-5.47,1.34-11.24-1.2-16.77,1.06-12.55,5.13-25.07,10.3-35.75,18.94-.55.44-1.07,1.1-1.71,1.23-10.15,1.92-14.6,11.13-21.68,16.96-2.96,2.44-5.61,4.9-9.83,4.77-4.31-.14-6.13,3.18-7.52,6.44-2.01,4.73-5.1,8.38-9.37,11.17-5.73,3.73-11.46,7.45-14.87,13.73-.8,1.47-2.3,2.41-3.88,2.94-4.39,1.47-7.3,4.08-7.79,8.97-.16,1.63-.75,3.27-2.54,3.94-8.63,3.24-13.61,10.44-18.86,17.35-.28.37-.45.93-.84,1.12-11.73,5.9-16.21,19.16-26.72,26.31-1.58,1.08-3.18,2.07-5,2.55-9,2.38-16.17,8.22-24.02,12.75-6.18,3.57-13.18,3.19-19.82,4.42-17.09,3.16-34.61,3.51-51.64,6.54-15.13,2.69-30.59,5.55-44.41,13.24-1.69.94-3,2.24-4.18,3.73-8.76,6.67-16.3,14.73-24.74,21.76-16.05,13.38-17.81,35.45-4.22,51.17,1.93,2.1,4,4.1,4.95,6.89,6.33,15.32,15.58,28.99,24.67,42.68,13.54,20.36,27.82,40.25,42.91,59.47,9.81,12.5,21.05,24,34.18,33.26,12.5,8.81,23.79,19.26,36.65,27.5,11.1,7.11,21.88,14.61,32.43,22.49,11.47,8.58,19.57,19.1,19.73,34.11.16,15.57,4.86,30.6,5.02,46.18.09,8.95-1.53,10.94-10.66,11.59-21.67,1.54-42.73-1.93-63.44-7.8-43.53-12.34-83.28-32.23-118.62-60.61-33.27-26.71-62.49-57.19-84.67-93.85-15.94-26.34-26.96-54.77-34.72-84.56-2.61-10.03-4.67-20.16-7.28-30.17-1.48-5.68-3.06-11.38-7.18-15.92-.35-.7-.58-1.43-.73-2.19-.51-4.32.12-8.76-1.39-12.97-.82-9.36-.9-18.72.01-28.08,1.66-5.24.95-10.63.95-15.97-.27-10.2,2.18-20.1,3.33-30.13.39-1.87,1.08-3.69,1.1-5.64,1.49-8.06,3.34-16.03,5.98-23.81,5.27-19.13,11.48-37.94,19.9-55.95,13.16-30.67,30.95-58.34,52.85-83.56,13.91-16.02,29.56-30.17,44.93-44.64.99-.9,2.08-1.68,3.2-2.42,8.67-5.09,15.47-12.99,25-16.79Z" style="fill: #e5e6e7; stroke-width: 0px;"/>
  <path d="M302.51,462.6c6.31-8.85,16.61-9.82,25.78-12.8,17.62-5.72,36.05-7.32,54.33-9.03,11.58-1.08,22.81-3.86,34.31-5.06,6.63-.69,10.82-6.09,16.71-8.43,3.55-1.41,6.8-4.33,10.86-5.7,9.66-3.25,16.73-9.94,21.55-18.73,1.92-3.5,3.59-6.51,7.88-7.05,2.61-.33,3.83-2.33,5.23-4.3,5.24-7.32,10.08-15.18,19.59-17.77,1.62-.44,1.56-1.54,1.49-2.65-.35-5.99,2.73-9.1,8.31-10.37,1.29-.3,3.2-.95,3.54-1.9,2.58-7.27,8.76-10.85,14.83-14.17,6.13-3.36,8.09-9.41,11.27-14.74,1.76-2.96,3.53-5.76,7.75-3.82,2.77,1.27,4.52-.64,6-2.43,3.82-4.61,9.84-7.17,12.1-13.27.43-1.17,1.96-2.7,3.05-2.75,7-.34,10.63-6.97,15.86-8.92,11.68-4.35,21.07-13.58,33.73-15.32,7.5-1.03,15.24.93,22.7-1.76,1.15-.41,3.4.68,4.42,1.76,3.52,3.7,7.06,6.02,12.04,2.54.43-.3,1.68-.17,1.99.21,5.32,6.62,14.74,4.92,20.64,10.25,1.32,1.19,2.64,1.39,4.4,1.49,2.74.15,6.11.39,8.01,2,10.68,9.06,22.56,6.43,34.5,4.35,1.83-.32,3.76-.29,5.63-.2,7.83.4,15.65.99,23.48,1.3,5.25.21,8.68,2.97,11.46,7.1,3.18,4.72,7.52,8.39,11.74,12.12,1.12.99,2.82,2.3,4.42,1.13,1.23-.9.81-2.6.39-3.96-1.84-5.9-2.77-11.7.08-17.67,1.15-2.42-.09-5.01-1.2-7.43-5.74-12.52-14.21-23.18-23.13-33.45-26.98-31.04-60.67-53.53-96.02-73.58-10.09-5.72-20.05-12.2-31.39-15.61-2.19-.66-3.59-2.13-4.76-3.95,19.4,6.64,37.4,16.18,55.08,26.4,3.18-.97,5.39,1.17,7.7,2.61,28.95,18.01,54.26,40.25,76.87,65.71,21.38,24.08,38.74,50.76,52.79,79.67,16.9,34.77,27.36,71.45,32.54,109.7.79,5.83,1.77,11.61,1.59,17.53.02,4.28-.3,8.58,1.1,12.74.83,8.87.89,17.75,0,26.61-1.56,4.7-1,9.57-1.03,14.38-2.05,28.21-7.37,55.81-16.44,82.6-3.01,8.88-5.75,17.89-9.64,26.45-1.72,3.8-2.86,8.03-6.76,10.44-2.42.78-4.22-.56-6.05-1.78-1.57-1.28-3.2-2.49-4.95-3.54-3.55-3.07-8.77-4.34-10.4-9.51-.56-2.63.32-5.13.64-7.69,1.28-10.07-1.96-15.41-11.19-19.51-22.26-9.9-45.42-16.82-69.33-21.37-6.01-1.14-11.88-2.91-17.81-4.44-15.37-3.98-23.86-25.48-19.48-38.88,5.84-17.87,18.24-30.97,29.33-45.26,15.39-19.85,32-39.06,40.37-63.38,4.38-12.72,8.73-25.65,3.24-39.16-4.66-11.45-13.59-19.67-22.39-27.83-7.62-7.07-16.12-12.97-25.6-17.37-7.57-5.15-14.9-10.47-24.67-11.15-13.14-.92-23.18,4.98-32.12,13.47-11.24,10.68-23.3,20.46-34.37,31.32-1.18,1.16-2.51,2.12-4.1,2.69-8.48,1.17-13.04,8.26-18.46,13.36-7.63,7.19-17.03,12.58-22.93,21.61-1.05,1.61-3.04,2.17-4.77,2.9-4.04,1.69-6.16,4.9-7.17,9-1.7,2.78-3.9,5.04-6.82,6.54-9.11,4.14-16.67,10.52-23.78,17.29-12.8,12.19-26.63,23.03-41.28,32.8-6.75,4.5-12.61,10.57-21.3,11.99-17.47,2.85-33.04-1.27-48.78-9.27-20.45-10.39-41.27-20.46-64.01-25.37-6.32-1.36-12.59-1.4-18.87.19-5.37.51-10.55-1.73-15.93-1.03-4.93-1.23-9.39,3.75-14.43,1.1Z" style="fill: #e0e0e0; stroke-width: 0px;"/>
  <path d="M852.01,511.42c0-9.16-.02-18.33-.03-27.49-1.3-4.28.33-8.78-.97-13.06-4.57-49.97-18.23-97.29-42.2-141.4-18.45-33.95-42-64.1-70.5-90.25-17.6-16.15-36.51-30.62-57.12-42.78-.24-3.05,1.19-4.53,4.18-3.98,2.29.42,4.82.79,6.68,2.03,21.6,14.43,44.29,27.11,66.08,41.25,12.64,8.2,23.19,18.82,34.07,28.57,20.42,18.32,40.77,37.26,55.01,61.57,5.5,9.4,12.64,17.99,17.58,27.74,7.24,14.27,13.76,28.91,17.31,44.69.81,3.62,4.17,6,5.58,9.64,6.45,16.61,8.57,34.23,12.8,51.35,3.03,12.28,4.92,24.74,7.27,37.1,2.03,10.64,1.32,21.79,2.09,32.7.53,7.5-1.05,15.1,2.93,22.44,2.77,5.12-1.01,10.84-2,16.06-3.27,17.19-8.85,33.89-11.24,51.34-2.26,16.58-3.52,33.07-.02,49.6,3.39,15.99,6.96,31.95,10.31,47.95,2.83,13.54-6.07,26.97-20.4,30.92-2.69.74-5.66.66-7.53,3.24-.44-.44-.89-.87-1.33-1.31-2.19-16.15-7.27-31.32-15.56-45.39-3.67-10.19-9.83-18.83-16.81-26.96-7.94-9.73-16.39-18.95-26.11-26.97-1.6-1.32-4.28-2.32-3.64-5.34,3.98-2.74,5.02-7.36,6.55-11.36,10.73-28.1,20.39-56.49,23.06-86.79.61-6.91,2.52-13.74,2.99-20.74,1.33-4.72-.4-9.66.99-14.38Z" style="fill: #3b6ad7; stroke-width: 0px;"/>
  <path d="M884.99,773.39c-.34-6.24-.54-12.5-2.89-18.43,18.23-3.88,29.89-14.68,34.45-32.85,2.22-8.86-1.63-17.07-3.07-25.52-3.65-21.37-10.92-42.23-9.01-64.38,2.7-31.37,12.83-59.81,33.52-83.96,10.2-11.91,20.77-23.51,30.99-35.41,2.42-2.81,5.02-6.02,5.91-9.47,2.26-8.76,8.87-12.63,15.88-16.7,5.25-3.04,6.79-1.22,6.95,3.91-4.28.43-5.49,3.83-5.48,7.05.09,19.46-10.51,33.45-23.25,46.37-12.19,12.35-24.69,24.48-32.93,40-13.8,25.97-19.79,53.43-14.03,82.7,3.06,15.58,6.93,30.99,10.25,46.52,4.98,23.33-12.86,50.59-37.2,57.13-3.39.91-6.72,2.02-10.08,3.03Z" style="fill: #5a86e6; stroke-width: 0px;"/>
  <path d="M939.11,283.96c-1.24,13.59-5.64,26.47-8.51,39.69-2.18,10.05-3.76,20.16-4.94,30.35-.26,2.24.59,5.35-2.46,5.84-3.11.5-4.18-2.56-5.19-4.87-5.37-12.26-3.51-24.69-.52-37.05,2.53-10.44,5.5-20.77,8.15-31.17.72-2.82,1.98-5.2,4.02-7.26,1.79-1.8,3.82-3.05,6.26-1.89,2.57,1.21,3.51,3.58,3.16,6.37Z" style="fill: #6f92e6; stroke-width: 0px;"/>
  <path d="M489.23,145.84c-4.67,1.91-9.54,1.14-14.36,1.09,4.63-2.42,9.56-.87,14.36-1.09Z" style="fill: #5184eb; stroke-width: 0px;"/>
  <path d="M521.41,146.88c-3.41.01-6.9.79-10.12-1.02,3.39.15,6.94-1.22,10.12,1.02Z" style="fill: #5184eb; stroke-width: 0px;"/>
  <path d="M277.11,225.18c-15.87,15.03-32.13,29.67-46.3,46.42-13.71,16.21-25.83,33.45-36.35,51.92-5.33,9.36-10.01,18.97-14.63,28.66-3.38,2.88-5.03,1.06-5.8-2.31-.5-2.15.35-4.21,1.41-6.07,3.2-5.63,2.56-10.72-1.74-15.54-3.89-4.36-4.51-9.17-1.41-14.27,1.24-2.05,2.62-4.25,1.67-6.61-3.74-9.3-3.08-19.37-5.3-28.92-1.62-6.93-6.48-11.93-10.35-17.48-7.67-10.99-6.88-15.65,5.05-21.5,32.25-15.82,54.83-41.68,73.07-71.52,7.21-11.79,9.2-26.08,13.28-39.33,2.7-8.76,5.42-17.51,8.45-26.17,1.88-5.37,5.65-9.17,9.61-12.84,3-2.79,4.64-5.05.49-8.44-3.4-2.77-1.77-5.36,1.57-7.07,1.89-.97,3.92-1.61,6.06-1.8,11.03-.83,21.24,3.33,31.79,5.35,17.47,3.33,34.58,8.35,52.78,7.47,20-.96,38.77-5.98,57.02-13.75,2.99-1.27,7.04-5.19,9.28-1.22,2.22,3.94-2.6,6.35-5.71,8.3-2.77,1.74-5.77,3.12-8.88,4.24,19.9-5.71,36.01-17.27,50.01-32.17,5.63-6,12.8-10.36,18.06-16.78,1.46-1.79,3.28-3.25,2.32-6.14-2.31-6.91-1.58-9.02,4.83-11.56,10.87-4.31,21.84-4.59,32.92-.19,9.77,3.88,16.35,11.74,23.86,18.4,11.78,10.43,22.63,21.94,36.09,30.36,17.42,10.89,36.52,16.22,56.79,19.2,22.41,3.3,43.12-3.56,64.31-7.94,9.39-1.94,18.62-4.48,28.4-3.7,13.76,1.1,24.19,8.15,33.28,17.82.49.52.31,1.33.09,2.01-5.09-1.15-9.89-4.16-15.42-.43-2.56,1.73-6.18-.33-8.76-1.44-8.36-3.6-16.53-2.38-24.82-.41-10.93,2.59-21.77,5.58-32.76,7.83-15.92,3.27-31.89,3.48-48.17,1.81-19.71-2.02-38-7.46-55.46-16.61-11.34-5.94-21.04-13.94-30.57-22.28-9.34-8.17-18.56-16.48-28.28-24.18-9.81-7.77-22.98-7.24-32.21.86-7.23,6.34-14.31,12.87-21.12,19.66-26.03,25.92-57.63,41.26-93.62,45.93-16.44,2.13-33.59,2.37-50.35-.68-9.06-1.65-13.15,1.69-10.29,9.92,2.81,8.09.16,16.06,2.16,24.04,1.62,6.45,2.41,13.38,1.7,20.22-.27,2.67,1.75,4.16,3.02,6.11,3.53,5.4,4.07,10.43-.75,15.92-4.84,5.52-8.49,11.55-16.36,14.13-3.78,1.24-3.9,8.21-7.67,11.72,3.8-.84,7.24-.14,10.62,1.02-7.67,6.59-15.78,12.59-24.25,18.11-2.44-1.55-2.03.91-2.66,1.9Z" style="fill: #6193f2; stroke-width: 0px;"/>
  <path d="M763.12,92.02c-14.58-15.68-31.75-21.97-53.23-16.62-20.15,5.02-40.27,11.59-61.33,10.82-32.84-1.21-62.58-11.15-87.13-34.04-10.29-9.6-20.79-18.97-31.22-28.43-10.45-9.47-31.22-12.69-42.99-6-1.81,1.03-10.9,3.24-2.13,8.52,2.08,1.25,1.27,4.02-.4,5.59-22.51,21.1-42.72,45.41-74.49,53.67-1.33.35-2.6,1.24-4.16-.51,5.71-6.22,16.32-5.86,21.5-16.32-4.82,2.24-7.8,3.83-10.92,5.05-30.58,11.85-61.62,16.83-94.3,8.89-15.37-3.74-30.67-8.58-46.75-8.99,1.16-4.26,4.55-1.69,6.8-1.95,2.84-.33,5.91-.85,8.74.53,21.66,3.41,42.46,11.49,64.8,11.39,31.16-.14,59.17-9.24,83.3-28.97,11.56-9.45,22.36-19.86,33.15-30.21,18.71-17.94,45.91-17.69,64.58.21,14.87,14.26,29.19,29.27,46.98,40.17,16.51,10.12,34.74,14.53,53.68,17.44,26.5,4.06,50.75-6.24,75.89-10.75,18.74-3.37,34.55,1.34,48.26,14.53,7.5,7.22,13.58,14.86,14.09,25.74-2.81-7.5-6.47-14.46-12.71-19.76Z" style="fill: #6a94ef; stroke-width: 0px;"/>
  <path d="M607.35,841.16c-1.31-2.29-2.63-4.59-3.94-6.88.14-.31.29-.63.42-.95,2.26-2.31,5.35-2.87,8.23-3.81,41.2-13.47,78.38-34.46,111.76-61.81,13.74-11.26,27.1-23.33,38.14-37.54,7.45-5.86,11.44-14.74,18.37-21.07.73-.13,1.43-.03,2.1.27,10.37,7.73,15.99,18.98,21.49,30.07,6.32,12.74,9.13,26.6,10.21,40.77.11,1.43-.15,2.81-1,4.02-3.11-2.57-4.38.4-6.11,2.03-10.3,9.7-19.28,20.53-26.46,32.7-10.55,17.88-16.23,37.27-16.77,58.1-1.41,3.94-4.98,5.53-8.28,7.21-13.07,6.66-26.72,11.14-41.51,12.58-28.91,2.82-55.02-4.18-78.23-21.35-10.59-7.84-19.75-17.36-26.98-28.53-1.16-1.79-2.46-3.51-1.44-5.83Z" style="fill: #1842b7; stroke-width: 0px;"/>
  <path d="M607.35,841.16c19.99,31.64,47.81,50.63,85.75,53.88,25.72,2.2,49.21-3.3,70.32-18.34,4.41-5.72,10.9-9.23,15.59-14.66,13.56-13.96,23.38-30.02,27.61-49.22,2.03-5.8,2.59-11.85,3.21-17.9.83-2.39.89-4.91,1.1-7.4.17-1.11.54-2.12,1.36-2.92-.69-26.39-9.34-49.76-26.47-69.93-1.36-1.6-2.73-3.19-4.1-4.78-.19-1.53.05-2.84,1.67-3.51,3.72.39,5.56,3.28,7.56,5.85,8.87,11.39,15.49,24.13,21.9,36.99,1.11,2.23,1.35,5.03,4.92,6.82-.72-11.91-2.24-23.07-7.48-33.13-15.92-30.56-40.32-50.37-74.57-57.22-3.73-.75-7.46-.98-11.23-.94-7.46.08-15.33-.66-17.61,9.29-4,.87-7.99,1.69-11.62-1.14-.93-5.09-5.71-3.64-10.76-5.43,8.96-3.31,16.09-6.83,23.62-8.55,16.22-3.7,32.27-1.48,47.53,4.68,26.68,10.78,46.96,28.63,59.37,55.07,6.6,14.06,10.24,28.46,8.99,44.09-.37,4.58.91,9.28,1.24,13.94,1.24,17.19-6.22,32.4-10.94,48.26-3.89,13.06-8.88,25.57-15.85,37.28-3.22,9.29-9.26,15.97-18.38,19.78-4.77,1.08-7.88,4.87-11.75,7.38-31,20.13-64.19,24.15-99.59,14.73-14.99-3.99-27.86-12.04-41.02-19.65-2.03-1.17-3.82-3.07-5.98-3.62-19.56-5.03-21.93-22.64-27.65-37.68-1.43-3.77,1.35-3.92,3.97-2.64,3.06,1.5,6.02,2.82,9.26.58Z" style="fill: #151b40; stroke-width: 0px;"/>
  <path d="M818.42,644.68c11.04,9.74,22.14,19.41,29.75,32.31-6.07-2.85-8.61-9.13-13.08-13.54-2.94-2.9-5.23-4.03-8.98-1.08-2.88,2.26-6.59,3.48-9.93,5.15-3.22,1.61-5.98,1.19-9.22-.71-16.2-9.49-32.4-19.08-50.68-24.21-31.67-8.89-62.97-9.53-94.59,1.5-23.41,8.16-43.82,20.62-60.91,38.07-23.97,24.48-38.77,54.2-43.73,88.08-4.51,30.86,1.32,60.58,13.79,89.06,2.16,4.95,4.02,10,7.18,14.47,1.52,2.15,2.67,5.48.57,7.14-2.42,1.9-3.88-1.63-5.41-3.07-12.41-11.73-20.93-26.4-30.24-40.46-1.41-2.13-3.03-4.13-4.55-6.19-2.45-5.38-3.83-11.04-4.25-16.93.36-.06.72-.13,1.09-.2,4.71,7.19,7.45,15.52,12.9,22.31,2.6,3.24,4.61,6.96,8.93,9.51-8.04-31.01-10.14-62.04-3.33-93.32.1-.73.29-1.44.53-2.14,5.12-14.12,9.96-28.32,17.67-41.39,20.29-34.42,48.01-60.33,86.17-73.31,30.58-10.4,61.88-9.99,93.1-1.96,12.57,3.24,24.62,7.89,36.44,13.2,9.96,4.48,20.68,5.44,31.58,7.79-.14-4.28-3.69-4.86-5.09-7.09-1.25-1.99-4.45-4.16.17-6.03,1.38,1.02,2.77,2.04,4.15,3.06Z" style="fill: #2a3053; stroke-width: 0px;"/>
  <path d="M599.15,729.35c-2.74-3.4-3.47.26-4.09,1.49-6.09,11.97-10.64,24.46-12.86,37.8-3.42,20.51-.7,40.61,3.41,60.66.28,1.37.76,2.74.8,4.12.04,1.54.63,3.52-1.4,4.32-2.19.86-2.8-1.2-3.68-2.45-6.2-8.82-9.78-18.92-11.55-29.26-3.89-22.81-2.16-45.43,6.75-66.99,18.83-45.59,51.52-74.52,101.07-82.73,1.79-.3,3.4-.24,4.24,1.52.94,1.96-.57,3.27-1.91,4.03-5.09,2.89-10.14,5.95-15.51,8.22-15.14,6.4-29.58,13.86-41.69,25.25-3.21,3.02-3.26,2.98-1.04,5.71,1.07,2.19-.43,3.64-1.7,4.86-6.59,6.36-12.24,13.43-16.98,21.26-.78,1.29-1.78,2.89-3.87,2.18Z" style="fill: #393e5d; stroke-width: 0px;"/>
  <path d="M780.12,882.06c7.19-5.6,13.14-12.36,18.38-19.78,6.12-5.79,10.2-12.95,13.63-20.5.86-1.88,1.06-4.06,3.27-5.01.85.72,1.14,1.67,1.16,2.74-3.27,10.78-9.98,19.58-16.51,28.47-8.07,10.98-16.96,21.24-28.03,30.65,5.83-.84,10.88-3.15,16.37-6.92,9.96-6.84,18.81-14.83,25.92-24.66,1.51-2.09,3.03-4.2,5.22-5.68,2.69-1.51,3.72-4.24,4.98-6.81.32-.63.69-1.22,1.1-1.79,8.47-15.61,13.57-32.11,15.13-49.92.57-6.54-.59-13.58,2.97-19.75,2.98,7.72,2.05,15.89,1.01,23.54-3.67,27.04-13.7,51.87-31.79,72.37-12.76,14.46-28.41,25.84-46.81,32.91-17.4,6.68-35.34,11.33-53.88,12.26-17.69.89-34.87-2.98-51.5-9.21-6.2-2.33-11.91-5.49-17.58-8.82-3.38-1.99-5.73-4.7-7.11-9.07,4.89-.29,8.91,1.26,12.87,2.83,15.53,6.15,31.35,9.84,48.28,10.77,28.95,1.59,54.39-6.38,77.56-23.11,2.12-1.53,4.11-3.13,5.35-5.5Z" style="fill: #3c4264; stroke-width: 0px;"/>
  <path d="M599.15,729.35c6.55-10.2,14.36-19.41,22.55-28.31,7.53-9.06,17.72-14.39,27.88-19.71,5.17-2.71,10.38-5.46,16.12-6.84,6.2-1.5,12.04-4.79,18.89-.67,2.58,1.55,7.32,1.65,10.72-.9,4.24-.02,8.48-.04,12.73-.07,3.52-2.84,7.31-.78,10.87-.34,21.62,2.7,40.42,11.9,57.09,25.64,2.82,2.33,6.05,4.62,6.8,8.69-.35,1.02-.69,2.03-1.04,3.05-.35-.07-.7-.15-1.05-.26-4.98-.78-6.93-5.61-10.69-8.01-13.92-9.42-28.28-18.01-45.08-21.1-36.51-6.7-68.82,1.34-96.47,27.07-22.16,20.62-32.16,46.34-34.33,75.81-.23,3.08.34,6.08.77,9.12.56,3.94,1.26,7.95-.84,11.73-5.78,2.59-7.29-1.65-8.96-5.62-.02-2.35-.03-4.69-.05-7.04-1.08-3.78-1.05-7.55-.02-11.33.02-1.88.03-3.76.05-5.63,1.71-2.12-.22-4.94,1.37-7.09-.11-10.39,4.05-19.58,8.12-28.79,1.41-3.19,3.05-6.27,4.59-9.4Z" style="fill: #51556a; stroke-width: 0px;"/>
  <path d="M815.43,839.63c0-.96-.02-1.91-.02-2.87,13.76-30.26,10.07-63.26,14.71-95.13,11.01,11.92,13.72,26.23,13.59,41.47.08,23.24-3.65,45.67-14.24,66.63-1.04,2.05-1.65,4.49-4.15,5.45-2.03-3.28.31-5.85,1.53-8.5,8.19-17.76,13.13-36.19,12.12-55.94-.21-4.2-.54-8.31-2.74-12.83-2.76,3.27-2.78,6.62-3.43,9.69-3.26,15.41-6.01,30.95-11.96,45.63-1.06,2.61-1.36,6.18-5.4,6.41Z" style="fill: #414668; stroke-width: 0px;"/>
  <path d="M585.1,798.64c2.17,2.84,4.52,5.42,8.42,5.68,2.96,2.43,3.09,6.11,3.95,9.38,1.8,6.88,5.33,13.21,6.37,20.31,0,0-.43.27-.43.27-16.78-6.39-16.1-21.76-18.31-35.64Z" style="fill: #393e5d; stroke-width: 0px;"/>
  <path d="M585.03,780.27c0,3.78.01,7.55.02,11.33-2.16-3.77-2.13-7.55-.02-11.33Z" style="fill: #393e5d; stroke-width: 0px;"/>
  <path d="M586.44,767.55c-.25,2.4.94,5.08-1.37,7.09.26-2.4-.91-5.08,1.37-7.09Z" style="fill: #393e5d; stroke-width: 0px;"/>
  <path d="M254.36,908.9c-9.54-4.61-16.26-11.27-19.01-22.09-3.74-14.71-9.78-28.66-12.99-43.71-4.83-22.65-20.13-39.22-37.06-54.32-21.49-19.17-48.18-26.46-74.89-33.92-5.38-1.5-10.89-2.68-15.75-5.66,1.41-1.57,3.22-1.52,5.09-1.26,2.05.47,4.09.97,6.13,1.5,3.18,1.14,6.41,2.13,9.72,2.82,1.62.49,3.24,1,4.86,1.5,8.69,3.03,17.75,4.81,26.41,7.88.62.2,1.23.45,1.82.73,3.05,1.64,6.14,3.19,9.47,4.19,1.19.46,2.33,1.03,3.42,1.68,2.36,1.71,4.92,3.06,7.6,4.21,30.66,17.85,52.2,42.69,59.68,78.19,3.13,14.85,9.21,28.68,14.81,42.62,4.38,10.89,17.94,14.08,28.15,7.99,5.38-3.21,9.98-7.3,13.32-12.4,7.42-11.33,19.03-13.7,31.02-15.56,1.39-.22,2.83-.09,4.21-.39,6.19-1.36,9.94-7.3,6.94-12.79-6.87-12.55-12.17-26.19-21.65-37.03-6.61-7.55-16.08-12.24-23.15-19.51-6.1-6.27-13.36-11.04-20.1-16.49-3.03-2.45-7.32-5.87-5.14-9.87,2.9-5.31,3.6-13.36,12.27-13.79,10.86,7.13,20.93,15.33,31.17,23.31.54.42.57,1.23.48,1.95-3.84,4.68,1.04,6.37,3.34,8,18.7,13.19,38.13,25.4,56.22,39.35,9.69,7.48,18.91,15.92,27.72,24.48,6.27,6.08,15.13,9.14,19.78,16.27,5.01,7.68,11.38,14.42,14.62,23.65,1.61,4.56,9.35,7.24,14.64,10.18,8.98,4.98,17.38,10.91,26.8,15.26,6.34,2.92,10.05,8.8,12.39,16.08,1.87,5.81,7.11,10.53,10.87,15.72.91,1.26,3.13,2.34,1.88,4.03-1.19,1.61-3.55,1.23-5.23.39-1.64-.82-3.05-2.16-4.47-3.37-11.2-9.48-22.74-18.54-33.8-28.21-12.34-10.8-26.62-18.84-42.21-24.41-30.1-10.74-60.39-10.72-90.99-2.38-10.38,2.83-20.79,5.73-31.37,7.52-9.01,1.52-18.25,1.12-27.03-2.35Z" style="fill: #4274e0; stroke-width: 0px;"/>
  <path d="M301.2,788.69c-10.42-7.93-21.43-15.1-31.03-24.08-10.71-6.57-19.4-15.42-27.67-24.71-2.18-2.45-4.34-4.93-6.37-7.5-1.15-1.46-3.46-3.12-.69-5.25,2.98-.83,4.81.95,6.77,2.76,33.38,30.9,69.88,56.98,112.04,74.89,25.74,10.93,52.11,19.15,79.74,23.19,25.97,3.8,51.99,4.19,78.02.24,4.07-.62,8.22-2.57,12.43-.4,2.74,6.47,6.52,12.66,5.37,20.17-26.31,2.96-52.48,1.51-78.69-1.65-17.7-2.13-34.88-6.31-51.91-11.15-11.4-3.24-22.78-6.89-33.63-11.61-22.43-9.76-44.28-20.76-64.38-34.89Z" style="fill: #bbbcc1; stroke-width: 0px;"/>
  <path d="M529.81,848c-1.88-6.56-3.76-13.12-5.63-19.67-.78-.98-1.35-2.06-1.53-3.33-.67-10.65.41-21.37-1.48-31.98-.83-4.67,1.06-9.18,1.61-13.78,1.35-10.58,2.22-21.2,5.06-31.58,2.63-9.62,5.61-19.18,7.18-29.07.22-2.6.73-5.1,2.47-7.17,3.5-.12,7.16.91,10.3-1.88.69-.62,1.24.92,1.64,1.7-1.11,9.2-5.69,17.3-8.31,26.03-6.91,22.99-7.82,46.21-4.98,69.8-.13,2.5.16,5.11-1.89,7.1,0,0-.11.07-.11.07-3.94-8.49-1.54-17.96-4.13-26.66-.32-1.08-.64-2.16-1-3.4-6.13,6.11-3.5,45.27,3.76,59.71,2.85,14.49,10.45,26.86,17.59,39.43,3.3,5.8,7.92,10.8,10.45,17.07-8.07-7-12.9-16.38-18.04-25.38-4.93-8.65-8.68-17.98-12.94-27.01Z" style="fill: #2a3053; stroke-width: 0px;"/>
  <path d="M990.68,1028.96c-2.57,3.77,1.31,5.73,2.85,7.52,12.26,14.19,24.75,28.19,37.47,41.97,9.13,9.89,8.45,20.41-2.07,29.24-3.19,2.67-5.62,6.25-8.35,9.46-2.27,2.67-4.96,4.29-8.6,3.81.37-.52.75-1.04,1.12-1.56,4.72-3.4,5.22-7.46,1.58-11.88-16.69-20.27-31.24-42.11-46.79-63.22-6.67-9.05-13.68-17.84-20.49-26.79-1.97-2.59-4.26-5.05-4.93-8.41-.17-.86-.46-1.97-.08-2.61.83-1.4,2.11-.54,3.08-.02,4.13,2.23,8.18,4.61,12.34,6.79,1.35.71,2.85,2.15,4.49.65,1.73-1.59-.08-2.98-.46-4.45-.84-3.2-5.63-7-2.39-9.18,3.68-2.48,6.05,3.09,8.54,5.51,7.75,7.54,15.16,15.42,22.71,23.17Z" style="fill: #363c5d; stroke-width: 0px;"/>
  <path d="M234.5,728.04c10.4,13.64,23.51,24.65,35.67,36.57-8.53.24-7.84,8.98-11.75,13.42-1.93,2.19,2.4,5.87,4.97,7.56,12.96,8.49,22.77,20.81,35.51,29.38,9.72,6.54,15.08,15.69,19.63,25.76,2.91,6.44,7.87,11.64,10.61,18.22,3.29,7.91-1.04,15.68-9.66,15.94-7.41.22-14.36,2.34-21.21,4.6-7.58,2.5-10.67,10.15-15.71,15.54-11.59,12.4-26.53,16.26-38.24,3.07-.92-1.04-2.04-2.12-2.44-3.39-4.9-15.65-12.75-30.34-15.5-46.67-2.78-16.49-11.08-30.07-21.24-42.91-10.32-13.04-22.76-23.47-36.97-31.93-2.12-1.81-4.89-2.53-7.07-4.24-1.16-.03-2.22-.28-2.83-1.41-3.29-1.43-6.55-2.93-9.89-4.24h0c-9.09-3.94-18.84-5.67-28.27-8.48-1.55-.05-3.22.24-4.24-1.41-3.21-1.26-6.66-1.66-9.89-2.83-1.95-.2-4.17.64-5.66-1.41-7.51-1.02-14.23-4.43-21.21-7.05-6.38-3.87-8.95-9.65-8.48-16.95.07-5.81-.48-11.72,2.84-16.99,1.79,1.59,1.58,3.66,1.38,5.73-.09.66-.25,1.31-.43,1.94-1,3.51-.95,7.01.2,10.49.25.66.44,1.33.62,2.02.93,5.92,4.89,8.66,10.24,10.32,6.1,1.88,12.41,2.52,18.59,3.84,16.09,3.41,32.51,5.7,47.89,11.79,11.14,4.41,21.83.85,32.55-.88,5.9-.95,12.86-.47,17.35-4.95,4.77-4.76.02-11.23,1.08-16.9,1.63-8.72.73-17.01-3.4-25.18-2.75-5.44-2.66-11.86-2.91-17.99-.1-2.47.13-4.73,2.71-5.95,3.53-.27,4.52,2.73,5.89,4.92,2.44,3.88,5.02,7.63,7.75,11.3,6.7,10.14,14.97,19.12,21.54,29.36Z" style="fill: #4d7fe6; stroke-width: 0px;"/>
  <path d="M79.1,742.14c7.53.96,14.15,4.69,21.21,7.05-1.88,0-3.77,0-5.65,0-5.36-1.97-11.06-3.2-15.56-7.05Z" style="fill: #4477e3; stroke-width: 0px;"/>
  <path d="M291.11,72.23c-5.16.74-10.59-1.6-15.54,1.41-1.54.56-3.11,1.06-4.61,1.7-3.21,1.37-5.39,3.13-.77,5.43,5.58,2.78,4.72,5.33.37,8.59-12.97,9.74-14.72,25.17-18.8,39.1-6.61,22.58-13.27,44.92-28.92,63.34-16.95,19.94-35.14,38.29-59.33,49.6-10.53,4.92-11.45,8.87-4.18,17.66,9.1,11,14.11,23.21,13.22,37.68-.12,1.93,1.23,3.96,1.98,5.92,1.7,4.45,3.28,8.47-1.11,12.84-2.78,2.77-2.49,7.38.49,10.3,6.32,6.19,7.44,12.42,2.51,20.08-1.69,2.63-3.7,7.46,3.41,6.3-7.79,18.44-14.43,37.29-20.13,56.47-5.04-.88-6.44,2.88-7.95,6.35-1.82,4.17-2.69,8.49-1.93,13.08.67,4.07-.56,7.68-3.95,9.95-11.23,7.53-12.76,19.61-15.31,31.34-2.47,11.36,1.82,22.3,1.69,33.59-.15,12.97-3.21,25.15-6.61,37.34-1.76,6.3-2.16,13-5.44,18.92-1.03,1.87-.24,4.17.36,6.22,2.71,9.26,5.67,18.55,7.54,27.92,2.45,12.27,8.27,24.11,6.01,37.18-.41,2.39.61,4.61,1.47,6.82,2.35,5.99,3.8,12.11,2.58,18.62-.77,4.12.62,7.9,2.01,11.68,2.2,5.99,2.6,12.08-.43,17.82-3.33,6.31-.83,12.98-1.71,19.46-1.08,8-4.83,15.2-5.58,23.26-.34,3.66-3.57,6.25-7.32,6.8-5.55.83-11.11,2.32-16.81,1.27-3.36-.62-6.45-.06-9.62,1.26-11.31,4.7-21.05.4-25.25-10.96h0c-1.1-3.77-1.09-7.54,0-11.32h0c.72-.47,1.4-.41,2.03.18,1.91,2.27,2.24,5.13,2.86,7.87.72,3.2,2.55,5.5,5.36,7.08,3.65,2.05,6.53,1.56,7.42-2.89,6.23-31.3,16.61-62.21,12.63-94.69-2.42-19.78-5.67-39.66-15.93-57.46-3.63-6.3-5.9-13.32-10.02-19.43-2.74-4.06-2.31-8.64-.1-12.81,3.89-7.36,4.66-16.18,8.65-22.97,5.31-9.05,4.07-17.7,3.67-26.92-.31-7.04-.4-14.12.26-21.17.11-1.17.52-2.56-.07-3.48-4.94-7.69-.36-13.84,2.06-21.03,2.72-8.07,6.49-16.01,7.18-24.85.48-6.03,1.66-12.12,7.8-15.79,3.94-2.36,3.74-6.7,3.85-10.77.33-13.37.87-26.73,6.71-39.16,1.26-2.69,1.43-5.59.6-8.3-3.61-11.75-.51-23.74-1.28-35.61-.69-10.56-3.36-20.64-5.24-30.88-.96-5.2-3.35-10.24-4.65-15.51-2.19-8.9-1.48-11.02,7.1-14.79,13.8-6.05,28.07-10.94,42.11-16.41,21.7-8.46,39.2-22.41,55.01-39.47,19.74-21.31,30.28-46.61,37.54-74.03,2.63-9.93,5.2-20.1,11.02-28.9,2.2-3.32.99-4.66-2.6-4.84-2.12-.1-4.27-.17-5.88-1.88-2.73-2.42-.86-4.39.95-5.8,11.5-8.96,24.26-12.44,38.62-8.34Z" style="fill: #6b9bf5; stroke-width: 0px;"/>
  <path d="M251.53,86.36c4.17.43,9.78-1.98,12.2,1.13,3.29,4.22-3.23,6.73-4.7,10.42-5.95,14.86-9.6,30.42-14.54,45.58-10.74,32.91-31.69,58-59.07,78.53-16.91,12.68-36.99,17.87-55.95,25.78-6.06,2.53-12.12,5.09-18.18,7.61-3.02,1.26-4.55,3.32-3.55,6.65,1.53,5.14,2.91,10.35,4.77,15.38,2.06,5.54,4.2,10.97,3.36,17.04-.03.23-.1.53.01.7,5.07,7.8,1.74,16.7,3.36,24.9.82,4.13.45,7.62-.74,11.61-1.78,5.97,1.43,11.86,2.18,17.81.41,3.29.47,6.39-1.15,8.7-4.47,6.39-3.69,13.81-5.25,20.79-1.65,7.38-1.05,14.7-1.29,22.07-.1,2.94-1,6.15-3.77,7.11-5.83,2-6.71,6.79-7.41,11.62-1.88,12.85-5.39,25.1-11.79,36.49-.75,1.34-1.45,3.59-.84,4.68,6.66,11.91.78,24.64,2.59,36.83.35,2.32.13,4.73,1.45,6.8,2.01,3.15.76,6.25-.99,8.53-7.78,10.08-7.12,23.6-14.15,34-1.25,1.86-.92,5.07.8,7.39,6.51,8.75,10.1,19.01,14.69,28.73,7.99,16.97,10.64,35.32,12.31,53.72,2.39,26.34-3.91,51.69-10.04,77-.93,3.85-1.75,7.75-2.4,11.66-.61,3.62-.23,8.88-4.96,8.66-5.02-.24-10.06-3-11.74-8.68-.99-3.34-1.26-6.88-1.85-10.34-1.82-8.23,2.6-15.43,3.9-23.15,2.72-16.09,7.74-31.75,7.51-48.37-.31-22.41-6.37-43.48-13.63-64.35-9.17-26.36-29.51-43.57-49.93-60.62-5.57-4.65-9.52-9.64-9.31-17.17-.54-2.65-.87-5.31-.68-8.02,1-6.01.51-12.5,5.64-17.15,17.31-19.92,38.06-37.04,51-60.51,10.65-19.31,15.22-40.4,17.07-62.43,1.72-20.46-5.4-39.11-9.1-58.48-1.62-8.48-4.19-16.76-3.95-25.57.14-4.86,1.04-9.46,3.77-13.33,2.96-4.18,2.43-6.8-2.28-8.66,15.26-12.92,33.69-19.05,52.55-23.99,31.57-8.26,57.81-24.21,76.09-51.8,3.32-5.02,5.65-10.69,8.44-16.07.32,2.42-.66,4.98.94,7.88,3.59-3.63,6.57-7.2,7.55-12.12-.88-.94-.79-1.88,0-2.83,6.23-14.11,9.57-29.16,14.14-43.81.69-.7.9-1.62,1.22-2.51.22-3.26,2.14-7.03-2.62-8.81,8.28-9.93,17.29-18.89,29.54-24.02,9.37-3.92,18.77-4.12,28.39-1.42-13.03-.54-25.81.12-36.75,8.52-2.21,1.7-4.26,3.64-6.27,5.59-1.32,1.28-3.09,2.87-1.41,4.75,1.44,1.61,3.38,1.21,4.85-.48Z" style="fill: #74a2f8; stroke-width: 0px;"/>
  <path d="M14.1,501.87c.33,6.38,3.77,11.13,8.6,14.7,30.11,22.31,52.45,49.57,59.57,87.73,2.75,14.75,5.89,29.26,5.37,44.37-.5,14.85-5.11,28.93-7.55,43.41-1.32,7.84-5,15.12-5.22,23.19-.48,0-.95,0-1.43-.01,0-2.35,0-4.7.01-7.06,4.26-20.33,10.86-40.25,11.27-61.27.45-22.95-6.41-44.1-14.88-65.2-10.16-25.31-29.54-42.35-48.89-59.78-5.85-5.27-8.91-11.99-8.29-20.08.47-.65.95-.65,1.42,0Z" style="fill: #6595f2; stroke-width: 0px;"/>
  <path d="M18.36,476.44c-2.92,5.27-4.86,10.79-4.26,16.94-1.75,2.11.28,4.99-1.43,7.11-2.63-9.51-.48-17.95,5.65-25.52.01.49.03.98.04,1.47Z" style="fill: #6595f2; stroke-width: 0px;"/>
  <path d="M12.67,500.49c.39-2.39-.92-5.12,1.43-7.11,0,2.83,0,5.65,0,8.48-.47,0-.95,0-1.42,0-.02-.46-.02-.92-.01-1.38Z" style="fill: #6b9bf5; stroke-width: 0px;"/>
  <path d="M233.17,93.42c4.99-1.58,7.04-.42,4.66,4.96-.71,1.61,0,3.75-1.84,4.95-1.39-1.66.13-4.78-2.83-5.65-1.41.94-2.82,1.88-4.23,2.83.29-3.03,2.39-4.97,4.24-7.07Z" style="fill: #719cf3; stroke-width: 0px;"/>
  <path d="M233.16,97.67c4.92-.1,1.85,3.79,2.83,5.65-.47.47-.94.94-1.41,1.41.15-2.48-.07-4.89-1.41-7.07Z" style="fill: #6b9bf5; stroke-width: 0px;"/>
  <path d="M220.44,148.55c0,.94,0,1.88,0,2.83-1.83.78-3.9,2.28-4.24-1.41,1.41-.47,2.82-.94,4.24-1.42Z" style="fill: #6b9bf5; stroke-width: 0px;"/>
  <path d="M238.24,691.68c-9.44-6.62-15.03-15.02-21.13-22.97-16.1-20.99-29.71-43.46-38.5-68.46-6.82-19.41-11.87-39.33-14.84-59.83-3.23-22.23-3.2-44.51-2.51-66.77.97-31.08,7.7-61.22,17.61-90.65,10.32-30.63,25.97-58.83,40.38-87.56,7.25-14.45,17.88-26.61,28.86-38.58,18.58-20.25,40.36-36.19,63.57-50.38,31.92-19.51,64.98-36.42,101.59-45.77,29.09-7.43,58.59-7.07,88.11-6.19,8.46.25,16.93,3.15,25.84,2.4-.84,2.24-2.68,1.24-3.79,1.98-1.32.88-3.33,1.19-3.03,3.35.27,1.97,2.14,2.69,3.64,2.85,4.48.49,8.62,1.92,12.76,4.63-5.12,0-10.25.11-15.37-.02-29.87-.73-59.45,1.84-88.58,8.5-42.2,9.65-80.8,27.67-115.69,53.02-22.02,16-42.05,34.37-58.08,56.88-6.76,9.49-15.69,17.62-21.16,27.99-13.74,26.06-28.64,51.38-36.83,80.34-6.72,23.77-12.58,47.27-15.04,71.9-1.26,12.63-3.24,25.25-2.12,37.8,2.01,22.53,3.14,45.09,8.08,67.43,6.63,29.96,15.58,58.9,29.79,86.06,4.55,8.71,8.58,17.79,14.57,25.72,1.11,1.46,2.05,3.03,1.88,6.32Z" style="fill: #fafafa; stroke-width: 0px;"/>
  <path d="M211.99,699.68c-5-4.8-7.69-11.19-11.49-16.82-8.42-8.24-12.67-19.03-17.8-29.26-13.78-27.49-22.7-56.67-29.81-86.47-2.46-10.31-3.45-20.86-4.84-31.34-.39-2.91-.82-6.18,1.95-8.53,7.59,5.94,7.82,15.06,9.55,23.28,5.95,28.31,14.38,55.87,26.8,81.92,12.46,26.13,28.79,49.73,48.38,71.37,23.49,25.95,49.11,49.19,78.72,67.66,36.72,22.9,76.14,39.27,119.33,45.76,11.49,1.73,22.89,1.21,34.33,1.06,4.39-.06,7.07-1.31,6.72-7.73-1-18.48-5.34-36.53-6.16-55-.29-6.61-3.68-12.18-8.23-16.72-10.98-10.97-23.7-19.68-36.84-27.91-10.89-6.82-20.5-15.55-31.06-22.78-13.03-8.92-24.14-19.81-35.66-30.34-5.6-5.11-10-11.18-14.4-17.26-21.56-29.79-43.82-59.1-61.41-91.56-1.02-1.88-1.92-3.79-1.74-6.01,6.75,2.33,10.23,8.4,14.61,13.26,14.63,16.24,29.27,32.47,43.77,48.82,14.19,16,29.08,31.4,42.62,47.96,10.25,12.52,22.69,20.95,38.77,23.73,2.96,2.49,6.44,3.85,10.15,4.7,21.53,4.91,42.83,10.98,65.05,12.4,5.37.34,10.83,1.33,15.3,4.78,5.14,3.97,6.4,9.62,6.31,15.74-.28,19.74-1.54,39.44-1.64,59.2-.06,12.34,3.54,24.17,3.16,36.48-.42,13.58-3.68,17.69-17.25,18.57-14.27.93-28.51,1.67-42.88.21-30.65-3.13-60.4-10.11-88.86-21.54-52.09-20.91-96.91-52.67-135.12-93.77-3.2-3.44-5.86-7.37-9.27-10.64-3.36-3.22-5.56-7.5-9.5-10.53-.46,2.6.71,5.35-1.57,7.29Z" style="fill: #cdcfda; stroke-width: 0px;"/>
  <path d="M150,527.26c-.17,18.89,4.36,37,8.86,55.15,8.32,33.52,21.09,65.17,38.94,94.75,1.08,1.79,1.81,3.79,2.7,5.69-5.12,2.27-1.4,6.28-1.48,9.28-.19,7.25,1.22,14.37,5.26,20.67,2.17,3.38,2.46,6.92,1.42,10.78-1.55,5.76-1.23,11.69-.37,17.45,1.16,7.83-.43,10.71-8.05,12.25-9.8,1.99-19.79,2.84-29.52,5.44-5.22,1.4-10.64-.87-15.73-2.5-18.72-6-37.79-10.3-57.29-12.87-5.01-.66-10.04-2.43-14.64-4.6-4.79-2.26-7.07-6.68-6.65-12.19,2.73,4.84,6.57,8.28,11.89,10.25,2.55.94,5.66,2.04,7.49.86,9.87-6.37,20.94-1.82,31.21-4.02,3.9-.83,7.33-3.06,7.06-6.66-.66-8.77,5.94-15.78,5.04-24.6-.26-2.55.77-5.28-.11-8.15-.9-2.92-.51-5.84,1.47-8.67,3.69-5.27,3.22-11.14.98-16.83-2.01-5.09-3.96-9.96-1.75-15.61,1.45-3.71-.02-8.08-1.54-10.89-3.63-6.73-2.36-13.41-2.56-20.32-.24-8.07-3.5-15.78-5.14-23.7-2.27-10.91-5.71-21.74-8.99-32.5-1.24-4.08-.96-7.09,1.3-11.1,3.24-5.75,3.69-12.85,5.48-19.3,3.61-13.03,6.12-26.46,4.79-40.25-.38-3.97-.54-7.76-1.99-11.66-2.28-6.12.47-12.49,1.15-18.65.68-6.14,3.68-12.04,5.78-18,.46-1.3,1.11-2.98,2.17-3.55,9.89-5.34,11.45-14.27,11.23-24.31-.09-4.1,2.68-7.5,4.64-10.93,2.37-4.14,4.86-3.9,6.65.66-1.92,7.99-3.83,15.98-5.75,23.97-1.38,1.17-1.67,2.63-1.16,4.31-1.06,10.36-2.12,20.72-3.19,31.08-1.51,5.15.43,10.55-1.13,15.7,0,9.75,0,19.5.01,29.24,1.53,4.2-.39,8.69,1.12,12.89.13.47.27.95.4,1.42Z" style="fill: #6595f2; stroke-width: 0px;"/>
  <path d="M416.88,677.17c-16.86-.52-27.94-10.79-38.27-22.49-17.42-19.73-34.88-39.42-52.46-59-15.84-17.65-31.87-35.13-47.82-52.68-1.44-1.92-2.88-3.84-4.33-5.76-5.53-8.56-10.75-17.19-7.43-28.09.62-.57,1.32-.7,2.1-.38,2.87,3.51.9,7.97,2.34,11.76,1.59,6.11,5.26,10.96,9.4,15.54,23.65,26.16,47.09,52.5,70.63,78.76,13.97,15.58,27.29,31.77,42.08,46.59,11.29,11.31,23.97,13.58,37.26,7.39,2.58-1.72,5.36-2.96,8.45-3.41,4.29-.92,7.23-3.89,10.33-6.67,1.99-1.78,3.69-4.39,7.06-3.22,1.52,4.33-2.75,5.51-4.41,8.12-1.68,1.6-3.3,3.27-5.18,4.65-3.36,2.32-6.99,4.2-10.4,6.45-6.25,2.46-12.37,5.99-19.38,2.45Z" style="fill: #627fd3; stroke-width: 0px;"/>
  <path d="M267.08,508.92c-1.73,10.43,2.51,19.4,6.93,28.33-13.14-11.46-13.56-36.75.42-50.11,8.98-8.57,17.76-17.47,28.09-24.54,4.78-.49,8.95-3.8,14.01-3.03.65,2.09-.76,3.31-2.25,3.77-6.22,1.91-9.89,6.84-14.02,11.28-6.25,6.73-13.19,12.59-21.2,17.17-3.24,1.85-6.42,3.96-7.7,7.83-.24.59-.54,1.16-.86,1.72-1.95,2.16-1.24,5.53-3.42,7.59Z" style="fill: #7da9fa; stroke-width: 0px;"/>
  <path d="M148.47,483.7c.38-5.23-1.47-10.63,1.13-15.7-.12,5.25,1.06,10.6-1.13,15.7Z" style="fill: #74a2f8; stroke-width: 0px;"/>
  <path d="M149.6,525.84c-2.45-4.12-.86-8.58-1.12-12.89,2.16,4.14,1.01,8.57,1.12,12.89Z" style="fill: #74a2f8; stroke-width: 0px;"/>
  <path d="M277.11,225.18c-.73-1.88-2.52-4.29.6-5.22,2.66-.79,1.75,1.93,2.06,3.32-.89.63-1.77,1.26-2.66,1.9Z" style="fill: #5184eb; stroke-width: 0px;"/>
  <path d="M152.79,436.92c-1.09-.46-2.38-1.07-2.15-2.36.29-1.62,1.88-1.84,3.31-1.95.06,1.56.56,3.23-1.16,4.31Z" style="fill: #6b9bf5; stroke-width: 0px;"/>
  <path d="M416.88,677.17c6.93.03,13.5-1.62,19.86-4.21,37.72-2.78,69.87-17.84,98.65-42.2,15.07-12.76,27.29-27.78,40.07-42.42,24.11-27.62,46.37-56.85,71.6-83.49,11.15-11.77,23.05-22.87,34.15-34.68,11.58-12.32,23.71-24.2,33.76-37.9,4.06-5.54,7.7-11.28,8.73-18.27,2.92-6.08,6.9-11.7,7.84-18.61,1.08-3.07,2.07-6.14.71-9.39-1.66-6.76-3.71-13.34-8.48-18.69-2.5-5.44-7.25-8.96-11.14-13.23-2.76-3.02-6.26-5.65-6.23-10.37,23.23,11.88,43.79,26.65,51.43,53.25,3.36,11.71-1.4,23.15-5.34,34.13-8.79,24.48-25.75,43.81-41.25,64.02-9.36,12.2-19.8,23.36-26.22,37.92-8.04,18.22,1.65,40.5,21.56,43.92,14.5,2.49,28.83,6.07,43.09,9.74,14.33,3.69,27.79,9.95,41.42,15.59,8.89,3.68,11.88,11.59,9.83,21.65-.47,2.29-.82,4.6-1.23,6.9-3.17,1.41-5.41-.9-7.74-2.18-19.89-10.9-40.8-18.69-63.38-21.88-19.12-2.7-38.16-2.8-57.15.59-2.99.53-6.04.74-8.96,1.61-29.66,7.36-56.2,20.46-79.54,40.61-16.33,14.1-28.62,30.97-39.58,49.15-13.46,25.74-21.21,52.83-21.45,82.14-.12,14.98.34,29.83,2.44,44.64-.05.95-.1,1.9-.15,2.84-15.48,2.31-30.9,4.32-46.68,4.46-33.38.31-65.58-5.26-97.12-15.83-37.47-12.56-72.03-30.87-103.18-54.87-12.81-9.87-26.84-18.82-37.02-31.95-1.44-1.86-3.44-2.32-5.68-2.09-9.58-7.81-15.43-18.58-22.51-28.36-.4-3.82-.8-7.65-1.29-12.35,7.72,5.19,12.16,12.28,17.48,18.33,14.32,16.28,29.85,31.17,46.59,44.91,20.6,16.9,43,31.12,66.61,43.16,25.12,12.81,51.89,21.51,79.52,27.65,16.98,3.78,34.2,5.44,51.4,6.64,10.83.75,21.94-.61,32.83-2.36,6.7-1.08,9.76-4.38,9.35-11.47-1.27-22-4.3-43.92-2.93-66.04.62-10.06,1.24-20.13,1.38-30.2.23-16.73-4.14-21.53-20.78-22.39-23.34-1.2-45.53-8.17-68.14-13.03-3.03-.65-5.63-2.4-7.13-5.36Z" style="fill: #c6c7c9; stroke-width: 0px;"/>
  <path d="M706.4,343.69c4.9,8.55,14.04,13.61,18.53,22.49-5.07,3.41-9.08.56-12.53-2.64-4.67-4.32-9.47-8.49-14.45-12.4-6.23-4.88-13.33-6.88-21.13-3.89-2.34.89-4.35,2.24-2.76,5.29,2.68,5.12-.25,8.65-3.66,11.69-32.98,29.4-65.1,59.74-97.71,89.54-30.35,27.74-60.86,55.3-90.77,83.52-16.92,15.96-34.14,31.61-51.35,47.26-2.31,2.1-4.75,4.24-8.12,2.96-3.37-1.28-3.71-4.63-4.17-7.63-.67-4.38.15-8.54,3.18-11.89,16.55-18.27,31.96-37.65,51.7-52.81-5.47,3.63-9.48,8.92-14.9,12.63-5.43,3.72-10.44,8.05-16.07,11.49-2.92,1.79-5.69,4.51-9.64,2.53-1.33-4.02,2.64-4.96,4.2-7.31,26.83-23.96,53.61-47.98,80.29-72.11,9.24-8.36,18.41-16.8,27.82-24.96,1.83-1.59,3.85-2.64,5.98-3.61,1.97-1.88,3.94-3.75,5.92-5.63,4.96-8.2,13.46-12.82,20.08-19.34,7.47-7.35,15.46-14.32,23.42-21.25,3.19-2.78,6.21-5.62,10.1-7.38,12.75-11.45,25.71-22.68,38.22-34.4,18.77-17.6,38.21-18.49,57.83-2.16Z" style="fill: #6c9bf5; stroke-width: 0px;"/>
  <path d="M814.27,641.62c-2.8,4.13,1.58,4.93,3.31,6.75,1.94,2.03,6.43,2.81,4.88,6.48-1.81,4.27-5.72,1.47-8.73,1-15.66-2.42-30.01-8.75-44.65-14.42-17.09-6.61-34.87-10.29-53.38-11.13-28.23-1.28-54.95,3.33-79.76,17.17-17.56,9.8-32.58,22.55-45.4,38.19-14.93,18.21-26.1,38.21-32.59,60.85-.43,1.49-1.67,2.75-2.54,4.12-2.75-3.66.19-6.92.73-10.35.39-2.48,1.38-4.83,1.55-7.34,2.59-10.88,8.24-20.41,13.79-29.91,11.25-19.25,25.72-35.81,43.08-49.84,1-.81,2.46-1.31,2.77-3.56-19.75,8.76-36.12,21.21-49.66,37.51-2.99,3.6-4.94,8.04-8.86,10.88-1.34.54-2.68,1.12-3.84-.35-.76-4.58,2.6-7.4,4.84-10.5,20.75-28.76,47.92-49.46,80.8-62.36,16.4-6.43,33.57-10.58,51.29-11.84,3.23-.23,6.47-.62,10.73-3.16-8.56-.05-15.68-.58-22.83.6-2.96.49-6.08,1.37-8.52-1.46,3.01-4.12,7.67-3.6,11.83-3.84,21.62-1.27,43.04-.17,64.16,5.27,13.76,3.54,26.67,8.63,37.7,17.81,1.69,1.41,2.98,3.45,5.68.77,1.7-1.69,3.85.43,5.62,1.48,4.62,2.74,8.83,6.17,13.84,8.27,1.63.62,3.29,1.18,4.16,2.89Z" style="fill: #3e4567; stroke-width: 0px;"/>
  <path d="M550.84,433.86c-23.37,22.07-47.46,43.33-71.52,64.64-13.88,12.3-27.57,24.79-41.35,37.2-4.32,1.99-7.59-.73-11.06-2.48-14.47-7.32-25.52-19.09-37.84-29.2-11.78-9.66-22.37-20.81-35.98-28.13-5.49-4.11-10.38-9.08-17.08-11.44-1.45-.51-2.99-1.42-2.63-3.51,10.16-3.85,20.26-1.21,29.49,2.23,19.24,7.18,38.67,14.13,56.62,24.42,15.1,8.66,31.61,11.61,48.04,6.62,10.54-3.2,19.08-11.6,28.11-18.24,8.59-6.32,17.54-12.43,24.97-19.97,7.11-7.23,15.13-13.08,22.93-19.34,2.16-1.73,3.96-4.22,7.3-2.81Z" style="fill: #cbcdd7; stroke-width: 0px;"/>
  <path d="M333.39,460.94c7.07,4.04,14.85,7.06,19.93,13.94.86.94,2.44,1.63,1.19,3.33-4.1,1.28-5.85-2.16-8.2-4.21-5.25-4.58-10.84-8.23-18.1-8.54-3.44-.14-5.58.58-6.38,4.66-2.59,13.17-9.03,24.32-18.19,34.17-6.26,6.73-5.79,8.16.14,15.62,16.24,20.39,34.04,39.5,49.48,60.55.69.95,1.54,1.81,2.09,2.83,1.24,2.31,4.6,4.94,1.73,7.25-2.5,2.01-5.06-1.07-7.2-2.81-16.87-13.64-30.36-30.66-45.87-45.66-7.67-7.42-13.85-16.67-24.44-20.8-2.1-.82-3.59-2.98-4.84-5.01-1.96-3.68-2.27-7.56-1.06-11.49,1.14-3.68-.86-4.35-3.78-4.35-.38-4.2,2.38-6.51,5.44-8.29,11.43-6.66,21.44-14.86,29.43-25.52,2.86-3.82,8.88-2.92,11.74-7.05,5.77-1.37,11.17,1.83,16.87,1.38Z" style="fill: #6897f3; stroke-width: 0px;"/>
  <path d="M810.12,638.73c-7.28-.86-11.93-7.1-18.6-9.28-1.53,1.74,2.65,3.46-.03,4.82-2.08,1.06-3.54-.82-4.9-1.98-9.79-8.31-20.37-14.84-33.07-18.11-14.51-3.74-29-7.47-44.04-7.62-11.71-.12-23.5-1.21-35.14,1.26-1.19.25-2.28.46-3.02,1.51-.27.25-.55.5-.82.75-3.52,1.2-6.54.35-9.15-2.22,15.68-4.43,31.63-5.43,47.87-4.76,18.7.78,36.73,4.26,54.37,10.4,12.72,4.42,24.39,10.89,36.11,17.32,3.47,2.64,6.95,5.28,10.42,7.92Z" style="fill: #616477; stroke-width: 0px;"/>
  <path d="M610.36,380.26c-17.5,16.41-35,32.8-53.6,47.98-.05-2.62-.17-5.44,2.34-7,5.87-3.65,10.3-8.97,15.48-13.2,9.4-7.67,17.78-16.42,27.17-24.06,2.67-2.17,5-4.17,8.62-3.73Z" style="fill: #cbcdd7; stroke-width: 0px;"/>
  <path d="M852.01,511.42c-.16,4.8,1.29,9.72-.99,14.38-.21-4.83-.77-9.68.99-14.38Z" style="fill: #4376e2; stroke-width: 0px;"/>
  <path d="M851.01,470.87c2.3,4.21.84,8.69.97,13.06-1.75-4.25-1.16-8.67-.97-13.06Z" style="fill: #4376e2; stroke-width: 0px;"/>
  <path d="M475.37,35.19c-11.09,12.14-21.03,25.62-36.39,33.12,8-15.48,24.24-22.07,36.39-33.12Z" style="fill: #719cf3; stroke-width: 0px;"/>
  <path d="M603.84,834.01c-5.92-9.03-7.75-19.49-10.32-29.69-.46-13.32-1.54-26.54,1.24-39.91,3.88-18.64,11.61-35.2,23.9-49.51,21.37-24.87,48.82-37.89,81.46-38.73,26.72-.68,50.63,8.15,71.49,24.97-9,11.78-18.78,22.91-28.31,34.25-5.07,6.03-12.18,9.59-18,14.72-1.04.91-2.62,1.67-3.86.59-1.74-1.51-.3-3.07.64-4.28,5.9-7.63,12.36-14.83,17.81-22.82,1.32-1.94,2.77-3.84,3.49-6.11.53-1.66.74-3.74-1.6-3.8-11.31-.3-21.53-6.26-33.25-5.32-17.88,1.43-32.52,9.03-44.79,21.34-5.44,5.46-11.07,10.9-15.5,17.36-7.45,10.86-12.73,22.5-13.41,35.87-.2,3.84-1.41,7.37-3.05,10.8-.6,1.26-1.6,2.69-.64,3.95,1.23,1.62,3.05.72,4.58.27,4.74-1.39,9.34-3.28,14.14-4.46,2.28-.56,5.02-1.1,6.19,1.64,1.14,2.68-.97,4.54-2.99,5.72-8.34,4.87-16.97,9.22-25.84,13.03-6.27,2.7-12.06,6.11-18.42,10.07,3.16,1.72,5.55.69,7.87-.08,18.83-6.23,36.58-14.91,53.85-24.52,15.84-8.81,31.3-18.27,45.58-29.49,13.3-10.46,26.68-20.85,37.67-33.93,2.29-2.72,4.28-7.34,9.52-5.05-13.54,17.07-29.89,31.2-46.88,44.64-26.75,21.16-56.25,37.56-88.01,49.9-8.08,3.14-16.38,5.73-24.59,8.57Z" style="fill: #b7b7b8; stroke-width: 0px;"/>
  <path d="M763.31,730.9c-3.36-.16-5.07,2.44-6.77,4.52-16.96,20.79-38.48,36.44-60.49,50.94-14.72,9.7-29.95,19.19-46.74,25.69-10.64,4.12-20.41,10.45-31.6,13.39-1.57.41-3.11,1.32-4.67,1.35-2.45.05-6.08,1.35-6.96-1.57-.91-3.03,2.81-3.8,4.97-4.9,12.34-6.27,24.74-12.43,37.11-18.63,1.47-.74,3.03-1.36,4.36-2.3,1.26-.9,3.24-1.91,2.38-3.8-.86-1.9-2.83-1.12-4.35-.63-5.14,1.66-10.26,3.37-15.36,5.13-2.28.79-4.58,1.65-6.56-.37-2.49-2.54.32-4.15,1.29-6.08,1.59-3.16,3.02-6.41,3.16-9.99.73-18.54,9.08-33.47,21.41-46.77,8.96-9.66,18.16-18.68,30.41-24.36,14.31-6.64,28.69-7.59,43.7-3.33,4.59,1.3,8.84,2.89,14.19,2.37,6.01-.59,3.4,4.88,1.97,7.61-3.73,7.07-9,13.11-14.02,19.29-3.03,3.73-6.09,7.45-8.88,11.4,12.36-7.66,22.65-17.51,31.45-29.01,4.55-5.95,9.35-11.7,14.06-17.52,1.07-1.33,2.43-2.21,4.23-2.2,3.58,2.25,6.55,5.14,9.09,8.49-4.97,7.77-10.52,15.05-17.39,21.26Z" style="fill: #c8c8c9; stroke-width: 0px;"/>
  <path d="M812.31,784.62c.02.89.04,1.79.05,2.68-1.16,2.31.19,4.96-.99,7.26.12,6.78-.93,13.36-3.19,19.75-13.83,13.85-23.24,30.27-28.51,49.09-4.72,5.28-9.82,10.1-16.24,13.3-4.21-6.13-.52-12.4.51-18.17,5.37-30.18,21.33-54.49,43.37-75.29,3.51-3.31,3.76-.57,5,1.36Z" style="fill: #4b76db; stroke-width: 0px;"/>
  <path d="M782.78,706.85c-13.71-13.46-29.5-23.45-47.98-29.11-8.76-2.68-17.78-3.68-26.78-4.89-2.1-4.5-4.23-7.55,4.04-8.8,26.03-3.95,48.01,4.57,68.15,19.74,22.13,16.67,36.07,38.39,39.26,66.3.35,3.05,1.87,8.09-1.46,8.96-4.12,1.08-4.78-4.33-6.08-7.25-6.22-13.98-13.83-27.12-22.93-39.39-1.64-2.22-3.48-4.47-6.23-5.57Z" style="fill: #020526; stroke-width: 0px;"/>
  <path d="M779.67,863.41c-2.11-7.04,2.38-12.55,4.94-18.14,4.54-9.91,9.95-19.51,17.9-27.3,1.62-1.59,2.92-3.77,5.67-3.65-4.91,19.03-14.15,35.55-28.51,49.09Z" style="fill: #7e9ae4; stroke-width: 0px;"/>
  <path d="M811.37,794.56c-.12-2.48-.79-5.04.99-7.26.22,2.5.7,5.03-.99,7.26Z" style="fill: #1842b7; stroke-width: 0px;"/>
  <path d="M534.24,814.17c-.02-2.34-.03-4.69-.05-7.03,4.85,1.06,4.33,6.11,6.69,9.03,2.4,2.96,3.66,9.13,7.53,7.93,3.81-1.18,1-6.7.57-10.14-2.42-19.24-1.38-38.3,2.31-57.27.98-1.89.85-4.77,4.1-4.66-1.81,13.18-4.31,26.38-4.05,39.67.32,16.33,2.24,32.6,7.65,48.21.15.44.43.89.42,1.34-.06,2.94,1.74,7-1.42,8.38-2.69,1.17-4.61-2.59-6.15-4.71-6.98-9.59-13.94-19.23-17.6-30.74Z" style="fill: #3e4567; stroke-width: 0px;"/>
  <path d="M555.39,752.02c-.93,1.42-1.87,2.84-2.8,4.26-.27-.28-.54-.55-.81-.82-.44-8.77-.09-17.28,7.84-23.24-1.4,6.14-2.81,12.27-4.21,18.41,0,.46,0,.92-.02,1.39Z" style="fill: #494f70; stroke-width: 0px;"/>
  <path d="M815.43,839.63c5.38-8.39,7.79-17.86,9.89-27.43,2.4-10.92,4.71-21.86,7.23-32.75.48-2.09.75-5.33,3.68-5.09,2.16.18,2.65,3.07,3.09,5.08,3.5,16.18,1.42,32.02-2.92,47.74-2.69,9.74-7.5,18.62-11.1,27.99,0,0,0,0,0,0-1.79,2.13-2.51,4.91-4.25,7.07-4.24,2.78-6.56,7.27-9.63,11.05-9.98,12.31-22.45,21.17-36.75,27.66-1.72.78-3.84,1.76-5.05-.2-1.08-1.75,1-2.95,2.13-3.96,14.06-12.57,25.93-26.99,35.92-42.94,2.86-4.57,5.18-9.47,7.75-14.22Z" style="fill: #585d7d; stroke-width: 0px;"/>
  <path d="M821.06,862.25c.52-2.9,1.43-5.56,4.25-7.07-.47,2.93-1.37,5.59-4.25,7.07Z" style="fill: #414668; stroke-width: 0px;"/>
  <path d="M120.1,754.84c9.83,1.46,19.61,3.11,28.27,8.48-9.58-2.31-19.25-4.3-28.27-8.48Z" style="fill: #4477e3; stroke-width: 0px;"/>
  <path d="M148.37,763.32c3.9,0,7.09,1.66,9.89,4.24-3.9,0-7.09-1.66-9.89-4.24Z" style="fill: #4477e3; stroke-width: 0px;"/>
  <path d="M105.97,750.61c3.59-.08,7,.45,9.89,2.83-3.59.09-7-.45-9.89-2.83Z" style="fill: #4477e3; stroke-width: 0px;"/>
  <path d="M161.08,768.98c2.91.49,5.57,1.39,7.07,4.24-2.91-.49-5.57-1.39-7.07-4.24Z" style="fill: #4477e3; stroke-width: 0px;"/>
  <path d="M671.31,609.31c9.34-.65,18.65-2.08,28.04-1.39,2.19.16,5.87-1.23,6.21,1.31.46,3.4-3.45,3.81-6.09,4.25-9.2,1.55-18.49,2.58-27.64,4.35-31.5,6.09-59.2,19.83-83.52,40.91-12.18,10.55-22.39,22.54-31.3,35.79-.75,1.12-1.11,2.51-1.65,3.77-.05.3-.11.61-.15.92-.95,1.92-2.36,3.62-2.88,5.76-1.05,1.79-.7,4.77-3.96,4.7-6.01,7.08-6.2,7.11-9.78,1.29-.71-4.52,1.7-7.88,4.17-11.23,8.3-14.2,17.15-28.07,28.67-39.88,14.32-14.67,30.5-26.92,49.14-35.83,10.63-5.08,21.64-9,32.8-12.65,5.89-1.93,12-.96,17.92-2.07h.02Z" style="fill: #0f1748; stroke-width: 0px;"/>
  <path d="M548.38,709.68c.94-1.9,1.89-3.8,2.83-5.7,1.59-1.74,2.84-3.74,4.16-5.68,0,0,0,0,0,0,.95-.46,1.91-.92,2.86-1.39,2.14,3.57-.44,6.32-1.8,9.11-5.04,10.35-10.44,20.5-13.34,31.76-4.43,17.19-7.19,34.46-4.05,52.23.73,4.16,1.61,8.22,4.53,11.88,1.77-7.4,1.71-14.97,2.72-22.39.79-5.81,1.34-11.67,2.52-17.42.46-2.24.06-5.48,3.74-5.85,0,0,.04.04.04.04-.95,13.06-3.55,25.95-2.99,39.18.36,8.45.78,16.81,2.57,25.07.72,3.31.16,6.79-2.71,7.98-2.57,1.07-4.17-2.45-5.71-4.3-4.21-5.08-6.47-11.32-9.54-17.08-4.22-31.13-.58-61.18,12.27-90,1.03-2.31,1.3-4.96,1.92-7.45Z" style="fill: #494f70; stroke-width: 0px;"/>
  <path d="M543.84,700.97c-3.49,2.42-3.08,6.88-5.24,10-.57,2.33-1.15,4.66-1.73,6.99-5.97,19.94-11.83,39.89-12.6,60.91-2.43,15.54,1.31,31.08.06,46.62-2.91-4.77-2.92-10.31-3.43-15.5-3.85-39.78,1.04-77.97,21.79-113.05,1.32,1.08,2.05,2.33,1.14,4.04Z" style="fill: #6f7283; stroke-width: 0px;"/>
  <path d="M524.27,778.86c-.2-21.21,4.51-41.41,12.6-60.9-2.13,15.42-7.68,30.05-10.62,45.31-1,5.21,1.31,10.77-1.98,15.59Z" style="fill: #3e4567; stroke-width: 0px;"/>
  <path d="M73.45,715.26c0,3.77,0,7.55,0,11.32-2.17-3.77-2.15-7.55,0-11.32Z" style="fill: #6595f2; stroke-width: 0px;"/>
  <path d="M108.2,247.5c-2.8,5.58-7.71,7.48-10.96,11.04-7.74,8.45-6.24,18.63-4.62,28.62,3.59,22.11,11.63,43.6,10.4,66.35-1.42,26.21-7.76,51.06-20.53,74.43-8.72,15.96-21.3,28.41-32.84,41.9-3.96,4.63-8.29,8.96-12.04,13.75-4.11,5.25-6.94,11.1-6.65,18.12.1,2.32-.57,5.05-3.38,5.48-2.59.4-3.39-2.1-4.28-4-6.19-13.26-4.04-22.96,5.75-34.12,14.15-16.14,30.5-30.53,41.8-48.99,10.97-17.91,17.76-37.47,21.11-58.36,4.51-28.16-4.55-54.18-11.31-80.63-1.04-4.08-2.26-8.15-2.82-12.3-1.73-12.75,5.74-19.98,21.8-21.27,2.56-.21,5.15-.03,8.58-.03Z" style="fill: #81acfc; stroke-width: 0px;"/>
  <path d="M168.85,225.4c5.27-4.96,10.2-10.14,15.69-14.64,16.55-13.58,27.72-30.96,35.89-50.4,7.45-17.73,12.52-36.3,18.32-54.61,2.22-7.01,5.82-12.88,13.62-14.76,4.57-1.1,6.53.61,4.62,5.14-8.56,20.34-12.06,42.42-21.29,62.5-9.05,19.69-22.28,36.31-38.73,50.35-7.31,6.24-14.79,12.29-23.74,16.14-1.24.53-2.42,1.62-4.39.28Z" style="fill: #81acfc; stroke-width: 0px;"/>
  <path d="M183.7,206.49c-7.23,6.26-14.6,12.3-22.53,17.7-13.54,9.22-29.73,10.86-44.67,16.02-6.12,2.12-12.66,2.99-19.02,4.43-1.11-1.49-4.24.31-4.38-2.44-.11-2.11,1.76-3.24,3.37-4.17,5.29-3.08,11.13-4.8,16.94-6.55,14.52-4.39,29.09-8.65,43.14-14.45,7.82-3.23,14.89-7.73,21.8-12.57,2.22-1.55,5.75-4.37,5.36,2.02Z" style="fill: #6b9bf5; stroke-width: 0px;"/>
  <path d="M183.7,206.49c-.29-3.03-2.09-2.84-3.86-1.52-23.11,17.22-51.24,21.97-77.53,31.27-1.95.69-3.8,1.76-5.55,2.89-3.52,2.26-2.38,4.06.73,5.52-2.59-.53-6.74,1.54-7.5-1.47-.75-3,3.1-4.73,5.79-6.12,10.67-5.54,22.32-8.46,33.75-11.64,24.58-6.84,46.59-17.83,64.85-35.87.47-.46,1.15-.7,1.84-1.1-.83,5.76-4.89,11.58-12.51,18.04Z" style="fill: #719cf3; stroke-width: 0px;"/>
  <path d="M269.9,500.43c1.62-1.06,2.63-3.62,5.15-2.53,3.15,1.36.67,3.69.41,5.32-.71,4.31-.92,8.52.11,12.77,2.1,3.52,4.9,5.61,8.99,7.18,6.46,2.47,10.45,8.61,15.07,13.54,20.95,22.28,42.3,44.17,64,65.71,11.19,11.11,21.18,23.38,32.79,34.09,2.32,2.14,4.13,5.22,7.86,5.08,1.22-1.29.57-2.42-.15-3.28-14.76-17.41-28.82-35.41-42.79-53.44-8.99-11.59-20.15-22-23.42-37.3-.64-3.01-2.74-5.45-4.67-7.84-3.14-3.89-5.68-8.04-6.79-13.02-.91-4.06-4.06-6.75-6.43-9.96-5.2-7.02-10.59-14.18-5.7-23.76,3.03-5.95,6.84-7.21,12.66-3.92,2.49,1.41,4.53,3.37,6.45,5.45,22.4,24.17,45.16,47.99,68.52,71.24,6.53,6.49,12.61,13.29,17.22,21.37,3.03,5.31,5.42,5.61,9.9,1.06,18.17-18.46,37.67-35.51,56.44-53.34,22.86-21.71,46.3-42.79,69.36-64.29,19.1-17.81,38.87-34.88,57.76-52.93,15.64-14.95,31.88-29.28,48.33-43.34,3.95-3.38,7.42-7.23,11.28-10.68,7.42-6.62,13.78-7.28,21.67-1.54,8.74,6.35,18.28,9.37,29.04,8.73,5.62-.33,7.03,4.05,8.2,8.09,1.03,3.56.84,7.23-3.76,8.51-11.15,3.09-19.28,10.91-27.27,18.41-23.67,22.23-48.17,43.55-71.85,65.76-19.56,18.35-39.73,36.04-59.11,54.59-2.77,2.66-6.47,4.24-8.24,6.81,16.19-13.44,32.12-28.44,49.15-42.16,11.54-9.29,22.38-19.46,34.85-27.59,4.19-2.73,8.21-5.5,13.47-5.56,2.66-.03,4.98-1.24,7.23-2.59,4.44-2.67,8.91-5.27,12.89-8.65,1.9-1.61,4.57-4.28,6.67-2.09,2.56,2.66-1.32,4.13-2.7,6.07-4.61,6.48-12.17,10.4-15.55,17.94-8.86,10.07-19.65,18.09-29.26,27.39-9.09,8.8-19,16.77-28.09,25.63-2.95,2.88-5.68,6.41-10.52,6.18-1.72-5.76,3.24-7.91,6.31-10.53,4.71-4.01,8.5-8.62,13.07-14.57-5.41.06-8.56,2.24-11.49,4.62-13.48,10.98-26.38,22.66-39.54,34.03-20.8,17.98-41.07,36.56-61.58,54.86-11.92,10.64-23.81,21.34-35.38,32.34-8.35,7.94-17.15,15.37-25.37,23.46-4.61,4.53-7.95,8.75-5.78,15.45-3.15-.28-5.55,1.64-8.21,2.79-3.86-2.18-5.76-6.12-8.23-9.48-2.73-3.71-5.93-5.9-10.62-5.69-7.08.31-12.53-2.71-17.37-7.76-14.46-15.08-28.55-30.5-42.98-45.6-18.97-19.85-37.52-40.12-57.35-59.15-6.42-6.16-12.02-13.15-19.26-18.48-1.72-1.26-2.95-3.09-5.44-2.13-2.81-4-.74-8.56-1.47-12.79-1.47-3.16-.33-5.85,1.48-8.43l.02-.02Z" style="fill: #467ae5; stroke-width: 0px;"/>
  <path d="M724.93,414.11c.25,7.93-4.71,13.55-8.79,19.5-8.53,12.44-19.54,22.79-29.75,33.73-16.79,18-35.02,34.66-51.29,53.16-15.61,17.76-30.97,35.75-45.61,54.34-6.51,8.27-13.56,16.12-20.34,24.18-13.91,16.52-29.29,31.47-46.85,44.13-18.06,13.02-37.23,23.47-59.58,27.1-4.14.67-8.08,2.43-12.19,3.38-4.62,1.07-9.29,1.4-13.8-.67,2.93-2.42,6.13-4.39,9.66-5.83,32.46-12.78,59.56-33.1,84.51-57.31,31.54-30.61,60.46-63.67,91.23-94.99,22.39-22.8,46.43-43.89,68.02-67.46,2.37-2.58,5.28-4.72,6.59-8.16,7.56-9.23,17.09-16.41,25.55-24.71.67-.66,1.69-.7,2.64-.39Z" style="fill: #b0b1b7; stroke-width: 0px;"/>
  <path d="M439.33,667.19c-4.42-4.93-3.76-8.63,1.28-13.37,26.81-25.18,53.87-50.08,81.53-74.34,15.49-13.59,30.47-27.76,45.92-41.41,12.79-11.3,25.88-22.28,38.95-33.27,3.62-3.04,7.94-4.69,13.8-4.81-2.41,6.98-6.88,11.57-11.59,15.91-3.73,3.43-8.47,5.92-9.9,11.34.39.6.5,1.23.29,1.92-10.54,10.99-22.35,20.63-33.52,30.97-12.38,11.46-24.93,22.75-37.58,33.92-22.49,19.86-44.27,40.52-67.12,59.98-1.4,1.2-2.73,2.68-4.91,2.11-4.86.31-6.28,5.25-9.82,7.28-2.38,1.36-4.23,3.8-7.32,3.79Z" style="fill: #254dbd; stroke-width: 0px;"/>
  <path d="M269.88,521.68c.21-2.4.33-5.84,3.71-2.51,20.13,19.89,40.68,39.42,59.92,60.15,21.35,22.99,43.03,45.65,64.57,68.46,3.11,3.29,6.88,5.62,11.1,5.12,8.63-1.02,13.74,3.22,17.53,10.04,1.35,2.44,4.29,3.86,4.42,7.03-10.51,6.93-27.01,5.21-37.17-5.44-16-16.78-31.14-34.38-46.65-51.64-9.72-10.81-19.48-21.58-29.15-32.42-14.66-16.44-29.22-32.97-43.93-49.36-2.49-2.78-3.52-6-4.34-9.43Z" style="fill: #295bd0; stroke-width: 0px;"/>
  <path d="M599.11,528.55c.03-.44.1-.88.21-1.31,8.27-4.73,14.08-12.3,21.11-18.46,15.3-13.4,30.15-27.31,45.19-41.02,8.78-9.82,18.46-18.69,28.64-27.04,1.08-.89,2.28-1.71,3.85-1.13.11,3.04-2.28,4.51-4.06,6.29-13.94,13.99-27.3,28.62-42.02,41.74-20.76,18.5-38.7,39.69-58.42,59.17-10.94,10.81-20.58,23.14-31.16,34.32-11.25,11.89-23.71,22.79-35.22,34.53-19.96,20.36-43.22,35.94-68.69,48.43-3.8,1.86-7.7,3.58-12.13,3.08,1.43-1.4,2.85-2.79,4.28-4.19,19.96-11.1,38.47-24.32,55.47-39.5,22.06-19.69,43.56-39.98,63.33-62.04,7.83-8.73,15.22-17.88,23.95-25.77,2.3-2.08,4.24-4.37,5.68-7.09Z" style="fill: #a8aab6; stroke-width: 0px;"/>
  <path d="M599.11,528.55c-.08,3.01-1.61,5.33-3.62,7.4-19.94,20.53-38.32,42.53-59.25,62.11-19.31,18.07-38.54,36.15-60.42,51.28-7.99,5.52-16.07,10.34-25.14,13.61,1.93-2.28,3.87-4.55,5.8-6.82,29-25.97,57.92-52.05,87.04-77.89,18.59-16.5,36.26-34.02,55.6-49.68Z" style="fill: #9c9ea8; stroke-width: 0px;"/>
  <path d="M269.88,500.46c-.49,2.81-.98,5.62-1.48,8.43,0,0-.66.03-.66.03,0,0-.66,0-.66,0,.26-3.04-1.06-6.61,2.8-8.46Z" style="fill: #6897f3; stroke-width: 0px;"/>
  <path d="M698.1,439.58c-10.83,9.39-21.66,18.79-32.48,28.18,3.29-8.36,11.36-12.64,16.62-19.33.8-1.02,2.54-1.27,2.73-4.08-6.81,3.51-11.58,9.19-18.12,11.94-1.5.63-2.76,2.26-4.24,2.42-18.72,2.07-29.94,16.33-43.33,26.83-14.37,11.26-28.09,23.36-42.03,35.16-5.19,4.39-10.24,8.96-15.29,13.51-1.71,1.54-3.25,3.26-6.65,3.6,3.37-5.5,8.2-8.33,12.07-12.15,12.38-12.21,25.7-23.4,38.29-35.36,26.38-25.06,53.52-49.26,80.59-73.55,8.9-7.99,17.13-16.71,26.77-23.9,4.03-3,8.19-5.74,13.03-6.71,4.64-.93,5.3-3.78,4.27-7.19-1.05-3.48-2.32-7.31-7.55-6.69-10.68,1.27-20.28-1.71-28.79-8.14-7.92-5.99-13.78-5.55-21.17,1.21-25.29,23.1-50.76,46-76.04,69.1-20.96,19.16-41.67,38.59-62.63,57.75-27.2,24.87-53.94,50.24-80.86,75.42-8.07,7.55-15.87,15.35-23.94,22.89-5.11,4.78-8.15,4.45-11.38-1.88-3.58-7.01-8.6-12.84-14.01-18.39-21.86-22.4-43.79-44.71-65.63-67.13-3.1-3.18-5.57-7.01-8.82-10.01-2.97-2.75-6.26-6.35-11.03-3.31-3.51,2.24-5.57,11.67-3.46,15.39,2.75,4.84,4.5,10.38,9.39,13.77.19.13.42.31.47.51,2.93,11.72,12.57,20.08,15.83,31.6,1.5,5.31,4.06,9.94,7.45,14.23,11.05,13.96,21.77,28.18,33.15,41.86,7.93,9.55,14.63,20.08,23.42,28.94,1.87,1.88,4.85,4.38,2.45,7.14-2.75,3.16-5.92.44-7.9-1.59-9.03-9.24-18.97-17.6-26.98-27.86-2.88-3.69-6.53-6.77-9.82-10.14-19.56-20.03-39.28-39.91-58.55-60.21-4.83-5.09-9.41-10.47-14.32-15.52-2.01-2.06-4.15-4.24-6.99-4.5-4.76-.44-6.37-3.32-7.03-7.38,17.22,9.26,29.45,24.29,42.57,38.05,10.37,10.89,20.74,21.69,32.02,31.62,1.93,1.7,3.47,3.91,8.1,4.57-6.74-9.04-12.43-17.31-18.77-25.04-12.78-15.57-25.94-30.82-38.89-46.25-3.6-4.29-5.17-8.15-.35-13.42,5.32-5.81,10.59-11.84,14.34-19.03,3.14-6.02,4.1-12.53,5.24-18.95.6-3.36,2.21-3.61,4.63-3.84,9.11-.86,16.41,2.86,22.9,8.84,2.19,2.02,3.7,5.03,7.2,5.29,4.26-.64,6.01,2.83,8.23,5.25,12.78,13.91,24.72,28.58,38.02,42.03,2.54,2.57,5.89,4.9,4.98,9.38-3.04,1.72-4.97-.45-6.69-2.24-5.2-5.42-11.13-10.02-16.15-15.7-11.66-13.21-25.37-24.44-37.28-37.46-.88-.96-1.83-2.11-3.97-2.05,5.75,8.66,12.73,15.9,19.28,23.42,15.3,17.57,29.46,36,43.56,54.51,1.66,2.18,2.73,6.76,6.49,4.96,3.3-1.58,5.49-5.09,4.67-9.45-.31-1.63-.3-3.29.76-4.74,6.29,2.1,10.42-3.84,16.02-4.32,9.18-1.25,14.71-8.71,22.12-12.95,8.49-4.85,13.94-13.63,24.57-18.6-5.86,8.39-12.85,13.41-19.06,18.85-14.24,12.46-24.81,28.17-38.23,41.3-1.22,1.19-1.86,3.35-2.04,5.13-.41,3.97-.76,8.77,2.93,10.9,3.92,2.26,6.05-2.38,8.49-4.64,26.84-24.86,53.38-50.06,80.52-74.6,17.53-15.85,34.67-32.1,52.17-47.96,29.02-26.29,58.19-52.4,86.48-79.48,5.91-5.65,12.61-10.47,18.56-16.09,3.09-2.92,8-5.95,2.08-11.31-2.49-2.26.79-4.11,2.62-5.3,6.97-4.55,18.93-2.9,26.05,3.45,4.54,4.06,9.2,7.99,13.58,12.23,3.34,3.24,7.21,4.19,11.62,3.81,5.07,5.63,7.9,12.24,8.61,19.76,2.78,3.39-2.68,6.54-.3,9.92-1.11,6.84-3.99,12.87-8.31,18.25-8.95,8.49-17.89,16.98-26.84,25.47Z" style="fill: #5e8ded; stroke-width: 0px;"/>
  <path d="M543.84,700.97c-.38-1.35-.76-2.69-1.14-4.04,11.61-22.16,27.83-40.58,47.37-55.84,19.37-15.13,41.29-25.69,65.08-32.16,2.02-.55,4.13-.73,6.2-1.08,3.32.49,6.63.98,9.95,1.46-6.86,3.05-14.43,3.14-21.59,5.19-27.93,8-52.15,22.12-72.95,42.14-13.4,12.9-23.49,28.4-32.91,44.33Z" style="fill: #3e4567; stroke-width: 0px;"/>
  <path d="M733.24,395.87c-2.21-.87-6.29-1.24-1.5-4.34,2.33-1.51,1.39-3.67,1.8-5.58,2.58,3.39.54,6.64-.3,9.92Z" style="fill: #6c9bf5; stroke-width: 0px;"/>
  <path d="M405.58,534.27c-4.47-8.73-12.65-14.26-18.85-21.5-10.28-12.01-20.39-24.26-32.18-34.91-.41-.99-.82-1.97-1.23-2.96,4.37.09,7.25,2.99,10.28,5.53,17.75,14.87,35.28,30.01,53.29,44.56,6.11,4.94,13.02,9.21,21.08,10.73-1.5,2.23-4.56,2.97-5.5,5.74-1.8,1.37-3.71,2.62-5.39,4.13-3.35,3.02-6.67,3.41-10.16.32-4.91-2.77-8.92-6.42-11.34-11.63Z" style="fill: #a8acc1; stroke-width: 0px;"/>
  <path d="M552.54,756.25c-4.33,13.17-4.59,26.91-5.63,40.54-.26,3.38,1.17,8.57-2.67,9.26-4.21.75-4.24-4.78-5.18-7.82-6.42-20.92-2.76-41.47,2.37-62.04,3.51-14.04,11.97-25.85,16.79-39.26,14.11-20.8,32.44-36.68,55.2-47.42,2.96-1.39,2.95-1.42,7.99-1.45-3.24,6.05-8.68,9.54-13.26,13.41-19.56,16.49-33.63,36.88-44.15,59.91-1.61,3.53-5.01,6.41-4.4,10.86-4.74,7.31-6.55,15.48-7.07,24.03Z" style="fill: #5c6182; stroke-width: 0px;"/>
  <path d="M278.41,506.13c.04-1.71-.63-4.73,1.91-6.84,6.83-5.66,12.9-12.34,21.22-15.99,1.66-.73,3.6-1.18,5.41-1.15,4.72.07,6.68,1.79,3.76,6.6-3.12,5.13-7.69,8.85-11.8,13-3.07,3.1-5.29,6.63-6.23,10.82-.62,2.77.62,7.05-4.32,6.07-4.17-.83-9.1-1.5-9.91-7.23-.2-1.38-.03-2.82-.03-5.29Z" style="fill: #7da9fa; stroke-width: 0px;"/>
  <path d="M555.37,698.3c-.44,2.59-.88,5.17-4.16,5.68-.05-2.95,1.99-4.36,4.16-5.68Z" style="fill: #3e4567; stroke-width: 0px;"/>
  <path d="M405.58,534.27c4.27,3.39,8.13,7.19,11.34,11.62,1.07,5.34,1.25,10.28-3.13,14.68-2.85,2.86-4.09,4.27-7.31.03-13.68-18.06-27.67-35.88-41.83-53.56-8.03-10.03-16.62-19.61-24.96-29.39-.76-.89-1.66-1.69-1.17-3.46,4.19-.93,6.67,1.92,9.26,4.5,11.92,11.91,24.16,23.51,35.59,35.87,5.25,5.68,11.21,10.53,16.47,16.14,1.56,1.67,2.97,3.78,5.75,3.57Z" style="fill: #467ae5; stroke-width: 0px;"/>
</svg>