<?xml version="1.0" encoding="UTF-8"?>
<svg id="Layer_1" data-name="Layer 1" xmlns="http://www.w3.org/2000/svg" viewBox="0 0 1019.02 1116.74">
  <path d="M253.68,1041.52c-11.22-5.18-20.57-13.19-30.56-20.23-20.34-14.32-38.77-31.01-56.3-48.46-20.51-20.41-39.46-42.39-56.38-65.98-18.42-25.68-34.81-52.62-48.81-80.93-24.8-50.16-42.07-102.92-51.86-157.97-4.93-27.74-7.51-55.79-9.19-84.03-1.33-22.37-.11-44.53.84-66.69,1.36-32.06,7.78-63.53,15.39-94.66,11.33-46.35,27.34-90.99,49.68-133.28,17.14-32.46,36.42-63.62,58.77-92.65,16.4-21.31,35.88-39.86,57.29-56.43,23.13-17.89,46.82-34.92,72.16-49.45,11.4-6.54,21.07-14.77,30.13-23.99,12.46-12.68,28.1-19.92,44.05-27.13,24.35-11.02,49.14-20.64,74.95-27.42,24.42-6.42,49.38-9.43,74.6-11.16,11.84-.81,23.64-1.21,35.44-1,44.88.81,88.84,7.61,131.66,21.29,15.89,5.08,31.74,10.3,46.73,17.77-.31,3.97-3.85,5.02-6.43,6.62-27.47,17.04-49.73,39.26-67.31,66.36-18.25,28.14-29.26,58.84-33.32,92.1-2.92,27.28-.46,54.16,5.72,80.78.37,1.58.54,3.21-.11,4.79-2.59,2.43-5.32.81-7.77-.06-27.26-9.63-55.34-15.57-84-19.12-4.85-.6-9.75-.19-14.55-1.17-2.67-.9-5.42-.98-8.2-.81-6.22.04-12.44-.23-18.65.07-5.01.12-10.03.03-15.04.04-7.16-.12-14.33-.69-21.46.39-22.04,1.47-43.88,4.3-65.65,8.31-20.34,3.75-39.61,10.37-58.18,19.08-32.74,15.35-64.33,32.87-91.95,56.4-20,17.04-37.93,36.37-55.91,55.54-3.96,4.22-7.75,8.65-11.5,13.1-12.71,15.05-19.95,31.83-17.72,51.91-2.71,24.95,20.06,49.95,48.1,49.53,9.29-.14,18.61.71,27.88-.68,13.38-2.01,24.39-8.36,34.09-17.68,14.62-14.04,26.52-30.59,41.43-44.33,35.06-32.32,73.15-59.71,119.51-73.73,52.2-15.79,103.1-13.34,153.05,9.46,52.1,23.78,95.02,58.84,130.72,103.27,7.13,8.88,14.82,17.36,25.23,22.72,15.27,7.86,31.61,8.76,48.27,7.39,8.62-.71,17.11-2.17,24.76-6.54,10.67-6.11,18.33-14.87,22.94-26.32,2.51-6.25,4.65-12.67,8.56-18.29,3.55-5.1,8.12-7.82,14.49-8.34,20.59-1.7,41.36-1.78,61.64-6.58,5.67-1.34,11.41-2.44,16.83-4.55,10.5-4.09,26.46,2.38,27.16,16.71,1.22,25.05,3.74,50.05,1.31,75.17-1.05,10.87-.84,21.8-1.63,32.71-3.03,41.69-10.23,82.57-21.62,122.76-9.55,33.71-22.9,65.95-38.28,97.3-21.51,43.86-48.52,84.14-81.05,120.73-38.25,43.02-82.56,78.43-132.66,106.56-50.24,28.21-104.03,46.21-161.07,54.41-8.06,1.16-16.14,2.21-24.24,2.75-11.67.77-22.99-1.21-34.48-3.74-52.28-11.5-103.27-28.12-155.72-38.83-7.21-1.47-13.99-5.51-21.76-3.79Z" style="fill: #dcdfdf; stroke-width: 0px;"/>
  <path d="M590.09,289.86c-5.54-22.3-8.81-44.88-8.05-67.91.21-6.47.98-12.92,1.5-19.38,4.04-1.56,3.43,1.91,4.39,4.23,5.19-25.64,12.94-50.1,24.89-73.17,25.41-49.06,64.08-83.02,115.76-102.34,11.55-4.32,23.37-7.77,35.16-11.33,5.77-1.74,11.68-3.25,16.43-7.32,108.22-11.12,210.24,61.57,234.04,171.22,5.37,24.73,6.07,49.74,2.93,74.85-.11.88-.63,1.71-.96,2.56-3.28-1.33-3.27-4.32-3.27-7.06,0-5.14-.58-10.21-1.59-16.08-4.25,20.55-7.87,40.54-15.55,59.38-30.62,75.11-85.41,121.15-166.09,132.17-71.06,9.71-133.78-11.4-186.99-59.84-3.1-2.82-6.43-5.36-9.6-8.1-3.08-2.66-2.38,1.04-3.22,2.14-4.06,1.92-5.27-1.65-6.81-3.85-6.78-9.73-13.33-19.63-18.62-30.28-3.49-7.08-6.97-14.16-9.91-21.5-1.38-6.15-5.56-11.63-4.46-18.38Z" style="fill: #0de6f5; stroke-width: 0px;"/>
  <path d="M253.68,1041.52c1.35-4.6,4.53-2.71,7.34-2.07,39.93,9.11,79.45,19.82,119.05,30.23,21.24,5.58,42.69,10.36,64.08,15.37,12.69,2.97,25.47.93,38.02-.64,32.45-4.07,64.11-11.74,95.04-22.48,47.78-16.59,91.3-40.87,131.6-71.28,23.77-17.93,46.05-37.56,66.14-59.46,27.46-29.94,51.54-62.46,71.65-97.91,20.45-36.06,37.25-73.7,50.02-113.08,10.29-31.72,17.7-64.16,21.79-97.32,2.87-23.19,4.79-46.4,5.87-69.77.64-13.92,1.48-27.87.74-41.7-.7-13.14-.29-26.38-2.5-39.45-1.43-8.4-12.49-15.03-21.81-12.08-22.71,7.19-45.89,10.68-69.69,10.65-5.05,0-10.18.85-15.14,1.62-8.46,1.32-11.09,9.15-14.34,15.76-2.34,4.77-3.69,10.06-6.2,14.73-8.97,16.73-22.9,25.69-41.96,28.12-12.41,1.58-24.54,1.14-36.61-.82-18.28-2.95-31.48-14.45-42.44-28.39-18.3-23.28-39.27-43.72-62.33-62.25-28.72-23.09-60.61-40.51-95.37-51.98-25.61-8.45-52.29-10.97-79.52-7.93-23.46,2.62-46.07,7.9-67.75,17.01-24.3,10.22-46.64,23.83-67.2,40.33-14.47,11.62-28.74,23.5-41.32,37.19-9.25,10.07-17.97,20.59-27.53,30.42-13.75,14.14-30.02,21.26-49.78,20.59-10.17-.35-20.39.64-30.43-2.17-18.38-5.16-37.58-26.32-34.67-49.63,2.63-.05,2.79,2.17,3.24,3.82,2.94,10.73,9.52,19,17.5,26.36,7.71,9.38,18.07,12.6,29.72,12.76,5.81.08,11.63-.04,17.44.02,15.01.16,27.55-5.71,38.36-15.71,8.37-7.75,15.67-16.5,23.35-24.91,35.52-38.91,75.82-71.47,125.53-90.46,31.36-11.98,64.2-17.89,97.8-15.18,27.7,2.24,54.25,9.84,79.67,21.66,44.16,20.53,81.22,50.32,114.36,85.44,6.05,6.41,11.68,13.27,17.07,20.22,16.5,21.25,38.51,27.63,64.23,25.68,23.52-1.78,37.84-14.57,45.34-36.21,2.89-8.36,5.42-16.8,7.47-25.41,1.11-4.69,1.31-9.72,4.44-13.78,7.82-2.43,15.98-2.26,23.99-3.23,22.51-2.74,43.98-9,64.44-18.75,1.67-.8,3.36-1.59,5.26-1.67,4.08,1.74,7.3,4.82,10.94,7.24,13.23,8.81,24.35,8.33,35.87-2.63,13.12-12.48,27.34-23.87,38.41-38.42,1.28-1.68,2.32-4.3,5.39-3.37,7.06,19.8,11.18,40.37,14.95,60.94,7.64,41.71,10.99,83.85,9.93,126.26-.4,15.94-1.82,31.86-2.85,47.78-.05.84-.73,1.64-1.12,2.46-6.65-.57-13.2.09-19.85.7-6.96.64-13.57-2.71-19.18-7.23-1.99-1.6-3.79-3.44-6.03-4.73-8-4.59-12.2-3.16-15.96,5.11-4.58,10.06-6.54,20.88-9.01,31.48-12.91,55.55-31.96,108.93-57.24,159.97-21.15,42.7-47.32,82.18-79.08,117.88-38.35,43.11-82.06,79.65-132.15,108.37-52.26,29.96-108.47,48.6-167.89,58.06-18.19,2.9-36.5,4.67-54.79,4.81-13.84.1-27.87-.55-41.66-2.96-23.79-4.16-47.93-6.39-71.24-13.15-1.11-.32-2.32.28-3.4-.34-14.17-4.31-27.21-11.24-40.33-17.84-11.88-5.98-23.13-13.23-34.62-19.98-1.15-.68-2.05-1.77-3.07-2.68Z" style="fill: #b0c0c9; stroke-width: 0px;"/>
  <path d="M331.7,1082.02c2.12-1.14,4.1-1.29,6.61-.61,21.68,5.81,44.04,7.93,66.07,11.9,14.21,2.56,28.62,3.36,42.77,3.43,16.27.08,32.77-1.2,49.02-3.76,30.68-4.83,60.83-11.71,90.29-21.65,52.83-17.82,100.82-44.25,144.55-78.87,22.83-18.07,44.15-37.68,63.9-58.92,24.34-26.18,45.4-54.99,63.79-85.67,24.07-40.15,42.7-82.86,58.13-126.94,8.49-24.26,14.78-49.22,21.11-74.15,2.38-9.38,4.67-18.79,7.73-28.06,4.53-13.74,12.87-13.26,23.09-4.73,5.4,4.51,11.06,7.35,17.76,8.89,2.43.56,4.54.56,6.71-.35,5.6-2.35,10.89-1.64,15.96,1.5-2.46,33.52-9.44,66.21-18.29,98.53-14.58,53.23-36.53,103.28-65.52,150.24-.84,1.36-1.91,2.57-2.88,3.84-2.67-1.8.08-6.87-3.93-7.4-6.01-.8-12.24-.8-17.64,2.47-12.74,7.71-25.15,15.88-35.76,26.52-38.8,38.89-79.32,75.89-123.68,108.36-47.49,34.76-99.37,60.98-155.93,77.82-29.51,8.79-59.46,15.31-90.05,18.59-40.84,4.37-81.18.82-121.14-8.46-8.95-2.08-17.57-5.68-26.91-6-5.42-1.75-10.92-3.31-15.74-6.52Z" style="fill: #afb0b5; stroke-width: 0px;"/>
  <path d="M347.44,1088.54c1.15-4.34,4-1.2,5.55-.85,18.49,4.17,36.92,8.5,55.7,11.29,24.59,3.66,49.12,4.49,74.02,2.85,30.43-2,60.01-7.71,89.32-15.5,46.29-12.31,89.74-31.26,130.63-56.12,31.75-19.3,60.99-41.92,88.97-66.37,25.87-22.6,51.26-45.64,75.45-70.03,9.86-9.94,21.93-17.02,33.75-24.3,5.76-3.55,12.54-2.36,18.94-2.52,2.59-.06,3.72,1.25,2.99,4.08-.45,1.76-.21,3.7-.28,5.55-14.18,22.47-29.71,44.01-46.96,64.18-35.63,41.65-76.22,77.64-123.49,105.77-3.33-1.61-6.77-1.12-10.26-.71-21.75,2.51-41.88,10.62-61.89,18.66-50.74,20.4-103.06,34.45-157.34,41.21-28.44,3.54-56.98,3.8-85.55,3.08-8.46-.21-16.81-2.5-25.37-2.04-21.98-4.02-43.26-10.53-64.18-18.26Z" style="fill: #939799; stroke-width: 0px;"/>
  <path d="M898.81,424.91c-29.94,14.74-61.73,22.03-94.96,23.4-5.99,3.29-12.33,1.7-18.59,1.38-13.75-1.91-27.61-3.18-41.03-7.09-5.57-1.62-11.17-3.09-16.6-5.14-3.72-1.2-7.29-2.78-10.92-4.23-26.54-11.18-50.1-26.91-71.03-46.65-5.24-4.94-9.25-10.96-14.35-16.04-1.6-1.59-3.06-3.58-2.06-6.2-.11-.69-.13-1.4-.33-2.06-.59-1.92-2.23-4.26.22-5.53,1.94-1,3.07,1.55,4.37,2.73,19.14,17.24,38.64,34.05,61.96,45.49,26.18,12.84,53.59,21.14,82.91,23.86,31.2,2.89,61.66.32,91.01-10.05,61.24-21.64,102.57-63.92,125.62-124.45,6.62-17.39,9.94-35.59,13.99-53.62.5-2.22,1.21-4.39,2.57-6.64,1.73,5.12,3.06,10.2,3.11,15.62.04,3.9-.8,7.95,1.5,11.57.16.4.12.77-.13,1.12-1.68,2.21.11,5.03-1.3,7.28-5.15,31.11-17.99,59.01-35.36,85.03-2.27,9.56-9.56,15.87-15.63,22.67-16.5,18.51-35.78,33.7-57.83,45.22-2.21,1.16-4.35,2.79-7.13,2.32Z" style="fill: #00bcdc; stroke-width: 0px;"/>
  <path d="M411.62,1106.8c6.49-2.97,13.25-1.12,19.8-.68,20.83,1.38,41.6,1.48,62.42-.09,10.82-.82,21.6-1.69,32.39-2.99,25.94-3.14,51.39-8.51,76.71-14.81,29.97-7.46,58.53-18.93,87.31-29.82,17.96-6.8,36.1-12.88,55.24-15.44,3.32-.44,5.36.62,6.54,3.64-44.23,26.82-91.38,46.54-141.82,58.2-42.71,9.87-85.87,13.88-129.72,11.08-23.2-1.48-46.15-4.26-68.87-9.07Z" style="fill: #86898b; stroke-width: 0px;"/>
  <path d="M898.81,424.91c22.85-12.06,43.62-26.92,61.25-45.93,7.05-7.6,13.72-15.54,19.34-24.28,1.7,10.99,7.35,20.88,8.86,31.91-3.44,3.99-6.8,8.05-10.33,11.96-11.34,12.57-24.22,23.51-36.83,34.74-10.65,9.48-21.63,6.06-31.87.02-3.6-2.12-8.9-3.28-10.42-8.42Z" style="fill: #afb0b5; stroke-width: 0px;"/>
  <path d="M780.18,12.64c-.54,4.36-4.07,5.23-7.39,6.29-17.41,5.56-35.18,10.07-52,17.35-22.24,9.63-42.87,21.7-60.85,38.29-38.47,35.48-59.51,80.07-69.75,130.54-.41,2.01-1.11,3.95-1.7,6-4.91-1.26.29-7.79-4.94-8.54,4.32-34.57,16.43-66.17,35.86-95.09,17.6-26.2,39.98-47.33,66.64-64.06,2.14-1.34,4.16-2.87,6.23-4.31,15.28-7,30.24-14.8,46.58-19.17,13.56-3.63,27.1-7.42,41.33-7.31Z" style="fill: #66ebf3; stroke-width: 0px;"/>
  <path d="M1014.76,269.67c.08-2.49-.99-5.19,1.3-7.28.06,2.52.36,5.08-1.3,7.28Z" style="fill: #0de6f5; stroke-width: 0px;"/>
  <path d="M218.78,608.65c-6.32-17.36-1.03-32.88,8.71-46.96,16.65-24.08,38.29-43.25,61.54-60.87,32.05-24.29,68.14-39.22,107.25-46.8,21.91-4.24,44.34-3.42,66.6-3.09,4.76.07,9.72-1.21,14.3,1.27-3.57,2.99-8.42,2.02-12.31,4-10.3-.99-20.51-3.12-28.32-2.58,34.05,3.1,68.85,12.24,101.12,30.64,30.1,17.16,55.95,39.18,77.92,65.77,9.95,12.04,18.56,25.04,22.42,40.56.19,2.21.11,4.4-.36,6.57-.93,3.83-1.56,7.74-2.88,11.49-6.78,19.36-28.15,25.96-44.78,13.91-6.88-4.98-12.46-11.24-17.48-17.89-28.33-37.56-67.54-57.6-111.88-68.53-45.9-11.32-88.93-1.03-129.68,20.87-10.48,5.63-19.07,14.13-27.55,22.35-10.18,9.86-20.7,19.37-30.89,29.21-5.1,4.93-10.94,8.74-17.65,10.93-16.39,5.35-24.35,2.87-36.08-10.83Z" style="fill: #75b4e7; stroke-width: 0px;"/>
  <path d="M717.11,431.55c3.34,1.39,6.67,2.78,10.01,4.17,5.2,8.27,10.34,16.71,12.39,26.31,3.41,15.95-4.49,27.76-15.51,38.05-6.45,6.03-14.22,9.49-22.77,11.32-8.01-.56-12.75-6.29-17.14-11.8-26.16-32.86-54.89-63.07-89.66-86.99-15.9-10.94-32.55-20.67-50.44-28.11-26.19-12.93-53.97-19.78-82.95-22.6-9.76-.95-19.48-1.13-29.24-1.17-12.19.12-24.39-.62-36.51,1.16-17.59.08-34.58,4.08-51.35,8.71-26.04,7.18-51.27,16.56-74.92,29.9-17.01,9.6-30.91,23-45.06,36.06-18.12,16.72-34.34,35.33-51.44,53.06-8.93,9.25-18.68,15.06-31.57,15.27-1.1.05-2.11-.26-3.06-.78-10.41-7.86-15.58-19.02-19.44-30.99-2.95-23.21,7.79-41.17,22.15-57.74,12.64-14.59,26.99-27.54,40.11-41.64,19.9-21.4,43.05-38.52,67.91-53.49,23.81-14.34,48.57-26.97,74.69-36.48,19.51-7.1,40.16-10.03,60.69-12.94,11.89-1.68,23.82-3.21,35.87-2.94,7.39-1.68,14.98.54,22.37-1.17,5.13.02,10.27.03,15.4.05,20.37,1.93,40.38,5.75,60.03,11.47,24.78,7.22,49.24,15.34,72.5,26.69,2.09,1.02,4.15,2.08,6.04,3.44,3.2,7,6.39,14.01,9.59,21.01-3.64,2.29-6.15-.53-8.79-2.12-31.24-18.86-64.24-33.65-99.72-42.46-17.4-4.32-35.08-7.2-53.13-6.56-8.17.29-16.23-.99-24.34-1.3-15.41-.58-30.55,2.29-45.68,4.79-61.22,10.12-113.49,39.12-160.59,77.97-14.29,11.79-25.9,26.59-28.66,46.48-.86,6.19-3.34,11.49,1.49,17.43,4.4,5.41,5.37,6.46,11.78,2.64,10.59-6.29,20.81-13.2,30.99-20.12,17.39-11.81,36.39-20.63,55.01-30.11,10.33-5.26,21.11-9.73,31.76-14.37,28.67-12.5,58.88-16.55,89.78-17.34,26.53-.67,52.94.52,79.26,4.01,19.62,2.6,37.76,9.77,55.59,17.8,41.83,18.85,78.66,44.92,110.38,78.05,12.21,12.75,23.76,26.13,35.37,39.45,9.45,10.84,15.44,12.77,25.3,9,10.48-4.01,17.6-14.48,17.76-26.06.13-9.58-4.23-17.42-9.3-25.08-1.93-2.91-5.37-5.63-2.96-9.93Z" style="fill: #51a2df; stroke-width: 0px;"/>
  <path d="M318.07,745.47c-6.77-16.9-5.47-33.68,4.86-48.15,18.13-25.38,41.56-44.79,71.61-54.9,11.85-3.98,24.17-6.1,36.79-6.01,15.79.1,31.59-.16,47.38.15,7.07.14,14.21.84,20.74,4.13-8.93,5.76-18.73,2.28-27.64,3.16,6.75,3.07,13.87,6.93,20.82,11.1,17.43,10.63,30.8,25.28,41.73,42.29,1.87,2.92,3.42,6.08,4.43,9.45,3.62,9.83,3.46,19.52-1.09,29.04-.28.63-.63,1.24-1,1.82-2.27,2.94-4.17,6.13-6.25,9.21-1.91,2.35-4.02,4.51-6.35,6.44-9.51,7.86-19.25,8.51-29.43,1.86-6.83-4.46-12.88-9.77-18.32-15.92-20.92-23.64-59.71-31.93-86.67-10.82-10.02,7.85-20.05,15.78-30.74,22.79-10.87,7.13-21.36,8.58-31.94-.29-2.69-2.25-6.26-3.05-8.92-5.36Z" style="fill: #68ade3; stroke-width: 0px;"/>
  <path d="M513.45,456.53c15.78-.78,30.07,5.22,44.36,10.46,31.48,11.54,59.15,29.26,84.41,51.45,15.59,13.69,30.43,27.78,42.55,44.57,11.44,15.85,18.29,33.06,14.54,53.27-4.83,26-23.92,40.97-49.4,42.55-11.35.7-22.7.19-33.82-2.77-14.15-3.77-25.21-11.75-34.74-22.91-30.03-35.16-65.59-62.18-112.09-71.34-10.84-2.14-22.21-1.43-33.18,1.19-27.65,6.62-51.42,20.38-72.98,38.7-11.92,10.13-22.24,21.67-32.8,33.05-17.74,19.11-40.22,21.83-64.52,19.16-11.8-1.3-23.1-3.87-31.88-12.11-7.42-6.97-14.23-14.81-13.5-26.24,2.38-.26,3.19,1.64,3.9,3.2,4.86,10.73,13.62,16.22,24.7,18.67,1.4.22,2.75.58,4.04,1.16,19.14,7.37,51.56,7.09,67.83-10.73,13.3-14.56,26.92-28.98,42.49-41.26,22.17-17.5,46.17-31.45,74.55-36.05,21.98-3.56,43.03.31,63.43,8.78,7.08,2.94,14.08,6.09,21.34,8.54,10.59,4.57,19.31,11.92,28.02,19.19,14.65,12.23,26.94,26.76,39.06,41.41,3.65,4.41,8.28,7.38,13.41,9.71,13.25,4.95,26.96,3.86,40.57,2.75,5.91-.49,11.94-.54,17.58-3.56,19.04-10.2,27.07-32.7,19.4-55.45-1.26-3.75-2.86-7.36-4.99-10.7-10.01-17.05-23.76-30.97-38.01-44.33-12.04-11.29-25.11-21.38-38.64-30.92-23.96-16.88-50.78-27.06-78.56-35.31-2.6-.77-6.33-.05-7.08-4.14Z" style="fill: #a6b0b7; stroke-width: 0px;"/>
  <path d="M248.24,639.15c-13.81-2.53-21.92-11.78-27.86-23.59-.54-2.31-1.07-4.61-1.61-6.92,2.07-.05,3.4,1.23,4.74,2.56,9.57,9.42,20.87,11.37,33.3,5.69,5.95-2.72,11.01-6.63,15.93-11,17.64-15.68,33.22-33.67,52.66-47.35,14.24-10.03,30.45-15.7,46.84-20.76,14.14-4.36,28.67-7.81,43.42-8.36,11.21-.42,22.6,1.2,33.77,2.83,32.72,4.76,61.98,18.32,89.16,36.6,13.77,9.26,24.87,21.39,35.04,34.43,5.39,6.92,11.13,13.65,18.39,18.71,16.93,11.81,38.05,2.15,42.71-19.41.38-1.75-.34-3.81,1.55-5.1,1.16-2.3,1.07-4.62.07-6.95-5.21-16.71-14.77-30.69-26.17-43.81-17.46-20.09-36.82-37.79-59.24-52.24-29.87-19.25-62-32.14-97.37-36.71-7.59-.98-15.1-2.59-22.52-4.57,11.37-1.02,22.64-1.53,33.63,1.9,2.93-.88,5.92-.61,8.78.08,34.45,8.23,67.97,19.07,98.64,37.17,18.03,10.64,34.02,24.19,50.02,37.63,2.74,2.3,6.01,4.57,6.26,8.8-1.29,2.7-1.11,5.13.38,7.89,2.67,4.93,6.19,9.28,8.92,14.12,15.06,26.65,10.54,49.66-11.27,70.37-6.73,6.39-15.32,9.5-24.98,8.08-10.33-4.01-15.65-13.4-22.48-21.12-16.48-18.62-33.86-36.18-55.75-48.56-14.28-6.68-28.6-13.32-43.6-18.24-10.18-3.34-20.72-5.13-31.46-5.6-14.66-3.92-29.53-3.23-44.17-.73-26.03,4.45-51.1,11.99-73.02,27.46-12.36,8.72-23.02,19.47-33.92,29.86-8.9,8.49-17.92,16.83-27.25,24.84-6.38,5.48-13.08,10.34-21.57,11.99Z" style="fill: #3e90d5; stroke-width: 0px;"/>
  <path d="M386.54,886.33c-6.71-20.25-6.37-40.23,4.33-58.95,10.42-18.24,25.78-29.68,47.84-29.01,10.86.33,21.63-2.47,32.59-.16,4.3.91,8.47,2.18,12.73,3.16,5.58,1.68,10.68,4.33,15.09,8.12,1.89,1.62,4.89,3.21,2.53,6.63-6.98,1.84-13.81-.32-20.61-1.15-14.52-1.78-15.29-1.2-11.79,12.48,1.55,6.07,2.59,12.26,3.76,18.41.52,2.75.54,5.54.35,8.33-1.25,18.68-24.1,48.07-41.79,53.88-10.94,3.59-21.52,1.57-32.04-1.79-7.97-4.27-10.33-12.2-12.99-19.93Z" style="fill: #5ba4de; stroke-width: 0px;"/>
  <path d="M506.5,642.16c14.82-.49,26.67,7.46,38.35,14.66,11.38,7.01,22.25,15.03,31.45,25.06,11.79,12.86,21.48,26.93,24.43,44.42,4.84,28.75-11.7,57.38-44.8,61.18-16.67,1.91-32.68.67-48.26-5.58-9.95-4-17.31-11.43-24.7-18.78-5.13-5.1-10.42-10.03-17.2-12.76-12.74-5.12-22.3,1.25-31.31,9.19-4.17,3.68-7.76,7.92-12.2,11.39-23.3,18.17-49.18,18.34-75.86,10.61-11.93-3.46-19.86-12.5-25.28-23.5-.72-1.46-2.78-3.64-.26-5.58,3.16-.3,4.05,2.6,5.76,4.22,4.15,3.93,7.82,8.43,13.52,10.33,10.44,4.72,21.39,3.13,32.23,2.58,2.07-.1,4.14-.96,6.2-.75,14.37,1.49,24.93-5.25,34.17-15.29,4.55-4.95,9.34-9.71,14.3-14.26,6.45-5.91,13.7-10.35,22.75-10.94,9.7.8,17.3,5.72,24.19,12.18,9.23,8.66,17.13,18.74,27.61,26.07,4.05,2.55,8.27,4.64,13.19,4.78,9.5.16,19-.26,28.47.11,28.64,1.1,42.89-22.46,42.25-42.27-.05-1.62-.05-3.24-.08-4.85-1.22-16.63-10.41-29.13-21.13-40.83-14.12-16.69-31.86-28.26-51.75-36.87-2.3-.99-5.77-.71-6.05-4.52Z" style="fill: #a0abb1; stroke-width: 0px;"/>
  <path d="M502.11,815.35c-4.24-6.97-12.19-9.14-18.08-13.98,8.57.17,15.18,4.65,21.94,9.35,26.54,18.43,34.98,58.77,22.95,86.78-8.69,20.26-22.8,34.7-44.66,39.21-30.46,6.28-59.81,4.83-83.05-19.61-8.02-8.44-13.6-18.69-14.67-30.76,4.22,6.06,6.31,13.56,12.43,18.32,6.74,4,11.98,10.3,19.69,12.82,15.27,6.79,31.34,4.97,47.26,4.29,30.06-1.29,48.32-26.63,51.14-50.85.91-15.48-.26-30.52-8.56-44.26-2.23-3.7-6-6.57-6.4-11.31Z" style="fill: #9fabb0; stroke-width: 0px;"/>
  <path d="M500.79,767.99c-10.71-6.85-18.19-17.15-27.31-25.71-6.59-6.18-13.82-10.82-22.82-12.4-7.5-1.42-14.89-3.51-22.47-4.45-9.49-1.17-17.74,2.56-25.65,7.25-12.08,7.15-22.18,16.86-32.82,25.83-5.27,4.44-11.25,7.38-17.58,9.72-4.48,1.66-9.04,1.72-13.45-.46-8.23-2.44-12.33-9.69-17.83-15.32-1.05-2.29-2.94-4.23-2.8-7,5.83-.83,9.41,3.54,13.45,6.31,6.73,4.61,13.27,4.61,20.28,1.22,13.06-6.31,24.06-15.81,34.99-24.87,24.83-20.58,61.14-16.23,83.23,2.36,7.96,6.7,13.86,15.39,22.6,21.35,12.77,8.71,21.99,8.24,33.4-2.84,1.32-1.28,2.82-2.38,4.24-3.56,2.14-2.58,3.81-5.48,5.53-8.33l.02-.03c6.73-9.93,6.8-20.18,1.43-30.67-9.73-19.25-23.4-35.06-41.31-47.13-1.35-.91-2.81-1.59-3.45-3.21-1.03-1.54-.56-2.69,1.13-3.03,2.1-.41,4.13.33,5.96,1.3,11.6,6.12,22.52,13.23,32.15,22.23,5.49,9.4,10.06,19.06,13.7,29.49,8.26,23.72-9.61,49.53-26.64,57.68-5.74,2.75-11.47,4.99-17.97,4.25Z" style="fill: #3889cf; stroke-width: 0px;"/>
  <path d="M627.94,538.77c-10.88-12.8-24.8-22.05-37.98-32.09-35.78-27.23-77.45-40.57-120.57-50.33-1.57-.36-3.12-.83-4.67-1.25,3.6-3.34,8.19-2.46,12.47-2.91,2.34.06,4.68.13,7.02.19,3.4,2.74,7.41.1,10.99,1.27,6.09.96,12.17,1.92,18.26,2.88,14.37,4.88,28.86,9.44,43.09,14.72,22.12,8.22,41.66,21.02,60.15,35.47,21.42,16.75,40.87,35.5,56.99,57.52,1.2,1.64,1.97,3.6,2.94,5.41-2.01,1.75-4.01.87-5.77-.27-14.22-9.25-28.54-18.38-41.98-28.77-.54-.42-.77-1.15-.92-1.84Z" style="fill: #5881cd; stroke-width: 0px;"/>
  <path d="M530.2,677.06c-9.3-7.67-19.11-14.64-29.74-20.33-2.27-1.22-5.03-4.49-7.99-.67-9.02-4.5-18.04-9.01-27.06-13.51,11.61.13,22.85.21,34.02-1.87,2.35.49,4.71.98,7.07,1.47,13.94,6.22,27.99,12.33,39.86,22.19,6.72,5.59,14.42,10.25,18.94,18.17-1.53,1.5-3.39,1.21-5.18.85-7.42-1.49-14.84-2.94-22.44-3.11-2.92-.06-5.15-1.74-7.48-3.19Z" style="fill: #5585d2; stroke-width: 0px;"/>
  <path d="M596.21,308.37c-1.89.21-3.64-.13-5.38-.99-26.87-13.27-55.23-22.44-84.09-30.08-13.57-3.59-27.31-6.65-41.36-7.92-2.79-.25-5.44-.9-7.74-2.61,6.54,0,13.08-.02,19.61-.03,2.16,1.35,4.74-.12,6.92,1.05,36.55,1.37,71.57,10.09,105.91,22.07,2.04,6.17,4.08,12.34,6.12,18.51Z" style="fill: #6f8fce; stroke-width: 0px;"/>
  <path d="M442.24,266.73c-7.33,2.75-14.91.82-22.37,1.17,7.34-2.7,14.91-.87,22.37-1.17Z" style="fill: #8abbe8; stroke-width: 0px;"/>
  <path d="M495.19,453.65c-3.78.6-7.86,3.78-10.99-1.27,3.7.13,7.6-1.46,10.99,1.27Z" style="fill: #75b4e7; stroke-width: 0px;"/>
  <path d="M484.18,267.79c-2.37.03-4.88,1.03-6.92-1.05,2.37-.07,4.85-.84,6.92,1.05Z" style="fill: #8abbe8; stroke-width: 0px;"/>
  <path d="M717.11,431.55c.53,5.45,4.69,8.92,7.33,13.18,7.65,12.37,9.55,24.77,2.1,38.08-8.58,15.33-28.35,17.25-39.78,4.14-15.39-17.63-30.5-35.56-47.39-51.82-36.09-34.75-77.88-60.46-124.87-77.58-14.79-5.39-30.37-7.17-46.08-9.07-22.74-2.75-45.41-2.58-68.07-2.11-31.7.65-62.31,6.83-91.46,20.22-23.43,10.76-46.55,22.07-68.92,34.82-12.44,7.09-24.2,15.38-36.06,23.43-2.91,1.98-5.99,3.51-9.01,5.21-4.58,2.58-6.28-.09-9.36-3.46-9.4-10.25-1.74-20.03-.32-29.89,1.45-10.1,8.69-17.22,14.47-24.98,13.6-18.23,32.54-30.21,51.28-42.07,23.54-14.9,48.19-27.84,74.44-37.55,19.88-7.35,40.58-10.94,61.34-14.25,10.7-1.7,21.5-3.51,32.42-2.86,29.5,1.78,59.29,1.19,87.96,10.16,32,10.01,62.63,23.11,91.21,40.76,2.37,1.46,4.48,3.35,7.45,3.45,6.28,10.52,12.44,21.1,19.63,31.04,1.1,1.51,2.07,3.09,3.84,3.92,8.45,13,19.75,23.41,31.47,33.22,16.98,14.2,35.91,25.42,56.37,33.99Z" style="fill: #8abbe8; stroke-width: 0px;"/>
  <path d="M660.2,252.65c-7.6-13.11-6.09-26.9,4.26-37.58,5.5-5.68,11.11-11.25,16.77-16.77,13.31-12.99,30.79-13.12,44.02-.21,12.31,12.01,24.43,24.23,36.68,36.3,8.37,8.25,15.04,8.24,23.38-.09,31.43-31.38,62.83-62.78,94.2-94.21,6.88-6.89,14.68-11.29,24.81-10.12,15.83,6.98,25.15,20.23,32.53,34.9,5.57,11.07,3.65,19.81-5.1,28.57-32.17,32.2-65.57,63.12-98.17,94.88-12.26,11.94-23.67,24.96-37.57,35.21-4.32,3.19-8.92,5.76-13.93,7.8-7.1,2.89-13.69,2.57-20.89-.21-10.1-3.9-21.3-5.21-29.35-13.54-7.27-7.52-15.37-14.15-22.9-21.38-13.23-12.7-26.52-25.32-40.28-37.44-2.63-2.32-5.42-4.36-8.44-6.11Z" style="fill: #f6f9f9; stroke-width: 0px;"/>
  <path d="M944.67,159.16c12.42.6,22.44,16.1,19.22,30-2.57,11.11-8.41,20.55-15.97,28.89-4.83,5.34-10.12,10.27-15.25,15.33-15.86,15.65-30.5,32.48-46.03,48.41-17.46,17.9-36.6,34.14-54.82,51.31-8.1,7.63-15.97,15.52-25.08,21.97-4.15,2.93-8.46,5.75-13.04,7.93-13.83,6.58-24.42,4.51-36.55-7.02-13.63-12.96-26.87-26.34-40.69-39.08-10.03-9.25-20.36-18.17-29.46-28.36-2.78-3.1-4.97-6.77-4.42-11.34,3.45.14,5.19,2.88,7.27,4.96,15.66,15.57,31.23,31.24,46.89,46.82,21.07,20.97,47.58,21.01,68.46.14,42.76-42.74,85.34-85.65,128.35-128.13,11.29-11.16,17.38-22.83,10.73-38.55-.46-1.1-.4-2.27.4-3.29Z" style="fill: #08c0c0; stroke-width: 0px;"/>
  <path d="M944.67,159.16c7.43,18.19,5.63,27.5-8.22,41.34-44.04,43.99-88.08,87.98-132.18,131.91-19.58,19.51-49.53,18.07-68.46-2.04-17.18-18.25-35.45-35.48-53.24-53.15-6.98-8.62-16.49-14.94-22.38-24.56,8.14.36,12.37,7.04,17.46,11.65,18.38,16.64,36.07,34.04,54.18,50.97,6.3,5.89,13.28,10.83,22.41,11.53,2.02.16,4.21.81,5.93,1.87,10.26,6.29,19.75,2.7,28.82-2.47,5.59-3.19,10.68-7.28,15.34-11.87,20.84-20.51,41.7-41.01,62.72-61.33,20.34-19.65,40.58-39.42,61.46-58.49,13.68-12.5,10.91-24.72,2.42-37.12-6.75-9.86-13.63-20.01-25.34-25.1-.65-.28-.87-1.52-1.29-2.32,7.97-.77,14.33,2.81,19.74,8.01,7.09,6.83,13.77,14.1,20.63,21.17Z" style="fill: #c2e2df; stroke-width: 0px;"/>
  <path d="M545.77,383.79c18.4,7.24,35,17.68,51.34,28.62,24.44,16.36,44.97,37.08,65.04,58.27,7.92,8.36,14.67,17.83,21.92,26.81,4.57,5.65,9.64,10.63,16.66,13.18,9.47-.76,18.78,1.66,28.29,1.27,7.66-.32,15.35-.5,22.81-1.96,16.37-3.21,23.99-15.31,28.63-29.95,2.76-8.71,1.84-17.37-.61-26.02-1.01-3.57-1.73-7.35,4.28-6.43,6.57.25,13.14.49,19.71.74-2.73,18.2-7.35,36-16.05,52.18-8.57,15.95-23.47,23.25-41.21,24.25-16.33.92-32.41-.11-46.87-9.32-9.96-6.35-17.62-15.1-24.74-24.15-16.33-20.73-35.66-38.35-55.83-55.07-19.88-16.49-41.81-29.85-65.04-41.19-23.97-11.7-49.09-18.92-75.49-22.47-29.05-3.9-57.24.62-85.1,7.9-37.02,9.68-68.42,29.73-98.36,53.06-25.1,19.56-45.36,43.64-67.25,66.25-11.87,12.26-26.23,18.9-43.55,18.12-8.78-.39-17.57.94-26.36-1.18-8.25-1.99-15.2-5.53-20.12-12.59.91-.06,1.83-.11,2.74-.17,4.68.44,9.12,2,13.67,3.05.68.23,1.31.53,1.92.9,2.15,1.48,4.52,2.19,7.11,2.62,29.55,4.92,52.89-4.73,71.94-27.99,32.18-39.3,70.78-71.13,116.14-94.3,26.24-13.41,54.69-19.25,83.67-22.91,37.76-4.77,73.41,3.34,108.06,17.65.85.35,1.84.29,2.63.84Z" style="fill: #a8b2b9; stroke-width: 0px;"/>
  <path d="M784.13,447.58c-4.89.35-3.04,3.41-2.3,5.89,5.88,19.7.55,36.35-13.5,50.8-6.72,6.91-15.25,8.1-24.17,8.73-14.59,1.04-29.17,2.32-43.44-2.33.74-1.64,2.1-2.18,3.81-2.55,26.91-5.68,40.55-33.5,28.57-57.84-2.31-4.69-5.93-8.92-6-14.56,18.59,5.94,37.57,10.02,57.01,11.85Z" style="fill: #2c5fb0; stroke-width: 0px;"/>
  <path d="M432,468.66c.74-2.23,2.16-2.29,3.57-2.4,36.61-2.91,70.23,6.44,101.75,24.65,22.63,13.08,43.26,28.71,60.69,48.21,10.15,11.35,21.4,21.89,28.71,35.55,1.53,2.86,3.62,5.6,4.37,8.66.86,3.49.93,8.33-2.06,10.15-3.58,2.18-5.09-2.47-6.92-4.87-26.27-34.52-56.04-65.27-93.36-88.14-25.11-15.38-52.55-23.76-81.29-28.67-5.16-.88-10.26-2.08-15.46-3.14Z" style="fill: #a2c1ea; stroke-width: 0px;"/>
  <path d="M636.38,590.53c1.95,2.34,2,4.65-.07,6.95.02-2.32.05-4.63.07-6.95Z" style="fill: #5881cd; stroke-width: 0px;"/>
  <path d="M393.35,360.16c13.1-2.53,26.34-1.13,39.52-1.47-.42,3.31-3.19,2.91-5.34,3.22-59.5,8.48-110.02,35.39-154.89,74.49-17.28,15.06-31.91,32.45-46.98,49.5-4.01,4.54-8.06,9.06-12.67,12.95-8.43,7.1-18.12,11.5-29.35,11.02-9.67-.42-19.52,1.85-29.01-1.67l.2-.38c-.11-2.81,2.24-3.29,4.06-4.04,8.99-3.7,16.4-9.61,23.1-16.46,9.25-9.46,18.55-18.84,27.53-28.58,33.49-36.29,72.39-65.14,118.69-83.26,16.44-6.43,33.6-10.16,50.92-13.29,4.72-.85,9.52-.97,14.2-2.02Z" style="fill: #2b4ea7; stroke-width: 0px;"/>
  <path d="M154.64,508.19c7.44-.03,14.93-.62,22.31,0,20.81,1.77,35.19-8.43,47.53-23.73,31.8-39.41,69.04-72.67,114.19-96.04,28.73-14.87,59.19-25.34,91.72-28.59.85-.09,1.65-.75,2.48-1.14,35.5-.34,69.78,5.66,102.53,19.67,3.59,1.54,7.33,2.82,10.38,5.43-11.72-3.47-23.35-7.29-35.18-10.33-20.89-5.36-42.13-9.29-63.77-7.57-21.87,1.74-43.4,5.79-64.51,12.12-32.56,9.75-60.37,27.79-86.72,48.52-22.08,17.38-42.18,36.71-60.17,58.4-10.19,12.29-21.76,23.84-38.77,26.58-11.86,1.91-23.8,3.52-35.77.68-2.5-.59-4.92-1.47-6.22-4Z" style="fill: #8e9ba6; stroke-width: 0px;"/>
  <path d="M393.35,360.16c-12.56,2.71-25.15,5.27-37.67,8.17-24.68,5.71-46.78,17.57-68.85,29.38-21.64,11.57-39.85,27.48-57.6,44.34-11.28,10.72-21.57,22.28-32.56,33.22-12.63,12.57-24.55,25.98-41.82,32.55-5.14.16-10.04-.52-14.22-3.88,1.37-1.74,3.33-1.27,5.14-1.41,7.87-.62,14.64-3.28,20.32-9.19,18.14-18.92,36.2-37.94,54.94-56.25,15.36-15.01,31.1-29.65,50.42-39.94,18.89-10.06,38.62-17.84,58.91-24.41,16.74-5.43,33.88-9.07,51.26-11.81,3.95-.62,7.82-.69,11.74-.76Z" style="fill: #2a7bca; stroke-width: 0px;"/>
  <path d="M420.76,650.1c7.2-2.86,13.61-4.31,20.17-3.66,41.42,4.08,72.33,23.98,91.4,61.4.42.83.83,1.66,1.2,2.52,1.41,3.26,1.66,7.15-1.31,8.87-2.88,1.67-5.3-1.43-7.23-3.78-7.34-8.94-14.54-17.99-22.5-26.42-18.12-19.2-40.97-28.97-66.21-34.33-4.81-1.02-10.01-.89-15.53-4.59Z" style="fill: #9cbfe9; stroke-width: 0px;"/>
  <path d="M537.24,706.41c7.68,11.29,7.19,21.65-1.43,30.67,3.87-10.07,5.14-20.25,1.43-30.67Z" style="fill: #5585d2; stroke-width: 0px;"/>
  <path d="M535.79,737.11c-.56,3.63-2.22,6.53-5.54,8.33.84-3.45,2.59-6.29,5.54-8.33Z" style="fill: #5585d2; stroke-width: 0px;"/>
  <path d="M248.24,639.15c.13-.44.14-1.18.4-1.29,20.19-8.15,33.57-24.84,49.11-38.87,15.45-13.93,29.74-29.48,49.17-38.28,28.87-13.08,58.82-21.3,90.9-18.96,3.39.25,6.7,1.51,10.05,2.3-.71,1.45-2.08,1.78-3.46,1.98-51.51,7.27-90.8,34.82-122.93,74.18-3.1,3.8-6.33,7.47-10.01,10.67-7.61,6.61-16.23,10.66-26.63,10.36-7.44-.22-14.89.02-22.33-.07-3.46-.04-7,.13-10.13-1.84-1.38-.06-2.75-.12-4.13-.18Z" style="fill: #2b4fa5; stroke-width: 0px;"/>
  <path d="M627.94,538.77c14.53,9.7,29.08,19.36,43.57,29.13,1.62,1.09,3.21,1.73,5.11,1.75,14.79,20.93,12.33,57.85-16.45,70.66-5.4,2.4-10.96,2.29-16.33,2.54-14.21.66-28.71,2.86-42.36-3.6,3.09-2.73,7.09-1.31,10.62-2.14,18.58-4.38,39.66-35.27,30.4-61.59-3.9-11.09-11.33-19.76-16.38-29.96-1.73-3.5-1.93-5.36,1.83-6.8Z" style="fill: #2864b7; stroke-width: 0px;"/>
  <path d="M252.37,639.34c9.99.05,19.99-.23,29.96.24,15.44.73,26.83-6.59,35.77-18,17.93-22.89,38.81-42.51,64.24-56.56,20.3-11.22,41.82-19.82,65.54-20.96,27.8.58,51.97,11.87,75.36,25.5-9.58-2.02-18.16-6.77-27.17-10.29-38.36-15.03-73.88-8.04-108.21,12.35-17.49,10.39-32.53,23.77-46.98,37.71-6.44,6.21-12.58,12.96-18.71,19.59-14.42,15.6-32.97,17.71-52.47,15.28-5.8-.72-12.89,1.35-17.32-4.87Z" style="fill: #939fa9; stroke-width: 0px;"/>
  <path d="M502.11,815.35c14.82,15.8,18.82,34.85,16.73,55.72-1.86,1.69-3.96.75-5.96.48-13.19-1.73-24.43.66-33.01,12.32-9.51,12.93-23.61,20.62-36.77,29.18-7.79,5.06-16.58,6.92-25.9,5.3-7.64-2.49-13.24-7.68-18.23-13.7,7.84,1.64,15.62,4.13,23.71,3.38,10.6-.98,19.33-5.94,26.47-13.8,8.46-9.31,16.17-19.23,20.56-31.1,4.9-13.25-.55-25.95-3.32-38.72-.44-2.03-1.35-3.97-1.7-6.01-.65-3.83.35-6,5.03-6.03,10.91-.06,21.54,2.63,32.39,2.97Z" style="fill: #2868be; stroke-width: 0px;"/>
  <path d="M460.49,845.57c-.42,1.49-.74,3.86-1.74,5.89-1.72,3.51-4.93,4.52-6.86.84-6.16-11.71-15.06-21.05-24.19-30.35-2.43-2.47-3.75-6.42-.96-9.54,2.88-3.22,7.03-3.57,10.99-2.08,9.12,3.42,14.27,10.87,18.27,19.15,2.31,4.77,4.03,9.86,4.48,16.09Z" style="fill: #99bce8; stroke-width: 0px;"/>
  <path d="M587.22,723.12c1.56,18.62-3.83,34.13-20.03,44.81-5.35,3.53-11.44,5.15-17.65,5.32-12.02.34-24.05.02-36.08-.02-4.98-4.94-.19-6.95,3.03-8.49,12.2-5.83,20.96-15.09,27.92-26.4,2.21-3.59,4.01-7.29,5.36-11.29,2.86-8.45,4.89-9.84,13.63-9.95,3.49-.04,6.97.08,10.46-.02,5.46-.15,10.06,1.46,13.37,6.03Z" style="fill: #265cac; stroke-width: 0px;"/>
  <path d="M338.7,767.78c11.47,1.7,20.71-3.47,29.13-10.15,11.19-8.87,21.52-18.79,33.64-26.54,16.29-10.42,32.59-9.21,49.2-1.21-8.68.74-15.86,4.78-22.02,10.58-6.74,6.35-13.02,13.18-19.7,19.59-7.06,6.78-15.29,10.78-25.42,10.76-9.93-.02-19.86.77-29.8,1.01-5.35.13-10.57-.64-15.03-4.04Z" style="fill: #2d4ea9; stroke-width: 0px;"/>
  <path d="M587.22,723.12c-8.66-6.13-18.57-3.79-28.09-4.18-5.41-.22-6.29,4.34-7.47,7.78-5.95,17.41-16.88,30.33-33.31,38.68-2.98,1.51-7.76,2.43-4.9,7.83-4.55-.97-9-2.15-12.66-5.25,5.93-2.34,12.44-2.81,18.05-6.3,16.65-10.39,27.63-24.38,26.5-44.81-.61-11.09-4.36-21.73-10.32-31.37-1.7-2.76-3.22-5.63-4.82-8.45,11.71,1.75,23.63,2.14,35.1,5.46,11.43,11.31,19.92,24.2,21.92,40.6Z" style="fill: #3677c8; stroke-width: 0px;"/>
  <path d="M417.2,918.35c7.68-2.13,16.07-1.07,23.21-5.75,15.23-9.99,30.45-19.62,42.09-34.36,8.41-10.65,21.2-10.45,33.66-7.84.9.19,1.79.44,2.69.66-3.08,25.43-19.41,46.19-41.65,50.87-16.63,3.5-33.65,3.33-50.48.43-3.33-.57-6.77-1.68-9.52-4.02Z" style="fill: #25569e; stroke-width: 0px;"/>
</svg>