<?xml version="1.0" encoding="UTF-8"?>
<svg id="Layer_1" data-name="Layer 1" xmlns="http://www.w3.org/2000/svg" viewBox="0 0 1155.36 1155.01">
  <path d="M372.54,38.28c26.8-11.42,54.81-18.9,83.15-25.15,53.65-11.83,108-15.53,162.74-11.64,67.17,4.77,131.77,20.5,193.23,48.26,132.45,59.83,229.33,155.83,291.02,287.32,19.44,41.44,32.99,84.89,41.85,129.78,10.97,55.59,13.63,111.68,7.9,167.98-9.76,95.88-41.41,184.1-95,264.32-18.2,27.24-38.63,52.71-61.27,76.4-1.62,1.69-2.81,3.95-5.33,4.63-2.15-2.24-.13-4.37.27-6.5-1.37,3.21-3.83,5.51-6.41,7.63-25.12,20.61-50.02,41.51-77.36,59.2-44.92,29.07-92.81,51.78-143.96,67.6-29.27,9.05-59.01,15.83-89.4,19.68-37.54,4.76-75.31,6.56-113.04,4.6-42.31-2.19-84.36-7.7-125.45-18.39-28.85-7.5-57.18-16.74-84.99-27.73-26.45-10.46-52.38-21.76-76.99-36.07-28.57-16.62-55.57-35.41-80.71-56.9-34.96-29.87-65.45-63.78-91.38-101.69-26.05-38.09-47.45-78.62-63.36-122.07-12.13-33.13-21.29-66.96-27.01-101.73-2.81-17.09-4.34-34.32-5.95-51.56-1.44-15.4-1.51-30.77-1.15-46.14,1.16-49.78,8.28-98.67,22.46-146.5,23.15-78.04,61.4-147.75,114.93-209.04,35.17-40.26,75.14-74.97,119.56-104.84,34.74-23.35,71.33-42.87,109.99-58.66,5.42-2.21,7.24-4.29,2.38-8.85-1.02-.95-1.6-2.43-.71-3.94Z" style="fill: #2d9be7; stroke-width: 0px;"/>
  <path d="M372.54,38.28c.2.43.33.93.62,1.29,7.68,9.37,7.62,9.21-4.21,14.09-49.54,20.42-95.23,47.48-138.04,79.66-18.81,14.14-36.95,29.17-53.55,45.62-23.97,23.76-46.66,48.84-66.35,76.5-18,25.29-34.3,51.58-48.04,79.35-21.58,43.61-37.2,89.44-46.69,137.16-5.07,25.53-8.29,51.38-9.45,77.52-.52,11.74-.97,23.48-1.08,35.22-.22,23.51,2.44,46.77,5.46,70.06,4.23,32.65,11.75,64.48,22.06,95.67,14.99,45.34,35.48,88.05,61.72,128.01,19.93,30.36,42.54,58.39,68.04,84.36,20.57,20.95,42.68,39.94,66.43,56.85,31.83,22.67,65.44,42.39,102.01,56.94,19.99,7.95,39.91,16.06,60.38,22.62,34.82,11.17,70.22,19.51,106.56,24.82,40.07,5.85,80.17,7.74,120.43,6.52,21.91-.67,43.75-3.56,65.56-6.41,23.36-3.05,46.09-8.5,68.58-14.98,39.04-11.25,76.44-26.56,112.24-46.01,24.74-13.44,48.42-28.39,70.91-45.21,18.4-13.76,36.12-28.42,53.26-43.76,1.35-1.21,2.21-3.19,4.85-3.15-.94,3.24-3.81,5.65-3.43,9.16-11.24,10.75-22.01,22.03-33.82,32.11-17.06,14.57-34.84,28.22-53.36,41.03-27.05,18.7-55.42,35.03-85.16,48.73-27.05,12.47-55.06,22.51-83.83,30.81-37.83,10.91-76.2,17.77-115.29,20.61-61.12,4.44-121.58-.62-181.05-15.53-73.02-18.31-140.14-49.54-200.92-94.01-43.85-32.08-82.47-69.59-115.9-112.54-25.94-33.33-47.88-69.04-65.98-107.11-20.98-44.14-35.63-90.45-45.12-138.33-2.25-11.36-5-22.82-4.8-34.59-1.26-2.31.11-4.99-1.01-7.32-1.7-7.07-2.04-14.26-1.92-21.49-1.34-3.83.3-7.91-.99-11.74-.15-6.21-.29-12.42-.44-18.63-.86-9.77-.86-19.54,0-29.31.15-6.21.29-12.42.44-18.64,1.28-3.84-.33-7.91.98-11.75-.11-7.23.23-14.42,1.94-21.48,1.09-2.35-.22-5.01.98-7.35,1.82-25,7.45-49.33,13.79-73.43,11.33-43.05,27.43-84.32,48.36-123.67,17.93-33.69,38.98-65.29,63.15-94.82,19.8-24.18,41.11-46.96,64.77-67.37,27.1-23.38,55.81-44.49,86.68-62.87,25.78-15.34,52.58-28.26,80.13-39.85,3.26-1.37,6.72-2.27,10.09-3.39Z" style="fill: #1371d5; stroke-width: 0px;"/>
  <path d="M1.23,562.87c0,9.77,0,19.54,0,29.31-1.63-9.77-1.64-19.54,0-29.31Z" style="fill: #2d9be7; stroke-width: 0px;"/>
  <path d="M2.64,532.49c.08,3.95,1.34,8-.98,11.75-.17-3.96-.72-7.95.98-11.75Z" style="fill: #2d9be7; stroke-width: 0px;"/>
  <path d="M1.67,610.81c2.31,3.75,1.06,7.79.99,11.74-1.71-3.8-1.16-7.78-.99-11.74Z" style="fill: #2d9be7; stroke-width: 0px;"/>
  <path d="M5.57,503.67c.18,2.52,1,5.12-.98,7.35-.26-2.53-.51-5.05.98-7.35Z" style="fill: #2d9be7; stroke-width: 0px;"/>
  <path d="M4.57,644.04c1.98,2.21,1.17,4.81,1.01,7.32-1.51-2.28-1.28-4.8-1.01-7.32Z" style="fill: #2d9be7; stroke-width: 0px;"/>
  <path d="M421.42,767.79c-9.61,7.85-19.36,15.52-28.77,23.6-8.73,7.49-18.66,11.32-30.08,11.55-4.05,2.86-8.29,1.82-12.39.37-6.13-2.15-11.88-5.12-17.27-8.77-13.62-9.8-25-21.56-32.56-36.76-3.97-7.98-5.63-16.25-4.12-25.09,1.6-14.22,10.34-23.88,20.71-32.55,9.23-7.71,17.49-16.47,26.41-24.53,24.97-22.57,50.33-44.68,75.99-66.45,11.01-9.35,22.5-18.07,33.73-27.13,3.96-3.2,4.25-5.42.01-8.81-32.11-25.69-63.05-52.79-93.85-80.01-17.82-15.75-35.64-31.56-52.16-48.75-9.63-10.03-13.1-22.09-10.57-35.2,3.65-18.9,15.83-32.51,30.62-43.99.56-.43,1.36-.42,2.09-.31,10.04-6,19.82-12.37,32.2-12.79,11.11-.38,20.77,2.81,29.26,9.79,11.84,9.73,23.63,19.52,35.44,29.29,9.45,3.34,15.16,11.53,22.5,17.56,5.35,4.39,10.71,8.81,15.95,14.1,2.11-3.05,1.29-5.95,1.3-8.6.06-61.77-.16-123.54.14-185.31.12-24.15,6.08-46.66,22.51-65.34,2.64-3,4.99-6.66,9.77-6.6,9.27-5.38,17.95-11.95,28.79-14.2,22.18-4.62,43.04-.54,62.54,10.31,27.81,15.47,52.89,35.01,78.48,53.74,36.06,26.4,72.34,52.52,107.32,80.36,21.71,17.28,42.26,35.63,55.2,60.97,17.3,33.9,13.38,66.38-6.35,97.65-11.84,18.76-28.47,33.06-45.83,46.51-36.31,28.12-75.1,52.76-112.31,79.62-7.78,5.62-7.78,5.39-.16,10.87,39.21,28.18,80.24,53.83,117.98,84.06,18.3,14.66,35.19,30.64,45.99,51.98,19.35,38.25,13.67,73.88-11.64,107.17-17.67,23.24-40.98,40.46-63.98,57.86-44.83,33.93-89.9,67.54-136.02,99.71-15.36,10.71-30.89,21.3-49.23,26.55-4.34,1.24-8.73,2.29-13.1,3.43-1.52,1.88-3.67,2.02-5.84,2.1-4.18.06-8.37-.06-12.55.11-14.3.37-26.17-6.1-36.94-14.31-16.61-12.65-27.72-29.2-31.72-50.03-1.77-9.21-3.04-18.46-3.03-27.91.09-60.61.05-121.21.03-181.82,0-2.82.41-5.71-.91-9.16-10.42,6.9-18.15,16.17-27.51,23.48-5.22,4.07-9.17,9.92-16.07,11.68Z" style="fill: #dde0e2; stroke-width: 0px;"/>
  <path d="M1121.3,712.41c0-10.91-.97-21.94.26-32.71,1.37-11.98.63-23.81,0-35.66-.69-13.11-2.51-26.15-3.48-39.25-1.61-21.68-3.59-43.26-8.55-64.54-2.93-12.55-5.71-25.09-9.13-37.55-6.18-22.55-12.75-44.98-19.12-67.47-6.77-23.91-14.98-47.3-22.73-70.85-2.35-7.15-6.22-13.88-8.69-21.12-6.09-17.82-13.5-35.12-21-52.38-7.38-16.99-17.57-32.39-27.05-48.2-17.64-29.41-37.73-57.08-60.07-83.04-7.47-8.68-16.09-16.41-23.44-25.27-1.28-1.54-3.73-2.42-3.07-6.07,8.91,3.56,16.53,8.83,23.94,14.21,19.82,14.39,38.6,30.14,55.31,48.05,29.83,31.96,56.75,66.12,78.5,104.31,19.94,35.01,36.37,71.41,48.32,109.87,10.18,32.75,17.37,66.07,21.57,100.18,3.72,30.13,5.07,60.3,3.76,90.48-1.23,28.4-4.74,56.66-11.75,84.39-2.88,11.41-6.34,22.46-11.65,32.89-.65-.09-1.3-.18-1.95-.26Z" style="fill: #65b2eb; stroke-width: 0px;"/>
  <path d="M333.57,793.06c9.07,5.03,17.96,10.6,29,9.88-.94,4.11-4.69,4.96-7.72,5.45-19.56,3.14-39.09,2.41-56.46-7.7-16.15-9.4-29.32-22.02-28.29-43.25.66-13.52,7.69-24.24,16.39-33.54,20.98-22.44,44.54-42.16,67.69-62.3,19.87-17.28,39.56-34.76,59.45-52.01,5.61-4.87,11.39-9.39,15.73-15.63,5.1-7.34,4.94-11.57-1.99-17.1-27.86-22.21-56.59-43.43-82.78-67.58-19.03-17.54-39.78-33.22-57.3-52.43-6.24-6.84-11.27-14.34-14.18-23.1-4.49-13.53.93-24.78,8.59-35.49,10.14-14.18,23.78-24.14,38.95-32.14,2.35-1.24,5.33-3.84,8.57-1.16-9.28,9.57-19.83,17.92-26.03,30.31-9.28,18.53-7.35,35.35,7.37,49.97,33.47,33.26,69.36,63.86,105.17,94.53,13.51,11.57,27.22,22.91,41.04,34.09,3.4,2.75,4.24,4.11.27,7.23-15.73,12.39-31.37,24.91-46.7,37.79-12.76,10.72-25.01,22.03-37.52,33.04-11.61,10.22-23.85,19.79-34.72,30.74-11.61,11.69-25.12,21.47-35.06,34.82-3.25,4.36-2.92,9.99-5.39,14.61-10.96,20.17-1.81,38.63,12.12,48.45,7.42,5.24,14.74,10.52,23.83,12.5Z" style="fill: #1367d3; stroke-width: 0px;"/>
  <path d="M550.29,1013.88c1.88-.08,3.76-.15,5.64-.23,1.34.47,3.36,1.09.93,2.47-2.23,1.27-4.89,1.96-7.44,2.44-21.05,3.98-42.22,7.43-63.06-.45-22.31-8.44-40.14-21.85-46.04-46.54-3.94-16.49-5.42-33.22-2.98-50.15.34-2.37.31-4.8.28-7.2-.19-15.83,2.32-31.59,2.44-47.29.23-29.1,2.62-58.36-2.46-87.34-1.29-7.36-4.23-9.93-11.8-9.94-1.75,0-3.38-.16-4.4-1.84,14.94-13.42,29.88-26.84,44.94-40.37,2.47,2.9,1.38,5.63,1.38,8.09-.1,64.68-.98,129.38.5,194.05.71,31.23,12.01,57.6,39.92,74.57,8.95,5.44,18.37,9.91,29.26,9.76,4.29,1,8.59,1.04,12.88-.02Z" style="fill: #1166d3; stroke-width: 0px;"/>
  <path d="M498.27,157.05c-17.04,14.51-25.65,33.31-28.72,55.18-2.35,16.75-1.81,33.55-1.84,50.34-.09,53.83.11,107.66.19,161.49,0,1.14-.11,2.27-.24,4.75-14.4-13.01-27.98-25.29-41.56-37.56.04-1.68-.08-3.4,1.2-4.76,6.61-7.01,6.88-15.83,7.55-24.75,1.43-19.15,1.75-38.32,1.27-57.48-.44-17.48-1.55-34.92-1.45-52.43.14-24.86,5-48.17,21.95-67.25,9.68-10.89,20.9-20.31,33.66-27.64,2.54-1.46,5.36-2.25,7.99.11Z" style="fill: #136fd7; stroke-width: 0px;"/>
  <path d="M693.41,406.01c-22.1,18.92-46.82,34.23-70.46,51.03-11.72,8.33-23.51,16.54-35.14,24.71-2.2-.92-1.44-2.59-1.44-3.85-.03-51.23-.02-102.46.03-153.69,0-3.31-.64-6.76,1.24-9.86,2.99,3.91,7.03,6.22,11.44,8.29,19.93,9.36,36.7,23.59,54.65,35.98,10.66,7.36,21.09,15.12,30.85,23.67,7.07,6.19,12.95,13.2,8.82,23.72Z" style="fill: #2095e7; stroke-width: 0px;"/>
  <path d="M694.39,778.29c-17.14,15.75-36.56,28.55-55.13,42.43-13.78,10.29-27.09,21.32-43.26,28.09-4.54,1.9-6.29.38-7.33-3.26-1.04-3.66-2.05-7.49-2.06-11.25-.1-45.64-.02-91.27.02-136.91,2.79-2.25,5.54-.61,8.18.24,12.27,3.96,22.93,11.08,33.56,18.03,14.27,9.33,28.74,18.38,42.65,28.26,5.29,3.76,10.26,7.88,15.13,12.19,6.86,6.07,10.4,12.96,8.25,22.18Z" style="fill: #1b94e7; stroke-width: 0px;"/>
  <path d="M694.39,778.29c-.61-.33-1.78-.82-1.74-.96,3.89-13.28-6.34-19.59-14.21-25.53-22.08-16.66-45.44-31.55-69.2-45.75-6.97-4.16-14.41-7.52-22.62-8.66,0-8.07,0-16.13,0-25.12,9.3,6.63,18.14,12.99,27.03,19.26,20.17,14.2,40.52,28.14,60.48,42.61,10.18,7.38,20.15,15.05,29.11,24.06,4.31,4.33,3.23,7.37.22,10.88-2.8,3.27-6.03,6.16-9.08,9.22Z" style="fill: #1160d1; stroke-width: 0px;"/>
  <path d="M693.41,406.01c1.66-14.65-8.68-21.98-18.39-29.35-20.9-15.87-42.1-31.36-64.17-45.58-5.4-3.48-11.22-6.49-17.18-8.89-3.95-1.59-5.81-3.85-6.02-7.85,1.23-10.16,2.31-10.9,11.03-7.06,13.09,5.78,24.07,14.84,35.43,23.26,19.87,14.74,40.02,29.1,59.17,44.78,4.85,3.97,9.4,8.19,12.56,13.74,1.17,2.06,1.81,3.7-.35,5.62-4.12,3.66-8.06,7.53-12.07,11.32Z" style="fill: #1265d4; stroke-width: 0px;"/>
  <path d="M333.57,793.06c-1.63,1.6-3.54,1.4-5.33.54-14.61-7.02-28.38-14.91-35.06-31.05-4.51-10.89-3-23.03,4.43-30.44-2.05,25.05,13.31,40.82,29.86,55.94,1.94,1.77,4.06,3.35,6.09,5.01Z" style="fill: #1462cf; stroke-width: 0px;"/>
  <path d="M550.29,1013.88c-4.29,2.28-8.59,2.2-12.88.02,4.29,0,8.59-.01,12.88-.02Z" style="fill: #2d9be7; stroke-width: 0px;"/>
</svg>