<?xml version="1.0" encoding="UTF-8"?>
<svg id="Layer_1" data-name="Layer 1" xmlns="http://www.w3.org/2000/svg" viewBox="0 0 1242.43 1369.57">
  <path d="M26.04,859.28c-.24-.44-.26-.9-.07-1.36-5.7-34.47-5.87-69.31-6.49-104.07-.47-26.48,4.04-52.61,8.05-78.72.52-3.39,1.89-6.55,3.1-9.73,3.44-5.92,1.77-14.24,8.12-18.91,2.55,1.6,2.49,3.62,2.33,5.63-1.45,18.48.33,37.11-2.45,55.53-2.06,13.67-.58,27.43.62,40.93,2.36,26.65,5.93,53.24,11.46,79.49.24,1.12.18,2.37.71,3.34,8.61,15.74,11.48,33.89,21.28,49.24,4.42,6.91,7.57,14.65,13.05,20.96,1.53,1.76,2.36,4,2.4,6.31.12,7.11,3.64,11.65,9.98,14.58,4.06,1.88,5.78,5.62,7.7,9.7,7.01,14.91,12.74,30.54,23.45,43.5,6.54,7.92,10.77,17.52,15.32,26.44,6.6,12.94,16.8,22.89,24.39,34.89,8.5,13.45,18.6,25.9,27.98,38.79,15.18,20.86,33.48,38.85,52.05,56.63,19.06,18.25,40.56,33.42,62.21,48.13,20,13.59,41.77,24.58,63.81,34.75,35.23,16.25,72.23,27.23,110.44,32.84,29.53,4.34,59.43,6.3,89.5,3.46,18.7-1.76,37.67-1.11,56.07-5.56,29.11-7.03,58.12-14.12,85.47-27.13,16.96-8.07,35.11-13.83,51.47-23.15,22.98-13.09,47.13-24.38,67.14-42.25,16.24-14.51,35.42-24.84,53.26-37.07,21.62-14.82,42.68-30.3,60.72-49.55,12.86-13.73,25.73-27.76,39.69-40.04,18.14-15.95,31.73-34.84,45.05-54.33,8.3-12.14,12.71-26.13,18.49-39.47,1.53-3.53,2.14-7.91,6.87-9.07,4.09,4.11,1.86,8.91,1.97,13.22,3.22-3.08,2.16-10.27,8.79-11.32,2.36,2.97.99,6,.02,8.94-16.04,48.28-38.89,92.85-69.26,133.9-22.67,30.65-47.22,59.47-74.86,85.49-27.81,26.18-57.14,50.51-88.89,72.17-31.37,21.41-64.45,39.07-99.46,53.01-36.61,14.58-74.34,25.96-113.66,31.13-27.32.91-54.49,4.85-81.94,3.54-18.51-.88-36.87-2.62-55.25-5.01-24.96-3.25-49.48-8.24-73.54-15.47-42.62-12.81-82.57-31.62-120.49-54.73-36.46-22.22-69.99-48.46-99.83-78.93-34.64-35.37-64.47-74.5-89.21-117.68-22.14-38.64-39.09-79.33-53.13-121.36-5.77-17.29-10.28-35.01-14.59-52.8-1.05,11.45,4.63,23.05-1.32,34.24-3.57-10.54-5.85-21.36-6.9-32.44-1.77-3.35.78-7.37-1.65-10.62Z" style="fill: #5183df; stroke-width: 0px;"/>
  <path d="M33.04,663.88c-7.32,31.77-12.95,64.08-11.41,96.51,1.42,29.93-1.93,60.17,4.45,89.86.52,2.43-.05,5.1-.11,7.66-4.34-15.45-4.94-31.44-6.35-47.26-3.96-44.5-2.43-88.96,3.52-133.16,4.56-33.87,12.05-67.16,22.1-99.93,14.77-48.2,36.04-93.37,61.25-136.84.94-1.62,2.76-3.2.81-5.3,1.17-5.34,6.12-7.65,9.21-11.45,15.41-9.81,26.56-24.21,38.54-37.42,10.23-11.28,21.5-21.26,32.6-31.44,32.39-29.72,66.38-57.56,101.85-83.56,23.99-17.58,49.34-32.95,75.69-46.71,5.08-2.66,9.66-6.05,13.93-9.89,13.74-6.19,28.22-10.2,42.66-14.32,5.81-.85,11.31-4.21,17.48-2.21,3.81,2.8,8.15,3.93,12.8,4.29,1.72.13,3.88.65,4.2,2.4.42,2.31-1.79,3.3-3.62,4.15-1.56.73-3.31.87-4.92,1.44-28.19,10.07-57.16,18.04-84.33,30.87-28.62,13.52-53.63,32.46-77.64,52.74-8.86,7.48-6.85,22.19,2.86,26.58,5.45,2.46,10.45,2.68,14.54-2.64,3.4-4.43,7.76-5.84,13.5-5.5,8.98.53,16.84-4.58,25.38-6.56,3.29-.76,6.48-2.03,9.82-2.84,22.08-5.36,43.89-11.68,65-20.18,2.71-1.09,5.4-1.76,8.3-1.69,7.45.19,15.01.05,22.08-2.13,21.21-6.56,43.68-3.76,65.07-9.26,7.9-2.03,16.36,1.39,24.67.83,28.72-1.91,56.69,3.03,84.55,9.24,7.76,1.73,15.76,2.34,23.64,3.64,9.13,1.5,17.56,4.07,25.88,8.21,10.08,5.02,21.86,2.76,32.58,6.01,5.16,1.57,10.61,2.04,15.07,5.48,2.66,2.06,5.72,2.72,8.9,1.75,6.78-2.07,13.53-1.54,20.32-.19,7.41,1.48,14.7,1.04,22.03-.79,6.65-1.66,13.41-2.71,20.32-2.67,2.79.02,6.27.24,7.58-2.79,1.36-3.15-1.58-5.19-3.46-7.22-14.11-15.17-30.6-27.34-48.25-38.02-2.89-1.75-6.35-2.82-7.45-6.58,3.18-5.04,6.62-1.17,9.31.23,16.98,8.78,32.62,19.73,47.88,31.13,32.8,24.51,62.69,52.61,95.04,77.68,8.75,6.78,18.17,12.7,26.32,20.26,2.84,2.14,5.22,4.87,8.33,6.69.7.44,1.35.95,1.98,1.49,1.15,2.5,6.77,3.91,1.97,7.89-6.51-1.14-10.66-6.34-16.05-9.39-3.72-2.1-6.86-5.12-10.57-7.27-9.89-5.73-17.05-3.07-15.79,7.78,1.46,12.51-3.02,24.02-2.34,36.11.23,4.14,1.04,7.94,3.44,11.26,5.74,7.94,8.33,17.66,13.47,25.64,10.68,16.6,16.81,36.3,32.72,49.43,1.77,1.46,3.58,3.3,4.04,5.44,3.48,16.26,16.49,27.02,23.53,41.2,1.66,3.33,3.4,6.51,3.88,10.32,1.54,12.17,9.67,20.85,16.64,29.99,7.5,9.84,18.36,17.07,22.35,29.69,1.11,3.5,3.21,6.64,2.8,10.56-.15,1.42.08,2.89.9,4.11,11.47,17.11,17.84,36.66,26.31,55.2,4.7,10.29,3.9,21.79,5.58,32.75,6.21,40.35,9.98,80.92,9.21,121.75-.32,17.07-1.77,34.15-1.56,51.26.02,1.64-.74,3.41,1.64,5.96,4.33-7.27,7.62-14.53,10.5-22.09,1.32-3.48,1.09-8.23,6.14-9.37,2.91,3.02,1.79,6.47.66,9.64-4.95,13.89-7.39,28.88-17.98,40.31-2.74,2.96-3.16,7.3-5.07,10.81-1.13,2.07-2.64,4.02-5.32,3.42-2.85-.64-3.01-3.21-2.87-5.5,1.16-19.06,1.92-38.15,3.37-57.19,1.32-17.4.76-34.7.15-52.11-.68-19.25-5.96-37.67-8.42-56.58-1.6-12.36-3.37-25.47-12.36-35.85-4.63-5.34-9.44-9.96-16.44-11.6-4.82-1.13-8.04-3.03-6.14-8.79.54-1.64.54-3.5-.49-4.98-8.63-12.46-10.14-27.49-14.74-41.37-4.99-15.08-6.99-30.99-13.33-45.84-6.14-14.38-12.7-28.64-17.35-43.65-5.86-18.93-16.67-35.66-25.95-52.81-9.39-17.37-19.17-35.07-32.64-50.05-.95-1.06-1.96-2.11-2.7-3.32-18.86-30.8-45.58-54.71-70.71-79.91-20.48-20.54-45.28-35.26-71.25-47.91-6.2-3.02-11.76-7.02-17.7-10.42-17.47-10.02-36.67-15.41-55.55-21.95-29.91-10.36-60.71-15.7-91.77-20.35-24.41-3.65-48.84-3.35-73.39-1.45-16.23,1.26-32.47,2.4-48.44,5.46-40.59,7.79-78.74,22.46-116.24,39.73-29.7,13.68-55.55,32.75-80.73,52.68-19.32,15.29-37.5,31.96-52.78,52.08-20.01,26.34-39.22,53.26-59.34,79.51-6.12,7.98-11.84,16.13-13.42,26.41-.09.56-.17,1.24-.54,1.61-8.87,8.86-9.95,22.15-17.89,31.52-4.2,4.95-6.69,10.36-6.73,17.09-.04,7.31-2.31,13.81-8.14,19.06-4.19,3.78-6.14,9.64-8.45,14.54-5.48,11.66-13.01,21.15-23.04,28.91-2.86,2.21-2.92,5.16-2.95,8.44-.08,9.69-7.09,19.38-15.85,22.43-3.8,1.32-8.38.53-7.55-3.58,1.58-7.74-1.74-14.61-1.77-21.94-.07-13.14,2.92-26.06,1.84-37.91-4.96,12.99-10.29,27.41-13.27,42.58Z" style="fill: #6b96e4; stroke-width: 0px;"/>
  <path d="M1069.78,926.12c-5.17,4.24-3.66,13.25-12.11,16.32,2.27-6.33,1.87-12.19,1.89-18.02-2.16-2.7-.85-5.48-.03-8.13,10.36-33.57,19.27-67.47,22.74-102.57,3.26-32.96,2.91-65.92,1.23-98.99-1.44-28.28-5.43-56.12-11.12-83.73-3.33-16.14-4.98-32.61-10.43-48.39-5.4-15.65-7.08-32.26-9.97-48.53-2.59-14.54-6.6-28.37-17.1-39.41-22.19-23.32-41.81-49-65.38-71.06-9.99-9.35-20.56-18-31.07-26.72-2.68-2.22-5.4-4.24-6.19-7.86,3.25-4.16,6.33-1.03,8.57.83,13.41,11.08,27.93,20.81,40.64,32.73,25.68,24.09,53.18,45.78,83.25,64.15,8.03,4.91,15.77,10.25,24.1,14.73,14.07,7.56,28.74,10.58,44.53,8,.09-.01.39-.12.85-.06,12.32,1.43,23.07-.96,30.19-12.29,13.66,25.06,22.93,51.92,31.6,78.95,13.24,41.28,21.58,83.64,25.93,126.74,2.08,20.66,3.51,41.42,2.2,62.24-12.43,13.65-28.02,24.39-37.49,40.78-1.14,1.97-2.77,3.77-4.73,4.91-14.63,8.49-26.3,20.43-38.7,31.69-7.61,6.92-16.54,12.95-26.13,17.39-2.95,1.37-5.29,3.28-7.28,5.79-2.49,3.14-5.1,6.3-8.32,8.6-15.2,10.84-21.36,26.9-25.99,43.93-.9,3.3-.45,7.71-5.68,8.01Z" style="fill: #478ce7; stroke-width: 0px;"/>
  <path d="M420.29,45.28c7.63,4.85,15.52,9.32,22.27,15.42-4.05,3.46-8.17,1.66-11.98-.21-22.38-11.01-46.57-14.7-70.88-18.4-14.08-2.15-27.97-4.88-42.34-5.27-30.8-.84-60.69,2.26-89.43,14.41-14.43,6.11-27.59,13.72-38.36,25.07-19.87,20.94-14.58,37.58,10.77,48.83,24.14,10.71,48.75,11.32,73.52,3.26,20.55-6.68,41.86-8.53,63.02-11.48,3.4-.47,6.85-.3,10.24.33,9.99,1.86,19.87,1.5,29.66-1.31,2.47-.71,5.02-1.09,7.57-1.38,2.99-.34,5.96-.2,7.22,3.06,1.3,3.34-1.15,5.35-3.42,7.09-3.62,2.78-7.52,5.17-11.47,7.46-40.44,23.5-79.79,48.7-118.3,75.23-1.88,1.3-3.77,2.56-5.45,4.12-.66.6-1.38,1.12-2.13,1.6-31.3,20.4-63.04,40.19-92.18,63.73-4.23,3.42-8.84,6.29-13.37,9.28-13.89,9.17-28.66,8.38-41.9-1.79-9.76-7.5-19.5-14.94-26.8-25.05-1.17-1.62-2.81-2.83-4.44-4-8.96-6.47-11.98-5.94-17.62,3.38-8.45,13.95-12.44,29.23-13.83,45.39-1.17,13.65-2.77,27.26-1.75,41-1.31,23.73,1.93,46.85,8.93,69.5,1.03,3.32,1.72,6.64-1.24,9.46-3.35-2.65-4.79-6.59-6.8-10.14-7.21-18.06-12.71-36.51-15.11-55.93-6.15-49.74-4.3-98.72,15.35-145.52,8.83-21.01,20.79-40.45,35.14-58.49,15.25-19.18,30.14-38.61,46.8-56.62,22.93-24.78,49.17-45.05,79.98-59.05,30.88-14.03,63.48-21.1,97.27-19.1,37.84,2.24,75.76,5.4,111.2,21.01,3.4,1.5,6.79,2.97,9.86,5.09Z" style="fill: #e76a7f; stroke-width: 0px;"/>
  <path d="M739.09,245.77c10.06,8.31,22.01,13.81,32.26,21.94,9.4,7.46,18.25,15.42,26.54,24.04,2.36,2.45,5.37,5.33,3.84,8.82-1.27,2.91-5.24,3.46-8.25,3.32-11.26-.52-22.01,2.2-32.75,4.79-3.72.89-6.67-.93-10.01-1.22-8.7-.76-17.41-2.93-25.92,1.08-1.67.79-3.41.57-4.8-.69-11-10.01-25.17-8.62-38.37-10.62-2.78-.42-5.8.36-8.33-1.32-18.83-12.51-41.51-9.91-62.02-15.81-16.67-4.8-34.19-4.29-51.16-7.7-7.52-1.51-15.74.85-23.63.71-32.06-.55-63.64,3.26-94.94,9.89-.28.06-.56.23-.82.2-20.9-2.85-38.96,8.5-57.83,13.72-14.07,3.9-28.79,7.55-42.92,12.23-8.38,2.78-16.79,9.88-27.34,5.52-3.78-1.56-6.68,2.82-8.45,5.98-4.15,7.38-10.3,5.27-15.56,2.91-5.05-2.26-9.86-4.42-10.79-12.38-1.82-15.55,9.14-21.64,18.43-28.88,18.14-14.15,36.87-27.59,57.09-38.65,8.45-4.62,17.39-8.52,26.44-11.86,21.36-7.87,42.95-15.11,64.36-22.84,3.4-1.23,7.6.27,11.01-3.95-5.96-1.15-13.34,1.72-16.15-5.89.09-1.18.48-1.93,1.84-1.27,12.09-1.02,23.73-5.09,35.94-5.31,14.3-1.85,28.69-2.78,42.97-4.86,17.48-2.55,35.16-2.8,52.81-2.7,14.2.08,28.32-2.42,42.62-.32,6.06.89,12.28-1.1,18.35-3.01,8.61-2.71,17.17-3.37,24.86,3.47,6.82,6.07,15.67,6.02,24.22,6.7,19.54,1.56,38.8,5.81,58.46,6.29,3.85,6.91-2.82,9.06-5.83,12.87-8.32,4.15-16.92,1.76-25.2.35-21.06-3.59-42.23-6.8-63.32-9.8-31.41-4.47-63.23-9.67-95.22-3.45-2.5.49-5.08.65-9.36-.12,34.45,2.71,67.33,3.91,99.48,11.26,31.47,7.2,62.45,15.95,91.23,31.12,2.52,1.33,5.27,2.33,6.22,5.43Z" style="fill: #729de7; stroke-width: 0px;"/>
  <path d="M1069.78,926.12c4.15-2.89,2.87-7.74,4.22-11.64,5.39-15.59,11.66-29.97,25.05-41.5,12.41-10.69,25.36-20,39.07-28.78,6.08-3.9,13.14-8.18,15.94-16.06.87-2.46,3.12-3.95,5.51-5.13,15.64-7.73,27.24-19.83,37.15-33.93,6.38-9.08,17-14.1,23.3-23.41.53-.78,2.68-.45,4.08-.64-.09,9.15-.19,18.29-.28,27.44-1.66,4.55.43,9.45-1.27,14-.16,3.33-.31,6.66-.47,9.99-1.4,2.84.19,6.08-1.2,8.92-.14,2.17-.28,4.34-.42,6.51-1.73,3.33.32,7.16-1.36,10.49-6.24,45.63-15.34,90.56-32.71,133.46-10.98-.27-19.78,4.15-27.25,12.06-6.73,7.13-16.52,8.74-24.96,12.77-4.13,1.98-8.31,3.72-11.77,6.83-1.92,1.73-4.1,3.5-6.63,3.76-23.8,2.42-42.62,15.95-63.06,26.5-13.35,6.89-22.78,16.13-31.12,27.63-12.72,17.54-23.98,36.12-38.07,52.68-19.2,22.57-38.64,44.6-61.51,63.95-19.16,16.21-38.19,32.56-58.95,46.49-28.64,19.22-59.11,35.42-90.47,49.97-43.82,20.33-89.86,32.88-137.21,41.3-3.68.66-7.34,1-11.05,1.03-2.99-.05-5.97.02-8.84,1.02-1.74.42-3.5.64-5.29.69-3.67,0-7.33.03-10.85,1.29-4.81.7-9.65.68-14.49.61-7.71.23-15.46-.84-23.12.76-2.3.56-4.62.6-6.95.18-3.82-1.23-7.64-1.42-11.49-.06-15.4.56-30.63-1.46-45.87-3.25-30.94-3.63-61.12-10.77-90.8-20.06-31.39-9.83-61.33-23.01-90.34-38.53-34.64-18.54-66.03-41.65-96.17-66.61-3.91-3.24-9.57-5.6-8.7-12.36,4.65-1.61,7.72,1.51,10.59,4.05,29.65,26.29,62.75,47.6,97.14,66.93,15.91,8.94,32.76,16.12,49.72,22.93,23.3,9.36,47.12,17.15,71.58,22.85,13.03,3.03,26.37,4.37,39.54,6.57,27.32,4.58,54.77,5.97,82.37,5.61,20.74-.27,41.28-3.08,61.88-5.1,24.09-2.7,47.2-9.61,70.34-16.36,35.66-10.39,69.42-25.15,101.98-43.05,32.02-17.6,61.88-38.43,89.5-61.95,23.73-20.21,46.84-41.28,67.98-64.6,22.43-24.74,43.19-50.66,61.41-78.36,19.19-29.18,36.41-59.74,46.12-93.8,2.32-8.15,7.56-15.34,8.21-24.08Z" style="fill: #2e67d4; stroke-width: 0px;"/>
  <path d="M756.08,120.46c.53-6.84,3.4-12.51,8.56-17.03,2.91-1.78,4.2,0,5.04,2.4.86,2.47.56,5.07.54,7.64-.03,3.23-2.28,7.22,1.71,9.32,3.24,1.71,5.82-1.3,8.56-2.63,8.9-4.32,15.54-11.08,22.2-18.36,19.53-21.35,41.7-39.32,67.22-53.59,30.93-17.29,64.05-26.78,98.52-32.89,6.43-1.14,12.7-3.18,19.14-4.41,15.23.63,30.4,1.65,44.96,6.73-3.89,4.36-9.22,4.24-14.28,4.1-10.14-.29-19.87,1.04-29.28,5.04-5,2.12-10.48,2.83-15.85,3.51-26.29,3.34-51.43,10.8-75.05,22.64-13.75,6.89-26.09,16.21-38.01,26.09-12.48,10.33-22.44,22.79-31.47,35.89-6.91,10.02-9.08,22.05-7.97,34.29.58,6.39,5.21,9.99,10.74,12.25,22.55,9.21,44.87,9.42,66.84-1.97,8.87-4.6,17.41-9.71,26-14.81,30.3-17.98,62.62-30.73,98.38-31.28,46.34-.71,81.72,19.63,106.76,58.34,13.85,21.41,17.26,45.01,17.07,70.21-.2,26.14-10.47,48.22-22.53,70.02-6.89,12.45-18.83,19.92-30.52,26.87-15.92,9.48-33.95,14.56-52.23,14.92-23.99.47-47.73-2.46-69.44-14.83-22.19-12.65-43.27-26.43-60.69-45.48-10.01-10.95-23.15-18.23-37.11-22.24-15.97-4.59-28.57-13.86-41.15-23.7-1.35-1.05-2.58-2.26-4.21-2.88-1.57-.63-3.06-1.43-4.51-2.29-14.1-14.09-26.68-29.47-38.35-45.61-3.15-4.36-5.79-9.15-10.25-12.43-.64-.47-1.19-1.03-1.66-1.66-7.96-14.04-15.81-28.13-17.67-44.59-1.08-5.86-1.11-11.72.02-17.58Z" style="fill: #e86f83; stroke-width: 0px;"/>
  <path d="M828.22,242.36c9.06,6.24,18.24,12.32,27.15,18.77,9.91,7.17,22.58,7.21,32.94,13.57,9.75,5.98,19.74,11.38,27.44,20.06,19.32,21.8,44.2,35.64,69.75,48.41,7.91,3.95,16.86,5.25,25.5,6.51,25.12,3.67,49.59,2,73.17-8.99,40.26-18.77,55.29-52.79,59.52-94.28,1.98-19.37.24-38.32-7.21-55.84-13.31-31.31-35.4-55.64-67.79-67.37-35.7-12.93-71.01-8.12-106.41,5.29-24.04,9.11-44.02,24.91-67.2,35.07-17.54,7.69-35.43,8.89-53.81,3.83-1.63-.45-3.1-1.58-4.74-1.91-16.59-3.35-22.46-12.94-16.54-33.79,9.34-32.87,34.54-51.87,60.34-70.6,22.39-16.26,48.04-25.48,74.61-29.7,22.87-3.64,44.52-14.35,68.42-12.01,2.97.29,6.11-1.12,9.17-1.74,9.67,3.09,20.01,3.85,29.23,8.48-2.02,2.72-4.98,2.39-7.8,2.37-45.33-.34-89.07,8.68-131,25.01-17.84,6.95-34.84,17.06-47.55,32.58-4.61,5.63-8.54,11.29-9.61,18.72-.85,5.91,1.37,8.83,7.04,10.65,14.67,4.71,28.94,2.32,42.83-2.38,10.25-3.47,20.5-7.05,30.64-10.89,42.06-15.91,84.85-18.28,127.43-3.57,49.22,17,77.6,54.25,90.32,102.98,8.11,31.09,6.83,63.17-6.4,93.21-10.46,23.74-25.45,44.69-47.11,59.78-13.35,9.3-29.2,12.76-44.74,16.4-39.69,9.29-75.89.02-108.87-22.52-32.97-22.54-65.28-46.04-96.35-71.19-.9-.73-1.86-1.32-2.91-1.77-4.9-2.6-8.61-6.5-11.85-10.9-2.5-3.84-5.44-7.19-9.87-8.91-1.81-.9-3.14-2.27-4.04-4.07-.69-3.3-4.86-5.23-3.69-9.27Z" style="fill: #eb5d7a; stroke-width: 0px;"/>
  <path d="M250.63,211.44c9.56-9.92,21.68-16.43,32.99-23.87,24.71-16.25,49.98-31.67,75.06-47.37,9.16-5.74,18.45-11.27,27.62-17,1.98-1.24,5.5-1.92,3.89-5.45-1.33-2.91-3.83-1.29-5.98-.75-14.19,3.58-28.52,2.37-42.97,2.58-22.82.33-45.66,4.07-67.69,11.36-26.56,8.78-52.88,7.11-77.8-5.37-25.22-12.63-27.52-28.76-8.9-49.81,12.59-14.23,29.06-22.3,46.51-29.11,19.86-7.75,40.35-10.63,61.48-11.9,21.12-1.27,41.57,1.22,62.37,4.6,16.81,2.73,33.43,6.19,50.09,9.53,7.84,1.57,15.25,4.72,22.21,8.7,4.1,2.34,8.34,3.64,13.06,3.13,8.32,5.91,16.24,12.25,22.7,20.25-3.47,3.14-6.43.17-9.37-.97-4.47-1.74-8.45-1.25-11.93,1.89-3.49,3.15-1.94,6.86-.38,10.24,3.12,6.76-.15,10.77-5.57,14.09-9.28,5.68-19.49,9.42-29.28,14.03-46.31,21.82-89.2,49.35-131.3,78.23-3.99,2.74-7.9,5.63-12.27,7.78-5.15.87-8.14,7.83-14.54,5.19Z" style="fill: #e54665; stroke-width: 0px;"/>
  <path d="M857.32,273.22c10.85,5.7,19.3,14.63,29.19,21.66,27.55,19.59,53.59,41.39,82.88,58.4,16.93,9.83,35.12,16.03,55.33,18.11,26.9,2.77,51.09-4.99,75.5-13.32,11.66-3.98,20.65-12.98,28.02-21.81,12.65-15.15,24.8-31.25,30.82-50.69,7.77-25.07,8.59-50.65,4.51-76.37-4.46-28.15-18.81-51.11-37.1-72.59-23.09-27.11-52.98-38.87-86.9-43.4-33.68-4.5-65.88.6-97.51,12.95-15.73,6.14-31.59,12.65-48.84,14.38-9.16.92-17.39-2.45-25.97-4.03-3.77-.69-5.07-5.24-4.5-9.2,1.25-8.6,4.5-16.15,10.72-22.61,26.79-27.84,60.38-41.76,97.68-47.94,15.09-2.5,29.8-6.72,44.99-8.86,15.21-2.15,30.37-2.1,45.61-1.78,13.87,3.8,26.74,9.85,39.02,17.23-.86,4.89-4.57,3.54-7.1,2.63-11.68-4.18-24.1-4.46-36.06-7.16-8.43-1.9-17.05-.03-25.46,1.23-10.71,1.61-21.26,4.28-32.19,4.29-3.73,0-7.38.99-10.87,2.22-8.88,3.11-17.83,5.52-27.19,7.14-13.82,2.39-23.48,12.3-32.91,21.95-1.01,1.03-1.8,2.43-1.09,3.85.9,1.8,2.76,1.98,4.48,1.59,14.81-3.38,30.11-2.24,44.99-4.84,34.83-6.08,68.88-2.12,102.13,8.78,15.01,4.92,28.27,13.91,40.36,23.88,29.5,24.32,48.78,55.13,58.33,92.47,7.69,30.06,6.27,60.3-2.52,88.72-14.72,47.53-45.03,82.4-94.3,98.58-19.62,6.44-38.74,9.21-58.67,3.12-10.43-3.19-19.43-9.59-29.52-13.53-6.44-2.14-11.6-6.84-17.99-9.1-26.81-17.24-52.08-36.58-76.99-56.42-11.79-9.39-22.82-19.65-34.26-29.44-3.02-2.58-7.32-4.85-6.62-10.1Z" style="fill: #e44765; stroke-width: 0px;"/>
  <path d="M1052.87,1325.44c-3.01,6.96-6.32,13.74-12.34,18.72-14.9,4.53-28.19,13.39-44.13,15.32-13.93,1.68-25.76-1.04-36.06-11.02-19.03-18.42-38.76-36.08-56.51-55.87-6.98-7.79-14.99-14.72-21.25-23.24-.5-.69-1.09-1.51-1.85-1.75-10.83-3.46-14-12.22-15.51-22.17-1.55-5.99,2.65-9.37,6.01-13.09,10.61-11.77,24.95-19.43,35.02-31.79,23.21-19.77,44.63-41.31,64.65-64.33,9.18-10.55,21.18-18.09,32.16-26.68,1.13-.88,2.46-1.63,3.89-1.68,12.3-.39,21.89-7.46,32.25-12.78,9.83-5.05,20.23-8.11,31.14-10.66,21.57-5.04,42.76-12.03,60.7-26.03,3.15-2.46,6.26-5.2,10.17-6.17,4.54-1.13,8.94-1.14,7.46,5.84-13.19,23.36-27.58,45.94-44.04,67.16-.49.63-1.31,1.02-1.97,1.51-7.06-2.52-13.11-.91-18.52,4.18-2.06,1.94-4.51,4.04-7.21,4.47-19.51,3.11-35.45,15.28-53.92,20.86-5.58,1.69-8.22,4.41-7.82,10.11-10.95,3.76-22,7.29-31.45,14.33-13.4,7.56-25.39,17.2-37.96,25.98-4.6,2.61-8.26,6.45-12.46,9.57-18.53,15.8-18.52,16.32-11.05,39.24,7.79,23.88,23.17,43.08,38.1,62.54,3.81,4.97,7.56,10.04,11.64,14.8,6.95,8.12,15.1,12.13,26.45,9.75,15.58-3.27,29.5-10.59,44.11-16.22,3.32-1.28,6.57-4.02,10.31-.92Z" style="fill: #254aba; stroke-width: 0px;"/>
  <path d="M975.59,367.43c6.57,1.14,11,6.56,17.14,8.58,15.4,9.38,31.71,16.87,48.95,22,10.58,3.15,21.63,2.33,32.15-.8,24.87-7.39,48.62-17.99,67.48-35.85,18.65-17.66,34.42-38.06,41.74-63.68,5.56-19.47,11.31-38.64,11.72-59.34.66-33.67-9.56-63.55-26.39-92.09-21.73-36.85-54.11-61.02-91.54-79.59-4.86-2.41-9.76-4.75-13.75-8.57-3.77-3.61-3.08-6.41,1.55-8.42,4.22-1.83,8.59-3.13,13.24-3.17,17.54-.14,33.67,4.69,48.46,13.99,2.9,1.82,5.85,3.53,8.81,5.24,23.96,16.61,43.01,38,59.35,61.85,28.12,41.05,43.96,86.44,46.96,136.2.12,1.97-.11,3.97-.17,5.95-9.59,5.54-16.23,13.39-18.68,24.35-7.42,33.12-28.41,57.58-50.55,81.77-16.83,18.39-37.03,30.8-59.2,41.21-18.71,8.78-36.79,8.74-55.16-.12-26.58-11.33-51.8-25.18-75.61-41.55-2.84-1.96-7-3.16-6.47-7.98Z" style="fill: #e53459; stroke-width: 0px;"/>
  <path d="M1148.67,1058.06c-1.24-7.05-5.35-5.23-9.4-2.92-7.34,4.18-12.94,10.64-20.97,14.21-17.54,7.79-34.97,15.03-54.19,18.3-10.78,1.83-21.33,6.75-30.85,12.99-7.4,4.85-15.29,7.92-24.39,9.24-8.35,1.21-14.05,8.88-20.74,13.86-13.04,9.71-22.01,23.73-33.8,34.5-15.86,14.48-28.91,32.07-47.28,43.79-45.49,38.59-97.14,67.01-152.02,89.37-43.71,17.81-89.35,29.21-136.36,34.91-32.1,3.89-64.39,4.84-96.41,2.45-34-2.53-67.89-7.77-100.7-17.98-2.98-.93-5.95-2.04-9.17-1.89-2.24-.17-4.38-.71-6.33-1.85-3.39-2.55-7.32-3.46-11.47-3.63-18.55-5.04-35.88-13.29-53-21.65-36.21-17.67-70.84-38.1-102.38-63.42-36.16-29.03-69.2-61.18-97.7-97.85-8.4-10.81-16.48-21.87-25.4-32.27-1.88-2.19-3.27-4.67-4.37-7.32-9.96-14.89-18.41-30.67-27.2-46.24-5.33-9.43-9.51-19.36-12.72-29.7,4.52-2.92,5.49-2.9,8.34,2.53,5.04,9.61,10.56,18.95,15.88,28.4,28.59,50.85,63.28,96.98,105.56,137.32,3.64,3.47,8.17,6.39,9.69,11.69,12.03,13.85,27.19,24.06,41.56,35.08,27.17,20.84,56.36,38.58,87.3,53.29,44.39,21.11,90.73,36.07,139.37,43.82,21.31,3.39,42.7,5.53,64.23,6.61,3.43-1.28,6.86-1.28,10.29,0,2.28,0,4.57,0,6.85,0,7.87-2.34,16.13.75,24-1.71,5.14,0,10.28,0,15.42,0,3.17-2.13,7.13.53,10.29-1.71,1.71,0,3.42,0,5.14,0,2.57-2.01,6.03.41,8.58-1.71,21.98-1.15,42.98-7.45,64.18-12.54,34.17-8.21,66.88-20.78,98.22-36.41,20.32-10.14,40.06-21.56,59.77-33,22.01-12.77,42.44-27.89,61.18-44.35,22.39-19.66,44.83-39.55,64.02-63.07,21.78-26.7,40.16-55.71,61.32-82.74,1.91-2.44,3.81-5.16,7.33-5.43,8.73-.67,15.21-6.29,21.9-10.76,15.28-10.22,31.23-18.25,49.76-20.13,2.67-.27,5.45-.79,7.08-2.59,4.82-5.31,11.14-7.83,17.53-10.17,10.52-3.85,19.88-9.05,28.1-17.08,5.57-5.43,13.3-8.85,21.73-4.44-9.81,27.15-21.34,53.53-35.33,78.81-.67,1.21-1.59,2.28-2.39,3.42Z" style="fill: #2655c7; stroke-width: 0px;"/>
  <path d="M500.55,85.04c-3.99-17.3-.58-33.55,8.73-48.14,6.42-10.07,16.48-15.19,28.92-15.4,55.92-.94,111.81.88,167.7,2.01,9.56.19,18.63,2.86,24.48,11.59-2.68,11.06-5.2,22.15-7.62,33.27-1.03,4.74-1.9,9.5-3.84,13.99-5.2,12.04-10.68,16.12-23.85,14.94-33.05-2.96-66.15-.29-99.18-1.66-23.04-.96-46.16-.79-69.12-3.4-6.69-.76-13.33-2.21-17.5-7.76-3.81-5.07-6.04-3-8.72.56Z" style="fill: #f0ba4c; stroke-width: 0px;"/>
  <path d="M384.14,1313.5c-11.3-3.02-21.75-8.23-32.32-13.02-4.65-2.11-7.42-1.51-11.26,1.5-19.46,15.25-39.52,29.75-58.73,45.3-18.1,14.66-36.77,14.64-56.34,4.35-13.42-7.06-25.85-15.46-33.18-29.48-.9-3.4,1.67-4.67,3.92-5.6,6.86-2.85,10.68-8.33,13.12-14.88,8.45-22.68,13.86-46.17,17.74-70,1.41-8.67-6.37-11.9-11.02-16.91-3.54-2.41-6.52-5.3-7.96-9.48-7.69-7.89-15.37-15.79-23.06-23.68,4.15-2.88,7.03.43,9.93,2.32,9.83,6.39,18.37,14.49,27.2,22.07,42.33,36.35,89.41,65.02,140.17,87.69,43.78,19.55,89.72,31.95,137.32,37.59,32.02,3.8,64.23,4.61,96.48,3.82,2.76-.07,6.33-2.09,8.28,1.94-.92,4.65-4.82,4.44-8.06,4.49-31.21.39-62.31,1.49-93.57-2.19-37.41-4.41-73.73-12.73-109.6-23.68-3-.91-6.15-.96-9.06-2.14Z" style="fill: #1f399f; stroke-width: 0px;"/>
  <path d="M1135.13,65.75c-13.65-6.74-27.57-12.75-42.53-16-10.55-2.29-20.74-1.69-31.15,3.81,9.75,10.33,23.16,13.61,34.31,20.53,12.79,7.94,24.81,16.82,36.83,25.87,18.7,14.09,30.77,33.48,42.55,52.62,10.67,17.33,16.01,37.31,20,57.6,6.4,32.56-2.16,62.64-11.6,93.11-6.56,21.2-20.11,37.71-34.2,53.36-15.71,17.45-36.2,29.12-58.67,36.71-9.62,3.25-18.74,7.66-29.24,8.54-19.33,1.62-35.55-6.63-51.54-15.24-5.84-3.14-12.99-4.67-17.17-10.64,10.1,4.55,19.95,9.83,30.36,13.5,21.92,7.74,43.18,2.77,63.96-5.2,46.25-17.75,73.74-52.56,87.73-98.73,3.97-13.1,4.01-27.19,4.89-41,2.6-40.6-10.66-76.33-35.22-107.33-20.16-25.46-45.35-45.1-78.11-53.74-24.28-6.4-48.88-9.71-73.43-6.87-20.19,2.34-40.76,2.3-60.62,7.4-3.56.91-6.17-.31-8.1-3.12-2.14-3.12.74-4.64,2.42-6.35,8.41-8.54,16.68-18.73,28.45-21.07,17.45-3.46,33.69-11.61,51.98-11.9,13.83-.22,27.23-5.26,41.23-5.63,3.08-.08,5.92-.66,9.09.23,13.09,3.66,27.1,3.15,39.81,8.7,1.46.64,2.74-.25,3.6-1.56,12.45,5.93,24.05,13.16,34.35,22.4Z" style="fill: #e84063; stroke-width: 0px;"/>
  <path d="M384.14,1313.5c9.96-.8,18.68,4.09,28.04,6.02,29.04,6.01,57.63,13.76,87.4,16.82,16.88,1.74,33.88,2.8,50.73,3.87,16.56,1.04,33.42-1.44,50.18-1.22,2.08.03,2.91-1.44,3.21-3.3,2.17-2.4,5.12-2.16,7.94-2.32,45.07-2.41,88.1-13.71,130.41-28.88,21.25-7.62,41.28-17.78,61.81-26.87,18.82-8.78,35.83-20.82,54.22-30.37,2.42-1.26,4.62-3.53,7.81-2.44,4.75.83,3.44,4.64,3.36,7.47-.13,5.28,1.68,8.69,7.1,10.03,3.06.76,5.76,2.55,7.75,5.08,17.21,21.93,37.63,40.83,57.22,60.5,7.41,7.44,15.22,14.5,23.14,21.39,14.6,12.71,31,9.65,47.15,4.21,9.6-3.24,18.22-9.45,28.91-9.33-12.55,12.01-26.71,21.14-44.07,24.54-11.89,2.33-22.59-.07-32.16-7.6-23.75-18.69-47.78-37.03-71.17-56.16-6.8-5.56-12.01-6.4-20.28-3.06-44.41,17.95-90.87,28.05-138.37,33.23-55.6,6.07-111.31,11.54-167.29,11.81-62.46.3-123.09-10.73-181.73-32.39-.5-.18-.88-.69-1.32-1.04Z" style="fill: #3f509c; stroke-width: 0px;"/>
  <path d="M1057.83,415.43c4.09,1.15,8.39,1.83,12.23,3.55,12.81,5.73,25.31,3.27,37.08-2.13,20.08-9.21,39.96-18.29,56-34.95,16.82-17.47,32.55-35.73,45.68-55.85,6.45-9.87,8.6-22.69,11.98-34.38,2.22-7.69,7.05-13.38,11.86-19.29,2.31-2.84,5.45-2.67,8.6-2.64.05,2.13.1,4.26.15,6.39.97,4.31.98,8.61,0,12.92l-.36,11.58c-1.85,4.57.36,9.53-1.34,14.11-4.07,39-16.9,75.05-36.81,108.68-3.32,5.61-6.83,11.15-10.78,16.33-7.24,9.5-16.67,15.25-29.01,15.26-17.91,1.53-34.88-2.73-51.43-8.81-17.09-6.27-33.31-14.49-49.09-23.54-2.75-1.58-6.42-2.72-6.2-7.06,0-.1.39-.23.61-.25.28-.03.56.04.85.07Z" style="fill: #d82645; stroke-width: 0px;"/>
  <path d="M420.29,45.28c-24.91-9.81-50.68-17.05-77.16-20.01-32.61-3.64-65.04-6.55-98.14,1.44-26.24,6.34-50.48,15.7-72.41,30.5-22.82,15.4-43,33.85-61.04,55.15-13.92,16.44-27.17,33.43-40.21,50.42-20.91,27.24-34.11,58.47-42.1,92.27-6.35,26.9-5.31,53.85-4.31,80.7.83,22.23,3.65,44.7,12.88,65.6,1.73,3.91,2.66,8.13,1.99,12.51-5.76-7.95-10.51-16.43-13.71-25.74-20.68-57.13-21.02-114.73-5.23-173.1,11.71-43.28,35.27-79.15,64.79-112.16,24.87-27.81,53.13-51.16,86.32-67.64,38.34-19.04,79.45-28.19,122.5-26.51,31.47,1.23,62.3,6.4,91.97,17.38,12.09,4.97,23.79,10.6,33.85,19.16Z" style="fill: #e28591; stroke-width: 0px;"/>
  <path d="M386.44,26.13c-15.75-3.37-31.42-7.16-47.27-10-24.9-4.46-49.85-5.76-75.3-3.84-34.11,2.57-65.81,12.53-95.89,27.56-19.26,9.62-36.48,22.82-52.85,37.08-22.21,19.35-41.48,41.29-58.03,65.45-13.82,20.17-24.78,41.9-31.94,65.6-9.89,32.73-14.15,65.98-12.67,100.04.88,20.16,3.78,40.03,8.83,59.59,1.76,6.8,3.19,13.69,4.77,20.54-11.64-20.92-17.73-43.82-21.65-67.06-13.99-82.95,4.99-157.96,58.06-223.32C99.31,52.44,146.78,22.83,203.67,8.62c59.66-14.91,117.83-10.43,174.6,13.02,2.86,1.18,5.46,2.97,8.18,4.48Z" style="fill: #e1a4aa; stroke-width: 0px;"/>
  <path d="M264.34,204.66c46.84-31.78,93.78-63.4,145.37-87.28,8.78-4.07,17.61-8.05,26.28-12.34,5.97-2.95,9.86-6.8,4.81-13.97-2.19-3.12-3.2-7.52.18-10.17,3.87-3.03,8.22-6.39,14.01-3.76,3.31,1.5,6.25,4.16,10.26,3.81,5.83,5.18,11.48,10.52,15.58,17.25-4.99.15-7.67,2.56-10.91,6.79-7.25,9.46-16.89,16.6-29.24,18.86-28.77,5.18-54.47,18.23-79.8,31.87-26.59,14.31-51.97,30.68-76.65,48.09-15.32,8.98-28.33,21.17-43.1,30.91-8.72,6.56-16.97,13.71-25.48,20.55-4.61,2.96-8.43,6.89-12.58,10.42-11.05,8.77-21.04,18.79-32.04,27.62-28.42,27.63-56.82,55.29-78.47,88.9-1.87,2.84-3.16,5.99-4.89,8.9-3.89,6.53-9.95,7.98-15.3,2.63-3.83-3.83-5.71-2.27-9.03.19-5.11,3.8-6.31,11.51-13.44,13.11-3.44-7.24.67-13.93,1.81-20.74,1.5-9.01,4.79-17.6,8.99-25.77,3.22-6.27,7.67-11.73,14.13-14.41,16.97-7.04,30.6-18.66,43.88-30.8,21.95-20.07,46.81-36.41,70.12-54.73,17.03-13.39,34.7-25.97,51.55-39.59,7.58-6.13,16.59-9.99,23.94-16.34Z" style="fill: #c62148; stroke-width: 0px;"/>
  <path d="M500.55,85.04c.09-.56.13-1.14.27-1.69.71-2.84-1.72-7.24,2.14-8.29,3.61-.99,4.83,3.47,6.2,5.94,3.19,5.73,8.77,7.33,14.22,8.43,6.62,1.34,13.48,1.7,20.26,2.06,44.94,2.33,89.92,1.63,134.9,1.84,5.35.02,10.68,1.39,16.03,1.57,14.8.5,20.76-3.13,23.48-17.71,2.28-12.19,7.68-23.76,7.35-36.45-.09-3.33,1.39-5.44,4.96-5.64,15.84,17.89,16.79,54.19,1.93,73.63-11.06,3.93-22.38,5.47-34.17,6.15-20.33,1.17-41,.06-60.81,6.39-3.56.21-6.61-1.47-9.8-2.62-5.92-2.13-11.94-3.78-18.27-3.87-9.04-.13-11.14,1.76-11.43,10.73-.23,7.1-.19,14.2.85,21.28,1.29,8.76,1,17.59.44,26.39-.28,4.42-2.11,7.81-7.39,7.31-5.08-.48-4.25-4.42-4.26-7.75-.03-13.93.07-27.87-.08-41.8-.03-2.68,1.23-5.69-1.16-8.08-15.87-.78-31.77-.15-47.65-1.78-22.63-2.33-34.52-13.25-38.02-36.04Z" style="fill: #e08d2e; stroke-width: 0px;"/>
  <path d="M982.45,1179.71c9.56-7.63,19.99-13.22,32.56-13.7,6.89-2.2,8.57,3.35,9.92,7.59,3.17,10.01,5.92,20.19,7.54,30.62-2.09,5.83.91,11.11,2.19,16.42,7,28.94,14.82,57.67,20.55,86.91.76,3.91,1.79,7.77-.48,11.52-2.86-2.77-5.7-3.01-9.09-.59-10.35,7.4-22.39,11.32-34.13,15.71-11.52,4.31-19.97,2.29-26.95-6.56-22.05-27.95-40.76-57.84-51.79-92-2.29-7.11-4.07-14.34.08-21.48,4.1-2.67,6.84-7.24,11.88-8.6,2.59,2.3,2.34,5.7,3.28,8.63,11.65,36.28,30.68,68.56,53.67,98.64,5.81,7.6,12.37,8.75,20.35,4.79,7.97-3.96,10.72-9.76,8.72-19.12-2.2-10.34-5.5-20.44-9.15-30.27-9.04-24.3-17.84-48.71-29.66-71.91-2.92-5.73-9.38-9.37-9.49-16.59Z" style="fill: #3e7ce0; stroke-width: 0px;"/>
  <path d="M1143.86,455.32c2.83,5.96,5.67,11.93,8.5,17.89,1.54,3.33.19,6.1-1.75,8.73-10.29,14-24.32,19.47-41.21,17.03-20.56-2.98-38.17-13.6-55.5-23.93-30.94-18.44-58.85-41.08-86.65-64.01-31.9-26.31-63.41-53.09-95.23-79.48-31.83-26.41-63.58-52.95-94.66-80.27-6.55-5.76-7.22-10.79-2.87-17.78,2.61-.91,4.4.66,6.06,2.19,7.95,7.36,16.72,13.75,24.74,21.02,14.27,13.59,30.48,24.87,45.24,37.89,23.3,20.55,46.89,40.77,70.51,60.96,7.8,6.67,16.37,12.43,23.57,19.81,37.58,34.19,78.59,63.21,125.61,83.04,13.91,5.87,28.56,7.66,43.6,5.42,6.61-.99,12.83-2.8,17.51-8,2.1-2.33,4.83-2.84,7.81-2.58,1.71.37,3.63.28,4.7,2.09Z" style="fill: #2953c3; stroke-width: 0px;"/>
  <path d="M211.26,1184.89c-18.17-16-34.88-33.44-50.59-51.82-22.95-26.83-42.97-55.77-60.8-86.22-7.33-12.51-14.06-25.38-21.26-37.96-1.21-2.11-1.32-7.03-6.15-3.95,1.11,3.06,2.63,6.13-.28,9.07-17.14-35.67-29.38-73-37.6-111.68,1.71-13.42-2.35-26.82-1.23-42.12,5.19,4.67,5.62,9.23,6.59,13.45,11.46,49.89,28.89,97.69,52.35,143.08,19.08,36.91,40.89,72.14,68.56,103.59,11.63,13.22,22.3,27.32,34.97,39.61,45.65,44.28,96.78,80.69,154.67,107.43,37.1,17.14,75.65,30.09,115.88,36.6,16.92,2.74,34.11,5.23,51.43,6.49,21.12,1.54,42.15.93,63.2,1.07,14.44.1,28.64-4.46,43.24-3.22-11.61,4.02-23.91,3.71-35.85,4.75-16.08,1.4-32.26,2.8-48.52,2.17-22.54-.88-44.81-3.81-67.18-6.43-28.65-3.36-56.02-10.94-83.05-20.24-40.18-13.82-77.7-32.96-113.35-56.16-19.59-12.75-37.7-27.19-55.54-42.13-2.75-2.3-5.56-4.94-9.49-5.37Z" style="fill: #3c64ca; stroke-width: 0px;"/>
  <path d="M805.93,1279.1c-34.02,17.26-69.14,32-106.03,41.66-31.45,8.24-63.23,15.85-96.2,14.94-2.56,1.48-5.34,1.75-8.25,1.74-25.35-.11-50.73.65-76.02-1.77-49.97-4.78-98.38-15.54-145.1-34.64-45.67-18.66-87.79-43.22-127.51-72.04-15.58-11.3-29.77-24.52-44.6-36.86-5.21-4.34-10.41-8.72-17.17-10.53-31.46-31.25-57.86-66.37-80.13-104.65,4.63-3.31,6.4.68,8.66,3.4,11.83,15.54,23.54,31.18,35.53,46.61,16.46,21.18,35.59,39.92,55,58.28,31.86,30.15,66.93,56.02,105.48,77.23,26.44,14.54,53.52,27.54,81.75,38.14,1.05.39,2.19.55,3.3.81,3.89,1.53,8.07,2.02,11.99,3.43,1.24,2.01,3.26,1.65,5.14,1.71,22.27,6.75,44.6,13.59,67.72,16.47,17.43,2.17,34.79,5.01,52.42,5.97,25.71,1.39,51.44.99,76.91-1.39,34.9-3.27,69.56-9.15,103.11-20.04,28.49-9.24,57.18-17.9,83.95-31.72,6.53-3.37,8.76-2.39,10.06,3.25Z" style="fill: #254ab7; stroke-width: 0px;"/>
  <path d="M264.34,204.66c-11.97,9.46-23.84,19.05-35.93,28.37-24.49,18.87-48.54,38.38-73.83,56.13-21.24,14.91-38.95,33.93-60.17,48.7-1.4.97-2.76,2.18-4.33,2.69-26.52,8.53-34.11,30.26-38.15,54.49-.65,3.9-1.18,7.83-1.76,11.74,2.13,6.65,1.79,13.06-1.92,19.13-.55-.63-1.1-1.26-1.65-1.89,1.55-7.1-2.29-13.34-4.12-19.58-5.88-20.11-6.64-40.49-5.94-61.12,1.58-12.36,2.78-24.73,7.23-36.61,6.43-17.15,17.77-21.29,33.32-11.25,7.68,4.96,15.4,9.74,23.89,13.25,6.29,2.6,11.63,2.02,17.78-1.35,13.18-7.21,23.88-17.48,35.49-26.65,29.29-23.14,60.44-43.7,90.95-65.15,1.87-1.31,3.56-2.85,5.44-4.13,0,0-.02,0-.02,0,5.47-.45,8.3-6.24,13.72-6.78Z" style="fill: #d04254; stroke-width: 0px;"/>
  <path d="M775.14,233.96c-3.51,5.95-1.86,11.24,2.87,15.34,14.59,12.65,29.43,25.02,44.17,37.5,18.43,15.6,36.78,31.29,55.31,46.76,29.86,24.93,60.4,49.09,89.61,74.77,23.36,20.53,48.39,38.66,73.92,56.19,18.12,12.44,37.37,23.12,58.37,29.96,17.67,5.75,34.2,4.5,47.3-10.96,2.65-3.12,5.01-6.19,5.69-10.3,5.39,7.26,7.77,16.05,12,23.89-3.53,11.23-11.11,16.11-22.77,14.26-7.97-1.26-15.52,1.84-23.66,1.27-23.6-1.66-41.04-15.79-59.66-27.44-28.95-18.12-55.23-39.68-80.43-62.77-13.88-12.72-28.45-25.04-45.09-34.37-3.35.92-4.4-2.66-6.86-3.48h0c-2.46-1.66-4.72-3.54-6.44-6-2.13-3.13-5.17-5.11-8.48-6.78-14.17-10.81-28.77-21.1-42-33.06-20.35-18.4-42.91-34.2-62.5-53.48-1.41-2.3-3.25-4.17-5.63-5.5-.67-.41-1.29-.89-1.89-1.39-15.65-15.37-34.28-27.11-50.65-41.61-3.21-2.85-6.18-5.85-8.27-9.65-.59-3.28-1.85-6.65,1.05-9.55,12.73,1.52,24.84,4.6,34.43,13.9.35.91.21,1.75-.41,2.5Z" style="fill: #486ece; stroke-width: 0px;"/>
  <path d="M987.57,10.91c-5.59,5.65-13.33,5.61-20.25,6.75-41.97,6.92-81.43,20.48-116.53,44.79-18.87,13.07-36.77,27.59-50.85,46.15-6.24,8.23-15.9,11.71-24.29,16.93-2.13,1.32-4.39,1.58-6.27-.31-2.08-2.1-2.81-4.49-2.3-7.72.77-4.81,4.53-10.49-2.45-14.06,28.34-32.99,63.42-56.63,103.28-73.23,35-14.57,71.77-20.77,109.62-20.74,3.4,0,6.87-.26,10.04,1.45Z" style="fill: #e499a0; stroke-width: 0px;"/>
  <path d="M932.84,1214.15c-2.27,21.77,9.47,39.35,17.68,57.85,8.58,19.32,22.42,35.44,34.29,52.74,6.34,9.24,13.77,11.68,24.57,7.78,13.07-4.72,26.44-9,37.66-17.7,5.98-4.63,7.74-1.93,7.66,4.24-.41,2.18.07,4.63-1.85,6.37-13.96,3.18-26.1,11.05-39.6,15.36-13.57,4.33-28.3,10.43-39.53-3.06-21.21-25.5-43.38-50.57-54.07-83.04-7.61-23.12-6.99-25.37,13.18-40.55Z" style="fill: #3665cf; stroke-width: 0px;"/>
  <path d="M586.22,122.86c3.41,1.8,1.97,5.04,2,7.63.17,13.94.09,27.88.15,41.83.01,3.03-.66,6.69,4.28,6.58,4.85-.1,4.01-3.71,4.22-6.75,1.12-16.5-2.36-32.81-1.87-49.31.23-7.53,2.73-10.71,10.51-10.88,11.81-.25,22.28,3.47,32.48,8.71.35.38.71.76,1.07,1.14,4.64,19.41,3.8,38.93,1.06,58.47-.06.43-.78.76-1.26,1.09-14.45,3.26-29.09,1.7-43.67,1.77-3.09.02-6.27-.01-8.36-2.95-.2-19.11-.41-38.23-.61-57.34Z" style="fill: #eeb862; stroke-width: 0px;"/>
  <path d="M586.83,180.2c17.58.1,35.15.2,52.73.3,4.62-3.46,11.04-1.26,15.59-4.95,35.06-.32,69.98,1.54,104.71,6.62,4.49.66,9.14,4.23,13.86.46.43,0,.86,0,1.29-.02,2.53,2.63,5.58,5.09,2.96,9.36-9.27,3.58-19.08,5.43-28.43,8.8-2.46.89-5.08.77-7.19-1.26-25.49,1.76-50.16-5.49-75.36-6.94-3.8-.22-7.83-1.83-9.92-4.55-6.99-9.09-15.35-6.11-23.73-3.63-5.73,1.7-11.54,3.89-17.44,3-16.76-2.52-33.44,1.17-50.14.11-27.16-1.72-53.87,2.89-80.69,5.74-3.02.32-5.54-.32-8.28-.7,14.58-5.06,30.02-4.42,45.03-6.4,21.55-2.84,43.32-4.03,64.99-5.93Z" style="fill: #9ea8d3; stroke-width: 0px;"/>
  <path d="M1032.46,1204.21c-6.08-8.29-5.86-18.61-8.89-27.88-1.53-4.7-2.66-9.4-8.56-10.33-4.36-5.06-3.46-8.96,3.1-10.3,19.82-4.07,35.14-19.72,56.03-21.34,4.8-.37,8.55-5.29,12.76-8.14,5.05-3.41,10.78-7.22,15.75.52-8.85,13.7-19.15,26.27-30.24,38.19-12.73,13.69-25.7,27.15-39.95,39.29Z" style="fill: #1d3ca8; stroke-width: 0px;"/>
  <path d="M778.87,191c-1.28-2.8-2.57-5.6-3.85-8.4,6.32.98,7.78,6.9,10.75,11.02,11.94,16.57,25.09,32.11,39,47.04,2.32,3.86,6.2,6.41,8.57,10.22.65,1.65,1.81,2.8,3.45,3.46,3.8,2.4,6.42,6.18,10.18,8.63,2.86,4.01,6.26,7.47,10.35,10.24,13.19,14.99,28.98,27.13,44.34,39.66,23.74,19.37,48.55,37.37,73.93,54.55,13.87,12.22,30.18,20.73,46.09,29.75,11.73,6.65,24.08,12.2,36.16,18.25,5.26,7.87,14.43,10.08,22.02,14.04,22.71,11.84,46.4,21.47,72.21,24.48,3.67.43,7.35.72,11.03,1.07-6.37,2.59-12.81.84-19.23.3-1.71-.22-3.43-.44-5.14-.66-7.51.24-14.91-.31-21.96-3.2-2.01-.73-4.04-1.42-6.07-2.08-7.45-2.84-15.22-4.79-22.6-7.85-57.51-24.27-109.42-57.82-158.54-95.92-17.34-13.45-35.13-26.4-51-41.66-17.64-15.97-34.05-33.2-50.95-49.92-1.37-1.4-2.74-2.8-4.15-4.17-8.22-8.94-15.94-18.31-23.73-27.62-5.95-7.86-12.19-15.5-17.63-23.73-1.53-2.31-3.79-4.29-3.22-7.5Z" style="fill: #cd2e51; stroke-width: 0px;"/>
  <path d="M216.13,1212.63c9.14,5.99,15.9,12.06,12.6,25.39-5.26,21.21-9.29,42.73-16.74,63.34-2.94,8.12-7.04,15.74-16.82,17.81-1.12.24-1.92,1.95-2.87,2.98-3.59-3.86-4.59-8.71-5.19-13.7-1.96-5.96,1.75-11.01,2.97-16.35,5.38-23.5,13.5-46.24,20.2-69.39,1.09-3.76,2.2-7.71,5.85-10.08Z" style="fill: #4464c5; stroke-width: 0px;"/>
  <path d="M440.61,122.07c12.78-4.68,24.74-10.25,30.58-23.96,2.89-6.78,6.42-.15,9.67.1,8.12,9.66,7,20.58,3.56,31.35-7.31,22.85-21.98,41.3-36.73,59.65-2.3,2.86-4.54,5.75-6.81,8.63-.61.42-1.23.85-1.84,1.27-5.63,1.15-11.26,2.31-16.89,3.46,1.11-10.7,10.13-15.31,17.24-20.62,12.07-9,20.91-20,26.25-33.89,4.89-12.73-1.02-21.94-14.69-23.43-3.53-.39-7.54.91-10.33-2.55Z" style="fill: #810e1e; stroke-width: 0px;"/>
  <path d="M48.25,425.91c.72-6.37-.66-12.95,1.92-19.13,4.89-5.83,8.71-12.59,14.91-17.26,2.83-2.13,5.23-4.09,7.68,1.31,2.79,6.15,9.45,5.7,12.92-.24,1.84-3.14,2.57-6.95,5.64-9.35,3.04,13.48,9.43,26.33,7.67,40.71-2.83,3.19-6.69,2.5-10.29,2.64-6.21.24-12.42-.14-18.63.73-6.56.92-11.38,3.26-11.41,10.85-4.95-1.91-8.2-5.56-10.4-10.26Z" style="fill: #8b163a; stroke-width: 0px;"/>
  <path d="M637.99,120.67c1.13-4.81,5.46-4.75,8.8-4.98,20.06-1.35,40.06-3.96,60.21-3.52,7.6.16,14.22-3.69,21.57-4.37,1.52-.14,2.73-.39,3.73.94-7.11,11.18-18,14.77-30.46,14.95-11.88.18-23.81.7-35.65-.05-8.47-.54-12.8,1.46-11.34,10.63-2.3.81-4.06-.5-4.95-2.12-2.8-5.13-7.9-7.74-11.94-11.49l.02.02Z" style="fill: #bc5c33; stroke-width: 0px;"/>
  <path d="M58.65,436.17c-3.84-6.88-2.03-10.33,5.75-12.23,11.21-2.73,22.56-1.28,33.85-1.62,6.13-3.86,12.64-5.1,19.66-2.82,2.9,2.65-.07,4.2-1.14,6.11-3.03,3.4-5.01,7.81-9.48,9.81-13.17,3.17-26.27,7.04-40.07,4.01-3.01-.66-6.11-1.11-8.57-3.25Z" style="fill: #461235; stroke-width: 0px;"/>
  <path d="M637.97,120.65c9.14.18,10.94,9.47,16.89,13.61.1,13.76.19,27.52.29,41.28.14,4.57-2.64,5.46-6.46,5.22-3.04-.19-6.09-.19-9.14-.27-3.81-6.11-.17-12.21.22-18.26.9-13.95-2.08-27.69-1.81-41.58Z" style="fill: #e08d2e; stroke-width: 0px;"/>
  <path d="M216.13,1212.63c-9.06,28.33-18.05,56.69-25.41,85.52-.91,3.56-4.04,6.3-3.6,10.29-4.03-9.87,1.15-18.9,3.17-27.99,5.08-22.95,11.23-45.65,16.88-68.47.54-2.18.64-4.47.94-6.7,2.67,2.45,5.35,4.9,8.02,7.35Z" style="fill: #8295d5; stroke-width: 0px;"/>
  <path d="M113.58,1080.35c-2.71-1.58-5.03-4.16-8.66-3.4-12.93-19.93-24.29-40.67-32.73-62.93.09-3.02.18-6.04.27-9.07,6.3,8.78,8.22,19.63,13.91,28.79,9.49,15.27,18.17,31.04,27.2,46.61Z" style="fill: #2e53bb; stroke-width: 0px;"/>
  <path d="M756.08,120.46c0,5.86,0,11.72-.01,17.58-2.34-5.86-2.31-11.72.01-17.58Z" style="fill: #e499a0; stroke-width: 0px;"/>
  <path d="M1222.54,806.46c-.02-4.71-1.54-9.55,1.27-14,.21,4.72.82,9.48-1.27,14Z" style="fill: #478ce7; stroke-width: 0px;"/>
  <path d="M1239.7,314.75c.18-4.73-1.7-9.66,1.34-14.11.06,4.75.82,9.57-1.34,14.11Z" style="fill: #e53459; stroke-width: 0px;"/>
  <path d="M1241.41,289.06c0-4.31,0-8.61,0-12.92,1.38,4.31,1.32,8.61,0,12.92Z" style="fill: #e53459; stroke-width: 0px;"/>
  <path d="M26.04,859.28c3.29,3.11,1.5,7.02,1.65,10.62-2.2-3.28-1.58-7-1.65-10.62Z" style="fill: #6b96e4; stroke-width: 0px;"/>
  <path d="M1219.09,842.38c0-3.56-1.4-7.3,1.36-10.49.03,3.56.77,7.21-1.36,10.49Z" style="fill: #478ce7; stroke-width: 0px;"/>
  <path d="M1220.87,825.38c-.26-3.06-1.15-6.21,1.2-8.92.38,3.08.56,6.13-1.2,8.92Z" style="fill: #478ce7; stroke-width: 0px;"/>
  <path d="M925.89,384.56c2.99-.23,4.49,2.49,6.86,3.48,8.07,9.68,18.69,16.5,28.01,24.78,16.21,14.39,31.64,29.45,45.14,46.38,8.18,10.27,17.68,19.3,26.56,28.86,13.22,14.23,20.2,30.26,22.16,49.33,1.09,10.64,3.4,21.28,6.34,31.59,10.45,36.61,16.85,74.05,22.16,111.6,3.01,21.29,3.57,42.97,4.07,64.6,1.19,52.11-4.61,103.17-19.76,153.1-2.64,8.7-5.25,17.41-7.87,26.12-4.75,4.91-6.03,11.56-8.34,17.57-8.56,22.27-20.87,42.09-36.07,60.49-18.26,22.1-40.2,40.46-59.72,61.25-27.16,28.94-59.03,51.59-92.98,71.81-11.84,7.06-22.66,16.24-32.73,25.75-10.24,9.68-23.21,14.29-34.74,21.48-40.77,25.45-84.92,43.62-130.79,57.42-28.55,8.59-57.92,12.02-87.89,13.76-57.01,3.3-111.94-4.01-165.94-22.24-30.43-10.28-58.57-24.86-86.11-40.83-39.4-22.84-74.12-51.68-105.09-84.92-9.62-10.32-18.52-21.38-26.98-32.85-8.9-12.07-18.15-24.11-26.35-36.52-7.59-11.48-17.32-21.28-23.55-34.17-6.21-12.85-15.05-24.94-22.6-37.35-6.63-10.91-13.74-22.14-16.72-35.11-.98-4.25-5.36-5.76-8.98-7.12-4.63-1.74-7.6-5.3-7.43-9.48.27-6.74-3.71-10.73-6.69-15.86-7.72-13.26-17.97-25.48-19.69-41.64-.09-.81-.54-1.63-.97-2.36-15.27-25.52-15.05-54.6-19.57-82.69-2.71-16.89-2.11-33.94-4.59-50.78-.87-5.92.91-11.91,1.72-17.7,2.08-14.81.89-29.59,1.45-44.36.12-3.05.82-6.09,1.45-10.55-4.92,5.34-2.89,12.13-6.63,16.45.71-17.01,7.35-32.49,12.48-48.35.44-1.35,1.5-2.76,3.17-2.03,2.02.88,1.25,2.82,1.11,4.47-1.03,12.42-2.17,24.84-3,37.27-.36,5.38-.57,10.83,2.51,15.79,1.26,2.02,1.22,4.41-.2,6.5-1.29,1.9-3.18,3.85-.49,5.84,2.33,1.73,4.51-.09,6.19-1.39,7.43-5.73,15.47-11.22,11.97-22.81-.84-2.79.58-5.78,2.95-6.45,9.84-2.78,13.63-12.31,18.69-18.99,3.99-5.27,9.22-12.02,9.9-19.86.16-1.9.77-3.4,2.38-4.22,8.52-4.34,9.4-12.27,9.37-20.4-.02-5.13,1.5-9.21,4.7-13.28,4.42-5.63,10.6-10.6,9.68-19.07-.08-.73.6-1.58,1.01-2.33,15.3-27.54,32.27-53.83,51.34-79.09,14.17-18.76,29.19-36.91,43.06-55.92,6.59-9.03,15.98-16.03,24.24-23.81,19.91-18.78,42.96-33.49,65.05-49.37,16.63-11.96,35.98-19.33,54.65-27.62,28.58-12.69,58.16-22.67,88.81-29.04,16.92-3.52,34.17-4.85,51.39-6.5,15.38-1.47,30.7-1.35,46.06-1.41,24.54-.1,48.41,5.18,72.42,9.35,31.19,5.42,60.72,16.45,90.45,26.8,4.5,1.57,8.47,4.59,12.78,6.77,24.83,12.55,49.25,26.13,72.03,41.85,18.38,12.69,34.04,29.42,48.77,46.48,4.62,5.35,9.9,9.98,14.65,15.17,19.47,21.27,35,45.26,51.32,68.86,12.39,17.92,19.63,38.38,31.84,56.25,3.99,5.84,5.4,13.52,8.19,20.3,8.95,21.74,19.5,43.28,24.66,65.99,4.13,18.16,12.39,35.2,13.95,53.92.29,3.52,3.2,5.27,5.34,7.47,2.1,2.16,4.44,4.87,2.69,7.46-4,5.92-1.41,6.32,4.07,7.36,11.38,2.16,23.65,18.64,25.81,29.94,2.06,10.78,4.05,21.61,6.32,32.35,6.32,29.9,8.27,60.08,6.93,90.46-.93,21.22-3.17,42.39-4.79,63.58-.11,1.37-.29,3.16,1.64,3.31.84.07,2.2-.82,2.6-1.64,9.1-18.46,20.55-35.91,24.56-56.56.27-1.38.11-2.85.14-4.27-1.99-2.37-.92-4.87-.26-7.31,11.92-44.12,17.17-89.15,14.8-134.67-3.41-65.65-16.56-129.41-40.98-190.72-8.37-21.01-19.08-40.83-29.16-60.96-15.52-30.97-41.72-52.37-67.5-74.08-4.74-3.99-10.26-7.38-12.28-13.82-1.71-2.29-3.43-4.58-5.14-6.87Z" style="fill: #6295e7; stroke-width: 0px;"/>
  <path d="M931.03,391.44c18.96,17.18,39.58,32.53,57.11,51.26,9.34,9.98,17.04,21.37,23.61,33.32,24.26,44.14,42.9,90.5,54.71,139.58,6.65,27.62,11,55.51,14,83.76,2.28,21.57,3.72,43.09,2.99,64.7-.95,28.09-4.18,55.95-10.39,83.44-1.94,8.59-4.06,17.09-6.65,25.49-3.91,9.1-7.98,18.13-11.64,27.33-.99,2.48-2.13,4.61-4.08,6.34-1.27,1.14-2.56,2.48-4.45,1.3-1.74-1.08-1.28-2.68-1.21-4.48.94-24.43,2.95-48.91,2.23-73.3-.92-31.11-1.79-62.34-7.92-93.1-1.71-8.57-1.76-17.47-2.68-26.21-1.69-16.07-8.56-30.27-16-44.29-2.66-5-5.63-9.93-6.3-15.77-.1-.82-.36-1.79-.89-2.38-9.16-10.07-8.52-24.45-15.51-35.35-4.37-6.81-11.24-11.62-16.56-17.81-4.95-5.76-16.42-24.92-17.98-32.13-2.7-12.49-10.91-22.18-18.67-31.87-2.72-3.4-5.33-6.18-5.35-11.05-.02-4.93-2.61-9.46-6.34-12.68-10.25-8.88-15.18-21.35-22.67-31.91-9.85-13.89-13.94-30.34-24.06-43.77-6.48-8.6-6.17-18.6-1.62-28.29,1.39-2.97,2.02-5.68.93-9-1.13-3.43-2.78-7.54-1.86-10.66,3.94-13.52,4.63-19.49,20.38-10.14,9.22,5.47,17.1,13.01,26.89,17.65Z" style="fill: #729de7; stroke-width: 0px;"/>
  <path d="M440.61,122.07c5.87.82,11.89-.6,17.71,1.79,9.09,3.73,13.71,11.97,10.62,21.15-5.49,16.32-14.78,29.58-29.55,39.38-6.77,4.49-13.48,10.25-17.25,18.18-14.22,4.94-29.01,8.15-42.85,14.24-19.15,10.84-40.39,17.12-59.75,27.5-2.75,1.48-5.78,1.17-7.78-1.4-9.8-12.59-20.05-24.84-29.01-38.06-.47-.69-.14-1.65.25-2.44,43.36-30.51,88.04-58.65,138.52-76.19,6.15-2.14,12.42-4.2,19.09-4.13Z" style="fill: #5d040a; stroke-width: 0px;"/>
  <path d="M282.99,202.4c9.01,11.73,18.23,23.32,26.94,35.27,3.76,5.16,6.66,6.39,12.97,3.08,18.09-9.52,36.8-17.82,56.38-23.94-5.6,7.27-13.95,10.79-21.66,14.71-37.44,19.07-70.78,44.05-103.65,69.89-30.38,23.88-59.17,49.57-87.38,75.88-12,11.2-22.05,24.47-33.6,36.19-4.67,4.73-9.52,9.84-16.23,12.13.68-1.65,1.35-3.31,2.03-4.96-.34-3.48,1.86-5.91,3.67-8.4,16.91-23.31,35.2-45.48,55.07-66.34,15.85-16.36,32.61-31.73,50.2-46.2,3.78-2.17,6.56-5.74,10.53-7.66,6.41-4.24,12.65-8.72,19.01-13.01,5.9-3.98,5.97-8.08,1.93-13.53-5.78-7.78-11.44-15.67-16.2-24.15-1.33-2.37-3.9-4.37-2.72-7.66,13.64-11.24,27.61-22.04,42.7-31.29Z" style="fill: #3e62c8; stroke-width: 0px;"/>
  <path d="M740.86,218.42c-.64,2.83,1.87,5.69-.1,8.51-6.91,1.42-12.49-3.08-18.83-4.26-3.07-.57-6.06-1.59-9.44-1.64,31.26,16.29,61.39,34.3,88.25,57.3l.05.04c2.38,1.55,4.4,3.57,6.79,5.1,7.98,10.56,19.5,17.11,29.26,25.63,15.75,13.75,32.16,26.75,47.9,40.52,8.76,7.66,18.44,14.03,27.47,21.29,2.15,1.63,4.58,2.99,5.54,5.77-.15.36-.3.72-.45,1.08-10.51-7.56-21.27-14.79-31.47-22.74-24.57-19.15-47.61-40.15-71.88-59.69-21.51-17.32-43.78-33.23-67.77-46.81-2.18-1.24-4.72-1.85-7.09-2.75-38.45-19.98-79.57-32.28-122.08-38.69-22.28-3.36-44.98-6.12-67.73-5.82-5.1.07-9.83-.85-15.85-3.11,8.41-3.87,16.26-2.27,23.58-3.34,23.69-3.46,47.42-1.51,71.07,2.16,32.4,5.03,64.88,9.56,97.36,14.07,3.23.45,6.68-.78,10.03-1.22,5.36.64,6.96,3.63,5.4,8.61Z" style="fill: #6295e7; stroke-width: 0px;"/>
  <path d="M104.2,492.21c-.91-4.58-1.57-7.89-2.24-11.2-.34-1.71-.84-3.98.72-4.78,11.09-5.72,10.66-18.52,16.94-27.32,15.84-22.21,32.27-43.65,54.18-60.32,2.17-1.65,4.31-3.21,6.87-1.53,1.93,1.26.54,3.35-.19,4.59-6.81,11.51-7.88,26.22-16.85,35.98-10.3,11.21-20.41,23.2-34.19,30.75-5.49,3.01-6.39,7.63-4.87,13.03.76,2.69,1.28,6.5-1.48,6.44-9.88-.2-12.39,8.88-18.89,14.37Z" style="fill: #729de7; stroke-width: 0px;"/>
  <path d="M263.61,315.02c1.33-.08,2.17.52,2.21,1.86.05,1.52-.62,2.74-2.03,3.4-1.28.6-2.22.13-2.49-1.23-.4-1.96.64-3.2,2.31-4.03Z" style="fill: #729de7; stroke-width: 0px;"/>
  <path d="M920.67,377.74c1.74,2.28,3.48,4.55,5.23,6.83-4.36-.38-6.42-3.68-8.6-6.82,0,0,.04-.06.04-.06,1.13-1.03,2.23-.91,3.33.05Z" style="fill: #6295e7; stroke-width: 0px;"/>
  <path d="M250.64,211.45c-8.47,9.76-19.75,16.02-30.03,23.41-29.69,21.34-59.62,42.31-87.64,65.88-5.57,4.68-12.52,7.72-18.77,11.62-2.69,1.68-5.21,1.28-8.08.38-10.43-3.27-19.78-8.45-28.76-14.61-16-10.96-26.27-7.52-31.97,10.94-3.48,11.26-5.93,22.83-8.84,34.26-1.54-18.58,1.36-36.98,3.87-55.18,1.81-13.09,7.89-25.55,15.72-36.58,2.54-3.58,6.16-5.26,11.06-2.01,5.49,3.65,10.36,7.42,14.69,12.63,9.45,11.35,20.45,21.14,34.64,26.62,16.54,6.38,28.04-3.76,39.2-12.67,29.17-23.28,60.81-42.93,91.7-63.68.89-.6,2.13-.69,3.21-1.02Z" style="fill: #e54665; stroke-width: 0px;"/>
  <path d="M740.86,218.42c-.53-3.67-2.81-6.23-5.4-8.61.33-4.75,5.44-6.31,6.89-10.32,11.15-.08,20.46-7.48,31.52-7.94,1.67-.07,3.32-.37,4.99-.57,7.42,10.21,14.83,20.42,22.25,30.62-.76,2.46-2.81,3.61-5,3.87-7.47.92-13.54,6.23-21.16,6.52-10.39-6.98-22.31-10.11-34.09-13.59Z" style="fill: #6d74a9; stroke-width: 0px;"/>
  <path d="M584.86,1321.98c-7.78,3.61-16.02.87-24,1.71,7.78-3.59,16.02-.85,24-1.71Z" style="fill: #3c64ca; stroke-width: 0px;"/>
  <path d="M554.01,1323.69c-3.43,0-6.86,0-10.29,0,3.43-2.58,6.86-2.58,10.29,0Z" style="fill: #3c64ca; stroke-width: 0px;"/>
  <path d="M610.56,1320.27c-3.01,3.11-6.85,1.17-10.29,1.71,3.01-3.09,6.86-1.15,10.29-1.71Z" style="fill: #3c64ca; stroke-width: 0px;"/>
  <path d="M624.27,1318.56c-2.4,2.86-5.68,1.31-8.58,1.71,2.41-2.84,5.69-1.29,8.58-1.71Z" style="fill: #3c64ca; stroke-width: 0px;"/>
  <path d="M1121.25,236.9c.23,23.32-7.13,44.01-21.77,62.09-1.58,1.95-3.56,3.82-5.75,5.01-15.82,8.63-30.84,17.67-50.06,19.58-25.43,2.53-48.53-1.3-68.87-15.93-27.55-19.82-45.76-46.57-50.37-80.78-3.05-22.59,7.02-41.1,22.85-56.3,20.26-19.45,45.09-29.03,72.92-31.02,11.68-.84,23.82-1.12,34.73,2.51,18.38,6.12,36.2,14.52,46.66,32.26,11.35,19.25,20.24,39.48,19.67,62.58Z" style="fill: #ec8d9d; stroke-width: 0px;"/>
  <path d="M833.33,250.88c-3.64-2.75-7.72-5.13-8.57-10.22,1.15.57,2.3,1.13,3.45,1.7,1.17,3.17,5.3,4.55,5.12,8.53Z" style="fill: #e44765; stroke-width: 0px;"/>
  <path d="M846.97,262.98c-4.99-.99-7.46-4.96-10.18-8.63,5.1.87,7.58,4.82,10.18,8.63Z" style="fill: #e44765; stroke-width: 0px;"/>
  <path d="M982.45,1179.71c17.22,20.18,24.42,45.31,34.24,69.16,6.51,15.81,11.64,32.05,16.03,48.54,2.96,11.14-.05,17.56-9.94,22.41-9.32,4.57-16.53,3.19-23.13-5.66-22.39-30.02-41.45-61.91-53.28-97.73-1.19-3.59-1.86-7.14-1.63-10.89,12.03-9.41,23.93-19.01,37.72-25.84Z" style="fill: #759ce5; stroke-width: 0px;"/>
  <path d="M805.93,1279.1c-1.51-5.59-5.1-3.32-8.01-1.85-44.12,22.21-90.94,36.56-139.19,45.77-24.37,4.65-49.12,8.13-74.27,7.79-15.51-.21-30.94,1.2-46.61.09-36-2.56-71.6-6.56-106.14-17.47-6.7-2.11-13.92-2.76-19.93-6.87,12.95,3.07,25.94,5.99,38.84,9.24,20.38,5.15,41.3,6.71,62.02,9.59,23.76,3.3,47.69,2.11,71.49,1.44,24.02-.67,47.95-3.89,71.57-8.72,51.77-10.59,101.51-26.99,148.33-51.74,34.69-18.35,68.28-38.45,99.14-62.86,1.04-.82,2.58-1.01,3.88-1.5-9.24,13.24-24.32,20.14-34.77,32.1-2.82,3.23-5.88,6.15-6.38,10.7-19.99,11.43-39.97,22.85-59.96,34.28Z" style="fill: #2e53bb; stroke-width: 0px;"/>
  <path d="M406.62,1304.85c-4.35.1-8.49-.55-11.99-3.43,4.35-.1,8.5.54,11.99,3.43Z" style="fill: #2e53bb; stroke-width: 0px;"/>
  <path d="M178.85,346.92c-21.38,23.47-41.58,47.9-60.05,73.73-7-1.22-13.63,2.01-20.55,1.68-.42-14.01-8.49-26.74-6.94-41.09,10.34-17.45,23.16-33.06,36.94-47.78,13.4-14.33,27.09-28.44,41.9-41.39,4.74.63,3.41,4.25,2.3,6.31-7.98,14.85-2.28,27.83,4.98,40.73,1.35,2.39,3.27,4.79,1.42,7.81Z" style="fill: #54050a; stroke-width: 0px;"/>
  <path d="M178.85,346.92c-3.08-7.88-8.2-14.74-10.95-22.86-2.92-8.61-1.91-16.5,1.85-24.45,1.11-2.34,3.66-4.86.4-7.54,10.36-9.61,20.72-19.23,32.01-27.77,10.7,9.35,18.17,21.33,26.4,32.68.84,1.16.82,2.67.3,4.07-16.67,15.29-33.34,30.58-50.02,45.86Z" style="fill: #64151b; stroke-width: 0px;"/>
  <path d="M240.29,233.69c7.52,11.24,14.9,22.57,22.63,33.66,2.77,3.98,3.01,7.6-.72,10.38-7.62,5.66-15.62,10.81-23.47,16.17.26-5.55-1.41-10.11-5.36-14.36-5.59-6.01-10.09-12.99-15.94-18.83-1.75-1.75-3.89-3.52-2.98-6.56,8.08-7.49,16.55-14.49,25.84-20.45Z" style="fill: #17319c; stroke-width: 0px;"/>
  <path d="M214.45,254.14c7.9,9.32,15.72,18.7,23.72,27.92,3.41,3.94,4.64,7.68.56,11.82-3.79,1.7-5.67,6.02-9.86,7.16-6.43-10.98-15.24-20.18-22.74-30.37-1.51-2.05-3.38-3.79-3.97-6.38,3.64-3.93,7.67-7.4,12.29-10.16Z" style="fill: #0e0833; stroke-width: 0px;"/>
  <path d="M1116.17,449.48c7.52,1.73,15.03,3.46,22.55,5.18-1.62.43-3.85.33-4.76,1.38-11.88,13.68-27.76,11.81-42.77,9.95-26.34-3.25-48.56-17.15-70.59-30.73-25.9-15.96-50.65-33.58-73.23-54.08-1.66-1.51-2.97-3.42-4.45-5.14.89-.97,2.01-1.15,3.24-.93,1.14.36,2.1,1.02,2.99,1.8,1.91,1.81,3.87,3.56,6.24,4.78,1.97,1.13,3.94,2.25,5.68,3.72,3.65,3.84,7.87,6.93,12.45,9.57.67.39,1.28.85,1.89,1.33,7.36,5.71,14.89,11.17,22.79,16.13.72.42,1.39.91,2.05,1.43,25.86,16.7,52.17,32.43,83.18,37.7,11.03,1.88,22.06,2.05,32.75-2.09Z" style="fill: #152688; stroke-width: 0px;"/>
  <path d="M946.43,376.01c-1.17.01-2.34.02-3.51.03-30.11-24.46-59.44-49.82-88.47-75.56-13.54-12-28-22.96-42.09-34.33-3.11-2.51-6.21-4.96-8.21-8.52-3.07-5.47-.32-8.51,4.62-10.05,5.48-1.7,10.98-1.38,16.15,1.46,1.09,1.2,2.17,2.41,3.26,3.61-2.69,9-.03,15.69,7.65,21.36,16.41,12.1,30.2,27.42,47.17,38.88,1,.66,1.91,1.43,2.79,2.25,4.69,4.7,9.23,9.57,14.78,13.31.88.77,1.63,1.65,2.3,2.6,1.51,2.65,3.6,4.72,6.25,6.24.97.65,1.86,1.39,2.71,2.19,10.49,10.32,20.77,20.86,31.29,31.14,1.51,1.47,4.02,2.47,3.28,5.37Z" style="fill: #162587; stroke-width: 0px;"/>
  <path d="M824.94,249.05c-4.27.05-8.54.1-12.82.16-5.53.09-8.59,2.52-7.96,8.42-9.68-7.89-19.35-15.79-29.03-23.68-.06-.65-.12-1.3-.18-1.95,7.53-6.46,17.38-7.07,26.16-10.39,7.94,9.14,15.88,18.29,23.82,27.43Z" style="fill: #3b448a; stroke-width: 0px;"/>
  <path d="M800.75,278.33c-9.82-6.59-19.99-12.71-29.37-19.88-17-12.99-36.43-21.73-54.71-32.49-3.09-1.82-6.06-3.85-8.77-6.62,11.88-1.18,22.2,3.98,32.87,7.59,16.24,16.03,35.26,28.66,52.63,43.29,2.76,2.33,4.91,5.38,7.35,8.1Z" style="fill: #478ce7; stroke-width: 0px;"/>
  <path d="M920.67,377.74c-1.11-.02-2.22-.03-3.33-.05-1.71-2.26-3.42-4.52-5.13-6.79,4.33.41,6.41,3.6,8.46,6.83Z" style="fill: #478ce7; stroke-width: 0px;"/>
  <path d="M807.58,283.46c-3.43-.14-5.29-2.39-6.79-5.1,3.47.1,5.33,2.32,6.79,5.1Z" style="fill: #478ce7; stroke-width: 0px;"/>
  <path d="M901.82,331.54c-.56-.6-1.12-1.19-1.69-1.79-4.42-5.37-9.85-9.59-15.4-13.68-.58-.57-1.17-1.14-1.75-1.72-6.48-6.63-6.56-6.9-3.77-11.92,18.98,15.24,37.67,30.85,57,45.63,47.33,36.2,97.4,67.95,152.39,91.42-2.06,5.86-6.83,3.46-10.6,3.21-17.57-1.18-32.35-10.01-47.77-17.34-26.63-12.66-50.85-29.09-74.49-46.42-13.53-9.92-26.07-21.13-38.22-32.73-2.26-2.16-4.29-4.59-7.09-6.12l-1.76-1.71c-2.7-1.86-4.95-4.17-6.86-6.82Z" style="fill: #0e0a41; stroke-width: 0px;"/>
  <path d="M910.44,340.07c10.73,5.47,18.69,14.52,27.81,22.01,24.46,20.06,49.95,38.61,77.79,53.57,14.24,7.65,28.35,15.98,43.79,21.08,9.19,3.04,18.77,6.38,28.78,2.76,7.49,2.81,14.98,5.62,22.47,8.43-9.67,7.58-20.65,4.31-30.95,2.89-20.79-2.87-39.34-12.22-57.48-22.28-8.42-4.67-16.84-9.37-24.79-14.84h0c-7.85-5.92-15.95-11.49-24-17.14h0c-4.62-3.35-9.27-6.67-13.72-10.26-1.72-1.15-3.44-2.29-5.16-3.44-2.36-1.61-4.43-3.61-6.84-5.15-.58-.57-1.15-1.14-1.73-1.71-12.6-11.38-24.71-23.24-35.99-35.94Z" style="fill: #131a64; stroke-width: 0px;"/>
  <path d="M879.22,302.44c-1.82,4.95,2.83,7.84,3.77,11.92-8.8-2.59-14.35-9.81-20.89-15.35-10.52-8.92-20.74-18.18-31.7-26.58-6.49-4.98-7.34-13.63-2.2-19.75,17.01,16.59,34.02,33.18,51.02,49.77Z" style="fill: #131a64; stroke-width: 0px;"/>
  <path d="M997.87,413.7c14.37,7.47,28.65,15.12,43.13,22.37,18.06,9.04,37.03,14.45,57.5,13.73,4.33-.15,8.47-.74,12.59-1.88,1.88-.1,3.64.2,5.08,1.55-2.6,5.95-8.27,4.86-12.98,5.28-14.96,1.32-29.22-2.34-43.29-6.9-20.97-6.8-39.06-19.24-58.12-29.78-1.62-.89-2.62-2.88-3.91-4.37Z" style="fill: #162587; stroke-width: 0px;"/>
  <path d="M936.15,943.23c-1.2,9.62-4.05,18.88-7.96,27.61-6.38,14.22-12.6,28.62-22.28,41.09-1.83,2.35-3.93,5.55-1.03,7.44,3.95,2.58,5.12-1.85,6.56-4.41,7.9-14.08,19.94-25.6,25.23-41.36.97-2.88,4.35-4.94,8.24-9.13-2.6,16.71-8.93,29.33-15.93,41.5-5.13,8.92-9.58,18-13.73,27.41-3.72,8.45-9.76,15.91-15,23.66-16.11,23.83-34.92,45.52-54.62,66.34-19.38,20.48-41.51,37.81-65.04,53.41-37.79,25.06-78.35,44.25-121.87,56.68-37.57,10.74-76.12,16.05-115.26,14.71-40.36-1.38-80.23-6.06-118.97-18.65-47.31-15.38-90.81-37.96-130.46-67.8-18.6-14-37.21-28.16-52.98-45.56-29.86-32.96-56.98-67.72-77.89-107.35-22.09-41.87-38.02-85.77-48.32-131.77-4.76-21.28-8.02-42.9-8.19-64.86-.09-11.36-1.98-22.61-1.78-34.05.55-32.17,3.93-64.01,10.86-95.38,2.44-11.04,6.96-21.63,10.7-32.37.81-2.33,1.9-5.34,5.13-4.86,3.76.56,2.55,3.99,2.5,6.28-.56,24.51-.77,49.08-.48,73.52.34,28.26.24,56.62,4.93,84.95,4.89,29.58,12.6,58.18,20.89,86.8,1.64,5.66,3.01,5.01,6.34,1.74,6.5-6.4,13.13-12.66,19.7-18.98,7,4.35,4.99,12.73,8.38,18.7,11.98,38.61,28.17,75.29,49.62,109.64,20.68,33.11,44.89,63.37,73.55,89.81,60.49,55.82,131,91.81,212.61,104.81,66.05,10.52,129.32,1.77,190.24-26.69,59.18-27.65,108.11-67.45,148.35-118.51,11.68-14.82,22.34-30.32,32.03-46.5,11.85-18.62,20.47-38.85,29.44-58.92,1.48-3.3,1.2-8.26,6.47-8.96Z" style="fill: #6b96e4; stroke-width: 0px;"/>
  <path d="M936.15,943.23c-10.12,21.67-18.86,44.01-31.32,64.54-.86,1.42-1.96,2.7-2.95,4.04-5.85-2.73-2.35-6.59-.78-9.64,11.09-21.55,21.38-43.4,27.59-66.97,1.53-5.8,3.08-11.51,3.67-17.52.98-9.92,3.21-19.6,5.59-29.31,4.66-18.98,3.94-38.42,2.33-57.74-.89-10.66-9.5-16.22-20.13-13.92-36.68,7.94-73.06,5.08-109.14-3.69-13.92-3.38-21.11-13.64-21.22-28.18-.05-6.27-.44-12.63,2.23-18.53,1.45-3.19,2.42-7.32,7.53-6.27,4.16,6.72.24,14.57,3.02,21.47,3.21,10.45,10.7,15.81,21.1,17.61,27.22,4.7,54.67,3.41,82,2.17,14.36-.65,22.1-10.73,22.94-25.18.62-10.7-.51-21-4.98-30.82,1.68-3.53,5.32-2.77,8.17-3.63,5.19-1.56,7.52-4.79,6.72-10.24-2.71-18.35-5.35-36.67-12.33-54.1-7.3-18.24-10.8-37.9-21-55.07-22.6-38.02-42.12-77.74-63.56-116.4-7.5-13.52-19-23.45-29.76-34.02-25.98-25.55-55.19-47.07-87.13-64.32-36.82-19.88-75.79-34.42-117.76-39.45-18.39-2.2-36.71-5.08-55.3-5.27-31.69-.32-62.13,5.86-92.52,14.66-46.14,13.36-87.32,35.47-125.82,63.77-28.32,20.83-52.81,45.59-74.78,72.49-19.5,23.88-32.01,52.16-43.15,81.17-9.28,24.15-13.45,49.46-20.8,74-6.59,22-9.15,45.27-10.14,68.41-.31,7.35-.61,16.21,7.93,19.05,8.14,2.71,14.59-2.89,19.97-8.75,4.77-5.19,8.88-11.41,17.33-10.54,2.4,3.24-.48,5.95-.86,8.92-2.19,5.12-.96,10.79-2.57,16-.58,1.62-1.4,3.12-2.07,4.7-4.61,10.87-1.32,18.48,9.07,23.81,16.37,8.4,34.27,7.97,51.77,9.73,13.69,1.38,27.34-.93,40.99-1.88,4.27-.29,8.32-1.95,11.73-4.75,10.37-5.72,16.14-14.57,17.75-26.23,1.03-3.84.31-7.63-.22-11.44-.42-3-.85-6.05,1.65-8.51,4.13-1.14,5.85,1.84,7.04,4.67,8.73,20.66,8.7,43.33-18.44,53.3-14.44,5.31-28.79,8.25-44.16,8.57-32.13.66-63.81-1.82-94.97-10.01-6.43-1.69-12.42,2.39-14.45,9.98-2.59,9.68-4.39,19.88-3.23,29.62,1.65,13.83,1.28,27.94,5.15,41.55,1.29,4.52,2.23,9.59-1.6,13.8-4.06-5.7-3.23-13.16-6.84-19.02-7.39-30.44-13.36-61.09-13.84-92.57-2.28-4.08-2.08-8.81-3.46-13.14-1.74-10.63,1.25-20.94,2.05-31.4.02-1.03.05-2.05.07-3.08,1.77-3.35-.26-7.18,1.36-10.55.56-11.51,1.12-23.02,1.68-34.53.37-3.91-.37-7.99,1.71-11.65,3.45-14.94,6.9-29.87,10.36-44.81-2.1-9.87,3.14-18.31,5.91-27,24.3-76.17,67.15-140.48,126.18-194.05,13.9-12.61,29.01-23.94,44.87-34.13,2.65-1.7,5.3-3.37,8.41-4.11,17.3-4.93,34.44-10.35,51.2-16.91,32.65-12.78,66.6-19.27,101.44-22.81,29.83-3.03,59.46-.6,88.72,2.9,31.99,3.83,62.85,13.97,92.88,26.27,37.92,15.53,71.8,37.73,103.03,63.57,27.9,23.08,54.47,48.37,74.66,78.56,14.82,22.15,25.73,46.97,37.43,71.12,11.87,24.48,18.12,51.06,29.49,75.72,4.37,9.49,5.62,20.31,10.5,29.77,2.57,13.62,5.22,27.22,5.92,41.1-.19,3.25-.19,6.49.9,9.63.51,2.33.72,4.68.74,7.06-.09,4.81-.32,9.62,1.24,14.29,1,9.13,1.06,18.26,0,27.39-1.58,4.8-1.35,9.75-1.1,14.69-1.09,32.01-6.56,63.35-14.3,94.35-.62,2.49-1.38,4.96-3.73,6.5-4.55,13.73-9.1,27.46-13.64,41.19Z" style="fill: #cacbd0; stroke-width: 0px;"/>
  <path d="M370.28,380.97c-18.59,10.02-35.13,23.11-50.67,37.06-46.05,41.35-82.56,90.08-108.33,146.52-10.83,23.72-19.07,48.42-25.89,73.58-5.61-1.67-3.28-6.02-2.67-9.2,2.63-13.56,5.43-26.88,11.32-39.79,4.55-10,4.87-21.95,6.87-33.06.38-2.14.52-5.11-2.27-5.74-2.14-.49-3.25,1.91-4.34,3.56-1.25,1.9-2.59,3.76-3.68,5.75-5,9.18-9.48,18.6-14.82,27.66-5.09,8.65-8.08,19.02-12.35,28.49-1.08,2.4-1.7,4.59-5.82,6.89,2.16-12.46,3.74-23.47,6.01-34.33,6.92-33.15,16.57-65.47,30.88-96.26,2.39-5.15,5.21-10.13,8.21-14.96,17.02-27.43,36.73-52.9,60.46-74.7,24.72-22.71,51.86-42.37,81.27-58.96,34.31-19.36,71.06-31.88,108.96-41.43,15.67-3.95,31.88-4.86,47.91-6.8,17.67-2.14,35.31-1.76,52.92-1.31,33.32.85,66.03,6.24,98.05,15.64,40.99,12.04,79.56,29.5,114.96,53.33,38.88,26.18,73.59,56.93,102.67,94.17,22.36,28.64,42.3,58.61,58.01,91.28,15.69,32.63,27.93,66.51,36.13,101.93,7.57,32.74,12.51,65.58,13.47,99.26,1.52,53.59-4.69,105.81-22.87,156.4-.38,1.05-.99,2.02-1.92,3.9-1.15-3.05-2.05-5.43-2.95-7.8,4.81-22.91,10.55-45.65,12.95-69,1.1-10.7,1.9-21.43,2.83-32.14,1.62-4.49-.43-9.31,1.23-13.79,0-9.57,0-19.14,0-28.71-1.66-4.49.4-9.31-1.23-13.8-.19-2.35-.38-4.7-.57-7.05-1.45-2.66.57-5.9-1.43-8.46,0-14.52-4.57-28.48-5.33-42.9-8.25-26.08-13.35-53.07-22.96-78.78-4.08-10.91-10.37-21.02-12.11-32.78,3.65-4.85,5.08,1.92,8.43,1.45-1.91-3.63-2.16-10.18-7.84-2.75-7.72-6.01-10.55-14.55-12.26-23.67,2.91-2.94,4.83,1.75,7.94.89-1.98-10.23-9.66-17.32-13.84-26.21,2.12,3.71,2.4,7.37.08,11.13-4.28,1.06-5.29-2.5-6.79-5.03-21.89-37.06-48.51-70.33-79.93-99.71-8.52-7.97-17.58-15.37-26.75-22.62-2.66-2.1-6.72-3.82-4.75-8.64,9.34.71,14.54,8.2,21.16,13.21,22.18,16.76,41.47,36.54,59.3,57.81,1.24,1.48,2.54,3.11,5.38,3.65-18.66-23.27-36.86-45.97-58.72-65.83-19.58-17.78-40.38-33.57-62.77-47.31-44.73-27.44-92.6-46.68-144.69-55.12-24.57-3.98-49.18-6.96-74.04-6.38-54.61,1.27-106.81,13.01-156.41,36.42-33.6,15.86-64.49,35.77-91.19,61.43-16.38,15.75-32.47,32.15-44.61,51.74-1.64,2.65-3.26,5.38-3.47,9.43,4.18-.77,6.24-3.99,8.6-6.44,19.41-20.21,41.16-37.74,63.18-54.92,27.69-21.6,59.3-36.2,90.95-50.83,20.68-9.55,42.26-15.51,64.5-19.56,3.76-.68,9.32-2.5,10.34,2.35.84,3.98-4.84,4.69-8.27,5.86-4.74,1.61-10.08,1.9-13.49,6.36-8.32,6.35-18.59,8.33-27.98,12.2-19.01,7.83-36.17,19.28-54.96,27.46Z" style="fill: #5778d2; stroke-width: 0px;"/>
  <path d="M170.21,742.73c.01,10.78.03,21.56.04,32.35,1.05,3.51,1.25,7.01-.14,10.49-3.23-.2-4.46-2.7-4.75-5.17-1.5-12.93.77-25.42,4.85-37.66Z" style="fill: #5778d2; stroke-width: 0px;"/>
  <path d="M175.03,682.93c.52,4.04,1.02,8.08-1.71,11.65-2.21-4.29-2.91-8.36,1.71-11.65Z" style="fill: #5778d2; stroke-width: 0px;"/>
  <path d="M170.11,785.57c.05-3.49.1-6.99.14-10.49,2.47,3.84,1.2,8.1,1.37,12.19-.51-.57-1.01-1.14-1.51-1.71Z" style="fill: #6b96e4; stroke-width: 0px;"/>
  <path d="M171.65,729.1c-.06,3.57.89,7.26-1.36,10.55.25-3.54-1.4-7.33,1.36-10.55Z" style="fill: #6b96e4; stroke-width: 0px;"/>
  <path d="M1065.83,784.6c-4.23-7.71-6.65-15.46-6.39-24.3.65-22.29-5.41-43.79-8.56-65.63-5.4-37.51-15.52-73.83-28.17-109.47-15.66-44.11-35.47-86.24-60.58-125.84-8.52-13.44-16.39-27.29-24.43-41.04-1.22-2.09-3.89-4.72-2.14-6.85,2.27-2.74,5.72-.13,7.72,1.08,5.81,3.51,11.25,7.68,16.57,11.93,21.81,17.43,39.81,37.97,52.7,63.02,25.01,48.61,43.26,99.53,53.22,153.3,4.08,22.02,6.29,44.24,8,66.63,1.71,22.35-.19,44.16-2.2,66.17-.41,4.48-1.56,8.29-5.77,11Z" style="fill: #9fbcf0; stroke-width: 0px;"/>
  <path d="M973.87,396.56c9.17,4.08,17.22,9.72,24,17.14-9.12-4.15-17-10.02-24-17.14Z" style="fill: #162587; stroke-width: 0px;"/>
  <path d="M960.16,386.3c5.49,2.19,10.18,5.46,13.72,10.27-5.75-1.85-10.47-5.07-13.72-10.27Z" style="fill: #162587; stroke-width: 0px;"/>
  <path d="M948.16,377.72c3.46.15,5.35,2.39,6.84,5.15-3.47-.14-5.34-2.4-6.84-5.15Z" style="fill: #162587; stroke-width: 0px;"/>
  <path d="M884.74,316.07c6.68,2.82,13.11,5.92,15.4,13.68-6.57-2.95-11.15-8.12-15.4-13.68Z" style="fill: #131a64; stroke-width: 0px;"/>
  <path d="M901.82,331.54c3.04,1.52,5.32,3.8,6.86,6.82-3.97-.59-6.24-2.87-6.86-6.82Z" style="fill: #131a64; stroke-width: 0px;"/>
  <path d="M798.8,759.79c-16.37,19.3-7.17,46.01,16.71,51.97,18.91,4.71,38.15,6.94,57.18,7.08,15.55.12,31.78,1.22,47.22-4.46,11.56-4.25,22.58,4.03,23.12,16.35,1.05,24.07-.71,47.53-5.69,71.48-4.63,22.27-8.26,44.65-17.26,65.51-5.12,11.85-9.53,24.19-16.74,35.14-1.69,2.57-5.06,5.32-1.45,8.94-23.91,41.74-54.59,77.84-91.15,108.97-43.61,37.13-93.14,63.15-148.3,78.63-36.19,10.15-72.86,11.44-110.08,8.13-65.7-5.83-125.66-27.73-180.57-63.67-45.82-29.99-84.16-67.9-115.73-112.65-27.29-38.69-47.62-80.83-62.47-125.69-.7-2.13-.86-4.44-1.28-6.66,1.59-10.45-3.11-20.08-3.93-30.23-1.52-18.72-3.36-37.42.69-56.06,1.72-7.92,11.33-13.17,18.96-10.71,15.98,5.17,32.82,7.62,49.2,8.49,31.8,1.69,64.41,5.69,94.5-10.23,7.95-4.21,13.87-10.37,14.51-19.69.81-11.79.93-23.68-9.02-32.63-1.7-.6-2.97-1.81-3.78-3.31-6.39-11.85-16.93-14.93-29.49-14.76-21.07.28-42.15.2-63.22.02-9.3-.08-18.23.51-25.8,6.8-1.31,1.09-2.97,1.69-4.79,1.09-6.03,1.41-10.66,4.7-14.5,9.63-3.09,3.96-6.83,7.12-11.5,9.78-12.06,6.87-20.72,1.16-21.98-14.21-1.17-14.31,2.78-28.19,3.98-42.3,2.33-27.34,11.52-53.23,18.62-79.33,9.43-34.68,22.87-68.19,44.61-97.89,25.46-34.78,55.81-64.03,90.53-89.45,22.45-16.43,46.75-28.73,71.47-41.07,28.65-14.3,59.12-21.69,89.78-28.11,28.96-6.06,58.47-3.96,88.13-1.35,43.27,3.81,83.14,17.72,122.44,34.35,10.68,4.52,20.78,10.49,30.27,17.41,15.35,11.21,32.38,19.98,46.65,32.78,25.84,23.19,51.6,45.85,67.22,78.41,17.21,35.87,39.11,69.5,55.91,105.54,13.73,29.45,24.7,60.48,27.88,93.44.35,3.66,2.57,7.15,1.54,10.89-2.42,8.79-9.61,8.37-16.57,8.24-1.52.12-2.86-.38-4.1-1.2-4.08-2.84-8.72-4.65-13.57-4.56-25.82.48-51.51-3.98-77.48-.9-13.06,1.55-21.93,6.63-27.4,18.24-.73,1.54-1.64,3-3.27,3.8Z" style="fill: #dfdfe0; stroke-width: 0px;"/>
  <path d="M889.89,1044.36c1.1-5.69,4.62-10.29,6.94-15.43.7-1.55,1.94-3.45,3.77-2.4,2.04,1.17,1.73,3.81.45,5.25-3.72,4.19-5.79,9.86-11.14,12.59h-.02Z" style="fill: #6295e7; stroke-width: 0px;"/>
  <path d="M889.9,1044.37c-.96,5.84-4.47,9.69-10.42,13.34,1.47-7.16,6.27-10,10.41-13.36,0,0,.02.01.02.01Z" style="fill: #6295e7; stroke-width: 0px;"/>
  <path d="M871.82,1069.71c-.63,3.54-3.04,5.25-6.23,7.49-.14-5.64,3.88-5.71,6.23-7.49Z" style="fill: #6295e7; stroke-width: 0px;"/>
  <path d="M370.28,380.97c19.34-13.61,40.56-23.65,62.34-32.59,6.76-2.78,13.52-5.54,20.29-8.31,12.24-6.22,25.39-9.74,38.71-12.52,25.43-5.31,50.97-10.05,77.14-8.63,59.59,3.23,115.73,18.62,168.2,47.34,14.8,8.11,28.93,17.19,42.82,26.69,2.79,1.91,5.8,3.74,6.94,7.28,17,15.14,34.96,29.17,50.73,45.73,24.47,25.7,45.79,53.7,63.67,84.34,1.13,1.93,2.65,3.62,4,5.43,4.38,3.38,6.32,8.06,7.09,13.36,3.42,8.31,7.01,16.53,11.87,24.13l-.02-.06c11.97,29.53,23.49,59.2,29.95,90.55,1.54,7.46,2.85,14.97,4.26,22.46-8.07-10.18-8.17-23.37-13.18-34.8-12.66-28.86-20.24-59.94-36.05-87.38-11.34-19.69-18.64-41.59-32.93-59.6-3.7-4.67-7.05-9.77-11.42-13.73-14.15-12.79-26.11-27.66-40.02-40.75-21.46-20.21-45.04-37.31-69.72-53.05-39.29-25.06-82.54-40.12-127.82-50.02-19-4.16-38.37-3.54-57.49-5.55-19.47-2.04-38.82-1.57-57.76.93-31.72,4.18-63.14,10.63-92.99,23.23-15.67,6.61-31.99,11.63-48.6,15.52Z" style="fill: #b9b9bf; stroke-width: 0px;"/>
  <path d="M230.14,737.63c7.56-8,16.93-10.77,27.78-10.59,23.4.39,46.81.48,70.21.38,14.69-.06,24.37,6.48,29.08,20.38-1.33,6.9,3.84,13.85-.18,20.72-13.82,13.25-30.68,13.99-48.55,12.93-16.78-.99-33.67-.21-50.51-.22-3.14,0-6.28.07-9.41-.21-14.22-1.26-19.49-6.77-20.85-21.12-.48-5.08,1.12-10.21-.56-15.22,1-2.36,2-4.71,2.99-7.07Z" style="fill: #5e8ce2; stroke-width: 0px;"/>
  <path d="M798.8,759.79c4.12-16.38,12.27-22.44,29.4-24.27,26.48-2.83,52.85.51,79.26.61,5.57.02,11.32,1.32,14.88,6.66-4.05,3.27-6.02,7.14-4.78,12.61.95,4.15.71,8.51.19,12.76-1.36,11.14-8.23,18.97-19.29,19.42-27.02,1.11-54.07.58-81.11.28-6.28-.07-10.45-5.9-16.75-5.65-3.42-7.25-.59-15-1.81-22.43Z" style="fill: #6b97e6; stroke-width: 0px;"/>
  <path d="M800.61,782.22c.37-3.71,1.27-7.02,5.24-2.56,4.66,5.24,10.42,6.08,16.97,6.02,22.21-.21,44.45-.83,66.62.1,24.34,1.02,28.76-13.3,25.29-32.29-1.29-7.05-.98-11.4,7.61-10.69.76.54,1.52,1.07,2.28,1.61,8.94,11.79,7.87,25.38,5.77,38.57-1.93,12.11-11.49,20.52-24.75,21.02-28.45,1.06-57.03,2.6-85.24-3.02-10.2-2.03-17.43-8.03-19.79-18.74Z" style="fill: #3c65cd; stroke-width: 0px;"/>
  <path d="M227.15,744.7c2.08.21,2.91,1.49,2.92,3.45.02,2.84.01,5.69.04,8.53.14,16.89,5.05,21.95,21.71,22.02,19.62.09,39.23.12,58.85,0,6.44-.04,12.81.81,19.35.29,7.52-.59,13.72-2.45,18.76-8.26,1.99-2.29,4.25-6.21,8.25-2.22-.81,11.88-6.57,20.45-17.21,25.77-6.52,3.21-13.41,4.26-20.67,4.16-21.33-.3-42.67.74-63.95-1.74-9.69-1.13-18.25-3.86-24.79-11.57-5.88-6.94-9.21-14.35-5.67-23.49.74-5.66-.75-11.64,2.4-16.95Z" style="fill: #3860cb; stroke-width: 0px;"/>
  <path d="M224.75,761.65c-.27,21.57,14.19,32.13,34.09,33.03,17.37.79,34.73,1,52.09,1.22,9.67.12,19.32-.08,28.9-1.61-3.14,4.83-8.46,5.84-13.34,6.5-25.68,3.47-51.37,2.39-76.84-1.85-8.6-1.43-16.74-5.4-24.32-9.88-7.27-4.3-7.35-16.83-.58-27.4Z" style="fill: #b3b4c0; stroke-width: 0px;"/>
  <path d="M966.81,787.1c-.25,4.61,1.6,9.41-1.23,13.79.16-4.62-1.2-9.38,1.23-13.79Z" style="fill: #6295e7; stroke-width: 0px;"/>
  <path d="M965.57,744.58c2.79,4.39,1,9.19,1.23,13.8-2.36-4.43-1.16-9.17-1.23-13.8Z" style="fill: #6295e7; stroke-width: 0px;"/>
  <path d="M963.58,729.07c2.56,2.47,1.47,5.55,1.43,8.46-2.39-2.5-1.13-5.61-1.43-8.46Z" style="fill: #b9b9bf; stroke-width: 0px;"/>
  <path d="M786.72,400.24c-24.89-17.1-50.41-33.1-78.11-45.38-40.91-18.14-83.5-28.59-128.26-32.44-44.15-3.8-85.71,6.49-127.44,17.65,4.09-5.02,4.06-5.12,11.2-6.76,3.5-.81,7.05-1.29,10.72-4.4-7.63-2.13-13.87.6-19.93,1.8-24.38,4.85-47.08,14.39-69.62,24.82-27.23,12.61-53.71,26.43-77.06,45.21-15.39,12.39-31.62,23.84-45.31,38.48-6.52,6.97-13.81,13.52-20.97,20.03-2.06,1.87-4.62,4.72-7.26,3.03-2.69-1.73.02-4.79.78-6.97,3.93-11.25,11.74-20.39,19.35-28.86,20.31-22.59,41.45-44.56,66.8-61.76,26.5-17.98,54.95-32.24,84.85-43.69,29.87-11.44,60.86-18.49,92.52-21.79,35.41-3.69,70.66-1.68,106,4.09,43.5,7.09,84.3,21.15,122.99,41.64,30.95,16.38,59.51,36.06,85.76,59.65,22.62,20.33,41.07,43.96,60.74,66.72,1.55,1.79,4.29,4.37,2.15,6.56-2.45,2.51-4.73-.55-6.27-2.33-14.59-16.76-29.83-33.02-46.48-47.6-11.53-10.1-22.62-21.34-37.13-27.66Z" style="fill: #446cd2; stroke-width: 0px;"/>
  <path d="M912.2,549.1c-2.95-4.14-5.55-8.47-7.08-13.36,1.04-5.66-.49-10.96-2.48-16.31,7.62,8.53,14.29,17.46,18.34,28.06.89,2.32,2.88,5.44.58,7.06-3.23,2.28-4.38-2.23-6.59-3.52-.97-.57-1.85-1.28-2.77-1.93Z" style="fill: #446cd2; stroke-width: 0px;"/>
  <path d="M898.21,510.8c-10.29-3.89-13.01-12.28-17.03-20.63,9.29,1.7,12.79,5.99,17.03,20.63Z" style="fill: #446cd2; stroke-width: 0px;"/>
  <path d="M924.06,573.23c.72-2.58-1.47-6.4,1.69-7.64,2.76-1.09,4.27,2.15,5.32,4.38,1.5,3.21,4.75,6.28,2.65,10.14-1.17,2.16-2.89.22-4.11-.81-2.13-1.79-2.41-5.27-5.57-6.13,0,0,.02.07.02.07Z" style="fill: #446cd2; stroke-width: 0px;"/>
  <path d="M539.8,666.31c16.11-1.45,32.05-5.27,48.4-3.68-.55,3.34-1.74,6.05,2.99,8.43,23.08,11.64,40.56,28.94,50.85,52.99.67,1.57,1.5,3.06,2.3,4.57,5.83,11.1,7.57,11.37,16.44,3.03,2.37-2.23,4.25-5.58,8.39-4.89,13.22,38.84,8.25,74.77-17.19,107.42-1.22,1.56-2.4,3.15-3.6,4.73-7.42,12.32-19.92,17.92-31.93,24.19-13.79,6.29-28.69,6.81-43.39,8.36-2.62.28-5.11-.36-6.92-2.55-.61-6.49,5.18-5.95,8.58-6.99,16.67-5.08,29.93-15.04,41.29-27.81,3.15-3.54,8.48-8.03,6.21-12.22-2.57-4.74-8.72-.66-13.26-.23-7.52.71-14.08,4.31-20.8,7.46-16.95,7.96-34.32,13.96-53.56,10.91-28.44-4.51-47.79-21.39-61.6-45.53-4.94-8.64-9.03-17.78-13.46-26.88-.01,2.52.94,5.38-2.63,6.23-4.55-4.08-3.08-9.43-2.61-14.3.9-9.28,2.54-18.48,4.97-27.5,12.52-32.26,33.78-55.3,68.05-64.84,4.23-1.18,8.28-1.3,12.5-.92Z" style="fill: #df5066; stroke-width: 0px;"/>
  <path d="M669.17,726.77c-3.76,3.47-7.84,6.65-11.2,10.47-4.61,5.24-8.42,3.99-11.61-.97-2.76-4.29-4.99-8.95-7.11-13.61-10.36-22.71-27.17-39.18-49.4-49.95-6.75-3.27-6.11-5.91-1.65-10.09,17.66-15.43,32.32-33.76,48.7-50.44,18.38-18.72,35.95-38.23,54.19-57.09,12.28-12.7,23.92-26,37.18-37.81,12.45-11.09,26.13-12.94,40.29-6.09,16.7,8.09,28.86,21.57,35.09,39.12,5.88,16.55-.78,30.41-11.91,42.89-26.56,29.8-54.02,58.77-80.93,88.24-13.83,15.14-29.26,28.83-41.62,45.31Z" style="fill: #eeb552; stroke-width: 0px;"/>
  <path d="M539.8,666.31c-35.53,7.01-61.59,25.93-75.62,60.04-.63,1.54-1.89,2.82-2.86,4.22-3.32,1.01-4.43-1.83-6.08-3.59-27.53-29.23-54.27-59.17-80.55-89.52-7.12-8.23-13.51-16.82-12.52-28.62,1.06-26.23,22.84-52.56,47.01-56.96,10.17-1.85,19.28.5,27.14,6.95,18.13,14.88,32.83,33.16,48.91,50.06,16.67,17.53,32.77,35.61,49.2,53.37,1.5,1.62,3.57,2.71,5.38,4.05Z" style="fill: #edb354; stroke-width: 0px;"/>
  <path d="M362.17,608.83c2.08,13.92,10.79,24.1,19.67,33.99,26.37,29.36,52.97,58.52,79.48,87.75-1.35,8.57-2.8,17.13-4.01,25.73-.82,5.81-1.8,11.69.6,17.42,1.56,1.1,1.92,2.78,2.11,4.49,3.14,28.48,16.78,51.08,38.67,69.05,1.55,1.27,3.01,2.62,4.22,4.23,11.9,18.72,30.45,23.18,50.89,24.5,12.59.81,24.93.78,37.33-1.88,10.04-2.15,19.02-5.9,26.24-13.36,11.46-5.69,21.51-13.37,31.01-21.84-3.67,20.18-13.94,35-32.73,44.61-27.46,14.04-56.56,18.98-86.69,16.57-21.26-1.7-43.38-.87-62.94-12-10.53-6-19.45-13.85-24.87-24.93-9.1-18.64-12.5-38.69-13.93-59.16-.89-12.73-.53-25.65-2.59-38.18-2.97-18.04-12.63-33.53-23.41-47.82-12.97-17.19-26.73-33.88-41.21-49.82-12.7-13.98-11.37-34.99-6.24-48.09,1.87-4.78,8.17-5.66,8.4-11.26Z" style="fill: #cbc9ca; stroke-width: 0px;"/>
  <path d="M545.29,501.21c-2.22-2.39-1.54-5.4-1.55-8.17-.09-24.55-.19-49.11-.05-73.66.07-12.2,2.38-24.16,15.04-29.26,14.71-5.93,30.14-7.43,44.18,2.17,6.36,4.35,9.41,11.48,9.44,19.29.11,28.5.11,56.99-.08,85.49-.04,6.02-1.44,11.87-6.34,16.15-13.86-3.25-28.02-2.62-42.08-3.43-5.82-.34-10.91-3.4-14.25-8.38-1.69-2.53-2.79-1.98-4.31-.2Z" style="fill: #6a97e6; stroke-width: 0px;"/>
  <path d="M545.27,1121.58c-2.3-2.35-1.59-5.37-1.6-8.12-.04-25.08-.16-50.16.1-75.24.18-17.9,8.01-27.16,25.65-30.66,7.56-1.5,15.29-1.65,22.83.4,11.8,3.21,19.78,12.62,19.91,24.66.3,28.78.23,57.57.06,86.35-.04,6.06-2.21,11.64-7.02,15.81-10.67-5.29-22.05-6.53-33.76-5.92-7.85.41-15.28-.46-20.88-6.89-1.63-1.87-3.44-1.54-5.3-.39Z" style="fill: #5e8de3; stroke-width: 0px;"/>
  <path d="M545.27,1121.58c.27-1.94.54-3.89,1.19-8.51,8.95,17.1,23.39,12.89,36.57,13.73,7.93.5,16.78-.15,22.18,7.98-9.53,10.52-21.74,13.44-34.76,9.88-11.84-3.23-23.03-8.6-25.17-23.08Z" style="fill: #3155cb; stroke-width: 0px;"/>
  <path d="M545.29,501.21l.65-7.3c6.78,15.27,19.91,14.45,32.94,14.08,9.37-.26,18.85-.73,27.05,5.22-10.37,15.48-47.16,13.27-56.82-1.94-2-3.15-4.04-6.14-3.82-10.07Z" style="fill: #4d6dce; stroke-width: 0px;"/>
  <path d="M501,852.02c-21.64-16.3-35.87-37.38-41.91-63.98-1.1-4.83-.72-9.56-1.18-14.32.22-2.98.44-5.96.67-8.94.54-.17,1.08-.34,1.62-.51,5.03,10.05,9.52,20.42,15.19,30.1,15.98,27.23,38.64,44.4,71.52,44.24,15.06-.07,29.08-5.31,42.11-12.41,10.3-5.61,21.42-7.56,32.61-8.95,7.51-.93,4.51,5.12,3.1,8.1-4.6,9.75-12.76,16.57-20.69,23.54-10.95,9.62-24.79,13.36-37.8,18.79-4.88,4.25-10.84,2.77-16.24,2.46-18.09-1.04-35.3-4.93-48.99-18.11Z" style="fill: #ca2843; stroke-width: 0px;"/>
  <path d="M503.99,699.38c6.7-8.2,14.87-13.75,24.99-15.26,23.36-3.49,46.54-.88,68.96,5.52,18.58,5.31,27.31,21.52,34.49,37.82,4.44,10.08,7.68,20.84,7.24,32.21-.05,1.42.24,2.96-.18,4.26-1.79,5.53-1.83,13.36-8.9,14.19-7.14.84-8.13-6.56-10.09-11.8-6.48-17.28-12.43-34.67-25.04-49-12.71-14.44-28.2-22.82-47.17-24.15-15-1.05-30.08-.96-44.3,6.21Z" style="fill: #e88091; stroke-width: 0px;"/>
  <path d="M501,852.02c20.08,12.12,41.69,17.9,65.23,15.65,14.21,2.87,27.83-.67,41.47-3.83,3.28-.76,6.45-2.04,9.67-3.08-2.03,7.72-8.6,10.74-15.01,12.67-27.34,8.22-54.57,7.93-81.5-2.36-9.43-3.6-14.47-11.42-19.85-19.05Z" style="fill: #b8b4b7; stroke-width: 0px;"/>
</svg>