<?xml version="1.0" encoding="UTF-8"?>
<svg id="Layer_1" data-name="Layer 1" xmlns="http://www.w3.org/2000/svg" viewBox="0 0 1236.19 1219.43">
  <path d="M26.56,861.96c-9.8-24.1-15.37-49.35-19.97-74.83C.16,751.47-.85,715.45.56,679.39c1.82-46.68,10.21-92.34,23.19-137.16,13.2-45.59,31.33-89.18,53.64-131.04,25.76-48.31,56.46-93.23,91.71-135.15,42.99-51.13,91.51-96.29,145.51-135.47,44.44-32.24,91.67-59.78,142.04-81.92,42.02-18.47,85.21-33.15,129.96-43.32,31.87-7.24,64.12-11.5,96.72-13.95,32.24-2.42,64.37-1.57,96.35,2.09,57.7,6.59,112.84,22.11,164.04,50.21.88.48,1.61,1.22,2.41,1.84-3.14,3.3-6.77,2.01-10.02.62-22.11-9.48-45.37-15.52-68.34-22.18-24.22-7.02-49.11-11.62-74.4-13.3-2.26-.15-4.49-.31-5.82-.75,6.55,3.48,14.65,4.72,22.63,6.51,35.13,7.86,68.37,21,100.26,37.42,38.05,19.59,71.87,45.29,102.77,74.76,8.74,8.33,16.26,17.95,24.07,27.19,12.13,14.33,23.92,28.81,37.41,42.05,16.98,16.66,29.86,36.79,39.68,58.56,13.64,30.23,23.5,61.71,27.96,94.63,4.33,31.93,6.23,63.93,4.07,96.3-3.02,45.29-11.7,89.27-24.86,132.61-19.13,62.95-48,121.16-84.42,175.71-17.48,26.19-37.73,50.24-58.66,73.75-31.01,34.82-66.08,65.01-103.53,92.57-31.44,23.14-65.61,41.8-99.94,60.16-34.78,18.6-70.06,36.14-106.56,51.19-51.22,21.12-103.97,36.78-158.8,45.06-22.64,3.42-45.37,6.05-68.32,6.2-2.08.01-4.11.27-6.09.89-17.28,2.3-34.48-.42-51.63-1.49-24.93-1.55-49.65-5.58-73.95-11.64-44.28-11.05-86.27-27.45-124.97-52.08-24.27-15.45-46.74-33.01-66.8-53.49-27.37-27.94-50.38-59.2-68.37-94.03-4.49-8.68-10.39-16.6-13.83-25.86-.74-1.99-1.53-5.18-4.3-4.73-2.68.44-2.22,3.67-2.78,5.82-.4,1.5-.64,3.04-2,4.05Z" style="fill: #eeba6c; stroke-width: 0px;"/>
  <path d="M435.18,1094.04c1.52-1.95,3.69-1.48,5.71-1.52,39.62-.73,78.54-6.65,117.07-15.57,48.96-11.33,96-28.27,141.52-49.39,45.03-20.89,88.84-44.1,131.59-69.39,31.05-18.37,59.61-39.93,87.11-63.1,18.13-15.28,35.6-31.3,51.52-48.78,33.75-37.07,64.76-76.23,89.69-120.02,22.35-39.24,41.4-79.89,55.81-122.7,11.48-34.1,20.02-68.99,25.14-104.56,2.29-15.87,3.6-31.97,4.09-48.16.35-11.52,1.26-23.12.83-34.62-2.03-55.42-11.91-109.18-37.74-158.85-11.13-21.39-25.06-40.88-43.65-57.09-10.3-8.98-17.86-21.08-26.81-31.63-14.27-16.81-28.99-33.13-46.07-47.29-16.61-13.78-33.26-27.65-51.74-38.65-23.33-13.89-46.91-27.46-72.89-36.44-22.96-7.93-45.47-17.03-69.74-20.52-5.72-.82-9.93-5.64-15.62-7.05,25.61-1.29,50.28,4.27,74.69,10.07,27.17,6.45,53.98,14.61,79.96,25.07,3.49,1.4,6.81,2.18,10.48,1.63,57.95,29.73,101.58,76.25,144.59,123.46,23.58,25.88,47.15,51.77,67.45,80.41,29.3,41.34,50.15,86.56,62.96,135.55,14.95,57.16,18.08,115.18,12.4,173.77-1.28,13.23-2.04,26.61-5.96,39.48-2.96,4.25-5.27,8.6-2.11,13.79-.81,3.74-.34,7.78-2.54,11.2-3.16,1.05-3.17,1.1-1.74,7.47.11,2.27.48,4.6-1.26,6.51-3.73,1.54-5.08,5.08-6.32,8.33-3.92,10.27-10,19.69-11.44,30.99-.6,4.75-2.92,9.51-5.67,13.45-10.69,15.33-22.37,29.94-33.91,44.65-3.32,4.24-7.76,6.58-13.41,6.48-4.85-.09-8.32,2.04-9.98,6.91-1.26,3.7-4.11,4.79-7.96,4.56-7.9-.47-15.55-.48-23.21,3.11-6.5,3.05-14.09,3.35-21.26,1.49-4.28-1.11-8.04-.84-11.89,1.24-2.73,1.47-5.78,2.25-8.85,2.67-12.26,1.7-21.13,9.03-29.09,17.69-34.16,37.14-68.29,74.25-105.48,108.47-33.87,31.17-70.24,58.87-109.33,83.08-31.6,19.57-64.6,36.5-98.68,51.2-47.85,20.64-96.62,38.77-147.59,50.31-17.07,3.87-33.96,8.71-51.59,9.77-26.04,1.96-51.96,5.53-78.15,4.86-3.77-.1-7.79.66-10.95-2.38Z" style="fill: #efb331; stroke-width: 0px;"/>
  <path d="M526.5,1089.42c26.83-3.13,52.75-10.43,78.77-17.24,40.13-10.51,78.65-25.74,116.58-42.19,28.73-12.47,57.07-25.96,83.92-42.43,17.75-10.89,35.7-21.5,52.69-33.47,24.54-17.3,47.59-36.51,69.91-56.66,19.35-17.46,37.35-36.23,55.71-54.64,12.15-12.18,23.12-25.51,35.04-37.92,6.72-7,13.17-14.27,19.95-21.17,7.54-7.67,16.8-12.32,27.78-15.27,9.77-2.62,18.76-3.54,28.63-2.68,6.12.54,12.06-1.38,17.99-4.9,4.3-2.56,11.42-1.19,17.1-.36,4.1.6,6.63.7,7.1-3.98.58-5.68,4.9-7.51,9.27-7.31,13,.58,18.53-9.12,23.76-17.79,3.08-5.1,6.03-9.99,10.27-14.13,8.98-8.77,16.76-19.1,19.12-31.07,2.34-11.87,8.36-21.85,12.28-32.82.87-2.43,1.1-9.08,7.54-6.24-9.25,41.58-23.62,81.42-41.11,120.17-17.08,37.86-37.34,73.95-60.6,108.35-1.14,1.68-2.48,3.23-3.72,4.83-8.65,6.78-13.7,16.59-20.68,24.78-15.04,17.64-29.5,35.76-47.68,50.45-7.57,6.12-16.64,9.18-25.04,13.6-1.61.85-3.91,1.26-5.21.07-5.22-4.78-10.33-2.25-15.77-.6-8.68,2.63-17.9.13-26.76,2.47-3.61.95-6.14-2.22-7.34-5.62-3.36-9.54-24.34-20.91-33.75-19.15-2.79.52-5.73,1.11-8.39-.15-15.41-7.27-28.18-.63-40.86,7.37-22,13.88-44.27,27.33-66.49,40.86-36.4,22.16-74.57,40.88-113.99,56.91-32.95,13.4-66.85,24.04-101.38,32.79-33.54,8.49-67.43,14.79-101.77,18.67-16.38,1.85-32.82,2.89-49.33,2.45-21.62-.58-43.28,1.2-64.86-1.55-6.17-.79-6.2-.54-6.31-4.71,1.9-.96,3.98-1.36,6.01-1.15,15.09,1.56,30.22.34,45.32.57,12.3.19,24.62-.84,36.89-2.15,19.83-2.12,39.75-3.38,59.4-7.02Z" style="fill: #e69a1f; stroke-width: 0px;"/>
  <path d="M377.86,1100.25c7.58,2.48,15.54,2.79,23.32,2.93,23.72.41,47.47.82,71.17-.06,18.63-.7,37.19-3.29,55.7-5.93,29.74-4.23,59.01-10.75,87.84-18.83,34.09-9.55,67.75-20.55,100.3-34.89,34.42-15.16,68.14-31.58,100.19-51.22,23.63-14.48,47.29-28.94,70.75-43.69,10.3-6.48,23.09-12.84,36.38-4.28,1.2.78,3.3,1.5,4.35.97,7.78-3.88,15.95-.53,21.29,2.83,6.94,4.38,17.45,6.67,18.82,17.79.3,2.46,3.12,5.32,5.67,3.91,8.24-4.55,17.17-.11,25.44-2.64,1.45-.44,3.21-.46,4.31-1.33,4.27-3.38,7.84-4.25,11.35,1.17,1.77,2.74,4.49,1.22,6.95.19,21.21-8.88,37.35-23.99,51.75-41.42,11.92-14.43,24.16-28.61,36.39-42.79,1.06-1.23,1.91-4,4.67-2.46-15.2,22.27-31.71,43.5-49.14,64.09-16.67,19.7-33.38,39.3-52.42,56.79-3.25.84-4.96,3.43-6.77,5.92-1.91,1.71-2.31,5.28-5.97,4.82-12,11.28-25.23,21.1-37.66,31.86-15.48,13.4-33.07,23.71-50.59,33.97-10.65,6.24-23.49,7.34-35.18,11.33-8.3,2.83-16.36-.95-22.79-6.67-3.64-3.24-7.06-4.77-11.83-3.16-2.54.86-5.29.16-7.44-1.26-11.35-7.51-23.83-13.47-34.23-22.15-4.99-4.16-9.46-7.51-15.73-9.77-16.91-6.1-33.07-3.45-48.8,2.76-50.4,19.88-101.3,38.21-154.2,50.25-30.14,6.86-60.68,11.52-91.57,14.17-29.61,2.54-59.3,2.58-88.74.84-72.09-4.25-140.8-21.7-204.5-57.07-38.15-21.18-72.55-47.03-103.25-77.94-1.09-1.1-2.15-2.23-3.61-2.86-9.08-11.27-18.08-22.59-24.78-35.53,3.24-2.87,3.84-3.06,7.6-.14,5.1,3.96,9.43,8.75,13.78,13.51,33.41,36.56,70.92,67.93,114.52,91.88,52.95,29.08,109.86,44.92,169.49,52.04,2.51.3,5.23-.14,7.19,2.08Z" style="fill: #d77f21; stroke-width: 0px;"/>
  <path d="M90.06,976.42c5.07,1.14,8.52,4.67,12,8.15,18.22,18.2,38.24,34.26,59.51,48.69,44.24,30.02,92.29,51.59,144.27,64.36,27.9,6.85,56.11,11.31,84.77,13.77,13.92,1.2,27.74.84,41.6,1.18,11.22.28,22.45.09,33.68.04,22.87-.09,45.46-3.12,68.03-6.42,47.38-6.92,93.22-20.05,138.4-35.43,21.87-7.44,43.14-16.59,64.79-24.7,6.94-2.6,14.43-3.34,21.62-4.96,12.87-2.9,23.74,3.83,35.64,5.05,1.39.14,2.41.84,3.04,2.07,5.61,11.05,16.84,14.47,26.8,19.54,1.79.91,2.47,2.53,3.85,3.56,5.24,3.91,10.02,9.31,17.71,4.81,2.61-1.53,4.92.31,6.84,2.14,11.42,10.91,17.99,12.11,32.45,5.96,1.89-.8,3.83-1.8,5.82-2.01,12.11-1.25,22.41-6.71,32.36-13.25,16.93-11.13,33.33-22.85,49.19-35.56,9.02-7.23,17.19-15.96,27.76-21.3-15.43,17.83-34.15,32.04-52.34,46.72-33.4,26.98-69.12,50.66-106.73,71.39-30.62,16.87-61.89,32.43-94.96,44.06-5.25-1.62-9.2,2.33-13.75,3.51-12.47,3.23-25.41,1.58-37.92,4.5-6.05,1.41-11.33-2.27-15.32-7.05-1.8-2.16-3.76-4.19-5.39-6.5-2.41-5.58-6.41-9.22-12.52-10.35-1-.18.05.36-.71-.26-11.5-9.22-27.31-13.33-32.93-29.55-2.91-8.42-9.87-11.88-19.01-14.57-22.96-6.75-45.13-1.09-67.34,1.74-25.84,3.3-51.71,5.14-77.65,7.13-28.74,2.21-57.21.21-85.59-2.38-32.35-2.95-64.25-9.27-95.41-19-30.61-9.55-60.1-21.69-88.43-36.66-10.71-5.66-21.27-11.65-30.98-18.92-8.31-6.22-17.45-10.88-26.72-15.37-16.59-17.1-32.5-34.77-46.42-54.16Z" style="fill: #c66a24; stroke-width: 0px;"/>
  <path d="M674.93,1168.35c2.83,1.43,4.56,3.91,6.46,6.35,3.13,4.03,7.75,6.93,12.55,5.74,6.87-1.69,13.65-2.12,20.62-2.51,9.01-.5,18.16-.87,26.65-4.81,1.51-.7,3.57-.4,4.94,1.16-39.82,15.86-80.86,27.6-122.98,35.37-12.48,2.3-25.01,5.05-37.83,5.25-2.42,1.31-5.17-.01-7.63.98-2.64.18-5.29.36-7.93.54-2.38,1.32-5.05.13-7.5.87-81.75,7.17-160.84-3.53-236.79-35.28-.69-.29-1.26-.84-1.89-1.27,5.12-2.98,4.87-6.25.89-10.19-6.52-6.46-10.61-15.21-18.94-20-1.08-.62-1.95-1.75-2.55-2.87-5.28-9.74-12.23-18.14-20.21-25.78-2.19-2.09-4.4-4.87-2.99-8.22,1.49-3.56,5.14-4.22,8.47-4.36,8.81-.35,17.4,1.7,26,3.2,29.67,5.15,59.34,9.69,89.56,10.71,18.22.62,36.42,1.18,54.65,1.54,14.69.29,29.27-1.46,43.83-1.15,17.13.36,34.34-2.11,51.42,1,3.84.7,7.69-.38,11.49-1.05,8.23-1.44,14.9,1,19.1,8.36,2.56,4.49,5.15,6.78,10.36,3.7,3.41-2.02,6.44.27,9.29,2.01,4.87,2.96,9.63,5.86,15.82,4.88,3.3-.52,5.88,1.52,7.92,4.02,3.09,3.78,6.4,7.35,9.07,11.51,5.15,8.02,10.08,9.05,17.1,2.96,4.67-4.06,8.11-3.67,10.13,1.6,2.16,5.63,6.11,6.08,10.92,5.74Z" style="fill: #a0532f; stroke-width: 0px;"/>
  <path d="M674.93,1168.35c-7.78,4.9-8.07,4.65-11.88-3.43-1.34-2.83-2.29-10.61-7.35-1.35-3.51,6.44-15.67,4.85-19.58-2.4-2.75-5.1-6.97-8.79-10.05-13.46-1.36-2.06-3.32-4.33-5.47-3.5-8.55,3.29-14.05-2.52-20.02-6.4-2.82-1.83-5.03-1.83-6.72.32-4.85,6.2-7.64,1.6-9.77-2.01-6.42-10.91-8.49-12.59-20.81-9.56-7.26,1.78-14.11-.36-20.83-.94-11.78-1.01-23.32,1.17-35.04.25-10.63-.83-21.59-.44-32.08,1.33-5.94,1-11.27-1.52-16.65-.51-11.03,2.06-21.89-.75-32.86-.25-14.63.67-29.41-.38-43.79-1.97-22.03-2.43-44.23-4.55-65.99-9.4-8.7-1.94-17.65-2.84-26.52-3.92-3.07-.37-6.77.29-8.37,2.84-1.96,3.13,2.11,4.62,3.53,6.86,2.53,3.98,5.69,6.98,10.03,9.19,5.48,2.79,3.8,10.13,8.15,14.34,3.47,3.36,7.17,6.48,10.52,9.84,6.72,6.74,13.54,14.05,17.72,22.42,2.75,5.52-5.04,2.31-7.51,4.11-25.57-9.89-48.72-24.08-71.24-39.53-40.1-27.5-72.52-63.13-105.23-98.49-3.66-3.95-7.11-8.1-10.65-12.16,7.17-1.25,12.91,3.14,17.73,6.63,43.7,31.62,92.41,52,144.05,66.31,29.48,8.17,59.41,13.11,89.89,15.44,18.42,1.41,36.85,3.78,55.29,2.77,32.95-1.81,65.98-2.38,98.64-8.56,13.73-2.6,27.96-2.96,41.85-5.22,7.51-1.22,13.91,3.1,21.01,3.76,1.77.17,3.51.77,5.28.88,8.47.5,16.49,6.14,19.12,14.14,2.12,6.44,8.36,10.4,9.84,17.13,10.35.25,15.7,10.17,24.4,12.86,6.68,2.07,10.21,5.15,11.34,11.64Z" style="fill: #a74c1c; stroke-width: 0px;"/>
  <path d="M377.86,1100.25c-21.09-.49-41.55-5.27-62.1-9.34-36.48-7.24-71.09-20.15-104.08-36.9-36.3-18.42-69.2-41.8-98.63-70.3-13.11-12.69-25.4-26.1-38.4-38.84-2.5-2.45-4.66-6.42-9.37-3.97-12.24-16.64-20.54-35.44-29.26-53.98-3.79-8.04-7.36-16.23-9.46-24.95.05-5.36-.75-12.76,4.74-14.02,3.64-.83,5.63,6.92,7.79,11.17,18.79,36.93,40.21,71.96,68.08,103.04,30.23,33.71,65.35,60.66,105.25,81.65,40.52,21.32,83.42,35.4,128.63,42.63,20.5,3.28,41.02,5.61,61.83,6.46,10.75.44,21.53.8,32.3,1.14,25.7,1.18,51.25-1.67,76.83-3.26,4.81-.3,9.57-1.68,14.48-1.35-14.37,4.62-29.34,5.95-44.2,7.65-15.7,1.79-31.6,4.87-47.18,3.86-12.49-.81-24.79,2.67-37.28-.2-6.36-1.46-13.3-.4-19.98-.48Z" style="fill: #da8d42; stroke-width: 0px;"/>
  <path d="M1225.46,621.97c-5.8-5.6-5.46-7.81,2.11-13.79.39,4.76-.82,9.28-2.11,13.79Z" style="fill: #e69a1f; stroke-width: 0px;"/>
  <path d="M1221.18,640.64c-3.79-1.98-3.45-5.25-2.46-8.53.39-1.31.91-3.4,2.81-2.89,1.72.47,1.03,2.57,1.39,3.95-.03,2.62-.29,5.18-1.74,7.47Z" style="fill: #e69a1f; stroke-width: 0px;"/>
  <path d="M1006.15,1007.3c.61-3.85,2.73-5.98,6.77-5.92-1.94,2.33-3.52,5.08-6.77,5.92Z" style="fill: #c66a24; stroke-width: 0px;"/>
  <path d="M577.71,1215.88c2.34-1.93,5.06-.94,7.64-.98-2.4,1.44-5.01,1.29-7.64.98Z" style="fill: #c66a24; stroke-width: 0px;"/>
  <path d="M562.28,1217.3c2.34-1.73,4.98-.83,7.51-.87-2.39,1.27-4.93,1.24-7.51.87Z" style="fill: #c66a24; stroke-width: 0px;"/>
  <path d="M880.75,807.74c-2.88,4.33-6.57,7.85-10.75,10.89-5.21.99-9.24,3.16-9.3,9.3-15.98,18.62-35.06,33.89-53.67,49.67-19.22,16.31-39.8,30.79-61.13,44.14-21.76,13.61-43.92,26.45-67.4,37.16-15.66,7.14-31.24,14.4-47.32,20.48-24,9.08-48.85,15.55-73.37,23.03-7.21,2.2-14.41,6.38-22.02.77-.75-.55-3.06-.33-3.56.34-5.52,7.4-14.19,7.4-21.72,7.99-10.56.83-20.96,5.47-31,4.46-14.22-1.43-27.67,4.5-41.94,1.76-6.14-1.18-13.23.24-19.88.54-22,1-43.28-3.17-64.7-7.56-23.39-4.79-46.42-10.59-68.78-18.86-29.82-11.03-57.61-26.04-82.54-45.77-20.36-16.11-37.96-35.1-54.05-55.53-17.67-22.42-30.05-47.86-41.07-73.79-9.08-21.37-15.4-43.93-19.33-66.95-.81-4.75-.49-9.81.11-14.63.35-2.84.57-6.6,6.11-5.26,4.12.99,5.41-3.46,5.6-6.77,1.84-32.86,4.1-65.62,9.09-98.26,5.67-37.02,15.79-72.73,28.62-107.66,14.93-40.62,34.23-79.19,57.06-116.07,15.02-24.26,30.53-48.16,48.33-70.38,14.25-17.8,28.58-35.58,43.81-52.62,16.16-18.08,33.38-35.09,50.82-51.85,17.37-16.69,35.48-32.56,55.42-46.41,25.65-17.82,52.81-32.62,81.02-45.86,26.55-12.46,53.91-22.48,82.05-30.6,3.94-1.14,6.92-.92,9.8,1.81,1.6,2.56-.06,3.82-2.07,4.64-2.59,1.05-5.34,1.73-7.83,3.05-10.4,4.46-21.22,7.71-32.03,10.94-4.23.39-8.23,1.61-12.05,3.44-.6.31-1.23.55-1.87.78-2.54.71-5.02,1.54-7.17,3.15-1.14.77-2.34,1.39-3.66,1.78-3.78.78-7.15,2.48-10.29,4.67-11.87,6.57-24.03,12.56-36.3,18.32-2.67.82-5.22,1.87-7.44,3.62-.56.41-1.15.77-1.75,1.11-2.14,1.06-4.25,2.17-6.16,3.64-.55.41-1.14.77-1.75,1.1-3.36,1.67-6.87,3.08-9.61,5.79-1.59,1.44-3.27,2.75-5.23,3.66-20.28,11.82-38.62,26.31-56.67,41.22-11.1,9.17-22.07,18.47-32.03,28.9-.78.76-1.63,1.43-2.51,2.05-8.21,6.24-15.12,13.8-21.91,21.48-1.06,1.48-2.34,2.73-3.81,3.8-7.52,6.55-14.73,13.42-20.96,21.24-.38.61-.81,1.17-1.27,1.72-6.8,7.07-14.11,13.71-18.99,22.4-2.74,4.95-7.27,8.38-10.8,12.65-1.79,1.41-3.48,2.92-4.63,4.94-.33.55-.72,1.07-1.12,1.57-1.51,1.63-2.89,3.36-4.04,5.26-.53.8-1.15,1.53-1.81,2.23-1.59,1.56-3.01,3.25-4.12,5.21-.35.59-.76,1.12-1.19,1.64-2.51,2.54-4.73,5.27-6.2,8.55-.32.61-.7,1.19-1.12,1.73-1.86,2.01-3.42,4.22-4.57,6.72-8.66,14.3-18.5,27.83-27.04,42.23-10.62,17.91-20.49,36.19-29.73,54.84-26.73,54.62-44.54,112.02-52.64,172.27-3.61,26.83-4.8,53.95-3.39,81,1.76,33.71,4.68,67.37,14.35,99.97,6.87,23.19,17.67,44.52,31.82,64.11,20.45,28.29,45.41,51.8,74.46,71.22,27.38,18.3,74.52,38.54,108.15,46.01-40.53-10.6-74.65-31.91-103.64-61.8-10.6-13.45-22.12-26.21-31.26-40.78-1.9-3.04-4.02-5.94-5.22-9.38-3.51-10.21-7.71-20.18-10.87-30.5-2.89-9.44-2.86-18.76,3.01-27.38,2.37-3.48,4.92-3.83,7.24-.35,13.51,20.26,33.35,34.75,48.46,53.74,11.06,13.9,25.39,25.51,39.68,36.5,34.05,26.18,71.82,44.73,113.28,56.32,26.8,7.49,54.04,9.53,81.54,10.56,14.88.56,29.73.49,44.56-.96,1.97-.47,3.98-.6,5.99-.63,3.11-.06,6.24.21,9.26-.82,67.65-8.98,131.21-29.71,189.94-64.99,29.75-17.86,56.43-39.39,81.74-62.97,13.94-12.99,27.78-26.03,40.66-40.07.39-.63.84-1.22,1.31-1.8,7.36-7.71,15.45-14.79,20.87-24.18.78-1.61,1.92-2.92,3.37-3.97,2.84-1.84,5.14-4.13,6.23-7.45,3.37-5.66,6.86-11.23,11.98-15.54,1.95-1.19,3.6-2.69,4.76-4.69.33-.55.72-1.07,1.13-1.57,1.83-1.86,3.2-4.01,3.92-6.55,4.28-8.04,9.35-15.56,15.05-22.66,2.49-1.86,3.87-4.44,4.74-7.35.73-1.91,1.69-3.68,3.18-5.1,2.1-1.65,3.42-3.86,4.52-6.24.3-.59.65-1.15,1.03-1.69,1.95-2.34,3.09-5.04,3.55-8.04,4.88-10.85,10.63-21.25,16.59-31.52,2.1-1.92,3.07-4.45,3.81-7.11.23-.69.51-1.35.82-2,6.68-14.07,13.94-27.9,16.99-43.39.37-3.45,1.3-6.72,3.2-9.66,3.6-5.93,5.23-12.52,6.47-19.25.13-.7.33-1.39.56-2.06,1.32-3.3,2.23-6.71,2.8-10.22.14-.75.35-1.48.59-2.2,3.72-16.55,8.21-32.93,9.79-49.91.31-3.31.18-8.62,4.74-8.2,4.37.4,3.88,5.56,3.54,9.02-2.41,24.37-6.66,48.37-13.14,72.04-15.09,55.15-39.04,106.06-71.32,153.21-12.65,18.48-25.97,36.38-40.54,53.37-1.46,1.7-3.47,3.29-2.23,6.03Z" style="fill: #eca759; stroke-width: 0px;"/>
  <path d="M880.75,807.74c-5.67-1.7-1.6-4.85-.34-6.17,12.03-12.65,22.23-26.82,32.27-40.92,11.29-15.85,22.21-32.1,31.79-49.16,14.62-26.02,27.37-52.9,37.24-81.05,9.59-27.36,17.4-55.23,21.33-84.06.97-7.09,2.2-14.15,2.9-21.27.33-3.37,1.15-7.09-2.43-11.74-3.88,21.35-5.87,41.62-12.85,60.74-2.81-2.92-1.61-6.31-.92-9.5,7.51-34.65,10.97-69.73,9.58-105.11-1.61-41.22-8.08-81.7-26.71-118.99-10.58-21.18-24.04-40.75-40.48-58.17-20.31-21.51-42.39-40.6-68.58-54.68-6.75-3.63-13.82-6.36-20.85-9.25-1.12.05-.16,1.48-.28.45-.05-.44.16-.51.66-.42,2.58.49,4.86,1.78,6.99,3.15,29.35,18.95,56.8,40.07,77.54,68.72,1.7,2.34,4.62,4.52,2.71,8.16-4.19.92-5.9-2.38-7.89-4.88-23.66-29.56-52.15-53.46-85.54-71.17-32.37-17.18-67.19-27.19-103.28-33.17-24.07-3.99-48.29-2.85-72.48-3.04-7.23-.06-14.29,2.29-21.55,1.46-2.44-.28-6.05.23-6.21-3.04-.15-3.03,3.18-3.68,5.8-3.92,21.51-2,42.91-4.08,64.67-2.38,16.96,1.33,33.8,3.48,50.64,5.54,19.44,2.38,38.24,7.92,57.04,13.41,44.65,13.03,83.37,36.28,117.7,67.24,14.72,13.27,29.63,26.3,45.24,38.54,7.25,5.68,11.46,13.68,16.01,22.81.17-8.58-.1-15.73-6.24-21.27-1.32-1.19-2.18-2.97-2.48-4.75-2.49-14.57-12-25.32-19.73-37.12-3.91-5.96-9.68-11.47-7.17-20.21,1.07-3.73-2.82-6.4-5.25-8.95-18.86-19.71-40.45-35.84-64.43-48.79-26.92-14.53-55.37-25-85.16-31.93-2.75-.64-7.22.46-7.38-4.66,2.07-1.75,4.58-1.6,7.04-1.67,14.71,1.61,28.52,6.73,42.37,11.46,29.92,10.23,57.58,24.96,83.4,43.17,2.38,1.79,4.87,3.44,7.22,5.28,12.68,10.48,24.98,21.34,36.49,33.14,7.74,7.93,13.41,17.61,21.79,24.85.66-4.79-3.32-6.99-5.52-10.16-.49-.62-.88-1.29-1.21-2.01-7.21-16.53-18.9-30.09-30.35-43.52-16-18.77-33.47-36.08-54.07-50.26-38.69-26.62-80.56-45.24-126.56-54.9-33.98-7.13-68.28-9.96-102.85-8.5-35.33,1.49-70.14,6.95-104.31,16.26-3.77,1.03-7.83,3.32-11.74.06,2.63-3.73,9.08-.77,10.76-6.15,14.6-5.81,30.16-7.59,45.4-10.59,28.76-5.66,58.02-8.11,87.15-7.59,38.46.69,76.56,5.87,113.44,17.9,27.93,9.11,55.44,19.21,79.96,35.74,14.87,10.02,29.61,20.18,43.08,32.27,28.51,25.56,50.78,55.85,68.25,89.48,14.71,28.32,24.06,58.68,30.39,90.15,6.29,31.22,8.42,62.54,7.3,94.16-.6,17.11-3.45,34.04-5.6,51.03-3.76,29.72-11.36,58.33-20.67,86.6-15.44,46.85-36.55,91.07-63.26,132.49-20.74,32.16-43.86,62.61-69.79,90.84Z" style="fill: #ea9d3f; stroke-width: 0px;"/>
  <path d="M1127.01,390.24c3.56,11.39,7.58,20.43,7.6,30.61.05,23.67.71,47.39-1.73,70.94-3.2,30.86-9.69,61.06-18.45,90.93-6.16,21.01-13.95,41.33-22.21,61.44-9.25,22.54-19.34,44.78-32.13,65.68-16.63,27.16-34.89,53.17-54.28,78.41-.94,1.22-1.93,2.41-3.02,3.5-14.45,14.46-28.93,28.91-43.41,43.35-1.29,1.28-2.8,2.74-4.66,1.35-1.67-1.25-.06-2.84.27-4.21,1.76-7.34,7.97-11.81,11.76-17.88,19.04-30.45,39.75-59.8,57.85-90.9,28.74-49.36,51.88-101.12,68.67-155.55,10.49-33.99,18.34-68.7,23.1-104.17,3.09-23.05,5.16-46.24,8.95-69.2.12-.72.53-1.39,1.67-4.31Z" style="fill: #f5d297; stroke-width: 0px;"/>
  <path d="M860.71,827.93c-3.09-.32-3-1.95-1.79-4.18,2.02-3.74,5.83-5.38,9.1-7.55,1.28-.85,1.72,1.23,2,2.42-2.54,3.66-5.64,6.77-9.3,9.31Z" style="fill: #ea9d3f; stroke-width: 0px;"/>
  <path d="M199.92,888.22c9.75,17.56,22.94,32.58,35.6,47.99-1.06.95-2.27,1.03-3.57.63-9.2-6.43-16.04-15.19-22.87-23.84-33.09-41.94-54.39-89.5-65.87-141.47-6.16-27.89-8.96-56.24-8.75-84.84.07-9.75,2.05-19.4,1.84-29.18.1-.83.28-1.65.51-2.45.74-9.91,2.32-19.71,3.8-29.51.1-1.25.32-2.47.61-3.68,2.38-12.01,4.43-24.09,7.5-35.95,1.13-2.43-.51-7.33,5.11-5.83,3.09,4.8.77,9.64-.41,14.18-2.23,8.63-4.51,17.2-4.76,24.9,7.5-28.6,15.26-58.4,26.82-87.12,17.89-44.47,40.64-86.23,68.99-124.81,16.77-22.81,34.66-44.77,54.58-65.07,15-15.29,31.12-29.28,47.36-43.13,5.43-4.63,11.12-9.2,17.28-12.88,3.25-1.95,7.34-4.72,10.86.28,6.28,8.93,6.36,9.31,1.06,15-2.28,2.45-4.5,5.03-7.14,7.07-23.45,18.06-41.9,40.93-61.24,63.01-23.87,27.27-44.18,57.03-61.79,88.5-19.68,35.17-34.64,72.51-44.19,111.74-8.3,34.1-13.77,68.78-11.5,103.98,2.76,42.65,10.91,84.17,30.86,122.61,3.08,5.94,6.29,11.84,8.73,18.1.49,2.33,1.89,4.71-.37,6.88-3.9,0-4.93-3.27-6.47-5.82-15.62-25.85-25.64-53.87-32.12-83.24-1.88-8.53-4.84-16.85-4.98-25.71-.04-2.28-1.45-3.77-2.78-5.35-1.07-1.52-1.59-3.25-1.69-5.07-1.6-28.22-.47-56.39,1.05-86.01-6.87,30.72-13.9,59.97-16.29,90.18-1.85,23.37-1.79,46.78-.35,70.03,1.9,30.68,8.65,60.59,21.88,88.66,4.27,9.06,7.75,18.49,12.68,27.24Z" style="fill: #e9973b; stroke-width: 0px;"/>
  <path d="M184.44,702.55c6.06,4.46,3.06,11.44,4.34,17.11,7.93,35.2,18.24,69.41,37.45,100.35.77,1.25,2.07,2.17,3.12,3.25.3.18.6.36.9.54,4.18,5.49,7.16,11.84,12.02,16.84.72.75,1.36,1.57,1.94,2.43,1.22,2.06,2.73,3.9,4.44,5.58.73.75,1.37,1.56,1.96,2.42,2.36,3.89,5.87,6.75,9,9.94,4.56,4.73,9.25,9.33,13.93,13.95,3.24,3.25,6.25,6.75,10.16,9.26,2.44,1.77,4.44,4.11,7.09,5.63.57.34,1.09.74,1.61,1.15,1.67,1.52,3.41,2.95,5.44,3.98,2.54,1.38,4.86,3.16,7.6,4.2,1.22.52,2.34,1.2,3.35,2.05,1.23,1.07,2.36,2.25,3.58,3.34,1.9,1.85,4.28,2.95,6.62,4.1.62.31,1.19.68,1.76,1.06,9.01,5.39,18.39,10.04,28.09,14.03.65.22,1.29.49,1.91.8,2.07,1.13,4.27,1.95,6.52,2.65,1.56.57,3.14,1.09,4.72,1.59.64.2,1.26.47,1.87.75,3.64,1.82,7.58,2.8,11.42,4.04,3.22,1.25,6.54,2.13,9.9,2.88,3.22,1.09,6.44,2.21,9.8,2.85.66.14,1.31.35,1.95.57,2.23.87,4.64.81,6.95,1.26.7.12,1.38.31,2.05.53,7.06,1.69,14.13,3.35,21.41,3.78.73.11,1.45.29,2.16.49,3.21,1.14,6.63.59,9.91,1.22.79.11,1.55.31,2.3.56,6.57.83,13.18-.07,19.75.58.87.08,1.72.25,2.56.48,12.78,1.29,25.56,1.19,38.33,0,1.25-.37,2.53-.55,3.83-.63,4.52-.36,9.11.46,13.57-.87,1.56-.41,3.15-.59,4.75-.66,2.67-.08,5.36.05,7.94-.85,1.1-.3,2.22-.48,3.36-.57,2.95-.22,5.96.1,8.83-.91.72-.22,1.45-.36,2.19-.48,2.58-.3,5.2-.32,7.68-1.22,51.9-10.01,101.56-26.81,148.66-50.65,39.13-19.81,76.26-42.97,109.38-72,20.92-18.33,40.79-37.76,58.55-59.24.39-.63.84-1.22,1.3-1.78,2.36-2.67,5.14-4.98,6.97-8.11.38-.62.82-1.19,1.28-1.74,8.63-10.12,16.44-20.83,23.46-32.13.34-.64.75-1.23,1.19-1.81,9.32-13.04,17.65-26.68,24.85-41,.31-.62.68-1.21,1.07-1.79,1.97-2.39,3.24-5.13,4.06-8.11.22-.68.5-1.32.81-1.96,6.71-13.96,14.61-27.38,19.01-42.38.22-.7.51-1.38.81-2.05,2.35-5.43,4.65-10.88,5.04-16.9,1.54-7.18,3.74-14.15,6.64-20.9,6.79-21.39,10.66-43.35,13.47-65.58,1.26-9.96,1.46-19.96,2.58-29.92,1.46-13.04-1.34-26.12-1.92-39.21-.34-7.66-1.63-15.31-2.56-22.95-.2-.77-.37-1.57-.54-2.35-.52-2.61-.45-5.32-1.34-7.88-.25-.72-.42-1.47-.57-2.22-3.13-19.97-9.14-39.1-17.18-57.57-8.02-18.44-17.84-35.94-29.07-52.64-.06-.38-.11-.77-.17-1.15-1.71-6.16-6.36-10.57-10.21-15.1-16.16-19-34.39-35.81-55.42-49.47-8.49-5.51-16.63-11.55-24.59-17.86,22.39,6.28,41.63,18.58,59.42,32.67,29.48,23.35,54.1,51.44,71.9,84.67,11.76,21.97,19.76,45.61,23.97,70.4,5.09,29.96,7.96,60.14,5.93,90.44-1.6,23.95-3.74,47.98-9.66,71.41-.71,2.82-.9,5.56-.92,8.38h0c-1.41,3.5-1.81,7.29-3.09,10.83h0c-1.73,7.31-4.13,14.43-6.23,21.63-2.17,2.73-2.96,5.91-3.06,9.31-5.49,15.25-11.63,30.23-18.55,44.89h0c-1.45,2.4-1.75,5.26-3.16,7.67-6.13,10.6-12.1,21.29-17,32.53-1.9,2.37-2.76,5.35-4.6,7.76h0c-2,2.3-2.75,5.36-4.68,7.71-1.03,1.55-2.05,3.11-3.08,4.66-1.97,2.32-2.72,5.37-4.67,7.71-5.16,7.74-10.32,15.49-15.47,23.23-1.37,2.19-3.25,4.01-4.6,6.21-1.45,2.14-3.23,4.01-4.68,6.15-5.46,4.1-8.37,10.23-12.36,15.5-1.72,2.85-4.45,4.89-6.2,7.72-1.02,1.04-2.05,2.08-3.07,3.12-6.5,8.88-14.55,16.41-21.65,24.77h0c-12.28,13.51-25.71,25.79-39.3,37.98-17.47,15.66-35.2,30.96-54.42,44.38-25.98,18.16-53.18,34.2-82.04,47.59-32.1,14.89-65.46,25.65-99.87,33.1-23.01,4.98-46.34,8.79-70.06,8.72-3.85-.01-7.73-.34-11.52.76-5.15,1.23-10.26-.49-15.4-.12-4.84-1.24-9.76-.39-14.65-.66-13.38-1.23-26.88-1.39-40.03-4.58-2.01-.49-4.94.12-4.22-3.58,2.45-1.92,5.35-2.09,8.12-1.46,25.93,5.92,52.28,3.9,78.49,4.29,3.89.03,7.81.57,11.64-.63,1.61-.42,3.25-.61,4.91-.68,3.48-.14,7.01.33,10.43-.71,1.09-.3,2.2-.48,3.32-.58,2.84-.23,5.72.15,8.51-.69.68-.22,1.37-.38,2.06-.52,3.11-.57,6.35-.1,9.41-1.19.69-.24,1.4-.41,2.11-.56,6.18-1.13,12.42-1.95,18.32-4.27,2.17-.7,4.34-1.4,6.57-1.91,24.95-4.74,48.57-13.53,71.82-23.45,41.7-17.78,80.51-40.69,116.38-68.22,30.04-23.06,58.44-48.07,83.63-76.62,32.39-36.71,60.06-76.47,83.04-119.74,10.23-19.26,16.79-39.82,22.05-51.44-3.93,12.64-15.22,31.52-25.45,50.92-16.58,31.41-37.69,59.66-60.81,86.42-20.23,23.43-42.29,45.08-66.19,64.83-38.37,31.72-80.31,57.7-125.63,78.22-42,19.03-85.77,32.27-131.19,40.28-33.96,5.99-68.31,7.34-102.42,4.87-52.59-3.81-102.28-18.71-147.04-47.48-32.26-20.73-59.13-47.07-79.62-79.67-1.51-2.4-3.11-4.74-4.77-7.04-.51-.9-1.16.69-.44-.04,6.74,13.3,13.1,26.82,22.3,38.69,4.21,6.93,9.05,13.37,14.3,19.57,2.59,3.06,6.71,5.83,5.4,10.99-.58.52-1.26.82-2.03.92-2.51-.16-4.32-1.67-5.78-3.43-14.9-17.94-28.78-36.55-37.62-58.4-.41-2.53-1.52-4.72-3.34-6.54-4.12-5.66-6.86-11.88-7.78-18.86-.22-4.77-2.04-8.92-4.97-12.65-8.49-25.7-15.02-51.86-18.26-78.76-.45-3.73-.99-7.76,1.95-11.03Z" style="fill: #e69128; stroke-width: 0px;"/>
  <path d="M554.33,111.4c14.55-1.72,28.36-6.78,42.71-9.47,19.12-3.58,38.31-6.16,57.72-7.78,13.89-1.16,27.71-1.15,41.57-1.26,25.46-.2,50.53,3.35,75.45,8.22,37.65,7.36,73.05,20.9,105.81,40.67,21.05,12.7,41.75,26.28,58.67,44.53,16.39,17.67,32.52,35.58,45.32,56.15,2.16,3.47,4.63,6.87,4.44,11.29-1.88.61-3.04-.65-3.79-1.9-8.52-14.15-20.29-25.91-29.08-39.86-9.7-12.46-21.18-23.22-32.96-33.57-23.65-20.75-50.88-36.1-79.36-48.9-26.39-11.86-54.42-18.75-82.97-23.8-28.39-5.02-56.98-5.97-85.49-4.32-52.05,3-102.3,14.71-150.97,33.83-45.92,18.04-88.42,42.09-128.41,70.59-33.63,23.96-64.66,51.02-93.35,80.88-35.7,37.14-67.68,77.11-94.06,121.3-19.29,32.31-36.33,65.81-49.85,101.11-14.16,36.99-25.42,74.72-31.2,113.87-4.6,31.11-6.42,62.48-3.45,93.97.39,4.15,1.96,8.77-2.18,12.22-4.77-3.62-4.29-9.13-4.52-14.06-.34-7.22-.62-14.34-2.59-21.4-1.99-7.14.08-14.36.89-21.49,2.59-22.73,1.31-45.77,6.03-68.36,6.64-31.76,15.44-62.85,26.32-93.41,5.61-15.78,12.89-30.8,19.34-46.2.24-.99.3-2.07.74-2.95,16.53-32.91,34.65-64.86,56.52-94.57,1.43-2.13,3.26-3.95,4.61-6.14l.04-.05c2.11-3.92,5.05-7.25,7.7-10.78l.04-.05c1.44-2.12,3.23-3.97,4.6-6.14.53-.53,1.05-1.07,1.58-1.6,1.43-2.12,3.26-3.95,4.61-6.13l.04-.06c1.42-2.13,3.24-3.95,4.6-6.13,3.63-4.15,7.25-8.3,10.88-12.45,6.12-8.21,13.44-15.38,20.07-23.15l.04-.06c6.41-8.46,15.27-14.64,21.62-23.15,1.05-1.05,2.1-2.1,3.15-3.15,8.51-6.35,14.69-15.2,23.15-21.62.54-.53,1.07-1.06,1.61-1.59,17.35-16.81,36.39-31.62,55.21-46.68,11.02-8.81,23.02-16.23,34.47-24.44,1.57-1.06,3.15-2.11,4.72-3.17,3.35-2.45,7.47-3.55,10.74-6.12l.1-.07c2.37-1.83,5.34-2.65,7.64-4.57l.09-.07c2.37-1.82,5.34-2.65,7.65-4.57,12.41-6.21,24.82-12.43,37.23-18.64,3.64-1.39,7.15-3.07,10.74-4.58,1.06-.54,2.12-1.08,3.19-1.61,2.46-1.24,5.23-1.69,7.64-3.03l.1-.06c3.97-1.87,8.35-2.61,12.28-4.57,10.86-3.64,21.71-7.27,32.57-10.91Z" style="fill: #eba431; stroke-width: 0px;"/>
  <path d="M422.79,979.54c14.66,4.24,29.65,6.09,44.88,6.24,4.48,1.99,9.43-.47,13.91,1.48,5.67,0,11.33,0,17,0,8.77-1.2,17.54-1.23,26.31.03-1.77,2.15-4.24,1.51-6.48,1.51-16.37.04-32.76.5-49.11-.07-42.2-1.48-82.65-10.58-121.04-28.58-32.31-15.15-61.68-34.21-87.46-59.24-12.18-11.82-23.62-23.94-34.21-37.17-6.27-7.84-15.24-13.47-22.16-21.07-3.99-4.38-6.66-9.6-10.6-14.68-7.69,10.66-8.25,21.1-3.25,32.68,3.83,8.87,6.27,18.35,9.33,27.55-7.39-7.86-10.34-18.22-15.17-27.48-9.72-18.62-14.62-39.1-18.4-59.41-4.49-24.1-3.75-48.82-3.89-73.41-.13-23.3,3.07-45.85,7.36-68.6,1.93-10.22,5.02-20.32,5.62-30.92.47-8.27,6.73-15.12,7.5-23.7,3.18,5.34,1.56,11.25.96,16.09-1.63,13.15.69,26.38-1.28,39.26-1.94,12.7,1.71,25.04.32,37.55-.2,1.78-.17,3.65,1.5,4.93.64,31.07,9.56,60.43,18.59,89.77,1.92,3.98,2.62,8.42,4.63,12.37.77,6.95,3.52,13.08,7.74,18.6,1.09,2.03,1.39,4.45,3.08,6.17,10.07,23.25,23.85,44,41.8,61.94,4.47,1.76,7.11,5.98,11.18,8.29,15.6,15.44,32.48,29.22,51.44,40.41,28.38,16.76,58.68,28.57,90.8,35.79,3.22.72,6.71.84,9.09,3.66Z" style="fill: #e6964f; stroke-width: 0px;"/>
  <path d="M164.35,464.26c.24,4.61-2.23,8.5-4.04,12.31-12.93,27.22-20.79,56.03-29.11,84.87-6.7,23.23-10.24,46.85-14.63,70.42-1.27,6.84.66,13.64.05,20.59-.86,9.93-3.21,19.93-2.87,29.68.53,15.62,1.55,31.43,5.72,46.71,4.29,9.76,4.75,20.43,7.19,30.63,3.66,15.29,8.72,30.03,13.88,44.87,7.44,21.39,18.36,40.87,29.68,60.13,15.75,26.79,35.29,50.67,59.08,70.87.8.68,1.62,2.29,3.12.86,1.03,0,2.06,0,3.1,0,25.25,25.9,54.2,46.04,88.9,57.28,6.76,2.19,13.78,3.86,20.7,9.1-11.9.03-21.64-4.01-31.36-7.25-30.28-10.08-59.27-22.94-86.14-40.52-32.75-21.44-59.74-48.76-80.97-81.22-16.97-25.93-27.17-54.91-32.12-85.89-5.41-33.83-8.17-67.73-7.35-101.9.78-32.58,4.72-64.77,12.19-96.61,9.55-40.69,23.15-79.88,40.64-117.77,1.16-2.52,1.94-5.37,4.34-7.18Z" style="fill: #f0b030; stroke-width: 0px;"/>
  <path d="M524.89,987.29c-8.77,0-17.54-.02-26.31-.03,1.08-1.37,2.6-1.54,4.18-1.5,29.72.78,58.76-4.38,87.44-11.12,26.01-6.12,51.31-14.79,75.87-25.46,25.05-10.88,49.04-23.77,72.07-38.4,18.62-11.83,36.4-24.85,53.25-39.12,9.98-8.45,20.16-16.67,29.91-25.37,11.26-10.04,22.15-20.49,33.2-30.77.03,2.97-2.26,4.49-4.01,6.31-22.29,23.19-45.64,45.39-70.62,65.53-32.27,26.01-67.75,47.09-106.24,63.08-30.45,12.65-61.7,22.58-93.87,29.35-12.93,2.72-25.88,6.52-39.38,5.95-2.86,1.91-6.42-.47-9.27,1.53-2.07,0-4.14.01-6.2.02Z" style="fill: #ea9d3f; stroke-width: 0px;"/>
  <path d="M521.96,1003.28c-6.83,4.81-14.88,6.08-22.32,6.78-11.33,1.06-22.67,3.24-34.48,1.07-6.01-1.11-13.3.09-19.78,1.27-5.25.96-10.04.98-15.13-.28-19.15-4.73-39.26-3.59-58.26-9.37-6.13-1.87-12.4-3.31-18.46-5.38-2.4-.82-6.44-1.81-5.13-5.35,1.06-2.86,4.37-1.48,6.85-.65,9.26,3.08,19.14,3.39,28.44,6.52,4.74,1.59,9.68-1.19,15.08-.2,27.02,4.99,54.46,6.23,81.86,6.38,13.68.08,27.47,1.27,41.32-.79Z" style="fill: #eeba6c; stroke-width: 0px;"/>
  <path d="M419.63,173.37c-6.24,7.75-15.63,11.3-23.17,17.39-20.65,16.69-42.53,31.88-61.31,50.83-1.46,1.47-2.89,2.97-5.2,2.89,9.25-11.79,21.28-20.61,32.57-30.18,16.79-14.22,34.38-27.38,52.99-39.16,1.25-.79,2.74-1.2,4.12-1.78Z" style="fill: #ea9d3f; stroke-width: 0px;"/>
  <path d="M959.73,660.78c3.04-12.43,10.1-23.28,13.98-35.4,1.04-3.26,1.44-7.12,4.57-9.48-3.66,16.01-10,30.9-18.55,44.89Z" style="fill: #ea9d3f; stroke-width: 0px;"/>
  <path d="M854.5,815.51c5.74-9.55,13.87-17,21.65-24.77-5.1,10.1-13.17,17.62-21.65,24.77Z" style="fill: #ea9d3f; stroke-width: 0px;"/>
  <path d="M302.04,270.85c-5.04,9.74-13.95,15.87-21.62,23.15,5.05-9.74,13.94-15.87,21.62-23.15Z" style="fill: #ea9d3f; stroke-width: 0px;"/>
  <path d="M328.34,246.08c-7.27,7.68-13.41,16.58-23.15,21.62,7.28-7.68,13.41-16.58,23.15-21.62Z" style="fill: #ea9d3f; stroke-width: 0px;"/>
  <path d="M280.38,294.06c-5.26,8.95-12.63,16.08-20.07,23.15,4.75-9.4,12.05-16.59,20.07-23.15Z" style="fill: #ea9d3f; stroke-width: 0px;"/>
  <path d="M956.57,678.6c.38-5.49,2.68-9.99,7.47-15.41-.49,7.56-3.68,11.63-7.47,15.41Z" style="fill: #eeba6c; stroke-width: 0px;"/>
  <path d="M981.35,606.58c.86-7.56,2.64-14.85,6.23-21.62.17,7.86-2.62,14.86-6.23,21.62Z" style="fill: #ea9d3f; stroke-width: 0px;"/>
  <path d="M233.96,349.76c-1.22,4.56-4.46,7.67-7.7,10.78.71-4.92,3.61-8.28,7.7-10.78Z" style="fill: #ea9d3f; stroke-width: 0px;"/>
  <path d="M943.35,703.8c-1.49,4.93-1.87,7.92-6.06,9.43.96-3.65,1.84-6.36,6.06-9.43Z" style="fill: #eeba6c; stroke-width: 0px;"/>
  <path d="M435.1,164.09c-2.54,3.87-6.62,5.04-10.75,6.12,2.54-3.87,6.61-5.05,10.75-6.12Z" style="fill: #ea9d3f; stroke-width: 0px;"/>
  <path d="M521.76,122.31c-3.45,3.25-7.78,4.15-12.29,4.57,3.44-3.28,7.77-4.17,12.29-4.57Z" style="fill: #ea9d3f; stroke-width: 0px;"/>
  <path d="M498.54,131.59c-3.05,2.77-6.49,4.62-10.74,4.58,3.04-2.79,6.49-4.64,10.74-4.58Z" style="fill: #ea9d3f; stroke-width: 0px;"/>
  <path d="M879.22,787.62c.46-3.87,3.35-5.78,6.2-7.72-.36,3.94-3.26,5.85-6.2,7.72Z" style="fill: #ea9d3f; stroke-width: 0px;"/>
  <path d="M987.58,584.95c-.12-3.94.48-7.67,3.09-10.83.11,3.93-.5,7.66-3.09,10.83Z" style="fill: #ea9d3f; stroke-width: 0px;"/>
  <path d="M930.29,716.45c.6-3.15,1.55-6.09,4.68-7.7-.56,3.18-1.51,6.11-4.68,7.7Z" style="fill: #ea9d3f; stroke-width: 0px;"/>
  <path d="M922.54,728.82c.6-3.15,1.58-6.06,4.67-7.71-.52,3.19-1.49,6.12-4.67,7.71Z" style="fill: #ea9d3f; stroke-width: 0px;"/>
  <path d="M450.58,154.81c-1.62,3.08-4.49,4.06-7.65,4.57,1.61-3.1,4.48-4.08,7.65-4.57Z" style="fill: #ea9d3f; stroke-width: 0px;"/>
  <path d="M442.84,159.44c-1.61,3.09-4.49,4.07-7.64,4.57,1.6-3.1,4.48-4.08,7.64-4.57Z" style="fill: #ea9d3f; stroke-width: 0px;"/>
  <path d="M934.97,708.75c.51-3.19,1.55-6.07,4.6-7.76-.47,3.21-1.51,6.09-4.6,7.76Z" style="fill: #ea9d3f; stroke-width: 0px;"/>
  <path d="M509.37,126.94c-1.99,2.42-4.64,3.17-7.64,3.03,1.99-2.43,4.64-3.18,7.64-3.03Z" style="fill: #ea9d3f; stroke-width: 0px;"/>
  <path d="M956.57,668.45c0-2.99.69-5.7,3.16-7.67.05,3.01-.59,5.74-3.16,7.67Z" style="fill: #ea9d3f; stroke-width: 0px;"/>
  <path d="M244.79,335.84c-.11,3.12-2.13,4.8-4.61,6.13.12-3.11,2.13-4.79,4.61-6.13Z" style="fill: #ea9d3f; stroke-width: 0px;"/>
  <path d="M226.22,360.59c-.1,3.12-2.13,4.8-4.61,6.14.12-3.11,2.14-4.8,4.61-6.14Z" style="fill: #ea9d3f; stroke-width: 0px;"/>
  <path d="M238.6,343.58c-.1,3.12-2.13,4.8-4.6,6.14.11-3.12,2.13-4.79,4.6-6.14Z" style="fill: #ea9d3f; stroke-width: 0px;"/>
  <path d="M531.1,987.27c2.71-2.79,6.17-1.04,9.27-1.53-2.72,2.78-6.17,1.04-9.27,1.53Z" style="fill: #e6964f; stroke-width: 0px;"/>
  <path d="M902.47,758.26c.11-3.13,2.17-4.81,4.6-6.21-.06,3.16-2.13,4.84-4.6,6.21Z" style="fill: #ea9d3f; stroke-width: 0px;"/>
  <path d="M897.78,764.41c.21-3.08,2.19-4.81,4.68-6.15-.15,3.12-2.12,4.86-4.68,6.15Z" style="fill: #ea9d3f; stroke-width: 0px;"/>
  <path d="M249.44,329.66c-.11,3.11-2.14,4.78-4.6,6.13.1-3.12,2.12-4.8,4.6-6.13Z" style="fill: #ea9d3f; stroke-width: 0px;"/>
  <path d="M308.23,902.2c-1.02-.53-2.03-1.06-3.05-1.59-5.34-5.48-12.08-9.15-18.01-13.87-.59-.35-1.14-.76-1.65-1.21-2.18-2.11-4.41-4.16-7.24-5.4-1.53-.91-2.74-2.14-3.72-3.61-5.25-5.82-10.74-11.39-16.63-16.57-2.03-1.52-3.85-3.25-5.17-5.45-2.95-6.05-7.94-10.59-11.8-15.96-4.91-6.84-9.08-14.13-13.17-21.47-13.73-25.45-24.96-51.89-31.56-80.13-3.67-15.72-5.33-31.74-7.26-47.74-1.43-11.81-1.65-23.59-1.34-35.39.63-24.39,4.5-48.34,9.4-72.23,6.8-33.19,18.85-64.56,32.66-95.2,11.6-25.73,26.19-49.9,42.93-72.82,8.3-11.37,16.07-23.17,24.81-34.23,6.49-8.21,13.13-16.4,20.48-23.83,14.44-14.59,26.49-31.59,43.38-43.7,6.55-4.7,11.61-10.77,17.24-16.3-1.15-2.24-4.43-1.52-4.7-3.89-1.3-11.43-7.94-5.31-11.26-2.61-14.66,11.93-29.45,23.7-43.44,36.48-32.54,29.74-60.43,63.51-85.01,99.77-20.89,30.82-38.49,63.66-52.96,98.23-12.85,30.69-21.12,62.67-30.64,94.33-.58,1.91-1.31,3.78-2.16,6.22-1.43-7.85-1.36-12.31.07-18.24,1.39-5.73,2.55-11.52,4.19-17.17.82-2.81.88-5.56.87-8.39-1.47-1.61-1.69-3.51-1.27-5.55.56-2.24,1.47-4.34,2.75-6.26,2.27-3.04,2.84-6.55,2.84-10.22.39-4.59,2.16-8.81,3.55-13.13.81-2.08,1.6-4.16,2.97-5.95,2.78-3.36,3.92-7.33,4.3-11.59.21-2.52.84-4.92,1.98-7.17,1.36-2.41,2.48-4.93,3.23-7.61.22-.67.49-1.32.8-1.95,3.12-6.7,6.06-13.48,8.71-20.39,2.02-4.2,4.14-8.35,6.1-12.57,2.59-4.26,4.03-9.2,7.47-12.97,2.58-1.97,3.94-4.64,4.45-7.81,5.87-13.5,14.59-25.34,22.19-37.82,12.19-20.01,26.79-38.28,41.4-56.53.72-.9,1.54-1.7,2.43-2.43,12.05-11.29,21.8-24.68,33.53-36.29,29.34-29.06,60.23-56.32,94.48-79.42,39.6-26.7,81.06-50.01,125.78-67.36,32.78-12.72,66.19-23.04,100.69-29.59,12.1-2.3,24.19-5.11,36.59-5.75,3.99-.11,8.03.38,11.92-.97,1.64-.4,3.31-.55,4.99-.6,5.08-.28,10.24.61,15.22-1.04,3.46-.69,6.96-.5,10.46-.57,4.82.13,9.64-.18,14.45.35.88.1,1.74.31,2.58.57,10.05,1.39,20.15.22,30.22.65,1.7.03,3.39.16,5.04.55,3.07,1.15,6.31,1.04,9.51,1.18,1.21.07,2.39.27,3.57.56,2.68.98,5.55.82,8.31,1.33,5.84,1.95,12.69.09,17.84,4.67,12.51,3.55,25.14,6.72,37.51,10.73,31.95,10.37,62.07,24.28,88.93,44.96,13.48,10.38,26.83,20.68,37.21,34.32,1.64,2.16,5.66,4.15-.01,6.65-2.02.89-.45,3,.34,4.68,4.45,9.53,11.83,17.13,17.1,26.16,4.02,6.9,8.77,13.28,9.44,21.63.14,1.7.77,4.08,2,4.87,8.61,5.56,6.31,15.01,8.46,22.84.48,1.73.4,3.9-1.7,4.61-1.74.59-3.1-1.05-3.49-2.36-5.21-17.79-20.15-26.79-33.26-37.63-13.23-10.95-25.7-22.83-38.82-33.92-19.08-16.14-40.32-28.8-62.57-40.29-22.2-11.47-45.89-17.89-69.61-24.01-24.98-6.44-50.79-8.68-76.55-11.13-18.87-1.79-37.41.23-56.09.51-5.67.08-11.32,1.48-16.97,2.28.03.73.05,1.46.08,2.19,4.63,0,9.3.39,13.89-.06,46.52-4.54,92.12-.44,136.89,13.4,33.99,10.51,65.45,26.03,93.34,47.94,16.93,13.3,32.51,28.41,45.53,45.81,1.71,2.29,3.41,4.52,6.02,5.83,0,0,.14.2.14.2,23.81,34.26,40.55,71.51,47.85,112.77l.1.17c1.71,2.29-.34,5.29,1.45,7.56l.1.18c4.06,30.25,5.94,60.46,2.52,91.02-2.48,22.16-6.37,43.9-12.32,65.32-.55,1.98.25,4.17-1.08,5.98-2.62,6.57-5.11,13.19-6.24,20.22-2.52,5.47-3.7,11.43-6.11,16.94l-.06.1c-5.06,15.66-13.59,29.76-20.06,44.78l-.05.09c-1.42,3.12-2.49,6.42-4.59,9.21l-.06.08c-8.13,14.79-16.77,29.28-26.25,43.26l-.05.07c-7.71,11.71-16.11,22.92-24.71,33.98l-.04.06c-2.11,3.46-5.66,5.71-7.7,9.23l-.04.05c-20.69,23.68-42.42,46.26-66.8,66.26-27.74,22.76-57.65,42.12-89.28,58.95-52.51,27.93-107.76,48.48-166.41,58.39-57.09,9.65-114.11,8.81-170.15-8.18-4.41-1.34-8.55-3.66-13.3-3.83-1.55-.53-3.3-.38-4.7-1.4h0c-10.06-5.27-20.37-9.98-30.96-14.07-1.41-.42-2.84-.78-3.9-1.9-5.98-4.7-12.78-8.08-19.33-11.87Z" style="fill: #eeac4a; stroke-width: 0px;"/>
  <path d="M153.54,574.1c-.02,2.05-.04,4.1-.06,6.15-3.92-.31-1.55,3.46-3.06,4.71-3.66,12.14-6.25,24.5-7.72,37.1-.01,1.05-.02,2.09-.03,3.14-3.57,10-3.41,20.57-4.61,30.92v.02c-1.96,18.37-2.71,36.73-1.99,55.25.71,18.27,3.14,36.21,6.54,54.09.14.75.09,1.54.05,2.32-.11,2.22.68,5.42-2.22,5.8-2.53.34-3.49-2.68-4.28-4.83-3.5-9.52-4.85-19.63-5.79-29.52-5.56-58.68-1.63-116.28,14.82-173.5,11.3-39.29,29.44-75.22,45.58-112.22,5.49-12.58,14.8-22.9,21.65-34.72,7.22-12.45,13.68-25.39,22.55-36.84,8.01-10.35,14.94-21.51,23.69-31.32,7.56-8.47,12.18-19.1,19.9-27.49,1.55-1.69,2.55-3.93,4.36-5.4,19.12-15.54,31.67-36.99,49.12-54.14,16.39-16.1,33.13-31.71,51.25-45.77,46.93-36.45,98.06-65.47,153.91-85.97,37.2-13.65,75.66-22.04,114.89-27.06,19.17-2.45,38.44-3.93,57.79-3.17,38.49,1.5,76.13,7.52,112.63,20.37,32.1,11.31,61.31,27.8,88.55,47.91,16.42,12.13,30.24,27.1,44.02,42.06,10.32,13.92,20.64,27.85,30.96,41.77,0,0,.04.05.04.05,2.24,3.87,7.51,6.61,4.64,12.4-9.45-6.53-14.61-16.92-22.41-24.99-11.54-11.96-24.51-22.3-36.41-33.82,6.98-1.71,10.74,3.68,15.03,7.28,3.63,3.05,6.78,6.71,8.48,8.47-6.25-5.71-13.06-14.12-20.75-21.68-38.17-37.53-83.14-62.73-134.96-76.25-38.28-9.98-77.18-12.91-116.44-11.5-36.34,1.3-71.15,10.97-105.7,21.52-4.45,1.36-8.28,4.15-12.38,6.32-1.98,1.05-4.51,2.38-3.17,5.27,1.09,2.36,3.59,1.69,5.53,1.3,11.61-2.35,23.27-4.43,34.94-6.48,20.81-3.66,41.78-5.84,62.82-7.73,14.93-1.34,29.84-1.55,44.77-1.38,68.26.81,132.69,16.22,192.08,50.7,6.47,3.76,12.61,8.02,18.75,12.29,2.44,1.7,5.5,3.24,4.79,7.16-12.76-6.03-23.61-15.17-36.14-21.67-28.36-14.69-57.69-26.46-89.16-32.46-31.75-6.41-63.92-9.45-96.21-9.02-22.78.3-45.53,2.79-68.17,6.28-45.54,7.02-88.96,20.91-131.33,38.5-30.03,12.47-58.31,28.34-85.86,45.52-46.35,28.91-87.88,63.72-125.46,103.25-8.82,9.28-17.29,18.96-25.34,28.97-.52.52-1.05,1.04-1.57,1.56-9.6,7.62-16.47,17.72-23.44,27.46-15.56,21.74-29.99,44.26-42.4,68.04-3.3,6.33-7.4,12.25-9.88,19.02-1.22,4.56-3.17,8.76-6.21,12.41-3.39,7.08-6.3,14.36-9.27,21.61l-.03.04c-1.4,2.41-1.8,5.22-3.07,7.68-.53,2.57-1.06,5.15-1.59,7.72-1.39,1.14-1.58,2.98-2.55,4.37-1.45,4.33-4.38,8.07-5.13,12.68-1.05,4.63-2.1,9.26-3.15,13.89-2.2,1.48-.35,4.58-2.44,6.12-1.48,3.03-3.07,6.02-3.69,9.39Z" style="fill: #ea8c15; stroke-width: 0px;"/>
  <path d="M925.65,202.7c-6.23-7.47-14.82-11.94-22.91-16.63-42.42-24.59-87.82-40.53-136.64-47.06-28.39-3.8-56.81-5.43-85.28-4.09-18.08.85-36.15,3.08-54.2,5.32-20.12,2.5-39.83,6.84-59.73,10.25-4.13.71-7.08,1.28-8.57-3.28-1.44-4.43,2.26-6,4.95-7.53,11.9-6.81,24.94-10.9,38.21-13.63,15.8-3.25,30.95-8.94,47.12-10.9,28.11-3.4,56.11-4.8,84.43-2.56,18.95,1.5,37.65,3.89,56.2,7.82,42.9,9.09,81.5,27.63,116.89,53.22,19.94,14.42,36.31,32.56,52.6,50.77.81.91,1.15,2.24,1.14,4.07-9.41-6.98-16.4-17.2-27.99-21.07-2.28-1.3-5.08-1.91-6.24-4.7Z" style="fill: #e37513; stroke-width: 0px;"/>
  <path d="M267.98,362.09c1.46-5.81,6.34-9.33,9.95-13.39,27.49-30.99,57.17-59.62,90.17-84.89,31.52-24.13,64.75-45.27,99.86-63.73,28.54-15.01,58.47-26.2,88.97-36.38,22.44-7.49,45.18-13.46,68.44-17.3,20.68-3.41,41.53-5.58,62.44-7.53,19.38-1.81,38.47-.19,57.62.65,18.56.81,37.07,3.31,54.93,9.05-2.59,0-5.17,0-7.76.01-6.2-.93-12.56-.95-18.56-3.11-2.31-1.9-5.42.27-7.75-1.54-1.03,0-2.06,0-3.09,0-2.85-2.01-6.43.38-9.3-1.53-1.54,0-3.09-.01-4.63-.02-7.78-1.71-15.67-.32-23.49-.81-3-.19-6.11.75-9-.73h0c-5.16-1.32-10.31-1.31-15.47,0-3.61,0-7.22.01-10.82.02-5,2.09-10.49-.66-15.48,1.53-1.55,0-3.09.01-4.64.02-3.94,2.03-8.45-.59-12.38,1.53-18.53,2.34-36.88,5.61-55.09,9.77-48.61,11.11-94.9,28.51-138.87,51.81-38.82,20.57-75.78,44.13-109.56,72.44-20.88,17.5-40.94,35.88-59.94,55.4-9.1,9.35-16.26,20.49-26.54,28.74Z" style="fill: #e9973b; stroke-width: 0px;"/>
  <path d="M990.7,266.21c.82-5.02-4.09-7.89-4.64-12.4,6.12,2.84,7.28,8.58,8.83,14.35-2.06.07-3.32-.57-4.19-1.95Z" style="fill: #eba431; stroke-width: 0px;"/>
  <path d="M955.05,211.99c-7.77-7.51-15.58-14.99-23.31-22.55-28.78-28.15-63.08-47.6-100.05-62.5-29.44-11.87-60.47-18.11-91.88-21.45-37.69-4.01-75.14-1.13-112.58,5.28-28.46,4.87-56.32,11.52-83.42,21.07-32.51,11.46-63.78,25.66-93.52,43.51-26.04,15.64-51.58,31.88-74.88,51.29-28.86,24.04-55.9,50.01-77.79,80.84-1.33,1.87-2.59,4.11-4.45,5.24-12.83,7.77-19.92,20.34-27.48,32.48-5.02,8.06-11.43,15.37-17.41,22.29-19.36,22.41-30.99,49.54-47.8,73.45-12.22,17.38-19.36,37.96-28.18,57.39-4.78,10.53-9.81,21.01-13.65,31.89-11.61,32.9-20.27,66.56-25.47,101.14-2.81,18.67-2.41,37.37-3.02,56.1-.83,25.42,1.54,50.48,6.34,75.38.62,3.23,1.37,6.49,4.48,10.76.55-11.09-1.96-20.35-3.42-29.55-3.93-24.82-3.46-49.64-1.17-74.49.41-4.47-1.59-9.31,1.64-13.44,1.13,11.86-1.83,23.53-1.59,35.38,1.08,52.37,10.5,102.77,32.52,150.74,15.5,33.75,34.74,64.64,61.14,90.9.9.89,1.55,2.03,2.32,3.05.71,1.27,1.43,2.53,3,5.32-10.28-6.01-17.78-13.06-24.6-20.33-13.67-14.55-26.66-29.91-37.05-47-14.23-23.42-27.34-47.38-36.69-73.46-8.42-23.48-14.73-47.19-17.61-71.89,1.05-7.77-1.4-15.3-1.61-23.01-1.36-50.66,4.54-100.32,19.4-148.88,8.36-27.31,17.9-54.1,29.9-80.08,17.07-36.96,36.74-72.37,59.94-105.81,14.49-20.89,30.75-40.35,47.18-59.75,19.79-23.38,41.52-44.77,64.29-65.03,27.42-24.4,56.95-46.19,88.29-65.44,29.4-18.06,59.97-33.58,91.95-46.77,34.44-14.2,70.19-23.04,106.47-29.86,31.91-5.99,64.51-7.22,96.78-4.81,48.95,3.65,96.11,15.07,140.1,38.13,34.35,18.01,64.53,41.09,90.54,69.76,1.24,1.37,2.4,2.7,2.35,4.68Z" style="fill: #eda023; stroke-width: 0px;"/>
  <path d="M227.79,817.06c4.49,1.94,5.62,6.57,7.71,10.22,5.43,9.53,13.86,16.95,18.6,26.92-2.92,1.04-3.22-1.88-4.65-3.09-.51-.52-1.03-1.03-1.54-1.55-1.38-2.19-3.19-4.06-4.65-6.19-.51-.52-1.02-1.03-1.54-1.55-4.4-6.01-8.4-12.28-12.37-18.57h0c-.51-2.06-1.03-4.13-1.54-6.19Z" style="fill: #ea9d3f; stroke-width: 0px;"/>
  <path d="M142.69,622.06c-.18-12.94,2.63-25.26,7.72-37.1-2.57,12.37-5.15,24.73-7.72,37.1Z" style="fill: #eda023; stroke-width: 0px;"/>
  <path d="M138.04,656.12c0-10.54-.5-21.15,4.61-30.92-1.54,10.31-3.07,20.62-4.61,30.92Z" style="fill: #eda023; stroke-width: 0px;"/>
  <path d="M241.71,861.92c-11.52-13.07-18.31-28.71-25.18-45.2,3.78,2.05,7.26,5.7,9.7,9.6,28.86,46.33,68.88,79.45,118.74,101.32,31.79,13.94,64.81,22.64,99.34,25.62,33.87,2.92,67.57,2.05,101.32-2.79,62.83-9.01,121.43-30.11,177.11-59.87,31.78-16.98,60.95-37.85,88.91-60.59,20.26-16.47,38.86-34.67,56.25-53.88,27.24-30.1,51.96-62.28,70.41-98.79,5.1-10.1,10.56-20.03,15.78-30.08,3.43-6.61,6.84-13.2,8.65-20.54.98-3.97,2.06-8.31,7.14-10.66-.73,10.92-5.73,19.7-9.29,28.91-18.3,47.42-45.37,89.64-76.46,129.56-10.26,13.18-20.76,26.14-32.33,38.12-37.26,38.57-78.12,72.74-124.24,100.46-32.49,19.53-66.1,36.44-102.23,48.32-12.7,4.18-25.25,8.5-38.52,10.37.37-4.23,4.09-4.1,6.79-4.86,59.4-16.84,113.84-43.9,164.06-79.61,7.03-5,13.07-11.2,19.12-17.43-10.32,5.29-19.81,11.81-29.83,17.44-64.73,36.39-133.35,61.63-207.25,70.46-67.84,8.11-134.16,1.84-197.33-26.48-34.26-15.36-64.92-35.78-90.67-63.32-2.67-2.85-4.87-7.02-9.99-6.09Z" style="fill: #e88314; stroke-width: 0px;"/>
  <path d="M241.71,861.92c.32-7.21,3.79-2.6,5.57-1.22,6.08,4.71,10.66,10.97,16.22,16.29,37.6,35.95,82.84,57.73,132.41,70.92,22.96,6.11,46.63,8.9,70.54,10.16,60.47,3.19,118.75-6.87,175.81-26.2,45.68-15.47,88.98-35.78,129.43-62.11,2.82-1.83,6.86-6.04,9.11-3.25,2.74,3.4-2.61,5.97-5,8.18-19.71,18.27-42.61,32.04-65.69,45.44-34.17,19.83-70.48,34.8-108.19,46.5-5.07,1.57-10.71,1.63-15.12,5.16-1.93,1.06-3.93,1.8-6.19,1.56-6.53,2.29-13.51,2.63-20.12,4.63h-.01c-3.4,2-7.43-.54-10.82,1.55h-.02c-2.86,1.92-6.42-.45-9.26,1.54l-3.12.02c-3.4,1.97-7.42-.54-10.81,1.52-1.56.01-3.11.02-4.67.03-3.4,1.95-7.41-.51-10.8,1.5-15.96,0-31.92.18-47.87-.02-13.58-.17-26.71-4.6-40.33-4.59-24.97-4.77-49.03-12.2-72.24-22.81-30.42-13.91-57.43-32.42-80.97-56.12-1.98-3.6-5.79-5.68-7.77-9.28-2.24-7.7-9.1-12.06-13.36-18.34-2.45-3.61-4.82-7.19-6.75-11.07Z" style="fill: #e37117; stroke-width: 0px;"/>
  <path d="M367.06,930.02c5.91-.52,10.9,2.68,16.2,4.32,41.09,12.73,83.35,14.78,125.74,12.39,44.49-2.5,87.5-13.2,129.33-28.51,37.94-13.89,74.3-31.1,108.97-51.88,40.35-24.19,76.16-53.91,108.18-88.27,5.76-6.18,10.58-13.23,17.57-18.22-1.2,5.31-5.35,8.85-8.76,12.3-21.85,22.07-42.95,44.95-67.93,63.74-24.84,18.69-50.83,35.5-78.22,50.21-29.92,16.07-60.85,29.81-93.18,40.18-23.14,7.42-46.47,14.36-70.67,17.69-2.31,1.81-5.42-.36-7.72,1.53-.52,0-1.05.01-1.57.02-2.86,1.92-6.42-.46-9.26,1.53-1.04,0-2.07.01-3.11.02-2.32,1.81-5.42-.36-7.72,1.53-1.55,0-3.1.01-4.66.02-4.47,2-9.45-.57-13.91,1.53-1.04,0-2.07,0-3.11.01-13.41,1.23-26.82,1.23-40.22,0-.52,0-1.04,0-1.55,0-7.1-2.2-14.55.58-21.66-1.54h0c-3.39-2.08-7.43.45-10.83-1.54h0c-8.3-1.29-16.59-2.64-24.76-4.64h0c-2.3-1.9-5.42.26-7.74-1.55h0c-3.51-1.38-7.29-1.82-10.84-3.09-3.93.1-7.66-.51-10.83-3.09-2.22-2.14-6.75-.45-7.73-4.65Z" style="fill: #ea9d3f; stroke-width: 0px;"/>
  <path d="M969.01,581.78c1.34-14.06,6.03-27.44,8.46-41.3,5.66-32.28,7.08-64.63,4.22-97.28-.69-7.89-2.76-15.72-1.81-23.74,3.68,9.41,3.42,19.51,4.37,29.26,3.68,37.78-.54,75.05-9.14,111.89-1.67,7.15-2.72,14.51-6.11,21.17Z" style="fill: #ea9d3f; stroke-width: 0px;"/>
  <path d="M978.24,411.55c-3.13-11.26-6.07-22.57-9.42-33.76-7.63-25.46-20.08-48.63-34.12-71.03-1.6-2.54-4.16-4.64-4.3-7.99,8.89,6.19,11.82,16.53,16.99,25.19,14.67,24.58,24.15,51.29,30.36,79.18.6,2.71.36,5.6.5,8.41Z" style="fill: #ea9d3f; stroke-width: 0px;"/>
  <path d="M905.59,716.45c7.95-14.9,16.73-29.31,26.25-43.26-6.44,15.82-15.38,30.12-26.25,43.26Z" style="fill: #ea9d3f; stroke-width: 0px;"/>
  <path d="M936.54,663.82c-.38-3.27,1.44-5.83,2.74-8.56,5.78-12.07,11.55-24.15,17.32-36.22-3.56,16.33-11.88,30.52-20.06,44.78Z" style="fill: #ea9d3f; stroke-width: 0px;"/>
  <path d="M987.05,554.11c.14,11.51-3.11,22.21-8.32,32.43,4.39-10.42,3.18-22.19,8.32-32.43Z" style="fill: #e88314; stroke-width: 0px;"/>
  <path d="M880.83,750.49c7.18-12.09,15.68-23.23,24.71-33.98-6.25,12.77-14.62,24-24.71,33.98Z" style="fill: #ea9d3f; stroke-width: 0px;"/>
  <path d="M331.47,914.56c10.95,3.88,22.25,7.06,30.95,15.46-1.71-.03-3.53.28-4.65-1.53-2.42-1.43-5.25-1.83-7.73-3.11h0c-6.13-3.7-14.05-4.35-18.57-10.82Z" style="fill: #ea9d3f; stroke-width: 0px;"/>
  <path d="M258.74,858.85c6.31,5.03,11.99,10.7,17.02,17.02-1.03.95-2.06.87-3.09,0-5.26-4.02-9.91-8.66-13.92-13.93-.87-1.03-.95-2.06,0-3.09Z" style="fill: #ea9d3f; stroke-width: 0px;"/>
  <path d="M331.47,914.56c6.19,3.61,12.38,7.22,18.57,10.82-11.3-3.19-21.68-8.22-30.95-15.47,4.02-1.74,6.24,1.91,9.28,3.1.67,1.24,1.83,1.51,3.1,1.55Z" style="fill: #e9973b; stroke-width: 0px;"/>
  <path d="M463,950.14c13.41,0,26.82,0,40.22,0-10.89,3.41-22.06.71-33.08,1.48-2.41.17-5.15.85-7.14-1.48Z" style="fill: #e9973b; stroke-width: 0px;"/>
  <path d="M286.6,885.14c6.91,4.29,14.83,7.37,18.59,15.46-3.34-.27-5.45-2.62-7.76-4.61-2.14-1.44-3.98-3.29-6.19-4.65-1.8-1.88-5.29-2.48-4.64-6.19Z" style="fill: #ea9d3f; stroke-width: 0px;"/>
  <path d="M328.36,913c-3.09-1.03-6.19-2.07-9.28-3.1-2.32-1.99-5.35-2.77-7.75-4.63-1.04-1.03-2.07-2.05-3.11-3.08,8.11.99,14.17,5.82,20.14,10.81Z" style="fill: #ea9d3f; stroke-width: 0px;"/>
  <path d="M229.34,823.25c5.25,5.44,9.42,11.6,12.37,18.57-5.82-5.06-9.92-11.27-12.37-18.57Z" style="fill: #e9973b; stroke-width: 0px;"/>
  <path d="M404.2,942.41c8.47.37,16.67,2.19,24.76,4.64-8.56.11-16.88-1.08-24.76-4.64Z" style="fill: #e9973b; stroke-width: 0px;"/>
  <path d="M560.5,977.99c6.34-3.13,13.21-3.97,20.12-4.63-6.19,3.78-13.17,4.13-20.12,4.63Z" style="fill: #e88314; stroke-width: 0px;"/>
  <path d="M439.79,948.59c7.2.77,14.63-1.71,21.66,1.54-7.2-.76-14.63,1.71-21.66-1.54Z" style="fill: #e9973b; stroke-width: 0px;"/>
  <path d="M956.66,618.94c1.01-6.02,2.25-11.95,6.11-16.94-1,6.02-2.22,11.96-6.11,16.94Z" style="fill: #ea9d3f; stroke-width: 0px;"/>
  <path d="M258.74,858.85c0,1.03,0,2.06,0,3.09-3.74-3.06-8.13-5.56-9.29-10.83,1.55,1.03,3.1,2.06,4.65,3.09,1.02,2.08,2.56,3.63,4.64,4.65Z" style="fill: #e9973b; stroke-width: 0px;"/>
  <path d="M272.66,875.87h3.09c1.03,1.03,2.07,2.06,3.1,3.09,1.93,1.49,4.15,2.7,5.03,5.21-.13.33-.26.65-.39.98-5.27-1.16-7.77-5.55-10.83-9.29Z" style="fill: #e9973b; stroke-width: 0px;"/>
  <path d="M261.81,891.33c3.3,2.5,7,4.66,7.77,9.28-3.75-2.43-6.78-5.57-9.3-9.23.51-.02,1.02-.04,1.53-.05Z" style="fill: #e9973b; stroke-width: 0px;"/>
  <path d="M873.09,759.78c.72-4.62,4.4-6.76,7.7-9.23-.73,4.61-4.41,6.76-7.7,9.23Z" style="fill: #ea9d3f; stroke-width: 0px;"/>
  <path d="M367.06,930.02c2.02,2.47,6.01,1.67,7.73,4.65-4.52-.49-8.91-1.35-12.38-4.65,1.55,0,3.1,0,4.65,0Z" style="fill: #e9973b; stroke-width: 0px;"/>
  <path d="M207.66,804.68c-3.28-3.47-4.16-7.85-4.63-12.37,3.32,3.46,4.19,7.84,4.63,12.37Z" style="fill: #e9973b; stroke-width: 0px;"/>
  <path d="M506.33,950.13c4.35-3.08,9.29-.87,13.91-1.53-4.36,3.07-9.29.88-13.91,1.53Z" style="fill: #e9973b; stroke-width: 0px;"/>
  <path d="M481.58,987.26c-4.62-.62-9.54,1.52-13.91-1.48,4.63.58,9.54-1.51,13.91,1.48Z" style="fill: #ea9d3f; stroke-width: 0px;"/>
  <path d="M286.6,885.14c1.55,2.06,3.09,4.13,4.64,6.19-3.92-.38-5.81-3.31-7.74-6.18,0,0,0-.02,0-.02,1.03-.95,2.06-.85,3.09,0h0Z" style="fill: #e9973b; stroke-width: 0px;"/>
  <path d="M385.62,937.76c3.94-.1,7.67.49,10.84,3.09-3.93.1-7.67-.5-10.84-3.09Z" style="fill: #e9973b; stroke-width: 0px;"/>
  <path d="M931.9,673.11c.62-3.52,2.04-6.65,4.59-9.21-.01,3.82-1.03,7.14-4.59,9.21Z" style="fill: #ea9d3f; stroke-width: 0px;"/>
  <path d="M549.67,979.54c3.26-2.97,7.22-.96,10.82-1.54-3.26,2.93-7.22.96-10.82,1.54Z" style="fill: #e88314; stroke-width: 0px;"/>
  <path d="M526.46,982.62c3.26-2.94,7.21-.95,10.81-1.52-3.26,2.92-7.21.95-10.81,1.52Z" style="fill: #e88314; stroke-width: 0px;"/>
  <path d="M510.99,984.15c3.27-2.9,7.21-.94,10.8-1.5-3.27,2.89-7.2.96-10.8,1.5Z" style="fill: #e88314; stroke-width: 0px;"/>
  <path d="M428.95,947.05c3.6.59,7.57-1.42,10.83,1.54-3.6-.58-7.57,1.41-10.83-1.54Z" style="fill: #e9973b; stroke-width: 0px;"/>
  <path d="M311.34,905.27c3.2.51,6.11,1.51,7.75,4.63-3.19-.53-6.09-1.54-7.75-4.63Z" style="fill: #e9973b; stroke-width: 0px;"/>
  <path d="M535.74,947.03c2.71-2.78,6.17-1.04,9.26-1.53-2.71,2.78-6.17,1.05-9.26,1.53Z" style="fill: #e9973b; stroke-width: 0px;"/>
  <path d="M291.23,891.34c3.13.12,4.84,2.16,6.19,4.65-3.12-.14-4.83-2.17-6.19-4.65Z" style="fill: #e9973b; stroke-width: 0px;"/>
  <path d="M540.39,981.08c2.71-2.79,6.17-1.05,9.26-1.53-2.72,2.76-6.17,1.06-9.26,1.53Z" style="fill: #e88314; stroke-width: 0px;"/>
  <path d="M243.25,843.38c2.5,1.35,4.53,3.05,4.65,6.19-2.48-1.36-4.51-3.07-4.65-6.19Z" style="fill: #e9973b; stroke-width: 0px;"/>
  <path d="M350.04,925.38c3.03-.09,5.74.63,7.73,3.11-3.02.07-5.73-.65-7.73-3.11Z" style="fill: #e9973b; stroke-width: 0px;"/>
  <path d="M546.57,945.49c2.17-2.56,5.11-1.17,7.72-1.53-2.17,2.56-5.11,1.18-7.72,1.53Z" style="fill: #e9973b; stroke-width: 0px;"/>
  <path d="M524.9,948.58c2.17-2.56,5.12-1.17,7.72-1.53-2.17,2.56-5.12,1.17-7.72,1.53Z" style="fill: #e9973b; stroke-width: 0px;"/>
  <path d="M979.79,419.29c-2.52-2.13-1.15-5.01-1.45-7.56,2.52,2.13,1.16,5.01,1.45,7.56Z" style="fill: #ea9d3f; stroke-width: 0px;"/>
  <path d="M218.48,829.45c-2.77-1.18-3.21-3.53-3.08-6.17,2.05,1.55,2.87,3.71,3.08,6.17Z" style="fill: #e9973b; stroke-width: 0px;"/>
  <path d="M396.46,940.86c2.61.37,5.57-1.03,7.74,1.55-2.61-.37-5.57,1.02-7.74-1.55Z" style="fill: #e9973b; stroke-width: 0px;"/>
  <path d="M485.57,944.21c-46.9-.52-87.78-6.23-126.99-21.86-39.18-15.62-73.21-38.74-100.98-70.35-27.39-31.18-46.29-67.39-56.53-107.58-4.46-17.51-6.86-35.62-9.13-53.68-2.56-20.38-1.18-40.59.52-60.74,1.65-19.59,5.91-38.87,10.5-58.06,6.65-27.8,15.83-54.72,28.32-80.31,20.09-41.15,44.39-79.54,74.44-114.48,15.4-17.9,32.01-34.47,48.81-50.81,18.73-18.22,39.53-34.16,61.47-48.61,9.59-6.32,19.2-13.96,29.28-17.85,14.93-5.78,27.03-16.17,42.33-21.25,16.68-5.54,32.27-14.48,48.97-20.41,27.08-9.6,54.83-16.6,83.1-21.85,10.46-1.94,20.94-1.25,31.4-2.51,13.69-1.65,27.63-3.19,41.52-1.88,12.46,1.18,25.1.67,37.31,4.39,8.58,2.62,17.65,2.76,26.46,4.54,28.07,5.68,53.55,17.6,78.48,31.02,26.62,14.32,48.3,34.77,68.75,56.54,7.33,7.81,13.68,16.69,19.57,25.68,10.4,15.88,22.76,30.56,30.97,47.81,11.88,24.95,20,51.02,22.76,78.7,1.5,15.07,3.52,30.12,2.85,45.26-1.28,28.98-5.55,57.5-12.49,85.75-8.21,33.41-21.04,65.03-36.63,95.37-13.84,26.93-30.46,52.45-49.57,76.09-10.8,13.36-22.13,26.38-34.08,38.71-28.95,29.87-61.87,54.78-97.91,75.52-34.97,20.12-70.48,39.23-108.09,54.07-34.97,13.79-71,24.15-108.24,29.03-17.19,2.25-34.59,5.29-47.16,3.76Z" style="fill: #f2c262; stroke-width: 0px;"/>
  <path d="M190.68,478.17c1.18-11.8,9.28-20.35,14.51-30.19,10.46-19.68,22.36-38.63,35.48-56.57,7.35-10.05,13.48-21.97,25.73-27.76-22.48,27.51-42.45,56.76-60.32,87.45-1.29,2.22-2.85,4.26-3.07,6.92-1.94,2.36-2.75,5.4-4.66,7.77-2.56,4.13-5.11,8.25-7.67,12.38Z" style="fill: #eda023; stroke-width: 0px;"/>
  <path d="M716.78,140.84c8.44,0,16.87-.06,25.31.03,2.45.03,5.18-.83,7.19,1.51-8.44,0-16.87.05-25.31-.04-2.45-.03-5.18.84-7.19-1.5Z" style="fill: #ea9d3f; stroke-width: 0px;"/>
  <path d="M175.2,512.2c1.54-7.87,4.46-15.15,9.27-21.61-1.9,7.72-4.59,15.09-9.27,21.61Z" style="fill: #eda023; stroke-width: 0px;"/>
  <path d="M167.42,530.8c.05-2.01,1.09-3.04,3.08-3.15-.42,4.57-1.27,8.97-4.66,12.42-1.98-3.52.8-6.22,1.58-9.27Z" style="fill: #e9973b; stroke-width: 0px;"/>
  <path d="M167.42,530.8c-.53,3.09-1.05,6.18-1.58,9.27-1.01,1.55-2.01,3.09-3.02,4.64-.09-5.17,1.11-9.92,4.6-13.91Z" style="fill: #eda023; stroke-width: 0px;"/>
  <path d="M675,142.38c4.9-3.14,10.34-.86,15.48-1.53-4.9,3.11-10.34.85-15.48,1.53Z" style="fill: #ea9d3f; stroke-width: 0px;"/>
  <path d="M701.3,140.83c5.16-2.41,10.32-2.42,15.47,0-5.16,0-10.31,0-15.47,0Z" style="fill: #ea9d3f; stroke-width: 0px;"/>
  <path d="M156.6,563.3c1.52-1.25-.88-5.05,3.07-4.7.14,3.96-.35,7.74-3.13,10.86-1.14-2.06-1.02-4.11.05-6.16Z" style="fill: #e9973b; stroke-width: 0px;"/>
  <path d="M286.59,885.14c-1.03,0-2.06,0-3.09,0-1.55-2.06-3.1-4.12-4.65-6.18,3.93.37,5.81,3.31,7.74,6.18Z" style="fill: #ea9d3f; stroke-width: 0px;"/>
  <path d="M156.6,563.3c-.02,2.05-.03,4.11-.05,6.16-1,1.55-2.01,3.1-3.01,4.64-.15-3.93.48-7.65,3.06-10.8Z" style="fill: #eda023; stroke-width: 0px;"/>
  <path d="M657.98,143.92c3.81-3.07,8.27-.88,12.38-1.53-3.82,3.04-8.27.89-12.38,1.53Z" style="fill: #ea9d3f; stroke-width: 0px;"/>
  <path d="M198.35,465.79c.58-3.17,1.58-6.09,4.66-7.77-.5,3.22-1.5,6.15-4.66,7.77Z" style="fill: #e9973b; stroke-width: 0px;"/>
  <path d="M172.1,519.93c-.11-3.02.61-5.7,3.07-7.68.13,3.02-.64,5.68-3.07,7.68Z" style="fill: #eda023; stroke-width: 0px;"/>
  <path d="M753.9,142.4c3.1.48,6.57-1.26,9.3,1.53-3.1-.48-6.57,1.23-9.3-1.53Z" style="fill: #ea9d3f; stroke-width: 0px;"/>
  <path d="M766.28,143.94c2.61.36,5.57-1.03,7.75,1.54-2.61-.36-5.57,1.01-7.75-1.54Z" style="fill: #ea9d3f; stroke-width: 0px;"/>
  <path d="M680.99,926.79c-2.97,4.77-6.54,6.45-9.86,8.15-33.06,17.04-68.02,28.64-104.24,36.9-36.69,8.36-73.93,9.51-111.07,7.28-30.45-1.83-60.14-9.27-88.63-21.04-22.51-9.3-43.01-21.8-62.57-36.07q-2.48-1.81-4.63-7.29c11.5,4.24,21.26,10.91,31.9,15.78,32.94,15.07,67.13,24.65,103.1,29.27,26.7,3.43,53.43,3.76,80.02,2.36,33.71-1.77,67-7.84,99.7-16.76,21.67-5.91,42.81-13.76,66.28-18.58Z" style="fill: #df580a; stroke-width: 0px;"/>
  <path d="M444.52,863.09c-.36-9.43,3.61-17.88,6.06-26.67,4.65-16.67,9.44-33.3,14.18-49.95.94-1.8-.73-3.46-.31-5.23,1.36-5.63-2.06-7.09-6.6-8-5.02-1.01-9.96-2.42-14.9-3.85-27.45-7.93-51.27-21.91-71.2-42.44-3.22-4-6.56-7.9-9.63-12.01-4.45-5.96-4.24-12.38,1.38-17.14,21.37-18.1,42.91-36,64.52-53.8,5.64-4.65,11.11-3.78,16.29,1.55,8.75,9.01,15.64,19.77,26.37,26.91,30.4,20.23,87.17,22.14,112.3-8.38,8.09-9.82,12.48-21.11,13.18-33.82.17-3.12.12-6.24-2.69-8.45-6.75-14.69-20.81-19.79-34.13-25.56-12.96-5.62-26.51-9.81-39.43-15.56-23.47-10.46-44.81-23.97-61.65-43.79-17.1-27.41-16.65-56.68-7.77-86.16,19.53-64.82,66.52-99.89,129.6-115.96,10.32-2.63,15.28-6.37,17.79-16.62,5.43-22.16,12.35-43.95,18.28-65.99,2.06-7.64,5.94-11.05,14.14-10.9,23.44.44,46.9.05,70.33,1.61,11.85.79,18.38,9.85,15.08,21.15-6.4,21.93-12.52,43.93-19,65.83-1.62,5.48-.51,7.69,5.28,9.79,31.19,11.29,54.04,33.15,73.12,59.5,3.15,4.34,2.64,8.06-1.39,11.46-22.43,18.92-44.87,37.83-67.28,56.78-4.02,3.4-7.54,3.64-11.27-.63-4.23-4.84-9.19-9.05-12.55-14.64-16.75-23.22-39.51-33.97-67.97-32.04-12.63.85-23.63,5.33-29.41,17.9-9.96,6.51-14.67,16.23-16.52,27.54-1.11,6.76,1.24,11.83,7.6,15.32,14.25,7.83,29.41,13.44,44.56,19.14,25,9.39,48.11,22.05,68.18,39.87,27.44,24.35,36.79,54.72,30.43,90.51-7.29,41.08-25.15,76.41-56.29,104.6-4.18,3.79-8.76,7.13-13.15,10.68-22.66,5.2-43.95,14.77-66.37,20.75-4.98,1.33-10.03,2.42-14.92,4.07-4.04,1.36-6.51,3.53-3.18,7.91,1.84,2.42,2.66,4.97,1.24,7.89-5.1,18.75-10.15,37.51-15.31,56.24-2.52,9.12-5.29,18.18-7.86,27.29-.85,3.03-1.77,5.92-4.82,7.49-1.62.75-3.11.17-4.29-.79-8.54-6.94-18.57-7.92-29.04-7.69-17.42.39-34.75-1.86-52.16-2.12-3.33-.05-6.77-.19-8.81-3.58Z" style="fill: #eaeaea; stroke-width: 0px;"/>
  <path d="M458.26,536.9c2.26.03,3.82,1.35,5.23,2.89,21.01,23.02,48.04,36.16,76.61,46.88,14.86,5.57,29.88,10.85,43.26,19.73,5.64,3.74,9.69,8.34,10.1,15.42-18.98-12.69-40.71-19.22-61.6-27.69-27.88-11.31-52.38-27.35-70.58-51.88-1.21-1.63-2.03-3.56-3.03-5.35Z" style="fill: #d2b8ae; stroke-width: 0px;"/>
  <path d="M566.81,786.25c.09-2.73-1.09-4.78-2.89-6.84-4.9-5.65-4.17-8.52,3.29-10.57,15.79-4.36,31.47-9.04,47.02-14.21,9.69-3.23,19.1-7.31,29.19-9.41,2.45-.51,4.46-.57,6.62.43-20.33,16.81-43.88,27.07-69.02,34.21-5,1.42-10.82,1.32-14.21,6.41Z" style="fill: #dac4bb; stroke-width: 0px;"/>
  <path d="M444.52,863.09c4.24,2.23,8.98,1.46,13.41,1.72,16.12.96,32.28,1.76,48.42,1.61,12.31-.11,23.46,1.78,32.47,10.84-.05.48-.07.96-.08,1.45-4.37,2.73-9.33,2.99-14.12,2.44-20.22-2.31-40.49-.8-60.73-1.3-4.32-.11-8.89.39-11.78-4-1.98-4.58-8.83-6.26-7.58-12.76Z" style="fill: #cda391; stroke-width: 0px;"/>
  <path d="M585.23,437.98c-.15-11.34,8.86-14.92,16.85-17.41,26.52-8.26,62.93,1.24,79.87,28.6.5.81.45,1.96.66,2.96-23.31-21.34-50.9-25.92-80.88-20.23-5.68,1.08-11.01,4.01-16.5,6.09Z" style="fill: #d7c0b6; stroke-width: 0px;"/>
  <path d="M371.74,726.95c8.57,4.71,15.32,11.85,23.21,17.48,19.33,13.8,40.97,22.28,63.97,26.86,8.37,1.67,9.35,4.94,7.16,11.63-.39,1.2-.89,2.36-1.34,3.54-1.69-2.7-4.52-2.91-7.28-3.63-28.87-7.54-54.75-20.47-75.23-42.75-3.79-4.12-7.01-8.75-10.5-13.14Z" style="fill: #ccaa9c; stroke-width: 0px;"/>
  <path d="M452.1,875.85c1.71.49,3.41,1.42,5.12,1.42,27.18.03,54.37-.24,81.52,1.45-3.48,6.05-9.89,4.95-15.09,5.36-20.42,1.6-40.91,2.51-61.28-.67-4.35-.68-9.46-1.51-10.27-7.56Z" style="fill: #df903e; stroke-width: 0px;"/>
</svg>