<?xml version="1.0" encoding="UTF-8"?>
<svg id="Layer_1" data-name="Layer 1" xmlns="http://www.w3.org/2000/svg" viewBox="0 0 995.36 1062.87">
  <path d="M892.75,800.96c-11.93,15.1-24.39,29.73-37.85,43.48-2.39,2.45-3.34,4.94-3.11,8.27,1.89,26.88,4.39,53.69,7.11,80.49,2.34,23.08,4.22,46.24,3.45,69.5-.06,1.91.35,4.06-1.36,5.61-8.4-3.06-16.82-2.92-25.36-.46-3.22.93-5.67,2.14-6.34,5.81-.81,4.48-2.91,7.95-8.09,8.18-5.64.25-11.02-1.97-12.22-7.19-1.59-6.93-5.7-9.82-11.63-11.64-.05-25.24-.11-50.49-.16-75.73,3.94.99,3.13,4.36,3.21,6.97.27,9.05.09,18.11.11,27.17.01,6.85-.15,13.7.09,20.54.09,2.59-1.19,6.92,2.52,7.03,2.68.08,2.49-4.2,2.5-6.73.2-37.34.16-74.67.04-112.01,0-2.61-.13-5.29-2.75-7.54-2.83,2.09-2.29,5.11-2.33,7.76-.15,10.6.11,21.21-.17,31.81-.07,2.76,1.08,6.46-3.2,7.64-.86-4.44,1.27-9.2-1.43-13.44-1.44-8.34-.45-16.74-.55-25.1-.17-15.02-.2-30.04-2.74-44.91-1.45-8.48-2.7-9.34-10.91-7.94-42.48,7.28-85.15,13.1-128.03,17.43-1.54.16-3.1.32-4.64.21-21.75-1.55-42.63,3.36-63.46,8.56-35.68,8.9-72.04,14.1-108.4,18.82-27.75,3.6-55.68,6.92-83.82,5.8-4.33-.17-7.94,2.7-12.22,2.1-1.88-2.26-1.53-5.01-1.52-7.62.06-18.8-.2-37.61-.19-56.41,0-3.77.34-7.47,1.27-11.17,2.16-8.57,6.91-13.36,16.18-15.02,25.03-4.47,48.94-13.7,73.88-18.61,20.17-3.98,40.57-7.19,61.15-7.34,51.54-.37,103.09-.13,154.64-.12,13.53,0,24.61-4.58,31.95-16.54,2.74-4.48,4.23-9.21,3.74-14.48.26-7.22-.49-14.42-.66-21.63,1.48-5.47.49-11.02.51-16.53.05-16.15.18-32.31-.04-48.46-.23-2.39.19-4.62,1.77-6.52,4.67.22,3.33,3.99,3.38,6.39.26,11.73.08,23.46.14,35.19.01,2.19-.38,4.41.22,6.34,20.14-7.24,39.61-16.1,60-22.63,17.15-5.49,31.71-14.53,42.87-29.51,11.7-15.7,21.92-32.13,30.89-49.44,1.02-1.97,1.83-4.23,3.64-5.49,13.06-9.1,17.94-23.88,25.27-36.82,7.63-13.46,14.06-27.59,21.1-41.39,1.11-2.18,1.87-4.49,2.5-6.84,6.63-24.77,9.02-49.74,7.03-75.5-1.82-23.55-9.67-45.3-16.15-67.53-4.77-16.37-10.57-32.34-19-47.24,4.41-7,.98-12.84-2.76-18.64-23.55-36.57-50.24-70.6-81.63-100.82-11.65-11.22-24.05-21.59-37.02-31.19-24.18-17.9-48.77-35.23-75.95-48.51-20.8-10.16-43.33-15.27-64.98-22.94-22.96-8.14-46.62-8.41-70.09-4.67-17.43,2.78-34.28,8.73-48.03,20.9-2.36,2.09-4.45,4.46-5.42,7.43-3.55,10.83-11.48,18.56-19.72,25.39-19.27,15.96-33.34,35.49-41.22,58.95-8.47,25.22-19.62,49.27-29.41,73.91-5.79,14.57-9.37,29.95-14.6,44.74-2.7,7.64-4.16,15.62-6.75,23.28-3.98.15-6.32-2.88-9.07-4.92-12.98-9.6-27.19-16.67-43.03-19.69-46.47-8.87-90.46,9.89-115.26,50.76-6.6,10.88-11.1,22.54-13.18,35.12-.43,2.62-1.01,5.2-1.9,7.71-8.67,20.51-9.38,41.66-4.33,63.01,6.17,26.1,19.48,47.78,41.94,63.08,30.4,20.7,62.05,20.07,94.34,4.79,8.26-3.91,15.44-9.43,22.41-15.26,2.25-1.88,4.1-4.01,5.24-6.72,4.95-6.06,12.58-8.63,18.14-14.02,3.93-3.81,8.19-7.23,11.61-11.6,1.57-2.01,3.14-5.07,6.79-3.35-.12,6.11-3.86,10.76-6.9,15.42-14.65,22.44-32.04,42.52-54.68,57.19-14.63,9.49-30.97,15.06-48.58,16.39-13.46,1.02-26.89,1.76-40.26-.96-2.91-.59-5.67.23-8.39,1.36-2.63,1.09-5.14,3.85-8.22.24-1.27-1.49-2.81.61-3.78,1.52-5.22,4.92-11.49,8.25-17.53,11.93-5.91,3.6-11.11,7.9-15.39,13.46-3.5,4.54-7.19,8.98-11.21,13.11-4.65,4.78-7.27,10.74-7.46,17.31-.18,6.32-1.09,12.37-3.66,18.07-4.4,9.76-3.61,18.9,2.61,27.6.77,1.08,1.61,2.18,2.06,3.4,5.42,14.92,16.35,25.54,28.12,35.29,10.15,8.4,16.72,20.05,26.84,28.44,3.14,2.61,6.47,4.16,10.35,5.47,11.92,4.03,23.83,8.37,34.25,15.66,3.85,2.7,7.71,5.2,12.16,6.64,12.45,4.04,24.09,10.03,36.22,14.85,7.23,2.87,10.87,7.91,12.43,15.72,4.45,22.35,2.03,44.5-.79,66.69-.31,2.41-.43,4.85-.86,7.24-.43,2.33-.53,5.06-4.01,5.04-3.68-7.85-10.98-9.09-18.42-10.44-9.54-1.73-19.09-3.49-28.51-5.82-3.87-.96-5.91.42-6.6,4.2-.99,5.42-1.91,10.84-1.89,16.4.06,16.76.1,33.52-.04,50.28-.03,3.39.64,7.27-3.43,9.26-3.55-1.4-2.92-4.65-2.99-7.36-.23-8.41-.04-16.82-.11-25.23-.02-2.58.22-5.25-1.55-8.12-2.29,3.04-2.16,6.14-2.35,9.09-1.26,19.43-1.65,38.89-1.44,58.36.15,13.06.03,26.12.03,39.18,0,1.55-.02,3.1.06,4.65.45,8.54,1.76,9.33,8.96,4.7.53,5.32.18,10.33.22,15.32-6.74,2.49-10.96,6.67-13,14.12-1.29,4.7-6.86,6.77-12.11,6.01-4.79-.69-6-4.68-6.5-8.8-.47-3.91-2.66-5.55-6.46-6.2-7.77-1.34-15.44-3.9-23.22-.02-.96.48-2.17.22-3.17-.36-2.67-10.44-1.3-21.05-.68-31.51,1.1-18.72,3.07-37.38,4.76-56.06.63-7.03,1.66-14.02,2.18-21.05.3-4.06,1.93-8.32-.91-12.19.69-7.27,1.2-14.55,2.24-21.78q.79-26.61-14.67-48c-9.56-13.3-17.92-27.4-27.29-40.84-20.29-29.09-43.45-55.83-66.94-82.33-9.72-10.97-19.63-21.63-31.54-30.23-3.89-2.8-8.24-7.27-12.98-4.59-4.91,2.77-2.78,8.95-2.17,13.47,1.37,10.14,5.17,19.68,9.16,29.05,15.83,37.19,36.48,71.23,65.66,99.65,2,1.95,4.56,3.67,4.56,6.99-1.82,2.14-1.45,4.19-.16,6.54,1.89,3.44,4.2,6.59,6.17,9.95,1.34,2.29,3.6,4.63,1.55,7.7-9.81-8.11-17.66-18.21-27.88-28.19v109.11c-4.61-1.26-4.04-5.23-4.24-8.56-.72-12.16-.52-24.34-.33-36.51.17-10.87-1.69-21.61-1.71-32.46,0-2.98-.41-6.09-2.15-9.95-1.82,6.13-2.15,11.6-2.53,16.92-.55,7.49-1.41,15.01-1.47,22.49-.26,33.4-2.41,66.77-1.53,100.19.11,4.23.5,8.4,1.4,12.51.56,2.55.89,6.05,4.08,6.03,3.37-.02,3.22-3.62,3.67-6.15.31-1.74.11-3.55.48-5.28.52-2.38.92-4.96,4.32-4.77-.03,9.3-.07,18.61-.1,27.91-1.18,1.1-2.62,1.81-4.18,1.73-18-.95-36.06,1.61-54.04-.86-2.4-.33-4.83-.62-7.11-1.45-6.08-2.21-11.61-1.06-17.04,2.17-3.12,1.85-6.02,4.69-10.23,3.65-1.23-14.37-.56-28.76.12-43.11.72-15.22,2.18-30.41,3.56-45.59,2.34-25.73,4.95-51.45,7.29-77.18,1.24-13.64,2.55-27.3,3.17-40.98,1.38-30.51,1.32-61.02-1.14-91.5-1.61-19.95-6.18-38.77-14.34-57.35-12.11-27.57-17.28-57.41-22.38-86.97-5.18-30.06-7.82-60.37-7-91,3.36-125.83,47.13-235.4,131.81-328.45,51.47-56.56,113.26-98.44,184.37-126.41,43.79-17.22,89.18-27.77,136.15-32.13,63.55-5.89,125.88.21,186.87,18.22,69.87,20.63,132.33,55.19,187.09,103.43,52.52,46.26,93.77,101.04,123.21,164.5,21.31,45.95,35.17,94.09,41.71,144.46,4.03,31.1,4.65,62.2,3.43,93.37-1.21,30.74-6.48,60.98-13.43,90.96-4.45,19.2-5.97,38.86-7.4,58.46-2.08,28.51-1.97,57.08.06,85.57,1.91,26.88,4.97,53.68,7.2,80.54,1.96,23.55,4.69,47.03,5.93,70.65.78,14.81,1.47,29.61,1.27,44.44-.03,2.6.59,5.35-1.26,7.66-2.88,1.22-5.19-.57-7.48-1.66-6.5-3.09-12.99-3.73-19.97-1.64-5.28,1.58-10.76,2.41-16.35,2.54-6.16.14-6.45.75-4.94,6.61,1.11,4.3,2.58,8.71-2.43,11.76-2.11-.61-1.99-2.64-2.6-4.18-3.92-9.86-10.78-11.22-18.09-3.56-.63.66-1.28,1.14-2.25.97-2.3-1.74-2.29-4.29-1.7-6.57,1.56-6.07-1.39-7.59-6.74-8.09-3.43-.32-7.64.24-9.78-3.84,0-49.75.03-99.49-.13-149.23,0-2.11,2.17-5.46-1.94-6.58Z" style="fill: #4cc8ee; stroke-width: 0px;"/>
  <path d="M381.35,871.5c3.3-3.4,7.29-4.11,11.97-4.13,23.1-.06,46.01-1.79,69.03-4.61,20.9-2.56,41.74-5.43,62.58-8.46,23.5-3.42,46.7-8.15,69.76-13.75,16.22-3.94,32.53-7.01,49.52-6.5,16.9.51,33.57-3.57,50.42-4.76,18.21-1.29,36.16-4.53,54.11-7.37,11.44-1.81,23.03-3.18,34.37-5.78,7.44-1.71,9.37-.74,10.7,6.32,4.47,23.72,3.31,47.7,2.99,71.63-.01.81-.68,1.61-1.04,2.41-9.13,6.32-18.1,12.88-27.41,18.92-57.67,37.38-120.42,61.62-188.21,73.07-35.27,5.95-70.75,8.14-106.39,6.32-68.33-3.49-133.43-19.97-194.89-50.31-5.61-2.37-5.12-6.2-2.53-10.53,1.58-2.62,1.28-5.52,1.29-8.38.02-17.65.08-35.3.05-52.95,0-6.2,1.44-12.16,2.56-18.19.65-3.53,2.06-4.09,5.47-3.14,13.09,3.64,26.43,6.48,39.89,8.01,7.39.84,7.45,6.84,10.51,10.83,2.2,2.13,1.73,4.77,1.44,7.37-1.5,6.1-.84,12.31-.86,18.49-.01,3.69,1.75,5.16,5.47,4.52,6.01-1.04,11.86.88,17.81,1.24,3.69.22,6.61,1.57,5.1,6.32-.38,1.18-.95,2.81,1.1,3.09,1.65.23,2.59-1.15,2.52-2.45-.25-4.8,2.3-6.73,6.63-7.39,3.75-.58,3.98-3.68,4.13-6.58.34-6.84-.23-13.71.33-20.56.23-1.07.68-2.01,1.58-2.68Z" style="fill: #47a7c6; stroke-width: 0px;"/>
  <path d="M30.86,1022.85c.98-.51,2.04-.89,2.92-1.54,8.96-6.62,18.18-9.36,29.47-5.27,8.7,3.15,18.33,2.04,27.49,1.41,10.95-.75,21.82.78,32.72.16.3,21.44-15.96,40.17-38.66,44.51-21.02,4.02-43.46-8.4-51.27-28.58-1.31-3.39-3.33-6.75-2.67-10.69Z" style="fill: #40aacb; stroke-width: 0px;"/>
  <path d="M895.59,957.81c4.74.46,9.47.97,14.22,1.37,4.43.37,4.64,3.37,3.97,6.6-.65,3.15-2.29,6.21.23,9.24,1.4.29,2.17,1.38,3.06,2.35,6.62,7.25,9.38,7.89,18.34,4.29,4.34-4.06,2.65-8.72.58-12.78-2.61-5.13-.88-7.15,4.1-6.98,8.28.28,16.1-1.74,24.01-3.67,8.72-2.13,15.67,3.01,23.06,6.21-3.96,19.34-15.53,31.61-34.67,36.22-27.19,6.56-53.05-11.14-57.25-38.82-.5-1.4-.85-2.78.34-4.03Z" style="fill: #3fa5c5; stroke-width: 0px;"/>
  <path d="M123.56,989.7c-2.46,1.13-2.63,3.29-2.6,5.59.03,2.21.32,4.52-.19,6.61-.75,3.08-1.15,7.25-5.19,7.48-4.34.25-5.94-3.64-6.43-7.17-.74-5.43-1.72-10.82-1.61-16.41.29-13.93.01-27.87.12-41.81.15-19.64,1.11-39.27,1.67-58.9.35-12.4.3-25.09,3.53-37.34.51-1.92.9-3.73,2.96-5.33,3.04,5.27,3.19,10.85,3.64,16.11,1.7,19.81,1.41,39.69,1.63,59.56.06,5.71-1.62,11.92,2.48,17.15,0,18.15,0,36.31,0,54.46Z" style="fill: #89ecfa; stroke-width: 0px;"/>
  <path d="M221.9,886.09c-1.97,7.44.77,15.72-4.05,22.65-23.94-15.93-46.2-33.93-66.41-54.42-1.41-7.56-7.52-12.54-10.62-19.22-1.63-3.52-1.37-4.82,2.56-4.8,4.41-.71,6.79,2.59,9.37,5.07,16.63,15.99,34.59,30.3,53.82,43.04,4.82,3.2,9.75,6.06,15.33,7.68Z" style="fill: #4fbadb; stroke-width: 0px;"/>
  <path d="M276.34,933.97c.33,3.64-1.37,7.76,2.54,10.54-2.08,1.99-1.17,4.57-1.17,6.87-.07,22.65,0,45.31-.07,67.96,0,2.56.76,5.32-1.17,7.62-.36-.23-.53-.51-.51-.84.02-.35.07-.53.17-.53v-15.38c-1.59,3.08-1.64,7.04-5.11,6.8-3.85-.27-4.02-4.25-4.86-7.08-.55-1.85-.4-3.94-.4-5.92-.01-26.33-.59-52.67.3-78.97.36-10.47-.07-21.15,2.28-31.55.39-1.73.22-3.89,2.41-4.16,2.61-.33,3.49,2.21,3.68,3.92.52,4.81.32,9.69.66,14.53.62,8.72-1.52,17.57,1.27,26.18Z" style="fill: #8aeaf9; stroke-width: 0px;"/>
  <path d="M797.21,909.95c2.06-2.02,1.17-4.6,1.19-6.93.1-11.94.05-23.89.07-35.84,0-3.36.14-8.02,3.74-8.17,4.35-.19,5.51,4.51,5.52,8.36.07,39.15.04,78.31.02,117.46,0,.87,0,1.85-.37,2.6-1.16,2.34-.59,6.57-4.82,5.87-3.33-.54-4.12-3.5-4.1-6.66.05-8.85,0-17.7-.01-26.55,0-8.85.04-17.7-.04-26.55-.02-2.13.73-4.48-1.21-6.26,0-5.78,0-11.57,0-17.35Z" style="fill: #79eafa; stroke-width: 0px;"/>
  <path d="M276.12,1025.59c.11.45.23.91.34,1.36-2.24,15.87-15.33,27.66-30.96,27.89-16.7.24-30.25-10.14-33.01-25.29,9.99-7.02,20.43-1.85,30.65-.94,2.82.25,4.07,3.05,3.99,6.08-.12,4.17.22,8.37,5.5,8.99,4.88.57,10.96-4.29,11.74-8.81q1.6-9.31,11.75-9.27Z" style="fill: #3ea2c1; stroke-width: 0px;"/>
  <path d="M797.36,1003.03c6.76-.41,11.85.24,12.31,9.36.27,5.38,5.56,7.94,11.29,7.91,5.89-.03,6.5-4.11,6.75-8.53.08-1.32.14-2.62,1.18-3.65,5.09-5.07,26.12-4.95,32.1.2-4.46,15.74-17.95,25.07-34.25,23.68-15.52-1.32-27.36-13-29.39-28.97Z" style="fill: #3fa1c0; stroke-width: 0px;"/>
  <path d="M895.59,957.81c-.11,1.34-.23,2.69-.34,4.03-1.94-2.32-1.11-5.09-1.11-7.65-.05-48.57-.01-97.14-.08-145.72,0-2.52,1.03-5.35-1.31-7.51.73-.85,1.58-2.95,2.56-.71.74,1.68.23,3.91.23,5.89.02,50.55.03,101.11.04,151.66Z" style="fill: #b4f0fa; stroke-width: 0px;"/>
  <path d="M336.09,878.13c0-2.66.01-5.32.02-7.99,2.61-8.46,2.42-17.34,3.84-25.99,1.21-7.35.98-14.92,1.51-22.39.77-10.89-1.51-21.5-2.79-32.2-.82-6.84-5.54-10.11-11.3-12.46-14.09-5.74-28.85-10.29-42.07-17.6-10.19-5.64-20.14-11.55-30.93-15.99-3.86-1.59-7.47-3.29-11.82-3.86-6.79-.88-11.15-6.79-14.85-11.45-10.72-13.52-23.31-24.99-36.01-36.44-2.78-2.51-5-5.28-6.55-8.93-2.58-6.07-5.66-12.05-9.36-17.51-6.25-9.21-5.89-18.33-1.65-28.05,2.36-5.4,3.25-10.99,3.12-17.16-.12-5.98,2.5-12.12,6.7-16.91,11.75-13.37,22.61-27.7,39.75-35.13,3.7-1.6,6.52-5.17,9.82-7.75.95-.75,2.22-1.84,3.29-.23,1.83,2.75,1.85,2.95,4.85,1.17,3.45-2.04,7.14-2.71,10.86-1.72,13.91,3.68,27.93,1.72,41.87.78,13.14-.88,25.36-5.6,37.02-11.45,15.83-7.93,28.74-19.78,40.32-32.84,10.8-12.18,21.1-24.91,28.21-39.81.59-1.23,1.24-2.31,1.06-3.7-1.27-3.11,1.12-5.02,2.53-7.09,12.12-17.75,18.06-37.68,18.12-58.82.08-27.93-8.77-53.04-28.17-73.86-2.31-2.48-5.87-4.27-5.6-8.5.7-16.79,8.97-31.5,12.98-47.37,6.84-27.11,21.53-51.12,30.13-77.51,5.88-18.03,12.68-35.29,23.72-51.21,9.25-13.36,21.79-22.86,32.61-34.3,4.3-4.54,7.8-9.32,10.22-15.22,4.71-11.45,15.34-16.76,25.63-21.61,23.65-11.15,49.06-12.23,74.52-10.44,11.81.83,23.21,5.1,34.46,8.91,22.11,7.49,44.84,13.24,65.5,24.73,27.04,15.04,52.35,32.53,76.71,51.55,15.53,12.13,29.99,25.39,43.48,39.68,18.01,19.08,34.79,39.2,49.67,60.85,6.86,9.98,13.68,19.98,19.97,30.34,3.21,5.29,3.69,9.51-1.4,13.57-.39,2.63-2.39,4.18-4.08,5.88-12.97,13.02-25.93,26.04-38.98,38.97-6.55,6.49-7.56,6.08-10.5-2.89-4.69-14.29-10.7-28.09-15.9-42.2-4.56-12.38-14.18-21.8-23.11-31.34-15.57-16.64-31.68-32.77-47.99-48.68-9.02-8.8-18.28-17.38-27.5-25.96-7.95-7.4-17.2-12.96-27.56-16.88-24.21-9.18-48.53-18.04-73.19-25.93-2.58-.83-5.17-1.59-7.8-.78-14.8,4.56-30.3,6.32-45,11.39-6.66,2.3-11.6,6.17-15.19,12.09-15.85,26.11-31.25,52.45-44.1,80.21-3.7,8.01-4.44,16.68-6,25.1-4.44,23.93-9.59,47.72-14.21,71.6-2.51,12.98-1.99,26.49.1,39.65,1.97,12.46,5.12,24.98,5.01,37.45-.17,19.61,3.5,38.62,5.81,57.86.85,7.07,2.31,13.97,4.46,20.73.6,1.9.97,4.13,2.83,5.11,5.79,3.05,7.97,8.65,10.44,14.09,2.11,4.64,4.26,9.21,8,12.89,2.27,2.23,4,4.88-.22,8.38,10.82-3.22,13.9,4.84,17.94,10.86,3.93,5.86,8.21,10.54,15.35,12.72,4.68,1.43,8.85,6.17,12.74,7.41,6.25,1.99,12.24,6.15,19.42,5.49,9.35-.85,18.42,1.96,27.65,2.78,1.5.13,7.24.02,3.05,4.86-3.9,1.25-7.91.81-11.87.81-90.07.03-180.14.03-270.21,0-6.23,0-12.39.31-18.41,2.04-12.78,3.67-22.95,17.2-22.29,29.6-.31,5.87.38,11.74,0,17.62-1.1,13.02-.37,26.06-.34,39.08.02,8.81-1.13,17.66.59,26.43.53,2.65.14,5.28-.18,7.92-2.28,19.17,9.31,34.43,28.4,37.43,3.96.62,7.95.49,11.93.49,115.11,0,230.23-.16,345.34.17,18.32.05,32.58-4.97,40.54-22.52.54-1.19,1.32-2.35,2.98-2.14.17,18.61-14.98,33.22-34.65,33.24-53.09.05-106.17.01-159.26.03-14.34,0-28.33,3.38-42.55,4.52-20.06,1.6-38.95,8.48-58.21,13.31-12.49,3.14-24.86,6.72-37.58,9-5.96,1.07-10.42,9.8-10.45,19.7-.08,22.56-.02,45.12-.02,67.68,0,.88-.01,1.76-.02,2.64-.74.42-1.39.29-1.93-.35-2.28-4.6-1.15-9.54-1.3-14.33-.25-8.14.19-16.3-.73-24.47-.62,7.21-1.55,14.38-1.09,21.68.24,3.86,1.24,8.05-2.63,10.99-3.67-.15-3.42-3.21-3.33-5.32.62-13.47-2.45-26.81-1.21-40.3.54-5.88-6.59-16.39-12.08-18.47-3.99-1.51-4.57,1.62-5.1,4.11-1.37,6.47-2.28,13.04-3.33,19.57-2.41,15.02-4.02,30.19-7.69,45-.65,2.63-.73,5.96-4.82,5.88Z" style="fill: #76d3f1; stroke-width: 0px;"/>
  <path d="M619.12,585.79c-6.24-4.26-13.83-1.68-20.41-3.99-6.18-2.17-12.65,1.05-18.71-1.31-4.14-1.61-7.63-5.82-12.81-2.87-.3.17-1.43-.34-1.53-.7-2.29-8.53-10.76-7.85-16.64-10.68-2.44-1.17-4.58-2.07-6.1-4.26-2.9-4.16-5.68-8.41-8.7-12.47-2.08-2.8-3-7.76-8.74-4.03-1.82,1.18-4.93-1.17-6.12-3.91-.17-.39-.41-.9-.29-1.24,1.45-4.07,1.42-4.03-1.79-7.91-3-3.62-3.99-8.27-6.19-12.3-2.23-4.09-3.06-9.42-9.07-10.41-2.02-.33-1.99-2.51-2.61-4.18-3.61-9.8-4.46-20.15-6.37-30.29-2.19-11.66-2.96-23.51-4.94-35.22-1.18-7,1.17-14.64-.35-22.19-1.91-9.45-2.78-19.11-4.11-28.67-2.57-18.5-2.81-37.06,1.89-55.16,6.53-25.16,9.16-51.07,15.46-76.22,3.1-12.4,9.54-23.6,15.78-34.8,9.68-17.34,19.51-34.59,29.53-51.74,5.54-9.48,13.19-14.37,23.18-16.85,13.01-3.24,26.04-6.4,39.04-9.67,2.61-.66,5.03-.81,7.7.07,26.61,8.76,52.97,18.24,79.13,28.25,8.95,3.42,16.92,8.9,23.77,15.43,21.12,20.15,42.27,40.31,62.48,61.36,8.63,8.99,17.42,17.93,25.61,27.44,10.83,12.59,14.08,28.25,20.3,42.73,3.39,7.88,6.96,15.71,8.62,25.2,16.99-16.64,33.49-32.81,49.99-48.97,8.36,10.87,12.85,23.53,16.86,36.41,3.8,12.2,7.23,24.51,11.32,36.61,8.39,24.86,10.43,50.54,8.76,76.36-1.02,15.7-2.93,31.84-9.23,46.41-7.25,16.78-16.38,32.75-24.81,49.01-3.05,5.87-6.46,11.56-9.68,17.34-2.47,4.44-4.95,8.72-9.6,11.5-7.31,4.38-9.54,12.67-12.96,19.57-9.32,18.8-21.68,35.52-35.66,50.67-8.7,9.43-21.4,14.73-34.05,18.34-18.49,5.28-35.63,14.11-53.89,19.97-2.53.81-4.59,3.11-7.73,5.35,0-15.56.04-30.28-.04-45-.01-2.57.86-5.34-1.02-7.69-3.07-3.05-2.45-7.03-2.77-10.79,1.27-12.34-7.55-25.3-20.49-29.99-5.25-1.9-10.68-2.59-16.26-2.57-18.77.07-37.53.07-56.3-.01-3.22-.01-6.7.72-9.43-1.93Z" style="fill: #7bd7f3; stroke-width: 0px;"/>
  <path d="M722.9,620.27c.49,3.6.97,7.21,1.46,10.81-.39,1.67-.78,3.33-1.18,5,1.9,13.9-16.19,31.59-30.21,33.38,15.13,2.53,32.11,20.18,30.21,33.55,1.26,6.96,1.19,13.97.89,20.99-7.4,19.01-18.59,26.56-39.42,26.56-118.02,0-236.04-.2-354.06.16-25.84.08-42.91-20.97-37.31-43.01.42-1.66.07-3.52.07-5.29.6-11.51,6.74-19.69,15.8-26.02,4.5-3.15,9.36-5.65,14.57-7.04-15.77-3.35-29.33-17.9-30.4-32.73-.29-5.48-1.32-10.95.1-16.42.07-5.42,1.18-10.15,7.6-11.34,6.31,2.47,12.88,2.73,19.57,2.73,121.33-.06,242.66-.04,363.99-.05,10.82,0,21.69.6,32.39-1.72,5.46,1.48,6.14,5.69,5.92,10.42Z" style="fill: #ddf3fa; stroke-width: 0px;"/>
  <path d="M387.9,324.25c11.48,11.68,21.41,24.38,27.29,39.93,14.25,37.67,10.26,73.01-13.12,106-.49.69-.7,1.56-1.05,2.35-9.9,11.66-21.15,21.74-34.4,29.5-11.82,8.62-24.86,13.4-39.67,12.56-1.89-4.07,1.48-4.23,3.82-5.05,10.2-3.58,21.16-5.4,30.42-11.2,17.02-10.66,32.21-23.38,41.58-41.74,3.85-7.54,3.09-10.22-4.99-11.75-12.98-2.45-25.68-6.97-38.95-7.22-20.59-.39-38.4-7.57-54.27-20.16-6.11-4.85-12.95-6.41-20.49-5.8-15.48,1.25-24.13-3.5-30.89-17.4-3.61-7.41-5.1-7.15-15.62-3.87-9.55,2.98-18.81,8.95-24.01,18.69-2.32,4.34-3.39,8.97-2.88,14.08.33,3.27.59,7.53-5.05,6.95-4.84-12.19-3.49-24.57-1.23-36.99,6.3-43.49,29.54-74.53,70.49-90.06,39.6-15.02,76.76-8.05,109.86,18.82,1.02.83,2.11,1.58,3.16,2.37Z" style="fill: #2a2a2a; stroke-width: 0px;"/>
  <path d="M169.47,185.91c3.62,0,6.54,1.08,9.3,2.45,22.17,11.01,44.3,22.08,66.43,33.17,15.44,7.74,16.41,12.55,4.49,24.86-12.45,12.86-25.53,25.11-37.26,38.66-18.07,20.89-34.32,43.05-47.84,67.2-11.15,19.91-19.42,41.03-27.7,62.21-7.66,19.58-12.61,19.51-26.97,11.22-18.54-10.7-37.52-20.64-56.27-30.97-5.57-3.07-8.61-13.4-6.93-22.71,8.2-45.54,28.3-85.46,56.73-121.64,14.05-17.89,28.68-35.21,44.85-51.19,4.68-4.63,9.72-8.99,15.91-11.68,1.83-.79,3.59-1.77,5.24-1.58Z" style="fill: #80ddf5; stroke-width: 0px;"/>
  <path d="M221.9,886.09c-4.77,2.53-8.13-1.21-11.32-3.24-20.78-13.18-40.21-28.16-57.84-45.38-2.86-2.79-5.93-5.19-9.36-7.18-6.83-8.97-15.77-15.97-22.83-24.79-17.31-21.64-31.95-44.86-43.44-70.07-5.31-11.65-10.07-23.49-13.48-35.88-1.45-5.27-1.19-10.51-1.1-15.78.09-4.9,2.89-6.5,7.56-5.22,9.35,2.57,16.08,9.27,22.68,15.55,18.69,17.8,35.02,37.79,51.53,57.61,12.97,15.57,25.73,31.29,37.12,48.06,13,19.14,25.92,38.34,38.96,57.45,1.38,2.02,1.49,4.07,1.5,6.28.01,7.52.02,15.05.03,22.57Z" style="fill: #96d7e9; stroke-width: 0px;"/>
  <path d="M326.82,513.96c11.5-.65,22.21-4.13,32.53-9.07,2.34-1.12,4.84-1.92,7.27-2.87-.11,5.89-5.26,7.79-8.77,10.89-28.85,25.38-72.95,31.7-105.68,14.18-30.88-16.53-47.92-43.42-54.15-77.46-3.36-18.35-1.47-36.37,4.29-54.03.31-.95,1.37-1.66,2.08-2.47.2,11.23-.8,22.52,1.63,33.63.27,1.25.81,2.45,1.23,3.67,2.16,1.91,2.29,4.72,3.13,7.18,12.08,35.49,35.67,59.61,71.46,70.96,12.83,4.07,26.25,6.3,39.93,4.66,1.78-.21,3.53-.5,5.07.74Z" style="fill: #4290ab; stroke-width: 0px;"/>
  <path d="M46.5,518.45c.19,17.7,4.49,35.13,4.01,52.8-.16,5.76-.88,11.48-2.83,16.85-2.32,6.41-6.12,7.16-10.66,2.08-8.95-10.01-12.74-22.43-15.73-35.18-3.07-13.08-6.21-26.27-5.87-39.7.58-23.44.21-47.31,12.45-68.58,5.2-9.03,9.34-8.34,14.1,1.01,3.63,7.14,3.93,15.01,4.3,22.53.78,16.03.24,32.13.24,48.2Z" style="fill: #97e0f5; stroke-width: 0px;"/>
  <path d="M896.82,870.87c.71-16.52-.03-37.76.43-58.99.35-16.02-.63-32.08.8-48.12.3-3.32,1.01-6.64,4.57-7.2,3.93-.62,4.79,3.22,5.91,5.97,1.07,2.65,1.7,5.44,1.57,8.4-1.13,24.66,1.42,49.26.92,73.97-.42,20.72.72,41.59-.02,62.33-.4,11.15,2.14,22.39-.83,33.48-.51,1.91-.68,3.91-1.73,5.63-1.33,2.18-3.05,3.98-5.9,3.35-2.67-.59-4.11-2.48-4.36-5.18-.46-5.04-1.51-9.99-1.44-15.13.21-17.93.08-35.87.08-58.5Z" style="fill: #b4f0fa; stroke-width: 0px;"/>
  <path d="M896.75,696.67c.06-14.11.54-28.2,3.13-42.11.35-1.88.22-5.22,2.96-5.29,2.46-.06,3,2.78,3.62,4.94,2,7,3.35,14.1,3.65,21.4.43,10.57,1.79,21.1,1.34,31.72-.19,4.48-.99,8.77-2.84,12.8-1.05,2.28-2.82,4.13-5.68,3.75-2.72-.36-4.04-2.22-4.8-4.8-2.2-7.39-.93-14.94-1.36-22.41Z" style="fill: #87e9f9; stroke-width: 0px;"/>
  <path d="M723.19,703.02c-4.1-18.27-16.05-28.66-35.09-33.5,18.9-4.89,31.01-15.12,35.08-33.43.35,1.47.98,2.94.99,4.42.07,19.38.06,38.76.06,58.14,0,1.53.08,3.11-1.04,4.38Z" style="fill: #231f20; stroke-width: 0px;"/>
  <path d="M935.41,981.66c-4.75,5.45-11.18,5.35-16.97-.15-1.97-1.87-3.34-4.06-4.43-6.49.96-5.27,4.06-8.1,9.47-7.82,5.2.27,10.88,5.48,11.77,10.55.22,1.27.11,2.6.15,3.9Z" style="fill: #86cadf; stroke-width: 0px;"/>
  <path d="M336.09,878.13c4.39-3.87,4-9.62,4.9-14.49,3.26-17.7,5.69-35.55,8.43-53.34.07-.43-.06-.91.06-1.32.92-3.11.71-7.38,3.95-8.65,3.46-1.36,5.95,2.04,8.24,4.37,2.47,2.51,5.03,4.88,7.01,7.91,2.15,3.28,2.65,6.19,2.38,10.31-.98,14.88.54,29.74,2.26,44.55,2.61,2.74,1.68,6.2,1.9,9.41.4,5.85-.83,11.8,1.05,17.89,1.78-3.74,1.63-3.74,1.85-9.23.15-3.84-1.13-7.99,1.94-11.36.42-.04.85-.05,1.27-.05,0,7.07.09,14.14-.06,21.2-.1,4.61-1.44,8.33-7.24,8.05-2.99-.14-4.78.83-3.23,4.36,1.22,2.77-.19,4.81-2.64,5.86-1.81.77-4.01.86-5.59-.74-2.17-2.2-.6-3.94.91-5.69,2.25-2.61.42-3.87-1.84-3.68-7.44.61-14.73-3.35-22.24-.58-2.25.83-4.37-.35-4.34-2.66.1-7.38-1.75-14.87,1.02-22.12Z" style="fill: #4cc8ee; stroke-width: 0px;"/>
  <path d="M89.73,1046.72c-3.42-1-7.25-2.2-7.31-7.32-.08-6.15,7.95-14.4,13.69-13.67,4.83.61,8.2,3.66,8.59,8.61.39,5.01-8.77,12.52-14.96,12.38Z" style="fill: #83c9de; stroke-width: 0px;"/>
  <path d="M299.01,609.78c-2.32,3.23-4.35,6.63-5.57,10.45-2.21-8.08,3.82-20.91,12.92-27.54,7.26-5.29,15.61-6.81,24.32-6.81,93.28,0,186.55.03,279.83.04,2.87,0,5.74-.08,8.62-.12,23.17.04,46.35,0,69.52.14,17.77.1,31.84,11.7,35.15,28.83.36,1.86,1.06,3.94-.89,5.51-.73-3.37-2.08-6.45-4.2-9.18-2.3-1.37-4.29-3.11-6.26-4.9-6.7-6.06-14.57-9.02-23.63-8.97-9.3.05-18.6,0-27.89,0-107.81,0-215.62.08-323.43-.11-12.99-.02-25.25.86-34.99,10.79-.9.92-2.43,1.05-3.49,1.88Z" style="fill: #3a98b4; stroke-width: 0px;"/>
  <path d="M293.34,636.65c5.21,17.22,16.13,28.41,35.87,32.66-19.19,4.72-30.81,15.59-35.85,33.13-1.78-2.87-.8-6.03-.82-9.04-.11-16.78-.08-33.57-.03-50.35,0-2.14-.69-4.43.82-6.4Z" style="fill: #242122; stroke-width: 0px;"/>
  <path d="M380.06,874.19c-.03,6.37,0,12.75-.11,19.12-.04,2.28.56,5.64-2.97,5.41-2.6-.17-3.59-2.86-3.59-5.54,0-8.57-.03-17.15-.06-25.72,3.29-8.04-.64-16.45,1.25-24.61.63-2.73-.12-5.77.44-8.53.33-1.65.15-4.71,2.7-4.58,2.54.13,2.19,2.84,2.24,4.77.06,2.42.01,4.85.02,7.27.03,10.8.06,21.6.09,32.4Z" style="fill: #8cecf9; stroke-width: 0px;"/>
  <path d="M600.69,360.04c-7.82,2.61-10.01,9.83-13.39,16.17-10.06,18.87-11.96,39.87-15.92,60.33-2.59,13.37-8.2,25.98-9.9,39.59-.18,1.44-.17,4.01-2.49,4.13-1.58.08-2.46-1.65-3.41-2.88-2.55-3.31-4.68-7.14-7.82-9.75-12.67-10.5-13.75-25.9-17.6-40.13-2.35-8.68-4.31-17.47-6.51-26.2-1.44-5.7-3.28-11.05-1.85-17.39,1.34-5.98-1-12.54-1.85-18.51-1.66-11.73.11-22.56,2.46-33.65,3.44-16.29,7.45-32.49,10.15-48.9,3.23-19.62,9.66-37.8,20.63-54.37.12-.18.29-.35.36-.55,6.52-19.02,23.64-26.11,39.29-34.79,6.74-3.74,13.98-6.56,19.89-11.78,2.17-1.92,4.92-2.69,8.02-1.24,25.5,11.92,51.04,23.74,76.56,35.63,9.83,4.58,18.81,9.95,25.92,18.77,6.27,7.77,14.29,14.19,21.85,20.85,15.01,13.23,26.22,28.86,33.12,47.8,3.06,8.39,8.58,15.82,11.36,24.45,1.11,3.44,2.56,7.03-2.72,8.43-3.69-.44-5.55-3.45-7.81-5.76-16.65-16.96-36.66-28.04-60.07-31.39-34.67-4.96-65.74,3.57-91.67,28.09-8.91,8.43-16.39,17.91-22.13,28.76-.98,1.86-1.65,4.26-4.47,4.29Z" style="fill: #87daf4; stroke-width: 0px;"/>
  <path d="M600.69,360.04c8.68-16.32,19.36-31.02,34.37-42.18,45.77-34.02,107.61-28.54,146.7,12.98,1.66,1.76,3.39,3.47,5.08,5.2,11.01,15.37,19.65,31.74,22.46,50.8,5.76,39.05-5.38,72.23-33.9,99.56-.78.75-1.45,1.62-2.18,2.44-4.83,7.38-12.86,10.54-19.91,14.94-2.99,1.86-6.23,3.33-9.46,4.78-4.43,1.45-8.79,3.11-13.28,4.39-20.56,5.97-41.25,5.5-61.45-.73-28.1-8.67-50.13-25.65-64.68-51.59-2.59-4.62-4.91-9.4-7.01-14.28-5.59-13.47-7.52-27.64-8.02-42.09,0-1.47.2-2.91.51-4.34,1.26-3.41.65-7,.99-10.5.19-2.57,1.88-4.56,2.69-6.89,2.36-7.5,4.72-15,7.08-22.5Z" style="fill: #262626; stroke-width: 0px;"/>
  <path d="M743.97,507.32c9.9-5.93,20.05-11.46,29.26-18.48-.4,7.69-6.64,11.98-11.08,16.63-24.27,25.44-53.21,41.29-89.56,39.06-21.19-1.3-39.51-9.98-54.86-24.59-21.08-20.07-32.72-44.65-36.06-73.67-2.11-18.34-.05-35.9,5.46-53.27,1.27-4,2.7-7.98,6.47-10.47-.4,2.23-.79,4.46-1.19,6.7-1.42,3.6.27,7.5-1.05,11.11-.02,1.15-.04,2.29-.06,3.44-3.77,15.95-3.54,32.02-.09,47.86,6.95,31.82,24.07,56.56,53.99,70.54,24.49,11.44,49.69,10.58,74.57.07,8.85-3.74,16.38-9.56,24.2-14.93Z" style="fill: #65b0c7; stroke-width: 0px;"/>
  <path d="M299.01,609.78c6.54-9.75,15.93-14.5,27.42-14.5,121.44-.09,242.88-.1,364.33.03,11.96.01,21.73,5.02,27.94,15.78-11.08,4.13-22.62,2.58-34,2.59-121.6.08-243.19.03-364.79.08-7.26,0-14.53.46-20.91-3.98Z" style="fill: #9fe0f5; stroke-width: 0px;"/>
  <path d="M326.82,513.96c-30.85,4.11-58.32-4.04-82.53-23.25-17.89-14.19-29.54-32.69-36.15-54.48-.6-1.96-.79-3.84-.9-5.8,1.34-2.74,2.01-5.25,1.7-8.68-.98-10.61,4.4-18.62,12.91-24.44,3.63-2.48,7.65-4.39,10.82-7.55,3.76-3.75,8.88-1.31,13.29-2.82,6.36-2.18,7.34,3.63,9.25,7.77,5.47,11.85,16.53,17.27,29.13,15.2,6.85-1.13,13.57.31,19.29,4.64,9.71,7.35,19.89,13.72,31.4,18.02,6.82,2.55,13.97,2.38,20.84,2.82,14.36.92,27.87,5.84,42.03,7.43,1.92.21,3.79,1.19,5.58,2.03,3.8,1.77,5,4.14,3.04,8.47-6.45,14.21-16.9,24.91-28.3,35.22-14.08,12.74-31.16,18.27-48.83,22.88-1.52.4-2.33,1.06-2.56,2.54Z" style="fill: #1c1c1c; stroke-width: 0px;"/>
  <path d="M260.41,381.36c.04-11.77,4.9-19.53,13.92-22.26,7.37-2.23,17.86,1.41,22.02,8.43,5.32,8.97,5.19,18.41.24,27.6-4.32,8.02-11.92,9.02-19.92,8.7-10.07-.41-16.31-9.12-16.26-22.47Z" style="fill: #595859; stroke-width: 0px;"/>
  <path d="M62.22,348.06c1.62-16.22,6.87-29.57,12.93-42.54,12.32-26.34,28.85-49.91,47.78-71.93,9.35-10.88,18.86-21.58,29.07-31.66,3.19-3.15,6.83-5.55,10.7-7.7,4.01-2.23,7.88-2.1,11.99-.06,21.99,10.87,44.05,21.59,66.04,32.44,7.24,3.57,8.18,7.46,3.91,14.26-2.14,3.41-4.83,6.29-7.71,9.04-28.75,27.59-53.93,58.14-75.63,91.53-8.4,12.93-16.09,26.32-24.32,39.37-4.3,6.81-6.73,7.25-13.65,3.62-18.38-9.63-36.74-19.32-55.18-28.84-3.96-2.04-6.54-4.5-5.95-7.54Z" style="fill: #acedfa; stroke-width: 0px;"/>
  <path d="M193.98,850.58c-.41,4.37-2.81,3.83-5.28,2.91-4.81-1.79-9.09-4.61-12.93-7.89-31.46-26.83-58.9-56.98-77.16-94.57-2.68-5.52-4.97-11.27-6.21-17.38-.37-1.83-.96-3.47.72-4.81,1.69-1.36,3.34-.46,4.93.36,7.17,3.69,12.83,9.43,18.13,15.16,15.37,16.62,29.97,33.96,43.41,52.22,10.96,14.89,21.76,29.91,31.1,45.89,1.53,2.62,2.32,5.69,3.29,8.13Z" style="fill: #d4f3f8; stroke-width: 0px;"/>
  <path d="M39.87,520.67c-.37,7.34.89,16.18-1.29,24.89-.54,2.15-.53,4.84-3.02,5.34-2.88.58-4.12-2.01-5.23-4.17-9.12-17.67-9.53-36.27-5.67-55.26.65-3.21,1.67-6.38,2.79-9.47.92-2.52,2.58-5.52,5.17-5.46,2.79.07,3.87,3.42,4.41,5.98,1.4,6.65,2.79,13.32,2.84,20.16.03,5.52,0,11.04,0,17.99Z" style="fill: #cef3fb; stroke-width: 0px;"/>
  <path d="M679.03,498.97c-20.36-.63-35.51-10.25-48.76-23.5-3.88-3.88-7.86-7.66-11.08-12.27-7.85-11.25-4.9-23.35.44-33.61,1.29-2.48,3.8-3.65,6.42-4.36,6.8-1.84,13.69-3.38,20.41-5.45,10.9-3.35,19.97,1.61,28.72,6.53,9.01,5.07,17.44,11.16,26.5,16.25,9,5.06,15.06,13.56,22.42,20.53,1.22,1.15,1.79,2.89,1.06,4.28-5.52,10.59-9.07,23.05-22.63,26.63-8.06,2.13-16.32,3.49-23.52,4.99Z" style="fill: #020202; stroke-width: 0px;"/>
  <path d="M599.07,446.33c11.35,25.39,28.47,45.37,53.88,57.63,23.69,11.43,48.3,14.12,73.89,8.11,1.27-.3,2.59-.36,3.89-.53.32,4.18-2.88,5.84-5.76,7.24-30.8,14.9-60.71,14.95-89.76-4.93-20.5-14.03-31.64-34.05-38.15-57.2-.96-3.43-2.85-7.72,2.01-10.32Z" style="fill: #548fa3; stroke-width: 0px;"/>
  <path d="M599.07,446.33c-2.98,4.54-.85,9.17.46,13.34,9.05,28.72,25.73,51.16,54.56,62.48,24.55,9.64,48.45,6.24,71.51-5.53,2.19-1.12,3.84-2.95,5.14-5.06,4.23-1.97,8.53-3.73,13.23-4.23-10.49,12.76-25.06,18.3-40.35,22.15-16.51,4.15-33.11,3.54-49.26-1.78-28.37-9.34-47.33-28.96-58.9-56-8.54-19.95-10.2-40.8-6.97-62.14.34-2.24.89-4.32,2.82-5.76.33,14.59,2.58,28.84,7.77,42.54Z" style="fill: #6badc2; stroke-width: 0px;"/>
  <path d="M648.3,381.46c.01-14.77,6.68-22.88,18.77-22.81,13.09.07,21.2,9.06,21.14,23.42-.06,13.17-9.91,23.67-22.19,22.9-8.68-.54-18.71-6.66-17.71-23.51Z" style="fill: #5b5a5b; stroke-width: 0px;"/>
  <path d="M591.36,400.35c.26-3.71-1.34-7.6,1.05-11.11-.05,3.73.2,7.5-1.05,11.11Z" style="fill: #6badc2; stroke-width: 0px;"/>
  <path d="M287.08,496.9c-15.64.26-27.46-8.61-38.94-17.34-7.47-5.69-13.86-12.93-17.9-21.79-2.91-6.38-.33-22.63,4.69-27.47,1.2-1.16,2.97-1.93,4.62-2.4,6.77-1.91,13.66-3.41,20.37-5.49,10.2-3.16,18.73,1.72,26.85,6.09,15.9,8.56,31.24,18.05,43.28,32.07,3.33,3.88,3.48,6.64,1.54,11.1-8.58,19.69-24.97,25.04-44.5,25.23Z" style="fill: #080808; stroke-width: 0px;"/>
  <path d="M265.49,381.7c.23-2.19.17-4.46.75-6.54,1.63-5.77,8.35-11.39,12.72-10.95,6.2.63,13.72,8.24,14.66,14.52,1.2,8.01-2.25,13.76-8.6,17.98-7.31,4.86-18.1-1.02-19.26-10.35-.19-1.52-.03-3.09-.03-4.64l-.25-.02Z" style="fill: #828284; stroke-width: 0px;"/>
  <path d="M154.35,326.47c.05.02-1.28-.24-2.41-.87-17.16-9.64-35.26-17.36-53.01-25.8-8.93-4.24-9.64-6.58-5.29-15.47,8.99-18.35,20.78-34.78,34.13-50.19,8.38-9.68,16.64-19.44,25.81-28.4,7.69-7.52,10.74-7.92,20.53-3.19,19.51,9.41,39.11,18.63,58.62,28.05,7.75,3.74,8.39,7.34,2.06,13.45-16.23,15.66-31.19,32.52-46.32,49.21-8.87,9.79-16.42,20.75-26.05,29.89-1.92,1.82-3.56,4.09-8.06,3.33Z" style="fill: #d1f8fd; stroke-width: 0px;"/>
  <path d="M666.7,365.28c7.48.17,14.89,8.51,14.82,16.7-.07,8.07-7.86,16.5-15.23,16.5-6.87,0-14.21-9.36-13.83-17.62.36-7.81,7.59-15.73,14.24-15.58Z" style="fill: #868688; stroke-width: 0px;"/>
  <path d="M279.17,391.88c-4.77.1-9.43-4.85-9.42-10.01,0-5.03,4.76-11.13,8.66-11.1,4.28.03,9.85,6.43,9.73,11.17-.12,4.66-4.8,9.85-8.96,9.94Z" style="fill: #b3b3b5; stroke-width: 0px;"/>
  <path d="M674.95,382c-.06,5.01-4.35,9.87-8.7,9.85-4.44-.01-8.73-5.4-8.59-10.79.13-5.13,4.4-9.86,8.81-9.75,4.99.12,8.56,4.61,8.48,10.69Z" style="fill: #b2b2b4; stroke-width: 0px;"/>
</svg>