<?xml version="1.0" encoding="UTF-8"?>
<svg id="Layer_1" data-name="Layer 1" xmlns="http://www.w3.org/2000/svg" viewBox="0 0 1150.21 1320.58">
  <path d="M117.59,1081.4c-15.71-19.16-28.61-40.23-41.16-61.47-23.54-39.84-43.05-81.57-57.19-125.71-13.06-40.78-21.52-82.39-18.69-125.39,3-45.47,20.34-84.13,56.42-113.72,27.35-22.43,58.58-37.46,90.76-51.04,29.58-12.48,59.88-23.31,88.45-38.1,6.51-3.37,13.39-6.35,18.6-11.84,5.07-.14,7.37,3.86,10.32,6.89-1.96,7.19-9.5,11.2-11.23,20.1,12.35-6.21,19.06,1.41,25.37,9.26,4.13,5.13,9.16,9.53,12.65,15.11,4.63,7.38,12.45,6.6,19.37,8.24-4.54,9.72-18.23,11.84-27.72,4.19-4.04-3.25-7.3-7.42-11.86-10.08-.51-.29-1-.43-2.21-.18,1.35,4.75,3.9,8.9,6.08,13.16,3.4,6.61,6.35,13.17,6.36,20.93,0,7.7,5.91,11.18,12.04,14.12,2.74,1.32,5.67,1.99,8.6,2.7,11.91.23,17.57,7.1,21.76,17.74,8.66,22,18.15,43.7,31.17,63.65,5.14,7.87,11.05,15.09,16.93,22.36,11.09,13.69,21.09,28.08,30.49,43,15.42,24.47,33.93,45.95,60.93,58.67,16.42,7.74,28.58,21.12,41.81,33.07,13.56,12.24,29.34,20.91,47.7,22.7,24.94,2.44,49.49.83,71.34-13.55,7.47-4.91,12.16-11.68,15.93-20.23,8.94-20.27,10.95-41.79,10.99-62.97.04-21.5-3.97-42.94-12.63-63.41-11.93-28.2-27.82-54.34-40.53-82.12-7.29-15.95-18.18-30.12-26.99-45.36-18.81-32.57-40.81-62.72-67.62-89.14-9.18-9.05-18.79-17.76-28.93-25.79-9.03-7.15-15.53-16.22-21.09-26.15-36.23-64.75-77.69-125.89-126.04-182.28-16.47-19.21-33.96-37.5-50.38-56.75-5.39-6.32-9.61-13.41-14.27-20.21-1.5-2.19-2.21-5.16-5.29-5.98-4.14-18.31-3.82-36.93-2.64-55.4,1.31-20.56,7.01-40.22,16.25-58.74,16.38-2,25.09-15.69,36.5-24.83,20.9-16.75,44.07-29.07,68.5-39.32,39.94-16.76,81.89-25.84,124.78-30.08,33.07-3.26,66.21-5,99.6-2.78,25,1.66,50.01,2.96,74.65,7.34,80.32,14.29,153.09,46.02,217.78,95.94,62.73,48.41,110.45,109.16,148.04,178.49,11.83,21.82,21.58,44.6,33.05,66.55,3.47,6.64,6.94,12.37,16.05,11.14,4.34-.58,7.65,2.51,10.29,5.95,2.88,3.75,4.49,8.16,6.56,12.33,9.87,25.61,16.95,52.06,23,78.77,8.24,36.34,13.92,73.06,17.17,110.26,2.85,32.7,2.96,65.34,2.7,98.06-.02,2.41.53,5.01-1.44,7.06-2.13-1.69-2.12-4.36-3.06-6.61-3.13-7.52-5.09-15.47-12.53-20.75-5.54-3.94-5.4-11.17-6.35-17.37-2.46-16.04-3.68-32.23-5.86-48.32-3.33-24.53-6.56-49.07-13.3-72.76,3.15,34.95,5.57,70.25,5.18,105.57-.9,81.36-12.54,161.21-37.74,238.71-13.79,42.43-30.12,83.92-53.55,122.22-6.19,10.12-13.2,19.63-20.42,29-.84,1.09-1.81,2.08-2.83,3-3.93,3.57-8.1,7.43-13.84,5.17-5.78-2.27-6.27-8.03-6.45-13.26-.97-27.64-5.57-54.67-12.91-81.3-7.06-25.61-19.43-48.39-36.09-68.95-1.22-1.51-2.74-2.7-4.45-3.62-6.35-4.75-10.89-11.36-16.92-16.45-19.51-18.64-42.87-28.54-69.65-30.66-5.23-1.35-10.47-1.33-15.72-.15-.79.24-1.6.39-2.41.51-35.5,3.44-64.12,19.55-86.59,46.99-17.53,20.83-26.8,44.97-28.92,71.98-3.03,31.86,4.35,61.11,22.31,87.56,4.31,6.35,9.08,12.44,14.5,17.93,3.3,4.32,8.6,6.68,11.32,11.57,18.95,25.55,43.36,43.33,74.07,52.18,13.28,3.82,26.93,5.51,40.64,6.52,12.72.94,25.15-2.26,37.69-3.75,3.28-.39,6.54-.95,9.85-.83,8.62.3,11.46,4.07,8.6,12.36-2.62,7.58-6.64,14.49-11.75,20.74-16.07,19.66-33.95,37.58-53.75,53.39-47.92,38.26-100.4,68.51-158.81,87.88-38.83,12.88-78.66,20.69-119.53,23.45-19.47,1.31-38.87,3.46-58.42,3.09-53.34-1.01-104.98-11.17-154.78-30.03-70.81-26.81-132.24-68.06-185.71-121.6-20.83-20.85-40.74-42.44-59.26-65.34-1.04-1.29-1.97-2.66-3.65-3.21Z" style="fill: #dcc59b; stroke-width: 0px;"/>
  <path d="M257.85,225.81c3.03-3.41,4.17-.39,5.31,1.69,11.46,20.97,28.78,37.19,44.28,54.9,15.5,17.71,30.77,35.64,45.62,53.9,18.67,22.95,36.61,46.52,52.29,71.62,18.59,29.75,38.81,58.5,54.98,89.74,3.01,5.81,7.4,10.63,12.61,14.84,34.39,27.77,63.78,60.14,87.57,97.39,13.57,21.26,28.17,42.17,38.89,64.86,12.78,27.06,27.61,53.05,39.86,80.42,9.55,21.34,14.03,43.54,14.5,65.77.42,20.01-2.09,40.49-9.13,60.39-5.81,16.43-15.42,26.52-30.61,32.78-14.5,5.98-29.18,9.81-45.31,8.11-8.25-.87-16.51-.51-24.9-2.26-15.14-3.16-28.2-10.4-38.58-20.77-17.84-17.82-38.31-31.52-59.89-43.98-11.08-6.4-19.53-15.55-27.38-25.53-9.35-11.88-17.3-24.61-25.51-37.25-9.36-14.43-20.88-27.38-31.45-40.98-15.43-19.85-25.51-42.77-35.18-65.8-.85-2.02-1.99-3.96-2.56-6.06-2.92-10.72-8.33-18.72-20.59-19.56.35-.44.75-1.03,1.22-1.04,13.06-.26,17.76-8.49,22.29-19.65,6.81-16.76,20.45-28.94,34.1-40.53,17.66-15,36.4-28.3,58.55-36.03,2.99-.53,5.98-1.06,8.1,1.97-.44,4.57-4.45,5.05-7.56,6.43-11.54,5.13-22.67,10.98-32.74,18.67-11.82,8.44-23.79,16.68-34.6,26.43-3,2.14-5.38,4.84-7.23,8.03-.62.95-1.31,1.85-2.02,2.73-6.1,8.11-10.34,17.04-13.45,26.75-2.95,9.21-2.3,17.56,2.63,25.71,5.21,10.14,9.32,20.91,17.13,29.53,2.68,2.22,5.66,1.56,8.64.97,11.63-2.32,22.43.41,32.51,5.98,13.76,7.6,18.8,18.14,16.21,33.59-1.39,8.34-1.99,16.37,3.31,23.68,6.63,12.72,9.44,26.74,13.66,40.23,4.58.52,3.84-3.56,4.72-5.8,6.49-16.57,8.4-34.07,9.36-51.61.62-11.34,2.68-22.3,5.49-33.22,4.48-17.42,15.73-29.92,29.53-40.43,8.57-6.53,16.45-13.65,23.14-22.13,3.61-4.57,7.05-9.1,8.33-14.94.47-2.16,1.32-4.3,4.23-4.2,1.39.41,2.62,1.23,3.17,2.48,6.82,15.41,12.35,31.13,10.77,48.42-5.29,10.85-10.21,21.88-18.35,31.13-3.85,4.37-8.47,7.87-12.33,12.15-7.41,8.23-13.41,17.42-18.14,27.46-9.53,20.25-19.85,39.98-37.09,55.06-.6.53-1.12,1.23-.65,2.84,3.85.65,7.62-.88,11.34-2.23,8.29-3.02,15.72-2.18,23.55,2.48,18.84,11.21,36.1,24.35,50.64,40.7,12.59,14.14,28,14.59,44.65,11.07,19.83-4.2,30.16-17.03,34.88-36.28,5.16-21.03,4.96-41.8,1.34-62.95-6.27-36.59-15.81-72.16-33.9-104.78-22.57-40.67-45.5-81.23-77.49-115.6-8.81-9.46-18.85-17.76-29.13-25.55-14.29-10.83-24.89-24.3-34.23-39.53-30.93-50.44-62.07-100.78-98.69-147.43-18.52-23.59-38.18-46.3-54.56-71.53-3.82-5.89-5.7-13.27-12.37-17.12-1.26-8.71-3.67-17.26-3.81-26.13Z" style="fill: #cab497; stroke-width: 0px;"/>
  <path d="M923.94,855.03c7.85,1.94,10.52,9.36,14.59,14.79,18.8,25.09,29.05,53.91,34.88,84.44,3.64,19.08,6.74,38.24,6.76,57.76,0,4.05.31,8.97,4.46,10.82,4.66,2.08,8.44-1.33,11.43-4.64,11.8-13.11,21.25-27.86,29.79-43.23,32.96-59.3,53.42-123.17,67.61-189.09,5.85-27.18,10.38-54.71,12.53-82.61,1.41-18.31,2.37-36.6,3.29-54.93.72-14.26,1.83-28.52,1.2-42.75-1.23-28.17-3.19-56.3-4.8-84.45-.15-2.68-.02-5.38.65-8.2,5.29,9.36,7.12,19.83,9.05,30.06,5.43,28.73,9.39,57.69,11.88,86.84.6,7.06,2.11,14.04,3.31,21.04.52,3.06,1.74,6.15,4.42,7.67,11.09,6.25,11.71,17.42,13.69,28.01-.1,3.26-.21,6.53-.32,9.79-1.68,4.33.5,9.04-1.3,13.36-2.85,48.45-12.12,95.79-24.85,142.52-.28,1.01-.96,1.91-1.45,2.87-3.67.03-3.2-2.71-3.38-5.02,1.25-9.24,2.28-18.52,3.62-27.76.45-3.07.46-6.37-1.88-8.59-8.04-7.61-6.23-17.25-5.32-26.4,1.51-15.29,2.97-30.59,4.18-45.9,2.08-26.48,2.19-53.05,1.84-74.57-6.59,97.39-27.77,196.32-71.29,289.82-.21.82-.52,1.62-.87,2.39-5.06,9.77-9.96,19.65-14.84,29.53-.69,1.36-1.43,2.7-2.22,4.01-3.16,4.2-5.17,9.04-7.54,13.69-.33.67-.73,1.3-1.16,1.92-2.32,2.92-3.81,6.32-5.46,9.61-.33.66-.72,1.28-1.14,1.89-1.56,2.01-2.79,4.22-3.9,6.5-.33.65-.71,1.26-1.13,1.86-1.8,2.26-3.09,4.83-4.34,7.42-1.05,1.97-2.18,3.88-3.55,5.64-4.58,6.03-8.71,12.38-12.68,18.82-1.14,1.9-2.23,3.85-3.65,5.57-3.07,3.04-5.41,6.62-7.62,10.3-.36.61-.78,1.19-1.23,1.74-1.38,1.58-2.75,3.17-3.82,4.99-.36.6-.78,1.17-1.22,1.71-1.38,1.56-2.72,3.16-3.78,4.97-.36.61-.79,1.16-1.23,1.71-1.88,2.05-3.88,4-5.29,6.44-.36.6-.79,1.16-1.23,1.7-2.14,2.28-4.33,4.52-5.93,7.25-.6.89-1.28,1.7-2.02,2.48-2.31,2.27-4.54,4.6-6.13,7.47-.41.66-.87,1.26-1.37,1.85-13.18,14.4-26.33,28.82-40.49,42.27-36.25,34.42-76.1,63.87-120.01,87.92-25.17,13.79-51.34,25.08-78.33,34.62-2.37.84-4.5,2.02-6.47,3.56-1.49,1.02-3.15,1.57-4.92,1.8-10.93,1.3-21.05,5.67-31.66,8.2-27.9,6.67-55.92,12.46-84.71,13.47-4.78.03-9.59-.39-14.24,1.25-15.72.68-31.43.69-47.15.04-4.09-1.36-8.33-1.42-12.58-1.31-43.52-1.8-85.43-11.47-126.4-25.78-17.93-6.26-35.23-14.04-52.38-22.13-13.5-7.86-27.08-15.59-41.28-22.19-22.05-12.53-41.85-28.23-61.42-44.17-17.23-14.03-33.74-28.99-48.7-45.43-20.04-22.03-40.18-44.02-56.85-68.85,5.81.4,8.49,5.34,11.3,9.01,21.47,28.07,46.72,52.64,72.39,76.57,31.76,29.6,67.25,54.39,105.55,75.11,34.94,18.9,71.54,33.58,110.02,43.12,26.23,6.5,52.8,11.43,80.02,12.9,13.16.71,26.32,1.67,39.44,1.18,71.93-2.67,141.95-13.85,208.1-44.49,40.37-18.7,77.6-42.11,112.35-69.51,20-15.77,37.77-34.13,54.03-53.83,4.75-5.75,8.07-12.5,10.77-19.4,2.61-6.69.67-9.59-6.32-9.14-10.07.64-20.35,1.06-30.06,3.47-12.52,3.11-24.86.99-36.74-.74-29.18-4.25-56.18-14.44-77.68-36.08-7.24-7.28-16.66-12.54-20.19-23.04,1.77-.61,3.23.22,4.5,1.2,9.28,7.17,19.94,12,30.05,17.77,46.79,31.17,105.94,23.77,142.38-18.51,15.62-18.12,23.25-40.19,27.77-63.45,5.94-30.6,2.43-60.1-9.8-88.65-1.51-3.52-2.99-7.11-5.85-9.85-5.6-9.8-13.39-18.48-15.66-30.02Z" style="fill: #bda173; stroke-width: 0px;"/>
  <path d="M261.66,251.94c4.55-2.23,6.18,1.84,7.46,4.29,12.83,24.5,30.92,45.23,47.92,66.66,27.29,34.39,53.26,69.65,76.32,107.03,15.41,24.98,30.96,49.87,46.49,74.78,4.92,7.9,12.74,13.04,19.78,18.44,35.2,26.99,61.93,60.83,83.69,99.11,10.17,17.89,21.7,34.97,30.82,53.5,14.78,30.04,23.53,61.82,29.44,94.66,4.19,23.3,4.58,46.05-1.59,69.15-6.51,24.37-21.63,34.5-47.22,36.94-15.2,1.45-27.09-3.82-37.12-15.36-14.55-16.74-32.6-29.27-51.65-40.42-5.76-3.37-11.49-2.54-17.38-.65-5.67,1.81-13.81,6.66-16.73,2.35-3.09-4.55,5.58-8.54,9.34-12.35,8.61-8.73,15.19-18.76,20.86-29.46,8.34-15.75,14.44-32.94,27.27-45.85,8.7-8.75,17.09-17.51,23.73-28.03,2.81-4.46,1.69-11.1,7.67-13.67,4.82.83,3.72,4.86,3.66,7.71-.36,19.26-3.11,37.4-17.15,52.68-16.73,18.2-31.04,38.54-47.72,57.13,3.82-.82,7.06-2.89,10.19-5.09,6.55-4.61,13.1-4.82,20.1-.81,7.88,4.52,16.03,8.55,24.58,11.72,4.67,1.74,9.42,3,14.42,3.37,9.24.68,15.45-2.65,19.71-11.47,9.23-19.13,15.03-39.25,16.02-60.24,1.02-21.84-5.6-42.65-15.18-62-20.04-40.47-41.55-80.13-70.71-115.07-7.27-8.71-15.96-15.93-23.77-24.07-1.75-1.82-3.96-2.97-6.57-3.09-.81-.12-1.55-.41-2.25-.83-7.08-13.93-15.93-26.69-25.9-38.7-7.62-12.47-18.36-20.17-33.15-21.71-2.28-1.28-3.43-3.49-4.57-5.68-23.38-44.91-52.56-86.11-81.77-127.27-5.89-8.3-11.05-17.02-16.48-25.59-1.06-1.67-.86-5.37-4.65-4.36-6.78-20.4-11.85-41.26-16.47-62.23-.41-1.85-.94-3.67-1.42-5.51Z" style="fill: #c1a36f; stroke-width: 0px;"/>
  <path d="M1107.25,392.4c-1.87-.9-2.4-2.73-3.42-4.35-4.54-7.2-8.87-15.08-19.84-11.36-3.46,1.17-4.83-1.74-6.33-4-6.89-10.35-11.99-21.67-17.13-32.89-22.39-48.88-49.83-94.56-83.52-136.57-40.13-50.05-87.86-91.21-143.59-122.67-44.44-25.09-91.86-43.02-142.03-53.35-20.12-4.14-40.4-6.62-60.84-8.37-22.96-1.97-45.92-3.67-68.95-3.1-54.79,1.35-108.96,7.43-161.19,25-30,10.09-58.85,22.97-84.14,42.54-8.44,6.53-16.93,13.1-24.57,20.5-5.9,5.71-11.1,11.31-20.24,7.87,13.31-26.3,34.3-45.06,58.94-60.32,38.62-23.91,81.33-36.06,125.57-43.91C498.91-.17,542.37-1.37,585.58,1.27c61.53,3.76,122.18,13.92,180.8,34.22,59.07,20.45,113.52,49.02,161.73,89.17,38.39,31.97,71.67,68.4,100.27,109.42,33.37,47.85,58.31,99.79,78.43,154.27.46,1.24.3,2.7.43,4.05Z" style="fill: #ede3cd; stroke-width: 0px;"/>
  <path d="M3.56,123.03c-.25-2.94-.4-5.87,1.96-8.18,4.38-2,5.08,1.81,6.26,4.25,29.09,59.7,61.28,117.65,99.42,172.09,19.43,27.74,40.21,54.48,64.7,78.09,3.98,3.84,8.13,7.45,12.79,10.4,4.18,2.65,6.39,1.12,5.8-3.66-.92-7.38-2.82-14.59-4.68-21.79-1.18-4.57-2.01-9.19-1.1-13.88,1.24-6.39,4.69-8.41,10.77-6.08,6.02,2.31,10.67,6.7,15.29,11.05,13.46,12.66,25.51,26.59,37.34,40.76,27.19,32.57,52.95,66.2,75.98,101.87,3.25,5.04,7.14,9.97,5.74,16.67-.71,2.25-2.51,3.49-4.38,4.64-15.12,9.29-29.21,19.96-42.69,31.47-1.64,1.4-3.28,2.98-5.78,2.25-24.5-33.89-51.62-65.74-77.22-98.77-41.8-53.93-83.71-107.77-118.79-166.5-27.11-45.38-51.07-92.42-73.21-140.39-2.31-5.01-5-9.79-8.19-14.28Z" style="fill: #3b3b3b; stroke-width: 0px;"/>
  <path d="M332.41,504.67c.68-4.72-1.42-8.69-3.82-12.35-20.16-30.71-41.54-60.52-65.01-88.82-16.28-19.63-32.03-39.69-50.68-57.21-4.02-3.77-8.13-7.45-13.02-9.89-6.38-3.18-9.08-1.43-9.48,5.79-.57,10.34,4.55,19.68,5.54,29.77.08.8.73,1.57.72,2.35-.02,3.14,1.93,7.08-1.47,9.11-3.26,1.93-6.24-.73-8.91-2.65-10.58-7.57-19.5-17.02-28.08-26.61-18.08-20.21-34.76-41.61-50.22-63.89-17.19-24.79-33.41-50.22-48.22-76.52-17.62-31.3-35.43-62.49-50.2-95.29-.81-1.79-1.68-3.52-4.02-3.61.48-1.98,1.13-3.87,2.85-5.17,7.16.48,4.7,6.88,6.58,10.62,7.2,16.42,16.79,31.55,25.71,47.02,17.33,30.04,34.93,59.93,55.67,87.83,8.86,11.92,17.4,24.14,28.29,34.36,2.63,2.47,6.07,6.82,9.7,4.59,3.74-2.31,1.12-7.21.03-10.66-8.05-25.42-21.48-48.18-35.36-70.71-17.64-28.63-37.85-55.47-57.54-82.67-1.62-2.23-3.37-4.4-4.41-6.96-1.08-2.65-4.1-5.85-1.3-8.18,2.95-2.45,5.52,1.01,7.59,2.99,5.78,5.51,11.65,10.96,16.88,16.99,19.49,22.42,39.56,44.32,58.94,66.83,38.6,44.83,77.2,89.65,113.89,136.1,33.29,42.15,64.64,85.7,95.6,129.54,4.14,5.86,8.68,11.37,13.31,16.83,3.03,3.57,6.17,7.11,5.91,12.29-4.16,4.6-9.05,7.82-15.45,8.2Z" style="fill: #535353; stroke-width: 0px;"/>
  <path d="M3.56,123.03c6.7,2.34,7.83,8.92,10.31,14.2,20.59,43.73,42.16,86.92,66.7,128.63,21.03,35.75,43.78,70.3,68.59,103.48,30.99,41.43,62.57,82.39,95.17,122.58,11.89,14.66,23.2,29.8,34.89,44.63,1.5,1.9,1.99,3.82,1.95,6.07-2.36,8.93-9.34,13.63-16.59,18.08-5.08.53-5.94-5.26-9.8-6.55-30.29-33.33-60.38-66.8-87.92-102.52-37.37-48.46-69.16-100.23-95.93-155.23C46.28,245.71,25,193.68,6.03,140.67c-2.02-5.64-4.12-11.42-2.47-17.64Z" style="fill: #131313; stroke-width: 0px;"/>
  <path d="M1074.25,977.21c-17.56,38.37-39.76,73.98-64.63,107.96-38.12,52.08-82.96,97.5-135.36,135.31-2.44,1.76-5.07,3.24-7.61,4.86-60.76,26.84-120.03,57.41-184.87,74.09-3.46.89-6.92,1.84-10.47,2.31-2.88.38-7.14,2.21-8.12-1.16-.99-3.39,3.43-4.36,6.22-5.17,7.13-2.06,14.1-4.74,21.28-6.49,5.39-1.32,10.46-3.17,15.39-5.55,19.43-8.22,39.43-15.13,58.27-24.75,40.68-20.78,79.02-44.98,113.78-74.91,18.14-15.62,35.25-32.21,52-49.23,5.16-5.25,9.29-11.5,14.74-16.53,16.3-17.21,30.29-36.3,43.83-55.64,24.35-34.77,44.82-71.84,62.68-110.32,11.59-24.97,21.2-50.76,31.19-76.4,1.19-3.07,2.24-6.23,4.17-8.96.82-1.16,2.02-2.12,3.47-1.71,1.46.41,1.94,1.91,1.99,3.29.15,4.46-1.12,8.71-2.16,12.98-3.58,14.71-8.04,29.19-10.94,44.07-.77,3.95-1,7.69,1.99,10.86,3.87,4.11,3.67,8.85,2.6,13.93-1.99,9.47-6.22,18.14-9.44,27.16Z" style="fill: #967d5c; stroke-width: 0px;"/>
  <path d="M347.23,496.15c-13.09-18.2-26.29-36.33-39.24-54.63-21.99-31.07-44.5-61.78-68.03-91.69-18.43-23.43-36.79-46.94-56.45-69.42-20.54-23.48-40.15-47.76-60.39-71.5-12.26-14.38-24.67-28.65-37.49-42.53-14.14-15.32-27.23-31.61-42.47-45.9-1.96-1.83-3.38-4.37-7.05-5.4,2.38,10.04,9.13,16.91,14.6,24.32,28.5,38.66,56.39,77.69,77.05,121.32,4.57,9.66,8.72,19.49,10.41,30.21.44,2.82.23,5.06-1.93,6.55-2.16,1.49-4.23-.32-6.07-1.36-12.64-7.14-20.14-19.34-28.5-30.36-30.74-40.51-56.04-84.49-80.4-129.01-2.75-5.02-6.82-9.39-7.73-15.34,5.24-.47,5.95,4.25,7.75,7.24,19.37,32.29,38.81,64.53,61.65,94.56,2.16,2.84,4.11,5.87,6.77,8.29,1.62,1.47,3.24,2.97,6.1,4.13.44-4.19-1.48-7.38-3.01-10.62-12.02-25.43-27.37-48.88-43-72.16-8.27-12.32-16.82-24.47-24.56-37.13-2.46-4.02-7.76-8.38-2.35-13.77,3.83-3.82,9.49-2.53,15.98,3.07,2.86,3.15,6.08,5.97,8.7,9.34,6.04,8.47,14.26,14.88,21.28,22.42,1.36,1.38,2.66,2.81,3.81,4.36,12.3,14.06,25.04,27.73,37.53,41.62,23.53,26.16,46.18,53.06,69.09,79.76,31.34,36.52,60.96,74.46,93.04,112.31-6.07-14.38-12.94-26.74-20.7-38.55-12.37-18.84-22.29-39.23-36.14-57.14-1.68-2.17-3.1-4.55-5.28-6.3-10.79-13.31-17.88-28.89-26.54-43.51-1.12-1.88-1.78-4.1.17-6.07,10.23,9.1,19.56,19.05,28.1,29.75,6.86,18.62,20.11,33.43,30.1,50.18,11.85,19.86,25.02,38.89,38.24,57.87,4.43,6.36,9.63,12.07,14.72,17.8,29.39,33.08,49.14,71.42,62.77,113.2-2.48,4.02-5.45,6.8-10.54,4.09Z" style="fill: #74706e; stroke-width: 0px;"/>
  <path d="M1074.25,977.21c.58-9.39,6.06-17.42,7.19-26.78.65-5.37,2.24-9.89-3.08-13.97-3-2.3-2.78-6.24-1.85-9.97,4.56-18.31,8.97-36.65,13.47-54.98.44-1.8,1.49-3.55-.95-6.25-5.52,13.89-10.98,27.17-16.09,40.59-24.56,64.56-57.27,124.69-98.76,179.88-8.81,11.71-16.86,24.4-28.8,33.56-1.01-1.1-.91-2.19.02-3.27h0c1.87-3.02,4.8-5.2,6.61-8.27.55-.55,1.1-1.1,1.64-1.65,1.88-3.01,4.82-5.18,6.62-8.26h0c1.86-3.03,4.81-5.18,6.61-8.26h0c1.52-2.3,3.5-4.26,4.96-6.61h0c1.52-2.3,3.5-4.26,4.96-6.61h0c2.98-3.69,5.37-7.81,8.26-11.57,1.1-1.65,2.2-3.3,3.3-4.95,4.83-6.33,9.11-13.03,13.23-19.83,1.1-1.65,2.19-3.3,3.29-4.95,2.12-2.47,2.97-5.71,4.97-8.25h0c2.09-2.49,2.96-5.71,4.96-8.26h0c2.79-3.52,3.94-7.98,6.61-11.56h0c3.42-4.59,4.98-10.21,8.26-14.88.05-1.35.33-2.58,1.64-3.3,5.66-9.56,10.47-19.55,14.88-29.73h0c14.42-30.83,26.62-62.49,36.77-95,10.99-35.18,19.09-71.02,26.01-107.16.21-1.08.21-2.19.53-3.25.81-2.66,1.67-6.06,4.86-5.84,3.88.27,2.84,4.1,2.79,6.58-.33,15.33-2.95,30.48-3.58,45.8-.44,10.64-2.22,20.89,5.24,30.72,3.73,4.92.91,12.65.1,19.09.03,1.92-.26,3.95,1.88,5.08-5.92,25.62-15.15,50.16-24.91,74.48-6.49,16.19-12.81,32.49-21.61,47.64Z" style="fill: #ad9066; stroke-width: 0px;"/>
  <path d="M707.45,1284.57c-13.8,6.66-28.91,9.65-43.06,15.45,12.22-.68,23.82-4.26,35.32-7.75,30.24-9.19,59.75-20.44,88.26-34.09,20.57-9.84,41.5-18.76,63.07-26.04,5.48-1.85,9.28-7.22,15.61-6.8-25.96,19.61-54.48,34.84-83.9,48.42-49.68,22.94-101.9,37.07-156.17,43.42-19.86,2.32-39.9,3.41-59.96,2.69-3.27.05-6.57.73-9.78-.48-5.45-.15-10.9-.31-16.35-.46-4.94-1.55-10.16.48-15.09-1.19-11.11.37-21.99-1.29-32.79-3.71-2.7-1.44-5.85.21-8.54-1.25-13.28-1.1-26.43-2.93-39.16-7.04,1.89-5.07,5.81-2.8,8.99-2.26,33.66,5.77,67.59,7.22,101.66,6.69,43.57-.68,86.09-7.98,127.79-20.37,4.18-1.24,8.42-2.3,12.58-3.6,1.35-.03,2.58-.31,3.29-1.62,2.74-1.19,5.47-2.37,8.22-.02Z" style="fill: #a58c6c; stroke-width: 0px;"/>
  <path d="M41.55,98.66c8.9,2.19,15.07,8.84,21.65,14.31,29.73,24.72,59.19,49.77,87.16,76.51.78.75,1.39,1.68,2.07,2.52,3.22,5.53,7.87,9.88,12.26,14.38,10.94,11.22,18.62,24.51,24.98,38.62,1.87,4.14,5.01,10.02.56,12.88-4.35,2.8-8.39-2.58-11.5-5.79-15.13-15.59-29.82-31.62-44.38-47.74-20.29-22.47-41.03-44.49-62.6-65.73-9.2-9.06-17.94-18.57-26.48-28.25-2.88-3.27-5.82-6.76-3.72-11.72Z" style="fill: #a6a6a5; stroke-width: 0px;"/>
  <path d="M357.37,491.59c-6.92-7.24-7.12-17.39-11.1-25.95-14.15-30.41-29.57-59.8-52.46-84.9-20.55-22.53-35.97-48.89-52.34-74.48-9-14.07-17.95-28.17-26.9-42.28-2.11-3.33-3.25-6.95-2.64-10.97,26.98,28.31,50.37,59.47,72.62,91.54,3.15.84,5.01,3.15,6.69,5.74,27.21,42.24,53.09,85.26,75.47,130.3,1.25,2.51,2.53,4.93,1.01,7.76-2.94,2.71-6.2,4.38-10.35,3.23Z" style="fill: #614e3b; stroke-width: 0px;"/>
  <path d="M367.13,487.86c-5.03-13.92-12.48-26.68-19.5-39.6-17.65-32.47-36.83-64.06-57-95.03-1.93-2.96-4.04-5.79-6.07-8.68,1.35-5.6-2.01-10.32-2.96-15.49-.58-3.15-1.35-6.25-2.04-9.38.23-1.29.46-2.58.87-4.94,35.48,56.45,77.61,107.4,106.52,166.84-5.51,5.56-12.3,7.06-19.81,6.27Z" style="fill: #9a7744; stroke-width: 0px;"/>
  <path d="M41.55,98.66c1.07,9.34,8.6,14.68,14.17,20.61,24.23,25.78,49.78,50.32,73.76,76.32,16.71,18.13,33.41,36.29,49.98,54.55,2.79,3.08,6.04,5.45,10.34,7.61,1.49-5.95-1.22-10.47-3.26-15.04-7.47-16.74-18.91-30.74-30.85-44.38-1.64-1.88-3.56-3.51-3.28-6.34,10.47,10.42,20.94,20.84,31.41,31.26,7.38,17.29,17.01,33.3,27.99,48.51,8.29,13.24,17.71,25.78,24.6,39.88,1.09,2.22,2.35,4.36,3.29,6.65,1.14,2.75,3.04,5.96-.25,8.16-2.86,1.92-5.1-.78-7.12-2.54-6.46-5.63-11.45-12.6-17.02-19.03-34.48-39.77-68.14-80.24-103.45-119.3-13.42-14.85-26.92-29.62-40.49-44.34-1.1-1.11-2.2-2.21-3.3-3.32-6.26-8.54-15.13-14.66-21.49-23.1-3.35-2.16-6.11-4.91-8.24-8.29-.78-3.34-6.52-4.12-4.58-8.86,1.64-.23,3.28-.43,4.82.43.99.18,1.97.37,2.96.55Z" style="fill: #8b8988; stroke-width: 0px;"/>
  <path d="M33.29,98.47c1.46,2.83,5.16,4.26,5.05,8.07-1.73-1.34-3.32-2.92-5.22-3.97-3.5-1.94-7.17-1.37-9.96,1.2-3.01,2.78.27,4.95,1.63,7.04,14.07,21.58,28.29,43.05,42.29,64.68,10.59,16.37,20.53,33.13,28.62,50.91,1.84,4.04,2.63,8.56,4.53,14.97-6.89-4.38-11.7-7.14-15.26-11.81-24.99-32.75-46.35-67.86-67.29-103.25-1.12-1.89-1.84-4.04-4.14-4.9-3.6-3.09.62-9.62-5.17-11.75,4.28-6.72,10.38-10.54,18.28-11.51,2.26-.89,4.5-1.32,6.64.31Z" style="fill: #787878; stroke-width: 0px;"/>
  <path d="M695.94,1286.21c-19.07,8.59-39.63,11.87-59.8,16.42-42.28,9.52-85.29,9.4-128.22,8.04-17.32-.55-34.79-2.19-51.91-5.94-3.55-.78-7.61-1.56-11.09,1.02-27.91-4.92-54.59-13.99-80.73-24.63-16.2-6.6-32.44-13.27-47.3-22.72,3.44-2.59,5.96.85,8.93,1.38,14.22,8.34,29.76,13.79,45.05,19.55,34.39,12.97,70.01,21.53,106.42,26.42,8.88,1.19,17.87,2.96,26.97,1.94,3.62,2.22,7.94-.49,11.57,1.64,16.52,0,33.04,0,49.56,0,4.2-2.19,9.03.63,13.22-1.64,31.57-1.22,62.22-7.79,92.7-15.62,8.16-2.09,15.79-6.63,24.63-5.85Z" style="fill: #bb9d6c; stroke-width: 0px;"/>
  <path d="M325.82,1259.76c-2.97-.46-5.95-.92-8.92-1.38-11.47-4.98-22.13-11.36-32.34-18.54.7-1,1.73-1.49,2.79-.92,12.84,6.91,25.65,13.88,38.47,20.84Z" style="fill: #bf9e6c; stroke-width: 0px;"/>
  <path d="M525.4,1317.75c5.05.21,10.24-1.5,15.1,1.19-5.07.05-10.2.93-15.1-1.19Z" style="fill: #bb9d6c; stroke-width: 0px;"/>
  <path d="M1147.07,709.7c.08-4.49-1.41-9.13,1.3-13.36.1,4.51,1.25,9.11-1.3,13.36Z" style="fill: #dcc59b; stroke-width: 0px;"/>
  <path d="M33.29,98.47c-2.21-.1-4.42-.21-6.64-.31,3.97-2.27,7.94-2.21,11.93-.06-1.76.12-3.53.24-5.29.37Z" style="fill: #a6a6a5; stroke-width: 0px;"/>
  <path d="M556.85,1319.4c3.27-.08,6.58-.82,9.78.48-3.31.88-6.59,1.16-9.78-.48Z" style="fill: #bb9d6c; stroke-width: 0px;"/>
  <path d="M484.08,1312.79c2.9.06,5.99-1.16,8.54,1.25-2.94.19-5.89.49-8.54-1.25Z" style="fill: #bb9d6c; stroke-width: 0px;"/>
  <path d="M566.98,139.3c33.55-2.78,53.01,19.21,70.16,42.37,35.02,47.3,31.21,119.29-6.37,164.69-19.88,24.02-44.28,39.57-75.06,45.29-8.88,1.65-16.76.23-24.47-3.91-37.28-20.05-57.5-52.09-65-92.92-3.88-21.14-1.42-42.04,2.99-62.82-1.35-7.27,2.46-13.48,5.23-19.39,16.44-35.18,42.13-60.54,79.9-72.26,4.01-1.24,8.18-3.69,12.63-1.04Z" style="fill: #fefefe; stroke-width: 0px;"/>
  <path d="M395.17,1162.03c-11.32-16.33-17.48-34.78-19.44-54.21-3.57-35.29,4.13-68.08,25.25-97.16.62-.86,1.61-1.46,2.43-2.17,9.88-11.17,20.29-21.7,34.01-28.25,1.49-.71,2.95-1.51,4.53-2,2.67-.84,5.96-1.88,7.42,1.05,1.3,2.6-1.62,4.41-3.61,5.76-8.94,6.05-16.83,13.27-24.33,21-7.98,8.22-12,18.32-14.47,29.2-.47,2.06-1.46,4.68,1.07,5.91,2.3,1.11,4.22-.78,5.77-2.29,4.72-4.64,9.82-8.83,15-12.94,15.76-12.51,33.68-19.38,53.72-21.19,7.94-.72,15.88-1.39,23.82-2.04,2.97-.24,6.46-.93,7.26-4.43.7-3.06-1.99-4.97-4.07-6.7-6.3-5.25-13.83-7.82-21.69-9.59-6.18-1.39-12.46-2.29-18.57-3.97-2.37-.65-5.04-1.28-5.54-4.24-.57-3.37,1.99-4.83,4.38-6.28,7.16-4.32,15.01-6.78,23.16-8.34,1.65-.32,3.22-.68,4.66-1.54,27.61-2.03,52.48,5.51,74.93,21.45,1.08.77,1.89,1.91,2.82,2.88-3.36,6.99-2.57,13.76.81,20.52,1.47,2.94,2,6.32,3.39,9.29,6.22,13.26,5.5,25.41-4.69,36.64-4.15,4.57-3.9,10.59-4,16.44-.35,19.03-1.81,37.93-9.84,55.58-11.8,25.93-30.26,44.99-57.54,54.6-25.3,8.91-48.75,4.56-70.42-10.6-13.21-9.24-23.38-21.56-33.64-33.78-1.46-1.74-2.75-5.1-5.49-3.87-2.52,1.13-1.43,4.44-1.28,6.8.4,6.37,2.62,12.34,4.42,18.39.99,3.33,2.82,6.79-.22,10.08Z" style="fill: #6dcb7a; stroke-width: 0px;"/>
  <path d="M910.67,413.83c26.31,5.36,46.54,20.55,64.31,39.74,4.35,4.78,8.19,9.96,11.97,15.2,1.79,2.49,2.97,5.11,2.58,8.25-1.12,5.17-.41,10.42-.75,15.63-.72,11.09-5.19,16.34-16.05,18.9-20.9,4.92-21.14,5.93-22,27.69-1.02,25.69-7.14,50.24-22.66,71.26-25.92,35.13-79.88,41.67-114.15,14.59-7.59-6-14.02-13.17-21.38-19.36-2.07-1.74-4.54-5.65-7.44-3.07-2.37,2.11-.25,5.8,1.24,8.37,5.94,10.27,12.73,19.97,21.71,27.83,11.87,10.39,25.07,18.76,39.56,25.07,4.21,1.83,8.94,3.44,8.77,9.45-13.77,1.17-24.85-4.95-35.21-13.02-37.03-22.53-59.05-55.27-65.15-98.09-1.92-13.51-2.12-27.44,1.13-41.04,2.88-7.7,4.28-15.94,8.39-23.16,1.82-3.19,3.42-7.98,8.26-6.23,4.23,1.53,2.78,5.92,2.5,9.45-.8,10.15-2.04,20.35,2.61,30.03,1.17,2.43,1.88,5.69,5.17,5.74,2.87.05,2.18-3.44,3.53-4.94,14.93-16.54,24.92-37.57,45.89-48.69,13.08-6.93,26.65-11.04,41.2-13.27,6.6-1.01,13.88-1.94,19.67-4.81,17.13-8.51,31.64-2.07,46,6.11,7.64,4.35,15.03,9.19,22.62,13.66,2.36,1.39,5.07,3.13,7.68,1.26,2.81-2.01,1.23-5.05.62-7.63-1.77-7.45-6.21-13.61-10.96-19.22-14.34-16.93-31.42-29.95-53.63-35.06-4.13-.95-10.72-1.25-10.54-6.14.23-6.36,7.33-3.66,11.43-4.99,1.1-.36,2.14-.31,3.07.48Z" style="fill: #e14f48; stroke-width: 0px;"/>
  <path d="M819.83,808.68c.51-.06,1.01-.07,1.52-.03,5.6-1.23,11.2-1.14,16.81-.04,27.85,1.01,51.37,11.85,71.08,31.31-3.03,3.35-2.76,6.57-.4,10.39,4.34,7.04,7.76,14.58,9.68,22.66,2.4,10.11,1.32,19.45-8.33,25.42-11.13,6.89-13.9,16.7-14.12,29.33-.63,35.87-11.48,67.59-41.75,89.91-6.41,4.72-13.09,9.15-21.08,10.92-6.84.64-13.24,3.5-20.19,3.74-21.22.73-38.12-8.96-53.39-22.2-23.69-20.54-34.81-48.15-42.28-77.56-2.09-8.22-3.59-16.63-3.89-25.71-2.61,5.44-3.53,10.89-5.13,16.13-.91,2.97-1.21,6.79-5.9,6.37,1.65-27.58,10.72-52.16,29.48-72.81,3.37-2.84,6.39-8.88,11.4-4.84,4.51,3.63-.22,8.04-2.23,11.62-7.42,13.2-15.77,26.01-14.96,42.12.08,1.65-.03,3.32.29,4.94.4,2.08.13,4.82,2.72,5.49,2.18.57,3.21-1.78,4.53-3.07,8.46-8.21,14.66-18.49,23.94-25.95,15.04-12.1,31.42-21.08,51.12-22.88,20.19-1.85,40.44-3.53,59.53-11.34,4.69-1.92,9.08-.75,13.33,1.91,4.81,3.01,9.32,6.68,15.15,8.23-.49-8.5-8.08-14.98-15.98-12.81-6.35,1.75-11.11.23-16.15-3.21-14.66-10-30.57-17.43-47.7-22.17-.8-.22-1.6-.45-2.36-.76-3.22-1.33-8-1.75-7.95-6.02.06-4.79,4.45-6.46,8.7-7.3,1.63-.32,3.25-.59,4.54-1.76Z" style="fill: #e2b640; stroke-width: 0px;"/>
  <path d="M121.59,912.77c-12.24-27.07-15.17-55.14-8.94-84.17,3.24-9.73,5.84-19.7,10.76-28.8,1.41-2.62,2.44-5.47,4.67-7.59,2.73-2.33,4.24-5.79,7.25-7.86,1.9-1.3,3.92-2.22,6.15-1.04,2.47,1.31,2.05,3.66,1.68,5.84-.89,5.16-2.45,10.16-3.58,15.26-.72,3.23-1.6,6.43-1.39,9.77.16,2.46.19,5.23,3.19,6.06,2.54.71,3.89-1.36,5.45-2.93,14.48-14.54,30.09-27.18,50.27-33.39,14.59-4.49,29.28-4.24,44.14-3.37,1.92.11,3.86.85,5.74.42,5.72-1.3,11.93-2.94,13.82-9.02,1.67-5.37-2.9-9.12-6.64-12.37-5.01-4.34-10.93-7.4-16.39-11.11-3-2.03-5.94-4.53-5.42-8.62.55-4.3,4.39-5.57,7.83-6.3,13.53-2.87,26.81-1.84,39.64,3.54,1.72.72,3.67,1.54,3.22,4.1-4.44,3.24-9.59,1.45-14.4,2.05-2.63.33-6.03-.42-7.13,2.81-.95,2.8,1.79,4.41,3.58,5.96,8.72,7.52,14.55,17.15,20.11,27,2.57,4.55,3.76,9.3,1.01,14.12-2.98,5.23-2.51,10.47-1,15.96,4.93,17.99,6.94,36.19,2.95,54.65-7.45,34.45-33.64,60.26-67.42,65.12-25.46,3.66-46.58-6.34-63.44-24.77-17.26-18.88-27.42-41.61-32.42-66.67-.46-2.32-.2-4.94-2.6-7.39-4.54,7.24-4.95,15.27-5.53,23-1.31,17.51,1.31,34.56,7.66,51,1.17,3.02,3.07,5.94,2.37,9.46-2.2,3.27-3.54.15-5.19-.7Z" style="fill: #49a7e4; stroke-width: 0px;"/>
  <path d="M367.13,487.86c6.6-2.09,13.21-4.18,19.81-6.27,16.47-.69,26.63,8.67,34.54,21.65,3.8,5.69,7.4,11.53,10.5,17.62,3.99,7.86,2.59,12.59-4.99,17.21-7.07,4.31-15.01,6.7-22.62,9.81-5.59,2.28-11.15,4.61-16.45,7.5-18.02,7.98-30.52,23.05-45.17,35.34-7.77,6.52-15.97,12.54-23.4,19.49-2.26,2.12-4.76,4.76-8.6,3.75-10.29,3.03-16.64-1.84-22.39-9.92-4.87-6.85-11.28-12.58-16.79-18.99-4.25-4.94-9.06-5.46-14.71-2.92-1.86.83-4.09,3.09-5.89.86-1.58-1.96.71-4.03,1.63-5.88,3.05-6.15,7.65-11.19,11.98-16.42,5.53-6.03,11.06-12.05,16.59-18.08,16.2-13.84,33.27-26.5,51.24-37.94,4.94-2.84,9.87-5.68,14.81-8.52,3.81-.58,7.08-2.35,10.14-4.56,3.25-1.24,6.5-2.49,9.76-3.73Z" style="fill: #e3e3e3; stroke-width: 0px;"/>
  <path d="M601.65,1010.26c13.41,11.1,20.18,26.6,26.27,42.06,7.95,20.21,10.77,41.51,12.22,63.33,1.77,26.7-2.78,51.73-13.78,75.62-12.02,26.09-31.07,45.97-58.21,56.11-41.83,15.63-80.07,7.87-114.3-20.6-10.72-8.91-21.42-17.8-29.01-29.75,4.41-1.59,7.16,1.72,10.23,3.67,12.97,8.24,26.4,15.26,41.92,17.27,56,9.45,110.96-21.32,132.65-73.94,12.12-29.4,15.27-59.35,7.3-90.29-.48-1.87-.81-3.76-1.04-5.67-2.27-10.65-7.62-19.99-12.47-29.55-1.29-2.54-3.96-4.92-1.78-8.26Z" style="fill: #b99d6a; stroke-width: 0px;"/>
  <path d="M125.92,914.47c-8.13-19.45-13.1-39.53-11.53-60.79.66-9.01,1.59-18.04,6.26-26.13.78-1.35,1.24-3.37,3.42-2.66,1.45.48,1.69,2.04,1.79,3.44,1.22,18.13,7.94,34.61,16.23,50.34,14.44,27.42,35.43,47.44,68.01,48.69,32.78,1.26,60.44-20.01,72.92-53.9,8.16-22.17,5.39-44.25-.49-66.25-1.43-5.35-2.02-10.03,1.73-14.71,3-3.74,1.82-7.67-.35-11.54-6.2-11.04-12.93-21.63-22.93-29.78-1.79-1.46-4.72-3.05-3.78-5.84,1.06-3.16,4.41-4.1,7.43-4.25,6.04-.29,12.11-.15,18.16-.18,9.24-1.59,16.94,2.92,24.91,6.33,2.4,1.54,5.09,2.76,6.4,5.57,2.34,2.94,1.1,5.19-1.38,7.21-2.25,1.23-4.75,1.18-7.22,1.38-8.38.69-9.76,2.56-6.72,10.39,3.08,7.94,6.53,15.7,9.31,23.8,5.04,14.68,1.18,29.49,1.79,44.2.69,16.65-1.73,32.92-6.72,48.8-11.92,37.98-38.99,57.81-77.12,64.39-44.61,2.84-71.64-25-97.66-57.42.49,11.05,3.82,19.27,8.36,27.15,1.72,2.99,4.54,5.79,2.74,9.81-2.57,1.29-4.52-.22-5.58-2.02-3.02-5.15-8.72-9.03-7.98-16.04Z" style="fill: #3292da; stroke-width: 0px;"/>
  <path d="M910.67,413.83c-4.32,2.11-9.87.45-14.66,4.98,9.2,2.97,18.08,4.76,26,8.58,23.57,11.36,43.17,26.99,51.9,53.07.99,2.94,2.36,6.05-.7,8.28-2.97,2.17-6.37,1.32-9.33-.46-7.29-4.36-14.7-8.57-21.7-13.37-6.91-4.74-14.53-7.73-22.36-10.21-7.24-2.29-14.5-2.31-21.5,1.55-3.48,1.91-7,4.76-11.48,2.28-.42-.23-1.25-.28-1.61-.02-9.77,6.97-21.91,4.88-32.71,8.63-20.08,6.97-34.82,19.63-47.87,35.74-4.97,6.13-5.55,15.85-14.74,18.64-.63.19-1.36,1.97-1.14,2.76,1.1,3.89-.77,6.09-4.18,6.44-3.54.36-5.01-2.78-6.45-5.49-5.97-11.27-5.32-23.27-3.7-35.32.37-2.73,1.94-6.07-1.39-7.13-2.58-.82-3.64,2.61-4.92,4.68-4.63,7.48-5.84,16.53-10.96,23.78,2.06-21.37,10.81-40.14,23.32-57.13,20.9-28.4,48.88-46.29,83.49-52.91,15.54-2.97,31.43-3.3,46.71,2.64Z" style="fill: #ec7066; stroke-width: 0px;"/>
  <path d="M821.17,660.38c11.4,4.99,22.4,11.07,35.05,12.59,1.82-1.72,4.03-1.48,6.22-1.18,56.64,7.68,106.63-27.92,127.2-75.75,15.79-36.7,15.68-73.57.7-110.49-1.15-2.82-2.32-5.57-2.15-8.69-1.47-9.42-9.89-14.91-13.2-23.28,14.22,11.47,23.34,26.75,31.22,42.76,14.35,29.12,17.43,60.34,15.05,92.16-1.88,25.09-12.27,46.83-28.28,66.19-18.78,22.72-43.33,35.29-71.77,39.28-35.33,4.96-67.51-3.97-95.25-27.06-2.08-1.73-4.23-3.6-4.79-6.53Z" style="fill: #c19b6a; stroke-width: 0px;"/>
  <path d="M312.45,759.28c1.12-2.01,2.17-4.04,1.65-6.47,12.38,8.99,20.17,21.74,28.1,34.36,11.66,15.91,15.83,34.4,17.1,53.47,2.68,40.54-8.6,77.05-35.89,107.32-24,26.62-54.03,41.97-90.86,41.41-2.48-.04-4.96-.1-7.25-1.23-5.1-6.03-12.21-8.04-19.47-9.92-4.26-1.1-8.49-2.43-12.49-4.27-2.2-1.01-5.8-1.41-4.37-5.51,4.04-2.12,8.17-.42,12.12.06,27.13,3.28,51.63-4.19,74.56-17.97,7.05-4.24,14.11-8.59,20.38-13.95,12.44-10.63,21.27-23.67,25.13-39.73,8.32-34.63,11.1-69.34,1.26-104.22-2.39-8.49-5.78-16.59-8.84-24.82-1.02-2.75-3.07-5.38-1.13-8.53Z" style="fill: #2b5fa9; stroke-width: 0px;"/>
  <path d="M832.9,1026.86c36.47-14.9,53.84-43.72,59.77-81.22,1.43-9.04,1.6-18.02,1.46-27.06-.15-9.41,5.51-15.05,12.28-20.09,12.02-8.94,13.7-14.05,9.18-28.1-2.54-7.89-5.93-15.36-10.63-22.22-3.68-5.36-2.1-8.08,4.29-8.26,5.54,4.41,10.08,9.8,14.7,15.12,5.43,9.37,10.85,18.74,16.28,28.1,6.84,11.36,10.35,23.73,11.17,36.91-.96,6.01-3.17,11.65-5.42,17.26-1.47,3.66-3.6,7.19-7.32,8.59-10,3.78-15.22,12.25-20.87,20.33-10.55,15.09-18.6,31.85-30.69,45.91-9.24,10.74-19.63,19.99-33.1,25.2-18.77,7.71-37.92,12.32-58.38,7.96-8.93-1.9-17.48-4.61-25.1-9.69-2.59-1.73-6.04-3.15-5.27-7.41,2.63-1.67,5.4-.88,7.97-.08,20.05,6.25,39.93,5.7,59.69-1.26Z" style="fill: #cd8913; stroke-width: 0px;"/>
  <path d="M601.65,1010.26c5.68,12.06,13.12,23.33,16.27,36.52-3.22,6.37-3.31,15.38-13.43,15.94-2.19-.46-3.97-1.85-6.02-2.64-6.65-2.55-10.98-1.18-14.8,4.78-4.29,6.68-5.33,14.28-6.29,21.96-2.67,21.41-7.39,42.31-19.05,60.82-20.78,32.99-75.85,57.47-124.02,28.92-6.23-3.69-11.96-8.47-20.66-10.67,8.04,18.33,22.47,27.83,38,36.17,6.44,3.54,13.18,6.52,19.6,10.07,2.84,1.57,6.98,2.78,4.88,7.68-15.12-1.71-28.06-8.72-40.72-16.53-3.48-2.15-6.4-5.26-10.55-6.28-9.05-9.22-19.24-17.41-26-28.7-1.25-2.08-2.45-4.19-3.67-6.29.45-7.42-3.84-13.65-5.24-20.64-.88-4.37-1.44-8.64-1.3-13.04.07-2.34-.8-5.56,2.45-6.18,2.57-.49,4.21,1.74,5.87,3.77,10.53,12.93,21.09,25.79,34.69,35.84,28.25,20.89,65.05,20.63,93.24-1.23,24.99-19.39,38.67-44.68,40.79-76.52.56-8.47,1.29-16.92,1.35-25.42.04-5.57,2.7-9.97,6.14-14.02,6.79-7.99,9.01-16.52,4.51-26.63-3.23-7.25-5.48-14.94-8.08-22.46-1.9-5.47-1.51-10.33,4.08-13.58,11.05,7.73,20.1,17.44,27.97,28.31Z" style="fill: #57ac48; stroke-width: 0px;"/>
  <path d="M566.98,139.3c-45.68,9.88-75.66,37.94-93.15,80.44-1.66,4.03-3.07,8.16-4.6,12.25-12.86,6.72-17.44,20.8-26.93,30.58-3.77,3.88-7.33,8.12-11.19,11.98-1.76,1.76-3.08,5.55-6.32,4.02-3.35-1.58-4.75-4.83-4.76-8.88-.05-17.65,2.17-34.88,8.21-51.55,11.5-31.69,31.75-56.18,61.15-72.53,17.98-10,37.82-14.12,58.42-14.17,8.49-.02,16.46,2.78,25.95,4.61-3.13,1.5-4.96,2.37-6.78,3.24Z" style="fill: #bd9569; stroke-width: 0px;"/>
  <path d="M224.98,986.87c54.63,4.9,105.48-32.99,123.97-86.11,13.08-37.57,11.55-74.45-5.83-110.45-.47-.96-.62-2.08-.92-3.12,3.01,1.59,5.16,4,6.86,6.92,17.09,29.44,23.35,61.53,21.09,95-2.17,32.17-14.17,61.2-36.97,84.11-34.15,34.29-85.18,44.65-128.72,22.43-9.46-4.83-17.96-11.56-26.87-17.46-2.12-1.41-3.79-3.22-3.8-6.02,2.11-1.6,4.24-.82,6.17.2,12.72,6.76,26.29,10.75,40.52,12.63,1.66.22,3.16.86,4.49,1.87Z" style="fill: #b2966a; stroke-width: 0px;"/>
  <path d="M819.83,808.68c-1.81,4.22-6.69,3.29-9.59,5.72-3,2.52-4.29,4.58.82,5.97,21.61,5.88,41.75,14.91,60.03,27.97,1.92,1.37,3.85,1.13,6.17.3,8.93-3.18,19.18,1.56,22.8,10.21.88,2.1,1.35,4.45,0,6.31-1.82,2.5-4.43.94-5.79-.37-13.31-12.82-27.92-11.4-43.49-4.92-10.16,4.23-21.15,3.36-31.93,4.32-24.81,2.22-47.66,10.57-65.3,29.39-7.36,7.85-14.41,16.02-21.27,24.32-3.44,4.15-5.33,3.21-6.65-1.21-3.6-12.14-2.06-23.93,3.35-35.16,3.57-7.41,7.83-14.47,11.6-21.79,1.14-2.21,5-4.41,2.17-7-2.77-2.53-5.42.81-7.94,2.19-.95.52-1.91,1.04-2.86,1.56,7.93-13.01,19.86-21.8,32.5-29.44,16.98-10.26,34.95-18.24,55.4-18.38Z" style="fill: #ebc750; stroke-width: 0px;"/>
  <path d="M310.75,613.96c17.13-13.56,34.44-26.88,49.92-42.4,7.58-7.6,16.62-13.17,26.5-17.34,16.11-6.4,33.37-8.43,49.94-13.1,3.21-.91,6.57-.86,9.37,1.58.53,0,1.06.02,1.59.04,2.89,5.22,1.15,8.12-4.61,7.72-5.1-.36-9.05,1.56-12.97,4.28-4.55,3.16-9.49,5.38-14.83,7.02-12.12,3.73-23.57,9.09-34.58,15.41,9-4.47,17.83-9.33,27.38-12.51,3.17-1.05,6.56-3.6,9.93-.22-15.96,7.21-31.33,15.43-45.09,26.39-15.82,12.6-31.08,25.71-42.16,42.99-2.7,4.21-5.49,8.5-6.13,13.31-1.27,9.63-7.56,12.21-15.77,12.78-2.18.15-4.38.08-6.58.11-15.07-1.07-22.26-8.27-23.13-23.01-.48-8.03-5.98-14.02-8.8-21.11-1.57-3.95-4.83-7.36-4.17-12.76,6.81,1.77,11.09,6.24,15.47,10.58,9.5,9.41,18.72,9.46,28.72.21Z" style="fill: #b6a695; stroke-width: 0px;"/>
  <path d="M129.22,793.81c-6.1,9.1-10.89,18.82-13.2,29.59-.5,2.32-1.17,4.15-3.37,5.2,2.44-20.49,11.77-38.12,23.85-54.2,21.15-28.17,49.49-45.26,84.29-50.78,11.21-1.78,22.79-2.45,34.09.7-2.56,2.91-6.06,2.12-9.27,2.26-10.61.44-20.55,3.62-30.37,7.26-1.94.72-4.61,1.46-4.33,4.23.23,2.27,2.68,2.55,4.44,3.12,6.82,2.22,13.47,4.8,19.77,8.27,3.41,1.87,6.61,4.01,8.96,7.16,5.08,6.79,2.54,13.15-5.9,14.26-5.17.68-10.41,1.29-15.58,1.49-26.34,1.05-48.05,12.64-67.88,28.83-1.07.87-2.04,1.85-3.14,2.68-2.49,1.86-5.12,3.58-8.24,1.44-2.97-2.04-2.98-5.24-2.32-8.22,1.08-4.82,2.9-9.43,4.7-14.04.88-2.27,2.18-4.44,2.15-8.58-8.67,5.06-14.27,11.58-18.66,19.34Z" style="fill: #88c0eb; stroke-width: 0px;"/>
  <path d="M495.92,957.61c-1.66,3.59-5.4,3.75-8.41,4.41-5.44,1.2-10.61,2.94-15.35,5.73-2.61,1.54-7.7,1.65-6.88,5.74.7,3.51,5.54,2.85,8.49,3.46,10.72,2.21,21.72,3.42,31.4,9.04,5.33,3.1,12.96,6.41,11.32,13.21-1.55,6.43-9.52,6.09-15.62,6.11-32.64.13-61.39,9.89-84.36,34.01-1.32,1.38-2.76,2.74-4.39,3.7-2.07,1.22-4.39,2.85-6.83.86-2.26-1.84-1.62-4.26-1.21-6.81,3.25-20,15.27-34.23,30.39-46.39,4.61-3.7,9.55-6.98,14.01-11.09-7.54-.31-13.21,4.11-19.21,7.45-9.93,5.53-17.02,14.56-25.87,21.44,6.06-10.77,15.45-18.39,25.05-25.6,19.96-14.98,42.19-24.28,67.45-25.29Z" style="fill: #9bd9a1; stroke-width: 0px;"/>
  <path d="M832.9,1026.86c-21.11,10.45-42.63,9.55-64.39,2.38-1.03-.34-2.13-.49-3.19-.73-6.51,1.09-11.03-3.93-16.72-5.47-8.36-2.27-9.15-1.8-7.46,6.69.47,2.38,1.51,4.78-.68,6.89-19.39-18.26-31.11-40.81-36.14-66.71-2.59-13.33-5.68-26.87-1.87-40.6,4.99-2.4,3.37-7.69,4.94-11.56,2.28-5.64,2.54-12.15,7.92-18.16.57,17.51,3.66,33.12,8.67,48.42,10.72,32.73,28,60.08,60.12,75.83,12.84,6.3,26.04,8.19,39.92,4.48,2.92-.78,5.75-1.91,8.86-1.45Z" style="fill: #e1b01b; stroke-width: 0px;"/>
  <path d="M129.22,793.81c2.26-9.05,8.79-14.97,15.44-20.71,1.47-1.27,3.68-3.17,5.87-1.23,2.15,1.9.31,4.25-.34,6.09-2.19,6.19-4.95,12.19-7.16,18.37-1.01,2.83-1.68,6.42,1.65,8.1,2.98,1.5,4.58-1.58,6.69-3.29,20.27-16.42,41.88-29.74,69.18-30.62,5.94-.19,11.92-1.24,17.93-1.66,6.83-.48,8.79-5.79,4.15-10.99-6.85-7.68-16.45-10.52-25.77-13.87-3.73-1.34-10.19-1.36-10.19-5.41,0-4.72,5.91-6.29,10.42-7.89,12.25-4.34,24.72-7.13,37.81-6.38,19.93,2.29,37.61,9.79,52.82,22.93-8.65-.77-16.66-4.02-24.91-6.34-13.98-7.26-28.7-8.65-43.78-4.77-6.84,1.76-7.2,4.85-1.82,9.44,1.44,1.23,3.24,2.04,4.84,3.08,4.38,2.82,9.01,5.33,13.05,8.58,5.14,4.14,10.3,9.14,8.55,16.42-1.3,5.4-14.64,9.91-21.2,9.25-27.44-2.77-53.19.84-75.27,19.55-6.95,5.89-14.56,10.9-19.85,18.55-1.76,2.54-4.58,3.08-7.41,2.29-3.17-.89-3.78-3.75-4.01-6.53-.71-8.71,3.04-16.62,4.52-24.93.41-2.32,3.52-5.69.16-7.28-3.32-1.57-5.11,2.33-7.05,4.45-1.45,1.57-1.96,3.98-4.29,4.79Z" style="fill: #61a5e0; stroke-width: 0px;"/>
  <path d="M740.47,1036.62c.19-3.95-2.07-7.29-2.8-10.98-1.04-5.32.64-7.91,6.69-6.11,7.36,2.19,14.23,5.4,20.96,8.99,15.41,13.9,34.04,17.1,53.84,15.8,12.3-.81,23.9-4.79,35.32-9.26.62,4.39-3.05,5.31-5.73,6.79-8.87,4.87-18.45,8.04-27.94,11.43-7.58,2.71-7.61,3.17-3.11,9.86,2.48,3.68,3.6,7.36-.15,10.97-12.35,1.89-23.28-2.54-34.06-7.63-11.53-5.73-22.94-11.66-32.93-19.95-2.92-3.76-8.1-5.21-10.09-9.91Z" style="fill: #cb8b10; stroke-width: 0px;"/>
  <path d="M224.98,986.87c-15.68.4-29.89-4.88-43.78-11.37-2.45-1.15-4.93-2.23-7.4-3.34-22.39-15.42-41.21-33.97-52.22-59.39,1.45.57,2.89,1.13,4.34,1.69,3.89,6.43,6.32,13.94,13.2,18.2,2.12.31,3.42,1.76,4.67,3.3,9.67,12.16,22.16,20.7,35.72,27.89,3.09,1.64,6.72,2.33,9.18,5.11,6.75,4.82,14.86,5.98,22.49,8.48,5.4,1.77,12.17,1.96,13.81,9.41Z" style="fill: #5d80c0; stroke-width: 0px;"/>
  <path d="M838.16,808.6c-5.6.02-11.2.03-16.8.05,5.59-2.47,11.2-2.42,16.8-.05Z" style="fill: #ebc750; stroke-width: 0px;"/>
  <path d="M342.3,625.37c.57-.59,1.14-1.17,1.72-1.76,1.88-2.97,4.76-5.12,6.56-8.15,10.51-10.26,22.44-18.65,34.76-26.53,9.14-5.33,17.9-11.27,27.71-15.48,8.42-3.61,16.93-5.8,26.12-4.67,14.49,6.06,27.66,13.96,37.29,26.81,6.89,12.99,9.18,26.86,8.61,41.47-.35,9-3.17,16.57-9.72,22.83-5.37,5.13-10.72,10.24-16.27,15.18-9.24,8.23-17.62,17.21-24.07,28.02-7.4,12.39-13.96,14.48-27.82,10.29-12.06-3.65-23.69-9-36.78-8.26-5.06.28-9.81.55-13.61,4.56-3,3.16-6.31,2.8-9.45-.06-7.98-8.56-12.67-18.96-16.57-29.8-7.64-17.01-.92-32.02,6.78-46.77,1.37-2.62,3.01-5.21,4.74-7.68Z" style="fill: #ded3c2; stroke-width: 0px;"/>
  <path d="M474.58,595.51c-9.99-10.48-21.74-18.48-34.7-24.79-4.16-2.26-9.55-1.24-13.16-4.94-2.44-2.48-5.47-1.32-8.31-1.34-11.24,1.12-20.63,7.1-30.57,11.63-3.59,1.63-6.81,4.48-12.58,4.37,7.16-8.41,16.25-11.3,24.53-14.99,11.95-5.32,25.15-7.85,35.69-16.33,1.75-1.41,4.17-2,6.28-1.06,5.99,2.66,6.58-.75,6.34-5.31,3.37-3.62,5.36-.3,7.39,1.63,25.19,23.9,46.72,50.48,63.33,81.26,10.54,19.53,22.72,38.2,32.1,58.39,8.96,19.27,16.08,39.38,15.84,60.72-.28,24.94-7.46,48.56-19.57,70.48-3.38,6.12-13.41,8.54-23.9,6.16-12.46-2.83-23.69-8.74-34.64-14.95-6.37-3.62-11.63-3.56-17.44.54-3.35,2.36-7,4.32-10.67,6.18-1.52.77-3.47,2.97-5.08.84-1.73-2.3.49-4.08,2.04-5.54,8.85-8.27,16.29-17.77,23.78-27.2,10.71-13.49,22.28-26.27,32.48-40.21,3.45-4.72,5.6-9.69,5.97-14.98.76-10.97,5.41-21.88,1.04-33.01-.69-18.03-4.15-35.34-13.1-51.26-4.14-3.39-6.08-8.33-8.55-12.78-6.78-12.23-16.37-22.33-24.54-33.5Z" style="fill: #b8945e; stroke-width: 0px;"/>
  <path d="M474.58,595.51c15.02,12.58,25.2,28.61,33.09,46.28-5.22,19.04-18.98,31.48-34.04,42.41-18.96,13.75-29.18,32.2-32.09,54.98-1.97,15.4-2.97,30.93-5.15,46.3-1.49,10.55-4.67,20.79-9.33,30.47-.68,1.41-1.11,3.47-3.16,3.19-2.02-.28-2.09-2.23-2.21-3.9,4.01-10.49,5.52-21.15,2.67-32.24-.9-3.5-1.86-6.86-4.06-9.79-5.1-6.78-7.72-6.62-11.86.76-6.99-6.44-6.89-14.98-4.51-22.65,6.76-21.83-11.7-34.63-26.89-38.38-7.19-1.78-14.37-2.37-21.77-.32-2.53.7-6.88,2.08-7.91-3.02,3.41.75,5.77,1.2,9.04-2.37,7.28-7.95,17.6-4.67,26.45-3.4,8.84,1.27,17.32,5.05,25.97,7.71,12.15,3.74,17.17,2.56,23.44-8.47,9.31-16.38,23.09-28.51,37.18-40.07,14.94-12.27,14.41-27.69,12.63-44.17-.9-8.36-5.13-15.52-7.48-23.34Z" style="fill: #dcc59b; stroke-width: 0px;"/>
  <path d="M408.43,773.98c.77-3.19-2.16-8.19,2.39-9.26,3.47-.82,6.99,2.05,9.65,5.15,9.74,11.32,10.49,35.68,1.21,45.39-4.01-13.89-7.75-27.86-13.25-41.27Z" style="fill: #ded3c2; stroke-width: 0px;"/>
  <path d="M426.71,565.78c5.07-.16,9.36,1.74,13.16,4.94-17.54-1.69-32.21,5.89-46.52,14.52-2.56,1.55-4.87,3.49-8.02,3.69,9.57-9.07,21.57-14.04,33.21-19.61,2.67-1.28,5.44-2.37,8.16-3.54Z" style="fill: #dcc59b; stroke-width: 0px;"/>
  <path d="M342.3,625.37c-4.17,10.55-10.22,20.17-12.31,31.79-1.44,7.97,1.29,15.12.79,22.66-7.68-8.42-6.12-17.98-3.09-27.51,3.14-9.87,6.88-19.52,14.62-26.94Z" style="fill: #dcc59b; stroke-width: 0px;"/>
  <path d="M350.57,615.46c-.4,4.15-3.48,6.15-6.56,8.15.41-4.14,3.5-6.13,6.56-8.15Z" style="fill: #dcc59b; stroke-width: 0px;"/>
  <path d="M783.48,1066.48c11.58,1.95,22.61,6.85,34.64,6.4,7.38-3.88,15.61-1.95,23.4-3.3,39-6.79,68.53-26.99,88.24-61.22,12.58-21.85,19.28-45.41,18.37-70.85-.2-5.52.97-10.9,1.89-16.3-1.81-13.06-5.26-25.71-9.8-38.07,8.77,8.68,11.59,20.37,14.66,31.49,10.56,38.26,6.47,75.86-10.98,111-18.4,37.02-49.11,57.71-91.12,60.75-25.69,1.86-48.29-5.95-69.29-19.9Z" style="fill: #bf9e6c; stroke-width: 0px;"/>
  <path d="M1118.89,850c-.18-8.85.6-17.04-6.56-25.13-5-5.65-1.81-15.78-1.07-23.94,1.56-17.25,4.49-34.41,3.42-51.94-5.04,7.39-5.61,16.11-7.29,24.36-12.25,60.02-29.79,118.35-54.78,174.35-1.76,3.95-3.14,8.24-6.43,11.37,2.5-11.63,8.73-21.78,13.16-32.62,17.16-41.92,30.06-85.09,39.85-129.28,6.38-28.81,10.64-57.95,14.43-87.14,2.23-17.16,2.97-34.53,5.7-52.95,2.49,6.22,2.83,11.29,2.93,16.53.46,23.6-.05,47.21-1.95,70.7-1.45,17.94-3.73,35.83-4.68,53.82-.27,5.16-.79,10.53,5.59,13.22,1.94.82,2.76,3.53,2.53,5.78-1.1,11.03-2.01,22.09-4.84,32.87Z" style="fill: #bf9e6c; stroke-width: 0px;"/>
  <path d="M707.45,1284.57c-2.74,0-5.48,0-8.22.02,12.16-6.99,25.78-10.41,38.6-15.81,39.91-16.82,76.83-38.71,111.61-64.32,28.34-20.87,54.07-44.71,78.38-70.11,5.85-6.11,10.33-13.54,17.57-18.33,0,1.09-.01,2.18-.02,3.27-19.64,23.39-41.67,44.28-64.69,64.34-37.97,33.09-80.22,59.31-125.42,80.97-15.56,7.45-31.86,13.35-47.82,19.96Z" style="fill: #bb9d6c; stroke-width: 0px;"/>
  <path d="M1046.17,959.06c-2.84,10.97-7.75,20.91-14.88,29.73,3.87-10.46,8.85-20.36,14.88-29.73Z" style="fill: #bf9e6c; stroke-width: 0px;"/>
  <path d="M1001.56,1040.01c-2.63,7.8-7,14.44-13.23,19.83,3.18-7.43,7.61-14.03,13.23-19.83Z" style="fill: #bf9e6c; stroke-width: 0px;"/>
  <path d="M1029.65,992.1c-1.75,5.52-3.49,11.04-8.26,14.88,1.75-5.52,3.48-11.04,8.26-14.88Z" style="fill: #bf9e6c; stroke-width: 0px;"/>
  <path d="M985.04,1064.8c-1.46,4.78-3.9,8.86-8.26,11.57,1.45-4.79,3.88-8.87,8.26-11.57Z" style="fill: #bf9e6c; stroke-width: 0px;"/>
  <path d="M1021.39,1006.98c-1.2,4.43-2.46,8.82-6.61,11.57,1.18-4.44,2.43-8.84,6.61-11.57Z" style="fill: #bf9e6c; stroke-width: 0px;"/>
  <path d="M966.87,1089.58c-.42,4.18-3.54,6.2-6.61,8.26.4-4.2,3.53-6.21,6.61-8.26Z" style="fill: #bf9e6c; stroke-width: 0px;"/>
  <path d="M960.26,1097.85c-.43,4.18-3.53,6.21-6.62,8.26.42-4.18,3.54-6.21,6.62-8.26Z" style="fill: #bf9e6c; stroke-width: 0px;"/>
  <path d="M951.99,1107.75c-.41,4.19-3.54,6.21-6.61,8.27.4-4.2,3.54-6.21,6.61-8.27Z" style="fill: #bf9e6c; stroke-width: 0px;"/>
  <path d="M578.61,1307.67c-4.07,3.29-8.84.93-13.22,1.64,4.07-3.29,8.84-.93,13.22-1.64Z" style="fill: #bf9e6c; stroke-width: 0px;"/>
  <path d="M1014.78,1018.54c-.58,3.4-1.65,6.51-4.96,8.26.56-3.41,1.62-6.52,4.96-8.26Z" style="fill: #bf9e6c; stroke-width: 0px;"/>
  <path d="M1009.83,1026.8c-.59,3.4-1.64,6.51-4.97,8.25.59-3.39,1.63-6.52,4.97-8.25Z" style="fill: #bf9e6c; stroke-width: 0px;"/>
  <path d="M515.83,1309.32c-3.85-.63-8.09,1.52-11.57-1.64,3.85.63,8.08-1.51,11.57,1.64Z" style="fill: #bf9e6c; stroke-width: 0px;"/>
  <path d="M976.78,1076.37c-.14,3.34-2.31,5.15-4.96,6.61.12-3.35,2.3-5.16,4.96-6.61Z" style="fill: #bf9e6c; stroke-width: 0px;"/>
  <path d="M971.83,1082.98c-.14,3.34-2.31,5.15-4.96,6.61.12-3.35,2.3-5.16,4.96-6.61Z" style="fill: #bf9e6c; stroke-width: 0px;"/>
  <path d="M446.49,542.7c-9.58.03-18.83,1.9-27.64,5.56-10.17,4.21-21.52,1.86-31.67,5.96,8.3-6.67,18.86-8.47,28.15-12.99,3.45-1.68,7.06-3.02,10.46-4.79,6.37-3.31,8.6-7.7,4.51-14.67-3.45-5.88-5.92-12.34-8.82-18.55,10,12.11,20.58,23.84,25.01,39.48Z" style="fill: #dcc59b; stroke-width: 0px;"/>
  <path d="M71.38,141.25c14.7,11.72,25.99,26.76,38.88,40.24,11.35,11.87,21.73,24.66,32.6,36.99,16.85,19.11,33.68,38.23,49.99,57.81,13.16,15.79,27.15,30.88,40.87,46.19,1.3,1.45,2.81,4.45,5.18,2.66,2.24-1.69-.04-4.06-.91-5.92-6.42-13.71-13.71-26.93-22.38-39.36-1.75-2.5-3.53-4.92-3.8-8.09,10.55,11.64,18.31,25.18,26.25,38.59,11.82,19.97,25.18,39.04,34.73,60.31,1.06,2.37,3.32,4.42,2.45,8.07-7.71-2.79-10.78-10.1-15.24-15.41-24.63-29.36-48.36-59.46-72.96-88.85-21.1-25.2-42.91-49.82-64.49-74.61-15.85-18.21-31.47-36.62-48.64-53.63-1.41-1.4-2.55-2.89-2.54-4.99Z" style="fill: #787878; stroke-width: 0px;"/>
  <path d="M46.59,114.83c7.78,7.13,16.51,13.37,21.49,23.1-7.73-7.17-16.48-13.41-21.49-23.1Z" style="fill: #787878; stroke-width: 0px;"/>
  <path d="M988.18,476.86c24.55,49.27,21.3,97.72-9.13,142.51-28.98,42.65-70.41,62.04-122.83,53.6-2.38-3.53-5.72-5.45-9.65-7.21-24.49-10.94-45.73-25.95-59.8-49.53-.42-.71-1.01-1.32-1.39-2.04-2.71-5.12-6.74-11.76-1.93-15.71,3.72-3.05,8.33,3.61,11.72,6.63,8.99,8.02,17.15,16.83,27.47,23.45,24.99,16.03,50.37,13.85,76.15,2.72,25.9-11.19,37.5-33.45,44.61-58.82,3.47-12.39,5.56-25.07,5.37-38.09-.24-16.81,2.93-20.56,19.14-24.24,17.13-3.89,18.71-5.99,18.86-23.82.03-3.15-1.3-6.64,1.42-9.44Z" style="fill: #c02515; stroke-width: 0px;"/>
  <path d="M604.98,1061.51c4.69-.3,6.08-4.08,7.94-7.42,1.43-2.59,2-5.78,4.99-7.31,3.09,14.15,6.23,28.19,5.67,42.95-1.95,51.65-23.39,92.01-68.7,117.94-24.37,13.95-51.04,17.63-78.77,12.16-.25-4.56-4.37-4.93-7.23-6.63-5.74-3.41-12.35-5.23-17.55-9.64,1.42-5.56,6.11-3.51,9.46-3.69,18.18-.98,35.97-3.46,53.11-10.13,29.95-11.64,50.73-32.74,65.13-60.99,9.29-18.23,15.46-37.53,21.23-57.03,1.07-3.62,1.15-7.72,4.71-10.21Z" style="fill: #408b2f; stroke-width: 0px;"/>
  <path d="M188.68,968.98c-19.16-5.76-34.73-16.55-46.26-33,2.88-.96,4.64,1.04,6.5,2.56,18.18,14.79,38.75,19.71,61.68,15.03,4.79-.98,9.74-1.12,14.41-2.72,35.76-4.93,66-27.36,76.19-63.12,5-17.57,6.45-35.3,6.65-53.45.18-16.09,1.92-32.14-5.01-47.42-2.48-5.48-5.05-10.96-7.02-16.62-3.07-8.81-1.44-10.98,7.59-11.08,3.02-.03,6.04.08,9.06.12,6.12,14.67,12.02,29.4,15.14,45.1,4.36,22.02,4.37,44.08,1.01,66.18-2.09,13.79-4.27,27.53-10.03,40.49-5.39,12.14-13.75,21.8-24.05,29.69-22.63,17.34-47.85,28.73-76.57,31.31-9.93.89-19.5-2.13-29.27-3.07Z" style="fill: #1d75c8; stroke-width: 0px;"/>
  <path d="M225.01,950.84c-24.29,12.17-58.79,7.18-78.14-11.27-1.37-1.31-2.96-2.4-4.45-3.59-1.1-1.1-2.2-2.21-3.3-3.31-3.41-10.06-11.23-18.29-12.22-29.36-.02-.26-.22-.51-.28-.77-.77-3.45-2.34-8.32.64-9.85,3.67-1.89,4.77,3.64,6.43,5.9,15.05,20.44,33.23,36.89,56.65,47.34,11.19,4.99,22.85,5.16,34.67,4.92Z" style="fill: #167ed1; stroke-width: 0px;"/>
  <path d="M847.02,435.19c9.19.15,15.29,1.42,20.99,4.4,3.51,1.84,7.19,3.83,6,8.6-1.03,4.09-4.86,4.7-8.46,5.29-18.88,3.09-36.17,9.68-51.67,21.33-9.09,6.83-15.74,15.98-24.42,23.09-1.39,1.14-2.43,3.55-4.67,2.51-2.16-1-1.21-3.4-1.29-5.2-.42-9.33,4.42-17.01,8.85-24.43,12.91-21.63,32.18-33.58,54.67-35.59Z" style="fill: #eb9894; stroke-width: 0px;"/>
  <path d="M922.88,433.53c7.97,1.23,14.7,6.5,21.67,11.26,9.7,6.63,16.63,15.72,22.48,25.71,1.58,2.71,2.65,5.82-.26,8.21-2.74,2.25-4.56-.87-6.33-2.1-8.1-5.63-14.08-13.65-22.02-19.59-6.75-5.05-12.68-11.2-18.84-17.02-1.44-1.36-4.21-2.64-2.83-5.23,1.02-1.92,3.48-.86,6.13-1.24Z" style="fill: #e78c86; stroke-width: 0px;"/>
  <path d="M950.02,921.21c3.17,35.98-3.88,69.44-25.17,99.12-20.66,28.81-48.41,46.2-83.79,51.43-7.71,1.14-15.27,1.26-22.94,1.12-.17-3.44.68-6.79-2.89-9.68-6.31-5.11-5.62-8.37,2.29-11.09,10.4-3.58,20.81-7.04,30.57-12.19,2.38-1.25,5.28-1.91,6.38-4.86,20.37-9.11,33.73-25.43,45.06-43.83,8.46-13.73,16.7-27.61,26.89-40.19.69-.85,1.4-2.08,2.29-2.29,14.58-3.44,16.85-16.33,21.31-27.54Z" style="fill: #b1680c; stroke-width: 0px;"/>
  <path d="M604.98,1061.51c-7.41,30.19-17.21,59.35-34.43,85.68-18.86,28.83-46.3,44.09-78.94,51.36-10.92,2.43-22.1,3.51-33.34,3.41-2.4-.02-5.02-.65-6.93,1.6-16.94-6.64-29.79-18.07-38.85-33.73-1.07-1.84-3.15-4.74-1.02-6.69,2.18-2,4.6.55,6.68,1.58,12.01,5.9,22.95,13.56,35.81,18.2,36.33,13.12,87.07-5.82,106.14-42.05,8.81-16.74,13.27-35.28,15.18-54.24.63-6.26,1.19-12.49,4-18.28,6.85-14.12,12.77-15.73,25.7-6.84Z" style="fill: #3ca645; stroke-width: 0px;"/>
  <path d="M800.91,831.85c5.88.68,13.36,1.74,20,6.21,2.71,1.82,4.99,3.92,4.85,7.06-.15,3.3-3.59,4-6.09,4.65-6.58,1.73-13.24,3.24-19.94,4.43-22.19,3.95-39.85,15.9-55.71,31.14-1.58,1.52-3,3.27-4.76,4.54-3.14,2.27-5.2,1.44-5.28-2.6-.04-1.88.22-3.83.71-5.65,6.81-25.06,38.81-49.75,66.22-49.78Z" style="fill: #ebce91; stroke-width: 0px;"/>
</svg>