<?xml version="1.0" encoding="UTF-8"?>
<svg id="Layer_1" data-name="Layer 1" xmlns="http://www.w3.org/2000/svg" viewBox="0 0 599.36 599.44">
  <path d="M18.8,195.63c5.39-15.78,12.74-30.64,20.97-45.1,5.43-9.54,11.27-18.82,18.06-27.47,2.46,1.38,1.07,3.22.37,4.73-2.24,4.86-4.62,9.66-6.85,14.53-7.41,16.18-13.23,32.82-14.86,50.66-1.2,13.15-1.39,26.31-.44,39.51.8,11.23,2.33,22.27,5.76,33.01,3.88,9.94,6.62,20.4,7.36,30.82.64,9.02,3.67,16.65,7.35,24.39,2.15,4.51,4.54,8.9,6.37,13.55,4.79,12.18,12.5,22.7,19.24,33.76,1.51,2.48,3.47,4.6,5.64,6.47,13.1,11.25,22.28,25.43,30.44,40.4,4.79,8.77,9.35,17.62,12.89,27,2.52,6.67,8.54,10.62,13.46,15.32,2.53,2.42,5.22,4.64,7.11,7.63,1.34,2.12,3.25,3.32,5.67,3.96,6.88,1.82,13.75,3.64,20.72,5.11,3.2.68,6.27.82,9.59.15,3.9-.78,7.86.78,11.8,1.3,14.23,1.89,28.11,5.64,42.26,7.97,13.42,2.21,26.99,3.21,40.45,5.01,17.32,2.31,34.27-.86,51.34-2.62,18.78-1.94,37.01-6.99,55.67-9.64,3.95-.56,7.91-1.11,11.83-1.86.74-.14,1.54-.32,2.23-.1,7.05,2.16,13.5-.95,20.14-2.26,2.56-.5,5.04-1.42,7.62-1.92,4.32-.84,7.69-2.89,10.52-6.48,3.86-4.91,8.97-8.65,13.85-12.53,3.11-2.47,5.47-5.37,7.23-8.91,6.71-13.55,14.39-26.58,23.02-38.96,4.89-7.01,10.04-13.86,16.66-19.61,14.66-12.73,24.64-28.96,32.82-46.38.74-1.56.86-4.47,3.95-2.5.69,1.42.55,2.91.34,4.4-3.39,24.41-7.25,48.75-10.45,73.19-.18,1.36-.44,2.7-.88,4.01-1.15,2.09-2.47,4.1-4.39,5.51-9.37,6.88-15.96,16.04-21.54,26.04-4.02,7.21-9.21,13.63-13.69,20.54-1.3,2.01-2.26,4.06-3.19,6.25-2.7,6.33-7.35,11.41-12.79,15.32-7.89,5.68-16.15,10.84-23.85,16.8-1.2.93-2.64,1.39-4,2.02-15.42,7.08-31.14,13.43-46.84,19.85-11.77,4.81-24.02,8.25-35.73,13-8.54,3.47-17.14,3.54-25.91,4.35-9.98.92-19.95.28-29.92.66-14.83.56-29.65-.15-44.47-.16-6.94,0-14.17.18-20.8-1.76-7.83-2.29-15.93-3.7-23.51-6.91-7.45-3.16-15.29-5.31-22.77-8.44-16.33-6.83-33.11-12.57-48.93-20.62-4.72-2.4-8.87-5.62-12.89-8.95-7.55-6.25-16.04-11.46-21.58-19.98-3.14-4.83-4.42-10.51-7.87-15.21-7.6-10.37-12.62-22.37-20.3-32.72-1.95-2.62-4.1-5.07-6.63-7.1-7.9-6.33-15.17-13.36-22.3-20.49-10.48-10.49-18.83-22.49-23.85-36.65-7.45-20.99-13.18-42.41-16.67-64.4-.78-4.91-1.24-9.88-1.25-14.89-.02-6.98.11-13.94-.57-20.93-.9-9.35,1.14-18.64,1.6-27.97.7-14.12,2.87-28.02,5.6-41.85.12-.62.04-1.24-.24-1.83Z" style="fill: #e79913; stroke-width: 0px;"/>
  <path d="M308.69,599.18c-6.31.35-12.62.34-18.93,0-2-.47-4.07.2-6.06-.41-14.27-.09-28.29-2.33-42.25-5.05-2.62-.51-5.35-.55-7.77-1.88-15.62-10.85-30.33-23.1-47.66-31.32-7.75-3.68-15.45-7.52-23.87-9.58-1.83-.45-3.64-.79-5.52-.78-6.14,0-6.88.73-6.91,6.9,0,.64-.16,1.23-.67,1.67-15.34-8.62-29.5-18.9-42.94-30.24-24.1-20.34-44.46-43.9-61.06-70.69-19.07-30.77-32.25-63.86-39.22-99.45C1.39,335.77-.53,313.04.13,290.08c.04-1.35.31-2.69.48-4.04.94.66,1.03,1.68,1.06,2.67.31,8.34,2.6,16.19,5.48,23.97,4.94,13.34,8.4,27.2,13.56,40.47,4.85,12.46,7.43,25.63,12.1,38.17,5.97,16.05,13.17,31.17,25.8,43.32,10.17,9.78,20.36,19.5,31,28.76,4.18,3.64,7.04,8.44,10.11,12.96,5.13,7.57,11,14.53,17.02,21.36,4.61,5.23,9.31,10.41,14.34,15.28,11.76,11.39,25.53,19.46,40.7,25.35,11.53,4.48,23.38,8,35.39,10.75,9.34,2.14,18.41,5.37,27.89,6.81,4.77.73,9.63-.05,14.49.42,12.18,1.17,24.46.66,36.59-.15,15.02-1.01,29.91.51,44.87.45,11.24-.05,22.38-.93,33.51-1.95,4.5-.41,8.73-2.8,13.2-3.92,2.38-.6,4.62-2.03,7.23-1.09.54,3.09-.4,5.02-3.79,6-3.09.9-4.68,2.58-4.93,5.71-.23,2.91-2.44,4.03-4.76,4.6-4.36,1.06-7.77,3.09-9.57,7.4-.44,1.04-1.39,1.94-2.56,1.99-3.22.16-5.27,1.82-6.75,4.56-.81,1.51-2.26,2.38-4.04,2.21-2.07-.2-3.33.66-3.97,2.58-.08.24-.15.53-.33.66-3.06,2.28-7.42,2.91-8.94,7.12-3.03-.13-3,1.24-1.68,3.33.28.45.06.96-.29,1.37-6.1,1.38-12.3,1.58-18.52,1.58-2,.58-4.09-.07-6.1.4Z" style="fill: #d58012; stroke-width: 0px;"/>
  <path d="M385,549.96c-5.48,1.01-10.85,2.53-15.96,4.69-3.82,1.61-7.83,1.64-11.69,1.88-6.81.43-13.72,1.82-20.37,1.35-9.56-.68-19.13.22-28.69-.93-6.23-.75-12.64-.45-19.01.2-6.3.64-12.72.05-19.07.35-8.92.42-17.78.07-26.69-.59-4.49-.33-9.03.17-13.56-.86-2.06-.47-4.03-.85-5.99-1.77-4.05-1.92-8.62-2.18-12.92-3.29-6.33-1.63-12.65-3.32-18.98-4.95-8.91-2.29-17.64-5.19-26.01-8.88-12.44-5.49-24.19-12.28-34.06-21.85-10.74-10.4-20.55-21.64-29.69-33.46-3.41-4.41-6.63-8.99-9.75-13.61-1.65-2.44-3.91-4.09-6.04-6-11.8-10.55-23.55-21.17-34.29-32.8-7.33-7.93-12.11-17.54-16.32-27.43-5.61-13.18-8.81-27.16-13.51-40.62-6.15-17.62-11.41-35.54-17.89-53.05-2.65-7.14-4.03-14.6-3.89-22.28-.17-11.63,1.47-23.11,3.26-34.54,2.91-18.51,7.7-36.58,14.11-54.21.21-.58.54-1.11.82-1.66,1.91.42,1.28,1.69,1.06,2.93-2.17,12.7-4.68,25.3-5.08,38.29-.3,9.51-2.77,19.01-1.95,28.54,1.05,12.17-.23,24.4,1.47,36.52,1.82,12.93,5.38,25.46,8.43,38.11,3.27,13.59,8.11,26.65,13.83,39.35,1.85,4.12,4.26,8.12,7.59,11.42,2.9,2.88,5.05,6.4,7.8,9.46,4.66,5.17,9.96,9.61,14.84,14.51,6.54,6.57,14.71,11.53,19.6,19.73,4.14,6.94,8.22,13.91,12.37,20.85,1.78,2.98,3.69,5.89,5.51,8.85,5.15,8.35,8.02,18.28,16.2,24.56,12.48,9.58,24.39,19.9,39.61,25.49,9.88,3.63,19.78,7.41,29.42,11.63,9.58,4.2,19.47,7.48,29.24,11.07,4.97,1.82,9.79,4.38,15.61,4.33,3.47-.03,6.79,2.75,10.88,2.93,6.3.28,12.6,1.08,18.92,1.21,8.98.18,17.98.05,26.96.05,12.04,0,24.09.19,36.13-.06,8.31-.17,16.62-.73,24.89-1.55,5.19-.51,9.55-3.87,14.64-5.13,4.27-1.06,8.32-2.95,12.68-3.95,2.68-.61,5.42-1.72,7.89-2.97,4.71-2.4,9.64-4.28,14.51-6.22,9.09-3.62,18.31-6.9,27.18-11.08,5.63-2.65,11.59-4.64,17.03-7.61,4.65-2.53,8.99-5.76,13.06-9.18,3.56-2.99,7.83-4.8,11.41-7.71,6.17-5.02,11.85-10.16,14.53-18.2,1.4-4.2,4.62-7.91,7.45-11.5,4.8-6.08,8.56-12.79,12.53-19.38,4.61-7.65,10.27-14.38,17.55-19.56,1.92-1.37,2.57-3.7,4.63-4.76,1.22,1.12.73,2.53.63,3.85-.49,6.31-1.47,12.58-1.92,18.9-.5,1.6-.65,3.24-.52,4.91-.02,1.4.03,2.82-.48,4.17-4.25,5.12-9.48,9.21-14.74,13.16-5.73,4.31-9.66,10.01-13.6,15.76-8.73,12.72-19.53,23.52-30.58,34.21-10.13,9.81-22.03,16.63-34.24,23.14-6.29,3.35-13.21,5.2-19.8,7.82-7.29,2.9-14.84,5.02-22.35,7.25-1.5.44-3.01,1.46-4.6.19Z" style="fill: #e38908; stroke-width: 0px;"/>
  <path d="M524.97,439.86c.75-7.75,1.5-15.5,2.25-23.25,3.49-24.26,7.02-48.52,10.4-72.79.44-3.18,1.35-6.35.92-9.63-.98-2.45-.18-4.93.03-7.36,2.24-25.51-.99-50.07-12.57-73.18-5.77-11.5-14.66-22.99-22.79-29.82-.66,3.18-.24,6.23-.32,9.24-.09,3.87.07,7.74-.07,11.61-.12,3.2-1.28,5.64-4.95,5.86-2.6.15-3.08,2.15-3.74,4.05-4.33,12.51-10.54,24.02-18.97,34.21-20.23,24.46-46.11,38.51-77.84,41.19-34.85,2.94-64.75-8.51-89.3-32.99-17.84-17.79-28.33-39.65-31.16-64.92-.1-.88-.41-1.7-.55-2.56-1.2-16.43.08-32.57,5.74-48.18,3.15-8.5,7.21-16.56,12.12-24.19,2.21-3.41,4.7-6.63,7.21-9.83,5.55-6.82,11.85-12.85,18.86-18.15,3.66-2.74,7.41-5.36,11.37-7.67,4.38-2.67,9.12-4.63,13.77-6.77,5.59-2.2,11.28-4.07,17.11-5.54,3.39-.76,6.79-1.46,10.2-2.14,11.45-1.47,22.87-1.18,34.26.69,4.06.67,8.07,1.59,11.96,2.93,8.72,2.87,17.4,5.85,25.25,10.77,8.62,5.38,16.81,11.32,23.98,18.56,1.31,1.32,2.53,2.71,3.62,4.21,4.97,5.35,9.13,11.29,12.89,17.53,3.57,6.33,6.8,12.83,9.19,19.71.87,2.99,1.71,5.54,5.68,6.17,3.45.55,3.3,4.09,3.35,6.96-.07,4.24.02,8.48-.06,12.71-.05,2.45.88,4.24,2.75,5.81,10.61,8.88,19.42,19.29,26.33,31.3,9.46,16.84,14.7,34.96,16.53,54.12.2,2.11.23,4.21.2,6.33-.01,5.45-.04,10.89.03,16.33.11,1.82.03,3.63-.27,5.42-1.07,10.02-2.41,20.01-3.79,29.99-1.92,13.82-4,27.62-5.92,41.43-.3,1.24-.65,2.47-.59,3.77-.02.88-.12,1.76-.28,2.63-2.24,16.89-4.09,33.8-4.94,50.84-.5,9.95-.95,19.86-.1,29.79.11,1.3-.36,2.44-.79,3.6,0,14.64,2.43,28.98,5.46,43.23,2.37,11.13,5.5,22.07,9.39,32.77.17.47.33.94.48,1.41.78,2.5.85,4.81-2.19,5.76-2.76.86-4.16-.79-4.98-3.15-4.31-12.28-7.89-24.75-10.6-37.5-2.33-10.93-3.49-22.02-5.1-33.05-.97-.78-1.12-1.9-1.19-3.02-.93-14.39-1.48-28.78-.04-43.17.11-1.13.32-2.21,1.03-3.14.06-1.45.12-2.89.19-4.34.75-1.47-.07-3.13.56-4.62Z" style="fill: #333; stroke-width: 0px;"/>
  <path d="M524.22,448.81c-.12,9.72-.98,19.43-.62,29.16.25,6.73.54,13.45.82,20.18-10.14,10.84-20.55,21.37-31.93,30.94-23.89,20.11-50.26,36.05-79.1,47.97-22.63,9.35-46.16,15.34-70.26,19.3-1.47.24-2.98.23-4.48.33-1.39-.94-2.68-.84-3.83.42-.5.03-1,.06-1.5.09-.04-.78-.23-1.54-.93-1.94-1.31-.76-1.66-1.93-1.13-3.18.68-1.62,1.89-.44,2.88-.28,1.73.28,2.06-.65,2.23-2.12.27-2.35.71-4.48,4.13-3.14,1.93.76,2.83-.8,3.34-2.54.64-2.18,1.43-4,4.43-2.78,1.82.74,3.06-.59,3.8-2.17,1.31-2.78,2.98-4.71,6.5-4.46,2.98.22,3.13-2.91,4.23-4.61,1.36-2.11,2.57-3.39,5.26-3.91,3.72-.72,7.85-1.65,7.69-7.15-.06-2.01,1.25-3.62,3.8-3.78,3.12-.19,4.9-2.12,5.45-5.18,5.03-1.33,9.99-2.89,14.97-4.36,6.78-2,13.22-4.86,19.9-7.06,7.62-2.5,14.5-6.42,21.56-10.11,15.87-8.3,28.06-20.97,40.12-33.68,6.88-7.25,13.22-15.14,18.29-23.87,2.51-4.32,6.5-7.16,10.16-10.3,4.23-3.63,8.85-6.81,12.57-11.03.36-.41,1.09-.5,1.65-.74Z" style="fill: #d58010; stroke-width: 0px;"/>
  <path d="M531.96,488.67c-1.78-14.78-.5-29.51.43-44.27.8-12.76,2.39-25.42,3.91-38.1.1-.86,0-1.76.66-2.46,5.09-6.12,10.8-11.69,15.74-17.97,2.89-3.67,5.42-7.44,7.34-11.66,6.69-14.69,11.78-29.95,15.88-45.54.92-3.5,1.97-6.96,2.92-10.46,2.72-10.02,5.16-20.13,4.31-30.61-.76-9.41,1.87-18.59,1.53-27.94-.31-8.84-1.5-17.62-1.82-26.48-.31-8.59-.94-17.17-1.82-25.73-.18-1.72-.96-4.08,1.68-5.06,4.19,10.67,7.21,21.71,9.63,32.89,5.41,25.05,7.87,50.41,6.73,76.03-2.91,65.5-24.65,124.03-65.32,175.49-.53.67-1.2,1.24-1.8,1.86Z" style="fill: #d98212; stroke-width: 0px;"/>
  <path d="M582.73,202.4c-1.43,2.44-.93,5.16-.58,7.62,1.48,10.46,1.55,21,2.15,31.52.45,7.92,2.6,15.88,1.33,23.72-2.72,16.88.19,34.19-4.95,50.94-6.3,20.54-11.5,41.39-20.79,60.91-2.9,6.09-7.7,10.63-11.66,15.84-2.82,3.71-6.32,6.91-9.58,10.28-.37.39-1.12.41-1.69.61.08-.73.15-1.46.23-2.19,1.02-.92-.13-2.21.54-3.19.59-10.23,2.69-20.26,4.04-30.39,1.73-12.99,3.83-25.93,5.13-38.97.08-.84.4-1.66.61-2.49,2.77.38,2.72-2.04,3.46-3.58,6.09-12.66,7.76-26.48,10.39-40.03,2.88-14.85,3.67-29.88,3.96-44.98.15-7.71.52-15.43.68-23.15.5-24.19-5.57-46.89-15.21-68.82-1.16-2.64-2.16-5.32-2.89-8.09-.35-1.33-1.02-2.96,1.02-3.73,4.66,5.85,8.27,12.38,11.92,18.85,6.58,11.67,12.36,23.76,17.31,36.21,1.71,4.29,3.79,8.48,4.57,13.11Z" style="fill: #f1a218; stroke-width: 0px;"/>
  <path d="M41.17,265.99c-2.61-5.15-3.45-10.83-4.39-16.38-2.62-15.36-2.9-30.92-2.26-46.44.77-18.75,5-36.81,12.66-53.99,3.24-7.27,6.71-14.44,10.04-21.66.64-1.4,1.95-2.76.6-4.45,7.79-11.48,17.19-21.6,26.75-31.58,31.59-33.02,68.96-57.2,111.76-73.07.44-.16.95-.17,1.42-.24,1.45.76,2.64,1.76,3.13,3.41-.51.99-1.49,1.3-2.42,1.61-16.68,5.53-32.05,13.71-46.81,23.14-15.23,9.73-30.67,19.16-44.54,30.85-14.9,12.56-27.98,26.82-36.88,44.21-7.67,14.99-11.12,31.12-8.86,48.18.9,6.78,1.05,13.62,3.39,20.19,1.94,5.47,5.35,10.13,7.72,15.35.46,1.02,1.2,1.91,1.39,3.05-.36,2.95-2.12,5.26-3.59,7.67-1.69,2.77-3.48,5.51-4.35,8.63-4.37,15.73-14.49,28.09-23.83,40.91-.22.3-.57.48-.91.63Z" style="fill: #f5b83b; stroke-width: 0px;"/>
  <path d="M73.36,208.38c-4.58-8.12-9.87-15.96-11.51-25.36-4.18-23.97-2.3-46.97,10.94-68.24,5.29-8.5,11.7-16,18.27-23.49,15.33-17.45,34.76-29.54,53.96-41.92,9.09-5.86,18.3-11.57,27.88-16.61,7.95-4.18,16.41-7.17,24.8-10.3,1.02-.38,2.24-.39,2.99-1.38,1.17-1.32,2.87-1.4,4.41-1.81,13.74-3.62,27.81-5.72,41.65-8.93,11.16-2.59,22.24-5.52,33.48-7.81,2.31-.47,4.62-.91,6.99-.95-.98-.04-2.02.15-2.73-.8,7.48-1.32,15.02-.56,22.53-.62,2.56-.02,5.2-.43,7.69.62-1.04,1.21-2.43,1.04-3.91,1.02,7.76,1.04,15.25,2.92,22.73,4.75,17.81,4.35,35.74,8.13,53.71,11.77,11.17,2.27,21.68,6.63,32.45,10.15,12.08,5.7,23.04,13.3,34.32,20.34,12.03,7.51,23.81,15.42,35.44,23.54,1.89,1.32,3.8,3.03,6.46,1.86,2.88,1.18,4.69,3.62,6.76,5.74,8.51,8.74,17.1,17.41,25.47,26.29,3.79,4.02,7.3,8.33,10.32,13-2.39,1.03-3.33,2.74-3.59,5.43-.46,4.74-.43,9.4-.03,14.14.83,9.75.4,19.4-3.6,28.61-2.73,6.28-4.76,12.85-8.23,18.81-3.43,5.88-12.55,9.81-19.35,8.32-1.12-2.02.71-2.54,1.8-3.31,2.65-1.86,5.65-3.15,8.19-5.23,2.22-1.81,3.78-3.9,4.67-6.6,2.12-6.4,4.39-12.75,6.3-19.21,2.19-7.38,2.12-15.06,1.41-22.65-.28-2.97-.55-5.96-.87-8.93-1.25-11.79-7.22-21.02-15.1-29.41-13.25-14.11-28.44-25.75-44.81-35.99-14.17-8.87-27.81-18.6-42.82-26.08-17.75-8.85-36.39-15.15-55.74-19.36-13.78-3-27.6-5.8-41.58-7.78-15.12-2.15-30.22-2.76-45.46-.89-21.6,2.65-42.89,6.73-63.92,12.23-23.13,6.06-44.72,15.56-64.78,28.58-14.23,9.24-28.88,17.91-41.79,28.98-12.46,10.68-23.96,22.48-31.49,37.23-7.62,14.93-9.76,30.8-4.44,47.15.7,2.14,1.36,4.3,1.85,6.48,1.74,7.62,4.71,14.47,11.3,19.21,2.37,4.21,4.93,8.08,9.26,10.83,2.97,1.89,4.14,5.79,6.08,8.81.6.94.11,1.64-.9,1.99-7.72.56-15.43.95-23.1-.43-1.57-.28-3.24-.46-4.41-1.8Z" style="fill: #facb59; stroke-width: 0px;"/>
  <path d="M548.92,134.23c-1.24,3.83.98,7.01,2.35,10.13,7.07,16.1,12.91,32.63,14.78,50.14,1.39,12.93,1.93,26.02.31,39.05-.12.98-.09,1.99-.07,2.99.49,21.32-2.88,42.17-6.86,63.03-1.82,9.53-5.58,18.21-8.77,27.18-.34.97-.57,2.03-1.81,2.06-1.54.03-1.14-1.3-1.34-2.2.06-1.72.12-3.44.18-5.17.44-5.72.4-11.44.02-17.16-1.21-20.81-6.05-40.6-16.49-58.83-.18-.31-.18-.72-.27-1.08,2.66-5.48,4.95-11.15,8.89-15.93,1.1-1.34,1.97-2.94,2.4-4.62,3.47-13.66,6.54-27.42,6.41-41.59-.13-14.03-3.23-27.65-6.77-41.16-1.32-5.06-2.82-10.08-3.94-15.19-.67-3.09.06-3.84,2.84-3.71,2.88,3.91,6.13,7.57,8.14,12.06Z" style="fill: #f5af20; stroke-width: 0px;"/>
  <path d="M540.78,122.17c-2.89.07-2.32,1.93-1.87,3.68,1.97,7.69,4.07,15.35,5.89,23.07,2.16,9.16,3.7,18.36,4.51,27.83,1.37,16.08-2.69,31.23-5.67,46.62-.32,1.66-1.24,3.32-2.25,4.7-3.26,4.42-6.28,8.95-8.15,14.16-.37,1.03-.88,2.12-2.29,2.15-6.47-10.16-13.2-20.29-22.84-27.63-5.52-4.2-7.21-8.82-6.39-15.17.29-2.21.14-4.47.19-6.7.38-.45.62-1.19,1.46-.75,4.43.16,8.59-1.08,12.65-2.63,2.62-1,4.64-2.85,5.94-5.37,4.41-8.5,8.2-17.3,10.67-26.54,1.97-7.35,1.97-14.92.84-22.49-.82-5.45.19-10.9.72-16.32.26-2.62,2.77-1.17,4.27-1.52.77.98,1.54,1.95,2.31,2.93Z" style="fill: #fbce46; stroke-width: 0px;"/>
  <path d="M149.04,558.71c.32-2.68-2.51-5.83.57-8.01,3.35-2.38,7.52-2.15,11.18-1.11,15.4,4.36,29.51,11.47,43.04,20.03,9.14,5.78,17.19,13.07,26.6,18.41,1.52.87,2.99,1.83,3.26,3.8-5.8-.33-11.27-2.23-16.74-3.85-23.31-6.9-45.63-16.2-66.7-28.4-.43-.25-.81-.58-1.21-.87Z" style="fill: #c47c14; stroke-width: 0px;"/>
  <path d="M420.2,29.31c-4.59-.67-8.9-2.41-13.16-4.07-14.34-5.56-29.52-7.59-44.4-10.92-8.96-2-17.85-4.32-26.83-6.2-8.36-1.75-16.53-4.44-25.12-5.07-1.14-.08-2.16-.55-3.74-2.28,3.08,0,5.42,0,7.75,0,26.33.83,51.94,5.74,76.96,13.78,5.86,1.88,11.79,3.63,17.33,6.41,2.61,2.28,5.59,3.99,8.58,5.7,1.07.62,2.73.78,2.62,2.63Z" style="fill: #f3cf32; stroke-width: 0px;"/>
  <path d="M420.2,29.31c-3.24-2.39-7.21-3.64-10.15-6.53-.56-.55-1.05-.99-1.04-1.8,29.45,11.48,56.57,26.91,80.75,47.4,2.17,1.84,4.41,3.57,6.16,5.84-.17,2.02-1.15,2.14-2.78,1.35-3.72-1.8-6.93-4.35-10.3-6.69-17.57-12.17-35.8-23.31-53.84-34.74-2.83-1.79-6.18-2.64-8.79-4.83Z" style="fill: #f7b231; stroke-width: 0px;"/>
  <path d="M284.5.78c1.49.07,2.97.14,5.57.27-3.7,1.88-6.88,1.94-9.8,2.58-19.98,4.39-39.78,9.63-59.92,13.31-6.58,1.2-13.09,2.75-19.63,4.15-1.93-.02-2.24-1.69-2.96-2.92,12.4-5.02,25.26-8.53,38.31-11.25,12.82-2.67,25.7-5.01,38.87-5.45,3.16-.11,6.36-.62,9.57-.67Z" style="fill: #f2d22f; stroke-width: 0px;"/>
  <path d="M334.81,597.11c.1-1.25.69-2.04,2-2.15,1.23-.1,1.73.61,1.83,1.73-1.2.85-2.54.4-3.83.42Z" style="fill: #d58012; stroke-width: 0px;"/>
  <path d="M308.69,599.18c1.97-1.03,4.06-.4,6.1-.4-1.99.77-4.05.5-6.1.4Z" style="fill: #e79913; stroke-width: 0px;"/>
  <path d="M283.7,598.76c2.03.02,4.1-.62,6.06.41-2.04.1-4.08.29-6.06-.41Z" style="fill: #e79913; stroke-width: 0px;"/>
  <path d="M73.36,208.38c9.4,2.08,18.95,1.42,28.46,1.45,1.33-1.27,3.02-1.02,4.6-1,10.31.12,20.62-.35,30.94-.11,5.14.12,9.3,2.3,13.69,4.39,6.38,3.05,12.22,6.66,16.13,12.8.65,1.03,1.63,1.88,2.74,2.49,1.56.89,1.91,2.53,2.52,4.02,1.81,4.41,3.86,8.61,7.51,11.92,5.14,4.68,11.49,5.66,17.6,2.3,4.24-2.33,7.46-5.79,10.38-9.58,1.01-1.32,1.71-3.25,4.04-2.54,3.68,2.14,7.51,2.49,11.81,2.26,11.67-.64,23.32-1.4,34.95-2.54,4.58-.45,9.15-.95,13.72-1.52,2.05-.26,3.23-1.74,4.75-2.76,1.5,7.76,2.49,15.63,5.21,23.11,14.68,40.45,42.77,65.87,85.1,74.36,54.69,10.96,108.48-21.58,125.93-74.18.84-2.52,1.6-4.07,4.65-3.75,3.04.32,3.68-1.9,3.67-4.42,0-7.74,0-15.47,0-24.36,3.69,3.72,6.95,6.65,9.79,9.94,14.96,17.3,23.68,37.42,27.1,59.98,2.05,13.55,1.73,27.08.57,40.64-.08.98-.45,1.94-.68,2.9-.93.09-1.73.44-2.03,1.39-4.27,13.42-13.09,24.25-20.8,35.62-3.71,5.47-9.16,9.85-14.17,14.34-2.42,2.18-4.64,4.43-6.68,6.95-12.14,14.95-21.76,31.48-30.56,48.52-2.33,4.51-5.12,8.39-9.15,11.54-5.47,4.27-11.03,8.52-15.11,14.29-2.01,2.85-5.28,3.15-8.24,3.9-7.21,1.83-14.37,3.87-21.71,5.15-1.48.26-2.74.76-4.19-.34-1.35-1.03-3.18-.67-4.73-.4-17.08,2.97-34.2,5.67-51.16,9.34-7.96,1.72-16.17,2.32-24.29,3.27-9.35,1.09-18.7,2.43-28.08,2.82-6.14.26-12.34-.87-18.5-1.53-7.88-.84-15.74-1.84-23.6-2.77-9.97-1.18-19.86-2.75-29.65-4.99-10.26-2.35-20.72-3.63-31.02-5.68-6.47-1.29-12.86,1.3-19.32-1.12-6-2.25-12.48-3.19-18.74-4.77-1.67-.42-3.63-.7-4.51-2.37-3.01-5.71-8.28-9.25-12.85-13.39-5.61-5.08-9.13-11.15-11.99-18.12-7.06-17.22-16.42-33.25-27.91-47.89-3.16-4.03-6.49-8.1-10.83-11.25-6.08-4.41-9.15-11.36-13.29-17.4-10.2-14.89-16.34-31.83-24.22-47.88-1.89-3.85-3.47-7.9-2.58-12.5.71-3.65-.83-7.18-1.74-10.59-1.98-7.42-2.82-15.14-5.68-22.33.93-3.62,3.76-6.13,5.88-8.88,5.19-6.7,9.09-14.15,13.62-21.22,1.47-2.29,2.45-4.84,3.01-7.56,1.55-7.45,6.34-13.35,9.67-19.95Z" style="fill: #f8c331; stroke-width: 0px;"/>
  <path d="M524.97,439.86c.06,1.57.36,3.17-.56,4.62.06-1.55-.58-3.19.56-4.62Z" style="fill: #d58010; stroke-width: 0px;"/>
  <path d="M491.24,215.1c.98,27.69-8.06,51.82-26.35,72.41-15.99,18.01-36.11,29.42-59.89,32.9-38.92,5.71-71.64-6.52-97.2-36.67-11.83-13.96-18.96-30.23-21.88-48.32,1.14-2.24,3.29-1.88,5.22-1.99,7.09-.4,14.16.12,21.19.81,8.9.87,17.89.08,26.72,1.72,2.4.73,2.58,2.73,2.73,4.77.33,4.63,1.43,9.1,3.02,13.44,1.3,3.55,3.17,6.76,5.86,9.45,6.65,6.65,15.37,6.72,22.74.22,7.47-6.58,11.59-15.12,14.44-24.43.54-1.76.61-3.74,2.32-4.96,8.24-1.32,15.39-5.57,23.04-8.51,5.71-2.19,10.91-5.44,16.63-7.69,13.44-5.28,27.22-6.72,41.51-5.23,5.06.53,10.18.85,15.29,1,1.6.05,3.28-.21,4.61,1.06Z" style="fill: #fddb3b; stroke-width: 0px;"/>
  <path d="M461.69,146.1c10.46,10.23,18.18,22.21,22.93,36.07-.16,1.8-1.66,1.73-2.78,1.71-5.49-.1-10.9,1.1-16.39.88-17.96-.72-35.44,2.48-52.85,6.39-8.6,1.93-17.04,4.85-25.99,4.95-1.38-.09-2.23-1.01-2.98-2.01-9.19-12.27-20.66-9.33-29.64,1.07-1.29,1.49-2.28,3.32-4.5,3.66-14.27.69-28.52.53-42.77-.38-4.96-.32-9.93-.04-14.9-.17-1.7-.04-3.52.24-4.92-1.16,2.48-13.43,7.64-25.73,15.65-36.81,7.72.67,15.41.44,23.15-.02,9.08-.54,18.16-.89,27.23-1.64,15.16-1.24,30.26-2.94,45.35-4.92,20.39-2.68,40.77-5.52,61.21-7.83.75-.08,1.49-.04,2.22.2Z" style="fill: #faf0a8; stroke-width: 0px;"/>
  <path d="M471.14,144.69c-7.23-7.99-15.37-14.89-24.48-20.65-.79-.5-1.86-.71-2.19-1.78.12-1.54.07-3.2,2.34-3.14,1.78.88,3.35.27,4.96-.58,4.31-2.26,8.45-4.84,12.86-6.9,2.68-1.24,3.45-3.49,4.05-6.24,2.1-9.6-3.09-15.79-9.42-21.7-8.99-8.4-19.26-14.91-29.64-21.44-18.36-11.55-38.76-17.68-59.37-23.06-17.49-4.57-35.15-8.61-53.05-11.39-13.01-2.02-26.04-2.1-39.06,0-22.8,3.69-45.41,8.32-67.69,14.42-13.12,3.6-26.25,7.71-38.24,14.05-15.19,8.03-29.93,17.06-42.37,29.24-2.23,2.19-4.17,4.66-5.9,7.25-4.37,6.52-1.45,16.13,5.58,19.42,8.36,3.92,16.58,8.13,25.26,11.32.71.26,1.34.67,1.77,1.32.37,2.15-1.59,2.26-2.71,3.12-7.99,3.53-14.53,9.09-20.87,14.94-1.44,1.33-2.54,3.12-4.62,3.67-9.91-1.2-18.64-5.57-25.51-12.32-9.32-9.15-9.64-21.35-2.8-32.95,4.79-8.11,11.08-14.65,18.52-20.32,12.71-9.68,25.24-19.64,39.2-27.5,16.72-9.41,34.51-16.32,53.01-21.3,24.74-6.66,49.87-11.51,75.35-14.09,13.79-1.39,27.69-.31,41.37,2.25,19.26,3.6,38.6,6.84,57.42,12.44,26.52,7.88,51.36,19.25,73.58,35.97,7.78,5.85,15.94,11.22,23.43,17.41,9.08,7.51,16.41,16.37,17.68,28.86.32,3.1-.03,5.9-1.5,8.67-3.23,6.1-7.97,10.81-13.44,14.86-2.4,1.78-4.92,3.42-7.33,5.2-1.83,1.35-3.88,2.39-6.22.94Z" style="fill: #f8ed8f; stroke-width: 0px;"/>
  <path d="M156.59,125.24c-10.42-3.46-19.99-8.85-30.01-13.21-2.4-1.05-3.84-2.83-4.65-5.76-3.05-11.04,3-17.56,10.35-24.19,8.39-7.55,17.73-13.56,27.18-19.58,9.83-6.26,20.39-10.67,31.22-14.84,22.98-8.85,47.12-12.97,71-18.12,10.13-2.18,20.45-3.58,30.92-4.13,13.53-.71,26.72,1.24,39.73,4.11,21.32,4.7,42.9,8.51,63.44,16.25,8.26,3.11,17.07,5.33,24.58,9.76,12.15,7.16,24.84,13.7,35.2,23.65,4.65,4.46,9.77,8.33,13,14.23,3.12,5.72.97,11.05,0,16.53-.19,1.08-1.51,1.56-2.51,2.1-5.04,2.71-10.03,5.54-15.12,8.15-1.51.78-3.56,2.1-4.47-.93-1.43-7.62-6.51-13.34-10.29-19.74.22-3.88.71-7.72,2.35-11.3.91-1.98.45-3.59-.89-5.16-3.65-4.27-7.43-8.42-11.15-12.63-2.36-2.67-5.62-4.09-8.75-5.66-19.98-10.02-41.23-16.43-62.75-22.06-13.65-3.57-27.37-6.79-41.25-9.39-9.78-1.83-19.42-2.37-29.31-.65-27.72,4.83-54.96,11.54-81.79,19.95-10.98,3.44-21.47,8.18-31.68,13.41-7.61,3.9-12.33,11.08-17.67,17.47-.16.19-.24.43-.33.67-1.35,3.72,3.36,15.23,7.08,16.35,5.66,1.71,10.89,4.28,16.2,6.76,6.92,3.24,14.22,5.39,21.74,6.84,5.05.97,9.79,2.99,14.49,5.02,5.73,2.47,11.65,4.59,17.19,7.38,7.57,3.82,15.47,6.79,23.14,10.33,2.73,1.26,5.57,2.22,8.49,2.91,11.05,2.62,22.25,4.41,33.56,5.41,1.87.16,3.71.49,5.53.93.79.19,1.82.35,1.55,1.63-2.33,3.2-4.67,6.41-7,9.61-2.25.87-4.43-.08-6.63-.28-7.05-.64-14.12-1.17-21.18-1.6-2.14-.13-4.22-.45-5.82-2.09-3.57-9.55-9.44-13.37-19.77-11.97-9.39,1.28-17.76-.82-25.61-5.86-12.82-8.23-26.88-12.29-42.11-12.3-4.4,0-8.64,1.07-12.9,2.01-1.42.31-2.85,1.14-4.27-.02Z" style="fill: #f9f3b3; stroke-width: 0px;"/>
  <path d="M471.14,144.69c2.74.04,4.94-.94,7.05-2.79,2.98-2.6,6.4-4.68,9.54-7.14,3.84-3.02,6.85-6.61,9.02-10.77,4.3-8.25,1.18-15.67-3-23.07-6.01-10.63-16.05-16.82-25.41-23.71-10.6-7.81-21.18-15.67-32.6-22.3-7.67-4.46-15.92-7.67-23.95-11.34-19.14-8.76-39.45-13.54-59.94-17.61-20.07-3.99-40.14-8.21-60.84-7.15-13.29.68-26.34,2.96-39.36,5.44-15.22,2.9-30.44,5.77-45.35,10.19-11.25,3.33-22.05,7.76-32.83,12.28-19.96,8.36-36.72,21.71-53.74,34.67-7.41,5.64-13.98,11.89-18.58,20.1-3.45,6.16-6.34,12.76-4.35,19.65,1.67,5.75,4.27,11.46,9.83,15.19,6.79,4.56,14.04,7.84,21.93,9.85.96,1.19-.19,2.06-.51,3.02-.66,1.99-.88,3.88.71,5.55,1.61,1.7,3.58,1.54,5.52.85,4.84-1.7,9.12-4.39,13.19-7.49,1.39-1.06,2.65-2.81,4.86-1.88,2.33,3.61,6.12,5.02,9.91,6.15,9.88,2.95,19.44,6.81,29.25,9.93,1.53.49,3.16.8,4.09,2.34.22,1.79-1.3,1.95-2.37,2.33-5.11,1.82-9.01,5.14-12.17,9.47-1,1.37-1.86,3.01-3.83,3.33-7.86-1.94-15.92-3.38-23.51-6.1-11.49-4.11-23.47-5.84-35.22-8.68-8.74-2.11-16.64-5.52-23.15-12.16-10.49-10.69-12.88-23.26-9.62-37.29,2.25-9.67,8.29-17.26,14.75-24.4,11.16-12.32,24.84-21.56,38.6-30.64,14.29-9.42,29.03-17.97,44.99-24.41,20.29-8.19,41.56-12.38,62.84-16.71,12.59-2.56,25.15-5.41,37.98-6.43,11.07-.87,22.22-1.07,33.22.73,23.28,3.8,46.42,8.43,69.18,14.66,21.2,5.8,40.97,14.9,59.46,26.86,12.37,8,24.92,15.7,36.51,24.83,7.86,6.19,15.23,12.92,21.48,20.76,6.6,8.29,8.58,17.83,6.9,28.14-.72,4.42-1.62,8.82-3.5,12.97-2.64,5.85-7.75,9.35-12.32,13.37-2.53,2.23-5.42,4-8.17,5.94-1.1.78-2.28,1.65-3.75.69-4.03-5.9-7.96-11.88-12.74-17.23Z" style="fill: #fae37e; stroke-width: 0px;"/>
  <path d="M301.89,147.75c-4.14-1.89-8.67-1.8-13.02-2.22-11.75-1.14-23.42-2.9-34.45-7.01-5.67-2.11-11.71-3.71-16.91-6.71-11.27-6.48-23.44-10.72-35.42-15.41-5.27-2.07-11.06-2.81-16.53-4.42-5-1.48-9.84-3.46-14.39-6.05-3.17-1.8-6.58-2.91-10.09-3.83-4.02-1.06-7.04-3.09-7.25-7.76-.04-.99,0-2.16-.49-2.91-4.22-6.34.43-9.99,3.77-14.52,8.76-11.89,22.06-16.29,34.77-21.36,24.08-9.61,49.46-14.85,74.61-20.68,9.74-2.26,19.74-3.74,29.71-4.6,7.52-.65,14.98,1.67,22.41,3.02,22.15,4.02,43.71,10.37,65.29,16.6,8.84,2.55,17.31,6.25,25.68,10.11,4.63,2.14,9.3,4.24,13.78,6.68,5.05,2.75,7.47,8.3,11.78,11.84,5.23,4.3,5.74,9.19,2.83,14.9-1.04,2.04.04,4.53-1.33,6.51-1.56.17-2.56-.91-3.56-1.76-5.16-4.4-11-7.65-17.17-10.38-1.21-.54-2.68-.87-2.93-2.55,2.23-8.87-4.23-13.02-9.92-16.96-8.22-5.7-17.41-9.85-26.86-13.09-17.13-5.88-34.65-10.47-52.45-13.79-8.07-1.51-16.28-2.75-24.51-2.72-15.52.07-30.86,2.17-45.89,5.99-11.24,2.86-22.56,5.46-33.66,8.9-10.42,3.23-20.21,7.89-29.71,13.2-4.33,2.42-7.23,6.46-10.66,9.89-1.45,1.45-1.32,3.13-.44,4.83,3.91,7.56,8.23,14.53,17.55,16.48,5.02,1.05,9.58,3.49,13.99,6.16,2.88,1.75,5.98,3.07,9.14,4.27,11.43,4.33,22.94,8.41,34.63,11.98,1.92.59,3.78,1.31,5.32,2.65,1.47,1.28,3.24,1.77,5.13,2.07,9.72,1.56,19.47,2.94,29.16,4.76,7.88,1.48,15.59-.9,23.23-2.77,1.89-.06,3.02.86,3.45,2.68-6.51,5.68-12.95,11.44-18.61,18Z" style="fill: #f8f2b6; stroke-width: 0px;"/>
  <path d="M461.69,146.1c-3.97,2.31-8.5,1.63-12.75,2.2-8.83,1.18-17.64,2.63-26.48,3.62-8.86.99-17.69,2.23-26.55,3.27-9.96,1.16-19.89,2.53-29.86,3.6-6.78.73-13.59,1.16-20.4,1.62-13.15.89-26.31,1.69-39.5,1.49-1.35-.02-3.17.69-3.6-1.58,4.64-8.06,11.14-14.56,18.12-20.47,20.06-16.99,43.35-25.47,69.64-24.91,21.96.47,41.91,7.34,59.52,20.59,4.24,3.19,8.36,6.55,11.86,10.58Z" style="fill: #fdfbe9; stroke-width: 0px;"/>
  <path d="M483.88,161.92c4.16-1.27,7.27-4.26,10.5-6.87,3.74-3.02,8-5.64,10.58-9.87,8.96-14.71,8.68-34.58-4.39-48.03-15.07-15.51-32.76-27.37-50.83-38.87-9.14-5.82-18.42-11.42-28.15-16.15-10.97-5.33-22.49-9.42-34.23-12.77-19.69-5.62-39.89-9.06-59.9-13.28-13.81-2.91-27.95-3.38-41.97-2.25-14.07,1.13-27.86,4.39-41.7,7.21-16.42,3.35-32.85,6.58-48.75,12.03-16.92,5.81-32.84,13.65-47.86,23.37-10.54,6.83-21.04,13.71-30.92,21.47-10.55,8.29-19.94,17.69-26.47,29.54-7.06,12.81-6.09,32.71,5.72,44.25,7.32,7.15,15.81,10.96,25.56,12.75,19.2,3.52,37.69,9.74,56.5,14.72.68,3.3-1.55,5.2-3.48,7.26-1.66.58-3.19-.08-4.75-.47-8.96-2.2-17.85-4.7-27-6.07-5.34-.8-10.71-.43-16.07-.38-7.99.09-15.95-.41-23.87-1.33-7.85-.91-14-4.92-18.89-10.99-11.26-19.35-12.46-38.83-.64-58.43,9.24-15.31,21.8-27.49,36.31-37.7,15.3-10.76,30.83-21.2,47.19-30.31,19.72-10.98,41.15-17.14,63.01-22,15.23-3.39,30.56-6.25,46.02-8.42,17.43-2.45,34.82-2.11,52.15.9,22.14,3.84,44.23,7.9,65.73,14.63,13.02,4.07,25.74,8.93,37.44,15.97,18.49,11.13,36.94,22.33,54.42,35.03,9.95,7.22,18.26,16.22,26.54,25.2,6.61,7.17,8.76,16.01,10.12,25.58,1.81,12.72-1.86,23.95-6.68,35.11-3.93,9.1-11.72,14.32-20.08,18.83-.67.36-1.44.4-2.09-.19-2.74-6.62-5.77-13.11-9.08-19.47Z" style="fill: #fcdb6c; stroke-width: 0px;"/>
  <path d="M277.19,229.96c.07,2.52-1.49,3.59-3.69,3.82-7.75.81-15.49,1.63-23.25,2.28-9.86.83-19.73,1.64-29.61,2.18-3.58.19-7.2-.48-9.54-3.84-.79-1.6.2-2.89.79-4.21,7.5-16.72,9.17-33.72,2.65-51.16-.41-1.08-1.26-2.29.11-3.38,1.31-.63,2.68-.56,4.03-.3,18.21,3.49,36.62,3.61,55.05,3.41,3.2-.03,6.51-.28,9.29,1.88-1.47,5.94-3.09,11.84-4.37,17.82-2.23,10.4-1.77,20.97-1.46,31.51Z" style="fill: #faee6d; stroke-width: 0px;"/>
  <path d="M385.81,195.67c7.13-1.4,14.29-2.66,21.37-4.4,9.11-2.25,18.28-4.39,27.61-5.59,6.73-.87,13.44-2.28,20.27-2.02,9.2.35,18.36-.64,27.54-.78.76-.01,1.5-.06,2.02-.72,4.66,10.48,6.19,21.6,6.61,32.93-12.19.15-24.28-2.12-36.48-1.48-10.42.55-20.43,3.22-29.67,7.85-8.45,4.23-17.27,7.57-25.72,11.77-2.81,1.39-6.37.76-9.38,2.06-1.55-3.65.31-7.24.2-10.86.72-2.6.78-5.21.09-7.83-.23-2.59-.66-5.16-1.07-7.73-.49-3.35-1.52-6.54-2.76-9.67-.45-1.13-1.24-2.21-.63-3.54Z" style="fill: #fbe871; stroke-width: 0px;"/>
  <path d="M283.02,180.64c-12.16-1.46-24.39-.11-36.55-.85-9.24-.57-18.52-1.31-27.62-3.26-1.5-.32-2.96-.31-4.44-.39-1.44-.15-2.06-1.33-2.73-2.32-3.28-4.86-7.86-7.4-13.63-7.97-.86-.08-1.74-.14-2.39-.84-10.81-4.06-21.69-7.92-32.73-11.31-2.88-.89-5.54-2.23-8.22-3.56-1.71-.85-2.85-2-2.7-4.05,1.21-3.3,4.77-3.83,6.99-5.94,3.77-2.03,7.78-3.19,12.08-3.25,2.25.03,4.5,0,6.75,0,9.37.51,17.55,4.47,25.56,8.89,5.79,3.19,11.32,6.82,17.31,9.66,9.71,4.59,19.76,5.52,30.27,3.41,4.27-.86,7.3-3.48,10.55-5.93,5.32,2.5,11.12,1.46,16.68,2.15,5.58.69,11.24.63,16.69,2.28-4.6,7.43-8.31,15.31-11.86,23.28Z" style="fill: #f8f09b; stroke-width: 0px;"/>
  <path d="M492.96,181.38c9.6-4.63,18.18-10.36,22.03-21,2.86-7.91,7.24-15.55,6.26-24.32-.84-7.58-.22-15.43-3.5-22.66-2.17-4.8-5.27-8.93-8.7-12.91-16.95-19.6-38.71-32.85-60.25-46.52-16.46-10.45-33.28-20-51.87-26.03-16.19-5.25-32.77-9.02-49.51-12.08-9.74-1.78-19.45-3.91-29.28-5.05-11.23-1.31-22.54-1.44-33.88-.37-21.78,2.06-43.13,6.52-64.34,11.53-22.24,5.25-43.56,13.05-63.1,25.3-12.97,8.13-25.85,16.43-38.34,25.23-15.3,10.78-28.4,24-37.09,40.75-6.58,12.67-7.96,26.23-3.04,40.09,1.59,4.48,3.28,8.87,5.51,13.06,2.69,6.34,3.64,12.98,3.34,19.82-.05,1.23-.08,2.48-1.1,3.4-6.43-4.17-9.41-10.38-11.39-17.6-2.66-9.72-6.16-19.15-5.13-29.54,1.19-12.05,4.24-23.23,11.17-33.5,7.32-10.86,16.2-20.2,25.66-29.01,8.84-8.22,19.2-14.54,29.22-21.25,11.8-7.89,23.68-15.69,36.36-22.04,20.79-10.41,42.88-17.09,65.67-21.62,12.39-2.46,24.77-5.13,37.32-6.48,11.44-1.23,22.88-2.16,34.54-1.2,24.59,2.02,48.6,6.97,72.34,13.17,21.42,5.59,41.56,14.54,60.23,26.58,15.57,10.04,31.51,19.52,46.21,30.85,11.38,8.77,21.71,18.65,30.39,30.13,5.28,6.98,7.13,15.27,7.79,23.77.21,2.73.75,5.4.91,8.13.64,10.75-2.01,20.8-5,31.03-2.91,9.98-7.56,17.64-17.44,21.58-.63.25-1.06.98-1.58,1.49-.49.25-.97.5-1.46.75-.38-5.83-.37-5.87-5.98-6.71-1.01-.15-1.43-.38-1.6-1.48-.28-1.79-.89-3.52-1.37-5.28Z" style="fill: #fbd05e; stroke-width: 0px;"/>
  <path d="M286.89,197.12c21.2-.06,42.39,1.47,63.6.8.67,2.55-1.6,3.96-2.34,5.97-.46,1.26-1.1,2.48-1.62,3.73-3.21,8.41-5.11,17.1-5.45,26.11-.04,1.11-.06,2.25-.93,3.13-16.4-.49-32.73-2.33-49.15-2.28-1.75,0-3.51-.14-5.09.85-2.12-12.83-2.16-25.61.97-38.3Z" style="fill: #fbed6c; stroke-width: 0px;"/>
  <path d="M362.51,110.14c-5.73,1.8-11.46,3.59-17.2,5.39-1.11-.1-2.23.05-3.34-.29-3.19-.99-4.18-2.99-2.76-6.01,1.42-3,3.51-5.52,6.42-7.13,13.37-7.36,27.09-14.01,42.17-16.98,12.63-2.49,23.97,1.08,33.87,9.18,3.24,2.65,5.61,6.04,6.91,10.05,1.15,3.52-.36,5.06-3.97,4.11-2.17-.58-4.21-1.54-6.23-2.53-2.57-1.27-5.13-2.57-7.72-3.8-6.76-3.2-13.79-4.15-21.13-2.61-9.61,2.01-18.53,5.78-27.03,10.62Z" style="fill: #a36414; stroke-width: 0px;"/>
  <path d="M362.51,110.14c2.9-4.28,7.92-4.96,12.1-6.98,6.76-3.26,14.06-5.1,21.51-5.5,5.47-.3,10.76,1.46,15.74,3.88,4.03,1.95,8.11,3.81,12.16,5.72,1.27.6,2.74,1.31,3.85.3,1.27-1.16.01-2.64-.47-3.75-3.98-9.24-11.93-13.73-20.89-16.67-8.94-2.93-17.87-1.96-26.7.96-10.9,3.61-21.35,8.23-31.51,13.54-1.21.63-2.39,1.35-3.48,2.16-2.45,1.83-4.62,4.19-5.24,7.08-.98,4.58,4.15,2.65,5.75,4.65-4.49,2.24-8.98,4.47-13.47,6.71-2.74.3-4.53-1.07-5.6-3.42-1.03-2.27-.51-4.48,1.05-6.29,2.52-2.92,5.08-5.83,8.4-7.9,1.07-.67,2.12-1.32,2.81-2.4,3.3-3.07,7.32-4.77,11.55-6.06,2.8.01,5.17-1.07,7.27-2.83.38-.35.82-.6,1.33-.69,1.82.32,2.57-1.43,3.91-2.05,14.59-6.93,29.67-10.73,45.89-7.24,1.79.39,3.73.59,4.95,2.29,8.56,3.42,16.46,7.91,23.22,14.26,2.81,3.45,5.87,6.69,7.81,10.79,1.3,2.74,2.26,5.5,1.99,8.57-.66.99-1.31,1.99-1.97,2.98-6.52-3.16-13.02-6.35-19.88-8.77-1.71-.6-3.62-.65-5.12-1.83-2.79-1.37-5.41-3.01-7.94-4.8-9.74-6.89-20.02-6.25-30.46-2.04-2.88,1.16-5.75,2.27-8.75,3.07-3.14,1.32-6.55,1.43-9.81,2.25Z" style="fill: #7e460f; stroke-width: 0px;"/>
  <path d="M372.32,107.89c8.96-4.78,18.17-8.56,28.65-6.65,7.33,1.34,13.05,5.67,18.5,10.42-11.57-2.99-23.29-4.74-35.28-4.44-3.97.1-7.87,1.31-11.87.67Z" style="fill: #f9f3bc; stroke-width: 0px;"/>
  <path d="M339.3,102.7c-2.75,3.14-6.52,5.05-9.36,8.16-4.98,5.43-4.7,8.02,1.91,11.38-3.78,2.5-7.57,5.01-11.35,7.51-.94-.78-1.88-1.55-2.82-2.33-2.56-2.19-2.03-4.89-1.03-7.49,1.03-2.68,2.65-5.06,4.82-6.97,4.29-3.79,9.04-6.94,14.05-9.69,1.14-.63,2.35-1.54,3.78-.56Z" style="fill: #6f3b0f; stroke-width: 0px;"/>
  <path d="M547.71,304.28c.99,5.72,1.04,11.44-.02,17.16,0-5.72.01-11.44.02-17.16Z" style="fill: #f1a218; stroke-width: 0px;"/>
  <path d="M537.73,398.46c-.3,1.04,1.94,2.52-.54,3.19-.18-1.12-.29-2.24.54-3.19Z" style="fill: #d98212; stroke-width: 0px;"/>
  <path d="M86.1,189.63c.87-7.9-1.36-15.49-2.24-23.22,6.95,7.99,15.7,11.05,26.29,11.47,9.83.39,19.68-.17,29.45.62,10.4.84,20.39,4.01,30.47,6.57,1.44.36,2.82,1.03,4.36.82.73,1.39.09,2.66-.35,3.93-4.07,11.67-5.83,23.55-3.48,35.84.23,1.21.48,2.45-.23,3.62-2.26.15-3.43-1.57-4.39-3.04-2.85-4.38-6.51-7.68-11.14-10.1-7.2-3.76-14.23-7.08-22.9-6.44-9.99.73-20.07.16-30.11.15-1.61-2.21-3.32-4.33-4.57-6.8-.66-1.31-1.43-2.74-2.89-3.32-4.65-1.84-6.39-6-8.26-10.08Z" style="fill: #f9e257; stroke-width: 0px;"/>
  <path d="M242.21,363.29c42.59.23,78.81,9.28,113.62,24.63,3.1,1.37,5.36,3.44,5.12,7.02-.2,3.1-1.98,5.23-5.07,6.26-1.86.62-3.44.06-5.04-.64-19.71-8.68-40.01-15.46-61.23-19.4-19.03-3.54-38.15-5.18-57.52-3.7-12.04.92-23.86,2.76-35.41,6.27-4.31,1.31-7.59-.22-8.94-4.15-1.26-3.68.67-7.19,4.83-8.69,7.01-2.54,14.3-4.04,21.63-5.14,10.72-1.61,21.5-2.7,28-2.44Z" style="fill: #612f0d; stroke-width: 0px;"/>
  <path d="M170.37,229.27c-3.9-14.95-1.52-29.32,4.07-43.38.43-2.53,3-4.05,3.15-6.71,2.76-2.9,4.91-6.33,8.03-8.93,2.99-2.5,6.48-3.89,10.04-5.23,8.89-.74,14.51,4.04,18.76,11.12,8.14,19,6.67,37.6-2.34,55.89-.38.77-.65,1.58-.97,2.38-2.59,3.32-4.99,6.79-8.17,9.65-9.59,8.63-20.98,7.06-27.85-3.89-2.13-3.4-3.43-7.13-4.71-10.89Z" style="fill: #75400e; stroke-width: 0px;"/>
  <path d="M340.15,236.85c-.07-10.42,1.52-20.51,5.88-30.05,2.21.61,1.42,2.37,1.17,3.64-1.86,9.51-1.66,19.12-1.61,28.72.01,1.75.18,3.48.42,5.22,1.64,12.01,9.68,15.84,21.82,14.97,7.24-.52,10.44-6.3,12.7-12.3,4.26-11.26,6.82-22.94,7.88-34.94.12-1.34-.34-3.12,1.67-3.67.38,2.78.75,5.55,1.13,8.33.25,2.4.16,4.8.05,7.2-.43,3.78-.86,7.56-1.28,11.34-2.2,8.16-4.86,16.11-10.02,22.99-2.33,3.11-4.93,5.94-8.19,8.08-8.59,5.64-17.83,3.99-23.82-4.32-4.46-6.19-6.45-13.29-7.15-20.8-.14-1.48.08-3-.67-4.39Z" style="fill: #7c4717; stroke-width: 0px;"/>
  <path d="M390.1,208.43c-1.61,6.23-1.22,12.74-2.8,19-2.06,8.18-3.7,16.5-7.62,24.06-4.94,9.51-12.19,10.49-21.46,8.27-10.01-2.41-12.88-7.7-13.52-18.32-.66-11-.73-22.12,1.95-32.99.17-.68-.09-1.21-.62-1.64.86-3.28,3.01-5.9,4.45-8.88,2.37-2.84,4.57-5.8,7.55-8.13,9.51-7.45,19.6-5.96,26.48,4.06.42.61.86,1.21,1.29,1.82,1.85,4.11,3.86,8.17,4.29,12.76Z" style="fill: #ab7125; stroke-width: 0px;"/>
  <path d="M261.51,152.93c-2.59,5.5-7.84,6.59-12.98,7.42-12.12,1.96-23.41-.6-33.96-6.81-8.62-5.08-17-10.68-26.7-13.65-3.17-.97-6.38-1.82-9.7-2.13-2.45-.32-4.9-.33-7.35,0-4.23.15-8.05,1.84-11.95,3.2-5.54,3.05-10.64,6.94-16.67,9.06-2.59.91-5.59,2.9-7.88-.08-2.41-3.14.42-5.56,2.06-7.9,3.71-5.27,8.75-9.12,14.08-12.61,1.04-.68,2.2-1.16,3.04-2.12,1.03-.69,2.06-1.38,3.09-2.07,5.95-1.51,11.88-3.14,18.09-3.04,15.2.24,29.33,4.14,42.03,12.6,6.97,4.65,14.55,6.41,22.79,5.7,4.63-.4,9.22-.22,13.65,1.18,5.65,1.78,8.34,5.54,8.36,11.24Z" style="fill: #7d4610; stroke-width: 0px;"/>
  <path d="M153.5,127.32c-2.34,3.32-6.04,5.05-9.03,7.61-3.62,3.1-6.91,6.45-9.31,10.58-.72,1.24-1.73,2.57-.31,4.07,1.24,1.31,2.54,1.07,4.1.59,5.3-1.6,10.07-4.3,14.86-6.95,1.63-.9,3.12-2.06,5.06-2.26-1.78,2.39-4.78,3.15-6.87,5.12-4.91,3.28-9.42,7.21-14.97,9.46-1.81.73-3.67,1.6-5.57,1.77-3.06.27-5.45-3.49-4.6-7.05.34-1.42,1.13-2.74,1.71-4.11,7.26-7.67,15.04-14.65,24.93-18.85Z" style="fill: #6b370d; stroke-width: 0px;"/>
  <path d="M339.3,102.7c-7.58,3.56-14.83,7.57-20.03,14.43-2.38,3.13-3.3,6.51-1.59,10.29-1.25,1.82-3.31,1.34-5.04,1.81-9.57,2.6-19.01,2.33-28.66-.13-6.56-1.67-13.43-2.13-20.15-3.14-.85-.13-1.94-.02-2.51-.51-6.2-5.38-14.42-5.61-21.56-8.56-9.3-3.84-19.27-6.04-28.08-11.02-6.34-3.58-12.9-6.44-19.86-8.45-6.84-1.97-9.54-8.02-12.72-13.38-3.3-5.58-2.7-5.46,1.47-10.38,8.05-9.47,19.23-13.68,30.15-17.95,17.83-6.97,36.58-11.13,55.3-14.85,11.86-2.36,24.05-4.25,36.24-3.2,14.31,1.23,28.46,3.46,42.41,7.27,17.78,4.84,35.56,9.4,51.94,18.21,6.57,3.53,12.39,7.72,16.89,13.75,2.33,3.12.83,5.86-.11,8.76-7.68-2.23-15.53-3.24-23.46-2.34-8.78,1-17.2,3.59-25.09,7.59-1.09.55-2.12.3-3.08.78-.78.91-1.66,1.61-2.96,1.47-.48-.14-.68.13-.79.54-2.41,1.22-4.77,2.59-7.5,3.01-3.94,1.62-7.98,3.07-11.22,6Z" style="fill: #fcf6c9; stroke-width: 0px;"/>
  <path d="M391.27,223.96c-.02-2.4-.03-4.8-.05-7.2.87,2.4.82,4.8.05,7.2Z" style="fill: #fddb3b; stroke-width: 0px;"/>
  <path d="M170.82,137.77c2.45-.97,4.9-.97,7.35,0-2.45,0-4.9,0-7.35,0Z" style="fill: #a26414; stroke-width: 0px;"/>
  <path d="M350.52,96.7c2.56-.86,4.69-2.79,7.5-3.01-2.02,2.19-4.4,3.5-7.5,3.01Z" style="fill: #6f3b0f; stroke-width: 0px;"/>
  <path d="M358.82,93.15c.99-.49,1.98-.98,2.96-1.47-.39,1.7-1.14,2.67-2.96,1.47Z" style="fill: #6f3b0f; stroke-width: 0px;"/>
  <path d="M214.95,196.63c-.15,11.88-1.89,23.47-6.53,34.49-6.02,14.32-20.67,12.48-29.67,6.12-4.21-2.97-5.45-8.44-5.61-13.36-.43-13.62,1.57-26.98,6.45-39.77,1.58-4.13,4.62-7.2,8.26-9.85,6.09-4.45,11.62-1.02,17.23.77,7.16,2.28,8.91,8.41,9.82,14.88.31,2.2.05,4.48.05,6.73Z" style="fill: #a56615; stroke-width: 0px;"/>
  <path d="M174.58,124.31c14.86.16,26.49,4.32,37.45,10.47,6.19,3.48,12.3,6.99,19.1,9.23,3.04,1,6.16,2.17,7.86,5.3,2.13,3.94,1.12,5.59-3.38,5.88-8.82.58-16.58-2.36-24.03-6.73-9.55-5.6-19.16-11.05-30.35-12.96-8.65-1.47-16.8-.45-24.62,3.49-1.77.89-3.63,1.62-5.48,2.35-1.05.41-2.3.74-3.16-.18-.91-.98-.25-2.13.27-3.12,3.36-6.35,9.08-9.75,15.54-12.03,4.13-1.45,8.46-2,10.79-1.72Z" style="fill: #a26414; stroke-width: 0px;"/>
</svg>