<?xml version="1.0" encoding="UTF-8"?>
<svg id="Layer_1" data-name="Layer 1" xmlns="http://www.w3.org/2000/svg" viewBox="0 0 1113.75 1005.79">
  <path d="M54.8,735.52c-.1-25.52-.27-51.03-.28-76.55-.02-30.17.04-60.33.22-90.5.02-4.05-.56-7.79-2.29-11.4.34-13.84.02-27.68.13-41.53.1-12.5-.2-24.99.16-37.49-.12-5.96-.39-11.93.46-17.86,1.42-4.29,1.07-8.72.97-13.13-.05-7.84-.34-15.72,2.99-23.13,5.69-13.2,11.11-26.49,20.99-37.43,11.1-12.28,23.9-21.87,39.63-27.36,13.09-5.93,27.28-6.28,41.03-6.21,45.48.22,90.91-2.42,136.38-1.73,19.02.29,38.06-.03,57.08.08,2.18.27,4.36.22,6.55.23,2.65,0,5.3,0,7.96-.02,126.76-.65,253.52-.22,380.28-.26,3.15.47,6.31.15,9.47.21,27.16-.35,54.33.15,81.49-.28,39.47-.63,78.88,2.11,118.35,1.67,9.67-.11,19.5.77,29.01,3.15,4.7,1.18,9.56,2.19,13.07,6.04,1.47,2.72,3.62,4.64,6.34,6.2,14.55,8.35,26.34,19.64,35.06,33.98,7.49,12.32,10.91,25.57,11.6,40.22,2.15,45.71.7,91.42,1.04,137.12.1,13.68.22,27.36.09,41.04-.53,55.45-1.07,110.91-1.83,166.35-.35,25.71.22,51.49-1.46,77.19-1.35,3.8-1.02,7.77-1.16,11.7-.46,13.18-.23,26.51-2.77,39.44-6.76,34.52-28.33,57.28-61.87,63.27-11.45,2.05-22.97,2.18-34.63,1.79-19.49-.65-39.01-.25-58.51-.16-20.77.09-41.04-3.64-61.29-7.6-5.47-1.07-10.91-1.77-16.58-1.16-12.95,1.39-25.96-.58-38.96.25-5.11.33-10.16.93-15.24,1.44-11.62,1.18-22.56-2.17-33.53-5.1-7.64-2.04-15.24-4.13-23.16-4.74-7.36-.57-12.07-5.75-16.84-10.35-3.49-3.36-6.16-4.36-10.88-2.1-7.19,3.43-21.33-4.24-22.47-12.19-.64-4.48-2.46-5.11-6.28-5.19-7.31-.15-10.64-4.14-9.23-11.27.86-4.32.22-7.74-2.9-10.79-3.28-3.21-4.78-7.34-5.82-11.69-.76-3.17-1.94-6.11-3.75-8.92-4.29-6.63-9.03-12.3-17.98-11.69-.45-.54-.92-1.06-1.18-1.72-6-15.19-10.33-18.26-27.01-18.28-52.25-.08-104.5.11-156.75-.06-77.75-.26-155.49.35-233.23-.08-7.23-.04-14.24,1.84-21.44,1.44-3.6-5.35,1.03-6.99,4.32-8.26,10.52-4.08,21.63-5.36,32.82-4.84,20.91.96,41.65.81,62.22-4.06,9.49-2.25,19.42-1.12,29.13-1.43,7.26-.23,14.3-.7,21.2-3.06,6.26-2.14,13.03-1.77,19.27-1.38,9.41.59,18.44-.12,27.56-1.98,14.54-2.96,29.12.47,43.71.21,16.71-.3,33.46-.7,50.02-2.15,13.11-1.15,26.36-1.69,39.39-3.85,8.15-1.35,15.43-5.07,22.6-8.82,5.75-3.01,11.25-6.44,17.36-8.77,4.56-1.73,8.32-4.83,8.35-10.11.03-5.6-3.68-8.72-8.78-10.34-.89-.28-1.67-.8-2.38-1.41-2.18-3.36-1.48-7.17-1.62-10.83-.42-10.69-6.28-17.77-16.71-20.05-1.82-.4-3.66-.7-5.51-.65-22.02.53-43.99-2.91-65.97-1.31-17.14,1.24-34.26,1.13-51.39,1.24-7.34.05-12.5,4.34-18.07,7.98-9.19-.15-14.88,6.41-21.42,11.3-2.2,1.64-3.91,3.91-6.18,5.52-3.73,2.64-7.28,2.46-10.65-.68-1.52-1.42-2.67-3.19-4.26-4.53-4.68-3.97-6.87-3.21-8.01,2.74q-.82,4.27-4.19,3.76c-.78-1.75-.8-3.61-.95-5.47-.97-11.88-7.89-19-19.79-20.38-1.39-.16-2.78-.24-4.17-.23-20.19.23-40.38-1.17-60.52-.81-17.16.31-34.33.79-51.5.69-7.52-.05-13.91,3.03-20.59,5.51-10.13-5.58-10.9-9.41-3.68-18.37.87-1.09,1.81-2.12,2.75-3.15q6.34-6.94-1.27-12.39c-4.95-3.55-4.82-11.14.21-16.49,1.53-1.63,4.18-2.27,4.55-5.71-6.16-1.48-12.33-3.33-17.94-6.6-1.97-1.15-2.92.3-3.41,2.1-.74,2.71-1.13,5.45-1.03,8.26.12,3.57-1.54,5.8-5.15,6.19-2.92.32-6.39,1.98-8.62-.57-2.43-2.79.31-5.64,1.52-8.27,2.9-6.31.89-13.55-5.77-16.13-6.74-2.61-10.48-6.99-12.82-13.54-2-5.59-5.37-9.51-12.08-11.08-5.19-1.22-9.43-3.74-11.48-11.43-3.4-12.8-5.25-26.29-11.51-38.37-2.91-5.61-2.7-12.02-3.37-18.28-1.66-15.56.99-31.55-4.6-46.71-.56-1.52-.66-3.2-.6-4.82.59-17.2-2.14-34.29-1.53-51.5.52-14.62-2.03-29.17-1.51-43.83.12-3.48-.99-6.88-2.05-11.9-1.39,7.2-1.99,12.87-2.14,18.65-2.25,88.25-1.07,176.51-1.46,264.77-.02,3.7,1.96,8.48-3.3,10.76Z" style="fill: #7da4e9; stroke-width: 0px;"/>
  <path d="M353.29,353.3c-37.62.18-75.23.27-112.84.59-27.86.24-55.72.5-83.56,1.29-13.84.39-27.76,1.24-40.91,6.46-8.22-4.47-16.95-4.39-25.67-2.31-10.87,2.6-21.82,3.95-33,4.56-17.41.95-30.92,8.96-39.09,24.82-4.08,7.93-5.07,8.31-11.54,3.03-3.12,5.04-2.72,10.58-3.05,16.06-.31,5.17,1.67,10.69-1.93,15.46-4.02-21.24-.83-41.5,8.7-60.74,10.16-20.5,25.84-35.12,46.87-44.51,35.12-15.68,70.57-30.56,106.02-45.43,49.59-20.81,99.19-41.58,148.84-62.25,38.72-16.11,77.52-32.01,116.27-48.05,42.17-17.47,84.29-35.06,126.48-52.48,40.9-16.9,81.85-33.69,122.8-50.47,29.56-12.12,59.01-24.54,88.8-36.07,19.83-7.67,39.16-17.01,60.07-21.52,10.87-2.35,22.06-2.36,33.07.18-2.14,2.49-5.1,1.98-7.8,1.93-15.58-.29-30.49,2.37-44.34,9.81-7.39,3.97-16.03,4.64-23.92,9.36,9.19-4.24,18.18-6.89,27.01-9.96,31.22-10.86,60.8-7.73,88.3,11.25,14.69,10.14,23.75,24.71,31.17,40.35,5.17,10.9,10,21.99,14.09,33.38,3.2,8.93,2.23,11.31-6.52,14.93-64.16,26.54-128.29,53.15-192.48,79.62-75.36,31.08-150.68,62.25-225.99,93.43-48.92,20.26-97.81,40.57-146.81,60.65-6.22,2.55-12.64,4.55-19.02,6.64Z" style="fill: #efbc67; stroke-width: 0px;"/>
  <path d="M319.91,785.83c1.91-1.91,1.21-4.35,1.28-6.6.21-6.17,2.66-7.6,8.16-4.69,2.31,1.22,4.13,3.01,5.48,5.2,3.29,5.33,7.37,5.44,11.25,1.13,4.87-5.42,11.01-9.14,16.67-13.49,2.43-1.87,5.3-4.26,8.61-1.11.99,3.38-1.08,5.73-2.72,8.24-6.36,7.26-5.96,15.94-4.31,24.41,1.28,6.58,6.99,9.66,12.94,11.4,8.69,2.55,17.6,4.02,26.72,4.15,10.42.15,20.86.76,31.23.88,22.37.27,44.86.58,67.13-2.43,7.96-1.08,15.18-4.21,20.21-10.99.23-.68.53-1.33.87-1.95,3.42-3.15,4.8-8.18,9.38-10.27,7.69.51,13.41,4.5,13.74,11,.3,5.99-3.1,10.91-8.97,12.68-10.55,3.18-19.11,10.21-29.22,14.34-8.6,3.51-17.28,4.72-26.26,5.45-16.08,1.31-32.15,3.37-48.25,3.78-18.47.47-37.01,1.97-55.47-.72-7.47-1.09-14.75.79-21.9,2.36-6,1.33-11.77,1-17.78.96-8.24-.06-16.7-1.25-24.93,1.96-4.61,1.8-10,3.08-14.84,2.59-21.43-2.16-42,4.2-63.04,5.49-10.87.67-21.79.65-32.69-.15-11.86-.87-23.37,1.22-34.54,5.1-2.26.78-3.81,2.67-3.45,5.44,0,.23.11.54,0,.68-5.64,7.22-9.51,15.03-8.75,24.56.09,1.09-.83,2.12-2.11,2.41-.81-.29-1.84-.88-2.19.46-1.97,7.56,2.24,15.88,9.57,18.76,4.33,1.7,8.87,2.86,13.48,3.41,15.19,1.81,30.4,2.64,45.75,2.66,16.7.01,33.42.68,50.11.32,78.62-1.72,157.26-.82,235.88-1.61,20.35-.2,40.74.14,61.09-1.08,7.7-.46,15.18-1.81,21.71-6.29,2.69-3.25,6.84-4.8,9.53-8.07,2.8-2.57,4.33-5.72,4.71-9.53.27-2.71.73-5.44,2.97-7.4,5.61-2.99,9.42-1.83,13.33,3.66,4.88,6.85,8.92,13.76,10.52,22.06.28,1.45,1.42,2.98,2.59,3.97,4.93,4.14,7.27,8.34,3.84,15.03-2.11,4.12,3.15,8.62,8.24,7.73,7.27-1.28,8.39-.26,7.53,6.81-.05.43-.43.89-.34,1.26,1.48,6.16,17.58,11.99,22.51,8.08,3.43-2.72,6.08-2.48,8.65,1.17,1.31,1.86,3.02,3.49,4.74,5.01,5.27,4.65,10.92,7.28,18.46,7.97,10.45.96,20.77,4.21,30.94,7.19,8.95,2.63,17.66,1.76,26.72,1.07,12.82-.97,25.83.44,38.63-.65,19.62-1.67,38.15,3.82,57.1,6.73,6.82,1.05,13.77,1.68,20.67,1.75,23.21.21,46.45-.44,69.64.27,15.1.46,29.63-.64,44.21-4.97,18.11-5.38,30.33-17.04,39.45-32.82,7.48-12.94,10.15-26.85,10.86-41.79.53-11.13-.56-22.52,2.47-33.5,3.7.58,3.43,3.75,3.06,5.95-2.17,13.14-.6,26.41-1.8,39.62-1.31,14.41-6.49,27.09-14.15,38.83-13.85,21.23-32.45,36.28-58.06,40.8-7.48,1.32-15.11,2.3-22.8,2.2-23.67-.3-47.35-.12-71.03-.35-22.7-.22-45.41-.69-68.14.29-17.94.77-35.95-1.07-53.93.47,11.3-1.17,22.61-.43,33.92-.43,19.91,0,39.83-.72,59.74-.45,8.56.12,17.11-.09,25.67-.04,2.48.02,5.16-.67,7.29,1.38-.52,3.14-3.15,3-5.35,3.32-2.76.4-5.56.21-8.35.21-134.47,0-268.95.24-403.42-.21-24.98-.08-50.01-.88-74.98-.88-45.47-.01-90.96.02-136.41-.63-32.26-.46-64.52-.56-96.78-1.21-21.35-.43-41.91-3.87-59.97-17.02-20.82-15.16-33.23-35.85-41.79-59.75-1.82.7-1.39,3.2-3.04,3.91-2.43-9.78-1.92-19.84-2.02-29.71-.51-52.02-.45-104.04-.58-156.06,2.38-2.59,1.25-5.77,1.26-8.66.12-71.75-.49-143.51.58-215.25.35-23.55-.46-47.25,2.38-70.76.19-1.6-.09-3.78,1.82-4.05,2.1-.31,2.23,1.96,2.57,3.47.91,4.04,2.26,8.09,2.42,12.18.7,17.11,1.4,34.24,1.39,51.37,0,15.53,2.32,30.94,1.63,46.5-.27,5.99,5.15,11.02,4.04,17.36-2.28,13.09,3.16,25.92,1.1,39.11-.58,3.71,1.38,8.41,3.5,11.82,4.64,7.46,5.28,16.2,8.23,24.16,1.57,4.21.51,9.43,4.84,12.92.44.35.1,2.35-.48,3.15-2.02,2.78-1.56,3.57,1.91,4.37,4.68,1.07,9.22,3.25,13.63,4.88,4.18,1.54,6.63,8.29,8.07,13.7,1.02,3.82,2.75,6.87,7,7.68,5.4,1.03,7.98,4.52,10.97,9.17,3.71,5.77.19,8.7-1.56,12.84-.69,1.64-2.64,2.78-2.06,5.16,2.89-.22,5.8-.47,8.71-.64,1.96-.11,3.76-1.5,2.84-2.94-3.04-4.76,2.11-8.72.7-13.34-.96-3.13,1.37-3.83,3.63-2.31,6.22,4.18,12.51,7.86,20.38,7.65,1.78-.05,3.06,1.23,3.21,3.08.16,2.12-1.26,3.6-2.93,4.37-2.75,1.26-5.38,2.12-6.57,5.52-3.26,9.33.2,11.93,12.35,13.6-1.78,7.51-8.49,11.34-12.81,16.86-4.3,5.5-4.88,9.14,1.91,12.42.63.3.81,1.54,1.2,2.35-3.28,7.06-3.72,14.65-4.12,22.24-.22.71-.58,1.35-1.05,1.92-3.41,4.62-2.25,10.27,3.2,14.66,5.87,4.72,13.02,5.93,20.18,6.65,24.71,2.47,49.46,1.51,74.23,1.15,10.17-.15,20.31-.02,30.45-.94,3.91-.36,7.76-.76,11.38-2.4.09-.04.09-.45.02-.64-.07-.2-.28-.36-.45-.58.52-3.74,3.65-2.94,5.91-3.18,4.79-.52,8.94-2.16,12.25-5.71,3.71-2.63,3.4-8.03,7.25-10.57Z" style="fill: #7da4e9; stroke-width: 0px;"/>
  <path d="M57.4,921.3c.11-1.39.05-2.81.36-4.15.51-2.22-1.74-6.07,1.71-6.35,2.79-.23,2.67,3.88,3.43,6.15,11.34,34.2,31.5,59.99,67.19,71.22,10.53,3.31,21.49,2.99,32.26,3.74,12.49.86,25.09-.09,37.62.29,53.61,1.63,107.26.38,160.83,1.89,15.87.45,31.7-.98,47.65-.03,13.61.81,27.74,2.14,41.66-.27,5.28-.91,11,1.06,16.52,1.06,137.31.07,274.63.06,411.94,0,2.87,0,6.07,1.21,8.61-1.32,1.81-1.92,4.14-1.23,6.33-1.26,2.81.82,5.63.83,8.45,0,23.36-.45,46.74.62,70.07-1.49,17.72-1.61,32.61-9.55,46.32-20.24,13.83-10.78,23.7-24.55,30.71-40.53,2.06-4.69,2.75-4.89,5.68-3.19-6.36,31.29-24.9,53.1-52.6,67.88-17.74,9.47-37.14,9.42-56.35,9.6-56.7.54-113.4.59-170.11.94-135.25.83-270.5.57-405.75.25-66-.15-131.99-.63-197.99-1.08-12.75-.09-25.62.21-38.18-2.32-36.33-7.35-59.87-29.63-72.98-63.7-.91-2.36-1.33-4.9-1.98-7.35-1.31-2.25.41-5.03-1.24-7.23-.06-.83-.12-1.66-.17-2.5Z" style="fill: #7da4e9; stroke-width: 0px;"/>
  <path d="M1054.76,926.81c-3.6-1.83-3.2,1.89-3.73,3.15-13.34,32.05-37.12,52.07-70.26,61.4-1.53.43-3.16.65-4.75.75-24.93,1.59-49.9,1.57-74.86,1.42-2.27,1.04-4.55,1.04-6.82,0-2.38,0-4.76,0-7.13,0h-129.4c10.83-.94,21.51-4.84,32.52-1.64,2.58.75,5.55.37,8.32.22,22.75-1.25,45.5-.63,68.25-.75,24.07-.13,48.18-.12,72.27-.54,13.18-.23,26.31-.2,39.35-2.69,19.9-3.8,35.07-14.98,47.75-30.08,9.04-10.76,15.74-22.93,18.95-36.6,1.88-8.03,2.46-16.38,2.51-24.72.05-8.3-.91-16.66,1.19-24.92.52-2.04.91-4.67-1.19-6.52-.01-21.35-1.02-42.77.17-64.05,2.27-40.35-.35-80.72,1.47-121,1.07-23.65.88-47.25.99-70.88.23-48.64.72-97.3-.31-145.93-.32-15,1.16-30.52-4.71-45.25-8.38-21.03-22.32-36.97-41.7-48.36-2.75-1.62-6.16-2.62-5.97-6.8,4.81-.54,8.41,2.39,12.1,4.58,24.37,14.46,39.65,35.73,46.91,63.01,1.87,7.04.1,14.42,2.53,21.36.1.94.12-.23.12.7-.31,44.22,2.74,88.4,1.53,132.63.25,2.14-.08,4.28-.01,6.42-.03,4.14.55,8.37-1.63,12.23-.13,2.54-.36,5.09-.36,7.63-.08,68.98.09,137.96-.31,206.93-.2,33.66-.29,67.34-2.35,100.96-.15,2.48.43,5.17-1.42,7.36Z" style="fill: #7da4e9; stroke-width: 0px;"/>
  <path d="M1.7,423.27c1.07-10.54-1.95-21.41,2.57-31.67.68-1.54-.26-4.18,2.47-4.3,2.25-.1,1.85,2.3,2.64,3.57.83,1.32,1,3.53,2.92,3.5,1.89-.03,2.26-2.17,2.89-3.58,9.18-20.75,25.77-29.03,47.7-29.04,8.76,0,17.45-1.61,25.91-4.07,7.79-2.27,15.52-1.83,23.31-.06,2.33.53,3.9,1.41,3.87,4.03-26.85,11.07-44.53,30.87-54.85,57.67-.57,1.49-1.31,2.91-1.97,4.36-3.55-1.65-6.83-.9-9.79,1.34-7.93,5.98-17.94,8.81-24.75,16.54-2.57,2.92-5.02.76-7.19-1.12-4.08-3.54-6.32-8.54-10.63-13.66-.44,5.4,1.24,9.32,2.23,13.33.7,2.83,2.4,5.75-.41,8.42-3.56-8.08-5.95-16.48-6.91-25.27Z" style="fill: #efbc67; stroke-width: 0px;"/>
  <path d="M1058.99,591.89c-.01-1.85-.02-3.7-.03-5.55.62-1.29,1.46-2.38,2.8-2.97,18.25-8.08,26.99-24.19,34.12-41.3,8.61-20.67,8.03-41.69-.02-62.41-11.34-29.17-23.01-58.22-34.61-87.29-16.07-40.27-33.13-80.13-49.02-120.47-1.96-4.97-4.46-9.69-7.05-14.36-1.08-1.94-2.78-2.25-4.77-1.88-1.4.15-2.77.12-4.02-.64,1.21-6.41,6.85-6.6,11.5-8.17,5.11,2.21,6.22,7.27,8.06,11.67,15.3,36.55,30.62,73.09,45.7,109.73,15.87,38.58,32.16,76.99,46.4,116.22,5.84,16.08,7.25,32.42,3.98,49.19-3.83,3.92-3.59,9.52-5.83,14.13-9.27,19.04-22.18,34.45-41.94,43.25-1.66.74-3.33,1.72-5.27.84Z" style="fill: #edae30; stroke-width: 0px;"/>
  <path d="M353.29,353.3c8.22-6.34,18.43-8.2,27.71-12.1,45.25-19.02,90.64-37.67,136.03-56.35,35.32-14.54,70.74-28.87,106.05-43.43,49.02-20.21,97.97-40.57,146.97-60.83,47.71-19.73,95.45-39.4,143.17-59.11,8.78-3.62,17.5-7.38,26.28-10.98,4.06-1.66,5.91-3.94,4.08-8.58-8.31-21.1-15.64-42.79-29.95-60.79-15.8-19.88-37.02-30.06-62.3-32.13-22.51-1.84-42.73,6.24-63.07,13.99-2.73,1.04-5.49,2-9.73,3.55,2.91-5.08,6.32-6.64,9.92-7.93,6.25-2.24,12.88-3.4,18.75-6.77,16.31-9.38,34.28-10.11,52.42-9.9,15.21,3.57,29.69,8.72,42.32,18.35,15.75,12.01,26.11,27.95,34.07,45.7,4.16,9.27,8.05,18.66,12.13,27.97,2.1,4.78,3.33,9.76,3.86,14.93-7.6,4.85-16.34,7.12-24.55,10.54-51.33,21.37-102.58,42.94-154.14,63.76-1.94.78-3.74,1.84-5.67,2.64-19.08,8.01-38.37,15.51-57.36,23.75-44.6,18.38-89.27,36.56-133.77,55.18-38.73,16.21-77.64,31.96-116.36,48.19-29.94,12.55-60.05,24.68-90.02,37.13-3.69,1.53-7.69,1.6-11.24,3.36l-5.6-.13Z" style="fill: #efb434; stroke-width: 0px;"/>
  <path d="M767.29,184.4c17.87-7.57,35.7-15.23,53.61-22.7,39.47-16.46,78.99-32.81,118.47-49.26,4.09-1.7,8.23-3.07,12.63-3.56,4.22,2.47,4.94,7.15,6.57,11.08,16.45,39.47,32.73,79.01,49.07,118.52,1.15,2.78,2.8,5.5.24,8.37-3.23,3.87-8.51,4.49-12.16,7.67-1.38,2.49-4.02,3.02-6.34,3.98-73.85,30.5-147.72,60.92-221.45,91.69-3.63,1.52-7.6,1.76-11.16,3.4-3-.07-6-.13-9-.2,1.11-5.11,5.9-5.47,9.5-6.93,24.73-10.03,49.45-20.07,74.05-30.39,27.86-11.61,55.65-23.38,83.58-34.8,24.07-9.84,47.94-20.17,72.15-29.65,13.41-5.25,13.78-5.66,8.37-18.95-13.57-33.32-26.98-66.71-41.72-99.55-1.72-3.82-2.96-7.83-4.12-11.84-1.35-4.67-3.95-5.51-8.41-4.1-9.99,3.18-19.3,7.98-29.04,11.77-18.15,7.07-36.07,14.74-54.07,22.18-25.52,10.55-50.75,21.82-76.68,31.37-3.06,1.13-5.85,2.82-8.75,4.29-2.46,1.25-4.95,2.78-7.87,1.16-1.66-2.95,2.28-1.95,2.51-3.56Z" style="fill: #534843; stroke-width: 0px;"/>
  <path d="M8.61,448.54c.77-5.52-2.64-10.17-3.24-15.41-.23-2.04-.56-4.08-.69-6.13-.08-1.19.39-2.46,1.6-2.8,1.33-.38,1.87.87,2.54,1.82,3.32,4.68,5.9,9.89,10.27,13.82,1.89,1.7,2.8,2.88,5.27,0,7.81-9.1,19.55-12.56,29.2-19.09,1.95-1.32,5.15-.79,5.6,2.92-3.21,7.47-2.37,15.51-3.27,23.3-1.2,4.22.42,8.64-.96,12.84-.06,6.21-.12,12.42-.17,18.63-1.81,1.8-3.98,2.98-6.39,3.76-7.02,2.25-13.3,5.97-19.47,9.89-9.7-9.5-11.73-22.84-17.17-34.47-1.35-2.88-2.1-6.04-3.12-9.08Z" style="fill: #efbc67; stroke-width: 0px;"/>
  <path d="M28.91,492.09c6.14-9.24,16.64-10.24,25.86-13.65-.1,23.75-.15,47.49-.4,71.23-.03,2.47,1.51,5.68-1.91,7.41-7.51-18.6-14.99-37.21-22.55-55.79-1.23-3.02-2.66-5.91-1-9.2Z" style="fill: #38383b; stroke-width: 0px;"/>
  <path d="M1058.99,591.89c19.78-7.93,33.74-22.24,43.72-40.62,2.95-5.42,5.29-11.26,6.46-17.47.47-2.51,1.74-3.65,2.86-.13-6.6,31.7-22.32,56.55-52.84,70.26-.07-4.01-.13-8.03-.2-12.04Z" style="fill: #da851e; stroke-width: 0px;"/>
  <path d="M57.58,923.79c2.3,2.08,1.32,4.73,1.25,7.23-1.61-2.2-1.34-4.73-1.25-7.23Z" style="fill: #5079d7; stroke-width: 0px;"/>
  <path d="M155.01,887.54c.04-2.77.36-5.57.08-8.31-.88-8.72,3.88-14.35,10.12-19.25,6.36-2.48,12.97-3.07,19.77-3.07,59.22-.02,118.43-.25,177.65-.25,70.97,0,141.94.15,212.9.27,4.63,0,9.23-.12,13.83,1.07,10.07,2.61,14.84,7.74,16.4,18.1.16,1.09.78,2.11,1.19,3.16-1.62,6.33-.05,13.83-6.71,18.32-5.7,3.44-11.77,4.69-18.52,4.7-94.21.13-188.42,0-282.64,0-37.99,0-75.96-1.3-113.95-1.41-11.47-.03-21.24-4.23-29.47-12.16-.22-.39-.44-.78-.65-1.17Z" style="fill: #e4e3e4; stroke-width: 0px;"/>
  <path d="M756.78,353.6c18.57-9.34,38.11-16.43,57.25-24.41,59.17-24.67,118.49-48.98,177.76-73.41,1.27-.52,2.62-.84,3.94-1.25,1.46-.05,2.93-.1,4.4-.15,4.76-2.13,5.45,1.78,6.67,4.63,7.41,17.24,14.55,34.58,21.65,51.95,21.9,53.57,44.03,107.06,64.73,161.11,4.47,11.66,8.8,23.53,7.91,36.44-.11,1.62-.02,3.26-.4,4.85-.56,2.29-1.22,4.69-3.95,5.17-2.41.43-3.8-1.42-5.03-3.11-6.27-8.55-9.81-18.31-12.97-28.33-4.74-15.01-12.47-28.83-17.22-44.61-3.31,2.43-1.7,6.17-4.28,7.62-1.69-4.22-.74-8.71-1.35-13.04-2.37-16.58-9.78-30.82-19.63-44.18-10.11-13.7-24.09-22.03-38.6-29.85-12.98-7.64-27.58-7.56-41.8-7.86-66.35-1.43-132.71-1.94-199.07-1.56Z" style="fill: #f2c579; stroke-width: 0px;"/>
  <path d="M607.09,472.06c6-14.77,9.02-16.55,25.48-16.87,81.97-1.58,163.94-1.26,245.92-1.08,19.68.04,39.36.75,59.04,1.1,11.53.2,19.4,6.85,20.69,18.22.87,7.68.43,15.33-4.25,22.04-5.51,4.76-12.17,5.1-18.98,5.12-91.2.32-182.4.05-273.6.13-8.59,0-17.17-.02-25.76-.12-13.01-.16-23.71-4.13-29.52-16.82-1.33-4.04-2.06-8.04.99-11.72Z" style="fill: #eee; stroke-width: 0px;"/>
  <path d="M222.03,458.53c1.19-3.43,4.15-3.27,6.92-3.31,32.23-.41,64.47-.87,96.69.2,16.25.54,27.63,12.08,28.87,28.28.35,4.61.19,9.27.2,13.9,0,2.89-.37,5.64-3.74,6.67-2.87,1.99-6.16,1.75-9.4,1.75-13.9.03-27.81-.05-41.71.03-8.74.05-10.12,1.45-10.22,10.06-.27,23.63.47,47.26-.37,70.89-.13.68-.37,1.34-.5,2.02q-2.29,11.93-14.42,11.96c-19.24.02-38.47.06-57.71-.02-10.42-.04-20.81-1.13-31.2-1.76-13.77-.84-22.94-8.99-28.32-21.49-1.1-2.55-1.97-5.2-3.12-7.74-.94-3.86-1-7.74-.14-11.63,1.09-2.81,3.26-4.16,6.16-4.49,16.94-.39,33.89-.04,50.84-.19,8.25-.07,9.23-.99,9.26-9.26.07-25.54-.03-51.07.07-76.61.01-3.17-.72-6.58,1.83-9.28Z" style="fill: #eeb558; stroke-width: 0px;"/>
  <path d="M833.14,317.29c-15.71,7.87-32.3,13.66-48.39,20.62-11.83,5.12-24.4,8.56-35.43,15.49-89.09.03-178.18.09-267.27.08-38.27,0-76.55-.17-114.82-.26.39-2.96,3.04-3.23,5.05-4.06,37.3-15.37,74.58-30.79,111.9-46.13,2.3-.94,4.68-3.74,7.53-.86-.77,3.84-4.15,4.72-7.04,6.01-6.49,2.9-13.21,5.26-19.49,8.7,8.07-.99,16.17-2.51,22.94-6.78,8.79-5.54,19.31-4.85,28.28-9.29,1.91-.94,4.09.18,5.91,1.32,2.99,1.86,6.25,3.1,9.68,3.78,3.42.68,6.06,1.97,7,5.75,1,4.02,4.1,4.69,7.65,4.05,6.84-1.23,12.14,1.55,18.14,4.76,10.26,5.49,21.05,10.24,33.12,11.41,24.41,2.35,48.87,3.38,73.35,4.62,21.07,1.07,42.19.04,63.23,2.27,24.35,2.59,46.82-4.83,68.73-14.35,6.61-2.87,13.33-5.43,20.13-7.79,3.28-1.14,6.71-2.23,9.8.66Z" style="fill: #878787; stroke-width: 0px;"/>
  <path d="M352.26,586.39c3.62.55,8.49-3.46,10.52,2.89,1.73,5.4-.58,14.19-5.82,16.62-18.48,8.56-34.81,22.16-56.8,22.56-14.46.26-28.98,4.26-43.31,3.47-17.71-.97-34.89,1.57-52.31,2.91-6.28.48-12.82-1.23-19.12-2.56-9.48-2-19.21-.9-28.74-3.99-14.45-4.69-23.29-14.55-28.96-27.65-5.46-12.62-3.52-25.63-1-38.8,2.31-12.07,3.63-24.27,3.82-36.77.29-18.7-.33-38.46,15.47-52.91,3.93-3.59,8.13-6.88,13.06-9.08,1.57-.7,3.04-1.28,4.39.34.14,1.94-.72,3.6-1.63,5.18-3.78,6.59-5.01,13.67-4.77,21.2.11,3.52,1.05,7.44-2.15,10.37-3.83-1.31-2.21-4.53-2.75-8.78,1.87,23.68-2.32,45.64.1,67.66.73,6.6-.81,13.35-.62,20.09.41,14.23,7.11,22.87,21.02,26.47,12,3.1,24.36,3.32,36.59,3.65,20.63.54,41.32.78,61.93-.07,14.1-.58,28.24.03,42.3-1.29,6.22-.58,12.35-1.86,17.84-5.13,5.37-2.87,10.72-5.79,14.77-10.52,2.4-1.58,3.12-4.93,6.15-5.85Z" style="fill: #7da4e9; stroke-width: 0px;"/>
  <path d="M583.33,769.03c6.27-9.18,14.92-12.73,26.04-12.72,26.16.04,52.31-1.7,78.49-1.01,12.49.33,25,.48,37.46,1.3,8.47.56,16.39,3.95,19.43,12.34,3.36,9.26,3.76,19.03-2.64,27.74-.45,1.97-1.92,2.79-3.67,3.31-9.97,2.07-20.1,3-30.24,3.09-27.08.24-54.17.06-81.25.09-8.13.01-16.13-1.29-24.19-2.04-7.63-.71-14.18-3.99-19.91-9.02-4.49-7.99-4.29-17.57.48-23.09Z" style="fill: #e3e3e3; stroke-width: 0px;"/>
  <path d="M532.81,789.71c-2.22,3.7-3.94,7.82-8.12,9.92-5.79,2.06-11.8,2.22-17.85,2.22-33.46-.02-66.92-.03-100.38.01-6.32,0-12.52-.86-18.68-2.02-8.66-1.63-15.28-6.48-20.16-13.77-1.56-4.4-1.75-8.72.8-12.87.98-2.31,1.97-4.62,2.95-6.94,7.19-8.19,16.41-10.08,26.96-9.99,20.18.17,40.36-.87,60.54-.88,17.16-.01,34.32.67,51.48,1.12,11.35.3,24.22,8.7,22.84,23.45-.3,3.23-.26,6.49-.38,9.74Z" style="fill: #e6e6e6; stroke-width: 0px;"/>
  <path d="M795.38,774.69c5.18-13.61,11.73-17.97,26.72-18.24,22.96-.41,45.91-1.72,68.88-1.15,15.76.39,31.55.38,47.28,1.29,18.19,1.05,27.51,15.63,18.67,37.36-3.74,4.44-9.03,5.83-14.31,6.11-9.03.48-17.97,1.81-27.05,1.8-32-.02-64.01.38-95.97-1.52-11.71-.7-21.02-5.36-25.59-17-.66-3.06-1.23-6.12,1.38-8.66Z" style="fill: #ebebeb; stroke-width: 0px;"/>
  <path d="M319.91,785.83c-1.48,3.94-1.77,8.48-5.66,11.2-3.75,2.66-7.94,3.45-12.5,3.45-38.09-.06-76.17.17-114.26-.1-12.8-.09-24.36-3.49-32.16-14.77-.42-7.98-1.3-16.07,5.33-22.37,6.38-5.3,13.81-6.78,21.95-6.83,18.74-.11,37.5-1.38,56.21-.86,19.45.54,38.91.35,58.35,1.04,13.91.49,22.46,9.74,22.58,23.68.02,1.85.1,3.7.15,5.55Z" style="fill: #e7e7e7; stroke-width: 0px;"/>
  <path d="M739.56,798.42c.85-.58,1.7-1.16,2.55-1.74,4.1,7.22-.42,11.69-5.23,15.91-8.02,7.04-17.2,11.32-28.04,12.01-12.65.81-25.3,4.51-37.87,2.72-14.75-2.11-29.51-.31-44.28-1.99-8.42-.96-17.38,1.91-26.02-.57-6.88-1.97-13.87-3.78-20.44-6.55-10.02-4.23-15.65-17.63-12.17-27.88,1.78-5.22,3.03-10.61,6.46-15.26,2.35-3.2,4.86-5.49,8.8-6.04-2.38,7.38-1.94,14.74.23,22.07.35.69.59,1.42.72,2.18,1.6,6.63,8.53,12.23,16.1,12.71,6.25.4,12.54.39,18.78.08,10.92-.54,21.8,2.07,32.58,1.13,11.79-1.03,23.48,1.27,35.27-.43,11.43-1.65,23.03-.63,33.69-.17-.55.07-1.92.04-3.17-.78,1.41-3.52,1.42-3.82,6.03-3.77,5.68.06,10.97-1.06,15.99-3.64Z" style="fill: #7da4e9; stroke-width: 0px;"/>
  <path d="M350.85,505.17c2.93.88,3.76,3.09,3.75,5.87-.03,12.67-.05,25.33-.06,38,0,2.53-.73,4.54-3.45,5.26-18.94,1.14-37.89.41-56.84.39-1.4,0-2.74-.43-3.89-1.28-1.25-1.25-1.5-2.96-1.57-4.51-.51-12.51-.9-25.03.23-37.54.36-4.01,2.24-5.7,6.18-5.85,18.55-.74,37.09-1.14,55.65-.32Z" style="fill: #eeb555; stroke-width: 0px;"/>
  <path d="M154.73,499.55c.23-11.56-.76-23.36,6.5-33.55.66-.92,1.49-1.72,2.24-2.58,16.29-12.39,35.17-7.68,53.28-8.05,2.05-.04,3.27,1.47,4.09,3.24,1.28,13.41.4,26.84.49,40.26.04,5.83-4.28,7.11-9.13,7.11-17.4.02-34.79.26-52.19-.11-3.4-.74-6.33-1.86-5.27-6.32Z" style="fill: #edb453; stroke-width: 0px;"/>
  <path d="M607.09,472.06c.04,3.68.08,7.37.12,11.05.97,2.86,2.16,5.64,3.61,8.27,3,5.41,7.38,8.83,13.86,8.99,13.21.33,26.36,1.61,39.6,1.58,78.88-.18,157.76-.13,236.64-.05,14.15.01,28.22-2.02,42.39-1.4,1.83.08,3.7-.57,5.31.79-2.15,7.41-8.61,7.62-14.47,8.3-24.49,2.84-49.09,1.39-73.63,1.31-18.08-.06-36.05,1.81-54.14,1.65-45.64-.38-91.31-.74-136.93.24-15.97.34-31.76.56-47.53-1.78-22.09-3.28-24.97-20.09-19.1-36.03.55-1.48,1.16-4.44,4.26-2.93Z" style="fill: #506fc9; stroke-width: 0px;"/>
  <path d="M795.38,774.69c.04,2.74.07,5.48.11,8.23.07,4.38,3.62,7.6,3.98,11.89,1.27,6.27,6.4,8.2,11.5,9.75,4.65,1.41,9.55,1.62,14.46,1.6,26.23-.08,52.46-.02,78.69-.05,8.58,0,17.14.91,25.73.59,3.41-.13,6.81-.06,10.02-1.41.88-.38-.85-.61-.19.05-7.94,2.04-15.93,1.73-23.95.58-1.3-3.67,1.72-3.41,3.66-3.76,3.2-.57,6.52-.6,9.71-.23,10.09,1.15,19.1-1.99,27.84-6.45,1.46,10.77-6.77,15.41-13.75,19.95-9.73,6.33-21.51,7.31-32.65,7.72-23.29.84-46.65.81-69.94.02-11.89-.4-23.96-1.07-35.67-3.78-15.36-3.56-23.53-19.93-17.54-34.65,1.22-3,2.41-6.02,3.84-8.92.84-1.69,2.05-3.44,4.16-1.13Z" style="fill: #7da4e9; stroke-width: 0px;"/>
  <path d="M352.26,586.39c-1.24,2.48-2.46,4.98-4.89,6.57-15.58,9.36-32.8,6.58-49.58,6.39-7.18-.08-9.46-3.22-8.99-10.26.65-9.75-.02-19.5.38-29.25.2-2.67,1.8-3.97,4.27-4.46,19.15-.32,38.3-.75,57.45.23,3.02.72,3.78,2.92,3.84,5.68.17,8.47.54,16.95-2.47,25.1Z" style="fill: #eeb75b; stroke-width: 0px;"/>
  <path d="M948.63,501.29c-11.83,3.14-24.03,2.15-35.96,2.21-88.97.47-177.95.29-266.92.21-7.87,0-15.76-.59-23.62-1.18-8.8-.65-14.86-8.71-14.92-19.43,2.6,3.2,4.88,6.74,7.85,9.54,5.63,5.31,13.14,5.71,20.2,5.72,101.04.17,202.08.12,303.13.11,5.37,0,10.51-1.37,15.57-3.01-.54,3.07-3.78,3.67-5.33,5.82Z" style="fill: #bdbfcd; stroke-width: 0px;"/>
  <path d="M956.93,795.48c-6.08,6.61-13.76,8.56-22.51,8.56-6.39,0-12.9-1.11-19.22.9-1.91,2.47-4.67,1.68-7.11,1.69-27.65.06-55.29.03-82.94.04-4.91,0-9.79-.68-14.47-1.85-5.66-1.42-11.03-3.88-12.68-10.48-1.18-3.73-3.43-7.23-2.52-11.43,4.64,10.03,12.81,14.77,23.52,15.37,33.97,1.91,67.98,1.69,101.97,1.2,12.09-.17,24.5-.29,35.96-5.53,0,.51,0,1.02,0,1.53Z" style="fill: #b5b7c3; stroke-width: 0px;"/>
  <path d="M489.88,301.9c-12.04,3.43-23.23,9-34.74,13.75-28.2,11.63-56.41,23.25-84.6,34.91-1.69.7-3.24,1.76-4.85,2.65-2.27.07-4.53.14-6.8.21,11.25-6.46,23.6-10.41,35.5-15.35,60.55-25.18,121.22-50.1,181.83-75.15,43.89-18.14,87.75-36.33,131.63-54.48.62-.26,1.37-.23,2.05-.33.2.28.41.56.61.83-.33,1.94-1.9,2.82-3.27,3.88-14.35,7.74-29.78,12.99-44.84,19.04-19.39,7.79-38.52,16.18-57.91,23.99-29.94,12.06-59.61,24.78-89.56,36.81-6.05,2.43-11.85,5.37-17.8,7.98-2.3,1.01-4.55,2.5-7.25,1.26Z" style="fill: #553b2c; stroke-width: 0px;"/>
  <path d="M293.22,556.93c-1.58.21-2.75.88-2.96,2.64-.92,12.3-.76,24.61-.05,36.91.09,1.63.35,3.15-.46,4.63-.58.81-1.34,1.03-2.26.67-1.02-4.69-.59-9.39-.04-14.08.07-24.31.08-48.62.25-72.94.06-9.05,1.6-10.63,10.49-10.66,17.59-.06,35.19.1,52.78.17-.22.27-.27.57-.14.89-17.6,1.12-35.25.06-52.87,1.33-5.36.38-8.18,1.59-8.26,7.28-.19,12.96-1.59,25.94,1.08,38.82,1.97,1.88,4.41.93,6.61.95,15.04.09,30.08,0,45.12.1,2.16.01,4.6-.91,7.57,2.09-19.62,1.63-38.32-.46-56.88,1.19Z" style="fill: #812e07; stroke-width: 0px;"/>
  <path d="M159.02,504.43c17.38-.25,34.77-.46,52.15-.77,9.11-.16,9.21-.29,9.33-9.56.15-11.83.23-23.67.34-35.5.39-.16.79-.18,1.2-.07.02,29.24-.08,58.48.16,87.71.06,6.81-2.32,9.64-9.29,9.57-18.08-.19-36.16.78-54.23-.51.16-.9.64-1.56,1.44-2,3.3-1.49,6.82-1.11,10.28-1.14,12.98-.11,25.98.26,38.95-.19,7.21-.25,9.03-2.23,9.19-9.33.19-8.58-.05-17.16.08-25.74.08-5.49-2.46-7.97-7.74-8.57-12.73-1.45-25.48-.34-38.22-.74-4.14-.13-8.37.57-12.38-1.1-.83-.43-1.25-1.12-1.25-2.06Z" style="fill: #832b06; stroke-width: 0px;"/>
  <path d="M293.22,556.93c5.1-2.32,10.51-1.14,15.76-1.24,12.75-.24,25.5-.08,38.25-1.45-16.22,0-32.44.07-48.65-.07-2.6-.02-5.64,1.11-7.79-1.56,17.41.11,34.82.2,52.23.34,2.74.02,5.62-.56,8.06,1.35-.32.4-.39.83-.2,1.31-1.48,1.41-3.34,1.36-5.19,1.36-17.49-.01-34.98-.03-52.47-.04Z" style="fill: #ca6c18; stroke-width: 0px;"/>
  <path d="M54.94,459.81c.18-4.29-1.24-8.7.96-12.84,0,4.3.78,8.67-.96,12.84Z" style="fill: #e7a347; stroke-width: 0px;"/>
  <path d="M591.63,904.07c-4.15,5.2-12.89,8.76-23.82,8.45-13.36-.37-26.79.14-40.04.61-41.51,1.48-83,.43-124.49.87-21.12.23-42.24.16-63.36,0-8.35-.06-16.51,2.1-24.91,1.45-27.27-2.12-54.55,1.04-81.83-.03-22.26-.87-44.71.68-66.61-4.82-16.23-4.07-20.92-14.32-13.85-30.66,1.98,2.38-.14,5.79,2.3,7.59,0,0,.28-.03.28-.03,3.97,8.41,11.25,13.06,19.26,16.88,3.01,1.39,6.11,2.04,9.44,2.12,18.09.48,36.25.71,54.27.41,17.88-.3,35.66.53,53.47.95,9.32.22,18.66-2.31,27.73-1.1,15.04,2,30.02-1.59,45.01.84,7.54,1.22,15.17-1.24,22.86-1.22,59.25.18,118.5.11,177.74.09,5.04,0,10.14.35,14.99-1.59.19-.77.64-1.31,1.34-1.66,3.53-1.11,7-1.62,10.22.83Z" style="fill: #2b47ab; stroke-width: 0px;"/>
  <path d="M171.8,904.17c-7.96-3.12-15.76-6.4-16.52-16.67,3.34.63,5.68,3.01,8.31,4.84,6.31,4.38,13.32,6.33,20.92,6.34,15.24.03,30.48.13,45.73,0,8.35-.07,16.55,1.5,24.94,1.49,108.41-.17,216.82-.15,325.23,0,6.81,0,13.32-.96,19.82-2.6-1.81,3.57-5.95,4.06-8.61,6.5-3.76.22-7.52.45-11.28.68-6.15,2.55-12.82.65-19.08,2.24-117.84-.18-235.67.83-353.5,0-10.73-1.84-21.64.27-32.38-1.4-1.3-.19-2.52-.59-3.57-1.41Z" style="fill: #abacb7; stroke-width: 0px;"/>
  <path d="M368.41,773.21c.13,4.14.26,8.28.38,12.42.57,1.48,1.17,2.96.93,4.6-.88,8.92,4.37,14.61,14.27,15.76,20.02,2.34,40.01,4.38,60.2,1.62,5.92-.81,12-.11,18.02.66,15.57,2.01,30.92-1.33,46.36-2.36.64-.04.88-.92.61-1.68,4.73-3.11,10.05-3.42,15.45-3.35-.66,4.71-4.31,6.84-7.86,9.02-7.52,4.62-15.94,6.1-24.53,6.46-15.36.65-30.82,2.17-46.09,1.16-21.64-1.44-43.45.61-64.95-3.81-18.89-3.88-27.24-23.96-15.62-38.78.78-.99,1.61-1.6,2.83-1.74Z" style="fill: #5077d5; stroke-width: 0px;"/>
  <path d="M155.34,785.61c7.37,4.04,13.2,10.8,22.37,11.77,3.19.34,6.38.91,9.61.91,38.66.02,77.32,0,115.98.09,3.75,0,7.34-.59,10.96-1.34-4.64,7.33-12.66,6.2-19.58,7.81-2.1,2.94-5.32,2.55-8.25,2.55-33.64.08-67.29.31-100.93-.11-9.95-.12-20.16-.95-27.39-9.49-2.54-3-5.4-6-3.31-10.5.18-.56.35-1.12.53-1.69Z" style="fill: #b6b7bf; stroke-width: 0px;"/>
  <path d="M154.81,787.3c2.46,9.38,9.43,15.38,18.98,16.56,16.16,2,32.39,1.2,48.59,1.3,24.1.15,48.2-.19,72.3-.32,1.82.23,3.64.46,6.42.81-5.11,3.3-10.01,5.06-15.1,5.08-10.33.03-20.68.76-30.96.97-19.65.41-39.31.44-58.94.32-10.5-.06-21.24-.67-31.37-4.24-9.91-3.49-14.84-10.65-13.7-19.17.41-3.04,1.18-4.7,3.77-1.32Z" style="fill: #2942a0; stroke-width: 0px;"/>
  <path d="M368.41,790.22c.13-1.53.26-3.06.38-4.59,9.48,11.92,22.79,13.98,36.74,14.02,35.68.09,71.36-.07,107.03.18,4.05.03,8.07-2.91,12.12-.19,0,.42,0,.84-.04,1.26-4.78,2.51-10.13,2.82-15.27,3.95-4.72,3.29-10.25,2.3-15.35,2.37-30.37.41-60.74.14-91.11.23-6.04.02-12.03-.75-17.95-1.74-8.63-1.45-15.1-7.74-16.55-15.48Z" style="fill: #b3b5bf; stroke-width: 0px;"/>
  <path d="M894.33,993.53h6.82c-2.28,2.04-4.55,2.05-6.82,0Z" style="fill: #5079d7; stroke-width: 0px;"/>
  <path d="M1057.23,450.08c.06-1.85-.03-3.73.22-5.56.26-1.86-1.23-4.82,1.67-5.24,2.04-.3,3.94,2.01,4.53,3.84,4.54,14.06,11.38,27.22,16.11,41.16,3.57,10.53,6.78,21.1,13.49,30.18.92,1.24,1.31,3.34,3.41,2.8,1.79-.46,2.38-2.41,2.4-3.9.06-5.99.77-11.98-.58-17.99-3.53-15.62-9.35-30.46-15.17-45.27-10.58-26.89-21.45-53.67-32.39-80.43-14-34.24-28.18-68.41-42.25-102.62-1.14-2.78-2.08-5.64-3.01-8.5-.88-2.71-2.4-4.46-5.51-4.19,4.17-3.24,5.6-.04,7.16,3,8.48,16.51,14.69,33.99,21.81,51.07,15.32,36.72,30.16,73.63,44.99,110.55,8.53,21.25,17.14,42.49,24.81,64.06,9.45,26.56,5.2,51.86-9.15,75.81-7.43,12.4-16.46,22.88-30.79,27.48-.1-.69-.27-1.37-.28-2.06-.49-44.73-.97-89.47-1.44-134.2Z" style="fill: #eebb6d; stroke-width: 0px;"/>
  <path d="M767.29,184.4c-.9,1.07-1.8,2.15-2.7,3.22-.93,2.49-3.29,3.13-5.39,3.96-14.99,5.95-29.64,12.73-44.83,18.18-1.54.16-2.97-.04-4.12-1.22,0,0-.35-.44-.35-.44,18.83-8.62,38.03-16.35,57.39-23.71Z" style="fill: #553b2c; stroke-width: 0px;"/>
  <path d="M714.49,208.52c16.7-6.97,33.4-13.93,50.09-20.9,12.21-4.81,24.47-9.49,36.61-14.47,26.73-10.99,53.38-22.16,80.08-33.22,20.01-8.29,40.06-16.5,60.06-24.81,5.02-2.09,7.49-1.15,9.72,4.47,11.63,29.25,23.91,58.23,35.81,87.37,4.72,11.55,8.96,23.3,13.64,34.87,1.77,4.39.09,6.1-3.88,7.71-25.97,10.48-51.9,21.09-77.76,31.84-27.15,11.28-54.21,22.78-81.33,34.14-1.9.79-3.96,1.2-5.94,1.78-7.6-1.09-13.94,2.9-20.55,5.4-14.7,5.56-28.9,12.54-44.39,15.82-13.2,2.79-26.5,3.49-39.94,1.33-4.54-.73-9.28-.49-13.91-.27-15.09.69-30.11-1.76-45.12-1.22-12.06.44-23.86-2.59-35.56-2.22-11.22.36-22.01-.78-32.91-2.24-8.31-1.11-16.37-1.75-24.38-6.24-6.11-3.42-13.12-5.4-19.17-9.74-3.01-2.16-8.03-1.05-12.16.25-4.5,1.42-8.34-1.55-8.23-5.04.15-4.45-.84-5.31-4.67-4.89-.62.07-1.34-.36-1.94-.7-14.91-8.3-28.09-1.11-41.36,4.71-7.86,3.45-16.09,5.65-24.41,7.56-1.44.33-3.65.95-4.27-1.01-.69-2.19,1.39-3.31,3.03-4,6.83-2.87,13.67-5.73,20.63-8.28,2.91-1.07,5.41-2.51,7.59-4.62,33.43-14.09,66.81-28.29,100.29-42.24,39.03-16.25,78.15-32.28,117.23-48.41,2.27-1.16,4.8-1.64,7.1-2.73Z" style="fill: #878787; stroke-width: 0px;"/>
  <path d="M159.02,504.43l.1.6c-.55,2.39-2.49,4.13-2.97,6.55-.78,11.74-.53,23.47-.09,35.19.48,2.71,1.97,5.09,2.58,7.76.12.25.14.5.05.76-1.77.58-2.91,1.88-3.84,3.4-.86,5.84-.6,11.58,1.71,17.11,4.6,18.54,14.27,26.44,33.54,26.55,32.4.18,64.79.15,97.19-.04.83.02,1.66.04,2.48.06,13.18-.39,26.38.82,39.54-.7,1.63-.19,3.25.12,4.42,1.5-5.64,5.05-12.79,6.07-19.8,6.76-9.12.89-18.44-.22-27.46.52-12.75,1.05-25.43.73-38.13.94-14.14.24-28.33.7-42.43-.17-11.67-.72-23.49-.66-34.99-3.83-13.45-3.71-21.28-13.25-21.3-27.1-.02-18.67-.81-37.4.31-56.01.67-11.25.42-22.48,1.12-33.7.08-1.33-.07-2.85,1.98-3.49,2.05,3.96-.7,8.62,1.7,12.45.6,2.36,1.97,4.03,4.29,4.87Z" style="fill: #3348a4; stroke-width: 0px;"/>
  <path d="M287.27,602.31c-1.59,2.26-4,2.02-6.3,2.02-31.23,0-62.47.3-93.69-.16-19.52-.29-29.62-9.87-32.58-29.09-.13-1.9-.6-3.83.42-5.64,3.77,4.47,4.65,10.42,8.11,15.18,5.92,8.15,13.83,12.16,23.47,12.82,30.06,2.06,60.18,1.16,90.28,1.57,6.73.09,10.82-.93,9.49-8.81-.13-.76.63-1.66.98-2.5.52,4.88.44,9.75-.18,14.61Z" style="fill: #d78434; stroke-width: 0px;"/>
  <path d="M155.12,569.43c-.14,1.88-.28,3.76-.42,5.64-1.28-5.47-1.75-10.94.14-16.38.09,3.58.19,7.16.28,10.74Z" style="fill: #5177d4; stroke-width: 0px;"/>
  <path d="M333.72,603.17c-12.31,1.71-24.68,1.49-37.06,1.18-2.43-.06-5.17.57-6.91-1.98-.88-14.27-1.65-28.55.51-42.8.08,9.96.49,19.94.13,29.89-.22,6.26,2.44,8.35,8.19,8.07,15.56-.76,31.61,2.74,46.35-5.36.51-.28,1.61.5,2.43.79-3.73,4.5-8.03,8.23-13.65,10.21Z" style="fill: #da8632; stroke-width: 0px;"/>
  <path d="M583.3,792.91c.09-.6.18-1.2.27-1.81,12.15,9.4,26.8,9.43,40.91,9.76,28.72.67,57.48.4,86.21.06,9.63-.12,19.25-1.63,28.87-2.5-3.7,4.51-8.74,5.44-14.2,5.55-2.72.05-5.56-.6-8.15.88-1.37,2.19-3.62,1.75-5.65,1.8-35.71.87-71.43.34-107.14-.07-10.73-.12-18.38-5.44-21.12-13.67Z" style="fill: #aaacbc; stroke-width: 0px;"/>
  <path d="M583.3,792.91c5.46,8.15,13.26,11.99,22.91,11.99,37,.03,74-.03,111-.06,3.21.19,6.42.38,10.58.62-3.03,2.09-5.55,2.55-8.24,2.62-14.81.38-29.63.8-44.42,1.07-24.68.45-49.4-.68-74.1-1.07-6.8-.11-11.81-3.86-16.38-8.09-1.67-1.55-4.33-4.1-1.35-7.08Z" style="fill: #233485; stroke-width: 0px;"/>
  <path d="M798.01,794.34c6.62,10,17.16,10.26,27.33,10.37,29.95.32,59.91.18,89.86.23,8.31,0,16.62,0,26.85,0-5.19,2.82-8.9,3.17-12.68,3.17-36.14-.01-72.28.05-108.42-.09-6.97-.03-13.88-1.1-19.43-5.99-2.26-1.99-5.31-3.77-3.51-7.68Z" style="fill: #7da4e9; stroke-width: 0px;"/>
  <path d="M714.49,208.52c-2.01,1.83-4.35,2.8-7.1,2.73.95-.9,1.9-1.8,2.85-2.71,1.41,0,2.83-.01,4.24-.02Z" style="fill: #534843; stroke-width: 0px;"/>
  <path d="M154.87,509.87c.42-2.48,1.68-4.23,4.24-4.84,14.32,1.44,28.68.25,43.01.78,22.33.82,17.8-.33,18.41,18.53.22,6.71-.24,13.45.15,20.14.4,6.92-2.61,9.55-9.31,9.49-15.28-.15-30.57-.03-45.85.04-2.3.01-4.59.34-6.89.52-3.06-.97-3.43-3.61-3.87-6.21-.35-12.82-.55-25.64.1-38.45Z" style="fill: #eeb659; stroke-width: 0px;"/>
  <path d="M206.86,905.34c103.79.08,207.58.18,311.37.21,14.86,0,29.71-.26,44.57-.4,5.88-.2,11.76-.37,17.63.09,1.34.23,2.68.47,4.01.7.03.29.05.59.08.88-5.44.53-10.87,1.5-16.31,1.52-60.33.16-120.67-.18-180.99.45-17.49.18-35.02.34-52.52.71-28.62.61-57.27-.65-85.92-.92-21.73-.21-43.46-.07-65.18-.16-4.37-.02-8.92.1-11.79-4.25,1.04.08,2.07.16,3.11.24,10.61,1.55,21.32-.22,31.94.93Z" style="fill: #1d296d; stroke-width: 0px;"/>
  <path d="M580.42,905.25c-5.88-.03-11.76-.06-17.64-.09,5.83-1.43,11.7-.83,17.56-.41,0,0,.08.5.08.5Z" style="fill: #5079d7; stroke-width: 0px;"/>
  <path d="M206.86,905.34c-10.66.02-21.36,1.48-31.94-.93,10.65.1,21.33-.76,31.94.93Z" style="fill: #2b47ab; stroke-width: 0px;"/>
  <path d="M368.41,790.22c5.42,10.33,14.31,14.54,25.61,14.69,38.45.51,76.9.7,115.35-.06,1.34.23,2.68.47,4.26.74-9.53,3.84-42.87,6.59-52.95,4.63-7.33-1.42-14.72-.83-22.11-.19-13.37,1.15-26.78,2.02-40.06-.58-5.05-.99-10.08-1.11-15.15-1.45-11.45-.77-17.97-8.68-14.95-17.78Z" style="fill: #2a3f96; stroke-width: 0px;"/>
  <path d="M154.87,509.87c-.03,12.82-.07,25.64-.1,38.46-1.6-12.83-1.71-25.64.1-38.46Z" style="fill: #5177d4; stroke-width: 0px;"/>
</svg>