<?xml version="1.0" encoding="UTF-8"?>
<svg id="Layer_1" data-name="Layer 1" xmlns="http://www.w3.org/2000/svg" viewBox="0 0 1089.51 755.99">
  <path d="M.43,484.74c-.1-2.49-.27-4.98-.27-7.46.03-140.88.08-281.76.13-422.63C.29,21.3,21.17.34,54.66.32c134.53-.08,269.05-.06,403.58-.11C506.1.18,553.96.06,601.83,0c2.71,0,5.43.2,8.14.31-1.03,3.6-4.2,3.04-6.68,3.05-34.89.2-69.78.13-104.66.07-2.4,0-4.8-.23-5.84-1.04,6.93,1.96,13.99,6.19,19.57,12.35,8.63,9.54,13.85,20.8,13.96,33.82.27,32.39.13,64.79.07,97.19,0,1.59-.1,3.17-.45,4.71-.53,2.38-2.2,3.81-4.16,5.1-31.03,20.46-61.99,41.05-92.93,61.65-33.2,22.09-66.34,44.29-99.69,66.16-18.17,11.92-36.38,23.83-54.52,35.79-31.76,20.95-63.21,42.4-95.05,63.24-34.12,22.33-67.96,45.09-101.82,67.79-13.17,8.83-27.04,16.56-39.63,26.32-9.24,7.16-20.33,9.76-31.96,9.84-2.04.01-4.12-.01-5.73-1.61Z" style="fill: #a1d14d; stroke-width: 0px;"/>
  <path d="M.43,484.74c17.07.91,31.39-4.89,44.91-15.47,13.09-10.24,27.91-18.23,41.83-27.43,15.42-10.19,30.64-20.68,46.02-30.93,13.5-8.99,27.14-17.76,40.67-26.72,15.99-10.59,31.8-21.48,47.93-31.85,12.7-8.16,24.55-17.61,37.94-24.75,7.34-3.91,13.8-9.35,20.63-14.08,24.11-16.68,49.21-31.83,73.13-48.8,17.83-12.65,36.69-23.84,54.92-35.93,19.18-12.71,37.86-26.19,57.32-38.45,19.67-12.39,38.25-26.44,58.49-37.92,3.35,3.62,2.29,8.15,2.29,12.33.07,88.46.05,176.93.05,265.39,0,17.01.02,34.02-.02,51.04,0,3.38.27,6.83-1.34,10.01-1.89,2.67-4.74,3.39-7.73,3.59-20.11,1.37-40.23,2.67-60.33,4.25-26.19,2.06-52.42,3.48-78.64,5.06-18.53,1.12-37.08,2.18-55.61,3.3-20.79,1.25-41.6,2.29-62.39,3.53-19.21,1.15-38.44,2.12-57.67,3.08-25.56,1.28-51.11,2.68-76.67,3.8-20.59.91-41.16,2.29-61.76,2.94-17.89.56-35.75,1.43-53.61,2.56-3.57.23-7.3.9-10.36-1.87l-.02-36.71Z" style="fill: #84b52d; stroke-width: 0px;"/>
  <path d="M524.22,491.32c.05-111.6.09-223.21.13-334.81,0-1.36-.08-2.72-.13-4.08.03-33.12.02-66.24.12-99.36.07-22.58-9.62-38.96-30.31-48.52-1.62-.75-3.25-1.49-4.96-3.17,1.81,0,3.63,0,5.44,0,36.07-.04,72.14-.06,108.21-.14,2.42,0,5.01.76,7.25-.92,22.42-.07,44.84-.16,67.27-.19,2.22,0,4.57-.36,6.55,1.18-3.19,3.08-7.25,2.13-10.98,2.13-4.78,0-7.01,2.06-7.4,6.78-3.01,36.09-7.75,72-11.23,108.05-.69,7.13-.28,7.58,7.28,7.62,18.34.1,36.69-.02,55.03.08,3.31.02,6.88-.63,9.6,2.21-1.5,3.91-5.06,3.23-7.99,3.27-9.17.15-18.34.3-27.51-.06-21.77.33-43.55.05-65.33.15-27.72.12-45.62,17.89-45.64,45.61-.06,114.34-.02,228.67-.03,343.01,0,2.95.16,5.9-.16,8.84-.09,4.11.73,8.32-1.22,12.24-3.53-.71-3.7-.71-3.92-4.66-.37-6.55-.01-13.12-.18-19.68-.22-8.91-2.03-10.43-10.79-8.4-8.59,1.99-17.14,4.18-25.79,5.93-4.39.89-7.16,3.28-8.73,7.56-.8,2.17-.98,6.4-5.48,3.91-1.38-11.57-2.85-23.14.92-34.57Z" style="fill: #678a2d; stroke-width: 0px;"/>
  <path d="M1066.26,411.07c2.83,10.37.66,20.95,1.26,31.41-2.65,2.34-5.92,1.98-9.06,2-10.2.06-20.4-.04-30.59.04-9.93.08-11.4,1.14-14.95,10.42-1.52,2.51-3.41,1.35-5.18.44-2.18-1.13-4.19-2.56-6.39-3.64-18.49-8.28-25.9-4.93-30.66,14.41-3.15,12.82-4.64,25.85-2.6,39.07.73,5.71,1.45,11.41,2.63,17.05,1.16,6.24,5.77,10.98,7.38,17.04,1.53,6.21,1.99,12.52,1.57,18.87-.53,7.87-5.15,13.51-12.75,15.71-5.98,1.73-12.05,1.35-18.18.96-21.18-1.35-42.31-1.41-63.58-.32-27.04,1.38-54.15,3.57-81.28,1.56-6.07-4.42-11.47-9.35-12.69-17.34,3.45-3.73,8.08-3.47,12.59-3.84,22.99-1.89,45.98-3.8,68.88-6.61,6.56-.8,12.84-2.77,19.02-5.01,11.51-4.17,18.2-15.44,14.43-27-6.02-18.5-5.78-37.21-2.01-55.63,3.14-15.32-4.91-24.87-13.46-34.9-1.7-1.99-4.63-3.11-4.41-6.41,2.64-1.93,5.23-.34,7.81.17,17.01,3.33,32.17-8.48,32.63-25.78.33-12.45-.04-24.92.11-37.38.1-8.07-4.53-14.01-8.36-20.36,8.28-22.01-2.16-40.46-12.4-58.19-17.44-30.2-35.32-60.2-55.12-88.95-20.51-29.77-49.16-47.5-84.29-55.2-2.97-.65-7,.07-8.15-4.3,33.58,1.04,67.29-2.68,100.74,2.82,11.85,4.05,18.11,14.45,25.95,23.01,4.87,5.31,8.88,11.37,13.87,16.61,1.43,1.5,2.44,3.27,1.89,5.51-10.49,10.8-10.36,10.72-2.02,24.26,17.82,28.91,35.76,57.74,53.44,86.72,4.51,7.4,7.48,15.46,10.62,23.47,3.2,8.73,5.1,17.76,6.87,26.87,2.75,14.18,9.26,26.32,20.97,35.3,4.9,3.76,9.19,8.25,11.66,13.9,3.61,8.25,9.72,11.38,18.36,10.71,2.24-.17,4.51-.09,6.78-.18,3.05,0,6.09-.17,9.13,0,7.41,1.03,8.08,1.75,7.43,8.99-.73,8.15-.26,16.31-.41,24.47-.08,4.63,1.64,6.98,6.67,7.29,13.22.8,13.5.54,13.75-12.94.09-5.05-1.58-10.47,2.09-15.07Z" style="fill: #ccbce2; stroke-width: 0px;"/>
  <path d="M400.7,626.45c-2.57,20.64-9.21,39.7-22.54,55.93-21.22,25.83-48.31,39.82-82.09,40.63-17.27.42-33.6-2.76-49-10.46-3.19-1.59-4.82-1.15-7.15,1.55-18.97,21.94-42.39,36.29-71.43,40.42-30.82,4.38-59.6-.71-85.32-19.19-.75-5.78.24-6.85,6.97-7.35,20.18-1.51,39.91-5.17,59.03-11.92,26.5-9.36,50.42-23.41,72.98-39.93,11.14-8.16,21.34-17.5,32.1-26.11,9.72-7.78,10.95-17.59,10.29-28.46-.26-4.26-1.28-8.49-2.31-12.68-.65-2.62-1.41-5.34.78-7.72,2.02-1.29,4.31-1.27,6.57-1.28,15.85-.04,31.7-.13,47.54.03,7.4.07,8.72,1.46,8.95,8.75.25,7.91-.42,15.86,1.34,23.68.45,1.99.74,4,1.47,5.92,4.88,12.8,12.91,15.12,24.33,7.48,14.4-9.63,26.26-22.14,39.06-33.6,2.33-2.09,4.38-6.54,8.8-2.88-.1,5.73.48,11.46-.35,17.16Z" style="fill: #2d2b2d; stroke-width: 0px;"/>
  <path d="M400.19,608.66c-2.64-.04-3.86,2.12-5.48,3.61-12.92,11.9-25.1,24.6-39.75,34.59-6,4.09-11.9,7.32-18.72,4.23-6.91-3.13-9.02-10.21-10.64-17.1-1.93-8.22-1.66-16.62-1.29-24.93.24-5.46-1.2-7.52-7.07-7.4-18.1.36-36.21.11-54.31.1-4.4-.88-7.57.87-10.65,4.02-11.9,12.15-23.82,24.29-36.16,36-2.86,2.71-5.64,7.87-11.26,4.27-1.25-2.78-.89-5.74-.93-8.65-.16-11.11-3.29-21.24-9.82-30.27-9.71-13.34-22.71-21.07-39.15-22.95-2.26-.26-4.45-.85-6.33-2.25-2.28-4.19.64-6.93,3.12-9.31,3.2-3.07,5.3-6.55,6.3-10.8,2.86-1.79,5.72-.57,8.53.1,12.19,2.94,23.79,7.37,34.14,14.54,4.84,3.35,8.55,2.66,12.45-1.51,4.93-5.29,10.13-10.34,15.35-15.36,2.1-2.02,4.18-4.33,7.66-3.21,5.71,2.97,8.9,8.34,12.3,13.35,3.97,5.85,9.18,8.43,16.09,8.16,43.21-1.71,86.49-.25,129.67-1.74,35.33-1.22,70.62-.33,105.92-.94,15.11-.26,21.69-6.56,22.08-21.87.12-4.75-.04-9.51.13-14.27.11-4.15-1.12-8.54,2.07-12.16.17-.15.47-.28.49-.45,1.88-12.81,11.79-14.42,21.95-16.12,6.61-1.1,13.09-3.05,19.64-4.56,6.61-1.52,9.27.4,9.49,7.31.24,7.44.04,14.9.11,22.34.02,2.2-.57,4.55,1.08,6.5,2.49,1.97,2.08,4.82,2.14,7.46.13,5.84.15,11.69.02,17.53-.22,9.61,3.32,17.51,10.38,23.92,1.66,1.51,3.44,2.95,3.74,5.41-.15,5-3.64,4.8-7.21,4.8-33.76-.04-67.52-.02-101.29-.02-25.74,0-51.48-.03-77.22.05-2.39,0-4.97-.9-7.18.86.05.76.09,1.51.14,2.27.37,1.53.94,3.09-.52,4.41Z" style="fill: #474647; stroke-width: 0px;"/>
  <path d="M524.43,526.93c-.06,4.09-.11,8.17-.17,12.26-2.57,3.37-6.07,4.62-10.17,4.33-25.81-1.83-51.68.17-77.48-.98-35.56-1.58-71.15,0-106.66-1.56-27.43-1.21-54.82-.59-82.22-.97-13.62-.19-27.1-1.22-40.36-4.41-2.54-.05-4.85-.95-7.13-1.98-48.68-21.95-92.45-13.27-132.06,21.22-2.04,1.78-3.83,3.88-6.47,4.87-4.55,1.51-9.21,1.99-13.99,2-11.04.03-22.07-.37-33.09,1.09-4.33.58-9.05,1.23-13.04-1.86-2.83-7.41-.96-15.1-1.31-22.66-.26-5.6.08-11.23.16-16.84,23.69-.86,47.34-2.36,71.04-3,17.56-.47,35.12-1.83,52.69-2.6,28.16-1.23,56.31-2.91,84.48-4.12,16.66-.71,33.31-1.84,49.97-2.71,24.53-1.29,49.08-2.58,73.6-4.09,22.49-1.38,45-2.61,67.47-4.11,20.23-1.35,40.49-2.31,60.68-4.01,19.31-1.63,38.62-3.05,57.96-4.03,1.98-.1,3.93-.96,5.89-1.46.07,11.87.13,23.74.2,35.61Z" style="fill: #699321; stroke-width: 0px;"/>
  <path d="M758.47,129.35c4.01,2.94,8.97,2.6,13.47,3.74,33.72,8.58,61.32,26.23,80.67,55.39,22.36,33.68,44.32,67.65,62.76,103.71,4.54,8.88,7.57,18.29,7.91,28.46.18,5.44-1.18,10.25-4.25,14.65-2.88.55-5.07-1.3-7.53-2.19-5.99-3.76-12.67-2.96-19.24-2.94-2.72-1.67-3.86-4.56-5.45-7.1-8.5-14.83-18.29-28.85-27.07-43.5-4.31-7.86-9.43-15.22-14.14-22.83-6.03-11.76-13.88-22.43-20.5-33.83-4.9-8.25-11.19-15.3-18.44-21.55-18.85-16.59-41.42-22.24-65.84-22.36-14-.07-28.01.05-42.01-.06-3.29-.03-6.9.63-9.38-2.59-2.56-12.08-.68-24.3-1.15-36.45-.14-3.53-.64-7.3,2.02-10.37,11.67-.96,23.44.57,35.07-1.45-1.53-2.14-1.74-4.62-1.75-7.13-.07-21.95-.11-43.9.04-65.84.02-2.68-.04-5.51,2.44-7.44,1.92,2.13,1.16,4.75,1.16,7.16.06,21.97.28,43.95-.12,65.92-.11,6.21,1.88,7.74,7.71,7.43,7.86-.41,15.82-.72,23.61,1.18Z" style="fill: #dad3ee; stroke-width: 0px;"/>
  <path d="M484.79,600.55c33.3-.05,66.61-.11,99.91-.14,3.99,0,8.15.42,7.67-5.61-.83-2.68.62-4.84,1.67-7.07,21.27-45.24,67.86-72.87,117.84-69.28,23.83,1.71,45.36,10.16,64.29,24.92,2.15,1.67,4.34,3.33,4.88,6.27.04,2.02-1.19,3.34-2.59,4.52-6.22,5.25-11.63,11.34-17.49,16.96-5.93,5.7-8.43,6.3-15.65,2.79-6.96-3.38-14.25-5.64-21.78-7.22-23.55-5.92-45.36-2.43-65.12,12.06-23.93,17.56-34.84,48.24-27.4,77.09,2.22,8.58,5.71,16.69,9.55,24.66,3.82,7.91,2.38,10.38-6.41,11.73-6.27.96-12.48,2.28-18.79,2.89-4.64.45-8.69,2.27-12.35,5.07-13.34-19.53-18.21-41.46-18-64.71.09-9.71,1.21-19.39,4.18-28.71,1.47-4.6-.46-5.16-4.47-5.14-31.9.12-63.8.07-95.69.06-1.36,0-2.71-.08-4.07-.13-.49-.14-.68-.34-.57-.6.12-.28.25-.42.39-.42Z" style="fill: #5a5a5a; stroke-width: 0px;"/>
  <path d="M603.02,700.19c.8-6.83,6.8-5.89,11-6.79,7.24-1.55,14.66-2.4,22.05-3.07,5.41-.49,6.11-2.76,3.88-7.14-5.75-11.32-10.53-22.88-12.37-35.67-2.92-20.4,2.14-38.74,14.21-54.83,19.66-26.19,50.61-36.15,82.65-27.67,6.76,5.2,6.92,6.95.9,13.08-2.64,2.69-5.11,5.72-9.25,6.22-6.3,1.04-12.43-1.06-18.88-.37-37.99,4.1-61.64,47.69-40.72,81.88,20.03,32.83,64.31,36.03,88.55,6.39,1.72-2.1,3.4-4.24,5.41-6.08,14.53-8.89,27.47-19.86,39.69-31.59,6.97-6.69,13.88-13.51,20.29-20.78,1.41-1.6,1.77-3.6,2.44-5.52.7-1.99.96-4.79,4.38-3.62,4.94,11.84,6.15,24.21,5.28,36.87-2.66,10.59-9.16,18.15-17.74,24.8-20.98,16.28-42.12,32.35-65.68,44.68-27.12,14.19-55.73,24.09-86.62,25.88-3.53.2-6.55,1.61-9.79,2.54-16.5-9.77-29.97-22.6-39.7-39.23Z" style="fill: #343334; stroke-width: 0px;"/>
  <path d="M62.76,558.15c18.83-20.06,41.71-32.43,68.98-36.75,26.09-4.13,50.59.72,74.02,12.3,10.7,3.53,18.99,10.58,26.73,18.39,1.23,1.24,2.57,2.59,1.93,4.68-7.16,6.93-14.53,13.66-21.39,20.87-3.91,4.11-7.26,4.35-11.8,1.25-13.06-8.91-27.37-14.73-43.18-16.54-2.04,1.84-4.58,1.82-7.05,1.73-40.94-1.47-77.17,32.88-75.43,77.44-.05,7.77,2.74,15.06,3.84,22.62,1.55,10.69.29,12.47-10.33,14.89-8.97,2.04-18.22,3.01-26.65,7.08-9.26-18.05-11.69-37.38-10.33-57.31.68-9.97,2.75-19.73,5.98-29.21-1.47-4.14.94-7.56,2.62-10.76,5.89-11.24,10.79-23.28,22.06-30.68Z" style="fill: #5a5a5a; stroke-width: 0px;"/>
  <path d="M42.43,686.12c2.94-5.97,9.15-5.05,14.14-6.54,3.21-.96,6.65-1.09,9.96-1.74,12.54-2.48,13.38-4.02,10.41-16.71-1.53-6.55-3.77-13.03-3.15-19.94,5.68-4.67,10.86-9.88,16.18-14.95,1.57-1.49,3.28-4.89,6.35-1.63,0,7.46-.93,14.94.07,22.37.82,6.11,2.88,11.87,5.93,17.24,11.88,19.96,29.51,30.32,52.58,27.93,23.84-2.47,39.45-16.6,47.19-39.31.78-2.29.83-5.04,3.63-6.15,4.37-1.02,7.45-3.97,10.47-7,12.45-12.46,24.96-24.86,37.33-37.4,3.17-3.21,6.03-4.77,9.43-.52.96,5.76,1.33,11.71,3.03,17.24,2.15,6.99-.08,13.39-1.23,19.96-1.67,9.6-10.61,13.28-16.76,18.78-17.33,15.51-36.17,29.15-56.47,40.64-24.96,14.13-51.09,24.94-79.8,28.75-7.81,1.04-15.54,2.65-23.46,2.58-3.92-.04-5.16,2.12-5.07,5.6-18.27-12.52-32.31-28.55-40.75-49.21Z" style="fill: #403f40; stroke-width: 0px;"/>
  <path d="M821.1,642.61c.15-12.99-1.07-25.78-5.45-38.12-.77-1.26-.76-2.41.43-3.42,11.62-2.57,23.3-1.66,34.98-.59,3.04,1.41,2.44,4.1,2.01,6.49-3.17,17.41-5.32,34.93-6.28,52.62-.29,5.43-1.83,11.15-.5,16.23,5.23,20.02,17.48,36.65,40.46,22.21,10.39-6.53,19.72-14.48,28.32-23.28,7.77-7.94,15.33-16.16,24.62-22.39,2.21-1.48,5.17-5.53,7.99-.3-7.57,20.38-19.5,37.65-37.33,50.27-22.86,16.17-48.5,23.16-76.39,20.46-11.7-1.13-23.06-4.48-33.53-10.11-2.94-1.58-4.65-1.65-7.15,1.25-27.52,32-62.84,44.89-104.41,41.53-6.81-.55-13.48-2.74-20.21-4.17-2.53-4.86,1.59-5.46,4.39-6.22,4.36-1.18,8.91-1.54,13.35-2.49,31.19-6.67,58.44-21.91,84.79-39.01,10.84-7.03,20.89-15.21,31.16-23.06,7.19-5.5,11.92-12.2,14.23-20.9,1.5-5.66,2.51-11.47,4.52-16.99Z" style="fill: #292829; stroke-width: 0px;"/>
  <path d="M947.68,652.05c-1.97-2.26-3.61-.82-5.23.49-4.72,3.83-9.75,7.35-14.08,11.58-12.13,11.83-23.71,24.23-37.89,33.77-4.57,3.08-9.32,5.86-14.62,6.89-8.18,1.58-15.33-.07-21.12-7.22-9.38-11.59-12.29-23.89-9.71-38.79,1.9-10.97,1.41-22.43,3.31-33.56,1.32-7.75,2.71-15.48,4.07-23.23,2.4-2.78,5.72-2.38,8.81-2.39,27.75-.08,55.51-.11,83.26.03,3.85.02,8.53-.83,9.74,4.84.8,16.27.37,32.37-6.53,47.58Z" style="fill: #343234; stroke-width: 0px;"/>
  <path d="M802.55,574.49c13.36.01,26.8.96,40.06-.17,21.78-1.86,43.63-1.54,65.43-3.2,12.73-.97,26.13-.38,39.1,1.31,6.83.89,13.44,1.1,20.08-.66,5.91-1.57,10.03-7.14,10.5-13.27.54-7.06-1.27-13.9-1.35-20.88,12.02,2.89,22.46-.85,32.21-7.6.94-.65,2.02-.95,3.19-.65,2.49,2.86,1.49,6.61,2.49,9.85,2.6,3.96,6.28,5.49,10.99,5.39,9.98-.21,19.96-.16,29.94-.21,4.1-.57,8.2-1.07,12.26.27-.23,7.88.77,15.75-1.07,23.64-4.46,19.08-19.53,32.79-39.22,33.31-23.32.62-46.68.02-70.02-.06-.99-.96-2.08-1.76-3.45-2.05-20.7-4.46-41.08-9.75-62.79-8.52-26.36,1.5-52.84,1.32-79.25-.09-4.72-4.52-8.98-9.32-9.12-16.4Z" style="fill: #c0a8d8; stroke-width: 0px;"/>
  <path d="M726.1,47.66c.03,24.83.07,49.66.06,74.49,0,1.99.5,4.08-.78,5.92-22.65-.05-45.3-.22-67.95-.08-5.38.03-6.89-1.11-5.95-7.02,2.21-13.97,3.36-28.1,4.89-42.18,2.24-20.55,4.38-41.11,6.72-61.65.6-5.3-2.33-12.61,3.88-15.17,4.87-2.01,11.15-.58,16.81-.68,22.29,2.13,40.41,21.99,42.32,46.36Z" style="fill: #465b26; stroke-width: 0px;"/>
  <path d="M949.19,187.84c3.11,1.6,5.45,4.18,7.2,6.99,16.24,26.23,32.32,52.56,48.44,78.86-3.99,2.44-6.45,6.14-8.84,10.06-5.68,9.31-8.94,9.5-17.85,2.96-11.1-8.14-19.07-19.3-28.82-28.72-11.7-16.11-21.86-33.22-32.21-50.2-3.67-6.02-2.6-9.78,2.97-14.11,5.16-4.01,11.12-6.32,17.66-5.66,3.89.39,7.64.13,11.45-.17Z" style="fill: #62b1fb; stroke-width: 0px;"/>
  <path d="M949.19,187.84c-2.59,2.85-5.73,3.16-9.3,2.26-7.16-1.79-13.27.89-18.94,4.9-4.59,3.24-5.71,7.13-2.43,12.19,5.15,7.95,9.91,16.16,14.99,24.15,5.57,8.75,11.33,17.39,17.01,26.08,11.88,17.38,20.68,36.52,31.16,54.69,7.45,12.9,14.47,26.05,21.59,39.14,1.14,5.9,5.67,10.84,4.9,17.28-5.08,1.83-6.64-2.77-8.81-5.34-9.06-10.71-17.2-22.15-25.05-33.77-4.04-5.99-7.96-12.07-12.74-17.52-15.55-36.4-39.84-67.7-59.35-101.8-2.35-4.12-5.02-8.05-7.59-12.04-6.66-10.36-5.34-15.43,5.48-20.95,7.21-4.05,14.97-2.06,22.46-1.68,6,.3,12.19,1.09,17.01,5.52,3.1,2.43,7.1,3.62,9.61,6.89Z" style="fill: #4b74d1; stroke-width: 0px;"/>
  <path d="M1002.24,351.26c-7.94-10.18-12.78-22.17-19.22-33.22-10.54-18.09-20.32-36.62-30.36-55-.95-1.75-1.45-3.74-2.15-5.62,7.75,5.37,12.05,14.06,19.27,19.94,4.37,3.55,8.81,7.03,13.13,10.64,3.94,3.28,7.01,2.32,9.53-1.72,1.8-2.88,3.52-5.79,5.25-8.71,1.61-2.73,3.67-4.58,7.13-3.87,16.11,22.45,25.32,47.53,28.62,74.87-7.29,13.97-22.31,15.27-31.2,2.69Z" style="fill: #399cfb; stroke-width: 0px;"/>
  <path d="M821.1,642.61c.07,21.14-10.69,35.36-27.45,47.34-22.28,15.93-45.09,30.73-69.97,42.16-15.21,6.99-31.14,11.79-47.8,14.05-3.04.41-7.3-.05-7.22,5.12-9.07-3.03-18.02-6.32-25.94-11.87,1.42-2.94,3.66-4.17,7.02-4.3,27.43-1.07,53.03-8.98,77.78-20.45,30.32-14.05,56.31-34.51,82.53-54.72,5.98-4.61,7.23-11.67,11.06-17.34Z" style="fill: #343234; stroke-width: 0px;"/>
  <path d="M1002.24,351.26c2.69,1.57,5.25,3.43,8.09,4.67,8.76,3.84,12.43,2.97,19.06-3.91,1.22-1.27,2.7-2.3,4.06-3.44,4.5,10.5,10.76,19.52,19.98,26.67,6.19,4.8,7.34,12.67,9,19.95,1.08,4.14-1.39,5.83-4.79,6.55-4.24.89-8.53.8-12.55-.93-3.03-1.31-5.96-1.71-9.07-.63-3.21-.2-6.43-.41-9.64-.61-1.79,0-3.81.41-4.82-1.61-4.54-9.12-10.06-17.73-14.27-27.03-.28-.61-.04-1.33.26-1.96-.7-6.22-5.31-11.26-5.29-17.69Z" style="fill: #198cfa; stroke-width: 0px;"/>
  <path d="M810.68,589.43c25.39.03,50.91,1.68,76.12-.41,22.66-1.88,43.73,4.12,65.42,7.39,2.84.43,5.38,1.43,4.93,5.15-2-.05-2.56,1.35-2.95,2.92-1.07-1.91-2.52-2.72-4.88-2.71-32.31.14-64.62.17-96.93.22-12.25-.07-24.49-.15-36.74-.22-3.7-3.29-6.16-7.08-4.98-12.34Z" style="fill: #a981c5; stroke-width: 0px;"/>
  <path d="M62.76,558.15c-10.76,12.31-19.31,25.93-24.68,41.45-19.4-6.05-32.46-18.08-36.48-38.65,20.35-1.66,40.84-.4,61.16-2.8Z" style="fill: #4e632e; stroke-width: 0px;"/>
  <path d="M1011.67,456.1c.31-10.38,3.55-13.56,13.95-13.58,13.96-.03,27.92-.03,41.88-.04-.59,3.86,1.29,7.4,1.43,11.16,2.68,4.64,1.84,8.84-1.58,12.73-4.8,2.44-10.01,2.72-15.23,2.68-9.73-.07-19.47.42-29.2-.3-2.8-.41-4.91-1.93-6.58-4.14-1.29-2.98-5.29-4.48-4.69-8.51Z" style="fill: #e5e4f4; stroke-width: 0px;"/>
  <path d="M1067.43,466c.48-4.12,1.97-8.12,1.52-12.36,26.42,17.38,26.28,55.7,5.87,74.79-1.82,1.7-3.59,3.46-6.05,4.23-3.49-3.64-3.1-8.25-3.2-12.74-.16-4.84-.17-9.69,0-14.53.85-8.32.84-16.65,0-24.97.28-4.85-1.36-9.95,1.86-14.42Z" style="fill: #fd9f36; stroke-width: 0px;"/>
  <path d="M939.57,180.96c-12.84-4.55-26.19-3.84-39.47-3.85-4.56-8.34-11.68-14.68-17.36-22.15-6.68-8.78-14.43-16.49-23.53-22.79,13.59.93,25.53,7.04,37.41,12.74,14.51,6.96,26.92,17.09,37.84,28.97,2,2.18,3.9,4.36,5.12,7.07Z" style="fill: #dad3ee; stroke-width: 0px;"/>
  <path d="M1036,400.17c6.34-2.47,12.73.38,19.1-.18,3.41-.3,6.9-.13,7.31-4.81,1.83,5.17,3.96,10.26,3.84,15.89-.01,8.35-.15,16.71.02,25.06.08,3.83-1.38,5.16-5.16,5.07-23.54-.6-19.09,3.24-19.39-18.34-.08-6.03-.68-12.09.84-18.17,1.55-6.18-3.95-3.59-6.58-4.51Z" style="fill: #b28fcc; stroke-width: 0px;"/>
  <path d="M1067.26,520.19c.5,4.16,1,8.31,1.51,12.47-2.58,4.05-6.41,5.19-11,5.15-12.16-.11-24.32-.08-36.49,0-2.38.01-5.02-.81-7,1.4-4.04-2.21-2.2-6.09-2.67-9.32.43-6.4,5.33-8.82,10.11-11.38,13.32-1.15,26.66-.45,39.99-.43,2.06,0,4.05.49,5.55,2.11Z" style="fill: #ded9f0; stroke-width: 0px;"/>
  <path d="M484.79,600.55c.04.34.1.68.18,1.02-24.98.06-49.97.12-74.95.2-3.15,0-6.3.14-9.44.21,1.49-2.63,4.04-1.53,6.11-1.54,26.03-.03,52.07.05,78.1.11Z" style="fill: #839467; stroke-width: 0px;"/>
  <path d="M400.19,608.66c.17-1.47.35-2.94.52-4.41,1.71,7.4,1.96,14.8-.01,22.2-.17-5.93-.34-11.86-.51-17.79Z" style="fill: #8a8a8a; stroke-width: 0px;"/>
  <path d="M1067.47,544.66c-4.09-.09-8.17-.18-12.26-.27,4.13-1.66,8.23-2.21,12.26.27Z" style="fill: #ded9f0; stroke-width: 0px;"/>
  <path d="M780.45,549.48c-16.42-15.14-35.89-24.41-57.74-27.76-43.61-6.69-80.21,7.16-109.71,39.79-8.86,9.8-14.98,21.43-20.63,33.29-10.19-6.21-14.75-15.51-14.89-27.22-.1-8.54-.2-17.08-.29-25.61.17-4.16.33-8.32.5-12.48,8.71-3.4,18.07-3.74,27.09-5.62,27.06-5.66,52.79-14.6,76.6-28.81,4.65-2.77,8.32-5.84,8.58-12.02.31-7.25,2.08-8.87,9.58-9.6,6.99-.68,13.36-2.48,18.4-7.62,2.41-2.47,4.96-5.22,3.74-8.91-1.32-4-5.26-2.85-8.22-2.87-23.79-.12-47.58-.04-71.37-.08-4.75,0-10.02.5-12.33-4.97-2.49-5.91-.31-11.02,3.8-15.54,5.07-5.57,11.46-7.88,18.84-7.85,9.74.04,19.49.23,29.08-2.03,7.31-1.72,11.81-13.28,7.53-19.49-1.38-2-3.59-1.48-5.53-1.91-2.51-.55-6.3,1.05-6.59-3.61,2.1-1.71,4.61-1.51,7.07-1.59,5.51-.27,11.02-.21,16.53-.03,15.82-.82,31.57.96,47.34,1.21,38.44.62,76.89.2,115.34.21,3.39,0,6.79-.21,10.15.32.62.19,1.52.25,1.77.77,3.27,6.87,8.33,12.68,11.49,19.61,6.86,5.9,11.94,13.23,17.01,20.63,2.16,3.16,3.64,6.18,3.3,9.99-.91,10.07-.89,20.34-3,30.15-2.23,10.33.88,19.56,2.69,29.22,1.26,6.71,5.2,13.34,1.54,20.39-3.68,7.07-7.82,13.26-16.28,16.04-14.51,4.77-29.37,6.26-44.44,7.36-16.36,1.2-32.6,3.78-49.04,4.23-2.35.06-4.66,1.59-6.99,2.43-5.32-1.51-8.17-5.7-10.9-10.03Z" style="fill: #dad3ee; stroke-width: 0px;"/>
  <path d="M676.7,399.23c1.71,1.57,3.84,1.12,5.84,1.15,9.97.11,9.2-1.31,9.24,9.74,0,.68,0,1.36,0,2.04,0,11.24-1.08,12.18-12.39,14.02-9.23,1.5-18.48,1.37-27.74,1.25-7.92-.1-13.95,3.29-18.67,9.34-2.89,3.69-3.49,8.02-1.65,12.18,1.7,3.84,5.65,3.06,9.01,3.06,25.4,0,50.81-.02,76.21.04,2.59,0,5.86-1.03,7.3,2.14,1.5,3.31.82,6.82-1.35,9.66-5.36,7.02-12.38,11.06-21.41,11.34-8.58.27-9.38.91-9.21,9.35.09,4.45-1.7,7.3-5.21,9.52-25.15,15.86-52.49,26.02-81.64,31.54-9.06,1.72-17.93,4.66-27.34,3.9-.06-20.18-.17-40.36-.18-60.55-.03-97.75-.04-195.49-.05-293.24,0-26.27,18.73-45.94,44.83-46.34,22.67-.34,45.35.08,68.02.16.04,15.84.09,31.68.13,47.52-2.36,2.37-5.49,1.78-8.35,2.08-24.48,2.51-41.41,14.59-49.2,38.47-1.51,4.62-1.79,9.3-1.78,14.08.02,37.4.1,74.8-.02,112.2-.06,18.05,7.09,32.43,21.04,43.61,5.3,4.47,11.31,7.51,18.12,8.91,2.22.79,4.92.49,6.46,2.83Z" style="fill: #fdfdfd; stroke-width: 0px;"/>
  <path d="M780.45,549.48c3.63,3.34,7.27,6.69,10.9,10.03,3.74,4.99,7.47,9.99,11.21,14.98,2.71,4.98,5.42,9.96,8.13,14.94,1.66,4.11,3.32,8.23,4.98,12.34,0,.91,0,1.81-.01,2.72-1.65,10.59-9.92,16.18-16.69,23.2-8.12,8.42-16.58,16.39-25.57,23.83-6.92,5.74-13.95,11.32-22,15.44-1.53-3.18.74-5.61,1.67-8.29,6.03-17.37,5.5-34.12-4.6-49.99-7.02-10.36-16.44-17.68-28.08-22.23-1.81-.71-4.04-1.03-4.48-3.54,5.42-1.26,8.17-5.92,11.48-9.6,3.42-3.8-2.02-5.47-2.93-8.31,8.12,1.78,16.02,4.19,23.36,8.22,2.9,1.59,6.05,2.33,8.74-.28,8.03-7.76,15.94-15.64,23.9-23.48Z" style="fill: #4a494a; stroke-width: 0px;"/>
  <path d="M886.56,419.07c-6.2-4.86-10.14-11.05-11.13-18.97-.47-.56-.76-1.21-.86-1.94-.01-1.12.33-2.11,1.1-2.94,2.19-2.07,4.88-3.26,7.68-4.19,9.22-3.07,15.3-9.03,18.32-18.45,2.98-9.31,4.8-18.81,6.3-28.44.66-4.26-.11-9.26,4.4-12.21,2.22,1.12,4.44,2.25,6.66,3.37,8.39,7.82,10.85,17.65,10.33,28.77-.43,9.02-.54,18.09-.12,27.11.99,21.18-22.04,38.57-42.67,27.89Z" style="fill: #302f30; stroke-width: 0px;"/>
  <path d="M1020.22,520.06c-2.87,3.27-5.73,6.55-8.6,9.82-6.39,4.69-13.11,8.6-21.1,10.04-5.08.91-9.85,1.08-14.13-2.31-2.97-4.63-6.25-9.11-6.91-14.81.47-1.97,2.11-2.9,3.6-3.89,14.44-9.52,24.55-22.65,31.92-38.1,2.15-4.5,4.39-8.97,6.77-13.35,1.09-2.01,1.72-4.97,5.18-4.28,1.37,1.3,2.74,2.6,4.11,3.89,4.45,3.68,5.76,8.96,7.25,14.16,1.58,7.69,2.4,15.38.09,23.08-1.82,5.71-3.18,11.68-8.17,15.75Z" style="fill: #fc9c35; stroke-width: 0px;"/>
  <path d="M1016.94,463.18c-2.68,1.05-3.06,3.77-4.19,5.9-6.41,12.16-11.79,24.82-20.96,35.47-6.46,7.5-13.85,13.43-22.32,18.26-2.51-5.65-2.64-11.68-2.8-17.71-1.38-3.31-.17-6.11,1.6-8.89,8.9-13.94,18.07-27.71,27.35-41.41,1.5-2.22,2.56-5.72,6.6-4.25,3.67.98,6.28,3.74,9.45,5.56,1.26,2.73,4.78,3.77,5.26,7.07Z" style="fill: #fbde6c; stroke-width: 0px;"/>
  <path d="M1007.53,368.95c4.99,9.17,10.14,18.26,14.85,27.58,1.01,2.01,2.6,2.13,3.98,3.03-4.05.14-8.1.47-12.14.37-4.88-.12-8.51-2.36-10.73-6.91-3.92-8.03-9.68-14.47-16.66-20.13-10.18-8.27-16.04-19.49-18.46-32.21-1.85-9.71-3.86-19.34-6.82-28.77,2.97,1.3,5.23,3.18,7.06,6.03,9.79,15.19,20.36,29.84,31.58,44,2.08,2.63,4.87,4.69,7.33,7.01Z" style="fill: #2e60c8; stroke-width: 0px;"/>
  <path d="M1002.22,450.54c-2.49.1-3.28,2.27-4.35,3.86-10.02,14.92-19.93,29.93-29.95,44.85-1.26,1.87-.92,3.88-1.25,5.84-2.34-3.76-1.1-7.92-1.18-11.88-.22-10.62,1.39-21.08,4.2-31.29,3.94-14.31,9.19-17.7,23.36-15.21,3.25.57,6.67,1.24,9.17,3.84Z" style="fill: #fceda9; stroke-width: 0px;"/>
  <path d="M234.42,556.77c-7.57-10.15-18.56-16.06-28.66-23.07,37.46,7.09,75.36,2.36,112.99,4.4,14.94.81,29.83.69,44.74.97,15.79.3,31.64-.77,47.36.24,32.14,2.08,64.29.44,96.42,1.37,5.85.17,11.52,1.3,17-1.5-.24,7.88,1.31,15.86-1.26,23.59-3.6,10.85-8.63,14.48-19.88,14.48-13.15,0-26.29.06-39.44,0-53.67-.27-107.31,1.88-160.99,1.72-13.42-.04-26.98.27-40.46.99-6.13.33-10.76-2.05-14.22-7.37-3.8-5.84-7.67-11.75-13.6-15.83Z" style="fill: #678a2d; stroke-width: 0px;"/>
  <path d="M101.31,665.66c-8.42-13.13-8.49-27.44-5.98-42.12-.81-7.36,3.29-12.9,7.18-18.34,10.21-14.27,23.78-23.06,41.59-24.59,1.56-.13,3.15-.5,4.48.74,13.95.98,26.57,5.26,37.49,14.33,3.52,2.92,6.03,6.56,8.93,9.95,1.67,3.3-.24,5.75-2.21,7.89-16.6,18.07-34.19,34.9-57.13,44.97-9.19,4.04-18.85,6.27-28.62,8.2-2.04.4-4.05.61-5.73-1.03Z" style="fill: #f4fafe; stroke-width: 0px;"/>
  <path d="M101.31,665.66c22.47-2.1,42.13-11.22,60.07-24.39,11.37-8.35,20.32-19.31,30.42-29.02,1.83-1.76,2.83-4.07,3.19-6.61,8.13,9.77,10.8,21.28,10.75,33.66,0,2.46-.03,4.93-.05,7.39-3.37,12.73-8.81,24.24-18.92,33.18-29.06,25.69-70.48,14.55-85.47-14.2Z" style="fill: #d4c9e8; stroke-width: 0px;"/>
  <path d="M148.59,581.35c-17.95,1.68-32.88,8.97-44,23.5-4.33,5.65-6.78,12.16-9.25,18.69-4.53,4.35-9.09,8.67-13.57,13.08-2.28,2.24-4.6,4.3-7.98,4.56-1.31-39.31,25.2-71.95,65.32-78.54,6.16-1.01,12.62-.24,18.94-.3,1.38,3.22.94,5.75-1.94,8.23-3.35,2.88-7.04,5.78-7.52,10.78Z" style="fill: #282828; stroke-width: 0px;"/>
  <path d="M699.94,398.99c-5.44-.01-10.89-.03-16.33-.04-3.38-2.78-4.06-6.94-5.29-10.75-2.55-7.92-5.52-15.75-6.23-24.16.39-18.26,1.54-36.46,4.55-54.49,2.66-4.29,3.91-1.03,4.74,1.14,2.03,5.28,2.77,10.96,4.75,16.28,2.69,7.22,4.21,7.65,9.61,2.27,28.35-28.3,56.69-56.61,84.97-84.98,5.31-5.33,4.74-7.42-2.45-9.48-5.44-1.56-11.05-2.51-16.41-4.3-1.93-.64-5.9-1.25-1.76-4.58,7.32-3.16,15.17-1.53,22.73-2.53,12.95-1.72,26.03-2.03,39.06-2.77,1.63-.09,3.11.39,4.43,1.37,6.81,11.34,14.71,22.04,20.46,34.02-5.77,1.95-9.83,6.15-13.99,10.32-42.77,42.86-85.63,85.63-128.4,128.5-1.44,1.45-3.06,2.69-4.45,4.19Z" style="fill: #5daffc; stroke-width: 0px;"/>
  <path d="M826.32,221.96c-22.59,1.8-45.19,3.61-67.78,5.41-2.53,2.37-5.48,1.39-8.37,1.07-17.96-1.97-35.82-4.82-53.86-6.04-13.96-.94-25.29,11.59-23.72,25.28,2.01,17.51,4.51,34.95,6.95,52.4.38,2.7.79,5.43-1.39,7.68-1.39,19.05-4.23,38-4.07,57.16-.95,6.91.54,13.9-.74,20.81-.78,4.18-.4,8.65-3.43,12.18-6.9-.75-12.62-4.01-17.82-8.38-.82-23.51-3.15-46.93-4.71-70.39-1.33-20.08-2.24-40.19-3.53-60.28-.71-11.15-2.15-22.45,3.52-33.27,10.5-20.04,26.92-30.14,49.26-30.13,24.89.01,49.69,2.27,74.53,3.62,12.64.69,25.26,1.82,37.93,2.18,7.13,5.74,12.64,12.83,17.23,20.7Z" style="fill: #6e9ce8; stroke-width: 0px;"/>
  <path d="M860.73,279.05c9.76,14.1,19.09,28.48,27.42,43.48-5.46,2.5-9.48,6.77-13.58,10.95-21.25,21.68-43.36,42.51-64.05,64.75-.64.69-1.47,1.03-2.35,1.31-21.52.09-43.04.04-64.56,0-1.89,0-4.49,1.1-5.55-1.15-1.08-2.31.83-4.23,2.2-6.02.55-.72,1.19-1.36,1.83-2,36.01-36.06,72.04-72.11,108.15-108.09,2.82-2.81,5.72-6.32,10.49-3.22Z" style="fill: #44a3fc; stroke-width: 0px;"/>
  <path d="M809.09,201.26c-5.22,3.38-11.27,2.24-16.43,1.26-9.43-1.8-18.95-1.28-28.32-1.9-12.8-.85-25.69-1.74-38.58-2.07-10.14-.26-20.28-1.05-30.46-1.15-21.78-.21-42.01,14-49.06,35.95-2.54,7.92-1.71,16.87-.41,24.99,1.77,11.03,1.26,22.1,1.94,33.08,1.13,18,2.6,36.01,3.34,54.06.51,12.36,2.67,24.66,2.5,37.09-.03,2.38.88,5.07-1.53,6.97-14.28-9.66-22.5-23.43-22.79-40.3-.71-40.82-.47-81.66-.12-122.48.19-22.41,22.4-45.86,45.01-48.46,5.39-.62,10.83-.83,16.24-1.23,18.12.1,36.25.08,54.37.32,15.28.2,30.16,2.47,43.98,9.58,7.45,3.83,14.12,8.73,20.31,14.33Z" style="fill: #4d6ec8; stroke-width: 0px;"/>
  <path d="M860.73,279.05c-3.41-.35-5.94,1.01-8.37,3.45-36.45,36.58-72.99,73.07-109.49,109.61-1.69,1.7-3.94,3.16-3.59,6.62h69.76c2.41-1.41,5.01-1.98,7.79-1.99,17.19-.03,34.39-.09,51.58.04,2.49.02,5.01.13,6.98,2.04.22.42.24.84.04,1.28-58.5.11-117,.21-175.49-1.1-.03-2.9,2.24-4.33,3.97-6.05,44.25-44.28,88.54-88.52,132.73-132.87,2.96-2.97,5.94-4.74,10.14-4.09,5.01,7.47,10.58,14.6,13.95,23.07Z" style="fill: #5badfb; stroke-width: 0px;"/>
  <path d="M875.39,398.82c-22.12-.03-44.24-.06-66.35-.09.98-2.87,2.94-5.01,5.04-7.1,21.6-21.55,43.2-43.1,64.69-64.75,2.69-2.71,5.37-4.77,9.37-4.34,1.29,2.24,2.58,4.47,3.87,6.71-.45,2.24-2.26,3.29-3.94,4.42-7.43,4.99-10.4,12.24-10.49,20.88-.12,10.85,0,21.69-.06,32.54-.02,3.14.36,6.38-1.72,9.14-.14.87-.28,1.74-.42,2.61Z" style="fill: #2c97fb; stroke-width: 0px;"/>
  <path d="M875.81,396.21c-.06-14.95-.41-29.9-.08-44.84.24-10.88,6.56-17.91,16.29-22.13,7.07-1.25,14.06-1.92,20.36,2.68-3.62,10.68-3.66,22.03-6.42,32.94-3.55,14.03-9.37,25.24-24.74,28.8-1.9.44-3.61,1.68-5.4,2.56Z" style="fill: #595959; stroke-width: 0px;"/>
  <path d="M715.89,582.93c13.25,4.99,25.28,11.68,33.25,23.99,1.75,3.35.48,6.24-1.71,8.7-22.67,25.44-48.18,46.39-83.12,52.39-3.13.54-6.25,1.39-9.05-.96-11.93-19.66-11.63-39.83.39-58.74,12.13-19.06,30.31-28.33,53.49-25.98,2.25.23,4.5.4,6.75.59Z" style="fill: #f4fafe; stroke-width: 0px;"/>
  <path d="M655.26,667.05c19.67-1.01,36.97-8.52,53.46-18.81,14.4-8.99,25.3-21.69,37.23-33.33,2.19-2.13,3.1-4.94,3.19-7.99,12,17.28,12.43,35.58,4.78,54.58-.75,1.86-1.68,3.66-2.53,5.48-12.41,17.9-29.03,28.42-51.27,27.18-19.42-1.09-34.85-9.88-44.86-27.1Z" style="fill: #d1c5e6; stroke-width: 0px;"/>
  <path d="M1026.71,480.61c-1.89-4.51-3.78-9.03-5.66-13.54,15.46-.36,30.94.31,46.38-1.07-.05,4.89-.11,9.78-.16,14.66-1.5,1.6-3.5,1.94-5.52,1.99-9.83.24-19.66.25-29.49,0-2.05-.05-3.98-.58-5.54-2.03Z" style="fill: #bfa6d7; stroke-width: 0px;"/>
  <path d="M1026.71,480.61c13.52.01,27.04.03,40.55.04,1.34,8.16,1.54,16.31,0,24.47-1.14,1.25-2.64,1.81-4.25,1.88-10.65.48-21.31.45-31.96.02-1.6-.06-3.13-.56-4.28-1.81,1.29-8.2,1.39-16.41-.05-24.61Z" style="fill: #dfdbf1; stroke-width: 0px;"/>
  <path d="M1026.76,505.22c13.5-.03,27-.06,40.5-.1,0,5.02,0,10.04,0,15.07-15.68-.04-31.37-.08-47.05-.13,2.18-4.95,4.37-9.9,6.55-14.84Z" style="fill: #bb9fd3; stroke-width: 0px;"/>
  <path d="M669.91,397.9c1.63-10.97,1.26-22.19,4.18-32.99,1.28,11.88,6.63,22.62,9.53,34.04-2.3.09-4.61.18-6.91.27-2.2-.76-4.85.8-6.79-1.32Z" style="fill: #5badfb; stroke-width: 0px;"/>
  <path d="M678.16,307.76c-1.59-12.27-3.21-24.53-4.74-36.81-1.2-9.6-2.7-19.19-3.3-28.83-.63-10.04,14.55-22.5,24.67-21.8,21.36,1.47,42.45,5.14,63.75,7.06,6.75,3.23,14.22,3.9,21.29,5.97,8.35,2.45,9.05,5.16,2.88,11.33-29.15,29.16-58.3,58.32-87.46,87.46-5.07,5.06-7.1,4.58-9.9-2.02-3.08-7.24-3.18-15.43-7.19-22.37Z" style="fill: #89c4fc; stroke-width: 0px;"/>
</svg>