<?xml version="1.0" encoding="UTF-8"?>
<svg id="Layer_1" data-name="Layer 1" xmlns="http://www.w3.org/2000/svg" viewBox="0 0 1283.27 1166.06">
  <path d="M1106.08,925.03c-16.64,25.1-35.84,48.08-57.18,69.3-4.75,1.75-9.59.49-14.3.05-25.28-2.38-50.66-2.28-75.97-2.57-30.8-.34-61.17,3.98-90.8,13.4-11.74,3.73-23.1,6.77-33.1,14.89-9.08,7.38-20.71,10.86-32.28,13.43-8.88,1.97-17.28,5.57-26.23,7.44-14.26,2.98-28.81,1.12-43.13,3.32-17.75,2.72-35.56,2.95-53.47.38-10.65-1.53-21.34.32-31.81,2.83-3.39.81-6.83,1.88-10.28.84-20.12-6.07-41.17-6.24-61.71-9.6-9.41-1.54-17.33-5.22-24.75-10.52-4-2.85-8.14-5.06-12.86-6.29-9.41-2.46-17.85-7.03-26.26-11.78-23.48-13.26-48.55-23.58-71.09-38.61-4.87-3.25-10.45-4.37-16.48-5.25-15.75-2.31-28.82-10.71-40.21-21.67-1.16-1.11-1.79-2.84-.88-4.43,1.17-2.04,3.16-1.66,4.98-1.1,5.36,1.64,9.48,6.04,17,7.28-29.44-19.62-57.19-38.7-85.24-60.1,2.4,6,1.59,7.96-3.26,6-2.51-1.02-4.41-2.98-6.52-4.62-12.33-9.63-23.22-21.73-36.75-29.01-17.48-9.39-33.67-20.64-50.73-30.57-5.8-3.37-11.91-6.26-18.71-6.79-4.93-.39-8.24-3.49-12-5.99-1.54-1.02-3.41-2.33-5.19-1.29-2.13,1.25-.66,3.39-.31,5.08,1.35,6.39,4.48,11.98,8.03,17.37,1.88,2.85,4.55,5.44,3.4,9.4-6,2.24-7.82-3.23-10.45-6.23-8.48-9.68-17.18-19.09-27.42-26.93-3.31-2.53-7.08-6.71-11.3-4.25-4.62,2.69-2.45,8.31-1.95,12.59.93,8.01,4.12,15.48,6.74,23.06.95,2.73,2.65,5.38.98,8.42-3.95,1.64-4.32-2.06-5.58-3.99-4.24-6.49-7.82-13.38-11.83-20.02-3.4-5.64-7.58-7.9-13.89-5.77-12.78-26.49-22.13-54.15-28.68-82.81-10.72-46.93-18.28-94.21-17.47-142.56,1.11-66.11,11.36-130.53,34.96-192.55.75-1.96,1.03-4.1,1.52-6.16,2.03-11.95,7.87-22.5,12.43-33.5,3.66-8.84,8.38-17.22,12.73-25.75,1.17-2.3,2.06-5.03,5.21-5.54,3.23,2.79,1.37,5.94.34,8.78-1.81,5-3.64,9.99-5.14,15.1-2.38,8.12,6.61,22.05,15.09,23.13.81.1,1.75.23,2.21-.41,5.36-7.54,8.09-1.3,11.41,2.1,5.95,6.1,12.55,11.26,19.74,15.96,8.86,5.8,15.88,14.02,24.24,20.57,2.29,1.8,4.3,3.97,6.78,5.54,8.42,10.1,20.54,15.87,29.63,25.3,3.95,4.1,11.13,4.31,13.67,11.07,1.03,2.75,4.19-.34,6.4-.64,3.74-.12,6.35,2.5,9.44,3.94,7.37,3.45,9.68,2.8,13.34-4.32,5.36-10.41,10.41-20.99,15.81-31.38,2.46-4.74,5.19-9.37,9.42-12.76,2.2-1.76,4.78-4.08,7.31-.18.42,7.71-3.69,14.33-5.22,21.59-3.1,14.78-4.33,29.51-2.15,44.48.27,1.86.23,3.72-.22,5.56-3.37,5.61-3.08,11.88-2.52,17.93,4.01,43.17,23.44,76.36,63.88,94.69,34.48,15.63,76.26,6.05,100.81-17.36,2.45-3.11,6.24-3.98,9.54-5.61,9.09-4.51,17.95-9.32,25.79-15.89,2.31-1.94,4.57-4.72,8.33-3.81,2.65,4.41-.33,7.68-2.43,10.94-9.17,14.19-20.85,26.39-31.41,39.48-6.86,8.5-13.8,16.99-14.79,28.74-.39,4.59.51,7.74,4.4,10.16,40.39,25.21,77.67,54.83,116.44,82.33,34.64,24.57,70.71,46.98,106.63,69.64,21.07,13.29,42.78,25.15,65.08,36.09,16.9,8.29,34.95,13.14,53.03,17.88,8,2.1,16.24,3.1,24.18,5.61,4.5,1.42,9.34,2.29,14.2.74,2.33-.75,4.9-1.18,5.59,2.37-.43,3.57-3.14,5.43-5.61,7.47-50.93,42.05-109.41,66.93-174.84,74.08-90.7,9.91-173.3-12.37-245.7-68.2-64.74-49.93-105-115.93-122.68-195.71-1.22-5.48-1.97-11.08-3.42-16.5-2.63-9.78-12.55-15.97-22.18-14.02-10.04,2.03-17.67,11.9-15.97,21.82,6.78,39.56,18.9,77.38,37.86,112.87,12.77,23.9,27.56,46.44,45.04,67.2,30.14,35.78,65.63,65.09,106.64,87.53,35.21,19.27,72.51,32.92,112.12,40.11,60.84,11.04,120.82,7.95,179.99-10.22,48.22-14.81,91.6-38.5,130.2-70.89,8.38-7.03,16.76-14.13,24.43-22.01,2.19-2.25,4.23-5.89,8.55-3.78.64,10.67.66,10.61,11.9,13.9,10.57,3.09,21.13,5.61,32.28,3.04,4.2-.97,8.52-.06,12.69.95,40.17,9.77,80.73,17.86,120.86,27.8,4.67,1.16,10.3,1.74,11.06,8.37Z" style="fill: #c71e26; stroke-width: 0px;"/>
  <path d="M197.41,846.22c-.5-3.31-2.34-5.84-4.45-8.34-5.99-7.09-7.37-16.31-10.97-24.51-.74-1.68.5-3.15,2.58-2.86,2.1.3,4.35.49,6.21,1.4,21.96,10.7,45.35,18.59,64.48,34.82,6.96,5.91,17.21,6.9,24.8,12.5,1.48,1.09,3.61,1.67,4.52,3.08,8.72,13.51,24.55,18.49,35.79,31.62.15-5.72-4.19-6.64-4.85-10.66,12.86,5.29,23.91,12.78,33.36,21.73,5.33,5.05,11.3,8.76,17.18,12.41,13.17,8.16,25.44,17.58,38.41,25.97,2.13,1.38,5.91,2.5,4.22,5.68-1.63,3.07-4.04-.52-6.16-.85-6.64-1.02-11.01-7.29-20.23-8.38,9.16,9.89,18.83,15.17,28.68,20.56,9.88,5.41,21.95,1.94,31.31,9.16,8.83,6.81,18.63,12.32,28.8,16.85,25.01,11.14,47.07,28.43,74.14,35.33,3.33.85,6.16,3.99,9.02,6.32,11.78,9.59,26.52,8.2,40.13,11.04,14.22,2.97,29.16,1.44,42.97,7.14,5.67,2.34,10.89-1.4,16.26-2.42,13.57-2.58,27.05-1.57,40.53.11,14.37,1.79,28.67-.1,42.71-2.07,12.47-1.75,25.06.43,37.38-2.72,13.88-3.55,27.62-7.49,41.21-12.03,10.74-3.59,19.8-9.61,28.79-16.49,9.19-7.03,21.65-6.34,32.5-9.69,22.69-7.02,45.92-9.73,69.86-10.62,26.32-.98,52.45,1.64,78.7.95,7.69-.2,15.95.45,23.61,3.08-18.83,20.68-40.11,38.67-62.2,55.68-29.56,22.77-61.32,42.16-94.84,58.48-44.99,21.9-92.16,37.76-141.25,47.34-17.61,3.44-35.4,6.9-53.52,7-4.28,1.68-8.91-.38-13.2,1.25-2.95.12-5.9.24-8.85.36-4.98,1.47-10.15-.02-15.17.95-11.86.87-23.72.93-35.58-.04-3.94-.79-8.02.4-11.93-.89-5.13.24-10.26.41-15.34-.61-2.85-.87-5.92.13-8.74-.99-27.65-.91-54.59-6.64-81.24-13.21-42.92-10.58-84.22-25.91-123.51-46.35-102.52-53.33-183.51-128.71-237.26-231.97-8.28-15.92-17.16-31.54-23-48.6,5.14-5.39,9.47-4.84,13.29,1.59,5.67,9.55,11.48,19.01,17.23,28.5,5.02,2,6.54,6.86,8.59,11.05,10.94,22.35,23.21,43.87,37.23,64.48,18.52,27.21,42.25,49.53,66.02,71.79,15.42,14.44,32.27,27.18,50.45,38.04,4.37,2.61,8.85,5.04,13.87,6.14,6.57,1.44,9.29-1.19,7.74-7.72-1.57-6.64-5.52-12.15-9.45-17.54-24.87-34.11-49.88-68.12-76.04-101.25-16.88-21.38-34.26-42.37-51.73-63.27-1.96-2.34-4.78-4.57-3.1-8.35Z" style="fill: #b72521; stroke-width: 0px;"/>
  <path d="M268,461.03c-5.28,6.12-6.91,5.89-9.57-1.73-.65-1.85-1.14-3.45-3.04-4.33-14.69-6.83-26.42-17.41-37.14-29.28-11.46-18.81-27.8-33.55-41.74-50.3-6.82-8.19-10.04-17.9-7.19-29.14,7.92-31.31,23.64-58.7,41.39-85.22,10.21-15.26,22.75-28.94,30.68-45.79,1.99-4.24,2.65-7.32-1.01-10.53-.36-.8-.28-1.54.25-2.24,51.11-51.7,110.1-92.05,176.61-121.17,27.47-12.03,56.1-20.75,85.18-28.55,48.67-13.06,98.04-18.33,148.09-18.07,32.12.17,63.9,4.01,95.7,9.83,38.38,7.02,75.44,17.74,111.26,32.48,32.62,13.42,64.02,29.39,93.51,49.25,22.2,14.95,43.32,31.01,63.91,48.06,10.68,8.84,19.03,19.97,30.2,28.14,2.3.06,4.09,1.22,5.77,2.62,2.94,2.63,5.44,5.76,8.76,7.98,11.1.96,22.26.95,33.25-.12,8.23-.8,13.99-7.48,19.69-12.87,8.2-7.77,16.78-14.55,27.46-18.61,4.45-1.69,8.27-4.77,11.01-8.9,18.21-16.4,36.16-33.05,50.6-53.04,6.09-8.43,11.98-17,17.13-26.05,4.54-7.96,8.01-16.26,7.41-25.75-.32-5,1.73-9.4,4.17-13.58,7.26-12.43,14.68-24.76,21.37-37.53,1.88-3.58,3.75-8.82,9.96-6.62,3.35,6.12,6.66,12.25,7.96,19.22-5.92,3.23-9.22,8.56-12.09,14.43-12.33,25.22-24.68,50.43-41.52,73.09-14.85,19.99-31.15,38.56-49.53,55.5-16.33,15.05-34.79,27.53-50.49,43.26-6.87,6.88-16.03,8.02-24.59,7.82-11-.26-22.13-.35-33.42-1.85,37.01,40.41,67.2,85.26,90.88,134.5,4.98,10.37,9.25,21.04,13.72,31.63,1.82,4.32,4.13,8.05,7.92,10.81,6.36,8.87,7.33,19.78,11.17,29.6,5.2,13.29,8.12,27.27,11.6,41.05,3.03,12,5.34,24.22,7.31,36.45,2.15,13.32,3.54,26.75,5.26,40.14,1.29,2.71-.17,5.8,1.17,8.51.14,3.05.28,6.11.42,9.16,1.59,7.59-.32,15.33,1.04,22.93.84,9.69.81,19.38,0,29.07-1.38,7.56.56,15.28-1.07,22.83-1.11,12.26-1.67,24.59-3.46,36.75-2.59,17.57-5.74,35.07-9.29,52.47-2.32,11.39-4.91,22.87-8.97,33.71-4.21,11.22-7.34,22.77-11.58,34-9.97,26.41-21.01,52.23-34.88,76.79-10.28,18.19-20.27,36.6-33.15,53.18-5.81-7.73-15.22-7.2-23.11-9.17-27.27-6.81-54.74-12.91-82.29-18.46-10.41-2.1-20.49-5.35-30.9-7.29-2.59-.48-5.54-.94-7.94-.18-15.74,4.97-29.72-3.2-44.44-5.67-3.88-.65-5.12-3.83-2.85-7.33,1.38-2.12,2.34-4.15,1.95-6.69,4.22-9.86,10.81-17.6,20.26-22.83,7.4,2.99,14.83.66,22.22.05,17.31-1.43,34.73-2.66,51.45-7.56,21.3-6.24,40.03-17.64,57.32-31.38,5.03-4,9.6-8.55,15.66-11.03,4.4-1.8,6.17-5.69,7.91-9.64,11.49-26.01,19.26-53.28,27.11-80.5,3.71-12.84,7.69-25.61,10.77-38.64,2.17-9.15,3.87-18.02,3.11-27.65-.72-9.11,4.7-17.41,6.9-26.19,8.14-32.41,16.69-64.77,11.69-98.8-1.71-11.61-.94-23.43-1.71-35.15-4.66-70.99-29.78-134.11-72.07-190.9-28.39-38.12-60.82-72.43-95.87-104.41-25.79-23.53-53.56-44.55-83.5-62.25-35.58-21.03-73.64-36.86-113.86-47.04-22.05-5.58-44.24-10.6-66.85-13.38-31.41-3.87-62.92-3.7-94.43-1.48-7.19.51-14.4.98-21.57,1.46-36.58,2.48-71.45,13.2-106.67,21.91-15.78,3.9-29.81,13.05-44.16,20.79-20.3,10.94-39.4,23.71-57.44,38.09-7.9,6.29-16.15,10.22-26.54,5-6.53-3.28-12.63.25-18.1,3.63-18.65,11.53-36.62,24.06-53.9,37.57-16.02,12.52-31.33,25.82-45.4,40.51-29.56,29.94-53.95,63.31-68.2,103.36-1.34,3.78-2.37,7.66-3.16,11.59-1.67,8.38-.17,15.48,6.46,21.8,14.11,13.45,27.6,27.54,41.48,41.23,8.19,8.08,13.5,18.74,22.76,25.75,6.92,5.24,12.5,11.57,17.56,18.47,1.83,2.49,4.64,4.77,2.26,8.41Z" style="fill: #ec2024; stroke-width: 0px;"/>
  <path d="M240.19,203.98c7.16,1.78,6.98,4.77,3.69,11.12-13.64,26.3-34.55,47.73-48.49,73.78-10.46,19.54-20.47,39.27-24.85,61.17-2.02,10.09,2.82,18.33,9.19,26.04,12.61,15.27,28.33,27.97,37.93,45.72.59,1.09.42,2.59.6,3.9-9.66-4.73-17.36-12.4-24.43-19.87-5.34-5.65-12.95-6.87-17.79-12.97-3.5-4.41-9.03-7.21-12.2-12.38-1.41-2.29-4.45-4.66-4.86.77-.31,4.18-2.04,3.41-4.55,2.18-7.35-3.59-13.05-9.18-18.36-15.2-2.06-2.33-.91-4.84-.17-7.51,2.47-8.95,7.16-17.18,8.49-26.48-2.14-2.76-.32-5.1.94-7.35,19.03-33.9,40.92-65.83,66.08-95.5,1.49-1.75,4.65-3.45,3.34-5.79-1.61-2.88-4.83-.9-7.3-.32-10.02,2.36-17.72,8.32-24.65,15.65-16.92,17.91-31.77,37.52-47.07,56.78-5.33,6.71-11.31,12.86-18.62,17.51-10.96,6.96-18.28,5.91-28.32-2.33-18.17-14.93-28.82-34.66-37.79-55.79-19.26-45.33-30.92-92.72-39.27-141.07-2-11.57-4.31-23.12-8.8-34.08,2.4-24.38,6.97-48.21,17.86-70.44,4.23-2.88,6.7,0,8.33,3.11,7.97,15.16,16.87,29.78,25.04,44.82.89,1.65,1.82,3.43,1.82,5.28-.05,20.19,11.97,35.04,22.55,50.38,14.82,21.5,33.21,39.76,53.23,56.42,3.71,3.09,7.6,6.49,12.36,7.22,11.86,1.82,20.9,8.6,28.6,16.72,11.73,12.38,25.31,18.08,42.3,16.4,6.66-.66,14.1,2.54,19.09-4.69,1.8-1.5,3.41-3.4,6.1-3.21Z" style="fill: #ea1920; stroke-width: 0px;"/>
  <path d="M1170.51,398.39c-5.88.91-7.18-3.75-8.73-7.58-7.57-18.83-15.7-37.42-25.38-55.26-17.18-31.66-36.84-61.68-59.77-89.56-7.55-9.18-16.35-17.39-22.54-28.14,10.77,5.4,22.28,1.99,33.36,3.41,11.04,1.41,22.23-1.16,31.15-10.72,13.98-14.98,31.56-26.01,46.64-39.99,14.51-13.45,27.7-27.89,40.19-43.08,21.67-26.37,36.52-56.8,51.71-87.05,2.57-5.11,4.09-12.24,12.49-11.24,6.24,16.58,8.66,33.99,11.13,51.38-4.59,5.61-5.97,12.42-7.37,19.27-8.32,40.88-15.62,81.99-29.73,121.49-7.58,21.2-15.45,42.29-26.56,61.86-6.88,12.13-17.33,21.66-28.37,30.11-7.49,5.73-15.71,4.26-23.22-.79-6.94-4.67-12.56-10.79-17.78-17.27-16.1-20-31.72-40.4-49.91-58.6-7.78-7.79-18.61-12.28-27.24-11.65,1.01,3.23,3.44,5.39,5.44,7.7,39.41,45.53,69.77,96.58,92.6,152.18,1.55,3.77,4.55,7.59,1.76,12.1-.08.48-.04.96.12,1.42Z" style="fill: #eb1a22; stroke-width: 0px;"/>
  <path d="M1170.4,396.97c-3.97-15.32-11.24-29.32-17.94-43.48-19.22-40.64-43.8-77.95-71.97-112.93-3.83-4.76-8.09-9.17-12.25-13.65-.92-.99-2.21-1.74-1.77-3.24.58-1.98,2.42-1.86,3.98-1.8,10.34.36,19.4,4.62,26.68,11.36,14.68,13.58,26.98,29.39,39.54,44.91,7.87,9.72,15.2,19.88,24.41,28.47,11.96,11.16,21.01,10.42,33.39-.25,23.55-20.29,33.18-48.25,43.71-75.77,16.33-42.68,24.48-87.47,33.49-132.04,1.31-6.48.05-15.07,9.08-17.97.18,2.59.36,5.18.54,7.77,1.5,4.21-.33,8.71,1.11,12.93,2.98,44.1-1.91,87.41-14.12,129.78-17.27,59.93-47.68,112.6-89.61,158.67-2.46,2.7-4.38,6.16-8.3,7.25Z" style="fill: #ae0609; stroke-width: 0px;"/>
  <path d="M2.92,81.97c8.34,7.54,7.76,18.43,9.56,28.01,7.47,39.76,15.52,79.33,29.17,117.53,7.46,20.88,15.71,41.53,27.03,60.57,6.51,10.95,16.36,19.78,26.87,27.09,8.53,5.93,16.24,3.38,27.03-6.45,11.51-10.49,20.01-23.49,29.77-35.43,11.93-14.61,23.62-29.4,37.86-41.93,6.29-5.53,14.03-7.49,21.78-9.36,2.16-.52,5.28-1.01,6.5,1.62,1.16,2.51-1.08,4.42-2.67,6.18-18.21,20.24-34.14,42.23-48.77,65.12-8.15,12.74-16.84,25.23-22.67,39.33-11.9,19.29-20.11,40.3-28.72,61.14-.48,1.17-1.35,2.18-2.03,3.27-29.24-29.07-52.44-62.45-71.29-99.04C13.24,243.12.06,182.95,0,119.66c0-1.33.18-2.66.28-3.99,1.3-5.25-.56-10.7,1.05-15.93.15-2.68.29-5.37.44-8.05,1.39-3.11-.31-6.59,1.15-9.69v-.03Z" style="fill: #aa0507; stroke-width: 0px;"/>
  <path d="M235.87,207.37c-3.48,5.56-7.4,9.19-14.96,6.7-3.86-1.27-8.49-.52-12.74-.21-12.8.94-23.23-3.76-32.24-12.58-4.74-4.65-9.77-9.04-14.94-13.2-2.64-2.13-5.35-4.71-8.95-5.03-12.9-1.14-21.83-9.52-30.64-17.42-24.36-21.84-45.33-46.61-61.16-75.4-3.58-6.52-6.35-13.59-5.73-21.34.42-5.2-2.23-9.33-4.65-13.39-7.65-12.81-15.17-25.69-21.78-39.08-1.56-3.17-3.43-5.39-7.29-4.88,1.91-7.17,7.3-10.31,13.99-11.16,7.29-.93,13.02,2.3,16.82,8.52,9.72,15.94,20.71,30.99,31.77,46,16.61,28.03,34.04,55.47,56.92,78.98,19.35,19.89,39.33,39.12,60.4,57.2,5,4.29,10.67,6.98,16.99,8.51,6.5,1.57,12.83,3.55,18.19,7.79Z" style="fill: #f14d54; stroke-width: 0px;"/>
  <path d="M1261.68,9.97c-4.9.73-6.94,4.56-8.85,8.38-5.83,11.67-12.45,22.88-19.29,33.97-3.52,5.7-6.31,11.65-5.47,18.78.92,7.82-2.7,14.67-6.24,21.1-12,21.77-27.42,41.11-44.54,59.02-7.67,8.02-16.39,15.03-24.63,22.5-5.87,4.84-12.2,8.41-20.13,8.88-5.36.31-9.15,4.26-12.94,7.56-5.04,4.38-10.28,8.57-15.04,13.22-7.78,7.61-16.88,11.11-27.59,10.39-6.34-.43-12.64,1.17-18.97.16-3.21-2.14-5.94-4.78-8.22-7.89,3.21-3.74,7.98-4.5,12.24-5.35,10.73-2.15,19.08-8.12,26.89-15.14,41.29-37.09,80.44-76.01,107.57-125.27.76-1.38,2.01-2.49,2.55-4.04,11.58-15.29,22.48-31.05,32.86-47.2,8.07-12.56,23.64-11.81,29.81.94Z" style="fill: #f04d55; stroke-width: 0px;"/>
  <path d="M235.87,207.37c-17.5-4.63-33.99-10.62-47.5-23.9-17.09-16.8-34.8-32.97-51.45-50.23-20.42-21.18-36.23-45.76-51.35-70.81-1.37-2.27-2.61-4.69-2.21-7.53,21.46,25.81,43.73,50.87,68.13,74,28.03,26.58,57.44,51.46,89.14,73.59-.08.52-.23,1.02-.43,1.5-1.45,1.13-2.89,2.26-4.33,3.39Z" style="fill: #fa8687; stroke-width: 0px;"/>
  <path d="M1199.01,56.23c-4.49,13.85-13.85,24.91-21.37,37.01-18.8,30.23-45.55,53.41-70.35,78.27-8.43,8.45-17.6,16.23-27.01,23.59-8.81,6.89-20.14,7.81-30.51,10.93-1.56-1.19-3.12-2.39-4.68-3.58,9.48-9.8,21.09-16.96,31.66-25.4,44-35.16,84.47-73.81,119.37-118.13.8-1.02,1.92-1.8,2.89-2.69Z" style="fill: #fa8988; stroke-width: 0px;"/>
  <path d="M1208.48,586.23c-2.55-7.54-.82-15.28-1.05-22.93,1.92,7.57,1.12,15.26,1.05,22.93Z" style="fill: #ef3022; stroke-width: 0px;"/>
  <path d="M1207.42,638.13c.26-7.61-1.5-15.32,1.07-22.83.11,7.63.8,15.29-1.07,22.83Z" style="fill: #ef3022; stroke-width: 0px;"/>
  <path d="M1.33,99.74c.09,5.34,1.29,10.75-1.05,15.93-.29-5.35-.55-10.7,1.05-15.93Z" style="fill: #ea1920; stroke-width: 0px;"/>
  <path d="M659.87,1165.39c4.94-2.19,10.1-.69,15.16-.94-4.95,1.91-10.1.77-15.16.94Z" style="fill: #c71e26; stroke-width: 0px;"/>
  <path d="M1282.42,101.26c-2.58-4.12-1.17-8.58-1.11-12.93,1.71,4.19,1.36,8.57,1.11,12.93Z" style="fill: #eb1a22; stroke-width: 0px;"/>
  <path d="M683.89,1164.08c4.18-2.76,8.8-.86,13.2-1.25-4.28,1.7-8.74,1.41-13.2,1.25Z" style="fill: #c71e26; stroke-width: 0px;"/>
  <path d="M612.37,1164.47c3.98.22,8.08-1.21,11.93.89-3.99-.15-8.07,1.06-11.93-.89Z" style="fill: #c71e26; stroke-width: 0px;"/>
  <path d="M2.93,82c.18,3.3,1.33,6.71-1.16,9.69-.15-3.29-.52-6.61,1.16-9.69Z" style="fill: #ea1920; stroke-width: 0px;"/>
  <path d="M1207.01,554.14c-2.34-2.57-1.12-5.62-1.17-8.51,1.84,2.64,1.29,5.6,1.17,8.51Z" style="fill: #ef3022; stroke-width: 0px;"/>
  <path d="M588.29,1162.87c2.93.14,6.02-1.08,8.74.99-2.98.27-5.96.55-8.74-.99Z" style="fill: #c71e26; stroke-width: 0px;"/>
  <path d="M247.14,229.86c13.87-16.38,30.65-29.58,47.35-42.8,16.5-13.06,33.95-24.83,51.71-36.13,8.05-5.12,15.93-7.85,25.39-2.75,8.6,4.64,14.91-2.21,20.69-6.75,21.02-16.51,43.4-30.64,67.14-42.96,10.86-5.64,21.8-11.27,33.03-15.78,10.95-4.41,23.13-5.8,34.79-8.42,18.93-4.25,37.84-8.56,56.83-12.56,7.28-1.54,14.82-.87,22.26-1.61,29.26-2.93,58.74-3.16,88.04-1.67,28.66,1.45,56.82,7.48,84.71,14.44,48.04,11.98,93.19,30.92,134.61,57.89,24.05,15.67,46.88,33.18,68.31,52.53,17.49,15.79,34.37,32.2,50.32,49.41,35.81,38.65,67.8,80.19,89.74,128.61,13.15,29.04,21.34,59.45,26.1,90.99,1.78,11.83,3.95,23.82,3.99,35.53.07,22.86,4.47,45.65,1.88,68.41-1.64,14.46-6.06,28.58-8.44,42.98-1.58,9.56-5.37,18.3-8.07,27.44-1.91,6.44-4.14,12.7-2.79,20.1,2.07,11.31-3.3,21.97-6.12,32.67-6.45,24.45-13.45,48.79-21.13,72.88-4.51,14.16-10.7,27.8-16.29,41.61-.66,1.63-2.07,3.34-3.6,4.2-20.56,11.53-37.88,27.98-59.61,37.89-16.15,7.37-33.18,9.2-50.18,11.92-9.16,1.46-18.44,2.2-27.68,3.01-4.96.43-10.24,1.6-14.22-3-.44-4.89,3.32-7.67,5.79-10.94,29.6-39.29,51.48-82.4,64.38-129.93,3.15-11.59,6.1-23.28,7.67-35.22,1.03-7.84-.6-15.03-7.19-20.13-6.34-4.9-13.4-4.84-20.5-1.83-7.22,3.07-9.88,9.43-11.15,16.51-4.37,24.29-11.06,47.92-20.38,70.74-19.23,47.08-48.54,87.06-86.16,121.09-1.76,1.6-3.45,3.45-6.22,3.06-4.09-4.14-7.61,1.48-12.35.42-31.91-7.19-64.04-13.81-93.24-29.06-19.31-10.09-38.35-20.75-56.92-32.38-23.92-14.98-47.41-30.62-71.29-45.64-37.17-23.38-71.14-51.34-107.17-76.34-14.19-9.85-27.65-20.81-42.99-29.05-8.79-4.72-9.3-16.07-2.62-27.38,7.92-13.41,19.2-24.12,28.46-36.44,6.61-8.8,15.7-16.12,17.67-27.89,3.25-9.11,9.55-15.27,18.36-19.01,2.31,4.11,1.14,8.35.34,12.52-1.37,7.08,1.06,12.91,6.6,16.97,6.24,4.58,12.28,9.43,18.97,13.44,35.78,21.45,70.5,44.65,106.72,65.34,26.01,14.86,53.17,27.53,80.43,40,24.08,11.02,49.3,19.25,73.27,30.46,6.41,3,12.33,3.06,19.32,1.58,11.42-2.43,23.22-2.77,34.81-5,15.07-2.91,28.11-10.34,41.33-17.03,7.94-4.02,16.54-6.04,24.25-10.36,8.48-4.76,8.89-5.25,5.03-14.29-1.71-4.01-1.61-7.22.45-11.3,7.31-14.51-2.29-27.73-18.4-28.11-17.49-.41-35.05,2.59-52.54-2.52-36.48-10.64-67.9-28.47-90.59-59.76-1.75-2.42-3.04-5.07-2.11-8.24,7.24-1.89,10.07,4.35,14.42,7.82,6.61,11.97,17.83,19.21,28.82,26,63.23,39.06,131.57,9.23,156.8-50.74,9.78-23.25,12.44-47.27,8.41-72.15-1.12-6.91-4.69-13.04-5.64-19.95-3.5-24.84-12.25-47.39-28.33-66.99-6.03-7.35-13.18-13.17-20.74-18.68-2.14-1.56-4.99-2.86-4.62-5.99.43-3.63,3.92-4.04,6.64-4.82,11.56-3.29,23.48-5.24,34.93-8.83,14.55-4.56,17.83-22.63,6.27-32.67-1.59-1.38-3.7-2.21-4.62-4.31-.6-5.68-4.39-9.71-7.57-13.91-13.57-17.9-26.86-35.99-40.21-54.05-12.93-17.51-30.14-31.03-46.16-45.56-12.07-10.95-24.6-21.45-36.39-32.65-10.11-9.61-22.18-14.59-34.52-19.69-20.79-8.58-42.3-15.06-63.61-22.12-1.52-.51-3.3-.7-4.43-1.8-9.82-9.66-22.72-8.55-34.75-9.45-31.03-2.32-61.87,2.9-92.86,3.28-8,.1-14.77,4.59-21.49,8.39-33.29,18.87-65.25,39.82-96.33,62.12-11.94,8.57-23.86,17.18-35.79,25.78-6.34,4.57-12.27,4.12-18.68.6-9.64-5.3-18.46-11.79-27.31-18.25-.65-.39-1.26-.84-1.85-1.31-1.88-1.67-3.77-3.34-6.13-4.36-.94-.52-1.76-1.19-2.48-1.99-1.67-2.33-3.92-3.86-6.62-4.78-10.45-6.03-19.45-14.07-28.83-21.51-9.06-7.19-17.75-7.31-27.32-1.91-5.11,2.88-9.91,6.27-15.06,9.1-4.36,1.68-8.09,4.31-11.38,7.59-1.53,1.45-3.14,2.82-5.07,3.72-2.23.83-4.16,2.13-5.88,3.76-.51.45-1.07.84-1.64,1.21-1.77,1.04-3.33,2.36-4.86,3.72-.53.47-1.1.87-1.69,1.27-4.41,3.05-8.75,6.18-12.62,9.92-.55.5-1.15.93-1.76,1.35-12.8,9.73-24.13,21.17-36.59,31.29-1.2.27-2.3.11-3.2-.8Z" style="fill: #ef3022; stroke-width: 0px;"/>
  <path d="M539.38,538.35c-5.91,6.39-11.81,12.79-17.72,19.18-12.62,10.66-26.63,19.03-41.85,25.41-14.63,7.92-30.59,9.35-46.68,8.56-33.99-1.66-63.41-14.16-87.09-38.99-15.06-15.79-25.08-34.5-31-55.46-.82-2.89-1.08-5.77-.33-8.7-4.55-25.37-.68-49.8,8.21-73.68,2.47-13.13,10.59-23.06,19.04-32.61,6.48-7.32,13.45-14.24,22.95-20.26-11.46-3.2-21.6-6.21-32.02-8.14-7.61-1.41-14.32-4.16-19.22-10.43-1.79-2.22-2.72-4.84-3.58-7.5-.46-1.57-.67-3.18-.71-4.82-.28-8.63,4.23-14.74,10.47-19.95,1.29-1.07,2.72-1.89,4.3-2.42,3.18-.73,6.3-1.95,9.67-1.33,3.12.92,6.41.77,9.56,1.51,95,21.29,179.22,64.02,253.1,127.31,3.25,2.79,6.21,5.89,9.19,8.95,9.64,9.94,10.33,21.62,1.91,31.58-7.63,9.02-21.4,10.24-32.01,2.94-3.68-2.53-6.19-6.52-10.99-9.01-1.02,7.14-.93,13.78-2.45,20.22-3.45,14.69-8.36,28.74-16.8,41.36-1.61,2.4-2.88,5.21-5.95,6.25Z" style="fill: #231f20; stroke-width: 0px;"/>
  <path d="M862.12,861.29c34.21-31.27,63.67-66.13,83.29-108.64,12.8-27.73,22.15-56.5,27.34-86.58,2.43-14.09,12.86-22.47,25.75-20.27,12.5,2.13,19.58,14.18,17.12,28.06-9.98,56.39-31.84,107.72-65.11,154.25-4.77,6.68-9.75,13.21-14.63,19.82-6.46,7.43-12.92,14.87-19.38,22.3-20.02,19.3-40.72,37.76-64.01,53.14-46.79,30.91-97.84,51.5-153.31,58.98-111.55,15.05-211.91-12.25-298.76-84.56-71.09-59.2-113.61-135.37-129.87-226.32-2.13-11.9,5.99-23.67,17.49-25.65,11.64-2,22.78,5.39,24.91,17.17,8.48,46.76,24.72,90.42,51.11,130.13,36.78,55.33,85.62,96.23,146.58,122.61,48.36,20.92,99.03,29.77,151.48,26.69,74.23-4.37,140.24-30.29,197.37-78.2,1-.84,1.75-1.96,2.62-2.94Z" style="fill: #231f20; stroke-width: 0px;"/>
  <path d="M314.63,342.21c5.05,6.15,11.98,8.23,19.47,9.81,11.59,2.44,23.02,5.64,36.55,9.02-23.27,13.16-36.9,32.21-47.73,53.64-8.22,1.65-10.82,8.9-14.17,14.96-5.66,10.25-10.58,20.91-15.83,31.39-4.67,9.34-6.48,9.97-15.98,5.22-3.08-1.54-5.96-3.47-8.94-5.22-.92-7.2-6.48-12.16-11.05-15.99-12.8-10.74-22.46-24.15-33.88-36-13.35-13.87-26.83-27.66-40.92-40.76-7.6-7.06-8.54-15.04-6.53-24.01,4.54-20.28,13.81-38.58,24.77-56.01,13.35-21.22,28.08-41.39,46.75-58.39,1.03,0,2.06.01,3.1.02.95,5.02-3.49,6.78-5.98,9.59-21.38,24.17-40.68,49.6-50.64,80.93-4.8,15.1-3.02,19.31,8.53,30.07,14.86,13.84,30.23,27.12,44.92,41.14,10.68,10.19,14.1,10.4,24.41-.3,13.18-13.69,24.17-29.25,36.55-43.63,1.9-2.2,3.34-4.93,6.6-5.47Z" style="fill: #e63322; stroke-width: 0px;"/>
  <path d="M197.41,846.22c5.19,10.06,13.58,17.66,20.62,26.25,28.32,34.56,56.12,69.49,82.35,105.69,10.92,15.07,22.69,29.54,32.93,45.1,2.62,3.98,5.24,8.23,6.58,12.74,2.67,8.96-1.55,12.93-10.5,10.4-9.91-2.81-18.37-8.55-26.72-14.23-30.62-20.84-56.97-46.61-81.91-73.67-20.27-21.99-36.11-47.38-50.02-73.87-5.58-10.63-10.29-21.72-16.91-31.79-2.7-9.11-5.28-18.26-8.17-27.31-1.08-3.39-1.5-6.77-1.22-10.22.27-3.24-1.48-7.04,2.47-9.4,4.47-2.68,7.93.39,10.94,2.48,11.42,7.93,21,17.93,29.92,28.53,2.91,3.46,5.56,7.11,9.65,9.31Z" style="fill: #d46b5b; stroke-width: 0px;"/>
  <path d="M314.71,488.36c5.49,20.71,13.4,40.3,27.54,56.74,20.96,24.36,47.18,38.67,79.35,43.17,20.12,2.82,39.06-.95,58.22-5.32-6.55,10.7-17.89,14.55-28.45,19.01-54.28,22.93-111.03-7.93-130.86-57.92-6.1-15.37-9.33-31.01-9.14-47.46.04-3.18-.52-6.6,3.35-8.22Z" style="fill: #8b1c18; stroke-width: 0px;"/>
  <path d="M131.71,596.76c-2.37,24.17,2.59,51.39,3.46,78.8.29,9.03,1.46,17.93-.52,26.85-1.11,5.01-2.39,10.76-8.05,11.79-5.19.95-8.37-3.6-11.23-7.62-10.15-14.29-13.72-30.94-17.5-47.57-4.23-18.55-6.14-37.38-4.66-56.27,1.63-20.83,2.01-42.07,10.97-61.6,3.04-6.62,6.21-15.49,15.17-13.71,8.37,1.66,9.14,10.9,10.48,18.12,2.95,15.84,1.34,31.9,1.87,51.21Z" style="fill: #dd585e; stroke-width: 0px;"/>
  <path d="M346.17,906.75c-8.55,3.05-11.79-3.31-15.57-8.82,5.19,2.94,10.38,5.88,15.57,8.82Z" style="fill: #c71e26; stroke-width: 0px;"/>
  <path d="M438.5,975.31c7.97-.8,11.98,3.77,17.24,8.78-7.37-1.06-12.28-3.93-17.24-8.78Z" style="fill: #c71e26; stroke-width: 0px;"/>
  <path d="M669.2,1049.6c4.73-4.37,8.87.16,15.2-.99-6.37,5.52-10.79-.94-15.2.99Z" style="fill: #c71e26; stroke-width: 0px;"/>
  <path d="M1057.98,213.92c6.41-2.55,13.15-1.93,19.74-1.62,15.03.69,24.34-9.25,34.13-18.04,7.92-7.11,15.02-14.67,27.01-14.93,4.63-.1,9.2-3.64,13.79-5.62-2.32,4.56-6.55,7.83-10.81,9.09-14.04,4.15-23.28,14.8-33.7,23.69-7.25,6.19-14.56,9.67-24.26,9.11-7.11-.41-14.4-1.24-21.49.78-2.28.65-3.48-.68-4.41-2.46Z" style="fill: #ef3022; stroke-width: 0px;"/>
  <path d="M72.92,92.68c3.21.72,4.96,2.37,6.61,4.12,16.48,17.4,31.27,36.2,45.61,55.37,1.74,2.33,2.67,5.28.78,7.35-2.7,2.95-4.66-.46-6.57-1.95-19.51-15.34-35.23-33.9-47-55.76-1.71-3.17-3.47-6.61.56-9.12Z" style="fill: #f8a6aa; stroke-width: 0px;"/>
  <path d="M1215.33,93.96c-.52,1.27-1.3,3.52-2.34,5.64-12.03,24.4-30.17,43.69-50.9,60.82-2.41,1.99-5.11,5.5-8.15,2.69-3.27-3.02-.21-6.55,1.8-9.18,7.73-10.15,15.56-20.23,23.6-30.13,7.87-9.7,15.96-19.23,24.14-28.67,1.88-2.16,4.43-3.83,6.88-5.37,3.48-2.19,4.83-.41,4.97,4.2Z" style="fill: #f5888d; stroke-width: 0px;"/>
  <path d="M539.38,538.35c10.48-16.59,18.92-34.02,21.62-53.72.79-5.78,1.14-11.62,1.76-18.21,5.71,2.54,9.09,7.44,13.54,10.92,8,6.26,19.75,6.78,26.81,1.16,7.38-5.87,10.32-16.97,6.6-25.35-2.13-4.81-6.27-7.92-10.06-11.28-38.61-34.21-81.01-62.74-127.29-85.59-41.31-20.39-84.61-35.06-129.3-45.85.42-4.74,3.87-7.52,7.05-10.26,25.47-21.95,52.15-42.28,80.8-59.96,4.32-2.67,8.32-5.78,12.27-8.94,7.01-5.6,7.24-10.25.35-16.3-6.39-5.63-13.26-10.72-19.88-16.09-2.37-1.92-5.61-3.5-4.72-7.54,9.04,4.03,16.14,11.03,24.6,16,12.27,7.22,15.84,7.48,27.11-1.24,25.25-19.54,51.42-37.73,78.28-55,18.84-12.11,37.69-24.13,57.65-34.33,5.58-2.85,11.33-4.2,17.68-4.19,27.71.07,55.25-5.15,83.02-3.05,14.29,1.08,28.14.69,41.74,9.73,11.93,7.92,28.12,9.21,42.07,14.38,16.97,6.29,34.28,11.91,50.11,20.89,6.5,3.69,11.32,9.71,16.8,14.69,23.67,21.51,48.28,42.03,70.44,65.18,7.42,7.75,12.49,17.23,18.99,25.66,11.03,14.32,21.65,28.97,32.48,43.44,1.59,2.12,4.09,3.97.91,6.67-1.15,1.28-2.68,1.75-4.31,1.86-31.4,2.04-60.51,13.08-89.58,23.65-66.31,24.1-125.37,60.65-178.67,106.68-5.42,4.68-11.18,9.27-11.1,17.65.07,7.07,1.43,13.47,8.06,17.19,7.12,4,14.36,3.62,21.28-.76,3.62-2.29,6.43-5.63,10-8.02,6.45-4.32,8.16-3.63,8.77,4.07.98,12.35,3.83,24.29,7.98,35.89,5.86,16.37,15.35,30.44,27.56,42.79,3.07,3.1,7.53,5.43,7.57,10.74,1.88,7.59,7.54,12.64,12.26,18.33,19.46,23.45,45.51,36.65,73.62,46.01,14.63,4.87,29.84,6.61,45.61,4.02,8.3-1.36,17.23.2,25.74,1.41,5.04.71,8.68,4.17,7.99,10.2-.47,4.07.87,7.9,1.46,11.83.48,3.16,1.63,6.23-2.25,9.12-5.04,3.75.13,8.02,1.69,11.2,2.96,6.01,2.8,9.58-3.85,12.38-5.13,2.16-9.97,4.77-15.38,6.5-10.34,3.3-19.93,8.82-29.3,14.03-13.77,7.65-28.78,9.21-43.47,12.34-7.12,1.52-14.76-.25-21.93,3.11-2.92,1.37-6.7.47-10.11-.96-27.96-11.71-56.11-22.98-83.95-34.98-13.95-6.02-27.31-13.41-41.05-19.94-34.97-16.64-67.4-37.76-100.12-58.19-20.05-12.52-41.01-23.78-59.75-38.34-5.98-4.65-9.43-11.16-7.4-18.98,1.11-4.26,1.06-8.43,1.22-12.68Z" style="fill: #f44b1f; stroke-width: 0px;"/>
  <path d="M788.37,561.93c-14.92-14.36-28.05-29.94-35.82-49.55-5.77-14.56-8.97-29.57-9.49-45.87-4.78,1.96-7.79,5.67-11.26,8.69-10.65,9.29-23.97,9.49-32.18.38-7.89-8.77-6.49-22.02,3.71-31.19,62.11-55.86,133.19-96.01,212.83-121.07,15.26-4.8,30.7-8.94,46.35-12.32,6.14-1.33,12.17-1.41,18.31-.81,10.9,6.44,14.81,13.49,12.93,24.07-1.92,10.77-9.58,15.42-19.47,17.29-12.44,2.35-24.65,5.5-37.63,9.73,33.58,22.33,51.14,53.16,55.75,91.73,11.68,56.16-33.4,123.29-98.66,136.1-29.69,5.83-57.95,1.63-84.91-11.94-3.19-1.61-5.57-4.1-7.86-6.72-4.19-2.83-8.39-5.66-12.58-8.49Z" style="fill: #231f20; stroke-width: 0px;"/>
  <path d="M800.95,570.42c15.86,8.27,31.94,15.48,50.07,17.8,32.73,4.18,62.78-2.58,89.27-21.93,33.23-24.28,51.04-57.29,51.9-98.87.1-4.81.13-9.62.19-14.42,16.14,43.86,8.62,84.91-18.91,121.08-18.66,24.53-44.43,39.78-76.99,41.33-31.22,1.48-57.69-8.85-81.25-28.47-5.7-4.75-12.46-8.46-14.28-16.51Z" style="fill: #a92f18; stroke-width: 0px;"/>
  <path d="M314.63,342.21c-14.58,17.92-28.24,36.62-44.42,53.19-8.09,8.28-12.72,8.46-21.14.89-17.98-16.2-35.73-32.67-53.79-48.79-7.38-6.58-7.19-14.69-5.03-22.81,7.48-28.15,23.55-51.6,41.61-73.84,5.85-7.21,12.24-13.99,18.38-20.97,11.06-12.17,23.24-23.05,37.01-32.09.7,4.97-3.41,6.93-6.25,9.41-24.27,21.18-46.16,44.34-62.59,72.34-12.98,22.12-12.76,25.85,6.12,42.92,14.05,12.7,28.14,25.37,42.49,37.74,4.83,4.16,9.28,4.49,14.48,1.1,7.68-5.01,13.95-11.57,20.45-17.92,3-2.93,5.34-6.78,9.77-8,.97,2.28,1.94,4.56,2.91,6.84Z" style="fill: #e8583e; stroke-width: 0px;"/>
  <path d="M311.71,335.37c-8.37,10.1-17.55,19.39-28.19,27.07-7.94,5.73-11.41,4.87-18.95-1.84-15.89-14.14-31.9-28.16-48.16-41.87-10.26-8.65-11.58-13.04-6.54-25.57,8.79-21.87,22.87-40.24,38.68-57.24,12.32-13.25,25.75-25.47,38.69-38.14,0,0,.06-.05.06-.05,4.78-3.75,9.68-7.34,14.38-11.19l.07-.05c2.27-1.39,4.16-3.29,6.35-4.77l.07-.05c2.27-1.37,4.13-3.31,6.37-4.72,1.61-1.12,3.22-2.24,4.83-3.36,3.72-2.66,7.6-5.09,11.22-7.89,5.84-3.68,11.47-7.75,17.56-10.94,9.62-5.03,18.54-4.01,27.19,3.26,9.31,7.83,19.38,14.77,29.13,22.09,2.23,1.48,4.19,3.33,6.39,4.85.54.52,1.09,1.04,1.63,1.56,2.24,1.46,4.13,3.39,6.43,4.79,0,0,.01,0,.01,0,6.15,7.89,15.12,12.5,22.32,19.17,1.95,1.81,4.24,3.29,6,5.26,5.5,6.18,4.75,10.74-1.68,16.14-9.03,7.58-19.24,13.41-29.01,19.86-22.72,14.99-43.94,31.92-64.75,49.38-3.24,2.71-5.85,6.17-8.75,9.28-3.23-.24-6.54-.03-9.53-1.64,7.6-9.05,16.84-16.32,26.07-23.55,19.59-15.33,39.85-29.72,60.78-43.16,4.72-3.03,9.37-6.17,13.81-9.62,9.95-7.71,10.23-12.01.36-19.98-19.96-16.12-40.98-30.91-60.61-47.41-11.36-9.55-21.58-6.91-32.14-.14-13.05,8.36-25.74,17.24-37.96,26.8-24.7,19.31-47.28,40.74-66.22,65.83-5.01,6.63-9.39,13.65-12.75,21.28-3.6,8.19-2.83,11.06,3.58,16.85,16.24,14.68,32.54,29.28,48.63,44.13,6.81,6.29,9.86,6.68,17.57,1.59,3.14-2.07,5.71-4.86,8.85-6.89,2.36-1.52,4.23-4.31,7.68-3.46.16,1.44.33,2.88.49,4.32Z" style="fill: #f1635d; stroke-width: 0px;"/>
  <path d="M301.69,186.55c-3.61,5.25-8.59,8.74-14.38,11.19,3.61-5.26,8.6-8.73,14.38-11.19Z" style="fill: #e8583e; stroke-width: 0px;"/>
  <path d="M330.6,165.72c-2.68,4.14-6.52,6.62-11.22,7.89,2.71-4.09,6.54-6.6,11.22-7.89Z" style="fill: #e8583e; stroke-width: 0px;"/>
  <path d="M418.93,191.33c-3.24-.12-4.99-2.25-6.43-4.79,3.26.09,5.01,2.22,6.43,4.79Z" style="fill: #f44b1f; stroke-width: 0px;"/>
  <path d="M410.87,184.98c-3.17-.25-4.97-2.3-6.39-4.85,3.27.11,5.05,2.19,6.39,4.85Z" style="fill: #f44b1f; stroke-width: 0px;"/>
  <path d="M314.55,176.96c-1.42,2.52-3.15,4.62-6.37,4.72,1.4-2.55,3.11-4.68,6.37-4.72Z" style="fill: #e8583e; stroke-width: 0px;"/>
  <path d="M308.11,181.73c-1.38,2.57-3.13,4.66-6.36,4.77,1.38-2.58,3.13-4.65,6.36-4.77Z" style="fill: #e8583e; stroke-width: 0px;"/>
  <path d="M324.19,309.96l-3.22,1.78c-5.31,3.33-10.32,2.25-14.79-1.46-18.3-15.18-37.22-29.59-55.57-44.7-6.33-5.21-6.85-10.71-2.86-18.7,5.24-10.5,14-18.36,22.06-26.26,21.16-20.75,44.59-38.9,69.61-54.91,2.94-1.88,6.04-3.42,9.18-4.88,7.31-3.39,14-3.2,20.84,2.01,21.25,16.2,42.13,32.89,63.42,49.03,8.71,6.6,8.64,12.1.75,19.76-5.21,5.06-11.38,8.81-17.44,12.73-29.62,19.2-58.02,40.11-85.91,61.73-1.91,1.48-3.88,2.83-6.07,3.87Z" style="fill: #f9b39f; stroke-width: 0px;"/>
  <path d="M324.19,309.96c11.28-13.09,26.51-21.24,39.87-31.72,19.92-15.62,41.54-28.83,62.29-43.27,15.32-10.66,15.31-13.65.9-24.87-19.1-14.86-38.44-29.42-57.29-44.59-7.71-6.2-15.04-6.51-23.42-2.23-13.62,6.94-25.65,16.25-37.63,25.51-13.69,10.57-27.46,21.23-39.14,34.03-7.48,8.2-15.95,15.76-20.94,26.06-2.97,6.14-2.26,11.23,3.21,15.6,17.44,13.93,35.49,27.13,52.12,42.07,4.87,4.37,10.39,6.14,16.82,5.2-5.49,5.31-10.1,11.06-9.75,19.31-5.7,4.37-11.29,8.88-17.12,13.07-5.96,4.27-11.23,4.07-17.06-1.43-16.46-15.53-33.35-30.61-50.29-45.63-5.95-5.27-7.9-10.5-4.24-18.18,6.5-13.63,15-25.9,24.9-37.04,26.68-30.03,57.3-55.53,91.18-77.13.45-.29.82-.69,1.27-.98,15.4-9.92,23.89-9.33,38.1,1.89,18.78,14.84,37.72,29.48,56.68,44.08,12.68,9.76,12.95,15.2.24,24.39-24.81,17.94-51.06,33.88-74.79,53.32-6.38,5.22-12.57,10.68-18.79,16.09-2.39,2.08-4.21,4.94-7.77,5.28-3.11.39-6.23.78-9.34,1.17Z" style="fill: #f38a71; stroke-width: 0px;"/>
  <path d="M481.64,435.4c10.46,2.06,23.24,2.26,30.5,14.62,8.55,14.56-5.44,42.94-23.2,46.14-19.12,3.44-30.15-2.91-34.69-22.17-.3-1.29-.64-2.58-1.05-3.84-2.18-6.68-6.71-13.23-1.14-20.34,7.15-9.11,16.24-14.44,29.57-14.42Z" style="fill: #4f4e50; stroke-width: 0px;"/>
  <path d="M166.82,851.61c.13-8.74,2.44-10.15,8.41-6.55,10.91,6.58,19.24,16.2,27.46,25.59,19.09,21.82,37.52,44.22,55.05,67.35,16.09,21.22,32.68,42.09,45.76,65.38,2.22,3.96,6.24,9.48,2.99,13.07-4.06,4.48-9.27.05-13.49-2.57-25.22-15.66-45.43-36.82-65-58.77-22.92-25.73-40.67-54.72-55.27-85.77-2.96-6.29-5.62-12.68-5.9-17.73Z" style="fill: #e4968d; stroke-width: 0px;"/>
  <path d="M124.88,602.4c.59,12.66,1.02,25.34,1.83,37.99.65,10.2-1,20.22-1.84,30.3-.29,3.45-2,7.36-5.71,7.97-3.5.58-5.32-3.06-6.89-5.8-8-13.95-11.05-29.48-12.59-45.1-1.7-17.32.3-34.6,4.6-51.53,1.26-4.96,3.19-9.53,6.18-13.77,3.63-5.14,6.16-3.96,8.74.77,4.75,8.73,4.49,18.51,5.81,27.93.51,3.67.08,7.48.08,11.22-.07,0-.14,0-.22.01Z" style="fill: #ec959a; stroke-width: 0px;"/>
  <path d="M1204.13,108.77c-1.7,2.98-3.1,5.86-4.88,8.49-7.03,10.42-15.01,20.07-24.4,28.46-1.83,1.63-3.95,4.61-6.7,1.94-2.27-2.21,0-4.26,1.44-6.21,8.69-11.83,17.68-23.4,28.56-33.34,1.25-1.14,2.27-3.44,4.54-2.02.75.47.97,1.76,1.44,2.68Z" style="fill: #fbc4c6; stroke-width: 0px;"/>
  <path d="M822.85,435.44c11.77-.69,21.2,4.69,30.17,10.24,5.39,3.34,7.94,9.43,4.61,16.06-4.05,8.04-7.84,16.29-12.69,23.84-10.7,16.67-36.37,16.19-47.97-.02-6.2-8.67-7.27-18.71-9.62-28.4-1.27-5.23,7.77-15.5,14.91-18.19,2.23-.84,4.55-1.59,6.9-1.89,4.72-.61,9.28-2.61,13.7-1.65Z" style="fill: #4d4c4d; stroke-width: 0px;"/>
  <path d="M352.3,165.7c4.11.1,6.31,2.38,8.55,4.06,20.02,14.94,39.94,30.03,59.8,45.18,9.96,7.6,9.84,11.17-1.01,18.14-17.47,11.22-35.09,22.22-52.76,33.12-6.23,3.84-12.22,4.89-18.95-.46-17.04-13.56-34.59-26.48-51.98-39.59-8.51-6.42-9.55-9.98-2.4-17.45,15.15-15.84,32.9-28.58,51.31-40.36,2.38-1.53,5.47-1.96,7.43-2.63Z" style="fill: #fedad7; stroke-width: 0px;"/>
  <path d="M500.86,465.82c0,12.94-8.52,22.5-20.03,22.49-8.53,0-16.67-10.66-16.88-22.11-.2-10.81,8.29-21.13,17.43-21.19,11.1-.07,19.48,8.89,19.48,20.82Z" style="fill: #878789; stroke-width: 0px;"/>
  <path d="M277.62,984.13c0,6.18-3.2,5.68-6.22,3.53-6.26-4.47-12.64-8.9-18.21-14.17-24.94-23.59-45.78-50.34-61-81.27-1.29-2.62-2.8-5.13-3.01-8.19-.15-2.21-2.33-4.61.74-6.39,2.74-1.58,4.5.53,6.38,1.89,12.4,9.03,22.07,20.85,31.74,32.46,15.47,18.58,29.88,38.01,42.88,58.45,2.87,4.5,5.53,9.07,6.69,13.68Z" style="fill: #f5c4c2; stroke-width: 0px;"/>
  <path d="M120.24,620.63c.28,7.98.27,15.93-1.57,23.78-.45,1.94-1.04,3.65-3.15,4.14-2.59.6-4.03-1-4.91-3.09-7.37-17.56-8.68-35.37-1.92-53.45.85-2.28,2.25-4.94,4.71-4.92,3.21.03,3.69,3.61,4.44,5.91,2.93,8.98,2.67,18.32,2.39,27.63Z" style="fill: #f8c5c8; stroke-width: 0px;"/>
  <path d="M839.56,466.63c0,1.33.13,2.68-.02,3.99-1.24,10.61-9.34,19.03-18.32,19.12-9.14.09-19.5-10.45-20.18-20.54-1.2-17.74,11.59-29.72,25.98-24.34,8.54,3.19,12.72,10.4,12.54,21.77Z" style="fill: #79797b; stroke-width: 0px;"/>
  <path d="M492.82,466.6c-.02,6.62-5.05,12.11-11.15,12.16-5.83.05-10.61-5.79-10.41-12.72.17-5.95,5.46-12.36,10.33-12.51,6.3-.2,11.25,5.56,11.23,13.07Z" style="fill: #b9babc; stroke-width: 0px;"/>
  <path d="M833.2,466.4c.06,7.14-5.91,15.29-11.3,15.43-6.1.16-14.33-9.05-14.3-16,.03-7.19,6.74-14.36,13.47-14.39,7.07-.03,12.05,6.1,12.12,14.95Z" style="fill: #afb0b2; stroke-width: 0px;"/>
</svg>