<?xml version="1.0" encoding="UTF-8"?>
<svg id="Layer_2" data-name="Layer 2" xmlns="http://www.w3.org/2000/svg" viewBox="0 0 750 750">
  <g id="Layer_1-2" data-name="Layer 1">
    <g>
      <path d="M374.63,749.93c-123.73,0-247.46-.01-371.18.07-2.81,0-3.44-.63-3.44-3.44C.08,498.85.08,251.15,0,3.44,0,.63.63,0,3.44,0,251.15.08,498.85.08,746.56,0c2.81,0,3.44.63,3.44,3.44-.08,247.71-.08,495.41,0,743.12,0,2.81-.63,3.44-3.44,3.44-123.98-.08-247.96-.07-371.93-.07Z" style="fill: #fdfdfd; stroke-width: 0px;"/>
      <path d="M261.52,674.15c-1.93.12-3.51-.61-4.8-2.02.14-.35.3-.72.61-.92,4.47-2.87,4.53-2.88,3.48-8.22-4.87-24.73-10.6-49.28-16-73.9-1.12-5.12-2.16-10.26-3.17-15.4-.17-.86-.35-1.72-.27-2.6.06-.64.2-1.41.8-1.58.9-.26,1.33.57,1.57,1.25,1.37,3.89,2.36,7.89,3.38,11.87,5.96,23.21,11.9,46.42,19.11,69.28.87,2.75,2.01,5.37,3.55,7.82,1.62,2.56,3.9,3.47,6.75,2.71,4.51-1.21,8.73-3.17,12.26-6.21,3.52-3.02,5.04-6.97,4.31-11.74-1.36-8.98-4.9-17.26-8.03-25.67-7.49-20.14-15.98-39.86-25.61-59.04-7.94-15.82-14.43-32.39-24.22-47.27-1.01-1.54-1.77-3.3-3.63-4.52-.78,1.25-.15,2.45-.11,3.6.04,1.12.28,2.61-.96,2.95-1.52.42-1.95-1.17-2.46-2.27-.41-.91-.68-1.88-.95-2.84-8.45-29.4-15.07-59.26-22.31-88.97-1.66-6.79-3.12-13.62-4.57-20.46-2.16-10.19-1.18-19.89,2.59-29.69,10.59-27.56,24.25-53.66,37.13-80.13,6.5-13.35,13.32-26.54,19.4-40.09.97-2.16,1.95-4.35,3.54-6.14,1.16-1.31,2.4-2.12,3.14.41.23,1.38-.07,2.71-.42,4.03-2.54,9.44-4.44,19.03-6.95,28.47-.63,1.22-.77,2.57-.97,3.9-.06.4-.18.78-.31,1.15-4.58,19.9-8.58,39.92-13.14,59.81-3.59,14.88-6.59,29.89-9.43,44.93-.3,1.59-.73,3.15-.97,4.75-2.6,10.34-2.15,19.99,4.57,29.1,9.11,12.37,15.46,26.44,22.46,38.1-4.63-11.72-11.63-24.26-16.77-37.62-1.48-3.85-2.47-7.85-2.22-12.04.07-1.26.35-2.67,1.89-2.83,1.38-.15,1.82,1.12,2.16,2.19,3.7,11.32,9.48,21.69,14.79,32.27,3.92,7.8,7.45,15.78,11.36,23.59.65,1.29,1.64,2.6.72,4.2-1.94.35-2.1-1.33-2.44-1.84,10.77,26.19,23.5,52.25,34.56,79.05.67,1.61,1.53,3.19,1.38,5-.15,1.74-1.07,2.17-2.5,1.1-1.22-.92-1.96-2.26-2.75-3.52-8.98-14.4-17.42-29.11-25.39-44.1-4.16-7.82-8.95-15.26-13.5-22.93-.64,2.86.34,5.33,1.39,7.88,2.27,5.51,4.35,11.1,4.15,17.22-.05,1.62-.24,3.29.18,4.85.8,3.02.08,5.62-1.55,8.16-.7,1.09-1.61,2.26-.81,4.07.86-1.61.93-3.23,1.55-4.63.4-.92.78-1.98,2-1.91.99.06,1.52.93,1.69,1.79.78,3.78,1.83,7.66-1.56,10.83-1.1,1.03-1.47,2.24-1.5,3.68-.05,2.51-.05,5.04,1.06,7.34,3.91,8.13,5.62,16.98,8.53,25.43,1.94,5.64,4.35,11.14,6.62,16.65,5.41,13.18,9.75,26.71,14.18,40.22,2.22,6.79,3.34,13.71,3.46,20.94.1,5.99-2.18,10.59-6.41,14.09-5.98,4.94-12.63,8.91-20.47,10.39-1.99.38-3.98.63-5.91-.09-2.18-.82-3.28-.05-3.8,2.09-.46,1.93-1.54,3.39-3.5,4.07Z" style="fill: #b80101; stroke-width: 0px;"/>
      <path d="M272.72,468.25c-2.57-5.65-5.05-11.35-7.73-16.95-6.11-12.81-13.18-25.16-18.42-38.39-.59-1.5-1.08-3.04-1.52-4.59-.21-.72-.24-1.71-1.13-1.67-1.13.05-1.08,1.15-1.13,2.01-.23,3.53.53,6.94,1.63,10.24,3.16,9.47,8.03,18.19,12.06,27.29,2.35,5.29,4.78,10.54,6.35,16.15-4.19-4.85-6.93-10.57-10.01-16.05-5.3-9.43-10.49-18.92-16.74-27.77-5.89-8.34-5.61-17.37-3.1-26.66,1.33,1.19,1.04,2.73.73,4.16-.72,3.32-.36,6.66-.39,9.99-.02,3.1,1.91,5.3,3.71,7.48,1.17,1.41,2.15,3.02,4.24,4.62-.57-4.59-1.31-8.65-1-12.75,0-.98.07-1.95.29-2.9.47-1.32.47-2.7.45-4.08-.07-2.08.17-4.1.98-6.03,2.19-10.56,4.21-21.15,6.51-31.69.37-1.68.48-3.46,1.77-4.79,1.82-.17,1.48-1.8,1.77-2.85,5.76-20.39,12.33-40.55,17.32-61.15.39-1.6.38-3.58,2.44-4.3,1.98,2.21.51,4.55.04,6.71-4.35,20.12-8.84,40.2-12.77,60.41-2.33,12-4.45,24.03-5.47,36.22-.74,8.83,1.63,17.06,5.61,24.86,4.81,9.45,9.92,18.79,14.28,28.41,6.54,14.46,14.3,28.24,21.61,42.27,9.22,17.69,18.76,35.22,30.5,51.43,5.34,7.37,9.66,15.42,15.1,22.74,5.31,7.16,11.85,12.96,18.72,18.62,8.45,6.97,17.9,12.27,27.32,17.51,6.52,3.63,12.51,8.09,19.2,11.41,5.64,2.8,11.13,1.89,16.64-.17,8.45-3.16,16.18-7.74,23.9-12.34,14.85-9.23,28.76-19.81,42.76-30.25,22.2-16.56,43.97-33.69,65.67-50.9,1.57-1.25,2.97-2.67,4.36-4.1,1.32-1.36,2.52-2.74,2.1-4.92-.17-.86-.31-2.11,1.3-2.02,1.86,3.84.62,6.95-2.24,9.71-6.64,6.41-14.06,11.9-21.22,17.7-14.41,11.68-28.9,23.26-43.37,34.87-.65.52-1.44.86-2.17,1.29-6.32,3.96-11.81,9.01-17.67,13.57-30.61,23.78-60.76,48.15-92.17,70.88-2.33,1.68-4.7,3.3-7.32,4.52-4.23,1.97-6.51,1.55-9.57-2.03-3.85-4.5-6.37-9.84-9.11-15.01-18.62-35.04-36.19-70.62-53.81-106.17-8.42-16.99-17.11-33.84-25.31-50.93-1.61-3.36-3.99-6.33-5.45-9.8-.51-1.2-1.58-2.37-.54-3.81Z" style="fill: #be2423; stroke-width: 0px;"/>
      <path d="M272.72,468.25c.56,2.61,2,4.84,3.24,7.12,8.33,15.3,15.94,30.96,23.67,46.57,13.94,28.14,27.82,56.32,42.19,84.25,7.74,15.04,14.95,30.4,24.04,44.71,4.18,6.57,6.83,7.13,13.38,2.54,9.55-6.7,18.99-13.58,28.24-20.68,20.08-15.41,40.03-30.99,59.99-46.55,7.63-5.95,15.14-12.07,22.74-18.07.97-.77,1.9-2.13,3.49-1.1-1.29.84-.29,2.08-.55,3.1-5.73,2.55-9.85,7.24-14.67,11.04,3.49-1.24,6.86-2.7,10.22-4.19,2.04-.91,2.11-.78,2.74,1.15-8.14,5.92-17.82,8.69-26.78,12.93-3.82,1.81-6.6,4.8-9.83,7.25-7.04,5.35-13.72,11.17-20.61,16.72-5.75,4.63-11.61,9.12-17.4,13.7-7.37,5.84-14.71,11.7-22.05,17.58-1.53,1.23-2.48,3.13-4.44,3.88-3.93,1.71-6.83,4.89-10.25,7.32-8.81,6.25-12.03,5.75-17.55-3.52-5.74-9.64-10.84-19.65-16.08-29.57-3.78-7.17-7.79-14.22-11.23-21.57,2.14,5.74,4.93,11.24,6.52,17.19.1.36.26.71.32,1.07.24,1.29,1.37,3.01-.06,3.75-1.57.82-2.19-1.15-2.93-2.2-1.94-2.75-3.76-5.59-5.51-8.46-11.94-19.6-22.78-39.82-33.45-59.62,3.01,9.04,7.81,17.87,11.09,27.31,2.21,6.36,4.28,12.77,6.49,19.12,1.79,5.14,1.4,10.04-2.14,14.83-3.78,5.12-4.72,11.45-5.1,17.73-.2,3.36.17,6.75-.09,10.1-.55,7.06-3.01,13.08-9.8,16.51-1.09.55-2.26,1.08-3.02,2.14-10.02,4.58-19.88,9.52-30.64,12.3-2.02.52-3.61-.13-5.38-.47,1.56-1.67,2.7-3.55,2.99-5.86.18-1.45.98-2.67,2.42-2.02,6.56,2.95,12.18.03,17.65-2.87,4.01-2.13,8.01-4.31,11.38-7.63,6.28-6.2,5.4-13.92,3.99-21.04-3.47-17.47-10.06-34.02-16.38-50.64-4.34-11.42-9.75-22.51-11.96-34.71-.45-2.48-1.88-4.84-3.12-7.11-1.9-3.47-1.82-7.18-1.73-10.92.02-.73-.04-1.46.56-2.08,3.81-4.01,4.26-6.99,1.69-12.1-1.92,2.49-1.61,5.66-2.86,8.31-2.94-2.75-2.96-2.76-1.14-5.82,1.66-2.79,2.08-5.54,2.05-8.99-.05-6.18-1.56-11.96-2.62-17.88-.12-.69-.56-1.36-.95-1.98-2.36-3.72-3.28-7.72-2.1-12.33,15.6,23.76,27.38,49.82,44.02,73.03-10.6-29.57-25.22-57.45-36.61-86.92,2.32.5,2.17,3.05,3.93,3.67Z" style="fill: #a60000; stroke-width: 0px;"/>
      <path d="M265.38,244.46c-.26-1.07-.66-1.81-1.5-.38-1.26,2.15-2.58,4.27-3.63,6.52-10.71,22.79-22.11,45.23-33.13,67.86-9.04,18.57-18.06,37.17-24.91,56.74-3.3,9.4-2.24,18.59-.24,27.9,5.18,24.03,11.38,47.82,17.1,71.72,3.01,12.57,6.29,25.05,10.07,37.4.21.68.14,1.53,1.19,1.9,1.24-1.67-.36-3.21-.25-4.78.09-1.16-.69-2.76.81-3.34,1.41-.55,1.8,1.12,2.39,1.9,4.36,5.78,7.91,12.08,11.15,18.52,4.37,8.68,8.14,17.66,12.56,26.31,5.73,11.2,11.24,22.5,16.15,34.07,7.4,17.39,14.96,34.74,20.16,52.97,1.84,6.45,1.85,12.69-3.9,17.39-3.88,3.17-8.43,5.32-13.29,6.5-2.82.68-5.3-.11-6.97-2.99-4.56-7.87-6.63-16.61-8.96-25.23-5.71-21.1-11.25-42.24-16.88-63.36-.19-.7-.55-1.35-1.33-1.9,1.21,5.89,2.35,11.79,3.63,17.67,5.49,25.33,11.03,50.65,16.52,75.98.26,1.2.07,2.5.28,3.72.4,2.33-.41,3.55-2.83,3.77-.96.09-1.9.53-2.84.82-4.06-3.86-4.49-9.26-5.77-14.2-4-15.43-7.75-30.92-11.53-46.41-1.27-5.22-2.33-10.5-3.49-15.75-.15-1.38.67-1.06,1.29-.64,1.25.84,1.4,2.29,1.76,3.6,4.87,18.07,10.11,36.03,15.58,53.93.58,1.89,1.2,3.79,2.76,5.84-1.18-8.38-3.16-16.07-4.94-23.8-8.99-38.91-18.33-77.73-27.29-116.65-4.64-20.15-9.57-40.24-14.21-60.4-4.78-20.76-10.2-41.37-14.32-62.28-1.1-5.56-.59-11.15-.48-16.73.31-3.16,1.46-6.09,2.65-8.99.97-1.27,1.99-2.52,2-4.25.51-2.31,1.26-4.52,2.59-6.5,1.11-1.09,1.88-2.35,1.93-3.96.18-1.04.54-2,1.15-2.86,1.12-1.07,1.8-2.36,1.86-3.94.18-1.05.56-2.02,1.18-2.88,1.77-1.93,2.98-4.14,3.29-6.78.19-1.06.56-2.04,1.18-2.93,2.02-2.36,3.5-5,4.02-8.11.07-.52.19-1.03.36-1.53.54-1.3,1.2-2.53,2.12-3.6,2.1-3.28,4.09-6.61,5-10.46.06-.51.18-1.01.34-1.5.23-.65.53-1.26.85-1.87.41-.76.92-1.46,1.48-2.12,3.43-5.76,6.18-11.86,8.91-17.97,1.95-4.24,4.34-8.27,6.04-12.63,1.24-1.98,2.34-4.02,3.04-6.26,3.49-7.17,6.78-14.45,10.76-21.35,3.86-6.7,7.24-13.63,10.86-20.45,1.44-2.71,2.11-2.72,3.43-.51-.91,4.53-2.64,8.84-3.51,13.38-.6,1.37-.31,3.25-2.22,3.86Z" style="fill: #c71616; stroke-width: 0px;"/>
      <path d="M291.49,123.66c9.7,12.39,18.23,25.59,26.6,38.89,8.51,13.51,16.75,27.16,22.67,42.05,1.56,3.91,2.75,7.97,4.11,11.97,1.43,1.09,1.68,2.75,2.14,4.32,1.98,8.82,2.6,17.71.85,26.63-.54,2.77-1.1,5.63-3.07,7.89-1.82.84-3.28,3.27-5.62,1.92-2.23-1.29-1.42-3.79-1.47-5.81-.11-4.04.02-8.09-.26-11.77-.16,5.7-2.09,11.28-5.27,16.44-1.8,2.91-4.07,5.36-7.11,7-1.45.78-3,1.43-4.52.16-1.53-1.28-1.13-2.88-.58-4.47.5-1.42,1.32-2.68,2.08-3.96,3.39-5.71,4.62-11.89,4.09-18.45-.18-.52-.49.33-.08.04.16-.11.32.02.22.27-.38.99,1.19,2.89-1.33,2.89-1.04-1.46-.74-3.15-.83-4.77.21-1.61-.34-3.12-.57-4.68-.93-8.66-4.56-16.43-7.94-24.29-8.8-19.11-20.6-36.4-32.49-53.63-8.71-12.62-18.1-24.73-28.55-35.96-3.64-3.91-7.78-7.34-12.11-10.51-1.2-.88-2.54-1.6-3.26-3.02-5.14-5.05-11.37-7.1-18.39-6.05-7.6,1.14-12.17,5.95-14.11,13.25-1.82,6.87-1.72,13.97-.76,20.84,4.19,29.9,11.85,58.94,22.51,87.2,4.27,11.31,10.2,21.66,17.59,31.2.53,1.31.15,2.41-.77,3.38-.35.22-.74.32-1.16.3-3.97-2.5-6.92-6.02-9.37-9.92-5.34-8.5-9.19-17.74-12.51-27.15-8.58-24.39-15.73-49.2-19.69-74.81-1.66-10.75-2.46-21.6.33-32.29,3.7-14.15,18.51-20.22,31.53-13.43,11.32,5.9,20.04,14.73,28.2,24.19,13.96,16.19,26.05,33.76,37.56,51.75,4.69,8.37,9.87,16.45,14.26,25.01,5.46,10.67,11.28,21.15,14.58,32.76.6,2.12,1.43,4.21,1.28,6.46.47-6.86-.85-14.46-3.98-22.98-5.83-15.91-14.11-30.58-22.99-44.91-11.64-18.78-23.91-37.16-37.87-54.32-4.8-5.9-9.76-11.67-15.08-17.12-1.6-1.64-4.18-3.7-2.29-5.97,1.67-2.02,4.22.05,6.08,1.09,7.95,4.46,14.43,10.73,20.26,17.58,20.73,24.35,37.65,51.27,52.49,79.5,7.34,13.96,13,28.61,15.4,44.36.54,3.52-.28,7.23,1.48,11.13,1.89-4.46,1.73-8.67,1.3-12.78-1.15-10.89-4.5-21.18-8.98-31.16-10.49-23.36-24.89-44.35-39.29-65.35-1.84-2.68-3.44-5.5-5.37-8.12-.58-.79-1.75-1.96.09-2.83Z" style="fill: #141414; stroke-width: 0px;"/>
      <path d="M297.54,662.32c-.25-2.16,1.83-2.28,2.92-2.94,6.43-3.88,8.95-9.74,8.96-16.9.02-6.97-.22-13.91,2.21-20.65.85-2.35,1.36-4.86,3.08-6.71,4.56-4.9,3.19-10.25,1.5-15.73-4.85-15.7-11.71-30.63-17.43-45.99-.25-.67-.82-1.31.15-2.74,13.94,25.02,26.7,50.34,43.04,74.75-1.59-9.55-6.28-16.99-8.8-25.96,1.97,1.28,2.66,2.66,3.35,3.96,7.06,13.31,14.04,26.66,21.16,39.94,2.52,4.71,5.21,9.35,8.08,13.85,2.63,4.13,4.65,4.46,9.12,2.33,4.87-2.32,8.72-6.13,13.26-8.93.7-.43,1.21-1.43,2.16-.42-5.86,5.21-12.11,9.9-18.43,14.53-5.99,4.39-15.58,3.64-19.62-4.69-2.28-4.7-4.87-9.25-7.09-13.98-1.04-2.23-2.04-2.9-4.47-1.83-11.95,5.26-23.96,10.37-35.97,15.48-2.34,1-4.79,1.75-7.19,2.62Z" style="fill: #910101; stroke-width: 0px;"/>
      <path d="M299.67,171.64c-3.95-5.71-7.9-11.42-11.86-17.12-9.57-13.79-19.33-27.43-30.89-39.7-6.86-7.29-14.19-13.77-23.05-18.63-11.92-6.53-26.69-.53-30.07,12.6-2.69,10.46-2.09,21.06-.46,31.49,3.94,25.22,10.84,49.73,19.28,73.8,3.54,10.11,7.63,20.02,13.33,29.15,2.23,3.57,5.46,6.36,8.37,9.39-.65,3.72-1.14,7.53-5.11,9.46-12.25-16.01-20.02-34.26-26.48-53.14-6.84-20-12.65-40.3-16.72-61.05-2.69-13.73-4.57-27.6-1.93-41.55,2.42-12.83,8.75-22.9,21.64-27.69.65,1.26.7,1.33-.65,2.14-2.33,1.4-4.73,2.67-6.53,4.78-12.52,10.33-14.08,24.29-12.96,39.13.11,1.48.32,2.95.31,4.44.55,11.07,3.11,21.78,5.76,32.48,3.38,13.94,7.36,27.7,12.46,41.13-3.21-12.7-6.62-25.34-9.51-38.11-3.33-14.71-6.1-29.51-5.53-44.71.05-1.37-.04-2.75.25-4.1.68-2.52.96-5.12,1.72-7.64,3.84-12.66,15.16-19.62,28.33-17.37,2.49.42,4.88,1.63,8.01,1.31-1.63-2.57-3.78-4.11-5.45-6.06-.88-1.03-2.01-2.06-1.27-3.61.69-1.45,2.13-1.56,3.52-1.66,3.29-.25,8.86,1.12,15.41,3.82-1.18-1.27-3.36-1.48-2.91-3.65.01-.06.18-.11.28-.11.12,0,.24.05.36.08,8.57,4.31,16.1,9.97,22.35,17.28-1.57,3.23-3.6,1.41-5.16.23-4.49-3.38-9.06-6.6-13.91-9.45-2.07-1.21-4.26-2.08-6.49-2.86-1.24-.43-2.6-.95-3.89.14.2,1.7,1.6,2.51,2.64,3.49,21.97,20.87,39.34,45.32,55.49,70.77,7.7,12.13,14.66,24.65,21.21,37.42.51,1,1.07,1.98,1.41,3.06.34,1.09.68,2.36-.63,2.95-1.25.57-2.16-.33-2.73-1.36-1.93-3.48-4.06-6.86-5.7-10.5-3.28-7.31-8.16-13.65-12.22-20.49Z" style="fill: #454545; stroke-width: 0px;"/>
      <path d="M197.06,378.34c-1.6,15.59,3.42,30.19,6.81,45.01,6.92,30.26,14.01,60.48,21.1,90.71,4.74,20.19,9.69,40.34,14.4,60.54,6.37,27.33,12.6,54.68,18.88,82.03.34,1.46.48,2.93-.21,4.76-2.34-2.07-3.3-4.71-4.07-7.31-4.55-15.24-8.96-30.53-13.45-45.79-1.12-3.8-2.51-7.51-3.02-11.47-.1-.79-.2-1.97-1.56-1.05-2.7-10.71-5.45-21.42-8.11-32.14-4.48-18.1-8.98-36.2-13.35-54.33-4.65-19.31-9.11-38.67-13.74-57.99-3.46-14.43-7.13-28.82-10.58-43.25-.8-3.33-2.08-6.59-2.12-10.08-.28-.81-.75-1.9.28-2.23,1.07-.34,1.34.92,1.58,1.69,1.48,4.77,2.51,9.66,3.83,14.48,4.94,18.06,10.25,36.01,15.33,54.03,4.99,17.65,9.67,35.39,14.77,53.02.21.73.22,1.48.35,2.22-9.13-43.59-20.96-86.58-29.37-130.33-.4-2.37-.14-4.76-.29-7.13.31-2.05-.75-4.75,2.56-5.35Z" style="fill: #e23f3f; stroke-width: 0px;"/>
      <path d="M299.67,171.64c4.86,5.53,8.63,11.81,11.91,18.32,2.01,4.01,4.32,7.85,6.29,11.87.41.85,1.15,2.09,2.2,1.57,1.26-.62.25-1.77-.15-2.57-5.95-11.92-12.25-23.65-19.32-34.96-9.82-15.7-20.06-31.11-31.48-45.71-8.52-10.89-17.91-21.01-27.83-30.64-1.15-1.12-3.71-2.31-2.55-3.99,1.24-1.8,3.86-.98,5.84-.25,6.84,2.54,12.71,6.69,18.53,11,1.81,1.34,3.48,4.47,6.58,1.94,7.75,8.07,15.57,16.09,21.83,25.44.47,3.85,3.38,6.4,5.37,9.31,11.46,16.73,22.79,33.51,32.51,51.35,5.44,9.99,10.3,20.21,13.49,31.11,2.55,8.72,4.54,17.59,2.58,26.8-.28,1.33-.17,3.17-1.81,3.26-1.9.11-1.21-1.89-1.34-2.92-.92-7.25-1.56-14.52-3.48-21.63-4.03-14.9-10.69-28.65-18.04-42.1-6.21-11.36-12.97-22.4-20.21-33.12-7.85-11.63-15.6-23.33-24.93-33.9-6.21-7.03-12.57-13.79-20.52-18.88-2.05-1.31-5.37-3.66-6.45-2.2-1.59,2.15,1.76,4.07,3.37,5.81,10.34,11.11,19.85,22.88,28.63,35.26,11.73,16.55,23,33.4,32.79,51.15,7.38,13.39,14.57,26.97,17.3,42.33.68,3.84.24,7.62.41,12.11-1.95-2.29-2.02-4.59-2.61-6.65-3.41-11.94-9.03-22.87-14.88-33.74-4.19-7.79-8.29-15.62-13.32-22.92-.53-.77-.67-1.59-.69-2.47Z" style="fill: #383838; stroke-width: 0px;"/>
      <path d="M346,220.38c-.38-1.27-.76-2.54-1.13-3.8,13.06,4.7,26.17,9.27,39.18,14.12,19.8,7.37,39.64,14.63,58.94,23.29,9.68,4.34,14.49,12.47,18.52,21.48,29.91,66.86,59.85,133.7,89.72,200.57,4.04,9.04,8.61,17.88,11.44,27.43-.29,9.8-8.95,12.85-14.89,17.75-14.07,11.6-28.57,22.71-43.09,33.75-12.95,9.85-26.11,19.4-39.27,28.96-5.93,4.3-12.08,8.29-18.14,12.42-.7-.56-1.09-1.35-1.59-2.07-1.6-2.3-.74-3.86,1.63-4.55,7.26-2.11,13.27-6.1,18.63-11.35,3.21-3.15,7.3-5.21,10.93-7.85,8.36-6.08,16.35-12.66,24.5-19,6.99-5.84,14.9-10.41,22.18-15.87,10.76-8.07,21.76-15.84,32.05-24.53,4.17-3.52,4.78-6.04,2.94-11.21-3.18-8.93-7.35-17.45-11.13-26.13-6.27-14.38-12.55-28.77-19.12-43.02-5.48-12.84-11.35-25.5-17.03-38.25-6.89-15.49-13.82-30.96-20.8-46.4-8.17-18.05-16.06-36.23-24.19-54.3-3.78-8.41-7.41-16.88-12.02-24.89-2.27-3.95-5.59-6.6-9.55-8.64-13.35-6.87-27.57-11.63-41.6-16.81-17.9-6.61-35.85-13.06-53.9-19.26-1.21-.41-2.24-1.06-3.22-1.84Z" style="fill: #d73434; stroke-width: 0px;"/>
      <path d="M195.63,391.05c1.96,11.1,4.72,22.01,7.29,32.98,3.65,15.59,7.25,31.19,10.84,46.78,3.65,15.83,7.27,31.67,10.86,47.52.28,1.25.47,2.6-.61,5.02-12.08-42.97-23.88-84.96-35.68-126.93-.08.41-.19.98-.3,1.55-3.88-11.35-2.2-22.21,2.47-32.99,13.02-30.04,27.79-59.25,41.91-88.77,2.25-4.71,4.53-9.41,6.79-14.12,2.6-2.67,3.33-6.35,5.11-9.46.22-.09.43-.16.66-.22,1.27,1.85-.12,3.37-.76,4.86-4.52,10.54-10.05,20.6-15,30.94-6.51,13.59-13.28,27.06-19.74,40.68-5.07,10.69-10.41,21.25-14.75,32.26-2.17,5.18-4.59,10.29-5.9,15.76-1.28,5.3-1.64,10.64,2.45,15.21,1.16,1.29,1.66,3.06,2.81,4.86.8-1.18.36-2.29.51-3.27.07-.99.16-1.97,1.03-2.65Z" style="fill: #ea5e5e; stroke-width: 0px;"/>
      <path d="M208.3,84.69c1.36-2.2,3.75-3.02,5.77-4.35.64-.42,2.1-.18,1.66-1.69,9.42-3.91,18.73-3.38,27.95.7.42.91,1.16,1.1,2.07.94.67-.13,1.18.12,1.57.65-.86,1.9,1.1,1.5,1.78,2.01,1.09.82,2.32,1.41,3.03,3.01-1.92.22-3.38-.68-4.9-1.28-4.3-1.7-8.68-3.05-13.38-2.97-1.01.02-2.13-.05-2.63,1.01-.56,1.19.55,1.79,1.21,2.47,1.47,1.53,3.05,2.96,4.48,4.53.86.95,2.73,1.79,1.78,3.28-.98,1.55-2.68.47-4.07.08-2.99-.84-5.99-1.61-9.14-1.63-13.46-.09-22.89,8.16-24.61,21.59-.11.86.05,1.77-.72,2.42-.39.16-.73.09-1.02-.2-.86-1.24-.66-2.6-.44-3.96,1.86-11.33,10.04-19.89,21.34-22.33.36-.08.75-.11,1.09-.23,1.34-.49,3.55-.16,3.71-1.88.19-2.1-2.12-2.44-3.66-3.09-2.93-1.24-5.82-.84-8.7.35-1.3.54-2.59,1.71-4.15.58Z" style="fill: #707171; stroke-width: 0px;"/>
      <path d="M491.43,578.13c-.63-2.12-1.78-.61-2.58-.27-2.98,1.26-5.87,2.76-8.88,3.94-1.15.45-2.37,1.48-4.1.48,4.58-4.71,9.89-8.32,14.81-12.39.87-.72,1.64.04,2.44.25.96,2.99,1.03,5.79-1.7,8Z" style="fill: #be2423; stroke-width: 0px;"/>
      <path d="M245.74,80.29c-1.24.88-2,.74-2.07-.94l2.07.94Z" style="fill: #454545; stroke-width: 0px;"/>
      <path d="M265.38,244.46c.47-1.3.94-2.61,1.41-3.91,2.02-8.49,6.86-15.65,10.93-23.17.71-1.31,1.54-2.7,3.33-2.6,1.1.06,1.27,1.02,1.34,1.94,0,.39-.06.77-.15,1.14-1.3,5.77-3.18,11.41-4.05,17.28-.45,2.57-1.34,5.06-1.63,7.67-.06.37-.16.72-.27,1.08-.84,3.01-1.66,6.03-2.06,9.15-.07.39-.18.77-.32,1.14-7.61,32.2-14.57,64.55-22.26,96.73-3.08,12.88-5.74,25.84-8.61,38.76-1.46,5.29-1.86,10.75-2.5,16.16-.16,1.36-.48,2.57-1.94,2.81-1.47.24-2.23-.89-2.75-2.08-1.11-2.51-.91-5.11-.45-7.73,2.35-13.53,4.92-27.02,7.59-40.48,2.67-13.47,4.44-27.06,6.54-40.61,1.72-11.16,4.51-22.11,6.76-33.17.24-1.19.05-2.5.72-3.61h0c1-1.08-.17-2.64.82-3.72,2.52-10.93,5.04-21.86,7.57-32.79Z" style="fill: #f3a6a6; stroke-width: 0px;"/>
      <path d="M256.99,280.97c.2,4.81-1.46,9.34-2.42,13.92-2.26,10.82-4.39,21.67-5.61,32.65-2.72,24.35-8.6,48.14-12.67,72.25-.31,1.86-.47,3.74.17,5.55.38,1.08.25,2.85,2.02,2.64,1.43-.17,1.17-1.65,1.34-2.74.73-4.67,1.48-9.33,2.26-13.99.1-.58.45-1.11.69-1.67.59,1,.51,2,.06,3.02-.71,1.92-.88,3.93-.84,5.95-.81,1.16.12,2.62-.66,3.78-.03.99-.06,1.98-.09,2.97-.7,2.06-.14,4.19-.35,6.28-.11,1.13.63,2.66-1.13,3.14-1.61.44-2.49-.73-3.4-1.78-3.94-4.53-4.26-9.85-3.41-15.43,2.73-17.88,6.27-35.61,10.16-53.27.18-.84-.12-1.75.35-2.56,2.88-13.5,5.7-27.02,8.68-40.5,1.49-6.77,2.53-13.65,4.84-20.22Z" style="fill: #ea5959; stroke-width: 0px;"/>
      <path d="M243.47,341.7c.02,5.51-1.82,10.72-2.75,16.07-2.42,13.9-5.06,27.75-7.64,41.62-1,5.38,1.35,9.64,4.41,13.69.53.69,1.22,1.38,2.2,1.04,1.08-.38.75-1.42.86-2.25.29-2.18-.66-4.48.68-6.55-.06,3.96.04,7.92,1.11,11.76.31,1.11.25,2.19-.65,2.61-.85.39-1.4-.78-2-1.35-6.63-6.29-9.15-13.79-6.82-22.79.3-1.16.09-2.46.12-3.7,1.81-12.4,4.68-24.6,7.25-36.86.94-4.46,1.44-9.04,3.23-13.3Z" style="fill: #c73a3a; stroke-width: 0px;"/>
      <path d="M257.81,277.26c-.03,1.29.39,2.68-.82,3.71-.04-1.31-.32-2.67.82-3.71Z" style="fill: #ea5959; stroke-width: 0px;"/>
      <path d="M501.97,552.18c-2.18,3.19-5.86,4.47-8.76,6.75-11.55,9.09-23.22,18.03-35.02,26.79-3.03,2.25-6.44,4.13-10.39,4.73-2.13.32-3.26,1.45-1.17,3.45.69.66.65,1.57.65,2.45-7.84,4.56-15.66,9.12-24.12,12.54-8.32,3.35-16.16,2.77-22.95-2.88-4.81-4-10.64-5.85-15.73-9.15-5.31-3.44-11.14-6.18-16.22-9.8-5.67-4.05-11.23-8.39-16.57-12.99-10.31-8.89-16.73-20.48-24.01-31.56-4.91-7.47-10.11-14.74-14.91-22.3-4.8-7.56-8.93-15.49-13.25-23.3-7.58-13.7-15.19-27.42-21.85-41.57-7.16-15.21-15.57-29.81-22.03-45.34-2.95-7.09-3.39-14.49-2.61-22.25,1.18-11.74,3.13-23.32,5.49-34.84,3.98-19.42,8.18-38.8,12.26-58.21.48-2.3.81-4.63,1.21-6.94-.56-.95-.3-1.94-.09-2.91,2.26-10.08,4.44-20.19,7.88-29.96,1.04-2.95,2.36-5.77,4.26-8.27,3.01-3.94,7.15-4.47,10.5-.9,3.33,3.54,7.35,6.12,11.02,9.18-.33,2,1.14,3.62,1.18,5.55-4.49,4.49-2.8,9.67-1.53,14.72.64,2.53,1.95,4.85,3.38,7.05,7.19,10.39,20.56,10.31,27.63-.25,3.5-5.22,5.29-10.92,3.96-17.29-.18-.85-.23-1.72-.09-2.6.29-1.29.9-2.29,2.36-2.46,2.45.6,2.8,2.7,3.04,4.65,1.39,11.41-3.64,27.44-19.12,32.41-2.28.73-3.21,2.03-3.17,4.36.13,7.09.02,14.14,1.31,21.21,1.51,8.32,1.91,16.89,4.67,24.93,1.74,5.08,1.71,10.22,2.1,15.38.37,4.86,3.41,8.79,4.71,13.33.17.59.63,1.1.78,1.7,1.99,7.96,7.28,13.38,13.66,18.03,1.51,1.1,2.9,2.52,1.75,4.74-2.49,1.27-5.22.66-7.84.99-2.71-1.5-5.55-1.19-8.36-.47-15.72,4.06-25.48,14.59-31.09,29.3-4.7,12.31-3.04,24.58,1.34,36.6,3.6,9.89,9.1,18.58,17.1,25.55,7.3,6.35,15.4,10.06,25.39,7.76,3.96-.91,7.69-2.15,10.61-5.14,1.16-.71,2.56-.56,3.77-1.07.73-.26,1.45-.54,2.25-.49.4.09.74.28,1.03.57.5,3.65,2.51,6.48,4.74,9.3,3.49,4.42,4.33,10.02,6.19,15.16,1.29,3.56,2.79,6.95,5.4,9.74.92.98,1.85,2.43,3.37,1.78,1.32-.57,1.1-2.19.95-3.37-.61-4.84-.44-9.72-.79-14.56-.73-10.07-.9-20.17-1.46-30.24-.04-.75-.12-1.49-.25-2.23.16-1.99.4-3.93,3.12-3.84,2.42,2.34,2.2,5.43,2.27,8.39.29,12.47.98,24.9,2.23,37.31.29,2.92,1.25,5.6,2.78,8.07,3.18,5.15,8.61,6.53,13.91,3.55,1.2-.67,2.36-1.39,3.53-2.12,2.24-.84,4.69-.84,6.95-1.62.39-.05.78-.03,1.16.06,1.87.7,3.57,1.78,5.41,2.55,3.57,1.51,5.97,4.15,7,7.82.73,2.61,2.34,4.22,4.46,5.71,8.52,6,17.76,10.67,27.29,14.73,9,3.83,17.62,1.69,25.75-2.98,2.71-1.56,5.5-2.95,8.17-4.56,1.03-.62,2.14-1.45,3.42-.42Z" style="fill: #c73a3a; stroke-width: 0px;"/>
      <path d="M304.98,255.56c-.21-.43-.35-1.19-.63-1.25-4.79-1.01-7.24-5.03-10.47-8.03-3.15-2.93-6.6-2.68-9.08.89-4.71,6.8-6.28,14.78-8.3,22.58-1.55,5.99-3.01,11.99-4.52,17.99-2.4,4.81-3.01,10.15-4.43,15.25-3.13,11.22-6.33,22.43-9.55,33.63-1.78,6.19-3.65,12.36-5.49,18.54-.23.76,0,2.54-1.51.74-.86-1.3-.35-2.62-.05-3.94,5.67-24.81,11.29-49.64,16.95-74.45,1.84-8.09,3.74-16.17,5.53-24.27h0c.87-3.21,1.62-6.46,2.26-9.73h0c.68-2.77,1.44-5.52,1.94-8.33.8-5.01,2.17-9.89,3.59-14.75.74-1.71,1.18-3.52,1.72-5.3,4.17-13.88,21.14-12.91,27.18-5.58,5.31,6.44,10.5,12.97,14.28,20.48.14,1.49,1.1,2.85.65,4.42-2.14.31-3.12-1.39-4.12-2.67-3.68-4.71-7.83-9-11.68-13.56-2.75-3.26-6.04-5.91-10.1-7.45-3.12-1.18-5.57-.12-7.6,2.32-2.06,2.48-2.47,5.03-.52,7.82,5.97,8.58,10.64,17.95,16.26,26.75,1.96,3.07,1.09,5.77-2.31,7.89Z" style="fill: #cf1d1d; stroke-width: 0px;"/>
      <path d="M273.44,253.23c-.57,7.45-2.83,14.56-4.47,21.79-5.85,25.85-11.81,51.68-17.7,77.53-.25,1.08-.18,2.22-.27,3.34-2.54,7.37-3.45,15.12-5.2,22.67-1.08,4.66-2,9.36-2.99,14.04-.02-1.01-.04-2.01-.06-3.02,2-12.4,4.82-24.64,7.59-36.88,7.35-32.5,14.84-64.97,22.29-97.45.16-.7.53-1.35.8-2.02Z" style="fill: #c73a3a; stroke-width: 0px;"/>
      <path d="M241.32,402.35c.08-1.29-.42-2.67.66-3.78-.09,1.28.48,2.68-.66,3.78Z" style="fill: #c73a3a; stroke-width: 0px;"/>
      <path d="M195.57,394.13c-.38,1.61,1.03,4.23-.82,4.65-1.76.4-2.17-2.38-2.8-3.87-1.29-3.06-4.32-4.97-4.72-8.72-.59-5.54.58-10.63,2.62-15.57,1.32-3.19,2.14-6.63,4.23-9.49,6.52-13.42,13.13-26.79,19.93-40.08,6.69-13.07,12.91-26.42,19.79-39.37,8.11-15.27,13.51-31.97,24-45.99.3-.4.43-.9.62-1.36.9-1.91,1.83-3.8,3.66-5.05,1.96-.83,3.07-.35,3.01,1.95-4.35,9.89-9.73,19.28-14.41,29.02-1.13,2.35-2.33,4.66-3.4,7.04-1.28,2-2.18,4.18-3.03,6.38-.1.32-.24.62-.41.9-.96.79-1.02,2.02-1.47,3.06-1.43,2.89-2.94,5.74-4.28,8.67-.6,1.06-1.21,2.11-1.52,3.3-2.33,5.24-5.04,10.3-7.45,15.51-.78,1.16-1.73,2.23-2.01,3.67-.03.59-.09,1.17-.7,1.48-1.11.8-.67,2.18-1.2,3.19-1.25,2.47-2.53,4.93-3.68,7.45-1.08,1.6-2.25,3.15-2.68,5.09-.02.47-.05.93-.07,1.4-1.74,2.63-2.79,5.62-4.36,8.34-.29.97-.59,1.93-.88,2.9-1.51,2.12-2.25,4.64-3.64,6.83-.28.98-.56,1.96-.83,2.94-1.03,1.09-1.26,2.64-2.14,3.81-.29.97-.58,1.94-.87,2.92-1.02,1.1-1.23,2.66-2.16,3.81-.78,2.23-1.55,4.45-2.33,6.68-.97,1.13-1.08,2.74-2.13,3.82-.79,2.97-1.58,5.94-2.37,8.91-2.21,1.25-1.26,3.43-1.56,5.24-.44,3.52-.59,7.03.06,10.55Z" style="fill: #f19292; stroke-width: 0px;"/>
      <path d="M246.52,267.5c3.83-9.2,8.73-17.87,13.04-26.83,1.51-3.13,3.23-6.15,4.85-9.22,2.59-8.03,7.39-14.9,11.85-21.9,2.27-3.57,5.48-6.58,9.84-7.63,1.32-.32,1.7-1.9,3.12-1.8,1.37-.01,2.62.35,3.72,1.17.25.31.34.66.27,1.04-.28.59-.71,1.13-1.33,1.22-4.38.63-7.06,3.83-10.29,6.37-3.87,3.03-5.99,6.9-7.53,11.31-1.41,1.8-.65,4.93-3.56,5.8-.13-.41-.1-1.24-.74-.83-.56.36-.9,1.15-1.21,1.82-6.19,13.27-14.36,25.52-20.03,39.05-.42,1-1.25,1.84-1.88,2.75-.13-.11-.26-.23-.4-.34-.13-.7-.18-1.38.3-1.99Z" style="fill: #e23f3f; stroke-width: 0px;"/>
      <path d="M270.48,227.04c1.62-1.69,1.2-4.38,2.93-6.02,2.17-4.5,5.12-8.45,8.71-11.91,1.39-1.34,2.79-2.2,3.09.83-1.47,2.31-1.01,5.53-3.46,7.37-.18-.67.22-1.69-.73-1.9-1.01-.22-1.58.7-1.98,1.42-3.07,5.55-6.06,11.14-9.12,16.68-1.25,2.26-1.38,5-3.12,7.03.79-4.62,2.06-9.11,3.69-13.51Z" style="fill: #ed7575; stroke-width: 0px;"/>
      <path d="M228.56,304.97c2.48-5.26,4.96-10.52,7.44-15.78.35-.36.64-.79,1.18-.9.15.08.29.17.44.25-2.39,6.52-5.31,12.77-9.15,18.58-.44-.74-.44-1.45.09-2.15Z" style="fill: #e23f3f; stroke-width: 0px;"/>
      <path d="M237.51,286.22c1.04-3.24,2.68-6.18,4.43-9.06.72-.31.26-1.58,1.31-1.61.12.09.24.18.36.27-1.18,4.63-3.66,8.65-6.01,12.72,0,0-.19-.14-.19-.14-.41-.74-.38-1.47.08-2.18Z" style="fill: #e23f3f; stroke-width: 0px;"/>
      <path d="M221.08,320.71c.74-2.76,2.11-5.21,3.65-7.59.76-.22.16-1.91,1.56-1.43-.78,4.19-2.89,7.75-5.3,11.17-.44-.74-.46-1.46.1-2.15Z" style="fill: #e23f3f; stroke-width: 0px;"/>
      <path d="M214.42,335.72c.54-3.26,1.42-6.33,4.36-8.34-.59,3.23-1.51,6.29-4.36,8.34Z" style="fill: #e23f3f; stroke-width: 0px;"/>
      <path d="M209.89,345.45c.35-2.74,1.02-5.3,3.64-6.83-.32,2.75-1.08,5.27-3.64,6.83Z" style="fill: #e23f3f; stroke-width: 0px;"/>
      <path d="M203.89,358.92c-.06-1.71.14-3.28,2.16-3.81-.02,1.67-.14,3.28-2.16,3.81Z" style="fill: #e23f3f; stroke-width: 0px;"/>
      <path d="M246.62,269.83c-.34,2.32-1.18,4.4-3,5.98,0,0-.18-.13-.18-.13-.37-.5-.32-.98.03-1.47h.01c1.14-1.41.79-3.79,2.95-4.53l.19.15Z" style="fill: #e23f3f; stroke-width: 0px;"/>
      <path d="M206.92,352.2c-.12-1.74.13-3.27,2.14-3.81-.02,1.66-.17,3.25-2.14,3.81Z" style="fill: #e23f3f; stroke-width: 0px;"/>
      <path d="M199.43,369.43c.28-1.51.16-3.25,2.13-3.82-.02,1.66-.14,3.26-2.13,3.82Z" style="fill: #e23f3f; stroke-width: 0px;"/>
      <path d="M221.08,320.71c-.03.72-.06,1.43-.1,2.15-.71,1.04-1.42,2.09-2.13,3.13-.07-2.1.86-3.79,2.23-5.28Z" style="fill: #ec6b6a; stroke-width: 0px;"/>
      <path d="M228.56,304.97c-.03.72-.06,1.43-.09,2.15-.45.55-.91,1.11-1.36,1.66-.19-1.53.28-2.8,1.45-3.81Z" style="fill: #ec6b6a; stroke-width: 0px;"/>
      <path d="M226.29,311.69c-.52.48-1.04.96-1.56,1.43.08-1.24.21-2.45,1.68-2.86-.04.48-.08.95-.12,1.43Z" style="fill: #ec6b6a; stroke-width: 0px;"/>
      <path d="M352.11,399.95c-.18-2.09-1.75-3.05-3.17-4.31-3.63-3.23-8.19-5.6-10.22-10.4-2.66-6.3-5.49-12.54-7.85-18.96-.95-2.58-1.61-5.74-1.01-8.31,1.02-4.43-1.21-7.97-2.17-11.78-1.96-7.72-2.57-15.64-4.14-23.38-1.55-7.63-1.11-15.25-1.39-22.88-.08-2.19.54-3.38,2.85-3.99,12.66-3.31,18.63-14.04,19.55-25.74.27-3.5,1.3-7.57-2.44-10.28-.55-1.94.56-3.19,1.82-4.37,4.47-8.5,4.14-17.62,3.38-26.77-.24-2.82-.87-5.6-1.32-8.4,10.45,2.84,20.5,6.85,30.67,10.5,16.95,6.09,33.87,12.29,50.71,18.69,7.77,2.95,15.55,5.95,22.45,10.84,3.32,2.36,5.3,5.65,7,9.04,8.79,17.55,16.42,35.64,24.33,53.6,5.57,12.64,11.32,25.19,16.95,37.8,9.13,20.44,18.24,40.89,27.3,61.37,1.25,2.82,3.34,5.31,3.55,8.56,7.17,16.81,14.57,33.53,21.39,50.49,2.05,5.09,4.14,10.16,5.3,15.56,1.36,6.34.36,8.65-4.75,12.48-5.56,4.18-11.92,7.14-18.3,9.17-6.62,2.11-13.95,2.69-21.04.94-2.59-.64-5.13-1.07-7.69.09-.46.21-1.03.49-1.44.33-5.38-2.06-11.34.05-16.67-2.35-2.21-1-4.08-2.42-5.59-4.28-2.05-2.52-4.47-4.12-7.85-4.5-5.53-.63-9.26-4.67-13.4-7.78-3.59-2.69-6.83-5.86-11.54-6.53-.75-.11-1.43-.56-1.86-1.18-1.05-1.54-2.22-2.02-4.1-1.26-1.82.74-3.67-.18-5.46-.69-3.67-1.04-4.94-.46-6.17,3.22-.95,2.83-1.64,5.75-2.56,8.59-.26.8-.07,2.2-1.69,1.84-.78-.74-1-1.72-1.02-2.71-.26-11.63-1.68-23.19-2.32-34.8-.09-1.6-.11-3.22.32-4.79,2.2-3.07,3.23-.13,3.9,1.08,2.24,4.04,4.66,7.94,7.48,11.6,3.54,4.6,8.19,7.61,13.65,9.35,6.32,2.01,14.72-1.05,17.25-6.15.13-.36.35-.65.65-.88,2.03-.82,4.34-.64,6.3-1.73,5.11-1.3,8.7-5.23,13.18-7.62,6.24-1.7,10.49,1.14,14.75,5.48,4.96,5.06,9.92,10.25,15.46,14.6,4.12,3.24,9.84,3.98,14.77,6.04,3.98,1.67,8.09,2.25,12.43,1.99,5.03-.29,6.39-1.66,5.84-6.77-.53-4.89-2.38-9.42-4.03-14-8.92-24.79-19.6-48.87-30.07-73.02-15.04-34.68-30.33-69.25-45.91-103.69-3.75-8.3-7.31-16.68-11.29-24.88-3.71-7.65-8.93-13.36-17.25-16.08-6.28-2.06-12.5-4.28-18.8-6.3-5.69-1.82-11.65,4.59-9.46,9.88,2.4,5.8,3.61,11.88,3.37,18.25-.09,2.32.36,4.86,1.53,6.89,3.1,5.36,3.26,11.46,4.74,17.21.19.73.32,1.5.17,2.23-.91,4.42.67,8.33,2.24,12.3,1.16,2.93,1.86,5.94-.52,8.8-1.21,1.46-.97,3.34-.62,5.05,1.69,8.32,3.5,16.54,8.64,23.68,3.72,5.16,6.83,10.76,9.02,16.77,1.71,4.7,4.82,7.38,9.78,8.07,2.22.31,4.45.75,6.47,1.78,1.19.61,2.86,1.08,2.54,2.79-.28,1.51-1.9,1.33-3.09,1.54-.49.09-.98.21-1.46.33-.76.16-1.52.17-2.29.03-8.98-2-15.49,2.91-21.88,7.96-2.74,2.17-4.71,5.09-6.83,7.86-.94,1.22-1.79,2.8-3.83,2.26-.78-.96-.88-2.19-1.26-3.3-.34-1.61-.31-3.25-.33-4.89.08-1.85.16-3.7-.46-5.49-.4-2.09-.29-4.21-.32-6.32.09-1.86.21-3.73-.41-5.55-.37-1.86-.3-3.74-.32-5.61.1-1.42.06-2.83-.41-4.19-.37-1.78-.3-3.59-.31-5.38.02-1.29.16-2.6-.34-3.84-1.64-5-3.69-9.64-9.53-11-2.49-.82-5.02.1-7.53-.21-6.96-2.03-12.95,1.43-15.18,8.76-1.63,5.35-1.62,10.88-1.06,16.29.57,5.58.71,11.17,1,16.74.44,8.43,1.33,16.86,1.06,25.32-.04,1.24-.05,2.5-.87,3.55-2.43,1.23-2.99-1.04-3.88-2.26-3.99-5.44-8.49-10.28-14.5-13.53-2.63-1.43-5.4-2.42-8.35-2.95-1.38-.59-3.18-.02-4.24-1.51Z" style="fill: #d65858; stroke-width: 0px;"/>
      <path d="M292.93,201.71c-1.18-.34-2.36-.67-3.54-1.01-1.54-.66-2.93.65-4.44.37-6.68.22-11.77,3.25-15.73,8.58-6.11,8.21-11.18,17.01-15.62,26.2-.74,1.52-1.15,3.8-3.81,3.18-5.31-6.47-8.09-14.26-11.2-21.83-4.39-10.7-8.51-21.52-11.63-32.68-4.88-17.48-9.62-34.99-11.6-53.13-.57-5.23-.46-10.43-.58-15.65-.06-2.64.47-5.2,1.17-7.73,3.03-11.01,15.24-13.15,23.77-5.29,15.41,10.5,26.53,25.07,37.43,39.79,11.34,15.31,21.96,31.13,31.39,47.7,2.91,5.11,5.45,10.42,8.17,15.64-1.57,1.48-3.28.59-4.86.15-4.27-1.16-8.59-2.13-12.94-2.94-1.91-.82-4.2.05-5.98-1.35Z" style="fill: #fefefe; stroke-width: 0px;"/>
      <path d="M239.73,102.72c-1.91-.88-3.78-1.88-5.74-2.62-8.65-3.22-15.93.89-17.47,9.99-1.73,10.23-.53,20.37,1.17,30.5,2.22,13.26,5.63,26.21,9.27,39.15,5.51,19.57,12.19,38.62,21.82,56.58.53.99,1.18,1.9,1.78,2.85.84,1.52-.05,2.93-.28,4.39-1.42,2.04-1.54,5.05-4.45,5.98-4.53-4.12-7.78-9.22-10.61-14.53-10.72-20.14-16.81-41.94-22.37-63.9-2.83-11.18-5.5-22.4-7.26-33.79-1.31-8.47-1.79-17.05-.29-25.6,2.19-12.46,12.67-18.94,24.88-15.31,3.24.96,6.23,2.5,9,4.45.66.47,1.8.82.55,1.87Z" style="fill: #0d0d0d; stroke-width: 0px;"/>
      <path d="M304.98,255.56c2.67-3.04,2.96-5.69.38-9.42-4.66-6.73-8.47-14.05-12.65-21.11-.5-.85-1.03-1.7-1.63-2.49-3.14-4.12-3.24-6.42-.41-10.01,2.68-3.39,5.7-4.15,9.89-2.24,4.15,1.89,7.31,5,10.37,8.35,4.77,5.21,8.75,11.14,14.12,15.81.1,1.76.2,3.52.3,5.28,1.68,3.15-.16,5.78-1.44,8.35-3.09,6.24-8.5,9.78-14.82,12.13-.81.3-1.68.48-2.5-.05-.61-1.51-3.29-2.28-1.62-4.6Z" style="fill: #a90101; stroke-width: 0px;"/>
      <path d="M306.6,260.16c8.52-2.93,15.66-7.37,18.17-16.79.31-1.18.4-2.43.59-3.64,1.07-.98.26-2.4.8-3.5,2.55,7.15-.48,14.72-3.82,20.29-1.14,1.9-3.52,4.22-1.28,6.18,2.23,1.95,4.4-.69,6.02-2.08,5.66-4.84,7.98-11.5,9.3-18.57.25-1.34.42-2.65,1.26-3.94,1.78,4.94.76,9.95,1.07,14.85.08,1.29-.69,2.92.77,3.77,1.52.88,2.48-.5,3.54-1.32.17-.13.62.09.94.14-.61,1.46-1.21,2.92-1.82,4.37-.72.58-1.31,1.24-1.34,2.23-2.66,6.48-8.18,10.22-13.67,13.84-4.59,3.02-9.74,5.02-14.97,6.71-1.43.46-2.88.94-4.28-.12-3.83-5.23-5.2-11.1-4.75-17.52.18-2.49,1.02-4.18,3.48-4.89Z" style="fill: #000; stroke-width: 0px;"/>
      <path d="M245.82,249.54l3.79-5.99c.4-.72.34-1.7,1.2-2.17,2.14-1.41,4.03-3.08,5.57-5.15.69-.92,1.32-2.14,2.86-1.69-1.36,3.8-4.11,6.76-6.2,10.11-4.3,6.92-6.92,14.62-10.54,21.84-7.86,15.67-15.88,31.27-23.78,46.92-7.18,14.23-14.26,28.5-21.44,42.72-.89,1.75-2.13,3.33-3.2,4.98,1.04-5.05,3.56-9.52,5.67-14.12,4.64-10.14,9.63-20.13,14.5-30.16,5.25-10.83,10.65-21.59,15.76-32.48,4.69-9.99,10.18-19.6,14.37-29.83.28-.68.4-1.42.6-2.13.28-.95.56-1.9.84-2.85Z" style="fill: #ec6b6a; stroke-width: 0px;"/>
      <path d="M299.09,202.22c4.67.48,9.17,1.67,13.66,3,1.25.37,2.54,1.05,3.96.63,3,6.51,5.55,13.18,7.28,20.15.33,1.35.52,2.66.41,4.03-3.73-2.75-4.81-7.42-7.84-10.72-2.33-2.54-4.21-5.49-6.29-8.26-6.5-8.63-22.89-7.8-26.14,3.49-.56,1.94-.93,4.13-2.42,5.75-.49-1-.53-1.99.03-2.97,0,0,0,0,0,0,1.9-2.14,1.12-5.35,2.98-7.51,1.62-3.37,4.4-5.3,7.97-5.99,1.43-.28,2.45-1.03,3.54-1.8.96-.03,1.93-.2,2.86.2Z" style="fill: #d94242; stroke-width: 0px;"/>
      <path d="M208.3,84.69c1.45-.01,2.54-.96,3.79-1.5,4.58-1.97,10.41-1.09,13.55,1.95,1.68,1.62,1.49,2.77-.64,3.53-1.39.5-2.84.96-4.3,1.18-12.79,1.96-21.13,13.4-21.39,25.54,0,.22.01.44.02.66.3,4.69-.54,9.34-.5,14.03,0,.62-.07,1.24-.31,1.81-.39.95-.94,1.84-2.1,1.76-1.47-.11-1.1-1.34-1.18-2.26-.07-.84.2-1.73-.36-2.51-.95-7.96-.93-15.9.66-23.8,1.7-8.41,5.79-15.31,12.77-20.41Z" style="fill: #9e9f9f; stroke-width: 0px;"/>
      <path d="M199.3,115.41c.27.01.55.03.82.04-.98,18.71,2.43,36.88,6.89,54.9,2.77,11.21,5.65,22.38,8.49,33.57.18.73.48,1.42-.16,2.67-2.81-3.79-4.17-7.95-5.43-12.08-3.05-9.98-5.9-20.03-8.79-30.06-.24-.82-.19-1.72-.27-2.59,1.29-3.94.38-7.85-.4-11.69-2.36-11.54-2.25-23.13-1.13-34.77,0,0-.01,0-.01,0Z" style="fill: #6c6c6c; stroke-width: 0px;"/>
      <path d="M199.32,115.41c-.12,12.53-.13,25.03,2.92,37.32.56,2.24-.12,4.68.68,7,.57,1.65-.56,2.21-2.07,2.14-3.21-10.77-5.46-21.72-5.98-32.97.21.3.48.57.63.89.47,1.03-.51,3.15.99,3.08,2.03-.1,1.26-2.3,1.32-3.64.22-4.64.38-9.28,1.5-13.82Z" style="fill: #707171; stroke-width: 0px;"/>
      <path d="M195.57,394.13c-1.2-3.51-1.06-7.02-.06-10.55.04,2.49.08,4.98.13,7.46-.02,1.03-.04,2.06-.07,3.08Z" style="fill: #ec6b6a; stroke-width: 0px;"/>
      <path d="M426.23,505.13c.03-4.54,1.8-8.68,3.26-12.82.92-2.6,3.06-3.47,6.07-2.32,2.26.86,4.86,2.95,7.35-.19.83-1.05,1.82.17,2.17,1.12.81,2.19,2.28,3.04,4.6,2.88,1.26-.08,2.33.76,3.34,1.52,4.05,3.07,8.15,6.07,12.15,9.21,2.32,1.83,4.9,3.24,7.76,3.32,3.53.1,5.69,1.88,7.65,4.42,3.61,4.66,9.91,6.71,15.39,5.1.57-.17,1.28-.36,1.79-.17,6.7,2.58,13.77,1.07,20.64,1.77,13.12,1.33,24.17-4.97,34.51-12.28,3.12-2.21,2.57-5.75,1.93-8.95-1.43-7.1-4.41-13.69-7.13-20.35-5.97-14.6-12.04-29.16-18.1-43.73-.39-.94-.73-1.85-.65-2.87,3.51,6.02,6.02,12.51,8.85,18.84,6.59,14.73,13.01,29.53,19.44,44.32,1.13,2.6,2.2,5.26,2.98,7.98,1.83,6.45-3.02,9.42-7.05,12.62-16.61,13.17-33.97,25.32-51.2,37.64-3.52.98-6.51,3.09-9.55,4.93-4.87,2.95-10.03,5.22-15.55,5.88-4.33.52-8.95-.02-13.05-1.96-9.87-4.67-19.72-9.4-28.59-15.9-1.14-.84-2.4-1.57-2.62-2.98-.84-5.4-4.2-8.45-9.04-10.37-1.16-.46-2.82-.5-3.24-2.19-.05-.37-.14-.81.13-1.07,5.04-4.81,5.05-10.99,4.84-17.29-.07-2.04-.56-4.25.93-6.09Z" style="fill: #df5151; stroke-width: 0px;"/>
      <path d="M281.74,217.32c-.01.99-.02,1.98-.03,2.97-1.26,4.98-2.52,9.95-3.78,14.93-.16.37-.37.42-.65.12.81-6.17,2.4-12.16,4.47-18.02Z" style="fill: #ed7575; stroke-width: 0px;"/>
      <path d="M275.7,243.5c.1,3.44-.76,6.67-2.26,9.74.07-3.4.98-6.61,2.26-9.74Z" style="fill: #c73a3a; stroke-width: 0px;"/>
      <path d="M277.27,235.33c.22-.03.44-.07.65-.12-.38,2.86-.79,5.71-2.23,8.28-.12-2.85,1.07-5.44,1.58-8.17Z" style="fill: #c73a3a; stroke-width: 0px;"/>
      <path d="M356.71,400.79c9.1,1.28,15.38,6.92,20.95,13.62,1.57,1.9,2.97,3.94,4.45,5.91,2.96,1.94,3.33,5.52,5.16,8.17.97,1.86,1.68,3.83,2.56,5.73,3.97,11.3,5.32,22.7,1.43,34.33-1.19,2.43-1.47,5.39-3.99,7.08-1.33.92-1.84,2.35-2.39,3.77-3.13,7.23-9.53,10.73-16.05,14.09-.98.51-2.02,1.03-3.16.35-.24-.04-.49-.08-.73-.11-6.83,2.2-13.25.71-18.78-3.26-13.7-9.83-21.51-23.6-24.88-39.92-2.19-10.61-.72-20.83,4.4-30.44,3.51-6.59,8.64-11.83,14.17-16.72,2.29-2.03,5.18-2.54,7.96-2.8,2.93-.27,5.95-.48,8.9.2Z" style="fill: #c4c4c4; stroke-width: 0px;"/>
      <path d="M426.23,505.13c.07,3.35.04,6.71.22,10.06.31,5.83-1.35,10.76-6.12,14.39-.26.03-.51.06-.77.09-6.83,2.51-12.09-1.22-13.55-9.03-1.21-6.49-1.33-13.11-1.77-19.69.31-9.24-1.43-18.35-1.89-27.54-.64-12.81-1.91-25.57-2.69-38.37-.56-9.19-1.2-18.38-1.88-27.57-.73-9.93-1.23-19.88-1.8-29.82-.29-5.09-1.12-10.15-.8-15.29.24-3.83,1.13-7.36,3.49-10.46,1.91-2.51,4.18-3.86,7.4-2.78,6.35,1.08,8.23,6.06,9.84,11.28.62,1.21-.14,2.62.56,3.82.06,1.97.13,3.95.19,5.92.62,1.21-.13,2.62.55,3.82.07,1.97.14,3.95.22,5.92.65,1.72-.24,3.59.55,5.3.06,2.23.12,4.46.18,6.69.68,1.71-.23,3.59.57,5.29.07,1.74.13,3.48.2,5.21.19,1.91.52,3.78,1.39,5.51.76,3.67-.35,7.46.79,11.1.55,8.43,1.47,16.84,1.79,25.28-.06,1.82-.33,3.66.19,5.46.12.38.21.78.27,1.18.21,2.99.24,6,.67,8.98-.06.64-.33,1.18-.79,1.62.13,14.25,2.14,28.38,2.53,42.61,0,.34.28.68.42,1.02Z" style="fill: #d4d4d4; stroke-width: 0px;"/>
      <path d="M359.62,495.48c-1.1,2.15-3.08,3.04-5.21,3.92-11.64,4.82-21.93,2.19-31.11-5.72-12.97-11.18-19.86-25.83-21.91-42.47-2.91-23.61,13.34-46.95,35.03-51.42,2.47-.51,5.27-1.69,7.49.88-2.76,1.81-5.72,3.21-8.92,4.08-1.66.02-3.19.52-4.63,1.32-15.91,8.89-23.73,22.55-22.81,40.66.73,14.27,6.14,26.9,15.9,37.5,6.87,7.45,15.08,11.77,25.54,10.8,2.48-.23,4.99.19,7.46-.33.78-.18,1.56-.21,2.34-.02.4.15.66.42.81.81Z" style="fill: #be2423; stroke-width: 0px;"/>
      <path d="M335.2,403.85c2.99-.83,5.48-3.01,8.71-3.18,2.73-.24,5.47-.48,8.2-.71,1.5.46,3.23-.34,4.59.84-5.28.26-10.84-.87-15.44,2.88-14.12,11.51-22,25.59-19.26,44.55,1.91,13.18,7.72,24.34,16.28,34.16,6.96,7.98,15.57,12.73,26.65,11.35-.34.67-.99.72-1.62.8-1.43.83-3.14-.21-4.56.7-.71.07-1.42.15-2.13.22-.18-.04-.35-.08-.53-.12-7.83-.53-14.26-4.2-19.95-9.23-6.18-5.47-10.92-12.26-16.26-18.49-9.14-15.96-9.76-37.1,1.3-51.9,3.7-4.96,7.77-9.77,14.02-11.84Z" style="fill: #9c9c9c; stroke-width: 0px;"/>
      <path d="M365.66,493.84c8.02-2.67,13.98-8.06,19.21-14.44.73.42,1.03,1.1.96,1.88-.45,5.24.79,10.39.77,15.61-.04,10.18.87,20.31,1.46,30.46.09,1.51.74,3.61-1.25,4.28-2.04.69-3.43-1-4.71-2.36-4.77-5.09-6.1-11.75-8.25-18.05-1.4-4.1-2.93-8.16-6.73-10.73-1.24-.84-1.74-1.71-1.08-3.1.6-1.26.27-2.42-.38-3.55Z" style="fill: #c44; stroke-width: 0px;"/>
      <path d="M307.86,282.58c12.79-2.66,23.57-8.65,31.7-19.06.38-.48.81-.91,1.22-1.37,2.21,9.53-.28,17.65-7.31,24.41-7.51,7.23-20.41,5.23-25.62-3.99Z" style="fill: #a60202; stroke-width: 0px;"/>
      <path d="M405.34,501.23c.53,6.32.86,12.65,1.63,18.94.87,7.09,4.23,9.46,12.6,9.51-1.94,1.72-4.37,1.4-6.67,1.6-.22,0-.45,0-.67,0-9.21-1.13-12.44-4.36-13.14-13.49-1.17-15.27-2.23-30.54-3.13-45.83-.22-3.67-1.67-7.37.12-11.02,2.77-.62,2.62,1.73,2.98,3.18,1.85,7.5,2.49,15.2,3.55,22.83.26,1.85.35,3.67,1.67,5.21,1.15,1.35.55,3.1.7,4.69.13,1.46-.4,2.98.37,4.38Z" style="fill: #828282; stroke-width: 0px;"/>
      <path d="M387.26,475.63c.99-2.24,1.99-4.48,2.98-6.72,2.21.99,1.83,3.05,1.94,4.85.88,15.18,2.05,30.34,3.78,45.44.95,8.36,3.23,10.27,11.68,10.96,1.7.14,3.45.38,5.06,1.08,0,0,.19.04.19.04-3.58,3.49-7.7,5.68-12.76,3.96-5.77-1.96-8.12-6.97-8.9-12.38-1.14-7.95-.94-16.09-1.85-24.04-.88-7.72,1.04-15.71-2.12-23.18Z" style="fill: #be2423; stroke-width: 0px;"/>
      <path d="M358.76,495.22c1.39-1.06,3.02-.58,4.56-.7-1.01,1.18-2.52.43-3.69.96-.29-.09-.58-.17-.87-.26Z" style="fill: #666363; stroke-width: 0px;"/>
      <path d="M284.67,200.19c1.61-.16,3.24-.56,4.71.51-2.78,2.35-6.57,2.97-9.22,5.67-4.52,4.6-7.1,10.44-10.52,15.73-1.94,3-2.73,6.66-5.23,9.35.27-1.98-.57-2.27-2.17-1.43-.9-1.07-.25-2.13,0-3.2,2.83-6.34,6.46-12.22,10.12-18.1,2.9-4.65,6.73-7.8,12.3-8.52Z" style="fill: #ec6b6a; stroke-width: 0px;"/>
      <path d="M262.99,227.03c-.25,1-.5,1.99-.74,2.99-1,1.51-2,3.01-3,4.52-3.01,2.21-4.34,6.28-8.27,7.47-.81-2.92,1.53-4.69,3-6.27,2.42-2.61,4.89-5.16,7.1-7.96.45-.57,1.07-1.05,1.92-.74Z" style="fill: #ea5e5e; stroke-width: 0px;"/>
      <path d="M246.43,269.68c-.98,1.51-1.96,3.01-2.95,4.52.24-2.58,1.48-4.72,3.04-6.7-.03.73-.06,1.46-.09,2.18Z" style="fill: #ec6b6a; stroke-width: 0px;"/>
      <path d="M237.51,286.22c-.03.73-.05,1.45-.08,2.18-.48.26-.95.53-1.43.79.21-1.14.56-2.21,1.51-2.97Z" style="fill: #ec6b6a; stroke-width: 0px;"/>
      <path d="M243.47,274.21c0,.49-.02.98-.03,1.47-.5.49-1,.98-1.49,1.47.04-1.22.28-2.34,1.52-2.94Z" style="fill: #ec6b6a; stroke-width: 0px;"/>
      <path d="M296.04,202.38c-.14.83,0,2.06-1.14,2.02-4.47-.14-7.13,2.95-10.17,5.4-1.37-1.22-1.8-1.14-3.24.72-2.7,3.49-5.38,7-8.08,10.49,2.75-9.39,8.97-15.28,18.23-18.11.47-.14.92-.38,1.37-.58,1.02-.54,2.03-.59,3.03.05Z" style="fill: #ec6b6a; stroke-width: 0px;"/>
      <path d="M296.04,202.38c-1.01-.02-2.02-.03-3.03-.05-.04-.21-.07-.41-.09-.62,2.08-.12,4.17-.43,6.16.51-1.02.05-2.03.11-3.05.17Z" style="fill: #ed7575; stroke-width: 0px;"/>
      <path d="M454.04,386.34c1.38-.31,2.76-.62,4.67-1.05-2.47-2.07-4.89-2.78-7.45-3.19-5.36-.84-10.01-2.43-11.99-8.4-2.92-8.81-9.08-15.95-13.09-24.2-3.1-6.37-4.56-13.3-5.09-20.38-.07-.86-.2-1.97.59-2.45,3.28-1.97,2.01-5.02,1.15-7.21-1.72-4.41-2.68-8.64-2.83-13.51-.16-5-.62-10.44-3.06-15.16-2.4-4.66-3.7-9.54-3.31-14.73.4-5.32-2.09-9.9-3.25-14.82-1.68-7.14,3.26-12.01,10.44-10.45,7.71,1.67,14.9,4.78,22.25,7.49,7.04,2.6,11.34,8.09,14.28,14.53,11.32,24.78,22.56,49.59,33.54,74.52,13.4,30.39,26.67,60.85,39.68,91.41,6.67,15.66,13.44,31.32,18.1,47.76.56,1.97.52,3.95.74,5.9.34,2.95-2.1,4.77-5.7,5.08-6.38.55-12.3-1.14-18.04-3.58-2.63-1.12-5.15-2.39-8.02-2.85-2.32-.37-4-1.97-5.39-3.73-4.62-5.9-11.1-9.87-15.91-15.64-2.81-3.37-7.38-3.44-11.66-2.7-.32-1.3.57-2.1,1.27-2.94,12.22-14.62,12.3-30.9,6.23-47.83-2.92-8.15-7.35-15.48-13.53-21.71-5.81-5.85-12.46-9.44-20.93-8.92-.99.06-2,0-2.95-.38-.38-.17-.63-.46-.76-.86Z" style="fill: #e67373; stroke-width: 0px;"/>
      <path d="M454.95,386.64c12.42-1.5,21.3,4.39,28.48,13.72,8.51,11.08,13.45,23.63,13.75,37.59.26,11.92-4,22.42-12.48,31.02-3.8,3.19-7.65,6.28-12.57,7.61-11.69,3.17-20.36-2.04-27.57-10.41-7.95-9.23-13.32-19.87-15.04-32.05-2.62-18.51,3.58-33.93,18.55-44.74,2.08-1.5,4.52-2,6.88-2.75Z" style="fill: #d9d9d9; stroke-width: 0px;"/>
      <path d="M405.34,501.23c-1.35-1.35-.67-3.07-.75-4.62-.09-1.88-.47-3.25-1.89-4.87-2.25-2.56-1.14-6.36-1.76-9.59-1.25-6.54-2.13-13.16-3.18-19.74-.13-.79-.69-1.3-1.38-1.66-1.46-1.26-1.72-3.03-1.79-4.75-.47-12.29-1.77-24.51-2.43-36.79-.35-6.57-1.29-13.09-1.4-19.68-.75-9.25-1.04-18.54-1.92-27.79-.45-4.71-.75-9.41.2-14.07.39-1.94,1.09-3.82,2.43-5.37,1.97-1.88,3.92-3.83,7.02-3.34,2.55-.41,5.1-1.33,7.61.16-5.26.26-9.32,4.92-9.63,11.64-.35,7.58.49,15.13,1.21,22.68.47,4.95.4,9.92.81,14.88,1.12,13.61,1.35,27.29,2.49,40.89,1.41,16.82,2.45,33.66,3.8,50.48.31,3.85.63,7.67.57,11.53Z" style="fill: #a7a7a7; stroke-width: 0px;"/>
      <path d="M454.95,386.64c-8.77,4.04-15.54,10.35-19.99,18.82-7.15,13.6-6.27,27.6-.9,41.53,2.66,6.9,6.44,13.25,11.36,18.75,6.36,7.1,13.84,12.14,24.09,10.8.85-.11,1.74.03,2.61.05-2.06,1.45-4.5,1.25-6.81,1.57-2.5,1.49-5,.69-7.52.04-3.98-1.02-7.32-3.58-11.28-4.64-5.61-2.96-9.27-7.92-12.61-12.99-6.16-9.37-10.6-19.56-11.37-30.89-.97-14.23,3.62-26.45,14.23-36.22,4.23-2.9,8.13-6.42,13.54-7.07.5-.06.96-.14,1.41.13.77-.06,1.54-.12,2.32-.17.3.1.61.2.91.3Z" style="fill: #a9a9a9; stroke-width: 0px;"/>
      <path d="M398.48,348.97c-2.15.59-3.92,1.85-5.63,3.22-5.04,2.65-7.14,6.98-7.34,12.5-.25,7.23.74,14.4,1.02,21.61.27,6.95,1.01,13.88,1.16,20.85.13,5.83,1.05,11.64.67,17.49-.1,1.47.54,3.38-1.75,3.92-1.51-2.74-3.01-5.49-4.52-8.23,1.74-4.31,1.15-8.92.55-13.16-.9-6.3-.52-12.61-1.03-18.9-.63-7.75-1.59-15.57-.97-23.4.51-6.34,1.82-12.42,8.04-15.81,3.14-1.71,6.51-2.45,9.8-.1Z" style="fill: #b42929; stroke-width: 0px;"/>
      <path d="M446.87,472.91c1.63-.34,2.81.72,4.06,1.39,4.5,2.42,9.22,3.93,14.38,3.86-.02.2-.03.41-.02.61-6.36,4.74-13.39,4.34-20.27,1.95-7.53-2.62-13.17-7.89-17.34-14.68-1.3-2.11-2.4-4.38-4.43-5.96-.66-3.22-.93-6.47-.74-9.76,2.5-1.07,2.59,1.19,3.23,2.46,2.42,4.82,5.4,9.23,9,13.27,4.53,5.09,10.12,8.42,16.34,10.48-1.43-1-4.06-.83-4.2-3.62Z" style="fill: #b33131; stroke-width: 0px;"/>
      <path d="M423.24,460.08c2.42,0,2.78,2.24,3.75,3.66,4.14,6.09,8.78,11.62,15.58,14.91,6.91,3.34,13.86,3.81,20.9.35.52-.26,1.21-.16,1.82-.23,1.22,2.24-.96,2.75-2.02,3.53-8.32,6.05-18.84,4.89-26.97-2.96-4.05-3.9-7.11-8.55-9.7-13.51-.86-1.63-1.42-3.48-3.31-4.33-.01-.47-.03-.95-.04-1.42Z" style="fill: #df5151; stroke-width: 0px;"/>
      <path d="M451.72,386.52c-5.32,1.32-9.8,4.23-14.1,7.47-6.08,2.68-9.76,7.77-13,13.19-1.77,2.96-3.55,6.03-3.48,9.72.01.73-.21,1.49-.97,1.89-.98-3.68-.38-7.45-.72-11.17-.26-.77-.5-1.54.22-2.22,1.91-1.12,2.95-3.04,4.14-4.75,4.28-6.12,10.08-10.26,16.76-13.3,3.6-1.64,7.3-2.24,11.15-.84Z" style="fill: #c23a3a; stroke-width: 0px;"/>
      <path d="M419.67,405.4c-.07.74-.15,1.48-.22,2.22-.91-1.68-.55-3.48-.49-5.25.93.85.45,2.03.71,3.03Z" style="fill: #e67373; stroke-width: 0px;"/>
      <path d="M418.76,397.16c-1.03-1.67-.58-3.5-.57-5.29,1.2,1.65.51,3.51.57,5.29Z" style="fill: #e67373; stroke-width: 0px;"/>
      <path d="M418.01,385.18c-1.03-1.68-.57-3.51-.55-5.3,1.19,1.66.5,3.52.55,5.3Z" style="fill: #e67373; stroke-width: 0px;"/>
      <path d="M417.24,373.97c-.93-1.17-.59-2.51-.55-3.82,1.07,1.15.58,2.52.55,3.82Z" style="fill: #e67373; stroke-width: 0px;"/>
      <path d="M416.5,364.23c-.9-1.17-.63-2.51-.56-3.82,1.07,1.14.59,2.51.56,3.82Z" style="fill: #e67373; stroke-width: 0px;"/>
      <path d="M262.99,227.03c-3.41,3.8-6.82,7.6-10.22,11.4-.92,1.03-1.61,2.17-1.79,3.57-.46.52-.91,1.03-1.37,1.55-.55-1.65,1.12-2.82.94-4.38,4.48-7.86,8.27-16.11,13.32-23.66,2.49-3.72,5.03-7.38,8.33-10.46,3.52-3.28,7.66-4.93,12.47-4.87-.14.21-.25.56-.42.59-8.48,1.6-11.31,8.96-15.22,15.11-2.26,3.55-4.04,7.41-6.04,11.14Z" style="fill: #e73939; stroke-width: 0px;"/>
      <path d="M212.14,124.45c2.27,3.98,2.11,8.07,2.84,11.92,2.3,12.17,5.2,24.2,8.23,36.21,2.67,10.58,6.43,20.86,8.57,31.58.21,1.03,1.21,2.47-.16,2.92-1.36.45-1.89-1.1-2.37-2.28-6.07-14.86-10.32-30.28-14.21-45.83-2.2-8.8-3.56-17.71-4.4-26.71-.23-2.52-.47-5.18,1.51-7.81Z" style="fill: #252525; stroke-width: 0px;"/>
      <path d="M391.69,399.3c1.56,20.48,3.12,40.97,4.68,61.45.54,8.82,1.03,17.64,1.62,26.45.67,10.06,1.38,20.11,2.19,30.16.18,2.2.53,4.49,1.35,6.52,1.3,3.26,3.57,5.63,7.42,5.96,1.33.11,2.7.39,3.74,1.4-2.7,0-5.37-.32-8.11-.16-5.15.29-9.03-3.87-9.65-10.34-1.17-12.35-1.83-24.76-3.25-37.08-.57-4.91.4-9.98-1.45-14.74,3.7-11.88,2.32-23.55-1.38-35.14-1.66-4.58-.63-9.37-.97-14.05-.4-5.55-.96-11.17-.15-16.77.2-1.36.25-2.74.7-4.04.4-1.17.85-2.74,2.29-2.51,1.4.23.38,1.98.97,2.9Z" style="fill: #4e0101; stroke-width: 0px;"/>
      <path d="M343.18,430.03c.84-1.51,2.17-2.42,3.71-3.07,1.91-.63,3.11.62,4.16,1.79,7.23,8.09,12.75,17.14,15.24,27.82.63,2.7.59,5.49-.65,8.05-1.04,2.16-2.34,4.19-5.28,3.83-1.22-.55-2.39-1.16-3.19-2.29.61-13.25-6.2-23.57-13.34-33.76-.49-.7-1.05-1.41-.65-2.36Z" style="fill: #4a0202; stroke-width: 0px;"/>
      <path d="M391.69,399.3c-.32-.77-.64-1.54-1.27-3.04-4.25,12.79-1.1,25.24-1.56,37.51-1.07-1.6-1.8-3.35-2.24-5.22,1.72-4.33,1.05-8.93.51-13.2-.73-5.82-.68-11.67-1.01-17.46-.64-11.28-2.01-22.54-1.75-33.87.16-6.9,2.66-10.35,8.48-11.84-2.46,3.02-3.42,6.57-3.22,10.35.55,10.53,1.24,21.04,1.87,31.57.1,1.73.13,3.46.19,5.19Z" style="fill: #740303; stroke-width: 0px;"/>
      <path d="M360.36,468.44c3.57-1.13,5.02-3.84,5.33-7.32.18-1.99-.09-3.96-.66-5.9-2.84-9.72-7.75-18.27-14.54-25.74-.98-1.08-2-2.26-3.6-2.53,2.55-1.44,5.37-1.28,7.3.52,9.58,8.97,16.63,19.47,17.39,33.04.37,6.66-4.47,9.83-11.22,7.92Z" style="fill: #999; stroke-width: 0px;"/>
      <path d="M343.18,430.03c6.4,8.15,11.61,16.91,14.41,27.01.88,3.19.35,6.11-.41,9.12-7.92-8.81-14.26-18.44-15.58-30.6-.21-1.97-.08-4.01,1.58-5.53Z" style="fill: #b03333; stroke-width: 0px;"/>
      <path d="M420.17,418.79c.51-10.67,6.58-18.03,14.5-24.26.77-.61,1.75-1.61,2.95-.54-16.01,15.62-18.68,36.89-7.26,58.59,4.14,7.86,8.98,15.2,16.51,20.33,1.61,2.19,4.38,2.53,6.44,4.06-6.04.16-10.9-2.71-15.2-6.39-5.91-5.05-10.55-11.16-13.55-18.42-.38-.92-.78-1.88-2.05-1.84,0,0,.02.01.02.01-.78-1.68.11-3.54-.56-5.23-.6-8.77-1.2-17.54-1.79-26.32Z" style="fill: #620404; stroke-width: 0px;"/>
      <path d="M421.96,445.11c1.02,1.66.74,3.45.56,5.23-.83-1.68-.7-3.45-.56-5.23Z" style="fill: #b33131; stroke-width: 0px;"/>
      <path d="M335.2,403.85c-10.48,6.94-17.86,16.09-20.31,28.68-2.4,12.35.16,23.92,5.82,34.95,4.1,6.09,7.78,12.48,13.23,17.57,6.43,5.99,14.01,9.3,22.7,10.2,0,0-.02.2-.02.2-16.82,2.06-26.59.36-38.94-16.89-7.73-10.79-11.77-23.06-11.15-36.42.79-17.26,9.28-29.75,24.68-37.58,1.29-.66,2.61-.75,3.99-.71Z" style="fill: #6d0202; stroke-width: 0px;"/>
      <path d="M356.64,495.24c-12.16.36-20.96-5.87-28.17-14.78-3.17-3.91-6.21-8.04-7.76-12.99,5.14,5.15,9.12,11.31,14.37,16.38,5.77,5.57,12.4,9.29,20.32,10.69.44.08.83.45,1.24.69Z" style="fill: #666363; stroke-width: 0px;"/>
      <path d="M454.73,412.18c2.74-1.8,5.3-1.09,7.41.94,8.22,7.94,12.83,17.96,15.7,28.78.89,3.34.42,7.09-2.92,9.43-2.8,1.96-5.79,2.93-8.9.51,4.86-3.35,6-5.93,4.28-11.71-2.87-9.64-7.1-18.59-14.45-25.75-.62-.61-1.32-1.17-1.12-2.2Z" style="fill: #a7a7a7; stroke-width: 0px;"/>
      <path d="M454.73,412.18c8.87,7.75,13.8,17.8,16.86,28.93.61,2.21.62,4.51-.2,6.64-.91,2.37-2.14,4.63-5.37,4.09-.24-.29-.48-.59-.72-.88,3.26-13.46-4.86-23.06-11.26-33.24-.8-1.28-2.56-2.21-1.57-4.18.46-.94,1.27-1.3,2.26-1.36Z" style="fill: #760404; stroke-width: 0px;"/>
      <path d="M463.04,448.73c-6.48-7.82-11.34-16.47-13.33-26.52-.48-2.41-.4-4.96,1.33-7.07,5.66,7.61,10.82,15.52,13.17,24.85.74,2.93,1.54,6.14-1.17,8.74Z" style="fill: #d96363; stroke-width: 0px;"/>
      <path d="M463.04,448.73c1.69-5.06.42-9.83-1.67-14.41-2.37-5.2-5.01-10.25-8.43-14.88-.91-1.24-2.22-2.45-1.91-4.29.48-.53.96-1.07,1.43-1.6,3.77,5.96,8.15,11.52,11.01,18.05,1.4,3.2,2.62,6.42,3.48,9.81.89,3.5.11,6.58-1.66,9.55-1.08-.41-1.67-1.33-2.26-2.23Z" style="fill: #c03434; stroke-width: 0px;"/>
    </g>
  </g>
</svg>