<?xml version="1.0" encoding="UTF-8"?>
<svg id="Layer_1" data-name="Layer 1" xmlns="http://www.w3.org/2000/svg" viewBox="0 0 907.94 976.03">
  <path d="M242.83,475.63c18.05-36.43,36.35-72.75,51.26-110.63,12.99-32.99,24.76-66.39,34.76-100.44,8.22-27.97,15.69-56.11,21.75-84.61,5.8-27.29,10.61-54.77,14.48-82.43,4.03-28.83,6.16-57.97,13.09-86.36,2.47-10.13,8.16-13.13,18.61-9.96-1.18,1.16-2.56.85-4.35.49-.39-.02.67,1.35.33.61-.11-.23.07-.35.52-.31,10.93,1.02,21.39,4.27,32.01,6.76,36.19,8.48,72.36,17.02,108.53,25.55,1.8.42,3.53.98,5.16,1.76,1.63.78,2.52,2.22,1.46,4.01-5.77,9.77-6.1,21-8.1,31.68-3.87,20.66-5.19,41.52-1.55,62.45,2.34,13.46,9.3,24.62,17.48,35.1,4.37,5.6,9.71,10.39,15.03,15.13,3.38,3.02,6.93,5.61,11.71,6.01,2.71.23,4.89,1.91,7.11,3.34,9.46,6.11,19.58,10.66,30.65,13,1.23.26,2.38.48,3.51-.21,10.07-.67,20.18.81,30.24-1.53,27.78-6.47,46.04-23.11,55.22-50.08,6.47-19.01,9.06-38.87,13.56-58.31,1.1-4.76,1.47-10.1,5.91-13.5,4.16-1.64,7.88-1.78,12,.97,4.92,3.29,11.01,4.07,16.69,5.58,35.37,9.4,70.81,18.53,106.28,27.57,5.72,1.46,11.42,2.97,17.02,4.8,8.55,2.79,10.96,6.84,9.2,15.73-2.06,10.38-4.99,20.57-8,30.69-6.06,20.36-9.79,41.1-11.9,62.19-2.71,26.96-8.41,53.4-14.39,79.77-8.95,39.5-19.8,78.47-34.32,116.31-6.03,15.71-11.87,31.52-20.87,46.01-9.08,14.61-17.99,18.3-34.21,12.19-9.4-3.53-17.86-8.65-25.76-14.87-17.94-14.13-36.24-27.66-58.68-34.1-8.83-2.54-17.73-4.4-26.94-4.76-2.59-.1-4.77.54-6.91,1.79-8.4-.77-16.81-1.38-25.21-2.1-1.77-.92-2.06-2.5-.12-2.93,9.85-2.19,14.46-10.72,20.69-17.08,8.36-8.54,15.82-17.96,24.39-26.32,9.65-9.4,18.12-19.76,24.91-31.38,5.17-8.83,6.12-17.96.31-27.07-5.75-9-13.69-14.22-24.59-14.38-1.12-.02-2.51-.38-3.03,1.21.8,3.06,3.64,5.77,1.5,9.28-3.91-.11-4.34-3.71-5.76-6.07-4.26-7.05-10.99-9.59-18.71-6.55-5.8,2.28-10.39,6.32-14.72,10.65-19.29,19.26-38.52,38.57-57.87,57.77-2.01,2-3.58,5.25-7.43,4.21-2.34-2.05-1.27-4.46-.67-6.78,2.71-10.62,5.92-21.2,6.26-32.22,1.15-36.78-16.83-64.45-55.69-72.07-1.29-.25-2.39.21-3.53.63-7.67-.87-14.6-4.51-22.36-5.43-18.45-2.19-34.2,3.5-47.38,15.88-17.33,16.27-26.15,37.35-31.76,59.98-3.66,14.77-4.97,29.55-.73,44.47,4.07,14.33,12.61,25.26,24.93,33.4,5.52,4.16,11.91,6.39,18.41,8.42,2.27.71,4.69,1.12,6.53,2.83,11,3.61,22.25,4.92,33.75,3.55,3.6-.43,7.15-1.16,10.72-.01,3.27,4.46-1.26,6.09-3.38,7.89-9.93,8.4-19.85,16.81-30.01,24.92-12.7,10.14-25.53,20.13-38.45,30-2.6,1.99-4.94,4.22-7.24,6.52-9.94,9.93-10.81,14.88-4.98,27.64.69,1.52,2.38,3.08.4,4.88-6.14.76-8.88-1.24-9.66-7.64-.72-5.88.12-11.83,1.06-17.56.73-4.45-.67-8.44-.65-12.65.01-2.54-2.2-2.61-4.02-2.68-5.29-.2-10.04-1.15-12.83-6.49-1.19-2.28-3.9-2.42-6.02-1.89-7.75,1.95-15.32-.65-22.89-1.09-10.88-.64-21.77-.03-32.69-1.33-17.1-2.04-34.29-3.27-51.27-6.28-.8-.14-1.71-.14-2.36-.56-7.86-5.06-13.35-.97-18.48,4.67-1.09,1.2-2.25,2.36-3.47,3.42-1.65,1.44-3.34,3.89-5.62,2.79-2.33-1.13-1.33-3.95-1.19-6.13.5-2.84,2.44-5.06,3.34-7.73Z" style="fill: #f2d28d; stroke-width: 0px;"/>
  <path d="M640.87,432.15c.4-2.57,2.2-3.21,4.43-3.05,26.09,1.91,49.7,10.43,70.6,26.32,9.34,7.09,18.43,14.64,28.4,20.73,7.79,4.75,16.08,9.02,25.7,9.99,10.06,1.02,15.71-4.7,20.05-12.01,17.5-29.5,27.65-61.98,37.83-94.47,10.05-32.08,18.01-64.67,24.61-97.57,4.09-20.35,7.78-40.79,9.41-61.58,1.76-22.46,8.53-43.95,14.4-65.59,1.64-6.05,3.42-12.08,4.75-18.2,1.59-7.33-.27-10.81-7.57-12.77-25.39-6.84-50.86-13.34-76.29-20.03-19.17-5.04-38.28-10.28-57.49-15.19-6.26-1.6-11.18-7.6-18.5-5.59,5.9-4.41,12.22-2.71,18.52-1.27-.16.64-1.4.86-1.21.9,32.64,7.31,65.07,15.45,97.62,23.14,15.31,3.62,30.56,7.47,45.92,10.89,1.94.43,4.08.65,5.1,2.82,1.66,5.73,2.25,11.37.75,17.36-7.28,29.11-12.36,58.67-17.1,88.28-7.02,43.86-16.77,87.14-28.15,130.06-3.84,14.5-7.86,28.96-12.41,43.26-12.16,40.47-25.98,80.4-42.44,119.32-21.7,51.3-45.3,101.72-76.25,148.24-6.79,10.21-12.86,21.23-22.49,29.38-7.44,8.51-16.18,15.22-26.32,20.36-7.12,3.61-15.19,4.59-22.04,8.67-9.37,5.58-20.72,5.73-30.16,11.23-3.87,2.25-7.22,5.25-11.34,7.12-6.48,2.93-8.34,2.15-10.53-4.8.18-.78-.23.18,0-.6q2.53-8.9-6.32-12.97c-6.34-1.79-10.56.28-13,6.35-1.74,4.33-.33,6.85,5.79,10.31,5.11,2.89,5.18,4.58.56,8.33-2.99,2.43-6.53,3.4-10.16,3.71-5.39.46-9.72,2.58-13.15,6.74-2.62,3.17-6.11,4.35-10.17,4.74-10.28,1-20.63,1.09-30.85.49-6.15-.36-11.96-.92-17.82,1.26-1.31.49-2.83.09-4.22-.27-14.78-3.81-30.17-3.51-45.05-6.69-1.79-.38-3.64-.62-5.45-.22-16.52,3.63-32.55.67-48.59-3.26-10.22-2.5-20.49-4.84-30.88-6.52-1-.16-2.01-.29-2.81.78.48,2.96,3.17,3.97,5.24,5.42,12.91,9.08,23.91,20.1,33.3,32.73,3.68,4.95,6.68,10.29,6.72,16.69.05,8.54-6.59,14-14.01,11.69-3.76-3.74-3.73-9.26-6.46-13.58-12.71-20.14-31.5-31.57-53.67-38.46-7.18-2.23-14.63-3.31-21.82-5.44-13.84-2.15-27.74-3.29-41.74-3.21-8.33.05-16.66.12-24.98-.06-1.99-.04-4.33.02-5.19-2.32-.78-2.14.51-3.92,1.77-5.54,2.19-2.82,5.39-4.22,8.4-5.92,1.31-.74,3.46-1.06,3.12-3.16-.26-1.57-2.05-1.86-3.36-2.26-13.18-4.02-25.99-9.06-38.8-14.12-7.55-2.98-15.22-5.69-22.98-8.11-6.47-2.02-11.95-5.89-17.91-8.73-10.27-4.9-18.48-13.14-29.28-16.96-3.45-1.22-6.6-3.13-9.79-4.92-10.41-5.88-12.83-14.16-6.63-24.48,7.22-12.03,15.58-23.3,24.33-34.25,3.8-4.76,7.46-9.62,11.31-14.33,5.31-6.5,11.51-11.36,20.1-12.6,3.03-.44,5.94-1.3,7.55-4.32,4.8-.93,8.62-2.35,8.8-8.59.11-3.87,3.56-4.06,7-3.44,9.23,1.67,17.65,5.92,26.79,7.95,8.27,1.84,16.41,4.4,24.49,7.06,1.36.45,2.7.93,3.81,1.84,1.56,1.29,3.68,2.67,3.44,4.72-.3,2.57-3.05,2.19-4.95,2.39-2.47.27-4.31,1.07-4.77,3.76-.59,2.2-1.93,3.97-3.31,5.73-1.27,1.63-2.62,3.39-.85,5.39,1.51,1.71,3.62,1.63,5.65,1.11,2.29-.59,3.74-2.23,5.01-4.15.93-1.41.76-3.75,3.19-3.98,1.72.32,3.78,1.74,4.98-.41,4.36-7.83,12.23-6.89,18.9-6.65,8.1.28,16.22.55,24.33.81,5.71.19,11.13,1.55,16.57,3.51,8.46,3.04,17.54,3.19,26.43,3.65,8.7.45,17.43.52,26.17.17,11.11-.45,22.24,1.25,33.36-1.07,6.19-1.3,12.47,1.18,18.8,1.07,6.86-.12,13.32-1.27,19.09-5.2,1.72-1.17,3.64-2.18,5.69-1.79,7.35,1.42,14.55-.61,21.83-.77,2.06-.05,4.07-.09,6,.65,9.54,3.68,19.71,4.61,29.62,6.62,13.03,2.64,25.83-5.23,29.95-18.11,1.86-5.81,4.29-11.41,6.03-17.26.66-2.21,1.6-4.2,4.1-4.86,5.19-.08,7.08,4.77,10.65,7.12,6.55,5.82,14.99,8.19,22.48,12.3,15.87,7.48,32,14.04,49.79,15.27,11.82.82,21.8-4.27,31.51-9.93,31.2-18.17,45.44-46.75,50.26-81.39,2.27-16.34.16-31.52-8.02-45.89-9.05-15.9-23.04-25.35-39.93-31.12-1.79-.61-3.62-.41-5.44-.22-6.44-1.99-12.99-3.76-18.33-8.2Z" style="fill: #f2d28d; stroke-width: 0px;"/>
  <path d="M245.32,610.48c-2.79-11.07,7.1-3.44,9.64-6.81-4.01-7.07-12.22-6.43-18.58-8.72-8.8-3.15-18.22-4.63-27.11-7.87-4.52-1.65-9.26-2.66-13.9-3.98-2.92-.83-3.42,1.02-3.75,3.25q-1.23,8.32-9.73,8.25c-1.02-.23-1.6-.89-1.88-1.87-1.43-3.74-3.6-7.36-1.91-11.62l-.08.03c13.73-17.19,23.78-36.75,35.46-55.25.66-1.12,1.32-2.24,1.99-3.36,3.01-3.15,5.27-6.76,6.66-10.91.24-.43.48-.87.72-1.3,3.72-4.55,6.38-9.73,8.94-14.97.33-.7.65-1.4.98-2.1,2.03-1.6,2.55-4.16,3.92-6.18l-.07.08c1.7-.75,1.06-3.94,3.78-3.61,1.6,1.54-1.25,3.54,1.93,6.04,3.07-3.46,6.13-7.44,9.73-10.83,4.06-3.83,8.12-6.51,14.44-2.64,6,3.67,13.65,2.77,20.54,4.03,15.18,2.77,30.78,2.17,46.01,5.02,5.25.98,10.62-1.12,16.08-.68,9.42.77,18.77,2.75,28.33,1.59,3.64-.44,7.49-1.1,8.72,4.77.76,3.64,5.41,3.63,8.85,3.64,4.6,0,7.17-.76,7.38,6.69.23,8.3-.86,16.32-1.21,24.46-.32,7.38,1.91,10.21,8.8,10.42.9.01,1.64.41,2.32.95,2.58,2.99,6.72,4.37,8.5,8.2.55,2.17-.15,3.84-1.65,5.5-4.96,5.48-4.97,12.99-.2,19.19,4.73,6.16,12.83,8.79,18.84,4.37,9.64-7.09,20.57-10.25,31.73-13.27,2.37-.64,4.46-1.92,6.51-3.25,20.36-13.25,38.45-29.01,53.61-48.08,2.21-2.77,4.22-7.1,9.17-3.84.84,6.03-1.95,11.49-2.86,17.24-2.62,16.51,1.2,31.32,10.41,45.01,1.43,2.12,3.6,3.98,2.94,7-1.78.14-3,.9-3.58,2.73-2.04,6.56-4.37,13.03-6.21,19.64-3.76,13.48-21.57,21.37-35.01,18.59-14.79-3.05-29.36-10.55-45.3-5.69-2.25.69-4.78.18-7.17-.7-1.91-.7-4.03-.72-5.76.79-8.68,7.57-19.11,6.7-29.35,5.66-5.08-.51-9.96-1.02-15.01.15-5.7,1.32-11.46.94-17.33.54-10.02-.68-20.13-.56-30.17-.08-9.54.46-18.81-1.95-28.28-1.89-4.63.03-7.96-3.58-12.39-4.43-8.27-1.59-16.6-.47-24.84-1.24-6.87-.65-13.62-1.14-20.4.32-2.25.48-4.99.19-5,3.88,0,2.21-1.57,3.79-3.74,4.25-2.69.57-3.02-2.22-4.41-3.5-3.46-.89-6.99-1.59-10.03-3.62Z" style="fill: #f2d28d; stroke-width: 0px;"/>
  <path d="M387.89,815.7c6.09,1.71,11.9-2.5,12.41-9.13.43-5.55-1.81-10.35-4.85-14.74-9.53-13.75-21.34-25.25-34.92-35-2.95-2.12-8.47-3.94-6.73-7.94,1.79-4.11,6.42-.4,9.82.09,15.96,2.29,31.35,7.81,47.19,9.79,8.47,1.06,18.04,2.84,26.83-.96,4.45-1.92,9.21-.29,13.05.8,13.27,3.76,27.41,1.5,40.38,6.48.19.07.43.23.57.17,7.03-2.89,14.11-2.65,21.55-1.58,2.83.41,6.07.01,9.2.15,8.01.35,16.09-.66,24.12-1.34,1.26-.11,2.92-1.11,3.53-2.18,4.15-7.29,11.32-8.34,18.55-9.32,1.61-.22,3.09-.36,4.55-1.37,6.22-4.3,6.3-4.34-.45-7.7-3.54-1.76-6.6-4.28-6.11-8.24.57-4.69,3.25-8.82,7.69-11.02,3.13-1.55,6.62-2.43,9.18,1.36-.88,1.92-2.8,2.89-4.08,4.45-1.57,1.91-3.38,3.93-2.02,6.51,1.36,2.6,4.08,3.1,6.81,3.17,1.82.05,3.41-1.44,5.31-.77,3.04,7.3,3.18,7.55,10.32,3.44,5.54-3.19,10.38-8.18,16.65-9.41,13.95-2.75,26.27-9.78,39.56-14.25,11.13-3.75,21.63-10.15,29.22-19.94.87-1.12,1.47-2.48,3.2-2.42,1.41,1.91.22,3.52-.73,5.02-5.51,8.76-10.07,18.24-16.1,26.49-6.12,8.38-13.21,16.44-21.59,22.95-2.72,2.11-5.06,4.36-4.98,7.9.22,9.01-5.21,15.22-10.65,21.18-4.91,5.37-9.45,11.11-15.25,15.71-4.19,3.33-6.03,8.64-8.29,13.35-3.57,7.45-7.54,13.86-16.81,14.89-3.46.39-5.72,2.87-6.16,6.62-1.38,11.82-9.96,17.15-19.71,20.78-3.74,1.39-6.02,1.98-5.25,6.77.6,3.73-2.51,6.45-5.46,8.22-9.96,6-20.13,11.41-32.36,11.17-8.6-.16-16.33,2.76-23.09,8.13-1.28,1.01-2.47,2.26-4.03,2.69-3.09.86-5.18,1.79-2.98,5.63.96,1.67-.32,3.6-1.75,4.85-4.91,4.27-10.4,7.25-17.17,6.3-4.6-.64-9.26-1.03-14.15-2.61,1.61,4.38-.62,5.74-3.88,4.99-12.37-2.86-25.71,1.77-37.58-4.95-1.55-.88-3.58-.75-5.41-.65-8.38.43-16.62-.42-24.73-2.57-9.25-2.85-18.12-6.68-26.77-10.92-6.29-3.09-12.26-5.05-18.85-1.3-.72.41-1.56.21-2.27-.28,5.11-8.39,12.59-14.69,19.2-21.75,7.59-8.1,15.61-15.87,20.94-25.78,3.32-6.16,5.21-12.63,3.21-19.7.6-.84,1.2-1.68,2.12-2.21Z" style="fill: #f2d28d; stroke-width: 0px;"/>
  <path d="M180.62,593.32c.42.43.85.86,1.27,1.28-.13,1.79-.89,3.38-2.76,3.51-15.43,1.05-23.62,11.99-31.66,23.08-8.19,11.3-16.41,22.59-24.33,34.07-11.43,16.56-7.43,23.13,8.35,30.58,8.03,3.79,15.45,8.63,23.07,12.86,7.38,4.1,14.07,9.81,22.34,12.54,17.1,5.65,34.02,11.76,50.66,18.76,5.93,2.49,12.66,3.66,18.88,5.99,1.76.66,3.91,1.13,4.12,3.08.23,2.08-2,2.75-3.57,3.63-3.69,2.07-7.99,3.2-10.61,6.89-.81,1.14-1.92,2.4-1.38,3.83.65,1.74,2.45,1.07,3.76,1.08,8.53.06,17.07.14,25.6,0,13.39-.22,26.64,1.6,39.94,2.59.71.05,1.37.73,2.05,1.12-3.05,2.51-6.55,1.53-9.92,1.21-25.84-2.41-51.1-.5-75.04,10.42-17.19,7.84-31.6,19.7-45.38,32.39-4.91,4.52-8.89,10.03-14.6,13.68-.67.15-1.28,0-1.82-.41-1.29-2.76.18-5.17,1.09-7.58,1.37-3.59.33-5.65-3.28-7.07-34.01-13.47-68.34-26.08-103.06-37.62-7.9-2.63-15.55-5.98-23.7-7.94-7.48-1.79-14.81-2.5-22.16.41-1.31.52-2.71,1-4.07.03,8.06-10.62,18.61-18.63,28.84-26.87,29.13-23.45,57.43-47.8,82.72-75.41,11.97-13.08,24.08-26.07,34.7-40.34,7.15-9.61,16.65-15.55,28.61-17.32.96-.55.5-1.87,1.34-2.49Z" style="fill: #f2d28d; stroke-width: 0px;"/>
  <path d="M390.6,896.14c23.59,2.63,46.9,7.69,70.83,8.08.6-1.61-1.09-1.67-1.89-2.33-.8-.67-1.72-1.4-1.06-2.49.59-.97,1.83-.97,2.75-.6,4.2,1.66,8.75,1.67,12.99,2.79,7.55,1.99,12.97-1.66,18.38-5.67,2.17-1.61,2.35-3.73-.11-5.53-1.07-.79-3.03-1.2-2.27-3.02.67-1.61,2.5-.88,3.84-.97,2.13-.15,4.04-.92,5.52-2.32,7.98-7.61,17.66-9.86,28.39-9.99,11.39-.14,21-5.66,30.09-11.89,2.72-1.86,5.14-4.22,2.66-8.63-1.81-3.23,1.46-4.74,4.24-4.91,9.63-.59,14.76-7.62,20.32-13.98.91-1.05,1.18-3.11.98-4.61-.8-6.02,2.62-9.01,7.7-9.47,8.74-.79,11.92-6.83,15.25-13.54,2.55-5.14,4.57-10.78,9.11-14.71,8.13-7.03,15.36-14.81,21.48-23.71,2.19-3.19,3.81-6.12,3.49-10-.44-5.29,1.73-9.03,6.67-11.11,4.2-1.78,5.56-6.29,8.75-9.13,13.52-12.04,20.47-28.64,29.73-43.63,20.36-24.84,36.87-52.1,51.94-80.42,28.65-53.86,52.95-109.53,72.4-167.34,5.35-15.89,10.68-31.79,16.02-47.68.64-.41,1.21-.33,1.71.24,1.5,2.6.38,5.1-.33,7.6-5.82,20.37-13.12,40.26-19.59,60.42-.37,1.16-.78,2.29-.84,3.51-.08,1.23-.33,2.41-.83,3.54-1.43,2.06-3.16,3.98-3.02,6.75-.15,1.44-.53,2.79-1.4,3.97-1.51,1.7-2.29,3.68-2.27,5.97-.26,2.58-.89,5.04-2.41,7.2-2.34,2.39-2.95,5.59-3.97,8.59-.16.51-.37.99-.6,1.47-1.07,1.85-1.58,3.87-1.79,5.99-.24,1.4-.83,2.65-1.57,3.84-3.61,6.14-5.59,12.97-8.24,19.52-.18.56-.41,1.11-.65,1.64-13.48,32.44-27.71,64.55-43.45,95.96-17.19,34.32-35.22,68.2-55.86,100.6-4.85,7.61-9.61,15.83-19.71,17.88-.56.21-1.13.36-1.71.5-4.68.56-6.97,2.89-4.33,7.36,3.69,6.26,1.56,11.62-1.57,17.14-7.55,13.29-16.68,25.52-25.7,37.77-19.87,27.02-41.02,53.08-65.08,76.47-15.88,15.44-30.82,31.71-46.12,47.67-2.27,2.37-4.26,4.96-5.45,8.02-1.94,5.01-5.45,6.8-10.61,5.68-26.14-8.87-51.85-18.94-77.79-28.35-27.84-10.09-55.17-21.61-83.56-30.17-.8-.24-1.44-.71-1.92-1.4-.18-1.65-.43-3.3.28-4.9-.03-.34.05-.65.24-.93,19.12,8.35,39.07,14.51,58.54,21.97,32.26,12.37,64.69,24.31,97.08,36.35,2,.74,3.95,1.85,7.34,1.42-4.01-3.41-7.93-4.93-11.75-6.57-31.96-13.66-64.01-27.11-95.83-41.09-2.24-.99-5.28-1.35-5.4-4.82Z" style="fill: #f2d28d; stroke-width: 0px;"/>
  <path d="M803.17,484.81c1.41-.9,1.12-2.37,1.25-3.7,1.72-1.77,2.01-4.36,3.58-6.22.03-1.18.05-2.36.08-3.54,5.7-10.8,8-22.82,12.26-34.13,4.99-13.26,9.98-26.51,13.76-40.2,1.45-5.23,4.1-5.89,6.93-2.71-.88,9.6-4.62,18.47-7.31,27.58-10.1,34.11-22.44,67.46-35.28,100.6-6.31,16.28-12.25,32.73-19.68,48.55-11.42,26.52-23.41,52.79-36.28,78.63-15.42,30.95-32.08,61.22-50.13,90.73,9.86-12.67,16.33-27.51,25.58-40.58,5.36-6.92,9.29-14.71,13.77-22.17,8.46-14.08,16.75-28.26,25.12-42.39,1.1-1.86,1.7-4.84,5.1-3.63.08.03.12.33.09.49-.03.19-.15.38-.23.56-14.27,32.4-30.79,63.65-48.34,94.36-7.62,13.34-14.71,27.07-24.87,38.81-3.08-2.16-3.72-6.06-6.28-8.67-1.99-2.02-3.64-3-6.08-.91-.91.78-1.94,1.47-3.04,1.92-4.23,1.72-7.5,3.88-5.65,9.34.37,1.09-.13,2.38-1.26,3.17-5.36-1.75-7.5-6.48-9.2-11.02-1.75-4.68,2.48-5.38,5.7-6.36h.02c7.19-.67,12.37-4.59,16.39-10.26,13.69-19.26,24.56-40.21,35.95-60.83,13.56-24.53,25.83-49.74,37.77-75.09,10.61-22.54,20.42-45.45,29.49-68.67v-.02c3.13-6.8,5.64-13.86,8.5-20.76.44-1.21.89-2.43,1.33-3.64,1.02-1.94,1.42-4.12,2.38-6.08l.02-.04c1.62-3.08,2.12-6.59,3.66-9.7,1.7-2.17,2.28-4.71,2.47-7.38,1.04-1.92,1.4-4.11,2.4-6.04Z" style="fill: #be700c; stroke-width: 0px;"/>
  <path d="M616.27,206.57c-3.84,2.44-7.45-.08-10.91-.91-9.32-2.25-18.27-5.86-25.92-11.69-3.6-2.75-7.94-1.04-11.36-3.57-17.22-12.76-30.77-28.65-37.54-49-5.31-15.97-4.21-32.97-2.83-49.56,1.28-15.34,4.62-30.43,7.75-45.52.72-3.47,2.38-5.65,6.22-8.8-51.55-12.18-101.71-24.04-151.76-35.87,2.09-.14,4.47-.3,6.85-.45,18.4,3.12,36.36,8.13,54.51,12.35,29.59,6.89,59.15,13.92,88.71,20.9.79.19,1.57.41,2.36.61,10.64,2.73,12.25,5.31,9.96,15.93-4.41,20.47-7.91,41.09-7.74,62.1.3,35.43,14.73,63.45,44.69,82.98,8.25,5.38,17.31,8.77,27,10.49Z" style="fill: #d88b17; stroke-width: 0px;"/>
  <path d="M662.78,753.32c-6,3.44-6.34,4.37-2.3,9.88,1.84,2.51,3.18,5.55,6.1,7.17,2.56.22,3.03,1.76,2.48,3.94,1.23,3.57,3.34,6.87,3.3,10.83-7.66,5.73-12.11,14.15-17.67,21.56-17.44,23.22-35.26,46.11-54.56,67.8-16.86,18.94-34.18,37.47-52.43,55.09-4.07,3.93-8.45,7.55-14.4,8.66-3.28.61-5.64,3.08-8.01,5.32-3.98,3.76-7.51,7.98-11.8,11.44-3.37,1.04-6.95,3.3-9.36-1.52,4.38.56,6.88-.91,8.68-5.42,3.46-8.66,11.07-14.46,17.37-20.83,11.1-11.22,21.61-23,33.06-33.94,21.51-20.55,40.53-43.47,58.44-67.29,11.31-15.05,22.53-30.13,32.41-46.18,3.62-5.88,6.39-11.28,2.05-18.43-3.18-5.24-.86-7.57,6.64-8.09Z" style="fill: #c18327; stroke-width: 0px;"/>
  <path d="M504.13,953.5c3.23,2.28,6.48,1.47,9.73.05,1.68,3.62-1.15,5.27-3.35,6.77-5.54,3.77-11.57,5.39-18.39,3.87-9.06-2.02-18.04-4.28-26.84-7.27-1.35-.46-2.63-1.04-4.09-.6-25.42-9.6-50.86-19.18-76.27-28.83-11-4.18-21.9-8.62-32.92-12.73-7.54-2.81-11.53-7.94-11.64-16.02-.53-1.28-.75-2.55.2-3.75,11.08.22,20.61,5.7,30.64,9.32,27.64,10,55.11,20.47,82.67,30.7,16.73,6.21,33.5,12.33,50.25,18.49Z" style="fill: #bb6a02; stroke-width: 0px;"/>
  <path d="M839.83,394.57c-.21-.92-.38-2.48-1.65-1.33-1.29,1.17-2.49,2.85-2.9,4.51-5.78,23.6-16.66,45.46-23.42,68.71-.61,2.1-.89,4.52-3.79,4.89,3.23-10.14,6.57-20.23,9.65-30.42,4.19-13.85,9.98-27.22,12.36-41.6,2.59-12.48,6.86-24.49,10.2-36.76,12.91-47.4,23.58-95.28,31.5-143.77,4.63-28.34,9.57-56.62,16.01-84.62,1.07-4.67,4.32-10.24-1.59-14.42-17.6-5.26-35.56-9.07-53.4-13.39-32.61-7.89-65.24-15.7-99.34-23.9,3.05-.3,4.65-.45,6.26-.61,26.83,6.26,53.66,12.5,80.48,18.8,24.26,5.7,48.54,11.35,72.75,17.28,4.7,1.15,10.2,1.44,12.91,6.7-1.73,2.65-7.73.02-7,5.69-5.5,27.3-10.41,54.7-15.03,82.16-7.46,44.31-16.75,88.25-27.89,131.79-3.78,14.77-7.86,29.46-12.15,44.08-.69,2.34-.59,5.45-3.96,6.18Z" style="fill: #cf7b09; stroke-width: 0px;"/>
  <path d="M897.37,129.61c-.95-8.14,5.33-3.87,8.49-4.95,3.62,2.59,1.54,6.08.95,8.92-5.47,26.49-10.23,53.1-14.46,79.82-4.64,29.4-10.56,58.56-17.08,87.61-9.68,43.12-21.25,85.73-34.18,127.97-1.47,4.82-3.31,9.52-4.98,14.28-2.09.77-2.14,2.81-2.72,4.47-16.83,48.33-36.61,95.45-57.69,142.07-13.23,29.24-27.14,58.12-42.61,86.23-4.59,8.34-9.53,16.48-14.2,24.77-9.77,14.22-16.37,30.54-28.66,43.14,1.27-7.61,6.25-13.38,9.95-19.64,24.44-41.44,46.17-84.25,65.81-128.16,3.71-8.29,6.43-17.06,11.46-24.74,3.02-2.09,4.06-5.48,5.38-8.59,31.66-74.81,57.6-151.54,77.48-230.33,11.44-45.35,20.76-91.13,29.77-137,3.6-18.33,7.73-36.56,11.73-54.82.44-1.99.91-3.96,1.24-5.97,1.04-6.29.54-6.73-5.69-5.09Z" style="fill: #dea43c; stroke-width: 0px;"/>
  <path d="M312.1,776.71c-1.94-.11-3.87-.23-5.81-.34-9.3-.8-18.61-.79-27.91,0-38.74,2.08-68.94,21.48-95.94,47.35-3.66,3.51-7.25,7.1-10.83,10.7-6.63,6.66-9.59,8.9-20.48,3.47,3.98-6.88,4.05-15.53,9.79-21.62,16.32-16.31,33.88-30.95,54.67-41.38,13.69-6.87,28.29-10.07,43.43-10.9,6.48-.36,12.96-.64,19.45-1.1,12.8-.91,24.2,4.46,35.61,9.32,1.5.64,3.12,1.86,2.32,3.72-.82,1.91-2.72,1.19-4.29.79Z" style="fill: #904e01; stroke-width: 0px;"/>
  <path d="M161.1,816.79c-1.25,3.13-2.85,6.18-3.66,9.42-1.12,4.51-2.65,8.62-6.32,11.67-28.84-10.93-57.68-21.85-86.51-32.8-14.04-5.33-27.88-11.25-42.14-15.89-12.55-4.09-22.04-9.97-22.31-24.7,2.22-1.97,4.2-.21,6.17.49,36.64,13.11,72.89,27.25,109.39,40.72,10.27,3.79,20.51,7.64,30.8,11.36,4.89,1.77,9.31,2.43,13.39-1.52.38.04.75.05,1.13.05.4.25.55.51.43.78-.12.28-.24.42-.37.42Z" style="fill: #c57403; stroke-width: 0px;"/>
  <path d="M461.2,956.32c4.55-3.32,8.18,1.22,12.28,1.7,6.96.82,13.7,3.38,20.59,4.95,7.46,1.7,16.76-2.86,19.78-9.42,4.65-5.64,9.12-12.07,15.69-15.04,27.02-12.2,41.85-37.36,61.83-57,15.32-15.05,28.41-32.14,41.63-49.04,10.96-14.02,21.52-28.35,32.22-42.57,1.84-2.44,3.41-5.18,7.13-4.76,1.43,5.94-1.35,10.76-4.37,15.35-25.98,39.4-54.86,76.54-86.76,111.32-.39.43-.99.66-1.49.98-2.6-.69-4.95.13-6.77,1.81-11.16,10.34-24.17,18.39-35.31,28.75-3.87,3.6-7.9,6.92-13.71,7.05-3.47.08-4.99,2.77-6.41,5.69-3.08,6.33-5.09,13.35-10.98,17.97-15.12-5.92-30.23-11.83-45.35-17.75Z" style="fill: #a05803; stroke-width: 0px;"/>
  <path d="M159.92,815.54c-2.36,6.63-7.2,5.4-12.01,3.63-23.98-8.83-47.94-17.74-71.9-26.62-25.28-9.36-50.56-18.72-75.84-28.07-.33-1.11-.22-2.08.88-2.73,8.18,1.58,15.8,4.9,23.51,7.83,39.16,14.89,78.51,29.3,117.65,44.23,3.29,1.26,6.58,2.94,11.17,2.76-2.14-4.1-5.65-4.87-8.67-6.06-27.44-10.82-55.02-21.25-82.6-31.71-13.88-5.27-27.69-10.73-41.66-15.77-5.46-1.97-10.77-5.06-17.02-3.44-.97.25-1.4-.47-1.1-1.47.36-1.09.98-1.95,2.09-2.38,11.37-6.3,22.82-3.75,34.07.1,22.2,7.59,44.36,15.32,66.42,23.32,18.21,6.61,36.21,13.79,54.4,20.47,4.42,1.62,4.99,4.01,3.36,7.91-1.09,2.6-1.85,5.33-2.75,8Z" style="fill: #ecbb59; stroke-width: 0px;"/>
  <path d="M161.1,816.79c-.01-.4-.03-.8-.06-1.2,21.81-24.31,46.27-45.07,78.37-54.17,17.82-5.06,36.4-5.41,54.85-3.98,4.02.31,8.04.66,12.08.79,13.97,2.49,27.59,6.09,40.38,12.43,15.19,7.54,27.72,18.01,36.55,32.69,2.32,3.86,2.87,8.32,4.63,12.35.08,1.5-.58,2.27-2.12,2.21-9.49-18.6-26.17-27.86-44.83-34.58-9.36-3.37-19.22-4.45-28.84-6.61,1.1-.36,2.7-.4,3.2-1.16.7-1.08-.77-1.69-1.63-2-10.03-3.68-19.81-9.48-30.63-8.97-19.47.92-39.23.37-57.93,7.88-15.42,6.19-28.91,15.42-41.9,25.43-7.67,5.91-14.75,12.58-22.1,18.91Z" style="fill: #bf6f05; stroke-width: 0px;"/>
  <path d="M390.6,896.14c13.06,7.42,27.21,12.41,40.94,18.34,22.7,9.81,45.43,19.57,68.05,29.55,2.64,1.17,7.72,2.48,6.07,5.91-1.54,3.21-5.91.3-8.76-.76-39.72-14.76-79.39-29.64-119.07-44.48-10.82-4.05-21.44-8.69-32.75-11.26-2.62-.6-3.11-2.91-4.44-4.57-.13-1.6.75-2.71,1.79-3.74,6.88-4.93,13.51-4.29,20.87-.36,8.68,4.64,17.93,8.24,27.31,11.36Z" style="fill: #ecbb59; stroke-width: 0px;"/>
  <path d="M718.9,700.81c1.82-7,6.3-12.68,9.65-18.88,18.12-33.56,34.77-67.82,50.29-102.65,19.44-43.64,37.53-87.82,53.93-132.7.61-1.66,1.66-3.15,2.53-4.7,0-.01.42.1.48.23.16.37.24.77.35,1.16-16.29,49.72-33.51,99.09-54.74,146.96-6.32,14.25-11.77,28.91-19.58,42.47-1.04-1.25-1.74-.45-2.27.46-9.87,16.85-19.64,33.76-29.63,50.54-3.47,5.82-6.29,12.08-10.99,17.12Z" style="fill: #d58817; stroke-width: 0px;"/>
  <path d="M2.33,758.13c5.93-2.17,11.18.53,16.42,2.53,43.49,16.59,86.95,33.29,130.42,49.95.57.22,1.26.26,1.7.62,2.1,1.69,5.97,2.84,4.62,6.19-1.45,3.62-4.77,1.04-6.9.25-37.77-14.04-75.48-28.26-113.22-42.36-9.28-3.47-18.7-6.58-27.99-10.03-2.24-.83-4.23-2.33-6.33-3.52.13-1.31-.09-2.75,1.28-3.63Z" style="fill: #edca82; stroke-width: 0px;"/>
  <path d="M506.55,974.07c4.04-7.3,8.18-14.55,11.38-22.3.81-1.96,3.1-3.12,5.04-2.94,6.28.6,10.17-3.27,14.12-7,11.2-10.55,24.55-18.47,35.67-29.14,1.7-1.63,4.72-3.81,6.97.1-16.45,17.86-33.28,35.38-49.16,53.73-6.95,8.02-13.73,12.24-24.02,7.55Z" style="fill: #7e4602; stroke-width: 0px;"/>
  <path d="M669.07,774.32c-.83-1.31-1.66-2.63-2.48-3.94-1.33-5.79-2.73-11.47,5.63-13.34,2.82-.63,4.99-4.99,7.68-3.76,3.56,1.61,6.13,5.19,7.56,9.15.41,1.13.75,2.29,1.13,3.44-4.77,6.82-12.91,5.88-19.52,8.46Z" style="fill: #8e4d01; stroke-width: 0px;"/>
  <path d="M213.49,525.9c.02,3.02-1.62,5.44-3.18,7.75-8.47,12.58-16.6,25.35-23.01,39.12-1.93,4.15-5.97,5.82-9.27,8.38,2.3-7.25,7.5-12.76,11.49-18.98,7.84-12.19,15.96-24.19,23.97-36.27Z" style="fill: #ecbb59; stroke-width: 0px;"/>
  <path d="M278.37,776.37c9.3-1.78,18.61-1.85,27.91,0-9.3,0-18.61,0-27.91,0Z" style="fill: #bf6f05; stroke-width: 0px;"/>
  <path d="M231.79,495.37c-1.47,5.89-4.23,11.01-8.94,14.97,2.67-5.18,5.25-10.4,8.94-14.97Z" style="fill: #ecbb59; stroke-width: 0px;"/>
  <path d="M180.62,593.32c0,1.07-.1,2.09-1.34,2.49.65-3.26-2.39-5.49-2.42-8.53-.02-2.11-.85-4.45,1.24-6.15-.97,4.44,2.51,7.96,2.52,12.2Z" style="fill: #ecbb59; stroke-width: 0px;"/>
  <path d="M222.14,511.64c-.14,4.9-2.82,8.26-6.66,10.91,1.74-3.93,4.08-7.49,6.66-10.91Z" style="fill: #ecbb59; stroke-width: 0px;"/>
  <path d="M240.4,483.56c-1.52.92-1.73,3.24-3.78,3.61,1.41-4.2,3.43-8.07,6.21-11.54.39,3.01-2.27,5.09-2.43,7.93Z" style="fill: #ecbb59; stroke-width: 0px;"/>
  <path d="M236.69,487.09c-.36,2.66-1.01,5.13-3.91,6.18.92-2.3,1.76-4.65,3.91-6.18Z" style="fill: #ecbb59; stroke-width: 0px;"/>
  <path d="M340.57,894.99c-.07,1.25-.14,2.5-.2,3.75-1.58-2.98-1.68-5.96.02-8.94.06,1.73.12,3.46.19,5.19Z" style="fill: #ecbb59; stroke-width: 0px;"/>
  <path d="M549.3,575.08c-10.51-13.26-16.8-28-15.79-45.26.49-8.3,2.87-16.26,4.64-24.32-1.69-3.25.55-5.84,1.48-8.63,1.75-5.22,4.44-10.02,6.88-14.92,3.56-7.39,8.07-14.2,12.8-20.87,5.96-7.9,12.95-14.74,21.08-20.4,5.28-3.5,10.98-6.2,16.77-8.74,5.56-.92,10.74-4.76,16.76-2.24,9.05.04,18.1.04,26.93,2.45,6.12,2.4,12.23,4.8,18.35,7.21,2.79.03,4.67,1.68,6.4,3.61,10.27,11.61,17.98,24.39,20.17,40.16,1.67,12.02-.37,23.51-3.79,34.79-8.2,27.03-23.52,48.77-48.42,63.06-16.64,9.55-34.6,11.05-53.08,8.09-7.78-1.25-15.4-3.56-22.73-6.62-2.82-2.46-5.65-4.92-8.47-7.38Z" style="fill: #efefef; stroke-width: 0px;"/>
  <path d="M423.48,421.36c-16.51-9.73-25.92-24.48-27.89-43.17-3.54-33.51,7.57-63.09,27.38-89.48,11.51-15.34,27.71-23.62,46.94-24.65,11.05-.59,21.47,3.27,31.74,7.01,3.66-.56,6.28,1.69,9.11,3.38.48.43.89.91,1.25,1.44,5.73,6.07,11.32,12.23,15.29,19.68,9.09,17.05,9.38,35.17,5.88,53.47-3.75,19.66-11.76,37.45-24.69,53.03-20.24,24.4-53.85,32.74-82.74,20.07-.74-.32-1.6-.29-2.27-.8Z" style="fill: #f2f2f2; stroke-width: 0px;"/>
  <path d="M411.3,537.29c-.43-.41-.87-.82-1.3-1.23-7.44-11.83-7.97-20.99-1.34-28.48,2.96-3.34,6.04-6.69,9.57-9.36,23.78-17.91,46.89-36.66,69.8-55.66,2.32-1.92,4.33-4.23,6.48-6.36,2.43-4.94,7.62-7.09,11.08-10.99,7.41-6.4,14.58-13.07,22.11-19.33,4.6-4.03,8.39-8.95,13.53-12.39,3.05-2.55,5.65-5.58,8.57-8.27,1.55-1.43,2.79-3.49,5.39-3.2,2.11-.56,3.24-2.36,4.65-3.76,19.96-19.87,39.86-39.81,59.86-59.64,3-2.97,6.22-5.85,9.75-8.14,10.33-6.73,19.75-4.36,25.85,6.12,1.11,1.9,2.38,3.71,3.57,5.57.28.22.55.43.83.65,1.98,4.32.8,8.88,1.01,13.34-.13,1.99-.74,3.84-1.68,5.58-2.29,3.49-4.7,6.89-7.68,9.86-1.91,1.52-3.65,3.23-5.36,4.97-21.19,21.61-43.32,42.25-65.48,62.84-24.25,22.53-49.53,43.87-75.6,64.31-19.51,15.29-39.16,30.37-59.22,44.91-7.99,5.79-16.13,11.04-26.69,10.15-2.65-.23-5.26-.4-7.72-1.49Z" style="fill: #f0f0f0; stroke-width: 0px;"/>
  <path d="M423.48,421.36c10.11,1.65,19.82,5.12,30.36,5.01,22.17-.24,39.7-9.32,53.69-26.06,17.46-20.88,25.57-45.12,25.84-72.12.19-18.98-6.51-35.17-20.1-48.49-1.14-1.11-2.02-2.48-3.03-3.73,2.19-1.46,3.86.04,5.37,1.17,4.75,3.58,9.73,6.94,13.15,12,9.98,11.84,14.33,25.67,14.85,40.99.82,24.12-5.78,46.1-18.26,66.58-11.08,18.17-26.63,30.39-47.05,36.4-10.21,2.83-20.32,2.21-30.35-.85-8.15-3.63-17.59-4.38-24.46-10.89Z" style="fill: #c3c3c3; stroke-width: 0px;"/>
  <path d="M613.93,429.7c-5.72,1.21-11.43,2.42-17.15,3.63.08-3.86,2.71-6.34,5.28-8.45,6.6-5.44,12.46-11.62,18.35-17.75,10.12-10.53,21.29-19.96,31.58-30.3,8-8.04,16.09-16.08,22.53-25.44,10.35-15.05,4.44-31.05-13.01-36.26-1.36-.41-2.69-.9-4.01-1.42-.8-.37-1.66-.65-2.06-1.55-.62-1.1-.58-1.87.94-1.99,12.55-.93,22.49,3.5,29.63,14.08,6.99,10.35,6.02,20.54-.2,30.72-6.77,11.09-15.01,20.97-24.08,30.28-12.56,12.9-25.01,25.93-36.81,39.51-3.35,3.85-7.54,2.93-10.99,4.94Z" style="fill: #e2af4a; stroke-width: 0px;"/>
  <path d="M555.19,382.03c-4.44,4.08-8.89,8.16-13.33,12.24-2.26-3.91.63-7.01,1.84-10.23,6.32-16.81,10.96-33.91,10.03-52.1-1.49-29.31-16.49-46.63-42.62-56.92-.36-.14-.8-.02-1.2.03-2.75-1.33-5.5-2.65-8.25-3.98-.89-2.06-.18-2.46,1.85-2.02,32.32,7.06,51.92,23.85,57.72,57.3,2.38,13.7.27,27.2-3.3,40.55-1.31,4.92-3.71,9.75-2.75,15.13Z" style="fill: #e1ad48; stroke-width: 0px;"/>
  <path d="M655.44,312.16l2.4.91c10.48,6.1,15.18,18.95,11.14,30.32-2.52,7.09-7.31,12.51-12.63,17.6-3.66,3.5-7.17,7.16-10.74,10.73-4.42,4.13-8.53,8.56-12.92,12.71-1.51,1.43-2.81,3.65-5.55,2.68-1.1-4.7,2.4-7.63,4.88-10.34,5.63-6.15,9.36-13.45,13.81-20.32,1.04-1.75,2.46-3.14,4.08-4.33,3.84-2.51,5.81-6.45,7.89-10.31.48-1.74.96-3.47,1.44-5.21.79-4.57.87-9.13-.05-13.69,0-.29-.11-.54-.32-.74.56-3.93-2.15-6.73-3.43-10.02Z" style="fill: #6f6e6d; stroke-width: 0px;"/>
  <path d="M447.94,432.25c10.28,1.67,20.5,1.47,30.67-.9,7.26.2,13.52-3.57,20.32-5.18,2.49-.59,4.91-2.18,7.44-.15-3.29,4.17-7.7,7.04-11.86,10.19-4.43-.52-8.76.19-13.17.68-10.89,1.22-21.61-.63-32.17-3.34-.62-.16-1.84.08-1.23-1.31Z" style="fill: #d19c2a; stroke-width: 0px;"/>
  <path d="M664.04,443.15c-1.61-1.26-3.22-2.53-4.82-3.79,6.41-2.78,11.46,1.56,16.45,3.89,18.83,8.79,31.09,23.6,37.18,43.45,3.72,12.13,2.41,24.42.74,36.67-2.81,20.6-11.86,38.58-23.89,55.16-7.42,10.23-18.24,16.46-28.65,23.14-19.17,12.28-38.8,10.44-58.77,2.44-6.02-2.41-12.09-4.67-18.16-6.96-1.71-.65-3.52-1.08-4.41-2.94,3.44-1.96,6.7.02,10.04.43,6.93,1.51,13.93,2.2,21.01,1.91,14.21-.23,28.17-1.01,41.62-6.89,18.12-7.91,30.19-21.5,39.27-38.37,10.74-19.95,14.74-41.21,11.11-63.59-2.41-14.84-11.45-25.69-22.97-34.72-1.64-1.29-3.51-1.99-5.56-2.26-4.29-1.32-6.65-5.24-10.19-7.58Z" style="fill: #cf8c23; stroke-width: 0px;"/>
  <path d="M664.04,443.15c3.93.82,6.11,4.23,9.22,6.27,5.58,1.86,7.72,6.8,10.25,11.41,11.4,37.91,1.89,71.07-22.67,100.96-15.41,18.74-36.17,28.27-58.77,34.63-4.03,1.13-8.39.11-12.58-.41-3.26-.6-6.52-1.2-9.78-1.8-7.63-3.33-15.67-5.87-21.94-11.74,6.07-.52,11.42,2.39,17.09,3.73,27.06,6.4,51.34,1.48,72.54-16.99,23.92-20.84,36.26-47.29,37.15-78.79.49-17.45-7.39-32.01-18.8-44.79-.66-.74-1.14-1.65-1.7-2.48Z" style="fill: #b5b5b5; stroke-width: 0px;"/>
  <path d="M886.2,119.77c6.83,0,5.94,2.65,4.29,8.19-3.51,11.78-5.7,24-7.85,36.13-4.38,24.66-8.11,49.44-12.61,74.07-6.36,34.83-14.01,69.39-22.93,103.66-4.79,18.41-9.78,36.78-15.69,54.87-.3.93-.88,1.76-1.32,2.64-.43,0-.87-.02-1.3-.03,4.53-16.59,9.06-33.17,13.59-49.76,11.56-42.35,20.53-85.28,27.59-128.56,4.79-29.33,9.86-58.56,17.14-87.37,1.21-4.79-1.56-9.18-.91-13.85Z" style="fill: #e6ad3f; stroke-width: 0px;"/>
  <path d="M589.49,737.35c-4.65,3.06-11.6,2.43-13.83-1.25-2.24-3.69,1.35-9.26,7.8-12.1.4.07.81.09,1.19.22,9.22,2.94,9.84,4.63,4.83,13.14Z" style="fill: #f2d28d; stroke-width: 0px;"/>
  <path d="M504.08,712.82c-3.13-1.13-7.46-1.29-7.2-6.43.23-4.67,5.47-8.65,10.36-8.04,3.59.45,6.37,2.14,6.23,6.07-.12,3.68-6,8.71-9.39,8.4Z" style="fill: #f2d28d; stroke-width: 0px;"/>
  <path d="M408.29,680.13c-2.26-.07-5.29-.89-5.56-5.18-.28-4.35,4.6-9.68,8.73-9.22,3.52.39,7.01,1.59,7.04,6.07.03,4.01-4.84,8.35-10.21,8.33Z" style="fill: #f2d28d; stroke-width: 0px;"/>
  <path d="M319.35,649.57c-2.73-.58-6.61-.56-6.79-5.29-.14-3.57,5.22-9.23,8.61-8.79,3.14.41,7.3.25,7.21,5.36-.07,4.07-4.5,8.66-9.03,8.73Z" style="fill: #f2d28d; stroke-width: 0px;"/>
  <path d="M245.32,610.48c3.81-.09,7.48.23,10.03,3.62-.95,6.98-4.48,10.32-10.26,9.94-2.42-.16-4.38-.94-5.44-3.13-1.14-2.35.05-4.23,1.67-5.94,1.38-1.46,2.67-2.99,4-4.5Z" style="fill: #f2d28d; stroke-width: 0px;"/>
  <path d="M547.77,482.21c-3.21,7.76-6.41,15.53-9.62,23.29-7.5,1-9.51,8.26-13.82,12.69-9.74,9.99-18.6,20.82-30.35,28.69-4.86,3.26-9.92,6.22-14.27,10.27-4.9,4.57-11.34,6.3-17.62,7.63-8.11,1.72-15.21,5.02-21.81,9.98-5.55,4.18-14.05,3.95-18.68.18-6.37-5.19-9.73-14.73-7.44-21.16.56-1.58,1.44-2.95,3.07-3.58,2.65-1.02,2.79-3.18,2.66-5.5,1.22-1.31,2.67-.78,4.09-.54,1.35.33,2.71.66,3.47,2.01,11.39,5.23,22.75,5.53,34.28.21,13.64-6.28,24.84-15.96,36.29-25.33,14.58-11.95,28.51-24.65,42.93-36.79,1.93-1.63,3.76-4.04,6.84-2.06Z" style="fill: #ecbb59; stroke-width: 0px;"/>
  <path d="M423.41,545.57c-1.17-.29-2.35-.58-3.52-.86-3-2.31-6.7-3.82-8.59-7.42,7.77-.34,15.76,1.2,23.03-3.05,9.81-5.74,18.88-12.59,27.9-19.42,19.82-15.03,39.4-30.38,58.82-45.92,12.15-9.72,24.06-19.79,35.69-30.12,31.69-28.14,62.38-57.35,92.32-87.35.41-.41,1.04-.6,1.56-.89.69.82.7,1.58-.2,2.26-1.19,1.25-2.38,2.5-3.57,3.75-5.1,7.37-11.62,13.47-18.07,19.58-12.16,11.51-21.61,24.99-29.67,39.54-12.03,12.65-25.24,24.05-38.3,35.59-16.72,14.76-33.72,29.21-51.26,43.02-1.76,1.39-3.45,2.84-5.58,3.65-14.79,3.18-27.56,10.57-39.49,19.46-13.34,9.93-27.01,19.34-41.08,28.2Z" style="fill: #c4c4c4; stroke-width: 0px;"/>
  <path d="M782.39,538.49c-.9,8.03-5.22,14.85-8.14,22.11-14.84,36.9-32.01,72.74-50.29,108.03-12.1,23.36-24.79,46.43-38.76,68.74-5.17,8.25-10.65,16.68-22.41,15.95,13.3-4.23,18.31-16.25,24.91-26.7,18.4-29.17,34.4-59.7,49.85-90.49,14-27.88,27.04-56.24,38.91-85.12,1.75-4.25,2.97-8.82,5.93-12.52Z" style="fill: #c18327; stroke-width: 0px;"/>
  <path d="M790.89,517.7c-1.71,7.38-4.23,14.42-8.48,20.76,1.89-7.31,4.37-14.37,8.48-20.76Z" style="fill: #c18327; stroke-width: 0px;"/>
  <path d="M808,474.9c-.07,2.72-.1,5.46-3.58,6.22.07-2.72.24-5.38,3.58-6.22Z" style="fill: #cf7b09; stroke-width: 0px;"/>
  <path d="M798.29,498.24c-.39,3.55-1.05,6.99-3.66,9.7.38-3.55,1.03-7,3.66-9.7Z" style="fill: #c18327; stroke-width: 0px;"/>
  <path d="M794.6,507.98c.12,2.38-.5,4.48-2.38,6.08-.15-2.4.48-4.49,2.38-6.08Z" style="fill: #c18327; stroke-width: 0px;"/>
  <path d="M803.17,484.81c.09,2.37-.52,4.46-2.4,6.05-.11-2.38.46-4.49,2.4-6.05Z" style="fill: #c18327; stroke-width: 0px;"/>
  <path d="M897.37,129.61c1.1-2.57,2.46-4.82,5.81-3.47,3.39,1.37,2.56,4.16,2.01,6.74-4.51,20.91-9.52,41.72-13.46,62.74-7.53,40.12-15.79,80.08-25.26,119.77-5.73,24.01-12.46,47.79-19.22,71.54-8.76,30.79-18.72,61.2-29.5,91.34-10.52,29.39-22.19,58.34-34.36,87.08-.98,2.32-.47,7.55-5.92,6.05,3.64-9.19,7.28-18.38,10.92-27.56,19.13-48.23,36.79-96.97,51.14-146.87.22-.77.21-1.6.3-2.41,7.18-21.35,12.51-43.22,17.96-65.04,12.93-51.8,22.39-104.29,31.02-156.95,2.36-14.4,5.68-28.65,8.56-42.97Z" style="fill: #ebc574; stroke-width: 0px;"/>
  <path d="M503.86,496.8c32.68-25.74,64.09-52.93,94.11-81.72,7.39-10.11,17.88-17.12,26.32-26.18.83-.89,1.83-1.62,3.14-1.7,5.69-5.28,11.39-10.57,17.08-15.85,2.27,3.69-.42,6.19-2.35,8.61-12.96,16.26-27.81,30.73-43.04,44.82-6.1,5.65-12.38,11.1-18.18,17.07-7.57,5.82-14.31,12.5-20.47,19.77-8.68,6.66-16.33,14.5-24.9,21.3-23.19,18.39-45.56,37.84-70.42,54.06-4.61,3-9.38,5.68-14.52,7.62-3.21,1.21-6.55,2.39-9.94.35-.93-2.54,1.32-3.1,2.68-4,18.04-11.94,34.93-25.42,51.85-38.86,2.67-2.12,5.64-3.71,8.63-5.29Z" style="fill: #874a03; stroke-width: 0px;"/>
  <path d="M580.95,441.84c3.38-8.02,10.93-12.2,16.84-17.8,11.49-10.88,22.93-21.79,33.44-33.65,3.49-3.94,6.86-7.98,10.32-11.94,1.8-2.05,3.04-4.3,2.97-7.12,4.32-4.53,8.6-9.1,12.96-13.59,15.25-15.74,15.37-29.03.37-44.69,10.48.82,17.97,6.26,21.83,15.74,4.69,11.51-.8,20.88-8.08,29.3-20.05,23.16-43.64,42.8-64.94,64.72-3.36,3.45-6.83,6.78-9.87,10.52-5.28,2.84-10.56,5.67-15.83,8.51Z" style="fill: #ae6205; stroke-width: 0px;"/>
  <path d="M440.1,544.59c8.05.94,14.72-2.88,21.06-6.81,19.49-12.1,37.06-26.81,54.91-41.13,13.43-10.77,27.06-21.3,39.42-33.33,1.44-1.4,3.06-1.91,4.99-1.7-4.24,6.86-8.47,13.73-12.71,20.6-5.15.06-7.65,4.56-10.74,7.32-14.93,13.31-30.17,26.24-45.6,38.94-11.88,9.77-24.03,19.23-39.58,22.76-9.1,2.07-17.45-.89-25.88-3.49-.01,0,.02-.42.12-.49.34-.21.73-.34,1.1-.5,4.01-2.47,8.17-4.01,12.91-2.16Z" style="fill: #cf881a; stroke-width: 0px;"/>
  <path d="M589.72,548.15c-7.77-3.71-10.55-7.47-8.52-16.52,4.57-20.42,11.68-39.97,26.35-55.62,8.09-8.63,17.14-7.82,24.84,1.42-.4.52-.9.89-1.51,1.12-8.77.08-14.77,4.66-19.36,11.73-9.03,13.9-15.41,28.97-19.96,44.86-1.22,4.26.9,8.98-1.84,13.02Z" style="fill: #bebebe; stroke-width: 0px;"/>
  <path d="M589.72,548.15c-1.47-7.22-.07-14.11,2.4-20.88,5.3-14.51,10.91-28.89,20.62-41.15,4.54-5.73,9.93-10.29,18.15-8.4.52,1.92-.7,3.12-1.96,4.08-5.13,3.93-8.46,9.29-11.13,14.93-4.84,10.21-9.48,20.52-13.45,31.11-2.13,5.7-3.94,11.45-3.52,17.68.12,1.81-.1,3.66-1.56,5.05-3.56.69-6.64-.55-9.56-2.41Z" style="fill: #6b3c01; stroke-width: 0px;"/>
  <path d="M599.28,550.56c-1.81-16.09,6.33-29.41,12.03-43.42,2.92-7.17,6.45-13.94,10.62-20.49,2.42-3.8,6.75-5.21,8.97-8.93.5-.1,1-.19,1.5-.29,1.44.99,3.36,1.51,3.6,3.66,1.18,2.15.37,3.94-1.2,5.4-4.54,4.23-7.48,9.56-9.77,15.16-3.96,9.71-9.45,18.72-12.72,28.76-1.76,5.4-1.71,11.05-3.36,16.41-2.94,1.96-5.76,4.25-9.67,3.73Z" style="fill: #b87010; stroke-width: 0px;"/>
  <path d="M608.95,546.83c-2.29-8.9,1.66-16.75,4.75-24.49,3.76-9.4,8.88-18.26,12.84-27.59,2.25-5.32,8.08-7.9,9.46-13.65,2.51,5.53,1.37,11.1-.04,16.58-4.08,15.86-10.53,30.64-20.73,43.57-1.71,2.17-3.48,4.52-6.28,5.58Z" style="fill: #dfb04a; stroke-width: 0px;"/>
  <path d="M449.14,384.73c-5.96-1.42-9.34-5.98-9.77-12.73-.5-7.83,1.46-15.22,3.66-22.59,3.88-13.01,8.01-25.9,16.08-37.09,6.46-8.95,15.95-9.88,23.05-2.24-13.72,4.56-18.74,16.41-23.12,28.41-5.17,14.19-10.99,28.36-9.06,44.06.1.84-.27,1.57-.84,2.18Z" style="fill: #c5c5c5; stroke-width: 0px;"/>
  <path d="M449.14,384.73c-2.55-8.1-1.11-15.99,1.05-23.9,3.96-14.49,8.22-28.85,16.56-41.57,3.62-5.52,8.32-9.39,15.4-9.18,0,0-.03.29-.03.29,3.1,2.09.81,3.96-.48,5.47-14.67,17.12-18.22,38.37-22.25,59.46-.68,3.54,1.88,7.19-.48,10.63-3.5,1.53-6.76,1.16-9.78-1.2Z" style="fill: #995503; stroke-width: 0px;"/>
  <path d="M509.9,275.05c2.14-2.39,4.26-.35,6.05.35,24.47,9.52,39.09,31.48,39.52,57.89.32,19.63-4.74,37.92-12.13,55.78-.7,1.69-1.63,3.28-1.49,5.2-4.3,4.28-8.45,8.73-13.44,12.26-2.05-3.08-.03-5.42,1.55-7.7,14.5-20.83,20.09-44.21,18.68-69.18-.81-14.36-6.46-27.14-16.82-37.52-1.31-1.31-2.63-2.55-4.56-2.84-5.25-4.99-10.1-10.48-17.03-13.33-.12-.3-.23-.6-.34-.91Z" style="fill: #ca841a; stroke-width: 0px;"/>
  <path d="M485.8,312.72c4.73,7.83,2.66,16.17.98,24.06-2.99,14.01-7.72,27.53-15.78,39.6-1.87,2.79-3.82,5.7-7.26,6.94-2.08-2.19-1.76-4.98-1.48-7.51,2.53-23,9.37-44.42,23.53-63.09Z" style="fill: #e8c873; stroke-width: 0px;"/>
  <path d="M485.8,312.72c.27,2.16-.59,3.99-1.75,5.68-13.48,19.55-19.62,41.38-20.3,64.92-1.56.95-2.45,3.15-4.82,2.61-3.22-17.09,3.29-32.56,8.37-48.16,2.94-9.03,7-17.71,14.48-24.16,1.19-1.03.91-2.08.37-3.24,1.93-.33,2.78,1.03,3.66,2.35Z" style="fill: #d4982c; stroke-width: 0px;"/>
  <path d="M527.27,289.29c2.59-2.28,4.07-.02,5.57,1.49,11.4,11.46,16.99,25.5,17.6,41.45.89,23.28-4.74,44.96-17.13,64.78-1.9,3.04-5.06,5.41-4.89,9.52-7.02,6.87-14.32,13.42-22.05,19.49-6.75,1.84-13.51,3.69-20.26,5.53-2.52.69-5.04,1.54-7.5-.21,38.32-12.55,54.45-42.74,61.88-79.17,4.6-22.56,1.52-44.1-13.23-62.89Z" style="fill: #995403; stroke-width: 0px;"/>
  <path d="M650.42,352.8c.07-.75.13-1.51.2-2.26,2.39-2.91,4.78-5.81,7.18-8.72-.96,4.67-3.2,8.47-7.38,10.98Z" style="fill: #959595; stroke-width: 0px;"/>
  <path d="M659.19,322.92c1.88,4.56,1.77,9.13.05,13.7-.02-4.57-.03-9.13-.05-13.7Z" style="fill: #f2d28d; stroke-width: 0px;"/>
  <path d="M627.43,387.19c-9.29,9.85-19.11,19.15-29.46,27.89,7.07-12.63,14.36-25.07,25-35.19,8.07-7.67,15.92-15.55,23.87-23.34-3.15,6.46-6.33,12.88-11.33,18.19-3.44,3.65-6.47,7.6-8.09,12.45Z" style="fill: #959595; stroke-width: 0px;"/>
  <path d="M682.14,460.63c-2.4-4.18-5.64-7.7-8.87-11.21,4.08-.77,7,1.56,9.82,3.87,20.13,16.47,25.1,37.99,21.64,62.79-3.32,23.77-13.11,44.4-30.14,60.87-12.75,12.32-28.53,19.82-46.93,20.22-5.44.12-10.81,1.78-16.32.98.38-2.5,2.5-2.35,4.21-2.62,27.32-4.41,46.57-20.32,60.32-43.33,10.49-17.54,16.63-36.49,15.93-57.38-.41-12.31-4.32-23.39-9.66-34.19Z" style="fill: #874b02; stroke-width: 0px;"/>
  <path d="M682.14,460.63c7.48,8.18,10.51,18.46,10.92,28.89,1.62,41.19-14.31,74.06-48.72,97.35-9.89,6.69-21.41,9.27-33.02,11.28-7.37.19-14.72.12-21.84-2.15,16.52-.04,31.22-6.43,45-14.39,28.83-16.64,44.3-42.97,51.17-74.82,3.38-15.67-.22-30.94-3.52-46.16Z" style="fill: #71706f; stroke-width: 0px;"/>
  <path d="M440.1,544.59c-4.3.72-8.6,1.45-12.9,2.17-1.26-.39-2.52-.79-3.78-1.18,1.88-5.56,7.59-6.57,11.66-9.18,14.68-9.41,27.69-21.24,42.98-29.66,8.08-4.45,16.13-9.41,25.8-9.93-20.43,17.03-41.38,33.36-63.76,47.78Z" style="fill: #999998; stroke-width: 0px;"/>
</svg>