<?xml version="1.0" encoding="UTF-8"?>
<svg id="Layer_1" data-name="Layer 1" xmlns="http://www.w3.org/2000/svg" viewBox="0 0 598.28 537.64">
  <path d="M418.28,66.64c9.38,2.55,17.01,8.33,24.24,14.31,14.19,11.72,23.66,27.13,30.83,43.81,3.67,8.53,9.89,14.79,15.78,21.45,2.72,3.07,6.03,5.63,8.75,8.71,3.6,4.08,8.29,6.19,13.05,8.42,15.49,7.26,30.13,15.81,42.72,27.68,8.66,8.17,16.37,17.14,22.84,27.02,4.74,7.25,8.57,15.13,11.81,23.25,6.04,15.14,9.24,30.77,9.87,47.1.85,22.01-3.23,42.99-12.28,62.91-7.64,16.8-18.27,31.64-31.78,44.32-.53.5-1.2.85-1.81,1.26-.83-1.32-.02-2.39.57-3.46.6-1.09,1.41-2.07,2.01-3.16,1.17-2.1,3.74-4.14,2.1-6.68-1.57-2.43-4.62-1.42-6.99-1.18-9.36.95-18.6,1.14-27.82-1.5-4.25-1.22-8.43-2.69-12.08-4.94-9.74-5.99-20.1-11.16-28.2-19.55-1.07-1.45-1.11-3.32-2.01-4.82-2.5-4.18-5.74-7.49-10.48-9.15-5.01-1.75-10.23-2.33-15.45-2.67-9.96-.64-19.93-1.13-29.91-.87-2.13.06-4.24-.14-6.33-.55-4.4-.85-6-2.5-6.42-6.96-.31-3.36-.12-6.74-.13-10.11-.02-9.11.3-18.24-.06-27.33-.98-24.57-.19-49.16-.86-73.73-.37-13.42-.48-26.93-2.84-40.26-1.77-9.99-6.84-17.8-14.61-24.06-.87-.7-1.79-1.36-2.53-2.21-.77-1.27-1.51-2.56-2.6-3.62-1.22-1.18-1.73-2.69-1.72-4.4.03-12.7-.91-25.43.7-38.09,1.08-8.48,5.79-15.05,12.03-20.5,6.37-5.56,14-8.49,22.34-9.74,1.88-.28,4.81.07,5.27-1.94.5-2.25-2.42-3.07-3.99-4.38-1.52-1.28-4.12-1.58-3.99-4.37Z" style="fill: #ccdbe6; stroke-width: 0px;"/>
  <path d="M418.28,66.64c1.9,2.97,5.72,3.45,7.9,6.03.85,1,2.63,1.66,2.22,3.18-.45,1.66-2.4,1.64-3.77,1.9-6.2,1.15-12.37,2.16-18.1,5.17-8.69,4.56-14.87,11.39-17.98,20.49-1.98,5.78-1.81,12.16-1.91,18.31-.13,7.79.16,15.59.18,23.39,0,1.7.16,3.16,1.53,4.37.99.88,2.21,1.71,2.22,3.3-1.45,1.09-2.59-.19-3.79-.59-2.24-.76-4.47-1.49-6.84-1.72-11.86-1.74-23.8-2.18-35.76-2.66-22.32-.9-44.64-.87-66.95-.55-15.68.23-31.37.54-47.04,1.42-2.35.13-4.67.73-7.04.8-1.3.43-2.66.74-4.01.85-12.93,1.06-20.51,9.17-26.21,19.77-.65,1.21-1.1,2.53-2.29,3.35-7.68,3.71-16.27,4.73-24.01,8.33-8.12,3.79-16.73,6.31-24.91,10.11-8.34,3.88-17.4,6.41-26.28,9.09-2.83.86-5.07,2.05-5.7,5.2-.25,1.26-1.03,2.24-1.92,3.15-5.35,5.5-9.98,11.45-12.18,18.99-.38,1.31-1.31,2.4-2.09,3.54-1.23,1.8-2.23,3.83-2.11,5.92.31,5.54-.25,11.33,1.12,16.59,4.06,15.6,6.25,31.33,4.37,47.33-.8,6.86-2.7,13.82-5.8,20.01-2.49,4.97-7.4,8.35-12.21,11.26-2.31,1.39-4.7,2.78-7.41,3.52-12.15,3.31-23.39-1.92-31.43-12.01-8.31-10.41-10.43-22.17-10-35,.39-11.67,3.02-22.7,8.2-33.06,4.91-9.83,10.46-19.47,18.73-26.79,5.26-4.66,10.43-9.52,16.03-13.89,3.88-3.02,7.77-6.77,10.82-10.93,4.46-6.1,8.84-12.22,13.73-18.02,2.99-3.54,4.69-8.18,6.39-12.61.27-.7.34-1.5.72-2.12,5.38-8.75,8.63-18.5,13.16-27.64,2.39-4.81,4.56-9.6,6.21-14.77,1.92-6.01,5.38-11.49,8.05-17.25,7.38-15.96,15.19-31.7,23.91-46.98,3.35-5.86,7.51-11.16,11.61-16.52,12.33-16.09,27.76-28.54,45.12-38.75,1.08-.63,2.16-1.27,3.13-2.06,1-.82,2.93-1.27,2.46-2.87-.42-1.43-2.32-1.12-3.58-1.53-2.04-.66-4.61.91-6.23-1.48,5.36-1.63,10.94-1.98,16.44-2.14,19.17-.55,37.63,3.14,55,11.24,10.01,4.67,19.44,10.51,27.83,17.87,5.44,4.77,10.22,10.2,15.43,15.14,7.09,6.74,15.01,12.03,25.7,12.83,11.28.85,22.57,1.19,33.83,2.1,12.1.98,24.11,2.88,35.52,7.4Z" style="fill: #ccdbe6; stroke-width: 0px;"/>
  <path d="M208.53,2.19c3.03,1.07,6.41-.39,9.37,1.27.81.45,2.26-.11,2.45,1.24.2,1.44-1.03,2.28-2.02,2.93-4.66,3.09-9.43,6.02-14.11,9.09-12.66,8.29-23.67,18.3-33.48,29.92-9.17,10.86-16.14,22.98-22.75,35.34-5.91,11.05-10.91,22.58-16.49,33.81-1.98,3.99-3.84,8.05-5.8,12.05-1.88,3.81-2.13,8.38-4.41,12.14-5.99,9.9-9.04,21.19-14.94,31.21-2.67,4.53-4.79,9.69-6.63,14.79-.17.47-.33,1.02-.68,1.32-6.3,5.32-10.28,12.45-14.97,19.04-1.07,1.51-1.88,3.64-4.43,3.54-.48-.02-1.17.56-1.46,1.05-4.73,7.76-12.97,11.71-19.19,17.83-6.64,6.53-12.13,13.94-16.51,22.24-2.75,5.22-5.98,10.19-7.48,15.97-1.36,5.26-3.37,10.49-3.79,15.83-.87,11.26-1.35,23.11,4.23,33.07,5.58,9.95,12.83,19.23,26.16,20.53,8.09.79,14.4-2.37,20.47-6.71,2.29-1.64,4.19-3.86,6.42-5.67,3.48-2.81,3.1-7.42,4.65-11.15,3.36-8.09,3.34-16.69,3.61-25.14.21-6.63-.69-13.34-2.27-19.87-1.1-4.56-2.66-9.27-2.97-13.71-.44-6.25-2.2-12.63-.58-18.99.12-.48.15-1.01.39-1.43,5.04-8.82,8.09-18.92,16.46-25.59.29-.23.69-.55.7-.85.39-7.52,6.96-7.06,11.62-8.75,4.5-1.64,9.38-2.71,13.67-4.46,4.72-1.92,9.53-4.13,14.27-6.07,11.71-4.77,23.33-9.93,35.72-12.86,2.3-.54,4.25-2.11,6.7-2.2.94.95.65,2.09.39,3.15-1.45,6.03-1.95,12.19-2.51,18.34-.47,1.45-.57,2.94-.41,4.45-.08,3.82.28,7.66-.3,11.47-.97,3.84-.45,7.73-.4,11.6-.14,9.87.41,19.74-.3,29.6-.35,1.32-.58,2.64-.58,4.03.05,11.4-.08,22.79.08,34.19.12,12.95.05,25.9.04,38.85,0,1.5-.18,2.98-.5,4.45-.7,3.22-2.59,4.87-5.95,5.13-8.45.66-16.89.99-25.36.76-1.49-.13-2.99-.22-4.45.27-5.96.43-11.94.66-17.82,1.86-13.21,2.7-19.14,12.86-15.24,25.66,1.08,3.52,3.2,6.46,4.46,9.84,1.13,4.8-1.19,8.45-4.02,11.91-6.15,7.54-13.19,14.27-19.65,21.54-2.7,3.04-2.79,5.23.19,7.94,2.24,2.03,4.92,3.39,7.7,4.54,10.95,4.51,22.5,6.49,34.16,7.88,9.9,1.18,19.79,2.44,29.74,3.15,2.66.19,4.74,1.45,5.06,4.49-7.89-.75-15.79-1.34-23.66-2.29-10.81-1.3-21.63-2.63-32.37-4.39-12.25-2.01-24.16-5.27-35.54-10.45-11.01-5.02-21.43-10.91-30.66-18.78-1.03-.88-1.96-1.89-2.93-2.84-13.17-11.78-23.39-25.71-30.91-41.7-6.9-14.69-11.21-30.13-13.25-46.15-3.02-23.78-1.43-47.21,6.49-70,4.24-12.2,10.35-23.43,18.08-33.77.6-.8,1.15-1.62,1.62-2.5h0c.91-1.32,2.23-2.32,3-3.75,5.75-7.2,12.59-13.39,18.75-20.22,1.54-.95,2.81-2.17,3.73-3.76,1.75-2,3.49-4,5.24-6,.77-.98,1.65-1.89,2.25-3,.75-1,1.5-1.99,2.25-2.99.9-1.32,2.25-2.29,2.98-3.75h0c7.87-10.01,14.26-20.96,20.38-32.08,10.94-19.84,19.71-40.75,29.97-60.93,1.8-3.54,4.02-6.85,5.8-10.4,1.8-5.45,5.86-9.46,9.26-13.79,7.78-9.93,17.13-18.28,27.83-24.97,13.97-8.73,28.87-15.2,45.39-17.37Z" style="fill: #ccdbe6; stroke-width: 0px;"/>
  <path d="M482.7,356.54c3.1.87,4.6,3.82,7.18,5.5,8.92,5.82,17.53,12.17,27.44,16.2,9.84,4,20.2,4.69,30.68,3.29,2.12-.28,4.24.02,6.31-.32,4.33-.72,5.13,3,3.75,5.74-1.11,2.2-2.55,4.26-3.93,6.31-.77,1.14-1.55,2.25-1.82,3.63-14.35,12.77-30.46,22.63-48.75,28.61-7.02,2.29-14.06,4.88-21.6,5.15-.02-2.22,1.85-2.43,3.29-2.9,3.8-1.25,7.52-2.68,11.14-4.36,1.57-.73,3.49-1.44,3.54-3.47.05-2.3-2.15-2.53-3.74-3-11.84-3.47-23.23-8.37-35.3-11.13-5.32-1.22-5.83-3.09-2.48-7.45.19-.31.4-.6.63-.88,1.07-1.17,2.23-2.27,3.03-3.66,5.16-6.64,11.11-12.68,15.24-20.12,2.57-4.63,4.5-9.38,4.51-14.76,0-.87.13-1.74.88-2.36Z" style="fill: #ccdbe6; stroke-width: 0px;"/>
  <path d="M174.83,438.05c-1.76-2.77-4.2-3.56-7.53-3.74-7.78-.41-15.53-1.37-23.27-2.3-7.36-.89-14.7-1.96-21.97-3.53-8.18-1.77-16.15-4.04-23.28-8.54-4.96-3.13-5.07-6.48-.96-10.92,6.64-7.18,13.2-14.43,19.63-21.79,2.55-2.93,4.19-6.4,3.47-10.52,2.14.1,2.42,2.18,3.53,3.36,1.76,1.88,3.41,3.86,5.35,5.57.23.24.44.51.63.78.72,1.29,1.74,2.34,2.8,3.35.58.59,1.13,1.19,1.61,1.85.85,1.45,2.06,2.58,3.29,3.7,15.21,16.87,31.16,33.02,46.9,49.38,12.29,12.78,24.71,25.42,37.43,37.74,12.63,12.23,25.09,24.66,38.35,36.22,5.64,4.92,11.47,9.62,18.11,13.19,3.25,1.75,6.79,2.67,10.34,3.15,7.68,1.04,15.39,1.12,23.01-.73,4.08-.99,7.64-3,11.01-5.43,5.16-3.43,9.77-7.53,14.36-11.67,1.69-1.53,3.1-3.62,5.82-3.45.38.52.31,1.01-.09,1.48-6.25,6.1-12.88,11.71-20.28,16.4-8.87,5.62-18.67,6.22-28.77,5.96-14.44-.37-24.89-8.55-34.95-17.46-28.14-24.92-54.22-51.95-80.71-78.57-1.23-1.23-2.57-2.35-3.85-3.52Z" style="fill: #ccdbe6; stroke-width: 0px;"/>
  <path d="M343.38,515.23c0-.37.02-.73.03-1.1-.95-1.11,0-1.93.63-2.46,8.28-7.08,15.3-15.49,23.7-22.45,1.45-.53,2.49-1.61,3.55-2.67,13.03-13.04,26.07-26.07,39.1-39.11,1.06-1.06,2.17-2.07,2.7-3.53,4.21-5.43,9.27-10.02,14.33-14.62,3.29-2.65,6.29-5.6,8.88-8.96.18-.3.39-.57.62-.84,6.56-6.19,12.32-13.16,18.73-19.5,1.05-1.04,1.87-2.75,3.88-2.17-.05.24-.02.53-.15.72-3.26,5.12-3.26,5.22,3,6.64,12.46,2.84,24.2,7.92,36.41,11.53,3.28.97,3.66,3.75.86,5.79-4.05,2.96-8.89,4.28-13.55,5.94-1.46.52-3.28.47-4.14,2.17-8.01,1.89-16.21,2.3-24.36,2.99-10.53.9-21.08,1.56-31.63,2.23-1.91.12-2.82,1.46-3.93,2.57-14.1,14.12-28.18,28.27-42.27,42.41-11.45,11.48-23.17,22.67-35.15,33.6-.36.33-.82.53-1.24.8Z" style="fill: #ccdbe6; stroke-width: 0px;"/>
  <path d="M31.7,205.18c.15,3.54-3.01,5.27-4.58,7.76-9.69,15.36-16.54,31.77-19.55,49.67-.98,5.84-1.9,11.71-2.17,17.69-.3,6.45-.06,12.86.13,19.28.45,15.02,3.65,29.53,8.47,43.67,4.77,13.98,11.42,27.09,20.78,38.59,4.13,5.07,7.74,10.68,13.14,14.64.96.71,1.34,1.77,1.75,2.81-2.55-.86-4.43-2.79-6.21-4.57-16.56-16.59-29.6-35.47-36.62-58.06-3.84-12.34-6.15-24.92-6.7-37.94-.75-17.72,1.9-34.83,7.6-51.47,4.98-14.55,12.47-27.85,21.76-40.11.58-.77,1.47-1.31,2.22-1.96Z" style="fill: #ccdbe6; stroke-width: 0px;"/>
  <path d="M126.05,58.32c-1.09,4.8-4.2,8.65-6.22,13-7.97,17.14-16.24,34.15-24.64,51.09-6.25,12.6-13.77,24.47-21.77,36.03-.91,1.32-1.99,2.56-3.52,3.27,2.63-4.19,5.22-8.41,7.88-12.58,8.92-13.97,16.33-28.76,23.54-43.65,7.48-15.46,14.62-31.09,23.43-45.86.3-.51.86-.87,1.29-1.3Z" style="fill: #ccdbe6; stroke-width: 0px;"/>
  <path d="M57.17,177.45c-.34,2.15-1.6,3.38-3.72,3.76.96-1.53,2.21-2.78,3.72-3.76Z" style="fill: #ccdbe6; stroke-width: 0px;"/>
  <path d="M69.9,161.72c-.1,1.96-1.54,2.86-2.98,3.75.25-1.84,1.61-2.8,2.98-3.75Z" style="fill: #ccdbe6; stroke-width: 0px;"/>
  <path d="M34.7,201.43c-.13,1.94-1.54,2.86-3,3.74.25-1.85,1.61-2.8,3-3.74Z" style="fill: #ccdbe6; stroke-width: 0px;"/>
  <path d="M64.66,168.46c.01,1.57-.97,2.39-2.25,3,.12-1.47,1.07-2.32,2.25-3Z" style="fill: #ccdbe6; stroke-width: 0px;"/>
  <path d="M482.7,356.54c.63,11.18-5.16,19.64-11.8,27.74-2.82,3.44-5.65,6.89-8.47,10.33-.47.56-1,.57-1.56.14-.22-2.28,1.44-3.6,2.68-5.12,4.35-5.31,8.77-10.57,12.03-16.66,1.3-2.43,2.32-4.98,2.8-7.71.15-.83.34-1.85-.57-2.38-.77-.45-1.42.19-1.99.63-6.54,5.04-14.04,8.6-20.64,13.54-.17.12-.27.19-.31.21-1.7.85-3.24,3.08-5.31,1.64-2.29-1.59-.46-3.65.25-5.36,1.03-2.48.67-4.46-1.06-6.53-3.87-4.63-3.41-6.65,2.01-9.47,5.97-3.1,11.87-6.37,18.26-8.58,2.28-.79,2.08-1.81.37-3.02-3.41-2.41-7.42-3.07-11.38-3.27-13.68-.68-27.37-1.5-41.07-1.62-5.75-.05-7.41,2.65-5.05,8.04.3.69.73,1.3,1.11,1.95,2.4,4.07,1.8,6.75-2.3,8.97-6.02,3.26-12.62,3.59-19.28,3.34-1.75-.07-2.84-1.34-3.98-2.54-5.7-6.02-6.33-13.74-7.74-21.38-1.7-9.23.37-18.5-1.38-27.78-1.03-5.43.29-11.34-.25-17.08-.21-2.23-.86-4.37-.91-6.61-.08-3.67-.6-7.23.38-11,1.27-4.89-.73-9.82-1.41-14.72-.17-1.23-.77-2.47-.32-3.68,3.01-8.04,1.41-16.2.48-24.29-.45-3.96,1.23-7.32,1.95-10.94.32-1.63.66-3.17.04-4.76-1.79-4.52-3.32-9.08-4.38-13.87-.6-2.72-1.05-5.24-.8-8.03.36-4.15-.34-8.16-2.79-11.74-1.42-2.07-2.49-4.41-2.35-6.99.12-2.27-.96-3.41-2.87-4.26-1.93-.86-3.93-1.66-5.58-3.03-2.38-1.97-2.02-4.05.99-4.78,8.48-2.04,16.97-4.08,25.55-5.67,2.54-.47,4.86.64,7.48.77-2.01-3.71-5-6.21-8.76-7.97-1.55-.73-3.84-.77-3.94-3.29,3.54.06,6.55,1.83,9.72,3.05,13.95,9.16,18.5,22.93,19.47,38.73,1.74,28.29,1.2,56.61,1.73,84.91.34,17.96.11,35.92.5,53.88.12,5.38.88,6.19,5.97,6.97,5.59.85,11.21.37,16.81.56,9.57.31,19.15.53,28.64,2.04,9.9,1.58,16.79,6.44,19,16.69Z" style="fill: #219fea; stroke-width: 0px;"/>
  <path d="M380.85,149.72c.73,1.13,1.98,1.58,3.12,1.93,3.59,1.1,6.42,3.28,8.83,6.02,1.26,1.43,3.57,3.07,2.52,4.87-.74,1.25-3.21-.27-4.67-.94-3.07-1.4-5.99-.18-8.79.35-7.17,1.36-14.24,3.26-21.35,4.96-.67.16-1.69-.09-1.81.91-.11.9.44,1.65,1.22,2.15.31.2.65.38.98.55,4.15,2.19,9.33,2.94,8.61,10.02-.36,3.6,4.32,6.38,4.37,10.67.02,1.92.5,3.79.31,5.82-.6,6.52,1.35,12.76,4.13,18.41,2.37,4.82.79,8.9-.48,13.13-.52,1.74-.89,3.35-.62,5.05.89,5.46,1.13,10.88,1.04,16.44-.05,3.17-1.07,5.82-1.4,8.67-.43,3.61.85,7.48,1.7,11.16.79,3.38.6,6.64-.56,9.8-.54,1.47-.54,2.64-.29,4.21.55,3.49.95,7.04,1.35,10.56.66,5.89-.33,11.77.24,17.53.57,5.78,1.33,11.32.35,17.23-.61,3.64.9,7.74,1.38,11.64.82,6.66,1.59,13.5,6.79,18.89,1.87,1.93,3.38,2.96,5.95,2.79,5.45-.37,10.89-.56,15.97-3,4.26-2.05,5.1-4.49,2.25-8.14-2.13-2.72-2.12-5.77-1.81-8.88.17-1.7,1.25-2.5,3.1-2.5,12.31-.02,24.6.57,36.88,1.44,4.21.3,8.44-.14,12.64.78,3.11.68,5.93,1.79,8.46,3.7.84.63,1.61,1.37,1.36,2.44-.22.92-1.26,1.11-2.09,1.33-7.66,2.04-14.31,6.29-21.31,9.77-2.53,1.26-3.18,3.63-1,5.42,4.1,3.37,4.25,6.9,1.59,11.07-.44.69-1.02,1.52-.18,2.37.88.9,1.56.24,2.26-.29,7.94-5.99,17.13-10.12,24.73-16.59,1.76-1.5,2.15-.7,2.69.93.51,1.52.29,2.86-.13,4.36-2.05,7.41-6.67,13.27-11.25,19.16-2.28,2.94-4.63,5.83-6.95,8.74.6,1.51-1.24,1.93-1.38,3.11,0,0-.08.08-.08.08-3.77,2.82-6.8,6.37-9.92,9.87-3.93,4.42-8.02,8.71-12.55,12.54-1.12-1.97.48-3.04,1.54-4.12,4.12-4.24,8.45-8.3,11.08-12.01-15.58,15.62-31.95,32.43-48.83,48.71-16.79,16.19-33.59,32.38-50.96,47.95-7.14,6.4-14.49,12.61-22.8,17.57-5.41,3.23-11.08,5.05-17.4,4.77-4.36-.19-8.72.17-13.08-.4-12.05-1.56-21.11-8.54-29.76-16.23-17.83-15.83-34.72-32.63-51.74-49.32-19.42-19.05-38.42-38.5-57.18-58.19-9.29-9.75-18.19-19.88-26.62-30.41-.31-.39-.61-.79-.91-1.19-5.91-7.81-5.4-12.46,2.2-18.91,2.99-2.53,6.46-4.15,10.24-5.25,13.91-4.06,27.68-2.36,41.43.76,6.92,1.57,9.72-.39,10.4-7.56.5-5.21.95-10.42.92-15.68-.11-19.35-.19-38.7,0-58.05.16-16.71.56-33.43.9-50.13.2-9.67.2-19.46,2.22-29.05,2.24-10.65,8.98-18.24,17.01-24.78,4.59-3.73,10.55-4.55,16.21-5.28,13.61-1.75,27.33-2,41.04-2.53,27.07-1.06,54.14-.38,81.21-.73.94-.01,1.89-.15,2.56.05.77-.02.03-.77.28-.34.07.12-.04.19-.32.2-9.86.22-19.66-1.05-29.53-.91-19.34.28-38.7-.29-58.03.32-7.73.24-15.45.5-23.18.5-6.24,0-12.46.42-18.69.66-1.91.07-4.1.65-5.27-1.7,2.56-1.17,5.36-1.05,8.03-1.23,7.71-.51,15.44-.69,23.17-.96,23.57-.84,47.16-.84,70.74-.53,16.45.22,32.92.34,49.31,2.12,2.55.28,5.2.29,7.63,1.36Z" style="fill: #1d93e5; stroke-width: 0px;"/>
  <path d="M221.98,148.96c3.41,1.9,7.06.38,10.56.47,2.25.06,4.67-.38,7.02-.4,27.06-.16,54.11-.99,81.18-.88,11.05.04,22.07.81,33.11.91,1.7.02,3.39.57,5.26.91-2.59,1.11-5.15,1.31-7.77,1.31-18.1-.03-36.21.02-54.31-.03-11.56-.03-23.13.47-34.66.97-13.07.57-26.3.48-39.13,4.12-5.2,1.48-9.14,4.35-12.59,8.19-5.71,6.36-10.7,13.12-11.53,22.05-.3,3.21-1.08,6.41-1,9.6.22,8.98-.75,17.91-.93,26.87-.71,34.93-.53,69.85-.76,104.78-.03,4.62-.17,9.44-2.07,13.91-1.37,3.21-4.12,4.81-7.42,3.95-9.35-2.46-18.9-4.34-28.51-3.93-8.34.35-16.88,1.34-24.11,6.52-3.27,2.34-5.28,5.66-6.98,9.08-1.44,2.9.87,5.39,2.42,7.43,4.49,5.94,9.21,11.72,14.15,17.29,7.85,8.83,15.81,17.57,23.98,26.1,8.53,8.9,17.56,17.33,26.01,26.3,13.66,14.5,28.16,28.15,42.36,42.1,12.86,12.63,25.78,25.25,40.02,36.38,7.45,5.82,16.01,9.11,25.54,9.05,5.56-.03,11.15.74,16.71-.92,6.63-1.98,12.11-5.85,17.33-9.98,14.64-11.59,27.86-24.8,41.52-37.51,24.67-22.94,48.2-47.03,72.13-70.73,1-.99,1.71-2.48,4.31-2.68-2.75,3.51-4.99,6.64-7.52,9.52-2.3,2.62-4.92,4.97-7.37,7.46-.86.87-1.98,1.61-1.88,3.07,0,0,0-.03,0-.03-2.71,3.5-6.34,6.14-9.04,9.65-4.74,4.77-9.49,9.53-14.23,14.3-.88,1.38-2.1,2.46-3.24,3.6-12.94,12.95-25.89,25.9-38.85,38.85-1.14,1.14-2.23,2.35-3.6,3.25-5.15,5.06-10.37,10.06-15.44,15.2-3.03,3.07-7.06,5.12-9.25,9.05-5.74,3.38-9.92,8.68-15.31,12.5-1.39.99-2.65,2.17-4.26,2.83-9.55,1.25-19.09,1.61-28.68.33-8.24-1.11-15.62-4.29-22.21-9.23-11.9-8.92-22.54-19.26-33.43-29.35-13.09-12.13-25.51-24.93-38.42-37.23-14.61-13.92-28.48-28.64-42.46-43.2-10.44-10.87-20.95-21.72-30.61-33.31-1.16-1.39-2.35-2.81-4.54-3.98.73,3.75,3.05,5.91,4.67,8.47.86,1.36,2.8,2.4,1.74,4.52-3.98-2.34-6.13-6.37-8.97-9.75-3.27-5.31-5.99-10.78-5.97-17.25.03-8.94,5.51-16.3,14.17-18.63,6.84-1.83,13.84-2.5,20.93-2.34,1.17-.67,2.51-.02,3.7-.49,8.8-.44,17.62-.2,26.42-.96,2.62-.23,4.11-.92,4.54-3.74.24-1.59.52-3.15.53-4.77.08-12.92.17-25.85.25-38.77.49-11.38.06-22.76.23-34.14.02-1.34-.31-2.72.31-4.02.08-10,.16-20.01.23-30.01.6-3.71-.31-7.5.51-11.2.08-4.01.16-8.02.24-12.02.48-1.2-.18-2.55.49-3.73-.09-7.37,1.31-14.55,2.96-21.68,2.25-4.96,4.97-9.54,8.65-13.69,6.17-6.95,13.97-9.72,22.88-10.32Z" style="fill: #1d74d5; stroke-width: 0px;"/>
  <path d="M186.02,251.61c.01,11.78.03,23.56.03,35.34,0,.97.23,2.01-.57,2.82,0-12.15-.02-24.29.01-36.44,0-.57.34-1.15.53-1.72Z" style="fill: #1d93e5; stroke-width: 0px;"/>
  <path d="M186.77,210.4c-.21,3.73.67,7.51-.51,11.2.02-3.74-.67-7.51.51-11.2Z" style="fill: #1d93e5; stroke-width: 0px;"/>
  <path d="M187.5,194.65c-.06,1.26.45,2.59-.49,3.73-.1-1.28-.41-2.58.49-3.73Z" style="fill: #1d93e5; stroke-width: 0px;"/>
  <path d="M153.74,338.01c-1.13.94-2.45.42-3.7.49,1.13-.92,2.43-.63,3.7-.49Z" style="fill: #1d93e5; stroke-width: 0px;"/>
  <path d="M459.59,397.75c-.29-1.37,1.13-1.98,1.38-3.11.48-.01.97-.02,1.45-.03-.48,1.46-1.65,2.31-2.83,3.14Z" style="fill: #9cb1c3; stroke-width: 0px;"/>
  <path d="M129.89,386.46c-1.06-3.14-3.8-5.15-5.36-7.96-1.07-1.93-2.58-3.72-1.93-6.45,3.14.54,4.65,3.15,6.46,5.12,5.63,6.12,10.89,12.58,16.58,18.64,8.01,8.54,16.25,16.87,24.43,25.24,12.25,12.53,24.4,25.15,36.85,37.47,13.37,13.23,26.87,26.32,40.63,39.14,8.35,7.78,16.77,15.53,26,22.29,8.23,6.03,17.55,9.31,27.74,9.54,6.2.14,12.44.65,18.63-.61,1.24-.25,2.75-.52,3.92.56-4.18,3.61-9.1,5.5-14.51,6.36-7.82,1.24-15.57,1.1-23.34-.49-8.4-1.72-14.87-6.85-21.15-12.11-9.54-8-18.62-16.53-27.6-25.16-15.56-14.96-30.96-30.07-46.07-45.48-13.79-14.07-27.43-28.28-41.02-42.54-4.45-4.67-8.53-9.68-12.78-14.54-.88-1.39-2.06-2.51-3.15-3.72-.7-.27-1.18-.73-1.36-1.48-.73-1.46-2.15-2.4-2.95-3.81l-.02-.03Z" style="fill: #1f6dcf; stroke-width: 0px;"/>
  <path d="M129.91,386.49c1.36.97,2.84,1.86,2.95,3.81-1.3-1.02-2.84-1.86-2.95-3.81Z" style="fill: #1d74d5; stroke-width: 0px;"/>
  <path d="M134.21,391.77c1.6.78,2.92,1.79,3.15,3.72-1.42-.92-2.7-1.97-3.15-3.72Z" style="fill: #1d74d5; stroke-width: 0px;"/>
  <path d="M368.1,489.87c3.1-3.23,6.16-6.5,9.31-9.67,11.08-11.13,22.19-22.22,33.31-33.32.96-.96,2.04-1.81,3.06-2.71.07,1.46-1.07,2.18-1.93,3.04-13.56,13.58-27.13,27.15-40.72,40.71-.86.86-1.58,2-3.04,1.94Z" style="fill: #1d93e5; stroke-width: 0px;"/>
  <path d="M428.01,429.87c2.08-4.09,5.71-6.73,9.04-9.65-2.11,4.07-5.67,6.77-9.04,9.65Z" style="fill: #1d93e5; stroke-width: 0px;"/>
  <path d="M393.56,282.78c0-15.59.19-31.19-.06-46.78-.21-12.79-.66-25.6-1.56-38.35-.46-6.49-.84-13.13-3.64-19.26-.94-2.06-2.12-3.9-3.41-5.74-1.11-1.58-2.21-3.52-.66-5.49,1.59-2.01,3.69-1.17,5.48-.5,5.26,1.97,7.78,6.31,9.38,11.38,1.55,4.92,1.56,10.06,1.86,15.09,1.24,20.78.34,41.61,1,62.4.78,24.36.27,48.72.68,73.07.07,4.13.3,8.43,3.15,12,2.26,2.83,1.2,5.99.13,8.9-.57,1.55-2.26,2.63-3.92,2.36-2.6-.43-5-1.47-6.09-4.28-1.83-4.72-2.2-9.71-2.25-14.63-.19-16.71-.07-33.43-.08-50.15Z" style="fill: #57adea; stroke-width: 0px;"/>
</svg>