<?xml version="1.0" encoding="UTF-8"?>
<svg id="Layer_1" data-name="Layer 1" xmlns="http://www.w3.org/2000/svg" viewBox="0 0 1450.69 1094.2">
  <path d="M969.51,890.5c-.27,27.41-.51,54.82-.86,82.24-.05,4.17.77,8.45-1.07,12.49-4.32-4.17-2.96-9.62-2.97-14.59-.1-58.7-.06-117.41-.09-176.11,0-3.22.52-6.55-.89-10.15-8.14,3.05-11.84,8.39-11.73,16.61.24,19.04.99,38.09,1.31,57.1.76,45.34,2.07,90.74-1.43,136.06-1.11,14.42-7.86,22.27-23.58,25.69-36.67,7.96-73.55,14.84-110.38,22.02-34.45,6.71-68.92,13.33-103.35,20.15-2.97.59-5.99,1.16-8.76,2.34-21.89,9.37-41.88,4.3-61.35-7.33-10.87-6.5-13.65-16.9-13.77-27.93-.22-20.27-3.23-40.42-2.17-60.72.5-9.63-1.45-18.4-7.35-26.49-6.36-8.71-6.38-19.54-6.7-29.66-.84-26.57-.29-53.16,1.52-79.7.58-8.54,3.74-11.26,11.73-8.43,8.82,3.12,18.65,1.85,26.91,6.84,9.93,7.85,12.48,18.32,12.31,30.58-.45,32.05-.13,64.1-.16,96.16-.03,26.3,1.32,52.54,3.79,78.72.6,6.33,2.48,11.89,9.6,13.83,9.68,2.63,16.9-1.61,18.4-11.85,1.44-9.84,2.67-19.74,2.67-29.77,0-55.34-.39-110.67.25-166.01.07-6.23-1.4-9.22-8.04-8.11-2.08.35-4.23.07-6.27-.61-1.58-.56-2.76-1.56-3.49-3.07-.24-3.39,2.4-3.68,4.69-4.34,30.38-8.77,61.64-14.17,91.76-23.93,4.39,2.21,3.94,6.32,4.08,10.25.73,20.57.19,41.16.44,61.73.05,4.38-1.15,9.75,4.21,11.92,5.01,2.02,8.56-1.7,11.88-4.79,5.1-4.74,9.81-9.88,14.87-14.66,7.54-7.12,12.84-7.84,22.15-3.21,5.43,2.7,10.03,6.83,15.63,9.2,6.46,2.72,8.69,1.24,9.73-5.66,2.81-18.68,1-37.39.99-56.11-.01-15.07-3.32-29.27-6.76-43.65-1.97-8.21-6.83-12.26-15.25-12.85-9.07-.63-18.03-2.14-26.59-5.42-5.27-2.02-10.47-4.53-10.68-10.95-.2-6.03,4.91-8.61,9.41-11.14,5.29-2.99,10.91-5.23,16.82-6.65.86-.24,1.75-.36,2.65-.4,6.5,1.16,12.1-2.43,18.18-3.54.82-.29,1.65-.49,2.5-.67,3.09-.44,6.15-.96,9.11-2.02,13.34-3.17,26.79-5.76,40.37-7.64,2.55.02,5.09.11,7.16,1.9.15,5.34-4.48,5.05-7.52,5.75-22.38,5.14-44.09,12.99-66.84,16.66-.89.14-1.59.82-2.47,3.12,10.78,3.62,19.78,11.8,31.85,12.28,24.24.98,48.31-2.08,72.41-4.01,3.96-.32,7.58-2.03,11.2-3.58,3.34-1.42,6.67-3.09,10.44-1.26,6.87,6.35,9.07,14.66,10.06,23.53,1.96,17.41,2.09,34.88,1.98,52.38-.13,19.9-.07,39.81,0,59.71.02,6.08-.61,12.02-2.48,17.82Z" style="fill: #c29061; stroke-width: 0px;"/>
  <path d="M969.51,890.5c-.17-35.12-.24-70.24-.59-105.36-.09-9.04-.65-18.12-1.79-27.08-.96-7.53-4.32-14.38-8.69-20.65-7.9-7.9-12.31-18.58-21.16-25.85-7.28-5.98-14.68-10.63-24.53-9.53-22.96-.91-44.78,6.17-67.1,9.66-11.91,1.86-23.79,4.16-35.61,6.62-18.44,2.66-36.78,5.95-54.85,10.49-3.86.97-7.77.47-11.51,1.67-24.02,4.67-48.13,8.86-72.1,13.73-5.06,1.03-9.67,3.45-14.25,5.79-16.87,7.53-26.66,21.49-34.12,37.57-3.77,7.67-6.17,15.76-7.58,24.18.28,33.6-1.83,67.18-.62,100.74.48,13.16.4,25.96-4.19,38.41-11.51,23.1-31.42,29.81-54.66,18.04-15.04-7.62-30.51-14.34-45.43-22.18-7.31-4.22-14.14-8.99-18.24-17.53-2.43,8.66,2.16,17.36-3.28,24.74-.48-1.69-1.55-3.46-1.34-5.07,2.68-21.45-3.89-41.62-8.23-62.12-.74-3.5-1-7.15-1.01-10.74-.07-34.74.08-69.49-.07-104.23-.23-51.89,37.04-105.52,94.86-112.28,3.55-.42,7.08-1.06,10.61-1.6.54.75,1.02,1.63.71,2.5-3.44,9.66-3.13,11.07,6.22,16.18,36.46,19.94,75.07,32.18,117.07,29.25,14.94-1.04,29.95-3.67,44.61-7.23,14.68-3.56,29.82-5.17,44.17-10.05,15.65-5.33,17.47-12.58,5.84-23.88-9.31-9.04-18.82-17.89-30.7-23.75-3.37-1.66-6.62-2.79-10.33-2.64-4.09-.51-8.17-1.04-11.28-4.18-1.27-2.62-1.41-5.11.82-7.33,12.99-2.4,25.92-5.25,38.99-7.05,12.58-1.73,24.76,1.35,36.03,6.74,30.21,14.44,60.19,29.36,90.24,44.12.78.38,1.39,1.09,2.88,2.28-8.9,3.22-18.38-1.4-28.34,5.1,11.71-1.46,21.42,2.06,30.7-2.63,1.93-.97,3.41-.3,5.11.42,26.93,11.44,45.46,30.87,49.21,60.11,5.47,42.66,1.69,85.73,1.86,128.62.04,8.89-1.34,18.7-8.32,26.01Z" style="fill: #d0cfcf; stroke-width: 0px;"/>
  <path d="M171.46,359.69c1.82-7.73,9.24-9,14.6-12.65,4.73,2.89,7.64,8.34,13.54,9.59,3.52,1.48,7.21,2.44,10.84,3.59,17.04,5.43,34.26,6.04,51.67,2,8.58-1.99,15.63-6.16,20.21-13.96,4.48-7.61,1.31-13.23-8.21-14.44-8.37,8.43-19.74,7.78-30.12,9.41-4.9.77-7.67-4.12-8.9-8.84-1-3.85-.75-7.81-.82-11.75-.41-26.3,1.01-52.63-1.64-78.92-.64-6.3-2.34-10.99-7.78-14.31-3.09-1.89-6.07-4.1-8.3-6.99-3.57-4.63-4.81-9.23,1.25-13.03,10.23-2.64,20.66,1.76,31.01-1.04,4.94-1.34,9.88-2.1,13.68-5.88,4.12-5.06,9.63-5.78,15.57-4.83,29.06,4.66,58.42,6.85,87.62,10.45,24.12,2.98,48.11,7.64,72.55,7.41,4.26.12,8.29-.97,12.25-2.41,5.75-.34,9.32-6.4,15.4-5.91,8.17,4.07,14.77-2.13,21.96-3.71,22.96-5.06,45.36-13,69.32-12.43-2.09,5.34-7.31,4.59-11.43,5.58-24.93,5.96-49.68,12.45-73.09,23.17-6.31,2.89-12.49,6.13-17.88,10.5-4.57,3.7-8.4,8.11-4.91,14.69,9.36,9.62,22.35,12.66,33.68,18.68,10.85,5.76,22.71,9.63,32.5,17.37,3,10.07-1.62,18.3-7.14,25.82-3.17,4.32-8.35,4.54-13.13,1.59-22.39-13.86-46.27-25.08-68.87-38.58-6.51-3.89-12.8-8.05-16.86-14.82-1.21-2.02-2.85-4.31-5.76-3.31-2.26.78-2.57,3.14-3.1,5.21-3.32,13.09-1.34,26.53-2.55,39.77-.39,4.22,2.8,4.38,5.48,2.59,6.83-4.54,13.73-2.98,20.97-1.35,19.46,4.38,39.33,7.1,58.04,14.47,2.53,1,5.17,1.71,7.64,2.88,9.08,4.27,10.32,9.65,3.14,16.74-11.24,11.09-24.77,19.34-37.34,28.78-10.64,7.99-21.3,15.95-32.12,23.71-5.01,3.59-11.88,7.15-9.4,15.68,2.07,3.4,5.17,5.33,8.83,6.71,2.55.96,5.9,1.34,6.02,5.24-5.7,8.36-15.1,7.12-23.06,7.83-48.12,4.33-96.14,9.64-144.2,14.64-3.92.41-7.88.03-11.78.39-10.05.92-16.92-2.68-20.19-12.67-1.85-5.64-6.07-9.42-10.95-12.84-19.24-13.51-33.46-31.97-48.26-49.84Z" style="fill: #ececec; stroke-width: 0px;"/>
  <path d="M989.11,297.98c17.28,7.62,34.51,15.39,50.52,25.45,6.57,4.13,12.92,9.09,13.03,18.17-1.6,5.09-5.18,8.18-10.22,9.33-10.42,2.37-20.02,6.88-29.69,11.16-32.77,14.5-67.68,22.65-101.41,34.29-22.23,7.67-45.59,8.22-68.57,11.16-3.29.42-6.66.08-9.69,1.83-8.79,3.5-18.35,1.06-27.27,3.59-16.47-.28-32.17,4.86-48.29,6.99-9.69-1.13-18.52,2.27-27.21,5.64-6.91,2.68-6.81,9.22-5.16,14.75,9.71,32.38,2.53,65.47,4.56,98.15.28,4.57-1.78,8.15-6.04,10.32-4.41,2.25-7.5-.15-10.53-2.81-2.73-2.4-5.46-4.89-8.65-6.58-9.37-4.94-14.88-12.63-18.35-22.56-3.82-10.91-8.34-13.32-19.46-10.07-18.57,5.43-37,11.38-55.07,18.32-4.6,1.77-8.76,4.54-11.54,8.55-15.15,21.81-38.27,30.68-62.02,38.46-8.32,2.73-16.81,5.04-25.39,6.87-10.27,2.19-16.54-1.23-16.03-11.25,1.12-21.77-14.64-33.54-26.37-47.54-5.09-6.08-11.76-11.24-19.01-15.15,1.39-7.66,6.46-11.95,13.33-14.62,5.16-.05,7.4,5.48,12.11,6.3,10.63,3.87,21.89,5.25,32.7,8.4,15.12,2.68,29.87,2.04,43.99-4.72,7.26-3.47,9.62-9.83,9.24-17.1-.4-7.73-6.88-10.62-13.07-6.33-6.44-1.29-7.45-6.45-8.03-11.64-.57-5.1-.41-10.27-.26-15.4.7-23.51,4.07-47.02-.73-69.13-1.04,3.94-1.23,9.48-1.1,15.03.5,21.13-1.29,42.3,1.42,63.4.66,5.14-.73,10.25-1.88,15.24-1.91,8.26-7.41,11.97-15.98,11.23-7.17-.62-10.45-4.07-10.6-13.11-.33-19.97,2.4-39.76,4.2-59.6,1.04-11.43,2.77-22.79,3.27-34.27.15-3.36.4-6.69-1.13-9.78-3.17-6.37-1.51-11.68,3.35-16.37,6.71-3.16,13.55-6.05,20.33-9.07,8.61-.14,10.49,5.9,11.05,12.6.66,7.83.23,15.7.24,23.56.03,22.66-.04,45.33.03,67.99.03,10.73.76,11.35,10.72,8.82,13.76-3.49,27.64-6.57,41.26-10.59,1.16-.34,2.64-.33,3.43-1.07,13.08-12.14,33.19-17.46,36.84-38.79,1.78-10.38.29-19.04-8.24-26.03-25.11-20.59-52.63-36.36-84.74-43.14-2.37-.5-4.81-.77-6.88-2.13-3.72-2.46-5.15-6.43-1.29-8.85,10.88-6.83,21.92-13.76,35.44-14.18,16.86,6.64,32.55,15.69,48.8,23.61,19.24,9.37,38.25,19.2,57.77,28.02,5.06,2.29,10.35,3.08,15.62,4.32,20.48-.08,40.93,1.12,61.38-1.25,7.96-.92,16.23-1.55,24.17,1.14,3.51,4.35-.55,5.69-3.16,7.12-3.81,2.1-8.13,2.2-12.4,1.9-6.13-.44-11.94.44-17.6,3.91,2.28,2.63,5.12,2.05,7.64,2.11,26.33.62,52.55-1.1,78.8-3.02,28.08-2.06,56.06-4.63,83.76-9.68,32.22-5.88,63.72-14.43,94.23-26.47,3.25-1.28,8.78-2.06,8.36-5.71-.51-4.5-6.26-3.37-9.84-3.97-5.98-.99-12.08-.22-18.13-.52-3.54-.18-7.45.32-9.58-3.65-.26-6.04,5.25-6.53,8.72-8.9,5.74-3.9,5.93-6.45.8-11.09-3.97-3.59-9.78-4.72-12.79-9.58,0-1.51.49-2.48,2.26-1.99Z" style="fill: #e8e8e8; stroke-width: 0px;"/>
  <path d="M580.46,314.26c-2.25-.7-4.25-1.58-6.85-.28-8.1,4.04-16.42,7.62-24.59,11.53-2.03.97-5.14,1.55-4.57,4.74.49,2.79,3.29,3.69,5.59,3.81,13.6.7,25.74,6.24,37.81,11.59,19.67,8.71,37.7,20.13,53.83,34.51,5.94,5.29,8.86,11.48,7.6,19.26-2.21,13.65-3.18,28.18-20.45,32.53-1.89.48-4.49,2.01-4.98,3.6-3.59,11.68-14.39,11.91-23.24,14.51-13.55,3.98-27.56,6.42-41.13,10.36-7.21,2.09-8.38-.43-8.35-6.72.16-31.76.1-63.52.07-95.28,0-6.63-.37-13.16-9.49-13.41-6.87.25-15.06-2.58-17.74,7.55-4.07,5.9-4.93,10.86-1.6,18.56,2.86,6.6.21,15.84-.81,23.81-3.27,25.63-5.87,51.32-6.6,77.15-.3,10.56,4.05,13.61,14.22,11.02,3.86-.98,6.9-3.37,7.14-7.29.49-7.98,1.51-15.8,1.13-24.04-1.12-24.04-2.58-48.26.85-72.31.45-3.13-.98-6.63,1.78-9.81,4.53,2.67,3.33,7.08,3.94,11.01,4.2,27.38-.67,54.74-.05,82.1.12,5.41-.37,11.19,6.65,13.14,4.47,5.06.37,7.48-3.27,9.5-5.83,3.23-12.51,3.68-18.92,4.9-12.06,1.44-24.06,1.45-36.02-1.17-6.17-1.35-11.51-3.68-14.56-9.61-2.46-4.79-4.9-4.66-7.63-.14-1.48,2.45-2.12,5.9-6,6.01.13-4.59-1.56-7.37-6.1-9.65-14.54-7.31-29.57-13.67-43.46-22.25-4.46-2.76-8.71-5.95-11.23-10.3-2.83-4.89-6.56-5.67-11.33-5.15-32.84,3.56-65.65,7.4-98.53,10.58-19.16,1.85-38.47,2.15-57.61,4.1-14.5,1.47-28.64,1.93-42.95-1.69-14.22-3.59-23.57-11.05-26.29-26.1-3.31-18.28-3.59-36.5-.03-54.69.72-3.68,1.53-7.77,4.78-10.51,10,8.1,18.67,17.55,27.17,27.16,6.79,7.68,12.99,15.98,22.61,20.5,7.49,3.52,11.04,10.25,13.36,17.45,1.96,6.1,5.63,7.82,11.5,7.7,24.7-.48,49.1-4.08,73.6-6.74,14.64-1.59,29.32-2.79,43.98-4.23,18.84-1.85,37.69-3.58,56.48-5.83,3.24-.39,7.43-.85,9.22-4.86,9.45-4.95,19.97-2.91,29.94-4.13,6.5-.8,13.13-.7,19.56-2.42,2.63-.71,5.54-1.66,8.01-.65,8.15,3.31,11.05-1.06,12.4-8.32-11.64,9.81-25.54,10.94-39.9,10.78-15.65-.17-31.3-.03-46.54-4.42-3.72-5.16-1.1-8.99,2.65-12.57,12.05-11.47,26.62-19.62,39.53-29.99,11.95-9.6,25.25-17.5,36.55-27.94,7.81-7.21,6.87-10.49-3.13-14.51-23.33-9.4-48.28-12.45-72.47-18.44-4.81-1.19-8.79,1.31-12.21,4.58-1.61,1.54-3.29,2.83-5.5,1.02-1.67-1.37-3.44-3.01-2.88-5.3,3.44-14.2-.48-28.97,3.44-43.1.88-3.18,1.54-6.69,5.24-7.86,2.79-.88,4.9,1.05,5.97,3.13,7.49,14.64,22.58,19.35,35.3,26.94,16.82,10.04,34.38,18.84,51.2,28.87,5.22,3.11,9.5,2.26,11.67-1.68,3.8-6.91,7.88-14.18,6.62-22.75.23-3.29,1.67-6.24,2.59-9.34,3.79-9.87,11.18-14.49,21.54-15.33,21.93-1.77,42.8,2.51,62.97,10.74,7.32,2.99,14.44,6.51,18,14.36,1.51,11.37.38,13.74-9.68,18.44-5.2,2.43-10.02,5.6-15.42,7.59-2.41.84-4.87,1.52-7.3,2.31-2.42,1-5.17,1.33-7.06,3.44Z" style="fill: #cecece; stroke-width: 0px;"/>
  <path d="M618.65,283.44c-3.36-6.2-9.05-9.78-15.21-12.25-20.31-8.16-41.21-13.2-63.4-11.6-10.29.74-17.76,4.73-21.25,14.84-5.19,3.77-10.04.83-14.49-1.29-12.83-6.09-25.95-11.56-38.56-18.12-14.41-7.49-15.47-13.5-4.3-25.86-8.74,2.89-10.4,10.89-13.7,17.61-5.09-5.41-1.94-10.03,1.7-14.24,7.76-8.97,18.4-13.54,29.01-17.91,21.82-8.98,44.53-15.09,67.47-20.42,3.76-.87,7.88-.65,11.2-3.15,37.59-6.39,75.33-11.62,113.42-13.78,31.26-1.77,62.45-2.25,91.67,11.81,21.24,10.22,42.39,20.62,63.54,31.03,6.66,3.28,13.17,6.85,19.75,10.29,4.4-.75,7.61,1.12,10.11,4.57.84,8.31-4.92,7.01-9.55,6.05-9.74-2.01-19.13-5.6-29.09-6.73-2.09-.24-4.16-.73-6.27-.89-17.37-1.35-20.93.91-24.15,17.79-2.32,12.14-8.94,20.65-18.78,27.58-15.92,11.22-33.03,19.86-51.31,26.52-15.2,5.53-30.55,6.49-46.3,3.57-13.39-2.48-26.35-6.53-39.36-10.46-7.78-2.35-12.59-6.33-12.17-14.97Z" style="fill: #474747; stroke-width: 0px;"/>
  <path d="M489.2,953.96v-29.34c7.27,7.62,13.31,15.25,21.96,20.21,5.28,11.09,16.14,15.82,25.68,21.78,8.9,5.56,18.59,9.89,28.18,14.22,16.43,7.43,25.24,4.66,34.44-11.03,3.26-5.57,8.34-10.42,8.31-17.6,3.9-12.51,5.31-25.27,5.24-38.41-.18-35.12.2-70.24.36-105.36,1.28-.9,2.56-.97,3.83.01,1.94,9.74,8.62,13.59,17.8,15,7.17,1.1,14.22,2.98,21.57,2.74,8.88,2.85,18.78-1.05,27.3,4.12.58.59,1.17,1.18,1.75,1.77-10.87,4.67-21.75,4.45-32.63.03-9.68-3.01-20.02-2.99-29.59-6.82-3.97-1.59-4.78,1.91-4.98,5.35-1.56,27.41-2.69,54.86-1.48,82.26.52,11.68.8,24.05,10.7,33.57,3.6,3.46,3.84,9.98,3.52,15.5-1.29,22.68,1.97,45.23,2.05,67.89.05,12.26,4.91,21.64,17.55,27.87,18.26,9.01,35.16,10.07,54.83,4.14,23.78-7.17,48.73-10.49,73.2-15.31,50.13-9.86,100.31-19.52,150.43-29.48,13.76-2.73,19.05-10.87,20.06-24.98,3.05-42.9,1.76-85.85,1.33-128.76-.19-19.27-.4-38.67-1.84-57.88-1.1-14.67,5.79-21.53,18.51-26.67,0,3.77,0,7,0,10.23-.03,61.76-.06,123.53-.07,185.29,0,3.63.25,7.25.38,10.88.82,8.08-1.38,15.65-3.81,23.19-2.73,1.92-5.45,3.97-7.49,6.54-10.88,13.68-25.87,18.74-42.39,21.87-65.92,12.51-131.83,25.14-197.76,37.61-7.43,1.41-14.87,2.78-22.13,4.9-14.28,4.17-27.97,1.88-41.76-2.74-43.78-14.69-83.88-37.29-125.07-57.56-7.59-3.74-15.1-7.53-23.6-8.72-10.01-11.21-13.71-24.69-14.06-39.35-.14-5.67-.2-11.34-.3-17.01Z" style="fill: #ac7951; stroke-width: 0px;"/>
  <path d="M1054.41,356.05c-.67,7.43,1.16,9.28,9.66,7.96,23.35-3.62,47.04-5.05,70.5-8.05,10.94-1.4,22.11-1.74,32.74-5.22,3.79,10.87,12.57,15.17,22.83,18.19,15.42,4.55,30.7,8.22,47.08,5.56,10.77-1.75,20.4-4.94,27.88-13.14,2.22.04,4.38,0,2.26-3.16-.29-2.24-.32-4.39,1.94-5.74,11.57,3.74,15.95,12.79,17.62,23.84-11.1,14.34-20.47,29.9-31.62,44.25-14.13,18.18-31.89,28.79-54.62,32.31-29.87,4.63-59.81,8.66-89.76,12.63-1.5.2-3.04.06-4.52.3-16.42,2.6-26.55-3.55-32.59-19.68-4.07-10.86-8.37-22.03-15.15-31.81-1.53-9.11-2.96-18.27-2.99-27.51-.03-7.29-2.07-13.47-7.52-18.4-2.84-8.94-1.44-11.68,6.26-12.31Z" style="fill: #eaeaea; stroke-width: 0px;"/>
  <path d="M1058.44,499.73c-.77,2.32-1.54,4.64-2.31,6.96-2.78,9.39-8.81,15.95-16.95,21.31-20.97,13.81-44.72,20.69-68.25,28.14-11.48,3.64-23.21,6.4-34.99,8.92-7.98,1.84-15.93,3.86-24.12,4.58-4.21,1.23-8.52,1.61-12.88,1.55-3.25-.11-6.49-.16-9.63.91-1.81.44-3.65.66-5.51.75-3.23.02-6.46.08-9.57,1.19-4.24.39-8.45,2.74-12.73.2-.72-1.45-.65-2.86.19-4.23,3.37-2.97,7.59-3.28,11.77-3.77,15.2-1.78,30.37-3.84,45.31-7.2,13.48-3.03,15.15-5.16,17.21-19.02.31-2.1.77-4.13,1.84-5.97,6.04-6.26,13.74-10.74,19.27-17.58,15.7-19.41,21.92-40.63,11.72-64.66-5.38-12.68-14.66-21.14-28.38-24.19-2.95-.66-6.03-1.01-7.4-4.35-2.68-10.9-4.43-12.42-15.85-13.71-.9-.1-1.82-.06-2.71-.21-2.57-.44-6.45,0-6.63-3.19-.18-3.23,3.74-3.32,6.23-3.76,29.9-5.17,58.58-14.53,86.95-24.98.83-.4,1.7-.71,2.58-.97,4.02-.71,7.86-1.89,11.2-4.38,6.7-3.43,13.85-5.16,21.33-5.71,14.99.35,19.2,4.52,19.2,19.68,0,30.06,3.04,59.88,6.51,89.67,2.16,8.47-.5,16.26-3.4,24.02Z" style="fill: #050505; stroke-width: 0px;"/>
  <path d="M898.47,568.83c4.16-.56,8.31-1.13,12.47-1.69,4.01,7.53-1.55,9.79-6.81,11.41-14.46,4.47-29.44,6.49-44.33,8.93-28.9,4.75-58.06,7.15-87.24,8.63-18.97.96-38.02-.78-55.89-8.66-13.28-5.86-16.34-11.2-13.28-25.38,1.32-6.13-1.19-10.12-5.88-12.94-8.5-5.12-17.64-7.77-27.72-5.71-18.7,3.82-36.83,9.71-54.92,15.61-30.48,9.93-61.09,19.34-92.3,26.74-9.44,2.24-18.89,3.77-28.68,3.72-12.15-.07-22.13-4.6-28.77-14.41-4.43-6.55-8.49-9.25-15.51-4.54-5.74-21.98-6.5-43.84,1.64-65.47,3.37-.93,6.22-.9,8.8,2.29,3.41,4.22,8.9,6.77,12.01,10.82,11.54,15.05,29.24,26.79,26.77,49.82-.86,8.01,4.05,11.02,11.64,9.13,20.48-5.11,40.74-10.8,59.67-20.54,10.15-5.23,18.58-12.16,25.22-21.45,4.67-6.53,10.79-11.22,18.61-13.74,16.63-5.37,33.14-11.08,49.77-16.46,14.73-4.77,19.45-2.84,24.74,11.51,3.4,9.22,8.29,16.39,17.26,20.89,3.68,1.85,6.64,5.13,9.93,7.76,1.78,1.42,3.19,4.33,6.02,2.55,2.7-1.69,5.69-3.15,5.68-7.4-.11-28.43.37-56.87-.28-85.28-.16-7.17-6.32-13.54-5.17-21.56.44-3.03-.07-6.72,2.97-8.07,10.04-4.44,20.17-9,31.67-7.42.24,4.29-3.7,4.11-6.05,5.41-4.46,2.45-9.28,4.31-12.5,8.56-1.69,2.21-2.74,4.72-3.59,7.34-2.21,5.76-2.48,11.75-2.47,17.82.04,25.92.01,51.84.02,77.77,0,29.26,6.16,36.19,34.83,39.21,4.03,1.48,8.24,1.26,12.42,1.22,9.71.02,19.42,0,29.13,0,5.7-.2,11.47.76,17.07-1.05,3.57-.8,7.2-.65,10.82-.72,5.05-.11,10.16.55,15.1-1.18,3.7-.6,7.37-.95,10.6,1.58,4.22-.61,8.44-1.22,12.67-1.84,2.97-1.45,6.42.42,9.34-1.37,1.73-.12,3.47-.23,5.2-.35,2.93-1.65,6.43.37,9.33-1.47Z" style="fill: #d8d8d7; stroke-width: 0px;"/>
  <path d="M451.44,214.68c-3.42,2.2-7.09,3.51-11.22,3.21-13.34-4.12-27.32-3.26-40.95-5.16-40.5-5.65-81.22-9.62-121.73-15.22-5.65-.78-11.36-1.03-17.02-2.02-5.64-.98-10.83.34-14.14,5.69-.68.68-1.48,1.21-2.36,1.6-2.82.93-5.82.48-7.48-1.68-6.13-8-13.41-5.92-20.96-2.98-.99.24-1.97.35-2.99.35-7.43-2.68-14.99-.79-22.37-.19-46.75,3.83-93.54,7.1-140.37,9.5-17.16.88-34.12-2.79-49.34-11.86,3.8-10.99,14.39-8.01,22.15-10.37,9.88-3,20.36-1.48,30.56-2.17,31.97-2.15,64.02-.44,95.93-2.18,19.93-1.09,39.8-.77,59.7-1.32,7.75-.22,15.37.67,22.66-4.1,3.92-2.57,10.05-3.82,11.44,4.49.43,2.58,2.85,5.19,5.91,4.6,4.04-.78.6-3.06.48-4.74-.23-3.12,2.38-1.68,3.79-2.13,11.7-3.7,23.93-1.72,35.9-3.09,22.68-2.59,45.64-2.67,68.45-4.15,20.68-1.34,41.31-3.92,62-4.5,13.42-.38,27.17.86,39.12,8.4,4.02,2.53,8.12,5.37,9.02,10.71-.3.28-.6.57-.89.86-4.91,3.72-6.14,10.13-10.45,14.34-1.57,1.53.16,3.31.91,4.87.29,4.46-7.06,4.16-5.76,9.25Z" style="fill: #d3d3d3; stroke-width: 0px;"/>
  <path d="M987.29,192.64c2.08-10.09,9.67-14.88,18.24-18.37,18.62-7.58,37.81-5.45,57.02-2.94,18.46,2.41,36.95,4.55,55.43,6.78,24.14,2.91,48.26,6.07,72.46,8.51,6.91.7,14.18,3.53,21.12-.62.88-.53,2.7-.64,3.43-.08,11.51,8.79,25.4,4.57,37.97,6.12,24.75,3.06,49.97,2.05,74.83,4.43,35.32,3.38,70.98,2.69,106.04,8.91,4.68.83,9.57,1.55,13.11,5.36,2.12,7.8-4.28,8.5-8.82,9.6-20.09,4.87-40.36,6.47-61.03,3.43-28.29-4.15-56.74-7.08-85.14-10.4-20.06-2.35-40.1-4.96-60.13-7.54-3.98-.51-7.79-.56-11.47,1.39-2.78,1.47-5.96,2.27-8.62.25-5.67-4.29-12.09-3.51-18.32-2.94-45.41,4.2-90.88,7.56-136.35,11.05-12.08.93-24.11,1.41-36.19,1.53-6.78.07-13.18-1.55-19.41-4.05-9.2-3.69-15.37-9.51-14.16-20.43Z" style="fill: #ddd; stroke-width: 0px;"/>
  <path d="M890.92,200.13c3.85-19.06.98-38.33,1.13-57.47.06-8,.48-16.4-1.01-24.51-.4-.83-.73-1.91-.16-2.54,11.28-12.26,22.63-24.46,36.79-33.59,4.84-.7,9.62-2.09,14.59-1.65,2.69-.09,6.17,6.23,7.97-1.01.54-3.16,2.11-5.95,3.06-8.97.41-.75,1.05-1.19,1.87-1.38,13.11,23.34,7.77,48.85,8.46,73.6.53,18.95.12,37.92.12,56.89,1.34,13.81-1.2,17.29-14.34,20.18-4.14.91-8.45.45-12.5,1.83-1.48.42-2.99.65-4.52.75-4.52.1-9.05.05-13.58.11-6.7-.31-13.28-1.46-19.54-3.79-8.64-3.21-11.8-10.6-8.34-18.45Z" style="fill: #e2e2e2; stroke-width: 0px;"/>
  <path d="M1178.02,339.65c3.81-2.55,3.74-6.37,3.73-10.39-.09-30.47-.05-60.94-.05-91.41,0-8.62,1.75-16.7,7.36-23.57.95-.53,1.95-.62,2.98-.29,11.97,6.73,24.92,5.43,37.8,4.54,3.86-.27,7.71-1.51,11.48.47,4.39,3.33,5.14,8.15,4.66,13.04-3.19,32.22-.83,64.52-1.45,96.77-.18,9.49-.65,18.73-6.55,26.73-1.79,2.24-4.43,2.97-6.95,3.92-13.74,3.87-27.28,2.71-40.57-2.05-9.69-3.47-13.54-9.19-12.43-17.75Z" style="fill: #e4e4e4; stroke-width: 0px;"/>
  <path d="M761.62,636.12c10.01-1.17,17.04,5.29,24.09,10.42,8,5.82,15.06,13,22.18,19.95,8.28,8.08,6.42,17.18-4.21,22.15-9.67,4.52-20.16,5.96-30.49,8.05-27.08,5.48-53.91,12.36-81.89,11.96-37.92-.54-71.9-13.94-104.56-31.56-8.96-4.83-8.97-8.19-2.73-19.18,24.08-4.54,48.12-9.28,72.25-13.54,10.88-1.92,21.54-5.4,32.78-5-.33,6.83-6.67,9.66-9.84,14.62-1.39,2.17-3.92,3.6-5.82,5.5-7.52,7.56-7.23,10.26,1.82,16.58,10.83,5.74,22.88,7,34.59,9.47,12.2,1.17,24.39.87,36.57-.22,9.81-1.34,19.57-3,29.11-5.75,5.65-1.63,11-4.08,12.52-10.37,1.52-6.3-3.47-9.62-7.16-13.54-6.27-6.65-13.78-12.08-19.21-19.55Z" style="fill: #bab9b9; stroke-width: 0px;"/>
  <path d="M503.57,1010.32c4.38-2.75,8.43-1.71,12.78.51,16.68,8.53,33.7,16.42,50.2,25.27,29.32,15.73,59.77,28.86,91.14,39.74,10.11,3.51,20.81,4.5,31.92,1.98,50.65-11.46,101.87-20.1,152.9-29.63,25.67-4.79,51.21-10.25,76.89-14.96,13.58-2.49,25.12-7.91,33.87-18.89,2.57-3.23,5.42-6.75,10.49-5.93-7.69,24.67-25.93,37.18-49.98,41.89-50.68,9.93-101.47,19.32-152.24,28.81-26.13,4.89-52.27,9.77-78.49,14.18-11.49,1.93-23.1.88-33.76-4.14-43.31-20.4-86.84-40.38-128.89-63.33-6.75-3.69-13.82-7.53-16.84-15.5Z" style="fill: #96613c; stroke-width: 0px;"/>
  <path d="M449.62,570.54c8.26-10,8.14-9.92,15.98,1.24,11.6,16.53,23.02,17.7,43.34,14.03,37.43-6.76,73.48-18.95,109.64-30.64,16.88-5.46,33.82-10.81,51.31-14.39,11.04-2.26,20.3,1.08,29.21,6.15,6.8,3.87,10.46,9.21,6.05,18.01-4.03,8.03.05,15.03,9.78,19.2,11.42,4.89,23.17,7.73,35.8,8.38,50.58,2.63,100.01-5.35,149.27-15.16,5.09-1.01,12.28-1.53,10.96-10.22,8.32-1.37,16.64-2.74,24.97-4.11,2.07-1.19,4.11-.07,6.17.08,3.56.25,8.35-.45,8.68,4.29.29,4.23-4.48,5.09-7.74,6.35-21.51,8.32-44.19,11.85-66.75,15.63-27.32,4.59-54.86,7.85-82.51,9.45-24.32,1.41-48.79,2.69-72.91-2.52-5.16-1.11-10.08-1.34-15.17-.4-21.1-8.26-41.24-18.55-61.36-28.88-3.2-1.64-6.02-1.4-9.47-.55-35.62,8.75-71.02,18.56-107.19,24.85-17.4,3.03-34.95,7.87-52.7,2.52-12-3.62-23.86-7.99-25.33-23.32Z" style="fill: #c7c6c6; stroke-width: 0px;"/>
  <path d="M1058.44,499.73c1.04-7.82,1.9-15.65,1.23-23.57-.92-17.54-2.31-35.07-2.41-52.65-.02-3.29-.03-6.63,2.59-9.2,3.29,1.47,4.59,4.25,5.99,7.47,4.93,11.32,10.55,22.34,15.52,33.63,2.55,5.79,6.51,7.88,12.71,8.04,19.71.49,38.99-3.25,58.31-5.91,19.9-2.74,39.82-5.56,59.55-9.81,17.61-3.79,29.46-14.52,40.26-27.42,10.27-12.27,19.07-25.61,27.74-39.04,1.67-2.58,3.4-5.09,6.99-4.98,2.94,17.66,3.01,35.3.28,53.03-2.1,13.66-10.11,21.58-22.9,24.82-28.91,7.32-58.51,10.69-88,14.63-32.78,4.38-65.59,8.59-98.4,12.78-10.95,1.4-14.87,10.09-19.46,18.17Z" style="fill: #bfbfbf; stroke-width: 0px;"/>
  <path d="M822,87.29c18.56-7.15,36.73-15.6,55.75-21.15,31.26-9.12,58.51-25.12,83.6-45.06,15.07-11.98,32.12-16.85,50.63-19.46,13.28-1.87,26.52-1.76,39.76-1.43,6.27.16,13.82.08,15.22,9.18-1.84,4.26-5.55,6.07-9.61,7.6-31.9,12-64.06,23.29-96.05,35.04-6.59,2.42-12.74,5.43-18.33,9.64-3.75,2.82-7.65,4.94-12.53,2.93-3.83-2.46-6.91-.97-9.61,1.94-2.87,3.1-5.79,6.18-8.55,9.37-9.53,10.96-21.23,15.69-35.93,15.96-15.34.28-30.66,2.56-45.97,4.08-2.1.21-4.18.68-6.31.46-2.53-.27-4.96-1.08-5.77-3.66-.94-3.02,1.82-4.06,3.71-5.45Z" style="fill: #d2d2d2; stroke-width: 0px;"/>
  <path d="M219.23,210.48c-5.98,3.25-5,8.71-.59,10.6,17.23,7.41,17.34,22.65,18.06,37.34.74,15.09.2,30.24.22,45.37,0,8.77-.18,17.55.05,26.32.3,11.15,6.35,14.49,16.05,9.18,2.09-1.14,4.93-3.32,6.46-2.69,8.15,3.39,11.33-1.47,14.13-7.52,2.48,4.07.8,11.05,9.72,10.57,3.55-.19,2.13,5.45-.5,7.84-3.28,2.98-7.7,4.18-11.86,3.65-16.81-2.12-33.78,2.05-50.53-1.57-3.55-.77-7.13-1.38-10.55-2.57-9.38-3.27-11.68-7.86-9.34-18.23,2.14-3.24,1.79-6.9,1.79-10.51-.01-27.76.6-55.55-.28-83.28-.41-12.91,2.83-24.76,5.77-36.88.71-.6,1.46-.66,2.26-.2,1.32,5.45,7.01,7.73,9.14,12.6Z" style="fill: #d3d3d3; stroke-width: 0px;"/>
  <path d="M822,87.29c-2.81,3.73-4.48,7.91,2.6,7.02,21.1-2.65,42.32-3.77,63.43-6.02,14.33-1.53,22.03-13.47,30.56-23.51,3.69-4.35,7.43-8.59,12.31-1.24-2.17,6.51-7.34,10.91-11.35,16.11-10.49,13.61-21.69,26.63-32.94,39.61-5.82,6.71-12.34,12.1-21.31,14.46-25.41,6.69-48.1-.28-69.75-13.09-5.6-3.32-7.17-9.39-9.68-14.8,2.76-7.79,9.99-9.8,16.56-12.33,6.37-2.46,13.03-4.17,19.57-6.21Z" style="fill: #ededed; stroke-width: 0px;"/>
  <path d="M854.5,234.93c-2.99-1.51-5.98-3.02-8.97-4.53,4.01-6.1,11.09-4.83,16.76-6.45,6.67-1.91,13.08-3,14.25-11.34,3.74,11.87,13.48,15.04,24.25,16.95,16.04,2.84,32.1,4.6,48.46,4.25,12.64-.27,22.33-4.24,27.01-16.82.43-1.15,1.26-2.03,2.36-2.61,6.99,4.96,11.11,11.65,12.2,20.17-9.2,13.6-21.03,24.21-36.33,30.31-6.67,2.66-10.23,6.35-9.21,13.68-5.87,1.48-10.2-2.34-15.07-4.33-19.73-9.8-39.7-19.09-59.32-29.1-5.41-3.47-12.06-4.96-16.39-10.17Z" style="fill: #ededed; stroke-width: 0px;"/>
  <path d="M1190.69,214.43c-.54,0-1.09-.06-1.62-.15.31-5.45-3.2-5.49-7.16-5.19-31.16,2.4-62.38,4.17-93.46,7.34-19.43,1.98-38.97,2.16-58.35,4.91-12.07,1.72-24.09-.66-34.93-6.74-9.2-5.17-11.37-11.79-7.88-21.97,5.66,15.33,14.57,21.42,31.92,21.79,27.45.59,54.63-2.86,81.89-5.21,18.27-1.58,36.59-2.5,54.88-3.88,15.88-1.2,31.73-2.63,47.6-4,.88-.08,2.14-1.05,2.52-.74,11.95,9.8,25.79-.45,38.92,4,13.07,4.43,27.77,4.12,41.78,5.75,22.68,2.63,45.37,5.08,68.05,7.71,12.83,1.49,25.59,3.64,38.45,4.69,16.64,1.36,32.79-2.47,48.88-6.14,2.82-.64,4.73-2.65,4.78-5.86,6.6,7.63,4.42,14.3-5.96,16.64-15.52,3.5-31.34,2.56-46.92,1.01-29.34-2.91-58.58-6.78-87.86-10.29-17.91-2.15-35.83-4.27-53.71-6.66-2.62-.35-4.72-.3-6.74,1.31-6.94-1.01-13.58-.4-20.51,1.41-7.55,1.97-15.78,2.13-23.1-1.69-4.67-2.44-8.03-.93-11.46,1.98Z" style="fill: #bebfbe; stroke-width: 0px;"/>
  <path d="M705.68,595.93c2.27-4.67,6.63-4.26,10.29-3.29,21.59,5.7,43.69,6.42,65.61,4.84,25.13-1.81,50.32-3.48,75.28-7.78,21.61-3.73,43.39-6.57,64.67-11.96,9.56-2.43,18.86-5.91,29.4-9.27-5.06-4.83-10.72-3.23-15.03-5.42,25.04-6.78,50.32-12.78,74.33-22.91,17.92-7.56,35.56-15.49,45.9-33.44-2.61,19.17-11.84,33.82-29.15,43.08-34.48,18.44-72.15,26.95-109.86,35.22-26.08,5.72-52.62,8.66-79.02,12.41-10.7,1.52-21.6,1.61-32.42,2.35-3.5,1.86-7.57-.44-11.06,1.5-14.51.05-29.03.11-43.54.16-2.95,2.6-6.54,2.59-10.15,2.48-4.38.09-8.59-1.08-12.87-1.74-6.75-.19-13.07-2.98-19.81-3.3-.89-.16-1.69-.53-2.37-1.13-.1-.59-.17-1.19-.21-1.79Z" style="fill: #bababa; stroke-width: 0px;"/>
  <path d="M785.88,105.83c.3,0,.83-.1.88,0,7.57,17.49,25.17,20.54,40.08,25.87,16.45,5.88,47.65,3.32,63.78-19.55,12.07-17.11,25.5-33.53,40.28-48.62,2.4.13,4.95.67,7.04-.88,23.79-17.72,53.15-22.19,79.64-33.47,16.32-6.94,33.9-10.77,49.38-19.82,1.39,7.63-3.21,10.84-9.42,13.09-34.15,12.39-68.26,24.87-102.41,37.24-2.82,1.02-5.78,1.6-7.82,4.05,1.02.99,1.5,3.18,3.66,1.64,2.04.45,3.11,2.03,4.17,3.61-.27.23-.57.31-.92.24-3.24,9.65-11.36,8.98-19.17,9.19-3.62.1-9.46-2.44-7.61,5.46-4.97,2.04-8.06,6.11-10.84,10.37-1.89,2.91-3.84,5.37-7.6,5.75-1.14.11-3.13.73-3.18,1.27-.9,9.23-11.35,9.99-14.79,16.86-15.74,25.94-39.75,24.63-64.62,19.1-9.38-2.09-18.74-5.01-27.16-9.92-8.14-4.75-14.96-10.58-13.37-21.5Z" style="fill: #a8a8a8; stroke-width: 0px;"/>
  <path d="M1034.5,368.83c-6.81,1.32-13.7,2.35-19.95,5.63-3.53,1.59-7.35,2.23-11.02,3.38l.04-.02c-46.25,17.05-94.06,26.71-143.17,30.22-9.2.66-18.47,4.09-27.51-.78,8.03-3.97,16.93-2.32,25.37-3.8,14.18-2.48,28.74-3.02,42.78-6.05,11.34-2.44,21.98-7.92,33.22-11.06,33.44-9.33,65.9-21.27,97.75-35.05,7.01-3.03,15.29-3.18,20.66-9.7,2.81,4.55,1.53,9.59,1.74,14.45-6.18,1.31-6.48,5.57-5.3,10.57-4.48,3.34-10.04-.51-14.61,2.21Z" style="fill: #d5d5d5; stroke-width: 0px;"/>
  <path d="M945.45,278.89c-4.8-6.79-4.4-11.03,4.56-14.29,14.35-5.22,26.33-14.25,35.67-26.59,1.18-1.56,3.4-2.33,5.13-3.46,3.04,21.24,4,42.43-1.71,63.44-.58.44-1.16.88-1.74,1.32-1.91,2-4.03.91-5.73-.02-10.49-5.72-22.13-9.03-32.25-15.52-1.65-1.35-3.59-2.47-3.95-4.87Z" style="fill: #cbcbcb; stroke-width: 0px;"/>
  <path d="M1178.02,339.65c2.61,8.71,6.9,15.1,16.97,17.05,11.94,2.31,23.72,2.84,35.69,1.17,3.75-1.55,7.64-.65,11.48-.76,8.56-.24,17.09-.72,20.47-10.87.29-.89,1.39-.94,2.3-.69,1.46,2.3,2.91,4.61,4.37,6.91-.28,2.38-.55,4.76-.83,7.13.16,1.1-.36,1.81-1.32,2.26-13.67,17.73-33.24,16.22-52.16,15.2-12.34-.67-24.16-4.92-35.78-9.29-8.02-3.01-12.38-8.24-11.91-17.02,2.58-4.65,6.51-8,10.71-11.09Z" style="fill: #3d3d3d; stroke-width: 0px;"/>
  <path d="M1236.01,355.84c5.19-9.96,5.91-20.61,5.74-31.65-.37-23.6-.14-47.21-.08-70.82.01-6.02.03-11.95,1.38-17.99,1.21-5.43,1.72-11.59-3.7-15.89.92-3.1,2.03-5.97,6.22-5.08,6.88,4.76,8.82,11.7,8.81,19.61-.06,31.63-.07,63.26-.03,94.9,0,3.52-.94,7.32,2.16,10.22.28,13.53-8.32,20.54-20.48,16.69Z" style="fill: #bebfbe; stroke-width: 0px;"/>
  <path d="M978.62,214.38c-1.54,12.13-9.2,19.62-22.62,21.69-15.69,2.42-31.2-.06-46.64-2.42-7.09-1.08-14.05-3.05-21.03-4.8-8.39-2.1-12.95-7.13-11.78-16.24,3.22-5.97,8.04-10.1,14.37-12.48.03,11.44,2.67,15.22,13.05,17.64,4.66,1.08,9.48,1.46,14.23,2.16,4.87,1.41,9.75,1.38,14.63.02,1.17-.07,2.34-.14,3.51-.21,10.48,2.31,20.66,1.8,30.88-3.52-7.16-2.41-4.06-8.06-4.25-12.51-.12-2.66,1.82-3.62,4.35-2.05,5.47,2.72,9.52,6.71,11.3,12.71Z" style="fill: #383838; stroke-width: 0px;"/>
  <path d="M200.54,328.76c1.93,13.5,4.01,15.9,17.51,18.05,10.42,1.66,20.82,2.78,31.54,1.13,7.01-1.08,14.37.23,21.58.29,2.38.02,4.81-.35,7.14-.86,3.16-.69,6.5-2.47,5.07-6-1.63-4.04-4.46-.48-6.72.3-1.14.39-2.24.88-3.81,1.51.26-4.91.51-9.5.76-14.1,6.53,2.16,13.64,5.48,13.46,12.7-.19,7.83-5.08,14.89-12.8,18.33-21.36,9.53-43.13,9.07-65.01,1.75,4.31-4.29,9.1-.74,13.66-.79,4.53-.05,8.85,1.78,13.48,1.52-15.17-2.24-28.27-10.08-42.16-13.78.37,2.49,6.16,4.32,4.44,9.32-6.43-1.16-10.49-5.02-12.61-11.08.29-9.69,5.94-15.13,14.48-18.29Z" style="fill: #444; stroke-width: 0px;"/>
  <path d="M707.48,597.77c7.01-3.75,12.93,2.88,19.63,2.05,5.18,6.54,2.87,13.76,1.65,20.75-.83,4.74-2.47,9.34-2.08,14.24.28,3.58,1.34,6.68,5.72,6.64,4.12-.03,4.72-3.23,4.92-6.31.5-7.52.05-15.07.26-22.6.11-3.84-.52-7.96,2.94-10.93,3.52-.07,7.05-.15,10.57-.22.02,8.47.04,16.93.07,25.4,0,2.61-.02,5.21-.03,7.82,4.11,6.39.84,10.5-4.47,13.71-3.06,1.85-6.61,2.47-10.17,2.66-4.51-.26-9.13,1.96-13.58-.46-.81-.38-1.57-.85-2.29-1.37-2.93-2.65-6.41-4.36-9.89-6.18-3.28-1.71-7.51-3.4-5.01-8.67l-.47-.2.09-.5c2.84-8.03.5-16.33,1.28-24.47.36-3.78-.92-7.69.87-11.37Z" style="fill: #777776; stroke-width: 0px;"/>
  <path d="M464.22,485.37c3.13-4.64,3.95-10.95,9.96-13.51,2.06-.88,2.77-2.28,3.45,1.77,1.27,7.59,6.95,11.7,14.73,13.15,11.68,2.17,23.34,3.4,35.18,1.81,7.54-.38,15.11-1.43,22.57.71,3.05,4.05-.53,5.31-3.07,6.12-25.32,8.07-50.18,9.1-73.94-5.91-.27,3.31,3.54,5.36,1.74,8.54-5.18-.15-7.13-4.66-10.24-7.6-.12-1.69-.24-3.38-.36-5.07Z" style="fill: #4f4f4f; stroke-width: 0px;"/>
  <path d="M210.13,198.14c-.77-.02-1.54-.04-2.3-.06-8.95,1.9-18.07,1.54-27.13,2.1-3.6,1.51-7.59-.4-11.17,1.26-5.38.12-10.77.24-16.15.36-2.9,1.8-6.37-.16-9.31,1.43-4.75.17-9.51.35-14.26.52-2.95,1.55-6.39-.27-9.34,1.33-5.37.17-10.73.33-16.1.5-4.18,1.73-8.78-.51-12.94,1.38-15.03,1.09-30.04,2.36-45.09,3.21-12.68.72-25.34-.13-37.69-3.17-5.31-1.31-10.31-3.79-8.15-11.06,2.33.58,4.66-1.37,7.03.16,12.64,8.12,27.64,9.28,41.51,10.1,19.91,1.18,40.16-1.43,60.11-3.71,9.56-1.09,19.25-1.54,28.69-1.92,25.82-1.05,51.46-5.31,77.37-4.21-.63,3.61-2.69,3.21-5.09,1.8Z" style="fill: #a0a0a0; stroke-width: 0px;"/>
  <path d="M1245.56,214.42c-2.07,1.69-4.15,3.39-6.22,5.08-10.52,2.56-21.21,3.24-31.92,2.07-6.15-.67-12.44-1.77-16.73-7.14,1.5-8.31,3.93-9.39,10.81-5.25,8.79,5.28,18.13,5.79,27.38,1.55,6.28-2.88,11.78-3.19,16.87,2.01-.25.54-.31,1.1-.19,1.68Z" style="fill: #313130; stroke-width: 0px;"/>
  <path d="M705.71,634.31c.28,4.2,3.01,6.05,6.68,7.2,4,1.25,7.78,2.94,9.52,7.24-3.17,2.94-6.72,1.8-10.16.81-6.52-1.87-13.11.03-19.66-.58-3.54-.33-4.53,2.21-4.32,5.34.35,5.39-1.58,8.47-7.57,8.54-4.98.06-6.62,3.3-6,7.98.31,2.35.83,4.8-1.17,6.77-9.14-5.83-10.07-10.85-2.63-18.24,6.48-6.44,13.05-12.76,18.67-19.99,5.38-2.28,10.8-4.4,16.66-5.07Z" style="fill: #494848; stroke-width: 0px;"/>
  <path d="M1236.01,355.84c11.97.74,17.45-6.47,20.48-16.69,3.24,1.57,6.73,2.8,8.44,6.39-2.65,10.92-12.66,16.42-25.51,14.02-2.92-.55-5.83-1.13-8.74-1.69,1.35-1.81,3.45-1.61,5.33-2.02Z" style="fill: #8e8e8e; stroke-width: 0px;"/>
  <path d="M967.31,201.67c-7.16,2.04-1.47,7.6-3.53,10.73,1.96,1.99,3.1.59,4.32-.04,1.26-.65,2.57-2.13,3.9-.53,1.45,1.74.3,3.32-.92,4.74-6.04,7.04-26.95,8.95-34.75,3.19,4.38-3.37,9.84-1.57,14.74-3.02,7.11-2.11,12.34-4.52,11.02-13.26-.18-1.22,1.06-2.65,1.64-3.98,1.19.73,2.39,1.45,3.58,2.18Z" style="fill: #878787; stroke-width: 0px;"/>
  <path d="M451.44,214.68c-3.64-1.09-5.36-2.87-1.24-5.44,2.15-1.34,4.93-1.63,6.64-3.82,2.26-4.51,6.61-6.78,10.37-9.7.84-.22,1.58-.03,2.24.52.45,4.19-1.75,7.51-3.59,10.95-4.56,2.98-8.19,7.75-14.42,7.49Z" style="fill: #aaabaa; stroke-width: 0px;"/>
  <path d="M707.48,597.77c.05,9.6.19,19.2.09,28.8-.03,2.46,1.22,5.58-2.24,7.04.19-11.96.37-23.93.56-35.89.53.04,1.06.06,1.59.06Z" style="fill: #c7c6c6; stroke-width: 0px;"/>
  <path d="M91.44,206.95c4.05-2.87,8.58-1.37,12.94-1.38-4.07,2.72-8.58,1.32-12.94,1.38Z" style="fill: #d3d3d3; stroke-width: 0px;"/>
  <path d="M469.45,196.25c-.56.03-1.13.06-1.7.08-3.13-3.65-3.12-7.33-.06-11.01,0,0-.07.05-.07.05,2.62,3.29,2.73,7.01,1.83,10.89Z" style="fill: #d3d3d3; stroke-width: 0px;"/>
  <path d="M794.63,601.24c3.36-2.92,7.33-1.33,11.06-1.5-3.37,2.83-7.33,1.34-11.06,1.5Z" style="fill: #d8d8d7; stroke-width: 0px;"/>
  <path d="M169.53,201.44c3.47-2.66,7.38-1.4,11.17-1.27-3.48,2.54-7.38,1.37-11.17,1.27Z" style="fill: #d3d3d3; stroke-width: 0px;"/>
  <path d="M144.08,203.22c2.79-2.54,6.12-1.47,9.31-1.43-2.77,2.66-6.11,1.56-9.31,1.43Z" style="fill: #d3d3d3; stroke-width: 0px;"/>
  <path d="M120.48,205.07c2.83-2.39,6.15-1.43,9.34-1.33-2.83,2.44-6.14,1.5-9.34,1.33Z" style="fill: #d3d3d3; stroke-width: 0px;"/>
  <path d="M950.97,65.4c.08,1.55-.16,3.41-1.97,3.2-3.26-.38-.97-3.25-1.68-4.84,1.22.55,2.44,1.1,3.66,1.64Z" style="fill: #323232; stroke-width: 0px;"/>
  <path d="M832.86,721.24c-6.52,2.99-13.14,5.8-19.54,9.05-3.41,1.73-7.49,3.8-6.91,8.45.53,4.29,4.16,6.38,8.06,7.76,9.13,3.23,18.51,5.35,28.18,5.65,9.06.28,14.67,4.25,16.74,13.29,2.47,10.77,7.8,21.58,7.33,32.18-.89,19.89,2.97,39.75-.25,59.5-.69,4.24-.65,8.39-.89,12.59-.41,7.32-3.89,9.92-10.65,6.9-5.46-2.44-10.36-6.11-15.5-9.26-10.58-6.48-14.9-5.99-23.66,2.75-5.57,5.55-10.99,11.26-16.78,16.57-3.45,3.17-7.8,5-12.52,2.93-4.72-2.08-4.6-6.51-4.59-10.87.06-22.92-.01-45.84.04-68.76,0-2.54-.72-4.74-1.84-6.9-5.21-9.27-4.31-20.31-8.72-29.8-2.9-9.94-10.59-17.52-13.56-27.44-1.63-12.84-1.3-13.3,11.22-16.61,17.12-4.52,34.43-8.24,51.6-12.53,4.81-1.2,10.34-2.77,12.23,4.57Z" style="fill: #a87957; stroke-width: 0px;"/>
  <path d="M652.98,832.12c10.88,0,21.75-.02,32.63-.03,4.21.03,8.31-.12,12.52-1.21,5.18-1.34,8.18.62,6.69,6.86-.82,3.46-.93,7.15-.94,10.74-.05,55.32.11,110.63-.18,165.94-.05,9.23-1.21,18.61-3.21,27.62-2.32,10.46-6.73,12.48-18.88,11.79-8.95-.51-13.27-5.98-13.78-13.9-.6-9.3-1.87-18.52-2.37-27.85-2.82-52.81-1.27-105.65-1.36-158.47-.02-9.78-6.73-14.72-11.11-21.5Z" style="fill: #c99b6d; stroke-width: 0px;"/>
  <path d="M772.91,772.18c5.06,9.67,6.45,20.2,7.19,30.88-7.82,7.73-18.6,7.62-28.22,10.2-17.81,4.79-36.39,6.69-53.33,14.76-4.52,2.15-10.24-1.5-14.69,2.3-9.72-.02-19.49.62-29.05-1.85-11.78-5.9-17.71-17.97-27.4-26.1-2.41-2.02-1.83-5.56-1.22-8.63,3.02-15.1,19.21-31.3,34.31-34.27,5.26-1.03,10.28-.18,14.98,2.27,7.87,4.1,15.95,4.78,24.65,2.92,13.61-2.91,27.24-5.58,40.54-9.87,14.78-4.78,17.84-3.48,26.41,9.3,1.85,2.77,3.91,5.39,5.84,8.1Z" style="fill: #c99b6d; stroke-width: 0px;"/>
  <path d="M914.66,699.6c17.38-.3,26.69,12.1,36.04,23.74,3.23,4.02,6.75,8.53,7.73,14.09-16.59,8.63-34.71,8.19-52.68,9.62-13.55,1.08-27.05,1.36-40.6,1.59-5.35.09-10.2-.64-14.16-4.6-4.58-4.58-11.41-3.51-16.62-6.51-2.21-1.28-5.73-1.86-4.67-5.58.78-2.72,2.98-5.17,5.87-4.92,16.48,1.4,30.53-7.8,46.13-10.3,10-1.6,19.92-4.07,29.33-8.09,2.7-2.92,6.28-2.29,9.67-2.41,4.55.25,8.44,2.23,12.05,4.68.43.06.86.3,1.19.68.12-1.13-1.05-.28-1.35-.87-3.36-2.64-7.52-3.52-11.14-5.45-2.55-1.37-6.79-1.12-6.79-5.66Z" style="fill: #d1b093; stroke-width: 0px;"/>
  <path d="M832.86,721.24c-3-3.01-6.36-3.92-10.65-2.82-18.86,4.83-37.68,9.86-56.71,13.92-10.83,2.31-4.32,9.48-5.34,14.57-.59.2-1.39.5-1.74.18-10.03-9.01-21.42-5.37-32.64-3.63-16.44,2.54-32.72,5.98-49.16,8.49-20.43,3.12-37.4,11.67-48.12,30.25-1.05,1.83-2.44,3.47-4.32,4.58-.96.46-1.81.31-2.57-.43,6.57-16.51,17.34-29.31,33.19-37.64,27.8-8.34,56.49-12.35,84.98-17.33,1.9-.33,3.54-.71,3.93-2.92,21.65-5.26,43.4-9.92,65.57-12.43,11.7.08,23.12-2.3,34.52-4.43,18.28-3.42,36.54-7,54.92-9.8,6.86-1.04,14.4-1.85,19.86,4.6-4.63,3.22-10.21-.39-14.94,2.1-13.92,2.46-27.84,4.93-41.76,7.39-2.72,2.11-6.36-.42-9.06,1.79h-.02c-6.12.92-11.88,3.61-18.17,3.65-.6-.02-1.19-.05-1.79-.09Z" style="fill: #99623c; stroke-width: 0px;"/>
  <path d="M834.65,721.32c5.78-2.61,11.82-3.85,18.17-3.64-5.92,1.89-11.31,6.42-18.17,3.64Z" style="fill: #a87957; stroke-width: 0px;"/>
  <path d="M903.66,708.49c4.59-3.47,9.97-.81,14.86-1.92,2-.82,3.5-.8,3.37,1.99-3.62.02-7.25.04-10.87.06-2.45-.04-4.91-.09-7.36-.13Z" style="fill: #a87957; stroke-width: 0px;"/>
  <path d="M852.84,717.68c2.56-2.94,5.99-1.43,9.06-1.79-2.55,2.96-5.99,1.43-9.06,1.79Z" style="fill: #a87957; stroke-width: 0px;"/>
  <path d="M673.01,677.61c-.54-2.65-1.14-5.28-1.59-7.94-1.05-6.19,2.76-10.51,7.79-9.55,7.53,1.44,6.81-2.41,6.23-6.73-.8-5.99.56-7.8,7.33-7.21,9.71.85,19.49.93,29.14,2.57,0,0,.03,0,.03,0,4.25,5.3,8.63,1.67,12.98.2,14.22-1.92,15.59-3.13,16.21-14.33,3.72-1.03,6.92,1.53,10.5,1.5,10.42,4.14,15.92,14.04,24.03,20.91,10.58,8.96,6.27,18.87-6.28,23.75-10.02,3.9-20.81,6-31.77,6.22-5.04,1.16-9.77.4-14.83-.88-7.74-1.96-15.74.13-23.61.87-12.65-.77-24.96-2.88-36.14-9.37Z" style="fill: #131313; stroke-width: 0px;"/>
  <path d="M607.76,952.2c2.62,2.07,1.29,4.29.14,6.4-3.01,5.53-5.82,11.2-9.22,16.49-7.63,11.91-14.39,15.1-27.26,10.4-20.65-7.54-40.04-17.81-57.24-31.71-2.46-1.99-5.94-4.68-3.02-8.97,15.65,7.54,31.35,14.99,46.94,22.65,20.08,9.86,38.68,4.21,49.66-15.27Z" style="fill: #784e36; stroke-width: 0px;"/>
  <path d="M527.54,901.21c-12.09-10.17-15.91-29.4-7.32-43.68,9.43-3.19,12.89-1.85,17.82,6.34,4.21,7.01,5.34,14.55,4.66,22.51-.87,10.26-4.84,14.15-15.16,14.83Z" style="fill: #a3a3a3; stroke-width: 0px;"/>
  <path d="M527.54,901.21c6.81-2.22,12.34-5.58,12.92-13.72.75-10.57-.93-20.2-8.8-28.2-3.67-3.73-7.93.57-11.43-1.75,9.06-9.81,16.29-9.52,22.75,1.71,6.18,10.75,8.33,22.65,6.06,34.9-2.24,12.14-10.12,14.55-21.49,7.07Z" style="fill: #2d2d2d; stroke-width: 0px;"/>
  <path d="M921.89,708.56c-.64-1.48-1.99-1.77-3.37-1.99-10.42-5.06-21.2-2.82-31.7-.93-23.54,4.25-46.94,9.33-70.79,11.69-2.35.23-4.84.86-6.74-1.32,28.52-5.4,57.03-10.85,85.56-16.17,6.54-1.22,13.19-.75,19.8-.26,6.99,3.15,13.93,6.37,19.95,11.24.47.34.64.69.5,1.05-.14.37-.29.55-.44.55-4.45-.66-8.05-4.12-12.77-3.88Z" style="fill: #4b2516; stroke-width: 0px;"/>
  <path d="M743.73,728.45c2.35,4.34,2.24,4.99-2.23,5.4-24.81,2.24-48.9,8.42-73.33,12.8-4.4.79-8.42,4.72-13.35,2.06,17.58-10.46,37.95-10.24,57.08-14.75,10.46-2.47,21.22-3.71,31.84-5.5Z" style="fill: #572b18; stroke-width: 0px;"/>
  <path d="M616.64,808.54c-1.09-.04-2.18-.07-3.28-.11,2.87-7.32,3.45-15.5,8.26-22.09,0,0,.43.36.43.36,2.78,8.42-1.54,15.07-5.42,21.84Z" style="fill: #99623c; stroke-width: 0px;"/>
  <path d="M244.19,201.71c1.36-8.66,7.08-10.07,14.58-9.06,26.5,3.55,52.97,7.47,79.54,10.3,29.01,3.09,57.81,7.95,86.94,9.97,5.15.36,11.56-1.33,14.96,4.98-27.52.72-54.4-5.1-81.55-8.04-28.08-3.04-56.12-6.48-84.15-9.96-4.98-.62-8.33.94-10.76,5.09-2.54-3.55-5.36-5.88-9.57-2.19-3.72,3.25-7.03,2.66-10-1.07Z" style="fill: #aaabaa; stroke-width: 0px;"/>
  <path d="M412.86,401.67c1.59-2.47,3.08-4.23,6.51-2.13,5.83,3.56,12.53,4.49,19.14,3.84,14.56-1.42,29.07,3.42,43.85-1.13,7.17-2.21,11.51-7.41,17.54-10.53,1.63-.85,3.2-3.84,5.24-1.19,1.36,1.78-.43,3.22-1.99,4.29-1.88,1.29-2.46,3.17-2.82,5.39-1.22,7.44-4.25,11.36-12.04,5.91-2.61-1.83-5.98-1.41-8.82-.72-16.48,3.96-33.21,5.3-50.09,5.44-6.26-1.71-13.05-2.45-16.52-9.17Z" style="fill: #a1a0a0; stroke-width: 0px;"/>
  <path d="M447.75,246.76c.1-11.84,5.97-18.76,19.5-22.34-1.27,5.03-5.4,7.29-8.26,10.4-4.6,5.01-4.95,10.75.7,13.81,18.93,10.26,37.45,21.7,59.11,25.79-.5,2.97.26,6.6-3.97,7.63-18.91-9.39-37.82-18.77-56.71-28.19-3.77-1.88-7.64-3.67-10.36-7.1Z" style="fill: #242424; stroke-width: 0px;"/>
  <path d="M244.19,201.71c3.36.61,6.88,3.77,9.45-1.88,1.42-3.11,5.03-2.6,8.05-1.62,3.89,1.27,2.23,4.25,2.07,6.76-9.17,7.62-20.28,6.54-31.03,6.71-4.49.07-9-.78-13.5-1.21-4.92-2.72-10.99-4.59-9.1-12.34,1.7-.6,3.4-1.2,5.09-1.8.58.08,1.14,0,1.69-.22,7.07-.17,12.92,4.14,19.63,5.37,2.02.37,3.9,1.86,6,.33.56.14,1.11.1,1.65-.12Z" style="fill: #323232; stroke-width: 0px;"/>
  <path d="M198.68,358.13c-3.49-5.29-9.36-9.47-8.34-17.02,3.51-.99,3.47,1.97,4.37,3.47,1.27,2.11,2.63,5.09,4.79,5.06,14.02-.19,24.91,11.18,39.06,10.28,2.09-.13,4.84.47,4.51,3.12-.36,2.92-3.44,1.9-5.24,1.75-9.54-.82-19.05-1.92-28.57-2.93-3.53-1.24-7.06-2.49-10.59-3.73Z" style="fill: #111; stroke-width: 0px;"/>
  <path d="M832.89,407.26c39.6-1.64,78.8-6.58,117.43-15.44,17.88-4.1,35.51-9.3,53.26-14-1.7,2.96-4.88,3.19-7.67,4.18-28.31,10.04-56.8,19.4-86.7,24.06,6.18,1.36,12.46.49,18.41,2.95,7.27,3.01,7.46,8.65,6.61,14.98-3.1,2.89-7.14,2.92-10.96,3.67-39.14,7.7-61.36,52.76-42.95,87.09,9.19,17.14,27.83,25.3,46.69,20.75,4.2-1.01,8.31-4.16,12.98-1.44-.53,1.41-1.32,2.77-1.55,4.23-2.94,19.12-6.1,22.14-25.91,24.94-16.87,2.39-33.73,4.88-50.59,7.33-5.8,3.03-12.41,2.77-18.49,3.2-22.86,1.62-45.8,3.39-68.73,1.99-7.99-.49-16.12-1.45-23.94-3.83-7.82-2.38-11.97-7.36-13.06-15.52-3.26-24.41-1.65-48.89-1.28-73.34.18-11.46.63-22.94,1.21-34.4.25-4.93-2.01-8.7-4.42-12.54.13-2.43,1.62-4.04,3.36-5.49,6.18-.24,11.64-2.88,17.25-5.05,8.48-3.28,17.23-5.59,26.14-7.38,4.57-.92,9.26-.69,12.85-5.35,2.86-3.72,8.75.42,12.75-2.28,9.11-1.1,18.21-2.21,27.32-3.31Z" style="fill: #2f2f2f; stroke-width: 0px;"/>
  <path d="M990.88,327.28c1.13,4.91,5.14,3.28,8.14,3.35,9.32.22,18.68-.52,27.88,1.85,2.62.67,6.14.63,6.61,3.62.51,3.31-2.75,5.4-5.35,6.55-7.16,3.15-14.48,5.98-21.87,8.55-36.73,12.77-74.43,21.9-113,26.36-25.32,2.93-50.81,4.81-76.33,6.23-18.09,1-36.13,1.05-54.2,1.42-1.81.04-3.63.09-5.44-.04-3.38-.23-7.72-.8-8.32-4.11-.73-4.05,4.27-3.27,6.72-4.28,5.78-2.37,11.58-4.04,18.28-2.74,5.48,1.07,11.52.33,15.21-5.36,3.12-4.3,7.86-3.9,12.34-4.23,57.18-4.2,113.43-13.24,167.87-31.97,6.92-2.38,13.33-7.6,21.47-5.19Z" style="fill: #fdfdfd; stroke-width: 0px;"/>
  <path d="M990.88,327.28c-55.71,21.52-113.45,33.79-172.95,38.23-9.6.72-19.15,2.09-28.73,3.16-21.56.77-43.13,1.6-64.69,2.28-8.32.26-16.73,1.2-24.85-1.69-6.93-6.3-16.37-7.24-24.4-11.28-27.91-14.01-56.1-27.48-83.98-41.55-2.8-1.41-7.58-1.95-5.6-7.3,2.45-.66,4.9-1.31,7.34-1.97,4.5.98,8.46,3.19,12.45,5.36,26.84,14.58,55.04,26.49,81.65,41.55,7.34,4.15,15.26,5.37,23.63,5.01,21.4-.92,42.79-2.18,64.22-1.75,3.94.08,7.87-.03,11.66-1.35,34.2-3.23,68.56-4.46,102.6-9.52,22.74-3.38,45.07-8.39,66.98-15.24,11.85-4.6,24.33-7.5,35.87-12.95,1.64-1.19,2.8-2.47.49-4.09-3.2-2.23-6.85-3.69-10.18-5.7-11.53-4.52-21.84-10.95-30.8-19.52-2.06-1.97-5.05-3.42-4.08-7.12.04-.15.41-.29.63-.3.29-.01.58.11.87.18,12.79,5.86,25.59,11.72,38.38,17.57,4.82,3.03,9.95,5.67,14.39,9.18,7.37,5.84,6.85,9.64-1.27,13.91-3.18,1.67-6.41,3.26-9.61,4.88Z" style="fill: #515151; stroke-width: 0px;"/>
  <path d="M474.83,498.05q-5.52-7.24-5.61-15.48c8.95,11.41,22.17,11.24,33.44,15.59,6.87,2.66,14.35,2.94,21.21-.07,8.76-3.84,19.28-1.17,27.21-7.7,2.47-3.78,6.04-4.71,9.08-1.6,3.4,3.48.48,6.91-2.23,9.28-7.14,6.25-16.27,7.92-25.18,9.23-7.67,1.12-15.58,1.3-23.34-.31-11.75-2.13-23.61-3.82-34.58-8.94Z" style="fill: #222; stroke-width: 0px;"/>
  <path d="M585.67,309.13c.63,4.14,4.46,4.6,7.25,5.98,29.83,14.72,59.72,29.31,89.59,43.94,5.92,2.9,12.79,3.43,18.29,7.37,3.52,2.53-.32,2.07-1.15,2.84-17.09-2.53-31.06-12.54-46.22-19.6-24.51-11.41-48.67-23.57-72.97-35.41-.15-3.62,3.07-3.83,5.21-5.13Z" style="fill: #292929; stroke-width: 0px;"/>
  <path d="M509.41,506.98c11.74-.27,23.6.41,34.92-3.68,3.67-1.33,7.42-2.74,10.66-4.85,2.87-1.87,7.22-4.44,5-8.45-2.13-3.84-5.88-.18-8.9.37-7.95.72-15.73-.73-23.55-1.8,6-1.63,11.99-3.36,18.02-4.87,4.25-1.07,6.2-3.39,5.07-7.83-.06-4.84.72-7.69,6.54-4.28,10.87,6.38,11.57,22.53.11,29.34-14.8,8.79-31.11,10.37-47.87,6.03Z" style="fill: #959595; stroke-width: 0px;"/>
  <path d="M805.57,410.57c-17.44,10-37.75,11.58-56.06,19.06-4.07,1.66-8.12,7.56-12.94,1.01,4.46-7.71,13.23-8.64,19.99-12.73,16.22-3.22,32.25-7.7,49.01-7.34Z" style="fill: #6d6d6d; stroke-width: 0px;"/>
  <path d="M721.58,400.9c10.72-5.15,20.45-2.18,30.98-2.95-6.3,7.1-20.83,8.46-30.98,2.95Z" style="fill: #fdfdfd; stroke-width: 0px;"/>
  <path d="M523.99,352.55c-.51-5.8-1.64-11.94,7.97-9.25,3.82,1.07,7.23-1.33,11.48-4.06-.89,2.96-1.3,4.36-1.72,5.77-4.98,4.7-10.91,7.19-17.74,7.55Z" style="fill: #3e3e3e; stroke-width: 0px;"/>
  <path d="M949,281.73c5.32,8.65,13.54,13.97,21.98,18.96,4.06,2.4,8.37,4.37,12.57,6.53-1.6,1.68-3.71,2.25-5.83,1.88-19.54-3.43-37.92,2.31-55.99,7.98-40.58,12.72-82.23,19.72-124.21,25.28-16.16,2.14-32.34,4.16-48.5,6.3-3.74.49-7.9.18-11.5,3.56,2.68,3.36,6.41,2.94,9.75,3.01,9.38.18,18.76.17,28.14.27,3.55.04,7.37-.62,10.21,2.48-1.54,1.92-3.71,1.71-5.81,1.76-23.37.6-46.75,1.05-70.11,1.91-8.73.32-16.77-1.27-24.29-5.64-27.65-16.04-57.39-28.02-85.3-43.56-2.59-1.44-5.75-2.16-7.09-5.29,4.97-2.64,9.72-5.94,14.97-7.78,7.9-2.77,11.86-7.44,10.66-15.94,1.19,8.42,7.57,10.74,14.5,13.12,17.41,5.97,35.22,10.6,53.49,11.86,10.98.76,21.92-2.63,32.41-6.67,20.33-7.84,39.47-17.61,55.96-32.14,5.08-4.47,7.43-10.22,8.65-16.49,4.3-21.97,10.66-25.83,32.96-21.57,10.36,1.98,20.47,4.74,30.63,7.4,3.91,1.03,7.41,2.02,7.26-4.01,5.91,2.07,11.29,5.13,16.48,8.58,13.61,8.83,26.85,18.2,40.14,27.5,10.04,7.03,13.04,6.91,19.83,1.51,4.83,2.12,9.67,4.24,14.5,6.36,1.18.95,2.36,1.89,3.55,2.84Z" style="fill: #696969; stroke-width: 0px;"/>
  <path d="M616.64,808.54c-.02-7.73,4.8-14.27,5.42-21.84,8.31-10.06,14.37-21.91,26.92-28.39,12.05-6.21,24.84-8.29,37.82-10.42,16.52-2.72,33.17-4.88,49.44-8.67,10.24-2.39,17.36.75,23.93,7.68,3.93,8.59,10.71,15.73,12.74,25.28-3.54-1.94-6.55-4.7-8.41-8.08-5.08-9.23-11.94-11.64-21.75-7.72-15.18,6.07-31.36,8.32-47.25,11.69-6.25,1.33-11.97-.13-17.61-2.55-14.35-6.16-30.62-2.13-40.03,10.29-2.89,3.82-5.17,8.16-7.36,12.45-3.64,7.16-3.88,12.55,4.23,18.31,7.89,5.61,13.48,14.46,20.08,21.89-8.86.66-17.14-2.52-25.68-3.94-9.07-1.51-13.75-6.42-12.48-15.99Z" style="fill: #c29061; stroke-width: 0px;"/>
  <path d="M1034.5,368.83c4.47-3.39,9.65-2.08,14.61-2.21,6.38,4.05,8.61,10.01,8.83,17.37.3,10.11,1.25,20.21,1.92,30.31-.06,20.62-.12,41.23-.18,61.85-3.2-14.39-3.61-29.12-4.95-43.7-1.59-17.35-2.81-34.79-2.03-52.27.33-7.4-3.72-11.01-11-11.19-2.4-.06-4.79-.11-7.19-.16Z" style="fill: #545454; stroke-width: 0px;"/>
  <path d="M1267.16,361.84c.44-.75.88-1.51,1.32-2.26,1.71.29,3.52.59,3.71,2.77.1,1.18-.49,2.24-1.82,2.48-2.33.42-2.85-1.22-3.21-2.98Z" style="fill: #fdfdfd; stroke-width: 0px;"/>
  <path d="M939.98,534.06c-10.07,2.9-19.9,6.88-30.82,4.51-25.69-5.57-41.19-29.62-37.54-57.57,4.16-31.89,32.7-57.28,62.6-57.01,37.53,3.06,50.52,45.4,35.74,77.23-6.58,14.17-16.7,24.89-29.98,32.84Z" style="fill: #dedede; stroke-width: 0px;"/>
  <path d="M733.21,436.13c5.5,1.05,7.6,3.37,7.34,9.89-1.22,30.17-1.7,60.37-2.01,90.56-.07,7.16,1.53,14.32,1.93,21.56.45,8.21,7.08,12.52,19.5,14.09,29.52,3.75,58.94,1.84,88.35-1.49,4.48-.51,9.07-.15,13.6-.19,0,1.1,0,2.2,0,3.3-3.5.17-7,.34-10.5.52-4.88,1.73-10.09-.43-14.97,1.31-3.5.16-7.01.32-10.51.49-5.48,1.8-11.26-.42-16.74,1.3-10.29.02-20.58.04-30.87.07-3.65-1.68-7.71.25-11.37-1.32-7.03.45-13.58-1.27-20.15-3.73-10.07-3.77-16.53-10.73-17.07-21.23-1.83-35.3-1.02-70.62.19-105.93.11-3.15.77-6.64,3.27-9.2Z" style="fill: #0f0f0f; stroke-width: 0px;"/>
  <path d="M1003.53,377.84c3.32-2.28,6.94-3.59,11.02-3.38-3.02,3.24-6.8,4.05-11.02,3.38Z" style="fill: #2f2f2f; stroke-width: 0px;"/>
  <path d="M883.94,570.65c-2.93,1.75-6.1,1.77-9.34,1.37,2.81-2.55,6.09-1.83,9.34-1.37Z" style="fill: #2f2f2f; stroke-width: 0px;"/>
  <path d="M898.47,568.83c-2.9,1.82-6.07,1.93-9.33,1.47,2.79-2.53,6.08-1.88,9.33-1.47Z" style="fill: #2f2f2f; stroke-width: 0px;"/>
  <path d="M809.21,577.47c5.4-2.74,11.11-1.54,16.74-1.3-5.46,1.99-11.1,1.67-16.74,1.3Z" style="fill: #2f2f2f; stroke-width: 0px;"/>
  <path d="M836.46,575.69c4.77-2.9,9.92-1.55,14.97-1.31-4.86,1.87-9.92,1.58-14.97,1.31Z" style="fill: #2f2f2f; stroke-width: 0px;"/>
  <path d="M766.97,576.22c3.88-.32,7.83-1.28,11.37,1.32-3.89.42-7.74.55-11.37-1.32Z" style="fill: #2f2f2f; stroke-width: 0px;"/>
  <path d="M467.69,185.31c.02,3.67.04,7.34.06,11.01-2.5,4.4-6.65,6.82-10.92,9.1-2.17-.66-7.25-.03-4.06-4.05,4.09-5.16,7.51-10.58,10.83-16.18.92-1.55,2.71-.27,4.09.12Z" style="fill: #fdfdfd; stroke-width: 0px;"/>
  <path d="M242.54,201.82c-9.81,3.79-17.72-.95-25.62-5.7,7.1-4.53,13.81-6.21,19.45,2.27,1.39,2.09,3.73,2.96,6.17,3.43Z" style="fill: #aaabaa; stroke-width: 0px;"/>
  <path d="M1052.07,201.3c21.34-3.57,42.68-5.74,65.14-4.87-3.15,5.61-6.76,7.37-12.65,6.03-6.44-1.46-13.14-1.61-19.6.35-6.7,2.04-12.89-1.75-19.56-1.43-4.39.21-8.87,3.83-13.33-.07Z" style="fill: #fdfdfd; stroke-width: 0px;"/>
  <path d="M1163.66,197.47c-4.33,3.16-8.65,3.12-14.93.04,6.14-1.93,10.56-1.27,14.93-.04Z" style="fill: #fdfdfd; stroke-width: 0px;"/>
  <path d="M1135.19,199.05c-3.39,1.05-6.3,1.72-8.84-1.82,3.47-1.3,6.38-1.97,8.84,1.82Z" style="fill: #fdfdfd; stroke-width: 0px;"/>
  <path d="M1186.18,197.11c-2.61,1.02-4.73,1.59-7.17-.53,2.72-2.54,4.82-2.74,7.17.53Z" style="fill: #fdfdfd; stroke-width: 0px;"/>
  <path d="M927.45,83.9c-1.5-1.24-6.06,1.1-4.75-2.61,1.14-3.23,2.51-8.23,8.79-6.21,8.55,2.75,16.52,1.38,22.74-5.83,1.85,4.59-.6,7.65-3.71,10.48-1.58,2.77-3.72,3.91-6.8,2.35-5.42.61-10.85,1.22-16.27,1.82Z" style="fill: #323232; stroke-width: 0px;"/>
  <path d="M943.72,82.08c2.27-.78,4.53-1.57,6.8-2.35,2.77.41,4.06,1.61,1.31,3.69-2.95,2.23-6.27,4.22-8.11-1.34Z" style="fill: #fdfdfd; stroke-width: 0px;"/>
  <path d="M932.82,219.96c-4.88,2.82-9.76,2.33-14.63-.02l14.63.02Z" style="fill: #878787; stroke-width: 0px;"/>
  <path d="M709.15,686.98c9.45-4.42,18.76-6.5,28.67-.67,2.52,1.48,6.48.52,9.78.68-12.82,2.48-25.63,2.98-38.45-.01Z" style="fill: #5c5c5b; stroke-width: 0px;"/>
  <path d="M930.95,272.52c-.85,5.04-2.79,9.24-8.83,6.37-18.94-9.01-35.64-21.35-51.14-35.38,20.29,9.04,40.35,18.57,59.97,29.02Z" style="fill: #999; stroke-width: 0px;"/>
  <path d="M740.52,601.62c-.08,11.73-.3,23.47-.19,35.2.05,5.62-2,8.47-7.91,8.2-5.69-.26-8.84-2.31-8.75-8.71.17-12.28,6.08-23.98,3.46-36.49,4.47.6,8.94,1.2,13.4,1.81Z" style="fill: #a9a9a9; stroke-width: 0px;"/>
  <path d="M734.92,648.94c-4.38,3.42-8.8,9.72-12.98-.2,4.3,1.97,8.66-.25,12.98.2Z" style="fill: #494848; stroke-width: 0px;"/>
  <path d="M934.67,712.44c-.2-.53-.23-1.07-.06-1.61,2.44.12,3.53,1.93,4.89,3.95-2.57.85-3.84-.44-4.82-2.34Z" style="fill: #99623c; stroke-width: 0px;"/>
  <path d="M769.89,672.74c1.61-3.81,4.84-4.46,7.41-5.65,2.48-1.15,5.41-6.13,7.79-1.91,1.81,3.2-2.83,5.38-5.62,6.96-2.79,1.58-5.82,3.34-9.59.61Z" style="fill: #969696; stroke-width: 0px;"/>
  <path d="M771.17,649.92c-1.3,3.67-4.3,5.3-7.96,5.85-1.07.16-2.78-.27-2.46-1.76.86-3.96,4.4-5.22,7.61-6.53,1.83-.75,2.57.65,2.81,2.44Z" style="fill: #848484; stroke-width: 0px;"/>
  <path d="M994.44,319.67c-11.51,5.89-23.95,9.16-36.24,12.84-49.63,14.95-100.71,20.07-152.19,22.88-10.84.59-21.72.02-32.55,1.46-3.78.5-9.69,1.91-10.19-4.23-.44-5.41,4.94-6.13,9.09-6.86,15.76-2.77,31.67-4.54,47.54-6.43,39.12-4.65,77.38-13.23,115.19-24.02,8.44-2.41,16.98-4.37,25.49-6.5,10.07-2.52,19.81-1.32,29.11,2.97,3.01,1.39,7.22,2.84,4.76,7.89Z" style="fill: #cecece; stroke-width: 0px;"/>
  <path d="M994.44,319.67c-3.48-7.44-15.04-11.88-25.37-9.86-25.74,5.03-50.64,13.34-76.12,19.34-29.01,6.83-58.41,11.13-88.01,14.39-11.62,1.28-23.15,3.44-34.72,5.2-2.67.41-6.09.51-5.54,4.32.42,2.95,3.52,3.1,5.9,2.81,24.23-2.97,48.68-1.66,73-4.45,24.81-2.84,49.62-5.25,74.19-9.87,13.59-2.55,26.58-7.73,40.43-9.05-17.49,7.72-36.24,10.93-54.8,14.21-38.93,6.87-78.37,9.12-117.78,11.26-13.31-.03-26.63.03-39.94-.12-5.07-.06-12.78.17-13.27-4.81-.63-6.34,6.97-5.44,11.86-6.14,41.06-5.85,82.38-10,123.06-18.26,16.21-3.29,32.16-7.97,48.08-12.54,22.31-6.41,44.42-13.72,68.15-8.88,3.74,1.83,7.63,3.41,11.18,5.55,3.61,2.18,4.67,4.81-.29,6.9Z" style="fill: #9b9b9b; stroke-width: 0px;"/>
  <path d="M962.14,490.88c-6.43,23.95-27.67,34.13-49.57,23.77-18.68-8.83-23.66-21.89-15.69-41.63,5.08-12.58,13.31-22.04,26.78-26.08,1.98-1.15,4.27-1.71,5.46.56.69,1.32-1.11,2.74-2.54,3.22-10.29,3.5-15,12.58-20.69,20.81,3.45,1,6.83,2.57,9.43,5.45,4.59,8.01,9.51,4.99,14.48.41,2.13-1.31,4.51-1.88,6.93-1.86,5.31.04,8.42-2.29,9.58-7.6.54-2.5.71-6.08,4.07-6.3,3.7-.24,6.23,2.83,7.44,5.77,3.07,7.45,6.62,14.98,4.32,23.48Z" style="fill: #171615; stroke-width: 0px;"/>
  <path d="M914.27,478.07c-3.57-2.13-6.5-6.28-12.9-2.47,7-11.44,11.54-22.73,24.27-26.71.53-.16,1.85.29,1.4-1.14-.05-.17-.49-.25-.77-.31-.87-.18-1.75-.34-2.62-.5,4.77-3.18,9.9-2.18,14.79-.75,16.1,4.72,28.46,28.24,23.69,44.69-.7-10.55-2.4-20.68-10.53-27.89-1.86-.21-2.26.59-2.27,1.49-.16,9.37-3.11,15.55-14.28,13.45-1.79-.34-3.93,1.13-5.9,1.76-6.44-9.63-6.88-9.68-14.88-1.62Z" style="fill: #595958; stroke-width: 0px;"/>
  <path d="M954.62,487.67c-.19,9.41-6.38,16.24-13.14,15.95-6.63-.29-8.51-4.9-8.65-10.39-.19-7.16,7-13.99,13.82-13.67,6.29.29,7.97,4.29,7.97,8.11Z" style="fill: #dd3b26; stroke-width: 0px;"/>
  <path d="M914.27,478.07c.21-5.41,3.08-8.9,8.41-8.43,5.63.49,7,4.95,6.47,10.05-6.61,7.55-10.29,7.15-14.88-1.62Z" style="fill: #a3a3a3; stroke-width: 0px;"/>
  <path d="M948.24,458.99q-6.82.18-17.46-4.97c8.46-2.58,12.38-1.47,17.46,4.97Z" style="fill: #dedede; stroke-width: 0px;"/>
</svg>