<?xml version="1.0" encoding="UTF-8"?>
<svg id="Layer_1" data-name="Layer 1" xmlns="http://www.w3.org/2000/svg" viewBox="0 0 802.44 938.07">
  <path d="M545.66,211.73c4.4-2.46-.5-2.96-1.04-3.36-12.6-9.21-24.51-19.21-35.32-30.48-10.82-11.28-20.32-23.59-28.24-37.09-10.14-21.68-10.91-44.9-11.12-68.2-.04-4.32,1.45-8.47,1.98-12.73,1.31-10.47-1-14.5-10.75-18.57-3.19-1.33-5.8-3.18-7.22-6.45-2.64-6.07-.77-9.76,5.79-11.35,7.41.73,12.62,5.63,18.23,9.75,2.13,1.56,3.96,3.64,7.63,4.02-1.9-8.36-5.14-16.41,1.01-23.72,5.17-6.14,10.8-11.68,19.07-13.44,52.2,1,101.17,12.13,143.08,45.49,1.35,1.08,3.02,1.87,3.5,3.76-.39.44-.85.84-1.42.98-3.62.9-8.39-.21-9.84,4.74-1.68,5.76-1.96,11.52,1.47,16.96,3.99,6.31,8.7,12.16,13.69,17.57,12.18,13.22,18.8,29.12,24.13,45.82,8.64,27.08,15.34,54.62,18.99,82.84.8,6.19,2.1,12.34,1.75,18.65-.22,3.98-1.6,7.19-5.33,9.13-5.58,2.92-8.59,2.05-11.38-3.61-15.66-31.69-36.91-59.4-60.69-85.31-3.69-4.02-6.63-8.77-11.23-11.94-1.06-.73-2.21-2.05-3.61-.95-1.03.81-.56,2.19-.39,3.32.56,3.82,2.81,6.82,4.93,9.88,6.15,8.87,13.57,16.69,20.34,25.05,12.98,16.05,23.99,33.34,33.14,51.82,3.65,7.37,7.52,14.61,11.52,21.8,1.09,1.95,3.12,4.08,1.05,6.38-2.08,2.31-4.51.72-6.4-.42-19.64-11.85-41.89-16.02-63.64-21.63-2.21-.57-4.52-1.48-6.85-.27-8.52-.83-15.34-5.81-21.65-8.86,14.79,8.75,28.59,20.9,43.28,31.8,1.49,1.1,3.25,2.39,2.45,4.81-3.04,1.55-4.68-1.06-6.55-2.43-10.19-7.41-20.07-15.23-30.36-22.5-13.3-9.42-26.82-18.5-40.69-27.06-1.58-.97-3.66-1.68-3.3-4.22Z" style="fill: #93d378; stroke-width: 0px;"/>
  <path d="M455.32,180.8c14.17,2.49,28.41,4.71,42.04,9.59,8.84,6.11,18.52,10.8,27.72,16.29,12.24,7.31,24.91,13.9,36.78,21.85,6.55,4.27,13.12,8.53,19.59,12.92,1.45.98,3.02,1.84,4.16,3.22.73.89,1.63,1.89.89,3.11-.7,1.16-2,1.08-3.17.93-2.16-.28-4.12-1.2-6.09-2.07-6.96-3.09-14.06-5.8-21.59-7.85,14.26,20.92,33.82,32.13,58.84,33.45,5.63.3,9.74,2.51,12.6,7.21,2.42,4,1.65,5.67-2.89,6.31-2.12.3-4.3.2-6.41.72-1.99.49-3.8,1.17-4.02,3.6-.35,3.88-3.2,5.06-6.34,5.93-3.58,1-7.22,1.77-10.76,2.92-8.24,2.67-9.77,5.39-7.82,14.02.17.76.51,1.48.62,2.26-.51,2.26-2.46,2.88-4.25,3.58-11.23,4.39-22.24,9.33-33.5,13.66-1.98.76-3.97,1.79-6.1.38-.22-3.47,2.82-3.73,4.9-4.79,3.09-1.57,6.62-2.35,9.5-5.36-1.39-1-2.65-.52-3.84-.23-5.54,1.34-10.83,3.4-15.75,6.23-7.15,4.11-14.71,5.51-22.98,5.6-12.96.14-25.72,2.07-36.86,9.63-2.05,1.39-5.7,2.83-4.71,5.23,1.35,3.28,4.85.87,7.24.26,10.61-2.69,20.89-6.48,31.3-9.83,4.08-1.31,8.25-2.66,12.43-.17.2,3.09-2.51,3.09-4.3,3.77-5.46,2.08-11.08,3.7-16.59,5.66-5.17,1.55-10.26,3.33-15.35,5.11-6.73,1.88-13.1,4.99-20.09,6-11.53.96-22.15,4.87-32.34,10.09-10.62,4.56-21.63,8.08-32.52,11.9-2.23.26-4.4.73-6.4,1.82-.52.24-1.06.42-1.6.58-11.27,3.32-22.11,7.88-33.26,11.56-16.54,5.46-32.99,11.48-50.32,13.86-11.04,1.52-22.27,1.85-33.06-2.25-6.4-2.43-7.83-5.46-5.3-11.81,3.56-8.94,9.74-16.06,16.53-22.57,10.86-10.41,22.52-19.94,32.69-31.15,6.13-6.76,13.68-12.26,20.7-18.2,3.16-2.67,6.3-5.3,7.26-9.65.49-2.25,2.31-3.54,3.98-4.92,15.87-13.13,33.92-22.37,53.05-29.64,5.19-1.97,10.32-4.15,13.58-4.86-31.81,9.58-61.64,27.74-90.6,47.61-14.06,9.65-27.4,20.23-40.75,30.81-2.01,1.59-4.94,5.09-6.84,2.82-2.27-2.72,1.76-5.05,3.78-6.77,18.16-15.51,36.99-30.22,55.5-45.01-22.66,11.29-43.55,25.92-65.4,38.95-12.09,7.21-24.84,13.26-35.79,22.39-7.85,6.54-13.32,14.78-18.93,23.02-1.32,1.94-2.48,4.01-3.97,5.82-1.02,1.25-1.93,3.68-3.95,2.48-1.68-1-.82-3.2-.35-4.9.31-1.13.69-2.26,1.26-3.29,11.06-19.77,15.15-41.81,20.83-63.53-1.96,1.38-2.3,4.57-5.39,4.11-1.53-2.2-.07-4.12.65-6.04,3.09-8.25,7.71-15.7,12.35-23.12,1.41-1.51,2.89-2.97,3.73-4.92.25-.46.55-.88.86-1.29,2.72-3.13,4.83-6.7,7.08-10.16.26-.45.57-.86.89-1.26,1-1.15,2-2.3,2.79-3.61.27-.44.57-.85.9-1.25,1.25-1.33,2.2-2.85,2.86-4.56,7.79-10.63,16.82-20.16,26.12-29.45,5.21-5.75,11.49-10.35,17.06-15.71,1.99-1.91,4.32-3.27,7.15-3.56,5.92.99,11.58-.14,17.36-1.45,20.62-4.67,41.6-5.26,62.39-2.39,32.51,4.49,65.12,3.36,97.73,3.44,4.79.01,9.61.84,14.52.2-.18-3.15-2.58-4.09-4.26-5.54-8.1-6.96-17.9-11.14-27.1-16.27-8.4-4.68-15.95-10.62-24.11-15.64-.83-.51-1.62-1.12-2.27-1.85-.89-1.01-2.09-2.06-1.46-3.53.57-1.33,2.04-.81,3.14-.84,1.35-.03,2.74-.25,4.04.4Z" style="fill: #93d378; stroke-width: 0px;"/>
  <path d="M176.06,765.08c-35.12-20.88-53.68-54.74-70.07-90.11-8.39-18.09-14.85-36.95-18.92-56.54-.53-1.17-.67-2.42.73-2.9,1.9-.65,2.86.86,3.54,2.24,2.58,5.2,5.56,10.18,8.47,15.2,3.4,6.71,8.95,11.01,15.29,14.88,9.34,5.71,17.46,13.13,25.71,20.29,2.27,1.97,4.44,3.78,7.53,4.15.97.11,1.92.46,2.76.95,12.96,7.62,27.33,12.31,40.6,19.08,9.81,5,19.28,11.03,28.9,16.61,13.9,8.06,28.38,14.87,43.32,20.64,7.68,2.97,14.76,7.1,22.29,10.35,10.47,4.52,21.25,7.81,32.03,11.25,5.29,1.68,10.78,1.75,16.23,2.21,6.83.57,13.31,3.18,20.21,3.3,7.31,2.59,14.52,2.32,21.86-.13,2.62-.88,6.3-2.8,7.47,2.24-2.3,5.29-7.07,7.68-11.89,9.84-10.08,4.51-20.89,6.55-31.55,9.12-13.4,3.23-15.42,6.62-12.01,19.94,1.41,5.5,3.11,10.93,4.12,16.53.37,11.27-6.79,18.86-17.98,19.41-8.54.42-16.21-2.43-23.59-6.08-12.47-6.17-24.2-13.68-35.49-21.72-20.09-14.3-41.95-25-65.03-33.32-5.22-1.88-9.9-4.56-14.56-7.42Z" style="fill: #0ca66a; stroke-width: 0px;"/>
  <path d="M589.22,314.96c-4.91-4.29-3.5-13.75,2.66-15.98,5.11-1.86,10.48-2.97,15.7-4.53,2.76-.83,6.05-1.32,4.39-5.78-.73-1.96.87-2.76,2.56-3.06,2.48-.44,4.97-.85,7.46-1.22,1.7-.25,4.02.79,4.98-.73,1.25-2-1.16-3.48-2.14-4.95-2.29-3.45-5.69-4.71-9.98-5.02-20.88-1.5-39.6-7.72-52.99-25.21-2.48-3.23-5.75-5.85-8.61-8.79-.76-.78-2-1.65-.92-2.91.74-.86,1.79-.29,2.72.02,7.58,2.53,15.24,4.87,22.47,8.32,2.6,1.24,5.21,2.43,9.76,2.9-8.85-7.99-18.58-12.13-26.4-18.87,2.74-1.74,4.82.27,6.89,1.42,5.23,2.93,10.4,5.95,15.47,9.15,2.1,1.32,4.38,2.53,7.04,2.34,11.5,7.3,21.85,16.18,32.88,24.14,1.12.81,2.07,1.8,3.6,1.6.23.06.47.13.7.18,1.46.86,2.73,1.98,4.2,2.83.62.42,1.18.9,1.73,1.4,1.41,1.5,3.12,2.52,5.09,3.11,9.31,5.41,17.53,12.44,26.86,17.84,11.51,6.66,23.46,12.41,36.17,18.59-.57-5.27-2.92-8.99-4.73-12.91-10.19-22.08-28.99-33.58-50.76-41.56-12.86-4.71-25.92-8.85-38.6-14.05-2.07-.85-4.78-.91-5.36-3.86.96-1.51,2.06-1.77,3.94-1.33,18.96,4.44,37.89,9.03,55.94,16.47,4.67,1.92,8.94,4.81,13.43,7.17.96.51,2.06,1.44,3.21.43,1.2-1.05.42-2.01-.2-3.07-11.85-20.2-21.02-41.89-34.78-61.03-9.57-13.31-20.86-25.19-30.56-38.36-3.37-4.58-6.53-9.09-6.64-15.24-.07-4.22,1.56-3.92,4.16-2.4,1.67.98,3.37,2.08,4.68,3.48,26.35,28.13,50.42,57.95,68.59,92.17.46.86.85,1.76,1.27,2.65,1.26,2.64,1.46,6.72,5.74,5.95,4.88-.88,8.73-3.08,8.77-9.16.06-8.43-1.41-16.7-2.65-24.93-4.11-27.38-11.3-54.03-19.39-80.52-5.99-19.61-17.37-35.53-30.39-50.71-4.96-5.78-9.54-11.55-8.91-20.18.72-9.7,2.44-11.58,13.96-11.4,7.65,7.95,15.94,15.3,22.92,23.88,1.32,1.63,2.31,3.53,3.45,5.3,2.69,12.23,6.96,24.03,9.42,36.33,5.67,28.41,10.59,56.92,13.22,85.8,1.3,14.21,3.38,28.35,3.46,42.66.02,3.6-.4,6.99-2.77,9.94-2.34,2.91-1.97,6.24-1.03,9.53,1.67,5.84,3.63,11.6,5.95,17.19,6.75,16.28,13.43,32.58,19.6,49.09,1.83,4.9,4.63,8.92,8.82,12.16,6.03,4.67,10.17,10.98,12.74,18.01,7.07,19.3,16.09,37.82,22.29,57.47,8.63,27.34,14.18,55.25,16.78,83.79,1.3,14.21,2.32,28.42,2.26,42.7-.11,27.88-3.19,55.46-9.9,82.46-14.16,57.02-37.89,109.67-73.77,156.5-4.75,6.2-9.36,12.55-14.96,18.06-5.17,4.93-10.57,9.64-14.93,15.37-.78,1.08-1.7,2.05-2.63,3.01-2.07,2.01-4.11,4.05-6.09,6.15-1.81,1.76-3.51,3.64-5.55,5.16-15.15,13.89-31.07,26.83-47.93,38.61-34.64,24.22-73.18,39.43-113.96,49.51-20.14,4.98-40.46,8.57-61.23,9.87-7.22.45-14.42.83-21.64.89-2.13.02-4.34.26-6.22-1.17,0-4.33,3.48-2.94,5.51-2.97,19.23-.33,38.23-2.5,57.12-6.06,62.81-11.83,119.46-36.6,168.49-78.32,35.48-30.19,65.29-64.9,87.07-102.91-11.48,19.69-27.38,39.46-44.23,58.62-23.46,26.68-50.57,49.03-80,68.64-25.44,16.94-53.16,29.17-82.37,38.07-25.15,7.66-50.71,13.35-76.88,16.32-16.2,1.84-32.44,1.38-48.67,1.62-34.95.51-69.06-4.8-102.48-14.73-40.8-12.13-79.19-29.52-114.52-53.45-52.76-35.72-93.89-81.82-124.14-137.86-18.33-33.96-31.03-69.68-36.17-107.98-2-14.92-3.8-29.84-4.35-44.95-.34-9.37-1.11-18.74-.88-28.13.06-2.22-1.01-5.37,2.83-5.95,1.18,1.24,1.39,2.83,1.3,4.38-.66,10.78.94,21.47,1.31,32.21.86,25.32,5.69,50.03,12.15,74.47,10.36,39.2,27.72,75.15,50.26,108.7,33.96,50.53,78.15,89.78,131.38,119.05,40.91,22.5,84.56,37,130.58,44.36,25.96,4.15,52.2,5.53,78.43,4.2,46.54-2.36,91.46-12.54,134.47-30.58,30.62-12.84,57.76-31.37,82.93-52.79,40.8-34.73,75.58-74.41,98.78-123.23,16.26-34.22,30.17-69.3,36.49-106.93,4.48-26.7,6.8-53.62,5.1-80.65-1.79-28.51-4.97-56.91-11.93-84.71-5.53-22.1-13.09-43.54-23.21-63.94-9.37-18.88-25.24-31.17-44-39.83-15.28-7.05-31.01-13.12-45.4-22.02-4.31-2.67-8.5-2.63-12.36.98-3.1-.78-6.19-1.56-9.29-2.34-1.06-.71-2.28-.34-3.43-.48-4.74-.08-9.5-.69-14.19.51-3.55.61-7.1,1.25-10.54,2.36-5.56.9-10.47,4.81-16.48,3.65Z" style="fill: #7ac064; stroke-width: 0px;"/>
  <path d="M16.67,527.65c-2.58,8.6-1.68,17.53-.77,26.06.95,8.93.79,17.87,1.72,26.8,3.1,29.74,8.14,58.9,18.38,87.16,13.58,37.48,33.47,71.36,57.63,102.76,18.74,24.37,40.54,45.79,64.96,64.66,20.78,16.05,42.54,30.43,66.09,41.94,36.44,17.82,74.46,30.77,114.64,37.63,29.9,5.1,59.99,5.81,89.92,4.02,48.62-2.91,95.34-14.83,139.55-35.79,25.01-11.86,47.69-27.25,69.07-44.74,12.41-10.16,24.53-20.6,35.56-32.23,20.32-21.42,38.69-44.37,54.59-69.29,1.35-2.12,2.24-4.87,5.77-6.48-11.57,22.8-25.52,42.81-41.34,61.64-9.57,11.39-19.55,22.38-30.4,32.52-42.55,39.75-90.48,70.17-147.23,85.8-19.76,5.44-39.61,10.24-59.81,13.24-12.47,1.86-25.15,3.06-37.86,2.83-2.24-.04-4.74-.88-6.7,1.11-2.06,2.12-4.74,1.53-7.21,1.55-45.75.24-90.27-6.73-133.59-21.76-32.72-11.36-63.72-26.1-92.61-45.11-25.09-16.5-48.33-35.42-68.51-57.72-31.76-35.11-57.69-74.18-75.77-118.04-14.85-36.02-24.6-73.47-28.27-112.37-2.94-31.17-.54-62.13,4.13-92.97.56-3.67,1.44-7.3.77-11.05,3.74-17.49,10.61-33.91,17.46-50.32,6.47-15.53,13.74-30.69,21.47-45.63,1.36-2.63,2.71-5.36,5.17-7.03,2.89-1.96,5.93-2.95,6.58,2.26-2.68,4.81-3.91,10.22-6.28,15.16-15.91,34.8-28.88,70.49-33.21,108.82-1.07,9.5-2.26,18.99-2.28,28.58,0,2.11.26,4.36-1.59,6.02Z" style="fill: #93cc81; stroke-width: 0px;"/>
  <path d="M331.59,814.48c-2.08-8.27-5.27-16.24-6-24.88-.55-6.45,2.35-10.06,8.19-11.62,9.23-2.46,18.54-4.59,27.75-7.11,8.18-2.24,15.9-5.49,21.8-11.96.98-.78,1.92-2.05,3.1-.24.9,2.77-.72,4.87-1.86,7.1-3.03,5.91-2.34,8.73,4.11,11.45,9.56,4.03,19.7,5.97,29.99,7.46,16.63,2.41,33.43,2.22,50.09,3.9,8.35,1.99,16.27,5.29,24.35,8.09,6.53,2.26,10.36,6.59,11.5,13.38,1.07,6.35,2.66,12.53,5.39,18.42,1.43,3.08,1.74,6.42-.91,9.28-10.72,4.01-21.44,7.99-32.83,9.71-.09-6.88-4.81-9.2-10.46-10.56-12.93-3.12-26.03-2.11-39.08-1.41-18.35.98-36.69,1.17-55.03-.08-6.62-.45-13.24-.71-19.83-1.73-10.23-1.57-18.79-4.71-19.21-17.16-.03-.77-.56-1.44-1.07-2.05Z" style="fill: #1146ba; stroke-width: 0px;"/>
  <path d="M772.44,386.55c13.41,30.04,22.74,61.22,26.6,93.99,6.26,53.05,4.44,105.71-10.08,157.25-17.07,60.6-44.26,116.14-86.31,163.76-34.3,38.84-73.64,71.37-119.53,95.57-29.64,15.63-61.57,25.04-94.2,32.05-42.07,9.04-84.65,11.11-127.36,6.6-79.89-8.43-151.23-38.12-214.08-88.17-33.85-26.96-62.17-58.89-85.66-95.16-1.48-2.29-2.78-4.7-4.16-7.06,1.63-3.78,2.96-.45,3.75.41,3.73,4.03,6.45,8.85,9.59,13.33,7.41,10.58,16.03,20.23,23.57,30.72,7.34,10.74,16.91,19.48,26.29,28.26,13.85,12.96,28.54,24.96,43.9,36.14,31.09,22.64,64.89,40.02,101.11,52.79,22.18,7.82,44.77,14.23,68,17.91,13.48,2.14,27.02,3.83,40.72,4.54,11.92.61,23.83,1.05,35.75.94,37.15-.34,73.5-5.79,109.23-16.15,45.62-13.23,86.56-34.96,122.79-65.61,47.15-39.89,84.43-87.24,109.41-144.03,13.1-29.8,24.83-59.98,30.59-92.19,3.55-19.84,6.1-39.76,6.63-59.97,1.57-60.51-8.54-118.81-32.36-174.56-4.53-10.61-8.86-21.33-15.47-30.94-1.66-2.42-3.94-5.25-1.12-8.49,5.61.78,8.05,5.55,11.06,9.29,9.4,11.64,14.86,25.51,21.35,38.8Z" style="fill: #5fa847; stroke-width: 0px;"/>
  <path d="M80.2,504.12c.3-11.13,2.23-22.02,4.78-32.82,1.69-2.88,3.22-.99,4.68.21,5.61,4.65,7.23,4.65,13.28.83,10.21-6.45,16.7-16.41,24.16-25.42,20.35-24.55,40.25-49.48,63.08-71.86,7.13-7,14.83-13.35,22.45-19.79,2.14-1.81,4.48-4.58,7.7-2.72,3.28,1.9,1.79,5.16,1.32,7.99-.19,1.16-.29,2.33-.52,3.49-4.41,17.85-10.11,35.35-14,53.34-.3,1.13-.87,2.24-.7,3.42,1.44,10.15-3.7,17.86-8.89,25.85-9.87,15.19-17.27,31.4-19.09,49.82-.93,9.44,1.68,18.66.93,28.04,1.61,16.66,3.46,33.28,7.05,49.66,1.28,8.61,2.71,17.18,4.82,25.64.87,3.51,2.32,7.04,1.17,10.8-3.91,1.68-4.43-1.92-5.64-3.9-11.17-18.19-17.97-38.19-24.09-58.49-5.73-19-8.27-38.65-12.38-57.98-.28-1.34-.43-2.71-.8-4.03-2.32-8.2-6.4-10.44-14.38-7.85-5.66,1.83-10.55,5.16-15.56,8.19-10.75,6.5-21.63,12.63-34.37,14.14-2.52.3-2.37,3.72-4.98,3.44Z" style="fill: #34bbe9; stroke-width: 0px;"/>
  <path d="M16.67,527.65c.1-33.56,6.13-66.05,16.99-97.79,4.61-13.48,10.48-26.42,15.48-39.72.94-2.49,1.85-5.17,3.95-7.08,2.32,3.5-.25,6.37-1.43,9.25-11.84,28.87-22.1,58.26-26.7,89.21-3.22,21.67-5.15,43.56-4.29,65.52,1.83,46.73,9.92,92.21,28.61,135.39,14.64,33.82,33.55,65.11,57.31,93.29,37.73,44.75,83.77,78.54,137.05,102.58,9.08,4.1,18.57,7.19,27.67,11.22,1.18.52,2.53,1.23,3.89.26,20.32,6.4,40.64,12.8,61.71,16.38,40.25,6.84,80.67,7.78,121.06,1.98,45.27-6.5,88.69-19.19,128.66-42,20.43-11.66,39.21-25.7,57.13-40.98,26.71-22.78,49.65-48.84,69.33-77.82,19.46-28.66,32.78-60.36,44.9-92.57,6.91-18.36,11.74-37.35,14.55-56.81.16-1.14.73-2.22,1.11-3.32,1.26-1.9-.06-4.21.98-6.15l.17-2.07c1.39-2.3-.11-5,1-7.33.1-1.49.2-2.97.3-4.46,1.13-2.3-.22-4.91.91-7.21.06-1.12.12-2.23.18-3.35,1.46-6.28-.31-12.73.98-19.02,0-4.54,0-9.09,0-13.63-1.35-6.67.52-13.5-.99-20.16-.06-1.13-.11-2.26-.17-3.39-1.19-2.68.25-5.65-.91-8.34-.09-1.54-.17-3.08-.26-4.62-1.34-3.06.46-6.47-1.06-9.52-.05-.71-.11-1.42-.16-2.13-1.01-1.92.17-4.15-.88-6.06-3.83-21.99-8.49-43.76-16.58-64.66-7.54-19.48-15.8-38.57-30.96-53.63-7.09-7.05-15.36-12.56-24.17-17.17-19.59-10.25-39.27-20.33-58.92-30.47,1.32-4.9,6.66-6.71,11.91-3.16,8.34,5.63,17.61,9.27,26.45,13.82,11.28,5.8,23.38,9.73,34.24,16.57,19.5,12.29,30.62,30.39,38.87,51.18,10.71,26.95,18.2,54.72,22.25,83.35,1.88,13.25,2.9,26.67,4.05,40.04,1.09,12.72.82,25.38.83,38.06,0,14.22-2.4,28.24-4.26,42.32-1.95,14.72-5.16,29.1-9.13,43.33-5.68,20.33-14.08,39.66-22.36,59.03-7.63,17.84-16.78,34.87-27.44,51.04-9.22,13.98-19.47,27.24-30.53,39.88-9.26,10.57-19.04,20.64-29.29,30.19-13.53,12.62-27.8,24.4-42.78,35.34-13.13,9.58-26.82,18.29-41.25,25.59-19.87,10.05-40.77,17.7-62.28,23.7-19.9,5.55-40.02,10.28-60.49,12.52-24.4,2.67-48.9,3.48-73.58,1.8-24.2-1.64-47.98-5.08-71.38-11.02-24.24-6.14-47.69-14.64-70.54-25-25.22-11.44-48.65-25.77-70.76-42.18-19.76-14.67-37.79-31.3-54.2-49.82-25.6-28.89-46.34-60.85-62.44-95.79-12.86-27.91-21.31-57.28-26.51-87.58-2.77-16.14-4.34-32.34-4.99-48.74-.37-9.35-.44-18.72-.87-28.07Z" style="fill: #68b75e; stroke-width: 0px;"/>
  <path d="M740.7,338.4c-1.91,2.71-.06,4.91,1.19,6.98,18.06,29.9,28.96,62.62,37.49,96.2,5.32,20.95,7.74,42.38,9.77,63.91,1.1,11.67,1.86,23.45,1.73,34.97-.56,50.7-9.74,99.83-29.93,146.71-10.68,24.8-21.83,49.33-36.74,71.9-9.67,14.63-19.95,28.84-31.69,41.95-8.46,9.45-16.53,19.29-25.79,27.97-27.01,25.29-55.81,48.28-89.25,64.61-32.25,15.74-66.28,26.27-101.62,32.49-14.96,2.64-30.05,3.83-45.2,4.99-13.51,1.04-26.97,1.11-40.41.72-16.11-.47-32.16-1.98-48.21-4.15-36.66-4.96-71.48-16-105.29-30.38-31.77-13.51-60.83-31.71-87.86-53.26-14.99-11.95-29.39-24.49-42.63-38.31-4.74-4.95-10.69-9.06-13.17-15.94,2.32-1.54,3.7.15,4.92,1.62,22.32,26.76,48.52,49.21,77.21,68.74,25.95,17.67,53.86,31.68,83.33,42.64,24.34,9.05,49.22,16,74.77,20.56,16.16,2.88,32.52,4.54,48.87,4.94,23.24.57,46.5.77,69.72-1.95,23.93-2.81,47.27-7.98,70.28-14.91,37.6-11.31,72.27-28.45,103.52-52.35,12.56-9.61,24.66-19.74,36.24-30.5,1.13-2,2.7-3.57,4.71-4.7,2.39-1.53,4.34-3.49,5.87-5.87.45-1.12,1.23-1.9,2.35-2.36,4.12-5.63,10.04-9.6,14.1-15.27,16.06-18.9,30.95-38.67,43.23-60.26,9-15.82,16.68-32.3,23.78-49.05,8-18.87,15.48-37.94,20.21-57.94,5.29-22.36,9.12-44.9,10.62-67.92.74-11.35,1.12-22.66.74-33.94-.63-18.84-2.54-37.58-5.32-56.28-4.55-30.68-13.25-60.08-25.02-88.66-4.23-10.28-8.25-20.66-12.82-30.8-2.57-5.7-6.28-10.71-11.78-14.22-5.71-3.65-7.09-10.13-9.38-15.87-7.57-19.04-15.04-38.12-22.34-57.26-2.26-5.92-4.28-11.39.9-17.93,3.74-4.72,1.45-12.15,1.03-18.3-.68-9.87-2.41-19.67-3.19-29.54-1.09-13.77-2.6-27.48-4.86-41.09-3.34-20.13-6.44-40.32-11.68-60.08-1.5-5.65-3.23-11.24-4.92-16.84-.62-2.03-1.9-4.04.44-5.82,15.55,20.46,25.34,43.45,30.23,68.61,4.52,23.27,3.73,46.78,3.13,70.27-.58,22.57-.05,44.93,6.06,66.98,3.88,13.99,10.28,26.86,15.47,40.27.75,1.94,1.64,3.84,2.47,5.75.36,3.38,4.72,4.38,4.72,7.97Z" style="fill: #6ab552; stroke-width: 0px;"/>
  <path d="M80.2,504.12c1.1-3.9,2.68-5.16,7.61-5.17,5.64-.01,11.48-3.33,16.85-5.99,7.5-3.72,14.71-8.06,21.9-12.36,3.06-1.83,6.2-3.33,9.58-4.31,7.96-2.3,12.82.4,14.6,8.78,3.34,15.75,5.74,31.71,9.48,47.36,5.41,22.59,12.16,44.82,23.3,65.4,2.47,4.56,4.29,9.6,8.27,13.25,2.31,1.47,3.05,4.03,4.12,6.28,5.54,11.72,12.19,22.73,20.15,32.97,1.02,1.31,2.63,2.55,1.53,4.61-1.83,1.22-3.76.34-5.66.29-2.42-.07-4.99.25-6.16,2.49-2.76,5.29-5.67,3.02-8.76.59-9.11-7.72-13.56-18.43-18.43-28.86-6.2-13.27-11.86-26.81-19.46-39.39-1.01-1.67-1.73-3.52-3.3-4.79-7.41-12.27-15.57-24.03-24.72-35.08-.74-.9-1.43-1.83-2.4-2.51-3.99-3.83-6.75-8.68-10.54-12.67-3.54-5.23-8.25-9.26-13.51-12.6-7.81-4.95-14.12-3.21-18.89,4.93-1.59,3.9-3.32,7.74-4.15,11.9-.34,1.7-.83,3.38-2.76,4.04-1.39-13.12-.13-26.14,1.36-39.15Z" style="fill: #1ba5e3; stroke-width: 0px;"/>
  <path d="M94.47,434.87c7.53-23.77,18.28-46.05,31.3-67.27,13.76-22.43,30.05-42.82,49.02-61.07,1.44-1.38,4.56-2.32,2.84-5.51,7.11-5.95,14.8-10.95,23.41-14.48,7.38-1.82,14.44-4.82,22.16-5.41,4.85-.37,9.41.17,13.46,2.87,4.86,3.24,5.68,8.57,2.2,13.25-2.97,4-7.07,6.75-11.08,9.53-15.34,10.64-29.16,23.12-42.18,36.35-16.63,16.89-31.15,35.61-44.51,55.21-9.7,14.23-18.28,29.19-28.33,43.19-1.84,2.56-3.7,5.09-6.27,6.94-4.67,3.36-8.89,1.64-9.9-4.02-.58-3.22.16-6.73-2.1-9.58Z" style="fill: #a6cee9; stroke-width: 0px;"/>
  <path d="M455.32,180.8c-2.09.12-4.18.25-7.07.42,4.3,5.07,9.96,7.03,14.45,10.53,10.37,8.08,22.63,13.02,33.72,19.91,4.46,2.77,8.84,5.74,12.47,9.61.97,1.04,2.99,1.95,1.81,3.77-.85,1.3-2.53,1.81-4.19,1.65-25.15-2.46-50.36-.69-75.54-.96-13.12-.14-25.72-3.76-38.8-4.23-13.65-.48-27.25-.99-40.88.11-9.34.76-18.4,2.87-27.5,4.94-3.03.69-6.5-.6-9.77-.99.05-5,4.94-5.74,7.54-8.47,1.46-1.53,3.6-2.1,5.43-3.1,16.79-11.54,34.3-21.61,53.9-27.77,23.86-7.49,48.2-8.64,72.86-6.17.54.05,1.04.49,1.56.74Z" style="fill: #a6d696; stroke-width: 0px;"/>
  <path d="M94.47,434.87c3.35-1.21,2.89,1.72,3.2,3.25.38,1.89.04,3.9.18,5.85.13,1.99.54,4.03,2.75,4.72,1.99.62,3.76.02,5.36-1.46,4.94-4.56,8.51-10.23,12-15.8,12.84-20.49,25.89-40.84,40.86-59.86,17.28-21.96,36.78-41.71,58.75-59.04,6.26-4.94,13.33-8.85,18.9-14.67,2.18-2.28,4.1-4.48,2.8-8.25-1.33-3.86-4.07-5.54-7.58-6.39-8.93-2.14-17.25.72-25.54,3.44-1.67.55-3.2,1.47-5.05,1.21-.1-3.45,2.9-3.72,5.02-4.79,9.01-4.53,18.87-5.78,28.65-7.32,3.57.1,3.86,3.23,5.11,5.49,1.86,5.78,4.94,10.89,8.65,15.65.35,1.33-.54,2.04-1.4,2.75-4.6,9.86-11.3,18.7-14.26,29.36.7,3.11-1.08,5.63-2.03,8.33-2.37,6.77-4.74,13.54-6.91,20.38-.69,2.2-.69,5.2-4.06,5.59.19-1.54.23-3.12.6-4.61.48-1.92,1.39-3.98-.6-5.35-2.23-1.54-3.72.87-5,1.89-6.37,5.1-12.79,10.2-18.63,15.89-16.33,15.9-31.87,32.54-46.12,50.39-11.15,13.97-22.64,27.67-34.11,41.39-3.89,4.66-8.69,8.38-13.84,11.6-6.19,3.87-8.41,3.52-13.32-2.1-1.12-1.29-2.14-2.31-3.9-1.13,1.73-12.52,5.67-24.45,9.49-36.43Z" style="fill: #72c4e8; stroke-width: 0px;"/>
  <path d="M119.06,534.7c4.51,3.08,6.45,8.4,10.38,11.98,12.39,22.42,25.12,44.65,35.67,68.05,7.07,15.68,13.65,31.65,24.85,45.13,5.84,7.03,12.55,12.87,20.33,17.56,19.64,11.85,41.03,19.3,63.01,25.33,21.55,5.9,43.39,10.53,65.41,14.18,9.62,1.6,19.37,2.81,29.15,3.04,5.63.13,10.34,1.88,14.22,5.87,2.48,2.55,5.16,4.75,8.67,5.75,6.33,7.62,3.94,20-5.02,26.09-.8.41-1.6.83-2.4,1.24-.97-3.37-3.24-1.96-5.11-1.25-8.05,3.07-16.09,3.81-24.22.35-2.78-3.03-3.26-7.07-4.55-10.72-1.32-3.75-3.61-6.31-7.13-8.12-8.89-4.59-18.63-6.2-28.28-7.46-37.85-4.95-72.27-18.39-103.43-40.37-15-10.58-26.76-23.92-35.65-39.96-14.52-26.2-26.14-53.94-42.44-79.19-6.06-9.39-12.21-18.68-19.37-27.28-3.42-4.11-7.46-7.53-12.07-10.18-6.89-3.95-12.52-1.65-13.92,6.35-1.63,9.27-1.29,18.76-.2,28.09,2.35,20.06,8.15,39.45,11.94,59.24.32,1.68,1.43,3.32.07,5.01-3.66-4.46-6.45-9.42-8.66-14.74-.71-1.71-1.81-4.55-3.23-.27-6.09-21.32-9.03-43.06-8.71-65.23.05-3.31.31-6.62.48-9.93,1.87-5.65,2.47-11.76,5.98-16.83,4.6-6.61,11.07-5.77,17.42-3.94,6.97,2.01,12.28,6.65,16.82,12.2Z" style="fill: #1db27c; stroke-width: 0px;"/>
  <path d="M331.59,814.48c2.63,1.26,3.4,3.64,3.59,6.26.37,4.99,3.3,7.5,7.79,9.09,5.58,1.98,11.42,2.71,17.14,3.25,20.63,1.93,41.38,2.08,62.02,1.05,10.73-.54,21.43-.84,32.14-.73,6.73.07,13.41,1.25,19.57,4.82,4.42,2.57,5.27,5.21,2.42,9.26-9.48,3.24-19.24,5.07-29.21,5.86-2.28,1.19-4.93-.3-7.2.99-1.06.08-2.12.16-3.17.24-1.99.9-4.23-.12-6.22.83-1.51.1-3.03.2-4.54.3-2.31,1.09-4.88-.14-7.2.84-2.64.13-5.28.26-7.92.38-6.14.68-12.27.67-18.41,0-2.63-.12-5.27-.24-7.9-.36-2.37-.99-4.98.14-7.36-.81-1.85-.13-3.71-.26-5.56-.38-1.98-.9-4.2.08-6.18-.8-1.07-.09-2.14-.18-3.21-.26-2.25-1.27-4.88.21-7.14-.98-14.29-.76-27.92-4.81-41.52-8.71-50.04-14.36-94.35-39.05-132.57-74.5-1.71-1.59-3.26-3.35-4.89-5.03,31.11,11.29,61.01,24.84,88.07,44.37,12.45,8.99,25.5,17.45,40.69,21.65,4.66,1.29,9.36,1.45,13.93.61,7.67-1.41,12.08-7.74,12.84-17.23Z" style="fill: #0d38ab; stroke-width: 0px;"/>
  <path d="M605.42,310.12c3.37-1.81,7.06-2.17,10.78-2.42,5.04-.65,10.09-.61,15.14-.01.84.41,1.68.82,2.53,1.23-.64.28-2.07.52-1.65,1.07,2.48,3.23,4.87,6.81,8.85,8.26,17.11,6.21,30.21,17.56,40.83,31.93,19.7,26.65,30.68,57.2,38.65,88.94,4.83,19.21,10.13,38.33,13.64,57.86,1.13,6.3,1.95,12.65.75,19.12-1.2,6.44-3.67,8.91-10.39,9.4-.21-.12-.42-.24-.63-.36-.18-.46-.26-.94-.28-1.43-.2-1.78-.64-3.56.26-5.29,3.05-9.06-.38-17.57-3.23-25.67-6.03-17.14-12.34-34.17-17.66-51.57-8.61-28.2-24.67-52.16-43.67-74.27-6.45-7.5-11.35-15.86-15.87-24.54-2.61-5.02-4.71-10.34-8.37-14.76-2.18-2.64-4.57-5.01-8.49-3.31-9.53.81-18.94-5.49-21.21-14.18Z" style="fill: #b1ccbe; stroke-width: 0px;"/>
  <path d="M724.11,546.49c-.28,18.75-3.14,37.19-7.01,55.47-10.17,47.93-30.69,91.16-60.5,129.89-20.23,26.29-44.13,48.91-71.6,67.65-2.86,1.95-5.26,4.69-8.8,5.6-2.73,0-5.46.48-8.19.15-4.52-.55-5.65-2.75-3.47-6.85,1.21-2.28,3.08-4.04,4.93-5.77,13.93-13.11,28.97-24.99,42.49-38.55,1.51-1.52,3.32-2.73,4.29-4.73,9.17-8.2,18.44-16.29,26.65-25.48,17.38-19.47,33.45-39.84,43.65-64.19,2.96-7.08,4.48-14.57,6.18-22.01.69-2.12.48-4.29.38-6.45-.05-6.8-.08-13.6-.04-20.39.32-4.08.03-8.18.26-12.27.1-1.84-.2-4.58,2.17-4.68,2.01-.08,1.82,2.59,2.09,4.23.71,4.2.95,8.48,2.23,13.14,2.21-1.67,2.16-3.89,2.63-5.74,3.95-15.72,6.21-31.74,8.39-47.77.45-3.29.88-6.58,1.77-9.77,1.62-5.81,3.44-6.43,8.36-3.07.97.67,2.09,1.04,3.12,1.59Z" style="fill: #bbc4da; stroke-width: 0px;"/>
  <path d="M661.95,828.55c-8.39,10.46-19.38,18.04-29.62,26.42-20.82,17.04-43.72,30.84-68.24,41.83-28.42,12.73-58.12,21.29-88.73,27.09-32.27,6.12-64.83,6.64-97.39,5.53-28.24-.97-56.09-5.73-83.32-13.57-29.74-8.56-58.57-19.49-85.87-34.19-21-11.31-40.56-24.77-59.36-39.48-17.32-13.55-32.45-29.33-48.12-44.6-2.7-2.63-3.55-7.28-8.22-7.82-11.66-13.77-22.29-28.33-32.7-43.05-.65-.91-.78-3.06-2.75-1.33-11.97-17.67-21.72-36.55-29.73-56.28C7.96,640-2.25,589.09.42,535.9c1.19-4.69-.39-9.56.89-14.24.09-1.91.18-3.82.27-5.74,1.09-2.31-.22-4.92.88-7.23.59-13.27,3.17-26.18,6.9-38.89,3.79,6.27.08,12.49-.28,18.7-.55,9.49-2.82,18.79-3.09,28.38-.28,9.74-.89,19.47-1.14,29.22-.82,31.92,5.68,62.71,13.65,93.31,7.23,27.73,17.88,54.12,31.46,79.32,13.63,25.31,29.85,48.85,48.2,71.04,16.15,19.52,34.25,36.91,54.08,52.48,16.42,12.89,33.87,24.35,52.21,34.42,34.78,19.09,71.55,32.87,110.22,41.57,14.99,3.37,30.15,5.56,45.5,6.94,16.75,1.5,33.46,2.28,50.25,2.12,38.96.78,76.68-6.22,113.78-17.65,32.7-10.08,63.29-24.36,91.2-44.23,14.61-10.4,28.75-21.4,41.76-33.79,1.39-1.33,2.54-3.07,4.79-3.05Z" style="fill: #72be57; stroke-width: 0px;"/>
  <path d="M509.09,837.77c.97-4.59.1-8.77-2.27-12.86-2.38-4.11-2.82-8.89-3.48-13.48-1.02-7.15-4.6-11.53-11.67-13.65-7.59-2.28-14.95-5.31-22.41-8.01,1.78-2.08,4.39-2.55,6.79-3.2,21.32-5.8,39.65-17.26,57.48-29.8,18.04-12.69,32.91-28.74,48.1-44.48,2.58-2.67,5.11-5.42,8.09-7.66,7.23-5.43,11.68-3.81,13.82,4.98-.53,6,2.3,11.88.66,17.91-.93,1.76-2,1.75-2.91.05-1.02-1.89-1.16-4.12-2.18-6.04-2.33-4.38-4.37-4.78-8.16-1.46-6.2,5.45-10.74,12.36-16.13,18.53-8.73,9.99-17.84,19.62-26.91,29.3-9.69,10.34-17.69,21.84-21.06,35.97-2.26,9.45-.47,13.04,8.37,17.16,1.79.83,4.42.9,4.42,3.86-9.57,5.74-19.89,9.72-30.54,12.88Z" style="fill: #4463bf; stroke-width: 0px;"/>
  <path d="M275.22,889.78c-1.49,1.63-3.12.99-4.84.39-33.19-11.61-64.39-27.13-92.96-47.71-14.23-10.25-27.78-21.32-40.85-33.09-27.24-24.54-49.09-53.3-67.62-84.65-20.93-35.41-35.5-73.34-42.87-113.92-3.27-18.02-4.87-36.16-6.23-54.43-1.18-15.89-.41-31.58.46-47.32,1.81-32.74,9.99-64.11,21.18-94.83,3.8-10.42,9.34-20.19,11.59-31.17,1.99-4.82,1.98-10.63,6.93-13.99.04,7.89-3.65,14.74-6.39,21.77-10.73,27.55-20.53,55.33-25.2,84.68-5.29,33.27-5.57,66.64-1.92,100.05,4.92,45.1,16.37,88.38,37.56,128.73,43.8,83.39,108.84,143.62,196.23,179.36,4.97,2.03,9.95,4.07,14.92,6.11Z" style="fill: #54a550; stroke-width: 0px;"/>
  <path d="M238.85,282c-1.22-1.9-1.57-4.32-3.53-5.76-1.02.35-1.99.12-2.76-.5-6.16-4.92-12.77-4.22-19.38-1.34-13.9,6.06-26.84,13.58-36.81,25.37-2.5-3.79.08-6.74,1.97-9.44,7.19-10.3,17.57-17.09,27.64-24.11,19.69-13.74,39.37-27.59,61.31-37.59,18.91-8.62,38.72-14.18,59.71-14.64-3.42,4.88-9.85,6.37-12.98,11.57-8.33,5.23-14.78,12.69-22.3,18.88-2.22-.96-4.42-1.25-6.78-.33-11.98,4.68-23.97,9.29-34.64,16.72-5.32,3.71-8.87,7.96-7.98,15.01.31,2.45.49,5.69-3.46,6.16Z" style="fill: #afd7c5; stroke-width: 0px;"/>
  <path d="M617.28,749.81c-.11,3.37-3.34,3.95-5.12,5.85-13.47,14.31-29.42,25.9-43.35,39.7-.55.55-1.14,1.07-1.63,1.67-1.35,1.64-3.2,3.41-2.26,5.61.95,2.24,3.45.95,5.27,1.22,2.04.31,4.34-.73,6.03,1.24-6.52,4.17-12.69,8.94-20.03,11.72-2.92.09-5.82.49-8.74-.14-8.69-1.89-11.4-6.76-8.11-14.98,2.12-5.29,5.27-10.02,8.78-14.47,4.83-6.12,9.88-12.12,15.31-17.68,9.13-9.35,17.47-19.43,26.95-28.45,7.82-7.45,9.1-7.68,17.71-1.15.9.6,1.76,1.28,2.57,2,1.47,1.39,2.88,2.85,4.01,4.55.82,1.15,1.79,2.18,2.62,3.32Z" style="fill: #94a3cf; stroke-width: 0px;"/>
  <path d="M607.99,741.46c-.66-.39-1.38-.71-1.98-1.19-6.55-5.28-7.5-5.35-13.1.44-16.8,17.36-34.07,34.3-48.23,54.02-.57.79-1.11,1.6-1.59,2.45-7.25,12.88-4.81,17.4,9.95,18.43,1.19.08,2.35.11,3.14,1.2-5.25,3.24-10.36,6.75-16.54,8.08-1.58-2.01-4.12-2.07-6.22-3.01-8.01-3.56-10.15-8.3-8.43-16.88,2.65-13.28,9.46-24.67,18.29-34.13,15.29-16.38,30.08-33.18,44.88-49.98,2.05-2.32,3.97-6.25,7.94-4.84,4.08,1.45,5.07,5.6,5.85,9.48.23,1.14.11,2.36,1.22,3.13,2.93,3.77,4.91,7.9,4.83,12.8Z" style="fill: #6e87c9; stroke-width: 0px;"/>
  <path d="M724.11,546.49c-1.64,2.02-3.16,2.93-4.68-.19-.55-1.13-.78-2.99-2.53-2.81-1.97.2-2.12,2.15-2.37,3.61-1.52,8.98-3.09,17.96-4.36,26.97-1.78,12.71-4.4,25.24-7.53,37.68-.31,1.22-.72,2.7-2.68,3.35-4.11-6.2-2.98-13.64-5.13-20.41v15.14c-2.79-.21-2.68-2.52-2.75-4.29-.56-13.93-1.43-27.83-3.54-41.63-.23-1.53,0-3.1.46-4.59,2.99-3.96,4.44-8.5,5.23-13.38,1.49-9.21,3.46-18.35,5.07-27.54.13-.77.19-1.55.44-2.29,1.04-3.09,1.41-6.98,5.28-7.71,3.42-.64,5.58,2.17,7.66,4.51,3.73,4.19,6.58,9.21,11.44,12.36,0,0,.41.21.41.21-.14,7-.28,14-.43,21Z" style="fill: #a5bad9; stroke-width: 0px;"/>
  <path d="M460.97,24.62c-2.28,1.55-7.15-.51-6.91,4.4.23,4.68,2.06,8.81,6.88,10.67,12.22,4.72,15.26,10.08,12.25,22.77-3.32,14-.88,27.92.04,41.89.82,12.56,5.28,24.3,7.85,36.46-10.55-15.75-17.71-32.88-21.2-51.54-3.23-17.23-3.59-34.89-8.15-51.91-1.25-4.66.66-9.27,1.04-13.91,3.16-2.57,5.98-2.79,8.21,1.18Z" style="fill: #b2d7a7; stroke-width: 0px;"/>
  <path d="M460.97,24.62c-2.56-1.65-5.32-1.85-8.21-1.18.94-3.02,2.26-5.8,5.32-7.23,13.01-6.08,25.54-13.36,40.07-15.63,2.53-.39,4.99-.77,7.53-.47-6.26,3.83-12.57,7.59-17.36,13.36-4.93,5.95-4.66,12.37-2.22,19.21.71,1.99,3.06,4.58.58,6.32-2.44,1.71-4.95-.75-6.69-2.2-5.85-4.87-11.78-9.49-19-12.17Z" style="fill: #b8d6b0; stroke-width: 0px;"/>
  <path d="M590.28,242.06c-4.09,2.98-6.85-.62-9.75-2.26-6.49-3.68-12.45-8.3-19.65-10.66-20.46-11.8-40.92-23.58-61.35-35.44-1.14-.66-3.09-1.15-2.17-3.32,14.47,4.57,28.61,9.85,41.48,18.11,2.1,1.35,4.54,2.17,6.82,3.24,9.36,6.18,18.76,12.28,28.05,18.55,5.62,3.79,11.05,7.84,16.57,11.78Z" style="fill: #6dab5d; stroke-width: 0px;"/>
  <path d="M176.36,299.77c-.19-1.89.56-3.36,1.92-4.65,11.17-10.53,23.9-18.52,38.45-23.52,7.18-2.47,13.33-.68,18.59,4.64-1.49,2.9-4.24,2.04-6.67,2.3-9.88,1.04-19.27,3.57-27.55,9.35-6.42,2.72-12.14,6.64-17.82,10.61-1.74,1.21-3.31,2.71-5.66,2.53-.42-.42-.84-.84-1.26-1.25Z" style="fill: #17b392; stroke-width: 0px;"/>
  <path d="M740.7,338.4c-1.27-2.84-5.26-4.06-4.72-7.97,11.27,10.62,21.49,22.05,27.9,36.38,2.93,6.55,6.96,12.62,8.56,19.75-5.37-7.44-8.08-16.28-12.68-24.15-5.22-8.93-10.74-17.57-19.06-24.01Z" style="fill: #7ac064; stroke-width: 0px;"/>
  <path d="M777.2,511.25c2.42,6.62.68,13.44.99,20.16-1.48-6.66-.71-13.44-.99-20.16Z" style="fill: #7ac064; stroke-width: 0px;"/>
  <path d="M778.18,545.04c-.22,6.35,1.34,12.78-.98,19.02.25-6.34-.43-12.74.98-19.02Z" style="fill: #7ac064; stroke-width: 0px;"/>
  <path d="M392.39,856.93c6.14,0,12.27,0,18.41,0-6.14,1.3-12.27,1.17-18.41,0Z" style="fill: #1146ba; stroke-width: 0px;"/>
  <path d="M1.31,521.65c-.05,4.76,1.12,9.6-.89,14.24-.05-4.77-.77-9.58.89-14.24Z" style="fill: #93cc81; stroke-width: 0px;"/>
  <path d="M774.81,485.38c2.27,2.96.8,6.33,1.06,9.52-1.42-3.05-1.07-6.3-1.06-9.52Z" style="fill: #7ac064; stroke-width: 0px;"/>
  <path d="M776.13,499.52c1.95,2.6.76,5.54.91,8.34-1.32-2.67-.86-5.53-.91-8.34Z" style="fill: #7ac064; stroke-width: 0px;"/>
  <path d="M2.46,508.69c.09,2.46.91,5-.88,7.23-.17-2.47-.55-4.96.88-7.23Z" style="fill: #93cc81; stroke-width: 0px;"/>
  <path d="M775.81,579.08c-.09,2.48,1.09,5.13-1,7.33,0-2.49-.33-5.03,1-7.33Z" style="fill: #7ac064; stroke-width: 0px;"/>
  <path d="M777.02,567.41c-.09,2.43.97,5-.91,7.21-.06-2.45-.29-4.92.91-7.21Z" style="fill: #7ac064; stroke-width: 0px;"/>
  <path d="M355.04,853.34c2.41.12,4.99-.97,7.14.98-2.44.1-4.87.12-7.14-.98Z" style="fill: #1146ba; stroke-width: 0px;"/>
  <path d="M439.85,854.33c2.17-1.99,4.77-.88,7.2-.99-2.28,1.18-4.75,1.03-7.2.99Z" style="fill: #1146ba; stroke-width: 0px;"/>
  <path d="M377.13,855.76c2.48,0,5.07-.98,7.36.81-2.5.13-5,.33-7.36-.81Z" style="fill: #1146ba; stroke-width: 0px;"/>
  <path d="M418.73,856.54c2.23-1.73,4.77-.77,7.2-.84-2.3,1.15-4.75,1-7.2.84Z" style="fill: #1146ba; stroke-width: 0px;"/>
  <path d="M774.64,588.48c-.01,2.1.93,4.35-.98,6.15-.05-2.11-.2-4.24.98-6.15Z" style="fill: #7ac064; stroke-width: 0px;"/>
  <path d="M773.77,477.19c1.76,1.81.88,4,.88,6.06-1.2-1.89-.9-4-.88-6.06Z" style="fill: #7ac064; stroke-width: 0px;"/>
  <path d="M365.39,854.58c2.1-.05,4.3-.85,6.18.8-2.11.16-4.21.18-6.18-.8Z" style="fill: #1146ba; stroke-width: 0px;"/>
  <path d="M430.46,855.4c1.88-1.68,4.1-.88,6.22-.83-1.97,1.02-4.09.96-6.22.83Z" style="fill: #1146ba; stroke-width: 0px;"/>
  <path d="M602.07,239.38c12.87,5.9,26.38,10.04,39.71,14.7,7.76,2.71,15.32,5.88,22.66,9.58,20.3,10.22,31.98,27.52,39.6,48.15.17.47.02,1.06.02,2.44-24.07-10.29-46.28-22.61-66.62-38.25-1.88-.75-3.16-2.37-4.85-3.4-.44-.39-.89-.77-1.33-1.16-1.48-1.23-3.01-2.39-4.49-3.61,0,0-.01-.03-.01-.03-9.59-9.19-20.65-16.52-31.1-24.61-6.46-4.99-13.27-9.53-19.79-14.59,8.99,2.96,17.06,8.2,26.2,10.78Z" style="fill: #fefefe; stroke-width: 0px;"/>
  <path d="M636.1,114.96c-.49-3.16.11-6.61,3.72-8.54,3.46-1.86,6.29.07,9.13,2.02,12.56,8.61,18.7,21.75,24.58,34.98,7.23,16.28,11.83,33.39,15.01,50.89.28,1.53.56,3.12.4,4.64-.26,2.53,1.5,6.22-1.97,7.18-2.62.72-4.36-2.38-5.63-4.39-10.12-15.97-20.04-32.06-30.08-48.08-6.03-9.61-11.54-19.43-14.32-30.58-.63-2.53-.81-4.98-.83-8.11Z" style="fill: #b4d8aa; stroke-width: 0px;"/>
  <path d="M602.14,182.16c8.2,1.54,14.92,6.64,21.58,11.74,16.47,12.62,28.24,28.98,37.26,47.47.64,1.31,2.34,2.77,1.1,4.19-1.39,1.58-3.05-.07-4.1-.89-13.59-10.5-30.31-15.34-44.53-24.62-10.71-6.99-19.88-15.4-19.62-29.74.1-5.4,3.15-8.33,8.32-8.16Z" style="fill: #b4d9a8; stroke-width: 0px;"/>
  <path d="M490.46,352.74c4.88-2.23,9.97-3.82,15.19-5,2.05-.66,4.16-.97,6.3-.7,11.26,1.4,22.25-.43,33.09-3.11,7-1.73,13.27-.99,19.8,2.27,13.5,6.74,23.25,17.65,33.27,28.35,29.66,31.66,48.51,70.29,69.23,107.7,8.99,16.23,10.4,33.01,1.72,49.93-1.75,3.42-.88,8.61-6.22,9.78-17.14-1.11-33.35-6.05-49.34-11.91-15.68-5.74-31.23-11.96-48.2-12.99-2.28-.14-4.65-.55-6.68-1.85,1.12-9.06-1.44-17.63-3.78-26.18-5.33-19.46-14.15-37.22-26.61-53.12-12.37-15.78-28.3-22.61-48.42-19.47-23.96,3.74-47.89,7.46-70.98,15.22-6.78,2.28-13.18,4.96-17.01,11.59-.8,1.39-1.95,3.16-4.19,1.87-1.62-2.68-1.15-5.54-.76-8.4,1.11-3.17,1.17-6.54,1.54-9.8.81-7.08,4.85-11.08,11.03-13.85,9.66-4.33,19.78-7.31,29.79-10.59,17.46-5.72,34.49-12.51,51.16-20.24,4.47-2.07,8.45-4.88,11.81-8.52,5.51-5.97,5.64-10.83.48-17.13-.95-1.16-2.52-1.98-2.21-3.87Z" style="fill: #25a6dd; stroke-width: 0px;"/>
  <path d="M219.88,363.33c3.94-10.77,7.86-21.55,11.83-32.32.26-.71.77-1.32,1.17-1.98,3.41-1.28,2.76-6.07,7.34-7.72-2.25,13.49-6.44,25.86-9.41,38.52-3,12.79-10.35,23.81-13.66,36.48,5.04-7.12,10.03-14.27,15.12-21.35,7.6-10.57,18.19-17.67,29.34-23.66,23.42-12.58,45.12-27.96,68.24-40.99,5.92-3.34,12.03-6.33,18.52-8.85-20.27,18.8-43.05,34.59-62.84,54,44.07-34.23,88.6-67.56,143.55-82.63-4.54,3.78-10.45,4.35-15.74,6.28-20.58,7.5-39.28,18.1-56.26,31.87-.89.73-2.46,1.4-2.55,2.22-1.16,10.28-11.05,13.05-16.77,19.29-4.79,5.22-10.74,9.38-15.65,14.71-8.73,9.47-18.76,17.62-28.24,26.34-7.04,6.47-13.27,13.81-16.98,22.86-2.32,5.64-1.39,7.74,4.34,9.63,16.85,5.54,33.44,3.08,50.04-1.48,20.54-5.64,40.61-12.65,60.52-20.16,2.19-.82,4.42-1.61,6.85-1.32.02,3.02-2.67,3-4.46,3.67-17.83,6.71-35.55,13.71-53.45,20.25-6.02,2.6-12.43,4.13-18.46,6.71-14.68,5.66-29.88,9.66-44.97,14-2.87.63-5.9.29-8.7,1.39-16.03,2.51-32.11,4.49-48.39,3.86-14.01.15-15.74-1.72-14.55-15.66,3.69-18.27,9.45-35.99,14.23-53.97Z" style="fill: #87ce6a; stroke-width: 0px;"/>
  <path d="M663.24,540.63c4.08-5.43,5.7-11.97,7.98-18.18,4.78-13.02,1.79-25.47-4.13-37.2-14.84-29.42-31.12-58.1-49.87-85.15-11.72-16.91-25.55-32.47-41.87-45.38-9.93-7.86-20.2-12.93-33.89-8.45-11.44,3.74-23.75,3.84-35.8,1.48,6.68-3.69,14.55-4.29,21.16-8.15,5.68-3.86,12.04-5.85,18.75-6.9,14.96-4.91,29.38-11.13,43.66-17.72,5.4-1.61,10.8-3.23,16.2-4.84,3.31,3.49,6.58,7.03,9.96,10.47,3.25,3.31,7.47,2.52,11.49,2.54,1.08.61,1.62,1.45,1.09,2.71-2.38,2.2-4.78,4.38-5.16,7.89-.85,19.24,1.6,38.13,6.84,56.57,2.83,9.96,10.34,15.75,20.34,18.25,15.11,2.93,25.56,11.66,32.09,25.48,8.32,17.62,16.17,35.44,23.29,53.58.77,1.98,1.82,3.98.25,6.07-3.3-.06-3.89-2.95-4.87-5.08-5.62-12.27-11.84-24.23-18.14-36.15-2.63-4.98-5.96-9.41-9.84-13.57-.36,4.46,1.16,8.45,2.48,12.39,3.47,10.39,6.19,21.01,9.99,31.29,7.33,19.84,4.17,38.83-4.31,57.45-.98,2.15-2.13,4.21-4.6,5.06-1.91.53-3.72,0-5.53-.54-2.41-1.49-6.44.11-7.54-3.9Z" style="fill: #6ba9d4; stroke-width: 0px;"/>
  <path d="M403.08,317.46c10.53-1.13,20.06,1.86,29.71,4.3,5.22,1.32,7.74,4.98,8.02,9.62.51,8.52.45,17.1.05,25.63-.24,5.07-5.01,6.65-8.79,8.42-14.93,6.99-30.94,10.7-46.77,14.86-22.47,5.89-45.33,9.26-68.57,9.86-.78.02-1.58.1-2.35-.02-4.56-.68-10.01-.38-11.46-6.14-1.36-5.42,3.14-8.02,6.82-10.42,16.04-10.49,31-22.21,44.6-35.83,13.39-13.41,29.15-22.31,48.75-20.27Z" style="fill: #a6d696; stroke-width: 0px;"/>
  <path d="M244.79,332.39c1.5-5.25,1.88-11.91,5.29-17.48,9.68-15.78,19.45-31.44,32.03-45.29,13.36-14.72,30.35-21.2,48.98-25.32,9.33-2.07,18.77-3.44,28.2-4.24,6.84-.58,14.06-.05,20.65,2.71,5.94,2.49,7.07,5.59,4,11.02-2.69,4.76-5.2,9.56-7.39,14.6-2.57,5.9-8.53,8.46-13.69,11.46-19.97,11.61-41.02,21.03-62.28,29.96-16.75,7.04-33.65,13.68-48.15,25.02-.91.71-1.95,1.33-3.01,1.78-3.21,1.38-4.91.43-4.62-4.21Z" style="fill: #a6d696; stroke-width: 0px;"/>
  <path d="M473.7,304.41c-9.22.07-18.36-1.95-27.53-3.61-13.32-2.42-26.74-2.52-40.2-2.33-2.93.04-5.88.12-8.8-.03-1.81-.1-4.39,1.04-5.17-1.4-.71-2.21,1.57-3.2,3.08-4.44,6.61-5.43,14.4-8.68,22.28-11.47,20.24-7.19,40.89-12.81,62.57-13.17,14.96-.25,29.93-.1,44.9.06,1.7.02,4.48-.87,3.94,3.41-.32,2.52,3.93,2.58,6.2,3.28,11.16,3.46,22.49,6.4,33.35,10.79,1.39.56,3.68.64,3.51,2.41-.18,1.94-2.42,2.09-4.16,2.35-18.99,2.86-38.14,4.6-57.03,8.22-8.96,1.72-17.97,3.23-26.87,5.23-3.34.75-6.6.4-10.07.72Z" style="fill: #a6d696; stroke-width: 0px;"/>
  <path d="M340.23,405.54c19.47-7.49,38.95-14.97,58.42-22.46,0,0,.03-.01.03-.01,1.97-.88,4.07-1.4,6.04-2.26,10.91-3.92,21.81-7.84,32.72-11.76,10.69-4.42,21.69-7.9,32.93-10.62,6.7-1.89,13.4-3.78,20.1-5.67,8.87,5.84,10.44,15.55,1.82,23.34-8.26,7.46-18.51,10.8-28.25,15.05-17.51,7.64-35.72,13.48-53.92,19.28-4.07,1.3-7.97,3.16-11.94,4.78-7.14,2.91-8.16,9.28-8.89,15.8-.19,1.7.44,3.56-1.01,5.01-1.32-.85-1.52-2.24-1.59-3.59-.37-6.8-3.73-11.76-9.33-15.37-9.46-6.94-20.73-7.35-31.71-8.84-2.01-.27-4.85.74-5.41-2.65Z" style="fill: #178ac8; stroke-width: 0px;"/>
  <path d="M505.77,259.68c-18.94-.62-40.23,1.21-61.29,5.64-1.27.27-3.13.43-3.95-.26-3.98-3.38-8.5-4.55-13.57-4.25-1.45.09-2.75-.52-3.24-2.01-.7-2.11,1.08-2.61,2.37-3.42,9.12-5.7,19.63-6.71,29.79-7.21,25.96-1.27,51.73,1.11,77.16,6.7,1.84.41,4.8.29,4.63,2.46-.19,2.43-3.13,2.34-5.26,2.34-8.02.02-16.05,0-26.63,0Z" style="fill: #a6d696; stroke-width: 0px;"/>
  <path d="M238.85,282c2.3-2.04,2.6-4.6,2.04-7.46-.93-4.81.77-8.63,4.51-11.71,12.39-10.25,27.19-15.64,41.99-21.07,2.85-1.05,4.03-.07,4.31,2.69-8.76,9.66-17.92,18.96-25.85,29.34-1.08,1.64-2.51,3.02-3.5,4.72h0c-1.12,1.6-2.52,3.01-3.53,4.7h0c-3.02,3.71-5.34,7.93-8.22,11.74v.02c-.77.84-1.2,2.03-2.44,2.38-5.37-3.74-7.23-9.61-9.31-15.35Z" style="fill: #8dd0b4; stroke-width: 0px;"/>
  <path d="M545.56,332.69c-5.89,3.27-12.28,5.2-18.75,6.9-5.37-.5-10.43.74-15.43,2.53-10.45,3.74-21.02,7.14-31.78,9.89-2.31.59-4.9,1.37-6.31-1.19-1.55-2.81,1.17-4.33,2.83-5.7,8.2-6.78,17.99-9.68,28.3-11.45,6.98-1.2,13.96-1.06,20.96-1.13,3.83-.03,7.18-1.66,10.47-3.37,7.28-3.79,14.63-7.36,22.76-9.01,1.51-.31,3.27-1.23,4.15.6.97,2.05-.85,3.2-2.24,4.22-4.58,3.34-10.67,3.77-14.96,7.7Z" style="fill: #a6d696; stroke-width: 0px;"/>
  <path d="M514.45,209.35c-9.18-2.18-17.92-5.22-24.42-12.53,9.56,1.47,16.86,7.24,24.42,12.53Z" style="fill: #a6d696; stroke-width: 0px;"/>
  <path d="M470.36,358.41c-10.8,4.1-21.7,7.87-32.93,10.62,10.16-6.05,21.18-9.46,32.93-10.62Z" style="fill: #87ce6a; stroke-width: 0px;"/>
  <path d="M250.6,294.95c1.93-4.48,4.2-8.73,8.22-11.75-2.04,4.41-4.16,8.76-8.22,11.75Z" style="fill: #a6d696; stroke-width: 0px;"/>
  <path d="M404.71,380.8c-1.73,1.51-3.74,2.29-6.04,2.26,1.6-1.86,3.68-2.45,6.04-2.26Z" style="fill: #87ce6a; stroke-width: 0px;"/>
  <path d="M258.83,283.21c.09-2.39,1.63-3.68,3.53-4.7-.13,2.35-1.66,3.66-3.53,4.7Z" style="fill: #a6d696; stroke-width: 0px;"/>
  <path d="M248.16,297.34c.81-.79,1.62-1.59,2.43-2.38-.38,2.14-.8,4.25-3.46,4.71.34-.78.69-1.55,1.03-2.33Z" style="fill: #a6d696; stroke-width: 0px;"/>
  <path d="M262.36,278.51c.06-2.39,1.65-3.66,3.5-4.72-.07,2.39-1.64,3.66-3.5,4.72Z" style="fill: #a6d696; stroke-width: 0px;"/>
  <path d="M98.97,633.44c-6.47-28.57-15.63-56.71-14.11-86.58.07-1.37-.1-2.76.08-4.11,1.52-11.48,9.91-14.95,19.24-8.09,12.91,9.5,20.78,23.09,29.24,36.15,14.27,22.04,25.61,45.69,36.96,69.29,13.56,28.21,34.61,48.59,62.05,63.13,14.02,7.43,28.12,14.73,43.37,18.93,14.2,3.91,28.73,6.77,43.36,8.9,5.76.84,11.44,2.3,17.12,3.64,12.26,2.9,16.11,12.29,17.73,23.33-14.78-2.95-29.97-3.22-44.55-7.87-13.59-4.33-26.5-9.96-39.23-16.28-8.33-4.13-17.29-6.98-25.64-11.07-17.77-8.68-35.78-16.95-51.88-28.73-2.84-2.08-7.26-1.9-10.3-3.82-9.35-5.91-19.99-9.08-29.78-14.05-8.58-4.35-15.71-9.86-23.04-15.63-7.85-6.18-16.09-11.89-24.2-17.73-3.31-2.38-5.05-5.75-6.41-9.42Z" style="fill: #0eb278; stroke-width: 0px;"/>
  <path d="M688.98,800.35c-3.05,6.61-9.06,10.5-14.1,15.27,3.12-6.55,9.02-10.54,14.1-15.27Z" style="fill: #72be57; stroke-width: 0px;"/>
  <path d="M631.33,307.68c-5.05,0-10.09.01-15.14.01,5.05-1.64,10.09-1.59,15.14-.01Z" style="fill: #93d378; stroke-width: 0px;"/>
  <path d="M672.53,817.98c-.65,3.27-2.61,5.23-5.87,5.87,1.5-2.41,3.46-4.37,5.87-5.87Z" style="fill: #72be57; stroke-width: 0px;"/>
  <path d="M626.77,267.83c2.12.44,3.63,1.62,4.49,3.62-2.31-.19-3.65-1.59-4.49-3.62Z" style="fill: #93d378; stroke-width: 0px;"/>
  <path d="M632.6,272.6c2.37.06,3.57,1.78,4.85,3.4-2.55.2-3.8-1.46-4.85-3.4Z" style="fill: #93d378; stroke-width: 0px;"/>
  <path d="M602.02,708.72c-2.34-6.97-4.56-7.87-10.44-3.6-6.5,4.73-11.77,10.87-17.25,16.68-7.44,7.89-14.84,15.81-23.07,22.88-16.02,13.76-33.39,25.52-52.34,34.91-9.44,4.68-19.33,8.08-29.67,10.18-26.13-.96-52.33-1.33-77.59-9.41-1.64-.53-3.34-1.09-4.8-1.98-7.84-4.81-8.18-6.32-3.23-14.16,1.28-2.02,2.33-4.05,2.08-6.53,2.02-3.53,4.39-6.91,5.97-10.63,2.17-5.09,1.71-10.23-1.51-14.93-.76-.62-1.83-.87-2.49-1.52-10.06-10.13-23.52-12.82-36.48-16.21-31.4-8.23-63.07-15.41-94.36-24.06-15.82-4.37-31.51-9.35-45.28-18.8-2.25-2.78-4.63-5.4-8.27-6.41-1.04-.44-1.99-1.03-2.86-1.76-1.5-1.89-4.42-3.13-2.9-6.38,2.3.49,4.87,6.78,6.88-.78.66-2.49,4.99-3.07,8.17-2.63,1.69.23,3.34.68,5.01,1.03,2.73-.73,4.4,1.29,6.2,2.6,14.31,10.44,30.49,14.33,47.97,14.68,24.49.49,48.27-3.88,71.82-9.75,8.88-2.22,17.45-5.82,25.66-9.96,9.95-5.01,19.75-10.56,30.06-14.58,11.59-4.52,23.36-9.06,35.64-11.54,12.29-2.48,11.71-1.63,9.79-14.33-2.61-17.31.09-33.55,10.91-47.82,4.86-6.41,10.56-12.04,16.97-16.94,1.54-1.18,3.01-2.57,5.21-2.24,2.62,3.08-.99,4.09-1.96,5.99-11.51,11.44-19.67,24.71-22.23,41.01-1.57,10.1-.36,19.93,3.4,29.34,6.7,16.75,16.29,31.42,30.35,43.16,14.22,11.88,30.32,15.39,48.24,12.93,12.82-1.76,25.1-6.06,37.87-7.97,8.23-1.23,16.54-3.73,24.85-.19.91.43,1.69,1.03,2.39,1.75,5.06,5.39,6.63,11.65,5.48,18.96-.76,4.81-1.48,9.67-1.56,14.59-.03,1.77.18,4.15-2.67,4.42Z" style="fill: #277cd8; stroke-width: 0px;"/>
  <path d="M478.52,545.33c-18.51,11.8-31.31,27.38-32.78,50.23-.51,8,.06,15.95,2.03,23.81,1.05,4.18-.81,6.64-5.42,7.07-7.99.74-15.39,3.88-23.07,5.91-24.2,6.39-44.79,21.01-68.22,29.13-11.67,4.05-23.79,5.81-35.76,8.35-16.52,3.5-33.29,4.16-50.07,3.48-17.9-.73-33.75-7.34-47.61-18.7-10.77-13.23-19.65-27.58-25.85-43.53-2.09-12.18-5.59-24.09-6.98-36.41,3.16-.57,4.44,1.99,6.02,3.81,10.07,11.57,21.67,21.28,34.77,29.23,1.68,1.02,3.41,1.89,5.27,2.53,3.59,1.61,6.55,4.25,10.07,6.01,15.3,7.67,31.61,8.24,48.12,6.69,12.68-1.19,25.13-3.78,37.07-8.42,7.38-.16,14.21-2.23,20.76-5.6,16-8.23,32.18-16.35,49.33-21.63,14.21-4.38,27.23-12.07,42.05-14.56,2.54-.43,4.94-1.69,6.53-3.72,12.17-15.53,27.79-26.81,44.65-36.6,4.85-1.88,8.83-6.28,14.73-5.19,1.37,1.88-.1,3.04-1.33,3.73-7.63,4.24-14.51,9.66-22.07,14.01-.69.4-1.47.45-2.26.39Z" style="fill: #53a3e3; stroke-width: 0px;"/>
  <path d="M205.66,417.3q.77,13.34,14.28,14.25c.39.42.67.91.86,1.44,1.04,2.97,3.82,3.41,6.21,3.55,6.02.35,12.09.87,18.06-.74,1.91-.27,3.83-.34,5.75-.32,3.72.25,7.47-.26,11.18.43.68.21,1.27.56,1.8,1.04.88,1.8.76,3.33-1.21,4.34-12.52-1.03-24.97.8-37.46,1.08-3.78.09-6.99,1.41-9.16,4.46-10.25,14.44-19.86,29.22-21.93,47.43-.96,8.38-.95,16.8.07,25.19.33,2.72.94,5.44-.65,8-5.63.77-10.93-.08-15.72-3.32.4-6.05-.86-11.99-1.13-17.98-.91-20.16,6.26-38.07,16.14-55.11,1.84-3.18,4.03-6.16,6.12-9.18,4.21-6.07,7.05-12.49,5.92-20.15-.22-1.47-.4-3.15.87-4.42Z" style="fill: #51b9e9; stroke-width: 0px;"/>
  <path d="M177.73,524.14c5.11,1.06,10.47,1.05,15.25,3.53,3.22,1.52,3.03,4.82,3.71,7.53,4.21,16.66,8.44,33.28,16.59,48.61,3.86,7.26,7.92,14.33,13.21,20.66,1.56,1.87,3.63,3.69,2.91,6.64-11.79-5.39-21.22-13.93-30.81-22.41-4.97-4.4-8.28-10.28-13.81-14.02-3.75-16.65-5.69-33.55-7.06-50.53Z" style="fill: #52b4e7; stroke-width: 0px;"/>
  <path d="M211.75,670.03c16.57,10.72,35.29,15.85,54.04,21.03,33,9.11,66.63,15.77,99.33,25.96,9.44,2.94,18.9,6.48,25.07,15.12-3.71.76-5.81-1.7-7.91-4.03-4.17-4.64-9.2-6.36-15.55-6.68-20.04-1-39.73-4.64-59.34-8.89-25-5.42-49.64-11.87-73.49-21.31-28.77-11.39-50.07-29.88-62.5-58.91-9.2-21.48-18.97-42.82-31.39-62.79-4.43-7.12-7.53-15.01-10.57-22.85,9.38,9.83,17.08,20.91,24.1,32.49.99,1.64,1.95,3.3,2.92,4.96,7.41,13.52,14.44,27.24,20.3,41.52,5.24,12.76,12.38,24.32,21.43,34.71.91,1.05,2.02,1.84,3.26,2.45.67.43,1.35.85,2.02,1.28,2.91,1.78,5.76,3.62,8.28,5.94Z" style="fill: #5ac6a1; stroke-width: 0px;"/>
  <path d="M201.45,662.81c-5.8-2.23-8.42-7.72-11.99-12.09-9.75-11.91-14.33-26.59-20.79-40.27-4.13-8.75-9.01-17.14-12.21-26.33,4.14,3.52,5.83,8.64,8.36,13.16,8.98,16.02,14.75,33.63,24.32,49.36,2.31,3.8,4.54,7.78,8.43,10.34.23,2.65,2.8,3.74,3.88,5.82Z" style="fill: #14979c; stroke-width: 0px;"/>
  <path d="M119.06,534.7c-4.98-3.66-9.56-7.87-15.53-10.12-6.64-2.51-12.86-2.69-18.71,1.86,3.58-7.51,8.6-10.01,15.98-7.29,7.9,2.91,13.96,8.26,18.25,15.55Z" style="fill: #6cc9af; stroke-width: 0px;"/>
  <path d="M676.01,544.19c3.8-2.47,4.26-6.83,5.82-10.52,7.1-16.8,7.89-33.74,1.77-51.15-4.65-13.21-8.43-26.72-12.6-40.1-.23-.74-.68-1.48-.67-2.22,0-1.64-1.02-3.87.98-4.69,1.65-.68,2.84,1.22,3.59,2.42,2.89,4.61,6.53,8.69,9.01,13.61,6.15,12.18,12.73,24.13,18.27,36.62.85,1.91,1.44,4.09,3.32,5.41,3.3.23,3.58,3.14,4.51,5.29,3.24,7.48,6.11,15.14,11.12,21.71,1.08,1.18,2.14,2.38,3.16,3.61-.01.37-.06.74-.15,1.11-4.61,1.07-5.62-3.24-7.82-5.5-2.68-2.76-4.64-6.16-7.6-8.75-3.21-2.8-5.44-1.95-6.31,1.8-1.92,8.33-3.49,16.73-5.18,25.11-1.07,5.33-2.07,10.68-3.16,16-.45,2.18-1.12,4.26-3.97,4.25-3.57-.22-4.09-3.74-5.78-5.79-2.52-3.06-7.07-3.99-8.31-8.23Z" style="fill: #74a3d3; stroke-width: 0px;"/>
  <path d="M627.68,325.49c-.27-.79-.55-1.57-.82-2.36,1.56-1.25,2.74-1.99,5.03-.53,3.5,2.24,6.09,5.23,7.56,8.73,8.28,19.76,22.36,35.49,35.08,52.26,14.84,19.56,25.83,41.2,32.36,65.1,3.96,14.49,9.6,28.47,14.92,42.53,2.75,7.28,4.57,14.88,4.8,22.76.06,2.19.1,4.4-2.45,5.42-1.91.41-2.49-1.19-3.43-2.25-1.04-1.58-1.43-3.32-1.32-5.19,1.13-13.55-2.62-25.93-9.1-37.64-7.07-14.52-12.09-29.85-17.79-44.91-2.64-10.41-8.62-18.89-17.91-23.65-14.06-7.21-23.03-18.13-26.9-32.97-2.96-11.35-10.07-20.01-16.3-29.34-2.07-4.99-4.13-9.98-4.74-15.42.06-.95.46-1.78.99-2.55Z" style="fill: #7eb499; stroke-width: 0px;"/>
  <path d="M721.98,517.01c.73.8,1.46,1.6,2.19,2.4-.27,1.59,1.21,3.15.11,4.76-1.69.02-2.86-.78-3.61-2.27-.34-.43-.5-.91-.46-1.46.21-1.34.53-2.62,1.77-3.43Z" style="fill: #5d9b8c; stroke-width: 0px;"/>
  <path d="M676.01,544.19c5.96,3.4,10.65,8.08,14.09,14.02,1.27,16.55,3.97,33,3.7,49.67-.01.65.68,1.3,1.04,1.96,0,7.51,0,15.03,0,22.55-1.37,1.7.15,3.94-1.06,5.68-2.02,15.12-7.87,28.77-15.63,41.77-11.72,19.65-26.43,36.98-41.96,53.6-5.66,6.06-12.57,10.95-18.91,16.38-1.63-.04-2.82-.76-3.47-2.29.79-1.48-.51-2.8-.35-4.24-.09-2.55.06-5.05.97-7.5,6.18-16.69,11.27-33.71,15.72-50.93,4.12-15.93,12.38-29.89,20.63-43.86,14.65-24.8,24.03-51.61,30.21-79.62,1.78-8.07,1.19-9.05-6.01-13.05-2.03-1.13-5.23-1.62-3.52-5.29,1.52.38,3.03.76,4.55,1.14Z" style="fill: #8fb9a3; stroke-width: 0px;"/>
  <path d="M693.78,638.06c.15-1.93-.88-4.08,1.06-5.68-.24,1.92.77,4.06-1.06,5.68Z" style="fill: #a5bad9; stroke-width: 0px;"/>
  <path d="M602.02,708.72c.87-12.66,7.36-25.67-2.37-37.65,5.72-1.06,10.74,3.64,12.14,10.96,1.65,8.6.45,17.17-.18,25.7-.75,10.29-3.27,20.51-.47,30.86.41,1.5.31,3.14-1.07,4.32-.7-.48-1.39-.96-2.09-1.44-2.16-4.06-4.13-8.19-4.83-12.8-.38-6.65-.76-13.3-1.14-19.94Z" style="fill: #0d53b2; stroke-width: 0px;"/>
  <path d="M610.08,742.9c-4.44-16.53.56-32.87.85-49.3.13-7.15.88-15.05-6.05-20.43-1.61-1.25-3.08-2.4-5.22-2.1-.4-.4-.8-.8-1.2-1.2-.99-2.73-3.14-3.84-5.85-4.17-1.17-.14-2.38-.11-3.49-.45-2.49-.74-6.58-.08-6.78-3.23-.21-3.26,3.63-4.2,6.45-4.97,9.02-2.45,17.88-1.02,26.6,1.56,3.85,1.14,6.35,3.74,6.96,7.9.42,2.91,1.33,5.71,2.06,8.55,1.37,9.23-.12,18.3-1.67,27.33-1.92,11.15-4.85,22.08-7.76,33-.76,2.84-1.14,5.71-.09,8.59-.06,1.27.59,2.75-1.06,3.54-1.24-1.54-2.49-3.08-3.73-4.62Z" style="fill: #249e6d; stroke-width: 0px;"/>
  <path d="M623.08,674.55c-1.64-1.87-1.96-4.4-2.04-6.52-.25-6.1-4.11-7.72-9.06-8.77-9.18-1.94-18.28-3.37-27.19,1.05-.66.33-1.25.83-2.66,1.79,4.56,1.09,8.3,1.87,12.28,2.02,3.25.13,6.39,1.24,4.04,5.74-15.45-2.68-30.07,1.82-44.75,5.38-13.53,3.28-27.19,5.97-41.02,3.27-17.79-3.47-30.78-14.76-41.41-28.66-9.42-12.31-16.85-25.84-19.14-41.51-.83-5.71-1.55-11.56.52-17.25,3,3.33.89,7.53,1.78,10.84,2.14-11.33,3.7-23.18,11.87-32.68,1.67-1.94,3.34-3.87,5.65-5.05,4.16-2.12,6.34-.8,6.08,3.86-.25,4.5-.55,9.03-.13,13.49,1.64,17.33,7.33,32.91,21.55,43.97,10.22,7.94,19.69,5.42,25.5-6,2.33-4.58,3.85-9.39,4.76-14.43,4.11-22.69,6.88-45.64,13.25-67.91,2.28-7.95-.78-11.71-9.07-11.34-12.01.53-22.68,5.68-33.15,11.02-5.57,2.84-10.69,6.47-15.65,10.33-2.85,2.22-5.92,4.7-10.05,2.79,1.16-1.55,2.31-3.1,3.47-4.65,8.7-5.88,17.39-11.76,26.09-17.64,7.08-6.36,16.26-7.87,24.85-10.69,1.83-.6,3.79-.84,5.7-1.25,2.89-.25,5.64-1.39,8.57-1.43,4.93.75,9.98-2.93,14.83.4,19.31,1.11,37.58,6.28,55.16,14.12,12.6,6.46,26.23,9.56,39.98,12.24,7.08,1.38,14.12,2.83,20.62,6.15,4.34,2.21,5.06,5.47.95,7.92-18.05,10.78-25.57,29.1-33.39,46.88-6.68,15.18-11.29,31.22-15.2,47.39-1.57,6.48-2.59,13.02-2.22,19.73.11,1.93.37,3.95-1.39,5.42Z" style="fill: #29b684; stroke-width: 0px;"/>
  <path d="M623.08,674.55c.29-35.1,12.78-66.51,29.31-96.66,5.29-9.64,11.22-18.84,21.9-23.58,1.38-.61,2.91-1.77,2.47-3.58-.38-1.56-1.79-2.45-3.36-3-7.75-2.73-15.77-4.33-23.79-5.98-11.69-2.4-23.04-5.9-33.91-10.85-.75-.34-2.68-.12-1.98-2.07,14.18,4.53,28.3,9.29,43.2,11.02,2.11.24,4.21.52,6.32.79,2.45,1.81,5.62,1.12,8.22,2.41.88,5.13,6.56,3.96,9.31,7.03,2.13,2.38,3.26,3.66,2.65,7.24-3.98,23.45-12.38,45.46-21.81,67.06-4.12,9.43-9.67,18.29-15.17,27.03-9.29,14.78-14,31.21-18.64,47.78-3.31,11.83-7.14,23.52-11.18,35.12-1.13,3.24-1.64,6.37-1.74,9.68-2.68-6.22-.41-12.3.95-18.22,3.87-16.88,8.31-33.64,7.25-51.21Z" style="fill: #68ab8b; stroke-width: 0px;"/>
  <path d="M262.41,440.72c1.35-.83,1.15-2.27,1.38-3.54,1.11-2.43,2.93-4.34,4.7-6.26.98-1.06,1.68-2.01.66-3.39,2.54-1.92,5.48-.68,8.21-1.02.06,3.16,1.9,3.46,4.6,3.3,14.96-.86,29.85-2.57,44.74-4.13,12.97-1.36,25.87-3.3,38.74-5.43,2.68-.44,5.53-.65,6.71-3.78,1.99-2.98,4.29-.05,6.43-.33,7.77,4.41,9.91,11.56,9.67,19.86-.04,3.13-.09,6.26-.14,9.39,1.84,8.13-1.55,15.77-2.35,23.64-1.01,9.94-.99,19.81-.17,29.71.33,1.31.49,2.64.55,3.99-.09,2.3.14,4.57.84,6.78,1.26,8.85,2.52,17.7,3.5,26.6.32,2.95.14,5.8-.46,8.68-1.79,8.52-6.03,11.89-14.75,11.47-4.67-.23-9.2-1.45-13.79-2.22-8.17-1.32-15.84-4.55-23.93-6.18-13.63-4.06-27.91-5.48-41.29-10.76-8.07-3.19-15.31-7.66-22.81-11.79-14.1-10.99-21.07-25.97-23.12-43.24-1.38-11.63.83-22.99,5.83-33.69.83-1.51,1.76-2.96,2.74-4.38.93-1.35,1.87-2.68,3.5-3.28Z" style="fill: #21b883; stroke-width: 0px;"/>
  <path d="M384.51,499.57c-2.48-7.62-1.22-15.47-.99-23.16.31-10.46,2.37-20.79,4.62-31.03,10.45-17.22,29.19-17.76,45.72-22.14,18.19-4.83,36.86-7.99,55.64-9.19,12.41-.8,23.42,4.2,32.63,13.05,12.67,12.17,20.99,27.13,27.88,42.91,4.75,10.87,7.62,22.42,10.14,34.08.91,4.24-1.11,7.1-1.58,10.62-5.16-.35-10.12,1.9-15.3,1.17,6.1-7.76,2.75-15.65.43-23.59-3.94-13.45-9.67-25.98-18.08-37.26-10.22-13.7-23.42-21.44-40.67-23.85-22.8-3.19-44.68-.74-66.51,5.87-19.88,6.02-29.04,19.83-31.05,39.58-.59,5.83-1.5,11.63-1.27,17.52.08,1.92.13,3.96-1.59,5.42Z" style="fill: #4fb4e3; stroke-width: 0px;"/>
  <path d="M372.77,416.04c1.95,3.05,1.11,4.44-2.49,4.95-12.48,1.76-24.89,3.98-37.39,5.53-17.54,2.18-35.11,4.11-52.78,4.99-1.84.09-3.91,1.8-5.27-.47-1.55-2.6,2.1-2.77,2.53-4.53,7.66-3.39,15.95-4.74,23.87-7.28,7.06-2.26,14.08-4.61,21.12-6.92,12.86-3.44,25.85-3.85,38.89-1.32,4.13.8,8.61,1.26,11.51,5.06Z" style="fill: #158d52; stroke-width: 0px;"/>
  <path d="M269.16,427.54c.72.81,4.57-.68,2.25,1.98-2.32,2.66-3.64,6.59-7.61,7.66-.5-.01-1.01-.02-1.51-.03-3.89-.97-7.78-.98-11.67,0-1.98,0-3.97.01-5.95.02-6.52,1.03-13.05.77-19.49-.39-2.21-.4-5.87.06-5.26-4.24.04-.33.04-.66.02-.99,16.5-.16,32.86-2.03,49.22-4.02Z" style="fill: #2293cf; stroke-width: 0px;"/>
  <path d="M372.77,416.04c-14.52-5.34-29.43-5.92-44.59-3.7-1.89.28-3.87-.01-5.81-.04,5.95-2.25,11.9-4.51,17.86-6.76,7.37,1.13,14.76,2.12,22.09,3.45,5.95,1.08,11.56,3.15,16.28,7.15-1.98,1.85-3.87-.99-5.83-.09Z" style="fill: #61a181; stroke-width: 0px;"/>
  <path d="M720.77,520.46c-.03.48-.07.96-.1,1.44-5.82-6.22-8.29-14.25-11.7-21.76-1.03-2.27-1.67-4.73-3.48-6.58-2.11-9.63-6.88-18.23-10.63-27.21-4.52-10.81-9.52-21.43-14.4-32.08-6.03-13.16-16.12-21.29-30.36-24.17-9.34-2.85-14.81-9.61-18.33-18.27-7.52-18.46-10.01-37.83-10.34-57.58-.01-.61.22-1.13.52-1.63.05-3.87,2.1-6.13,5.72-7.13.02.81.04,1.63.06,2.44,0,16.31,4.58,31.8,8.46,47.41,1.65,6.62,3.75,13.12,6.85,19.21,2.81,5.51,6.59,10.08,13.02,11.58,3.38.47,6.6,1.45,9.62,3.05,11.45,5.86,18.05,15.54,22.4,27.36,9.78,26.57,21.18,52.51,31.51,78.87.64,1.64,1.47,3.2,1.17,5.04Z" style="fill: #137abb; stroke-width: 0px;"/>
  <path d="M621.96,332.62c.17,19.97,3.89,39.3,10.98,57.91,3.24,8.5,8.46,15.67,17.17,19.57-12.5-2.61-20.28-10.37-23.19-22.54-3.88-16.22-5.78-32.75-6.06-49.44-.03-1.86-.64-3.94,1.1-5.5Z" style="fill: #25a6dd; stroke-width: 0px;"/>
  <path d="M475.05,549.98c9.69-1.79,15.51-10.13,23.97-14.1,11.49-5.39,22.75-11.4,35.8-11.68,9.08-.19,12.26,3.88,9.81,12.51-6.81,23.98-9.46,48.76-14.29,73.12-1.04,5.28-3.47,9.99-6.15,14.5-5.01,8.44-16.21,9.58-25.06,3.26-8.61-6.16-13.71-14.8-17.8-24.14-4.96-11.34-5.89-23.35-4.96-35.56.08-1.1,1.26-2.34.1-3.25-1.3-1.01-2.72-.06-3.77.7-5.35,3.87-9.4,8.99-11.46,15.16-2.33,6.98-4.76,14.03-4.97,21.53-.06,2.11-.67,3.72-3.63,5.23,0-5.86,0-11.02,0-16.17,2-16.68,10.44-29.86,22.39-41.12Z" style="fill: #65c49f; stroke-width: 0px;"/>
  <path d="M211.75,670.03c-3.27-1.26-6.2-3.01-8.28-5.94,3.89.4,6.48,2.62,8.28,5.94Z" style="fill: #1ba5e3; stroke-width: 0px;"/>
  <path d="M384.51,499.57c-.15-10.54.74-20.94,2.7-31.34,3.25-17.28,13.86-27.13,30.01-32.4,16.43-5.36,33.23-8.84,50.44-7.87,14.85.84,30.19,1.4,43.14,10.35,14.48,10,23.39,24.45,29.89,40.34,3.22,7.88,5.48,16.19,7.56,24.54,1.54,6.16-.31,9.65-4.98,12.7-2.79.08-5.34,1.85-8.24,1.23,1.63-25.26-8.38-45.4-27.44-61.33-6.04-5.05-13.93-6.12-21.3-7.9-7.42-1.79-14.78-3.8-22.15-5.79-10.98-2.97-22.05-3.47-33.01-.12-16.57,5.07-27,16.53-31.17,32.97-3.29,12.97,1.86,23.78,11.86,32.34,10.24,8.78,22.7,10.93,35.57,11.71,4.49.27,9.01-.08,13.5.1,6.11.25,11.75,2.32,15.69,6.91,3.27,3.81,6.58,6.52,11.77,6.36.78-.02,1.44.55,2,1.12-3.76,2.41-7.46,4.92-11.29,7.2-12.58,7.48-23.22,17.12-32.17,28.66-2.01,2.58-4.84,4.5-7.83,4.88-9.63,1.25-18.03,5.83-26.91,9.08-8.91,3.25-17.86,6.41-26.74,9.75-13.87,5.22-27.09,11.89-40.36,18.42-5.67,2.79-11.6,4.6-18.02,4.32-.62-2.3,1.22-3.08,2.6-4.03,17.35-11.96,25.14-30.31,32.84-48.77,1.66-3.99-1.5-7.03-1.39-10.64,3.44.56,6.88,1.06,10.31,1.69,14.77,2.7,18.25-4.02,17.45-17.39-.56-9.25-2.05-18.44-3.12-27.66-1.22-1.84.24-4.16-1.05-5.99-.04-1.15-.08-2.29-.12-3.44Z" style="fill: #52b4e7; stroke-width: 0px;"/>
  <path d="M490.32,533.49c-6.18.81-10.8-.52-14.78-6.36-3.25-4.77-9.39-6.67-15.58-6.52-12.52.3-25.1.27-36.84-4.68-26.34-11.1-34.48-37.61-14.8-60.78,14.7-17.31,33.82-19.44,54.42-15.14,10.45,2.18,20.6,5.83,31.03,8.18,15.11,3.39,24.65,13.18,32.12,25.92,6.42,10.94,9.45,22.99,12.26,35.16.8,3.45-1.9,5.31-3.14,7.84-10.51,2.46-20.51,6.37-30.41,10.58-5.44.26-9.54,3.83-14.29,5.8Z" style="fill: #7fc0e8; stroke-width: 0px;"/>
  <path d="M361.04,552.36c3.96,3.67,4.26,7.9,2.3,12.75-6.16,15.26-13.73,29.72-24.9,41.94-3.19,3.49-7.6,5.87-11.46,8.76-13.96,5.73-28.64,8.44-43.56,9.3-19.37,1.11-38.01-1.65-54.02-14-11.02-13.75-19.86-28.71-25.68-45.41-3.96-11.37-6.76-23.06-9.6-34.74-.27-1.12-.76-2.19-1.15-3.29-.38-8.75-1.58-17.45-1.22-26.26.67-16.45,7.05-30.58,15.27-44.65,6.86-11.75,14.56-17.66,28.78-16.58,8.72.66,17.73-1.58,26.6.54-.77,1.22-1.55,2.45-2.32,3.67-12.18-5.16-31.46.02-38.69,10.91-6.91,10.41-13.94,20.82-16.28,33.52-3.45,18.79.74,36.56,7.25,53.95,3.07,8.21,6.57,16.24,10.92,23.97,4.82,8.57,11.29,15.47,18.38,21.89,6.59,5.97,14.66,8.84,23.57,9.16,13.21.47,26.17-.61,38.35-6.36,16.38-7.73,28.3-19.84,36.01-36.25,1.75-3.72-2.42-5.52-2.05-8.62,8.16.56,15.47,4.58,23.48,5.78Z" style="fill: #5db9e5; stroke-width: 0px;"/>
  <path d="M219.92,432.54c3.49,5.97,9.85,2.75,14.68,4.52,3.21,1.18,6.71-1.29,10.07.11-7.52,1.99-15.04,1.9-22.48-.29-1.83-.54-4.69-1.25-2.27-4.34Z" style="fill: #34bbe9; stroke-width: 0px;"/>
  <path d="M250.62,437.15c3.89-1.8,7.78-1.8,11.67,0-3.89,0-7.78,0-11.67,0Z" style="fill: #34bbe9; stroke-width: 0px;"/>
  <path d="M720.77,520.46c-10.04-21.19-18-43.25-27-64.88-3.07-7.39-5.9-14.89-8.64-22.41-3.71-10.18-10.9-17.3-19.74-23.05.57-.57,1.29-1.08,2.06-.87,5.37,1.47,10.8,2.95,16.01,4.69,5.02,1.67,6.44,7.9,9.13,12.35.5.83.36,1.92,1.1,2.64,5.89,14.89,11.78,29.79,17.67,44.68,4.12,12.69,7.03,25.68,9.33,38.82-.09,1.67.17,3.25,1.28,4.59-.23,1.21.23,2.66-1.21,3.45Z" style="fill: #1e895f; stroke-width: 0px;"/>
  <path d="M656.2,407.65c-6.71-.76-10.69-5.27-13.64-10.62-5.79-10.5-8.37-22.16-11.04-33.71-2.26-9.81-5.16-19.56-4.79-29.81.07-1.89-.57-3.94,1-5.58,1.61,5.07,3.21,10.15,4.82,15.22,3.95,9.03,9.04,17.46,13.69,26.08,5.44,10.08,10.72,21.34,9.66,33.8-.13,1.54.78,3.04.29,4.62Z" style="fill: #1c956a; stroke-width: 0px;"/>
  <path d="M656.2,407.65c-3.88-3.99-1.44-9.11-2.37-13.65-1.77-8.63-3.69-18.21-8.58-24.49-5.9-7.56-9.63-15.35-12.5-24.03-.24-.72-.14-1.55-.19-2.32,10.69,10.35,14.97,24.18,19.83,37.55,3.81,10.47,11.18,16.9,20.52,22.1,10.39,5.78,18.04,14.09,20.78,26.12-1.6-2.41-3.21-4.82-4.81-7.23-2.76-4.16-4.88-8.36-11.64-7.4-3.81.54-7.32-4.19-11.86-4.18-3.07-.83-6.13-1.65-9.2-2.48Z" style="fill: #4fa07b; stroke-width: 0px;"/>
  <path d="M720.7,512.42c-4.74-9.52-5.32-20.16-8.14-30.2-.78-2.76-.81-5.74-1.18-8.62,7.05,11.99,11.18,24.69,9.33,38.82Z" style="fill: #5d9b8c; stroke-width: 0px;"/>
  <path d="M337.56,546.58c5.93,3.75,4.4,7.82,1.6,13.14-7.35,13.99-17.99,24.67-31.82,31.61-17.01,8.53-35.13,10.8-53.86,5.79-5.06-1.35-9.21-4.13-13.07-7.39-16.12-13.58-24.58-31.8-31.17-51.25-3.9-11.51-6.43-23.14-6.93-35.33-.6-14.49,4.33-27.14,11.58-39.2,1.61-2.67,3.45-5.22,4.93-7.95,4.9-9.05,12.66-13.48,22.7-14.04,3.52-.19,6.95-.66,10.43-1.11,3.14-.41,6.9-.96,8.15,3.55-.76,1.14-1.52,2.28-2.28,3.41-9.74-1.38-16.01,3.15-21.33,11.05-4.61,6.85-9.03,13.55-11.97,21.39-8.01,21.34,1.72,41.36,22.04,51.01,10.09,4.79,20.47,5.87,31.59,3.72-.7-4.11-5.35-6.41-4.07-10.83,7.37,3.39,13.99,8.09,21.67,11.08,12.36,4.81,25.38,6.6,38.04,10,1.29.35,2.53.9,3.79,1.36Z" style="fill: #70b9e8; stroke-width: 0px;"/>
  <path d="M291.12,437.14c20.83.4,41.57,2.04,62.23,4.73,1.14.15,2.42.27,3.36.84,8.42,5.13,10.3,2.9,15.94-4.24,1.41-1.79,3.12-3.01,4.92-4.01,4.04-2.23,6.71-.56,7.03,4.08.4,5.9-.66,11.69-1.84,17.38-4.19,20.35-3.72,40.65-.01,60.98,1.46,8.03,2.76,16.08,4.02,24.14.26,1.66.73,4.12-1.47,4.47-2.09.34-1.72-2.03-2-3.48-.26-1.33-.66-2.64-1-3.96-.51-1.98-1.38-4-3.62-4.03-2.39-.03-2.12,2.31-2.5,3.97-1.16,5.03-4.97,6.65-9.51,7.23-3.75.48-7.42-.21-10.99-1.18-18.81-5.1-38.23-7.21-57.14-11.77-23.95-5.78-40.8-26.07-43.45-50.77-1.53-14.25,3.3-26.4,10.16-38.11,2.45-4.18,6.39-6.68,11.76-6.35,4.68.28,9.39.06,14.09.06Z" style="fill: #58caa2; stroke-width: 0px;"/>
  <path d="M274.07,524.15c1.57,3.15,3.16,6.22,5.72,8.8,2.09,2.1,1.68,3.7-1.68,4.13-20.46,2.65-38-2.9-50.8-19.45-7.99-10.34-8.8-22.48-5.33-35.01,3.1-11.21,9.81-20.29,16.69-29.29,5.14-6.72,13.51-9,19.15-5.52-7.55,18.25-8.77,36.48-.17,54.83,3.94,8.4,9.39,15.53,16.43,21.51Z" style="fill: #87c6eb; stroke-width: 0px;"/>
  <path d="M384.63,503.01c1.88,1.73.87,3.96,1.05,5.98-1.7-1.76-1-3.94-1.05-5.98Z" style="fill: #4fb4e3; stroke-width: 0px;"/>
  <path d="M343.43,479.06c-.15,10.71-.62,21.7-10.23,28.59-12.51,8.97-26.9,11.84-42.22,10.19-26.06-2.8-35.71-32.04-31.1-49.72,1.68-6.44,3.88-12.58,6.95-18.54,4.78-9.26,13.04-8.62,20.88-7.42,12.87,1.96,25.56,4.97,38.15,8.44,15.46,4.26,16.06,10.43,17.54,23.18.2,1.74.03,3.52.03,5.28Z" style="fill: #8ad2b6; stroke-width: 0px;"/>
</svg>