<?xml version="1.0" encoding="UTF-8"?>
<svg id="Layer_1" data-name="Layer 1" xmlns="http://www.w3.org/2000/svg" viewBox="0 0 979.07 1078.7">
  <path d="M612.79,99.15c9.54,2.49,19.46,1.91,29.13,3.95,17.36,3.65,32.21,10.91,45.21,23.4,52.23,50.13,102.66,102.07,154.02,153.07,8.26,8.2,15.91,17.04,23.51,25.87,8.98,10.43,11.82,23.47,14.27,36.5.63,3.35,1.38,6.54,2.81,9.6.64,5.36,2.05,10.62,1.91,16.08.3,8.79.26,17.58.08,26.37.32,37.81.34,75.62.02,113.43-.13,5.61.38,11.24-.4,16.83-.32,1.98-1.39,3.89-1.12,5.93,1.11,8.33-3.59,12.47-10.27,16.21-32.76,18.39-66.31,35.25-99.71,52.42-49.81,25.61-99.88,50.7-149.9,75.87-34.74,17.48-69.45,35.02-104.66,51.58-19.09,8.98-37.83,8.62-56.54-.33-62.9-30.1-125.16-61.49-187.17-93.37-18.01-9.26-36.25-18.05-54.23-27.34-2.48-1.28-7.34-1.88-4.53-6.98,3.09-1.85,6.53-1.42,9.87-1.51,64.02-1.87,128.06-.59,192.08-1.6,43.31-.68,86.62-.85,129.93-1.16,7.43-.05,14.84-.62,21.38-4.79,7.63-4.03,15.15-8.18,16.61-17.96,1.28-15.5-6.56-25.12-21.8-26.72-2.69-.28-5.39-.24-8.09-.24-109.57,0-219.13.04-328.7-.07-10.34,0-19.69,1.76-26.91,9.82-1.03,1.12-1.87,2.4-2.78,3.61-5.17,6.57-6.67,14.08-5.74,22.25.29,2.57,1.51,5.39-1.29,7.47-2.87,1.12-5.27-.33-7.65-1.53-23.85-12.01-47.5-24.4-70.84-37.38-2.54-1.41-5.3-2.62-6.11-5.87-3.1-19.02-4.09-38.38-9.55-57.01-1.17-35.35-.56-70.69-.38-106.03-.18-5.72-.15-11.45.05-17.17-.22-2.72.13-5.4.53-8.08,1.66-2.39,1.38-5.13,1.38-7.81,0-22.48-.73-44.99.17-67.43,1.48-37.04.56-74.09,1.46-111.11.23-9.58.09-19.31,1.32-28.82,2.41-18.65,19.29-33.69,38.23-35.97,12.44-1.5,24.91-.53,37.29-1.47,30.29-2.31,60.59-.63,90.88-1.01,29.67-.37,59.34-.14,89.01-.03,4.61.02,8.9-.71,13-2.77,2.86-.65,5.74-.86,8.68-.85,71.61.04,143.22.02,214.83.01,2.7,0,5.38.22,8.07.25,4.34-.12,8.75-.72,12.68,1.89Z" style="fill: #e9e7e8; stroke-width: 0px;"/>
  <path d="M881.72,366.59c.47-5.01-3.04-10.03.01-15.04,31.15,30.5,58.94,63.84,83.46,99.85,6.64,9.75,12.97,19.98,12.5,32.63-3.18,15.57-12.83,29.34-12.79,45.81.04,15.52-.97,31.03-1.97,46.47-1.24,19.28.84,38.69-2.57,57.87-.79,4.43.67,8.96.38,13.46-1.51,23.49-.26,47.05-3.22,70.57-2.04,16.18-.48,32.78-.94,49.17-.64,22.65-3,45.23-3.57,67.9-.27,10.57-1.67,21.08-1.61,31.63.06,10.61-1.33,21.07-2.01,31.61-1.21,8.43-2.07,16.93-2.21,25.42-.2,11.95-1.93,23.7-3.92,35.4-1.32,7.76-1.29,15.67-3.19,23.36-4.65,18.8-14.46,26.51-33.89,27.47-25.14,1.24-50.18-.47-75.28-1.07-30.97-.74-62.02.07-93-.62-32.15-.71-64.34.1-96.41-1.53-20.01-1.01-39.99.85-59.92-.96-28.29-2.56-56.65-.45-84.96-1.39-46.06-1.52-92.12-2.19-138.2-2.82-24.67-.34-49.37-1.03-73.99-2.77-12.33-.87-24.74-.22-37-2.21-1.33-.22-2.72-.34-4.04-.11-17.64,3.04-34.92-1.33-52.37-2.32-13.46-.76-26.92-1.3-40.33-2.98-6.98-.88-13.59-3.08-20.36-4.63-9-2.07-18.19-1.84-27.24-4.01-16.07-3.86-23.99-14.87-29.2-28.96-2.41-6.52-4.56-13.2-4.69-20.3-.02-1.34-.26-2.72-.78-3.96-10.01-24.05-9.1-50.14-13.97-75.14-2.28-11.69-3.64-23.55-6.45-35.15-.53-2.19-1.47-4.4-1.21-6.61,2.16-18.53-3.46-36.59-3.13-55.02.17-9.46-3.41-18.44-4.28-27.92-1.41-15.25-.36-30.55-2.16-45.76-.8-6.7-2.36-13.32-2.68-20.05-.76-16.11-2.01-32.18-2.85-48.28-.63-12.13-2.47-24.14-3.51-36.23-.77-8.98.21-17.98-1.07-26.92-.19-1.35.55-2.61,1.44-3.67,2.1-1.93,3.93-1.92,5.38.78.98,1.82,1.53,3.79,1.55,5.82.14,25.66,5.18,50.93,5.78,76.58.45,19.32,3.56,38.39,6.97,57.43,2.09,11.67,1.36,23.77,3.59,35.52.63,3.31.89,6.71,1.72,9.97,1.91,7.53,6.86,10.18,14.23,7.83,8.03-2.57,11.41-.06,10.93,8.45-.37,6.48,1.71,12.05,6.03,16.62,4.09,4.32,5.16,9.07,4.4,14.85-1.12,8.5.53,16.52,5.92,23.5,2.29,2.96,3.44,6.27,3.18,10.06-.23,3.42-.03,7.02,1.83,9.83,5.4,8.15,6.48,17.64,8.99,26.69,2.11,7.61,5.22,13.97,14.47,14.45,2.83.15,5.36,1.69,6.46,4.32,2.41,5.74,7.13,9.14,11.86,12.57,6.08,4.4,10.11,9.96,11.51,17.57,1.24,6.72,2.65,7.34,9.15,4.79,4.4-1.72,7.66-.59,9.55,3.46,3.02,6.48,10.06,8.63,14.29,13.82,1.61,1.97,4.56,1.53,7.06,1.31,9.04-.79,17.56.26,24.49,6.95.81.78,1.91,1.73,2.89,1.63,10.93-1.07,18.77,7.93,28.87,8.91,7.41.71,14.56,2.54,21.86,3.52,6.93.93,13.78,1.7,20.28,4.5,2.69,1.16,5.81,1.68,8.55.24,5.11-2.69,9.81-1.8,14.85.36,5.15,2.22,11.21,1.94,16.21,3.52,8.31,2.64,16.82,2.68,24.91,4.7,8.68,2.17,16.89,4.18,25.78,2.47,3.1-.6,6.26-.03,9.41.29,14.47,1.5,28.86,3.52,43.44,4.32,8.57.47,17.2,2.51,25.83,3.7,12.05,1.66,24.16,1.87,36.19,3.23,4.93.56,9.89.48,14.82-.15,2.95-.38,6.06-.63,8.64.73,6.55,3.45,13.36,3.33,20.35,2.44,6.52-.83,12.91-.26,19.41.87,6.59,1.15,13.34,1.05,20.13.82,17.97-.6,35.92,1.15,53.9,1.62,10.74.28,21.33,2.43,32.24,1.12,8.65-1.03,17.48.71,26.22,1.21,15.47.89,30.94.32,46.4,1.02,5.85.26,11.67.46,17.47,1.33,10.44,1.56,20.83,2.2,31.5,1.78,18.12-.71,36.25,1.45,54.34,2.95,9.39.78,18.74,1.98,28.23,1.02,6.75-.68,13.41,1.15,20.13,1.73,2.91.25,5.8.72,8.73.72,9.57.01,11.57-1.33,15.21-10.16,5.2-12.61,7.52-25.72,8.48-39.36,1.54-21.95,3.84-43.85,4.91-65.84,1.16-23.79,2.12-47.59,3.19-71.38,1.34-29.88.06-59.84,2.72-89.64,1.41-15.76.47-31.48,1.19-47.2,1.71-37.29,2.61-74.59,2.92-111.92.08-9.97.55-20.24,4.88-29.78,2.25-4.96,4.67-9.62,8.18-13.86,4.97-6.01,4.92-8.58.1-14.66-2.89-3.64-1.39-6.81.4-9.95,2.8-4.91,5.44-9.85,6.8-15.38.85-3.42.96-6.76-1.59-9.55-2.01-2.2-4.37-4.16-7.59-3.57-3.51.65-4.21,3.64-4.75,6.61-1.55,8.5-3.51,16.78-11.85,21.54-1.45-.03-1.69-1.07-1.81-2.19.94-4.18,3.57-7.63,5.07-11.6,2.49-6.6,1.62-12.13-3.87-16.9-6.28-5.46-11.72-11.63-14.47-19.74-.7-2.08-2.23-3.95-1.22-6.34,3.62-1.62,4.93,2,7.28,3.24,1.4.74,2.79,1.74,4.31.51,1.26-1.01.8-2.44.46-3.73-.93-3.49-2.52-6.66-4.5-9.7-9.92-15.19-21.18-29.41-31.76-44.13-3.01-4.19-7.82-6.73-10.45-11.29Z" style="fill: #efb234; stroke-width: 0px;"/>
  <path d="M9.08,1013.46c-4.77-12.67-4.9-25.94-5.04-39.21,2.78-72.29,3.82-144.63,5.94-216.94.45-5.46.22-10.93.15-16.4-.19-3.4-.06-6.78.56-10.13.39-1.75.93-3.47.84-5.3-.89-19.09,2.06-38.09,1.38-57.17-.92-25.6,1.07-51.14,1.47-76.72.28-17.46,2.53-34.88,3.95-52.31.29-3.61,1.04-7.26,5.5-8.25,1.03.65,1.71,1.68,1.55,2.8-1.58,11.01,1.77,21.76,1.76,32.8-.02,13.36-.82,27.03,1.93,40.34,1.4,6.76.17,13.46-.08,20.17-.71,18.71.98,37.28,3.16,55.82.57,4.79-.39,9.42-.35,14.11.14,19.09,1.2,38.1,4.48,56.95,1.63,9.41-1.44,18.86-.58,28.25,1.16,12.61-.78,25.47,3.06,37.87,1.53,4.93-.99,9.67-1.04,14.63-.1,9.6,3.71,18.3,4.57,27.72,1.88,20.49,1.2,41.12,3.85,61.5,1.71,13.11.87,26.34,3.43,39.49,1.66,8.56-.33,17.77,2.17,26.65,3.95,14.06,11.94,23.42,26.95,25.69,2.67.4,5.33.93,8.04.89,24.07-.37,48.08,1.96,72.17,1.48,30.58-.6,61.12,1.6,91.68,1.91,12.54.13,25.17-.18,37.66.28,26.74.97,53.52-1.09,80.21,1.57,10.55,1.05,21.06-1.35,31.64-.4,14.11,1.26,28.33-.09,42.45,1.33,5.19.52,10.29-.83,15.48-.75,16.64.28,33.26.12,49.91,1,13.85.73,27.78-.25,41.7.33,28.46,1.19,56.96,1.19,85.45,1.32,29.21.12,58.4.06,87.61.75,26.47.62,52.97,1.09,79.45.6,32.4-.6,64.73,2.02,97.11,1.47,3.18-.05,6.26.52,9.32,1.34,4.97,2.16,11.07,1.18,15.27,5.49-7.08,4.66-15.37,4.27-23.22,5.18-17.45,2.04-35.07.7-52.55,1.74-29.91,1.79-59.85-.14-89.69,1.49-16.86.93-33.71.43-50.47.48-58.21.19-116.44,1.54-174.66.21-6.07-.14-12.14.29-18.21.34-26.31.2-52.58-2.14-78.86-2-22.92.12-45.81-.63-68.7-.95-28.06-.39-56.13-.98-84.19-2.11-18.4-.74-36.83-.75-55.25-1.61-44.88-2.09-89.91-1.49-134.51-8.28-18.34-2.79-35.91-8.31-53.1-15.1-4.01-1.58-7.24-4.51-10.82-6.83-5.89-3.83-7.19-3.52-12.02,1.54-2.3,2.4-3.77,6.57-8.49,4.93Z" style="fill: #dc8b33; stroke-width: 0px;"/>
  <path d="M9.08,1013.46c4.15-1.34,6.2-5.02,8.34-8.24,2.9-4.37,6.37-5.22,10.17-2.18,18.43,14.76,40.96,18.95,62.99,23.24,14.33,2.79,29.07,4.44,43.92,4.97,21.48.76,43,1.49,64.45,2.67,24.82,1.36,49.67,2.3,74.49,2.98,17.31.48,34.7.66,52.02,1.05,24.81.56,49.62.63,74.41,1.34,11.95.34,23.89-.46,35.74.06,27.33,1.2,54.65,2.43,82.02,2.42,48.07-.03,96.14-.14,144.22.12,8.79.05,17.48-2.35,26.14-1.33,19.08,2.26,38.28.8,57.25.54,29.41-.4,58.88.7,88.24-1.01,11.9-.69,23.76-.89,35.62-.93,17.73-.06,35.24-2.2,52.78-4.35.57-.07,1.07-.74,1.6-1.12.56-.73,1.29-1.32,2.18-1.46,18.52-2.96,29.61-16.35,41.11-29.19,1.85-2.06,3.08-5.16,6.76-4.48-1.06,12.32-4.49,23.79-12.08,33.77-8.11,5.65-16.49,10.88-25.06,15.79-3.97,2.28-8.3,3.85-12.7,4.26-10.07.93-19.96,3.43-30.08,3.59-52.6.84-105.2,1.08-157.79,1.69-41.33.48-82.65,1-123.98,1.04-56.88.05-113.77.65-170.65-.19-43.34-.64-86.7-.38-130.02-1.41-33.91-.8-67.87-.84-101.73-2.75-16.82-.95-33.69-1.38-50.49-1.91-17.04-.54-34.11-1.06-51.14-1.9-27.66-1.37-54.18-7.85-79.41-19.3-4.72-2.14-10.01-2.72-14.36-5.7-2.1-3.84-4.43-7.59-4.95-12.07Z" style="fill: #c0611a; stroke-width: 0px;"/>
  <path d="M973.52,998.55c-7.3,7.54-14.74,14.94-21.87,22.64-7.65,8.28-17.68,10.82-28.18,12.48-5.24.73-9.92-1.51-14.78-2.78-1.17-.67-2.25-1.49-3.33-2.28-4.12-3.02-3.93-6.02.62-8.56,2.76-1.54,5.88-2.16,8.87-3.11,19.03-6.05,24.61-9.92,26.78-34.95,1.33-15.34,3.22-30.66,3.99-46.03.63-12.45,1.38-24.89,2.27-37.33,1.34-22.98,1.39-46.03,3.99-68.94.05-.45.06-.9.04-1.35-.91-30.51,4.28-60.8,2.93-91.36-.49-11.18.03-22.52,2.28-33.75,1.41-7,1.25-14.42.28-21.65-1.09-8.12,1.64-16.01,1.3-24.1-.95-22.56,1.68-45.04,1.54-67.61-.12-20.29,1.25-40.62,2.64-60.89.59-8.59,1.52-17.31,6.03-25.22,2.38-4.19,4.42-8.76,4.83-13.85.19-2.41,1.39-4.76,3.93-5.91.23.37.24.74.04,1.12,1.16,14.29.17,28.61.54,42.91.12,4.68-.6,9.39.49,14.03.11,43.18.35,86.36.31,129.55-.07,71.08-.07,142.16-.62,213.23-.27,34.62-.72,69.27-3.21,103.83-.24,3.33.12,6.79-1.72,9.85Z" style="fill: #e5991e; stroke-width: 0px;"/>
  <path d="M600.93,99c-59.16.14-118.32.28-177.49.41-15.75.03-31.5.05-47.24-.05-2.59-.02-5.47.79-7.66-1.51,28.09-25.73,56.16-51.49,84.28-77.18,5.12-4.68,10.45-9.15,15.72-13.67,8.75-7.5,26.25-9.29,36.63-3.78-2.28,2.51-4.99,1.02-7.57.82-7.4-.58-14.79-1.09-20.79,4.64.72,1.81,1.94,1.07,2.83.86,15.62-3.7,28.67.06,40.63,11.25,26.03,24.32,52.85,47.78,78.34,72.69,1.52,1.49,3.87,2.71,2.31,5.52Z" style="fill: #f0bd6c; stroke-width: 0px;"/>
  <path d="M14.03,1025.53c4.86-.44,9.29.98,13.62,3.03,21.84,10.35,44.87,16,68.86,18.8,16.83,1.96,33.75,1.99,50.6,3.26,7.56.57,15.51.4,23.24.31,19.34-.22,38.6,1.24,57.88,1.87,23.58.78,47.21-.11,70.7,1.37,29.23,1.84,58.42.12,87.6,1.11,56.07,1.89,112.16,1.19,168.25,1.29,12.07.02,24.26-1.17,36.16-.69,35.3,1.42,70.6,1.22,105.84.42,47.99-1.09,95.99-.02,143.94-1.42,18.82-.55,37.69.51,56.41-1.19,19.3-1.75,38.95-3.37,54.67-17.2,2.61-2.3,5.63-4.64,9.63-4.2-1.21,3-2.95,5.61-5.51,7.63-1.2-.29-2.17.19-3.09.9-18.21,14.02-39.62,20.18-61.72,23.54-19.05,2.89-38.28,5.25-57.67,4.94-228.78-2.17-457.56-3.76-686.32-.04-24.46-1.85-48.21-7.32-71.68-14.23-6.51-1.92-12.25-5.5-18.35-8.3-4.29-1.97-8.84-3.21-13.25-4.84-6.05-2.23-11.76-2.76-16.79,2.24-5.64-5.29-9.64-11.73-13.01-18.62Z" style="fill: #b85d1f; stroke-width: 0px;"/>
  <path d="M145.84,1067.39c28.03-2.39,56.15-.25,84.16-1.64,12.46-.62,24.75.13,37.12.2,13.77.08,27.56-1.35,41.31-1,9.72.25,19.69,1.1,29.15.39,16.04-1.2,31.88,1.91,47.93.27,5.75-.59,12.05-2,18.4,0,4.74,1.49,10.04-1.06,15.25-.99,20.8.27,41.61-.23,62.4.22,16.66.36,33.35-.89,50,1.08,4.77.56,9.76-.72,14.65-1.19,9.68-.94,19.18,2.08,28.84,1.35,17.57-1.32,35.16.25,52.71-.17,13.32-.31,26.78-1.23,39.95-.74,41.24,1.53,82.49-.31,123.68,1.27,14.35.55,28.69.42,43.03.98-1.7,4.99-6.32,4.83-10.27,5.7-2.77.61-5.8-.12-8.42,1.59,6.29,1.56,13.08-1.71,18.98,2.36-5.74,1.54-11.61.87-17.41.9-196.3,1.12-392.6.76-588.9.41-24.06-.04-48.12-.23-72.18-.45-3.56-.03-7.2.51-10.66-.9,3.21-3.34,7.64-.88,11.56-2.45-3.43-3.19-10.03-1.14-11.3-7.16Z" style="fill: #b16135; stroke-width: 0px;"/>
  <path d="M12.11,731.08c-.02,3.21-.05,6.42-.07,9.62-1.03,5.35-1.04,10.71,0,16.06-.25,26.95-1.08,53.9-1.7,80.84-.33,14.33.31,28.77-1.1,43.03-2.02,20.44.05,40.92-1.46,61.27-.8,10.77.23,21.9-3.73,32.35-1.11-3.23-1.26-6.58-1.36-9.95-1.57-52-1.55-104.02-1.47-156.03-.9-1.69-.49-3.52-.54-5.3-.97-34.37.4-68.75,1.76-103.05.96-24.23.49-48.48,1.65-72.72,1.15-23.92,1.21-48.01.45-72.02-.52-16.43,1.17-32.76,1.55-49.15.21-9.13,5.22-14.3,15.32-16.85,2.66,4.15.48,7.9-1.4,11.35-3.59,6.6-4.45,13.31-3.57,20.79,1.61,13.66-.92,27.32-1.13,41.02-.29,18.6-.71,37.23-1.33,55.82-.67,20-.25,39.97-.47,59.96-.15,13.91-.56,27.81-1.36,41.69-.22,3.77,1.78,7.52-.01,11.27Z" style="fill: #e0a573; stroke-width: 0px;"/>
  <path d="M21.5,489.55c-2.39,1.63-4.66,3.51-7.21,4.85-4.54,2.37-6.04,6.04-6.3,10.97-1.73,32.74-.77,65.52-1.44,98.27-.58,28.6-.5,57.22-1.42,85.79-1.27,39.61-4.6,79.16-3.93,118.84-1.72-2.19-1.01-4.76-1.02-7.17-.04-78.76-.52-157.52.24-236.27.26-26.52.32-53.05,1.02-79.57.29-10.87,4.69-20.56,10.33-29.49,14.43-22.82,31.66-43.55,48.97-64.2,10.98-13.1,22.39-25.78,35.04-37.3,2.15,2.05,1.34,4.62,1.25,7.06-19.5,21.7-36.26,45.63-55.23,67.77-2.48,2.9-4.77,5.95-6.94,9.1-3.39,4.92-4.35,10.32-2.67,16.04,1.65,5.62,2.66,11.35,3.59,17.11,1.84,11.42-1.49,16.6-14.3,18.2Z" style="fill: #ebc198; stroke-width: 0px;"/>
  <path d="M145.84,1067.39c3.13,3.32,7.57,3.3,11.5,4.59,1.62.53,4.03,1.14,3.88,3.13-.2,2.59-2.77,1.44-4.33,1.54-3.76.25-7.54.25-11.31.35-7.16-.13-14.32-.26-21.49-.4-5.35-1.28-10.88.47-16.23-.96-2.7-.13-5.4-.27-8.1-.4-4.02-1.17-8.24.35-12.26-.89-24.59-1.19-44.51-11.73-60.46-30.2,1.76-5.34,5.04-7.47,10.77-5.81,7.31,2.12,14.85,3.71,21.48,7.52,13.83,7.95,29.33,10.64,44.38,14.8,13.82,3.82,28.06,4.74,42.15,6.74Z" style="fill: #943e16; stroke-width: 0px;"/>
  <path d="M834.73,1077.04h-24.56c3-4.45,6.08-5.79,9.81-5.53,5.36.37,10.09-1.17,14.46-4.11,28.44-.65,56.6-3.47,84.13-11.08,12.31-3.4,22.8-10.35,33.53-16.86,1.49-.9,2.97-2.82,3.85.5-11.08,15.05-25.72,25.18-43.35,30.99-6.36,2.1-12.99,3.2-19.73,3.41-4.54,1.3-9.28-.4-13.82.97-2.59.13-5.18.26-7.77.39-5.01,1.26-10.19-.36-15.2.91-7.12.14-14.23.27-21.35.41Z" style="fill: #96421b; stroke-width: 0px;"/>
  <path d="M600.93,99c-.34-3.84-4.22-4.35-6.29-6.58-16.35-17.66-35.14-32.75-52.36-49.51-10.1-9.83-21.1-18.75-31.89-27.84-8.47-7.13-18.53-5.13-28.35-4.34-2.84.23-7.19,3.74-8.16.17-1.03-3.78,3.95-6.08,7.39-7.31,5.77-2.05,11.87-2.13,17.95-1.05,1.97.35,3.98.46,5.97.67,4.86,1.1,8.1,4.81,11.56,7.82,32.3,28.09,63.49,57.41,94.87,86.51.48.44.79,1.07,1.18,1.61-3.95-.05-7.91-.1-11.86-.15Z" style="fill: #eeb136; stroke-width: 0px;"/>
  <path d="M978.76,542.08c-1.12-1.01-1.16-2.36-1.16-3.72.04-17.74.08-35.48.13-53.22,2.06,8.83.93,17.81,1.12,26.72.21,10.07-.04,20.15-.09,30.23Z" style="fill: #efb234; stroke-width: 0px;"/>
  <path d="M107.87,1075.64c5.42.09,10.93-1.28,16.23.96-5.43.01-10.91.82-16.23-.96Z" style="fill: #b85d1f; stroke-width: 0px;"/>
  <path d="M856.08,1076.63c4.95-2.23,10.11-.99,15.2-.92-4.98,1.74-10.11,1-15.2.92Z" style="fill: #b16135; stroke-width: 0px;"/>
  <path d="M879.04,1075.33c4.46-2.31,9.18-1.03,13.81-.98-4.52,1.52-9.18,1.08-13.81.98Z" style="fill: #b16135; stroke-width: 0px;"/>
  <path d="M87.51,1074.35c4.11-.07,8.31-1.22,12.26.89-4.12.14-8.26.57-12.26-.89Z" style="fill: #b85d1f; stroke-width: 0px;"/>
  <path d="M21.5,489.55c1.94-1.07,3.63-2.44,5.85-3.16,6.3-2.05,8.49-6.13,7.16-12.72-1.36-6.76-2.42-13.56-4.36-20.24-2.98-10.25,3.77-17.38,9.48-24.51,16.6-20.71,33.35-41.31,50.01-61.98,2.02-2.51,4.35-4.5,7.39-5.61-.02,5.82-.05,11.63-.07,17.45-16.7,16.49-26.21,37.23-34.66,58.61-2.65,6.71-6.29,12.9-10.28,18.88-3.4,5.1-3.76,10.41-3.58,16.55.47,16.47,7.57,29.15,19.53,39.69,8.52,9.86,18.52,17.87,29.95,24.13,2.82,2.37,6.79,3.31,8.62,6.91,26.88,15.56,54.35,29.99,82.34,43.44,9.64,2.31,17.92,7.25,25.64,13.27,22.15,11.31,44.24,22.72,66.45,33.92,54.32,27.38,108.62,54.81,163.1,81.88,10.78,5.36,21.38,11.41,33.46,13.85,17.23,3.48,32.75-1.33,47.93-8.98,32.67-16.45,65.53-32.51,98.2-48.96,55.53-27.95,111.05-55.92,166.42-84.19,27.77-14.18,55.56-28.35,82.72-43.71,5.44-3.07,8.89-6.44,7.81-13.09-.28-1.72-.3-3.62.9-5.19,3.17,2.88,1.14,6.8,1.96,9.99,7.97-5.24,15.97-10.54,22.85-17.31,8.14-8.5,16.41-16.89,22.17-27.33.75-1.36,1.58-2.71,3.33-2.99,6.04-5.48,9.77-12.23,10.61-20.35.77-7.4,3.8-11.32,8.54-10.43,6.73,1.26,11.81,8.06,10.11,14.43-1.49,5.6-3.32,11.13-6.68,16.1-2.52,3.73-6.17,7.17.84,11.64,5.33,3.4,2.04,10.24-1.38,13.73-12.31,12.56-12.53,28.58-14.08,44.33-.13,1.34-.06,2.7-.01,4.05,1,30.57-.83,61.1-1.75,91.62-.52,17.28.36,34.62-1.13,51.8-2.39,27.55-1.75,55.14-2.81,82.69-.87,22.57-1.21,45.17-2.5,67.73-1.49,26.11-3.38,52.21-5.44,78.28-1.41,17.83-2.97,35.64-10.63,52.3-2.59,5.62-5.98,8.53-12.23,8.49-8.53-.05-16.99-.78-25.31-2.53-6.91-1.45-13.53,1.15-20.62.17-13.67-1.88-27.68-3.35-41.27-3.55-12.27-.18-24.71-2.5-37.36-.07-8.15,1.56-17.24-1.28-25.83-2.62-9.1-1.42-18.21-.63-27.31-1.02-17.1-.74-34.26-.16-51.31-2.18-2.44-.29-4.94-.52-7.38-.35-23.27,1.53-46.34-1.98-69.52-2.57-7.15-.18-14.28-.47-21.49.53-5.18.72-10.87.42-15.9-.97-9.62-2.67-18.94-1.35-28.4.07-1.29.19-3.08.43-3.93-.25-6.41-5.15-13.76-3.43-21.05-3.82-14.6-.79-29.25-.39-43.81-3.36-8.83-1.8-18.19-3.09-26.94-3.63-16.43-1.02-32.62-3.65-48.97-4.87-7.72-.58-15.39,2.84-23.33.19-2.55-.85-4.91-2.56-7.31-2.85-8.28-.98-17.29,1.8-24.26-5.26-7.64,3.12-13.84-1.62-20.44-3.9-2.57-.89-5.04-2.67-7.51-.47-3.97,3.53-8.52,3.53-12.53,1.27-10.12-5.7-21.83-3.59-32.51-7.21-5.07-1.72-11.39-1.37-17.12-3.19-3.6-1.14-7.46-.53-9.07-5.21-.78-2.26-2.94-1.01-4.69-.71-5.08.87-9.42.16-13.34-4.11-5.94-6.48-14.16-5.69-22-5-2.39.21-4.96,1.76-6.74-.85-4.33-6.35-13.75-7.48-15.9-16.25-.94-3.83-4.15-4.16-7.46-1.68-5.88,4.41-10.63,2.99-11.07-4.39-.71-12.03-9.05-17.27-17.49-22.81-1.13-.74-2.7-1.14-2.89-2.53-1.11-8.12-6.87-10.23-13.76-10.71-3.42-.24-5.22-2.03-6.46-4.96-5.9-13.87-8.12-29.01-14.84-42.63-1.68-3.4,2.42-8.43-1.5-11.38-5.44-4.1-5.56-10.18-7.19-15.77-.19-.65-.8-1.38-.64-1.88,4.4-13.93-5.32-23.55-10.56-34.49-1.2-2.5.19-4.42.82-6.43.88-2.83-.21-4.75-1.95-6.67-2.31-2.56-3.89-.29-5.78.71-7.71,4.11-16.57.59-17.76-7.9-1.6-11.48-4.39-22.85-4.38-34.53,0-11.45-2.38-22.52-4.92-33.6-.99-4.33-1.7-8.83-1.77-13.26-.36-22.62-2.31-45.18-4.59-67.61-1.11-10.93-1.91-21.8-2.42-32.74-.1-2.06.98-6.28-3.85-5.76-3.26-5.39-2.65-11.98-5.42-17.53-2.97,1.52-3.89,4.26-4.02,7.27-1.19,26.16-3.67,52.22-4.52,78.43-.78,24.04.34,48.09-1.18,72.04-.81,12.79-.82,25.54-1.1,38.32-.03,1.37-.06,2.71-1.34,3.61,0-37.37,0-74.75,0-112.12,0-13.13-1.27-26.42.37-39.35,1.9-14.97-.7-29.97,2.08-44.86.99-5.31.81-11.08-.7-16.67-1.46-5.39-.09-10.95,2.74-15.49,2.59-4.14,3.78-8.5,4.9-13.04Z" style="fill: #edb559; stroke-width: 0px;"/>
  <path d="M196.92,284.32c-7.48-19.35,1.05-36.3,27.57-36.37,44.06-.12,88.13-.04,132.19-.03,65.65,0,131.29,0,196.94.03,7.18,0,14.21.55,21.04,3.41,9.86,4.11,15.15,16,11.43,27.57-1.16.12-2.17.59-2.97,1.42-6.98,7.25-15.92,8.74-25.38,8.65-24.5-.22-48.99-.28-73.49-.64-81.8-1.2-163.62-.63-245.43-.72-11.73-.01-23.4-.77-34.5-4.98-3.08-1.17-5.15.12-7.39,1.66Z" style="fill: #74a0e9; stroke-width: 0px;"/>
  <path d="M199.88,453.02c1.62-3.36,4.56-4.79,7.99-5.53,1.61,2.18,3.66,3.07,6.43,2.68,9.18-1.27,18.43-.53,27.64-.69,138.59-2.36,277.19-1,415.78-1.37,13.27-.04,26.48-1.5,39.74-1.57-156.44.77-312.89.44-469.33.5-3.3,0-6.84.53-9.56-2.21,2.17-1.76,4.75-1.1,7.15-1.1,175.25-.01,350.5-.02,525.75.12,9.64,0,19.41.86,26.59,8.9,2.17,2.42,3.96,4.91,3.59,8.37-1.38,1.29-1.95,3-2.43,4.73-2.61,9.52-9.05,13.7-18.7,14.54-9.01.79-18.02.11-26.9-.27-35.09-1.51-70.19.39-105.25-.85-42.05-1.49-84.12-.35-126.15-1.44-37.06-.97-74.11-2.66-111.16-4.06-21.78-.82-43.55-1.78-65.33-2.63-31.89-1.24-63.8-1.87-95.7-2.9-7.7-.25-15.08-2.48-22.5-4.27-5.63-1.35-6.17-6.58-7.65-10.99Z" style="fill: #7ba8ec; stroke-width: 0px;"/>
  <path d="M197,554.16c5.71-8.73,14.26-12.08,24.19-12.08,113.17-.06,226.33-.06,339.5.02,18.22.01,30.65,12.74,25.27,31.05-1.39-1.13-2.78-2.67-4.49-.5-4.6,5.84-11.36,6.3-17.8,6.42-16.41.3-32.83.32-49.26-.15-11.44-.32-22.94.9-34.38.08-32.11-2.32-64.29-.45-96.43-1.57-12.73-.44-25.55-1.01-38.35-.94-40.48.22-80.87-3.23-121.36-3.19-12.54.01-20.25-9.46-26.89-19.14Z" style="fill: #88abeb; stroke-width: 0px;"/>
  <path d="M391.56,363.84c1.55-9.65,10.86-17.1,22.42-17.47,9.44-.3,18.9-.12,28.34-.13,61.64-.03,123.29-.06,184.93-.07,2.47,0,4.94.21,7.4.32-.05,1.7-1.28,2.21-3.81,2.95,23.24,1.25,45.28,3.09,67.42,2.9,19.31-.16,38.61,1.26,57.92.03,4.75-.3,9.43.31,13.88,2.21,6.98,2.98,9.86,7.15,9.47,13.9-.41,7.1-4.49,12.69-10.95,14.7-5.67,1.76-11.52,2.13-17.37,1.27-5.82-.86-11.65-.93-17.5-.93-85.5,0-171-.02-256.51.02-18.88,0-37.73-.87-56.59-1.49-13.07-.43-22.11-7.79-29.06-18.23Z" style="fill: #88adec; stroke-width: 0px;"/>
  <path d="M653.6,220.77c1.46-21.87-4.93-42.53-9.7-63.44-.36-1.57-2.32-3.48-.02-4.71,1.67-.89,2.57,1.32,3.81,2.14,10.44,6.92,14.92,17.62,17.89,29.05,6.57,25.31,12.78,50.71,19.28,76.04,4.1,15.96,25.56,32.59,42.08,32.37,5.99-.08,11.55,1.65,17.13,2.98,25.64,6.1,51.73,10.45,76.57,19.75,6.46,2.42,12.14,5.75,16.8,10.77,5.19,5.59,6.95,18.74,3.68,25.37-1.2,2.42-2.64,2.09-4.27.89-20.17-14.88-43.92-19.58-67.83-23.47-14.07-2.29-28.3-4.63-42.49-4.86-24.97-.41-42.93-11.64-58.23-30.65-10.45-12.99-11.2-27.9-13.22-42.74-1.32-9.7-2.73-19.57-1.48-29.47Z" style="fill: #c6c5c8; stroke-width: 0px;"/>
  <path d="M391.56,363.84c2.29-.23,3.64.9,4.92,2.75,6.8,9.86,16.38,13.34,28.22,13.63,105.99,2.64,211.99.5,317.99,1.29,8.21.06,16.29,2.27,24.67.11,6.89-1.78,9.34-6.43,10.3-12.46.91-5.74-1.27-9.79-6.95-12.29-9.35-4.12-19.11-2.56-28.61-2.12-6.48.3-12.76.77-19.28-.09-6.41-.85-13.02-.32-19.54-.19-24.01.5-47.92-1.74-71.86-2.82-2.17-.1-4.3-.97-6.59-1.52,2.49-4.12,7.18-.98,9.84-3.65,40.46-.07,80.92-.13,121.38-.21,8.15-.02,15.8,1.74,21.39,7.99,7.28,8.14,6.8,18.05,3.34,27.27-3.28,8.73-11.4,12.47-20.35,13.35-8.03.79-16.16,1.27-24.22.99-30.05-1.01-60.11,1.03-90.12-.11-31.64-1.2-63.24,1.08-94.88-.19-21.52-.87-43.13.74-64.69.35-24.23-.44-48.49,1.48-72.69-.81-4.99-.47-10.38-.26-14.45-4.21-11-6.56-8.66-17-7.86-26.99l.03-.08Z" style="fill: #4d7ddd; stroke-width: 0px;"/>
  <path d="M773.67,487.94c-7.39,5.27-15.88,5.72-24.51,5.72-59.4,0-118.8,0-178.2.01-112.27.03-224.54.07-336.82.09-5.4,0-10.81.03-16.19-.32-9.4-.61-16.75-4.69-21.02-13.44-.33-5.74,3.81-5.55,7.23-4.74,28.79,6.83,58.15,4.93,87.24,5.07,110.47.54,220.94.15,331.41.29,17.5.02,35.02.19,52.52,1.13,8.3.44,16.64.52,24.92-.83,7.9-1.29,15.67,1.1,23.55,1.02,13.95-.13,27.91-.27,41.85.12,3.61.1,8.75-.69,8.01,5.88Z" style="fill: #446ad0; stroke-width: 0px;"/>
  <path d="M773.67,487.94c-.23-2.36-1.49-3.69-3.89-3.82-1.12-.06-2.25-.05-3.37-.06-32.69-.29-65.39-.77-98.08-.84-117.67-.25-235.33-.23-353-.75-9.35-.04-18.68.34-28.02.37-22.23.07-44.4-2.09-66.65-1.69-5.61.1-11.33-2.37-16.87-4.08-3.44-1.06-5.67-.61-6.86,2.95-3.67-9.5-4.43-18.69,2.95-26.98,2.13.03,4.19,0,3.68,3.21-.78,4.92,2.19,5.58,6.32,6.35,33.89,6.34,68.17,4.48,102.33,5.49,23.28.69,46.57,1.74,69.85,2.7,22.84.94,45.71,1.37,68.5,2.73,50.5,3.02,101.06,1.17,151.54,2.81,40.25,1.31,80.46-.15,120.66,1.27,9.03.32,18.13-1.01,27.19.92,6.21,1.33,12.5-.56,18.65-1.63,5.23-.91,6.23-5.87,7.92-10.02,1-2.46.71-6.27,5.13-5.72.16.4.23.81.19,1.23,1.03,4.15.84,8.31.1,12.47-1.37,5.24-3.17,10.21-8.27,13.1Z" style="fill: #6a97e6; stroke-width: 0px;"/>
  <path d="M196.84,381.6c-7.65-17.16,2.09-34.5,21.01-34.94,33.88-.77,67.83-1.25,101.66.18,22.76.97,25.41,19.12,19.94,36.9-.19.63-1.39.95-2.13,1.41-12.99.52-25.98,1.29-39,1.02-25.35-.54-50.68-1.92-76.05-1.43-5.73.11-11.04-1.93-16.39-3.58-3.18-.98-6.11-1.23-9.05.44Z" style="fill: #719de8; stroke-width: 0px;"/>
  <path d="M197,554.16c4.54.49,5.57,4.96,8.09,7.56,8.34,8.56,18.41,10.97,29.77,10.13.9-.07,1.8.02,2.7,0,40.89-1.13,81.63,3.11,122.52,3.03,24.33-.04,48.71,1.27,73.07.93,18.85-.26,37.62,1.35,56.44,1.4,22.84.05,45.69.03,68.53.02q16.27,0,26.53-11.7c2.09,2.34.72,5.18,1.3,7.63-.84,9.1-7.6,12.96-14.67,16.55-7.56,3.01-15.34,3.95-23.38,2.46-8.48-2.97-17.32-2.11-26.02-2.15-25.4-.12-50.81.54-76.2-.06-62.22-1.48-124.44-2.6-186.68-2.75-11.4-.03-22.87-.91-34.33-1.19-7.07-.17-13.8-1.9-19.8-5.84-2.5-1.64-5.04-2.96-8.16-2.48-5.55-6.62-3.13-13.67-1.09-20.69.17-1.08.22-2.22,1.36-2.83Z" style="fill: #4d76d7; stroke-width: 0px;"/>
  <path d="M196.92,284.32c-.15-5.52,1.4-7.33,7.02-4.24,9.09,5,19.45,5.28,29.39,5.32,68.57.3,137.15.1,205.72.26,10.96.02,21.88,1.42,32.89,1.32,28.41-.24,56.81-.09,85.22-.07,9.34,0,18.46-.43,24.89-8.79,1.51-1.97,3.32-2.61,4.05.8-3.85,15-15.38,18.6-28.78,18.62-48.61.08-97.22.03-145.83.03-61.21,0-122.43,0-183.64.03-4.51,0-8.97-.18-13.42-1.05-7.69-1.5-13.89-4.99-17.5-12.24Z" style="fill: #4976d8; stroke-width: 0px;"/>
  <path d="M636.1,561.05c1.54-11.18,9.99-18.59,23.96-18.78,32.97-.45,65.96-.74,98.91.1,17.06.43,28,12.72,23.02,31.01-1.73-.86-1.35-3.28-3.58-4.46-5.25,9.22-14.08,10.18-23.67,10.36-28.51.53-56.96-1.15-85.45-1.51-9.11-.11-17.22-2.76-23.34-10.03-2.63-3.13-5.74-5.68-9.86-6.68Z" style="fill: #89abeb; stroke-width: 0px;"/>
  <path d="M67.14,513.87c-6.61-5.22-11.15-12.17-15.87-18.97-4.13-5.95-1.94-13.13-4-19.49-2.9-8.96.67-16.14,5.55-23.66,9.41-14.5,13.85-31.51,22.28-46.59,4.62-8.27,9.79-16.02,16.43-22.77,1.54-1.56,2.86-3.56,5.44-3.6.16,36.01.31,72.03.47,108.05-.33.08-.66.16-.99.24-4.33-3.58-4.92-9.49-8.47-13.56-1.46-1.68-2.58-4.16-5.08-4-3.01.19-3.57,3.13-4.35,5.41-3.5,10.27-4.81,21-6.69,31.62-.54,3.06.09,6.99-4.73,7.34Z" style="fill: #d36f1a; stroke-width: 0px;"/>
  <path d="M218.57,444.84c104.37.04,208.75.08,313.12.11,56.01.02,112.02,0,168.04.06,2.27,0,4.84-.95,7.67,1.73-7.27,1.87-14.15.89-20.79,1.91-10.08,1.55-20.46,1.59-30.71,1.6-113.6.1-227.2-.35-340.79.34-31.83.19-63.69.95-95.54,1.14-2.64.02-5.28.84-7.92,1.25-5.01.78-6.8-.69-3.79-5.48,2.99-3.2,6.99-2.35,10.7-2.65Z" style="fill: #6a97e6; stroke-width: 0px;"/>
  <path d="M636.1,561.05c2.22-3.47,4.06-1.94,6.25.23,5.96,5.93,10.99,13.31,20.58,13.92,1.55.1,3.08.64,4.63.65,30.74.24,61.46,2.28,92.22,1.36,6.44-.19,12.57-1.26,15.92-7.92,1.06-2.1,1.98-5.46,4.82-4.64,2.38.69.87,3.95,1.23,6.04.15.88.17,1.79.26,2.68.02,9.22-10.85,16.64-19.64,18.57-5.04,1.1-10.14,1.79-15.34,1.4-27.99-2.1-56.04-.66-84.06-1.23-7.28-.15-13.86-1.46-19.92-6.44-8.37-6.89-7.34-15.66-6.94-24.61Z" style="fill: #537bd6; stroke-width: 0px;"/>
  <path d="M548.45,590.76c7.66.66,15.26,0,22.84-1.07-6.86,4.82-14.62,6.45-22.85,6.45-21.59,0-43.2-.54-64.76.23-12.44.44-24.97.49-37.33.55-25.97.13-51.94,1.12-77.93.68-30.13-.51-60.29-.77-90.39.13-19.74.59-39.47,1.02-59.21,1.1-1.59,0-3.17,0-4.29,1.43-8.92-3.71-17.28-8.5-25.64-13.27,2.03-1.65.73-3.49.51-5.42-1.03-8.94-.85-17.67,6.26-24.58.78,6.75-1.56,13.7,1.26,20.32.62.26,1.37.4,1.76.95,7.44,10.43,18.28,11.87,29.97,11.79,26.78-.19,53.6.78,80.33-.37,16.84-.72,33.66-.6,50.45-.53,12.08.05,24.28,1.03,36.35.62,19.3-.66,38.61-.43,57.85-.04,27.88.57,55.72-1.17,83.57-.28,3.76.12,7.59.19,11.27,1.3Z" style="fill: #bdb7ba; stroke-width: 0px;"/>
  <path d="M907.41,519.21c-6.97,7.85-15.5,13.5-25.33,18.54-.21-4.54-.39-8.25-.57-11.96.09-5.81.18-11.62.28-17.43,6.57-2.02,9.33-7.24,11.05-13.27,4.14-14.54,5.11-29.53,5.7-44.5.36-9.17.5-18.33,1.65-27.45.82-6.51,2.5-7.9,9.05-7.67,3.87,4.62,8.49,8.89,7.66,15.8,2.81,8.83,6.98,16.64,13.97,23.15,10.67,9.93,10.64,19.16.9,31.05-1.64-1.34-1.64-3.19-1.24-4.94,2-8.81-2.9-15.54-6.64-22.63-.52-.98-1.18-2.03-2.43-2.09-1.42-.07-1.96,1.18-2.09,2.21-2.57,20.05-9.01,39.29-12.21,59.2-.1.64.14,1.33.25,2Z" style="fill: #e4932d; stroke-width: 0px;"/>
  <path d="M909.99,416.64c-6.58-1.12-7.66,2.49-8.15,8.14-1.84,21.33-.91,42.88-5.25,64-1.13,5.53-2.89,10.82-5.58,15.77-2,3.68-4.79,5.85-9.23,3.81.03-38.24.07-76.47.1-114.71,5.56-4.8,10.47-.7,14.75,1.86,7.78,4.64,12.16,12.02,13.35,21.13Z" style="fill: #eeb050; stroke-width: 0px;"/>
  <path d="M196.84,381.6c.24-3.94,1.22-5.52,5.84-3.66,8.75,3.53,17.89,5.12,27.55,5.05,14.56-.12,29.16.3,43.72.68,18.67.49,37.53,2.37,56.23-.78,2.52-.42,5.53-.86,7.15,2.27-7.5,10.2-18.77,10.64-29.73,10.77-26.45.33-52.92.17-79.37.07-5.83-.02-11.65-.64-17.31-2.18-6.63-1.81-11.39-5.83-14.08-12.22Z" style="fill: #4772d5; stroke-width: 0px;"/>
  <path d="M909.99,416.64c-2.45-4.46-4.65-9.07-7.4-13.33-4.81-7.47-11.82-10.68-20.71-9.66-.06-9.02-.12-18.04-.17-27.06,8.67,4.49,13.86,12.47,19.08,20.09,8.19,11.95,17.63,22.99,25.17,35.4,1.9,3.12,3.11,6.39,4.28,9.75.75,2.15,1.43,4.61-1.18,5.88-2.08,1.02-4.36.69-6.22-1.03-1.97-1.81-3.96-3.6-5.94-5.4-1.13-5.43-6.09-9.06-6.92-14.64Z" style="fill: #f2c479; stroke-width: 0px;"/>
  <path d="M106.54,543.55c-3.2-1.87-6.41-3.74-9.61-5.61-1.06-2.22-1.87-4.5-1.88-7.02-.09-12.67-.11-25.34.03-38.01.02-2.22.16-4.47,1.79-6.27,0,0,.58.18.58.18,4.93,9.99,4.55,21.1,6.25,31.71,1.33,8.24,3.88,16.47,2.85,25.02Z" style="fill: #d1bab3; stroke-width: 0px;"/>
  <path d="M391.52,363.92c.03,2.9.29,5.82.05,8.69-.61,7.52,3.44,12.96,7.81,18.3-6.78-1.55-9.61-6.05-9.16-12.7.33-4.77-1.56-9.75,1.29-14.29Z" style="fill: #88adec; stroke-width: 0px;"/>
  <path d="M781.94,474.84c-.03-4.16-.07-8.31-.1-12.47,1.9,4.14,1.8,8.3.1,12.47Z" style="fill: #7ba8ec; stroke-width: 0px;"/>
  <path d="M24.27,531.41c4.84,4.9,5.38,11.14,5.42,17.53-.93,9.53-.17,19.07.39,28.56.78,13.14,2.76,26.2,3.49,39.34.41,7.4.77,14.72,2.44,21.95,1.72,7.48-1.72,14.85.16,22.61,2.3,9.48,3.04,19.37,3.95,29.13.55,5.94,0,11.98.24,17.97.34,8.27.5,16.59,1.57,24.78,1.65,12.6,4.81,25,4.43,37.84-.38,12.67,5.54,24.93,2.34,37.84-.56,2.25.04,4.93.62,7.29,3.48,14.33,5.87,28.81,7.5,43.48,1.28,11.51,3.59,22.92,5.85,34.29.67,3.38.69,6.68.72,10.02.04,3.38-.28,6.86,1.31,9.92,6.6,12.71,6.33,27.36,11.39,40.4,3.38,8.7,7.45,18.12,16.43,22.14,8.29,3.7,17.07,6.89,26.81,6.54,6.01-.21,12.3,1.38,18.13,3.23,12.32,3.9,25.06,4.83,37.7,5.29,15.68.58,31.2,2.14,46.73,4.08,1.78.22,3.59.12,5.39.18,9.33.32,18.53-1.09,28.03-.5,14.49.91,29.16,1.25,43.64,2.27,12.48.88,25.03,1.04,37.5,1.83,22.07,1.4,44.31-.28,66.43.63,25.6,1.04,51.24.02,76.76,1.49,22.7,1.3,45.35.6,68.01.94,15.46.23,30.84,1.36,46.25,2.3,8.28.5,16.99-1.45,25.44-.74,23.98,2.01,48.01,1.06,72.01,1.59,36.13.8,72.29.31,108.41,1.15,18.66.44,37.46-1.28,56.02,2.35,2.04.4,4.37-1.01,6.56-1,6.26.02,12.51.16,18.78.51,13.99.79,28.15,1.26,41.59-4.29,6.97-2.87,10.72-8.25,13.28-15.16,4.34-11.72,4.09-24.17,6.34-36.22,3.19-17.16,3.42-34.67,4.35-52.08.04-.78.8-1.52,1.23-2.27.03,28.62-3.22,57.08-4.15,85.66-.26,7.91-2.91,15.44-6.77,22.24-4.5,7.92-13.55,8.91-21.04,12.18-1.01.44-2.18.48-3.25.8q-10.91,3.27-4,11.37c-3.06-.64-6.06-1.36-9.27-1.35-39.55.18-79.08-1.99-118.65-1.56-6.62.07-13.28.52-19.91.24-30.87-1.27-61.75-1.42-92.64-1.34-18.11.05-36.25.61-54.32-.24-9.5-.45-19.02-.07-28.54-.64-7.5-.45-15.4-.83-23.09.7-4.89.98-9.7-1.11-14.65-1.36-12.96-.65-25.94.69-38.8-.08-17.03-1.02-34.03-.96-51.05-1.07-14.28-.09-28.58.3-42.85-.11-13.74-.4-27.54.55-41.17-.21-24.5-1.38-49.02.22-73.41-1.38-13.49-.89-26.85,1.45-40.43-.49-5.97-.85-12.74-.55-19.15-.53-38.43.09-76.84-1.4-115.27-1.78-16.38-.17-33.03.72-49.39-2.24-13.15-2.38-23.77-13.12-26.26-26.28-1.58-8.35-4.31-16.55-1.38-25.12.2-.6.21-1.44-.06-1.99-6-12.25-2.9-25.7-4.43-38.48-1.7-14.22-4.35-29.08-2.58-43.01,1.17-9.16-4.17-17.17-1.04-25.75.28-.77.31-2.11-.16-2.62-5.9-6.36-4.58-14.89-4.32-21.85.28-7.51-1.95-14.61-1.66-21.48.73-17.41-2.35-34.81.54-52.26,1.01-6.1-2.75-12.47-2.7-19.11.14-16.79-4.53-33.36-1.58-50.41.89-5.16-.12-11.18-1.07-16.61-3.28-18.84-1.5-37.71-1.83-56.58-.27-14.85-2.61-29.92-2.13-44.83.43-13.32-4.23-26.38-1.18-39.67Z" style="fill: #e2952b; stroke-width: 0px;"/>
  <path d="M907.41,519.21c-3.86-.81-2.58-3.31-1.97-5.73,3.92-15.53,7.75-31.08,10.78-46.82.67-3.5-.12-7.18,1.6-10.53.79-1.53.65-3.81,2.95-3.95,2.06-.13,3.07,1.65,3.95,3.18,5.36,9.32,10.63,18.68,7.05,30.1.02.89.04,1.78.06,2.67-5.66,12.3-14.82,21.86-24.42,31.07Z" style="fill: #d4670b; stroke-width: 0px;"/>
  <path d="M12.04,756.76c-2.03-5.35-2.03-10.71,0-16.06,0,5.35,0,10.71,0,16.06Z" style="fill: #edb559; stroke-width: 0px;"/>
  <path d="M591.65,702.8c7.58-3.38,13.91-8.63,21.1-11.61,15.96-6.62,31.59-13.61,45.81-23.58,3.61-2.53,8.11-3.75,12.1-5.79,37.8-19.31,75.7-38.41,113.31-58.09,25.85-13.53,52.04-26.44,77.68-40.33,23.81-12.9,47.66-25.96,68.74-43.33,2.88-2.38,6.06-4.73,10.03-5.28,3.67-.51,5.37.59,3.38,4.4-.83,1.58-1.52,3.47-2.84,4.51-15.19,12.11-19.24,28.78-20.18,47.09-.84,16.28-2.5,32.52-3.79,48.77-.09,1.12-.21,2.25-.15,3.37.94,19.78-.25,39.62-1.92,59.18-1.54,17.97-2.56,36.08-5.07,53.98-1.18,8.4-10.45,13.56-14.77,8.5-3.45-4.04-8.02-7.29-10.21-12.42-.52-1.21-1.18-2.7-2.22-3.31-10.4-6.06-11.26-18.21-17.49-26.77-4.94-6.79-6.87-16.3-16.12-19.8-3.27-1.24-4.19-4.02-3.24-7.79,1.62-6.43-.64-8.87-6.21-6.35-5.36,2.42-8.24.29-11.43-3.32-4.17-4.71-6.72-11.29-15.38-10.36-3.33.36-6.19-4.87-10.59-4.97-1.32-.03-2.93-.93-3.89-.43-4.97,2.56-7.34,2.16-7.51-4.33-.08-3.21-3.43-2.8-5.91-1.64-5.73,2.69-11.36,3.14-16.94-.45-.66-.42-2.16-.65-2.53-.26-4.7,4.96-10.55,1.68-15.81,2.45-14.28,2.09-28.65,4.16-41.28,12-1.93,1.2-3.75,2.55-6.08,2.7-11.54.75-21.22,6.52-31.25,11.4-2.81,1.37-5.73,2.61-8.73,3.47-14.72,4.23-28.62,10.66-42.01,17.76-7.92,4.2-16.45,6.67-24.22,10.97-1.14.63-2.35,1.47-4.39-.36Z" style="fill: #edb559; stroke-width: 0px;"/>
  <path d="M96.86,486.64c.02,17.1.05,34.2.07,51.29-11.28-6.36-21.44-14.09-29.79-24.07,2.56-1.68,2.74-4.3,3.08-7.05,1.41-11.52,3.28-22.97,7.1-33.98.82-2.38,1.33-5.64,4.54-6.15,3.45-.55,5.13,2.3,6.85,4.61,3.51,4.68,5.72,10.07,8.15,15.34Z" style="fill: #b43a0a; stroke-width: 0px;"/>
  <path d="M548.45,590.76c-6.3.07-12.6.13-18.9.21-21.13.27-42.28,1.07-63.4.7-29.79-.51-59.56.15-89.34.14-51.24-.02-102.48.1-153.71.14-11.43,0-21.46-2.6-26.2-14.64,1.66-4.48,4.4-3.13,6.69-.89,6.09,5.96,13.79,7.19,21.67,7.51,42.64,1.73,85.33.57,127.96,1.79,22.89.65,45.82-.48,68.62,1.17,35.9,2.59,71.82-.12,107.7,1.5,6.45.29,12.84-.37,18.91,2.37Z" style="fill: #3c52b0; stroke-width: 0px;"/>
</svg>