<?xml version="1.0" encoding="UTF-8"?>
<svg id="Layer_1" data-name="Layer 1" xmlns="http://www.w3.org/2000/svg" viewBox="0 0 1248.25 875.52">
  <path d="M1111.34,4.81c18.15.29,36.23,1.16,53.9,5.84,1.45.38,2.79,1.19,4.19,1.8-5.72,6.41-13.75,8.38-21.48,9.98-13.31,2.74-26.9,2.77-40.44,1.23-7.83-.89-15.54.91-23.36.89-56.51-.18-113.02-.29-169.53,0-20.76.11-41.58,1.58-62.28.84-23.93-.86-47.8.45-71.68.45-34.08,0-68.19-.24-102.3.48-13.68.29-27.51.31-41.24.3-17.35-.02-34.74-1.36-52.15.43-14.75,1.52-29.7,1.15-44.48.11-8.66-.61-17.14.57-25.71.48-34.62-.37-69.27-.75-103.86.19-47.9,1.3-95.78.81-143.67,1.44-36.38.48-72.76,1.79-109.1,3.3-17.07.71-34.29,2.06-51.14,5.75-5.11,1.12-10.12,2.52-14.87,4.69-7.91,3.61-8.16,6.67-1.03,11.94,8.05,5.95,17.47,6.62,26.87,6.11,38.43-2.08,76.83-4.5,115.33-5.76,35.63-1.17,71.26-2.14,106.89-3.2,18.73-.56,37.47-.35,56.17-1.18,41.89-1.87,83.84-.23,125.69-1.78,64.83-2.4,129.64-.37,194.45-1.28,21.58-.3,43.12-2.28,64.73-1.35,11.69.5,23.34,1.81,35.08,1.37,66.33-2.5,132.69-2.04,199.03-1.28,34.08.39,68.2.42,102.25,1.66,14.61.53,29.07-1.14,43.62-.44,13.34.64,17.34,6.41,12.16,18.72-3.37,8.02-8.69,14.79-14.61,21.05-19.69,20.82-42.12,38.64-63.32,57.82-21.59,19.52-43.96,38.13-65.91,57.22-20.58,17.9-41.44,35.51-61.98,53.46-18.2,15.91-37.19,30.92-54.58,47.72-.58.58-1.22,1.12-1.86,1.64-16.08,11.32-30.46,24.77-45.22,37.66-10.31,9.01-21.08,17.5-31.02,26.93-.49.53-1.04,1.01-1.59,1.47-7.26,6.21-15.49,11.27-21.89,18.5-.42.58-.9,1.1-1.41,1.59-3.2,2.67-6.86,4.79-9.63,7.98-.43.55-.93,1.05-1.45,1.51-3.2,2.61-6.79,4.74-9.54,7.9-.44.54-.94,1.03-1.47,1.47-2.83,1.87-6.1,3.2-7.94,6.33-.81,1.15-1.71,2.22-2.85,3.07-2.94,1.77-6.15,3.18-8.09,6.25-.44.55-.95,1.03-1.5,1.46-3.19,1.45-6.05,3.31-7.89,6.42-.82,1.17-1.74,2.25-2.95,3.04-4.75,1.81-8.05,5.35-11.02,9.29-.43.57-.94,1.06-1.49,1.5-2.45,1.28-5.02,2.41-6.46,5-1.23,1.74-2.55,3.39-4.4,4.52-3.25,1.24-6.01,3.14-8.01,6.05-.65.81-1.41,1.51-2.26,2.1-1.13.75-2.36,1.32-3.62,1.82-2.58.83-4.47,2.74-6.59,4.29-4.17,2.62-7.07,6.71-11.02,9.59-15.45,11.45-28.58,25.96-45.74,35.1-16.21,8.63-32.76,10.38-49.73,1.66-13.81-7.09-25.2-17.44-37.29-26.86-30.77-23.98-59.5-50.4-89.6-75.18-27.49-22.63-53.84-46.64-81.53-69.02-18.62-15.05-36.7-30.72-54.68-46.45-14.28-12.5-28.74-24.82-43.18-37.11-18.8-16.01-36.98-32.73-56.08-48.41-19.29-15.84-37.79-32.67-55.73-50.03-20.02-19.37-40.91-37.75-61.61-56.34-5.61-5.04-11.91-9.23-18.75-12.6-12.87-6.33-23.31-15.63-31.81-27.08-7.01-9.44-6.87-9.51-17.07-4.45-.59.29-1.35-.6-1.86-1.23-2.36-7.24,1.36-12.43,5.61-17.62,12.53-15.26,29.3-21.77,48.29-24.07,16.81-2.03,33.73-2.29,50.59-3.14,37.4-1.89,74.9-.93,112.29-2.26,45.8-1.62,91.57-.35,137.35-1.11,36.91-.61,73.8-1.77,110.72-1.51,66.84.46,133.7.62,200.53-.36,53.83-.8,107.66-.46,161.47-1.56,35.88-.73,71.79-.09,107.61-1.63,34.76-1.49,69.58-2.55,104.27-5.65,5.09-.45,10.37-.92,15.48.53Z" style="fill: #f3c466; stroke-width: 0px;"/>
  <path d="M756.5,436.13c.54-1.03,1.08-2.06,1.62-3.09,3.35-1.74,6.06-4.41,9.32-6.28,0-.51.03-1.02.06-1.53,3.28-1.84,6.37-3.97,9.32-6.29.54-1.03,1.08-2.06,1.62-3.08,3.28-1.84,6.36-3.98,9.32-6.28,0-.51.03-1.02.06-1.53,4.34-1.62,7.3-5.16,10.87-7.86,0-.51.03-1.01.06-1.52,4.35-1.61,7.3-5.17,10.88-7.85,0-.51.03-1.01.06-1.52,8.58-5.28,15.73-12.35,23.39-18.79.01-.51.03-1.01.06-1.52,9.24-4.81,16.58-12.19,24.18-18.99,17.17-15.36,35.11-29.82,52.34-45.1h0c13.05-11.06,25.74-22.52,38.87-33.48,19.3-16.11,37.87-33.08,57.11-49.28,15.48-13.04,30.61-26.49,45.99-39.65,21.68-18.55,42.97-37.54,64.43-56.35,14.65-12.84,29.23-25.74,43.01-39.49,8.47-8.45,16.2-17.61,21.11-28.77,2.76-6.26,3.52-12.44.03-18.73-2.23-4.01-3.7-8.15-.09-12.28,3.75-4.29,8.16-3.84,12.8-1.86,9.66,7.83,18.82,16.07,26.66,25.89,11.3,14.16,18.95,29.68,21.13,47.75-3.6.13-3.87,2.71-4.1,5.43-.86,10.38-.68,20.75.58,31.08.54,4.42,1.26,8.82.12,13.18-4.05,15.56-3.59,31.41-3.5,47.29.08,14.55.89,29.15-1.33,43.65-.47,3.07-.45,6.28.09,9.35,2.69,15.3-.44,30.57-.07,45.86.42,17.4-.13,34.84-.6,52.23-.42,15.83-1.88,31.67-1.93,47.51-.09,27.56-1.66,55.07-2.47,82.6-.55,18.7-.96,37.42-2.58,56.08-.25,2.88-.17,5.72.29,8.56.5,3.09,1.21,6.25.77,9.32-3.48,24.27-2.86,48.76-3.92,73.14-1.16,26.76-5.25,53.29-5.46,80.12-.16,20.59-3.07,40.93-7.83,60.99-2.86,12.04-9.62,21.04-20.13,27.59-7.27,4.54-7.09,4.83-2.25,11.77,5.03,7.2,3.64,9.26-5.28,11.17-7.82,1.67-15.28,5.44-23.47,1.89-5.54-1.48-10.93-3.36-16.34-5.26-19.96-7.02-40.55-8.58-61.54-6.92-17.63,1.39-35.31,3.22-52.93,3.35-37.48.26-74.92,2.83-112.38,2.2-23.92-.4-47.83.13-71.73,0-19.97-.11-40.02.06-60.01.45-19.62.39-39.46-.62-59.13-.39-19.18.22-38.42-1.72-57.61.93-7.42,1.02-15.08.56-22.57-.79-3.34-.6-6.77-.82-10.12-.47-29.67,3.06-59.2-1.1-88.79-1.84-25.2-.63-50.34-4.86-75.51-4.11-24.53.73-48.81-1.21-73.18-2.42-7-.35-14.03-.23-21.01-.27-28.39-.18-56.27-7.19-84.8-5.6-22.93,1.28-45.65-2.9-68.49-4.16-12.03-.66-23.83,1.98-35.84,1.22-32.84-2.08-63.88,7.35-95.13,15.34-3.24.83-6.28,2.68-9.82,1.57-2.39-4.35,1.5-5.5,3.91-6.55,16.29-7.12,30.69-17.49,46.04-26.19,19.07-10.81,39.91-17.77,60.43-25.23,8.27-3.01,17.14-4.41,25.14-8.35,11.57-5.69,23.58-1.5,35.34-1.32,8.08.13,16.07,1.02,24.03-1.01,2.02-.52,4.15-1.08,6.18-.64,19.15,4.18,38.37-.91,57.57.6,20.46,1.62,41.02,1.55,61.55,1.74,2.61.02,5.41-.04,7.64,1.28,6.99,4.13,15.13,3.43,22.36,5.62,12.65,3.83,25.19.6,37.72,2.25,35.8,4.71,72.03,3.22,107.96,6.95,13.53,1.4,27.61.33,41.23-1.36,9.57-1.19,18.57,1.67,27.95,1.03,28.39-1.93,56.58,1.74,84.85,3.43,19.97,1.19,39.71,5.24,59.86,4.25,14.09-.69,28.09.64,41.85,3.87,6.81,1.59,13.47-.53,20.2-.36,40.28,1.02,80.57.53,120.84,1.28,18.95.35,37.85,2.76,56.79,3.76,17.51.93,34.59,3.7,51.68,7.33,16.65,3.54,32.67,8.7,48.12,15.78,7.37,3.38,14.82,6.53,23.23,5.44,5.49-1.2,3.89-4.37,2.14-7.61-3.64-6.75-8.92-12.11-14.47-17.27-3.25-3.02-6.47-6.14-7.89-10.5-1.16-3.56.31-5.03,3.9-3.94,3.83,1.16,6.7,3.95,9.86,6.22,13.91,9.98,28.47,6.14,34.44-10.09,5.59-15.19,7.93-31.2,9.05-47.39,2.14-30.87,2.55-61.82,5.64-92.65,1.47-14.72,1.61-29.62,1.9-44.42.69-34.34,3.14-68.57,4.71-102.86.39-8.56-.13-17.14-.16-25.69-.06-23.7,1.43-47.33,2.03-71,1.07-41.85,1.13-83.73,4.34-125.51.78-10.12-1.78-20.16-1.35-30.38.88-20.74,1.68-41.52,1.41-62.27-.25-19.26.53-38.5.2-57.75-.09-5.48-.65-10.89-1.37-16.32-.98-7.39-4.29-12.72-11.54-15.17-2.29-.98-2.82-2.83-2.35-5.87-7.4,7.41-14.45,14.27-21.29,21.34-15.95,16.49-33.93,30.69-51,45.92-23.87,21.29-48.66,41.5-72.31,63.04-14.21,12.95-29.04,25.25-43.74,37.67-22.24,18.79-43.93,38.24-66.19,57.02-21.07,17.77-41.78,35.97-62.53,54.1-28.01,24.47-56.75,48.06-84.8,72.48-16.07,14-32.19,27.98-48.8,41.38-27.32,22.04-53.69,45.24-81.17,67.1-21.1,16.79-47.49,17.41-69.16,1.17-6.04-4.53-11.86-9.33-17.68-14.14-2.32-1.91-5.22-3.94-2.64-7.68,3.74-1.21,5.63,1.74,8.05,3.55,8.49,6.36,15.99,14.46,25.99,18.27,21.86,8.33,41.16,2.7,58.11-12.65.96-.87,1.9-1.77,2.86-2.64,2.51-2.66,5.24-5.07,8.41-6.93,3.18-1.31,5.65-3.48,7.54-6.35,1.2-1.18,2.38-2.37,3.84-3.24,2.86-1.11,4.91-3.31,7.13-5.3.52-.47,1.08-.88,1.66-1.26,3.01-1.92,5.58-4.31,7.84-7.06.63-.89,1.42-1.58,2.36-2.12,3.31-1.48,5.63-4.23,8.28-6.54.49-.49,1.03-.92,1.59-1.31,2.23-1.4,4.86-2.33,6.12-4.94.53-.53,1.06-1.05,1.6-1.58,3.35-1.74,6.07-4.4,9.32-6.29,1.06-1.55,2.13-3.1,3.19-4.64,2.54-1.64,5.3-2.94,7.75-4.74,0-.51.03-1.01.06-1.52,4.85-2.21,7.7-7.06,12.45-9.41Z" style="fill: #eeae38; stroke-width: 0px;"/>
  <path d="M1144.54,869.35c-22.4,3.8-45.07,3.5-67.65,4.05-139.57,3.4-279.16,1.61-418.74,1.91-110.42.23-220.84,0-331.26-.04-3.12,0-6.23-.2-9.35-.31,1.12-4.49-2.14-3.52-4.55-3.7-21.5-1.61-43.04-2.27-64.57-3.26-20.48-.94-40.95-2.77-61.36-5.35-15.17-1.92-30.65-1.52-45.83-3.94-19.76-3.14-39.71-5.32-58.67-12.51-9.7-3.68-18.33-.06-26.17,5.86-15.26-13.16-30.78-26.09-39.27-45.14,1.78-6.58,5.91-10.56,12.46-9.93,10.66,1.04,20.7,4.34,28.78,11.95.74,4.76-3.57,7.12-5.13,10.79-2.09,4.9-6.46,9.53-2.04,15.26,12.86-11,29.39-12.77,44.63-17.36,8.97-2.7,18.59.49,27.85,1.63,30.19,3.71,60.36,7.1,90.82,8.48,39.49,1.79,79.03,1.74,118.5,4.15,21.27,1.3,42.68,1.5,63.96,1.5,58.31,0,116.57,2.76,174.88,2.01,25.43-.32,50.84,1.13,76.31.93,25.71-.2,51.52.53,77.27.38,21.31-.13,42.63.41,63.9-.14,22.61-.6,45.26-1.85,67.78-.33,18.83,1.27,37.42-1.29,56.13-.93,48.68.95,97.3-2.06,145.97-1.76,28.63.18,57.1-3.88,85.75-2.96,8.37.27,16.63.85,24.4,4.3,2.26,1.57,1.98,3.56.37,5.21-4.54,4.64-7.55,10.35-11.34,15.51-2.94,4-7.57,6.15-12.26,7.67-4.04,1.31-3.82,3.33-1.55,6.06Z" style="fill: #be6425; stroke-width: 0px;"/>
  <path d="M1192.92,25.02c-2.08.07-4.18-.02-6.23.24-5.86.74-9.13,5.6-6.02,10.34,7.74,11.8,3,22.1-3.41,31.83-7.71,11.71-17.73,21.38-28.26,30.77-12.17,10.85-24.17,21.92-36.44,32.67-19.05,16.69-38.4,33.03-57.3,49.88-15.46,13.77-31.18,27.2-47.01,40.54-25.11,21.16-49.22,43.49-74.81,64.1-6.04,4.87-11.62,10.31-17.4,15.5-1.9,1.71-3.37,4.08-6.38,4.01,10.03-12.41,23.25-21.38,34.9-32.03,12.99-11.87,26.67-23,40.13-34.36,23.95-20.22,46.83-41.67,71.52-61.04,10.18-7.99,19.65-16.91,29.15-25.72,23.39-21.71,48.82-41.18,70.77-64.45,7.14-7.57,13.76-15.6,16.73-25.91,2.2-7.62-.12-11.23-7.87-11.09-10.09.19-20.16-.65-30.32,1.12-6.17,1.07-12.83-1.08-19.28-1.13-23.17-.18-46.39.88-69.51-.26-59.82-2.95-119.64-.92-179.46-1.09-19.81-.06-39.69,1.24-59.54,1.18-17.26-.05-34.56-1.96-51.77-1.28-72.31,2.88-144.66-.37-216.94,1.78-35.37,1.05-70.76-.65-106.02,1.48-26.27,1.58-52.56-.43-78.69,1.54-22.63,1.71-45.22.21-67.77,1.37-27.62,1.42-55.23,2.72-82.9,3.26-26.64.52-53.27,2.57-79.85,4.65-10.48.82-20.52,1.12-30.06-3.88-4.9-2.57-10.88-5.89-10.76-11.25.13-5.71,7.46-6.55,12.06-8.19,11.98-4.28,24.52-5.59,37.24-6.88,33.35-3.37,66.77-3.33,100.18-4.64,43.29-1.7,86.57-1.08,129.85-1.2,18.19-.05,36.26-2.11,54.48-1.82,34.27.54,68.55.15,102.83.15,18.61,0,37.23-.2,55.84.08,10.15.15,20.23-3.4,30.23-1.46,13.88,2.69,27.98.92,41.59.62,42.01-.93,84.01.11,125.99-.98,10.85-.28,21.62.68,32.45.25,18.92-.76,37.86-1.45,56.79-1.54,46.6-.22,93.19-.08,139.79-.09,28.38,0,56.8.96,85.12-.34,19.35-.89,38.67,2.29,58.04-.96,8.91-1.49,16.25-6.47,24.81-8.33,8.59,2.78,16.55,6.71,23.49,12.56Z" style="fill: #f1ba42; stroke-width: 0px;"/>
  <path d="M676.84,503.36c-2.61,2.08-5.21,4.16-7.82,6.25-3.44,2.75-7,5.35-10.47,8.07-17.87,13.98-40.71,15.1-59.5,2.11-17.35-11.99-33.71-25.38-49.65-39.13-23.25-20.05-46.9-39.63-70.06-59.78-25.12-21.85-50.64-43.23-75.72-65.14-22.13-19.33-44.85-37.99-67.13-57.17-9.07-7.81-17.78-16.03-27.11-23.53-2.25-1.81-4.42-3.67-7.59-3.36-8.93-4.53-15.86-11.73-23.25-18.16-43.36-37.74-86.54-75.68-130.12-113.18-21.29-18.32-42.77-36.41-64.41-54.31-2.12-1.75-6.33-7.22-6.49,1.54,10.74,19.48,8.05,41.6,12.32,62.34-.26,9.75,3.06,18.73,5.97,27.81,1.56,4.87,3.95,9.61,2.77,15-11.53,22.15-15.8,46.5-16.93,70.71-.62,13.37-3.51,26.47-3.6,39.99-.07,11.14-.36,23.42-5.74,34.23-.69,1.39-1.2,3.09-.84,4.55,2.57,10.44-1.76,21.13,1.64,31.7,2.11,6.55-1.93,9.51-8.81,7.85-14.46-3.49-16.72-1.68-16.14-21.68.5-17.19-3.68-33.84-4.16-50.92-.49-17.56-2.04-35.15-4.04-52.61-1.36-11.89-2.13-23.7-1.86-35.62.06-2.66.07-5.97-3.06-6.32-3.01-.34-3.05,3.13-3.39,5.26-1.49,9.5-1.97,19.12-3.28,28.66-1.33,4.88-.62,9.85-.62,14.77.01,9.39-.42,18.68-2.27,27.95-2.2,11.03.27,22.2-.53,33.42-2.36,32.93-1.98,66.03-3.8,98.98-1.55,28.11-.14,56.22-1.45,84.27-1.58,33.78-2.35,67.57-3.4,101.36-.6,19.24-.96,38.48-1.05,57.72-.14,32.26-1.57,64.47-3.32,96.66-.22,3.99.08,8.58-5.3,9.97-2.09-3.32-1.51-7.1-1.86-10.72-1.19-2.48-.66-5.13-.6-7.69.62-27.03-1.11-54.08.03-81.06,2.13-50.46.24-100.93,1.66-151.36,1.14-40.58.46-81.15,1.49-121.7.87-34.04.24-68.13,1.75-102.11,1.12-25.24-.07-50.48,1.36-75.65,2.17-38.12.77-76.45,7.02-114.35,2.81-17.08,10.47-31.46,21.17-44.52,5.74-7,8.06-7.13,15.42-1.53,1.76,1.34,3.24,2.64,5.49,1.24-.27-3.26.92-6.08,4.23-6.46,4.75-.54,8.53,2.03,11.01,5.92,7.12,11.15,16,20.76,27.63,26.9,24.51,12.95,43.27,32.77,63.43,51.01,32.24,29.19,63.44,59.5,97.27,86.99,18.05,14.67,34.79,31.07,52.82,45.86,26.84,22.01,51.89,46.08,79.3,67.46,19.59,15.28,38.03,32.05,56.71,48.47,16.74,14.71,34.07,28.68,51.28,42.82,16.36,13.45,31.78,28.04,47.91,41.79,8.46,7.21,17.65,13.56,26.34,20.52,10.53,8.44,21.15,16.59,33.34,22.67,13,6.49,26.05,4.05,38.25-.5,14.96-5.58,26.28-17.29,38.5-27.32,4.54-3.72,8.42-8.41,14.24-10.4.13.33.26.67.39,1-1.37,3.09-4.09,4.87-6.62,6.83h0c-2.93,1.68-4.97,4.47-7.82,6.25-1.5.58-2.54,1.62-3.13,3.12-2.91,1.7-4.96,4.47-7.81,6.25Z" style="fill: #e8ab5c; stroke-width: 0px;"/>
  <path d="M1158.08,815.88c7.12.94,14.41,2.88,20.31-3.5.35-.38,1.46-.01,2.21-.1,2.31-.26,5.1,3.52,6.77,0,1.66-3.5-1.81-5.57-3.9-7.76-6.83-7.15-7.13-7.66,2.02-12.41,17.86-9.26,21.07-26.05,24.27-43.45,3.35-18.17,4.01-36.45,4.77-54.82.73-17.53,3.4-34.98,4.27-52.51.87-17.61,2.75-35.21,1.82-52.89-.48-9.12.58-18.08,2.69-26.97.53-2.23.66-4.7.36-6.97-2-14.98-.27-29.95.17-44.89.94-31.88,2.87-63.73,3.1-95.64.11-14.77.53-29.57,1.58-44.3,1.91-26.79,1.68-53.67,1.99-80.44.15-13.18,2.18-26.48.02-40.09-2.41-15.21,1.59-30.95,1.17-46.57-.53-19.57-1.5-39.27,4.14-58.47.46-1.58-.28-3.53-.56-5.29-2.35-15.2-1.93-30.35.02-45.83,3.36,1.04,2.59,4.99,5.4,5.66.61,3.63,1.21,7.26,1.82,10.89,1.91,6.69-.39,13.65,1.3,20.35.13,3.04.26,6.07.4,9.11,1.51,4.16-.28,8.59,1.08,12.76.17,10.84.34,21.69.5,32.53,1.28,17.84.19,35.7.59,53.55.07,3.08-.6,6.22.59,9.23.13,24.39.26,48.78.39,73.18.89,1.99.54,4.11.54,6.17.02,74.73.02,149.46,0,224.18,0,2.06.33,4.17-.52,6.18.02,67.14.1,134.29-3.9,201.34-.63,10.5-1.41,21.22-5.71,31.17-12.65,9.9-21.88,23.69-36.14,31.71-1.88,1.06-1.91,1.64-.93,3.39,1.47,2.62,1.72,5.44-.56,7.95-17.41,8.62-34.24,4.76-45.37-10.38-2.94-3.99-2.22-5.32,3.29-6.07Z" style="fill: #e5971d; stroke-width: 0px;"/>
  <path d="M59.59,64.17c-1.23,6.14-3.87,5.16-7.05,1.39-5.71-6.79-6.57-6.55-12.33.23-15.67,18.44-21.02,40.31-22.94,63.79-2.14,26.13-2.17,52.31-3.43,78.44-.83,17.14-.87,34.24-1.04,51.35-.3,30.9-1.44,61.79-1.97,92.69-.75,43.17-.3,86.36-1.47,129.51-1.49,55.15-.06,110.32-1.76,165.42-.92,29.62.06,59.23-1.38,88.8-.44,9.03-.98,18.08-1.43,27.13-1.35-1.49-1.32-3.34-1.29-5.16.28-19.26-1.62-38.43-2.03-57.68C-1.05,580.85.47,461.63.29,342.41c1.9-13.38,1.27-26.9,1.29-40.3.05-33.58.22-67.18,1.37-100.71,1-29.3.99-58.69,4.36-87.92,2.7-23.4,12.67-43.23,27.53-60.97,2.93-3.5,6.39-6.38,11.49-3.99,2.45,1.15,3.84.01,5.07-2.02,10.38-17.14,26.82-24.69,45.51-28.56,13.3-2.75,26.9-3.9,40.35-4.13,19.26-.33,38.48-1.47,57.72-2.15,61.14-2.15,122.32.11,183.42-1.67,81.75-2.38,163.49-.47,245.23-1.23,41.38-.38,82.75-1.29,124.12-1.95,43.91-.7,87.81-3.02,131.68-5.6,14.2-.83,28.57-1.07,42.82.48,30.7.08,61.41.17,92.11.25,12.34,1.42,24.73.2,37.09.64,3.33.12,6.71-.61,9.98.56,13.91.09,27.83.14,41.74.32,2.75.04,5.72-.74,8.17,1.33-24.46,2-48.9,4.3-73.39,5.79-5.52.34-11.15.06-16.77.46-31.67,2.27-63.43.7-95.1,1.84-51.63,1.86-103.28.07-154.88,1.61-66.17,1.98-132.33.78-198.49,1.29-26.58.2-53.17-.55-79.73.14-68.03,1.76-136.08.63-204.1,1.82-26.97.47-53.96.48-80.93,1.26-26.58.76-53.18,1.55-79.7,3.33-9.95.67-19.98,2.08-29.94,3.92-15.5,2.86-25.96,12.44-35.79,23.2-3.52,3.85-6.62,8.89-2.94,14.7Z" style="fill: #e8bc98; stroke-width: 0px;"/>
  <path d="M922.25,1.7c-28.09-1.79-56.01,1.89-83.9,3.7-25.41,1.65-50.83,1.29-76.13,2.97-25.49,1.69-50.91.35-76.35,1.23-96.02,3.32-192.1-.28-288.1,1.95-50.71,1.18-101.39.22-152.08,1.18-22.71.43-45.48.16-68.1,1.77-26.81,1.91-53.92.32-80.42,6-19.54,4.19-37.3,11.15-45.36,31.84-1.34,3.44-3.43,3.12-4.86.28-2.37-4.68-4.95-4.8-8.19-1.07-16.01,18.42-26.92,39.04-29.23,63.87-2.24,24.05-2.39,48.14-3.48,72.21-.75,16.62.26,33.28-1.3,49.78-2.12,22.33-.42,44.68-1.57,66.97-.57,11.01-.72,22.02-1.35,33.02-.1,1.81.13,3.68-1.52,5.01.02-47.65-.29-95.31.21-142.95.28-26.73,1.68-53.45,3-80.16,2.25-45.25,22.89-79.45,62.48-101.83,12.17-6.88,25.6-9.64,39.37-10.96,30.02-2.88,60.18-2.26,90.25-3.59,41.38-1.83,82.73-.48,124.08-1.17,196.81-3.28,393.62-.87,590.44-1.36,4.03-.01,8.34-1.35,12.13,1.31Z" style="fill: #f0d0b3; stroke-width: 0px;"/>
  <path d="M6.66,773.62c2.01-1.89,3.03-4.26,2.91-6.97-.56-12.48,1.37-24.83,1.85-37.27,1.38-35.85.2-71.74,1.72-107.53.86-20.26-.23-40.54,1.32-60.7,3.13-40.7,2.12-81.46,3.25-122.17.85-30.31,2.12-60.63,3.29-90.93.42-10.96-.08-22.21,2.36-33.23,1.61-7.29-3.04-14.92-.89-22.34,2.87-9.92,2.75-19.96,2.83-30.08.04-5.12-1.2-10.44,1.49-15.33,5.65,1.05,5.91,5.87,6.79,10.05,2.21,10.47,2.86,21.22,3.05,31.78.5,28.1,3.93,55.97,5.14,84,1.45,33.43,3.57,66.85,6.5,100.15,2.53,28.69,4.42,57.43,7.1,86.11.9,9.57.74,19.19,1.43,28.79,1.61,22.54,6.92,44.58,7.5,67.34.34,13.22,5.65,26.34,7.29,39.76,1.02,8.35,4.23,16.7,1.04,25.25-3.17,1.4-4.14-1.05-5.15-3.1-7.55-15.42-11.3-32.27-17.91-48.06-1.71-4.09-2.21-8.72-1.45-13.08,1.6-9.22-.45-18.05-1.61-27.08-2.83-22.13-4.77-44.36-6.48-66.61-1.49-19.44-1.14-39.06-3.66-58.33-1.69-12.97-2.73-26.06-4.23-40.68-2.36,3.7-1.62,6.02-1.52,8.19.66,14.35-1.11,28.54-2.42,42.79-1.71,18.62-2.11,37.32-2.58,56.02-.95,38.13-.14,76.28-2.24,114.43-1.15,20.98-2.25,42.06-2.11,63.13.08,11.43.63,22.9-1.89,34.18-1.56,5.47-2.64,11.16-6.91,15.42-3.79-7.52-5.74-15.48-5.82-23.89Z" style="fill: #dd9652; stroke-width: 0px;"/>
  <path d="M56.39,852.06c3.24-7.34,15.16-12.53,24.52-8.83,21.93,8.68,45.25,10.21,68.02,14.54,5.82,1.11,12,1.37,17.73,1.31,14.62-.14,28.82,2.95,43.28,3.78,15.19.87,30.33,3.51,45.51,3.66,9.76.1,19.45-.2,29.23.76,11.83,1.17,23.78,1.19,35.67,1.77,1.21.06,2.4.61,4.73,1.24-3.12,1.92-5.33,3.29-7.54,4.65-11.01,0-22.01,0-33.02-.01-17.27-1.11-34.55-.16-51.83-.52-3.07-.06-6.19.56-9.21-.54-13.52-.17-27.03-.34-40.55-.5-10.42-1.45-20.95.48-31.37-1.03-6.22-.17-12.45-.34-18.67-.51-4.66-1.38-9.53.32-14.19-1-22.39-.9-44.38-3.1-62.32-18.78Z" style="fill: #96441e; stroke-width: 0px;"/>
  <path d="M12.48,797.52c.42-5.26,3.35-9.66,4.98-14.51,2.34-5.74,2.39-12.23,5.9-17.59,3.8-5.8,6.35-6.39,12.11-2.55,4.14,2.76,7.68,6.21,11.12,9.75,7.85,8.08,17.2,11.3,28.35,8.89,2.54-.55,5.14-.81,7.72-1.12,2.65-.32,5.38-.52,5.95,3.17-7.5,11.69-17.83,20.12-30.25,26.12-7.65-4.46-15.77-7.85-24.24-10.35-7.7-2.28-13.04,1.22-17,7.59-1.55-3.14-3.09-6.27-4.63-9.41Z" style="fill: #da8224; stroke-width: 0px;"/>
  <path d="M1200.23,831.5c-3.88-9.1,2.02-12.68,8.41-17.41,8.85-6.54,15.24-16.06,24.43-22.47,1.5-1.04,2.77-2.31,4.72-2.34-8.02,25.16-23.92,44.2-44.44,60.47-10.76,8.53-21.98,14.67-35.12,17.79-2.99,1.69-6.52-.38-9.5,1.36-1.39.15-2.79.31-4.18.46-2.17-.52-5.12-.13-5.49-3.22-.33-2.77,2.53-3.08,4.22-3.63,8.5-2.76,15.01-7.33,18.57-16.06,1.5-3.67,5.17-6.37,8.66-8.7,5.88-2.04,12.03-1.06,18.05-1.5,4.48-.33,8.85-.52,11.68-4.75Z" style="fill: #c05e14; stroke-width: 0px;"/>
  <path d="M1247.41,556.78c-.12-2.85-.35-5.71-.35-8.56-.03-72.87-.04-145.75-.02-218.62,0-3.11.23-6.23.35-9.35.29,2.03.83,4.05.83,6.08.05,74.79.05,149.58.01,224.36,0,2.03-.53,4.06-.81,6.09Z" style="fill: #f1ba42; stroke-width: 0px;"/>
  <path d="M1246.99,247.07c-1.28-1.17-1.36-2.72-1.36-4.3.06-19.49.12-38.98.18-58.48,2.33,14.39.88,28.91,1.36,43.36.21,6.46-.1,12.94-.18,19.41Z" style="fill: #f1ba42; stroke-width: 0px;"/>
  <path d="M223.48,873.89c19.16-.06,38.33-.15,57.49-.14,1.18,0,2.36.78,3.54,1.19-20.36.19-40.72.82-61.04-1.05Z" style="fill: #be6425; stroke-width: 0px;"/>
  <path d="M1061.43,3.16c-14,.05-28,.11-42.01.16-1.81,0-3.67.16-5.07-1.37,13.98-.03,27.96-.06,41.94-.09,1.82,0,3.65-.04,5.13,1.3Z" style="fill: #f0d0b3; stroke-width: 0px;"/>
  <path d="M151.56,872.35c10.47-.04,20.99-1.55,31.37,1.03-10.47.13-20.96.56-31.37-1.03Z" style="fill: #be6425; stroke-width: 0px;"/>
  <path d="M1243.83,129.89c-2.84-6.63-.95-13.56-1.3-20.35,2.36,6.66,1.28,13.54,1.3,20.35Z" style="fill: #f1ba42; stroke-width: 0px;"/>
  <path d="M118.7,870.84c4.77-.19,9.61-1.36,14.2,1-4.78.33-9.54.43-14.2-1Z" style="fill: #be6425; stroke-width: 0px;"/>
  <path d="M1245.31,151.77c-2.48-4.07-1.13-8.47-1.08-12.76,1.7,4.14,1.32,8.46,1.08,12.76Z" style="fill: #f1ba42; stroke-width: 0px;"/>
  <path d="M1148.73,868.89c2.86-2.62,6.3-1.17,9.5-1.36-2.97,1.83-6.26,1.44-9.5,1.36Z" style="fill: #be6425; stroke-width: 0px;"/>
  <path d="M909.65,304.89c-8.72,11.06-20.44,18.86-30.76,28.17-12.43,11.21-25.61,21.6-38.35,32.47-2.23,1.9-4.2,3.88-7.41,3.45,21.31-18.46,42.52-37.04,64.05-55.25,3.83-3.24,7.13-7.59,12.47-8.84Z" style="fill: #f1ba42; stroke-width: 0px;"/>
  <path d="M833.07,370.51c-6.64,7.7-13.13,15.59-23.39,18.79,6.76-7.56,14.61-13.75,23.39-18.79Z" style="fill: #f1ba42; stroke-width: 0px;"/>
  <path d="M756.5,436.13c-3.46,4.04-5.92,9.41-12.45,9.41,3.45-4.06,5.94-9.39,12.45-9.41Z" style="fill: #f1ba42; stroke-width: 0px;"/>
  <path d="M733.05,456.44c-2.17,3.49-4.54,6.67-9.32,6.29,2.18-3.47,4.58-6.6,9.32-6.29Z" style="fill: #f1ba42; stroke-width: 0px;"/>
  <path d="M767.44,426.76c-2.18,3.47-4.54,6.67-9.32,6.28,2.18-3.47,4.58-6.61,9.32-6.28Z" style="fill: #f1ba42; stroke-width: 0px;"/>
  <path d="M706.52,478.36c-.52.52-1.04,1.04-1.56,1.55-1.04.87-2.08.97-3.12,0,0,0,0-.01,0-.01,3.09-3.77,5.61-8.21,10.94-9.37.13.33.26.67.39,1-1.37,3.09-4.09,4.87-6.64,6.82Z" style="fill: #e8ab5c; stroke-width: 0px;"/>
  <path d="M798.69,400.19c-2.81,3.74-5.18,8.11-10.88,7.86,3.1-3.35,6.32-6.52,10.88-7.86Z" style="fill: #f1ba42; stroke-width: 0px;"/>
  <path d="M809.63,390.81c-2.82,3.74-5.18,8.11-10.88,7.85,3.11-3.34,6.32-6.53,10.88-7.85Z" style="fill: #f1ba42; stroke-width: 0px;"/>
  <path d="M776.81,418.94c-2.18,3.48-4.54,6.67-9.32,6.29,1.95-3.81,5.29-5.57,9.32-6.29Z" style="fill: #f1ba42; stroke-width: 0px;"/>
  <path d="M787.76,409.57c-2.18,3.46-4.55,6.66-9.32,6.28,1.95-3.81,5.28-5.58,9.32-6.28Z" style="fill: #f1ba42; stroke-width: 0px;"/>
  <path d="M743.99,447.06c-1.56,3.25-3.99,5.08-7.75,4.74,1.57-3.24,4.03-5.02,7.75-4.74Z" style="fill: #f1ba42; stroke-width: 0px;"/>
  <path d="M722.14,464.31c-.44,3.71-2.55,5.77-6.23,6.24-1.02-2.93,1.86-3.27,3.11-4.7,1.04-.52,2.08-1.03,3.12-1.55Z" style="fill: #f1ba42; stroke-width: 0px;"/>
  <path d="M719.02,465.86c-1.04,1.57-2.08,3.13-3.11,4.7,0,0,0,0,0,0-1.05.85-2.09.96-3.13-.01,0,0,0-.01,0-.01,1.39-2.49,3.09-4.56,6.26-4.68Z" style="fill: #e8ab5c; stroke-width: 0px;"/>
  <path d="M58.35,809.69c10.1-8.01,20.06-16.18,29.32-25.16,6.17-10.01,15.79-16.43,24.85-23.28,27.6-20.89,54.4-42.7,79.93-66.07,17.83-16.33,36.48-31.75,54.46-47.91,28.79-25.88,58.09-51.2,87.4-76.49,23.82-20.55,47.91-40.8,72.07-60.97,15.4-12.86,31.35-24.92,47.42-36.87,2.3-1.71,4.58-3.45,7.08-4.85,7.66-4.27,11.21-2.46,12.33,6.38.73,5.79,3.9,10.21,7.92,13.98,14.21,13.35,28.28,26.84,43.07,39.58,10.62,9.15,20.15,19.61,31.95,27.31,20.63,13.45,42.8,21.25,67.12,12.04,16.79-6.36,32.7-15.23,46.01-27.52,18.12-16.72,37.66-31.92,54.24-50.33,4.31-4.78,9.89-8.41,14.32-13.2,4.08-4.41,7.77-9.04,10.49-14.47,5.75-11.48,12.28-13.24,23.02-6.49,2.28,3.1,8.37,3.48,6.72,9.38-4.22,1.28-6.64-2.18-9.78-3.73-1.41-.69-2.87-1.77-4.37-.99-2.01,1.04-1.68,3.16-1.21,4.87,2.62,9.57,3.42,19.39,4.58,29.19.76,6.44.7,12.87-2.78,18.14-7.61,11.5-4.1,24.16-4.91,36.38-.1,1.55.82,3.09,1.92,4.18,7.45,7.39,11.09,17.45,17.84,25.32,1.48,1.72,1.66,3.71,1.24,5.87-.43,2.23-1.61,4.86,1.25,6.22,2.72,1.29,4.22-1.22,5.92-2.68,2.26-1.94,4.77-3.07,7.78-3.11,7.07-.1,10.2,3.46,7.91,10.18-1.68,4.92.35,7.31,4.03,9.53,5.02,3.04,10.62,4.29,16.3,4.99,7.37.9,12.09,4.92,13.87,11.82,1.34,5.19,4.92,7.69,9.05,10.04,1.94,1.1,3.63,1.39,5.78.13,9.57-5.58,15.7-5.03,21.45,4.12,7.28,11.58,17.76,20.07,29.33,24.8,15.11,6.18,28.37,16.29,44.58,20.06,6.77,1.57,13.21,5.27,17.83,10.67,6.75,7.9,15.57,12.17,25.05,14.91,8.79,2.54,16.06,7.74,22.6,13.24,7.87,6.62,16.36,11.71,25.28,16.48,13.07,7,25.9,14.55,37.54,23.72,15.62,12.29,32.98,21.74,49.75,32.16,4.55,2.82,9.51,3.92,14.85,4.1,5.23.18,5.21-1.76,2.84-5.43-1.61-2.5-4.53-4.62-3.03-8.3,6.21,1.16,17.23,13.48,17.25,19.14.01,3.13-2.26,4.34-4.39,5.73-13.57,1.42-24.22-6.78-36.06-11-26.46-9.43-53.54-15.23-81.7-17.39-37.01-2.84-73.98-4.63-111.11-4.79-9.94-.04-19.86-.18-29.8.33-18.48.94-36.93-2.48-55.46-.08-8.55,1.11-16.66-3.03-25.31-3.5-6.94-.38-13.94-1.13-20.91-1-27.28.51-54.14-4.08-81.22-6-10.58-.75-21.2-1.51-31.81-1.75-13.62-.3-27.7,1.51-40.78.04-15.41-1.73-30.41-.2-45.42.23-28.01.8-55.63-4.29-83.55-3.7-8.14.17-16.67.38-24.35-.59-9.37-1.18-18.98-1.41-28.28-3.36-2.6-.54-5.56-1.42-7.63-.1-5.55,3.55-10.42-.75-15.17-.58-14.56.53-26.76-8.55-41.3-7.94-21.9.91-43.82-.57-65.7-2.12-5.62-.4-11.49-.14-16.98,1.05-6.28,1.35-12.15.93-18.41.03-7.25-1.05-14.53-.77-22.11.66-12.05,2.28-24.56.28-36.67-1.69-6.15-1-11.55.52-16.48,2.76-16.32,7.41-33.83,11.31-50.52,17.72-22.75,8.74-43.57,20.53-63.75,33.56-7.44,4.81-16.81,5.52-23,12.26-8.56,10.6-20.05,18.07-29.62,27.59-.73.73-1.86.76-2.89.38-1.97-11.47,3.86-19.89,10.9-27.84Z" style="fill: #edb252; stroke-width: 0px;"/>
  <path d="M770.59,456.51c-9.92-6.78-14.27-4.89-21.27,7.91-1.97,3.61-4.16,7.4-7.16,10.09-12.91,11.58-23.41,25.69-37.45,36.03-11.99,8.82-20.96,20.83-32.76,29.88-17.99,13.8-36.3,27.22-59.03,31.55-21.84,4.15-41.54-3.2-58.96-15.91-19.44-14.19-36.38-31.36-54.09-47.6-6.5-5.96-13.15-11.76-19.42-17.96-5.31-5.25-9.82-10.61-9.2-19.4.39-5.58-5.13-4.05-8.12-2.12-6.74,4.34-13.18,9.16-19.64,13.93-27.53,20.3-53.16,42.92-79.19,65.05-28.99,24.65-57.96,49.34-86.68,74.3-19.89,17.29-39.14,35.31-59.07,52.56-29.16,25.23-57.03,51.96-88.27,74.81-14.8,10.83-28.44,23.24-42.61,34.93-.51-3.69-2.71-2.79-5.15-2.09-16.84,4.77-30.03.06-42.4-12.77-11.47-11.9-11.11-11.4-18.83,4.31-1.44,2.92-.7,6.8-3.83,9.03,1.85-32.62,2.17-65.29,3.43-97.92.64-16.76.62-33.53,1.4-50.26,1.05-22.41.09-44.8.75-67.16.29-9.69.64-19.59,1.58-29.38,1.05-10.87.86-21.96,2.12-32.94,1.56-13.63,2.87-27.28.64-41.03-.34-2.12,1-5.21,3.52-5.44,2.97-.28,2.89,2.95,3.67,5.05,2.78,7.47.01,15.25,1.5,22.85,4.01,20.38,3.96,41.09,5.04,61.74.9,17.21,3.7,34.42,5.01,51.54,1.16,15.16,4.02,29.96,5.31,44.97.67,7.76-3.4,16.25.49,23.65,6.76,12.87,6.62,28.34,15.61,40.16,2.74,3.6-.89,9.35,4.53,11.69,2.44-1.01,3.98.72,5.47,2.03,10.36,9.13,22.88,10.46,35.89,10.09,2.1-.06,4.2-.36,6.02-1.46,12.68-7.67,26.06-14.31,36.81-24.82,5.27-5.15,11.64-8.78,17.63-12.89,20.86-14.32,39.8-31.03,59.34-47,37.42-30.58,74.23-61.91,110.4-93.91,18.19-16.09,35.5-33.54,50.36-53.05,6.1-8.01,5.96-15.31-1.42-22.07-7.89-7.23-15.35-14.78-21.77-23.35-.62-.83-1.34-1.65-2.2-2.21-24.5-16.11-43.64-38.29-65.36-57.54-10.14-8.98-20.71-17.37-28.62-28.52-.45-.63-.97-1.29-1.62-1.68-17.31-10.39-30.63-25.62-46.18-38.13-8.36-6.73-15.9-14.25-22.81-22.38-5.59-6.58-11.44-12.81-18.46-17.87-7.65-5.53-14.38-12-20.18-19.44-1.62-2.08-3.42-3.97-5.74-5.22-17.51-9.47-29.83-25.08-44.08-38.26-8.59-7.94-13.04-19.77-18.48-30.37-.4-11.35-7.16-21.02-8.49-32.2-.4-3.35-.77-6.65-.79-10.01,2.8-.57,3.37,1.9,4.57,3.42,5.68,7.15,10.2,15.09,15.43,22.55,15.92,22.73,35.79,41.77,55.57,60.98,9.11,8.84,18.73,17.11,27.05,26.9,9.72,11.42,22.24,20.23,33.27,30.51,12.93,12.05,25.48,24.52,38.6,36.4,26.22,23.75,51.7,48.29,78.73,71.16,7.88,6.67,16.44,12.86,22.39,21.63.58.86,1.3,1.68,2.15,2.25,15.62,10.47,29.03,23.56,43.27,35.7,9.85,8.4,12.78,15.59,8.16,27.85-.45,1.19-1.18,2.33-.25,4.53,7.76-2.24,11.74-9.69,18.2-13.51,5.53-5.69,11.92-10.4,17.71-15.8,4.06-2.53,7.12-6.46,11.67-8.3,3.81-.9,7.43-2.42,11.2-3.41,6.62-1.73,10.2.72,8.84,7.27-1.46,7.04,1.34,11.35,6.04,15.62,24.43,22.2,47.86,45.52,74.08,65.71,23.54,18.12,48.37,19.47,74.49,6.14,6.36-3.25,12.47-6.9,15.51-9.07-18.61,8.33-39.74,8.95-59.69-5.27-22.9-16.32-43.54-35.46-65.04-53.51-18.31-15.39-36.37-31.09-54.52-46.67-25.83-22.19-51.88-44.14-77.47-66.61-42.41-37.23-85.28-73.92-127.96-110.84-41.29-35.73-82.43-71.64-123.54-107.58-12.53-10.95-25.81-21.03-37.75-32.66-5.76-7.37-12.97-13.14-20.67-18.3-4.73-3.17-9.01-6.78-12.58-11.23-.74-6.82,2.58-7.57,7.09-4,12.59,9.97,25,20.18,37.26,30.55,17.99,15.23,35.83,30.64,53.65,46.08,13.71,11.89,27.23,24,40.93,35.9,18.77,16.32,37.91,32.24,56.33,48.94,10.19,9.24,20.8,17.95,31.2,26.92,11.59,7.59,21.12,17.64,31.52,26.63,24.77,21.41,49.72,42.62,74.34,64.21,21.69,19.02,43.82,37.52,65.5,56.55,18.56,16.28,37.38,32.27,56.36,48.05,13.59,11.3,26.57,23.32,40.43,34.3,1.03.82,1.9,1.77,2.2,3.12,3.89,8.84,12.66,12.68,19.6,18.03,25.45,19.6,50.4,17.5,75.81-4.73,11.88-10.39,24.63-19.77,36.54-30.12,15.24-13.25,30.65-26.26,46.39-38.9,23.82-19.12,46.05-40.11,69.83-59.29,17.12-13.81,33.24-28.86,49.93-43.2,20.22-17.37,40.63-34.52,60.86-51.87,16.51-14.16,32.84-28.52,49.33-42.72,17.46-15.03,35.05-29.9,52.48-44.95,10-8.64,19.71-17.61,29.69-26.27,22.48-19.51,44.97-39.02,67.61-58.35,20.36-17.39,39.59-35.95,58.33-55.05,1.9-1.94,3.36-4.61,6.42-5.24,1.52,2.56-.05,4.58-.86,6.7.44,4.62-3.59,6.86-5.44,10.27-19.74,17.28-37.28,36.96-57.81,53.41-27.1,23.13-53.85,46.65-80.56,70.21-16.56,14.62-33.6,28.73-49.54,44.06-9,8.66-19.15,16.02-28.28,24.55-6.62,6.18-13.32,12.28-19.76,18.66-.74.73-1.32,1.69-2.19,2.22-21.28,12.87-33.12,35.71-53,50.09-13.12,9.48-24.91,20.59-35.62,32.65-12.49,14.07-27.21,25.67-40.82,38.48-2.3,2.16-4.29,4.5-6.12,7.04-4.77,6.61-10.26,12.45-17.73,16.1-.93.46.21-.16-.69.37-11.6,6.93-14.19,12.64-11.29,24.89-2.27,3.15-4.91,2.14-7.38.46-2.35-1.59-4.94-2.74-7.26-4.35Z" style="fill: #e39431; stroke-width: 0px;"/>
  <path d="M47.45,837.52c7.96-7.22,15.99-14.37,23.84-21.7,2.65-2.48,5.3-4.83,8.67-6.26,20.74-7.54,42.53-10.92,63.86-16.14,6.47-1.58,13.27-2.17,19.96-2.46,16.32-.71,32.65-.31,49.01-1.23,15.63-.88,31.56.89,47.18,2.94,16.37,2.15,32.69.88,49.02,1.26,12.46.29,24.76,1.54,36.95,4.07,2.26.47,4.62.59,6.94.68,27.85,1.07,55.78,1.25,83.52,3.61,10,.85,19.54-.75,29.31-.57,25.12.47,50.08,3.52,75.14,4.54,12.17.49,24.33,1.14,36.49,1.79,9.3.5,18.6-.42,27.95,1.28,5.69,1.04,11.87,1.08,17.79-.7,2.42-.73,5.17-.73,7.73-.51,19.13,1.61,38.23,1.08,57.4.28,9.15-.38,18.46-.23,27.69-.17,21.4.14,42.8-.33,64.22,1,9.88.61,20.15-1.81,30.22-1.05,19.07,1.44,38.19-2.1,57.26,1.19,4.66.81,9.6-1.43,14.6-1.39,25.93.2,51.92,1.09,77.79-.2,23.38-1.17,46.74-.47,70.08-1.43,20.13-.83,40.19-3.79,60.32-4.31,23.46-.61,46.24,3.84,67.71,13.85-4.48.54-5.07,2.64-1.62,5.25,5.77,4.37,10.81,9.83,17.55,12.79,6.52,2.86,13.09.86,19.51-.72,2.23-.55,4.26-1.93,6.71-1.7.7,4.63-1.12,6.51-5.94,6.34-7.92-.29-15.85-.08-23.78-.09-15.3-6.93-31.52-4.58-47.44-4.4-7.11.08-14.27.34-21.43.96-22.72,1.95-45.57,1.65-68.38,1.99-44.93.67-89.88.98-134.79,1.99-16.18.36-32.43-.43-48.64.82-7.61.59-15.37-.98-23.08-1.33-15.85-.7-31.57,1.89-47.45,1.68-38.27-.49-76.56.21-114.83-.34-16.02-.23-32.03.9-48.03.12-41.96-2.05-84.01-.11-125.92-1.9-33.04-1.41-66.04.08-99.01-1.27-36.05-1.48-72.13-2.07-108.16-3.44-16.87-.64-33.81.27-50.57-1.32-23.42-2.23-46.93-1.99-70.4-5.16-16.78-2.27-33.91-3.73-50.79-5.94-12.01-1.58-22.09,1.67-33.07,5.19-9.96,3.2-19.99,5.01-27.38,13.22-1.07,1.19-2.93.89-3.68-1.11Z" style="fill: #e19226; stroke-width: 0px;"/>
  <path d="M1187.82,76.78c2.09-3.12,4.18-6.24,6.27-9.36,9.38.63,13.96,4.51,15.46,13.24,3.06,17.8,1.8,35.78,1.31,53.64-.14,5.15.56,10.17.43,15.26-.61,23.21-1.12,46.43-1.57,69.65-.17,8.81,1.25,17.66,1.15,26.34-.16,13.18-.16,26.51-1.54,39.58-1.34,12.75-.76,25.4-1.18,38.09-.84,25.17-1.02,50.37-2.05,75.5-.65,15.82-.58,31.63-1.07,47.44-.66,21.65-.33,43.37-1.81,64.96-1.6,23.28-2.54,46.54-3.07,69.87-.67,29.23-3.92,58.34-4.8,87.6-.49,16.25-1.93,32.53-3.1,48.77-1.2,16.7-3.39,33.59-11,48.88-4.89,9.83-21.17,19.25-34.08,8.09-4-3.46-7.93-7.13-13.87-9.45,1.94,5.35,5,8.7,8.32,11.86,6.22,5.92,12.23,12.02,16.47,19.61,3.28,5.87,2.06,8.58-4.65,10.17,3.67-3.83,3.16-7.48.17-11.64-3.65-5.06-7.54-9.77-12.69-13.34-5.62.07-7.52-4.75-10.58-8.03-1.4-2.5-3.58-4.03-6.23-4.98-9.97-7.54-18.32-16.87-27.62-25.16-20.75-18.48-41.83-36.59-62.58-55.06-23.27-20.72-46.93-41-70.19-61.75-17.05-15.21-35.02-29.38-51.8-44.91-18.69-17.29-38.29-33.53-57.49-50.24-23.12-20.11-46.01-40.51-69.85-59.79-2.47-2-6.12-3.17-6.19-7.28-1.2-4-6.15-4.26-7.79-7.83,5.05-.52,8.35,6.94,14.13,3.1,3.62-.87,5.93,1.62,8.13,3.6,14.26,12.83,28.85,25.29,43.14,38.07.52.46,1,.96,1.47,1.47,1.36,1.51,2.89,2.83,4.65,3.87.59.35,1.13.77,1.66,1.2,2.05,1.82,3.87,3.88,6.08,5.52,7.85,6.5,15.61,13.1,22.99,20.13,1.87,2.1,4.09,3.79,6.48,5.26,29.31,25.25,58.4,50.76,87.56,76.2,2.45,2.59,5.1,4.93,8.19,6.75,28.03,22.89,54.46,47.62,82.29,70.72,21.19,17.6,40.98,36.98,64.94,51.07,5.83,3.43,11.09,7.75,16.55,11.74,9.94,7.26,20.28,4.42,25.84-6.49,5.96-11.71,6.77-24.42,8.23-37.08,4.83-41.89,4.95-84.07,8.22-126.05,1.28-16.41.73-32.76,1.29-49.13,1.5-44.45,2.65-88.89,3.56-133.36.67-32.98,1.62-65.99,3.01-98.95,1.16-27.59-.24-55.2,1.53-82.69,1.66-25.78.47-51.51,1.32-77.24.42-12.72,1.67-25.4,1.61-38.18-.04-10.22,0-20.25-5.65-29.29Z" style="fill: #f1ba42; stroke-width: 0px;"/>
  <path d="M572.12,503.38c-9-4.83-16.11-12.14-23.83-18.58-24.63-20.57-49.39-41.04-73.2-62.54-17.13-15.46-35.02-29.99-52.25-45.31-23.79-21.14-48.44-41.32-72.55-62.1-16.09-13.87-31.9-28.07-47.79-42.17-.49-.44-.5-1.43-.73-2.17,2.24-1.34,4.03-1.3,6.23.64,16.1,14.22,32.28,28.36,48.56,42.37,14.12,12.15,28.45,24.06,42.65,36.12,13.41,11.38,26.77,22.82,40.16,34.23,17.13,14.6,34.28,29.17,51.39,43.79,15.15,12.95,30.4,25.77,45.34,38.96,19.99,17.65,40.91,34.15,62,50.43,17.81,13.75,45.53,13.16,61.26-1.32,2.66-2.45,5.4-5.75,9.65-6.13-18.89,21-41.76,26.14-65.65,15.91-9.2-3.94-16.67-11.94-24.86-18.19-2.02-1.54-3.39-4.03-6.39-3.96Z" style="fill: #f1ba42; stroke-width: 0px;"/>
  <path d="M701.84,479.92c1.04,0,2.08,0,3.12,0-2.51,3.34-4.7,7.06-9.36,7.83,2.08-2.61,4.16-5.21,6.24-7.82Z" style="fill: #f1ba42; stroke-width: 0px;"/>
  <path d="M712.78,470.55c1.04,0,2.09,0,3.13.01-2.54,3.31-4.71,7.06-9.38,7.8,2.08-2.6,4.17-5.21,6.25-7.81Z" style="fill: #f1ba42; stroke-width: 0px;"/>
  <path d="M687.78,493.99c1.94-2.92,3.84-5.88,7.82-6.24-1.96,2.89-3.86,5.85-7.82,6.24Z" style="fill: #f1ba42; stroke-width: 0px;"/>
  <path d="M676.84,503.36c1.93-2.92,3.84-5.87,7.81-6.25-1.94,2.91-3.85,5.86-7.81,6.25Z" style="fill: #f1ba42; stroke-width: 0px;"/>
  <path d="M97.09,192.48c5.19,5.52,9.48,11.67,12.48,18.63,5.41,12.54,17.7,18.67,26.23,28.32,7.57,8.57,16.41,15.74,26.69,21.04,1.75.9,3.13,2.75,4.35,4.41,4.97,6.74,10.8,12.54,17.61,17.45,9.11,6.56,16.5,14.84,23.81,23.34,13.38,15.58,31.27,26.45,44.86,41.89,1.17,1.33,2.81,2.31,4.38,3.19,10.3,5.78,19.54,12.96,26.06,22.82,6.09,9.21,16.01,13.81,23.5,21.29,12.55,12.54,25.41,24.78,38.28,36.98,5.64,5.34,11.57,10.41,18.45,14.14,2.8,1.52,5.49,3.15,7.35,5.67,7.57,10.26,16.93,18.79,26,27.63,5.21,5.07,4.58,15.15-1.87,21.83-12.58,13.02-24.27,26.83-37.04,39.74-27.61,27.9-58.64,51.69-88.1,77.29-34.69,30.14-69.93,59.71-107.83,86.02-12.07,8.38-23.36,17.99-36.19,25.37-14.83,8.52-36.17,6.29-49.24-5.01-1.56-1.35-3.18-2.65-4.77-3.97-1.24-18.07-3.89-35.94-8.18-53.53-1.42-5.81-3.02-11.48-2.76-17.57.65-15.65-2.48-30.89-5.46-46.12-1.5-7.65-1.63-15.52-1.96-23.15-.86-20.19-1.96-40.37-3.56-60.5-1.47-18.52-2.44-37.11-5.86-55.44-.99-5.31.18-10.71-.05-16.11-.46-10.62-2.69-21.16-2.63-31.64.09-15.16-2.12-30.09-2.62-45.18-1.01-30.49-3.93-60.92-5.79-91.38-.43-6.98-.66-13.94-1.56-20.9-.59-4.58-1.74-8.56-4.85-11.94.25-10.09,1.63-20.06,3.04-30.04.47-3.35,1.33-7.05,4.93-6.64,3.65.41,6.34,3.74,6.01,7.91-.42,5.35-.17,10.7-.29,15.98-.24,10.69,3.47,20.94,3.12,31.25-.71,20.62,5.06,40.74,3.53,61.31-.33,4.46.12,8.73,2.39,12.81,3.99,7.17-.49,14.73.64,22.1.51,3.31-.28,6.85.4,10.1.83,3.99,2.83,7.78,8.02,6,2.75-.94,4.42-.12,6.18,1.68,1.57,1.61,3.42,2.53,5.54,1,1.97-1.43,2.42-3.79,1.4-5.61-6.16-11.04-.65-22.84-2.02-34.3-.87-7.26,3.03-15.72,4.65-23.64,2.04-10.01.28-19.98,2.48-29.69,4.03-17.8,1.42-36.4,6.38-54,3.9-13.82,4.68-28.78,13.89-40.82Z" style="fill: #edb252; stroke-width: 0px;"/>
  <path d="M75.32,86.12c12.01,8.66,25.06,16.04,34.26,28.11-4.12.58-4.98,2.21-4.22,6.76,4.14,24.76,17.3,44.45,34.28,61.84,14.51,14.86,29.2,29.54,44.25,43.89,12.52,11.93,25.09,24.08,36.75,37,.7.77,1.3,1.68,2.14,2.27,19.97,13.88,34.9,33.38,53.95,48.3,8.42,6.6,14.51,15.63,22.78,22.42,34.15,28.05,65.19,59.63,99.5,87.53,10.45,8.5,20.01,18.11,30.69,26.47,10.39,8.13,11.61,16.19,6.49,30.78-5.47,4.68-10.94,9.38-16.43,14.05-1.71,1.46-3.83,2.27-5.71.92-2.33-1.68-.5-3.74.26-5.56,5.78-13.81,3.98-19.69-7.94-28.28-9.06-6.54-15.13-16.56-24.8-22.37-18.66-11.21-31.62-28.82-48.22-42.4-26.27-21.5-50.53-45.33-75.35-68.5-17.04-15.91-33.09-33.06-51.2-47.57-13.62-10.91-24.54-24.22-37.24-35.86-24.89-22.83-49.19-46.55-68.06-75-4.57-6.88-9.13-13.76-13.7-20.64-2.49-13.74-3.83-27.61-4.81-41.53-.35-5.03-2.72-9.43-4.92-13.85-1.38-2.77-3.25-5.4-2.75-8.76Z" style="fill: #db8636; stroke-width: 0px;"/>
  <path d="M778.38,464.34c23.41,18.41,45.59,38.27,68.06,57.79,34.21,29.72,68.61,59.2,102.8,88.94,18.77,16.32,37.19,33.03,55.89,49.44,23.94,21.01,48.11,41.76,71.97,62.87,13.79,12.2,27.14,24.89,40.71,37.34,2.48,2.27,5.02,4.48,7.53,6.72,2.12,1.49,4.03,3.27,6.2,4.71,2.54,3.71,5.66,6.85,9.39,9.37.4,4.24,4.36,6.28,6.07,9.76.95,1.93,2.33,3.55.79,5.65-1.38,1.89-3.23.56-4.92.67-15.22,1.01-25.17-10-37.1-16.26-20.22-10.63-37.01-26.51-56.77-38-8.71-5.07-17.79-9.47-26.57-14.35-6.28-3.49-10.14-9.14-15.95-12.99-10.27-6.81-22.11-9.49-32.63-15.4-7.34-4.12-11.04-11.86-18.91-15.57-5.56-2.62-11.38-3-16.82-5.18-2.16-.86-5.55-1.02-6.35-2.56-4.88-9.35-15.14-7.37-22.48-11.35-13.37-7.25-26.77-14.52-35.4-27.84-2.42-3.73-5.15-6.97-9.71-8.52-4.19-1.42-7.38-1.82-9.81,2.82-1.99,3.79-4.38,3.93-8.01.95-4.68-3.84-10.39-5.71-11.15-13.59-.46-4.82-5.22-8.39-11.44-8.72-7.55-.41-14.77-2.58-20.88-7.47-2.69-2.15-4.14-4.25-2.05-7.89,1.34-2.34,4.71-5.41.46-7.99-3.76-2.28-7.93-2.67-11.56.55-1.73,1.54-2.87,3.87-4.76,5.06-2.32,1.46-4.48-.51-6.33-1.79-2.03-1.41-2.1-3.54-.85-5.54,2.99-4.81,1.5-7.68-3.66-9.33-1.12-.36-2.96-1.68-2.84-2.22,2.23-10.52-8.68-13.34-11.9-20.61-.73-1.65-2.75-3.6-2.34-4.75,2.39-6.63-.51-13.19.29-19.83.85-7.07,3.31-13.07,6.29-19.48,4.99-10.74.59-22.36-.46-33.56-.41-4.32-2.03-8.53-3.1-12.79-.53-2.11-.68-4.21,1.15-5.77,2.28-1.95,4.43-.49,6.47.59,3.64,1.91,6.41,5.32,10.69,6.14Z" style="fill: #edb252; stroke-width: 0px;"/>
  <path d="M441.83,494.08c-3.38,9.8-10.15,16.56-16.64,22-19.87,16.65-37.39,35.87-58.31,51.41-26.39,19.6-50.9,41.61-75.89,62.99-21.83,18.68-44.19,36.76-66.03,55.42-17.93,15.32-35.3,31.28-53.2,46.63-19.26,16.52-38.85,32.65-58.3,48.95-.4.33-.78.73-1.24.94-2.51,1.2-5.66,3.89-7.69,1.16-1.88-2.53.92-5.59,3.22-7,16.75-10.23,29.66-25.03,44.71-37.27,14.66-11.92,28.91-24.37,43.12-36.84,27.08-23.75,53.88-47.83,81.03-71.5,25.19-21.95,51.05-43.14,75.97-65.38,25.91-23.13,53.07-44.72,79.64-67.04,2.73-2.3,5.59-3.25,9.59-4.49Z" style="fill: #f0be6d; stroke-width: 0px;"/>
  <path d="M965.92,615.88c-12.36-8.19-22.56-18.98-33.65-28.64-15.81-13.76-31.65-27.47-47.62-41.04-2.34-1.99-4.18-4.58-6.25-6.89-2.15-1.47-4.02-3.29-6.23-4.68-7.82-6.78-15.63-13.55-23.45-20.33-1.58-2.58-3.62-4.71-6.25-6.23h0c-2.15-1.47-4.02-3.32-6.23-4.7h0c-2.47-4.12-6.45-6.73-9.84-9.93-9.11-8.6-8.86-14.18-1.67-24.35,8.02-11.34,19.31-18.86,29.82-27.11,8.59-6.75,13.77-15.49,16.24-24.97,2.5-9.6,8.26-15.5,15.33-20.65,4.6-3.36,8.16-6.88,10.41-12.14,3.28-7.67,11.01-11.58,16.03-17.9,8.23-10.37,18.07-19.42,25.44-30.52,4.23-6.37,9.96-11.27,15.42-16.48,18.28-17.42,35.23-36.09,51.36-55.5,4.53-5.45,10-9.88,15.14-14.62,16.05-14.81,29.59-32.05,45.51-46.89,13.21-12.31,24.3-26.2,35.68-40.06,7.34-8.93,15.89-17.03,24.17-25.24,2.12-2.11,3.18-4.7,4.73-7.07,20.01-16.92,37.54-36.54,57.83-53.16,5.92,3.32,7.76,8.79,7.79,15.1.16,39.27-1.57,78.51-2.06,117.77-.23,18.13-.81,36.34-.94,54.5-.19,25.99-2.36,51.91-1.84,77.93.33,16.2-.02,32.52-1.6,48.63-2.45,24.95-.09,49.92-1.49,74.82-2.05,36.31-2.23,72.66-3.33,108.98-.91,30.01-3.77,59.96-4.73,90.03-.7,21.88-4.41,43.69-6.15,65.6-.63,7.95-4.38,15.52-8.2,22.58-5.51,10.18-18.26,11.56-27.76,4.49-12.05-8.97-25.11-16.59-36.98-25.78-14.92-11.56-29.14-24.03-43.52-36.26-17.77-15.1-35.59-30.15-53.02-45.64-10.47-9.3-20.81-18.74-31.79-27.44-1.61-2.56-3.67-4.66-6.27-6.21Z" style="fill: #f0be6d; stroke-width: 0px;"/>
  <path d="M436.19,481.48c-1.5-2.29-.55-4.75.18-6.76,3.7-10.1-1.28-17.09-8.3-23-22.6-19.01-45.19-37.98-66.8-58.17-21.37-19.97-43.96-38.64-65.77-58.16-9.23-8.26-17.17-17.85-26.97-25.59-16.02-12.65-29.54-28.06-45.1-41.36-13.14-11.24-26.96-22.65-37.04-37.34-2.06-3-5.54-4.69-8.17-7.12-21.33-19.7-42.04-40-59.23-63.58-10.39-14.26-13.76-30.92-17.05-47.74,3.13-1.03,5.01,1.95,7.63,1.56,21.71,18.84,43.25,37.88,65.16,56.48,29.61,25.16,58.27,51.41,88.24,76.16,18.57,15.34,36.13,31.9,54.35,47.69,16.43,14.25,33.36,27.93,49.64,42.35,13.39,11.85,26.67,23.82,40.37,35.34,24.97,21,49.73,42.27,74.44,63.57,17.27,14.89,33.85,30.63,51.61,44.9,22.99,18.47,43.85,39.62,69.07,55.27,10.14,6.29,21.38,7.05,33.01,5.97,9.32-.87,17.89-3.74,26.15-8.12-14.26,12.73-29.61,22.4-49.4,24.41-23.61,2.41-41.25-8.39-58.48-22.3-14.57-11.76-27.49-25.25-41.69-37.38-8.88-7.58-17.02-16-25.66-23.87-4.02-3.66-5.77-7.26-3.91-13.01,2.13-6.59-.41-8.6-6.93-6.67-3.71,1.1-7.18,3.13-11.22,2.97-.47-5.35,4.57-6.42,7.35-9.12,3.67-3.57,4.63-6.13.11-10.06-26.25-22.8-52.08-46.08-78.81-68.32-24.19-20.12-47.5-41.26-71.23-61.9-15.46-13.45-30.72-27.21-46.49-40.35-16.97-14.15-33.55-28.79-50.4-43.09-19.2-16.29-36.84-34.51-58.48-47.91,1.51,2.44,3.79,4.37,4.91,6.91,5.93,13.44,18.39,20.89,27.83,31.12,13.08,14.17,27.98,26.4,41.24,40.36,14.14,14.89,29.32,28.8,43.7,43.46,15.51,15.8,33.56,28.75,49.01,44.56,9.84,10.07,21.36,18.38,31.05,28.45,11.04,11.45,22.04,22.81,34.61,32.56,16.25,12.6,29.69,28.38,46.45,40.42,6.95,4.99,10.92,11.76,8.24,20.85-4.87,6.14-11.64,10.17-17.21,15.52Z" style="fill: #ce6e24; stroke-width: 0px;"/>
  <path d="M1129.98,129.93c-.08,2.31.71,5.26-1.45,6.59-6.23,3.83-8.61,11.2-13.96,15.33-10.28,7.96-18.06,17.83-24.86,28.56-4.16,6.58-10.77,10.42-15.78,15.91-10.96,12-22.98,22.92-33.41,35.55-7.62,9.22-17.11,17.36-26.35,25.27-8.36,7.15-14.46,16.15-21.87,24.05-14.13,15.07-27.48,30.83-43.08,44.51-10.36,9.08-16.54,21.81-26.35,31.6-6.69,6.67-11.92,14.83-19.63,20.62-.82.62-1.78,1.35-2.12,2.24-3.66,9.52-10.46,16.3-18.85,21.64-9.99,6.36-8.6,18.75-14.48,27.36-1.32,1.92-1.68,4.8-3.74,6.49-8.19,6.7-15.59,14.21-24.42,20.31-7.96,5.5-14.12,13.64-18.26,22.7-2.62,5.74,2.62,8.92,5.33,12.76,2.93,4.16,8.45,6.26,9.52,11.92-14.07-12.24-28.11-24.52-42.23-36.7-2.93-2.53-6.17-4.71-9.27-7.05-6.68-8.55-6.44-15,7.02-22.62,13.54-7.66,20.85-20.57,32.08-29.89,20.17-16.75,37.21-36.78,56.46-54.44,12.95-11.88,28.08-21.7,39.14-35.34,12.17-15,28.09-25.45,41.62-38.63,27.65-26.95,57.67-51.17,86.1-77.21,26.89-24.64,55.18-47.75,82.85-71.53Z" style="fill: #edb252; stroke-width: 0px;"/>
  <path d="M453.4,465.96c0-11.7-7.67-18.09-15.92-24.86-16.75-13.73-33.1-28-49.04-42.69-21.7-20-42.7-40.77-64.31-60.87-9.66-8.98-20.46-16.73-30.08-25.74-12.29-11.5-23.67-23.96-35.87-35.56-16.71-15.88-32.31-32.86-49.38-48.41-9.89-9.02-19.86-18.13-29.13-27.75-7.32-7.6-12.04-17.69-18.72-27.9,16.29,8.31,28.16,19.68,40.74,30.16,20.48,17.07,40.13,35.09,60.64,52.14,10.3,8.57,21.45,16.41,30.45,26.56,11.61,13.09,27.03,21.72,39.39,34.05,12.05,12.01,25.21,22.93,38.15,34.01,11.99,10.26,24.33,20.1,36.55,30.1,1.2.98,2.75,1.57,3.82,2.65,11.28,11.4,23.33,21.81,35.93,31.83,10.18,8.1,19.26,17.82,29.49,26.08,3.07,2.48,2.19,4.54.13,7.23-3.36,4.39-9.05,6.17-11.93,11-3.76,2.48-6.51,6.35-10.92,7.95Z" style="fill: #c45b17; stroke-width: 0px;"/>
  <path d="M842.46,508.06c3.73.43,5.8,2.52,6.25,6.23-2.67-1.49-4.75-3.57-6.25-6.23Z" style="fill: #edb252; stroke-width: 0px;"/>
  <path d="M965.92,615.88c3.72.42,5.77,2.54,6.27,6.21-2.71-1.44-4.76-3.55-6.27-6.21Z" style="fill: #edb252; stroke-width: 0px;"/>
  <path d="M836.22,503.36c3.16.13,4.88,2.17,6.23,4.7-3.15-.14-4.87-2.19-6.23-4.7Z" style="fill: #edb252; stroke-width: 0px;"/>
  <path d="M872.16,534.62c3.17.11,4.88,2.16,6.23,4.68-3.15-.13-4.86-2.18-6.23-4.68Z" style="fill: #edb252; stroke-width: 0px;"/>
  <path d="M1131.52,772.15c-3.12-.18-4.85-2.2-6.2-4.71,3.15.15,4.87,2.17,6.2,4.71Z" style="fill: #edb252; stroke-width: 0px;"/>
  <path d="M1178.52,123.48c-1.09,27.99-1.56,56.02-3.57,83.94-.75,10.38-.89,20.71-1.18,31.07-.61,21.67-.13,43.42-1.85,64.99-1.88,23.56-2.42,47.1-3.06,70.7-.72,26.64-2.2,53.32-4.81,79.83-1.42,14.46.15,29.07-2.85,43.36-1.05,5.02-2.36,10.01-3.91,14.9-.51,1.62-2.05,3.37-4.11,3.04-2.91-.46-6.09-1.93-6.75-4.7-2.47-10.52-11.71-18.64-10.35-30.56.56-4.93-4.93-7.94-5.74-12.54-.69-3.94-1.68-7.71-1.17-12.12.58-5.1,1.99-12.29-5.79-14.91-.47-.16-1.23-.55-1.24-.85-.19-7.67-7.68-12.14-8.85-18.72-1.05-5.86-5.56-10.69-3.99-17.53.95-4.16-4.57-5.11-7.86-5.99-5.89-1.58-8.62-3.45-2.38-8.23,1.31-1,2.7-1.91,1.22-3.68-7.25-8.65-10.65-19.25-15.01-29.38-1.28-2.98-2.92-4.76-6.58-3.13-1.95.87-4.2.51-5.6-1.48-1.49-2.13,0-3.69.98-5.6,4.21-8.23,4.1-16.83,2.12-25.71-1.2-5.41-3.9-10.8-1.3-16.68.66-1.48.58-3.84-.15-5.3-6.06-12.1-1.26-23.81,4.7-32.96,8.57-13.15,17.03-26.38,19.58-41.55,2.87-17.04,16.43-26.99,23.28-41.31,5.7-11.91,10.25-24.32,16.35-36.07,7.2-13.87,16.11-26.55,24.68-39.49.96-1.44,2.59-2.67,4.18-3.41,2.71-1.26,5.28-4.19,8.57-2.49,3.49,1.8,2.2,5.5,2.29,8.48.15,4.68.04,9.37.04,14.06.03,0,.06,0,.09,0Z" style="fill: #f2c683; stroke-width: 0px;"/>
  <path d="M627.83,549.51c-16.7,5.91-32.39,5.7-46.86-3.99-9.85-6.59-19.27-14-28.13-21.88-19.55-17.37-38.64-35.27-57.89-52.97-1.14-1.05-2.36-2.13-3.16-3.43-1.76-2.86-4.04-6.03-1.19-9.22,3.17-3.54,5.82-.04,8,1.63,13.34,10.19,25.28,22.11,38.45,32.41,19.33,15.12,36.28,33.24,57.7,45.74,8.63,5.03,17.41,9.09,27.58,9.32,1.8.04,3.61,0,5.5,2.4Z" style="fill: #c35815; stroke-width: 0px;"/>
</svg>