<?xml version="1.0" encoding="UTF-8"?>
<svg id="Layer_1" data-name="Layer 1" xmlns="http://www.w3.org/2000/svg" viewBox="0 0 1206.54 1332.78">
  <path d="M754.7,123.52c18.88.02,37.79-.66,56.63.2,68.08,3.12,136.2.3,204.27,1.87,13.17.3,27-.39,39.5,7.11,18.31,10.99,29.13,26.39,29.56,47.76.95,47.12,1.39,94.26,1.75,141.39.26,34.98.05,69.97.07,104.95,0,3.3-.54,6.71,1.69,9.63.74,4.52.97,9.06.69,13.63.55,57.03.44,114.06.07,171.07.01,13.81.72,27.64-.45,41.42-1.1,4.86-5.08,7-8.88,9.32-23.94,14.66-49.04,27.22-73.96,40.05-101.72,52.35-203.8,104.01-306.17,155.1-8.41,4.2-14.15,3.11-20.83-2.71-15.27-13.31-30.46-26.75-46.78-38.81-17.74-13.1-39.58-13.12-57.25.01-15.83,11.77-30.72,24.69-45.61,37.61-10.44,9.06-10.88,9.24-23.36,3.01-49.45-24.69-98.98-49.21-148.27-74.19-53.25-26.99-106.44-54.07-159.46-81.51-20.45-10.58-40.97-21.1-60.88-32.71-3.13-1.82-6.48-3.38-7.31-7.46-1.77-29.08-9.34-57.36-11.76-86.35-1.42-21.5-.46-43.02-.6-64.52-.11-16.55-.4-33.1.21-49.64-.05-3.04-.26-6.08.04-9.12-.07-4.3-.09-8.6.07-12.9-.08-3.66-.07-7.32.63-10.94,2.1-3.26,1.66-6.92,1.66-10.51.01-36.93-.81-73.88.25-110.78,1.21-42.24,1.19-84.47,1.48-126.71.18-26,9.32-46.92,34.43-58.33,5.11-2.32,10.34-3.37,16.02-3.67,65.72-3.4,131.49-.31,197.21-1.75,25.3-.56,50.59-1.62,75.91-1.43,2.84.02,5.52-.31,8.01-1.72,3.52-.87,7.09-1.06,10.71-1.06,88.09.04,176.17.03,264.26,0,3.6,0,7.19.34,10.79.27,5.39-.26,10.81-.71,15.69,2.4Z" style="fill: #ebe9e9; stroke-width: 0px;"/>
  <path d="M119.82,446.97l-.08,13.23c-12.84,9.78-21.78,22.7-29.97,36.38-7.7,12.85-16.5,24.82-27.47,35.35-21.3,20.45-20.98,56.86-.09,78.33,6.56,8.18,13.39,16.15,20.47,23.89,10.91,12.08,23.59,21.86,38.07,29.3,3.86,2.48,7.94,4.7,10.81,8.44,31.91,18.98,65.16,35.43,98.13,52.42,93.53,48.21,187.48,95.58,281.7,142.44,4.73,2.35,7.57,1.99,11.52-1.34,16.93-14.29,33.98-28.46,51.36-42.18,16.52-13.05,40.96-12.59,58,.03,18.06,13.38,34.63,28.54,51.94,42.81,3.62,2.98,6.12,3.03,10.13,1,57.85-29.23,115.88-58.1,173.69-87.42,56.05-28.43,111.94-57.21,167.81-85.99,17.23-8.87,34.45-17.79,50.67-28.48,3.7-5.84,10.23-8.11,15.4-12.08,2.4-1.84,4.85-3.58,6.98-5.74,15.25-10.9,25.66-26.19,36.86-40.77,8.1-7.82,11.33-18.14,14.34-28.48,3.07-10.5,6.03-13.55,12.51-11.84,9.59,2.52,15.98,12.34,12.61,20.88-3.02,7.65-6.08,15.41-10.94,22.22-1.22,1.7-2.9,3.19-.26,5.56,8.77,7.89,8.98,10.7,2.42,20.42-.62.92-1.37,1.73-2.11,2.55-13.3,10.48-17.81,25.25-18.93,41.11-2.09,29.56-2.4,59.21-3.67,88.81-1.48,34.32-2.67,68.66-4.38,102.98-.87,17.42-2.08,34.88-2.1,52.36-.04,34.69-3.47,69.17-6.29,103.7-1.24,15.19-.22,30.45-1.78,45.71-2.43,23.72-4.28,47.49-7.69,71.1-1.27,8.78-2,17.6-4.47,26.2-5.35,18.59-18.78,23.45-33.46,10.68-7.89-6.86-17.9-9.35-26.05-15.79-4.81-3.81-13.02-4.27-19.67-6.99-10.74-4.39-20.4-11.34-31.88-13.85-4.23-.93-6.92-3.28-8.35-7.25-1.37-3.81-4.11-5.92-8.13-6.02-5.79-.16-10.16-3.26-13.54-7.31-7.99-9.57-18.43-15.81-28.7-22.34-1.88-1.19-3.9-2.26-5.38-3.91-12.34-13.73-28.21-23.33-41.72-35.67-48.5-44.32-100.13-85.02-149.1-128.77-10.5-9.38-21.61-17.92-32.28-27.04,52.84,49.13,108.33,95.25,162.36,143.03,38.65,34.18,77.69,67.94,116.27,102.19,31.73,28.17,64.24,55.51,94.39,85.44,3.36,3.34,6.42,6.91,9.1,10.82,1.61,2.36,3.02,4.83,1.46,7.71-1.63,3.02-4.54,2.79-7.34,2.43-5.82-.75-11.62-1.84-16.63-5.02-19.68-12.49-38.5-26-56.55-40.92-19.49-16.1-37.73-34.39-61.84-44.23-3.66-1.49-6.28-4.51-8.75-7.56-7.4-9.14-16.29-16.44-26.37-22.57-6.52-3.97-11.86-9.82-20.44-9.59-2.39.06-4.35-2.33-5.9-4.33-5.25-6.73-12.18-10.09-20.56-11.36-12.6-1.9-23.62-6.55-32.51-16.59-5.16-5.82-14-7.59-19.32-13.96-1.3-1.55-3.66-.46-5.58-.14-7.62,1.28-13.77-.56-17.03-8.3-1-2.37-2.32-4.67-5.07-5.09-9.02-1.37-17.32-6.23-26.8-5.36-5.77.53-10.03-1.67-13.1-6.89-4.9-8.35-14.91-10.28-21.71-16.39-2.23-2-4.62-.05-6.44,1.92-1.66,1.79-3.27,4.18-6.23,2.8-2.68-1.25-.3-4.05-1.41-5.87-8.68,2.77-8.81,2.79-9.93-6.61-.36-3.02-2.15-3.38-4.43-3.88-14.74-3.28-28.2-9.4-40.05-18.8-2.29-1.82-4.4-2-6.92-1.02-3.29,1.27-6.75,1.48-9.58-.66-6.14-4.66-13.27-6.77-20.49-8.81-1.87-.53-4.11-.99-5.2-2.49-6.4-8.8-16.93-8.85-25.81-12.04-7.17-2.58-14.93-.39-21.97,1.67-6.4,1.88-11.35,1.08-16.05-3.27-.61-.56-1.36-.98-1.93-1.58-11.8-12.16-25.82-12.6-40.71-7.48-4.37,1.5-8.37,2.81-12.63-.1-3.12-2.12-6.35-.96-9.59.05-5.92,1.85-11.01.73-14.56-4.75-3.27-5.06-8.4-6.36-13.77-6.19-8.35.26-16.35,1.7-23.86,6.21-8.51,5.11-16.86,10.56-26.29,14.19-7.24,2.79-13.81,7.47-19.29,12.94-15.6,15.57-34.35,27.17-50.99,41.38-45.35,38.75-91.73,76.27-136.85,115.33-35.65,30.87-71.02,62.11-107.97,91.47-3.51,2.79-7.42,4.83-11.53,6.58-6.94,2.95-13.56,6.43-18.62,12.25-4.35,3.78-8.59,7.69-12.56,11.88-3.23,1.93-5.95,4.47-8.48,7.24-2.33,2.14-4.39,4.69-7.84,5.12-2.26.04-4.01-.86-5.21-2.79-.15-8.41,6.22-12.54,11.43-17.44,3.36-1.44,6.63-3,7.96-6.83,2.5-3.43,6.16-5.68,8.9-8.89,3.4-3.01,6.98-5.71,11.3-7.29,13.29-3.99,22.52-14.22,32.61-22.58,21.53-17.85,43.1-35.69,63.88-54.48,19.11-17.27,38.91-33.81,58.23-50.85,16.21-14.29,32.44-28.58,48.62-42.92,26.77-23.71,54.23-46.65,80.91-70.45,25.05-22.35,51.03-43.62,75.82-66.26,15.16-13.84,30.95-26.99,45.83-41.14,2.1-2,5.02-3.67,4.96-7.34-3.72-2.15-7.03-.16-10.32.95-13.77,4.68-26.18,12.06-38.51,19.59-11.27,6.89-23.27,11.79-36.53,13.02-5.68.53-9.98,2.89-13.11,7.67-2.72,4.17-6.34,6.93-11.69,6.67-3.56-.17-6.18,2.22-9.18,3.59-7.38,3.36-10.89,1.89-13.85-5.79-.5-1.31-.99-2.5-1.99-3.54q-9.2-9.59-3.34-19.95c-.25-.5-.79-1.07-1.22-.86-8.95,4.4-15.56.53-23.41-4.31-11.99-7.4-24.44-14.19-36.45-21.64-7-4.35-13.2-9.9-22.32-9.75-3.53.06-5.67-3.39-6.33-6.88-.97-5.14-3.38-6.76-8.78-5.64-10.5,2.18-17.48-2.94-18.21-13.48-.46-6.67-3.65-10.26-9.67-11.76-8.41-2.09-16.22-4.54-16.45-15.44-.04-1.92-1.8-3.7-3.76-4.11-12.39-2.55-22.16-10.29-32.83-16.25-5.45-3.04-9.02-7.39-10.15-13.49-2.03-10.93-8.26-19.91-13.33-29.44-.52-.98.41-.18-.47-.65-12.31-6.47-17.02-19.9-26.6-28.83-3.7-3.45-6.9-7.24-9.39-11.6-9.96-17.47-25.7-27.14-44.35-32.73-8.43-2.53-14.46-8.01-19.61-14.7-7.8-10.12-16.02-19.88-25.2-28.76-2.3-2.22-5.05-5.76-8.33-4.61-3.85,1.36-3.37,6.15-3.46,9.49-.3,11.93-2.19,23.72-2.21,35.7-.11,50.22-1.54,100.44-1.92,150.66-.23,29.64-.4,59.33-1.48,88.95-1.6,44.07-2.14,88.16-3.51,132.23-.88,28.25-.91,56.56-3.13,84.76-.85,10.8-1.61,21.56-1.59,32.39,0,2.46,0,5.07-2.36,6.78-2.36-9.2-1-18.59-1.25-27.88-.38-14.58-.26-29.18-.34-43.77-.86-27.13-1.51-54.26.43-81.38.14-1.92.64-3.82.59-5.78-.84-32.18,1.38-64.31,1.63-96.48.39-50.48,1.37-100.95,2.24-151.41.54-31.33-.03-62.68,1.34-93.98.7-16.07,1.19-32.13,1.67-48.19.42-13.89,9.96-22.05,21.07-27.59,6.59-3.29,9.26-7.01,8.7-14-.55-6.97-1.54-13.85-4.16-20.31-3.84-9.46-2.17-17.79,3.74-25.81,5.44-7.38,11.17-14.51,17.25-21.36,16.95-19.11,30.3-41.11,47.8-59.78,2.65-2.83,5.03-5.95,8.05-8.4,2.27-1.83,4.49-4.49,7.99-2.27Z" style="fill: #efb961; stroke-width: 0px;"/>
  <path d="M3.07,1175.35c.64-18.25.97-36.52,1.97-54.75,2.25-41.2,2.43-82.46,3.76-123.68.62-19.37-.28-38.81,1.36-58.1,2.26-26.59.36-53.21,1.68-79.76,1.29-26.17,1.79-52.33,1.39-78.5-.57-37.99,2.7-75.91,1.95-113.91-.2-10.11,1.89-20.27,3.13-30.38.87-7.09,2.63-7.62,8.71-3.28,12.58,8.99,21.31,21.57,30.92,33.28,5.7,6.94,11.95,11.82,21,14.72,17.6,5.64,33.25,14.95,42.61,32.15,3.04,5.59,8.31,9.58,12.15,14.38,7.79,9.72,16.1,18.7,24.55,27.78,7.57,8.13,12.95,19.75,14.42,31.93.38,3.14,1.8,6.51,4.64,7.5,7.36,2.57,11.47,11.16,20.44,10.7,1.31-.07,3.25,1.35,3.97,2.62,2.18,3.81,4.48,4.77,9.26,4.17,5.58-.7,9.09,3.7,8.85,9.58-.21,5.37,1.42,8.25,7.21,8.83,3.5.35,6.87,2.08,10.26,3.28,5.27,1.87,7.84,5.21,7.75,11.25-.17,11.09,6.39,15.64,16.75,12.41,5.81-1.81,9.82-1.06,9.87,6.45.03,5.27,2.53,7.54,8.51,7.32,5.52-.2,10.74,1.18,15.13,6.55,3.49,4.27,10.04,6.03,15,9.51,10.94,7.69,24.08,11.87,34.36,20.82,3.15,2.74,6.23.87,9.02-1.17,3.2-2.34,7.19-3.6,9.59-.22,2.02,2.84-1.49,5.3-3.62,7.43-4.02,4.02-2.19,10.54,3.72,12.33,2.44.74,4.74.3,4.46,4.24-.54,7.63,3.41,9.85,10.29,5.84,3.92-2.29,6.73-5.81,12.53-3.79,3.35,1.16,6.13-3.27,7.64-6.54,2.25-4.87,6.4-7.54,11.07-7.67,20.15-.55,36.07-11.17,52.33-21.06,9.75-5.93,20.33-10,31.04-13.68,3.02-1.04,7.12-1.86,9.21,1.42,2.32,3.65-1.89,5.33-3.83,7.18-24.36,23.29-49.78,45.4-75.35,67.36-19.71,16.93-38.86,34.5-58.48,51.52-22.53,19.55-45.41,38.69-67.93,58.24-16.07,13.95-31.71,28.41-47.72,42.44-19.94,17.48-40.61,34.16-59.96,52.27-17.99,16.84-37.39,31.98-55.78,48.31-11.54,10.25-24.01,19.47-36.27,28.87-2.76,2.12-6.14,3.9-10.03,3.47-.98-3.73,1.85-5.62,4.08-7.32,5.02-3.81,9.31-8.46,14.37-12.21,2.29-1.39,4.2-3.25,6.06-5.17,1.77-1.71,3.74-3.13,5.95-4.23,27.04-17.75,50.06-40.34,74.37-61.4,32.92-28.52,65.35-57.59,98.2-86.2,28.23-24.59,56.31-49.38,84.05-74.53,18.24-16.53,37.61-31.77,49.47-42.99-11.67,11.42-31.94,25.55-49.93,42.33-24.59,22.94-52.99,41.17-78.19,63.32-28.81,25.32-60.2,47.25-90.46,70.67-11.95,9.25-24.64,16.87-37.54,24.48-8.49,5.01-18.77,4.85-26.87,10.68-2.35,1.69-5.41.38-7.74-1.43-9.65-7.53-18.4-16.1-26-25.61-6.37-7.97-6.39-18.2-6.86-27.85-.31-6.36-1.99-11.71-5.53-17.03-11.97-18.01-20.51-37.37-21.58-59.41-.18-3.61-.82-7.32-2.58-10.46-6.37-11.39-6.75-23.79-6.79-36.32-.02-8.42-3.33-16.27-4.41-24.53-4.04-30.73-9.93-61.28-10.72-92.34-.54-21.41-3.35-42.57-5.75-63.75-1.79-15.76-1.11-31.56-2.35-47.33-1.19-15.22-3.84-30.24-4.7-45.48-.6-10.73,1.2-21.66-2.26-32.21-1.01-3.08-.97-6.55-4.28-9.98-1.63,9.07-2.79,17.35-3.16,25.82-1.45,33.5-.33,67.11-4.77,100.47-.18,1.37-.2,2.77-.17,4.16,1.05,45.52-2.29,90.97-1.98,136.5.11,16.01-2.04,32.07-1.07,48.18-2.36,46.2-2.23,92.46-4.42,138.66-1.01,21.27-2.62,42.57-2.29,63.94.13,8.74-.11,17.8-5.95,25.32-2.5-12.05-1.42-24.28-1.76-36.44Z" style="fill: #ebae4b; stroke-width: 0px;"/>
  <path d="M53.34,1308.32c-2.32-2.14-4.65-4.28-6.97-6.42.9-1.42,2.26-2.15,3.8-2.61,18.78-8.46,38.3-10.4,58.55-6.98,24.4,4.12,49.12,4.01,73.74,5.14,35.96,1.66,71.94,2.73,107.9,4.08,16.05.6,32.09.63,48.12,1.14,2.86-.19,5.71.06,8.52.59,3.81,1.2,7.63,1.7,11.51.2.91-.26,1.82-.41,2.75-.5,3.45-.21,6.88-.19,10.32.19,34.93,1.44,69.88.16,104.79.97,125.83,2.94,251.67,1.29,377.5,1.32,32.93,0,65.87-1.63,98.83-1.38,12.71.18,25.39.26,38.13-.38,8.18-.41,16.49-.76,24.67-.69,27.13.23,54.13-2.52,81.26-2.54,16.84-.02,33.66-2.09,50.51.25,3.26.45,6.67-.08,9.73,1.6.38.37.76.74,1.14,1.11-16.13,19.63-38.65,23.3-62.01,24.82-75.13,4.89-150.39,3.8-225.6,4.01-172.4.48-344.8.73-517.2.32-71.33-.17-142.69.03-214.01-2.53-4.37-.16-8.9.66-13.07-1.45,5.05-7.86,4.44-10.37-4.92-13.2-14.34-4.34-28.4-9.37-42.37-14.76-10.15-3.91-18.14,1.59-25.64,7.68Z" style="fill: #ab582c; stroke-width: 0px;"/>
  <path d="M953.16,1306.67c-16.93.01-33.87-.37-50.78.1-122.16,3.41-244.34,1.4-366.5,1.27-47.5-.05-95.04-.93-142.55-1.7-7.69-.12-15.85,2.38-23.43-1.33-3.32-1.31-6.65-1.31-9.97,0-.57,0-1.14.01-1.72.02-3.31,1.28-6.62,1.28-9.93,0-2.8,0-5.59-.02-8.39-.03-7.86-2.17-15.97-.93-23.91-1.28-20.2-.89-40.47-1.47-60.57-3.19-42.78-3.66-85.95-3.67-128.22-12.67-7.37-1.57-14.53-3.66-21.53-6.37-5.96-2.31-11.92-2.48-17.91-.3-13.62,4.94-26.89,10.52-37.78,20.49-1.2.08-2.4.16-3.6.24,0,0,.07-.02.07-.02-1.88-4.7-7-9.51.5-13.88,3.8.34,7.27-.71,9.95-3.32,14.17-13.76,32.22-17.43,50.79-20.49,19.85-3.27,39.32.37,58.85,2.11,21.28,1.9,42.69,1.91,63.89,4.53,33.06,4.09,66.57.77,99.51,6.37,1.64.28,3.33.28,4.99.22,29.43-.96,58.84,1.09,88.19,2.17,30.26,1.11,60.53-.17,90.72,1.5,36.58,2.02,73.27,3.24,109.78,2.54,68.28-1.31,136.56.19,204.79-1.56,30.53-.78,61.14.66,91.53-1.61,52.83-3.94,106.01-1.42,158.61-9.25,16.07-2.39,31.66.39,45.74,8.89,8.95,5.41,18.95,5.75,28.76,7.19,1.45.21,2.6-.75,3.04-2.25-.19-3.74-2.72-6.35-4.46-9.34-1.47-2.55-3.3-5-2.18-8.24,3.63-5.91,9.72-9.05,15.23-12.49,20.28-12.68,27.72-32.04,29.41-54.53.56-7.43,2.08-14.76,1.99-22.24-.02-1.93.52-3.85,1.85-5.38,1.15-1.32,2.58-2.22,4.36-1.55,1.53.58,1.68,2.07,1.59,3.46-.23,3.55.68,7.17-.63,10.65-.11,3.24-.23,6.48-.34,9.72-1.92,7.17.55,14.61-1.33,21.79-.57,20.29-4.11,39.72-16.3,56.67-6.01,3.92-11.58,8.44-17.4,12.61-2.36,1.69-3.81,3.95-4.47,6.76-.68,2.9-2.14,5.08-5.33,5.66-13.31,0-26.38-3.95-39.73-2.64-21.45,2.11-43.02,2.74-64.41,5.8-9.83,1.41-19.85,1.32-29.79,1.64-23.69.76-47.35,1.93-71.01,3.28Z" style="fill: #c7691c; stroke-width: 0px;"/>
  <path d="M739.86,123.55c-92.92.04-185.84.1-278.77.09-2.67,0-5.63.64-7.84-1.74,17.62-16.24,35.2-32.52,52.88-48.69,8.15-7.45,16.07-15.14,24.19-22.62,15.41-14.21,31.4-27.74,47.1-41.61,5.36-4.73,12.4-5.66,19.13-7.11,4.42-1.26,8.85-1.1,13.28-.11,1.69.51,3.81-.09,4.94,1.89-2.73,2.69-6.23,1.84-9.47,2-6.48.33-12.38,2-18.55,7.32,8.56.41,15.46-1.76,22.55-1.6,8.52.19,15.63,2.87,22.01,8.35,35.76,30.73,70.75,62.3,104.3,95.44,2.3,2.28,5.2,4.38,4.24,8.37Z" style="fill: #f0bc6b; stroke-width: 0px;"/>
  <path d="M1201.13,580.29c.5,7.18,5.15,13.61,3.81,21.12,1.39,8.79.28,17.64.64,26.46-.17,21.31-1.09,42.61-.83,63.93.38,30.39-.68,60.78-.55,91.16.13,32.15-.75,64.29-.36,96.44.41,33.81-1.55,67.6-1.91,101.41-.24,22.38.36,44.88-1.51,67.18-2.67,31.79-1.15,63.7-4.19,95.51-1.84,19.26-1.5,38.76-4,58.05-1.71,13.13-5.69,25.4-12.41,36.79-1.55,2.63-3.13,5.29-5.48,7.29-4.97,4.23-10.9,4.77-16.37,2.07-5.39-2.66-3.64-8.09-2.63-12.65,2.17-9.79,3.56-19.64,3.31-29.69-.49-19.4,2.57-38.69,1.13-58.19-.58-7.81,1.71-15.91.42-23.95-.3-1.43-.33-2.87-.17-4.31,1.23-3.7.37-7.4-.04-11.11-.42-34.16,3.68-68.1,4.38-102.24.83-40.45,2.32-80.93,4.5-121.36,1.32-24.35,1.12-48.82,2.04-73.18,1.54-40.75,3.03-81.48,3.28-122.27.09-13.81,2.36-27.62,3.6-41.44.6-6.7,2.9-13.14,6.2-18.89,5.11-8.9,7.06-18.47,8.78-28.39,1.21-7.01,1.45-14.96,8.38-19.76Z" style="fill: #eca926; stroke-width: 0px;"/>
  <path d="M106.62,1226.72c-6.44,6.35-14.63,10.79-19.99,18.31-3.27,2.24-6.54,4.48-9.81,6.72-10.21,4.19-19.35.4-28.25-4.08-4.66-2.35-8.56-5.97-12.92-8.84-6.56-4.31-9.66-3.51-14.79,2.5-3.34,3.91-3.95,9.88-9.32,12.18-6.05-13.29-6.16-27.53-6.7-41.71,5.16-28.99,3.7-58.37,5.24-87.58,2.07-38.96,2.94-77.94,3.55-116.94.13-8.45,1.19-17.04,1.41-25.6.36-17.95,2.51-35.79,3.27-53.71.14-3.32-.31-6.68.49-9.95.71-2.9.83-6.68,4.83-6.73,3.52-.05,5.18,3.04,6.08,6.02,1.67,5.57,3.8,11.15,4.05,16.97,1.51,34.92,5.92,69.6,9.16,104.36,2.75,29.53,4.54,59.2,8.53,88.55,2.8,20.55,4.52,41.34,9.27,61.64,1.91,8.16,4.66,16.01,8.52,23.41,5.62,10.76,11.98,13.63,23.97,11.35,3.27-.62,6.37-2.04,9.71-2.29,4.25-.32,5.78,1.38,3.7,5.44Z" style="fill: #da8832; stroke-width: 0px;"/>
  <path d="M1161.44,1118.42v3.31c1.45,10.77-.97,21.34-2.38,31.84-1.39,10.36-3.87,20.58-4.28,31.09-.62,16-10.18,29-14.84,43.66-1.5,4.74-5.97,8.99-12.2,4.35,12.35-18.81,15.54-40.01,16.12-61.86.13-4.73.73-9.4,1.25-14.09,3.4-30.91,4.34-61.99,5.25-93.02,1.43-48.77,2.66-97.57,3.95-146.34,1.29-49.08,2.33-98.16,3.16-147.25.59-34.37,2.04-68.76,3.3-103.13.42-11.45,4.24-21.71,12.32-30.13,1.84-3.06,3.9-5.92,5.19-9.38,2.26-6.06,1.04-9.82-5.7-10.58-5.63-.63-5.37-3.36-2.18-6.35,6.78-6.35,8.51-15.36,12.53-23.11,4.18-8.05-3.58-19.77-12.61-20.02-4.72-.13-6.38,3.51-7.23,7.65-2.07,10.08-6,19.43-11.45,28.16-1.35,2.16-2.8,4.1-5.13,5.26-2.63-6.1-.33-11.95,1.66-17.45,3.37-9.32,2.01-16.95-5.12-24.02-4.93-4.89-7.38-11.5-9.86-17.93-.52-2.81-1.81-5.56-.68-8.49,4.06-2.18,5.8,1.81,8.44,3.27,2.99,1.66,6.04,3.59,9.18.95,2.96-2.48,1.4-5.7.21-8.45-4.32-10.03-10.75-18.82-17.39-27.33-13.8-17.71-26.01-36.72-42.18-52.51-2.32-2.27-3.05-5.18-4.13-8,.23-4.07-1.88-8.42,1.52-12.09,38.57,39.2,74.57,80.54,104.62,126.77,3.46,5.32,6.65,10.87,8.35,17.09-2.58,8.36-6.2,16.36-6.6,25.41-.39,8.93-4.31,16.85-8.83,24.56-6.98,11.9-5.9,25.64-7.45,38.67-3.03,25.63-.95,51.46-1.98,77.16-1.46,36.47-2.77,72.93-3.5,109.43-.51,25.27-1.17,50.64-3.29,75.83-1.73,20.51.28,41.05-1.68,61.37-2.15,22.34.39,44.84-3.17,66.99-2.18,13.54-1.01,27.06-1.59,40.59-.14,3.27-1.05,6.5-1.6,9.75,1.24,2.78,1.25,5.57,0,8.35Z" style="fill: #eeb133; stroke-width: 0px;"/>
  <path d="M119.82,446.97c-6.28,1.32-9.57,6.62-13.09,10.94-22.14,27.18-43.85,54.71-65.78,82.07-5.85,7.3-7.8,14.65-3.6,23.79,4.08,8.88,4.63,18.67,4.36,28.47-.14,5.05-3.29,6.59-7.19,7.75-13.75,4.11-22.36,16.17-22.97,30.27-1.76,41.01-.21,82.1-2,123.05-1.58,36.34.61,72.68-1.57,108.9-1.67,27.74.39,55.49-1.67,83.08-1.74,23.3,1.49,46.84-1.87,69.7-4.36,29.65-1.05,59.19-2.96,88.71-1.94-2.75-1.22-5.9-1.22-8.89C.21,936.66.42,778.5,0,620.34c-.08-30.02,10.07-55.33,28.26-78.52,27.13-34.59,53.58-69.73,85.06-100.63,1.57-1.55,3.31-2.93,4.97-4.39,2.83,3.04,1.46,6.71,1.53,10.16Z" style="fill: #e8bb93; stroke-width: 0px;"/>
  <path d="M1128.13,1233.38c7.29-.15,11.17-3.86,11.67-11.14.33-4.89,3.23-8.77,5.39-12.86,5.51-10.47,7.63-21.66,7.9-33.3.3-12.7,5.38-24.61,5.84-37.32.21-5.7,1.64-11.36,2.51-17.03,2.09,1.63,1.7,3.97,1.65,6.14-.57,24.93-1.2,49.87-1.76,74.8-.27,12.1-.6,24.14-4.49,35.82-.84,2.53-1.9,7.04,2.11,7.72,5.18.88,11.24,2.52,15.16-3.38,8.69-13.05,13.37-27.37,15.88-42.91,4.06-25.15,1.91-50.65,5.58-75.85,1.44-9.91.81-20.49.62-30.7-.41-21.08,2.09-42,2.08-63.06-.02-31.37.36-62.77,1.68-94.11,1.49-35.41,1.73-70.81,1.34-106.22-.12-10.57,3.25-21.03,1.63-31.39-2.62-16.74,2.82-33.51-1.17-50.22-.96-4.01.98-8.67,1.34-13.05,1.68-20.25-.46-40.52.06-60.78.39-15.37,1.08-30.73,1.63-46.1.47-.75.91-.7,1.33.04.16,53.01.48,106.03.44,159.04-.09,102.71-.28,205.42-.66,308.13-.1,27.75-1.02,55.5-1.63,83.25-.05,2.16-.65,4.31-1,6.47-.12-2.48-.1-4.99-.41-7.45-.25-1.93,1.23-5.29-2.11-5.21-2.53.06-2.55,3.13-2.64,5.39-.54,13.48-1.77,26.84-4.57,40.11-4.01,19.01-16.16,31.44-31.59,41.59-4.14,2.72-8.12,5.68-12.18,8.53-4.45-.13-5.08-2.99-3.41-6.02,4.12-7.5-.21-8.32-6.09-8.59-11.18-.52-19.35-7.13-27.22-14.09-1.51-1.34-3.26-3.31-.85-5.58,5.27-1.41,10.48-4.12,15.95-.7Z" style="fill: #e69e33; stroke-width: 0px;"/>
  <path d="M11.53,1253.5c2.03-3.91,3.7-8.05,6.15-11.67,6.93-10.28,12.03-11.3,21.38-3.29,11.01,9.43,23.45,13.75,37.76,13.21-2.09,3.54-5.62,5.59-8.55,8.25-1.8,3.29-5.34,4.52-8.01,6.77-4.18,5.35-10.28,9.36-11.62,16.69.44,1.63,0,3.05-1.05,4.31-.32.22-.64.43-.97.64-4.34,4.43.99,8.98-.16,13.46-16.6-12.54-28.25-28.66-34.92-48.38Z" style="fill: #c66718; stroke-width: 0px;"/>
  <path d="M739.86,123.55c-10.53-12.52-22.21-24.05-34.48-34.7-10.88-9.44-20.49-20.14-31.7-29.25-15.42-12.53-29.9-26.24-44.81-39.41-9.3-8.21-20.43-7.16-31.53-6.01-1.91.2-3.78,1.03-5.67,1.03-2.64,0-6.52,3.6-7.66-1.2-.83-3.49,3.19-4.61,5.73-6.19,7.79-4.82,16.45-4.23,25.04-4.17,10.39.84,17.47,7.82,24.58,14.09,19.88,17.53,39.32,35.56,58.91,53.42,17.55,16,35.08,32.02,52.59,48.07,1.41,1.29,2.57,2.85,3.85,4.29-4.95,0-9.89.01-14.84.02Z" style="fill: #eeb036; stroke-width: 0px;"/>
  <path d="M53.34,1308.32c3.69-7.95,15.59-13.44,24.09-10.33,15.24,5.57,30.28,11.7,46.06,15.66,1.05.26,2.05.83,3.01,1.36,8.94,4.94,8.89,7.79-.23,13.59-3.79-.18-7.58-.36-11.38-.54-4.41-1.5-9.12.49-13.51-1.2-18.29-.29-34.57-5.78-48.05-18.54Z" style="fill: #8d3c1a; stroke-width: 0px;"/>
  <path d="M1159.83,1296.73c2.88-13.89,14.12-18.59,25.47-23.16-7.41,11.43-15.56,22.2-27.13,29.86l-.23-.24c-1.84-2.87.12-4.63,1.89-6.45Z" style="fill: #ab582c; stroke-width: 0px;"/>
  <path d="M1206.1,628.49c-.45,0-.89-.01-1.33-.04.06-9.01.11-18.02.17-27.04,2.39,8.94,1.2,18.03,1.17,27.07Z" style="fill: #eeb133; stroke-width: 0px;"/>
  <path d="M1201.59,1216.9c.21-7.28-1.76-14.69,1.33-21.79.11,7.3.72,14.62-1.33,21.79Z" style="fill: #eca926; stroke-width: 0px;"/>
  <path d="M609.84,1.76c-4.43.04-8.85.08-13.28.11,4.41-2.55,8.83-2.42,13.28-.11Z" style="fill: #ebe9e9; stroke-width: 0px;"/>
  <path d="M101.39,1326.86c4.54.03,9.21-1.49,13.51,1.2-4.56.16-9.16.91-13.51-1.2Z" style="fill: #ab582c; stroke-width: 0px;"/>
  <path d="M779.88,600.18h83.05c-13.67,17.84-22.2,36.49-36.6,51.16-4.62-1.25-6.33,2.8-8.71,5.12-17.14,16.7-35.19,32.21-56.57,43.35-33.07,17.22-67.9,28.11-105.31,31.13-19.7,1.59-39.35,1.52-59.01,1.27-36.69-.47-71.8-8.94-106.18-21.51-21.37-7.82-40.72-18.81-58.55-32.68-21.65-16.84-39.2-37.25-53.59-60.64-7.9-12.84-13.59-26.63-19.85-40.2-1.41-3.06-2.6-6.2-6.97-5.35-2.41-2.31-2.33-5.51-3.06-8.42-6.67-26.6-7.51-53.77-5.73-80.81,2.11-32.1,9.78-63.17,23.6-92.47,13.87-34.38,33.73-65.08,60.55-90.45,33.46-31.64,73.26-52.21,118.81-60.81,49.16-9.28,98.02-9.12,145.75,7.4,69.52,24.06,117.7,69.9,137,141.92,16.53,61.66,5.03,119.44-30.49,172.43-1.21,1.8-2.98,3.22-4.49,4.82-4.94-.16-7.15,3.93-9.97,6.75-12.77,12.78-25.5,25.5-41.01,35.12-22.02,13.65-46.15,21.33-71.78,21.04-18.38-.21-36.25-5.07-49.09-20.66-6.33-7.69-6.7-7.26-14.74-1.36-31,22.73-64.28,28.05-99.52,11.33-20.05-9.51-35.28-25.03-46.44-44.11-18.34-31.34-22.46-65.11-15.76-100.46.89-4.7,1.06-9.35.14-14.04-.41-5.48,1.93-10.29,3.84-15.17,11.9-30.46,29.19-57.16,54.62-78.17,2.14-1.77,3.86-3.99,5.99-5.78,13.61-10.34,28.39-18.43,44.92-23.02,30.87-8.56,59.87-4.63,86.71,13.3,7.97,5.32,8.34,5.41,10.92-3.61,1.68-5.86,5.54-7,10.65-7.01,13.32-.04,26.64-.07,39.97-.01,1.87.12,3.73.27,5.56.7,2.94.98,5.98.93,9.02,1.01,10.23.26,11.22,1.12,13.73,11.6.66,3.73-.43,7.27-1.19,10.85-13.99,61.69-27.34,123.53-40.45,185.41-.78,3.69-2.67,8.38.66,11,3.18,2.51,6.79-1.02,9.76-2.68,24.83-13.9,42.53-34.39,54.06-60.17,4.41-9.86,7.93-20.15,9.2-31.03,1.64-9.42,2.31-18.94,3.24-28.44,4.54-8.05,3.34-16.89,2.32-25.23-2.88-23.42-12.17-44.29-27.74-62.15-40.82-46.8-93.36-61.52-153.46-56.91-40.1,3.08-75.73,17.04-106.42,42.44-32.14,26.6-53.22,60.61-62.36,101.65-.64,2.88,0,5.48.82,8.14.77,7.76-2.25,14.98-3.18,22.5-1.23,3.43-1.09,6.99-.94,10.56.89,8.98-1.92,17.92-.23,26.9-.01,35.12,7.83,68.05,28.44,97,12.63,17.74,28.34,32.39,47.82,42.64,24.01,14.51,50.64,20.97,77.98,24.76,39.14,5.42,78.01,3.97,116.23-6.82,19.63-5.54,37.99-13.92,54.69-25.74,11.4-7.11,20.64-16.55,28.97-26.98,3.07-3.85,5.45-8.41,10.37-10.42Z" style="fill: #759fe8; stroke-width: 0px;"/>
  <path d="M510.18,361.99c-12.15,11.25-24.22,22.57-33.92,36.1-13.27,18.51-23.94,38.3-29.48,60.58-.08,4.34-.14,8.68-2.54,12.55-5.46,13.87-6.84,28.61-6.8,43.12.08,25.74,4.68,50.91,18.07,73.39,18.97,31.83,54.49,53.06,91.85,47.75.82-.25,1.67-.42,2.52-.53,3.32-.43,6.75-.04,9.96-1.35,11.28-2.49,21.73-7.12,31.94-12.37,2.69-1.38,5.35-2.76,8.53-2.33,6.46.48,12.19,2.71,17.86,5.96,23.68,13.55,48.74,16.76,75.02,8.87,17.49-5.38,34.53-11.64,49.92-21.99,14.84-9.98,27.62-22.09,39.47-35.33,1.97-2.2,3.37-5.26,7.13-4.85.29,4.47-1.32,7.83-5.12,10.51-4.15,2.93-6.09,7.66-8.35,12.05-2.09,4.05-.07,5.55,3.65,6.05-10.63,14.21-21.43,28.26-36.78,37.89-4.25-4.5-8.92-3.18-13.79-1.17-16.44,6.76-32.93,13.29-50.93,14.84-20.11,1.73-40.01,1.88-58.71-7.22-11.69-5.69-23.34-6.26-35.37-1.19-3.82,1.61-7.97,2.38-11.91,3.74-21.55,7.44-43.31,8.95-65.46,2.73-5.54-1.55-11.14-3.08-16.99-3.13-23.86-12.34-41.9-30.87-55.07-53.89-15.15-26.48-22.05-55.35-21.63-85.91,2.01-3.26.75-6.98,1.32-10.47,2.66-16.28,7.62-31.44,15.2-46.31,14.83-29.09,33.97-54.53,57.93-76.54,4.97-4.57,10.55-8.1,16.4-11.29,1.93-1.05,3.99-2.22,6.1-.25Z" style="fill: #d9dadf; stroke-width: 0px;"/>
  <path d="M353.09,571.92c.4-1.58.38-3.67,2.41-3.92,2.19-.27,2.16,1.91,2.87,3.34,7.15,14.31,12.48,29.42,20.94,43.22,8.57,13.99,18.68,26.44,29.28,38.85,15.18,17.78,33.79,31.19,53.65,42.29,20.43,11.42,42.91,18.6,65.77,24.7,37.98,10.14,76.54,10.97,115.25,9.53,38.82-1.44,75.81-11.49,110.65-28.61,23.52-11.56,43.69-27.92,62.12-46.48,2.32-2.34,4.76-4.72,7.57-6.37,3.36-1.98,2.58,1.14,2.73,2.85-17.6,20.52-36.62,39.46-59.83,53.73-17.8,12.71-37.6,21.19-58.43,27.46-39.01,11.73-79.01,14.86-119.45,13.1-51.36-2.24-99.67-15.27-143.59-42.66-46.65-29.09-76.31-71-92.25-123.14-.8-2.62-1.85-5.35.31-7.9Z" style="fill: #4a69ca; stroke-width: 0px;"/>
  <path d="M81.66,635.16c-7.81-6.79-14.1-14.89-20.01-23.31-5.6-14.71-8.92-30.14-2.22-44.78,9.09-19.86,17.81-39.91,27.08-59.69,6.04-12.89,13.65-24.7,23.42-35.06,2.58-2.74,5.09-6.2,9.76-3.78.19,38.86.37,77.71.56,116.57,1.12,5.07.24,10.2.51,15.28-4.11,3.53-4.78-.84-5.66-2.87-2.44-5.64-5.43-10.79-10.03-14.96-5.35-4.85-7.33-4.49-9.59,2.6-2.51,7.88-3.91,16.05-4.96,24.24-.88,6.87-3.23,13.36-4.62,20.1-.49,2.4-1.52,4.78-4.25,5.68Z" style="fill: #d26d1a; stroke-width: 0px;"/>
  <path d="M353.09,571.92c12.91,49.7,39.14,90.61,80.86,120.91,31.4,22.8,66.68,36.65,104.66,44.32,29.83,6.03,59.92,7.43,90.1,6.04,47.6-2.18,93.16-12.54,134.68-37.19.91-.54,2.07-.64,3.11-.95-5.5,7.87-14.42,10.85-22.25,15.23-29.88,16.72-62.22,25.23-96.19,28.26-18.43,1.65-36.91,3.9-55.36,3.05-44.41-2.05-87.96-9.25-128.36-28.8-26.5-12.83-51.02-29.05-70.66-51.49-27.08-30.94-43.26-67.07-50.47-107.45-3.9-21.85-6.18-43.83-4.83-65.97,2.21-36.09,9.9-71,24.83-104.1.64-1.42,2.12-2.46,3.21-3.67-6.37,19.95-13.38,39.64-17.01,60.43-6.5,37.2-6.74,74.18,1.38,111.08.75,3.41-.57,7.36,2.31,10.28Z" style="fill: #bebac1; stroke-width: 0px;"/>
  <path d="M789.69,571.56c-9.77,10.76-19.13,21.87-30.57,31.05-18.28,14.67-38.26,25.77-61.22,31.15-1.04.24-1.98.92-2.97,1.39-20.51,4.46-40.82,5.23-60.67-3.13-4.84-2.04-9.98-3.83-13.84-7.33-6.17-5.59-13-6.59-20.68-4.94-12.8,6.37-25.39,13.27-39.75,15.7-3.3,1.42-7.03-.56-10.27,1.31l-.72-.03-.71.07c-23.04,2.06-43.97-3.82-62.01-18.13-36.77-29.17-49.51-68.7-48.28-114.17.32-11.72,1.51-23.15,5.12-34.3,1.22-3.84,2.44-7.69,3.65-11.53,2.83,4.38,1.77,9.21.89,13.66-8.08,41.2-1.77,79.53,24.23,113.07,20.01,25.82,46.4,40.93,80.04,39.6,21.38-.85,40.35-9.07,56.63-22.88,5.25-4.45,8.01-4.49,12.53,1.28,14.58,18.6,34.46,23.35,57.39,22.07,27.57-1.54,51.52-11.41,73.47-27.25,12.19-8.8,22.19-20.02,32.89-30.47,2.3-2.25,4.45-6.69,8.69-2.31-1.46,1.93-4.05,3.14-3.86,6.12Z" style="fill: #3f67d2; stroke-width: 0px;"/>
  <path d="M1086.65,448.52c20.6,21.6,38.04,45.72,55.46,69.85,4.36,6.03,8.57,12.2,11.02,19.35,1.07,3.12,2.71,6.24-.81,9.01-3.31,2.61-6.81,2.37-10.05.38-3.26-2-6.15-4.61-9.2-6.95-3.73.17-4.1-2.96-5.26-5.32-2.19-7.52-6.22-14.21-9.85-21.06-1.12-2.11-2.36-5.04-5.4-4.26-2.77.71-3.29,3.69-3.38,6.15-.45,11.36-2.19,22.6-2.23,34.03-.06,14.95-.94,29.91-3.47,44.7-.61,3.55-1.43,7.08-2.92,10.39-4.74,5.57-6.75,13.39-13.89,17.01-.04-50.3-.08-100.6-.11-150.91,0-7.46.06-14.91.09-22.37Z" style="fill: #eeb359; stroke-width: 0px;"/>
  <path d="M1086.66,621.8c3.83-5.56,7.66-11.11,11.49-16.67,11.53-12.92,15.62-28.8,17.6-45.36.85-7.15,1.64-14.28,4.05-21.05,2.16-6.09,4.9-6.83,10.04-3.51,1.08,1.65,2.16,3.3,3.23,4.95.56,2.76,1.11,5.52,1.67,8.28-5.58,2.42-6.86,7.24-7.48,12.69-3.37,29.65-9.13,58.84-17.38,87.52-6.57,7.23-15.28,11.43-23.37,16.51.05-14.45.1-28.91.15-43.36Z" style="fill: #e2933c; stroke-width: 0px;"/>
  <path d="M119.69,468.53c-10.9,4.06-15.91,14.04-21.71,22.76-11.06,16.62-17.98,35.44-25.83,53.67-3.18,7.37-6.97,14.37-10.48,21.52-2.39,4.87-4.38,9.77-3.27,15.08,2.09,10.01.28,20.4,3.25,30.29-9.25-6.13-13.03-15.62-15.03-25.81-4.29-21.85-3.52-42.23,16.01-57.9,15.42-12.36,23.62-30.42,34.06-46.62,4.57-7.09,10.62-12.71,16.39-18.66,1.87-1.93,3.98-2.93,6.66-2.67-.02,2.78-.03,5.55-.04,8.33Z" style="fill: #ebae4b; stroke-width: 0px;"/>
  <path d="M119.6,601.82c.22-5.58.43-11.15.65-16.73,1.79,12.38,3.58,24.76,5.43,37.13,2.46,16.46,7.21,32.73,5.88,49.65-4.77-.93-7.79-4.88-11.91-6.92-1.24-2.5-2.25-5.06-2.27-7.92-.15-16.08-.21-32.16.04-48.24.04-2.5.36-5,2.19-6.98Z" style="fill: #d1bbb5; stroke-width: 0px;"/>
  <path d="M1128.13,1233.38c-5.64-.23-10.96,2.63-16.66,1.7q-4.67.02-15.53-7.64c5.81,6.05,11.23,10.94,16.09,16.36,4.35,4.85,9.13,9.63,9.24,16.89-1.47,5.28-5.72,5.34-9.99,5.34-10.89,0-20.47-4.62-30.21-8.63-28.08-11.57-56.76-20.5-87.45-21.82-21.31-.92-42.48-4-63.76-5.49-9.37-.65-18.75.27-28.19-.15-33.47-1.52-66.96-2.9-100.46-3.38-11.92-.17-23.79-1.83-35.75-.88-12.86,1.02-25.16-4.21-37.98-3.81-22.72.71-45.12-5.08-67.89-3.36-.55.04-1.15.19-1.66.03-23.27-7.32-46.84,1.91-70.11-1.19-22.91-3.05-45.85-3.72-68.88-2.97-15.02-7.39-32.69-.94-47.57-9.09-.72-.4-1.65-.66-2.42-.52-13.38,2.42-26.47-1.29-39.68-1.63-7.67-.2-15.05-.71-21.87-3.77-8.79-3.95-17.93-4.71-26.91-3.03-20.59,3.84-40.88,1.31-61.25-1.16-12.47-1.52-24.9-1.82-37.27.82-13.29,2.84-26.49-1.03-39.79-.44-9.28.41-18.06,1.91-26.74,5.18-12.96,4.87-26.46,8.17-39.39,13.12-26.42,10.13-48.87,27.21-72.71,41.87-4.26,2.62-8.29,5.63-13.2,6.95-3.48.94-7.05,2.02-10.18-.99,3.06-4.85,7.26-8.45,12.63-10.36,14.45-5.14,25.45-15.44,36.77-25.01,32.28-27.28,64.01-55.19,96.21-82.57,34.92-29.69,70.16-59,105.16-88.6,26.54-22.45,54.81-42.76,80.92-65.76,6.62-5.83,14.38-10.17,23.02-12.82,6.85-2.1,11.91-7.46,18.26-10.73,11.07-5.71,21.87-8.05,33.93-4.37,2.64.8,4.2,1.63,5.26,4.34,2.4,6.13,7.37,7.41,12.92,4.89,4.71-2.15,8.75-3.36,12.67,1.22,1.39,1.63,3.46,1.91,5.28.6,6.95-4.98,15.4-4.23,23.12-5.29,8.16-1.12,15.15,4.09,21.18,9.36,6.14,5.36,11.09,9.43,20.91,5.95,7.59-2.69,16.74-2.29,26.02-.23,11.18,2.49,17.57,11.81,27.79,14.29,6.77,1.64,13.18,3.67,18.48,8.35,2.36,2.08,5.29,2.72,7.65.85,4.88-3.87,8.02-2.8,10.74,2.43,2.44,4.67,7.57,5.36,11.86,6.8,9.74,3.27,17.56,11.44,29.12,10.35,5.77-.54,4.72,3.83,2.83,7.48-.76,1.47-1.68,3.12-.23,4.58,1.47,1.48,3.03.67,4.44-.37,2.31-1.71,4.48-5.48,7.66-2.47,3.35,3.17-3.67,4.35-2.1,7.88.56,0,1.65.32,1.99-.05,7.8-8.47,7.62-8.25,16.73-1.67,7.29,5.27,16.54,8.16,20.06,17.76.31.85,2.48,1.63,3.63,1.45,11.14-1.75,21.06,3.83,31.66,5,3.74.41,5.22,2.17,6.48,5.24,3.73,9.1,7.86,11.03,16.86,7.43,3.9-1.56,6.16.43,7.68,2.91,2.97,4.85,7.16,7.4,12.41,8.92,1.77.51,3.77,1.7,4.75,3.18,8.33,12.52,21.45,15.3,34.88,17.44,7.83,1.25,13.86,5.22,18.44,11.51,2.67,3.66,5.73,6.03,10.51,4.14,1.67-.66,3.38-.76,4.67.53,11.87,11.77,28.67,17.76,38.04,32.53,1.44,2.27,3.64,4.9,6.01,5.58,12.06,3.48,21.25,11.76,31.12,18.62,11.91,8.28,22.96,17.84,34,27.29,13.24,11.33,26.38,22.63,41.68,31.28,9.54,5.39,17.72,13.46,29.64,13.57,1.79.02,3.84,1.69,5.27-.63,1.48-2.4-.03-4.09-1.47-5.89-16-20.04-36.1-35.81-54.96-52.87-13.53-12.23-27.22-24.29-40.93-36.32-20.98-18.4-42.49-36.22-62.9-55.22-15.2-14.15-31.4-27.1-46.79-40.99-20.92-18.88-42.4-37.13-63.61-55.68-18.52-16.19-37.1-32.3-55.48-48.65-19.22-17.1-39.33-33.23-57.01-52.01-2.01-2.14-5.01-3.61-5.5-7.83,6.27,1.39,9.71,6.45,13.73,9.84,29.32,24.76,57.75,50.58,87.4,74.92,15.34,12.59,29.5,26.6,45.99,37.88,7.14,4.89,12.51,12.21,19.16,18.05,21.73,19.06,44.67,36.69,65.72,56.58,6.83,6.46,15.85,10.68,24.09,15.56,4.3,2.54,5.97,7.1,9.09,10.51,7.22,7.89,23.1,3.95,24.98,18.62,9.86.44,17.05,7.36,25.74,10.46,5.73,2.04,11.46,3.54,16.27,7.46,1.45,1.18,3.86,3.01,4.95,2.53,8.27-3.62,11.99,2.65,16.73,7.02,2.05,1.9,4.6,3.29,7.5,3.19,3.45-.13,6.08,1.4,7.76,4.04,4.44,6.96,12,7.45,18.79,9.21,5.46,1.42,9.3-.78,11.68-6.47,5.42-12.98,6.55-26.75,8.15-40.41,2.94-25.16,5.6-50.36,8.19-75.56.51-4.95.21-9.98.2-14.98-.05-24.61,3.43-48.99,4.68-73.51.54-10.49,2.26-20.95,1.89-31.42-.85-24.14,1.41-48.18,2.13-72.25.76-25.4,1.92-50.82,3.13-76.21.84-17.57.11-35.29,1.92-52.67,2.27-21.73-.64-43.58,3-65.12,2.55-15.12,5.78-30.09,19.91-39.45-12.06,18.6-8.52,39.68-10.48,60.11-1.96,20.44,1.26,40.98-2.66,61.25-.72,3.75-.25,7.75-.16,11.64,1.02,44.78-.91,89.54-2.12,134.28-.47,17.41.13,34.91-1.41,52.24-2.21,24.82.17,49.79-3.08,74.54-1.03,7.87.88,15.67.42,23.74-1.03,17.92-2.29,35.87-2.46,53.88-.17,17.85-2.87,35.67-4.44,53.5-.8,9.07-.74,18.18-1.51,27.28-1.05,12.36-6.08,23.36-8.8,35.09-1.04,4.47-5.47,6.01-8.25,8.98Z" style="fill: #ebae4b; stroke-width: 0px;"/>
  <path d="M79.96,1261.66c6.63.46,12.5-1.51,17.94-5.27,14.55-10.06,29.49-19.66,44.62-28.7,14.01-8.37,28.75-15.87,45-20.35,10.16-2.8,20.59-5.67,30.43-10.18,7.64-3.49,16.22-4.68,24.93-3.83,20.64,1.99,41.21-1.24,61.79-1.29,16.16-.04,32.37,2.53,48.48,4.51,6.56.81,12.87-.65,18.86-1.84,15.58-3.1,29.66,2.11,44.52,4.24,15.58,2.23,31.64,7.47,47.91,3.19,2.68-.71,5.65-1.09,8.15.35,9.77,5.6,20.08,6.81,30.98,4.5,1.27-.27,3.15-.29,4,.44,8.18,7.03,17.95,4.65,27.02,4.12,25.5-1.48,50.55,5.47,76.03,3.55,4.95-.37,9.84-.36,14.82-1.32,7.69-1.48,15.18-2.4,23.43.67,8.99,3.34,19.23,1.12,28.95,1.14,7.07.02,14.21,1.4,21.17,2.88,10.32,2.2,20.59-.56,31.12,1.09,17.27,2.71,34.87,3.53,52.46,4.14,26.48.91,52.95,1.05,79.43,1.48,8.2.13,16.46,3.14,24.55,2.62,11.78-.75,23.47.63,35.26-.06,11.4-.67,23.14-.37,34.41,2.38,12.24,2.99,24.84,2.22,37.08,2.66,16.59.59,32.2,4.67,47.97,8.26,16.93,3.86,33.2,10.2,49.01,17.54,7.11,3.3,14.62,5.01,22.43,5.33,3.84.16,7.43-.21,7.09-5.52,3.74-.7,4.54,2.33,5.71,4.67,1.59,3.18,3.09,6.4,4.79,9.53,4.1,7.58,10.4,10.83,18.95,10.25,2.87-.19,5.94-1.73,8.69.57,3.39,4.49,1.67,7.26-3.33,6.43-11.02-1.83-22.39-1.48-32.6-8.06-13.85-8.92-29.83-10.43-45.69-7.88-14.76,2.37-29.63,2.65-44.4,4.39-23.17,2.73-46.62.07-69.71,2.11-38.46,3.39-76.96,1.54-115.37,3.25-60.47,2.69-120.93.35-181.38,1.43-18.12.32-36.28,2.21-54.33,1.36-28.54-1.35-57.14.04-85.57-1.79-26.91-1.73-53.77-.15-80.61-1.35-38.44-1.71-76.97-1.65-115.31-4-17.2-1.05-34.71-3.03-51.9-3.37-15.41-.31-30.69-1.58-45.97-2.72-26.94-2.01-53.96-2.68-80.82-6.13-26.21-3.36-52.24-2.08-77.11,8.53-7.8,3.33-13.54,9.54-20.6,13.86-2.67,1.63-5.21,4.34-6.63-1.06,0,0,.36-.06.36-.06,1.5-2.25,4.5-1.54,6.3-3.2,2.24-1.74,4.48-3.48,6.73-5.22,3.12-1.71,5.28-4.6,8.17-6.59,2.92-4.91,7.2-8.45,11.79-11.68Z" style="fill: #e69e33; stroke-width: 0px;"/>
  <path d="M119.6,601.82c.01,21.05.03,42.1.04,63.14-14.5-7.6-27.69-16.85-37.98-29.81,5.62-14.12,6.7-29.26,9.92-43.93,1.24-5.64,1.66-13.36,6.77-15.06,5.93-1.97,8.81,6.05,12.95,9.72,4.65,4.13,4.55,11.1,8.3,15.92Z" style="fill: #b63d0b; stroke-width: 0px;"/>
  <path d="M1109.88,648.66c-2.76-2.1-.94-4.36-.36-6.7,6.64-26.65,12.74-53.41,15.33-80.84.23-2.44,1.46-4.84,1.42-7.25-.1-6.69,3.32-7.25,8.47-5.42,3.89,7.59,7.3,15.32,13.6,21.59,4.11,4.09,5.6,9.59,3.41,16.02-2.46,7.24-3.55,14.94-5.24,22.44-10.49,14.96-21.36,29.57-36.63,40.16Z" style="fill: #d8700e; stroke-width: 0px;"/>
  <path d="M60.25,1266.78c1.19-4.01,4.92-5.01,8.01-6.77-.56,4.75-3.47,6.73-8.01,6.77Z" style="fill: #ebae4b; stroke-width: 0px;"/>
  <path d="M68.17,1273.34c-1.91,3.21-3.92,6.29-8.17,6.6,2.08-3,4.1-6.07,8.17-6.6Z" style="fill: #ebae4b; stroke-width: 0px;"/>
  <path d="M53.27,1285.16c-1.23,2.8-3.57,3.38-6.31,3.2-.24-1.9.48-3.48,1.66-4.9,1.55.57,3.1,1.13,4.64,1.7Z" style="fill: #ebae4b; stroke-width: 0px;"/>
  <path d="M106.62,1226.72c-.39-1.57.98-4.5-2.61-3.66-2.42.56-4.77,1.42-7.15,2.16-15.53,4.87-25.43-.16-31.78-15.08-7.13-16.75-9.21-34.46-11.85-52.19-4.86-32.69-6.19-65.76-10.4-98.45-4.46-34.69-4.91-69.74-10.89-104.27-1.95-11.28.93-23.25-3.62-34.41-.82-2.02-1.2-4.23-2.09-6.21-.4-.89-1.53-1.93-2.41-2.01-1.74-.16-1.82,1.49-2.26,2.83-3.26,9.9-.38,20.37-3.14,30.39-2.74,9.96-1.72,20.32-1.79,30.54-.01,1.93.22,3.93-1.6,5.32.44-36.31,1.02-72.65,2.13-108.91.77-24.94-.83-49.97,1.41-74.76,3.32-36.69,3.31-73.46,5.08-110.18.36-7.57-.26-16.08,4.74-23.5,4.53,3.49,5.26,8.3,6.65,13,3.88,13.14.96,26.73,3.19,39.99,5.51,32.72,3.79,66.03,8,98.93,3.07,23.98,3.46,48.3,5.48,72.44,1.14,13.66,2.58,27.25,5.68,40.77,2.5,10.87.99,22.5,4.13,33.58,4.08,14.37,3.89,29.35,5.16,44.11.52,6.05,5.58,10.21,6.55,15.99,1.44,8.69,1.77,17.66,4.11,26.09,4.12,14.83,10.02,29.15,19.42,41.51,3.67,4.82,4.86,9.54,4.96,15.29.18,9.94,0,20.64,6.64,28.52,7.91,9.4,17.49,17.4,26.4,25.96,1.31,1.26,3.16,1.58,4.63.57,11.53-7.98,25.85-9.5,37.74-17.08,18.92-12.05,36.14-26.29,54.2-39.44,32.83-23.92,63-51.14,94.98-76.08,20.06-15.64,39.11-32.35,58.65-48.51,16.6-13.72,33.03-27.78,49.98-41.25,2.1,2.78-.08,4-1.34,5.11-23.64,20.99-47.38,41.87-71.01,62.87-16.54,14.69-32.82,29.67-49.45,44.27-19.93,17.5-40.2,34.61-60.14,52.09-16.43,14.4-32.5,29.2-48.89,43.64-22.39,19.74-44.78,39.49-67.52,58.82-5.99,5.09-13.3,8.62-20,12.87-3.39-1.4-4.4.63-4.91,3.4-1.16,2.2-2.79,3.91-5.07,4.95Z" style="fill: #e69e33; stroke-width: 0px;"/>
  <path d="M111.69,1221.77c-5.05-1.75-.59-3.36.31-4.41,1.77-2.07,3.95-3.31,4.6,1.01-1.64,1.13-3.27,2.27-4.91,3.4Z" style="fill: #da8832; stroke-width: 0px;"/>
  <path d="M49.98,1301.67c3.09-8.9,11.78-11.38,18.69-15.56,5.6-3.39,12.24-5.05,18.37-7.57,8.11-3.34,15.75-1.11,23.34,1.84,15.06,5.87,31,7.29,46.78,9.82,29.49,4.73,59.45,3.39,88.96,7.83,9.19,1.38,18.71,1.18,28.08,1.88,20.65,1.55,41.36,2.34,62.04,3.55,1.25.07,2.44,1.01,3.66,1.55-29.91,1.2-59.75-1.38-89.62-2.04-27.57-.61-55.23-1.17-82.75-3.17-22.48-1.64-45.05-1.84-67.43-6.02-17.12-3.2-34.02,1.3-50.12,7.89Z" style="fill: #c66718; stroke-width: 0px;"/>
  <path d="M1159.83,1296.73c-.63,2.15-1.26,4.3-1.89,6.45-9.41.73-18.77-1.38-28.02-1.22-38.63.68-77.25,2.29-115.87,3.41-20.29.58-40.58,1.18-60.88,1.3.94-.51,1.89-1.49,2.82-1.47,19.34.39,38.43-3.26,57.72-3.45,17.31-.17,34.42-3.54,51.51-4.28,29.53-1.28,59.16-8.86,88.82-.94,1.82.49,3.86.15,5.8.2Z" style="fill: #c66718; stroke-width: 0px;"/>
  <path d="M359.93,1305.01c3.32-2.48,6.65-2.48,9.97,0-3.32,0-6.65,0-9.97,0Z" style="fill: #c66718; stroke-width: 0px;"/>
  <path d="M348.29,1305.03c3.31,0,6.62,0,9.93,0-3.31,2.54-6.62,2.54-9.93,0Z" style="fill: #c66718; stroke-width: 0px;"/>
  <path d="M1157.94,1283.42c-16.96,4.45-24.14,1.04-32.18-14.49-1.84-3.55-1.61-8.39-5.95-10.53-3.22-6.89-8.23-12.37-13.46-17.79-4.89-5.06-11.2-9.01-14.62-17.63,7.48,4.58,13.61,8.34,19.74,12.1,9.07,8.94,18.41,17.09,32.44,16.73,7.99-.2,9.5,3.17,4.67,10.1-2.14,3.07-2.11,4.81,1.19,6.43,2,5.42,7.19,9.11,8.18,15.07Z" style="fill: #eca926; stroke-width: 0px;"/>
  <path d="M1161.44,1118.42c0-2.78,0-5.57,0-8.35,2.46,2.78,2.47,5.57,0,8.35Z" style="fill: #e69e33; stroke-width: 0px;"/>
  <path d="M623.24,496.95c-7.44,26.06-20.92,48.22-43.45,63.79-26.39,18.24-55.31,3.9-61.48-30.19-5.11-28.26.69-54.9,12.67-80.53,1.28-2.73,2.44-5.51,3.65-8.27,5.41-17.13,16.72-28.56,33.5-34.75,4.67.75,9.38.75,14.09.85,19.57.43,35.87,13.61,41.46,32.48,5.64,19.03,3.2,37.78-.46,56.62Z" style="fill: #eaeaeb; stroke-width: 0px;"/>
  <path d="M510.18,361.99c-7.03,1.98-13.14,5.91-18.36,10.66-23.85,21.71-43.58,46.48-58.76,75.27-9.2,17.44-14.04,35.69-17.99,54.53-.34,1.61-.23,3.35-1.84,4.4-2.21-9.49.69-18.91.38-28.38,2.54-3.09-.85-6.92,1.25-10.07,1.06-7.8,2.13-15.59,3.19-23.39.03-10.94,3.75-21.03,7.8-30.88,15.09-36.7,39.61-65.71,73.17-86.78,10.47-6.57,21.28-12.95,33.65-15.73,4.73.06,9.29-.64,13.91-1.84,51.48-13.43,100.86-8.07,147.92,17.04,3.17,1.69,6.28,3.59,8.85,6.14,2.85,2.83,4.64,5.87-.21,8.62-13.3.08-26.6.42-39.89.11-5.68-.13-8.14,1.22-9.2,7.35-1.9,10.98-2.49,10.91-12.06,4.23-36.99-25.82-79.75-23-116.45-1.14-5.22,3.11-10.24,6.57-15.35,9.87Z" style="fill: #e8e8ea; stroke-width: 0px;"/>
  <path d="M764.9,466.98c-2.73,22.63-12.19,42.41-26.16,60.08-11.81,14.94-25.61,27.64-43.39,35.35-8.64,3.74-10.31,3.03-8.81-6.1,2.86-17.44,6.61-34.75,10.34-52.04,9.98-46.17,20.14-92.29,30.27-138.43.17-.77.81-1.44,1.23-2.16,6.79-2.14,9.27,3.56,12.22,7.33,13.03,16.66,21.16,35.5,24.65,56.45,2.21,13.26.89,26.35-.35,39.51Z" style="fill: #e8e8ea; stroke-width: 0px;"/>
  <path d="M489.93,646.66c.31-2.76,1.74-2.47,4.07-2.14,10.1,1.42,19.98,4.01,29.94,5.98,17.19,3.41,32.79-1.69,48.69-6,6.11-1.66,12.07-3.87,18.08-5.89,11.41-3.84,21.7.06,31.88,4.61,18.34,8.21,37.4,7.6,56.91,5.85,18.89-1.69,35.59-9.47,52.9-15.84,4.43-1.63,10.96-5.17,10.69,4.83-23.85,18.36-51.38,28.15-80.6,33.01-48.84,8.12-97.11,5.6-144.19-10.82-9.93-3.46-19.76-7.29-28.36-13.59Z" style="fill: #ebe9e9; stroke-width: 0px;"/>
  <path d="M531.45,313.51c-25.74,9.41-47.4,24.89-66.48,44.32-24.11,24.54-38.5,54.25-46.92,87.2-2.79-2.04-2.08-4.61-1.47-7.45,8.47-39.22,28.65-71.83,57.65-98.81,17.1-15.91,37.52-27.1,59.41-35.64,29.2-11.39,59.7-15.09,90.4-12.52,41.16,3.44,78.75,17.53,108.88,47.06,20.25,19.84,34.02,43.74,37.88,72.16,1.19,8.76,4.04,18.52-2.49,26.94-1.62-1.09-1.76-2.87-2.13-4.55-.3-2.87-.04-5.81-1.16-8.57-3.53-17.12-8.31-33.72-17.94-48.67-4.98-7.74-11.98-13.69-17.21-21.14-.76-9.87-7.12-11.35-15.3-10.4-2.08.24-4.45.57-6.19-1.33,6.43-3.15,4.83-5.97-.08-9.27-19.33-13-40.35-22.13-63.16-26.57-34.47-6.7-68.75-5.97-102.46,4.9-3.66,1.18-7.6,1.01-11.22,2.34Z" style="fill: #4473d9; stroke-width: 0px;"/>
  <path d="M566.6,408.59c-14.65,7.2-23.99,19.52-31.96,33.16-3.27-.37-3.22-2.25-2.31-4.75,7.64-20.82,35.34-48.39,61.48-45.4,12.01,1.37,22.04,4.99,29.39,14.57,7.96,10.38,12.71,22,11.62,35.4-.32,3.96.15,8.48-4.87,10.3-2.92-2.66-3.01-6.44-3.76-9.9-1.24-5.73-2.93-11.29-5.38-16.6-7.16-15.52-24.77-24.15-41.49-20.17-4.25,1.01-8.57,1.89-12.7,3.39Z" style="fill: #4c76d6; stroke-width: 0px;"/>
  <path d="M531.45,313.51c16.35-8.09,34.1-11.2,51.89-12.87,33.78-3.18,66.76.9,98.11,14.76,13.69,6.05,26.46,13.52,38.06,24.01-3.54,3.36-7.62,1.98-11.14,2.7-1.75-.17-3.49-.35-5.24-.52,3.5-4.32.23-6.31-2.86-8.38-19.61-13.08-41.39-20.41-64.41-24.68-14.98-2.78-30.04-4.17-45.22-3.23-14.79.91-29.69,1.4-43.85,6.71-4.94,1.85-10.05,2.8-15.34,1.51Z" style="fill: #c0c2cf; stroke-width: 0px;"/>
  <path d="M566.6,408.59c17.25-12.3,44.72-6.02,54.59,12.55,5.1,9.6,7.71,19.95,8.75,30.73-.35,15.31.16,30.74-6.7,45.07-1.18-11.93,2.81-23.65,1.57-35.54-1.31-12.6-2.4-25.29-11.25-35.62-8.09-9.44-17.66-15.7-30.54-15.59-5.53.05-11.07.26-16.42-1.6Z" style="fill: #bbbbc5; stroke-width: 0px;"/>
  <path d="M729.87,353.84c8.22,3.5,12.85,11.05,17.44,17.71,10.7,15.52,16.95,33.13,19.39,51.96,1.56,2.61-.42,5.8,1.4,8.37.07,1.63.14,3.27.21,4.9-.39,10.15-.23,20.37-3.42,30.21.64-19.99-.43-39.76-6.72-59.01-4.99-15.27-13.34-28.46-23.66-40.55-1.58-1.85-3.21-3.96-6.14-3.74.5-3.28,1-6.56,1.5-9.84Z" style="fill: #b3b4c4; stroke-width: 0px;"/>
  <path d="M414.85,468.41c-.89,3.3,3.89,7.3-1.25,10.07-.07-3.42-1.24-6.97,1.25-10.07Z" style="fill: #d9dadf; stroke-width: 0px;"/>
  <path d="M443.13,470.2c-2.55,14.99-3.93,30.07-3.24,45.29,1.83,40.54,14.95,75.89,47.94,101.57,13.77,10.72,29.46,17.46,47.26,18.35,4.41.22,8.81.91,13.21,1.38-10.9,4.21-22.04,2.03-32.43-.75-32.44-8.68-55.17-29.15-68.77-59.89-8.89-20.09-11.58-41.39-11.99-62.96-.25-13.2,2.76-26.25,4.98-39.27.3-1.75,1.47-2.93,3.04-3.72Z" style="fill: #a7a9be; stroke-width: 0px;"/>
  <path d="M599.74,619.75c5.67-3.99,10.7-5.59,17.28-.36,17.92,14.25,38.86,19.11,61.42,16.81,5.5-.56,10.96-1.08,16.48-1.06-27.97,9.65-54.52,5.46-79.42-9.31-5.17-3.07-11.15-2.52-15.76-6.08Z" style="fill: #adadbe; stroke-width: 0px;"/>
  <path d="M549.73,636.76c3.19-2.27,6.77-1.43,10.27-1.31-3.16,2.45-6.78,1.38-10.27,1.31Z" style="fill: #a7a9be; stroke-width: 0px;"/>
  <path d="M1129.83,535.21c-5.65-2.95-7.07.75-8.46,5.13-3.19,10.01-2.74,20.57-4.9,30.73-2.01,9.48-5.72,18.32-9.9,26.97-1.68,3.47-4.02,6.63-8.43,7.09,2.97-8.93,4.72-18.02,5.08-27.51.79-20.66,2.1-41.31,3.32-61.96.13-2.16.81-4.37,1.65-6.38,1.98-4.72,5.44-6.14,8.5-1.53,5.63,8.48,11.08,17.19,13.14,27.45Z" style="fill: #eeb133; stroke-width: 0px;"/>
  <path d="M768.1,431.87c-2.42-2.46-1.36-5.51-1.41-8.37,2.44,2.46,1.34,5.51,1.41,8.37Z" style="fill: #759fe8; stroke-width: 0px;"/>
</svg>