<?xml version="1.0" encoding="UTF-8"?>
<svg id="Layer_1" data-name="Layer 1" xmlns="http://www.w3.org/2000/svg" viewBox="0 0 1217.08 1125.58">
  <path d="M299.59,94.68c33.56-23.09,69.64-41.37,107.48-56.26,28.31-11.13,57.38-19.86,87.07-26.4,51.33-11.29,103.26-14.15,155.64-10.57,56.34,3.85,110.42,17.34,162.78,38,31.62,12.47,62.09,27.32,90.41,46.31,3.91,3.77.54,4.55-2.26,4.9-3.07.38-5.93-1.08-8.8-2.11-15.55-5.56-31-11.06-48.1-9.39-7.14.7-13.76-3.06-20.3-5.87-25.19-10.82-50.5-21.25-77.14-28.22-16.62-4.35-33.59-5.61-50.5-5.93-33.73-.63-67.33-3.23-101.01-4.64-7.1-.3-14.21-.06-21.32-.16-3.05-.04-6.1-.04-9.04-1-3.72-1.21-5.53-2.86-3.26-7.21,2.91-5.57,1.77-7.33-4.64-8.2-9.16-1.25-18.27.08-27.29,1.42-28.19,4.19-55.9,10.37-82.4,21.17-1.12.46-2.4.68-3.48,1.99,15.15-2.09,29.85-5,44.67-7.07,6.59-.92,13.16-.82,19.75-.51,1.95.09,4.49.16,4.92,2.64.4,2.32-1.67,3.56-3.46,4.49-4.74,2.46-9.83,4.09-14.82,5.97-27.81,10.48-55.44,21.36-80.19,38.28-3.57,2.44-7.09,4.94-10.01,8.16-4.92,5.42-4.44,9.84,1.78,13.7,5.09,3.16,10.91,3.85,16.79,4.26,14.1.99,27.95-1.24,41.48-4.49,23.38-5.61,47.15-6.65,70.96-7.66,20.01-.85,39.99-2.33,60.05-1.61,23.75.84,46.98,4.02,69.02,13.52,5.13,2.21,10.42,3.92,15.86,5.3,12.69,3.22,22.68,11.05,32.19,19.57,3.16,2.83,1.4,4.29-1.69,5-3.52.82-7.05.27-10.59-.23-9.27-1.33-18.39-3.74-28.31-3.88,24.47,11.08,121.32,31.2,136.75,28.48.3-3.03-4.52-3.65-3.42-6.96.96-2.88,3.78-3.97,5.87-5.76,7.04-6.05,15.67-9.33,23.81-13.43,12.6-6.35,24.38-13.51,32.15-25.92,3.68-5.88,9.17-5.28,14.83-2.78,13.39,5.9,13.29,5.74,23.9-4.91,4.03-4.05,6.26-10.11,12.56-11.73,11.74-10.42,21.37-22.84,32.21-34.11,9.11-9.47,17.9-19.22,28.25-27.43,3.8-3.01,7.67-4.69,12.48-4.01,2.04,5.54-1.3,10.26-2.68,15.13-3.78,13.38-7.47,26.8-12.22,39.88-12.83,40.69-24.89,81.52-32.54,123.66-3.31,18.25,2.87,33.93,7.29,50.42.67,2.51,3.03,3.97,4.59,5.93,9.71,12.26,22.18,22.13,30.62,35.51,3.27,5.19,8.11,9.04,12.82,12.93,9.3,7.68,11.47,16.47,7.61,27.89-3.45,10.19-9.13,17.79-19.85,21.38-5.52,1.84-10.49,5.16-12.45,11.43-.8,2.57-3.09,4.04-5.34,5.21-6.67,3.48-9.14,9.26-9.07,16.35.07,6.66-.64,13.05-3.15,19.36-2.3,5.76-2.14,12.01-.63,18.02,3.1,12.31,4.64,24.95,8.09,37.2.93,3.3,2.27,6.87.14,10.34-5.23.83-5.28-3.85-6.53-6.65-4.55-10.2-9.32-20.29-14.01-30.43-8.13-17.56-21.57-28.24-39.93-33.43-6.41-1.81-12.57-1.62-19.24-1.41-14.89.48-29.75,3.24-44.56,2.06-7.33-.59-14.48-3.8-22.1-4.59-5.72-.6-11.33-2.42-17.21-2.8-6.21-.4-7.97-2.92-5.67-8.33,1.97-4.64.24-7.06-3.26-9.51-7.35-5.15-16.29-8.14-20.72-17.17-4.64-9.45-11.99-17.57-12.86-28.79-.29-3.72-1.71-7.34-6.1-9.69-1.9,9.56-9.04,15.49-13.37,23.15-1.32,2.33-3.2,5.57-6.33,4.06-2.68-1.3-1.12-4.51-.63-6.96,2.2-10.91,5.17-21.72,4.52-33.03-.15-2.53.14-5.09-1.06-7.46-8.08-32.34-26.67-59.46-43.22-87.65-15.15-25.8-31.78-50.72-45.49-77.36-1.11-2.16-1.7-5.3-4.98-4.91-2.95.35-3.55,3.32-4.59,5.58-7.18,15.58-5.6,30.47,3.33,44.92,2.43,3.94,6.18,7.74,3.88,13.2-2.94,2.77-6.63,2.6-10.04,1.88-10.27-2.17-20.03-.46-29.84,2.61-6.24,1.95-12.57,3.93-19.26,3.82-.75.01-1.51.01-2.26,0-14.03-.17-15.51-2.36-9.52-14.85,2.32-4.83,3.13-9.36.69-14.42-3.15-6.54-4.01-13.46-2.05-20.57,1.46-5.19,5.85-9.48,4.84-16.32-5.83,6.26-8.98,13.49-12.87,20.08-20.22,34.24-42.22,67.41-61.1,102.44-1.1,2.04-2.26,3.97-4.46,5.01-3.08,1.33-4.25,4.23-5.63,6.93-5.71,11.2-8.93,23.17-11.06,35.48-.53,3.06.03,6.05.53,9.07,4.09,24.31,15.97,45.45,28.04,66.27,16.67,28.76,33.01,57.72,49.91,86.35,2.83,4.79,6.94,9.66,4.58,16.13-3.23,1.03-6.35.02-9.51-.42-4.31-1.39-8.77-.64-13.16-.9-12.13-2.49-23.96-6.01-35.52-10.46-3.65-2.61-7.97-3.05-12.21-3.74-.71-.12-1.41-.3-2.1-.5-2.47-.83-5.03-.61-7.57-.6-22.17-2.58-43.91-7.56-65.84-11.48-37.23-6.66-69.87,3.39-97.14,29.27-21.13,20.05-41.31,41.09-61.89,61.72-9.84,8.09-15.89,19.6-25.28,28.11-2.06,1.87-3.96,3.96-6.6,5-3.9,1.53-7.05,1.33-7.6-3.87,2.16-10.72,6.21-20.86,9.96-31.07,2.8-7.63,5.01-15.42,7.2-23.22,1.11-3.96,1.06-7.51-1.01-11.6-3.39-6.71-.38-14.08.65-20.89,2.02-13.4.69-25.52-7.11-36.97-6.04-8.87-7.84-19.23-7.08-29.82.78-10.86-2.65-18.71-13.33-22.86-4.89-1.9-8.37-5.57-9.73-10.95-1.25-4.97-5.17-7.72-9.56-9.02-19.45-5.73-36.36-16.49-53.8-26.29-18.6-10.46-38.78-17.44-58.29-25.91-2.79-1.21-5.65-2.25-8.1-4.12-11.75-9.06-11.44-8.74-.68-19.23,6.48-6.32,14.45-9.31,22.37-12.49,20.79-8.35,40.03-19.54,59.17-31.02,9.76-5.85,19.78-11.36,30.17-16.07,8.95-4.06,16.88-9.18,21.42-18.42,1.68-3.43,4.35-6.24,7.29-8.69,7.52-6.28,10.82-14.66,11.3-24.08.78-15.27,2.95-30.25,7.66-44.82,6.19-19.17,7.26-38.68,4.63-58.57-.81-6.12-2.16-12.66,5.11-16.77,2.32-1.31.55-4.27-.15-6.31-3.38-9.84-6.05-19.88-9.11-29.81-1.19-3.86-2.41-7.88.58-11.6,4.11-2.34,6.05,1.24,8.12,3.36,14.86,15.21,28.68,31.39,43.21,46.91,20.42,21.79,39.8,44.62,63.12,63.5,4.61,3.74,9.31,7.9,16.38,8.68.34.14-.12-1.65-.16-.63-.01.25-.27.27-.75.05-11.29-5.16-19.65-14.18-28.77-22.12-11.09-9.66-20.39-21.12-30.36-31.89-1.83-1.97-5.22-4.26-1.15-7.4Z" style="fill: #f8ce6d; stroke-width: 0px;"/>
  <path d="M918.31,94.92c-6.21,8.03-13.17,15.37-20.35,22.54-2.96,2.96-5.38,3.12-8.55.83-1.84-1.33-3.8-2.53-5.81-3.57-10.18-5.26-10.8-4.79-17.44,4.75-6.05,8.7-14.73,14.55-24.02,19.4-12.3,6.41-25.38,11.48-36,21.23.35.42.67,1.22,1.22,1.42,2.97,1.1,6.7,2.93,5.99,5.85-.85,3.53-5.24,2-8.08,1.95-19.31-.33-37.78-6.11-56.69-9.05-24.77-3.84-49.09-9.45-72.66-18.11-3.34-1.23-6.64-2.4-10.32-5.54,16.53-2.97,31.3,4.94,47.27,3.66-11.35-10.14-22.55-19.12-37.82-21.93-8.89-1.64-17.01-6.27-25.7-9.08-32.49-10.52-65.62-9.45-98.95-7.15-12.61.87-25.26.65-37.91,1.43-15.19.94-30.05,2.96-44.92,5.99-18.29,3.73-36.68,7.71-55.5,3.43-1.97-.45-3.99-.89-5.82-1.72-9.12-4.16-10.71-11.52-3.49-18.23,14.48-13.46,32.01-22.11,49.78-30.2,18.2-8.28,36.87-15.46,55.69-22.21,1.31-.47,2.43-1.51,5.16-3.26-26.97-2.59-51.08,6.02-76.81,7.95,3.57-5.97,9.19-6.64,13.86-8.36,32.89-12.11,66.68-20.09,101.85-21.45.25,0,.51,0,.76,0,4.89-.05,10.45-.1,13.13,4.26,2.68,4.36-3.76,6.31-4.93,10.16,2.43,1.47,4.97,2.47,7.75,2.3,17.76-1.05,35.4,1.52,53.14,1.7,26.81.27,53.51,2.95,80.37,3.2,39.42.37,75.6,14.39,111.28,29.69,10.15,4.35,20.1,11.55,31.28,10.42,11.85-1.2,22.5,1.47,33.37,4.54,7.28,2.06,14.4,4.71,21.59,7.08,3.09,1.01,4.68.54,2.92-3.07,6.05,1.49,10.22,6.11,15.34,9.16Z" style="fill: #fde49f; stroke-width: 0px;"/>
  <path d="M749.19,1106.35c-24.2,7.87-49.22,11.93-74.32,15.16-40.15,5.16-80.55,5.18-120.75,1.37-48.64-4.62-95.79-16.39-141.47-33.87-104.95-40.17-190.35-105.82-256.31-196.77-40.69-56.1-69.78-117.63-87.23-184.78-6-23.09-11.19-46.24-13.43-70-.82-2.69-1.19-5.35.4-8.14,5.01,1.15,4.86,5.52,5.57,8.98,7.15,35.13,16.08,69.77,27.98,103.61,13.26,37.72,28.91,74.3,51.69,107.44,7.06,10.27,14.52,20.22,23.61,28.82,1.76,1.66,3.13,4.05,6.57,4.14.63-4.35-1.62-7.79-3.35-11.26-12-24.1-26.09-47.06-38.75-70.82-23.77-44.6-40.5-91.19-46.69-141.63-3.97-32.37-5.47-64.75-4.38-97.24.65-19.29,4.17-38.35,8.64-57.15,3.23-13.59,6.41-27.18,9.33-40.84.48-2.23-.36-5.98,4.07-5.55,4.23,8.44.87,17.03.01,25.39-3.41,33.28-6.09,66.58-7.64,100.01-.9,19.48-1.75,38.9-1.33,58.41.78,36.62,9.89,71.06,24.86,104.33,12.2,27.11,27.17,52.71,41.21,78.81.48.63.9,1.3,1.3,1.98,1.42,3.03,2.95,6.01,5.09,8.64,14.85,24.66,28.24,50.1,40.29,76.24,2.11,4.58,3.92,9.31,5.08,14.24,1.46,5.25,2.68,10.62,6.78,14.66.46.53.86,1.1,1.24,1.69,8.52,13.67,21.31,23.06,33.27,33.27.6.38,1.17.81,1.71,1.26,10.95,9.98,22.67,18.94,35.41,26.52,3.41,1.89,6.64,4.08,9.81,6.35,2.51,2.31,5.63,3.41,8.79,4.47,21.37,12.22,41.68,26.25,63.91,36.94,56.7,27.27,115.76,46.36,178.79,52.14,25.81,2.37,51.67,3.86,77.49,2.46,26.81-1.46,53.64-3.7,79.98-9.63,4.13-.93,8.34-2.57,12.69-.78,3.5,3.1,7.81,2.88,12.05,3,5.73.16,11.51-.54,17.19.64,2.33.49,4.27,1.81,4.46,4.41.17,2.38-2.21,2.27-3.63,3.08Z" style="fill: #b2694f; stroke-width: 0px;"/>
  <path d="M157.9,827.67c-5.3-3.73-6.61-10.08-9.49-15.25-18-32.23-35.98-64.49-47.41-99.87-7.5-23.22-10.74-46.99-11.89-71.31-.69-14.63-.14-29.21.51-43.71,1.22-27.15,3.19-54.28,5.36-81.4,1.57-19.58,5.6-38.95,5.02-58.7-.05-.36-.11-.73-.17-1.09-.33-2.59-.12-5.2-.3-7.8.99-13.63,3.26-27.06,6.41-40.35,1.23-5.2,1.81-10.12-4.1-13.03-4.73-3.09-10.05-4.82-15.35-6.58-2.62-1.29-5.54-2.07-7.58-4.37-1.24-3.03-4.33-3.26-6.79-4.35-13.89-6.14-27.76-12.28-41.18-19.45-12.8-6.84-21.49-17.46-28.45-29.76-1.56-2.75-3.64-5.69-1.68-9.21.34.16.68.33,1.02.48,8.17,10.03,19.92,14.8,30.99,20.18,37.65,18.28,76.61,33.72,114,52.61,11.99,6.06,22.77,13.21,31.52,23.37,1.45,1.7,2.58,3.61,3.48,5.65,1.21,3.78,2.96,7.32,4.84,10.8,1.65,3.79,3.14,7.65,4.66,11.5,1.2,6.24,2.07,12.54,3.29,18.78.51,3.17.23,6.38.55,9.56.27,1.16.56,2.31.81,3.48.73,3.53.38,7.13.66,10.69.22,1.56.55,3.11.89,4.65.87,4.36.28,8.81.72,13.19.3,1.17.58,2.34.83,3.53.85,4.43.24,8.93.73,13.37.44,1.59.77,3.19,1.04,4.81-.18,9.98,1.92,19.81,2.15,29.76.23.8.37,1.61.46,2.43,1.1,9.71.2,19.56,2.21,29.2.01,2.8-.02,5.61.94,8.32.58,3.67,1.2,7.33,1.26,11.06-1.22,3.72-2.99,2.81-4.61.4-1.9-2.82-2.2-6.21-2.72-9.44-3.7-23.07-5.26-46.33-6.76-69.62-1.79-27.85-3.49-55.82-10.07-83.01-4.95-20.46-20.02-32.29-39.41-38.63-6.39-2.09-8.77-.08-10.08,6.56-3.57,18.07-1.2,35.58,6.79,51.94,8.28,16.94,10.49,34.27,6.75,52.54-5.03,24.63-8.75,49.47-12.41,74.33-1.86,12.66-6.52,24.5-11.33,36.26-7.43,18.17-13.19,36.76-14.16,56.54-1.55,22.41,5.77,42.88,13.76,63.23,9.19,23.39,21.27,45.4,32.34,67.89,1.48,3.01,4.27,5.97,1.96,9.83Z" style="fill: #b46d43; stroke-width: 0px;"/>
  <path d="M1025.08,935.99c-31.15,36.67-67.42,67.54-107.21,94.4-.8.54-1.83.73-2.75,1.08-13.6,2.98-27.15,5.99-41.06,7.48-14.08,1.51-27.75-.43-41.47-2.79-3.79-2.69-1.54-5.21.42-7.46,2.3-2.64,5.36-4.45,8.07-6.64,24.25-13.68,45.9-31.05,65.94-50.07,20.37-19.33,39.48-40.05,57.89-61.33,4.49-5.19,9.71-9.67,13.94-15.1,19.18-12.24,39.63-22.52,57.15-37.33,5.58-4.72,10.52-10.29,17.22-13.62,2.79-.74,5.54-.87,8.15.64,2.71,3.05.99,6.2.12,9.28-4.4,15.63-11.43,30.22-18.47,44.75-5.93,12.25-11.62,24.64-17.94,36.7Z" style="fill: #df884f; stroke-width: 0px;"/>
  <path d="M231.08,33.79c-2.31,5.09-.32,9.85,1.16,14.65,3.12,10.15,6.4,20.27,9.24,30.5.67,2.41,3.35,6.29-3.58,6.17-4.16-.07-3.35,6.37-2.88,9.33,3.91,24.49,1.4,48.14-6.49,71.63-3.76,11.19-4.7,23.18-5.14,35.09-.4,10.79-3.9,20.22-12.72,27.25-2.52,2.01-5.23,4.49-6.38,7.35-4.18,10.33-13.09,14.61-22.14,19.31-14.14,7.33-28.17,14.93-41.83,23.12-18.09,10.84-36.79,20.48-56.54,27.7-8.57,3.13-13.03,11.04-20.98,14.5-2.54,1.11-1.62,2.99.59,4.52,2.64,1.82,6.07,2.76,7.53,6.06-1.25,2.99-4.02,2.57-6.47,2.92-10.23,1.45-20.26.74-29.93-3.05-8.74-3.42-17.95-5.46-26.6-9.14-2.37-1.55-4.12-3.35-2.49-6.45,13.01-10,28.39-15.45,43.08-22.14,29.51-13.44,59.21-26.47,88.8-39.73,2.99-1.34,5.8-3.09,8.69-4.65,6.15-5.8,14.19-8.75,20.82-13.9,11.1-8.62,19.03-19.18,24.05-32.48,7.44-19.69,10.55-40.15,13.75-60.78,4.2-27.07,6.11-54.45,11.67-81.34,1.11-5.35,1.79-10.91,2.48-16.4.33-4.79,2.2-9,4.84-12.92,3.26-1.04,6.26-1.4,7.47,2.88Z" style="fill: #f6c32e; stroke-width: 0px;"/>
  <path d="M78.9,384.21c2.88,0,5.46.74,7.39,3.05,1.42,3.11-.02,5.97-.86,8.85-9.17,31.74-16.55,63.84-20.35,96.74-4.99,43.3-5.52,86.5,1.77,129.61,1.22,7.24,2.09,14.53,3.66,21-4.51-31.12-3.76-63.16-2.94-95.11.51-19.73,3.21-39.46,7.74-58.78,6.37-27.18,13.14-54.26,19.58-81.42,1.23-5.19,1.27-11.29,6.66-14.76,7.98,2.75,9.03,4.73,6.89,13.52-3.44,14.13-6.06,28.38-6.93,42.92-1.84,2.25.24,5.27-1.47,7.54,0,0-.05.08-.05.08-4.59,20.32-9.04,40.68-13.79,60.96-7.52,32.14-7.68,64.93-5.58,97.38,2.95,45.57,9.05,90.9,27.06,133.59,11.91,28.25,25.86,55.49,41.06,82.1,8.16,14.29,16.65,28.41,23.46,43.41,1.56,3.44,4.95,8.48,1.19,11.03-3.18,2.16-6.37-2.75-9.01-5.32-17.06-16.56-29.83-36.25-41.23-56.9-26-47.07-42.62-97.67-55.68-149.55-3.61-14.32-6.35-28.85-10.99-43.35-.26,2.23-.53,4.46-.79,6.68-2.54-9.05-2.56-18.39-3.35-27.66-2.76-32.54-2.82-65.06.46-97.56,1.88-4.03-.26-8.49,1.32-12.55.08-.9.15-1.79.23-2.69,1.79-2.97-.19-6.46,1.31-9.47,1.88-23.22,6.97-45.83,12.99-68.25,3.16-11.76,6.82-23.38,10.26-35.07Z" style="fill: #b77f66; stroke-width: 0px;"/>
  <path d="M974.75,83.99c5.5-18.21,11.01-36.41,16.51-54.61,7.36,3.53,7.83,11.15,8.97,17.45,5.29,29.06,8.98,58.37,12.74,87.67,2.03,15.76,4.89,31.42,7.77,47.06,1.27,6.88,7.62,10.66,11.79,15.56,13.29,15.62,25.9,31.67,36.85,49.02,1.42,2.25,3.72,3.14,6.04,4.31,41.22,20.75,84.63,36.71,125.85,57.43,6.01,3.02,12.48,5.77,15.42,12.65-1.39,1.51-3.04,2.57-5.1,2.92-18.02,4.72-33.35-2.51-48-11.45-15.91-9.7-33.05-16.7-50-24.15-17.67-7.76-35.05-16.09-51.72-25.83-9.24-5.4-19.05-9.57-28.86-13.73-7.5-3.18-13.51-7.92-17.45-15.17-1.7-3.13-3.8-6.03-6.6-8.3-8.43-6.84-12.44-16.04-13.16-26.52-1.14-16.59-4.94-32.59-9.53-48.45-4.19-14.49-6.55-29.11-4.65-44.26.6-4.76-.35-9.69.25-14.45.75-5.95-2.06-7.46-7.13-7.13Z" style="fill: #fae0ba; stroke-width: 0px;"/>
  <path d="M1137.54,384.18c11.84,33.42,18.94,68.01,24.16,102.95,2.15,14.41,3.22,29.04,3.74,43.71.49,13.64,1.47,27.28,1.11,40.93-.91,34.57-4.17,68.91-11.05,102.86-8.72,43-22.01,84.57-40.32,124.38-14.38,31.27-31.58,61.08-51.38,89.3-.54.77-1.55,1.21-2.34,1.8-2.85-4.02-.11-7.39,1.63-10.54,12.04-21.8,23.86-43.83,31.21-67.64,16.91-54.76,38.67-108.12,48.02-165.1,4.41-26.86,7.18-53.95,6.7-81.04-1.06-59.21-10.8-117.14-30.08-173.3,3.01-5.77,11-9.34,18.61-8.31Z" style="fill: #f8ddc3; stroke-width: 0px;"/>
  <path d="M1119.42,391.82c6.81,8.08,7.63,18.5,10.34,28.02,8.7,30.61,14.35,61.89,18.42,93.43,1.1,8.5,1.77,17.14,1.55,25.69-.21,8.43,1.71,16.61,1.68,24.96-.24,63.34-12.35,124.47-33.98,183.86-9.7,26.63-15.96,54.41-26.93,80.63-7.54,18.04-16.46,35.37-25.85,52.49-1.57,2.86-3.44,5.7-3.2,9.22-5.47,6.72-8.99,14.85-15.26,20.98-2.8-5.54.71-9.78,3.24-13.94,12.16-19.95,22.64-40.71,31.23-62.46,8.33-21.07,13.56-42.97,18.27-65.03,1.22-5.7,2.52-11.38,5.23-16.61,13.12-34.13,23.53-68.99,29.89-105.06,5.62-31.86,7.45-63.99,5.84-96.17-1.26-25.28-4.03-50.55-11.71-74.93-.92-2.91-1.86-5.8-3.08-8.59-2.72-6.2-3.34-6.27-7.89-1.13-6.3,7.12-12.07,7.14-18.45.06-1.02-1.13-1.95-2.34-2.81-3.59-10.61-15.32-17.7-32.4-24.71-49.52.03-2.91,2.12-4.21,4.27-5.47,8.73-4.2,18.19-7.01,25.87-13.29,5.9-1.73,11.4-5.54,18.03-3.54Z" style="fill: #fcd998; stroke-width: 0px;"/>
  <path d="M5.43,315.24c.04,2.32.98,4.08,3.18,5.05,3.31,3.75,7.84,5.59,12.25,7.45,33.18,14.02,66.32,28.15,99.28,42.67,17.38,7.66,34.65,15.67,49.71,27.71,16.57,13.24,26.85,30,31.05,50.79,4.99,24.65,6.74,49.76,10.86,74.52,2.33,14.04,3.58,28.16,3.09,42.42-.28,8.03,2.08,15.5,5.41,22.7.61,4.7-2.35,8.72-2.66,14.13,3.69-1.14,5.77-4.08,8.62-5.71,17.94-12.71,32.45-29.03,47.44-44.84,22.5-23.74,45.56-46.93,69.41-69.32,18.41-17.29,40.95-20.79,64.54-17.69,42.47,5.58,84.42,14.26,126.12,24.09,10.34,2.44,20.84,4.17,31.49,4.74,2.22.06,4.32.94,6.55.95,1.49-.03,3-.14,4.28.86,2.55,2.59,3.1,6.14,4.46,9.31,1.44,4.08,3.97,7.67,5.19,11.82,2,6.81.22,10.9-6.41,13.1-5.37,1.78-10.6,5.37-16.75,2.8q.26-3.21,7.36-6.13c1.63-.67,3.39-1.05,4.9-2.03.53-.47,1.04-.93,1.51-1.45-1.7-13.1-6.39-18.01-18.57-19.91-29.28-4.58-58.32-10.39-87.22-16.95-26.05-5.25-51.93-11.59-78.74-11.65-14.34-.03-26.06,5.27-37.12,14.73-20.55,17.57-33.73,40.29-47.53,62.75-5.44,8.86-10.83,17.73-17.48,25.8-9.9,12.01-22.25,18.97-37.95,19.43-3.28.1-5.8,1.56-8.26,3.41-5.48,4.1-10.85,8.42-16.89,11.67-10.21,5.5-17.13,1.9-18.97-9.51-2.33-14.42-4.84-28.82-5.48-43.45v.02c-1.15-10.66-1.78-21.38-3.02-32.03-.45-1.04-.91-2.08-1.36-3.13.81-5.06,1.38-10.11-.32-15.11-.38-.58-.76-1.15-1.14-1.73.65-5.03,1.37-10.06-.38-15.03-1.2-.8-1.28-2-1.14-3.27.72-4.02,1.32-8.03-.38-11.98l-1.18-1.66c.81-3.54,1.19-7.08-.19-10.58-1.98-6.42-3.12-12.98-3.09-19.72-4.3-14.1-8.78-28.09-21.15-37.68-1.59-1.24-2.91-2.83-4.89-3.54-3.35-1.96-6.79-3.79-9.86-6.21-2.34-3.06-5.87-4.32-9.13-6-.6-.3-1.16-.65-1.71-1.03-2.58-2.2-5.6-3.29-8.97-3.52-3.49-.75-6.57-2.34-9.3-4.62-3.75-3.05-7.92-5.2-12.75-5.91-1.39-.28-2.66-.8-3.76-1.69-2.57-2.31-5.68-3.59-8.92-4.61-.66-.21-1.29-.49-1.92-.79-3.77-1.9-7.47-3.94-11.5-5.22-.62-.2-1.22-.46-1.81-.75-1.91-1.06-3.94-1.85-6.04-2.48-.59-.19-1.16-.44-1.72-.71-1.64-.88-3.35-1.64-5.06-2.41-.6-.26-1.17-.56-1.74-.86-1.76-.97-3.66-1.54-5.56-2.15-.66-.21-1.28-.48-1.9-.78-3.04-1.57-6.08-3.15-9.57-3.49-1.36-.25-2.61-.76-3.68-1.65-1.68-1.58-3.73-2.48-5.9-3.16-.61-.22-1.18-.51-1.74-.83-1.84-1.35-3.96-1.92-6.19-2.16-2.42-.31-4.38-1.55-6.21-3.05-1.98-1.9-4.43-2.79-7.05-3.32-7.39-4.03-15.31-7.29-20.57-14.36-.17-.28-.34-.57-.5-.86-.06-3.26,2.35-4.68,4.63-6.19Z" style="fill: #ef9828; stroke-width: 0px;"/>
  <path d="M831.49,1034.93c9.69.93,19.37,2.46,29.08,2.64,13.27.24,26.29-2.51,39.34-4.79,4.97-.87,9.88-4.23,15.21-1.3-47.62,33.3-100.16,56.05-155.63,72.49-3.37,1-6.86,1.59-10.3,2.37,4.05-3.59,2.67-5.63-2.03-5.83-7.07-.29-14.17-.11-21.25-.08-3.42.01-6.82.1-7.26-4.57,1.49-3.94,5.32-4.37,8.56-5.56,17.65-6.49,34.83-13.84,49.91-25.4,4.46-3.42,8.42-7.27,12.11-11.48,11.82-6.36,24.3-11.4,35.92-18.18,1.9-1.11,4.15-2.2,6.36-.32Z" style="fill: #c87054; stroke-width: 0px;"/>
  <path d="M1105.75,754.44c-5.04,11.1-6.35,23.17-9.06,34.87-7.46,32.21-19.56,62.53-35.43,91.51-5.4,9.86-13.45,18.51-15.07,30.28-6.75,8.54-13.07,17.45-21.11,24.9,1.24-6.49,3.73-12.5,6.67-18.38,10.7-21.42,21.72-42.71,28.48-65.83.56-1.92.93-3.89,1.39-5.84-.32-1.57.07-3.04.74-4.42,13.93-28.9,21.01-60.25,32.32-90.09,9.07-23.93,18.25-47.82,24.72-72.64,1.47-5.64,2.3-11.44,4.18-16.96.56-1.65.89-4.37,3.99-3.03,2.3,3.53,1.32,7.3.78,11.03-3.73,25.86-11.98,50.52-19.86,75.28-.99,3.09-1.91,6.2-2.74,9.34Z" style="fill: #f3b36b; stroke-width: 0px;"/>
  <path d="M1212.42,321.82c1.43-.44,2.86-.87,4.29-1.3.77,2.63.36,5.06-1.3,7.26-3.77,6.84-10.39,10.51-16.81,13.87-31.49,16.51-64.17,30.45-96.97,44.11-18,6.98-35.44,15.09-50.96,26.73-9.12,6.84-13.17,17.13-17.29,27.28-.86,1.13-1.67,2.79-3.29,2.26-2.56-.84-2.22-3.35-2.45-5.44.04-1.94.45-3.78,1.48-5.45,1.96-2.55,2.79-5.55,3.36-8.64.15-.69.37-1.35.63-2.01,2.5-5.05,6.25-9.33,8.73-14.39,6.57-8.87,15.24-15.14,24.95-20.12,3.88-1.22,7.51-2.93,10.62-5.61,1.86-1.43,3.87-2.59,6.11-3.33,2.18-.5,4.33-1.09,6.17-2.46.57-.35,1.16-.63,1.78-.88,4.23-1.34,8.06-3.55,11.99-5.52.64-.34,1.3-.61,1.98-.87,22.75-10.06,45.68-19.67,68.22-30.16,12.93-5.05,25.11-12.01,38.74-15.29Z" style="fill: #f0a92a; stroke-width: 0px;"/>
  <path d="M1101.21,384.37c31.22-14.16,63.03-27.01,93.54-42.73,7.43-3.83,14.01-8.88,20.65-13.86-6.41,15.95-17.95,27.18-33.01,34.77-11.69,5.89-23.78,11-35.65,16.56-3.17,1.49-6.15,3.37-9.22,5.07-6.25,2.06-12.68,3.68-18.13,7.64-6.05,1.55-12.09,3.09-18.14,4.64-3.98,1.24-7.19,0-8.33-3.91-1.07-3.67,2.29-5.09,4.9-6.54,1.08-.6,2.28-1,3.36-1.64Z" style="fill: #dfc3b9; stroke-width: 0px;"/>
  <path d="M231.08,33.79c-2.11-1.94-4.65-2.8-7.48-2.88,4.77-3.58,9.41-2.65,13.68.75,19.32,15.35,34.75,34.57,51.61,52.36,3.47,3.66,6.49,7.75,10.7,10.66-1.67,2.68.34,4.1,1.9,5.77,18.93,20.33,37.17,41.38,61.43,56.18-3.46,3.65-6.55,1.71-9.19,0-7.63-4.96-15.12-10.09-21.75-16.47-28.7-27.63-54.69-57.81-81.88-86.87-6.22-6.65-11.88-13.78-19.04-19.5Z" style="fill: #fce49e; stroke-width: 0px;"/>
  <path d="M218.76,43.83c.26,12.72-3.54,24.91-4.95,37.43-2.37,21.02-5.55,41.94-8.65,62.87-3.18,21.43-5.54,43.11-13.97,63.35-8.61,20.68-24.98,33.13-45.19,41.23,13.38-21.94,29.75-41.6,46.59-60.89,2.78-3.18,4.57-6.34,5.36-10.53,6.34-33.88,9.44-68.22,14.87-102.23,1.67-10.46,2.21-21.16,5.96-31.24Z" style="fill: #dba355; stroke-width: 0px;"/>
  <path d="M54.11,499.68c-.21,4.21,1.59,8.63-1.32,12.55.1-4.22-.59-8.52,1.32-12.55Z" style="fill: #c09178; stroke-width: 0px;"/>
  <path d="M55.64,487.53c-.12,3.2,1.34,6.62-1.31,9.47.04-3.21-.55-6.51,1.31-9.47Z" style="fill: #c09178; stroke-width: 0px;"/>
  <path d="M1212.42,321.82c-12.44,6.22-25.15,11.81-38.18,16.68-23.64,9.51-46.88,19.93-70.04,30.53h0c-4.72,1.7-9.08,4.18-13.68,6.14h0c-1.81,1.47-4.11,1.91-6.15,2.9-2,1.07-4,2.15-5.99,3.22-3.47,2.18-7.38,3.57-10.78,5.89-9.15,5.4-17.86,11.33-24.45,19.87-.85.55-1.52.39-2.03-.49-1.14-1.85.99-5.17-2.04-5.91-2.66-.65-5.12,1.14-6.42,3.32-5,8.34-12.01,15.03-17.96,22.57-5.67,7.2-5.32,16.58-5.33,24.93-.04,23.07-5.8,45.27-8.78,67.87-1.43,10.83.53,21.24,1.38,31.8.45,5.58.96,11.14.54,16.71-.53,7.13-2.6,8.42-9.92,6.74-2.85-1.72-3.59-4.74-4.64-7.56-9.59-25.8-17.62-52.09-24.07-78.85-.63-2.62-1.91-5.34.08-7.97-3.05-15.03-5.82-30.13-9.26-45.07-2.06-8.94-2.28-17.55,1.84-25.8,2.22-4.46,1.27-8.96,1.28-13.41.03-8.43,2.1-15.49,10.53-19.15,3-1.3,3.98-3.44,5.15-6.6,2.54-6.88,9.49-9.61,15.93-11.33,12.87-3.43,22.66-29.6,13.71-39.3-3.75-4.05-8.87-6.98-12.09-11.35-10.1-13.72-21.07-27.11-33.31-38.43-13.15-12.17-11.89-28.18-17.33-42.23-3.01-7.76,1.11-16.89,2.54-25.25,6.86-39.89,18.57-78.54,31.14-116.93.16-.48.45-.91.68-1.36,9.05-4.81,8.97-4.81,9.08,5.95.16,16.31-2.38,32.72,1.55,48.91,3.04,12.51,7.55,24.65,9.55,37.41,1.44,9.19,2.72,18.41,4.01,27.63,1.14,8.19,5.12,14.57,11.75,19.49,1.76,1.3,3.39,3.22,4.25,5.21,4.99,11.47,14.88,16.81,25.72,20.95,14.28,5.45,26.89,14.12,40.52,20.76,18.2,8.87,36.66,17.22,55.22,25.32,9.79,4.27,19.64,8.6,28.18,14.83,8.68,6.33,19.06,7.91,28.36,12.38,5.96,2.86,12.85-1.94,19.47-1.01Z" style="fill: #f8cd93; stroke-width: 0px;"/>
  <path d="M963.96,480.2c7.26,29.18,15.36,58.11,26.03,86.26.87,2.3.9,5.04,3.11,6.74,3.91,6.03,7.83,12.06,6.29,19.83-10.98-.82-19.4-6.8-26.95-14.01-22.78-21.74-43.74-45.26-65.61-67.88-12.34-12.76-25.49-24.79-39.28-35.93-9.96-8.05-22.38-10.13-35.28-9.09-53.33,4.32-104.88,18.86-157.48,27.37-6.51,1.05-13.14.46-19.61,2.36-4.82,1.42-4.92-2.27-3.97-5.52,1.8-6.13,5.07-11.6,8.23-17.12,20.55-35.91,42.21-71.2,61.12-108.03,8.28-16.13,14.88-32.86,14.5-51.51-.04-2.02.17-4.09,1.91-5.57,3.07,7.31,1.97,14.93.76,22.25-1.38,8.36-2.31,16.86-4.59,25.28,6.61-9.67,16.16-17.35,17.9-29.83,7.53,2.72,9.32,8.85,10.12,15.15,1.71,13.6,10.45,23.55,18.01,33.77,3.41,4.61,10.54,6.43,15.9,9.65,4.43,2.66,6.14,5.99,2.13,10.49-3.78,4.24-1.24,6.43,2.88,5.94,10.05-1.2,19.09,3.69,29.06,4.01,6.34.2,12.98,4.63,20.23,3.79,2.25-.26,4.53-.4,6.72-.91,5.39-1.25,10.5-2.27,16.32-.97,5.19,1.16,11.09,1.45,16.32-1.56,5-2.88,9.43.54,13.75,2,12.21,4.13,25.47,7.12,33.28,18.64,7.53,11.09,13.85,22.94,19.19,35.31,2.78,6.44,4.33,13.51,9.02,19.06Z" style="fill: #fab56a; stroke-width: 0px;"/>
  <path d="M575.35,495.55c-1.06.44-2.13.88-3.19,1.32-10.15-20.73-21.46-40.83-33.11-60.75-12.43-21.24-24.7-42.56-36.47-64.17-5.97-10.95-10.79-22.39-14.53-34.28-.85-2.7-1.38-5.41-.73-8.24.94-2.95.94-6.01.79-9.03-.58-11.72,2.7-22.55,7.8-32.86,12.6-25.47,26.82-49.63,47.14-70.2,11.29-11.43,19-26.04,22.64-42.34,1.22-5.44,1.06-12.34,8.25-14.72-1.67,8.59-.64,16.67,3.68,24.45,2.75,4.95-.78,9.15-2.84,13.34-5.36,10.92-5.4,10.9,6.76,10.93,1,0,2.01.01,3.01.02,1.96,2.76.53,5.14-.82,7.53-3.85,2.47-7.9.25-11.84.3-4.99.06-8.54,1.62-11.6,5.71-12.47,16.68-22.35,34.99-33.25,52.64-4.78,7.74-10.43,14.99-14.11,23.4-1.5,3.43-3.54,6.69-3.49,11.68,7.17-5.12,11.38-12.04,16.58-17.92,11.13-12.58,22.83-24.38,37.78-32.52,5.21-2.84,9.17-7.07,12.23-12.19,1.02-1.7,1.31-4.84,4.73-3.42,2.76,2.79,2.62,6.48,3.02,9.97.81,7.16,3.77,12.75,9.94,17.08,10.03,7.04,16.19,17.48,21.45,28.18,7.37,15.01,14.3,30.28,19.85,46.09,12.43,35.4,8.72,69.27-10.1,101.6-2.93,5.04-5.07,10.56-8.8,15.1-2.33,2.83-4.21,6.59-8.92,5.94-2.44-3.1-1.85-6.79-1.74-10.26.79-24.95-4.23-48.93-11.77-72.52-1.32-4.13-3.16-8.04-5.32-11.78-5.62-9.72-13.89-9.89-20.11-.36-4.76,7.3-7.38,15.59-10.07,23.78-2.13,6.5-3.59,13.27-5.8,19.7-4.78,13.92-.2,25.87,6.03,37.81,6.1,11.68,12.05,23.43,17.19,35.57.6,1.41.96,2.89.5,4.45-.24.32-.49.64-.73.96Z" style="fill: #fec550; stroke-width: 0px;"/>
  <path d="M583.03,216.61c.5-2.53,1.01-5.05,1.51-7.58,7.95.13,15.32-2.63,22.75-4.83,8.58-2.55,17.01-3.95,25.95-1.72,3.43.86,7.48,1.76,10.8-1.14,2.4-.46,3.24,1.51,4.49,2.85.93,1.21,1.73,2.51,2.37,3.89,2.92,6.33,1.88,8.71-4.91,8.77-9.61.09-15.79,4.26-19.19,13.12-1.18,3.08-3.37,5.64-5.35,8.27-7.47,9.93-7.92,20.57-2.74,31.5,3.81,8.05,9.23,15.08,15.2,21.68,10.35,11.45,20.81,22.8,31,34.39,2.66,3.03,5.22,6.21,6.89,9.97,11.38,31.21,6.56,61.27-6.56,90.69-3.91,8.78-7.97,17.5-11.75,26.33-6.44,11.78-15.32,21.95-22.07,33.57-5.24,9.02-9.22,18.55-13.21,28.11-2.71,6.5-3.25,13.15-1.75,20.07,1.42,6.53-.22,12.04-6.22,15.75-17.25,6.75-34.95,6.63-52.79,3.25-5.56-1.05-11-3.09-12.05-9.73-.69-4.34,4.52-9.26,11.44-11.5,1.21-.39,2.44-.6,3.72-.54.43.05.87.1,1.3.15,7.17.86,13.41-2.51,19.68-4.92,5.02-1.93,3.26-6.72,2-10.55-1.33-4.06-4.46-7.4-4.94-11.84.9-.91,1.96-.96,3.1-.59,2.37,1.32,3.07,3.94,4.58,5.94,3.88,5.13,5.8,4.98,8.15-.93,4.13-10.39,6.43-21.32,9.23-32.11.81-3.13.99-6.58,3.79-8.89,10.96-8.04,14.72-20.87,21.06-31.94,9.16-15.99,11.49-34.01,11.98-51.77.4-14.5-3.17-29.13-8.96-42.66-7.15-16.71-13.25-33.91-22.81-49.54-5.06-8.26-10.55-15.98-18.97-21.21-6.33-3.93-7.39-10.65-8.05-17.18-.34-3.3-1.02-6.45-1.69-9.65-1.86-1.76-2.14-4.11-1.59-6.3,1.77-7.02,1.07-14.57,4.64-21.18Z" style="fill: #f1af57; stroke-width: 0px;"/>
  <path d="M610.55,548.83c4.6-4.87,5.21-10.17,3.42-16.71-2.25-8.2,1.4-15.84,4.3-23.46,7.83-20.61,21.14-37.89,33.32-55.87,6.95-10.32,14.73-20.04,22.1-30.05,9.69-13.17,17.17-27,15.65-44.12-.2-2.24-.07-4.6,1.5-6.53,4.33-.04,3.51,3.45,3.73,5.86.4,4.45.04,8.95.22,15.31,9.9-18.84,21.03-34.85,28.68-52.86,7.96-18.76,6.75-37-1.64-55.21-13.2-28.66-30.86-54.74-46.99-81.71-9.76-16.32-19.98-32.38-28.54-49.39-.76-1.51-1.34-3.28-3.72-4.33,1.39,8.4,6.17,15.08,8.67,22.58,3.81,11.43,4.25,22.31-4.21,32.08-1-1.03-2.01-2.05-3.01-3.08-2.36-8.07-7.52-14.78-10.78-22.47-6-14.15-.91-26.68,3.93-39.42.79-2.08,2.81-3.57,5.47-3.42,2.31.13,3.47,1.37,4.37,3.49,9.86,23.14,25.02,43.25,37.33,64.99,15.67,27.68,34.39,53.67,46.27,83.43,2.6,6.52,4.24,13.44,6.31,20.17,2.15,28.68-10.99,52.67-24.17,76.36-17.72,31.85-36.39,63.18-54.5,94.82-2.69,4.7-5.67,9.46-5.99,15.07,14.24-2.81,28.48-3.47,42.43-6.38,29.87-6.22,59.86-11.88,89.79-17.76,17.09-3.36,34.41-5.69,51.73-6.39,14.34-.58,27.88,3.63,38.5,14.67,11.38,11.82,24.53,21.75,35.77,33.82,19.31,20.75,39.64,40.55,58.95,61.29,8.39,9.01,18.94,13.99,29.39,19.51,4.4,2.2,3.14,8.38,7.84,10.98,3.56-5.8,2.51-12.72,4.97-18.62.96-2.2.59-5.17,4.8-6.65,2.84,14.56-1.84,27.7-5.7,40.92-.47.74-1.15,1.13-2.03,1.18-16.76-14.24-32.76-29.19-47.95-45.24-26.46-27.96-52.15-56.75-81.24-82.16-19.22-16.79-41.33-20.52-65.94-16.87-42.92,6.37-85.07,16.71-127.81,23.93-9.25,1.56-18.46,3.38-27.93,2.97-2.54-.11-5.48.4-7.41-1.19-6.55-5.42-8.32-1.04-10.13,4.35-1.38,4.11-3.93,7.67-6.36,11.23-2.68,3.92-2.43,7.05,2.14,9.23,6.78,2.21,13.4,2.38,19.75-1.4,7.87-2.57,15.72-5.19,24.2-3.57,1.95,4.17-1.71,5.12-4.01,6.61-3.19,2.06-6.71,3.63-9.49,6.28-5.6,5.35-4.98,9.7,2.09,12.74,9.67,4.15,20.07,5.27,30.39,6.53,4.78.59,9.55,1.29,14.31,2,1.7.26,5.5.26,2.67,4.04-8.32,3.24-16.57.09-24.74-.64-16.88-1.51-33.64-4.17-50.14-8.15-7.69-1.86-15.45-2.57-23.35-1.73-2.48.27-5.06.91-7.23-1.06Z" style="fill: #f3942b; stroke-width: 0px;"/>
  <path d="M218.84,589.94c-5.81-10-6.44-20.93-6.12-32.14.59-20.29-4.17-40.04-6.67-60.01-2.19-17.45-4.12-34.93-8.04-52.17-5.6-24.67-20.62-41.81-41.54-54.39-28.73-17.28-60.23-28.7-90.81-42.04-16.68-7.27-33.43-14.39-50.11-21.68-3.21-1.4-6.67-2.86-6.95-7.22,9.52,3.07,19.11,5.92,28.53,9.26,11.18,3.97,22.43,3.26,33.78,1.41,18.58,7.96,37.16,15.9,55.73,23.88,12.57,5.4,23.8,13.27,35.8,19.72,7.36,3.96,14.99,7.06,22.88,9.8,7.64,2.65,16.28,4.34,17.33,15.32.39,4.04,5.09,6.15,8.95,7.53,10.44,3.72,14.29,11.17,13.38,21.86-1.15,13.61,2.48,25.91,10.37,37.13,5.22,7.44,5.47,16.2,4.74,24.86-.55,6.5-1.95,12.92-2.56,19.42-.32,3.33-2.52,7.36,2.93,9.43,2.12.81.54,3.53.18,5.49-3.83,20.75-13.28,39.72-18.8,59.93-1.77,1.03.93,4.99-3.01,4.6Z" style="fill: #f6a637; stroke-width: 0px;"/>
  <path d="M566.25,495.5c-11.86,1.13-23.01-2.77-34.29-5.19-37.42-8.02-74.95-15.5-112.67-21.87-19.17-3.24-38.73-4.32-57.36,4.03-8.9,3.99-16.34,10.14-23.16,16.8-19.96,19.48-39.97,38.96-59.08,59.25-10.41,11.06-21.06,21.88-31.6,32.8-6.52,6.76-13.8,12.58-21.6,17.77-2.31-4.21,1.23-6.66,3.18-9.19,9.21-11.96,18.81-23.61,28.84-34.91,11.31-13.36,24.3-25.08,36.66-37.4,11.28-11.25,21.52-23.68,34.37-33.22,29.47-21.89,62.05-28.77,98.06-20.28,19.07,4.5,38.43,7.88,57.94,10.16,2.26,1.71,5.27-.37,7.51,1.47l.08.05c4.49,1.21,9.15,1.68,13.61,2.98,11.4,4.63,23.23,7.84,35.16,10.71,4.38,1.93,9.25-.55,13.62,1.48,3.1-.04,6.27-.45,8.99,1.61,1.53.42,2.45,1.21,1.72,2.95Z" style="fill: #f6a637; stroke-width: 0px;"/>
  <path d="M573.93,160.28c-3.54,3.28-4.91,7.8-5.78,12.15-4.38,21.93-16.8,38.87-31.48,55.11-21.06,23.29-36.72,50.05-45.76,80.39-1.56,5.25-.51,10.59-.83,15.87-.12,1.99.37,4.12-1.53,5.62-.31-.33-.62-.66-.94-.99-2.38-8.87-.6-17.92-1.16-26.86.88-11.1,4.28-21.25,11.38-30,6.07-6.89,8.98-15.64,13.69-23.35,20.31-33.29,40.21-66.83,60.47-100.15,1.5-2.46,2.58-7.68,6.32-6.12,3.88,1.62.43,5.82.24,8.89-.24,3.78-2.85,6.41-4.61,9.45Z" style="fill: #fbb72d; stroke-width: 0px;"/>
  <path d="M497.83,271.56c-3.75,9.38-9,18.27-9.34,28.76-1.13,9.69-1.22,19.38.07,29.07,0,0,0,.03,0,.03,1.75,15.2,8.62,28.61,15.8,41.62,20.52,37.17,41.73,73.96,62.52,110.98,2.57,4.57,5.12,9.34,5.29,14.86-2.21.56-4.09-.27-5.9-1.38-.57-.98-1.15-1.96-1.72-2.95-2.27-13.46-11.38-23.56-17.63-34.99-17.45-31.93-37.28-62.56-53.72-95.05-6.61-13.06-12.68-26.95-13.23-41.66-.65-17.51,5.95-33.62,14.85-48.62.59-1,1.64-2.12,3.02-.67Z" style="fill: #fbd9ba; stroke-width: 0px;"/>
  <path d="M258.5,554.98c-4.88,8.82-12.72,15.34-18.35,23.58-4.63,6.79-10.64,12.66-13.67,20.52-3.56,2.1-6.14,5.78-10.89,6.84-1.01-5.96,2.43-10.73,3.24-15.98,1-1.53,2.01-3.06,3.01-4.6,3.06,6.75,6.41,1.36,8.55-.36,6.84-5.52,12.18-12.54,17.47-19.53,3.04-4.01,6.35-7.72,10.63-10.47Z" style="fill: #ee9347; stroke-width: 0px;"/>
  <path d="M506.76,478.74c-4.77.08-9.39-.56-13.62-2.99,4.83-.35,9.41.46,13.62,2.99Z" style="fill: #ee9347; stroke-width: 0px;"/>
  <path d="M555.54,490.94c-4.52-.71-9.35,1.44-13.62-1.48,4.54.54,9.37-1.61,13.62,1.48Z" style="fill: #ee9347; stroke-width: 0px;"/>
  <path d="M493.06,475.71c-2.52-.41-5.38.92-7.51-1.47,2.55.25,5.43-1.15,7.51,1.47Z" style="fill: #ee9347; stroke-width: 0px;"/>
  <path d="M790.25,1054.79c-13.82,16.61-32.69,25.35-52.04,33.31-6.49,2.67-13.05,5.19-19.57,7.77-22.42,4.88-45.06,8.67-67.9,10.33-25.95,1.88-51.93,2.75-78.06.74-22.41-1.72-44.65-3.85-66.77-7.83-30.97-5.58-60.77-14.91-90.19-25.88-39.62-14.77-75.95-35.7-111.54-58.13-2.27-1.96-5.27-2.72-7.61-4.56-3.36-1.57-6.49-3.48-9.15-6.1-12.72-8.43-24.78-17.74-36.56-27.42h0c-12.39-10.97-25.52-21.21-35.04-35.05h0c-3.6-4.55-5.25-10.07-7.61-15.23-12.12-30.96-28.17-59.94-44.87-88.59-.49-.83-.58-1.9-.86-2.85-1.84-2.35-2.6-5.34-4.57-7.62,0,0,0,0,0,0-5.01-12.98-12.15-24.92-18.21-37.39-13.87-28.53-27.79-57.12-31.93-89.13-.58-4.48-.11-9.09-.13-13.65,3.48-.04,3.18,2.85,3.41,4.86,2.41,21.45,11.66,40.44,21.78,58.94,13.53,24.73,26.17,49.9,38.9,75.03,13.31,26.29,28.04,51.8,44.49,76.25,8.49,12.62,19.36,22.84,33.89,28.4,12.64,4.84,22.73,13.61,32.29,22.49,33.31,30.94,69.46,57.82,109.78,78.8,46.99,24.45,96.32,41.62,149.5,46.65,24.81,2.35,49.65,3.82,74.45,2.5,48.45-2.58,96.59-7.83,142.91-23.69,7.59-1.32,15.2-2.49,22.76-3.97,2.89-.57,5.9-1.43,8.47,1.02Z" style="fill: #b95942; stroke-width: 0px;"/>
  <path d="M215.81,941.96c11.68,11.68,23.36,23.36,35.04,35.04-13.67-9.69-26.96-19.76-35.04-35.04Z" style="fill: #b46d43; stroke-width: 0px;"/>
  <path d="M250.86,977.01c10.96,6.2,20.12,14.87,30.33,22.12,2.17,1.54,5.16,2.39,6.23,5.31-9.49-3.35-16.58-10.38-24.37-16.24-4.36-3.28-9.49-5.99-12.19-11.18Z" style="fill: #b46d43; stroke-width: 0px;"/>
  <path d="M208.19,926.73c3.55,4.57,6.05,9.66,7.61,15.22-5.83-3.43-6.64-9.37-7.61-15.22Z" style="fill: #b46d43; stroke-width: 0px;"/>
  <path d="M157.9,827.67c3.07,1.61,4.05,4.47,4.57,7.62-3.06-1.62-4.03-4.48-4.57-7.62Z" style="fill: #b46d43; stroke-width: 0px;"/>
  <path d="M296.57,1010.53c3.14.52,6,1.49,7.61,4.56-3.13-.53-6-1.5-7.61-4.56Z" style="fill: #b46d43; stroke-width: 0px;"/>
  <path d="M758.23,1059.34c-15.61,6.63-32.05,10.42-48.6,13.53-15.09,2.83-30.42,4.32-45.54,7.02-7.77,1.38-15.57.92-23.37,1.89-22.65,2.81-45.57,2.78-68.32,1.68-36.6-1.77-72.82-6.75-107.83-18.27-15.37-5.06-30.43-10.91-45.21-17.58-26.38-11.91-51.59-25.91-75.68-41.85-16.86-11.16-32.25-24.29-47.6-37.47-16.59-14.24-31.9-30.03-53.14-38.34-12.32-4.82-21.34-15.25-28.68-26.32-25.27-38.1-45.84-78.8-66.14-119.67-9.91-19.95-21.82-38.88-30.48-59.5-4.45-10.59-7.46-21.44-8.49-32.86-.14-1.54-.11-3.06-1.53-4.08.71-21.84,7.35-42.23,15.93-61.97,7.35-16.93,10.8-34.72,12.82-52.77,2.2-19.58,6.86-38.69,9.89-58.11,2.34-14.98,1.26-29.31-5.6-42.86-9.48-18.72-12.26-38.28-8.65-58.89.92-5.24,2.95-8.14,8.99-7.41,8.1.98,15.46,4.25,21.5,9,13.79,10.84,24.06,23.92,26,42.68,2.84,27.33,6.26,54.56,7.8,82.06,1.24,22.07,2.8,44.28,7.3,66.07.35,1.7.57,3.42,2.04,4.59.09.07.53-.1.59-.24.19-.46.28-.96.41-1.45,3.43-.44,2.7,3.2,4.38,4.47,6.89,5.5,10.64,13.45,15.77,20.31,2.38,3.18,3.67,6.52.35,10.28-12.92,14.63-15.23,31.46-7.34,48.79,10.51,23.09,22.49,45.53,35.55,67.28,8.75,14.57,17.09,29.39,26.27,43.73,12.99,20.3,25.99,40.52,41.12,59.37,12.71,15.84,26.27,30.88,39.8,45.98,17.48,19.5,38.82,34.19,60.52,48.33,41.35,26.96,85.13,49.33,130.68,68.37,27.7,11.58,56.82,16.85,86.2,21.34,29.34,4.48,58.77,7.93,88.44,9.51,8.09.43,16.15,1.53,24.28,1.43,2.01-.02,4.1.14,5.54,1.94Z" style="fill: #b85c29; stroke-width: 0px;"/>
  <path d="M209.7,612.89c-1.01-1.56-2.02-3.13-3.03-4.69-2.16-3.31-1.27-7.07-1.58-10.65-1.66-2.32.3-5.3-1.39-7.62-1.76-10.09-1.97-20.26-1.62-30.46,3.78,4.36,1.22,9.6,2.01,14.36,1.79,10.66,3.79,21.29,5.75,31.93,1.35,7.34,7.82,9.77,15.34,5.28,5.84-3.49,11.48-7.42,16.76-11.7,3.96-3.21,7.82-3.51,12.84-3.95,11.98-1.03,22.83-6.36,30.92-15.81,15.37-17.95,25.44-39.41,38.54-58.89,10.12-15.05,22.44-27.9,36.61-39,13.65-10.7,30.08-10.44,45.84-8.65,20.72,2.36,41.2,6.85,61.78,10.48.66.12,1.21.84,1.82,1.28-3.03,2.81-6.46,1.74-9.95,1.19-15.07-2.4-29.92-6.36-45.29-6.68-7.08-.08-14.21.42-21.24-.2-15.14-1.33-24.95,6.14-32.41,18.18-6,9.68-11.15,19.87-17.57,29.3-2.84,4.18-5.8,8.28-8.39,13.03,7.74-3.74,15.57-7.22,23.65-10.03,22.22-7.73,45.04-11.36,68.61-9.44,9.31,3.75,19.09,5.97,28.72,8.66,2.96.83,6.7.54,8.1,4.38-3.49,3.76-8.11,2.45-12.19,2.26-29.76-1.45-57.03,7.28-83.48,19.75-16.97,8-30.28,20.22-41.14,35.26-6.38,8.84-12.59,17.81-19.01,26.63-15.41,21.16-18.21,43.77-9.54,68.43,7.24,20.6,19.55,37.69,34.2,53.38,4.84,5.19,10.1,9.99,14.99,15.14,2.03,2.13,4.72,4.13,3.54,7.79-2.27,1.63-4,.03-5.29-1.32-16.68-17.53-38.38-27.95-58.25-40.89-11.01-7.17-18.21-16.24-22.38-28.53-8.35-24.57-11.99-49.16-2.59-74.68-7.82,4.84-13.32,12-19.94,17.86-.57.51-1.18.96-1.81,1.38-8.47,4.53-9.78,4.26-15.82-2.96-1.14-1.36-2.22-2.74-3.01-4.31-3.12-6.23-6.85-11.92-13.09-15.5Z" style="fill: #d6710c; stroke-width: 0px;"/>
  <path d="M101.55,393.38c-7.94,23.74-11.26,48.65-18.3,72.61-13.94,47.48-14.9,96.17-13.6,145.03.35,13.28,2.2,26.51,2.67,39.88-5.54-7.16-5.85-15.88-7.16-24.07-4.37-27.45-7.26-55.1-6.21-82.93,1.75-46.5,7.94-92.39,21.15-137.16,1.93-6.54,4.12-13,6.19-19.5,5.65.65,10.85,2.39,15.26,6.12Z" style="fill: #c09178; stroke-width: 0px;"/>
  <path d="M1.29,322.29c7.01,4.41,14.02,8.81,21.02,13.22,2.35,1.37,5.14,1.67,7.47,3.08,1.66,1.85,3.79,2.75,6.22,3.05,2,1.04,4.33,1.4,6.09,2.95l.03.02c2.34,1.44,5.15,1.73,7.51,3.1.7,1.22,1.89,1.43,3.14,1.5,3.55,1.51,7.04,3.15,10.64,4.55l.03.02c2.38,1.38,5.16,1.75,7.57,3.06l.03.02c1.73,1.61,4.06,2.01,6.11,2.97h.02c2.37,1.43,5.15,1.8,7.58,3.08h.02c4.66,1.83,8.99,4.39,13.7,6.08h.02c3.52,1.58,7.06,3.1,10.6,4.62.69,1.21,1.86,1.43,3.11,1.5,4.64,1.84,9,4.3,13.65,6.12,2.62,2.42,5.73,3.85,9.2,4.57,3.12,1.36,6.38,2.45,9.15,4.52h0c3.22,2.61,7.36,3.61,10.62,6.13,3.05,2.03,6.1,4.07,9.16,6.1,4.73,3.27,8.33,7.76,12.42,11.72,1.38,1.34,3.12,2.77,1.3,5.03-22.39-23.13-52.66-32.48-80.61-45.79-27.85-13.26-56.71-24.4-83.65-39.56-4.89-2.75-10.56-5.23-12.14-11.66Z" style="fill: #b85c29; stroke-width: 0px;"/>
  <path d="M177.7,419.3c-2.19-7.54-10.12-10.37-13.72-16.75,11.66,6.02,18.64,16.01,22.58,28.05,1.53,4.68,4.02,9.39,3.3,14.68-2.91-3.01-3.43-7.03-4.53-10.81-1.44-3.56-2.99-7.08-4.59-10.57-1.01-1.54-2.02-3.07-3.03-4.61Z" style="fill: #d6710c; stroke-width: 0px;"/>
  <path d="M199.06,527.47c2.57,10.53,3.24,21.24,3.04,32.03-2.66-10.52-3.16-21.25-3.04-32.03Z" style="fill: #d6710c; stroke-width: 0px;"/>
  <path d="M195.85,492.48c2.76,4.94,2.3,9.97.38,15.03-.13-5.01-.25-10.02-.38-15.03Z" style="fill: #d6710c; stroke-width: 0px;"/>
  <path d="M197.37,509.23c2.74,4.98,2.34,10.03.32,15.11-.11-5.04-.21-10.07-.32-15.11Z" style="fill: #d6710c; stroke-width: 0px;"/>
  <path d="M180.74,423.91c2.86,2.94,4.53,6.41,4.59,10.57-2.78-2.98-4.52-6.41-4.59-10.57Z" style="fill: #b85c29; stroke-width: 0px;"/>
  <path d="M194.32,477.23c2.68,3.91,2.32,7.92.38,11.98-.12-3.99-.25-7.99-.38-11.98Z" style="fill: #d6710c; stroke-width: 0px;"/>
  <path d="M192.95,465c2.41,3.49,2.28,7.02.19,10.58-.06-3.53-.13-7.05-.19-10.58Z" style="fill: #d6710c; stroke-width: 0px;"/>
  <path d="M203.7,589.93c2.31,2.2,1.15,5.04,1.39,7.62-2.38-2.19-1.15-5.04-1.39-7.62Z" style="fill: #b85c29; stroke-width: 0px;"/>
  <path d="M100.03,457.36c.32-2.55-1.06-5.43,1.48-7.54-.34,2.54,1.01,5.42-1.48,7.54Z" style="fill: #b2694f; stroke-width: 0px;"/>
  <path d="M1008.24,620.52c.44-.03.88-.05,1.32-.06,4.15-9.87,4.9-20.51,6.94-30.86.47-2.4.92-4.67,3.42-5.41,8.26-2.43,14.32-8.57,21.63-12.62,5.85-3.24,11.98-5.56,18.37-7.23,16.3-4.26,26.93,5.06,35.58,16.46,16.33,21.55,20.34,46.41,17.79,72.89-3.71,38.6-16.46,74.71-29.37,110.85-8.8,24.61-16.21,49.72-26.77,73.69-1.23,2.79-2.22,5.7-4.81,7.62-13.37,13.54-28.37,25.07-44.8,34.52-9.38,5.39-17.94,12.31-28.36,15.85-15.12-4.13-26.73-14.25-38.86-23.28-15.07-11.22-29.84-23.02-46.46-31.7-11.85-6.19-24.04-12.2-36.43-17-10.89-4.22-22.81-6.63-34.49-8.93-5.94-1.17-11.52,1.43-16.88,3.72-20.52,8.78-40.7,18.33-61.84,25.66-33.26,11.55-67.39,18.51-102.44,21.77-17,1.58-33.98,1.8-50.92,1.17-64.82-2.38-125.45-18.59-177.94-58.27-45.56-34.44-79.87-77.72-97.83-132.65-4.58-14-7.86-28.47-3.27-43.35.98-3.18,2.03-6.34,4.3-8.82,2.25-2.46,4.66-4.96,8.43-2.47,1.3,8.6-1.07,16.97-2.71,25.13-1.44,7.19-1.85,13.81.3,20.67,7.72,28.69,20.93,54.74,38.06,78.9,30.75,43.36,71.87,72.76,121.64,90.6,11.21,4.02,22.27,8.43,34.07,10.51,75.93,17.45,150.91,15.2,224.83-10.13-22.94,8.4-46.7,13.76-70.92,17.31-22.89,3.36-45.92,4.56-68.99,3.64-22.06-.88-43.95-3.82-65.69-7.65-25.99-4.75-51.07-12.43-75.15-23.33-3.91-1.77-7.86-3.52-11.31-6.16-23.72-19.4-44.14-41.86-61.22-67.28-9.12-13.58-15.08-28.72-19.99-44.26-.67-2.13-1.32-4.52,1.18-6.17,3.42.75,4.62,3.75,6.2,6.27,23.75,37.91,57.11,64.77,97.04,83.87,32.83,15.7,67.82,24.35,103.79,28.01,30,3.05,60.09,1.97,90.02-3.29,37.87-6.65,73.44-19.27,106.86-38.15,5.8-1.1,11.1-3.72,16.18-6.4,7.23-3.81,14.29-3.76,21.12-.32,9.32,4.68,16.51,1.72,23.31-4.8,4.22-4.04,8.04-8.42,11.63-13.01,16.52-21.09,33.79-41.59,43.61-67.15,3.77-9.83,11.62-17.46,20.15-23.31,11.31-7.75,17.61-17.77,19.15-31.19.31-2.7.59-5.58,2.32-7.94,5.61-1.21,11.56.03,17.01-2.8,3.87-2.01,7.65-3.92,10.15-7.65,4.11-1.6,5.88,1.88,8.1,3.97,5.54,5.17,10.48,10.99,16.94,15.13,4.05,2.6,8.19,4.1,12.65.9,5.29-4.45,8.37-10.8,13.34-15.52Z" style="fill: #f8b023; stroke-width: 0px;"/>
  <path d="M324,622.03c-11.38,3.32-11.31,13.52-11.94,22.11-1.22,16.73,4.12,32.52,10.44,47.73,15.79,37.99,39.59,70.52,69.88,98.11,41.46,37.77,90.35,60.16,145.55,70.04,30.63,5.48,61.38,7.22,92.13,5.45,47.39-2.73,93.36-13.07,137.24-31.68,10.02-4.25,20.08-8.46,29.74-13.44,14.49-7.47,28.35-7.25,44.28-3.01,15.18,4.04,28.17,11.85,42.37,17.36,22.52,8.73,40.43,24.37,59.62,38.23,9.93,7.17,19.33,15.54,31.32,19.58,1.91.64,3.77,1.6,4.55,3.74-4.32,9.06-12.52,14.91-18.77,22.37-9.87,11.8-20.26,23.22-31.12,34.12-25.95,26.05-53,50.86-85.02,69.51-.61.36-1.47.3-2.21.44-1.85,1.56-3.87.98-5.77.28-22.43-8.24-46.15-11.75-68.81-19.34-27.43-9.19-54.62-18.7-81.2-30.33-26.73-11.7-52.53-25.32-79.4-36.74-21.94-9.33-41.94-22.69-63.07-33.76-29.24-15.32-57.52-32.32-85-50.62-28.35-18.87-55.74-38.96-80.44-62.54-7.34-7-15.39-13.26-22.24-20.78-1.85-2.04-4.27-3.69-4.75-6.71-.11-3.84-3.29-5.59-5.58-7.8-13.7-13.21-26.91-26.91-36.86-43.2-8.88-14.55-15.51-30.36-16.75-47.51-1.2-16.59,3.4-32.02,13.51-45.56,11.17-14.97,20.52-31.27,33.91-44.61,14.57-14.51,32.59-22.39,51.41-29.71,23.75-9.23,48.14-11.04,73.09-10.2,6.54-4.02,13.53-1.11,19.94-.32,25.6,3.17,50.44-.87,75.32-5.85,3.74-.75,7.74-3.31,11.49.22-2.13,3.27-6.5,1.9-9.02,4.34,0,0-.33.19-.33.19-11.33,3.05-21.69,8.57-32.57,12.78-16.79,7.52-34.46,9.57-52.7,9.34-19.76-.25-39.49.96-59.13,3.27-16.22,1.91-29.68,9.26-41.28,20.51,2.01,2.68,4.46,2.02,6.61,1.85,31.81-2.57,63.62-5.12,95.38-8.34,11.06-1.12,22.2-1.82,33.35-2.31,33.95-1.47,67.9-1.38,101.86-1.36,3.04,0,6.12-.26,9.09.53,1.78.48,4.24.68,3.36,3.72-1.89,1.55-4.19,1.91-6.46,1.8-13.46-.67-26.78,1.85-40.23,1.7-34.52-.37-68.77,3.74-103.09,6.64-19.44,1.64-38.78,4.31-58.26,5.41-3.18-.07-6.39-.71-9.53.38-1.38.5-2.76,1.01-4.24,1.06-2.84-.75-5.7-1.81-8.36.54-.86.54-1.77.9-2.81.84-3-1.47-5.6-.5-8.06,1.34-9.72,3.74-20.36,2.99-30.21,6.75-9.51,3.63-17.61,8.63-24.04,16.42-2.54,1.92-1.84,6.72-6.2,7.02Z" style="fill: #e6871f; stroke-width: 0px;"/>
  <path d="M351.4,762.14c9.33,7.39,17.41,16.17,26.14,24.21,21.04,19.4,43.22,37.22,66.73,53.51,37.27,25.83,76.43,48.39,116.36,69.84,26.31,14.14,52.99,27.33,79.99,40.08,32.64,15.42,65.05,31.35,99.26,42.86,27.69,9.32,55.53,18.43,84.34,24.07,6.11,1.2,11.91,3.94,17.85,5.97-2.16,5.26-10.11,5.52-10.58,12.25-13.74,6.62-27.49,13.24-41.23,19.86-10.79.68-21.1,4.74-32.02,4.56-30.3-.63-60.37-3.73-90.48-7.17-24.59-2.81-48.9-7.03-73.11-11.62-19.34-3.67-37.81-11.34-55.78-19.49-20.03-9.08-40.04-18.26-59.41-28.76-21.98-11.92-43-25.36-64.23-38.52-27.73-17.19-50.94-39.12-71.9-63.59-15.39-17.98-30.32-36.33-43.81-55.93-16.65-24.18-30.46-50.05-46.66-74.45-3.21-4.84-5.79-10.11-8.47-15.27-8.75-16.85-17.52-33.68-26.08-50.63-8.3-16.43-7.12-33.92,3.66-47.21,7.58-9.35,2.58-12.62-1.05-19.07-3.11-5.52-8.32-9.2-11.21-14.72,5.66,2.22,11.97,3.66,12.16,11.73.03,1.28,1.57,2.52,2.41,3.78,6.47,9.67,7.35,9.96,17.41,5.76.53.54.41,1.33.76,1.94,0-.75-.19-1.42-.72-1.98,6.13-6.37,12.27-12.74,18.4-19.11,1.48-1.53,3.38-2.93,5.36-1.87,2.59,1.38.59,3.71-.01,5.25-11.23,29.06-4.4,56.54,7.14,83.61,2.15,5.04,6.12,8.57,10.61,11.58,8.59,5.75,16.67,12.5,25.84,17.1,16.07,8.06,29.21,19.68,42.35,31.47Z" style="fill: #cd6c1d; stroke-width: 0px;"/>
  <path d="M1052.34,845.87c5-12.97,10.67-25.73,14.86-38.96,13.81-43.56,32.83-85.53,40.89-130.83,3.76-21.13,6.61-42.57.53-63.83-4.74-16.55-12.59-31.31-26.59-42.11-6.82-5.26-14.39-5.5-22.36-3.66-11.09,2.57-20.45,8.59-29.6,14.95-2.69,1.87-4.86,4.23-8.63,4.13-3.26-.09-3.64,2.63-4.11,5.33-1.32,7.7-2.98,15.34-4.43,23.02-.48,2.54-1,4.98-3.33,6.54,1.93-10.03,3.96-20.05,5.75-30.11.52-2.94.35-5.99.52-9.51-2.58,1.68-.56,4.94-2.93,6.09-2.86-2.66-2.07-6.02-1.73-9.27,3.38-32.52,5.04-65.19,8.39-97.71,1.28-12.37,2.73-24.71,5.48-36.85.63-2.76.44-6.32,4.38-7.19.25,1.6.5,3.21.75,4.81.71-.61,1.42-1.22,2.13-1.83,7.49-14.75,18.84-25.23,34.55-30.57,3.24-1.1,7.65-4.1,9.9,1.87-1.53,1-3.07,2-4.6,3-.74.69.32-.05-.44.62-11.11,9.68-10.94,9.59-4.32,23.47,11.12,23.32,21.62,46.95,34.71,69.28,3.72,6.35,7.35,12.96,13.18,17.55,15,11.79,19.09,28.24,19.75,45.89,1,26.86.32,53.69-4.77,80.23-.57,2.95-.78,6.08-3.22,8.33-4.31,15.2-8.01,30.61-13.05,45.56-7.9,23.44-17.19,46.41-24.99,69.88-6.84,20.6-12.91,41.45-21.62,61.38-1.61,3.68-2.93,7.55-5.75,10.59-3.09-.02-6.19-.05-9.28-.07Z" style="fill: #fbc549; stroke-width: 0px;"/>
  <path d="M1127.04,658.53c4.89-28.41,7.28-57,6.06-85.84-.76-18.02-3.59-35.15-19.36-47.23-7.78-5.96-12.08-14.94-16.68-23.28-12.94-23.46-24.12-47.83-35.24-72.19-4.34-9.51-3.43-10.8,6.08-15.36,1.34-.64,2.83-.98,4.26-1.46,7.92,14.44,13,30.3,22.1,44.14,1.52,2.32,3.2,4.53,4.84,6.77,7.05,9.6,12.02,9.43,18.04-.65,1.15-1.93,1.83-4.59,4.71-4.22,2.7.35,3.14,3.11,4.01,5.1,6.11,13.99,9.35,28.82,11.71,43.77,4.27,27.03,5.62,54.3,4.67,81.65-1.27,36.72-7.2,72.74-17.39,108.03-5.54,19.16-11.49,38.2-19.1,56.67,1.16-11.86,6.24-22.68,9.11-34.09,5.13-20.4,11.26-40.59,12.18-61.82Z" style="fill: #fbcd6f; stroke-width: 0px;"/>
  <path d="M1076.76,410.17c-2.67-2.71-5.54-1.43-8.43-.46-14.25,4.78-25.06,13.77-32.87,26.55-.65,1.06-.3,3.97-3.15,2.61,3.99-15.77,13.36-27.49,27.48-35.17,12.14-6.61,24.63-12.58,37.02-18.72,1.26-.62,2.92-.44,4.39-.63-.43.59-.78,1.28-1.32,1.75-2.14,1.84-6.16,2.48-5.71,6.02.45,3.59,4.86,2.57,7.09,4.32-3.87,6.31-11.19,7.08-16.91,10.42-2.37,1.39-5.06,2.21-7.61,3.29Z" style="fill: #e9ab6e; stroke-width: 0px;"/>
  <path d="M427.61,521.38c-34.02-.69-66.4,5.9-97.15,21.57,6.51-10.02,13.09-19.99,19.5-30.07,5.8-9.13,9.87-19.35,17.89-27.05,5.92-5.68,12.47-9.09,20.96-8.72,8.34.37,16.71.09,25.07.09,52.22,7.02,102,24.3,152.98,36.54,8.64,2.07,10.89,5.33,10.05,11.96l-1.6.24c-10.49,1.67-20.9,1.77-31.51.29-29.79-4.16-59.69-7.05-89.84-7.24-8.94-.06-17.52,2.26-26.36,2.39Z" style="fill: #ce4f08; stroke-width: 0px;"/>
  <path d="M427.61,521.38c5.29-3.27,11.17-4.39,17.27-4.56,25.29-.69,50.36,2.12,75.52,4.15,18.33,1.49,36.32,6.81,54.92,4.97-1,1.84-2.85,1.41-4.44,1.66-12.08,2.2-24.1,4.73-36.24,6.52-15.91,2.35-31.87,4-48.01,1.3-7.4-1.24-15-1.28-22.5-1.87-8.47-3.72-17.71-4.76-26.41-7.67-3.5-1.17-7.45-1.4-10.1-4.5Z" style="fill: #c85f24; stroke-width: 0px;"/>
  <path d="M576.91,525.7c-.01-6.93-5.27-8.72-10.42-10.07-27.49-7.25-55.05-14.19-82.53-21.47-19.68-5.22-39.12-11.31-59.24-14.82-3.58-.62-7.73.95-10.83-2.13,15.89,0,31.17,4.27,46.7,6.78,3.26.53,6.46.72,9.7.82,11.88,2.19,23.83,4.1,35.64,6.62,18.97,4.04,37.91,8.11,57.23,10.27,8.36.94,11.71,7.51,13.64,14.53.79,2.88,6.31,6.35.12,9.48Z" style="fill: #c85f24; stroke-width: 0px;"/>
  <path d="M319.01,518.31c-13.53,16.03-21.72,35.22-32.71,52.68-4.55,7.24-11.48,11.18-19.06,14.26-2.07.84-4.7,1.78-6.21-.61-1.5-2.36.64-4.32,2.01-5.95,8.92-10.61,17.53-21.53,27.08-31.54,9.38-9.82,17.4-20.98,28.89-28.83Z" style="fill: #ee9347; stroke-width: 0px;"/>
  <path d="M98.47,369c-5.32-.33-9.65-2.88-13.7-6.07,5.32.32,9.66,2.87,13.7,6.07Z" style="fill: #d6710c; stroke-width: 0px;"/>
  <path d="M125.85,381.24c-5.27-.43-9.61-2.94-13.65-6.12,5.32.33,9.68,2.79,13.65,6.12Z" style="fill: #d6710c; stroke-width: 0px;"/>
  <path d="M581.5,504.61c-.97,0-1.94.02-2.91.02-1.08-3.03-2.16-6.05-3.24-9.08,0,0,.16-.13.16-.13,5.75.62,6.74,4.33,5.99,9.19Z" style="fill: #fec550; stroke-width: 0px;"/>
  <path d="M154.82,396.46c-4.05-1.16-8.11-2.29-10.62-6.12,4.09,1.09,8.15,2.23,10.62,6.12Z" style="fill: #d6710c; stroke-width: 0px;"/>
  <path d="M63.42,353.76c-4.2,0-7.62-1.8-10.64-4.55,4.2-.02,7.63,1.77,10.64,4.55Z" style="fill: #d6710c; stroke-width: 0px;"/>
  <path d="M109.09,373.62c-4.15-.11-7.62-1.81-10.6-4.61,4.19.04,7.65,1.74,10.6,4.61Z" style="fill: #d6710c; stroke-width: 0px;"/>
  <path d="M144.19,390.33c-3.5-.6-6.57-2.06-9.15-4.52,3.81-.04,7.07,1.05,9.15,4.52Z" style="fill: #d6710c; stroke-width: 0px;"/>
  <path d="M84.74,362.92c-2.97.09-5.63-.63-7.58-3.07,2.97-.09,5.62.64,7.58,3.07Z" style="fill: #d6710c; stroke-width: 0px;"/>
  <path d="M71.01,356.84c-2.96.07-5.6-.66-7.57-3.06,2.98-.1,5.62.61,7.57,3.06Z" style="fill: #d6710c; stroke-width: 0px;"/>
  <path d="M49.64,347.71c-2.93,0-5.59-.67-7.51-3.1,2.95-.06,5.62.58,7.51,3.1Z" style="fill: #d6710c; stroke-width: 0px;"/>
  <path d="M29.79,338.59c-2.91-.01-5.53-.73-7.47-3.08,2.96-.12,5.61.53,7.47,3.08Z" style="fill: #d6710c; stroke-width: 0px;"/>
  <path d="M42.1,344.59c-2.43-.16-4.5-1.05-6.09-2.95,2.62-.24,4.89.25,6.09,2.95Z" style="fill: #d6710c; stroke-width: 0px;"/>
  <path d="M77.15,359.84c-2.61.19-4.91-.27-6.11-2.97,2.45.15,4.54,1.02,6.11,2.97Z" style="fill: #d6710c; stroke-width: 0px;"/>
  <path d="M1029.43,435.9c-4.54,13.23-5.92,27.09-7.28,40.84-3.45,34.92-6.23,69.91-9.24,104.88-.15,1.76,0,3.54,0,5.31-1.08,5.41-2.22,10.82-3.22,16.25-.38,2.04-.55,4.37-3.06,4.58-2.6.22-3.02-2.4-3.77-4.14-1.49-3.44-2.68-7-4-10.51-.21-7.13-4.97-12.95-5.76-19.91,5.84,2.38,7.61.03,7.56-5.8-.09-10.86-1.72-21.54-2.74-32.3-1.37-14.44,2.65-28.44,4.87-42.57,1.75-11.16,4.1-22.23,4-33.66-.06-7.27.47-14.63,1.66-21.8,1.02-6.16,2.94-12.18,8.28-16.53,5.32-4.34,9.55-9.72,12.58-15.96.33-.68.64-1.41,1.12-1.97,3.34-3.83,8.3-6.84,12.45-4.85,4.27,2.03-1.72,5.9-1.25,9.26-1.3,5.25-6.09,8.62-7.48,13.82-.1.43-.15.87-.15,1.31-1.72,2.82-1.33,6.45-3.45,9.12-1.48,1.28-1.1,3-1.1,4.63Z" style="fill: #fad6c3; stroke-width: 0px;"/>
  <path d="M1104.19,369.02c12.99-8.79,27.98-13.37,42.11-19.73,9.08-4.09,17.78-9.4,27.93-10.79-13.83,7.99-28.97,13.11-43.45,19.67-8.69,3.94-17.02,8.98-26.59,10.85Z" style="fill: #f8ce6d; stroke-width: 0px;"/>
  <path d="M1034.13,420.84c.03-5.94,4.55-9.45,7.48-13.82.51,0,1.02.02,1.53.03-2.35,5.03-5.5,9.53-9.01,13.8Z" style="fill: #f8ce6d; stroke-width: 0px;"/>
  <path d="M1090.51,375.17c3.97-3.35,8.35-5.81,13.68-6.14-4.04,3.21-8.42,5.66-13.68,6.14Z" style="fill: #f8ce6d; stroke-width: 0px;"/>
  <path d="M1067.59,387.17c2.7-3.6,6.54-5.1,10.78-5.89-2.77,3.46-6.54,5.11-10.78,5.89Z" style="fill: #f8ce6d; stroke-width: 0px;"/>
  <path d="M1030.53,431.28c.56-3.26.76-6.66,3.45-9.12-.02,3.46-.23,6.86-3.45,9.12Z" style="fill: #fbc549; stroke-width: 0px;"/>
  <path d="M1084.36,378.07c1.62-1.88,3.68-2.83,6.15-2.91-1.28,2.6-3.49,3.22-6.15,2.91Z" style="fill: #f8ce6d; stroke-width: 0px;"/>
  <path d="M581.5,504.61c-1.63-3.3-1.98-7.44-6-9.19-3.37-8.17-6.92-16.23-10.96-24.12-5.82-11.38-12.16-22.53-15.81-34.99-2.56-8.75.66-16.68,2.77-24.5,3.54-13.15,7.37-26.34,14.1-38.38,2.81-5.02,6.2-9.54,12.6-9.57,6.41-.03,9.94,4.05,12.4,9.54,8.33,18.59,12.93,38.07,15.52,58.26,1.56,12.18.81,24.27,1.3,36.39-2.93,14.54-6.32,28.97-11.63,42.84-3.14,8.21-4.24,8.15-10.25,1.72-2.22-2.38-2.46-5.47-4.06-7.99Z" style="fill: #fec66f; stroke-width: 0px;"/>
  <path d="M583.03,216.61c1.26,9.41-3.18,18.19-3.04,27.48-3.99,9.17-10.92,15.05-19.63,19.97-12.62,7.13-22.48,17.8-32.18,28.53-6.45,7.14-11.1,16.19-20.71,21.15-1.46-6.12.88-10.7,3.34-14.94,14.68-25.35,29.64-50.55,46.07-74.81,6.6-9.75,11.41-10.98,23.2-8.06.98.24,1.97.45,2.95.67Z" style="fill: #fbb72d; stroke-width: 0px;"/>
  <path d="M647.06,204.41c8.49-15.87,4.34-30.72-3.57-45.32-1.18-2.18-2.08-4.64-2.5-7.08-.37-2.14-3.34-5.19.3-6.45,2.99-1.04,4.08,2.71,5.09,4.66,22.12,42.7,49.91,82.07,72.95,124.25,15.87,29.06,14.49,56.9-2.6,84.7-7.64,12.43-14.79,25.16-22.75,38.77-3.13-9.16,1.11-17.93-2.66-25.78-1.47-.72-2.28-2.05-2.77-3.48-4.17-12.15-12.25-22.07-18.67-32.93-10.74-15.35-24.43-28.13-36.69-42.16-6.35-7.26-12.37-14.69-16.47-23.42-5.64-12.02-4.62-23.45,3.85-34.03,2.02-2.52,3.93-5.33,5.09-8.31,3.34-8.57,9.34-13.16,18.53-12.6,6.89.42,8.18-1.76,4.57-7.43-.68-1.06-1.14-2.25-1.71-3.38Z" style="fill: #eb6e10; stroke-width: 0px;"/>
  <path d="M529.68,542.8c10.08-5.16,20.43-9.51,31.85-10.67-2.93,2.97-7.53,2.34-10.65,5.29-5.83,5.51-5.36,10.09,2.32,12.75,4.93,1.71,10.26,2.75,15.47,3.1,14.17.94,28.23-.08,41.88-4.44,18.42-5.11,35.7,2.54,53.42,4.95,17.62,2.4,35.14,5.49,52.98,5.71.34-.04.69-.08,1.03-.13,3.47-.28,6.94-.21,10.39.23.7.11,1.38.28,2.06.46,3.1.94,6.31.44,9.47.69,1.09.07,2.15.26,3.2.53,2.41.84,4.93.85,7.43.99,1.09.07,2.16.27,3.21.53,2.4.84,4.92.86,7.42,1,1.09.07,2.15.27,3.2.54,2.38.84,4.9.87,7.37,1.16.71.08,1.41.24,2.1.41,2.71.97,5.55.77,8.35.94,1.05.06,2.08.25,3.09.53,2.26.81,4.63,1.04,6.99,1.4.68.12,1.35.29,2.02.49,3.08.96,6.33.44,9.46,1.06.78.11,1.52.31,2.26.55,4.56.27,8.97,1.51,13.49,2.06,2.06.25,5.51.23,3.51,4.25-11.79,2.74-23.77,1.77-35.57.92-20.23-1.46-40.49-2.21-60.7-4.03-32.82-2.97-65.82-4.14-98.36-9.94-7.3-1.3-14.76-1.49-22-.36-13.58,2.12-27.27,2.69-40.92,3.52-12.72.78-24.61-3.44-35.59-9.57-7.79-4.35-7.59-9.29-.18-14.93Z" style="fill: #ef9828; stroke-width: 0px;"/>
  <path d="M669.88,335.75c10.37,10.24,17.4,22.44,21.43,36.42,3.63,35.19-19.35,57.26-39.72,80.62,5.52-13.18,11.24-26.28,16.53-39.56,10.2-25.57,10.43-51.45,1.75-77.48Z" style="fill: #ec9062; stroke-width: 0px;"/>
  <path d="M672.95,384.8c-.14,7.66-4.62,14.64-9.38,14.6-5.87-.04-9.36-5.95-8.9-15.08.37-7.31,5.01-14,9.51-13.71,4.79.31,8.9,6.95,8.77,14.18Z" style="fill: #fec66f; stroke-width: 0px;"/>
  <path d="M1008.24,620.52c-2.07,6.98-7.15,11.7-12.29,16.39-2.18-6.11,0-13.02-3.45-18.9,2.12-3.31,4.49.06,6.81-.25.1-2.06-1.6-2.98-2.79-4.03-23.21-20.49-44.71-42.68-65.77-65.33-1.2-1.29-2.86-2.11-4.13-3.36-14.63-15.41-28.94-31.16-44.59-45.55-3.7-3.4-7.3-8.16-13.65-6.59-9.09-10.01-20.84-14.15-33.9-14.58-11.67-.39-23.28.79-34.41,4.77-2.7.96-5.15,2.52-5.93,5.47-1.57,5.91-6.02,10.74-6.29,17.13-9.6,2.2-19.71.24-29.16,3.61-23.77,6.28-48.33,8.54-72.24,14.14-1.96.46-4.01.67-5.95-.32-8.29.61-16.44,1.93-24.37,4.49-6.96,1.94-13.98,3.05-21.19,1.47-6.89-2.54-7.36-6.39-2.88-11.92,4-4.93,6.81-10.64,8.62-16.78,1.42-4.81,2.8-6.59,7.52-1.9,6.34,6.31,15,3.56,22.37,2.44,44.32-6.76,87.92-17.46,132.13-24.74,18.96-3.12,38.39-6.13,57.21,2.52,10.99,5.05,20.62,11.96,29.01,20.35,24.17,24.19,48.41,48.34,71.66,73.39,13.8,14.86,27.94,29.17,43.71,41.89,1.96,1.58,3.89,3.34,3.96,6.2Z" style="fill: #d76614; stroke-width: 0px;"/>
  <path d="M680.49,523.1c17.65-5.37,36.01-7.17,54-10.88,7.89-1.63,15.82-3.05,23.73-4.57,25.71-6.23,42.27,7.44,56.32,26.17,6.23,8.31,11.7,17.15,15.66,26.85,2,9.63-.31,12.59-9.86,12.49-5.47-.06-10.93-.47-16.33-1.44l-.07-.04c-3.31-2.06-7.25.36-10.59-1.47l-.09-.05c-2.23-1.86-5.18.12-7.47-1.4-1.08-.04-2.16-.09-3.24-.13-2.75-1.97-6.16.25-8.96-1.42-.57-.04-1.14-.07-1.71-.11-2.21-1.86-5.14.14-7.42-1.39-1.08-.05-2.17-.09-3.25-.14-2.21-1.85-5.14.14-7.41-1.38-1.09-.05-2.18-.09-3.27-.14-2.2-1.85-5.12.13-7.39-1.38-1.1-.05-2.19-.1-3.29-.14-3.28-1.99-7.13.28-10.45-1.39l-.23-.13c-3.81-2.01-8.11.29-11.96-1.38,0,0-.24-.15-.25-.15-9.31-3.18-19.2-2.59-28.73-4.49-6.68-1.33-13.35-2.54-19.78-4.82-3.69-1.31-7.95-3.23-8.4-6.93-.51-4.16,2.44-7.92,5.96-10.79,4.5-3.66,10.65-4.72,14.47-9.36Z" style="fill: #e9af7a; stroke-width: 0px;"/>
  <path d="M634.93,529.06c7.06-.49,14.13-.98,21.19-1.47-6.77,4.8-13.95,3.53-21.19,1.47Z" style="fill: #e79722; stroke-width: 0px;"/>
  <path d="M488.55,329.39c-2.6-9.68-2.39-19.38-.06-29.07.02,9.69.04,19.38.06,29.07Z" style="fill: #fec550; stroke-width: 0px;"/>
  <path d="M773.72,781.9c-58.19,34.01-121.19,47.28-188.05,42.69-53.91-3.7-104.47-18.32-149.7-48.88-25.31-17.1-46.46-38.28-62.63-64.31-1.59-2.57-3.34-5.04-5.02-7.55-3.12-1.57-4.46-4.6-5.92-7.45-1.95-3.8-1.43-6.76,3.33-7.84,10.46-1.56,20.71,1.29,31.12,1.3,117.8.13,235.59-.03,353.38.01,33.22-.55,66.48,1.47,99.64-1.47,5.44.28,8.63,2.55,5.56,8.18-19.5,35.82-44.74,66.21-81.72,85.31Z" style="fill: #6e0300; stroke-width: 0px;"/>
  <path d="M773.72,781.9c14.66-10.37,29.32-20.73,41.97-33.64,15.02-15.33,27.65-32.37,37.41-51.48,1.02-2,4.55-4.53.05-6.78,8.39-12.69,12.21-27,14.95-41.72,4.48-24.12-4.36-38.54-27.76-45.38-4.39-1.28-8.9-2-13.31-3.15-2.14-.56-4.92-.74-5.19-3.59-.26-2.75,2.23-3.78,4.3-4.68,1.86-.81,3.55-1.95,5.48-2.62,16.75.29,32.5,4.48,47.39,12.06,7.45,5.12,13.27,11.46,16.76,20.05,3.42,8.4,3.02,17.23,3.49,26.27,10.11-5.84,13.71-14.14,11.59-25.1-1.69-8.71-5.99-16.59-7.41-25.47-1.28-8.02.44-15.62,1.2-23.38.32-3.26,1.29-6.77,4.83-8.05,3.81-1.37,6.04,1.74,8.36,3.95,2,1.9,4.08,3.87,4.07,7-3.64,12.75-1.16,24.68,4.52,36.32,2.13,4.36,5.65,8.47,4.14,13.97-1.16,16.45-5.38,30.69-20.71,40.62-9.57,6.2-17.28,15.32-21.57,26.8-8.83,23.65-25.53,42.29-40.66,61.86-5.71,7.38-11.52,14.8-19.67,19.86-4.53,2.82-9.34,4.59-14.24,1.64-11.02-6.64-21.24-3.57-31.46,1.82-2.66,1.4-5.21,3.28-8.51,2.83Z" style="fill: #cf6d34; stroke-width: 0px;"/>
  <path d="M363.29,689.76c-1.7,5.9,4.28,9.06,5.03,14.09,3.43,17.9,11.08,34.09,20.71,49.33,10.56,16.71,23.98,31.24,37.02,45.99,4.31,4.88,9.65,8.92,14.84,12.93,3.05,2.35,5.93,4.7,8.09,7.89-2.91,2.19-5.39.22-7.69-1.07-38.16-21.34-68.76-50.4-91.54-87.95-11.26-18.56-20.07-37.96-26.48-58.6-.35-1.13,0-3.32-2.37-3.14-3.25-7.28-3.53-14.1-1.02-22.2,2.43-7.86,2.26-16.71,4.12-24.99,2.42-2.03,1.7-5.96,4.65-7.67,8.38,2.6,16.35,5.75,20.12,14.68.77,6.48-.51,13.04.89,19.49,2.16,10.53,4.86,20.9,9.11,30.81.85,3.76,3.97,6.54,4.52,10.43Z" style="fill: #fab855; stroke-width: 0px;"/>
  <path d="M320.9,669.22c.14-.99-.08-2.46.48-2.89,1.72-1.31,2.13.56,2.29,1.57,1.17,7.05,4.21,13.48,6.73,20.05,17.9,46.49,46.5,84.87,87.28,113.82,9.86,7,19.71,14.13,31.3,18.21,25.1,13.1,51.62,22.1,79.35,27.64,1.95.39,3.85,1,5.78,1.51,1.66,3.67-.51,3.81-3.09,3.18-5.48-1.33-11.15-1.71-16.57-3.3-16.77-2.01-31.9-9.21-47.27-15.39-46.21-18.57-83.43-48.65-111.41-89.78-15.6-22.92-28.42-47.33-34.86-74.63Z" style="fill: #f8d1b3; stroke-width: 0px;"/>
  <path d="M930.53,626.48c-2.51-5.46-4.84-11-7.57-16.35-4.88-9.55-5.12-19.73-4.7-30.06.08-1.98.56-3.46,2.84-3.63,8.77,4.29,14.04,12.4,20.63,19.05,1.73,1.75,3.05,3.94,4.84,5.69,3.47,5.1,10.49,7.43,11.37,14.55-1.93,8.66-16.74,14.47-27.42,10.75Z" style="fill: #ec9d56; stroke-width: 0px;"/>
  <path d="M514.45,849.02c5.54-.71,10.7,1.61,16.1,2.08,1.98.17,3.44.68,3.56-1.96,13.21,1.71,26.4,3.59,39.63,5.1,24.41,2.8,48.82,3.15,73.38,1.31,24.77-1.85,48.99-6.2,72.87-12.67,9.37-2.54,18.52-5.89,29.69-9.48-5.11,5.24-10.21,6.2-14.74,7.75-25.36,8.7-51.36,14.24-78.08,17.32-21.97,2.54-43.93,3.6-65.86,2.46-25.84-1.34-51.66-4.02-76.57-11.9Z" style="fill: #f8b35e; stroke-width: 0px;"/>
  <path d="M957.95,615.73c-4.07-4.53-8.15-9.07-12.22-13.6,2.6-1.83,4.9-.42,7.03.86,7.37,4.43,15.33,6.06,23.89,6.45,6.24.29,13.28.42,16.29,7.98,5.92,5.73,4.32,12.63,3.02,19.48-4.92,5.71-9.94,2.81-14.61-.15-8.95-5.68-15.2-14.44-23.39-21.03Z" style="fill: #db680e; stroke-width: 0px;"/>
  <path d="M529.68,542.8c-5.86,7.52-4.58,10.73,4.15,14.96,18.94,9.17,38.65,8.04,58.44,4.94,18.24-2.86,36.13-1.13,54.17,1.77,12.65,2.03,25.49,3.04,38.27,4.12,25.36,2.15,50.7,4.63,76.11,5.85,20.96,1,41.94,2.86,62.97,1.8,4.13-2.82,9.18-2.39,13.71-3.86,3.32.93,4.9,3.33,5.56,6.53-.92,5.9-5.4,7.75-10.35,8.35-5.96.72-11.83,2.13-18.06.58-4.59-1.15-9.59-.44-14.41-.13-24-1.84-47.94-4.41-71.92-6.56-30.29-2.72-60.52-5.94-91-5.66-4.13.04-8.84.98-11.6-3.7-1.93-2.44-4.65-1.59-7.08-1.59-26.13-.05-52.32-1.05-78.39.25-27.92,1.4-55.91,1.85-83.77,5.47-20.95,2.72-42.11,4.5-63.32,5.01-5.77.14-11.44,2.01-17.32,1.44-1.74-.17-3.83.31-4.82-1.5-1.19-2.16,1.01-3.21,2.19-4.24,12.96-11.37,27.24-20.05,44.92-21.7,23.67-2.2,47.38-3.26,71.16-3.13,14.06.08,27.26-4.41,40.37-8.99Z" style="fill: #e79722; stroke-width: 0px;"/>
  <path d="M625.73,571.77c3.06,1.65,6.41,1.32,9.69,1.31,31.38-.09,62.57,2.38,93.73,5.94,18.55,2.12,37.2,3.29,55.82,4.83,5.27.44,10.41,2.29,15.8,1.53,3.57,2.18,7.99-.77,11.48,1.91-.36,6.91-3.07,9.61-9.86,8.76-26.42-3.3-53.01-4.55-79.48-7.29-28.73-2.97-57.49-5.8-86.43-5.65-32.45.17-64.92-.85-97.32,1.6-28.31,2.14-56.51,5.57-84.78,8.18-21.21,1.96-42.43,3.8-63.47,7.17-14.25,2.28-27.82,6.05-37.19,18.28-2.4,3.2-2.01,8.32-6.8,9.88-4.28-7-12.58-8.72-18.27-13.86,9.73-14.01,24.55-18.44,40.19-21.33,5.41-1,11.02-.95,16.19-3.17,2.45-1.08,4.91-1.48,7.41-.17.55-.4,1.1-.79,1.65-1.19,2.95-1.3,5.95-1.25,8.98-.35,1.1-.45,2.21-.89,3.31-1.34,2.9-1.63,6.36.46,9.23-1.38,20.33-1.97,40.66-3.95,60.99-5.9,11.55-1.11,23.08-2.41,34.66-3.22,38.11-2.66,76.29-4,114.49-4.52Z" style="fill: #d1876c; stroke-width: 0px;"/>
  <path d="M392.43,589.68c-2.47.06-4.94.12-7.42.17,2.42-2.17,4.84-4.48,7.42-.17Z" style="fill: #d6710c; stroke-width: 0px;"/>
  <path d="M403.06,588.13c-2.99.12-5.99.23-8.98.35,2.9-2.37,5.86-3.51,8.98-.35Z" style="fill: #d6710c; stroke-width: 0px;"/>
  <path d="M415.6,585.41c-2.77,2.54-6.14,1.03-9.23,1.38,2.76-2.61,6.15-.94,9.23-1.38Z" style="fill: #d6710c; stroke-width: 0px;"/>
  <path d="M241.72,634.11c3.89.58,2.52,2.68,1.32,4.67-.72,1.19-2.18,1.86-3.05.89-2.23-2.48,1.49-3.53,1.69-5.51,0,0,.05-.04.05-.04Z" style="fill: #b85c29; stroke-width: 0px;"/>
  <path d="M837.43,573.21c-3.91,3.89-8.87,3.02-13.64,3.02-6.24-3.05-13.59-1.26-19.79-4.5,4.52,0,9.04-.02,13.55-.03,11.96,0,12.48-.59,10.96-12.15,6.72,2.1,8.82,7.22,8.91,13.66Z" style="fill: #f3942b; stroke-width: 0px;"/>
  <path d="M717.2,559.64c4,.36,8.27-1.64,11.96,1.38-3.97-.64-8.24,1.37-11.96-1.38Z" style="fill: #f3942b; stroke-width: 0px;"/>
  <path d="M729.39,561.15c3.51.29,7.29-1.47,10.45,1.39-3.47-.56-7.26,1.27-10.45-1.39Z" style="fill: #f3942b; stroke-width: 0px;"/>
  <path d="M793.34,570.22c3.54.4,7.39-1.39,10.59,1.47-3.52-.6-7.38,1.33-10.59-1.47Z" style="fill: #f3942b; stroke-width: 0px;"/>
  <path d="M773.59,567.22c3.02.27,6.33-1.29,8.96,1.42-2.99-.49-6.31,1.15-8.96-1.42Z" style="fill: #f3942b; stroke-width: 0px;"/>
  <path d="M764.46,565.72c2.53.14,5.33-1.13,7.42,1.39-2.49-.37-5.29.94-7.42-1.39Z" style="fill: #f3942b; stroke-width: 0px;"/>
  <path d="M753.79,564.2c2.53.13,5.33-1.14,7.41,1.38-2.49-.36-5.29.94-7.41-1.38Z" style="fill: #f3942b; stroke-width: 0px;"/>
  <path d="M743.13,562.68c2.53.13,5.32-1.18,7.39,1.38-2.48-.36-5.28.94-7.39-1.38Z" style="fill: #f3942b; stroke-width: 0px;"/>
  <path d="M785.79,568.77c2.55.14,5.36-1.11,7.47,1.39-2.51-.38-5.33.94-7.47-1.39Z" style="fill: #f3942b; stroke-width: 0px;"/>
  <path d="M992.94,617.42c-3.28-3.52-7.95-5.75-12.09-5.58-12.93.54-24.12-3.95-35.12-9.71-8.21-8.57-16.41-17.13-24.62-25.7-1.03-1.4-1.83-3.11-3.15-4.15-2.65-2.1-4.43-7.31-8.06-5.72-3.78,1.66-3.1,6.88-3.92,10.81-2.73,13.19.51,25.31,4.91,37.63,6.17,17.27,2.84,25.79-12.97,36.88-1.69-3.44-.91-7.03-.85-10.41.27-14.98-3.82-27.9-16.66-36.95-.78-.55-1.23-1.59-1.83-2.4-6.79-4.8-11.06-11.77-15.36-18.54-12.2-19.19-24.68-38.18-40.45-54.66-6.93-7.24-14.34-14.23-24.05-17.93-3.74-1.54-8.12-2.09-10.02-6.47-2.75-2.05-5.47-4.02-1.09-7.25,1.16-.86,2.53-2.29,2.66-3.56,1.4-14.13,13.04-14.46,22.7-15.98,15.16-2.4,30.39-2.91,44.97,4.13,5.13,2.48,7.43,7.34,11.55,10.52,3.09-1.01,4.53,1.56,6.41,3.05,15.53,12.29,26.83,28.08,37.09,44.76,6.36,10.34,11.97,21.15,19.34,30.87,4.39,5.78,10.05,9.95,16.44,13.17,1.98,1,4.75,2.5,6.38.77,2.03-2.16-.73-4.12-2-5.79-7.22-9.45-15.26-18.23-22.9-27.33-1.82-2.17-5.02-4-2.81-7.7,5.36,1.52,7.23,6.78,10.79,10.21,19.76,19.02,37.93,39.67,58.97,57.38,1.16.97,2.24,2.05,3.21,3.21,1.22,1.44,3.9,2.69,2.37,4.92-1.94,2.83-3.89.11-5.77-.76-1.34-.62-2.72-1.14-4.08-1.71Z" style="fill: #c94902; stroke-width: 0px;"/>
  <path d="M927.44,544.19c2.55,6.83,8.67,10.91,12.85,16.5,5.12,6.84,10.96,13.15,16.34,19.81,1.36,1.68,3.25,3.66,1.85,6.08-1.51,2.59-3.79,1.41-6.05.81-12.31-3.27-20.27-11.89-26.58-22.13-11.09-18.02-21.1-36.73-34.97-52.92-6.39-7.45-13.95-13.63-21.39-19.94,1.1-4.98,3.95-1.91,5.51-.81,3.89,2.75,7.8,5.65,11.03,9.12,10.79,11.63,23.63,21.27,32.72,34.58,2.25,3.29,7.48,4.23,8.69,8.91Z" style="fill: #c75d32; stroke-width: 0px;"/>
  <path d="M788.7,504.54c3.6,1.57,6.77,4.11,10.79,4.72,22.65,14.47,33.72,37.58,44.91,60.53,1.29,2.65,3.71,6.8-2.25,7.94-2.48-.57-2.71-3.48-4.73-4.53-2.38-4.94-4.5-10.05-8.91-13.66-7.1-10.59-12.9-21.96-21.46-31.71-11.95-13.61-25.66-21.93-44.31-20.17-1.5.14-3.02,0-4.53,0,9.84-4.18,20.25-2.78,30.49-3.12Z" style="fill: #cf6d34; stroke-width: 0px;"/>
  <path d="M768.11,513.49c19.37-.91,34.26,16.15,42.78,35.83,3.08,7.1-.5,11.57-8.84,11.63-16.05.12-31.55-3.46-46.93-7.59-11.22-3.01-22.5-5.9-33.54-9.49-4.52-1.47-10.01-2.82-10.57-9.44-.63-7.45,5.32-9.65,10.07-11.69,13.07-5.62,26.84-8.81,47.03-9.24Z" style="fill: #e8c8b9; stroke-width: 0px;"/>
  <path d="M351.47,619c4.02-9.4,12.34-13.68,21.12-16.9,13.11-4.82,27.08-5.64,40.78-7.52,23.7-3.25,47.59-4.63,71.37-7.22,21.52-2.35,43.16-3.97,64.82-5.33,34.73-2.2,69.43-1.31,104.1-.89,23.37.28,46.73,2.96,70.06,5.3,14.02,1.4,28.01,3.41,42.19,3.75,12.15.3,24.27,2.49,36.38,4.07,5.72.75,8.55-1.69,9.33-7.11,6.64.5,13.45-.19,19.72,2.89-1.34,3.96-6.58,2.38-8.77,6.69,4.78.94,9.33,1.61,13.77,2.75,28.57,7.28,39.11,22.03,33.26,51.38-2.27,11.39-4.9,22.61-10.39,33-1.47,2.79-3.01,5.12-6.08,6.14-34.13,3.42-68.35,1.93-102.54,1.85-.06-.46-.11-.91-.17-1.37.62-.7,1.38-1.2,2.26-1.51,23.57-1.29,47.17-.14,70.76-.7,5.08-.12,10.12-.58,15.17-.9,7.7-.49,12.01-4.62,14.65-11.3.28-.71.6-1.4.89-2.1,10.19-24.97,6.87-37.03-19.53-54.53-10.78-7.14-23.74-8.74-36.33-10.42-40.48-5.4-81.1-9.32-121.82-12.58-38.27-3.07-76.56-3.41-114.81-2.39-29.09.78-58.19,2.97-87.24,5.49-30.35,2.64-60.6,5.7-90.59,11.1-8.78,1.58-17.36,3.71-25.26,8.07-2.23,1.23-4.66,2.21-7.1.27Z" style="fill: #ba816c; stroke-width: 0px;"/>
  <path d="M750.66,690.52c0,.44-.02.89-.06,1.33-90.83.08-181.66.3-272.48.17-35.76-.05-71.54.92-107.27-1.5-2.52-.17-5.03-.49-7.55-.75-3.3-1.86-4.22-5.27-5.53-8.43,2.76-2.19,5.85-1.29,8.78-.72,26.28,5.09,52.8,5.85,79.51,6.12,97.67,1.02,195.35,1.58,293.03,1.38,3.97,0,8.21-.74,11.58,2.41Z" style="fill: #c0aaa4; stroke-width: 0px;"/>
  <path d="M831.34,590.03c-6.73.11-13.24-1.27-19.72-2.89-3.57-.88-7.6,1.07-10.85-1.76,10.23-1.01,20.4,2.33,30.71.12,4.96-1.06,9.4-2,10.67-7.76,4.55-2.74,1.35-5.99.1-8.48-10.82-21.51-21.62-43.08-41.54-58.11-.57-.43-.83-1.25-1.24-1.89,10.71,4.93,18.89,12.82,27.01,21.25,20.72,21.51,34.14,48.19,52.09,71.62-15.21-6.12-30.86-10.57-47.24-12.1Z" style="fill: #d76614; stroke-width: 0px;"/>
  <path d="M750.66,690.52c-70.49-.04-141,.88-211.46-.48-43.83-.85-87.65.06-131.44-1.38-16.77-.55-33.5-3.72-49.99-7.33-4.75-10.19-8.21-20.75-9.38-31.98-.84-8.97,5.56-13.05,11.91-16.6,12.39-6.93,26.34-9,40.05-11.41,39-6.86,78.45-9.54,117.88-12.58,33.34-2.57,66.66-5.32,100.11-5.83,45.24-.69,90.11,3.66,134.86,9.76,11.56,1.58,23.12,3.06,34.47,5.91,15.88,3.98,28.1,12.43,35.38,27.49,3.52,7.28,8.66,13.76,10.71,21.78,2.49,9.78-.28,14.88-9.89,18.01-9.26,3.02-18.87,3.57-28.5,3.88-14.9.48-29.83-.96-44.7.78h0Z" style="fill: #dcd4d3; stroke-width: 0px;"/>
  <path d="M750.66,690.53c2.53-2.57,5.76-1.37,8.68-1.45,20.42-.57,40.96,1.57,61.07-4.47,12.33-3.7,15.58-6.74,10.53-18.03-6.52-14.57-12.32-30.31-27.19-39.23-10.15-6.1-21.7-8.1-33.19-9.94-29.34-4.7-58.89-7.83-88.46-10.47-28.52-2.54-57.2-2.4-85.8-1.55-22.92.68-45.86,2.26-68.68,4.55-30.81,3.1-61.77,4.51-92.5,8.69-22.25,3.03-44.46,5.82-65.96,12.48-9.48,2.94-17.46,8.03-20.77,18.23-3.17-6.86-.85-14.1-1.47-21.13,2.04-2.81,1.89-6.71,4.55-9.22,11.62-4.73,23.08-9.61,35.77-11.4,17.45-2.46,34.87-5.02,52.38-7.11,28.56-3.4,57.25-5.14,85.9-7.22,38.44-2.78,77.03-2.61,115.53-1.53,27.2.77,54.43,3.01,81.47,6.08,31.01,3.52,62.24,5.5,92.91,11.88,18.58,3.86,32.77,13.8,43.2,29.48,3.14,4.72,3.72,9.94,3.18,15.29-.93,9.15-4.28,17.59-7.81,26.01-4.32,10.3-13.71,9.5-21.88,9.67-27.15.55-54.31.31-81.46.37Z" style="fill: #c0aaa4; stroke-width: 0px;"/>
</svg>