<?xml version="1.0" encoding="UTF-8"?>
<svg id="Layer_1" data-name="Layer 1" xmlns="http://www.w3.org/2000/svg" viewBox="0 0 602.55 601.15">
  <path d="M398.59,583.68c1.04-.38,2.07-.76,3.11-1.14.46-.13.92-.26,1.38-.4,9.34-3.79,18.9-7.13,27.99-11.45,48.99-23.33,88.85-57.48,119.37-102.32,6.99-10.27,12.68-21.43,18.96-32.18,2.12-4.22,4.37-8.37,6.33-12.66,16.34-35.64,24.81-73.17,26.5-112.25.79-18.34.18-36.72-3.07-54.79-2.77-15.39-6.87-30.55-10.38-45.81-.23-.96-.4-1.94-.71-2.88-8.19-25.1-19.08-48.98-33.88-70.86-7.75-11.46-16.72-22.09-25.14-33.09-.39-.62-.7-1.31-1.18-1.85-25.75-29.4-56.22-52.72-91.07-70.28C398.41,12.37,357.62,2.09,314.71.27c-20.73-.88-41.4.34-61.84,3.86-34.13,5.89-66.56,16.89-96.63,34.2-10.98,6.32-21.26,13.86-31.87,20.84-4.26,3.17-8.7,6.14-12.76,9.55-35.57,29.93-63.61,65.69-82.3,108.35-6.02,13.75-10.28,28.28-15.34,42.45-1.6,6.32-3.6,12.58-4.72,18.98-2.11,12.06-4.52,24.15-5.31,36.32-.93,14.39-.71,28.9-.21,43.33.84,24.15,5.55,47.7,12.7,70.74,12.21,39.33,31.78,74.66,58.64,105.86,6.8,7.89,14.53,14.98,21.83,22.43,1.17,1.28,2.25,2.65,3.53,3.81,23.63,21.46,49.87,38.98,79.01,52.08,36.96,16.63,75.71,25.8,116.23,26.15,16.9.14,33.89-1.16,50.7-3.02,17.84-1.97,35.28-6.39,52.2-12.56Z" style="fill: #fefefe; stroke-width: 0px;"/>
  <path d="M121.07,61.06c10.6-6.98,20.89-14.52,31.87-20.84,30.06-17.31,62.5-28.32,96.63-34.2,20.44-3.53,41.11-4.74,61.84-3.86,42.91,1.81,83.7,12.09,122.09,31.44,34.85,17.56,65.32,40.88,91.07,70.28.48.54.79,1.23,1.18,1.85.7,2.09,1.16,4.29,2.13,6.24,3.83,7.66,8.25,15.06,11.61,22.91,2.96,6.91,4.8,14.3,7.13,21.47-.65-.79-1.5-1.5-1.92-2.4-11.53-25.34-28.2-47.1-47.14-67.22-14.92-15.85-32.02-29.09-50.43-40.64-3.14-1.97-6.59-3.43-9.89-5.13-.25,0-.49,0-.74,0l-6-3.74c-.75-.25-1.49-.51-2.24-.76-.5-.5-1.01-.99-1.51-1.49-.49,0-.99,0-1.48-.01-.5-.49-1.01-.99-1.51-1.48-1.38-.5-2.77-.97-4.13-1.52-6.12-2.48-12.22-4.99-18.33-7.49-1.26-.74-2.51-1.49-3.77-2.23-3.74-1.01-7.48-2.01-11.21-3.02-.51-.49-1.02-.98-1.53-1.47-1.24-.01-2.48-.02-3.72-.03-.51-.49-1.02-.98-1.53-1.47-2.99-.51-5.97-1.02-8.96-1.53-.23-.41-.4-1.13-.71-1.19-6.51-1.39-13.03-2.7-19.54-4.03h-1.49c-.75-.02-1.51-.02-2.26-.03-.49,0-.97,0-1.46,0-.76-.49-1.52-.97-2.28-1.46-.75,0-1.49,0-2.24-.01-.75-.24-1.5-.49-2.26-.73-1.25,0-2.49-.02-3.74-.02-.75-.24-1.5-.49-2.26-.73-1.25,0-2.49-.02-3.74-.02-1.25-.24-2.5-.48-3.75-.73-5.48-.01-10.96-.03-16.45-.04-2-3.09-5.07-.71-7.53-1.46-6.49.25-12.98.51-19.47.76-.75.24-1.5.48-2.26.72-2.74.01-5.49.02-8.23.03-.5.24-1.01.48-1.51.72-1.25,0-2.49.02-3.74.03-.5.24-1.01.48-1.51.72-1.49,0-2.99.02-4.48.03-.5.24-1.01.48-1.51.72-1,0-1.99.02-2.99.02-.5.24-1,.48-1.51.73-2.24.26-4.49.51-6.73.77-.76.49-1.52.97-2.28,1.46-1.49.25-2.98.5-4.46.75-.5,0-1,.01-1.51.02-.5,0-1,.01-1.49.02-.62.07-1.27.02-1.85.21-17.56,5.76-35.25,11.13-52.59,17.5-7.88,2.89-15.2,7.48-22.47,11.81-18.38,10.93-36.36,22.42-51.15,38.19-5.54,5.91-11.33,11.58-16.77,17.58-12.93,14.27-23.64,30.02-31.83,47.53-4.47,9.54-5.67,19.45-5.43,29.75.05,2.13,1.05,2.78,2.85,1.85,7.08-3.67,14.22-7.24,21.13-11.21,4.92-2.82,9.5-6.22,14.24-9.36-2.38,3.7-4.75,7.39-7.13,11.09.31.24.62.48.93.71.67-.24,1.4-.37,1.99-.74,6.86-4.23,13.6-8.65,20.58-12.68,4.36-2.52,9.06-4.45,13.61-6.64,0,.25,0,.51,0,.76-1.92,1.8-3.8,3.63-5.76,5.38-6.83,6.11-13.85,12.01-20.45,18.34-3.61,3.46-6.53,7.64-9.76,11.49-1.01.38-2.16.57-2.99,1.19-2.68,2.01-5.27,4.13-7.82,6.3-3.4,2.89-7.49,5.34-9.94,8.9-9.09,13.24-21.55,23.24-32.37,34.81-1.88,2.01-3.29,1.51-4.57-.89-3.55-6.68-3.74-13.56-2.37-20.89,3.73-20.04,9.13-39.68,18.65-57.63,7.77-14.66,17.42-28.38,26.87-42.08,5.12-7.43,11.31-14.18,17.47-20.82,7.12-7.65,14.75-14.82,22.13-22.23,2.92-2.93,5.77-5.95,8.65-8.92Z" style="fill: #fdd753; stroke-width: 0px;"/>
  <path d="M93.61,519.1c-7.3-7.46-15.03-14.54-21.83-22.44-26.86-31.19-46.43-66.52-58.64-105.86-7.15-23.04-11.86-46.6-12.7-70.74-.5-14.43-.72-28.94.21-43.33.79-12.17,3.2-24.27,5.31-36.32,1.12-6.41,3.12-12.66,4.72-18.98.57,1.04,1.59,2.06,1.63,3.12.06,2.08-.33,4.19-.69,6.26-2.45,14.12-3.58,28.34-2.88,42.66.32,6.55.99,13.05,4.57,18.94,3.46,5.68,8.92,6.26,12.94,1.02.75-.98,1.37-2.13,2.3-2.91,13.13-11.11,19.8-26.94,29.58-40.49,2.25-.75,4.5-1.5,6.75-2.25-4.51,11.9-8.97,23.82-13.55,35.7-1.24,3.21-.41,4.75,3.06,4.76-2.6,9.43-5.09,18.88-7.83,28.27-2.22,7.63-2.17,15.75-6.72,22.93-6.88,10.85-11.68,22.8-13.63,35.56-1.01,6.64-1.96,13.76-.65,20.19,2.14,10.52,5.52,20.91,9.54,30.88,4.03,10,9.41,19.46,14.35,29.08,9.61,18.76,22.65,35.1,37.37,49.94,11,11.09,23.14,21.07,35,31.27,2.18,1.87,5.46,2.45,8.24,3.63.75,1.5,1.5,2.99,2.25,4.49-1.37-.57-2.91-.89-4.08-1.74-8.9-6.46-17.67-13.11-26.63-19.5-2.41-1.72-5.31-2.77-7.98-4.12Z" style="fill: #f7bd43; stroke-width: 0px;"/>
  <path d="M58.12,250c-9.78,13.55-16.45,29.38-29.58,40.49-.93.78-1.54,1.93-2.3,2.91-4.02,5.24-9.48,4.66-12.94-1.02-3.58-5.89-4.25-12.39-4.57-18.94-.7-14.31.42-28.54,2.88-42.66.36-2.07.75-4.18.69-6.26-.03-1.05-1.05-2.08-1.63-3.12,5.06-14.17,9.32-28.7,15.34-42.45,18.69-42.66,46.74-78.42,82.3-108.35,4.06-3.42,8.5-6.38,12.76-9.55-2.88,2.98-5.73,5.99-8.65,8.92-7.38,7.41-15.02,14.58-22.13,22.23-6.17,6.63-12.35,13.39-17.47,20.82-9.45,13.7-19.1,27.42-26.87,42.08-9.52,17.95-14.92,37.59-18.65,57.63-1.37,7.33-1.18,14.21,2.37,20.89,1.28,2.4,2.69,2.91,4.57.89,10.81-11.57,23.28-21.57,32.37-34.81,2.45-3.56,6.54-6.01,9.94-8.9,2.55-2.17,5.15-4.29,7.82-6.3.83-.62,1.98-.81,2.99-1.19.5,3.25,1,6.5,1.5,9.74-.5,1.12-.79,2.41-1.54,3.32-6.28,7.65-12.71,15.17-18.95,22.85-2.57,3.16-5.87,6.3-6.91,9.99-1.87,6.71-2.3,13.83-3.33,20.77Z" style="fill: #f9c94d; stroke-width: 0px;"/>
  <path d="M585.48,212.55c3.51,15.26,7.61,30.42,10.38,45.81,3.25,18.07,3.87,36.44,3.07,54.79-1.69,39.08-10.16,76.61-26.5,112.25-1.97,4.29-4.22,8.44-6.33,12.66-1.25,1.27-2.74,2.37-3.7,3.83-3.8,5.82-7.32,11.83-11.19,17.62-2.02,3.02-4.53,5.7-6.82,8.53,2.02-3.9,4.16-7.75,6.02-11.73.79-1.69,1-3.66,1.47-5.5.37-1.27.54-2.64,1.13-3.8,3.72-7.31,8.13-14.33,11.18-21.9,6.2-15.4,12.02-30.98,17.35-46.7,3.26-9.61,5.75-19.53,7.81-29.48,1.85-8.94,2.77-18.08,3.88-27.16,1.32-10.78,3.3-21.59.6-32.44-2.21-8.87-4.4-17.75-6.88-26.54-1.11-3.92-4.74-5.91-7.59-5.11-5.41,1.53-10.91,2.73-16.29,4.34-5.32,1.59-10.52,3.58-15.82,5.25-2.87.9-5.88,1.37-8.76,2.28-1.63.51-3.53,1.15-4.56,2.36-3.2,3.78-6.05,7.86-9.03,11.82-2.25.25-4.49.5-6.74.75-1-5.24-2.01-10.49-3.01-15.73,0-1,0-2,0-3,4.72-1.22,8.73-3.54,11.06-7.96,1.73-3.29,3.18-6.74,4.6-10.19,3.58-8.68,8.51-15.8,18.32-18.49,3.06-.84,6.59-2.61,8.35-5.07,5.14-7.2,5.98-15.7,5.82-24.43-.07-3.96-2.09-8.09.42-11.96,1.4-2.15,2.57-2.99,4.79-.44,5.77,6.64,10.12,14.09,13.95,21.93.64,1.31,1.99,2.29,3.01,3.42Z" style="fill: #f7bd43; stroke-width: 0px;"/>
  <path d="M585.48,212.55c-1.02-1.13-2.36-2.1-3.01-3.42-3.83-7.84-8.18-15.3-13.95-21.93-2.22-2.56-3.39-1.72-4.79.44-2.51,3.88-.49,8-.42,11.96.16,8.72-.68,17.22-5.82,24.43-1.76,2.46-5.29,4.23-8.35,5.07-9.81,2.69-14.74,9.81-18.32,18.49-1.42,3.44-2.87,6.89-4.6,10.19-2.33,4.43-6.34,6.75-11.06,7.96-.75-1.25-1.5-2.5-2.26-3.75,1.49-5.56,2.97-11.12,4.5-16.82-4.87-.45-9.36-.86-14.1-1.3.32-1.26.54-2.08.74-2.91,1.47-6.22,2.93-12.44,4.39-18.66,7.94-2.38,15.88-4.75,23.8-7.16.43-.13.72-.68,1.14-.95,3.62-2.33,7.3-4.58,10.87-6.99,3.1-2.09,6.54-4.4,6.7-8.42.3-7.62.43-15.31-.32-22.88-.65-6.59-2.62-13.05-4-19.57-2.33-7.18-4.18-14.56-7.13-21.47-3.36-7.85-7.78-15.25-11.61-22.91-.97-1.95-1.43-4.15-2.13-6.24,8.42,11,17.39,21.63,25.14,33.09,14.8,21.88,25.69,45.76,33.88,70.86.31.94.48,1.92.71,2.88Z" style="fill: #f9c94d; stroke-width: 0px;"/>
  <path d="M551.87,450.8c-.47,1.84-.68,3.81-1.47,5.5-1.86,3.98-3.99,7.83-6.02,11.73-.42,1.02-.65,2.19-1.3,3.05-3.58,4.74-7.37,9.31-10.87,14.1-9.86,13.5-21.8,25.08-33.76,36.63-12.37,11.94-26,22.27-40.45,31.58-17.9,11.53-36.66,21.26-56.67,28.59-.68.25-1.05,1.34-1.56,2.03-.46.13-.92.26-1.38.4-1.04.38-2.07.76-3.11,1.14-16.92,6.17-34.36,10.59-52.2,12.56-16.81,1.86-33.81,3.17-50.7,3.02-40.53-.35-79.27-9.52-116.23-26.15-29.14-13.11-55.38-30.62-79.01-52.08-1.28-1.16-2.36-2.54-3.53-3.81,2.67,1.36,5.57,2.4,7.98,4.12,8.95,6.39,17.72,13.04,26.63,19.5,1.17.85,2.71,1.17,4.08,1.74,2.22,1.33,4.43,2.65,6.65,3.97,8.23,4.9,16.25,10.2,24.73,14.63,22.03,11.5,45.08,20.32,69.3,26.19,17.56,4.25,35.39,6.56,53.31,7.43,13.61.66,27.42.06,40.98-1.46,15.34-1.72,30.77-4.08,45.66-8.04,14.83-3.94,29.23-9.76,43.49-15.56,17.36-7.06,33.44-16.57,48.41-27.88.71-.54,1.1-1.51,1.64-2.27,1.5-1,3-2,4.5-3,.5-.5,1-1,1.5-1.5,1.28-.44,2.82-.56,3.81-1.36,6.53-5.32,13.21-10.5,19.31-16.29,7.29-6.92,14.13-14.31,21.01-21.65,12-12.79,22.33-26.86,31.62-41.71,1.12-1.78,2.44-3.44,3.67-5.15Z" style="fill: #f8c233; stroke-width: 0px;"/>
  <path d="M399.77,584.02c.51-.7.88-1.79,1.56-2.03,20.01-7.32,38.77-17.06,56.67-28.59,14.46-9.31,28.08-19.64,40.45-31.58,11.96-11.55,23.9-23.12,33.76-36.63,3.5-4.79,7.3-9.36,10.87-14.1.65-.85.88-2.02,1.3-3.05,2.29-2.83,4.81-5.52,6.82-8.53,3.86-5.78,7.38-11.79,11.19-17.62.95-1.46,2.45-2.56,3.7-3.83-6.29,10.75-11.97,21.91-18.96,32.18-30.52,44.84-70.39,78.99-119.37,102.32-9.09,4.33-18.64,7.66-27.99,11.45Z" style="fill: #f9ca36; stroke-width: 0px;"/>
  <path d="M395.28,585.55c1.04-.38,2.07-.76,3.11-1.14-1.04.38-2.07.76-3.11,1.14Z" style="fill: #f9ca36; stroke-width: 0px;"/>
  <path d="M270.92,5.77c2.74-.01,5.49-.02,8.23-.03.75-.24,1.5-.48,2.26-.72,6.49-.25,12.98-.51,19.47-.76,1.99,3.17,5.07.72,7.53,1.46,5.48.01,10.96.03,16.45.04.85,2.34,2.27,1.71,3.75.73,1.25,0,2.49.02,3.74.02.75.24,1.5.49,2.26.73,1.25,0,2.49.02,3.74.02.75.24,1.5.49,2.26.73.75,0,1.49,0,2.24.01.76.49,1.52.97,2.28,1.46.49,0,.97,0,1.46,0,.75,0,1.51,0,2.26.01.5,0,1,0,1.49.01.22.42.38,1.14.68,1.21,6.51,1.38,13.04,2.69,19.57,4.01,2.99.51,5.97,1.02,8.96,1.53.51.49,1.02.98,1.53,1.47,1.24.01,2.48.02,3.72.03.51.49,1.02.98,1.53,1.47,3.74,1.01,7.48,2.01,11.21,3.02,1.26.74,2.51,1.49,3.77,2.23,6.11,2.5,12.21,5.01,18.33,7.49,1.36.55,2.75,1.01,4.13,1.52.5.49,1.01.99,1.51,1.48.49,0,.99,0,1.48.01.5.5,1.01.99,1.51,1.49.75.25,1.49.51,2.24.76,2,1.25,4,2.49,6,3.74.25,0,.49,0,.74,0,.9.95,1.67,2.08,2.73,2.82,3.77,2.63,7.84,4.86,11.42,7.7,10.29,8.18,21.07,15.91,30.38,25.1,7.67,7.57,13.72,16.83,20.13,25.61,7.17,9.81,12.52,20.58,15.64,32.41,1.24,4.7,2.08,9.54-.83,13.6-7.29,10.19-14.97,20.09-20.04,31.67-2.04,4.67-4.16,9.3-6.25,13.94-2.77.64-5.6,1.08-8.28,1.98-2.93.98-6.33,1.74-8.44,3.73-5.95,5.63-11.29,11.9-16.99,17.8-1.97,2.03-4.03,4.57-6.53,5.36-6.57,2.07-13.38,3.34-20.12,4.84-2.73.61-5.79,1.06-6.2,4.36-.78,6.26-1.1,12.58-1.61,18.87-1.75,6.99-3.5,13.98-5.25,20.97-.74,1.51-1.48,3.01-2.22,4.52-.28-1.04-.94-2.15-.76-3.1.54-2.86,1.41-5.66,2.15-8.49-.1-.17-.06-.3.11-.4.22-.57.44-1.14.66-1.71-.08-.22-.03-.4.14-.55l.58-1.84c-.11-.17-.07-.3.1-.39.21-.63.43-1.27.64-1.9,3.62-15.71,4.65-31.56,2.51-47.58-.27-3.75-.54-7.49-.81-11.24.42.23,1.11.38,1.21.71.99,3.28,3.13,3.52,5.84,2.29,1.8-.81,3.72-1.47,5.34-2.56,5.88-3.94,11.58-8.15,17.49-12.05,6.1-4.03,12.41-7.72,18.5-11.76,2.11-1.4,3.58-3.84,6.75-2.25.58.29,2.06-.64,2.81-1.35,6.23-5.87,12.37-11.84,18.57-17.75,4.06-3.86,8.24-7.6,12.21-11.55,1.59-1.58,3.56-3.44,3.91-5.42.47-2.68.06-5.79-.88-8.39-4.8-13.34-11.81-25.41-20.94-36.33-9.62-11.5-20.06-22.11-32.05-31.1-5.22-3.92-10.89-7.26-16.33-10.88-6.6-4.39-12.9-9.3-19.82-13.09-14.88-8.15-30.66-14.27-46.91-19.22-19.92-6.06-40.35-9.41-61.01-10.9-10.95-.79-22.06-.11-33.04.67-10.61.75-21.25,1.93-31.7,3.86-29.24,5.4-55.68,18.07-80.9,33.2-13.32,7.99-25.13,18.33-35.71,29.77-3.77,4.07-6.47,9.29-8.95,14.34-1.5,3.05.29,4.51,3.82,4.08,2.83-.34,5.68-.46,8.52-.69,5.55-.46,11.13-.76,16.66-1.45,6.75-.84,13.44-2.53,20.2-2.92,8.47-.49,16.65,1.57,24.86,3.91,10.79,3.08,17.9,9.78,22.98,19.28,7.75,14.5,15.15,29.2,23.35,43.44,6.69,11.62,14.09,22.87,21.63,33.97,8.22,12.11,16.92,23.9,25.51,35.75,2.58,3.56,6.58,4.24,10.84,3.47,7.04-1.26,14.19-1.98,21.3-2.81,2.03-.24,4.18.27,6.17-.13,5.53-1.11,5.52-.99,5.86,4.55.51,8.27,1.43,16.51,2.18,24.76-2.96.24-5.97.25-8.88.78-8.1,1.48-15.88,3.87-24.38,4.16-6.75.23-10.12-2.62-13.42-6.96-2.55-3.36-4.56-7.12-6.93-10.62-13.83-20.51-27.94-40.83-41.46-61.54-12.64-19.37-24.66-39.14-36.98-58.72-1.84-2.93-3.33-6.31-5.82-8.54-6.74-6.03-15-8.87-24-8.29-6.87.45-13.72,1.73-20.51,2.96-10.61,1.93-20.39,6.06-29.89,11.15-7.6,4.07-14.8,9.31-24.02,9.52-4.52.1-9.04.71-14.61,1.17,1.41-4.29,2.61-7.61,3.61-11,3.25-11.09,9.14-20.64,17.01-29,17.75-18.85,37.12-35.85,59.84-48.39,13.32-7.35,27.32-13.56,41.34-19.5,8.18-3.46,17.02-5.35,25.53-8.04.91-.29,1.62-1.23,2.42-1.88.5,0,1-.01,1.49-.02.5,0,1-.01,1.51-.02,1.49-.25,2.98-.5,4.46-.75.76-.49,1.52-.97,2.28-1.46,2.24-.26,4.49-.51,6.73-.77.5-.24,1-.48,1.51-.73,1,0,1.99-.02,2.99-.02.5-.24,1.01-.48,1.51-.72,1.49,0,2.99-.02,4.48-.03.5-.24,1.01-.48,1.51-.72,1.25,0,2.49-.02,3.74-.03.5-.24,1.01-.48,1.51-.72Z" style="fill: #fcec71; stroke-width: 0px;"/>
  <path d="M123.3,147.35c-4.55,2.19-9.25,4.12-13.61,6.64-6.97,4.03-13.72,8.45-20.58,12.68-.59.36-1.32.5-1.99.74-.31-.24-.62-.48-.93-.71,2.38-3.7,4.75-7.39,7.13-11.09.91-1.02,1.71-2.16,2.74-3.04,6.32-5.41,12.7-10.74,19.03-16.14.83-.71,1.45-1.67,2.16-2.52-.19-.2-.37-.39-.56-.59-2.89.88-5.77,1.76-9.6,2.93.97-1.28,1.23-1.85,1.67-2.16,4.54-3.21,8.88-6.81,13.73-9.49,18.76-10.4,38.12-18.86,60.41-16.19,7.59.91,13.62,4.56,17.71,10.93,5.38,8.37,10.24,17.07,15.65,25.41,12.11,18.67,24.32,37.28,36.68,55.79,8.91,13.34,18.03,26.54,27.24,39.67,5.41,7.72,11.12,15.24,16.85,22.73.79,1.03,2.52,2.04,3.72,1.94,7.32-.65,14.67-.61,21.92-2.58,5.24-1.42,10.92-1.26,16.4-1.8.25.5.51,1,.76,1.5.34,1.43.59,2.89,1.03,4.29,1.36,4.33,2.8,8.63,4.21,12.95-9.75,1.63-19.5,3.28-29.25,4.89-4.02.66-8.05,1.27-12.09,1.86-3.39.5-5.78-1.23-7.65-3.75-6.42-8.68-12.92-17.31-19.13-26.14-15.58-22.15-31.01-44.41-46.53-66.6-.31-.44-1-.6-1.51-.9-.25-.75-.5-1.5-.75-2.25-.24-.5-.48-1-.72-1.5-2.25-9.68-7.34-17.86-13.5-25.47-2.35-2.91-4.18-6.58-7.14-8.6-7.85-5.34-13.97-12.04-19.22-19.85-1.97-2.94-4.93-5.72-8.08-7.27-9.32-4.58-18.62-2.18-27.02,2.5-8.32,4.63-16.06,10.32-23.92,15.75-2.04,1.41-3.54,3.62-5.28,5.46Z" style="fill: #fbe859; stroke-width: 0px;"/>
  <path d="M490.43,193.82c2.09-4.65,4.21-9.28,6.25-13.94,5.07-11.59,12.75-21.48,20.04-31.67,2.9-4.06,2.06-8.9.83-13.6-3.11-11.84-8.47-22.6-15.64-32.41-6.41-8.78-12.46-18.04-20.13-25.61-9.32-9.19-20.09-16.93-30.38-25.1-3.58-2.85-7.65-5.08-11.42-7.7-1.05-.73-1.83-1.87-2.73-2.82,3.31,1.7,6.76,3.16,9.89,5.13,18.4,11.56,35.51,24.79,50.43,40.64,18.94,20.12,35.6,41.88,47.14,67.22.41.9,1.27,1.6,1.92,2.4,1.38,6.52,3.35,12.98,4,19.57.75,7.57.62,15.26.32,22.88-.16,4.01-3.6,6.33-6.7,8.42-3.57,2.41-7.25,4.65-10.87,6.99-.41.27-.7.81-1.14.95-7.93,2.41-15.87,4.78-23.8,7.16-5,.24-9.99.49-14.99.73.75-3.24,1.67-6.45,2.19-9.73.37-2.32-.25-4.85.39-7.05,1.09-3.77-.08-6.53-2.6-9.11-1.04-1.06-1.99-2.22-2.98-3.33Z" style="fill: #fad369; stroke-width: 0px;"/>
  <path d="M339.09,260.49c-5.48.54-11.16.37-16.4,1.8-7.25,1.97-14.6,1.93-21.92,2.58-1.2.11-2.93-.91-3.72-1.94-5.73-7.49-11.44-15.01-16.85-22.73-9.21-13.13-18.33-26.33-27.24-39.67-12.36-18.51-24.58-37.12-36.68-55.79-5.41-8.34-10.27-17.05-15.65-25.41-4.1-6.37-10.12-10.02-17.71-10.93-22.3-2.68-41.66,5.79-60.41,16.19-4.84,2.68-9.18,6.28-13.73,9.49-.44.31-.7.88-1.67,2.16,3.83-1.17,6.72-2.05,9.6-2.93.19.2.37.39.56.59-.71.85-1.33,1.81-2.16,2.52-6.32,5.4-12.71,10.73-19.03,16.14-1.03.88-1.83,2.02-2.74,3.04-4.73,3.14-9.32,6.53-14.24,9.36-6.91,3.97-14.05,7.54-21.13,11.21-1.8.93-2.8.28-2.85-1.85-.24-10.29.96-20.21,5.43-29.75,8.2-17.5,18.9-33.25,31.83-47.53,5.43-6,11.23-11.67,16.77-17.58,14.79-15.77,32.78-27.26,51.15-38.19,7.27-4.32,14.59-8.91,22.47-11.81,17.33-6.37,35.03-11.74,52.59-17.5.58-.19,1.23-.15,1.85-.21-.8.64-1.5,1.59-2.42,1.88-8.51,2.69-17.35,4.58-25.53,8.04-14.03,5.94-28.03,12.15-41.34,19.5-22.72,12.55-42.09,29.55-59.84,48.39-7.87,8.36-13.76,17.9-17.01,29-.99,3.39-2.19,6.71-3.61,11,5.57-.46,10.08-1.07,14.61-1.17,9.22-.21,16.43-5.45,24.02-9.52,9.5-5.09,19.28-9.23,29.89-11.15,6.8-1.24,13.64-2.52,20.51-2.96,9-.58,17.26,2.26,24,8.29,2.49,2.23,3.98,5.62,5.82,8.54,12.32,19.58,24.33,39.36,36.98,58.72,13.52,20.71,27.63,41.03,41.46,61.54,2.36,3.51,4.38,7.27,6.93,10.62,3.3,4.35,6.68,7.19,13.42,6.96,8.49-.29,16.28-2.68,24.38-4.16,2.91-.53,5.92-.53,8.88-.78.25,1.99.5,3.99.75,5.98Z" style="fill: #fce468; stroke-width: 0px;"/>
  <path d="M88.84,193.07c-.5-3.25-1-6.5-1.5-9.74,3.23-3.85,6.15-8.03,9.76-11.49,6.6-6.33,13.62-12.24,20.45-18.34,1.96-1.75,3.84-3.59,5.76-5.38,2.48-.74,5.14-1.11,7.39-2.28,8.87-4.62,17.91-8.69,27.92-10.09,6.84-.96,9.92-.64,12.63,4.92,2.45,5.04,6.12,5.96,11.4,4.77,2.43-.55,5.85-2.02,8.09,1.2-3.61.75-7.42,1.01-10.8,2.34-6.4,2.53-12.01,6.34-15.36,12.71-.52.74-1.03,1.48-1.55,2.22-.94.36-2.1.48-2.76,1.12-1.83,1.78-3.45,3.79-5.74,6.37-2.43-3.65-4.46-6.7-6.48-9.75-1.28-1.94-2.29-4.69-5.26-3.71-7.61,2.51-16.02,4.01-22.43,8.38-7.89,5.37-14.09,13.24-21.02,20.03-1.19.82-2.37,1.68-3.59,2.46-2.28,1.45-4.6,2.86-6.9,4.29Z" style="fill: #fbde42; stroke-width: 0px;"/>
  <path d="M190.73,146.61c-2.24-3.22-5.66-1.74-8.09-1.2-5.28,1.19-8.95.27-11.4-4.77-2.71-5.56-5.78-5.88-12.63-4.92-10,1.4-19.05,5.48-27.92,10.09-2.25,1.17-4.92,1.54-7.39,2.28,0-.25,0-.51,0-.76,1.75-1.84,3.24-4.04,5.28-5.46,7.85-5.44,15.6-11.12,23.92-15.75,8.41-4.68,17.7-7.08,27.02-2.5,3.15,1.55,6.1,4.33,8.08,7.27,5.25,7.81,11.38,14.51,19.22,19.85,2.96,2.01,4.79,5.68,7.14,8.6-1.9-1.77-3.73-3.64-5.72-5.3-4.22-3.54-8.75-6.46-14.51-6.69-.5-.24-1-.49-1.5-.73-.5,0-1,0-1.5,0Z" style="fill: #fbe54e; stroke-width: 0px;"/>
  <path d="M370.58,14.72c-6.53-1.32-13.06-2.63-19.57-4.01-.3-.06-.46-.79-.68-1.21,6.52,1.33,13.04,2.64,19.54,4.03.31.07.48.78.71,1.19Z" style="fill: #fce468; stroke-width: 0px;"/>
  <path d="M308.41,5.72c-2.46-.74-5.54,1.71-7.53-1.46,2.46.75,5.52-1.63,7.53,1.46Z" style="fill: #fce468; stroke-width: 0px;"/>
  <path d="M436.51,40.95c-2-1.25-4-2.49-6-3.74,2,1.25,4,2.49,6,3.74Z" style="fill: #fad369; stroke-width: 0px;"/>
  <path d="M328.61,6.49c-1.49.98-2.91,1.61-3.75-.73,1.25.24,2.5.48,3.75.73Z" style="fill: #fce468; stroke-width: 0px;"/>
  <path d="M401.3,24.47c-1.26-.74-2.51-1.49-3.77-2.23,1.26.74,2.51,1.49,3.77,2.23Z" style="fill: #fce468; stroke-width: 0px;"/>
  <path d="M348.83,9.49c-.75,0-1.51,0-2.26-.01.75,0,1.51,0,2.26.01Z" style="fill: #fce468; stroke-width: 0px;"/>
  <path d="M345.12,9.47c-.76-.49-1.52-.97-2.28-1.46.76.49,1.52.97,2.28,1.46Z" style="fill: #fce468; stroke-width: 0px;"/>
  <path d="M340.59,7.99c-.75-.24-1.5-.49-2.26-.73.75.24,1.5.49,2.26.73Z" style="fill: #fce468; stroke-width: 0px;"/>
  <path d="M334.6,7.24c-.75-.24-1.5-.49-2.26-.73.75.24,1.5.49,2.26.73Z" style="fill: #fce468; stroke-width: 0px;"/>
  <path d="M281.4,5.01c-.75.24-1.5.48-2.26.72.75-.24,1.5-.48,2.26-.72Z" style="fill: #fce468; stroke-width: 0px;"/>
  <path d="M246.94,9.51c-.76.49-1.52.98-2.28,1.46.76-.49,1.52-.98,2.28-1.46Z" style="fill: #fce468; stroke-width: 0px;"/>
  <path d="M381.07,17.72c-.51-.49-1.02-.98-1.53-1.47.51.49,1.02.98,1.53,1.47Z" style="fill: #fce468; stroke-width: 0px;"/>
  <path d="M386.32,19.22c-.51-.49-1.02-.98-1.53-1.47.51.49,1.02.98,1.53,1.47Z" style="fill: #fce468; stroke-width: 0px;"/>
  <path d="M270.92,5.77c-.5.24-1.01.48-1.51.72.5-.24,1.01-.48,1.51-.72Z" style="fill: #fce468; stroke-width: 0px;"/>
  <path d="M265.67,6.52c-.5.24-1.01.48-1.51.72.5-.24,1.01-.48,1.51-.72Z" style="fill: #fce468; stroke-width: 0px;"/>
  <path d="M259.68,7.27c-.5.24-1.01.48-1.51.72.5-.24,1.01-.48,1.51-.72Z" style="fill: #fce468; stroke-width: 0px;"/>
  <path d="M255.18,8.01c-.5.24-1,.48-1.51.73.5-.24,1-.48,1.51-.73Z" style="fill: #fce468; stroke-width: 0px;"/>
  <path d="M240.2,11.72c-.5,0-1,.01-1.51.02.5,0,1-.01,1.51-.02Z" style="fill: #fce468; stroke-width: 0px;"/>
  <path d="M425.27,34.96c-.5-.49-1.01-.99-1.51-1.48.5.49,1.01.99,1.51,1.48Z" style="fill: #fad369; stroke-width: 0px;"/>
  <path d="M428.27,36.46c-.5-.5-1.01-.99-1.51-1.49.5.5,1.01.99,1.51,1.49Z" style="fill: #fad369; stroke-width: 0px;"/>
  <path d="M130.04,539.97c-2.77-1.18-6.06-1.76-8.24-3.63-11.86-10.2-24-20.18-35-31.27-14.72-14.84-27.76-31.18-37.37-49.94-4.93-9.62-10.31-19.08-14.35-29.08-4.02-9.97-7.4-20.36-9.54-30.88-1.31-6.44-.36-13.55.65-20.19,1.95-12.76,6.75-24.72,13.63-35.56,4.55-7.18,4.5-15.3,6.72-22.93,2.73-9.39,5.23-18.84,7.83-28.27,1.19-1.05,2.36-2.12,3.58-3.13,3.29-2.72,6.6-5.4,9.91-8.1.13.9.25,1.8.41,2.92.69-.36,1.15-.43,1.3-.69,4.7-8.1,13.05-12.05,20-17.57.84-.67,2.35-1.08,3.36-.83,3.48.86,6.93,1.92,10.3,3.16,9.1,3.33,18.18,6.73,27.21,10.23,4.82,1.87,9.9,3.43,14.19,6.17,6.15,3.92,11.65,8.86,17.52,13.23,1.33.99,3.07,1.42,4.62,2.11,3.22,2.38,6.38,4.85,9.68,7.11,1.89,1.3,4.03,2.24,6.05,3.35.4.58.71,1.25,1.2,1.71,3.87,3.63,8,7.01,11.61,10.87,4.5,4.79,8.47,10.07,12.87,14.95,4.04,4.48,8.32,8.74,12.57,13.02,2.85,2.88,5.37,6.88,8.86,8.18,6.64,2.47,11.73,6.89,17.32,10.75,3.66,2.53,7.38,5.06,11.34,7.04,3.06,1.53,6.53,2.26,9.84,3.27,6.62,2.03,13.2,4.27,19.92,5.92,3.93.96,8.09.97,12.15,1.36,5.92.57,11.84,1.11,17.77,1.62,11.92,1.02,23.84,1.98,35.75,3.1.68.06,1.23,1.36,1.85,2.09-2.73.59-5.46,1.18-8.19,1.77-1-.57-1.97-1.58-2.99-1.63-7.14-.39-14.29-.48-21.43-.84-13.89-.7-27.78-1.38-41.65-2.33-4.67-.32-9.54-.73-13.87-2.33-8.02-2.96-15.79-6.67-23.5-10.39-4.55-2.19-9.04-4.67-13.16-7.59-10.08-7.16-16.48-17.86-24.96-26.58-1.89-1.94-4.36-3.51-5.7-5.77-2.99-5.05-7.36-8.45-12.24-11.22-8.63-4.89-17.4-9.54-26.18-14.15-1.49-.78-3.33-.88-5-1.31-4.72-1.21-10.29-.34-13.34-5.67-.49-.85-1.76-1.42-2.79-1.77-6.2-2.06-12.38-4.19-18.66-5.98-10.46-2.99-20.96-5.84-31.5-8.51-1.49-.38-3.74.14-4.93,1.11-2.98,2.43-5.76,5.2-8.25,8.14-2.66,3.15-5.39,6.41-7.22,10.05-3.06,6.09-4.99,12.47-5.53,19.54-.43,5.57-3.88,10.85-5.3,16.43-3.12,12.25-5.72,24.64-8.72,36.92-.51,2.09-1.77,4.09-3.04,5.89-1.93,2.73-4.44,5.08-6.16,7.93-1.07,1.76-1.47,4.12-1.57,6.23-.15,3.21.24,6.44.38,9.66.09,1.95-.18,3.98.27,5.83,5.17,21.33,15.07,40.59,27.16,58.63,7.03,10.47,15.45,20.03,23.44,29.83,10.52,12.91,23.41,23.3,36.32,33.66,1.57,1.26,2.86,2.89,4.28,4.35h-1.51Z" style="fill: #f6b32f; stroke-width: 0px;"/>
  <path d="M67.86,276.98c-3.3,2.7-6.62,5.39-9.91,8.1-1.22,1.01-2.39,2.09-3.58,3.13-3.47-.02-4.3-1.55-3.06-4.76,4.58-11.88,9.04-23.8,13.55-35.7,5.45-7.08,10.65-14.36,16.43-21.16,4.3-5.06,9.09-9.78,14.14-14.1,3.45-2.94,7.76-4.85,11.61-7.35,3.06-1.98,5.49-1.95,8.1,1.02,7.57,8.64,17.22,14.57,27.21,19.97,1.27.69,2.78.94,4.18,1.4,0,2.5.02,5,.02,7.5.23,1.75.46,3.49.69,5.24.25.76.49,1.52.74,2.27.24.25.48.5.71.75.04.47.08.94.11,1.41-.27,1.02-.55,2.04-.82,3.05.26,2.25.52,4.51.78,6.76,0,.5.02.99.03,1.49,0,.5-.02,1.01-.02,1.51-2.65-1.7-5.18-3.65-7.98-5.06-4.33-2.18-8.89-3.89-13.27-5.98-8.76-4.17-17.44-8.51-26.22-12.63-1.18-.55-3.08-.82-4.09-.24-4.72,2.73-9.39,5.6-13.77,8.84-1.85,1.37-3.39,3.6-4.28,5.77-3.93,9.53-7.57,19.17-11.31,28.78Z" style="fill: #f8c233; stroke-width: 0px;"/>
  <path d="M146.54,227.53c-1.4-.46-2.91-.71-4.18-1.4-9.99-5.39-19.63-11.33-27.21-19.97-2.6-2.97-5.04-3-8.1-1.02-3.85,2.49-8.16,4.41-11.61,7.35-5.05,4.31-9.84,9.04-14.14,14.1-5.78,6.8-10.98,14.08-16.43,21.16-2.25.75-4.5,1.5-6.75,2.25,1.03-6.95,1.45-14.06,3.33-20.77,1.03-3.69,4.34-6.84,6.91-9.99,6.24-7.68,12.67-15.2,18.95-22.85.75-.91,1.04-2.2,1.54-3.32,2.3-1.43,4.62-2.83,6.9-4.29,1.22-.78,2.39-1.64,3.59-2.46,0,2.15,0,4.3,0,6.06,7.68-3.99,14.86-7.85,22.17-11.46,4.64-2.29,5.61-1.41,8.43,2.66,4.16,5.99,8.9,11.59,13.6,17.17.55.65,2.45.32,3.69.16.79-.1,1.51-.72,2.26-1.11-.21,3.5-.43,7-.64,10.49-.31,3.26-.62,6.52-.93,9.77-.47,2.49-.93,4.98-1.4,7.47Z" style="fill: #f9ca36; stroke-width: 0px;"/>
  <path d="M130.04,539.97h1.51c6.83,4.21,13.66,8.42,20.49,12.64,15.85,9.8,32.61,17.76,50.14,23.95,18.87,6.66,38.04,12.35,58.08,14.47,8.12.86,16.21,2.54,24.34,2.75,22.01.57,44.06.56,65.7-4.39,12.56-2.87,25.27-5.47,37.46-9.54,19.27-6.43,37.69-15.03,55.48-24.9.5-.5,1-1,1.5-1.5.75-.25,1.5-.5,2.25-.75.67-.28,1.38-.5,2-.86,5.84-3.44,11.66-6.91,17.48-10.37-.54.77-.92,1.73-1.64,2.27-14.97,11.31-31.05,20.83-48.41,27.88-14.26,5.8-28.66,11.62-43.49,15.56-14.89,3.96-30.32,6.32-45.66,8.04-13.55,1.52-27.36,2.12-40.98,1.46-17.92-.87-35.75-3.18-53.31-7.43-24.22-5.87-47.28-14.69-69.3-26.19-8.48-4.43-16.5-9.72-24.73-14.63-2.22-1.32-4.44-2.65-6.65-3.97-.75-1.5-1.5-2.99-2.25-4.49Z" style="fill: #f7b92d; stroke-width: 0px;"/>
  <path d="M515.15,268.74c1,5.24,2.01,10.49,3.01,15.73-4.24,2.28-8.44,4.65-12.74,6.81-2.77,1.38-6.18,1.87-8.46,3.76-7.43,6.15-14.47,12.76-21.66,19.19-.83.75-1.55,1.78-2.53,2.18-6.92,2.82-13.99,4.82-21.61,4.86-9.71.05-19.29,1.42-28.53,4.64-11.39,3.97-21.38,10.4-31.1,17.36-3.89,2.79-8.04,5.22-11.93,8.01-5.3,3.8-11.45,4.4-17.61,5.05-4.93.52-9.85,1.38-14.78,1.48-5.89.12-11.79-.46-17.68-.64-4.43-.14-9.03.77-12.85-2.54-.41-.36-1.17-.39-1.78-.45-5.43-.52-10.85-1.11-16.28-1.51-10.35-.75-19.34-4.6-27.71-10.72-7.28-5.32-15.28-9.67-22.83-14.63-7.81-5.13-14.14-11.82-18.79-19.89-3.58-6.21-7.9-11.12-15.3-12.47,1-1.5,2-3,3-4.49,0,0,0,0,0,0,.5-.75,1.01-1.49,1.51-2.24.56-.63,1.25-1.19,1.67-1.91,2.22-3.84,4.38-7.73,6.55-11.59,1.57,1.2,3.21,2.32,4.7,3.6,4.61,3.96,9.2,7.94,13.72,11.99,1.98,1.78,4.31,3.46,5.58,5.69,5.59,9.87,12.63,18.4,21.74,25.2,1.83,1.37,3.51,2.98,5.46,4.13,2.85,1.68,5.97,2.89,8.82,4.58,4.16,2.47,8,5.4,13.18,5.65,3.53.17,7.04.92,10.53,1.52,1.79.31,3.56,1.32,5.31,1.24,8.05-.33,16.09-1.05,24.14-1.39,9.2-.39,18.67.74,27.54-1.1,11.31-2.35,22.19-6.86,33.14-10.77,3.34-1.19,6.18-3.73,9.45-5.22,8.02-3.66,16.13-7.15,24.26-10.54,3.54-1.48,7.3-2.43,10.86-3.85,6.4-2.56,12.94-4.88,19.01-8.08,5.79-3.04,10.85-7.45,16.6-10.58,7.85-4.27,16.09-7.79,24.06-11.84,3.58-1.82,6.9-4.14,10.34-6.24Z" style="fill: #f9ca36; stroke-width: 0px;"/>
  <path d="M213.97,294.96c7.4,1.34,11.72,6.26,15.3,12.47,4.65,8.07,10.98,14.76,18.79,19.89,7.56,4.96,15.55,9.3,22.83,14.63,8.38,6.12,17.37,9.97,27.71,10.72,5.43.4,10.86.98,16.28,1.51.61.06,1.36.09,1.78.45,3.82,3.31,8.42,2.4,12.85,2.54,5.9.18,11.8.76,17.68.64,4.94-.1,9.86-.96,14.78-1.48,6.17-.65,12.31-1.25,17.61-5.05,3.89-2.79,8.04-5.22,11.93-8.01,9.72-6.96,19.72-13.39,31.1-17.36,9.24-3.22,18.82-4.59,28.53-4.64,7.62-.04,14.69-2.04,21.61-4.86.98-.4,1.7-1.43,2.53-2.18,7.19-6.43,14.24-13.04,21.66-19.19,2.29-1.89,5.7-2.38,8.46-3.76,4.3-2.15,8.5-4.53,12.74-6.81,2.25-.25,4.49-.5,6.74-.75,0,1.75,0,3.5,0,5.25-.72.84-1.41,1.72-2.17,2.53-4.61,4.84-9.08,9.58-11.3,16.31-1.09,3.32-4.19,6.97-7.32,8.36-3.64,1.62-6.15,3.77-8.57,6.64-2.54,3-4.97,7-8.31,8.22-6.39,2.34-13.26,2.86-20.35,1.81-10.09-1.49-20.01-4.42-30.55-2.81-11.17,1.71-21.68,4.67-30.23,12.27-7.23,6.43-13.82,13.56-21.01,20.04-5.54,4.99-11.97,8.4-19.81,8.31-8.61-.1-17.27-.58-25.82.13-8.57.72-16.62-2.81-25.23-1.87-4.62.5-9.61-2.29-14.19-1.71-6.06.76-11.48-.4-17.15-1.86-13.63-3.51-25.87-9.92-37.68-17.31-4-2.5-7.91-5.15-11.84-7.76-5.22-3.46-10.93-6.39-15.48-10.58-4.4-4.06-7.67-9.38-11.29-14.25-2.42-3.25-4.6-6.67-6.89-10.01,4.75-3.49,9.49-6.98,14.24-10.46Z" style="fill: #f8c233; stroke-width: 0px;"/>
  <path d="M515.15,268.74c-3.44,2.09-6.76,4.42-10.34,6.24-7.97,4.05-16.22,7.57-24.06,11.84-5.75,3.13-10.82,7.54-16.6,10.58-6.07,3.2-12.62,5.52-19.01,8.08-3.56,1.43-7.32,2.37-10.86,3.85-8.14,3.4-16.24,6.88-24.26,10.54-3.27,1.49-6.11,4.03-9.45,5.22-10.95,3.91-21.83,8.42-33.14,10.77-8.87,1.84-18.34.71-27.54,1.1-8.05.34-16.09,1.06-24.14,1.39-1.75.07-3.51-.93-5.31-1.24-3.5-.6-7-1.35-10.53-1.52-5.18-.25-9.02-3.18-13.18-5.65-2.84-1.69-5.97-2.9-8.82-4.58-1.95-1.15-3.63-2.76-5.46-4.13-9.11-6.8-16.15-15.33-21.74-25.2-1.27-2.24-3.6-3.92-5.58-5.69-4.52-4.05-9.11-8.04-13.72-11.99-1.5-1.29-3.13-2.41-4.7-3.6.23-1.2.41-2.42.71-3.61,1.25-4.79,2.53-9.57,3.81-14.35,1.99,1.5,4.33,2.7,5.92,4.55,4.94,5.73,9.2,12.09,14.45,17.5,6.61,6.79,15.27,11.66,18.92,21.14.37.97,1.44,1.7,2.25,2.47,3.7,3.51,7.21,7.27,11.2,10.42,4.71,3.7,9.44,8.57,14.89,9.84,7.39,1.72,15.46.51,23.24.54.12,0,.23-.1.35-.12,4.85-.89,9.67-2.12,14.56-2.59,7.93-.76,15.66-2.03,23.14-4.91,6.7-2.59,13.56-4.75,20.31-7.22.85-.31,1.41-1.42,2.1-2.16.5,0,1,0,1.49,0,.75-.25,1.5-.49,2.25-.74,4.24-2.01,8.48-4.01,12.72-6.02,6.37-1.42,12.78-2.67,19.1-4.3,11.87-3.06,23.61-6.63,35.54-9.43,8.42-1.98,14.15-7.27,19.37-13.53.57-.68.63-1.79.93-2.71.98-.12,1.98-.17,2.95-.37,6.42-1.35,12.83-2.82,19.27-4.1,5.56-1.11,11.16-2.03,16.74-3.03.75,1.25,1.5,2.5,2.26,3.75,0,1,0,2,0,3Z" style="fill: #fad939; stroke-width: 0px;"/>
  <path d="M524.91,288.97c0-1.75,0-3.5,0-5.25,2.98-3.96,5.83-8.04,9.03-11.82,1.03-1.21,2.93-1.85,4.56-2.36,2.87-.9,5.88-1.37,8.76-2.28,5.3-1.67,10.5-3.66,15.82-5.25,5.38-1.61,10.88-2.81,16.29-4.34,2.85-.8,6.48,1.19,7.59,5.11,2.48,8.79,4.67,17.67,6.88,26.54,2.7,10.85.72,21.66-.6,32.44-1.12,9.08-2.03,18.22-3.88,27.16-2.06,9.94-4.55,19.87-7.81,29.48-5.33,15.72-11.15,31.3-17.35,46.7-3.05,7.57-7.46,14.59-11.18,21.9-.59,1.16-.76,2.53-1.13,3.8-1.23,1.71-2.55,3.37-3.67,5.15-9.29,14.86-19.61,28.93-31.62,41.71-6.88,7.33-13.72,14.73-21.01,21.65-6.1,5.79-12.79,10.97-19.31,16.29-.98.8-2.52.93-3.81,1.36-.5.5-1,1-1.5,1.5-1.5,1-3,2-4.5,3-5.83,3.46-11.65,6.93-17.48,10.37-.62.37-1.33.58-2,.86.54-.76.93-1.74,1.64-2.26,3.71-2.69,7.54-5.21,11.25-7.9,15.92-11.55,31.22-23.82,44.02-38.9,8.19-9.65,16.85-18.97,24.31-29.16,12.17-16.6,21.95-34.69,30.25-53.53,2.9-6.57,5.94-13.15,8.05-19.99,3.95-12.81,7.71-25.71,10.72-38.76,2.22-9.61,3.24-19.51,4.57-29.31,1-7.36,1.38-14.8,2.49-22.14,1.05-6.96.9-13.44-2.84-19.78-4.23-7.17-9.26-11.98-18.41-11.08-8.46.83-15.3,4.57-21.49,10.02-1.2,1.05-2.6,1.88-3.91,2.81-3.03.37-6.07.73-9.2,1.11-1.1-1.51-2.32-3.18-3.53-4.85Z" style="fill: #f6b32f; stroke-width: 0px;"/>
  <path d="M512.9,261.99c-5.58,1-11.18,1.92-16.74,3.03-6.44,1.28-12.84,2.74-19.27,4.1-.97.2-1.96.25-2.95.37.76-3.73,1.56-7.46,2.25-11.2.8-4.33.76-4.32-3.78-3.82-.98.11-1.98.03-2.97.04-.3-1.56-.42-3.19-.93-4.68-1.35-3.96-2.86-7.87-4.31-11.8,8.58-7.26,17.72-13.42,29.22-14.98,5-.24,9.99-.49,14.99-.73-1.46,6.22-2.92,12.44-4.39,18.66-.19.82-.42,1.64-.74,2.91,4.74.44,9.23.85,14.1,1.3-1.52,5.7-3.01,11.26-4.5,16.82Z" style="fill: #fdd753; stroke-width: 0px;"/>
  <path d="M470.96,538.47c.5-.5,1-1,1.5-1.5-.5.5-1,1-1.5,1.5Z" style="fill: #f7b92d; stroke-width: 0px;"/>
  <path d="M339.09,260.49c-.25-1.99-.5-3.99-.75-5.98-.75-8.25-1.68-16.49-2.18-24.76-.34-5.54-.33-5.66-5.86-4.55-1.98.4-4.13-.11-6.17.13-7.12.83-14.26,1.54-21.3,2.81-4.25.76-8.26.09-10.84-3.47-8.59-11.85-17.29-23.64-25.51-35.75-7.54-11.1-14.94-22.35-21.63-33.97-8.2-14.24-15.6-28.94-23.35-43.44-5.08-9.5-12.19-16.2-22.98-19.28-8.21-2.34-16.39-4.41-24.86-3.91-6.77.39-13.45,2.08-20.2,2.92-5.53.69-11.1.99-16.66,1.45-2.84.24-5.69.35-8.52.69-3.53.43-5.32-1.04-3.82-4.08,2.48-5.04,5.18-10.26,8.95-14.34,10.57-11.44,22.38-21.78,35.71-29.77,25.22-15.13,51.67-27.8,80.9-33.2,10.45-1.93,21.09-3.11,31.7-3.86,10.98-.77,22.1-1.46,33.04-.67,20.66,1.49,41.09,4.84,61.01,10.9,16.25,4.95,32.03,11.07,46.91,19.22,6.92,3.79,13.23,8.71,19.82,13.09,5.45,3.62,11.11,6.96,16.33,10.88,11.98,9,22.43,19.6,32.05,31.1,9.13,10.92,16.15,22.99,20.94,36.33.94,2.6,1.35,5.71.88,8.39-.35,1.98-2.32,3.84-3.91,5.42-3.97,3.95-8.15,7.68-12.21,11.55-6.2,5.91-12.34,11.88-18.57,17.75-.75.7-2.23,1.64-2.81,1.35-3.17-1.58-4.65.85-6.75,2.25-6.09,4.04-12.4,7.73-18.5,11.76-5.9,3.9-11.61,8.1-17.49,12.05-1.62,1.09-3.54,1.75-5.34,2.56-2.71,1.22-4.85.99-5.84-2.29-.1-.33-.79-.48-1.21-.71-.03-.74-.07-1.48-.1-2.22-.22-.51-.44-1.01-.66-1.52l-.17-4.35c-.45-.55-.9-1.09-1.35-1.64-.05-1.2-.1-2.4-.16-3.6-.96-1.79-1.92-3.59-2.88-5.38-.28-1.22-.57-2.43-.85-3.65-3.15-9.12-8.25-16.84-15.98-22.77-9.34-7.16-19.39-8.49-30.04-3.47-3.31,1.56-6.23,3.92-9.33,5.92.21-.57.26-1.3.64-1.7,7.37-7.68,19.23-12.47,30.64-7.97,5,1.97,9.32,5.61,14.15,8.11,1.61.84,3.89.84,5.79.59,4.97-.63,7.18-5.37,9.96-8.42,3.52-3.86,7.21-6.33,11.95-7.85,1.46-.47,3.01-1.08,4.14-2.07,9.22-7.99,14.82-18.43,19.74-29.33,2.5-5.53,5.34-10.92,7.73-16.5.82-1.92,1.57-4.54.91-6.3-1.25-3.31-3.15-6.58-5.51-9.21-4.72-5.26-9.84-10.18-14.95-15.07-10.88-10.43-23.41-18.64-36.97-24.94-12.01-5.59-24.46-10.47-37.1-14.4-10.83-3.37-22.18-5.17-33.37-7.25-7.41-1.38-14.94-2.26-22.45-2.93-6.81-.6-13.67-.86-20.5-.78-4.94.06-9.88.76-14.79,1.44-11.03,1.52-22.19,2.55-33.04,4.95-19.46,4.3-37.69,12.05-54.53,22.73-7.74,4.91-15.39,10.18-20.74,17.94-2.11,3.05-1.22,4.6,2.48,5.33,2.78.55,5.52,1.39,8.22,2.25,2.82.9,5.53,2.23,8.39,2.96,9.76,2.49,19.6,4.69,28.15,10.42,7.02,4.71,14.37,9.06,18.27,17.09,3.96,8.16,8.19,16.22,11.79,24.54,8.23,19.02,17.66,37.38,29.8,54.18,5.22,7.23,9.64,15.64,18.75,19.12,1.8.69,4.04,1,5.9.62,6.68-1.34,13.32-2.95,19.92-4.65,6.38-1.64,13.41.16,19.37-3.67-.39,1.79-.91,3.57-1.16,5.38-.44,3.19-.72,6.41-1.07,9.62,0,.25,0,.49-.03.74-.21.51-.42,1.01-.62,1.52.3,1.01.61,2.03.91,3.04-.13.72-.27,1.45-.4,2.17-.04.5-.08,1.01-.12,1.51-.07.61-.12,1.23-.2,1.84-1.58,12.74-1.65,25.46.58,38.15.18.66.37,1.32.55,1.98.05.36.1.73.15,1.09.21.89.41,1.78.62,2.66.17.14.21.32.1.52.14,1.4.43,2.81.35,4.2-.04.68-.75,1.33-1.15,1.99-.25-.5-.51-1-.76-1.5Z" style="fill: #fded87; stroke-width: 0px;"/>
  <path d="M340.65,255.79c.1-.2.07-.37-.1-.52-.21-.89-.41-1.78-.62-2.66-.05-.36-.1-.73-.15-1.09-.18-.66-.37-1.32-.55-1.98-2.22-12.68-2.15-25.4-.58-38.15.08-.61.13-1.23.2-1.84.04-.5.08-1.01.12-1.51.13-.72.27-1.45.4-2.17.39-1.43.82-2.85,1.16-4.28,2.76-11.77,7.24-22.73,15.05-32.15,12.76-15.39,30.77-17.09,44.92-3.42,4.98,4.81,9.24,10.97,12,17.32,3.73,8.58,5.69,17.93,8.4,26.95,2.14,16.02,1.11,31.87-2.51,47.58-.21.64-.43,1.27-.64,1.9-.17.1-.2.23-.1.4-.19.61-.38,1.23-.58,1.84-.17.15-.21.34-.14.55-.22.57-.44,1.14-.66,1.71-.17.09-.21.23-.11.4-.27.55-.58,1.08-.81,1.64-3.43,8.49-7.7,16.44-14.32,22.94-13.05,12.81-29.42,12.94-42.36.05-3.32-3.3-5.94-7.3-8.89-10.97,0,0-.03,0-.03,0-.8-1.47-1.59-2.94-2.39-4.4l.02.04c-.26-.51-.52-1.02-.79-1.53l.02.03c-.25-.57-.49-1.13-.74-1.7.06-.21,0-.39-.18-.52-.19-.35-.37-.69-.56-1.04.08-.19.03-.34-.14-.46-.21-.52-.43-1.05-.64-1.57l.02.04c-.24-.59-.48-1.17-.72-1.76-1.01-3.22-2.02-6.45-3.02-9.67ZM354.1,268.72c.49.51.98,1.01,1.47,1.52.6,4.75,4.23,7.52,7.37,10.3,6.58,5.8,14.58,7.3,22.97,5.27,5.48-1.32,11.15-2.91,13.86-8.83.02-.23.03-.47.04-.7,4.41-2.8,6.81-6.72,6.71-12.03.53-.71,1.3-1.33,1.54-2.13,2.07-6.68,1.35-13.39.49-20.2-.67-5.32-1.33-10.95-.34-16.12,1.66-8.61,2.88-17.1,1.22-25.75-.56-2.91-1.93-5.66-2.93-8.48-1.31-4.31-1.93-9.03-6.72-11.26h0c0-.25,0-.5-.03-.74-.24-.24-.49-.48-.73-.71l-2.98-3.04c-.83-.97-1.48-2.46-2.51-2.81-3.69-1.24-7.49-2.75-11.3-2.94-7.32-.36-14.63.24-19.92,6.52-2,2.25-3.99,4.5-5.99,6.75-.44.42-1.07.75-1.29,1.26-4.9,11.5-6.55,23.47-3.39,35.58,2.25,8.62,2.64,16.89.39,25.52-.98,3.76-1.14,7.9-.81,11.79.26,3.06,1.85,6.01,2.84,9.01,0,.74.02,1.49.02,2.23Z" style="fill: #522216; stroke-width: 0px;"/>
  <path d="M493.44,223.04c-11.5,1.57-20.64,7.72-29.22,14.98-1.53.51-3.15.84-4.57,1.56-11.8,5.97-24.98,7.28-37.39,11.17.51-6.29.83-12.61,1.61-18.87.41-3.31,3.47-3.76,6.2-4.36,6.74-1.5,13.56-2.77,20.12-4.84,2.5-.79,4.57-3.33,6.53-5.36,5.71-5.9,11.04-12.17,16.99-17.8,2.11-2,5.51-2.75,8.44-3.73,2.68-.9,5.51-1.34,8.28-1.98.99,1.11,1.94,2.27,2.98,3.33,2.52,2.58,3.69,5.35,2.6,9.11-.64,2.2-.02,4.74-.39,7.05-.52,3.28-1.44,6.49-2.19,9.73Z" style="fill: #fce468; stroke-width: 0px;"/>
  <path d="M469.46,254.51c.99,0,1.99.07,2.97-.04,4.54-.5,4.58-.51,3.78,3.82-.69,3.74-1.5,7.47-2.25,11.2-.3.91-.35,2.02-.93,2.71-5.21,6.26-10.95,11.55-19.37,13.53-11.93,2.8-23.67,6.37-35.54,9.43-6.32,1.63-12.73,2.88-19.1,4.3,2.67-3.05,5.72-5.85,7.93-9.2,2.94-4.45,5.25-9.32,7.82-14.01.74-1.51,1.48-3.01,2.22-4.52,6.77-2,13.52-4.03,20.3-5.98,10.93-3.15,22.13-5.51,32.15-11.24Z" style="fill: #fbde42; stroke-width: 0px;"/>
  <path d="M469.46,254.51c-10.02,5.73-21.23,8.09-32.15,11.24-6.78,1.95-13.53,3.99-20.3,5.98,1.75-6.99,3.5-13.98,5.25-20.97,12.41-3.89,25.59-5.2,37.39-11.17,1.42-.72,3.04-1.05,4.57-1.56,1.45,3.93,2.96,7.84,4.31,11.8.51,1.49.63,3.12.93,4.68Z" style="fill: #fbe859; stroke-width: 0px;"/>
  <path d="M420.9,210.28c-2.72-9.02-4.68-18.37-8.4-26.95-2.76-6.34-7.02-12.5-12-17.32-14.15-13.67-32.16-11.96-44.92,3.42-7.81,9.42-12.28,20.38-15.05,32.15-.34,1.44-.77,2.86-1.16,4.28-.3-1.01-.61-2.03-.91-3.04.21-.51.42-1.01.62-1.52.03-.25.04-.49.03-.74.25-.67.59-1.32.74-2.01,3.3-15.7,8.65-30.37,21.62-40.9,8.07-6.56,17.1-9.34,27.4-5.6,8.94,3.25,15.17,9.58,20.11,17.45,1.54,2.46,3.3,4.79,4.96,7.18.28,1.22.57,2.43.85,3.65.96,1.79,1.92,3.59,2.88,5.38.05,1.2.1,2.4.16,3.6.45.55.9,1.09,1.35,1.64.06,1.45.11,2.9.16,4.35.22.51.44,1.01.66,1.52.03.74.07,1.48.1,2.22.27,3.75.54,7.49.81,11.24Z" style="fill: #f7bd43; stroke-width: 0px;"/>
  <path d="M414.78,276.25c-2.58,4.69-4.88,9.56-7.82,14.01-2.22,3.35-5.26,6.15-7.93,9.2-4.24,2-8.48,4.01-12.72,6.01-.75.25-1.5.49-2.25.74-.5,0-1,0-1.49,0-2.57-.16-5.17-.15-7.71-.51-7.39-1.03-13.05-5.35-18.51-10l-1.5-3c2.72-.03,2.41-1.03,1.24-2.96-2.26-3.71-4.2-7.61-6.27-11.43,2.94,3.68,5.57,7.67,8.89,10.97,12.94,12.89,29.31,12.76,42.36-.05,6.62-6.5,10.89-14.45,14.32-22.94.23-.56.54-1.09.81-1.64-.74,2.82-1.61,5.63-2.15,8.49-.18.95.48,2.06.76,3.1Z" style="fill: #fbe859; stroke-width: 0px;"/>
  <path d="M416.29,264.26c.22-.57.44-1.14.66-1.71-.22.57-.44,1.14-.66,1.71Z" style="fill: #fbe859; stroke-width: 0px;"/>
  <path d="M417.08,262c.19-.61.38-1.22.58-1.84-.19.61-.38,1.23-.58,1.84Z" style="fill: #fbe859; stroke-width: 0px;"/>
  <path d="M417.76,259.76c.21-.63.43-1.27.64-1.9-.21.63-.43,1.27-.64,1.9Z" style="fill: #fbe859; stroke-width: 0px;"/>
  <path d="M354.83,292.71c.5,1,1,2,1.5,3-2.42,0-4.89-.29-7.26.04-3.67.52-7.26,1.56-10.92,2.19-11.7,2.02-23.45,3.74-35.1,6.03-3.79.74-6.29-.43-7.79-3.3-3.57-6.86-7.73-13-13.21-18.69-6.56-6.82-11.39-15.29-17.14-22.92-5.59-7.43-11.62-14.54-17.03-22.1-5.33-7.45-12.97-13.41-15.2-22.92l-1.4-6.76c-.23-.25-.46-.5-.69-.74l-.12-1.46c2.1-1,2.09-2.01.03-3.04-.03-.74-.06-1.49-.09-2.23-.22-.75-.45-1.51-.67-2.26-.03-.5-.05-1-.08-1.5-.24-2.49-.48-4.98-.71-7.47.51.29,1.2.46,1.51.9,15.52,22.19,30.96,44.45,46.53,66.6,6.21,8.83,12.71,17.46,19.13,26.14,1.87,2.52,4.26,4.24,7.65,3.75,4.03-.59,8.06-1.19,12.09-1.86,9.75-1.61,19.5-3.25,29.25-4.88.95,1.39,1.85,2.8,2.84,4.15,2.28,3.13,4.59,6.22,6.89,9.33Z" style="fill: #fbe54e; stroke-width: 0px;"/>
  <path d="M228.93,188.58c.24,2.49.48,4.98.71,7.48-.26-.67-.59-1.31-.78-2-3.76-13.98-9.44-26.82-20.82-36.5-10.79-9.18-24.13-9.83-35.47-1.52-2.63,1.93-5.34,3.76-8.01,5.63,3.35-6.37,8.96-10.18,15.36-12.71,3.38-1.34,7.18-1.6,10.8-2.34.5,0,1,0,1.5,0,.5.24,1,.49,1.5.73,5.76.23,10.29,3.15,14.51,6.69,1.99,1.67,3.82,3.53,5.72,5.3,6.16,7.61,11.26,15.79,13.5,25.47.24.5.48,1,.72,1.5.25.75.5,1.5.75,2.25Z" style="fill: #f9ca36; stroke-width: 0px;"/>
  <path d="M354.83,292.71c-2.3-3.11-4.62-6.21-6.89-9.33-.99-1.36-1.9-2.77-2.84-4.15-1.41-4.31-2.84-8.62-4.21-12.95-.44-1.4-.69-2.86-1.03-4.29.41-.66,1.11-1.31,1.15-1.99.08-1.39-.21-2.8-.35-4.2,1.01,3.22,2.02,6.45,3.02,9.67.24.59.48,1.17.72,1.76,0,0-.02-.04-.02-.04.21.52.43,1.05.64,1.57.17.11.22.26.14.46.19.35.37.69.56,1.04.18.13.24.31.18.52.25.57.49,1.13.74,1.7,0,0-.02-.03-.02-.03.26.51.52,1.02.79,1.53,0,0-.02-.04-.02-.04.09,1.85-.5,4.07,2.39,4.4,0,0,.03,0,.03,0,2.07,3.82,4.01,7.72,6.27,11.43,1.18,1.93,1.48,2.92-1.24,2.96Z" style="fill: #fcec71; stroke-width: 0px;"/>
  <path d="M228.19,186.32c-.24-.5-.48-1-.72-1.5.24.5.48,1,.72,1.5Z" style="fill: #fbe54e; stroke-width: 0px;"/>
  <path d="M149.5,199.8c-.75.39-1.48,1.01-2.26,1.11-1.24.16-3.15.49-3.69-.16-4.7-5.59-9.44-11.18-13.6-17.17-2.82-4.06-3.79-4.95-8.43-2.66-7.31,3.61-14.49,7.47-22.17,11.46,0-1.76,0-3.91,0-6.06,6.93-6.79,13.13-14.65,21.02-20.03,6.41-4.36,14.82-5.86,22.43-8.38,2.97-.98,3.98,1.78,5.26,3.71,2.02,3.05,4.05,6.1,6.48,9.75,2.3-2.58,3.91-4.59,5.74-6.37.66-.64,1.83-.76,2.76-1.12-.97,1.83-1.86,3.72-2.93,5.49-5.7,9.39-9.44,19.46-10.6,30.42Z" style="fill: #fad939; stroke-width: 0px;"/>
  <path d="M149.5,199.8c1.16-10.97,4.9-21.03,10.6-30.42,1.07-1.77,1.96-3.66,2.93-5.49.51-.74,1.03-1.48,1.55-2.22,2.67-1.87,5.38-3.7,8.01-5.63,11.34-8.31,24.68-7.66,35.47,1.52,11.37,9.68,17.06,22.51,20.82,36.5.18.69.51,1.34.78,2,.03.5.05,1,.08,1.49.22.75.45,1.51.67,2.26.03.74.06,1.49.09,2.23-.13.65-.26,1.3-.39,1.95-.63-2.27-1.24-4.56-1.9-6.82-3.54-12.14-8.76-23.32-18.28-32.06-11.47-10.52-26.41-11.03-38.37-1.16-6.16,5.08-11.14,11.3-13.93,18.73-3.39,9.03-5.88,18.41-8.76,27.63.21-3.5.43-7,.64-10.49Z" style="fill: #f4a023; stroke-width: 0px;"/>
  <path d="M193.73,147.35c-.5-.24-1-.49-1.5-.73.5.24,1,.49,1.5.73Z" style="fill: #fbde42; stroke-width: 0px;"/>
  <path d="M537.64,292.71c1.31-.93,2.71-1.76,3.91-2.81,6.19-5.44,13.03-9.18,21.49-10.02,9.15-.9,14.18,3.92,18.41,11.08,3.74,6.34,3.89,12.82,2.84,19.78-1.1,7.34-1.49,14.79-2.49,22.14-1.33,9.8-2.35,19.7-4.57,29.31-3.01,13.05-6.76,25.96-10.72,38.76-2.11,6.84-5.15,13.42-8.05,19.99-8.31,18.84-18.09,36.93-30.25,53.53-7.47,10.19-16.12,19.51-24.31,29.16-12.8,15.08-28.1,27.35-44.02,38.9-3.71,2.69-7.55,5.21-11.25,7.9-.72.52-1.1,1.49-1.64,2.26-.75.25-1.5.5-2.25.75-.5.5-1,1-1.5,1.5-17.79,9.87-36.21,18.47-55.48,24.9-12.19,4.07-24.9,6.67-37.46,9.54-21.64,4.95-43.69,4.96-65.7,4.39-8.13-.21-16.22-1.89-24.34-2.75-20.04-2.12-39.2-7.81-58.08-14.47-17.54-6.19-34.29-14.16-50.14-23.95-6.83-4.22-13.66-8.43-20.49-12.65-1.42-1.46-2.7-3.09-4.28-4.35-12.91-10.36-25.8-20.75-36.32-33.66-7.99-9.8-16.41-19.36-23.44-29.83-12.1-18.04-22-37.3-27.16-58.63-.45-1.86-.18-3.88-.27-5.83-.14-3.22-.53-6.45-.38-9.66.1-2.12.5-4.47,1.57-6.23,1.72-2.84,4.23-5.19,6.16-7.93,1.27-1.8,2.53-3.8,3.04-5.89,3-12.28,5.6-24.67,8.72-36.92,1.42-5.58,4.88-10.85,5.3-16.43.54-7.07,2.47-13.45,5.53-19.54,1.83-3.65,4.56-6.91,7.22-10.05,2.49-2.94,5.27-5.71,8.25-8.14,1.19-.97,3.44-1.48,4.93-1.11,10.54,2.66,21.04,5.52,31.5,8.51,6.28,1.8,12.46,3.92,18.66,5.98,1.03.34,2.31.92,2.79,1.77,3.05,5.33,8.62,4.45,13.34,5.67,1.67.43,3.52.53,5,1.31,8.78,4.61,17.55,9.25,26.18,14.15,4.88,2.77,9.25,6.17,12.24,11.22,1.33,2.26,3.81,3.82,5.7,5.77,8.48,8.72,14.88,19.42,24.96,26.58,4.11,2.92,8.6,5.39,13.16,7.59,7.72,3.72,15.48,7.42,23.5,10.39,4.33,1.6,9.2,2.01,13.87,2.33,13.87.95,27.76,1.63,41.65,2.33,7.14.36,14.29.46,21.43.84,1.02.06,1.99,1.07,2.99,1.63-13.69,1.64-27.34,4.02-41.08,4.74-23.57,1.24-46.91-1.39-69.76-7.44-9.36-2.48-18.48-5.84-27.71-8.8.11-1.17.57-2.44.28-3.5-1.06-3.93-2.27-7.81-3.58-11.67-5.06-14.97-14.77-25.75-29.34-31.92-6.75-2.86-13.91-3.58-21.26-4.17-9.52-.77-17.42,2.66-25.39,6.67-7.36,3.71-12.97,10.52-21.49,12.23-.57.11-1.18.52-1.57.97-2.9,3.35-6.1,3.59-10.05,1.69-3.5-1.69-5.76-.5-7.34,2.92-.57,1.24-1.28,2.42-2.04,3.56-3.65,5.44-6.81,10.96-5.83,18,.23,1.68-.76,3.61-1.43,5.33-2.26,5.78-5.18,11.42-3.03,17.97.21.63-.12,1.47-.29,2.18-1.92,7.82-3.91,15.61-5.74,23.45-.35,1.49-.08,3.13-.13,4.7-.17,4.73,2.32,9.65-.55,14.16-1.52,2.39-1.47,4.5-.68,7.05,4.07,13.05,10.59,24.93,18.17,36.12,4.98,7.37,11.01,14.12,17.19,20.56,6.71,7,14.01,13.44,21.26,19.89,12.22,10.86,25.52,20.27,39.94,27.96,9.66,5.15,19.47,10.12,29.56,14.35,10.85,4.56,21.92,8.82,33.24,11.98,9.98,2.79,20.37,4.4,30.68,5.6,14.64,1.71,29.37,2.89,44.09,3.64,6.89.35,13.89-.53,20.77-1.42,12.39-1.6,24.92-2.84,37.05-5.69,15.31-3.6,30.45-7.94,45.05-14.19,14.94-6.39,29.45-13.53,42.91-22.53,10.41-6.96,20.26-14.78,30.05-22.6,6.01-4.8,11.61-10.16,17.08-15.59,2.87-2.86,4.94-6.5,7.57-9.63,3.75-4.47,7.94-8.6,11.49-13.22,12.55-16.31,23.37-33.72,32.25-52.3,9.31-19.47,16.42-39.75,21.3-60.75,2.64-11.38,5.8-22.64,5.57-34.64-.21-11,1.45-22.02,1.94-33.05.33-7.35-5.69-13.09-13.07-13.21-5.48-.09-9.66,3.01-13.85,5.81-1.44.97-2.73,3.01-3.01,4.74-1.82,11.39-4.7,22.47-8.73,33.26-5.31,14.23-10.9,28.21-22.03,39.28-3.56,3.54-6.71,7.2-11.42,9.3-1.96.87-3.39,2.88-5.26,4.08-1.6,1.03-3.42,1.8-5.24,2.4-2.33.77-4.85,1.01-7.11,1.92-3.55,1.43-6.17,1.07-7.98-2.1-1.64-2.89-3.12-5.95-4.11-9.11-2.69-8.6-5.84-16.86-11.7-23.95-8.74-10.56-20.17-13.99-33.07-11.96-11.45,1.8-18.33,9.86-22.59,20.15-1.07,2.59-1.1,5.61-1.6,8.43l-8.98,3.75c.98-8.86,5.25-16.15,10.69-22.98,10.25-12.88,23.21-17.66,39.32-13.74,11.72,2.85,21.44,8.98,29.86,17.46,6.59,6.64,14.88,8.78,22.79,4.53,4.62-2.49,8.43-6.8,11.98-10.84,3.18-3.62,5.71-7.86,8.14-12.05,3.68-6.34,7.8-12.58,10.33-19.39,3.3-8.89,5.24-18.3,7.76-27.48Z" style="fill: #f6ab2b; stroke-width: 0px;"/>
  <path d="M208.83,380.33c9.23,2.96,18.36,6.32,27.71,8.8,22.84,6.05,46.19,8.68,69.76,7.44,13.74-.72,27.39-3.11,41.08-4.74,2.73-.59,5.46-1.18,8.19-1.77.52-.1,1.04-.21,1.57-.31,1.13-.31,2.25-.62,3.38-.93,12.09-3.87,24.18-7.74,36.27-11.61l8.98-3.75c2.51-1.16,5.03-2.33,7.54-3.49,2.73-1.33,5.46-2.66,8.2-4,1.83-.38,3.65-.75,5.48-1.13,4.84.44,8.4,2.65,10.19,7.33-.26,2.73-.53,5.46-.79,8.18-.49.73-.97,1.46-1.46,2.18-1,.69-2.16,1.23-2.97,2.1-5.16,5.55-10.24,11.17-15.36,16.76-6.13,6.7-13.96,10.91-22.22,14.03-16.47,6.23-33.21,11.71-50.82,13.74-9.83,1.13-19.68,2.23-29.55,2.8-7.89.46-15.84.28-23.75.04-7.05-.22-14.11-.74-21.13-1.46-15.83-1.64-31.25-5.12-46.22-10.58-8.49-3.1-17.13-5.85-25.43-9.39-10.64-4.54-18.46-12.83-26.23-21.11-2.52-2.69-3.82-6.79-8.12-7.61-1.47-4.03-3.18-8.13-.15-12.12,3.09-4.07,8.34-5.5,13.36-3.81,2.09.71,4.1,1.68,6.14,2.53,2.26,1.22,4.52,2.43,6.78,3.65,1.74.77,3.48,1.55,5.22,2.32,1.47.59,2.93,1.18,4.4,1.77l9.97,4.12Z" style="fill: #421a12; stroke-width: 0px;"/>
  <path d="M396.78,377.2c-12.09,3.87-24.18,7.74-36.27,11.61-1.29-.27-3.08-2.38-3.38.93-.52.1-1.04.21-1.57.31-.61-.72-1.17-2.02-1.85-2.09-11.91-1.12-23.83-2.08-35.75-3.1-5.93-.51-11.85-1.05-17.77-1.62-4.06-.39-8.23-.4-12.15-1.36-6.72-1.65-13.3-3.89-19.92-5.92-3.31-1.01-6.78-1.74-9.84-3.27-3.96-1.99-7.68-4.52-11.34-7.04-5.6-3.86-10.68-8.28-17.32-10.75-3.49-1.3-6-5.3-8.86-8.18-4.25-4.28-8.53-8.55-12.57-13.02-4.41-4.88-8.38-10.16-12.87-14.95-3.62-3.86-7.75-7.24-11.61-10.87-.5-.47-.81-1.14-1.2-1.71,5.74-.25,11.48-.5,17.22-.74,2.29,3.34,4.47,6.77,6.89,10.01,3.63,4.87,6.89,10.19,11.29,14.25,4.54,4.19,10.26,7.12,15.48,10.58,3.93,2.61,7.84,5.26,11.84,7.76,11.81,7.39,24.04,13.81,37.68,17.31,5.68,1.46,11.09,2.62,17.15,1.86,4.59-.58,9.58,2.21,14.19,1.71,8.61-.93,16.66,2.59,25.23,1.87,8.55-.71,17.21-.23,25.82-.13,7.84.09,14.26-3.32,19.81-8.31,7.19-6.47,13.78-13.61,21.01-20.04,8.55-7.6,19.05-10.56,30.23-12.27,10.54-1.61,20.46,1.32,30.55,2.81,7.08,1.05,13.96.53,20.35-1.81,3.34-1.22,5.77-5.22,8.31-8.22,2.42-2.87,4.92-5.03,8.57-6.64,3.13-1.39,6.23-5.04,7.32-8.36,2.21-6.74,6.69-11.47,11.3-16.31.77-.8,1.45-1.68,2.17-2.53,1.22,1.67,2.43,3.34,3.53,4.85,3.13-.38,6.16-.74,9.2-1.11-2.52,9.18-4.46,18.59-7.76,27.48-2.53,6.81-6.65,13.05-10.33,19.39-2.43,4.19-4.97,8.43-8.14,12.05-3.55,4.04-7.36,8.35-11.98,10.84-7.9,4.26-16.19,2.11-22.79-4.53-8.42-8.48-18.14-14.61-29.86-17.46-16.12-3.91-29.07.86-39.32,13.74-5.44,6.83-9.71,14.12-10.69,22.98Z" style="fill: #f7b92d; stroke-width: 0px;"/>
  <path d="M67.86,276.98c3.74-9.6,7.38-19.25,11.31-28.78.89-2.16,2.43-4.39,4.28-5.77,4.37-3.24,9.05-6.11,13.77-8.84,1-.58,2.91-.31,4.09.24,8.78,4.12,17.46,8.46,26.22,12.63,4.38,2.08,8.94,3.8,13.27,5.98,2.8,1.41,5.33,3.35,7.98,5.06.24.25.48.5.72.76.02.49.03.99.05,1.48,2.18,11.36,6.97,21.59,13.48,31.06,1.17,1.69,2.5,3.27,3.75,4.91-1.55-.69-3.29-1.13-4.62-2.11-5.88-4.37-11.37-9.31-17.52-13.23-4.3-2.74-9.38-4.3-14.19-6.17-9.04-3.5-18.11-6.9-27.21-10.23-3.37-1.23-6.82-2.3-10.3-3.16-1.01-.25-2.52.16-3.36.83-6.95,5.53-15.3,9.48-20,17.57-.15.25-.6.33-1.3.69-.16-1.12-.28-2.02-.41-2.92Z" style="fill: #f7b92d; stroke-width: 0px;"/>
  <path d="M166.78,295.71c-1.25-1.63-2.58-3.21-3.75-4.91-6.51-9.47-11.31-19.7-13.48-31.06.97,1.86,2.22,3.64,2.88,5.6,3.74,11.24,9.52,20.98,18.46,29.07,11.41,10.33,28.94,9.52,39.83.51,1.97-1.63,4.17-2.98,6.26-4.46-1,1.5-2,3-3,4.49-4.75,3.49-9.49,6.98-14.24,10.46-5.74.25-11.48.5-17.22.74-2.02-1.11-4.15-2.06-6.05-3.35-3.3-2.26-6.46-4.73-9.68-7.11Z" style="fill: #f9c94d; stroke-width: 0px;"/>
  <path d="M148.86,210.29c2.88-9.23,5.37-18.6,8.76-27.63,2.79-7.43,7.77-13.64,13.93-18.73,11.96-9.87,26.91-9.35,38.37,1.16,9.53,8.74,14.74,19.92,18.28,32.06.66,2.27,1.27,4.55,1.9,6.82.12.37.24.73.36,1.1.04.49.08.97.12,1.46.02.25.05.51.07.76l1.07,6.78c.23,3,.46,5.99.69,8.99-.13,11.99-.82,23.91-4.26,35.5-3.62,12.24-8.72,23.74-18.62,32.24-12.18,10.45-23.44,11.05-35.89,3.02-7.22-4.66-12.18-11.68-15.63-19.19-3.7-8.06-5.69-16.92-8.42-25.43-.06-.48-.13-.96-.19-1.45l-.61-3.07c-.04-.47-.08-.94-.11-1.41-.02-.26-.04-.52-.06-.77-.06-.75-.12-1.51-.19-2.26-.17-1.74-.34-3.49-.52-5.23,0-4.99,0-9.97,0-14.96.31-3.26.62-6.52.93-9.77ZM204.98,174.33c-.41-.45-.73-1.04-1.24-1.33-5.97-3.4-12.48-3.93-18.99-2.65-3.14.62-6.01,2.6-9,3.97-2.75,3-5.51,5.99-8.26,8.99-.79.81-1.91,1.48-2.32,2.45-5.36,12.87-6.44,26.07-1.46,39.19,2.31,6.08.81,11.66-.02,17.48-.74,5.25-2.1,10.52-1.97,15.75.1,4.19.55,8.88,4.28,12.08,1.08,1.97,2.08,3.98,3.24,5.89,6.64,10.97,23.13,13.27,34.42,7.02,1.47-.81,2.41-2.58,3.6-3.9.75-.74,1.5-1.48,2.25-2.23,4.53-2.39,6.11-6.55,6.72-11.28.64-.8,1.55-1.5,1.87-2.41,2.15-6.11,2.22-12.27.79-18.61-1.41-6.24-3.12-12.57-1.13-19.03,2.54-8.25,4.11-16.69,2.07-25.19-1.35-5.63-3.87-10.97-5.86-16.44-.5-.25-1-.5-1.49-.76-.5-.75-1-1.49-1.5-2.24-2-2.25-4-4.49-6-6.74Z" style="fill: #522216; stroke-width: 0px;"/>
  <path d="M149.61,249.21c2.73,8.51,4.72,17.36,8.42,25.43,3.45,7.51,8.41,14.54,15.63,19.19,12.45,8.03,23.71,7.44,35.89-3.02,9.9-8.5,15-20.01,18.62-32.24,3.43-11.59,4.13-23.51,4.26-35.5.34,1.08.93,2.15.97,3.24.13,3.46.29,6.94,0,10.38-.57,6.71-1.44,13.39-2.18,20.08-1.27,4.78-2.56,9.56-3.81,14.35-.31,1.18-.48,2.41-.71,3.61-2.18,3.87-4.33,7.75-6.55,11.59-.42.72-1.1,1.28-1.67,1.91-.5.75-1.01,1.49-1.51,2.24,0,0,0,0,0,0-2.09,1.48-4.29,2.83-6.26,4.46-10.88,9-28.41,9.81-39.83-.51-8.94-8.09-14.71-17.83-18.46-29.07-.66-1.97-1.9-3.74-2.88-5.6-.02-.49-.03-.99-.05-1.48-.23-.76-.47-1.51-.7-2.27,0-.5-.02-.99-.03-1.49.28-1.77.56-3.53.84-5.3Z" style="fill: #fdd753; stroke-width: 0px;"/>
  <path d="M147.93,220.07c0,4.99,0,9.97,0,14.96-.46,0-.92,0-1.38,0,0-2.5-.02-5-.02-7.5.47-2.49.93-4.98,1.4-7.47Z" style="fill: #f9c94d; stroke-width: 0px;"/>
  <path d="M149.61,249.21c-.28,1.77-.56,3.53-.84,5.3-.26-2.25-.52-4.51-.78-6.76.48,0,.96,0,1.43.01.06.48.13.96.19,1.45Z" style="fill: #f9c94d; stroke-width: 0px;"/>
  <path d="M146.56,235.03c.46,0,.92,0,1.38,0,.17,1.74.34,3.49.52,5.23-.4,0-.81,0-1.21.01-.23-1.75-.46-3.49-.69-5.24Z" style="fill: #fdd753; stroke-width: 0px;"/>
  <path d="M147.24,240.27c.4,0,.81-.01,1.21-.01.06.75.12,1.51.19,2.26-.22,0-.44.01-.66.03-.25-.76-.49-1.52-.74-2.27Z" style="fill: #f9c94d; stroke-width: 0px;"/>
  <path d="M149.42,247.76c-.48,0-.96,0-1.43-.01.27-1.02.55-2.03.82-3.05.2,1.02.41,2.04.61,3.07Z" style="fill: #fdd753; stroke-width: 0px;"/>
  <path d="M148.8,255.99c.23.76.47,1.51.7,2.27-.24-.25-.48-.5-.72-.76,0-.5.02-1.01.02-1.51Z" style="fill: #f9c94d; stroke-width: 0px;"/>
  <path d="M147.98,242.54c.22-.01.44-.02.66-.03.02.26.04.52.06.77-.24-.25-.48-.5-.71-.75Z" style="fill: #fdd753; stroke-width: 0px;"/>
  <path d="M443.24,554.95c.5-.5,1-1,1.5-1.5-.5.5-1,1-1.5,1.5Z" style="fill: #f6b32f; stroke-width: 0px;"/>
  <path d="M216.97,290.47c.5-.75,1.01-1.49,1.51-2.24-.5.75-1.01,1.49-1.51,2.24Z" style="fill: #f9c94d; stroke-width: 0px;"/>
  <path d="M231.22,256.76c.74-6.69,1.61-13.37,2.18-20.08.29-3.44.13-6.92,0-10.38-.04-1.09-.63-2.16-.97-3.24-.23-3-.46-5.99-.69-8.99.32-.01.63-.02.95-.04,2.22,9.51,9.86,15.47,15.2,22.92,5.41,7.56,11.44,14.67,17.03,22.1,5.74,7.63,10.57,16.1,17.14,22.92,5.48,5.69,9.64,11.83,13.21,18.69,1.5,2.88,4,4.05,7.79,3.3,11.64-2.29,23.4-4.01,35.1-6.03,3.66-.63,7.25-1.68,10.92-2.19,2.38-.33,4.84-.05,7.26-.04,5.46,4.65,11.12,8.97,18.51,10,2.55.35,5.14.35,7.71.51-.69.74-1.25,1.85-2.1,2.16-6.74,2.48-13.61,4.64-20.31,7.22-7.48,2.89-15.22,4.15-23.14,4.91-4.89.47-9.71,1.7-14.56,2.59-.12.02-.24.12-.35.12-7.78-.04-15.85,1.18-23.24-.54-5.45-1.27-10.18-6.14-14.89-9.84-3.99-3.14-7.5-6.91-11.2-10.42-.81-.77-1.88-1.5-2.25-2.47-3.65-9.47-12.31-14.35-18.92-21.14-5.26-5.4-9.52-11.76-14.45-17.5-1.59-1.85-3.92-3.05-5.92-4.55Z" style="fill: #fbde42; stroke-width: 0px;"/>
  <path d="M384.05,306.2c.75-.25,1.5-.49,2.25-.74-.75.25-1.5.49-2.25.74Z" style="fill: #fbde42; stroke-width: 0px;"/>
  <path d="M341.35,185.58c-5.96,3.83-12.98,2.03-19.37,3.67-6.6,1.7-13.24,3.31-19.92,4.65-1.86.37-4.1.06-5.9-.62-9.11-3.48-13.53-11.89-18.75-19.12-12.14-16.8-21.57-35.16-29.8-54.18-3.6-8.32-7.83-16.37-11.79-24.54-3.9-8.03-11.25-12.38-18.27-17.09-8.55-5.73-18.4-7.94-28.15-10.42-2.86-.73-5.56-2.06-8.39-2.96-2.71-.87-5.44-1.7-8.22-2.25-3.7-.73-4.59-2.27-2.48-5.33,5.35-7.76,13-13.03,20.74-17.94,16.84-10.68,35.07-18.43,54.53-22.73,10.85-2.4,22-3.43,33.04-4.95,4.91-.67,9.85-1.38,14.79-1.44,6.83-.08,13.69.18,20.5.78,7.51.66,15.04,1.55,22.45,2.93,11.2,2.08,22.54,3.88,33.37,7.25,12.64,3.93,25.09,8.82,37.1,14.4,13.55,6.3,26.08,14.52,36.97,24.94,5.11,4.9,10.23,9.81,14.95,15.07,2.36,2.63,4.26,5.9,5.51,9.21.67,1.75-.08,4.37-.91,6.3-2.39,5.58-5.23,10.96-7.73,16.5-4.93,10.9-10.53,21.35-19.74,29.33-1.13.98-2.68,1.6-4.14,2.07-4.74,1.52-8.43,3.99-11.95,7.85-2.78,3.05-4.99,7.79-9.96,8.42-1.9.24-4.17.24-5.79-.59-4.83-2.5-9.15-6.14-14.15-8.11-11.41-4.5-23.27.3-30.64,7.97-.38.4-.43,1.12-.64,1.7-.5.5-1,1-1.5,1.5-3.43.68-7.06,5.12-6.73,8.23-3,6.49-6.01,12.99-9.01,19.48ZM298.5,11.96c-.03.11-.06.22-.08.33-2.96.32-5.91.6-8.86.97-10.93,1.35-21.98,2.09-32.76,4.23-15.43,3.07-30.15,8.58-43.94,16.25-4.53,2.52-8.73,5.69-12.79,8.93-1.9,1.51-3.15,4.2-.32,5.99,5.55,3.5,11.1,7.2,17.12,9.71,7.65,3.2,14.02,7.95,20.01,13.4,9.09,8.29,14.09,19.06,18.37,30.33,6.45,16.99,13.26,33.78,24.59,48.36,5.08,6.53,11.97,9.85,19.1,13.1.42.19.99.19,1.45.1,6.68-1.3,13.32-2.82,20.03-3.89,6.84-1.09,13.82-2.79,20.6-2.29,6.91.52,12.56-.57,17.77-4.94,1.99-1.67,4.13-3.23,6.37-4.54,6.22-3.63,12.99-5.4,20.18-5.87,2.03-.13,4.18-.78,5.98-1.75,4.46-2.39,8.62-5.39,13.17-7.58,3.06-1.47,6.62-1.88,9.89-2.95,1.22-.4,2.79-1.06,3.29-2.06,1.72-3.42,3.12-7.01,4.49-10.59,2.86-7.47,5.62-14.98,8.43-22.48.13-.35.37-.65.53-.99,1.51-3.09,3.03-6.18,4.51-9.29,1.01-2.12,1.98-4.26,2.9-6.41,3.41-7.93,3.93-11.07-2.29-17.48-15.36-15.84-34.33-25.74-54.73-33.19-14.46-5.28-29.2-9.6-44.61-11.23-12.81-1.35-25.61-2.77-38.41-4.16Z" style="fill: #fdf797; stroke-width: 0px;"/>
  <path d="M341.35,185.58c3-6.49,6.01-12.99,9.01-19.48,2.24-2.74,4.49-5.49,6.73-8.23.5-.5,1-1,1.5-1.5,3.1-1.99,6.02-4.36,9.33-5.92,10.64-5.02,20.69-3.69,30.04,3.47,7.73,5.92,12.83,13.65,15.98,22.77-1.66-2.39-3.41-4.72-4.96-7.18-4.94-7.87-11.16-14.19-20.11-17.45-10.29-3.74-19.32-.96-27.4,5.6-12.97,10.53-18.32,25.19-21.62,40.9-.15.69-.49,1.34-.74,2.01.35-3.21.63-6.42,1.07-9.62.25-1.81.76-3.59,1.16-5.38Z" style="fill: #fcec71; stroke-width: 0px;"/>
  <path d="M417.66,185.71c-.96-1.79-1.92-3.59-2.88-5.38.96,1.79,1.92,3.59,2.88,5.38Z" style="fill: #fcec71; stroke-width: 0px;"/>
  <path d="M339.09,201.31c-.21.51-.42,1.01-.62,1.52.21-.51.42-1.01.62-1.52Z" style="fill: #fcec71; stroke-width: 0px;"/>
  <path d="M419.99,196.82c-.22-.51-.44-1.01-.66-1.52.22.51.44,1.01.66,1.52Z" style="fill: #fcec71; stroke-width: 0px;"/>
  <path d="M419.16,190.95c-.45-.55-.9-1.09-1.35-1.64.45.55.9,1.09,1.35,1.64Z" style="fill: #fcec71; stroke-width: 0px;"/>
  <path d="M339.93,252.61c.21.89.41,1.78.62,2.66-.21-.89-.41-1.78-.62-2.66Z" style="fill: #fcec71; stroke-width: 0px;"/>
  <path d="M338.97,208.04c-.04.5-.08,1.01-.12,1.51.04-.5.08-1.01.12-1.51Z" style="fill: #f7bd43; stroke-width: 0px;"/>
  <path d="M339.22,249.54c.18.66.37,1.32.55,1.98-.18-.66-.37-1.32-.55-1.98Z" style="fill: #fcec71; stroke-width: 0px;"/>
  <path d="M406.52,191.57c1,2.82,2.37,5.58,2.93,8.48,1.65,8.65.43,17.14-1.22,25.75-.99,5.17-.34,10.79.34,16.12.86,6.81,1.59,13.52-.49,20.2-.25.79-1.02,1.42-1.54,2.13,0-2.11.04-4.23-.02-6.34-.16-5.72-3.61-8.48-9.25-7.89-6.5.67-13.03,1.15-19.57,1.45-5.08.23-10.19-.05-15.28.08-4.81.11-8.1,3.45-8.32,8.24-.1,2.23-.02,4.47-.03,6.71-1-3-2.58-5.95-2.84-9.01-.33-3.89-.17-8.03.81-11.79,2.25-8.63,1.86-16.9-.39-25.52-3.16-12.1-1.52-24.08,3.39-35.58.22-.51.85-.85,1.29-1.26-.12.98-.13,1.99-.37,2.94-1.86,7.28-2.68,14.58-1.16,22.06,1.1,5.46,3.87,8.11,9.26,7.93,12.27-.41,24.54-.81,36.78-1.66,1.76-.12,3.98-2.44,4.85-4.28,1.13-2.36,1.44-5.25,1.5-7.93.08-3.6-.42-7.22-.67-10.82Z" style="fill: #612b1d; stroke-width: 0px;"/>
  <path d="M406.52,191.57c.25,3.61.75,7.22.67,10.82-.06,2.68-.38,5.57-1.5,7.93-.88,1.84-3.09,4.15-4.85,4.28-12.24.85-24.51,1.25-36.78,1.66-5.4.18-8.16-2.47-9.26-7.93-1.51-7.48-.7-14.78,1.16-22.06.24-.95.26-1.96.37-2.94,2-2.25,3.99-4.5,5.99-6.75,3.02-.99,5.97-2.26,9.06-2.93,8.41-1.84,16.67-1.04,24.67,2.16.99,1.01,1.99,2.03,2.98,3.04.24.24.49.48.73.71.03.25.04.5.03.74-1.77-.75-3.52-1.54-5.31-2.23-7.43-2.89-15.05-2.71-22.75-1.45-8.81,1.44-11.03,3.09-12.21,9.6-.35,1.94-.25,3.98-.18,5.96.15,4.21,1.43,5.42,5.71,5.35,1.97-.03,3.94-.46,5.91-.47,8.08-.02,16.21-.46,24.23.25,6.39.57,8.81-1.18,7.37-7.47-.74-3.22-1.83-6.37-2.76-9.54,4.8,2.23,5.41,6.95,6.72,11.26Z" style="fill: #6e3928; stroke-width: 0px;"/>
  <path d="M354.07,266.49c0-2.24-.07-4.48.03-6.71.22-4.8,3.51-8.13,8.32-8.24,5.09-.12,10.2.15,15.28-.08,6.53-.3,13.06-.78,19.57-1.45,5.64-.58,9.08,2.17,9.25,7.89.06,2.11.02,4.23.02,6.34.1,5.31-2.3,9.23-6.71,12.03.05-.37.13-.74.15-1.11.1-1.99.19-3.99.28-5.98-1.98,0-4.03-.35-5.92.06-9.71,2.13-19.4,2.46-29.19.62-1.36-.26-3.7.12-4.21,1.01-.69,1.2-.71,3.75.13,4.69,2.01,2.25,4.43,4.58,7.17,5.64,6.25,2.41,12.97,2.72,19.43,1.04,4.22-1.09,8.1-3.47,12.13-5.27-2.71,5.92-8.38,7.51-13.86,8.83-8.39,2.03-16.39.52-22.97-5.27-3.15-2.77-6.78-5.54-7.37-10.3-.49-.51-.98-1.01-1.47-1.52,0-.74-.02-1.49-.02-2.23Z" style="fill: #6e3928; stroke-width: 0px;"/>
  <path d="M399.78,276.98c-4.03,1.8-7.92,4.18-12.13,5.27-6.45,1.67-13.18,1.37-19.43-1.04-2.74-1.06-5.15-3.39-7.17-5.64-.84-.94-.82-3.49-.13-4.69.51-.88,2.85-1.26,4.21-1.01,9.79,1.84,19.49,1.51,29.19-.62,1.89-.41,3.94-.06,5.92-.06-.09,1.99-.18,3.99-.28,5.98-.02.37-.1.74-.15,1.11-.01.23-.03.47-.04.7Z" style="fill: #7c4834; stroke-width: 0px;"/>
  <path d="M396.05,175.81c-8.01-3.2-16.26-4-24.67-2.16-3.09.68-6.04,1.94-9.06,2.93,5.28-6.28,12.6-6.89,19.92-6.52,3.82.19,7.61,1.7,11.3,2.94,1.04.35,1.69,1.84,2.51,2.81Z" style="fill: #612b1d; stroke-width: 0px;"/>
  <path d="M349.77,278.32c-2.89-.33-2.3-2.55-2.39-4.4.8,1.47,1.59,2.94,2.39,4.4Z" style="fill: #fbe859; stroke-width: 0px;"/>
  <path d="M354.1,268.72c.49.51.98,1.01,1.47,1.52-.49-.51-.98-1.01-1.47-1.52Z" style="fill: #612b1d; stroke-width: 0px;"/>
  <path d="M347.41,273.96c-.26-.51-.52-1.02-.79-1.53.26.51.52,1.02.79,1.53Z" style="fill: #fbe859; stroke-width: 0px;"/>
  <path d="M346.64,272.47c-.25-.57-.49-1.13-.74-1.7.25.57.49,1.13.74,1.7Z" style="fill: #fbe859; stroke-width: 0px;"/>
  <path d="M345.02,268.75c-.21-.52-.43-1.05-.64-1.57.21.52.43,1.05.64,1.57Z" style="fill: #fbe859; stroke-width: 0px;"/>
  <path d="M344.4,267.22c-.24-.59-.48-1.17-.72-1.76.24.59.48,1.17.72,1.76Z" style="fill: #fbe859; stroke-width: 0px;"/>
  <path d="M345.72,270.25c-.19-.35-.37-.69-.56-1.04.19.35.37.69.56,1.04Z" style="fill: #fbe859; stroke-width: 0px;"/>
  <path d="M399.77,179.56c-.24-.24-.49-.48-.73-.71.24.24.49.48.73.71Z" style="fill: #7c4834; stroke-width: 0px;"/>
  <path d="M232.68,214.04c-.32.01-.63.02-.95.04-.36-2.26-.72-4.52-1.07-6.78,0,0,.31,0,.31,0l.31-.02,1.4,6.76Z" style="fill: #f9ca36; stroke-width: 0px;"/>
  <path d="M230.47,205.08c-.12-.37-.24-.74-.36-1.1.13-.65.26-1.29.39-1.94,2.06,1.03,2.07,2.05-.03,3.04Z" style="fill: #f9ca36; stroke-width: 0px;"/>
  <path d="M230.4,199.81c-.22-.75-.45-1.51-.67-2.26.23.75.45,1.51.67,2.26Z" style="fill: #f9ca36; stroke-width: 0px;"/>
  <path d="M231.28,207.28l-.31.02s-.31,0-.31,0c-.02-.25-.05-.51-.07-.76.23.25.46.5.69.74Z" style="fill: #f4a023; stroke-width: 0px;"/>
  <path d="M208.83,380.33c-3.32-1.37-6.65-2.74-9.97-4.12-.21-1.72-.43-3.43-.64-5.14-.88-7.24-3.6-13.98-8.25-19.31-8.83-10.1-20.01-15.5-33.93-14.15-8.42.82-15.89,3.99-21.58,9.87-8.02,8.27-13.45,18.33-17.26,29.29-1.26,3.62-3.55,6.88-5.49,10.24-.39.68-1.48.92-2.02,1.55-.81.96-2.11,2.15-2.01,3.13.57,5.78,1.57,11.52,2.23,17.29.37,3.22,1.21,6.76.25,9.63-.78,2.33-4.07,3.74-5.94,5.84-1.19,1.34-1.87,3.15-2.63,4.82-.86,1.88-1.54,3.84-2.3,5.76l-1.68.35c1.3-5.14-.94-7.5-4.55-8.34-2.38,2.02-4.46,3.74-6.48,5.52-2.63,2.32-4.85,4.7-5.37,8.59-.75,5.63-2.5,11.13-3.24,16.76-.42,3.17-.57,6.92.73,9.67,2.85,6.03,6.26,11.92,10.24,17.26,8.69,11.65,17.57,23.22,29.13,32.33,9.45,7.44,18.47,15.51,28.39,22.25,10.15,6.89,20.94,12.95,31.87,18.55,9.47,4.85,19.37,9.02,29.4,12.58,9.56,3.38,19.52,5.65,29.34,8.27,16.59,4.44,33.55,6.75,50.65,7.55,19.66.92,39.22-.56,58.7-3.61,14.16-2.22,28.02-5.64,41.46-10.38,21.75-7.66,42.77-17.01,61.37-30.96,9.83-7.37,19.8-14.63,28.96-22.78,12.75-11.35,24.42-23.91,34.19-37.93,8.87-12.73,17.39-25.8,24.8-39.41,7.3-13.43,11.57-28.26,15.98-42.91.95-3.17,1.28-6.56,1.6-9.88.33-3.4-.04-6.88.49-10.24,1-6.28.96-12.4-.85-18.12-3.07,2.75-6.18,5.48-9.2,8.31-.5.46-.52,1.4-.91,2.02-2.35,3.72-3.79,8.15-8.37,10.11-1.06.45-2,1.55-2.63,2.58-1.93,3.13-3.98,5.94-7.75,7.14-1,.32-1.9,1.63-2.4,2.69-1.52,3.24-3.03,6.27-7.24,6.62-.8.07-1.53,1.13-2.25,1.78-3.4,3.03-5.19,7.48-9.74,9.65-3.8,1.82-3.78,3.94-1.47,7.68.47.76.84,1.59,1.13,2.16-3.15.82-5.98,1.56-9.02,2.35q2.92,5.7-2.25,8.3c-1.22.62-2.38,1.35-3.58,2.01-1.96,1.07-3.94,2.1-5.88,3.2-2.63,1.49-5.22,3.04-7.83,4.55-1.23.71-2.41,1.66-3.74,2-4.16,1.07-8.46,1.65-12.53,2.96-1.22.39-1.88,2.51-2.8,3.84-5.46-.08-10.77-.21-15.73,3.16-2.52,1.71-6.02,2.09-9.14,2.79-3.96.89-7.98,1.49-11.97,2.23-1.33.25-2.66.79-3.99.76-8.56-.18-17.11-.41-25.66-.76-2.95-.12-5.98-.28-8.82-1.02-6.54-1.7-12.93-4.22-19.89-2.71,1.09-.77,2.13-1.65,3.29-2.31,3.45-1.97,7.04-3.71,10.42-5.8,14.26-8.82,26.72-19.82,38.09-32.07,2.2-2.38,3.86-5.26,5.77-7.9l.03.1c1.01-1.27,2.01-2.54,3.02-3.81l.03.1c.26-.27.52-.54.78-.82l-.08.04,1.55-2.29v.08c.28-.5.55-1,.83-1.5l-.02.02c.48-.53.97-1.07,1.45-1.6v.08c.25-.27.51-.55.78-.82,0,0-.14-.07-.14-.07.31.06.62.11.94.17,6.9,4.75,13.68,3.71,20.61-.14,8.2-4.55,13.26-11.34,12.82-20.68-.72-15.2-11.06-27.65-28.8-25.69-9.82,1.09-18.8,10.51-18.83,20.36-2.51,1.16-5.03,2.33-7.54,3.49.51-2.82.53-5.84,1.6-8.43,4.26-10.29,11.15-18.35,22.59-20.15,12.9-2.03,24.33,1.4,33.07,11.96,5.87,7.09,9.01,15.35,11.7,23.95.99,3.16,2.46,6.23,4.11,9.11,1.81,3.17,4.43,3.53,7.98,2.1,2.26-.91,4.78-1.15,7.11-1.92,1.82-.6,3.64-1.37,5.24-2.4,1.86-1.2,3.29-3.21,5.26-4.08,4.72-2.1,7.87-5.76,11.42-9.3,11.13-11.08,16.72-25.05,22.03-39.28,4.03-10.8,6.91-21.87,8.73-33.26.28-1.73,1.57-3.77,3.01-4.74,4.19-2.81,8.37-5.9,13.85-5.81,7.38.12,13.4,5.86,13.07,13.21-.49,11.03-2.15,22.05-1.94,33.05.23,12.01-2.93,23.26-5.57,34.64-4.88,21-11.99,41.28-21.3,60.75-8.88,18.58-19.7,35.99-32.25,52.3-3.55,4.62-7.74,8.75-11.49,13.22-2.63,3.13-4.7,6.78-7.57,9.63-5.46,5.43-11.06,10.79-17.08,15.59-9.79,7.82-19.64,15.64-30.05,22.6-13.46,9-27.97,16.14-42.91,22.53-14.59,6.24-29.74,10.59-45.05,14.19-12.13,2.85-24.65,4.08-37.05,5.69-6.88.89-13.88,1.77-20.77,1.42-14.72-.75-29.45-1.93-44.09-3.64-10.32-1.2-20.71-2.81-30.68-5.6-11.32-3.16-22.39-7.42-33.24-11.98-10.09-4.23-19.9-9.2-29.56-14.35-14.42-7.69-27.72-17.1-39.94-27.96-7.26-6.45-14.56-12.89-21.26-19.89-6.17-6.44-12.2-13.19-17.19-20.56-7.57-11.19-14.1-23.07-18.17-36.12-.79-2.55-.84-4.66.68-7.05,2.87-4.51.39-9.43.55-14.16.06-1.57-.22-3.2.13-4.7,1.83-7.84,3.82-15.63,5.74-23.45.18-.72.5-1.55.29-2.18-2.16-6.54.77-12.18,3.03-17.97.67-1.72,1.67-3.64,1.43-5.33-.98-7.03,2.18-12.55,5.83-18,.76-1.13,1.47-2.32,2.04-3.56,1.58-3.42,3.84-4.6,7.34-2.92,3.95,1.9,7.14,1.66,10.05-1.69.39-.45,1-.85,1.57-.97,8.52-1.71,14.12-8.52,21.49-12.23,7.96-4.01,15.87-7.44,25.39-6.67,7.35.6,14.51,1.31,21.26,4.17,14.56,6.17,24.28,16.96,29.34,31.92,1.3,3.85,2.52,7.74,3.58,11.67.29,1.06-.17,2.33-.28,3.5Z" style="fill: #f4a023; stroke-width: 0px;"/>
  <path d="M455.97,450.05c.92-1.33,1.58-3.45,2.8-3.84,4.08-1.3,8.37-1.89,12.53-2.96,1.33-.34,2.51-1.29,3.74-2,2.62-1.51,5.21-3.06,7.83-4.55,1.94-1.1,3.92-2.13,5.88-3.2,1.2-.66,2.36-1.39,3.58-2.01q5.17-2.61,2.25-8.3c3.04-.79,5.86-1.53,9.02-2.35-.29-.57-.66-1.39-1.13-2.16-2.31-3.74-2.33-5.87,1.47-7.68,4.55-2.18,6.34-6.62,9.74-9.65.73-.65,1.46-1.72,2.25-1.78,4.22-.35,5.73-3.38,7.24-6.62.5-1.06,1.4-2.37,2.4-2.69,3.77-1.21,5.83-4.02,7.75-7.14.63-1.02,1.57-2.13,2.63-2.58,4.58-1.95,6.03-6.38,8.37-10.11.39-.62.41-1.55.91-2.02,3.02-2.82,6.13-5.55,9.2-8.31,1.81,5.72,1.84,11.85.85,18.12-.53,3.35-.16,6.84-.49,10.24-.32,3.32-.65,6.71-1.6,9.88-4.4,14.65-8.67,29.48-15.98,42.91-7.4,13.61-15.93,26.68-24.8,39.41-9.76,14.02-21.44,26.58-34.19,37.93-9.16,8.15-19.13,15.41-28.96,22.78-18.6,13.94-39.62,23.3-61.37,30.96-13.45,4.74-27.3,8.16-41.46,10.38-19.48,3.05-39.04,4.53-58.7,3.61-17.1-.8-34.06-3.12-50.65-7.55-9.82-2.63-19.78-4.89-29.34-8.27-10.03-3.55-19.93-7.73-29.4-12.58-10.93-5.59-21.72-11.65-31.87-18.55-9.92-6.74-18.94-14.81-28.39-22.25-11.56-9.11-20.44-20.67-29.13-32.33-3.99-5.34-7.39-11.23-10.24-17.26-1.3-2.75-1.15-6.49-.73-9.67.74-5.63,2.49-11.13,3.24-16.76.52-3.88,2.74-6.27,5.37-8.59,2.02-1.78,4.1-3.5,6.48-5.52,3.61.84,5.86,3.2,4.55,8.34l1.68-.35c.76-1.92,1.45-3.88,2.3-5.76.76-1.67,1.45-3.48,2.63-4.82,1.86-2.1,5.16-3.5,5.94-5.84.95-2.87.11-6.41-.25-9.63-.66-5.77-1.66-11.51-2.23-17.29-.1-.98,1.2-2.17,2.01-3.13.54-.64,1.63-.88,2.02-1.55,1.94-3.35,4.23-6.62,5.49-10.24,3.81-10.96,9.24-21.02,17.26-29.29,5.7-5.88,13.17-9.05,21.58-9.87,13.92-1.35,25.09,4.05,33.93,14.15,4.66,5.32,7.37,12.07,8.25,19.31.21,1.72.42,3.43.64,5.14-1.47-.59-2.93-1.18-4.4-1.77-.85-10.34-3.69-19.72-12.43-26.35-5.81-4.41-12.39-6.99-19.58-7.35-12.34-.62-21.8,4.83-28.66,14.94-5.03,7.42-7.31,15.75-6.6,24.59.34,4.22,2.54,8.26,3.29,12.49.96,5.4,3.59,9.37,8.1,12.36,2.24,1.49,5.25,3.01,6.07,5.2,1.43,3.82,4.04,4.25,7.19,4.52,1.36.11,2.73.26,4.09.24,4.59-.08,9.25,1.19,13.65-1.52,3.41-2.09,7.14-3.66,10.72-5.47,1.08,1.02,2.27,1.94,3.22,3.07,7.4,8.87,15.49,17.08,24.74,23.97,8.41,6.27,17.27,11.95,25.93,17.88-2.77.13-5.58.64-8.29.31-4.78-.58-9.48-1.75-14.24-2.53-5.38-.88-10.72-1.45-15.67-4.3-2.46-1.42-5.8-1.76-8.75-1.75-2.88,0-5.19-.33-7.59-2.18-2.71-2.1-5.78-4.1-9.01-5.09-6.41-1.96-13.03-3.23-19.58-4.72-1.56-.35-3.37-1.04-4.73-.57-4.74,1.62-8.43-.61-12.34-2.55-1.51-.75-3.29-.97-5.86-1.68.47,3.96.26,7.08,1.33,9.68.97,2.38,1.55,3.9-.6,5.83-2.11,1.9-1.07,4.96.7,5.26,5.17.86,4.17,5.13,5.73,7.6-1.51,1.22-2.86,1.91-3.6,3.01-1.09,1.64-1.93,3.52-2.54,5.41-.5,1.54-.81,3.26-.67,4.85.35,3.73,1.14,7.41,1.54,11.14.54,5.03-.57,10.43,3.97,14.44.48.43.16,2.43-.41,3.28-2.79,4.13-1.97,7.07,2.53,9.56.95.52,1.4,2.24,1.75,3.5.57,2.04.22,4.7,1.41,6.13,3.61,4.32,7.55,8.45,11.78,12.17,11.72,10.32,24.83,18.73,38.58,25.99,16.35,8.64,33.78,14.74,51.78,18.77,13.75,3.08,27.7,5.56,41.69,7.12,9.92,1.11,20.09.65,30.11.13,10.13-.52,20.32-1.34,30.29-3.16,16.12-2.94,31.88-7.35,47.26-13.22,15.53-5.93,30.34-13.28,44.37-22.01,13.79-8.57,26.56-18.69,38.11-30.19,6.7-6.67,13.47-13.31,19.59-20.49,4.64-5.45,8.68-11.52,12.29-17.72,3.12-5.34,5.27-11.24,7.81-16.91.32-.72.39-1.55.81-3.33-2.02,1.02-3.33,1.51-4.45,2.28-1.53,1.06-2.77,2.59-4.38,3.45-3.31,1.77-6.38,4.92-10.63,3.38-6.65-2.41-13.19-.44-19.48.89-6.92,1.46-12.01-1.08-12.22-7.99,1.67.17,3.3.33,4.93.49-3.25-3.59-6.77-6.49-11.57-7.25Z" style="fill: #f29522; stroke-width: 0px;"/>
  <path d="M163.12,381.86c4.3.82,5.59,4.92,8.12,7.61,7.77,8.29,15.59,16.58,26.23,21.11,8.3,3.54,16.94,6.29,25.43,9.39,14.96,5.46,30.39,8.94,46.22,10.58,7.02.73,14.08,1.24,21.13,1.46,7.91.25,15.86.42,23.75-.04,9.87-.57,19.72-1.67,29.55-2.8,17.62-2.02,34.35-7.51,50.82-13.74,8.27-3.12,16.09-7.33,22.22-14.03,5.11-5.59,10.19-11.21,15.36-16.76.81-.87,1.97-1.41,2.97-2.1,0,0,.18.18.18.18-.06.45-.12.9-.18,1.35l-.1-.07c-1.69,2.44-3.39,4.87-5.08,7.31-.24.36-.49.71-.73,1.07h0c-.28.48-.55.98-.83,1.48l.05-.05c-.26.27-.53.54-.79.8l.03-.05c-.3.46-.61.92-.91,1.38,0,0,.14.07.14.07-.26.27-.52.55-.78.82,0,0,0-.08,0-.08-.48.53-.97,1.07-1.45,1.6,0,0,.02-.02.02-.02-.28.5-.55,1-.83,1.5,0,0,0-.08,0-.08-.52.76-1.03,1.53-1.55,2.29,0,0,.08-.04.08-.04-.26.27-.52.54-.78.82,0,0-.03-.1-.03-.1-1.01,1.27-2.01,2.54-3.02,3.81,0,0-.03-.1-.03-.1-4.68,4.54-9.19,9.26-14.09,13.56-4.91,4.31-10.19,8.19-15.3,12.25-.64.47-1.27.95-1.91,1.42l-.13.14-.19-.06c-.64.48-1.28.96-1.92,1.44l-.31.07c-2.15.44-4.48.49-6.43,1.38-19.78,8.93-40.62,14.13-62.12,15.41-14.69.87-29.57-.16-44.28-1.35-16.63-1.35-32.63-5.91-48.11-12.23-2.22-.91-4.72-1.13-7.1-1.67l-.28-.03c-.65-.49-1.3-.99-1.95-1.48,0,0-.29-.04-.29-.04-.65-.49-1.3-.98-1.94-1.47-1.29-.7-2.78-1.18-3.84-2.14-8.3-7.52-16.52-15.14-24.78-22.71-.95-.87-2.04-1.6-3.07-2.4v.05c-1-1.26-2.01-2.52-3.02-3.78l.02.04c-.26-.26-.52-.53-.78-.79l.04.04c-.51-.76-1.02-1.52-1.53-2.28l.02.04-.79-.79s.09-.02.09-.02c-.5-.81-.99-1.62-1.49-2.42-2.01-2.77-4.02-5.54-6.03-8.3-1.24-2.15-2.49-4.29-3.73-6.44Z" style="fill: #522216; stroke-width: 0px;"/>
  <path d="M180.31,408.09c-3.59,1.8-7.31,3.37-10.72,5.47-4.4,2.71-9.07,1.44-13.65,1.52-1.36.02-2.73-.12-4.09-.24-3.15-.26-5.76-.69-7.19-4.52-.82-2.19-3.82-3.72-6.07-5.2-4.52-2.99-7.15-6.95-8.1-12.36-.75-4.23-2.95-8.27-3.29-12.49-.71-8.84,1.57-17.17,6.6-24.59,6.86-10.11,16.32-15.55,28.66-14.94,7.19.36,13.77,2.94,19.58,7.35,8.75,6.63,11.58,16.02,12.43,26.35-1.74-.77-3.48-1.55-5.22-2.32-.38-16.71-11.71-26.21-26.94-26.87-9.56-.41-16.66,4.27-22.27,11.95-10.81,14.8-4.47,31.99,7.51,40.62,7.81,5.62,17.03,6.5,25.96,1.29.29-.02.57-.05.86-.07,0,0-.09.02-.09.02.26.26.52.53.78.79,0,0-.02-.04-.02-.04.51.76,1.02,1.52,1.53,2.28,0,0-.04-.04-.04-.04.26.26.52.53.78.79,0,0-.02-.04-.02-.04,1.01,1.26,2.01,2.52,3.02,3.78,0,0,0-.05,0-.05,0,.52,0,1.04,0,1.56Z" style="fill: #f18e1d; stroke-width: 0px;"/>
  <path d="M173.51,399.1c-8.93,5.21-18.16,4.33-25.96-1.29-11.99-8.63-18.33-25.81-7.51-40.62,5.61-7.68,12.71-12.36,22.27-11.95,15.23.66,26.56,10.16,26.94,26.87-2.26-1.22-4.52-2.43-6.78-3.65-.41-8.31-6.66-14.96-16.05-17.06-7.22-1.62-16.38,2.83-19.88,9.4-8.03,15.08.71,27.21,15.14,30.68,3.71.89,5.13-.13,5.17-3.2,2.01,2.77,4.02,5.54,6.03,8.3.21.83.42,1.66.63,2.5Z" style="fill: #f18617; stroke-width: 0px;"/>
  <path d="M429.74,391.31c1.69-2.44,3.39-4.87,5.08-7.31-.41,2.72.61,3.98,3.25,2.66,3.04-1.52,6.25-2.98,8.78-5.17,6.51-5.65,5.58-14.56.7-20.42-7.05-8.46-17.01-6.4-22.18-1.94-1.87,1.61-2.61,4.53-3.87,6.84-2.73,1.33-5.46,2.66-8.2,4,.03-9.85,9-19.28,18.83-20.36,17.73-1.96,28.08,10.49,28.8,25.69.44,9.34-4.62,16.13-12.82,20.68-6.93,3.84-13.71,4.88-20.61.14,0-.52-.02-1.03-.03-1.55,0,0-.03.05-.03.05.26-.27.53-.54.79-.8,0,0-.05.05-.05.05.28-.5.55-.99.83-1.49,0,0,0,.01,0,.01.24-.36.49-.71.73-1.07Z" style="fill: #f18e1d; stroke-width: 0px;"/>
  <path d="M166.85,388.3c-.04,3.07-1.46,4.09-5.17,3.2-14.43-3.47-23.17-15.6-15.14-30.68,3.5-6.57,12.66-11.02,19.88-9.4,9.39,2.1,15.64,8.74,16.05,17.06-2.04-.85-4.05-1.83-6.14-2.53-5.02-1.69-10.27-.26-13.36,3.81-3.03,3.99-1.31,8.09.15,12.12,1.24,2.15,2.49,4.29,3.73,6.44Z" style="fill: #f07d14; stroke-width: 0px;"/>
  <path d="M421.5,365.97c1.26-2.32,2-5.23,3.87-6.84,5.17-4.47,15.13-6.52,22.18,1.94,4.89,5.86,5.81,14.77-.7,20.42-2.52,2.19-5.74,3.65-8.78,5.17-2.64,1.32-3.66.06-3.25-2.66,0,0,.1.07.1.07.26-.49.53-.97.79-1.46l.02-.02c.23-.32.47-.64.7-.97-.02-.42-.04-.84-.06-1.26.26-2.73.53-5.46.79-8.18.11-.05.22-.14.34-.15.1,0,.29.07.3.12.16,1.88.31,3.77.48,6.01,4.11-1.48,6.04-4.25,6.38-7.87.41-4.37-3.02-6.65-6.08-8.61-2.84-1.81-5.95-.91-8.68.94-1.01.69-1.95,1.47-2.93,2.21-1.83.38-3.65.75-5.48,1.13Z" style="fill: #f18617; stroke-width: 0px;"/>
  <path d="M426.98,364.85c.97-.74,1.92-1.52,2.93-2.21,2.72-1.85,5.84-2.76,8.68-.94,3.06,1.96,6.49,4.23,6.08,8.61-.34,3.61-2.26,6.39-6.38,7.87-.18-2.25-.32-4.13-.48-6.01,0-.05-.2-.13-.3-.12-.11,0-.22.09-.34.15-1.78-4.68-5.35-6.89-10.19-7.33Z" style="fill: #f07d14; stroke-width: 0px;"/>
  <path d="M357.14,389.75c.29-3.32,2.09-1.21,3.38-.93-1.12.31-2.25.62-3.38.93Z" style="fill: #f6b32f; stroke-width: 0px;"/>
  <path d="M436.37,380.36c.02.42.04.84.06,1.26-.23.32-.47.64-.7.97,0,0-.02.02-.02.02-.2.03-.41.07-.61.11,0,0-.18-.18-.18-.18.49-.73.97-1.46,1.46-2.18Z" style="fill: #522216; stroke-width: 0px;"/>
  <path d="M166,270.25c-3.73-3.2-4.17-7.89-4.28-12.08-.13-5.23,1.23-10.5,1.97-15.75.82-5.82,2.33-11.39.02-17.48-4.99-13.12-3.91-26.32,1.46-39.19.4-.97,1.53-1.64,2.32-2.45-.22.7-.42,1.42-.67,2.11-2.88,8.05-3.35,16.22-1,24.47.9,3.15,2.5,5.77,6.38,5.65,7.94-.25,15.88-.5,23.81-.78,4.07-.14,8.19-.79,12.2-.38,3.72.38,6.47-.77,7.39-3.98,1.09-3.8,1.7-7.97,1.38-11.89-.39-4.86-1.95-9.63-3.01-14.45,1.99,5.47,4.51,10.82,5.86,16.44,2.04,8.49.47,16.93-2.07,25.19-1.99,6.47-.28,12.79,1.13,19.03,1.43,6.34,1.35,12.5-.79,18.61-.32.91-1.23,1.61-1.87,2.41.2-1.22.52-2.43.57-3.65.24-5.74-1.27-11.55-8.81-10.59-1.84.23-3.67.66-5.51.72-9.81.31-19.63.63-29.44.73-4.11.04-7.09,1.87-7.6,5.69-.5,3.77.33,7.72.57,11.6Z" style="fill: #612b1d; stroke-width: 0px;"/>
  <path d="M166,270.25c-.25-3.87-1.08-7.83-.57-11.6.51-3.82,3.49-5.64,7.6-5.69,9.82-.11,19.63-.42,29.44-.73,1.84-.06,3.67-.48,5.51-.72,7.54-.96,9.05,4.85,8.81,10.59-.05,1.22-.37,2.43-.57,3.65-.61,4.73-2.19,8.88-6.72,11.27.1-.48.25-.96.31-1.45.24-2,.44-4.01.66-6.02-2-.04-4.07-.41-6-.05-9.84,1.82-19.66,2.28-29.56.38-1.14-.22-3.01.11-3.55.88-.72,1.04-1.1,3.1-.53,4.1,1.04,1.85,2.6,4.01,4.44,4.69,4.24,1.57,8.74,2.67,13.22,3.32,6.58.95,12.73-1.18,18.74-3.64-1.19,1.32-2.13,3.09-3.6,3.9-11.29,6.26-27.78,3.95-34.42-7.02-1.16-1.91-2.16-3.92-3.24-5.89Z" style="fill: #6e3928; stroke-width: 0px;"/>
  <path d="M210.98,181.07c.5.75,1,1.5,1.5,2.24.46,3.05.89,6.11,1.39,9.15.82,4.98-1.84,8.19-5.85,8.07-9.52-.29-19.07-.24-28.6-.05-9.07.19-9.52.76-10.91-6.69-1.04-5.57,1-14.49,7.32-16.41,9.63-2.93,19.27-3.35,28.84.03,2.25.8,4.21,2.41,6.31,3.65Z" style="fill: #7c4834; stroke-width: 0px;"/>
  <path d="M210.98,181.07c-2.1-1.24-4.06-2.86-6.31-3.65-9.57-3.39-19.21-2.96-28.84-.03-6.31,1.92-8.35,10.84-7.32,16.41,1.39,7.45,1.84,6.88,10.91,6.69,9.53-.2,19.07-.25,28.6.05,4.01.12,6.67-3.09,5.85-8.07-.5-3.04-.93-6.1-1.39-9.15.5.25,1,.5,1.49.76,1.06,4.81,2.61,9.58,3.01,14.45.32,3.92-.3,8.08-1.38,11.89-.92,3.21-3.67,4.36-7.39,3.98-4.01-.41-8.13.23-12.2.38-7.94.28-15.87.53-23.81.78-3.88.12-5.48-2.5-6.38-5.65-2.34-8.25-1.88-16.41,1-24.47.25-.69.44-1.41.67-2.11,2.75-3,5.51-5.99,8.26-8.99,5.2-.75,10.4-2.03,15.61-2.07,4.53-.04,9.08,1.33,13.62,2.08,2,2.25,4,4.49,6,6.74Z" style="fill: #6e3928; stroke-width: 0px;"/>
  <path d="M207.25,279.25c-6.01,2.46-12.17,4.6-18.74,3.64-4.48-.65-8.98-1.75-13.22-3.32-1.84-.68-3.4-2.84-4.44-4.69-.57-1.01-.2-3.06.53-4.1.54-.77,2.41-1.1,3.55-.88,9.89,1.9,19.71,1.44,29.56-.38,1.93-.36,4,.01,6,.05-.22,2.01-.43,4.01-.66,6.02-.06.49-.2.96-.31,1.45-.75.74-1.5,1.49-2.25,2.23Z" style="fill: #7c4834; stroke-width: 0px;"/>
  <path d="M204.98,174.33c-4.54-.75-9.08-2.12-13.62-2.08-5.21.04-10.41,1.33-15.61,2.07,2.99-1.37,5.86-3.35,9-3.97,6.52-1.29,13.02-.76,18.99,2.65.5.29.83.88,1.24,1.33Z" style="fill: #612b1d; stroke-width: 0px;"/>
  <path d="M298.5,11.96c12.8,1.39,25.6,2.8,38.41,4.16,15.41,1.63,30.15,5.96,44.61,11.23,20.41,7.44,39.37,17.35,54.73,33.19,6.22,6.42,5.7,9.56,2.29,17.48-.93,2.16-1.9,4.29-2.9,6.41-1.48,3.11-3,6.2-4.51,9.29-.16.34-.4.64-.53.99-2.81,7.49-5.57,15-8.43,22.48-1.37,3.58-2.77,7.17-4.49,10.59-.5,1-2.07,1.66-3.29,2.06-3.27,1.07-6.83,1.48-9.89,2.95-4.55,2.19-8.71,5.19-13.17,7.58-1.8.96-3.95,1.61-5.98,1.75-7.19.47-13.96,2.24-20.18,5.87-2.24,1.31-4.38,2.87-6.37,4.54-5.21,4.37-10.87,5.46-17.77,4.94-6.77-.51-13.76,1.2-20.6,2.29-6.71,1.07-13.35,2.59-20.03,3.89-.46.09-1.04.09-1.45-.1-7.13-3.24-14.02-6.56-19.1-13.1-11.33-14.58-18.15-31.37-24.59-48.36-4.28-11.27-9.28-22.04-18.37-30.33-5.98-5.46-12.36-10.21-20.01-13.4-6.01-2.51-11.56-6.21-17.12-9.71-2.84-1.79-1.59-4.47.32-5.99,4.07-3.23,8.27-6.41,12.79-8.93,13.78-7.67,28.51-13.19,43.94-16.25,10.77-2.14,21.83-2.89,32.76-4.23,2.95-.36,5.91-.65,8.86-.97.03-.11.06-.22.08-.33ZM302.72,15.75c-7.9.72-13.75.97-19.5,1.83-8.93,1.34-17.92,2.64-26.66,4.84-6.19,1.56-12.25,4.12-17.92,7.07-5.45,2.84-5.39,4.31-1.75,9.21,4.95,6.69,10.52,13.01,14.73,20.13,8.36,14.13,15.97,28.72,23.93,43.09,1.5,2.72,2.68,5.87,4.86,7.9,5.41,5.04,11.38,9.47,16.98,14.31,1.6,1.38,2.77,1.36,4.64.63,6.54-2.56,13.06-5.35,19.82-7.14,10.5-2.79,21.14-5.16,31.84-7.1,8.02-1.45,16.24-1.82,24.32-2.97,1.83-.26,4.21-1.37,5.09-2.84,4.93-8.19,9.29-16.73,14.2-24.93,4.97-8.31,10.28-16.41,15.59-24.52,1.54-2.35,1.83-4.52-.33-6.29-3.26-2.66-6.56-5.42-10.24-7.38-20.35-10.81-41.69-18.8-64.7-21.7-12.29-1.55-24.59-2.92-34.9-4.13Z" style="fill: #fdf9a5; stroke-width: 0px;"/>
  <path d="M357.09,157.87c-2.24,2.74-4.49,5.49-6.73,8.23-.33-3.11,3.3-7.56,6.73-8.23Z" style="fill: #fded87; stroke-width: 0px;"/>
  <path d="M399.8,180.31c.93,3.18,2.02,6.32,2.76,9.54,1.44,6.29-.98,8.04-7.37,7.47-8.02-.71-16.15-.27-24.23-.25-1.97,0-3.94.43-5.91.47-4.28.07-5.56-1.14-5.71-5.35-.07-1.99-.17-4.03.18-5.96,1.18-6.51,3.4-8.15,12.21-9.6,7.7-1.26,15.32-1.44,22.75,1.45,1.79.7,3.54,1.49,5.31,2.23,0,0,0,0,0,0Z" style="fill: #7c4834; stroke-width: 0px;"/>
  <path d="M455.97,450.05c4.81.76,8.33,3.66,11.57,7.25-1.63-.16-3.26-.33-4.93-.49.21,6.91,5.29,9.45,12.22,7.99,6.29-1.32,12.83-3.3,19.48-.89,4.24,1.54,7.32-1.61,10.63-3.38,1.61-.86,2.85-2.39,4.38-3.45,1.12-.77,2.44-1.27,4.45-2.28-.42,1.77-.49,2.61-.81,3.33-2.54,5.67-4.7,11.57-7.81,16.91-3.62,6.2-7.65,12.27-12.29,17.72-6.12,7.18-12.89,13.83-19.59,20.49-11.55,11.5-24.33,21.61-38.11,30.19-14.03,8.73-28.84,16.08-44.37,22.01-15.38,5.87-31.14,10.29-47.26,13.22-9.96,1.82-20.16,2.64-30.29,3.16-10.02.52-20.19.98-30.11-.13-13.99-1.56-27.95-4.05-41.69-7.12-18.01-4.03-35.43-10.14-51.78-18.77-13.75-7.27-26.86-15.67-38.58-25.99-4.23-3.73-8.17-7.85-11.78-12.17-1.2-1.43-.84-4.09-1.41-6.13-.35-1.26-.8-2.97-1.75-3.5-4.5-2.49-5.32-5.43-2.53-9.56.57-.85.9-2.85.41-3.28-4.54-4.01-3.43-9.41-3.97-14.44-.4-3.72-1.19-7.41-1.54-11.14-.15-1.59.17-3.32.67-4.85.61-1.89,1.44-3.76,2.54-5.41.73-1.1,2.09-1.79,3.6-3.01-1.56-2.47-.56-6.73-5.73-7.6-1.76-.29-2.8-3.36-.7-5.26,2.15-1.94,1.57-3.45.6-5.83-1.06-2.6-.85-5.72-1.33-9.68,2.58.71,4.35.93,5.86,1.68,3.91,1.94,7.6,4.17,12.34,2.55,1.36-.46,3.17.22,4.73.57,6.55,1.49,13.17,2.76,19.58,4.72,3.23.99,6.3,2.99,9.01,5.09,2.39,1.85,4.71,2.18,7.59,2.18,2.94,0,6.29.33,8.75,1.75,4.95,2.85,10.29,3.42,15.67,4.3,4.76.78,9.46,1.95,14.24,2.53,2.71.33,5.52-.18,8.29-.31,3.53,1.53,7.04,3.11,10.6,4.58,12.93,5.33,26.28,8.96,40.32,9.76.76.23,1.52.45,2.28.68,3.24.02,6.48.04,9.71.06,2.01,2.31,4.02,2.31,6.04,0,2.74-.02,5.48-.04,8.22-.07.76-.23,1.52-.45,2.28-.68,1.49-.02,2.98-.05,4.47-.07.51-.23,1.02-.45,1.53-.68,6.77-1.41,13.67-2.38,20.28-4.34,7.1-2.1,13.92-5.12,20.86-7.74,6.97-1.51,13.35,1.01,19.89,2.71,2.84.74,5.86.9,8.82,1.02,8.55.35,17.11.59,25.66.76,1.32.03,2.65-.52,3.99-.76,3.99-.74,8.01-1.34,11.97-2.23,3.12-.7,6.62-1.08,9.14-2.79,4.96-3.37,10.27-3.24,15.73-3.16ZM436.93,522c-.21-.47-.43-.95-.64-1.42-1.32-.2-2.64-.42-3.97-.58-1.02-.12-2.05-.14-3.08-.2.2-1.16.33-2.35.63-3.49.3-1.12.77-2.2,1.17-3.3-1.37-.39-2.72-1-4.11-1.11-.92-.08-1.98.95-2.82.76-1.37-.31-2.61-1.2-3.9-1.85.72-1.03,1.32-2.18,2.19-3.07.67-.69,2.19-.9,2.41-1.6.45-1.44.68-4.32.3-4.44-2.81-.92-6.23-2.47-8.62-1.58-3.82,1.42-5.77-.24-8.25-2.2-1.67-1.31-3.54-2.66-5.54-3.21-4.49-1.23-9.09-2.09-13.69-2.84-1.88-.31-3.89.19-5.82.09-12.89-.69-25.77-1.5-38.66-2.14-2.69-.13-5.42.53-8.11.4-4.38-.21-8.74-.74-13.1-1.2-5.88-.63-11.74-1.57-17.63-1.94-4.64-.29-9.33,0-14,.17-8.38.3-16.76.71-25.13,1.07-1.62.07-3.24.05-4.85.17-9.21.67-18.41,1.39-27.62,2.02-1.68.12-3.39-.15-5.07-.1-9.09.3-18.21,2.44-27.08-2.22-2.21-1.16-5.99-.25-8.7.71-2.12.75-3.65,3.09-5.51,4.65-1.61,1.35-2.38,2.39.02,3.87,3.78,2.32,3.35,3.52.1,6.72-2.92,2.87-5.06,6.57-7.27,10.08-.54.85-.13,2.4.08,3.59.24,1.41.91,2.75,1.06,4.16.59,5.28.98,10.59,1.62,15.86.12.98.93,2.01,1.68,2.77,6.57,6.79,14.59,11.67,23.08,15.39,14.2,6.24,28.72,11.63,43.94,15.22,13.58,3.2,27.22,5.29,41.09,6.25,3.59.25,7.19.79,10.76.65,6.44-.25,12.89-.64,19.27-1.46,8.59-1.11,17.23-2.18,25.65-4.15,21.8-5.1,42.51-13.24,61.83-24.56,6.99-4.1,13.26-9.42,19.78-14.3.78-.58,1.67-2.05,1.45-2.77-1.39-4.48-.99-7.91,5.08-8.83Z" style="fill: #f18e1d; stroke-width: 0px;"/>
  <path d="M311.36,468.02c-2.74.02-5.48.04-8.22.07-2.01,0-4.02,0-6.04,0-3.24-.02-6.48-.04-9.71-.06-.76-.23-1.52-.45-2.28-.68-14.03-.8-27.38-4.43-40.32-9.76-3.56-1.47-7.07-3.05-10.6-4.58-8.66-5.94-17.52-11.61-25.93-17.89-9.25-6.89-17.34-15.11-24.74-23.97-.94-1.13-2.14-2.05-3.22-3.07,0-.52,0-1.04,0-1.56,1.03.8,2.11,1.52,3.07,2.4,8.26,7.57,16.48,15.19,24.78,22.71,1.06.96,2.55,1.44,3.84,2.14.65.49,1.3.98,1.94,1.47,0,0,.29.04.29.04.65.49,1.3.99,1.95,1.48,0,0,.28.03.29.03.68.69,1.25,1.56,2.05,2.05,27.35,16.89,56.86,25.38,89.22,23.44,21.91-1.31,42.43-7.23,61.75-17.4,5.24-2.76,10.01-6.39,15-9.63,0,0,.31-.07.31-.07.64-.48,1.28-.96,1.92-1.44l.19.06s.13-.14.13-.14c.64-.47,1.27-.95,1.91-1.42,5.12-4.07,10.4-7.95,15.3-12.25,4.89-4.3,9.41-9.02,14.09-13.56-1.91,2.65-3.57,5.53-5.78,7.9-11.36,12.26-23.83,23.25-38.09,32.07-3.38,2.09-6.97,3.83-10.42,5.8-1.16.66-2.2,1.53-3.29,2.31-6.94,2.62-13.77,5.64-20.87,7.74-6.61,1.96-13.51,2.93-20.28,4.34-.51.23-1.02.45-1.53.68-1.49.02-2.98.05-4.47.07-.76.23-1.52.45-2.28.68Z" style="fill: #f7bd43; stroke-width: 0px;"/>
  <path d="M418.38,406.53c1.01-1.27,2.01-2.54,3.02-3.81-1.01,1.27-2.01,2.54-3.02,3.81Z" style="fill: #f7bd43; stroke-width: 0px;"/>
  <path d="M422.12,402.04c.52-.76,1.03-1.53,1.55-2.29-.52.76-1.03,1.53-1.55,2.29Z" style="fill: #f7bd43; stroke-width: 0px;"/>
  <path d="M424.48,398.35c.48-.53.97-1.07,1.45-1.6-.48.53-.97,1.07-1.45,1.6Z" style="fill: #f7bd43; stroke-width: 0px;"/>
  <path d="M427.48,394.56c0,.52.02,1.03.03,1.55-.31-.05-.62-.11-.94-.17.3-.46.61-.92.91-1.38Z" style="fill: #f7bd43; stroke-width: 0px;"/>
  <path d="M423.67,399.83c.28-.5.55-1,.83-1.5-.28.5-.55,1-.83,1.5Z" style="fill: #f7bd43; stroke-width: 0px;"/>
  <path d="M421.42,402.82c.26-.27.52-.54.78-.82-.26.27-.52.54-.78.82Z" style="fill: #f7bd43; stroke-width: 0px;"/>
  <path d="M425.92,396.83c.26-.27.52-.55.78-.82-.26.27-.52.55-.78.82Z" style="fill: #f7bd43; stroke-width: 0px;"/>
  <path d="M384.5,435.26c-4.99,3.23-9.76,6.87-15,9.63-19.32,10.17-39.84,16.09-61.75,17.4-32.37,1.93-61.87-6.55-89.22-23.44-.8-.49-1.37-1.36-2.05-2.05,2.37.54,4.87.76,7.1,1.67,15.48,6.32,31.47,10.88,48.11,12.23,14.71,1.19,29.59,2.22,44.28,1.35,21.5-1.28,42.34-6.48,62.12-15.41,1.95-.88,4.28-.94,6.43-1.38Z" style="fill: #612b1d; stroke-width: 0px;"/>
  <path d="M180.31,406.57c-1.01-1.26-2.01-2.52-3.02-3.78,1.01,1.26,2.01,2.52,3.02,3.78Z" style="fill: #f7bd43; stroke-width: 0px;"/>
  <path d="M173.51,399.1c-.21-.83-.42-1.66-.63-2.5.5.81.99,1.62,1.49,2.42-.29.02-.57.05-.86.07Z" style="fill: #f7bd43; stroke-width: 0px;"/>
  <path d="M176.57,402.08c-.51-.76-1.02-1.52-1.53-2.28.51.76,1.02,1.52,1.53,2.28Z" style="fill: #f7bd43; stroke-width: 0px;"/>
  <path d="M216.19,436.76c-.65-.49-1.3-.99-1.95-1.48.65.49,1.3.99,1.95,1.48Z" style="fill: #612b1d; stroke-width: 0px;"/>
  <path d="M388.96,432.24c-.64.47-1.27.95-1.91,1.42.64-.47,1.27-.95,1.91-1.42Z" style="fill: #612b1d; stroke-width: 0px;"/>
  <path d="M213.94,435.24c-.65-.49-1.29-.98-1.94-1.47.65.49,1.29.98,1.94,1.47Z" style="fill: #612b1d; stroke-width: 0px;"/>
  <path d="M386.73,433.75c-.64.48-1.28.96-1.92,1.44.64-.48,1.28-.96,1.92-1.44Z" style="fill: #612b1d; stroke-width: 0px;"/>
  <path d="M429.02,392.37c-.28.5-.55.99-.83,1.49.28-.5.55-.99.83-1.49Z" style="fill: #f7bd43; stroke-width: 0px;"/>
  <path d="M435.1,382.73c.2-.04.41-.08.61-.11-.26.49-.53.97-.79,1.46.06-.45.12-.9.18-1.35Z" style="fill: #f18e1d; stroke-width: 0px;"/>
  <path d="M177.31,402.83c-.26-.26-.52-.53-.78-.79.26.26.52.53.78.79Z" style="fill: #f7bd43; stroke-width: 0px;"/>
  <path d="M429.74,391.31c-.24.36-.49.71-.73,1.07.24-.36.49-.71.73-1.07Z" style="fill: #f7bd43; stroke-width: 0px;"/>
  <path d="M428.24,393.8c-.26.27-.53.54-.79.8.26-.27.53-.54.79-.8Z" style="fill: #f7bd43; stroke-width: 0px;"/>
  <path d="M175.06,399.84c-.26-.26-.52-.53-.78-.79.26.26.52.53.78.79Z" style="fill: #f7bd43; stroke-width: 0px;"/>
  <path d="M435.73,382.59c.23-.32.47-.64.7-.97-.23.32-.47.64-.7.97Z" style="fill: #f18e1d; stroke-width: 0px;"/>
  <path d="M302.72,15.75c10.31,1.22,22.61,2.58,34.9,4.13,23.01,2.9,44.35,10.89,64.7,21.7,3.69,1.96,6.98,4.72,10.24,7.38,2.16,1.77,1.87,3.94.33,6.29-5.3,8.1-10.62,16.21-15.59,24.52-4.91,8.21-9.27,16.74-14.2,24.93-.88,1.47-3.26,2.58-5.09,2.84-8.08,1.16-16.3,1.52-24.32,2.97-10.69,1.94-21.33,4.31-31.84,7.1-6.76,1.8-13.28,4.58-19.82,7.14-1.87.73-3.05.75-4.64-.63-5.6-4.84-11.57-9.27-16.98-14.31-2.18-2.03-3.36-5.19-4.86-7.9-7.96-14.38-15.56-28.96-23.93-43.09-4.21-7.12-9.78-13.44-14.73-20.13-3.63-4.91-3.7-6.38,1.75-9.21,5.68-2.95,11.74-5.51,17.92-7.07,8.74-2.2,17.72-3.49,26.66-4.84,5.75-.86,11.59-1.12,19.5-1.83Z" style="fill: #fdfaab; stroke-width: 0px;"/>
  <path d="M436.93,522c-6.07.92-6.47,4.35-5.08,8.83.22.73-.67,2.19-1.45,2.77-6.52,4.87-12.79,10.2-19.78,14.3-19.32,11.33-40.03,19.46-61.83,24.56-8.41,1.97-17.06,3.04-25.65,4.15-6.38.82-12.84,1.22-19.27,1.46-3.57.14-7.17-.4-10.76-.65-13.87-.96-27.51-3.05-41.09-6.25-15.22-3.59-29.74-8.98-43.94-15.22-8.48-3.73-16.5-8.6-23.08-15.39-.74-.77-1.56-1.79-1.68-2.77-.65-5.28-1.03-10.58-1.62-15.86-.16-1.41-.83-2.75-1.06-4.16-.2-1.19-.61-2.74-.08-3.59,2.21-3.51,4.35-7.21,7.27-10.08,3.25-3.2,3.68-4.39-.1-6.72-2.4-1.48-1.63-2.52-.02-3.87,1.86-1.56,3.39-3.89,5.51-4.65,2.7-.96,6.48-1.87,8.7-.71,8.87,4.66,17.99,2.51,27.08,2.22,1.69-.05,3.39.22,5.07.1,9.21-.64,18.41-1.36,27.62-2.02,1.61-.12,3.23-.1,4.85-.17,8.38-.36,16.75-.77,25.13-1.07,4.66-.17,9.35-.46,14-.17,5.9.37,11.75,1.31,17.63,1.94,4.36.47,8.73.99,13.1,1.2,2.69.13,5.42-.53,8.11-.4,12.89.64,25.77,1.45,38.66,2.14,1.94.1,3.94-.39,5.82-.09,4.6.75,9.2,1.62,13.69,2.84,2,.55,3.87,1.89,5.54,3.21,2.48,1.95,4.43,3.61,8.25,2.2,2.4-.89,5.81.66,8.62,1.58.38.12.15,3-.3,4.44-.22.71-1.74.92-2.41,1.6-.87.89-1.47,2.03-2.19,3.07,1.29.65,2.53,1.54,3.9,1.85.84.19,1.9-.84,2.82-.76,1.39.12,2.74.72,4.11,1.11-.4,1.1-.87,2.17-1.17,3.3-.3,1.14-.43,2.32-.63,3.49,1.03.06,2.06.08,3.08.2,1.33.15,2.65.38,3.97.58.21.47.43.95.64,1.42ZM304.36,574l.13-1.09c14.77.51,29.06-2.48,43.43-5.39,12.6-2.55,23.64-8.68,35.19-13.66,1.43-.61,2.65-1.83,3.76-2.98.5-.51.88-1.72.62-2.29-2.68-5.81-1.27-14.01-9.54-16.61-.21-.07-.35-.34-.54-.51-1.61-1.49-2.37-2.79.03-4.46.74-.52,1.16-2.47.8-3.41-.89-2.35-12.21-6.94-14.23-5.61-2.56,1.7-4.47.31-6.65-.35-4.32-1.32-8.58-3.11-13.01-3.78-9.72-1.47-19.52-2.44-29.31-3.48-11.13-1.19-22.26-.53-33.33.69-7.97.88-15.86,2.84-23.85,3.25-7.75.4-13.3,4.37-18.59,9.06-3.27,2.9-6.74,4.42-11.08,3.98-2.28-.24-3.13.52-2.65,3.05.5,2.6.9,5.42.42,7.97-1.18,6.29,2.18,16.23,7.48,19.87,1.57,1.08,3.62,1.46,5.46,2.11,8.17,2.92,16.14,6.89,24.57,8.48,13.47,2.55,27.23,3.53,40.87,5.17Z" style="fill: #f18617; stroke-width: 0px;"/>
  <path d="M297.11,468.09c2.01,0,4.02,0,6.04,0-2.01,2.31-4.02,2.31-6.04,0Z" style="fill: #f4a023; stroke-width: 0px;"/>
  <path d="M285.12,467.35c.76.23,1.52.45,2.28.68-.76-.23-1.52-.45-2.28-.68Z" style="fill: #f4a023; stroke-width: 0px;"/>
  <path d="M311.36,468.02c.76-.23,1.52-.46,2.28-.68-.76.23-1.52.46-2.28.68Z" style="fill: #f4a023; stroke-width: 0px;"/>
  <path d="M318.11,467.28c.51-.23,1.02-.45,1.53-.68-.51.23-1.02.45-1.53.68Z" style="fill: #f4a023; stroke-width: 0px;"/>
  <path d="M304.36,574c-13.64-1.64-27.41-2.62-40.87-5.17-8.42-1.6-16.4-5.56-24.57-8.48-1.84-.66-3.89-1.04-5.46-2.11-5.3-3.64-8.66-13.58-7.48-19.87.48-2.55.08-5.37-.42-7.97-.49-2.52.37-3.28,2.65-3.05,4.34.45,7.81-1.08,11.08-3.98,5.3-4.7,10.84-8.67,18.59-9.06,7.98-.41,15.87-2.37,23.85-3.25,11.07-1.22,22.2-1.88,33.33-.69,9.78,1.04,19.58,2.01,29.31,3.48,4.43.67,8.69,2.46,13.01,3.78,2.18.67,4.09,2.05,6.65.35,2.02-1.34,13.33,3.25,14.23,5.61.36.94-.06,2.9-.8,3.41-2.4,1.67-1.64,2.97-.03,4.46.18.17.32.45.54.51,8.27,2.59,6.86,10.8,9.54,16.61.26.57-.12,1.78-.62,2.29-1.11,1.14-2.33,2.36-3.76,2.98-11.55,4.98-22.59,11.11-35.19,13.66-14.37,2.91-28.66,5.9-43.43,5.39l-.13,1.09Z" style="fill: #f07d14; stroke-width: 0px;"/>
</svg>