<?xml version="1.0" encoding="UTF-8"?>
<svg id="Layer_1" data-name="Layer 1" xmlns="http://www.w3.org/2000/svg" viewBox="0 0 598.23 539.53">
  <path d="M75.51,443.39c-.94,10.66-1.85,21.33-2.81,31.99-1.1,12.28-2.66,24.54-3.24,36.84-.51,10.71,6.27,20.58,15.47,24.36,3.25.95,6.45,2.36,9.76,2.74,7.84.92,15.24-1.4,22.53-4.01.61-.02,1.25.07,1.82-.08,12.6-3.44,25.2-6.84,37.77-10.37,16.9-4.75,29.34-14.67,36.39-31.09,3.38-7.88,7.41-15.49,11.06-23.26,4.01-8.55,7.92-17.14,11.87-25.71,1.11-.1,2.22-.32,3.33-.29,32.17.68,64.33,1.39,96.5,2.1,28.42.62,56.85,1.23,85.27,1.85,2.06,4.25,4.01,8.55,6.19,12.73,7.66,14.7,19.48,24.2,35.64,28.18,6.31,1.79,12.59,1.8,18.84-.33.35-.13.7-.26,1.05-.39.18.01.34-.04.49-.14.6-.19,1.2-.39,1.8-.58.36-.13.72-.26,1.08-.39,3.38-.76,6.81-1.37,10.14-2.29,12.12-3.36,24.32-6.48,36.27-10.36,7.45-2.42,12.66-7.74,14.59-15.7.58-4.51,1.83-9.04,1.61-13.51-.45-8.94-1.68-17.85-2.63-26.77-.7-6.55-1.48-13.1-2.23-19.65-.44-2.27-.88-4.53-1.33-6.8-.08-1.24-.16-2.48-.23-3.72.18-.72.56-1.47.49-2.17-.32-3.24,1.17-4.6,4.29-5.22,4.26-.85,8.4-2.25,12.6-3.39,13.21-3.56,25.06-9.52,34.92-19.2,11.22-11.02,18.52-24.12,21.51-39.59.64-3.91,1.82-7.82,1.82-11.73.1-74.95.08-149.89.04-224.84,0-1.85-.44-3.69-.67-5.54-1.51-6.29-2.32-12.86-4.73-18.79-2.66-6.53-6.78-12.46-10.27-18.65-6.43-9.78-14.97-17.19-25.34-22.56-9.05-5.67-19.05-8.82-29.57-9.51-14.54-.95-29.14-1.14-43.71-1.55-11.72-.33-23.44-.5-35.16-.76-22.81-.5-45.63-1.01-68.44-1.52-10.85-.24-21.69-.48-32.54-.72-21.94-.5-43.88-1.01-65.82-1.5-11.59-.26-23.19-.54-34.78-.73C228.1.45,209.01-.05,189.92,0c-11.43.03-22.21,3.82-32.96,7.33-7.24,2.01-14.48,4.01-21.72,6.02-6.21,1.73-12.59,3-18.59,5.27-12.82,4.85-23.5,12.79-31.71,23.88-3.77,6.75-7.53,13.49-11.3,20.24-.73,1.53-1.46,3.05-2.2,4.58-4.33,1.09-8.66,2.15-12.98,3.27-21.38,5.55-37.81,17.56-48.46,37.13-1.75,4.02-3.5,8.04-5.24,12.06.03.36.05.71.08,1.07-.64,1.3-1.66,2.54-1.85,3.9-1.1,8.08-2.81,16.18-2.84,24.28C-.07,218.69,0,288.33.05,357.97c0,10.25.85,20.44,4.93,30.05.09.48.11,1,.3,1.45,12.11,29.35,33.49,46.9,65.21,51.43,1.76.25,3.36,1.63,5.03,2.48Z" style="fill: #fefefe; stroke-width: 0px;"/>
  <path d="M73.65,62.75c3.77-6.75,7.53-13.49,11.3-20.24,1.13,1.5,2.15,1.61,3.53.11,2.43-2.64,4.96-5.2,7.6-7.62,7.76-7.1,16.89-11.99,26.94-14.7,9.45-2.55,19.12-3.44,29.08-2.59,11.15.95,22.4.68,33.6.91,13.45.27,26.91.48,40.36.77,9.08.2,18.17.52,27.25.73,12.33.28,24.66.51,36.99.76,12.45.25,24.91.49,37.36.75,11.33.24,22.66.51,33.99.74,12.95.27,25.91.55,38.86.74,19.44.29,38.89.48,58.33.8,4.34.07,8.68.43,13.02.7,3.71.22,7.42.63,11.14.67,1.22.01,2.44-.9,3.67-1.39,4.23,1.27,8.46,2.55,12.69,3.82,1.08.76,2.14,1.55,3.25,2.27,1.92,1.24,3.87,2.44,5.8,3.65-10.11-2.39-20.16-1.31-28.93.07-1.48,2.23-2.44,3.57-3.29,4.99-.36.6-.75,1.39-.66,2.02.36,2.5.99,4.96,1.34,7.46.15,1.1.1,2.35-.3,3.36-1.23,3.19-2.54,6.25-.73,9.71.47.9.4,2.21.27,3.29-.42,3.56-.98,7.1-1.54,10.97-2.09.2-4.54.43-7.57.73,1.39.72,2.28,1.18,3.42,1.76-1.73,2.34-3.28,4.45-4.58,6.2,1.56,1.63,2.65,2.77,3.74,3.91-.34.38-.68.77-1.02,1.15-1.76-.99-3.53-1.97-5.62-3.15-.87,1.15-1.77,2.32-2.69,3.54,2,1.02,3.51,1.79,5.11,2.61.52-.39,1.14-1.14,1.92-1.38.92-.29,1.97-.14,2.96-.18-.14.95-.11,1.96-.44,2.83-.5,1.31-1.26,2.52-1.91,3.77-1.16-.54-2.08-.98-2.51-1.17-.88,2.68-1.69,5.15-2.68,8.14,1.52.66,3.67,1.59,5.12,2.23-.31,2.62-.56,4.71-.8,6.78-2.71.3-5.85.65-9.06,1.01-1.18,4.61-2.38,5.57-7.78,6.28-.96.12-1.89.45-2.82.72-5.19,1.5-10.37,4.12-15.58,4.2-5.51.08-7.96,4.8-12.56,5.85-2.18.5-4.13,2.07-6.13,3.25-2.56,1.51-5.22,2.9-7.53,4.73-1.92,1.53-3.39,3.63-5.07,5.47-1.44.73-2.85,1.52-4.32,2.2-7.38,3.37-13.52,8.26-18.6,14.62-8.13,10.2-11.48,22.17-13.36,34.74-.94.81-2.18,1.44-2.77,2.46-1.42,2.46-2.69,2.55-3.84,0-2.43-5.4-5.35-10.68-6.96-16.33-4.37-15.29-13.99-27.88-20.95-41.81-1.99-3.98-6.33-7.41-10.39-9.58-9.14-4.89-17.82-2.54-25.47,3.95-.99.84-1.28,2.52-1.89,3.82-7.33,2.19-11.45,7.56-14.09,14.35-2.61,6.72-5.15,13.47-7.76,20.2-4.9,12.63-9.82,25.25-14.73,37.88-2.67-.07-5.62,2.04-7.86-1.27-1.53-2.26-3.84-4.12-4.83-6.56-.99-2.44-1.39-5.47-.97-8.07.76-4.7,5.19-6.6,8.39-9.48,2.77-2.5,6.15-5.47,6.93-8.78,1.41-5.93.08-12.04-2.92-17.65-2.73-5.11-5.94-10.2-7.4-15.71-2.6-9.81-10.2-11.34-18.09-10.97-3.95.19-7.87,1.03-11.81,1.2-4.99.22-10.01-.25-14.97.19-2.28.2-4.44,1.86-6.65,2.85-2.99.01-5.98.04-8.97.03-8.2,0-16.48-.72-24.59.15-9.7,1.04-15.62,4-15.99,16.29-.08,2.73-.28,5.47-.42,8.2-.57,1.16-1.59,2.31-1.65,3.5-.39,7.32-.54,14.66-.83,21.99-.19,4.71-.57,9.42-.7,14.13-.14,4.92.12,9.86-.16,14.78-.58,10.27-1.41,20.53-2.13,30.79-.28,4.01-.48,8.03-.8,12.04-.05.69-.32,1.57-.81,1.98-4.7,3.88-10.4,5.51-16.22,6.36-2.99.44-6.16-.4-9.24-.6-3.92-.26-7.78-.62-9.98-3.97-3.6,2.03-6.82,4.65-10.48,5.71-4.21,1.21-5.6,2.33-2.35,5.99.27.3.13,1.31-.19,1.71-1.22,1.56-2.59,3.01-4.45,5.11.87,1.83,2.73,4.45.39,7.69-1.28,1.77-1.39,4.37-2.09,6.58-.29.91-.58,1.9-1.15,2.64-2.41,3.11-4.93,6.13-7.47,9.27-2.27-2.92-1.17-5.07,2.72-6.95-1.87-.36-2.8-.53-3.48-.66-.38-5.18-.91-10-1.04-14.83-.35-12.78-.59-25.55-.77-38.33-.29-20.06-.52-40.12-.76-60.18-.04-3.49.1-6.99-.07-10.48-.05-1-.9-1.97-1.38-2.95,0-.5,0-.99,0-1.49,3.14-2.9.72-6.59,1.33-9.85.07-.37-.87-.92-1.33-1.39,0-3.74,0-7.49,0-11.23.38-.2.75-.39,1.13-.59-.38-.31-.75-.62-1.13-.92.23-20.3.2-40.61.83-60.9.22-7.11,2.07-14.16,3.09-21.26.12-.83-.26-1.73-.4-2.6ZM470.18,67.37c3.46-1.18,1.96-3.86,1.98-5.94,0-.17-1.78-.75-2.11-.45-2.3,2.05-1.2,4.14.13,6.39ZM463.01,110.27c-.69-.32-1.14-.71-1.39-.6-.37.15-.6.65-.89,1,.34.24.69.71,1,.68.34-.03.64-.51,1.27-1.07ZM85.5,45.4c-.21-.09-.41-.18-.62-.27-.09.21-.29.46-.23.61.06.15.43.31.57.25.15-.06.19-.38.28-.59Z" style="fill: #ebb45b; stroke-width: 0px;"/>
  <path d="M10.01,107.73c10.65-19.56,27.08-31.58,48.46-37.13,4.32-1.12,8.65-2.18,12.98-3.28-.1.97-.19,1.95-.31,2.92-.87,7.24-2.36,14.46-2.5,21.72-.36,18.15-.11,36.31-.15,54.47,0,1.85-.32,3.7-.49,5.55-.51.3-1.4.52-1.47.9-1.15,6.35-1.31,12.9-4.62,18.78-1.72,3.06-2.85,6.45-4.21,9.71-1.89,4.51-3.71,9.04-5.64,13.53-1.07,2.47-3.74,5.27-3.18,7.21,1.15,4.06-2.8,6.17-2.45,9.66.07.72-1.31,1.6-2.05,2.38-.63.67-1.8,1.25-1.88,1.96-.35,3.05-.38,6.14-.55,9.65-5.72,1.3-1.19,4.33-.43,7.01-2.58,1.02-4.7,2.21-3.14,5.48.18.38-.81,1.77-1.52,2.06-3.52,1.48-3.78,4.36-3.35,7.46.22,1.56.9,3.06,1.28,4.27-2.3,3.44-7.01,4.81-6.9,8.57-2.56,3.07-4.71,5.63-7.45,8.91-.77-2.29-1.58-4.01-1.88-5.82-.29-1.8-.06-3.69-.06-5.53.33-1.27,1.01-3.28.43-3.76-3.56-2.93-4.25-7-5.06-11.09-.13-.67-.41-1.78-.79-1.86-2.24-.47-2.14-1.64-1.88-3.57.14-1.01-1.33-2.24-2.08-3.37-.63,1.12-1.63,2.19-1.83,3.38-.52,3.17-.69,6.4-.99,9.6-.47.01-.94.02-1.41.03-.43-4.72-1.01-9.44-1.25-14.17-.26-5.17-.16-10.35-.33-15.53-.02-.49-.9-.94-1.38-1.42,0-.99,0-1.99,0-2.98,1.98-1.95,1.98-8.56,0-10.5v-6.73c2.35-1.25,2.35-2.51,0-3.76,0-14.55-.3-29.1.09-43.63.21-7.87,1.57-15.7,2.41-23.55.16-1.47.28-2.94.42-4.41-.03-.36-.05-.71-.08-1.07.83-.76,1.94-1.36,2.42-2.3,1.12-2.18,2.04-4.48,2.82-6.81.3-.88.02-1.97,0-2.96Z" style="fill: #77cd76; stroke-width: 0px;"/>
  <path d="M597.52,77.07c.23,1.85.67,3.69.67,5.54.04,74.95.07,149.89-.04,224.84,0,3.91-1.19,7.82-1.83,11.73-2.34.22-4.69.45-7.03.67-3-2-5.99-4-8.99-6,.5-5.05,1.34-10.09,1.41-15.14.09-6.89-.54-13.78-.63-20.67-.12-9.42.02-18.84-.04-28.25-.22-31.91-.45-63.82-.75-95.73-.18-19.37-.6-38.75-.66-58.12-.02-5.56-.14-10.6-6.67-12.48-.33-.09-.54-.55-.86-.7-4.82-2.17-9.49-4.86-14.52-6.3-4.45-1.27-9.3-1.13-13.97-1.62-1.25-2.25-2.49-4.5-3.74-6.75,2.49-.04,5.02.15,7.47-.17,11.15-1.47,22.01-.54,32.63,3.32,5.79,2.11,11.69,3.9,17.54,5.84Z" style="fill: #dca371; stroke-width: 0px;"/>
  <path d="M499.36,27.69c-4.23-1.27-8.46-2.55-12.69-3.82-7.62-3.48-15.87-2.15-23.8-2.83-10.65-.91-21.39-.67-32.09-.91-11.33-.26-22.65-.49-33.98-.75-10.33-.24-20.65-.48-30.98-.75-18.78-.49-37.56-1.03-56.35-1.48-13.07-.31-26.15-.49-39.22-.77-9.7-.21-19.41-.5-29.11-.74-11.08-.27-22.15-.59-33.23-.74-22.81-.31-45.61-.52-68.42-.77-.87,0-1.76.08-2.62-.05-.57-.09-1.08-.48-1.62-.74,7.24-2.01,14.48-4.01,21.72-6.02,1.53.22,3.08.72,4.58.62,4.56-.31,9.11-1.22,13.67-1.23,9.2-.01,18.4.45,27.6.66,11.65.28,23.3.48,34.96.76,8.2.2,16.41.51,24.61.73,10.07.27,20.15.51,30.23.75,10.65.26,21.31.49,31.96.75,9.33.23,18.65.5,27.98.75,9.45.25,18.9.5,28.35.75s18.9.54,28.35.74c14.19.29,28.39.49,42.58.77,10.33.21,20.65.49,30.97.75.5.01.99.08,1.49.1,5.09.2,10.17.5,15.26.58,8.29.12,16.6-.17,24.88.25,3.18.16,6.29,1.83,9.43,2.8-1.59,1.49-2.96,3.87-4.8,4.32-9.36,2.3-18.45,6.49-28.49,4.82-.36-.06-.81.43-1.22.67Z" style="fill: #f2cd8f; stroke-width: 0px;"/>
  <path d="M533.87,17.88c-3.14-.98-6.25-2.64-9.43-2.8-8.28-.43-16.59-.14-24.88-.25-5.09-.07-10.17-.37-15.26-.58-.5-.02-.99-.09-1.49-.1-10.32-.26-20.65-.54-30.97-.75-14.19-.28-28.39-.48-42.58-.77-9.45-.19-18.9-.49-28.35-.74s-18.9-.5-28.35-.75c-9.33-.25-18.65-.51-27.98-.75-10.65-.27-21.31-.5-31.96-.75-10.08-.24-20.15-.48-30.23-.75-8.2-.22-16.41-.53-24.61-.73-11.65-.29-23.3-.49-34.96-.76-9.2-.22-18.4-.68-27.6-.66-4.56,0-9.1.92-13.67,1.23-1.51.1-3.05-.4-4.58-.62C167.72,3.82,178.5.04,189.92,0c19.08-.05,38.17.44,57.26.76,11.6.19,23.19.47,34.78.73,21.94.49,43.88,1,65.82,1.5,10.85.25,21.69.48,32.54.72,22.81.51,45.63,1.02,68.44,1.52,11.72.26,23.44.43,35.16.76,14.57.41,29.17.6,43.71,1.55,10.52.69,20.51,3.84,29.57,9.51-1.43.27-2.85.76-4.28.78-6.35.09-12.69.04-19.04.04Z" style="fill: #f3d098; stroke-width: 0px;"/>
  <path d="M216.13,444.79c-3.95,8.57-7.86,17.17-11.87,25.71-3.65,7.77-7.67,15.38-11.06,23.26-7.05,16.42-19.49,26.35-36.39,31.09-12.57,3.53-25.18,6.94-37.77,10.37-.57.16-1.21.06-1.82.08.28-.39.47-.95.84-1.15,7.29-3.7,13.47-8.77,18.69-15.05,5.58-2.65,11.19-5.22,16.72-7.96,4.8-2.38,7.95-6.05,10.58-10.96,9.36-17.41,18.98-34.69,27.21-52.68.55-1.21.66-2.61.98-3.93,5.29.2,10.58.38,15.87.62,2.67.12,5.34.38,8.01.57Z" style="fill: #82aa83; stroke-width: 0px;"/>
  <path d="M533.87,17.88c6.35,0,12.7.05,19.04-.04,1.43-.02,2.86-.51,4.28-.78,10.36,5.37,18.91,12.77,25.34,22.56-12.93.68-25.42,3.35-37.3,8.58-4.49,1.98-9.22,3.69-12.23,7.99-1.74-2.02-3.48-4.04-5.22-6.06-6.46-5.51-12.92-11.01-19.38-16.52-1.94-1.22-3.88-2.41-5.8-3.65-1.11-.72-2.16-1.51-3.25-2.27.41-.23.86-.73,1.22-.67,10.04,1.67,19.13-2.52,28.49-4.82,1.84-.45,3.21-2.83,4.8-4.32Z" style="fill: #efc894; stroke-width: 0px;"/>
  <path d="M522.52,388.74c.08,1.24.16,2.48.23,3.72-2.03,5.42-3.42,10.88-.87,16.54-.88,6.49-1.46,13.04-2.69,19.47-1.95,10.2-5.87,20.07-4.81,30.73-10.59,5.79-21.14,11.65-31.8,17.32-2.47,1.31-5.32,1.94-7.99,2.88,1.01-2.01,2.01-4.02,3.02-6.03,6.18-3.77,12.54-7.29,18.49-11.4,4.8-3.31,6.24-8.43,5.51-14.14-.3-2.3-.71-4.59-1.02-6.55-4.07-1.33-7.88-2.57-11.69-3.82,2.34-6.77,2.71-14.57,9.82-18.89.7-.42,1.14-1.3,1.64-2.01,3.99-5.72,7.66-11.48,8.01-18.85.18-3.77,1.47-7.5,2.26-11.24,1.33-.54,2.61-1.24,3.99-1.6,6.21-1.64,6.22-1.61,7.89,3.87Z" style="fill: #c8906e; stroke-width: 0px;"/>
  <path d="M533.01,56.19c3-4.3,7.74-6.01,12.23-7.99,11.87-5.23,24.36-7.9,37.3-8.58,3.49,6.19,7.61,12.12,10.27,18.65,2.41,5.92,3.22,12.5,4.73,18.79-5.85-1.94-11.75-3.73-17.54-5.84-10.62-3.86-21.48-4.79-32.63-3.32-2.46.32-4.98.13-7.47.17-2.29-3.96-4.58-7.92-6.87-11.89Z" style="fill: #efc37b; stroke-width: 0px;"/>
  <path d="M522.52,388.74c-1.67-5.48-1.68-5.52-7.89-3.87-1.37.36-2.66,1.06-3.99,1.6-2.04.02-4.08.03-6.12.05,9.02-4.66,16.98-10.73,24.05-18,1.54-.38,3.22-.49,4.6-1.19,3.54-1.82,7.04-3.73,10.37-5.9,9.67-6.32,19.58-12.45,26.49-22.01,3.88-5.38,8.2-10.11,13.75-13.82,2.16-1.44,3.7-3.8,5.53-5.74,2.34-.22,4.69-.45,7.03-.67-2.99,15.47-10.29,28.57-21.51,39.59-9.86,9.68-21.71,15.64-34.92,19.2-4.2,1.13-8.35,2.53-12.6,3.39-3.12.63-4.62,1.98-4.29,5.22.07.7-.32,1.45-.49,2.17Z" style="fill: #ca977b; stroke-width: 0px;"/>
  <path d="M135.24,13.35c.54.26,1.06.65,1.62.74.85.13,1.74.04,2.62.05,22.81.25,45.61.46,68.42.77,11.08.15,22.15.47,33.23.74,9.7.23,19.41.53,29.11.74,13.07.28,26.15.46,39.22.77,18.78.45,37.57,1,56.35,1.48,10.33.27,20.65.51,30.98.75,11.33.26,22.65.5,33.98.75,10.7.24,21.45,0,32.09.91,7.94.68,16.19-.65,23.8,2.83-1.22.49-2.45,1.4-3.67,1.39-3.71-.03-7.42-.44-11.14-.67-4.34-.26-8.68-.63-13.02-.7-19.44-.31-38.89-.5-58.33-.8-12.95-.2-25.91-.48-38.86-.74-11.33-.23-22.66-.5-33.99-.74-12.45-.26-24.91-.5-37.36-.75-12.33-.25-24.66-.48-36.99-.76-9.08-.21-18.17-.53-27.25-.73-13.45-.29-26.91-.49-40.36-.77-11.21-.23-22.46.05-33.6-.91-9.95-.85-19.63.03-29.08,2.59-10.05,2.71-19.17,7.59-26.94,14.7-2.65,2.42-5.18,4.98-7.6,7.62-1.38,1.5-2.4,1.4-3.53-.11,8.21-11.09,18.88-19.04,31.71-23.88,6-2.27,12.38-3.55,18.59-5.27Z" style="fill: #efc37b; stroke-width: 0px;"/>
  <path d="M528.57,368.51c-7.06,7.28-15.02,13.35-24.04,18-.45.21-.9.42-1.36.63l-1.62.88c-8.23,1.76-16.46,3.56-24.71,5.25-3.1.64-4.63,2.46-4.36,5.51.7,7.91,1.52,15.81,2.34,23.7.94,9,1.92,17.99,2.89,26.99,1.37,7.97,1.99,15.94-.09,23.9-1.01,2.01-2.01,4.02-3.02,6.03-2.76,2.71-5.52,5.43-8.28,8.14-.36.13-.72.26-1.08.39-.6.19-1.2.39-1.8.58-.14.11-.31.15-.49.14-.35.13-.7.26-1.05.39-6.24,2.13-12.53,2.11-18.84.33.55-.33,1.1-.67,1.66-1,.75,0,1.49.02,2.24.02,5.88,2.22,16.16-.44,20.22-5.22.75-.75,1.5-1.49,2.25-2.24,1.02-1.05,2.32-1.94,3.01-3.17,5.26-9.31,4.03-19.16,2.2-29.04-.01-1-.02-1.99-.03-2.99-.24-2-.48-4-.71-6.01v-1.49c-.26-2.25-.5-4.5-.75-6.75l-.02-2.24c-.24-2-.48-4-.72-6.01-.02-1.24-.03-2.49-.05-3.73l-.69-4.52c-.02-1.49-.04-2.98-.06-4.47-.23-1.51-.46-3.01-.69-4.52-.02-1.24-.03-2.48-.05-3.73-.23-1.51-.46-3.01-.69-4.52,0-1.25-.02-2.5-.03-3.75.76-.75,1.52-1.5,2.29-2.25.74-.01,1.49-.03,2.23-.04l4.51-.72c.74-.01,1.49-.03,2.23-.04l6.76-1.45c.49-.02.99-.03,1.48-.05,3.02-1.21,6.05-2.43,9.07-3.64.48-.02.96-.03,1.44-.05.5-.25,1-.5,1.5-.75.5-.25,1-.49,1.5-.74,3.75-2.25,7.49-4.5,11.24-6.75h0c6.8-3.69,11.84-9.14,15.73-15.74.65-.57,1.57-1.01,1.9-1.72,3.41-7.4,6.72-14.84,10.05-22.27.02-.49.03-.99.05-1.48.48-1.5.96-3.01,1.45-4.51l.03-1.49c.48-3.5.97-7,1.45-10.51,0-72.66.01-145.33.02-217.99-.42-5.41-.77-10.84-1.31-16.24-.18-1.79.22-2.64,2.1-2.48.5,1.74,1.01,3.48,1.51,5.22.25,11.19.71,22.39.73,33.58.08,67.48.05,134.95.06,202.43-.2.71-.5,1.42-.59,2.14-2.06,15.94-8.81,29.75-18.97,42.03Z" style="fill: #d88727; stroke-width: 0px;"/>
  <path d="M136.75,519.13c-5.22,6.28-11.4,11.35-18.69,15.05-.38.19-.57.76-.84,1.15-7.29,2.61-14.69,4.92-22.53,4.01-3.32-.39-6.51-1.8-9.76-2.74.8-.33,1.59-.66,2.39-.99,1.74.48,3.48.96,5.22,1.44l1.53.03h5.97c.51,0,1.02-.01,1.53-.02,1.72-.25,3.43-.5,5.15-.74.53-.24,1.06-.48,1.59-.72.97-.25,1.95-.51,2.92-.76.52-.47,1.04-.94,1.57-1.41,1.99-.77,3.97-1.54,5.96-2.31,1.01-.74,2.02-1.48,3.03-2.21,1.25-1.01,2.49-2.03,3.74-3.04,1.24-.99,2.48-1.98,3.72-2.98l.02-.02c.99-1.24,1.99-2.48,2.98-3.72.25-.26.51-.51.76-.77.5-.74.99-1.48,1.49-2.23,0,0,.01-.01.01-.01.49-.75.98-1.49,1.48-2.24,1-2,2-4,2.99-5.99.25-.5.51-1,.76-1.5.25-.5.49-1,.74-1.5,1.75-3.5,3.51-6.99,5.26-10.49.26-.75.51-1.49.77-2.24,1.5-3,3-5.99,4.5-8.99,1.83-3.32,3.79-6.58,5.46-9.98,3.99-8.13,7.84-16.32,11.75-24.49.25-.5.5-1,.75-1.51,1.15-1.89,2.3-3.78,3.19-5.25h19.29c11.55.25,23.1.5,34.65.77,10.18.23,20.36.49,30.53.73,11.93.26,23.85.52,35.78.76,12.92.26,25.84.5,38.76.75,13.05.25,26.09.58,39.14.73,9.84.11,19.68,0,29.52,0,.47.92.94,1.85,1.41,2.77-28.42-.62-56.85-1.23-85.27-1.85-32.17-.7-64.33-1.41-96.5-2.1-1.11-.02-2.22.19-3.33.29-2.67-.19-5.34-.45-8.01-.57-5.29-.24-10.58-.42-15.87-.62-4.36-.04-8.75.15-13.09-.19-4.42-.34-6.59,2.2-8.35,5.54-.63,1.21-1.01,2.54-1.61,3.77-7.75,16.04-15.48,32.09-23.28,48.11-2.98,6.13-6.11,12.2-9.17,18.29Z" style="fill: #5baa58; stroke-width: 0px;"/>
  <path d="M1.92,196.21c0,2.24,0,4.49,0,6.73,0,3.5,0,7,0,10.5,0,.99,0,1.99,0,2.98.24,15.51.62,31.01.68,46.52.11,30.19.19,60.38-.05,90.57-.09,11.78.65,23.32,4.55,34.52-.71,0-1.42,0-2.13,0C.9,378.41.06,368.23.05,357.97,0,288.33-.07,218.69.16,149.04c.03-8.1,1.74-16.2,2.84-24.28.18-1.36,1.21-2.6,1.85-3.9-.14,1.47-.27,2.94-.42,4.41-.84,7.85-2.2,15.68-2.41,23.55-.39,14.53-.1,29.09-.09,43.63,0,1.25,0,2.51,0,3.76Z" style="fill: #64b963; stroke-width: 0px;"/>
  <path d="M466.32,487.53c2.76-2.71,5.52-5.43,8.28-8.14,2.67-.94,5.51-1.57,7.99-2.88,10.66-5.66,21.21-11.53,31.8-17.32,4.31,0,8.63,0,12.94-.01-1.93,7.96-7.14,13.28-14.59,15.7-11.95,3.88-24.15,7-36.27,10.36-3.34.92-6.76,1.54-10.14,2.29Z" style="fill: #ca977b; stroke-width: 0px;"/>
  <path d="M527.33,459.18c-4.31,0-8.63,0-12.94.01-1.07-10.67,2.85-20.54,4.81-30.73,1.23-6.43,1.82-12.97,2.69-19.47.25-2.15.38-4.33.79-6.45.22-1.15.92-2.2,1.4-3.29.74,6.55,1.52,13.1,2.23,19.65.95,8.92,2.18,17.82,2.63,26.77.22,4.46-1.03,9-1.61,13.51Z" style="fill: #dca371; stroke-width: 0px;"/>
  <path d="M68.01,151.98c.17-1.85.48-3.7.49-5.55.04-18.16-.22-36.32.15-54.47.15-7.25,1.63-14.48,2.5-21.72.12-.97.21-1.95.31-2.92.73-1.53,1.46-3.05,2.2-4.58.15.87.52,1.77.4,2.6-1.03,7.09-2.87,14.15-3.09,21.26-.63,20.29-.6,40.6-.83,60.9,0,.5,0,1.01,0,1.51,0,3.74,0,7.49,0,11.23,0,3.75,0,7.5,0,11.25,0,.5,0,.99,0,1.49.23,36.8.47,73.61.69,110.41.05,8.74-.1,17.48.06,26.22.06,3.45.29,7.01,1.2,10.31,2.08,7.53,4.63,14.92,6.99,22.37-.52.01-1.04.03-1.55.04-5.69-10.2-8.77-21.25-8.83-32.81-.24-50.53-.14-101.07-.2-151.6,0-1.98-.31-3.96-.48-5.94Z" style="fill: #e39e4a; stroke-width: 0px;"/>
  <path d="M87.32,535.59c-.8.33-1.59.66-2.39.99-9.2-3.78-15.97-13.65-15.47-24.36.58-12.3,2.14-24.56,3.24-36.84.96-10.66,1.88-21.33,2.81-31.99,3.31-4.43-1.7-3.71-3.19-5.16,4.95-1.83,6.78.02,5.93,5.76-.6,4.03-1.05,8.09-1.41,12.15-.6,6.66-1.08,13.32-1.6,19.99-.98,12.58-2.27,25.15-2.79,37.75-.29,7.06,3.18,12.89,8.85,17.24,1.98,1.52,4.01,2.99,6.01,4.48Z" style="fill: #6bc26b; stroke-width: 0px;"/>
  <path d="M401.24,448.45c-.47-.92-.94-1.85-1.41-2.77-1.47-3.07-2.93-6.14-4.4-9.21-5.01-10.91-9.97-21.86-15.08-32.73-1.84-3.91-4.05-7.65-6.09-11.46-.25-.92-.5-1.85-.75-2.77,3.08-.81,3.18,1.97,3.93,3.55,5.64,11.78,11.15,23.62,16.68,35.45,3.27,6.98,6.31,14.07,9.81,20.93,3.37,6.62,7.18,13.01,10.79,19.51,6.24,7.41,13.52,13.38,22.87,16.51,2.42.81,4.75,1.93,7.12,2.91-.55.33-1.1.67-1.66,1-16.16-3.98-27.97-13.49-35.64-28.18-2.18-4.18-4.14-8.49-6.19-12.73Z" style="fill: #e39e4a; stroke-width: 0px;"/>
  <path d="M72.32,438.23c1.5,1.45,6.51.73,3.19,5.16-1.67-.85-3.27-2.23-5.03-2.48-31.72-4.54-53.1-22.08-65.21-51.43-.18-.45-.2-.96-.3-1.45.71,0,1.42,0,2.13,0,.28,1.48.56,2.97.84,4.45.48.76.96,1.52,1.43,2.27,1.23,1.83,2.4,3.7,3.7,5.47,3.73,5.07,7.12,10.48,11.37,15.08,8.47,9.16,18.69,15.93,30.85,19.28,5.59,1.54,11.34,2.45,17.02,3.65Z" style="fill: #5eb05c; stroke-width: 0px;"/>
  <path d="M524.08,399.26c-.48,1.09-1.18,2.15-1.4,3.29-.41,2.12-.54,4.29-.79,6.45-2.55-5.66-1.16-11.12.87-16.54.44,2.27.88,4.53,1.33,6.8Z" style="fill: #ca977b; stroke-width: 0px;"/>
  <path d="M10.01,107.73c.02.99.3,2.07,0,2.96-.79,2.33-1.7,4.63-2.82,6.81-.48.93-1.59,1.54-2.42,2.3,1.75-4.02,3.49-8.04,5.24-12.06Z" style="fill: #70ca72; stroke-width: 0px;"/>
  <path d="M463.44,488.5c.6-.19,1.2-.39,1.8-.58-.6.19-1.2.39-1.8.58Z" style="fill: #ca977b; stroke-width: 0px;"/>
  <path d="M461.9,489.04c.35-.13.7-.26,1.05-.39-.35.13-.7.26-1.05.39Z" style="fill: #ca977b; stroke-width: 0px;"/>
  <path d="M414.73,468.94c-3.62-6.49-7.43-12.89-10.79-19.51-3.49-6.86-6.54-13.95-9.81-20.93-5.53-11.83-11.04-23.67-16.68-35.45-.75-1.57-.85-4.36-3.93-3.55-7.23-.02-14.46-.04-21.69-.05-2.28-2.71-4.92-1.49-7.53-.7-6.23-.02-12.46-.04-18.69-.06-3.34-2.78-6.96-1.43-10.53-.69-7.98-.02-15.96-.04-23.93-.06-2.03-2.57-4.42-1.47-6.79-.68-6.98-.02-13.96-.04-20.94-.05-3.34-2.81-6.95-1.43-10.53-.7-6.48-.02-12.96-.04-19.44-.06-3.34-2.77-6.96-1.43-10.53-.68-6.73-.02-13.46-.04-20.19-.06-3.34-2.79-6.96-1.43-10.53-.69-6.73-.02-13.46-.04-20.19-.06-2.82-2.74-5.94-1.47-9.03-.69-6.48-.02-12.96-.04-19.44-.06-1.26-.23-2.52-.46-3.79-.69-1.49-.02-2.97-.03-4.46-.05-.51-.23-1.03-.46-1.54-.7-.98-.02-1.97-.04-2.95-.06-.52-.46-1.05-.92-1.57-1.38-.86-.09-1.76-.06-2.59-.28-11.84-3.26-22.31-9.05-31.21-17.52-4.12-3.91-7.97-8.1-11.94-12.17,0,0,0,.02,0,.02-1.48-3.02-2.95-6.05-4.43-9.07-2.36-7.45-4.91-14.85-6.99-22.37-.91-3.3-1.14-6.86-1.2-10.31-.16-8.74-.01-17.48-.06-26.22-.21-36.8-.46-73.61-.69-110.41.48.98,1.33,1.95,1.38,2.95.17,3.49.03,6.99.07,10.48.24,20.06.46,40.12.76,60.18.19,12.78.42,25.56.77,38.33.13,4.83.66,9.65,1.04,14.83.68.13,1.61.31,3.48.66-3.88,1.87-4.98,4.03-2.72,6.95,2.55-3.14,5.06-6.16,7.47-9.27.57-.74.86-1.72,1.15-2.64.7-2.21.81-4.81,2.09-6.58,2.34-3.24.48-5.86-.39-7.69,1.85-2.1,3.22-3.55,4.45-5.11.31-.4.45-1.41.19-1.71-3.25-3.66-1.86-4.78,2.35-5.99,3.66-1.05,6.87-3.67,10.48-5.71,2.2,3.34,6.06,3.7,9.98,3.97,3.09.21,6.26,1.04,9.24.6,5.82-.85,11.52-2.48,16.22-6.36.49-.4.75-1.29.81-1.98.32-4.01.52-8.03.8-12.04.71-10.26,1.54-20.52,2.13-30.79.28-4.91.02-9.85.16-14.78.13-4.71.51-9.42.7-14.13.29-7.33.44-14.67.83-21.99.06-1.19,1.08-2.33,1.65-3.5.13,1.47.38,2.94.38,4.41.03,28.5.12,57-.04,85.5-.04,7.63,1.58,13.97,9.18,17.36.04.5-.04,1.04.14,1.48,3.83,9.39,10.34,16.27,20.09,19.18,6.52,1.95,13.42,2.57,18.53-3.72,3.24-3.98,3.75-8.9,3.89-13.73.22-7.79,0-15.59.07-23.39.07-7.78,3.88-11.83,11.58-12.89,8.08-1.11,16.21-2.1,24.18-3.83,6.87-1.49,10.29-5.06,9.86-11.9-.2-3.05-1-6.11-1.91-9.05-2.2-7.1-4.79-14.08-6.89-21.21-1.84-6.24-1.52-6.52,4.52-9.14,1.49-.64,2.97-1.33,4.35-2.17,3.77-2.3,6.52-5.34,6.77-10.04.56-10.67-4.11-19.49-10.18-27.64-2.32-3.12-5.74-3.36-7.82-1.62-.51.02-1.02.04-1.52.07-3.26-.54-6.51-1.38-9.79-1.55-8.46-.43-16.93-.55-25.39-.8,2.21-1,4.37-2.65,6.65-2.85,4.96-.44,9.98.03,14.97-.19,3.95-.17,7.86-1.01,11.81-1.2,7.89-.38,15.49,1.15,18.09,10.97,1.46,5.51,4.67,10.6,7.4,15.71,3,5.62,4.32,11.73,2.92,17.65-.79,3.31-4.16,6.28-6.93,8.78-3.2,2.88-7.63,4.77-8.39,9.48-.42,2.6-.03,5.63.97,8.07.99,2.44,3.31,4.3,4.83,6.56,2.23,3.31,5.19,1.19,7.86,1.27-.55,1.36-1.12,2.71-1.65,4.08-3.94,10.28-7.97,20.54-11.78,30.87-1.74,4.72-4.59,9.5-2.35,14.72,1.22,2.85,3.4,5.3,5.14,7.93.16,1.3.08,2.69.54,3.87.48,1.24,1.9,2.18,2.18,3.41,1.45,6.26,5.55,10.48,10.55,13.91,6.4,4.39,12.45,9.36,20.77,10.17,8.43.81,14.83-2.88,20.79-8.02.6-.52,1.07-1.42,1.22-2.21,1.28-6.64,5.96-9.64,11.91-11.34,2.64-.75,4.84-.68,6.94,1.71,4.04,4.61,8.76,8.75,14.87,9.98,5.47,1.1,9.92,3.52,14,7.08,1.86,1.62,3.7,3.44,5.88,4.49,5.79,2.79,11.71,5.33,17.67,7.74,3.29,1.33,7.09,3.64,10.07,2.96,4.18-.96,6.79.39,9.88,2.24.7.42,2.54-.06,3.18-.75,2.17-2.35,3.76-2.64,5.98.09,3.08,3.79,7.28,3.56,9.36-.48.67.54,1.63.92,1.85,1.56,1.45,4.19,4.58,6.09,8.59,7.51,1.93.68,4.18,2.73,4.69,4.6.81,3,.18,6.37.39,9.57.07,1.13.51,2.64,1.33,3.26,3.37,2.55,5.96,6.47,10.84,6.58.61.01,1.21.47,2.35.95-1.88,1.42-3.32,2.51-4.91,3.7.5,1.06,1.21,2,1.37,3.02.16,1-.23,2.09-.37,3.13.57.24.9.4,1.24.53,4.8,1.79,5.1,3.13,1.64,6.74-1.14,1.19-2.06,2.59-3.37,4.28,2.68.79,4.86,1.22,6.84,2.1.98.44,1.6,1.69,2.39,2.58-.79.65-1.49,1.52-2.39,1.89-2.67,1.09-3.59,2.38-1.56,5.02,1.9,2.46,1.66,9.63-.53,11.2-2.68,1.91-3.27,4.45-2.86,7.18.68,4.58-.16,9.39,2.4,13.74.61,1.03.07,3.91-.81,4.41-1.94,1.1-3.5.14-4.22-2.4-.35-1.24-2.09-2.09-3.21-3.12-.24.25-.48.5-.71.75,1.03,1.99,2.06,3.97,3.08,5.94-2.08,1.18-3.58,2.03-4.6,2.61-.74-1.08-1.38-2-2.02-2.93-.49,1.06-1.35,2.11-1.41,3.19-.2,3.85,1.49,5.21,5.19,2.9-.52,3.67-6.13,7.15-11.81,6.84,1.29,1.58,1.86,2.94,2.82,3.32,4.55,1.81,6.04,1.05,9.37-4.22,3.12,1.43,3.58,3.31.87,4.8-2.08,1.15-4.62,1.47-6.97,2.13-.87.25-2.15.1-2.59.65-2.17,2.75-1.96,9.39.3,12.35-3.04,2.22-2.71,4.32.31,6.34.53.36,1.2,1.39,1.03,1.78-1.68,3.82.52,4.87,3.98,5.17-.29,1.45-.94,2.73-.68,3.79.46,1.88,1.01,4.48,2.37,5.21,1.94,1.04,3.55,1.64,2.26,3.92-1.18,2.09-3.19,2.21-5.15.85-1.84-1.27-3.56-2.72-5.46-3.89-2.48-1.54-5.09-2.88-7.64-4.31Z" style="fill: #eab057; stroke-width: 0px;"/>
  <path d="M414.73,468.94c2.55,1.43,5.15,2.77,7.64,4.31,1.9,1.17,3.62,2.62,5.46,3.89,1.97,1.35,3.97,1.23,5.15-.85,1.29-2.28-.33-2.87-2.26-3.92-1.36-.73-1.91-3.33-2.37-5.21-.26-1.06.39-2.34.68-3.79-3.46-.29-5.66-1.34-3.98-5.17.17-.38-.5-1.42-1.03-1.78-3.02-2.02-3.36-4.13-.31-6.34-2.26-2.96-2.46-9.61-.3-12.35.44-.55,1.72-.4,2.59-.65,2.35-.66,4.89-.99,6.97-2.13,2.71-1.5,2.25-3.38-.87-4.8-3.33,5.27-4.82,6.03-9.37,4.22-.96-.38-1.53-1.75-2.82-3.32,5.68.31,11.29-3.17,11.81-6.84-3.71,2.31-5.39.95-5.19-2.9.06-1.09.92-2.13,1.41-3.19.64.93,1.28,1.86,2.02,2.93,1.01-.58,2.52-1.43,4.6-2.61-1.02-1.96-2.05-3.95-3.08-5.94.24-.25.48-.5.71-.75,1.11,1.03,2.85,1.88,3.21,3.12.72,2.53,2.28,3.5,4.22,2.4.88-.5,1.42-3.38.81-4.41-2.56-4.35-1.72-9.16-2.4-13.74-.41-2.73.19-5.27,2.86-7.18,2.2-1.57,2.43-8.74.53-11.2-2.04-2.64-1.12-3.94,1.56-5.02.9-.37,1.6-1.25,2.39-1.89-.78-.89-1.4-2.14-2.39-2.58-1.98-.88-4.16-1.31-6.84-2.1,1.32-1.69,2.23-3.09,3.37-4.28,3.46-3.6,3.16-4.94-1.64-6.74-.34-.13-.67-.29-1.24-.53.15-1.04.53-2.13.37-3.13-.16-1.03-.87-1.97-1.37-3.02,1.58-1.19,3.02-2.28,4.91-3.7-1.14-.47-1.74-.93-2.35-.95-4.88-.11-7.47-4.03-10.84-6.58-.82-.62-1.25-2.12-1.33-3.26-.21-3.2.42-6.57-.39-9.57-.5-1.86-2.76-3.92-4.69-4.6-4.01-1.42-7.14-3.31-8.59-7.51-.22-.63-1.17-1.02-1.85-1.56-2.07,4.04-6.27,4.27-9.36.48-2.22-2.72-3.81-2.44-5.98-.09-.64.69-2.48,1.17-3.18.75-3.1-1.85-5.71-3.2-9.88-2.24-2.98.69-6.78-1.62-10.07-2.96-5.96-2.41-11.88-4.95-17.67-7.74-2.18-1.05-4.02-2.87-5.88-4.49-4.08-3.56-8.53-5.98-14-7.08-6.12-1.23-10.84-5.37-14.87-9.98-2.09-2.39-4.3-2.47-6.94-1.71-5.95,1.7-10.63,4.7-11.91,11.34-.15.79-.62,1.69-1.22,2.21-5.96,5.14-12.36,8.83-20.79,8.02-8.31-.8-14.37-5.78-20.77-10.17-5.01-3.43-9.11-7.65-10.55-13.91-.29-1.24-1.7-2.17-2.18-3.41-.46-1.18-.38-2.57-.54-3.87,1.47.75,2.94,1.5,4.41,2.25,2.52,7.45,7.38,13.11,14.33,16.43,11.1,5.29,22.71,4.64,27.34-9.65,2.1-6.46,5.2-12.57,12.74-14.26,6.14-1.38,12.73-3.45,18.35.61,6.19,4.46,12.53,9.21,17.24,15.08,6.69,8.35,14.85,13.07,25.13,14.12,4.47.46,8.7-1.14,11.88-4.91,4.21-4.99,4.15-10.69,2.98-16.5-1.05-5.19-2.52-10.31-3.88-15.43-.54-2.04.26-2.8,2.2-2.77,2.46,2.43,4.93,4.86,7.39,7.3.21.94.12,2.13.67,2.79,5.38,6.5,10.48,13.28,16.4,19.25,6.79,6.85,15.87,10.23,24.8,13.21,13.1,4.37,26.85,5.53,40.52,7.02,7.85.86,15.64,2.29,23.47,3.41,4.53.65,9.08,1.68,13.61,1.6,3.17-.05,6.92-.91,9.35-2.78,5.01-3.85,5.53-12.21,2.75-18.09-2.5-5.28-6.62-10.05-5.83-16.6.52-4.3.58-8.66.79-13,.29-5.9.51-11.8.8-17.69.2-4.04,1.1-8.17.57-12.1-1.35-10.04-2.51-20.22-5.21-29.94-6.31-22.65-18.65-41.22-39.46-53.32-9.52-5.54-19.9-6.01-30.5-5.12-.15.01-.25.65-.38.99-1.25-.04-2.5-.08-3.76-.12-2.18-2.01-6.78-2.01-8.97,0-8,1.37-15.99,2.74-23.99,4.12,1.67-1.85,3.14-3.94,5.07-5.47,2.31-1.83,4.97-3.22,7.53-4.73,2-1.18,3.95-2.75,6.13-3.25,4.6-1.05,7.05-5.77,12.56-5.85,5.21-.08,10.39-2.7,15.58-4.2.93-.27,1.86-.6,2.82-.72,5.4-.71,6.6-1.66,7.78-6.28,3.21-.36,6.35-.71,9.06-1.01.24-2.07.49-4.16.8-6.78-1.45-.63-3.6-1.57-5.12-2.23.99-3,1.8-5.47,2.68-8.14.42.2,1.35.63,2.51,1.17.65-1.25,1.41-2.46,1.91-3.77.34-.87.31-1.88.44-2.83-.99.04-2.05-.11-2.96.18-.78.24-1.4.99-1.92,1.38-1.59-.82-3.11-1.59-5.11-2.61.92-1.22,1.82-2.39,2.69-3.54,2.1,1.17,3.86,2.16,5.62,3.15.34-.38.68-.77,1.02-1.15-1.09-1.14-2.19-2.29-3.74-3.91,1.29-1.75,2.85-3.85,4.58-6.2-1.14-.59-2.02-1.04-3.42-1.76,3.04-.29,5.48-.52,7.57-.73.55-3.86,1.12-7.41,1.54-10.97.13-1.08.2-2.39-.27-3.29-1.81-3.46-.51-6.53.73-9.71.39-1.01.45-2.27.3-3.36-.34-2.5-.98-4.96-1.34-7.46-.09-.64.3-1.42.66-2.02.84-1.41,1.8-2.76,3.29-4.99,8.77-1.39,18.83-2.47,28.93-.07,6.46,5.51,12.92,11.01,19.38,16.52-4.56.47-.76,2.74-.38,3.24,10.45,13.53,15.87,28.78,16.26,45.86.02.87.9,1.72,1.38,2.58,0,72.66-.01,145.33-.02,217.99-2.22,3.26-2.23,6.83-1.45,10.51,0,.5-.02.99-.03,1.49-.48,1.5-.96,3.01-1.45,4.51-.02.49-.03.99-.05,1.48-.53.57-1.24,1.06-1.58,1.73-3.15,6.24-6.26,12.5-9.31,18.78-.52,1.08-.72,2.31-1.06,3.47-1.23.96-2.56,1.8-3.65,2.89-3.17,3.15-6.27,6.37-9.35,9.6-.97,1.02-1.82,2.16-2.72,3.25,0,0,0,0,0,0-3.75,2.25-7.49,4.5-11.24,6.75-.5.25-1,.49-1.5.74-.5.25-1,.5-1.5.75-.48.02-.96.03-1.44.05-3.02,1.21-6.05,2.43-9.07,3.64-.49.02-.99.03-1.48.05-2.25.48-4.51.97-6.76,1.45-.74.01-1.49.03-2.23.04-1.67-.82-3.37-1.8-4.51.72-.74.01-1.49.03-2.23.04l-3.48-.11c.4.79.8,1.57,1.2,2.36,0,1.25.02,2.5.03,3.75-.84,1.67-1.77,3.35.69,4.52.02,1.24.03,2.48.05,3.73-.82,1.67-1.76,3.35.69,4.52.02,1.49.04,2.98.06,4.47-.84,1.67-1.77,3.35.69,4.52.02,1.24.03,2.49.05,3.73-.81,2.13-1.94,4.29.72,6.01,0,.75.02,1.49.02,2.24-.73,2.36-1.94,4.76.74,6.75,0,.5,0,1,.01,1.49-.8,2.13-1.91,4.29.71,6.01.01,1,.02,1.99.03,2.99-.19,2.27-.79,4.6-.49,6.81,1.07,8,1.25,15.74-3.84,22.68-.54.73-.6,1.81-.88,2.72-.75.75-1.5,1.49-2.25,2.24-3.62,1.42-7.15,3.14-10.88,4.15-2.99.81-6.22.74-9.34,1.07-.75,0-1.49-.02-2.24-.02-2.37-.98-4.69-2.1-7.12-2.91-9.35-3.14-16.63-9.1-22.87-16.51ZM423.76,444.53c.25.39.5.77.75,1.16.97-.68,1.95-1.35,2.92-2.03-.22-.34-.44-.67-.66-1.01-1,.63-2,1.25-3,1.88ZM433.18,340.27c-.08-.21-.12-.53-.26-.6-.15-.06-.41.13-.62.21.08.21.11.53.26.6.15.07.41-.13.62-.21Z" style="fill: #e8ae57; stroke-width: 0px;"/>
  <path d="M400.5,144.76c8-1.37,15.99-2.74,23.99-4.12,2.99,0,5.98,0,8.97,0,1.25.04,2.5.08,3.76.12,5.49,1.52,10.97,3.04,16.46,4.56-.48,2.88,1.74,3.87,3.6,5.03,10.26,6.39,17.98,15.1,22.1,26.4,2.48,6.8,4.03,14.07,5,21.26,2.37,17.63.28,34.7-8.23,50.64-1.38,2.58-2.95,5.06-4.52,7.75,4.44,2.63,8.59,5.12,12.78,7.57,8.31,4.86,10.05,12.9,3.83,19.48-.41.43-.59,1.06-.88,1.6-.23.13-.46.26-.68.39-3.97,1.33-7.79.49-11.15-1.52-6.2-3.71-12.25-7.68-18.18-11.81-1.88-1.31-3.38-1.58-5.46-.84-8.79,3.17-17.96,4.64-27.2,3.87-8.11-.68-16.12-2.6-24.18-3.97-5.22-3.35-10.43-6.7-15.65-10.05-2.46-2.43-4.93-4.86-7.39-7.29-5.5-8.27-9.91-17-11.61-26.9-1.8-10.14-2.74-20.32-1.61-30.61,1.87-12.57,5.22-24.54,13.35-34.74,5.07-6.36,11.21-11.25,18.6-14.62,1.47-.67,2.88-1.46,4.32-2.2ZM415.67,167.13c-1.43.27-2.99.25-4.27.84-9.34,4.26-14.57,12.08-17.55,21.46-3.5,11.02-3.23,22.35-.64,33.44,3.25,13.93,11.83,24.66,27.22,26.72.58.08,1.22-.31,1.83-.48,3.21.43,6.43.87,9.64,1.3.05-.37.11-.73.16-1.1-3.74-2.17-7.44-4.41-11.22-6.49-3.63-2-5.4-4.98-5.24-9.11,1.9-2.18,3.41-5.11,5.8-6.39,4.53-2.41,9.56-2.5,14.29.09,5.09,2.79,10.12,5.67,15.31,8.58.96-1.82,1.88-3.55,2.8-5.28,1.12-4.67,2.77-9.28,3.25-14.02.8-7.88,1.16-15.86-1.89-23.49-.86-5.24-2.33-10.24-5.84-14.41-.65-.73-1.38-1.42-1.95-2.21-5.08-7.02-12.21-9.95-20.59-10.42-3.7.32-7.4.64-11.1.96Z" style="fill: #eaeae9; stroke-width: 0px;"/>
  <path d="M249.15,271.11c-1.47-.75-2.94-1.5-4.41-2.25-1.75-2.63-3.92-5.08-5.14-7.93-2.24-5.23.61-10,2.35-14.72,3.81-10.33,7.83-20.59,11.78-30.87.53-1.37,1.1-2.72,1.65-4.08,4.91-12.62,9.83-25.25,14.73-37.88,2.61-6.72,5.15-13.48,7.76-20.2,2.63-6.79,6.75-12.16,14.09-14.35,5.2-.08,10.4-.15,15.59-.22.51.25,1.01.5,1.52.75-.81,2.03-.52,3.6,1.16,5.29,1.53,1.54,2.75,3.58,3.58,5.62,4.95,12.18,9.83,24.4,14.58,36.66,7.84,20.26,15.7,40.52,23.25,60.89,2.93,7.89,5.36,16.1-2.58,22.97-.23.2-.19.7-.27,1.06-1.25.5-2.5,1-3.74,1.5-1.01.13-2.01.26-3.02.39-5.55-.06-9.66-2.33-11.91-7.62-1.55-3.64-3.27-7.21-4.92-10.81-1.18-3.52-2.62-6.97-3.47-10.57-.76-3.21-2.7-4.08-5.58-4.09-9.09-.05-18.19-.13-27.28-.21-3.77-.09-7.53-.17-11.3-.26-2.97-1.49-4.53-.14-5.62,2.62-3.71,9.34-5.67,19.47-12.36,27.47-2.47.42-4.93.84-7.4,1.25-1.01-.14-2.02-.27-3.04-.41ZM286.63,216.43c3.98-.04,7.96-.08,11.95-.11,1.77-.14,3.54-.28,5.31-.42,2.39.18,4.77.36,7.95.59-3.01-8.32-5.73-15.82-8.45-23.33-1.36-4.21-2.72-8.42-4.08-12.62-.79-2.04-1.57-4.08-2.36-6.12-.48.05-.96.09-1.45.14-4.85,13.93-9.71,27.86-14.95,42.92,2.89-.5,4.49-.77,6.09-1.05Z" style="fill: #ebeaea; stroke-width: 0px;"/>
  <path d="M154.75,268.96c-7.6-3.39-9.22-9.74-9.18-17.36.15-28.5.06-57,.04-85.5,0-1.47-.25-2.94-.38-4.41.14-2.73.34-5.47.42-8.2.37-12.29,6.3-15.25,15.99-16.29,8.11-.87,16.39-.15,24.59-.15,2.99,0,5.98-.02,8.97-.03,8.47.25,16.94.37,25.39.8,3.28.17,6.53,1.01,9.79,1.55.31,1.66.57,3.34.96,4.99.37,1.55,1,3.05,1.32,4.61,1.12,5.41-1.74,9.21-5.29,12.71-2.68.34-5.36.94-8.04.97-8.04.08-16.09-.08-24.13-.14-5.5-.07-10.99-.13-16.49-.2-1.61-.19-3.22-.39-4.99-.6v28.05c1.69-.44,3-.79,4.32-1.13,4.22.03,8.44.06,12.66.09,2.75.04,5.5.09,8.26.13,7.25.45,14.5.9,21.75,1.35.53,1.44.81,3.05,1.65,4.29,3.53,5.23,2.67,12.2-2.12,16.31-.51.44-.74,1.22-1.1,1.84-2.3.33-4.61.92-6.92.94-7.42.09-14.85-.03-22.27-.07-3.79-.15-7.58-.3-11.37-.45-1.55-.11-3.09-.22-4.77-.34-.15,1.03-.31,1.63-.32,2.23-.25,11.93-.71,23.85-.64,35.78.04,6.64-.6,12.66-6.68,16.7-.16.1-.14.46-.21.7-1.74.54-3.48,1.07-5.22,1.61-2-.25-4-.51-6-.76Z" style="fill: #ebeaea; stroke-width: 0px;"/>
  <path d="M307.55,138.6c-5.2.07-10.4.15-15.59.22.61-1.29.9-2.97,1.89-3.82,7.64-6.49,16.33-8.85,25.47-3.95,4.07,2.18,8.4,5.61,10.39,9.58,6.97,13.93,16.59,26.53,20.95,41.81,1.61,5.65,4.53,10.93,6.96,16.33,1.15,2.55,2.42,2.47,3.84,0,.58-1.01,1.82-1.65,2.77-2.46-1.12,10.29-.19,20.47,1.61,30.61-3.9.27-5.13-2.98-6.15-5.49-6.28-15.41-12.44-30.87-18.28-46.44-4.75-12.65-11.69-23.79-21.27-33.28-4.02-3.98-8.92-5.12-12.6-3.12Z" style="fill: #eab057; stroke-width: 0px;"/>
  <path d="M470.18,67.37c-1.34-2.25-2.43-4.34-.13-6.39.34-.3,2.12.29,2.11.45-.02,2.08,1.48,4.76-1.98,5.94Z" style="fill: #e8ae57; stroke-width: 0px;"/>
  <path d="M70.13,171.48c0-3.75,0-7.5,0-11.25.47.47,1.4,1.02,1.33,1.39-.62,3.26,1.81,6.96-1.33,9.85Z" style="fill: #eab057; stroke-width: 0px;"/>
  <path d="M463.01,110.27c-.62.56-.93,1.04-1.27,1.07-.31.03-.67-.43-1-.68.29-.35.52-.85.89-1,.25-.1.7.28,1.39.6Z" style="fill: #e8ae57; stroke-width: 0px;"/>
  <path d="M85.5,45.4c-.09.21-.13.53-.28.59-.15.06-.52-.1-.57-.25-.06-.15.14-.4.23-.61.21.09.41.18.62.27Z" style="fill: #efc37b; stroke-width: 0px;"/>
  <path d="M70.13,149.01c0-.5,0-1.01,0-1.51.38.31.75.62,1.13.92-.38.2-.75.39-1.13.59Z" style="fill: #eab057; stroke-width: 0px;"/>
  <path d="M72.32,438.23c-5.68-1.2-11.43-2.12-17.02-3.65-12.16-3.34-22.37-10.11-30.85-19.28-4.25-4.6-7.64-10.01-11.37-15.08-1.3-1.77-2.47-3.64-3.7-5.47-.48-.76-.96-1.52-1.43-2.27-.28-1.48-.56-2.97-.84-4.45-3.9-11.19-4.64-22.74-4.55-34.52.24-30.19.16-60.38.05-90.57-.06-15.51-.44-31.01-.68-46.52.48.47,1.36.93,1.38,1.42.18,5.17.08,10.36.33,15.53.24,4.73.82,9.45,1.25,14.17.47-.01.94-.02,1.41-.03.31-3.2.48-6.43.99-9.6.19-1.19,1.19-2.26,1.83-3.38.74,1.13,2.22,2.36,2.08,3.37-.26,1.92-.36,3.1,1.88,3.57.38.08.66,1.19.79,1.86.81,4.09,1.5,8.15,5.06,11.09.58.48-.11,2.48-.43,3.76,0,1.85-.23,3.73.06,5.53.3,1.81,1.11,3.53,1.88,5.82,2.74-3.28,4.89-5.85,7.45-8.91-.11-3.77,4.6-5.13,6.9-8.57-.38-1.21-1.06-2.71-1.28-4.27-.43-3.1-.17-5.99,3.35-7.46.71-.3,1.7-1.68,1.52-2.06-1.56-3.27.56-4.46,3.14-5.48-.76-2.68-5.28-5.71.43-7.01.17-3.52.2-6.6.55-9.65.08-.71,1.24-1.29,1.88-1.96.74-.78,2.12-1.66,2.05-2.38-.35-3.49,3.6-5.6,2.45-9.66-.55-1.94,2.12-4.74,3.18-7.21,1.94-4.49,3.75-9.02,5.64-13.53,1.36-3.25,2.49-6.65,4.21-9.71,3.31-5.88,3.47-12.43,4.62-18.78.07-.38.96-.6,1.47-.9.17,1.98.48,3.96.48,5.94.05,50.53-.05,101.07.2,151.6.06,11.56,3.14,22.61,8.83,32.81,2,3.01,3.99,6.02,5.99,9.03,0,0,0-.02,0-.02.53,1.21.87,2.57,1.64,3.61,6.55,8.82,14.72,15.8,24.26,21.23,8.21,4.67,17.12,7.28,26.23,9.37-.04,1.16-.45,2.47-.04,3.44.96,2.25,2.34,4.31,3.5,6.48,3.52,6.57,3.5,14.69,8.95,20.43.32.34.43.89.6,1.36,3.3,8.77,6.58,17.55,9.9,26.32,1.61,4.25,4.12,8.31,2.13,13.16-1.88,4.57-3.68,9.16-5.49,13.76-1.66,4.22-3.29,8.46-4.94,12.69-1.25,3-2.49,6-3.74,8.99-.26.75-.51,1.49-.77,2.24-1.75,3.5-3.51,6.99-5.26,10.49-.25.5-.49,1-.74,1.5-.25.5-.51,1-.76,1.5-1,2-2,4-2.99,5.99-.49.75-.98,1.49-1.48,2.24,0,0-.01.01-.01.01-.5.74-.99,1.48-1.49,2.23-.25.26-.51.51-.76.77-.99,1.24-1.99,2.48-2.98,3.72,0,0-.02.02-.02.02-1.24.99-2.48,1.98-3.72,2.97-1.25,1.01-2.49,2.03-3.74,3.04-1.01.74-2.02,1.48-3.03,2.21-1.99.77-3.97,1.54-5.96,2.31-.52.47-1.04.94-1.57,1.41-.97.25-1.95.51-2.92.76-.53.24-1.06.48-1.59.72-1.72.25-3.43.5-5.15.74-.2-.37-.4-.74-.61-1.1-.31.37-.62.75-.92,1.12-1.99,0-3.98,0-5.97,0-.31-.37-.61-.75-.92-1.12-.2.37-.41.73-.61,1.1-1.74-.48-3.48-.96-5.22-1.44-2.01-1.49-4.03-2.96-6.01-4.48-5.67-4.35-9.14-10.18-8.85-17.24.52-12.6,1.81-25.17,2.79-37.75.52-6.66,1-13.33,1.6-19.99.36-4.06.82-8.11,1.41-12.15.85-5.74-.99-7.59-5.93-5.76Z" style="fill: #70ca72; stroke-width: 0px;"/>
  <path d="M1.92,213.45c0-3.5,0-7,0-10.5,1.98,1.94,1.98,8.56,0,10.5Z" style="fill: #70ca72; stroke-width: 0px;"/>
  <path d="M1.92,196.21c0-1.25,0-2.51,0-3.76,2.35,1.25,2.35,2.51,0,3.76Z" style="fill: #70ca72; stroke-width: 0px;"/>
  <path d="M547.35,88.32c-.5-1.74-1.01-3.48-1.51-5.22-.74-2.76-1.48-5.51-2.22-8.27,4.67.49,9.52.35,13.97,1.62,5.03,1.44,9.7,4.13,14.52,6.3.33.15.54.6.86.7,6.53,1.88,6.65,6.92,6.67,12.48.06,19.37.48,38.75.66,58.12.3,31.91.53,63.82.75,95.73.07,9.42-.08,18.84.04,28.25.09,6.89.72,13.78.63,20.67-.07,5.05-.91,10.1-1.41,15.14h-5.99c-.5-7.17-1.22-14.34-1.45-21.52-.42-13.26-.53-26.52-.8-39.78-.21-10.22-.45-20.45-.75-30.67-.46-15.16-1.05-30.32-1.47-45.49-.35-12.75-.43-25.52-.8-38.27-.37-12.79-.89-25.59-1.49-38.37-.32-6.92-.48-6.94-7.47-6.94-4.25-1.5-8.5-3-12.74-4.49Z" style="fill: #dda169; stroke-width: 0px;"/>
  <path d="M574.32,313.84c2,0,4,0,5.99,0,3,2,5.99,4,8.99,6-1.82,1.94-3.37,4.3-5.53,5.74-5.55,3.71-9.86,8.44-13.75,13.82-6.91,9.56-16.83,15.69-26.49,22.01-3.32,2.17-6.83,4.09-10.37,5.9-1.37.71-3.06.81-4.6,1.19,10.16-12.28,16.91-26.1,18.97-42.03.09-.73.39-1.43.59-2.14,2.64-.96,5.28-1.92,7.93-2.86,1.59-.56,3.19-1.09,4.78-1.63,1.09-.04,2.37.26,3.25-.19,3.48-1.81,6.84-3.85,10.24-5.8Z" style="fill: #c8906e; stroke-width: 0px;"/>
  <path d="M543.62,74.83c.74,2.76,1.48,5.51,2.22,8.27-1.87-.16-2.27.69-2.1,2.48.54,5.4.89,10.82,1.31,16.24-.48-.86-1.36-1.71-1.38-2.58-.39-17.09-5.81-32.34-16.26-45.86-.38-.5-4.18-2.77.38-3.24,1.74,2.02,3.48,4.04,5.22,6.06,2.29,3.96,4.58,7.93,6.87,11.89,1.25,2.25,2.49,4.5,3.74,6.75Z" style="fill: #e39e4a; stroke-width: 0px;"/>
  <path d="M136.75,519.13c3.06-6.1,6.19-12.16,9.17-18.29,7.8-16.02,15.53-32.06,23.28-48.11.59-1.23.97-2.57,1.61-3.77,1.76-3.35,3.94-5.89,8.35-5.54,4.34.34,8.72.15,13.09.19-.32,1.31-.43,2.72-.98,3.93-8.24,17.99-17.85,35.26-27.21,52.68-2.64,4.9-5.78,8.58-10.58,10.96-5.53,2.74-11.14,5.32-16.72,7.96Z" style="fill: #78a678; stroke-width: 0px;"/>
  <path d="M503.17,387.14c.45-.21.91-.42,1.36-.63,2.04-.01,4.08-.03,6.12-.05-.79,3.74-2.08,7.47-2.26,11.24-.35,7.38-4.02,13.14-8.01,18.85-.5.71-.94,1.59-1.64,2.01-7.11,4.32-7.48,12.12-9.82,18.89-1.08.98-2.25,1.87-3.23,2.94-2.7,2.98-5.32,6.03-7.98,9.06-.97-9-1.95-17.99-2.89-26.99-.82-7.9-1.64-15.79-2.34-23.7-.27-3.05,1.25-4.87,4.36-5.51,8.25-1.69,16.47-3.49,24.71-5.25.54-.29,1.08-.59,1.62-.88Z" style="fill: #b87050; stroke-width: 0px;"/>
  <path d="M477.71,449.46c2.65-3.02,5.27-6.08,7.98-9.06.97-1.07,2.15-1.97,3.23-2.94,3.81,1.24,7.62,2.49,11.69,3.82.31,1.96.72,4.25,1.02,6.55.73,5.7-.71,10.83-5.51,14.14-5.96,4.1-12.31,7.63-18.49,11.4,2.08-7.96,1.46-15.93.09-23.9Z" style="fill: #db9b5b; stroke-width: 0px;"/>
  <path d="M560.84,319.84c-1.59.54-3.19,1.07-4.78,1.63-2.65.94-5.29,1.91-7.93,2.86,0-67.48.02-134.95-.06-202.43-.01-11.19-.47-22.39-.73-33.58,4.25,1.5,8.5,3,12.74,4.49.5,11.85,1.17,23.69,1.44,35.54.24,10.59-.03,21.2.07,31.8.15,14.49.57,28.99.62,43.48.03,9.45-.51,18.9-.6,28.35-.04,4.2.54,8.41.57,12.62.02,3.09-.62,6.18-.58,9.26.15,11.08.52,22.17.66,33.25.04,2.71-.91,5.47-.62,8.12.92,8.26.84,16.45-.84,24.6Z" style="fill: #db9b5b; stroke-width: 0px;"/>
  <path d="M469.43,480.93c.28-.92.35-1.99.88-2.72,5.09-6.94,4.91-14.68,3.84-22.68-.3-2.21.3-4.54.49-6.81,1.83,9.88,3.06,19.73-2.2,29.04-.7,1.23-1.99,2.12-3.01,3.17Z" style="fill: #e39e4a; stroke-width: 0px;"/>
  <path d="M530.12,361.79c.35-1.16.54-2.4,1.06-3.47,3.05-6.29,6.16-12.54,9.31-18.78.34-.67,1.04-1.16,1.58-1.73-3.34,7.43-6.65,14.87-10.05,22.27-.33.71-1.25,1.15-1.9,1.72Z" style="fill: #e39e4a; stroke-width: 0px;"/>
  <path d="M514.39,377.53c.9-1.09,1.75-2.23,2.72-3.25,3.08-3.23,6.18-6.46,9.35-9.6,1.1-1.09,2.43-1.93,3.65-2.89-3.89,6.6-8.93,12.05-15.73,15.74Z" style="fill: #e39e4a; stroke-width: 0px;"/>
  <path d="M446.96,488.38c3.12-.32,6.35-.26,9.34-1.07,3.73-1.01,7.26-2.73,10.88-4.15-4.06,4.78-14.34,7.43-20.22,5.22Z" style="fill: #e39e4a; stroke-width: 0px;"/>
  <path d="M503.15,384.28c3.75-2.25,7.49-4.5,11.24-6.75l-11.24,6.75Z" style="fill: #e39e4a; stroke-width: 0px;"/>
  <path d="M543.58,330.32c-.78-3.68-.77-7.24,1.45-10.51-.48,3.5-.97,7-1.45,10.51Z" style="fill: #e39e4a; stroke-width: 0px;"/>
  <path d="M489.64,389.46c3.02-1.21,6.05-2.43,9.07-3.64-3.02,1.21-6.05,2.43-9.07,3.64Z" style="fill: #e39e4a; stroke-width: 0px;"/>
  <path d="M473.88,438.23c-2.67-1.99-1.47-4.39-.74-6.75.25,2.25.49,4.5.74,6.75Z" style="fill: #e39e4a; stroke-width: 0px;"/>
  <path d="M481.4,390.95c2.25-.48,4.51-.97,6.76-1.45-2.25.48-4.51.97-6.76,1.45Z" style="fill: #e39e4a; stroke-width: 0px;"/>
  <path d="M470.14,394.01c-.4-.79-.8-1.57-1.2-2.36l3.48.11c-.76.75-1.52,1.5-2.29,2.25Z" style="fill: #e39e4a; stroke-width: 0px;"/>
  <path d="M473.12,429.24c-2.65-1.71-1.53-3.88-.72-6.01.24,2,.48,4,.72,6.01Z" style="fill: #e39e4a; stroke-width: 0px;"/>
  <path d="M474.61,445.73c-2.63-1.72-1.52-3.88-.71-6.01.24,2,.48,4,.71,6.01Z" style="fill: #e39e4a; stroke-width: 0px;"/>
  <path d="M474.66,391.72c1.14-2.53,2.84-1.54,4.51-.72-1.5.24-3.01.48-4.51.72Z" style="fill: #e39e4a; stroke-width: 0px;"/>
  <path d="M471.6,410.52c-2.45-1.16-1.52-2.85-.69-4.52.23,1.51.46,3.01.69,4.52Z" style="fill: #e39e4a; stroke-width: 0px;"/>
  <path d="M472.36,419.51c-2.47-1.16-1.53-2.85-.69-4.52.23,1.51.46,3.01.69,4.52Z" style="fill: #e39e4a; stroke-width: 0px;"/>
  <path d="M470.86,402.28c-2.46-1.17-1.53-2.85-.69-4.52.23,1.51.46,3.01.69,4.52Z" style="fill: #e39e4a; stroke-width: 0px;"/>
  <path d="M542.11,336.32c.48-1.5.97-3.01,1.45-4.51-.48,1.5-.96,3.01-1.45,4.51Z" style="fill: #e39e4a; stroke-width: 0px;"/>
  <path d="M500.15,385.76c.5-.25,1-.5,1.5-.75-.5.25-1,.5-1.5.75Z" style="fill: #e39e4a; stroke-width: 0px;"/>
  <path d="M503.17,387.14c-.54.29-1.08.59-1.62.88.54-.29,1.08-.59,1.62-.88Z" style="fill: #ca977b; stroke-width: 0px;"/>
  <path d="M395.43,436.47c1.47,3.07,2.93,6.14,4.4,9.21-9.84,0-19.68.12-29.52,0-13.05-.15-26.09-.48-39.14-.73-12.92-.25-25.84-.49-38.76-.75-11.93-.24-23.85-.51-35.78-.76,1.09-.76,2.17-1.52,4.19-2.93-2.86-1.1-5.45-1.81-7.79-3.04-10.8-5.66-21.6-11.32-32.26-17.23-14.13-7.83-27.18-17.23-39.38-27.8-1.69-1.47-2.79-3.62-4.16-5.46.39.06.79.12,1.18.18,1.18,0,2.36,0,3.54.01,2.92.02,5.84.05,8.76.07,1.12,1.06,2.07,2.48,3.39,3.13,8.73,4.25,17.41,8.65,26.38,12.35,6.11,2.52,12.6,4.17,19.02,5.84,2.95.77,6.15.57,9.22.94,5.76.69,11.5,1.68,17.27,2.18,6.82.59,13.68.63,20.5,1.22,4.84.42,9.48,1.65,14.51,1.59,7.48-.09,15.09.98,22.43,2.56,8.48,1.83,17.22,2.5,25.41,5.94,5.39,2.26,11.32,3.2,16.92,5,9.18,2.94,18.29,6.13,27.45,9.12.6.2,1.47-.41,2.21-.64Z" style="fill: #5eb05c; stroke-width: 0px;"/>
  <path d="M150.25,483.17c1.64-4.23,3.27-8.47,4.94-12.69,1.81-4.59,3.61-9.19,5.49-13.76,1.99-4.85-.52-8.91-2.13-13.16-3.32-8.76-6.6-17.55-9.9-26.32-.17-.46-.28-1.02-.6-1.36-5.45-5.73-5.43-13.86-8.95-20.43-1.16-2.16-2.54-4.23-3.5-6.48-.41-.97,0-2.28.04-3.44,7.62.32,15.24.63,22.87.94,2.38,3.73,4.47,7.7,7.2,11.16,6.2,7.82,12.6,15.49,19.15,23.02,4.68,5.38,9.8,10.39,14.56,15.71.48.53.15,2.76-.4,3.05-1.37.7-3.11.63-4.64,1.07-1.03.3-1.95.95-2.92,1.44h-19.29c-.89,1.47-2.04,3.36-3.19,5.25-.25.5-.5,1-.75,1.51-3.91,8.17-7.76,16.36-11.75,24.49-1.67,3.4-3.63,6.66-5.46,9.98-.25,0-.51,0-.76,0Z" style="fill: #6bc26b; stroke-width: 0px;"/>
  <path d="M191.45,441.94c.97-.49,1.89-1.15,2.92-1.44,1.53-.44,3.27-.37,4.64-1.07.55-.28.88-2.51.4-3.05-4.76-5.32-9.88-10.33-14.56-15.71-6.55-7.53-12.95-15.2-19.15-23.02-2.74-3.45-4.82-7.42-7.2-11.16,6.25.17,12.49.33,18.74.5,1.37,1.84,2.47,3.99,4.16,5.46,12.2,10.57,25.25,19.97,39.38,27.8,10.66,5.91,21.46,11.57,32.26,17.23,2.33,1.22,4.93,1.94,7.79,3.04-2.02,1.41-3.1,2.17-4.19,2.93-10.18-.24-20.36-.5-30.53-.73-11.55-.26-23.1-.51-34.65-.77Z" style="fill: #64b963; stroke-width: 0px;"/>
  <path d="M140.48,504.89c1.75-3.5,3.51-6.99,5.26-10.49-1.75,3.5-3.51,6.99-5.26,10.49Z" style="fill: #6bc26b; stroke-width: 0px;"/>
  <path d="M150.25,483.17c.25,0,.51,0,.76,0-1.5,3-3,5.99-4.5,8.99,1.25-3,2.49-6,3.74-8.99Z" style="fill: #64b963; stroke-width: 0px;"/>
  <path d="M129.26,522.85c.99-1.24,1.99-2.48,2.98-3.72-.99,1.24-1.99,2.48-2.98,3.72Z" style="fill: #6bc26b; stroke-width: 0px;"/>
  <path d="M125.51,525.84c1.24-.99,2.48-1.98,3.72-2.97-1.24.99-2.48,1.98-3.72,2.97Z" style="fill: #6bc26b; stroke-width: 0px;"/>
  <path d="M118.75,531.09c1.01-.74,2.02-1.48,3.03-2.21-1.01.74-2.02,1.48-3.03,2.21Z" style="fill: #5eb05c; stroke-width: 0px;"/>
  <path d="M134.51,516.12c.49-.75.98-1.49,1.48-2.24-.49.75-.98,1.49-1.48,2.24Z" style="fill: #6bc26b; stroke-width: 0px;"/>
  <path d="M133.01,518.36c.5-.74.99-1.48,1.49-2.23-.5.74-.99,1.48-1.49,2.23Z" style="fill: #6bc26b; stroke-width: 0px;"/>
  <path d="M138.97,507.89c.25-.5.51-1,.76-1.5-.25.5-.51,1-.76,1.5Z" style="fill: #6bc26b; stroke-width: 0px;"/>
  <path d="M100.03,537.06c.31-.37.62-.75.92-1.12.2.37.4.74.61,1.1-.51,0-1.02.01-1.53.02Z" style="fill: #6bc26b; stroke-width: 0px;"/>
  <path d="M168.21,448.7c.25-.5.5-1,.75-1.51-.25.5-.5,1-.75,1.51Z" style="fill: #64b963; stroke-width: 0px;"/>
  <path d="M111.23,534.81c.52-.47,1.04-.94,1.57-1.41-.52.47-1.04.94-1.57,1.41Z" style="fill: #5eb05c; stroke-width: 0px;"/>
  <path d="M106.71,536.29c.53-.24,1.06-.48,1.59-.72-.53.24-1.06.48-1.59.72Z" style="fill: #5eb05c; stroke-width: 0px;"/>
  <path d="M92.54,537.03c.2-.37.41-.73.61-1.1.31.37.61.75.92,1.12-.51,0-1.02-.02-1.53-.03Z" style="fill: #6bc26b; stroke-width: 0px;"/>
  <path d="M83.5,351.36c-2-3.01-3.99-6.02-5.99-9.03.52-.01,1.04-.03,1.55-.04,1.48,3.02,2.95,6.05,4.43,9.07Z" style="fill: #de8f3d; stroke-width: 0px;"/>
  <path d="M395.43,436.47c-.74.23-1.61.84-2.21.64-9.17-2.99-18.27-6.17-27.45-9.12-5.6-1.8-11.53-2.73-16.92-5-8.19-3.44-16.93-4.11-25.41-5.94-7.34-1.58-14.96-2.66-22.43-2.56-5.03.06-9.68-1.17-14.51-1.59-6.82-.59-13.68-.63-20.5-1.22-5.78-.5-11.51-1.49-17.27-2.18-3.07-.37-6.27-.17-9.22-.94-6.42-1.67-12.91-3.32-19.02-5.84-8.97-3.7-17.65-8.1-26.38-12.35-1.32-.64-2.27-2.06-3.39-3.13,18.26.32,36.53.65,54.79.97,4.22.16,8.45.32,12.67.48,16.5.34,33,.67,49.5,1.01,4.72.17,9.45.34,14.17.51,15.31.26,30.61.48,45.92.84,2.18.05,4.34.8,6.5,1.22,2.04,3.82,4.25,7.55,6.09,11.46,5.11,10.87,10.06,21.81,15.08,32.73Z" style="fill: #5baa58; stroke-width: 0px;"/>
  <path d="M245.51,388.22c-18.26-.32-36.53-.65-54.79-.97-2.92-.02-5.84-.05-8.76-.07-1.18,0-2.36,0-3.54-.01-.39-.06-.79-.12-1.18-.18-6.25-.17-12.49-.33-18.74-.5-7.62-.31-15.25-.63-22.87-.94-9.11-2.09-18.02-4.7-26.22-9.37-9.55-5.43-17.71-12.41-24.26-21.23-.77-1.04-1.1-2.4-1.64-3.61,3.97,4.07,7.82,8.26,11.94,12.17,8.9,8.47,19.36,14.26,31.21,17.52.83.23,1.72.2,2.59.28.52.46,1.05.92,1.57,1.38.98.02,1.97.04,2.95.06.51.23,1.03.46,1.54.7,1.49.02,2.97.03,4.46.05,1.26.23,2.52.46,3.79.69,6.48.02,12.96.04,19.44.06,3.01.23,6.02.46,9.03.69,6.73.02,13.46.04,20.19.06,3.51.23,7.02.46,10.53.69,6.73.02,13.46.04,20.19.06,3.51.23,7.02.46,10.53.68,6.48.02,12.96.04,19.44.06,3.51.23,7.02.47,10.53.7,6.98.02,13.96.04,20.94.05,2.26.23,4.52.45,6.79.68,7.98.02,15.96.04,23.93.06,3.51.23,7.02.46,10.53.69,6.23.02,12.46.04,18.69.06,2.51.23,5.02.47,7.53.7,7.23.02,14.46.04,21.69.05.25.92.5,1.85.75,2.77-2.17-.43-4.33-1.17-6.5-1.22-15.3-.36-30.61-.58-45.92-.84-4.72-.17-9.45-.34-14.17-.51-16.5-.34-33-.67-49.5-1.01-4.22-.16-8.45-.32-12.67-.48Z" style="fill: #de8f3d; stroke-width: 0px;"/>
  <path d="M7.95,392.48c.48.76.96,1.52,1.43,2.27-.48-.76-.96-1.52-1.43-2.27Z" style="fill: #64b963; stroke-width: 0px;"/>
  <path d="M220.71,190.17c-7.25-.45-14.5-.9-21.75-1.35-.71-1.02-1.2-2.42-2.18-2.99-2.59-1.51-4.06-3.98-3.35-6.45.58-2.01,2.83-3.75,4.71-5.09,1.05-.75,2.87-.56,4.34-.55,11.07.08,22.12-.24,32.89-3.08,1.97-.52,4.33-1.92,5.25-3.61,3.5-6.41,3.33-13.11-.1-19.57-.78-1.47-2.33-2.54-3.53-3.79-1.7-1.47-3.4-2.94-5.09-4.42,2.09-1.75,5.5-1.5,7.82,1.62,6.07,8.15,10.74,16.97,10.18,27.64-.25,4.7-3.01,7.74-6.77,10.04-1.38.84-2.86,1.53-4.35,2.17-6.04,2.62-6.36,2.9-4.52,9.14,2.1,7.13,4.7,14.11,6.89,21.21.91,2.94,1.71,6,1.91,9.05.44,6.84-2.99,10.42-9.86,11.9-7.96,1.72-16.09,2.71-24.18,3.83-7.7,1.06-11.51,5.11-11.58,12.89-.07,7.8.15,15.6-.07,23.39-.14,4.84-.65,9.75-3.89,13.73-5.11,6.29-12.01,5.67-18.53,3.72-9.75-2.91-16.26-9.79-20.09-19.18-.18-.44-.1-.98-.14-1.48,2,.25,4,.51,6,.76,3.18,5.22,8.19,7.69,13.88,8.93,4.93,1.07,8.52-.8,9.73-5.56,1.46-5.75,2.49-11.64,3.31-17.52,1.01-7.24,1.43-14.55,2.46-21.79.8-5.67,4.18-8.77,9.29-9.08,5.58-.34,11.23-.12,16.74-.88,6.11-.84,12.83-.77,16.15-7.91,2.98-6.41,2.7-12.5-.65-18.52-.5-.9-1.94-1.26-2.95-1.88-2.06-2.68-4.17-5.28-7.99-5.34Z" style="fill: #e6a753; stroke-width: 0px;"/>
  <path d="M231.91,139.29c1.7,1.47,3.4,2.94,5.09,4.42.15.79.24,1.61.47,2.38,2.43,7.87-1.83,14.46-10.1,15.57,3.55-3.49,6.4-7.3,5.29-12.71-.32-1.56-.95-3.05-1.32-4.61-.39-1.64-.65-3.32-.96-4.99.51-.02,1.02-.04,1.52-.07Z" style="fill: #dec9c0; stroke-width: 0px;"/>
  <path d="M263.42,387.2c-3.51-.23-7.02-.47-10.53-.7,3.57-.73,7.19-2.11,10.53.7Z" style="fill: #e39e4a; stroke-width: 0px;"/>
  <path d="M202.74,385.69c-3.51-.23-7.02-.46-10.53-.69,3.57-.74,7.19-2.1,10.53.69Z" style="fill: #e39e4a; stroke-width: 0px;"/>
  <path d="M233.46,386.44c-3.51-.23-7.02-.46-10.53-.68,3.57-.74,7.19-2.09,10.53.68Z" style="fill: #e39e4a; stroke-width: 0px;"/>
  <path d="M325.61,388.69c-3.51-.23-7.02-.46-10.53-.69,3.57-.74,7.19-2.1,10.53.69Z" style="fill: #e39e4a; stroke-width: 0px;"/>
  <path d="M172.02,384.94c-3.01-.23-6.02-.46-9.03-.69,3.09-.78,6.21-2.05,9.03.69Z" style="fill: #e39e4a; stroke-width: 0px;"/>
  <path d="M351.83,389.45c-2.51-.23-5.02-.46-7.53-.7,2.6-.8,5.25-2.01,7.53.7Z" style="fill: #e39e4a; stroke-width: 0px;"/>
  <path d="M291.15,387.94c-2.26-.23-4.52-.45-6.79-.68,2.36-.79,4.76-1.89,6.79.68Z" style="fill: #e39e4a; stroke-width: 0px;"/>
  <path d="M143.55,384.19c-1.26-.23-2.52-.46-3.79-.69,1.26.23,2.52.46,3.79.69Z" style="fill: #e39e4a; stroke-width: 0px;"/>
  <path d="M135.3,383.45c-.51-.23-1.03-.46-1.54-.7.51.23,1.03.46,1.54.7Z" style="fill: #e39e4a; stroke-width: 0px;"/>
  <path d="M130.81,382.69c-.52-.46-1.05-.92-1.57-1.38.52.46,1.05.92,1.57,1.38Z" style="fill: #e39e4a; stroke-width: 0px;"/>
  <path d="M453.67,145.34c-5.49-1.52-10.97-3.04-16.46-4.56.12-.34.22-.98.38-.99,10.6-.89,20.97-.41,30.5,5.12,20.81,12.1,33.15,30.67,39.46,53.32,2.7,9.72,3.86,19.9,5.21,29.94.53,3.94-.38,8.06-.57,12.1-.29,5.9-.51,11.8-.8,17.69-.21,4.34-.28,8.7-.79,13-.79,6.55,3.34,11.32,5.83,16.6,2.78,5.88,2.25,14.24-2.75,18.09-2.43,1.87-6.18,2.73-9.35,2.78-4.53.08-9.08-.96-13.61-1.6-7.83-1.12-15.62-2.56-23.47-3.41-13.67-1.49-27.42-2.65-40.52-7.02-8.94-2.98-18.01-6.37-24.8-13.21-5.92-5.97-11.03-12.75-16.4-19.25-.55-.66-.46-1.84-.67-2.79,5.22,3.35,10.43,6.7,15.65,10.05.57.92.92,2.2,1.75,2.72,6.65,4.13,13,9.05,20.17,11.95,11.96,4.83,24.74,4.92,37.44,3.07,6.01-.87,11.55-.65,17.38,2,6.49,2.94,13.58,4.76,20.58,6.29,6.37,1.4,10.17-2.41,9.3-8.41-.41-2.81-.89-5.63-1.56-8.39-3.06-12.56-6.19-25.08-3.85-38.21,1.99-11.15,2.85-22.31,1.54-33.7-2.28-19.81-9.91-36.88-24.59-50.48-3.83-3.55-7.93-7.32-13.79-7.43h.02c-.48-.3-.95-.59-1.43-.87-3.26-1.46-6.53-2.91-9.79-4.37Z" style="fill: #e6a753; stroke-width: 0px;"/>
  <path d="M307.55,138.6c3.68-1.99,8.58-.86,12.6,3.12,9.58,9.49,16.52,20.63,21.27,33.28,5.85,15.57,12,31.03,18.28,46.44,1.02,2.51,2.25,5.76,6.15,5.49,1.7,9.9,6.12,18.64,11.61,26.9-1.94-.04-2.74.73-2.2,2.77,1.36,5.13,2.84,10.24,3.88,15.43,1.17,5.81,1.23,11.5-2.98,16.5-3.18,3.77-7.41,5.37-11.88,4.91-10.29-1.05-18.44-5.78-25.13-14.12-4.71-5.88-11.06-10.62-17.24-15.08-5.63-4.05-12.21-1.98-18.35-.61-7.54,1.69-10.64,7.8-12.74,14.26-4.63,14.28-16.24,14.94-27.34,9.65-6.96-3.32-11.81-8.98-14.33-16.43,1.01.14,2.02.27,3.04.41,4.34,3.17,8.45,6.75,13.09,9.4,6.36,3.64,11.91,1.64,15.15-4.97,2.3-4.69,4.13-9.61,6.48-14.28,2.04-4.05,5.26-7.19,9.95-7.66,8.61-.86,17.31-2.45,25.75,1.23.73.32,1.72.06,2.6.07,1.64,3.6,3.37,7.17,4.92,10.81,2.25,5.29,6.36,7.56,11.91,7.62.23.7.24,1.67.72,2.04,4.6,3.61,9.27,7.28,15.3,8.02,7.3.9,10.97-2.5,10.95-9.98,0-2.84-.78-5.69-.65-8.51.46-10.15-3.34-19.2-7-28.3-6.2-15.44-12.46-30.85-18.68-46.28-4.23-10.48-8.13-21.12-12.83-31.39-1.92-4.19-3.83-8.99-8.75-11.1-1.08-.48-2.17-.96-3.25-1.45l-.56-.67c1.06-1.82.5-2.58-1.55-2.34-2.22-1.48-4.43-2.97-6.65-4.45-.51-.25-1.01-.5-1.52-.76Z" style="fill: #e6a753; stroke-width: 0px;"/>
  <path d="M433.45,140.66c-2.99,0-5.98,0-8.97,0,2.19-2,6.79-2,8.97,0Z" style="fill: #e6a753; stroke-width: 0px;"/>
  <path d="M423.76,444.53c1-.63,2-1.25,3-1.88.22.34.44.67.66,1.01-.97.68-1.95,1.35-2.92,2.03-.25-.39-.5-.77-.75-1.16Z" style="fill: #eab057; stroke-width: 0px;"/>
  <path d="M433.18,340.27c-.21.08-.47.28-.62.21-.15-.07-.18-.39-.26-.6.21-.08.47-.28.62-.21.15.06.18.39.26.6Z" style="fill: #eab057; stroke-width: 0px;"/>
  <path d="M464.87,150.58c5.86.11,9.96,3.88,13.79,7.43,14.67,13.6,22.31,30.67,24.59,50.48,1.31,11.39.45,22.55-1.54,33.7-2.34,13.13.79,25.65,3.85,38.21.67,2.76,1.15,5.58,1.56,8.39.87,6-2.93,9.81-9.3,8.41-7-1.54-14.09-3.35-20.58-6.29-5.83-2.65-11.37-2.87-17.38-2-12.7,1.85-25.48,1.76-37.44-3.07-7.17-2.89-13.53-7.81-20.17-11.95-.83-.51-1.18-1.79-1.75-2.72,8.05,1.37,16.06,3.29,24.18,3.97,9.24.77,18.41-.7,27.2-3.87,2.08-.75,3.58-.47,5.46.84,5.93,4.13,11.98,8.1,18.18,11.81,3.36,2.01,7.19,2.85,11.15,1.52.59.69,1.07,1.84,1.79,2.01,4.16.98,11.44-5.14,11.73-9.47.38-5.67-2.13-10.39-4.56-15.15-3.85-7.55-5.33-15.07-2.62-23.61,2.41-7.61,4.17-15.65,4.73-23.6,1.21-17.3-3.9-33.19-13.65-47.42-1.93-2.82-3.87-6.4-7.93-7.21-3.76-3.47-7.52-6.95-11.28-10.42Z" style="fill: #e39e4a; stroke-width: 0px;"/>
  <path d="M455.15,193.21c3.06,7.63,2.7,15.61,1.89,23.49-.48,4.73-2.13,9.35-3.25,14.02-1.36-.46-2.87-.67-4.04-1.42-2.29-1.48-4.33-3.33-6.57-4.89-4.9-3.42-10.08-5.98-16.34-4.63-4.35.94-5.26.54-6.31-3.87-.47-1.97-.61-4.27-.08-6.19,1.88-6.81,4.94-12.84,10.99-17.21,6.19-4.47,14.39-5.07,20.77-.8.91.61,1.95,1.01,2.93,1.51Z" style="fill: #eab057; stroke-width: 0px;"/>
  <path d="M455.15,193.21c-.98-.5-2.02-.9-2.93-1.51-6.38-4.27-14.57-3.67-20.77.8-6.05,4.36-9.11,10.39-10.99,17.21-.53,1.92-.4,4.22.08,6.19,1.06,4.41,1.96,4.81,6.31,3.87,6.26-1.35,11.44,1.21,16.34,4.63,2.24,1.56,4.28,3.41,6.57,4.89,1.17.75,2.68.97,4.04,1.42-.92,1.73-1.84,3.46-2.8,5.28-5.19-2.91-10.22-5.79-15.31-8.58-4.72-2.59-9.76-2.51-14.29-.09-2.39,1.27-3.9,4.2-5.8,6.39-1.28-1.65-3.2-3.13-3.71-4.99-2.2-8.01-2.05-16.07-.38-24.27,1.63-7.99,4.83-14.92,11.45-19.73,7.38-5.36,15.23-9.63,24.83-5.42.36.16,1.01-.33,1.53-.51,3.51,4.17,4.98,9.17,5.84,14.41Z" style="fill: #e6a753; stroke-width: 0px;"/>
  <path d="M449.31,178.79c-.52.19-1.17.67-1.53.51-9.6-4.22-17.45.05-24.83,5.42-6.62,4.81-9.82,11.74-11.45,19.73-1.67,8.2-1.82,16.26.38,24.27.51,1.86,2.44,3.34,3.71,4.99-.16,4.13,1.61,7.11,5.24,9.11,3.78,2.09,7.48,4.32,11.22,6.49-.05.37-.11.73-.16,1.1-3.21-.43-6.43-.87-9.64-1.3-1.25-.58-2.49-1.16-3.74-1.73-.7-1.12-1.13-2.66-2.14-3.29-5.88-3.67-8.06-9.74-9.79-15.76-3.35-11.63-3.4-23.56-.56-35.27,2.1-8.67,5.21-17.17,12.76-22.87,2.34-1.77,5.31-2.71,7.99-4.03,8.38.47,15.51,3.4,20.59,10.42.57.79,1.3,1.47,1.95,2.21Z" style="fill: #e39e4a; stroke-width: 0px;"/>
  <path d="M464.87,150.58c3.76,3.47,7.52,6.95,11.28,10.42,3.72,7.42,8.59,14.49,10.93,22.32,5.53,18.44,4.7,37.1-1.34,55.45-3.03,5.47-6.06,10.94-9.35,16.89,4.42,2.7,9.21,5.63,14,8.55.74.63,1.39,1.42,2.23,1.87,4.73,2.54,5.34,6.89,4.12,11.24-1.23,4.39-4.39,7.42-9.38,7.74.29-.54.48-1.17.88-1.6,6.22-6.58,4.48-14.62-3.83-19.48-4.18-2.44-8.34-4.93-12.78-7.57,1.58-2.69,3.15-5.17,4.52-7.75,8.51-15.93,10.6-33.01,8.23-50.64-.97-7.19-2.52-14.46-5-21.26-4.12-11.3-11.84-20.02-22.1-26.4-1.86-1.16-4.09-2.15-3.6-5.03,3.26,1.46,6.53,2.91,9.79,4.37.48.29.95.58,1.43.86h-.02Z" style="fill: #dec9c0; stroke-width: 0px;"/>
  <path d="M487.35,285.06c4.99-.32,8.15-3.35,9.38-7.74,1.22-4.35.61-8.7-4.12-11.24-.84-.45-1.49-1.24-2.23-1.87-.49-1.32-.65-2.94-1.53-3.92-4.72-5.27-5.54-11.02-2.96-17.52.45-1.13-.08-2.66-.16-4,6.04-18.35,6.87-37.01,1.34-55.45-2.35-7.83-7.21-14.91-10.93-22.32,4.07.81,6,4.39,7.93,7.21,9.75,14.23,14.86,30.12,13.65,47.42-.56,7.95-2.31,15.98-4.73,23.6-2.71,8.54-1.22,16.07,2.62,23.61,2.43,4.77,4.95,9.48,4.56,15.15-.29,4.33-7.57,10.44-11.73,9.47-.71-.17-1.2-1.31-1.79-2.01.23-.13.46-.26.68-.39Z" style="fill: #de8f3d; stroke-width: 0px;"/>
  <path d="M426.77,166.17c-2.68,1.32-5.65,2.26-7.99,4.03-7.54,5.7-10.66,14.2-12.76,22.87-2.84,11.71-2.79,23.64.56,35.27,1.74,6.02,3.91,12.09,9.79,15.76,1.01.63,1.44,2.17,2.14,3.28-7.18-2.14-11.61-7.52-15.21-13.54-5.93-9.92-6.47-20.96-5.95-32.16.67-14.42,4.96-26.88,18.31-34.55,3.7-.32,7.4-.64,11.1-.96Z" style="fill: #de8f3d; stroke-width: 0px;"/>
  <path d="M415.67,167.13c-13.36,7.67-17.65,20.13-18.31,34.55-.52,11.2.01,22.24,5.95,32.16,3.6,6.02,8.03,11.4,15.21,13.54,1.25.58,2.5,1.16,3.74,1.74-.61.17-1.25.56-1.83.48-15.39-2.06-23.97-12.8-27.22-26.72-2.59-11.1-2.87-22.42.64-33.44,2.98-9.38,8.21-17.19,17.55-21.46,1.28-.59,2.84-.58,4.27-.84Z" style="fill: #dec9c0; stroke-width: 0px;"/>
  <path d="M325.19,255.31c-.87,0-1.86.25-2.6-.07-8.44-3.68-17.14-2.09-25.75-1.23-4.69.47-7.91,3.61-9.95,7.66-2.35,4.66-4.18,9.59-6.48,14.28-3.24,6.61-8.8,8.61-15.15,4.97-4.64-2.66-8.74-6.24-13.09-9.4,2.47-.42,4.93-.83,7.4-1.25.27.08.55.15.82.23,1.22.35,2.56,1.21,3.63.95,5.72-1.39,9.64-5.1,12.86-9.96,4.34-6.56,5.77-14.8,11.84-20.33.14-.13.09-.48.13-.72,9.09.07,18.19.15,27.28.21,2.87.02,4.82.88,5.58,4.09.85,3.6,2.29,7.05,3.47,10.57Z" style="fill: #e39e4a; stroke-width: 0px;"/>
  <path d="M317.26,146.15c.19.22.37.45.56.67.92,2.04,1.92,4.05,2.73,6.13,10.08,25.98,20.22,51.93,30.15,77.97,3.23,8.46,6.07,17.07,8.8,25.71,1.91,6.06-4.44,15.18-10.73,15.22.08-.36.04-.87.27-1.06,7.94-6.86,5.5-15.08,2.58-22.97-7.56-20.37-15.42-40.63-23.25-60.89-4.74-12.27-9.63-24.48-14.58-36.66-.83-2.04-2.04-4.08-3.58-5.62-1.68-1.69-1.97-3.26-1.16-5.29,2.22,1.48,4.43,2.97,6.65,4.45.52.78,1.03,1.56,1.55,2.34Z" style="fill: #dec9c0; stroke-width: 0px;"/>
  <path d="M348.78,271.85c6.29-.04,12.64-9.16,10.73-15.22-2.73-8.64-5.57-17.25-8.8-25.71-9.93-26.03-20.07-51.99-30.15-77.97-.81-2.08-1.82-4.09-2.73-6.13,1.08.48,2.17.96,3.25,1.45,2.8,5.06,6.11,9.9,8.28,15.21,5.22,12.75,9.8,25.75,14.84,38.57,4.81,12.22,9.95,24.31,14.8,36.51,2.84,7.13,5.54,14.2,5.7,22.17.12,6.13-7.06,13.77-11.92,14.65-2.79.51-5.77.94-7.75-2.02,1.25-.5,2.5-1,3.74-1.5Z" style="fill: #de8f3d; stroke-width: 0px;"/>
  <path d="M345.04,273.35c1.98,2.96,4.96,2.53,7.75,2.02,4.86-.88,12.05-8.52,11.92-14.65-.16-7.97-2.87-15.05-5.7-22.17-4.86-12.2-9.99-24.29-14.8-36.51-5.04-12.82-9.62-25.83-14.84-38.57-2.18-5.31-5.49-10.16-8.28-15.21,4.92,2.1,6.83,6.91,8.75,11.1,4.7,10.27,8.6,20.9,12.83,31.39,6.23,15.43,12.48,30.84,18.68,46.28,3.65,9.1,7.45,18.15,7,28.3-.13,2.82.64,5.67.65,8.51.02,7.48-3.65,10.88-10.95,9.98-6.03-.75-10.7-4.42-15.3-8.02-.48-.37-.49-1.35-.72-2.04,1.01-.13,2.01-.26,3.02-.39Z" style="fill: #e39e4a; stroke-width: 0px;"/>
  <path d="M288.86,240.44c-.04.24.01.59-.13.72-6.07,5.53-7.5,13.77-11.84,20.33-3.22,4.86-7.14,8.57-12.86,9.96-1.07.26-2.41-.61-3.63-.95,4.27-1.18,7.15-3.93,8.72-8,2.86-7.42,5.63-14.87,8.44-22.31,3.77.09,7.53.17,11.3.26Z" style="fill: #de8f3d; stroke-width: 0px;"/>
  <path d="M303.89,215.9c-1.77.14-3.54.28-5.31.42-3.02-2.87-6.75-5.17-7.71-9.7-.06-.29-.78-.44-1.2-.66,2.71-8.05,5.41-16.11,8.18-24.14.18-.53.95-.85,1.45-1.27,1.36,4.21,2.72,8.42,4.08,12.62-1.52.88-3.51,1.41-4.47,2.71-2.85,3.86-2.41,10.41.55,14.28,1.47,1.92,2.95,3.83,4.43,5.74Z" style="fill: #de8f3d; stroke-width: 0px;"/>
  <path d="M299.31,180.54c-.5.42-1.27.75-1.45,1.27-2.77,8.03-5.47,16.09-8.18,24.14-1.01,3.49-2.03,6.98-3.04,10.47-1.6.28-3.2.55-6.09,1.05,5.25-15.06,10.1-28.99,14.95-42.92.48-.05.96-.09,1.45-.14.79,2.04,1.57,4.08,2.36,6.12Z" style="fill: #dec9c0; stroke-width: 0px;"/>
  <path d="M303.89,215.9c-1.48-1.91-2.96-3.82-4.43-5.74-2.96-3.87-3.4-10.42-.55-14.28.96-1.3,2.95-1.83,4.47-2.71,2.72,7.51,5.44,15.01,8.45,23.33-3.18-.24-5.56-.41-7.95-.59Z" style="fill: #e39e4a; stroke-width: 0px;"/>
  <path d="M277.56,240.18c-2.81,7.44-5.58,14.89-8.44,22.31-1.57,4.07-4.45,6.82-8.72,8-.27-.07-.55-.15-.82-.23,6.69-8,8.65-18.13,12.36-27.47,1.1-2.76,2.65-4.1,5.62-2.62Z" style="fill: #dec9c0; stroke-width: 0px;"/>
  <path d="M286.63,216.43c1.01-3.49,2.03-6.98,3.04-10.47.41.22,1.14.37,1.2.66.96,4.53,4.69,6.83,7.71,9.7-3.98.04-7.96.08-11.95.11Z" style="fill: #d88727; stroke-width: 0px;"/>
  <path d="M228.7,195.51c1.01.61,2.45.98,2.95,1.88,3.35,6.02,3.64,12.11.65,18.52-3.33,7.15-10.04,7.07-16.15,7.91-5.52.76-11.16.54-16.74.88-5.11.31-8.49,3.41-9.29,9.08-1.03,7.23-1.45,14.55-2.46,21.79-.82,5.88-1.85,11.77-3.31,17.52-1.21,4.76-4.8,6.63-9.73,5.56-5.69-1.24-10.7-3.71-13.88-8.93,1.74-.54,3.48-1.07,5.22-1.61,2.23-.74,4.46-1.47,6.69-2.21,4.92.47,7.1-3.41,8.4-6.68,1.94-4.84,3.08-10.18,3.54-15.4.9-10.29.62-20.73,5.36-30.32,7.42.04,14.85.16,22.27.07,2.31-.03,4.61-.61,6.92-.94,6.42-.89,10.35-4.43,10.47-9.86.05-2.41-.59-4.83-.91-7.25Z" style="fill: #e39e4a; stroke-width: 0px;"/>
  <path d="M227.38,161.65c8.27-1.12,12.53-7.7,10.1-15.57-.24-.77-.32-1.58-.47-2.38,1.2,1.25,2.75,2.32,3.53,3.79,3.43,6.45,3.6,13.16.1,19.57-.92,1.68-3.28,3.09-5.25,3.61-10.77,2.85-21.82,3.16-32.89,3.08-1.47-.01-3.29-.19-4.34.55-1.88,1.33-4.13,3.08-4.71,5.09-.71,2.47.75,4.94,3.35,6.45.97.57,1.47,1.97,2.18,2.99-2.75-.04-5.5-.09-8.26-.13-1.24-2.62-3.17-5.14-3.58-7.89-.61-4.15-.32-8.47-.1-12.7.15-2.96,1.29-5.32,5.06-4.92,1.01.11,2.08-.45,3.12-.7,8.04.06,16.09.21,24.13.14,2.68-.03,5.36-.63,8.04-.97Z" style="fill: #e39e4a; stroke-width: 0px;"/>
  <path d="M189.96,213.49c-4.74,9.59-4.47,20.03-5.36,30.32-.45,5.22-1.6,10.56-3.54,15.4-1.31,3.27-3.49,7.15-8.4,6.68,4.65-4.61,5.94-10.36,5.91-16.67-.06-12.06,0-24.13.02-36.19,3.79.15,7.58.3,11.37.45Z" style="fill: #de8f3d; stroke-width: 0px;"/>
  <path d="M178.58,213.04c-.01,12.06-.08,24.13-.02,36.19.03,6.31-1.26,12.06-5.91,16.67-2.23.74-4.46,1.47-6.7,2.21.07-.24.05-.6.21-.7,6.08-4.04,6.72-10.06,6.68-16.7-.06-11.92.39-23.85.64-35.78.01-.6.17-1.19.32-2.23,1.68.12,3.23.23,4.77.34Z" style="fill: #dec9c0; stroke-width: 0px;"/>
  <path d="M195.21,162.48c-1.04.25-2.12.81-3.12.7-3.77-.4-4.91,1.96-5.06,4.92-.22,4.23-.51,8.55.1,12.7.4,2.75,2.33,5.27,3.58,7.89-4.22-.03-8.44-.06-12.66-.09.03-5.59,0-11.18.11-16.77.06-3.19.37-6.37.57-9.56,5.5.07,10.99.13,16.49.2Z" style="fill: #de8f3d; stroke-width: 0px;"/>
  <path d="M178.72,162.28c-.2,3.19-.5,6.37-.57,9.56-.11,5.59-.08,11.18-.11,16.77-1.32.34-2.63.69-4.32,1.13v-28.05c1.77.21,3.38.41,4.99.6Z" style="fill: #dec9c0; stroke-width: 0px;"/>
  <path d="M228.7,195.51c.33,2.42.97,4.84.91,7.25-.12,5.42-4.05,8.96-10.47,9.86.36-.62.59-1.4,1.1-1.84,4.79-4.12,5.65-11.08,2.12-16.31-.84-1.24-1.11-2.85-1.65-4.29,3.82.06,5.93,2.66,7.99,5.34Z" style="fill: #dec9c0; stroke-width: 0px;"/>
  <path d="M560.84,319.84c1.68-8.15,1.75-16.33.84-24.6-.29-2.65.65-5.42.62-8.12-.15-11.08-.52-22.17-.66-33.25-.04-3.08.6-6.18.58-9.26-.03-4.21-.61-8.42-.57-12.62.09-9.45.62-18.9.6-28.35-.04-14.49-.47-28.99-.62-43.48-.11-10.6.17-21.2-.07-31.8-.27-11.85-.95-23.7-1.44-35.54,6.99,0,7.14.01,7.47,6.94.6,12.79,1.12,25.58,1.49,38.37.37,12.75.45,25.52.8,38.27.41,15.16,1.01,30.32,1.47,45.49.31,10.22.54,20.44.75,30.67.28,13.26.39,26.53.8,39.78.23,7.18.95,14.35,1.45,21.52-3.4,1.96-6.76,4-10.24,5.81-.88.46-2.15.15-3.25.19Z" style="fill: #db9d63; stroke-width: 0px;"/>
  <path d="M178.42,387.17c1.18,0,2.36,0,3.54.01-1.18,0-2.36,0-3.54-.01Z" style="fill: #64b963; stroke-width: 0px;"/>
  <path d="M307.68,389.7c4.72.17,9.45.34,14.17.51-4.72-.17-9.45-.34-14.17-.51Z" style="fill: #78a678; stroke-width: 0px;"/>
  <path d="M245.51,388.22c4.22.16,8.45.32,12.67.48-4.22-.16-8.45-.32-12.67-.48Z" style="fill: #78a678; stroke-width: 0px;"/>
  <path d="M464.89,150.57c-.48-.29-.95-.58-1.43-.86.48.29.95.58,1.43.86Z" style="fill: #e39e4a; stroke-width: 0px;"/>
  <path d="M317.26,146.15c-.52-.78-1.03-1.56-1.55-2.34,2.05-.23,2.61.52,1.55,2.34Z" style="fill: #e39e4a; stroke-width: 0px;"/>
  <path d="M485.74,238.78c.08,1.34.6,2.86.16,4-2.57,6.5-1.75,12.25,2.96,17.52.88.98,1.04,2.6,1.53,3.92-4.79-2.93-9.58-5.86-14-8.55,3.3-5.95,6.33-11.42,9.35-16.89Z" style="fill: #d88727; stroke-width: 0px;"/>
</svg>