<?xml version="1.0" encoding="UTF-8"?>
<svg id="Layer_1" data-name="Layer 1" xmlns="http://www.w3.org/2000/svg" viewBox="0 0 694.33 1070.97">
  <path d="M9.16,436.61c.14.86.28,1.72.42,2.58l.8,4.15,1.81,7.93c.14.93.27,1.86.41,2.8.78,3.09,1.56,6.18,2.34,9.26.26.93.52,1.85.78,2.78,7.81,23.08,13.85,46.96,23.74,69.12,41.05,91.98,102.99,164.87,195.7,208.71,1.72.81,3.28,3.43,3.61,5.42.62,3.69.27,7.54.32,11.33-6.71-.66-14.71-3.98-19.89-1.48-17.3,8.36-33.59,18.81-50.27,28.45-.87.5-1.75,1-2.62,1.5-4.62,3.75-4.07,8.53-2.67,13.47.14,3.59.29,7.17.43,10.76.72,10.87,1.45,21.74,2.15,32.61,1.45,22.45,2.76,44.92,4.51,67.35.16,2.09,2.68,5.05,4.73,5.76,9.04,3.12,18.33,5.51,27.51,8.25,15.5,4.62,30.98,9.29,46.38,13.91.11,1.76.19,2.86.25,3.97,1.48,27.41,3.03,54.81,4.36,82.22.23,4.67,1.91,7.04,6.56,8.4,9.82,2.86,19.43,6.46,29.16,9.67,22.8,7.54,45.62,15.03,68.42,22.54,1.73.6,3.47,1.21,5.2,1.81,1.83.37,3.67.74,5.5,1.1,2.31-.89,4.62-1.78,6.93-2.68,13.05-12.71,25.88-25.66,39.27-38,5.72-5.27,8.57-10.74,7.7-18.61-.69-6.15-.2-12.44-.23-18.67,7.39,1.88,14.79,3.76,22.18,5.64,2.87.84,5.75,1.69,8.62,2.53,1.8.42,3.6.84,5.4,1.25,1.38-.22,2.75-.44,4.13-.66,11.56-11.43,22.57-23.5,34.86-34.09,9.97-8.58,14.15-18.26,11.96-30.98-.08-.44-.13-.88-.2-1.32-.02-4.91-.04-9.82-.06-14.73-.07-7.61-.14-15.21-.21-22.82-.07-5.35-.15-10.69-.22-16.04-.06-3.59-.12-7.18-.19-10.76-.04-3.12-.09-6.25-.13-9.37-.04-7.54-.06-15.08-.13-22.63-.19-19.31-.26-19.02-19.03-23.03-24.14-5.15-48.17-10.83-72.25-16.28-.12-3.95-.24-7.91-.36-11.86-.06-6.71-.12-13.42-.18-20.13.1-.91.19-1.82.29-2.73,10.35-3.3,20.7-6.6,31.05-9.9,7.97-3.33,16.33-5.96,23.84-10.13,15.96-8.86,31.47-18.53,47.17-27.86,1.91-1.41,3.81-2.83,5.72-4.24,1.27-1.28,2.53-2.56,3.8-3.84,11.4-7.78,23.09-15.18,34.15-23.42,37.03-27.57,66.27-61.87,87.47-102.94,5.01-10.73,10.02-21.46,15.04-32.19,2.79-7.43,5.58-14.86,8.36-22.3,2.04-6.42,4.07-12.83,6.11-19.25,1.47-6.25,2.94-12.51,4.4-18.76,1.31-6.71,2.61-13.42,3.92-20.13,1.32-9.39,2.64-18.78,3.96-28.17.84-11.29,2.33-22.58,2.41-33.87.21-29.17-2.13-58.17-8.01-86.81-4.98-19.39-8.87-39.13-15.15-58.09-17.69-53.35-45.2-101.35-82.62-143.36-18.71-21-39.1-40.36-62.84-55.82-8.95-5.71-17.9-11.43-26.85-17.14-6.58-3.36-13.15-6.71-19.73-10.07-1.94-1.07-3.82-2.26-5.81-3.2-35.85-16.99-73.94-24.84-113.24-27.6-1.77-.12-3.66,1.37-5.49,2.11-.48-.08-.96-.15-1.44-.23-2.04-5.79-7.18-3.41-11.11-4.21-25.87-3.78-51.8-5.09-77.81-1.46-9.42,1.63-18.85,3.25-28.27,4.88-17.01,5.68-34.02,11.36-51.03,17.05-20.78,8.9-39.88,20.61-57.46,34.75-20.23,16.27-38.74,34.25-53.63,55.69-1.9,2.58-3.79,5.15-5.69,7.73-.99,1.48-1.98,2.95-2.97,4.43-9.83,16.92-21.21,33.13-29.2,50.88C4.77,246.79-5.59,319.52,2.78,394.96c.05.89.09,1.77.14,2.66.33,1.81.66,3.62.99,5.43.19,1.48.38,2.96.58,4.44.06.77.12,1.53.18,2.3.24,1.76.48,3.52.72,5.28.07.89.13,1.78.2,2.67.33,1.34.67,2.67,1,4.01l.33,2.69c.3,1.82.61,3.64.91,5.46.17,1.31.34,2.61.52,3.92.28.93.55,1.86.83,2.79Z" style="fill: #fefefe; stroke-width: 0px;"/>
  <path d="M264.22,2.14c26.01-3.63,51.93-2.32,77.81,1.46,0,.82-.01,1.64-.02,2.46-17.2-1.67-34.37-4.3-51.81-1.25,1.11,1.35,2.31,2.3,3.64,2.56,9.76,1.88,19.64,3.22,29.31,5.48,16.55,3.88,33.33,7.24,49.34,12.78,17.94,6.2,35.14,14.58,52.65,22.01.9.89,1.79,1.78,2.69,2.67,4.47,2.24,8.93,4.48,13.4,6.72,1.34.89,2.68,1.79,4.02,2.68h0c2.24,1.78,4.48,3.57,6.72,5.35,1.78.9,3.57,1.8,5.35,2.69.58,1.15.85,2.72,1.77,3.38,17.28,12.33,32.96,26.41,46.39,42.85,10.38,12.72,21.55,25.02,30.17,38.88,13.14,21.14,25.1,43.09,36.27,65.35,18.41,36.67,32.39,75.09,40.9,115.31,3.66,17.32,6.89,34.77,9.28,52.3,2.15,15.79,2.77,31.78,4.37,47.64.16,1.58,2.51,2.93,3.84,4.39-1.34,16.09-2.68,32.19-4.02,48.28-1.54,8.89-2.7,17.87-4.72,26.64-3.02,13.1-6.66,26.05-10.04,39.07-1.23,1.64-2.82,3.11-3.65,4.93-7.73,16.95-14.31,34.53-23.22,50.83-12.85,23.53-29.49,44.42-49.27,62.74-6.19,5.73-12.13,9.46-20.03,3.37-.35-.27-.71-.51-1.07-.76l1.3-.99c-4.48-5.36-8.97-10.71-13.97-16.7-1.26.23-3.4.61-5.79,1.04-.78-1.47-1.84-2.74-2.15-4.17-2.34-10.63-10.47-17.68-17.67-24.11-11.38-10.17-19.27-22.51-27.31-34.96-.75-1.16-.56-3.64.19-4.95,7.22-12.72,14.6-25.35,22.03-37.95,11.21-19.01,16.52-40.16,22.25-61.16.33-1.23-.62-2.8-.97-4.22,0-1.33,0-2.66.01-3.99.44-.9.88-1.81,1.32-2.71,0-1.33.01-2.67.02-4,.44-1.8.89-3.59,1.33-5.39,0-.89,0-1.77,0-2.66,4.12-1.51,3.16-4.03,1.33-6.73,0-2.23,0-4.46.01-6.69,4.12-1.51,3.15-4.03,1.32-6.71-.01-4.48-.02-8.95-.03-13.43,0-4.9,0-9.81,0-14.71.01-2.69.02-5.38.04-8.07,2.68-3.58.3-3.96-2.56-4.04-.02-1.78-.05-3.56-.07-5.35.43-2.24.86-4.47,1.29-6.71-.44-.89-.88-1.79-1.33-2.68-.02-1.78-.04-3.55-.07-5.33.02-.9.03-1.81.05-2.71-.45-.9-.9-1.79-1.34-2.69-.04-.89-.08-1.78-.12-2.66.02-.89.04-1.77.06-2.66-2.12-9.71-3.98-19.49-6.41-29.13-7.41-29.37-20.81-56.12-36.41-81.86-1.13-1.87-3.54-2.96-5.36-4.41-.48-1.77-.95-3.54-1.43-5.3-.43-.9-.86-1.8-1.3-2.71-.89,0-1.78-.01-2.66-.02-.45-.89-.91-1.77-1.36-2.66-.9-1.34-1.8-2.68-2.69-4.02-.44-.45-.89-.9-1.33-1.35-1.33-1.35-2.66-2.7-3.99-4.05h0c0-.89,0-1.78-.01-2.67-1.34-1.78-2.69-3.57-4.03-5.35-1.33-.45-2.67-.91-4-1.36-.46-1.32-.92-2.64-1.39-3.96.13-4.57-2.12-6.79-6.66-6.76-.88,0-1.76,0-2.64,0-1.38-1.75-2.76-3.5-4.14-5.25.01-.47.02-.94.03-1.41-.89-.91-1.78-1.81-2.66-2.72-.9,0-1.79,0-2.69.01-.44,0-.89,0-1.33-.01,0-1.34,0-2.68,0-4.01-1.38-1.32-2.75-2.64-4.13-3.96-.42,0-.84.03-1.25.05-.89-.93-1.78-1.87-2.66-2.8-1.35-1.34-2.69-2.67-4.04-4.01l-2.67-1.35c-3.4-5.5-8.33-8.61-14.74-9.4-3.14-2.51-6.06-5.39-9.47-7.47-27.33-16.68-57.72-24.16-88.97-28.36-12.67-1.7-16.52-6.32-12.33-18.16.5-1.4-.45-3.82-1.51-5.15-2.53-3.18-1.83-5.12,1.51-6.87,1.21-.64,2.17-1.75,3.71-3.03-1.63-.89-2.55-1.83-3.49-1.84-5.27-.06-6.18-1.63-4.46-7,1.51-4.73.49-10.27.54-15.46.01-1.49-.57-3.14-.13-4.46,4.21-12.58,3.31-25.4,2.05-38.26-.43-4.42-.88-8.84-1.25-13.27-.05-.61.11-1.58.52-1.85,5.02-3.29,9.8-8.54,15.22-9.33,24.37-3.57,48.75-2.24,72.87,3.06,8.54,1.88,17.1,3.63,25.65,5.45-16.45-8.67-34-13.93-52.08-16.72-15.31-2.37-30.92-2.77-46.36-4.34-5.29-.54-10.49-1.97-16.97-3.23,3.5-2.74,5.57-4.36,7.63-5.97Z" style="fill: #f2609f; stroke-width: 0px;"/>
  <path d="M4.67,409.78c-.06-.77-.12-1.53-.17-2.3.77-1.5,1.53-2.99,2.29-4.48.35-1.85,1.11-3.74.97-5.56-.64-8.35-1.7-16.67-2.28-25.03-.35-5.09-.16-10.23-.13-15.34.07-15.45.17-30.89.33-46.34,0-.54.71-1.07,1.09-1.6.45,7.43,1.06,14.86,1.29,22.3.2,6.6,1.51,12.84,6.17,17.66,9.08,9.4,18.48,18.49,27.69,27.77,9.89,9.96,19.69,20.01,29.58,29.97,7.76,7.82,13.44,16.72,16.88,27.37,1.78,5.5,1.13,12.81,8.21,15.74,0,.89.02,1.78.03,2.67.44.9.88,1.79,1.32,2.69,2.69,9.38,5.38,18.76,8.07,28.14.88.9,1.76,1.81,2.64,2.71.52,1.91.71,3.99,1.6,5.71,7.44,14.22,14.07,28.97,22.78,42.37,10.21,15.72,21.58,30.84,33.77,45.09,7.67,8.97,17.6,16.05,26.8,23.63,6.3,5.19,13.1,9.77,19.68,14.62,2.25,2.24,4.22,4.92,6.82,6.63,6.64,4.35,13.84,7.89,20.27,12.51,2.89,2.08,4.72,5.82,6.6,9.05,1.93,3.3,2.42,8.58,5.14,10.06,7.25,3.95,8.91,11.65,12.94,17.45,4.09,5.89,4.82,14.08,7.26,21.18.62,1.79,2.22,3.23,3.28,4.89,5.1,8.01,10.53,15.85,15.06,24.18,1.64,3.01,1,6.8,6.42,6.16,1.32-.16,4.54,3.81,4.44,5.76-.43,8.84,8.51,10.81,11.67,16.95,1.56,3.03,6.04,4.84,6.95,7.87,1.8,6.03,4.46,10.44,10.38,13.1,1.54.69,2.62,3.65,2.91,5.71,2.12,14.88,4.14,29.77,5.87,44.7,1.2,10.34,1.74,20.75,2.92,31.09.17,1.46,2.06,3.49,3.55,3.92,14.06,4.1,28.2,7.94,42.36,11.72,1.03.28,2.35-.52,3.53-.82.89,0,1.78,0,2.68,0,1.84,1.3,3.5,3.18,5.55,3.79,8.66,2.56,17.56,4.37,26.09,7.26,2.83.96,6.49,4.06,6.94,6.67,1.65,9.53,1.71,19.33,3.14,28.92,1.09,7.34.6,15.37,6.91,22.75,2.14-3.29,3.69-5.78,5.35-8.19,1.15-1.68,2.45-3.26,3.68-4.88,0,2.24.02,4.48.03,6.72,0,.89,0,1.78,0,2.67-.44.9-.89,1.8-1.33,2.69,0,.89-.02,1.78-.02,2.67-1.13.93-2.51,1.67-3.35,2.8-7.39,9.96-10.74,21.34-11.36,33.58-.26,5.21-2.14,7.51-7.54,5.26-9-3.75-18.14-7.2-27.04-11.17-5.85-2.61-11.49-5.75-17.05-8.96-7.9-4.56-15.69-9.31-23.44-14.14-2.99-1.86-5.66-4.24-8.59-6.22-2.8-1.9-7.03-2.58-5.48-7.74.15-.51-2.34-2.55-3.69-2.66-5.34-.42-7.65-3.63-9.26-8.22-.54-1.55-2.38-3.73-3.68-3.77-8.34-.22-12.64-7.05-18.35-11.22-4.04-2.95-5.79-9.26-9.95-11.77-5.56-3.36-11.09-5.46-13.76-12.42-1.34-3.5-6.38-5.42-9.16-8.57-7.3-8.27-14.26-16.84-21.39-25.27-2.14-2.53-4.74-4.74-6.47-7.51-1.14-1.83-1.1-4.39-1.59-6.62.44-.89.88-1.78,1.32-2.67-.44-1.34-.88-2.69-1.32-4.03,0-1.79,0-3.58,0-5.36,4.51-3.49,3.02-6-1.31-8.05-.98-26.22-1.97-52.44-2.93-78.14-4.28-.97-7.74-1.17-10.66-2.52-8.02-3.73-16.08-7.48-23.63-12.05-14.16-8.57-27.97-17.73-41.92-26.64-.9-.89-1.79-1.78-2.69-2.67-1.34-.9-2.68-1.8-4.02-2.69-1.34-1.34-2.69-2.67-4.03-4.01-1.79-1.34-3.57-2.69-5.36-4.03l-2.68-2.68c-1.34-1.34-2.69-2.67-4.03-4.01-.9-.89-1.79-1.79-2.69-2.68-1.33-.9-2.67-1.8-4-2.7-1-1.66-1.83-3.46-3.02-4.97-9.39-12.04-18.96-23.93-28.19-36.09-2.42-3.18-2.94-8.92-5.88-10.39-9.62-4.81-7.34-17.75-16.51-22.37-.1-.05.04-.47-.06-.64-1.04-1.85-2.01-3.75-3.19-5.51-1.84-2.73-4.78-5.1-5.59-8.08-2.05-7.51-10.88-11.58-10.02-20.43.06-.64-.99-1.4-1.54-2.09-4.39-5.61-9.72-10.72-12.97-16.92-6.47-12.34-11.67-25.35-17.67-37.94-2.77-5.81-6.2-11.3-9.33-16.93-.01-1.78-.03-3.56-.04-5.34-2.68-8.94-5.36-17.89-8.04-26.83,0-.89,0-1.78,0-2.66-.87-.9-1.75-1.8-2.62-2.7-.01-1.34-.02-2.68-.03-4.02-.45-2.68-.91-5.37-1.36-8.05,0-.89,0-1.78,0-2.67-.44-1.34-.89-2.69-1.33-4.03,0-.89,0-1.78,0-2.67-.89-1.79-1.78-3.58-2.67-5.36,0-.9,0-1.8,0-2.7,0-1.34-.01-2.68-.02-4.02,0-.89,0-1.78,0-2.68.33-3.49-.41-6.02-4.77-5.29Z" style="fill: #ef4c8d; stroke-width: 0px;"/>
  <path d="M264.22,2.14c-2.06,1.62-4.13,3.23-7.63,5.97,6.48,1.26,11.68,2.69,16.97,3.23,15.45,1.57,31.05,1.97,46.36,4.34,18.07,2.79,35.63,8.05,52.08,16.72-8.55-1.81-17.11-3.57-25.65-5.45-24.12-5.3-48.5-6.63-72.87-3.06-5.42.79-10.2,6.05-15.22,9.33-.41.27-.58,1.23-.52,1.85.37,4.43.81,8.85,1.25,13.27,1.25,12.85,2.16,25.68-2.05,38.26-.44,1.32.14,2.97.13,4.46-.05,5.18.97,10.73-.54,15.46-1.72,5.37-.81,6.94,4.46,7,.94.01,1.86.95,3.49,1.84-1.53,1.28-2.49,2.4-3.71,3.03-3.34,1.75-4.04,3.69-1.51,6.87,1.06,1.33,2,3.75,1.51,5.15-4.19,11.84-.34,16.46,12.33,18.16,31.25,4.19,61.64,11.68,88.97,28.36,3.41,2.08,6.32,4.96,9.47,7.47,0,0-.01.01-.01.01-4.47-1.79-8.94-3.58-13.41-5.37h0c-4.2-2.55-8.12-5.8-12.64-7.49-9.94-3.72-20.18-6.65-30.3-9.91-1.33-.01-2.67-.02-4-.04-1.34-.44-2.69-.88-4.03-1.32-.89,0-1.78,0-2.67-.01-1.79-.44-3.58-.89-5.37-1.33,0,0,0-.01,0-.01-.9-.45-1.79-.9-2.69-1.34-2.24,0-4.48.01-6.72.02-.44,0-.89,0-1.33-.01-1.79-.45-3.58-.9-5.36-1.34-6.71,0-13.41,0-20.12,0-2.23,0-4.47,0-6.7,0-1.34,0-2.68,0-4.02,0-3.5.44-7.05.64-10.5,1.35-22.17,4.56-42.72,12.98-61.04,26.41-1.98,1.45-3.29,3.82-4.91,5.76,0,.89,0,1.78-.01,2.67-.44,0-.89,0-1.33.01-6.26-2.06-7.26,2.19-8.04,6.7-4.02,4.02-8.05,8.05-12.07,12.07-1.23.34-2.96.28-3.61,1.09-5.48,6.86-10.97,13.73-16,20.92-2.45,3.5-3.93,7.68-5.85,11.55-.02.88-.03,1.76-.05,2.64-1.46,1.16-3.54,2.03-4.27,3.54-3.84,7.97-7.67,15.98-10.85,24.23-3.79,9.83-6.92,19.93-10.33,29.91,1.06-8.23,2.12-16.45,3.18-24.68-3.33,5.2-5.12,10.81-7.41,16.2-1.28,3.01-3.4,5.67-5.14,8.48,3.28-11.95,6.62-23.89,9.81-35.87,1.11-4.18,2.68-8.48,2.54-12.68-.18-5.21-1.58-10.47-3.13-15.5-.68-2.2-2.68-4.82-4.71-5.62-6.69-2.63-11.21-6.2-9.94-14.25.26-1.67-.23-3.46-.37-5.03-9.98-3.14-12.76-8.2-11.55-19.64.17-1.66-.67-4.56-1.83-5.06-9.93-4.25-12.2-8.98-9.35-20.14.85-3.33.06-5.91-4.32-5.27-1.35.2-2.7.31-4.47.52,4.06-8.6,7.36-16.68,11.55-24.26,18.32-33.15,44.47-59.18,74.62-81.62,25.52-18.99,54.39-31.22,83.87-42.22,5.86-2.19,8.87-5.46,9.31-11.45,9.42-1.63,18.85-3.25,28.27-4.88Z" style="fill: #f15899; stroke-width: 0px;"/>
  <path d="M249.49,836.14c.49,2.23.45,4.79,1.59,6.62,1.73,2.77,4.33,4.99,6.47,7.51,7.13,8.42,14.09,16.99,21.39,25.27,2.78,3.15,7.81,5.07,9.16,8.57,2.67,6.96,8.19,9.06,13.76,12.42,4.16,2.51,5.91,8.82,9.95,11.77,5.71,4.17,10.01,11,18.35,11.22,1.3.03,3.13,2.21,3.68,3.77,1.61,4.59,3.92,7.8,9.26,8.22,1.36.11,3.85,2.14,3.69,2.66-1.55,5.16,2.68,5.84,5.48,7.74,2.92,1.98,5.59,4.36,8.59,6.22,7.74,4.83,15.53,9.58,23.44,14.14,5.56,3.2,11.2,6.35,17.05,8.96,8.9,3.97,18.04,7.42,27.04,11.17,5.39,2.25,7.27-.04,7.54-5.26.62-12.24,3.97-23.62,11.36-33.58.84-1.14,2.22-1.88,3.35-2.8-3.55,15.32-6.99,30.67-10.84,45.92-.31,1.21-3.72,2.79-5.2,2.39-25.49-6.92-50.91-14.06-76.31-21.31-9.23-2.63-9.55-2.56-9.55,6.73,0,25.03-.02,50.06.01,75.09,0,4.53-.65,7.66-6.52,5.45-24.07-9.08-48.28-17.8-72.22-27.2-3.04-1.19-6.21-5.31-6.91-8.59-2.05-9.59-3.33-19.41-4.11-29.2-1.27-15.95-1.9-31.95-2.79-47.92-.24-4.38-1.67-7.01-6.65-8.43-22-6.3-43.84-13.15-65.7-19.97-5.02-1.56-8.39-4.55-8.22-10.68.14-5.07-.78-10.16-1.2-15.25-1.81-21.89-3.46-43.8-5.58-65.67-.3-3.09,1.18-8.25-4.75-8.72-.14-3.59-.29-7.17-.43-10.76,3.96-.45,7.96-1.48,11.88-1.23,9.5.61,19.17.95,28.36,3.12,5.93,1.4,13.41,4.47,16.24,9.17,7.07,11.75,15.27,20.56,29.37,22.46ZM226.36,828.03c-4.79-6.11-7.87-11.38-12.24-15.17-3.07-2.66-7.77-3.99-11.95-4.69-4.65-.78-9.53-.2-14.31-.17-1.78,0-4.04-.54-5.22.33-2.16,1.59-3.68,4.04-5.47,6.13,1.76,1.35,3.33,3.38,5.32,3.93,11.53,3.19,23.13,6.11,34.76,8.94,2.38.58,4.94.4,9.13.69Z" style="fill: #ee4888; stroke-width: 0px;"/>
  <path d="M235.95,7.02c-.44,5.99-3.45,9.27-9.31,11.45-29.47,11-58.35,23.23-83.87,42.22-30.14,22.43-56.3,48.46-74.62,81.62-4.19,7.59-7.49,15.66-11.55,24.26,1.77-.2,3.13-.32,4.47-.52,4.37-.64,5.17,1.94,4.32,5.27-2.85,11.16-.58,15.89,9.35,20.14,1.16.5,2.01,3.4,1.83,5.06-1.2,11.44,1.57,16.5,11.55,19.64.13,1.58.63,3.37.37,5.03-1.27,8.04,3.25,11.61,9.94,14.25,2.04.8,4.03,3.42,4.71,5.62,1.55,5.03,2.95,10.29,3.13,15.5.14,4.2-1.43,8.5-2.54,12.68-3.19,11.98-6.53,23.92-9.81,35.87,0,.89,0,1.78,0,2.68,0,.89,0,1.79-.01,2.68,0,.89,0,1.78,0,2.68-.45,1.34-.89,2.69-1.34,4.03,0,.89,0,1.78,0,2.67-.44.9-.89,1.79-1.33,2.69,0,1.78,0,3.57,0,5.35-.89,1.79-1.77,3.59-2.66,5.38-.45,5.73-1.16,11.45-1.29,17.18-.79,33.52-.19,66.93,9.3,99.49-7.08-2.92-6.43-10.24-8.21-15.74-3.44-10.65-9.11-19.55-16.88-27.37-9.89-9.96-19.69-20.01-29.58-29.97-9.21-9.28-18.6-18.37-27.69-27.77-4.66-4.83-5.97-11.06-6.17-17.66-.23-7.44-.84-14.87-1.29-22.3,0-3.12,0-6.25.01-9.37.44-1.79.89-3.58,1.33-5.38.45-5.36.91-10.72,1.36-16.08.44-.9.88-1.8,1.32-2.7.4-1.49.97-2.96,1.19-4.48,3.25-22.04,9.38-43.29,17.42-64.03,3.26-8.42,6.37-16.9,9.55-25.35,2.23-4.03,4.46-8.05,6.7-12.08,0-.89,0-1.78.01-2.67,5.49-4.54,9.05-10.12,9.38-17.44,1.79-3.13,3.58-6.25,5.38-9.38,1.78-2.24,3.57-4.48,5.35-6.71,0-.45,0-.89,0-1.34,1.79-2.68,3.57-5.36,5.36-8.04h0c.89-1.35,1.78-2.68,2.67-4.02h.01c3.07-3.03,6.54-5.74,9.14-9.12,14.32-18.6,30.27-35.69,49.31-49.37,15.44-11.1,32.01-20.62,47.91-31.09,2.08-1.37,3.18-4.24,4.73-6.42,17.01-5.68,34.02-11.36,51.03-17.05Z" style="fill: #f05193; stroke-width: 0px;"/>
  <path d="M525.7,63.94c23.74,15.46,44.13,34.82,62.84,55.82,37.42,42,64.93,90.01,82.62,143.36,6.28,18.95,10.17,38.7,15.16,58.09-2-2.95-5.13-5.66-5.81-8.89-4.92-23.36-21.36-39.63-35.42-57.07-12.22-15.16-26.47-28.69-39.82-42.94-3.27-3.49-6.54-6.96-9.81-10.45-13.69-21.02-27.26-42.11-41.19-62.97-2.47-3.69-6.44-6.37-9.72-9.52-1.32-1.97-2.43-4.11-3.99-5.87-9.36-10.59-18.81-21.09-28.23-31.61.39-7.14,2.72-13.23,8.07-18.4,2.51-2.42,3.58-6.32,5.31-9.54Z" style="fill: #ef79af; stroke-width: 0px;"/>
  <path d="M595.45,201.86c3.27,3.48,6.54,6.96,9.81,10.45,13.35,14.25,27.6,27.78,39.82,42.94,14.06,17.44,30.5,33.71,35.42,57.07.68,3.23,3.81,5.94,5.81,8.89,5.88,28.64,8.22,57.64,8.01,86.81-.08,11.3-1.56,22.58-2.41,33.87-1.87-3.01-3.61-6.12-5.64-9.02-5.54-7.88-11.84-15.3-16.68-23.57-7.78-13.3-15.78-26.64-18.13-42.38-.29-1.96-2.48-3.64-3.79-5.44-.86-2.25-1.72-4.5-2.58-6.75-.88-5.81-1.76-11.62-2.63-17.43-.43-.92-.86-1.84-1.28-2.76-1.41-8.9-2.81-17.8-4.22-26.7-.87-2.25-1.74-4.49-2.61-6.74-.02-.88-.05-1.77-.07-2.65-.43-.9-.86-1.81-1.29-2.71-.46-1.79-.93-3.57-1.39-5.36-.43-.9-.86-1.79-1.3-2.69-.9-3.13-1.81-6.26-2.71-9.39-2.2-4.95-4.39-9.89-6.59-14.84-.04-1.31-.07-2.62-.11-3.93-.86-.92-1.72-1.85-2.57-2.77-.47-2.21-.94-4.42-1.41-6.63-1.32-2.26-2.63-4.52-3.95-6.78-.02-.87-.05-1.74-.07-2.6-1.51-3.93-2.81-7.95-4.56-11.77-4.17-9.09-8.56-18.09-12.86-27.12Z" style="fill: #eb73a7; stroke-width: 0px;"/>
  <path d="M417.19,799.74c24.08,5.45,48.11,11.12,72.25,16.28,18.78,4.01,18.85,3.72,19.03,23.03.07,7.54.09,15.08.13,22.63-3.33,1.67-6.85,3.04-9.94,5.06-10.04,6.54-19.77,13.57-29.93,19.92-5.23,3.27-7.16,1.88-7.35-4.25-.11-3.57-.02-7.14-.02-10.71q0-11.75-11.51-13.99c-.43-.08-.91,0-1.33-.11-15.84-4.01-31.68-8.03-47.51-12.06-.68-2.64-2.73-6.01-1.78-7.78,2.63-4.92,6.45-9.22,9.9-13.69,3.35-4.34,7.54-8.24,9.93-13.04,1.11-2.23-1.18-6.13-1.87-9.29-.14-.63,0-1.33,0-1.99Z" style="fill: #e9568c; stroke-width: 0px;"/>
  <path d="M164.07,813.38c5.94.47,4.46,5.64,4.75,8.72,2.12,21.86,3.77,43.77,5.58,65.67.42,5.08,1.34,10.18,1.2,15.25-.17,6.12,3.2,9.11,8.22,10.68,21.85,6.81,43.69,13.67,65.7,19.97,4.98,1.43,6.41,4.06,6.65,8.43.89,15.98,1.53,31.98,2.79,47.92.78,9.79,2.05,19.61,4.11,29.2.7,3.28,3.87,7.4,6.91,8.59,23.94,9.4,48.15,18.12,72.22,27.2,5.87,2.21,6.53-.92,6.52-5.45-.03-25.03-.02-50.06-.01-75.09,0-9.29.32-9.36,9.55-6.73,25.4,7.25,50.82,14.39,76.31,21.31,1.48.4,4.9-1.18,5.2-2.39,3.85-15.25,7.3-30.59,10.84-45.92,0-.89.02-1.78.02-2.67.44-.9.89-1.8,1.33-2.69,0-.89,0-1.78,0-2.67,1.78-1.34,3.56-2.69,5.34-4.03-2.94,20.2-5.77,40.42-8.93,60.59-.51,3.24-2.46,6.26-3.75,9.38-7.39-1.88-14.79-3.76-22.18-5.64-16.99-5.03-33.98-10.05-50.98-15.08-1.79-.78-3.58-1.57-5.37-2.35-1.33-.45-2.66-.9-3.99-1.34-1.39-.91-2.78-1.81-4.03-2.63v96.45c-22.81-7.51-45.62-15-68.42-22.54-9.72-3.21-19.33-6.81-29.16-9.67-4.66-1.36-6.34-3.73-6.56-8.4-1.33-27.41-2.88-54.82-4.36-82.22-.06-1.1-.14-2.21-.25-3.97-15.4-4.62-30.88-9.29-46.38-13.91-9.18-2.73-18.47-5.13-27.51-8.25-2.06-.71-4.57-3.67-4.73-5.76-1.75-22.43-3.06-44.89-4.51-67.35-.7-10.87-1.44-21.74-2.15-32.61Z" style="fill: #ea3c78; stroke-width: 0px;"/>
  <path d="M371.49,977.93c16.99,5.03,33.98,10.05,50.98,15.08.03,6.23-.46,12.51.23,18.67.88,7.87-1.98,13.34-7.7,18.61-13.39,12.34-26.21,25.3-39.27,38-.96-5.1-2.61-10.17-2.76-15.29-.72-25.02-1.03-50.04-1.48-75.07Z" style="fill: #bf1737; stroke-width: 0px;"/>
  <path d="M673.52,528.2c-2.79,7.43-5.58,14.86-8.36,22.3-4-.52-8.05-1.69-11.98-1.39-5.04.38-10.04,1.74-14.96,3.05-4.9,1.3-5.46-.54-4.45-4.78.94-3.96,1.25-8.08,1.84-12.12-.62-.11-1.24-.23-1.85-.34-.95,1.72-2.08,3.37-2.83,5.17-7.76,18.61-15.12,37.39-23.32,55.8-4.17,9.36-9.83,18.06-14.82,27.05-.89,1.34-1.78,2.68-2.68,4.02,0,.45,0,.89,0,1.34-.89.9-1.78,1.79-2.67,2.69-.45,1.34-.9,2.68-1.35,4.02-.89.89-1.78,1.79-2.67,2.68-1.34,2.24-2.69,4.47-4.03,6.71l-2.68,2.69c0,.45,0,.89,0,1.34-1.34,1.34-2.68,2.68-4.02,4.03,0,.45,0,.89,0,1.34-1.34,1.34-2.68,2.68-4.02,4.02h0c-2.68,3.58-5.37,7.15-8.05,10.72-4.02,4.02-8.04,8.05-12.06,12.07h0c-2.68,2.68-5.36,5.37-8.05,8.05l-1.34,1.34c-1.82,1.15-3.76,2.15-5.45,3.47-11.49,9.02-22.4,18.9-34.49,27.01-31.32,21-65.73,34.89-102.94,41.38-6.3,1.1-12.92.42-19.39.57,9.05-1.74,18.1-3.51,27.16-5.21,31.66-5.93,60.46-18.5,87.56-35.85,30.96-19.83,56.67-44.96,78.65-74.12,4.46-5.92,7.9-12.6,11.81-18.93.89-1.34,1.79-2.69,2.68-4.03.89-1.78,1.79-3.57,2.68-5.35,1.79-2.69,3.58-5.37,5.36-8.06h0c1.02-.73,2.44-1.24,3-2.23,3.59-6.39,7.22-12.79,10.43-19.37,18.19-37.24,30.33-76.36,36.49-117.37.52-3.48,3.34-6.62,5.1-9.92-.02,7.17-.04,14.34-.06,21.51-1.32,7.14-2.63,14.28-3.95,21.42-.79,4.31-1.44,8.66-2.41,12.93-1.26,5.55,1.54,7.92,6.47,8.42,1.9.2,3.91-.77,5.84-.7,6.69.26,13.95-3.56,19.84,2.64Z" style="fill: #e63a6e; stroke-width: 0px;"/>
  <path d="M586.07,635c.45-1.34.9-2.68,1.35-4.02.89-.9,1.78-1.79,2.67-2.69,0-.45,0-.89,0-1.34.89-1.34,1.78-2.68,2.68-4.02,4.99-9,10.65-17.69,14.82-27.05,8.2-18.41,15.56-37.19,23.32-55.8.75-1.8,1.88-3.45,2.83-5.17.62.11,1.24.23,1.85.34-.59,4.05-.9,8.16-1.84,12.12-1.01,4.24-.45,6.08,4.45,4.78,4.92-1.31,9.92-2.67,14.96-3.05,3.94-.3,7.98.87,11.98,1.39-5.01,10.73-10.02,21.46-15.04,32.19-5.16-3.95-9.54-2.23-14.39,1.17-9.33,6.54-19.71,11.03-26.03,21.92-10.34,17.82-21.37,35.46-34.04,51.66-12.23,15.63-26.92,29.34-40.5,43.92-2.31,2.48-4.44,5.12-6.65,7.68-1.27,1.28-2.53,2.56-3.8,3.84-1.91,1.41-3.81,2.83-5.72,4.24-15.7,9.34-31.21,19-47.17,27.86-7.51,4.17-15.87,6.8-23.84,10.13,1.5-1.47,2.77-3.37,4.55-4.31,4.11-2.18,8.76-3.42,12.66-5.88,18.31-11.61,36.77-23.03,54.48-35.51,7.38-5.21,13.03-12.88,19.47-19.43.45-.45.89-.89,1.34-1.34,5.11-.26,7.79-2.94,8.05-8.05,0,0,0,0,0,0,4.02-4.02,8.04-8.05,12.06-12.07,2.68-3.57,5.37-7.15,8.05-10.72h0c1.34-1.34,2.68-2.68,4.02-4.02,0-.45,0-.89,0-1.34,1.34-1.34,2.68-2.68,4.02-4.03,0-.45,0-.89,0-1.34.89-.9,1.78-1.79,2.68-2.68,1.34-2.24,2.69-4.47,4.03-6.71.89-.89,1.78-1.79,2.67-2.68Z" style="fill: #e12e5c; stroke-width: 0px;"/>
  <path d="M528.51,709.04c2.21-2.56,4.35-5.2,6.65-7.68,13.58-14.58,28.27-28.29,40.5-43.92,12.67-16.2,23.7-33.83,34.04-51.66,6.32-10.89,16.7-15.38,26.03-21.92,4.85-3.4,9.23-5.12,14.39-1.17-21.2,41.07-50.44,75.36-87.47,102.94-11.06,8.24-22.75,15.64-34.15,23.42Z" style="fill: #d42e54; stroke-width: 0px;"/>
  <path d="M457.33,67.75c-1.78-.9-3.57-1.8-5.35-2.69-2.24-1.78-4.48-3.57-6.72-5.35h0c-1.34-.89-2.68-1.79-4.02-2.68-4.47-2.24-8.93-4.48-13.4-6.72-.9-.89-1.79-1.78-2.69-2.67-17.52-7.43-34.71-15.8-52.65-22.01-16.01-5.54-32.79-8.9-49.34-12.78-9.67-2.26-19.55-3.61-29.31-5.48-1.33-.26-2.53-1.21-3.64-2.56,17.44-3.05,34.61-.42,51.81,1.25,3.71.58,7.42,1.16,11.12,1.75.48.08.96.15,1.44.23,2.18.95,4.28,2.26,6.56,2.8,29.14,6.86,56.22,18.72,82.05,33.66,6.82,3.95,13.87,7.5,20.82,11.23,0,0,0,0,0,0,4.6,4.73,8.62,10.34,16.12,10.72h-.02c2.22,7.43,8.64,10.25,14.76,13.41,0,0-.01-.01-.01-.01-.43.88-.87,1.77-1.31,2.65,1.73,3.69,3.45,7.38,5.18,11.07-.47.51-.95,1.01-1.42,1.52-4.36-3.05-8.68-6.14-13.08-9.13-8.95-6.09-17.93-12.13-26.9-18.19Z" style="fill: #f472ae; stroke-width: 0px;"/>
  <path d="M139.52,671.19c1.33.9,2.67,1.8,4,2.7.9.89,1.79,1.79,2.69,2.68,1.34,1.34,2.69,2.67,4.03,4.01l2.68,2.68c1.79,1.34,3.57,2.69,5.36,4.03,1.34,1.34,2.69,2.67,4.03,4.01,1.34.9,2.68,1.8,4.02,2.69.9.89,1.79,1.78,2.69,2.67,13.95,8.91,27.76,18.07,41.92,26.64,7.55,4.57,15.61,8.33,23.63,12.05,2.92,1.36,6.38,1.56,10.66,2.52.96,25.7,1.95,51.92,2.93,78.14.44,2.68.88,5.37,1.31,8.05,0,1.79,0,3.58,0,5.36h-1.35c-1.79-3.57-3.57-7.14-5.36-10.71-.47-9.4-.93-18.79-1.4-28.19-.77-9.95-1.53-19.91-2.3-29.86-.05-3.79.3-7.64-.32-11.33-.33-1.99-1.89-4.6-3.61-5.42-92.71-43.83-154.65-116.72-195.7-208.71-9.89-22.16-15.93-46.03-23.74-69.12,1.47,2.09,3.15,4.06,4.37,6.29,1.97,3.61,3.64,7.38,5.43,11.08.01,1.78.03,3.56.04,5.34.2.86.28,1.78.62,2.59,7.67,18.63,14.41,37.72,23.32,55.73,9.82,19.86,20.58,39.44,32.91,57.82,11.96,17.84,26.17,34.22,39.94,50.78,4.88,5.86,11.4,10.35,17.17,15.46Z" style="fill: #ea3c78; stroke-width: 0px;"/>
  <path d="M647.67,361.47c1.31,1.81,3.5,3.48,3.79,5.44,2.35,15.74,10.34,29.08,18.13,42.38,4.84,8.28,11.14,15.7,16.68,23.57,2.04,2.9,3.77,6.01,5.64,9.02-1.32,9.39-2.64,18.78-3.96,28.17-12.5-5.82-25-11.63-37.51-17.45,0-15.2,0-30.39,0-45.59-.02-2.23-.03-4.47-.05-6.7l-.08-12c-.88-6.28-1.75-12.56-2.63-18.84,0-2.67,0-5.34-.01-8.01Z" style="fill: #e86ba0; stroke-width: 0px;"/>
  <path d="M457.33,928.68c-1.78,1.34-3.56,2.69-5.34,4.03,0-2.24-.02-4.48-.03-6.72,0-.89,0-1.79.01-2.68.44-1.79.88-3.58,1.32-5.36,1.34-5.36,2.68-10.71,4.02-16.07-.44-11.49-.76-22.98-1.48-34.45-.09-1.46-2.02-3.49-3.54-4.04-4.98-1.8-10.12-3.19-15.27-4.47-23.68-5.85-47.39-11.56-71.04-17.53-1.47-.37-2.48-2.6-3.7-3.96,4.83.29,3.76-3.28,3.84-5.99.2-6.56-1.28-13.4,4.15-18.91,3.42-3.47,6.93-7.01,9.59-11.05,7.29-11.09,14.14-22.45,21.17-33.71,3.57-.45,7.14-.9,10.71-1.36-3.54,5.28-7.38,10.39-10.55,15.88-9.7,16.78-19.15,33.7-28.66,50.58-1.76,3.12-1.42,5.52,2.6,6.46,8.64,2.03,17.26,4.13,25.88,6.19,15.84,4.02,31.67,8.05,47.51,12.06.43.11.9.02,1.33.11q11.5,2.24,11.51,13.99c0,3.57-.09,7.14.02,10.71.19,6.13,2.12,7.53,7.35,4.25,10.16-6.35,19.89-13.37,29.93-19.92,3.1-2.02,6.62-3.39,9.94-5.06.04,3.12.09,6.25.13,9.37-2.6,1.01-5.68,1.44-7.73,3.12-10.1,8.25-19.84,16.93-29.91,25.21-2.97,2.45-6.62,4.08-11.02,6.72-.78,6.42-1.77,14.51-2.75,22.59Z" style="fill: #e9477b; stroke-width: 0px;"/>
  <path d="M401.01,845.53c-8.63-2.07-17.25-4.17-25.88-6.19-4.02-.94-4.36-3.34-2.6-6.46,9.51-16.89,18.96-33.8,28.66-50.58,3.17-5.49,7.02-10.6,10.55-15.88,1.73-.47,3.46-.93,5.2-1.4-.1.91-.19,1.82-.29,2.73-3.3,4.29-3.19,16.28.18,20.13.12,3.95.24,7.91.36,11.86,0,.67-.13,1.36,0,1.99.69,3.16,2.98,7.07,1.87,9.29-2.4,4.8-6.58,8.7-9.93,13.04-3.45,4.47-7.27,8.77-9.9,13.69-.95,1.77,1.1,5.14,1.78,7.78Z" style="fill: #e84f86; stroke-width: 0px;"/>
  <path d="M464.01,55.72c-6.95-3.73-14-7.28-20.82-11.23-25.83-14.94-52.91-26.79-82.05-33.66-2.28-.54-4.38-1.84-6.56-2.8,1.83-.74,3.71-2.24,5.49-2.11,39.3,2.76,77.4,10.61,113.24,27.6,2,.95,3.88,2.13,5.81,3.2-5.36,2.34-10.75,4.62-16.06,7.07-1.5.69-3.74,1.76-3.89,2.89-.2,1.51,1.22,3.29,2.1,4.87.8,1.44,1.81,2.77,2.73,4.15Z" style="fill: #f05494; stroke-width: 0px;"/>
  <path d="M416.94,765.01c-1.73.47-3.46.93-5.2,1.4-3.57.45-7.14.9-10.71,1.36-3.12,2.64-6.53,5.01-9.3,7.98-9.24,9.89-18.25,19.99-28.27,31.03-1.58-3.85-2.08-6.04-3.26-7.77-3.22-4.72-3.03-12-10.18-13.81-.45-5.36-.89-10.73-1.34-16.09,1.35-1.79,2.7-3.57,4.06-5.36,2.24,0,4.47,0,6.71,0,5.08,1.33,10.25,3.73,14.75-1.33.89,0,1.79,0,2.68,0,6.47-.14,13.08.53,19.39-.57,37.21-6.49,71.62-20.38,102.94-41.38,12.09-8.11,23-17.99,34.49-27.01,1.69-1.32,3.63-2.32,5.45-3.47-6.44,6.55-12.08,14.22-19.47,19.43-17.71,12.48-36.17,23.91-54.48,35.51-3.9,2.47-8.55,3.7-12.66,5.88-1.78.95-3.05,2.85-4.55,4.31-10.35,3.3-20.7,6.6-31.05,9.9ZM391.4,769.76h-40.44c4.69,6.57,7.54,15.03,15.09,16.33,11.55,1.98,17.11-8.25,25.35-16.33Z" style="fill: #e8336a; stroke-width: 0px;"/>
  <path d="M239.09,760.67c.77,9.95,1.53,19.91,2.3,29.86-3.7.34-7.49,1.38-11.07.87-6.73-.96-13.3-3.77-20.01-4.09-9.95-.47-20.24-5.17-30.02,2.4-2.49,1.93-8.43,3.31-11.35-2.07,16.68-9.65,32.97-20.09,50.27-28.45,5.18-2.5,13.18.82,19.89,1.48Z" style="fill: #d82249; stroke-width: 0px;"/>
  <path d="M6.78,299.75c0,3.12,0,6.25-.01,9.37-.38.53-1.08,1.07-1.09,1.6-.16,15.45-.26,30.89-.33,46.34-.02,5.11-.22,10.25.13,15.34.58,8.36,1.64,16.68,2.28,25.03.14,1.82-.63,3.7-.97,5.56-.96.02-1.91.03-2.87.05-.33-1.81-.66-3.62-.99-5.43.65-.36,1.31-.73,1.96-1.09-.7-.52-1.4-1.05-2.1-1.57-8.37-75.44,1.98-148.17,33.19-217.42,7.99-17.74,19.38-33.96,29.2-50.87.2,1.82.4,3.64.6,5.46,0,.45,0,.89,0,1.34-1.78,2.24-3.57,4.48-5.35,6.71-1.79,3.13-3.58,6.25-5.38,9.38-3.13,5.81-6.25,11.62-9.38,17.44,0,.89,0,1.78-.01,2.67-2.23,4.03-4.46,8.05-6.7,12.08-3.18,8.45-6.29,16.93-9.55,25.35-8.04,20.74-14.17,41.99-17.42,64.03-.22,1.52-.79,2.99-1.19,4.48-.44.9-.88,1.8-1.32,2.7-.45,5.36-.91,10.72-1.36,16.08-.44,1.79-.89,3.58-1.33,5.38Z" style="fill: #ee4888; stroke-width: 0px;"/>
  <path d="M509.15,897.84c.07,7.61.14,15.21.21,22.81-2.69,1.21-6.02,1.78-7.98,3.73-11.13,11.14-21.78,22.75-32.91,33.89-4.08,4.08-6.22,8.32-5.95,14.17.11,2.35-1.62,4.79-2.51,7.18.45-10.85.53-21.74,1.56-32.53.35-3.67,2.38-7.78,4.9-10.55,10.27-11.28,20.83-22.32,31.73-33,2.82-2.76,7.26-3.85,10.95-5.71Z" style="fill: #d42e54; stroke-width: 0px;"/>
  <path d="M509.15,897.84c-3.69,1.86-8.14,2.96-10.95,5.71-10.9,10.67-21.46,21.71-31.73,33-2.52,2.77-4.55,6.88-4.9,10.55-1.03,10.8-1.11,21.68-1.56,32.53,0,1.34,0,2.68,0,4.02,0,4.02,0,8.05,0,12.07,0,.89,0,1.79,0,2.68-.44,1.34-.89,2.69-1.33,4.03-1.8-.42-3.6-.84-5.4-1.25,2.29-24.47,4.37-48.96,7.11-73.37.45-3.98,3.08-8.41,6.02-11.29,11.42-11.2,23.28-21.96,35.24-32.59,1.71-1.52,4.82-1.46,7.29-2.13.07,5.35.15,10.69.22,16.04Z" style="fill: #e12e5c; stroke-width: 0px;"/>
  <path d="M460.01,983.65c0-1.34,0-2.68,0-4.02.89-2.4,2.62-4.83,2.51-7.18-.27-5.85,1.87-10.09,5.95-14.17,11.13-11.14,21.78-22.75,32.91-33.89,1.95-1.95,5.28-2.53,7.98-3.73.02,4.91.04,9.82.06,14.73-1.2,2.34-2,5.02-3.66,6.96-6.74,7.88-13.88,15.41-20.6,23.31-7.65,8.99-15.01,18.24-22.49,27.38-.89-3.13-1.77-6.25-2.66-9.38Z" style="fill: #d82249; stroke-width: 0px;"/>
  <path d="M525.7,63.94c-1.73,3.23-2.8,7.13-5.31,9.54-5.35,5.17-7.69,11.26-8.07,18.4-1.66-1.43-3.19-3.04-5-4.24-4.08-2.71-8.29-5.22-12.45-7.82,0,0,.01.01.01.01-4.92-4.47-9.84-8.95-14.76-13.42,0,0,.02.01.02.01-.9-1.35-1.79-2.69-2.69-4.04,4.23-2.68,8.43-5.41,12.71-8.02,3.34-2.03,8.73-1.66,8.69-7.57,8.95,5.71,17.9,11.43,26.85,17.14Z" style="fill: #f36ea2; stroke-width: 0px;"/>
  <path d="M650.45,452.61c12.5,5.82,25,11.63,37.51,17.45-1.31,6.71-2.61,13.42-3.92,20.13-12.1-2.24-24.2-4.48-36.3-6.72.02-7.17.04-14.34.06-21.51.88-3.12,1.77-6.23,2.65-9.35Z" style="fill: #e9568c; stroke-width: 0px;"/>
  <path d="M508.93,881.8c-2.46.67-5.58.61-7.29,2.13-11.95,10.64-23.81,21.4-35.24,32.59-2.94,2.88-5.58,7.31-6.02,11.29-2.74,24.42-4.81,48.91-7.11,73.37-2.87-.84-5.75-1.69-8.62-2.53,1.28-3.12,3.24-6.14,3.75-9.38,3.16-20.17,5.99-40.39,8.93-60.59.98-8.08,1.97-16.17,2.75-22.59,4.4-2.64,8.04-4.27,11.02-6.72,10.07-8.28,19.81-16.97,29.91-25.21,2.06-1.68,5.13-2.11,7.73-3.12.06,3.59.12,7.18.19,10.76Z" style="fill: #e63a6e; stroke-width: 0px;"/>
  <path d="M168.93,787.65c2.92,5.38,8.86,4,11.35,2.07,9.78-7.57,20.07-2.87,30.02-2.4,6.72.32,13.28,3.12,20.01,4.09,3.58.51,7.37-.53,11.07-.87.47,9.4.93,18.79,1.4,28.19-2.29-1.9-4.51-3.88-6.88-5.67-4.63-3.51-8.9-8.75-14.11-10.01-16.87-4.07-34.12-6.58-51.17-9.97-1.64-.32-2.89-2.57-4.32-3.93.87-.5,1.75-1,2.62-1.5Z" style="fill: #dd2651; stroke-width: 0px;"/>
  <path d="M166.31,789.15c1.43,1.35,2.68,3.6,4.32,3.93,17.05,3.39,34.29,5.9,51.17,9.97,5.21,1.26,9.47,6.5,14.11,10.01,2.37,1.79,4.59,3.78,6.88,5.67,1.79,3.57,3.57,7.14,5.36,10.71.89,1.34,1.78,2.69,2.66,4.03-.44.89-.88,1.78-1.32,2.67-14.1-1.9-22.3-10.7-29.37-22.46-2.83-4.7-10.31-7.78-16.24-9.17-9.2-2.17-18.86-2.5-28.36-3.12-3.92-.25-7.92.78-11.88,1.23-1.41-4.94-1.95-9.72,2.67-13.47Z" style="fill: #e93870; stroke-width: 0px;"/>
  <path d="M647.73,483.47c12.1,2.24,24.2,4.48,36.3,6.72-1.47,6.25-2.94,12.51-4.4,18.76-6.27-.9-12.52-1.93-18.8-2.65-5.66-.65-11.36-.95-17.04-1.4,1.32-7.14,2.63-14.28,3.95-21.42Z" style="fill: #e84f86; stroke-width: 0px;"/>
  <path d="M184.92,24.07c-1.55,2.18-2.65,5.05-4.73,6.42-15.9,10.47-32.47,19.99-47.91,31.09-19.04,13.68-35,30.77-49.31,49.37-2.6,3.38-6.07,6.09-9.14,9.11,0-1.85,0-3.7,0-5.55,14.89-21.44,33.4-39.42,53.63-55.69,17.58-14.14,36.68-25.85,57.46-34.75Z" style="fill: #ef4c8d; stroke-width: 0px;"/>
  <path d="M462.67,993.03c7.48-9.14,14.84-18.38,22.49-27.38,6.72-7.9,13.86-15.43,20.6-23.31,1.66-1.94,2.47-4.62,3.66-6.96.06.44.12.88.2,1.32,2.2,12.72-1.99,22.4-11.96,30.98-12.29,10.58-23.3,22.66-34.86,34.09-.04-1.12-.07-2.25-.11-3.37,0-.9,0-1.79,0-2.69,0-.9-.02-1.79-.02-2.69Z" style="fill: #bf1737; stroke-width: 0px;"/>
  <path d="M643.78,504.9c5.68.45,11.38.76,17.04,1.4,6.29.72,12.54,1.76,18.8,2.65-2.04,6.42-4.07,12.83-6.1,19.25-5.89-6.2-13.15-2.38-19.84-2.64-1.94-.08-3.94.89-5.84.7-4.93-.51-7.73-2.88-6.47-8.42.97-4.27,1.62-8.62,2.41-12.93Z" style="fill: #e9477b; stroke-width: 0px;"/>
  <path d="M498.85,46.8c.04,5.91-5.35,5.53-8.69,7.57-4.28,2.6-8.48,5.34-12.71,8.02-4.48-2.23-8.95-4.45-13.43-6.68,0,0,0,0,0,0-.92-1.38-1.93-2.71-2.73-4.15-.88-1.58-2.3-3.36-2.1-4.87.15-1.13,2.39-2.2,3.89-2.89,5.31-2.45,10.7-4.73,16.06-7.07,6.58,3.36,13.15,6.71,19.73,10.07Z" style="fill: #f15899; stroke-width: 0px;"/>
  <path d="M362.14,974.24c1.33.45,2.66.9,3.99,1.34.45,5.08,1.2,10.14,1.3,15.23.55,26.72.94,53.44,1.38,80.16-1.83-.37-3.67-.74-5.5-1.1-.39-10.5-.88-21-1.16-31.5-.52-19.29-.96-38.58-1.29-57.88-.04-2.07.83-4.16,1.28-6.25Z" style="fill: #e12e5c; stroke-width: 0px;"/>
  <path d="M362.14,974.24c-.45,2.08-1.32,4.17-1.28,6.25.33,19.29.77,38.59,1.29,57.88.28,10.5.77,21,1.16,31.5-1.73-.6-3.47-1.21-5.2-1.81,0-31.85,0-63.71,0-96.45,1.25.82,2.64,1.73,4.03,2.63Z" style="fill: #e8336a; stroke-width: 0px;"/>
  <path d="M368.81,1070.97c-.44-26.72-.83-53.44-1.38-80.16-.1-5.08-.85-10.15-1.3-15.23,1.79.79,3.58,1.57,5.37,2.35.45,25.02.77,50.05,1.48,75.06.15,5.12,1.8,10.19,2.76,15.29-2.31.89-4.62,1.78-6.93,2.68Z" style="fill: #d82249; stroke-width: 0px;"/>
  <path d="M25.53,483.47c-1.8-3.7-3.46-7.47-5.43-11.08-1.22-2.23-2.9-4.2-4.37-6.29-.26-.93-.52-1.85-.78-2.78.85-2.23,1.7-4.46,2.55-6.69,2.68,8.94,5.36,17.89,8.04,26.83Z" style="fill: #ee4888; stroke-width: 0px;"/>
  <path d="M416.83,787.87c-3.38-3.86-3.48-15.84-.18-20.13.06,6.71.12,13.42.18,20.13Z" style="fill: #e9568c; stroke-width: 0px;"/>
  <path d="M65.77,132.13c-.2-1.82-.4-3.64-.6-5.46.99-1.48,1.98-2.96,2.97-4.43,1,.62,1.99,1.24,2.99,1.85-1.79,2.68-3.57,5.36-5.36,8.04Z" style="fill: #ef4c8d; stroke-width: 0px;"/>
  <path d="M353.14,7.81c-3.71-.58-7.42-1.16-11.12-1.75,0-.82.01-1.64.02-2.46,3.93.8,9.07-1.59,11.11,4.21Z" style="fill: #f05494; stroke-width: 0px;"/>
  <path d="M17.48,456.64c-.85,2.23-1.7,4.46-2.55,6.69-.78-3.09-1.56-6.18-2.34-9.26,1.63-.03,3.25-.06,4.88-.09,0,.89,0,1.78,0,2.66Z" style="fill: #ea3c78; stroke-width: 0px;"/>
  <path d="M13.46,439.21c.45,2.68.91,5.37,1.36,8.05-1.48-1.3-2.96-2.61-4.44-3.91-.27-1.38-.53-2.77-.8-4.15,1.29,0,2.59,0,3.88.01Z" style="fill: #ee4888; stroke-width: 0px;"/>
  <path d="M10.38,443.35c1.48,1.3,2.96,2.61,4.44,3.91.01,1.34.02,2.68.03,4.02-.89,0-1.78,0-2.67,0l-1.81-7.93Z" style="fill: #ea3c78; stroke-width: 0px;"/>
  <path d="M71.13,124.09c-1-.62-1.99-1.24-2.99-1.85,1.9-2.58,3.79-5.15,5.69-7.73,0,1.85,0,3.7,0,5.55,0,0-.01.01-.01.01-.89,1.34-1.78,2.67-2.67,4.01h0Z" style="fill: #ee4888; stroke-width: 0px;"/>
  <path d="M9.45,424.47c.89,1.79,1.78,3.58,2.67,5.36-1.43.02-2.86.05-4.29.07-.3-1.82-.61-3.64-.91-5.46.85.01,1.69.02,2.54.03Z" style="fill: #ee4888; stroke-width: 0px;"/>
  <path d="M4.67,409.78c4.36-.73,5.1,1.8,4.77,5.29-1.35,0-2.7,0-4.05-.01-.24-1.76-.48-3.52-.72-5.28Z" style="fill: #ee4888; stroke-width: 0px;"/>
  <path d="M9.44,417.75c0,1.34.01,2.68.01,4.02-.96,0-1.92-.02-2.88-.03-.33-1.34-.67-2.67-1-4.01,1.29,0,2.57.01,3.86.02Z" style="fill: #ee4888; stroke-width: 0px;"/>
  <path d="M12.12,432.5c.44,1.34.89,2.69,1.33,4.03-1.43.02-2.86.05-4.29.07-.28-.93-.55-1.86-.83-2.79,1.26-.44,2.53-.88,3.79-1.32Z" style="fill: #ee4888; stroke-width: 0px;"/>
  <path d="M462.7,998.41c.04,1.12.07,2.25.11,3.37-1.38.22-2.75.44-4.13.66.44-1.34.89-2.69,1.33-4.03.9,0,1.79,0,2.69,0Z" style="fill: #d42e54; stroke-width: 0px;"/>
  <path d="M12.18,451.27c.89,0,1.78,0,2.67,0,.87.9,1.75,1.8,2.62,2.7-1.63.03-3.25.06-4.88.09-.14-.93-.27-1.86-.41-2.8Z" style="fill: #ee4888; stroke-width: 0px;"/>
  <path d="M12.12,432.5c-1.26.44-2.53.88-3.79,1.32-.17-1.31-.34-2.61-.52-3.92,1.43-.02,2.86-.05,4.29-.07,0,.89,0,1.78,0,2.67Z" style="fill: #ea3c78; stroke-width: 0px;"/>
  <path d="M518.99,717.12c1.91-1.41,3.81-2.83,5.72-4.24-1.91,1.41-3.81,2.83-5.72,4.24Z" style="fill: #d42e54; stroke-width: 0px;"/>
  <path d="M3.91,403.05c.96-.02,1.91-.03,2.87-.05-.76,1.49-1.52,2.99-2.29,4.48-.2-1.48-.39-2.96-.58-4.44Z" style="fill: #ea3c78; stroke-width: 0px;"/>
  <path d="M9.44,417.75c-1.29,0-2.58-.01-3.86-.02-.06-.89-.13-1.78-.2-2.67,1.35,0,2.7,0,4.05,0,0,.89,0,1.78,0,2.68Z" style="fill: #ea3c78; stroke-width: 0px;"/>
  <path d="M9.16,436.61c1.43-.02,2.86-.05,4.29-.07,0,.89,0,1.78,0,2.67-1.29,0-2.59,0-3.88-.01-.14-.86-.28-1.72-.42-2.58Z" style="fill: #ea3c78; stroke-width: 0px;"/>
  <path d="M2.78,394.96c.7.52,1.4,1.05,2.1,1.57-.65.36-1.31.73-1.96,1.09-.05-.89-.09-1.77-.14-2.66Z" style="fill: #ea3c78; stroke-width: 0px;"/>
  <path d="M6.58,421.75c.96,0,1.92.02,2.88.03,0,.9,0,1.8,0,2.7-.85-.01-1.69-.02-2.54-.03-.11-.9-.22-1.8-.33-2.69Z" style="fill: #ea3c78; stroke-width: 0px;"/>
  <path d="M391.63,869.67c-1.18.3-2.5,1.09-3.53.82-14.15-3.78-28.29-7.62-42.36-11.72-1.48-.43-3.38-2.46-3.55-3.92-1.18-10.34-1.73-20.76-2.92-31.09-1.73-14.93-3.75-29.82-5.87-44.7-.29-2.06-1.37-5.02-2.91-5.71-5.92-2.66-8.58-7.07-10.38-13.1-.91-3.03-5.39-4.84-6.95-7.87-3.16-6.15-12.1-8.11-11.67-16.95.1-1.95-3.13-5.92-4.44-5.76-5.41.64-4.78-3.15-6.42-6.16-4.53-8.33-9.96-16.17-15.06-24.18-1.06-1.66-2.66-3.1-3.28-4.89-2.44-7.1-3.17-15.29-7.26-21.18-4.03-5.8-5.69-13.5-12.94-17.45-2.72-1.48-3.21-6.76-5.14-10.06-1.88-3.23-3.71-6.97-6.6-9.05-6.43-4.62-13.63-8.17-20.27-12.51-2.6-1.7-4.57-4.39-6.82-6.63,2.15,1,4.28,2.03,6.44,2.99,5.89,2.6,11.79,5.16,17.69,7.74,1.14,1.21,2.05,2.94,3.45,3.56,28.08,12.46,57.46,17.68,88.1,15.13,6.39-.53,12.71-1.94,19.06-2.94.03-.85.07-1.69.1-2.54-38.2,1.75-75.33-1.45-108.63-21.04.79-3.32,1.38-5.8,1.97-8.28,7.14,2.69,14.29,5.39,21.43,8.08,1.33,1.33,2.47,2.95,4.02,3.95,16.77,10.83,36.02,12.71,55.02,13.08,13.31.26,26.83-2.43,40-5.08,23.81-4.79,44.86-16.1,63.2-31.64,28.72-24.33,47.85-55.38,59.84-90.9.77-2.28.38-4.95.53-7.43,0-.89,0-1.78.01-2.67,1.28-1.83,2.89-3.52,3.75-5.53,1.27-2.96,2-6.15,2.96-9.24.35,1.41,1.31,2.99.97,4.22-5.73,20.99-11.04,42.15-22.25,61.16-7.43,12.6-14.81,25.23-22.03,37.95-.74,1.31-.94,3.79-.19,4.95,8.04,12.45,15.93,24.79,27.31,34.96,7.2,6.44,15.33,13.48,17.67,24.11.32,1.43,1.37,2.71,2.15,4.17,2.39-.43,4.52-.81,5.79-1.04,5.01,5.98,9.49,11.34,13.97,16.7l-1.3.99c.36.25.72.49,1.07.76,7.9,6.09,13.84,2.36,20.03-3.37,19.77-18.32,36.42-39.22,49.27-62.74,8.91-16.31,15.49-33.88,23.22-50.83.83-1.82,2.41-3.3,3.65-4.93,0,0,.03,0,.03,0-3.58,10.73-7.15,21.46-10.73,32.19-.9,2.23-1.8,4.46-2.7,6.69-.89,1.35-1.78,2.69-2.66,4.04-12.53,24.93-27.62,48.09-45.73,69.42-24.72,29.12-53.78,52.8-88,69.49-35.17,17.15-72.53,26.42-111.96,26.05-1.93-.02-3.87.28-7.68.58,1.56,4.01,2.76,7.08,3.95,10.15.88,14.74,1.76,29.48,2.64,44.22-.91,1.41-2.52,2.79-2.6,4.25-.63,11.07-1.09,22.17-1.21,33.25-.02,1.47,1.9,3.91,3.34,4.29,12.62,3.27,25.34,6.17,38.03,9.18.9.89,1.8,1.78,2.7,2.67.89.45,1.78.9,2.68,1.35Z" style="fill: #f05494; stroke-width: 0px;"/>
  <path d="M401.02,209.89c.44,0,.89.01,1.33.01,0,.89,0,1.79,0,2.68.44.89.89,1.79,1.33,2.68,4.38,5.5,8.34,11.41,13.23,16.41,17.46,17.82,30.46,38.74,42.27,60.42,3.05,5.6,3.87,12.41,5.72,18.67-.84-1.55-1.74-3.08-2.5-4.67-10.17-21.27-22.37-41.28-37.53-59.38-32.15-38.37-71.82-64.26-121.75-73-2.76-5.11-5.4-5.52-9.43-1.46-3.1-.01-6.19-.02-9.29-.04-3.03-7.84-9.61-2.68-14.45-3.72-2.62-.56-7.12-1.9-7.11,3.75-.87.01-1.75.02-2.62.04-.9-.44-1.79-.88-2.69-1.31-3.64-2.7-3.96-.21-4.07,2.61l-3.95.04c-3.58-3.71-11.11-2.33-14.78,2.71,0,0,.01.03.01.03-.89,0-1.79-.01-2.68-.02-2.89.34-5.97.17-8.65,1.11-22.25,7.84-41.56,20.83-57.28,37.93-11.91,12.96-22.64,27.64-30.89,43.15-7.72,14.51-11.62,31.07-16.88,46.84-1.08,3.22-1.02,7.04,4.51,6.31,19.7-2.59,39.4-5.15,59.1-7.72-.3,1.27-.61,2.54-.91,3.82-.35,1.38-.69,2.76-1.04,4.13-.59,1.75-1.18,3.5-1.77,5.25-3.35,3.14-4.18,8.28-10.27,9.36-11.1,1.97-22.05,5.01-32.88,8.22-9.71,2.88-21.03,3.83-24.48,16.32-.03.1-.76.01-1.38.01,0-7.21-.81-14.51.17-21.55,1.93-13.75,4.83-27.36,7.41-41.02.73-3.88,1.72-7.7,2.59-11.55,0-.45.01-.9.02-1.34,2.23-4.47,4.46-8.94,6.69-13.41.9-2.24,1.79-4.47,2.69-6.71.89-.9,1.78-1.79,2.67-2.69,5.98-15.53,16.94-27.69,27.74-39.79,5.15-5.78,11.85-10.17,17.85-15.19,1.34-.89,2.68-1.79,4.03-2.68l5.36-4.02,4.02-2.69s0,0,0,0c1.34-.89,2.69-1.79,4.03-2.68.45-.44.9-.89,1.34-1.33,4.92-2.68,9.84-5.36,14.75-8.04.89,0,1.78,0,2.67-.01,3.13-1.78,6.27-3.56,9.4-5.34,1.78,0,3.56-.01,5.35-.02,1.35-.89,2.69-1.78,4.04-2.67,1.34,0,2.67,0,4.01-.01,1.35-.89,2.69-1.77,4.04-2.66,3.12,0,6.25-.02,9.37-.02,2.24-.89,4.48-1.77,6.72-2.66,3.13,0,6.25,0,9.38-.01.9,0,1.79,0,2.68,0,1.79,0,3.57,0,5.36,0,1.79,0,3.58,0,5.37,0,.89,0,1.79,0,2.68,0,1.79,0,3.58,0,5.37,0,1.79,0,3.57,0,5.36,0,3.76,4.44,8.63,3.34,13.41,2.67,1.34,0,2.68,0,4.02.01.9.88,1.8,1.77,2.7,2.65,2.67,0,5.35.02,8.02.03,3.58,1.78,7.17,3.56,10.75,5.34,4.25,1.01,8.71,1.51,12.7,3.15,7.53,3.08,14.78,6.81,22.15,10.27,0,0,0,.01,0,.01,2.22.9,4.44,1.81,6.66,2.71.02.44.03.88.04,1.31,1.78,1.35,3.57,2.69,5.35,4.04,2.68,1.79,5.37,3.57,8.05,5.36h0c4.02,3.13,8.05,6.26,12.07,9.39.9,0,1.79,0,2.69,0Z" style="fill: #e8336a; stroke-width: 0px;"/>
  <path d="M464.91,310.77c-1.85-6.26-2.67-13.07-5.72-18.67-11.81-21.68-24.82-42.6-42.27-60.42-4.89-5-8.85-10.91-13.23-16.41,1.33-.42,2.66-.83,3.98-1.25,1.38,1.75,2.76,3.5,4.13,5.25.87.46,1.73.92,2.6,1.38.42.45.85.9,1.27,1.36-.09.19-.18.38-.26.57.1-.17.21-.34.31-.52,1.79,1.33,3.58,2.65,5.37,3.98.46,1.32.92,2.64,1.38,3.96.16,5.29,3.45,7.9,8.05,9.38,0,0,0,0,0,0,1.33,1.35,2.66,2.7,3.99,4.05.44.45.89.9,1.33,1.35.9,1.34,1.8,2.68,2.69,4.02.45.89.91,1.77,1.36,2.66.88.91,1.77,1.81,2.65,2.72h.65s.65,0,.65,0c.48,1.77.95,3.54,1.43,5.3.22.85.24,1.84.71,2.53,14.52,21.71,26.4,44.8,33.87,69.82,4.19,14.04,6.5,28.64,9.66,42.99l3.89,2.72c.04.89.08,1.78.12,2.66-.01.9-.03,1.79-.04,2.69.44.91.89,1.81,1.33,2.72.02,1.78.04,3.55.07,5.33-.45.89-.89,1.78-1.34,2.67.46,2.24.91,4.48,1.37,6.72.02,1.78.05,3.56.07,5.35-.46,1.34-.93,2.67-1.39,4.01-.02,2.69-.05,5.37-.07,8.06,0,4.93,0,9.86,0,14.79.87,4.47,1.75,8.93,2.62,13.4-.02,1.33-.03,2.67-.05,4-1.31.91-2.61,1.81-3.92,2.72.45,2.23.89,4.46,1.34,6.69-.01.44-.03.89-.04,1.33-.88,1.35-1.76,2.69-2.64,4.04.02,1.34.03,2.69.05,4.03,0,.88-.01,1.76-.02,2.64-.02,1.35-.05,2.69-.07,4.04-.88,1.35-1.76,2.69-2.64,4.04-.01,2.68-.03,5.35-.04,8.03-.44.89-.89,1.79-1.33,2.68,0,.89,0,1.79,0,2.68-.45.89-.89,1.79-1.34,2.68,0,.89,0,1.79,0,2.68-1.33,2.68-2.66,5.37-3.99,8.05-.9,3.58-1.81,7.15-2.71,10.73-3.57,6.71-7.13,13.41-10.7,20.12l-.02,2.68c-1.78,2.68-3.57,5.36-5.35,8.04l-.02,1.34c-.89.89-1.77,1.79-2.66,2.68-.45.9-.9,1.79-1.35,2.69-.89,1.34-1.78,2.68-2.67,4.01-.45.9-.9,1.79-1.35,2.69-.89,1.34-1.78,2.67-2.68,4.01-2.24,2.69-4.48,5.37-6.71,8.06-.89.89-1.78,1.79-2.67,2.68-5.81,5.81-11.63,11.63-17.44,17.44-1.34,1.34-2.68,2.67-4.02,4.01-.89.45-1.79.91-2.68,1.36-5.36,4.02-10.73,8.03-16.09,12.05-.45,0-.9.01-1.35.02-1.08.14-2.27.04-3.24.45-10.49,4.47-20.98,8.96-31.39,13.6-1.6.71-2.85,2.22-4.26,3.35-.89,0-1.79,0-2.68.01-5.22.46-10.46.79-15.65,1.49-1.13.15-2.09,1.65-3.12,2.52-4.47,0-8.94,0-13.41.01-1.79-.44-3.59-.87-5.38-1.31-.88,0-1.76,0-2.64,0-1.79.43-3.59.87-5.38,1.3-1.34,0-2.68,0-4.03,0-2.68-.89-5.37-1.77-8.05-2.66-.89,0-1.79,0-2.68,0-1.79-.44-3.58-.89-5.36-1.33-2.23,0-4.47-.02-6.7-.03-.9-.88-1.8-1.77-2.7-2.65-2.23-.01-4.46-.02-6.69-.04-.9-.88-1.8-1.76-2.7-2.65-4.02-.89-8.04-1.78-12.06-2.67-7.14-2.69-14.29-5.39-21.43-8.08,0,0,.02-.03.02-.03-.73-5.64-5.55-5.46-9.42-6.64-.89-.46-1.78-.91-2.67-1.37,0-.44,0-.89,0-1.33-1.65-2.84-3.29-5.68-5.45-9.41,2.75-1.35,5.37-2.79,8.1-3.95,7.66-3.25,15.46-6.17,23.01-9.64,4.2-1.93,7.8-5.25,12.08-6.88,3.17-1.21,6.99-.7,10.53-.96-10.37,7.61-20.65,15.33-31.15,22.75-2.72,1.92-6.1,2.9-11.07,5.19,6.22,4.51,10.44,8.45,15.38,10.99,18.13,9.3,37.56,14.7,57.8,16.62,7.92.75,16.01-.32,24.02-.56,3.58-.44,7.15-.89,10.73-1.33.89,0,1.79,0,2.68,0,22.86-3.56,43.62-12.28,62.39-25.71,1.6-1.14,2.26-3.59,3.36-5.44,2.42-1.52,5.29-2.61,7.19-4.62,10.51-11.17,22.27-21.54,30.87-34.06,36.96-53.83,44.82-114,34.55-177.06-3.16-19.42-9.93-38.25-15.05-57.36-.54-1.36-1.09-2.72-1.63-4.08-.67-1.39-1.34-2.77-2.02-4.16.61-.44,1.22-.88,1.82-1.32-.84-.36-1.68-.72-2.51-1.08l-.09.03Z" style="fill: #ea3c78; stroke-width: 0px;"/>
  <path d="M457.33,67.75c8.97,6.06,17.95,12.1,26.9,18.19,4.39,2.99,8.72,6.08,13.08,9.13.47-.51.95-1.01,1.42-1.52-1.73-3.69-3.45-7.38-5.18-11.07,9.38,8.5,18.76,17,28.14,25.5.54,1.64.68,3.57,1.67,4.87,8.31,10.95,16.78,21.79,25.2,32.67,3.56,4.92,7.13,9.84,10.69,14.76,0,.9,0,1.79-.01,2.69-2.55-2-5.16-3.92-7.62-6.02-2.82-2.41-5.51-4.99-8.25-7.49-.68,2.53-.3,4,.47,5.22,21.38,33.91,41.08,68.76,54.34,106.72,8.03,22.97,14.63,46.45,21.4,69.84,3.25,11.24,5.41,22.81,8.06,34.23.89,11.68,2.16,23.34,2.58,35.03.45,12.44.1,24.91.1,37.37-1.33-1.46-3.68-2.81-3.84-4.39-1.61-15.87-2.23-31.86-4.37-47.64-2.38-17.53-5.61-34.98-9.28-52.3-8.5-40.22-22.49-78.64-40.9-115.31-11.17-22.26-23.13-44.21-36.27-65.35-8.62-13.86-19.79-26.17-30.17-38.88-13.42-16.45-29.11-30.52-46.39-42.85-.92-.66-1.2-2.23-1.77-3.38Z" style="fill: #f36ea2; stroke-width: 0px;"/>
  <path d="M630.32,437.86c0-12.46.35-24.93-.1-37.37-.42-11.69-1.69-23.35-2.58-35.03.91-1.05,2.6-2.08,2.62-3.14.15-8.59,1.47-17.51-.35-25.72-5.15-23.14-11.58-45.99-17.63-68.92-1.8-6.82-4.02-13.53-6.05-20.29.91.81,2.3,1.45,2.66,2.46,6.25,17.51,13.1,34.86,18.3,52.69,3.95,13.55,5.87,27.69,8.51,41.61,1.51,7.96,2.67,15.99,3.99,23.99.01,1.34.03,2.68.04,4.02.86,8.5,1.73,17,2.59,25.5,0,8.47,0,16.94,0,25.41-.44.91-.87,1.83-1.31,2.74.42,3.14.85,6.28,1.27,9.41l-1.27,3.96c-1.15,1.9-2.84,3.67-3.35,5.73-3.04,12.44-5.75,24.96-8.74,37.42-.34,1.4-1.72,2.55-2.62,3.82,1.34-16.09,2.68-32.19,4.02-48.28Z" style="fill: #f1709b; stroke-width: 0px;"/>
  <path d="M626.3,486.13c.9-1.27,2.28-2.42,2.62-3.82,2.99-12.45,5.7-24.98,8.74-37.42.5-2.06,2.2-3.82,3.35-5.73.01,1.8.03,3.6.04,5.4-.44,2.68-.88,5.37-1.32,8.05,0,1.34-.01,2.68-.02,4.02-3.1,12.31-6.05,24.67-9.32,36.93-4.61,17.25-9.36,34.46-14.33,51.6-.71,2.46-2.96,4.47-4.49,6.69,0,0-.03,0-.03,0,3.38-13.02,7.01-25.97,10.04-39.07,2.03-8.78,3.18-17.75,4.72-26.64Z" style="fill: #ec558d; stroke-width: 0px;"/>
  <path d="M489.54,374.82c-3.16-14.35-5.47-28.95-9.66-42.99-7.47-25.03-19.34-48.11-33.87-69.82-.46-.69-.48-1.68-.71-2.53,1.82,1.45,4.23,2.54,5.36,4.41,15.59,25.74,29,52.49,36.41,81.86,2.43,9.64,4.29,19.42,6.41,29.13-1.32-.02-2.64-.04-3.95-.06Z" style="fill: #ef4c8d; stroke-width: 0px;"/>
  <path d="M488.15,487.48c.01-2.68.02-5.35.04-8.03.88-1.35,1.76-2.69,2.64-4.04.02-1.35.05-2.69.07-4.04.89.91,1.78,1.81,2.67,2.72,0,1.33-.01,2.67-.02,4-.44.9-.88,1.81-1.32,2.71,0,1.33,0,2.66-.01,3.99-.96,3.09-1.69,6.28-2.96,9.24-.86,2.01-2.48,3.7-3.75,5.53-.01-.45-.03-.9-.04-1.35,0-.89,0-1.79,0-2.68.45-.89.89-1.79,1.34-2.68,0-.89,0-1.79,0-2.68.44-.89.89-1.79,1.33-2.68Z" style="fill: #ef4c8d; stroke-width: 0px;"/>
  <path d="M493.56,432.52c0-4.93,0-9.86,0-14.79,1.33.01,2.66.03,3.98.04,0,4.9,0,9.81,0,14.71-1.33.01-2.66.03-3.98.04Z" style="fill: #eb427b; stroke-width: 0px;"/>
  <path d="M386.26,193.81c.89.45,1.78.9,2.67,1.35,1.35,1.34,2.69,2.67,4.04,4.01.89.93,1.78,1.87,2.66,2.8-3.98,5.06-6.06-2.19-9.37-1.45h0c-2.23-2.24-4.47-4.47-6.71-6.71,0-.45,0-.89,0-1.34l.03-.03c2.23.46,4.45.91,6.68,1.37Z" style="fill: #ef4c8d; stroke-width: 0px;"/>
  <path d="M386.26,200.51c3.31-.74,5.39,6.51,9.37,1.45.42-.03.83-.04,1.25-.05.48,1.32.96,2.64,1.44,3.96,0,1.34,0,2.68,0,4.02-4.02-3.13-8.05-6.26-12.07-9.39Z" style="fill: #ea3c78; stroke-width: 0px;"/>
  <path d="M493.56,432.52c1.33-.01,2.66-.03,3.98-.04.01,4.48.02,8.95.03,13.43-.46,0-.93,0-1.39,0-.87-4.47-1.75-8.93-2.62-13.4Z" style="fill: #ef4c8d; stroke-width: 0px;"/>
  <path d="M386.26,193.81c-2.23-.46-4.45-.91-6.68-1.37-2.24-1.78-4.48-3.56-6.72-5.35-.45-.89-.9-1.78-1.35-2.67,0,0,.01-.01.01-.01,6.41.79,11.33,3.9,14.74,9.4Z" style="fill: #f15899; stroke-width: 0px;"/>
  <path d="M430.54,239.38c-4.6-1.49-7.89-4.09-8.05-9.38,1.33.45,2.67.91,4,1.36,1.34,1.78,2.69,3.57,4.03,5.35,0,.89,0,1.78.01,2.67Z" style="fill: #ef4c8d; stroke-width: 0px;"/>
  <path d="M497.54,417.77c-1.33-.01-2.66-.03-3.98-.04.02-2.69.05-5.37.07-8.06,1.32.01,2.63.02,3.95.03-.01,2.69-.02,5.38-.04,8.07Z" style="fill: #ef4c8d; stroke-width: 0px;"/>
  <path d="M493.51,460.66c.02-.44.03-.89.04-1.33.9,0,1.79,0,2.69,0,1.83,2.69,2.79,5.21-1.33,6.73-.45-.45-.91-.91-1.36-1.36-.01-1.34-.02-2.68-.04-4.02Z" style="fill: #f05494; stroke-width: 0px;"/>
  <path d="M496.24,459.32c-.9,0-1.79,0-2.69,0-.45-2.23-.89-4.46-1.34-6.69,1.33-.01,2.65-.02,3.98-.03l.06.02c0,2.23,0,4.46-.01,6.69Z" style="fill: #ef4c8d; stroke-width: 0px;"/>
  <path d="M497.58,409.7c-1.32-.01-2.63-.02-3.95-.03.46-1.34.93-2.67,1.39-4.01,2.86.07,5.24.45,2.56,4.04Z" style="fill: #f05494; stroke-width: 0px;"/>
  <path d="M421.1,226.03c-1.79-1.33-3.58-2.65-5.37-3.98l-.05-.05c-.42-.45-.85-.9-1.27-1.36.01-.46.02-.91.04-1.37,4.54-.04,6.79,2.19,6.66,6.76Z" style="fill: #f15899; stroke-width: 0px;"/>
  <path d="M493.57,474.1c-.89-.91-1.78-1.81-2.67-2.72,0-.88.01-1.76.02-2.64,1.33,0,2.65-.02,3.98-.03-.44,1.8-.89,3.59-1.33,5.39Z" style="fill: #f05494; stroke-width: 0px;"/>
  <path d="M445.26,59.71c2.24,1.78,4.48,3.57,6.72,5.35-2.24-1.78-4.48-3.57-6.72-5.35Z" style="fill: #f36ea2; stroke-width: 0px;"/>
  <path d="M496.18,445.92c.46,0,.93,0,1.39,0,1.83,2.68,2.8,5.2-1.32,6.71,0,0-.06-.02-.06-.02-.02-.9-.04-1.79-.06-2.69.02-1.33.03-2.67.05-4Z" style="fill: #f05494; stroke-width: 0px;"/>
  <path d="M494.95,400.32c-.46-2.24-.91-4.48-1.37-6.72.89,0,1.77,0,2.66.01-.43,2.24-.86,4.47-1.29,6.71Z" style="fill: #ef4c8d; stroke-width: 0px;"/>
  <path d="M494.9,468.71c-1.33,0-2.65.02-3.98.03-.02-1.34-.03-2.69-.05-4.03.89,0,1.78-.01,2.68-.02.45.45.91.91,1.36,1.36,0,.89,0,1.77,0,2.66Z" style="fill: #ef4c8d; stroke-width: 0px;"/>
  <path d="M398.33,205.88c-.48-1.32-.96-2.64-1.44-3.96,1.38,1.32,2.75,2.64,4.13,3.96-.9,0-1.79,0-2.69,0Z" style="fill: #f15899; stroke-width: 0px;"/>
  <path d="M430.52,236.71c-1.34-1.78-2.69-3.57-4.03-5.35,1.34,1.78,2.69,3.57,4.03,5.35Z" style="fill: #f15899; stroke-width: 0px;"/>
  <path d="M407.67,214.01c-1.33.42-2.66.83-3.98,1.25-.45-.89-.89-1.79-1.33-2.68,1.34,0,2.68,0,4.01.01.45,0,.89.01,1.34.01-.01.47-.02.94-.03,1.4Z" style="fill: #eb427b; stroke-width: 0px;"/>
  <path d="M392.97,199.17c-1.35-1.34-2.69-2.67-4.04-4.01,1.35,1.34,2.69,2.67,4.04,4.01Z" style="fill: #f15899; stroke-width: 0px;"/>
  <path d="M434.53,243.43c-1.33-1.35-2.66-2.7-3.99-4.05,1.33,1.35,2.66,2.7,3.99,4.05Z" style="fill: #ef4c8d; stroke-width: 0px;"/>
  <path d="M398.33,205.88c.9,0,1.79,0,2.69,0,0,1.34,0,2.68,0,4.01-.9,0-1.79,0-2.69,0,0-1.34,0-2.68,0-4.02Z" style="fill: #ef4c8d; stroke-width: 0px;"/>
  <path d="M489.54,374.82c1.32.02,2.64.04,3.95.06-.02.89-.04,1.77-.06,2.66-1.3-.9-2.6-1.81-3.9-2.72Z" style="fill: #eb427b; stroke-width: 0px;"/>
  <path d="M496.23,393.61c-.89,0-1.78,0-2.66-.01.45-.89.89-1.78,1.34-2.67.44.89.88,1.79,1.33,2.68Z" style="fill: #f05494; stroke-width: 0px;"/>
  <path d="M438.56,248.79c-.9-1.34-1.8-2.68-2.69-4.02.9,1.34,1.8,2.68,2.69,4.02Z" style="fill: #ef4c8d; stroke-width: 0px;"/>
  <path d="M441.24,57.03c1.34.89,2.68,1.79,4.02,2.68-1.34-.89-2.68-1.79-4.02-2.68Z" style="fill: #f36ea2; stroke-width: 0px;"/>
  <path d="M406.37,212.59c-1.34,0-2.68,0-4.01-.01,0-.89,0-1.79,0-2.68.9,0,1.79,0,2.69-.01.44.9.88,1.8,1.33,2.71Z" style="fill: #ef4c8d; stroke-width: 0px;"/>
  <path d="M406.37,212.59c-.44-.9-.88-1.8-1.33-2.71.89.91,1.78,1.81,2.66,2.72-.45,0-.89,0-1.34-.01Z" style="fill: #f15899; stroke-width: 0px;"/>
  <path d="M425.15,47.64c.9.89,1.79,1.78,2.69,2.67-.9-.89-1.79-1.78-2.69-2.67Z" style="fill: #f36ea2; stroke-width: 0px;"/>
  <path d="M443.88,254.17h-.65s-.65,0-.65,0c0-.9,0-1.8.01-2.7.43.9.86,1.8,1.3,2.71Z" style="fill: #f15899; stroke-width: 0px;"/>
  <path d="M442.58,251.47c0,.9,0,1.8-.01,2.7-.88-.91-1.77-1.81-2.65-2.72.89,0,1.78.01,2.66.02Z" style="fill: #ef4c8d; stroke-width: 0px;"/>
  <path d="M493.51,382.89c.01-.9.03-1.79.04-2.69.45.9.9,1.79,1.34,2.69-.46,0-.92,0-1.38,0Z" style="fill: #f05494; stroke-width: 0px;"/>
  <path d="M493.51,382.89c.46,0,.92,0,1.38,0-.02.9-.03,1.81-.05,2.71-.44-.91-.89-1.81-1.33-2.72Z" style="fill: #ef4c8d; stroke-width: 0px;"/>
  <path d="M492.23,480.81c.44-.9.88-1.81,1.32-2.71-.44.9-.88,1.81-1.32,2.71Z" style="fill: #f05494; stroke-width: 0px;"/>
  <path d="M414.44,219.27c-.01.46-.02.91-.04,1.37-.87-.46-1.74-.92-2.6-1.38.88,0,1.76,0,2.64,0Z" style="fill: #ef4c8d; stroke-width: 0px;"/>
  <path d="M237.41,628.3c-5.9-2.58-11.8-5.14-17.69-7.74-2.17-.96-4.3-1.99-6.44-2.99-6.58-4.85-13.38-9.43-19.68-14.62-9.2-7.58-19.14-14.66-26.8-23.63-12.19-14.25-23.56-29.36-33.77-45.09-8.71-13.4-15.34-28.16-22.78-42.37-.9-1.71-1.09-3.8-1.6-5.71-.88-.9-1.76-1.81-2.64-2.71-2.69-9.38-5.38-18.76-8.07-28.14-.44-.9-.88-1.79-1.32-2.69,0-.89-.02-1.78-.03-2.67-9.49-32.57-10.09-65.97-9.3-99.49.13-5.73.85-11.45,1.29-17.18.89-1.79,1.77-3.59,2.66-5.38,0-1.78,0-3.57,0-5.35.44-.9.89-1.79,1.33-2.69,0-.89,0-1.78,0-2.67.45-1.34.89-2.69,1.34-4.03,0-.89,0-1.78,0-2.68,0-.89,0-1.79.01-2.68,0-.89,0-1.78,0-2.68,1.74-2.82,3.86-5.47,5.14-8.48,2.29-5.39,4.08-11,7.41-16.2-1.06,8.23-2.12,16.45-3.18,24.68,0,.89,0,1.78,0,2.68-.44,1.34-.89,2.69-1.33,4.03,0,1.34,0,2.68-.01,4.01-.44.9-.88,1.79-1.33,2.69,0,1.78-.01,3.57-.02,5.35-.44.9-.89,1.79-1.33,2.69.44,1.34.87,2.68,1.31,4.02,0,1.78,0,3.57,0,5.35l-2.41,1.71,2.39,2.36c0,2.21,0,4.42-.01,6.63-.88.91-1.76,1.81-2.64,2.72-.44,1.34-.88,2.69-1.32,4.03.89,16.53,1.79,33.06,2.68,49.59.05,7.88-.99,15.95.33,23.61,6.72,39.25,20.93,75.55,44.76,107.73,3.61,4.88,8.05,9.15,12.11,13.7.55-.42,1.09-.84,1.64-1.26-.38-1.89-.77-3.77-1.15-5.66,4.91,4.92,9.83,9.84,14.74,14.76h0c3.12,3.14,6.24,6.28,9.36,9.42l2.68,2.67c.89.9,1.79,1.79,2.68,2.69h0c1.96,7.88,8.9,10.76,14.78,14.71l4.02,2.7c0,.45,0,.9-.01,1.35-2.05.3-4.55,1.49-6.04.72-3.09-1.6-5.61-4.29-8.43-6.46-5.81-4.46-11.66-8.88-17.49-13.31-.5.66-1,1.32-1.49,1.99,19.46,24.21,45.58,40.23,72.33,55.47l-1.06,1.64c-1.88-.38-3.75-.76-5.63-1.14Z" style="fill: #f2609f; stroke-width: 0px;"/>
  <path d="M391.63,869.67c-.89-.45-1.78-.9-2.68-1.35-.9-.89-1.8-1.78-2.69-2.67-12.69-3.01-25.41-5.91-38.03-9.18-1.44-.37-3.36-2.82-3.34-4.29.13-11.09.59-22.18,1.21-33.25.08-1.46,1.7-2.83,2.6-4.25.44.97,1.19,1.92,1.28,2.93.55,6.18,1.01,12.37,1.4,18.56.43,6.69,3.23,11.36,10.18,13.04,7.33,1.77,14.6,3.76,21.88,5.7,19.09,5.07,38.22,10,57.22,15.4,2.73.78,6.42,3.47,6.93,5.86,1.68,7.97,2.12,16.21,3.03,24.34-7.28,5.62-7.63,5.53-9.73-3.35-.55-2.34-.35-4.88-1.07-7.15-1.04-3.29-2.6-6.42-3.94-9.61-1.79-.45-3.57-.9-5.36-1.34-3.13-1.34-6.26-2.68-9.39-4.01-2.23,0-4.46,0-6.7-.01-2.69-1.34-5.37-2.67-8.06-4.01-2.23,0-4.46,0-6.7-.01l-2.69-1.34c-.9,0-1.79,0-2.69,0-.89,0-1.78,0-2.68,0Z" style="fill: #f2609f; stroke-width: 0px;"/>
  <path d="M139.52,671.19c-5.77-5.11-12.29-9.6-17.17-15.46-13.78-16.56-27.98-32.94-39.94-50.78-12.33-18.38-23.08-37.96-32.91-57.82-8.91-18.01-15.65-37.1-23.32-55.73-.33-.81-.42-1.72-.62-2.59,3.13,5.63,6.56,11.12,9.33,16.93,6,12.6,11.2,25.6,17.67,37.94,3.25,6.2,8.58,11.32,12.97,16.92.54.7,1.6,1.45,1.54,2.09-.87,8.85,7.97,12.92,10.02,20.43.81,2.98,3.74,5.35,5.59,8.08,1.18,1.75,2.15,3.66,3.19,5.51.1.17-.04.59.06.64,9.17,4.62,6.89,17.56,16.51,22.37,2.94,1.47,3.47,7.21,5.88,10.39,9.23,12.16,18.8,24.05,28.19,36.09,1.18,1.52,2.02,3.31,3.02,4.97Z" style="fill: #ee4888; stroke-width: 0px;"/>
  <path d="M430.52,879.05c1.79.45,3.57.9,5.36,1.34,1.31,10.94,2.18,21.95,4.06,32.78,1.69,9.72,2.18,9.64,10.68,6.1.45,1.34.9,2.68,1.35,4.02,0,.89,0,1.79-.01,2.68-1.23,1.62-2.53,3.2-3.68,4.88-1.66,2.42-3.21,4.91-5.35,8.19-6.31-7.37-5.82-15.41-6.91-22.75-1.43-9.58-1.49-19.38-3.14-28.92-.45-2.61-4.1-5.71-6.94-6.67-8.54-2.89-17.43-4.7-26.09-7.26-2.04-.6-3.71-2.49-5.55-3.79.9,0,1.79,0,2.69,0l2.69,1.34c2.23,0,4.46,0,6.7.01,2.69,1.34,5.37,2.67,8.06,4.01,2.23,0,4.46,0,6.7.01,3.13,1.34,6.26,2.68,9.39,4.01Z" style="fill: #f05494; stroke-width: 0px;"/>
  <path d="M249.48,824.08c-.44-2.68-.88-5.37-1.31-8.05,4.33,2.05,5.83,4.56,1.31,8.05Z" style="fill: #ee4888; stroke-width: 0px;"/>
  <path d="M250.8,833.47c-.89-1.34-1.78-2.69-2.66-4.03h1.35c.44,1.34.88,2.69,1.32,4.03Z" style="fill: #ee4888; stroke-width: 0px;"/>
  <path d="M162.32,691.3c-1.34-1.34-2.69-2.67-4.03-4.01,1.34,1.34,2.69,2.67,4.03,4.01Z" style="fill: #ee4888; stroke-width: 0px;"/>
  <path d="M146.22,676.58c-.9-.89-1.79-1.79-2.69-2.68.9.89,1.79,1.79,2.69,2.68Z" style="fill: #ee4888; stroke-width: 0px;"/>
  <path d="M152.93,683.26l-2.68-2.68,2.68,2.68Z" style="fill: #ee4888; stroke-width: 0px;"/>
  <path d="M169.03,696.66c-.9-.89-1.79-1.78-2.69-2.67.9.89,1.79,1.78,2.69,2.67Z" style="fill: #ee4888; stroke-width: 0px;"/>
  <path d="M96.61,452.62c.44.9.88,1.79,1.32,2.69-.44-.9-.88-1.79-1.32-2.69Z" style="fill: #f05193; stroke-width: 0px;"/>
  <path d="M106,483.45c.88.9,1.76,1.8,2.64,2.71-.88-.9-1.76-1.81-2.64-2.71Z" style="fill: #f05193; stroke-width: 0px;"/>
  <path d="M451.98,935.38c-.44.9-.89,1.8-1.33,2.69.44-.9.89-1.8,1.33-2.69Z" style="fill: #e9477b; stroke-width: 0px;"/>
  <path d="M236.06,168.32c-1.34,0-2.67,0-4.01.01-1.35.89-2.69,1.78-4.04,2.67-1.78,0-3.56.01-5.35.02-3.13,1.78-6.27,3.56-9.4,5.34-.89,0-1.78,0-2.67.01-4.92,2.68-9.84,5.36-14.75,8.04-.45.44-.9.89-1.34,1.33-1.34.89-2.69,1.79-4.03,2.68,0,0,0,0,0,0-1.34.9-2.68,1.79-4.02,2.69-1.79,1.34-3.57,2.68-5.36,4.02-1.34.89-2.68,1.79-4.03,2.68-6,5.02-12.7,9.42-17.85,15.19-10.8,12.1-21.76,24.26-27.74,39.79-.89.9-1.78,1.79-2.67,2.69-.9,2.24-1.79,4.47-2.69,6.71-2.23,4.47-4.46,8.94-6.69,13.41,0,.45-.01.9-.02,1.34-.9.89-1.81,1.78-2.71,2.66.99-4.21,1.51-8.61,3.08-12.59,2.64-6.67,5.95-13.08,8.98-19.59.02-.88.03-1.76.05-2.65.79-.36,1.88-.5,2.32-1.1,7.76-10.78,15.44-21.62,23.13-32.45,4.02-4.02,8.05-8.05,12.07-12.07,2.68-2.23,5.36-4.47,8.04-6.7.44,0,.89,0,1.33-.01.9-.89,1.8-1.77,2.71-2.66,3.12-1.8,6.25-3.59,9.37-5.39,2.24-1.78,4.48-3.56,6.72-5.34,1.34-.45,2.67-.9,4.01-1.36,2.24-1.34,4.47-2.68,6.71-4.01.45,0,.89,0,1.34-.01.9-.88,1.81-1.77,2.71-2.65,1.33-.01,2.66-.02,3.99-.04,7.6-2.68,15.2-5.36,22.8-8.04.89,0,1.78,0,2.68-.01,7.15-1.34,14.31-2.67,21.46-4.01.89,0,1.79,0,2.68,0,6.71-.44,13.42-.87,20.12-1.31,1.79,0,3.57-.01,5.36-.02.44,0,.89.01,1.33.01,1.5,4.15,4.02,3.17,6.72,1.34.89,0,1.79-.01,2.68-.02,0,0,0,.01,0,.01,1.79.44,3.58.89,5.37,1.33.89,0,1.78,0,2.67.01,1.34.44,2.69.88,4.03,1.32,1.33.01,2.67.02,4,.04,1.44,1.14,2.7,2.74,4.34,3.34,6.01,2.22,12.2,3.97,18.22,6.16,6.85,2.49,13.59,5.25,20.38,7.9,0,0,0,0,0,0,2.68,2.68,5.37,5.36,8.05,8.04-7.37-3.46-14.63-7.19-22.15-10.27-4-1.63-8.45-2.13-12.7-3.15-3.58-1.78-7.17-3.56-10.75-5.34-2.67,0-5.35-.02-8.02-.03-.9-.88-1.8-1.77-2.7-2.65-1.34,0-2.68,0-4.02-.01-4.47-.89-8.94-1.78-13.41-2.67-1.79,0-3.57,0-5.36,0-1.79,0-3.58,0-5.37,0-.89,0-1.79,0-2.68,0-1.79,0-3.58,0-5.37,0-1.79,0-3.57,0-5.36,0-.9,0-1.79,0-2.68,0-3.13,0-6.25,0-9.38.01-2.24.89-4.48,1.77-6.72,2.66-3.12,0-6.25.02-9.37.02-1.35.89-2.69,1.77-4.04,2.66Z" style="fill: #eb427b; stroke-width: 0px;"/>
  <path d="M238.74,162.93c-.89,0-1.78,0-2.68.01-6.03,1.34-12.12,2.48-18.06,4.16-1.8.51-3.18,2.54-4.74,3.88-1.33.01-2.66.02-3.99.04-.9.88-1.81,1.77-2.71,2.65-.45,0-.89.01-1.34.01-2.24,1.34-4.47,2.68-6.71,4.01-1.34.45-2.67.9-4.01,1.36-2.24,1.78-4.48,3.56-6.72,5.34-3.12,1.8-6.25,3.59-9.37,5.39-.9,0-1.8,0-2.69,0,1.62-1.94,2.93-4.31,4.91-5.76,18.32-13.43,38.87-21.85,61.04-26.41,3.45-.71,6.99-.91,10.5-1.35-1.72.89-3.43,1.81-5.17,2.67-2.74,1.35-5.5,2.67-8.25,4Z" style="fill: #f05193; stroke-width: 0px;"/>
  <path d="M128.76,247.43c-3.03,6.52-6.34,12.92-8.98,19.59-1.57,3.98-2.09,8.38-3.08,12.59-.44.89-.89,1.78-1.33,2.68-.88.91-1.75,1.82-2.63,2.72-.02,1.77-.04,3.55-.06,5.32-1.31,2-2.98,3.86-3.84,6.04-1.64,4.15-2.82,8.49-4.2,12.74-.45-.45-.9-.9-1.35-1.34,0-.89,0-1.78,0-2.68,3.41-9.98,6.54-20.07,10.33-29.91,3.18-8.25,7.02-16.25,10.85-24.23.73-1.51,2.81-2.38,4.27-3.54Z" style="fill: #f05193; stroke-width: 0px;"/>
  <path d="M358.11,179.05c-6.79-2.64-13.54-5.41-20.38-7.9-6.02-2.19-12.21-3.94-18.22-6.16-1.63-.6-2.9-2.2-4.34-3.34,10.12,3.25,20.36,6.19,30.3,9.91,4.52,1.69,8.44,4.95,12.64,7.49Z" style="fill: #ef4c8d; stroke-width: 0px;"/>
  <path d="M154.26,211.24c-7.7,10.83-15.37,21.67-23.13,32.45-.44.61-1.53.75-2.32,1.1,1.92-3.87,3.4-8.05,5.85-11.54,5.03-7.19,10.52-14.06,16-20.92.65-.81,2.38-.75,3.61-1.09Z" style="fill: #f05193; stroke-width: 0px;"/>
  <path d="M238.74,162.93c2.75-1.33,5.51-2.64,8.25-4,1.74-.86,3.45-1.78,5.17-2.67,1.34,0,2.68,0,4.02,0l4.02,2.67c-7.15,1.34-14.31,2.67-21.46,4.01Z" style="fill: #ef4c8d; stroke-width: 0px;"/>
  <path d="M283.01,157.61c-6.71.44-13.42.87-20.12,1.31,0-.89,0-1.78,0-2.67,6.71,0,13.41,0,20.12,0,0,.46,0,.91,0,1.36Z" style="fill: #ef4c8d; stroke-width: 0px;"/>
  <path d="M366.16,187.09c-2.68-2.68-5.37-5.36-8.05-8.04,4.47,1.79,8.94,3.58,13.41,5.37.45.89.9,1.78,1.35,2.67l-.04.04c-2.22-.01-4.45-.02-6.67-.04h0Z" style="fill: #ef4c8d; stroke-width: 0px;"/>
  <path d="M174.38,192.46c-2.68,2.23-5.36,4.47-8.04,6.7.78-4.52,1.78-8.77,8.04-6.7Z" style="fill: #f05193; stroke-width: 0px;"/>
  <path d="M262.89,156.25c0,.89,0,1.78,0,2.67-.89,0-1.79,0-2.68,0-1.34-.89-2.68-1.78-4.02-2.67,2.23,0,4.47,0,6.7,0Z" style="fill: #f05193; stroke-width: 0px;"/>
  <path d="M296.42,158.95c-2.69,1.82-5.22,2.8-6.72-1.34,2.24,0,4.48-.01,6.72-.02,0,.45,0,.91,0,1.36Z" style="fill: #ef4c8d; stroke-width: 0px;"/>
  <path d="M283.01,157.61c0-.45,0-.91,0-1.36,1.79.45,3.58.9,5.36,1.34-1.79,0-3.57.01-5.36.02Z" style="fill: #f05193; stroke-width: 0px;"/>
  <path d="M304.46,160.27c-1.79-.44-3.58-.89-5.37-1.33,1.79.44,3.58.89,5.37,1.33Z" style="fill: #ef4c8d; stroke-width: 0px;"/>
  <path d="M311.17,161.61c-1.34-.44-2.69-.88-4.03-1.32,1.34.44,2.69.88,4.03,1.32Z" style="fill: #ef4c8d; stroke-width: 0px;"/>
  <path d="M296.42,158.95c0-.45,0-.91,0-1.36.9.45,1.79.9,2.69,1.34-.89,0-1.79.01-2.68.02Z" style="fill: #f05193; stroke-width: 0px;"/>
  <path d="M175.72,189.78c.9,0,1.8,0,2.69,0-.9.89-1.8,1.77-2.71,2.66,0-.89,0-1.78.01-2.67Z" style="fill: #ef4c8d; stroke-width: 0px;"/>
  <path d="M226.36,828.03c-4.19-.29-6.75-.11-9.13-.69-11.62-2.83-23.23-5.75-34.76-8.94-1.98-.55-3.55-2.58-5.32-3.93,1.79-2.09,3.31-4.55,5.47-6.13,1.19-.87,3.45-.32,5.22-.33,4.78-.03,9.66-.61,14.31.17,4.18.7,8.88,2.03,11.95,4.69,4.37,3.79,7.45,9.06,12.24,15.17Z" style="fill: #f15899; stroke-width: 0px;"/>
  <path d="M45.66,166.99c3.13-5.81,6.25-11.62,9.38-17.44-.33,7.32-3.89,12.89-9.38,17.44Z" style="fill: #ef4c8d; stroke-width: 0px;"/>
  <path d="M38.95,181.74c2.23-4.03,4.46-8.05,6.7-12.08-2.23,4.03-4.46,8.05-6.7,12.08Z" style="fill: #ef4c8d; stroke-width: 0px;"/>
  <path d="M60.42,140.18c1.78-2.24,3.57-4.48,5.35-6.71-1.78,2.24-3.57,4.48-5.35,6.71Z" style="fill: #ef4c8d; stroke-width: 0px;"/>
  <path d="M6.78,299.75c.44-1.79.89-3.58,1.33-5.38-.44,1.79-.89,3.58-1.33,5.38Z" style="fill: #ef4c8d; stroke-width: 0px;"/>
  <path d="M91.23,327.9c-.89,1.79-1.77,3.59-2.66,5.38.89-1.79,1.77-3.59,2.66-5.38Z" style="fill: #f15899; stroke-width: 0px;"/>
  <path d="M93.92,313.15c-.45,1.34-.89,2.69-1.34,4.03.45-1.34.89-2.69,1.34-4.03Z" style="fill: #f15899; stroke-width: 0px;"/>
  <path d="M71.14,124.08c.89-1.34,1.78-2.67,2.67-4.01-.89,1.34-1.78,2.67-2.67,4.01Z" style="fill: #ef4c8d; stroke-width: 0px;"/>
  <path d="M92.57,319.85c-.44.9-.89,1.79-1.33,2.69.44-.9.89-1.79,1.33-2.69Z" style="fill: #f15899; stroke-width: 0px;"/>
  <path d="M93.93,307.79c0,.89,0,1.79-.01,2.68,0-.89,0-1.79.01-2.68Z" style="fill: #f15899; stroke-width: 0px;"/>
  <path d="M9.47,278.3c.44-.9.88-1.8,1.32-2.7-.44.9-.88,1.8-1.32,2.7Z" style="fill: #ef4c8d; stroke-width: 0px;"/>
  <path d="M559.25,160.28c-3.56-4.92-7.13-9.84-10.69-14.76-.35-1.87-.37-3.88-1.11-5.58-1.18-2.72-2.84-5.23-4.29-7.82.46-.92.92-1.83,1.38-2.75,3.28,3.15,7.26,5.83,9.72,9.52,13.93,20.86,27.5,41.95,41.19,62.97,4.3,9.03,8.68,18.03,12.86,27.12,1.75,3.82,3.05,7.84,4.56,11.77-.97-.99-1.77-2.33-2.95-2.87-1.54-.71-3.38-.79-5.09-1.14-.78-.76-1.85-1.38-2.29-2.3-4.26-9-8.2-18.15-12.72-27.02-1.38-2.7-4.23-4.65-6.41-6.94-.92-2.67-1.83-5.33-2.75-8-.88-.9-1.76-1.8-2.64-2.69,0-.44-.02-.89-.03-1.33-1.78-2.68-3.56-5.36-5.33-8.04-.91-1.79-1.82-3.58-2.73-5.36-2.66-3.58-5.33-7.17-7.99-10.75-.9-1.34-1.79-2.68-2.69-4.02Z" style="fill: #ec558d; stroke-width: 0px;"/>
  <path d="M544.53,129.37c-.46.92-.92,1.83-1.38,2.75-2.5-2.76-5.02-5.49-7.49-8.28-4.67-5.27-9.31-10.57-13.97-15.85-9.38-8.5-18.76-17-28.14-25.5.44-.88.87-1.77,1.31-2.65,4.16,2.59,8.37,5.1,12.45,7.82,1.81,1.2,3.34,2.82,5,4.24,9.42,10.53,18.88,21.03,28.23,31.61,1.55,1.76,2.67,3.9,3.99,5.87Z" style="fill: #f05494; stroke-width: 0px;"/>
  <path d="M641.05,444.57c-.01-1.8-.03-3.6-.04-5.4.42-1.32.85-2.64,1.27-3.96.04-3.14.07-6.28.11-9.42-.02-.91-.05-1.82-.07-2.73,0-8.47,0-16.94,0-25.4-.25-8.27-.49-16.54-.84-24.8-.01-.26-1.14-.46-1.75-.69-.01-1.34-.03-2.68-.04-4.02,1.8-4.47,3.6-8.95,5.4-13.42.86,2.25,1.72,4.5,2.58,6.75,0,2.67,0,5.34.01,8.01-2.43,6.74-1.32,12.99,2.63,18.84.03,4,.05,8,.08,12,.02,2.23.03,4.47.05,6.7,0,15.2,0,30.39,0,45.59-.89,3.12-1.77,6.23-2.65,9.35-1.75,3.3-4.57,6.44-5.1,9.92-6.16,41.01-18.3,80.13-36.49,117.37-3.22,6.59-6.84,12.98-10.43,19.37-.56.99-1.98,1.5-3,2.24,1.1-2.66,2.17-5.33,3.32-7.97,4.69-10.76,9.41-21.52,14.11-32.27,4.44-11.82,9.64-23.41,13.13-35.5,5.95-20.63,11.05-41.52,15.98-62.43,1.2-5.1.32-10.69.4-16.05,0-1.34.01-2.68.02-4.02,4.65-1.99,2.79-5.05,1.32-8.05Z" style="fill: #e9477b; stroke-width: 0px;"/>
  <path d="M645.09,354.72c-1.8,4.47-3.6,8.95-5.4,13.42-1.32-8-2.47-16.03-3.99-23.99-2.64-13.91-4.56-28.06-8.51-41.61-5.2-17.83-12.04-35.17-18.3-52.69-.36-1.01-1.75-1.65-2.66-2.46-.03-1.32-.06-2.63-.09-3.95-.43-2.23-.87-4.47-1.3-6.7,1.71.35,3.54.43,5.09,1.14,1.17.54,1.98,1.88,2.95,2.87.02.87.05,1.74.07,2.61,1.32,2.26,2.63,4.52,3.95,6.78.47,2.21.94,4.42,1.41,6.63.86.92,1.72,1.85,2.57,2.77.04,1.31.07,2.62.11,3.93,2.2,4.95,4.39,9.89,6.59,14.84.9,3.13,1.81,6.26,2.71,9.39.43.9.86,1.79,1.3,2.69.46,1.79.93,3.57,1.39,5.36.43.9.86,1.81,1.29,2.71.02.88.05,1.77.07,2.65.87,2.25,1.74,4.49,2.61,6.74,1.41,8.9,2.81,17.8,4.22,26.7.43.92.86,1.84,1.28,2.76.88,5.81,1.76,11.62,2.63,17.43Z" style="fill: #e84f86; stroke-width: 0px;"/>
  <path d="M627.58,278.3c-2.2-4.95-4.4-9.89-6.59-14.84,2.2,4.95,4.4,9.89,6.59,14.84Z" style="fill: #ec558d; stroke-width: 0px;"/>
  <path d="M636.95,307.83c-.87-2.25-1.74-4.49-2.61-6.74.87,2.25,1.74,4.49,2.61,6.74Z" style="fill: #f15899; stroke-width: 0px;"/>
  <path d="M616.88,250.13c-1.32-2.26-2.63-4.52-3.95-6.78,1.32,2.26,2.63,4.52,3.95,6.78Z" style="fill: #ec558d; stroke-width: 0px;"/>
  <path d="M620.87,259.53c-.86-.92-1.72-1.84-2.57-2.77.86.92,1.72,1.84,2.57,2.77Z" style="fill: #ec558d; stroke-width: 0px;"/>
  <path d="M642.45,337.29c-.43-.92-.86-1.84-1.28-2.76.43.92.86,1.84,1.28,2.76Z" style="fill: #f15899; stroke-width: 0px;"/>
  <path d="M634.27,298.44c-.43-.9-.86-1.81-1.29-2.71.43.9.86,1.81,1.29,2.71Z" style="fill: #f15899; stroke-width: 0px;"/>
  <path d="M631.58,290.37c-.43-.9-.86-1.79-1.3-2.69.43.9.86,1.79,1.3,2.69Z" style="fill: #ec558d; stroke-width: 0px;"/>
  <path d="M610.21,570.62c-4.71,10.76-9.42,21.51-14.11,32.27-1.15,2.64-2.21,5.31-3.32,7.97h0c-1.79,2.68-3.58,5.37-5.36,8.05-.89,1.78-1.79,3.57-2.68,5.35-.89,1.34-1.79,2.69-2.68,4.03-3.91,6.33-7.35,13.01-11.81,18.93-21.98,29.17-47.69,54.3-78.65,74.12-27.1,17.35-55.91,29.92-87.56,35.85-9.06,1.7-18.1,3.47-27.16,5.21-.89,0-1.79,0-2.68,0-4.92.44-9.83.89-14.75,1.33-2.24,0-4.47,0-6.71,0-1.79.89-3.57,1.77-5.36,2.66-.44.47-.88.93-1.31,1.4,0,.89,0,1.78,0,2.68-1.19-3.07-2.39-6.13-3.95-10.15,3.81-.3,5.74-.6,7.68-.58,39.43.37,76.79-8.9,111.96-26.05,34.22-16.69,63.27-40.37,88-69.49,18.1-21.33,33.2-44.49,45.73-69.42.89-1.35,1.78-2.69,2.66-4.04.9-2.23,1.8-4.46,2.7-6.69,1.37-1.72,2.86-3.36,4.1-5.17,1.85-2.69,3.52-5.5,5.27-8.25Z" style="fill: #eb427b; stroke-width: 0px;"/>
  <path d="M560.59,668.52c-4.02,4.02-8.04,8.05-12.06,12.07,4.02-4.02,8.04-8.05,12.06-12.07Z" style="fill: #e8336a; stroke-width: 0px;"/>
  <path d="M548.53,680.59c-.25,5.11-2.94,7.79-8.05,8.05,2.68-2.68,5.36-5.37,8.05-8.05Z" style="fill: #e8336a; stroke-width: 0px;"/>
  <path d="M568.64,657.79c-2.68,3.57-5.37,7.15-8.05,10.72,2.68-3.57,5.37-7.15,8.05-10.72Z" style="fill: #e8336a; stroke-width: 0px;"/>
  <path d="M587.42,618.91c1.79-2.69,3.58-5.37,5.36-8.06-1.79,2.69-3.58,5.37-5.36,8.06Z" style="fill: #e9477b; stroke-width: 0px;"/>
  <path d="M576.69,648.41c-1.34,1.34-2.68,2.68-4.02,4.03,1.34-1.34,2.68-2.68,4.02-4.03Z" style="fill: #e8336a; stroke-width: 0px;"/>
  <path d="M572.66,653.77c-1.34,1.34-2.68,2.68-4.02,4.02,1.34-1.34,2.68-2.68,4.02-4.02Z" style="fill: #e8336a; stroke-width: 0px;"/>
  <path d="M592.78,622.93c-.89,1.34-1.78,2.68-2.68,4.02.89-1.34,1.78-2.68,2.68-4.02Z" style="fill: #e8336a; stroke-width: 0px;"/>
  <path d="M582.05,628.3c.89-1.34,1.79-2.69,2.68-4.03-.89,1.34-1.79,2.69-2.68,4.03Z" style="fill: #e9477b; stroke-width: 0px;"/>
  <path d="M586.07,635c-.89.89-1.78,1.79-2.67,2.68.89-.89,1.78-1.79,2.67-2.68Z" style="fill: #e8336a; stroke-width: 0px;"/>
  <path d="M579.37,644.38c-.89.9-1.78,1.79-2.68,2.68.89-.89,1.78-1.79,2.68-2.68Z" style="fill: #e8336a; stroke-width: 0px;"/>
  <path d="M590.1,628.29c-.89.9-1.78,1.79-2.67,2.69.89-.9,1.78-1.79,2.67-2.69Z" style="fill: #e8336a; stroke-width: 0px;"/>
  <path d="M480.11,66.42c4.92,4.47,9.84,8.95,14.76,13.42-6.12-3.16-12.54-5.98-14.76-13.42Z" style="fill: #f05494; stroke-width: 0px;"/>
  <path d="M464.01,55.71c4.48,2.23,8.95,4.45,13.43,6.68.9,1.35,1.79,2.69,2.69,4.04-7.5-.38-11.52-5.98-16.12-10.72Z" style="fill: #f05494; stroke-width: 0px;"/>
  <path d="M650.31,388.32c-3.95-5.85-5.06-12.1-2.63-18.84.88,6.28,1.75,12.56,2.63,18.84Z" style="fill: #e9568c; stroke-width: 0px;"/>
  <path d="M650.44,407.02c-.02-2.23-.03-4.47-.05-6.7.02,2.23.03,4.47.05,6.7Z" style="fill: #e9568c; stroke-width: 0px;"/>
  <path d="M346.07,770.47c0-.89,0-1.78,0-2.68.81.01,1.62.03,2.43.04.05.42.11.85.19,1.27.45,5.36.89,10.73,1.34,16.09.04,3.12.08,6.24.12,9.35-.24,5.33.71,9.9,3.56,14.95,4.1,7.27,5.79,15.89,8.51,23.94.02,1.33.05,2.66.07,4,1.22,1.36,2.23,3.59,3.7,3.96,23.65,5.98,47.36,11.68,71.04,17.53,5.15,1.27,10.29,2.67,15.27,4.47,1.52.55,3.45,2.58,3.54,4.04.72,11.47,1.04,22.96,1.48,34.45-2.23-.45-4.46-.91-6.69-1.36-.91-8.14-1.35-16.37-3.03-24.34-.5-2.39-4.19-5.08-6.93-5.86-19-5.4-38.13-10.33-57.22-15.4-7.29-1.93-14.56-3.93-21.88-5.7-6.94-1.68-9.75-6.34-10.18-13.04-.4-6.19-.85-12.38-1.4-18.56-.09-1.01-.84-1.95-1.28-2.93-.88-14.74-1.76-29.48-2.64-44.22Z" style="fill: #f1709b; stroke-width: 0px;"/>
  <path d="M350.14,794.54c-.04-3.12-.08-6.24-.12-9.35,7.15,1.82,6.96,9.09,10.18,13.81,1.18,1.73,1.68,3.92,3.26,7.77,10.02-11.04,19.03-21.14,28.27-31.03,2.77-2.97,6.19-5.33,9.3-7.98-7.03,11.26-13.88,22.62-21.17,33.71-2.66,4.04-6.17,7.58-9.59,11.05-5.42,5.51-3.95,12.34-4.15,18.91-.08,2.72.99,6.28-3.84,5.99-.02-1.33-.04-2.66-.07-4,.41-.98,1.35-2.08,1.17-2.94-2.09-9.72-4.01-19.51-6.79-29.04-.79-2.7-4.23-4.63-6.45-6.91Z" style="fill: #e63a6e; stroke-width: 0px;"/>
  <path d="M450.62,900.51c2.23.45,4.46.91,6.69,1.36-1.34,5.36-2.68,10.71-4.02,16.07-.89.45-1.78.89-2.67,1.34-8.5,3.53-8.99,3.62-10.68-6.1-1.88-10.84-2.75-21.85-4.06-32.78,1.34,3.2,2.9,6.32,3.94,9.61.72,2.27.51,4.81,1.07,7.15,2.1,8.88,2.45,8.97,9.73,3.35Z" style="fill: #f15899; stroke-width: 0px;"/>
  <path d="M450.62,919.28c.89-.45,1.78-.89,2.67-1.34-.44,1.79-.88,3.58-1.32,5.36-.45-1.34-.9-2.68-1.35-4.02Z" style="fill: #ef4c8d; stroke-width: 0px;"/>
  <path d="M391.4,769.76c-8.24,8.08-13.8,18.31-25.35,16.33-7.55-1.3-10.4-9.76-15.09-16.33h40.44Z" style="fill: #dd2651; stroke-width: 0px;"/>
  <path d="M359.45,763.74c4.92-.44,9.83-.89,14.75-1.33-4.5,5.07-9.67,2.66-14.75,1.33Z" style="fill: #e63a6e; stroke-width: 0px;"/>
  <path d="M348.68,769.1c-.08-.42-.14-.84-.19-1.27-.37-.48-.74-.96-1.12-1.44,1.79-.89,3.57-1.77,5.36-2.66-1.35,1.79-2.7,3.57-4.06,5.36Z" style="fill: #e63a6e; stroke-width: 0px;"/>
  <path d="M462.67,993.03c0,.9.02,1.79.02,2.69-.9,0-1.79,0-2.69,0,0-4.02,0-8.05,0-12.07.89,3.13,1.77,6.25,2.66,9.38Z" style="fill: #d42e54; stroke-width: 0px;"/>
  <path d="M460.01,995.72c.9,0,1.79,0,2.69,0,0,.9,0,1.79,0,2.69-.9,0-1.79,0-2.69,0,0-.89,0-1.79,0-2.68Z" style="fill: #d82249; stroke-width: 0px;"/>
  <path d="M237.41,628.3c1.88.38,3.75.76,5.63,1.14l1.06-1.64c-26.76-15.24-52.88-31.26-72.33-55.47.5-.66,1-1.32,1.49-1.99,5.83,4.43,11.68,8.85,17.49,13.31,2.82,2.16,5.34,4.85,8.43,6.46,1.49.77,4-.42,6.04-.72,1.34.44,2.69.89,4.03,1.33,2.68,1.79,5.35,3.59,8.03,5.38l2.71,2.65h0c1.34.9,2.68,1.79,4.02,2.69.44,0,.88.02,1.32.03,1.35.89,2.69,1.77,4.04,2.66.89.46,1.78.91,2.67,1.37,3.14,2.21,6.28,4.42,9.42,6.64,0,0-.02.03-.02.03-.59,2.48-1.18,4.95-1.97,8.28,33.3,19.59,70.43,22.8,108.63,21.04-.03.85-.07,1.69-.1,2.54-6.35,1-12.67,2.41-19.06,2.94-30.64,2.55-60.02-2.67-88.1-15.13-1.4-.62-2.31-2.35-3.45-3.56Z" style="fill: #f15899; stroke-width: 0px;"/>
  <path d="M262.88,620.26c4.02.89,8.04,1.78,12.06,2.67.9.88,1.8,1.76,2.7,2.65,2.23.01,4.46.02,6.69.04.9.88,1.8,1.77,2.7,2.65,2.23,0,4.47.02,6.7.03,1.79.44,3.58.89,5.36,1.33.89,0,1.79,0,2.68,0,2.68.89,5.37,1.77,8.05,2.66,1.34,0,2.68,0,4.03,0,1.79-.43,3.59-.87,5.38-1.3.88,0,1.76,0,2.64,0,1.79.44,3.59.87,5.38,1.31,4.47,0,8.94,0,13.41-.01,6.26-1.34,12.51-2.68,18.77-4.01.89,0,1.79,0,2.68,0,11.46-4.39,22.95-8.68,34.34-13.26,1.78-.72,3.05-2.73,4.55-4.15.45,0,.9-.01,1.35-.02,5.36-4.02,10.73-8.03,16.09-12.05.89-.45,1.79-.91,2.68-1.36,1.34-1.34,2.68-2.67,4.02-4.01,5.81-5.81,11.63-11.63,17.44-17.44.89-.89,1.78-1.79,2.67-2.68,2.24-2.69,4.48-5.37,6.71-8.06.89-1.34,1.78-2.67,2.68-4.01.45-.9.9-1.79,1.35-2.69.89-1.34,1.78-2.68,2.67-4.01.45-.9.9-1.79,1.35-2.69.89-.89,1.77-1.79,2.66-2.68,0-.45.01-.9.02-1.34,1.78-2.68,3.57-5.36,5.35-8.04,0-.89.01-1.79.02-2.68,3.57-6.71,7.13-13.41,10.7-20.12.9-3.58,1.81-7.15,2.71-10.73,1.34-1.34,2.68-2.68,4.02-4.02-.15,2.49.24,5.16-.53,7.43-11.99,35.52-31.12,66.56-59.84,90.9-18.34,15.54-39.39,26.85-63.2,31.64-13.17,2.65-26.69,5.34-40,5.08-19-.37-38.25-2.25-55.02-13.08-1.54-1-2.69-2.62-4.02-3.95Z" style="fill: #ef4c8d; stroke-width: 0px;"/>
  <path d="M610.21,570.62c-1.75,2.76-3.42,5.56-5.27,8.25-1.24,1.81-2.72,3.46-4.1,5.17,3.58-10.73,7.15-21.46,10.73-32.19,1.54-2.22,3.78-4.23,4.49-6.69,4.97-17.15,9.72-34.36,14.33-51.6,3.28-12.26,6.23-24.62,9.32-36.93-.08,5.36.8,10.95-.4,16.05-4.92,20.91-10.03,41.79-15.98,62.43-3.49,12.09-8.7,23.69-13.13,35.5Z" style="fill: #e84f86; stroke-width: 0px;"/>
  <path d="M485.5,502.23c-1.34,1.34-2.68,2.68-4.02,4.02,1.33-2.68,2.66-5.37,3.99-8.05.01.45.03.9.04,1.35,0,.89,0,1.78-.01,2.67Z" style="fill: #eb427b; stroke-width: 0px;"/>
  <path d="M598.14,590.74c-.89,1.35-1.78,2.69-2.66,4.04.89-1.35,1.78-2.69,2.66-4.04Z" style="fill: #e84f86; stroke-width: 0px;"/>
  <path d="M386.26,865.66c.9.89,1.8,1.78,2.69,2.67-.9-.89-1.8-1.78-2.69-2.67Z" style="fill: #f15899; stroke-width: 0px;"/>
  <path d="M469.33,321.37c5.12,19.1,11.89,37.94,15.05,57.36,10.28,63.06,2.42,123.22-34.55,177.06-8.6,12.52-20.36,22.89-30.87,34.06-1.89,2.01-4.77,3.1-7.19,4.62-33.87,7.78-67,5.78-99.27-7.49-10.68-5.57-21.36-11.15-32.04-16.72-7.54-5.73-15.09-11.46-22.63-17.19-6.27-6.25-12.54-12.5-18.81-18.75-3.74-4.67-7.56-9.26-11.19-14.01-24.85-32.47-40.94-68.91-48.2-109.07-2.57-14.21-3.46-28.71-5.12-43.08.79-12.97,1.59-25.95,2.38-38.92.45-4.02.9-8.03,1.35-12.05.59-1.75,1.18-3.5,1.77-5.25.35-1.38.69-2.76,1.04-4.13.3-1.27.61-2.54.91-3.82.69-3.36.99-6.86,2.16-10.04,2.76-7.53,5.93-14.91,8.94-22.35,5.88-10.71,11.75-21.43,17.63-32.14.47-.46,1.02-.86,1.39-1.38,20.69-29.22,47.3-50.59,81.67-61.72,1.08-.35,1.89-1.55,2.83-2.36,2.19-.09,4.37-.17,6.56-.26,49.93,8.74,89.61,34.64,121.75,73,15.16,18.1,27.36,38.1,37.53,59.38.76,1.59,1.66,3.11,2.5,4.67,0,0,.09-.03.09-.03.23.8.46,1.6.69,2.39.67,1.39,1.34,2.77,2.02,4.16.54,1.36,1.09,2.72,1.63,4.08Z" style="fill: #fefefe; stroke-width: 0px;"/>
  <path d="M296.57,173.98c-.94.81-1.74,2.01-2.83,2.36-34.37,11.13-60.98,32.5-81.67,61.72-.37.52-.92.92-1.39,1.38-5.01,1.09-9.14,1.54-13.24-3.58-4.52-5.64-10.48-10.53-16.7-14.26-4.67-2.8-3.88-5.08-1.91-8.4,2.01-3.38,4.17-6.67,6.27-10,.44,0,.89,0,1.33-.01.9-.89,1.79-1.78,2.69-2.68.45-.45.9-.89,1.35-1.34,1.34-.89,2.68-1.79,4.02-2.68,3.13-1.79,6.25-3.58,9.38-5.37.9-.89,1.8-1.77,2.7-2.66.89,0,1.78-.02,2.66-.02,2.69-1.78,5.38-3.56,8.07-5.34,2.67-.46,5.35-.92,8.02-1.38.9-.88,1.8-1.77,2.71-2.65,1.33,0,2.67-.02,4-.02.9-.89,1.8-1.78,2.7-2.67,0,0-.01-.03,0-.03,4.93-.9,9.86-1.81,14.78-2.71,1.32-.01,2.63-.03,3.95-.04,1.35.02,2.7.04,4.05.06.91-.45,1.81-.91,2.72-1.36.87-.01,1.75-.02,2.62-.04,7.19-.01,14.37-.02,21.56-.04,3.1.01,6.19.02,9.29.04.96.57,1.92,1.14,2.87,1.72Z" style="fill: #d82249; stroke-width: 0px;"/>
  <path d="M186.45,203.18c-.44,0-.89,0-1.33.01-1.02.38-2.34.47-3.02,1.18-9.24,9.67-19.17,18.81-27.3,29.35-5.99,7.77-9.73,17.31-14.16,26.22-1.8,3.61-.14,5.58,3.98,6.39,8.7,1.72,17.66,3.04,25.83,6.26,8.13,3.19,15.27,3.99,22.61-1.02-3.01,7.44-6.18,14.82-8.94,22.35-1.17,3.18-1.47,6.68-2.16,10.04-19.7,2.57-39.4,5.13-59.1,7.72-5.53.73-5.59-3.09-4.51-6.31,5.27-15.76,9.16-32.33,16.88-46.84,8.25-15.51,18.98-30.19,30.89-43.15,15.72-17.11,35.03-30.09,57.28-37.93,2.68-.94,5.75-.77,8.65-1.11,0,.9-.01,1.79-.02,2.69-1.33,0-2.67.02-4,.02-.9.88-1.8,1.77-2.71,2.65-2.67.46-5.35.92-8.02,1.38-2.69,1.78-5.38,3.56-8.07,5.34-.89,0-1.78.02-2.66.02-.9.89-1.8,1.77-2.7,2.66-3.13,1.79-6.25,3.58-9.38,5.37-1.34.89-2.68,1.79-4.02,2.68-.45.45-.9.89-1.35,1.34-.9.89-1.79,1.78-2.69,2.68Z" style="fill: #e12e5c; stroke-width: 0px;"/>
  <path d="M178.25,317.17c-.45,4.02-.9,8.03-1.35,12.05-1.29,4.92-2.57,9.84-3.86,14.77-18.35,6.51-36.73,12.95-55.03,19.58-4.43,1.61-7.26,4.41-6.78,10.01.57,6.63.14,13.35.14,20.04,0,2.68,0,5.37,0,8.05-1.78-.46-3.56-.92-5.34-1.37,0-1.33-.01-2.67-.02-4,0-.9-.01-1.79-.02-2.69,0-1.78-.01-3.56-.02-5.34-.12-5.11-.42-10.22-.33-15.32.35-19.22.31-38.47,1.49-57.64.52-8.41,3.63-16.65,5.56-24.97.02-1.77.04-3.55.06-5.32.88-.91,1.75-1.81,2.63-2.72.44-.89.89-1.78,1.33-2.68.9-.89,1.81-1.78,2.71-2.66-.87,3.85-1.86,7.68-2.59,11.55-2.57,13.66-5.48,27.27-7.41,41.02-.99,7.04-.17,14.34-.17,21.55.61,0,1.35.09,1.38-.01,3.45-12.49,14.77-13.44,24.48-16.32,10.83-3.21,21.78-6.25,32.88-8.22,6.09-1.08,6.92-6.22,10.27-9.36Z" style="fill: #e63a6e; stroke-width: 0px;"/>
  <path d="M284.41,172.22c-7.19.01-14.37.03-21.56.04,0-5.65,4.49-4.31,7.11-3.75,4.84,1.04,11.42-4.13,14.45,3.72Z" style="fill: #e12e5c; stroke-width: 0px;"/>
  <path d="M249.5,173.64c-4.93.9-9.86,1.81-14.78,2.71,3.67-5.04,11.21-6.42,14.78-2.71Z" style="fill: #e12e5c; stroke-width: 0px;"/>
  <path d="M195.84,184.42c4.92-2.68,9.84-5.36,14.75-8.04-4.92,2.68-9.84,5.36-14.75,8.04Z" style="fill: #e93870; stroke-width: 0px;"/>
  <path d="M292.39,162.97c4.47.89,8.94,1.78,13.41,2.67-4.78.67-9.65,1.77-13.41-2.67Z" style="fill: #e93870; stroke-width: 0px;"/>
  <path d="M296.57,173.98c-.96-.57-1.92-1.14-2.87-1.72,4.03-4.06,6.68-3.65,9.43,1.46-2.19.09-4.37.17-6.56.26Z" style="fill: #e12e5c; stroke-width: 0px;"/>
  <path d="M119.43,275.61c2.23-4.47,4.46-8.94,6.69-13.41-2.23,4.47-4.46,8.94-6.69,13.41Z" style="fill: #e63a6e; stroke-width: 0px;"/>
  <path d="M379.55,193.81c2.24,2.23,4.47,4.47,6.71,6.7-2.68-1.79-5.37-3.57-8.05-5.36,0,0,.04-.05.04-.05.44-.44.88-.87,1.32-1.31h0Z" style="fill: #ea3c78; stroke-width: 0px;"/>
  <path d="M320.55,168.34c3.58,1.78,7.17,3.56,10.75,5.34-3.58-1.78-7.17-3.56-10.75-5.34Z" style="fill: #e93870; stroke-width: 0px;"/>
  <path d="M213.26,176.36c3.13-1.78,6.27-3.56,9.4-5.34-3.13,1.78-6.27,3.56-9.4,5.34Z" style="fill: #e93870; stroke-width: 0px;"/>
  <path d="M372.86,187.09c2.24,1.78,4.48,3.56,6.72,5.35,0,0-.03.03-.03.03-.89,0-1.78,0-2.68,0-1.34-.45-2.68-.89-4.03-1.34-.01-.44-.02-.88-.04-1.31,0-.89,0-1.78,0-2.67l.04-.04Z" style="fill: #ef4c8d; stroke-width: 0px;"/>
  <path d="M249.47,165.63c2.24-.89,4.48-1.78,6.72-2.66-2.24.89-4.48,1.78-6.72,2.66Z" style="fill: #e93870; stroke-width: 0px;"/>
  <path d="M257.5,173.66c-1.35-.02-2.7-.04-4.05-.06.11-2.82.43-5.31,4.07-2.61,0,.89-.02,1.78-.03,2.68Z" style="fill: #e12e5c; stroke-width: 0px;"/>
  <path d="M372.82,187.13c0,.89,0,1.78,0,2.67-2.22-.9-4.44-1.81-6.66-2.71,2.22.01,4.45.02,6.67.04Z" style="fill: #ea3c78; stroke-width: 0px;"/>
  <path d="M281.66,162.96c1.79,0,3.58,0,5.37,0-1.79,0-3.58,0-5.37,0Z" style="fill: #e93870; stroke-width: 0px;"/>
  <path d="M372.85,191.12c1.34.45,2.68.89,4.03,1.34.45.45.9.9,1.36,1.35,0,.43,0,.87,0,1.3,0,0-.04.05-.04.05-1.78-1.35-3.57-2.69-5.35-4.04Z" style="fill: #ea3c78; stroke-width: 0px;"/>
  <path d="M273.62,162.95c1.79,0,3.58,0,5.37,0-1.79,0-3.58,0-5.37,0Z" style="fill: #e93870; stroke-width: 0px;"/>
  <path d="M228.01,170.99c1.35-.89,2.69-1.78,4.04-2.67-1.35.89-2.69,1.78-4.04,2.67Z" style="fill: #e93870; stroke-width: 0px;"/>
  <path d="M236.06,168.32c1.35-.89,2.69-1.77,4.04-2.66-1.35.89-2.69,1.77-4.04,2.66Z" style="fill: #e93870; stroke-width: 0px;"/>
  <path d="M181.06,307.79c-.35,1.38-.69,2.76-1.04,4.13.35-1.38.69-2.76,1.04-4.13Z" style="fill: #e63a6e; stroke-width: 0px;"/>
  <path d="M177.06,197.82c1.34-.89,2.68-1.79,4.03-2.68-1.34.89-2.68,1.79-4.03,2.68Z" style="fill: #e93870; stroke-width: 0px;"/>
  <path d="M190.47,188.43c1.34-.89,2.69-1.79,4.03-2.68-1.34.89-2.69,1.79-4.03,2.68Z" style="fill: #e93870; stroke-width: 0px;"/>
  <path d="M186.45,191.12c1.34-.9,2.68-1.79,4.02-2.69-1.34.89-2.68,1.79-4.02,2.69Z" style="fill: #e93870; stroke-width: 0px;"/>
  <path d="M232.03,179.04c0-.9.01-1.79.02-2.69.89,0,1.79.01,2.68.02-.9.89-1.8,1.78-2.7,2.67Z" style="fill: #dd2651; stroke-width: 0px;"/>
  <path d="M257.5,173.66c0-.89.02-1.78.03-2.68.9.44,1.79.88,2.69,1.31-.91.45-1.81.91-2.72,1.36Z" style="fill: #dd2651; stroke-width: 0px;"/>
  <path d="M265.57,162.96c.89,0,1.79,0,2.68,0-.9,0-1.79,0-2.68,0Z" style="fill: #e93870; stroke-width: 0px;"/>
  <path d="M128.81,255.5c.89-.9,1.78-1.79,2.67-2.69-.89.9-1.78,1.79-2.67,2.69Z" style="fill: #e63a6e; stroke-width: 0px;"/>
  <path d="M309.82,165.66c.9.88,1.8,1.77,2.7,2.65-.9-.88-1.8-1.77-2.7-2.65Z" style="fill: #e93870; stroke-width: 0px;"/>
  <path d="M312.51,586.97c32.28,13.27,65.41,15.27,99.27,7.49-1.1,1.84-1.76,4.29-3.36,5.44-18.77,13.43-39.53,22.15-62.39,25.71-.89,0-1.79,0-2.68,0-3.58.44-7.15.89-10.73,1.33-3.42-.45-6.89-.66-10.25-1.4-6.04-1.32-12.49-2.08-17.77-4.92-1.99-1.07-1.19-7.28-1.73-11.13-.28-1.96-.92-3.89-1.05-5.85-.45-6.47-.44-12.71,8.27-13.89.91-.12,1.62-1.82,2.42-2.79Z" style="fill: #e8336a; stroke-width: 0px;"/>
  <path d="M312.51,586.97c-.8.97-1.5,2.66-2.42,2.79-8.71,1.18-8.72,7.42-8.27,13.89.14,1.97.77,3.89,1.05,5.85.55,3.85-.26,10.06,1.73,11.13,5.28,2.84,11.73,3.6,17.77,4.92,3.36.74,6.83.95,10.25,1.4-8.01.24-16.1,1.31-24.02.56-20.23-1.92-39.66-7.31-57.8-16.62-4.94-2.54-9.16-6.48-15.38-10.99,4.97-2.28,8.35-3.27,11.07-5.19,10.5-7.42,20.79-15.14,31.15-22.75.94-.57,1.88-1.14,2.83-1.71,10.68,5.57,21.36,11.15,32.04,16.72Z" style="fill: #e93870; stroke-width: 0px;"/>
  <path d="M280.47,570.25c-.94.57-1.88,1.14-2.83,1.71-3.53.26-7.36-.25-10.53.96-4.28,1.63-7.88,4.96-12.08,6.88-7.55,3.47-15.35,6.39-23.01,9.64-2.74,1.16-5.35,2.6-8.1,3.95,2.16,3.73,3.81,6.57,5.45,9.41-1.35-.44-2.7-.89-4.05-1.33-.44,0-.88-.02-1.32-.03-1.34-.89-2.68-1.79-4.02-2.68,0,0,0,0,0,0-.9-.88-1.8-1.77-2.71-2.65-2.68-1.79-5.35-3.59-8.03-5.38-1.34-.89-2.68-1.79-4.02-2.68-1.34-.9-2.68-1.8-4.02-2.7-4.93-4.9-9.85-9.81-14.78-14.71,0,0,0,0,0,0-.89-.9-1.79-1.79-2.68-2.69-.89-.89-1.79-1.78-2.68-2.67-3.12-3.14-6.24-6.28-9.36-9.42,0,0,0,0,0,0-1.74-3.69-3.49-7.38-4.59-9.7,4.91,4.24,10.34,9.75,16.59,14.05,4.34,2.99,9.95,6.29,14.77,5.99,10.7-.68,21.34-3.23,31.87-5.61,9.26-2.09,18.33-4.99,27.48-7.54,7.54,5.73,15.09,11.46,22.63,17.19Z" style="fill: #eb427b; stroke-width: 0px;"/>
  <path d="M401.01,610.86c-1.5,1.41-2.77,3.43-4.55,4.15-11.38,4.58-22.88,8.87-34.34,13.26,1.41-1.14,2.66-2.64,4.26-3.35,10.42-4.64,20.9-9.14,31.39-13.6.97-.41,2.15-.31,3.24-.45Z" style="fill: #eb427b; stroke-width: 0px;"/>
  <path d="M478.77,516.98c-3.57,6.71-7.13,13.41-10.7,20.12,3.57-6.71,7.13-13.41,10.7-20.12Z" style="fill: #eb427b; stroke-width: 0px;"/>
  <path d="M359.44,628.27c-6.26,1.34-12.51,2.68-18.77,4.01,1.04-.88,1.99-2.37,3.12-2.52,5.19-.7,10.43-1.03,15.65-1.49Z" style="fill: #eb427b; stroke-width: 0px;"/>
  <path d="M418.44,598.79c-5.36,4.02-10.73,8.03-16.09,12.05,5.36-4.02,10.73-8.03,16.09-12.05Z" style="fill: #eb427b; stroke-width: 0px;"/>
  <path d="M241.46,612.15c-3.14-2.21-6.28-4.42-9.42-6.64,3.87,1.18,8.7,1,9.42,6.64Z" style="fill: #ec4d86; stroke-width: 0px;"/>
  <path d="M309.83,632.29c-2.68-.89-5.37-1.77-8.05-2.66,2.68.89,5.37,1.77,8.05,2.66Z" style="fill: #eb427b; stroke-width: 0px;"/>
  <path d="M468.05,539.78c-1.78,2.68-3.57,5.36-5.35,8.04,1.78-2.68,3.57-5.36,5.35-8.04Z" style="fill: #eb427b; stroke-width: 0px;"/>
  <path d="M327.25,632.3c-1.79-.44-3.59-.87-5.38-1.31,1.79.44,3.59.87,5.38,1.31Z" style="fill: #eb427b; stroke-width: 0px;"/>
  <path d="M319.23,630.99c-1.79.43-3.59.87-5.38,1.3,1.79-.43,3.59-.87,5.38-1.3Z" style="fill: #eb427b; stroke-width: 0px;"/>
  <path d="M299.1,629.63c-1.79-.44-3.58-.89-5.36-1.33,1.79.44,3.58.89,5.36,1.33Z" style="fill: #eb427b; stroke-width: 0px;"/>
  <path d="M425.15,593.42c-1.34,1.34-2.68,2.67-4.02,4.01,1.34-1.34,2.68-2.67,4.02-4.01Z" style="fill: #eb427b; stroke-width: 0px;"/>
  <path d="M490.83,475.41c-.88,1.35-1.76,2.69-2.64,4.04.88-1.35,1.76-2.69,2.64-4.04Z" style="fill: #eb427b; stroke-width: 0px;"/>
  <path d="M496.14,449.92c.02.9.04,1.79.06,2.69-1.33.01-2.65.02-3.98.03,1.31-.91,2.61-1.81,3.92-2.72Z" style="fill: #eb427b; stroke-width: 0px;"/>
  <path d="M493.55,464.68c-.89,0-1.78.01-2.68.02.88-1.35,1.76-2.69,2.64-4.04.01,1.34.02,2.68.04,4.02Z" style="fill: #eb427b; stroke-width: 0px;"/>
  <path d="M458.67,554.54c-.89,1.34-1.78,2.68-2.67,4.01.89-1.34,1.78-2.68,2.67-4.01Z" style="fill: #eb427b; stroke-width: 0px;"/>
  <path d="M454.64,561.24c-.89,1.34-1.78,2.67-2.68,4.01.89-1.34,1.78-2.67,2.68-4.01Z" style="fill: #eb427b; stroke-width: 0px;"/>
  <path d="M225.33,601.48c1.35.44,2.7.89,4.05,1.33,0,.44,0,.89,0,1.33-1.35-.89-2.69-1.77-4.04-2.66Z" style="fill: #ec4d86; stroke-width: 0px;"/>
  <path d="M469.33,321.37c-.54-1.36-1.09-2.72-1.63-4.08.54,1.36,1.09,2.72,1.63,4.08Z" style="fill: #e8336a; stroke-width: 0px;"/>
  <path d="M445.25,573.31c-.89.89-1.78,1.79-2.67,2.68.89-.89,1.78-1.79,2.67-2.68Z" style="fill: #eb427b; stroke-width: 0px;"/>
  <path d="M343.35,625.61c.89,0,1.79,0,2.68,0-.89,0-1.79,0-2.68,0Z" style="fill: #e93870; stroke-width: 0px;"/>
  <path d="M287.03,628.26c-.9-.88-1.8-1.77-2.7-2.65.9.88,1.8,1.77,2.7,2.65Z" style="fill: #eb427b; stroke-width: 0px;"/>
  <path d="M277.65,625.58c-.9-.88-1.8-1.76-2.7-2.65.9.88,1.8,1.76,2.7,2.65Z" style="fill: #eb427b; stroke-width: 0px;"/>
  <path d="M488.15,487.48c-.44.89-.89,1.79-1.33,2.68.44-.89.89-1.79,1.33-2.68Z" style="fill: #eb427b; stroke-width: 0px;"/>
  <path d="M486.82,492.84c-.45.89-.89,1.79-1.34,2.68.45-.89.89-1.79,1.34-2.68Z" style="fill: #eb427b; stroke-width: 0px;"/>
  <path d="M462.68,549.17c-.89.89-1.77,1.79-2.66,2.68.89-.89,1.77-1.79,2.66-2.68Z" style="fill: #eb427b; stroke-width: 0px;"/>
  <path d="M465.69,313.13c-.23-.8-.46-1.6-.69-2.39.84.36,1.67.72,2.51,1.08-.61.44-1.22.88-1.82,1.32Z" style="fill: #e8336a; stroke-width: 0px;"/>
  <path d="M415.73,222.05c-.1.17-.21.34-.31.52.09-.19.18-.38.26-.57,0,0,.05.05.05.05Z" style="fill: #eb427b; stroke-width: 0px;"/>
  <path d="M606.13,243.44c.03,1.32.06,2.64.09,3.95,2.03,6.76,4.26,13.47,6.06,20.29,6.05,22.93,12.48,45.79,17.63,68.92,1.83,8.2.51,17.13.35,25.72-.02,1.06-1.7,2.09-2.62,3.14-2.65-11.42-4.8-22.98-8.06-34.23-6.77-23.39-13.37-46.87-21.4-69.84-13.27-37.96-32.96-72.8-54.34-106.72-.77-1.22-1.15-2.69-.47-5.22,2.74,2.5,5.43,5.08,8.25,7.49,2.46,2.1,5.07,4.02,7.62,6.02,0,0,0,0,0,0,.89,1.34,1.79,2.68,2.68,4.02,2.67,2.69,5.33,5.37,8,8.06.91,1.79,1.82,3.58,2.73,5.36,1.78,2.68,3.56,5.36,5.33,8.04.01.44.02.89.03,1.33.88.9,1.76,1.8,2.64,2.69.92,2.67,1.83,5.33,2.75,8,.4,1.26.65,2.6,1.23,3.77,5.81,11.73,11.61,23.47,17.59,35.12.82,1.6,2.58,2.72,3.9,4.06Z" style="fill: #f27ba2; stroke-width: 0px;"/>
  <path d="M521.7,107.98c4.65,5.29,9.29,10.58,13.97,15.85,2.47,2.78,4.99,5.52,7.49,8.28,1.46,2.6,3.11,5.11,4.29,7.82.74,1.7.77,3.71,1.11,5.58-8.42-10.87-16.88-21.71-25.2-32.67-.98-1.3-1.13-3.23-1.67-4.87Z" style="fill: #f15899; stroke-width: 0px;"/>
  <path d="M559.25,160.28l2.69,4.02s-.02.01-.02.01l-2.68-1.34s0,0,0,0c0-.9,0-1.79.01-2.69Z" style="fill: #f1709b; stroke-width: 0px;"/>
  <path d="M639.72,372.16c.61.23,1.74.44,1.75.69.35,8.26.59,16.53.84,24.8-.87-8.5-1.73-17-2.59-25.5Z" style="fill: #e84f86; stroke-width: 0px;"/>
  <path d="M642.39,425.79c-.04,3.14-.07,6.28-.11,9.42-.42-3.14-.85-6.28-1.27-9.41.46,0,.92,0,1.38,0Z" style="fill: #e84f86; stroke-width: 0px;"/>
  <path d="M642.39,425.79c-.46,0-.92,0-1.38,0,.44-.91.87-1.83,1.31-2.74.02.91.05,1.82.07,2.73Z" style="fill: #ec558d; stroke-width: 0px;"/>
  <path d="M641.05,444.57c1.47,3,3.33,6.06-1.32,8.05.44-2.68.88-5.37,1.32-8.05Z" style="fill: #e84f86; stroke-width: 0px;"/>
  <path d="M378.24,193.81c-.45-.45-.9-.9-1.36-1.35.89,0,1.78,0,2.68,0,0,.45,0,.89,0,1.34,0,0,0,0,0,0-.44,0-.88,0-1.32,0Z" style="fill: #eb427b; stroke-width: 0px;"/>
  <path d="M257.83,553.06c-9.15,2.54-18.23,5.44-27.48,7.54-10.53,2.38-21.17,4.93-31.87,5.61-4.82.31-10.43-3-14.77-5.99-6.25-4.3-11.68-9.81-16.59-14.05,1.1,2.32,2.84,6.01,4.59,9.7-4.91-4.92-9.83-9.84-14.74-14.76-3.55-5.99-7.46-11.8-10.58-18-6.11-12.19-11.79-24.59-17.64-36.91-.44-1.8-.87-3.6-1.31-5.4.9,0,1.81,0,2.71,0,1.21,1.14,2.85,2.06,3.55,3.46,3.58,7.17,6.79,14.53,10.37,21.7,8.21,16.44,19.4,26.7,39.83,27.76,18.43.95,36.85-4.37,55.11.61,6.27,6.25,12.54,12.5,18.81,18.75Z" style="fill: #ec4d86; stroke-width: 0px;"/>
  <path d="M128.75,486.19c5.86,12.32,11.53,24.72,17.64,36.91,3.11,6.21,7.02,12.02,10.58,18,.39,1.89.77,3.77,1.15,5.66-.55.42-1.09.84-1.64,1.26-4.06-4.55-8.5-8.82-12.11-13.7-23.83-32.18-38.04-68.48-44.76-107.73-1.31-7.67-.28-15.73-.33-23.61,2.22,5.24,4.77,10.37,6.59,15.74,2.57,7.62,4.6,15.43,6.86,23.15.01.89.02,1.78.04,2.66,2.19,5.39,4.38,10.78,6.57,16.17.45,1.77.9,3.54,1.36,5.31.9,2.24,1.8,4.49,2.69,6.73.45,1.33.9,2.67,1.34,4l4.02,9.43Z" style="fill: #f1709b; stroke-width: 0px;"/>
  <path d="M112.74,441.87c-2.26-7.73-4.29-15.53-6.86-23.15-1.81-5.38-4.36-10.5-6.59-15.74-.89-16.53-1.79-33.06-2.68-49.59.44-1.34.88-2.69,1.32-4.03.88-.91,1.76-1.81,2.64-2.72.92,12.81,1.79,25.63,2.87,38.43.1,1.13,1.65,2.14,2.52,3.21,0,1.78.01,3.56.02,5.34,0,.9.01,1.79.02,2.69,0,1.33.01,2.67.02,4,2.22,11.85,4.49,23.7,6.61,35.57.35,1.95.08,4.01.1,6.01Z" style="fill: #ec558d; stroke-width: 0px;"/>
  <path d="M105.97,388.27c-.88-1.07-2.43-2.08-2.52-3.21-1.09-12.8-1.95-25.62-2.87-38.43,0-2.21,0-4.42.01-6.63,0-1.36,0-2.71.01-4.07,0-1.78,0-3.57,0-5.35,1.35-6.26,2.69-12.52,4.04-18.78l.02-2.67c1.37-4.26,2.55-8.59,4.2-12.74.86-2.18,2.53-4.04,3.84-6.04-1.93,8.32-5.04,16.57-5.56,24.97-1.18,19.17-1.14,38.42-1.49,57.64-.09,5.1.21,10.21.33,15.32Z" style="fill: #e9477b; stroke-width: 0px;"/>
  <path d="M186.44,570.64c4.93,4.9,9.85,9.81,14.78,14.71-5.88-3.95-12.82-6.83-14.78-14.71Z" style="fill: #ec4d86; stroke-width: 0px;"/>
  <path d="M104.62,311.8c-1.35,6.26-2.69,12.52-4.04,18.78-.44-1.34-.87-2.68-1.31-4.02.44-.9.89-1.79,1.33-2.69,0-1.78.01-3.57.02-5.35.44-.9.88-1.79,1.33-2.69,0-1.34,0-2.68.01-4.01.89,0,1.77,0,2.66,0Z" style="fill: #f05193; stroke-width: 0px;"/>
  <path d="M171.71,555.87c3.12,3.14,6.24,6.28,9.36,9.42-3.12-3.14-6.24-6.28-9.36-9.42Z" style="fill: #ec4d86; stroke-width: 0px;"/>
  <path d="M104.62,311.8c-.89,0-1.77,0-2.66,0,.44-1.34.89-2.69,1.33-4.03.45.45.9.9,1.35,1.34,0,.89-.01,1.78-.02,2.67Z" style="fill: #f15899; stroke-width: 0px;"/>
  <path d="M97.93,349.35c-.44,1.34-.88,2.69-1.32,4.03.44-1.34.88-2.69,1.32-4.03Z" style="fill: #f15899; stroke-width: 0px;"/>
  <path d="M100.59,335.93c0,1.36,0,2.71-.01,4.07-.8-.79-1.6-1.57-2.39-2.36.8-.57,1.6-1.14,2.41-1.71Z" style="fill: #f05193; stroke-width: 0px;"/>
  <path d="M205.24,588.05c1.34.89,2.68,1.79,4.02,2.68-1.34-.44-2.69-.89-4.03-1.33,0-.45,0-.9.01-1.35Z" style="fill: #ec4d86; stroke-width: 0px;"/>
  <path d="M183.76,567.95c.89.9,1.79,1.79,2.68,2.69-.89-.9-1.79-1.79-2.68-2.69Z" style="fill: #ec4d86; stroke-width: 0px;"/>
  <path d="M100.61,323.87c-.44.9-.89,1.79-1.33,2.69.44-.9.89-1.79,1.33-2.69Z" style="fill: #f15899; stroke-width: 0px;"/>
  <path d="M101.96,315.83c-.44.9-.88,1.79-1.33,2.69.44-.9.88-1.79,1.33-2.69Z" style="fill: #f15899; stroke-width: 0px;"/>
  <path d="M430.52,879.05c-3.13-1.34-6.26-2.68-9.39-4.01,3.13,1.34,6.26,2.68,9.39,4.01Z" style="fill: #f15899; stroke-width: 0px;"/>
  <path d="M414.43,875.03c-2.69-1.34-5.37-2.67-8.06-4.01,2.69,1.34,5.37,2.67,8.06,4.01Z" style="fill: #f15899; stroke-width: 0px;"/>
  <path d="M399.68,871.01l-2.69-1.34,2.69,1.34Z" style="fill: #f15899; stroke-width: 0px;"/>
  <path d="M213.27,170.98c1.57-1.34,2.94-3.37,4.74-3.88,5.93-1.68,12.03-2.82,18.06-4.16-7.6,2.68-15.2,5.36-22.8,8.04Z" style="fill: #ef4c8d; stroke-width: 0px;"/>
  <path d="M187.79,184.4c2.24-1.78,4.48-3.56,6.72-5.34-2.24,1.78-4.48,3.56-6.72,5.34Z" style="fill: #ef4c8d; stroke-width: 0px;"/>
  <path d="M198.52,177.7c2.24-1.34,4.47-2.68,6.71-4.01-2.24,1.34-4.47,2.68-6.71,4.01Z" style="fill: #ef4c8d; stroke-width: 0px;"/>
  <path d="M206.56,173.67c.9-.88,1.81-1.77,2.71-2.65-.9.88-1.81,1.77-2.71,2.65Z" style="fill: #ef4c8d; stroke-width: 0px;"/>
  <path d="M115.37,282.3c-.88.91-1.75,1.81-2.63,2.72.88-.91,1.75-1.81,2.63-2.72Z" style="fill: #e9477b; stroke-width: 0px;"/>
  <path d="M606.13,243.44c-1.32-1.34-3.08-2.46-3.9-4.06-5.98-11.65-11.78-23.38-17.59-35.12-.58-1.17-.83-2.51-1.23-3.77,2.18,2.29,5.04,4.24,6.41,6.94,4.51,8.87,8.46,18.02,12.72,27.02.44.92,1.51,1.54,2.29,2.3.43,2.23.87,4.47,1.3,6.7Z" style="fill: #f1709b; stroke-width: 0px;"/>
  <path d="M569.93,175.05c-2.67-2.69-5.33-5.37-8-8.06,0-.89,0-1.79,0-2.68,0,0,.02-.01.02-.01,2.66,3.58,5.33,7.17,7.99,10.75Z" style="fill: #f1709b; stroke-width: 0px;"/>
  <path d="M577.99,188.46c-1.78-2.68-3.56-5.36-5.33-8.04,1.78,2.68,3.56,5.36,5.33,8.04Z" style="fill: #f1709b; stroke-width: 0px;"/>
  <path d="M580.66,192.48c-.88-.9-1.76-1.8-2.64-2.69.88.9,1.76,1.8,2.64,2.69Z" style="fill: #f1709b; stroke-width: 0px;"/>
  <path d="M347.38,766.4c.37.48.74.96,1.12,1.44-.81-.01-1.62-.03-2.43-.04.44-.46.88-.93,1.31-1.4Z" style="fill: #f05494; stroke-width: 0px;"/>
  <path d="M350.14,794.54c2.22,2.28,5.67,4.21,6.45,6.91,2.78,9.53,4.7,19.31,6.79,29.04.18.86-.75,1.95-1.17,2.94-2.72-8.05-4.41-16.67-8.51-23.94-2.85-5.05-3.81-9.62-3.56-14.95Z" style="fill: #e9477b; stroke-width: 0px;"/>
  <path d="M219.99,598.77c1.34.89,2.68,1.79,4.02,2.68-1.34-.89-2.68-1.79-4.02-2.68Z" style="fill: #ec4d86; stroke-width: 0px;"/>
  <path d="M217.29,596.11c.9.88,1.8,1.77,2.71,2.65-.9-.88-1.8-1.77-2.71-2.65Z" style="fill: #ec4d86; stroke-width: 0px;"/>
  <path d="M239.02,534.31c-18.26-4.98-36.68.35-55.11-.61-20.43-1.06-31.62-11.32-39.83-27.76-3.58-7.17-6.79-14.53-10.37-21.7-.7-1.4-2.34-2.32-3.55-3.46-.46-3.57-.92-7.15-1.38-10.72-.35-1.73-.85-3.45-1.03-5.21-.68-6.48-1.57-12.8,5.96-16.68,5.46-2.81,10.8-6.16,15.42-10.17,6.73-5.84,12.86-12.41,19.07-18.83,3.42-3.53,7.31-6.14,5.68-12.99-2.06-8.65-1.89-17.92-1.92-26.93-.01-3.66-3.1-8.57,2.55-11.11,1.66,14.37,2.55,28.88,5.12,43.08,7.26,40.16,23.35,76.6,48.2,109.07,3.63,4.75,7.46,9.34,11.19,14.01Z" style="fill: #ec558d; stroke-width: 0px;"/>
  <path d="M174.51,368.14c-5.65,2.54-2.56,7.45-2.55,11.11.03,9.01-.14,18.28,1.92,26.93,1.63,6.85-2.26,9.46-5.68,12.99-6.22,6.42-12.34,12.98-19.07,18.83-4.62,4.01-9.97,7.37-15.42,10.17-7.53,3.88-6.64,10.2-5.96,16.68.18,1.75.68,3.47,1.03,5.21-1.11-1.8-2.68-3.47-3.27-5.43-2.63-8.85-5.38-17.7-7.35-26.71-2.62-12-4.56-24.16-6.8-36.24,0-2.68,0-5.37,0-8.05,3.65-2.93,6.89-6.73,11.01-8.63,14.08-6.49,28.54-12.15,42.66-18.55,2.66-1.21,5.67-4.03,6.38-6.68,1.35-5.03,1.17-10.48,1.62-15.76,1.29-4.92,2.57-9.84,3.86-14.77-.79,12.97-1.59,25.95-2.38,38.92Z" style="fill: #e84f86; stroke-width: 0px;"/>
  <path d="M193.06,271.58c-7.34,5.01-14.49,4.21-22.61,1.02-8.17-3.21-17.13-4.53-25.83-6.26-4.11-.81-5.77-2.78-3.98-6.39,4.43-8.91,8.17-18.45,14.16-26.22,8.12-10.54,18.06-19.68,27.3-29.35.68-.71,2-.8,3.02-1.18-2.1,3.33-4.26,6.62-6.27,10-1.97,3.32-2.76,5.6,1.91,8.4,6.22,3.73,12.18,8.62,16.7,14.26,4.1,5.12,8.23,4.66,13.24,3.58-5.88,10.71-11.75,21.43-17.63,32.14Z" style="fill: #dd2651; stroke-width: 0px;"/>
  <path d="M209.24,188.43c2.69-1.78,5.38-3.56,8.07-5.34-2.69,1.78-5.38,3.56-8.07,5.34Z" style="fill: #dd2651; stroke-width: 0px;"/>
  <path d="M190.48,199.17c1.34-.89,2.68-1.79,4.02-2.68-1.34.89-2.68,1.79-4.02,2.68Z" style="fill: #dd2651; stroke-width: 0px;"/>
  <path d="M225.32,181.72c.9-.88,1.8-1.77,2.71-2.65-.9.88-1.8,1.77-2.71,2.65Z" style="fill: #dd2651; stroke-width: 0px;"/>
  <path d="M186.45,203.18c.9-.89,1.79-1.78,2.69-2.68-.9.89-1.79,1.78-2.69,2.68Z" style="fill: #dd2651; stroke-width: 0px;"/>
  <path d="M203.88,191.12c.9-.89,1.8-1.77,2.7-2.66-.9.89-1.8,1.77-2.7,2.66Z" style="fill: #dd2651; stroke-width: 0px;"/>
  <path d="M173.03,343.99c-.45,5.28-.26,10.73-1.62,15.76-.71,2.65-3.71,5.48-6.38,6.68-14.12,6.4-28.59,12.06-42.66,18.55-4.12,1.9-7.37,5.7-11.01,8.63,0-6.68.43-13.4-.14-20.04-.48-5.6,2.35-8.4,6.78-10.01,18.3-6.64,36.68-13.07,55.03-19.58Z" style="fill: #e9477b; stroke-width: 0px;"/>
  <path d="M111.37,401.67c2.23,12.09,4.17,24.24,6.8,36.24,1.97,9.01,4.71,17.86,7.35,26.71.58,1.96,2.15,3.63,3.27,5.43.46,3.57.92,7.15,1.38,10.72-.9,0-1.81,0-2.71,0-.9-1.34-1.81-2.68-2.71-4.03-.45-1.33-.9-2.67-1.34-4-.9-2.24-1.8-4.49-2.69-6.73-.45-1.77-.9-3.54-1.36-5.31-2.19-5.39-4.38-10.78-6.57-16.17-.01-.89-.02-1.78-.04-2.66-.02-2.01.25-4.07-.1-6.01-2.13-11.87-4.39-23.71-6.61-35.57,1.78.46,3.56.92,5.34,1.37Z" style="fill: #e9477b; stroke-width: 0px;"/>
  <path d="M106.01,396.3c0-.9-.01-1.79-.02-2.69,0,.9.01,1.79.02,2.69Z" style="fill: #e9477b; stroke-width: 0px;"/>
  <path d="M378.24,193.81c.44,0,.88,0,1.32,0-.44.44-.88.87-1.32,1.31,0-.43,0-.87,0-1.3Z" style="fill: #ef4c8d; stroke-width: 0px;"/>
  <path d="M561.92,164.31c0,.89,0,1.79,0,2.68-.89-1.34-1.79-2.68-2.68-4.02.89.45,1.78.89,2.68,1.34Z" style="fill: #f36ea2; stroke-width: 0px;"/>
  <path d="M124.74,476.76c.9,1.34,1.81,2.68,2.71,4.03.44,1.8.87,3.6,1.31,5.4-1.34-3.14-2.68-6.29-4.02-9.43Z" style="fill: #ec558d; stroke-width: 0px;"/>
  <path d="M112.77,444.54c2.19,5.39,4.38,10.78,6.57,16.17-2.19-5.39-4.38-10.78-6.57-16.17Z" style="fill: #ec558d; stroke-width: 0px;"/>
  <path d="M120.7,466.03c.9,2.24,1.8,4.49,2.69,6.73-.9-2.24-1.8-4.49-2.69-6.73Z" style="fill: #ec558d; stroke-width: 0px;"/>
</svg>