<?xml version="1.0" encoding="UTF-8"?>
<svg id="Layer_1" data-name="Layer 1" xmlns="http://www.w3.org/2000/svg" viewBox="0 0 494.81 598.75">
  <path d="M268.3,553.85c.5.24,1,.48,1.49.72,8.52,4.17,17.27,4.19,26.19,1.53,1.27-.45,2.55-.91,3.82-1.36,1.89-1.25,3.78-2.51,5.67-3.76.33-.29.66-.59,1-.88.85-1.45,1.7-2.9,2.54-4.36.15-.78.31-1.55.46-2.33-.19-2.05-.08-4.19-.63-6.14-1.13-4-2.61-7.9-3.94-11.85-.54-6.74,1.03-13.12,3.26-19.39,2.7-3.98,5.4-7.96,8.1-11.93,4.23-3.31,8.46-6.63,12.69-9.94.76-.01,1.52-.02,2.28-.03,3.52-.73,7.2-.96,9.87,1.66,3.19,3.12,5.92,6.75,8.62,10.33,1.38,1.83,2.27,4.03,3.38,6.07.43.79.86,1.57,1.29,2.36-.03.26.05.47.25.63,4.52,8.94,8.72,18.06,13.69,26.75,2.98,5.2,7.15,9.73,10.78,14.55.85.95,1.71,1.91,2.56,2.86,1.66,7.76,3.31,15.53,4.97,23.29l3.68,9.12c1.82,2.94,3.64,5.88,5.46,8.82,2.89,2.36,5.48,5.4,8.77,6.9,3.73,1.71,8.1,2.16,11.48-1.58,1.36-.76,2.72-1.51,4.08-2.27.63-.67,1.27-1.34,1.9-2.01.93-2.08,1.87-4.16,2.8-6.24.5-1.25,1-2.5,1.5-3.75.19-4.74.37-9.49.56-14.23,0-2.49,0-4.98-.01-7.46-.19-22.29-.67-44.59-.48-66.88.17-20.91,1.04-41.82,1.61-62.72.24-.53.7-1.05.7-1.58.2-12.47.35-24.95.51-37.42.21-25.5.43-51,.64-76.49,1.13-1.7,2.27-3.41,3.4-5.11,1.39-1.57,2.58-3.37,4.2-4.66,5.93-4.73,12.11-9.15,17.97-13.96,6.29-5.16,12.32-10.63,18.46-15.97,1.98-2.47,3.95-4.93,5.93-7.4.18-.2.37-.4.55-.6.56-.63,1.12-1.25,1.69-1.88,5.87-6.98,9.94-14.86,11.84-23.81,1.11-4.16,1.63-8.29-.79-12.22-1.95-4.17-5.79-5.16-9.81-5.87-3.92-.43-7.9-1.46-11.76-1.16-11,.86-21.94,2.36-32.93,3.37-2.61.24-5.3-.44-7.95-.7-.46-29.86,2.75-59.96-5.75-89.27-2.4-8.26-5.45-16.34-8.21-24.5-2.52-5.25-4.79-10.63-7.61-15.71-8.1-14.63-17.81-28.1-29.88-39.77-6.49-5.77-12.98-11.54-19.47-17.3-3-1.99-5.99-3.98-8.99-5.96-6.25-3.75-12.5-7.49-18.75-11.23-.53-.49-.98-1.21-1.61-1.44-11.44-4.23-22.9-8.4-34.36-12.59-1.36-.56-2.67-1.32-4.08-1.63-4.78-1.04-9.57-2.08-14.4-2.8-6.3-.94-12.66-1.58-18.99-2.35-8.41-.01-16.89-.68-25.22.13-9.41.93-18.7,3.19-28.04,4.87-.99.1-2.02.07-2.97.33-16.9,4.76-33.44,10.58-48.23,20.16-10.07,6.52-19.71,13.8-29.05,21.35-11.58,9.36-21.09,20.71-29.19,33.21-1.65,2.32-3.62,4.48-4.9,6.99-5.5,10.85-10.79,21.8-16.15,32.71-4.3,10.09-7.29,20.53-8.13,31.51-.7,7.74-1.41,15.49-2.11,23.23-.24,9.53-.5,19.05-.7,28.58-.12,5.7-.13,11.4-.19,17.1-1.01,2.45-2.01,4.9-3.02,7.35-1.27,1.52-2.55,3.05-3.82,4.57-6.33,4.59-12.79,9.02-18.96,13.82-9.3,7.23-18.67,14.43-27.48,22.23-4.51,3.99-7.94,9.24-8.93,15.57-.49,3.05-.98,6.1-1.47,9.15.46,2.77.91,5.54,1.37,8.31.1.49.2.98.29,1.48.57,2,1.13,4,1.7,6,1.77,2.75,3.53,5.5,5.3,8.24,4.52,5.56,10.44,8.11,17.44,6.92,7.19-1.22,14.3-3.02,21.37-4.84,4.05-1.04,7.59-.36,10.97,1.87.48.7.95,1.4,1.43,2.1.26.56.56,1.11.78,1.69,3.45,9.1,3.2,18.71,3.95,28.19.3,9.99.59,19.99.89,29.98.2,10.99.41,21.97.61,32.96.2,3.56.38,7.11.59,10.67.24,3.94.51,7.87.77,11.8.26,4.25.51,8.49.77,12.74.72,7.76,1.44,15.51,2.16,23.27,1.31,7.98,2.62,15.96,3.93,23.94,1.41,4.34,2.81,8.68,4.22,13.02,1.05,1.92,2.1,3.85,3.14,5.77.43.6.86,1.21,1.3,1.81.58.62,1.15,1.25,1.73,1.87,4.47,3.19,6.42,3.06,10.25-.68l2.55-2.97c.77-1.47,1.55-2.93,2.32-4.4,1.47-5.29,2.93-10.59,4.4-15.88,1.32,2.73,2.63,5.46,3.95,8.19,2.1,5.26,4.19,10.51,6.29,15.77,3.02,6.49,6.05,12.97,9.07,19.46,2.73,4.82,5.46,9.65,8.19,14.47,1.69,2.44,3.38,4.88,5.07,7.33,2.12,2.47,4.25,4.94,6.37,7.41,2.5,2.21,5.01,4.43,7.51,6.64l6.02,3.71c7.42,3.76,15.02,5.79,23.18,2.41,1.58-1.04,3.15-2.08,4.73-3.12.95-1.16,1.91-2.33,2.86-3.49.75-1.79,1.49-3.58,2.24-5.37.28-1.74.55-3.48.83-5.22.04-1.51.07-3.01.11-4.52-1.1-5.85-2.04-11.73-3.34-17.53-2.38-10.67-4.97-21.3-7.47-31.95-.16-2.76-.32-5.52-.48-8.27.11-1.24.22-2.49.33-3.73.61-2.22,1.22-4.44,1.83-6.66,1.21-1.72,2.43-3.43,3.64-5.15,3.94-3.12,7.78-6.44,13.31-6.08.34.46.68.92,1.02,1.38,2.14,2.86,4.28,5.73,6.42,8.59,2.03,2.41,4.06,4.81,6.08,7.22,3.67,4,7.12,8.22,11.05,11.94,8.85,8.37,18.8,14.94,30.99,17.45.93,3.47,1.86,6.93,2.79,10.4l1.08,3.17c.37.95.75,1.89,1.12,2.84.79,1.26,1.57,2.52,2.36,3.77v-.04c.42.49.83.98,1.24,1.47.79.74,1.57,1.48,2.36,2.22,1.1.71,2.21,1.43,3.31,2.14Z" style="fill: #fefefe; stroke-width: 0px;"/>
  <path d="M64.57,174.78c.7-7.74,1.41-15.49,2.11-23.23.99-.94,1.98-1.87,3.01-2.84.37.21.79.31.98.58,5.7,7.84,10.05,16.31,12.65,25.7.64,2.32,2.32,4.36,3.51,6.54.07,6.23.14,12.47.22,18.7.15,11.2,1.64,22.11,5.06,32.89,3.81,12,10.15,21.37,22.2,26.12-.25,1.09-.95,2.31-.66,3.24,1.39,4.56,2.87,9.11,4.63,13.54,1.99,5.03,4.52,9.86,6.41,14.92,1.03,2.75,2.19,5.1,4.63,6.88,1.12.82,1.62,2.44,2.52,3.62,3.08,4.07,3.56,9.87,8.54,12.7.63.36,1.19,1.43,1.19,2.17,0,2.56,1.36,3.15,3.59,3.11,2.31-.04,3.99.65,5.39,3.01,1.03,1.74,3.7,2.51,5.64,3.7,2.03,1.24,4.03,2.53,6.12,3.66.96.52,2.19,1.12,3.16.93,6.28-1.19,12.58-2.36,18.74-4.06,2.03-.56,4.13-2.34,5.32-4.14,1.74-2.63,3.24-4.88,6.83-4.7.71.03,2.1-.87,2.11-1.37.07-4.63,2.32-7.71,6.36-9.66.11-.05.19-.16.26-.27,2.77-4.31,5.54-8.62,8.31-12.94,1.87-2.91,3.72-5.84,5.61-8.74,2.41-3.69,4.96-7.28,7.24-11.04,1.26-2.07,2.16-4.36,3.11-6.6.56-1.32.84-2.76,1.33-4.12.4-1.09.66-2.42,1.45-3.14,3.57-3.26,4.86-6.85,3.42-10.88,1.63-.77,3.29-1.55,4.95-2.34.25.03.5.07.75.1,1.07,1.02,2.08,2.12,3.23,3.04,10,8.04,21.52,11.78,34.27,11.99-.47,2.28-.74,4.63-1.45,6.83-2.67,8.29-5.41,16.57-8.28,24.8-2.7,7.73-8.33,14.26-9.35,22.71-.08.68-.65,1.33-1.06,1.95-2.04,3.08-4.15,6.11-6.1,9.25-.46.75-.32,1.86-.54,2.78-.3,1.31-.63,2.62-1.03,3.9-1.03,3.31-5.39,5.5-2.85,10.28-6.16.4-6.25,5.99-7.14,9.4-1.39,5.33-5.69,8.53-7.4,13.37-.64,1.83-1.65,3.64-2.89,5.12-4.11,4.89-9.07,9.17-10.67,15.76-4.51,1.97-7.52,5.37-9.79,9.69-.78,1.48-2.91,2.18-3.94,3.59-1.96,2.68-3.16,6-5.41,8.36-3.33,3.49-8.03,5.24-11.45,9.03-2.41,2.66-7.13,3.01-10.47,5.46-2.47,1.81-5.95,2.56-9.21.74-.59-.33-1.51-.54-2.11-.34-5.55,1.91-10.76,1.59-15.57-2.05-.37-.28-.94-.27-1.39-.45-2.02-.81-4.02-1.65-6.03-2.47.12-.32.24-.64.36-.96-.97.06-2.4.55-2.82.1-2.96-3.18-5.72-6.55-8.51-9.88-.21-.25-.26-.73-.21-1.08.6-3.76-1.22-5.8-4.63-6.91-.56-.18-1.05-1-1.3-1.64-2.01-4.98-3.95-9.98-5.95-14.97-.17-.43-.69-.72-.92-1.14-.75-1.38-2.1-2.82-2.03-4.18.17-3.8-1.42-6.71-3.58-9.53-.51-.67-1.09-1.64-.98-2.37,1.05-6.87-3.98-12-5.12-18.29-1.13-6.26-3.55-12.28-5.22-18.45-2.94-10.87-5.77-21.76-8.6-32.66-1.03-3.95-2.05-7.92-2.83-11.92-.5-2.59-.39-5.29-.86-7.88-.87-4.9-2-9.75-2.95-14.63-.8-4.11-1.53-8.24-2.26-12.36-.52-2.92-1.09-5.84-1.48-8.78-1.04-7.89-1.91-15.8-3.04-23.67-.46-3.19-1.74-6.26-2.16-9.44-1.44-11.07-4.49-21.61-9.24-31.72-1.35-2.88-2.89-3.79-5.72-2.43Z" style="fill: #b4b4b4; stroke-width: 0px;"/>
  <path d="M64.57,174.78c2.83-1.36,4.37-.45,5.72,2.43,4.75,10.11,7.8,20.65,9.24,31.72.41,3.19,1.7,6.26,2.16,9.44,1.14,7.87,2,15.78,3.04,23.67.39,2.94.96,5.86,1.48,8.78.73,4.12,1.46,8.25,2.26,12.36.95,4.88,2.08,9.73,2.95,14.63.46,2.6.35,5.3.86,7.88.78,4.01,1.8,7.97,2.83,11.92,2.83,10.9,5.66,21.79,8.6,32.66,1.67,6.17,4.09,12.19,5.22,18.45,1.14,6.29,6.17,11.42,5.12,18.29-.11.73.47,1.7.98,2.37,2.16,2.83,3.75,5.73,3.58,9.53-.06,1.36,1.28,2.8,2.03,4.18.23.42.75.71.92,1.14,2,4.98,3.94,9.99,5.95,14.97.26.63.74,1.45,1.3,1.64,3.41,1.11,5.23,3.16,4.63,6.91-.06.35,0,.83.21,1.08,2.79,3.34,5.55,6.7,8.51,9.88.42.45,1.86-.04,2.82-.1-.12.32-.24.64-.36.96,2.01.83,4.02,1.66,6.03,2.47.45.18,1.03.17,1.39.45,4.81,3.64,10.02,3.96,15.57,2.05.6-.21,1.52,0,2.11.34,3.26,1.82,6.74,1.07,9.21-.74,3.34-2.45,8.06-2.79,10.47-5.46,3.43-3.79,8.13-5.54,11.45-9.03,2.25-2.36,3.45-5.68,5.41-8.36,1.03-1.41,3.16-2.12,3.94-3.59,2.28-4.32,5.28-7.72,9.79-9.69,1.59-6.59,6.56-10.87,10.67-15.76,1.24-1.48,2.25-3.3,2.89-5.12,1.7-4.84,6.01-8.04,7.4-13.37.89-3.4.98-9,7.14-9.4-2.54-4.77,1.82-6.96,2.85-10.28.4-1.28.73-2.59,1.03-3.9.21-.93.07-2.03.54-2.78,1.94-3.14,4.06-6.17,6.1-9.25.41-.62.98-1.27,1.06-1.95,1.02-8.45,6.65-14.98,9.35-22.71,2.87-8.23,5.6-16.5,8.28-24.8.71-2.2.98-4.55,1.45-6.83,8.64-.08,16.86-1.97,24.65-5.72.54,7.49-1.85,14.35-4.33,21.25-1.12,3.11-1.53,6.47-2.35,9.69-1.06,4.19-2.02,8.42-3.35,12.53-1.42,4.39-3.5,8.58-4.79,13-1.63,5.55-2.34,11.39-4.18,16.86-2.86,8.51-6.93,16.56-9.56,25.2-2.14,7.04-5.56,13.69-7.82,20.7-1.96,6.05-5.2,11.41-7.93,17.04-.8,1.65-1.41,3.39-2.22,5.04-3.32,6.74-4.07,14.96-11.41,19.39-.92.55-1.17,2.11-1.96,3.01-1.87,2.14-3.57,4.61-5.88,6.15-3.47,2.32-7.28,4.23-11.15,5.81-4.33,1.77-8.81,3.31-13.36,4.39-8.16,1.93-16.57,2.92-24.59,5.27-10.79,3.16-21.42,6.94-31.9,11.04-6.96,2.72-12.78-1.65-19.21-1.9-.43-.02-.85-.49-1.27-.75-2.49-1.56-5.1-2.98-7.45-4.73-1.94-1.45-3.65-3.25-5.35-5-1.03-1.06-1.69-2.49-2.77-3.47-4.51-4.09-8.47-8.45-9.17-14.89-.07-.69-.67-1.32-1-1.99-2.26-4.63-5.23-9.05-6.63-13.92-2.52-8.78-4.09-17.84-6.1-26.77-.76-3.35-1.77-6.65-2.44-10.01-1.31-6.54-2.42-13.12-3.7-19.67-1.23-6.3-3.18-12.53-3.69-18.88-.58-7.34-4.66-12.94-7.35-19.37-4.44,1.06-8.22,2.33-10.85,6.24-2.42,3.61-4.41,3.27-6.69-.39-.34-.55-1-.9-1.52-1.35-.25-1-.5-2-.75-3-.12-.48-.16-1-.37-1.43-1.97-4.06-8.65-6.47-14.41-4.98-8.36,2.17-16.62,4.73-25.03,6.7-2.95.69-6.63,2.17-8.9-1.79,1.94.06,3.98.54,5.8.1,7.7-1.88,15.31-4.15,23.01-6.02,3.2-.78,6.57-1.31,9.84-1.21,5.84.18,9.75,3.42,12.41,8.65,1.55,3.05,3.49,2.97,4.63-.14,2.42-6.62,4.72-13.33,6.42-20.16,1.63-6.53,2.45-13.26,3.6-19.91.1-.6.1-1.23.06-1.84-.65-8.87-3.51-17.11-7.18-25.13-1.44-3.16-2.67-6.44-3.74-9.74-.98-3-1.71-6.09-2.38-9.18-.43-2-.57-4.06-.84-6.09.06-5.7.08-11.4.2-17.1.2-9.53.46-19.05.7-28.58Z" style="fill: #b0b0b0; stroke-width: 0px;"/>
  <path d="M95.85,80.33c8.1-12.5,17.61-23.85,29.19-33.21,9.34-7.55,18.98-14.83,29.05-21.35,14.79-9.58,31.33-15.4,48.23-20.16.95-.27,1.98-.23,2.97-.33-.15,2.78,1.85,2.23,3.56,2.44,8.34,1.06,16.77,1.73,24.96,3.51,6.09,1.32,11.93,3.96,17.76,6.3,3.52,1.41,7.28,2.81,10.1,5.19,4.83,4.07,9.78,7.97,14.21,12.67,5.83,6.18,9.16,13.49,12.38,20.8,3.02,6.86,4.6,14.43,6.25,21.82,1.75,7.83,3.31,15.77,3.94,23.74.2,2.52,2.61,6.57-1.72,8.58-.57-.22-1.17-.39-1.71-.67-14.11-7.2-27.72-6.07-40.42,3.12-12.94,9.38-20.49,22.9-26.5,37.23-2.81,6.7-4.25,13.98-6.32,21-1.09.48-2.46.69-3.22,1.48-3.28,3.45-6.42,7.04-9.54,10.65-4.27,4.95-8.33,10.1-12.78,14.89-1.76,1.89-4.45,2.51-5.12,5.87-.49,2.45-2.89,4.56-4.59,6.71-.57.71-1.69,1.56-2.43,1.45-3.04-.44-4.49,1.11-5.17,3.65-.5-.03-.77,0-.98-.08-3.46-1.32-7.59-.63-10.52-3.52.13-.46.27-.92.4-1.38,3.77.02,1.91-3.02,2.33-4.67.2-.77-.9-1.88-1.41-2.83.11-5.45.77-10.97.21-16.35-1-9.57-2.73-19.06-4.16-28.58.62,0,1.27-.08,1.87.04,9.67,1.96,18.41-.41,26.62-5.53,2.1-1.31,4.47-2.2,6.51-3.59,5.02-3.42,10.28-6.61,14.79-10.63,5.6-5,10.59-10.7,15.76-16.17,5.7-6.04,13.47-10.76,13.43-20.56,3.89-2.23,4.32-5.45,3.31-9.55-.43-1.73.93-3.82.91-5.74-.07-5.1-.16-10.23-.81-15.27-.58-4.48-1.51-9.01-3.06-13.24-1.31-3.58-2.67-7.31-6.69-9.42-2.5-1.31-4.17-4.14-6.41-6.05-2.97-2.54-5.86-5.4-9.29-7.14-3.92-1.99-8.72-2.33-12.52-4.46-2.83-1.59-5.29-1.61-8.13-1.3-.95.1-1.92-.03-2.88-.04-8.55-.04-17.19-1.24-25.43,2.23-.8.34-1.56.89-2.39,1.06-12.31,2.42-22.27,9.24-31.68,17.02-2.25,1.86-4.36,3.96-6.26,6.18-3.27,3.82-6.71,7.58-9.37,11.82-2.31,3.68-3.14,8.28-5.47,11.94-5.09,7.98-5.61,16.98-6.19,25.85-.21,3.28,2.17,6.73,3.37,10.1-6.69,5.48-11.68,12.26-15.37,20.04-2.12-4.05-5.36-7.9-6.1-12.18-1.21-6.94-1-14.17-.94-21.27.03-3.33.92-6.7,1.78-9.95.84-3.18,2.27-6.21,3.12-9.4.2-.75-.91-1.84-1.41-2.77Z" style="fill: #bfbfbf; stroke-width: 0px;"/>
  <path d="M331.98,21.09c6.25,3.75,12.5,7.49,18.75,11.24.53,1.19.8,2.62,1.62,3.54,10.39,11.64,18.37,24.65,23.1,39.61,3.31,10.47,5.51,21.17,5.84,32.1.33,11.1-3.82,21.4-7.3,31.72-3.64,10.78-8.14,21.3-11.38,32.19-2.35,7.9-3.43,16.2-4.79,24.37-1.32,7.92-2.44,15.89-3.31,23.88-.58,5.35-.53,10.78-.84,16.16-.21,3.59-.34,7.2-.87,10.75-1.14,7.61-2.39,15.21-3.82,22.77-1.7,9-3.66,17.94-5.48,26.92-1.86,9.19-3.77,18.38-5.52,27.6-1.16,6.14-1.93,12.35-3.15,18.48-1.01,5.07-2.48,10.04-3.62,15.09-2.25,9.99-4.34,20.02-6.65,29.99-.78,3.36-2.1,6.59-3.05,9.91-1.56,5.44-2.78,11-4.6,16.35-1.46,4.3-3.64,8.36-5.44,12.55-2.16,5.01-3.96,10.2-6.47,15.03-6.63,12.73-13.86,25.16-20.25,38-3.87,7.77-9.35,13.66-16.58,18.12-1.39.85-3.06,1.46-4.67,1.7-5.02.74-7.84-3.12-11.12-5.8-5.57-4.56-10.7-9.7-16.5-13.93-9.32-6.8-18.84-13.21-30.5-15.91-15.12-3.5-27.54,3.26-36.04,13.27-5.95,7.01-11.94,13.99-18.2,20.71-3.22,3.46-7.53,4.53-12.33,3.67-10.67-1.91-18.17-8.67-23.91-16.97-7.2-10.4-13.25-21.6-19.79-32.45-5.19-8.61-10.22-17.33-15.65-25.79-1.69-2.64-5-4.28-6.54-6.97-1.76-3.08-3.57-4.15-6.79-2.93-.2-10.99-.41-21.97-.61-32.96,1.43.71,3.57,1.05,4.15,2.19,1.21,2.37,1.52,5.19,2.34,7.77,1.98,6.24,3.42,12.75,6.22,18.6,5.07,10.6,10.77,20.91,16.58,31.12,5.46,9.6,11.2,19.05,17.19,28.32,6.2,9.61,14.24,17.04,25.78,19.98,4.29,1.1,8.49.84,11.71-1.74,7.94-6.35,15.41-13.28,23.12-19.92,12.33-10.62,24.63-12.84,39.36-7.76,10.66,3.68,20.3,9.32,29.79,15.28,3.35,2.1,7,3.8,10.05,6.26,4.31,3.46,7.93,3.78,13.08,1.95,6.5-2.3,8.88-8.22,12.25-13,7.64-10.83,13.42-22.76,18.09-35.2,1.76-4.69,3.77-9.29,5.54-13.98,2.21-5.86,4.52-11.7,6.36-17.69,2-6.5,3.4-13.19,5.26-19.73,2.42-8.52,5.29-16.91,7.5-25.48,1.91-7.4,3.16-14.97,4.7-22.46,1.17-5.69,2.32-11.39,3.48-17.08.81-3.99,1.71-7.97,2.42-11.97,1.17-6.57,2.14-13.17,3.37-19.73.68-3.63,1.96-7.15,2.57-10.79,1.68-9.95,3.29-19.92,4.63-29.92.6-4.43.36-8.96.74-13.42.27-3.17-1.15-4.87-4.13-5.84-4.85,4.29-9.71,8.67-14.69,12.92-1.05.89-2.53,1.28-3.81,1.9,1.9-2.77,3.98-5.43,5.66-8.32,8.39-14.46,11.23-30.28,10.42-46.71-.4-8.15-2.11-16.24-3.23-24.36,1.17,1.36,2.43,2.64,3.49,4.08,1.98,2.69,3.85,5.47,6.45,9.2,2.11-4.07,3.71-6.82,5.01-9.7,3.91-8.67,7.76-17.36,11.54-26.09,3-6.91,6.53-13.69,8.62-20.87,2.67-9.19,2.69-18.71,1.75-28.37-1.15-11.8-4.55-22.78-9.34-33.43-5.84-12.98-14.32-24.1-24.59-33.9-1.2-1.14-1.98-2.73-2.95-4.11Z" style="fill: #a6a6a6; stroke-width: 0px;"/>
  <path d="M359.72,38.29c6.49,5.77,12.98,11.54,19.47,17.3.29,1.6.15,3.45.93,4.76,5.91,9.87,10.94,20.13,13.61,31.34,1.74,7.32,4.08,14.85,3.83,22.21-.34,10.05-2.12,20.21-4.67,29.97-3.12,11.95-5.47,23.85-4.68,36.2.46,7.17,2.6,13.59,9.51,17.37,3.24,1.77,6.93,3.25,9.36,5.85,6.01,6.42,11.41,13.41,17.05,20.17-1.25,0-2.5.01-3.75.02-.75,0-1.5,0-2.25,0-1.61-1.49-3.05-3.22-4.85-4.41-5.79-3.84-11.61-3.2-16.62,1.52-1.44,1.36-3,2.6-4.48,3.92-5.36,4.81-8.16,11.13-9.91,17.87-.9,3.47,1.49,7.33-.76,10.86-.24.38.14,1.2.32,1.78,1.83,5.78,3.53,11.6,5.56,17.32,4.04,11.42,9.52,22.13,16.49,32.06,3.55,5.05,5.4,5.75,11.25,4.15,2.04-.56,4.4-.27,5.45-2.9.19-.46,1.83-.35,2.79-.5-.5,1.25-1,2.49-1.5,3.74,0,0,0,0,0,0-.5.25-1,.5-1.51.74-.74,0-1.49,0-2.23,0-1,.5-2,1-3,1.5-.75.25-1.5.5-2.25.75-3.77,1.41-6.83.41-9.15-2.8-5.45-7.52-10.68-15.22-16.38-22.56-2.68-3.45-6.08-6.38-9.4-9.26-2.43-2.1-4.4-.78-6.23,1.46-7.05,8.65-8.21,19.54-11.12,29.67-2.48,8.62-3.84,17.59-5.34,26.47-1.96,11.57-3.49,23.22-5.35,34.81-1.66,10.38-3.62,20.72-5.27,31.11-2.29,14.38-7.82,27.29-16.87,38.71-6.14,7.74-12.21,15.53-18.27,23.33-8.06,10.37-13.7,22.14-19.31,33.91-3.54,7.42-7.86,13.93-15.42,17.99-7.17,3.86-12.16,3.11-17.31-3.27-.64-.79-1.77-1.19-2.68-1.78,0-.25,0-.5,0-.75l-1.5-1.5c0-.25,0-.5,0-.75-4.64-5.75-8.71-12.11-14.06-17.1-6.3-5.88-13.41-11.05-20.73-15.62-7.18-4.48-15.24-7.67-23.96-6.86-5.44.51-11.07,1.56-14.67,6.62-1.25,1-2.5,2-3.75,3-1.75,2-3.5,4-5.24,5.99-.5.75-1,1.5-1.5,2.25-.5.75-1,1.5-1.5,2.25-.8.85-1.82,1.58-2.35,2.58-3.55,6.68-6.94,13.44-10.53,20.1-.86,1.58-2.05,3.29-3.55,4.17-6.46,3.77-13.72,3.87-19.49-.17-6.5-4.55-12.61-10.29-17.25-16.69-6.31-8.71-11.16-18.5-16.47-27.93-4.81-8.55-9.29-17.3-14.13-25.83-1.58-2.78-4-6.48-7.26-5.27-2.59.95-4.27,4.71-6.04,7.42-.77,1.17-.66,2.88-1.16,4.28-.2.56-.94.93-1.43,1.39-.26-4.25-.51-8.49-.77-12.74.64-.51,1.47-.9,1.88-1.56,3.6-5.75,8.78-6.14,12.66-.6,3,4.27,5.71,8.76,8.25,13.32,8.95,16.04,16.11,33.17,28.42,47.17,5.47,6.22,11.64,11.21,20.19,13.02,7.25,1.54,12.11-1.11,15.86-6.79,4.59-6.95,8.69-14.24,13.59-20.95,12.43-17,27.42-21.29,46.34-12.25,16.3,7.79,29.21,19.84,40.26,34.01,3.99,5.11,7.92,8.98,13.97,5.88,3.28-1.68,6.49-3.66,9.33-5.99,8.32-6.79,11.58-16.94,16.31-25.99,6.15-11.77,12.58-23.31,20.56-33.9,7.33-9.73,13.28-20.21,16.69-31.82,3.2-10.87,5.16-22.11,7.7-33.18.67-2.9,1.71-5.73,2.17-8.66,1.41-8.92,2.37-17.91,3.97-26.79,2.74-15.22,5.48-30.45,8.9-45.53,2.88-12.72,4.62-25.79,10.29-37.78,1.32-2.79,2.76-5.8,2.96-8.8.61-8.87.76-17.78.85-26.68.04-4.02-.57-8.04-.73-12.06-.27-6.76-.95-13.57-.47-20.29.44-6.12,2.64-12.1,3.3-18.23,1.53-14.16,8.14-26.73,11.94-40.17,1.61-5.71,3.65-11.56,3.78-17.38.18-8.37-.62-16.88-2.06-25.15-3.02-17.33-10.61-32.73-21.4-46.61-1.45-1.87-2.18-4.31-3.25-6.48Z" style="fill: #9f9f9f; stroke-width: 0px;"/>
  <path d="M359.72,38.29c1.06,2.17,1.79,4.61,3.25,6.48,10.78,13.88,18.37,29.28,21.4,46.61,1.44,8.26,2.24,16.77,2.06,25.15-.12,5.82-2.16,11.67-3.78,17.38-3.8,13.44-10.41,26.01-11.94,40.17-.66,6.13-2.85,12.11-3.3,18.23-.48,6.72.2,13.52.47,20.29.16,4.02.77,8.04.73,12.06-.09,8.9-.23,17.81-.85,26.68-.21,2.99-1.64,6-2.96,8.8-5.67,11.99-7.4,25.06-10.29,37.78-3.42,15.07-6.16,30.31-8.9,45.53-1.6,8.88-2.56,17.87-3.97,26.79-.46,2.93-1.5,5.76-2.17,8.66-2.54,11.07-4.51,22.3-7.7,33.18-3.41,11.6-9.36,22.09-16.69,31.82-7.97,10.59-14.41,22.14-20.56,33.9-4.73,9.05-7.99,19.2-16.31,25.99-2.85,2.32-6.06,4.3-9.33,5.99-6.05,3.1-9.98-.76-13.97-5.88-11.05-14.17-23.96-26.22-40.26-34.01-18.92-9.05-33.91-4.76-46.34,12.25-4.9,6.71-9,14-13.59,20.95-3.76,5.68-8.61,8.33-15.86,6.79-8.56-1.81-14.72-6.8-20.19-13.02-12.31-14-19.47-31.13-28.42-47.17-2.54-4.56-5.25-9.05-8.25-13.32-3.89-5.54-9.07-5.15-12.66.6-.41.65-1.24,1.04-1.88,1.56-.26-3.93-.53-7.87-.77-11.8-.22-3.56-.4-7.11-.59-10.67,3.23-1.22,5.04-.15,6.79,2.93,1.53,2.69,4.85,4.33,6.54,6.97,5.42,8.46,10.46,17.18,15.65,25.79,6.54,10.86,12.6,22.05,19.79,32.45,5.74,8.3,13.25,15.06,23.91,16.97,4.81.86,9.11-.21,12.33-3.67,6.26-6.72,12.25-13.7,18.2-20.71,8.5-10.01,20.92-16.77,36.04-13.27,11.66,2.7,21.18,9.11,30.5,15.91,5.8,4.23,10.93,9.37,16.5,13.93,3.28,2.68,6.09,6.54,11.12,5.8,1.61-.24,3.28-.85,4.67-1.7,7.23-4.45,12.71-10.35,16.58-18.12,6.4-12.84,13.63-25.27,20.25-38,2.51-4.83,4.31-10.02,6.47-15.03,1.81-4.19,3.98-8.25,5.44-12.55,1.82-5.35,3.04-10.91,4.6-16.35.95-3.32,2.28-6.55,3.05-9.91,2.31-9.98,4.4-20,6.65-29.99,1.14-5.05,2.62-10.02,3.62-15.09,1.22-6.13,1.98-12.34,3.15-18.48,1.75-9.22,3.65-18.4,5.52-27.6,1.82-8.97,3.78-17.92,5.48-26.92,1.43-7.56,2.68-15.16,3.82-22.77.53-3.55.66-7.16.87-10.75.31-5.39.26-10.81.84-16.16.87-7.99,1.99-15.95,3.31-23.88,1.36-8.17,2.44-16.47,4.79-24.37,3.24-10.89,7.74-21.4,11.38-32.19,3.48-10.32,7.63-20.61,7.3-31.72-.33-10.93-2.52-21.63-5.84-32.1-4.73-14.96-12.71-27.97-23.1-39.61-.83-.93-1.1-2.35-1.62-3.54,3,1.99,5.99,3.98,8.99,5.96Z" style="fill: #a3a3a3; stroke-width: 0px;"/>
  <path d="M60.74,312.64c.25,1,.5,2,.75,3,1.31,4.87,2.5,9.77,3.97,14.58.72,2.37,2.17,3.38,4.87,1.92.97-.53,3.17-.02,4.06.81,1.3,1.21,2.27,3.04,2.76,4.78,1.91,6.78,3.81,13.57,5.24,20.46,1.02,4.9.32,10.34,2.1,14.87,2.66,6.78,2.4,13.87,3.98,20.7,1.62,6.96,2.89,14.07,5.27,20.78,2.38,6.72,5.87,13.07,9,19.51,1.93,3.97,3.67,8.14,6.24,11.67,3.43,4.72,7.91,8.68,11.32,13.41,2.16,3,4.75,4.87,7.93,6.3.66.3,1.39.6,1.87,1.11,4.99,5.29,11.77,4.53,17.86,4.44,3.92-.06,7.93-2.55,11.65-4.43,5.39-2.73,10.6-5.84,15.81-8.91,8.99-5.29,18.65-8.58,29.08-7.75,9.85.78,19.6,2.68,29.4,4,3.43.46,7.01,1.4,10.32.86,9.38-1.52,16.95-6.49,21.66-14.75,3.99-6.99,7.36-14.38,10.44-21.82,2.58-6.23,4.43-12.78,6.44-19.23,1.54-4.97,2.8-10.02,4.22-15.02,1.71-5.98,3.37-11.97,5.23-17.9,1.18-3.76,2.91-7.35,3.99-11.14,1.27-4.44,1.93-9.05,3.16-13.5,1.46-5.28,3.4-10.43,4.83-15.71,2.06-7.61,3.77-15.31,5.79-22.92,1.39-5.24,3.96-10.21,3.29-15.89-.11-.94.23-1.95.48-2.9,1.05-4.01,2.31-7.97,3.19-12.02,1.29-5.9,2.36-11.84,3.42-17.78.21-1.17.44-3.16-.1-3.48-1.1-.65-2.73-.59-4.12-.48-1.57.12-3.11.6-4.66.92,2.07-1.99,4.14-3.99,6.21-5.98,2.34,1.99,3.72-.5,5.57-1.07,2.24-.7,5.33-1.95,6.84-1.01,2.49,1.56,3.21,4.88,2.26,8.07-.18.6-.39,1.18-.55,1.79-.88,3.35-2.58,6.74-2.44,10.04.32,7.24-2.43,13.81-3.48,20.73-1.06,6.97-2.31,13.91-3.75,20.81-1.4,6.74-3.16,13.4-4.75,20.1-1.4,5.9-2.8,11.81-4.16,17.72-.94,4.07-1.66,8.2-2.76,12.23-1.14,4.17-2.76,8.21-3.9,12.38-2.76,10.13-5.13,20.37-8.08,30.44-2.8,9.56-5.91,19.04-9.32,28.4-2.59,7.09-5.56,14.07-8.93,20.82-2.82,5.65-6.74,10.74-9.63,16.35-2.16,4.18-5.46,7.03-9.14,9.46-1.58,1.04-4.25,1.65-5.96,1.08-9.01-3.01-17.87-6.44-26.77-9.76-5.34-1.99-10.53-4.44-15.99-6.02-12.35-3.56-24.41-3.07-35.33,4.55-6.91,4.82-13.38,10.3-20.34,15.05-8.05,5.49-16.46,8.03-26.07,2.89-7.83-4.19-13.62-10.49-18.85-17.15-10.18-12.97-17.14-27.88-23.74-42.91-1.29-2.94-2.96-5.76-3.83-8.81-2.08-7.31-5.12-14.38-5.35-22.2-.09-3.16-1.18-6.29-1.9-9.42-1.27-5.55-2.76-11.05-3.85-16.63-.74-3.78-5.05-8.94-8.92-9.95-.75-9.48-.49-19.09-3.95-28.19-.22-.58-.52-1.12-.78-1.69.25-1.02.87-2.12.69-3.05-1.42-7.21-6.55-10.55-13.74-8.71-7.09,1.81-14.19,3.71-21.11,6.08-7.55,2.59-16.76-1.25-20.3-6.94-.44-.71-1.36-1.12-2.05-1.67-.57-2-1.13-4-1.7-6,.46.24.92.48,1.38.71.75,1,1.5,2,2.25,3,1.25,1.5,2.5,3,3.75,4.49,2.37,1.25,4.88,3.75,7.08,3.51,6.7-.73,13.29-2.46,19.91-3.91,5.59-1.22,10.94-4.58,16.89-2.51,2.78.97,5.22,2.91,7.82,4.4Z" style="fill: #aaa; stroke-width: 0px;"/>
  <path d="M64.6,353.1c3.87,1,8.18,6.16,8.92,9.95,1.09,5.58,2.58,11.08,3.85,16.63.72,3.13,1.8,6.26,1.9,9.42.23,7.82,3.27,14.89,5.35,22.2.87,3.05,2.54,5.88,3.83,8.81,6.6,15.04,13.56,29.95,23.74,42.91,5.23,6.65,11.02,12.96,18.85,17.15,9.61,5.14,18.02,2.59,26.07-2.89,6.96-4.75,13.42-10.22,20.34-15.05,10.91-7.61,22.98-8.11,35.33-4.55,5.45,1.57,10.65,4.02,15.99,6.02,8.9,3.32,17.77,6.75,26.77,9.76,1.71.57,4.38-.03,5.96-1.08,3.68-2.43,6.98-5.28,9.14-9.46,2.9-5.61,6.82-10.7,9.63-16.35,3.37-6.75,6.35-13.73,8.93-20.82,3.41-9.36,6.52-18.84,9.32-28.4,2.95-10.07,5.33-20.31,8.08-30.44,1.14-4.17,2.76-8.21,3.9-12.38,1.1-4.03,1.82-8.16,2.76-12.23,1.36-5.91,2.76-11.82,4.16-17.72,1.59-6.7,3.34-13.36,4.75-20.1,1.44-6.9,2.69-13.84,3.75-20.81,1.05-6.92,3.8-13.48,3.48-20.73-.15-3.3,1.56-6.69,2.44-10.04.16-.6.37-1.19.55-1.79.95-3.19.24-6.51-2.26-8.07-1.5-.94-4.59.31-6.84,1.01-1.85.57-3.23,3.07-5.57,1.07.48-.48.96-.96,1.44-1.45,1.28-.62,2.76-1.01,3.81-1.9,4.98-4.24,9.84-8.63,14.69-12.92,2.98.97,4.4,2.67,4.13,5.84-.38,4.46-.14,9-.74,13.42-1.34,10-2.95,19.97-4.63,29.92-.61,3.64-1.89,7.16-2.57,10.79-1.23,6.56-2.2,13.16-3.37,19.73-.72,4.01-1.61,7.98-2.42,11.97-1.16,5.69-2.31,11.39-3.48,17.08-1.53,7.5-2.79,15.06-4.7,22.46-2.21,8.57-5.08,16.96-7.5,25.48-1.86,6.55-3.26,13.23-5.26,19.73-1.84,5.98-4.15,11.82-6.36,17.69-1.77,4.69-3.78,9.29-5.54,13.98-4.67,12.44-10.45,24.37-18.09,35.2-3.37,4.77-5.74,10.7-12.25,13-5.15,1.82-8.77,1.51-13.08-1.95-3.05-2.45-6.71-4.16-10.05-6.26-9.49-5.96-19.13-11.6-29.79-15.28-14.73-5.08-27.03-2.86-39.36,7.76-7.71,6.64-15.18,13.57-23.12,19.92-3.22,2.57-7.42,2.83-11.71,1.74-11.54-2.95-19.58-10.37-25.78-19.98-5.98-9.28-11.73-18.73-17.19-28.32-5.81-10.22-11.51-20.53-16.58-31.12-2.8-5.86-4.24-12.37-6.22-18.6-.82-2.59-1.13-5.4-2.34-7.77-.58-1.14-2.72-1.49-4.15-2.19-.3-9.99-.59-19.99-.89-29.98Z" style="fill: #a8a8a8; stroke-width: 0px;"/>
  <path d="M259.02,544.28c-.37-.95-.75-1.89-1.12-2.84.42-.42,1.18-.82,1.21-1.27.24-3.87,1.65-3.72,4.76-2.16,2.85,1.43,6.4,2.5,9.5,2.22,7.03-.64,14.46-1.7,18.28-8.75,2.74-5.05,4.5-10.63,6.58-16.03,2.44-6.34,4.58-12.8,7.18-19.07,1.53-3.69,3.7-7.12,5.59-10.67.25-.25.5-.5.75-.75.5-.5,1-1,1.5-1.5l.75-1.49c1-1,2-2,3-3,1-1.25,2-2.5,3-3.74,1.21-.59,2.52-1.04,3.61-1.8,2.33-1.64,4.46-3.59,6.83-5.16,7.88-5.23,16.23-6.51,24.46-1.26,3.71,2.37,6.6,6.03,9.83,9.13,3.41,3.29,6.67,3.02,8.56-1.33,2.76-6.38,5.25-12.92,7.27-19.57,2.01-6.61,3.27-13.44,4.89-20.17,1.64-6.85,3.52-13.65,4.91-20.55,1.97-9.75,3.4-19.6,5.4-29.34,1.68-8.22,3.83-16.34,5.78-24.5,1.03-4.33,1.87-8.73,3.16-12.98,2.3-7.56,4.88-15.02,7.34-22.53.3-.92.58-1.84.87-2.77.5-.75,1-1.5,1.5-2.25,1.75-2.99,3.5-5.99,5.25-8.98.25-.25.5-.5.75-.75.5-.5.99-1.01,1.49-1.51,0,0,0,0,0,0,.75.49,1.5.97,2.25,1.46-.26.76-.51,1.52-.77,2.28-.99.75-1.99,1.51-2.98,2.26-.56.23-1.45.32-1.62.72-1.77,4.07-3.87,8.07-4.97,12.33-.93,3.6-.85,7.5-.91,11.28-.1,6.05-.18,12.11.17,18.14.49,8.53,1.64,17.02,1.99,25.54.18,4.53-.68,9.12-1.16,13.67-.95,9.06-1.58,18.17-3.05,27.15-1.31,8.01-3.82,15.82-5.35,23.81-2.49,12.98-6.27,25.48-12.8,37.04-4.57,8.1-7.84,16.73-10.46,25.62-1.16,3.92-2.71,4.63-5.09,1.41-3.52-4.77-6.41-10.01-9.41-15.15-3.63-6.21-6.78-12.73-10.69-18.75-5.61-8.64-12.8-11.85-22.54-7.92-7.9,3.19-13.69,8.91-18.96,15.25-1.84,2.21-3.05,4.94-4.55,7.44h0c-1,1.5-2,3-3,4.5-.97,1.03-2.44,1.89-2.84,3.11-2.45,7.5-5.49,14.94-6.76,22.66-2.76,16.65-19.94,23.65-31.81,19.08-3.81-1.47-5.9-1.03-7.55,2.48Z" style="fill: #868686; stroke-width: 0px;"/>
  <path d="M296.73,110.34c4.33-2.02,1.92-6.07,1.72-8.58-.62-7.97-2.19-15.91-3.94-23.74-1.65-7.38-3.23-14.95-6.25-21.82-3.22-7.31-6.55-14.62-12.38-20.8-4.43-4.7-9.38-8.6-14.21-12.67-2.83-2.38-6.59-3.79-10.1-5.19-5.84-2.34-11.67-4.98-17.76-6.3-8.19-1.78-16.62-2.45-24.96-3.51-1.71-.22-3.71.34-3.56-2.44,9.34-1.68,18.62-3.95,28.04-4.88,8.33-.82,16.81-.15,25.22-.13-.42.93-.83,1.86-1.31,2.92.86.36,1.43.57,1.97.83,6.71,3.18,13.62,6.01,20.05,9.68,4.58,2.61,8.78,6.07,12.67,9.66,5.23,4.82,10.56,9.71,14.86,15.33,6.91,9.05,11.66,19.4,14.26,30.52,1.94,8.26,4.85,16.49,2.71,25.24-.22.91.17,1.96.26,2.95.34,4.01,1.43,7.89,0,12.05-1,2.9-.72,6.23-1.06,9.37-.11.97-.23,1.97-.59,2.86-1.36,3.45-2.81,6.87-4.23,10.3-5.94-8.39-12.69-16-21.41-21.64Z" style="fill: #bababa; stroke-width: 0px;"/>
  <path d="M318.14,131.99c1.42-3.43,2.87-6.85,4.23-10.3.35-.89.48-1.9.59-2.86.34-3.13.06-6.47,1.06-9.37,1.44-4.16.35-8.05,0-12.05-.08-.99-.48-2.04-.26-2.95,2.14-8.75-.78-16.98-2.71-25.24-2.61-11.12-7.35-21.47-14.26-30.52-4.29-5.62-9.62-10.51-14.86-15.33-3.9-3.59-8.09-7.05-12.67-9.66-6.43-3.67-13.34-6.5-20.05-9.68-.55-.26-1.12-.47-1.97-.83.48-1.06.89-1.99,1.31-2.92,6.33.77,12.68,1.41,18.99,2.35,4.83.72,9.62,1.77,14.4,2.8,1.41.31,2.73,1.07,4.08,1.63.57.75,1.01,1.65,1.72,2.21,9.98,7.92,20.78,14.74,28.69,25.21,5.67,7.5,10.97,15.07,14.51,23.77,3.85,9.48,6.83,19.21,6.77,29.58-.05,8.4.73,17-.82,25.14-2.08,10.96-7.01,21.07-13.54,30.34-1.98,2.81-3.18,5.6-7.23,3.73-1.76-3.26-3.52-6.51-5.27-9.77l-2.69-5.29Z" style="fill: #b4b4b4; stroke-width: 0px;"/>
  <path d="M326.11,147.04c4.05,1.87,5.25-.92,7.23-3.73,6.54-9.27,11.46-19.38,13.54-30.34,1.55-8.14.77-16.74.82-25.14.06-10.37-2.92-20.1-6.77-29.58-3.54-8.7-8.84-16.27-14.51-23.77-7.9-10.47-18.71-17.29-28.69-25.21-.71-.56-1.15-1.47-1.72-2.21,11.46,4.19,22.92,8.36,34.36,12.59.63.23,1.08.95,1.61,1.44.97,1.38,1.75,2.97,2.95,4.11,10.27,9.81,18.75,20.92,24.59,33.9,4.79,10.65,8.19,21.63,9.34,33.43.94,9.66.92,19.18-1.75,28.37-2.09,7.19-5.62,13.96-8.62,20.87-3.78,8.72-7.63,17.42-11.54,26.09-1.3,2.88-2.89,5.63-5.01,9.7-2.6-3.73-4.47-6.51-6.45-9.2-1.06-1.44-2.32-2.73-3.49-4.08-1.96-5.75-3.92-11.49-5.89-17.24Z" style="fill: #adadad; stroke-width: 0px;"/>
  <path d="M419.63,311.15c-1.75,2.99-3.5,5.99-5.25,8.98-.5.75-1,1.5-1.5,2.25-.57.41-1.32.7-1.68,1.24-4.14,6.17-8.3,12.33-12.29,18.6-2.18,3.43-4.76,6.86-5.92,10.66-2.75,9.07-5.08,18.3-7,27.58-2.56,12.33-4.5,24.79-6.85,37.16-2.4,12.65-4.61,25.35-10.24,37.14-2.69,5.63-5.29,7.34-11.22,6.27-3.04-.55-6.09-1.4-9.15-1.47-9.28-.22-16.54,4.59-23.35,10.15-1.94,1.59-3.48,3.66-5.21,5.51-1,1.25-2,2.5-3,3.74-1,1-2,2-3,3l-.75,1.49c-.5.5-1,1-1.5,1.5-.25.25-.5.5-.75.75-2.27,3.05-5.2,5.81-6.69,9.21-3.57,8.16-6.34,16.66-9.67,24.93-1.28,3.18-2.74,6.5-4.92,9.06-5.06,5.95-11.81,8.11-19.65,7.85-4.13-.14-7.15-1.38-9.41-4.78-.52-.79-1.41-1.33-2.26-2.1-.6,3.19-1.09,5.78-1.57,8.37-.93-3.47-1.86-6.93-2.79-10.4-.11-1.03-.22-2.06-.33-3.1.52-.72,1.38-1.4,1.46-2.17.14-1.28-.22-2.62-.37-3.93.5.25,1,.5,1.5.75,0,.25,0,.5,0,.75.75,1,1.5,2,2.24,3,.25.5.5,1,.75,1.5,2.56,5.68,6.77,8.36,12.66,7.43,9.93-1.57,17.21-6.76,20.96-16.36,2.62-6.72,4.59-13.8,8.07-20.04,4.2-7.53,9.26-14.71,14.74-21.39,8.12-9.88,18.01-17.73,29.74-23.23,5.76-2.7,10.95-6.36,13.82-12.46,5.12-10.9,6.92-22.7,9.35-34.32,1.44-6.89,2.15-13.94,3.33-20.89,1.06-6.21,2.12-12.44,3.52-18.58,2.57-11.22,4.53-22.69,8.41-33.46,2.96-8.23,3.74-8.86,12.16-6.67,7.09,1.84,12.14-.29,16.09-6.06.92-1.09,1.77-2.25,2.79-3.25,1.51-1.48,3.13-2.83,4.71-4.23Z" style="fill: #919190; stroke-width: 0px;"/>
  <path d="M424.13,223.46c-5.64-6.76-11.04-13.75-17.05-20.17-2.43-2.6-6.13-4.08-9.36-5.85-6.92-3.78-9.05-10.21-9.51-17.37-.79-12.35,1.56-24.25,4.68-36.2,2.55-9.75,4.33-19.92,4.67-29.97.25-7.36-2.08-14.89-3.83-22.21-2.67-11.21-7.71-21.47-13.61-31.34-.78-1.3-.64-3.16-.93-4.76,12.07,11.67,21.78,25.13,29.88,39.77,2.81,5.08,5.09,10.47,7.61,15.71-.46,1.32-1.32,2.64-1.31,3.95,0,5.34.3,10.68.43,16.02.06,2.55.21,5.13-.05,7.66-.86,8.33-2.61,16.63-2.64,24.95-.03,7.33,1.26,14.79,2.9,21.99,2.84,12.46,2.94,25.73,10.19,37,.36.55.15,1.46.21,2.21-.75.03-1.5.07-2.24.1,0-.5-.02-.99-.03-1.49Z" style="fill: #969696; stroke-width: 0px;"/>
  <path d="M310.98,492.45c1.5-2.49,2.71-5.23,4.55-7.44,5.26-6.34,11.06-12.06,18.96-15.25,9.73-3.93,16.93-.72,22.54,7.92,3.91,6.02,7.06,12.53,10.69,18.75,3,5.14,5.89,10.38,9.41,15.15,2.38,3.23,3.93,2.52,5.09-1.41,2.62-8.89,5.89-17.52,10.46-25.62,6.53-11.56,10.3-24.05,12.8-37.04,1.53-7.99,4.04-15.79,5.35-23.81,1.47-8.98,2.1-18.09,3.05-27.15.48-4.55,1.34-9.13,1.16-13.67-.35-8.53-1.5-17.02-1.99-25.54-.35-6.03-.26-12.09-.17-18.14.06-3.77-.03-7.68.91-11.28,1.1-4.26,3.2-8.26,4.97-12.33.17-.4,1.06-.49,1.62-.72-2.74,6.42-3.4,13.03-1.43,19.74.45,1.54,1.84,2.8,2.8,4.19,1.06-1.17,2.81-2.22,3.05-3.54.63-3.49.6-7.09.83-10.64.52-2.47,1.05-4.94,1.57-7.41.89-.8,1.77-1.6,2.66-2.39-.21,25.5-.43,51-.64,76.49-1.07-.82-2.13-1.65-2.94-2.27-.68,2.59-1.54,5.26-2.07,8.01-2.01,10.45-3.96,20.92-5.84,31.4-2.36,13.15-4.56,26.34-6.99,39.48-1.28,6.93-2.74,13.83-4.4,20.67-1.8,7.41-4.61,14.33-10.24,19.89-3.41,3.37-6.87,6.88-9.4,10.9-3.13,4.97-5.97,6.99-10.7.04-.42-.62-.74-1.3-1.09-1.96-4.64-8.78-9.18-17.62-13.95-26.33-2.89-5.29-5.92-10.53-9.29-15.52-2.89-4.28-7.6-5.55-12.44-5.05-10.07,1.04-16.43,8.08-22.78,14.95-2.09,2.26-4.07,4.62-6.11,6.94Z" style="fill: #828282; stroke-width: 0px;"/>
  <path d="M430.64,224.85c2.65.26,5.34.94,7.95.7,10.99-1.01,21.93-2.51,32.93-3.37,3.87-.3,7.84.74,11.76,1.16.71.77,1.29,1.78,2.15,2.28,5.98,3.48,6.72,10.34,1.57,14.89-.64.56-1.1,1.33-1.61,2.03-4.62,6.32-10.22,10.87-18.39,12.09-5.84.88-11.75,2.29-17.21,4.5-8.05,3.27-15.73,7.47-23.58,11.24-1.12.54-2.33,1.33-3.46,1.28-1.7-.07-3.99-.24-4.92-1.33-1.88-2.21-3.54-4.91-4.35-7.68-1.54-5.22-2.75-10.58-3.46-15.97-.64-4.82-.93-10.22,3.52-13.45,3.62-2.62,8.12-3.99,12.18-6.02,1.06-.53,1.95-1.43,2.91-2.16.67-.07,1.34-.14,2.01-.21Z" style="fill: #bfbfbf; stroke-width: 0px;"/>
  <path d="M310.98,492.45c2.03-2.32,4.02-4.68,6.11-6.94,6.36-6.87,12.71-13.91,22.78-14.95,4.84-.5,9.55.77,12.44,5.05,3.37,4.99,6.4,10.23,9.29,15.52,4.77,8.71,9.31,17.55,13.95,26.33.35.66.67,1.35,1.09,1.96,4.73,6.95,7.57,4.93,10.7-.04,2.53-4.02,5.99-7.53,9.4-10.9,5.63-5.56,8.44-12.47,10.24-19.89,1.66-6.84,3.12-13.74,4.4-20.67,2.43-13.14,4.62-26.33,6.99-39.48,1.88-10.48,3.83-20.94,5.84-31.4.53-2.74,1.39-5.42,2.07-8.01.81.63,1.88,1.45,2.94,2.27-.16,12.47-.31,24.95-.51,37.42,0,.53-.46,1.05-.7,1.58-1.09-.75-2.18-1.5-4.27-2.93-1.48,4.28-3.32,7.95-3.97,11.82-2.29,13.64-4.11,27.35-6.23,41.02-1.88,12.08-3.92,24.13-5.88,36.2-.25,1.25-.5,2.5-.75,3.74-1.3,1.86-2.82,3.6-3.84,5.61-1.61,3.17-4.11,4.9-7.46,5.62-2.17.47-4.39.76-6.51,1.41-5.22,1.61-7.91,1.05-10.67-3.88-4.48-8-8.44-16.29-12.62-24.45-3.79-7.39-6.85-15.29-11.54-22.06-6.92-9.99-13.11-11.19-23.59-5.54-11.22,6.06-17.48,16.31-22.83,27.29-.22.46.21,1.23.34,1.86-2.23,6.27-3.8,12.65-3.26,19.39-.45,1.11-1.4,2.27-1.27,3.3.31,2.43.88,4.9,1.82,7.16,1.08,2.62,2.66,5.03,4.02,7.53-.15.78-.31,1.55-.46,2.33-1.86-.94-3.93-1.63-5.54-2.89-2.93-2.31-5.61-1.73-8.6-.23-6.33,3.18-12.95,4.87-20.2,4.69-4.38-.11-9.04-2.44-13.29.7,0,0,0,.04,0,.04,1.07-1.25,2.08-3.49,3.22-3.56,4.04-.26,8.15.54,12.21.36,12.31-.55,21.06-6.87,23.65-18.62,1.22-5.53,1.78-11.22,3.14-16.71,1.06-4.28,2.9-8.38,4.39-12.56,1-1.5,2-3,3-4.5h0Z" style="fill: #7a7b7a; stroke-width: 0px;"/>
  <path d="M407.64,516.43c1.97-12.07,4.01-24.12,5.88-36.2,2.12-13.67,3.94-27.38,6.23-41.02.65-3.87,2.5-7.54,3.97-11.82,2.08,1.43,3.17,2.18,4.27,2.93-.56,20.91-1.43,41.81-1.61,62.72-.18,22.29.3,44.59.48,66.88.02,2.49,0,4.98.01,7.46-.42-.39-1.04-.71-1.23-1.19-3.24-8.04-6.69-16.01-9.55-24.19-2.02-5.8-3-11.96-4.9-17.81-.86-2.66.83-6.69-3.56-7.77Z" style="fill: #737372; stroke-width: 0px;"/>
  <path d="M428.63,225.05c-.97.73-1.85,1.62-2.91,2.16-4.06,2.03-8.56,3.4-12.18,6.02-4.45,3.22-4.16,8.63-3.52,13.45.72,5.39,1.93,10.76,3.46,15.97.82,2.77,2.47,5.47,4.35,7.68.92,1.08,3.22,1.26,4.92,1.33,1.14.05,2.35-.74,3.46-1.28,7.85-3.78,15.52-7.98,23.58-11.24,5.46-2.21,11.37-3.62,17.21-4.5,8.17-1.23,13.77-5.77,18.39-12.09.51-.7.97-1.47,1.61-2.03,5.16-4.55,4.42-11.41-1.57-14.89-.87-.5-1.44-1.51-2.15-2.28,4.02.71,7.86,1.7,9.81,5.87-1.04,4.57-2.08,9.14-3.11,13.71-1.12.83-2.35,1.54-3.34,2.51-6.79,6.67-12.72,14.59-20.48,19.82-13.33,9-27.74,16.41-41.79,24.33-4.32,2.44-8.6,1.71-10.76-2.34-2.73-5.09-5.19-10.54-6.55-16.13-2.4-9.82-2.1-19.89-.98-29.96.95-8.59,3.25-11.8,11.47-14.42,1.03-.33,1.9-1.16,2.84-1.76h.37s.37,0,.37,0c1.01,0,2.02-.02,3.03-.03.75-.03,1.5-.07,2.24-.1.74.07,1.48.14,2.23.21Z" style="fill: #b9b9b9; stroke-width: 0px;"/>
  <path d="M131.74,554.9c-2.73-4.82-5.46-9.65-8.19-14.47,3.66,1.74,7.33,3.44,10.97,5.21,6.24,3.04,12.29,6.58,18.74,9.07,7.41,2.86,12.64-.23,13.05-7.14.29-4.84.69-9.82-.08-14.56-1.77-10.89-2.03-21.62.9-32.33.25-1.25.51-2.49.76-3.74.47-.33,1.12-.55,1.4-1,2.06-3.36,3.74-7,6.11-10.13,6.95-9.16,16.15-13.07,27.6-10.72,3.83.79,7.57,2.06,11.34,3.11.5.25,1,.5,1.5.75.75.5,1.5,1,2.25,1.49,0,0,0,0,0,0,4,2.75,7.99,5.5,11.99,8.24.25.25.5.5.75.75,3.74,3.5,7.49,7,11.23,10.49.5.75,1.01,1.49,1.51,2.24.5.75,1,1.5,1.5,2.25l1.49,1.51,1.49,1.51c.23,2,.47,3.99.7,5.99-1.99-2.49-3.98-4.99-5.98-7.48-.06-.37,0-.82-.21-1.08-7.21-9.39-15.99-17.03-26.08-23.14-1.43-.87-3.41-.83-5.13-1.2-.98-.3-1.97-.61-2.95-.91-.54-.39-1.08-.78-1.62-1.18-.49-.06-.97-.12-1.46-.18-.28-.41-.57-.82-.85-1.22-.22.37-.44.73-.66,1.1-3.23,0-6.45-.02-9.68-.03-1.17-2.81-2.96-.5-4.47-.54-3.17,1.8-7.04,2.99-9.36,5.56-3.47,3.84-5.85,8.66-8.69,13.06-3.62,3.09-5.93,14.44-3.46,18.1.41.61,2.87.8,3.11.41,2.08-3.46,6.95-5.2,6.45-10.3-.04-.44,1.07-.99,1.64-1.49.16,2.76.32,5.52.48,8.27-.43.84-1.15,1.66-1.21,2.53-.08,1.33.51,2.7.45,4.03-.38,8.84,1.1,17.34,4.41,25.53,2.35,5.81,4.77,11.6,7.16,17.39-.04,1.51-.07,3.01-.11,4.52-3.64-3.42-7.54-6.61-10.86-10.32-3.32-3.72-6.04-3.87-7.63.6-3.15,8.88-10.27,9.37-16.84,6.72-6.69-2.7-13.42-5.29-20.2-7.77-.91-.33-2.18.3-3.28.48Z" style="fill: #828282; stroke-width: 0px;"/>
  <path d="M428.63,225.05c-.74-.07-1.48-.14-2.23-.21-.06-.74.15-1.66-.21-2.21-7.26-11.27-7.35-24.54-10.19-37-1.64-7.19-2.93-14.65-2.9-21.99.03-8.32,1.78-16.62,2.64-24.95.26-2.53.11-5.11.05-7.66-.13-5.34-.42-10.68-.43-16.02,0-1.32.85-2.64,1.31-3.95,2.75,8.16,5.81,16.23,8.21,24.5,8.51,29.31,5.3,59.42,5.75,89.27-.67.07-1.34.14-2.01.21Z" style="fill: #8d8d8c; stroke-width: 0px;"/>
  <path d="M1.46,284c.99-6.33,4.42-11.58,8.93-15.57,8.82-7.8,18.18-15,27.48-22.23,6.17-4.8,12.63-9.23,18.96-13.82.28.4.75.77.79,1.19,1.35,13.09,2,26.2.78,39.33-.23,2.44-.84,4.93-1.76,7.2-1.09,2.7-2.92,4.36-6.28,4.98-6.26,1.15-12.47,2.88-18.47,5.02-6.17,2.2-12.01,5.28-18.08,7.79-5.93,2.45-10.31-.58-10.83-7.06-.19-2.3-1-4.55-1.53-6.82ZM5.83,285.36c.51,1.08,1.01,3.14,2.29,4.37.44.42,3.06-.96,4.32-1.97,2.81-2.25,5.41-4.76,8.06-7.2,7.69-7.08,16.95-10.94,26.85-13.82,2.3-.67,5.11-3.23,5.68-5.44,1.08-4.18.87-8.73.91-13.14.04-5.25-2.08-6.56-6.74-4.02-12.63,6.9-24.29,15.17-33.98,25.86-3.65,4.03-6.57,8.77-7.4,15.36Z" style="fill: #bfbfbf; stroke-width: 0px;"/>
  <path d="M9.04,311.14c-1.25-1.5-2.5-3-3.75-4.49-.75-1-1.5-2-2.25-3-.56-.73-1.12-1.46-1.68-2.19-.46-2.77-.91-5.54-1.37-8.31.54.69,1.31,1.3,1.59,2.09,3.47,9.85,8.72,12.57,18.74,9.49,4.99-1.54,9.85-3.52,14.89-4.83,5.01-1.3,10.14-2.26,15.28-2.88,3.69-.45,7.48-.09,11.43-.09.49.8,1.2,1.95,1.91,3.11.37-.05.73-.1,1.1-.16.6-2.34,1.63-4.66,1.72-7.01.42-10.7.62-21.4.78-32.11.03-1.95-.22-4.02-.87-5.84-1.51-4.27-3.95-8.29-4.89-12.65-1.01-4.68-.73-9.63-1.02-14.47,1.01-2.45,2.01-4.9,3.02-7.35.27,2.03.4,4.1.84,6.09.67,3.09,1.4,6.18,2.38,9.18,1.08,3.3,2.3,6.58,3.74,9.74,3.67,8.03,6.53,16.26,7.18,25.13.04.61.05,1.24-.06,1.84-1.15,6.65-1.97,13.38-3.6,19.91-1.7,6.83-4,13.54-6.42,20.16-1.14,3.11-3.08,3.19-4.63.14-2.66-5.23-6.57-8.47-12.41-8.65-3.27-.1-6.64.44-9.84,1.21-7.7,1.87-15.31,4.14-23.01,6.02-1.82.44-3.86-.04-5.8-.1-1,0-2,0-3,0Z" style="fill: #b4b4b4; stroke-width: 0px;"/>
  <path d="M60.66,227.8c.28,4.83,0,9.79,1.02,14.47.94,4.36,3.38,8.38,4.89,12.65.65,1.83.9,3.89.87,5.84-.16,10.7-.36,21.41-.78,32.11-.09,2.36-1.12,4.68-1.72,7.01-.37.05-.73.1-1.1.16-.71-1.16-1.42-2.32-1.91-3.11-3.95,0-7.74-.36-11.43.09-5.14.62-10.27,1.58-15.28,2.88-5.04,1.31-9.9,3.3-14.89,4.83-10.02,3.08-15.26.36-18.74-9.49-.28-.78-1.05-1.4-1.59-2.09.49-3.05.98-6.1,1.46-9.15.53,2.27,1.34,4.52,1.53,6.82.52,6.48,4.91,9.51,10.83,7.06,6.06-2.51,11.91-5.59,18.08-7.79,6-2.14,12.21-3.87,18.47-5.02,3.36-.62,5.19-2.28,6.28-4.98.92-2.27,1.54-4.76,1.76-7.2,1.21-13.13.56-26.24-.78-39.33-.04-.42-.52-.8-.79-1.19,1.27-1.52,2.55-3.05,3.82-4.57Z" style="fill: #b9b9b9; stroke-width: 0px;"/>
  <path d="M95.85,80.33c.51.93,1.61,2.03,1.41,2.77-.85,3.18-2.28,6.21-3.12,9.4-.86,3.26-1.75,6.63-1.78,9.95-.06,7.1-.27,14.33.94,21.27.74,4.28,3.98,8.13,6.1,12.18-2.04,5-4.07,10-6.11,15-5.73-.98-6.9-6.53-9.01-10.32-3-5.4-4.27-11.79-5.99-17.84-.59-2.07-1.4-3-3.49-2.71,5.36-10.91,10.66-21.86,16.15-32.71,1.27-2.51,3.24-4.67,4.9-6.99Z" style="fill: #bababa; stroke-width: 0px;"/>
  <path d="M68.23,451.25c.49-.46,1.24-.83,1.43-1.39.49-1.4.39-3.11,1.16-4.28,1.78-2.71,3.45-6.47,6.04-7.42,3.26-1.2,5.68,2.49,7.26,5.27,4.84,8.54,9.32,17.28,14.13,25.83,5.3,9.43,10.16,19.21,16.47,27.93,4.64,6.41,10.75,12.14,17.25,16.69,5.77,4.04,13.03,3.94,19.49.17,1.49-.87,2.69-2.58,3.55-4.17,3.6-6.65,6.98-13.42,10.53-20.1.53-.99,1.56-1.72,2.35-2.58-.5,1.38-1.06,2.73-1.49,4.14-.56,1.85-1.01,3.74-1.51,5.61-.25.75-.5,1.5-.76,2.25-.5,1-1,2-1.5,3,0,.25,0,.5,0,.75-.74.88-1.77,1.64-2.15,2.66-1.4,3.71-2.4,7.59-3.9,11.25-3.1,7.59-7.84,10-15.68,7.91-11.59-3.09-19.6-11.15-26.18-20.48-9.72-13.78-16.5-29.2-23.32-44.55-.95-2.14-2.11-4.17-3.18-6.26-.31.12-.63.25-.94.37-.12.7-.25,1.39-.37,2.09-.23-.08-.46-.14-.7-.2,0-.28.02-.55.02-.83-1.05-2.55-1.78-5.29-3.23-7.6-2.09-3.34-4.95-2.8-6.63.83-3.13,6.77-4.15,13.93-4.48,21.28-.08,1.72-.99,3.4-1.52,5.1-.72-7.76-1.44-15.51-2.16-23.27Z" style="fill: #9e9e9e; stroke-width: 0px;"/>
  <path d="M74.81,120.03c2.1-.29,2.91.64,3.49,2.71,1.72,6.05,2.99,12.45,5.99,17.84,2.1,3.79,3.27,9.34,9.01,10.32-2.15,10.2-4.31,20.41-6.46,30.61-1.2-2.17-2.87-4.21-3.51-6.54-2.6-9.39-6.96-17.86-12.65-25.7-.19-.26-.6-.36-.98-.58-1.03.97-2.02,1.91-3.01,2.84.84-10.99,3.82-21.42,8.12-31.51Z" style="fill: #b9b9b9; stroke-width: 0px;"/>
  <path d="M167.12,500.7c-2.93,10.71-2.67,21.44-.9,32.33.77,4.74.37,9.71.08,14.56-.41,6.9-5.64,9.99-13.05,7.14-6.45-2.49-12.5-6.03-18.74-9.07-3.64-1.77-7.31-3.48-10.97-5.21-3.02-6.49-6.05-12.97-9.07-19.46,1.26.71,2.69,1.23,3.74,2.17,3.32,2.97,6.31,6.33,9.77,9.11,6.39,5.13,12.87,10.55,21.2,11.88,7.98,1.27,10.82-.16,11.87-7.22,1.53-10.25,2.1-20.65,3.08-30.98,0-1,0-2,0-2.99.99-.75,1.99-1.5,2.98-2.25Z" style="fill: #8d8d8c; stroke-width: 0px;"/>
  <path d="M407.64,516.43c4.39,1.08,2.7,5.11,3.56,7.77,1.9,5.85,2.88,12.01,4.9,17.81,2.85,8.18,6.3,16.15,9.55,24.19.2.48.81.8,1.23,1.19-.19,4.74-.37,9.49-.56,14.23-1.21-1.61-2.27-3.36-3.65-4.8-7.15-7.45-11.44-16.43-13.99-26.27-1.58-6.08-2.71-12.28-4.05-18.43.75-3.98,1.5-7.97,2.25-11.95.25-1.25.5-2.5.75-3.74Z" style="fill: #686868; stroke-width: 0px;"/>
  <path d="M164.13,505.94c-.98,10.33-1.55,20.73-3.08,30.98-1.05,7.06-3.89,8.5-11.87,7.22-8.33-1.33-14.81-6.75-21.2-11.88-3.46-2.78-6.45-6.14-9.77-9.11-1.05-.94-2.48-1.46-3.74-2.17-2.1-5.26-4.19-10.51-6.29-15.77,1.17.76,2.7,1.26,3.47,2.31,7.81,10.76,16.52,20.45,28.9,26.18,7.06,3.27,16.05,2.8,18.22-7.47.94-4.48,1.87-8.97,2.68-13.48.17-.97-.19-2.04-.31-3.06,0-.5,0-.99,0-1.49,1-.75,1.99-1.5,2.99-2.25Z" style="fill: #919190; stroke-width: 0px;"/>
  <path d="M99.84,512.9c-.77,1.47-1.55,2.93-2.32,4.4-1.52-4.37-3.02-8.75-4.57-13.11-.52-1.46-1.16-2.87-1.74-4.3-.51.03-1.02.07-1.53.1-2.23,6.36-4.47,12.73-6.7,19.09-.43-.6-.86-1.21-1.3-1.81.63-3.52,1.38-7.02,1.88-10.55.96-6.71,2.52-13.44,2.46-20.16-.07-7.84-1.67-15.67-2.45-23.51-.19-1.95-1.78-4.39,1.18-5.77.24,1.24.48,2.48.73,3.72-.48,4.75,1.71,8.45,5.36,13.3,1.15-1.72,2.01-3.01,2.87-4.3l4.49,10.49c-.5,1.17-1.43,2.35-1.41,3.51.06,4.46.24,8.94.73,13.37.58,5.21,1.53,10.37,2.32,15.55Z" style="fill: #686868; stroke-width: 0px;"/>
  <path d="M328.95,484.16c-4.23,3.31-8.46,6.63-12.69,9.94.31-.93.38-2.08.98-2.76,4.79-5.4,9.55-10.86,16.52-13.61,8.39-3.32,14.25-2.01,18.98,5.69,4.71,7.66,8.44,15.94,12.52,23.98,4.43,8.73,8.53,17.63,13.29,26.17,1.3,2.32,4.38,4.87,6.83,5.07,5.36.45,11.09,2.15,16.26-1.22-.26,1.24-.51,2.49-.77,3.73-1,1.49-2.01,2.98-3.01,4.47-.49.27-.97.54-1.46.8-4-.5-8-1.01-12-1.51-.24,0-.49-.01-.73-.02-2.31-2.85-4.79-5.57-6.89-8.57-5.86-8.37-9.73-17.73-13.3-27.25-1.38-3.69-3.51-7.09-5.3-10.62-.98-1.27-1.97-2.54-2.95-3.81-.52-1.23-1.04-2.45-1.55-3.68-.48-.52-.96-1.05-1.44-1.57-2.02-2.47-4.04-4.94-6.06-7.41-2.32-3.27-9.76-3.31-12.77-.08-.74.26-1.48.52-2.22.78-.75.49-1.5.99-2.25,1.48Z" style="fill: #686868; stroke-width: 0px;"/>
  <path d="M401.65,537.42c-5.16,3.37-10.89,1.67-16.26,1.22-2.45-.2-5.53-2.75-6.83-5.07-4.77-8.53-8.87-17.44-13.29-26.17-4.08-8.05-7.81-16.32-12.52-23.98-4.73-7.7-10.59-9.01-18.98-5.69-6.98,2.76-11.74,8.22-16.52,13.61-.6.68-.67,1.83-.98,2.76-2.7,3.98-5.4,7.96-8.1,11.93-.13-.63-.57-1.4-.34-1.86,5.35-10.98,11.61-21.23,22.83-27.29,10.47-5.65,16.67-4.45,23.59,5.54,4.69,6.77,7.75,14.67,11.54,22.06,4.18,8.16,8.14,16.46,12.62,24.45,2.76,4.92,5.44,5.49,10.67,3.88,2.11-.65,4.34-.94,6.51-1.41,3.35-.72,5.85-2.45,7.46-5.62,1.02-2,2.55-3.75,3.84-5.61-.75,3.98-1.5,7.97-2.25,11.95-.99,1.76-1.99,3.53-2.98,5.29Z" style="fill: #737372; stroke-width: 0px;"/>
  <path d="M131.74,554.9c1.1-.18,2.36-.81,3.28-.48,6.77,2.48,13.51,5.07,20.2,7.77,6.56,2.65,13.68,2.16,16.84-6.72,1.59-4.47,4.31-4.32,7.63-.6,3.32,3.71,7.22,6.9,10.86,10.32-.28,1.74-.55,3.48-.83,5.22-3.18-1.35-6.65-2.26-9.46-4.16-2.95-1.98-5.3-2.02-8.19-.27-3.78,2.29-7.87,2.82-12.19,1.59-3.93-1.12-7.86-2.23-11.84-3.16-3.71-.86-7.48-1.47-11.22-2.19-1.69-2.44-3.38-4.88-5.07-7.33Z" style="fill: #7a7b7a; stroke-width: 0px;"/>
  <path d="M395.79,590.57c-1.82-2.94-3.64-5.88-5.46-8.82.52-1.43,1.46-2.85,1.5-4.29.17-6.08,0-12.17.11-18.25.05-2.62.49-5.23.78-8.16-1.48.32-2.31.5-3.14.68l-7.9-2.38c-.85-.95-1.71-1.91-2.56-2.86,1.35.03,2.78-.21,4.04.16,2.48.73,4.85,1.8,7.27,2.73,1.99-.49,3.98-.99,5.97-1.48,1.94,10.9,3.32,21.95,5.99,32.67,2.36,9.47,7.95,12.92,17.73,13.06l-4.08,2.27c-11.46-.3-14.14-9.64-18.48-17.74-.52,2.93-.73,5.81-.43,8.63.18,1.65.95,3.14-1.33,3.78Z" style="fill: #373737; stroke-width: 0px;"/>
  <path d="M401.65,537.42c.99-1.76,1.99-3.53,2.98-5.29,1.34,6.15,2.47,12.34,4.05,18.42,2.55,9.84,6.84,18.82,13.99,26.27,1.38,1.44,2.44,3.19,3.65,4.8-.5,1.25-1,2.5-1.5,3.75-8.92-3.57-16.26-8.81-18.3-18.89-1.42-7.01-2.19-14.15-3.45-21.19-.26-1.46-1.43-2.77-2.19-4.14.26-1.24.51-2.49.77-3.73Z" style="fill: #5d5d5d; stroke-width: 0px;"/>
  <path d="M400.88,541.15c.75,1.38,1.92,2.68,2.19,4.14,1.27,7.04,2.03,14.18,3.45,21.19,2.04,10.08,9.38,15.32,18.3,18.89-.93,2.08-1.87,4.16-2.8,6.24-1.17-.6-2.27-1.38-3.51-1.76-6.46-1.97-11.75-5.25-14.21-11.95-3.18-8.65-4.95-17.54-4.98-26.79,0-1.84-.94-3.67-1.45-5.5,1-1.49,2.01-2.98,3.01-4.47Z" style="fill: #555; stroke-width: 0px;"/>
  <path d="M161.14,509.69c.12,1.02.48,2.09.31,3.06-.81,4.51-1.74,8.99-2.68,13.48-2.17,10.27-11.15,10.74-18.22,7.47-12.38-5.73-21.09-15.42-28.9-26.18-.76-1.05-2.29-1.55-3.47-2.31-1.32-2.73-2.63-5.46-3.95-8.19-.27-1.42-.41-2.88-.84-4.25-.91-2.87-1.98-5.7-2.98-8.54.8.84,1.85,1.55,2.36,2.53,1.37,2.64,2.33,5.5,3.79,8.09,5.42,9.66,11.54,18.88,20.35,25.78,4.34,3.39,9.1,7.04,14.24,8.43,9.52,2.57,12.7,1.26,16.21-7.8,1.47-3.78,2.53-7.71,3.78-11.57Z" style="fill: #969696; stroke-width: 0px;"/>
  <path d="M136.81,562.23c3.74.72,7.51,1.33,11.22,2.19,3.98.92,7.91,2.03,11.84,3.16,4.31,1.23,8.41.7,12.19-1.59,2.89-1.75,5.24-1.71,8.19.27,2.81,1.89,6.28,2.81,9.46,4.16-.75,1.79-1.49,3.58-2.24,5.37-4.15-1.3-8.23-3.09-12.49-3.75-3.28-.51-6.82.91-10.17.59-7.24-.7-14.43-1.96-21.64-2.98-2.12-2.47-4.25-4.94-6.37-7.41Z" style="fill: #737372; stroke-width: 0px;"/>
  <path d="M84.75,457.27c-2.96,1.38-1.37,3.82-1.18,5.77.78,7.85,2.38,15.67,2.45,23.51.06,6.71-1.5,13.45-2.46,20.16-.5,3.53-1.25,7.03-1.88,10.55-1.05-1.92-2.1-3.85-3.14-5.77.3-1.18.79-2.35.85-3.54.29-5.37.35-10.75.71-16.11.31-4.66,1.23-9.3,1.32-13.96.13-6.55-.44-13.11-.35-19.67.04-2.41.82-5.1,4.37-4.7.27.46.53.93.8,1.39,0,.28-.02.55-.02.83-.49.51-.98,1.03-1.47,1.54Z" style="fill: #7a7b7a; stroke-width: 0px;"/>
  <path d="M85.44,453.51c-3.55-.4-4.33,2.29-4.37,4.7-.1,6.55.48,13.12.35,19.67-.09,4.66-1.01,9.3-1.32,13.96-.36,5.36-.42,10.74-.71,16.11-.06,1.19-.56,2.36-.85,3.54-1.41-4.34-2.81-8.68-4.22-13.02.45-1.36,1.26-2.72,1.29-4.09.18-7.61-.08-15.24.32-22.83.27-5.16,1.13-10.32,2.22-15.38.42-1.98,2.19-3.66,3.35-5.48,1.31.95,2.63,1.89,3.94,2.84Z" style="fill: #868686; stroke-width: 0px;"/>
  <path d="M85.44,453.51c-1.31-.95-2.63-1.89-3.94-2.84-1.16,1.82-2.93,3.51-3.35,5.48-1.09,5.06-1.95,10.22-2.22,15.38-.4,7.6-.14,15.22-.32,22.83-.03,1.37-.84,2.73-1.29,4.09-1.31-7.98-2.62-15.96-3.93-23.94.53-1.7,1.44-3.38,1.52-5.1.33-7.36,1.35-14.52,4.48-21.28,1.68-3.63,4.53-4.17,6.63-.83,1.44,2.3,2.18,5.05,3.23,7.6-.27-.46-.53-.93-.8-1.39Z" style="fill: #969696; stroke-width: 0px;"/>
  <path d="M256.82,538.27c.49-2.59.97-5.18,1.57-8.37.85.77,1.74,1.31,2.26,2.1,2.26,3.39,5.28,4.64,9.41,4.78,7.83.26,14.58-1.9,19.65-7.85,2.18-2.57,3.64-5.88,4.92-9.06,3.33-8.27,6.1-16.77,9.67-24.93,1.48-3.39,4.41-6.16,6.69-9.21-1.88,3.55-4.06,6.98-5.59,10.67-2.6,6.27-4.74,12.73-7.18,19.07-2.08,5.39-3.84,10.98-6.58,16.03-3.82,7.05-11.25,8.11-18.28,8.75-3.1.28-6.64-.79-9.5-2.22-3.11-1.56-4.52-1.71-4.76,2.16-.03.45-.79.85-1.21,1.27-.36-1.06-.72-2.11-1.08-3.17Z" style="fill: #8d8d8c; stroke-width: 0px;"/>
  <path d="M390.43,549.37c-2.42-.93-4.79-2-7.27-2.73-1.25-.37-2.69-.13-4.04-.16-3.63-4.83-7.8-9.35-10.78-14.55-4.97-8.69-9.17-17.81-13.69-26.75,1.05.15,2.1.3,3.8.53-1.15-3.97-2.18-7.52-3.2-11.07.98,1.27,1.97,2.54,2.95,3.81,1.35,3.7,2.54,7.47,4.08,11.1,3.52,8.29,6.69,16.79,11.05,24.63,2.33,4.2,6.83,7.19,10.35,10.72.24,0,.49,0,.73.02,1.05.73,2.11,1.44,3.13,2.2.98.73,1.92,1.51,2.88,2.26Z" style="fill: #474747; stroke-width: 0px;"/>
  <path d="M3.36,308.93c.7.55,1.61.96,2.05,1.67,3.54,5.69,12.74,9.53,20.3,6.94,6.92-2.37,14.01-4.27,21.11-6.08,7.19-1.84,12.32,1.5,13.74,8.71.18.94-.44,2.03-.69,3.05-.48-.7-.95-1.4-1.43-2.1-1.34-5.89-3.43-7.29-9.18-6-1.56.35-3.03,1.06-4.59,1.42-6.33,1.49-12.64,3.15-19.04,4.28-6.03,1.06-11.69-.65-16.96-3.64-1.77-2.75-3.53-5.5-5.3-8.24Z" style="fill: #969696; stroke-width: 0px;"/>
  <path d="M307.99,496.95c-1.49,4.18-3.33,8.27-4.39,12.56-1.36,5.49-1.92,11.18-3.14,16.71-2.59,11.75-11.34,18.07-23.65,18.62-4.06.18-8.16-.62-12.21-.36-1.15.07-2.15,2.32-3.22,3.56-.79-1.26-1.57-2.51-2.36-3.77,1.65-3.51,3.74-3.95,7.55-2.48,11.87,4.57,29.05-2.43,31.81-19.08,1.28-7.72,4.32-15.16,6.76-22.66.4-1.22,1.87-2.08,2.84-3.11Z" style="fill: #828282; stroke-width: 0px;"/>
  <path d="M143.18,569.64c7.21,1.03,14.4,2.29,21.64,2.98,3.34.32,6.89-1.09,10.17-.59,4.25.66,8.33,2.45,12.49,3.75-.95,1.16-1.91,2.33-2.86,3.49-3.37-.72-6.71-1.79-10.11-2.08-6.14-.52-12.33-.58-18.49-.82-1.77-.07-3.55-.07-5.32-.1-2.5-2.21-5.01-4.43-7.51-6.64Z" style="fill: #5d5d5d; stroke-width: 0px;"/>
  <path d="M473.88,275.13c-6.14,5.34-12.17,10.81-18.46,15.97-5.86,4.81-12.04,9.22-17.97,13.96-1.61,1.29-2.81,3.09-4.2,4.66-.46-.92-.96-1.82-1.35-2.77-.34-.82-.56-1.7-.83-2.55.23-.47.47-.95.71-1.42.97-.45,1.94-.91,2.91-1.36,1.98,1.12,2.65.04,2.92-1.72,5-3.74,10-7.47,15.01-11.21.52-.47,1.05-.95,1.57-1.42.24-.25.48-.5.72-.74.99-.77,1.97-1.53,2.96-2.3.75-.51,1.49-1.02,2.24-1.53,1.99-1.26,3.99-2.51,5.98-3.77,2.6-1.27,5.2-2.53,7.79-3.8Z" style="fill: #474747; stroke-width: 0px;"/>
  <path d="M397.87,545.62c.51,1.83,1.45,3.67,1.45,5.5.03,9.25,1.8,18.14,4.98,26.79,2.46,6.7,7.75,9.98,14.21,11.95,1.23.38,2.34,1.16,3.51,1.76-.63.67-1.27,1.34-1.9,2.01-9.77-.14-15.37-3.59-17.73-13.06-2.67-10.72-4.05-21.76-5.99-32.67,0-.49,0-.98.01-1.47.49-.27.97-.54,1.46-.8Z" style="fill: #474747; stroke-width: 0px;"/>
  <path d="M261.38,548.01c4.25-3.14,8.91-.81,13.29-.7,7.25.18,13.86-1.51,20.2-4.69,3-1.51,5.67-2.08,8.6.23,1.61,1.27,3.68,1.95,5.54,2.89-.85,1.45-1.7,2.9-2.54,4.36-4.46-2.63-9.3-2.41-14.18-1.84-5.14.6-10.26,1.5-15.42,1.72-4.73.21-9.49-.3-14.24-.5-.41-.49-.83-.98-1.24-1.47Z" style="fill: #737372; stroke-width: 0px;"/>
  <path d="M355.24,494.64c1.03,3.55,2.05,7.1,3.2,11.07-1.7-.24-2.75-.39-3.8-.53-.2-.17-.28-.38-.25-.63-.43-.79-.86-1.57-1.29-2.36-1.11-2.03-2-4.24-3.38-6.07-2.7-3.58-5.43-7.21-8.62-10.33-2.67-2.62-6.36-2.39-9.87-1.66,0-.48-.02-.97-.03-1.45.74-.26,1.48-.52,2.22-.78,4.26.03,8.51.06,12.77.08,2.02,2.47,4.04,4.94,6.06,7.41.48.52.96,1.05,1.44,1.57.52,1.23,1.04,2.45,1.55,3.68Z" style="fill: #373737; stroke-width: 0px;"/>
  <path d="M253.7,524.78c.11,1.03.22,2.06.33,3.1-12.19-2.51-22.14-9.08-30.99-17.45-3.93-3.72-7.38-7.94-11.05-11.94.29-.3.58-.61.87-.91,1.5,1.28,3.01,2.57,4.51,3.85,2.74,2.24,5.48,4.49,8.22,6.73.49.26.99.52,1.48.78.76.74,1.51,1.48,2.27,2.21.24.01.48.02.73.04,1.51,1.23,3.02,2.45,4.53,3.68.48.02.97.05,1.45.07.51.48,1.02.97,1.53,1.45.74.26,1.48.52,2.23.78,3.08,4.69,8.1,5.53,13.02,6.58.29.34.58.68.86,1.02Z" style="fill: #373737; stroke-width: 0px;"/>
  <path d="M190.66,560.67c-2.39-5.8-4.81-11.58-7.16-17.39-3.31-8.19-4.79-16.69-4.41-25.53.06-1.34-.53-2.7-.45-4.03.05-.86.78-1.69,1.21-2.53,2.5,10.65,5.09,21.27,7.47,31.95,1.29,5.8,2.24,11.69,3.34,17.53Z" style="fill: #919190; stroke-width: 0px;"/>
  <path d="M8.66,317.18c5.28,2.99,10.93,4.7,16.96,3.64,6.4-1.13,12.71-2.79,19.04-4.28,1.56-.37,3.03-1.07,4.59-1.42,5.76-1.29,7.84.11,9.18,6-3.38-2.23-6.92-2.91-10.97-1.87-7.07,1.82-14.18,3.62-21.37,4.84-7,1.19-12.92-1.35-17.44-6.92Z" style="fill: #7a7b7a; stroke-width: 0px;"/>
  <path d="M466.08,278.92c-1.99,1.26-3.99,2.51-5.98,3.77.97-1.36,1.77-2.89,2.95-4.04,4.22-4.13,8.6-8.09,12.83-12.2.92-.89,1.48-2.16,2.2-3.26.24-.26.48-.51.72-.77,1.51-1.99,3.02-3.99,4.52-5.98.25-.49.51-.98.76-1.48.49-.51.98-1.02,1.47-1.52.02-.24.03-.48.04-.71.38-.2.77-.4,1.15-.61-.37-.34-.73-.69-1.1-1.03,0-.21,0-.41,0-.62.49-.73.98-1.47,1.47-2.2.72-.53,1.45-1.05,2.17-1.58.27-.73.54-1.47.81-2.2,1.26-1.02,2.53-2.04,3.79-3.06-1.9,8.96-5.97,16.83-11.84,23.82-.56.63-1.12,1.25-1.68,1.88-.18.2-.37.4-.55.6-4.57,3.73-9.15,7.46-13.72,11.19Z" style="fill: #828282; stroke-width: 0px;"/>
  <path d="M100.41,484.23c1,2.84,2.07,5.67,2.98,8.54.43,1.37.57,2.83.84,4.25-1.47,5.29-2.93,10.59-4.4,15.88-.79-5.18-1.74-10.35-2.32-15.55-.49-4.43-.67-8.91-.73-13.37-.02-1.16.92-2.34,1.41-3.51.74,1.25,1.48,2.51,2.22,3.76Z" style="fill: #7a7b7a; stroke-width: 0px;"/>
  <path d="M82.97,519.07c2.23-6.36,4.47-12.73,6.7-19.09.51-.03,1.02-.07,1.53-.1.58,1.43,1.22,2.85,1.74,4.3,1.55,4.36,3.05,8.74,4.57,13.11-.85.99-1.7,1.98-2.55,2.97-1.13-.86-2.47-1.54-3.35-2.61-2.08-2.52-3.9-2.29-5.6.24-.6.9-.88,2.02-1.3,3.04-.58-.62-1.15-1.25-1.73-1.87Z" style="fill: #5d5d5d; stroke-width: 0px;"/>
  <path d="M395.79,590.57c2.28-.64,1.51-2.13,1.33-3.78-.3-2.83-.08-5.71.43-8.63,4.35,8.1,7.03,17.44,18.48,17.74-3.38,3.74-7.75,3.29-11.48,1.58-3.29-1.51-5.87-4.54-8.77-6.9Z" style="fill: #191919; stroke-width: 0px;"/>
  <path d="M179.36,502.92c-.57.5-1.68,1.05-1.64,1.49.49,5.1-4.37,6.84-6.45,10.3-.23.39-2.7.2-3.11-.41-2.47-3.66-.16-15.01,3.46-18.1.25,1.82.5,3.64.74,5.46,1.64-.57,3.28-1.15,4.92-1.71.8-.27,1.6-.5,2.41-.75-.11,1.24-.22,2.49-.33,3.73Z" style="fill: #737372; stroke-width: 0px;"/>
  <path d="M179.69,499.19c-.8.25-1.61.48-2.41.75-1.64.56-3.28,1.14-4.92,1.71-.25-1.82-.5-3.64-.74-5.46,2.84-4.4,5.22-9.22,8.69-13.06,2.32-2.57,6.18-3.75,9.36-5.56-.77.72-1.52,1.46-2.31,2.16-2.59,2.27-5.44,4.3-7.72,6.84-2.36,2.63-1.43,4.96,1.88,5.95-.61,2.22-1.22,4.44-1.83,6.66Z" style="fill: #686868; stroke-width: 0px;"/>
  <path d="M381.69,549.34c2.63.79,5.27,1.59,7.91,2.38-.98,6.97-1.96,13.94-2.94,20.91-1.66-7.76-3.31-15.53-4.97-23.29Z" style="fill: #5d5d5d; stroke-width: 0px;"/>
  <path d="M262.63,549.49c4.75.19,9.51.7,14.24.5,5.15-.23,10.28-1.12,15.42-1.72,4.88-.57,9.72-.8,14.18,1.84-.33.29-.66.59-1,.88-7.74.22-15.48.42-23.22.69-1.17.04-2.33.44-3.49.68-.53.46-1.06.92-1.59,1.38l-1.38-.6c0-.26.01-.52.02-.77-.76-.25-1.52-.49-2.29-.74-1.23,0-2.47,0-3.7-.01-.45-.44-.9-.88-1.35-1.32l-.98,1.33c-.84.03-1.67.07-2.51.1-.79-.74-1.57-1.48-2.36-2.22Z" style="fill: #686868; stroke-width: 0px;"/>
  <path d="M386.65,572.63c.98-6.97,1.96-13.94,2.94-20.91.83-.18,1.65-.36,3.13-.68-.29,2.93-.73,5.54-.78,8.16-.11,6.08.06,12.17-.11,18.25-.04,1.44-.98,2.86-1.5,4.29-1.23-3.04-2.45-6.08-3.68-9.12Z" style="fill: #474747; stroke-width: 0px;"/>
  <path d="M150.69,576.28c1.77.03,3.55.03,5.32.1,6.17.23,12.35.3,18.49.82,3.4.29,6.74,1.36,10.11,2.08-1.58,1.04-3.15,2.08-4.73,3.12-7.43-3.67-15.26-3.54-23.18-2.41l-6.02-3.71Z" style="fill: #474747; stroke-width: 0px;"/>
  <path d="M205.31,478.27c.49.06.97.12,1.46.17.54.39,1.08.79,1.62,1.18.98.3,1.97.61,2.95.91,1.14,1.51.85,2.27-1.1,1.94-1.89-.33-3.76-.81-5.64-1.23-1.01-.02-2.02-.05-3.03-.07-.48,0-.97.01-1.45.02-.55.04-1.1.08-1.65.11-5.52-.36-9.37,2.96-13.31,6.08.34-1.02.38-2.38,1.08-3,2.51-2.22,5.24-4.19,7.89-6.25,3.23,0,6.45.02,9.68.03.5.04,1,.08,1.51.12Z" style="fill: #373737; stroke-width: 0px;"/>
  <path d="M156.7,579.99c7.93-1.12,15.75-1.26,23.18,2.41-8.16,3.38-15.76,1.35-23.18-2.41Z" style="fill: #191919; stroke-width: 0px;"/>
  <path d="M194.13,478.12c-2.65,2.06-5.38,4.03-7.89,6.25-.7.62-.74,1.98-1.08,3-1.21,1.72-2.43,3.43-3.64,5.15-3.31-.98-4.24-3.32-1.88-5.95,2.28-2.54,5.13-4.57,7.72-6.84.79-.69,1.54-1.44,2.31-2.16,1.51.05,3.3-2.27,4.47.54Z" style="fill: #555; stroke-width: 0px;"/>
  <path d="M275.79,553.12c.46.2.92.4,1.39.6.53.06,1.06.11,1.6.16,1,.24,2,.48,2.99.73.51.24,1.02.48,1.53.72,1.24.03,2.48.05,3.71.08,2-.02,4-.04,6-.05.73-.02,1.46-.04,2.19-.06.26.26.52.53.79.79-8.91,2.66-17.67,2.64-26.19-1.53.02-.22.02-.43,0-.65,2-.26,4-.53,6-.79Z" style="fill: #191919; stroke-width: 0px;"/>
  <path d="M295.19,555.3c-.73.02-1.46.04-2.19.06-1.24-.25-2.48-.5-3.72-.75-1.7-2.7-3.88-1.54-6.02-.74-.5.25-1,.49-1.5.74-1-.24-2-.48-2.99-.73,0-.51,0-1.03,0-1.54,1.16-.23,2.32-.64,3.49-.68,7.74-.27,15.48-.47,23.22-.69-1.89,1.25-3.78,2.51-5.67,3.76-.52-.28-1.03-.57-1.55-.85-1.01.24-2.01.48-3.02.72-.02.23-.03.47-.04.7Z" style="fill: #555; stroke-width: 0px;"/>
  <path d="M431.07,304.39c.27.85.49,1.72.83,2.55.39.95.9,1.85,1.35,2.77-1.13,1.7-2.27,3.41-3.4,5.11-.89.8-1.77,1.6-2.66,2.39-1.53-2.18-1.55-4.32-.21-6.67.62-1.09.64-2.52.93-3.8-.03-.29-.05-.58-.08-.86.26-.25.51-.51.77-.76.82-.24,1.64-.48,2.46-.73Z" style="fill: #5d5d5d; stroke-width: 0px;"/>
  <path d="M84.71,520.94c.43-1.02.7-2.14,1.3-3.04,1.7-2.53,3.51-2.77,5.6-.24.88,1.07,2.22,1.75,3.35,2.61-3.84,3.73-5.78,3.86-10.25.68Z" style="fill: #373737; stroke-width: 0px;"/>
  <path d="M309.47,543.41c-1.36-2.5-2.94-4.91-4.02-7.53-.93-2.26-1.5-4.73-1.82-7.16-.13-1.03.81-2.2,1.27-3.3,1.33,3.94,2.81,7.85,3.94,11.85.55,1.95.44,4.09.63,6.14Z" style="fill: #828282; stroke-width: 0px;"/>
  <path d="M466.08,278.92c4.57-3.73,9.15-7.46,13.72-11.19-1.98,2.47-3.95,4.93-5.93,7.4-2.6,1.27-5.2,2.53-7.79,3.8Z" style="fill: #5d5d5d; stroke-width: 0px;"/>
  <path d="M493.88,241.43c-1.26,1.02-2.53,2.04-3.79,3.06-.04-.52-.07-1.04-.11-1.56,1.04-4.57,2.08-9.14,3.11-13.71,2.41,3.93,1.89,8.06.79,12.22Z" style="fill: #9e9e9e; stroke-width: 0px;"/>
  <path d="M200.11,481.18c.48,0,.97-.01,1.45-.01.91,1.29,1.78,2.6,2.72,3.86,1.32,1.75,2.7,3.46,4.05,5.18-.81.35-1.62.7-2.44,1.05-2.14-2.86-4.28-5.73-6.42-8.59.21-.5.42-.99.63-1.49Z" style="fill: #555; stroke-width: 0px;"/>
  <path d="M205.9,491.26c.81-.35,1.62-.7,2.44-1.05.25.25.5.5.75.75,1.26,2.2,2.52,4.41,3.78,6.61l-.88.91c-2.03-2.41-4.06-4.81-6.08-7.22Z" style="fill: #474747; stroke-width: 0px;"/>
  <path d="M275.79,553.12c-2,.26-4,.53-6,.79-.5-.02-.99-.05-1.49-.07-1.1-.71-2.21-1.43-3.31-2.14.84-.03,1.67-.07,2.51-.1.78,0,1.55,0,2.33,0,1.23,0,2.47,0,3.7.01.76.25,1.52.49,2.29.74,0,.26-.01.52-.02.77Z" style="fill: #474747; stroke-width: 0px;"/>
  <path d="M298.25,553.88c.52.28,1.03.57,1.55.85-1.27.45-2.55.91-3.82,1.36-.26-.26-.52-.52-.79-.79,0-.23.02-.47.04-.7,1.01-.24,2.01-.48,3.02-.72Z" style="fill: #373737; stroke-width: 0px;"/>
  <path d="M331.2,482.67c0,.48.02.97.03,1.45-.76.01-1.52.02-2.28.03.75-.49,1.5-.99,2.25-1.48Z" style="fill: #555; stroke-width: 0px;"/>
  <path d="M1.37,301.46c.56.73,1.12,1.46,1.68,2.19-.46-.24-.92-.48-1.38-.71-.1-.49-.2-.98-.29-1.48Z" style="fill: #b0b0b0; stroke-width: 0px;"/>
  <path d="M353.11,502.18c.43.79.86,1.57,1.29,2.36-.43-.79-.86-1.57-1.29-2.36Z" style="fill: #474747; stroke-width: 0px;"/>
  <path d="M480.35,267.12c.56-.63,1.12-1.25,1.68-1.88-.56.62-1.12,1.25-1.68,1.88Z" style="fill: #5d5d5d; stroke-width: 0px;"/>
  <path d="M268.3,553.85c.5.02.99.05,1.49.07.02.22.03.43,0,.65-.5-.24-1-.48-1.49-.72Z" style="fill: #373737; stroke-width: 0px;"/>
  <path d="M200.11,481.18c-.21.5-.42.99-.63,1.49-.34-.46-.68-.92-1.02-1.38.55-.04,1.1-.08,1.65-.11Z" style="fill: #5d5d5d; stroke-width: 0px;"/>
  <path d="M167.43,212.12c2.93,2.9,7.06,2.2,10.52,3.52.22.08.48.04.98.08.68-2.53,2.14-4.09,5.17-3.65.74.11,1.86-.74,2.43-1.45,1.7-2.14,4.1-4.25,4.59-6.71.67-3.35,3.36-3.97,5.12-5.87,4.45-4.79,8.51-9.94,12.78-14.89,3.11-3.61,6.26-7.2,9.54-10.65.76-.8,2.13-1,3.22-1.48-.13,1.24-.22,2.48-.38,3.71-3.6,26.64-.74,51.57,19.11,71.98-1.66.78-3.31,1.57-4.95,2.34,1.43,4.02.15,7.62-3.42,10.88-.79.72-1.05,2.05-1.45,3.14-.5,1.35-.78,2.79-1.33,4.12-.95,2.24-1.85,4.53-3.11,6.6-2.29,3.76-4.84,7.36-7.24,11.04-1.89,2.9-3.74,5.82-5.61,8.74-2.77,4.31-5.54,8.62-8.31,12.94-.07.1-.15.21-.26.27-4.04,1.96-6.28,5.03-6.36,9.66,0,.49-1.4,1.4-2.11,1.37-3.58-.18-5.09,2.08-6.83,4.7-1.19,1.8-3.29,3.58-5.32,4.14-6.15,1.7-12.46,2.87-18.74,4.06-.97.18-2.2-.42-3.16-.93-2.09-1.12-4.09-2.42-6.12-3.66-1.95-1.19-4.61-1.96-5.64-3.7-1.4-2.36-3.08-3.05-5.39-3.01-2.23.04-3.6-.55-3.59-3.11,0-.74-.56-1.82-1.19-2.17-4.98-2.83-5.46-8.64-8.54-12.7-.89-1.18-1.4-2.8-2.52-3.62-2.44-1.79-3.6-4.13-4.63-6.88-1.9-5.06-4.42-9.89-6.41-14.92-1.76-4.43-3.24-8.98-4.63-13.54-.28-.93.42-2.15.66-3.24,2.66.53,5.37,1.72,7.96,1.48,9.02-.81,17.21-3.95,24.18-9.96,11.87-10.24,17.61-23.78,20.98-38.63Z" style="fill: #b9b9b9; stroke-width: 0px;"/>
  <path d="M167.43,212.12c-3.37,14.84-9.1,28.39-20.98,38.63-6.97,6.01-15.16,9.15-24.18,9.96-2.59.23-5.3-.95-7.96-1.48-12.06-4.76-18.4-14.13-22.2-26.12-3.42-10.77-4.91-21.69-5.06-32.89-.09-6.23-.15-12.47-.22-18.7,2.15-10.2,4.31-20.41,6.46-30.61,2.04-5,4.07-10,6.11-15,3.69-7.78,8.68-14.56,15.37-20.04,1.15-.73,2.29-1.47,3.44-2.2,10.34-6.53,20.84-4.99,28.47,4.61,2.98,3.76,5.75,7.9,7.61,12.29,3.86,9.1,7.05,18.49,10.51,27.76,1.43,9.52,3.16,19.01,4.16,28.58.56,5.38-.1,10.9-.21,16.35-.31,2.5-.61,5-.92,7.5-.13.46-.27.92-.4,1.38Z" style="fill: #191919; stroke-width: 0px;"/>
  <path d="M240.52,246.71c-19.85-20.41-22.71-45.34-19.11-71.98.17-1.23.26-2.47.38-3.71,2.06-7.02,3.51-14.29,6.32-21,6.01-14.33,13.56-27.86,26.5-37.23,12.7-9.2,26.31-10.33,40.42-3.12.54.28,1.14.45,1.71.67,8.72,5.65,15.47,13.25,21.41,21.64.9,1.76,1.79,3.53,2.69,5.29-4.06-.96-7.02.26-7.5,3.56-.74,5.17-1.92,10.13-5,14.42-2.63,3.68-2.92,8.38-6.39,11.97-1.88,1.94-4.85,4.42-4.98,8.52-.07,2.29-2.88,5.24-5.21,6.54-3.88,2.17-5.71,4.85-5.55,9.19.04,1.11-.19,2.62-.91,3.31-3.29,3.18-5.84,7.15-10.02,9.43-.76.41-1.03,1.66-1.62,2.45-2.02,2.69-4.05,5.37-6.17,7.98-.32.39-1.14.58-1.7.54-4.2-.26-5.09,2.63-5.76,5.84-.27,1.31-.79,3.69-1.16,3.68-3.85-.09-5.59,2.01-7.03,5.23-.41.91-2.83.9-4.31,1.31.86,3.89.08,6.46-3.57,7.83-.84.31-1.54,1.63-1.83,2.63-.49,1.64-.59,3.4-.85,5.11-.25-.03-.5-.07-.75-.1Z" style="fill: #171717; stroke-width: 0px;"/>
  <path d="M241.27,246.82c.26-1.71.37-3.46.85-5.11.29-1,.99-2.32,1.83-2.63,3.65-1.37,4.43-3.94,3.57-7.83,1.47-.41,3.9-.4,4.31-1.31,1.45-3.21,3.18-5.32,7.03-5.23.36,0,.89-2.37,1.16-3.68.67-3.22,1.56-6.1,5.76-5.84.57.04,1.38-.15,1.7-.54,2.12-2.61,4.15-5.29,6.17-7.98.59-.79.86-2.04,1.62-2.45,4.18-2.27,6.73-6.24,10.02-9.43.72-.69.95-2.2.91-3.31-.16-4.35,1.67-7.03,5.55-9.19,2.33-1.3,5.14-4.25,5.21-6.54.13-4.11,3.1-6.59,4.98-8.52,3.48-3.59,3.76-8.29,6.39-11.97,3.07-4.29,4.26-9.25,5-14.42.47-3.3,3.44-4.51,7.5-3.56,1.76,3.26,3.52,6.51,5.27,9.77,1.96,5.75,3.92,11.49,5.89,17.24,1.12,8.12,2.83,16.2,3.23,24.36.81,16.43-2.03,32.26-10.42,46.71-1.68,2.9-3.76,5.56-5.66,8.32-.48.48-.96.96-1.44,1.45-2.07,1.99-4.14,3.99-6.21,5.98-2.69,1.68-5.39,3.35-8.08,5.03-7.79,3.74-16.01,5.63-24.65,5.72-12.75-.21-24.27-3.95-34.27-11.99-1.15-.92-2.16-2.02-3.23-3.04Z" style="fill: #131313; stroke-width: 0px;"/>
  <path d="M303.41,256.14c2.69-1.68,5.39-3.35,8.08-5.03,1.55-.32,3.09-.81,4.66-.92,1.39-.1,3.02-.16,4.12.48.54.32.31,2.31.1,3.48-1.07,5.94-2.14,11.89-3.42,17.78-.88,4.05-2.14,8.01-3.19,12.02-.25.95-.59,1.97-.48,2.9.67,5.68-1.9,10.65-3.29,15.89-2.02,7.62-3.73,15.32-5.79,22.92-1.43,5.29-3.38,10.43-4.83,15.71-1.23,4.45-1.89,9.06-3.16,13.5-1.08,3.78-2.81,7.38-3.99,11.14-1.86,5.93-3.52,11.93-5.23,17.9-1.43,5-2.68,10.06-4.22,15.02-2.01,6.46-3.86,13-6.44,19.23-3.08,7.44-6.45,14.83-10.44,21.82-4.71,8.25-12.28,13.23-21.66,14.75-3.31.54-6.89-.4-10.32-.86-9.81-1.32-19.56-3.22-29.4-4-10.43-.83-20.09,2.46-29.08,7.75-5.22,3.07-10.42,6.17-15.81,8.91-3.72,1.89-7.74,4.37-11.65,4.43-6.1.09-12.88.85-17.86-4.44-.48-.51-1.21-.81-1.87-1.11-3.18-1.43-5.78-3.3-7.93-6.3-3.4-4.73-7.89-8.69-11.32-13.41-2.57-3.53-4.31-7.7-6.24-11.67-3.13-6.45-6.62-12.79-9-19.51-2.37-6.71-3.65-13.82-5.27-20.78-1.59-6.83-1.32-13.92-3.98-20.7-1.78-4.53-1.08-9.96-2.1-14.87-1.43-6.89-3.34-13.68-5.24-20.46-.49-1.74-1.47-3.57-2.76-4.78-.89-.83-3.09-1.34-4.06-.81-2.71,1.47-4.15.46-4.87-1.92-1.47-4.82-2.66-9.72-3.97-14.58.51.44,1.18.8,1.52,1.35,2.27,3.66,4.27,4,6.69.39,2.63-3.92,6.41-5.18,10.85-6.24,2.68,6.43,6.76,12.03,7.35,19.37.5,6.35,2.46,12.58,3.69,18.88,1.28,6.55,2.39,13.13,3.7,19.67.67,3.36,1.69,6.66,2.44,10.01,2.01,8.93,3.58,17.99,6.1,26.77,1.4,4.87,4.36,9.3,6.63,13.92.33.67.92,1.3,1,1.99.7,6.44,4.66,10.8,9.17,14.89,1.08.98,1.74,2.41,2.77,3.47,1.7,1.75,3.4,3.55,5.35,5,2.35,1.76,4.95,3.17,7.45,4.73.42.26.84.73,1.27.75,6.42.26,12.24,4.62,19.21,1.9,10.48-4.09,21.11-7.87,31.9-11.04,8.02-2.35,16.43-3.33,24.59-5.27,4.55-1.08,9.03-2.61,13.36-4.39,3.87-1.59,7.68-3.49,11.15-5.81,2.3-1.54,4.01-4,5.88-6.15.78-.9,1.04-2.45,1.96-3.01,7.34-4.43,8.09-12.66,11.41-19.39.81-1.65,1.42-3.39,2.22-5.04,2.73-5.64,5.97-10.99,7.93-17.04,2.27-7.01,5.69-13.66,7.82-20.7,2.63-8.64,6.7-16.69,9.56-25.2,1.84-5.47,2.55-11.31,4.18-16.86,1.29-4.42,3.37-8.61,4.79-13,1.33-4.11,2.29-8.34,3.35-12.53.81-3.22,1.23-6.58,2.35-9.69,2.48-6.9,4.86-13.76,4.33-21.25Z" style="fill: #adadad; stroke-width: 0px;"/>
  <path d="M9.04,311.14c1,0,2,0,3,0,2.27,3.96,5.95,2.48,8.9,1.79,8.4-1.97,16.67-4.53,25.03-6.7,5.76-1.49,12.43.93,14.41,4.98.21.43.25.95.37,1.43-2.6-1.5-5.04-3.43-7.82-4.4-5.94-2.08-11.3,1.28-16.89,2.51-6.61,1.45-13.21,3.18-19.91,3.91-2.21.24-4.71-2.26-7.08-3.51Z" style="fill: #adadad; stroke-width: 0px;"/>
  <path d="M164.8,158.31c-3.47-9.27-6.65-18.66-10.51-27.76-1.86-4.39-4.63-8.53-7.61-12.29-7.62-9.6-18.13-11.14-28.47-4.61-1.15.73-2.29,1.47-3.44,2.2-1.2-3.37-3.59-6.82-3.37-10.1.58-8.87,1.1-17.88,6.19-25.85,2.33-3.65,3.17-8.26,5.47-11.94,2.66-4.24,6.1-8,9.37-11.82,1.9-2.22,4.01-4.32,6.26-6.18,9.41-7.78,19.37-14.6,31.68-17.02.83-.16,1.59-.72,2.39-1.06,8.24-3.47,16.88-2.27,25.43-2.23.96,0,1.93.14,2.88.04,2.83-.31,5.29-.29,8.13,1.3,3.81,2.14,8.6,2.47,12.52,4.46,3.43,1.74,6.32,4.59,9.29,7.14,2.24,1.92,3.91,4.74,6.41,6.05,4.02,2.11,5.38,5.84,6.69,9.42,1.55,4.23,2.48,8.76,3.06,13.24.65,5.04.74,10.17.81,15.27.03,1.92-1.33,4.01-.91,5.74,1.01,4.1.58,7.32-3.31,9.55.04,9.8-7.73,14.52-13.43,20.56-5.17,5.48-10.16,11.17-15.76,16.17-4.51,4.02-9.76,7.21-14.79,10.63-2.04,1.39-4.41,2.28-6.51,3.59-8.21,5.12-16.95,7.49-26.62,5.53-.6-.12-1.24-.03-1.87-.04Z" style="fill: #c4c4c4; stroke-width: 0px;"/>
  <path d="M167.84,210.74c.31-2.5.61-5,.92-7.5.51.95,1.61,2.06,1.41,2.83-.42,1.65,1.44,4.69-2.33,4.67Z" style="fill: #b9b9b9; stroke-width: 0px;"/>
  <path d="M243.56,502.19c-.5-.75-1.01-1.49-1.51-2.24,0,0,.02,0,.02,0,.38-.2.77-.39,1.15-.59-.39-.3-.78-.61-1.17-.91-3-3-5.99-5.99-8.99-8.99-1-1-2-2-3-3-.5-.25-1-.5-1.49-.75-1-.75-2-1.5-3-2.25-.25-1-.5-2-.75-3,.77.36,1.7.55,2.27,1.11,7.31,7.17,14.54,14.42,21.85,21.59,1.33,1.3,2.89,2.35,4.35,3.52,0,.25,0,.5,0,.75.5.5,1,1,1.5,1.5,0,.25,0,.5,0,.75,2.5,3.34,4.53,7.21,7.6,9.91,5.24,4.61,10.35.78,15.12-1.63,8.5-4.29,11.77-12.7,15.74-20.59,4.13-8.21,7.65-16.94,13.06-24.24,9.94-13.39,20.94-26.01,31.75-38.74,8.12-9.56,10.48-21.18,12.6-32.93,1.01-5.59,1.56-11.27,2.43-16.89.88-5.74,1.89-11.45,2.86-17.17.48-2.8,1.03-5.6,1.49-8.4,1.7-10.37,3.09-20.8,5.16-31.1,1.58-7.86,3.86-15.59,6.15-23.28,1.22-4.11,2.79-8.2,4.85-11.94,1.79-3.24,6.56-4.05,9.32-1.67,4.3,3.71,8.3,7.79,12.23,11.9,2.82,2.95,5.14,6.4,8.03,9.28,3.43,3.42,7.22,3.13,9.71-.3.75-.25,1.5-.5,2.25-.75,1-.5,2-1,3-1.5.74,0,1.49,0,2.24,0,0,.25.01.51.02.76-.25.25-.5.5-.75.75-1.58,1.41-3.2,2.76-4.71,4.23-1.02.99-1.86,2.16-2.79,3.25-1.07.28-2.31.31-3.18.89-3.35,2.23-6.43,1.2-9.46-.55-2.26-1.31-4.36-2.89-6.63-4.17-2.72-1.53-6.2-2.76-8.26-.08-3.07,3.98-5.98,8.48-7.43,13.22-2.48,8.12-3.77,16.6-5.6,24.93-.4,1.81-1.09,3.57-1.37,5.4-1.68,10.75-3.2,21.53-4.92,32.27-1.25,7.82-2.56,15.64-4.14,23.4-2.72,13.39-6.89,25.95-19.3,33.97-12.54,8.1-22.62,18.9-32.06,30.34-7.48,9.07-12.06,19.64-16.07,30.5-3.59,9.73-9.27,17.32-19.91,19.88-4.32,1.04-8.65,1.5-12.03-2.51-.58-.69-1.65-.97-2.49-1.44-.25-.5-.5-1-.75-1.5-.75-1-1.5-2-2.24-3,0-.25,0-.5,0-.75-1.5-2.5-3-5-4.49-7.49-.75-1.25-1.5-2.5-2.25-3.75-.5-.75-1-1.5-1.5-2.25-.25,0-.5,0-.75-.01l-2.25-3.74c-.5,0-.99,0-1.49,0Z" style="fill: #999; stroke-width: 0px;"/>
  <path d="M412.89,311.89c-2.5,3.43-6.28,3.72-9.71.3-2.89-2.88-5.2-6.33-8.03-9.28-3.93-4.11-7.93-8.19-12.23-11.9-2.76-2.38-7.54-1.57-9.32,1.67-2.06,3.74-3.63,7.83-4.85,11.94-2.29,7.69-4.57,15.42-6.15,23.28-2.07,10.3-3.46,20.73-5.16,31.1-.46,2.81-1.01,5.6-1.49,8.4-.97,5.72-1.98,11.44-2.86,17.17-.87,5.62-1.41,11.3-2.43,16.89-2.13,11.75-4.49,23.37-12.6,32.93-10.81,12.73-21.81,25.35-31.75,38.74-5.41,7.3-8.93,16.03-13.06,24.24-3.97,7.89-7.24,16.3-15.74,20.59-4.77,2.41-9.88,6.24-15.12,1.63-3.07-2.7-5.1-6.57-7.6-9.91.9.58,2.03.98,2.68,1.78,5.15,6.38,10.14,7.12,17.31,3.27,7.55-4.06,11.88-10.57,15.42-17.99,5.61-11.77,11.25-23.53,19.31-33.91,6.06-7.8,12.14-15.59,18.27-23.33,9.05-11.42,14.59-24.33,16.87-38.71,1.65-10.39,3.61-20.72,5.27-31.11,1.86-11.59,3.39-23.23,5.35-34.81,1.5-8.88,2.86-17.84,5.34-26.47,2.91-10.13,4.07-21.02,11.12-29.67,1.83-2.24,3.8-3.57,6.23-1.46,3.32,2.88,6.73,5.81,9.4,9.26,5.69,7.34,10.92,15.03,16.38,22.56,2.32,3.21,5.39,4.2,9.15,2.8Z" style="fill: #9e9e9e; stroke-width: 0px;"/>
  <path d="M423.37,305.14c-.97.15-2.61.03-2.79.5-1.06,2.63-3.42,2.34-5.45,2.9-5.85,1.59-7.7.9-11.25-4.15-6.97-9.93-12.45-20.64-16.49-32.06-2.02-5.71-3.73-11.54-5.56-17.32-.19-.58-.56-1.4-.32-1.78,2.24-3.53-.14-7.4.76-10.86,1.74-6.74,4.54-13.06,9.91-17.87,1.48-1.32,3.04-2.56,4.48-3.92,5.02-4.72,10.83-5.36,16.62-1.52,1.8,1.19,3.25,2.92,4.85,4.41-1.25,0-2.5,0-3.74,0-1.53-.75-3-1.93-4.62-2.17-8.78-1.34-17.52,12.02-17.58,18.36-.08,7.3-.89,14.51.11,22.02,1.91,14.27,6.43,27.26,13.75,39.42,3.17,5.26,8.09,6.13,13.51,3.09,1.15-.64,2.53-.88,3.81-1.3,0,.75,0,1.5,0,2.25h0Z" style="fill: #a3a3a3; stroke-width: 0px;"/>
  <path d="M414.39,223.47c1.25,0,2.5,0,3.74,0,.75,0,1.5,0,2.25,0,.25.5.5,1,.75,1.5h-.37s-.37,0-.37,0c-1.25,0-2.5-.09-3.74,0-8.97.7-13.31,5.11-14.88,13.52-1.87,10.02-1.86,20.19-.08,30.27,1.55,8.81,3.35,17.63,8.33,25.28,3.88,5.96,7.95,6.56,13.89,2.74,7.94-5.1,16.01-10,23.9-15.18,7.56-4.96,14.99-10.13,22.42-15.3,1.98-1.38,3.74-3.08,5.59-4.63.25.5.5,1,.75,1.49-3.25,3.25-6.49,6.5-9.74,9.74-.49.04-1.1-.09-1.47.14-7.82,4.98-15.63,9.99-23.38,15.07-.45.3-.43,1.33-.62,2.02-.75.25-1.49.5-2.24.75-.5,0-1,0-1.5,0-.75.5-1.5,1-2.25,1.5-.25,0-.5,0-.75,0l-1.5,1.5c-1.75,1.25-3.5,2.5-5.24,3.75,0,.5,0,1,0,1.5h0c-2.52-1.21-4.16.45-5.91,1.8-3.98,3.09-8.83,3.14-11.96-.77-2.81-3.51-5.07-7.61-6.87-11.76-6.82-15.66-8.56-32.14-5.83-48.86,1.62-9.89,6.85-16.58,17.09-16.09Z" style="fill: #aaa; stroke-width: 0px;"/>
  <path d="M253.29,506.69c-1.46-1.17-3.03-2.22-4.35-3.52-7.31-7.17-14.54-14.42-21.85-21.59-.57-.56-1.51-.75-2.27-1.11,0,0,0,0,0,0-.75-.5-1.5-1-2.25-1.5-.25,0-.5,0-.75,0-2.94-4.13-7.5-5.37-11.99-6.74-1,0-1.99,0-2.99,0-2.5-.96-4.94-2.43-7.52-2.76-4.44-.56-9.05-.78-12.71,2.76-.5,0-1,0-1.5,0-1.75.5-3.5,1-5.24,1.5,3.6-5.05,9.23-6.11,14.67-6.62,8.72-.81,16.78,2.38,23.96,6.86,7.32,4.57,14.43,9.75,20.73,15.62,5.35,4.99,9.42,11.35,14.06,17.1Z" style="fill: #9e9e9e; stroke-width: 0px;"/>
  <path d="M179.87,473.73c1.75-.5,3.5-1,5.24-1.5-1.83,1.54-3.84,2.91-5.44,4.66-2.34,2.55-4.38,5.37-6.55,8.08h0c-3.45,1.66-4.61,4.79-5.24,8.24,0,.75,0,1.49,0,2.24-1,.5-1.99,1-2.99,1.5.5-1.87.95-3.75,1.51-5.61.42-1.4.99-2.76,1.49-4.14.5-.75,1-1.5,1.5-2.25.5-.75,1-1.5,1.5-2.25,1.75-2,3.5-4,5.24-5.99,1.25-1,2.5-2,3.75-3Z" style="fill: #999; stroke-width: 0px;"/>
  <path d="M427.84,305.88c.03.29.05.58.07.86-1.27,1.2-2.53,2.4-3.8,3.6-.75-.49-1.5-.97-2.25-1.46.5-1.25,1-2.49,1.5-3.74h0c1.49.25,2.98.49,4.46.74Z" style="fill: #919190; stroke-width: 0px;"/>
  <path d="M179.87,473.73c-1.25,1-2.5,2-3.75,3,1.25-1,2.5-2,3.75-3Z" style="fill: #9e9e9e; stroke-width: 0px;"/>
  <path d="M421.13,224.98c-.25-.5-.5-1-.75-1.5,1.25,0,2.5-.01,3.75-.02,0,.5.02.99.03,1.49-1.01,0-2.02.02-3.03.03Z" style="fill: #b0b0b0; stroke-width: 0px;"/>
  <path d="M418.13,309.64c-1,.5-2,1-3,1.5,1-.5,2-1,3-1.5Z" style="fill: #9e9e9e; stroke-width: 0px;"/>
  <path d="M170.88,482.72c-.5.75-1,1.5-1.5,2.25.5-.75,1-1.5,1.5-2.25Z" style="fill: #9e9e9e; stroke-width: 0px;"/>
  <path d="M420.38,310.39c0-.25-.01-.51-.02-.76.5-.25,1-.5,1.51-.75-.5.5-.99,1.01-1.49,1.51Z" style="fill: #919190; stroke-width: 0px;"/>
  <path d="M254.79,508.94c-.5-.5-1-1-1.5-1.5l1.5,1.5Z" style="fill: #9e9e9e; stroke-width: 0px;"/>
  <path d="M3.04,303.65c.75,1,1.5,2,2.25,3-.75-1-1.5-2-2.25-3Z" style="fill: #b0b0b0; stroke-width: 0px;"/>
  <path d="M319.98,475.23c1.72-1.85,3.27-3.93,5.21-5.51,6.81-5.57,14.07-10.37,23.35-10.15,3.06.07,6.11.92,9.15,1.47,5.92,1.07,8.53-.64,11.22-6.27,5.63-11.8,7.83-24.49,10.24-37.14,2.35-12.38,4.29-24.83,6.85-37.16,1.93-9.28,4.25-18.51,7-27.58,1.16-3.81,3.73-7.23,5.92-10.66,3.99-6.27,8.15-12.43,12.29-18.6.37-.54,1.11-.83,1.68-1.24-.29.92-.57,1.85-.87,2.77-2.46,7.51-5.04,14.98-7.34,22.53-1.29,4.25-2.13,8.65-3.16,12.98-1.95,8.16-4.1,16.29-5.78,24.5-1.99,9.74-3.43,19.59-5.4,29.34-1.39,6.9-3.27,13.7-4.91,20.55-1.61,6.73-2.88,13.56-4.89,20.17-2.02,6.65-4.51,13.19-7.27,19.57-1.88,4.36-5.14,4.62-8.56,1.33-3.23-3.11-6.12-6.77-9.83-9.13-8.23-5.25-16.58-3.97-24.46,1.26-2.37,1.58-4.5,3.52-6.83,5.16-1.09.77-2.4,1.21-3.61,1.8Z" style="fill: #8d8d8c; stroke-width: 0px;"/>
  <path d="M425.62,324.63c-.23,3.56-.2,7.16-.83,10.64-.24,1.32-1.99,2.37-3.05,3.54-.96-1.39-2.35-2.65-2.8-4.19-1.97-6.71-1.31-13.32,1.43-19.74.99-.75,1.99-1.51,2.98-2.26-.34,1.02-.61,2.06-1.02,3.04-1.29,3.09.27,7.41,3.29,8.96Z" style="fill: #7a7b7a; stroke-width: 0px;"/>
  <path d="M425.62,324.63c-3.01-1.55-4.58-5.87-3.29-8.96.41-.98.68-2.03,1.02-3.04.26-.76.51-1.52.77-2.28,1.27-1.2,2.53-2.4,3.8-3.6-.29,1.28-.31,2.71-.93,3.8-1.34,2.35-1.32,4.49.21,6.67-.52,2.47-1.05,4.94-1.57,7.41Z" style="fill: #686868; stroke-width: 0px;"/>
  <path d="M310.98,492.45c-1,1.5-2,3-3,4.5l3-4.5Z" style="fill: #828282; stroke-width: 0px;"/>
  <path d="M313.99,481.97c1-1,2-2,3-3-1,1-2,2-3,3Z" style="fill: #8d8d8c; stroke-width: 0px;"/>
  <path d="M412.88,322.38c.5-.75,1-1.5,1.5-2.25-.5.75-1,1.5-1.5,2.25Z" style="fill: #8d8d8c; stroke-width: 0px;"/>
  <path d="M311.74,484.97c.5-.5,1-1,1.5-1.5-.5.5-1,1-1.5,1.5Z" style="fill: #8d8d8c; stroke-width: 0px;"/>
  <path d="M259.29,524.67c.84.47,1.91.75,2.49,1.44,3.39,4.01,7.71,3.55,12.03,2.51,10.64-2.56,16.32-10.15,19.91-19.88,4.01-10.86,8.59-21.43,16.07-30.5,9.44-11.45,19.51-22.24,32.06-30.34,12.41-8.02,16.58-20.58,19.3-33.97,1.57-7.76,2.89-15.58,4.14-23.4,1.72-10.74,3.25-21.52,4.92-32.27.28-1.83.98-3.59,1.37-5.4,1.82-8.32,3.11-16.81,5.6-24.93,1.45-4.74,4.36-9.24,7.43-13.22,2.06-2.68,5.54-1.44,8.26.08,2.27,1.28,4.37,2.86,6.63,4.17,3.02,1.75,6.11,2.78,9.46.55.87-.58,2.11-.61,3.18-.89-3.95,5.77-9,7.9-16.09,6.06-8.42-2.19-9.2-1.56-12.16,6.67-3.88,10.77-5.84,22.24-8.41,33.46-1.41,6.14-2.47,12.37-3.52,18.58-1.18,6.95-1.89,14-3.33,20.89-2.43,11.61-4.23,23.42-9.35,34.32-2.87,6.11-8.06,9.76-13.82,12.46-11.72,5.5-21.62,13.35-29.74,23.23-5.48,6.68-10.54,13.85-14.74,21.39-3.48,6.24-5.45,13.32-8.07,20.04-3.75,9.61-11.02,14.79-20.96,16.36-5.89.93-10.1-1.74-12.66-7.43Z" style="fill: #969696; stroke-width: 0px;"/>
  <path d="M249.55,508.19c.75,1.25,1.5,2.5,2.25,3.75,1,2.25,2,4.5,3,6.74.15,1.31.51,2.65.37,3.93-.08.77-.95,1.45-1.46,2.17-.29-.34-.58-.68-.87-1.02-.15-.68-.29-1.36-.44-2.05-1.19-2.26-2.38-4.53-3.56-6.79-.03-.49-.06-.99-.1-1.48-.23-2-.47-3.99-.7-5.99,0,0,.01-.01.01-.01.5.25,1,.5,1.5.75Z" style="fill: #8d8d8c; stroke-width: 0px;"/>
  <path d="M254.79,518.68c-1-2.25-2-4.5-3-6.74,1.5,2.5,3,5,4.49,7.49-.5-.25-1-.5-1.5-.75Z" style="fill: #969696; stroke-width: 0px;"/>
  <path d="M256.29,520.18c.75,1,1.5,2,2.24,3-.75-1-1.5-2-2.24-3Z" style="fill: #969696; stroke-width: 0px;"/>
  <path d="M475.82,261.69c-1.86,1.55-3.61,3.25-5.59,4.63-7.43,5.17-14.86,10.34-22.42,15.3-7.89,5.18-15.96,10.08-23.9,15.18-5.94,3.82-10.01,3.22-13.89-2.74-4.99-7.65-6.78-16.46-8.33-25.28-1.78-10.08-1.79-20.25.08-30.27,1.57-8.41,5.91-12.81,14.88-13.52,1.24-.1,2.49-.01,3.74,0-.94.6-1.81,1.44-2.84,1.76-8.21,2.62-10.52,5.83-11.47,14.42-1.12,10.07-1.42,20.13.98,29.96,1.36,5.59,3.82,11.03,6.55,16.13,2.17,4.04,6.44,4.77,10.76,2.34,14.05-7.91,28.46-15.32,41.79-24.33,7.75-5.23,13.68-13.16,20.48-19.82.98-.97,2.22-1.68,3.34-2.51.04.52.07,1.04.11,1.56-.27.73-.54,1.47-.81,2.2-.72.53-1.45,1.05-2.17,1.58-.49.73-.98,1.47-1.48,2.2-3.27,3.74-6.54,7.48-9.81,11.22Z" style="fill: #b0b0b0; stroke-width: 0px;"/>
  <path d="M204.6,481.24c1.88.41,3.74.9,5.64,1.23,1.95.34,2.25-.43,1.1-1.94,1.72.38,3.7.34,5.13,1.21,10.09,6.12,18.87,13.76,26.08,23.14.2.26.14.72.21,1.08-1.82-.31-3.78-.3-5.44-1-11.56-4.84-22.15-11.24-31.01-20.23-.86-.88-1.16-2.32-1.71-3.5ZM213.79,482.98c-.09-.03-.19-.06-.28-.1-.01.13-.03.25-.04.38.1-.02.21-.02.29-.06.04-.02.02-.14.03-.22Z" style="fill: #686868; stroke-width: 0px;"/>
  <path d="M204.6,481.24c.56,1.18.85,2.62,1.71,3.5,8.85,8.99,19.45,15.39,31.01,20.23,1.66.7,3.62.68,5.44,1,1.99,2.49,3.98,4.99,5.98,7.48.03.49.06.99.09,1.48-.98-.11-2.12.08-2.9-.37-8.45-4.82-16.95-9.55-25.21-14.69-4.13-2.57-7.77-5.91-11.64-8.9-.25-.25-.5-.5-.75-.75-1.35-1.73-2.73-3.43-4.05-5.18-.95-1.26-1.82-2.57-2.72-3.86,1.01.02,2.02.05,3.03.07Z" style="fill: #5d5d5d; stroke-width: 0px;"/>
  <path d="M173.12,484.96c2.17-2.71,4.21-5.53,6.55-8.08,1.6-1.75,3.61-3.12,5.44-4.66.5,0,1,0,1.5,0,6.75-1.72,13.49-1.71,20.24,0,1,0,1.99,0,2.99,0,4,2.25,7.99,4.49,11.99,6.74.25,0,.5,0,.75,0,.75.5,1.5,1,2.25,1.5,0,0,0,0,0,0,.25,1,.5,2,.75,3-2.5-1-4.99-2-7.49-3,0,0,0,0,0,0-.75-.5-1.5-1-2.25-1.49-.5-.25-1-.5-1.5-.75-2.06-1.16-4.02-2.59-6.21-3.42-7.5-2.87-15.27-3.85-22.47.33-4.55,2.64-8.38,6.52-12.53,9.84Z" style="fill: #969696; stroke-width: 0px;"/>
  <path d="M173.12,484.96c4.15-3.32,7.98-7.2,12.53-9.84,7.2-4.18,14.97-3.19,22.47-.33,2.19.84,4.15,2.26,6.21,3.42-3.78-1.05-7.51-2.32-11.34-3.11-11.45-2.35-20.66,1.57-27.6,10.72-2.37,3.12-4.05,6.76-6.11,10.13-.27.45-.92.67-1.4,1,0-.5,0-1.01,0-1.51,0-.75,0-1.49,0-2.24,1.75-2.75,3.49-5.5,5.24-8.24h0Z" style="fill: #8d8d8c; stroke-width: 0px;"/>
  <path d="M233.06,489.46c3,3,5.99,5.99,8.99,8.99,0,.5.02,1,.02,1.5,0,0-.02,0-.02,0-3.74-3.5-7.49-7-11.23-10.49.75,0,1.49,0,2.24,0Z" style="fill: #8d8d8c; stroke-width: 0px;"/>
  <path d="M218.09,480.46c2.5,1,4.99,2,7.49,3,1,.75,2,1.5,3,2.25.5.25,1,.5,1.49.75,0,.75,0,1.49,0,2.24-4-2.75-7.99-5.5-11.99-8.24Z" style="fill: #8d8d8c; stroke-width: 0px;"/>
  <path d="M167.87,495.45c0,.5,0,1.01,0,1.51-.25,1.25-.51,2.49-.76,3.74-.99.75-1.99,1.5-2.98,2.25,0-.5,0-1,0-1.5,0-.75,0-1.5,0-2.25.25-.75.5-1.5.76-2.25,1-.5,1.99-1,2.99-1.5Z" style="fill: #919190; stroke-width: 0px;"/>
  <path d="M230.07,488.71c0-.75,0-1.49,0-2.24,1,1,2,2,3,3-.75,0-1.49,0-2.24,0-.25-.25-.5-.5-.75-.75Z" style="fill: #969696; stroke-width: 0px;"/>
  <path d="M245.06,502.19c.75,1.25,1.5,2.49,2.25,3.74-.25,0-.5,0-.75,0-.5-.5-.99-1-1.49-1.51,0-.75,0-1.49,0-2.24Z" style="fill: #969696; stroke-width: 0px;"/>
  <path d="M215.83,478.97c.75.5,1.5,1,2.25,1.49-.75-.5-1.5-1-2.25-1.49Z" style="fill: #8d8d8c; stroke-width: 0px;"/>
  <path d="M208.39,479.62c-.54-.39-1.08-.79-1.62-1.18.54.39,1.08.79,1.62,1.18Z" style="fill: #686868; stroke-width: 0px;"/>
  <path d="M245.06,502.19c0,.75,0,1.49,0,2.24-.5-.75-1-1.5-1.5-2.25.5,0,.99,0,1.49,0Z" style="fill: #8d8d8c; stroke-width: 0px;"/>
  <path d="M205.31,478.27c-.5-.04-1-.08-1.51-.12.22-.37.44-.73.66-1.1.28.41.57.82.85,1.22Z" style="fill: #686868; stroke-width: 0px;"/>
  <path d="M246.55,505.94c.25,0,.5,0,.75,0,.25,0,.5,0,.75.01,0,.5,0,1,0,1.5,0,0-.01.01-.01.01-.5-.5-.99-1.01-1.49-1.51Z" style="fill: #8d8d8c; stroke-width: 0px;"/>
  <path d="M5.83,285.36c.83-6.59,3.75-11.33,7.4-15.36,9.7-10.69,21.36-18.97,33.98-25.86,4.65-2.54,6.78-1.23,6.74,4.02-.04,4.4.17,8.96-.91,13.14-.57,2.21-3.38,4.77-5.68,5.44-9.9,2.88-19.17,6.74-26.85,13.82-2.65,2.44-5.25,4.95-8.06,7.2-1.26,1.01-3.88,2.39-4.32,1.97-1.29-1.23-1.79-3.28-2.29-4.37Z" style="fill: #c4c4c4; stroke-width: 0px;"/>
  <path d="M100.41,484.23c-.74-1.25-1.48-2.51-2.22-3.76-1.5-3.5-2.99-6.99-4.49-10.49-.75-1.75-1.49-3.5-2.24-5.25-1.52-2.93-3.03-5.87-4.55-8.8.12-.7.25-1.39.37-2.09.31-.12.63-.25.94-.37,1.06,2.08,2.23,4.12,3.18,6.26,6.82,15.35,13.6,30.77,23.32,44.55,6.58,9.33,14.59,17.39,26.18,20.48,7.84,2.09,12.58-.33,15.68-7.91,1.5-3.67,2.5-7.54,3.9-11.25.38-1.01,1.42-1.78,2.15-2.66-.5,1.75-.99,3.5-1.49,5.25,0,.5,0,.99,0,1.49-1.25,3.86-2.31,7.8-3.78,11.57-3.51,9.06-6.69,10.37-16.21,7.8-5.15-1.39-9.91-5.04-14.24-8.43-8.81-6.9-14.93-16.12-20.35-25.78-1.45-2.59-2.41-5.45-3.79-8.09-.51-.99-1.56-1.7-2.36-2.53Z" style="fill: #999; stroke-width: 0px;"/>
  <path d="M86.91,455.93c1.52,2.93,3.03,5.87,4.55,8.8-4.17,2.22-4.32-1.97-5.99-3.74-.24-1.24-.48-2.48-.73-3.72.49-.51.98-1.03,1.47-1.54.24.06.47.12.7.2Z" style="fill: #474747; stroke-width: 0px;"/>
  <path d="M161.14,508.2c.5-1.75.99-3.5,1.49-5.25,0-.25,0-.5,0-.75.5-.25,1-.5,1.5-.75,0,.5,0,1,0,1.5,0,1,0,2,0,2.99-1,.75-1.99,1.5-2.99,2.25Z" style="fill: #969696; stroke-width: 0px;"/>
  <path d="M164.13,501.45c-.5.25-1,.5-1.5.75.5-1,1-2,1.5-3,0,.75,0,1.5,0,2.25Z" style="fill: #999; stroke-width: 0px;"/>
  <path d="M85.48,460.98c1.67,1.77,1.82,5.97,5.99,3.74.75,1.75,1.49,3.5,2.24,5.25-.86,1.29-1.72,2.58-2.87,4.3-3.65-4.85-5.84-8.55-5.36-13.3Z" style="fill: #5d5d5d; stroke-width: 0px;"/>
  <path d="M383.68,544.89c-3.52-3.53-8.02-6.53-10.35-10.72-4.36-7.84-7.53-16.34-11.05-24.63-1.54-3.62-2.73-7.39-4.08-11.1,1.79,3.53,3.92,6.94,5.3,10.62,3.57,9.52,7.44,18.88,13.3,27.25,2.1,2.99,4.58,5.72,6.89,8.57Z" style="fill: #555; stroke-width: 0px;"/>
  <path d="M346.19,481.98c-4.26-.03-8.51-.05-12.77-.08,3.01-3.23,10.45-3.18,12.77.08Z" style="fill: #555; stroke-width: 0px;"/>
  <path d="M396.41,546.42c0,.49,0,.98-.01,1.47-1.99.49-3.98.99-5.97,1.48-.96-.76-1.9-1.54-2.88-2.26-1.03-.76-2.09-1.47-3.13-2.2,4,.5,8,1.01,12,1.51Z" style="fill: #555; stroke-width: 0px;"/>
  <path d="M353.69,490.96c-.48-.52-.96-1.05-1.44-1.57.48.52.96,1.05,1.44,1.57Z" style="fill: #474747; stroke-width: 0px;"/>
  <path d="M466.83,272.92c3.25-3.25,6.49-6.5,9.74-9.74.5,0,1.01,0,1.51.01-.72,1.1-1.28,2.36-2.2,3.26-4.23,4.11-8.61,8.08-12.83,12.2-1.17,1.15-1.97,2.68-2.95,4.04-.75.51-1.49,1.02-2.24,1.53-2.35-.99-3.07.13-2.96,2.3-.24.25-.48.5-.72.74-.53-.03-1.06-.07-1.59-.1-1.49.25-2.99.51-4.48.76.99-1,1.89-2.13,2.99-2.99,5.21-4.05,10.47-8.02,15.72-12.02Z" style="fill: #969696; stroke-width: 0px;"/>
  <path d="M448.12,287.93l4.48-.76c0,.51.01,1.02.02,1.52-5,3.74-10,7.47-15.01,11.21-.97.57-1.95,1.15-2.92,1.72-.97.45-1.94.91-2.91,1.36-.3-.77-.59-1.54-.89-2.31.5-.5,1-.99,1.51-1.49,4.49-3,8.98-5.99,13.47-8.99.75-.75,1.51-1.5,2.26-2.25h0Z" style="fill: #868686; stroke-width: 0px;"/>
  <path d="M430.88,300.66c.3.77.59,1.54.89,2.31-.23.47-.47.95-.7,1.42-.82.24-1.64.48-2.46.73.25-1.49.51-2.98.76-4.47.5,0,1.01,0,1.51,0Z" style="fill: #919190; stroke-width: 0px;"/>
  <path d="M454.9,286.52c-.11-2.17.61-3.29,2.96-2.3-.99.77-1.97,1.53-2.96,2.3Z" style="fill: #868686; stroke-width: 0px;"/>
  <path d="M434.68,301.62c.97-.57,1.95-1.15,2.92-1.72-.27,1.76-.95,2.85-2.92,1.72Z" style="fill: #5d5d5d; stroke-width: 0px;"/>
  <path d="M452.61,288.69c0-.51-.01-1.02-.02-1.52.53.03,1.06.07,1.59.1-.52.47-1.05.95-1.57,1.42Z" style="fill: #737372; stroke-width: 0px;"/>
  <path d="M209.09,490.96c3.86,2.99,7.51,6.33,11.64,8.9,8.25,5.14,16.76,9.88,25.21,14.69.78.45,1.92.26,2.9.37,1.19,2.26,2.38,4.53,3.56,6.79-4.19-1.51-8.39-3.03-12.58-4.54-.74-.26-1.48-.52-2.23-.78-.51-.48-1.02-.97-1.53-1.46-.48-.02-.97-.05-1.45-.07-1.51-1.23-3.02-2.46-4.53-3.68-.24-.01-.48-.03-.73-.04-.76-.74-1.51-1.48-2.27-2.21-.49-.26-.99-.52-1.48-.78-1.58-3.66-4.55-5.63-8.22-6.73-1.5-1.28-3.01-2.56-4.51-3.85-1.26-2.21-2.52-4.41-3.78-6.61Z" style="fill: #555; stroke-width: 0px;"/>
  <path d="M239.82,517.17c4.19,1.51,8.39,3.03,12.58,4.54.14.68.29,1.36.43,2.05-4.91-1.05-9.94-1.89-13.02-6.58Z" style="fill: #474747; stroke-width: 0px;"/>
  <path d="M217.37,501.42c3.67,1.11,6.64,3.08,8.22,6.73-2.74-2.25-5.48-4.49-8.22-6.73Z" style="fill: #474747; stroke-width: 0px;"/>
  <path d="M230.07,511.18c1.51,1.23,3.02,2.46,4.53,3.68-1.51-1.23-3.02-2.46-4.53-3.68Z" style="fill: #474747; stroke-width: 0px;"/>
  <path d="M227.08,508.93c.76.74,1.51,1.48,2.27,2.21-.76-.74-1.51-1.48-2.27-2.21Z" style="fill: #474747; stroke-width: 0px;"/>
  <path d="M236.06,514.93c.51.49,1.02.97,1.53,1.46-.51-.49-1.02-.97-1.53-1.46Z" style="fill: #474747; stroke-width: 0px;"/>
  <path d="M478.08,263.19c-.5,0-1.01,0-1.51-.01-.25-.5-.5-1-.75-1.49,3.27-3.74,6.54-7.48,9.81-11.22.02.21.02.41,0,.62-.02.55-.04,1.09-.06,1.64,0,.24-.02.48-.04.71-.49.51-.98,1.02-1.47,1.52-.25.49-.51.98-.76,1.48-2.84.99-4.58,2.81-4.52,5.98-.24.26-.48.51-.72.77Z" style="fill: #a3a3a3; stroke-width: 0px;"/>
  <path d="M478.79,262.43c-.06-3.18,1.68-5,4.52-5.98-1.51,1.99-3.01,3.99-4.52,5.98Z" style="fill: #9e9e9e; stroke-width: 0px;"/>
  <path d="M487.1,248.27c.72-.53,1.45-1.05,2.17-1.58-.72.53-1.45,1.05-2.17,1.58Z" style="fill: #a3a3a3; stroke-width: 0px;"/>
  <path d="M484.07,254.97c.49-.51.98-1.02,1.47-1.52-.49.51-.98,1.02-1.47,1.52Z" style="fill: #9e9e9e; stroke-width: 0px;"/>
  <path d="M485.58,252.73c.02-.54.04-1.09.06-1.64.37.34.73.69,1.1,1.03-.38.2-.77.4-1.15.61Z" style="fill: #9e9e9e; stroke-width: 0px;"/>
  <path d="M269.82,551.6c-.78,0-1.55,0-2.33,0,.33-.44.66-.89.98-1.33.45.44.9.88,1.35,1.32Z" style="fill: #555; stroke-width: 0px;"/>
  <path d="M275.81,552.35c-.76-.25-1.52-.49-2.29-.74.76.25,1.52.49,2.29.74Z" style="fill: #555; stroke-width: 0px;"/>
  <path d="M278.76,552.35c0,.51,0,1.03,0,1.54-.53-.05-1.06-.11-1.6-.16.53-.46,1.06-.92,1.59-1.38Z" style="fill: #474747; stroke-width: 0px;"/>
  <path d="M283.26,553.87c2.13-.8,4.31-1.96,6.02.74-.76.27-1.52.53-2.27.8-1.24-.03-2.48-.05-3.71-.08,0-.49-.02-.98-.03-1.47Z" style="fill: #474747; stroke-width: 0px;"/>
  <path d="M287.01,555.42c.76-.27,1.52-.53,2.27-.8,1.24.25,2.48.5,3.72.75-2,.02-4,.04-6,.05Z" style="fill: #373737; stroke-width: 0px;"/>
  <path d="M283.26,553.87c0,.49.02.98.03,1.47-.51-.24-1.02-.48-1.53-.72.5-.25,1-.5,1.5-.74Z" style="fill: #373737; stroke-width: 0px;"/>
  <path d="M298.25,553.88c-1.01.24-2.01.48-3.02.72,1.01-.24,2.01-.48,3.02-.72Z" style="fill: #474747; stroke-width: 0px;"/>
  <path d="M429.37,300.65c-.25,1.49-.51,2.98-.76,4.47-.26.25-.51.51-.77.76-1.49-.25-2.98-.49-4.47-.74,0-.75,0-1.5,0-2.25.25-.25.5-.5.75-.75,1.24-.5,2.49-1.01,3.73-1.51,0-.5,0-.99,0-1.49,0,0,0,0,0,0,.5-.5,1-1,1.5-1.5,1-.25,1.99-.5,2.99-.76,0,.26,0,.51,0,.77,0,.25,0,.49,0,.74-1,.75-2,1.5-3,2.25Z" style="fill: #9f9f9f; stroke-width: 0px;"/>
  <path d="M228.57,485.71c-1-.75-2-1.5-3-2.25,1,.75,2,1.5,3,2.25Z" style="fill: #969696; stroke-width: 0px;"/>
  <path d="M248.05,507.44c0-.5,0-1,0-1.5.5.75,1,1.5,1.5,2.25-.5-.25-1-.5-1.5-.75Z" style="fill: #969696; stroke-width: 0px;"/>
  <path d="M242.08,499.95c0-.5-.02-1-.02-1.5.39.3.78.61,1.17.91-.38.2-.77.39-1.15.59Z" style="fill: #969696; stroke-width: 0px;"/>
  <path d="M427.86,299.15c0,.5,0,.99,0,1.49-1.24.5-2.49,1.01-3.73,1.51-.25.25-.5.5-.75.75-1.28.42-2.66.65-3.81,1.3-5.42,3.04-10.34,2.17-13.51-3.09-7.32-12.15-11.84-25.15-13.75-39.42-1-7.51-.19-14.72-.11-22.02.07-6.35,8.8-19.7,17.58-18.36,1.61.25,3.08,1.42,4.62,2.17-10.24-.5-15.47,6.2-17.09,16.09-2.73,16.72-.99,33.2,5.83,48.86,1.8,4.14,4.06,8.25,6.87,11.76,3.13,3.9,7.97,3.85,11.96.77,1.74-1.35,3.39-3,5.91-1.8Z" style="fill: #a8a8a8; stroke-width: 0px;"/>
  <path d="M466.83,272.92c-5.25,4-10.51,7.97-15.72,12.02-1.1.86-2,1.98-2.99,2.99,0,0,0,0,0,0-.75.49-1.51.98-2.26,1.48-.75.25-1.5.5-2.25.76h-2.25c.2-.69.17-1.72.62-2.02,7.75-5.09,15.56-10.09,23.38-15.07.37-.24.97-.1,1.47-.14Z" style="fill: #a3a3a3; stroke-width: 0px;"/>
  <path d="M434.61,292.41c.25,0,.5,0,.75,0,.75-.5,1.5-1,2.25-1.5.5,0,1,0,1.5,0-.75,1.25-1.5,2.5-2.25,3.74-1.5.5-3,1-4.5,1.5.25-.75.5-1.5.75-2.25l1.5-1.5Z" style="fill: #a3a3a3; stroke-width: 0px;"/>
  <path d="M436.86,294.65c.75-1.25,1.5-2.5,2.25-3.74.75-.25,1.49-.5,2.24-.75.75,0,1.5,0,2.25,0-2.25,1.5-4.5,3-6.75,4.49Z" style="fill: #9e9e9e; stroke-width: 0px;"/>
  <path d="M433.11,293.91c-.25.75-.5,1.5-.75,2.25,0,.25,0,.5,0,.74-1,.25-1.99.5-2.99.76-.5,0-1,0-1.5,0,1.75-1.25,3.5-2.5,5.24-3.75Z" style="fill: #a8a8a8; stroke-width: 0px;"/>
  <path d="M427.87,297.65c.5,0,1,0,1.5,0-.5.5-1,1-1.5,1.5,0-.5,0-1,0-1.5Z" style="fill: #a3a3a3; stroke-width: 0px;"/>
  <path d="M437.61,290.91l-2.25,1.5,2.25-1.5Z" style="fill: #a8a8a8; stroke-width: 0px;"/>
  <path d="M434.61,292.41l-1.5,1.5,1.5-1.5Z" style="fill: #a8a8a8; stroke-width: 0px;"/>
  <path d="M206.84,472.22c-6.75-1.71-13.49-1.72-20.24,0,3.66-3.53,8.28-3.31,12.71-2.76,2.58.32,5.02,1.8,7.52,2.76Z" style="fill: #999; stroke-width: 0px;"/>
  <path d="M221.83,478.97c-4-2.25-7.99-4.49-11.99-6.74,4.49,1.37,9.05,2.61,11.99,6.74Z" style="fill: #999; stroke-width: 0px;"/>
  <path d="M224.82,480.47c-.75-.5-1.5-1-2.25-1.5.75.5,1.5,1,2.25,1.5Z" style="fill: #999; stroke-width: 0px;"/>
  <path d="M173.12,484.96c-1.75,2.75-3.49,5.5-5.24,8.24.63-3.46,1.79-6.58,5.24-8.24Z" style="fill: #969696; stroke-width: 0px;"/>
  <path d="M213.79,482.98c0,.08.01.19-.03.22-.08.05-.19.05-.29.06.01-.13.03-.25.04-.38.09.03.19.06.28.1Z" style="fill: #373737; stroke-width: 0px;"/>
  <path d="M436.86,294.65c2.25-1.5,4.5-3,6.75-4.49.75-.25,1.5-.5,2.25-.76,0,.26,0,.52,0,.77-4.49,3-8.98,5.99-13.47,8.99,0-.26-.01-.51-.02-.77,0-.25,0-.49,0-.74,1.5-1,2.99-2.01,4.49-3.01Z" style="fill: #919190; stroke-width: 0px;"/>
  <path d="M432.37,298.4c0,.26.01.51.02.77-.5.5-1,.99-1.51,1.49-.5,0-1.01,0-1.51,0,1-.75,2-1.5,3-2.25Z" style="fill: #999; stroke-width: 0px;"/>
  <path d="M445.86,290.18c0-.26,0-.52,0-.77.75-.49,1.51-.98,2.26-1.48-.75.75-1.51,1.5-2.26,2.25Z" style="fill: #969696; stroke-width: 0px;"/>
  <path d="M436.86,294.65c-1.5,1-2.99,2.01-4.49,3.01,0-.26,0-.51,0-.77,0-.25,0-.5,0-.74,1.5-.5,3-1,4.5-1.5Z" style="fill: #9e9e9e; stroke-width: 0px;"/>
  <path d="M424.12,302.15c1.24-.5,2.49-1,3.73-1.51-1.24.5-2.49,1-3.73,1.51Z" style="fill: #a3a3a3; stroke-width: 0px;"/>
</svg>