<?xml version="1.0" encoding="UTF-8"?>
<svg id="Layer_1" data-name="Layer 1" xmlns="http://www.w3.org/2000/svg" viewBox="0 0 574.12 598.02">
  <path d="M474.3,94.41c-.27-.22-.54-.44-.81-.66l-.08-.05c-.72-.5-1.44-.99-2.17-1.49-10.06-5.64-19.8-11.98-30.26-16.76-19.04-8.72-39.29-13.83-60.09-15.97-24.3-2.51-48.55-1.44-72.57,3.53-18.72,3.87-36.92,9.35-54.43,17.06-.51.18-1.02.36-1.53.54-.21.11-.42.23-.63.34-9.91,4.96-20.13,9.4-29.66,15.02-11.8,6.95-23.53,14.23-34.38,22.56-12.84,9.86-24.69,21-36.97,31.59-1.39-.65-2.78-1.31-4.17-1.96l-.1-.1.02-.06c-.34-.96-.41-2.19-1.05-2.85-7.15-7.31-14.4-14.52-21.62-21.77-.6-2.51-.53-5.53-1.95-7.43-2.46-3.29-5.84-5.89-8.83-8.78-.7-.5-1.4-1.01-2.09-1.51-.86-11.07-4.27-21.48-8.33-31.7-9.46-23.83-22.43-45.35-41.63-62.71C55.24,6.05,49.37.93,41.17,0c-5.33.46-10.88.12-15.92,1.58-5.86,1.69-10.24,10.41-9.57,16.46.06.27.11.54.17.8.13.22.26.44.39.66,4.56,5.24,9.12,10.48,13.68,15.72-1.9,1.84-3.8,3.69-5.7,5.53-2.64-2.07-5.28-4.14-7.92-6.21-3.59-2.09-8.8-1.29-11.19,1.77C1.39,41.07-.58,46.37.15,52.5c.04,1.27.09,2.55.13,3.82.14.72.27,1.45.41,2.17,1.22,3.8,2.43,7.6,3.65,11.4,2.33,3.93,4.66,7.86,6.99,11.78,6.07,6.39,11.69,13.28,18.29,19.05,12.65,11.04,27.34,18.49,43.81,22.19l.21.25.28-.11c1.84.36,3.68.73,5.52,1.09,1.42.15,2.84.3,4.26.46.55.04,1.1.09,1.64.13,3.71-.06,7.43-.12,11.14-.18,2.48,2.58,4.85,5.29,7.49,7.69,1.28,1.17,3.07,1.78,4.63,2.65,1.25,0,2.5,0,3.75-.01.82.92,1.62,1.86,2.48,2.74,8.18,8.3,16.38,16.58,24.57,24.86-18.77,21.05-34.98,43.88-48.19,68.82-11.25,21.24-20.17,43.41-26.6,66.58-5.86,21.13-9.3,42.67-10.41,64.52-1.11,21.77.8,43.38,5.4,64.72,4.61,21.36,12.09,41.72,22.97,60.63,5.12,8.9,11.74,16.92,17.68,25.34v-.06s.16.22.16.22c.46.54.92,1.09,1.39,1.63,0,0-.04-.1-.04-.1.27.3.54.6.81.9.23.39.45.77.68,1.16v-.07s.17.22.17.22c4.22,4.69,8.44,9.38,12.66,14.07,6.98,6.05,13.96,12.09,20.93,18.14.25.04.5.09.75.13,0,0-.02-.02-.02-.02.58.72,1.07,1.55,1.76,2.13,13.88,11.55,28.98,21.26,45.49,28.49,8.96,3.92,18.49,6.54,27.76,9.74,10.96,2.36,21.92,4.72,32.89,7.08,7.78.42,15.56.85,23.33,1.27,10.48-.59,20.96-1.18,31.44-1.76,13.74-2.79,27.47-5.58,41.21-8.37,13.89-5.12,28.13-9.46,41.59-15.53,37.15-16.76,69.56-40.46,97.56-70.01,9.58-10.11,18.17-21.16,27.21-31.77,1.24-1.74,2.49-3.47,3.73-5.21.27-.52.53-1.04.8-1.56,6.39-9.74,12.78-19.47,19.17-29.21,4.85-9.29,9.82-18.52,14.49-27.89,1.47-2.95,2.16-6.29,3.21-9.45,2.73-7.25,5.46-14.5,8.2-21.75.3-.19.8-.32.88-.58,2.44-8.52,4.83-17.06,7.24-25.59.08-.26.15-.52.23-.78.19-.91.37-1.81.56-2.72.19-.64.37-1.28.56-1.91l.03-.15c.09-.38.18-.77.28-1.15.21-.93.42-1.86.62-2.78.21-1.63.43-3.25.64-4.88.06-.73.12-1.45.18-2.18.17-1.03.35-2.05.52-3.08.02-.5.04-1,.06-1.5l.68-3c.07-.48.14-.96.21-1.43.81-4.27,1.96-8.5,2.38-12.8,2.11-21.94,2.17-43.86-1.09-65.71-4.43-29.71-13.98-57.58-29.9-83.18-11.9-19.13-26.31-36.02-44.18-49.85-7.24-5.67-14.49-11.34-21.73-17.01,0,0-.04-.02-.04-.02-.48-.28-.96-.55-1.44-.83l.05.05Z" style="fill: #fefefe; stroke-width: 0px;"/>
  <path d="M100.25,513.09c-5.94-8.42-12.56-16.45-17.68-25.34-10.88-18.92-18.36-39.27-22.97-60.63-4.6-21.34-6.51-42.95-5.4-64.72,1.11-21.85,4.55-43.39,10.41-64.52,6.43-23.17,15.35-45.34,26.6-66.58,13.21-24.94,29.43-47.77,48.19-68.82.41.28.87.5,1.22.84,10.57,10.55,21.13,21.12,31.67,31.7.51.51.81,1.22,1.21,1.84-1.17,1.29-2.39,2.55-3.52,3.88-14.64,17.32-27.24,35.97-37.22,56.4-18.37,37.6-27.82,77.02-24.95,119.05,1.62,23.68,7.35,46.24,18.07,67.48,16.19,32.07,40.66,55.65,73.42,70.21,26.43,11.74,54.37,15.42,83.08,12.71,35.46-3.35,67.96-15.51,97.92-34.49,29.12-18.44,53.64-41.84,73.73-69.87,22.27-31.07,37.6-65.17,44.53-102.86,5.51-29.97,5.29-59.83-2.69-89.4-8.43-31.29-24.15-58.17-48.99-79.29-29.95-25.46-65.06-36.56-103.98-36.5-20.1.03-39.68,3.53-58.86,9.56-19.78,6.21-38.28,15.13-55.73,26.19-15.64,9.92-29.96,21.58-43.19,34.56-.53-.31-1.07-.62-1.6-.93-1.47-1.48-2.93-2.96-4.4-4.44-.28-.26-.55-.52-.83-.78l.02.02c-.26-.26-.51-.51-.77-.77l.02.02c-.26-.25-.52-.5-.77-.76h.01c-.47-.27-.94-.56-1.4-.84-.25-.25-.5-.51-.75-.76-.25-.25-.5-.5-.75-.75-.25-.25-.5-.5-.75-.75-.25-.25-.51-.49-.76-.74-.25-.25-.5-.5-.75-.75-.25-.25-.5-.5-.75-.75-.25-.25-.5-.5-.75-.76-.27-.23-.54-.46-.8-.69h.02c-.51-.5-1.01-1.01-1.52-1.51l.02.04c-.26-.26-.53-.52-.79-.79l.04.04-.79-.79.04.04c-.26-.26-.53-.52-.79-.79l.04.04c-.26-.26-.53-.52-.79-.78l.04.04c-.26-.26-.53-.52-.79-.78l.04.04c-.26-.26-.52-.52-.79-.79l.04.04c-.26-.26-.52-.52-.79-.79l.04.04c-.26-.26-.52-.53-.78-.79l.04.04c-.26-.26-.53-.52-.79-.79l.04.04-.79-.78.04.04c-.26-.26-.52-.52-.79-.79l.04.04c-.26-.26-.52-.52-.79-.79l.04.04c-.26-.26-.52-.53-.78-.79l.04.04c-.26-.26-.53-.52-.79-.79l.04.04c-.26-.26-.53-.52-.79-.78l.04.04c-.26-.26-.52-.52-.79-.79l.04.04c-.26-.26-.52-.53-.78-.79l.04.04c-.26-.26-.53-.52-.79-.79l.04.04c-.26-.26-.52-.53-.79-.79l.04.04c-.26-.26-.53-.53-.79-.79l.04.04c-.26-.26-.53-.52-.79-.78l.04.04c-.26-.26-.53-.53-.79-.79l.04.02c-.22-.65-.44-1.3-.66-1.95,12.28-10.59,24.13-21.72,36.97-31.59,10.84-8.33,22.57-15.6,34.38-22.56,9.53-5.61,19.75-10.06,29.66-15.02.25-.04.46-.16.63-.34.51-.18,1.02-.36,1.53-.54,1.23-.07,2.57.15,3.68-.25,4.8-1.73,9.4-4.13,14.31-5.39,14.03-3.62,28.12-7.06,42.29-10.07,8.09-1.72,16.36-3.13,24.6-3.47,10.8-.44,21.72-.34,32.47.75,11.77,1.19,23.44,3.53,35.07,5.83,14,2.77,27.21,8.08,39.81,14.6,24.23,12.52,45.19,29.15,61.89,50.97,10.58,13.82,19.59,28.53,26.12,44.64,6.3,15.54,11.72,31.41,13.57,48.22,1.33,12.06,3.06,24.12,3.53,36.22.39,10.14-.3,20.4-1.44,30.5-1.38,12.29-3.05,24.61-5.77,36.66-5.61,24.83-13.93,48.81-26.24,71.17-7.79,14.14-15.82,28.24-25,41.49-8.81,12.71-19,24.5-29.03,36.32-5.29,6.23-11.27,11.95-17.37,17.41-9.06,8.12-18.13,16.3-27.87,23.55-9.84,7.32-20.4,13.69-30.81,20.23-20.92,13.13-43.55,22.49-67.24,29.16-11.3,3.18-22.91,5.38-34.49,7.39-8.03,1.39-16.26,1.68-24.4,2.46-.87.08-1.74.18-2.6.19-6.07.02-12.13.03-18.2.03-5.73,0-11.45,0-17.11,0,.29.74.68,1.76,1.08,2.77-1.5,0-3.01.01-4.51.02-.73-.04-1.46-.07-2.2-.11-.77-.21-1.53-.41-2.3-.62-.48-.03-.97-.07-1.45-.1-1.01-.23-2.03-.45-3.04-.68-2.48-.54-4.96-1.08-7.44-1.62-.59-.41-1.18-.81-1.77-1.22-1.16-.08-2.32-.17-3.47-.25-.52-.21-1.04-.42-1.57-.63-.48-.05-.95-.1-1.43-.15-1.28-.44-2.55-.87-3.83-1.31-.73-.08-1.46-.15-2.19-.23-.26-.2-.52-.4-.78-.6-16.3-5.89-32-12.98-46.36-22.81-1.34-.92-3.09-1.24-4.65-1.83,0,0,.02.02.02.02-.21-.39-.42-.78-.63-1.16-4.19-3.6-8.36-7.21-12.56-10.78-2.78-2.36-5.61-4.65-8.42-6.98-4.24-4.47-8.49-8.94-12.73-13.42,0,0-.17-.22-.17-.22,0,0,0,.07,0,.07-.23-.39-.45-.77-.68-1.16-.27-.3-.54-.6-.81-.9,0,0,.04.1.04.1-.46-.54-.92-1.09-1.39-1.63,0,0-.17-.22-.17-.22,0,0,0,.06,0,.06Z" style="fill: #fa5e5c; stroke-width: 0px;"/>
  <path d="M224.73,581.44c-.39-1.01-.79-2.02-1.08-2.77,5.66,0,11.38,0,17.11,0,6.07,0,12.13,0,18.2-.03.87,0,1.74-.1,2.6-.19,8.14-.78,16.36-1.07,24.4-2.46,11.58-2,23.19-4.2,34.49-7.39,23.68-6.67,46.32-16.04,67.24-29.16,10.41-6.53,20.97-12.9,30.81-20.23,9.74-7.25,18.82-15.43,27.87-23.55,6.1-5.47,12.08-11.18,17.37-17.41,10.02-11.82,20.22-23.61,29.03-36.32,9.18-13.25,17.21-27.35,25-41.49,12.31-22.35,20.63-46.34,26.24-71.17,2.72-12.04,4.4-24.37,5.77-36.66,1.13-10.1,1.82-20.36,1.44-30.5-.46-12.1-2.2-24.16-3.53-36.22-1.85-16.81-7.27-32.68-13.57-48.22-6.53-16.11-15.54-30.82-26.12-44.64-16.7-21.82-37.66-38.45-61.89-50.97-12.6-6.51-25.81-11.83-39.81-14.6-11.62-2.3-23.3-4.63-35.07-5.83-10.74-1.09-21.66-1.19-32.47-.75-8.24.34-16.51,1.75-24.6,3.47-14.17,3.01-28.26,6.45-42.29,10.07-4.91,1.27-9.51,3.66-14.31,5.39-1.11.4-2.45.18-3.68.25,17.51-7.71,35.71-13.19,54.43-17.06,24.02-4.97,48.27-6.04,72.57-3.53,20.79,2.15,41.04,7.26,60.09,15.97,10.45,4.78,20.2,11.12,30.26,16.76.72.5,1.44.99,2.17,1.49,0,0,.08.05.08.05.27.22.54.44.81.66,0,0-.05-.05-.05-.05.48.28.96.55,1.44.83,0,0,.04.02.04.02,2.46,2.33,4.83,4.77,7.41,6.97,4.41,3.76,8.95,7.36,13.43,11.03,1.03,1.03,2.05,2.06,3.08,3.09,2.51,2.71,5.02,5.41,7.53,8.12h0c.75,1.01,1.51,2,2.26,3,.24.25.48.51.73.76.99,1.25,1.98,2.5,2.97,3.75,0,0,.02.02.02.02.99,1.24,1.99,2.48,2.98,3.73,0,0,.02.02.02.02.75,1.24,1.49,2.48,2.24,3.72.64,1.48,1.16,3.02,1.94,4.41,5.33,9.55,11.14,18.87,15.99,28.65,6.7,13.51,11.35,27.87,14.2,42.65,2.39,12.37,3.58,24.96,5.43,37.44.13.85,1.37,1.53,2.09,2.29.01,9.46.03,18.92.05,28.39-.74.87-2.02,1.67-2.13,2.61-1.13,10.22-1.79,20.5-3.14,30.69-2.49,18.81-7.76,37-14.49,54.64-5.22,13.66-11.74,26.84-18.03,40.07-7.93,16.69-18.21,31.99-29.42,46.6-7.33,9.54-15.28,18.68-23.59,27.38-9.44,9.89-19.09,19.69-29.57,28.43-10.35,8.65-21.72,16.12-32.87,23.77-14.42,9.89-29.92,17.84-46.02,24.62-8.68,3.65-17.5,6.97-26.25,10.45l-3.72.77c-.51.24-1.02.49-1.52.73-1.24.26-2.48.51-3.72.77-.51.24-1.02.49-1.52.73-1.24.26-2.48.51-3.72.77-.53.47-1.06.93-1.59,1.4-.73.01-1.45.02-2.18.03-.5.02-1.01.03-1.51.05-.74.01-1.48.02-2.21.03-.53.46-1.06.92-1.59,1.39-.73.01-1.46.03-2.18.04-.5.02-1.01.03-1.51.05-.73.01-1.47.02-2.2.03-1.51.23-3.03.45-4.54.68-.5.24-1,.47-1.5.71-.75.01-1.5.03-2.25.04-.5.24-1.01.47-1.51.71-.01.24-.03.48-.05.73-.97.01-1.95.02-2.92.04-.78.23-1.55.47-2.33.7-1.47.02-2.94.04-4.42.06-.75-.24-1.5-.48-2.25-.72-.5.23-1.01.47-1.51.7-.01.24-.03.49-.05.73-.98.01-1.95.02-2.93.03-1.01.24-2.03.47-3.04.71v.04c-6.95.22-13.9.43-20.86.65-.78-.21-1.56-.42-2.34-.63-1,.02-2,.03-3,.05-1.23-.04-2.45-.07-3.68-.11-.01-.24-.03-.48-.04-.72-.5-.23-1.01-.46-1.51-.7-2.24-.01-4.49-.02-6.73-.04-2.11-.76-4.17-1.71-6.34-2.19-1.03-.23-2.27.45-3.41.72-.5,0-1-.01-1.49-.02Z" style="fill: #f96462; stroke-width: 0px;"/>
  <path d="M318.41,576.25c1.24-.26,2.48-.51,3.72-.77.51-.24,1.02-.49,1.52-.73,1.24-.26,2.48-.51,3.72-.77.51-.24,1.02-.49,1.52-.73,1.24-.26,2.48-.51,3.72-.77,1.25-.04,2.63.25,3.74-.17,10.46-3.97,21.02-7.73,31.27-12.17,20.36-8.83,39.53-19.85,57.36-33.09,16.51-12.26,31.28-26.39,45.27-41.47,14.77-15.93,27.53-33.28,39.28-51.46,1.2-1.85,2.44-3.68,3.66-5.51-.5,1.62-.76,3.37-1.53,4.84-3.89,7.36-8.1,14.56-11.74,22.04-.86,1.78-.4,4.54.22,6.62.97,3.27,2.59,6.34,3.98,9.61.89-.26,2.38-.7,3.87-1.15-9.04,10.62-17.63,21.66-27.21,31.77-28,29.56-60.41,53.26-97.56,70.01-13.46,6.07-27.7,10.4-41.59,15.53,2.48-2.41,4.96-4.81,8.42-8.17-3.81-1.36-6.92-3.51-9.86-3.31-7.61.52-15.13,2.22-22.73,3.14-2.37.29-5,1.95-7.31-.35.26-.48.52-.96.78-1.44.74-.01,1.48-.02,2.21-.03.5-.02,1.01-.03,1.51-.05.73-.01,1.45-.02,2.18-.03.53-.47,1.06-.93,1.58-1.4Z" style="fill: #e53845; stroke-width: 0px;"/>
  <path d="M16.3,34.54c2.64,2.07,5.28,4.14,7.92,6.2,1.85,1.69,3.7,3.38,5.55,5.07,13.88,13.26,27.84,26.43,41.61,39.81,10.81,10.5,21.39,21.25,32.07,31.89-.24,1.39-.48,2.78-.85,4.86,6.23-1.93,8.8-6.05,9.82-11.5.98,1.26,1.73,2.85,2.97,3.73,4.26,3.01,6.74,6.76,6.06,12.16l.03.02c-.65.8-1.29,1.6-1.94,2.39,0,0-.19.19-.19.19-.67.08-1.49-.06-2,.26-4.83,3.11-5.25,3.03-9.39-.93-1.65-1.57-3.58-2.85-5.38-4.26-.25-.26-.49-.52-.74-.78-.7-.64-1.52-1.93-2.09-1.83-7.41,1.31-14.62.48-21.82-1.46-3.21-.87-6.54-1.32-9.81-1.96-2.12-.93-4.24-1.87-6.37-2.8-10.3-4.55-19.69-10.63-28.09-18.04-5.16-4.56-9.52-10.03-14.24-15.09-1.51-2.25-3.01-4.5-4.52-6.75h0c-.99-2.25-1.98-4.51-2.98-6.76-.51-1.5-1.01-2.99-1.52-4.49-.24-.5-.49-1.01-.73-1.51-.25-1.5-.5-2.99-.76-4.49.25-2.29.81-4.6.68-6.87-.25-4.5.46-8.67,2.99-12.45,1.02-1.52,2.05-3.03,3.08-4.55.2-.01.4-.03.59-.06Z" style="fill: #eab339; stroke-width: 0px;"/>
  <path d="M41.17,0c8.2.93,14.07,6.05,19.81,11.24,19.2,17.35,32.17,38.87,41.63,62.71,4.06,10.23,7.47,20.63,8.33,31.7-.84.8-1.69,1.59-2.53,2.39-15.42-15.5-30.84-31.01-46.26-46.51-.25-.27-.5-.53-.75-.8h-.01c-.24-.26-.48-.51-.73-.75l-.02-.02-.72-.73-.03-.03c-.24-.24-.48-.48-.73-.72l-.03-.03c-.24-.24-.49-.48-.73-.72l-.03-.03c-.24-.24-.48-.48-.72-.72l-.03-.03c-.24-.24-.47-.48-.71-.73l-.04-.04c-.23-.24-.47-.48-.7-.72l-.05-.05c-.23-.23-.46-.47-.7-.7l-.05-.05c-.23-.23-.47-.46-.7-.69l-.05-.05c-.23-.23-.46-.46-.7-.69l-.05-.05c-.23-.23-.46-.46-.69-.7l-.06-.06c-.23-.23-.46-.46-.68-.69l-.05-.06c-.48-.48-.97-.96-1.45-1.44l-.06-.05-.7-.68-.05-.05c-.23-.23-.46-.46-.69-.69l-.06-.06c-.23-.23-.46-.46-.69-.7l-.05-.05c-.56-1.17-.88-2.57-1.73-3.46-6.95-7.35-14.02-14.59-21-21.91-.82-.86-1.35-1.98-2.02-2.99C25.77,4.89,29.64.27,41.17,0Z" style="fill: #e8b038; stroke-width: 0px;"/>
  <path d="M558.12,283.22c-.01-9.46-.03-18.92-.04-28.39.04-.77.08-1.54.12-2.31.77-2.12,1.88-4.28-.72-6-.02-1-.03-1.99-.05-2.99.8-1.66,1.73-3.34-.69-4.51-.02-1-.03-1.99-.05-2.99-.22-.51-.44-1.01-.66-1.52-.04-.99-.08-1.98-.12-2.97-.22-.51-.44-1.01-.66-1.52-.02-.74-.05-1.49-.07-2.23-.22-.51-.44-1.01-.66-1.52-.04-.99-.07-1.98-.11-2.97-.22-.51-.44-1.02-.65-1.52-.03-.74-.05-1.49-.08-2.23-.22-.51-.43-1.01-.65-1.52-.31-2.49-.62-4.97-.93-7.46,2.42.84,5.59-.27,7.12,2.91.94,1.96,2.2,3.76,3.17,5.71,1.26,2.53,3.02,5.04,3.43,7.73,2.36,15.4,5.45,30.79,6.22,46.29.72,14.43-1.17,28.98-1.86,43.48-.11,2.35.03,4.72.05,7.08-.07.48-.14.96-.21,1.43-.23,1-.46,2-.68,3-.02.5-.04,1-.06,1.5-2.11.7-1.7,1.83-.52,3.08-.06.73-.12,1.45-.18,2.18-.21,1.63-.43,3.25-.64,4.88-.21.93-.42,1.86-.62,2.78-.09.38-.18.77-.28,1.15l-.03.15c-.19.64-.37,1.28-.56,1.91-.19.91-.37,1.81-.56,2.72-.08.26-.15.52-.23.78-2.4,8.53-4.8,17.07-7.24,25.59-.07.25-.57.39-.88.58-.08-.97-.45-2.03-.2-2.91,1.18-4.18,2.89-8.24,3.73-12.47,2.03-10.18,3.42-20.49,5.56-30.65,1.46-6.95-.23-12.19-6.15-16.06q-2.64,1.67-3.87.56c-.24-1-.48-2-.72-3,.02-.98.04-1.96.05-2.95.45-.78.9-1.56,1.35-2.35l.03-3.7c.24-1.02.47-2.03.71-3.05.02-2.48.03-4.96.05-7.44.02-.75.04-1.5.05-2.25-.02-2.01-.04-4.02-.06-6.03Z" style="fill: #bd2830; stroke-width: 0px;"/>
  <path d="M507.98,470.58c-1.49.44-2.99.88-3.87,1.15-1.39-3.27-3.01-6.35-3.98-9.61-.62-2.08-1.08-4.84-.22-6.62,3.64-7.48,7.86-14.68,11.74-22.04.78-1.47,1.04-3.22,1.53-4.84.25-.5.5-1,.75-1.49.5-.75.99-1.5,1.49-2.25,1.99-3.71,4.14-7.34,5.93-11.15,5.85-12.48,11.56-25.03,17.32-37.55-.24,1.47-.29,3.02-.76,4.41-2.23,6.59-4.53,13.16-6.91,19.69-1.18,3.23-.41,5.75,1.98,8.11,2.69,2.65,4.17,5.45,2.22,9.55-2.06,4.35-3.27,9.1-4.88,13.67-.51,1.46-1.34,3.01,1.35,3.02-6.39,9.74-12.78,19.47-19.17,29.21-.27.52-.53,1.04-.8,1.56-1.24,1.74-2.49,3.47-3.73,5.21Z" style="fill: #dd3840; stroke-width: 0px;"/>
  <path d="M531.68,434.6c-2.7,0-1.87-1.55-1.35-3.02,1.6-4.57,2.81-9.32,4.88-13.67,1.95-4.1.47-6.9-2.22-9.55-2.39-2.36-3.16-4.88-1.98-8.11,2.39-6.53,4.68-13.1,6.91-19.69.47-1.4.52-2.94.76-4.41.5-1.25,1-2.49,1.5-3.74.24-.5.49-1.01.73-1.51.55-2.04,1.11-4.07,1.63-6.11,3.77-14.75,7.5-29.51,11.32-44.26.46-1.76,1.32-3.42,2-5.13-.14,1.35-.17,2.72-.44,4.05-1.76,8.86-3.65,17.69-5.25,26.58-.21,1.14.77,3.37,1.7,3.7,5.96,2.16,8.34,5.86,6.66,12.01-2.9,10.64-6.07,21.21-9.04,31.83-.32,1.14-.09,2.44-.11,3.66-1.05,3.16-1.74,6.5-3.21,9.45-4.67,9.38-9.64,18.61-14.49,27.89Z" style="fill: #d43b3b; stroke-width: 0px;"/>
  <path d="M570.25,323.77c-.02-2.36-.17-4.73-.05-7.08.69-14.5,2.58-29.05,1.86-43.48-.77-15.5-3.86-30.89-6.22-46.29-.41-2.69-2.17-5.2-3.43-7.73-.97-1.95-2.23-3.75-3.17-5.71-1.53-3.18-4.7-2.07-7.12-2.91-3.75-10.88-6.99-21.97-11.37-32.59-5.63-13.67-12.61-26.71-21.54-38.6-1.01-1.23-2.02-2.47-3.03-3.7,0,0-.02-.02-.02-.02-.99-1.24-1.99-2.48-2.98-3.73,0,0-.02-.02-.02-.02-.99-1.25-1.98-2.5-2.97-3.75-.24-.25-.48-.51-.73-.76-.75-1-1.51-1.99-2.26-2.99,0,0,0-.01,0-.01-2.51-2.71-5.02-5.41-7.53-8.12-1.03-1.03-2.05-2.06-3.08-3.09.3-.33.59-.66.89-.98,17.88,13.83,32.28,30.72,44.18,49.85,15.92,25.59,25.47,53.46,29.9,83.18,3.26,21.85,3.2,43.78,1.09,65.71-.41,4.3-1.57,8.54-2.38,12.8Z" style="fill: #af2f2e; stroke-width: 0px;"/>
  <path d="M310.14,579.21c2.31,2.3,4.94.63,7.31.35,7.6-.92,15.12-2.62,22.73-3.14,2.94-.2,6.04,1.95,9.86,3.31-3.46,3.35-5.94,5.76-8.42,8.17-13.74,2.79-27.47,5.58-41.21,8.37.68-.81,1.64-1.51,1.98-2.45.33-.91.39-2.74-.06-2.96-3.02-1.56-6.09-3.48-9.35-4-5.23-.83-10.62-.59-15.93-.97-.99-.07-1.93-.95-2.89-1.46,0,0-.01-.04-.01-.04,1.01-.24,2.03-.47,3.04-.71.98-.01,1.95-.02,2.93-.03,1.27-.24,2.54-.47,3.82-.71,1.47-.02,2.94-.04,4.42-.06.78-.23,1.55-.47,2.33-.7.97-.01,1.95-.02,2.92-.03,1.28-.24,2.56-.48,3.84-.72.47,0,.94-.02,1.42-.03,1.53-.7,3.06-1.41,4.59-2.11.73-.01,1.47-.02,2.2-.03.5-.02,1.01-.03,1.51-.05.73-.01,1.46-.03,2.18-.04.27.02.53.04.8.06Z" style="fill: #dd3840; stroke-width: 0px;"/>
  <path d="M173.5,196.86c-.4-.62-.7-1.33-1.21-1.84-10.54-10.58-21.1-21.15-31.67-31.7-.34-.34-.81-.56-1.22-.84-8.19-8.29-16.39-16.57-24.57-24.87-.86-.88-1.65-1.83-2.48-2.74,2.33-1.83,4.66-3.67,6.99-5.5,0,0,.19-.19.19-.19.64-.8,1.29-1.59,1.94-2.39,0,0-.03-.02-.03-.02.78-1.13,1.57-2.26,2.36-3.39,7.22,7.24,14.46,14.46,21.62,21.77.65.66.72,1.89,1.05,2.85-5.36-5.21-10.64-10.5-16.12-15.58-1.12-1.04-3.14-2.06-4.46-1.78-4.39.93-6.18,7.17-3.13,10.52,4.26,4.7,8.62,9.3,13.06,13.84,24.74,25.28,49.41,50.62,74.34,75.71,7.43,7.48,15.57,14.25,23.47,21.25,2.38,2.1,5.03,3.89,7.56,5.82.8.54,1.6,1.07,2.41,1.61-2.69,2.52-5.39,1.33-8.08,0-.91-1.32-1.65-2.8-2.74-3.94-3.73-3.85-7.55-7.62-11.4-11.35-4.1-3.98-8.26-7.88-12.4-11.82-1.44-1.52-2.84-3.09-4.32-4.57-10.38-10.29-20.77-20.57-31.16-30.85Z" style="fill: #807acf; stroke-width: 0px;"/>
  <path d="M549.38,397.25c.02-1.22-.21-2.52.11-3.66,2.97-10.62,6.15-21.19,9.04-31.83,1.67-6.15-.7-9.85-6.66-12.01-.93-.34-1.91-2.56-1.7-3.7,1.59-8.89,3.49-17.72,5.25-26.58.26-1.33.3-2.7.44-4.05,0-.48,0-.97,0-1.45.27,0,.53,0,.8,0q1.24,1.1,3.87-.56c5.92,3.87,7.61,9.12,6.15,16.06-2.14,10.16-3.53,20.47-5.56,30.65-.84,4.24-2.56,8.3-3.73,12.47-.25.88.12,1.93.2,2.91-2.73,7.25-5.46,14.5-8.2,21.75Z" style="fill: #ca3334; stroke-width: 0px;"/>
  <path d="M274.16,584.42c.96.51,1.9,1.39,2.89,1.46,5.31.38,10.7.14,15.93.97,3.26.52,6.34,2.44,9.35,4,.44.23.39,2.06.06,2.96-.34.93-1.29,1.64-1.98,2.45-10.48.59-20.96,1.18-31.44,1.76.47-3.51-1.34-5.87-4.32-7-3.9-1.48-8.04-2.3-11.99-3.65-1.72-.58-4.62.46-4.72-2.88,1-.02,2-.03,3-.05.78.21,1.56.42,2.34.63,6.96-.22,13.92-.43,20.87-.65Z" style="fill: #d43b3b; stroke-width: 0px;"/>
  <path d="M198.55,576.87c1.16.08,2.32.17,3.48.25.09.43.17.85.25,1.28,1.8,1.68,3.71,3.26,5.37,5.06,1.82,1.97,3.41,4.14,5.1,6.22-9.27-3.2-18.81-5.82-27.76-9.74-16.51-7.23-31.61-16.94-45.49-28.49-.7-.58-1.18-1.42-1.76-2.13,1.56.6,3.31.91,4.65,1.83,14.36,9.83,30.06,16.93,46.36,22.81.26.2.52.4.78.6.73.08,1.46.15,2.19.23,1.28.44,2.55.87,3.83,1.31.48.05.95.1,1.43.15.52.21,1.04.42,1.57.63Z" style="fill: #af2f2e; stroke-width: 0px;"/>
  <path d="M19.44,82.47c4.72,5.06,9.08,10.53,14.24,15.09,8.4,7.41,17.78,13.49,28.09,18.04,2.12.94,4.24,1.87,6.37,2.8,3.5,1.29,7.01,2.55,10.48,3.91.67.26,2.77.25.83,1.83-1.84-.36-3.68-.73-5.51-1.09-.15-.08-.32-.13-.5-.14-16.48-3.7-31.17-11.14-43.81-22.19-6.61-5.77-12.23-12.66-18.29-19.05,1.94-.48,3.88-.96,5.82-1.44.76.75,1.53,1.49,2.29,2.24Z" style="fill: #c3923a; stroke-width: 0px;"/>
  <path d="M241.2,257.77c-2.53-1.93-5.19-3.72-7.56-5.82-7.9-7-16.04-13.77-23.47-21.25-24.93-25.09-49.6-50.43-74.34-75.71-4.44-4.53-8.8-9.14-13.06-13.84-3.04-3.36-1.26-9.59,3.13-10.52,1.33-.28,3.34.74,4.46,1.78,5.48,5.08,10.76,10.36,16.12,15.58,0,0-.02.06-.02.06-.16.09-.3.21-.42.35-1.27-.66-2.77-1.08-3.76-2.02-4.24-4.05-8.29-8.3-12.5-12.38-3.01-2.92-5.5-2.25-6.21,1.91-.28,1.64.45,3.99,1.58,5.25,5.39,6,10.97,11.83,16.66,17.54,22.9,22.99,45.87,45.91,68.82,68.86.79.79,1.55,1.63,2.35,2.41,5.96,5.8,11.95,11.57,17.88,17.39,3.49,3.43,6.9,6.94,10.35,10.41Z" style="fill: #8c8bec; stroke-width: 0px;"/>
  <path d="M212.75,589.67c-1.69-2.08-3.28-4.26-5.1-6.22-1.67-1.8-3.57-3.38-5.37-5.06.51-.02,1.01-.04,1.52-.06,2.48.54,4.96,1.08,7.44,1.62,1.01.23,2.03.45,3.04.68.48.03.97.07,1.45.1.77.21,1.53.41,2.3.62.73.04,1.46.07,2.2.11,3.51.99,7.01,1.97,10.52,2.96.68.53,1.3,1.19,2.06,1.58,3.27,1.67,6.69,3.08,9.85,4.94,2.03,1.2,3.63,3.04,2.99,5.82-10.96-2.36-21.92-4.72-32.89-7.08Z" style="fill: #bd2830; stroke-width: 0px;"/>
  <path d="M245.64,596.75c.64-2.78-.97-4.62-2.99-5.82-3.16-1.86-6.57-3.27-9.85-4.94-.76-.39-1.38-1.05-2.06-1.58,4.51-.01,9.01-.02,13.52-.04,1.23.04,2.45.07,3.68.11.1,3.33,3,2.29,4.72,2.88,3.95,1.34,8.09,2.17,11.99,3.65,2.98,1.13,4.79,3.49,4.32,7-7.78-.42-15.56-.85-23.33-1.27Z" style="fill: #ca3334; stroke-width: 0px;"/>
  <path d="M16.3,34.54c-.2.03-.39.05-.59.06-.96.39-2.26.51-2.84,1.21-5.59,6.78-6.18,14.49-3.92,22.66.25,1.5.5,2.99.76,4.49.24.5.49,1.01.73,1.51.51,1.5,1.01,2.99,1.52,4.49-.27.02-.55.03-.82.05-.49-.75-.97-1.5-1.46-2.25-1.62-6.14-3.24-12.28-4.86-18.42.54,3.22-2.47,3.18-4.66,4.16-.73-6.12,1.24-11.43,4.95-16.18,2.39-3.06,7.6-3.86,11.19-1.77Z" style="fill: #f3cd50; stroke-width: 0px;"/>
  <path d="M41.17,0c-11.53.27-15.4,4.89-17.27,19.59-2.74-.52-5.48-1.03-8.22-1.55-.67-6.05,3.71-14.77,9.57-16.46C30.29.12,35.85.46,41.17,0Z" style="fill: #f3cd50; stroke-width: 0px;"/>
  <path d="M15.68,18.04c2.74.52,5.48,1.03,8.22,1.55.67,1,1.2,2.13,2.02,2.99,6.98,7.32,14.05,14.56,21,21.91.85.9,1.16,2.3,1.73,3.46-4.03-3.76-8.06-7.52-12.09-11.28-.23-.19-.45-.38-.68-.56-1.99-.29-3.98-.59-5.97-.88-4.56-5.24-9.12-10.48-13.68-15.72-.13-.22-.26-.44-.39-.66-.06-.27-.11-.54-.17-.8Z" style="fill: #c3923a; stroke-width: 0px;"/>
  <path d="M.15,52.5c2.19-.98,5.2-.95,4.66-4.16,1.62,6.14,3.24,12.28,4.86,18.42-2.41-.03-4.69.15-5.34,3.13-1.22-3.8-2.43-7.6-3.65-11.4-.14-.72-.27-1.45-.41-2.17-.04-1.27-.09-2.55-.13-3.82Z" style="fill: #f3bc3e; stroke-width: 0px;"/>
  <path d="M4.34,69.89c.64-2.98,2.93-3.16,5.34-3.13.49.75.97,1.5,1.46,2.25,1.27,2.24,2.53,4.47,3.79,6.71,0,0,0,0,0,0,.74,1.5,1.48,3,2.23,4.51-1.94.48-3.88.96-5.82,1.44-2.33-3.93-4.66-7.86-6.99-11.78Z" style="fill: #d6a33e; stroke-width: 0px;"/>
  <path d="M29.92,35.22c1.99.29,3.98.59,5.97.88.02.24.05.49.09.73.02.92.04,1.83.06,2.75-1.57,2.61-2.56,5.79-6.27,6.24-1.85-1.69-3.7-3.38-5.55-5.07,1.9-1.84,3.8-3.68,5.71-5.53Z" style="fill: #999afc; stroke-width: 0px;"/>
  <path d="M79.45,124.14c1.94-1.59-.16-1.57-.83-1.83-3.47-1.36-6.98-2.61-10.48-3.91,3.27.64,6.6,1.09,9.81,1.96,7.19,1.95,14.4,2.78,21.82,1.46.57-.1,1.38,1.19,2.09,1.83-1.79.29-3.57.59-5.36.88-3.71.06-7.43.12-11.14.19-.39-.34-.78-.68-1.17-1.03-.16.3-.32.6-.47.9-1.42-.15-2.84-.3-4.26-.46Z" style="fill: #d6a33e; stroke-width: 0px;"/>
  <path d="M123.8,123.37c-.79,1.13-1.57,2.26-2.36,3.39.69-5.4-1.8-9.15-6.05-12.16-1.25-.88-2-2.47-2.97-3.73-.01-.97-.03-1.95-.04-2.93.19-.19.37-.38.56-.57l.08-.21c2.99,2.89,6.37,5.49,8.83,8.78,1.42,1.9,1.35,4.92,1.95,7.43Z" style="fill: #d6a33e; stroke-width: 0px;"/>
  <path d="M112.38,107.95c.01.98.02,1.95.04,2.93-1.02,5.45-3.58,9.57-9.82,11.5.36-2.08.6-3.47.84-4.86,3.16-1.45,4.89-3.9,5.17-7.36-.07-.7-.14-1.41-.21-2.11.84-.8,1.69-1.59,2.53-2.39.7.5,1.4,1.01,2.09,1.51,0,0-.09.21-.08.21-.19.19-.38.38-.56.58Z" style="fill: #f3cd50; stroke-width: 0px;"/>
  <path d="M146.45,148.06s.1.1.1.1c1.61,1.3,3.22,2.61,4.83,3.91,0,0-.04-.02-.04-.02.26.26.53.53.79.79,0,0-.04-.04-.04-.04.26.26.53.52.79.78,0,0-.04-.04-.04-.04.26.26.53.53.79.79,0,0-.04-.04-.04-.04.26.26.52.53.79.79,0,0-.04-.04-.04-.04.26.26.53.52.79.79,0,0-.04-.04-.04-.04.26.26.52.53.78.79,0,0-.04-.04-.04-.04.26.26.52.52.79.79,0,0-.04-.04-.04-.04.26.26.53.52.79.78,0,0-.04-.04-.04-.04.26.26.53.52.79.79,0,0-.04-.04-.04-.04.26.26.52.53.78.79,0,0-.04-.04-.04-.04.26.26.52.52.79.79,0,0-.04-.04-.04-.04.26.26.52.52.79.79,0,0-.04-.04-.04-.04.26.26.53.52.79.78,0,0-.04-.04-.04-.04.26.26.53.52.79.79,0,0-.04-.04-.04-.04.26.26.52.53.78.79,0,0-.04-.04-.04-.04.26.26.52.52.79.79,0,0-.04-.04-.04-.04.26.26.52.52.79.79,0,0-.04-.04-.04-.04.26.26.53.52.79.78,0,0-.04-.04-.04-.04.26.26.53.52.79.78,0,0-.04-.04-.04-.04.26.26.53.52.79.79,0,0-.04-.04-.04-.04.26.26.52.53.79.79,0,0-.04-.04-.04-.04.26.26.53.52.79.79,0,0-.02-.04-.02-.04.51.51,1.01,1.01,1.52,1.52,0,0-.02,0-.02,0-.03.28-.07.56-.1.84-1.42-.57-3.17-.79-4.19-1.76-5.02-4.76-9.92-9.65-14.69-14.66-1.69-1.78-2.9-4.02-4.32-6.06.12-.14.26-.26.42-.35Z" style="fill: #8c8bec; stroke-width: 0px;"/>
  <path d="M119.35,129.36c-2.33,1.83-4.66,3.67-6.99,5.5-1.25,0-2.5,0-3.75.01-.4-.82-.73-1.68-1.2-2.47-1.59-2.67-3.22-5.32-4.83-7.97,1.8,1.41,3.73,2.69,5.38,4.26,4.14,3.96,4.57,4.04,9.39.93.51-.33,1.32-.19,2-.26Z" style="fill: #d6a33e; stroke-width: 0px;"/>
  <path d="M497.46,112.22c-.3.33-.59.66-.89.98-4.49-3.67-9.03-7.27-13.44-11.03-2.58-2.2-4.95-4.64-7.41-6.97,7.24,5.67,14.49,11.34,21.73,17.01Z" style="fill: #f95553; stroke-width: 0px;"/>
  <path d="M116.15,530.41c2.81,2.32,5.64,4.62,8.42,6.98,4.21,3.57,8.38,7.18,12.56,10.78-.04.35-.08.69-.12,1.03-6.98-6.05-13.96-12.09-20.93-18.14.03-.22.05-.43.07-.65Z" style="fill: #ca3334; stroke-width: 0px;"/>
  <path d="M102.58,124.44c1.61,2.66,3.24,5.3,4.83,7.97.47.78.8,1.64,1.2,2.47-1.56-.86-3.35-1.48-4.63-2.65-2.64-2.41-5.01-5.11-7.49-7.69,1.79-.29,3.57-.59,5.36-.88.25.26.49.52.74.78Z" style="fill: #c3923a; stroke-width: 0px;"/>
  <path d="M116.15,530.41c-.02.22-.04.44-.07.65-4.22-4.69-8.44-9.38-12.66-14.07,4.24,4.47,8.49,8.94,12.73,13.42Z" style="fill: #d43b3b; stroke-width: 0px;"/>
  <path d="M151.38,152.07c-1.61-1.3-3.22-2.61-4.83-3.91,1.39.65,2.78,1.31,4.17,1.96.22.65.44,1.3.66,1.95Z" style="fill: #807acf; stroke-width: 0px;"/>
  <path d="M569.36,328.2c.23-1,.46-2,.68-3-.23,1-.46,2-.68,3Z" style="fill: #af2f2e; stroke-width: 0px;"/>
  <path d="M568.78,332.78c-1.18-1.25-1.59-2.38.52-3.08-.17,1.03-.35,2.05-.52,3.08Z" style="fill: #af2f2e; stroke-width: 0px;"/>
  <path d="M567.96,339.83c.21-1.63.43-3.25.64-4.88-.21,1.63-.43,3.25-.64,4.88Z" style="fill: #af2f2e; stroke-width: 0px;"/>
  <path d="M473.4,93.7c-.72-.5-1.44-.99-2.17-1.49.72.5,1.44.99,2.17,1.49Z" style="fill: #f95553; stroke-width: 0px;"/>
  <path d="M83.7,124.59c.16-.3.32-.6.47-.9.39.34.78.68,1.17,1.03-.55-.04-1.1-.09-1.64-.13Z" style="fill: #c3923a; stroke-width: 0px;"/>
  <path d="M100.42,513.25c.46.54.92,1.09,1.39,1.63-.46-.54-.92-1.09-1.39-1.63Z" style="fill: #d43b3b; stroke-width: 0px;"/>
  <path d="M.28,56.32c.14.72.27,1.45.41,2.17-.14-.72-.27-1.45-.41-2.17Z" style="fill: #f3cd50; stroke-width: 0px;"/>
  <path d="M511.71,465.36c.27-.52.53-1.04.8-1.56-.27.52-.53,1.04-.8,1.56Z" style="fill: #e53845; stroke-width: 0px;"/>
  <path d="M567.07,343.77c.09-.38.18-.77.28-1.15-.09.38-.18.77-.28,1.15Z" style="fill: #af2f2e; stroke-width: 0px;"/>
  <path d="M475.69,95.19c-.48-.28-.96-.55-1.44-.83.48.28.96.55,1.44.83Z" style="fill: #f95553; stroke-width: 0px;"/>
  <path d="M566.48,345.83c.19-.64.37-1.28.56-1.91-.19.64-.37,1.28-.56,1.91Z" style="fill: #af2f2e; stroke-width: 0px;"/>
  <path d="M15.85,18.84c.13.22.26.44.39.66-.13-.22-.26-.44-.39-.66Z" style="fill: #f3cd50; stroke-width: 0px;"/>
  <path d="M565.69,349.34c.08-.26.15-.52.23-.78-.08.26-.15.52-.23.78Z" style="fill: #af2f2e; stroke-width: 0px;"/>
  <path d="M252.36,80.61c-.17.19-.38.3-.63.34.21-.11.42-.23.63-.34Z" style="fill: #f96462; stroke-width: 0px;"/>
  <path d="M474.3,94.41c-.27-.22-.54-.44-.81-.66.27.22.54.44.81.66Z" style="fill: #f95553; stroke-width: 0px;"/>
  <path d="M100.25,513.09s0-.06,0-.06c0,0,0,.06,0,.06Z" style="fill: #d43b3b; stroke-width: 0px;"/>
  <path d="M101.76,514.78c.27.3.54.6.81.9-.27-.3-.54-.6-.81-.9Z" style="fill: #d43b3b; stroke-width: 0px;"/>
  <path d="M103.25,516.84s0-.07,0-.07c0,0,0,.07,0,.07Z" style="fill: #d43b3b; stroke-width: 0px;"/>
  <path d="M137.01,549.2c.04-.34.08-.69.12-1.03.21.39.42.77.63,1.16-.25-.04-.5-.09-.75-.13Z" style="fill: #af2f2e; stroke-width: 0px;"/>
  <path d="M73.43,122.9c.18.01.34.06.5.14,0,0-.29.11-.29.11l-.21-.25Z" style="fill: #d6a33e; stroke-width: 0px;"/>
  <path d="M173.5,196.86c10.39,10.28,20.78,20.56,31.16,30.85,1.49,1.48,2.89,3.04,4.32,4.57-6.69,9.32-13.65,18.48-19.99,28.04-3.85,5.81-6.75,12.24-10.07,18.4-.46,1.01-.91,2.03-1.37,3.04-.17.1-.23.25-.16.44-6.4,12.71-9.73,26.39-12.54,40.2-.98,4.84-1.38,9.85-1.58,14.8-.33,8.28-.28,16.58-.39,24.87.35,11.43,2.97,22.43,6.78,33.11,1.86,5.22,4.56,10.13,6.88,15.19.56,1.36.97,2.81,1.71,4.07,18.85,32.2,47.18,50.06,83.9,54.62,25.66,3.19,50.28-1.87,73.71-12.16,28.16-12.36,51.61-31.03,70.72-55.15,19.41-24.49,32.51-51.87,38.15-82.72,5.05-27.67,3.12-54.68-7.95-80.71-2.15-5.07-5.4-9.67-8.14-14.48-.16-.45-.24-.95-.49-1.35-5.94-9.48-13.26-17.71-21.82-24.96-7.66-6.49-16.21-11.36-25.21-15.61-12.49-5.89-25.81-8.23-39.38-9.89-11.63-1.42-23.11.13-34.34,2.2-33.58,6.21-62.07,22.48-86.61,45.98-.18-.03-.36-.07-.54-.12-.2-.19-.4-.38-.6-.57-.31-.26-.62-.53-.93-.79l.05.05c-.27-.27-.53-.53-.8-.8l.05.05c-.26-.31-.53-.62-.79-.93-.45-.44-.89-.88-1.34-1.33l-.91-.95c-.18-.18-.37-.37-.55-.55-.32-.3-.63-.61-.95-.91-.45-.44-.89-.89-1.34-1.33-.3-.32-.6-.63-.91-.95-.19-.19-.37-.37-.56-.56-.32-.31-.63-.62-.95-.93l-2.08-2.07c-.31-.26-.62-.53-.93-.79l.05.05c-.27-.27-.53-.53-.8-.8l.05.05c-.26-.32-.52-.64-.78-.96-.68-.69-1.37-1.37-2.05-2.06-.31-.32-.63-.64-.94-.96-.94-.93-1.88-1.86-2.83-2.79-.31-.26-.62-.52-.93-.79l.05.05c-.27-.27-.53-.53-.8-.8l.05.05-.79-.93c-.44-.44-.89-.89-1.33-1.33-.31-.26-.62-.52-.93-.79l.05.05-.8-.8.05.05c-.26-.32-.52-.64-.78-.96-.43-.43-.87-.87-1.3-1.3-.31-.32-.63-.65-.94-.97-.18-.18-.35-.36-.53-.54-.33-.26-.66-.52-.98-.78l.05.05c-.26-.31-.52-.63-.79-.94-.44-.44-.88-.88-1.32-1.32-.31-.26-.62-.52-.94-.78l.05.04-.8-.8.05.05c-.27-.26-.53-.53-.8-.79h.08c.02-.18.02-.38,0-.57,13.23-12.98,27.55-24.64,43.19-34.56,17.45-11.06,35.95-19.98,55.73-26.19,19.18-6.03,38.76-9.53,58.86-9.56,38.92-.06,74.04,11.05,103.98,36.5,24.84,21.12,40.56,48,48.99,79.29,7.97,29.57,8.19,59.43,2.69,89.4-6.93,37.69-22.25,71.79-44.53,102.86-20.09,28.03-44.61,51.43-73.73,69.87-29.96,18.97-62.45,31.14-97.92,34.49-28.71,2.71-56.65-.96-83.08-12.71-32.77-14.56-57.24-38.14-73.42-70.21-10.72-21.24-16.45-43.8-18.07-67.48-2.87-42.03,6.57-81.45,24.95-119.05,9.98-20.42,22.59-39.07,37.22-56.4,1.13-1.33,2.34-2.59,3.52-3.88Z" style="fill: #f9fbfb; stroke-width: 0px;"/>
  <path d="M212.17,212.05c.45.44.89.89,1.34,1.33.32.3.63.61.95.91.18.18.37.37.55.55.3.32.61.63.91.95.45.44.89.88,1.34,1.33.26.31.53.62.79.93,0,0-.05-.05-.05-.05.27.27.53.53.8.8,0,0-.05-.05-.05-.05.31.26.62.53.93.79.2.19.4.38.6.57.51.57,1.03,1.13,1.54,1.7,1.22,1.23,2.45,2.46,3.67,3.7.28.27.56.53.83.8l2.91,2.94c.28.27.55.54.83.81.47.47.95.95,1.42,1.42.26.28.53.56.79.83.48.48.97.97,1.45,1.45.26.26.52.52.77.78h-.01c.25.24.51.5.76.75h-.01c.26.25.52.5.78.76.48.49.97.97,1.45,1.46.27.26.54.52.81.79l.7.7c.25.27.51.53.76.8h0c.26.25.52.51.77.76.49.49.98.97,1.46,1.46.27.26.54.52.81.78.23.23.46.47.69.7.26.27.51.54.77.81.24.25.47.5.71.74.51.5,1.02,1,1.52,1.51.23.05.47.11.7.18,0,.18.02.36.04.53l.75.79h0c.31.47.63.93.94,1.4l-.07-.05c.21.29.42.58.63.87-.12.94-.24,1.88-.36,2.82-1.13-1.32-2.18-2.72-3.4-3.94-22.92-22.95-45.87-45.87-68.75-68.85-.86-.86-1.15-2.27-1.71-3.43.53,0,1.06-.02,1.59-.03,0,0-.01,0-.01,0,.26.25.52.5.77.76,0,0-.02-.02-.02-.02.26.26.51.51.77.77,0,0-.02-.02-.02-.02.28.26.55.52.83.78,1.47,1.48,2.93,2.96,4.4,4.44.53.5,1.06,1.01,1.6,1.51,0,0-.08,0-.08,0,.27.26.53.53.8.79,0,0-.05-.05-.05-.05.27.27.53.53.8.8,0,0-.05-.04-.05-.04.31.26.62.52.94.78.44.44.88.88,1.32,1.32.26.31.52.62.79.94,0,0-.05-.05-.05-.05.33.26.66.52.98.78.18.18.35.36.53.54.31.32.63.65.94.97.43.43.87.87,1.3,1.31.26.32.52.64.78.96,0,0-.05-.05-.05-.05.27.27.53.53.8.8,0,0-.05-.05-.05-.05.31.26.62.52.93.79.44.44.89.89,1.33,1.33.26.31.53.62.79.93,0,0-.05-.05-.05-.05.27.27.53.53.8.8,0,0-.05-.05-.05-.05.31.26.62.52.93.79.94.93,1.88,1.86,2.83,2.79.31.32.63.64.94.95.68.69,1.37,1.37,2.05,2.06.26.32.52.64.78.96,0,0-.05-.05-.05-.05.27.27.53.53.8.8,0,0-.05-.05-.05-.05.31.26.62.53.93.79.69.69,1.39,1.38,2.08,2.07.32.31.63.62.95.93.19.19.37.37.56.56.3.32.6.63.91.95Z" style="fill: #8c8bec; stroke-width: 0px;"/>
  <path d="M244.26,584.38c-4.51.01-9.01.02-13.52.04-3.51-.99-7.01-1.97-10.52-2.96,1.5,0,3.01-.01,4.51-.02.5,0,1,.01,1.49.02,3.25.49,6.5.98,9.75,1.47,2.24.01,4.49.02,6.73.04.5.23,1.01.46,1.51.7.01.24.03.48.04.72Z" style="fill: #f24949; stroke-width: 0px;"/>
  <path d="M195.56,576.09c-1.28-.44-2.55-.87-3.83-1.31,1.28.44,2.55.87,3.83,1.31Z" style="fill: #f24949; stroke-width: 0px;"/>
  <path d="M214.27,580.63c-1.01-.23-2.03-.45-3.04-.68,1.01.23,2.03.45,3.04.68Z" style="fill: #f24949; stroke-width: 0px;"/>
  <path d="M218.02,581.35c-.77-.21-1.53-.41-2.3-.62.77.21,1.53.41,2.3.62Z" style="fill: #f24949; stroke-width: 0px;"/>
  <path d="M198.55,576.87c-.52-.21-1.04-.42-1.57-.63.52.21,1.04.42,1.57.63Z" style="fill: #f24949; stroke-width: 0px;"/>
  <path d="M203.8,578.33c-.51.02-1.01.04-1.52.06-.08-.43-.17-.85-.25-1.28.59.41,1.18.81,1.77,1.22Z" style="fill: #f24949; stroke-width: 0px;"/>
  <path d="M185.11,185.05c-.53-.5-1.06-1.01-1.6-1.51.53.31,1.07.62,1.6.93.02.19.02.38,0,.58Z" style="fill: #807acf; stroke-width: 0px;"/>
  <path d="M169.36,170.05c-.51-.51-1.01-1.01-1.52-1.52.51.51,1.01,1.01,1.52,1.52Z" style="fill: #807acf; stroke-width: 0px;"/>
  <path d="M176.8,176.84c-.53.01-1.06.02-1.59.03.02-.23,0-.45-.04-.68l.22-.2c.47.28.94.56,1.4.85Z" style="fill: #807acf; stroke-width: 0px;"/>
  <path d="M179.12,179.09c-.28-.26-.55-.52-.83-.78.28.26.55.52.83.78Z" style="fill: #807acf; stroke-width: 0px;"/>
  <path d="M178.31,178.34c-.26-.26-.51-.51-.77-.77.26.26.51.51.77.77Z" style="fill: #807acf; stroke-width: 0px;"/>
  <path d="M177.56,177.59c-.26-.25-.52-.5-.77-.76.26.25.52.5.77.76Z" style="fill: #807acf; stroke-width: 0px;"/>
  <path d="M174.65,175.23c.25.25.5.51.74.76,0,0-.22.2-.22.2-.24-.25-.48-.5-.73-.75l.2-.21Z" style="fill: #807acf; stroke-width: 0px;"/>
  <path d="M173.9,174.48c.25.25.5.5.75.75,0,0-.2.21-.2.21-.25-.25-.5-.5-.75-.75l.2-.21Z" style="fill: #807acf; stroke-width: 0px;"/>
  <path d="M173.15,173.73c.25.25.5.5.75.75,0,0-.2.21-.2.21-.25-.25-.5-.5-.75-.75l.2-.21Z" style="fill: #807acf; stroke-width: 0px;"/>
  <path d="M172.39,172.99c.25.25.5.49.76.74,0,0-.2.21-.2.2-.25-.25-.5-.5-.75-.75l.19-.2Z" style="fill: #807acf; stroke-width: 0px;"/>
  <path d="M171.64,172.24c.25.25.5.5.75.75,0,0-.19.2-.19.2-.25-.25-.5-.5-.75-.75l.2-.2Z" style="fill: #807acf; stroke-width: 0px;"/>
  <path d="M170.89,171.49c.25.25.5.5.75.75,0,0-.19.2-.19.2-.25-.25-.5-.5-.75-.75l.2-.2Z" style="fill: #807acf; stroke-width: 0px;"/>
  <path d="M170.14,170.74c.25.25.5.51.75.76,0,0-.2.2-.2.2-.25-.24-.5-.49-.75-.73l.2-.23Z" style="fill: #807acf; stroke-width: 0px;"/>
  <path d="M169.24,170.89c.03-.28.07-.56.1-.84.27.23.54.46.8.69,0,0-.19.23-.19.23-.23-.04-.47-.07-.71-.08Z" style="fill: #807acf; stroke-width: 0px;"/>
  <path d="M167.86,168.57c-.26-.26-.53-.52-.79-.79.26.26.53.52.79.79Z" style="fill: #807acf; stroke-width: 0px;"/>
  <path d="M167.11,167.83c-.26-.26-.52-.53-.79-.79.26.26.52.53.79.79Z" style="fill: #807acf; stroke-width: 0px;"/>
  <path d="M166.37,167.07c-.26-.26-.53-.52-.79-.79.26.26.53.52.79.79Z" style="fill: #807acf; stroke-width: 0px;"/>
  <path d="M165.62,166.32c-.26-.26-.53-.52-.79-.78.26.26.53.52.79.78Z" style="fill: #807acf; stroke-width: 0px;"/>
  <path d="M164.86,165.58c-.26-.26-.53-.52-.79-.78.26.26.53.52.79.78Z" style="fill: #807acf; stroke-width: 0px;"/>
  <path d="M164.11,164.83c-.26-.26-.52-.52-.79-.79.26.26.52.52.79.79Z" style="fill: #807acf; stroke-width: 0px;"/>
  <path d="M163.36,164.08c-.26-.26-.52-.52-.79-.79.26.26.52.52.79.79Z" style="fill: #807acf; stroke-width: 0px;"/>
  <path d="M162.61,163.33c-.26-.26-.52-.53-.78-.79.26.26.52.53.78.79Z" style="fill: #807acf; stroke-width: 0px;"/>
  <path d="M189.53,574.55c-.26-.2-.52-.4-.78-.6.26.2.52.4.78.6Z" style="fill: #f24949; stroke-width: 0px;"/>
  <path d="M152.13,152.84c-.26-.26-.53-.53-.79-.79.26.26.53.53.79.79Z" style="fill: #807acf; stroke-width: 0px;"/>
  <path d="M152.88,153.59c-.26-.26-.53-.52-.79-.78.26.26.53.52.79.78Z" style="fill: #807acf; stroke-width: 0px;"/>
  <path d="M153.63,154.34c-.26-.26-.53-.52-.79-.79.26.26.53.52.79.79Z" style="fill: #807acf; stroke-width: 0px;"/>
  <path d="M161.87,162.58c-.26-.26-.53-.52-.79-.79.26.26.53.52.79.79Z" style="fill: #807acf; stroke-width: 0px;"/>
  <path d="M154.38,155.09c-.26-.26-.52-.53-.79-.79.26.26.52.53.79.79Z" style="fill: #807acf; stroke-width: 0px;"/>
  <path d="M155.12,155.84c-.26-.26-.52-.52-.79-.79.26.26.52.52.79.79Z" style="fill: #807acf; stroke-width: 0px;"/>
  <path d="M161.12,161.83c-.26-.26-.53-.52-.79-.78.26.26.53.52.79.78Z" style="fill: #807acf; stroke-width: 0px;"/>
  <path d="M155.87,156.59c-.26-.26-.52-.53-.78-.79.26.26.52.53.78.79Z" style="fill: #807acf; stroke-width: 0px;"/>
  <path d="M156.62,157.34c-.26-.26-.52-.52-.79-.79.26.26.52.52.79.79Z" style="fill: #807acf; stroke-width: 0px;"/>
  <path d="M157.37,158.08c-.26-.26-.53-.52-.79-.78.26.26.53.52.79.78Z" style="fill: #807acf; stroke-width: 0px;"/>
  <path d="M160.36,161.09c-.26-.26-.52-.52-.79-.79.26.26.52.52.79.79Z" style="fill: #807acf; stroke-width: 0px;"/>
  <path d="M159.61,160.34c-.26-.26-.52-.52-.79-.79.26.26.52.52.79.79Z" style="fill: #807acf; stroke-width: 0px;"/>
  <path d="M158.86,159.59c-.26-.26-.52-.53-.78-.79.26.26.52.53.78.79Z" style="fill: #807acf; stroke-width: 0px;"/>
  <path d="M158.12,158.83c-.26-.26-.53-.52-.79-.79.26.26.53.52.79.79Z" style="fill: #807acf; stroke-width: 0px;"/>
  <path d="M555.85,313.97c0,.48,0,.97,0,1.45-.68,1.71-1.54,3.36-2,5.13-3.81,14.74-7.55,29.5-11.32,44.26-.52,2.04-1.09,4.07-1.63,6.11-.24.5-.49,1.01-.73,1.51-.5,1.25-1,2.49-1.5,3.74-5.76,12.52-11.47,25.07-17.32,37.55-1.78,3.81-3.94,7.44-5.93,11.15-.5.75-.99,1.5-1.49,2.25-.25.5-.5,1-.75,1.49-1.22,1.84-2.46,3.66-3.66,5.51-11.74,18.18-24.5,35.54-39.28,51.46-13.99,15.08-28.76,29.2-45.27,41.47-17.83,13.25-37,24.26-57.36,33.09-10.26,4.45-20.81,8.21-31.27,12.17-1.11.42-2.49.13-3.74.17,8.75-3.47,17.57-6.79,26.25-10.45,16.1-6.77,31.6-14.73,46.02-24.62,11.15-7.65,22.51-15.12,32.87-23.77,10.47-8.75,20.13-18.55,29.57-28.43,8.31-8.71,16.26-17.84,23.59-27.38,11.21-14.6,21.49-29.91,29.42-46.6,6.28-13.23,12.81-26.41,18.03-40.07,6.74-17.64,12-35.83,14.49-54.64,1.35-10.19,2-20.47,3.14-30.69.1-.94,1.39-1.74,2.13-2.61.02,2.01.04,4.02.06,6.03-.02.75-.04,1.5-.05,2.25-.02,2.48-.03,4.96-.05,7.44-.24,1.02-.47,2.03-.71,3.05,0,1.23-.02,2.47-.03,3.7-.45.78-.9,1.56-1.35,2.35-.02.98-.04,1.96-.05,2.95-.03,1-.05,2-.08,3Z" style="fill: #f24949; stroke-width: 0px;"/>
  <path d="M519.2,139.38c8.93,11.89,15.92,24.93,21.54,38.6,4.37,10.62,7.62,21.71,11.37,32.59.31,2.49.62,4.97.93,7.46.22.51.43,1.01.65,1.52.03.74.05,1.49.08,2.23.22.51.44,1.01.66,1.52.04.99.07,1.98.11,2.97.22.51.44,1.01.66,1.52.02.74.05,1.49.07,2.23.22.51.44,1.01.66,1.52.04.99.08,1.98.11,2.97.22.51.44,1.01.66,1.52.02,1,.03,1.99.05,2.99.23,1.5.46,3.01.69,4.51.02,1,.03,1.99.04,2.99.24,2,.48,4,.72,6-.04.77-.08,1.54-.12,2.31-.72-.76-1.96-1.44-2.09-2.29-1.85-12.47-3.04-25.07-5.43-37.44-2.86-14.77-7.5-29.14-14.2-42.65-4.86-9.79-10.66-19.1-15.99-28.65-.78-1.4-1.3-2.94-1.94-4.41.26,0,.52,0,.79-.01Z" style="fill: #f24949; stroke-width: 0px;"/>
  <path d="M235.97,582.92c-3.25-.49-6.5-.98-9.75-1.47,1.14-.27,2.38-.95,3.41-.72,2.17.48,4.23,1.43,6.34,2.19Z" style="fill: #fa5e5c; stroke-width: 0px;"/>
  <path d="M499.65,116.29c2.51,2.71,5.02,5.41,7.53,8.12-2.51-2.71-5.02-5.41-7.53-8.12Z" style="fill: #f95553; stroke-width: 0px;"/>
  <path d="M303.44,579.27c-1.53.7-3.06,1.41-4.59,2.11.02-.48.03-.96.05-1.43,1.51-.23,3.03-.45,4.54-.68Z" style="fill: #f24949; stroke-width: 0px;"/>
  <path d="M513.17,131.93c.99,1.24,1.99,2.48,2.98,3.73-.99-1.24-1.99-2.48-2.98-3.73Z" style="fill: #f95553; stroke-width: 0px;"/>
  <path d="M519.2,139.38c-.26,0-.52,0-.79.01-.75-1.24-1.49-2.48-2.24-3.72,1.01,1.24,2.02,2.47,3.03,3.71Z" style="fill: #f95553; stroke-width: 0px;"/>
  <path d="M510.18,128.16c.99,1.25,1.98,2.5,2.97,3.75-.99-1.25-1.98-2.5-2.97-3.75Z" style="fill: #f95553; stroke-width: 0px;"/>
  <path d="M277.18,583.67c-1.01.24-2.03.47-3.04.71,1.01-.24,2.03-.47,3.04-.71Z" style="fill: #f24949; stroke-width: 0px;"/>
  <path d="M283.93,582.93c-1.27.24-2.54.48-3.82.71.02-.24.04-.49.05-.73.5-.23,1.01-.47,1.51-.71.75.24,1.5.48,2.25.72Z" style="fill: #f24949; stroke-width: 0px;"/>
  <path d="M507.19,124.42c.75,1,1.51,1.99,2.26,2.99-.75-1-1.51-1.99-2.26-2.99Z" style="fill: #f95553; stroke-width: 0px;"/>
  <path d="M297.44,581.42c-1.28.24-2.56.48-3.84.72.02-.24.04-.48.05-.73.5-.24,1.01-.47,1.51-.71.75-.01,1.5-.03,2.25-.04,0,.25.02.5.03.75Z" style="fill: #f24949; stroke-width: 0px;"/>
  <path d="M290.67,582.17c-.77.23-1.55.47-2.33.7.77-.23,1.55-.47,2.33-.7Z" style="fill: #f24949; stroke-width: 0px;"/>
  <path d="M297.44,581.42c0-.25-.02-.5-.03-.75.5-.24,1-.47,1.5-.71-.02.48-.03.96-.05,1.43-.47,0-.94.02-1.42.03Z" style="fill: #fa5e5c; stroke-width: 0px;"/>
  <path d="M253.28,585.07c-.78-.21-1.56-.42-2.34-.63.78.21,1.56.42,2.34.63Z" style="fill: #f24949; stroke-width: 0px;"/>
  <path d="M328.9,573.25c-.51.24-1.02.49-1.52.73.51-.24,1.02-.49,1.52-.73Z" style="fill: #f24949; stroke-width: 0px;"/>
  <path d="M323.65,574.75c-.51.24-1.02.49-1.52.73.51-.24,1.02-.49,1.52-.73Z" style="fill: #f24949; stroke-width: 0px;"/>
  <path d="M318.41,576.25c-.53.47-1.06.93-1.58,1.4.53-.47,1.06-.93,1.58-1.4Z" style="fill: #f24949; stroke-width: 0px;"/>
  <path d="M310.14,579.21c-.27-.02-.53-.04-.8-.06.53-.46,1.06-.93,1.58-1.39-.26.48-.52.96-.78,1.45Z" style="fill: #f24949; stroke-width: 0px;"/>
  <path d="M307.15,579.19c-.5.02-1.01.03-1.51.05.5-.02,1.01-.03,1.51-.05Z" style="fill: #f24949; stroke-width: 0px;"/>
  <path d="M295.16,580.7c-.5.24-1.01.47-1.51.71.5-.24,1.01-.47,1.51-.71Z" style="fill: #fa5e5c; stroke-width: 0px;"/>
  <path d="M281.67,582.21c-.5.24-1.01.47-1.51.71.5-.24,1.01-.47,1.51-.71Z" style="fill: #fa5e5c; stroke-width: 0px;"/>
  <path d="M244.22,583.66c-.5-.23-1.01-.46-1.51-.7.5.23,1.01.46,1.51.7Z" style="fill: #fa5e5c; stroke-width: 0px;"/>
  <path d="M314.64,577.68c-.5.02-1.01.03-1.51.05.5-.02,1.01-.03,1.51-.05Z" style="fill: #f24949; stroke-width: 0px;"/>
  <path d="M108.62,110.15c-.28,3.47-2.01,5.92-5.17,7.36-10.68-10.64-21.26-21.39-32.07-31.89-13.77-13.37-27.73-26.55-41.61-39.81,3.72-.44,4.71-3.63,6.27-6.23,1.98,2.18,3.86,4.46,5.95,6.53,16.31,16.11,32.66,32.18,48.98,48.28,4.35,4.29,8.58,8.7,13.01,12.91,1.29,1.22,3.08,1.92,4.64,2.85Z" style="fill: #9998f8; stroke-width: 0px;"/>
  <path d="M8.94,58.48c-2.26-8.17-1.67-15.88,3.92-22.66.58-.7,1.87-.82,2.84-1.21-1.03,1.52-2.06,3.03-3.08,4.55-2.53,3.78-3.24,7.95-2.99,12.45.12,2.27-.43,4.58-.68,6.87Z" style="fill: #f3bc3e; stroke-width: 0px;"/>
  <path d="M14.92,75.72c-1.26-2.24-2.53-4.47-3.79-6.71.27-.01.54-.03.82-.05.99,2.25,1.98,4.5,2.98,6.76Z" style="fill: #f3bc3e; stroke-width: 0px;"/>
  <path d="M17.15,80.23c-.74-1.5-1.48-3-2.23-4.51,1.51,2.25,3.01,4.5,4.52,6.75-.76-.75-1.53-1.49-2.29-2.24Z" style="fill: #f3bc3e; stroke-width: 0px;"/>
  <path d="M121.48,126.78c-.65.8-1.3,1.59-1.94,2.39.65-.8,1.3-1.59,1.94-2.39Z" style="fill: #d6a33e; stroke-width: 0px;"/>
  <path d="M10.43,64.47c-.24-.5-.49-1.01-.73-1.51.24.5.49,1.01.73,1.51Z" style="fill: #f3bc3e; stroke-width: 0px;"/>
  <path d="M108.62,110.15c-1.56-.94-3.36-1.63-4.64-2.85-4.43-4.2-8.66-8.62-13.01-12.91-16.32-16.1-32.67-32.16-48.98-48.28-2.09-2.07-3.97-4.34-5.95-6.53-.02-.92-.04-1.84-.06-2.75.19-.06.39-.12.59-.16,4.03,3.76,8.06,7.52,12.09,11.28,0,0,.05.05.05.05.23.23.46.46.69.7,0,0,.06.06.06.06.23.23.46.46.69.69,0,0,.05.05.05.05.23.23.47.46.7.68,0,0,.06.05.06.05.48.48.97.96,1.45,1.44,0,0,.05.06.05.06.23.23.46.46.68.69,0,0,.06.06.06.06.23.23.46.46.69.7,0,0,.05.05.05.05.23.23.46.46.7.69,0,0,.05.05.05.05.23.23.47.46.7.69,0,0,.05.05.05.05.23.23.46.47.7.7,0,0,.05.05.05.05.23.24.47.48.7.72,0,0,.04.04.04.04.24.24.47.48.71.73,0,0,.03.03.03.03.24.24.48.48.72.72,0,0,.03.03.03.03.24.24.49.48.73.72,0,0,.03.03.03.03.24.24.48.48.73.72,0,0,.03.03.03.03.24.24.48.49.72.73,0,0,.02.02.02.02.24.25.48.49.73.74,0,0,.01.01.01.01.25.27.5.53.75.8,15.42,15.5,30.84,31.01,46.26,46.51.07.7.14,1.41.21,2.11Z" style="fill: #807acf; stroke-width: 0px;"/>
  <path d="M52.41,51.67c-.48-.48-.97-.96-1.45-1.44.48.48.97.96,1.45,1.44Z" style="fill: #c3923a; stroke-width: 0px;"/>
  <path d="M49.39,48.7c-.23-.23-.46-.46-.69-.7.23.23.46.46.69.7Z" style="fill: #c3923a; stroke-width: 0px;"/>
  <path d="M50.13,49.45c-.23-.23-.46-.46-.69-.69.23.23.46.46.69.69Z" style="fill: #c3923a; stroke-width: 0px;"/>
  <path d="M50.89,50.18c-.23-.23-.47-.46-.7-.68.23.23.47.46.7.68Z" style="fill: #c3923a; stroke-width: 0px;"/>
  <path d="M53.14,52.43c-.23-.23-.46-.46-.68-.69.23.23.46.46.68.69Z" style="fill: #c3923a; stroke-width: 0px;"/>
  <path d="M53.89,53.18c-.23-.23-.46-.46-.69-.7.23.23.46.46.69.7Z" style="fill: #c3923a; stroke-width: 0px;"/>
  <path d="M54.64,53.93c-.23-.23-.46-.46-.7-.69.23.23.46.46.7.69Z" style="fill: #c3923a; stroke-width: 0px;"/>
  <path d="M55.39,54.68c-.23-.23-.47-.46-.7-.69.23.23.47.46.7.69Z" style="fill: #c3923a; stroke-width: 0px;"/>
  <path d="M56.14,55.43c-.23-.23-.46-.47-.7-.7.23.23.46.47.7.7Z" style="fill: #c3923a; stroke-width: 0px;"/>
  <path d="M56.89,56.19c-.23-.24-.47-.48-.7-.72.23.24.47.48.7.72Z" style="fill: #c3923a; stroke-width: 0px;"/>
  <path d="M57.63,56.96c-.24-.24-.47-.48-.71-.73.24.24.47.48.71.73Z" style="fill: #c3923a; stroke-width: 0px;"/>
  <path d="M58.38,57.71c-.24-.24-.48-.48-.72-.72.24.24.48.48.72.72Z" style="fill: #c3923a; stroke-width: 0px;"/>
  <path d="M59.14,58.45c-.24-.24-.49-.48-.73-.72.24.24.49.48.73.72Z" style="fill: #c3923a; stroke-width: 0px;"/>
  <path d="M59.89,59.19c-.24-.24-.48-.48-.73-.72.24.24.48.48.73.72Z" style="fill: #c3923a; stroke-width: 0px;"/>
  <path d="M60.64,59.95c-.24-.24-.48-.49-.72-.73.24.24.48.49.72.73Z" style="fill: #c3923a; stroke-width: 0px;"/>
  <path d="M61.39,60.71c-.24-.25-.48-.49-.73-.74.24.25.48.49.73.74Z" style="fill: #c3923a; stroke-width: 0px;"/>
  <path d="M62.15,61.53c-.25-.27-.5-.53-.75-.8.25.27.5.53.75.8Z" style="fill: #c3923a; stroke-width: 0px;"/>
  <path d="M558.2,252.51c-.24-2-.48-4-.72-6,2.6,1.72,1.49,3.88.72,6Z" style="fill: #ca3334; stroke-width: 0px;"/>
  <path d="M557.43,243.53c-.23-1.5-.46-3.01-.69-4.51,2.42,1.17,1.49,2.85.69,4.51Z" style="fill: #ca3334; stroke-width: 0px;"/>
  <path d="M557.36,301.98c.24-1.02.47-2.03.71-3.05-.24,1.02-.47,2.03-.71,3.05Z" style="fill: #d43b3b; stroke-width: 0px;"/>
  <path d="M555.85,313.97c.03-1,.05-2,.08-3,.24,1,.48,2,.72,3-.27,0-.53,0-.8,0Z" style="fill: #d43b3b; stroke-width: 0px;"/>
  <path d="M558.12,291.49c.02-.75.04-1.5.05-2.25-.02.75-.04,1.5-.05,2.25Z" style="fill: #d43b3b; stroke-width: 0px;"/>
  <path d="M555.98,308.03c.45-.78.9-1.56,1.35-2.35-.45.78-.9,1.56-1.35,2.35Z" style="fill: #d43b3b; stroke-width: 0px;"/>
  <path d="M555.19,227.79c-.22-.51-.44-1.01-.66-1.52.22.51.44,1.01.66,1.52Z" style="fill: #ca3334; stroke-width: 0px;"/>
  <path d="M556.69,236.03c-.22-.51-.44-1.01-.66-1.52.22.51.44,1.01.66,1.52Z" style="fill: #ca3334; stroke-width: 0px;"/>
  <path d="M554.42,223.3c-.22-.51-.44-1.01-.66-1.52.22.51.44,1.01.66,1.52Z" style="fill: #ca3334; stroke-width: 0px;"/>
  <path d="M555.92,231.54c-.22-.51-.44-1.01-.66-1.52.22.51.44,1.01.66,1.52Z" style="fill: #ca3334; stroke-width: 0px;"/>
  <path d="M553.69,219.55c-.22-.51-.43-1.01-.65-1.52.22.51.43,1.01.65,1.52Z" style="fill: #ca3334; stroke-width: 0px;"/>
  <path d="M513.94,427.11c.5-.75.99-1.5,1.49-2.25-.5.75-.99,1.5-1.49,2.25Z" style="fill: #e53845; stroke-width: 0px;"/>
  <path d="M540.17,372.41c.24-.5.49-1.01.73-1.51-.24.5-.49,1.01-.73,1.51Z" style="fill: #dd3840; stroke-width: 0px;"/>
  <path d="M169.24,170.89c.24,0,.48.03.71.08.25.24.5.49.75.73.25.25.5.5.75.75.25.25.5.5.75.75.25.25.5.5.75.75.25.25.5.5.75.75.25.25.5.5.75.75.24.25.48.5.73.75.04.23.05.45.04.68.56,1.16.86,2.57,1.71,3.43,22.89,22.98,45.84,45.9,68.75,68.85,1.22,1.22,2.27,2.62,3.4,3.94-1.82,2.1-3.65,4.2-5.47,6.29-.8-.54-1.6-1.07-2.41-1.61-3.45-3.47-6.86-6.98-10.35-10.41-5.93-5.82-11.92-11.59-17.88-17.39-.8-.78-1.56-1.62-2.35-2.41-22.94-22.95-45.91-45.87-68.82-68.86-5.69-5.71-11.28-11.54-16.66-17.54-1.13-1.26-1.86-3.61-1.58-5.25.72-4.16,3.2-4.83,6.21-1.91,4.21,4.08,8.26,8.33,12.5,12.38.99.95,2.49,1.36,3.76,2.02,1.43,2.03,2.63,4.28,4.32,6.06,4.77,5.01,9.67,9.9,14.69,14.66,1.03.98,2.78,1.2,4.19,1.76Z" style="fill: #999afc; stroke-width: 0px;"/>
  <path d="M178.93,278.71c3.32-6.15,6.22-12.59,10.07-18.4,6.34-9.56,13.29-18.71,19.99-28.04,4.14,3.94,8.3,7.84,12.4,11.82,3.85,3.74,7.67,7.5,11.4,11.35,1.1,1.13,1.84,2.61,2.74,3.93.17,1.39.34,2.79.51,4.18.75,1.59,1.5,3.17,2.24,4.75-1.27-.24-2.55-.47-3.82-.71-1.44-.21-2.89-.41-4.33-.62-1.29-1.28-2.45-1.76-3.14.53l-1.42.12c-1.71-1.22-3.35-1.84-4.58.61-.49.05-.97.1-1.46.14-.41-.2-.84-.63-1.21-.58-4.93.66-9.91,1.09-14.75,2.17-8.78,1.96-16.79,5.6-23.32,12.06-.5.5-1.88.11-2.85.14-.06-.19-.01-.34.16-.44.46-1.01.91-2.03,1.37-3.04Z" style="fill: #f95553; stroke-width: 0px;"/>
  <path d="M236.03,263.57c-.17-1.39-.34-2.79-.51-4.18,2.7,1.33,5.39,2.52,8.08,0,1.82-2.1,3.64-4.2,5.47-6.29.12-.94.24-1.88.36-2.82-.21-.29-.42-.58-.63-.87,0,0,.07.05.07.05-.31-.47-.63-.93-.94-1.4,0,0,0,0,0,0-.25-.26-.5-.52-.75-.79-.02-.18-.03-.35-.04-.53,1.26-.29,2.51-.59,3.77-.88.78,1.72,1.55,3.44,2.33,5.16.06,5.32-2.82,8.97-6.83,11.98-2,.5-4,1.01-6,1.51-.71-.02-1.42-.04-2.13-.06-.29-.21-.58-.41-.88-.62-.46-.08-.92-.16-1.38-.24Z" style="fill: #f3cd50; stroke-width: 0px;"/>
  <path d="M36.56,36.66c-.2.05-.39.1-.59.16-.04-.24-.07-.48-.09-.73.23.19.45.38.68.56Z" style="fill: #9998f8; stroke-width: 0px;"/>
  <path d="M112.38,107.95c.19-.19.38-.39.56-.58-.19.19-.38.38-.56.58Z" style="fill: #eab339; stroke-width: 0px;"/>
  <path d="M428.65,223.84c2.74,4.82,5.99,9.42,8.14,14.48,11.07,26.03,13,53.04,7.95,80.71-5.63,30.85-18.74,58.22-38.15,82.72-19.11,24.12-42.57,42.79-70.72,55.15-23.44,10.29-48.05,15.34-73.71,12.16-36.72-4.56-65.05-22.42-83.9-54.62-.74-1.26-1.14-2.71-1.7-4.08.82-.66,1.56-1.74,2.46-1.9,3.3-.6,6.67-.83,10-1.31,13.15-1.86,24.79-7.23,35.48-15.02,2.6-1.89,5.93-2.77,8.92-4.12,12.04,13.95,27.24,22.19,45.52,23.97,25.24,2.46,47.64-5.57,67.34-20.84,26.9-20.87,43.05-48.11,45.87-82.46,1.25-15.19-1.28-29.79-8.51-43.4,1.4-.2,2.8-.39,4.45-.62-.95-2.44-1.86-4.77-2.91-7.45,1.73.18,3.13.33,5.02.53-.06-5.14,2.08-9.01,7.02-11.58,1.48.71,3.14.37,4.27-2.17.41-.94,1.94-1.36,2.89-2.1,2.66-2.07,5.3-4.17,7.91-6.31.43-.35.89-.93.93-1.43.35-4.03,2.69-6.56,6.21-8.05.89-.38,2.33-.41,3.12.06,3.16,1.9,5.09,1.17,6.11-2.3Z" style="fill: #fa5e5d; stroke-width: 0px;"/>
  <path d="M428.65,223.84c-1.02,3.48-2.95,4.2-6.11,2.3-.79-.47-2.23-.44-3.12-.06-3.52,1.49-5.85,4.02-6.21,8.05-.04.51-.51,1.08-.93,1.43-2.61,2.14-5.25,4.24-7.91,6.31-.95.74-2.48,1.16-2.89,2.1-1.12,2.54-2.78,2.88-4.27,2.17-4.94,2.57-7.08,6.44-7.02,11.58-1.89-.2-3.29-.35-5.02-.53,1.05,2.68,1.96,5.01,2.91,7.45-1.64.23-3.04.43-4.45.62-4.38-7.68-9.42-14.77-16.41-20.42-11.43-9.24-24.41-14.41-39.02-15.45-16.69-1.19-32.41,2.47-47.36,9.8-1.26-.97-2.47-2.01-3.78-2.9-6.7-4.57-13.43-9.1-20.15-13.65-4.47.02-8.94-.05-13.4.11-3.09.11-4.95,1.82-5.26,5.01,1.27,2.92,2.54,5.84,3.8,8.76,1.26,2.92,2.49,5.85,3.74,8.77-.29-.08-.58-.16-.86-.25-.24-.25-.47-.5-.71-.74-.26-.27-.51-.54-.77-.81-.23-.23-.46-.47-.69-.7-.27-.26-.54-.52-.81-.78-.49-.49-.98-.97-1.46-1.46-.26-.26-.52-.51-.77-.77,0,0,0,0,0,0-.25-.27-.51-.53-.76-.8-.23-.23-.46-.46-.7-.7-.27-.26-.54-.52-.81-.79-.48-.49-.97-.97-1.45-1.46-.26-.26-.52-.52-.78-.77,0,0,.01.01.01.01-.25-.25-.51-.51-.76-.76,0,0,.01.01.01.01-.26-.26-.52-.52-.77-.78-.48-.48-.97-.97-1.45-1.45-.26-.28-.53-.56-.79-.83-.47-.47-.95-.95-1.42-1.42-.28-.27-.55-.54-.83-.81-.97-.98-1.94-1.96-2.92-2.94-.28-.27-.56-.53-.83-.8-1.22-1.23-2.45-2.46-3.67-3.7-.33-.53-.66-1.05-1-1.58,24.53-23.5,53.02-39.77,86.61-45.98,11.23-2.08,22.71-3.63,34.34-2.2,13.56,1.66,26.89,4,39.38,9.89,9,4.24,17.55,9.12,25.21,15.61,8.56,7.25,15.88,15.48,21.82,24.96.25.4.33.89.49,1.35Z" style="fill: #fa5d5a; stroke-width: 0px;"/>
  <path d="M177.39,282.19c.97-.02,2.35.36,2.85-.14,6.53-6.46,14.54-10.1,23.32-12.06,4.84-1.08,9.82-1.51,14.75-2.17.37-.05.81.37,1.21.58-1.03,1.2-2.06,2.4-3.09,3.6,0,.26,0,.51,0,.77.51,1.11.89,2.31,1.55,3.32,3.49,5.38,7.04,10.72,10.57,16.07l-2.02,3.7c-.33.61-.66,1.21-.99,1.82.05.2.01.39-.11.55-7.1-1-14.15-1.49-21.3-.04-12.42,2.52-22.03,8.68-26.36,20.95-2.22,6.3-2.09,13.1,1.85,18.96,7.98,11.88,20.05,14.73,33.29,13.84,2.81-.19,4.04.27,5.07,2.48,2.02,6.24,4.04,12.48,6.05,18.72-3.42,0-6.84-.14-10.25.04-10.48.57-20.83-.38-30.9-3.24-4.22-1.2-8.69-2.94-11.92-5.74-2.75-2.38-4.82-3.48-8.09-2.15.11-8.29.06-16.59.39-24.87.2-4.95.59-9.96,1.58-14.8,2.81-13.81,6.14-27.49,12.54-40.2Z" style="fill: #f94f4e; stroke-width: 0px;"/>
  <path d="M162.89,362.06c3.27-1.33,5.34-.24,8.09,2.15,3.23,2.8,7.7,4.55,11.92,5.74,10.06,2.85,20.41,3.81,30.9,3.24,3.41-.19,6.83-.04,10.25-.04,3.12,4.95,6.25,9.91,9.37,14.86-2.99,1.35-6.32,2.23-8.92,4.12-10.69,7.79-22.33,13.16-35.48,15.02-3.33.47-6.7.71-10,1.31-.9.16-1.64,1.24-2.46,1.9-2.32-5.05-5.02-9.97-6.88-15.19-3.82-10.69-6.43-21.68-6.78-33.11Z" style="fill: #f95553; stroke-width: 0px;"/>
  <path d="M178.93,278.71c-.46,1.01-.91,2.03-1.37,3.04.46-1.01.91-2.03,1.37-3.04Z" style="fill: #f94f4e; stroke-width: 0px;"/>
  <path d="M220.81,220.22c.33.53.66,1.05,1,1.58-.51-.57-1.02-1.13-1.54-1.7.18.05.36.09.54.12Z" style="fill: #807acf; stroke-width: 0px;"/>
  <path d="M199.45,199.3c-.31-.26-.62-.52-.93-.79.31.26.62.52.93.79Z" style="fill: #807acf; stroke-width: 0px;"/>
  <path d="M198.57,198.57c-.27-.27-.53-.53-.8-.8.27.27.53.53.8.8Z" style="fill: #807acf; stroke-width: 0px;"/>
  <path d="M197.82,197.82c-.26-.31-.53-.62-.79-.93.26.31.53.62.79.93Z" style="fill: #807acf; stroke-width: 0px;"/>
  <path d="M195.7,195.56c-.31-.26-.62-.52-.93-.79.31.26.62.52.93.79Z" style="fill: #807acf; stroke-width: 0px;"/>
  <path d="M194.82,194.82c-.27-.27-.53-.53-.8-.8.27.27.53.53.8.8Z" style="fill: #807acf; stroke-width: 0px;"/>
  <path d="M194.07,194.07c-.26-.32-.52-.64-.78-.96.26.32.52.64.78.96Z" style="fill: #807acf; stroke-width: 0px;"/>
  <path d="M191.99,191.81c-.31-.32-.63-.64-.94-.97.31.32.63.64.94.97Z" style="fill: #807acf; stroke-width: 0px;"/>
  <path d="M190.51,190.31c-.33-.26-.66-.52-.98-.78.33.26.66.52.98.78Z" style="fill: #807acf; stroke-width: 0px;"/>
  <path d="M189.58,189.58c-.26-.31-.52-.62-.79-.94.26.31.52.62.79.94Z" style="fill: #807acf; stroke-width: 0px;"/>
  <path d="M187.47,187.32c-.31-.26-.62-.52-.94-.78.31.26.62.52.94.78Z" style="fill: #807acf; stroke-width: 0px;"/>
  <path d="M186.58,186.58c-.27-.27-.53-.53-.8-.8.27.27.53.53.8.8Z" style="fill: #807acf; stroke-width: 0px;"/>
  <path d="M185.83,185.83c-.27-.26-.53-.53-.8-.79.27.26.53.53.8.79Z" style="fill: #807acf; stroke-width: 0px;"/>
  <path d="M215.92,215.79c-.3-.32-.61-.63-.91-.95.3.32.61.63.91.95Z" style="fill: #807acf; stroke-width: 0px;"/>
  <path d="M218.05,218.05c-.26-.31-.53-.62-.79-.93.26.31.53.62.79.93Z" style="fill: #807acf; stroke-width: 0px;"/>
  <path d="M214.46,214.29c-.32-.3-.63-.6-.95-.91.32.3.63.61.95.91Z" style="fill: #807acf; stroke-width: 0px;"/>
  <path d="M218.8,218.8c-.27-.27-.53-.53-.8-.8.27.27.53.53.8.8Z" style="fill: #807acf; stroke-width: 0px;"/>
  <path d="M219.67,219.54c-.31-.26-.62-.53-.93-.79.31.26.62.53.93.79Z" style="fill: #807acf; stroke-width: 0px;"/>
  <path d="M212.17,212.05c-.3-.32-.6-.63-.91-.95.3.31.6.63.91.95Z" style="fill: #807acf; stroke-width: 0px;"/>
  <path d="M210.71,210.54c-.32-.31-.63-.62-.95-.93.32.31.63.62.95.93Z" style="fill: #807acf; stroke-width: 0px;"/>
  <path d="M207.68,207.55c-.31-.26-.62-.53-.93-.79.31.26.62.53.93.79Z" style="fill: #807acf; stroke-width: 0px;"/>
  <path d="M206.81,206.81c-.27-.27-.53-.53-.8-.8.27.27.53.53.8.8Z" style="fill: #807acf; stroke-width: 0px;"/>
  <path d="M206.06,206.06c-.26-.32-.52-.64-.78-.96.26.32.52.64.78.96Z" style="fill: #807acf; stroke-width: 0px;"/>
  <path d="M203.22,203.05c-.31-.32-.63-.64-.94-.95.31.32.63.64.94.95Z" style="fill: #807acf; stroke-width: 0px;"/>
  <path d="M245.79,245.29c-1.25-2.92-2.48-5.85-3.74-8.77-1.26-2.93-2.53-5.84-3.8-8.76,2.22-.22,4.44-.43,6.66-.65,1.44,2.84,3.12,5.58,4.26,8.53,1.25,3.23,3.74,6.38,1.74,10.2-1.26.29-2.51.59-3.77.88-.23-.07-.46-.13-.7-.18-.22-.42-.44-.84-.66-1.26Z" style="fill: #d6a33e; stroke-width: 0px;"/>
  <path d="M245.79,245.29c.22.42.44.84.66,1.26-.51-.5-1.02-1-1.52-1.5.29.08.58.16.86.25Z" style="fill: #807acf; stroke-width: 0px;"/>
  <path d="M247.94,248.05c.31.47.62.93.94,1.4-.31-.47-.62-.93-.94-1.4Z" style="fill: #807acf; stroke-width: 0px;"/>
  <path d="M231.47,231.47c.26.28.53.56.79.83-.26-.28-.53-.56-.79-.83Z" style="fill: #807acf; stroke-width: 0px;"/>
  <path d="M233.71,233.76c.26.26.52.52.77.78-.26-.26-.52-.52-.77-.78Z" style="fill: #807acf; stroke-width: 0px;"/>
  <path d="M234.47,234.53c.25.25.51.51.76.76-.25-.25-.51-.51-.76-.76Z" style="fill: #807acf; stroke-width: 0px;"/>
  <path d="M235.22,235.28c.26.26.52.52.78.77-.26-.26-.52-.52-.78-.77Z" style="fill: #807acf; stroke-width: 0px;"/>
  <path d="M238.96,239c.25.27.51.53.76.8-.25-.27-.51-.53-.76-.8Z" style="fill: #807acf; stroke-width: 0px;"/>
  <path d="M239.71,239.79c.26.26.52.51.77.77-.26-.26-.52-.51-.77-.77Z" style="fill: #807acf; stroke-width: 0px;"/>
  <path d="M241.95,242.01c.27.26.54.52.81.78-.27-.26-.54-.52-.81-.78Z" style="fill: #807acf; stroke-width: 0px;"/>
  <path d="M243.45,243.49c.26.27.51.54.77.81-.26-.27-.51-.54-.77-.81Z" style="fill: #807acf; stroke-width: 0px;"/>
  <path d="M247.19,247.26c.25.26.5.52.75.79-.25-.26-.5-.52-.75-.79Z" style="fill: #807acf; stroke-width: 0px;"/>
  <path d="M248.81,249.4c.21.29.42.58.63.87-.21-.29-.42-.58-.63-.87Z" style="fill: #807acf; stroke-width: 0px;"/>
  <path d="M237.46,237.51c.27.26.54.52.81.79-.27-.26-.54-.52-.81-.79Z" style="fill: #807acf; stroke-width: 0px;"/>
  <path d="M225.47,225.5c.28.27.56.53.83.8-.28-.27-.56-.53-.83-.8Z" style="fill: #807acf; stroke-width: 0px;"/>
  <path d="M229.22,229.24c.28.27.55.54.83.81-.28-.27-.55-.54-.83-.81Z" style="fill: #807acf; stroke-width: 0px;"/>
  <path d="M256.92,222.64c6.72,4.55,13.45,9.08,20.15,13.65,1.31.89,2.52,1.93,3.78,2.9,2.29,3.43,4.57,6.85,6.86,10.28-3.66,2.72-7.36,5.39-10.96,8.19-1.23.96-2.52,2.08-3.22,3.41-3.29,6.21-6.43,12.51-9.52,18.82-.58,1.19-.93,2.6-1.01,3.93-.34,6.06-.55,12.12-.8,18.18-9.08-2.83-13.87-10.76-20.03-17.03-1.67-1.71-2.66-4.08-3.96-6.15-.52-.76-1.04-1.52-1.55-2.28-.73-.97-1.46-1.95-2.19-2.92,0-2,0-3.99-.01-5.99,1.27.24,2.55.47,3.82.71,2.96,1.46,5.92,2.93,8.88,4.39,2.77.51,5.53,1.01,8.3,1.52,2.26-.48,4.52-.97,6.77-1.45.6.12,1.21.25,1.81.37-.12-.39-.24-.78-.36-1.16-.33-.46-.56-1.11-1.01-1.34-3.07-1.64-6.16-3.26-9.31-4.75-2.26-1.08-4.62-1.95-6.94-2.91,4.01-3,6.89-6.65,6.83-11.98,1.08.74,2.27,1.36,3.23,2.23,2.45,2.21,4.81,4.52,7.21,6.79.75.24,1.5.47,2.25.71l.04.06.71,1.48c.02.24.02.48.03.73,0,1.5,0,3.01-.01,4.51,0,0-.01.02-.01.02-.24.5-.48,1-.72,1.51,1.49,1.32,1.59,1.36,2.41-.48,1.9-4.28,3.32-8.88,1.45-13.33-3.2-7.61-7.01-14.95-10.52-22.44-1.5-3.2-5.31-5.9-2.38-10.16Z" style="fill: #f3bc3e; stroke-width: 0px;"/>
  <path d="M234.44,267.61c0,2,0,3.99.01,5.99-.75-.52-1.5-1.04-2.25-1.56-.26-.25-.52-.5-.77-.76-4.73.48-9.45.96-14.18,1.45l-.82-.73c1.03-1.2,2.06-2.4,3.09-3.6.49-.05.97-.1,1.46-.14,1.53-.2,3.05-.41,4.58-.61.47-.04.94-.08,1.42-.12,1.05-.18,2.09-.35,3.14-.53,1.44.21,2.89.41,4.33.62Z" style="fill: #f3cd50; stroke-width: 0px;"/>
  <path d="M247.15,272.71c-2.96-1.46-5.92-2.93-8.88-4.39-.75-1.58-1.49-3.17-2.24-4.75.46.08.92.16,1.38.23.29.21.58.41.88.62.71.02,1.42.04,2.13.06.74.03,1.48.07,2.21.1.76,1.09,1.63,2.12,2.26,3.27.85,1.56,1.52,3.23,2.27,4.85Z" style="fill: #c3923a; stroke-width: 0px;"/>
  <path d="M225.56,267.65c-1.53.2-3.05.41-4.58.61,1.23-2.44,2.86-1.83,4.58-.61Z" style="fill: #f94f4e; stroke-width: 0px;"/>
  <path d="M230.11,266.99c-1.05.18-2.09.35-3.14.53.69-2.29,1.85-1.81,3.14-.53Z" style="fill: #f94f4e; stroke-width: 0px;"/>
  <path d="M263.68,260.03c-2.4-2.27-4.75-4.58-7.21-6.79-.97-.87-2.15-1.5-3.23-2.23-.78-1.72-1.55-3.44-2.33-5.16,2-3.83-.49-6.97-1.74-10.2-1.14-2.95-2.82-5.7-4.26-8.53,1.51-.02,3.02-.04,4.53-.06,1.77,3.22,3.38,6.55,5.35,9.63,4.32,6.75,2.13,16.07,8.75,21.9.27.23.1.96.14,1.45Z" style="fill: #e8b038; stroke-width: 0px;"/>
  <path d="M242.63,264.59c-.74-.03-1.48-.07-2.21-.1,2-.5,4-1.01,6-1.51,2.32.96,4.68,1.83,6.94,2.91,3.15,1.49,6.23,3.11,9.31,4.75.45.24.68.89,1.01,1.35-.48.26-.97.53-1.45.79-2.26.48-4.52.97-6.77,1.45-.78-3.31-9.01-9.5-12.82-9.64Z" style="fill: #eab339; stroke-width: 0px;"/>
  <path d="M238.28,264.42c-.29-.21-.58-.41-.88-.62.29.21.58.41.88.62Z" style="fill: #eab339; stroke-width: 0px;"/>
  <path d="M287.7,249.47c-2.29-3.43-4.57-6.85-6.86-10.28,14.94-7.33,30.67-10.99,47.36-9.8,14.61,1.04,27.58,6.21,39.02,15.45,6.99,5.65,12.03,12.74,16.41,20.42,7.23,13.6,9.76,28.21,8.51,43.4-2.83,34.36-18.97,61.6-45.87,82.46-19.69,15.28-42.09,23.3-67.34,20.84-18.28-1.78-33.48-10.02-45.52-23.97-3.12-4.95-6.25-9.91-9.37-14.86-2.02-6.24-4.04-12.48-6.05-18.72-.08-2.26-.17-4.52-.25-6.78,1.37.01,2.77.19,4.11,0,5.51-.78,11.12-1.15,15.2-5.87,7.15-8.25,7.78-17.68,5.24-27.66-.43-1.69-1.63-3.59-3.04-4.56-4.67-3.22-9.6-6.07-14.43-9.06l.63-2.26c.12-.17.16-.35.11-.55.33-.61.66-1.21.99-1.82.67-1.23,1.34-2.46,2.02-3.7.4.28.9.49,1.19.86,6.52,8.33,15.36,12.8,25.36,15.44,6.49,1.72,12.92,3.66,19.38,5.51-4.43,13.97-3.52,26.67,8.68,36.7-.84,1.49-1.68,2.99-2.53,4.48-3.38,5.89-4.68,11.72.2,17.54,2.23,2.66,4.49,5.31,6.47,8.15,4.71,6.76,8.17,7.4,16.24,5.1,16.75-4.78,27.92-15.86,30.93-33.48,1.08-6.33,1.66-13.13-1.96-19.22.2-.64.4-1.28.6-1.93,2.31-4.87,4.54-9.77,3.8-15.4l-.11-.18.43-3.34c0-18.14-16.04-29.57-34.64-24.69-1.98-5.85-3.73-11.78-5.98-17.52-2.75-7-5.92-13.83-8.91-20.73Z" style="fill: #f9fbfb; stroke-width: 0px;"/>
  <path d="M249.45,227.04c-1.51.02-3.02.04-4.53.06-2.22.22-4.44.44-6.67.65.31-3.19,2.17-4.9,5.26-5.01,4.46-.16,8.94-.08,13.4-.11-2.93,4.26.88,6.95,2.38,10.16,3.5,7.48,7.32,14.83,10.52,22.44,1.87,4.45.45,9.05-1.45,13.33-.82,1.84-.92,1.79-2.41.48.24-.5.48-1,.72-1.51,0,0,.01-.02.01-.02,0-1.5,0-3.01.01-4.51,0-.24,0-.49-.03-.73-.24-.49-.47-.99-.71-1.48,0,0-.04-.06-.04-.06.02-1.43.04-2.87.06-4.3.02-1.55.28-3.14.03-4.65-1.57-9.08-7.11-16.24-11.71-23.84-1.21-1.99-2.98-1.97-4.86-.9Z" style="fill: #f3cd50; stroke-width: 0px;"/>
  <path d="M225.44,298.24c-.21.75-.42,1.51-.63,2.26-1.03,2.93-2.2,5.83-3.08,8.8-3.68,12.53-5.73,25.24-4,38.35.08,2.26.17,4.52.25,6.78-1.03-2.21-2.27-2.67-5.07-2.48-13.24.89-25.31-1.96-33.29-13.84-3.94-5.87-4.07-12.66-1.85-18.96,4.33-12.27,13.94-18.43,26.36-20.95,7.15-1.45,14.2-.96,21.3.04Z" style="fill: #f94f4e; stroke-width: 0px;"/>
  <path d="M274.48,313.98c-6.46-1.84-12.89-3.79-19.38-5.51-10-2.65-18.84-7.12-25.36-15.44-.29-.37-.79-.58-1.19-.86-3.53-5.35-7.09-10.69-10.57-16.07-.66-1.02-1.04-2.21-1.55-3.32.27-.01.55-.03.82-.04,4.73-.48,9.45-.96,14.18-1.45.26.25.52.5.77.76.75.52,1.5,1.04,2.25,1.56.73.98,1.46,1.95,2.19,2.93.52.76,1.04,1.52,1.55,2.28,1.3,2.07,2.29,4.45,3.96,6.15,6.15,6.27,10.94,14.2,20.03,17.03.94.58,1.81,1.32,2.82,1.73,8.49,3.47,17.02,6.81,25.49,10.34,4.87,2.03,9.63,4.34,14.44,6.52-1.25.11-2.49.22-3.73.32-8.9-2.31-17.81-4.62-26.71-6.93Z" style="fill: #d6a33e; stroke-width: 0px;"/>
  <path d="M226.54,295.86c-.33.61-.66,1.21-.99,1.82.33-.61.66-1.21.99-1.82Z" style="fill: #f24949; stroke-width: 0px;"/>
  <path d="M217.26,272.73c-.27.01-.55.03-.82.04,0-.26,0-.51,0-.77.27.24.55.48.82.73Z" style="fill: #f3bc3e; stroke-width: 0px;"/>
  <path d="M304.93,320.58c-4.81-2.18-9.57-4.49-14.44-6.52-8.46-3.53-17-6.87-25.49-10.34-1.01-.41-1.88-1.14-2.82-1.73.26-6.06.46-12.12.8-18.18.08-1.33.42-2.73,1.01-3.93,3.09-6.31,6.23-12.61,9.52-18.82.71-1.34,2-2.46,3.22-3.41,3.6-2.8,7.3-5.47,10.96-8.19,2.99,6.9,6.16,13.73,8.91,20.73,2.25,5.74,4.01,11.67,5.98,17.52,1.79,6.01,3.58,12.02,5.37,18.03,1.41,4.49,2.8,8.98-.11,13.44-.98.47-1.95.93-2.93,1.4Z" style="fill: #efba54; stroke-width: 0px;"/>
  <path d="M249.45,227.04c1.87-1.06,3.65-1.09,4.86.9,4.61,7.6,10.14,14.77,11.71,23.84.26,1.5,0,3.09-.03,4.65-.02,1.43-.04,2.87-.06,4.3-.75-.24-1.5-.47-2.25-.71-.04-.5.13-1.22-.14-1.45-6.62-5.82-4.43-15.15-8.75-21.9-1.98-3.09-3.58-6.42-5.35-9.63Z" style="fill: #eab339; stroke-width: 0px;"/>
  <path d="M242.63,264.59c3.81.14,12.05,6.33,12.82,9.64-2.77-.51-5.53-1.01-8.3-1.52-.75-1.62-1.42-3.28-2.27-4.85-.63-1.16-1.5-2.19-2.26-3.27Z" style="fill: #e8b038; stroke-width: 0px;"/>
  <path d="M266.71,263c0,1.5,0,3.01-.01,4.51,0-1.5,0-3.01.01-4.51Z" style="fill: #eab339; stroke-width: 0px;"/>
  <path d="M238.2,278.81c-.52-.76-1.03-1.52-1.55-2.28.52.76,1.03,1.52,1.55,2.28Z" style="fill: #f3cd50; stroke-width: 0px;"/>
  <path d="M262.22,272.78c.48-.26.97-.53,1.45-.79.12.39.24.77.36,1.16-.6-.12-1.21-.25-1.81-.37Z" style="fill: #f3cd50; stroke-width: 0px;"/>
  <path d="M265.97,260.79c.24.49.47.99.71,1.48-.24-.49-.47-.99-.71-1.48Z" style="fill: #eab339; stroke-width: 0px;"/>
  <path d="M266.68,267.53c-.24.5-.48,1-.72,1.51.24-.5.48-1,.72-1.51Z" style="fill: #eab339; stroke-width: 0px;"/>
  <path d="M232.21,272.04c-.26-.25-.52-.5-.77-.76.26.25.52.5.77.76Z" style="fill: #f3bc3e; stroke-width: 0px;"/>
  <path d="M307.97,305.74c-1.79-6.01-3.58-12.02-5.37-18.03,18.6-4.88,34.64,6.55,34.64,24.69-.14,1.12-.29,2.23-.43,3.34,0,0,.11.18.1.18-.96-.56-2.1-.93-2.84-1.69-3.58-3.71-7.99-5.82-12.96-6.69-4.35-.76-8.76-1.21-13.14-1.8Z" style="fill: #fa5d5a; stroke-width: 0px;"/>
  <path d="M274.48,313.98c8.9,2.31,17.81,4.62,26.71,6.92-1.5,1.21-2.82,2.9-4.54,3.55-8.43,3.2-10.37,10.39-10.36,17.48,0,3.23-.64,6.46-.99,9.69-.71-.32-1.42-.63-2.14-.95-12.21-10.03-13.11-22.73-8.68-36.7Z" style="fill: #f94f4e; stroke-width: 0px;"/>
  <path d="M307.97,305.74c4.38.59,8.79,1.03,13.14,1.8,4.97.87,9.38,2.98,12.96,6.69.74.76,1.88,1.13,2.84,1.69.75,5.63-1.48,10.53-3.79,15.4-.89-.88-1.98-1.63-2.64-2.66-4.12-6.4-9.36-10.8-17.52-10.18-1.71.13-3.4.46-5.1.7,2.9-4.46,1.52-8.95.11-13.44Z" style="fill: #f94f4e; stroke-width: 0px;"/>
  <path d="M286.93,352.96c-.54-.45-1.08-.89-1.63-1.34.35-3.23.99-6.46.99-9.69-.01-7.09,1.93-14.27,10.36-17.48,1.72-.65,3.04-2.34,4.54-3.55,1.25-.11,2.49-.21,3.74-.32.98-.47,1.95-.93,2.93-1.4,1.7-.24,3.39-.57,5.1-.7,8.16-.62,13.4,3.79,17.52,10.18.66,1.03,1.75,1.78,2.64,2.66-.2.64-.4,1.28-.6,1.93-.5.77-1.01,1.55-1.51,2.32-.42.37-.85.75-1.27,1.12-1.12-4.9-3.67-8.86-7.9-11.63-3.65-2.39-7.31-3.98-11.75-1.51-3.22,1.79-6.75,3.04-10.17,4.47-5.53,2.32-7.44,5.52-7.84,11.36-.32,4.75-1.4,9.45-2.15,14.17-1-.2-1.99-.39-2.99-.59Z" style="fill: #f94f4e; stroke-width: 0px;"/>
  <path d="M336.81,315.74c.14-1.11.29-2.23.43-3.34-.14,1.11-.29,2.23-.43,3.34Z" style="fill: #f94f4e; stroke-width: 0px;"/>
  <path d="M329.73,336.69c-.5.74-.99,1.47-1.49,2.21-.73-1.44-1.4-2.92-2.2-4.32-3.47-6.03-10.38-11.84-18.43-6.27-.49.34-1.17.41-1.72.69-7.71,3.95-9.33,5.39-9.41,13.34-.05,4.26-1.82,8.5-2.81,12.75-1.25-.51-2.5-1.02-3.75-1.53.74-4.72,1.83-9.42,2.15-14.17.39-5.84,2.31-9.04,7.84-11.36,3.42-1.43,6.95-2.68,10.17-4.47,4.44-2.47,8.1-.88,11.75,1.51,4.23,2.77,6.78,6.72,7.9,11.63Z" style="fill: #f94f4e; stroke-width: 0px;"/>
  <path d="M299.72,354.66c-.28.17-.55.34-.83.5-1.74-.03-3.48-.06-5.22-.08.99-4.25,2.76-8.49,2.81-12.75.09-7.95,1.7-9.4,9.41-13.34.55-.28,1.23-.35,1.72-.69,8.04-5.57,14.96.24,18.43,6.27.81,1.4,1.47,2.88,2.2,4.32-.82,1.13-1.63,2.26-2.45,3.38-.22.02-.45.06-.67.1-.62-1.98-1-4.08-1.92-5.92-2.27-4.56-7.13-7.04-11.36-5.67-8.4,2.72-10.09,5.23-10.09,10.88,0,4.33-1.31,8.66-2.03,12.98Z" style="fill: #f94f4e; stroke-width: 0px;"/>
  <path d="M299.72,354.66c.73-4.33,2.03-8.66,2.03-12.98,0-5.66,1.69-8.17,10.09-10.88,4.23-1.37,9.09,1.11,11.36,5.67.91,1.84,1.29,3.94,1.92,5.92-6.72,7.71-15.15,11.89-25.4,12.28Z" style="fill: #fa5e5d; stroke-width: 0px;"/>
</svg>