<?xml version="1.0" encoding="UTF-8"?>
<svg id="Layer_1" data-name="Layer 1" xmlns="http://www.w3.org/2000/svg" viewBox="0 0 436.62 598.34">
  <path d="M88.01,227.01l.03.04c.75.96,1.5,1.92,2.25,2.88,3.22,3.79,6.44,7.59,9.66,11.38l.02.03c.79.92,1.57,1.84,2.36,2.75.29.29.58.57.88.86,1.2,1.23,2.4,2.45,3.6,3.68,1.46,1.51,2.78,3.2,4.41,4.51,11.01,8.84,22.12,17.55,33.13,26.4,6.08,4.89,12.56,9.48,15.65,17.12-.18,4-.57,7.97-3.71,10.9-4,3.73-7.95,7.53-12.2,10.97-11.11,8.99-22.99,17.14-33.39,26.87-9.21,8.62-17.39,18.5-25.04,28.57-14.9,19.6-25.99,41.36-31.91,65.31-3.62,14.66-5.86,29.69-8.2,44.64-1.09,6.95-.94,14.1-1.36,21.15-.18,8.68-.37,17.35-.55,26.03-7.87.55-15.79.79-23.61,1.75-7.56.92-14.47,3.49-18.04,11.15-.49,1.5-.98,3.01-1.47,4.51-.15,2.23-.31,4.45-.46,6.68-.02,4.52-.03,9.04-.05,13.56.2,2.97.4,5.95.6,8.92.32,1.02.64,2.03.95,3.05,2.05,5.36,5.94,9.09,11.37,10.34,6.53,1.49,13.24,2.65,19.92,2.93,34.03,1.42,68.06,3.09,102.11,3.6,74,1.11,148.01,1.22,221.99-1.37,19.94-.7,39.85-2.17,59.76-3.6,11.16-.8,16.71-5.71,18.94-15.66.29-7.75.73-15.49.81-23.25.03-2.77-.82-5.56-1.27-8.34-.88-1.47-1.76-2.93-2.64-4.4-2.93-2.08-5.86-4.16-8.79-6.24-1.28-.43-2.54-1.12-3.86-1.24-8.92-.85-17.85-1.59-26.78-2.36-.11-4.98-.23-9.96-.34-14.94-.82-13.13-1.35-26.29-2.59-39.39-.74-7.89-2.58-15.68-3.93-23.51-2.89-9.85-5.66-19.73-8.69-29.53-5.5-17.75-14.75-33.54-25.68-48.43-7.4-8.87-13.92-18.72-22.41-26.4-14.47-13.1-30.17-24.84-45.35-37.15-3.45-4.01-7.38-7.75-7.49-13.6.3-1.25.59-2.49.89-3.74.59-.96,1.19-1.93,1.78-2.89.69-.83,1.27-1.79,2.1-2.46,8.89-7.17,17.95-14.13,26.69-21.46,8.04-6.75,15.74-13.89,23.59-20.85,9.17-8.72,16.95-18.55,23.45-29.4,1.1-1.33,2.49-2.51,3.26-4,6.03-11.68,11.93-23.42,17.88-35.14.56-1.24,1.19-2.45,1.68-3.72,5.48-14.26,8.2-29.2,10.86-44.16.86-7.24,1.72-14.49,2.58-21.73.29-5.99.58-11.98.87-17.96.19-4.75.37-9.51.56-14.26.08-3.09.16-6.17.24-9.26,7.56-.65,15.16-1.08,22.68-2.02,6.26-.79,12.71-1.65,16.33-8.03l-.04-.02c.51-.47,1.02-.94,1.53-1.41.93-2.63,2.49-5.22,2.66-7.89.43-6.79.51-13.62.18-20.42-.19-3.92-1.43-7.79-2.2-11.68-2.27-4.84-6.22-7.55-11.27-8.87-1.38-.47-2.74-1.26-4.15-1.37-14.84-1.09-29.68-2.06-44.52-3.07-12.05-.51-24.09-1.22-36.14-1.49-18.67-.41-37.34-.51-56.01-.74-1.5-.05-2.99-.16-4.49-.15-54.52.24-109.04.47-163.57.76-6.59.04-13.18.43-19.78.69-19.77.77-39.55,1.41-59.31,2.39-6.8.34-13.63,1.13-20.32,2.39C7.61,7.57.63,13.7.4,22.32c-.25,9.05.05,18.11.11,27.17.57,4.01,2.48,7.24,5.67,9.72,2.23,1.29,4.47,2.58,6.7,3.88l.16.08c.26.11.52.22.79.32,4.26.62,8.52,1.24,12.78,1.85,1.02.13,2.03.26,3.05.39l.31.15.33-.09c4.5.41,8.99.82,13.49,1.23.53,14.28.93,28.56,1.61,42.83.86,17.92,4.13,35.46,9.21,52.64,1.74,5.9,4.34,11.54,6.55,17.3l.65,1.53c.27.74.53,1.48.8,2.22,5.22,9.78,10.43,19.55,15.65,29.33.3.45.59.9.89,1.35l2.08,3.18c1.76,2.46,3.51,4.92,5.27,7.37l.02.03c.5.73,1,1.46,1.5,2.19Z" style="fill: #fefefe; stroke-width: 0px;"/>
  <path d="M355.13,217.38c-6.5,10.85-14.27,20.68-23.45,29.4-1.05.06-2.23-.16-3.1.26-1.08.51-1.78,1.81-2.86,2.33-4.53,2.17-9.22,4.02-13.69,6.3-5.9,3.01-11.59,6.41-17.47,9.44-4.07,2.1-8.25,3.99-12.5,5.71-2.9,1.17-7.42,7.41-6.61,10.32.99,3.56,2.54,6.96,3.85,10.43-.59.96-1.19,1.93-1.78,2.89-1.32-.23-2.7-.27-3.94-.71-4.62-1.63-9.09-3.94-13.83-4.94-4.67-.98-9.62-.95-14.44-.87-4.3.07-8.59.86-12.89,1.28-3.82.38-7.68.48-11.47,1.07-9.89,1.54-19.71,3.65-29.64,4.81-7.38.87-14.89.62-22.35.87.6-.99,1.16-2.81,1.81-2.85,8.35-.49,15.6-4.11,22.67-8.02,2.27-1.25,4.03-3.56,5.79-5.59,2.23-2.56.64-4.86-1.34-6.38-3.27-2.52-6.98-4.45-10.33-6.87-4.26-3.09-10.58-4.76-9.07-12.22.09-.42-.51-1.2-.98-1.48-1.89-1.14-3.78-2.29-5.8-3.17-6.57-2.86-13.31-5.35-19.75-8.45-5.9-2.85-11.51-6.31-17.24-9.52-2.26-1.27-4.35-2.93-6.74-3.82-4.87-1.82-9.87-3.25-14.84-4.8-3.42-1.06-7.23.79-8.5,4.1-.47,1.22-.89,2.46-1.33,3.7-.37.12-.74.24-1.1.36-1.74-3.15-3.37-6.38-5.28-9.43-.69-1.1-2.03-1.8-3.07-2.69-.7.98-1.4,1.96-2.1,2.94-.43-.21-1.14-.33-1.24-.64-2.61-8.37-5.38-16.71-7.59-25.19-.64-2.47-.91-5.88,2.85-7.11,2.35,2.71,4.59,5.54,7.13,8.06.65.65,2.52.88,3.34.43,8.61-4.76,15.48.03,22.51,3.91,3.24,1.79,6.4,3.74,9.59,5.63,1.8,1.07,3.56,2.21,5.36,3.29,6.41,3.82,12.83,7.63,19.25,11.43.2.12.5.07.72.17,2.22,1,4.56,1.79,6.62,3.06,4.18,2.57,7.26,6.47,12.26,8.26,8.81,3.15,17.24,7.35,25.85,11.09,1.92.83,3.84,2.07,5.84,2.26,8.59.79,16.67,3.55,24.93,5.7,6.53,1.7,13.32,2.79,20.06,3.27,7.83.55,15.73.34,23.59.03,3.14-.12,6.21-1.47,9.35-2.13,6.52-1.36,13.52-1.55,19.48-4.15,11.44-5,22.32-11.31,33.36-17.2,1.37-.73,2.28-2.29,3.52-3.32,1.58-1.31,3.23-2.55,4.94-3.69,1.32-.89,2.82-1.5,4.15-2.37,2.53-1.67,5-3.43,7.49-5.16Z" style="fill: #dc7c1a; stroke-width: 0px;"/>
  <path d="M391.39,108.64c-.86,7.24-1.72,14.49-2.58,21.73-.96.94-2.34,1.71-2.79,2.84-1.82,4.56-3.07,9.36-5.08,13.83-1.5,3.34-3.85,6.31-5.82,9.45-1.04,1.66-2.11,3.3-3.1,4.98-1.3,2.21-2.59,4.42-3.78,6.69-2.02,3.87-4.24,7.41-8.43,9.49-2.09,1.03-4.11,2.75-5.42,4.67-3.4,4.98-6.82,9.6-12.73,12.07-3.96,1.65-7.51,4.3-11.16,6.64-1.43.92-2.45,2.53-3.93,3.29-6.11,3.16-12.39,6.01-18.49,9.18-11.35,5.89-22.86,11.34-35.88,12.16-4.43.28-8.91.06-13.35-.16-2.96-.14-5.98-.34-8.82-1.1-8.12-2.17-16.2-4.53-24.22-7.04-6.85-2.15-13.69-4.4-20.39-6.98-8.64-3.33-17.15-7.03-25.69-10.61-.9-.38-1.65-1.1-2.52-1.56-6.86-3.62-13.53-7.76-20.69-10.65-5.09-2.05-10.19-4.08-13.15-8.52-2.83-4.24-7.08-5.36-10.97-7.53-3.46-1.93-7.89-2.49-9.88-6.64,4-.58,7.32-4.09,11.83-2.72.34.1,1.1-1.16,1.66-1.79,5.24.75,10.49,1.49,15.73,2.24,6.1,2.73,12.2,5.48,18.32,8.19,3.48,1.54,7.07,2.86,10.47,4.56,8.26,4.15,16.24,8.95,24.72,12.57,8.52,3.63,17.45,6.35,26.31,9.1,7.43,2.31,15,4.21,22.57,6.06,2.49.61,5.16.57,7.75.71,5.36.28,10.74.39,16.09.75,4.23.29,8.6,1.76,12.63,1.08,4.57-.77,9.54-1.2,13.46-4.63,1.34-1.18,3.81-.97,5.63-1.71,2.96-1.21,6.08-2.3,8.67-4.11,5.55-3.88,10.9-8.07,16.14-12.36,5.21-4.26,11.26-7.62,14.64-13.92,1.63-3.03,3.41-6.53,6.11-8.33,8.03-5.34,9.57-14.62,14.22-21.96,2.72-4.29,3.92-9.58,5.59-14.5.53-1.58.51-3.39.49-5.1-.03-1.85-.64-3.71-.5-5.53.7-8.88-2.57-16.26-8.09-22.93-4.13-4.98-11-7.16-16.68-5.11-2.75-.75-5.49-1.5-8.24-2.25-.71-1.09-1.26-2.35-2.18-3.22-1.66-1.55-3.54-2.86-5.33-4.26,2-.25,4.01-.5,6.01-.75,2.24.25,4.49.49,6.73.74,6.34,2.66,12.53,5.8,19.07,7.83,5.41,1.68,10.29,3.68,14.74,7.32,3.31,2.71,5.2,5.58,6.08,9.75.61,2.89.46,6.64,4.23,8.07Z" style="fill: #eaa528; stroke-width: 0px;"/>
  <path d="M355.13,217.38c-2.49,1.72-4.96,3.49-7.49,5.16-1.33.87-2.83,1.49-4.15,2.37-1.71,1.14-3.36,2.38-4.94,3.69-1.24,1.03-2.15,2.59-3.52,3.32-11.04,5.89-21.92,12.2-33.36,17.2-5.96,2.61-12.96,2.79-19.48,4.15-3.13.65-6.21,2-9.35,2.13-7.85.31-15.76.52-23.59-.03-6.74-.47-13.52-1.57-20.06-3.27-8.26-2.15-16.34-4.91-24.93-5.7-2-.18-3.92-1.42-5.84-2.26-8.6-3.74-17.04-7.94-25.85-11.09-4.99-1.79-8.07-5.69-12.26-8.26-2.06-1.26-4.4-2.06-6.62-3.06-.22-.1-.52-.05-.72-.17-6.42-3.8-12.84-7.61-19.25-11.43-1.8-1.07-3.56-2.21-5.36-3.29-3.18-1.9-6.34-3.84-9.59-5.63-7.03-3.88-13.9-8.67-22.51-3.91-.82.45-2.69.22-3.34-.43-2.54-2.53-4.78-5.35-7.13-8.06-.11-7.3,5.39-10.24,10.48-13.51,1.33-.19,2.82-.86,3.97-.48,7.56,2.47,15.39,4.46,22.49,7.93,13.13,6.42,25.78,13.83,38.71,20.65,3.02,1.59,6.63,2.12,9.57,3.82,7.24,4.17,14.24,8.74,21.36,13.12.84.52,1.77.95,2.7,1.28,4.76,1.69,9.59,3.21,14.3,5.03,4.16,1.61,8.11,3.77,12.31,5.24,2.11.74,4.63.17,6.84.72,4.03,1,7.89,2.98,11.95,3.48,7.44.91,14.97,1.16,22.48,1.42,3.27.11,6.57-.49,9.86-.66,3.79-.2,7.7.26,11.35-.53,6.14-1.34,12.17-3.27,18.15-5.26,4.24-1.41,8.45-3.05,12.41-5.1,7.07-3.68,13.93-7.76,20.89-11.65,5.35-3,11.54-4.9,14.35-11.18.29-.64,1.01-1.09,1.53-1.63,4.16-4.35,8.34-8.67,12.47-13.06,3.68-3.92,6.17-9.26,12.32-10.2-5.94,11.72-11.85,23.46-17.88,35.14-.77,1.5-2.16,2.68-3.26,4Z" style="fill: #e28c1f; stroke-width: 0px;"/>
  <path d="M432.54,540.99c.88,1.47,1.76,2.93,2.64,4.4-.99.12-2.02.09-2.95.38-7.91,2.41-15.79,4.91-23.7,7.33-6.56,2.01-10.84,7.15-14.05,12.42-5.03,8.26-12,13.18-21,15.06-7.72,1.62-15.66,2.42-23.54,3.01-13.55,1.01-27.14,2.11-40.72,2.22-23.8.18-47.61-.33-71.41-.64-11.7-.15-23.4-.44-35.1-.76-5.46-.15-10.94-.27-16.37-.8-13.92-1.35-27.83-2.85-41.73-4.44-12.28-1.4-24.56-2.85-36.8-4.56-5.82-.81-11.61-1.31-17.01-4.69-9.87-6.17-19.98-12.12-31.94-13.6-8.42-1.04-16.8-2.53-25.25-3.29-9.29-.83-15.42,5-20.23,11.74-3.63,5.09-6.59,10.5-12.78,12.91-.2-2.97-.4-5.95-.6-8.92.9-.95,2.33-1.76,2.6-2.87,1.78-7.24,6.99-11.16,13.54-12.83,14.62-3.72,29.55-2.42,44.39-1.52,13.92.84,27.83,1.95,41.74,2.94,1,.49,1.99.97,2.99,1.46,2.5,0,5.01.01,7.51.02.74,0,1.49,0,2.23,0,3.5.25,7.01.49,10.51.74,2.08.45,4.3,2,5.99-.73.75,0,1.49,0,2.24,0,.85.49,1.68,1.38,2.54,1.42,7.33.36,14.67.53,22,.83,4.34.18,8.71.23,13,.78,13.04,1.68,25.35,6.11,36.94,11.97,9.09,4.6,17.92,8.69,28.35,9.11,14.19.57,28.33,2.18,42.52,2.72,7.02.27,14.1-1.29,21.15-1.25,9.51.05,18.83-.92,28.06-3.1,8.46-2,15.22-6.85,21.85-12.24,4.52-3.67,9.63-6.79,14.87-9.34,7.07-3.44,14.71-4.16,22.49-2.44.68.15,1.51-.03,2.2-.26,8.42-2.91,16.77-6.06,25.26-8.73,5.75-1.81,11.71-2.98,17.57-4.43Z" style="fill: #4d7fdd; stroke-width: 0px;"/>
  <path d="M.6,577.68c6.2-2.41,9.15-7.81,12.78-12.91,4.81-6.74,10.94-12.57,20.23-11.74,8.45.76,16.82,2.25,25.25,3.29,11.96,1.48,22.07,7.43,31.94,13.6,5.39,3.37,11.19,3.87,17.01,4.69,12.24,1.71,24.52,3.16,36.8,4.56,13.9,1.58,27.81,3.08,41.73,4.44,5.43.53,10.91.65,16.37.8,11.7.31,23.4.61,35.1.76,23.8.31,47.61.82,71.41.64,13.58-.1,27.16-1.2,40.72-2.22,7.88-.59,15.82-1.39,23.54-3.01,9-1.89,15.97-6.81,21-15.06,3.21-5.27,7.48-10.4,14.05-12.42,7.91-2.43,15.79-4.92,23.7-7.33.94-.29,1.97-.26,2.95-.38.45,2.78,1.3,5.56,1.27,8.34-.07,7.75-.51,15.5-.81,23.24-1.04.39-2.07.83-3.12,1.18-4.82,1.6-9.55,3.93-14.51,4.63-12.13,1.72-24.36,2.88-36.58,3.92-13.84,1.18-27.7,2.35-41.57,2.88-12.65.48-25.34.02-38.01.15-8.29.08-16.58.68-24.87.66-11.52-.04-23.05-.4-34.57-.69-19.04-.47-38.08-.93-57.12-1.52-11.05-.34-22.1-.95-33.15-1.39-7.77-.31-15.55-.48-23.31-.83-15.39-.71-30.78-1.4-46.16-2.3-6.05-.35-12.07-1.26-18.1-1.9-8.13-.86-16.25-2.25-24.4-2.4-9.04-.16-18.1.88-27.15,1.29-3.82.17-7.65.08-11.48.1-.32-1.02-.64-2.03-.95-3.05Z" style="fill: #416acf; stroke-width: 0px;"/>
  <path d="M1.55,580.73c3.83-.03,7.66.07,11.48-.1,9.05-.41,18.11-1.45,27.15-1.29,8.14.14,16.27,1.54,24.4,2.4,6.03.64,12.05,1.54,18.1,1.9,15.38.9,30.77,1.6,46.16,2.3,7.77.36,15.54.52,23.31.83,11.05.44,22.1,1.05,33.15,1.39,19.04.59,38.08,1.05,57.12,1.52,11.52.29,23.05.66,34.57.69,8.29.03,16.58-.57,24.87-.66,12.67-.12,25.36.34,38.01-.15,13.87-.53,27.73-1.69,41.57-2.88,12.22-1.05,24.44-2.2,36.58-3.92,4.96-.7,9.68-3.03,14.51-4.63,1.05-.35,2.08-.78,3.12-1.18-2.23,9.95-7.79,14.87-18.94,15.67-19.9,1.43-39.82,2.9-59.76,3.6-73.98,2.59-147.99,2.47-221.99,1.37-34.05-.51-68.08-2.18-102.11-3.6-6.68-.28-13.39-1.43-19.92-2.93-5.43-1.24-9.32-4.97-11.37-10.34Z" style="fill: #2746ae; stroke-width: 0px;"/>
  <path d="M334.53,75.69c1.79,1.41,3.67,2.71,5.33,4.26.92.86,1.46,2.13,2.18,3.22-.25.25-.51.51-.76.76-2.5,0-5,0-7.49,0-3.65-2-7.11-4.55-10.99-5.86-4.12-1.4-8.64-1.63-12.99-2.37-10.62-.75-21.23-2.11-31.85-2.09-11.36.02-22.74,1.16-34.08,2.16-5.37.47-10.71,1.57-15.99,2.71-3.72.8-7.32,2.12-10.97,3.22-8.62,1.58-17.24,3.23-25.88,4.71-7.42,1.27-14.87,2.45-22.33,3.51-6.24.89-12.56,1.24-18.74,2.38-7.77,1.43-15.44,3.44-23.16,5.15-7.87,1.74-13.01,7.3-17.84,13.07-2.36,2.82.58,13.07,4.74,14.86,6.94,2.98,14.33,4.91,21.53,7.28.84,3.63-.29,7.69,2.48,10.91.61.71.86,1.71,1.28,2.58-8.5-.75-17-1.5-25.49-2.25-6.88.14-12.48-3.63-16.61-8.02-2.89-3.08-5.92-3.72-9.18-4.48-1.6-.37-4.06.52-5.36,1.7-4.84,4.39-8.37,9.72-9.48,16.35-.69,4.11-1.92,8.26-1.81,12.36.17,6.29,1.81,12.54,1.85,18.82.05,8.13,2.04,15.65,4.89,23.11,1.41,3.7,2.39,7.56,3.56,11.35-.74-.27-1.48-.53-2.22-.8-.3-.45-.59-.9-.89-1.35-.09-.73-.02-1.52-.28-2.19-2.6-6.81-6.02-13.41-7.72-20.43-2.4-9.92-4.16-20.08-5.03-30.24-.74-8.64.21-17.41.32-26.13.03-2.08-.67-4.22-.39-6.24,1.56-11.33-.24-22.6-.56-33.88-.14-4.95-.41-5.24,4.35-4.1.6.14,1.23.15,1.85.22.93.74,1.84,2.06,2.81,2.11,2.89.16,5.85.11,8.69-.39,4.62-.83,9.11-2.34,13.74-3.11,10.23-1.71,20.56-2.91,30.76-4.76,9.69-1.76,19.38-.77,28.8.6,12.39,1.8,24.47,2.44,36.53-1.09,5.23-1.53,10.27-3.72,15.5-5.24,7.05-2.05,14.21-3.72,21.31-5.62.32-.09.47-.79.7-1.2.73-.21,1.46-.42,2.19-.62,10.32-.09,20.64-.17,30.96-.26,12.92-.12,25.84-.25,38.76-.38.79,1.78,1.54,1.74,2.26-.04,1.24-.02,2.48-.04,3.73-.07.97.99,1.83,2.68,2.92,2.84,7.99,1.18,16.03,2.05,24.05,3.01Z" style="fill: #e5a24e; stroke-width: 0px;"/>
  <path d="M376.27,178.24c-6.15.94-8.63,6.28-12.32,10.2-4.12,4.38-8.31,8.71-12.47,13.06-.52.54-1.24.99-1.53,1.63-2.81,6.28-9,8.18-14.35,11.18-6.96,3.9-13.82,7.97-20.89,11.65-3.96,2.06-8.17,3.69-12.41,5.1-5.97,1.99-12.01,3.93-18.15,5.26-3.65.79-7.56.34-11.35.53-3.29.17-6.58.77-9.86.66-7.5-.26-15.03-.51-22.48-1.42-4.06-.49-7.92-2.48-11.95-3.48-2.21-.55-4.74.01-6.84-.72-4.2-1.47-8.16-3.63-12.31-5.24-4.71-1.82-9.54-3.34-14.3-5.03-.94-.33-1.86-.76-2.7-1.28-7.12-4.38-14.12-8.95-21.36-13.12-2.95-1.7-6.55-2.22-9.57-3.82-12.94-6.83-25.58-14.23-38.71-20.65-7.09-3.47-14.92-5.46-22.49-7.93-1.15-.37-2.64.3-3.97.48-.7-3.7-1.38-7.4-2.1-11.09-.86-4.4.9-5.83,5.27-4.73,7.65,1.92,15.37,3.58,23.05,5.35,1.99,4.15,6.41,4.7,9.88,6.64,3.89,2.17,8.14,3.29,10.97,7.53,2.96,4.44,8.07,6.47,13.15,8.52,7.16,2.89,13.83,7.02,20.69,10.65.87.46,1.62,1.19,2.52,1.56,8.54,3.58,17.05,7.28,25.69,10.61,6.7,2.58,13.54,4.84,20.39,6.98,8.02,2.51,16.1,4.87,24.22,7.04,2.84.76,5.86.96,8.82,1.1,4.45.22,8.92.44,13.35.16,13.03-.82,24.53-6.27,35.88-12.16,6.11-3.17,12.38-6.02,18.49-9.18,1.48-.77,2.5-2.37,3.93-3.29,3.65-2.34,7.2-4.99,11.16-6.64,5.91-2.47,9.33-7.09,12.73-12.07,1.31-1.92,3.34-3.64,5.42-4.67,4.19-2.08,6.41-5.62,8.43-9.49,1.19-2.27,2.48-4.48,3.78-6.69.99-1.69,2.06-3.32,3.1-4.98,1.97-3.14,4.31-6.1,5.82-9.45,2.01-4.47,3.26-9.27,5.08-13.83.45-1.14,1.83-1.91,2.79-2.84-2.66,14.96-5.38,29.9-10.86,44.16-.49,1.27-1.12,2.48-1.68,3.72Z" style="fill: #e69825; stroke-width: 0px;"/>
  <path d="M91.77,221.77c.7-.98,1.4-1.96,2.1-2.94,1.04.88,2.38,1.58,3.07,2.69,1.91,3.05,3.54,6.27,5.28,9.43.37-.12.74-.24,1.1-.36.44-1.23.86-2.47,1.33-3.7,1.28-3.3,5.08-5.16,8.5-4.1,4.96,1.55,9.97,2.99,14.84,4.8,2.39.89,4.49,2.55,6.74,3.82,5.73,3.21,11.34,6.67,17.24,9.52,6.44,3.11,13.18,5.6,19.75,8.45,2.01.88,3.91,2.03,5.8,3.17.47.29,1.07,1.06.98,1.48-1.5,7.46,4.82,9.13,9.07,12.22,3.34,2.43,7.06,4.36,10.33,6.87,1.98,1.52,3.56,3.82,1.34,6.38-1.76,2.02-3.52,4.33-5.79,5.59-7.07,3.91-14.32,7.52-22.67,8.02-.66.04-1.21,1.86-1.81,2.85-.75.48-1.5.97-2.25,1.45-1.32-.44-2.61-.98-3.96-1.29-.68-.15-1.45.12-2.18.19-.24.04-.44.16-.59.35-3.1-7.65-9.57-12.23-15.65-17.12-11-8.85-22.12-17.56-33.13-26.4-1.63-1.31-2.95-3-4.41-4.51-.03-2.37-1.22-3.6-3.6-3.68-.29-.29-.58-.57-.88-.86-.79-.92-1.57-1.84-2.36-2.76,0,0-.02-.03-.02-.03-.04-.6.1-1.3-.15-1.8-2.25-4.41-4.64-8.75-6.82-13.2-.68-1.38-.82-3.02-1.21-4.54Z" style="fill: #d67119; stroke-width: 0px;"/>
  <path d="M.05,555.2c.15-2.23.31-4.45.46-6.68,1.2-.02,2.41-.03,3.61-.05,2.25,0,4.5-.01,6.74-.02.75,0,1.49-.02,2.24-.03,12.06-.98,24.1-2.2,36.18-2.85,8.34-.45,16.72,0,25.08-.14,7.54-.14,15.09-.34,22.6-.89,10.37-.76,20.71-2.58,31.08-2.68,21.93-.23,43.87.56,65.8.55,27.18-.02,54.36-.46,81.53-.67,10.73-.08,21.47,0,32.2,0-.28,1.95.41,3.16,2.53,3.16,2.31,0,4.63-.25,6.92-.07,8.52.64,17.04,1.31,25.54,2.2,2.87.3,5.66,1.31,8.49,2-.02.45-.04.91-.05,1.36-.96.71-1.82,1.73-2.9,2.08-5.53,1.77-11.07,3.58-16.7,4.98-9.11,2.27-18.47,3.67-27.39,6.5-8.81,2.8-17.67,3.3-26.62,2.69-8.99-.61-17.96-1.86-26.87-3.21-11-1.66-21.9-3.97-32.91-5.53-10.41-1.47-20.89-2.6-31.38-3.35-9.74-.7-19.52-.68-29.29-.99-13.67-.44-27.33-.94-41-1.3-3.2-.08-6.41.52-9.61.39-3.82-.16-7.62-.87-11.45-1.15-5.08-.37-10.17-.56-15.25-.81-10.31-.5-20.61-1.27-30.93-1.39-10.32-.12-20.69-.06-30.96.86-6.05.54-12.78.05-17.7,5.07ZM328.66,551.05c-.08-.36-.17-.72-.25-1.08-1.47-.5-2.93-1.34-4.43-1.44-9.16-.62-18.33-1.28-27.5-1.51-10-.25-20.01-.15-30.01-.02-8.33.1-16.66.44-24.98.73-5.96.21-11.93.28-17.86.84-4.2.4-8.33,1.51-12.5,2.31-.02.37-.04.75-.06,1.12.81.32,1.59.85,2.42.94,10.35,1.05,20.69,2.07,31.05,3.01,3.79.34,7.59.48,11.39.65,6.58.3,13.16.86,19.73.73,9.17-.18,18.36-.66,27.5-1.44,7.38-.63,14.72-1.83,22.05-2.95,1.22-.19,2.3-1.23,3.45-1.88Z" style="fill: #79a0ea; stroke-width: 0px;"/>
  <path d="M284.13,311.79c15.18,12.31,30.88,24.05,45.35,37.15,8.48,7.68,15,17.53,22.41,26.4-.78-.26-1.78-.3-2.29-.82-3.06-3.08-5.99-6.29-8.99-9.43-1.49-1.55-3.05-3.03-4.58-4.54-.32.31-.64.63-.96.94,2.74,3.15,5.51,6.27,8.19,9.47.73.88,1.39,1.91,1.76,2.99,1.89,5.58,3.67,11.21,5.52,16.81.27.8,1,1.49,1.12,2.29.73,5.08.57,10.42,2.16,15.2,3.11,9.38,3.51,18.87,3.26,28.56-.25,9.8-.07,19.61-.33,29.4-.17,6.37-.74,12.74-1.22,19.1-.4,5.3-2.19,10.88-1.09,15.83,1.94,8.8,1.6,18.22,6.34,26.34-1,1.75-2,3.49-3,5.24-8.3-1.43-13.97-9.07-13.5-17.86.12-2.24.61-4.76-.2-6.68-2.08-4.94-.4-9.5.52-14.19.38-1.94.97-3.86,1.18-5.82.48-4.62.22-9.4,1.27-13.87,2.57-10.92,4.2-21.81,2.53-33.04-.94-6.36-1.13-12.85-2.35-19.15-1.24-6.39-3.32-12.62-5.06-18.91-.33-1.2-.64-2.44-1.19-3.53-4.41-8.72-8.81-17.45-13.37-26.1-1.14-2.16-2.66-4.2-4.32-6.01-4.78-5.22-9.63-10.4-14.64-15.39-3.22-3.2-6.53-6.44-10.26-8.98-5.51-3.76-11.8-6.43-17.09-10.45-8.45-6.43-15.85-13.87-17.36-25.3-.19-1.42-1.84-2.66-2.81-3.98-.25-1-.5-1.99-.76-2.99.7.23,1.49.32,2.1.7,5.39,3.43,10.75,6.92,16.12,10.37,1.69,1.09,3.4,2.14,5.34,3.37.1-1.51.15-2.32.2-3.12Z" style="fill: #efb230; stroke-width: 0px;"/>
  <path d="M.51,49.5c-.06-9.06-.36-18.12-.11-27.17C.63,13.7,7.61,7.57,14.68,6.23c6.69-1.27,13.52-2.06,20.32-2.39,19.76-.98,39.54-1.62,59.31-2.39,6.59-.26,13.18-.65,19.78-.69C168.61.47,223.13.24,277.65,0c1.49,0,2.99.1,4.49.15-1.1.64-2.14,1.45-3.33,1.88-1.04.38-2.46-.02-3.33.53-1.94,1.22-3.54,1.25-5.49.02-.79-.5-2.1-.18-3.17-.24.38,1.08.57,2.3,1.2,3.22.7,1.03,1.81,1.78,2.73,2.65-1.67.13-3.23-.83-3.87-.4-3.93,2.64-8.07,4.03-12.82,3.28-.3-.05-.66.39-1.01.43-2.37.28-4.76.8-7.12.69-1.83-.08-3.24-.23-3.57,2-35.94-.15-71.88-.31-107.83-.46-.53,0-1.06,0-1.58,0-4.22-.03-8.44-.05-12.66-.08-2.77,0-5.53-.02-8.3-.03-.98,0-1.96,0-2.95-.01-9.49-.27-18.98-.54-28.47-.8-.76-.03-1.51-.07-2.27-.1-1.3-.24-2.6-.65-3.9-.69-10.45-.3-20.9-.36-31.34-.84-8.82-.4-17.46-2.17-26.42.64-8.05,2.53-13.61,7.43-14,15.27-.32,6.33-.45,12.66-.82,18.99-.07,1.16-.86,2.28-1.31,3.41Z" style="fill: #bfc9ea; stroke-width: 0px;"/>
  <path d="M.05,555.2c4.93-5.02,11.66-4.53,17.7-5.07,10.27-.92,20.64-.98,30.96-.86,10.31.12,20.62.89,30.93,1.39,5.09.25,10.17.44,15.25.81,3.82.28,7.62.99,11.45,1.15,3.19.13,6.41-.47,9.61-.39,13.67.36,27.34.86,41,1.3,9.76.31,19.55.3,29.29.99,10.49.75,20.97,1.88,31.38,3.35,11.01,1.55,21.91,3.86,32.91,5.53,8.92,1.35,17.88,2.6,26.87,3.21,8.95.61,17.81.11,26.62-2.69,8.92-2.83,18.28-4.23,27.39-6.5,5.63-1.4,11.17-3.21,16.7-4.98,1.08-.35,1.94-1.37,2.9-2.08.02-.45.04-.91.05-1.36-2.83-.69-5.62-1.7-8.49-2-8.5-.89-17.02-1.56-25.54-2.2-2.29-.17-4.61.07-6.92.07-2.12,0-2.8-1.21-2.53-3.16,4.83-.24,9.67-.56,14.5-.72,16.15-.53,32.31-1,48.46-1.49-.8,2.5-.46,4.49,2.07,5.93,1.16.66,2,1.87,2.99,2.84-1.26.95-2.39,2.32-3.81,2.78-6.95,2.27-13.95,4.45-21.01,6.35-5.91,1.59-11.27,4.33-15.32,8.7-4.2,4.52-9.43,6.9-14.88,8.69-10.28,3.39-20.98,5.15-31.8,5.03-13.78-.15-27.58-.62-41.33-1.57-5.35-.37-11.16-1.41-15.72-3.98-7.06-3.99-15.54-5.08-21.64-10.86-.34-.32-.88-.49-1.35-.62-4.66-1.28-9.26-3.19-14.01-3.68-13.18-1.37-26.41-2.34-39.64-3.1-7.09-.41-14.22-.06-21.32-.06-.75,0-1.49,0-2.24,0-2,.24-3.99.49-5.99.73-3.5-.25-7.01-.49-10.51-.74-.74,0-1.49,0-2.23,0-2.5,0-5.01-.01-7.51-.02-1-.49-1.99-.97-2.99-1.46-13.91-.99-27.82-2.1-41.74-2.94-14.84-.89-29.77-2.2-44.39,1.52-6.55,1.66-11.76,5.59-13.54,12.83-.27,1.1-1.71,1.92-2.6,2.87.02-4.52.03-9.04.05-13.56Z" style="fill: #6d97e5; stroke-width: 0px;"/>
  <path d="M422.95,6.82c5.05,1.32,9,4.02,11.27,8.87-.78,1.43-1.65,2.83-2.33,4.31-.68,1.46-1.25,2.98-1.74,4.52-.95,3.02-1.55,6.17-2.77,9.07-2.27,5.43-3.58,12.27-7.67,15.67-4.73,3.93-11.88,5.39-18.23,6.79-7.4,1.63-14.79,3.55-22.7,2.76-5.03-.51-10.26,1.59-15.43,1.81-17.86.78-35.72,1.33-53.59,1.82-11.46.31-22.93.53-34.4.48-15.33-.07-30.66-.34-45.98-.74-12.3-.32-24.6-1.01-36.9-1.45-9.33-.33-18.67-.5-28-.78-7.59-.22-15.17-.46-22.76-.77-1.18-.05-2.34-.48-3.5-.74,1.17-.25,2.35-.73,3.51-.7,17.03.44,34.06.95,51.09,1.46,7.7.23,15.41.53,23.11.74,3.18.09,6.37,0,9.55.08,9.33.2,18.65.46,27.98.64.54.01,1.09-.46,1.64-.7,1,.24,2,.48,3,.72,1,0,1.99,0,2.99,0,.75,0,1.51,0,2.26,0,1.25,0,2.49,0,3.74,0,.75,0,1.51,0,2.26,0,1.15.26,2.3.72,3.46.73,6.68.07,13.37.07,20.05,0,1.15-.01,2.3-.48,3.45-.74,2,0,3.99,0,5.99,0,1.25-.48,2.51-.96,3.76-1.45,8.99-.26,17.98-.51,26.97-.77,1-.24,2-.48,3-.72,5.99-.02,11.98-.03,17.97-.05l4.49-1.47h1.51c2.84-.26,5.69-.4,8.51-.78,10.13-1.36,17.27-6.05,19.54-16.8.83-3.91,2.77-7.6,4.38-11.32,2.01-4.66,1.2-6.8-3.72-7.74-4.79-.92-9.65-1.49-14.51-1.95-5.62-.53-11.27-.84-16.91-1.04-1.08-.04-2.19.91-3.28,1.4-1,0-2.01,0-3.01-.01-2.03-2.13-6.18-2.14-8.23,0-.5,0-1,0-1.5,0-.46-.4-.9-1.12-1.38-1.15-2.78-.19-5.57-.22-8.36-.3-.5,0-1,0-1.5,0-3.32-.23-6.67-.8-9.96-.57-2.71.18-5.35,1.31-8.02,2.02-2,0-4,0-5.99,0-.5-.24-1-.48-1.5-.71-6.75.24-13.49.48-20.24.72-.49-1.22-.98-2.43-1.47-3.65,24.46-.56,48.91-1.12,73.37-1.67l1.55-.56c2.24-.03,4.49-.05,6.73-.08,6.06-.24,12.14-.33,18.19-.76,12.7-.9,25.38-1.96,38.06-3.04.76-.07,1.46-.9,2.19-1.38Z" style="fill: #5792e8; stroke-width: 0px;"/>
  <path d="M360.76,527.49c-4.74-8.12-4.4-17.55-6.34-26.34-1.09-4.95.7-10.53,1.09-15.83.47-6.36,1.05-12.73,1.22-19.1.26-9.8.08-19.6.33-29.4.24-9.69-.15-19.18-3.26-28.56-1.58-4.78-1.43-10.12-2.16-15.2-.11-.8-.85-1.49-1.12-2.29-1.86-5.6-3.63-11.22-5.52-16.81-.36-1.07-1.02-2.11-1.76-2.99-2.68-3.2-5.45-6.32-8.19-9.47.32-.31.64-.63.96-.94,1.53,1.51,3.09,2.99,4.58,4.54,3.01,3.13,5.93,6.35,8.99,9.43.52.52,1.52.56,2.29.82,10.93,14.89,20.18,30.68,25.68,48.43,3.04,9.8,5.8,19.68,8.69,29.53-.78-.67-1.48-1.47-2.35-1.96-1.51-.86-3.14-1.54-4.71-2.29-.53,1.9-1.21,3.78-1.49,5.71-.09.65,1.06,1.39,1.26,2.19.36,1.41.98,3.09.54,4.32-2.75,7.78-2.68,16.34-6.64,23.78-.37.69-.01,1.73-.14,2.58-.39,2.68-.95,5.34-1.26,8.04-.87,7.72-1.67,15.45-2.43,23.18-.07.69.4,1.42.47,2.15.14,1.41.17,2.83.24,4.24-3,.75-6,1.5-9,2.25Z" style="fill: #eaa528; stroke-width: 0px;"/>
  <path d="M159.99,296.67c.15-.19.35-.31.59-.34.54.63,1.09,1.25,1.63,1.87,0,.51,0,1.02-.01,1.52-.19.55-.69,1.21-.53,1.62,1.34,3.43.33,6.32-1.79,9.04-3.88,4.99-7.48,10.24-11.66,14.97-7.98,9.03-16.24,17.82-24.46,26.63-7.68,8.22-15.66,16.17-23.12,24.58-4.83,5.45-9.01,11.48-13.42,17.3-3.79,5-7.9,9.78-9,16.34-.44,2.64-1.28,5.36-2.59,7.68-6.86,12.18-11.39,25.31-16.09,38.37-2.29,6.54-4.83,13-6.81,19.63-2.44,8.16-4.37,16.48-6.61,24.7-.43,1.56-1.29,3.01-1.96,4.51.41-7.06.27-14.2,1.36-21.15,2.34-14.95,4.58-29.97,8.2-44.64,5.92-23.95,17.01-45.71,31.91-65.31,7.65-10.07,15.84-19.95,25.04-28.57,10.4-9.74,22.28-17.88,33.39-26.87,4.25-3.44,8.2-7.24,12.2-10.97,3.14-2.94,3.54-6.91,3.71-10.9Z" style="fill: #ecc49d; stroke-width: 0px;"/>
  <path d="M255.12,59.95c-.55.24-1.1.71-1.64.7-9.33-.18-18.65-.44-27.98-.64-3.18-.07-6.37.01-9.55-.08-7.71-.22-15.41-.51-23.11-.74-17.03-.51-34.06-1.01-51.09-1.46-1.16-.03-2.34.46-3.51.7-4.19-.24-8.38-.52-12.58-.71-2.04-.09-4.1-.02-6.14-.03-.5,0-1,0-1.5,0-4.71-.24-9.41-.57-14.12-.72-10.19-.31-20.38-.48-30.57-.81-3.96-.13-7.93-.38-11.87-.82-9.63-1.06-19.26-1.4-28.85.18-4.91.81-10.28.4-14.23,4.4-2.22.39-4.73.27-5.49,3.17-2.23-1.29-4.47-2.58-6.7-3.88.32-.26.65-.52.97-.78,2.22-.74,4.38-1.79,6.66-2.17,4.83-.8,8.39-2.88,9.78-7.86,1.42-5.09,2.83-10.18,4.37-15.24,1.61-5.29,5.67-8.33,11.19-8.42,6.59-.11,12.9.52,19.43,2.47,8.11,2.43,15.06,6.05,21.41,11.46,5.43,4.62,11.52,8.02,18.93,8.59,4.68.36,9.31,1.3,13.97,1.85,8.79,1.04,17.28,3.3,26.43,2.91,11.83-.51,23.77,1.04,35.63,2.12,13.13,1.19,26.18,3.29,39.32,4.18,12.41.84,24.89.61,37.34.91,1.17.03,2.34.47,3.51.72Z" style="fill: #6d97e5; stroke-width: 0px;"/>
  <path d="M12.87,63.09c.76-2.9,3.27-2.78,5.49-3.17,2.53.2,5.1.78,7.59.53,7.42-.74,14.81-2.49,22.22-2.59,10.54-.14,21.09.78,31.64,1.35,10.49.56,20.97,1.27,31.45,1.87,15.49.89,30.98,1.71,46.47,2.63,6.27.37,12.53.93,18.79,1.38,4.21.3,8.42.75,12.63.77,4.15.02,8.31-.64,12.46-.6,7.71.08,15.42.66,23.12.65,19.08-.03,38.15-.37,57.23-.41,10.92-.02,21.84.46,32.76.41,14.26-.08,28.52-.33,42.77-.78,6.43-.2,12.85-.98,19.26-1.65,5.41-.56,10.8-1.33,16.2-2.03,9.43-1.23,18.93-2.13,28.26-3.89,3.73-.71,7.19-1.49,10.87-.44-3.62,6.37-10.07,7.24-16.33,8.03-7.53.94-15.12,1.37-22.68,2.03-2.45.09-4.9.18-7.36.27-14.55.54-29.1,1.09-43.64,1.63-.77,0-1.54.01-2.3.02-.29.18-.57.37-.86.55-5.22,0-10.45,0-15.67,0-3.99.06-7.98.11-11.97.17-.22-.13-.44-.13-.66.01-1.02,0-2.04.02-3.06.03-1.24.02-2.48.04-3.73.07-.75.01-1.51.03-2.26.04-12.92.13-25.84.26-38.76.38-10.32.1-20.64.18-30.96.26-2.7,0-5.41.01-8.11.02-4.27,0-8.54,0-12.81,0-15.3-.11-30.59-.23-45.88-.34-10.68-.08-21.37-.16-32.05-.25-.98-.1-1.97-.27-2.95-.29-15.29-.33-30.59-.64-45.88-.99-1.21-.03-2.41-.33-3.62-.5,4.15-.26,8.3-.52,12.45-.79,1.21-.08,2.41-.2,3.61-.31-.03-.4-.07-.8-.1-1.2-1.3,0-2.6.04-3.9,0-6.57-.25-13.14-.42-19.71-.82-14.7-.9-29.39-1.93-44.08-2.88-2.3-.15-3.34.75-2.22,3.12-4.26-.62-8.52-1.24-12.77-1.85-.26-.11-.52-.22-.79-.33l-.16-.08ZM104.8,67.1c-.03-.37-.05-.74-.08-1.1-1.18.11-2.36.21-3.55.32.03.26.06.52.08.78h3.54Z" style="fill: #416acf; stroke-width: 0px;"/>
  <path d="M91.77,221.77c.39,1.52.54,3.16,1.21,4.54,2.18,4.45,4.57,8.79,6.82,13.2.25.5.11,1.2.15,1.8-3.22-3.79-6.44-7.59-9.66-11.38-.75-.96-1.5-1.92-2.25-2.88,0,0-.03-.04-.03-.04-.5-.73-1-1.46-1.5-2.19,0,0-.02-.03-.02-.03-.5-3.48-1.27-6.79-5.04-8.28-.03-.49-.06-.98-.08-1.47-1.17-3.79-2.15-7.65-3.56-11.35-2.85-7.46-4.84-14.98-4.89-23.11-.04-6.28-1.69-12.53-1.85-18.82-.11-4.1,1.12-8.24,1.81-12.36,1.12-6.62,4.64-11.95,9.48-16.35,1.3-1.18,3.76-2.07,5.36-1.7,3.26.76,6.28,1.4,9.18,4.48,4.13,4.39,9.73,8.15,16.61,8.02.64,1.01,1.05,2.37,1.96,2.99,6.79,4.58,13.67,9.02,20.52,13.5-.56.63-1.32,1.89-1.66,1.79-4.51-1.38-7.83,2.13-11.83,2.72-7.69-1.77-15.4-3.43-23.05-5.35-4.37-1.1-6.13.33-5.27,4.73.72,3.69,1.4,7.39,2.1,11.09-5.09,3.27-10.59,6.21-10.48,13.51-3.76,1.23-3.49,4.65-2.85,7.11,2.21,8.48,4.97,16.82,7.59,25.19.1.31.81.43,1.24.64Z" style="fill: #e29945; stroke-width: 0px;"/>
  <path d="M432.08,57.11c-3.68-1.05-7.15-.27-10.87.44-9.33,1.77-18.83,2.66-28.26,3.89-5.4.7-10.79,1.47-16.2,2.03-6.41.67-12.83,1.44-19.26,1.65-14.25.45-28.51.7-42.77.78-10.92.06-21.84-.43-32.76-.41-19.08.04-38.15.38-57.23.41-7.71.01-15.41-.57-23.12-.65-4.15-.04-8.31.62-12.46.6-4.21-.02-8.42-.47-12.63-.77-6.26-.45-12.52-1.01-18.79-1.38-15.49-.92-30.98-1.74-46.47-2.63-10.49-.6-20.97-1.3-31.45-1.87-10.54-.57-21.1-1.49-31.64-1.35-7.42.1-14.8,1.85-22.22,2.59-2.49.25-5.06-.33-7.59-.53,3.95-4.01,9.32-3.6,14.23-4.41,9.58-1.58,19.22-1.24,28.85-.18,3.94.44,7.91.69,11.87.82,10.19.33,20.38.5,30.57.81,4.71.14,9.41.47,14.12.72.5,0,1,0,1.5,0,2.05,0,4.1-.06,6.14.03,4.19.19,8.39.47,12.58.71,1.17.25,2.33.69,3.5.74,7.58.3,15.17.55,22.76.77,9.33.27,18.67.45,28,.78,12.3.44,24.59,1.13,36.9,1.45,15.32.4,30.65.66,45.98.74,11.47.06,22.94-.16,34.4-.48,17.87-.49,35.73-1.04,53.59-1.82,5.17-.23,10.4-2.32,15.43-1.81,7.91.8,15.3-1.13,22.7-2.76,6.35-1.4,13.5-2.86,18.23-6.79,4.09-3.4,5.4-10.24,7.67-15.67,1.21-2.9,1.81-6.05,2.77-9.07.49-1.54,1.06-3.06,1.74-4.52.69-1.48,1.55-2.88,2.33-4.31.77,3.89,2.01,7.76,2.2,11.68.32,6.79.25,13.63-.18,20.42-.17,2.68-1.73,5.26-2.66,7.89-.38-.2-.76-.4-1.14-.6-.13.67-.26,1.34-.38,2.01l.04.02Z" style="fill: #4d7fdd; stroke-width: 0px;"/>
  <path d="M133.74,555.97c7.11,0,14.24-.35,21.32.06,13.23.76,26.46,1.72,39.64,3.1,4.75.49,9.35,2.4,14.01,3.68.47.13,1.01.3,1.35.62,6.1,5.78,14.58,6.88,21.64,10.86,4.56,2.58,10.38,3.61,15.72,3.98,13.75.95,27.55,1.42,41.33,1.57,10.82.12,21.53-1.64,31.8-5.03,5.45-1.79,10.69-4.17,14.88-8.69,4.06-4.37,9.41-7.11,15.32-8.7,7.06-1.9,14.05-4.08,21.01-6.35,1.42-.46,2.55-1.83,3.81-2.78-.99-.96-1.83-2.18-2.99-2.84-2.53-1.44-2.87-3.44-2.07-5.93.74,0,1.48,0,2.22,0,2.16.21,4.34.72,6.47.57,8.59-.6,17.17-1.4,25.75-2.13,3.66-.27,7.36-.32,10.97-.89,2.66-.42,5.21-1.52,7.81-2.32,2.93,2.08,5.86,4.16,8.79,6.24-5.86,1.45-11.82,2.62-17.57,4.43-8.49,2.68-16.84,5.82-25.26,8.73-.69.24-1.52.42-2.2.26-7.78-1.72-15.42-1-22.49,2.44-5.24,2.55-10.36,5.67-14.87,9.34-6.63,5.39-13.38,10.24-21.85,12.24-9.23,2.18-18.55,3.16-28.06,3.1-7.05-.04-14.13,1.52-21.15,1.25-14.19-.54-28.33-2.15-42.52-2.72-10.43-.42-19.26-4.51-28.35-9.11-11.59-5.86-23.9-10.29-36.94-11.97-4.3-.55-8.66-.61-13-.78-7.33-.3-14.67-.47-22-.83-.87-.04-1.7-.93-2.54-1.42Z" style="fill: #5792e8; stroke-width: 0px;"/>
  <path d="M364.51,12c-2.24.03-4.49.05-6.73.08-.52.19-1.03.38-1.55.57-24.46.56-48.91,1.12-73.37,1.67-13.5-.04-27-.08-40.5-.12.33-2.23,1.74-2.09,3.57-2,2.36.11,4.75-.4,7.12-.69.35-.04.7-.48,1.01-.43,4.76.75,8.89-.64,12.82-3.28.63-.43,2.2.54,3.87.4-.93-.87-2.03-1.62-2.73-2.65-.63-.92-.81-2.13-1.2-3.22,1.07.06,2.38-.26,3.17.24,1.95,1.23,3.55,1.2,5.49-.02.87-.55,2.28-.16,3.33-.53,1.18-.43,2.22-1.24,3.33-1.88,18.67.23,37.34.34,56.01.75,12.05.26,24.09.98,36.14,1.49-1.19,6.41-1.21,6.34-7.38,7.47-.9.16-1.6,1.41-2.39,2.15Z" style="fill: #a4bbec; stroke-width: 0px;"/>
  <path d="M70.79,89.91c-.62-.07-1.25-.08-1.85-.22-4.76-1.14-4.49-.85-4.35,4.1.32,11.28,2.12,22.55.56,33.88-.28,2.02.42,4.16.39,6.24-.11,8.71-1.06,17.49-.32,26.13.87,10.16,2.63,20.33,5.03,30.24,1.7,7.02,5.11,13.62,7.72,20.43.26.67.19,1.46.28,2.19-5.22-9.78-10.43-19.55-15.65-29.33-.27-.74-.53-1.48-.8-2.22-.22-.51-.44-1.02-.65-1.53.09-1.03.41-2.1.23-3.09-1.33-7.43-3.11-14.79-4.07-22.26-1.52-11.79-2.58-23.63-3.67-35.47-.35-3.77-.04-7.6-.3-11.39-.22-3.33-.96-6.62-1.21-9.95-.75-9.9-.86-19.93-6.38-28.78-.31-.49-.28-1.19-.41-1.8,1.79.15,3.57.31,5.36.46.18,0,.37,0,.55.01.55.02,1.1.03,1.64.05.77,3.23,2.76,5.19,5.66,6.93,5.91,3.53,12.29,7,12.25,15.39Z" style="fill: #e2a873; stroke-width: 0px;"/>
  <path d="M44.18,505.08c.66-1.5,1.53-2.94,1.96-4.51,2.24-8.22,4.18-16.54,6.61-24.7,1.98-6.63,4.52-13.09,6.81-19.63.57-.4,1.39-.66,1.68-1.21,2.3-4.38,4.68-8.74,6.7-13.26,4.29-9.6,10.55-17.86,17.1-25.95,1.25-.25,2.5-.5,3.76-.74-.29,1.07-.48,2.17-.88,3.19-1.67,4.2-3.4,8.37-5.1,12.55-1.7,3.06-3.41,6.11-5.15,9.24,1.48,1.69,2.93,3.34,4.38,4.99-.95,2.08-1.92,4.15-2.85,6.24-1.07,2.41-2.1,4.83-3.14,7.24-1.46,3.06-2.51,6.41-4.46,9.11-5.27,7.3-9.37,15.11-12.33,23.61-1.58,4.54-3.92,8.81-5.59,13.33-3.69,10.01-3.3,20.48-3.06,30.91-2.27-.42-4.54-.84-6.81-1.26l-.18-3.13c.18-8.68.37-17.35.55-26.03Z" style="fill: #e2a873; stroke-width: 0px;"/>
  <path d="M369.76,525.24c-.07-1.41-.1-2.83-.24-4.24-.07-.73-.54-1.46-.47-2.15.76-7.73,1.56-15.46,2.43-23.18.3-2.69.87-5.35,1.26-8.04.12-.86-.23-1.89.14-2.58,3.96-7.44,3.89-16,6.64-23.78.44-1.23-.18-2.91-.54-4.32-.2-.8-1.36-1.54-1.26-2.19.28-1.94.96-3.81,1.49-5.71,1.58.75,3.2,1.43,4.71,2.29.87.5,1.57,1.3,2.35,1.96,1.35,7.83,3.19,15.62,3.93,23.51,1.23,13.09,1.76,26.26,2.59,39.39-.87.57-1.75,1.12-2.61,1.7-3.24,2.18-6.23,5.03-9.79,6.36-3.22,1.19-7.05.72-10.62.98Z" style="fill: #e69825; stroke-width: 0px;"/>
  <path d="M7.15,58.44c-.32.26-.64.52-.97.78-3.19-2.48-5.1-5.71-5.67-9.72.46-1.14,1.25-2.25,1.31-3.41.37-6.32.5-12.66.82-18.99.39-7.85,5.96-12.75,14-15.27,8.96-2.81,17.6-1.05,26.42-.64,10.44.48,20.89.54,31.34.84,1.31.04,2.6.45,3.9.69-.92.26-1.82.71-2.75.75-7.21.3-14.42.41-21.62.83-4.32.25-8.68.6-12.9,1.5-6.89,1.48-13.77,3.15-20.46,5.36-2.27.75-4.9,2.99-5.68,5.15-1.49,4.12-2.18,8.66-2.44,13.07-.33,5.64.48,11.42-3.85,16.06-.49,1-.98,2.01-1.46,3.01Z" style="fill: #a4bbec; stroke-width: 0px;"/>
  <path d="M45.33,67.08c.13.6.1,1.31.41,1.8,5.52,8.85,5.63,18.87,6.38,28.78.25,3.33.99,6.62,1.21,9.95.26,3.79-.05,7.62.3,11.39,1.09,11.84,2.16,23.68,3.67,35.47.96,7.47,2.74,14.83,4.07,22.26.18.98-.14,2.06-.23,3.09-2.21-5.76-4.81-11.4-6.55-17.3-5.08-17.18-8.35-34.72-9.21-52.64-.68-14.27-1.09-28.55-1.61-42.83.52.01,1.04.03,1.55.04Z" style="fill: #ecc49d; stroke-width: 0px;"/>
  <path d="M279.3,291.56c-1.31-3.47-2.86-6.87-3.85-10.43-.81-2.92,3.72-9.15,6.61-10.32,4.24-1.72,8.43-3.61,12.5-5.71,5.88-3.03,11.57-6.44,17.47-9.44,4.47-2.28,9.16-4.12,13.69-6.3,1.08-.52,1.78-1.82,2.86-2.33.88-.42,2.06-.19,3.1-.26-7.85,6.97-15.56,14.11-23.59,20.85-8.74,7.34-17.8,14.3-26.69,21.46-.82.66-1.4,1.63-2.1,2.46Z" style="fill: #d67119; stroke-width: 0px;"/>
  <path d="M166.71,297.41c.75-.48,1.5-.97,2.25-1.45,7.45-.25,14.97,0,22.35-.87,9.93-1.17,19.75-3.27,29.64-4.81,3.79-.59,7.65-.69,11.47-1.07,4.3-.42,8.58-1.2,12.89-1.28,4.82-.08,9.77-.11,14.44.87,4.75,1,9.21,3.31,13.83,4.94,1.24.44,2.63.48,3.94.71-.3,1.25-.59,2.49-.89,3.74-1.2.21-2.47.76-3.6.56-5.47-.94-10.86-2.55-16.35-3.04-8.6-.77-17.29-1.37-25.9-1.05-12.37.46-24.71,1.77-37.05,2.83-2.78.24-5.51.96-8.27,1.46-1.37,0-2.75.11-4.1-.02-4.88-.47-9.76-1.02-14.64-1.54Z" style="fill: #e28c1f; stroke-width: 0px;"/>
  <path d="M43.81,534.24c2.27.42,4.54.84,6.81,1.26,3.48.27,6.95.54,10.43.81.75.15,1.51.3,2.26.45,3.76.39,7.51.79,11.27,1.18,1.48.03,2.96.06,4.44.1.67.97,1.34,1.93,2.27,3.29-1.19.42-2.17,1.01-3.19,1.08-4.95.34-9.91.61-14.87.78-4.55.16-9.12-.03-13.66.25-9.02.56-18.06,1.14-27.04,2.12-3.21.35-6.3,1.88-9.45,2.87-.75,0-1.49.02-2.23.03-2.25,0-4.5.01-6.74.02-1.2.02-2.41.03-3.61.05.49-1.5.98-3.01,1.47-4.51,2.73-1.02,5.42-2.23,8.22-3.01,9.17-2.57,18.6-2.38,28.01-2.28,1.54.02,3.07,0,3.81,0,.83-2.07,1.31-3.28,1.8-4.48Z" style="fill: #a4bbec; stroke-width: 0px;"/>
  <path d="M369.76,525.24c3.56-.26,7.4.22,10.62-.98,3.56-1.32,6.54-4.18,9.79-6.36.86-.58,1.74-1.13,2.61-1.7.11,4.98.23,9.96.34,14.94.01.55.02,1.1.03,1.65-1.01.73-1.95,1.9-3.06,2.11-4.01.74-8.07,1.15-12.11,1.69-4.27.16-8.53.32-12.8.47-2.47-1.45-4.95-2.89-7.42-4.34,1-1.75,2-3.49,3-5.24,3-.75,6-1.5,9-2.25Z" style="fill: #e29945; stroke-width: 0px;"/>
  <path d="M185.45,298.97c2.76-.5,5.49-1.22,8.27-1.46,12.34-1.06,24.68-2.37,37.05-2.83,8.61-.32,17.3.29,25.9,1.05,5.5.49,10.89,2.1,16.35,3.04,1.14.19,2.4-.36,3.6-.56.11,5.85,4.04,9.59,7.49,13.6-.05.8-.1,1.61-.2,3.12-1.95-1.23-3.66-2.28-5.34-3.37-5.37-3.46-10.73-6.94-16.12-10.37-.6-.38-1.4-.48-2.1-.7-1.25,0-2.49,0-3.74-.01-.18-.16-.34-.43-.55-.48-13.25-2.93-26.57-1.77-39.89-.68-6.53.53-13.07.87-19.62,1.07-2.94.09-5.9-.4-8.85-.62-.75-.26-1.5-.51-2.25-.77Z" style="fill: #eaa528; stroke-width: 0px;"/>
  <path d="M339.76,69.07c.77,0,1.54-.01,2.3-.02,1.93.25,3.86.5,5.78.74,7.91.96,15.83,1.83,23.73,2.91,5.79.79,11.55,1.86,17.32,2.83,1.32.22,2.62.58,3.93.88-.19,4.75-.37,9.51-.56,14.26-.99-.81-2.61-1.46-2.87-2.47-1.37-5.13-5.19-7.06-9.8-8-7.63-1.56-15.27-3.13-22.95-4.38-3.05-.49-6.24-.13-9.37-.15-2.24-.25-4.49-.49-6.73-.74-.22-.43-.35-1.15-.66-1.23-4.26-1.14-8.54-2.2-12.82-3.25-1.27-.31-2.55-.56-3.83-.83,5.22,0,10.45,0,15.67,0,.28-.18.57-.37.86-.55Z" style="fill: #e28c1f; stroke-width: 0px;"/>
  <path d="M364.51,12c.79-.74,1.49-1.99,2.39-2.15,6.17-1.13,6.18-1.06,7.38-7.47,14.84,1.01,29.68,1.98,44.52,3.07,1.41.1,2.77.89,4.15,1.37-.73.48-1.43,1.32-2.19,1.38-12.68,1.08-25.37,2.14-38.06,3.04-6.05.43-12.12.52-18.19.76Z" style="fill: #8dadeb; stroke-width: 0px;"/>
  <path d="M347.27,75.68c3.13.02,6.32-.34,9.37.15,7.69,1.25,15.32,2.82,22.95,4.38,4.61.94,8.42,2.88,9.8,8,.27,1.01,1.88,1.65,2.87,2.47-.29,5.99-.58,11.98-.87,17.96-3.77-1.42-3.61-5.18-4.23-8.07-.88-4.16-2.77-7.04-6.08-9.75-4.45-3.64-9.33-5.64-14.74-7.32-6.54-2.03-12.73-5.17-19.07-7.83Z" style="fill: #e69825; stroke-width: 0px;"/>
  <path d="M43.81,534.24c-.48,1.21-.97,2.41-1.8,4.48-.74,0-2.28.01-3.81,0-9.41-.11-18.83-.29-28.01,2.28-2.8.78-5.48,2-8.22,3.01,3.58-7.65,10.48-10.22,18.04-11.15,7.83-.96,15.74-1.2,23.61-1.75.06,1.04.12,2.08.18,3.13Z" style="fill: #bfc9ea; stroke-width: 0px;"/>
  <path d="M45.33,67.08c-.52-.01-1.04-.03-1.55-.04-4.5-.41-8.99-.82-13.49-1.23-.21-.02-.43-.04-.64-.06-1.02-.13-2.03-.26-3.05-.39-1.12-2.36-.08-3.27,2.22-3.12,14.69.95,29.38,1.98,44.08,2.88,6.56.4,13.14.56,19.71.82,1.3.05,2.6,0,3.9,0,.03.4.07.8.1,1.2-1.2.1-2.41.23-3.61.31-4.15.27-8.3.53-12.45.79-3.77-.08-7.53-.16-11.3-.24l-1.34-.09-2.49-.09c-.97-.08-1.93-.16-2.9-.24-3.21,0-6.42.02-9.64.02-.55-.02-1.1-.03-1.64-.05-.18-.13-.36-.13-.55-.01l-5.36-.46Z" style="fill: #2746ae; stroke-width: 0px;"/>
  <path d="M392.83,76.42c-1.31-.3-2.61-.66-3.93-.88-5.77-.98-11.52-2.04-17.32-2.83-7.89-1.08-15.82-1.95-23.73-2.91-1.93-.24-3.86-.49-5.78-.74,14.55-.54,29.1-1.09,43.64-1.63,2.45-.09,4.9-.18,7.36-.27-.08,3.09-.16,6.17-.24,9.26Z" style="fill: #d67119; stroke-width: 0px;"/>
  <path d="M393.15,532.79c-.01-.55-.02-1.1-.03-1.65,8.93.77,17.86,1.51,26.78,2.36,1.31.13,2.57.81,3.86,1.24-2.6.8-5.15,1.9-7.81,2.31-3.61.57-7.31.62-10.97.89-1.08-.99-2-2.42-3.27-2.89-2.76-1.02-5.7-1.55-8.56-2.27Z" style="fill: #79a0ea; stroke-width: 0px;"/>
  <path d="M81.45,216.52c3.77,1.49,4.54,4.8,5.04,8.28-1.76-2.46-3.51-4.92-5.27-7.38.08-.3.15-.6.23-.91Z" style="fill: #e5a24e; stroke-width: 0px;"/>
  <path d="M103.2,244.95c2.38.07,3.57,1.3,3.6,3.68-1.2-1.23-2.4-2.45-3.6-3.68Z" style="fill: #e29945; stroke-width: 0px;"/>
  <path d="M88.04,227.05c.75.96,1.5,1.92,2.25,2.88-.75-.96-1.5-1.92-2.25-2.88Z" style="fill: #e5a24e; stroke-width: 0px;"/>
  <path d="M99.97,241.34c.79.92,1.57,1.84,2.36,2.76-.79-.92-1.57-1.84-2.36-2.76Z" style="fill: #e29945; stroke-width: 0px;"/>
  <path d="M81.45,216.52c-.08.3-.15.6-.23.91-.69-1.06-1.39-2.12-2.08-3.18.74.27,1.48.53,2.23.8.03.49.06.98.08,1.47Z" style="fill: #e2a873; stroke-width: 0px;"/>
  <path d="M61.8,181.34c.27.74.53,1.48.8,2.22-.27-.74-.53-1.48-.8-2.22Z" style="fill: #ecc49d; stroke-width: 0px;"/>
  <path d="M432.04,57.09c.13-.67.26-1.34.38-2.01.38.2.76.4,1.14.6-.51.47-1.02.94-1.53,1.41Z" style="fill: #416acf; stroke-width: 0px;"/>
  <path d="M86.51,224.83c.5.73,1,1.46,1.5,2.19-.5-.73-1-1.46-1.5-2.19Z" style="fill: #e5a24e; stroke-width: 0px;"/>
  <path d="M13.04,63.17c.26.11.53.22.79.33-.26-.11-.52-.22-.79-.33Z" style="fill: #6d97e5; stroke-width: 0px;"/>
  <path d="M29.65,65.74c.21.02.43.04.64.06,0,0-.33.09-.33.09l-.31-.15Z" style="fill: #416acf; stroke-width: 0px;"/>
  <path d="M350.27,85.42c5.68-2.05,12.56.13,16.68,5.11,5.52,6.67,8.79,14.05,8.09,22.93-.14,1.82.47,3.68.5,5.53.02,1.7.05,3.52-.49,5.1-1.67,4.91-2.87,10.2-5.59,14.5-4.65,7.33-6.19,16.61-14.22,21.96-2.7,1.8-4.48,5.3-6.11,8.33-3.38,6.3-9.43,9.66-14.64,13.92-5.24,4.29-10.59,8.48-16.14,12.36-2.59,1.81-5.71,2.9-8.67,4.11-1.82.74-4.29.54-5.63,1.71-3.93,3.44-8.9,3.86-13.46,4.63-4.03.68-8.39-.79-12.63-1.08-5.36-.37-10.73-.47-16.09-.75-2.59-.14-5.26-.1-7.75-.71-7.57-1.85-15.14-3.75-22.57-6.06-8.86-2.75-17.79-5.47-26.31-9.1-8.48-3.62-16.45-8.42-24.72-12.57-3.4-1.7-6.99-3.02-10.47-4.56-6.11-2.71-12.21-5.46-18.32-8.19,1.38-.75,2.74-2.06,4.15-2.12,3.44-.16,7.04.92,10.33.26,3.9-.79,7.27-1.17,11.06.68,10.13,4.97,20.48,9.5,30.69,14.3,2.68,1.26,5.05,3.36,7.83,4.23,9.22,2.91,18.48,5.77,27.87,8.03,15.54,3.74,31.19,7.07,46.98.93.22-.09.5-.03.74-.07,9.92-1.71,18.79-6.16,27.04-11.52,4.8-3.11,8.61-7.77,12.79-11.8,3.19-3.07,7.08-5.77,9.23-9.47,5.21-8.99,11.54-17.28,14.28-27.81,1.88-7.2,4.54-14.04,3.81-21.64-.19-1.93.55-4.18-.19-5.79-2.43-5.25-5.34-10.27-8.07-15.37Z" style="fill: #efb230; stroke-width: 0px;"/>
  <path d="M350.27,85.42c2.73,5.11,5.65,10.13,8.07,15.37.75,1.61,0,3.86.19,5.79.73,7.6-1.93,14.44-3.81,21.64-2.75,10.53-9.08,18.82-14.28,27.81-2.14,3.7-6.04,6.4-9.23,9.47-4.19,4.03-8,8.69-12.79,11.8-8.26,5.36-17.13,9.81-27.04,11.52-.24.04-.52-.02-.74.07-15.78,6.14-31.44,2.81-46.98-.93-9.39-2.26-18.65-5.12-27.87-8.03-2.78-.88-5.14-2.97-7.83-4.23-10.22-4.8-20.56-9.34-30.69-14.3-3.79-1.86-7.15-1.47-11.06-.68-3.29.66-6.89-.42-10.33-.26-1.41.07-2.77,1.38-4.15,2.12-5.24-.75-10.49-1.49-15.73-2.24-6.85-4.48-13.74-8.92-20.52-13.5-.91-.61-1.32-1.97-1.96-2.99,8.5.75,17,1.5,25.49,2.25,7.66.19,15.24,2.99,23.03.3,2.11-.73,4.86-.71,7.01-.04,9.66,2.99,18.76,7.21,27.22,12.87,3.67,2.46,7.79,4.23,11.74,6.26,1.88.96,4.06,1.48,5.71,2.73,6.26,4.76,13.62,7.1,20.93,9.29,6.77,2.03,13.86,2.98,20.82,4.26,14.18,2.63,27.35-.91,40.71-3.67,6.2-1.28,11.78-4.45,16.76-8.89,4.08-3.64,9.24-5.86,13.08-10.2,6.44-7.28,13.03-14.27,16.56-23.57,1.4-3.7,3.75-7.08,4.84-10.84,1.57-5.43,3.24-11.06,3.32-16.63.14-9.06-3.59-17.09-9.44-24.06.25-.25.51-.51.76-.76,2.75.75,5.49,1.5,8.24,2.25Z" style="fill: #efb439; stroke-width: 0px;"/>
  <path d="M323.24,69.62c1.28.28,2.56.52,3.83.83,4.28,1.06,8.56,2.12,12.82,3.25.31.08.44.81.66,1.23-2,.25-4.01.5-6.01.75-8.02-.97-16.06-1.84-24.05-3.01-1.09-.16-1.95-1.86-2.92-2.84,1.02,0,2.04-.02,3.06-.03.22,0,.44,0,.66-.01,3.99-.06,7.98-.11,11.97-.17Z" style="fill: #e29945; stroke-width: 0px;"/>
  <path d="M125.51,556.7c2-.24,3.99-.49,5.99-.73-1.69,2.73-3.91,1.18-5.99.73Z" style="fill: #5792e8; stroke-width: 0px;"/>
  <path d="M102.27,554.48c1,.49,1.99.97,2.99,1.46-1-.49-1.99-.97-2.99-1.46Z" style="fill: #5792e8; stroke-width: 0px;"/>
  <path d="M112.77,555.95c.74,0,1.49,0,2.23,0-.74,0-1.49,0-2.23,0Z" style="fill: #5792e8; stroke-width: 0px;"/>
  <path d="M341.27,83.93c5.85,6.96,9.57,15,9.44,24.06-.08,5.57-1.75,11.2-3.32,16.63-1.09,3.76-3.44,7.14-4.84,10.84-3.52,9.3-10.12,16.29-16.56,23.57-3.84,4.34-9,6.55-13.08,10.2-4.98,4.44-10.55,7.61-16.76,8.89-13.36,2.76-26.53,6.3-40.71,3.67-6.96-1.29-14.05-2.23-20.82-4.26-7.31-2.2-14.67-4.53-20.93-9.29-1.64-1.25-3.83-1.77-5.71-2.73-3.95-2.03-8.07-3.8-11.74-6.26-8.45-5.66-17.56-9.88-27.22-12.87-2.15-.66-4.9-.69-7.01.04-7.78,2.69-15.37-.11-23.03-.3-.42-.87-.67-1.88-1.28-2.58-2.77-3.22-1.64-7.28-2.48-10.91,5.25-1.5,10.5-3,15.74-4.5,1.12-.02,2.27.09,3.37-.08,5.8-.92,11.56-2.07,17.38-2.78,1.98-.24,4.43.04,6.08,1.05,5.69,3.5,11.41,7.07,16.58,11.28,10.49,8.54,20.98,17.09,32.9,23.51,5.06,2.73,10.78,4.37,16.35,5.95,4.07,1.15,8.47,1.11,12.58,2.15,3.01.76,5.74,1.28,8.98,1.05,12.12-.86,23.79-3.11,34.69-8.68,2.43-1.24,5.15-2.05,7.33-3.63,8.94-6.49,15.79-14.86,21.92-24.05,8.03-12.06,9.34-25.12,7.4-38.88-.29-2.04-1.79-3.91-2.73-5.85,0-1.75,0-3.5-.01-5.25,2.5,0,5,0,7.49,0Z" style="fill: #f1bb44; stroke-width: 0px;"/>
  <path d="M150.98,128.13c-5.25,1.5-10.5,3-15.74,4.5-7.2-2.37-14.59-4.3-21.53-7.28-4.16-1.79-7.1-12.04-4.74-14.86,4.83-5.77,9.97-11.33,17.84-13.07,7.72-1.71,15.39-3.72,23.16-5.15,6.18-1.14,12.51-1.49,18.74-2.38,7.46-1.06,14.9-2.23,22.33-3.51,8.64-1.48,17.25-3.13,25.88-4.71-.88,1.07-1.72,2.17-2.65,3.21-1.08,1.21-2.23,2.36-3.35,3.53-1.48.49-3.19.67-4.39,1.55-2.43,1.78-4.59,3.95-6.86,5.96-4.78,0-9.64-.57-14.32.12-5.31.79-10.71,2.13-15.61,4.28-4.3,1.89-8.12,5.05-11.84,8.03-2.46,1.97-4.6,4.46-6.44,7.03-1.59,2.24-2.56,4.93-3.87,7.57.99,1.51,2.19,3.34,3.39,5.17Z" style="fill: #ebaf53; stroke-width: 0px;"/>
  <path d="M52.88,67.6c3.21,0,6.42-.02,9.63-.03.02.21,0,.41-.08.61.73,1.2,1.19,3.02,2.24,3.48,2.43,1.07,5.11,1.76,7.75,2.1,5.73.75,11.51,1.65,17.26,1.6,5.25-.04,10.49-1.3,15.75-1.94,4.46-.55,8.94-.98,13.41-1.46,1.09.49,2.17,1.36,3.27,1.39,6.86.17,13.73.04,20.59.22,11.11.29,22.23,1.13,33.33,1.02,8.91-.09,17.81-1.12,26.7-1.98,2.77-.27,5.47-1.32,8.2-2.01,4.27,0,8.54,0,12.8,0,1.97.2,3.94.41,5.92.61-.23.41-.39,1.12-.7,1.2-7.1,1.9-14.26,3.57-21.31,5.62-5.23,1.52-10.27,3.7-15.5,5.24-12.06,3.53-24.15,2.89-36.53,1.09-9.42-1.37-19.12-2.36-28.8-.6-10.2,1.86-20.53,3.05-30.76,4.76-4.62.77-9.12,2.29-13.74,3.11-2.84.51-5.8.55-8.69.39-.97-.05-1.87-1.37-2.81-2.11.03-8.39-6.34-11.86-12.25-15.39-2.91-1.73-4.89-3.69-5.66-6.93Z" style="fill: #e29945; stroke-width: 0px;"/>
  <path d="M210.92,88.41c1.12-1.17,2.27-2.32,3.35-3.53.92-1.03,1.77-2.13,2.65-3.21,3.65-1.09,7.25-2.42,10.97-3.22,5.28-1.13,10.62-2.24,15.99-2.71,11.34-1,22.72-2.14,34.08-2.16,10.61-.02,21.23,1.34,31.85,2.09.9,1.27,1.75,2.58,2.72,3.79,1.03,1.28,2.18,2.47,3.27,3.69-1,.25-2,.5-3,.75-2.25-.25-4.49-.5-6.74-.75-1.09-.51-2.14-1.29-3.28-1.48-6.56-1.09-13.18-1.85-19.72-3.06-10.76-2-21.42-.55-32,.94-8.3,1.17-16.53,3.22-23.67,8.1-3.49.75-6.99,1.5-10.48,2.25-2-.5-3.99-1-5.99-1.5Z" style="fill: #e2a873; stroke-width: 0px;"/>
  <path d="M315.8,83.16c-1.1-1.23-2.24-2.41-3.27-3.69-.97-1.21-1.82-2.52-2.72-3.79,4.35.74,8.86.97,12.99,2.37,3.88,1.31,7.34,3.86,10.99,5.86,0,1.75,0,3.5.01,5.25-1.75-.25-3.5-.5-5.25-.75-1.68-.72-3.36-1.47-5.05-2.16-2.56-1.05-5.12-2.06-7.69-3.09Z" style="fill: #ebaf53; stroke-width: 0px;"/>
  <path d="M229.64,71.21c-1.97-.2-3.94-.41-5.92-.61,2.7,0,5.41-.01,8.11-.02-.73.21-1.46.42-2.19.62Z" style="fill: #dc7c1a; stroke-width: 0px;"/>
  <path d="M301.57,69.94c.75-.01,1.51-.03,2.26-.04-.72,1.78-1.47,1.82-2.26.04Z" style="fill: #e29945; stroke-width: 0px;"/>
  <path d="M185.45,298.97c.75.26,1.5.51,2.25.77-.35.46-.63,1.24-1.05,1.33-5.13,1.1-10.29,2.11-15.43,3.14-3-2-6-4-9-6-.54-.62-1.09-1.25-1.63-1.87.73-.08,1.5-.35,2.17-.2,1.35.31,2.64.84,3.96,1.29,4.88.52,9.75,1.07,14.64,1.54,1.36.13,2.73.02,4.1.02Z" style="fill: #e5a24e; stroke-width: 0px;"/>
  <path d="M365.17,537.06c4.27-.16,8.53-.32,12.8-.47-1.74.97-3.48,1.95-5.22,2.93-.74,0-1.48,0-2.22,0-16.15.49-32.31.97-48.46,1.49-4.84.16-9.67.47-14.5.72-10.73,0-21.47-.08-32.2,0-27.18.2-54.36.65-81.53.67-21.94.02-43.87-.78-65.8-.55-10.37.11-20.7,1.93-31.08,2.68-7.52.55-15.06.75-22.6.89-8.36.15-16.74-.31-25.08.14-12.08.65-24.12,1.88-36.18,2.85,3.14-.99,6.23-2.52,9.45-2.87,8.98-.98,18.02-1.56,27.04-2.12,4.54-.28,9.11-.1,13.66-.25,4.96-.17,9.92-.44,14.87-.78,1.02-.07,2-.66,3.19-1.08-.94-1.36-1.61-2.32-2.27-3.29,8.79.16,17.57.32,26.36.48,2.43.06,4.86.16,7.29.19,25,.31,50,.6,74.99.9,1.17,0,2.33-.01,3.5-.02,4.05.11,8.09.21,12.14.32,2.55,0,5.1-.02,7.65-.03.46,0,.92.01,1.37.02,1.81,0,3.63,0,5.44,0,1.42,0,2.83,0,4.25,0,3.33-.01,6.67-.03,10-.04,5.72-.06,11.44-.15,17.17-.18,17.84-.1,35.69-.17,53.53-.29,1.47-.01,2.93-.34,4.39-.51,3.9-.07,7.8-.14,11.71-.21,4.27-.07,8.54-.15,12.81-.22,1.33-.12,2.66-.25,3.99-.37l.21.11.23-.08.36.07s.35-.09.35-.09c.76-.02,1.52-.04,2.27-.07,3.74-.07,7.48-.14,11.23-.21.25-.01.5-.02.75-.04.51-.01,1.03-.03,1.54-.04.85-.12,1.69-.25,2.54-.37,3.36-.1,6.72-.2,10.08-.3Z" style="fill: #8dadeb; stroke-width: 0px;"/>
  <path d="M328.66,551.05c-1.15.65-2.23,1.7-3.45,1.88-7.33,1.12-14.67,2.32-22.05,2.95-9.14.78-18.33,1.26-27.5,1.44-6.57.13-13.15-.44-19.73-.73-3.8-.17-7.61-.31-11.39-.65-10.36-.94-20.7-1.96-31.05-3.01-.83-.08-1.62-.61-2.42-.94.02-.37.04-.75.06-1.12,4.16-.8,8.3-1.91,12.5-2.31,5.93-.56,11.9-.64,17.86-.84,8.33-.29,16.65-.62,24.98-.73,10-.13,20.01-.23,30.01.02,9.18.23,18.34.9,27.5,1.51,1.5.1,2.95.94,4.43,1.44.08.36.17.72.25,1.08Z" style="fill: #8dadeb; stroke-width: 0px;"/>
  <path d="M4.12,548.47c2.25,0,4.5-.01,6.74-.02-2.25,0-4.5.01-6.74.02Z" style="fill: #8dadeb; stroke-width: 0px;"/>
  <path d="M256.62,300.45c1.25,0,2.49,0,3.74.01.25,1,.5,1.99.76,2.99.44,5.71-2.49,10.26-5.44,14.64-1.42,2.11-1.68,3.85-.41,5.79,1.96,3.01,3.31,6.53,7.01,8.15,2.79,1.22,5.45,2.75,8.14,4.19,6.32,3.38,12.88,6.39,18.84,10.3,5.56,3.65,10.65,8.07,15.62,12.52,3.78,3.39,7.05,7.35,10.55,11.06,1.85,1.96,4.11,3.68,5.49,5.94,9.61,15.71,16.63,32.55,18.77,50.88,1.29,11,.61,22.24.79,33.37.05,3.18.46,6.44-.06,9.54-1.15,6.95-2.61,13.86-4.27,20.71-1.28,5.29-3.74,10.38-4.43,15.72-.93,7.24-.68,14.63-.93,21.96-.51-.44-1.37-.81-1.49-1.34-.84-3.96-2.26-7.98-2.11-11.93.32-8.63,1.42-17.24,2.29-25.85,1.15-11.43,2.37-22.86,3.56-34.29-.5-6.54-1.27-13.08-1.44-19.63-.33-12.74-4.32-24.61-10.02-35.59-4.66-8.98-9.46-18.05-17.3-25.32-5.67-5.26-10.44-11.49-17.03-15.87-5.12-3.41-9.8-7.47-16.1-8.81-4.81-1.02-9.47-2.76-14.29-3.69-6.01-1.16-12.28-3.13-18.16-2.44-13.85,1.63-27.64,4.18-41.26,7.24-8.95,2.01-15.94-2.05-23.37-5.23-1.17-.5-2.28-2.18-2.57-3.5-1.05-4.8-1.74-9.69-2.56-14.54,1.25-1.5,2.5-3,3.75-4.5.75,1.22,1.44,2.48,2.26,3.65.73,1.05,1.39,2.48,2.42,2.9,2.85,1.18,5.86,2.01,8.86,2.77.97.25,2.48.28,3.09-.29,4.28-3.97,9.55-4.67,15.02-5.43,5.8-.8,8.32-6.27,5.44-10.86-.57-.92-1.5-1.65-2.37-2.33-2.05-1.59-4.17-3.1-6.26-4.65,3.88.68,7.79,1.23,11.65,2.06,9.27,1.99,18.53,4.93,28.08,3.04,5.24-1.04,10.36-3.12,15.23-5.4,3.26-1.53,3.15-4.42.49-7.19,0-.25,0-.51,0-.76Z" style="fill: #f1bb44; stroke-width: 0px;"/>
  <path d="M330.79,528.22c.25-7.33,0-14.72.93-21.96.69-5.34,3.15-10.42,4.43-15.72,1.66-6.85,3.12-13.76,4.27-20.71.51-3.1.11-6.36.06-9.54-.18-11.13.49-22.37-.79-33.37-2.14-18.32-9.16-35.17-18.77-50.88-1.38-2.25-3.64-3.97-5.49-5.94-3.5-3.71-6.77-7.67-10.55-11.06-4.97-4.45-10.06-8.88-15.62-12.52-5.97-3.91-12.53-6.92-18.84-10.3-2.69-1.44-5.35-2.96-8.14-4.19-3.7-1.62-5.04-5.14-7.01-8.15-1.27-1.94-1.01-3.68.41-5.79,2.95-4.38,5.89-8.93,5.44-14.64.97,1.32,2.62,2.55,2.81,3.98,1.51,11.42,8.91,18.87,17.36,25.3,5.29,4.02,11.58,6.69,17.09,10.45,3.73,2.55,7.04,5.78,10.26,8.98,5.02,5,9.86,10.17,14.64,15.39,1.66,1.81,3.18,3.84,4.32,6.01,4.56,8.65,8.96,17.38,13.37,26.1.56,1.1.86,2.34,1.19,3.53,1.74,6.29,3.82,12.52,5.06,18.91,1.22,6.3,1.41,12.79,2.35,19.15,1.66,11.23.04,22.12-2.53,33.04-1.05,4.47-.79,9.25-1.27,13.87-.2,1.96-.8,3.88-1.18,5.82-.92,4.69-2.6,9.25-.52,14.19.81,1.92.32,4.44.2,6.68-.48,8.79,5.2,16.44,13.5,17.86,2.47,1.45,4.95,2.89,7.42,4.34-3.36.1-6.72.2-10.08.3-.85.12-1.69.25-2.54.37-.51.01-1.03.03-1.54.05-.25.01-.5.02-.75.04-3.74.07-7.48.14-11.23.2-.29-.43-.57-.86-.86-1.29-.47.45-.94.91-1.41,1.36,0,0-.35.09-.35.09,0,0-.36-.07-.36-.07-1.76-3.3-3.51-6.59-5.27-9.89Z" style="fill: #efb439; stroke-width: 0px;"/>
  <path d="M7.15,58.44c.49-1,.98-2.01,1.46-3.01,3.89-.82,6.5-2.81,7.01-7.09.54-4.54,1.4-9.03,1.97-13.57.68-5.31,2.75-9.74,8.18-11.34,4.11-1.21,8.42-1.81,12.67-2.41,5.02-.7,10.12-.91,15.12-1.7,8.15-1.29,16.27-2.82,24.36-4.41.98-.19,1.76-1.38,2.64-2.11,9.49.27,18.98.54,28.47.8-1.38,1.26-2.75,2.53-4.33,3.97.57.37,1.11.98,1.72,1.06,4.55.59,9.11,1.53,13.66,1.52,22.32-.08,44.64-.38,66.96-.68,12.33-.17,24.66-.51,36.99-.71,1.59-.03,3.19.58,4.78.53,11.06-.38,22.11-.97,33.16-1.27,7.44-.2,14.9-.05,22.35-.06,6.75-.24,13.49-.48,20.24-.72.5.24,1,.48,1.5.71,2,0,4,0,5.99,0,4.91,0,9.83.1,14.74-.04,1.09-.03,2.16-.91,3.23-1.4.5,0,1,0,1.5,0,.94.49,1.85,1.31,2.82,1.4,2.29.2,4.6.05,6.91.05.5,0,1,0,1.5,0,2.74,0,5.49,0,8.23,0,1,0,2.01,0,3.01.01,4.47.25,8.98.26,13.41.82,5.11.64,10.23,1.47,15.19,2.77,2.74.72,3.37,2.97,1.56,5.58-.97,1.39-1.76,2.95-2.38,4.53-1.71,4.37-2.86,9.03-5.06,13.12-1.56,2.9-4.12,5.58-6.87,7.41-2.9,1.92-6.54,2.71-9.86,4-.5,0-1,0-1.51.01-1.5.49-2.99.98-4.49,1.47-5.99.02-11.98.03-17.97.05-1,.24-2,.48-3,.72-8.99.26-17.98.51-26.97.77-1.25.48-2.51.96-3.76,1.45-2,0-3.99,0-5.99,0-2.64-.41-5.28-1.23-7.91-1.16-6.36.17-12.7.75-19.05,1.17-.75,0-1.51,0-2.26,0-1.25,0-2.49,0-3.74,0-.75,0-1.51,0-2.26,0-1,0-1.99,0-2.99,0-1-.24-2-.48-3-.72-1.17-.25-2.33-.69-3.51-.72-12.45-.3-24.93-.07-37.34-.91-13.14-.89-26.2-2.99-39.32-4.18-11.86-1.08-23.8-2.62-35.63-2.12-9.15.39-17.64-1.87-26.43-2.91-4.67-.55-9.29-1.5-13.97-1.85-7.41-.57-13.5-3.96-18.93-8.59-6.35-5.41-13.3-9.03-21.41-11.46-6.53-1.96-12.84-2.58-19.43-2.47-5.52.09-9.58,3.13-11.19,8.42-1.53,5.06-2.94,10.15-4.37,15.24-1.39,4.97-4.95,7.06-9.78,7.86-2.28.38-4.45,1.43-6.66,2.17ZM288.07,21.71c-3.99,0-7.98,0-11.97,0-1.3-.25-2.6-.72-3.89-.7-10.08.18-20.16.55-30.24.67-3.83.04-7.69-.78-11.51-.6-12.02.56-24.03,1.4-36.04,2.16-3.22.21-6.45.41-9.63.89-3.05.46-6.04,1.29-9.06,1.96.63,1.09,1.21,1.51,1.84,1.6,9.15,1.28,15.92,6.01,21.47,13.37,2.89,3.83,6.87,7.15,10.98,9.69,10.85,6.7,23.68,6.26,35.46,6.51,30.55.67,61.23,2.14,91.7-2.49,7.81-1.19,12.75-5.92,16.62-12.01,2.95-4.65,5.09-9.82,7.75-14.67,1.07-1.95.94-3.31-1.11-4.24-1.23-.56-2.52-1.18-3.83-1.34-7.26-.84-14.52-2.01-21.8-2.18-14.6-.34-29.21-.13-43.81-.04-.98,0-1.95.92-2.93,1.41Z" style="fill: #79a0ea; stroke-width: 0px;"/>
  <path d="M284.33,17.97c-7.45,0-14.9-.14-22.35.06-11.06.3-22.11.89-33.16,1.27-1.58.05-3.19-.56-4.78-.53-12.33.2-24.66.54-36.99.71-22.32.3-44.64.6-66.96.68-4.55.02-9.11-.93-13.66-1.52-.61-.08-1.15-.69-1.72-1.06,1.57-1.45,2.95-2.71,4.33-3.97.98,0,1.96,0,2.95.01,0,2.93,2.26,2.18,3.75,2.04,1.64-.15,4.29,1.42,4.54-2.01,4.22.03,8.44.05,12.66.07.26.56.52,1.11.79,1.67.27-.55.53-1.11.8-1.66,35.94.15,71.88.31,107.83.46,13.5.04,27,.08,40.5.12.49,1.22.98,2.43,1.47,3.65Z" style="fill: #6d97e5; stroke-width: 0px;"/>
  <path d="M80.57,12.81c-.87.73-1.66,1.91-2.64,2.11-8.1,1.59-16.21,3.12-24.36,4.41-5,.79-10.1.99-15.12,1.7-4.26.6-8.57,1.2-12.67,2.41-5.44,1.6-7.51,6.03-8.18,11.34-.58,4.53-1.44,9.03-1.97,13.57-.51,4.28-3.11,6.27-7.01,7.09,4.33-4.64,3.52-10.42,3.85-16.06.26-4.41.95-8.94,2.44-13.07.78-2.16,3.4-4.4,5.68-5.15,6.69-2.2,13.57-3.88,20.46-5.36,4.22-.9,8.58-1.25,12.9-1.5,7.2-.41,14.42-.52,21.62-.83.93-.04,1.83-.49,2.75-.75.76.03,1.51.07,2.27.1Z" style="fill: #8dadeb; stroke-width: 0px;"/>
  <path d="M120.28,13.66c-.26,3.43-2.9,1.86-4.54,2.01-1.5.14-3.75.89-3.75-2.04,2.77.01,5.53.02,8.3.03Z" style="fill: #79a0ea; stroke-width: 0px;"/>
  <path d="M134.53,13.74c-.27.55-.53,1.11-.8,1.66-.26-.56-.52-1.12-.79-1.67.53,0,1.06,0,1.58.01Z" style="fill: #79a0ea; stroke-width: 0px;"/>
  <path d="M360.02,56.2c3.32-1.28,6.97-2.07,9.86-4,2.75-1.83,5.31-4.52,6.87-7.41,2.2-4.1,3.35-8.75,5.06-13.12.62-1.58,1.41-3.14,2.38-4.53,1.82-2.61,1.19-4.86-1.56-5.58-4.97-1.3-10.09-2.13-15.19-2.77-4.44-.55-8.94-.57-13.41-.82,1.09-.49,2.2-1.44,3.28-1.4,5.64.2,11.29.51,16.91,1.04,4.86.45,9.72,1.03,14.51,1.95,4.92.94,5.73,3.09,3.72,7.74-1.61,3.72-3.55,7.41-4.38,11.32-2.27,10.76-9.42,15.44-19.54,16.8-2.82.38-5.67.52-8.51.77Z" style="fill: #6d97e5; stroke-width: 0px;"/>
  <path d="M269.36,60.67c6.35-.42,12.7-1,19.05-1.17,2.62-.07,5.27.75,7.91,1.16-1.15.26-2.3.72-3.45.74-6.68.07-13.37.07-20.05,0-1.16-.01-2.31-.48-3.46-.73Z" style="fill: #6d97e5; stroke-width: 0px;"/>
  <path d="M330.04,16.52c-1.08.49-2.14,1.37-3.23,1.4-4.91.15-9.83.05-14.74.04,2.67-.71,5.31-1.84,8.02-2.02,3.29-.22,6.64.35,9.96.57Z" style="fill: #6d97e5; stroke-width: 0px;"/>
  <path d="M341.28,17.96c-2.31,0-4.62.16-6.91-.05-.98-.09-1.89-.91-2.82-1.4,2.79.08,5.58.11,8.36.3.48.03.92.75,1.38,1.15Z" style="fill: #6d97e5; stroke-width: 0px;"/>
  <path d="M351.01,17.97c-2.74,0-5.49,0-8.23,0,2.05-2.13,6.2-2.13,8.23,0Z" style="fill: #6d97e5; stroke-width: 0px;"/>
  <path d="M354.02,57.68c1.5-.49,2.99-.98,4.49-1.47-1.5.49-2.99.98-4.49,1.47Z" style="fill: #6d97e5; stroke-width: 0px;"/>
  <path d="M263.37,60.67c1.25,0,2.49,0,3.74,0-1.25,0-2.49,0-3.74,0Z" style="fill: #6d97e5; stroke-width: 0px;"/>
  <path d="M302.31,60.66c1.25-.48,2.51-.96,3.76-1.45-1.25.48-2.51.96-3.76,1.45Z" style="fill: #6d97e5; stroke-width: 0px;"/>
  <path d="M258.12,60.67c1,0,1.99,0,2.99,0-1,0-1.99,0-2.99,0Z" style="fill: #6d97e5; stroke-width: 0px;"/>
  <path d="M333.05,58.45c1-.24,2-.48,3-.72-1,.24-2,.48-3,.72Z" style="fill: #6d97e5; stroke-width: 0px;"/>
  <path d="M356.23,12.65c.52-.19,1.03-.38,1.55-.57-.52.19-1.03.38-1.55.57Z" style="fill: #8dadeb; stroke-width: 0px;"/>
  <path d="M306.07,17.96c-.5-.24-1-.48-1.5-.71.5.24,1,.48,1.5.71Z" style="fill: #6d97e5; stroke-width: 0px;"/>
  <path d="M85.04,415.83c-6.55,8.09-12.81,16.35-17.1,25.95-2.02,4.52-4.4,8.87-6.7,13.26-.29.55-1.1.81-1.68,1.21,4.7-13.07,9.23-26.2,16.09-38.37,1.31-2.32,2.14-5.04,2.59-7.68,1.1-6.55,5.21-11.34,9-16.34,4.41-5.82,8.59-11.85,13.42-17.3,7.46-8.41,15.44-16.36,23.12-24.58,8.22-8.81,16.48-17.6,24.46-26.63,4.18-4.73,7.77-9.97,11.66-14.97,2.12-2.72,3.13-5.61,1.79-9.04-.16-.41.34-1.07.53-1.62,3.8,2.54,3.64,5.99,2.24,9.73-.57.41-1.33.7-1.67,1.25-3.64,5.89-7,11.96-10.86,17.69-5.24,7.79-10.61,15.52-16.35,22.94-5.55,7.19-11.63,13.97-17.5,20.91-2,2.36-4.15,4.61-6.1,7.01-4.22,5.19-8.53,10.31-12.47,15.7-4.99,6.83-9.66,13.9-14.46,20.86Z" style="fill: #f2c887; stroke-width: 0px;"/>
  <path d="M164.44,309.45c1.4-3.74,1.56-7.19-2.24-9.73,0-.51,0-1.02,0-1.52,3,2,6,4,9,6-1.76,4.49-3.51,8.98-5.27,13.47-1,.5-1.99,1.01-2.99,1.51-.25,0-.5,0-.75,0,.74-3.25,1.49-6.49,2.23-9.74Z" style="fill: #e2a873; stroke-width: 0px;"/>
  <path d="M119.5,57.69c-.5,0-1,0-1.5,0,.5,0,1,0,1.5,0Z" style="fill: #5792e8; stroke-width: 0px;"/>
  <path d="M118.83,71.96c-4.47.48-8.95.91-13.41,1.46-5.25.64-10.49,1.9-15.75,1.94-5.75.05-11.53-.85-17.26-1.6-2.64-.34-5.32-1.03-7.75-2.1-1.05-.46-1.51-2.28-2.24-3.48,1-.12,1.99-.25,2.98-.37.83.03,1.66.06,2.49.09.45.03.9.06,1.34.09,3.77.08,7.53.16,11.3.24,1.21.17,2.41.47,3.62.5,15.29.35,30.59.65,45.88.99.99.02,1.97.19,2.95.29-.55.39-1.07,1.07-1.65,1.12-4.16.35-8.34.57-12.51.83Z" style="fill: #d67119; stroke-width: 0px;"/>
  <path d="M118.83,71.96c4.17-.26,8.34-.48,12.51-.83.58-.05,1.1-.73,1.65-1.12,10.68.08,21.37.17,32.05.25,15.29.11,30.59.23,45.88.34-2.73.69-5.43,1.75-8.2,2.01-8.88.86-17.79,1.89-26.7,1.98-11.11.11-22.22-.73-33.33-1.02-6.86-.18-13.73-.05-20.59-.22-1.1-.03-2.18-.91-3.27-1.39Z" style="fill: #dc7c1a; stroke-width: 0px;"/>
  <path d="M104.8,67.1h-3.54c-.03-.26-.06-.52-.08-.78,1.18-.11,2.36-.21,3.55-.32.03.37.05.74.08,1.1Z" style="fill: #2746ae; stroke-width: 0px;"/>
  <path d="M339.76,69.07c-.29.19-.57.37-.86.55.29-.19.57-.37.86-.55Z" style="fill: #d67119; stroke-width: 0px;"/>
  <path d="M311.27,69.79c-.22,0-.44,0-.66.01.22-.14.44-.14.66-.01Z" style="fill: #e5a24e; stroke-width: 0px;"/>
  <path d="M372.75,539.51c1.74-.98,3.48-1.95,5.22-2.93,4.04-.54,8.11-.95,12.11-1.69,1.11-.21,2.04-1.38,3.06-2.11,2.87.73,5.81,1.26,8.56,2.27,1.27.47,2.19,1.9,3.27,2.89-8.58.73-17.16,1.53-25.75,2.13-2.13.15-4.31-.36-6.47-.57Z" style="fill: #6d97e5; stroke-width: 0px;"/>
  <path d="M50.68,67.54c.19-.12.37-.12.55.01-.18,0-.37,0-.55-.01Z" style="fill: #e29945; stroke-width: 0px;"/>
  <path d="M162.21,319.18c.25,0,.5,0,.75,0-1.21,3.23-2.46,6.45-3.64,9.7-2.5,6.94-4.95,13.9-7.45,20.85-.75,2.07-2.29,4.12-2.25,6.16.13,6.46.06,13.1,1.54,19.32,1.63,6.82,4.65,13.43,12.87,15.21.95.21,1.9,1.16,2.52,2,2.04,2.76,4.53,1.93,6.98,1.01,1.88-.71,3.6-1.87,5.5-2.48,2.06-.66,4.25-.91,6.39-1.34,2.81-1.18,5.81-2.06,8.4-3.61,6.11-3.65,11.91-7.84,18.07-11.4,7.62-4.41,15.7-7.82,24.39-9.56,3.27-.66,6.58-1.56,9.88-1.57,10.05-.03,19.86,2.01,28.72,6.64,7.53,3.93,14.79,8.69,20.11,15.61,2.93,3.8,5.59,7.82,8.15,11.88,2.63,4.17,5.12,8.43,7.42,12.79,4.04,7.66,6.27,15.88,6.63,24.53.25,6.22.35,12.46.12,18.68-.17,4.66-.98,9.29-1.51,13.94-.04.74.08,1.54-.14,2.23-2.89,8.68-5.8,17.36-8.77,26.02-.56,1.63-1.43,3.16-2.08,4.77-3.51,8.61-7.16,17.17-10.44,25.87-1.59,4.21.68,7.98,3.37,10.85,1.23,1.32,4.2,1.05,6.4,1.42.97.17,1.98.13,2.98.19-1.46.18-2.93.5-4.39.51-17.84.12-35.69.19-53.53.29-5.72.03-11.44.12-17.17.18,3.36-3.91,5.83-8.02,6.03-13.55.13-3.79-2.46-5.46-3.98-8.01-3.05-5.1-5.84-10.38-9.16-15.31-5.45-8.1-11.31-15.93-16.85-23.97-3.44-4.99-6.48-10.26-9.95-15.23-1.98-2.83-5.05-5.01-6.62-8-3.51-6.71-10.78-8.26-16.02-12.56-.85-.7-2.75-.64-3.97-.28-6.01,1.77-11.94,3.86-17.95,5.63-1.52.45-3.26.15-4.9.19-3.08.07-6.28-.35-9.22.33-3,.69-8.85.18-11.1-2.15-3.6-3.73-6.58-8.33-10.76-11.18-5.07-3.45-7.65-8.15-10.12-13.27-.38-.79-1.19-1.65-1.98-1.92-3.79-1.3-7.29-1.49-10.74,1.54-3.68,3.23-7.92,5.84-11.92,8.72,1.71-4.18,3.44-8.35,5.1-12.55.4-1.02.59-2.12.88-3.19,3.06-3.03,6.11-6.06,9.18-9.08,1.23-1.21,2.48-2.4,3.77-3.54,1.91-1.69,3.9-3.31,5.81-5.01,3.55-3.18,7.17-6.29,10.56-9.63,2.6-2.56,4.43-6.68,7.46-7.83,3.49-1.32,4.51-3.51,5.73-6.21.36-.78.88-1.52,1.44-2.18,7.8-9.21,12.32-20.27,17.68-30.88,3.69-7.3,7.84-14.38,11.79-21.55ZM312.48,436.16c-.66-3.41-1.23-9-2.9-14.23-2.03-6.34-4.47-12.67-7.7-18.47-2.58-4.64-6.71-8.38-9.95-12.68-6.48-8.6-15.14-14.08-24.95-18.08-10.47-4.27-21.05-3.4-31.75-1.1-8.55,1.84-14.82,7.82-22.12,11.9-2.64,1.48-4.84,3.89-6.96,6.14-4,4.24-7.75,8.72-11.72,13-.98,1.06-2.54,1.57-3.57,2.6-.99.99-2.2,2.26-2.33,3.51-.68,6.28.04,12.35,3.72,17.77,1.53,2.26,3.92,4.52,4.19,6.96.95,8.87,6.08,15.48,10.7,22.48,2.23,3.38,4.12,7,6.04,10.57,3.42,6.36,6.17,13.02,11.93,18,4.16,3.6,7.35,8.31,11.12,12.37,6.22,6.71,13.79,11.71,21.88,15.75,3.74,1.87,8.07,3.29,11.89-.97,1.17-1.31,3.58-1.51,5.42-2.21.9-.34,1.99-.43,2.7-1,5.41-4.29,10.77-8.64,16.1-13.03,6.33-5.21,7.44-13.34,10.68-20.17,5.49-11.56,6.4-24.32,7.58-39.15Z" style="fill: #f0be6a; stroke-width: 0px;"/>
  <path d="M187.67,539.6c-25-.3-50-.59-74.99-.9-2.43-.03-4.86-.12-7.29-.18,4.68-1.54,9.4-2.83,11.19-8.45,1.92-6.05-.41-11.37-2.63-16.54-1.42-3.31-4.26-5.98-6.31-9.05-3.56-5.34-6.98-10.76-10.5-16.13-.4-.61-1.03-1.08-1.58-1.58-2.62-2.41-5.28-4.79-7.88-7.22-2.2-2.05-4.31-3.39-7.05-.64-.98.98-2.54,1.39-3.82,2.06-.67-1.18-1.17-2.07-1.78-3.16-3.29,2.34-7.37,3.1-8.6,7.52-2.35,8.47-5.37,16.77-7.21,25.34-1.3,6.04-2.79,12.36-.38,18.63.88,2.29,1.49,4.67,2.23,7.02-3.48-.27-6.95-.54-10.43-.81-.25-10.43-.64-20.9,3.06-30.91,1.67-4.52,4.01-8.79,5.59-13.33,2.95-8.5,7.06-16.31,12.33-23.61,1.95-2.7,3-6.06,4.46-9.11,1.08-.96,2.2-1.87,3.24-2.87,2.73-2.63,7.22-3.5,10.32-1.49,2.46,1.6,4.85,3.51,6.76,5.73,9.68,11.22,20.05,21.72,32.71,29.56,3.92,2.43,8.79,3.1,13.14.94,2.2-1.09,3.55-.46,5.48.12,3.09.93,6.35,1.32,9.57,1.8,3.41.5,7.13.14,10.2,1.4,5.22,2.14,10.07,5.22,15.02,7.99.92.52,2.04,1.32,2.32,2.23,1.99,6.32,7.24,10.93,8.04,18.15.67,6.01,1.08,10.93-4.02,15-.64.51-.78,1.66-1.15,2.51Z" style="fill: #e5a24e; stroke-width: 0px;"/>
  <path d="M82.81,430.83c4-2.88,8.24-5.48,11.92-8.72,3.45-3.03,6.95-2.83,10.74-1.54.8.27,1.6,1.13,1.98,1.92,2.47,5.12,5.06,9.82,10.12,13.27,4.18,2.85,7.16,7.45,10.76,11.18,2.25,2.33,8.1,2.84,11.1,2.15,2.94-.68,6.13-.26,9.22-.33,1.64-.04,3.38.26,4.9-.19,6.02-1.77,11.94-3.85,17.95-5.63,1.22-.36,3.12-.42,3.97.28,5.23,4.29,12.51,5.85,16.02,12.56,1.57,3,4.64,5.17,6.62,8,3.47,4.97,6.51,10.24,9.95,15.23,5.54,8.04,11.4,15.87,16.85,23.97,3.31,4.92,6.1,10.2,9.16,15.31,1.53,2.55,4.12,4.23,3.98,8.01-.2,5.54-2.67,9.64-6.03,13.55-3.33.01-6.67.03-10,.04-1.41,0-2.83,0-4.25,0-1.81,0-3.63,0-5.44,0-.23-.16-.47-.32-.7-.48.54-.81,1.22-1.55,1.59-2.43,1.5-3.57,4.62-7.51,4-10.7-1.33-6.82-3.98-13.61-7.27-19.78-4.06-7.61-8.99-14.84-14.16-21.77-6.58-8.82-15.6-14.45-26.46-16.34-4.08-.71-8.48.51-12.75.65-1.89.06-3.84-.77-5.67-.53-4.7.61-9.28,1.59-14.15,1.56-3.1-.02-5.53-.67-7.94-2.08-3.72-2.17-7.17-4.88-11.01-6.79-5.9-2.93-9.76-7.96-14.17-12.5-2.37-2.44-4.88-5.1-7.88-6.46-4.91-2.24-9.89-1.72-13.73,2.81-1.45-1.65-2.9-3.3-4.38-4.99,1.74-3.13,3.44-6.18,5.15-9.24Z" style="fill: #eeb760; stroke-width: 0px;"/>
  <path d="M82.04,445.06c3.84-4.53,8.82-5.04,13.73-2.81,3,1.36,5.51,4.03,7.88,6.46,4.41,4.54,8.26,9.57,14.17,12.5,3.85,1.91,7.29,4.62,11.01,6.79,2.41,1.41,4.84,2.06,7.94,2.08,4.86.02,9.44-.95,14.15-1.56,1.84-.24,3.79.59,5.67.53,4.26-.14,8.66-1.36,12.75-.65,10.86,1.88,19.88,7.51,26.46,16.34,5.17,6.93,10.1,14.16,14.16,21.77,3.29,6.17,5.94,12.95,7.27,19.78.62,3.19-2.49,7.13-4,10.7-.37.88-1.05,1.63-1.59,2.43-.23.15-.45.3-.68.45-2.55,0-5.1.02-7.65.03-4.05-.1-8.09-.21-12.14-.32-1.17,0-2.33.01-3.5.02.37-.85.51-1.99,1.15-2.51,5.1-4.07,4.69-8.98,4.02-15-.81-7.22-6.06-11.83-8.04-18.15-.28-.9-1.4-1.71-2.32-2.23-4.95-2.77-9.8-5.85-15.02-7.99-3.07-1.26-6.79-.9-10.2-1.4-3.21-.47-6.47-.87-9.57-1.8-1.93-.58-3.28-1.22-5.48-.12-4.35,2.16-9.22,1.49-13.14-.94-12.66-7.85-23.02-18.34-32.71-29.56-1.91-2.21-4.3-4.13-6.76-5.73-3.1-2.01-7.59-1.14-10.32,1.49-1.04,1-2.16,1.92-3.24,2.87,1.05-2.42,2.08-4.84,3.14-7.24.93-2.09,1.9-4.16,2.85-6.24Z" style="fill: #ebaf53; stroke-width: 0px;"/>
  <path d="M162.21,319.18c-3.95,7.18-8.1,14.25-11.79,21.55-5.36,10.61-9.88,21.67-17.68,30.88-.56.66-1.08,1.39-1.44,2.18-1.23,2.7-2.25,4.89-5.73,6.21-3.03,1.15-4.86,5.27-7.46,7.83-3.39,3.34-7.01,6.45-10.56,9.63-1.9,1.7-3.89,3.32-5.81,5.01-1.29,1.14-2.54,2.33-3.77,3.54-3.07,3.01-6.12,6.05-9.18,9.08-1.25.25-2.5.5-3.76.74,4.81-6.97,9.47-14.03,14.46-20.86,3.94-5.39,8.25-10.52,12.47-15.7,1.95-2.4,4.1-4.64,6.1-7.01,5.87-6.94,11.95-13.72,17.5-20.91,5.74-7.43,11.11-15.15,16.35-22.94,3.86-5.74,7.22-11.81,10.86-17.69.34-.55,1.1-.84,1.67-1.25-.74,3.25-1.49,6.49-2.23,9.74Z" style="fill: #efbf73; stroke-width: 0px;"/>
  <path d="M61.05,536.31c-.73-2.34-1.35-4.73-2.23-7.02-2.41-6.27-.92-12.59.38-18.63,1.85-8.57,4.86-16.87,7.21-25.34,1.23-4.42,5.31-5.18,8.6-7.52.61,1.09,1.11,1.97,1.78,3.16,1.28-.67,2.84-1.07,3.82-2.06,2.74-2.75,4.85-1.41,7.05.64,2.61,2.43,5.26,4.81,7.88,7.22.55.51,1.18.97,1.58,1.58,3.52,5.36,6.94,10.79,10.5,16.13,2.04,3.07,4.89,5.74,6.31,9.05,2.22,5.17,4.55,10.49,2.63,16.54-1.79,5.62-6.51,6.91-11.19,8.45-8.79-.16-17.57-.32-26.36-.48-1.48-.03-2.96-.06-4.44-.1-2.49-.26-4.99-.51-7.48-.77l-.26-.24-.31.1c-1.07-.09-2.14-.18-3.22-.27-.75-.15-1.51-.3-2.26-.45Z" style="fill: #e29945; stroke-width: 0px;"/>
  <path d="M63.32,536.76c1.07.09,2.14.18,3.21.27.18.1.37.15.58.14,2.49.26,4.99.51,7.48.77-3.76-.39-7.51-.79-11.27-1.18Z" style="fill: #8dadeb; stroke-width: 0px;"/>
  <path d="M165.95,317.67c1.76-4.49,3.51-8.98,5.27-13.47,5.15-1.03,10.3-2.03,15.43-3.14.43-.09.7-.87,1.05-1.33,2.95.23,5.91.71,8.85.62,6.54-.19,13.09-.53,19.62-1.07,13.33-1.09,26.64-2.25,39.89.68.21.05.37.31.55.48,0,.25,0,.51,0,.76-1,.25-2,.5-3,.75-3.26-.63-6.51-1.69-9.78-1.8-5.97-.19-11.95.18-17.93.32-.5,0-.99,0-1.49,0-5.18.73-10.37,1.42-15.53,2.25-.64.1-1.15.96-1.72,1.47-3.21.65-7.59-.85-8.24,4.49-3.35,0-6.73-.23-10.06.05-9.19.77-15.19,5.27-16.16,14.19-1.25,1.5-2.5,3-3.75,4.5-1.5,0-2.99,0-4.49,0,.5-3.25.99-6.5,1.49-9.75Z" style="fill: #ebaf53; stroke-width: 0px;"/>
  <path d="M65.41,67.81c-.99.12-1.99.25-2.98.37.08-.2.1-.4.08-.61.97.08,1.93.16,2.9.24Z" style="fill: #416acf; stroke-width: 0px;"/>
  <path d="M69.24,68c-.45-.03-.9-.06-1.34-.09.45.03.9.06,1.34.09Z" style="fill: #416acf; stroke-width: 0px;"/>
  <path d="M328.54,88.42c1.75.25,3.5.5,5.25.75.94,1.95,2.45,3.81,2.73,5.85,1.94,13.76.63,26.83-7.4,38.88-6.13,9.2-12.98,17.56-21.92,24.05-2.17,1.58-4.9,2.39-7.33,3.63-10.9,5.57-22.56,7.82-34.69,8.68-3.24.23-5.98-.29-8.98-1.05-4.11-1.04-8.51-1-12.58-2.15-5.57-1.58-11.29-3.23-16.35-5.95-11.92-6.43-22.41-14.98-32.9-23.51-5.17-4.21-10.89-7.78-16.58-11.28-1.64-1.01-4.1-1.29-6.08-1.05-5.82.7-11.59,1.86-17.38,2.78-1.1.17-2.24.06-3.37.08-1.2-1.83-2.4-3.66-3.39-5.17,1.32-2.64,2.28-5.33,3.87-7.57,1.83-2.58,3.98-5.06,6.44-7.03,3.72-2.99,7.54-6.14,11.84-8.03,4.89-2.16,10.29-3.5,15.61-4.28,4.68-.69,9.54-.13,14.32-.13-.68,1.3-1.14,2.78-2.07,3.86-3.42,4-3.88,7.21-1.73,11.85.76,1.65.81,3.64,1.63,5.25,1.88,3.71,3.87,7.38,6.14,10.86,1.39,2.13,3.37,3.88,5.09,5.79,2.4,2.66,4.51,5.69,7.28,7.89,4.45,3.53,9.23,6.69,14.05,9.7,9.48,5.91,19.92,9.05,31.06,9.12,6.04.03,12.09-1,18.13-1.57,2.29-.22,4.67-.17,6.84-.81,9.94-2.93,17.89-8.9,25.51-15.85,5.72-5.22,9.79-11.46,12.42-18.19,4.38-11.24,7.41-23.05,4.52-35.4Z" style="fill: #f1bd51; stroke-width: 0px;"/>
  <path d="M328.54,88.42c2.89,12.35-.14,24.16-4.52,35.4-2.62,6.73-6.69,12.96-12.42,18.19-7.62,6.95-15.57,12.92-25.51,15.85-2.17.64-4.55.6-6.84.81-6.04.57-12.09,1.6-18.13,1.57-11.14-.06-21.58-3.21-31.06-9.12-4.83-3.01-9.61-6.16-14.05-9.7-2.77-2.2-4.88-5.23-7.28-7.89-1.72-1.91-3.7-3.66-5.09-5.79-2.27-3.48-4.26-7.16-6.14-10.86-.82-1.61-.86-3.6-1.63-5.25-2.15-4.65-1.68-7.86,1.73-11.85.93-1.08,1.39-2.56,2.07-3.86,2.27-2.01,4.43-4.17,6.86-5.96,1.2-.88,2.91-1.05,4.39-1.55,2,.5,3.99,1,5.99,1.5-1.19,3.18-2.95,6.27-3.42,9.55-.62,4.35-1.21,8.88,1.21,13.13,1.55,2.72,2.68,5.69,3.98,8.55.41.9.51,2.11,1.18,2.69,6.57,5.79,12.93,11.89,19.96,17.08,6.76,4.99,15.17,5.7,23.31,6.7,9.93,1.22,19-2.33,28.2-5.07.89-.27,1.69-1.04,2.39-1.73,4.94-4.89,10.53-9.32,14.56-14.87,3.85-5.31,7.58-11.54,8.63-17.83,1.33-7.93,2.12-16.74-4.07-23.83-.07-.08-.03-.24-.05-.37,1-.25,2-.5,3-.75,2.56,1.03,5.13,2.04,7.69,3.09,1.69.7,3.37,1.44,5.05,2.16Z" style="fill: #f1be5b; stroke-width: 0px;"/>
  <path d="M312.8,83.92c.01.12-.02.29.05.37,6.19,7.09,5.4,15.9,4.07,23.83-1.06,6.29-4.78,12.52-8.63,17.83-4.03,5.56-9.62,9.99-14.56,14.87-.7.69-1.5,1.46-2.39,1.73-9.21,2.74-18.27,6.29-28.2,5.07-8.14-1-16.55-1.71-23.31-6.7-7.03-5.18-13.39-11.29-19.96-17.08-.67-.59-.77-1.79-1.18-2.69-1.3-2.86-2.43-5.83-3.98-8.55-2.42-4.24-1.83-8.78-1.21-13.13.47-3.28,2.23-6.38,3.42-9.55,3.49-.75,6.99-1.5,10.48-2.25,0,2.5,0,5,0,7.51-.51,3.67-1.44,7.34.65,10.88.28.47.24,1.28.07,1.84-1.14,3.69.67,6.53,2.75,9.18,1.67,2.13,4.04,3.76,5.49,6.01,4.03,6.23,9.64,9.88,16.81,11.22,5.46,1.02,11.11,3.14,16.41,2.51,9.56-1.14,18.96-3.17,26.56-10.58,6.7-6.53,11.58-13.51,11.28-22.95-.15-4.72-1.85-9.4-2.85-14.09.5-2,1-4,1.5-6.01,2.25.25,4.49.5,6.74.75Z" style="fill: #f0be6a; stroke-width: 0px;"/>
  <path d="M306.07,83.16c-.5,2-1,4-1.5,6.01-3.2-.23-6.42-.28-9.59-.73-4.13-.59-8.2-1.96-12.33-2.17-7.14-.37-14.31-.08-21.47-.11-7.94-.04-14.75,3.91-22.06,6.11-3.85,1.16-7.81,1.94-11.72,2.9,0-2.5,0-5,0-7.51,7.14-4.88,15.37-6.94,23.67-8.1,10.58-1.49,21.25-2.94,32-.94,6.54,1.22,13.16,1.98,19.72,3.06,1.14.19,2.19.97,3.28,1.48Z" style="fill: #efbf73; stroke-width: 0px;"/>
  <path d="M307.11,538.88c-.99-.06-2-.02-2.98-.19-2.2-.37-5.16-.1-6.4-1.42-2.68-2.87-4.95-6.64-3.37-10.85,3.28-8.7,6.93-17.26,10.44-25.87.66-1.61,1.52-3.13,2.08-4.77,2.97-8.66,5.88-17.33,8.77-26.02.23-.68.1-1.48.14-2.23q3.91.33,3.55,9.53c1.34-1.17,2.26-1.98,3.19-2.79,0,1.5,0,3,0,4.5-1.42,5.36-3.01,10.68-4.2,16.1-1.94,8.81-3.78,17.65-5.31,26.53-.68,3.93-2.13,8.17.63,11.9,1.46,1.98,3.42,3.59,5.15,5.36-3.9.07-7.8.14-11.71.21Z" style="fill: #eeb760; stroke-width: 0px;"/>
  <path d="M318.82,538.67c-1.73-1.78-3.69-3.39-5.15-5.36-2.76-3.73-1.31-7.98-.63-11.9,1.53-8.89,3.37-17.72,5.31-26.53,1.19-5.41,2.79-10.73,4.2-16.1,1-1.11,2.48-2.07,2.91-3.37,1.94-5.81,3.51-11.75,5.38-17.59.36-1.13,1.45-2.02,2.2-3.02-1.19,11.43-2.41,22.85-3.56,34.29-.86,8.61-1.96,17.22-2.29,25.85-.15,3.95,1.27,7.97,2.11,11.93.11.53.97.9,1.49,1.34,1.76,3.3,3.51,6.59,5.27,9.89,0,0-.23.08-.23.08,0,0-.21-.11-.22-.11-1.33.12-2.66.25-3.99.37-4.27.07-8.54.15-12.81.22Z" style="fill: #ebaf53; stroke-width: 0px;"/>
  <path d="M191.17,539.58c4.05.11,8.09.21,12.14.32-4.05-.11-8.09-.21-12.14-.32Z" style="fill: #f0be6a; stroke-width: 0px;"/>
  <path d="M217.78,539.9c1.42,0,2.83,0,4.25,0-1.42,0-2.83,0-4.25,0Z" style="fill: #f0be6a; stroke-width: 0px;"/>
  <path d="M331.63,538.45c1.33-.12,2.66-.25,3.99-.37-1.33.12-2.66.25-3.99.37Z" style="fill: #eeb760; stroke-width: 0px;"/>
  <path d="M336.77,538.09c.47-.45.94-.91,1.41-1.36.29.43.57.86.86,1.29-.76.02-1.52.04-2.27.07Z" style="fill: #ebaf53; stroke-width: 0px;"/>
  <path d="M352.56,537.73c.85-.12,1.69-.25,2.54-.37-.84.12-1.69.25-2.54.37Z" style="fill: #ebaf53; stroke-width: 0px;"/>
  <path d="M210.96,539.87c.23-.15.45-.3.68-.45.23.16.47.32.7.48-.46,0-.92-.02-1.38-.02Z" style="fill: #f0be6a; stroke-width: 0px;"/>
  <path d="M350.27,537.81c.25-.01.5-.02.75-.04-.25.01-.5.02-.75.04Z" style="fill: #ebaf53; stroke-width: 0px;"/>
  <path d="M333.04,454.8c-.75,1-1.84,1.9-2.2,3.02-1.87,5.84-3.44,11.77-5.38,17.59-.43,1.3-1.91,2.25-2.91,3.37,0-1.5,0-3,0-4.5.18-1.09.05-2.37.59-3.25,4.21-6.85,2.98-14.69,3.66-22.05.6-6.45-.19-13.19-1.41-19.6-1.3-6.87-3.14-13.8-5.97-20.16-3.71-8.34-8.61-16.15-13.04-24.17-.53-.97-1.17-1.95-1.98-2.68-7.37-6.67-14.53-13.61-22.29-19.79-4.22-3.36-9.2-6.4-14.32-7.85-9.46-2.69-19.18-5.14-29.24-3.31-8.39,1.53-17.06,2.3-25.04,5.06-5.68,1.97-11.23,4.03-17.11,5.57-8.24,2.16-15.72.53-22.97-2.56-6.78-2.89-10.36-8.75-10.38-16.16-.01-4.55.9-9.1,1.4-13.65,0-.75,0-1.5,0-2.25,1.5,0,2.99,0,4.49,0,.82,4.85,1.51,9.74,2.56,14.54.29,1.32,1.4,3,2.57,3.5,7.43,3.17,14.42,7.24,23.37,5.23,13.62-3.07,27.41-5.61,41.26-7.24,5.88-.69,12.15,1.28,18.16,2.44,4.82.93,9.48,2.67,14.29,3.69,6.3,1.34,10.98,5.4,16.1,8.81,6.58,4.38,11.35,10.61,17.03,15.87,7.84,7.27,12.64,16.34,17.3,25.32,5.7,10.97,9.68,22.84,10.02,35.59.17,6.55.94,13.09,1.44,19.63Z" style="fill: #f1bd51; stroke-width: 0px;"/>
  <path d="M172.71,322.94c.97-8.92,6.97-13.42,16.16-14.19,3.33-.28,6.71-.05,10.06-.05.75,0,1.5,0,2.25.01,2.09,1.54,4.21,3.05,6.26,4.65.87.68,1.8,1.41,2.37,2.33,2.88,4.59.36,10.05-5.44,10.86-5.47.76-10.74,1.46-15.02,5.43-.61.57-2.12.54-3.09.29-3-.76-6.01-1.6-8.86-2.77-1.03-.43-1.7-1.86-2.42-2.9-.82-1.17-1.51-2.43-2.26-3.65Z" style="fill: #efb439; stroke-width: 0px;"/>
  <path d="M201.17,308.7c-.75,0-1.5,0-2.25-.01.65-5.34,5.03-3.84,8.24-4.49,1.13.67,2.19,1.73,3.41,1.96,12.53,2.37,24.97,5.2,37.86,1.36,3.46-1.03,5.46-1.8,5.19-5.56,1-.25,2-.5,3-.75,2.66,2.77,2.77,5.66-.49,7.19-4.86,2.28-9.99,4.36-15.23,5.4-9.55,1.9-18.81-1.04-28.08-3.04-3.85-.83-7.76-1.38-11.65-2.06Z" style="fill: #f1bd51; stroke-width: 0px;"/>
  <path d="M276.1,21.72c3.99,0,7.98,0,11.97,0,14.69.26,29.37.43,44.05.86,3.04.09,6.08,1.07,9.07,1.85.83.22,1.89,1.1,2.04,1.85.12.6-.82,1.82-1.56,2.11-3.43,1.34-4.4,4.28-5.55,7.36-1.97,5.26-4.23,10.62-9.87,12.89-4.79,1.92-9.79,3.76-14.86,4.44-8.28,1.12-16.72.98-25.03,1.91-12.61,1.41-25.06-.29-37.37-2.18-6.49-1-13.24-3.33-17.22-9.92-1.4-2.32-3.87-4.09-6.09-5.81-2.93-2.27-6.19-4.12-9.13-6.38-2.81-2.15-2.36-4.04,1.06-5.26.92-.33,1.91-.6,2.89-.65,9.29-.54,18.57-1.1,27.87-1.5,8.57-.36,17.15-.51,25.72-.81.67-.02,1.33-.48,2-.73Z" style="fill: #a4bbec; stroke-width: 0px;"/>
  <path d="M276.1,21.72c-.67.26-1.32.71-2,.73-8.57.3-17.15.44-25.72.81-9.29.39-18.58.96-27.87,1.5-.97.06-1.96.33-2.89.65-3.43,1.21-3.87,3.11-1.06,5.26,2.95,2.25,6.2,4.11,9.13,6.38,2.22,1.72,4.69,3.49,6.09,5.81,3.97,6.59,10.73,8.92,17.22,9.92,12.31,1.9,24.76,3.59,37.37,2.18,8.31-.93,16.75-.79,25.03-1.91,5.07-.69,10.07-2.52,14.86-4.44,5.65-2.27,7.91-7.63,9.87-12.89,1.15-3.07,2.12-6.02,5.55-7.36.73-.29,1.68-1.51,1.56-2.11-.15-.74-1.21-1.63-2.04-1.85-2.99-.78-6.03-1.76-9.07-1.85-14.68-.43-29.37-.6-44.05-.86.98-.49,1.95-1.41,2.93-1.41,14.6-.09,29.21-.3,43.81.04,7.28.17,14.54,1.35,21.8,2.18,1.31.15,2.6.78,3.83,1.34,2.05.93,2.18,2.29,1.11,4.24-2.66,4.85-4.79,10.02-7.75,14.67-3.87,6.09-8.81,10.83-16.62,12.01-30.47,4.63-61.15,3.15-91.7,2.49-11.78-.26-24.61.19-35.46-6.51-4.11-2.54-8.09-5.86-10.98-9.69-5.55-7.35-12.32-12.09-21.47-13.37-.63-.09-1.21-.51-1.84-1.6,3.02-.67,6.01-1.5,9.06-1.96,3.18-.48,6.41-.68,9.63-.89,12.01-.77,24.02-1.6,36.04-2.16,3.82-.18,7.68.65,11.51.6,10.08-.11,20.16-.48,30.24-.67,1.29-.02,2.59.45,3.89.7Z" style="fill: #8dadeb; stroke-width: 0px;"/>
  <path d="M164.46,327.43c0,.75,0,1.5,0,2.25-.43.21-1.13.34-1.24.66-2.58,7.85-5.01,15.76-3.93,24.16.44,3.38.96,6.92,2.34,9.98,2.14,4.73,5.17,9.04,7.6,13.65,2.16,4.09,5.38,6.47,9.77,7.83,2.3.72,4.3,2.41,6.43,3.66-2.14.43-4.33.68-6.39,1.34-1.9.61-3.62,1.77-5.5,2.48-2.45.92-4.95,1.75-6.98-1.01-.62-.85-1.57-1.8-2.52-2-8.22-1.78-11.24-8.39-12.87-15.21-1.49-6.22-1.41-12.86-1.54-19.32-.04-2.04,1.5-4.09,2.25-6.16,2.5-6.94,4.95-13.9,7.45-20.85,1.17-3.25,2.42-6.47,3.64-9.7,1-.5,1.99-1.01,2.99-1.51-.5,3.25-.99,6.5-1.49,9.75Z" style="fill: #eeb760; stroke-width: 0px;"/>
  <path d="M312.48,436.16c-1.18,14.83-2.09,27.6-7.58,39.15-3.24,6.83-4.35,14.96-10.68,20.17-5.33,4.39-10.69,8.74-16.1,13.03-.71.57-1.8.66-2.7,1-1.85.7-4.25.9-5.42,2.21-3.81,4.26-8.14,2.84-11.89.97-8.09-4.04-15.66-9.05-21.88-15.75-3.78-4.07-6.96-8.78-11.12-12.37-5.75-4.98-8.51-11.64-11.93-18-1.92-3.58-3.81-7.19-6.04-10.57-4.62-7-9.75-13.62-10.7-22.48-.26-2.44-2.65-4.7-4.19-6.96-3.68-5.43-4.4-11.49-3.72-17.77.14-1.25,1.35-2.52,2.33-3.51,1.03-1.03,2.59-1.55,3.57-2.6,3.97-4.28,7.72-8.76,11.72-13,2.12-2.25,4.32-4.66,6.96-6.14,7.3-4.08,13.56-10.06,22.12-11.9,10.71-2.3,21.28-3.18,31.75,1.1,9.8,4,18.47,9.48,24.95,18.08,3.24,4.3,7.37,8.04,9.95,12.68,3.23,5.8,5.68,12.13,7.7,18.47,1.67,5.23,2.24,10.82,2.9,14.23ZM200.12,421.82c.33,2.95-.15,5.55.87,6.48,2.75,2.49,2.43,5.76,3.36,8.72.64,2,1.19,4.09,2.18,5.92,3.72,6.85,10.24,11.9,12.6,19.64.13.43.71.69,1,1.09,2.12,2.9,4.15,5.87,6.35,8.72,1.56,2.03,3.11,4.17,5.06,5.78,4.05,3.33,8.33,6.39,12.59,9.45,2.79,2,5.6,4.02,8.62,5.62,3.38,1.78,7.02,3.04,10.52,4.61,2.44,1.1,4.45,1.11,6.89-.55,5.09-3.45,10.57-6.32,15.77-9.62,1.76-1.12,3.37-2.65,4.65-4.29,2.55-3.29,4.85-6.77,7.21-10.21.83-1.21,1.75-2.44,2.25-3.8,2.11-5.78,4.13-11.59,6.07-17.43,2.92-8.76,2.5-17.81-.16-26.27-2.87-9.12-6.1-18.28-12.66-25.88-8.65-10.01-17.66-18.94-31.55-21.19-6.5-1.05-12.74-3.07-19.19.41-2.2,1.18-5.05,1.11-7.56,1.74-6.79,1.71-13.2,3.75-17.62,10.06-2.84,4.06-6.49,7.55-9.52,11.6-4.71,6.29-5.76,13.4-7.72,19.42Z" style="fill: #efbf73; stroke-width: 0px;"/>
  <path d="M185.43,389.62c-2.14-1.25-4.13-2.94-6.43-3.66-4.38-1.36-7.61-3.74-9.77-7.83-2.43-4.61-5.46-8.92-7.6-13.65-1.38-3.06-1.91-6.59-2.34-9.98-1.09-8.4,1.35-16.32,3.93-24.16.1-.32.81-.44,1.24-.66-.5,4.55-1.41,9.1-1.4,13.65.02,7.42,3.6,13.28,10.38,16.16,7.24,3.08,14.73,4.72,22.97,2.56,5.88-1.54,11.43-3.6,17.11-5.57,7.97-2.76,16.65-3.53,25.04-5.06,10.06-1.84,19.78.62,29.24,3.31,5.13,1.46,10.11,4.49,14.32,7.85,7.76,6.19,14.92,13.12,22.29,19.79.81.73,1.45,1.71,1.98,2.68,4.43,8.02,9.33,15.83,13.04,24.17,2.83,6.36,4.67,13.3,5.97,20.16,1.22,6.41,2.01,13.15,1.41,19.6-.69,7.36.54,15.2-3.66,22.05-.54.87-.41,2.15-.59,3.25-.92.81-1.85,1.62-3.19,2.79q.36-9.2-3.55-9.53c.53-4.65,1.33-9.28,1.51-13.94.23-6.22.14-12.46-.12-18.68-.35-8.65-2.59-16.87-6.63-24.53-2.3-4.36-4.79-8.62-7.42-12.79-2.56-4.06-5.22-8.08-8.15-11.88-5.33-6.92-12.58-11.68-20.11-15.61-8.86-4.62-18.67-6.67-28.72-6.64-3.3.01-6.61.91-9.88,1.57-8.69,1.74-16.78,5.15-24.39,9.56-6.16,3.56-11.95,7.75-18.07,11.4-2.59,1.55-5.59,2.43-8.4,3.61Z" style="fill: #f1be5b; stroke-width: 0px;"/>
  <path d="M67.11,537.17c-.21,0-.4-.04-.58-.14,0,0,.31-.1.31-.1l.26.24Z" style="fill: #a4bbec; stroke-width: 0px;"/>
  <path d="M253.62,301.96c.26,3.76-1.73,4.53-5.19,5.56-12.89,3.84-25.33,1.01-37.86-1.36-1.22-.23-2.28-1.28-3.41-1.96.57-.51,1.09-1.37,1.72-1.47,5.17-.83,10.35-1.52,15.53-2.25-.84.55-1.76,1.01-2.48,1.67-.74.68-1.29,1.56-1.92,2.36.8.39,1.58,1.08,2.4,1.14,5.2.35,10.42.82,15.62.69,2.72-.07,5.41-1.26,8.11-1.95-.03-.64-.07-1.29-.1-1.93-2.17-.42-4.33-1.04-6.52-1.22-4.53-.38-9.08-.52-13.62-.76,5.98-.14,11.96-.51,17.93-.32,3.28.11,6.52,1.17,9.78,1.8Z" style="fill: #f0be6a; stroke-width: 0px;"/>
  <path d="M225.91,300.48c4.54.24,9.09.39,13.62.76,2.19.18,4.35.8,6.52,1.22.03.64.07,1.29.1,1.93-2.7.68-5.39,1.88-8.11,1.95-5.2.12-10.42-.35-15.62-.69-.82-.05-1.6-.74-2.4-1.14.63-.79,1.18-1.68,1.92-2.36.73-.67,1.65-1.12,2.48-1.67.5,0,.99,0,1.49,0Z" style="fill: #f2c77d; stroke-width: 0px;"/>
  <path d="M227.4,95.16c3.91-.95,7.87-1.74,11.72-2.9,7.31-2.2,14.12-6.14,22.06-6.11,7.16.03,14.33-.26,21.47.11,4.14.21,8.2,1.58,12.33,2.17,3.17.45,6.39.5,9.59.73,1,4.7,2.7,9.37,2.85,14.09.3,9.44-4.58,16.42-11.28,22.95-7.6,7.41-17.01,9.44-26.56,10.58-5.3.63-10.95-1.49-16.41-2.51-7.17-1.34-12.79-4.99-16.81-11.22-1.45-2.24-3.81-3.88-5.49-6.01-2.08-2.64-3.89-5.49-2.75-9.18.17-.56.21-1.37-.07-1.84-2.09-3.54-1.17-7.21-.65-10.88ZM268.73,118.61c2.64-.71,6.3-1.34,9.68-2.68,5.79-2.29,11.35-4.71,12.01-12.46.56-6.55-2.85-12.96-9.58-14.23-4.99-.94-10.22-.67-15.35-.8-2.65-.07-5.67-.59-7.88.46-3.38,1.6-6.49,4.1-9.11,6.8-1.13,1.17-1.37,3.92-.97,5.72.95,4.23,3.85,7.34,6.58,10.72,3.75,4.65,8.27,5.89,14.62,6.46Z" style="fill: #f2c77d; stroke-width: 0px;"/>
  <path d="M200.12,421.82c1.96-6.02,3-13.13,7.72-19.42,3.03-4.05,6.68-7.54,9.52-11.6,4.42-6.31,10.83-8.35,17.62-10.06,2.52-.63,5.37-.56,7.56-1.74,6.45-3.48,12.69-1.46,19.19-.41,13.89,2.25,22.91,11.17,31.55,21.19,6.56,7.6,9.79,16.75,12.66,25.88,2.66,8.46,3.08,17.51.16,26.27-1.95,5.84-3.97,11.65-6.07,17.43-.5,1.36-1.41,2.59-2.25,3.8-2.36,3.44-4.66,6.92-7.21,10.21-1.28,1.65-2.89,3.18-4.65,4.29-5.2,3.3-10.68,6.17-15.77,9.62-2.44,1.66-4.46,1.65-6.89.55-3.49-1.57-7.14-2.83-10.52-4.61-3.02-1.59-5.83-3.62-8.62-5.62-4.27-3.06-8.54-6.12-12.59-9.45-1.95-1.61-3.5-3.75-5.06-5.78-2.19-2.84-4.23-5.81-6.35-8.72-.29-.4-.87-.67-1-1.09-2.36-7.74-8.89-12.79-12.6-19.64-.99-1.83-1.54-3.91-2.18-5.92-.94-2.95-.61-6.23-3.36-8.72-1.03-.93-.54-3.53-.87-6.48ZM294.83,437.36c.48-6.83-1.67-14.25-5.18-21.36-.93-1.88-1.51-4.16-2.95-5.51-5-4.7-9.26-10.09-15.87-13.19-7.74-3.63-14.86-6.23-23.47-2.61-8.68,3.65-16.96,7.45-21.93,15.98-.79,1.36-1.34,2.92-1.74,4.46-.83,3.23-1.49,6.51-2.22,9.76-.24,1.09-.84,2.21-.72,3.24,1.32,11.06,5.86,20.87,11.93,30.05.2.31.5.55.78.8,5.22,4.72,10.32,9.58,15.7,14.11,3.13,2.64,6.62,4.95,11.16,4.18,4.14-.7,8.27-1.54,12.44-2,7.57-.84,11.91-6.27,15.25-11.88,4.45-7.48,6.97-15.9,6.8-26.04Z" style="fill: #f2c77d; stroke-width: 0px;"/>
  <path d="M268.73,118.61c-6.35-.57-10.87-1.81-14.62-6.46-2.73-3.38-5.63-6.49-6.58-10.72-.4-1.8-.17-4.55.97-5.72,2.62-2.7,5.73-5.19,9.11-6.8,2.21-1.05,5.23-.53,7.88-.46,5.13.13,10.36-.14,15.35.8,6.73,1.26,10.14,7.67,9.58,14.23-.66,7.74-6.23,10.17-12.01,12.46-3.38,1.34-7.04,1.97-9.68,2.68Z" style="fill: #f2c887; stroke-width: 0px;"/>
  <path d="M294.83,437.36c.16,10.14-2.36,18.56-6.8,26.04-3.34,5.61-7.68,11.05-15.25,11.88-4.17.46-8.3,1.3-12.44,2-4.53.77-8.03-1.54-11.16-4.18-5.38-4.53-10.48-9.39-15.7-14.11-.28-.25-.58-.5-.78-.8-6.07-9.19-10.61-19-11.93-30.05-.12-1.04.47-2.16.72-3.24.73-3.26,1.39-6.53,2.22-9.76.4-1.54.94-3.09,1.74-4.46,4.96-8.53,13.24-12.33,21.93-15.98,8.6-3.61,15.73-1.01,23.47,2.61,6.62,3.1,10.87,8.5,15.87,13.19,1.44,1.35,2.02,3.63,2.95,5.51,3.51,7.1,5.66,14.52,5.18,21.36Z" style="fill: #f2c887; stroke-width: 0px;"/>
</svg>