<?xml version="1.0" encoding="UTF-8"?>
<svg id="Layer_1" data-name="Layer 1" xmlns="http://www.w3.org/2000/svg" viewBox="0 0 598.05 464.97">
  <path d="M0,167.2c.22,1.52.43,3.04.65,4.56,3.53,6.02,7.06,12.04,10.59,18.05,2.11,4.01,5.59,6.02,9.96,5.84,7.8-.31,15.59-1.02,23.38-1.56,2.48-.13,4.95-.29,7.43-.37,4.26-.12,8.52-.18,12.78-.27,0,.76,0,1.52,0,2.27-.18.21-.17.4.03.59.04,1.07.08,2.15.12,3.22-.1,1.23-.28,2.47-.28,3.7-.03,48.93-.06,97.86-.05,146.79,0,10.73.14,21.45.21,32.18l-.02,7.49c-.1,7.56-.2,15.12-.29,22.68-9.88.81-19.78,1.49-29.64,2.46-7.02.69-14.1,1.32-20.95,2.88-2.72.62-4.93,3.64-7.22,5.74-.26.24.48,1.58.75,2.41-.03.15-.03.3,0,.45-3.68,7.84-2.16,16.02-1.56,24.14,1.45,6.1,3.94,8.52,11.54,8.77,18.59.61,37.18,1.12,55.77,1.39,95.98,1.4,191.96,2.73,287.94,4.03,31.32.42,62.64.89,93.9-2.15,25.58-2.49,51.23-4.24,76.83-6.5,16.65-1.46,33.28-3.13,49.89-4.93,7.14-.77,9.84-3.87,10.76-11.09.49-9.17,1.25-18.37-2.56-27.14-2.25-1.26-4.38-3.19-6.78-3.62-3.94-.72-8.06-.47-12.1-.63-12.43-.36-24.86-.73-37.3-1.09-.06-1.49-.17-2.99-.17-4.48,0-47.16.01-94.33,0-141.49,0-14.72-.11-29.43-.17-44.15.02-6.5.04-13.01.07-19.51-1.34-4.61-.27-6.18,4.28-6.61,13.13-1.23,26.26-2.53,39.39-3.76,4.25-.4,7.57-2.22,9.75-5.97,3-4.67,6.38-9.14,8.85-14.07,1.49-2.97,1.57-6.65,2.29-10.01-.45-1.24-.57-2.82-1.42-3.66-2.82-2.77-5.75-5.47-8.91-7.85-15.14-11.42-30.31-22.79-45.57-34.05-20.77-15.33-41.64-30.54-62.46-45.8-.12-2.53-.23-5.06-.36-7.59.02-1.99.05-3.97.07-5.96.15-.57.31-1.14.46-1.7,2.37-2.36,5.06-3.74,8.56-3.61,1.33.05,2.69-.84,4.04-1.3.68-1.48,1.84-2.93,1.95-4.45.27-3.8.1-7.63.04-11.45-.05-3.77-2.09-5.51-5.79-5.45-1.1-.12-2.2-.34-3.31-.35-21.66-.31-43.32-.59-64.98-.88-.25-.41-.4-.95-.75-1.2-9.39-6.57-18.78-13.14-28.25-19.6-1.03-.7-2.57-.67-3.87-.98-1.03-.5-2.04-1.4-3.08-1.42-6.33-.11-12.69-.3-19,.07-15.53.92-31.05,2-46.55,3.24-15.99,1.28-31.96,2.8-47.93,4.25-14.49,1.31-28.98,2.6-43.45,4.07-3.88.39-7.69,1.42-11.53,2.16-1.03.15-2.05.31-3.08.46-1.49.54-2.98,1.08-4.46,1.61-1.11.46-2.32.76-3.32,1.4-4.31,2.74-8.64,5.48-12.82,8.4-34.2,23.92-68.44,47.79-102.53,71.87-27.47,19.41-54.78,39.06-82.07,58.73-2.61,1.88-4.56,4.67-6.81,7.04-.25.75-.51,1.49-.76,2.24-.04.5-.08,1-.11,1.51Z" style="fill: #fefefe; stroke-width: 0px;"/>
  <path d="M64.81,382.22c-.07-10.73-.21-21.45-.21-32.18,0-48.93.02-97.86.05-146.79,0-1.23.18-2.47.28-3.7.17,1.16.34,2.31.5,3.47.2,2.05.39,4.11.59,6.16.02,5.94.03,11.87.05,17.81.53.03,1.07.06,1.6.08.2-.85.66-1.73.57-2.54-.83-7.51,1.18-14.59,3.6-21.49.82-2.33,2.78-4.5,4.72-6.15,2.63-2.23,5.94-3.65,8.61-5.84,7.1-5.83,14-11.9,20.98-17.87,2.64-2.26,5.19-4.63,7.95-6.74,5.2-4,10.63-7.7,15.75-11.8,11.52-9.22,22.87-18.66,34.37-27.89,5.71-4.58,11.35-9.33,17.5-13.25,8.14-5.2,16.75-9.68,25.15-14.47,1.51.75,2.97,2.02,4.53,2.14,5.99.48,12.2-.23,17.98,1.05,7.53,1.67,15.19,3.95,21.95,7.55,7.11,3.78,13.31,9.31,19.73,14.31,7.03,5.47,13.88,11.17,20.75,16.85,1.41,1.16,2.45,2.77,3.84,3.96,5.26,4.53,10.48,9.12,15.92,13.42,4.92,3.89,10.11,7.44,15.18,11.13,1.92,1.3,4,2.41,5.73,3.92,5.03,4.42,9.73,9.22,14.91,13.45,6.13,5,12.39,9.93,19.04,14.19,5.6,3.58,11.77,6.32,17.85,9.06,1.36.61,4.01.37,5.02-.59,4.8-4.51,5.36-4.62,9.37.43.25,2.24.5,4.49.75,6.73-.26,0-.51.01-.77.02-2.59-3.87-5.2-4.56-7.86-.07-.04.07-.23.05-.35.07-.8.33-1.65.57-2.38,1.01-1.42.84-2.89,2.7-4.14,2.54-4.63-.59-9.4-1.26-13.7-2.97-6.27-2.49-12.28-5.7-18.19-8.98-8.5-4.71-16.97-9.51-24.1-16.26-1.24-1.17-3.04-2.17-3.56-3.61-1.94-5.44-6.9-7.65-10.87-10.94-2.54-2.1-5.13-4.14-7.61-6.31-1.38-1.21-2.59-2.62-3.88-3.95-.41-.57-.69-1.35-1.24-1.68-4.31-2.54-8.14-5.45-10.84-9.88-1.36-2.22-3.67-3.95-5.78-5.61-3.73-2.94-8.02-5.02-11.15-8.94-1.98-2.48-5.99-3.28-8.18-5.67-5.84-6.37-13.31-10.35-20.43-14.8-8.12-5.07-17.47-6.98-26.78-6.31-9.34.67-17.87,4.84-25.66,10.15-9.46,6.45-18.9,12.93-28.33,19.42-.81.55-1.55,1.23-2.23,1.94-3.3,3.43-6.34,7.15-9.91,10.27-6.25,5.48-12.87,10.52-19.19,15.92-1.65,1.41-2.6,3.6-4.13,5.19-4.09,4.26-8.27,8.44-12.51,12.54-2.64,2.55-5.53,4.85-8.22,7.36-2.41,2.25-4.54,4.81-7.08,6.9-3.49,2.87-6.98,5.97-10.97,7.96-3.56,1.78-7.82,2.16-11.75,3.2-3.61.95-5.29,3.51-5.62,7.07-.31,3.33-.23,6.73-.85,10-1.67,8.76-1.52,17.52-.65,26.31.44,4.43,1.11,8.85,1.52,13.28.4,4.26.58,8.53.91,12.79.06.84.22,1.72.58,2.47,1.84,3.87,5.26,2.27,8.18,2.19,2.63-.07,2.09-2.22,2.37-3.88.12-.68.77-1.27,1.34-2.15.73,1.52,1.23,2.58,1.44,3.02,2.78,0,5.01-.05,7.23.01,4.32.11,8.68.5,11.72-3.62.31-.42,1.29-.58,1.92-.5,5.79.67,11.23,1.08,16.31-3.31,4.62-3.99,7.23-9.3,11.04-13.78,3.18-3.74,6.01-8.05,9.91-10.83,3.65-2.6,6.74-5.3,9.13-9.05,2.96-4.66,5.47-9.65,11.07-12.16,3.69-1.65,6.85-4.43,10.34-6.55,1.6-.97,3.42-1.57,5.13-2.34-.02.49-.03.98-.05,1.47,0,0,0,0,0,0-.74.5-1.47,1.01-2.21,1.51,0,0-.03.02-.03.02-.25.24-.49.48-.74.72,0,0-.02.02-.02.02-.25.24-.49.49-.74.73,0,0-.01.01-.01.01-.25.24-.5.48-.74.73h-.01c-.25.26-.49.5-.74.75,0,0-.02,0-.02,0-1.75,1.75-3.51,3.5-5.26,5.25-.23,0-.46.02-.69.02-1.79,1.18-3.98,2.02-5.31,3.59-9.74,11.51-16.08,24.88-19.3,39.45-2.96,13.37-4.34,27.08-7,40.52-.98,4.94.74,11.73-6.69,13.75-.19.05-.4.37-.43.58-.55,4.63-4.39,5.15-7.76,6.39-1.6.59-3.05,1.56-4.67,2.41,1.14,1.54,1.81,2.44,2.48,3.33-5.82-.27-11.21,4.18-15.63,1.17-3.03,1.39-5.38,2.59-7.82,3.56-1.36.54-2.87.72-4.32,1.04-5.36,1.15-10.8,3.76-15.95-.43-1.35-1.1-3.04-2.55-3.3-4.06-.88-5.09-.94-10.31-1.79-15.41-.47-2.83-1.9-5.5-2.9-8.24-.48-3.88-.96-7.76-1.45-11.64-.52.05-1.04.1-1.56.16,0,1.3,0,2.59,0,3.89,0,20.97.02,41.93-.06,62.9,0,1.3-.75,2.59-1.16,3.89ZM67.89,302.49h-.74v2.88h.74v-2.88ZM67.51,298.2c.28-.4.59-.64.6-.9,0-.29-.25-.58-.4-.88-.27.28-.64.52-.78.86-.07.16.3.5.58.91Z" style="fill: #e7a349; stroke-width: 0px;"/>
  <path d="M212.88,14.4c1.03-.15,2.05-.31,3.08-.46,3.22.89,6.43,1.77,9.65,2.66,5.12,3.07,10.26,6.12,15.34,9.25,1.35.83,2.57,1.9,3.79,2.92.93.77,1.69,1.78,2.68,2.45,7.58,5.15,15.23,10.18,22.77,15.39,1.97,1.37,3.88,1.73,5.21-.18,1.27-1.83,2.76-4.33,2.44-6.26-.65-3.94-.85-7.37,2.55-9.89-4.68-6.32-3.81-10.32,2.48-13.49.44-.22.92-.43,1.28-.76,5.26-4.73,11.8-5.94,18.47-6.99,2.85-.45,5.6-1.46,8.4-2.21,13.48-1.24,26.96-2.49,40.44-3.73-.71.5-1.36,1.33-2.13,1.46-6.33,1.08-12.67,2.08-19.03,3-3.17.46-6.26.76-6.18,5.14.01.64-.65,1.32-1.08,1.92-2.45,3.47-1.98,5.12,1.09,7.86,2.92,2.6,5.43,5.68,8,8.65,2.82,3.26,5.34,6.79,8.3,9.9,3.16,3.32,6.68,6.3,10.06,9.41,1.64,1.51,3.2,3.14,4.99,4.45,6.79,4.98,13.55,10.03,20.55,14.7,3,2,6.58,3.15,9.89,4.68.5,0,1,0,1.5.01,1.76,1.53,3.52,3.05,5.28,4.58.48.52.95,1.03,1.43,1.55,1.24,1,2.48,2.01,3.72,3.01,6.52,4.91,13.03,9.83,19.55,14.74,6.97,5.08,13.94,10.15,20.91,15.23,4.28,3.19,8.55,6.38,12.83,9.58.99.74,1.99,1.48,2.98,2.22-1.05,1.06-2.04,2.16-3.15,3.15-1.31,1.18-3.76,2.06-2.04,4.31,4.15,5.43,5.53,12.76,11.74,16.81,1.59,1.04,2.61,3.77,4.12,3.96,5.43.69,7.25,5.07,10.54,8.78-3.05,1.51-5.66,3.37-8.54,4.11-6.69,1.72-13.54,2.75-20.27,4.33-6.08,1.42-12.49,1.88-17.91,5.49,2.62-4.09,2.05-7.84-1.42-10.42-13.31-9.88-26.56-19.84-39.88-29.71-5.64-4.18-11.41-8.19-17.11-12.28-1-.74-1.99-1.48-2.99-2.22l-.02-.02c-.74-.49-1.49-.99-2.23-1.48-.99-.52-1.99-1.04-2.98-1.55-1-.98-2-1.97-3-2.95l-.02-.02c-1-.74-1.99-1.48-2.99-2.22l-.02-.02c-.74-.5-1.48-.99-2.22-1.49-.25-.01-.49-.03-.74-.04-.59-.9-.99-2.05-1.8-2.65-10.35-7.64-20.73-15.24-31.17-22.77-6.2-4.47-12.52-8.78-18.78-13.17-7.98-5.6-15.96-11.22-23.94-16.83-2.75-1.99-5.5-3.99-8.24-5.98-1.5-1-3-2.01-4.49-3.01-2.25-1.5-4.49-2.99-6.74-4.49-.25-.25-.51-.5-.76-.75-.5-.5-1-.99-1.49-1.49h0c-3.31-2.53-5.72-6.48-10.48-6.75-.5-.25-1-.51-1.5-.76-.75-.5-1.5-.99-2.25-1.49-.25-.25-.51-.5-.76-.75-.5-.5-1-.99-1.49-1.49h0c-.75-.5-1.5-1-2.25-1.5-.25,0-.5,0-.75-.02-1.75-1.24-3.5-2.49-5.25-3.73-2.25-1.01-4.49-2.01-6.74-3.02-2.83-.99-5.61-2.47-8.52-2.85-2.85-.37-3.82-1.11-2.72-3.83Z" style="fill: #ea4e6c; stroke-width: 0px;"/>
  <path d="M571.07,408.6c4.04.16,8.16-.09,12.1.63,2.4.44,4.53,2.37,6.78,3.62-1.97-.26-4.06-1.08-5.89-.69-8.58,1.83-17.03,4.28-25.63,5.95-12.63,2.45-25.46,3.95-38.01,6.76-10.86,2.43-21.44,6.1-32.12,9.3-1.04.31-1.96,1.07-2.89,1.68-3.18,2.12-6.13,4.73-9.55,6.31-9.14,4.2-18.69,7.22-28.69,8.72-6.66,1-13.3,2.13-19.92,3.35-.93.17-1.87,1.04-2.53,1.82-2.45,2.88-5.36,3.92-8.13,1.63-3.96-3.26-8.59-3.12-13.02-3.42-9.18-.63-18.4-.63-27.61-.86-10.33-.26-20.66-.54-30.99-.74-14.45-.29-28.9-.6-43.34-.73-13.85-.13-27.71.03-41.57-.07-3.96-.03-7.92-.57-11.88-.82-7.43-.46-14.85-1.04-22.28-1.25-5.09-.14-10.21.53-15.3.39-7.94-.22-15.85-1.02-23.79-1.24-14.38-.39-28.77-.44-43.15-.82-13.92-.37-27.83-1.01-41.75-1.45-10.33-.33-20.66-.59-30.99-.75-7.94-.12-15.9.17-23.83-.07-10.05-.3-20.1-.84-30.14-1.48-6.17-.39-6.59-.97-7.1-7.07-.08-.99.17-2.05-.07-2.99-.69-2.69-1.56-5.33-2.36-7.99-.03-.15-.03-.3,0-.45.46-2.17,1.32-1.33,2.55-.52,1.26.83,2.81,1.71,4.25,1.74,18.57.36,37.14.61,55.72.8,9.43.1,18.86-.14,28.28.09,5.05.12,10.09,1.04,15.14,1.38,3.18.22,6.38,0,9.57.04,24.09.24,48.18.51,72.26.74,5.68.06,11.36-.07,17.04.05,6.28.14,12.54.51,18.82.69,9.67.29,19.33.52,29,.76,20.41.51,40.83,1.05,61.24,1.49,25.41.55,50.82.97,76.22,1.57,4.32.1,8.61.91,12.93,1.24,2.6.2,3.26,1.52,3.29,3.93.04,3.34.26,6.72.82,10.01.45,2.7,1.88,5.12,5.12,4.92,3.16-.19,4.38-2.33,4.49-5.38.16-4.65.54-9.29.72-13.94.09-2.41,1.15-3.49,3.57-3.87,15.65-2.41,31.3-4.84,46.92-7.48,9.03-1.53,18.02-3.34,26.98-5.28,7.71-1.67,15.32-3.85,23.04-5.51,3.72-.8,7.6-.9,11.41-1.31.09-1.02.16-1.82.23-2.72.81-.04,1.46-.23,2.02-.09,9.6,2.4,19.28,1.29,28.94.66,1.05-.07,2.04-.84,3.06-1.29Z" style="fill: #65b06a; stroke-width: 0px;"/>
  <path d="M11.23,189.82c-3.53-6.02-7.06-12.04-10.59-18.05,1.31-.27,2.62-.54,3.93-.81,2.76,4.23,5.52,8.46,8.27,12.69,2.91,3.75,3.59,3.99,7.25,1.37,5.14-3.68,10.11-7.61,15.21-11.35,11.51-8.44,23.03-16.86,34.58-25.25,10.23-7.44,20.56-14.76,30.73-22.28,10.66-7.89,21.11-16.07,31.81-23.92,8.5-6.24,17.23-12.15,25.84-18.23,5.98-4.22,11.95-8.45,17.91-12.71,7.56-5.41,15.12-10.83,22.65-16.27,2.31-1.67,4.34-3.93,6.88-5.06,4.6-2.04,9.5-2.13,13.9.7,4.98,3.21,9.84,6.61,14.6,10.14,6.67,4.96,13.13,10.2,19.79,15.17,4.44,3.31,9.08,6.37,13.62,9.54.24,0,.48.01.72.02,1.75,1.5,3.49,3,5.24,4.5,1.26.99,2.52,1.97,3.79,2.96.24,0,.48,0,.72.02,3.01,2.49,6.01,4.98,9.02,7.48.49.25.98.51,1.47.76.51.5,1.01,1,1.52,1.49.24,0,.48,0,.72.02,1,.75,1.99,1.51,2.99,2.26,5.26,4.23,10.52,8.47,15.78,12.7.24,0,.48.01.72.02.76.74,1.52,1.49,2.28,2.23.24,0,.48,0,.72.02.58.9.97,2.04,1.77,2.67,8.57,6.71,17.16,13.38,25.82,19.96,3.71,2.82,7.59,5.39,11.4,8.08.24,0,.48.01.72.02,1.01.99,2.02,1.98,3.03,2.98.24,0,.48,0,.72.02,3.16,2.84,6.17,5.87,9.5,8.48,9.76,7.63,19.59,15.17,29.51,22.6,4.53,3.39,8.55,7.56,14.46,8.88,4.39.98,7.49-.32,9.45-4.75.01-.74.03-1.49.04-2.23,4.48-1.13,6.3-5.15,8.99-8.23,2.42-.51,4.83-1.12,7.27-1.5,7.95-1.23,15.91-2.31,23.85-3.56,4.52-.71,9-1.68,13.51-2.43,12.33-2.03,24.83-3.32,36.94-6.22,9.84-2.36,19.26-6.57,28.79-10.13,1.41-.53,2.45-2.03,4.1-3.48-1.76-.75-2.61-1.29-3.53-1.48-4.21-.91-7.3-3.4-10.29-6.37-1.96-1.95-4.68-3.14-7.07-4.65-.83-.53-1.97-.81-2.5-1.55-6.23-8.68-16.11-12.65-24.34-18.69-3.75-2.75-8.75-4.19-13.5-.83-.52.37-1.46.14-2.21.18,0-17.21-.01-34.43-.02-51.64,20.82,15.26,41.69,30.47,62.46,45.8,15.26,11.26,30.43,22.63,45.57,34.05,3.15,2.38,6.09,5.08,8.91,7.85.85.84.96,2.42,1.42,3.66-3.1.73-6.17,1.56-9.29,2.16-13.25,2.56-26.47,5.27-39.78,7.5-12.69,2.13-25.54,3.4-38.2,5.66-8.99,1.61-17.9,3.87-26.65,6.51-8.65,2.62-17.52,4.25-26.05,7.68-11.31,4.54-23.35,7.27-35.1,10.69-2.59.75-5.28,1.16-7.94,1.61-.69.12-1.53,0-2.16-.32-2.77-1.39-5.72-2.56-8.17-4.41-9.99-7.52-19.84-15.23-29.69-22.94-5.38-4.21-10.57-8.66-15.96-12.84-17.56-13.61-35.17-27.16-52.77-40.72-16.13-12.42-32.23-24.87-48.41-37.23-11.33-8.66-22.78-17.17-34.13-25.79-5.11-3.88-13.42-5.24-18.99.76-.66.71-1.59,1.18-2.4,1.76-12.49,9-24.99,17.98-37.47,27-16.1,11.63-32.18,23.27-48.27,34.91-12.17,8.81-24.26,17.74-36.53,26.41-19.64,13.87-39.35,27.63-59.17,41.24-1.82,1.25-4.62,1.04-6.93,1.61-.95.23-1.84.74-2.76,1.12Z" style="fill: #db2e4b; stroke-width: 0px;"/>
  <path d="M571.07,408.6c-1.02.45-2.02,1.22-3.06,1.29-9.66.63-19.34,1.74-28.94-.66-.57-.14-1.22.04-2.02.09-.08.9-.15,1.7-.23,2.72-3.81.42-7.69.51-11.41,1.31-7.72,1.65-15.32,3.84-23.04,5.51-8.95,1.94-17.95,3.75-26.98,5.28-15.61,2.64-31.27,5.07-46.92,7.48-2.43.37-3.48,1.46-3.57,3.87-.18,4.65-.55,9.29-.72,13.94-.11,3.05-1.33,5.18-4.49,5.38-3.25.2-4.67-2.22-5.12-4.92-.55-3.29-.78-6.66-.82-10.01-.03-2.41-.7-3.73-3.29-3.93-4.32-.33-8.62-1.14-12.93-1.24-25.4-.6-50.81-1.02-76.22-1.57-20.41-.44-40.83-.98-61.24-1.49-9.67-.24-19.34-.47-29-.76-6.27-.19-12.54-.56-18.82-.69-5.68-.12-11.36,0-17.04-.05-24.09-.23-48.18-.5-72.26-.74-3.19-.03-6.39.17-9.57-.04-5.06-.34-10.09-1.25-15.14-1.38-9.42-.23-18.85,0-28.28-.09-18.57-.19-37.15-.44-55.72-.8-1.44-.03-2.98-.91-4.25-1.74-1.23-.81-2.09-1.64-2.55.52-.28-.83-1.02-2.17-.75-2.41,2.29-2.1,4.5-5.11,7.22-5.74,6.85-1.57,13.93-2.19,20.95-2.88,9.87-.97,19.76-1.65,29.64-2.46.2.47.41.95.61,1.42,1.55.46,3.1.92,4.65,1.38,23.48.27,46.97.54,70.45.81,2.24.01,4.48.03,6.73.05,2.01.18,4.03.37,6.04.55l.35.07.36-.06c5.51.06,11.01.12,16.52.18.71,0,1.42,0,2.13,0,2.71-.19,5.42-.38,8.14-.57,3.79.04,7.58.09,11.37.13,7.7.12,15.4.25,23.1.36,19.01.26,38.02.51,57.04.76,2.54.26,5.07.51,7.6.77.35.42.72,1.2,1.06,1.2,5.12-.13,10.24-.36,15.36-.57,1.04-.03,2.07-.06,3.11-.09.73-.05,1.45-.1,2.18-.15.28-.09.56-.19.84-.28,0,0,.28,0,.28,0l.27-.05c1.51.12,3.01.23,4.52.35,1.77.04,3.53.07,5.3.11,24.23.32,48.46.65,72.69.97l3.73.03c3.02,0,6.04-.02,9.05-.03,1.25-.02,2.5-.04,3.75-.06,9.86-.8,19.73-1.57,29.59-2.43,6.14-.53,12.27-1.2,18.41-1.81,4.59-.32,9.19-.56,13.77-.97,6.66-.6,13.31-1.33,19.96-2.01,5.67-.34,11.35-.6,17.01-1.03,4.3-.33,8.58-.88,12.86-1.34,5.39-.3,10.8-.51,16.18-.98,1.46-.13,2.85-1.04,4.27-1.59,12.43.36,24.86.73,37.3,1.09Z" style="fill: #8fc991; stroke-width: 0px;"/>
  <path d="M11.23,189.82c.92-.38,1.8-.89,2.76-1.12,2.32-.57,5.12-.36,6.93-1.61,19.82-13.61,39.53-27.37,59.17-41.24,12.27-8.67,24.36-17.6,36.53-26.41,16.09-11.64,32.17-23.29,48.27-34.91,12.48-9.01,24.98-18,37.47-27,.81-.58,1.74-1.05,2.4-1.76,5.57-6,13.88-4.64,18.99-.76,11.36,8.62,22.8,17.13,34.13,25.79,16.17,12.36,32.28,24.81,48.41,37.23,17.6,13.56,35.21,27.11,52.77,40.72,5.4,4.18,10.59,8.63,15.96,12.84,9.85,7.71,19.7,15.41,29.69,22.94,2.44,1.84,5.4,3.02,8.17,4.41.62.31,1.47.44,2.16.32,2.66-.45,5.36-.86,7.94-1.61,11.75-3.41,23.8-6.14,35.1-10.69,8.53-3.43,17.39-5.06,26.05-7.68,8.74-2.64,17.66-4.91,26.65-6.51,12.67-2.26,25.51-3.53,38.2-5.66,13.3-2.23,26.53-4.94,39.78-7.5,3.12-.6,6.19-1.43,9.29-2.16-.71,3.36-.8,7.04-2.29,10.01-2.47,4.93-5.85,9.41-8.85,14.07-1.82.23-3.66.36-5.46.72-4.59.93-9.13,2.19-13.75,2.9-7.21,1.11-14.47,1.81-21.7,2.81-5.13.71-10.22,1.85-15.37,2.37-7.71.78-15.48.96-23.18,1.78-11.8,1.26-23.57,2.83-35.34,4.34-2.78.36-5.53.96-8.3,1.45-2.93.03-5.86.05-8.8.08-1.57.24-3.13.48-4.7.72-1.95.24-3.9.48-5.85.71-1.55.02-3.11.04-4.66.06-2.45.23-4.9.46-7.34.69-.79.01-1.58.02-2.37.04-1.7.24-3.41.47-5.11.71-2.54,0-5.08.02-7.61.03-2.45.02-4.89.04-7.34.07-3.38-2-6.82-3.89-10.11-6.02-3.72-2.42-7.31-5.05-10.95-7.6-.23-.29-.41-.65-.69-.87-12.42-9.7-24.82-19.43-37.29-29.06-4.98-3.85-10.13-7.49-15.2-11.23-.39-.48-.72-1.05-1.19-1.42-12.96-10.09-25.94-20.15-38.9-30.24-11.69-9.09-23.34-18.24-35.06-27.29-4.11-3.17-8.38-6.14-12.57-9.2-3.47-2.76-6.95-5.51-10.42-8.27-4.99-3.83-9.7-8.11-15.08-11.28-2.59-1.53-6.44-1.3-9.67-1.11-.98.06-1.73,2.72-2.73,4.08-1.24,1.69-2.75,3.19-3.93,4.92-.71,1.04-1.02,2.36-1.51,3.55-.83.73-1.62,1.54-2.51,2.19-7.89,5.82-15.85,11.55-23.7,17.43-28.46,21.32-56.89,42.68-85.31,64.05-7.62,5.73-15.15,11.57-22.72,17.36-8.31,6.88-16.63,13.74-24.89,20.68-.6.5-.7,1.61-1.03,2.44-7.79.54-15.58,1.24-23.38,1.55-4.37.18-7.85-1.84-9.96-5.84Z" style="fill: #c9202f; stroke-width: 0px;"/>
  <path d="M533.77,407.51c-1.42.55-2.81,1.46-4.27,1.59-5.38.47-10.78.67-16.18.98-.09-.36-.08-.96-.29-1.04-6.67-2.78-7.26-10.07-10.53-15.15-3.97-6.2-2.64-14.28-2.55-21.66,0-.45.21-1.08.54-1.32,3.97-2.9,2.55-6.09.78-9.49-.47-.89-.52-2.8.06-3.31,3.33-2.96,2.46-6.63,1.87-10.1-.65-3.77-.48-7.08,2.18-10.12.94-1.07,1.64-2.62,1.82-4.04.69-5.33,1.05-10.69,3.03-15.78.52-1.33.1-3.58.95-4.13,2.97-1.95,2.94-4.66,2.89-7.58-.04-2.93-.28-5.9.07-8.79.97-7.95,1.43-15.84.02-23.82-.51-2.91.09-6-2.48-8.29-.39-.35-.72-1.27-.53-1.68,1.77-3.85.68-7.49.2-11.47-.67-5.56-2.11-9.29-7.03-12.65-11.12-7.6-23.41-12.37-35.9-16.82-1.94-.69-4.14-.7-6.23-.93-7.87-.88-15.75-1.71-23.63-2.57-8.25-.89-16.5-1.77-24.74-2.69-4.06-.45-8.1-.99-12.16-1.49-.25-1.74-.51-3.48-.76-5.22,0-1,.02-2,.03-3.01,7.87,2.98,16.09,2.22,24.24,2.24,9.67.02,19.33,0,29,0,1.12,0,2.25,0,3.36.08,14.69,1.21,29.38,2.39,44.06,3.68,6.28.55,12.57,1.18,18.82,2.03,4.36.59,8.67,1.61,13,2.43.06,14.72.16,29.43.17,44.15.02,47.16,0,94.33,0,141.49,0,1.49.11,2.99.17,4.48Z" style="fill: #e18f1a; stroke-width: 0px;"/>
  <path d="M7.43,426.34c.8,2.66,1.67,5.31,2.36,7.99.24.94-.01,1.99.07,2.99.51,6.1.93,6.68,7.1,7.07,10.04.63,20.09,1.18,30.14,1.48,7.94.24,15.89-.05,23.83.07,10.33.15,20.66.42,30.99.75,13.92.44,27.83,1.08,41.75,1.45,14.38.38,28.77.43,43.15.82,7.94.22,15.85,1.01,23.79,1.24,5.09.14,10.21-.53,15.3-.39,7.43.2,14.86.79,22.28,1.25,3.96.25,7.92.79,11.88.82,13.86.1,27.71-.06,41.57.07,14.45.13,28.9.45,43.34.73,10.33.2,20.66.48,30.99.74,9.21.23,18.43.24,27.61.86,4.42.3,9.06.16,13.02,3.42,2.77,2.29,5.68,1.25,8.13-1.63.66-.78,1.6-1.65,2.53-1.82,6.62-1.22,13.26-2.35,19.92-3.35,10-1.5,19.56-4.52,28.69-8.72,3.43-1.58,6.37-4.19,9.55-6.31.93-.62,1.85-1.37,2.89-1.68,10.68-3.19,21.26-6.86,32.12-9.3,12.54-2.81,25.38-4.31,38.01-6.76,8.6-1.67,17.05-4.13,25.63-5.95,1.83-.39,3.92.43,5.89.69,3.81,8.77,3.04,17.97,2.56,27.14-.86.08-1.73.09-2.58.27-7.85,1.62-15.63,3.78-23.55,4.78-11.93,1.49-23.97,1.98-35.93,3.24-14.41,1.52-28.77,3.47-43.17,5.12-8,.92-16.04,1.54-24.05,2.42-12.93,1.41-25.85,2.91-38.78,4.35-2.46.27-4.95.74-7.38.53-1.74-.15-3.34-1.72-5.09-1.92-4.31-.5-8.67-.71-13.01-.81-13.08-.32-26.16-.53-39.23-.77-13.95-.26-27.91-.52-41.86-.74-17.07-.27-34.15-.5-51.22-.77-13.58-.22-27.16-.48-40.74-.74-12.33-.24-24.66-.52-36.99-.74-15.95-.28-31.9-.55-47.85-.75-23.81-.3-47.63-.48-71.44-.8-8.46-.11-16.92-.42-25.38-.71-12.79-.45-25.59-.96-38.38-1.45-.6-8.12-2.12-16.29,1.56-24.14Z" style="fill: #4fa756; stroke-width: 0px;"/>
  <path d="M353,111.72c.25.01.49.03.74.04.74.5,1.48.99,2.22,1.49,0,0,.02.02.02.02,1,.74,1.99,1.48,2.99,2.22,0,0,.02.02.02.02,1,.98,2,1.97,3,2.95.99.52,1.99,1.04,2.98,1.55.74.49,1.49.99,2.23,1.48,0,0,.02.02.02.02,1,.74,1.99,1.48,2.99,2.22,5.71,4.09,11.47,8.1,17.11,12.28,13.32,9.86,26.58,19.82,39.88,29.71,3.47,2.58,4.04,6.33,1.42,10.42,0,0,0,.01,0,.01-.74.26-1.48.51-2.22.77-1.5,0-2.99,0-4.49,0-2.04-2.12-3.82-4.57-6.15-6.31-15.81-11.83-31.69-23.57-47.65-35.2-8.41-6.13-17.13-11.83-25.5-18-15.68-11.56-31.16-23.4-46.82-34.98-11.98-8.86-24.07-17.56-36.19-26.21-10-7.14-20.03-14.24-30.21-21.1-8.91-6.01-18.43-8.32-28.38-2.45-9.17,5.41-18.32,10.86-27.2,16.72-8.16,5.38-15.85,11.47-23.92,17-6.95,4.77-14.17,9.13-21.2,13.79-11.73,7.77-22.47,16.91-34.47,24.35-8.69,5.39-16.87,11.6-25.26,17.47-7.12,4.98-14.23,9.97-21.28,15.04-1.98,1.42-3.63,3.3-5.66,4.63-4,2.62-8.18,4.95-12.23,7.48-2.41,1.51-4.7,3.21-7.08,4.77-4.21,2.78-8.43,5.54-12.69,8.24-.58.37-1.42.37-2.14.46-2.33.3-4.67.56-7.01.83,2.25-2.37,4.2-5.16,6.81-7.04,27.29-19.67,54.6-39.32,82.07-58.73,34.09-24.08,68.33-47.95,102.53-71.87,4.19-2.93,8.51-5.66,12.82-8.4,1-.63,2.21-.94,3.32-1.4-.51.69-1.02,1.39-1.53,2.08.25.74.32,1.93.8,2.13.85.35,1.95.1,2.94.1,1.25,0,2.5,0,3.74.01,6.24,2.25,12.47,4.51,18.71,6.76,4,2.74,8,5.48,12,8.22.5.26.99.51,1.49.77,1.25.99,2.51,1.98,3.76,2.97.5.25,1,.51,1.5.76,2.24,1.5,4.49,3,6.73,4.5.25.25.5.5.76.75.5.49,1,.99,1.5,1.48.25,0,.49.02.74.02,2.2,3.87,5.61,6.14,9.75,7.46.5.26.99.52,1.49.77.41.58.69,1.32,1.24,1.7,4.84,3.39,9.78,6.64,14.59,10.07,8.86,6.32,17.64,12.77,26.49,19.1,8.36,5.98,16.74,11.94,25.18,17.8,4.14,2.87,8.45,5.49,12.69,8.22Z" style="fill: #e37b8a; stroke-width: 0px;"/>
  <path d="M5.87,450.47c12.79.49,25.58,1,38.38,1.45,8.46.3,16.92.6,25.38.71,23.81.32,47.63.5,71.44.8,15.95.2,31.9.47,47.85.75,12.33.22,24.66.5,36.99.74,13.58.26,27.16.52,40.74.74,17.07.28,34.15.5,51.22.77,13.95.22,27.91.48,41.86.74,13.08.24,26.16.46,39.23.77,4.34.1,8.7.31,13.01.81,1.75.2,3.35,1.77,5.09,1.92,2.43.21,4.92-.26,7.38-.53,12.93-1.44,25.85-2.95,38.78-4.35,8.01-.87,16.05-1.5,24.05-2.42,14.4-1.65,28.76-3.59,43.17-5.12,11.96-1.26,24.01-1.75,35.93-3.24,7.93-.99,15.7-3.16,23.55-4.78.84-.17,1.72-.18,2.58-.27-.92,7.22-3.62,10.31-10.76,11.09-16.61,1.8-33.25,3.46-49.89,4.93-25.6,2.25-51.25,4.01-76.83,6.5-31.27,3.04-62.58,2.58-93.9,2.15-95.98-1.29-191.96-2.63-287.94-4.03-18.59-.27-37.19-.78-55.77-1.39-7.6-.25-10.09-2.67-11.54-8.77Z" style="fill: #335935; stroke-width: 0px;"/>
  <path d="M.88,163.46c2.34-.27,4.68-.53,7.01-.83.73-.09,1.56-.1,2.14-.46,4.26-2.7,8.48-5.47,12.69-8.24,2.38-1.57,4.67-3.26,7.08-4.77,4.05-2.53,8.23-4.87,12.23-7.48,2.03-1.33,3.68-3.21,5.66-4.63,7.06-5.06,14.17-10.06,21.28-15.04,8.39-5.87,16.57-12.08,25.26-17.47,12-7.43,22.74-16.57,34.47-24.35,7.03-4.66,14.25-9.02,21.2-13.79,8.07-5.53,15.76-11.61,23.92-17,8.88-5.86,18.03-11.32,27.2-16.72,9.95-5.87,19.47-3.56,28.38,2.45,10.19,6.86,20.21,13.97,30.21,21.1,12.12,8.65,24.21,17.36,36.19,26.21,15.66,11.58,31.14,23.42,46.82,34.98,8.37,6.17,17.1,11.87,25.5,18,15.96,11.63,31.84,23.38,47.65,35.2,2.32,1.74,4.11,4.19,6.15,6.31-1.06-.23-2.33-.17-3.14-.75-2.08-1.49-3.87-3.38-5.93-4.91-10.37-7.69-20.73-15.4-31.22-22.94-13.59-9.76-27.33-19.31-40.94-29.05-7.57-5.41-14.89-11.2-22.56-16.47-8.54-5.87-17.38-11.31-26.04-17.02-3.3-2.18-6.36-4.73-9.72-6.8-2.6-1.61-5.7-2.44-8.22-4.14-3.55-2.41-6.58-5.61-10.19-7.92-6.13-3.92-12.6-7.29-18.81-11.1-8.86-5.43-17.49-11.23-26.43-16.52-5.9-3.49-12.2-2.74-17.66.93-10.64,7.16-20.97,14.77-31.43,22.21-8.38,5.96-16.69,12.01-25.14,17.87-8.45,5.87-17.08,11.49-25.55,17.34-8.58,5.93-17,12.09-25.6,17.99-6.62,4.54-13.44,8.78-20.13,13.23-10.12,6.72-20.08,13.7-30.33,20.2-9.22,5.84-18.87,11-28.07,16.88-3.28,2.1-6.29,3.94-10.27,3.49-1.22-1-2.44-2-3.67-2.99-.26-.26-.52-.52-.77-.79.25-.75.51-1.49.76-2.24Z" style="fill: #e36579; stroke-width: 0px;"/>
  <path d="M385.94,74.29c-3.31-1.53-6.89-2.68-9.89-4.68-7-4.67-13.76-9.72-20.55-14.7-1.79-1.31-3.35-2.94-4.99-4.45-3.38-3.11-6.9-6.09-10.06-9.41-2.96-3.11-5.48-6.65-8.3-9.9-2.57-2.97-5.08-6.05-8-8.65-3.07-2.74-3.54-4.39-1.09-7.86.43-.61,1.09-1.29,1.08-1.92-.08-4.38,3.02-4.68,6.18-5.14,6.35-.92,12.7-1.92,19.03-3,.77-.13,1.42-.96,2.13-1.46,12.02-.51,24.03-1.03,36.05-1.54,1.3.31,2.84.28,3.87.98,9.47,6.45,18.86,13.03,28.25,19.6.36.25.51.79.75,1.2-12.45.79-24.9,1.52-37.34,2.44-2.35.18-4.73,1.07-4.55,4.29-.13,1.02-.26,2.03-.4,3.05-.11.98-.22,1.96-.33,2.94-7.31.68-12.99,4.2-16.59,10.48-.91,1.58-.89,5.09.21,6.18,4.1,4.03,8.83,7.43,13.33,11.06.5.26.99.51,1.49.77.5.49,1,.99,1.51,1.48h0c.75.5,1.5,1,2.25,1.5,1.25,1,2.49,2,3.74,3,.75,1.25,1.49,2.5,2.24,3.75Z" style="fill: #d84357; stroke-width: 0px;"/>
  <path d="M237.64,69.79c3.47,2.76,6.95,5.51,10.42,8.27-1.17.21-2.36.66-3.51.58-5.55-.37-11.09-.97-16.65-1.33-4.09-.27-8.19-.26-12.28-.48-3.87-.2-7.47,2.24-8.86,5.92-.3.8-1.24,1.47-2.03,1.94-1.82,1.08-3.84,1.84-5.58,3.02-11.41,7.71-22.84,15.38-34.11,23.29-6.78,4.76-13.36,9.83-19.89,14.94-4.29,3.36-8.29,7.1-12.51,10.55-6.91,5.65-13.91,11.18-20.86,16.79-4.24,3.43-8.42,6.94-12.67,10.36-7.34,5.9-14.74,11.71-22.05,17.64-5.97,4.85-6.57,12.28-8.69,18.93-.55,1.74-.69,3.18-2.94,2.82-.17-1.16-.34-2.32-.5-3.47-.04-1.07-.08-2.15-.12-3.22.08-.05.23-.14.22-.16-.07-.15-.16-.29-.25-.43,0-.76,0-1.52,0-2.28.89-.67,2.42-1.23,2.56-2.04,1.19-6.79,2.13-13.62,3.14-20.45,7.57-5.79,15.11-11.63,22.72-17.36,28.42-21.37,56.86-42.73,85.31-64.05,7.85-5.88,15.8-11.61,23.7-17.43.89-.66,1.67-1.46,2.51-2.19,1.09.11,2.22.05,3.25.34,9.94,2.78,19.82,2.62,29.66-.5Z" style="fill: #d56e16; stroke-width: 0px;"/>
  <path d="M533.43,217.39c-4.33-.83-8.64-1.84-13-2.43-6.25-.85-12.53-1.48-18.82-2.03-14.68-1.28-29.37-2.47-44.06-3.68-1.12-.09-2.24-.08-3.36-.08-9.67,0-19.33,0-29,0-8.15-.01-16.36.75-24.24-2.24-1.51-1-3.01-2.01-4.52-3.01-.23-.01-.45-.02-.68-.03-.33-.64-.52-1.64-1.03-1.85-4.96-2-7.84-6.26-11.34-9.93-4.18-4.38-8.86-8.3-13.37-12.35-5.25-4.71-10.63-9.28-15.83-14.04-5-4.58-9.92-9.26-14.7-14.07-1.51-1.52-2.47-3.59-3.69-5.41,5.07,3.74,10.21,7.38,15.2,11.23,12.47,9.63,24.87,19.36,37.29,29.06.28.22.46.58.69.87.78,9.8,12.32,16.94,21.07,13.62,2.45-.02,4.89-.04,7.34-.07,2.54,0,5.08-.02,7.61-.03,1.7-.24,3.41-.47,5.12-.71.79-.01,1.58-.02,2.37-.03,2.45-.23,4.9-.46,7.35-.69,1.55-.02,3.11-.04,4.66-.06,1.95-.24,3.9-.48,5.85-.71,1.75.96,3.45,1.6,4.7-.72,2.93-.03,5.86-.05,8.8-.08,3.02.13,6.04.39,9.05.35,4.78-.05,9.56-.37,14.34-.43,5.96-.09,11.93.04,17.9-.06,7.5-.12,15-.43,22.5-.53,1.96-.03,3.92.41,5.89.64-.02,6.5-.04,13.01-.07,19.51Z" style="fill: #d56e16; stroke-width: 0px;"/>
  <path d="M479.7,66.1c0,17.21.01,34.43.02,51.64-.12,1.93-.25,3.85-.39,6.03-6.1.51-11.86,1.04-17.63,1.46-2.02.15-4.06.04-6.09.05-.26-22.73-.52-45.46-.78-68.19.02-.76.04-1.52.06-2.28,1.46.2,2.93.39,4.39.61,6.69,1.02,13.38,2.06,20.07,3.09.12,2.53.23,5.06.35,7.59Z" style="fill: #ecaa27; stroke-width: 0px;"/>
  <path d="M378.49,30.08c-.18-3.22,2.2-4.12,4.55-4.29,12.44-.93,24.89-1.65,37.34-2.44,21.66.29,43.32.57,64.98.88,1.1.02,2.21.23,3.31.35-.61.33-1.21.9-1.84.95-7.55.57-15.1,1.07-22.65,1.57-1.67.11-3.29-.01-3.1,2.55.32,4.2.38,8.42.59,12.63.16,3.23-1.39,4.6-4.55,4.29-.5,0-.99-.01-1.49-.02-3-.24-6-.47-9-.71-5.61-1.08-11.22-2.18-16.83-3.25-11.52-2.19-23.11-4.05-34.53-6.65-5.74-1.31-12.44-.39-16.79-5.85ZM415.31,24.83c.03.34.06.67.09,1.01h35.7c-11.9-1.19-23.85-.92-35.79-1.01Z" style="fill: #f2c061; stroke-width: 0px;"/>
  <path d="M446.64,45.83c3,.24,6,.47,9,.71.5,0,.99.01,1.49.02,3.16.31,4.71-1.06,4.55-4.29-.21-4.21-.27-8.43-.59-12.63-.19-2.56,1.43-2.44,3.1-2.55,7.55-.5,15.1-1,22.65-1.57.63-.05,1.23-.62,1.84-.95,3.69-.05,5.73,1.68,5.79,5.45.05,3.82.23,7.65-.04,11.45-.11,1.52-1.27,2.97-1.95,4.45-2.64.04-5.3-.1-7.92.15-9,.84-17.98,2.51-26.98,2.57-14.66.1-29.32-.85-43.98-1.29-11.44-.34-22.89-.56-34.34-.83-.26-.25-.52-.49-.78-.74-.24-3.24-.47-6.48-.71-9.71.11-.98.22-1.96.32-2.94.62,1.89,1.07,3.87,1.93,5.65.69,1.42,1.68,3.45,2.89,3.74,4.77,1.16,9.66,2.18,14.55,2.44,10.27.55,20.57.56,30.85.87,3.33.1,6.65.61,9.98.64,2.78.02,5.57-.41,8.35-.64Z" style="fill: #ecaa27; stroke-width: 0px;"/>
  <path d="M387.51,1.56c-12.02.51-24.03,1.03-36.05,1.54-13.48,1.24-26.96,2.49-40.44,3.73-6.9.53-13.84.82-20.71,1.65-7.78.94-15.54,2.2-23.25,3.64-8.48,1.59-16.9,3.48-25.31,5.37-4.48,1-8.88,2.49-13.31-.2-.79-.48-1.88-.48-2.83-.7-3.22-.89-6.43-1.77-9.65-2.66,3.84-.74,7.66-1.77,11.53-2.16,14.47-1.47,28.96-2.76,43.45-4.07,15.97-1.45,31.94-2.97,47.93-4.25,15.51-1.24,31.03-2.33,46.55-3.24,6.32-.37,12.67-.18,19-.07,1.03.02,2.05.92,3.08,1.42Z" style="fill: #e37b8a; stroke-width: 0px;"/>
  <path d="M533.5,197.88c-1.96-.23-3.93-.67-5.89-.64-7.5.1-15,.41-22.5.53-5.96.1-11.93-.03-17.9.06-4.78.07-9.56.38-14.34.43-3.02.03-6.04-.23-9.05-.35,2.76-.49,5.51-1.09,8.29-1.45,11.77-1.5,23.54-3.07,35.34-4.34,7.7-.83,15.47-1.01,23.18-1.78,5.15-.52,10.23-1.66,15.37-2.37,7.22-.99,14.49-1.7,21.7-2.81,4.62-.71,9.16-1.97,13.75-2.9,1.8-.36,3.64-.49,5.46-.72-2.17,3.75-5.5,5.57-9.75,5.97-13.13,1.24-26.26,2.54-39.39,3.76-4.55.43-5.62,2-4.28,6.61Z" style="fill: #903d22; stroke-width: 0px;"/>
  <path d="M69.76,415.2c-1.55-.46-3.1-.92-4.65-1.38.3-.65.86-1.29.86-1.93.07-6.72.08-13.45,0-20.17,0-.67-.77-1.33-1.18-1.99,0-2.5.02-5,.02-7.49.4-1.3,1.15-2.59,1.16-3.89.08-20.97.06-41.93.06-62.9,0-1.3,0-2.59,0-3.89.52-.05,1.04-.1,1.56-.16.48,3.88.96,7.76,1.45,11.64.25,9.79.52,19.59.72,29.38.04,1.96-.39,3.93-.29,5.88.55,10.7,1.56,21.4,1.69,32.1.09,8.26-.89,16.53-1.39,24.8Z" style="fill: #df943e; stroke-width: 0px;"/>
  <path d="M379.26,46.53c11.45.27,22.89.5,34.34.83,14.66.43,29.33,1.39,43.98,1.29,9-.06,17.98-1.73,26.98-2.57,2.62-.24,5.28-.11,7.92-.15-1.35.46-2.71,1.35-4.04,1.3-3.5-.13-6.2,1.25-8.56,3.61-3.41-2.75-6.69-.46-10.01.25-1.24,0-2.48,0-3.72.01-13.15-.01-26.3-.06-39.45.03-1.1,0-2.2.91-3.31,1.39-1.48,0-2.96,0-4.44,0-1.1-.49-2.2-1.4-3.29-1.38-6.16.1-12.33.29-18.47.81-1.04.09-1.94,1.88-2.91,2.89,0,1.49,0,2.98,0,4.48-.02.25-.03.5-.05.76-.38.03-.76.06-1.14.1-.32-2.54-.64-5.09-.97-7.63-1.23-3.28-4.09-3.38-6.97-3.85-2.02-.33-3.93-1.41-5.88-2.16Z" style="fill: #d56e16; stroke-width: 0px;"/>
  <path d="M70.49,170.99c-1.01,6.82-1.95,13.66-3.14,20.45-.14.8-1.67,1.36-2.56,2.04-4.26.09-8.52.15-12.78.27-2.48.07-4.95.24-7.43.37.33-.82.43-1.93,1.03-2.43,8.26-6.94,16.58-13.8,24.89-20.68Z" style="fill: #903d22; stroke-width: 0px;"/>
  <path d="M466.15,51.1c1.24,0,2.48,0,3.72-.01.45.47.88,1.33,1.35,1.36,2.72.14,5.46.08,8.19.09-.02,1.99-.05,3.97-.07,5.96-6.69-1.03-13.37-2.06-20.06-3.09-1.46-.22-2.93-.41-4.39-.61,0-.49,0-.99-.01-1.48,2.66-.26,5.33-.4,7.96-.82,1.15-.18,2.21-.92,3.31-1.41Z" style="fill: #e9a222; stroke-width: 0px;"/>
  <path d="M214.38,20.34c-1.25,0-2.5,0-3.74-.01-1.25-.75-2.5-1.49-3.74-2.24.51-.69,1.02-1.39,1.53-2.08,1.49-.54,2.98-1.08,4.46-1.61-1.1,2.72-.13,3.46,2.72,3.83,2.91.38,5.69,1.85,8.52,2.85-1.79-.25-3.57-.58-5.36-.72-1.45-.12-2.92-.02-4.38-.01Z" style="fill: #e55870; stroke-width: 0px;"/>
  <path d="M64.78,389.72c.41.66,1.17,1.32,1.18,1.99.09,6.72.08,13.45,0,20.17,0,.65-.56,1.29-.86,1.93-.21-.47-.41-.95-.62-1.42.1-7.56.2-15.12.29-22.68Z" style="fill: #e7a349; stroke-width: 0px;"/>
  <path d="M479.41,52.54c-2.73-.01-5.47.05-8.19-.09-.47-.02-.9-.88-1.35-1.36,3.32-.71,6.6-3,10.01-.25-.15.57-.31,1.14-.46,1.71Z" style="fill: #e18f1a; stroke-width: 0px;"/>
  <path d="M.89,166.48c1.22,1,2.44,2,3.67,2.99,0,.49.01.99.02,1.48-1.31.27-2.62.54-3.93.81-.22-1.52-.43-3.04-.65-4.56.3-.24.59-.48.89-.72Z" style="fill: #d84357; stroke-width: 0px;"/>
  <path d="M.89,166.48c-.3.24-.59.48-.89.72.04-.5.08-1,.11-1.51.26.26.52.52.77.79Z" style="fill: #e37b8a; stroke-width: 0px;"/>
  <path d="M64.78,195.75c.09.14.18.28.25.43,0,.02-.14.1-.22.16-.2-.19-.22-.38-.03-.59Z" style="fill: #e7a349; stroke-width: 0px;"/>
  <path d="M180.69,224.14c-1.72.77-3.54,1.37-5.13,2.34-3.49,2.12-6.66,4.9-10.34,6.55-5.6,2.51-8.11,7.49-11.07,12.16-2.39,3.75-5.47,6.45-9.13,9.05-3.9,2.78-6.72,7.09-9.91,10.83-3.81,4.47-6.43,9.78-11.04,13.78-5.08,4.39-10.51,3.97-16.31,3.31-.63-.07-1.6.08-1.92.5-3.05,4.11-7.41,3.73-11.72,3.62-2.22-.06-4.45-.01-7.23-.01-.21-.44-.72-1.51-1.44-3.02-.57.88-1.23,1.47-1.34,2.15-.28,1.66.26,3.81-2.37,3.88-2.91.07-6.33,1.67-8.18-2.19-.36-.75-.51-1.63-.58-2.47-.33-4.26-.51-8.54-.91-12.79-.42-4.44-1.08-8.85-1.52-13.28-.87-8.79-1.02-17.55.65-26.31.62-3.27.54-6.67.85-10,.33-3.56,2.01-6.11,5.62-7.07,3.94-1.04,8.19-1.42,11.75-3.2,3.99-1.99,7.48-5.09,10.97-7.96,2.54-2.09,4.67-4.65,7.08-6.9,2.69-2.51,5.58-4.81,8.22-7.36,4.25-4.1,8.42-8.28,12.51-12.54,1.53-1.59,2.48-3.78,4.13-5.19,6.32-5.4,12.94-10.44,19.19-15.92,3.56-3.13,6.6-6.84,9.91-10.27.68-.71,1.42-1.38,2.23-1.94,9.43-6.49,18.87-12.97,28.33-19.42,7.79-5.31,16.31-9.48,25.66-10.15,9.31-.66,18.66,1.24,26.78,6.31,7.12,4.45,14.59,8.43,20.43,14.8,2.19,2.39,6.2,3.19,8.18,5.67,3.13,3.92,7.42,5.99,11.15,8.94,2.11,1.66,4.42,3.39,5.78,5.61,2.7,4.43,6.53,7.34,10.84,9.88.55.33.84,1.11,1.24,1.68-.91.3-2.06.34-2.7.93-2.31,2.12-3.92,1.56-5.33-.98-.28-.51-.87-.85-1.17-1.13-1.6.37-2.99.97-4.38.96-2.97-.01-5.93-.34-8.9-.54-1.04-.83-2.57-1.46-3.02-2.54-1.98-4.68-5.89-6.78-10.22-8.61-1.23-.52-2.2-1.72-3.18-2.71-2.53-2.55-4.58-6.01-7.61-7.53-4.64-2.32-9.97-3.26-14.96-4.92-.81-.27-1.88-1.15-2-1.88-.85-5.05-3.59-6.23-8.58-5.98-2.37.12-4.56-1.34-6.12,1.56-.12.23-.69.35-1.03.32-3.07-.33-6.43-.05-9.14-1.23-4.28-1.86-7.68-.47-10.76,1.85-4.91,3.7-9.33,8.07-15.42,9.93-.54.17-.95.76-1.42,1.15-1.67,1.42-3.37,2.82-5.01,4.28-1.75,1.55-3.53,3.07-5.15,4.74-4.79,4.93-8.14,11.14-14.44,14.8-3.38,1.96-6.02,5.3-8.75,8.24-3.57,3.83-7.01,7.84-5.44,13.92-1.22.6-3.54,1.14-3.61,1.89-.5,5.19-5.97,7.66-6.33,13.37-.26,4.12,1.38,6.17,3.26,8.83.65.92,1.02,2.09,1.34,3.19.66,2.31.54,5.23,1.95,6.83,1.67,1.9,4.52,2.93,7.04,3.83,1.44.51,3.43.47,4.84-.12,8.02-3.39,15.88-7.15,23.91-10.51,3.18-1.33,6.62-2.15,10.02-2.8,1.65-.32,3.47.28,5.22.47-.28.44-.56.87-.83,1.31,0,0,.03-.02.03-.02-.49.04-.98.08-1.47.12-.27.19-.53.38-.8.57-1.01.51-2.03,1.03-3.04,1.54-.48.24-.96.49-1.44.73-.75.51-1.49,1.02-2.24,1.54,0,0,0,0,0,0-1.48.51-2.96,1.02-4.44,1.53Z" style="fill: #e9a94f; stroke-width: 0px;"/>
  <path d="M69.76,415.2c.5-8.27,1.49-16.54,1.39-24.8-.12-10.7-1.14-21.4-1.69-32.1-.1-1.95.33-3.92.29-5.88-.2-9.8-.47-19.59-.72-29.38,1,2.74,2.42,5.41,2.9,8.24.85,5.09.92,10.32,1.79,15.41.26,1.51,1.95,2.97,3.3,4.06,5.15,4.19,10.59,1.58,15.95.43,1.45-.31,2.96-.49,4.32-1.04,2.44-.97,4.8-2.17,7.82-3.56,4.42,3.01,9.82-1.44,15.63-1.17-.67-.9-1.34-1.8-2.48-3.33,1.62-.85,3.08-1.83,4.67-2.41,3.36-1.23,7.21-1.76,7.76-6.39.03-.21.24-.53.43-.58,7.43-2.02,5.71-8.81,6.69-13.75,2.67-13.44,4.05-27.15,7-40.52,3.22-14.57,9.57-27.94,19.3-39.45,1.33-1.57,3.52-2.41,5.31-3.59,0,.24-.02.48-.02.72-.26.5-.51,1-.77,1.5,0,0,0,0,0,0-.25.25-.49.5-.74.75h0c-.26.26-.51.51-.77.76-.23.27-.47.53-.7.8-.26.48-.51.97-.77,1.45h0c-.23.26-.46.51-.7.76l-.03.05c-.25.48-.5.96-.76,1.44l-.02.03c-.25.49-.49.98-.74,1.47h.02c-.25.25-.5.52-.75.79v-.02c-.25.75-.52,1.5-.79,2.25l.02-.04c-.26.5-.53.99-.79,1.49-.25.5-.5,1-.75,1.5-.24.51-.49,1.01-.73,1.52-.25.5-.5.99-.75,1.49-.52,1.48-1.03,2.97-1.55,4.45-.24,0-.48.02-.71.06-2.88,1.58-5.2,6.66-4.45,9.76,0,.5,0,1,0,1.49-.92,1.63-2.41,3.17-2.65,4.89-1.28,9.18-2.35,18.4-3.3,27.63-.65,6.28-.9,12.6-1.5,18.89-.66,6.9-1.55,13.77-2.26,20.66-.63,6.04-1.13,12.08-1.73,18.12-.91,9.23-1.92,18.44-2.72,27.68-.17,1.93.49,3.92.64,5.89.55,7.47,1.04,14.94,1.56,22.42-23.48-.27-46.97-.54-70.45-.81Z" style="fill: #e5a041; stroke-width: 0px;"/>
  <path d="M335.79,146.22c1.21,1.82,2.17,3.89,3.69,5.41,4.78,4.81,9.7,9.49,14.7,14.07,5.2,4.77,10.58,9.33,15.83,14.04,4.52,4.05,9.19,7.97,13.37,12.35,3.5,3.67,6.38,7.93,11.34,9.93.51.2.69,1.21,1.03,1.85-2.79-.5-5.97-.3-8.29-1.62-10.91-6.21-21.36-13.08-30.26-22.13-4.23-4.31-8.94-8.16-13.53-12.11-4.23-3.64-8.66-7.05-12.88-10.69-4.89-4.22-9.49-8.79-14.52-12.83-12.56-10.08-25.65-19.52-37.83-30.02-9.34-8.05-19.7-14.24-30.26-20.3-8.24-4.73-17.33-5.91-26.54-6.32-3.79-.17-8.1-.47-11.32,1.07-8,3.8-15.52,8.62-23.22,13.05-1.93,1.11-3.92,2.18-5.71,3.49-5.19,3.81-10.34,7.68-15.43,11.64-6.66,5.17-13.19,10.51-19.87,15.66-7.64,5.91-15.52,11.52-23.04,17.58-13.82,11.12-27.57,22.33-41.11,33.77-5.46,4.61-11.1,9.36-12.2,17.23-.26,1.83-.77,3.67-1.49,5.37-.41.96-1.46,1.66-2.21,2.47-.2-2.05-.4-4.1-.59-6.16,2.25.35,2.39-1.09,2.94-2.82,2.12-6.65,2.72-14.08,8.69-18.93,7.31-5.93,14.71-11.74,22.05-17.64,4.25-3.42,8.43-6.93,12.67-10.36,6.94-5.61,13.94-11.15,20.86-16.79,4.23-3.45,8.22-7.19,12.51-10.55,6.53-5.11,13.1-10.18,19.89-14.94,11.27-7.91,22.7-15.58,34.11-23.29,1.74-1.18,3.76-1.94,5.58-3.02.8-.47,1.73-1.14,2.03-1.94,1.39-3.67,4.99-6.12,8.86-5.92,4.09.21,8.2.21,12.28.48,5.55.37,11.09.96,16.65,1.33,1.15.08,2.34-.37,3.51-.58,4.19,3.06,8.46,6.03,12.57,9.2,11.72,9.05,23.37,18.2,35.06,27.29,12.96,10.08,25.95,20.15,38.9,30.24.48.37.8.94,1.19,1.42Z" style="fill: #d68139; stroke-width: 0px;"/>
  <path d="M66.02,209.18c.76-.82,1.81-1.51,2.21-2.47.71-1.7,1.23-3.54,1.49-5.37,1.1-7.87,6.74-12.62,12.2-17.23,13.55-11.44,27.29-22.66,41.11-33.77,7.52-6.05,15.4-11.67,23.04-17.58,6.67-5.16,13.21-10.49,19.87-15.66,5.09-3.95,10.24-7.83,15.43-11.64,1.79-1.32,3.78-2.38,5.71-3.49,7.7-4.43,15.22-9.25,23.22-13.05,3.23-1.53,7.54-1.23,11.32-1.07,9.21.41,18.3,1.59,26.54,6.32,10.56,6.06,20.92,12.26,30.26,20.3,12.18,10.5,25.28,19.94,37.83,30.02,5.03,4.04,9.63,8.61,14.52,12.83,4.23,3.64,8.65,7.05,12.88,10.69,4.59,3.94,9.29,7.8,13.53,12.11,8.89,9.05,19.35,15.93,30.26,22.13,2.32,1.32,5.5,1.12,8.29,1.62.23,0,.46.02.68.03,1.25,2,2.5,4,3.74,6-.49,0-.99,0-1.48,0-4.01-5.06-4.57-4.94-9.37-.43-1.01.95-3.66,1.2-5.02.59-6.08-2.75-12.26-5.48-17.85-9.06-6.65-4.26-12.91-9.19-19.04-14.19-5.18-4.23-9.88-9.03-14.91-13.45-1.73-1.52-3.81-2.63-5.73-3.92-.07-.36-.02-.85-.24-1.08-5.12-5.47-10.26-10.93-15.42-16.37-.25-.26-.66-.36-.94-.59-3.75-3.16-7.67-6.14-11.2-9.53-4.18-4.02-7.58-8.96-12.11-12.5-10.99-8.61-20.58-18.99-33.33-25.4-10.2-5.13-20.34-10.06-32.07-9.36-5.08.3-10.43.6-14.57,4.41-8.41,4.79-17.01,9.27-25.15,14.47-6.15,3.93-11.79,8.67-17.5,13.25-11.51,9.23-22.85,18.67-34.37,27.89-5.12,4.1-10.55,7.8-15.75,11.8-2.75,2.12-5.3,4.49-7.95,6.74-6.98,5.97-13.89,12.04-20.98,17.87-2.67,2.19-5.98,3.61-8.61,5.84-1.94,1.65-3.9,3.82-4.72,6.15-2.43,6.91-4.43,13.98-3.6,21.49.09.82-.36,1.69-.57,2.54-.53-.03-1.07-.06-1.6-.08-.02-5.94-.03-11.87-.05-17.81Z" style="fill: #df943e; stroke-width: 0px;"/>
  <path d="M279.56,166.44c2.97.2,5.93.52,8.9.54,1.39,0,2.78-.59,4.38-.96.3.28.89.62,1.17,1.13,1.4,2.53,3.01,3.09,5.33.98.65-.59,1.79-.64,2.7-.93,1.29,1.32,2.49,2.74,3.88,3.95,2.48,2.17,5.07,4.21,7.61,6.31,3.97,3.28,8.93,5.5,10.87,10.94.51,1.44,2.32,2.44,3.56,3.61,7.13,6.75,15.6,11.56,24.1,16.26,5.91,3.28,11.93,6.49,18.19,8.98,4.29,1.71,9.07,2.38,13.7,2.97,1.25.16,2.72-1.7,4.14-2.54.73-.44,1.58-.68,2.38-1.01-.5,3.49-1,6.98-1.5,10.47-5.22,2.05-10.54,2.13-16.09,1.63-4.15-.37-8.19.28-12.39-1.45-4.27-1.75-9.15-1.96-13.74-2.98-6.33-1.4-11.45-6.31-18.26-6.35-.3,0-.58-.41-.88-.6-3.01-1.99-5.98-4.07-9.08-5.92-.83-.49-2.1-.46-3.13-.35-5.5.63-6.16.21-8.28-4.99-.33-.82-1.23-1.82-2.02-1.99-3.48-.73-7.02-1.18-10.53-1.73-1.19-.84-2.34-1.77-3.58-2.52-3.91-2.37-5.49-6.24-3.5-8.75,2.54-3.21,1.82-7.66-1.71-10.01-1.92-1.28-3.69-2.48-3.3-5.26.1-.74-.65-1.58-.9-2.4-.69-2.33-1.33-4.68-1.99-7.02Z" style="fill: #eaab4b; stroke-width: 0px;"/>
  <path d="M388.95,227.14c.5-3.49,1-6.98,1.5-10.47.12-.02.31,0,.35-.07,2.66-4.49,5.27-3.8,7.86.07.26,3.24.52,6.48.78,9.72-.25,33.78-.46,67.57-.76,101.35-.16,17.31-.56,34.62-.71,51.94-.11,13.35,0,26.7,0,40.05-3.02,0-6.04.02-9.05.03.01-12.65.12-25.3,0-37.96-.12-12.5-.44-24.99-.73-37.48-.18-7.57-.56-15.14-.72-22.72-.31-14.76-.55-29.52-.74-44.28-.03-2.58.5-5.16.49-7.74-.03-8.51-.47-17.02-.22-25.51.17-5.66,1.26-11.28,1.94-16.93Z" style="fill: #f2c061; stroke-width: 0px;"/>
  <path d="M206.88,99.02c4.14-3.81,9.48-4.11,14.57-4.41,11.73-.7,21.88,4.23,32.07,9.36,12.75,6.42,22.35,16.79,33.33,25.4,4.52,3.54,7.92,8.48,12.11,12.5,3.53,3.39,7.45,6.38,11.2,9.53.28.24.7.33.94.59,5.16,5.44,10.3,10.89,15.42,16.37.22.23.16.71.24,1.08-5.07-3.7-10.26-7.24-15.18-11.13-5.44-4.3-10.66-8.89-15.92-13.42-1.39-1.2-2.43-2.8-3.84-3.96-6.87-5.67-13.72-11.38-20.75-16.85-6.42-5-12.63-10.53-19.73-14.31-6.76-3.6-14.42-5.88-21.95-7.55-5.78-1.28-11.99-.57-17.98-1.05-1.56-.12-3.02-1.4-4.53-2.14Z" style="fill: #e5a041; stroke-width: 0px;"/>
  <path d="M166.43,239.9c.23-.27.47-.53.7-.8.26-.25.51-.5.77-.75,0,0,0,0,0,0,.25-.25.49-.5.74-.75,0,0,0,0,0,0,.26-.5.51-1,.77-1.5,0-.24,0-.48.02-.72.23,0,.46-.01.69-.02,1.75-1.75,3.51-3.5,5.26-5.25,0,0,.02,0,.02,0,.25-.24.49-.49.74-.73,0,0,.01-.01.01-.01.25-.24.5-.48.74-.73,0,0,.01-.01.01-.01.25-.24.49-.49.74-.73,0,0,.02-.02.02-.02.25-.24.49-.48.74-.72,0,0,.03-.02.03-.02.74-.5,1.47-1.01,2.21-1.51,0,0,0,0,0,0,1.5-1,2.99-2,4.49-3,0,0,0,0,0,0,.75-.51,1.49-1.02,2.24-1.54.48-.24.96-.49,1.44-.73,1.01-.51,2.03-1.03,3.04-1.54.27-.19.53-.38.8-.57.49-.04.98-.08,1.47-.12,0,0-.03.02-.03.02,1.26-.51,2.52-1.01,3.78-1.52l-.03.02c.76-.26,1.52-.51,2.28-.77l-.03.02c.8-.26,1.6-.52,2.4-.78l1.4-.63c.8.21,1.6.63,2.4.61,9.36-.19,18.73-.9,28.08-.59,12.66.43,24.65,3.47,34.71,11.84,0,1.01.01,2.02.02,3.03-4.29-2.13-8.56-4.28-12.87-6.36-.98-.47-2.3-.43-3.11-1.07-5.27-4.12-11.73-3.95-17.74-4.34-7.89-.52-15.87.41-23.82.53-8.72.12-16.41,3.6-23.75,7.63-10.14,5.58-18.72,13.03-24.28,23.5-.17.32-1.05.26-1.6.37,0-.51,0-1.03-.01-1.54,0,0-.02.04-.02.04.27-.75.53-1.5.8-2.25,0,0-.01.02-.01.02.25-.27.5-.53.75-.8,0,0-.02.01-.02.01.25-.49.49-.98.74-1.47,0,0,.02-.03.02-.03.25-.48.5-.96.76-1.44,0,0,.03-.05.03-.05.23-.25.46-.5.7-.75,0,0,0-.01,0-.01.26-.48.51-.97.77-1.45Z" style="fill: #e36579; stroke-width: 0px;"/>
  <path d="M398.69,209.91c.49,0,.99,0,1.48,0,.25,0,.5.01.74.02.25,1.74.51,3.48.76,5.22,0,.75,0,1.5,0,2.24-.49.26-.98.52-1.47.77-.26-.51-.51-1.01-.77-1.52-.25-2.24-.5-4.49-.75-6.73Z" style="fill: #e5a041; stroke-width: 0px;"/>
  <path d="M399.44,216.65c.26.51.51,1.01.77,1.52.25,1.99.5,3.98.75,5.97-.01,1-.02,2-.03,3l-1.48-.74c-.26-3.24-.52-6.48-.78-9.72.26,0,.51-.01.77-.02Z" style="fill: #eaab4b; stroke-width: 0px;"/>
  <path d="M175.38,230.11c-1.75,1.75-3.51,3.5-5.26,5.25,1.75-1.75,3.51-3.5,5.26-5.25Z" style="fill: #e55870; stroke-width: 0px;"/>
  <path d="M185.13,222.61c-1.5,1-2.99,2-4.49,3,.01-.49.03-.98.05-1.47,1.48-.51,2.96-1.02,4.44-1.53Z" style="fill: #e55870; stroke-width: 0px;"/>
  <path d="M67.89,302.49v2.88h-.74v-2.88h.74Z" style="fill: #df943e; stroke-width: 0px;"/>
  <path d="M67.51,298.2c-.28-.41-.64-.75-.58-.91.14-.34.51-.58.78-.86.14.29.41.59.4.88,0,.26-.32.5-.6.9Z" style="fill: #df943e; stroke-width: 0px;"/>
  <path d="M180.64,225.62c-.74.5-1.47,1.01-2.21,1.51.74-.5,1.47-1.01,2.21-1.51Z" style="fill: #e55870; stroke-width: 0px;"/>
  <path d="M177.65,227.89c-.25.24-.49.49-.74.73.25-.24.49-.49.74-.73Z" style="fill: #e55870; stroke-width: 0px;"/>
  <path d="M178.4,227.15c-.25.24-.49.48-.74.72.25-.24.49-.48.74-.72Z" style="fill: #e55870; stroke-width: 0px;"/>
  <path d="M176.14,229.37c-.25.24-.49.49-.74.73.25-.24.49-.49.74-.73Z" style="fill: #e55870; stroke-width: 0px;"/>
  <path d="M176.9,228.63c-.25.24-.5.48-.74.73.25-.24.5-.48.74-.73Z" style="fill: #e55870; stroke-width: 0px;"/>
  <path d="M455.6,125.28c2.03,0,4.07.1,6.09-.05,5.77-.42,11.53-.95,17.63-1.46.14-2.18.27-4.1.39-6.03.75-.05,1.69.18,2.21-.18,4.75-3.36,9.75-1.92,13.5.83,8.24,6.03,18.12,10.01,24.34,18.69.53.73,1.67,1.02,2.5,1.55,2.39,1.51,5.11,2.7,7.07,4.65,2.99,2.97,6.08,5.47,10.29,6.37.92.2,1.78.73,3.53,1.48-1.66,1.45-2.7,2.95-4.1,3.48-9.54,3.57-18.95,7.77-28.79,10.13-12.11,2.9-24.61,4.19-36.94,6.22-4.51.74-8.99,1.72-13.51,2.43-7.94,1.25-15.91,2.33-23.85,3.56-2.44.38-4.85.99-7.27,1.5,0,0-.02-.02-.02-.02,0-.76-.02-1.52-.03-2.27,0,0,0,0,0-.01,5.42-3.61,11.83-4.07,17.91-5.49,6.73-1.57,13.58-2.61,20.27-4.33,2.89-.74,5.49-2.6,8.54-4.11-3.3-3.71-5.11-8.09-10.54-8.78-1.51-.19-2.53-2.92-4.12-3.96-6.2-4.04-7.59-11.38-11.74-16.81-1.72-2.26.72-3.13,2.04-4.31,1.1-.99,2.1-2.1,3.15-3.15.49.03.98.05,1.47.07Z" style="fill: #e43557; stroke-width: 0px;"/>
  <path d="M225.62,16.6c.95.22,2.04.22,2.83.7,4.43,2.69,8.83,1.2,13.31.2,8.42-1.89,16.84-3.78,25.31-5.37,7.71-1.44,15.47-2.7,23.25-3.64,6.87-.83,13.8-1.12,20.71-1.65-2.8.75-5.56,1.76-8.4,2.21-6.67,1.05-13.22,2.26-18.47,6.99-.36.33-.84.53-1.28.76-6.29,3.16-7.15,7.17-2.48,13.49-3.39,2.52-3.19,5.96-2.55,9.89.32,1.93-1.18,4.43-2.44,6.26-1.33,1.92-3.23,1.55-5.21.18-7.53-5.21-15.19-10.24-22.77-15.39-.99-.67-1.75-1.68-2.68-2.45-1.23-1.02-2.44-2.09-3.79-2.92-5.09-3.13-10.23-6.17-15.34-9.25Z" style="fill: #e55870; stroke-width: 0px;"/>
  <path d="M438.32,113.41c-6.97-5.08-13.94-10.15-20.91-15.23-.1-3.4.46-6.99-.43-10.17-2.12-7.61-4.65-15.12-.95-22.8.97-2.01,2.85-4.16,4.84-4.99,7.1-2.95,14.37-5.5,22.32-4.73,1.82.18,3.53-.47,3.47-2.89,1.49.24,2.98.48,4.47.72-1.26,1.47-2.26,3.45-3.85,4.29-3.38,1.79-7.16,2.82-10.59,4.54-1.21.61-2.44,2.22-2.68,3.55-.76,4.11-1.07,8.3-1.48,12.47-.07.69.19,1.44.38,2.14,1.41,5.16,2.86,10.32,4.25,15.49.15.56.2,1.24.04,1.79-1.43,4.82-1.72,9.47,1.58,13.77.27.35-.29,1.35-.47,2.05Z" style="fill: #ebad42; stroke-width: 0px;"/>
  <path d="M438.32,113.41c.18-.7.74-1.69.47-2.05-3.3-4.31-3.02-8.95-1.58-13.77.16-.55.11-1.23-.04-1.79-1.39-5.17-2.84-10.32-4.25-15.49-.19-.7-.45-1.44-.38-2.14.41-4.17.73-8.36,1.48-12.47.24-1.33,1.47-2.94,2.68-3.55,3.43-1.72,7.21-2.74,10.59-4.54,1.59-.85,2.58-2.83,3.85-4.29,1.24,0,2.49,0,3.73,0,0,.49,0,.99.01,1.48-.02.76-.04,1.52-.06,2.28-3.14-.44-3.73,1.26-3.72,3.98.07,20.64.04,41.28.04,61.92-4.28-3.19-8.55-6.38-12.83-9.58Z" style="fill: #edb149; stroke-width: 0px;"/>
  <path d="M446.67,52.61c.06,2.42-1.64,3.06-3.47,2.89-7.96-.77-15.23,1.78-22.32,4.73-1.99.83-3.88,2.98-4.84,4.99-3.7,7.69-1.16,15.2.95,22.8.89,3.18.33,6.77.43,10.17-6.52-4.91-13.03-9.83-19.55-14.74.21-2.59-1-3.87-3.57-3.93.19-4.72.38-9.44.58-14.17-.22-1.76-.44-3.52-.66-5.28.02-.25.03-.5.05-.76,4.64-1.25,9.23-3.18,13.94-3.61,10.3-.95,20.68-1.11,31.02-1.7,1-.06,1.95-.92,2.93-1.41,1.5,0,3.01.01,4.51.02Z" style="fill: #ecaa27; stroke-width: 0px;"/>
  <path d="M379.26,46.53c1.96.75,3.86,1.83,5.88,2.16,2.87.46,5.73.56,6.97,3.85-2.48.72-5.08,1.19-7.38,2.29-1.05.5-2.36,2.5-2.1,3.4,1.64,5.6,4.58,10.37,10.11,13.02,0,2.54-.02,5.09-.03,7.63-1.76-1.53-3.52-3.05-5.28-4.58-1.25-1.25-2.49-2.51-3.74-3.76-1.25-1-2.49-2-3.74-3-.75-.5-1.5-1-2.25-1.5,0,0,0,0,0,0-.5-.49-1-.99-1.51-1.48-.5-.26-.99-.51-1.49-.77-2.14-2.27-4.33-4.49-6.41-6.81-2.65-2.95-2.19-5.72,1.37-7.46,2.86-1.4,5.86-2.5,8.8-3.74.26.25.52.49.78.74Z" style="fill: #c9202f; stroke-width: 0px;"/>
  <path d="M451.15,122.98c0-20.64.03-41.28-.04-61.92,0-2.72.58-4.42,3.72-3.98.26,22.73.52,45.46.77,68.19-.49-.02-.98-.05-1.47-.07-.99-.74-1.99-1.48-2.98-2.22Z" style="fill: #f2c061; stroke-width: 0px;"/>
  <path d="M353,111.72c-4.24-2.73-8.55-5.35-12.69-8.22-8.45-5.86-16.82-11.82-25.18-17.8-8.85-6.33-17.63-12.78-26.49-19.1-4.81-3.43-9.75-6.68-14.59-10.07-.54-.38-.83-1.13-1.24-1.7,1.5.49,3,.99,4.5,1.48,7.98,5.61,15.95,11.22,23.94,16.83,6.26,4.39,12.58,8.7,18.78,13.17,10.44,7.52,20.82,15.13,31.17,22.77.81.6,1.21,1.76,1.8,2.65Z" style="fill: #e36579; stroke-width: 0px;"/>
  <path d="M214.38,20.34c1.46,0,2.93-.11,4.38.01,1.8.15,3.58.47,5.36.72,2.25,1.01,4.49,2.01,6.74,3.02.75.99,1.5,1.99,2.26,2.98l-.03.03-18.71-6.76Z" style="fill: #e36579; stroke-width: 0px;"/>
  <path d="M392.72,78.88c0-2.54.02-5.09.03-7.63.11-2.02.22-4.05.33-6.07.6.06,1.2.11,1.8.17-.19,4.72-.38,9.44-.58,14.16-.05.31-.1.61-.15.92-.48-.52-.95-1.03-1.43-1.55Z" style="fill: #d56e16; stroke-width: 0px;"/>
  <path d="M245.09,35.33c-4-2.74-8-5.48-12-8.22,0,0,.03-.03.03-.03,1,.25,1.99.5,2.99.75.25,0,.5.01.75.01.75.5,1.5.99,2.25,1.49,0,0,0,0,0,0,.5.5,1,.99,1.49,1.49.25.25.51.5.76.75.75.5,1.5.99,2.25,1.49.5.25,1,.51,1.5.76,0,.5,0,1,0,1.5Z" style="fill: #e36579; stroke-width: 0px;"/>
  <path d="M271.32,54.05c-4.14-1.32-7.56-3.6-9.75-7.47,1,.24,2,.48,3.01.73,1.5,1,3,2.01,4.49,3.01.75,1.24,1.5,2.48,2.25,3.73Z" style="fill: #e36579; stroke-width: 0px;"/>
  <path d="M245.09,35.33c0-.5,0-1,0-1.5,4.76.27,7.17,4.21,10.48,6.74-1.25-.25-2.49-.5-3.74-.74-.5-.25-1-.51-1.5-.76-1.25-.99-2.51-1.98-3.76-2.97-.5-.26-.99-.51-1.49-.77Z" style="fill: #e55870; stroke-width: 0px;"/>
  <path d="M271.32,54.05c-.75-1.24-1.5-2.49-2.25-3.73,2.75,1.99,5.5,3.99,8.24,5.98-1.5-.49-3-.99-4.5-1.48-.5-.26-.99-.52-1.49-.77Z" style="fill: #e55870; stroke-width: 0px;"/>
  <path d="M264.57,47.31c-1-.24-2-.48-3.01-.73-.25,0-.49-.02-.74-.02-.5-.49-1-.99-1.5-1.48-.25-.25-.5-.5-.76-.75-.24-.5-.49-1-.73-1.5,2.25,1.5,4.49,2.99,6.74,4.49Z" style="fill: #e55870; stroke-width: 0px;"/>
  <path d="M257.84,42.82c.24.5.49,1,.73,1.5-2.24-1.5-4.49-3-6.73-4.5,1.25.25,2.49.5,3.74.74,0,0,0,0,0,0,.5.5,1,.99,1.49,1.49.25.25.51.5.76.75Z" style="fill: #e36579; stroke-width: 0px;"/>
  <path d="M236.11,27.83c-1-.25-1.99-.5-2.99-.75-.75-.99-1.5-1.99-2.26-2.98,1.75,1.24,3.5,2.49,5.25,3.73Z" style="fill: #e55870; stroke-width: 0px;"/>
  <path d="M394.15,80.43c.05-.31.1-.61.15-.92,2.57.05,3.79,1.34,3.57,3.93-1.24-1-2.48-2.01-3.72-3.01Z" style="fill: #e9a222; stroke-width: 0px;"/>
  <path d="M383.7,70.55c1.25,1.25,2.49,2.51,3.74,3.76-.5,0-1,0-1.5-.01-.75-1.25-1.49-2.5-2.24-3.75Z" style="fill: #db2e4b; stroke-width: 0px;"/>
  <path d="M361.99,118.46c-1-.98-2-1.97-3-2.95,1,.98,2,1.97,3,2.95Z" style="fill: #e36579; stroke-width: 0px;"/>
  <path d="M358.97,115.49c-1-.74-1.99-1.48-2.99-2.22,1,.74,1.99,1.48,2.99,2.22Z" style="fill: #e36579; stroke-width: 0px;"/>
  <path d="M370.21,123.74c-1-.74-1.99-1.48-2.99-2.22,1,.74,1.99,1.48,2.99,2.22Z" style="fill: #e36579; stroke-width: 0px;"/>
  <path d="M355.96,113.25c-.74-.5-1.48-.99-2.22-1.49.74.5,1.48.99,2.22,1.49Z" style="fill: #e36579; stroke-width: 0px;"/>
  <path d="M239.1,29.33c-.75-.5-1.5-.99-2.25-1.49.75.5,1.5.99,2.25,1.49Z" style="fill: #e55870; stroke-width: 0px;"/>
  <path d="M243.6,33.07c-.75-.5-1.5-.99-2.25-1.49.75.5,1.5.99,2.25,1.49Z" style="fill: #e55870; stroke-width: 0px;"/>
  <path d="M367.2,121.49c-.74-.49-1.49-.99-2.23-1.48.74.49,1.49.99,2.23,1.48Z" style="fill: #e36579; stroke-width: 0px;"/>
  <path d="M257.08,42.07c-.5-.5-1-.99-1.49-1.49.5.5,1,.99,1.49,1.49Z" style="fill: #e55870; stroke-width: 0px;"/>
  <path d="M240.6,30.83c-.5-.5-1-.99-1.49-1.49.5.5,1,.99,1.49,1.49Z" style="fill: #e55870; stroke-width: 0px;"/>
  <path d="M4.57,170.96c0-.49-.01-.99-.02-1.48,3.98.45,6.99-1.39,10.27-3.49,9.19-5.88,18.85-11.03,28.07-16.88,10.26-6.5,20.21-13.48,30.33-20.2,6.69-4.44,13.51-8.69,20.13-13.23,8.6-5.9,17.02-12.06,25.6-17.99,8.47-5.85,17.1-11.47,25.55-17.34,8.45-5.86,16.76-11.91,25.14-17.87,10.45-7.43,20.79-15.05,31.43-22.21,5.46-3.67,11.76-4.43,17.66-.93,8.94,5.29,17.58,11.09,26.43,16.52,6.2,3.8,12.68,7.18,18.81,11.1,3.61,2.31,6.63,5.51,10.19,7.92,2.52,1.71,5.62,2.54,8.22,4.14,3.36,2.07,6.42,4.63,9.72,6.8,8.66,5.7,17.5,11.14,26.04,17.02,7.67,5.27,14.98,11.05,22.56,16.47,13.61,9.73,27.35,19.28,40.94,29.05,10.49,7.53,20.84,15.25,31.22,22.94,2.06,1.53,3.85,3.42,5.93,4.91.81.58,2.08.52,3.14.75,1.5,0,2.99,0,4.49,0,0,.5,0,1.01.01,1.51h0c-2.38,1.5-4.71,3.08-7.15,4.47-1.97,1.12-3.98,2.3-6.12,2.97-4.38,1.35-8.28-.27-11.82-2.76-5.74-4.04-11.47-8.11-17.1-12.31-15.48-11.57-30.88-23.25-46.37-34.8-5.34-3.98-10.88-7.69-16.33-11.52-.25,0-.5-.01-.75-.02-.99-.74-1.98-1.49-2.98-2.23-.26-.26-.51-.51-.77-.77-.5-.49-.99-.99-1.49-1.48-.25,0-.51-.01-.76-.02l-2.98-2.24c-1-.75-2-1.49-2.99-2.24-.26-.25-.51-.51-.77-.76-.75-.74-1.49-1.49-2.24-2.23-.5-.26-1.01-.51-1.51-.77-1.74-1.49-3.49-2.98-5.23-4.47-.25,0-.51-.01-.76-.02-.74-.49-1.48-.99-2.23-1.48-.26-.25-.51-.51-.77-.76-.74-.49-1.48-.99-2.23-1.48-.26-.26-.51-.51-.77-.77-.84-3.03-3.05-4.22-5.97-4.48-2.76-1.75-5.51-3.5-8.27-5.24-.24-.01-.48-.02-.72-.02-.26-.99-.53-1.98-.79-2.97-1.49-1-2.98-2-4.47-3-1.26-.5-2.51-1-3.77-1.5-.24-.01-.48-.02-.72-.02-.26-.75-.52-1.5-.78-2.24-.74-.49-1.48-.99-2.23-1.48-14.31-10.92-28.62-21.84-42.92-32.77-6.65-5.08-12.78-5.44-19.58-.75-7.45,5.15-14.79,10.45-22.1,15.8-8.92,6.52-17.73,13.2-26.65,19.73-8.71,6.38-17.55,12.59-26.23,19.01-10.76,7.95-21.38,16.11-32.14,24.06-11.18,8.25-22.46,16.37-33.71,24.54-13.65,9.92-27.25,19.92-41.02,29.67-2.05,1.45-4.92,1.76-7.41,2.59-2.76-4.23-5.52-8.46-8.27-12.69Z" style="fill: #e55870; stroke-width: 0px;"/>
  <path d="M12.85,183.65c2.49-.84,5.35-1.14,7.41-2.59,13.77-9.75,27.37-19.75,41.02-29.67,11.24-8.17,22.53-16.29,33.71-24.54,10.77-7.95,21.38-16.1,32.14-24.06,8.68-6.42,17.52-12.63,26.23-19.01,8.92-6.53,17.72-13.21,26.65-19.73,7.31-5.34,14.65-10.65,22.1-15.8,6.8-4.7,12.93-4.34,19.58.75,14.3,10.93,28.62,21.85,42.92,32.77.74.49,1.48.99,2.23,1.48.26.75.52,1.5.78,2.24-4.55-3.17-9.18-6.23-13.62-9.54-6.66-4.97-13.12-10.21-19.79-15.17-4.75-3.53-9.62-6.94-14.6-10.14-4.4-2.83-9.3-2.74-13.9-.7-2.54,1.13-4.56,3.39-6.88,5.06-7.54,5.44-15.09,10.86-22.65,16.27-5.96,4.26-11.93,8.49-17.91,12.71-8.61,6.08-17.34,11.99-25.84,18.23-10.69,7.85-21.14,16.03-31.81,23.92-10.17,7.53-20.5,14.84-30.73,22.28-11.54,8.39-23.07,16.81-34.58,25.25-5.1,3.74-10.07,7.67-15.21,11.35-3.66,2.62-4.34,2.39-7.25-1.37Z" style="fill: #d84357; stroke-width: 0px;"/>
  <path d="M321.53,124.48c5.45,3.83,10.99,7.54,16.33,11.52,15.5,11.55,30.89,23.23,46.37,34.8,5.63,4.2,11.36,8.27,17.1,12.31,3.54,2.49,7.43,4.11,11.82,2.76,2.14-.66,4.15-1.84,6.12-2.97,2.44-1.39,4.77-2.97,7.15-4.47-.58.72-1.17,1.44-1.75,2.15-1.66,2.03-3.32,4.06-4.98,6.09-.01.74-.03,1.49-.04,2.23-.74.25-1.49.5-2.23.75-1.25.5-2.5,1.01-3.75,1.51-3.96.52-7.32-.96-10.39-3.24-10.81-8.05-21.58-16.16-32.41-24.18-4.65-3.44-9.42-6.7-14.14-10.04-.24,0-.48-.02-.72-.02-1.01-.99-2.02-1.98-3.03-2.98-.24,0-.48-.02-.72-.02-.4-.75-.61-1.73-1.22-2.21-7.9-6.21-15.9-12.29-23.78-18.52-2.07-1.63-3.83-3.64-5.73-5.48Z" style="fill: #ea4e6c; stroke-width: 0px;"/>
  <path d="M356.73,153.7c4.72,3.34,9.49,6.61,14.14,10.04,10.84,8.02,21.6,16.13,32.41,24.18,3.07,2.28,6.43,3.76,10.39,3.24,1.25-.5,2.5-1.01,3.75-1.51.74-.25,1.49-.5,2.23-.75-1.96,4.43-5.06,5.72-9.45,4.75-5.91-1.32-9.93-5.49-14.46-8.88-9.92-7.42-19.75-14.97-29.51-22.6-3.34-2.61-6.34-5.64-9.5-8.48Z" style="fill: #d84357; stroke-width: 0px;"/>
  <path d="M321.53,124.48c1.9,1.84,3.67,3.85,5.73,5.48,7.89,6.23,15.88,12.32,23.78,18.52.61.48.82,1.46,1.22,2.21-3.81-2.69-7.69-5.26-11.4-8.08-8.66-6.58-17.26-13.25-25.82-19.96-.8-.62-1.19-1.77-1.77-2.67.5,0,1-.02,1.51-.02.25,0,.51.01.76.02.5.49.99.99,1.49,1.48.26.26.51.51.77.77.99.74,1.98,1.49,2.98,2.23.25,0,.5.01.75.02Z" style="fill: #d84357; stroke-width: 0px;"/>
  <path d="M308.04,114.72c.25.25.51.51.76.76.25.74.5,1.49.75,2.23-5.26-4.23-10.52-8.47-15.78-12.7,0,0,.02-.02.02-.02.5,0,1,0,1.5-.01.26.25.51.51.77.77.74.49,1.48.99,2.23,1.48.25,0,.51.01.76.02,1.74,1.49,3.49,2.98,5.23,4.47.5.26,1.01.51,1.51.77.75.74,1.49,1.49,2.24,2.23Z" style="fill: #d84357; stroke-width: 0px;"/>
  <path d="M419.69,186.68c1.66-2.03,3.32-4.06,4.98-6.09.59-.72,1.17-1.44,1.75-2.15,0,0,0,0,0,0,.75,0,1.49,0,2.24-.01,0,0,.02.02.02.02-2.69,3.08-4.51,7.11-8.99,8.23Z" style="fill: #e43557; stroke-width: 0px;"/>
  <path d="M278.07,93.01c2.76,1.75,5.51,3.5,8.27,5.25.25.74.5,1.49.75,2.23-3.01-2.49-6.01-4.98-9.02-7.48Z" style="fill: #d84357; stroke-width: 0px;"/>
  <path d="M287.09,100.49c-.25-.74-.5-1.49-.75-2.23,2.92.25,5.13,1.45,5.97,4.48-.5,0-1.01.02-1.51.03-.24,0-.48-.01-.72-.02-.51-.5-1.01-1-1.52-1.49-.49-.25-.98-.51-1.47-.76Z" style="fill: #ea4e6c; stroke-width: 0px;"/>
  <path d="M268.32,85.52c1.26.5,2.51,1,3.77,1.5.5.99,1,1.98,1.5,2.98l-.03.03c-1.75-1.5-3.49-3-5.24-4.5Z" style="fill: #d84357; stroke-width: 0px;"/>
  <path d="M276.56,90.01c.26.99.53,1.98.79,2.97-1.26-.99-2.52-1.97-3.79-2.96,0,0,.03-.03.03-.03.99,0,1.98.01,2.97.02Z" style="fill: #d84357; stroke-width: 0px;"/>
  <path d="M352.99,150.71c1.01.99,2.02,1.98,3.03,2.98-1.01-.99-2.02-1.98-3.03-2.98Z" style="fill: #d84357; stroke-width: 0px;"/>
  <path d="M309.56,117.72c-.25-.74-.5-1.49-.75-2.23,1,.75,2,1.49,2.99,2.24,0,0-.02.01-.02.01-.5,0-1,0-1.5,0-.24,0-.48-.01-.72-.02Z" style="fill: #ea4e6c; stroke-width: 0px;"/>
  <path d="M290.79,102.76c.5,0,1.01-.02,1.51-.03.26.26.51.51.77.77.24.5.49,1,.73,1.5,0,0-.02.02-.02.02-1-.75-1.99-1.51-2.99-2.26Z" style="fill: #d84357; stroke-width: 0px;"/>
  <path d="M314.78,119.96c-.5,0-1,.02-1.51.02-.24,0-.48-.01-.72-.02-.26-.74-.51-1.49-.77-2.23,0,0,.01-.01.02-.01.99.75,1.99,1.49,2.98,2.24Z" style="fill: #ea4e6c; stroke-width: 0px;"/>
  <path d="M311.78,117.74c.26.74.51,1.49.77,2.23-.76-.74-1.52-1.49-2.28-2.23.5,0,1,0,1.5,0Z" style="fill: #d84357; stroke-width: 0px;"/>
  <path d="M288.56,101.25c.51.5,1.01,1,1.52,1.49-.51-.5-1.01-1-1.52-1.49Z" style="fill: #d84357; stroke-width: 0px;"/>
  <path d="M271.98,417.46c-19.01-.25-38.02-.5-57.04-.76-7.7-.11-15.4-.24-23.1-.36.02-5.1-.02-10.2.08-15.31.05-2.58.53-5.16.52-7.73,0-2.96-.39-5.91-.5-8.88-.26-7-.32-14.01-.7-21-.52-9.7-.45-16.56,11.11-21.83,2.78-1.27,5.9-1.79,8.76-2.9,2.68-1.04,3.9-3.22,4.04-6.12.14-2.67-.07-5.01-3.17-5.86.44-5.47-1.24-9.92-6.45-12.35-4.28-1.99-10.88-.25-14.56,3.54-3.22-.32-3.6-2.68-3.54-5.16.2-8.33.13-16.68.83-24.97.65-7.67,1.71-15.73,7.45-21.36,4.51-4.42,10.01-8.15,15.67-11.01,11.5-5.81,23.59-7.38,35.94-2.17,10.57,4.46,18.53,11.6,22.35,22.58,5.35,15.38,6.09,31.24,4.76,47.39-1.03,12.57-1.3,25.22-1.59,37.85-.43,18.67-.58,37.35-.85,56.03,0,.12-.02.25-.03.37Z" style="fill: #a05e41; stroke-width: 0px;"/>
  <path d="M388.95,227.14c-.68,5.64-1.77,11.27-1.94,16.93-.26,8.49.18,17.01.22,25.51.01,2.58-.52,5.16-.49,7.74.19,14.76.43,29.52.74,44.28.16,7.57.54,15.14.72,22.72.3,12.49.61,24.99.73,37.48.12,12.65,0,25.3,0,37.96-1.24,0-2.49-.02-3.73-.03.5-6.92,1.47-13.85,1.4-20.77-.12-11.55-1-23.09-1.35-34.63-.2-6.6-.65-12.86-4.27-18.87-3.37-5.6-8.7-8.27-14.04-9.14-3.9-.64-4.6-1.65-5.09-4.77-.51-3.23-4.55-6.27-6.56-4.92-2.33,1.56-3.3.15-4.73-1.08-1.65-1.43-3.38-3.6-5.23-3.76-2.89-.25-3.69-1.41-4.4-3.86-.74-2.54-1.99-5.29-5.34-5.15-3.49.14-4.77-1.72-3.69-5.11.41-1.3.05-3.39-.81-4.42-1.21-1.45-3.11-2.48-4.9-3.26-2.11-.93-2.4-2.31-2.44-4.41-.05-3.26-.12-6.7-1.19-9.71-1.4-3.96-3.82-7.55-5.71-11.34-1.88-3.77-3.55-7.65-5.5-11.39-2.62-5.03-4.91-10.35-8.28-14.84-4.14-5.52-9.07-10.48-13.98-15.37-6.14-6.12-13.5-10.49-21.6-13.57-.31-.12-.95.64-1.43.99-3.5-1.5-6.99-2.99-10.49-4.49.48-.47,1-1.38,1.43-1.33,3.4.36,7.18.08,10.07,1.55,5.75,2.92,11.45,2.46,17.47,1.75.22-2.46.3-4.69,3.9-3.63.9.26,2.71-1.67,3.72-2.91,1.22-1.5,2.02-3.33,3.2-5.36-.18-.74-.5-2.12-.83-3.49,3.52.55,7.05,1,10.53,1.73.79.17,1.68,1.17,2.02,1.99,2.11,5.2,2.78,5.62,8.28,4.99,1.03-.12,2.31-.15,3.13.35,3.1,1.84,6.07,3.92,9.08,5.92.3.2.59.6.88.6,6.82.05,11.94,4.95,18.26,6.35,4.59,1.02,9.47,1.23,13.74,2.98,4.2,1.73,8.24,1.07,12.39,1.45,5.55.5,10.88.42,16.09-1.63Z" style="fill: #edb149; stroke-width: 0px;"/>
  <path d="M400.93,227.13c.01-1,.02-2,.03-3,4.03,1.54,7.96,3.46,12.11,4.53,5.06,1.3,9.41,3.49,13.4,6.88,1.78,1.51,4.55,1.8,6.74,2.9,1.92.96,3.98,1.98,5.42,3.5,3.72,3.92,7.19,8.09,10.66,12.23,3.15,3.76,5.4,7.79,3.44,12.97-.48,1.26-.8,2.66-.82,3.99-.08,6.92.16,13.85-.13,20.76-.11,2.58-1.37,5.1-2,7.67-.42,1.72-.95,3.49-.89,5.22.16,4.64.77,9.05-1.34,13.75-1.54,3.42-4,7.37-1.79,11.81.55,1.11-.21,2.89-.44,4.35-.21,1.34-.94,2.73-.74,3.98,1.05,6.49-1.19,12.23-3.51,18.06-2.14,5.39-4.1,10.88-5.75,16.44-2.81,9.52,1.22,18.65,2.14,27.95.1,1.05,1.55,1.9,2.12,2.98.67,1.25,1.72,2.82,1.43,3.95-.72,2.79.47,3.2,2.76,3.45,2.55.28,5.38.47,5.93,3.93-6.14.61-12.27,1.27-18.41,1.81-9.86.86-19.73,1.62-29.59,2.43-.26-1.58-.75-3.16-.75-4.75-.01-21.82-.02-43.64.11-65.46.06-11.02.39-22.05.6-33.07.24-12.68.64-25.36.68-38.05.03-8.88-.42-17.76-.68-26.64-.24-8.19-.51-16.38-.77-24.58Z" style="fill: #ecaa27; stroke-width: 0px;"/>
  <path d="M266.07,220.32c.48-.35,1.12-1.11,1.43-.99,8.1,3.08,15.46,7.45,21.6,13.57,4.91,4.89,9.84,9.85,13.98,15.37,3.37,4.49,5.66,9.81,8.28,14.84,1.95,3.74,3.62,7.61,5.5,11.39,1.89,3.79,4.31,7.38,5.71,11.34,1.06,3.01,1.13,6.45,1.19,9.71.03,2.11.33,3.49,2.44,4.41,1.79.78,3.68,1.81,4.9,3.26.86,1.02,1.22,3.12.81,4.42-1.08,3.39.2,5.26,3.69,5.11,3.34-.14,4.59,2.61,5.34,5.15.72,2.45,1.52,3.61,4.4,3.86,1.85.16,3.58,2.33,5.23,3.76,1.43,1.24,2.4,2.64,4.73,1.08,2.01-1.34,6.05,1.69,6.56,4.92.49,3.13,1.2,4.14,5.09,4.77,5.34.87,10.67,3.54,14.04,9.14,3.62,6.02,4.06,12.28,4.27,18.87.36,11.55,1.24,23.09,1.35,34.63.07,6.92-.9,13.85-1.4,20.77-24.23-.32-48.46-.65-72.69-.97.19-1.85.44-3.69.55-5.54.36-5.89,1.1-11.79.9-17.66-.5-15.02-1.45-30.03-2.17-45.04-.33-6.89-.44-13.8-.81-20.69-.67-12.52-1.31-25.04-2.26-37.54-.52-6.91-.93-13.94-2.6-20.61-3.23-12.91-9.18-24.65-18-34.75-.96-1.1-2.65-1.55-4-2.31-6.02-4.76-12.03-9.53-18.05-14.29Z" style="fill: #ebad42; stroke-width: 0px;"/>
  <path d="M401.68,217.39c0-.75,0-1.5,0-2.24,4.05.5,8.1,1.03,12.16,1.49,8.25.92,16.5,1.8,24.74,2.69,7.88.85,15.75,1.69,23.63,2.57,2.09.23,4.29.24,6.23.93,12.49,4.45,24.78,9.21,35.9,16.82,4.92,3.36,6.36,7.1,7.03,12.65.48,3.98,1.57,7.62-.2,11.47-.19.41.14,1.33.53,1.68,2.57,2.29,1.96,5.37,2.48,8.29,1.41,7.98.95,15.87-.02,23.82-.35,2.89-.12,5.86-.07,8.79.04,2.92.08,5.63-2.89,7.58-.85.55-.43,2.8-.95,4.13-1.97,5.09-2.34,10.45-3.03,15.78-.18,1.41-.89,2.96-1.82,4.04-2.66,3.04-2.83,6.35-2.18,10.12.59,3.47,1.46,7.14-1.87,10.1-.58.51-.53,2.42-.06,3.31,1.78,3.41,3.19,6.6-.78,9.49-.33.24-.54.87-.54,1.32-.09,7.37-1.42,15.46,2.55,21.66,3.26,5.09,3.86,12.38,10.53,15.15.21.09.2.68.29,1.04-4.29.46-8.57,1.01-12.86,1.34-5.66.44-11.34.7-17.01,1.03-.75-.96-1.42-2-2.26-2.86-3.36-3.4-6.87-6.64-10.14-10.12-3.84-4.09-4.62-7.36-1.96-10.6,2.15-2.61.99-4.7.49-7.25-.54-2.76-.44-5.68-.37-8.52.07-2.51.52-5.01.74-7.52.28-3.25.02-6.63.85-9.73,1.34-5.01,4.02-9.7,2.21-15.22-.3-.92.62-2.31,1.14-3.41.52-1.1,1.6-2.04,1.8-3.17,1.08-6.13,1.97-12.29,2.9-18.44.57-3.78.2-8.07,1.91-11.23,1.81-3.34,1.48-5.82.56-9.03-1.19-4.12-.63-8.27,1.01-12.31.82-2.02,1.08-4.27,1.72-6.97,4-1.07,4.1-1.38.52-5.38-2.05-2.29-2.75-4.55-.71-7.36.63-.87.55-2.56.26-3.75-.51-2.13-1.24-4.24-2.2-6.21-.99-2.04-2.31-3.94-3.56-5.84-.45-.69-1.08-1.3-1.72-1.83-4.32-3.6-8.22-8.02-13.1-10.54-5.84-3.01-12.61-4.17-18.83-6.52-12.65-4.78-25.93-6.37-39.16-8.28-1.71-.25-3.98-.14-3.88-2.95Z" style="fill: #e5981d; stroke-width: 0px;"/>
  <path d="M401.68,217.39c-.1,2.81,2.17,2.7,3.88,2.95,13.24,1.91,26.52,3.5,39.16,8.28,6.22,2.35,12.99,3.51,18.83,6.52,4.88,2.52,8.79,6.94,13.1,10.54.64.53,1.26,1.14,1.72,1.83,1.25,1.91,2.57,3.8,3.56,5.84.95,1.97,1.69,4.08,2.2,6.21.28,1.19.37,2.88-.26,3.75-2.04,2.82-1.34,5.07.71,7.36,3.58,4,3.48,4.31-.52,5.38-.65,2.71-.9,4.95-1.72,6.97-1.64,4.04-2.2,8.2-1.01,12.31.93,3.21,1.25,5.69-.56,9.03-1.71,3.16-1.33,7.44-1.91,11.23-.93,6.15-1.82,12.32-2.9,18.44-.2,1.12-1.28,2.07-1.8,3.17-.52,1.1-1.44,2.49-1.14,3.41,1.81,5.52-.88,10.21-2.21,15.22-.83,3.1-.57,6.48-.85,9.73-.22,2.51-.67,5.01-.74,7.52-.07,2.84-.18,5.76.37,8.52.5,2.55,1.66,4.64-.49,7.25-2.66,3.24-1.88,6.51,1.96,10.6,3.27,3.48,6.78,6.72,10.14,10.12.85.86,1.51,1.9,2.26,2.86-6.65.68-13.3,1.41-19.96,2.01-4.58.42-9.18.65-13.77.97-.55-3.45-3.38-3.65-5.93-3.93-2.29-.25-3.48-.66-2.76-3.45.29-1.13-.77-2.7-1.43-3.95-.57-1.08-2.02-1.93-2.12-2.98-.92-9.3-4.95-18.43-2.14-27.95,1.64-5.56,3.6-11.05,5.75-16.44,2.32-5.83,4.56-11.57,3.51-18.06-.2-1.25.53-2.64.74-3.98.23-1.46.99-3.25.44-4.35-2.22-4.45.25-8.39,1.79-11.81,2.11-4.69,1.5-9.1,1.34-13.75-.06-1.73.47-3.5.89-5.22.63-2.57,1.89-5.09,2-7.67.28-6.91.05-13.84.13-20.76.01-1.34.34-2.73.82-3.99,1.96-5.18-.3-9.21-3.44-12.97-3.47-4.15-6.94-8.32-10.66-12.23-1.44-1.52-3.5-2.54-5.42-3.5-2.19-1.1-4.96-1.39-6.74-2.9-3.99-3.38-8.34-5.57-13.4-6.88-4.15-1.07-8.08-2.99-12.11-4.53-.25-1.99-.5-3.98-.75-5.97.49-.26.98-.52,1.47-.77Z" style="fill: #e9a222; stroke-width: 0px;"/>
  <path d="M170.2,416.79c-5.51-.06-11.01-.12-16.52-.18,0-39.59,0-79.17-.03-118.76,0-1.31-.39-2.63-.59-3.94.02-2.3.04-4.59.06-6.89.43-1.01,1.17-2,1.25-3.03.2-2.73.11-5.48.13-8.22,1.07-.48,2.56-.67,3.13-1.5,1.45-2.11,2.55-4.47,3.66-6.8,1.81-3.76,2.79-8.21,5.43-11.23,5-5.73,8.58-12.5,14.95-17.34,11.22-8.51,23.37-13.3,37.39-13.23,6.64.03,13.32.05,19.89.85,4.8.58,9.65,1.97,14.11,3.86,4.26,1.81,8.35,4.35,11.99,7.24,6.79,5.38,13.25,11.17,19.73,16.93,2.42,2.16,4.5,4.71,6.73,7.08.99,3.73,1.97,7.46,2.96,11.19.02.51.03,1.01.05,1.52.23,2.99.47,5.98.7,8.97.03,1,.05,2.01.08,3.01.02,3.98.04,7.97.07,11.95.22,7.32.61,14.64.62,21.95.07,32.88.02,65.75.02,98.63-5.12.21-10.24.44-15.36.57-.34,0-.7-.78-1.06-1.2-.52-48.22-1.04-96.43-1.56-144.65-.24-1.24-.49-2.49-.73-3.73h0c-.26-.98-.52-1.97-.77-2.96v-.02c-.24-.51-.46-1.02-.69-1.54h0c-.18-1.08-.16-2.26-.58-3.25-3.7-8.71-9.19-15.99-16.9-21.63-7.79-5.7-16.7-7.99-26.04-8.71-4.46-.34-9.01.43-13.52.7-1.17,0-2.34.02-3.5.02-1.71.15-3.44.15-5.12.47-3.85.73-7.68,1.62-11.51,2.44-.51.48-1.02.96-1.54,1.44-1.26.76-2.52,1.51-3.77,2.27-.99.74-1.98,1.47-2.97,2.21l-.03.04c-1.08.48-2.47.7-3.19,1.5-2.72,3.03-5.52,6.06-7.68,9.47-1.23,1.96-1.28,4.66-1.87,7.03-.74,2.25-1.48,4.49-2.23,6.74-.24.54-.62,1.06-.7,1.63-.56,3.95-1.05,7.91-1.57,11.86-.41-1.87-.82-3.73-1.23-5.6-1.02,3.02-1.66,5.94-1.67,8.86-.05,44.65-.03,89.3-.02,133.95Z" style="fill: #d84357; stroke-width: 0px;"/>
  <path d="M278.02,273.59c.52,48.22,1.04,96.43,1.56,144.65-2.53-.26-5.07-.51-7.6-.77.01-.12.03-.25.03-.37.27-18.68.42-37.36.85-56.03.29-12.62.55-25.27,1.59-37.85,1.33-16.16.58-32.01-4.76-47.39-3.82-10.98-11.78-18.12-22.35-22.58-12.35-5.21-24.44-3.65-35.94,2.17-5.66,2.86-11.16,6.59-15.67,11.01-5.74,5.62-6.8,13.69-7.45,21.36-.7,8.29-.64,16.64-.83,24.97-.06,2.49.33,4.84,3.54,5.16-.67,1.75-1.34,3.49-2.02,5.24-1.27,4.68,1.27,9.76,5.9,11.8,5.51,2.43,13.06.64,15.8-3.8.36-.59.44-1.36.65-2.05.23-.79.45-1.59.68-2.38,3.1.85,3.3,3.19,3.17,5.86-.15,2.91-1.36,5.08-4.04,6.12-2.87,1.11-5.98,1.63-8.76,2.9-11.56,5.28-11.64,12.13-11.11,21.83.38,6.99.44,14,.7,21,.11,2.96.5,5.92.5,8.88,0,2.58-.47,5.15-.52,7.73-.1,5.1-.06,10.2-.08,15.31-3.79-.05-7.58-.09-11.37-.13.04-22.05.09-44.11.13-66.16,0-9.77.01-19.54.02-29.31.25-14.46.5-28.92.75-43.38,1.64-6.05,3.29-12.09,4.93-18.14.41-1.53.72-3.09,1.16-4.61,1.03-3.6,1.04-8.35,3.41-10.51,4.16-3.79,9.64-6.26,14.83-8.72,2.05-.97,4.81-.43,7.25-.58-4.53,2.73-9.07,5.46-13.6,8.2.19.44.39.87.58,1.31,1.14-.15,2.32-.16,3.42-.46,4.53-1.27,8.97-3.03,13.57-3.84,6.16-1.09,12.44-1.83,18.69-2.02,5.02-.16,10.08.71,15.12,1.12.82.19,1.7.26,2.46.6,6.08,2.69,10.75,7.14,14.52,12.45,2.98,4.21,5.44,8.79,8.13,13.2,0,0,0,0,0,0,.22.51.45,1.02.67,1.54,0,0,.01.02.02.02.26.99.52,1.98.77,2.97,0,0,0,0,0,0,.24,1.24.49,2.49.73,3.73Z" style="fill: #903d22; stroke-width: 0px;"/>
  <path d="M180.6,350.05c-.04,22.05-.09,44.11-.13,66.16-2.71.19-5.43.38-8.14.57.01-18.26.03-36.52.04-54.78.26-.78.74-1.56.75-2.35.05-9.17.05-18.34,0-27.51,0-.79-.47-1.58-.72-2.37.24-16.73.47-33.47.71-50.2.52-3.96,1.01-7.91,1.57-11.86.08-.56.46-1.09.7-1.63.52,1.34.89,2.76,1.58,4.01,1.38,2.48,2.93,4.85,4.41,7.27-.25,14.46-.5,28.92-.75,43.38-.99,1.95-2.77,3.89-2.81,5.86-.13,6.38.26,12.78.73,19.15.11,1.47,1.34,2.86,2.06,4.29Z" style="fill: #db2e4b; stroke-width: 0px;"/>
  <path d="M153.12,287.02c-.02,2.3-.04,4.59-.06,6.89-.03,40.9-.06,81.8-.09,122.7-2.01-.18-4.03-.37-6.04-.55-.24-6.71-.68-13.41-.67-20.12.01-7.58.46-15.16.68-22.74.52-18.53,1.06-37.06,1.49-55.59.37-16-.05-32.05,3.75-47.77,0-.5,0-1,0-1.49.75-.25,1.49-.5,2.24-.75-.18,1.76-.35,3.53-.53,5.29-.26,4.71-.51,9.43-.77,14.14Z" style="fill: #d68139; stroke-width: 0px;"/>
  <path d="M284.12,234.62c1.35.75,3.05,1.21,4,2.31,8.82,10.1,14.77,21.84,18,34.75,1.67,6.67,2.08,13.71,2.6,20.61.94,12.5,1.59,25.02,2.26,37.54.37,6.89.48,13.79.81,20.69.72,15.01,1.67,30.02,2.17,45.04.2,5.87-.55,11.77-.9,17.66-.11,1.85-.36,3.69-.55,5.54-1.77-.04-3.53-.07-5.3-.11,1.48-14.49.82-29.02.82-43.54,0-3.95.14-7.91-.03-11.86-.42-9.88-1.15-19.76-1.43-29.65-.41-14.45-.26-28.92-.91-43.35-.32-7.14-1.72-14.25-3-21.3-.37-2.06-1.98-3.9-3.03-5.84-3.58-10.36-8.25-20.14-15.53-28.49Z" style="fill: #e5a041; stroke-width: 0px;"/>
  <path d="M152.18,269.84c-3.8,15.72-3.38,31.77-3.75,47.77-.43,18.53-.98,37.06-1.49,55.59-.21,7.58-.66,15.16-.68,22.74-.01,6.71.43,13.41.67,20.12-2.24-.01-4.48-.03-6.73-.04-.51-7.47-1.01-14.95-1.56-22.42-.14-1.97-.8-3.96-.64-5.89.8-9.23,1.81-18.45,2.72-27.68.6-6.04,1.1-12.09,1.73-18.12.72-6.89,1.6-13.77,2.26-20.66.6-6.29.85-12.61,1.5-18.89.95-9.23,2.02-18.45,3.3-27.63.24-1.72,1.74-3.26,2.65-4.89Z" style="fill: #df943e; stroke-width: 0px;"/>
  <path d="M299.65,263.11c1.04,1.94,2.66,3.78,3.03,5.84,1.27,7.06,2.68,14.17,3,21.3.65,14.44.5,28.91.91,43.35.28,9.89,1.01,19.76,1.43,29.65.17,3.95.03,7.9.03,11.86,0,14.52.65,29.05-.82,43.54-1.51-.12-3.01-.24-4.52-.35-.24-45.88-.43-91.76-.8-137.63-.04-4.4-1.23-8.78-1.89-13.17-.12-1.46-.23-2.92-.35-4.38Z" style="fill: #e5981d; stroke-width: 0px;"/>
  <path d="M300,267.48c.66,4.39,1.85,8.78,1.89,13.18.38,45.88.56,91.76.8,137.63,0,0-.28.05-.28.05,0,0-.28,0-.28,0-.28.09-.56.19-.84.28-.73.05-1.45.1-2.18.15-.03-1.62-.09-3.24-.09-4.85,0-38.61,0-77.23-.04-115.84,0-1.42-.46-2.84-.7-4.26-.47-8.25-.94-16.49-1.41-24.74,1.04-.53,2.08-1.07,3.12-1.6Z" style="fill: #e43557; stroke-width: 0px;"/>
  <path d="M400.93,227.13c.26,8.19.53,16.38.77,24.58.26,8.88.71,17.76.68,26.64-.04,12.68-.44,25.36-.68,38.05-.21,11.02-.54,22.05-.6,33.07-.13,21.82-.12,43.64-.11,65.46,0,1.58.49,3.16.75,4.75-1.25.02-2.5.04-3.75.06,0-13.35-.12-26.7,0-40.05.15-17.31.55-34.62.71-51.94.31-33.78.52-67.57.76-101.35.49.25.98.5,1.48.74Z" style="fill: #edb149; stroke-width: 0px;"/>
  <path d="M298.28,293.82c.24,1.42.7,2.84.7,4.26.04,38.61.03,77.22.04,115.84,0,1.62.06,3.24.09,4.85-1.04.03-2.07.06-3.11.09,0-32.88.04-65.75-.02-98.63-.01-7.32-.41-14.64-.62-21.95,3.71.31,1.15-3.5,2.92-4.46Z" style="fill: #e36579; stroke-width: 0px;"/>
  <path d="M172.37,362.01c-.01,18.26-.02,36.52-.04,54.78-.71,0-1.42,0-2.13,0,0-44.65-.04-89.3.02-133.95,0-2.92.65-5.84,1.67-8.86.41,1.87.82,3.73,1.23,5.6-.24,16.73-.47,33.47-.71,50.2-.23.55-.67,1.09-.67,1.64-.04,9.64-.05,19.29-.01,28.93,0,.55.42,1.1.65,1.66Z" style="fill: #e36579; stroke-width: 0px;"/>
  <path d="M152.97,416.6c.03-40.9.06-81.8.09-122.7.21,1.32.59,2.63.59,3.94.03,39.59.03,79.17.03,118.76,0,0-.35.06-.35.06l-.35-.07Z" style="fill: #db2e4b; stroke-width: 0px;"/>
  <path d="M301.29,418.62c.28-.09.56-.19.84-.28-.28.09-.56.19-.84.28Z" style="fill: #e36579; stroke-width: 0px;"/>
  <path d="M237.64,69.79c-9.84,3.13-19.71,3.28-29.66.5-1.04-.29-2.17-.24-3.25-.34.49-1.19.8-2.51,1.51-3.55,1.18-1.73,2.68-3.23,3.93-4.92,1-1.36,1.75-4.02,2.73-4.08,3.23-.19,7.08-.41,9.67,1.11,5.37,3.17,10.09,7.45,15.08,11.28Z" style="fill: #903d22; stroke-width: 0px;"/>
  <path d="M410.03,200.99c-8.74,3.32-20.29-3.82-21.07-13.62,3.64,2.54,7.23,5.18,10.95,7.59,3.29,2.13,6.74,4.03,10.11,6.02Z" style="fill: #903d22; stroke-width: 0px;"/>
  <path d="M424.98,200.9c-2.54,0-5.08.02-7.61.03,2.54,0,5.08-.02,7.61-.03Z" style="fill: #903d22; stroke-width: 0px;"/>
  <path d="M444.48,199.41c-1.55.02-3.11.04-4.66.06,1.55-.02,3.11-.04,4.66-.06Z" style="fill: #903d22; stroke-width: 0px;"/>
  <path d="M455.03,197.98c-1.25,2.32-2.95,1.67-4.7.72,1.57-.24,3.13-.48,4.7-.72Z" style="fill: #903d22; stroke-width: 0px;"/>
  <path d="M432.47,200.16c-.79.01-1.58.02-2.37.03.79-.01,1.58-.02,2.37-.03Z" style="fill: #903d22; stroke-width: 0px;"/>
  <path d="M400.92,209.92c-.25-.01-.5-.02-.74-.02-1.25-2-2.5-4-3.74-6,1.51,1,3.01,2.01,4.52,3.01,0,1-.02,2-.03,3.01Z" style="fill: #d68139; stroke-width: 0px;"/>
  <path d="M206.89,18.1c1.25.75,2.5,1.49,3.74,2.24-.99,0-2.09.25-2.94-.1-.48-.2-.55-1.39-.8-2.13Z" style="fill: #e36579; stroke-width: 0px;"/>
  <path d="M246.58,36.1c1.25.99,2.51,1.98,3.76,2.97-1.25-.99-2.51-1.98-3.76-2.97Z" style="fill: #e36579; stroke-width: 0px;"/>
  <path d="M428.66,178.43c-.75,0-1.49,0-2.24.01,0-.5,0-1.01-.01-1.51.74-.26,1.48-.51,2.22-.77,0,.76.02,1.52.03,2.27Z" style="fill: #ea4e6c; stroke-width: 0px;"/>
  <path d="M259.33,45.08c.5.49,1,.99,1.5,1.48-.5-.49-1-.99-1.5-1.48Z" style="fill: #e36579; stroke-width: 0px;"/>
  <path d="M446.64,45.83c-2.78.23-5.57.66-8.35.64-3.33-.02-6.65-.53-9.98-.64-10.28-.31-20.58-.32-30.85-.87-4.89-.26-9.78-1.29-14.55-2.44-1.21-.29-2.2-2.32-2.89-3.74-.86-1.78-1.3-3.76-1.93-5.65.13-1.01.27-2.03.4-3.05,4.35,5.47,11.05,4.54,16.79,5.85,11.42,2.6,23.01,4.47,34.53,6.65,5.61,1.07,11.22,2.17,16.83,3.25Z" style="fill: #edb149; stroke-width: 0px;"/>
  <path d="M378.48,45.79c-2.94,1.23-5.95,2.33-8.8,3.74-3.56,1.74-4.02,4.51-1.37,7.46,2.08,2.32,4.27,4.54,6.41,6.81-4.5-3.63-9.23-7.03-13.33-11.06-1.1-1.09-1.12-4.6-.21-6.18,3.6-6.28,9.28-9.81,16.59-10.48.24,3.24.47,6.48.71,9.71Z" style="fill: #db2e4b; stroke-width: 0px;"/>
  <path d="M377.72,66.04c.75.5,1.5,1,2.25,1.5-.75-.5-1.5-1-2.25-1.5Z" style="fill: #db2e4b; stroke-width: 0px;"/>
  <path d="M376.21,64.56c.5.49,1,.99,1.51,1.48-.5-.49-1-.99-1.51-1.48Z" style="fill: #db2e4b; stroke-width: 0px;"/>
  <path d="M415.31,24.83c11.94.09,23.89-.18,35.79,1.01h-35.7c-.03-.34-.06-.67-.09-1.01Z" style="fill: #ebae51; stroke-width: 0px;"/>
  <path d="M457.13,46.57c-.5,0-.99-.01-1.49-.02.5,0,.99.01,1.49.02Z" style="fill: #edb149; stroke-width: 0px;"/>
  <path d="M393.07,65.18c-.11,2.02-.22,4.05-.33,6.07-5.54-2.65-8.48-7.43-10.11-13.02-.26-.9,1.05-2.9,2.1-3.4,2.3-1.1,4.9-1.57,7.38-2.29.32,2.55.65,5.09.96,7.63,0,1.67,0,3.34,0,5.01Z" style="fill: #903d22; stroke-width: 0px;"/>
  <path d="M442.16,52.59c-.97.49-1.93,1.35-2.93,1.41-10.34.6-20.72.75-31.02,1.7-4.72.44-9.3,2.36-13.94,3.61,0-1.49,0-2.98,0-4.48,1.48-.51,2.93-1.38,4.43-1.47,6.74-.4,13.49-.59,20.24-.85,1.48,0,2.96,0,4.44,0,6.26.02,12.51.05,18.77.07Z" style="fill: #e9a222; stroke-width: 0px;"/>
  <path d="M442.16,52.59c-6.26-.02-12.51-.04-18.77-.07,1.1-.49,2.2-1.39,3.31-1.39,13.15-.09,26.3-.04,39.45-.03-1.1.49-2.16,1.23-3.31,1.41-2.63.42-5.3.56-7.96.82-1.24,0-2.49,0-3.73,0-1.49-.24-2.98-.48-4.47-.72-1.5,0-3.01-.01-4.51-.02Z" style="fill: #e18f1a; stroke-width: 0px;"/>
  <path d="M418.95,52.52c-6.75.26-13.5.45-20.24.85-1.5.09-2.96.96-4.43,1.47.97-1.01,1.87-2.8,2.91-2.89,6.14-.51,12.31-.71,18.47-.81,1.09-.02,2.2.9,3.29,1.38Z" style="fill: #e18f1a; stroke-width: 0px;"/>
  <path d="M393.07,65.18c0-1.67,0-3.34,0-5.01.38-.03.76-.06,1.14-.1.22,1.76.44,3.52.66,5.28-.6-.06-1.2-.11-1.8-.17Z" style="fill: #e18f1a; stroke-width: 0px;"/>
  <path d="M294.55,202.41c.32,1.37.65,2.74.83,3.49-1.18,2.03-1.98,3.86-3.2,5.36-1.01,1.24-2.82,3.18-3.72,2.91-3.6-1.05-3.69,1.17-3.9,3.63-6.02.71-11.71,1.17-17.47-1.75-2.88-1.46-6.67-1.19-10.07-1.55-.43-.04-.95.87-1.43,1.33-.75-.25-1.5-.49-2.25-.74-.55-.7-1.09-1.39-1.64-2.09-.45.44-.9.88-1.36,1.31-11.59-3.08-23.4-2.39-35.17-1.9-3.78.16-7.52,1.34-11.27,2.05-.47.21-.93.42-1.4.63-.8.26-1.6.52-2.4.78,0,0,.03-.02.03-.02-.76.26-1.52.51-2.28.77,0,0,.03-.02.03-.02-.98.07-1.97.14-2.95.21-1.75-.18-3.57-.78-5.22-.47-3.4.65-6.84,1.47-10.02,2.8-8.03,3.36-15.89,7.12-23.91,10.51-1.4.59-3.4.63-4.84.12-2.52-.9-5.37-1.93-7.04-3.83-1.41-1.6-1.29-4.52-1.95-6.83-.32-1.11-.69-2.27-1.34-3.19-1.88-2.66-3.52-4.71-3.26-8.83.36-5.71,5.83-8.18,6.33-13.37.07-.75,2.39-1.29,3.61-1.89-1.56-6.08,1.88-10.09,5.44-13.92,2.74-2.94,5.38-6.28,8.75-8.24,6.3-3.66,9.65-9.86,14.44-14.8,1.62-1.67,3.4-3.19,5.15-4.74,1.64-1.46,3.34-2.86,5.01-4.28.47-.4.88-.99,1.42-1.15,6.09-1.86,10.51-6.23,15.42-9.93,3.07-2.32,6.47-3.71,10.76-1.85,2.71,1.18,6.07.89,9.14,1.23.34.04.91-.09,1.03-.32,1.56-2.89,3.75-1.44,6.12-1.56,4.99-.25,7.73.93,8.58,5.98.12.73,1.19,1.61,2,1.88,4.99,1.66,10.31,2.6,14.96,4.92,3.03,1.52,5.08,4.98,7.61,7.53.99.99,1.96,2.2,3.18,2.71,4.33,1.82,8.24,3.93,10.22,8.61.46,1.08,1.99,1.71,3.02,2.54.66,2.34,1.29,4.69,1.99,7.02.25.83,1,1.66.9,2.4-.39,2.78,1.38,3.99,3.3,5.26,3.53,2.35,4.25,6.8,1.71,10.01-1.99,2.51-.41,6.38,3.5,8.75,1.25.75,2.39,1.68,3.58,2.52ZM282.78,211.46c2.02,0,4.19.23,4.26-.04.44-1.88.45-3.87.59-5.82-.43-.06-.87-.11-1.3-.17-.97,1.65-1.95,3.3-3.55,6.02Z" style="fill: #ebae51; stroke-width: 0px;"/>
  <path d="M191.87,218.79c-1.01.52-2.03,1.03-3.04,1.54,1.01-.52,2.03-1.03,3.04-1.54Z" style="fill: #e55870; stroke-width: 0px;"/>
  <path d="M194.94,216.81c.98-.07,1.97-.14,2.95-.21-1.26.51-2.52,1.01-3.78,1.52.28-.44.56-.87.83-1.31Z" style="fill: #d84357; stroke-width: 0px;"/>
  <path d="M187.38,221.07c-.75.51-1.49,1.02-2.24,1.54.75-.51,1.49-1.02,2.24-1.54Z" style="fill: #e55870; stroke-width: 0px;"/>
  <path d="M194.14,218.1c-.49.04-.98.08-1.47.12.49-.04.98-.08,1.47-.12Z" style="fill: #d84357; stroke-width: 0px;"/>
  <path d="M154.42,267.59c-.75.25-1.49.5-2.24.75-.75-3.1,1.57-8.17,4.45-9.76-.74,3-1.48,6-2.22,9Z" style="fill: #df943e; stroke-width: 0px;"/>
  <path d="M154.42,267.59c.74-3,1.48-6,2.22-9,.23-.04.47-.06.71-.06,0,0,.1.09.1.09-.99,4.76-1.98,9.51-2.97,14.27-.2-.01-.39-.01-.59,0,.18-1.76.35-3.53.53-5.29Z" style="fill: #d84357; stroke-width: 0px;"/>
  <path d="M157.35,258.52c.52-1.48,1.03-2.97,1.55-4.45l.05.05c-.5,1.5-1,3-1.5,4.49l-.1-.09Z" style="fill: #d84357; stroke-width: 0px;"/>
  <path d="M162.69,245.86c-.27.75-.53,1.5-.8,2.25.27-.75.53-1.5.8-2.25Z" style="fill: #d84357; stroke-width: 0px;"/>
  <path d="M166.43,239.9c-.26.48-.51.97-.77,1.45.26-.48.51-.97.77-1.45Z" style="fill: #e55870; stroke-width: 0px;"/>
  <path d="M164.93,242.16c-.25.48-.5.96-.76,1.44.25-.48.5-.96.76-1.44Z" style="fill: #e55870; stroke-width: 0px;"/>
  <path d="M164.16,243.62c-.25.49-.49.98-.74,1.47.25-.49.49-.98.74-1.47Z" style="fill: #e55870; stroke-width: 0px;"/>
  <path d="M161.91,248.08c0,.51,0,1.03.01,1.54-.25,0-.49,0-.74,0l-.06-.05c.26-.5.53-.99.79-1.49Z" style="fill: #d84357; stroke-width: 0px;"/>
  <path d="M160.37,251.07c.25-.5.5-1,.75-1.5,0,0,.06.05.06.05-.25.5-.5,1-.75,1.5l-.07-.05Z" style="fill: #d84357; stroke-width: 0px;"/>
  <path d="M159.65,252.58c.24-.5.49-1.01.73-1.52,0,0,.06.05.06.05-.25.5-.5,1-.74,1.5l-.05-.03Z" style="fill: #d84357; stroke-width: 0px;"/>
  <path d="M158.9,254.07c.25-.5.5-.99.75-1.49,0,0,.05.03.05.03-.25.5-.5,1-.74,1.5,0,0-.05-.05-.05-.05Z" style="fill: #d84357; stroke-width: 0px;"/>
  <path d="M169.42,236.1c-.26.5-.51,1-.77,1.5.26-.5.51-1,.77-1.5Z" style="fill: #e55870; stroke-width: 0px;"/>
  <path d="M165.66,241.36c-.23.25-.46.5-.7.75.23-.25.46-.5.7-.75Z" style="fill: #e55870; stroke-width: 0px;"/>
  <path d="M163.43,245.08c-.25.27-.5.53-.75.8.25-.27.5-.53.75-.8Z" style="fill: #d84357; stroke-width: 0px;"/>
  <path d="M168.65,237.61c-.25.25-.49.5-.74.75.25-.25.49-.5.74-.75Z" style="fill: #e55870; stroke-width: 0px;"/>
  <path d="M167.9,238.36c-.26.25-.51.5-.77.75.25-.25.51-.5.77-.75Z" style="fill: #e55870; stroke-width: 0px;"/>
  <path d="M158.95,254.12c.25-.5.5-1,.74-1.5.25-.5.5-1,.74-1.5.25-.5.5-1,.75-1.5.25,0,.49,0,.74,0,.55-.12,1.43-.06,1.6-.37,5.56-10.46,14.14-17.92,24.28-23.5,7.34-4.04,15.03-7.51,23.75-7.63,7.95-.11,15.93-1.04,23.82-.53,6.01.4,12.47.22,17.74,4.34.82.64,2.13.59,3.11,1.07,4.31,2.08,8.59,4.23,12.87,6.36,2.49,2.14,5.2,4.06,7.43,6.44,6.96,7.44,12.09,16.01,14.98,25.84-2.23-2.37-4.3-4.92-6.73-7.08-6.47-5.76-12.94-11.56-19.73-16.93-3.64-2.88-7.73-5.43-11.99-7.24-4.46-1.89-9.31-3.27-14.11-3.86-6.57-.8-13.26-.82-19.89-.85-14.02-.07-26.17,4.72-37.39,13.23-6.37,4.83-9.95,11.61-14.95,17.34-2.64,3.02-3.62,7.47-5.43,11.23-1.12,2.32-2.22,4.68-3.66,6.8-.57.83-2.06,1.02-3.13,1.5,0-.96,0-1.93-.01-2.89.99-4.76,1.98-9.51,2.97-14.27.5-1.5,1-3,1.5-4.49Z" style="fill: #e55870; stroke-width: 0px;"/>
  <path d="M203.9,214.46c3.76-.71,7.49-1.89,11.27-2.05,11.77-.49,23.58-1.17,35.17,1.91,1,.26,1.99.52,2.99.78.75.25,1.5.49,2.25.74,3.5,1.5,6.99,2.99,10.49,4.49,6.01,4.76,12.03,9.53,18.05,14.29,7.28,8.35,11.95,18.12,15.53,28.49.11,1.46.23,2.92.35,4.38-1.04.53-2.08,1.07-3.12,1.6-2.81-7.35-4.97-15.04-8.61-21.95-4.45-8.48-11.2-15.33-19.18-20.8-10.06-8.37-22.06-11.41-34.71-11.84-9.34-.32-18.72.39-28.08.59-.79.02-1.6-.4-2.4-.61Z" style="fill: #d84357; stroke-width: 0px;"/>
  <path d="M269.09,226.33c7.98,5.47,14.73,12.32,19.18,20.8,3.63,6.92,5.79,14.61,8.61,21.95.47,8.25.94,16.49,1.41,24.74-1.78.96.79,4.76-2.92,4.46-.02-3.98-.04-7.97-.07-11.95-.03-1-.05-2.01-.08-3.01-.23-2.99-.47-5.98-.7-8.97-.02-.51-.03-1.01-.05-1.52-.99-3.73-1.97-7.46-2.96-11.19-2.89-9.83-8.02-18.39-14.98-25.84-2.23-2.38-4.94-4.31-7.43-6.44,0-1.01-.01-2.02-.02-3.03Z" style="fill: #e37b8a; stroke-width: 0px;"/>
  <path d="M197.86,216.62c.76-.26,1.52-.51,2.28-.77-.76.26-1.52.51-2.28.77Z" style="fill: #d84357; stroke-width: 0px;"/>
  <path d="M200.11,215.87c.8-.26,1.6-.52,2.4-.78-.8.26-1.6.52-2.4.78Z" style="fill: #d84357; stroke-width: 0px;"/>
  <path d="M304.29,111.72c-1.74-1.49-3.49-2.98-5.23-4.47,1.74,1.49,3.49,2.98,5.23,4.47Z" style="fill: #ea4e6c; stroke-width: 0px;"/>
  <path d="M276.56,90.01c-.99,0-1.98-.01-2.97-.02-.5-.99-1-1.98-1.5-2.98,1.49,1,2.98,2,4.47,3Z" style="fill: #ea4e6c; stroke-width: 0px;"/>
  <path d="M320.78,124.46c-.99-.74-1.98-1.49-2.98-2.23.99.74,1.98,1.49,2.98,2.23Z" style="fill: #ea4e6c; stroke-width: 0px;"/>
  <path d="M308.04,114.72c-.75-.74-1.49-1.49-2.24-2.23.75.74,1.49,1.49,2.24,2.23Z" style="fill: #ea4e6c; stroke-width: 0px;"/>
  <path d="M298.3,107.23c-.74-.49-1.49-.99-2.23-1.48.74.49,1.49.99,2.23,1.48Z" style="fill: #ea4e6c; stroke-width: 0px;"/>
  <path d="M266.83,83.25c-.74-.49-1.48-.99-2.23-1.48.74.49,1.48.99,2.23,1.48Z" style="fill: #ea4e6c; stroke-width: 0px;"/>
  <path d="M293.81,105c-.24-.5-.49-1-.73-1.5.74.49,1.48.99,2.23,1.48-.5,0-1,0-1.5.01Z" style="fill: #ea4e6c; stroke-width: 0px;"/>
  <path d="M317.03,121.46c-.5-.49-.99-.99-1.49-1.48.5.49.99.99,1.49,1.48Z" style="fill: #ea4e6c; stroke-width: 0px;"/>
  <path d="M417.43,189.66c-1.25.5-2.5,1.01-3.75,1.51,1.25-.5,2.5-1.01,3.75-1.51Z" style="fill: #e43557; stroke-width: 0px;"/>
  <path d="M211.99,326.71c-.23.79-.45,1.59-.68,2.38-1.62.76-3.28,1.46-4.86,2.29-5.31,2.82-11.31,3.86-15.1-1.83-1.23-1.85-1.62-4.26-2.39-6.41.67-1.75,1.34-3.49,2.02-5.24,3.68-3.79,10.28-5.53,14.56-3.54,5.21,2.43,6.89,6.88,6.45,12.35Z" style="fill: #fefefe; stroke-width: 0px;"/>
  <path d="M181.37,277.36c-1.48-2.42-3.03-4.8-4.41-7.27-.69-1.24-1.07-2.66-1.58-4.01.74-2.25,1.48-4.49,2.23-6.74,4.25-6,8.49-12,12.74-18,0,0,.03-.04.03-.04.99-.74,1.98-1.47,2.97-2.21,1.26-.76,2.52-1.51,3.77-2.27.51-.48,1.02-.96,1.54-1.44,3.84-.82,7.66-1.71,11.51-2.44,1.67-.32,3.41-.32,5.12-.47-.04.71-.08,1.42-.12,2.13-.74.07-1.48.13-2.22.2-2.44.15-5.2-.39-7.25.58-5.19,2.46-10.67,4.93-14.83,8.72-2.36,2.16-2.37,6.91-3.41,10.51-.44,1.52-.74,3.08-1.16,4.61-1.63,6.05-3.28,12.09-4.93,18.14Z" style="fill: #c9202f; stroke-width: 0px;"/>
  <path d="M275.83,265.34c-2.69-4.41-5.15-8.99-8.13-13.2-3.77-5.31-8.44-9.76-14.52-12.45-.76-.34-1.64-.4-2.46-.6-4.4-1.49-8.79-2.97-13.19-4.46-.95-.06-1.91-.12-2.86-.17-.5-.03-1-.06-1.5-.09-.53-.1-1.05-.21-1.58-.31-3.98,0-7.96.02-11.93.03-.29-.55-.57-1.09-.86-1.64,4.51-.27,9.06-1.04,13.52-.7,9.34.71,18.25,3.01,26.04,8.71,7.7,5.64,13.2,12.92,16.9,21.63.42.99.4,2.16.58,3.25Z" style="fill: #c9202f; stroke-width: 0px;"/>
  <path d="M190.34,241.34c-4.25,6-8.49,12-12.74,18,.58-2.37.63-5.07,1.87-7.03,2.16-3.42,4.96-6.45,7.68-9.47.72-.81,2.11-1.02,3.19-1.5Z" style="fill: #db2e4b; stroke-width: 0px;"/>
  <path d="M154.48,272.88c0,.96,0,1.93.01,2.89-.02,2.74.07,5.49-.13,8.21-.07,1.04-.81,2.02-1.25,3.03.26-4.71.51-9.43.77-14.14.2-.01.39-.01.59,0Z" style="fill: #db2e4b; stroke-width: 0px;"/>
  <path d="M218.79,232.45c.29.55.57,1.09.86,1.63-1.49.17-2.99.34-4.48.51.04-.71.08-1.42.12-2.13,1.17,0,2.34-.01,3.5-.02Z" style="fill: #903d22; stroke-width: 0px;"/>
  <path d="M193.35,239.09c-.99.74-1.98,1.48-2.97,2.21.99-.74,1.98-1.48,2.97-2.21Z" style="fill: #db2e4b; stroke-width: 0px;"/>
  <path d="M295.22,283.31c.03,1,.05,2.01.08,3.01-.03-1-.05-2.01-.08-3.01Z" style="fill: #e36579; stroke-width: 0px;"/>
  <path d="M278.02,273.59c-.24-1.24-.49-2.49-.73-3.73.24,1.24.49,2.49.73,3.73Z" style="fill: #c9202f; stroke-width: 0px;"/>
  <path d="M294.47,272.83c.02.51.03,1.01.05,1.52-.02-.51-.03-1.01-.05-1.52Z" style="fill: #e36579; stroke-width: 0px;"/>
  <path d="M277.29,269.86c-.26-.99-.51-1.98-.77-2.97.26.99.51,1.98.77,2.97Z" style="fill: #c9202f; stroke-width: 0px;"/>
  <path d="M198.66,235.38c-.51.48-1.02.96-1.54,1.44.51-.48,1.02-.96,1.54-1.44Z" style="fill: #db2e4b; stroke-width: 0px;"/>
  <path d="M276.5,266.87c-.22-.51-.45-1.02-.67-1.54.22.51.45,1.02.67,1.54Z" style="fill: #c9202f; stroke-width: 0px;"/>
  <path d="M215.17,234.6c1.49-.17,2.99-.34,4.48-.51,3.98,0,7.96-.02,11.93-.03.53.1,1.05.21,1.58.31.5.03,1,.06,1.5.09.95.06,1.91.12,2.87.17,4.4,1.49,8.79,2.97,13.19,4.46-5.04-.41-10.09-1.28-15.12-1.12-6.25.2-12.53.94-18.69,2.02-4.61.81-9.04,2.58-13.57,3.84-1.1.31-2.28.32-3.42.46-.19-.44-.39-.87-.58-1.31,4.53-2.73,9.07-5.46,13.6-8.2.74-.07,1.48-.13,2.22-.2Z" style="fill: #335935; stroke-width: 0px;"/>
  <path d="M180.6,350.05c-.72-1.43-1.95-2.82-2.06-4.29-.47-6.37-.86-12.77-.73-19.15.04-1.97,1.83-3.91,2.81-5.86,0,9.77-.01,19.54-.02,29.31Z" style="fill: #c9202f; stroke-width: 0px;"/>
  <path d="M188.97,323.14c.77,2.15,1.16,4.56,2.39,6.41,3.79,5.69,9.79,4.65,15.1,1.83,1.58-.84,3.23-1.53,4.86-2.29-.21.69-.28,1.46-.65,2.05-2.73,4.44-10.29,6.23-15.8,3.8-4.63-2.04-7.16-7.12-5.9-11.8Z" style="fill: #8fc991; stroke-width: 0px;"/>
  <path d="M172.37,362.01c-.23-.55-.65-1.1-.65-1.66-.04-9.64-.03-19.29.01-28.93,0-.55.44-1.09.67-1.64.25.79.71,1.58.72,2.37.05,9.17.05,18.34,0,27.51,0,.78-.49,1.57-.75,2.35Z" style="fill: #d84357; stroke-width: 0px;"/>
  <path d="M282.78,211.46c1.6-2.72,2.58-4.37,3.55-6.02.43.06.87.11,1.3.17-.15,1.95-.15,3.93-.59,5.82-.06.26-2.23.04-4.26.04Z" style="fill: #edb149; stroke-width: 0px;"/>
  <path d="M253.34,215.1c-1-.26-1.99-.52-2.99-.78.45-.44.9-.88,1.36-1.31.55.7,1.09,1.39,1.64,2.09Z" style="fill: #edb149; stroke-width: 0px;"/>
  <path d="M233.16,234.37c-.53-.1-1.06-.21-1.58-.31.53.1,1.06.21,1.58.31Z" style="fill: #903d22; stroke-width: 0px;"/>
  <path d="M237.53,234.64c-.96-.06-1.91-.12-2.87-.17.96.06,1.91.12,2.87.17Z" style="fill: #903d22; stroke-width: 0px;"/>
</svg>