<?xml version="1.0" encoding="UTF-8"?>
<svg id="Layer_1" data-name="Layer 1" xmlns="http://www.w3.org/2000/svg" viewBox="0 0 566.61 598.57">
  <path d="M386.16,155.83h.02c-6.44-4.23-12.54-9.13-19.39-12.54-9.76-4.86-20.07-8.63-30.14-12.86-3.93-1.24-7.8-2.68-11.79-3.68-13.09-3.28-26.4-5.13-39.91-5.28-1.75.03-3.49.07-5.24.1-1.5.09-2.99.18-4.49.27-1.75.16-3.5.32-5.25.47-.99.06-1.99.11-2.98.17-.49-.03-1-.13-1.48-.08-24.28,2.89-47.13,10.2-68.33,22.42-14.09,8.12-27.06,17.74-38.07,29.81-2.56,2.7-5.28,5.27-7.66,8.12-33.5,40.14-47.16,86.28-40.79,138.08,3.41,27.77,13.64,53.17,29.35,76.39,13.48,19.93,31.53,35.57,48.26,52.47.47.59.93,1.19,1.4,1.78-.19.39-.39.77-.58,1.16-2.03,1.59-5.12,2.77-5.91,4.84-3.21,8.33-3.6,16.94.49,25.17.8,1.61,3.02,2.51,4.58,3.73-.25.48-.5.95-.75,1.43-1.32,1.21-3.23,2.16-3.86,3.66-3.87,9.32-4.18,18.82.12,28.08.82,1.77,3.15,2.85,4.78,4.24-.09.25-.18.5-.27.75-1.27.83-3.02,1.37-3.73,2.54-4.7,7.78-4.45,16.06-1.82,24.41,1.78,5.66,5.98,8.71,11.96,9.01,1.74.09,3.6-.28,5.2.22,1.3.41,2.84,1.6,3.3,2.81,1.1,2.87,1.41,6.05,2.43,8.96,4.41,12.53,12.82,21.47,25.97,23.76,10.94,1.91,22.25,2.2,33.41,2.29,20.06.16,40.13-.22,60.18-.65,10.95-.24,20.75-3.75,28.39-12.02,5.68-6.15,8.54-13.67,9.96-21.75.45-2.56,1.82-3.35,3.98-3.54,1.36-.12,2.74-.01,4.11-.08,6.86-.35,10.95-3.37,12.88-9.88.77-2.59.99-5.35,1.47-8.03-.7-4.27-1.4-8.53-2.1-12.8-1.42-1.51-2.84-3.03-4.27-4.54-.29-.69-.57-1.39-.86-2.08,1.55-1.23,3.83-2.16,4.5-3.76,1.38-3.33,1.9-7.01,2.78-10.55.19-5.37.52-10.77-2.07-15.78-1.17-2.37-1.76-5.35-5.35-5.25,0-.5,0-1,0-1.5,1.35-.91,3.44-1.53,3.92-2.78,1.34-3.43,2.01-7.12,2.94-10.71,1.3-5.53.89-10.83-2.19-15.75-1.06-2.42-2.42-4.46-5.48-4.39-.24-.03-.48-.07-.72-.11.03-.47.06-.95.09-1.42.26-.21.52-.42.78-.63,2.96-3.1,5.92-6.2,8.87-9.31,1.5-1.46,2.99-2.91,4.49-4.37.27-.25.54-.5.8-.75,18.27-16.32,34.09-34.64,45.43-56.51,15.31-29.53,22.19-60.85,19.86-94.17-1.07-15.26-3.91-30.11-8.79-44.56-7.84-23.22-19.82-44.12-36.56-62.02-7.02-7.5-15.22-13.89-22.89-20.79-.27-.21-.54-.43-.8-.64-.73-.53-1.46-1.05-2.18-1.58ZM65.53,207.28c-1.77-1.08-3.47-2.3-5.32-3.23-11.36-5.7-22.72-11.41-34.17-16.95-4.77-2.31-9.74-4.2-14.61-6.27-.76.71-1.9,1.27-2.23,2.14-3.04,8.03-5.95,16.1-8.86,24.17-.93,2.57.12,3.96,2.72,4.59,23.58,5.66,47.15,11.34,70.72,17.07,2.86.69,4.94-.35,5.5-2.96.81-3.73,5.35-7.34.8-11.45-.16-.15-.47-.14-.71-.2-4.61-2.3-9.22-4.6-13.84-6.9ZM290.37,78.9c.44-1.24,1.14-2.45,1.29-3.73,1.5-12.08,2.94-24.16,4.32-36.26,1.31-11.48,2.58-22.96,3.77-34.45.18-1.71.78-3.95-2.08-4.36-8.95-.05-17.91-.11-26.86-.11-.79,0-1.58.48-2.36.73-.35,1.56-1.11,3.15-.97,4.67.76,8.17,1.72,16.33,2.64,24.49,1.74,15.33,3.45,30.66,5.31,45.97.17,1.43,1.16,3.64,2.2,3.93,4.25,1.19,8.7,2.22,12.74-.89ZM440.77,45.47c-2.24,3.34-4.47,6.67-6.71,10.01-.98,1.76-1.96,3.52-2.95,5.28-.26.5-.53,1-.79,1.51-9.08,16.58-18.18,33.16-27.18,49.78-.52.96-.58,2.49-.24,3.55.81,2.49,8.06,6.67,10.91,6.57l.98-.28c.93-.82,1.96-1.54,2.77-2.46,15.59-17.62,31.14-35.27,46.74-52.87,2.17-2.45,1.93-4.36-.68-6.18-6.73-4.7-13.44-9.44-20.2-14.1-.73-.5-1.77-.55-2.67-.8ZM101.41,62.98c.6,1.38.92,2.99,1.85,4.09,4.65,5.52,9.44,10.92,14.23,16.33,10.8,12.21,21.57,24.45,32.53,36.52,1.15,1.27,3.49,1.47,5.28,2.17,2.98-2.45,5.97-4.91,8.95-7.36-.49-1.75-.68-3.65-1.51-5.21-7.03-13.18-14.16-26.3-21.3-39.42-4.05-7.43-8.14-14.85-12.3-22.22-.93-1.66-1.88-3.87-4.52-2.09-7.19,4.97-14.4,9.92-21.55,14.95-.72.51-1.11,1.49-1.66,2.25ZM491.06,228.76c1.6-.18,3.23-.21,4.78-.58,17.56-4.16,35.12-8.31,52.65-12.6,5.89-1.44,11.68-3.25,17.52-4.89.18-1.43.89-3.05.47-4.27-2.6-7.61-5.38-15.16-8.28-22.66-.4-1.03-1.76-1.68-2.68-2.51-1.89.5-3.92.71-5.65,1.55-12.99,6.3-25.95,12.66-38.85,19.14-7.98,4.01-15.85,8.24-23.76,12.38-.75,1.38-2.31,2.9-2.09,4.11.52,2.89,1.72,5.71,2.99,8.4.43.9,1.9,1.31,2.9,1.94Z" style="fill: #fefefe; stroke-width: 0px;"/>
  <path d="M266.99,122.48c.99-.06,1.99-.11,2.98-.17,2.03,2.9,3.6.77,5.25-.47,1.5-.09,2.99-.18,4.49-.27,1.79,2.42,3.53,1.91,5.24-.1,13.52.15,26.82,2,39.91,5.28,3.99,1,7.86,2.44,11.79,3.68.44.52.78,1.28,1.34,1.54,6.03,2.77,12.09,5.47,18.14,8.19,1,.5,2,1,3.01,1.5.5,0,.99,0,1.49,0,.5.5,1,1,1.51,1.49,2.5,1.25,4.99,2.5,7.49,3.75,1.75,1.25,3.5,2.49,5.25,3.74h.37s.37,0,.37,0c2,1.5,4,3,6,4.49h.37s.37,0,.37,0c3.25,2.75,6.5,5.49,9.75,8.24.5.25.99.5,1.49.75l3.76,3.74c1.5,1.5,2.99,2.99,4.49,4.49.82,1.2,1.56,2.46,2.47,3.58,4.84,5.98,10.61,11.41,14.4,17.99,5.73,9.94,10.33,20.57,14.98,31.1,5.01,11.32,4.7,23.42,4,35.46-.08,1.35-1.53,3.74-2.25,3.71-1.86-.09-4.04-.85-5.43-2.08-6.29-5.56-12.31-11.4-18.49-17.08-4.43-4.07-10.27-5.27-15.62-7.5-7.01-2.92-14-5-21.83-4.61-10.55.52-19.9,3.68-27.8,10.57-2.62,2.29-4.44,5.5-6.62,8.29-5.02,10.82-7.02,22.19-5.98,34.06.89,10.19,3.28,19.75,9.05,28.6,7.18,11.01,16.33,18.78,29.15,22.01.33.48.56,1.26,1,1.39,9.56,3.03,19.36,1.37,29.08,1.42.11,0,.25-.06.34-.14,4.72-3.68,10.36-5.66,14.83-10.23,4.65-4.76,10.62-8.11,14.07-14.33.87-1.56,4.66-2.56,6.76-2.12,3,.62,4.56,3.27,4.42,6.84-.25,6.53-.18,13.09-.04,19.63.22,10.42-2.87,20.01-6.95,29.4-2.21,5.1-4.38,10.23-6.57,15.34-1.01,1.78-2.01,3.57-3.04,5.35-6.86,11.86-15.43,22.42-24.68,32.46-4.33,4.7-8.77,9.31-13.18,13.94-3.33,3.5-6.7,6.96-10.05,10.44.94-1.82,1.58-3.9,2.88-5.41,7.87-9.07,16.09-17.84,23.79-27.04,4.25-5.08,7.71-10.81,11.53-16.25,2.25-3.5,4.72-6.88,6.71-10.52,2.86-5.23,5.63-10.54,8-16,4.55-10.49,6.77-21.51,6.24-32.98-.22-4.69-3.28-6.7-7.53-4.74-3.91,1.79-7.7,3.95-11.26,6.37-3.91,2.66-6.9,6.91-12.41,6.49-.33-.02-.67.32-1.02.44-4.07,1.41-8.07,3.18-12.25,4.14-9.88,2.28-19.83,2.97-29.67-.4-2.13-1-4.46-1.71-6.34-3.05-9.15-6.52-17.64-13.74-23.22-23.76-2.35-4.22-5.24-8.23-6.97-12.69-1.77-4.57-1.91-9.76-3.64-14.35-3.6-9.56-2.56-19.5-3.03-29.3-.45-9.16,3.62-17.55,5.69-26.29.19-.8.7-1.59,1.24-2.23,3.82-4.51,7.69-8.97,11.55-13.45,1.82-.28,3.63-.6,5.46-.84,5.5-.72,11.08-2.34,16.49-1.9,9.44.75,18.88,2.33,28.13,4.42,5.74,1.3,11.41,3.65,16.61,6.47,6.96,3.78,13.38,8.56,20.14,12.74,3.36,2.07,7.6-.06,8.22-4.01.23-1.44.1-3-.15-4.46-1.98-11.63-6.26-22.49-11.56-32.93-8.27-16.3-19.7-30.13-33.73-41.8-12.15-10.12-26.13-17.08-40.62-23.09-3.92-1.51-7.86-2.99-11.77-4.54-15.79-6.27-32.25-8.6-49.13-8.14-6.89.19-13.46,1.99-19.28,5.93-3.2,1.23-6.37,2.56-9.61,3.66-6.16,2.09-12.24,4.64-18.57,5.94-9.74,2-19.67,3.12-29.51,4.61.42-.56.71-1.38,1.27-1.65,8-3.93,15.85-8.23,24.1-11.55,8.1-3.25,16.65-5.35,24.9-8.25,2.49-.88,5.92.39,7.43-2.96Z" style="fill: #efd852; stroke-width: 0px;"/>
  <path d="M189.65,451.47c-.47-.59-.93-1.19-1.4-1.78-.47-1.63-.55-3.55-1.49-4.82-1.59-2.15-3.73-3.91-5.65-5.82-11.82-11.75-23.32-23.7-33.1-37.34-14.39-20.06-23.95-42.2-29.1-66.11-3.27-15.18-4.66-30.66-3.49-46.4,1.08-14.52,2.83-28.86,6.3-42.96,2.58-10.53,6.39-20.64,12.65-29.65,3,.22,4.4-1.88,5.7-4.03,6.28-10.43,13.73-19.91,22.42-28.44,1.89-1.86,3.57-3.93,4.8-5.3,2.85.75,4.82,1.27,6.79,1.8-.82,1.19-1.53,2.48-2.47,3.56-2.65,3.04-5.39,5.99-7.96,8.83,2.77,1.81,5.1,3.33,7.43,4.85-.3.66-.42,1.53-.91,1.96-8.3,7.21-12.83,17.19-19.07,25.91-1.61,2.25-2.69,4.89-4.01,7.35-.47.14-1.14.14-1.38.45-3.86,5.03-8.21,10.04-9.03,16.46-1.25,9.82-2.07,19.74-2.22,29.63-.2,14,.38,28.01.66,42.01.01.73.26,1.46.38,2.19.86,5.12,1.44,10.3,2.65,15.34,2.34,9.75,3.89,19.91,7.88,28.97,4.87,11.03,11.31,21.52,18.19,31.46,7.24,10.45,16.05,19.8,23.73,29.96,6.19,8.19,9.95,12.22,4.82,20.78-.37.04-.74.08-1.1.12-.68.34-1.35.68-2.03,1.02Z" style="fill: #d6ad42; stroke-width: 0px;"/>
  <path d="M416.07,397.16c-3.82,5.44-7.28,11.17-11.53,16.25-7.7,9.21-15.92,17.98-23.79,27.04-1.31,1.5-1.94,3.59-2.88,5.41,0,0,0,0,0,0-2.73,1.43-1.33,3.42-.72,5.3-.03.47-.06.95-.09,1.42-1.23-.23-2.45-.46-3.68-.69-.21-.57-.26-1.32-.66-1.69-3.24-3.04-2.87-6.56-.96-9.91,2.15-3.76,4.46-7.52,7.25-10.81,7.73-9.1,15.5-18.12,20.17-29.29.91-2.17,1.45-4.49,2.29-6.68,1.58-4.13-.97-11.55-4.87-13.43-3.68-1.78-7.35-3.75-11.24-4.86-6.45-1.84-12.61-3.91-18.59-7.25-6.19-3.46-12.85-5.84-18.56-10.48-5.13-4.17-10.41-8.02-14.17-13.52-4.98-7.27-10.52-14.27-14.52-22.06-3.48-6.75-5.22-14.4-7.61-21.7-3.8-11.59-4.59-23.7-5.76-35.71-.45-4.58-.04-9.32.56-13.92.88-6.72,2.26-13.37,3.46-20.05.41-2.28.38-4.86,1.49-6.75,2.24-3.82,5.2-7.22,7.72-10.88,1.81-2.63,6.1-4.56,9.36-4.07,1.07.16,2.25.18,3.28-.08,5.92-1.51,11.66-.59,17.36,1.11-2.59,3.22-5.24,6.39-7.75,9.67-1.29,1.68-2.33,3.54-3.48,5.32-3.86,4.48-7.73,8.95-11.55,13.45-.54.64-1.05,1.43-1.24,2.23-2.07,8.73-6.14,17.12-5.69,26.29.48,9.79-.57,19.73,3.03,29.3,1.73,4.59,1.87,9.78,3.64,14.35,1.72,4.46,4.62,8.47,6.97,12.69,5.59,10.03,14.07,17.24,23.22,23.76,1.88,1.34,4.22,2.05,6.34,3.05.8,1.02,1.44,2.25,2.42,3.04,7.59,6.07,16.89,6.3,25.82,6.5,8.74.2,17.51-1.22,26.27-1.85.91-.07,1.99.14,2.78.58,4.89,2.74,3.39,8.04,2.6,11.29-1.79,7.35-5.28,14.31-8.31,21.32-1.11,2.56-2.88,4.83-4.82,8,2.91-.77,4.68-1.23,6.44-1.69Z" style="fill: #ecd248; stroke-width: 0px;"/>
  <path d="M487.25,214.32c7.92-4.13,15.78-8.37,23.76-12.38,12.9-6.47,25.86-12.84,38.85-19.14,1.73-.84,3.76-1.05,5.65-1.55,1.27,4.35,2.33,8.78,3.87,13.03,2.01,5.54,4.4,10.95,6.63,16.41-5.84,1.64-11.63,3.45-17.52,4.89-17.53,4.29-35.09,8.44-52.65,12.6-1.55.37-3.18.39-4.78.58-.89-2.58-1.93-5.12-2.64-7.75-.59-2.18-.79-4.46-1.16-6.7Z" style="fill: #e8c933; stroke-width: 0px;"/>
  <path d="M164.25,114.72c-2.98,2.45-5.97,4.91-8.95,7.36-1.14-1.25-2.3-2.48-3.43-3.74-8.87-9.88-17.76-19.73-26.58-29.65-4.78-5.37-9.32-10.95-14.16-16.26-3.05-3.33-6.47-6.33-9.72-9.47.54-.76.94-1.74,1.66-2.25,7.15-5.03,14.36-9.98,21.55-14.95.36.34.84.61,1.06,1.03,5.8,10.67,11.56,21.36,17.35,32.03,6.08,11.2,12.15,22.41,18.33,33.56.55,1,1.9,1.56,2.88,2.33Z" style="fill: #e8c933; stroke-width: 0px;"/>
  <path d="M414.8,121.89c-.33.09-.66.18-.98.28-2.01-1.75-3.84-3.77-6.06-5.18-3.17-2.02-3.23-4.21-1.47-7.16,1.9-3.19,3.55-6.54,5.31-9.81,3.5-6.5,7.18-12.92,10.47-19.53,2.97-5.96,5.52-12.13,8.26-18.21.26-.5.53-1,.79-1.51.98-1.76,1.96-3.52,2.95-5.28,2.24-3.34,4.47-6.67,6.71-10.01.78,1.27,1.29,2.92,2.4,3.73,5.5,4.04,11.13,7.9,16.76,11.74,2.43,1.66,3.04,3.27.86,5.71-4.88,5.45-9.55,11.1-14.4,16.58-10.12,11.44-20.34,22.79-30.38,34.29-.89,1.02-.83,2.89-1.2,4.36Z" style="fill: #e8c933; stroke-width: 0px;"/>
  <path d="M268.45.74c.79-.26,1.58-.73,2.36-.73,8.95,0,17.91.06,26.86.11-1.24,10.2-2.49,20.39-3.71,30.59-.96,7.99-1.95,15.97-2.83,23.97-.86,7.76-1.59,15.53-2.38,23.29-2.61,0-5.25.18-7.83-.08-.94-.1-2.29-1.1-2.54-1.97-.59-1.98-.64-4.13-.9-6.22-.92-7.35-1.88-14.69-2.74-22.05-.88-7.48-1.54-14.99-2.54-22.46-1.1-8.17-2.48-16.3-3.74-24.44Z" style="fill: #eacd3b; stroke-width: 0px;"/>
  <path d="M134.37,216.59c-6.25,9.01-10.06,19.12-12.65,29.65-3.46,14.1-5.22,28.44-6.3,42.96-1.17,15.74.22,31.23,3.49,46.4,5.14,23.91,14.71,46.05,29.1,66.11,9.78,13.64,21.27,25.59,33.1,37.34,1.92,1.91,4.05,3.67,5.65,5.82.94,1.28,1.03,3.19,1.49,4.82-16.73-16.9-34.79-32.54-48.26-52.47-15.71-23.23-25.93-48.62-29.35-76.39-6.37-51.8,7.29-97.94,40.79-138.08,2.38-2.85,5.1-5.42,7.66-8.12-.24,1.24-.49,2.49-.73,3.73-3.16,4.28-6.3,8.58-9.49,12.84-5.87,7.87-11.11,16.1-14.51,25.38Z" style="fill: #dfbf6b; stroke-width: 0px;"/>
  <path d="M385.96,542.58c-.47,2.68-.7,5.44-1.47,8.03-1.93,6.5-6.02,9.53-12.88,9.88-1.37.07-2.75-.04-4.11.08-2.16.19-3.53.98-3.98,3.54-1.41,8.08-4.28,15.6-9.96,21.75-7.64,8.27-17.44,11.79-28.39,12.02-20.06.43-40.12.82-60.18.65-11.15-.09-22.46-.38-33.41-2.29-13.16-2.29-21.57-11.23-25.97-23.76-1.02-2.91-1.33-6.09-2.43-8.96-.47-1.21-2-2.4-3.3-2.81-1.6-.5-3.46-.14-5.2-.22-5.98-.3-10.18-3.35-11.96-9.01-2.63-8.35-2.88-16.63,1.82-24.41.71-1.17,2.46-1.71,3.73-2.54.28,0,.57,0,.85,0,2.47.78,4.93,1.57,7.4,2.35-.99,2.64-2.22,5.21-2.9,7.92-1.06,4.17-1.45,8.51-2.64,12.63-1.75,6.04.54,9.8,7.1,10.81.5,0,.99.02,1.49.02.51.23,1.02.46,1.53.7,2.23.02,4.47.04,6.7.05l-.02,1.44c.5.3,1,.6,1.5.9.51,2.23.92,4.49,1.54,6.7,1.34,4.74,1.76,10.13,4.38,14.03,6.11,9.05,15.4,13.24,26.33,13.62,1.99.02,3.99.03,5.98.05,1.76.23,3.51.46,5.27.68,2.75-.02,5.5-.05,8.25-.07,4.97.01,9.95.02,14.92.04,14.49-.23,28.99-.45,43.48-.68,5.38-.31,10.74.52,16.12-1.42,8.02-2.89,13.58-7.74,16.55-15.83,2.04-5.57,4.73-10.9,7.13-16.34.38-.87.76-1.75,1.33-3.08,5.23.32,9.97-1.04,13.98-6.4,3.1-4.13,3.74-7.82,2.95-12.36-.87-4.98-1.73-9.97-2.59-14.96.49,0,.99-.02,1.48-.03,1.07-.02,2.14-.04,3.21-.06,1.42,1.51,2.84,3.03,4.27,4.54-.77.38-1.52,1.01-2.33,1.09-3.72.38-4.17,2.29-2.71,5.27.21.44.37.92.46,1.39q1.28,6.16,6.68,5.04Z" style="fill: #cecdcd; stroke-width: 0px;"/>
  <path d="M393.6,164.14c-.5-.25-.99-.5-1.49-.75-.99-1.78-1.98-3.56-2.97-5.34,7.66,6.9,15.87,13.29,22.89,20.79,16.73,17.9,28.72,38.79,36.56,62.02,4.88,14.46,7.72,29.3,8.79,44.56,2.33,33.32-4.54,64.63-19.86,94.17-11.34,21.87-27.16,40.19-45.43,56.51.48-1.09.71-2.41,1.47-3.25,5.87-6.5,11.99-12.79,17.75-19.38,4.73-5.42,9.73-10.77,13.46-16.86,5.9-9.62,11.31-19.61,16.04-29.85,3.09-6.69,4.84-14.04,6.77-21.21,1.25-4.64,2-9.46,2.51-14.25.84-7.88,1.89-15.81,1.79-23.7-.11-9.27-1.21-18.55-2.12-27.79-.87-8.87-1.35-17.87-3.27-26.53-2.55-11.47-6.04-22.76-9.77-33.91-1.5-4.47-4.71-8.36-7.15-12.51,0-.25,0-.5,0-.75-.75-1-1.5-2-2.24-3-.5-1-1-2-1.5-2.99-.5-.5-1-1-1.49-1.5-4.32-5.87-8.4-11.93-13.04-17.54-2.7-3.27-6.27-5.82-9.44-8.69-1.5-1.5-2.99-2.99-4.49-4.49-1.25-1.25-2.5-2.5-3.76-3.74Z" style="fill: #efda6a; stroke-width: 0px;"/>
  <path d="M379.59,525.23c-1.07.02-2.14.04-3.21.06-3.12-3.03-6.73-4.37-11.16-3.8-3.91.5-7.88.66-11.83.77-4.84.13-9.69-.04-14.54.1-.98.03-1.94.9-2.91,1.38-5.02,0-10.04.01-15.05.02-1.23-.5-2.46-.99-3.69-1.49,2.88-3.29-.75-2.72-1.95-2.9-4.16-.61-8.37-.83-12.54-1.33-3.67-.44-6.43-1.7-5.87-6.33.15-1.18-.93-2.51-1.43-3.78-.49-1.26-1.61-2.72-1.33-3.78,1.5-5.56.04-8.78-6.14-8.9.68-.23,1.36-.66,2.04-.66,5.74-.05,11.48-.04,17.23.01.47,0,.94.41,1.82.82-1.92,1.11-3.45,1.92-4.89,2.85-3.4,2.2-4.66,5.89-2.13,8.81,2.24,2.59,5.38,4.93,8.59,6.06,10.75,3.78,22.04,3.38,33.24,3.13,5.96-.13,11.93-.37,17.88-.77,5.84-.4,9.62-4.97,10.26-10.81.54-4.89-3.17-7-5.34-10.16q4.3-1.05,2.22-5.23c.99-.02,1.99-.04,2.98-.06,1.02-.22,2.03-.44,3.05-.67.74,4.41,1.44,8.82,2.22,13.22,1.13,6.41,2.5,12.85-3.98,17.53-.22.16-.19.67-.36,1.34,2,.83,3.99,1.66,5.98,2.48.29.69.57,1.39.86,2.08Z" style="fill: #bfbebd; stroke-width: 0px;"/>
  <path d="M429.57,206.85c2.43,4.15,5.65,8.04,7.15,12.51,3.73,11.15,7.21,22.44,9.77,33.91,1.93,8.66,2.4,17.66,3.27,26.53.91,9.25,2.01,18.52,2.12,27.79.09,7.89-.95,15.82-1.79,23.7-.51,4.79-1.26,9.61-2.51,14.25-1.93,7.17-3.68,14.52-6.77,21.21-4.73,10.24-10.13,20.24-16.04,29.85-3.73,6.09-8.73,11.44-13.46,16.86-5.76,6.6-11.88,12.88-17.75,19.38-.76.84-.99,2.16-1.47,3.25-.27.25-.54.5-.8.75-2.76.16-4.22,1.65-4.49,4.37-2.96,3.1-5.92,6.2-8.87,9.31-.02-1.55-.04-3.11-.07-4.66,0,0,0,0,0,0,3.35-3.48,6.72-6.94,10.05-10.44,4.41-4.63,8.85-9.24,13.18-13.94,9.25-10.04,17.82-20.6,24.68-32.46,1.03-1.77,2.03-3.56,3.04-5.35.94-.87,2.21-1.57,2.75-2.64,2.26-4.43,4.3-8.98,6.42-13.48,6.5-13.8,8.45-28.68,10.3-43.57,1.46-11.79-2.9-23.26-1.7-35.15.67-6.61-.62-13.44-1.33-20.15-.94-8.85-1.71-17.76-3.4-26.48-2.11-10.86-5.71-21.32-10.9-31.18-.67-1.28-.93-2.78-1.39-4.18Z" style="fill: #eed85c; stroke-width: 0px;"/>
  <path d="M79.36,214.18c.24.06.55.05.71.2,4.55,4.11,0,7.72-.8,11.45-.56,2.61-2.65,3.66-5.5,2.96-23.56-5.73-47.14-11.41-70.72-17.07-2.6-.62-3.64-2.02-2.72-4.59,2.91-8.07,5.82-16.15,8.86-24.17.33-.87,1.47-1.44,2.23-2.14.02.68.05,1.36.07,2.04-.55,1.35-1.15,2.68-1.63,4.06-2.31,6.54-4.57,13.1-6.9,19.64-.63,1.76-.37,2.82,1.64,3.28,10.47,2.4,20.89,5.01,31.39,7.23,4.17.88,8.2.1,12.13-2.13,4.56-2.59,9.54-4.44,14.33-6.61.49.01.98.02,1.48.03,4.57,3.47,9.63,5.64,15.43,5.83Z" style="fill: #d7ab26; stroke-width: 0px;"/>
  <path d="M158.37,178.37c.24-1.24.49-2.49.73-3.73,11.02-12.07,23.98-21.69,38.07-29.81,21.2-12.22,44.05-19.53,68.33-22.42.48-.06.99.05,1.48.08-1.51,3.34-4.94,2.08-7.43,2.96-8.25,2.9-16.8,5-24.9,8.25-8.25,3.31-16.11,7.61-24.1,11.55-.56.27-.85,1.09-1.27,1.65-15.36,5.06-28.74,13.58-41.23,23.64-3.24,2.61-6.46,5.23-9.69,7.85Z" style="fill: #eed85c; stroke-width: 0px;"/>
  <path d="M189.65,451.47c.68-.34,1.35-.68,2.03-1.02,1.36.51,2.72,1.46,4.09,1.48,13.31.11,26.63-.01,39.94.09,12.17.09,24.34.38,36.51.58,3.5,0,6.99,0,10.49,0,5.24,0,10.48,0,15.72.01,1.21.03,2.43.07,3.64.1-.51.42-.99,1.14-1.55,1.21-2.79.37-5.64.42-8.4.91-1,.18-1.85,1.24-2.77,1.91-2.96-.1-5.92-.21-8.88-.31-3.25-.02-6.51-.04-9.76-.06-3.54.19-7.07.38-10.61.56-.97.03-1.94.05-2.91.08-11.72.02-23.45.04-35.17.06-1,0-1.99-.02-2.99-.02-4-.25-7.99-.5-11.99-.75-1.96-.05-3.93-.1-5.89-.16-1.02-.21-2.04-.43-3.07-.64-1.22-.06-2.43-.11-3.65-.17-1.79-.91-3.58-1.82-5.36-2.73.19-.39.39-.77.58-1.16Z" style="fill: #727272; stroke-width: 0px;"/>
  <path d="M188.52,523.78c-1.63-1.4-3.96-2.47-4.78-4.24-4.29-9.26-3.98-18.75-.12-28.08.62-1.49,2.54-2.45,3.86-3.66,2.27.52,4.55,1.04,6.82,1.56,0,.5.12,1.04-.04,1.48-2.6,6.88-3.91,13.97-3.82,21.35.04,3.62-.39,7.25-.6,10.88-.01.24,0,.48.03.71-.45,0-.89,0-1.34,0Z" style="fill: #cecdcd; stroke-width: 0px;"/>
  <path d="M189.07,452.63c1.79.91,3.58,1.82,5.36,2.73-3.16,9.6-5.11,19.32-3.13,29.46-1.02.52-2.05,1.04-3.07,1.56-1.56-1.23-3.78-2.13-4.58-3.73-4.09-8.23-3.69-16.85-.49-25.17.8-2.07,3.88-3.25,5.91-4.84Z" style="fill: #cecdcd; stroke-width: 0px;"/>
  <path d="M414.8,121.89c.38-1.47.31-3.34,1.2-4.36,10.05-11.5,20.26-22.85,30.38-34.29,4.85-5.48,9.52-11.13,14.4-16.58,2.18-2.44,1.57-4.05-.86-5.71-5.63-3.85-11.27-7.7-16.76-11.74-1.11-.82-1.62-2.47-2.4-3.73.9.26,1.94.3,2.67.8,6.76,4.66,13.47,9.4,20.2,14.1,2.61,1.82,2.85,3.73.68,6.18-15.61,17.6-31.15,35.26-46.74,52.87-.81.92-1.84,1.65-2.77,2.46Z" style="fill: #ecd248; stroke-width: 0px;"/>
  <path d="M289.36,456.75c.92-.66,1.76-1.73,2.77-1.91,2.77-.49,5.61-.54,8.4-.91.56-.07,1.03-.79,1.55-1.21,3.04-.08,6.08-.17,9.12-.25,5.99,0,11.98,0,17.97-.01,3.25,0,6.49,0,9.74,0,7.57.04,15.14.11,22.71.08,1.43,0,2.86-.41,4.28-.63,1.49,0,2.99-.01,4.48-.02,1,0,2,0,3,0,1.23.23,2.45.46,3.68.69.24.04.48.08.72.11-.74.69-1.47,1.38-2.21,2.07-1.74.07-3.49.16-5.23.2-10.9.23-21.8.4-32.7.68-5.08.13-10.16.47-15.24.71-11.01.14-22.02.27-33.04.41Z" style="fill: #dfbf6b; stroke-width: 0px;"/>
  <path d="M268.45.74c1.26,8.15,2.64,16.28,3.74,24.44,1,7.46,1.66,14.98,2.54,22.46.87,7.35,1.82,14.7,2.74,22.05.26,2.08.3,4.23.9,6.22.26.86,1.6,1.87,2.54,1.97,2.59.27,5.22.09,7.83.08.54.32,1.09.63,1.63.95-4.04,3.1-8.49,2.07-12.74.89-1.04-.29-2.02-2.5-2.2-3.93-1.87-15.31-3.58-30.64-5.31-45.97-.92-8.16-1.89-16.31-2.64-24.49-.14-1.51.63-3.11.97-4.67Z" style="fill: #e6c52e; stroke-width: 0px;"/>
  <path d="M290.37,78.9c-.54-.32-1.09-.63-1.63-.95.79-7.76,1.53-15.53,2.38-23.29.88-8,1.87-15.98,2.83-23.97,1.23-10.2,2.48-20.39,3.71-30.59,2.86.41,2.26,2.65,2.08,4.36-1.19,11.49-2.45,22.97-3.77,34.45-1.38,12.09-2.83,24.18-4.32,36.26-.16,1.28-.85,2.49-1.29,3.73Z" style="fill: #efda62; stroke-width: 0px;"/>
  <path d="M164.25,114.72c-.98-.77-2.32-1.33-2.88-2.33-6.18-11.15-12.25-22.36-18.33-33.56-5.79-10.67-11.55-21.36-17.35-32.03-.22-.41-.7-.69-1.06-1.03,2.64-1.78,3.59.43,4.52,2.09,4.16,7.37,8.25,14.79,12.3,22.22,7.14,13.12,14.27,26.24,21.3,39.42.83,1.56,1.02,3.47,1.51,5.21Z" style="fill: #efda62; stroke-width: 0px;"/>
  <path d="M101.41,62.98c3.25,3.15,6.67,6.14,9.72,9.47,4.85,5.3,9.39,10.89,14.16,16.26,8.82,9.92,17.71,19.77,26.58,29.65,1.13,1.26,2.28,2.49,3.43,3.74-1.79-.7-4.12-.9-5.28-2.17-10.96-12.07-21.73-24.31-32.53-36.52-4.78-5.41-9.57-10.81-14.23-16.33-.93-1.1-1.25-2.71-1.85-4.09Z" style="fill: #d7ab26; stroke-width: 0px;"/>
  <path d="M378.73,523.15c-1.99-.83-3.98-1.65-5.98-2.48.17-.67.13-1.18.36-1.34,6.48-4.69,5.11-11.12,3.98-17.53-.78-4.4-1.48-8.81-2.22-13.22,1.23-.25,2.47-.5,3.7-.76,3.6-.1,4.18,2.87,5.35,5.25-5.83.88-6.21,1.46-4.79,7.18.35,1.42.63,2.87.89,4.31q.89,5.04,5.98,4.29c-.87,3.54-1.4,7.22-2.78,10.55-.66,1.6-2.95,2.53-4.5,3.76Z" style="fill: #cecdcd; stroke-width: 0px;"/>
  <path d="M375.57,454.75c.74-.69,1.47-1.38,2.21-2.07,3.05-.07,4.42,1.97,5.48,4.39-1.28.75-2.77,1.3-3.76,2.33-.78.81-1.42,2.27-1.29,3.33.28,2.29,1.34,4.47,1.64,6.76.49,3.69,2.32,4.6,5.6,3.33-.93,3.59-1.6,7.28-2.94,10.71-.49,1.25-2.57,1.87-3.92,2.78-2.24-.49-4.49-.98-6.73-1.47,0,0,.03-.04.03-.04.74-1.14,1.23-2.72,2.28-3.35,2.92-1.77,4.1-4.14,3.7-7.45-.78-6.42-1.53-12.84-2.3-19.26Z" style="fill: #cecdcd; stroke-width: 0px;"/>
  <path d="M11.49,182.87c-.02-.68-.05-1.36-.07-2.04,4.88,2.08,9.85,3.97,14.61,6.27,11.44,5.54,22.8,11.25,34.17,16.95,1.85.93,3.55,2.15,5.32,3.23-.53.36-1.06.72-1.6,1.07-.49-.01-.98-.02-1.48-.03-.75-.61-1.42-1.39-2.26-1.8-16.22-7.91-32.46-15.78-48.7-23.65Z" style="fill: #ecd248; stroke-width: 0px;"/>
  <path d="M430.32,62.27c-2.74,6.08-5.29,12.25-8.26,18.21-3.29,6.61-6.97,13.03-10.47,19.53-1.76,3.27-3.41,6.62-5.31,9.81-1.76,2.95-1.7,5.14,1.47,7.16,2.22,1.41,4.06,3.43,6.06,5.18-2.85.11-10.1-4.08-10.91-6.57-.34-1.06-.28-2.58.24-3.55,9-16.63,18.1-33.2,27.18-49.78Z" style="fill: #deb523; stroke-width: 0px;"/>
  <path d="M375.62,150.65h-.37s-.37,0-.37,0c-1.75-1.25-3.5-2.49-5.25-3.74-2.5-1.25-4.99-2.5-7.49-3.75-.5-.5-1-1-1.51-1.49-.5,0-.99,0-1.49,0-1-.5-2-1-3.01-1.5-6.05-2.72-12.11-5.41-18.14-8.19-.56-.26-.9-1.01-1.34-1.54,10.07,4.23,20.38,8,30.14,12.86,6.85,3.41,12.95,8.31,19.39,12.54-1.27-.23-2.55-.46-3.82-.68h-.37s-.37,0-.37,0c-2-1.5-4-3-6-4.49Z" style="fill: #efda6a; stroke-width: 0px;"/>
  <path d="M386.01,508.85q-5.1.75-5.98-4.29c-.25-1.44-.53-2.89-.89-4.31-1.42-5.72-1.04-6.3,4.79-7.18,2.59,5.01,2.26,10.4,2.07,15.78Z" style="fill: #ddd; stroke-width: 0px;"/>
  <path d="M385.46,472.83c-3.28,1.27-5.12.36-5.6-3.33-.3-2.29-1.36-4.47-1.64-6.76-.13-1.07.51-2.53,1.29-3.33.99-1.03,2.48-1.57,3.76-2.33,3.09,4.92,3.49,10.22,2.2,15.75Z" style="fill: #ddd; stroke-width: 0px;"/>
  <path d="M385.96,542.58q-5.4,1.13-6.68-5.04c-.1-.48-.25-.96-.46-1.39-1.46-2.98-1.01-4.9,2.71-5.27.8-.08,1.55-.72,2.33-1.09.7,4.27,1.4,8.53,2.1,12.8Z" style="fill: #ddd; stroke-width: 0px;"/>
  <path d="M566.01,210.69c-2.23-5.46-4.62-10.87-6.63-16.41-1.54-4.25-2.6-8.68-3.87-13.03.92.83,2.29,1.48,2.68,2.51,2.9,7.5,5.69,15.05,8.28,22.66.42,1.23-.29,2.84-.47,4.27Z" style="fill: #efda62; stroke-width: 0px;"/>
  <path d="M487.25,214.32c.37,2.24.58,4.52,1.16,6.7.71,2.63,1.74,5.17,2.64,7.75-1-.63-2.47-1.04-2.9-1.94-1.27-2.69-2.47-5.51-2.99-8.4-.22-1.2,1.34-2.73,2.09-4.11Z" style="fill: #deb523; stroke-width: 0px;"/>
  <path d="M63.93,208.36c.53-.36,1.06-.72,1.6-1.07,4.61,2.3,9.22,4.6,13.84,6.9-5.81-.19-10.86-2.36-15.43-5.83Z" style="fill: #e5c32a; stroke-width: 0px;"/>
  <path d="M188.23,486.38c1.02-.52,2.05-1.04,3.07-1.56,1.07.06,2.13.12,3.19.18.9.63,1.81,1.26,2.2,1.54-.7.74-1.47,1.55-2.24,2.37-.05.15-.11.31-.16.46-2.27-.52-4.54-1.04-6.82-1.56.25-.48.5-.95.75-1.43Z" style="fill: #a4a3a2; stroke-width: 0px;"/>
  <path d="M382.36,155.15c1.27.23,2.55.46,3.82.68,0,0-.02,0-.02,0,.73.53,1.46,1.05,2.18,1.58.27.21.54.43.8.64.99,1.78,1.98,3.56,2.97,5.34-3.25-2.75-6.5-5.49-9.75-8.24Z" style="fill: #f0db57; stroke-width: 0px;"/>
  <path d="M371.86,484.85c2.24.49,4.49.98,6.73,1.47,0,.5,0,1,0,1.5-1.23.25-2.47.5-3.7.76-1.02.22-2.03.44-3.05.67,0-1.46.02-2.93.02-4.39Z" style="fill: #b0afae; stroke-width: 0px;"/>
  <path d="M284.95,121.46c-1.71,2.01-3.45,2.52-5.24.1,1.75-.03,3.49-.07,5.24-.1Z" style="fill: #eed85c; stroke-width: 0px;"/>
  <path d="M275.22,121.84c-1.65,1.25-3.23,3.38-5.25.47,1.75-.16,3.5-.32,5.25-.47Z" style="fill: #eed85c; stroke-width: 0px;"/>
  <path d="M386.8,441.22c.27-2.72,1.73-4.21,4.49-4.37-1.5,1.46-2.99,2.91-4.49,4.37Z" style="fill: #efda6a; stroke-width: 0px;"/>
  <path d="M434.06,55.48c-.98,1.76-1.96,3.52-2.95,5.28.98-1.76,1.96-3.52,2.95-5.28Z" style="fill: #deb523; stroke-width: 0px;"/>
  <path d="M377.86,445.86c.02,1.55.04,3.11.07,4.66-.26.21-.52.42-.78.63-.61-1.88-2.02-3.87.72-5.3Z" style="fill: #efd852; stroke-width: 0px;"/>
  <path d="M388.34,157.41c-.73-.53-1.46-1.05-2.18-1.58.73.53,1.46,1.05,2.18,1.58Z" style="fill: #efda6a; stroke-width: 0px;"/>
  <path d="M188.52,523.78c.45,0,.89,0,1.34,0,.28.14.55.29.83.43-.53.1-1.05.21-1.58.31-.28,0-.57,0-.85,0,.09-.25.18-.5.27-.75Z" style="fill: #b0afae; stroke-width: 0px;"/>
  <path d="M429.57,206.85c.45,1.4.71,2.9,1.39,4.18,5.18,9.86,8.79,20.32,10.9,31.18,1.69,8.72,2.46,17.63,3.4,26.48.71,6.7,2,13.54,1.33,20.15-1.2,11.89,3.16,23.36,1.7,35.15-1.85,14.9-3.8,29.77-10.3,43.57-2.12,4.5-4.16,9.05-6.42,13.48-.55,1.07-1.82,1.77-2.75,2.64,2.19-5.12,4.36-10.24,6.57-15.34,4.07-9.39,7.17-18.98,6.95-29.4-.14-6.54-.21-13.09.04-19.63.14-3.58-1.42-6.22-4.42-6.84-2.1-.43-5.89.56-6.76,2.12-3.46,6.21-9.42,9.57-14.07,14.33-4.46,4.57-10.1,6.56-14.83,10.23-.09.07-.23.14-.34.14-9.72-.05-19.52,1.61-29.08-1.42-.44-.14-.67-.91-1-1.39,6.52-.46,13.02.53,19.61-1.33,8.64-2.44,16.3-6.46,22.32-12.78,8.15-8.55,11.31-19.4,12.08-31.1.54-8.25-2.38-15.16-6.28-22.16-8.14-14.61-20.78-23.27-36.32-27.65-6.19-1.74-13.03-1.34-19.58-1.53-2.23-.07-4.49,1.02-6.73,1.62-5.4,1.45-10.08,4.03-13.78,8.37-.81.95-2.34,1.28-3.54,1.9,2.18-2.79,4-6,6.62-8.29,7.9-6.9,17.24-10.05,27.8-10.57,7.83-.39,14.82,1.69,21.83,4.61,5.35,2.23,11.19,3.43,15.62,7.5,6.18,5.68,12.21,11.52,18.49,17.08,1.39,1.23,3.57,1.99,5.43,2.08.72.03,2.17-2.36,2.25-3.71.7-12.04,1.01-24.14-4-35.46-4.66-10.52-9.25-21.15-14.98-31.1-3.79-6.58-9.56-12.01-14.4-17.99-.91-1.12-1.65-2.38-2.47-3.58,3.18,2.87,6.74,5.42,9.44,8.69,4.63,5.61,8.72,11.67,13.04,17.54.5.5,1,1,1.49,1.5.5,1,1,2,1.5,2.99.75,1,1.5,2,2.24,3,0,.25,0,.5,0,.75Z" style="fill: #f0db57; stroke-width: 0px;"/>
  <path d="M158.37,178.37c3.23-2.62,6.45-5.24,9.69-7.85,12.49-10.06,25.87-18.58,41.23-23.64,9.85-1.49,19.77-2.61,29.51-4.61,6.33-1.3,12.41-3.85,18.57-5.94,3.24-1.1,6.41-2.43,9.61-3.66-.46,4.01-.98,8.01-1.37,12.03-.38,3.85.56,7.92-2.13,11.36-.15.19.32.88.51,1.34-2.77,2.22-5.65,4.32-8.28,6.7-2.62,2.37-4.98,5.02-7.46,7.55-1.89.48-3.76,1.22-5.68,1.4-11.58,1.1-23.18,2.08-34.77,3.1-.57-.21-1.16-.37-1.7-.63-7.98-3.96-15.89-4.76-23.77.3-2.67,1.72-5.49,3.22-8.24,4.82-1.97-.52-3.94-1.04-6.79-1.8-1.23,1.37-2.91,3.44-4.8,5.3-8.69,8.53-16.14,18.02-22.42,28.44-1.29,2.15-2.69,4.25-5.7,4.03,3.39-9.28,8.63-17.51,14.51-25.38,3.18-4.26,6.33-8.56,9.49-12.84Z" style="fill: #e7c84b; stroke-width: 0px;"/>
  <path d="M339.65,251.8c1.2-.62,2.73-.95,3.54-1.9,3.69-4.34,8.37-6.93,13.78-8.37,2.24-.6,4.5-1.68,6.73-1.62,6.55.19,13.39-.21,19.58,1.53,15.54,4.38,28.18,13.04,36.32,27.65,3.9,7,6.83,13.91,6.28,22.16-.77,11.71-3.93,22.56-12.08,31.1-6.02,6.32-13.68,10.34-22.32,12.78-6.59,1.86-13.09.87-19.61,1.33-12.82-3.23-21.97-11-29.15-22.01-5.77-8.85-8.16-18.41-9.05-28.6-1.04-11.87.96-23.24,5.98-34.06ZM344.39,281.56c.93,5.73,1.05,11.75,2.93,17.14,5.81,16.65,18.79,26.95,37.62,27.39,5.13.12,9.31-2.73,13.82-3.34,7.15-.97,11.4-5.68,14.87-10.2,5.54-7.22,8.58-15.96,6.36-25.59-.44-1.89-.36-3.89-.58-5.83-.2-1.78-.03-3.77-.78-5.3-3.16-6.45-6.79-12.5-12.88-16.88-6.15-4.42-11.65-9.85-20.03-9.42-.59.03-1.25-.16-1.77-.44-5.49-2.98-11.1-3.14-16.71-.52-3.21,1.5-6.44,3.1-9.33,5.12-2.72,1.91-5.6,4.05-7.36,6.77-4.07,6.3-6.17,13.37-6.15,21.1Z" style="fill: #eed85c; stroke-width: 0px;"/>
  <path d="M338.16,224.83c1.15-1.78,2.2-3.64,3.48-5.32,2.51-3.28,5.16-6.45,7.75-9.67,1.25-.04,2.49-.15,3.74-.12,9.02.24,18.08.02,27.04.92,6.49.65,12.77,3.18,19.25,4.13,4.62.68,9.42.13,13.99.13,1.91-6.85-2.63-16.79-6.4-23.33-6.37-11.04-14.34-21.06-24.44-28.82-7.22-5.55-15.58-9.62-23.43-14.35-.73-.74-1.37-1.61-2.2-2.21-3.23-2.31-6.52-4.53-9.79-6.78,14.5,6.01,28.47,12.98,40.62,23.09,14.03,11.67,25.46,25.5,33.73,41.8,5.3,10.45,9.58,21.3,11.56,32.93.25,1.46.37,3.01.15,4.46-.62,3.95-4.86,6.09-8.22,4.01-6.76-4.18-13.17-8.96-20.14-12.74-5.19-2.82-10.86-5.18-16.61-6.47-9.25-2.09-18.69-3.67-28.13-4.42-5.41-.43-10.99,1.18-16.49,1.9-1.83.24-3.64.56-5.46.84Z" style="fill: #efd94a; stroke-width: 0px;"/>
  <path d="M416.07,397.16c-1.76.46-3.52.93-6.44,1.69,1.94-3.18,3.71-5.45,4.82-8,3.03-7.02,6.53-13.97,8.31-21.32.79-3.25,2.29-8.55-2.6-11.29-.79-.44-1.86-.65-2.78-.58-8.76.64-17.53,2.05-26.27,1.85-8.93-.2-18.23-.43-25.82-6.5-.99-.79-1.62-2.02-2.42-3.04,9.84,3.37,19.79,2.68,29.67.4,4.18-.96,8.17-2.73,12.25-4.14.35-.12.69-.47,1.02-.44,5.51.42,8.5-3.83,12.41-6.49,3.56-2.42,7.35-4.58,11.26-6.37,4.26-1.95,7.32.05,7.53,4.74.53,11.47-1.69,22.49-6.24,32.98-2.37,5.46-5.13,10.77-8,16-1.99,3.64-4.46,7.03-6.71,10.52Z" style="fill: #efd94a; stroke-width: 0px;"/>
  <path d="M347.15,139.42c3.27,2.25,6.56,4.48,9.79,6.78.83.6,1.47,1.46,2.2,2.21-1.18-.35-2.43-.56-3.54-1.07-11.97-5.58-24.58-8.74-37.67-10.17-2.72-.2-5.43-.39-8.15-.6-6.92-.54-13.83-1.26-20.76-1.59-5.12-.24-8.3,3.71-11.31,6.87-2.72,2.85-3.85,7.17-6.39,10.26-1.85,2.25-4.85,3.56-7.33,5.29-.18-.46-.66-1.14-.51-1.34,2.69-3.43,1.75-7.51,2.13-11.36.4-4.02.91-8.02,1.37-12.03,5.82-3.95,12.39-5.74,19.28-5.93,16.87-.46,33.34,1.87,49.13,8.14,3.91,1.55,7.84,3.03,11.77,4.54Z" style="fill: #ecd248; stroke-width: 0px;"/>
  <path d="M375.62,150.65c2,1.5,4,3,6,4.49-2-1.5-4-3-6-4.49Z" style="fill: #f0db57; stroke-width: 0px;"/>
  <path d="M369.62,146.91c1.75,1.25,3.5,2.49,5.25,3.74-1.75-1.25-3.5-2.49-5.25-3.74Z" style="fill: #f0db57; stroke-width: 0px;"/>
  <path d="M393.6,164.14c1.25,1.25,2.5,2.5,3.76,3.74-1.25-1.25-2.5-2.5-3.76-3.74Z" style="fill: #f0db57; stroke-width: 0px;"/>
  <path d="M356.14,140.16c1,.5,2,1,3.01,1.5-1-.5-2-1-3.01-1.5Z" style="fill: #f0db57; stroke-width: 0px;"/>
  <path d="M360.63,141.67c.5.5,1,1,1.51,1.49-.5-.5-1-1-1.51-1.49Z" style="fill: #f0db57; stroke-width: 0px;"/>
  <path d="M272.23,452.6c-12.17-.2-24.34-.49-36.51-.58-13.31-.1-26.63.02-39.94-.09-1.37-.01-2.73-.96-4.09-1.48.37-.04.73-.08,1.1-.12,5.77-.89,11.07-10.33,9.57-14.29-2.07-5.5-4.77-10.89-8.01-15.79-3.92-5.93-8.69-11.3-13.1-16.9-1.23-1.56-2.36-3.22-3.76-4.61-6.63-6.58-10.81-14.93-12.87-23.53-3.05-12.78-8-25.35-6.45-39.08.7-6.16-.39-12.51-.56-18.77-.11-3.92-.06-7.85,0-11.77.03-1.94.78-4.06.23-5.8-1.11-3.54-2.6-6.62-1.23-10.73.94-2.81-.27-6.34-.52-9.55,3-.9,7.47-.9,8.69-2.89,2.18-3.54,4.72-4.11,7.71-3.37,2.14,1.12,4.28,2.24,6.42,3.36.16,1.63.87,4.06,1.87,4.18,3.48.43,3.06,2.51,2.92,4.84-.08,1.38-.11,2.86.29,4.16,1.77,5.73,3.82,11.38,5.55,17.12.84,2.78,1.2,5.71,1.77,8.57v1.5c.25.5.5,1,.75,1.5,1,2.89,2.79,5.77,2.85,8.68.25,11.81,6.28,22.05,8.59,33.3,1.2,5.83,4.63,11.16,6.46,16.91,2.16,6.75,4.17,13.47,8.71,19.1,4.18,5.19,4.66,12.19,9.22,17.44,4.31,4.97,6.99,11.33,10.65,16.9,2.02,3.08,4.07,6.56,7,8.56,7.47,5.12,15.61,9.1,24.6,11.07.81.18,1.4,1.41,2.09,2.15Z" style="fill: #d3a425; stroke-width: 0px;"/>
  <path d="M298.44,452.62c-5.24,0-10.48,0-15.72-.01-.8-.9-1.48-1.95-2.41-2.68-3.6-2.81-8-4.94-10.75-8.4-4.14-5.2-7.07-11.35-10.67-16.99-2.91-4.57-6.08-8.97-9.08-13.48-3-4.53-6.38-8.88-8.79-13.72-3.01-6.07-5.18-12.55-7.75-18.85-2.9-7.12-6.13-14.13-8.67-21.38-2.41-6.88-4.05-14.03-6.14-21.03-1.65-5.52-3.49-10.97-5.2-16.47-.88-2.83-1.81-5.66-2.46-8.55-1.23-5.49-2.27-11.03-3.38-16.55-.88-4.35-1.85-8.68-2.62-13.05-1-5.69-1.43-11.51-2.83-17.1-2.53-10.07-5.65-19.99-8.42-30-.68-2.45-1.96-3.96-4.51-4.28-2.06-6.27-5.94-8.85-14.55-8.88-2.7,0-5.58.92-8.07,2.09-3.63,1.71-6.95,4.06-10.44,6.07-2.68,1.54-5.42,2.98-8.14,4.47-.25-.25-.51-.5-.76-.75,1.32-2.46,2.4-5.1,4.01-7.35,6.23-8.72,10.76-18.7,19.07-25.91.5-.43.62-1.3.91-1.96,1.02-.42,2.14-.69,3.05-1.28,4.08-2.6,8.5-4.17,13.28-3.13,3.88.84,7.6,2.42,11.39,3.67,2.72,8.19,5.11,16.52,8.27,24.54,3.02,7.67,7,14.88,8.41,23.22,1.45,8.57,3.84,16.98,5.75,25.47,1.88,8.38,3.57,16.8,5.53,25.16,1.71,7.33,3.68,14.6,5.54,21.89.52,2.02.88,4.11,1.63,6.04,1.89,4.88,4.19,9.6,5.91,14.53,2.19,6.29,4.04,12.71,5.92,19.1,3.53,12.07,9.51,23.04,15.27,34.11,1.25,2.4,3.42,4.4,4.31,6.89,2.76,7.73,7.62,14.15,12.08,20.86,2.44,3.67,4.27,7.75,6.31,11.68.77,1.48,1.42,3.04,2.07,4.59,1.91,4.55,3.25,9.37,7.83,12.35,1.9,1.24,3.23,3.35,4.83,5.07Z" style="fill: #deb523; stroke-width: 0px;"/>
  <path d="M198.8,197.11c-3.79-1.25-7.51-2.83-11.39-3.67-4.78-1.03-9.2.53-13.28,3.13-.92.58-2.03.86-3.05,1.28-2.33-1.52-4.66-3.04-7.43-4.85,2.57-2.84,5.31-5.79,7.96-8.83.94-1.08,1.66-2.37,2.47-3.56,2.75-1.6,5.56-3.1,8.24-4.82,7.89-5.06,15.8-4.26,23.77-.3.54.27,1.13.42,1.7.63,1.69,1.31,3.34,2.66,5.06,3.93,7.79,5.73,14.15,13.68,24.37,15.68,1.32.26,2.59.9,3.8,1.51,3.52,1.76,6.44,3.92,7.69,8.09,1.74,5.77,4.07,11.36,6.1,17.04,2.36,6.61,4.76,13.2,6.95,19.86,1.42,4.32,2.48,8.76,3.73,13.14,2.34,8.22,4.51,16.49,7.11,24.63,2.08,6.53,4.93,12.82,6.99,19.35,3.8,12,6.91,24.23,11.01,36.12,2.33,6.75,6.28,12.93,9.13,19.52,3.88,8.99,8.65,17.43,14.43,25.31,2.2,3,4.59,5.9,6.49,9.09,3.15,5.29,5.99,10.76,8.91,16.18.7,1.31,1.38,2.67,1.78,4.09,1.18,4.13,1.74,8.44,4.94,11.8.85.9,1.04,2.8.92,4.18-.56,6.28-1.39,12.54-2.02,18.81-.24,2.39-.32,4.77,2.66,5.86.54.2.71,1.39,1.06,2.13-3.25,0-6.49,0-9.74,0-.1-.6,0-1.58-.34-1.76-4.61-2.55-5.38-6.65-5.07-11.41.09-1.41-.79-2.85-1.09-4.31-.63-3.02-1.47-6.04-1.67-9.1-.33-4.96-1.3-9.53-4.57-13.48-1-1.21-1.48-2.84-2.18-4.29-1.38-2.88-2.71-5.78-4.14-8.64-3.74-7.52-7.55-15-11.26-22.53-1.82-3.7-3.32-7.55-5.21-11.21-2.99-5.77-6.19-11.43-9.26-17.15-.4-.75-.56-1.65-.81-2.48-2.1-6.85-4.1-13.73-6.32-20.54-2.15-6.57-4.62-13.04-6.78-19.6-1.63-4.94-2.86-10.01-4.52-14.94-2.04-6.06-4.31-12.05-6.54-18.05-3.39-9.12-6.62-18.3-10.31-27.29-3.15-7.66-7.33-14.91-10.16-22.67-2.36-6.45-5.72-12.09-10.02-17.25-1.19-1.43-3.07-2.28-4.63-3.39-1.44-.27-2.88-.51-4.32-.81-7.05-1.47-14.1-2.96-21.15-4.44Z" style="fill: #e6c52e; stroke-width: 0px;"/>
  <path d="M147.09,233.07c.25.25.51.5.76.75.09,5.14-.61,10.44.42,15.38,2.12,10.21,5.16,20.23,7.82,30.33.25,3.21,1.46,6.73.52,9.55-1.37,4.11.13,7.19,1.23,10.73.54,1.74-.21,3.85-.23,5.8-.06,3.92-.11,7.85,0,11.77.17,6.27,1.26,12.62.56,18.77-1.55,13.72,3.4,26.3,6.45,39.08,2.05,8.6,6.23,16.95,12.87,23.53,1.4,1.39,2.53,3.05,3.76,4.61,4.41,5.6,9.18,10.97,13.1,16.9,3.24,4.9,5.94,10.29,8.01,15.79,1.5,3.96-3.8,13.4-9.57,14.29,5.13-8.57,1.37-12.59-4.82-20.78-7.68-10.16-16.49-19.51-23.73-29.96-6.89-9.94-13.33-20.43-18.19-31.46-4-9.06-5.54-19.23-7.88-28.97-1.21-5.03-1.78-10.22-2.65-15.34-.12-.73-.37-1.46-.38-2.19-.27-14-.85-28.02-.66-42.01.14-9.89.96-19.82,2.22-29.63.82-6.41,5.17-11.43,9.03-16.46.24-.32.91-.31,1.38-.45Z" style="fill: #d3a62f; stroke-width: 0px;"/>
  <path d="M317.93,137.17c13.09,1.43,25.7,4.58,37.67,10.17,1.11.52,2.35.72,3.54,1.07,7.85,4.73,16.21,8.8,23.43,14.35,10.1,7.76,18.08,17.78,24.44,28.82,3.77,6.54,8.31,16.48,6.4,23.33-4.57,0-9.37.55-13.99-.13-6.48-.95-12.76-3.48-19.25-4.13-8.95-.9-18.02-.68-27.04-.92-1.24-.03-2.49.08-3.74.12-5.7-1.7-11.44-2.62-17.36-1.11-1.04.26-2.21.24-3.28.08-3.26-.49-7.56,1.45-9.36,4.07-2.52,3.67-5.48,7.06-7.72,10.88-1.11,1.89-1.08,4.47-1.49,6.75-1.2,6.68-2.59,13.33-3.46,20.05-.6,4.59-1.01,9.33-.56,13.92,1.17,12.01,1.97,24.12,5.76,35.71,2.39,7.29,4.13,14.95,7.61,21.7,4.01,7.78,9.54,14.79,14.52,22.06,3.76,5.49,9.04,9.35,14.17,13.52,5.71,4.64,12.36,7.02,18.56,10.48,5.98,3.34,12.13,5.41,18.59,7.25,3.89,1.11,7.56,3.09,11.24,4.86,3.9,1.89,6.44,9.3,4.87,13.43-.84,2.2-1.38,4.52-2.29,6.68-4.67,11.17-12.44,20.2-20.17,29.29-2.79,3.29-5.1,7.05-7.25,10.81-1.91,3.35-2.28,6.87.96,9.91.4.37.45,1.12.66,1.69-1,0-2,0-3,0-.32-.65-.46-1.6-.97-1.89-5.46-3.08-4.94-7.12-2.05-12.05,2.64-4.49,5.2-9.04,7.39-13.75,1.28-2.75,1.35-6.07,2.72-8.75,1.7-3.35,2.56-6.53,1.77-10.26-.76-3.57-.71-7.43-4.96-9.08-.48-.19-.65-1.05-1.08-1.48-4.83-4.93-9.51-10.04-14.6-14.69-3.62-3.3-7.9-5.87-11.7-8.98-1.48-1.21-2.14-3.51-3.7-4.49-6.56-4.12-11.41-9.71-15.09-16.41-2.23-4.06-5.28-7.49-6.28-12.47-.74-3.66-4.83-6.51-6.49-10.15-3.91-8.54-7.93-17.14-10.65-26.1-2.29-7.51-2.81-15.55-4.12-23.36-1.2-7.19-2.61-14.34-3.56-21.56-.61-4.62-.47-9.33-.83-13.99-.24-3.05-1.25-6.1-1.09-9.1.35-6.67,1.75-13.31,1.7-19.96-.04-4.86,1.24-9.12,2.34-13.68.83-3.44,1.34-6.74,2.61-10.2,1.53-4.2,2.72-5.96,7.12-5.97,3.83-.01,4.65-1.85,3.9-5.55-.76-3.75-1.15-7.59-1.48-11.41-.12-1.43.88-3.06.51-4.36-1.87-6.64,2.64-11.42,5.16-16.46,1.58-3.15,2.45-5.47.99-8.56Z" style="fill: #ecd13f; stroke-width: 0px;"/>
  <path d="M275.94,596.39c-4.97-.01-9.95-.02-14.92-.03-.76-.71-1.45-1.94-2.3-2.05-3.43-.47-6.91-.51-10.35-.86-13.96-1.44-24.92-7.81-32.18-20-1.53-2.57-1.59-5.18,1.13-7.3.77-.6,1.25-1.59,2.6-3.38h-6.15s0,0,0,0c0-.5,0-1,0-1.5,25.99.01,51.97.02,77.96.04-1.89,1.22-3.71,2.57-5.69,3.62-2.06,1.09-4.41,1.67-6.38,2.88-5.72,3.5-5.7,5.82-.74,10.45,3.4,3.18,6.48,6.71,9.59,10.19,1.73,1.92,1.08,3.52-1.29,4.14-2.73.71-5.53,1.23-8.32,1.59-1.54.2-3.1-.03-2.97,2.23Z" style="fill: #a4a3a2; stroke-width: 0px;"/>
  <path d="M374.9,525.32c.86,4.99,1.72,9.97,2.59,14.96.79,4.55.15,8.23-2.95,12.36-4.02,5.36-8.75,6.72-13.98,6.4-.57,1.33-.95,2.21-1.33,3.08-2.4,5.44-5.08,10.77-7.13,16.34-2.97,8.09-8.53,12.94-16.55,15.83-5.39,1.94-10.74,1.11-16.12,1.42,1.73-1.24,3.41-2.57,5.21-3.71,3.78-2.39,3.97-4.14.3-6.59-6.05-4.05-12.3-7.81-18.32-11.9-2.18-1.48-4.59-3.27-5.66-5.51-.82-1.73.3-4.38.55-6.62.71,0,1.43-.01,2.14-.02.84.46,1.65,1.23,2.53,1.33,1.9.21,3.85.08,5.77.09-.38,2.52.79,4.31,3.09,4.82,3.84.85,7.77,1.77,11.66,1.77,5.04,0,10.09-.74,15.11-1.43,3-.41,6.01-1.24,6.09-5.24,3.17-.67,6.34-1.35,10.01-2.13-5.23-.55-10.04-.8-14.75-1.64-2.69-.48-5.14-2.3-7.83-2.8-9.09-1.68-18.2-3.52-27.39-4.37-6.99-.65-9.88-4.83-11.67-10.51-.46-1.47-.04-3.53.67-4.97,1-2.01.83-2.98-1.38-3.48-.8-.18-1.57-.52-2.35-.79,4.49-1.32,8.91-.94,14.07-.05-2.03,1.63-3.61,2.45-4.57,3.73-3.91,5.23,1.86,10.5,6.9,11.33,2.56.42,5.06,1.32,7.63,1.56,4.46.42,8.95.5,13.43.72.74,0,1.48,0,2.23,0,.98.49,1.96,1.41,2.93,1.39,3.46-.05,6.91-.55,10.37-.64,4.73-.12,9.47-.03,14.2-.03,5.5,0,12.06-5.16,10.57-11.64-.59-2.56-2.84-4.74-4.34-7.1,1.16-.44,2.31-.89,3.47-1.33-.43-1.21-.81-2.27-1.24-3.46,2.28-.43,4.16-.79,6.04-1.15Z" style="fill: #bfbebd; stroke-width: 0px;"/>
  <path d="M301.5,561.37c-.26,2.24-1.37,4.89-.55,6.62,1.07,2.24,3.48,4.03,5.66,5.51,6.02,4.1,12.27,7.85,18.32,11.9,3.68,2.46,3.48,4.2-.3,6.59-1.8,1.14-3.48,2.47-5.21,3.71-14.49.23-28.99.46-43.48.68-.13-2.26,1.43-2.03,2.97-2.23,2.8-.36,5.59-.88,8.32-1.59,2.37-.62,3.02-2.22,1.29-4.14-3.11-3.47-6.19-7.01-9.59-10.19-4.96-4.63-4.98-6.95.74-10.45,1.97-1.21,4.32-1.78,6.38-2.88,1.98-1.05,3.8-2.4,5.69-3.62,3.26.03,6.51.05,9.77.08Z" style="fill: #b0afae; stroke-width: 0px;"/>
  <path d="M199.54,558.26c-.5,0-.99-.02-1.49-.02-.56-.55-1.21-1.03-1.67-1.65-1.44-1.91-2.8-3.87-4.2-5.81,1.8-1.17,3.47-2.66,5.43-3.4,1.61-.61,3.63-.05,5.36-.48,2.69-.66,5.56-1.28,7.83-2.74,2.44-1.57,2.19-4.96-.25-6.61-1.45-.98-3.38-1.58-5.14-1.72-6.6-.52-8.37-3.07-5.91-8.98.56-.07,1.11-.15,1.67-.22.45-.01.91-.03,1.36-.04,0,2-2.5,4.91,1.83,5.39,8.03.9,15.87,3.57,24.16,2.34,2.93-.43,4.56,1.47,4.75,4.45.36,5.5-.73,8.25-4.17,8.02-7.93-.54-15.45,1.61-23.16,2.48-2.11.24-4.18.82-6.26,1.25-.06.39-.13.78-.19,1.18,1.02.71,1.95,1.8,3.08,2.07,5.63,1.36,11.32,2.46,16.97,3.76.91.21,1.69.97,2.53,1.47-3.98.27-7.97.53-11.95.8-.78-.27-1.55-.53-2.33-.8-2.23-.02-4.47-.04-6.7-.05-.51-.23-1.02-.46-1.53-.7Z" style="fill: #b0afae; stroke-width: 0px;"/>
  <path d="M374.9,525.32c-1.88.36-3.76.72-6.04,1.15.43,1.2.81,2.25,1.24,3.46-1.16.44-2.31.89-3.47,1.33-1.25-.02-2.49-.05-3.74-.07-.75-.23-1.5-.46-2.25-.69-3.25,0-6.5,0-9.75,0-.75,0-1.49,0-2.24,0-2.25.23-4.51.46-6.76.69-.5.03-.99.07-1.49.1-.76.04-1.53.08-2.29.12l-7.41-.26c-.75-1.44-1.5-2.88-2.25-4.31,2.3-.01,4.61.12,6.89-.1.96-.09,1.85-.92,2.77-1.41h26.87c0-.26,0-.53,0-.79h-2.86c-1.29-.25-2.57-.7-3.86-.71-6.7-.07-13.39-.03-20.09-.04-.74-.01-1.48-.03-2.22-.04.97-.48,1.93-1.35,2.91-1.38,4.84-.15,9.69.02,14.54-.1,3.95-.1,7.92-.27,11.83-.77,4.43-.56,8.04.77,11.16,3.8-.49,0-.99.02-1.48.03Z" style="fill: #b0afae; stroke-width: 0px;"/>
  <path d="M199.5,526.86c-2.46,5.9-.7,8.45,5.91,8.98,1.76.14,3.69.74,5.14,1.72,2.44,1.64,2.69,5.04.25,6.61-2.27,1.46-5.14,2.07-7.83,2.74-1.72.43-3.74-.13-5.36.48-1.96.74-3.63,2.23-5.43,3.4,1.39,1.94,2.76,3.9,4.2,5.81.46.62,1.11,1.1,1.67,1.65-6.56-1.01-8.85-4.76-7.1-10.81,1.19-4.12,1.59-8.46,2.64-12.63.69-2.71,1.92-5.29,2.9-7.92,1,0,1.99-.01,2.99-.02Z" style="fill: #bfbebd; stroke-width: 0px;"/>
  <path d="M213.77,562.75h6.15c-1.36,1.8-1.83,2.78-2.6,3.38-2.72,2.12-2.66,4.73-1.13,7.3,7.26,12.19,18.22,18.56,32.18,20,3.44.36,6.92.39,10.35.86.84.11,1.53,1.34,2.3,2.05-2.75.02-5.5.05-8.25.07-1.47-2.44-3.35-1.71-5.27-.68-1.99-.02-3.99-.03-5.98-.05-1.55-.75-3.03-1.77-4.66-2.2-7.68-2.02-14.3-5.67-18.98-12.23-3.96-5.55-6.07-11.61-4.1-18.52Z" style="fill: #b0afae; stroke-width: 0px;"/>
  <path d="M213.77,562.75c-1.97,6.91.13,12.97,4.1,18.52,4.68,6.56,11.3,10.21,18.98,12.23,1.63.43,3.11,1.45,4.66,2.2-10.94-.38-20.23-4.57-26.33-13.62-2.63-3.89-3.05-9.29-4.38-14.03-.62-2.2-1.03-4.46-1.54-6.7,0,0,.03-.13.03-.13.99.02,1.97.05,2.96.07.51.49,1.01.97,1.52,1.46h0Z" style="fill: #bfbebd; stroke-width: 0px;"/>
  <path d="M199.5,526.86c-1,0-1.99.01-2.99.02-2.47-.78-4.94-1.57-7.4-2.35.53-.1,1.05-.21,1.58-.31-.28-.14-.55-.29-.83-.43-.03-.24-.04-.47-.03-.71,1.24-.27,2.47-.53,3.71-.8,1.78-.22,3.57-.43,5.35-.65.79,1.01,1.57,2.02,2.39,3.06h-4.5c1.53.69,2.96,1.33,4.4,1.97-.56.07-1.11.15-1.67.22Z" style="fill: #9c9a98; stroke-width: 0px;"/>
  <path d="M247.5,595.74c1.92-1.03,3.8-1.76,5.27.68-1.76-.23-3.51-.46-5.27-.68Z" style="fill: #bfbebd; stroke-width: 0px;"/>
  <path d="M207.77,559.01c.78.27,1.55.53,2.33.8-.27.23-.54.46-.81.69-.51-.02-1.03-.03-1.54-.05l.02-1.44Z" style="fill: #bfbebd; stroke-width: 0px;"/>
  <path d="M199.54,558.26c.51.23,1.02.47,1.53.7-.51-.23-1.02-.47-1.53-.7Z" style="fill: #bfbebd; stroke-width: 0px;"/>
  <path d="M207.75,560.46c.51.02,1.03.03,1.54.05,0,.24,0,.48,0,.72,0,0-.03.13-.03.13-.5-.3-1-.6-1.5-.89Z" style="fill: #b0afae; stroke-width: 0px;"/>
  <path d="M429.57,206.1c-.75-1-1.5-2-2.24-3,.75,1,1.5,2,2.24,3Z" style="fill: #eed85c; stroke-width: 0px;"/>
  <path d="M425.82,200.11c-.5-.5-1-1-1.49-1.5.5.5,1,1,1.49,1.5Z" style="fill: #eed85c; stroke-width: 0px;"/>
  <path d="M366.63,494.53c2.17,3.16,5.88,5.28,5.34,10.16-.65,5.84-4.42,10.41-10.26,10.81-5.95.4-11.92.64-17.88.77-11.2.25-22.49.65-33.24-3.13-3.21-1.13-6.34-3.47-8.59-6.06-2.53-2.92-1.27-6.61,2.13-8.81,1.44-.94,2.97-1.74,4.89-2.85-.88-.41-1.35-.82-1.82-.82-5.74-.05-11.48-.06-17.23-.01-.68,0-1.36.43-2.04.66-.73,0-1.46,0-2.2.01-1.99-2.67-4.41-1.45-6.78-.75-.74,0-1.47,0-2.21,0-1.01-.23-2.02-.46-3.04-.7-.75,0-1.5,0-2.25,0,.02-.96.03-1.91.05-2.87,4.96-.07,9.93-.13,14.89-.2,10.5.02,21,.04,31.5.06,2,1.25,4,2.51,6.01,3.76-.74.26-1.49.52-2.23.77-3.95,1.01-7.93,1.94-11.85,3.05-2.27.64-3.9,1.82-3.97,4.67-.08,2.89.9,5.05,3.52,5.89,6.55,2.09,13.2,3.89,19.8,5.81,2.23,0,4.47,0,6.7.01.98-.11,1.97-.16,2.94-.32,4.71-.79,9.24-2.73,14.24-1.24,1.94.58,4.21.2,6.32.07,5.11-.33,8.93-4.65,8.73-9.74-.19-4.52-4.32-8.22-9.22-8.22-4.92,0-9.84.01-14.77.02-.5-.28-1.01-.57-1.51-.85,8,.02,16,.04,24,.06Z" style="fill: #cecdcd; stroke-width: 0px;"/>
  <path d="M285.74,495.26c.73,0,1.46,0,2.2-.01,6.18.12,7.64,3.34,6.14,8.9-.29,1.06.83,2.52,1.33,3.78.49,1.27,1.57,2.6,1.43,3.78-.57,4.63,2.2,5.89,5.87,6.33,4.17.5,8.39.72,12.54,1.33,1.21.18,4.83-.4,1.95,2.9-3,0-6,0-9.01.01-6.22-.5-12.44-1.15-18.67-1.43-3.25-.14-6.52.39-9.79.61-3.74-.04-7.47-.08-11.21-.11-1.65-1.45-3.29-2.91-5.9-5.21,5.07-.78,9.33-1.53,13.62-2.08,7.52-.96,8.9-2.45,8.72-9.81-.13-5.03-1.8-6.97-6.85-8.22-.79-.19-1.44-.95-2.16-1.44.27-.03.54-.05.8-.08.74,0,1.47,0,2.21,0,2.26.25,4.52.5,6.78.75Z" style="fill: #b0afae; stroke-width: 0px;"/>
  <path d="M366.63,494.53c-8-.02-16-.04-24-.06-1.24-.03-2.47-.06-3.71-.09-1-.21-2.01-.42-3.01-.63-2.25,0-4.5,0-6.75,0-.5-.24-1-.49-1.49-.73-.49-.98-.99-1.96-1.48-2.94,3.3,0,6.61.09,9.9-.1.97-.06,1.88-.93,2.82-1.43,6.48,0,12.96,0,19.44,0,.52,0,1.04,0,1.56,0,2.98.24,5.96.49,8.94.73q2.09,4.17-2.22,5.23Z" style="fill: #b0afae; stroke-width: 0px;"/>
  <path d="M368.85,489.3c-2.98-.24-5.96-.49-8.94-.73.44-.72.88-1.44,1.36-2.22-7.77,0-15.45,0-23.14,0-5.98,0-11.96.02-17.93.03-1.76-.02-3.52-.04-5.28-.06,0-.24,0-.49,0-.73,1.76-.01,3.52-.02,5.27-.03,17.23-.25,34.46-.49,51.69-.74,0,0-.03.04-.03.04,0,1.47-.02,2.93-.02,4.4-.99.02-1.99.04-2.98.06Z" style="fill: #a4a3a2; stroke-width: 0px;"/>
  <path d="M308.19,522.28c3,0,6,0,9.01-.01,1.23.5,2.46.99,3.69,1.49-.71.24-1.42.49-2.13.73-2.7.01-5.42.21-8.09-.06-.89-.09-1.66-1.39-2.48-2.14Z" style="fill: #a4a3a2; stroke-width: 0px;"/>
  <path d="M318.76,524.48c.71-.24,1.42-.49,2.13-.73,5.02,0,10.04-.01,15.05-.02.74.01,1.48.03,2.22.04,0,.24,0,.49-.02.73-4.75.04-9.49.08-14.24.12-1.71-.05-3.43-.1-5.14-.14Z" style="fill: #cecdcd; stroke-width: 0px;"/>
  <path d="M11.49,182.87c16.24,7.88,32.48,15.74,48.7,23.65.85.41,1.51,1.19,2.26,1.8-4.8,2.17-9.78,4.02-14.33,6.61-3.93,2.24-7.96,3.02-12.13,2.13-10.5-2.22-20.93-4.83-31.39-7.23-2-.46-2.27-1.52-1.64-3.28,2.33-6.53,4.59-13.1,6.9-19.64.49-1.37,1.08-2.7,1.63-4.06Z" style="fill: #e5c32a; stroke-width: 0px;"/>
  <path d="M198.8,197.11c7.05,1.48,14.1,2.97,21.15,4.44,1.43.3,2.88.54,4.32.81,1.35,7.09,5.07,13.66,3.88,21.34-.55,3.52.25,7.28.66,10.91.26,2.32,1.5,4.65,1.31,6.88-.67,7.88,2.67,14.98,4.09,22.42,1.11,5.78,3.36,11.34,5.06,17.01.56,1.88.88,3.84,1.51,5.69,1.93,5.59,3.95,11.16,5.95,16.72.99,2.76,2.24,5.45,2.97,8.27,1.05,4.1.42,8.77,4.6,11.67.63.44.99,1.48,1.16,2.3.9,4.34,1.65,8.72,2.54,13.06.74,3.59-.06,7.84,4.22,9.99.46.23.72.99.92,1.56,3.42,9.42,6.75,18.87,10.27,28.25.72,1.91,3.1,3.61,3.03,5.33-.18,4.11,2.45,6.66,4.14,9.74.88,1.61,2.58,2.84,3.22,4.51,2.63,6.84,5.52,13.45,10.38,19.12,4.6,5.36,5.39,12.35,7.38,18.83.94,3.04,2.27,5.99,3.69,8.85.82,1.65,2.12,3.08,3.27,4.55.84,1.07,1.78,2.06,2.68,3.08-3.04.08-6.08.16-9.12.25-1.21-.03-2.43-.07-3.64-.1-1.59-1.72-2.92-3.83-4.83-5.07-4.57-2.98-5.92-7.8-7.83-12.35-.65-1.55-1.29-3.1-2.07-4.59-2.05-3.93-3.88-8.01-6.31-11.68-4.46-6.71-9.32-13.13-12.08-20.86-.89-2.49-3.06-4.49-4.31-6.89-5.76-11.06-11.74-22.04-15.27-34.11-1.87-6.4-3.73-12.81-5.92-19.1-1.72-4.93-4.01-9.66-5.91-14.53-.75-1.93-1.11-4.02-1.63-6.04-1.86-7.29-3.82-14.56-5.54-21.89-1.96-8.36-3.65-16.78-5.53-25.16-1.91-8.5-4.3-16.9-5.75-25.47-1.41-8.34-5.39-15.55-8.41-23.22-3.16-8.02-5.54-16.34-8.27-24.54Z" style="fill: #e1bc25; stroke-width: 0px;"/>
  <path d="M189.06,230.08c2.55.32,3.83,1.83,4.51,4.28,2.77,10.01,5.89,19.93,8.42,30,1.4,5.58,1.83,11.4,2.83,17.1.77,4.37,1.74,8.7,2.62,13.05,1.12,5.52,2.16,11.05,3.38,16.55.65,2.89,1.58,5.72,2.46,8.55,1.71,5.5,3.55,10.96,5.2,16.47,2.09,7,3.73,14.15,6.14,21.03,2.54,7.25,5.77,14.26,8.67,21.38,2.56,6.29,4.73,12.78,7.75,18.85,2.4,4.83,5.78,9.19,8.79,13.72,3,4.51,6.17,8.91,9.08,13.48,3.6,5.65,6.53,11.8,10.67,16.99,2.75,3.46,7.15,5.59,10.75,8.4.93.73,1.61,1.78,2.41,2.68-3.5,0-6.99,0-10.49,0-.69-.74-1.28-1.97-2.09-2.15-8.99-1.98-17.13-5.95-24.6-11.07-2.92-2.01-4.97-5.48-7-8.56-3.66-5.58-6.34-11.93-10.65-16.9-4.56-5.25-5.04-12.25-9.22-17.44-4.54-5.63-6.55-12.35-8.71-19.1-1.84-5.74-5.26-11.08-6.46-16.91-2.31-11.25-8.34-21.49-8.59-33.3-.06-2.91-1.85-5.79-2.85-8.68-.25-.5-.5-1-.75-1.5v-1.5c0-4,.29-8.02-.03-11.99-.51-6.21-1.37-12.4-2.2-18.58-.66-4.86-1.76-9.67-2.18-14.55-.35-4.09-1.92-8.32.56-12.36.28-.45-.25-1.41-.42-2.13-2.07-8.82-2.61-17.52,2.03-25.81Z" style="fill: #d9ac21; stroke-width: 0px;"/>
  <path d="M219.04,457.07c1,0,1.99.02,2.99.02.58.5,1.12,1.33,1.76,1.43,2.56.4,5.16.67,7.75.81,6.77.35,7.54,1.61,6.48,8.1-1.11,6.78.82,9.59,7.29,9.23,6.71-.37,13.47.06,20.19-.15,3.06-.1,6.12-.8,9.14-1.42,2.15-.44,2.51-1.68,1.23-3.54-2.8-4.06-3.94-9.57-9.79-10.93-.29-.07-.41-.83-.61-1.27,1.46.25,2.9.56,4.37.75,10.35,1.35,12.21,2.95,14.44,11.11.93,3.41-.64,4.82-3.33,5.23-5.12.77-10.32.97-15.45,1.7-2.77.39-5.46,1.37-8.7,2.22,2.19,1.62,3.57,2.64,4.95,3.67-20.98.27-41.97.53-62.95.8-.44-1.59-.88-3.17-1.27-4.6,10.68-.98,21.11-2.03,31.56-2.83,3.02-.23,4.35-1.41,4.19-4.38-.05-1,0-2,0-3,0-7.01-2.25-8.69-9.32-7.21-1.9.4-3.93.8-5.8.52-4.14-.62-8.23-1.58-12.3-2.59-2.35-.58-5.19-.95-4.7-4.57,1.96.05,3.93.1,5.89.16.44.5.9,1.45,1.32,1.43,3.56-.13,7.12-.43,10.67-.68Z" style="fill: #a4a3a2; stroke-width: 0px;"/>
  <path d="M265.47,459.36c.2.44.32,1.21.61,1.27,5.85,1.35,6.99,6.87,9.79,10.93,1.29,1.87.92,3.11-1.23,3.54-3.02.62-6.08,1.32-9.14,1.42-6.73.21-13.48-.22-20.19.15-6.47.36-8.4-2.46-7.29-9.23,1.06-6.49.29-7.75-6.48-8.1-2.59-.14-5.19-.41-7.75-.81-.65-.1-1.18-.94-1.76-1.43,11.72-.02,23.45-.04,35.17-.06,1.26.52,2.52,1.05,3.79,1.57,1.5.25,2.99.51,4.49.76Z" style="fill: #9c9a98; stroke-width: 0px;"/>
  <path d="M265.47,459.36c-1.5-.25-2.99-.51-4.49-.76-.29-.55-.58-1.1-.87-1.65,3.54-.19,7.07-.38,10.61-.56.74,3.07,5.46,4.51,9.74,2.96.99,0,1.99.01,2.98.02.97.49,1.9,1.24,2.93,1.43,2.3.42,4.79.2,6.94.98,1.2.43,2.86,2.67,2.58,3.54-1.1,3.47.27,5.71,2.55,7.97.93.92,1.9,2.2,2.07,3.42.36,2.54,1.9,3.29,4.02,3.61,5.82.89,11.63,1.77,17.55,2.67-.71.96-1.3,1.76-1.89,2.57-1.76.01-3.52.02-5.28.03-9.77-.47-19.54-.95-29.31-1.42-7.95-.04-15.91-.09-23.86-.13-1.38-1.02-2.75-2.04-4.95-3.66,3.24-.85,5.93-1.83,8.7-2.22,5.13-.72,10.33-.93,15.45-1.7,2.69-.4,4.26-1.82,3.33-5.23-2.23-8.16-4.08-9.76-14.44-11.11-1.46-.19-2.91-.5-4.37-.75Z" style="fill: #b0afae; stroke-width: 0px;"/>
  <path d="M201.16,456.17c-.49,3.63,2.34,3.99,4.7,4.57,4.07,1.01,8.16,1.97,12.3,2.59,1.87.28,3.9-.12,5.8-.52,7.07-1.48,9.31.21,9.32,7.21,0,1-.04,2,0,3,.15,2.97-1.18,4.15-4.19,4.38-10.45.8-20.88,1.85-31.56,2.83.39,1.42.83,3.01,1.27,4.6-.49.03-.98.06-1.47.09-.51-.28-1.02-.56-1.53-.84-.82-1.16-1.64-2.32-2.51-3.55,3.96-3.11,7.74-4.47,12.34-2.84,2.45.87,5.43.9,6.36-1.93.69-2.13.25-4.88-.44-7.13-.4-1.31-2.13-2.45-3.52-3.16-1.26-.64-2.88-.57-4.34-.81-5.38-.89-7.09-3.67-5.6-9.13,1.02.21,2.04.43,3.07.64Z" style="fill: #b0afae; stroke-width: 0px;"/>
  <path d="M283.45,459.36c-.99,0-1.99-.01-2.98-.02,0-.97,0-1.94.01-2.9,2.96.1,5.92.21,8.88.31,11.01-.14,22.02-.27,33.04-.41.95.5,1.88,1.39,2.86,1.44,3.32.18,6.67-.04,9.99.14.99.05,1.94.9,2.91,1.38,0,.28,0,.55.01.82-3.22-.18-6.43-.37-9.65-.55-.52-.05-1.05-.11-1.57-.17-.76.23-1.52.47-2.28.7-.49,0-.99,0-1.48.01-4.93,1.09-9.94,1.92-14.77,3.34-3.64,1.08-5.14,4.3-3.3,6.44,1.37,1.59,3.33,2.86,5.27,3.7,2.82,1.21,5.81,2.14,8.82,2.72,3.26.62,6.63.7,9.95,1.02,2.24.23,4.48.47,6.72.7,1.96-.19,3.92-.39,5.88-.57,2.82-.26,5.64-.69,8.46-.71,3.2-.02,6.43.63,9.61.45,3.77-.21,6.83-1.9,8.29-5.76,1.58-4.18-.17-7.17-3.26-9.74-.66-.55-1.33-1.09-1.99-1.64.43-.15.9-.51,1.28-.43,4.52.98,8.02,5.05,7.68,8.85-.5,5.71-4.71,10.16-9.94,10.3-4.3.11-8.61-.05-12.9.06-7.08.18-14.16.69-21.24.65-7.93-.04-15.33-2.64-22.61-5.57-2.95-1.19-4.46-3.76-4.12-6.43.23-1.81,2.49-3.41,3.98-4.97.58-.61,1.53-.86,2.31-1.28-.06-.43-.12-.86-.18-1.29-7.9-.2-15.8-.41-23.7-.61Z" style="fill: #cecdcd; stroke-width: 0px;"/>
  <path d="M198.09,455.53c-1.49,5.46.21,8.24,5.6,9.13,1.46.24,3.08.18,4.34.81,1.39.7,3.12,1.84,3.52,3.16.69,2.25,1.13,4.99.44,7.13-.92,2.83-3.9,2.8-6.36,1.93-4.6-1.63-8.38-.27-12.34,2.84.87,1.23,1.69,2.39,2.51,3.55,0,.3,0,.59.01.89-.44.01-.87.03-1.31.04-1.07-.06-2.13-.12-3.2-.18-1.97-10.14-.03-19.86,3.13-29.46,1.22.05,2.44.11,3.65.16Z" style="fill: #bfbebd; stroke-width: 0px;"/>
  <path d="M280.48,456.44c0,.97,0,1.94-.01,2.9-4.28,1.55-9.01.11-9.74-2.96,3.25.02,6.51.04,9.76.06Z" style="fill: #bfbebd; stroke-width: 0px;"/>
  <path d="M219.04,457.07c-3.56.25-7.11.56-10.67.68-.42.02-.88-.93-1.32-1.43,4,.25,7.99.5,11.99.75Z" style="fill: #9c9a98; stroke-width: 0px;"/>
  <path d="M260.11,456.95c.29.55.58,1.1.87,1.65-1.26-.52-2.52-1.05-3.79-1.57.97-.03,1.94-.06,2.91-.08Z" style="fill: #a4a3a2; stroke-width: 0px;"/>
  <path d="M193.54,522.27c-1.24.27-2.47.53-3.71.8.22-3.63.65-7.25.6-10.88-.09-7.38,1.22-14.47,3.82-21.35.17-.44.03-.98.04-1.48.05-.15.11-.31.16-.46,1.46.36,2.91.73,4.37,1.09-2.86,7.07-1.22,9.74,6.49,10.57,4.46.48,6.5,3.51,5.25,7.79-1.11,3.77-3.24,5.19-7.76,4-3.26-.86-5.01,1.35-7.47,2.16-4.41,1.45-2.64,4.04-1.8,6.64.11.34.01.74,0,1.12Z" style="fill: #bfbebd; stroke-width: 0px;"/>
  <path d="M317.93,137.17c1.46,3.09.59,5.41-.99,8.56-2.53,5.04-7.03,9.82-5.16,16.46.37,1.3-.64,2.93-.51,4.36.33,3.82.72,7.66,1.48,11.41.75,3.7-.07,5.53-3.9,5.55-4.4.02-5.59,1.77-7.12,5.97-1.26,3.47-1.77,6.76-2.61,10.2-1.1,4.55-2.38,8.82-2.34,13.68.05,6.65-1.35,13.29-1.7,19.96-.16,3.01.85,6.05,1.09,9.1.36,4.66.22,9.37.83,13.99.95,7.22,2.35,14.38,3.56,21.56,1.31,7.81,1.83,15.85,4.12,23.36,2.73,8.96,6.74,17.55,10.65,26.1,1.67,3.64,5.75,6.49,6.49,10.15,1.01,4.99,4.05,8.41,6.28,12.47,3.68,6.7,8.53,12.29,15.09,16.41,1.56.98,2.23,3.28,3.7,4.49,3.8,3.12,8.08,5.68,11.7,8.98,5.09,4.65,9.77,9.76,14.6,14.69.43.44.6,1.3,1.08,1.48,4.25,1.66,4.2,5.51,4.96,9.08.79,3.73-.07,6.91-1.77,10.26-1.37,2.68-1.44,6.01-2.72,8.75-2.19,4.71-4.75,9.27-7.39,13.75-2.89,4.92-3.42,8.97,2.05,12.05.52.29.66,1.25.97,1.89-1.49,0-2.99.01-4.48.02-1.99-.97-3.88-2.33-5.98-2.84-5.45-1.33-6.89-6.21-5.83-10.02,1.52-5.48,3.04-11,5.22-16.23,1.58-3.79,2.26-7.32.5-11.01-2.26-4.73-4.27-9.69-7.28-13.91-3.14-4.39-7.5-7.88-11.04-12.01-4.1-4.79-7.86-9.86-11.8-14.79-3.64-4.55-7.71-8.81-10.89-13.66-4.27-6.52-7.93-13.45-11.73-20.26-2.22-3.97-4.57-7.93-6.22-12.14-2.55-6.51-4.55-13.24-6.76-19.89-.35-1.06-.6-2.15-.88-3.23-1.84-7.13-3.68-14.27-5.5-21.4-1.43-5.61-2.92-11.2-4.23-16.84-.81-3.48-1.23-7.05-2-10.54-2.05-9.38-4.1-18.76-6.33-28.1-1.58-6.59-3.69-13.07-5.13-19.69-1.52-7.03-8.4-11.88-7.8-19.71.04-.54-.37-1.24-.78-1.67-3.39-3.59-5.25-8.78-10.83-10.1-.92-.22-1.6-1.45-2.39-2.22,2.47-2.53,4.84-5.18,7.46-7.55,2.63-2.38,5.51-4.48,8.28-6.7,2.49-1.73,5.49-3.04,7.33-5.29,2.54-3.09,3.67-7.41,6.39-10.26,3.01-3.16,6.19-7.11,11.31-6.87,6.93.33,13.84,1.05,20.76,1.59,2.72.21,5.43.4,8.15.6Z" style="fill: #eacd3b; stroke-width: 0px;"/>
  <path d="M248.25,171.64c.79.77,1.47,2,2.39,2.22,5.58,1.32,7.45,6.51,10.83,10.1.41.43.82,1.13.78,1.67-.59,7.83,6.28,12.68,7.8,19.71,1.43,6.62,3.55,13.09,5.13,19.69,2.23,9.34,4.28,18.72,6.33,28.1.76,3.49,1.19,7.06,2,10.54,1.31,5.64,2.8,11.23,4.23,16.84,1.82,7.14,3.66,14.27,5.5,21.4.28,1.08.52,2.18.88,3.23,2.21,6.64,4.21,13.37,6.76,19.89,1.65,4.22,4,8.17,6.22,12.14,3.8,6.82,7.46,13.75,11.73,20.26,3.18,4.85,7.25,9.11,10.89,13.66,3.94,4.93,7.7,10,11.8,14.79,3.54,4.13,7.9,7.62,11.04,12.01,3.01,4.22,5.02,9.18,7.28,13.91,1.76,3.69,1.08,7.21-.5,11.01-2.18,5.23-3.71,10.75-5.22,16.23-1.06,3.81.38,8.68,5.83,10.02,2.1.51,3.99,1.87,5.98,2.84-1.43.22-2.85.63-4.28.63-7.57.03-15.14-.04-22.71-.08-.34-.74-.52-1.93-1.06-2.13-2.98-1.09-2.91-3.47-2.66-5.86.64-6.28,1.46-12.53,2.02-18.81.12-1.38-.07-3.29-.92-4.18-3.2-3.37-3.76-7.68-4.94-11.8-.41-1.42-1.08-2.78-1.78-4.09-2.92-5.42-5.76-10.89-8.91-16.18-1.9-3.19-4.29-6.08-6.49-9.09-5.78-7.88-10.54-16.32-14.43-25.31-2.85-6.59-6.8-12.77-9.13-19.52-4.11-11.89-7.22-24.12-11.01-36.12-2.07-6.53-4.91-12.82-6.99-19.35-2.59-8.14-4.77-16.41-7.11-24.63-1.25-4.38-2.31-8.82-3.73-13.14-2.19-6.66-4.59-13.26-6.95-19.86-2.03-5.68-4.36-11.27-6.1-17.04-1.26-4.16-4.17-6.32-7.69-8.09-1.22-.61-2.49-1.26-3.8-1.51-10.22-2-16.58-9.95-24.37-15.68-1.72-1.26-3.38-2.61-5.06-3.93,11.59-1.02,23.19-1.99,34.77-3.1,1.92-.18,3.79-.92,5.68-1.4Z" style="fill: #e8c933; stroke-width: 0px;"/>
  <path d="M311.2,452.47c-.9-1.02-1.84-2.01-2.68-3.08-1.15-1.47-2.45-2.9-3.27-4.55-1.42-2.86-2.75-5.81-3.69-8.85-1.99-6.48-2.78-13.47-7.38-18.83-4.86-5.67-7.75-12.28-10.38-19.12-.64-1.67-2.34-2.9-3.22-4.51-1.69-3.08-4.32-5.63-4.14-9.74.08-1.72-2.31-3.42-3.03-5.33-3.52-9.38-6.85-18.83-10.27-28.25-.21-.57-.47-1.33-.92-1.56-4.28-2.15-3.48-6.4-4.22-9.99-.89-4.35-1.64-8.72-2.54-13.06-.17-.83-.54-1.87-1.16-2.3-4.18-2.9-3.55-7.58-4.6-11.67-.72-2.83-1.98-5.51-2.97-8.27-2-5.57-4.02-11.13-5.95-16.72-.64-1.85-.95-3.81-1.51-5.69-1.7-5.67-3.95-11.23-5.06-17.01-1.42-7.45-4.76-14.54-4.09-22.42.19-2.24-1.04-4.56-1.31-6.88-.41-3.63-1.2-7.39-.66-10.91,1.19-7.68-2.53-14.25-3.88-21.34,1.56,1.12,3.44,1.97,4.63,3.39,4.3,5.16,7.66,10.81,10.02,17.25,2.84,7.76,7.02,15.01,10.16,22.67,3.69,8.99,6.92,18.18,10.31,27.29,2.23,6,4.5,11.98,6.54,18.05,1.66,4.93,2.89,10,4.52,14.94,2.16,6.57,4.63,13.03,6.78,19.6,2.23,6.81,4.22,13.69,6.32,20.54.26.83.41,1.72.81,2.48,3.07,5.73,6.28,11.38,9.26,17.15,1.89,3.66,3.4,7.51,5.21,11.21,3.7,7.53,7.52,15.01,11.26,22.53,1.42,2.86,2.75,5.76,4.14,8.64.7,1.45,1.18,3.09,2.18,4.29,3.27,3.95,4.24,8.53,4.57,13.48.2,3.06,1.04,6.08,1.67,9.1.3,1.46,1.18,2.9,1.09,4.31-.31,4.76.46,8.86,5.07,11.41.34.19.24,1.16.34,1.76-5.99,0-11.98,0-17.97.01Z" style="fill: #e5c32a; stroke-width: 0px;"/>
  <path d="M283.45,459.36c7.9.2,15.8.41,23.7.61.06.43.12.86.18,1.29-.78.42-1.73.67-2.31,1.28-1.49,1.56-3.75,3.17-3.98,4.97-.34,2.67,1.17,5.24,4.12,6.43,7.28,2.93,14.68,5.52,22.61,5.57,7.08.04,14.16-.48,21.24-.65,4.3-.11,8.61.06,12.9-.06,5.22-.14,9.43-4.58,9.94-10.3.33-3.8-3.16-7.87-7.68-8.85-.38-.08-.85.28-1.28.43-.74,0-1.48-.02-2.22-.02-.25-.41-.5-1.17-.74-1.16-6.01.1-12.01.28-18.02.45-1.25-.01-2.5-.02-3.74-.04-.97-.48-1.92-1.33-2.91-1.38-3.32-.18-6.67.04-9.99-.14-.98-.05-1.91-.94-2.86-1.44,5.08-.24,10.16-.58,15.24-.71,10.9-.28,21.8-.45,32.7-.68,1.74-.04,3.49-.13,5.23-.2.76,6.42,1.52,12.84,2.3,19.26.4,3.31-.78,5.68-3.7,7.45-1.05.64-1.54,2.21-2.28,3.35-17.23.25-34.46.49-51.69.74.59-.8,1.19-1.61,1.89-2.57-5.92-.9-11.73-1.78-17.55-2.67-2.12-.32-3.67-1.07-4.02-3.61-.17-1.23-1.14-2.5-2.07-3.42-2.27-2.25-3.65-4.5-2.55-7.97.28-.87-1.38-3.11-2.58-3.54-2.15-.78-4.64-.55-6.94-.98-1.03-.19-1.95-.93-2.93-1.43Z" style="fill: #bfbebd; stroke-width: 0px;"/>
  <path d="M198.82,490c-1.46-.36-2.91-.72-4.37-1.09.77-.82,1.54-1.63,2.24-2.37-.4-.28-1.3-.91-2.2-1.54.44-.01.88-.03,1.31-.04.51-.02,1.01-.03,1.52-.05.49-.03.98-.06,1.47-.09,20.98-.27,41.97-.53,62.95-.8,7.95.04,15.91.09,23.86.13.73.48,1.53.89,2.18,1.46,1.31,1.15,2.54,2.4,3.8,3.6-1.71,0-3.42.01-5.14.02-.8-.23-1.61-.68-2.4-.66-7.44.2-14.89.43-22.32.8-1.3.06-2.56.81-3.84,1.24-1.46.02-2.92.04-4.38.06-1.31-.21-2.62-.61-3.93-.61-11.66-.05-23.32-.03-34.98-.04-2.77,0-5.55-.05-8.32-.07-1-.19-2-.39-3-.58-1.48.21-2.97.41-4.45.62Z" style="fill: #727272; stroke-width: 0px;"/>
  <path d="M344.39,281.56c-.02-7.73,2.08-14.8,6.15-21.1,1.76-2.72,4.64-4.86,7.36-6.77,2.89-2.03,6.12-3.62,9.33-5.12,5.61-2.63,11.22-2.46,16.71.52.52.28,1.19.47,1.77.44,8.38-.43,13.89,5,20.03,9.42,6.09,4.38,9.73,10.42,12.88,16.88.75,1.53.58,3.51.78,5.3.21,1.94.14,3.94.58,5.83,2.22,9.63-.81,18.37-6.36,25.59-3.47,4.52-7.72,9.23-14.87,10.2-4.5.61-8.69,3.46-13.82,3.34-18.83-.44-31.8-10.73-37.62-27.39-1.88-5.4-2-11.41-2.93-17.14ZM379.7,314.29c10.86-1.48,20.68-5.1,26.01-16.72,2.86-6.24,1.93-11.8-.76-17.51-3.68-7.83-9.33-14-16.83-18.19-3.1-1.74-6.57-3.39-10.58-2.1-1.88.6-4.04.34-6.07.5-.96.07-2.19-.13-2.84.38-3.38,2.66-7.17,5.06-9.77,8.38-5.92,7.56-5.4,24.23-.23,31.83,1.32,1.93,3.34,3.37,4.73,5.26,3.91,5.33,9.32,7.47,16.33,8.18Z" style="fill: #efda62; stroke-width: 0px;"/>
  <path d="M189.06,230.08c-4.63,8.29-4.1,16.99-2.03,25.81.17.72.7,1.68.42,2.13-2.49,4.04-.91,8.27-.56,12.36.41,4.87,1.52,9.69,2.18,14.55.83,6.18,1.69,12.37,2.2,18.58.33,3.97.04,7.99.03,11.99-.58-2.86-.94-5.79-1.77-8.57-1.73-5.74-3.78-11.39-5.55-17.12-.4-1.29-.37-2.78-.29-4.16.14-2.32.57-4.41-2.92-4.84-1-.12-1.71-2.55-1.87-4.18-2.14-1.12-4.28-2.24-6.42-3.36-2.99-.74-5.54-.17-7.71,3.37-1.22,1.99-5.69,1.99-8.69,2.89-2.66-10.1-5.7-20.12-7.82-30.33-1.03-4.94-.33-10.24-.42-15.38,2.72-1.48,5.46-2.92,8.14-4.47,3.49-2.01,6.81-4.36,10.44-6.07,2.48-1.17,5.37-2.1,8.07-2.09,8.62.03,12.5,2.61,14.55,8.88Z" style="fill: #d7ab26; stroke-width: 0px;"/>
  <path d="M191.3,316.99c.25.5.5,1,.75,1.5-.25-.5-.5-1-.75-1.5Z" style="fill: #d7ab26; stroke-width: 0px;"/>
  <path d="M209.29,561.22c0-.24,0-.48,0-.72.27-.23.54-.46.81-.69,3.98-.26,7.97-.53,11.95-.79,5.04,0,10.08-.01,15.12-.01,15.18,0,30.37,0,45.55,0,16.31.33,32.61.64,48.92,1.04.71.02,1.39.84,2.09,1.29-6.97.03-13.94.05-20.91.08-3.06-.01-6.12-.03-9.17-.04-.71,0-1.43,0-2.14.01-3.26-.02-6.51-.05-9.77-.08-25.99-.01-51.97-.02-77.96-.04-.51.01-1.02.03-1.52.04-.99-.02-1.97-.05-2.96-.07Z" style="fill: #9c9a98; stroke-width: 0px;"/>
  <path d="M212.25,561.3c.51-.01,1.02-.03,1.52-.04,0,.5,0,1,0,1.5-.51-.49-1.01-.97-1.52-1.46Z" style="fill: #b0afae; stroke-width: 0px;"/>
  <path d="M333.72,561.31c-.7-.45-1.38-1.27-2.09-1.29-16.3-.4-32.61-.71-48.92-1.04-3.59-1.25-7.1-2.86-10.79-3.62-3.12-.65-5.71-1.68-8.47-4.23,2.17-1.06,3.63-2.14,5.25-2.49,3.5-.75,7.08-1.16,10.63-1.64,4.77-.64,6.45-2.54,6.38-7.35-.07-4.61-1.78-6.37-6.45-6.94-.9-.11-1.71-.92-2.56-1.41.27-.03.54-.05.8-.08,1.74,0,3.48.02,5.21.02,1.01.24,2.02.48,3.03.72,2.49,0,4.97.02,7.46.02.78.27,1.55.61,2.35.79,2.21.5,2.38,1.47,1.38,3.48-.71,1.44-1.13,3.5-.67,4.97,1.79,5.67,4.68,9.86,11.67,10.51,9.19.85,18.3,2.69,27.39,4.37,2.69.5,5.14,2.33,7.83,2.8,4.71.83,9.52,1.09,14.75,1.64-3.67.78-6.84,1.46-10.01,2.13-4.72-.46-9.44-.92-14.17-1.37Z" style="fill: #b0afae; stroke-width: 0px;"/>
  <path d="M282.71,531.26c-1.74,0-3.48-.02-5.21-.02-.72-.49-1.44-1.38-2.17-1.38-2.13-.02-2.54-1.09-2.28-2.85,8.46-.05,16.93-.1,25.39-.16,2.3.23,4.6.61,6.91.66,6.67.14,13.59-1.2,19.32,3.76v.78c-.99,0-1.98.02-2.97.03-3.87.81-7.87,1.25-11.54,2.59-1.94.71-4.04,2.75-4.64,4.64-.34,1.07,1.92,3.97,3.51,4.47,6.11,1.92,12.42,3.19,18.66,4.71.99,0,1.99,0,2.98,0,0,.27,0,.54,0,.8-4.48-.22-8.97-.3-13.43-.72-2.57-.24-5.07-1.14-7.63-1.56-5.04-.82-10.81-6.1-6.9-11.33.96-1.28,2.54-2.11,4.57-3.73-5.16-.89-9.58-1.28-14.07.05-2.49,0-4.97-.02-7.46-.02-1.01-.24-2.02-.48-3.03-.72Z" style="fill: #cecdcd; stroke-width: 0px;"/>
  <path d="M333.72,561.31c4.72.46,9.44.92,14.17,1.37-.07,4.01-3.09,4.83-6.09,5.24-5.01.69-10.07,1.43-15.11,1.43-3.89,0-7.82-.92-11.66-1.77-2.31-.51-3.48-2.3-3.09-4.82.29-.46.58-.91.86-1.37,6.97-.03,13.94-.05,20.91-.08Z" style="fill: #cecdcd; stroke-width: 0px;"/>
  <path d="M362.89,531.19c1.25.02,2.49.05,3.74.07,1.5,2.36,3.75,4.54,4.34,7.1,1.49,6.48-5.07,11.64-10.57,11.64-4.73,0-9.47-.09-14.2.03-3.46.09-6.91.59-10.37.64-.97.01-1.95-.9-2.92-1.39.5-.27,1.01-.53,1.51-.79,1,0,1.99,0,2.99,0,1.72-.11,3.46-.15,5.17-.35,2.29-.27,4.57-.91,6.86-.93,3.45-.03,6.92.67,10.35.46,5.66-.34,9.36-4.29,8.15-9.22-.59-2.41-3.3-4.31-5.04-6.44,0-.27,0-.54.01-.81Z" style="fill: #cecdcd; stroke-width: 0px;"/>
  <path d="M312.81,561.39c-.29.46-.58.91-.86,1.37-1.93,0-3.87.12-5.77-.09-.88-.1-1.69-.86-2.53-1.33,3.06.02,6.12.03,9.17.05Z" style="fill: #b0afae; stroke-width: 0px;"/>
  <path d="M334.4,548.49c-.5.26-1.01.53-1.51.79-.74,0-1.48,0-2.23,0,0-.27,0-.54,0-.8,1.24,0,2.49,0,3.73,0Z" style="fill: #ddd; stroke-width: 0px;"/>
  <path d="M276.7,531.31c.85.49,1.66,1.3,2.56,1.41,4.67.57,6.39,2.32,6.45,6.94.07,4.81-1.61,6.71-6.38,7.35-3.55.48-7.13.89-10.63,1.64-1.62.35-3.08,1.43-5.25,2.49,2.77,2.55,5.36,3.58,8.47,4.23,3.69.77,7.2,2.38,10.79,3.62-15.18,0-30.37,0-45.55,0-5.04,0-10.08,0-15.12.01-.84-.5-1.62-1.26-2.53-1.47-5.64-1.3-11.34-2.4-16.97-3.76-1.13-.27-2.06-1.36-3.08-2.07.06-.39.13-.78.19-1.18,2.09-.43,4.15-1.02,6.26-1.25,7.71-.86,15.24-3.01,23.16-2.48,3.45.23,4.53-2.52,4.17-8.02-.19-2.99-1.82-4.89-4.75-4.45-8.28,1.23-16.12-1.45-24.16-2.34-4.33-.48-1.82-3.39-1.83-5.39,1.25.03,2.49.06,3.74.1,2.57,2.59,5.7,2.52,9.14,2.63,6.91.22,13.78,1.37,20.69,1.9,5.41.42,6.13,1.42,3.83,6.21-1.76,3.65.04,6.87,4.04,6.44,2.82-.31,5.83-1.31,8.19-2.85,3.52-2.3,7.31-2.04,9.71,1.6,1.81,2.75,4.08.95,6.04.51,1.04-.23,2.75-1.83,2.6-2.33-.62-2.04-1.42-4.39-2.94-5.72-4-3.51-9.14-4.17-14.27-4.58-2.37-.19-5.37.29-5.04-3.68,1.25,0,2.5-.01,3.74-.02,1.5.24,3,.49,4.5.73,1.34,3.45,4.08,2.71,6.73,2.24.5,0,.99.01,1.49.02.86,2.28,2.26,1.76,3.76.73,1.24.02,2.48.03,3.72.05.51.23,1.02.47,1.53.7.99,0,1.98.02,2.98.03Z" style="fill: #a4a3a2; stroke-width: 0px;"/>
  <path d="M252,526.81c-1.25,0-2.5.01-3.74.02-12.19-.26-24.38-.55-36.57-.74-1.8-.03-3.61.4-5.42.62-1.25-.03-2.49-.06-3.74-.1-.45.01-.91.03-1.36.04-1.43-.64-2.86-1.29-4.4-1.97h4.5c-.81-1.04-1.6-2.05-2.39-3.06.97-.01,1.94-.03,2.91-.04,1.75-.02,3.49-.04,5.24-.05,7.24-.04,14.47-.08,21.71-.12,1.26,0,2.52,0,3.78,0,12-.02,23.99-.04,35.99-.06,3.74.04,7.47.08,11.21.12,1.25.85,2.49,1.71,3.74,2.56-.04.43-.08.85-.13,1.28-3.22,0-6.46-.13-9.67.06-1.28.08-2.52.86-3.78,1.33-2.22.03-4.45.05-6.67.08-3.74.01-7.49.03-11.23.04Z" style="fill: #727272; stroke-width: 0px;"/>
  <path d="M334.4,548.49c-1.24,0-2.49,0-3.73,0-.99,0-1.99,0-2.98,0-4.16-2.24-7.38-6.25-12.85-6.11-1.68.04-3.4-1.74-5.1-2.69,1.47-1.26,2.88-2.58,4.43-3.74.42-.32,1.32.04,1.81-.24,1.95-1.14,3.82-2.4,5.72-3.62.99,0,1.98-.02,2.97-.03,0,.27,0,.54.01.81-.08.36-.07.78-.26,1.07-2.85,4.37.42,11.57,5.62,12.32,6.54.95,8.72-.37,11.73-6.35,1.46-2.9.54-4.6-1.84-6.21-.77-.52-1.23-1.51-1.83-2.29.76-.04,1.53-.08,2.29-.12.5.25,1,.5,1.5.76.49,0,.99,0,1.48.01,2.78,5.18,9.64,5.18,13.52,0,.49,0,.97,0,1.46,0,1,.77,1.91,1.71,3.01,2.28,3.71,1.91,4.94,6.25,2.29,8.43-3.17,2.6-8.66,3.04-12.38,1.12-1.18-.61-2.86-1.6-3.73-1.19-3.51,1.67-6.8,3.81-10.17,5.78-1,0-1.99,0-2.99,0Z" style="fill: #eaeaea; stroke-width: 0px;"/>
  <path d="M338.11,531.4c.6.78,1.06,1.76,1.83,2.29,2.38,1.61,3.3,3.31,1.84,6.21-3.01,5.98-5.19,7.29-11.73,6.35-5.2-.75-8.48-7.96-5.62-12.32.19-.29.18-.71.26-1.07.49-.01.99-.02,1.48-.03.51-.25,1.03-.49,1.54-.74.03-.22.05-.45.06-.68.98-.09,1.95-.17,2.93-.26,2.47.09,4.94.17,7.41.26Z" style="fill: #fefefe; stroke-width: 0px;"/>
  <path d="M330.7,531.14c-.98.09-1.95.17-2.93.26-1.03-.05-2.07-.1-3.1-.14-5.72-4.95-12.65-3.62-19.32-3.76-2.31-.05-4.61-.43-6.91-.66,1.03-.27,2.05-.77,3.08-.78,6.72-.05,13.45,0,20.17.02l6.76.75c.75,1.44,1.5,2.88,2.25,4.31Z" style="fill: #bfbebd; stroke-width: 0px;"/>
  <path d="M323.9,524.63c4.75-.04,9.49-.08,14.24-.12,7.99,0,15.98,0,23.97.01h2.86c0,.26,0,.53,0,.79-8.96,0-17.91,0-26.86,0-4.72.01-9.44.02-14.16.04-.02-.24-.04-.48-.05-.72Z" style="fill: #a4a3a2; stroke-width: 0px;"/>
  <path d="M323.95,525.35c4.72-.01,9.44-.03,14.16-.04-.92.49-1.81,1.32-2.77,1.41-2.28.22-4.59.09-6.89.1-2.25-.25-4.5-.5-6.76-.75.75-.24,1.5-.49,2.26-.73Z" style="fill: #cecdcd; stroke-width: 0px;"/>
  <path d="M362.11,524.52c-7.99,0-15.98,0-23.97-.01.01-.24.02-.49.02-.73,6.7,0,13.39-.04,20.09.03,1.29.01,2.58.46,3.86.71Z" style="fill: #bfbebd; stroke-width: 0px;"/>
  <path d="M358.37,532.06c-.49,0-.97,0-1.46,0-2.01-.02-4.03-.04-6.04-.06,0-.5.01-1,.02-1.49,3.25,0,6.5,0,9.75,0,.01.49.02.98.03,1.47-.77.03-1.54.05-2.3.08Z" style="fill: #cecdcd; stroke-width: 0px;"/>
  <path d="M343.38,532.05c-.49,0-.99,0-1.48-.01,0-.29,0-.57-.01-.86,2.25-.23,4.51-.46,6.76-.69,0,.5.01,1,.02,1.5-1.76.02-3.52.03-5.28.05Z" style="fill: #cecdcd; stroke-width: 0px;"/>
  <path d="M348.67,532c0-.5-.01-1-.02-1.5.75,0,1.49,0,2.24,0,0,.5-.01,1-.02,1.49-.73,0-1.47,0-2.2,0Z" style="fill: #bfbebd; stroke-width: 0px;"/>
  <path d="M360.67,531.98c-.01-.49-.02-.98-.03-1.47.75.23,1.5.46,2.25.69,0,.27,0,.54-.01.81-.74,0-1.47-.01-2.21-.02Z" style="fill: #bfbebd; stroke-width: 0px;"/>
  <path d="M341.89,531.18c0,.29,0,.57.01.86-.5-.25-1-.5-1.5-.76.5-.03.99-.07,1.49-.1Z" style="fill: #ddd; stroke-width: 0px;"/>
  <path d="M201.8,521.58c-.97.01-1.94.03-2.91.04-1.78.22-3.56.44-5.35.65,0-.37.1-.78,0-1.12-.84-2.59-2.61-5.19,1.8-6.64,2.46-.81,4.22-3.03,7.47-2.16,4.52,1.19,6.65-.23,7.76-4,1.26-4.28-.79-7.31-5.25-7.79-7.71-.82-9.35-3.5-6.49-10.57,1.48-.21,2.97-.42,4.45-.62-.4,3.31.3,5.06,4.38,5.45,7.1.68,14.04,2.31,21.31,1.36,4.28-.56,5.77,1.41,5.79,5.72.01,2.12-.21,4.26.05,6.35.46,3.8-1.68,5.33-4.86,5.68-6.14.68-12.32,1.08-18.48,1.62-3.89.34-7.77.73-12.67,1.19,1.3,1.76,2.15,2.9,3,4.05,0,.26,0,.53.01.79Z" style="fill: #b0afae; stroke-width: 0px;"/>
  <path d="M338.92,494.38c1.24.03,2.47.06,3.71.09.5.28,1.01.57,1.51.85,3.43,5.72,3.81,5.83,9.05,2.69,3.41-2.05,8.57-1.14,10.8,1.9,1.98,2.71,1.45,6.41-1.23,8.62-2.78,2.28-8.54,2.51-11.44.31-2.31-1.75-4.12-1.91-6.53.25-2.08,1.87-4.98,2.83-7.47,4.26-.56.32-.95.94-1.43,1.42-2.23,0-4.47,0-6.7-.01-5.02-2.48-9.19-6.55-15.04-7.59-1.6-.28-2.92-2.18-4.37-3.33,1.29-1.37,2.47-2.88,3.91-4.07.68-.56,2-.29,2.8-.78,1.81-1.1,3.48-2.42,5.2-3.66.74-.26,1.49-.52,2.23-.77,1.02.05,2.04.1,3.06.15-.62.77-1.42,1.47-1.83,2.34-.92,1.99-2.51,4.19-2.24,6.07.33,2.28,2.18,4.41,3.61,6.43,2.31,3.25,7.15,3.94,10.71,2.13,3.96-2.02,3.99-6.1,5.27-9.43,1.02-2.65-1.14-4.29-3.12-5.76-.38-.28-.35-1.12-.51-1.7.02-.13.04-.26.04-.39Z" style="fill: #eaeaea; stroke-width: 0px;"/>
  <path d="M335.89,514.77c.47-.48.86-1.1,1.43-1.42,2.5-1.43,5.39-2.39,7.47-4.26,2.41-2.16,4.22-2,6.53-.25,2.9,2.2,8.66,1.98,11.44-.31,2.69-2.2,3.21-5.91,1.23-8.62-2.23-3.04-7.39-3.95-10.8-1.9-5.24,3.14-5.62,3.03-9.05-2.69,4.92,0,9.84-.02,14.77-.02,4.9,0,9.03,3.7,9.22,8.22.21,5.09-3.61,9.42-8.73,9.74-2.11.13-4.38.51-6.32-.07-5-1.49-9.54.45-14.24,1.24-.97.16-1.96.22-2.94.32Z" style="fill: #ddd; stroke-width: 0px;"/>
  <path d="M321.69,495.34c-1.73,1.23-3.39,2.56-5.2,3.66-.8.48-2.11.22-2.8.78-1.44,1.19-2.62,2.69-3.91,4.07,1.45,1.15,2.77,3.05,4.37,3.33,5.85,1.03,10.01,5.11,15.04,7.59-6.61-1.92-13.25-3.72-19.8-5.81-2.63-.84-3.6-3-3.52-5.89.08-2.85,1.71-4.03,3.97-4.67,3.92-1.11,7.9-2.05,11.85-3.05Z" style="fill: #ddd; stroke-width: 0px;"/>
  <path d="M286.45,489.24c1.71,0,3.42-.01,5.14-.02,5.23-.22,10.46-.39,15.69-.73.6-.04,1.14-.95,1.71-1.46.47,0,.94,0,1.41,0,1.51.5,3.02,1.01,4.52,1.51,1.01.01,2.02.02,3.03.04-.01.73-.03,1.47-.04,2.2-10.5-.02-21-.04-31.5-.06.01-.5.02-1,.04-1.5Z" style="fill: #b0afae; stroke-width: 0px;"/>
  <path d="M286.45,489.24c-.01.5-.02,1-.04,1.5-4.97.06-9.93.13-14.9.19-3.01.21-6.01.43-9.02.64-1.54-.32-3.08-.64-4.61-.95,1.28-.43,2.54-1.18,3.84-1.24,7.44-.37,14.88-.6,22.32-.8.79-.02,1.6.43,2.4.66Z" style="fill: #9c9a98; stroke-width: 0px;"/>
  <path d="M317.91,490.8c.01-.73.03-1.47.04-2.2,2,0,3.99,0,5.99,0,.75.5,1.5.99,2.25,1.49.49.98.99,1.96,1.48,2.94,0,.51,0,1.02,0,1.53-.23.03-.46.08-.69.15-1.02-.05-2.04-.1-3.06-.15-2-1.25-4-2.51-6.01-3.76Z" style="fill: #bfbebd; stroke-width: 0px;"/>
  <path d="M262.5,491.58c3.01-.21,6.01-.43,9.02-.64-.02.96-.03,1.91-.05,2.87,0,0,0,.05,0,.05-3.07-.43-6.66,1.16-8.97-2.27Z" style="fill: #bfbebd; stroke-width: 0px;"/>
  <path d="M285.74,495.26c-2.26-.25-4.52-.5-6.78-.75,2.37-.7,4.79-1.91,6.78.75Z" style="fill: #bfbebd; stroke-width: 0px;"/>
  <path d="M276.76,494.51c-.27.03-.54.05-.8.08-.74,0-1.49-.01-2.23-.02,0-.25,0-.51,0-.76,1.01.23,2.02.46,3.04.7Z" style="fill: #bfbebd; stroke-width: 0px;"/>
  <path d="M273.72,493.81c0,.25,0,.51,0,.76-.75-.24-1.5-.48-2.25-.71,0,0,0-.05,0-.05.75,0,1.5,0,2.25,0Z" style="fill: #b0afae; stroke-width: 0px;"/>
  <path d="M271.47,493.85c.75.24,1.5.48,2.25.71.74,0,1.49.01,2.23.02.71.5,1.37,1.25,2.16,1.44,5.05,1.25,6.72,3.19,6.85,8.22.19,7.36-1.2,8.85-8.72,9.81-4.29.55-8.55,1.3-13.62,2.08,2.6,2.3,4.25,3.75,5.9,5.21-12,.02-23.99.04-35.99.06-1.26-2.17-2.52-2.16-3.78,0-7.24.04-14.47.08-21.71.12-1.75-.25-3.5-.49-5.25-.74-.85-1.14-1.69-2.29-3-4.05,4.9-.46,8.78-.85,12.67-1.19,6.16-.54,12.33-.94,18.48-1.62,3.18-.35,5.32-1.88,4.86-5.68-.25-2.09-.04-4.23-.05-6.35-.02-4.31-1.51-6.28-5.79-5.72-7.27.96-14.21-.68-21.31-1.36-4.08-.39-4.77-2.15-4.38-5.45,1,.2,2,.39,3,.59.32,2.55,2.01,3.02,4.26,3.14,7.8.41,15.6.88,23.38,1.51,4.74.38,5.86,2.25,4.33,6.52-2.54,7.06.62,11.54,8.13,11.53.25,0,.49.1.74.1,7.55-.1,15.1-.15,22.65-.34,1.46-.04,3.01-.35,4.33-.95,1-.45,2.33-1.49,2.42-2.38.41-3.98-5.68-12.28-9.92-13.48-3.07-.87-6.28-1.3-9.46-1.77-1.98-.29-3.82-.49-3.63-3.15,1.46-.02,2.92-.04,4.38-.06,1.54.32,3.08.63,4.61.95,2.31,3.43,5.89,1.85,8.97,2.27Z" style="fill: #a4a3a2; stroke-width: 0px;"/>
  <path d="M323.95,525.35c-.75.24-1.5.49-2.26.73-6.72-.02-13.45-.07-20.17-.02-1.03,0-2.06.5-3.08.78-8.46.05-16.93.11-25.39.16-1.05-.1-2.1-.21-3.15-.31,1.26-.46,2.5-1.25,3.78-1.33,3.21-.19,6.44-.06,9.67-.06.04-.43.08-.85.13-1.28-1.25-.85-2.49-1.71-3.74-2.56,3.26-.23,6.54-.75,9.79-.61,6.23.28,12.45.93,18.67,1.43.82.75,1.59,2.05,2.48,2.14,2.67.27,5.39.08,8.09.06,1.72.05,3.43.09,5.14.14.01.24.03.48.05.72Z" style="fill: #9c9a98; stroke-width: 0px;"/>
  <path d="M323.94,488.6c-2,0-3.99,0-5.99,0-1.01-.01-2.02-.02-3.03-.04,0-.48,0-.96-.01-1.43,1.75-.02,3.51-.03,5.26-.05,5.99.02,11.99.04,17.98.05,4.48.23,8.97.41,13.45.7,2.26.15,4.5.48,6.76.73-6.48,0-12.96,0-19.44,0-4.99.01-9.98.02-14.97.04Z" style="fill: #a4a3a2; stroke-width: 0px;"/>
  <path d="M358.35,488.57c-2.25-.25-4.5-.59-6.76-.73-4.48-.29-8.96-.48-13.45-.7,0-.26,0-.52,0-.78h23.14c-.48.78-.92,1.5-1.36,2.22-.52,0-1.04,0-1.56,0Z" style="fill: #bfbebd; stroke-width: 0px;"/>
  <path d="M323.94,488.6c4.99-.01,9.98-.02,14.97-.04-.94.5-1.86,1.38-2.82,1.43-3.29.19-6.6.09-9.9.1-.75-.5-1.5-.99-2.25-1.49Z" style="fill: #cecdcd; stroke-width: 0px;"/>
  <path d="M329.16,493.77c2.25,0,4.5,0,6.75,0,0,.31,0,.61-.01.91-2.24,0-4.48,0-6.73.01,0-.31,0-.61,0-.92Z" style="fill: #ddd; stroke-width: 0px;"/>
  <path d="M335.9,494.68c0-.3,0-.61.01-.91,1,.21,2.01.42,3.01.63,0,.13-.02.26-.04.39-.99-.03-1.99-.07-2.98-.1Z" style="fill: #cecdcd; stroke-width: 0px;"/>
  <path d="M329.16,493.77c0,.31,0,.61,0,.92-.5-.04-1-.08-1.5-.12,0-.51,0-1.02,0-1.53.5.24,1,.49,1.49.73Z" style="fill: #cecdcd; stroke-width: 0px;"/>
  <path d="M308.99,487.04c-.57.51-1.11,1.42-1.71,1.46-5.22.33-10.46.51-15.69.73-1.26-1.21-2.49-2.45-3.8-3.61-.65-.57-1.45-.98-2.18-1.46,9.77.47,19.54.95,29.31,1.42,0,.24,0,.49,0,.73-1.98.02-3.96.03-5.94.04h-6.66c0,.23,0,.46.01.7h6.65Z" style="fill: #9c9a98; stroke-width: 0px;"/>
  <path d="M338.14,486.35c0,.26,0,.52,0,.78-5.99-.02-11.99-.04-17.98-.05,0-.23.02-.47.04-.7,5.98,0,11.96-.02,17.93-.03Z" style="fill: #cecdcd; stroke-width: 0px;"/>
  <path d="M320.2,486.38c-.02.23-.03.47-.04.7-1.75.02-3.51.03-5.26.05-1.5-.03-3.01-.05-4.51-.08-.47,0-.94,0-1.41,0,0,0-.03.01-.03.01,0-.23,0-.47.03-.7,1.98-.01,3.96-.03,5.94-.04,1.76.02,3.52.04,5.28.06Z" style="fill: #bfbebd; stroke-width: 0px;"/>
  <path d="M197.32,484.91c-.51.02-1.01.03-1.52.05,0-.29,0-.59-.01-.88.51.28,1.02.56,1.53.84Z" style="fill: #a4a3a2; stroke-width: 0px;"/>
  <path d="M335.89,478.05c-2.24-.23-4.48-.47-6.72-.7-5.83-1.46-10.43-6.23-16.89-6.2-1.03,0-3-1.92-2.89-2.74.16-1.26,1.57-2.6,2.78-3.42,1.06-.72,2.65-.58,3.86-1.13,2.44-1.12,4.78-2.47,7.17-3.72.49,0,.99,0,1.48-.01.76-.23,1.52-.47,2.28-.7.52.06,1.05.11,1.57.16-1.11.96-2.1,2.13-3.35,2.83-2.49,1.4-3.45,3.16-2.03,5.81.64,1.2,1.47,2.31,2.09,3.52,2.06,4.07,5.69,4.41,9.58,4.06,3.4-.31,4.77-2.79,6.45-5.44,2.34-3.7.96-6.47-.88-9.48.52-.02,1.04-.04,1.56-.06.49,0,.98,0,1.47.01,3.31,3.95,7.05,4.65,11.31,1.49.2-.15.44-.23.67-.32,3.8-1.38,8.22.82,9.83,5.1,1.54,4.12-2.02,5.53-4.52,6.23-2.75.78-6.09.6-8.87-.21-2.93-.86-5.15-1.53-7.86.71-1.78,1.47-4.43,1.84-6.64,2.82-.57.25-.96.92-1.43,1.4Z" style="fill: #eaeaea; stroke-width: 0px;"/>
  <path d="M340.37,460.88c1.84,3.01,3.22,5.78.88,9.48-1.68,2.66-3.04,5.13-6.45,5.44-3.89.35-7.52,0-9.58-4.06-.62-1.21-1.44-2.32-2.09-3.52-1.42-2.65-.46-4.41,2.03-5.81,1.25-.7,2.24-1.88,3.35-2.83,3.22.19,6.43.37,9.65.55.73.25,1.47.5,2.2.75Z" style="fill: #fefefe; stroke-width: 0px;"/>
  <path d="M335.89,478.05c.47-.48.86-1.15,1.43-1.4,2.21-.98,4.87-1.35,6.64-2.82,2.71-2.23,4.93-1.56,7.86-.71,2.78.81,6.12.99,8.87.21,2.49-.71,6.06-2.11,4.52-6.23-1.6-4.28-6.02-6.48-9.83-5.1-.23.08-.48.17-.67.32-4.25,3.16-7.99,2.46-11.31-1.49,1.16-.24,2.33-.67,3.5-.69,4.59-.09,9.17-.06,13.76-.08.74,0,1.48.02,2.22.02.66.55,1.33,1.09,1.99,1.64,3.09,2.58,4.84,5.57,3.26,9.74-1.46,3.85-4.52,5.54-8.29,5.76-3.18.18-6.41-.47-9.61-.45-2.82.02-5.64.45-8.46.71-1.96.18-3.92.38-5.88.57Z" style="fill: #ddd; stroke-width: 0px;"/>
  <path d="M323.19,460.13c-2.38,1.25-4.73,2.59-7.17,3.72-1.21.56-2.81.42-3.86,1.13-1.21.82-2.62,2.16-2.78,3.42-.11.82,1.86,2.75,2.89,2.74,6.47-.03,11.06,4.74,16.89,6.2-3.32-.32-6.69-.4-9.95-1.02-3.01-.58-6-1.51-8.82-2.72-1.95-.83-3.91-2.11-5.27-3.7-1.84-2.14-.34-5.36,3.3-6.44,4.83-1.43,9.84-2.26,14.77-3.34Z" style="fill: #ddd; stroke-width: 0px;"/>
  <path d="M340.37,460.88c-.73-.25-1.47-.5-2.2-.75,0-.27,0-.55-.01-.82,1.25.01,2.5.02,3.74.03,0,.49.02.98.03,1.47l-1.56.06Z" style="fill: #ddd; stroke-width: 0px;"/>
  <path d="M326.95,459.42c-.76.23-1.52.47-2.28.7.76-.23,1.52-.47,2.28-.7Z" style="fill: #ddd; stroke-width: 0px;"/>
  <path d="M341.93,460.81c0-.49-.02-.98-.03-1.47,6-.17,12.01-.35,18.02-.45.24,0,.49.76.74,1.16-4.59.01-9.17-.02-13.76.08-1.17.02-2.33.45-3.5.69-.49,0-.98,0-1.47-.01Z" style="fill: #cecdcd; stroke-width: 0px;"/>
  <path d="M253.5,490.69c-.19,2.67,1.65,2.86,3.63,3.15,3.17.46,6.38.9,9.46,1.77,4.23,1.2,10.33,9.5,9.92,13.48-.09.89-1.42,1.93-2.42,2.38-1.32.6-2.87.91-4.33.95-7.55.19-15.1.24-22.65.34-.25,0-.49-.1-.74-.1-7.5,0-10.66-4.48-8.13-11.53,1.54-4.27.41-6.13-4.33-6.52-7.78-.63-15.58-1.1-23.38-1.51-2.25-.12-3.94-.58-4.26-3.14,2.77.02,5.55.07,8.32.07,11.66.01,23.32,0,34.98.04,1.31,0,2.62.4,3.93.61Z" style="fill: #9c9a98; stroke-width: 0px;"/>
  <path d="M379.7,314.29c-7.01-.7-12.42-2.85-16.33-8.18-1.39-1.89-3.41-3.33-4.73-5.26-5.17-7.59-5.69-24.26.23-31.83,2.6-3.32,6.39-5.72,9.77-8.38.65-.51,1.87-.31,2.84-.38,2.03-.16,4.18.1,6.07-.5,4.02-1.28,7.48.37,10.58,2.1,7.5,4.19,13.15,10.36,16.83,18.19,2.69,5.71,3.62,11.27.76,17.51-5.33,11.63-15.15,15.25-26.01,16.72Z" style="fill: #efda6a; stroke-width: 0px;"/>
  <path d="M269.9,526.69c1.05.1,2.1.2,3.15.31-.26,1.77.15,2.84,2.28,2.85.73,0,1.45.9,2.17,1.38-.27.03-.53.05-.8.08-.99,0-1.98-.02-2.98-.03-.51-.23-1.02-.47-1.53-.7-1.24-.02-2.48-.03-3.72-.05-1.25-.24-2.51-.49-3.76-.73-.5,0-.99-.01-1.49-.02,0-.75,0-1.51,0-2.26v-.76c2.23-.03,4.45-.05,6.67-.08Z" style="fill: #bfbebd; stroke-width: 0px;"/>
  <path d="M282.71,531.26c1.01.24,2.02.48,3.03.72-1.01-.24-2.02-.48-3.03-.72Z" style="fill: #bfbebd; stroke-width: 0px;"/>
  <path d="M321.7,532.07c-1.9,1.22-3.77,2.49-5.72,3.62-.49.28-1.39-.08-1.81.24-1.54,1.16-2.96,2.48-4.43,3.74,1.7.95,3.42,2.73,5.1,2.69,5.47-.13,8.68,3.88,12.85,6.11-6.24-1.52-12.55-2.79-18.66-4.71-1.59-.5-3.85-3.4-3.51-4.47.6-1.89,2.7-3.94,4.64-4.64,3.67-1.34,7.68-1.78,11.54-2.59Z" style="fill: #ddd; stroke-width: 0px;"/>
  <path d="M324.67,531.26c1.03.05,2.07.09,3.1.14-.01.23-.03.45-.06.68-.51.25-1.03.49-1.54.74-.49,0-.99.02-1.48.03,0-.27,0-.54-.01-.81v-.78Z" style="fill: #ddd; stroke-width: 0px;"/>
  <path d="M360.67,531.98c.74,0,1.47.02,2.21.02,1.75,2.13,4.45,4.03,5.04,6.44,1.21,4.93-2.49,8.88-8.15,9.22-3.43.21-6.9-.49-10.35-.46-2.29.02-4.56.66-6.86.93-1.71.2-3.45.24-5.17.35,3.37-1.97,6.66-4.12,10.17-5.78.87-.41,2.55.58,3.73,1.19,3.72,1.92,9.21,1.48,12.38-1.12,2.65-2.17,1.41-6.52-2.29-8.43-1.1-.57-2.01-1.51-3.01-2.28.77-.03,1.53-.05,2.3-.08Z" style="fill: #ddd; stroke-width: 0px;"/>
  <path d="M206.27,526.71c1.81-.22,3.62-.65,5.42-.62,12.19.19,24.38.48,36.57.74-.32,3.97,2.67,3.49,5.04,3.68,5.14.41,10.28,1.08,14.27,4.58,1.52,1.33,2.31,3.68,2.94,5.72.15.5-1.55,2.09-2.6,2.33-1.97.44-4.24,2.24-6.04-.51-2.4-3.64-6.19-3.9-9.71-1.6-2.36,1.55-5.37,2.55-8.19,2.85-4,.43-5.8-2.79-4.04-6.44,2.3-4.79,1.58-5.79-3.83-6.21-6.91-.54-13.78-1.68-20.69-1.9-3.44-.11-6.57-.03-9.14-2.63Z" style="fill: #9c9a98; stroke-width: 0px;"/>
  <path d="M263.23,526.77c0,.25,0,.5,0,.76-2.24,0-4.48.01-6.73.02-1.5-.24-3-.49-4.5-.73,3.74-.01,7.49-.03,11.23-.04Z" style="fill: #9c9a98; stroke-width: 0px;"/>
  <path d="M256.5,527.54c2.24,0,4.48-.01,6.73-.02,0,.75,0,1.51,0,2.26-2.65.47-5.39,1.21-6.73-2.24Z" style="fill: #b0afae; stroke-width: 0px;"/>
  <path d="M264.71,529.8c1.25.24,2.51.49,3.76.73-1.5,1.02-2.9,1.54-3.76-.73Z" style="fill: #b0afae; stroke-width: 0px;"/>
  <path d="M272.19,530.58c.51.23,1.02.47,1.53.7-.51-.23-1.02-.47-1.53-.7Z" style="fill: #b0afae; stroke-width: 0px;"/>
  <path d="M201.79,520.79c1.75.25,3.5.49,5.25.74-1.75.02-3.49.04-5.24.05,0-.26,0-.53-.01-.79Z" style="fill: #9c9a98; stroke-width: 0px;"/>
  <path d="M228.75,521.4c1.27-2.15,2.53-2.16,3.78,0-1.26,0-2.52,0-3.78,0Z" style="fill: #9c9a98; stroke-width: 0px;"/>
  <path d="M348.67,532c.73,0,1.47,0,2.2,0,2.01.02,4.03.04,6.04.06-3.88,5.18-10.75,5.17-13.52,0,1.76-.02,3.52-.03,5.28-.05Z" style="fill: #ddd; stroke-width: 0px;"/>
  <path d="M326.16,532.82c.51-.25,1.03-.49,1.54-.74-.51.25-1.03.49-1.54.74Z" style="fill: #eaeaea; stroke-width: 0px;"/>
  <path d="M327.67,494.57c.5.04,1,.08,1.5.12,2.24,0,4.49,0,6.73,0,.99.03,1.99.07,2.98.1.16.59.13,1.42.51,1.71,1.98,1.47,4.14,3.11,3.12,5.76-1.28,3.34-1.31,7.42-5.27,9.43-3.56,1.81-8.4,1.12-10.71-2.13-1.44-2.02-3.28-4.15-3.61-6.43-.28-1.88,1.32-4.08,2.24-6.07.41-.87,1.21-1.57,1.83-2.34.23-.07.46-.12.69-.14Z" style="fill: #fefefe; stroke-width: 0px;"/>
  <path d="M310.4,487.05c1.5.03,3.01.05,4.51.08,0,.48,0,.96.01,1.44-1.51-.5-3.02-1.01-4.52-1.51Z" style="fill: #9c9a98; stroke-width: 0px;"/>
  <path d="M308.99,486.36c-.03.23-.04.46-.03.7-2.21,0-4.41,0-6.62,0,0-.23,0-.46-.01-.7h6.66Z" style="fill: #a4a3a2; stroke-width: 0px;"/>
</svg>