<?xml version="1.0" encoding="UTF-8"?>
<svg id="Layer_1" data-name="Layer 1" xmlns="http://www.w3.org/2000/svg" viewBox="0 0 401.46 597.77">
  <path d="M232.04.23c-2.17.04-4.33.08-6.5.13-5.1.18-10.2.36-15.3.54-2.66.08-5.32.16-7.98.25-4.99.13-9.98.25-14.97.38-1.75.13-3.5.26-5.26.39-3.25.05-6.5.11-9.75.16-.76.09-1.52.19-2.28.28-3.26.4-6.51.79-9.77,1.19-1.37.16-2.75.33-4.12.49-1.13.1-2.26.2-3.38.3-.92.11-1.85.21-2.77.32-1.07.13-2.14.25-3.21.38-1.18.11-2.36.21-3.54.32-.8.12-1.6.24-2.4.35-1.36.46-2.72.91-4.08,1.37-2.14.76-4.27,1.52-6.41,2.28-.64.22-1.29.44-1.93.66-.86.32-1.71.63-2.57.95-1.35.46-2.71.91-4.06,1.37-2.14.77-4.28,1.53-6.43,2.3-2.1.73-4.2,1.47-6.31,2.2-.4.21-.8.42-1.19.64-.51.33-1.01.67-1.52,1-1.49.93-2.98,1.86-4.48,2.8-.51.32-1.02.63-1.53.95-3.11,1.97-6.22,3.94-9.33,5.92-4.68,3.01-9.8,5.52-13.95,9.14-7.67,6.7-15.04,13.81-22.02,21.23-4.37,4.65-7.8,10.19-11.66,15.34-.38.55-.77,1.1-1.15,1.65-.67.98-1.33,1.95-2,2.93-3.75,5.27-8.43,10.12-11.06,15.9-7.83,17.19-17.21,33.81-20.82,52.72-1.8,9.41-4.57,18.66-5.95,28.12-1.4,9.6-1.8,19.37-2.31,29.08-.24,4.55.31,9.13.51,13.7.25,2.73.49,5.46.74,8.19.04.5.09,1,.13,1.5.11,1.25.22,2.49.33,3.74.08.53.15,1.06.23,1.59.11,1.23.22,2.47.33,3.7.04.46.07.91.11,1.37l.27,2.33c.06.51.12,1.02.18,1.53.12,1.49.23,2.98.35,4.47.07.53.15,1.07.22,1.6.2,1.46.4,2.92.6,4.38.16.5.31.99.47,1.49.14.5.28,1,.42,1.51.35,1.25.71,2.49,1.06,3.74.13.5.25,1,.38,1.5l1.12,3.74.39,1.52c1.77,6.61,2.78,13.56,5.48,19.78,5.7,13.14,11.63,26.27,18.62,38.75,45.75,81.67,91.82,163.15,137.73,244.73,1.47,2.61,3.29,4.29,6.3,4.58,1.07.37,2.13.74,3.2,1.11,1.94.8,3.88,1.6,5.82,2.4l3.91,1.37c.69.29,1.38.58,2.07.86.5.19,1.01.39,1.51.58,0,0,.18,0,.18,0,.68.29,1.37.58,2.05.87,2.27.86,4.53,1.72,6.8,2.58.49.21.98.41,1.47.62.55.18,1.1.35,1.65.52,8.18,3.17,16.37,6.34,24.55,9.5,2.24.88,4.48,1.75,6.73,2.63,3.45,2.58,4.67-.25,5.77-2.58,20.15-42.79,40.24-85.62,60.37-128.42,22.1-46.99,44.34-93.9,66.26-140.97,7.27-15.6,14.94-31.18,20.24-47.48,5.45-16.75,9.45-34.02,11.33-51.8,2.22-21.03,2.17-42.01-.82-62.72-2.59-17.93-6.95-35.64-13.97-52.67-8.3-20.14-18.63-38.92-33.04-55.23-6.83-7.72-14.14-15.16-22.06-21.74-7.55-6.27-15.64-12.34-24.43-16.57-17.79-8.58-36.39-15.15-56.54-15.63-.59-.11-1.17-.21-1.76-.32-1.56-.21-3.13-.42-4.69-.63-3.52.08-7.04.16-10.56.23Z" style="fill: #fefefe; stroke-width: 0px;"/>
  <path d="M249.05.95c20.15.48,38.76,7.05,56.54,15.63,8.78,4.23,16.88,10.3,24.43,16.57,7.92,6.58,15.23,14.01,22.06,21.74,14.42,16.31,24.74,35.08,33.04,55.23,7.01,17.02,11.38,34.74,13.97,52.67,2.99,20.71,3.03,41.69.82,62.72-1.87,17.78-5.88,35.05-11.33,51.8-5.31,16.3-12.98,31.88-20.24,47.48-21.92,47.07-44.16,93.99-66.26,140.97-20.13,42.8-40.22,85.63-60.37,128.42-1.1,2.33-2.32,5.16-5.77,2.58-.48-1.4-.79-2.89-1.48-4.17-7.48-13.8-15-27.57-22.55-41.34-6.77-12.34-13.57-24.66-20.37-36.98-11.45-20.71-22.93-41.4-34.36-62.12-8.78-15.93-17.45-31.91-26.23-47.84-11.66-21.16-23.72-42.11-34.94-63.51-8.42-16.06-17.3-31.98-22.62-49.49-1.38-5.02-2.78-10.04-4.12-15.08-1.4-5.27-3.23-10.49-3.97-15.86-1.05-7.61-1.27-15.33-1.84-23-.19-.51-.37-1.01-.56-1.52-.25-3.58-.75-7.16-.7-10.74.1-8.18.3-16.37.78-24.53.42-7.15.88-14.34,2.06-21.39,1.32-7.91,3.45-15.68,5.23-23.51,2.31-8.38,4.31-16.86,7.04-25.1,1.74-5.26,4.57-10.16,6.91-15.23,2.98-6.45,5.34-13.28,9.06-19.27,6.29-10.14,12.85-20.23,20.38-29.46,7.22-8.86,15.73-16.68,23.84-24.79,3.06-3.06,6.41-5.92,9.96-8.41,5.4-3.78,11.04-7.23,16.66-10.68,4.45-2.73,8.81-5.79,13.59-7.76,8.28-3.41,16.88-6.05,25.3-9.13,1.91-.7,3.64-1.88,5.45-2.83.69-.01,1.37-.03,2.06-.04,1.75-.1,3.51-.21,5.26-.31.45-.01.91-.03,1.36-.04,6.49-.66,12.97-1.32,19.45-1.98,2.02-.22,4.03-.43,6.05-.65,1.56.21,3.13.42,4.69.63.59.1,1.17.21,1.76.32ZM250.93,102.71c-7.82-1.06-15.54-.48-23.2,1.3-2.75.99-5.49,1.98-8.24,2.97-1.75.73-3.51,1.46-5.26,2.19-1.05.56-2.09,1.11-3.14,1.67-.71.17-1.51.19-2.12.53-8.98,5.15-16.83,11.8-23.19,19.85-16.27,20.63-24.04,44.45-23.89,70.58.14,24.16,7.27,46.23,22.87,65.04,2.54,3.06,4.97,6.98,9.81,7.26,1.17,1.63,2.05,3.64,3.57,4.81,2.23,1.73,4.8,3.19,7.44,4.19,6.32,2.4,12.77,4.47,19.16,6.67,2.5.24,5,.48,7.49.72,1.04.25,2.14.84,3.12.69,7.32-1.13,14.89-1.55,21.86-3.81,13.86-4.49,25.1-13.17,34.24-24.52,1.15-1.12,2.53-2.09,3.43-3.39,8.09-11.77,14.94-24.15,18-38.27,1.26-5.81,2.37-11.68,3.13-17.58.59-4.55,1.2-9.26.64-13.75-1.31-10.44-3.31-20.8-5.04-31.19-2.32-5.63-4.09-11.55-7.05-16.82-7.49-13.31-17.2-24.87-31.05-31.88-6.09-3.08-13.02-4.51-19.57-6.68-.5-.01-1-.03-1.5-.04l-1.52-.55Z" style="fill: #6ac146; stroke-width: 0px;"/>
  <path d="M146.75,5.04c1.07-.13,2.14-.25,3.21-.38.92-.11,1.85-.21,2.77-.32,1.13-.1,2.26-.2,3.38-.3,1.37-.16,2.75-.33,4.12-.49,3.26-.4,6.51-.79,9.77-1.19.35.36.7.72,1.05,1.07.41-.45.82-.9,1.23-1.36,3.25-.05,6.5-.11,9.75-.16-.79.54-1.52,1.35-2.39,1.57-1.51.38-3.22.12-4.67.63-6.9,2.43-13.69,5.17-20.6,7.55-12.6,4.33-23.18,12.36-34.6,18.82-5.28,2.99-9.56,7.76-14.26,11.76-4.81,4.09-9.54,8.28-14.38,12.34-2.28,1.91-4.45,4.4-7.12,5.31-8.48,2.87-13.62,9.77-19.7,15.49-3.78,3.56-7.19,7.59-10.32,11.75-3.78,5.03-7.38,10.24-10.5,15.69-4.19,7.32-8.08,14.7-13.53,21.33-4.17,5.08-7.07,11.41-9.58,17.58-3.12,7.67-4.49,16.1-8.03,23.54-2.96,6.23-3.24,12.74-3.92,19.05-1.25,11.61-2.62,23.02-7.87,33.62-.19-4.57-.74-9.15-.51-13.7.5-9.71.9-19.48,2.31-29.08,1.38-9.46,4.16-18.71,5.95-28.12,3.61-18.9,12.99-35.52,20.82-52.72,2.63-5.78,7.32-10.63,11.06-15.9,1.31-.72,2.93-1.16,3.89-2.21,3.93-4.31,7.25-9.26,11.56-13.14,7.72-6.95,15.95-13.34,24.03-19.9,10.39-8.44,22.07-14.71,34.17-20.3,2.66-1.23,4.96-3.22,7.43-4.86-.15-.32-.29-.64-.44-.95-1.16.16-2.41.09-3.45.53-4.59,1.93-8.99,4.4-13.71,5.91-4.31,1.38-7.57,5.63-12.7,4.62,3.11-1.97,6.22-3.94,9.33-5.92.51-.32,1.02-.63,1.53-.95,1.49-.93,2.98-1.86,4.47-2.8.5-.33,1.01-.67,1.52-1,.4-.21.8-.42,1.19-.64,2.1-.73,4.2-1.47,6.31-2.2,2.14-.77,4.28-1.53,6.43-2.3,1.35-.46,2.71-.91,4.06-1.37.86-.32,1.71-.63,2.57-.95.64-.22,1.29-.44,1.93-.66,2.14-.76,4.27-1.52,6.4-2.28,1.36-.46,2.72-.91,4.08-1.37.8-.12,1.6-.24,2.4-.35,1.18-.11,2.36-.21,3.55-.32Z" style="fill: #1f4e15; stroke-width: 0px;"/>
  <path d="M192.69,580.02s-.18,0-.18,0c-.22-2.08.94-2.45,2.73-2.49,1.96-.05,3.99-.21,5.86-.75,3.51-1.02,4.51-3.07,2.81-6.2-5.8-10.69-11.74-21.31-17.68-31.92-4.19-7.47-8.53-14.86-12.7-22.34-5.31-9.52-10.51-19.11-15.79-28.65-5-9.04-10.11-18.02-15.07-27.08-4.35-7.94-8.51-16-12.87-23.93-3.83-6.98-7.92-13.81-11.74-20.8-5.65-10.35-11.13-20.8-16.74-31.18-3.97-7.33-8.1-14.58-12.04-21.93-4.99-9.31-9.95-18.62-14.71-28.04-1.93-3.82-3.32-7.93-4.95-11.9-3.08-6.14-5.81-12.48-9.34-18.34-3.09-5.15-3.45-9.98-1.24-15.45.78-1.92.84-4.41.44-6.49-1.36-7.02-3.31-13.93-4.53-20.97-.42-2.44-1.96-5.58,1.17-7.7h.01c.25,1.75.49,3.5.74,5.25,2.16,8.1,4.4,16.18,6.46,24.3,1.23,4.85,2.2,9.77,3.29,14.66.5.75.99,1.51,1.49,2.26,3.11,6.47,6.08,13,9.34,19.39,6.98,13.69,14.11,27.3,21.19,40.94,2.79,5.38,5.63,10.73,8.44,16.1,1.21,2.66,2.2,5.45,3.69,7.94,1.5,2.51,3.51,4.71,5.3,7.05,0,.25,0,.5,0,.74.45,3.75,1.94,6.9,5.24,8.99,0,.25,0,.5,0,.75.5.5,1,1,1.49,1.5.25.75.5,1.5.75,2.25,1,1.5,1.99,3,2.99,4.5.25.75.5,1.49.76,2.24,1.25,2,2.49,4,3.74,6,5.65,10.32,11.25,20.68,16.97,30.96,5.23,9.4,10.66,18.69,15.85,28.12,4.53,8.24,8.75,16.64,13.26,24.89,4.75,8.7,9.7,17.3,14.52,25.96,4.8,8.65,9.54,17.34,14.31,26,4.5,8.15,9.1,16.24,13.48,24.45,1.85,3.46.71,5.08-3.23,5.22-3.85.14-7.71.21-11.57.32-.55-.18-1.1-.35-1.64-.53-.49-.21-.98-.41-1.47-.62-2.27-.86-4.53-1.72-6.8-2.58-.68-.29-1.37-.58-2.05-.87Z" style="fill: #297414; stroke-width: 0px;"/>
  <path d="M69.62,322.79c1.63,3.98,3.02,8.08,4.95,11.9,4.76,9.42,9.73,18.74,14.71,28.04,3.94,7.35,8.07,14.6,12.04,21.93,5.61,10.38,11.09,20.83,16.74,31.18,3.81,6.99,7.9,13.82,11.74,20.8,4.36,7.94,8.52,15.99,12.87,23.93,4.96,9.06,10.07,18.04,15.07,27.08,5.28,9.54,10.48,19.13,15.79,28.65,4.17,7.48,8.52,14.86,12.7,22.34,5.95,10.61,11.88,21.23,17.68,31.92,1.7,3.13.7,5.17-2.81,6.2-1.87.55-3.9.71-5.86.75-1.79.04-2.95.41-2.73,2.49-.5-.19-1.01-.39-1.51-.58-.69-.29-1.38-.58-2.07-.86-1.3-.46-2.6-.92-3.91-1.37,0-.37,0-.75-.01-1.12.79-.3,1.56-.63,2.36-.88,6.16-1.92,8.5-4.1,4.78-10.44-4.03-6.85-7.76-13.87-11.59-20.83-3.77-6.86-7.42-13.79-11.25-20.62-10.36-18.44-20.91-36.78-31.15-55.29-8.97-16.23-17.53-32.68-26.44-48.95-8.34-15.23-16.91-30.33-25.33-45.52-4.15-7.49-8.16-15.06-12.24-22.58-4.08-7.52-8.2-15.02-12.24-22.57-2.98-5.58-5.86-11.23-8.78-16.85-.5-.5-1-1-1.5-1.5v-1.5c-1-1.5-2-3-3-4.5-.25-1.25-.5-2.5-.75-3.75-.5-.5-1-1-1.5-1.5-.25-1-.5-2-.75-3,0-4.55.09-9.11-.02-13.66-.16-6.65-.49-13.29-.71-19.93-.09-2.56-.13-5.12-.12-7.67.03-5.87.04-11.74.18-17.61.15-6.27.41-12.54.74-18.8.03-.61.93-1.18,1.43-1.76.5,5.34,1.02,10.67,1.48,16.01.08.98.11,2.06-.22,2.95-3.16,8.46-1.4,17.29.14,25.37,1.57,8.25,2.76,16.5,4.07,24.78.9,5.66.77,11.71,4.15,16.95,3.55,5.51,6.57,11.35,9.93,16.98.75,1.26,1.95,2.25,2.94,3.36Z" style="fill: #266d14; stroke-width: 0px;"/>
  <path d="M176.01,573.68c-3-.29-4.83-1.97-6.3-4.58-45.91-81.58-91.98-163.06-137.73-244.73-6.99-12.48-12.92-25.61-18.62-38.75-2.7-6.21-3.71-13.16-5.48-19.78.57,1.03,1.4,1.99,1.68,3.09,2.92,11.28,5.78,22.58,12.15,32.57.75,1.17,1.73,2.19,3.2,4.05.26-1.93.38-2.84.5-3.74.75.81,1.66,1.53,2.19,2.46.65,1.16.64,2.82,1.5,3.7,4.19,4.25,4.22,11.63,10.71,14.18.51.2.37,1.84.69,2.76.68,1.92,1.11,4.09,2.32,5.63,1.36,1.73,3.47,2.87,5.43,4.4-2.51,2.77-1.94,4.5.82,6.25,1.25.8,2.14,2.74,2.47,4.31.81,3.94,2.48,5.75,6.84,6.52,0,.5,0,1,0,1.5,0,6.86,1.67,9.53,7.49,11.99.25.75.5,1.5.75,2.24.74,6.18,3.78,11.47,6.71,16.75,2.05,3.7,5.17,6.95,6.51,10.84.97,2.82,2.02,4.24,4.76,4.63.25.75.5,1.5.75,2.25,1.5,2,3,4,4.5,6,1.12,2.2,2.17,4.45,3.37,6.61,4.34,7.8,8.77,15.56,13.1,23.37,5.96,10.75,11.8,21.57,17.81,32.3,6.86,12.25,13.88,24.4,20.77,36.63,5.79,10.27,11.49,20.6,17.28,30.87,3.97,7.04,8.06,14,12.04,21.03,1.6,2.82,2.2,5.59.28,8.75-.61.99.47,3.01.77,4.56.24.45.49.9.73,1.36Z" style="fill: #285d1d; stroke-width: 0px;"/>
  <path d="M25.42,301.81c-.12.9-.24,1.81-.5,3.74-1.48-1.85-2.46-2.88-3.2-4.05-6.37-9.99-9.23-21.29-12.15-32.57-.29-1.1-1.11-2.07-1.68-3.09-.13-.51-.26-1.02-.39-1.52-.37-1.25-.74-2.49-1.12-3.74-.13-.5-.25-1-.38-1.5-.35-1.25-.71-2.49-1.06-3.74-.14-.5-.28-1-.42-1.51-.16-.5-.31-.99-.47-1.49-.2-1.46-.4-2.92-.6-4.38-.07-.53-.15-1.07-.22-1.6-.12-1.49-.23-2.98-.35-4.47-.06-.51-.12-1.02-.18-1.53l-.27-2.33c-.04-.46-.07-.91-.11-1.37-.11-1.23-.22-2.47-.33-3.7-.08-.53-.15-1.06-.23-1.59-.11-1.25-.22-2.49-.33-3.74-.04-.5-.09-1-.13-1.5-.25-2.73-.49-5.46-.74-8.19,5.25-10.6,6.62-22.01,7.87-33.62.68-6.31.96-12.82,3.92-19.05,3.53-7.43,4.91-15.87,8.03-23.54,2.5-6.17,5.41-12.5,9.58-17.58,5.45-6.64,9.34-14.01,13.53-21.33,3.12-5.45,6.72-10.67,10.5-15.69,3.12-4.16,6.54-8.19,10.32-11.75,6.08-5.72,11.21-12.62,19.7-15.49,2.67-.9,4.85-3.39,7.12-5.31,4.83-4.06,9.57-8.24,14.38-12.34,4.7-4,8.98-8.77,14.26-11.76,11.42-6.46,22.01-14.49,34.6-18.82,6.91-2.38,13.7-5.11,20.6-7.55,1.45-.51,3.16-.24,4.67-.63.87-.22,1.6-1.03,2.39-1.57,1.75-.13,3.5-.26,5.26-.39,4.99-.13,9.98-.25,14.97-.38,2.66-.08,5.32-.16,7.98-.25,2.34.14,4.69.27,7.03.41-.06.44-.11.88-.17,1.32-.45.01-.91.03-1.36.05-1.75.1-3.51.21-5.26.31-.69.01-1.37.03-2.06.04-3.05.21-6.09.43-9.13.64-.75-.02-1.5-.05-2.24-.07-4.01,1.24-8.02,2.48-12.03,3.72-2.28.5-4.65.74-6.81,1.55-10.05,3.79-20.93,5.32-30.19,11.28-2.71,1.75-5.56,3.36-8.53,4.63-12.98,5.52-23.63,14.47-34.42,23.19-6.34,5.13-11.65,11.55-19.66,14.55-2.44.91-4.61,2.97-6.47,4.91-7.16,7.44-14.28,14.92-21.11,22.65-2.58,2.92-4.49,6.49-6.41,9.93-3.26,5.83-5.46,12.46-9.6,17.53-5.97,7.3-11.64,14.49-14.1,23.77-.64,2.39-1.58,4.7-2.35,7.05-2.72,8.26-6.24,16.35-7.97,24.81-2.51,12.33-3.8,24.92-5.43,37.42-.42,3.25-.17,6.58-.24,9.88-.13,6.09-.89,12.24-.28,18.25.92,9.09,2.74,18.09,4.34,27.1.2,1.1,1.41,2.02,2.16,3.03-.2,9.43,1.51,18.5,5.2,27.19.81,1.91,1.53,3.85,2.3,5.78Z" style="fill: #205315; stroke-width: 0px;"/>
  <path d="M176.01,573.68c-.24-.45-.49-.9-.73-1.36.7-.24,1.39-.59,2.11-.71,8.12-1.41,9.35-4.45,5.08-11.38-4.76-7.73-9.24-15.63-13.67-23.55-5.81-10.38-11.39-20.89-17.21-31.26-5.83-10.4-11.96-20.63-17.73-31.07-6.19-11.19-11.98-22.59-18.16-33.78-8.9-16.11-18.07-32.08-26.97-48.19-8.05-14.56-16.01-29.18-23.84-43.87-8.29-15.57-16.48-31.19-24.49-46.9-2.69-5.28-5.4-10.74-4.49-17.05.25-4.26.53-8.53.74-12.79.08-1.73.01-3.46.01-5.19,1.75,6.9,3.41,13.82,5.29,20.68.82,2.99-.32,6.92,3.71,8.54.25,1,.5,2,.75,3,.5.5,1,1,1.5,1.5.25,1.25.5,2.5.75,3.75,1,1.5,2,3,3,4.5v1.5c.5.5,1,1,1.5,1.5,2.92,5.62,5.79,11.26,8.78,16.85,4.03,7.55,8.16,15.04,12.24,22.57,4.08,7.53,8.09,15.09,12.24,22.58,8.41,15.19,16.99,30.29,25.33,45.52,8.9,16.27,17.46,32.72,26.44,48.95,10.24,18.51,20.79,36.84,31.15,55.29,3.83,6.83,7.48,13.76,11.25,20.62,3.83,6.96,7.56,13.98,11.59,20.83,3.72,6.33,1.39,8.52-4.78,10.44-.8.25-1.57.58-2.36.88-1.93-.43-3.87-.86-5.8-1.28-1.07-.37-2.13-.74-3.2-1.11Z" style="fill: #256516; stroke-width: 0px;"/>
  <path d="M73.38,291.31c5.32,17.51,14.2,33.43,22.62,49.49,11.22,21.39,23.28,42.34,34.94,63.51,8.77,15.93,17.45,31.92,26.23,47.84,11.42,20.72,22.91,41.41,34.36,62.12,6.81,12.32,13.61,24.64,20.37,36.98,7.55,13.76,15.07,27.54,22.55,41.34.69,1.28,1,2.78,1.48,4.17-2.24-.88-4.48-1.75-6.73-2.63-1.11-2.97-1.88-6.13-3.39-8.89-8.24-15.06-16.7-29.99-24.99-45.02-6.46-11.71-12.73-23.52-19.2-35.22-6.56-11.86-13.31-23.61-19.88-35.47-8.41-15.2-16.74-30.45-25.06-45.71-5.41-9.92-10.74-19.89-16.11-29.84-.5-.75-1-1.5-1.5-2.25,0-.25,0-.5,0-.74l-1.49-2.25c-.5-1-1-2-1.5-2.99-.04-.5.08-1.07-.13-1.48-4.04-7.69-8.09-15.37-12.23-23.01-.28-.52-1.24-.67-1.88-.99,0-.25,0-.5,0-.74-.75-1.25-1.5-2.5-2.25-3.75h0c-.28-1.32-.33-2.74-.89-3.93-8.32-17.58-16.8-35.08-24.95-52.74-1.01-2.19-.29-5.17-.38-7.78Z" style="fill: #3f9c1d; stroke-width: 0px;"/>
  <path d="M101.84,359.51c0,.25,0,.5,0,.74,1.54,3.1,2.95,6.27,4.66,9.27,3.1,5.46,6.37,10.81,9.58,16.21.5,1,1,2,1.5,2.99.5.75,1,1.5,1.49,2.25,0,.25,0,.5,0,.74.5.75,1,1.5,1.5,2.25,5.37,9.95,10.7,19.91,16.11,29.84,8.32,15.25,16.65,30.5,25.06,45.71,6.56,11.86,13.32,23.61,19.88,35.47,6.47,11.7,12.74,23.52,19.2,35.22,8.29,15.03,16.76,29.96,24.99,45.02,1.51,2.76,2.28,5.91,3.39,8.89-8.18-3.17-16.37-6.34-24.55-9.5,3.85-.1,7.71-.18,11.57-.32,3.94-.14,5.07-1.76,3.23-5.22-4.38-8.21-8.98-16.3-13.48-24.45-4.78-8.66-9.51-17.35-14.31-26-4.81-8.67-9.77-17.26-14.52-25.96-4.5-8.25-8.73-16.65-13.26-24.89-5.18-9.43-10.62-18.71-15.85-28.12-5.72-10.29-11.32-20.64-16.97-30.96-1.25-2-2.49-4-3.74-6-.25-.75-.5-1.49-.76-2.24-1-1.5-1.99-3-2.99-4.5-.25-.75-.5-1.5-.75-2.25-.5-.5-1-1-1.49-1.5,0-.25,0-.5,0-.75-1.75-3-3.5-5.99-5.24-8.99,0-.25,0-.5,0-.74-2.36-4.68-4.68-9.39-7.13-14.02-.27-.51-1.22-.66-1.86-.97-2.82-5.37-5.65-10.72-8.44-16.1-7.08-13.64-14.2-27.25-21.19-40.94-3.26-6.39-6.24-12.92-9.34-19.39-.5-.75-.99-1.51-1.49-2.26-1.09-4.89-2.05-9.81-3.29-14.66-2.06-8.12-4.3-16.2-6.46-24.3.96-1.92,1.4-3.77-.74-5.25,0,0-.01,0-.01,0,0-.75,0-1.5,0-2.25.78-3.33,2.11-6.7-.74-9.75,0-1,0-1.99,0-2.99,1.03-1.5,1.57-2.91-.74-3.75,0-1,0-1.99-.01-2.99.12-2.02.73-4.17.26-6.05-1.29-5.14.06-10.03.79-14.99.04-.29.78-.47,1.2-.7-.23,3.09-.85,6.2-.62,9.26.45,6.04,1.8,12.03,2.02,18.07.47,13.21,2.17,26.15,6.07,38.82,2.52,8.18,3.72,16.87,7.06,24.67,5.77,13.48,12.62,26.51,19.27,39.59,2.62,5.17,5.92,9.99,8.91,14.97,0,0,0,0,0,0,.75,1.25,1.5,2.5,2.25,3.75Z" style="fill: #338818; stroke-width: 0px;"/>
  <path d="M90.97,28.13c5.13,1.01,8.39-3.25,12.7-4.62,4.72-1.51,9.12-3.98,13.71-5.91,1.04-.44,2.3-.37,3.45-.53.15.32.29.64.44.95-2.47,1.64-4.77,3.63-7.43,4.86-12.1,5.59-23.78,11.86-34.17,20.3-8.07,6.56-16.31,12.94-24.03,19.9-4.3,3.88-7.62,8.83-11.56,13.14-.95,1.05-2.57,1.49-3.89,2.21.67-.98,1.33-1.95,2-2.93.38-.55.77-1.1,1.15-1.65,3.85-5.14,7.28-10.69,11.66-15.34,6.98-7.42,14.35-14.53,22.02-21.23,4.15-3.62,9.27-6.13,13.95-9.14Z" style="fill: #244e1c; stroke-width: 0px;"/>
  <path d="M217.27,1.31c-2.34-.14-4.69-.27-7.03-.41,5.1-.18,10.2-.36,15.3-.54-2.76.32-5.51.63-8.27.95Z" style="fill: #85a17f; stroke-width: 0px;"/>
  <path d="M202.26,1.15c-4.99.13-9.98.25-14.97.38,4.99-.13,9.98-.25,14.97-.38Z" style="fill: #85a17f; stroke-width: 0px;"/>
  <path d="M217.27,1.31c2.76-.32,5.51-.63,8.27-.95,2.17-.04,4.33-.08,6.5-.13,1.5.14,3.01.28,4.51.41-6.48.66-12.97,1.32-19.45,1.98.06-.44.11-.88.17-1.32Z" style="fill: #378f19; stroke-width: 0px;"/>
  <path d="M236.56.65c-1.5-.14-3.01-.28-4.51-.41,3.52-.08,7.04-.16,10.56-.23-2.02.22-4.03.43-6.05.65Z" style="fill: #85a17f; stroke-width: 0px;"/>
  <path d="M115.33,14.64c-2.1.73-4.2,1.47-6.31,2.2,2.1-.73,4.2-1.47,6.31-2.2Z" style="fill: #31811b; stroke-width: 0px;"/>
  <path d="M179.21,574.79c1.93.43,3.87.86,5.8,1.28,0,.37,0,.75.01,1.12-1.94-.8-3.88-1.6-5.82-2.4Z" style="fill: #285d1d; stroke-width: 0px;"/>
  <path d="M160.23,3.55c-1.37.16-2.75.33-4.12.49,1.37-.16,2.75-.33,4.12-.49Z" style="fill: #31811b; stroke-width: 0px;"/>
  <path d="M146.75,5.04c-1.18.11-2.36.21-3.55.32,1.18-.11,2.36-.21,3.55-.32Z" style="fill: #31811b; stroke-width: 0px;"/>
  <path d="M4.93,255.33c.35,1.25.71,2.49,1.06,3.74-.35-1.25-.71-2.49-1.06-3.74Z" style="fill: #285d1d; stroke-width: 0px;"/>
  <path d="M172.28,2.08c-.41.45-.82.9-1.23,1.36-.35-.36-.7-.72-1.05-1.07l2.28-.28Z" style="fill: #85a17f; stroke-width: 0px;"/>
  <path d="M140.8,5.71c-1.36.46-2.72.91-4.08,1.37,1.36-.46,2.72-.91,4.08-1.37Z" style="fill: #31811b; stroke-width: 0px;"/>
  <path d="M125.82,10.97c-1.35.46-2.71.91-4.06,1.37,1.36-.46,2.71-.91,4.06-1.37Z" style="fill: #31811b; stroke-width: 0px;"/>
  <path d="M6.37,260.57c.37,1.25.74,2.49,1.12,3.74-.37-1.25-.74-2.49-1.12-3.74Z" style="fill: #285d1d; stroke-width: 0px;"/>
  <path d="M152.73,4.34c-.92.11-1.85.21-2.77.32.92-.11,1.85-.21,2.77-.32Z" style="fill: #31811b; stroke-width: 0px;"/>
  <path d="M130.32,9.36c-.64.22-1.29.44-1.93.66.64-.22,1.29-.44,1.93-.66Z" style="fill: #31811b; stroke-width: 0px;"/>
  <path d="M4.04,252.33c.16.5.31.99.47,1.49-.16-.5-.31-.99-.47-1.49Z" style="fill: #285d1d; stroke-width: 0px;"/>
  <path d="M249.05.95c-.59-.11-1.17-.21-1.76-.32.59.11,1.17.21,1.76.32Z" style="fill: #85a17f; stroke-width: 0px;"/>
  <path d="M43.34,73.84c-.38.55-.77,1.1-1.15,1.65.38-.55.77-1.1,1.15-1.65Z" style="fill: #1f4e15; stroke-width: 0px;"/>
  <path d="M107.83,17.47c-.51.33-1.01.67-1.52,1,.51-.33,1.01-.67,1.52-1Z" style="fill: #31811b; stroke-width: 0px;"/>
  <path d="M2.69,240.36c.06.51.12,1.02.18,1.53-.06-.51-.12-1.02-.18-1.53Z" style="fill: #1f4e15; stroke-width: 0px;"/>
  <path d="M3.22,246.35c.07.53.15,1.07.22,1.6-.07-.53-.15-1.07-.22-1.6Z" style="fill: #1f4e15; stroke-width: 0px;"/>
  <path d="M1.3,226.12c.04.5.09,1,.13,1.5-.04-.5-.09-1-.13-1.5Z" style="fill: #1f4e15; stroke-width: 0px;"/>
  <path d="M1.75,231.37c.08.53.15,1.06.23,1.59-.08-.53-.15-1.06-.23-1.59Z" style="fill: #1f4e15; stroke-width: 0px;"/>
  <path d="M101.84,21.27c-.51.32-1.02.63-1.53.95.51-.32,1.02-.63,1.53-.95Z" style="fill: #31811b; stroke-width: 0px;"/>
  <path d="M2.31,236.65c.04.46.07.91.11,1.37-.04-.46-.07-.91-.11-1.37Z" style="fill: #1f4e15; stroke-width: 0px;"/>
  <path d="M188.93,578.56c.69.29,1.38.58,2.07.86-.69-.29-1.38-.58-2.07-.86Z" style="fill: #285d1d; stroke-width: 0px;"/>
  <path d="M192.69,580.02c.68.29,1.37.58,2.05.87-.68-.29-1.37-.58-2.05-.87Z" style="fill: #285d1d; stroke-width: 0px;"/>
  <path d="M201.54,583.48c.49.21.98.41,1.47.62-.49-.21-.98-.41-1.47-.62Z" style="fill: #338818; stroke-width: 0px;"/>
  <path d="M194.57,274.11c-4.83-.29-7.26-4.2-9.8-7.26-15.6-18.81-22.73-40.88-22.87-65.04-.15-26.13,7.62-49.95,23.89-70.58,6.35-8.06,14.2-14.71,23.19-19.85.61-.35,1.41-.36,2.12-.53,3.82,3.35,7.83,6.5,11.41,10.08,9.61,9.63,15.67,21.39,19.72,34.23,3.82,12.12,5.05,24.6,4.59,37.26-.14,1.74-.28,3.48-.41,5.21-.09,1.01-.19,2.02-.28,3.02-.38,2.25-.77,4.5-1.15,6.74-.13.5-.27,1-.4,1.5-.37,1.5-.74,2.99-1.11,4.49l-.4,1.5c-1.75,4.64-3.33,9.35-5.29,13.9-8.8,20.42-22.66,36.06-43.19,45.32Z" style="fill: #fdfdfc; stroke-width: 0px;"/>
  <path d="M244.96,207.39c.38-2.25.77-4.5,1.15-6.74.09-1.01.19-2.02.28-3.02.14-1.74.28-3.48.41-5.21,3.08-1.16,5.59-.97,6.7,2.73.1.33.44.6.71.86,4.17,4.18,7.79,9.24,12.66,12.33,7.18,4.56,7.99,12.08,10.92,18.68.28.63.4,1.69.06,2.19-2.56,3.78-.2,6.87,1.36,9.98,2.03,4.04,2.45,7.92.15,12.04-.56,1.01-.29,2.6-.1,3.88.45,2.99.24,5.55-2.37,7.72-5.79,4.8-11.68,9.22-19.59,9.79-3.31.24-5.81,1.42-5.17,5.54.09.58-.37,1.63-.85,1.86-3.93,1.82-7.81,3.86-11.93,5.09-3.55,1.06-7.44.94-11.07,1.79-1.33.31-2.37,1.89-3.54,2.89-6.39-2.2-12.84-4.27-19.16-6.67-2.64-1-5.21-2.46-7.44-4.19-1.52-1.18-2.4-3.18-3.57-4.81,20.53-9.26,34.39-24.9,43.19-45.32,1.96-4.55,3.54-9.26,5.29-13.9.13-.5.26-1,.4-1.5.37-1.5.74-2.99,1.11-4.49.13-.5.27-1,.4-1.5Z" style="fill: #205a13; stroke-width: 0px;"/>
  <path d="M224.74,289.78c1.17-1,2.21-2.58,3.54-2.89,3.63-.85,7.52-.72,11.07-1.79,4.12-1.23,8-3.28,11.93-5.09.49-.23.95-1.28.85-1.86-.64-4.12,1.86-5.31,5.17-5.54,7.91-.56,13.8-4.99,19.59-9.79,2.62-2.17,2.82-4.73,2.37-7.72-.19-1.28-.47-2.88.1-3.88,2.3-4.12,1.88-8-.15-12.04-1.56-3.12-3.92-6.2-1.36-9.98.34-.5.22-1.56-.06-2.19-2.93-6.6-3.74-14.12-10.92-18.68-4.87-3.09-8.49-8.15-12.66-12.33-.26-.26-.61-.53-.71-.86-1.11-3.7-3.63-3.89-6.7-2.73.45-12.66-.77-25.14-4.59-37.26-4.05-12.85-10.11-24.61-19.72-34.23-3.58-3.58-7.59-6.73-11.41-10.08,1.05-.56,2.09-1.11,3.14-1.67,1.22,1.04,2.33,2.25,3.68,3.1,6.79,4.25,15.16,6.78,16.96,16.28.15.81,1.17,1.56,1.93,2.15,6.63,5.12,14.06,9.26,18.14,17.23,3.69,7.21,11.19,12.16,12.54,20.83.1.64.77,1.21,1.22,1.77,1.13,1.43,2.6,2.7,3.36,4.3,1.53,3.24,2.39,6.81,4.06,9.96,2.37,4.46,5.32,8.61,7.84,12.99,3.77,6.54,7.37,13.18,11.08,19.76.54.96,1.64,1.66,1.99,2.66.99,2.85,3.08,6.22,2.31,8.61-2.22,6.91-5.34,13.6-8.68,20.07-2.53,4.89-5.95,9.33-8.97,13.97-7.95,7.43-15.59,15.24-25.48,20.23-3,1.25-5.99,2.51-8.99,3.76-3.25.75-6.49,1.49-9.74,2.24-.5.24-1,.48-1.51.72-1.24.24-2.48.48-3.73.72-2.5-.24-5-.48-7.49-.72Z" style="fill: #236313; stroke-width: 0px;"/>
  <path d="M281.68,262.84c3.02-4.64,6.44-9.07,8.97-13.97,3.34-6.48,6.46-13.16,8.68-20.07.77-2.39-1.32-5.76-2.31-8.61-.35-.99-1.44-1.7-1.99-2.66-3.72-6.57-7.32-13.21-11.08-19.76-2.52-4.38-5.47-8.53-7.84-12.99-1.67-3.15-2.53-6.73-4.06-9.96-.76-1.6-2.23-2.87-3.36-4.3-.45-.57-1.12-1.13-1.22-1.77-1.36-8.67-8.85-13.63-12.54-20.83-4.08-7.96-11.5-12.11-18.14-17.23-.76-.59-1.77-1.33-1.93-2.15-1.8-9.5-10.17-12.03-16.96-16.28-1.35-.84-2.46-2.05-3.68-3.1,1.75-.73,3.51-1.46,5.26-2.19.41.26.8.55,1.22.77,6.57,3.35,13.89,5.01,19.36,10.78,4.08,4.3,9.54,7.26,14.25,10.99,2.76,2.18,5.27,4.68,7.85,7.08,2.16,2.01,4.26,4.08,6.37,6.14,3.62,3.53,7.25,7.03,10.82,10.6,4.46,4.46,8.25,9.91,13.42,13.26,10.11,6.56,13.5,16.21,13.38,27.02-.1,9.56-2.17,19.11-3.5,28.65-1.95,14.02-8.43,26.07-16.68,37.27-1.03,1.4-2.86,2.22-4.31,3.31Z" style="fill: #276f14; stroke-width: 0px;"/>
  <path d="M281.68,262.84c1.46-1.09,3.28-1.91,4.31-3.31,8.25-11.2,14.73-23.25,16.68-37.27,1.33-9.54,3.39-19.09,3.5-28.65.11-10.81-3.28-20.46-13.38-27.02-5.16-3.35-8.96-8.8-13.42-13.26-3.57-3.57-7.21-7.08-10.82-10.6-2.11-2.06-4.21-4.13-6.37-6.14-2.58-2.4-5.09-4.9-7.85-7.08-4.71-3.73-10.17-6.69-14.25-10.99-5.47-5.77-12.79-7.43-19.36-10.78-.43-.22-.82-.51-1.22-.77,2.75-.99,5.49-1.98,8.24-2.97,1.01.74,1.92,1.73,3.04,2.18,8.59,3.5,17.34,6.63,25.8,10.42,6.17,2.77,11.97,6.37,17.94,9.6,3.36,1.82,7,3.27,10.03,5.53,5.12,3.83,9.84,8.03,12.09,14.53,1.34,3.87,3.98,7.29,6.03,10.91,0,.75,0,1.5,0,2.25.5.5,1,1,1.49,1.5.18,1.59.04,3.3.59,4.75,3.58,9.6,5.14,19.56,5.35,29.73.09,4.33.11,8.79-.81,12.97-1.81,8.18-3.99,16.32-6.63,24.27-1.99,5.99-4.95,11.65-7.48,17.45-4.76,5.64-9.14,11.67-14.38,16.82-5.32,5.22-11.37,9.74-17.37,14.21-1.97,1.47-4.78,1.82-7.21,2.68v-.75c9.88-4.99,17.52-12.8,25.47-20.23Z" style="fill: #2b7816; stroke-width: 0px;"/>
  <path d="M199.29,3.66c3.04-.21,6.09-.43,9.13-.64-1.81.96-3.54,2.14-5.45,2.84-8.42,3.08-17.02,5.72-25.3,9.13-4.79,1.97-9.14,5.03-13.59,7.76-5.62,3.45-11.26,6.9-16.66,10.68-3.55,2.48-6.89,5.34-9.96,8.41-8.11,8.11-16.62,15.93-23.84,24.79-7.52,9.23-14.09,19.31-20.38,29.46-3.72,5.99-6.08,12.82-9.06,19.27-2.34,5.07-5.17,9.97-6.91,15.23-2.73,8.24-4.73,16.72-7.03,25.1-1.33,2.47-2.86,4.85-3.94,7.41-3.59,8.48-4.56,17.55-5.76,26.57-.23,1.73-1.42,3.33-2.16,4.99.25-4,.5-8,.74-11.99,0-1.75,0-3.5,0-5.24l1.49-6c1.01-4.22,1.93-8.46,3.03-12.66,2.42-9.23,3.63-19.06,7.68-27.52,7.43-15.51,12.4-32.29,23.33-46.1,5.46-6.9,9.33-15.17,15.28-21.55,13.73-14.74,27.67-29.48,45.75-39.15,7.48-4,13.93-10.12,22.82-11.4,1.91-.27,3.77-1.15,5.53-2,.96-.46,1.66-1.46,2.47-2.21.74-.01,1.48-.02,2.21-.04,3.07-.91,6.17-1.71,9.17-2.8.65-.24.93-1.52,1.38-2.31Z" style="fill: #378f19; stroke-width: 0px;"/>
  <path d="M295.17,250.11c2.53-5.81,5.49-11.47,7.48-17.45,2.65-7.95,4.82-16.09,6.63-24.27.93-4.18.9-8.65.81-12.97-.22-10.17-1.77-20.13-5.35-29.73-.54-1.45-.41-3.16-.59-4.75-.5-.5-1-1-1.49-1.5,0-.75,0-1.5,0-2.25-1.21-3.23-2.33-6.49-3.64-9.67-3.84-9.37-9.53-17.44-16.99-24.34-2.86-2.64-5.25-5.79-7.85-8.7,1.48.86,3.15,1.49,4.4,2.6,9.52,8.47,17.13,18.51,23.95,29.22,2.75,4.31,6.04,8.27,9.08,12.39,1.72,10.39,3.73,20.75,5.04,31.19.56,4.49-.05,9.21-.64,13.75-.77,5.9-1.88,11.76-3.13,17.58-3.06,14.12-9.91,26.51-18,38.27-.89,1.3-2.27,2.27-3.43,3.39.09-.96,0-1.97.29-2.87,1.07-3.32,2.27-6.6,3.42-9.89Z" style="fill: #328717; stroke-width: 0px;"/>
  <path d="M58.39,194.65c.75-1.66,1.93-3.26,2.16-4.99,1.2-9.02,2.17-18.09,5.76-26.57,1.09-2.57,2.62-4.95,3.94-7.41-1.78,7.83-3.92,15.6-5.23,23.51-1.17,7.05-1.63,14.24-2.06,21.39-.48,8.17-.68,16.35-.78,24.53-.04,3.57.45,7.16.7,10.74.19.51.38,1.01.56,1.52.57,7.67.79,15.39,1.84,23,.74,5.37,2.57,10.59,3.97,15.86,1.34,5.04,2.74,10.05,4.12,15.08.08,2.61-.63,5.59.38,7.78,8.14,17.66,16.63,35.16,24.95,52.74.56,1.18.61,2.61.89,3.93-2.99-4.98-6.29-9.81-8.91-14.97-6.65-13.09-13.5-26.12-19.27-39.59-3.34-7.8-4.54-16.49-7.06-24.67-3.9-12.67-5.61-25.61-6.07-38.82-.21-6.04-1.56-12.03-2.02-18.07-.23-3.05.38-6.17.62-9.26,0,0,0,0,0,0,2.63-1.1,1.56-2.82.75-4.49,0-1.5,0-3,0-4.49,2.54-1.42,1.71-3.33.74-5.25,0-.5,0-1,0-1.5Z" style="fill: #3a9619; stroke-width: 0px;"/>
  <path d="M274.19,114.47c2.6,2.92,4.99,6.06,7.85,8.7,7.46,6.89,13.14,14.96,16.99,24.34,1.31,3.19,2.43,6.44,3.64,9.67-2.05-3.62-4.69-7.04-6.03-10.91-2.25-6.5-6.98-10.69-12.09-14.53-3.03-2.27-6.67-3.72-10.03-5.53-5.97-3.23-11.77-6.83-17.94-9.6-8.46-3.79-17.21-6.92-25.8-10.42-1.12-.46-2.03-1.44-3.04-2.18,7.66-1.78,15.38-2.37,23.2-1.3.51.18,1.01.37,1.52.55.5.01,1,.03,1.5.04,1.12.79,2.18,1.72,3.38,2.36,5.6,2.98,11.24,5.88,16.86,8.81Z" style="fill: #31811b; stroke-width: 0px;"/>
  <path d="M274.19,114.47c-5.62-2.93-11.26-5.83-16.86-8.81-1.21-.64-2.26-1.57-3.38-2.36,6.55,2.18,13.48,3.6,19.57,6.68,13.86,7.01,23.56,18.57,31.05,31.88,2.96,5.26,4.74,11.19,7.05,16.82-3.04-4.12-6.34-8.08-9.08-12.39-6.83-10.71-14.43-20.75-23.95-29.22-1.25-1.11-2.93-1.75-4.4-2.6Z" style="fill: #39901c; stroke-width: 0px;"/>
  <path d="M295.17,250.11c-1.15,3.29-2.35,6.57-3.42,9.89-.29.89-.2,1.91-.29,2.87-9.14,11.35-20.38,20.04-34.24,24.52-6.97,2.26-14.54,2.68-21.86,3.81-.98.15-2.08-.44-3.12-.69,1.24-.24,2.48-.48,3.73-.72.5-.24,1-.48,1.51-.72,3.25-.75,6.49-1.49,9.74-2.24,3-1,6-2,8.99-3,2.43-.86,5.24-1.21,7.21-2.68,6-4.47,12.05-8.99,17.37-14.21,5.24-5.15,9.62-11.18,14.38-16.82Z" style="fill: #32831a; stroke-width: 0px;"/>
  <path d="M210.48,2.98c1.75-.1,3.51-.2,5.26-.31-1.75.1-3.51.2-5.26.31Z" style="fill: #378f19; stroke-width: 0px;"/>
  <path d="M252.45,103.26c-.51-.19-1.01-.37-1.52-.55.51.19,1.01.37,1.52.55Z" style="fill: #39901c; stroke-width: 0px;"/>
  <path d="M63.46,237.37c-.19-.51-.38-1.01-.56-1.52.19.51.38,1.01.56,1.52Z" style="fill: #3f9c1d; stroke-width: 0px;"/>
  <path d="M56.14,251.6c0,.75,0,1.5,0,2.25-3.13,2.12-1.6,5.25-1.17,7.7,1.22,7.04,3.17,13.95,4.53,20.97.4,2.08.34,4.56-.44,6.49-2.21,5.47-1.85,10.29,1.24,15.45,3.52,5.87,6.26,12.21,9.34,18.34-.99-1.11-2.19-2.1-2.94-3.36-3.36-5.63-6.38-11.48-9.93-16.98-3.37-5.23-3.25-11.29-4.15-16.95-1.32-8.28-2.5-16.53-4.07-24.78-1.54-8.08-3.29-16.91-.14-25.37.33-.89.31-1.98.22-2.95-.45-5.34-.98-10.68-1.48-16.01.04-1.74-.18-3.54.16-5.22,1.37-6.86,3.07-13.67,4.3-20.55.53-2.96-.37-6.22.4-9.08,2.4-8.93,5.24-17.75,8.02-26.57.28-.89,1.38-1.52,2.1-2.28-.27,1.19-.53,2.38-.8,3.57-1.48,6.55-2.97,13.1-4.46,19.66-.49.5-.99,1.01-1.48,1.51.18,1.34.59,2.69.5,4.01-.34,5.18-.82,10.35-1.26,15.53-.53,6.17-1.46,12.33-1.48,18.5-.02,5.55.95,11.11,1.48,16.67,0,1,0,1.99.01,2.99,0,1.25,0,2.5,0,3.75-.78,3.08-2.15,6.22.74,8.99.25,1.25.5,2.5.76,3.75Z" style="fill: #276f14; stroke-width: 0px;"/>
  <path d="M107.09,376.74c.64.31,1.59.46,1.86.97,2.44,4.64,4.77,9.34,7.13,14.02-1.79-2.34-3.79-4.55-5.3-7.05-1.49-2.49-2.48-5.28-3.69-7.94Z" style="fill: #2d7f14; stroke-width: 0px;"/>
  <path d="M116.08,392.48c1.75,3,3.5,5.99,5.24,8.99-3.31-2.09-4.79-5.24-5.24-8.99Z" style="fill: #2d7f14; stroke-width: 0px;"/>
  <path d="M127.33,412.71c1.25,2,2.49,4,3.74,6-1.25-2-2.49-4-3.74-6Z" style="fill: #2d7f14; stroke-width: 0px;"/>
  <path d="M56.15,253.84c2.14,1.48,1.71,3.33.74,5.25-.25-1.75-.49-3.5-.74-5.25Z" style="fill: #2d7f14; stroke-width: 0px;"/>
  <path d="M123.58,405.96c1,1.5,1.99,3,2.99,4.5-1-1.5-1.99-3-2.99-4.5Z" style="fill: #2d7f14; stroke-width: 0px;"/>
  <path d="M66.64,298.05c.5.75.99,1.51,1.49,2.26-.5-.75-.99-1.51-1.49-2.26Z" style="fill: #2d7f14; stroke-width: 0px;"/>
  <path d="M121.33,402.22c.5.5,1,1,1.49,1.5-.5-.5-1-1-1.49-1.5Z" style="fill: #2d7f14; stroke-width: 0px;"/>
  <path d="M62.13,152.68c-.72.75-1.82,1.39-2.1,2.28-2.79,8.82-5.63,17.64-8.02,26.57-.77,2.85.13,6.12-.4,9.08-1.23,6.89-2.94,13.69-4.3,20.55-.34,1.68-.12,3.48-.16,5.22-.5.59-1.4,1.15-1.43,1.76-.33,6.26-.59,12.53-.74,18.8-.14,5.87-.15,11.74-.18,17.61-.01,2.56.03,5.12.12,7.67.23,6.64.55,13.29.71,19.93.11,4.55.02,9.11.02,13.66-4.03-1.62-2.89-5.55-3.71-8.54-1.88-6.86-3.54-13.78-5.29-20.68-.75-7.69-1.82-15.36-2.16-23.06-.38-8.59-.1-17.22-.07-25.83,0-1.22,0-2.58.48-3.65,5.15-11.31,4.54-23.6,6.27-35.5.35-2.43.75-4.9,1.56-7.2,2.17-6.13,4.54-12.19,6.93-18.24.44-1.11,1.37-2.03,2.07-3.04.47-.68,1.03-1.31,1.37-2.05,1.9-4.11,3.36-8.48,5.7-12.33,3-4.94,6.9-9.32,10.03-14.19,2.95-4.59,6.07-9.24,7.95-14.3,2.98-8.06,7.84-14.85,12.69-21.72.36-.52,1.25-.67,1.89-.99-4.14,7.79-9.57,14.8-12.67,23.27-3.73,10.17-8.5,19.97-12.81,29.93l-.74,1.5c0,.75,0,1.5,0,2.25-.25.5-.5,1-.75,1.5-.25,1-.5,2-.75,3-.25.75-.5,1.5-.75,2.25-.25,1.5-.5,3-.75,4.5Z" style="fill: #236811; stroke-width: 0px;"/>
  <path d="M51.64,308.55c-1-1.5-2-3-3-4.5,1,1.5,2,3,3,4.5Z" style="fill: #236811; stroke-width: 0px;"/>
  <path d="M47.9,300.31c-.5-.5-1-1-1.5-1.5.5.5,1,1,1.5,1.5Z" style="fill: #236811; stroke-width: 0px;"/>
  <path d="M53.14,311.55c-.5-.5-1-1-1.5-1.5.5.5,1,1,1.5,1.5Z" style="fill: #236811; stroke-width: 0px;"/>
  <path d="M35.91,284.57c-.91,6.31,1.8,11.76,4.49,17.05,8,15.72,16.19,31.34,24.49,46.9,7.82,14.69,15.78,29.31,23.84,43.87,8.91,16.11,18.08,32.07,26.97,48.19,6.18,11.19,11.98,22.6,18.16,33.78,5.77,10.43,11.9,20.67,17.73,31.07,5.82,10.37,11.39,20.88,17.21,31.26,4.44,7.92,8.92,15.82,13.67,23.55,4.27,6.93,3.04,9.97-5.08,11.38-.72.13-1.41.47-2.11.71-.3-1.55-1.38-3.57-.77-4.56,1.93-3.16,1.32-5.93-.28-8.75-3.98-7.03-8.07-14-12.04-21.03-5.79-10.27-11.49-20.6-17.28-30.87-6.9-12.22-13.91-24.38-20.77-36.63-6.01-10.72-11.84-21.55-17.81-32.3-4.33-7.81-8.76-15.56-13.1-23.37-1.2-2.16-2.25-4.4-3.37-6.61-1.5-2-3-4-4.5-6-.25-.75-.5-1.5-.75-2.25-2.85-5.93-5.65-11.88-8.57-17.77-1.86-3.74-3.8-7.46-5.94-11.04-.81-1.35-2.29-2.29-3.47-3.42-.25-.75-.5-1.5-.75-2.24-1.86-3.69-3.68-7.4-5.64-11.04-.27-.5-1.22-.65-1.85-.96,0-.5,0-1,0-1.5-1.77-3.65-3.43-7.37-5.34-10.94-3.16-5.9-6.73-11.59-9.69-17.58-3.65-7.41-6.91-15.01-10.24-22.58-1.68-3.82-3.9-7.61-4.52-11.62-.94-5.97-.68-12.13-.93-18.21,1.24,1.82,2.55,3.6,3.69,5.48,1.59,2.63,3.04,5.33,4.55,8Z" style="fill: #246017; stroke-width: 0px;"/>
  <path d="M27.66,271.08c.25,6.08,0,12.24.93,18.21.63,4.01,2.85,7.81,4.52,11.62,3.33,7.56,6.58,15.17,10.24,22.58,2.96,5.99,6.53,11.69,9.69,17.58,1.92,3.57,3.57,7.29,5.34,10.94-4.36-.76-6.03-2.58-6.84-6.52-.32-1.57-1.21-3.52-2.47-4.31-2.76-1.75-3.32-3.48-.82-6.25-1.96-1.53-4.07-2.67-5.43-4.4-1.21-1.53-1.63-3.71-2.32-5.63-.32-.91-.18-2.56-.69-2.76-6.49-2.55-6.52-9.93-10.71-14.18-.86-.87-.85-2.54-1.5-3.7-.53-.94-1.45-1.65-2.19-2.46-.76-1.93-1.49-3.87-2.3-5.78-3.68-8.69-5.4-17.76-5.2-27.19-.39-7.26-.76-14.52-1.16-21.79-.34-5.98-.72-11.95-1.08-17.93h3.44c.72-3.27,1.26-5.76,1.81-8.24.25,1.77.23,3.64.81,5.29.93,2.69-1.62,6.31,2.19,8.19.51,7.51.86,15.03,1.58,22.52.45,4.76,1.43,9.47,2.17,14.2Z" style="fill: #215a15; stroke-width: 0px;"/>
  <path d="M66.63,367.75c1.18,1.13,2.66,2.07,3.47,3.42,2.14,3.58,4.08,7.3,5.94,11.04,2.93,5.89,5.72,11.84,8.57,17.77-2.74-.39-3.79-1.81-4.76-4.63-1.34-3.9-4.46-7.15-6.51-10.84-2.93-5.28-5.97-10.57-6.71-16.75Z" style="fill: #215a15; stroke-width: 0px;"/>
  <path d="M58.39,353.51c.63.31,1.58.45,1.85.96,1.96,3.64,3.78,7.35,5.64,11.04-5.83-2.47-7.49-5.13-7.49-11.99Z" style="fill: #215a15; stroke-width: 0px;"/>
  <path d="M85.36,402.22c1.5,2,3,4,4.5,6-1.5-2-3-4-4.5-6Z" style="fill: #215a15; stroke-width: 0px;"/>
  <path d="M15.68,229.12c.36,5.98.75,11.95,1.08,17.93.41,7.26.78,14.52,1.16,21.79-.74-1.01-1.96-1.93-2.16-3.03-1.6-9.01-3.42-18.01-4.34-27.1-.61-6.01.15-12.16.28-18.25.07-3.3-.18-6.63.24-9.88,1.63-12.5,2.93-25.09,5.43-37.42,1.72-8.46,5.24-16.56,7.97-24.81.78-2.35,1.72-4.66,2.35-7.05,2.46-9.28,8.14-16.46,14.1-23.77,4.14-5.07,6.34-11.7,9.6-17.53,1.92-3.44,3.83-7.01,6.41-9.93,6.83-7.74,13.96-15.21,21.11-22.65,1.87-1.94,4.04-4,6.47-4.91,8.01-3,13.32-9.42,19.66-14.55,10.8-8.72,21.44-17.67,34.42-23.19,2.96-1.26,5.81-2.88,8.53-4.63,9.26-5.95,20.14-7.48,30.19-11.28,2.16-.81,4.54-1.05,6.81-1.55,0,.27,0,.53,0,.79-1.24.49-2.48.98-3.72,1.47-.76.49-1.52.98-2.28,1.46-1.07.29-2.15.55-3.21.87-3.17.96-6.33,1.94-9.49,2.91-5.73,2.13-10.98,4.98-15.02,9.72-.24.01-.48.02-.72.02-.51.49-1.02.99-1.52,1.48-.24.01-.48.02-.72.02-3.01,1.99-6.01,3.98-9.02,5.97-1.75,1.25-3.5,2.49-5.25,3.74-.78-.31-2.06-1.09-2.28-.86-2.58,2.7-5,5.55-7.46,8.36-.25.25-.5.5-.75.75-1,.38-2.21.51-2.96,1.17-3.69,3.27-7.14,6.82-10.91,9.99-2.41,2.03-5.22,3.57-7.86,5.33-7.03.09-12.22,3.16-15.93,9.19-1.79,2.91-4.1,5.57-6.55,7.97-4.21,4.12-8.97,7.7-12.98,11.99-2.81,3.01-4.98,6.69-7.04,10.3-1.51,2.65-2.33,5.69-3.53,8.52-2.88,6.83-8.57,11.46-13.18,16.97-2.35,2.81-4.57,5.93-5.98,9.28-3.39,8.1-5.91,16.57-9.45,24.59-4.19,9.5-6.03,19.31-6.36,29.6-.17,5.12-.38,10.45-1.91,15.25-2.61,8.2-2.45,16.59-3.26,24.93Z" style="fill: #1e5612; stroke-width: 0px;"/>
  <path d="M185.01,8.11c0-.27,0-.53,0-.8,4.01-1.24,8.02-2.48,12.03-3.72-1.2.84-2.36,1.73-3.6,2.49-1.54.95-3.14,1.8-4.71,2.7-.74.01-1.48.02-2.21.04-.5-.24-1.01-.48-1.51-.71Z" style="fill: #246017; stroke-width: 0px;"/>
  <path d="M188.74,8.78c1.57-.89,3.17-1.74,4.71-2.7,1.24-.77,2.4-1.66,3.6-2.49.75.02,1.5.05,2.24.07-.45.8-.73,2.08-1.38,2.32-3,1.09-6.1,1.9-9.17,2.8Z" style="fill: #2d7f14; stroke-width: 0px;"/>
  <path d="M27.66,271.08c-.74-4.73-1.72-9.44-2.17-14.2-.71-7.49-1.07-15.01-1.58-22.52.25-1.04.62-2.08.73-3.14.45-4.61-.94-9.19.64-13.9,1.55-4.63,2.12-9.6,3.01-14.43.63-3.39,1.15-6.81,1.6-10.23.83-6.3,1.11-12.72,2.51-18.88,1.08-4.74,3.72-9.11,5.37-13.75,2.6-7.33,4.67-14.86,7.55-22.07,1.28-3.21,3.44-6.62,6.17-8.58,3.34-2.39,6.16-5.04,8.05-8.49,4.36-7.91,8.38-16,12.55-24.01.4-.76.75-1.65,1.38-2.18,2.02-1.72,4.24-3.21,6.23-4.96,5.63-4.96,12.19-8.91,16.07-15.79,1.23-2.18,4-3.49,6.06-5.2-1.5,2.5-3,4.99-4.5,7.49-.5.5-.99,1.01-1.49,1.51-1.5,2.24-3,4.49-4.5,6.73-.64.32-1.53.47-1.89.99-4.84,6.87-9.7,13.66-12.69,21.72-1.87,5.06-4.99,9.72-7.95,14.3-3.13,4.87-7.03,9.25-10.03,14.19-2.34,3.84-3.8,8.21-5.7,12.33-.34.74-.9,1.37-1.37,2.05-.7,1.01-1.63,1.93-2.07,3.04-2.39,6.05-4.76,12.11-6.93,18.24-.81,2.3-1.21,4.77-1.56,7.2-1.73,11.89-1.11,24.19-6.27,35.5-.49,1.07-.48,2.43-.48,3.65-.04,8.61-.31,17.23.07,25.83.34,7.7,1.41,15.37,2.16,23.06,0,1.73.07,3.46-.01,5.19-.21,4.27-.49,8.53-.74,12.79-1.51-2.67-2.96-5.38-4.55-8-1.14-1.88-2.45-3.66-3.69-5.48Z" style="fill: #216112; stroke-width: 0px;"/>
  <path d="M116.08,385.74c-3.2-5.4-6.48-10.76-9.58-16.21-1.71-3-3.11-6.17-4.66-9.27.64.32,1.6.47,1.88.99,4.14,7.64,8.19,15.32,12.23,23.01.21.4.09.98.13,1.48Z" style="fill: #3a9619; stroke-width: 0px;"/>
  <path d="M101.84,359.51c-.75-1.25-1.5-2.5-2.25-3.75.75,1.25,1.5,2.5,2.25,3.75Z" style="fill: #3a9619; stroke-width: 0px;"/>
  <path d="M119.08,390.98c-.5-.75-1-1.5-1.49-2.25.5.75,1,1.5,1.49,2.25Z" style="fill: #3a9619; stroke-width: 0px;"/>
  <path d="M120.58,393.98c-.5-.75-1-1.5-1.5-2.25.5.75,1,1.5,1.5,2.25Z" style="fill: #3a9619; stroke-width: 0px;"/>
  <path d="M91.36,84.49c1.5-2.24,3-4.49,4.5-6.74.5-.5.99-1.01,1.49-1.51,1.5-2.5,3-4.99,4.5-7.49,0,0,0,0,0,0,1.75-2.25,3.49-4.5,5.24-6.75,2.5-2.49,5-4.99,7.5-7.48,1-1,2.01-2,3.01-3,2-1.99,3.99-3.99,5.99-5.98.75-.75,1.51-1.5,2.26-2.25,2.74-2.51,5.48-5.01,8.22-7.52,1.75-1.25,3.5-2.49,5.25-3.74,3.01-1.99,6.01-3.98,9.02-5.97.24,0,.48,0,.72-.02.51-.49,1.02-.99,1.52-1.48.24,0,.48,0,.72-.02,3.84-2.22,7.72-4.38,11.5-6.71,1.3-.8,2.35-2,3.51-3.01,3.16-.97,6.33-1.95,9.49-2.91,1.06-.32,2.14-.58,3.21-.87.76-.49,1.52-.98,2.28-1.46,1.24-.49,2.48-.98,3.72-1.47.5.24,1.01.48,1.51.71-.81.75-1.51,1.75-2.47,2.21-1.76.85-3.62,1.72-5.53,2-8.89,1.28-15.34,7.4-22.82,11.4-18.08,9.67-32.02,24.42-45.75,39.15-5.95,6.38-9.82,14.65-15.28,21.55-10.93,13.81-15.9,30.59-23.33,46.1-4.05,8.46-5.26,18.29-7.68,27.52-1.1,4.2-2.03,8.44-3.03,12.66-2.98,1.38-2.71,3.57-1.49,6,0,1.75,0,3.5,0,5.24-.48.46-1.35.89-1.39,1.39-.6,6.61-1.11,13.23-1.55,19.86-.04.64.46,1.33.71,1.99,0,1.5,0,3,0,4.5,0,0,0,0,0,0-.42.23-1.16.42-1.2.7-.73,4.96-2.08,9.85-.79,14.99.47,1.88-.14,4.02-.26,6.05-.53-5.56-1.5-11.11-1.48-16.67.02-6.17.95-12.33,1.48-18.5.44-5.17.93-10.35,1.26-15.53.09-1.32-.32-2.67-.5-4.01.49-.5.99-1.01,1.48-1.51,1.49-6.55,2.97-13.1,4.46-19.66.27-1.19.53-2.38.8-3.57.25-1.5.5-3,.75-4.5.25-.75.5-1.5.75-2.25.25-1,.5-2,.75-3,.25-.5.5-1,.75-1.5,0-.75,0-1.5,0-2.25.25-.5.5-1,.74-1.5,4.32-9.96,9.08-19.76,12.81-29.93,3.11-8.46,8.53-15.48,12.67-23.27Z" style="fill: #2d7f14; stroke-width: 0px;"/>
  <path d="M56.14,251.6c-.25-1.25-.5-2.5-.76-3.75,0-2,0-4,.01-6,2.85,3.05,1.53,6.42.74,9.75Z" style="fill: #2d7f14; stroke-width: 0px;"/>
  <path d="M55.4,241.85c0,2,0,4-.01,6-2.89-2.78-1.52-5.91-.74-8.99.25,0,.5,0,.75,0,0,1,0,1.99,0,2.99Z" style="fill: #297414; stroke-width: 0px;"/>
  <path d="M55.39,238.86c-.25,0-.5,0-.75,0,0-1.25,0-2.5,0-3.75,2.32.84,1.78,2.25.74,3.75Z" style="fill: #2d7f14; stroke-width: 0px;"/>
  <path d="M246.39,197.62c-.09,1.01-.19,2.02-.28,3.02.09-1.01.19-2.02.28-3.02Z" style="fill: #236313; stroke-width: 0px;"/>
  <path d="M244.96,207.39c-.13.5-.27,1-.4,1.5.13-.5.27-1,.4-1.5Z" style="fill: #236313; stroke-width: 0px;"/>
  <path d="M243.45,213.38c-.13.5-.26,1-.4,1.5.13-.5.26-1,.4-1.5Z" style="fill: #236313; stroke-width: 0px;"/>
  <path d="M256.2,283.82c-3,1-6,2-8.99,3,3-1.25,5.99-2.5,8.99-3.76,0,.25,0,.5,0,.75Z" style="fill: #276f14; stroke-width: 0px;"/>
  <path d="M237.47,289.06c-.5.24-1,.48-1.51.72.5-.24,1-.48,1.51-.72Z" style="fill: #266d14; stroke-width: 0px;"/>
  <path d="M302.66,159.43c.5.5,1,1,1.49,1.5-.5-.5-1-1-1.49-1.5Z" style="fill: #31811b; stroke-width: 0px;"/>
  <path d="M56.89,205.89c-.25-.66-.75-1.35-.71-1.99.45-6.62.96-13.24,1.55-19.86.05-.5.91-.93,1.39-1.39-.25,4-.5,8-.74,11.99,0,.5,0,1,0,1.5-.25,1.75-.5,3.5-.74,5.25,0,1.5,0,3,0,4.49-.25,0-.5,0-.75,0Z" style="fill: #338818; stroke-width: 0px;"/>
  <path d="M59.14,177.41c-1.21-2.43-1.49-4.62,1.49-6-.5,2-1,4-1.49,6Z" style="fill: #338818; stroke-width: 0px;"/>
  <path d="M57.64,201.4c.25-1.75.5-3.5.74-5.25.96,1.92,1.8,3.82-.74,5.25Z" style="fill: #378f19; stroke-width: 0px;"/>
  <path d="M56.89,205.89c.25,0,.5,0,.75,0,.81,1.68,1.88,3.39-.75,4.49,0-1.5,0-3,0-4.5Z" style="fill: #378f19; stroke-width: 0px;"/>
  <path d="M56.88,175.91c-.49.5-.99,1.01-1.48,1.51.49-.5.99-1.01,1.48-1.51Z" style="fill: #297414; stroke-width: 0px;"/>
  <path d="M63.63,145.94c-.25.75-.5,1.5-.75,2.25.25-.75.5-1.5.75-2.25Z" style="fill: #276f14; stroke-width: 0px;"/>
  <path d="M65.12,141.44c-.25.5-.5,1-.75,1.5.25-.5.5-1,.75-1.5Z" style="fill: #276f14; stroke-width: 0px;"/>
  <path d="M65.87,137.7c-.25.5-.5,1-.74,1.5.25-.5.5-1,.74-1.5Z" style="fill: #276f14; stroke-width: 0px;"/>
  <path d="M114.59,54.53c-2.5,2.49-5,4.99-7.5,7.48-3.89.59-4.62,3.63-5.24,6.75,0,0,0,0,0,0-2.06,1.71-4.83,3.02-6.06,5.2-3.89,6.87-10.44,10.82-16.07,15.79-1.99,1.75-4.21,3.24-6.23,4.96-.63.53-.98,1.42-1.38,2.18-4.17,8.01-8.19,16.1-12.55,24.01-1.9,3.44-4.71,6.09-8.05,8.49-2.73,1.96-4.89,5.36-6.17,8.58-2.88,7.21-4.95,14.74-7.55,22.07-1.65,4.64-4.28,9.01-5.37,13.75-1.41,6.16-1.68,12.58-2.51,18.88-.45,3.42-.97,6.84-1.6,10.23-.9,4.84-1.46,9.81-3.01,14.43-1.58,4.71-.19,9.29-.64,13.9-.1,1.06-.48,2.09-.73,3.14-3.8-1.88-1.25-5.5-2.19-8.19-.58-1.66-.56-3.52-.81-5.29.53-3.92,1.08-7.84,1.57-11.76.99-7.97,1.9-15.96,2.94-23.93.66-5.02.93-10.19,2.38-14.99,2.9-9.57,6.34-18.99,9.88-28.36,1.83-4.83,3.92-9.67,6.68-14.01,2.42-3.8,6.35-6.63,8.85-10.39,2.91-4.38,4.96-9.32,7.46-13.98,1.81-3.38,3.21-7.18,5.73-9.93,5.05-5.53,10.81-10.42,16.14-15.71,1.99-1.97,3.58-4.35,5.36-6.53,3.07-3.76,5.23-8.59,11.19-8.81.94-.04,1.83-1.28,2.75-1.96,2.63-1.76,5.45-3.3,7.86-5.33,3.77-3.17,7.22-6.72,10.91-9.99.75-.66,1.96-.79,2.96-1.17,0,.51,0,1.01.01,1.52-2,1.99-3.99,3.99-5.99,5.98-1,1-2.01,2-3.01,3Z" style="fill: #1f5b11; stroke-width: 0px;"/>
  <path d="M101.85,60.51c-.92.68-1.81,1.93-2.75,1.96-5.95.22-8.12,5.06-11.19,8.81-1.78,2.18-3.37,4.56-5.36,6.53-5.33,5.29-11.09,10.18-16.14,15.71-2.52,2.76-3.92,6.56-5.73,9.93-2.5,4.66-4.55,9.61-7.46,13.98-2.5,3.76-6.43,6.59-8.85,10.39-2.76,4.34-4.85,9.18-6.68,14.01-3.54,9.36-6.98,18.78-9.88,28.36-1.45,4.8-1.72,9.97-2.38,14.99-1.04,7.97-1.95,15.95-2.94,23.93-.49,3.93-1.05,7.84-1.57,11.76-.55,2.49-1.09,4.97-1.81,8.24h-3.44c.8-8.34.65-16.73,3.26-24.93,1.53-4.81,1.74-10.14,1.91-15.25.33-10.29,2.17-20.1,6.36-29.6,3.54-8.02,6.06-16.49,9.45-24.59,1.4-3.35,3.63-6.47,5.98-9.28,4.6-5.5,10.29-10.14,13.18-16.97,1.2-2.84,2.02-5.87,3.53-8.52,2.06-3.61,4.22-7.3,7.04-10.3,4.01-4.29,8.78-7.87,12.98-11.99,2.45-2.4,4.76-5.06,6.55-7.97,3.71-6.04,8.9-9.1,15.93-9.19Z" style="fill: #205a13; stroke-width: 0px;"/>
  <path d="M134.06,35.78c-2.74,2.51-5.48,5.01-8.22,7.52-.51,0-1.01,0-1.52-.01,2.46-2.81,4.88-5.66,7.46-8.36.22-.23,1.49.55,2.28.86Z" style="fill: #1f5b11; stroke-width: 0px;"/>
  <path d="M166.32,14.83c-1.16,1.02-2.22,2.22-3.51,3.01-3.78,2.32-7.66,4.48-11.5,6.71,4.04-4.73,9.29-7.59,15.02-9.72Z" style="fill: #216112; stroke-width: 0px;"/>
  <path d="M148.33,26.06c-3.01,1.99-6.01,3.98-9.02,5.97,3.01-1.99,6.01-3.98,9.02-5.97Z" style="fill: #216112; stroke-width: 0px;"/>
  <path d="M124.32,43.28c.51,0,1.01,0,1.52.01-.75.75-1.51,1.5-2.26,2.25,0-.51,0-1.01-.01-1.52.25-.25.5-.5.75-.75Z" style="fill: #216112; stroke-width: 0px;"/>
  <path d="M181.3,9.58c-.76.49-1.52.98-2.28,1.46.76-.49,1.52-.98,2.28-1.46Z" style="fill: #246017; stroke-width: 0px;"/>
  <path d="M150.58,24.56c-.51.49-1.02.99-1.52,1.48.51-.49,1.02-.99,1.52-1.48Z" style="fill: #216112; stroke-width: 0px;"/>
  <path d="M97.35,76.25c-.5.5-.99,1.01-1.49,1.51.5-.5.99-1.01,1.49-1.51Z" style="fill: #236811; stroke-width: 0px;"/>
  <path d="M101.85,68.76c.62-3.12,1.35-6.16,5.24-6.75-1.75,2.25-3.49,4.5-5.24,6.75Z" style="fill: #216112; stroke-width: 0px;"/>
  <path d="M114.59,54.53c1-1,2.01-2,3.01-3-1,1-2.01,2-3.01,3Z" style="fill: #216112; stroke-width: 0px;"/>
</svg>