<?xml version="1.0" encoding="UTF-8"?>
<svg id="Layer_1" data-name="Layer 1" xmlns="http://www.w3.org/2000/svg" viewBox="0 0 416.81 598.11">
  <path d="M205.57,0c18.97,2.48,38.11,3.03,56.76,8.94,19.19,6.08,36.87,14.96,53.95,25.06,8.17,4.83,14.82,12.18,22.39,18.09,15.43,12.04,26.58,27.92,39.03,42.67,7.38,8.75,11.73,19.07,17.18,28.85,5.99,10.76,9.83,22.24,13.5,33.96,5.29,16.89,6.72,34.15,8.14,51.58,1.18,14.53-1.28,28.69-3.69,42.73-4.04,23.5-12.25,45.7-25.04,66.03-21.48,34.12-42.82,68.32-64.46,102.33-36.79,57.82-73.76,115.53-110.65,173.29-.27.42-.54.84-.81,1.26-2.89,4.41-4.81,4.44-7.65.05-8.66-13.43-17.31-26.86-25.94-40.3-35.55-55.35-71.13-110.68-106.6-166.08-17.63-27.53-36.27-54.48-51.35-83.55-4.84-9.33-7.48-19.78-11.5-29.56-6.38-15.55-7.34-32.13-8.55-48.45-.94-12.69.86-25.59,1.47-38.39.65-13.54,6.12-25.92,9.43-38.81,4.26-16.62,13.75-30.94,20.8-46.34,7.63-16.67,19.33-30.57,31.76-43.24,14.23-14.5,30.68-26.71,49.07-36.43,16.92-8.94,34.81-14.56,52.97-19.12,12.83-3.22,26.48-3.16,39.81-4.57ZM210.11,275.95c8.27-.27,21.57-2.93,34.17-9.01,8.42-4.06,15.99-9.33,22.71-15.65,9.55-8.97,16.88-19.68,21.67-31.94,5.59-14.32,7.6-29.18,5.43-44.44-1.14-7.99-2.4-16-7.44-22.82-9.92-13.4-22.31-23.72-37.41-30.85-12.99-6.13-26.8-9.02-40.97-8.85-17.59.22-34.49,4.46-49.26,14.38-7.78,5.23-14.86,11.64-21.69,18.12-7.32,6.95-12.27,15.78-16.2,24.97-2.62,6.14-5.24,12.73-5.64,19.25-.42,6.92,1.23,14.14,2.95,20.98,5.48,21.76,18.16,38.77,36.62,51.12,14.81,9.92,31.51,14.82,55.06,14.73Z" style="fill: #c24542; stroke-width: 0px;"/>
  <path d="M210.11,275.95c-23.55.08-40.25-4.82-55.06-14.73-18.45-12.35-31.13-29.37-36.62-51.12-1.72-6.84-3.37-14.06-2.95-20.98.4-6.52,3.01-13.11,5.64-19.25,3.93-9.19,8.89-18.02,16.2-24.97,6.82-6.48,13.91-12.89,21.69-18.12,14.77-9.92,31.66-14.16,49.26-14.38,14.17-.18,27.98,2.71,40.97,8.85,15.09,7.13,27.48,17.45,37.41,30.85,5.04,6.81,6.3,14.82,7.44,22.82,2.17,15.26.15,30.11-5.43,44.44-4.79,12.27-12.11,22.97-21.67,31.94-6.72,6.32-14.3,11.58-22.71,15.65-12.6,6.09-25.9,8.75-34.17,9.01Z" style="fill: #fefefe; stroke-width: 0px;"/>
</svg>