<?xml version="1.0" encoding="UTF-8"?>
<svg id="Layer_1" data-name="Layer 1" xmlns="http://www.w3.org/2000/svg" viewBox="0 0 513.81 598.52">
  <path d="M254.85,430.05c-11.71,1.47-23.43,2.8-35.12,4.45-15.24,2.16-30.31,5.27-45.25,9.01-5.19,1.3-9.54,4.75-14.79,5.9-1.84-1.57-4.79-1.23-6.19-3.58.19-.54.55-.92,1.06-1.15,1.48-.62,3.59.93,4.6-1.28.37-.8.52-1.87-.21-2.42-1.64-1.24-3.29.02-4.9.35-2.52.52-5.04,1.11-7.58,1.56-5.51-.46-9.54-3.98-13.8-6.87-9.63-6.51-17.8-14.62-24.89-23.82-1.06-1.37-2.09-2.78-3.38-3.96-1.89-2.9-4.43-5.42-5.17-8.98.45-3.14,2.93-4.5,5.3-5.87,10.69-6.18,21.68-11.79,32.95-16.82,12.86-5.74,25.74-11.44,38.31-17.8,4.81-2.43,9.7-3.67,15.14-2.77,7.37,1.21,12.34,5.62,16.07,11.68,3.37,5.48,7.25,10.44,12.57,14.15.49.34.94.79,1.97.73-1.37-3.77-3.5-6.82-6.1-9.69-4.35-4.8-9.95-8.29-13.73-13.71-4.03-5.77-7.2-11.94-9.83-18.43-.33-.81-.67-1.63-.7-2.51-.03-.98-.14-2.13,1.04-2.53.96-.32,1.63.46,2.19,1.11,2.12,2.46,3.75,5.28,5.76,7.83.92,1.18,1.75,2.43,3.09,3.2,2.88,2.64,4.66,6.13,6.9,9.25,7.99,11.13,16.35,21.94,25.99,31.72.52.53.98,1.12,1.41,1.74,6.89,8.05,15.07,14.69,23.25,21.35,3.41,2.9,6.9,5.73,9.85,9.12,1.31,1.52,2.73,3.16,1.66,5.33-.94,1.9-2.97,1.78-4.76,2.33-4.19,1.28-8.53.38-12.69,1.37Z" style="fill: #442478; stroke-width: 0px;"/>
  <path d="M316.8,130.43c3.93-9.12,7.85-18.23,12-27.87-10.34,2.73-20.09,5.3-29.83,7.88,1.14-3.57,4.19-5.74,6.58-8.21,7.99-8.23,16.1-16.35,23.82-24.83,10.91-11.97,22.02-23.76,32.97-35.69,8.93-9.73,17.79-19.53,26.79-29.2,1.96-2.1,3.5-4.56,5.69-6.44.88-.76,1.63-1.98,3.13-1.34.07.03.11.19.1.29,0,.12-.07.24-.1.36-10.11,19.74-20.21,39.47-30.63,59.83,10.3-1.59,19.8-3.05,29.29-4.51.24.35.48.7.72,1.05-33.74,41.23-67.49,82.47-101.23,123.7-1.47-1.56-.45-3.06.22-4.47,12.02-25.11,23.13-50.64,34.84-75.9-3.77,7.56-6.85,15.43-10.6,23-.71,1.43-1.26,3.57-3.76,2.35Z" style="fill: #f77f42; stroke-width: 0px;"/>
  <path d="M378.3,277.18c11.12-4.66,22.22-9.34,33.35-13.97,30.05-12.52,60.12-25.01,90.18-37.51,3.91-1.63,7.81-3.26,11.97-5,.21,2.68-1.84,3.69-3.35,4.89-13.56,10.79-27.17,21.52-40.75,32.28-3.19,2.53-6.35,5.09-9.88,7.93,8.97,2.3,17.38,4.44,25.77,6.63.76.2,1.84-.02,2.15,1.12-3.75,2.81-8.21,4.19-12.4,6.06-27.01,12.05-53.36,25.46-79.68,38.92-15.2,7.78-30.58,15.25-45.47,23.66-1.62.92-3.33,2.47-5.48,1,8.75-7.96,17.48-15.96,26.27-23.88,12.68-11.43,25.65-22.54,37.98-34.36.91-2.39.35-3.51-2.45-3.84-8.14-.96-16.31-1.64-24.44-2.7-1.32-.17-2.78.02-3.77-1.22Z" style="fill: #fe8e4e; stroke-width: 0px;"/>
  <path d="M99.69,399.46l5.26,8.23c.85,2.69-1.27,3.19-2.82,2.96-15-2.16-27.52,5.66-40.92,9.92-5.92,1.88-11.58,4.61-18.01,4.58-4.65-.02-7.98-1.98-10.72-5.67-3.86-5.2-5.34-11.19-6.53-17.33-1.21-6.26-2.33-12.54-6.77-17.55-.68-1.5-.49-3.17-.9-4.72.15-6.11,2.56-11.42,5.84-16.42.51-.26,1.01-.52,1.52-.78,2.57,3.02,4.74,1.67,7.28-.31,10.51-8.19,20.71-16.8,31.91-24.06,1.88-1.22,3.78-2.41,5.83-3.33,1.56-.7,3.1-1.03,4.54.23,1.39,1.22,1.51,2.75,1.11,4.44-2.77,11.77-5.78,23.43-11.69,34.14-2.04,3.7-3.69,7.63-4.98,11.67-2.41,7.56.32,11.21,8.11,11.45,4.39.14,8.68-.7,13.03-.83,4.93-.15,9.68.5,14.28,2.28,1.15.44,2.31.98,3.61.72.4-.07.74.05,1.01.36Z" style="fill: #8c95a6; stroke-width: 0px;"/>
  <path d="M260.03,412.21c-8.38-6.3-16.28-13.12-23.07-21.15.43-2.41-.63-4.33-2.03-6.14-2.57-3.35-5.51-6.39-8.13-9.7-.82-1.04-2.08-1.91-1.36-3.55,2.35-.52,3.14,1.53,4.39,2.73,1.06,1.02,1.78,2.37,2.85,3.41,1.26,1.4,2.66,2.67,3.94,4.05,3.78,5.14,8.6,9.23,13.43,13.31,4.1,4.14,8.88,7.44,13.4,11.07,2.16,1.62,4.47,3.03,6.71,4.54,2.06,1.49,4.25,2.77,6.59,3.79,1.1.58,2.22,1.1,3.39,1.53,9.13,4.48,22.01.2,25.49-10.49,1.45-4.44,1.15-8.86.12-13.27-1.26-5.34-2.69-10.64-3.57-16.05-1.22-7.5-6.17-12.61-11.1-17.75-3.01-3.94-5.3-8.09-5.01-13.33.57-10.22,9.59-16.08,19.1-12.28,2.66,1.06,5.11,2.61,7.85,3.52,3.95,1.32,5.58.28,5.95-3.91.5-5.68-.5-11.18-2.21-16.58-6.03-19.02-16.29-35.76-27.95-51.74-6.61-9.06-14.06-17.5-19.78-27.21-2.02-3.44-3.94-6.95-5.23-10.75-.47-1.39-.99-2.96.25-4.25,1.35-1.4,2.99-1,4.53-.34,8.4,3.6,16.41,7.79,22.28,15.13,5.14,6.44,9.86,13.17,14.22,20.16.28,1.03-.35,1.04-.98.78-1.23-.49-1.87-1.63-2.54-2.67-7.03-11-17.25-18.58-27.74-25.86-.41-.28-.84-.56-1.29-.76-.99-.43-2.07-1.56-3.06-.72-1.17.99-.2,2.35.24,3.44,1.47,3.6,3.63,6.83,5.74,10.07,5.79,8.91,12.88,16.85,19.01,25.52,11.5,16.26,22.01,33.05,27.87,52.31,2.3,7.55,4.19,15.19,2.25,23.16-.75,3.08-1.56,6.25-5.22,7.09-3.56.82-6.36-.87-8.56-3.47-1.8-2.12-3.83-3.94-6.12-5.46-3-1.99-7.4-1.87-9.88.11-2.26,1.8-2.81,4.82-1.58,8.62.83,2.56,2.21,4.74,4.39,6.37,1.3.97,2.52,2.08,3.92,2.88,6.01,3.42,8.78,8.72,8.89,15.44.15,9.32,3.69,17.8,6.44,26.45,2.56,8.06,7.83,9.18,16.05,4.31,4.8-2.84,7.99-7.54,9.9-12.84,2.96-8.23,3.71-16.69,2.87-25.43-.62-6.45-1.32-12.86-2.73-19.18.54-.93,1.15-1.68,2.32-.81,1.62,7.73,3.33,15.44,4.42,23.28.27,1.98.46,3.93.18,5.92.12,5.08.36,10.18.08,15.25-.53,9.53-2.38,18.81-7.78,26.9-9.32,13.97-21.53,17.57-39.72,13.7-8.5-1.81-16.17-5.78-23.64-10.07-6.04-3.47-11.81-7.45-18.74-9.06Z" style="fill: #975fcd; stroke-width: 0px;"/>
  <path d="M343.22,347.02c2.19,4.58,2.73,9.51,2.98,14.48.25,4.96,1.24,9.89.75,14.88-.76,7.84-1.87,15.61-6.73,22.17-3.44,4.64-7.27,8.7-13.58,9.54-4.54.61-7.51-.12-9.21-4.3-3.83-9.43-7.86-18.95-7.82-29.32.03-8.96-5.41-13.67-12.07-17.79-3.45-2.13-5.07-5.48-5.86-9.2-.69-3.2-.14-6.28,2.87-8.3,2.82-1.9,8.43-1.77,10.95.46,2.11,1.87,4.5,3.38,6.21,5.85,1.63,2.34,4.33,3.7,7.51,3.01,3.41-.74,3.77-3.77,4.4-6.33,1.99-8.04-.03-15.78-2.39-23.38-6.02-19.4-16.71-36.3-28.42-52.64-7.16-9.99-15.49-19.13-21.62-29.86-1.3-2.28-2.51-4.58-3.3-7.1-.36-1.13-.57-2.26.46-3.09,1.01-.81,1.95.01,2.73.49,10.85,6.66,21.18,13.96,28.74,24.5,1.51,2.1,3.09,4.14,4.67,6.19.02.02.38-.22.58-.34,9.49,14.42,17.47,29.66,24.61,45.36,5.63,12.38,10.1,25.17,13.82,38.23.23.82.34,1.67.51,2.51-.33,1.34-.65,2.71-2.55,2.36-1.58-1.62-1.83-3.77-2.27-5.83-5.96-27.37-17.45-52.24-34.1-74.69-6.31-8.52-13.79-16.08-21.73-23.14-1.09-.97-2.24-1.89-4.2-2.5,1.34,4.05,3.55,7.02,5.7,10,6.21,8.6,12.53,17.13,18.28,26.05,8.2,12.72,15.75,25.75,20.91,40.07,3.27,9.09,5.76,18.36,6.39,28,.27,4.23-.69,8.44-2.52,12.35-1.7,3.62-3.53,7.17-5.71,10.52-6.24,9.62-3.88,20.28,3.08,28.28,3.68,4.23,7.6,3.91,10.74-.8,4.06-6.08,5.94-12.96,6.16-20.16.24-7.84.53-15.73-1.01-23.51-.15-.74-.16-1.49.12-2.22.45-.72,1-1.24,1.94-.83Z" style="fill: #a16fcd; stroke-width: 0px;"/>
  <path d="M18.88,379.93c1.28,1.31.49,2.97.75,4.45,1.44,2.12.89,4.6,1.2,6.91,3.53,26.14,15.51,47.84,34.51,65.86.57.95,1.62,1.78.9,3.1-4.16,1.08-5.02,4.48-5.51,8.03-.48,3.45,1.45,5.66,4.22,7.27,4.95,2.87,9.76,6.13,15.96,5.33.96-.12,2.01.04,2.71.95-7.28,1.69-14.41.57-21.26-1.82-22.64-7.89-37.22-24.19-46.31-45.77-5.62-13.34-7.85-27.2-4.4-41.58,2.1-.31,2.7,1.38,3.48,2.72,2.31,3.93,3.09,8.37,4.1,12.72,1.7,7.42,3.99,14.62,7.74,21.3,1.91,3.42,4.32,6.39,7.53,8.63,1.2.84,2.74,1.94,4.07.74,1.51-1.35-.08-2.7-.71-3.95-.44-.89-1.06-1.68-1.53-2.56-6.52-11.94-10.79-24.6-12.15-38.18-.33-2.84.08-5.51,2.08-7.68,1.7-1.85,1.03-4.61,2.64-6.47Z" style="fill: #512986; stroke-width: 0px;"/>
  <path d="M136.52,595.42c-3.95-3.14-5.91-7.7-8.07-11.98-12.61-24.95-22.26-51.1-30.86-77.64-3.14-9.7-6.07-19.46-9.09-29.2-.46-.5-.6-1.09-.56-1.75,1.21-3.3,1.67-6.7,1.96-10.22.26-3.29-.1-7.29,4.38-8.59,1.59.52,1.74,1.95,2.06,3.28,7.61,31.06,18.46,61.02,31.04,90.37,3.63,8.46,6.9,17.1,11.68,25.04,4.37,7.25,6.85,8.22,15.1,5.84,3.84-1.11,7.45-2.85,11.27-3.96,2.66-.77,5.38-1.33,7.76.83.13,2.1-1.72,2.26-2.94,2.67-9.64,3.19-18.29,8.93-28.36,10.96-2.57.52-3.46,3.06-5.37,4.37Z" style="fill: #5c6880; stroke-width: 0px;"/>
  <path d="M86.34,308.1c11.37-10.7,20.82-23.06,30.24-35.41,12.75-16.71,24.84-33.89,34.88-52.42,1.23-2.28,2.47-4.55,3.71-6.83,1.63,1.85,1.07,3.99.85,6.09-1.79,3.46-2.91,7.19-3.42,11.01-2.74,20.62-12.44,37.85-25.24,53.79-14.08,17.53-29.52,33.77-45.67,49.36-1.05,1.01-2.01,3.22-4.2,1.52-1.11-3.7-.17-7.31.49-10.93,1.71-5.95,3.37-11.93,8.37-16.17Z" style="fill: #9368ba; stroke-width: 0px;"/>
  <path d="M276.54,415.12c-2.6-.61-4.78-1.99-6.75-3.74,3.04-2.81,5.65-5.99,8.22-9.22,7.71-9.68,8.51-20.11,3.47-31.19-1.08-2.38-2.27-4.72-3.52-7.02-7.02-12.92-4.28-24.82,4-35.95,3.52-4.74,8.07-8.38,13.58-10.86,3.57-1.61,7.4-3.21,8.47-7.77.71-3.05.26-6-.7-8.83-3.31-9.72-7.84-18.85-13.77-27.25-7.2-10.66-15.49-20.5-23.21-30.77-2.48-3.29-4.87-6.64-7.24-10.01-5.59-7.95-10.22-16.36-10.81-26.33-.48-8.05-4.88-13.75-10.77-18.51-9.82-7.93-20.73-13.83-33.1-16.82-2.57-.62-5.24-.31-7.75-1.17-.98-.34-2.36-.03-2.61-1.57,2.36-1.87,5.1-.94,7.69-1.04,9.06,1.57,17.26,5.35,25.14,9.88,13.11,7.53,24.84,16.86,35.47,27.6,1.52,2.53.66,4.73-1.43,6.23-3.88,2.8-3.98,6.11-2.28,10.17,3.45,8.24,8.39,15.56,13.71,22.65.75,1,1.5,1.99,2.19,3.03.61,1.02,1.25,2.02,2.06,2.9.22.25.41.52.59.79.63,1.14,1.54,2.05,2.42,3,.22.24.41.51.59.78.49.85,1.12,1.59,1.76,2.32.22.26.42.53.61.81,1.47,2.15,3.02,4.23,4.84,6.11.25.28.46.59.66.91,7.54,10.73,14.38,21.85,19.54,33.94,2.4,5.63,4.67,11.3,4.4,17.61-.17,4.06-1.78,6.15-5.74,7.2-2.89.77-5.87,1.12-8.81,1.72-13.55,2.75-23.73,22.21-13.07,36.21,1.51,1.98,2.99,3.99,4.45,6.01,10.71,14.73,7.29,34.51-7.17,46.91-1.45,1.25-3.1,2.12-5.11,1.25Z" style="fill: #753da0; stroke-width: 0px;"/>
  <path d="M86.34,308.1c-3.36,4.8-5.67,10.1-7.41,15.66-2.26,6.55-1.62,13.26-.97,19.94.19,1.98.47,3.91.08,5.87-1.89,3.89-2.17,8.17-2.48,12.34-.4,5.31-.53,10.65-.96,15.97-.33,4.02,1.58,6.73,5.03,8.8,5.65,3.38,11.51,6.34,17.32,9.42,1.2.84,2.14,1.83,2.02,3.44-.17,1.34-.88,1.2-1.84.76-7.36-3.42-15-3.91-22.95-2.53-3.03.52-6.23.27-9.34.06-5.41-.38-8.42-5.14-6.66-10.9,1.23-4.03,2.71-8.07,4.73-11.74,6.24-11.35,9.61-23.64,12.68-36.07.33-1.35.12-2.42-.9-3.39-1.17-1.11-2.28-.6-3.42,0-8.1,4.21-15.2,9.87-22.41,15.36-6.02,4.58-11.88,9.38-17.88,13.99-2.88,2.21-3.8,1.74-5.34-2.38,5.58-7.08,12.28-13.08,18.9-19.1,12.06-10.98,24.24-21.83,36.98-32.03,1.54-1.24,3.22-2.31,4.83-3.46Z" style="fill: #a3abbc; stroke-width: 0px;"/>
  <path d="M155.1,220.45c.02-2.34.04-4.68.06-7.02.07-11.37,2.16-22.21,8.3-32.01,1.88,2.97,1.71,6.31,1.72,9.61-2.52,9.03-3.79,18.17-3.74,27.6.07,14.94,3.04,29.35,6.97,43.62,1.68,6.1,3.5,12.18,5.95,18.03,4.74,10.6,8.8,21.52,14.31,31.78.94,2.13,2,4.2,3.09,6.25,3.6,6.52,7.3,12.98,11.14,19.36,6.37,10.51,13.59,20.42,21.27,30,.86,1.08,2.41,1.99,1.53,3.82,1.06,3.41,4.03,5.42,6.03,8.14,2.02,2.75,4.88,4.87,5.95,8.32.38,1.23.93,2.37-.71,3.09-12.87-12.96-23.64-27.59-33.98-42.57-3.89-4.4-6.69-9.53-9.87-14.42-11-16.91-19.35-35.1-26.32-53.97-5.5-14.91-9.08-30.3-11.67-45.95-.26-1.6-.17-3.23-.2-4.85.06-1.57.06-3.14-.45-4.66-.14-1.45-.1-2.87.63-4.18Z" style="fill: #ba8bdc; stroke-width: 0px;"/>
  <path d="M274.3,247.31c-7.12-8.33-13.16-17.32-17.15-27.62-1.4-3.61-1.04-6.61,2.29-8.78,2.4-1.56,3.17-3.67,2.9-6.35,10.74,9.65,20.06,20.56,28.5,32.24-5.49-4.39-10.83-8.97-17.38-11.83-1.34-.59-2.59-1.43-4.02-1.88-1.59-.5-3.31-2.28-4.78-.64-1.37,1.53-.12,3.52.58,5.16,3.55,8.3,8.55,15.76,14.14,22.75,11.75,14.7,22.64,29.96,30.92,46.91,5.3,10.85,10.1,21.93,9.71,34.45-.19,6.13-2.09,7.56-7.83,5.47-1.75-.64-3.42-1.5-5.09-2.32-6.91-3.41-13.27-2.69-17.03,1.96-4.1,5.06-4.08,13.23.09,18.79.6.8,1.41,1.43,1.38,2.55-2.06.68-3.75-.45-5.53-1.13-3.29-2.58-4.06-6.46-4.05-10.1.03-11.42,7.63-21.53,21.36-19.39,1.97.31,3.87.97,5.83,1.39,5.14,1.1,7.09-.68,6.52-5.81-.77-6.89-2.64-13.46-5.48-19.76-6.32-14-13.86-27.3-23.13-39.59h0c-1.75-2.24-3.44-4.54-5.24-6.74h0c-.66-1.07-1.55-1.96-2.25-3h0c-.81-1.4-2.15-2.38-2.99-3.75h0c-.66-1.07-1.55-1.96-2.25-3Z" style="fill: #8a51b5; stroke-width: 0px;"/>
  <path d="M136.52,595.42c.61-2.79,2.17-4.8,5.05-5.3,5.56-.96,10.59-3.3,15.58-5.75,5.21-2.56,10.95-3.85,16.05-6.7.5-.95,1.38-1.46,2.34-1.7,5.37-1.35,10.48-3.81,16.17-3.82.83,0,1.65.04,2.47.2,2.28,1.02,5.79.98,4.45,5.13-6.45,5.64-14.18,8.98-21.96,12.23-9.74,4.07-19.68,7.47-30.25,8.66-3.76.42-7.18,0-9.89-2.96Z" style="fill: #39455d; stroke-width: 0px;"/>
  <path d="M153.74,445.81c1.95,1.25,5.09.54,5.95,3.6-.86.64-1.57.93-1.05,2.56,6.99,21.87,14.43,43.57,22.81,64.95.74,2.04-.3,1.97-1.62,1.29-1.38-.72-2.12-2.07-2.85-3.38-7.09-12.59-13.14-25.67-18.88-38.91-3.21-7.42-6.58-14.77-9.54-22.29-.99-2.51-2.44-4.37-5.57-3.7-5.56.09-11.12.05-16.68-.06-1.11-.04-2.23-.02-3.2-.69-1.41-2.71.89-3.54,2.48-4.4,5.46-2.95,11.2-4.49,17.42-2.66,3.6,1.14,7.52,1.39,10.72,3.7Z" style="fill: #2e3446; stroke-width: 0px;"/>
  <path d="M260.03,412.21c4.41-.66,7.99,1.43,11.52,3.57,10.66,6.46,21.34,12.82,33.87,15.12,22.45,4.13,35.56-6.72,41.48-26.68,2.33-7.85,2.5-15.92,2.37-24.03-.02-1.56-.57-3.25.56-4.7.06.7.12,1.4.18,2.1.8,1.96-.15,4.09.57,6.06,0,2,0,4,0,6-.64,1.74.13,3.61-.49,5.35-.08.96-.16,1.93-.23,2.89-.65,1.21.07,2.61-.52,3.84-1.31,8.73-4.07,16.94-9.79,23.8-8.68,10.41-20.19,12.97-33.01,11.1-7.02-1.03-13.74-3.25-20.13-6.36-2.22-1.08-4.6-1-6.95-.94-8.2.21-16.4.48-24.6.73.41-.84,1.18-1.72,1.99-1.36,3.92,1.73,7.44-.78,11.17-.87,1.54-.04,3.14-.48,3.76-1.96.65-1.56-.48-2.88-1.54-3.92-3.35-3.29-6.79-6.49-10.19-9.72Z" style="fill: #6536a1; stroke-width: 0px;"/>
  <path d="M125.94,448.91c5.99,0,11.99-.01,17.98-.02,1.7.64,2.32,2.09,2.91,3.65,8.92,23.58,19.17,46.55,30.93,68.87,7.2,13.67,14.6,27.27,21.04,41.34.56,1.23.94,2.74,2.88,2.09,1.19,3.08,1.76,6.16.06,9.25-2.15-3.27-5.04-1.14-7.64-1.03-.75.01-1.49.02-2.24.03-.91-1.55.27-2.38,1.25-3.04,2.77-1.86,2.58-4.26,1.55-6.93-1.89-4.92-4.71-9.35-7.26-13.92-6.14-11-11.54-22.39-17.73-33.35-7.37-13.04-13.04-26.93-20.34-40.01-2.2-3.94-4.6-7.64-8.31-10.44-3.21-2.42-5.44-5.81-7.69-9.12-1.48-2.19-3.14-4.19-5.42-5.59-.34-.09-.67-.2-1-.32-.33-.13-.62-.31-.9-.53-.23-.3-.26-.61-.07-.94Z" style="fill: #69718c; stroke-width: 0px;"/>
  <path d="M18.88,379.93c.34,3.11-.35,5.91-2.61,8.17-1.77,1.77-.63,4.05-1.15,6.03-2.52,10.6-1.32,20.84,2.92,30.82,1.76,4.14,5.06,6.17,9.11,7.38.88,1.32,1.85,2.6,2.62,3.99.57,1.02,1.43,2.12.13,3.33-1.19,1.09-2.4,1.08-3.76.44-4.72-2.21-7.68-6.1-10.17-10.48-4.84-8.53-6.86-17.98-9.15-27.37-.87-3.58-1.91-7.21-5.17-9.57,2.82-13.33,9.83-23.42,22.47-29.19-.31,2.64-1.56,4.89-2.82,7.18-1.58,2.87-1.51,6.21-2.41,9.28Z" style="fill: #9867c4; stroke-width: 0px;"/>
  <path d="M201.68,564.84c-.19.68.18,1.64-.69,1.96-.85.31-1.46-.43-1.78-1.04-1.02-1.99-1.82-4.08-2.83-6.07-9.36-18.27-18.92-36.45-28.09-54.82-8.55-17.13-15.99-34.78-22.61-52.75-.44-1.21-1.07-2.22-1.76-3.24,3.02-.6,4.27,1.35,5.26,3.66,3.97,9.26,7.88,18.54,11.93,27.77,5.26,11.98,10.83,23.81,17.32,35.18,1.21,2.11,1.6,2.23,3.02,1.42,6.76,15.97,14.8,31.39,20.23,47.92Z" style="fill: #4e586d; stroke-width: 0px;"/>
  <path d="M341.71,345.29c.77-.75,1.53-1.49,2.3-2.24.22.11.45.16.7.13,2.28.13,4.01-1.27,5.86-2.24,7.18-3.75,14.25-7.71,21.47-11.38,24.8-12.6,49.58-25.25,74.51-37.59,12.72-6.29,25.76-11.96,38.66-17.87.77-.35,1.68-.39,2.52-.57-.28,2.97-2.87,3.51-4.9,4.51-25.51,12.61-51.06,25.14-76.58,37.74-19.62,9.68-39.21,19.42-58.8,29.15-.77.38-1.47.9-2.21,1.36-.67.24-1.35.49-2.02.73-.5.21-1.01.41-1.51.62-.74.11-1.08-.3-1.13-.95-.06-.79.24-1.35,1.13-1.41Z" style="fill: #d86842; stroke-width: 0px;"/>
  <path d="M88.52,475.04c0,.52-.01,1.04-.02,1.56-4.65,2.62-9.44,4.85-14.88,5.22-7.48,1.09-13.7-1.96-19.79-5.75-5.18-3.23-5.62-12.47-.66-16.15,1.22-.9,2.12.29,3.18.15,2.02-.45,3.17,1.07,4.52,2.05,7.31,5.29,15.11,9.46,24.25,10.52,1.58.18,2.87.75,3.41,2.4Z" style="fill: #372268; stroke-width: 0px;"/>
  <path d="M397.96,5.38c-1.33-.76-1.75.58-2.28,1.16-8.16,8.89-16.27,17.84-24.39,26.77-6.87,7.55-13.62,15.22-20.65,22.62-15.02,15.82-29.47,32.17-44.99,47.53-2.28,2.25-4.33,4.76-6.67,6.98-.79.84-1.65.64-2.23-.12-.82-1.07.44-1.52.93-2.05,6.33-6.86,12.7-13.68,19.07-20.5,18.86-20.2,37.74-40.38,56.56-60.61,7.29-7.83,14.46-15.78,21.69-23.67.67-.73,1.4-1.42,2.09-2.14.9-.94,2.06-1.9,3.21-.94,1,.84-.46,1.68-.77,2.53-.34.92-.61,1.91-1.57,2.44Z" style="fill: #fdb98a; stroke-width: 0px;"/>
  <path d="M316.8,130.43c1.96.11,2.45-1.45,3.06-2.78,3.58-7.78,7.12-15.57,10.69-23.35.44-.96.55-2.18,2.21-2.87-.21,4.05-2.4,7.05-3.82,10.21-10.52,23.48-20.74,47.11-32.05,70.24-.56,1.14-1.03,2.27-.81,3.57-1.05,1.66-2.04,4.52-4.21,3.35-2.04-1.11.3-3.25.95-4.74,7.46-17.04,15.04-34.04,22.6-51.04.4-.89.91-1.72,1.37-2.59Z" style="fill: #fc9e6f; stroke-width: 0px;"/>
  <path d="M164.2,191.14c-.25-3.24-.5-6.48-.74-9.72,8.08-13.87,24.57-18.31,38.28-14.34-2.47.88-5.23.3-7.63,1.54-.36.48-.87.71-1.44.84-1.42.27-2.92-.02-4.3.61-2.16.82-4.35,1.55-6.54,2.29-3.06.89-5.41,2.84-7.54,5.1-3.12,3.22-5.69,6.81-7.71,10.83-.55,1.09-.5,2.82-2.38,2.86Z" style="fill: #9e69cc; stroke-width: 0px;"/>
  <path d="M378.3,277.18c10.33,1.03,20.66,2.06,30.99,3.08.88.09,1.86.04,1.99,1.2.2,1.77-.99,2.69-2.32,3.48-9.8-1.49-19.6-2.99-29.4-4.47-2.41-.36-3.75-1.08-1.25-3.29Z" style="fill: #e4523b; stroke-width: 0px;"/>
  <path d="M194.1,573.06c.97-1.06,2.36-1.2,3.59-1.69,2.7-1.06,3.95-.06,4.05,2.72-.58,1.56-1.71,2.61-3.12,3.4.28-3.3-2.67-3.31-4.52-4.43Z" style="fill: #4e586d; stroke-width: 0px;"/>
  <path d="M350.58,383.65c-1.21-1.92-.54-4.02-.57-6.06,1.11,1.93.65,4.01.57,6.06Z" style="fill: #975fcd; stroke-width: 0px;"/>
  <path d="M350.09,395c-.13-1.81-.64-3.66.49-5.35.15,1.81.26,3.62-.49,5.35Z" style="fill: #975fcd; stroke-width: 0px;"/>
  <path d="M349.33,401.72c-.15-1.32-.47-2.67.52-3.84.16,1.33.19,2.63-.52,3.84Z" style="fill: #975fcd; stroke-width: 0px;"/>
  <path d="M155.1,220.45l.14,4.36c.81,1.44-.16,3.12.64,4.56,1.07,14.58,4.74,28.61,9.18,42.44,5.79,18.04,13.35,35.36,22.83,51.79,4.85,8.4,10.06,16.6,15.1,24.89-4.35-2.25-5.57-7.12-8.71-10.39-.58-.6-.84-1.52-1.92-1.86-1.36,2.67.58,4.81,1.49,6.79,4.11,8.94,8.6,17.57,16.71,23.89,4.55,3.55,8.87,7.72,11.14,13.37.49,1.22.9,2.47,1.65,4.56-5.8-2.4-9.23-6.21-12.67-10.07-3.55-3.98-5.31-9.15-9.55-12.77-7.08-6.04-14.77-7.27-22.78-3.29-16.6,8.25-33.74,15.31-50.36,23.5-7.59,3.74-15.15,7.51-22.51,11.69-2.39,1.36-4.81,2.7-5.77,5.55-.25-.02-.5,0-.74.08-.92-.61-.8-2.07-2-2.45-2.24-2.05-2.59-5.35-4.87-7.38-4.7-9.24-8.37-18.88-11.27-28.83-1.85-6.35-2.76-12.87-3.43-19.42-.19-1.86-.81-3.98.76-5.69,13.62-13.48,27.51-26.67,39.67-41.58,9.36-11.46,18.86-22.74,25.62-36.04,4.86-9.57,6.31-20.06,8.81-30.28.62-2.54.33-5.55,2.85-7.4Z" style="fill: #663196; stroke-width: 0px;"/>
  <path d="M153.74,445.81c-3.71-.26-6.95-2.15-10.49-3.04-4.12-.85-7.57-3.11-10.98-5.38-1.99-1.32-3.93-1.72-6.33-1.34-12.92,2.08-24.5,7.37-35.43,14.33-5.25,3.35-10.38,6.88-15.55,10.36-7.73,5.21-10.7,5.01-17.86-1.06-.76-.64-1.45-1.36-2.3-1.9-13.43-11.97-22.93-26.62-29.28-43.35-3.66-9.66-6.09-19.61-5.91-30.05,4.73,3.68,5.52,9.18,6.7,14.5,1.45,6.51,2.31,13.13,6.17,18.95,4.39,6.61,8.13,7.28,15.39,5.83,9.4-1.87,18.11-6.1,27.1-9.33,6.09-2.19,12.19-4.28,18.61-5.12,2.18-.29,4.41-.2,6.66.38,1.74.45,4.14,1.22,4.68-1.9,2.74,3.16,5.49,6.31,8.22,9.49,8.52,9.9,18.39,18.11,30.02,24.13.86.44,1.88.56,2.83.82,2.86.77,6.04.67,8.3,3.05-.19.21-.39.41-.58.62Z" style="fill: #5d6e8c; stroke-width: 0px;"/>
  <path d="M154.32,445.19c-2.92-.61-5.81-1.28-8.3-3.05,3.73-.87,7.47-1.7,11.2-2.61,1.09-.27,2.42-.94,2.95.39.59,1.47.54,3.2-.06,4.75-.42,1.1-1.5,1.24-2.53,1.13-1.1-.12-2.18-.39-3.26-.6Z" style="fill: #2e3446; stroke-width: 0px;"/>
  <path d="M249.51,395.68c-5.19-3.83-9.74-8.31-13.65-13.44,2.61-3.16,5.92-5.65,8.47-8.88,4.85-6.14,7.77-13.29,10.78-20.38,3.84-9.03,6.91-18.4,11.94-26.91,1.34-2.26.13-3.42-1.67-4.46-4.38-2.54-5.65-6.6-5.48-11.34,1.76-.65,2.19,1,3.13,1.78,1.71,1.87,3.79,3.25,6.14,4.13,4.39,1.64,8.04-.67,8.59-5.34.23-1.96-.25-4,.66-5.89,7-7.75,6.23-16.37,2.71-25.21-4.35-10.9-11.05-20.27-18.62-29.18-5.79-6.82-12.52-12.48-19.52-17.91-4.16-3.23-7.78-7-11.47-10.71-3.91-3.92-5.16-9.07-6.12-14.21-1.35-7.21-4.18-13.39-9.88-18.34-6.83-5.94-14.79-7.33-23.35-6.8-2.1.13-4.26.89-5.87,2.27-7.5,6.42-14.89,12.95-18.63,22.5-.91,2.33-1.18,4.85-2.19,7.14-.35.5-.77.86-1.43.6-1.37-2.22-.86-4.6-.42-6.9,2.34-12.2,8.21-22.38,17.57-30.57,3.52-3.07,7.47-4.51,12.22-4.81,18.23-1.16,37.94,13.24,43.55,30.67,3.37,10.46,9.86,19.29,16.49,27.9,7.46,9.69,15.63,18.81,23.17,28.44,5.48,7,10.34,14.38,14.03,22.5,1.61,3.55,2.66,7.27,3.2,11.11.81,5.71-.53,10.87-4.05,15.5-3.17,4.17-6.41,8.28-9.42,12.58-8.7,12.44-13.22,26.18-13.43,41.35-.86,3.16-.33,6.46-.89,9.64-1.54,8.79-6.43,15.79-12.21,22.26-1.14,1.28-2.63,1.91-4.34.9Z" style="fill: #4e1f7b; stroke-width: 0px;"/>
  <path d="M225.69,371.51c-7.87-10.24-15.77-20.46-22.5-31.51-.39-.63-.7-1.31-1.05-1.96,7.71-4.22,14.3-9.75,19.76-16.65,2.29-2.9,4.45-5.77,2.8-9.79-.21-.52.24-.91.69-1.18,4.91-1.18,9.62-.21,14.26,1.36,1.57.53,2.84,1.53,3.45,3.17.44,1.79-.64,3.1-1.45,4.47-2.21,3.76-4.77,7.31-6.49,11.35-.73,1.72-1.81,3.61-.37,5.26,1.39,1.6,3.28.53,4.89.03,5.03-1.57,9.49-4.39,14.23-6.6.68-.32,1.33-.68,2.02-.98,2.07-.91,4.41-2.11,6.28-.27,1.79,1.76-.01,3.75-.76,5.49-4.42,10.29-8.02,20.96-13.87,30.61-2.8,4.63-6.27,8.68-10.25,12.31-1.4,1.28-2.87,2.47-4.99,1.81l-6.65-6.91Z" style="fill: #2f155a; stroke-width: 0px;"/>
  <path d="M232.34,378.42c6.53-2.78,10.41-8.35,14-13.96,6.73-10.53,10.33-22.56,15.51-33.84.91-1.99-.14-2.38-1.85-2.42-1.46-.03-2.62.67-3.86,1.24-5.65,2.58-10.91,6.03-16.92,7.84-1.91.57-4.13,1.62-5.53-.26-1.31-1.76-.64-4,.25-6.04,2.42-5.49,6.12-10.24,8.91-15.51-.32-1.21.39-2.13.84-3.14,1.72-3.87.92-5.63-3.2-6.9-2.61-.8-5.34-1.1-7.96-1.87-1.43-.42-2.85-.89-4.06-1.78-.62-.46-1.13-1.05-.19-1.74,1.35-.61,2.69-.26,4.01.07,4.77,1.18,9.6,1.02,14.41.47,2.56-.3,4.93-.15,7.21,1.03,2.79,2.43,5.52,4.89,6.15,8.82,1.26,4.83,2.42,9.68,7.93,11.71,1.55.57,1.29,2.06.61,3.19-8.02,13.27-11.57,28.58-19.14,42.04-3.35,5.96-7.35,11.47-13.58,14.88-1.34-1.12-2.68-2.25-3.52-3.82Z" style="fill: #3b276e; stroke-width: 0px;"/>
  <path d="M287.03,263.79c4.3,3.72,6.87,8.76,9.89,13.41,6.11,9.39,11.45,19.22,15.73,29.6,2.34,5.67,3.49,11.63,4.25,17.65.58,4.58-2.38,6.84-7.08,5.74-4.56-1.07-8.96-2.56-13.88-1.64-11.33,2.13-17.22,18.33-9.67,28.13,4.7,3.53,8.38,8.25,10.16,13.54,3.54,10.51,4.69,21.44-.27,32-2.45,5.22-5.92,9.79-10.79,13.1-1.77,1.2-3.6,2.26-5.87,1.31-1.18-.14-2.22-.54-2.98-1.49,3.1-.31,5.06-2.37,7.08-4.44,9.26-9.5,12.31-20.71,9.32-33.57-1.31-5.64-5.03-9.95-8.47-14.32-5.82-7.39-7.24-15.41-3.73-24.1,3.71-9.18,10.53-14.54,20.47-15.73,1.72-.21,3.48-.36,5.12-.86,2.8-.85,4.79-2.38,4.74-5.81-.05-3.13-.27-6.19-1.23-9.18-4.04-12.53-10.43-23.85-17.54-34.84-1.8-2.78-4.3-5.16-5.26-8.47Z" style="fill: #864eb5; stroke-width: 0px;"/>
  <path d="M249.51,395.68c5.05-.26,6.34-4.95,8.68-7.96,4.62-5.95,7.58-12.8,7.18-20.68-.07-1.44.46-2.92.72-4.38.96-2.23,1.78-4.54,2.93-6.68.7-1.31,1.29-3.09,3.46-2.09,2.27,7.63,6,14.89,6.99,22.83,1.46,11.74-2.9,21.51-11.65,29.39-1.45,1.31-3,1.69-4.78.78-4.7-3.51-9.58-6.78-13.52-11.2Z" style="fill: #602c99; stroke-width: 0px;"/>
  <path d="M263.03,406.89c4.42.29,6.34-3.38,8.4-6.02,8-10.22,9.54-21.53,4.42-33.6-1.85-4.36-3-8.93-3.8-13.59-2.13-4.09-.39-8.08.66-11.91,2.85-10.39,8.59-18.97,17.23-25.51,1.79-1.35,3.34-2.99,5.25-4.18,1.08-.47,2.1-1.01,2.43-2.29.64-1.59,1.5-3.07,2.25-4.61.69-2.05.63-4.08-.1-6.1-1.94-7.72-5.51-14.75-9.33-21.66-.54-.97-1.13-1.92-1.12-3.09.04-.61.23-1.14.71-1.55,5.46,6.14,8.33,13.75,11.82,20.99,1.77,3.66,3.04,7.55,3.5,11.7.43,3.94-1.22,7.91-4.74,9.97-5.95,3.49-12.32,6.22-16.88,11.85-8.3,10.28-11.96,23.21-5.27,35.6,3.23,5.98,6.6,11.92,7.12,19.03.71,9.83-3.48,17.5-9.7,24.54-1.79,2.02-3.36,4.16-6.11,4.93-2.42-1.25-4.68-2.75-6.76-4.5Z" style="fill: #6b349b; stroke-width: 0px;"/>
  <path d="M279.52,416.62c5.41-.69,8.63-4.5,11.72-8.38,6.04-7.59,7.15-16.15,6.81-25.79-.38-10.67-6.14-17.98-11.76-25.78,1.89,0,3.55.8,5.24,1.5,6.51,5.09,10.89,11.47,11.99,19.83.84,6.39,3.19,12.45,3.93,18.9.91,7.97-1.77,14.44-8.17,18.61-6.02,3.92-12.92,5.04-19.74,1.1Z" style="fill: #854fbe; stroke-width: 0px;"/>
  <path d="M341.71,345.29c-.56.79-.98,1.57,0,2.36,1.93,11.85,2.65,23.71-.05,35.54-.98,4.27-2.71,8.28-5.27,11.88-3.08,4.33-7.39,4.87-11.02.99-7.72-8.25-11.47-19.68-2.92-32.28,3.74-5.52,6.74-11.49,7.03-18.22.24-5.42-.86-10.83-2.17-16.14-4.21-17.12-11.89-32.66-21.12-47.56-7.68-12.38-16.54-23.93-24.73-35.95-1.26-1.84-2.23-3.88-3.27-5.87-.32-.61-1.02-1.35-.4-2.03.78-.85,1.62-.12,2.37.25,3.98,1.98,7.15,5.19,9.99,8.3,6.02,6.59,12.4,12.87,17.66,20.18,9.31,12.91,16.29,27.01,22.7,41.5,5.27,11.91,7.9,24.56,11.2,37.04Z" style="fill: #b388db; stroke-width: 0px;"/>
  <path d="M54.81,457.78c2.6.7,4.3,2.85,6.57,4.11,3.88,2.16,7.32,2.12,11.07-.5,9.58-6.68,19.11-13.47,29.65-18.65,8.11-3.98,16.63-6.51,25.49-8.05.99-.17,1.95-.13,2.88.43,4.25,2.57,8.51,5.1,12.77,7.65-5.58-.84-11-.52-16.05,2.28-1.66.92-3.8,1.31-4.19,3.68-.59.94-1.58,1.19-2.54,1.52-5.17.95-10.5.97-15.52,2.77-1.01.3-2.07.42-3.07.73-.3.12-.61.22-.92.33-.73.27-1.47.54-2.22.77-.57.19-1.13.41-1.67.67-.82.38-1.61.83-2.55.79-3.78,2.09-3.55,5.85-3.69,9.32-.14,3.33-.22,6.59-2.31,9.41-.86-.48-1.69-1.33-2.57-1.4-11.18-.78-20.08-6.52-28.67-12.98-.3-.22-.63-.4-.94-.59-.51-.76-1.01-1.53-1.52-2.29Z" style="fill: #3c4963; stroke-width: 0px;"/>
  <path d="M27.15,432.33c-5.54,1.07-8.11-2.75-9.92-6.72-4.17-9.13-5.5-18.77-3.71-28.75.21-1.15.37-2.22,1.6-2.73,1.44,13.54,6.07,26.08,12.03,38.2Z" style="fill: #cba2e4; stroke-width: 0px;"/>
  <path d="M94.52,456.31c.75-.44,1.5-.89,2.26-1.33,1.18.92,1.37,2.31,1.74,3.63,9.55,34.38,21.15,68.01,36.35,100.36,2.02,4.29,4.05,8.55,6.39,12.67,1.05,1.85,2.24,3.58,3.64,5.19,2.1,2.41,4.49,3.36,7.64,2.22,1.74-.63,3.65-.8,5.36-1.58.33-.16.67-.29,1.01-.41,2.55-.73,4.89-1.89,7.04-3.46.29-.22.6-.41.92-.58,3.78-2.33,7.75-3.01,11.98-1.35,1.73.68,3.36.55,4.91-.5.47-.3.96-.56,1.47-.76,1.04-.36,2.14-.39,3.22-.54.88-.13,1.72-.44,2.58-.68,3.37-2.12,3.76-3.94,1.66-7.73-3.74-6.76-7.67-13.4-11.41-20.15-7.24-13.07-14.04-26.38-22.12-38.98-2.43-3.79-5.05-7.37-8.64-10.21-4.63-3.66-7.3-8.81-9.71-14-2.77-5.98-5.55-11.97-8.09-18.07-1.05-2.53-2.37-4.93-3.92-7.21-.66-.97-1.87-1.78-1.33-3.27.95-.01,1.72.43,2.25,1.15,5.71,7.81,13.29,14.06,18.79,21.98,4.25,6.12,7.04,13.14,10.31,19.86,5.35,10.97,11.19,21.7,16.89,32.5,5.99,11.34,12.13,22.61,18.07,33.97,3.7,7.07,3.59,7.12-1.62,13-.22.25-.21.7-.3,1.06-6.53.3-12.44,3.09-18.67,4.59-3.93-1.71-7.57-.27-11.19,1.11-3.95,1.51-7.91,2.78-12.1,3.65-4.59.96-7.35-.71-9.79-4.17-5.29-7.51-8.42-16.1-12.07-24.39-8.62-19.59-16.36-39.56-22.85-59.96-3.95-12.42-8.06-24.8-10.68-37.6Z" style="fill: #858ca4; stroke-width: 0px;"/>
  <path d="M78.15,335.76c.03,16.14,4.81,31.13,11.25,45.68,1.19,2.69,1.8,5.68,3.73,8.03.4,2.93-1.3,1.7-2.3,1.03-6.6-4.43-11.02-10.36-12.23-18.38-.58-3.82-1.04-7.59-.36-11.5.62-3.57-1.8-7.01-.96-10.68-.32-6.94-1.33-13.86-.09-20.84.32-1.81.72-3.6,1.08-5.4.01-.05.21-.11.32-.1.12.02.22.11.33.17-.59,3.98-1.29,7.95-.77,12Z" style="fill: #d6dae2; stroke-width: 0px;"/>
  <path d="M290.03,272.77c0,.5,0,1,0,1.5-1.6.38-2.23-.91-2.91-1.86-10.8-14.98-23.6-28.39-33.96-43.7-4.72-6.97-8.88-14.32-10.46-22.61-2.38-12.45-9.87-20.63-20.37-26.72-9.11-5.28-18.7-8.78-29.46-8.32-3.7.16-7.08,1.32-10.52,2.44-.49.16-.98.09-1.46-.09-.9-.91-.03-1.29.53-1.76,2.24-.76,4.47-1.52,6.71-2.28,1.4-.9,3.14.25,4.53-.74.48,0,.97,0,1.45-.01,15.51.65,28.7,7.23,41.08,15.96,3.08,2.17,5.59,4.93,8.27,7.52,4.22,4.08,5.48,9.47,5.93,14.9.88,10.56,6.29,18.9,12.11,27.2,8.21,11.68,17.35,22.65,25.83,34.12,1.03,1.39,1.81,2.97,2.7,4.46Z" style="fill: #683393; stroke-width: 0px;"/>
  <path d="M281.79,257.04c2.47,1.69,4.1,4.03,5.24,6.74-2.46-1.69-4.09-4.03-5.24-6.74Z" style="fill: #864eb5; stroke-width: 0px;"/>
  <path d="M276.55,250.3c1.39.93,2.81,1.84,2.99,3.75-1.39-.93-2.81-1.85-2.99-3.75Z" style="fill: #864eb5; stroke-width: 0px;"/>
  <path d="M279.54,254.05c1.2.66,2.19,1.48,2.25,2.99-1.2-.66-2.18-1.48-2.25-2.99Z" style="fill: #864eb5; stroke-width: 0px;"/>
  <path d="M274.3,247.31c1.2.66,2.19,1.48,2.25,2.99-1.2-.66-2.18-1.48-2.25-2.99Z" style="fill: #864eb5; stroke-width: 0px;"/>
  <path d="M77.28,349.93c.78,4.39,2.09,8.51,1.8,13.26-.58,9.47,1.35,18.53,10.01,24.54,1.01.7,1.79,1.72,2.73,2.52,1.09.93,1.09-.16,1.32-.79,2.03,2.16,2.76,4.97,3.82,7.61-5.48-2.84-10.95-5.7-16.37-8.64-7.8-4.23-7.65-7.27-6.83-13.91.71-5.79-.12-11.63,1.24-17.35.59-2.49.42-5.18,2.29-7.26Z" style="fill: #afb6c3; stroke-width: 0px;"/>
  <path d="M187.98,312.61c-5.69-10.07-9.86-20.82-14.11-31.53-5.21-14.62-9.22-29.53-11.16-44.96-.45-3.59-.58-7.17,0-10.76,6.52-10.42,20.32-11.02,27.62-1.19,2.55,3.43,4.33,7.25,5.61,11.32,1.71,5.47,3.61,10.86,5.49,16.27,4.59,13.22,13.02,23.04,25.4,29.5,2.28,1.19,4.03,2.59,3.07,5.53-.71,1.58-2.19,2.28-3.55,3.14-7.12,4.5-14.36,8.82-21.48,13.32-4.3,2.63-8.64,5.21-12.92,7.89-1.18.74-2.3,1.98-3.99,1.46Z" style="fill: #210643; stroke-width: 0px;"/>
  <path d="M163.51,224.84c-.54,17.21,3.61,33.6,8.68,49.84.66,2.1,1.85,4.08,1.67,6.4-3.9-8.38-6.21-17.29-8.45-26.19-3.22-12.83-5.28-25.82-5.09-39.13.12-8.42,1.29-16.61,3.87-24.61,2.66-5.15,5-10.51,9.72-14.26,2.3-1.15,3.55-4.2,6.74-3.74,15.6-6.53,29.61-1.88,43.2,6.07,10.77,6.3,17.52,15.15,20.03,27.71,2.16,10.77,8.65,19.69,15.14,28.41,9.78,13.13,20.93,25.17,30.37,38.55.13.19.42.26.63.39,2.31,4.62,4.58,9.25,6.93,13.85,1.76,3.45,2.64,7.16,3.56,10.87.58,2.25.58,4.49,0,6.74-.75,1.5-1.5,3-2.25,4.5-.57.92-1.32,1.67-2.25,2.25-7.64,6.11-15.22,12.23-19.41,21.5-2.84,6.29-4.75,12.74-4.56,19.7-2.31.92-2.21,3.41-3.3,5.11-.85,1.32-1.04,3.09-2.67,3.87-.21-17.59,6.5-32.67,16.84-46.43,1.42-1.88,2.74-3.86,4.33-5.58,8.14-8.78,6.69-18.35,2.39-28.14-4.85-11.06-12.36-20.36-19.87-29.65-9.28-11.47-19.45-22.27-26.93-35.14-2.87-4.95-5.59-9.92-7.48-15.4-5.81-16.87-25.1-30.58-44.93-28.39-2.66.29-5.07,1.46-7.07,3.16-11.71,9.97-19.07,22.18-19.15,38.02,2.09,3.41.47,6.55-.69,9.73Z" style="fill: #632e94; stroke-width: 0px;"/>
  <path d="M224.88,310.98c2.08,2.6,1.84,5.11.05,7.83-4.57,6.95-10.68,12.31-17.31,17.15-1.59,1.16-3.38,2.11-5.49,2.08-4.16-6.22-7.81-12.73-11.07-19.46-.25-1.83,1.04-2.68,2.32-3.43,8.51-4.94,17.64-7.01,27.45-5.78,1.45.18,2.97.39,4.04,1.61Z" style="fill: #1f173a; stroke-width: 0px;"/>
  <path d="M224.88,310.98c-6.15-.88-12.36-1.58-18.42.07-5.55,1.51-11.23,3.06-15.4,7.52-1.39-1.8-2.43-3.78-3.09-5.97,5.53-3.32,10.72-7.2,16.62-9.89,5-.59,9.51-2.96,14.38-4.02,3.2-.69,6.39-1.01,8.9,1.82,3.18,2.1,6.88,2.51,10.47,3.37,8.56,2.03,9.43,4.35,4.5,11.59-2.92-4-7.48-3.81-11.65-4.44-2.06-.31-4.2-.05-6.31-.05Z" style="fill: #332f54; stroke-width: 0px;"/>
  <path d="M155.87,229.38c-1.16-1.39-.63-3.01-.64-4.56,1.2,1.38.57,3.02.64,4.56Z" style="fill: #9368ba; stroke-width: 0px;"/>
  <path d="M120.75,449.52c.54-.88,1.5-.54,2.26-.79.98.06,1.96.11,2.94.17.03.21.04.42.05.64-.33.46-.8.66-1.33.77-.52.09-1.04.11-1.57.1-.7-.03-1.39-.11-2.01-.49-.11-.13-.23-.26-.34-.4Z" style="fill: #858ca4; stroke-width: 0px;"/>
  <path d="M124.42,449.66c.53-.04,1.05-.08,1.58-.12.24.02.47.03.71.05,4.68,5.84,7.15,12.82,9.86,19.64,3.96,9.97,7.82,19.98,12.53,29.64,1.95,4,4.24,7.56,9.25,8.42,2.53.43,4.22,2.51,5.79,4.51,5.25,6.72,9.12,14.28,13.12,21.74,4.95,9.22,10.45,18.12,15.52,27.27,2.68,4.84,2.7,5.91-1.62,9.36-.77.23-1.54.45-2.32.68-.65-.89-.27-1.75.29-2.39,2.15-2.47,1.4-4.82-.14-7.17-3.09-4.7-6.61-9.06-10.79-12.84-.71-.64-1.41-1.7-2.52-1.11-1.02.54-.87,1.76-.75,2.71.64,5.33,1.84,10.52,3.76,15.57,1.18,3.11,4.61,3.18,6.48,5.29l-.75.78c-1.63.69-3.42,1.23-4.99.36-4.87-2.67-8.98-.95-12.99,1.86h0c-2.36,1.52-4.93,2.64-7.49,3.75h0c-.39.35-.91.36-1.37.52-8.68,2.85-11.53,1.79-16.13-6.11-3.51-6.03-6.46-12.36-9.33-18.71-9.73-21.51-18.04-43.58-25.2-66.07-3.12-9.79-6.34-19.57-8.77-29.57-.3-1.22-.92-2.36.19-3.46.74-.29,1.47-.57,2.21-.86,2.82,6.26,4.05,13.03,6.06,19.55,7.79,25.24,16.58,50.1,27.3,74.26,2.98,6.73,6.31,13.27,9.6,19.84,1.65,3.28,3.92,6.05,6.9,8.22,1.35.98,2.75,1.77,4.48.98,3.16-1.01,6.14-2.43,9.03-4.06,4.59-3.74,4.21-8.73,3.16-13.68-1.56-7.37-4.78-14.18-7.99-20.91-10.8-22.64-19.49-46.11-27.9-69.69-1.84-5.16-3.54-10.38-6.39-15.11-.57-.95-1.16-1.98-.37-3.12Z" style="fill: #9fa7bb; stroke-width: 0px;"/>
  <path d="M191.14,570.16c4.28-3.41,2.84-6.77.38-10.65-9.05-14.28-16.36-29.59-25.67-43.72-2.78-4.22-5.69-8.21-11.37-8.69-1.8-.15-2.61-1.8-3.49-3.14-4.62-7.01-7.4-14.91-10.58-22.6-4.41-10.66-8.18-21.6-13.7-31.78.26,0,.52-.02.77-.03,6.38,7.73,8.93,17.42,13.29,26.19,3.23,6.5,6.43,12.69,12.39,17.36,4.6,3.6,7.31,9.08,10.19,14.12,10.36,18.13,20.52,36.37,30.72,54.59,2.07,3.7,1.01,6.58-2.93,8.34Z" style="fill: #8892a4; stroke-width: 0px;"/>
  <path d="M180.66,173.14c-2.78.3-4.05,3.3-6.74,3.74,1.87-2.65,4.36-4.4,7.5-5.23-.25.49-.5.99-.75,1.48Z" style="fill: #753da0; stroke-width: 0px;"/>
  <path d="M192.65,168.63c-1.32,1.37-3.01.56-4.53.74,1.34-1.29,3-.59,4.53-.74Z" style="fill: #753da0; stroke-width: 0px;"/>
  <path d="M163.51,224.84c.23-3.24.46-6.49.69-9.73.25-.25.49-.49.74-.74,2.01-6.15,5.09-11.53,10.45-15.47,7.94-5.84,16.39-6.13,24.68-.73,7.32,4.76,12.09,11.5,14.76,19.62,3,9.08,7.75,16.88,14.66,23.51,5.19,4.99,11.62,7.65,18.02,10.38,9.15,3.91,17.13,9.15,22.32,17.92,2.95,4.98,4.91,10.37,5.93,16.04.4,2.21,1.04,4.83-1.84,6.22-1.91.02-2.31-1.67-3.11-2.85-3.47-5.07-7.2-9.86-12.77-12.84-2.8-1.5-5.59-2.13-8.42-.12-.29.19-.6.35-.91.51-4.99,2.76-9.62,6.13-14.68,8.77-1.57.53-2.68,2.49-4.72,1.55.43-2.28-.52-3.5-2.6-4.64-6.67-3.66-13.16-7.86-17.75-13.95-4.41-5.85-7.22-12.72-9.7-19.64-2.26-6.3-4.19-12.73-6.68-18.94-3.6-8.98-13.17-13.71-21-10.74-3.23,1.23-5.49,3.78-8.08,5.89Z" style="fill: #320f5a; stroke-width: 0px;"/>
  <path d="M273.48,291.54c2.6-1.52,1.78-4.07,1.37-6.06-3.25-15.81-12.2-27.07-27.45-32.77-12.09-4.52-21.78-11.72-28.48-22.88-2.41-4.01-3.49-8.5-5.26-12.73-4.66-11.09-11.42-19.89-24.31-21.66-7.92-1.09-13.29,3.45-18.23,8.78-2.75,2.97-3.78,6.98-6.18,10.15,1-7.95,4.74-14.54,10.14-20.27,2.48-2.63,5.12-5.11,7.66-7.69,4.39-4.45,9.82-5.46,15.79-4.93,8.73.78,15.77,4.54,21.59,11.15,3.67,4.16,5.37,9.13,5.93,14.18,1.17,10.43,7.5,17.32,15.09,23.03,15.41,11.6,28.41,25.21,37.57,42.23,3.41,6.34,6.44,13.08,5.96,20.52-.31,4.73-1.28,9.57-5.95,12.41-.26.03-.63.04-.68-.12-1.45-4.47-4.24-8.48-4.58-13.34Z" style="fill: #4d2177; stroke-width: 0px;"/>
  <path d="M273.48,291.54c2.21,4.3,3.92,8.81,5.25,13.46.02,1.61.07,3.21.06,4.82-.05,6.73-5,9.86-11,6.89-2.08-1.03-4.21-2.1-5.53-4.19-1.78-3.99-5.25-6.75-7.56-10.38-5.16-8.11-8.63-16.51-5.85-26.34,2.36-2.73,5.16-2.37,8.06-1.12,7.05,3.05,11.41,8.84,15.37,15.05.39.61.8,1.22,1.2,1.83Z" style="fill: #7f889c; stroke-width: 0px;"/>
  <path d="M248.85,275.79c.44,3.75-.56,7.52.36,11.3,2.13,8.81,6.48,16.34,12.48,23.05.35.4,3.21.99.57,2.38-.96-.46-1.02-1.87-2.22-2.09-1.92-2.59-3.84-5.19-5.76-7.78-1.99-1.99-4.04-3.94-5.1-6.64-1.78-3.55-3.05-7.28-3.36-11.24-.27-3.37-.05-6.68,3.03-8.97h0Z" style="fill: #bfc4d2; stroke-width: 0px;"/>
  <path d="M250.21,296.09c.95,2.44,3.43,3.93,4.07,6.56-3.05-1.37-6.13-1.24-9.42-.76-5.71.83-11.37-.39-16.99-1.37-3.53-1.44-7.06-1.74-10.72-.34-2.88,1.1-5.85,1.98-8.78,2.93-1.31.42-2.63.82-3.78-.39,5.96-4.53,12.63-7.94,18.86-12.04,1.95-1.28,3.9-2.54,5.86-3.8,1.5-.71,3.01-1.42,4.51-2.14,2.98.9,5.31,2.5,6.34,5.64.92,2.81,3.23,3.88,5.9,4.43,1.42.29,3,.1,4.15,1.28Z" style="fill: #514f79; stroke-width: 0px;"/>
  <path d="M300.52,305.73v-6.74c1.2,2.25,1.2,4.49,0,6.74Z" style="fill: #683393; stroke-width: 0px;"/>
  <path d="M296.03,312.48c.49-1.01,1.24-1.76,2.25-2.25-.07,1.43-.82,2.18-2.25,2.25Z" style="fill: #683393; stroke-width: 0px;"/>
  <path d="M104.15,452.4c5.29-2.36,10.96-2.5,16.6-2.87l-.12.26c3.62,3.43,4.74,8.14,6.25,12.58,7.31,21.49,14.34,43.08,23.13,64.03,4.1,9.78,8.43,19.46,11.64,29.58.68,2.15,1.26,4.31,1.63,6.53.73,4.44-1.45,9.22-4.73,10.47-3.61,1.37-8.16-.25-10.79-3.97-5.3-7.48-9-15.8-12.67-24.14-12.45-28.24-22.67-57.27-30.72-87.06-.47-1.75-1.38-3.57-.22-5.42Z" style="fill: #eaedf0; stroke-width: 0px;"/>
  <path d="M104.15,452.4c3.97,17.62,9.84,34.68,15.79,51.69,5.1,14.56,10.83,28.88,17.19,42.94,3.44,7.61,6.88,15.21,11.84,22,2.15,2.94,6.71,4.44,9.61,3.11,2.47-1.13,4.51-5.94,3.86-9.1-1.64-7.96-4.5-15.53-7.75-22.92-11.06-25.21-20.09-51.17-28.64-77.31-1.47-4.5-3.73-8.63-5.43-13.02.79-.04,1.59-.09,2.38-.13,3.26,3.45,4.66,7.87,6.24,12.16,5.66,15.4,10.96,30.94,16.94,46.23,5.14,13.12,11.31,25.81,16.52,38.9,1.71,4.29,3.29,8.64,4.26,13.17,1.01,4.72.46,9.18-2.78,13.04-2.91,1.45-5.7,3.19-8.97,3.78-4.43.2-7.12-2.59-9.4-5.76-4.32-6-7.23-12.79-10.26-19.48-13.97-30.8-25.02-62.65-33.95-95.25-.29-1.06-.72-2.12-.4-3.26.8-.98,1.93-.67,2.96-.77Z" style="fill: #bbc2cd; stroke-width: 0px;"/>
  <path d="M98.33,454.26c.21,4.53,2,8.7,3.26,12.95,8.47,28.5,18.11,56.59,30.42,83.71,2.73,6.02,5.8,11.86,8.61,17.83,1.5,3.2,3.68,5.85,6.1,8.41,1.91,2.02,3.99,2.32,6.43,1.82,1.94-.4,3.86-.88,5.79-1.32-7.57,4.96-12.44,4.07-17.21-3.38-5.73-8.94-9.74-18.76-13.94-28.45-8.2-18.93-15.42-38.27-21.57-57.97-3.4-10.89-7.3-21.64-9.45-32.89.52-.24,1.04-.48,1.56-.72Z" style="fill: #8892a4; stroke-width: 0px;"/>
  <path d="M101.19,453.17c4.9,17.7,10.33,35.24,16.47,52.55,5.86,16.5,12.26,32.78,19.81,48.6,2.03,4.26,3.99,8.53,6.34,12.64,2.68,4.68,5.93,8.54,11.4,9.97-1.52,1.29-2.9.76-4.38-.18-3.68-2.34-6.3-5.56-8.28-9.38-11.08-21.32-19.85-43.61-27.75-66.26-5.11-14.64-9.8-29.41-13.75-44.42-.28-1.06-.34-2.19-.51-3.28.21-.1.43-.18.66-.23Z" style="fill: #bbc2cd; stroke-width: 0px;"/>
  <path d="M185.15,570.91c-5.05-.57-7.6-3.76-8.66-8.4-1.01-4.45-2.57-8.8-2.57-13.44,0-1.22-.25-2.63,1.12-3.31,1.46-.72,2.26.52,3.14,1.35,4.65,4.32,8.72,9.12,12.1,14.51,1.76,2.81,1.96,5.25-.71,7.58-.42.36-.51,1.09-.76,1.65-1.23.02-2.45.04-3.68.06Z" style="fill: #cbd1dc; stroke-width: 0px;"/>
  <path d="M166.42,573.91c3.61-3.37,7.35-5.99,12.47-2.8,1.69,1.05,3.66.41,5.51.57-1.16,1.33-2.85,2.02-4.29,1.32-4.81-2.34-9.25-1.17-13.69.91Z" style="fill: #8892a4; stroke-width: 0px;"/>
  <path d="M158.93,577.66c2.26-1.73,4.77-2.96,7.49-3.75-1.99,2.27-4.56,3.37-7.49,3.75Z" style="fill: #8892a4; stroke-width: 0px;"/>
  <path d="M164.18,573.15c4.53-8.65,1.43-16.9-2.01-24.72-12.87-29.29-24.18-59.17-34.65-89.38-1.15-3.31-2.95-6.29-4.52-9.39.47,0,.94,0,1.41,0,10.58,21.97,16.73,45.67,26.61,67.92,4.49,10.11,9.24,20.1,13.54,30.29,2.74,6.49,5.62,13.11,3.3,20.48-.64,2.04-1.36,4.05-3.69,4.81Z" style="fill: #bbc2cd; stroke-width: 0px;"/>
  <path d="M250.21,296.09c-5.54.08-10.28-1-11.85-7.41-.54-2.19-3.9-1.59-4.54-3.93,5.02-2.96,9.64-6.59,15.03-8.94-4.04,7.07-1.52,13.69,1.36,20.29Z" style="fill: #7f889c; stroke-width: 0px;"/>
</svg>