<?xml version="1.0" encoding="UTF-8"?>
<svg id="Layer_1" data-name="Layer 1" xmlns="http://www.w3.org/2000/svg" viewBox="0 0 598.4 383.29">
  <path d="M204.68,379.91c-11.94-.44-23.83.75-35.75,1.21-17.13.65-34.28,2.31-51.17-2.37-1.63-.45-3.45-.21-5.18-.29-5.48-.33-10.8-1.52-16.13-2.72-5.18-1.17-7.87-4.43-8.74-9.49-.41-2.35-.35-4.72-.35-7.09,0-46.52,0-93.05,0-139.57,0-2.49-.02-4.98-.28-7.47-.31-2.94-.87-5.46-3.88-7.1-2.46-1.35-3.14-4.21-3.16-6.86-.15-20.2-.45-40.4.1-60.6.59-2.53,1.23-5.04,2.66-7.26,1.87-2.85,4.95-3.12,7.9-3.69,12.09-1.47,24.29-1.44,36.39-2.53,7.06-.63,14.15,0,21.19-1.19,7.34-1.24,14.59.87,21.87,1.56,12.38,1.18,24.78,2.26,37.16,3.41,6.26.58,12.25,2.07,18.09,4.31,1.61,1.98,4.59,3.55,2.01,6.78-4.32-2.77-9.1-2.09-13.8-1.75-7.58.56-15.17.88-22.76,1.28-11.44.6-22.89,1.2-34.32,1.98-5.34.37-10.7.6-16.04,1.04-4.9.4-5.8,1.56-5.43,6.33.8,10.46.3,20.95.31,31.42,0,6.99.85,13.93.99,20.91.1,5.38,2.11,7,7.53,7.1,10.85.21,21.67-.66,32.49-1.27,6.22-.35,12.45-.47,18.67-.75,7.46-.33,14.92-1.26,22.41-.97.87.03,1.75-.04,2.61-.14,5.52-.63,6.62-1.79,6.64-7.35.04-15.97,0-31.93.04-47.9,0-1.95-.37-4.04,1.15-5.71,2.64,1.13,1.88,3.55,1.89,5.49.09,15.35.05,30.71.05,46.06,0,2.62.05,5.24-.05,7.86-.07,1.76-.26,3.52-1.07,5.1-1.18,2.31-2.91,3.61-5.51,2.62,1.15,1.12,2.05,2.62,2.03,4.47-.05,5.13.9,10.18.9,15.31-.06,39.69-.02,79.39-.04,119.08,0,7.23-.81,14.44-.91,21.68-.08,5.62-3.04,8.11-8.56,8.96-4.01.62-7.95.18-11.92.13Z" style="fill: #d18336; stroke-width: 0px;"/>
  <path d="M597.18,366.54c-1.78,3.84-5.65,3.92-8.9,4.32-12.29,1.52-24.64,2.53-36.94,3.93-10.59,1.21-21.14,2.72-31.71,4.06-1.84.23-3.71.28-5.56.42-20.86-4.93-42.47-5.89-63.13-11.9-2.4-.7-4.83-1.28-6.98-2.62-3.18-1.97-3.4-4.4-.61-6.95,1.38-1.26,2.97-2.27,4.56-3.27,9.67-6.08,15.88-14.82,20-25.37,6.27-16.09,7.35-32.95,8.53-49.91.71-10.18,1.48-20.38,2.45-30.56,1.32-13.78,2.98-27.52,4.1-41.31.74-9.07,2.71-18.11,2.17-27.19-.78-13.29-1.31-26.67-4.89-39.65-1.11-4.04-3.28-7.56-5.19-11.18-6.39-12.12-12.18-24.62-21.78-34.78-4.44-4.7-10.33-5.64-16.08-7.01-1.8-.43-3.22,1.01-4.36,2.44-2.34,2.94-4.49,5.94-5.79,9.55-.78,2.16-1.42,5.36-4,5.36-2.84,0-3.38-3.35-4.21-5.59-2.31-6.2-4.15-12.56-6.12-18.87-1.21-3.87-2.96-7.41-5.66-10.45-.69-1.44-1.39-2.89.02-4.32,5.21-1.74,10.4,0,15.55.35,14.3.95,28.58,2.37,42.88,3.45,7.21.55,14.43,1.06,21.62,1.85,3.19.35,6.14.02,9.19-.98,4.59-1.5,9.23-3.26,14.22-1.82,0,1.8.01,1.89-1.84,2.27-3.26.68-6.5,1.34-9.61,2.6-4.44,1.8-4.47,1.72-3.67,6.37.1.61.14,1.22.19,1.84,1.43,18.65,2.22,37.32,3.15,55.99.82,16.43,1.52,32.86,2.29,49.29.78,16.56,1.4,33.12,2.25,49.67,1,19.54,1.86,39.09,2.97,58.62,1.31,23.02,2.32,46.06,4.39,69.03.07.75.11,1.49.22,2.23.91,6.1,3.51,8.24,9.66,7.71,7.09-.61,14.08-2.02,21.11-3.05,14.2-2.08,28.48-3.38,42.79-4.37,2.62-.18,5.18-.81,7.78-1.13,1.72-.21,3.5-.56,4.94.88Z" style="fill: #276cc5; stroke-width: 0px;"/>
  <path d="M51.03,365.08c-11.43-1.87-22.7-4.48-33.93-7.26-4.09-1.01-5.64-3.69-5.71-7.62-.16-8.85-.48-17.71-.5-26.56-.06-43.04-.07-86.07.02-129.11,0-3.31-.51-5.13-4.29-5.71-4.15-.63-5.87-3.48-6.29-8.96C.05,176.13,0,172.38,0,168.64c.02-15.97.07-31.93.2-47.9.02-2.96.1-6.09,3.52-7.55,6.67-1.51,13.12.28,19.6,1.37,7.01,1.18,13.96,2.72,20.93,4.13,1.2.24,2.5.38,3.28,1.55-.3,2.81-2.48,4.84-3.09,7.56-1.02,4.55-1.61,9.15-1.07,13.75,1.07,9.22.63,18.45.58,27.67-.03,7.5.42,14.96.92,22.42.25,3.76,1.01,7.38,3.29,10.58,2.11,2.96,2.53,6.49,2.55,10.01.1,17.22.06,34.44.09,51.66.05,31.05-.07,62.11-.1,93.16,0,2.69,1.75,5.3.33,8.02Z" style="fill: #cf8135; stroke-width: 0px;"/>
  <path d="M597.18,366.54c-5.99-.21-11.77,1.57-17.77,1.69-6.66.13-13.28,1.45-19.95,1.97-10.26.81-20.39,2.56-30.54,4.17-2.93.47-5.89.82-8.85,1.09-8.37.76-9.98-3.66-10.47-9.48-1.03-12.24-1.73-24.5-2.45-36.77-.8-13.76-1.49-27.52-2.21-41.28-.52-9.92-1.04-19.84-1.52-29.76-.5-10.55-1.02-21.09-1.5-31.64-.51-11.17-1.04-22.34-1.5-33.51-.44-10.55-.96-21.09-1.51-31.64-.54-10.3-.74-20.61-1.44-30.89-.64-9.42-1.23-18.83-1.5-28.27-.2-7.06-.91-14.1-1.4-21.15.5-.61.67-1.31.64-2.09-.05-1.34.21-2.67,1.8-2.78,1.87-.13,2.09,1.48,2.3,2.83.26,1.73.65,3.45.71,5.19.31,10.84,1.16,21.65,1.73,32.48.61,11.57.97,23.16,1.98,34.71.47,5.34.48,10.71.74,16.06.77,15.81,1.58,31.62,2.57,47.41.68,10.93,1.13,21.88,2.17,32.81,1.46,15.37,2.36,30.79,3.69,46.18,1.36,15.78,2.77,31.56,5.3,47.21.6,3.69,1.34,7.39,3,10.78,1.86,3.79,4.17,4.36,7.45,1.74,4.67-3.71,6.58-9.11,7.64-14.62,2.09-10.85,1.41-21.86.98-32.83-.61-15.84-2.88-31.53-4.24-47.3-1.14-13.29-2.89-26.53-4.42-39.78-3.01-26.02-5.93-52.05-9.04-78.05-2.47-20.68-4.66-41.41-7.81-62.01-.94-6.15.44-7.97,6.53-9.53,4.65-1.19,9.48-.13,14.03-1.43-3.4-1.72-7.1-1.01-10.61-1.38-6.65-.7-13.32-1.46-20.01-1.8-1.37-.07-3.12.23-3.53-1.84,1.06-.49,2.14-.37,3.22-.09,14.89,1.33,29.79,2.64,44.68,3.99.58.05,1.14.39,1.71.6-1.14.96-2.54.75-3.87.81,1.33-.07,2.74.21,3.87-.81,4.36.42,5.15,4.18,5.88,7.2,2.69,11.09,4.54,22.34,6.16,33.65,1.12,7.86,2.95,15.61,4.26,23.45,1.66,9.89,3.08,19.82,4.68,29.73,1.21,7.49,2.53,14.96,3.8,22.45,1.46,8.56,2.95,17.11,4.37,25.67,1.83,11.04,3.64,22.09,5.42,33.14,4.06,25.18,7.95,50.39,11.21,75.7,1.69,13.1,3.57,26.17,4.57,39.34.22,2.91.7,5.94-.98,8.68Z" style="fill: #2f9be4; stroke-width: 0px;"/>
  <path d="M51.03,365.08c-1.64-4.03-1.47-8.26-1.46-12.5.04-22.7.04-45.4.04-68.11,0-23.33-.02-46.65-.02-69.98,0-4.88-.25-9.58-3.69-13.65-2.16-2.55-1.98-6.09-2.26-9.26-1.25-14.17-.61-28.38-.87-42.57-.11-6.18-1.21-12.3-.08-18.56.71-3.96,2.09-7.34,4.59-10.38,1.84-4.1,5.72-5.43,9.3-4.48,7.49,2,14.59.08,21.84-.71,1.49-.16,2.96-.51,4.4.14,1.29,1.85-.49,1.98-1.44,2.28-2.36.74-4.73,1.46-7.05,2.31-.67.25-1.53.48-1.4,1.42.09.69.85.82,1.4,1.07,3.47,1.56,7.3,1.1,10.89,1.98,1.3,1.51-.21,2.15-.99,2.88-1.34,1.25-2.56,2.54-3.41,4.66-.03.03.39-.15.42-.29.26-1.26,1.05-1.47,2.12-.83-.76,2.01-1.52,4.01-2.28,6.02-1.63,2.38-1.82,5.13-1.83,7.87-.04,14.34-.11,28.68.03,43.01.04,4.35.68,8.68.78,13.05.06,2.92,1.03,5.61,2.89,7.95,2.01,2.53,2.9,5.46,2.99,8.68.32,12.08.92,24.15.83,36.24-.17,22.44-.15,44.88,0,67.32.07,10.73-1.13,21.4-.85,32.13.23,9.03-.97,18.31,6.36,25.53-10.73-2.17-21.46-4.31-32.18-6.51-4.04-.83-6.77-3.52-9.06-6.74Z" style="fill: #d0472b; stroke-width: 0px;"/>
  <path d="M407.66,69.88c3.17,1.86,4.18,5.13,5.35,8.27,2.9,7.8,4.61,16.01,8.04,23.62.47,1.04.58,2.8,2.1,2.71,1.17-.07,1.4-1.64,1.81-2.64,1.83-4.48,3.92-8.75,6.99-12.58,1.98-2.47,4.24-3.51,7.12-2.77,3.94,1.02,7.54,3.07,11.58,3.91,1.88.39,2.42,2.74,3.73,4.03,8.18,8.09,13.12,18.3,18.4,28.26,3.19,6.01,7.1,11.75,8.66,18.48,1.84,7.96,3.74,15.91,3.48,24.25-.13,4.16,1.27,8.35,1.31,12.53.11,11.55-1.65,22.97-2.81,34.44-.86,8.5-1.28,17.06-2.43,25.52-1.74,12.78-1.56,25.71-3.53,38.48-.77,5-.23,10.15-.81,15.25-1.39,12.32-2.75,24.53-7.19,36.32-3.04,8.07-7.29,15.16-13.01,21.41-3.36,3.67-7.97,5.88-11.96,8.82-3.47,2.56-3.37,4.16.62,6.04,6.24,2.95,13.12,3.65,19.73,5.23,11.33,2.7,22.85,4.53,34.4,5.8,5.25.57,10.35.87,14.8,4.02,0,0-.09.1-.09.1-2.94.38-5.88.33-8.82.04-.55-.07-1.1-.14-1.66-.22-2.2-.91-4.59.18-6.79-.63l-.35.08-.33-.15c-2.7-1.04-5.58.17-8.29-.69l-.36.08-.34-.15c-2.15-1.04-4.55.21-6.71-.71-.26-.03-.52-.05-.78-.08-2.42-.96-5.04.22-7.47-.66-.26-.02-.51-.04-.77-.07-1.96-.91-4.12.1-6.09-.63l-.33.08-.31-.15c-2.7-1.08-5.59.14-8.31-.69l-.36.08-.33-.15c-2.4-1.04-5.02.16-7.44-.71h-.06c-5.7-.72-11.43-1.01-17.15-1.51-14.79-1.16-29.59-2.32-44.38-3.49-2.24-.18-4.48-.37-6.71-.55-.54-1.03.02-1.93.29-2.88,1.08-3.91.42-8.1,1.85-11.96,1.85-1.41,4.09-.87,6.14-1.19,9.98-1.57,19.91-3.43,29.95-4.66,8.67-1.07,15.31-5.37,21.45-11.69,7.38-7.6,11.39-16.55,14.1-26.38,2.2-7.99,2.38-16.24,2.67-24.44.63-17.81,1.53-35.62,3.77-53.29,1.75-13.85,2.44-27.8,4.39-41.64,1.43-10.15.92-20.29-2.08-30.34-1.85-6.21-3.8-12.38-5.87-18.52-1.71-5.07-5.05-8.87-9.5-11.67-5.56-3.49-11.05-2.56-15.34,2.41-1.06,1.23-1.98,2.58-3.14,3.71-1.8,1.75-3.84,2.79-6.42,1.71-1.87-3.27-2.24-7.26-4.89-10.16-1.31-2.22-1.64-4.62-1.62-7.17.07-11.63-1.88-23.02-4.43-34.32-.63-2.81-1.71-5.45-3.35-7.85-.99-2.75-2.05-5.51-.12-8.31Z" style="fill: #1f53af; stroke-width: 0px;"/>
  <path d="M188.05,59.43c7.36,4.57,12.85,11.08,18.32,17.61.78.93,1.29,2.14,2.64,2.46,2.67-.77,5.29.16,7.94.24,6.45.35,12.86.55,19.32-.23,5.9-.71,11.89-.54,17.83-.78,8.67-.35,17.33-1.45,26.03-.94,1.52.09,2.94-.48,4.43-.52,1.38.04,2.48.7,3.47,1.58,2.57,3.14,6.03,5.87,5.09,10.69-.33.27-.7.47-1.11.6-8.23,1.52-16.59,1.28-24.88,1.73-11.53.62-23.05,1.55-34.61,1.7-.99.01-1.97.27-2.94.47-2.1.44-2.82,1.83-2.7,3.81.12,2.1.94,3.53,3.29,3.76,3.26.32,6.44-.45,9.66-.62,2.48-.13,4.97-.08,7.46-.05,4.62-.01,9.25.46,13.85-.3.42-.13.85-.21,1.28-.26,4.48-.34,8.98.31,13.45-.41.41-.13.83-.22,1.25-.28,4.44-.44,8.92.24,13.36-.45.44-.07.87-.07,1.31-.01,3.52,1.92,3.85,4.08,1.37,8.94-.43.19-.88.21-1.33.08-3.02-1.54-6.28-1.54-9.49-1.14-8.4,1.05-16.88.48-25.3,1.27-7.9.74-15.87.74-23.8,1.38-3.52.28-7.31,1.06-9.96-2.45-.96-1.52-.41-3.13-.29-4.73.38-5.02-.72-9.64-3.73-13.75-3.23-4.42-7.54-5.83-12.82-4.68-5.95,1.29-11.19,4.13-16.26,7.35-2.31,1.47-4.69,2.87-6.83,4.57-3.96,3.15-8.01,2.94-12.23.8-6.01-3.04-12.14-5.8-18.43-8.19-12.17-4.64-24.62-8-37.78-8.1-2.79-.02-5.61,1.68-8.39-.06.49-2.77,2.93-2.37,4.65-2.5,6.47-.47,12.95-.42,19.33.96,8.61,1.86,17.07,4.25,22,6.34-3.3-1.33-9.95-3.58-16.82-5.17-1.69-.39-3.4-.8-4.72-2.07-4.2-5.85-9.59-10.35-16.07-13.4-6.01-2.83-9.61-1.35-12.6,4.71-.44.89-.79,1.83-1.78,2.29-.79.06-1.59.14-1.46-1.06,1.18-5.15,3.08-9.74,8.83-11.33,2.22-.51,4.44-.42,6.65,0,10.38,1.93,20.8,1.17,31.24.67,6.21-.3,12.4-.93,18.63-1.01,5.1-.06,10.2.15,15.28-.61,2.84-.43,5.71-.19,8.38,1.1Z" style="fill: #d84b2a; stroke-width: 0px;"/>
  <path d="M227.76,138.83c.58-2.44-1.74-3.83-2.14-5.92-1.92-1.39-3.27-3.38-5.08-4.91-1.58-1.33-1.12-2.56.45-3.56,1.08-.69,2.32-.97,3.56-.92,7.09.33,14.12-.69,21.18-.93,7.92-.27,15.87-.31,23.77-1.29,1.45-.18,2.59-.62,3.56-1.64,7.16.01,14.06,1.57,20.8,3.76,1.86.6,3.63,2.22,3.18,4.54-.46,2.36-2.62,2.79-4.69,2.88-9.93.47-19.85,1.27-29.79,1.63-8.94.33-17.86,1.16-26.81,1.51-1.74.07-4.36-.1-3.91,3.11,1.95,20.43.57,40.9.94,61.35.16,8.64-.37,8.22,8.26,8.02,14.08-.33,28.13-1.18,42.19-2.02,4.97-.3,9.96-.31,14.94-.45,2.32.95,1.96,2.62,1.19,4.4-1.42,2.58-.56,6.05-3.15,8.19-4.28.98-8.7.93-13.01,1.08-11.71.4-23.38,1.53-35.1,1.77-4.85.1-9.69.78-14.56.79-3.04,0-4.58,1.58-4.45,4.7.04.99-.02,2-.02,2.99,0,44.91,0,89.83,0,134.74,0,.87-.02,1.75.02,2.62.15,3.98.56,4.53,4.66,4.48,8.35-.11,16.68-.66,25.02-1.15,6.59-.39,13.2-.46,19.79-.99,3.84-.31,7.72-.04,11.57-.62,2.09-.31,4.26-.4,6.02,1.24,1.27,2.35,1.59,4.58-.8,6.48-1.52,3.8-4.26,5.19-8.4,5.37-21.38.93-42.74,2.22-64.11,3.18-6.23.28-12.18-1.77-18.14-3.36,3.91-1.35,8.05-.76,12.07-1.35,4.49-.66,7.12-2.59,7.3-7.19.24-6.33.64-12.69.67-19,.21-41.64.11-83.29.11-124.93,0-4.48-1.1-8.9-.71-13.39.13-1.52-1.07-2.43-1.86-3.56,5.49-1.48,6.29-2.25,6.31-7.58.07-19.08.01-38.15,0-57.23,0-.87.07-1.76-.69-2.42-1.24-1.44-1.23-2.91-.12-4.42Z" style="fill: #d94a26; stroke-width: 0px;"/>
  <path d="M304.12,46c2.97-2.2,4.47-5.61,6.85-8.31,12.09-13.73,25.37-25.79,43.46-31.04,7.92-2.3,15.85-2.48,23.7.74,1.57.65,2.62,1.85,4.04,2.58,1.72.44,2.62,1.74,3.49,3.16,5.3,8.72,8.7,18.17,10.83,28.1,3.38,15.74,4.99,31.7,6.31,47.73.91,11.03,1.39,22.11,2.93,33.09.52,3.72,1.23,7.39,2.86,10.79,1.98,4.14,3.9,4.47,7.24,1.34,3.16,1.83,1.62,4.41,1.09,6.83-.61,1.18-1.39,2.18-2.72,2.62-5.72,0-8.79-3.52-10.8-8.29-2.99-7.12-3.67-14.71-4.26-22.3-1.69-22.09-2.71-44.25-7.52-65.99-1.62-7.33-3.82-14.45-7.45-21.07-1.45-2.65-3.23-5.02-5.4-7.11-4.32-4.15-9.29-5.79-15.07-3.72-8.85,3.16-16.38,8.31-22.45,15.52-1.48,2.41-4.01,3.65-6.06,5.43-4.13,3.57-8.23,7.16-11.54,11.55-.36.39-.73.77-1.08,1.17-3.21,4.05-6.23,8.23-9.07,12.55-.8,1.22-1.47,2.6-3,3.13-4.92-.3-9.71-1.15-14.27-3.1-1.19-1.85.05-3.44.83-4.84,2.05-3.7,4.31-7.3,7.06-10.54Z" style="fill: #c4c2c4; stroke-width: 0px;"/>
  <path d="M70.46,107.42c-3.78-1.33-7.35-3.04-10.51-5.55-8.2-6.53-8.99-16.07-1.91-23.83,3-3.29,6.67-5.56,11-6.71,3.38-.48,6.61.49,9.88,1.05,8.21,1.39,16.27,3.71,24.64,4.19.83.05,1.94,0,2.09,1.11.14,1.03-.87,1.44-1.62,1.79-2.25,1.07-4.53,2.06-6.62,3.44-4.43,2.92-7.37,7.18-7.71,12.24-.39,5.68,2.82,10.1,7.75,13.1,7.27,4.43,15.28,6.57,23.61,7.66,5.55.72,11.13,1.05,16.74.91,1.91-.05,3.7-.29,5.35-1.29,5.57-.76,11.15-1.43,16.78-1.07,1.44.09,3.42-.14,3.67,1.74.28,2.11-1.76,2.4-3.3,2.82-1.45.39-2.94.69-4.44.59-5.13-.33-10.2.28-15.29.72-1.79-.03-3.6.06-5.38-.24-2.29-.81-4.68-.45-7.03-.51-6.95-.02-13.74-1.3-20.5-2.68-3.99-.82-7.97-1.66-12.03-2.07-6.05-1.98-12.46-2.45-18.55-4.26-2.37-.7-4.89-1.12-6.63-3.16Z" style="fill: #d0462a; stroke-width: 0px;"/>
  <path d="M498.16,63.12c3.92,1.37,8.06.89,12.08,1.41,8.11,1.04,16.28,1.6,24.43,2.37.11.01.29.07.3.14.05.21.03.42.04.64-7.93,1.46-15.9,2.3-23.97,1.43-5.29-.27-10.37.63-15.24,2.72-2.47,1.06-5.06,1.19-7.69.93-7.26-.71-14.51-1.6-21.79-2.09-11.73-.8-23.44-1.8-35.14-2.94-8.01-.78-16.07-1.11-24.1-1.64-1.95-3.45-2.63-7.13-2.04-11.05.4-.58.99-.83,1.65-.97.86-.14,1.71-.07,2.56.11,2.62.81,5.34.21,8,.54.42.04.83.12,1.24.22,5.19.49,10.36,1.24,15.58,1.23.41.02.81.1,1.21.19,2.49.92,5.12.26,7.66.68.39.05.78.14,1.16.24,2.51.69,5.1.11,7.63.45.4.04.79.12,1.18.22,2.55.71,5.16.29,7.74.37.99-.04,1.98.03,2.97.03,2.17-.08,4.24.46,6.33.92.38.07.74.17,1.11.28,2.03.64,4.14.16,6.2.47.39.04.77.12,1.14.22,2.05.62,4.16.94,6.26,1.31.36.04.73.09,1.09.13,4.14.45,8.34.47,12.42,1.43Z" style="fill: #1f4eab; stroke-width: 0px;"/>
  <path d="M478.19,60.98c-.35-.04-.7-.08-1.05-.12-2.07-.98-4.36.18-6.44-.69l-.25-.08c-1.35-.45-2.22-1.38-3.02-2.55-13.7-20.01-31.18-35.69-53.12-46.26-2.69-1.3-5.42-2.54-7.98-4.07-2.44-1.45-4.9-3.03-5.4-6.22,4.04-2.03,8.05-.4,11.92.39,12.72,2.58,23.59,9.08,33.54,17.07,14.61,11.73,26.2,26.08,35.44,42.35-1.18.78-2.41.48-3.65.19Z" style="fill: #d5d8da; stroke-width: 0px;"/>
  <path d="M92.26,378.33c-6.68-3.33-7.49-9.7-7.37-15.9.81-42.89.68-85.79.57-128.68-.02-6.07-.73-12.15-.74-18.25,0-2.35-.84-4.71-2.68-6.39-2.53-2.32-2.96-5.39-3.21-8.49-1.08-13.8-.74-27.63-.78-41.45-.02-5.61-.06-11.23.04-16.84.04-2.32.16-4.79,2.97-5.77,0,20.08-.04,40.16.02,60.24.01,3.82.45,7.62,5.28,8.58,1.02.2,1.39.88,1.46,1.87.2,3.1.63,6.19.63,9.29.07,48.64.09,97.28.13,145.92,0,3.38.27,6.7,2.65,9.46,2.45,2.84,6.05,2.57,9.18,3.51,4,1.21,8.28,1.32,12.15,3.05-6.77.53-13.55,1.78-20.31-.13Z" style="fill: #bf260f; stroke-width: 0px;"/>
  <path d="M405.44,55.04c.54,3.68,1.09,7.36,1.63,11.04.2,1.27.39,2.53.59,3.8-.1,2.77.21,5.51.75,8.22,1.7,3.61,1.55,7.56,1.8,11.37.67,10.57.87,21.16,1.63,31.72.11,1.5.34,2.97.53,4.45-.13,1.8,1,2.9,2.09,4.12,1.1,1.23,2.58,2.49,1.45,4.5.07,1.83-.62,3.34-2.49,3.62-2.19.33-3.84-.89-4.92-2.73-2.17-3.71-3.32-7.85-3.73-12.03-1.22-12.32-1.91-24.7-3.15-37.02-2.03-20.07-3.58-40.25-10.47-59.48-2.15-6.01-5.36-11.45-8.97-16.67.53-.24,1.05-.49,1.58-.73,4.62,3.02,7.96,7.35,11.58,11.4,4.45,9.55,8.49,19.24,10.11,29.74.24,1.54,1.05,3.11,0,4.67Z" style="fill: #d5d7da; stroke-width: 0px;"/>
  <path d="M304.12,46c-1.84,5.37-6,9.45-8.1,14.68-1.41,1.39-3.11.72-4.55.36-8.68-2.14-17.17-.95-25.63,1.18-9.33,2.17-18.03,5.99-26.61,10.13-1.61.78-3.1,2.18-5.16,1.44.47-5.22,1.46-10.35,2.84-15.39,1.42-5.18,3.37-6.63,8.77-6.92,10.58-.57,21.17-1.03,31.75-1.67,4.47-.27,8.88-.96,13.03-2.89,4.4-2.04,9.08-.91,13.66-.91Z" style="fill: #1c62bf; stroke-width: 0px;"/>
  <path d="M265.24,61.53c9.53-3.49,19.2-3.25,28.94-1.09.6.13,1.22.16,1.84.23,4.99,1.33,9.97,2.72,15.16,3.09,8.94.31,17.67,1.59,24.42,8.09,6.74,6.49,6.54,16.2.08,23.08-4.79,5.1-10.38,8.82-17.27,10.41-7.54,2.11-14.99,4.56-22.82,5.48-.99.12-1.96.38-2.96.25-.74-.09-1.62-.21-1.82-1.02-.27-1.09.13-1.96,1.42-2.11.27,0,.54,0,.81,0,1.25-1.17,2.85-1.4,4.45-1.66,5.51-.91,10.93-2.21,16.2-4.07,5.97-1.92,11.52-4.61,16.44-8.58,8.63-6.96,7.1-17.8-3.34-21.74-8.37-3.15-16.86-2.37-25.21.48-4.13.98-8.1,2.45-12.11,3.82-1.67.86-3.44,1.24-5.31,1.25-.85.17-1.53.77-2.47.73-13.93-.56-27.78,1.38-41.7,1.52-6.56.07-13.11,1.15-19.71,1-1.22-.03-2.49.3-3.67-.32-2.53-.29-5.07-.58-7.6-.87,3.86-1.06,7.83-.39,11.73-.78,2.43-.24,4.94.02,7.19-1.21,10.13-1.6,20.38-1.34,30.56-2.05,6.6-.46,13.19-.78,19.81-.8,2.95,0,5.57-1.34,8.19-2.5,5.9-2.61,12.18-3.61,16.99-4.54-11.38,3.89-23.27-2.34-35.63-3.6-1.35-.14-2.78-.59-2.61-2.5Z" style="fill: #df735d; stroke-width: 0px;"/>
  <path d="M394.88,20.35c-2.69,0-3.09-2.59-4.38-4.06-2.15-2.45-5.22-4.02-6.74-7.05,4.78-4.71,10.24-8.02,17.18-8.25,2.36,3.15,5.3,5.49,8.94,7.09,18.43,8.09,34.12,19.96,47.58,34.83,4.83,5.34,8.83,11.34,13.01,17.19-2.23-.3-4.46-.6-6.68-.9-1.78-.69-2.45-2.4-3.46-3.79-10.56-14.49-23.22-26.54-39.66-34.2-5.14-2.39-10.44-3.8-16.21-3.67-3.54.08-6.32,2.09-9.57,2.81Z" style="fill: #8f92a6; stroke-width: 0px;"/>
  <path d="M265.24,61.53c.5.95,1.23,1.49,2.35,1.58,9.64.72,18.84,3.99,28.5,4.81,3.41.29,6.43-1.59,10.62-.71-9.09,1.94-17.01,4.75-24.8,7.93-1.01.41-2.17.73-3.24.67-8.71-.5-17.4.41-26.04,1.03-6.53.47-13.15-.29-19.64,1.16-1.57.35-3.47.65-5.05-.49,2.05-1.24,4.09-2.49,6.14-3.73,8.55-4.04,16.99-8.34,26.09-11.08,1.66-.5,3.38-.79,5.07-1.17Z" style="fill: #c85a49; stroke-width: 0px;"/>
  <path d="M70.46,107.42c8.04,3.24,16.8,3.76,24.97,6.52-1.19,1.56-2.95,1.66-4.67,1.87-2.5-.3-5.05,1.17-7.51-.22-4.74.06-9.38.91-14.01,1.79-2.98.56-5.95.83-8.85-.15-4.98-1.67-9.29-.64-13.11,2.85-7.53-.76-14.8-2.93-22.25-4.08-7.08-1.09-14.04-3.13-21.31-2.82,5.19-2.09,10.77-1.55,16.14-1.96,15.11-1.15,30.26-1.69,45.39-2.51,1.79-.1,3.75.22,5.22-1.3Z" style="fill: #be8a73; stroke-width: 0px;"/>
  <path d="M142.44,116.33c-.1,1.1-.8,1.42-1.8,1.44-14.54.23-28.82-.69-42.14-7.59-5.82-3.02-9.79-7.92-10.17-13.72-.34-5.2,2.85-10.41,7.64-13.86,2.84-2.05,6.07-3.31,9.44-4.8-12.53-1.04-24.41-4-36.37-6.47,8.16-3.23,16.52-2.18,24.87-1.06,1.72.23,3.39.67,5.13.35.42.62,1.02.66,1.67.54,2.09-.93,4.18-.23,6.19.21,6.65,1.47,13.33,2.76,20,4.09,1.6.32,3.14.71,4.34,1.91,5.12,2.55,10.88,3.13,16.14,5.23,3.34,1.33,6.72,2.55,10.06,3.86.77.3,1.58.67,1.69,2-7.29-2.3-14.3-5.07-21.6-6.9-8.23-2.07-16.54-3.16-25.04-2.7-2.11.12-4.16.36-6,1.51-.57,1.53-2.09,1.6-3.29,2.16-1.45.24-1.77,1.73-2.74,2.5-4.54,1.02-6.67,4.39-8.05,8.4-1.32,3.86-.06,7.06,2.73,9.81.62.61,1.28,1.18,1.96,1.73,9.73,5.22,19.86,8.92,31.05,9.66,4.75.31,9.7-.26,14.28,1.71Z" style="fill: #dd745d; stroke-width: 0px;"/>
  <path d="M295.33,374.72c1.15-1.88.53-3.99.76-5.98-.03-1.09.47-1.81,1.47-2.21,1.57-.54,3.2-.45,4.81-.45,18.43.02,36.81-1.22,55.2-2.15,6.34-.32,12.69-.03,19.03-.69,1.83-.19,5.08-.77,4.1,3.23-.3.68-.6,1.37-.91,2.05-4.7,2.04-9.76,1.92-14.69,2.24-18.65,1.21-37.31,2.18-55.97,3.24-4.6.26-9.2.49-13.81.74Z" style="fill: #d68c38; stroke-width: 0px;"/>
  <path d="M188.05,59.43c-14.89.62-29.78.8-44.65,2.02-8.06.66-16.25.6-24.3-.1-3.68-.32-7.29-2.3-11.23-2.07,4.98-1.26,10.12-.81,15.16-1.12,17.63-1.1,35.28-1.73,52.93-2.56,4.52-.21,8.58.91,12.09,3.83Z" style="fill: #d26d5c; stroke-width: 0px;"/>
  <path d="M430.9,372.55c5.78-.25,11.5.23,17.15,1.49-5.75-.11-11.49-.37-17.15-1.49Z" style="fill: #276cc5; stroke-width: 0px;"/>
  <path d="M498.16,63.12c-4.17-.26-8.35-.36-12.42-1.43,5.29-.25,10.5.39,15.69,1.28-1.09.05-2.18.1-3.27.15Z" style="fill: #8f92a6; stroke-width: 0px;"/>
  <path d="M505.15,379.41c2.94-.01,5.88-.03,8.82-.04-2.94.89-5.88.7-8.82.04Z" style="fill: #2f9be4; stroke-width: 0px;"/>
  <path d="M456.24,374.84c2.78.12,5.65-.84,8.31.69-2.79,0-5.59.13-8.31-.69Z" style="fill: #276cc5; stroke-width: 0px;"/>
  <path d="M487.73,377.82c2.77.17,5.64-.88,8.29.69-2.78.02-5.58.18-8.29-.69Z" style="fill: #276cc5; stroke-width: 0px;"/>
  <path d="M448.11,374.06c2.49.2,5.09-.84,7.44.71-2.51.04-5.03.21-7.44-.71Z" style="fill: #276cc5; stroke-width: 0px;"/>
  <path d="M472.06,376.29c2.5.15,5.09-.77,7.47.66-2.51-.01-5.04.23-7.47-.66Z" style="fill: #276cc5; stroke-width: 0px;"/>
  <path d="M478.19,60.98c1.22-.06,2.43-.13,3.65-.19.92.31,2.07-.22,2.81.76-2.18.08-4.38.45-6.46-.57Z" style="fill: #8f92a6; stroke-width: 0px;"/>
  <path d="M480.31,377.04c2.25.17,4.61-.75,6.71.71-2.27.02-4.55.2-6.71-.71Z" style="fill: #276cc5; stroke-width: 0px;"/>
  <path d="M496.7,378.57c2.28.08,4.64-.73,6.79.63-2.29.06-4.59.23-6.79-.63Z" style="fill: #276cc5; stroke-width: 0px;"/>
  <path d="M465.19,375.6c2.04.08,4.19-.8,6.09.63-2.06.04-4.13.24-6.09-.63Z" style="fill: #276cc5; stroke-width: 0px;"/>
  <path d="M224.08,286.13c0,16.47,0,32.94,0,49.41,0,10.2-.53,20.37-1.47,30.52-.44,4.78-2.3,6.26-7.21,6.47-16.5.68-33.03,1.15-49.49,2.4-7.05.54-14.13.25-21.18,1.19-4.25.57-5.93-1.45-6-5.66-.27-17.56-.66-35.12-.73-52.68-.12-31.32-.04-62.63-.03-93.95,0-6.28,2.29-8.41,8.51-8.67,15.52-.66,31.05-1.17,46.53-2.39,7.19-.57,14.39-.37,21.57-1.17,5.69-.64,8.27,2.47,8.82,8.35,1.37,14.69.4,29.4.66,44.09.13,7.36.02,14.72.02,22.08h-.02Z" style="fill: #e5ad69; stroke-width: 0px;"/>
  <path d="M227.76,138.83c.04,1.47.08,2.95.12,4.42,0,17.84-.14,35.69.04,53.53.08,8.08-1.71,7.84-8.11,8.53-5.41.58-10.92.61-16.37.74-8.71.21-17.4.81-26.1,1.07-11.17.34-22.32,1.36-33.51,1.33-6.6-.02-8.49-1.99-8.88-8.65-.92-15.81-.67-31.63-.73-47.45,0-1.61-.01-3.19-.41-4.82-1.15-4.79.36-6.91,5.22-7.21,9.42-.59,18.86-.88,28.27-1.58,14.25-1.06,28.51-1.61,42.78-2.34,3.96-.2,7.93-.41,11.89-.66,2.72-.17,4.56.77,5.79,3.11Z" style="fill: #e5af6d; stroke-width: 0px;"/>
  <path d="M142.44,116.33c-8.81,0-17.65-.29-26.17-2.49-6.32-1.64-12.53-3.9-18.43-6.82-.81-.4-1.32-1.42-1.97-2.15.8-3.29,3.27-3.65,6.06-3.47,6.05,1.36,12.18,2.32,18.22,3.73-2.66-.69-4.89-2.21-7.21-3.57-5.17-3.15-8.99-7.56-11.82-12.85-.61-1.14-1.53-2.32-.69-3.77.14-1.53.26-3.07,2.36-3.11,3.14,9.54,10.19,15.1,19.16,18.62,4.06,1.59,8.29,2.72,12.51,3.85,1.34.36,3.35.64,2.91,2.66-.37,1.68-2.14,1.87-3.68,1.93-1.62.06-3.18-.65-4.88-.1,3.57,1.35,7.35,1.86,11.15,1.94,10.35.22,20.58,1.88,30.9,2.47,2.05.12,4.65.48,4.31,3.49-.54,4.73-.71,5.72-4.52,5.74-2.97.01-5.97.12-9.24.25,5.09-.02,9.85-.05,14.6-1.17,3.48-.82,6.68,1.58,9.78,1.53-.84-.61-2.31-.31-3.66-.57-2.86-.53-3.97-2.17-3.69-5.04.29-2.99,2.19-3.71,4.7-3.53,3.85.28,7.77.43,11.48,1.49,3.45.98,6.9.72,10.36.99,1.38.11,2.64.22,1.76-1.88-.39-.91.14-2,.98-2.15,4.02-.72,8.04-2.78,12.14-.3-.26,2.4-2.1,3.47-3.41,4.28.6-.39,1.76-.93,3.03-.84,10.12.72,20.16-.67,30.22-1.2,6.96-.37,13.95-.35,20.91-1.12,3.39-.38,7.42-1.25,9.37,3.18-1.9,2.37-3.43,2.81-9.27,2.69-.48-.15-.32.57-.21.08.83.18,1.75.11,2.32.93.75,1.44.12,2.05-1.31,2.23-1.96.24-3.93.79-5.86.69-6.96-.35-13.84.94-20.77.8-6.94-.14-13.82,1.26-20.77.79-1.53-.1-2.92.38-4.1,1.79,2.58,1.62,4.81,3.52,5.65,6.55-12.19-3.93-24.86-4.68-37.5-5.51-12.61-.83-25.07-3.84-37.74-3.4-16.14.56-32.26,1.81-48.39,2.77-3.97.24-7.94.49-11.91.74,1.02-3.33,4.07-2.85,6.45-3.14,4.07-.5,8.19-.42,12.3-.7,10.06-.67,20.13-1.18,30.2-1.63,3.85-.17,7.62-.99,10.54-.91-1.13.08-3.18,0-5.23.02-1.28-.14-2.62.01-3.81-.67-.41-.28-.55-.65-.41-1.13,6.81-1.49,13.83-.04,20.64-1.54.96-.21,2.34-.13,2.25-1.36-.1-1.39-1.56-.8-2.44-.88-6.07-.51-12.07.81-18.13.74Z" style="fill: #b91e0f; stroke-width: 0px;"/>
  <path d="M144.06,120.11h10.62c-3.87,2.51-8.16,2.54-12.3,2.8-15.24.95-30.49,1.58-45.73,2.46-2.29.13-4.74.32-6.57,2.14-2.24,1.02-5.03.82-6.74,3.01-.9.32-1.79.64-2.85,1.01-.2-3.76,3.33-4.73,5.05-6.98,1.13-1.76,3.01-2.12,4.83-2.43,3.42-.59,6.86-1.01,10.36-1.01,9.53,0,19.05-.44,28.54-1.27,3.59-.31,7.18.17,10.76.46,1.35.11,2.7.38,4.02-.19Z" style="fill: #e2664a; stroke-width: 0px;"/>
  <path d="M511.03,69.1c1.91-.56,3.86-.71,5.85-.76,6.04-.15,12.08-.44,18.12-.67-2.03,2.63-5.1,1.91-7.72,2.09-3.6.25-7.14.34-10.68,1.31-3.31.91-4.56,2.65-4.06,5.92.93,5.99,1.93,11.97,2.72,17.98.94,7.12,1.67,14.26,2.51,21.4,1.07,9.1,2.17,18.2,3.24,27.3.93,7.87,1.83,15.74,2.75,23.6,1.2,10.2,2.42,20.4,3.59,30.6,1.08,9.35,2.07,18.71,3.16,28.06,1.14,9.83,2.49,19.65,3.5,29.49.61,6.04.97,12.1,1.65,18.14,2.03,18.03,3.5,36.1,3.1,54.28-.17,7.67-1.59,15-5.1,21.89-1.42,2.78-3.63,4.72-6.19,6.26-2.74,1.66-4.99.88-6.73-2.34-2.83-5.24-3.68-11.08-4.4-16.84-1.68-13.26-3.15-26.56-4.48-39.86-.76-7.65-.67-15.4-1.7-23-.9-6.6-.33-13.27-1.83-19.86-.79-3.49-.61-7.3-.89-10.96-.87-11.52-.88-23.11-1.73-34.63-1.02-13.88-1.48-27.78-2.28-41.67-.52-9.05-.92-18.11-1.46-27.16-.85-14.39-1.47-28.78-2.37-43.16-.36-5.67.15-11.46-1.29-17.06-.25-.97.51-2.62-1.25-2.57-1.41.04-.96,1.5-1.02,2.41-.07,1-.36,1.69-1.46,1.8-.17-.85-.29-1.71-.53-2.54-.86-2.97-.14-4.49,3.14-5.67,4.54-1.64,9.29-2.29,13.83-3.79Z" style="fill: #1897e5; stroke-width: 0px;"/>
  <path d="M583.71,290.98c-.09,5.27.46,10.15-1.38,14.84-.92,2.34-2.22,3.99-4.8,4.72-1.76.49-2.86-.07-3.98-1.17-7.45-7.27-10.82-16.65-14.07-26.23-5.67-16.74-9.19-34.03-13.33-51.14-3.96-16.36-6.88-32.97-9.72-49.58-2.85-16.6-5.71-33.19-8.35-49.82-2.59-16.38-5.36-32.73-8.09-49.09-.31-1.83-.95-3.6-1.32-5.42-.8-3.97.24-5.94,4.14-6.46,8.12-1.09,16.28-2.06,24.5-1.73,4.31.17,4.95,3.81,5.63,6.86,4.1,18.39,6.67,37.05,9.75,55.61,3.55,21.38,7.01,42.77,9.88,64.26,1.95,14.6,4.69,29.1,6.49,43.71,1.55,12.53,3.2,25.06,4.04,37.69.3,4.47.52,8.92.62,12.96Z" style="fill: #62a9e6; stroke-width: 0px;"/>
  <path d="M547.81,67.56c-1.96,2.77-4.6,1.18-7.02.99,2.15-1.53,4.69-.58,7.02-.99,0,0,0,0,0,0Z" style="fill: #1897e5; stroke-width: 0px;"/>
  <path d="M144.06,120.11c-.69.69-1.57.64-2.45.67-14.68.51-29.35.97-44.03,1.57-4.09.17-8.16.75-12.04,2.19-3.97.18-7.88-.05-11.63-1.51-1.11-.43-2.8-.55-2.82-1.96-.02-1.77,1.67-2.11,3.15-2.55,3.03-.89,6.01-1.95,9-2.94,2.44-.39,4.86-1.05,7.38-.72,2.23,1.54,4.86,1.85,7.42,2.35,9.34,1.83,18.84,1.76,28.29,2.05,4.6.14,9.19.15,13.76.69,1.32.05,2.64.11,3.96.16Z" style="fill: #cc2b15; stroke-width: 0px;"/>
  <path d="M380.71,366.46c.14-1.9-.99-2.48-2.57-2.18-7.84,1.5-15.85-.05-23.7,1.32-1.21.21-2.48.19-3.72.14-9.06-.37-18.11.5-27.12.99-8.94.48-17.85.29-26.77.42-1.43-1.38-1.27-3.21-1.23-4.92.46-22.7-1.13-45.37-.82-68.07.22-16.09.2-32.18-.02-48.27-.12-8.75.98-17.43.85-26.16-.02-1.39.19-2.74,1.11-3.88-.13-2.85.97-5.43,1.69-8.1,2.33-1.65,4.97-1.87,7.76-2.04,12.04-.73,24.09-1.26,36.13-1.94,10.31-.58,20.62-1.05,30.92-1.7,3.59-.22,6.93.66,9.46,3.52.77,1.51.72,3.14.72,4.76,0,43.48.06,86.96-.01,130.44-.2,2.93.11,5.86-.02,8.8-.07,1.47-.05,2.95-1.07,4.17-.46,4.24.08,8.6-1.6,12.69Z" style="fill: #e5ae67; stroke-width: 0px;"/>
  <path d="M382.3,353.77c.01-4.23.02-8.46.03-12.69,8.31-.05,15.66-3.84,23.33-6.25,5.57-1.74,11.01-3.99,16.48-6.1,7.66-2.95,11.58-8.91,14.12-15.96,2.6-7.19,3.12-14.8,3.36-22.46.57-17.92,1.01-35.86,2.33-53.75.86-11.67,1.34-23.41,3.09-34.95,1.38-9.15.72-18.33,1.64-27.48.97-9.61-3-20.04-15.9-22.87-2.07-.45-4.09-1.11-6.07-1.88-2.44-.95-4.36-2.41-4.97-5.14.09-2.53.54-4.95,2.25-6.96,4.69.85,6.51-2.9,8.85-5.66,4.82-5.67,10.8-6.56,17.09-2.44,4.87,3.19,8.02,7.56,10,13.05,3.33,9.25,6.06,18.67,7.77,28.31.76,4.3.32,8.81.24,13.23-.12,6.72-1.47,13.2-2.13,19.79-.92,9.11-1.35,18.26-2.62,27.36-.85,6.09-2.08,12.25-1.84,18.49.29,7.48-1.89,14.81-1.5,22.27.43,8.12-.26,16.26-1.01,24.23-1.4,14.78-4.9,28.99-16.04,40.33-5.59,5.69-11.33,10.53-19.14,12.1-7.15,1.43-14.46,2.06-21.67,3.19-5.87.92-11.66,2.46-17.68,2.22Z" style="fill: #1f4eab; stroke-width: 0px;"/>
  <path d="M411.43,126.61c-2.06-16.1-1.94-32.34-3.02-48.51,4.1,3.79,4.11,9.16,5.12,14.01,2.08,9.95,3.5,20.03,3.04,30.23-.09,2.09,1.44,3.4,1.56,5.25-2.13-1.04-4.73,1.12-6.7-.99Z" style="fill: #1f4eab; stroke-width: 0px;"/>
  <path d="M411.43,126.61c2.19.62,4.84-1.89,6.7.99,2.49,2.75,3.92,5.92,3.86,9.69,0,2.33-1.07,4.4-1.62,6.6-.29.7-.68,1.23-1.57.97-.72-1.37-3.18-1.43-2.77-3.66.41-2.32,1.29-4.64-.12-6.93-.21-1.85-1.19-3.25-2.65-4.32-1.15-.84-2.2-1.69-1.83-3.34Z" style="fill: #887f84; stroke-width: 0px;"/>
  <path d="M219.69,111.86c-3.63-.49-7.12,1.02-10.75.81-.87-.05-2.64.33-1.16,1.96.56.62,2.26.42,1.35,1.95-.64,1.07-1.77,1.34-2.96,1.18-4.57-.62-9.21-.46-13.76-1.57-3.21-.78-6.57-.99-9.88-1.35-1.37-.15-3.28-.11-3.14,1.67.14,1.74-1.41,4.48,1.98,5.14,2.29.45,4.54,1.07,6.78,2.01-9.62-2.8-19.36.41-29.02-1.02,4.02-.64,8.13-.55,12.16-.9,4.48-.38,1.49-3.87,3-5.57,1.1-1.24-1.93-1.97-3.06-1.96-6.36.05-12.59-1.2-18.89-1.71-7.77-.63-15.63-.31-23.28-2.18-1.28-.31-3.17-.36-2.86-2.19.38-2.22,2.25-.66,3.41-.77,2.4-.22,5.02,1.93,7.63-1.05-4.98-1.51-9.69-2.81-14.31-4.38-8.67-2.95-15.64-8.01-19.98-16.35-.74-1.41-.98-2.45-.19-3.75,1.24-.49,2.48-.98,3.72-1.47,22.22-2.97,42.01,4.87,61.52,13.9,1.58.73,3.11,1.58,4.7,2.28,3.42,1.5,6.46,1.31,9.74-1.02,7.18-5.09,14.37-10.26,23.23-12.26,7.98-1.79,14.11,1.62,16.94,9.42,1.66,4.58,1.82,9.19.81,13.89-.03,2.63-.68,4.83-3.76,5.29Z" style="fill: #aa0c05; stroke-width: 0px;"/>
  <path d="M219.69,111.86c2.16-1.12,2.6-3.46,3.76-5.29,2.58,3.05,6.22,2.73,9.36,2.09,6.04-1.23,12.15-.68,18.2-1.11,8.16-.58,16.37-1.48,24.6-1.02,4.1.23,8.12-1.08,12.26-.78,1.87.14,3.46.35,4.37,2.19-.57.51-1.2,1.18-.8,1.88.52.91,1.57.43,2.35.3,7.27-1.24,14.54-2.53,21.51-5.05,1.16-.42,2.32-.86,3.6-.65-.02.93-.77,1.71-.5,2.69,1.13,5.08,1.14,5.45-4.1,5.57-7.72.17-15.38,1.32-20.81,1.06,10.87-.29,23.99-1.52,37.16-1.76,3.14-.06,6.81-1.2,9.01,2.51-1.1,1.66-2.85,1.27-4.42,1.35-15.8.81-31.62,1.04-47.41,2.26-2.77.21-5.75.88-8.3-1.07-.42-2.96-3.02-2.96-4.87-2.88-11.35.52-22.68,1.68-34.02,1.87-6.77.11-13.52,1.94-20.3.36-1.6-.37-2.99,1.34-4.8.18,1.43-1.61,2.8-3.16,4.17-4.71Z" style="fill: #df401e; stroke-width: 0px;"/>
  <path d="M247.47,102.07c-5.85-.52-11.62.74-17.46.79-3.15.03-4.32-1.55-4.33-4.28,0-2.39-1.06-5.01,3.21-5.72,5.93-.98,11.86-.55,17.78-1.08,12.45-1.11,25-1.17,37.51-1.73,2.96-.13,5.87-1.01,8.87-.74,2.6,2.33,2.41,5.41,2.03,8.4-.22,1.75-1.94,1.96-3.43,2.14-.31.02-.62.03-.93.05-4.65.87-9.41-.36-14.06.68l-.15.08c-4.66.86-9.42-.37-14.07.66-.31.02-.62.05-.94.07-4.65.87-9.4-.36-14.05.68Z" style="fill: #e78b74; stroke-width: 0px;"/>
  <path d="M291.66,99.85c3.52-1.27,3.04-3.84,2.21-6.59-.38-1.28-.55-2.63-.81-3.95,0,0,.02.02.02.02.88-1.47,1.77-2.91,3.88-2.31,1.08,1.58,2.52,2.66,4.22,3.56,4.8,2.54,8.87,5.98,12.12,10.36.42.57,1.13,1.04.75,1.93-6.65,3.14-13.85,3.97-20.99,5.08.23-1.32.46-2.64.69-3.97.32-1.88,0-3.44-2.07-4.12Z" style="fill: #c74c3e; stroke-width: 0px;"/>
  <path d="M131.24,77.37c-10.18-2.07-20.36-4.15-30.53-6.22,2.92-8.99,7.76-11.15,16.07-6.6,5.72,3.14,11.13,6.87,14.46,12.82Z" style="fill: #a80d05; stroke-width: 0px;"/>
  <path d="M296.69,87.01c-1.21.77-2.41,1.55-3.62,2.32-.8-3.74-2.79-6.83-5.21-9.7-.37-1.74.06-3.18,1.55-4.23,3.88-1.06,7.35-3.6,11.64-3.19,1.66.69,1.79,2.2,1.91,3.67.35,4.25-2.47,9.22-6.27,11.13Z" style="fill: #c5c0c1; stroke-width: 0px;"/>
  <path d="M216.61,80.37c16.12-.33,32.18-1.98,48.3-2.46,5.44-.16,10.89-.67,16.34-.33,1.51.09,2.43-1.36,3.87-.87.33.42,1.02.74.39,1.42-3.78.94-7.65.6-11.48.73-17.72.59-35.4,2.18-53.14,2.21-1.43,0-3.01.54-4.26-.71Z" style="fill: #c85a49; stroke-width: 0px;"/>
  <path d="M262.45,101.32c4.63-1.6,9.38-.45,14.07-.66-4.63,1.44-9.39.29-14.07.66Z" style="fill: #c74c3e; stroke-width: 0px;"/>
  <path d="M247.47,102.07c4.62-1.6,9.37-.43,14.05-.68-4.62,1.47-9.37.29-14.05.68Z" style="fill: #c74c3e; stroke-width: 0px;"/>
  <path d="M276.67,100.58c4.62-1.6,9.37-.44,14.06-.68-4.63,1.47-9.38.29-14.06.68Z" style="fill: #c74c3e; stroke-width: 0px;"/>
  <path d="M285.51,78.14c-.13-.47-.26-.95-.39-1.42,1.43-.44,2.87-.88,4.3-1.32-.64,1.37-.47,3.03-1.55,4.23-.79-.5-1.57-.99-2.36-1.49Z" style="fill: #374f9c; stroke-width: 0px;"/>
  <path d="M296.72,215.86c.11,14.44-.91,28.85-.73,43.29.27,21.06-.42,42.15.24,63.2.47,14.94.31,29.87.6,44.8-.05.62-.14,1.22-.74,1.58-1.25-.69-2.6-.82-3.99-.73-11.63.73-23.26,1.58-34.9,2.17-8.69.44-17.4.52-26.1.84-3.52.13-3.25-2.23-3.25-4.53,0-24.95,0-49.9,0-74.84,0-22.33,0-44.66.02-66.98,0-4.88.79-5.54,5.98-5.74,11.79-.46,23.59-.75,35.36-1.58,9.17-.64,18.33-1.17,27.51-1.48Z" style="fill: #e5795c; stroke-width: 0px;"/>
  <path d="M299.02,204.66c-10.26,1.02-20.57,1.14-30.86,1.66-10.66.54-21.31,1.26-31.99,1.46-3.7.07-4.66-1.24-4.63-4.76.15-16.21-.07-32.42.12-48.63.07-6-.84-11.91-.84-17.88.24-2.82,2.65-2.32,4.26-2.49,6.04-.63,12.11-.86,18.17-1.17,14.35-.73,28.7-1.34,43.03-2.43.89-.07,1.73.04,2.53.45,1.28.95,1.28,2.51,1.82,3.82,1.84,8.52,1.43,17.2.88,25.75-.66,10.24-.32,20.45-.55,30.68-.05,2.12.09,4.25-.3,6.35-1,2.3.21,5.11-1.67,7.21Z" style="fill: #e67d61; stroke-width: 0px;"/>
  <path d="M299.03,131.33c-15.37.82-30.74,1.67-46.12,2.4-6.28.3-12.66.14-18.92,1.25-1.27.23-2.49.21-3.16,1.52-1.27-1.39-.53-2.33.83-2.82,1.27-.46,2.67-.91,3.99-.83,5.87.36,11.66-.67,17.49-.9,13.39-.51,26.76-1.44,40.13-2.16,1.37-.07,2.51-.47,3.09-1.69.65-1.38-.79-1.89-1.39-2.74-.97-1.37-2.48-1.56-3.94-1.84-6.08-1.17-12.15-2.31-18.23-3.47-1.51-.34-3.01-.68-4.81-1.09,4.1-.69,7.82-1.31,11.53-1.94,15.23-.71,30.46-1.45,45.69-2.11,3.48-.15,6.97-.01,10.45-.09,1.32-.03,2.77.44,3.87-.76,1.65-.58,1.94.18,1.58,1.59-3.63,2.17-7.99,1.05-11.86,2.3.31,1.9,1.9,2.18,2.86,3.07,1.68,1.55,2.68,3.38,1.93,5.66-.7,2.14-2.66,2.41-4.56,2.6-7.68.77-15.38,1.24-23.08,1.54-2.46.09-4.84,1.5-7.36.49Z" style="fill: #d57d36; stroke-width: 0px;"/>
  <path d="M299.02,204.66c.33-2.24-.7-4.63.77-6.74,17.46.9,34.82-1.02,52.23-1.73,9.96-.41,19.91-.93,29.85-1.54,3.52-.22,6.67-2.18,10.25-1.72,2.22,3.41.22,7.63-4.58,9.08-2.21.67-4.14,1.47-5.41,3.46-8.17-4.64-16.83-1.3-25.19-1.13-5.99.12-12.09.16-18.14.92-7.47.95-15.13.36-22.64,1.07-5.91.56-11.9.04-17.73,1.42.84-.91,1-1.95.61-3.1Z" style="fill: #dd9039; stroke-width: 0px;"/>
  <path d="M317.17,105.62c.57-.4,1.14-.79,1.72-1.19,6.62-2.16,12.44-5.59,16.92-11.02,6.15-7.45,4.6-17.31-3.46-23.05-5.06-3.6-11.04-4.26-16.82-5.58-1.45-.33-2.9-.67-4.34-1.01,3.19-5.61,6.7-10.99,11.11-15.74,1.66-.84,3.41-1.01,5.22-.71.39.05.77.14,1.14.24,2.63.74,5.35.07,8,.53.39.05.77.13,1.14.24,2.69.67,5.45.08,8.15.42.39.03.78.11,1.16.21,2.66.86,5.43.16,8.12.6.39.05.76.13,1.13.24,2.42.7,4.92.14,7.36.45.37.04.73.11,1.09.2,1.91.64,3.85.67,5.79.14.36-.11.73-.18,1.1-.23,2.48.02,4.91.63,7.39.7,1.89.5,3.84.58,5.77.8.41.06.8.16,1.2.29,3.81.04,5.56,2.18,6,5.76.87,7,2.79,13.89,2,21.05-1.7,2.26-3.37.59-4.88-.18-4.76-2.43-5.61-2.22-9.1,1.9-4.43,5.22-9.36,9.99-13.93,15.1-1.76,1.97-3.58,3.89-4.39,6.43-1.93,5.98-6.26,9.09-12.11,10.46-1.33.31-2.56,1.01-3.97,1.02-7.58-3.45-15.8-4.42-23.84-6.1-1.67-.35-3.53-.35-4.69-1.97Z" style="fill: #1b4eaa; stroke-width: 0px;"/>
  <path d="M347.03,49.68c-.28-.03-.57-.05-.85-.08-2.89-1-5.96.3-8.85-.74l-.13-.02c-2.9-.94-5.96.24-8.87-.68l-.18-.03c-1.57-1.05-3.55.34-5.09-.87,4.49-6.76,11.12-11.25,17.19-16.35,3.84-4.82,9.47-6.61,14.86-8.8,1.14-.46,2.4-.64,3.58-1.03,3.23-.88,6.48-1.28,9.81-.69,1.78.44,3.64.63,5.29,1.51,1.24.66,2.29,1.48,2.18,3.1-1.9,7.69-3.66,15.4-4.02,23.36-.05,1.01-.3,1.96-1.08,2.68h.01c-1.93.77-3.89.57-5.85.13l-.91-.09c-2.64-.96-5.47.27-8.11-.72h-.09c-2.91-1.03-5.99.22-8.9-.69Z" style="fill: #fefefe; stroke-width: 0px;"/>
  <path d="M375.32,24.85c-1.09-3.24-4.62-2.12-6.64-3.71-3.51-.51-7.08-1.72-10.34.86-6.42,2.19-12.58,4.9-18.1,8.91.15-2.15,1.93-3.18,3.28-4.35,6.9-5.95,14-11.54,23.38-13.2,4.79-.85,8.46,1.12,11.84,4.01,6.24,5.33,9.21,12.71,11.46,20.21,3.86,12.85,5.76,26.09,7.06,39.45,1.22,12.59,1.99,25.21,3.01,37.81.46,5.65,1.18,11.32,2.85,16.83,1.77,5.86,4.63,10.44,11.19,11.57-1.23,2.92-2.81,3.23-6.98,1.39-5.23-4.2-7.69-9.94-8.87-16.32-1.29-6.95-2.17-13.95-2.35-21.03-.1-3.84-.39-7.67-1.86-11.28-.96-3.49-1.28-7.04-1.13-10.65.08-1.39.08-2.78-.22-4.16-.05-.62.12-1.17.49-1.67-.04-8.07-1.46-15.97-2.84-23.89-.62-3.56-3.76-1.49-5.23-2.91q3.39-2.05,1.51-8.53c-1.54,2.61.57,5.99-1.8,8.42-1.97,0-4,.5-5.8-.76-1.2-1.28-.84-2.76-.51-4.2.63-2.77,1.32-5.52,2.24-8.22,1.98-5.78,1.22-8.61-3.37-12.7-.73-.65-1.73-.99-2.25-1.89Z" style="fill: #b5a6a7; stroke-width: 0px;"/>
  <path d="M407.64,144.01c2.33.64,4.74,2.06,6.67-.76.57-.68,1.15-1.37,1.72-2.05.66,1.48,3.9.91,2.93,3.69.34,3.95-2.77,4.72-5.44,5.9-5.97.31-10.24-2.94-10.62-8.07,2.04-1.25,3.18.76,4.73,1.3Z" style="fill: #6d2f2b; stroke-width: 0px;"/>
  <path d="M323.06,47.27c1.67.43,3.55-.34,5.09.87-1.96-.04-3.91-.07-5.86-.11.26-.25.51-.51.77-.76Z" style="fill: #8f95ab; stroke-width: 0px;"/>
  <path d="M140.1,119.95c-9.32.03-18.64.2-27.96.03-6.18-.11-12.29-1.18-18.36-2.33-1.48-.28-2.83-1.04-3.16-2.78,1.6-.31,3.2-.61,4.8-.92,6.81-.22,13.17,2.31,19.8,3.23,4.31.59,8.59,1.3,12.95,1.43,2.22.92,4.63-.25,6.85.67,1.7.03,3.4.06,5.1.08.05.2.05.4-.02.6Z" style="fill: #700704; stroke-width: 0px;"/>
  <path d="M135.03,119.27c-2.29-.11-4.66.58-6.85-.67,2.29.16,4.67-.65,6.85.67Z" style="fill: #b91e0f; stroke-width: 0px;"/>
  <path d="M394.88,20.35c6.57-5.76,13.96-4.34,21.17-1.98,10.34,3.39,19.17,9.51,27.21,16.7,7.92,7.09,15.04,14.92,20.52,24.12-1.04.04-2.09.09-3.13.13-2.57-.92-5.32.22-7.9-.63l-1.06-.11c-2.58-.99-5.37.3-7.95-.72l-.23-.04c-2.62-.93-5.4.25-8.02-.66-.32-.04-.64-.08-.96-.11-5.42-.48-10.84-.98-16.27-1.38-.33-.03-.66-.06-.98-.09-1.59-.77-3.29-.11-4.92-.4-1.8-.23-3.55-1.1-5.42-.44-.5.1-.99.2-1.49.3-2.16-11.18-4.8-22.2-10.47-32.23-.48-.85-.46-1.63-.09-2.46Z" style="fill: #fefefe; stroke-width: 0px;"/>
  <path d="M418.26,55.68c5.48-.19,10.91.23,16.28,1.38-5.48.2-10.9-.34-16.28-1.38Z" style="fill: #8f92a6; stroke-width: 0px;"/>
  <path d="M435.49,57.17c2.69.05,5.43-.54,8.02.66-2.7.11-5.42.48-8.02-.66Z" style="fill: #8f92a6; stroke-width: 0px;"/>
  <path d="M443.75,57.86c2.68-.05,5.39-.48,7.95.72-2.67-.04-5.39.53-7.95-.72Z" style="fill: #8f92a6; stroke-width: 0px;"/>
  <path d="M412.15,54.76c1.69.39,3.57-.38,5.12.83-2.71.03-5.44.36-8.07-.59.92-.83,1.94-.5,2.95-.24Z" style="fill: #8f92a6; stroke-width: 0px;"/>
  <path d="M452.75,58.69c2.65.03,5.35-.54,7.9.63-2.66.14-5.34.47-7.9-.63Z" style="fill: #8f92a6; stroke-width: 0px;"/>
  <path d="M470.71,60.17c2.17.04,4.41-.62,6.44.69-2.18.03-4.4.57-6.44-.69Z" style="fill: #8f92a6; stroke-width: 0px;"/>
  <path d="M412.15,54.76c-.98.08-1.97.16-2.95.24-.76-.08-1.51-.16-2.27-.25,1.74-1.11,3.48-.91,5.22.01Z" style="fill: #d5d7da; stroke-width: 0px;"/>
  <path d="M296.69,87.01c3.74-4.26,7.25-8.59,4.36-14.8,1.73-2.82,4.8-2.06,7.3-2.54,6.17-1.2,12.43-1.25,18.38,1.07,4.78,1.86,8.77,4.86,9.82,10.31,1.12,5.81-1.61,10.03-6.01,13.5-4.95,3.9-10.42,6.71-16.51,8.32-4.51-5.35-9.52-10.07-16.03-12.96-1.22-.54-1.21-1.78-1.31-2.9Z" style="fill: #af150f; stroke-width: 0px;"/>
  <path d="M102,102.13c-2.58-.29-4.65.56-6.13,2.73-8.27-4.99-5.09-15.54,2.19-20.24,1.2-.77,1.66-.46,2.36.32,2.39,6.75,6.99,11.7,12.79,15.67-.18,1.76-1.64,1.67-2.77,1.71-2.81.09-5.64.28-8.44-.19Z" style="fill: #fefdfd; stroke-width: 0px;"/>
  <path d="M215.22,120.85c13.54-.54,27.09-.98,40.62-1.68,3.51-.18,6.98-1.06,10.48.34-21.73,1.64-43.41,4.11-65.25,2.97-.02-.31-.04-.63-.06-.94,1.47,0,2.94.01,4.42,0,1.5-.02,2.99-.06,4.49-.1,1.71-.71,3.61.23,5.31-.59Z" style="fill: #690502; stroke-width: 0px;"/>
  <path d="M102,102.13c3.63-1.26,7.64.19,11.21-1.52,2.77,1.57,5.53,3.14,8.3,4.71-6.72-.05-13.15-1.4-19.5-3.19Z" style="fill: #bc716d; stroke-width: 0px;"/>
  <path d="M215.22,120.85c-1.66,1.16-3.53.5-5.31.59,1.66-1.21,3.53-.45,5.31-.59Z" style="fill: #aa0c05; stroke-width: 0px;"/>
  <path d="M413.66,150c2.34-1.11,4.43-2.48,5.3-5.12.47-.33.94-.67,1.41-1,.89,2.56,2.64,4.09,5.29,4.76,2.65.67,5.24,1.55,7.86,2.34,8.67,2.61,12.48,8.9,13.96,17.45.96,5.56-.17,10.82-.76,16.2-.05.49-.15,1-.09,1.49,1.22,9.6-1.7,18.9-2.03,28.33-.28,8.11-1.39,16.12-1.82,24.2-.67,12.64-.67,25.31-1.61,37.91-.66,8.8.31,17.67-1.31,26.4-1.58,8.51-3.99,16.59-10.55,22.89-2.94,2.83-6.68,3.84-10.17,5.2-10.74,4.19-21.62,8.03-32.78,11.04-1.81.49-2.82-.14-4.03-1-.02-23.29-.03-46.57-.07-69.86-.04-21.92-.1-43.83-.15-65.75-.17-2.54.46-3.83,3.55-4.04,4.61-.32,6.08-2.44,6.94-8-.5-.6-.76-1.31-.71-2.07.77-11.41.11-22.84.39-34.26.02-1,.13-1.98.53-2.91,2.7-3.08,6.43-3.4,10.14-3.76,3.56-.35,7.17.49,10.71-.44Z" style="fill: #193b92; stroke-width: 0px;"/>
  <path d="M151.68,95.92c7.07,1.79,13.87,4.05,20.58,6.56.71.26,1.41.83,1.05,2.03-1.32,4.46-5.62,7.23-10.24,6.64-2.43-.31-5.35.44-6.89-1.9-2.43-3.72-4.56-7.67-6.45-11.69-.91-1.93,1.25-1.1,1.96-1.65Z" style="fill: #7e0401; stroke-width: 0px;"/>
  <path d="M191.95,113.21c-6.21,0-11.96.02-17.71-.03-.75,0-1.49-.45-1.51-1.35-.02-.99.76-1.51,1.5-1.96,6.62-4.06,11.8-3.21,17.72,3.34Z" style="fill: #6b0301; stroke-width: 0px;"/>
  <path d="M317.17,105.62c7.07,1.43,14.13,2.86,21.2,4.3,2.85.58,5.46,1.7,7.73,3.54,1.64.48,2.67,1.24,1.43,3.07-2.25.15-4.53.52-6.54-.97-.03-.95-.49-1.47-1.46-1.48-2.96-.94-5.93-1.35-9.08-.98-5.42.65-10.9.33-16.35.63-9.02.5-18.04,1.59-27.48,1,1.48-2.09,3.47-2.02,5.31-2.1,7.81-.33,15.62-.64,23.43-.84,2.6-.07,4.1-.4,2.01-3.26-.62-.84-.34-1.92-.2-2.91Z" style="fill: #df735d; stroke-width: 0px;"/>
  <path d="M393.5,153.79c-.05,9.4-.1,18.8-.16,28.2-.02,3.83.03,7.67-.75,11.45-13.39,3.89-27.22,3.02-40.9,3.86-15.59.96-31.17,1.88-46.78,2.15-1.86.03-3.78.19-5.13-1.52-.97-21.22,2.14-42.44-.04-63.67-.63-2.3,1.19-2.34,2.56-2.7,4.37-1.15,8.92-1.08,13.33-1.24,12.06-.44,24.08-1.37,36.13-1.91,12.92-.57,25.84-1.33,38.77-2.04,1.82.45,2.61,1.86,2.98,3.49,1.68,7.37,1.13,14.83.8,22.28-.03.63-.46,1.14-.81,1.66Z" style="fill: #e6b16e; stroke-width: 0px;"/>
  <path d="M390.5,126.62c-3.56,1.63-7.46,1.51-11.16,1.55-12.65.14-25.23,1.48-37.88,1.77-9.01.2-18.04.94-27.05,1.54-4.26.28-8.68-.09-12.89,1.24-.91.29-1.64.5-1.78,1.55-1.04-.78-.6-1.93-.72-2.93,2.02-1.06,4.3-1.29,6.47-1.47,8.02-.66,16.05-1.07,24.08-1.57,1.62-.1,3.46-.04,3.82-2.12.32-1.83-.39-3.44-2-4.5-.83-.55-1.83-.86-2.57-1.5-.76-.65-2.41-.89-1.8-2.4.46-1.14,1.72-1.5,2.84-1.39,3.76.36,7.38-.95,11.11-.81,2.32.07,4.69-.33,6.92.66,1.25-.99,2.63-.5,3.93-.23,11.41,2.39,22.83,4.7,34.14,7.53,1.81.45,4.11.49,4.52,3.11Z" style="fill: #d4905c; stroke-width: 0px;"/>
  <path d="M390.5,126.62c-3.24-2.61-7.33-2.7-11.1-3.57-10.46-2.41-20.99-4.58-31.48-6.84-.6-.92-1.21-1.84-1.81-2.76.89-1.2,2.21-1.41,3.57-1.74,5.23-1.25,9.28-3.92,11.04-9.37,1.95-6.07,7.48-9.41,11.16-14.18,2.56-3.32,5.91-5.97,8.54-9.31,2.82-3.59,4.59-3.62,8.57-1.22,1.36.82,2.71,1.79,4.4,1.89.06.51.11,1.02.17,1.53.6,1.16-.09,2.49.5,3.65.29,3.8.59,7.6.88,11.4,1.44,5.2.96,10.58,1.44,15.87.45,4.94.69,9.9,1.34,14.82.62,4.71,1.64,9.32,4.73,13.18.54.68.96,1.46.75,2.41,1.51,5.38,4.51,7.56,10.47,7.6-2.08,1.24-4.53,1.47-6.73,1.39-4.71-.17-9.09.82-13.43,2.4-.48-7.44.31-14.91-.67-22.34-.25-1.88-.59-3.69-2.33-4.83Z" style="fill: #162469; stroke-width: 0px;"/>
  <path d="M375.32,24.85c5.41,1.14,9.03,7.88,7.21,13.01-1.61,4.53-3.22,9.1-3.33,14-2.84.39-5.54-.57-8.32-.8.09-8.97,1.41-17.73,4.44-26.2Z" style="fill: #8f95ab; stroke-width: 0px;"/>
  <path d="M337.33,48.86c2.97-.02,5.98-.45,8.85.74-2.97,0-5.98.5-8.85-.74Z" style="fill: #8f95ab; stroke-width: 0px;"/>
  <path d="M347.03,49.68c2.98.03,6.02-.57,8.91.68-2.99.1-6.01.47-8.91-.68Z" style="fill: #8f95ab; stroke-width: 0px;"/>
  <path d="M328.33,48.16c2.97,0,5.99-.53,8.87.68-2.98.1-5.99.51-8.87-.68Z" style="fill: #8f95ab; stroke-width: 0px;"/>
  <path d="M356.02,50.38c2.73-.04,5.49-.46,8.11.72-2.73.06-5.49.43-8.11-.72Z" style="fill: #8f95ab; stroke-width: 0px;"/>
  <path d="M365.04,51.18c1.95-.04,3.9-.09,5.85-.13-1.92,1.43-3.88.89-5.85.13Z" style="fill: #8f95ab; stroke-width: 0px;"/>
  <path d="M358.35,22.01c.62-1.57,1.85-2.38,4.12-2.3,2.14.08,4.27.41,6.21,1.44-3.49-.24-6.92.27-10.34.86Z" style="fill: #8f95ab; stroke-width: 0px;"/>
  <path d="M403.19,142.4c-4.6-4.09-6.09-9.69-6.62-15.39-.96-10.26-1.96-20.55-1.65-30.89,2.39,2.92,1.95,6.58,2.13,9.89.5,9.16,1.32,18.22,3.74,27.13,1.2,4.44,4.2,7.48,6.85,10.87-1.8.33-3.01-.95-4.45-1.61Z" style="fill: #a16f6b; stroke-width: 0px;"/>
  <path d="M385,52.62c.06-3.82.04-7.65,1.34-11.95,1.88,3.6,2.96,7.12,3.12,10.59.12,2.54-2.81.71-4.17,1.46,0,0-.29-.11-.29-.11Z" style="fill: #fafafa; stroke-width: 0px;"/>
  <path d="M394.04,84.72c-1.06-1.09-.55-2.41-.5-3.65.79,1.13.61,2.4.5,3.65Z" style="fill: #1b4eaa; stroke-width: 0px;"/>
</svg>