<?xml version="1.0" encoding="UTF-8"?>
<svg id="Layer_1" data-name="Layer 1" xmlns="http://www.w3.org/2000/svg" viewBox="0 0 598.55 577.27">
  <path d="M401.9,304.14c10.81-6.72,22.71-10.74,35.04-13.24,38.05-7.71,72.98.14,104.46,22.58,21.76,15.51,37.02,36.31,47.04,61.04,7.84,19.36,11.33,39.48,9.74,60.27-1.88,24.52-10.23,46.79-25.12,66.47-1.64,2.17-3.03,4.58-5.36,6.16-3.7.97-5.91,4.05-8.47,6.43-21.05,19.63-45.94,30.98-74.33,34.87-26.86,3.68-52.58-.61-76.67-12.75-37.36-18.82-60.95-49.01-69.91-89.82-8.13-37.03-.91-71.49,20.63-102.79,10.47-15.22,23.93-27.28,39.71-36.82,1.16-.7,2.52-1.13,3.25-2.41Z" style="fill: #64aae5; stroke-width: 0px;"/>
  <path d="M35.7,491.6c-16.27-12.67-26.66-29.4-31.41-49.13-11.74-48.74.76-91.14,35.74-126.74,12.79-13.02,28.51-21.6,46.46-25.68,14.28-3.25,28.46-2.8,42.31,2.06,13.75,4.82,27.39,10,39.1,19,16.88,12.97,27.33,30.33,32.22,50.73,8.49,35.4,1.97,68.43-17.54,99.01-.65,1.02-1.13,2.22-2.33,2.8-.7-.76-.49-1.6-.24-2.46.2-.7.63-1.39.08-2.25-7.42,1.77-14.64,3.41-20.25,9.7-9.66,10.83-20.7,20.15-33.54,27.19-11.53,6.33-23.73,10-36.91,11.08-16.76,1.37-32.01-2.7-46.4-10.96-2.46-1.41-4.35-3.77-7.29-4.36Z" style="fill: #4d93db; stroke-width: 0px;"/>
  <path d="M401.39,122.38c-3.29,14.95-9.72,28.47-18.32,41.07-4.92,7.21-10.31,13.94-16.89,19.7-4.33-5.2-10.89-6.66-16.93-3.38-9.97,5.41-19.59,11.49-30.15,15.78-26.38,10.72-53.09,12.68-79.71,1.58-19.27-8.03-32.97-22.26-40.67-41.78-9.89-25.06-7.98-49.91,2.63-74.22,8.18-18.75,20.05-34.8,35.58-48.37,11.69-10.22,24.19-18.81,38.53-24.67,9.74-3.98,19.91-6.29,30.4-7.25,1.09-.1,2.23-.15,3.27-.62,23.66-.69,44.35,6.47,61.43,23.21,3.86,7.54,8.51,14.64,11.35,22.73,3.99,11.36,4.68,22.94,2.76,34.66-.89,5.41-1.32,10.87-2.48,16.26-5.23,24.48-16.59,45.6-34.39,63.12-10.54,10.38-22.55,18.62-36.04,25.1-12.9,6.19-26.51,9.36-40.22,12.45-4.73,1.07-9.66.64-14.85.7,12.79,3.9,25.39,3.66,38.02,1.08,22.76-4.66,42.7-14.89,60.17-30.23,7.93-6.97,14.53-15.07,21.44-22.92,2.98-3.39,6.07-6.28,10.9-6.41,2.15-.06,3.28-1.48,4.23-3.21,1.87-3.42,2.9-7.17,4.42-10.72.7-1.62,1.45-3.2,2.94-4.25,1.17-.82,1.26-.78,2.59.59Z" style="fill: #4993da; stroke-width: 0px;"/>
  <path d="M535.4,248.12c-4.21,3.96-9.73,4.84-15.02,5.81-4.07.74-8.22,1.15-12.56.49-7.86-1.2-11.71-5.9-13.45-13.01-5.14-20.94-13.51-40.49-24.95-58.76-7.35-11.75-16.04-22.43-25.62-32.41-3.18-3.32-6.52-6.54-10.12-9.39-6.98-5.55-7.67-12.48-4.66-20.09,2.8-7.07,7.16-13.02,14.22-16.54,1.89,2.5,3.59,4.97,2.73,8.45-.37,1.49.82,2.82,1.62,4.06,1.55,2.39,3.12,4.66,3.56,7.67.42,2.81,3.7,2.49,5.5,3.87,8.35,5.29,14.53,12.84,20.94,20.16,13.83,16.93,24.86,35.52,33.15,55.74,4.93,12.02,8.44,24.51,11.99,36.98,1.75,6.16,4.53,7.08,9.13,2.87.46-.42.88-.89,1.41-1.22,1.08-.68,2.24-1.4,3.41-.36,1.19,1.05,1.12,2.43.45,3.77-.39.8-1,1.42-1.74,1.92Z" style="fill: #c0c4c9; stroke-width: 0px;"/>
  <path d="M401.39,122.38c-3.24-1.17-3.59,1.72-4.36,3.43-1.78,3.96-2.95,8.18-4.99,12.06-1.1,2.09-2.41,3.22-4.93,3.18-3.07-.05-5.73,1.05-7.84,3.55-4.96,5.88-9.83,11.88-15.2,17.38-8.52,8.73-17.88,16.5-28.46,22.72-14.3,8.41-29.51,14.31-45.94,16.8-10.78,1.63-21.53,1.32-32.09-1.7-1.16-.33-2.49-.43-3.45-1.71,2.14-1.89,4.83-.74,6.94-.72,8.55.12,16.58-1.78,24.72-4.07,6.43-1.81,13.04-3.07,19.13-5.88,13.2-6.1,25.85-12.95,36.77-22.93,8.33-7.62,15.9-15.73,21.93-25.2,5.19-8.16,9.39-16.77,12.81-25.95,4.7-12.63,6.1-25.64,7.75-38.77,2.06-16.43-3.08-30.84-11.19-44.57-1.23-2.08-2.18-4.16-2.43-6.56,7.57,6.57,12.53,15.04,17.44,23.59,7.05,12.27,13.08,24.9,15.09,39.1,1.72,12.19,1.55,24.3-1.69,36.26Z" style="fill: #59a1e1; stroke-width: 0px;"/>
  <path d="M75.43,254.08c-4.76-2.13-6.1-4.64-5.28-9.55,1.08-6.46,3.95-12.31,6.55-18.17,10.67-24.04,24.04-46.48,40.57-67.04,8.45-10.51,17.83-20.08,27.41-29.49,3.85-3.78,8.2-4.26,12.41-1.61-1.45,1.73-.13,2.59,1.05,3.6,3.32,2.86,3.57,4.47,1.45,8.38-.39.31.42.48,0,.21-.09-.06.03-.12.19-.32,1.49-1.75,3.04-1.37,4.58-.12,2,1.62,3.08,3.59,2.16,6.24-.38,1.1-1.17,1.89-2,2.66-22.21,20.72-39.85,44.91-53.95,71.71-4.29,8.16-7.97,16.65-11.5,25.18-.58,1.39-1.23,2.73-2.23,3.88-.88,1.01-1.94,1.59-3.31,1.22-1.52-.41-1.66-1.7-1.74-2.98-.11-1.79.45-3.45,1.01-5.1,5.56-16.25,13.3-31.46,22.1-46.14,8.72-14.53,18.59-28.23,28.98-39.08-21.05,22.82-40.14,49.31-53.09,79.89-1.22,2.87-2.17,5.86-2.47,8.99-.19,2.07-1.03,3.84-2.2,5.48-1.59,2.24-3.56,3.46-6.4,2.23-1.4-.6-2.86-.93-4.31-.07Z" style="fill: #d2dbe3; stroke-width: 0px;"/>
  <path d="M157.91,532.74c-.05-9.68,10.69-24.93,19.81-26.56,4.53-.81,8.13.71,11.71,2.55,14.21,7.32,28.96,13.2,44.54,16.75,9.53,2.17,19.16,3.78,28.98,4.51,6.98.52,13.95.78,20.89.46,15.13-.7,30.15-2.59,44.8-6.6,9-2.46,14.99-.52,19.74,7.45,4.96,8.32,7.28,17.39,6.4,27.14-.04.45-.39.87-.6,1.31-.81.66-1.21,2.2-2.59,1.67-1.54-.58-1.1-2.06-.93-3.24.32-2.16-.01-3.96-2.18-5.02-1.2-.59-1.37-1.5-1.08-2.79,1.69-7.33.39-8.7-7.02-7.55-.37.06-.72.18-1.08.31-.55.19-1.1.35-1.67.47-1.4.45-2.78.66-4.15-.11-2.16-2.62-4.74-2.99-8.01-2.18-21.53,5.34-43.4,7.72-65.57,6.67-16.07-.76-31.46-4.94-46.45-10.61-8.85-3.35-17.76-6.63-25.76-11.85-1.41-.92-3.04-1.55-4.52-.32-2.81,2.34-5.32,1.19-7.87-.36-4.94-3.07-6.26-2.98-9.81.03-2.28,1.93-.56,2.22.91,2.75.35.13.68.3.99.51,1.79,1.39,2.57,2.98,1.09,5.09-1.3,1.85-2.98,2.63-5.13,1.67-1.8-.8-3.9-.81-5.48-2.14Z" style="fill: #c1c5ca; stroke-width: 0px;"/>
  <path d="M339.1,542.45c2.84-.52,5.75-2.77,8.49-.03,2.2,2.2,2.98,4.78.96,7.64-.66.93-1.31,1.91.58,2.39,3.1.78,2.9,3.23,2.64,5.64-.1.91-1.22,1.95-.15,2.68,1.01.7,1.6-.9,2.57-.99-.29.73-.58,1.45-.88,2.18-2.51,2.28-5.72,2.99-8.84,3.82-17.18,4.56-34.63,7.05-52.42,7.86-41.8,1.91-80.98-7.15-117.79-26.86-1.32-.71-2.76-1.2-3.95-2.12-1.01-.77-2.12-1.66-1.21-3.08.98-1.54,2.45-1.53,3.94-.72.66.36,1.1,1.01,1.65,1.51,1.08.98,2.06.57,2.97-.26.58-.52,1.09-1.31.68-1.98-.67-1.11-1.75-.49-2.7-.29-3.76.79-4.67.58-7.57-1.66,1.16,2.82.02,4.65-2.81,4.2-2.81-.45-5.16-1.83-6.65-4.38-1.03-1.65-.79-3.46-.69-5.25,1.61-.02,3.18.03,4.67.86,1.82,1.02,3.47,1.44,5.18-.6,1.84-2.21-.1-3.26-.94-4.72,1.03-.76,1.96-.29,2.68.42,5.39,5.32,12.38,7.83,19.07,10.8,21.51,9.53,44,15.15,67.47,17.07,8.19.67,16.38,1.43,24.58,1.28,16.35-.32,32.58-1.91,48.42-6.32,4.51-1.26,5.41-2.89,4.87-8.29,1.3.09,2.56-.02,3.69-.75,1.01.89.43,2.09.63,3.13.2,1.05.7,2.06,1.94,1.6,1.05-.39.73-1.4.32-2.21-.44-.87-1.32-1.49-1.38-2.56Z" style="fill: #c9d0d9; stroke-width: 0px;"/>
  <path d="M535.4,248.12c.52-1.77,2.91-3.86.61-5.26-1.74-1.06-3.13,1.36-4.27,2.77-1.39,1.7-3.49,2.58-5.26,2.19-2.34-.52-3.87-2.7-4.48-5.1-4.37-17.1-9.6-33.92-17.29-49.86-7.32-15.16-16.05-29.46-26.86-42.43-.45-.54-.63-1.31-.94-1.97,3.29.45,5.66,2.81,7.53,4.96,4.55,5.24,9.18,10.53,12.11,16.97.52,1.14,1.05,2.49,2.7,1.85,1.41-.55,1.45-1.89,1.39-3.18-.18-3.81-2.49-6.8-6.42-8.15-1.54-.53-2.53-1.47-1.87-3.03.68-1.62-.19-2.44-.91-3.64-5.62-9.39-12.94-17.46-20.41-25.3-4.78-5.02-9.69-10.07-15.32-14.26-.89-.67-1.78-1.62-2.99-.86-1.03.65-1.33,1.83-1.31,2.97.05,3.36-.14,6.78,3.44,8.87,1.08.63,2.3,1.64,1.84,3.34-3.54-1.12-7.41-1.81-7.03-7.01.07-.9-1.09-1.87-1.65-2.83-1.66-2.78-4.48-5.2-2.69-9.05.39-.84-.03-1.7-.88-2.23-1.43-.88-1.21-2.32-1.22-3.68,2.68-2.08,5.8-2.27,9-2.14,7.55,3.7,12.81,10.19,18.84,15.69,14.71,13.42,27.62,28.44,38.26,45.27,8.93,14.14,16.55,28.98,22.18,44.79,3.51,9.85,7.13,19.64,8.6,30.09.34,2.42-.58,4.31-1,6.43-.42,2.07-1.69,3.3-3.73,3.77Z" style="fill: #d5dfe7; stroke-width: 0px;"/>
  <path d="M309.12.22c-3.36,2.2-7.42,2.12-11.07,2.71-16.8,2.7-31.68,9.4-45.73,18.9-8.71,5.9-16.51,12.79-23.85,20.05-6.74,6.66-12.39,14.54-17.46,22.69-7.55,12.16-12.92,25.21-15.9,39.21-.72,3.39-1.35,6.81-1.33,10.3.04,9.03-.65,18.06,1.44,27.02,4.39,18.85,13.56,34.61,29.23,46.3,14.47,10.79,30.85,15.32,48.78,15.87,22.82.71,43.35-6.04,62.79-17.26,5.39-3.11,10.85-6.11,16.39-8.94,4.06-2.08,13.28,2.14,13.76,6.08-10.56,10.5-22.92,18.28-36.49,24.22-.53.23-1.2.14-1.8.19-5.45-4.6-10.96-7.85-18.86-6.1-11.78,2.6-23.76,4.69-35.92,4.19-16.29-.67-31.81-4.22-45.59-13.52-1.02-.69-2.1-1.35-3.34-1.64-16.56-11.93-27.25-27.88-31.81-47.71-5.29-22.99-2.19-45.18,7.21-66.69,6.69-15.3,16.11-28.71,27.96-40.34,17.84-17.49,38.96-29.19,63.58-33.93,5.86-1.13,11.9-2.33,18.01-1.61Z" style="fill: #4284d1; stroke-width: 0px;"/>
  <path d="M75.43,254.08c-.2-2.22.9-1.93,2.52-1.57,2.13.47,4.27,2.96,6.59-.16,1.51-2.03,2.69-3.92,2.95-6.53.5-5,2.65-9.55,4.74-14.04,7.81-16.73,17.06-32.62,28.19-47.37,8.07-10.69,16.56-21.04,26.77-29.93-1.72,2.13-3.34,4.34-5.17,6.36-10.11,11.21-18.67,23.57-26.43,36.45-8.75,14.51-16.38,29.62-21.87,45.72-.4,1.17-.91,2.37-.98,3.58-.07,1.24-.81,2.97.98,3.59,1.67.58,2.49-.79,3.09-2.05,1.8-3.81,3.62-7.63,5.28-11.5,8.47-19.74,19.19-38.14,32.16-55.26,9.18-12.12,19.07-23.57,30.36-33.79,2.26-2.04,1.86-4.23-.22-6.49-2.32-2.52-3.82-1.28-5.42.65-.37.44-.52,1.18-1.39,1.08-.63-1.26.64-1.67,1.14-2.39,2.22-3.25,1.86-5.54-1.26-7.9-.59-.45-1.19-.92-1.67-1.48-.52-.6-1.67-1.03-1.08-2.09.49-.89,1.53-.66,2.38-.72,6.57,4.38,11.14,10.49,14.98,17.23,1.23,2.96.33,5.45-1.42,7.97-3.08,4.45-6.99,8.09-10.76,11.89-17.76,17.93-32.12,38.3-43.54,60.76-4.68,9.2-9.03,18.56-11.92,28.53-.68,2.35-2.14,4.2-4.32,5.42-2.66,1.81-5.46.38-7.94-.16-5.77-1.26-11.53-2.84-16.76-5.79Z" style="fill: #c1c6cb; stroke-width: 0px;"/>
  <path d="M401.9,304.14c.82,2.32-1.57,2.27-2.46,2.79-10.18,5.95-19.29,13.25-27.35,21.78-12.26,12.97-21.65,27.76-27.91,44.59-6.43,17.3-9.24,35.14-7.92,53.43,1.94,26.97,11.36,51.17,28.09,72.62,9.8,12.58,21.66,22.7,35.12,30.83,14.03,8.47,29.26,14.19,45.55,16.83,7.72,1.25,15.53,2.36,23.3,2.11,18.49-.6,36.41-4.05,53.46-11.71,13.89-6.24,26.4-14.34,37.32-24.94,1.87-1.81,3.87-3.51,5.92-5.11.74-.58,1.88-2.32,2.67.08-14.12,15.89-30.85,27.93-50.83,35.54-71.5,27.2-146.85-8.5-173.29-75.64-7.74-19.66-10.62-40.01-8.79-60.87,2.18-24.86,10.94-47.44,26.14-67.38,10.9-14.31,24.23-25.82,39.92-34.61.32-.18.71-.22,1.07-.32Z" style="fill: #3f7cc8; stroke-width: 0px;"/>
  <path d="M35.7,491.6c1.05-1.32,1.73-.09,2.45.4,9.99,6.83,20.89,11.46,32.86,13.43,13.25,2.18,26.24.65,38.88-3.45,17.93-5.82,32.58-16.81,45.6-30.16,2.09-2.14,4.18-4.29,6.36-6.34,3.01-2.84,6.16-5.29,10.65-5.54,2.03-.11,4.13-.79,6-1.89.86-.51,2.02-1.58,2.97-.3.69.93.51,2.18-.21,3.15-.62.83-1.04,1.69-.99,2.74-15.12,21.18-34.35,36.52-60.21,42.48-11.67,2.69-23.51,2.1-35.33,2.11-18.25,0-34.64-5.3-49.02-16.64Z" style="fill: #356bbb; stroke-width: 0px;"/>
  <path d="M224.17,190.5c1.89-.28,3.27.73,4.79,1.65,10.99,6.66,23,10.14,35.7,11.82,16.43,2.17,32.27-1.44,48.21-4.22,1.92-.33,3.69-.52,5.4.48,2.47,1.43,4.89,2.93,7.64,3.81,1.74.56,2.17,1.87,1.96,3.53-10.5,5.1-21.68,7.46-33.24,8.29-24.9,1.78-46.68-5.98-65.88-21.6-1.53-1.25-3.06-2.5-4.58-3.75Z" style="fill: #426eba; stroke-width: 0px;"/>
  <path d="M158.6,537.99c2.06,1.15,4.08,2.38,6.19,3.43,1.2.6,2.56.56,3.23-.84.71-1.5-.67-1.87-1.63-2.38-.53-.29-1.78-.09-1.01-1.29.59-.92,1.32-.89,2.14-.09,2.65,2.58,5.46,3.66,9,1.41,1.07-.68,3.04-.6,3.49,1.05.57,2.05-.85,3.54-2.49,4.58-1.15.72-2.47,1.51-3.59-.1-.27-.39-.32-.94-.52-1.39-.46-1.06-1.33-1.41-2.43-1.3-.66.07-1.3.32-1.48.96-.38,1.38.97,1.71,1.7,2.08,7.51,3.87,14.96,7.87,22.79,11.1,14.97,6.19,30.34,11.02,46.29,13.86,9.88,1.75,19.79,3.15,29.86,3.51,4.83.17,9.67.91,14.5.6,12.11-.78,24.21-1.42,36.23-3.4,11.04-1.82,21.82-4.45,32.45-7.83-.92,3.66-4.02,4.79-7.01,6.01-6.48,2.64-13.36,3.8-20.16,5.16-20,4-40.28,4.84-60.52,3.68-25.06-1.44-49.27-7.33-72.5-17.01-10.57-4.41-20.93-9.21-30.28-15.92-2.03-1.46-3.94-3.11-4.24-5.87Z" style="fill: #e1e8ee; stroke-width: 0px;"/>
  <path d="M100.14,260.03c4.26-4.69,4.94-11.01,7.29-16.54,5.44-12.84,11.57-25.25,18.98-37.07,11.08-17.67,24.16-33.65,39.1-48.19,3.44-3.35,7.28-7.03,6.57-12.77,2.41,4.84,1.99,8.11-1.61,11.73-12.88,12.97-25.14,26.49-35.43,41.63-10.42,15.34-19.15,31.64-25.92,48.95-1.04,2.66-2.18,5.28-3.39,7.86-1.11,2.36-2.81,4.08-5.58,4.39Z" style="fill: #d2dbe3; stroke-width: 0px;"/>
  <path d="M539.13,244.36c1.03-13.22-4.65-24.86-8.73-36.86-5.2-15.26-12.83-29.39-21.23-43.06-5.31-8.66-11.59-16.7-18-24.6-6.14-7.56-13.28-14.16-20.26-20.9-6.03-5.82-11.88-11.86-18.66-16.86,5.35,1.2,9.16,4.97,13.06,8.31,15.85,13.56,29.73,28.95,41.29,46.35,15.4,23.19,26.93,48.14,33.41,75.28.96,4.04,2.56,8.46-.88,12.34Z" style="fill: #d5dfe8; stroke-width: 0px;"/>
  <path d="M457.56,449.67c-.86,1.08-2.13.56-3.2.82-1.72-.02-3.08-.99-4.46-1.8-17-10-33.85-20.23-50.87-30.2-3.37-1.97-3.42-2.43-.96-5.8,11.76-16.14,23.56-32.25,35.32-48.39,7.5-10.29,15.16-20.46,22.41-30.92.64-.93,1.2-1.93,2.5-2.04.95-.42,1.21-1.41,1.8-2.14,1.21-1.5,1.95-.79,2.49.61-2.33,15.01-3.37,30.15-4.88,45.25-.16,1.61-.44,3.21-.67,4.81-.47,3.39-.55,6.7,1.43,9.73.34.52.63,1.14.65,1.74.14,4.06,1.64,6.65,5.81,8.39,2.81,1.17,2.03,5.51,3.36,8.25.23.47-.48,1.54.05,1.73,4.35,1.53,3.97,6.37,6.53,9.14,1.05,1.14,1.72,2.58,1.31,4.12-.64,2.44-.75,4.52,1.5,6.33.98.79.38,2.12-.21,3.1-1.15,1.92-2.91,3.58-5.04,3.42-3.75-.28-7.01,1.36-10.53,1.8-2.09.26-3.11,1.12-3.44,3.17-.47,2.95-1.1,5.87-.91,8.89Z" style="fill: #d2d7dd; stroke-width: 0px;"/>
  <path d="M457.56,449.67c-1.18-.96-1.5-2.04-1.07-3.61.55-2.02.63-4.16,1.02-6.22.44-2.32,1.59-2.92,4.23-3.39,4.11-.74,8.23-1.37,12.35-2.05,1.43-.24,2.35-1.74,3.03-3.13,1.04-2.15-1.04-2.1-1.99-2.78-1.3-.93-1.32-2.01-.59-3.24,1.5-2.55,1.09-4.67-1.17-6.61-1.16-1-1.52-2.49-1.78-4.01-.23-1.36-.83-3.11-2.13-3.29-2.49-.35-4.1-.18-1.98-3.41.8-1.22-2.35-2.75-1.85-5.13.62-2.93-1.98-2.88-3.83-3.37-2.41-.64-3.7-2.41-3.32-4.67.32-1.94-.07-3.63-1.04-4.92-2.74-3.64-1.64-7.58-1.3-11.43.59-6.66,1.35-13.3,2.08-19.94.96-8.73,1.97-17.46,2.94-26.19.12-1.06.4-1.95,1.42-2.45,18.82,30.18,37.65,60.36,56.45,90.55.76,1.22,2.39,2.6-.34,3.74-20.4,8.49-40.77,17.04-61.15,25.57Z" style="fill: #e1e5e9; stroke-width: 0px;"/>
  <path d="M410.21,325.08c27.12-20.43,70.75-21.62,103.02-4.04,47.1,25.66,62.81,71.7,58.62,110.43-5.12,47.39-40.52,81.66-74.08,88.88,28.3-13.18,50.19-32.54,59.88-63.09,9.51-30,7.01-59.27-7.78-87.03-13.32-25-33.08-43.27-60.5-51.77-27.06-8.39-53.5-5.13-79.17,6.62Z" style="fill: #3576d1; stroke-width: 0px;"/>
  <path d="M440.19,457.15c3.6,2.44,7.35,4.69,10.74,7.38,1.8,1.43,3.09.5,4.43-.09,11.4-5,22.75-10.1,34.12-15.16,9.84-4.38,19.69-8.74,29.85-12.64-5.26,5.77-10.48,11.58-15.78,17.31-16.08,17.4-32.19,34.77-48.31,52.14-.66.71-1.49,1.28-2.24,1.91-2.08-4.7-1.34-9.78-1.69-14.66-.55-7.54-.18-15.14-.84-22.71-.24-2.73-1.06-4.71-3.3-6.26-2.04-1.42-4.17-2.71-6.1-4.29-1.35-1.11-1.31-1.16-.88-2.93Z" style="fill: #dbdfe5; stroke-width: 0px;"/>
  <path d="M440.19,457.15c-.72,1.25.54,1.49,1.11,1.91,1.6,1.18,3.24,2.32,4.98,3.28,3.97,2.18,5.22,5.24,5.4,9.93.47,11.91.76,23.83,1.32,35.74-.48-.26-.96-.52-1.44-.78-3.05-1.98-4.54-5.26-6.5-8.08-13.82-19.85-27.96-39.47-41.64-59.41-1.28-1.87-3.72-3.08-3.65-5.81.25-1.73-1.79-2.32-2.1-5.13,14.64,9.77,28.59,19.07,42.54,28.37Z" style="fill: #bcc4d1; stroke-width: 0px;"/>
  <path d="M458.3,331.34c-19.96,27.48-39.89,54.99-59.93,82.41-1.45,1.99-1.25,2.64.76,3.82,17.65,10.32,35.25,20.74,52.85,31.15.84.5,1.58,1.18,2.37,1.77-2.12,1.38-4.07.52-5.92-.55-17.45-10.08-34.88-20.2-52.34-30.26-2.41-1.39-2.74-3.02-1.16-5.17,11.66-15.94,23.32-31.89,34.98-47.82,7.93-10.82,15.84-21.65,23.85-32.41,1.07-1.43,1.68-4.07,4.53-2.94Z" style="fill: #487ece; stroke-width: 0px;"/>
  <path d="M399.76,433.91c10.11,12.76,18.96,26.42,28.43,39.64,7.53,10.51,14.91,21.13,22.34,31.71.42.6.69,1.3,1.03,1.95-1.53,2.61-3.1,1.49-4.35-.13-3.03-3.92-6-7.88-8.84-11.94-13.21-18.88-26.38-37.79-39.55-56.7-.43-.61-.76-1.28-1.22-1.87-.65-.84-1.15-1.81-.54-2.73.78-1.16,1.78.23,2.7.06Z" style="fill: #4377cb; stroke-width: 0px;"/>
  <path d="M93.6,330.53c3.3-.13,7.63.26,11.98.66,4.89.44,6.06,1.81,4.91,6.86-1.71,7.49-3.62,14.93-5.45,22.39-.09.36-.21.72-.3,1.08-.98,4.2-.98,4.19,3.28,3.53.86-.13,1.74-.11,2.61-.11,4.48.01,4.91.59,3.92,5.13-.37,1.7-.75,3.4-1,5.11-.85,6.03-4.2,9.64-10.23,10.65-3.19.54-5.1,2.39-5.87,5.46-2.43,9.61-4.76,19.25-7.29,28.84-.8,3.04.66,3.81,3.16,4,10.04.76,20.1,1.36,30.12,2.36,5.83.58,7.07,1.1,4.75,7.11-2.64,6.82-4.9,13.79-7.79,20.52-1.48,3.45-3.69,4.65-7.63,4.18-8.39-1-16.87-1.29-25.3-2.01-11.16-.96-22.31-1.98-33.44-3.14-4.61-.48-5.35-1.95-4.13-6.57,3.95-14.89,7.87-29.78,11.79-44.67.19-.72.16-1.49.37-2.2.87-2.97-.08-3.89-2.92-2.59-2.05.93-4.24,1.42-6.03-.03-1.83-1.48-.84-3.65-.41-5.56.27-1.21.79-2.39.91-3.61.54-5.66,3.75-8.63,9.2-9.61,3.49-.63,5.43-2.59,6.33-6.31,2.75-11.35,5.89-22.6,8.96-33.88,2.06-7.57,2.14-7.58,9.91-7.59,1.5,0,2.99,0,5.56,0Z" style="fill: #cfd4da; stroke-width: 0px;"/>
  <path d="M258.37,71.89c-5.82-5.07-2.49-11.34-2.01-17.13.17-2.06,2.86-1.69,4.45-1.94,7.49-1.19,7.69-1.1,8.5-8.49.35-3.17,1.62-4.4,4.64-4.5,1.98-.06,3.94-.58,5.92-.7,4.39-.25,6.72,1.97,6.81,6.32.09,4.41.27,4.57,4.65,4.03,5.95-.73,6.16-.72,6.48-7.58.16-3.55,1.45-5.29,4.96-5.56,2.35-.18,4.68-.66,7.03-.86,3.09-.26,6.19,3.25,5.97,6.69-.06.99-.36,1.96-.5,2.94-.47,3.15.12,5.42,3.28,7.37,15.19,9.35,14.74,28.44,4.81,39.48-.5.56-1,1.13-1.58,1.59-2.27,1.79-2.17,2.96.43,4.61,5.92,3.76,10.71,8.73,12.39,15.76,2.93,12.21-1.28,22.29-10.2,30.57-4.62,4.29-10.12,7.19-16.29,8.69-1.97.48-3.01,1.46-2.68,3.64.14.97.01,2-.12,2.98-.72,5.56-1.81,6.49-7.41,6.51-1.5,0-2.99.03-4.49.03-4.98.01-7.09-1.83-6.66-6.66.33-3.71-1.25-4.3-4.27-3.77-1.59.28-3.18.56-4.79.69-1.39.11-2.02.81-2.11,2.11-.07,1-.05,2-.15,2.99-.57,5.48-1.23,6.07-6.65,6.13-2.12.02-4.24.14-6.36.07-3.24-.11-5.06-1.76-5.09-5.11,0-.87.05-1.75.06-2.62.04-4.17-.89-4.77-4.54-2.95-3.17,1.58-7.36-1.08-7.14-4.76.21-3.6.98-7.16,1.25-10.75.2-2.58,2.59-1.89,3.78-2.94,6.29-1.17,6.79-5.94,7.31-11.1,1.67-16.55,3.44-33.09,5.12-49.64.32-3.2.18-5.67-3.97-5.47-.36.02-.6-.4-.82-.7Z" style="fill: #d1d5db; stroke-width: 0px;"/>
  <path d="M350.34,149.96c-.5.5-.99,1-1.49,1.5-2.21,2.79-4.7,5.29-7.5,7.49l-1.5,1.48c-1.81-.51-1.89-.55-1.14-2.01,1.39-2.69,3.65-4.74,5.56-7.02,13.33-15.93,21.67-34.08,23.6-54.8,2.03-21.78-4.03-41.08-18.65-57.72-7.29-8.3-16.11-13.54-26.56-16.48-1.44-.4-3.91-.65-3.47-2.55.43-1.83,2.83-1.16,4.3-.87,22.79,4.58,39.09,17.19,47.75,39.03,4.77,12.04,6.06,24.56,4.29,37.38-.2,1.46.36,3-.45,4.39-1.34,6.94-3.13,13.74-5.99,20.23-.69,1.17-.85,2.55-1.52,3.73-3.72,6.26-6.83,12.88-11.22,18.74-.69,1.05-1.58,1.94-2.25,3h0c-1.02,1.69-2.73,2.8-3.75,4.49Z" style="fill: #306ec8; stroke-width: 0px;"/>
  <path d="M375.07,99.77c-.43-5.24,1-10.38.79-15.64-.74-19.21-6.94-36.14-21.3-49.29-8.98-8.22-19.84-13.15-31.92-15.17-.96-.16-1.98-.02-3.54-.02,2.9,2.39,6.12,2.41,8.92,3.37,14.96,5.12,24.24,16.34,31.93,29.31,8.06,13.58,10.29,28.53,8.98,43.89-1.63,19.11-8.85,36.28-20.52,51.52-2.41,3.15-5.19,6.03-7.54,9.22-.63.86-3.05,1.66-1.04,3.48-4.51,5.3-10.61,8.49-16.27,12.27-3.51,2.34-7.34,3.96-12.51,5.21,5.49-3.75,10.25-6.65,14.62-10.05,19.83-15.4,33.31-35.13,38.62-59.76,3.8-17.63,3.09-35.38-5.48-51.61-8.79-16.65-21.35-29.77-40.63-34.11-8.69-1.95-17.6-3.08-26.58-1.36-.9.17-1.94.42-3.1-.54,3.35-1.7,6.9-2.49,10.28-2.9,23.04-2.82,43.75,2.19,60.28,19.46,9.86,10.3,15.08,22.83,16.8,36.96.97,7.95,1,15.84-.06,23.76-.1.75-.07,1.5-.76,2Z" style="fill: #4284d1; stroke-width: 0px;"/>
  <path d="M258.37,71.89c6.26-.08,6.49-.06,5.84,6.46-1.86,18.68-3.94,37.34-5.92,56.01-.52,4.94-4.23,4.35-7.57,4.45,1.63-5.9,1.64-12,2.24-18.03.95-9.48,2.08-18.94,2.79-28.44.52-6.87,1.42-13.68,2.6-20.45Z" style="fill: #306cc4; stroke-width: 0px;"/>
  <path d="M341.36,158.95c2.2-2.79,4.7-5.29,7.5-7.49-1.59,3.41-4.08,5.91-7.5,7.49Z" style="fill: #4284d1; stroke-width: 0px;"/>
  <path d="M350.34,149.96c.39-2.22,2.16-3.28,3.75-4.49-.35,2.25-2.13,3.3-3.75,4.49Z" style="fill: #4284d1; stroke-width: 0px;"/>
  <path d="M354.09,145.47c.07-1.51,1.05-2.33,2.25-3-.05,1.52-1.04,2.35-2.25,3Z" style="fill: #4284d1; stroke-width: 0px;"/>
  <path d="M367.56,123.73c-.01-1.45.33-2.76,1.52-3.73.04,1.47-.29,2.78-1.52,3.73Z" style="fill: #4284d1; stroke-width: 0px;"/>
  <path d="M456.73,129.01c-1-1.1-1.88-2.34-3.01-3.27-2.94-2.43-4.3-8.12-2.67-11.56,1.07-2.26,2.58-2.62,4.41-1,8.28,7.3,16.25,14.87,23.56,23.2,5.32,6.06,9.63,12.84,14.87,18.93.71.83,1.41,1.6-.2,2.21-.87.33-1.07.98-.71,1.79.28.62.84,1.09,1.47.88,3.5-1.16,4.12,2.16,5.46,3.8,1.64,2.01,2.16,4.75,1.67,7.45-.3,1.6-1.71,2.1-3.05,2.34-1.4.26-1.97-.91-2.36-1.97-2.57-7-8.04-12.05-12.24-17.93-1.64-2.3-4.62-3.64-6.99-5.42-3.47-2.3-5.35-6.08-8.35-8.87-3.88-3.61-7.58-7.41-11.85-10.59Z" style="fill: #d5dfe8; stroke-width: 0px;"/>
  <path d="M333.9,543.23c2.79,3.74,1.73,7.5-3.02,8.83-6.55,1.83-13.18,3.68-19.9,4.47-9.95,1.17-19.92,2.56-29.98,2.43-26.12-.35-51.86-3.32-76.64-12.1-10.86-3.85-21.47-8.32-31.66-13.79-2.36-1.27-2.89-4.51-5.9-4.79,0,0,0,0,0,0-1.09-.71-2.16-1.61-1.53-2.98.63-1.37,1.82-2.4,3.53-2.24,2.09.2,4.17.49,6.25.7,2.81,1.21,5.51,3.6,8.39-.22,1.02-1.35,2.8-.23,4.09.53,18.69,11.15,39,17.81,60.35,21.43,12.94,2.2,25.94,1.66,39,.88,13.43-.8,26.52-3.33,39.54-6.35,3.67-.85,6.07-.43,7.47,3.2Z" style="fill: #e1e8ee; stroke-width: 0px;"/>
  <path d="M175.06,523.76c-1.58.92-3.28,1.04-4.97.47-1.36-.47-2.61-.7-3.75.43-1.42,1.41.19,2.43.46,3.63-1.29-.32-3.14.83-3.68-1.44-.45-1.9,1.14-2.11,2.22-2.87,4.66-3.24,5.26-3.28,9.72-.22Z" style="fill: #c9d0d9; stroke-width: 0px;"/>
  <path d="M339.1,542.45c.57.46,1.17.9,1.71,1.39,1.22,1.1,1.79,2.37.8,3.92-.6.93-1.38,1.39-2.48.73-1.45-.87-2.7-1.79-1.88-3.82.27-.66.24-1.44.35-2.17.5-.01,1-.03,1.5-.04Z" style="fill: #e1e8ee; stroke-width: 0px;"/>
  <path d="M261.97,566.88c6.56-.56,13.14-.79,19.68-1.01,14.55-.48,28.85-2.45,43.06-5.39,3.52-.73,6.98-1.72,10.48-2.53,1.08-.25,2.2-.42,3.3-.44,1.38-.03,3.09.09,3.36,1.67.29,1.75-1.7,1.65-2.7,1.88-9.76,2.27-19.55,4.3-29.53,5.51-11.73,1.42-23.54.98-35.28,1.93-4.05.33-8.24-1.03-12.37-1.62Z" style="fill: #e1e8ee; stroke-width: 0px;"/>
  <path d="M248.53,565.39c-10.32.99-19.83-2.68-29.43-5.89,9.78,1.93,19.59,3.71,29.43,5.89Z" style="fill: #e1e8ee; stroke-width: 0px;"/>
  <path d="M300.18,134.41c-6.2,2.13-12.64,2.09-19.07,2.12-1.83,0-2.01-1.13-1.86-2.48.71-6.4,1.47-12.79,2.18-19.19.15-1.39.9-2.65,2.08-2.83,7.53-1.13,15.05-2.9,22.73-1.12-.95,1-2.79,1.19-1.54,3.63,3.3,6.44,1.72,13.67-3.55,18.72-.36.35-.69.72-.97,1.14Z" style="fill: #54a0e3; stroke-width: 0px;"/>
  <path d="M297.71,68.15c4.67.07,9.25-1.01,10.92,3.22,1.78,4.52.24,9.25-3.04,12.83-5.33,5.83-12.43,7.4-20.03,7.41-1.55,0-1.96-.85-1.83-2.15.57-5.69,1.05-11.38,1.81-17.05.24-1.77,1.47-3.2,3.52-3.36,3.22-.25,6.36-1.34,8.65-.92Z" style="fill: #4f9ae0; stroke-width: 0px;"/>
  <path d="M300.18,134.41c1.28-3.53,4.57-6,4.98-10.07.37-3.65.57-7.11-1.66-10.29-.54-.76-1.89-1.31-1.38-2.38.58-1.23,2-.44,3.02-.64.36-.07.74-.08,1.1-.12,7.66,1.43,9.12,4.97,6.68,13.23-1.8,6.08-7.03,8.64-12.74,10.26Z" style="fill: #3574cc; stroke-width: 0px;"/>
</svg>