<?xml version="1.0" encoding="UTF-8"?>
<svg id="Layer_1" data-name="Layer 1" xmlns="http://www.w3.org/2000/svg" viewBox="0 0 598.63 419">
  <path d="M162.8,36.28c10.11-.03,20.22-.18,30.32,0,2.99.05,4.26-1.11,4.88-3.79,1.45-6.31,3.34-12.5,6.24-18.32,4.25-8.51,10.78-13.79,20.63-13.89,12.11-.12,24.25-.63,36.31.14,13.97.89,27.94-.22,41.85.72,10.85.74,21.71-.14,32.48.74,12.34,1.01,24.69-.15,36.98.74,10.22.74,20.43.13,30.62.72,6.71.39,11.66,4.6,16.02,9.38,4.1,4.5,8.08,9.11,12.19,13.6,4.04,4.4,8.19,8.7,12.25,13.08.48.52.7,1.28,1.04,1.93-.4.61-1.02.88-1.7,1.04-4.36.31-8.72.33-13.07-.02-8.07-.23-13.48-4.87-18.18-10.84-2.26-2.87-3.43-2.69-5.88.15-1.44,1.68-2.02,3.68-2.62,5.71-3.88,14.26-8,28.44-11.93,42.68-.5,1.8-1.12,3.55-1.76,5.3-6.47,23.84-13.43,47.53-20.1,71.31-9.06,32.3-18.47,64.5-27.41,96.84-2.32,8.41-4.55,16.86-7.22,25.18-.22,1.14-.64,2.21-.97,3.32-.28.9-.59,1.79-.73,2.72-.96,4.52-2.79,8.81-3.66,13.35-2.48,8.29-4.99,16.57-6.85,25.03-.62,2.81-.76,5.63-.27,8.46.28,3.49,1.6,6.5,4.12,8.95,1.03,1.76,2.45,3.19,3.91,4.58.61.62,1.24,1.22,1.85,1.84,2.03,3.3,5.81,5.29,6.98,9.25.84,4.29,1.56,8.6,2.82,12.79.32,1.07.62,2.17.63,3.3.04,3.19-1.82,4.59-4.51,3.04-3.87-2.23-8.01-4.11-11.09-7.54-6.67-7.43-14.77-13.4-21.25-21.04-2.5-2.94-6.19-3.8-9.87-3.73-14.6.27-29.17-.84-43.68-1.81-16.53-1.1-33.1-1.25-49.62-2.56-12.65-1.01-25.35-1.68-38.07-1.73-12.59-.05-25.13-1.16-37.66-2.3-2.68-.24-4.68-1.53-6.2-3.69-1.37-1.94-2.37-4.1-3.83-5.97-.97-2.3-.53-4.63-.18-6.99,1.5-10.29,4.97-20.06,7.73-30.01.51-3.34,1.99-6.42,2.66-9.73,1.06-2.55,1.17-5.37,2.26-7.91,5.05-16.86,9.57-33.86,14.42-50.77,12.97-45.22,25.62-90.53,38.58-135.75.34-1.2.6-2.42.93-3.63,3.61-12.98,7.37-25.91,10.99-38.89.74-2.65-.15-3.31-2.64-3.29-8.11.07-16.22.09-24.32-.02-1.58-.02-3.63.6-4.43-1.7Z" style="fill: #e9e8e8; stroke-width: 0px;"/>
  <path d="M428.84,41.32c4.73.06,9.45.11,14.18.17,4.99.95,10.06-.21,15.06.61,13.43.31,26.88.35,40.29,1.03,10.4.53,20.91.03,31.19,2.07,5.1,1.01,9.94,2.96,13.69,6.86,1.67,2.46,4.09,4.21,5.93,6.57,7.53,9.66,10.28,20.25,7.53,32.3-4.5,19.72-10.21,39.11-15.61,58.58-5.58,20.08-11.22,40.14-17.18,60.11-6.13,20.55-11.52,41.32-18.26,61.71-3.05,9.22-5.65,18.62-8.73,27.85-5.17,15.53-16.27,25.05-31.24,30.47-3.98,1.44-8.08,2.59-12.12,3.89-5.26,1.69-10.61,2.5-16.18,2.64-16.95.44-33.9-.11-50.85-.22-8.81-.06-17.7-.22-26.49-1.45-1.36-.19-2.72-.45-4.01-.9-3.17-1.11-4.25-2.78-3.44-6.02,2.16-8.59,4.44-17.12,8.53-25.11,2.19-4.27,5.31-6.75,9.71-8.05,5.87-1.74,11.88-2.9,17.8-4.42,4.84-1.24,8.56-3.76,11.14-8.14,2.09-3.54,4.3-7.03,6.65-10.41,7.84-11.26,18.31-19.23,30.8-24.75,5.6-2.48,11.49-4.18,17.14-6.62-5.8-2.74-11.01-.7-16.13,1.84-2.46,1.22-4.75,2.76-6.81,4.61-8.59,7.74-18.37,14.23-25.25,23.79-.5.7-1.11,1.39-2.15,1.19-1.39-1.79-.7-3.59.12-5.28,7.01-14.62,17.67-25.55,32.66-32.02,5.58-2.41,11.34-2.53,17.26-1.36,4.99.98,5.42.54,6.91-4.29,7.32-23.87,13.74-47.99,20.58-72,.68-2.4,1.08-4.87,1.74-7.28,1.13-4.15.11-6.87-3.26-9.52-2.63-2.06-5.82-2.82-8.82-4.02-13.73-5.51-21.59-17.04-21.67-31.91-.01-2.75-.07-5.48-.63-8.19-.94-4.6-3.53-7.3-8.07-8.19-2.7-.53-5.41-.84-8.18-.81-5.49.06-10.99.09-16.48-.03-1.47-.03-3.38.51-3.97-1.73,1.31-1.29,3.01-.95,4.58-.99,1.83-.05,2.73-.83,2.77-2.69.11-4.94,1.8-9.47,3.78-13.9.82-1.83,1.22-3.75,1.59-5.71.98-5.24,1.92-10.51,5.22-14.94,1.36-1.82-.23-1.95-1.36-2.42-1.49-.63-4-.12-3.6-3.02,1.21-.13,2.43-.27,3.62.13Z" style="fill: #96d29a; stroke-width: 0px;"/>
  <path d="M129.96,270.69c-1.1,2.39-.35,5.31-2.17,7.49-5,1.82-10.29,1.2-15.43,1.72-3.66.37-7.38.08-11.49-.05,1.2,2.55,3.12,3.08,4.97,3.75,4.88,1.74,10,1.97,15.07,2.52,1.63.18,3.26.22,4.36,1.7-1.84,6.64-3.85,13.25-5.47,19.94-1.33,5.5-2.77,11.03-2.48,16.78.76,1.75,1.35,3.5.11,5.29-.42.29-.89.45-1.4.46-16.44.43-32.92,1.49-49.33.5-12.31-.74-24.67.14-36.94-1.78-8.58-1.34-15.6-4.98-21.15-11.51-1.67-1.96-3.52-3.48-6.03-4.12-3.45-8.04-3.07-16.33-1.07-24.51,6.85-28.04,14.95-55.75,22.78-83.52,5.77-20.47,11.35-40.99,17.39-61.38,6.64-22.41,12.28-45.14,20.31-67.11,6.47-17.71,19.54-29.4,36.64-36.78,6.38-2.75,13.05-3.86,20.01-3.81,14.72.12,29.44.03,44.16.02,1.22.93,2.64.55,3.98.56,8.98.07,17.95.15,26.93.11,1.96,0,2.78.48,2.17,2.52-4.08,13.65-7.4,27.52-11.94,41.04-1.41,1.08-3.07.89-4.68.9-6.24.02-12.49.27-18.71-.07-5.77-.31-9.35,2.1-11.9,7.14-2.99,5.9-6.81,11.28-11.2,16.3-10.61,12.13-23.73,20.23-39.33,23.81-7.24,1.66-11.05,5.32-13.03,12.41-6.96,24.99-14.45,49.83-20.96,74.95-1.28,4.93-1.23,4.92,3.63,6.6,7.47,2.59,14.6,5.66,20.13,11.72,7.34,8.04,10.46,17.35,9.49,28.11-.12,1.37-.23,2.74-.08,4.11.44,3.94,2.69,6.24,6.61,6.13,7.58-.21,15.22-.15,22.53-2.76,1.2-.43,2.84-1.52,3.5.84Z" style="fill: #8bc78f; stroke-width: 0px;"/>
  <path d="M373.29,417.39c-8.92,2.57-17.98,1.33-27.02,1.12-10.73-.24-21.47-.1-32.19-.44-25.56-.82-51.12-1.16-76.69-1.53-15.46-.22-30.91-1.08-46.37-1.08-6.86,0-12.11-2.68-16.54-7.25-6.34-6.53-12.4-13.33-18.42-20.16-1.71-1.93-3.42-2.83-6.06-2.82-3.96.02-7.97.5-11.88-.59,2.42-1.97,5.27-.76,7.91-1.04,1.48-.16,2.98,0,4.47,0-6.63-7.11-13.22-14.24-19.63-21.54-2.06-2.34-4.44-4.39-6.28-6.91-1.03-1.41-2.76-2.82-1.12-4.92.97-.71,2.07-.92,3.2-.67,8.85,1.97,17.89.88,26.83,1.46,13.53.87,27.16.63,40.71,1.2,12.67.54,25.37.94,38.04,1.85,7.82.56,15.69.56,23.52.73,15.94.35,31.83,1.99,47.79,1.73,4.06-.07,7.59,1.51,10.34,4.49,7.62,8.25,15.87,15.87,23.64,23.97,7.15,7.46,14.75,14.49,21.58,22.26,3.18,3.61,6.78,6.58,11.52,7.99,1.07.32,2.58.44,2.66,2.14Z" style="fill: #999; stroke-width: 0px;"/>
  <path d="M404.1,271.41c9.4-12.25,21.08-22.05,33.93-30.38,4.52-2.93,9.9-5.02,15.53-2.16,1.35.69,2.26-.45,3.85-.61-2.23,3.17-5.35,4.1-8.34,5.03-9.09,2.85-17.76,6.66-25.47,12.22-7.38,5.32-13.59,11.84-18.48,19.68-3.66,5.88-6.17,13.09-14.05,15.13-4.81,1.24-9.64,2.36-14.45,3.59-2.52.65-5.01,1.41-7.51,2.14-6.26,1.82-7.28,7.79-9.67,12.53-3.1,6.14-3.95,13.06-6.06,19.56-.85,2.6.52,4.14,2.97,4.58,3.65.66,7.33,1.35,11.03,1.57,17.93,1.06,35.9.5,53.84.97,5.46.14,10.87-.38,16.3-.16,4.15.17,8.23-.25,12.15-1.53,9.56-3.11,19.52-5.17,28.06-10.94,7.96-5.37,14.19-12.26,17.36-21.33,8.33-23.82,15.17-48.12,22.33-72.3,7.01-23.69,13.61-47.5,20.33-71.28,3.31-11.71,6.5-23.46,9.74-35.19,3.17-11.48,6.59-22.9,8.74-34.64,1.86-10.17-.9-19.16-6.82-27.34-1.87-2.58-3.14-5.7-6.25-7.25-.44-.22-.35-.88.1-1.27,4.09,2.85,7.13,6.72,10.38,10.43,5.41,6.18,11.07,12.14,16.76,18.07,2.67,2.78,5.61,5.3,7.79,8.52,1.48,2.18,3.32,3.95,5.28,5.71,8.38,7.59,14.04,16.67,14.65,28.31-.98,1.49-1.4,3.21-1.69,4.9-3.65,21.19-10.72,41.48-16.12,62.21-5.16,19.78-11.15,39.32-16.83,58.94-3.74,12.9-7.08,25.94-11.3,38.73-3.35,10.15-5.94,20.59-9.16,30.81-2.82,8.91-5.35,17.94-9.52,26.36-4.34,8.77-10.14,16.3-19.2,20.73-1.85.9-3.94,2.55-5.88.87-2.07-1.78-.27-3.9.37-5.83.54-1.47,1.68-2.53,2.61-3.73,2.35-2.91,4.57-5.89,6.51-9.11.69-1.14,1.18-3.35,3.49-2.07.72,2.1-.67,3.55-1.6,5.14-1.17,2-2.83,3.75-3.14,6.38,3.08-1.51,5.77-3.44,7.81-6.2,2.62-3.53,4.69-7.33,6.06-11.54,6.13-18.74,11.64-37.67,17.07-56.63,3.68-12.83,7.54-25.62,11.28-38.43,2.62-8.98,4.9-18.06,7.46-27.06,5.56-19.56,11.2-39.1,16.49-58.74,2.92-10.84,5.97-21.66,7.89-32.73.79-4.56-.23-8.94-2.16-13.09-1.28-2.74-1.49-.29-2.01.49-2.22,2.79-2.18,6.33-2.88,9.54-2.82,12.93-6.75,25.54-10.65,38.16-1.48,4.78-2.25,9.71-3.84,14.46-5.19,15.49-9.11,31.36-13.71,47.03-3.69,12.55-6.91,25.26-10.77,37.75-7.22,23.33-13.02,47.13-22.05,69.85-4.2,10.57-12.69,17.68-22.58,23.05-.44.24.13,0-.35.14-1.69.51-3.55,1.11-4.91-.4-1.23-1.36.02-2.8.5-4.17.22-.52.53-.99.93-1.39,1.09-.88,2.05-1.86,2.49-3.25,2.45-4.13,5.53-7.83,7.94-11.99.5-.86,1.03-2.52,2.73-1.38.91,2.02-.26,3.58-1.1,5.24-1.33,2.63-3.62,4.73-4.66,8.18,3.31-1.33,5.38-3.39,7.3-5.59,4-4.58,6.51-9.88,8.39-15.7,13.46-41.82,24.57-84.32,37.08-126.42,3.87-13.02,7.07-26.25,10.76-39.33,3.83-13.57,7.77-27.1,10.68-40.9,1.02-4.83.83-9.68-.35-14.47-.32-1.31-.47-2.72-1.71-3.67-1.54.54-1.1,2.06-1.56,3.11-.61,1.38-1.12,2.77-.19,4.23.22,1.13.11,2.16-.9,2.91-2.19,1.26-2.85,3.57-2.98,5.69-.38,6.26-3.04,11.95-4.12,18.02-.29,1.6-.86,3.11.23,4.6.2.84-.14,1.49-.69,2.08-3.15,2.91-3.78,7-4.78,10.8-5.06,19.31-10.72,38.45-16.31,57.6-7.94,27.17-15.86,54.35-24.04,81.45-2.84,9.41-5.36,18.99-9.59,27.94-4.73,10.02-12.39,17.35-21.7,23.1-.64.39-1.33.69-2.04.93-1.69.57-3.51,1.06-4.99-.22-1.48-1.29-.73-2.99-.23-4.54,1.05-2.01,2.26-3.85,4.75-4.25.41.05.76.23,1.06.52,1.35,1.97,2.88,1.49,4.47.33,5.88-4.27,10.6-9.54,13.23-16.36,4.44-11.53,8.17-23.32,11.55-35.19,6.83-23.99,14.55-47.73,20.99-71.83,5.25-19.64,11.07-39.12,16.31-58.76,3.98-14.94,8.31-29.78,12.07-44.78,1.72-6.85,1.63-13.56-.27-20.3-.68-2.4-1.59-4.7-3.95-6.48.57,5.38.68,10.72-.46,15.98-3.08,15.03-7.53,29.71-11.6,44.48-3.97,14.42-7.98,28.82-12.06,43.21-6.75,23.86-13.52,47.71-20.45,71.52-4.7,16.15-8.99,32.42-14.37,48.37-.47,1.39-.63,2.97-2.01,3.9-.97.33-1.65.97-2.29,1.79-8.55,10.92-19.15,19.31-31.88,24.76-7.58,3.25-15.56,5.87-23.82,5.92-9.55.06-19.1.33-28.69-.05-12.9-.5-25.87-.29-38.81-.47-8.56-.12-17.18-.3-25.71-1.49-2.23-.31-4.44-.73-6.6-1.35-6.5-1.85-8.05-4.6-5.49-10.72,2.52-6.02,3.77-12.41,5.73-18.58,3.68-11.63,11.87-15.95,23.19-16.18,1.63-.03,3.24-.08,4.81-.59,3.5-.57,7.02-.06,10.52-.25,1.2-.22,2.48.3,3.94-.53-2.53-1.56-5.21-1.74-7.79-1.73-10.45.05-20.87-.29-31.23-1.69-4.73-.64-9.69-.53-13.98-3.19-.36-1.15.71-1.93.76-2.97.95-.92,2.06-.67,3.16-.42,14.75,3.4,29.74,4.4,44.82,4.54,2.27.02,4.42.44,6.54,1.29,4.15,1.67,4.86,1.42,7.96-2.17,2.65-3.56,3.84-8.2,7.84-10.8Z" style="fill: #6fc277; stroke-width: 0px;"/>
  <path d="M373.29,417.39c-7.49-2.04-12.88-6.75-17.86-12.61-2.98-3.5-6.09-7.15-9.95-9.96-1.86-1.36-3.17-3.46-4.79-5.16-9.14-9.55-18.98-18.41-27.79-28.3-2.23-2.51-5.49-3.95-9.07-3.78-10.1.49-20.17-.52-30.24-.9-13.55-.51-27.12-.76-40.63-1.57-10.68-.64-21.44.43-32.03-1.36-6.59-1.12-13.19-.7-19.77-.61-9.85.13-19.72-.38-29.48-1.12-8.65-.65-17.47,1.05-25.99-1.65-.72-.23-1.68.29-2.52.47-2.74-.53-2.94-3.04-3.65-4.97-1.4-3.79-2.08-7.81-3.17-11.7-.14-1.48-.36-2.98.73-4.25.08-1.79.17-3.59.25-5.39,2.24,1.42,2.85,4.03,4.29,6.03,1.18,1.63,2.53,2.83,4.5,2.98,7.42.57,14.84,1.2,22.27,1.52,14.41.62,28.84.68,43.23,1.64,14.87.99,29.75,1.62,44.63,2.33,13.63.66,27.27,1.35,40.89,2.24,5.98.39,11.93.39,17.89.54,5.64.15,10.03,1.93,13.81,6.63,4.09,5.1,9.56,9.06,14.12,13.83,4.51,4.72,9.38,8.89,15.14,11.97.91.49,1.83,1.71,2.94.61.81-.8.91-1.87.56-3.12-1.51-5.37-3.07-10.73-3.42-16.35,1.87-.55,2.69.94,3.57,2.01,8.21,9.99,17.58,18.94,25.99,28.76,1.29,1.51,2.75,2.89,4.48,3.91,1.01.72,2.04,1.41,3.22,1.8,6.13,2.03,10.33,6.11,12.8,12.02-1.73,5.74-9.79,13.02-14.94,13.51Z" style="fill: #c2c2c2; stroke-width: 0px;"/>
  <path d="M117.22,334.36c1.22,4.24,2.35,8.52,3.71,12.71.44,1.36,1.48,2.52,2.24,3.77,2.02,5.48,6.93,8.65,10.5,12.88,5.85,6.92,12.17,13.45,19.02,20.93h-14.58c-18.67-.55-37.34-1.34-56.01-1.59-16.42-.23-28.7-6.91-38.63-20.18-4.54-6.07-10.01-11.93-15.8-17.19-.74-.67-1.5-1.32-2.16-2.06-4.35-4.88-8.24-10.17-13.2-14.49,1.38-2.81,3.43-1.17,5.01-.52,4.62,1.9,9.17,3.93,14.25,4.24,5.34.33,10.65.93,16.01,1.15,11.57.48,23.14.62,34.72.73,10.47.1,20.9-.6,31.35-1,1.25-.05,2.5-.28,3.57.61Z" style="fill: #245726; stroke-width: 0px;"/>
  <path d="M509.73,360.53c.13,1.95-2.75,3.87-.93,5.48,1.92,1.69,3.91-.63,5.69-1.5,8.57-4.21,14.18-11.42,18.01-19.77,7.23-15.75,11.38-32.6,16.47-49.11,4.49-14.56,8.27-29.33,12.83-43.88,3.93-12.55,6.85-25.4,10.83-37.94,4.69-14.78,8.45-29.83,12.6-44.76,3.77-13.58,8.57-26.97,10.06-41.15.18-1.74.3-4.13,2.81-4.8,1.54,7.36-.6,14.37-2.42,21.3-10.69,40.88-22.42,81.47-34.03,122.1-7.64,26.75-15.16,53.53-23.47,80.09-.14.45-.48.83-.73,1.25-4.06,4.82-8.25,9.47-13.19,13.46-4.37,3.54-9.09,6.48-13.94,9.27-.54.31-1.13.53-1.73.69-1.91.54-4.11,1.47-5.6-.27-1.67-1.94.28-3.66,1.22-5.32.61-1.08,1.36-2.08,1.82-3.24.9-1.26,1.65-2.82,3.67-1.9Z" style="fill: #6fc176; stroke-width: 0px;"/>
  <path d="M117.22,334.36c-14.24,1.76-28.55,1.29-42.84,1.55-10.97.2-21.89-.66-32.83-1-8.47-.26-17.14-.83-24.86-5.37-1.14-.67-2.78-2.05-4.39-.41-4.73-4.34-7.9-9.64-9.72-15.76,2.08-1.22,3.69-.82,5.11,1.2,6.67,9.54,16.19,13.26,27.51,13.85,20.39,1.05,40.78,1.55,61.19,1.44,5.6-.03,11.13-1.21,16.75-.77,1.36.11,2.76-.11,3.93.84.05,1.48.1,2.96.15,4.44Z" style="fill: #519c56; stroke-width: 0px;"/>
  <path d="M482.05,390.42c-12.31.62-24.62.2-36.93.13-15.43-.09-30.85-.37-46.27-.6-6.38-.09-6.63.09-7.58,6.48-3.45.71-5.6-1.21-7.46-3.7,1.22-1.26,3.01-.61,4.72-1.38-1.18-1.08-3.35-.46-3.65-2.38.11-2.38,1.95-3.1,3.73-3.62,3.83-1.11,7.69-2.02,11.74-2,11.2.07,22.41.22,33.59-.12,11.17-.34,22.41.05,33.53-1.69,1.24-.19,2.48-.31,3.66.27-.21,1.65.55,2.14,2.17,2.29,6.18.57,12.35,1.3,18.56,1.66,1.76.1,3.9-.12,4.4,2.42-2.44.49-4.69,1.77-7.27,1.68-2.26.73-4.66-.2-6.92.55Z" style="fill: #38673a; stroke-width: 0px;"/>
  <path d="M506.73,362.81c-.3,2.07-2,3.36-2.88,5.1-.38.74-1.06,1.51-.57,2.42.61,1.11,1.77.8,2.67.67,1.96-.28,3.78-1.01,5.52-2.04,9.21-5.46,17.61-11.86,24.13-20.49.47-.62.77-1.82,1.86-.62-2.44,7.69-6.51,14.45-11.82,20.48-4.26,2.27-7.63,5.94-12.27,7.66-5.98,2.21-11.93,4.44-18.44,4.29-1.58-.04-3.45.29-4.32-1.5-.9-1.85.32-3.34,1.3-4.79.77-1.14,1.78-2.09,2.73-3.07,1.09-1.01,2.14-2.07,3.49-2.75,1.93-.74,3.11-2.45,4.69-3.64,1.14-.86,2.17-2.15,3.91-1.71Z" style="fill: #53a359; stroke-width: 0px;"/>
  <path d="M495.54,371.09c-1.08,1.36-2.18,2.7-3.22,4.08-.73.98-1.77,1.96-1.05,3.33.67,1.27,2,.79,3.04.77,9.43-.19,17.99-2.98,25.82-8.31,1.62-1.1,2.88-3.47,5.51-2.64-8.04,9.23-17.63,16.17-29.4,19.87-1.01-1.06-2.29-1.33-3.71-1.43-6.41-.45-12.82-.97-19.23-1.49-1.91-.16-3.73-.47-1.78-2.98.48-1.39,1.74-1.72,2.92-2.05,6.18-1.73,11.78-4.62,17.1-8.17,1.16-.77,2.32-2.1,4-.99Z" style="fill: #3e7d42; stroke-width: 0px;"/>
  <path d="M383.91,392.84c2.54,1.01,4.58,3.05,7.35,3.6-1.01,2.48-2.02,4.97-3.03,7.45-3.89-6.38-9.89-10.12-16.43-13.2.68-.94,1.72-1.1,2.66-.8,3.15.98,6.59,1.04,9.45,2.96Z" style="fill: #7a7c7b; stroke-width: 0px;"/>
  <path d="M458.08,42.1c-5.02-.13-10.09.78-15.06-.61.54-.05,1.07-.1,1.61-.16,4.47.56,9.03-.64,13.45.77Z" style="fill: #d0d4d0; stroke-width: 0px;"/>
  <path d="M482.05,390.42c2.22-1.26,4.6-.48,6.92-.55-2.24,1.01-4.59.61-6.92.55Z" style="fill: #3e7d42; stroke-width: 0px;"/>
  <path d="M129.96,270.69c-.99-1.26-1.97-.4-3-.03-8.22,3-16.8,3.05-25.37,2.94-2.67-.03-5.25-3.79-5.28-7.17-.05-5.04.59-9.99-.56-15.11-2.81-12.55-10.55-20.53-21.96-25.46-2.62-1.13-5.3-2.27-8.07-2.89-3.23-.72-4.09-1.95-3.17-5.33,6-22.16,12.15-44.28,18.68-66.3,1.34-4.52,2.82-9.01,3.94-13.59,1.35-5.53,4.89-8.26,10.27-9.45,10.93-2.42,21-6.77,29.97-13.64,9.45-7.22,16.95-16.08,22.37-26.58,2.76-5.35,6.29-8.11,12.59-7.76,7.84.44,15.72.16,23.58.18-1.57,8.31-4.39,16.29-6.66,24.4-7.26,25.95-14.57,51.89-21.92,77.82-7.31,25.81-14.68,51.6-22.06,77.39-1.02,3.55-1.47,7.29-3.35,10.56Z" style="fill: #b6e9bc; stroke-width: 0px;"/>
  <path d="M211.71,185.35c4.39.81,6.42,4.53,8.91,7.51,7.74,9.26,26.34,10.04,34.28,1.18,2.55-2.84,4.45-6.08,2.32-10.11.79-4.59.08-6.11-3.91-8.56-3.75-2.29-8.01-3.36-12.01-5.04-7.82-3.28-15.57-6.61-21.74-12.7-1.18-1.16-2.81-1.57-4.22-2.34-4.11-6.18-3.84-13.2-2.59-19.84,4.43-23.52,19.8-36.76,42.06-42.97,2.45-.68,3.86-1.7,4.52-4.16,1.76-6.59,3.78-13.12,5.49-19.73.88-3.4,2.53-5,6.28-4.84,7.1.29,14.22.25,21.33.15,2.64-.04,4.9.57,6.91,2.23,2.88,1.45,3.24,3.67,2.36,6.59-1.73,5.73-3.34,11.51-4.89,17.29-.62,2.3-.35,3.84,1.96,4.84,8.05,3.48,13.87,9.62,19.23,16.28,3.81,4.74,3.58,6.76-1.1,10.58-5.81,4.72-11.3,9.82-17.17,14.46-1.52,1.2-2.84,2.89-5.08,2.85-3.47-5.16-8.11-9.28-12.33-13.76-5.57-5.91-12.84-7.29-20.58-5.95-5.64.98-6.52,2.55-5.78,8.15.18,1.37.55,2.67,1.06,3.94-.85,4.36,1.67,6.3,5.29,7.65,8.53,3.17,17.11,6.29,24.49,11.81,10.48,7.84,18.05,17.3,16.34,31.47-1.47,12.18-5.89,23.12-13.9,32.52-.89,1.04-1.83,2.07-3.34,2.2-2.54-.98-5.04-.71-7.66-.1-9.22,2.15-17.79,6.3-26.98,8.53-1.9.46-2.06,1.53-.8,2.95,1.92,2.15,3.31,4.64,4.44,7.29.63,2.36-.72,4.35-1.25,6.48-1.48,5.9-3.2,11.73-4.95,17.55-.54,1.79-1.1,3.66-3.54,3.66-.6-.21-1.2-.5-1.54-1.01-3.8-5.66-9.33-6.82-15.69-6.47-5.19.28-10.45.35-15.5-1.4-1.24-1.33-.63-2.79-.24-4.2,1.43-5.13,2.86-10.26,4.38-15.36,2.62-7.22,2.56-7.04-4.86-9.46-6.65-2.16-12.87-5.24-18.15-10.03-1.62-1.47-3.14-3.88-6.04-2.3-3.73-2.48-3.94-5.37-.6-8.83,2.77-2.86,5.91-5.33,8.99-7.81,4.05-3.25,7.75-6.93,12.13-9.79,1.21-.79,2.33-1.2,3.65-1.41Z" style="fill: #f0be6a; stroke-width: 0px;"/>
  <path d="M285.83,216.84c8.77-8.22,13.41-18.6,15.65-30.19,3.22-16.64-2.55-26.56-18.76-37.35-6.15-4.1-13.17-6.38-19.99-9.07-.69-.27-1.4-.53-2.07-.84-5.26-2.45-5.28-2.5-4.2-8.12,1.58-3.89,5.09-4.86,8.65-5.27,9.77-1.11,18.2,1.44,24.22,9.75,1.36,1.87,3.15,2.69,5.33,2.96,7.1-4.6,12.95-10.74,19.54-15.96.39-.31.72-.69,1.1-1.01,6.06-5.12,5.94-5.38.88-11.39-5.44-6.46-11.46-12.09-19.27-15.51-1.77-.78-2-1.72-1.47-3.47,1.82-6.04,3.31-12.19,5.27-18.18.91-2.8.77-5.02-1.35-7.05,5.34.21,6.31,1.43,6.69,6.75.39,5.47-1.03,10.76-1.16,16.18-.09,3.48,1.08,6.12,3.7,7.89,4.92,3.34,8.7,7.82,12.68,12.08,2.35,2.51,1.73,9.92-.64,12.52-5.66,6.21-11.22,12.54-18.15,17.44-2.48,1.75-5.13,2.96-8.26,2.84-3.38-.14-6.18,1.31-9.03,3.13,4.34,3.16,8.81,5.66,12.32,9.13,9.36,9.23,11.29,20.78,9.44,33.37-1.15,7.79-4.35,14.7-8.24,21.39-3.32,5.72-8.18,10.15-13.19,14.14-5.1,4.06-10.74,7.52-16.79,10.3-4.95,2.27-8,6.33-9.38,12.1-1.47,6.15-2.9,12.61-7.53,17.57-.97,1.04-2.09,2.38-3.32,2.21-6.84-.93-12.95,3.13-19.75,2.57-4.44-.37-8.87-.03-13.29-1.34-7.09-2.1-9.62-5.63-8.18-12.92.62-3.14.67-6.33,1.23-9.49.8-4.53-.81-6.06-6.38-8.6-6.28-2.87-11.47-7.48-16.27-12.21-6.37-6.27-4.62-11.95.72-19.23,3.69-5.02,9.17-8.04,13.64-12.2,2.48-2.31,5.42-4.14,8.11-6.23,1.13-.88,2.23-.99,3.41-.19-6.15,3.21-10.7,8.46-16.1,12.62-2.47,1.9-4.75,4.02-7.17,5.99-3.83,3.12-4.03,5-.85,8.99,2.72,1.24,4.17,3.85,5.95,5.96,5.76,6.86,12.86,11.51,21.34,14.17,1.08.34,2.13.7,2.68,1.82-1.72,6.44-3.44,12.88-5.16,19.31.55.75.47,1.64.6,2.5.59,4.05,2.6,5.98,6.71,6.07,6.98.17,13.96.05,20.94.05,1.63,0,3.24.01,4.81.5,2.15-1.02,2.11-3.24,2.63-5.06,2.14-7.58,4.16-15.19,6.22-22.79.32-1.59,1.6-2.19,2.92-2.55,9.58-2.56,17.68-7.72,25.15-14.04,1.01-.86,1.94-1.98,3.45-2.06Z" style="fill: #eae7e7; stroke-width: 0px;"/>
  <path d="M383.91,392.84c-4.24.43-7.9-2.4-12.11-2.15-1.71-.12-2.52-1.5-3.51-2.58-8.81-9.69-17.6-19.4-26.43-29.08-1.16-1.28-2.47-2.42-3.7-3.63-2.26-2.73-4.53-5.47-6.79-8.2.65-2.56,2.5-1.7,3.82-1.06,2.59,1.26,5.28,1.2,8.02,1.36,18.32,1.1,36.67.04,54.97.84,12.1.53,24.18.42,36.27.53,8.47.08,16.96-.07,25.15-2.82,1.13-.38,2.82-1.01,2.93,1.32-.19.44-.47.82-.83,1.13-8.77,4.54-18.36,5.52-27.95,5.65-21.44.29-42.88.08-64.32.11-3.5,0-6.93-.85-10.43-.77-2.38.06-4.74.2-7,1.01-.93.33-2.01.66-2.12,1.84-.1,1.13.79,1.77,1.62,2.34,1.56,1.06,3.21,2.02,5.14,2.08,3.49.12,6.94.87,10.43.86,30.16-.09,60.3,1.29,90.46.84,5.05-.08,9.74-1.97,14.71-2.27.63,2.09.48,2.51-1.92,3.47-4.43,1.76-9.03,2.82-13.78,3.3-7.95.81-15.9.93-23.9.83-17.97-.22-35.95-.04-53.92-.09-4.02-.01-7.96.63-11.93,1-1.32.12-3.16.13-3.48,1.64-.37,1.76,1.48,2.36,2.73,3.1,1.08.64,2.3.95,3.52,1.23,1.59.37,3.21.49,4.83.49,31.32.02,62.63,1.26,93.95.77,4.51-.07,8.94-.62,13.32-1.7,1.16-.29,2.78-1.07,3.33.32.69,1.73-1.25,2.16-2.38,2.71-5.94,2.92-12.37,3.86-18.87,3.91-16.35.14-32.71.23-49.05-.02-11.12-.17-22.18,1.15-33.29.85-.24,0-.37.01-.37.02-1.84.37-4.77-.24-4.87,2.18-.1,2.26,2.33,3.64,4.62,4.24,1.54.41,3.28.13,4.61,1.3.98.02,1.97.02,2.95.08.93.06,2.19-.18,2.1,1.33-.07,1.2-1.04,1.58-2.1,1.62-1.47.06-2.95.06-4.42.08Z" style="fill: #1b441c; stroke-width: 0px;"/>
  <path d="M397.34,281.88c-1.94,4.79-4.33,5.96-8.75,3.79-2.46-1.21-4.9-1.54-7.56-1.55-15.92-.06-31.71-1.41-47.23-5.16,4.74-16.94,9.44-33.89,14.21-50.82,7.47-26.45,14.98-52.89,22.49-79.33,5.48-19.3,11-38.59,16.48-57.88.57-2.02,1.04-4.08,1.56-6.12,3.74-1.72,7.55-1.28,11.38-.43,1.44,2.03-.44,2.76-1.6,3.2-3.02,1.12-4.28,3.43-5.44,6.2-4.47,10.63-6.22,22.08-10.09,32.88-2.75,7.67-3.87,15.74-5.78,23.61-1.07,4.39-2.88,8.5-4.09,12.82-3.37,11.99-6.13,24.13-9.5,36.13-6.43,22.89-12.36,45.95-16.97,69.32-.87,4.4.11,6.35,4.42,7.53,7.52,2.06,15.3,2.1,23,2.47,4.88.24,9.74.35,14.41,1.85,2.97.95,6.3-.48,9.07,1.5Z" style="fill: #96d29a; stroke-width: 0px;"/>
  <path d="M400.41,84.98c-3.96-.06-7.92-.11-11.88-.17,4.16-14.48,8.32-28.96,12.5-43.44.44-1.52,1.02-3.01,1.53-4.51,3.51-.1,6.29,2.43,9.83,2.58,4.26.19,8.55.64,12.64,2.08,1.57,2.3,4.48,1.04,6.41,2.39.68.47,2.41.82,1.01,1.94-4.76,3.81-5.46,9.45-6.2,14.69-.82,5.79-4.37,10.56-5.08,16.26-.05.36-.22.71-.36,1.06-.93,2.2,1.26,5.47-1.47,6.7-1.98.9-4.65.3-7.01.36-3.97,1.76-7.94,1.69-11.92.04Z" style="fill: #69bd6f; stroke-width: 0px;"/>
  <path d="M506.73,362.81c-3.23,1.33-4.8,4.94-8.24,5.99-1.93-.67-3.29.67-4.81,1.4-10.08,4.9-20.54,6.42-31.45,3.33-1.83-.52-4.65-.65-4.79-2.84-.16-2.44,2.72-2.98,4.58-3.69,6.05-2.32,11.94-4.92,16.91-8.93-.78.12-1.57.76-2.52.97-7.74,2.02-15.54,1.63-23.31.38-2.01-.32-4.71-.6-5.04-3.12-.33-2.63,2.44-3.11,4.22-4.1,3.05-1.69,6.54-2.42,9.48-4.37l.03-.02c1.19-.65,1.84-2.07,3.29-2.48-10.81,2.75-21.8,1.09-32.69,1.24-15.31.22-30.63.27-45.96-.32-13.14-.51-26.38-1.17-39.52,1.04-3.71.62-7.46,0-11.12-.89-1.94-.47-3.89-.87-5.9-.73-1.54-1.32-3.27-2.47-3.96-4.53,1.16-1.16,2.56-.59,3.89-.55,6.1.16,12.18.18,18.29-.29,8.94-.7,17.94-.55,26.9-.07,5.59.3,11.18.37,16.76.46,14.45.24,28.89.08,43.34.39,11.62.25,23.13-1.08,34.38-4.17,2.67-.73,5.12-1.94,7.58-3.16,1-.5,2-1.04,3.09-1.33,1.1-.29,2.37-.59,3.1.49.74,1.09-.6,1.7-1.05,2.5-1.67,2.92-4.51,4.6-7.08,6.55-2.89,2.19-5.73,4.42-8.13,7.14-.57.65-1.32,1.36-.93,2.29.44,1.07,1.54,1.18,2.55,1.16,2.65-.07,5.14-.95,7.67-1.6,5.89-1.53,11.89-2.73,17.22-5.94,1.26-.76,2.77-1.48,3.8.48-1.32,3.37-3.91,5.67-6.71,7.72-3.54,2.6-6.73,5.57-9.71,8.77-.73.78-1.92,1.62-1.26,2.84.62,1.17,2.03.9,3.08.71,7-1.25,14.07-2.32,20.28-6.15,2.04-1.26,4.18-2.27,6.52-2.75.84-.17,2.32-1.14,2.43.93-.74.99-1.49,1.98-2.23,2.97-1.5.1-2.3,1.12-3,2.28Z" style="fill: #3e7d42; stroke-width: 0px;"/>
  <path d="M371.16,290.16c-2.97,1.51-6.31,1-9.42,1.32-8.14.83-13.04,4.97-16.11,12.37-3.2,7.71-4.3,16.06-7.75,23.67-1.23,2.7-.08,4.55,2.5,5.68,5.79,2.53,12.02,2.79,18.16,3.38,14.26,1.38,28.58.8,42.86,1.03,10.72.17,21.45.69,32.18.52,14.05-.23,27.56-2.54,39.89-9.65,9.56-5.51,17.97-12.4,24.69-21.24.61-.8.72-2.84,2.58-1.34,1,1.33.13,2.58-.18,3.85-.91,1.86-1.4,3.89-2.3,5.75-.63,1.31-1.37,2.62-3.1,2.76-1.34-.13-2.04.92-2.74,1.7-6.55,7.31-15.4,11.01-24.11,14.56-10.52,4.3-21.49,6.95-33.14,6.27-8.69-.51-17.45.16-26.16-.16-20.15-.74-40.32-.94-60.47-1.56-6.45-.2-12.8-1.86-19.26-2.47-3.04-.29-5.42-2.37-7.68-4.36-1.17-3.83-.64-7.69.32-11.38,2.02-7.79,4.4-15.5,6.63-23.24,3.58-3.25,7.7-5.14,12.54-6.05,8.45-1.58,16.86-3.08,25.49-2.5,1.58.11,3.27-.22,4.56,1.1Z" style="fill: #62b468; stroke-width: 0px;"/>
  <path d="M321.62,332.23c.2-.13.53-.42.58-.38,6.13,5.4,14.1,3.72,21.16,5.49,4.4,1.1,8.9.64,13.37.77,14.18.4,28.39.31,42.54.95,13.95.64,27.88.4,41.81.46,12.97.05,24.7-4.61,36.16-10.34,6.1-3.05,11.62-6.6,16.12-11.73.9-1.02,1.89-1.45,2.23.5.41,1.91-.88,3.18-1.73,4.61-1.02,1.08-1.69,2.39-2.39,3.67-.27.43-.59.82-.94,1.19-1.6,1.33-2.47,3.29-4.04,4.64-1.51.98-2.76,2.23-3.72,3.76-1.39,2.44-3.11,4.68-4.63,7.85,4.28-.27,7.71-1.44,10.82-3.4,6.28-3.95,12.71-7.72,17.67-13.43.81-.93,1.69-1.83,2.74-2.51,1.37-.9,2.34-.77,2.48,1.13-.47,1.98-.63,4.14-2.86,5.14-3.24,4.75-6.48,9.5-9.72,14.24-.53.66-.89,1.49-1.84,1.69-.15-.08-.3-.16-.46-.24-.41-2.2-1.54-1.36-2.66-.63-7.59,4.91-16.49,5.82-24.94,8.08-1.79.48-4.07.16-5.01-1.55-1.08-1.96,1.14-3,2.24-4.25,3.33-3.76,7.54-6.45,11.49-9.46,1.86-1.42,3.45-3.17,5.46-5.05-2.08-1.05-3.31-.06-4.51.57-10.71,5.58-22.3,7.59-34.16,7.77-18.46.29-36.93.27-55.39,0-11.38-.17-22.76-.64-34.15-.74-4.5-.04-8.9.91-13.38.83-5.34-.1-10.7.36-15.99-.7-2.9-2.26-4.47-5.17-4.33-8.91Z" style="fill: #53a359; stroke-width: 0px;"/>
  <path d="M329.91,345.67c2.86-1.71,5.94-.33,8.54.19,5.59,1.14,10.91-.07,16.29-.52,8.57-.72,17.09-.42,25.66-.17,4.28.13,8.58.29,12.87.34,13.96.17,27.92.27,41.88-.03,6.43-.13,12.84.32,19.26.12,4.09-.13,8.15-.11,11.92-2.1.65-.34,1.65-.52,2.57.49-2.42,1.31-4.3,3.33-7.09,3.81.48-1.19.13-1.79-1.11-1.23-8.33,3.76-17.2,3.37-26,3.44-8.73.07-17.48.42-26.18-.07-18.18-1.03-36.38-.22-54.55-.77-5.2-.16-10.42-.63-15.64-.65-1.23,0-2.05-.56-2.99-1.23-1.2-.86-2.6-1.71-3.95-.11-.73-.28-1.19-.81-1.46-1.53Z" style="fill: #3a693c; stroke-width: 0px;"/>
  <path d="M215.34,155.29c2.41-1.36,3.83.65,5.09,1.87,7.75,7.55,17.69,10.89,27.43,14.67,3.49,1.35,6.97,2.73,9.53,5.67,1.92,2.21,2.27,4.35-.17,6.43-7.57-3.79-15.9-5.84-23.28-10.03-7.87-4.47-14.81-9.99-18.6-18.6Z" style="fill: #de8d47; stroke-width: 0px;"/>
  <path d="M371.16,290.16c-11.27-.84-22.31.89-33.3,3.06-1.86.37-3.4,1.47-4.99,2.47-1.32.83-2.45,2.25-4.31,1.92,1.25-4.47,2.5-8.94,3.75-13.42,1.24-1.18,2.67-.93,4.19-.72,12.27,1.7,24.57,3.1,36.97,3.31,2.12.04,4.23.18,6.26.79,1.28.38,2.76.67,2.61,2.56-3.73,0-7.46.02-11.2.03Z" style="fill: #409f46; stroke-width: 0px;"/>
  <path d="M125.28,287.81c-6.42-1.26-13.08-.97-19.4-3-2.67-.86-5.12-1.79-6.51-4.52-.87-1.72.02-2.22,1.31-1.95,9.06,1.85,18.07-.69,27.11-.16-.2,3.38-1.76,6.4-2.51,9.63Z" style="fill: #47a44d; stroke-width: 0px;"/>
  <path d="M425.03,41.53c-5.73.14-11.36-.87-16.96-1.81-1.94-.33-3.67-1.87-5.5-2.85.22-.96.32-1.96.68-2.87,1.03-2.6,2.63-5.17,5.34-5.74,2.45-.51,3.46,2.28,4.85,3.97,4.01,4.9,8.71,8.71,15.41,9.09-1.27.07-2.54.14-3.81.21Z" style="fill: #d0d4d0; stroke-width: 0px;"/>
  <path d="M382.36,290.13c-1.23-2.41-3.8-1.67-5.67-2.03-3.74-.72-7.64-.88-11.47-.9-9.82-.05-19.42-2.26-29.17-2.88-1.24-.08-2.48-.09-3.73-.13-.37-.95.26-1.58.71-2.27,5.53.44,10.89,1.91,16.45,2.4,8.01.7,15.99,1.53,24.04,1.32,3.72-.1,7.42.09,11.07.8.95.18,1.89.57,2.76,1.01.65.33,1.41.88,1.26,1.68-.15.84-1.02.99-1.79,1-1.49.02-2.98,0-4.47,0Z" style="fill: #62b468; stroke-width: 0px;"/>
  <path d="M400.41,84.98c3.97-.01,7.95-.03,11.92-.04,1.27,1.19,2.85.61,4.29.68,7.46.37,14.94-.46,22.4.54,10.16,1.37,11.31,6.71,11.39,13.98.07,6.56.91,12.8,3.62,18.87,4.02,9.04,11.22,14.02,20.27,16.85,2.53.79,4.88,1.86,6.96,3.47,3.15,2.44,4.11,6.03,3.11,9.95-5.59,21.89-12.02,43.55-18.14,65.3-1.51,5.38-3.1,10.74-4.78,16.07-.89,2.8-2.04,4.56-5.92,3.53-12.62-3.35-22.88,1.77-32.5,9.58-7.52,6.1-13.17,13.45-17.57,21.94-.94,1.83-1.58,3.65-1.36,5.71-2.25,3.49-4.51,6.98-6.76,10.48-4.37.19-8.59-.35-12.9-1.34-7.15-1.65-14.59-.76-21.87-1.59-4.31-.49-8.64-.78-12.8-2.09-4.2-1.33-5.63-3.7-4.67-7.85,3.68-15.93,7.32-31.87,11.11-47.77.74-3.11,2.25-6.04,3.07-9.15,2.74-10.4,5.18-20.87,8.48-31.14,1.71-5.32,1.87-11.17,3.71-16.6,6.23-18.33,9.59-37.45,15.46-55.9,1.95-6.13,4.13-12.18,6.07-18.31.54-1.72,2.1-2.39,3.66-2.91,1.43-.47,2.87-.88,3.74-2.26Z" style="fill: #c1efc6; stroke-width: 0px;"/>
  <path d="M92.54,253.32c-2.88-3.4-5.7-6.71-9.1-9.58-3.69-3.11-7.65-5.52-11.95-7.49-2.84-1.31-4.65-3.7-6.78-5.77-.67-.65-.95-1.58-.51-2.41.64-1.21,1.51-.26,2.23,0,3.15,1.14,6.28,2.33,9.3,3.84,7.84,3.93,12.53,10.7,16.61,18.03.46.83,1.34,1.93.19,3.37Z" style="fill: #58b35f; stroke-width: 0px;"/>
  <path d="M508.96,330.59c.76-1.74,1.52-3.49,2.27-5.23.86-7.72,4.09-14.78,6.27-22.11,8-26.88,15.5-53.9,23.24-80.85,7.54-26.23,14.84-52.52,22.19-78.8.54-1.92,1.19-3.8,2.27-5.51.61-.33.7-.88.66-1.49-1.15-2.3.26-4.32.79-6.4,1.65-6.46,3.36-12.9,4.84-19.4.22-.97.33-1.96,1.18-2.64,1.05-.82.67-1.98.71-3.04-.61-1-.56-2,.02-2.99.1-2.21-.12-5.84,1.71-5.93,2.81-.14,2.88,3.52,3.45,5.79,2.36,9.44-.36,18.44-2.69,27.46-5.62,21.73-12.07,43.23-17.72,64.96-4.31,16.58-9.56,32.91-14.36,49.36-5.87,20.15-11.66,40.32-17.59,60.45-2.42,8.22-4.83,16.46-7.81,24.48-2.56,6.9-7.27,12.4-13.4,16.58-.67.45-1.51,1.25-2.34.56-.77-.64-.48-1.67-.04-2.42,1.58-2.67,3.18-5.33,4.88-7.92,1-1.51,1.68-3.04,1.45-4.89Z" style="fill: #a8d7ab; stroke-width: 0px;"/>
  <path d="M586.17,113.36c.34-1.36-.81-3.59.82-3.96,1.61-.37,1.88,1.99,2.5,3.23,2.91,5.81,2.94,11.86,1.5,18.1-5.8,25.3-13.09,50.21-20.2,75.15-10.78,37.86-21.23,75.81-32.85,113.43-2.28,7.37-4.56,14.72-6.97,22.04-2.38,7.23-6.93,12.85-13.05,17.25-.72.52-1.67,1.55-2.6.57-.71-.75-.52-1.97-.02-2.83,1.23-2.16,2.56-4.27,3.95-6.33.92-1.36,1.85-2.67,1.73-4.42-1.12-1.29-.35-2.5.19-3.69,1-2.2,1.84-4.47,2.75-6.71,4.55-12.17,7.71-24.77,11.4-37.21,8.46-28.47,16.59-57.03,24.64-85.62,7.74-27.5,15.6-54.98,22.72-82.66,1.15-4.47,2.23-8.96,2.49-13.59.06-1,.27-1.98,1-2.76Z" style="fill: #a6d5a9; stroke-width: 0px;"/>
  <path d="M499.99,309.61c.26-1.24.51-2.48.77-3.72,3.93-10.2,6.68-20.77,9.73-31.24,4.92-16.92,9.91-33.83,14.76-50.77,4.89-17.06,9.65-34.16,14.47-51.24,3.53-12.55,7.23-25.05,10.54-37.65,3.53-13.44,7.6-26.74,10.47-40.34.72-1.11,1.16-2.76,2.95-2.26,1.48.41,1.99,1.81,2.26,3.19.47,2.49.27,4.96-.3,7.42-5.96,25.78-13.11,51.24-20.36,76.67-5.03,17.64-10.01,35.28-15.03,52.92-6.75,23.76-13.79,47.44-20.9,71.09-1.83,6.08-3.9,12.14-7.4,17.53-1.26,1.93-2.87,4.89-5.38,3.37-2.54-1.54-1.11-4.44.23-6.65,1.57-2.58,2.32-5.48,3.19-8.33Z" style="fill: #aad8ad; stroke-width: 0px;"/>
  <path d="M586.17,113.36c.31,9.75-3.02,18.82-5.49,28-6.09,22.64-12.41,45.22-18.8,67.77-9.36,33.06-18.76,66.11-28.35,99.1-2.7,9.28-5.08,18.67-8.82,27.62-6.46,7.3-13.54,13.85-22.12,18.66-2.84,1.59-5.64,3.18-8.92,3.67-1.43.21-2.82.09-3.6-1.32-.85-1.53-.41-3.01.85-4.02,1.78-1.42,2.68-3.95,5.32-4.29.38,1.54-2.38,3.06-.54,4.26,1.59,1.03,3.61,0,5.27-.98,11.73-7.04,20-16.68,23.9-30.09,4.54-15.62,9.96-30.99,14.37-46.65,3.53-12.51,7.18-24.98,10.81-37.45,4.96-17.02,9.26-34.23,14.65-51.11,5.17-16.17,9.13-32.68,14.3-48.85,2.21-6.9,4.01-14.05,4.92-21.33.17-1.38.47-2.76,2.24-3Z" style="fill: #6fc176; stroke-width: 0px;"/>
  <path d="M499.99,309.61c.45,3.18-1.38,5.73-2.37,8.51-.25.7-.74,1.32-.96,2.03-.44,1.39-1.16,3.24.36,3.99,1.2.59,2.32-.82,3.15-2.03,5.2-7.64,7.53-16.45,10.15-25.11,4.64-15.33,9.19-30.69,13.61-46.09,5.37-18.73,10.3-37.59,15.9-56.25,5.5-18.32,10.5-36.77,15.51-55.22,3.44-12.67,6.53-25.43,9.69-38.18.35-1.42.11-2.98.15-4.47.04-1.44-.27-2.97-1.43-3.68-1.4-.85-1.85,1.27-3.02,1.54.73-5.05,1.11-10.09,0-15.16-.22-1.01-.45-2.58.84-2.97,1.3-.4,1.72,1.09,2.3,2,4.97,7.89,5.92,16.47,3.78,25.34-3.21,13.26-6.55,26.49-10.18,39.64-4.58,16.62-9.56,33.13-14.24,49.72-2.9,10.25-5.41,20.61-8.37,30.85-5.28,18.23-10.76,36.41-16.17,54.6-3.89,13.11-7.74,26.25-12.82,38.96-2.88,7.21-8.23,12.66-14.73,16.83-2.32,1.49-4.13,1.03-3.84-2.33.13-2.23,1.87-3.56,2.96-5.25.24-.27.48-.54.72-.81,1.05-1.05,1.36-2.56,2.27-3.69.77-1.47,1.54-2.94,2.32-4.42,2.62-2.17,2.23-5.94,4.42-8.34Z" style="fill: #96d29a; stroke-width: 0px;"/>
  <path d="M565.21,138.09c-1.21,7.5-3.8,14.63-5.81,21.91-7.49,27.15-15.14,54.25-22.81,81.35-3.04,10.75-6.33,21.43-9.45,32.15-3.57,12.27-6.95,24.6-10.7,36.82-1.55,5.06-2.83,10.25-5.21,15.04-.28-1.8-1.03-.82-1.62-.24-2.38,2.35-4.48,5.09-7.16,7.02-6.76,4.88-13.14,10.51-21.7,12.26-1.22.25-2.64.98-3.49-.05-1.2-1.44.51-2.56,1.22-3.48,1.35-1.73,2.22-3.91,4.27-5.05.09,1.4-1.72,3.02-.07,4.12,1.54,1.04,3.38.36,4.94-.55,11.33-6.54,20.05-15.48,24.34-28.02,7.03-20.54,13.1-41.38,18.91-62.3,4.37-15.75,9.4-31.32,14.07-46.99,3.22-10.81,6.3-21.67,9.44-32.51,2.51-8.65,4.83-17.38,7.17-26.1.57-2.12,1.4-4.31,3.66-5.4Z" style="fill: #6fc176; stroke-width: 0px;"/>
  <path d="M496.24,348.56c-1.61,1.54-3.33,2.98-4.8,4.65-.76.87-1.63,2.08-.77,3.38.84,1.29,2.07.88,3.35.63,5.45-1.05,9.49-4.71,14.07-7.38,5.11-2.98,8.9-7.45,13.06-11.52,1.03-1.01,1.83-2.45,3.57-2.47-1.24,3.25-2.49,6.49-3.73,9.74-3.67,3.48-5.09,8.67-9.02,11.96-3.02-.73-5.44.83-7.77,2.26-6.94,4.28-14.71,5.69-22.59,6.7-1.28.16-3.04.52-3.66-1.05-.56-1.41.69-2.5,1.59-3.53,5.19-5.91,11.9-10.12,17.43-15.65,0,0,.11.08.11.08.4.51.38.99-.09,1.44-.24.25-.48.5-.73.75Z" style="fill: #53a359; stroke-width: 0px;"/>
  <path d="M572.69,108.16c-.45,6.34-2.59,12.31-4.07,18.42-.82,3.36-1.82,6.68-2.74,10.02-2.82.02-1.38-2.11-1.23-3.03.45-2.8.99-5.68,2.1-8.27,2.15-4.98,1.46-10.58,3.74-15.46.38-.82.13-2.91,2.2-1.68Z" style="fill: #6fc176; stroke-width: 0px;"/>
  <path d="M490.26,326.87c-.52,2.01-1.75,3.62-2.96,5.25-.28-.01-.55-.03-.83-.05.46-2.32,1.79-4,3.79-5.2Z" style="fill: #6fc176; stroke-width: 0px;"/>
  <path d="M496.97,347.82c.03-.48.06-.96.09-1.44.73-.51,1.46-1.03,2.19-1.54-.06,1.53-1.02,2.36-2.27,2.98Z" style="fill: #6fc176; stroke-width: 0px;"/>
  <path d="M573.42,102.12c0,1-.01,2-.02,2.99-1.91-1.01-1.02-2,.02-2.99Z" style="fill: #6fc176; stroke-width: 0px;"/>
  <path d="M476.76,358.31c1.47-1.52,3.41-1.74,6.16-2.42-7.58,7.44-16.9,10.07-25.9,14.55,8.02,3.96,15.74,4.38,23.53,3.13,4.99-.81,9.91-2.24,14.25-5.12,1.18-.78,2.66-1.87,3.68.35-.98.76-1.96,1.53-2.95,2.29-5.26,2.42-9.85,6.04-15.27,8.25-2.88,1.17-6.02,1.44-8.75,2.96-15.14,1.99-30.38,2-45.6,2.22-8.02.12-16.05.22-24.06-.06-4.44-.15-8.6.96-12.82,1.81-1.63.33-3.85.82-3.66,3.45-4.48.85-7.9-.7-10.76-4.24-1.56-1.94-.92-3.06.85-3.67,1.73-.59,3.55-.98,5.46-1.07,21.06-.94,42.13-.66,63.2-.71,7.12-.02,14.26.36,21.34-.12,6.13-.41,12.42-.82,18.01-4,.41-.23.8-.52,1.06-1.29-2.51.55-5.01,1.19-7.54,1.63-8.92,1.52-17.91.6-26.87.72-11.73.16-23.49.44-35.2-.08-14.21-.64-28.41-.48-42.62-.7-3.66-.06-7.15-1.03-9.88-3.76-2.25-2.25-2.03-3.71,1.04-4.32,3.87-.77,7.84-1.48,11.77-1.51,20.22-.15,40.45-.2,60.67-.02,11.44.1,22.78-.08,33.75-3.81,1.64-.56,1.63-.58,2.6-2.23.61-2.5,3.17-1.15,4.48-2.27Z" style="fill: #316634; stroke-width: 0px;"/>
  <path d="M285.83,216.84c-7.73,7.49-16.41,13.43-26.85,16.54-1.63.49-3.46.65-4.68,2.11-2.39-2.49-3.48-5.94-6.16-8.28-1.07-.93-.03-1.89,1.02-2.14,10.9-2.6,21.05-7.66,32.09-9.75,1.63-.31,3.59-.58,4.57,1.52Z" style="fill: #e69f41; stroke-width: 0px;"/>
  <path d="M294.65,138.71c-2.51,1.87-4.13.48-5.49-1.57-5.25-7.96-12.84-10.81-22.07-10.37-4.16.2-7.71,1.51-10.63,4.49-4.3-5.51-2.6-11.16,3.94-12.65,10.32-2.35,18.88.76,25.51,8.92,1.74,2.14,3.38,4.25,5.75,5.74,1.97,1.23,2.13,3.55,2.99,5.45Z" style="fill: #e48e35; stroke-width: 0px;"/>
  <path d="M245.46,263.33c-1.28,1.08-2.84.77-4.29.77-7.1-.03-14.19-.1-21.29-.2-6.32-.09-8.99-3.58-7.48-9.69,7.27.95,14.59.45,21.88.82,5.33.27,8.43,4.21,11.18,8.3Z" style="fill: #db8e39; stroke-width: 0px;"/>
  <path d="M217.57,234.9c-12.94-3.29-22.61-11.04-29.97-21.95.02-1.49.34-2.61,2.14-1.49,1.26.78,2.62,1.5,3.67,2.52,6.43,6.23,14.23,9.79,22.82,11.73,2.99.67,4.95,1.5,2.89,5.01-.74,1.26-1.04,2.78-1.55,4.18Z" style="fill: #d98a40; stroke-width: 0px;"/>
  <path d="M476.76,358.31c-1.49.76-2.99,1.51-4.48,2.27-4.78,1.85-9.7,2.97-14.87,2.97-15.96-.02-31.94.43-47.88-.14-14.69-.53-29.39-.2-44.06-.81-5-.21-10.5.6-15.05-2.95-1.38-1.08-2.53-2.03-2.42-3.85.11-1.83,1.73-1.93,2.98-2.33,4.47-1.42,9.02-1.5,13.63-.71,1.34.23,2.72.31,4.08.31,18.08.02,36.17-.07,54.25.05,13.22.09,26.33-.35,38.85-5.28-2.76,3.06-6.89,3.74-10.19,5.87-1.08.7-3.06.76-2.91,2.42.17,1.87,2.27,1.83,3.56,2.04,7.03,1.11,14.1,2.16,21.21.4,1.06-.26,2.21-.18,3.32-.26Z" style="fill: #3a693c; stroke-width: 0px;"/>
  <path d="M493.25,322.37c-.27,1.53-.69,2.97-2.27,3.69.34-1.48.79-2.91,2.27-3.69Z" style="fill: #6fc176; stroke-width: 0px;"/>
</svg>