<?xml version="1.0" encoding="UTF-8"?>
<svg id="Layer_1" data-name="Layer 1" xmlns="http://www.w3.org/2000/svg" viewBox="0 0 597.49 528.64">
  <path d="M187.69,104.75c28.8,3.69,57.59,7.38,86.39,11.06,16.44,2.1,32.89,4.1,49.31,6.35,6.15.84,11.47-1.83,17.01-3.4,30.63-8.73,61.2-17.68,91.79-26.53.46-.13.98-.03,1.47-.04,1.55,8.76,8.06,13.15,14.87,17.57,3.54,2.3,7.23,5.06,7.79,9.96-1,1.5-2.68,1.75-4.2,2.21-31.62,9.7-63.18,19.58-94.77,29.39-43.51,13.51-87.03,26.98-130.51,40.55-34.43,10.74-68.9,21.38-103.33,32.13-5.48,1.71-10.94,3.48-16.45,5.12-3.63,1.08-3.94,1.84-2.83,5.44.74,2.39,1.81,4.65,2.59,7.02,1.39,4.21.84,5.21-3.41,6.54-9.17,2.87-18.34,5.76-27.47,8.75-.71.23-1.43.46-2.13.72-3.41,1.27-3.79,1.88-2.54,5.25,3.25,8.78,6.17,17.68,9.36,26.48,6.05,16.66,11.84,33.41,17.81,50.1.63,1.76,2.28,4.07-.97,5.29-8.92-.57-17.84-1.22-26.73.28-9.74,1.64-17.99,6.38-25.19,12.92-4.3,3.91-8.66,7.87-11.43,13.17-.54,1.03-1.15,2.29-2.74,2.11-2.69-1.21-6.55-1.73-7.77-3.8-1.36-2.31-.43-6.04-.32-9.14.68-19.32,1.25-38.65,2.19-57.96.34-7-.76-13.49-3.17-20.05-7.4-20.08-14.42-40.31-21.75-60.42-1.27-3.48-.36-4.96,3.04-5.88,7.45-2,14.82-4.3,22.26-6.31,2-.54,2.79-1.31,2.86-3.49.52-16.71,1.22-33.41,1.8-50.11.62-17.7,1.2-35.41,1.75-53.11.05-1.73.54-2.87,2.02-4.05,3.92-3.13,7.71-6.47,11.24-10.04,1.58-1.6,2.99-1.71,4.96-1.45,15.57,2.02,31.15,3.94,46.73,5.89,1.05,1.43.11,2.66-.54,3.76-5.15,8.7-8.03,18.13-9.33,28.1-.19,1.44-.15,3.02-1.32,4.18-2.71.84-3.22,2.8-3.44,5.44-.93,10.96-.29,21.94-.79,32.88-.32,6.97-.67,13.93-.63,20.91.02,3.79.12,3.89,3.85,2.82,19.67-5.59,39.26-11.48,58.94-17.02,8.4-2.37,16.76-4.86,25.16-7.23,35.66-10.21,71.26-20.61,106.44-30.57-18.88-1.94-38.3-4.06-57.71-6.23-10.28-1.15-20.58-2.1-30.85-3.29-1.71-.2-3.61-.03-4.29-2.22-.53-2.78.76-5.29,1.16-7.94.02-1.23.15-2.45.39-3.66.69-1.99.35-4.06.5-6.09.24-1.73.92-2.9,2.96-2.35Z" style="fill: #4a9d4b; stroke-width: 0px;"/>
  <path d="M31.37,373.17c5.18-8.34,11.64-15.48,19.76-21.06,8.07-5.55,16.97-8.86,26.79-9.07,6.46-.14,12.97-.43,19.37,1,8.08-.56,14.89,3.11,21.02,7.48,15.68,11.15,24.23,26.7,26.56,45.77.59,4.85.96,9.66.25,14.51-1.23,2.46-2.67,4.65-5.12,6.23-2.37,1.53-3.41,4.14-4.13,6.88-3.52,13.39-9.76,25.22-20.01,34.79-6.01,5.6-12.85,9.76-20.43,12.8-.98.46-1.97.87-3.05,1.06-.71.17-1.4-.03-2.1-.06-3.65-.58-7.11.88-10.74.93-19.06.27-33.67-8.1-44.83-23.02-7.14-9.55-10.86-20.46-12.36-32.27-2.07-16.37,1.63-31.51,9.02-45.98Z" style="fill: #efd568; stroke-width: 0px;"/>
  <path d="M90.27,473.51c.5-.51,1.08-.74,1.8-.59,1.22.84,1.63,2.15,2.08,3.46,2.79,8.14,5.75,16.22,9.23,24.1,2.6,5.88,5.16,7.49,11.33,6.14,2.57-.56,5.11-1.25,7.73-1.29,6.42-.12,10.24-5.05,15.14-7.98.63-.38,1.08-1.16,1.77-1.36,8.96-2.66,13.59-10.94,20.63-16.13,5.38-3.97,10.8-7.19,17.24-7.08,11.87.21,21.69-4.93,31.42-10.55,3.79-2.19,7.6-4.31,11.52-6.22,33.28-16.27,66.94-31.73,100.46-47.5,16.02-7.53,32.05-15.05,48.69-21.25,8.36-3.12,16.38-7.3,24.28-11.61,19.06-10.41,38.72-19.62,58.48-28.61,9.08-4.13,18.14-8.32,27.09-12.74,18.91-9.33,38.29-17.66,57.18-27.02,2.85-1.41,5.29-3.24,7.44-5.56,1.3-1.4,1.53-3.08,1.81-4.8,2.53-2.06,3.34-4.48,1.72-7.53-.39-.74-.43-1.64-.02-2.47,2.99-2.21,6.21-4.02,9.56-5.58,2.98-1.39,5.13-3.38,5.89-6.67,1.26-1.62,2.77-2.67,4.96-2.22,1.89,1.58,1.85,3.7,1.47,5.82-.85,4.75-2.6,9.03-6.32,12.38-4.2,3.78-7.99,7.89-8.95,13.81-.1.6-.47,1.15-.82,1.67-5.16,7.59-11.32,14.16-19.69,18.22-5.74,2.78-10.78,6.67-16.36,9.66-2.28,1.22-1.32,3.19-1.6,4.89.12.2.09.38-.09.53-2.88,2.3-6.44,3.22-9.71,4.7-14.61,6.66-28.97,13.86-43.61,20.45-1.47.66-3.13.85-4.43,1.89-5.5.95-10.15,4-15.06,6.32-58.89,27.76-117.72,55.64-176.57,83.47-50.52,23.89-101.07,47.75-151.57,71.69-3.1,1.47-4.62.55-5.64-2.34-6.16-17.37-12.32-34.73-18.49-52.09Z" style="fill: #499f4e; stroke-width: 0px;"/>
  <path d="M185.01,113.25c-.07,1.23-.15,2.45-.22,3.68-1.08,1.94-2.35.65-3.48.14-3.72-1.69-4.55-1.43-5.7,2.28-2.87,9.27-7.34,17.7-13.26,25.37-9.17,11.67-20.4,20.27-35.2,23.45-6.55,1.41-13.07.99-19.51-.86-12.86-4.71-19.15-14.67-21.74-27.47-.72-3.59-1.75-7.28.06-10.91.89-11.9,4.03-23.09,10.43-33.28.44-.7.56-1.61.83-2.41,1.96-2.24,4-4.41,5.87-6.73,9.47-11.73,21.31-19.8,36.25-22.46,7.91-1.41,15.77.15,22.46,4.71,6.63,4.51,13.47,8.99,17.75,16.18,2.96,4.97,5.08,10.23,5.39,16.05.11,2.03.82,3.26,2.76,3.75-1.71.01-2.22,1.03-2.16,2.54-.64,1.95.24,4.03-.53,5.96Z" style="fill: #f1dc83; stroke-width: 0px;"/>
  <path d="M515.42,338.89c-2.56-2.76-1.26-4.21,1.48-5.98,8.45-5.46,18.03-9.3,25.56-15.94,4.78-4.22,9.87-8.8,11.34-15.91.9-4.33,4.33-7.48,7.63-10.34,3.64-3.15,5.66-7.05,6.67-11.72.48-2.22.17-4.15-.38-6.18-15.23-45.75-31.08-91.29-46.38-137.02-1.74-5.2-3.74-10.31-5.34-15.55-.88-2.88-2.26-3.79-5.21-2.69-2.4.9-4.86,2.09-7.59,1.26-2.76-2.06-2.39-4.7-1.16-7.32,1.69-3.61,2.74-7.42,3.75-11.24.8-3.01,1.18-6.06.7-9.18.06-1.23.84-2.02,1.71-2.75,4.92-4.12,7.85-9.46,9.66-15.52.41-1.37.52-3.04,2.48-3.28,8.6,25.47,17.17,50.95,25.8,76.42,13.97,41.25,27.98,82.5,41.97,123.75,2.92,8.6,5.76,17.23,8.84,25.76.98,2.72.71,4.09-2.14,5.42-25.38,11.84-50.68,23.84-75.99,35.81-1.23.58-2.54,1.07-3.41,2.21Z" style="fill: #54a75b; stroke-width: 0px;"/>
  <path d="M520.36,69.54c-2.17,2.4-1.88,5.74-3.26,8.48-2.46,4.92-5.54,9.26-10.12,12.41-1.73,2.64-4.58,3.31-7.33,4.16-21.27,2.07-34.59-9.88-45.45-25.96-2.36-3.5-4.3-7.3-5.89-11.26-1.3-3.22-2.34-3.43-5.42-1.59-1.02.61-1.85,1.79-3.31,1.26-2.22-3.06-2.35-6.84-2.75-10.25-1.25-10.62-1.31-21.48,5.71-30.33,9.98-12.57,26.07-21.84,43.12-12.9,18.77,9.85,28.86,25.97,33.31,46.09,1.12,5.06,1.79,10.25.88,15.49-.25,1.47-.15,2.98.5,4.39Z" style="fill: #edd479; stroke-width: 0px;"/>
  <path d="M456.2,119.3c-2.99-4.85-7.01-8.61-12.02-11.33-2.77-1.5-4.98-3.69-7.11-5.96-2.58-2.77-4.01-5.94-3.43-9.82,7.39-2.81,15.1-4.56,22.65-6.85,1.27-.64,2.17.16,2.96.91,6.4,6.06,14.08,9.52,22.61,11.33,1.32.47,2.71.31,4.07.46,3.3.35,4.13,1.63,2.92,4.8-1.16,3.03-2.66,5.9-4.65,8.5-1.71,1.66-4.04,1.85-6.15,2.54-5.81,1.91-11.68,3.63-17.56,5.32-1.4.4-2.83,1.18-4.29.11Z" style="fill: #2e6f2a; stroke-width: 0px;"/>
  <path d="M457.59,366.46c1.04-1.96,3.14-2.36,4.89-3.18,15.05-7.09,30.12-14.13,45.21-21.13,2.45-1.14,4.85-2.52,7.65-2.73,0,7.97-.02,15.94.02,23.9,0,1.54-.46,2.22-2.12,2.23-18.55.14-37.09,1.24-55.65.91Z" style="fill: #37823e; stroke-width: 0px;"/>
  <path d="M481.68,98.35c-9.06-1.51-16.86-5.52-23.56-11.77-.53-.5-1.21-.83-1.83-1.24-4.45-5.5-9.13-10.8-12.27-17.26-1.75-3.59-3.31-7.22-4.43-11.04,6.96-5.29,6.83-5.22,10.67,2.57,7.12,14.44,16.86,26.33,32.39,32.45,5.51,2.17,11.25,1.63,16.95,1.67-2.11,4.31-6.44,4.54-10.26,4.96-2.44.27-5.13.25-7.66-.34Z" style="fill: #cfa923; stroke-width: 0px;"/>
  <path d="M456.2,119.3c9.32-2.46,18.54-5.24,27.66-8.35,2.92-1.9,3.74-1.73,4.97,1.19.81,1.93,1.44,3.94,2.04,5.95.77,2.62,2.3,3.1,4.79,2.29,2.52-.82,4.87-2.58,7.78-1.82,2.39-.65,4.81-1.2,7.16-1.95,4.72-1.51,4.69-1.55,6.21,2.98,5.76,17.05,11.5,34.11,17.31,51.15,11.12,32.66,22.29,65.31,33.37,97.98.42,1.23,1.82,2.65.26,4.1-1.75.14-3.14,1.07-4.52,2.04-2.06,2.39-5.24,2.73-7.79,4.23-1.06.63-2.27,1.06-3.45,1.43-3.21,1-5.09,2.82-4.38,6.44.29,1.15.35,2.44.91,3.44,1.84,3.27.92,5.3-2.51,6.43-.67,1.18-1.77,1.84-2.94,2.42-25.86,11.54-51.6,23.34-77.37,35.06-16.36,7.43-32.74,14.8-49.16,22.09-1.53.68-3,1.98-4.88.91-1.31-2.72.59-4.57,1.95-6.37,5.31-6.99,9.6-14.55,12.85-22.67,4.29-10.69,7.13-21.75,7.69-33.32.08-1.62-.05-3.24-.54-4.8-.31-3.36-.08-6.69.25-10.06.73-7.63-.44-15.2-1.78-22.66-2.98-16.6-9.62-31.75-20.01-45.04-7.64-9.78-16.77-17.98-27.83-23.97-12.46-6.75-25.63-10.2-39.81-9.81-6.17.17-12.21,1.49-17.96,3.38-18.32,6.05-33.95,16.07-44.98,32.39-3.08,4.55-4.63,9.99-8.35,14.14-4.15,4.22-5.91,9.77-8.04,15.04-5.79,14.32-8.1,29.33-7.18,44.7,1.19,19.75,5.55,38.71,18.57,54.28,17.1,20.46,37.81,35.37,65.14,38.99,1.86.25,3.74.21,5.58.49,1.71.25,3.6.46,3.67,2.88-.72,1.83-2.49,2.38-4.03,3.11-16.46,7.76-33.05,15.25-49.63,22.78-17.48,7.94-34.98,15.83-52.46,23.76-18.62,8.44-37.19,17-55.86,25.33-1.25.56-2.51,1.18-3.93.49-2.17-3.4-2.82-7.41-4.48-11.01-.52-1.12-.38-2.94-2.46-2.63-8.65,3.1-16.74,7.47-25.2,10.99-2.28.96-4.58,1.89-6.85,2.88-1.23.53-2.53,1.11-3.91.34-3.15-6.07-4.95-12.62-6.96-19.11,4.36-9.54,6.63-19.73,9.32-29.79.39-9.99-.56-19.81-3.87-29.31-2.64-7.58-6.72-14.32-11.84-20.48-5.41-6.52-12.13-11.17-19.75-14.81-3.78-1.81-7.92-1.85-11.69-3.38,2.7-.41,1.05-2.15.73-3.07-3.32-9.63-6.77-19.21-10.2-28.81-6.01-16.85-11.99-33.72-18.1-50.53-.98-2.69-.17-3.85,2.32-4.63,10.31-3.22,20.58-6.62,30.93-9.71,3.2-.96,4.79-1.96,2.97-5.52-1.23-2.41-1.66-5.24-2.86-7.67-1.71-3.46-.3-4.82,2.91-5.8,11.52-3.51,22.99-7.19,34.49-10.76,17.19-5.34,34.4-10.64,51.6-15.97,40.32-12.5,80.64-25.01,120.95-37.53,45.29-14.07,90.57-28.15,135.85-42.22,2.47-.77,5.07-1.15,7.33-2.51Z" style="fill: #b0d04e; stroke-width: 0px;"/>
  <path d="M183.27,124.43c2.39,3.04,6,1.66,8.92,2.05,11.17,1.48,22.41,2.38,33.6,3.8,10.32,1.31,20.72,2.08,31.07,3.16,7.24.75,14.47,1.62,22.32,2.5-4.04,2.36-8.11,2.98-11.95,4.1-25.36,7.39-50.76,14.66-76.16,21.91-7.27,2.08-14.58,3.98-21.87,5.96-4.65-.06-8.18-2.8-11.95-4.96-.67-1.73.72-2.43,1.72-3.26,4.78-3.94,8.78-8.61,12.58-13.46,3.92-5.86,7.2-12.04,9.55-18.71.42-1.19.45-2.78,2.19-3.09Z" style="fill: #99be35; stroke-width: 0px;"/>
  <path d="M157.22,162.63c3.99,1.76,7.98,3.51,11.98,5.27-10.26,3.68-20.86,6.22-31.31,9.27-18.21,5.33-36.49,10.45-54.68,15.87-3.07.91-3.19-.1-3.19-2.6-.01-15.94,1.17-31.86.92-47.81-.05-3.07.92-6.17.57-9.28-.39-3.49,1-4.91,4.44-4.41-.11,7.92,1.25,15.47,4.96,22.61,3.76,7.22,9.58,11.88,16.92,14.95,5.81,2.5,11.55,5.4,18.02,5.58,9.47.27,18.1-2.63,26.11-7.59,1.57-.97,2.92-2.92,5.25-1.85Z" style="fill: #84aa24; stroke-width: 0px;"/>
  <path d="M183.27,124.43c-2.82,7.93-6.19,15.59-11.11,22.48-4,1.03-7.08-1.24-10.32-2.92,5.92-8.02,10.55-16.69,13.36-26.31.94-3.22,2.69-3.71,5.66-1.99,1.22.7,2.17,2.24,3.92,1.25-.51,2.5-1.01,5-1.52,7.5Z" style="fill: #d8b440; stroke-width: 0px;"/>
  <path d="M185.01,113.25c.06-2-.61-4.06.53-5.96.03,2.01.51,4.05-.53,5.96Z" style="fill: #d8b440; stroke-width: 0px;"/>
  <path d="M543,298.29c1-.49,2-.98,2.99-1.47.76,3.42-1.49,7.36-6.32,9.74-11.73,5.79-23.58,11.37-35.41,16.97-4.5,2.13-9.15,3.94-13.61,6.16-30.25,15.05-61.48,28.05-91.34,43.88-9.34,4.96-18.71,9.88-28.35,14.16-6.79,3.02-13.96,5.24-20.76,8.35-9.85,4.51-19.79,8.81-29.61,13.38-23.05,10.71-46.15,21.3-69.03,32.34-19.36,9.35-38.66,18.85-57.54,29.17-4.14,2.26-9.49,2.62-14.5,2.56-5.46-.06-10.9.91-15.2,4.16-3.53,2.67-7.15,5.39-10.34,8.51-2.18,2.13-5.09,3.63-6.25,6.76-.22.6-1.06,1.27-1.68,1.36-4.65.64-7.71,4.29-11.76,6.04-.34.15-.81.29-.95.57-2.98,5.75-8.79,4.56-13.67,5.5-3.33.64-6.55,1.4-10.17,1.23-3.53-.16-4.67-1.85-5.72-4.1-2.22-4.73-4.25-9.55-6.1-14.43-2.03-5.35-3.76-10.81-5.62-16.22.99-.35,1.98-.69,2.97-1.04,10.7-3.25,20.59-7.95,28.66-15.93.79-.78,1.63-1.58,2.92-1.36,1.83,3.97,5.24,6.32,8.6,8.88,3.16,2.4,6.29,2.73,9.83,1.7,4.21-1.23,8.18-3.14,12.05-5.1,8.72-4.42,17.05-4.38,25.03,1.46,3.14,2.3,6.12,1.52,9.16.13,9.88-4.5,19.73-9.05,29.61-13.55,22.7-10.36,45.37-20.79,68.04-31.19,16.44-7.55,32.89-15.06,49.33-22.62,16.32-7.5,32.65-14.98,48.99-22.43,14.19-6.47,28.28-13.15,42.49-19.57,20.12-9.1,40.13-18.43,60.19-27.64,15.53-7.13,31.18-14.02,46.5-21.61,2.43-1.2,5.05-2.25,6.56-4.76Z" style="fill: #3b8c3d; stroke-width: 0px;"/>
  <path d="M75.52,453.36c-2-.05-4.01.07-5.98-.18-3.35-.42-4.68-2.42-4.08-5.76.11-.61.19-1.24.38-1.83,1.09-3.46.2-5.4-3.49-6.93-5.76-2.37-7.46-9.81-4.07-15.14,1.81-2.85,4.84-3.07,8.41-.28,3.4,2.65,7.16,3.91,11.43,3.8,1.85-.04,3.11-1.04,3.82-2.57.77-1.67.69-3.4-.65-4.88-1.35-1.5-2.88-2.71-4.71-3.63-2.56-1.28-5.11-2.6-7.53-4.11-7.37-4.61-9.51-11.66-8.3-19.74,1.21-8.13,6.17-13.5,14.05-15.76,2.26-.65,2.87-1.52,3.11-3.72.72-6.75,1.79-7.78,7.02-7.78,6.65,0,8.27,1.73,6.88,8.27-.59,2.79.07,3.91,2.61,4.97,5.02,2.1,7.05,9.42,4.12,14.12-1.65,2.64-3.8,3.32-6.64,1.56-3.17-1.95-6.35-3.94-10.4-3.59-1.67.15-2.96.61-3.56,2.18-.57,1.51-.24,2.91.89,4.15,1.46,1.6,3.22,2.71,5.14,3.67,3.57,1.77,7.17,3.45,10.25,6.08,3.04,2.6,4.76,5.96,6.07,9.61,3.72,10.53-3.25,22.8-14.79,26.01-.96.27-1.93.5-2.91.61-1.54.18-2.13.8-1.76,2.45.43,1.86-.08,3.73-.82,5.44-.82,1.89-2.02,3.45-4.49,2.97Z" style="fill: #e7e8e5; stroke-width: 0px;"/>
  <path d="M126.41,454.67c-6.88,7.02-14.84,12.36-24.15,15.66-2.36.84-4.75,1.36-7.22,1.56,4.58-2.68,9.53-4.55,13.91-7.76,10.56-7.73,17.98-17.63,22.8-29.69,1.52-3.81,2.73-7.68,3.78-11.64.71-2.67,2.17-5.13,4.85-6.13,2.35-.88,2.04-3.7,4.05-4.63-.8,10.67-4.06,20.62-8.86,30.11.23,1.12-.55,1.81-1.08,2.6-.86,1.19-1.42,2.57-2.27,3.77-1.79,2.19-2.59,5.32-5.81,6.14Z" style="fill: #d2ab48; stroke-width: 0px;"/>
  <path d="M38.35,438.14c-1.68-1.09-2.45-2.66-3.1-4.2-4.78-11.43-5.91-23.32-3.81-35.45,2.23-12.86,7.92-24.01,17.61-32.92,10.25-9.42,22.4-13.48,36.23-12.56,1.04.07,2.06.59,3.53,1.04-5.84,1.9-11.55.81-17,2.4-14.68,4.28-24.64,13.76-31.55,27.04-4.23,8.12-6.08,16.85-6.49,25.8-.39,8.35,1.39,16.53,3.93,24.51.41,1.29,1.55,2.57.65,4.33Z" style="fill: #e6ac28; stroke-width: 0px;"/>
  <path d="M75.52,453.36c4.11-2.51,5.26-5.83,3.74-11.14,5.03-.94,9.96-2.1,13.99-5.62,6.4-5.58,7.47-12.88,7.03-20.73,2.29,2.26,3.1,6.66,2.05,11.46-1.51,6.91-5.3,12.18-11.46,15.67-3.59,2.03-6.7,4.34-8.76,8.21-2.58,4.85-6.22,5.95-9.92,3.76.55-1.7,2.68-.2,3.33-1.62Z" style="fill: #ddac39; stroke-width: 0px;"/>
  <path d="M547.6,286.96c-1.92-4.62-1.93-4.65,2.57-6.59,4.34-1.87,8.7-3.67,13.05-5.51.19,2.37-.87,4.38-2.76,5.39-4.25,2.3-8.22,5.17-12.87,6.71Z" style="fill: #307136; stroke-width: 0px;"/>
  <path d="M113.04,108.21c.14-3.64,2.2-8.05,5.79-11.47,2.32-2.21,2.75-4.52,2.36-7.36-.45-3.32,1.51-5.92,5.29-6.77,2.97-.67,5.28.37,5.95,3.5.47,2.17,1.93,1.49,3.17,1.52,4.62.11,8.23,5.55,6.44,9.79-.66,1.57-2.11,1.92-3.65,2.17-3.76.61-7.24,1.89-9.94,4.7-.75.78-1.66,1.86-.97,2.99.7,1.14,1.84.12,2.72-.03,2.81-.49,5.53-1.4,8.42-1.52,10.01-.43,12.89,6.57,12.95,14.41.04,5.45-4.3,7.93-7.16,11.23-2.6,3.01-4.33,5.57-2.6,9.54.85,1.96.49,3.54-1.97,4.28-1.53.46-2.96,1.33-4.32,2.21-2.83,1.82-4.58,1.41-5.06-1.88-.39-2.67-1.84-2.42-3.65-2.4-5.52.08-7.58-1.97-7.83-7.48-.13-2.88.9-4.38,4.02-4.53,5.11-.24,9.29-2.56,12.66-6.38.84-.95,1.84-1.99,1.11-3.29-.77-1.36-2.03-.29-3.04-.14-1.72.24-3.42.66-5.12,1.02-8.9,1.87-15.61-3.58-15.58-14.13Z" style="fill: #f1eff0; stroke-width: 0px;"/>
  <path d="M161.84,143.98c3.7.04,6.69,2.62,10.32,2.92-4.31,5.88-9.56,10.87-14.94,15.73-5.32,2.87-10.34,6.29-16.2,8.16-11.77,3.77-22.93,3.34-33.19-4.3,7.21,1.83,14.36,2.02,21.65.11,7.61-1.99,14.28-5.66,20.33-10.48,4.47-3.56,8.75-7.38,12.03-12.15Z" style="fill: #be9722; stroke-width: 0px;"/>
  <path d="M157.35,76.87c-9-3.03-17.86-2.87-26.53.88-14.61,6.32-24.23,17.59-30.38,31.89-4.34,10.1-6.13,20.67-3.24,31.63.22.84.5,1.91-.35,2.81-1.38-.79-1.49-2.2-1.9-3.46-3.24-9.83-2.47-19.59.85-29.18,5.94-17.13,16.49-30.32,33.71-37.11,9.51-3.75,19.07-3.76,27.85,2.56Z" style="fill: #ebb52c; stroke-width: 0px;"/>
  <path d="M503.43,118.56c-3.01,1.06-6.05,2.03-9.01,3.2-2.31.92-3.43.24-4.03-2.12-.55-2.15-1.65-4.17-2.12-6.33-.59-2.73-2.02-3.28-4.41-2.36,1.36-2.74,2.75-5.47,4.07-8.23,1.18-2.45.95-4.01-2.36-3.8-1.29.08-2.73.49-3.89-.57,6.37,0,12.61-.52,17.92-4.62,2.46-1.1,4.93-2.19,7.39-3.29,1.09,2.08,1.12,4.33.61,6.5-1.17,5.02-2.1,10.13-4.62,14.74-1.3,2.38-1.26,4.69.45,6.88Z" style="fill: #428543; stroke-width: 0px;"/>
  <path d="M465.81,37.59c.03-3.79.4-7.39,3.2-10.42,1.32-1.43-.22-3.03-.77-4.44-1.51-3.86-1-5.19,2.93-6.96,3.42-1.54,5.1-.96,6.57,2.94.88,2.35,2,3.22,4.57,3.21,3.06,0,6.85,5.7,5.97,8.63-.57,1.92-1.94,3.19-4.14,3.06-.61-.04-1.19-.41-1.8-.45-1.73-.12-3.98-.48-4.23,1.81-.2,1.85,1.06,3.64,3.2,4.03,2.2.4,4.44.69,6.67.73,5.93.11,9.7,3.34,12.33,8.26,2.88,5.38,3.74,11.05.23,16.29-1.67,2.49-1.92,4.34-.64,6.74.98,1.83,1.66,3.65-.1,5.46-1.7,1.75-3.82,2.27-6.13,2.15-2.28-.13-2.65-2.06-3.09-3.7-.58-2.18-1.51-3.37-4.08-3.18-3.15.22-5.41-1.41-6.79-4.32-.88-1.85-1.88-3.81-.64-5.65,1.33-1.97,3.57-2.05,5.76-1.54,1.19.27,2.4.91,3.48-.24,1.63-4.2.16-6.39-4.79-6.41-4.64-.02-9.05-.68-12.26-4.2-2.99-3.28-6.6-6.51-5.46-11.8Z" style="fill: #edebec; stroke-width: 0px;"/>
  <path d="M461.72,11.14c5.44-4.26,11.69-4.54,17.93-2.94,12.23,3.12,20.38,11.6,26.62,21.98,5.6,9.32,8.69,19.5,8.21,30.53-.13,2.92-.49,5.82-1.9,8.56-1.46-1.03-1.03-2.39-1-3.56.41-15.19-4.44-28.66-13.76-40.43-6.24-7.88-14-13.79-24.39-15.27-4-.57-7.82.54-11.71,1.13Z" style="fill: #e6ad29; stroke-width: 0px;"/>
  <path d="M465.81,37.59c1.86,8.61,8.21,15.81,17.43,14.99,1.75-.16,3.51.06,5.06.97,3.01,1.78,2.99,4.73.01,6.44-3.28-3.41-7.53-4.01-11.97-4.7-6.92-1.08-12.24-7.97-11.99-14.57.05-1.28.05-2.52,1.46-3.13Z" style="fill: #e5b647; stroke-width: 0px;"/>
  <path d="M272.67,227.85c3.84-5.07,5.86-11.18,9.68-16.32,9.72-13.06,22.32-22,37.33-28.05,15.51-6.26,31.07-7.68,47.31-3.07,14.84,4.22,27.26,11.95,38.16,22.79,10.85,10.78,18.38,23.54,23.57,37.64,3.28,8.93,4.93,18.35,5.91,27.94.73,7.17-.56,14.14-.24,21.2-.28,9.84-3.32,18.95-7.21,27.87-5.89,13.53-14.96,24.5-26.52,33.53-6.79,3.91-13.32,8.12-21.02,10.43-8.76,2.63-17.56,3.38-26.56,3.21-9.69-1.19-19.17-3.27-27.96-7.63-13.12-6.52-24.39-15.33-33.2-27.21-6.44-8.68-11.32-18.17-15.43-28.09-2.01-4.85-2.69-10.11-4.35-15.08-1.65-4.94-3.13-10-6.9-13.9-1.31-3.87-1.35-7.79-.87-11.81.98-8.16,1.54-16.37,4.41-24.2,1.16-3.15,1.9-6.46,3.89-9.25Z" style="fill: #52a757; stroke-width: 0px;"/>
  <path d="M149.69,329.61c.33-11.08,10.1-23.43,21.2-26.79,17.14-5.2,32.1,1.41,39.33,17.66,2.51,5.64,3.29,11.67,1.97,17.84-.23,1.09-.21,2.22-.31,3.34-2.93,13.56-11.79,20.99-24.87,24.06-17.38,2.1-31.04-8.36-35.5-24.18-.46-1.63-1.68-2.73-2.43-4.14-.37-2.64.38-5.19.61-7.79Z" style="fill: #4fa452; stroke-width: 0px;"/>
  <path d="M400.69,350.65c1.42-2.47,4.01-3.69,5.99-5.56,15.52-14.68,24.17-32.79,27.06-53.82.06-.45.43-.86.65-1.29,1.48,3.35,1.11,6.95.57,10.29-1.8,11.14-4.37,22.12-9.21,32.41-3.22,6.84-7.03,13.35-11.7,19.34-1.2,1.53-2.54,3.13-2.12,5.36.23,1.75-1.27,1.94-2.31,2.41-18.32,8.41-36.85,16.36-55.03,25.08-1.29.62-2.68,1.56-4.11.18-.3-1.76-1.71-2.06-3.08-2.12-19.7-.93-36.74-8.5-52.08-20.52-8.25-6.47-15.88-13.66-21.97-22.1-7.48-10.38-12.03-22.2-14.29-34.89-1.64-9.21-2.6-18.44-2.17-27.77.63-13.63,3.4-26.82,9.35-39.15,1.78-3.7,2.46-8.22,6.44-10.64-1.77,6.04-4.12,11.98-5.16,18.14-1.54,9.07-3.45,18.23-1.58,27.54.84,1.02.93,2.24.94,3.48-.04,1.37-.05,2.75.41,4.07,1.93,10.65,4.36,21.15,9.48,30.84,1.16,2.19,2.04,4.53,2.75,6.91,2.53,8.82,7.67,16.18,13.34,23.15,8.3,10.2,18.23,18.45,30.61,23.25,25.86,10.04,53.44,7.25,74.9-12.69.73-.68,1.51-1.3,2.31-1.89Z" style="fill: #94bb36; stroke-width: 0px;"/>
  <path d="M350.47,385.04c5.08-.89,9.31-3.86,13.91-5.88,15.3-6.72,30.49-13.68,45.72-20.57.66-.3,1.22-.81,1.82-1.22,25.78-11.61,51.56-23.21,77.33-34.82,17.92-8.07,35.83-16.17,53.75-24.25.25,3.01-2.36,3.64-4.2,4.58-6.32,3.23-12.75,6.27-19.19,9.26-7.9,3.67-15.87,7.2-23.79,10.82-20.49,9.37-40.98,18.73-61.46,28.13-13.24,6.08-26.44,12.23-39.68,18.31-20.48,9.4-40.98,18.74-61.46,28.14-13.45,6.18-26.86,12.45-40.31,18.62-19.69,9.02-39.42,17.96-59.11,26.98-13.24,6.07-26.49,12.13-39.66,18.36-4.93,2.33-9.29,3.74-14.41-.14-6.02-4.56-12.86-4.66-19.78-1.38-4.49,2.13-9.08,4.08-13.73,5.84-4.29,1.62-8.54,1.96-11.96-2.07-.31-.36-.8-.6-1.24-.81-3.56-1.68-6.04-4.2-6.62-8.26,1.77-2.23,3.54-4.47,5.31-6.7,2.17,2.62,2.58,6.14,4.62,8.85.99,1.32,1.82,2.69,3.71,2.73.92.06,1.59.59,2.25,1.16,3.68-.52,6.6-3.13,10.26-3.72,5.47-1.52,10.71-3.69,16.38-4.69,4.18-.74,7.82-.58,11.39,1.61,2.39,1.38,2.2,4.73,4.65,6.07,5.41-1.13,10.15-3.97,15.09-6.21,46.17-20.9,92.29-41.9,138.41-62.9,4.04-1.84,8-3.88,11.99-5.83Z" style="fill: #296d2c; stroke-width: 0px;"/>
  <path d="M476.32,210.5c.17-7.4,1.6-14.35,7.38-19.6,6.77-6.16,19.82-9.02,28.68-.24,10.15,10.07,12.99,22.85,7.53,35.71-1.09,2.57-3.06,4.47-4.65,6.67-2.59,3.41-6.25,4.48-10.29,4.75-12.31.74-22.09-11.42-24.62-21.39-.4-1.57-.61-3.18-1-4.75-.32-1.27-.94-1.7-2.11-.89-.37.14-.68.05-.92-.26Z" style="fill: #55a85b; stroke-width: 0px;"/>
  <path d="M149.69,329.61c.05,2.8.1,5.6.15,8.4.84.8,1.23,1.8,1.49,2.93,2.69,11.5,10.4,18.76,20.56,23.72,4.92,2.4,10.17,1.9,15.3.24,10.25-2.46,17.81-8.31,22.4-17.85.85-1.76,1.53-3.6,2.29-5.4-.13,9.49-4.66,16.76-11.36,23.05-15.08,14.16-41.65,7.86-49.97-9.61-3.9-8.18-4.4-16.86-.87-25.49Z" style="fill: #7da726; stroke-width: 0px;"/>
  <path d="M476.32,210.5c.24.05.48.09.72.1,1.22,1.02.91,2.51,1.16,3.81,1.83,9.29,6.28,16.77,15.01,21.1,3.62,1.8,7.5,2.54,11.54,1.33,4.02.16,7.19-2.04,10.51-3.81-2.79,7.42-13.62,11.51-22.79,7.8-10.35-4.19-19.01-16.83-16.15-30.34Z" style="fill: #7aa629; stroke-width: 0px;"/>
  <path d="M180.46,454.79c-7.88-4.26-15.31-.38-22.85,1.29-1.68.37-3.27,1.22-5.07.91,8.46-4.02,16.91-8.06,25.7-11.33,1.58,2.84,3.53,5.59,2.22,9.14Z" style="fill: #205e1c; stroke-width: 0px;"/>
  <path d="M142.29,460.71c-.77-.21-1.54-.43-2.31-.64-.48-.16-.97-.4-1.13-.87-1.7-4.95-4.37-9.59-4.81-14.94.51-.7,1.02-1.41,1.53-2.11,2.91,5.94,4.61,12.32,6.72,18.56Z" style="fill: #3b8c3d; stroke-width: 0px;"/>
  <path d="M180.46,454.79c-.1-3.2-2.26-5.9-2.22-9.13,1.02-.9,1.8-.76,2.19.57,1.36,4.63,3.63,8.97,4.54,13.75-4.07.5-2.67-3.74-4.51-5.19Z" style="fill: #3b8c3d; stroke-width: 0px;"/>
  <path d="M134.04,444.26c2.53,5.06,3.86,10.58,5.94,15.81-1.58,1.17-2.74-.05-3.35-1.04-2.13-3.45-4.43-6.87-4.92-11.06.84-1.2,1.07-2.77,2.33-3.71Z" style="fill: #205e1c; stroke-width: 0px;"/>
  <path d="M348.24,245.05c1.83,2.03,4.32,1.61,6.62,1.72,5.46.25,10.94-.43,16.41.27,14.29,1.83,23.35,10.26,26.33,24.48,2.8,13.39-1.57,24.24-11.75,32.92-2.13,1.81-2.82,3.39-1.75,6.02,1.12,2.75,1.85,5.66,2.75,8.5.86,2.73.57,5.15-1.94,6.95-2.8,1.58-5.5,3.25-8.93,3.32-6.87.16-9.35-2.14-10.01-9.06-.19-1.97,1.79-4.48-.44-5.77-1.61-.94-3.84.53-5.82.48-6.81-.16-13.54-.58-17.54-7.44-.44-.74-1.13-1.32-1.86-1.8-1.22-1.24-2.27-2.53-1.17-4.39.19-7.4,3.5-9.95,11.03-8.59,3.96.71,7.86.54,11.6-1.15.25-1.1,1.12-1.63,2.02-1.99,3.57-1.44,6.2-3.91,8.11-7.19,3.61-6.04,1.5-10.32-5.39-10.73-3.85-.23-7.71-.17-11.56-.05-13.49.43-23.44-6.24-31.9-15.84-1.31-1.48-2.5-3.08-3.84-4.55-1.79-2.62-2.18-5.39-.92-8.34.22-10.09,4.31-18.26,12.27-24.42,1.52-1.17,1.54-2.27.96-3.85-.98-2.68-1.67-5.47-2.72-8.12-1.46-3.69-.01-6.34,2.88-8.36,1.71-1.19,3.69-2.07,5.64-2.84,7.5-2.95,11.12-1.1,13.25,6.64,1.75,6.36,1.75,6.42,8.22,6.51,5.51.07,9.6,2.22,11.65,7.54.98,2.55,2.08,5.07,2.77,7.7,1.18,4.56-1.37,7.86-6.12,8.02-2.98.1-5.97-.17-8.96-.16-1.33,0-2.77-.3-3.94.69-.85,1.38-2.44,1.59-3.71,2.27-4.54,2.42-5.24,4.69-2.73,9.24.24.44.46.87.5,1.37Z" style="fill: #e3e4e2; stroke-width: 0px;"/>
  <path d="M400.69,350.65c-5.81,8.33-14.49,12.75-23.47,16.38-18.75,7.58-37.48,6.14-55.75-1.72-19.67-8.46-32.68-23.7-41.82-42.6-.53-1.09-.66-2.38-.97-3.57,2.04-.16,2.76,1.5,3.59,2.8,5.35,8.48,11.68,16.02,19.43,22.5,10.95,9.15,23.32,15.19,37.2,18.09,4.54.95,9.17,1.9,13.89,1.61,11.45.42,22.57-1.37,33.19-5.56,4-1.58,7.59-4.22,11.34-6.44,1.08-.64,2.08-1.38,3.37-1.5Z" style="fill: #6c9922; stroke-width: 0px;"/>
  <path d="M318.28,242.81c-.21,2.89.38,5.62,1.63,8.21,1.24,1.87,2.23,3.88,3.23,5.89,5.34,10.81,14.2,16.02,26.1,16.3,5.11.12,10.24-.15,15.35.1,4.65.23,7.17,2.33,8.09,6.39.28,1.24.48,2.47-.62,3.46-1.41,5.27-6.48,6.03-10.3,8.33-2.5-6.7-8.99-6.59-14.35-8.16-5.09-1.5-10.38-2.19-15.34-4.36-7.63-3.34-11.59-9.37-13.73-17.01-1.38-4.95-1.8-10-1.58-15.12.07-1.54.23-2.98,1.51-4.04Z" style="fill: #287128; stroke-width: 0px;"/>
  <path d="M352.78,364.15c-.85,1.04-2.06.84-3.13.75-12.9-1.04-25.08-4.41-36.32-11.03-7.89-4.65-14.75-10.53-21.17-16.98-4.33-4.36-7.29-9.73-10.84-14.67-.8-1.11-1.36-2.4-2.65-3.07-4.79-10.81-9.58-21.61-11.61-33.4-.28-1.59-.38-3.17-.53-4.76-.71-1.15.12-2.55-.59-3.7,0-1.25,0-2.51,0-3.76,1.95.16,2.69,1.64,3.33,3.15,2.19,5.13,4.1,10.37,5.46,15.79,5.3,21.05,16.33,38.72,32.73,52.65,9.88,8.4,21.57,14.19,34.37,17.19,3.59.84,7.4.58,10.95,1.84Z" style="fill: #318120; stroke-width: 0px;"/>
  <path d="M339.13,301.25c.48,1.28.97,2.56,1.45,3.84,1.23,1.1,1.98,2.57,2.55,4.04,2.03,5.17,6.09,6.86,11.23,6.82,1.61-.01,3.22,0,4.83-.19,4.06-.49,4.52-.18,5.84,3.82.51,1.53.85,3.11,1.34,4.65,1.68,5.27,4.44,6.76,9.93,5.63,1.89-.39,3.55-1.96,5.68-1.18-.35,6.67-7.64,11.63-13.64,8.65-7.65-3.8-15.39-7.75-22.39-12.51-7.68-5.21-9.97-13.88-8.88-23.15.23-1.98,1.15-1.41,2.07-.41Z" style="fill: #276d28; stroke-width: 0px;"/>
  <path d="M348.24,245.05c-4.32-3.78-4.04-8.17.78-10.98,1.58-.92,3.28-1.72,5.16-1.91,3.46.08,6.92.24,10.37.23,2.51,0,2.5.97,1.72,2.98-1.04,2.66-3.26,3.76-5.56,4.48-4.34,1.34-8.63,2.7-12.47,5.2Z" style="fill: #246428; stroke-width: 0px;"/>
  <path d="M381.97,328.67c-2.82,1.28-5.56,2.67-8.82,2.67-3.73,0-6.16-1.52-7.2-5.14-.75-2.62-1.65-5.21-2.24-7.86-.43-1.91-1.29-2.35-3.13-1.93-1.68.38-3.44.49-5.17.51-9.04.08-12.67-2.84-14.84-11.83,1.28-.23,1.77.74,2.26,1.57,4.41,7.49,11.57,7.43,18.9,6.92.12,0,.23-.1.35-.12q5.55-1.15,4.92,4.3c-.3,2.65.35,5.18,1.24,7.62.79,2.17,2.68,2.56,4.77,2.87,4.28.62,7.95-1.45,11.88-2.34-.46,1.47-2.24,1.55-2.93,2.77Z" style="fill: #bac0b5; stroke-width: 0px;"/>
  <path d="M187.19,364.91c-3.67,3.04-11.45,3.2-16.82.16-10.71-6.06-18.83-14.14-20.53-27.06,2.38,0,2.25,2.11,2.66,3.48,3.77,12.48,11.82,20.43,24.65,23.07,3.23.67,6.68.26,10.04.34Z" style="fill: #3c7d1c; stroke-width: 0px;"/>
  <path d="M265.94,277.28c1.08,1.09.56,2.44.59,3.7-1.06-1.1-.57-2.44-.59-3.7Z" style="fill: #52a757; stroke-width: 0px;"/>
  <path d="M504.75,236.85c-6.53,3.99-15.76-1.3-20.31-6.76-4.67-5.59-7.43-12.05-7.39-19.49.12-.97-.01-2.12,1.44-2.18,1.42-.06,1.44.98,1.59,2.02,1.15,7.83,4.05,14.74,9.95,20.33,4.2,3.98,8.96,6.13,14.73,6.08Z" style="fill: #2d8021; stroke-width: 0px;"/>
  <path d="M372.06,283.17c-.35-6.98-2.35-8.88-9.42-9.03-6.44-.13-12.88.69-19.32-.56-11.94-2.3-20.7-10.62-23.42-22.57,1.34.52,2.14,1.61,2.95,2.72,6.36,8.61,14.74,14.43,25.21,16.41,5.28,1,10.89.28,16.35.37,1.72.03,3.42.02,5.16.43,2.21.52,4.49,1.24,4.69,3.53.26,3,1.46,6.56-2.21,8.69Z" style="fill: #bec5b9; stroke-width: 0px;"/>
</svg>