<?xml version="1.0" encoding="UTF-8"?>
<svg id="Layer_1" data-name="Layer 1" xmlns="http://www.w3.org/2000/svg" viewBox="0 0 599.31 513.22">
  <path d="M1.36,418.98c.69-9.42,4.22-17.97,9.15-25.75,18.91-29.88,39.23-58.82,59.07-88.08,26.54-39.16,53.02-78.37,79.51-117.56.41-.61.71-1.31,1.15-2.12-.98-.15-1.82-.28-2.65-.41.67-1.88,2.18-1.33,3.53-1.24,2.49.99,2.58,2.77,1.56,4.87-8.44,17.27-18.03,33.87-28.45,50.02-5.6,8.69-9.92,18.17-15.75,26.74-3.82,5.62-6.93,11.39-7.64,18.38-.46,4.53-2.87,8.64-3.8,13.22-1.3,6.39-.53,12.64-.58,18.95,0,1.24.26,2.52.86,3.62,1.81,3.31,2.87,6.68,3.11,10.58.21,3.26,2.59,6.21,4.48,8.92,5.46,7.82,11.1,15.32,18.92,21.37,8.24,6.37,16.82,11.96,25.86,16.96,4.83,2.68,10.49,3.36,15.38,5.76,7.26,3.55,14.93,2.93,22.57,3.77,13.08,1.43,25.31-2.26,37.85-4.39,21.2-3.6,40.65-11.42,58.95-22.65,6.8-4.17,12.56-9.32,18.34-14.59,1.59-1.45,2.85-3.16,2.79-5.5.27-1.57,1.37-2.61,2.43-3.65,8.08-7.88,16.01-15.89,22.02-25.57.74-1.18,1.57-2.75,3.52-1.67,1.41,2.07,2.7,2.18,4.83.53,3.77-2.93,7.54-5.74,9.99-9.96.65-1.12,1.71-1.81,2.91-2.24,1.37-.5,2.36-1.45,2.99-2.7,2.16-4.26,5.65-7.91,5.92-13.06.09-1.58,1.34-2.62,2.44-3.65,2.5-2.36,3.49-5.1,2.12-8.45-.75-1.83-.67-3.38,1.43-4.34,2.78-1.27,3.07-3.8,3.55-6.5,3.22-18.01,1.38-36.3,3.01-54.41.69-7.6,1.03-15.41.51-23.13-.41-6.02-3.22-8.74-9.37-8.84-7.49-.13-14.98-.03-22.47-.04-3.77,0-7.51-.4-11.06-1.63-6.29-2.18-7.81-6.63-4.38-12.3.58-.96,1.34-1.84,1.75-2.88,3.21-8.15,9.19-11.12,17.78-10.26,5.17.51,10.48.54,15.46-1.78,1.77-.82,3.55-1.54,3.64-3.77.09-2.13-1.75-2.82-3.22-3.73-3.93-2.42-8.47-1.84-12.74-2.48-2.95-.44-5.96-.66-8.91-1.1-5.69-.85-9.31-5.19-9.37-10.9-.02-2.24,1.2-3.44,3.14-4.11,1.68-.58,3.45-.47,5.19-.5,9.48-.16,18.97.24,28.45.01,2.13-.05,4.22-.28,6.31-.72,5.64-1.18,10.51,1.57,10.7,7.35.5,14.94.96,29.89,1.67,44.83.15,3.22-1.65,6.22-2.06,9.48-.94,7.41,1.21,14.63,1.12,21.99-.04,3.08.47,6.21.44,9.33-.21,22.21,1.57,44.36,1.77,66.57.17,18.43.92,36.89,1.35,55.34.5,21.93.92,43.86,1.61,65.78.35,11.19-.68,22.4-2.11,33.53-.54,4.2-1.2,8.39-1.11,12.65.09,4.04-.81,7.94-1.74,11.82-.36,1.48-.98,3.18-2.69,3.2-1.54.02-1.98-1.69-2.45-2.97-1.76-4.77-1.47-9.85-2.01-14.79-.48-4.36-1.31-8.63-2.1-12.92-.74-4.03-3.33-6.25-7.33-6.97-5.53-.99-11.07-1.61-16.72-1.68-7.47-.09-14.95-.47-22.39-1.24-3.74-.39-7.49-.13-11.22-.08-20.35.3-40.68-.43-61-.95-13.97-.36-27.96-.08-41.89-.81-12.36-.65-24.7-.21-37.04-.58-25.29-.75-50.59-.79-75.89-.72-15.33.04-30.65-1-45.96-.68-13.22.28-26.42-.49-39.63-.1-2.8.08-5.5-.2-7.71-2.21-1.54-1.4-2.69-.85-3.55.78-.81,1.54-1.79,3.01-2.18,4.74-.34,1.02-.37,2.31-1.94,2.3Z" style="fill: #7ba2e8; stroke-width: 0px;"/>
  <path d="M403.68,3.21c19.65.2,39.24,1.36,58.78,3.56,5.16.58,10.35.81,15.32,2.48-.62,2.09-2.36,2.39-4.15,2.52-2.24.16-4.51.24-6.74,0-16.62-1.76-33.32-2.43-49.99-3.47-12.56-.78-25.19-.71-37.77-1.27-12.61-.56-25.23.16-37.8-.51-24.08-1.29-48.18-.03-72.25-.82-7.71-.25-15.43-.24-23.12-.34-19.93-.24-39.88.06-59.8.62-20.68.57-41.39,1.34-61.76,5.74-10.44,2.26-19.8,6.69-28.43,12.86-2.76,1.97-4.12,4.98-5.59,7.85-1.07,2.07.12,3.1,2.18,3.07,2.46-.03,4.5-1.25,6.53-2.53,8.35-5.27,16.97-9.69,26.78-12.02,9.61-2.28,19.17-4.61,29-5.58,11.04-1.09,22.15-2.44,33.19-2.43,23.07.03,46.17-1.32,69.21-.17,15.85.79,31.69.5,47.52.73,9.17.13,18.39.59,27.63.03,11.31-.69,22.67.7,34.03.66,25.35-.08,50.62,1.75,75.71,5.26,9.25,1.3,18.31,3.95,26.97,7.56,6.49,2.71,13.01,5.41,20.08,5.48,10.45.1,19.02,4.36,26.92,10.7,7.18,5.77,14.8,10.9,21.02,17.93,10.37,11.71,16.52,25.43,21.14,40.07,2.65,8.38,1.3,16.86.46,25.27-.4,4-.01,7.96-.32,11.92-2.74,1.88-8.95,2.1-11.62.27-3.25-2.23-3.56-5.47-2.84-9,.99-4.89,1.51-9.86,2.64-14.73,1.17-5.05.57-9.9-1.59-14.6-1.73-3.74-3.06-7.62-4.3-11.56-2.77-8.8-8.19-15.96-14.95-22.03-5.66-5.08-12.25-3.98-16.8,1.99-4.48,5.87-6.81,12.33-7.05,19.7-.13,4.04-1.42,7.87-3.63,11.28-3.21,4.94-3.14,9.77-.04,14.73,3.84,6.15,4.37,13.19,4.81,20.15.12,1.93.23,4.36-2.02,5.69-1.81.64-3.68.49-5.54.49-10.55.01-21.09.03-31.64,0-1.84,0-3.75.22-5.38-.99-.18-.31-.47-.66-.19-1,5.48-6.57,3.19-13.72.39-20.08-3.45-7.86-6.88-15.76-10.47-23.57-3.04-6.6-7.56-11.97-13.77-15.8-5.53-3.42-10.58-7.47-15.65-11.5-1.86-1.48-3.75-3.02-6.03-3.7-11.1-3.29-21.69-8-33.08-10.6-18.05-4.12-36.33-6.39-54.63-8.52-9.39-1.1-18.88-1.48-28.34-1.69-12.22-.27-24.45-.2-36.68-.03-10.7.15-21.36.97-32.04,1.8-12.02.94-23.7,3.34-35.33,6.03-8.48,1.96-16.9,4.42-25.02,7.68-8.78,3.52-14.25,10.16-17.4,18.89-.64,1.78-1.36,3.54-2.67,4.89-3.43,3.52-5.43,7.82-6.49,12.47-1.8,7.86-5.41,14.99-8.42,22.37-2.01,4.94-4.64,9.76-3.06,15.44.19.69-.36,1.13-.95,1.43-1.56.6-3.19.52-4.8.52-25.88.01-51.76.01-77.64,0-1.85,0-3.75.17-5.46-.78-1.42-1.87.49-1.8,1.32-1.96,2.21-.43,4.48-.28,6.72-.18,3.09.13,5.94-.76,8.71-1.89,3.36-1.37,3.79-3.35,2.24-6.53-3.29-6.73-8.19-12.47-11.54-19.2-2.71-5.46-7.89-5.93-12.37-1.9-3.43,3.08-5.32,6.79-5.79,11.37-.39,3.84-1.05,7.66-1.41,11.51-.24,2.58-.57,5.31,2.49,6.78.5.24.34.84-.11,1.23-2.88,1.1-5.52.27-8.12-.97-.98-1.29-.93-2.83-.89-4.31.25-12.05,1.33-23.76,7.82-34.58,6.15-10.25,9.77-21.85,16.63-31.81,9.84-14.3,21.5-26.69,35.34-37.29,16.5-12.64,35.34-17.8,55.51-20.03,15-1.65,30.04-2.83,45.07-2.98,16.57-.17,33.16-1.07,49.73.09,3,.21,5.96-.41,8.96-.39,18.46.06,36.92.37,55.37.88,8.84.25,17.67-.18,26.52.13,13.83.49,27.69.53,41.54.6,9.34.05,18.68.81,28.04.68,3.71-.05,7.42-.98,11.13-.05Z" style="fill: #7ca6eb; stroke-width: 0px;"/>
  <path d="M1.36,418.98c.9-.51.74-1.42.82-2.23,1.2-2.2,2.92-2.68,4.96-1.27,2.21,1.52,4.65,1.6,7.16,1.6,16.72-.01,33.46-.42,50.17.09,22.57.69,45.15.14,67.7.83,11.6.35,23.22-.08,34.78.69,13.48.9,26.94.36,40.4.64,13.82.29,27.65.29,41.46.81,19.56.74,39.16.7,58.7,1.61,18.91.89,37.9.77,56.7,3.63,7.39,1.12,10.98,3.7,12.04,11.12,1.38,9.61,1.94,19.34,2.38,29.05.16,3.67.28,7.4,4.62,8.9,2.13.9,3-.43,3.93-2.03.7-1.2,1.07-3.18,3.3-2.29.82,3.26-.99,5.68-2.58,8.18-3.05,2.55-6.46,2.21-9.42.34-5.24-3.31-10.87-3.72-16.84-3.92-19.81-.66-39.66-.21-59.42-2.08-1.86-.18-3.74-.1-5.61-.08-16.22.2-32.41-.9-48.61-1.17-12.56-.21-25.18-.11-37.68-.85-17.33-1.03-34.66-.47-51.97-1.46-8.05-.46-16.15-.95-24.27-.42-7.71.5-15.44-.03-23.15-.39-.87-.04-1.74-.2-2.61-.18-14.85.32-29.68-.65-44.51-.95-16.43-.34-32.93.02-49.3-1.99-6.71-.83-8.42-2.86-9.02-9.65-.67-7.67-1.85-15.3-1.81-23.04-.81,11.51-1.82,22.99-1.15,34.52.09,1.61.13,3.25-.36,4.83-.17.45-.44.83-.82,1.13-1.39-4.72-.89-9.62-1.11-14.42-.56-12.34,0-24.68.63-37.01.04-.86.32-1.71.49-2.57Z" style="fill: #4f80dd; stroke-width: 0px;"/>
  <path d="M1.57,472.32c-.78-14.69-.2-29.32,1.64-43.95,1.37,2.16,1.97,4.51,1.85,6.84-.37,7.38,1.38,14.57,1.64,21.9.18,4.82,2.25,6.26,7.05,6.89,11.98,1.55,24.05,1.23,36.07,1.86,9.03.47,18.11.27,27.16.33,10.95.07,21.88.86,32.85.9,7.5.03,15.06,1.01,22.54.49,8.08-.57,16.15-.17,24.14.31,12.59.77,25.18-.13,37.71.74,4.66.33,9.44.82,14.06.91,4.58.09,9.23.64,13.96.03,5.19-.67,10.6.42,15.91.77.99.06,2,.46,2.95.31,8.06-1.3,16.14-.15,24.14.25,12.34.62,24.7-.25,36.97.68,14.42,1.09,28.83.95,43.24,1.55,7.59.32,15.17.26,22.75.59,3.41.15,6.49,1.32,9.36,3.29,3.26,2.23,6.8,3.14,10.37.43,2.04-2.17,4.87-2.42,7.52-2.99,7.07-1.55,14.15-3,21.34-3.94,3.49-.45,6.79-1.42,9.89-3.22,3.25-1.88,7.27-1.58,10.59-3.53,3.09-1.82,6.37-3.17,4.86-7.88-.54-1.68.8-2.82,2.39-3.25,2.48-.66,2.99-2.77,4.24-4.63,2.86-4.26,3.54-10.04,9.05-12.62,2.63-1.23,4.68-3.64,4.24-7.26-.32-2.7,1.84-4.04,3.66-5.65,7.43-6.55,16.85-9.62,25.16-14.62,7.65-4.61,15.36-9.12,22.93-13.85,3.06-1.91,4.93-4.89,7.35-7.38,1.1-1.14.59-2.84.12-4.3-1.11-3.53-3.05-6.56-5.73-9.08-1.67-1.56-3.17-3.25-3.98-5.37-4.17-10.88-12.54-19.12-18.29-29.02-2.07-3.55-6.38-5.64-8.46-9.4-3.32-6.02-8-11.15-11.15-17.27-1.22-2.37-2.94-4.3-4.99-6-4.58-3.81-6.76-9.52-10.88-13.75-7.11-7.32-11.09-16.82-17-25.02-8.17-11.34-14.83-23.65-21.29-36.03-4.85-9.3-8.98-18.88-12.46-28.8-4.29-12.24-6.26-24.88-8.01-37.61-.12-.85-.02-1.77-.75-2.43-1.26-.75-2.78-.89-4.02-1.69-1.38-1.11-2.15-2.43-1.45-4.25,1.3-2.34,3.74-2.03,5.84-2.55,1.44-.36,2.93-.44,4.33-.95,3.41-.85,6.91-.9,10.38-1.27,4.86-.52,6.18-2.71,4.26-7.16-2.85-6.63-3.38-13.42-2.06-20.44.63-3.33-.4-4.91-4.44-6.06-4.94-1.41-10.11-1.49-15.16-2.27-3.07-.48-6.21-.48-9.24-1.29-.39-.24-.61-.58-.68-1.02.14-1.69,1.46-2.25,2.77-2.59,8.24-2.14,16.57-2.28,24.96-1.07.11,2.66,1.64,4.31,3.76,5.72,3.46,2.3,4.34,5.87,4.33,9.75-.02,6.81.37,13.59,1.48,20.31.14.36.21.74.22,1.12-.14,1.3-.29,2.6-.6,3.88-.27.89-.54,1.78-1.02,2.58-1.9,2.2-4.7,2.73-7.19,3.81-4.52,1.96-6.79,5.78-7.11,10.72-.86,13.43,3.63,25.5,8.88,37.46,5.48,12.49,13.32,23.5,22.44,33.38,8.6,9.32,15.97,19.77,25.86,27.93,5.08,4.19,10.13,8.44,14.58,13.39,2.58,2.87,6.65,3.86,10.04,5.7,3.5,1.91,6.96,3.82,10.23,6.14,4.03,2.86,4.15,2.7,8.32.5,6.31,11.7,12.68,23.36,18.9,35.11,8.78,16.6,17.46,33.25,26.17,49.89,6.2,11.83,10.08,24.34,10.55,37.76.48,13.7.4,27.41.05,41.11-.03,1.11-.32,2.21-.5,3.31-1.22,1.56-3,2.18-4.78,2.79-3.44,1.17-6.98,1.88-10.56,2.44-20.34,3.14-40.77,5.73-61.25,7.66-19.5,1.83-38.87,4.67-58.35,6.58-12.3,1.2-24.46,3.41-36.74,4.67-4.38.45-8.7.34-12.96-1.05-4.06-1.33-8.28-1.77-12.55-1.72-19.59.25-39.16-.61-58.73-.93-27.05-.45-54.11-.78-81.15-1.49-14.72-.39-29.46.15-44.13-.72-15.85-.93-31.68-.13-47.51-.64-28.42-.91-56.85-1.08-85.27-1.7-12.94-.29-25.94.24-38.86-1.25-2.98-.34-5.9-.85-8.74-1.79Z" style="fill: #3775dd; stroke-width: 0px;"/>
  <path d="M423.16,147.07c-.05-.25-.09-.5-.14-.75.57-3.77,3.04-6.11,6.03-8.08,1.54-.81,3.07-1.69,4.9-1.69,1.63.12,3.23.59,4.89.44,5.2.51,10.4.83,15.62.73,1.35-.03,2.77-.01,3.79,1.16,1.09.87,2.38.58,3.6.59,13.32.06,26.63.09,39.95.13,1.42-1.3,3.21-1.22,4.94-1.22,12.18-.03,24.37-.01,36.55-.01,3.23,0,6.34,1,9.62.92,3.86-.1,7.63-.7,11.42-1.22,4.71-.92,9.52.35,14.22-.68,2.55-.09,5.07-1.33,7.65-.15,5.24.48,11.12,5.57,11.98,11.16,1.51,9.83,1.53,19.73-.04,29.59-.03.2-.32.36-.49.53-13.93,6.75-28.96,8.01-44.06,8.54-11.45.4-22.9,1.32-34.38.82-13.93-.62-27.87-.85-41.8-1.95-10.84-.86-21.56-2.37-32.24-4.16-5.55-.93-11.46-2.41-14.66-7.39-5.26-8.2-6.95-17.65-7.34-27.3Z" style="fill: #f0f0f0; stroke-width: 0px;"/>
  <path d="M23.15,132.01c2.75-.06,5.38,1.22,8.17.7,3-1.47,5.96-1.69,8.88.22.71.18,1.42.53,2.13.53,29.05.03,58.1.03,87.15.04,2.8-1.94,5.96-.61,8.93-.97,3.66.04,7.33-.04,11,.05,3.26,1.01,3.92,2.1,1.96,4.57-5.29,6.66-6.78,14.55-8.04,22.61-1.97,12.54-4.76,15.57-17.12,18.42-5.95,1.37-11.99,2.16-18.14,2.24-22.08.28-44.07-.9-65.95-3.82-6.54-.87-13.03-2.12-19.56-3.12-4.45-.68-8.67-.84-12.58,1.82-.52.35-1.16.43-1.8.27-1.67-2.85-2.36-5.88-2.34-9.22.03-6.27-.19-12.53-.08-18.81.13-7.66,3.58-12.65,10.14-15.88,1.02-.5,1.95-.98,2.67-1.85,1.47.88,3.18,1.25,4.62,2.2Z" style="fill: #eaeaea; stroke-width: 0px;"/>
  <path d="M579.08,138.16c-4.72,1.29-9.54.41-14.31.75-2.27.35-4.53.62-6.77-.15-1.98-6.3-.45-12.69.23-18.88.86-7.89.25-15.33-2.32-22.73-3.86-11.11-8.55-21.8-15.98-31.05-4.2-5.23-8.64-10.3-14.05-14.35-5.37-4.01-10.88-7.85-16.25-11.87-4.51-3.37-9.55-5.65-15.1-5.8-9.76-.26-18.6-3.31-27.62-6.7-10.4-3.91-21.18-6.72-32.44-7.87-12.7-1.3-25.4-2.67-38.12-3.37-7.56-.42-15.14-1.02-22.74-.95-13.58.14-27.16-.47-40.73-.52-7.55-.03-15.1-.23-22.65-.22-14.79.03-29.62.63-44.37-.15-18.59-.99-37.15-.25-55.72-.54-5.21-.08-10.41,1.23-15.63.67-12.44-1.34-24.72,1.14-37.06,1.76-10.59.53-21.01,3.14-31.37,5.83-9.76,2.54-18.56,6.61-26.75,12.31-2.04,1.42-4.4,2.34-6.94,2.59-1.46.14-2.75-.19-3.59-1.5-.89-1.38-.11-2.45.49-3.76,4.02-8.75,12.17-12.55,20.06-16.27,11.95-5.63,25.09-6.72,38-8.38,9.99-1.28,20.11-.98,30.13-1.71,12.35-.9,24.72.31,36.98-.79,8.39-.75,16.7.9,24.9-.02,7.58-.85,15.14-.26,22.58-.16,11.82.16,23.66.13,35.49.33,11.23.19,22.5-.48,33.7.18,14.09.82,28.2-.15,42.23.8,9.39.64,18.79.52,28.17,1.01,8.87.46,17.81.61,26.67,1.21,8.27.56,16.58,1.01,24.85,1.66,6.84.53,13.73,1.76,20.68,1.24,1.62-.12,2.84-.72,4.08-1.54,5.32,1.58,10.98,1.68,16.22,3.63,1.36.51,2.85.72,4.01,1.72-.76,2.37-2.93,1.21-4.42,1.74-.92.33-2.21.28-2.43,1.42-.23,1.2,1.02,1.57,1.84,2.06,2.79,1.66,5.83,2.79,8.7,4.33,8.18,4.4,15.66,9.87,22.76,15.7,11.45,9.41,22.46,19.25,30.56,32.06,6.21,9.82,10.42,20.33,13.71,31.28,2.09,6.97-.11,14.13-.34,21.21-.09,2.78.13,5.48.47,8.18.4,3.19,2.89,4.07,5.66,4.47,1.55.23,3.3-.33,4.56,1.11Z" style="fill: #64a0ed; stroke-width: 0px;"/>
  <path d="M433,507.88c-4.54.45-9.05,1.34-13.65,1.08-1.65.67-3.4.02-5.07.4-4.8.47-9.56,1.32-14.41,1.1-1.39.65-2.89.03-4.31.41-2.06.12-4.12.23-6.18.35-1.13.6-2.38.07-3.55.38-1.85.11-3.71.22-5.56.32-1.07.68-2.29.11-3.41.4-15.95,1.22-31.92.89-47.88.72-38.81-.41-77.61-.85-116.41-1.47-52.03-.83-104.05-1.82-156.08-2.78-3.61-.07-7.22-.35-10.82-.71-4.86-.49-8.65-4.1-9.96-9.33-.64-2.55-.77-5.16-.55-7.79,3.99.54,7.9-.54,11.88-.52,25.3.13,50.6.89,75.9,1.03,13.46.07,26.92.62,40.38.47,25.2-.29,50.39.76,75.58.93,15.44.11,30.91,0,46.33.74,23.71,1.13,47.41.4,71.11.55,9.4.06,18.81-1.41,28.23-1.96,4.73-.28,9.46-.35,14.19-.84,14.99-1.56,30.06-2.21,45.05-3.7,9.31-.93,18.67-.88,28-1.5,17.66-1.18,35.33-2.3,53-3.23,1.35-.07,2.75-.4,3.99.49.23,2.07.28,4.12-.59,6.08-.89.56-1.85.68-2.88.51-11.95-1.99-23.88-.65-35.81.27-8.21.63-16.45.69-24.67.93-15.34.44-30.61,1.75-45.9,2.77-9.06.61-18.09,1.64-27.19,1.98-6.07.23-12.2.05-18.24.92-3.79,1.19-7.86,1.07-11.61,2.47-8.86-.13-17.69,1.18-26.54.93-30.04-.86-60.08-.56-90.12-.72-20.45-.11-40.89-.91-61.33-.93-7.11,0-14.23.34-21.33.16-10.45-.26-20.9-.2-31.35-.57-3.49-.12-6.94.6-10.45.67-7.87.17-15.68-1.29-23.55-.8-14.71.92-29.42-.34-44.12,0-1.98.05-3.97-.08-6.76.83,8.46,1.19,16.07,1.65,23.73,1.13,1.62-.11,3.23-.24,4.85-.06,13.16,1.41,26.42,1.33,39.6,1.42,12.45.08,24.91.44,37.37.42,27.06-.05,54.1,1.04,81.15,1.61,12.22.26,24.44.33,36.66.51,15.84.24,31.69.41,47.5,1.01,13.58.51,27.19-.24,40.75,1.2,3.02.32,5.87,1.04,8.76,1.76,5.48,1.47,10.92.07,16.33-.44,11.65-1.11,23.31-2.04,34.93-3.43,1.49.07,2.99.13,4.43-.41.64-.16,1.29-.26,1.95-.28,17.29-1.66,34.59-3.13,51.84-5.1,13.33-1.53,26.61-3.5,39.98-4.64,2.13-.18,4.15-.75,6.15-1.47,1.65-.59,3.35-1.14,4.92.25-1.39,4.8-5.05,6.86-9.57,7.63-12.41,2.13-24.97,2.87-37.48,3.99-14.49,1.29-28.96,2.85-43.51,3.46-1.2.54-2.5.04-3.72.39Z" style="fill: #203fa6; stroke-width: 0px;"/>
  <path d="M1.57,472.32c1.52-.75,2.89-.68,4.6-.11,4.63,1.56,9.64,1.22,14.38,1.29,22.19.33,44.38.85,66.57,1.17,12.45.18,24.94-.26,37.36.63,15.34,1.1,30.68-.05,45.98.71,15.95.79,31.93.03,47.84.86,11.73.61,23.43.01,35.12.61,15.74.81,31.52.08,47.23.88,12.1.62,24.2-.17,36.24.67,10.97.77,21.92.28,32.87.74,3.14.13,6.34.58,9.45,1.76,6.05,2.28,12.24.62,18.42.1,9.39-.79,18.56-3.13,28.02-3.56,6.29-.29,12.55-1.45,18.82-2.21,8.11-.98,16.24-1.88,24.34-2.94,13.14-1.72,26.36-2.81,39.53-4.23,13.93-1.5,27.72-3.89,41.62-5.5,4.6-.53,8.82-2.48,13.23-3.7-1.5,10.53-5.13,13.74-16.93,14.97-4.31.45-8.61,1.1-12.93,1.22-3.12.09-4.56,1.03-4.06,4.28.1.68-.25,1.43-.39,2.14-1.05-.76-1.07-1.94-1.24-3.05-.47-1.86-1.92-1.66-3.3-1.54-11.16,1.01-22.34,1.84-33.51,2.79-16.87,1.44-33.74,2.91-50.62,4.31-14.02,1.17-28.05,2.23-42.06,3.49-2.74.25-5.47.26-8.22.16-14.76-3.11-29.82-1.46-44.69-2.79-1.87-.17-3.74-.14-5.61-.11-27.69.46-55.36-.78-83.04-.83-14.57-.03-29.16-.24-43.7-.85-14.6-.62-29.2.13-43.76-.71-12.48-.71-24.97.06-37.4-.73-15.59-1-31.19-.06-46.76-.7-19.94-.82-39.87-1.36-59.82-1.57-6.7-.07-13.42-.76-20.15-.82-2.16-1.5-3.14-3.71-3.65-6.18.13-.2.21-.42.23-.66Z" style="fill: #203fa6; stroke-width: 0px;"/>
  <path d="M508.01,292.31c-.6.31-.86.82-.97,1.48-.41,2.47-1.62,2.87-3.62,1.41-2.39-1.74-5.07-2.99-7.44-4.84-2.5-1.95-5.43-3.6-8.44-4.61-6.82-2.29-11.05-7.81-16.16-12.21-10.24-8.82-19.4-18.6-28.12-29.01-5.94-7.09-12.46-13.83-17.68-21.44-8.34-12.16-14.49-25.49-17.79-40-1.3-5.74-1.69-11.66-.88-17.35.54-3.79,1.9-8.2,7.08-9.37,2.62-.59,5.01-2.15,7.51-3.27.85.56,1.01,1.46,1.16,2.37.03,3.91.4,7.84-.27,11.74-2.95,3.74-5.6,7.55-5.11,12.76.24,2.53.66,4.95,1.86,7.16,5.88,10.79,13.28,20.04,24.74,25.55,4.17,2,8.22,3.99,12.78,4.98,3.54.77,6.71,2.62,9.71,4.66,1.96,1.33,3.9,2.67,6.18,3.41,7.4,13.76,14.83,27.51,22.19,41.3,4.48,8.4,8.85,16.85,13.26,25.28Z" style="fill: #204dc1; stroke-width: 0px;"/>
  <path d="M390.2,487.22c12.66-.5,25.26-1.68,37.87-2.88,10.38-.99,20.79-1.57,31.17-2.47,12.96-1.12,25.91-2.41,38.87-3.56,7.16-.64,14.34-1.19,21.51-1.68,1.98-.14,3.95-.15,5.91-.63,2.34-.58,3.65.22,3.06,2.89-1.02,1.52-2.6,1.83-4.25,1.97-11.55.95-23.06,2.44-34.67,2.71-6.37.15-12.63,1.49-18.98,1.98-10.07.78-20.17,1.01-30.22,2.07-12.39,1.3-24.84,1.82-37.2,3.42-4.32.56-8.7.51-13.05.91-9.04.82-18.13,1.06-27.14,2.24-4.74.62-9.45-.61-14.19-.55-27.96.37-55.91-.47-83.84-1.01-20.59-.39-41.19.24-61.74-.71-12.48-.57-24.97.08-37.41-.67-18.59-1.11-37.21.26-55.75-.83-14.34-.84-28.68-.41-43.01-.94-9.01-.33-18.16-1.14-27.23-.04-2.47.3-4.12-.48-4.83-2.93-.44-.72-.97-1.42-.63-2.35,1.29-2.38,3.63-1.86,5.66-1.91,11.85-.27,23.67.83,35.53.8,22.7-.06,45.41.38,68.1.89,17.47.4,34.95-.25,52.38.65,16.6.85,33.21-.13,49.76.76,17.72.96,35.45-.11,53.13.7,25.83,1.19,51.65.32,77.47.65,4.58.06,9.11,1.5,13.73.54Z" style="fill: #040936; stroke-width: 0px;"/>
  <path d="M579.08,138.16c-2.79-.41-5.71.45-8.42-1.16-1.66-.99-2.66-2.2-2.93-4.04-.82-5.56-.47-11.17.23-16.64.99-7.76.49-15.1-3.11-22.11-1.82-3.55-3.17-7.26-4.5-11.03-2.45-7-7.35-12.63-11.76-18.42-11.28-14.83-26.09-25.76-41.34-36.08-4.72-3.19-9.76-5.94-15.04-8.21-1.22-.53-3.3-1.15-2.88-2.88.39-1.62,2.42-1.93,3.98-2.31,1.53-.37,3.26.5,4.69-.68,10.3,2.7,19.27,8.09,27.92,14.04,22.48,15.46,39.03,35.89,50.6,60.53,3.96,8.43,7.61,16.87,8.5,26.25.67,1.76-.15,3.66.53,5.42.21,5.47.42,10.94.63,16.41-2.31.76-4.68,1.1-7.11.92Z" style="fill: #4d92e9; stroke-width: 0px;"/>
  <path d="M35.07,486.49c1.31,1.68,2.7,2.68,5.08,1.72,1.3-.53,2.95-.28,4.44-.26,19.38.23,38.79-.05,58.14.9,16.71.82,33.41-.11,50.09.66,14.58.67,29.18.03,43.72.84,11.47.64,22.92.5,34.37.49,23.44,0,46.87.68,70.3,1.06,16.17.26,32.35-.02,48.51.57,7.32.27,14.59,1.1,21.94,0,12.76-1.9,25.7-2.02,38.52-3.58,7.11-.87,14.37-.88,21.52-1.74,17.25-2.07,34.69-1.67,51.9-4.34,5.44-.84,11.09-.33,16.58-.96,9.47-1.09,19.06-1.04,28.44-2.98.09,1.07.17,2.15.26,3.22-.02.43-.04.87-.05,1.3-4.82,1.55-9.9,1.09-14.78,1.29-11.05.45-22.08,1.36-33.1,1.98-12.13.68-24.32.88-36.41,2.08-10.13,1-20.32,1.19-30.41,2.26-14.95,1.59-30,1.72-44.91,3.14-25.54,2.43-51.05.9-76.55.98-10.67.03-21.41-.04-32.1-.51-17.37-.77-34.76-.24-52.12-.86-17.39-.62-34.77-.15-52.14-.71-9.15-.29-18.29-.64-27.44-.64-10.04,0-20.1.28-30.13-.07-17.94-.62-35.88-.66-53.83-.69-1.99,0-4.02-.19-5.8,1-2.19,1.46-2.57-1.24-3.92-1.69-.03-1.49-.05-2.98-.08-4.47Z" style="fill: #112073; stroke-width: 0px;"/>
  <path d="M390.2,487.22c-1.05.97-2.37.65-3.57.65-26.09,0-52.19.49-78.26-.21-17.84-.48-35.68.21-53.48-.67-16.84-.83-33.69.1-50.49-.77-17.59-.91-35.18.16-52.74-.74-17.09-.87-34.19.15-51.23-.77-14.22-.76-28.43-.03-42.62-.72-6.35-.31-12.68-.54-19.03-.6-1.49-.02-3.01-.19-4.34.74-2.44-1.39-5.19-.26-7.72-.92-2.22-.54-4.51.19-6.72-.43-5.21-.36-10.78.8-15.01-3.63.52-1.11,1.23-1.7,2.62-1.57,9.66.87,19.33,1.57,29.03,1.31,13.59-.37,27.17.45,40.71,1,14.84.6,29.68-.25,44.47.63,13.46.8,26.94-.08,40.34.81,11.23.75,22.42.23,33.62.58,13.7.43,27.4.55,41.09.89,14.51.37,29.03.2,43.53.69,21.38.73,42.78.13,64.14.86,10.21.35,20.42.09,30.62.61,5.05.26,9.87,2.48,15.03,2.24Z" style="fill: #1e2f81; stroke-width: 0px;"/>
  <path d="M8.16,175.57c5-5.21,11.17-3.78,17.16-2.88,10.64,1.59,21.22,3.43,31.95,4.49,18.22,1.79,36.45,2.45,54.71,1.99,6.91-.17,13.73-1.64,20.37-3.91,7.45-2.55,8.92-8.65,9.86-15.25.94-6.64,1.98-13.24,5.32-19.25.99-1.79,2.49-3.09,3.57-4.76,1.12-1.72.52-2.48-1.42-2.44-.2-.5-.07-.89.38-1.18,5.69-.69,11.36-1.77,17.11-.43,1.25,5.77,1.96,11.53-.52,17.19-1.8,1.09-3.03-.31-4.41-1.02-2.76-1.42-4.34-.94-5.78,1.82-.7,1.35-.95,2.83-1.17,4.31-.58,3.95-1.1,7.9-1.9,11.82-1.3,6.36-4.93,10.7-10.76,13.47-5.16,2.45-10.57,3.88-16.2,4.27-5.22.36-10.41,1.06-15.67,1.06-15.44,0-30.9.59-46.31-.15-11.18-.54-22.39-1.03-33.56-1.87-4.05-.3-8.13-.84-12.19.04-4.85-.52-7.75-3.85-10.54-7.34Z" style="fill: #bdbec7; stroke-width: 0px;"/>
  <path d="M23.15,132.01c-1.9.03-4.12.73-4.62-2.2.1-9.82-.21-19.73,2.5-29.27,3.35-11.79,9.38-22.43,15.42-33,5.33-9.34,11.88-17.87,19.53-25.36,8.07-7.9,16.86-14.98,26.4-21.22,11.01-7.21,22.86-12.09,35.55-14.85,8.46-1.84,17.06-3.02,25.76-3.73,46.31-3.77,92.7-1.94,139.05-1.85,18.31.04,36.66-.14,54.96.67,12.22.54,24.44-.01,36.63.73,8.85.54,17.69.38,26.53.65.98.03,2.02-.18,2.82.64-10.31,1.03-20.69,1.29-30.99.64-16.71-1.05-33.41,0-50.09-.75-6.72-.3-13.42.22-20.04-.11-13.97-.69-27.94.19-41.86-.64-9.22-.55-18.4.18-27.54-.13-10.97-.37-21.95-.75-32.87-.26-10.16.45-20.34-.19-30.46.62-18.77,1.5-37.74,1.89-56.01,6.93-9.55,2.63-18.77,6.4-26.91,12.52-7.16,5.38-14.36,10.64-20.68,17.06-10.18,10.35-18.87,21.81-25.8,34.54-3.09,5.67-4.88,12.1-8.28,17.55-7.9,12.65-9.37,26.5-9.01,40.86Z" style="fill: #acbae5; stroke-width: 0px;"/>
  <path d="M421.63,168.08c.02-4.24.04-8.48.06-12.72.76-1.44-.06-3.08.55-4.54.32-1.25-.24-2.71.92-3.75,1.7,6.97,3.32,13.95,5.11,20.9,2.22,8.62,9.32,11.31,16.81,12.7,13.4,2.49,26.95,3.9,40.59,4.71,17.66,1.05,35.33,1.95,52.99,1.26,16.2-.63,32.54-.63,48.39-5.05,2.55-.71,4.92-1.71,7.28-2.86,1.02-.49,2.12-1.65,3.31-.2-2.5,7.45-8.26,10.6-15.54,11.27-35.39,3.27-70.87,2.17-106.32,2.02-5.69-.02-11.43-.4-17.15-.46-1.18-.01-2.54-.48-3.43.81-6.27-.98-12.61-1.27-18.89-2.18-8.04-1.17-13.94-7.04-14.94-14.92.03-1.39.01-2.78-.41-4.14-.18-1.05-.08-2.03.69-2.85Z" style="fill: #bfc1cc; stroke-width: 0px;"/>
  <path d="M422.23,174.75c1.5,8.4,6.76,13.38,15.17,14.29,4.8.52,9.61,1.04,14.43,1.34,1.54.1,2.54.63,3.36,1.8,5.79,11.19,11.58,22.37,17.36,33.56-2.79,1.34-4.41-1.09-6.17-2.26-3.57-2.38-7.28-4.16-11.41-5.32-13.25-3.71-24.04-10.93-31.72-22.56-3.72-5.64-7.89-11.05-6.85-18.41.52-3.7,1.3-7.33,5.23-9.1.03.94.05,1.88.08,2.82.62,1.22-.05,2.62.51,3.85Z" style="fill: #10278f; stroke-width: 0px;"/>
  <path d="M372.94,496.15c.51-.67,1.25-.79,2.01-.74,7.6.54,15.19-.31,22.7-.95,9.73-.82,19.53-.92,29.19-2.63,4.27-.76,8.64-.14,13-.77,5.62-.82,11.39-.92,17.09-.85,10.21.12,20.36-.93,30.57-.96,6.77-.02,13.55-1.41,20.38-1.33,6.81.07,13.69-.7,20.34,1.57.05,1.09-.32,2.04-.94,2.92-3.89-.63-7.07,1.91-10.79,2.44-6.88.98-13.86.76-20.67,2.07-11.56,2.21-23.29,3.21-34.96,4.23-9.98.88-19.91,2.55-29.98,2.53-2.33,0-4.67.46-7.01.71.39-2.14,2.29-1.99,3.75-2.35,3.53-.87,7.17-.93,10.76-1.34,5.48-.63,10.71-2.19,15.98-3.77,3.68-1.1,7.61-1.25,11.49-1.28.49-.11,0-.82.15-.35.01.04-.09.06-.3.11-1.72.36-3.49.52-5.22.31-7.59-.91-15.15-.36-22.76-.05-13.95.56-27.9.64-41.81,2.15-6.19.67-12.47.22-18.7.13-1.63-.02-3.27-.21-4.28-1.8Z" style="fill: #1f3fab; stroke-width: 0px;"/>
  <path d="M18.7,182.91c.28-1.94,1.82-1.38,2.93-1.37,9.2.03,18.37,1.11,27.54,1.25,7.29.11,14.42,1.55,21.81,1.19,14.35-.71,28.76.17,43.13-.34,9.36-.33,18.84-.69,27.7-4.82,6.39-2.98,9.86-7.71,10.86-14.49.54-3.67.97-7.37,1.57-11.03.24-1.46.66-2.93,1.28-4.26,1.68-3.6,4.31-4.16,7.48-1.79.99.73,2.09,1.32,3.14,1.97,1.1.95,1.01,2.23.85,3.46-1.59,11.88-7.33,21.84-14.48,31.14-.3.4-.85.5-1.29.73-1.21.2-2.52-.32-3.64.5-16.95.6-33.91.94-50.88.94-22.45,0-44.89-.51-67.32-1.56-3.58-.17-7.12-.99-10.68-1.51Z" style="fill: #8187ad; stroke-width: 0px;"/>
  <path d="M20,482.8c2.25-.03,4.54-.61,6.72.43-2.26.19-4.52.3-6.72-.43Z" style="fill: #203fa6; stroke-width: 0px;"/>
  <path d="M585.56,120.83c-1.17-1.71-.49-3.6-.53-5.42.91,1.74.6,3.59.53,5.42Z" style="fill: #64a0ed; stroke-width: 0px;"/>
  <path d="M414.28,509.36c1.63-.93,3.37-.34,5.07-.4-1.64.7-3.36.54-5.07.4Z" style="fill: #2048b9; stroke-width: 0px;"/>
  <path d="M395.56,510.87c1.36-.9,2.87-.37,4.31-.41-1.39.68-2.84.59-4.31.41Z" style="fill: #2048b9; stroke-width: 0px;"/>
  <path d="M433,507.88c1.16-.87,2.47-.41,3.72-.39-1.2.56-2.45.56-3.72.39Z" style="fill: #2048b9; stroke-width: 0px;"/>
  <path d="M385.84,511.6c1.11-.82,2.35-.38,3.55-.38-1.13.63-2.33.56-3.55.38Z" style="fill: #2048b9; stroke-width: 0px;"/>
  <path d="M376.86,512.32c1.06-.78,2.27-.35,3.41-.4-1.08.63-2.24.56-3.41.4Z" style="fill: #2048b9; stroke-width: 0px;"/>
  <path d="M151.21,184.55c3.68-6.43,8.81-12.04,11.35-19.11,1.87-5.23,3.61-10.54,3.58-16.21,1.48-5.65.55-11.4.75-17.1.56-.52,2.13,1.75,2.02-.88-.17-3.95.36-7.94-.29-11.87-.47-2.83.2-5.13,2.15-7.14,1.8-1.67,3.5-3.54,6.33-3.13,3.39.95,6.94.77,10.35.77,8.11,0,16.16.86,24.25.91,2.14.01,4.22.36,6.26.95,6.52,1.87,9.81,7.04,8.96,14.82-1.03,9.44-.5,18.64,3.02,27.56.75,1.9.79,3.87.51,5.89-.64,4.66,1.12,6.95,5.82,7.65,1.23.18,2.45.39,3.7.47-3.05-.19-5.54-1.8-8.07-3.26-1.94-1.12-2.01-2.61-.69-4.36,2.59-3.44,6.61-4.59,10.94-3.66,6.94,1.49,13.97,2.31,21.1,1.42,3.48-.43,6.97-.23,10.45-.18,1,.01,1.99.22,2.61,1.18-.25,1.26-1.33,1.35-2.28,1.56-7.38,1.57-14.89.44-22.32,1.02-.38.03-.54-.39-.62-.75,0,.63.41.86.94.87,19.4.32,38.77,1.53,58.19,1.27,5.18-.07,8.78-2.13,11.37-6.39,2.29-4.44,3.15-9.2,2.98-14.12-.21-6.13.63-12.2.97-18.29.48-8.55,7.83-14.95,17.02-15.16,9.6-.22,19.2-.09,28.81-.04,3.17.02,6.15-.37,9.05-1.81,2.81-1.4,5.87-1.98,9.06-1.97,9.85.03,19.7-.03,29.56.05,1.77.01,3.84-.49,4.99,1.61-.35.69-.98.96-1.67,1.15-9.66,1.74-19.42.67-29.13.96-4.42.13-8.69.72-12.7,2.68-3.58.42-7.18.65-10.33,1.09.82.14,2.06-.22,3.3-.22,8.32-.02,13.33,4.42,13.89,12.95.39,5.97.82,11.96.84,17.92.04,11.05,1.65,21.88,3.75,32.66.46,2.35.79,4.66.34,7.04-.25,1.35-.44,2.77-.19,4.1,1.44,7.55-.41,14.9-1.24,22.31-.18,1.62-.35,3.23-.3,4.85.48,14.08-.45,28.18.08,42.24.68,18.19.5,36.42,1.66,54.57.52,8.11.01,16.17.25,24.24.38,13.08.41,26.23,1.25,39.25,1.03,16-1.32,31.58-2.92,47.32-.55,5.44-1.27,10.92-1.05,16.42.34,8.62-.6,17.19-.86,25.79-.09,3-.75,5.92-1.97,8.71-.59,1.33-1.43,2.29-2.81,2.75-4.98-.86-6.66-3.04-6.75-8.97-.15-10.18-1.19-20.3-2.33-30.4-.75-6.63-4.31-9.48-10.92-10.08-11.74-1.06-23.46-2.03-35.27-2.46-14.29-.52-28.59-.82-42.86-1.47-10.09-.46-20.22.32-30.22-.74-7.95-.84-15.88-.34-23.82-.91-5.4-.39-11.01-.32-16.56.02-5.97.37-12.14-.5-18.23-.41-19.44.3-38.88-.51-58.3-1.02-16.7-.44-33.39.08-50.08-.53-25.86-.94-51.73-.68-77.6-.7-1.53,0-3.04.04-4.08-1.34-1.62-2.15-3.28-1.78-5.01-.17.07-1.7,1.12-3.02,1.83-4.46,2.31-4.73,2.33-4.71,6.1-1.48,1.41,1.2,3.07,1.48,4.89,1.47,8.11-.05,16.25-.39,24.33.09,7.33.43,14.61-.26,21.9-.1,9.21.21,18.41.63,27.61.71,15.29.12,30.58-.19,45.86.14,6.41.14,12.83-.76,19.27.53,3.7.74,7.48-.88,11.45-.3,5.21.76,10.6.38,15.91.41,8.11.04,16.25-.41,24.33.11,13.45.86,26.93,0,40.34.83,9.48.59,18.96-.16,28.36.66,15.67,1.36,31.34.49,47.01.78,12.67.24,25.27,1.78,37.96,1.48,3.65-.09,7.4.8,10.99,1.71,4.95,1.25,6.31,5.24,7.19,9.84,1.5,7.81,1.53,15.78,2.95,23.58.3,1.66.61,3.41,2.21,5.06,2.14-4.25,2.83-8.65,2.93-13.01.22-10.2,2.23-20.2,2.89-30.33.41-6.28.2-12.61.27-18.92,0-.5-.06-1-.07-1.49-.25-13.2-.46-26.4-.77-39.6-.41-17.75-.29-35.53-.93-53.25-.67-18.41-.8-36.83-1.5-55.23-.54-14.17-.98-28.33-1.51-42.5-.25-6.61-.11-13.37-1.81-19.98-.67-2.6-.37-5.95.73-8.41,2.93-6.56,2.12-13.19,1.2-19.8-1.28-9.21-.38-18.42-.64-27.62-.08-2.78.02-5.52-1.73-7.87-1.81-2.43-3.77-3.95-7.29-2.9-5.13,1.53-10.51,1.12-15.83,1.01-7.61-.17-15.23-.1-22.84-.02-4.19.04-5.04,1.25-4.04,5.23,1.54,6.17,3.79,7.41,10.09,8.37,7.02,1.08,14.49-.14,21.02,3.76,1.76,1.05,3.71,1.88,3.3,4.39-.39,2.35-1.7,3.58-4.12,4.63-7,3.04-14.24,2.03-21.37,1.93-5.02-.07-7.87,2.37-10.12,6.26-1.31,2.26-2.52,4.58-3.92,6.78-2.84,4.46-1.95,7.83,2.92,9.87,3.35,1.4,6.96,1.85,10.56,1.89,7.99.08,15.98.15,23.96-.01,6.76-.14,10.29,3.63,10.35,10.34.04,5.09-.59,10.23-.5,15.25.22,12.42-1.54,24.73-1.13,37.16.22,6.8.46,13.79-1.89,20.51-1.03,2.95.9,6.45-1.17,9.42-.63.9-.86,2.36-2.17,2.35-3.24,0-2.62,1.42-1.61,3.43,1.58,3.15.64,7.24-2.41,9.17-2.48,1.57-2.97,3.44-2.3,6.01.15.58.39,1.63.2,1.74-4.28,2.32-4.28,7.44-7.09,10.69-.16.19-.31.45-.52.53-6.83,2.58-9.18,10.17-15.48,13.59-3.65,1.99-3.18,2.82-4.92-1.16-.19-.44-.59-.78-.89-1.17-.55-2.18.73-3.57,2.11-4.92,3.6-1.03,2.72-4.11,3.01-6.65,2.79-7.61,5.67-15.18,6.88-23.28,3.35-22.55-3.34-41.87-18.68-58.36-13.83-14.86-31.62-21.88-51.21-24.82-28.38-4.26-55.32,1.26-81.31,12.68-17.09,7.51-32.38,17.77-45.62,30.89-14.01,13.89-25.16,29.74-30.42,49.06-4.22,15.47-3.78,30.86,2.28,45.88,3.17,9.34,8.18,17.53,15.36,24.34,13.01,12.58,28.89,19.24,46.43,22.23,17.63,3,35.2,2.06,52.63-1.75,20.83-4.67,40.03-13.08,57.57-25.24,3.96-2.37,7.54-5.25,11.1-8.15,1.03-.83,1.9-2.08,3.54-1.45,1.74,3.72-1.4,5.71-3.39,7.3-1.86,1.49-3.46,3.12-5.02,4.82-4.9,5.36-11.62,8.03-17.49,11.95-10.87,7.25-23.12,11.45-35.32,15.74-8,2.81-16.56,3.17-24.63,5.48-8.37,2.39-17.04,2.36-25.43,4.26-2.82.64-5.41-1.46-8.65-1.08-8.33.98-16.16-1.73-24.05-4.4-11.8-4-22.85-9.44-32.39-17.2-6.59-5.36-14.01-9.72-19.05-17.34-3.54-5.36-7.16-10.79-10.79-16.15-.66-.97-1.35-2.58-.98-3.47,1.28-3.12-.55-5.33-1.8-7.66-1.43-2.69-2.39-5.31-1.56-8.44.56-2.12-1.23-4.17-.89-6.19,1.06-6.18.97-12.57,3.64-18.48,1.58-3.5,2.48-7.29,2.62-11.18.07-2.12,1.13-3.79,2.22-5.45,6.62-10.09,12.46-20.63,18.54-31.04,4.87-8.33,10.51-16.27,15.23-24.7,4.49-8,9.68-15.69,12.71-24.45.44-1.27,1.47-1.98,2.06-3.06.81-1.48,1.65-2.98-.55-4.06Z" style="fill: #679bea; stroke-width: 0px;"/>
  <path d="M306.19,339.34c-4.06,3.05-8.14,6.09-12.18,9.17-.6.46-1.15.89-1.93.9-2.86-1.8-5.48-.65-8.13.6-11.63,5.48-23.41,10.49-36.04,13.31-14.25,3.18-28.53,5.55-43.22,5.93-12.09.31-23.83-.94-35.46-3.88-19.96-5.04-36.32-15.41-47.95-32.7-.69-1.03-1.31-2.13-2.34-2.89-5.46-11.47-6.5-23.71-4.62-35.91,5.14-33.32,25.2-56.97,51.58-75.84,24.02-17.18,50.96-26.93,80.53-29.13,21.86-1.63,42.92,1.3,62.19,12.17,23.61,13.32,36.39,33.87,37.78,60.99.57,11.15-2.45,21.87-6.65,32.19-.46,1.13-1.34,2.11-1.27,3.44-.63,2.52-1.16,5.09-3.49,6.73-1.13,1.32-1.92,2.83-2.48,4.46-7.44,11.31-16.43,21.28-26.32,30.47Z" style="fill: #f1bd5c; stroke-width: 0px;"/>
  <path d="M381.17,126.69c-1.89,7.53-.28,15.08.12,22.59.27,5.07.77,10.14.57,15.22-.1,2.64-.69,5.59-3.9,6.01-3.21.42-5.33-1.56-6.4-4.58-.85-2.38-1.11-4.7-.42-7.27,1.82-6.72,2.93-13.54,2.57-20.57-.22-4.21-.82-8.35-1.31-12.53-.25-2.09-1.31-4.63,1.22-6.09,1.54-.89,3.23-2.01,5.21-.89,1.87,1.06,2.33,2.78,2.33,4.75,0,1.12,0,2.24,0,3.36Z" style="fill: #98b8ef; stroke-width: 0px;"/>
  <path d="M138.45,133.5c-2.99,0-5.98,0-8.97,0-2.09-2.35-1.89-5.04-.96-7.72,1.22-3.52,2.4-7.08,3.98-10.45,3.75-8.02,6.47-16.39,9.01-24.84.86-2.86,2.26-5.5,4.53-7.63,1.07-1,2.23-2.26,2.58-3.6,4.25-16.15,16.89-21.91,31.27-25.8,11.01-2.98,22.07-5.65,33.26-7.82,7.3-1.41,14.77-1.95,22.11-2.5,21.63-1.6,43.35-1.47,65.01-.77,16.3.53,32.55,2.44,48.78,4.61,13.83,1.85,27.3,4.91,40.77,8.08,8.28,1.95,16.19,5.53,24.23,8.47,3.45,1.26,6.2,3.77,8.87,6.09,4.53,3.95,9.74,6.82,14.57,10.27,4.31,3.08,7.98,7.24,10.36,12.03,3.32,6.67,6.03,13.64,9.01,20.48,1.77,4.07,4.75,7.69,4.86,12.36.1,4.29,2.29,8.72-1.05,12.83-.77.95-1.49,1.12-2.43,1.28-6.72.04-13.45.1-20.13-.9-1.99-1.82-1.81-4.27-1.83-6.62-.08-6.97.35-13.96-1.28-20.85-.58-2.45-1.38-4.54-4.09-5.26-3.04-2.1-5.05-4.77-4.76-8.7,1.02-1.07,2.39-1.19,3.75-1.44,2.94-.54,3.47-1.64,2.25-4.4-.51-1.16-1.3-2.12-2.16-3.04-1.97-2.1-4.42-3.74-6.28-5.86-8.83-10.06-21.19-13.23-33.13-16.99-16.33-5.14-33.14-8.28-50.09-10.56-10.37-1.4-20.79-2.26-31.25-2.89-6.71-.41-13.45-.86-20.14-.92-6.7-.06-13.5-.29-20.16.47-8.2.94-16.42.33-24.63,1.21-26.66,2.85-52.97,6.96-77.08,19.64-6.86,3.61-11.83,9.49-16.46,15.53-1.92,2.5-2.39,5.72-2.3,8.92.17,6.29-1.28,12.06-5.02,17.27-2.93,4.08-4.83,8.71-6.31,13.51-.63,2.02-.82,3.93,1.14,5.4.32.33.37.7.14,1.11Z" style="fill: #6390e4; stroke-width: 0px;"/>
  <path d="M558,138.76c2.26.05,4.52.1,6.77.15-.83.74-1.86.61-2.84.61-20.05.03-40.09.05-60.14.07.8-5.97-.19-11.77-1.47-17.57-.52-2.33-1.24-4.48-2.59-6.5-3.62-5.46-4.15-10.95-.09-16.59,2.14-2.97,3.29-6.58,3.29-10.16,0-8.23,3.15-15.06,7.79-21.62,4.78-6.76,12.97-5.53,17.64-1.31,7.61,6.9,13.73,15,16.13,25.37.44,1.92,1.11,3.88,2.11,5.56,4.78,8.03,4.03,16.34,1.79,24.87-.88,3.33-1.38,6.79-1.83,10.21-.53,3.98,1.94,6.8,5.97,6.95,2.49.09,4.98-.02,7.47-.05Z" style="fill: #9fbdf0; stroke-width: 0px;"/>
  <path d="M40.2,132.93c-2.96-.07-5.92-.14-8.88-.22-3-.52-4.08-2.12-3.8-5.29.51-5.81,1.26-11.56,2.22-17.3.82-4.9,4.32-7.86,7.83-10.53,3.65-2.78,10.16-.29,11.91,4.67,1.46,4.14,4.26,7.29,6.59,10.74,2.02,2.99,3.15,6.4,5.31,9.34,1.9,2.58.1,5.57-3.52,6.77-3.42,1.14-6.86,2.06-10.56,1.75-2.35-.2-4.73.03-7.1.07Z" style="fill: #658cdf; stroke-width: 0px;"/>
  <path d="M384.19,475.93c3.55-3.33,3.34-7.9,3.65-12.12.74-10.05.64-20.14.97-30.21.27-8.38,1.84-16.73,2.56-25.09.84-9.7,3.38-19.42,1.08-29.26-.08-.36-.03-.75-.04-1.12-.25-13.94-.5-27.88-.75-41.82-.25-13.5,0-27.04-.91-40.5-.68-10.1.18-20.2-.71-30.22-.81-9.1-.83-18.18-.47-27.23.29-7.08-.23-14.1-.24-21.15,0-6.25,1.01-12.37,1.83-18.49.41-3.03-.31-5.98-.06-8.8,1.16-12.81-3.52-24.94-3.81-37.49-.18-7.46-.94-14.89-.9-22.36.06-12.57-3.47-16.21-16.01-16.69-1.61-.06-3.23,0-4.9-.48,5.03-.28,9.82-2.15,14.93-1.74,2.4.18,4.66.65,5.99,2.97h0c5.38,2.74,6.25,7.86,6.26,13,.02,9.08.89,18.1,1.16,27.16.08.92-.17,1.76-.67,2.53-.33,1.58.81,2.57,1.49,3.75,1.21,1.05,1.97,2.34,2.14,3.96.67,5.97,2.92,11.6,3.74,17.56,2.87,20.97,10.26,40.58,18.47,59.89,2.34,5.5,5.08,10.82,7.09,16.48,1.21,3.4,2.95,6.52,5.31,9.38,2.37,2.88,3.64,6.52,5.18,9.93,2.07,4.56,4.27,9.02,7.92,12.59,1,.97,1.67,2.15,2.2,3.45,6.05,14.81,13.94,28.63,22.7,41.98.9,1.37,1.57,2.8,1.98,4.4.96,3.74,2.65,7.38,3.32,11.07.84,4.63,2.78,8.52,4.87,12.54,1.28,2.47,1.33,5.52,1.06,8.08-.51,4.82.05,9.69-.96,14.45-.82,3.9-2.83,6.62-6.76,8.25-5.62,2.33-10.9,5.38-16.18,8.49-12.63,7.45-25.04,15.35-39.05,20.27-4.53,1.59-8.46,4.77-13.07,6.43-1.39.5-1.98,1.83-2.44,3.16-1.09,3.18-2.53,6.24-3.1,9.61-.33,1.99-1.1,3.88-2.45,5.4-2.65,3-3.4,6.45-3.33,10.38.07,4.1-.36,8.24-3.16,11.65-1.62.75-1.94,2.43-2.61,3.81-.72,1.46-1.63,2.39-3.36,2.18Z" style="fill: #498de8; stroke-width: 0px;"/>
  <path d="M390.16,469.94c1.67-5.36,2.66-10.81,2.3-16.47-.12-1.86,1.13-3.4,2.3-4.58,4.07-4.11,3.66-9.92,5.79-14.76,1.39-3.16,3.15-4.76,6.2-6.53,9.89-5.74,21.12-8.47,30.81-14.75,5.62-3.64,11.97-6.39,17.66-10.04,6.28-4.02,12.87-7.26,19.68-10.2,2.87-1.24,5.17-7.93,4.23-12.42-.32-1.55-.06-2.85.11-4.32.69-6.03,1.29-12.13-3.99-16.78-.67-.59-1.21-1.25-1.07-2.25.98-6.98-2.24-13.37-5.03-18.91-3.69-7.31-8.34-14.36-12.6-21.49-3.72-6.24-7.3-12.75-9.6-19.59-1.73-5.17-6.25-7.93-8.31-12.67-1.27-2.92-3-5.75-4.1-8.75-2.03-5.57-6.84-9.43-8.76-15.06-4.29-12.59-10.67-24.31-15.24-36.84-4.18-11.47-7.5-23.12-10.03-34.98-1.6-7.5-2.51-15.15-4.85-22.5-.15-.48.3-1.16.47-1.75.82-1.18,1.98-2.02,3.01-2.99,1.69,5.82,1.79,11.9,2.97,17.81.7,3.52.93,7.16,1.94,10.58,3.83,13.01,7.88,26.03,14.53,37.89,6.06,10.83,11.12,22.22,18.5,32.36,5.83,8.01,10.27,17.04,16.19,24.98,5.67,7.6,10.85,15.68,17.9,22.19,1.11,1.02,1.92,2.24,2.69,3.55,4.48,7.56,8.68,15.52,14.74,21.75,6.35,6.51,10.26,14.53,15.86,21.39,3.75,4.59,6.35,9.68,8.59,15.07,1.18,2.83,4.07,4.26,5.84,6.69,1.6,2.19,2.56,4.57,3.45,6.97.89,2.39-.09,4.17-1.8,6.49-4.28,5.82-10.74,8.6-16.3,12.12-7.22,4.57-14.55,9.41-22.61,12.63-6.43,2.57-11.59,7.08-17.27,10.8-1.22.8-1.85,2.09-1.56,3.58,1.01,5.07-2.9,6.87-6.03,9.16-.68.5-2.26.75-2.25,1.05.25,4.64-4.96,6.64-5.2,10.92-.14,2.51-1.82,3.62-3.79,3.99-2.65.5-3.58,1.45-2.21,4,1.38,2.57-.48,4.2-2.16,5.26-3.34,2.11-6.79,4.14-10.95,4.45-3.54.26-6.01,3.25-9.6,3.82-9.16,1.45-18.35,2.85-27.36,5.12-1.8.45-3.58,1-5.37,1.51.49-2.58,2.32-4.75,2.24-7.49Z" style="fill: #3979e0; stroke-width: 0px;"/>
  <path d="M393.15,154.56c-.67-.52-.72-1.25-.74-2.01-.24-7.7-.72-15.39-.67-23.09.04-5.86-1.15-11.06-5.33-15.35,7.83-.13,15.45,1.74,23.2,2.43,1.77.16,3.48,1.26,5.17,2.03,2.15.98,2.73,2.69,2.12,4.93-1.94,7.17-1.28,14.09,1.83,20.85,2.28,4.96.73,7.77-4.75,8.56-3.66.53-7.39.61-11.08.9-3.25.22-6.41,1.56-9.74.74Z" style="fill: #557ddc; stroke-width: 0px;"/>
  <path d="M422.45,107.53c.44-.08.88-.17,1.32-.25,2.27-1.23,4.12-.83,5.5,1.4-4.69,2.81-4.74,2.83-2.53,8.33.99,2.46,1.33,5.06,1.51,7.63.32,4.78,1.17,9.53.92,14.34-2.51,2.06-4.54,4.53-6.15,7.35-1.11-.62-1.47-1.61-1.39-2.81.38-5.44-1.29-10.8-.74-16.24.58-5.74-1.31-10.13-6.63-12.8-2.4-1.21-2.57-2.62-.19-4.1,2.41-2.09,5.69-1.61,8.39-2.84Z" style="fill: #2644b9; stroke-width: 0px;"/>
  <path d="M422.45,107.53c-2.36,2.24-5.49,2.2-8.39,2.84-8.24.2-16.55-.77-24.67,1.47-1.32.36-2.74.52-2.98,2.27-2-.99-4-1.98-5.99-2.97,3.13-2.73,7.07-2.85,10.84-2.96,7.7-.21,15.4-.21,23.1-.01,2.76.07,5.33-1.31,8.09-.64Z" style="fill: #557ddc; stroke-width: 0px;"/>
  <path d="M399.16,161.3c-.23,1.77-1.22,2.79-3.01,2.99-.5-1.25-1-2.49-1.5-3.74,1.5.25,3,.5,4.51.74Z" style="fill: #557ddc; stroke-width: 0px;"/>
  <path d="M393.15,154.56c3.24-.32,6.45-1.1,9.74-.74-2.96,1.9-6.94.52-9.73,2.98,0-.75,0-1.5-.01-2.24Z" style="fill: #3979e0; stroke-width: 0px;"/>
  <path d="M422.24,150.82c-.02,1.53.4,3.12-.55,4.54-.06-.75-.13-1.5-.19-2.25.16-.79-.01-1.69.74-2.29Z" style="fill: #557ddc; stroke-width: 0px;"/>
  <path d="M429.17,138.98c-2.39-5.25-1.08-10.99-2.18-16.44-.5-2.45-.97-4.81-2.06-7.06-2.55-5.31-1.74-6.61,4.06-6.61.91-.5,1.63-.02,2.36.43,2.23,1.82,2.33,4.45,2.55,6.99.2,2.31.87,4.56.78,6.9.06,3.38-.37,6.77.35,10.12.19,1.55.39,3.11-1.47,3.87-1.46.59-2.93,1.19-4.39,1.78Z" style="fill: #0c1b88; stroke-width: 0px;"/>
  <path d="M433.56,137.19c.83-1.06.64-2.34.75-3.56-.84-3.47.19-7.04-.56-10.51-.53-3.7-1.12-7.39-1.56-11.1-.13-1.12-.93-1.65-1.48-2.41-.16-1.73-1.38-3.41-.2-5.19,3.38-.51,4.7,1.49,5.33,4.35,1.38,6.21,1.71,12.5,1.54,18.85-.1,3.46-.26,6.96.75,10.35-1.64.45-3.06-.45-4.57-.79Z" style="fill: #7ca6eb; stroke-width: 0px;"/>
  <path d="M138.45,133.5c.01-.21.03-.42.04-.64.86-1,2.05-1,3.22-1.08,2.72.12,5.61-.89,8.05,1.18-.04.2-.07.41-.09.62-3.74-.03-7.48-.05-11.22-.08Z" style="fill: #7ca6eb; stroke-width: 0px;"/>
  <path d="M366.94,508.89c-9.72-2.47-19.66-2.15-29.56-2.24-16.44-.16-32.9-.41-49.31-.99-15.58-.55-31.17.28-46.7-.64-11.84-.7-23.71.22-35.46-.82-11.03-.97-22.05-.23-33.08-1-11.86-.84-23.82-.4-35.74-.25-7.43.09-14.9-.14-22.26-.4-11.03-.39-22.11.19-33.16-1-7.57-.82-15.3.01-22.95-.21-4.44-.13-8.86-.86-13.28-1.36-.67-.08-1.69.06-1.71-.98-.02-.88.78-1.16,1.55-1.3,1.83-.34,3.59-.91,5.51-.82,9.2.43,18.4-.46,27.62.59,4.57.52,9.29-.31,13.94-.56,10.1-.56,20.17,1.37,30.22.64,8.4-.61,16.85-.67,25.17-.37,9.96.37,19.91.31,29.87.44,12.92.16,25.84.05,38.76.03,4.73,0,9.38.85,14.13.82,23.27-.15,46.55-.37,69.82.09,8.44.17,16.86-.52,25.26-.05,5.59.31,11.23,1.2,16.74.5,6.74-.85,13.43-.33,20.14-.61-.76,2.96-3.31,2.92-5.57,3.18-2.69.3-5.45-.17-8.86.63,2.79.79,4.93,1.1,7.11,1.19,3.43.15,6.6,1.21,9.55,2.9,1.01.58,2.42.93,2.26,2.58Z" style="fill: #1f3fab; stroke-width: 0px;"/>
  <path d="M366.94,508.89c-5.04-4.39-11.44-4.26-17.5-5.22-1.11-.17-2.21-.2-2.97-1.31,1.63-2.13,3.97-1.66,6.15-1.71,3.43-.08,7.05.65,9.84-2.25,3.19-2.17,7.05-1.23,10.49-2.25,8.04,1.48,16.14.72,24.21.49,3.2-.09,6.37-1.06,9.57-1.19,9.82-.38,19.66-.66,29.49-.76,5.23-.05,10.37-1.21,15.63-.83,5.17.37,10.33,1.68,15.55.13.66-.2,1.58.48,2.59.83-1.1,1.91-3.15,1.91-4.31,1.85-7.66-.42-14.58,2.72-21.81,4.24-6.08,1.27-12.37.96-18.35,2.72-.57.17-1.08.5-1.63.76-.5,0-1.01,0-1.51.01-1.12.87-2.62-.17-3.73.73-9.19.95-18.36,2.11-27.56,2.76-7.14.51-14.2,1.88-21.39,1.74-.97-.02-2.02.19-2.75-.75Z" style="fill: #2048b9; stroke-width: 0px;"/>
  <path d="M418.64,505.13c1.05-1.24,2.47-.56,3.73-.73-1.05,1.24-2.47.57-3.73.73Z" style="fill: #1f3fab; stroke-width: 0px;"/>
  <path d="M149.76,132.96c-2.76-.06-5.53-.12-8.29-.17-1.23-1.55-.43-3.11.07-4.61,1.66-5.04,4.47-9.46,7.65-13.65,3.68-4.85,5.43-10.3,5.45-16.37.05-13.85,1.35-16.17,13.07-23.67.74-.47,1.51-.89,2.31-1.22,14.32-5.97,29.07-10.42,44.3-13.52,13.23-2.69,26.55-4.72,39.98-5.59,16.65-1.08,33.36-1.88,50.06-.44,4.71.41,9.45.47,14.18.82,23.71,1.73,47.07,5.48,69.94,11.93,8.39,2.37,16.51,5.7,24.58,9.02,5.39,2.21,9.73,6.08,13.5,10.45,3.18,3.68,2.3,7.11-2.03,9.3-3.92-1.07-6.43-3.88-8.7-7-.34-4.41-3.53-6.47-7.02-7.98-8.36-3.62-16.84-7.06-25.68-9.25-18.18-4.49-36.56-8.03-55.15-10.31-9.4-1.15-18.9-1.26-28.35-1.63-35.65-1.38-70.7,2.64-104.86,13.16-7.8,2.4-15.82,4.74-21.64,11.26-2.18,2.44-3.18,4.86-2.49,8.14.74,3.52,1.76,7.03,1.5,10.7-.05.72.66.99,1.07,1.43.69,3.16-.67,5.92-1.72,8.73-1.69,2.23-2.11,4.46-1.82,7.47.48,4.98,1.08,10.2-.78,15.57-.82-1.39-1.41-2.41-2.01-3.42-5.71.28-11.42.56-17.13.84Z" style="fill: #3973df; stroke-width: 0px;"/>
  <path d="M422.23,174.75c-1.01-1.17-.58-2.53-.52-3.85.75,1.21.6,2.53.52,3.85Z" style="fill: #204dc1; stroke-width: 0px;"/>
  <path d="M171.49,112.5c-.7-3.12,1.27-5.86,1.28-8.88-1.26-1.9-.25-3.59.51-5.27,3.6-7.97,10.2-12.75,17.75-16.41,13.11-6.35,27.07-10.07,41.26-13.1,24.26-5.18,48.79-7.64,73.58-6.66,20.34.8,40.49,3.36,60.36,7.94,11.81,2.72,23.42,6.04,34.82,10.15,4.49,1.62,8.63,3.91,12.88,6.01,1.04.51,1.83,1.28,2.45,2.25,2.51,2.04,5.01,4.09,7.52,6.13.85.66,2.66.32,2.34,2.22,1.21,2.65,2.4,5.31,4.28,7.58-.31,1.74,1.91,3.39.2,5.19-.57-.25-1.14-.5-1.71-.76-1.52-1.26-3.38-1.39-5.22-1.58-.96-.82-2.14-.59-3.23-.6-10.48-.05-20.95-.06-31.43-.09-3.72-.01-7.17.95-10.25,2.98-1.38.91-2.75.92-4.26.91-10.23-.09-20.46-.3-30.68-.15-11.4.17-16.88,5.9-17.57,17.34-.45,7.46-.19,14.95-1.16,22.39-.35,2.69-1.56,4.96-2.53,7.37-1.44,1.26-3.2,1.29-4.95,1.26-8.47-.14-16.96.44-25.41-.67-2.5-.33-4.94-.65-7.21-1.77-1.41-.73-2.51-1.81-3.43-3.09-3.08-4.91-4.08-10.37-4.15-16.05-.07-5.97-.03-11.92-.68-17.89-.57-5.24-2.5-9.31-7.32-11.73-.74-.42-1.51-.76-2.3-1.05-12.8-1.67-25.66-.81-38.49-.84-1.5,0-3.2.07-4.39.79-5.49,3.34-11.51,2.76-17.47,2.81-1.8.1-3.59.03-5.37-.28-4.71-.86-9.42-.73-14.13-.08-3.58.24-7.11,1.1-10.73.69-2.05.39-3.47,1.89-5.12,2.97Z" style="fill: #fefefe; stroke-width: 0px;"/>
  <path d="M176.62,109.53c3.39-.98,6.8-1.85,10.38-1.49,4.84-.47,9.68-.48,14.53,0,1.7.03,3.4.06,5.1.09,5.88.23,11.73,1.51,17.53-1.25,3.51-1.67,7.64-.53,11.48-.96,10.77-1.21,21.57.36,32.36-.07.61.06,1.24.1,1.62.69-.97,2.04-4.4,1.23-4.65,3.15-.25,1.84,2.62,2.64,3.48,4.49,1.61,3.48,2.07,7.15,2.12,10.89.09,7.33.04,14.67.02,22-.02,6.19-1.62,7.93-7.75,8.52-.62.06-1.24.06-2.16.13,2.9.95,5.7.71,8.37,1.29,1.41.3,2.74-.04,3.89-.88,2.81-2.05,6.04-2.82,9.42-3.14l2.29,2.23c.23.99-.49,1.24-1.17,1.53-2.45.07-4.76.52-6.66,2.23-.17.03-.34.06-.52.08-4.96.21-9.92.16-14.9.49-6.75.44-13.65.21-20.27-1.88-3.08-.97-8.33,1.33-9.91,4.16-.83,1.48.29,1.73,1.1,2.17,3.26,1.75,6.58,3.37,10.18,4.78-1.89,0-3.78,0-5.67,0-6.7-.04-7.81-3.52-7.44-8.26.27-3.48-.55-6.31-1.6-9.3-2.65-7.55-2.92-15.37-2.14-23.18,1.05-10.47-2.17-15.48-12.26-16.05-8.43-.48-16.87-1.09-25.35-1.07-3.74.01-7.85.87-11.41-1.41Z" style="fill: #5380e0; stroke-width: 0px;"/>
  <path d="M118.95,329.77c1.87-.3,2.59,1.33,3.29,2.38,12.21,18.35,29.75,28.34,50.85,33.15,8.39,1.91,16.91,3.33,25.37,3.28,18.38-.1,36.55-2.67,54.36-7.51,10.62-2.89,20.58-7.37,30.55-11.89,1.69-.77,3.42-1.54,5.21-2,1.73-.44,3.28-.02,3.5,2.21-8.49,6.92-18.32,11.54-28.17,16.02-8.77,3.99-18.01,6.77-27.33,9.22-.7.18-1.48.09-2.23.12-10.23-1.13-20.51-.02-30.77-.88-7.91-.66-15.9-.46-23.78-1.78-13.27-2.23-25.76-6.63-37.28-13.6-2.77-1.68-5.73-2.98-8.45-4.75-7.48-6.46-12.05-14.74-15.12-23.98Z" style="fill: #d57f3c; stroke-width: 0px;"/>
  <path d="M198.35,119.35c1.47,0,2.96-.1,4.42.02,4.47.38,8.54-.48,12.5-2.76,3.79-2.18,6.94-.21,7.07,4.21.14,4.73.19,9.48,0,14.21-.25,6.01,1.07,11.84,1.87,17.72.67,4.92-1.3,7.65-6.25,7.81-3.71.12-7.46-.5-11.13.66-1.11.35-2.49.09-3.16-.74-2.06-2.52-3.81-1.18-5.55.22-2.43,1.97-4.81,2.62-7.89,1.13-2.49-1.2-5.36-.64-8.08-.26-1.1.15-2.28.62-3.28.36-1.65-.42-4.39-.11-4.21-2.65.17-2.39,1.72-4.42,4.51-4.71,1.11-.11,2.37-.3,3.33.11,3.47,1.47,6.77.59,10.14-.3,3.17-.83,6.35-1.6,8.93,1.43.49.58,1.39,1.21,1.91.51,1.8-2.43,4.8-2.43,7.1-3.79,1.77-1.05,2.68-2.83,2.69-4.66.03-7.04,1.65-14.05.13-21.13-.89-4.14-2.5-5.71-7.18-5.94-2.63-.13-5.37.59-7.88-1.48Z" style="fill: #8caeec; stroke-width: 0px;"/>
  <path d="M134.07,353.76c2.81-.16,5.06,1.34,7.23,2.71,14.13,8.91,29.46,14.15,46.13,15.34,11.12.79,22.21,1.84,33.43,1.24,4.35-.23,9.25-.76,13.49,1.73-6.46,2.38-13.29,3-20.02,3.51-19.96,1.52-39.53-.3-57.98-8.82-8.36-3.86-16.16-8.61-22.28-15.71Z" style="fill: #ae513e; stroke-width: 0px;"/>
  <path d="M283.01,156.09c.69-.02,1.31-.16,1.63-.87,12.51,3.58,25.31,2.08,38.02,2.21-2.92,4.6-6.68,7.22-12.56,6.96-8.58-.38-17.23.44-25.77-.24-10.65-.85-21.36.06-31.97-1.37-.87-.12-1.72-.23-2.37-1.14,5.61-1.57,11.28-1.02,16.9-1.09,3.21-.04,6.34-.48,9.39-1.49,0,0,.02-.01.02-.01,2.13-1.22,4.4-2.13,6.7-2.97Z" style="fill: #adbae5; stroke-width: 0px;"/>
  <path d="M335,304.41c1.16-2.24,2.33-4.48,3.49-6.73-.29,2.7,1.16,6.3-3.49,6.73Z" style="fill: #7ba2e8; stroke-width: 0px;"/>
  <path d="M187.92,283.35c-1.54-8.56,1.52-15.91,6.52-22.47,7.63-10.01,17.97-16.13,30.28-18.19,10.08-1.69,20.16-1.28,28.89,5.34,3.12,2.37,5.77,5.09,7,8.93,3.02,6.78,2.47,13.46-.64,20.02-.94,1.98-1.78,4.13-4.05,5.09-2.36-1.32-.5-2.79.01-4.02,1.09-2.63,2.75-5.07,1.73-9.16-5.01,8.83-11.25,15.66-19.55,21.33,2.66.8,4.35.15,5.95-.78,2.48-1.45,4.84-3.05,7.05-4.91.8-.67,1.65-2.2,3.05-.7.18,2.05-1.34,3.14-2.58,4.3-5.45,5.07-11.97,7.91-19.3,8.99-5.03.74-10.06,1.76-15.13,2-9.62.44-22.59-2.45-27.97-13.93-.32-.67-.77-1.28-1.28-1.82Z" style="fill: #e65d75; stroke-width: 0px;"/>
  <path d="M314.45,228.14c1.24,1.68,1.02,3.6.5,5.36-3.51,11.8-21.79,19.57-33.02,14.23-2.83-1.35-3.77-2.83-2.76-6.06,1.72-5.46,5.84-8.74,9.86-12.21.53-1.4,1.75-2.04,2.99-2.59,6.18-2.76,12.52-3.54,19.05-1.33,1.42.48,2.79,1.05,3.38,2.61Z" style="fill: #ebe8e8; stroke-width: 0px;"/>
  <path d="M267.38,209.28c1.64,2.87,0,5.4-1.11,7.77-4.52,9.58-19.75,15.79-29.82,12.33-5.4-1.86-6.18-3.69-3.9-8.94,1.96-4.52,5.83-7.3,9.33-10.43,1.57-3.14,4.84-3.21,7.59-3.98,4.86-1.36,9.79-1.44,14.58.51,1.36.55,2.8,1.11,3.33,2.73Z" style="fill: #eae7e6; stroke-width: 0px;"/>
  <path d="M208.14,227.24c.46,7.26-3.78,11.87-9.19,15.51-7.59,5.1-15.77,7.03-24.6,3.18-2.36-1.03-3.22-2.36-2.41-5.24,1.33-4.73,4.71-7.77,7.75-11.16,2.75-5.67,19.95-9.61,27.17-4.1.6.46.82,1.23,1.28,1.81Z" style="fill: #e9e6e6; stroke-width: 0px;"/>
  <path d="M321.95,273.09c1.96,3.44,0,6.32-1.6,9.02-5.36,9.05-18.88,14.1-29.04,11.05-5.36-1.61-6.2-3.61-3.94-8.78,1.82-4.15,5.13-6.94,8.47-9.73.27-1.01.88-1.77,1.81-2.22,6.9-3.32,13.96-4.94,21.42-1.9,1.25.51,2.59.96,2.88,2.56Z" style="fill: #ebe8e8; stroke-width: 0px;"/>
  <path d="M170.61,270.83c1.63,2.54.27,4.9-.73,7.05-4.77,10.24-19.49,16.52-30.19,13.05-5.34-1.73-6.03-3.46-3.78-8.52,1.51-3.39,4.09-5.9,6.45-8.61.95-2.74,3.7-3.07,5.79-4.17,5.46-2.87,11.27-3.51,17.25-1.97,2.02.52,4.08,1.12,5.22,3.16Z" style="fill: #e9e6e5; stroke-width: 0px;"/>
  <path d="M177.34,315.12c1.26,1.23,1.5,2.46.98,4.31-2.67,9.37-9.83,13.63-18.31,16.3-4.58,1.44-9.27,1.4-13.86-.44-4.27-1.72-4.97-3.48-3.1-7.76,1.53-3.52,4.33-6.02,6.7-8.87.14-1.09.85-1.78,1.72-2.29,6.99-4.07,14.33-6.11,22.4-3.73,1.42.42,2.87.88,3.47,2.49Z" style="fill: #e9e5e5; stroke-width: 0px;"/>
  <path d="M226.09,335.24c-.5,9.74-10.02,18.79-20.86,20.14-4.69.59-9.1.29-13.41-1.76-2.41-1.15-2.79-2.69-2.01-5.13,1.35-4.2,4.31-7.2,7.1-10.36,2.49-4.09,6.88-5.06,10.93-6.31,4.3-1.33,8.79-1.15,13.18-.07,2.09.51,3.88,1.59,5.06,3.49Z" style="fill: #e9e6e6; stroke-width: 0px;"/>
  <path d="M245.53,298.22c-11.36,7.31-23.67,10.43-37.02,7.64-8.14-1.7-14.78-5.81-17.73-14.24,1.4-1.11,2.5-.35,3.66.51,9.29,6.88,19.76,7.85,30.8,6.23,4.8-.7,9.52-1.57,14.21-2.86,2.39-.66,5.4-1.16,6.07,2.72Z" style="fill: #d4272b; stroke-width: 0px;"/>
  <path d="M245.53,298.22c-1.76-2.88-4.37-2.41-6.91-1.58-6.99,2.27-14.16,3.33-21.49,3.23-8.18-.11-15.89-1.89-22.65-6.8-1.11-.81-2.2-1.64-3.7-1.43-2.04-2.38-2.14-5.44-2.87-8.27,2.53.81,3.23,3.37,4.54,5.19,3.95,5.49,9.65,8.01,15.81,8.94,11.07,1.68,21.99-.24,32.49-3.74,5.37-1.79,10.34-4.84,13.09-10.32.09-.89.2-1.76,1.45-1.54,5.71-6.05,7.23-13.27,5.76-21.24-.23-1.23-.52-2.42-.45-3.67,6.19,8.55,4.71,20.58-2.48,29.96-3.48,4.55-7.54,8.49-12.6,11.29Z" style="fill: #e74453; stroke-width: 0px;"/>
  <path d="M170.61,270.83c-10.08-5.34-19.34-2.77-28.25,2.98-1.97-.95-2.65-2.88-3.51-4.66-.77-1.6-.32-2.94,1.07-3.92,6.78-4.78,14.11-7.22,22.43-4.94,5.26,1.44,9,6.32,8.27,10.55Z" style="fill: #df8736; stroke-width: 0px;"/>
  <path d="M226.09,335.24c-10.4-5.78-19.98-3.42-29.18,2.9-2.73-10.19-1.71-11.8,8.82-14.27,6.27-1.47,12.08-1.07,17,3.71,2.19,2.13,3.16,4.7,3.36,7.66Z" style="fill: #db7e33; stroke-width: 0px;"/>
  <path d="M177.34,315.12c-9.93-4.54-18.98-2.2-27.59,3.53-3.12-6.5-2.27-10.74,3.91-12.55,7.11-2.09,14.14-3.59,20.6,1.33,2.28,1.74,5.11,3.93,3.08,7.7Z" style="fill: #dc8134; stroke-width: 0px;"/>
  <path d="M208.14,227.24c-8.44-5.27-19.47-4.38-28.45,2.29-3.29-8.26-2.57-10.1,5.88-12.63,6.98-2.09,13.94-2.62,19.66,3.31,1.87,1.94,3.05,4.23,2.91,7.03Z" style="fill: #e18b37; stroke-width: 0px;"/>
  <path d="M321.95,273.09c-9.04-5.12-17.67-3.37-26.11,1.56-.66-1.73-1.4-3.41-1.59-5.3-.23-2.23.63-3.83,2.42-5.05,7.2-4.9,19.31-3.05,24.55,3.83,1.09,1.43,2.41,3.03.72,4.96Z" style="fill: #df8638; stroke-width: 0px;"/>
  <path d="M267.38,209.28c-8.66-5.11-17.12-3.52-25.5.74-3.87-2.74-3.83-7.37.07-9.44,8.33-4.41,18.19-3.4,23.32,2.59,1.41,1.65,3.52,3.36,2.11,6.11Z" style="fill: #e18a3a; stroke-width: 0px;"/>
  <path d="M314.45,228.14c-8.74-4.64-17.16-3.23-25.42,1.32-.85-3.04-3.65-5.98-.21-9.18,1.56-1.45,3.52-2.02,5.41-2.31,6.9-1.09,13.77-1.44,18.93,4.61,1.31,1.54,2.81,3.27,1.28,5.56Z" style="fill: #e28c3a; stroke-width: 0px;"/>
  <path d="M426.23,96.85c-.78-.74-1.56-1.48-2.34-2.22,4.15-1.97,4.93-4.92,1.9-8.15-5.16-5.52-11.2-9.57-18.4-12.29-14.69-5.54-29.63-10.07-45.06-12.9-9.5-1.74-19.08-2.92-28.66-4.2-20.15-2.7-40.4-3.37-60.65-2.82-18.96.52-37.82,2.29-56.48,6.11-15.39,3.14-30.39,7.36-44.92,13.3-5.56,2.27-9.53,6.67-13.87,10.51-1.86,1.64-2.2,4.32-2.1,6.95.27,7.11.5,14.27-3.36,20.68-1.98,3.29-4.37,6.33-6.44,9.56-2.23,3.49-3.8,7.26-4.38,11.4-1,.02-1.99.05-2.99.07-4.44.14-3.22-2.94-2.63-5.13,1.5-5.55,3.72-10.86,7.16-15.51,3.36-4.54,4.57-9.62,4.4-15.08-.19-5.97,2.23-10.49,6.01-15.08,9.34-11.33,22.52-15.63,35.4-20.47,11.9-4.47,24.44-6.37,36.97-8.16,12.66-1.82,25.36-2.77,38.17-3.28,7.78-.31,15.64-.46,23.43-.82,5.78-.27,11.88-.21,17.8.8,4.76.82,9.66.62,14.48.91,9.68.59,19.22,2.02,28.79,3.34,14.64,2.02,28.96,5.54,43.16,9.55,8.4,2.37,16.83,5.18,24.15,9.74,6.34,3.95,11.8,9.5,16.76,15.28.84.98,1.24,2.46,1.53,3.78.45,2.08-.39,3.47-2.7,3.37-1.78-.08-3.46.3-5.14.75Z" style="fill: #477fe2; stroke-width: 0px;"/>
  <path d="M433.75,123.13c1.27,3.45.45,7,.56,10.51-1.02-3.46-.59-6.99-.56-10.51Z" style="fill: #6390e4; stroke-width: 0px;"/>
  <path d="M416.37,88.51c-19.17-10.27-39.98-15.64-61.11-19.58-33-6.16-66.17-7.95-99.62-3.05-17.43,2.55-34.56,6.06-51.23,11.62-8.72,2.91-17.3,6.49-24.19,12.89-3.83,3.55-6.6,7.89-7.44,13.22-.88.9-2.29,1.67-1.9-.38.82-4.35-.9-8.22-1.56-12.29-.44-2.73.18-4.98,2.05-7.22,6.39-7.65,15.53-10.12,24.36-12.93,14.06-4.49,28.52-7.56,43.12-9.62,8.44-1.19,16.97-1.95,25.49-2.7,9.3-.83,18.62.16,27.91-1.12,3.82-.53,7.87.58,11.81.96.86.08,1.72.35,2.57.33,14.96-.27,29.66,1.86,44.32,4.52,14.27,2.59,28.58,5.11,42.31,9.93,6.66,2.34,13.57,4.24,19.53,8.19,2.42,1.6,5.11,3.47,3.6,7.22Z" style="fill: #1f47c7; stroke-width: 0px;"/>
  <path d="M282.35,152.99c-.6,1.37-1.76,1.65-3.09,1.56-1.17-.08-2.36.17-3.18.9-6.04,5.37-12.36.99-19.54,1.15q3.63-1.91,6.62-2.04c4.98-.23,6.4-1.68,6.4-6.55,0-7.86.07-15.71-.05-23.56-.05-3.33-.44-6.65-1.89-9.77-.86-1.86-2.41-2.75-4.09-3.62-1.62-.84-1.65-1.87.08-2.55,1.95-.77,4-1.31,6-1.95,5.45,2.2,7.75,6.49,8.33,12.11.85,8.28.05,16.62,1.18,24.89.47,3.42,1.99,6.35,3.23,9.44Z" style="fill: #2454ce; stroke-width: 0px;"/>
  <path d="M268,105.85c-6.95,1.58-13.98,1.19-20.99.75-6.97-.44-13.85,1.12-20.81.78-.71-.03-1.57.04-2.15.41-5.76,3.64-11.61.57-17.42.33,1.24-.02,2.49-.14,3.73-.05,4.25.32,8.37.43,12.16-2.2,1.71-1.19,4-1.35,6.12-1.39,12.45-.22,24.9-.54,37.33.64.74.07,1.5.07,2.04.72Z" style="fill: #679bea; stroke-width: 0px;"/>
  <path d="M201.53,108.04c-4.84,0-9.68,0-14.52,0,4.84-.79,9.68-.8,14.52,0Z" style="fill: #679bea; stroke-width: 0px;"/>
  <path d="M283.01,156.09c-1.93,1.68-3.88,3.3-6.7,2.97,1.39-2.89,3.87-3.33,6.7-2.97Z" style="fill: #679bea; stroke-width: 0px;"/>
  <path d="M255.3,281.89c-.48.51-.97,1.03-1.45,1.54-2.66,2.02-5.3,4.06-8,6.03-.9.65-1.92,1.15-2.94,1.61-1.88.85-4.81,1.39-5.56.09-1.11-1.91,1.71-2.73,3.09-3.77,5.81-4.39,10.85-9.45,14.46-15.85.48-.86,1.03-1.7,1.67-2.44.38-.43,1.06-.96,1.51-.88.82.14.96,1.02.98,1.79.04,1.86.07,3.68-.84,5.45-1.06,2.09-2.46,4.05-2.92,6.42Z" style="fill: #ea8897; stroke-width: 0px;"/>
</svg>