<?xml version="1.0" encoding="UTF-8"?>
<svg id="Layer_1" data-name="Layer 1" xmlns="http://www.w3.org/2000/svg" viewBox="0 0 598.32 421.35">
  <path d="M2.32,161.4c-4.85-11.23-2.05-21.79,7.95-27.98,7.31-4.53,15.59-5.95,23.64-7.87,44.22-10.56,88.51-20.87,132.78-31.21,32.26-7.54,64.53-15.04,96.82-22.47,61.92-14.23,123.85-28.41,185.78-42.58,27.06-6.19,54.08-12.55,81.23-18.34,17.77-3.79,35.44-8.16,53.51-10.43,3.41-.43,6.89-1.09,10.26.39-2.52,1.34-3.44,3.13-3.43,6.25.01,4.25-1.99,8.33-4.37,11.78-6.2,9-10.31,19.08-15.51,28.59-9.99,18.27-19.6,36.75-29.69,54.97-6.4,11.57-12.41,23.35-18.65,35.01-6,11.22-12.61,22.11-18.38,33.43-3.79,7.44-7.96,14.67-11.83,22.06-4.91,9.38-10.24,18.55-15.32,27.85-8.38,15.32-16.86,30.58-25.18,45.93-5.88,10.85-11.84,21.67-17.95,32.39-6.17,10.82-11.87,21.89-18.31,32.58-6.17,10.23-12.01,20.68-18.17,30.94-5.41,9.01-13.5,12.96-23.55,12.08-9.51-.83-19.15-1.86-27.71-6.86-17.43-9.43-34.12-20.11-51.08-30.34-15.36-9.26-30.43-18.99-45.85-28.15-6.54-3.88-12.82-8.16-19.23-12.23-3.32-2.11-6.44-3.58-10.36-2.45-1.39-4.59,1.85-7.31,4.54-9.79,7.06-6.51,14.72-12.34,22.25-18.3,39.03-30.91,78.51-61.25,117.77-91.88,5.8-4.53,11.48-9.23,17.46-13.53,41.07-31.63,81.93-63.52,122.95-95.22,5.26-4,10.5-8.05,15.62-12.23.77-.63,1.61-1.2,2.23-1.99.46-.6.95-1.32.33-2-.46-.51-1.18-.24-1.74.03-3.14,1.54-6.17,3.29-9.1,5.19-16.01,10.4-31.93,20.93-47.73,31.64-10.22,6.93-20.32,14.06-30.74,20.66-13.18,8.35-25.81,17.49-38.92,25.92-2.21,1.42-4.27,3.04-6.47,4.46-14.86,9.61-29.78,19.13-44.68,28.68-1.37.88-2.69,1.82-3.98,2.8-9.5,7.29-20.26,12.73-29.67,20.15-.98.77-2.18,1.21-3.3,1.76-4.8,2.35-9.35,5.04-13.79,8.12-9.51,6.6-19.47,12.55-29.31,18.67-10.06,6.26-19.73,13.16-30.07,18.96-12.93,7.25-24.51,16.74-38.21,22.72-3.14,1.38-5.71,3.94-8.69,5.77-6.34,3.91-12.48,8.13-19.57,10.7-4.04,1.47-5.74,1.23-8.32-2.3-2.89-3.95-4.83-8.45-6.82-12.88-2.35-5.24-4.67-10.49-7.1-15.69-1.43-3.05-3.54-5.36-6.61-6.86-12.56-6.16-24.3-13.74-36.17-21.11-20.35-12.64-40.75-25.21-60.94-38.09-10.72-6.84-21.56-13.54-31.91-20.96q-3.93-2.81-5.46,1.48c-.25.7-.5,1.42-1.25,1.78Z" style="fill: #69a0ec; stroke-width: 0px;"/>
  <path d="M2.32,161.4c.28-1.21.62-2.41.84-3.63.7-3.95,1.13-4.18,4.54-1.77,23.2,16.32,47.44,31.03,71.48,46.04,18.13,11.32,36.03,23.05,54.78,33.36,2.28,1.25,4.83,2.07,7,3.48,2.2,1.44,3.52,3.73,4.7,6.13,4.42,9.06,7.63,18.7,13.07,27.26,2.8,4.41,3.63,4.45,8.38,2.61,9.53-3.7,17.83-9.38,26-15.36,1.77-1.3,4.05-1.87,5.99-2.96,17.01-9.53,33.23-20.34,49.86-30.47,12.28-7.48,24.02-15.81,36.53-22.93,3.73-2.12,7.47-4.45,10.5-7.66,2.22-2.35,5.47-2.95,8.23-4.24,5.6-2.64,9.86-7.18,15.2-9.97,10.17-5.31,18.68-13.06,28.61-18.74,6.88-3.94,13-9.22,19.91-13.09,12.49-7,24.06-15.36,35.8-23.43,17.71-12.18,35.99-23.46,53.71-35.61,14.14-9.7,28.31-19.37,42.77-28.59,6.69-4.26,12.86-9.4,20.17-12.68,1.27-.57,2.88-2.01,3.92-.19.88,1.55-.25,3.15-1.59,4.19-5.86,4.58-11.76,9.11-17.65,13.66-4.76,1.35-8.6,4.36-12.51,7.16-16.84,12.04-33.78,23.94-50.58,36.02-14.78,10.63-29.8,20.92-44.3,31.94-9.42,7.16-19.38,13.61-29.01,20.5-5.17,3.7-9.96,7.92-15.38,11.29-14.94,9.29-29.18,19.62-43.23,30.17-11.96,8.97-24.35,17.36-36.67,25.75-22.65,15.43-45.22,31-67.9,46.39-10.29,6.98-20.29,14.39-30.54,21.44-3.56,2.45-6.05,2.16-8.55-1.47-3.91-5.68-6.61-12.01-9.52-18.22-4.18-8.92-8.38-17.84-12.08-26.97-3.16-7.81-10-11.51-16.39-15.76-2.17-1.44-4.65-2.41-7.02-3.53-12.56-6.91-24.5-14.84-36.68-22.36-24.9-15.38-49.85-30.67-74.33-46.73-3.45-2.27-3.59-2.17-6.52,1.98-.95-.77-1.29-1.86-1.54-2.99Z" style="fill: #5285e2; stroke-width: 0px;"/>
  <path d="M387.49,382.13c-1.09.34-1.5,1.9-2.93,1.61-6.49,2-12.72,1.09-18.98-1.28-13.46-5.1-26.16-11.75-38.33-19.32-8.78-5.47-17.77-10.61-26.66-15.85-14.71-8.68-29.16-17.79-44.07-26.13-6.42-3.59-12.68-7.46-19-11.23-2.36-1.41-4.82-2.64-7.6-3.01-2.77-.37-4.48.66-5.24,3.49-2.15,7.93-4.91,15.66-7.81,23.33-.89,2.35-1.23,4.84-1.73,7.27-1.18,5.76-3.52,11.15-5.1,16.77-2.58,9.21-5.37,18.35-7.79,27.61-.67,2.56-1,5.85-4.41,6.29-3.31.43-4.56-2.52-6.11-4.74-1.36-1.95-2.43-4.06-3.18-6.33-.55-1.66-.96-3.46-2.05-4.8-3.01-3.72-5.2-7.61-5.26-12.65-.05-4-3.74-3.5-6.36-4.16-5.05-11.78-10.15-23.55-15.15-35.35-9.82-23.16-19.58-46.36-29.4-69.52-2.65-6.25-6.87-11.07-12.71-14.73-32.5-20.39-64.93-40.9-97.33-61.44-4.4-2.79-8.89-5.51-12.57-9.3-.85-2.25.6-2.62,2.25-2.58,1.26.03,2.42.59,3.51,1.21,14.75,8.39,29.25,17.17,43.58,26.27,10.42,6.62,21.13,12.81,31.69,19.21,12.27,7.43,24.48,14.98,36.5,22.8,9.82,6.38,15.83,15.58,20.21,26.52,6.62,16.56,14.11,32.81,22.74,48.44,3.53,6.4,7.36,12.73,11.9,18.56,1.51,1.94,2.55,2.26,4.2-.03,4.52-6.27,9.8-11.95,14.51-18.08.61-.79,1.33-1.55,2.24-1.97,4.44-2.07,8.32-5.01,12.31-7.78,1.58-1.09,3.38-2.08,4.61.57-.4,5.59-2.2,10.89-3.53,16.27-1.74,7.08-3.4,14.18-5.2,21.25-1.69,5.48-2.73,11.12-3.99,16.69-1.24,5.49-3.27,10.41-7.24,14.45-1.72,1.76-2.41,3.76-1.15,6.1.36.66.77,1.42,1.63,1.31.63-.08.93-.76,1.17-1.35.56-1.39,1.02-2.81,1.43-4.25,3.98-13.88,7.09-27.98,11.07-41.85.42-1.46.59-2.92.55-4.42.16-2.16.67-4.24,1.52-6.23,1.79-2.79,2.12-6.08,3.08-9.15.78-2.5,1.47-5.02,2.64-7.38,2.11-4.26,4.63-5.29,9.15-3.53,4.43,1.72,8.36,4.42,12.42,6.82,19.92,11.81,39.55,24.09,59.33,36.13,14.77,9,29.49,18.09,44.67,26.39,2.4,1.31,4.78,2.69,7.46,3.4,10.48,2.93,21.05,5.43,31.77,7.31,1.33.23,2.8.41,2.73,2.33Z" style="fill: #284fc0; stroke-width: 0px;"/>
  <path d="M287.15,344.01c-1.93-.01-2.7,1.65-3.76,2.77-20.31,21.26-40.55,42.6-61.44,63.29-3.27,3.24-6.7,6.32-10.14,9.38-2.91,2.6-4.84,2.52-7.76-.19-2.57-2.39-4.7-5.12-6.13-8.35-.68-1.72-.07-3.28.93-4.56,4.17-5.28,5.22-11.8,7.24-17.93,4.31-13.03,7.71-26.33,11.61-39.48,2.27-7.66,4.04-15.45,6.24-23.12,1.17-4.09,2.53-8.1,4.04-12.06,1.67-4.38,4.54-5.53,8.58-3.12,6,3.57,12.08,7,17.96,10.8,6.69,4.32,13.58,8.36,20.46,12.38,3.56,2.08,7,4.33,10.4,6.67,1.16.79,2.75,1.59,1.77,3.54Z" style="fill: #3148a4; stroke-width: 0px;"/>
  <path d="M217.45,301.34c-2.89-1.49-4.11,1.48-6.09,2.37-1.31.59-2.19,2.18-3.5,2.72-11.09,4.58-15.79,15.38-23.03,23.67-2.26,2.59-2.67,2.96-4.89.33-4.76-5.64-8.48-12.06-11.94-18.41-10.5-19.25-19.42-39.3-27.76-59.58-2.52-6.13-7.55-9.96-12.34-13.66-8.44-6.53-18-11.47-26.99-17.23-7.86-5.04-15.83-9.85-23.85-14.59-19.9-11.77-38.87-25.09-59.36-35.88-2.41-1.27-4.37-3.25-7.11-4.04-1.79-.51-2.62-.17-2.85,1.63-1.64-1.11-3.1-2.38-3.86-4.28,1.05-5.54,2.06-5.94,6.76-2.94,17.29,11.06,34.5,22.23,51.92,33.08,19.42,12.1,39.03,23.89,58.55,35.83.2.12.34.36.5.54,5.54,3.08,11.04,6.12,15.91,10.35,3.16,2.75,5.31,5.87,6.94,9.53,5.69,12.75,11.08,25.64,17.58,38.02,3.07,5.86,6.28,11.63,9.97,17.13,2.38,3.54,2.76,3.41,5.96.83,6.3-5.08,12.46-10.31,19.02-15.1,7.75-5.66,15.93-10.71,23.58-16.45,23.43-17.56,47.43-34.34,71.15-51.49,13.43-9.71,26.56-19.81,40.03-29.47,8.8-6.3,17.21-13.23,26.58-18.63,5.97-3.44,10.36-8.49,15.68-12.53,1.72-1.31,3.55-2.34,5.68-2.71,1.21-.21,2.64-.51,2.54,1.55-19.21,14.91-38.46,29.77-57.63,44.73-23.29,18.17-46.55,36.39-69.76,54.66-10.05,7.91-20,15.94-29.87,24.07-2.8,2.31-4.78,5.37-5.23,9.16.03,2.54.12,5.09-2.3,6.8Z" style="fill: #3a6cdb; stroke-width: 0px;"/>
  <path d="M346.33,367.27c7.78,3.9,16.29,4.86,24.7,6.42,8.45,1.56,20.43-2.52,25.22-10.63,5.18-8.77,10.78-17.36,15.6-26.3,5.77-10.71,12.34-20.97,17.73-31.94,3.64-7.4,7.94-14.63,12.05-21.87,6.39-11.24,12.56-22.6,18.84-33.91,9.79-17.63,19.91-35.08,29.25-52.94,4.08-7.81,8.75-15.29,12.46-23.34,3.9-8.45,9.02-16.33,13.54-24.49,4.41-7.95,8.89-15.86,13.06-23.93,11.96-23.12,24.6-45.88,36.99-68.77,5.33-9.85,10.15-19.98,15.42-29.87,2.8-5.24,6.65-9.91,8.28-15.78.37-1.32.75-2.42.46-3.9-.7-3.62.39-4.74,4.35-5.1,4.02,1.81,4.83,3.39,3.34,7.5-3.63,10.06-8.91,19.35-13.97,28.72-34.48,63.87-69.69,127.34-104.93,190.79-13.48,24.27-26.9,48.58-40.44,72.83-7.31,13.08-14.9,26.01-22.22,39.09-6.18,11.06-12.17,22.22-19.27,32.73-6.73,3.85-13.96,4.71-21.59,4.08-8.97-.74-17.76-1.99-25.91-6.08-1.37-.69-3.13-1.17-2.97-3.31Z" style="fill: #3f7ee1; stroke-width: 0px;"/>
  <path d="M287.15,344.01c.04-1.75-1.46-2.2-2.56-2.91-8.73-5.68-17.64-11.05-26.67-16.25-6.76-3.9-13.31-8.17-19.9-12.36-5.7-3.63-7.73-3.04-9.77,3.29-6,18.67-10.67,37.71-16.05,56.56-2.69,9.43-5.8,18.73-8.73,28.09-1.2,3.83-4.87,6.36-5.56,10.47-4.67-7.51-7.74-15.77-11.25-23.82-4.06-9.31-8.32-18.53-11.78-28.09,5.39-1.51,8.81,1.61,7.95,7.79-.29,2.1.18,3.28,1.57,4.47,2.38,2.02,3.67,4.75,4.55,7.6,1.12,3.64,3.02,6.79,5.14,9.89.93,1.36,2.05,2.36,3.59,2.29,1.74-.07,2.18-1.65,2.77-3.1,1.98-4.85,2.21-10.19,4.1-15.01,2.41-6.14,3.24-12.71,5.48-18.87,4.75-13.1,7.07-26.99,12.87-39.75.35-.77.45-1.67.55-2.52.69-5.81,2.93-7.27,8.65-5.42,6.48,2.1,11.76,6.44,17.62,9.69,17.29,9.6,34.05,20.1,51.09,30.14,11.87,7,23.82,13.89,35.57,21.11,11.05,6.78,22.86,12,35.22,15.94,4.27,1.36,8.65.07,12.97.47-9.53,6.03-19.53,5.26-29.12.91-14.64-6.65-27.93-15.81-41.67-24.11-8.94-5.4-17.76-11.01-26.63-16.53Z" style="fill: #2c4eb7; stroke-width: 0px;"/>
  <path d="M346.33,367.27c3.52,3.43,8.1,4.64,12.62,5.92,6.46,1.82,13.16,2.51,19.78,2.74,4.17.15,8.67-.09,12.72-2.01,1.67-.79,3.39-1.59,5.35-1.34-2.24,4.03-4.76,7.77-9.31,9.55-2.25-2.73-5.56-1.13-8.33-2.03-8.79-2.87-18.13-3.7-26.86-6.89-8.5-5.19-17.48-9.56-25.95-14.82-18.1-11.23-36.42-22.09-54.52-33.33-11.31-7.03-22.61-14.1-34.22-20.65-3.04-1.72-5.87-3.79-8.98-5.39-3.99-2.05-6.27-1.28-8.04,2.81-2.52,5.84-3.71,12.09-5.4,18.18-1.12,1.86-1.47,3.9-1.51,6.03-.96,3.89-1.97,7.78-3.2,11.6-.32,1-.1,2.64-1.96,2.52-.04,0-.1-.17-.1-.26,0-.12.02-.24.04-.36.82-6.77,3.11-13.21,4.56-19.84,1.35-6.15,2.93-12.24,4.41-18.35,1.22-2.11.78-4.79,2.3-6.8,2.96-1.94,5.51-1.49,8.55.45,19.99,12.7,40.09,25.24,60.23,37.7,13.72,8.49,27.54,16.81,41.37,25.13,5.41,3.26,10.95,6.31,16.43,9.45Z" style="fill: #3e76db; stroke-width: 0px;"/>
  <path d="M539.24,37.85c.29-.66.65-1.29.84-1.97.36-1.33,2.32-2.64.97-3.9-1.15-1.08-2.92.13-4.18.75-5.7,2.81-11.33,5.76-16.93,8.76-12.46,6.68-24.91,13.4-37.34,20.15-19.66,10.68-39.26,21.48-58.98,32.06-10.61,5.69-21.48,10.89-32.11,16.53-14.08,7.46-28.04,15.15-42.06,22.72-5.25,2.83-10.46,5.75-15.81,8.37-16.45,8.07-32.54,16.82-48.68,25.48-9.87,5.29-19.68,10.7-29.76,15.56-12.68,6.11-24.75,13.37-37.36,19.61-12.04,5.96-23.62,12.84-35.68,18.77-10.96,5.38-21.44,11.62-32.37,17.03-5.05,2.5-9.09.85-10.49-4.52-.7-2.69,1.74-3.79,3.46-4.6,16.7-7.83,32.25-17.82,48.89-25.8,10.63-5.1,20.61-11.55,31.17-16.83,9.03-4.51,17.74-9.56,26.69-14.18,10.51-5.43,20.85-11.19,31.33-16.67,10.35-5.42,20.61-10.99,30.97-16.39,23.31-12.15,46.66-24.25,69.93-36.5,16.52-8.7,33-17.5,49.65-25.96,10.77-5.47,21.28-11.44,31.99-17.02,9.14-4.76,18.44-9.2,27.61-13.9,9.07-4.66,18.01-9.58,27.11-14.19,13.45-6.81,26.85-13.73,41.02-18.96,1.39-.51,2.82-1.04,4.37-.84,1.04.14,2.4-.44,2.91,1.01.43,1.24-.35,2.12-1.17,2.94-3.63,3.61-7.16,7.32-10.9,10.81-3.81,3.56-7.81,6.92-11.77,10.33-.83.71-1.82,1.23-2.74,1.84-.19-.17-.38-.33-.58-.5Z" style="fill: #97b6ef; stroke-width: 0px;"/>
  <path d="M382.24,161.93c-2.4-2.36-4.51-.11-6.18.89-2.83,1.69-5.58,3.76-7.53,6.56-2.85,4.09-7.59,5.59-11.51,8.02-10.91,6.75-20.44,15.36-31.09,22.35-11.33,7.44-21.43,16.45-32.64,24.04-15.09,10.23-29.52,21.43-44.31,32.12-5.02,3.62-10.18,7.06-15.41,10.37-6.01,3.8-10.72,9.26-16.85,12.89-13.49,7.99-25.62,17.84-37.62,27.84-4.88,4.07-4.95,4.24-8.5-1.43-7.73-12.38-14.36-25.32-19.96-38.81-2.58-6.2-5.22-12.41-8.4-18.32-3.57-6.64-9.7-10.79-16.07-14.52-1.58-.92-3.62-1.17-4.58-3.02,11.31,4.86,20.94,11,25.88,23.48,5.39,13.63,11.31,27.15,18.89,39.79,3.17,5.28,4.47,5.17,9.27,1.53,4.23-3.21,9.07-5.63,13.23-8.91,6.74-5.3,13.93-9.93,20.95-14.82,12.84-8.94,25.55-18.07,38.47-26.86,8.18-5.56,16.63-10.84,24.95-16.24,7.29-4.73,13.69-10.68,21.08-15.32,16.2-10.18,30.88-22.52,46.78-33.11,6.2-4.13,12.63-7.9,18.58-12.41,11.97-9.08,24.38-17.54,36.62-26.23,14.68-10.43,28.89-21.52,43.72-31.71,16.18-11.11,31.92-22.82,48.07-33.98,4.5-3.11,8.68-6.67,13.65-9.05,1.02-.49,2.1-1.68,3.32-.27-16.61,12.84-33.24,25.64-49.81,38.52-17.46,13.57-34.85,27.23-52.3,40.8-6.86,5.33-13.81,10.55-20.72,15.82Z" style="fill: #4277e0; stroke-width: 0px;"/>
  <path d="M454.61,245c.72,1.17.24,2.35-.47,3.11-4.7,5.06-5.98,11.91-9.38,17.7-8.94,15.24-16.85,31.06-25.46,46.51-8.71,15.64-17.39,31.31-25.95,47.04-1.47,2.71-2.26,5.83-4.78,7.91-5.57,4.59-11.87,4.54-18.38,2.81-1.1-.29-2.71-.62-2.58-2.24.11-1.41,1.64-1.37,2.64-1.67,4.41-1.34,8.65-2.88,12.49-5.64,4.95-3.56,7.79-8.71,10.73-13.67,13.03-21.92,25.55-44.14,38.28-66.23,5.25-9.11,10.31-18.41,16.48-27,1.8-2.5,3.12-5.33,4.72-7.98.32-.54.95-.75,1.64-.63Z" style="fill: #9bbaef; stroke-width: 0px;"/>
  <path d="M215.22,320.02c.77-6.95,2.69-13.64,5.29-20.08,1.43-3.54,4.34-4.15,8.11-1.99,5.82,3.34,11.53,6.88,17.26,10.37,19.42,11.85,38.82,23.73,58.24,35.59,10.61,6.48,21.2,12.99,31.87,19.38,4.38,2.62,8.95,4.9,13.4,7.39,1.13.63,2.76.76,2.92,2.54-5.89-1.81-11.06-5.19-16.26-8.27-20.64-12.21-41.02-24.88-61.52-37.33-14.24-8.64-28.52-17.21-42.81-25.77-1.27-.76-2.69-1.34-4.11-1.73-2.81-.78-5.04-.24-6.47,2.75-2.34,4.87-3.31,10.15-4.94,15.22-.22.7-.24,1.5-.99,1.94Z" style="fill: #3a6cdb; stroke-width: 0px;"/>
  <path d="M208.48,339.54c2.5-2.64,2.34-6.32,3.65-9.43.56-1.32.53-2.9,1.57-4.05-.16,6.45-3.14,12.22-4.44,18.4-2.19,10.45-5.14,20.7-8.2,30.92-.47,1.58-.3,3.86-2.31,4.35-1.84.45-2.29-1.63-2.98-2.81-1.13-1.92-1.41-4,.29-5.87.83-.92,1.64-1.88,2.51-2.76,5.64-5.73,5.5-13.6,7.6-20.63.8-2.69,1-5.56,2.29-8.12Z" style="fill: #3a6cdb; stroke-width: 0px;"/>
  <path d="M238.18,358.99c-2.76.22-4.56-1.06-5.75-3.67-1.1-2.41-1.83-5.22-5.35-5.57-1.5-.15-1.52-1.85-1.3-3.1,1.67-9.54,4.33-18.85,6.6-28.24.75-3.09,2.73-3.74,5.65-3.13,5.44,1.14,9.49,4.82,14.05,7.53,6.84,4.07,13.51,8.41,20.24,12.66.8.5,2.06.81,1.73,2.1-.3,1.18-1.46,1.11-2.46,1.23-6.3.76-10.24,5.46-14.27,9.44-4.55,4.5-9.47,7.97-15.41,10.18-1.22.45-2.4.61-3.74.58Z" style="fill: #2e3878; stroke-width: 0px;"/>
  <path d="M480.37,56.46c-2.17,3.13-5.33,4.65-8.35,6.3-12.54,6.88-25,13.93-37.79,20.32-16.13,8.06-31.71,17.1-47.65,25.49-25.54,13.45-50.94,27.17-76.42,40.75-12.63,6.73-25.29,13.39-37.92,20.11-17.47,9.29-34.78,18.91-52.44,27.82-11.88,5.99-23.3,12.82-35.23,18.72-11.03,5.46-21.75,11.55-32.63,17.31-1.64.86-3.44,1.44-5.2,2.03-.7.23-1.56.11-2.02-.6-.57-.88.28-1.37.77-1.83.81-.76,1.64-1.56,2.61-2.08,10.41-5.63,20.78-11.32,31.28-16.77,11.58-6.01,23.12-12.13,34.67-18.18,8.24-4.32,16.58-8.57,24.76-13.05,15.04-8.24,29.87-16.92,45.23-24.53,10.37-5.14,20.26-11.14,30.64-16.25,9.21-4.53,18.42-9.17,27.31-14.41,8.87-5.23,18.39-9.33,27.41-14.31,11.11-6.13,22.52-11.67,33.84-17.34,10.44-5.23,20.71-10.83,31.08-16.15,8.9-4.56,18.01-8.89,26.58-14.22,6.04-3.76,12.96-6.13,19.48-9.12Z" style="fill: #9ab6ed; stroke-width: 0px;"/>
</svg>