<?xml version="1.0" encoding="UTF-8"?>
<svg id="Layer_1" data-name="Layer 1" xmlns="http://www.w3.org/2000/svg" viewBox="0 0 568.23 598.63">
  <path d="M360.52,416.76c.99-1.87.91-3.94.62-5.87-1.41-9.61,1.57-17.87,7.69-25.09,6.65-7.85,12.91-16.31,22.03-21.42,8.94-5.01,18.36-8.43,29.24-7.25,15,1.63,27.72,8.45,40.12,16.04,14.64,8.96,28.17,19.45,40.97,30.93,9.1,8.16,17.9,16.62,26.06,25.65,14.35,15.89,27.45,32.79,36.05,52.64,4.65,10.72,6.64,21.84,3.22,33.4-.46,1.55-1.05,3.05-2.17,4.27-4.33,4.61-9.9,6.03-15.94,6.21-7.1.21-14.22-.44-21.3.73-6.9,1.14-13.77,2.34-19.83,6.19-2.39,1.52-5.09,1.83-7.86,2.11-9.96,1.01-19.07-1.87-27.76-6.18-10.87-5.39-21.02-11.99-30.83-19.1-17.22-12.48-33.24-26.35-47.8-41.85-5.03-5.36-9.76-11.02-14.3-16.81-1.32-1.68-2.75-3.22-4.37-4.6-3.46-3.86-5.11-8.78-7.72-13.14-.77-1.22-1.21-2.59-1.8-3.9-.76-1.8-1.3-3.67-1.99-5.5-.86-2.46-1.28-5.06-2.32-7.47Z" style="fill: #ddd; stroke-width: 0px;"/>
  <path d="M180.68,52.6c1.26.02,1.99.91,2.77,1.7,5.01,5,10.02,10.01,15.02,15.02.79.79,1.68,1.51,1.7,2.77-1.15.59-2-.14-3.16-.85,3.03,3.78,6.01,7.21,8.78,10.82.58.65,1.16,1.29,1.68,1.99,3.5,4.86,6.81,9.85,9.5,15.22.5,1,1,2.02,1.29,3.11.22.83.67,1.84-.14,2.45-1.04.79-1.84-.21-2.58-.8-1.78-1.41-2.85-3.46-4.44-5.05-10.58-10.67-21.24-21.26-32.65-31.05,3.37,3.99,6.81,7.9,10.08,11.97,1.02,1.27,2.03,2.55,2.54,4.12.67,2.02.14,3.2-2.24,2.95-1.4-.36-2.35-1.36-3.26-2.38-17.33-19.49-37.16-35.94-59.65-49.2-2.1-1.24-4.8-1.55-6.28-3.82.05-2.81,2.03-2.18,3.44-1.64,3.48,1.33,7.24,2.15,10.37,4.16,5.85,3.76,12.59,6.04,17.74,10.94.57.54,1.23,1.17,2.85,1.16-6.23-4.73-11.79-9.41-17.63-13.77-6.23-4.65-13.1-8.11-19.86-11.8-3.97-2.17-8.28-2.67-12.69-2.12-4.61.57-5.94,2.65-6.02,8.85.56,7.2,3.92,13.3,7.59,19.26,11.05,17.96,24.95,33.6,40.28,47.89,15.88,14.8,32.98,28.1,52.57,37.86,4.73,2.36,9.8,3.63,14.83,5.05,2.37.88,4.64-.02,6.94-.38,1.27-.12,2.31-.77,3.39-1.37,3.6-2,4.87-1.61,6.43,2.29,1.29,3.21,2.94,6.24,4.4,9.36.16.36.28.73.36,1.11.33,2.92.28,5.85.07,8.78-.06.39-.16.76-.3,1.12-.56,1.22-1.11,2.44-1.86,3.56-3.63,4.25-8.29,5.25-13.73,5.18-14.55-.18-28.11-5.43-42.2-7.9-3.12-.55-6.14-.56-9.28-.35-8.41.54-16.74,2.74-25.27,1.28-5.53-.94-10.35-3.61-15.23-6.05-8.61-4.32-16.5-9.79-23.69-16.23-14.49-12.99-28.73-26.22-40.45-41.88-3.74-4.99-7.37-10.07-10.97-15.16-2.91-4.11-6.19-7.47-11.24-8.68-2.66-2.4-2.74-6.07-4.4-8.97.94-1.61.96-3.38.62-5.09-2.34-11.54,1.38-21.39,8.73-30.02,6.62-7.77,13.65-15.18,21.57-21.69,4.69-3.85,10.08-5.67,16.06-6.14,18.08-1.43,33.39,6.22,48.37,14.78,16.36,9.34,31.15,20.88,45.23,33.34,1.2,1.06,2.18,2.38,3.27,3.57-.61.66-1.38.36-2.19.35,4.19,3.84,8.13,7.82,11.93,11.66-2-2.76-5.02-4.79-7.42-7.44-.98-1.08-2.25-2.06-1.58-3.83Z" style="fill: #e8e7e7; stroke-width: 0px;"/>
  <path d="M164.14,242.15c-.03,1.01-.07,2.01-.1,3.02-.47,1.21-.19,2.46-.22,3.69-.03,1.21-.21,2.35-1.59,2.59-1.32.23-2.24-.7-2.5-1.8-.95-4.11-3.66-7.31-5.46-10.98-3.83-7.8-10.25-13.02-17.64-17.1-4.39-2.42-8.54-5.08-12.06-8.64-4.5-4.55-11.63-3.16-13.73,3.01-1.65,4.85-3.96,9.42-5.52,14.27-3.24,10.04-10.63,16.94-17.72,24.08-2.53,2.55-5.48,4.7-7.54,7.72-3.33,3.11-4.63,7.15-6,11.39-4.2,13.06,1.87,23.39,8.72,33.25,5.97,8.59,12.71,16.68,19.38,24.75,5.47,6.62,10.72,13.48,16.79,19.59,14.68,14.76,27.99,30.81,42.89,45.35,4.01,3.91,7.66,8.19,11.93,11.85,5.13,4.41,9.14,9.89,13.9,14.66,8.63,8.65,17.18,17.39,26.09,25.75,10.36,9.73,20.57,19.68,31.29,28.97,12.47,10.81,24.83,22.07,40.49,28.46,2.78,1.14,5.69,1.87,8.61,2.53.49.11,1.03.05,1.47.25,8.12,3.51,14.36-.71,21.42-4.09,7.8-3.75,13.26-10.06,20.04-14.82,2.75-1.93,5.28-2.33,8.39-1.21,5.58,2.02,10.59,5.04,15.43,8.36,3.09,2.12,6.34,4.02,9.32,6.26,5.16,3.89,10.99,5.8,17.23,6.78,3.77.59,7.19-.45,10.25-2.59,2.26-1.59,2.87-3.91,2.53-6.61-.9-7.08-2.07-14.01-5.73-20.37-1.4-2.42-3.43-5.08-2.02-8.36,3.76.13,4.18,3.68,5.97,5.82,2.7,5.13,6.18,9.75,9.5,14.46,1.13,1.61,2.4,3.13,2.92,5.09,1.51,5.52,4.89,10.35,5.5,16.23.69,6.67-4.05,12.78-10.72,13.22-6.06.4-11.94-.14-17.51-2.89-4.63-2.29-9.68-3.21-14.69-4.29-5.28-1.14-9.67.11-11.93,5.05-2.75,5.99-7.99,8.9-13.31,11.34-4.84,2.22-9.15,5.52-14.38,6.93-1.44.39-2.79,1.11-4.32,1.09-7.96-.08-15.94.74-23.87-.22-6.17-.75-11.06-4.44-15.93-7.88-7.02-4.97-12.96-11.32-19.9-16.35-6.53-4.73-12.02-10.53-17.73-16.03-11.3-10.89-22.18-22.23-32.82-33.77-3.97-4.31-8.26-8.31-12.34-12.5-18.8-19.28-37.03-39.11-55.9-58.33-13.8-14.06-27.04-28.67-40.21-43.3-16.83-18.71-34.3-36.98-48.05-58.23-6.36-9.83-11.95-20.15-15.66-31.36-.56-1.7-.9-3.42-.6-5.15.54-3.09.69-6.19.65-9.32-.03-2.67,1.05-4.77,3.13-6.49,2.88-2.39,5.71-4.82,8.87-6.85,2.15-1.38,4.32-2.47,6.93-2.49,1.53-.01,2.98-.41,4.2-1.37,1.44-1.12,3.1-1.45,4.87-1.7,10.81-1.52,19.36-12.81,17.46-23.54-.96-5.45-4.83-9.49-8.46-13.43-5.74-6.24-12.85-10.64-20.38-14.37-4.81-2.39-8.75-1.52-13.03,1.87-4.5,3.57-8.09,8.08-12.71,11.55-4.25,3.2-6.48,8.07-8.59,12.88-1.34,3.06-3.99,5.46-4.71,8.83-1.57,7.26-4.15,14.4-2.93,22.01.42,2.61.21,5.23.47,7.84.44,4.52,1.65,8.8,3.27,13,.83,4.35,3.12,8.09,4.96,12.03.77,1.64,1.93,3.34.29,5.15-5.74-7.7-10.31-16.06-14.18-24.82-1.19-5.48-4.03-10.48-4.69-16.12.02-9.21-1.09-18.39-.81-27.63.29-9.44,1.31-18.63,5.98-27.1,1.7-3.09,3.53-6.03,6.3-8.27,2.72-2.2,5.21-4.58,7.55-7.21,5.86-6.6,10.8-7.49,18.63-3.52,10.36,5.26,19.76,12.15,29.94,17.69,8.36,4.54,15.83,10.36,23.64,15.71,2.1,1.44,4.16,3.63,7.07,2.06,3.23-1.74,5.48-4.28,5.78-8.17.29-3.81-.98-7.16-3.11-10.17-6.26-8.85-12.7-17.58-19.02-26.39-3.42-4.77-6.68-9.64-9.65-14.7-.75-1.27-1.64-2.54-1.28-4.18.96-1.25,1.88-.33,2.47.27,4.91,5.05,10.43,9.44,15.32,14.5.52.54.86,1.21.97,1.97-.15,1.63.69,2.89,1.65,4.04,5.1,6.12,10.27,12.11,16.23,17.5,7.26,6.57,14.41,13.39,19.73,21.8,1.09,1.72,1.43,3.73,2.39,5.46,6.38,11.44,11.58,23.39,15.72,35.82,1.08,3.25,3.13,5.93,6.74,6.89Z" style="fill: #396ad3; stroke-width: 0px;"/>
  <path d="M30.78,276.7c.46-2.28-.87-4.04-1.73-5.95-1.67-3.7-4.27-7.05-4.22-11.38-.78-1.76.27-2.01,1.6-1.8,1.28.2,2.29,1.02,3.06,2.03,2.63,3.48,5.71,6.67,7.93,10.42,5.67,9.59,12.67,18.21,19.13,27.23,11.28,15.75,24.61,29.77,36.99,44.58,7.91,9.46,16.64,18.23,24.92,27.39,14.22,15.73,28.68,31.23,43.45,46.45,13.02,13.42,25.37,27.45,38.34,40.91,7.77,8.06,15.46,16.28,23.13,24.45,12.87,13.7,26.54,26.68,40.23,39.6,7.1,6.7,14.88,12.53,22.27,18.85,8.99,7.69,19.47,11.99,31.22,13.23,3.65.38,7.22-.45,10.77-1.01,14.22-2.22,27.32-7.47,39.4-15.24,2.92-1.88,5.4-4.4,8.75-5.68,3.32-1.27,6.47-1.5,9.76.11,9.41,4.62,19.04,8.71,29.19,11.48,3.78,1.03,7.68,1.08,11.5,1.13,5.16.07,7.76-5.46,5.97-10.81-2.63-7.87-7.59-14.25-12.39-20.77-3.47-4.71-7.26-9.2-10.15-14.33-2.82-5.82-7.32-10.54-10.56-16.09-.62-1.07-1.59-1.9-1.42-3.28,1.86-.57,2.78.89,3.62,1.96,3.54,4.53,7.84,8.33,11.8,12.45,1.04,1.08,2.13,2.12,2.4,3.7,1.19,3.73,4.18,6.15,6.66,8.87,12.44,13.66,25.83,26.39,38.39,39.93,3.59,3.87,5.73,8.55,7.27,13.37,1.97,6.17-5.04,13.17-12.64,12.64-5.96-.41-11.95-.89-17.82-2.09-4.78-.98-9.61-1.48-14.43-2.16-5.11-.71-9.52,1.74-13.97,3.47-3.73,1.45-7.4,2.86-11.31,3.78-14.95,3.54-30.03,6.02-45.39,7.01-4.67.3-9.33,1.4-14.14,2.2,3.55,2.29,7.53,3.57,11.44,4.73,9.69,2.88,19.54,5.04,29.65,6.04,4.19.42,8.33,1.39,12.59,1.52,1.43.04,3.37.06,3.57,2.34-13.94.37-27.51-2.22-41.09-4.88-30.94-6.06-56.1-22.35-78.69-43.54-30.7-28.81-59.25-59.7-87.78-90.61-28.77-31.17-57.41-62.46-85.53-94.22-18.91-21.35-37.85-42.68-55.3-65.28-5.73-7.42-11.67-14.68-16.43-22.79Z" style="fill: #3052bb; stroke-width: 0px;"/>
  <path d="M365.62,429.46c.53,1.23,1.06,2.45,1.6,3.68-2.17,5.82-.6,10.54,3.73,14.89,6.76,6.79,11.79,14.76,15.27,23.73,1.74,4.48,1.66,9.08,1.25,13.66-.48,5.43-7.38,10.07-13.09,9.11-3.65-.61-7.02-2.05-9.82-4.38-7.46-6.21-15.21-12.08-22.02-19.04-2.72-2.78-6.15-3.19-9.71-2.47-6.38,1.29-12.08,4.46-16.91,8.46-7.52,6.24-15.82,7.69-25.13,6.93-6.75-.55-11.89-4.47-17.22-7.73-7.86-4.81-15.95-9.3-23.39-14.83-13.3-9.89-26.14-20.28-38.53-31.31-10.63-9.47-20.76-19.42-30.66-29.59-11.56-11.87-23.47-23.46-34.04-36.25-14.85-17.97-29.62-36.03-40.45-56.88-.81-1.56-1.61-3.16-1.88-4.87-1.37-8.73-2.91-17.45-1.66-26.35.27-1.91,1.42-3.45,2-5.22,4.23-9.09,7.28-18.58,9.58-28.31,1.61-6.85,5.22-9.9,13.57-9.45,8.77.47,15.55,5.11,19.25,13.42,1.62,3.65,3.2,7.36,4.19,11.22,3.28,12.71,7.55,25.08,12.25,37.32,3.89,10.14,8.12,20.09,13.74,29.46,5.9,9.85,11.69,19.75,18.8,28.82,2.33,2.98,4.79,5.72,7.93,7.87,4.11,2.81,8.46,5.22,12.05,8.81,2,2.01,5.19,2.1,8.59,3.45-2.07-3.28-4.99-4.85-6.12-7.79-.51-1.32-1.87-2.51-.54-4.07,6.62,8.16,13.86,15.73,21.61,22.82.77,1.44,2.24,2.04,3.48,2.91,1.09,1.03,2.17,2.07,3.26,3.1,1,1.99,3.39,2.51,4.55,4.34.68,1.07,1.58,2.2.88,3.42-.81,1.41-2.24.76-3.37.35-3.49-1.25-7.3-1.78-10.24-4.36-.46-.4-1.08-.69-1.68-.8-7.15-1.39-12.19-6.14-17.8-10.33-5.68-4.25-10.11-9.57-14.97-14.5-9.74-9.88-17.46-21.42-25.02-32.97-4.21-6.43-7.83-13.28-11.17-20.29-5.59-11.73-9.6-24.07-14.76-35.96-3-6.9-3.96-14.44-7.09-21.27-1.51-3.29-2.92-6.64-5.08-9.57-2.77-3.76-6.46-5.73-11.23-5.56-5.68.2-9.2,3.44-10.08,9.09-1.6,10.3-2.19,20.61.57,30.77,2.44,8.99,4.49,18.05,8.44,26.64,6.13,13.32,13.58,25.82,22.18,37.57,8.45,11.54,17.57,22.59,27.36,33.09,12.86,13.78,26.09,27.14,40.21,39.64,4.67,4.13,9.6,7.95,14.1,12.28,1.44,1.39,2.97,2.79,4.74,3.63,8.08,3.85,14.25,10.45,21.92,14.89,9.16,5.3,18.06,11.08,27.96,14.99,3.62,1.43,7.35,2.29,11.33,1.22,2.41-.65,4.98.06,7.44-.51.34-.12.69-.22,1.04-.32,3.84-1.01,6.58-3.9,9.81-5.93,4.56-2.87,9.38-5,14.46-6.67,9.87-3.3,18.98-7.85,26.12-15.71,1.76-1.93,3.25-4.06,4.9-6.07.91-1.1,1.64-2.59,3.5-2.24Z" style="fill: #5c8ce2; stroke-width: 0px;"/>
  <path d="M12.84,235.35c.41,3.47,1.59,6.73,2.75,9.99.75,2.13,1.29,4.27,1.01,6.54-4.3-8-6.95-16.59-9.05-25.38-4.02-17.5-4.8-35.29-3.8-53.1.78-13.9,4.8-27.25,9.43-40.35,1.5-4.24,3.22-8.39,4.17-12.8,2.26-10.48,7.5-19.46,13.97-27.83,2.29-2.96,4.56-5.94,6.81-8.93,1.39-1.85,2.81-3.95,5.66-3.69,2.72,1.52,3.29,4.54,4.8,6.91,4.59,8.18,10.05,15.77,15.94,23.05,4.35,5.71,8.9,11.25,13.84,16.46,1.1,1.16,2.39,2.22,2.36,4.05-.04,3.32,1.43,6.3,2.17,9.44,2.19,9.29-5.09,18.33-14.56,18.91-10.44.64-18.39-4.56-26.38-9.97-2.17-1.47-4.01-3.38-6.11-4.94-3.59-2.68-5.91-2.27-8.41,1.5-1.8,2.71-3.05,5.73-4.6,8.58-7.46,13.7-11.71,28.31-11.92,43.96-.17,12.57.42,25.11,1.92,37.6Z" style="fill: #6992e2; stroke-width: 0px;"/>
  <path d="M280.95,39.99c-2.61-9.37,3.58-17.86,13.02-17.36,20.13,1.07,39.71,5.13,58.86,11.36.31.1.54.45.81.68-2.04,1.54-4.17.45-6.09-.06-12.07-3.23-24.3-5.57-36.66-7.29-5.81-.81-11.68-.91-17.47-1.83-.62-.1-1.26,0-1.85.2-.69.23-1.58.42-1.49,1.36.07.7.83.89,1.43,1.01,2.32.48,4.69.67,7.04.95,22.4,2.67,44.2,7.87,65.37,15.65,28.58,10.5,55.08,24.8,78.22,44.73,16.69,14.37,31.25,30.74,43.84,48.89,19.22,27.72,32.22,58.1,40.68,90.68,4.98,19.19,7.6,38.62,8.57,58.34.16,3.25-.3,6.3-3.81,7.82-6.27,1.06-9.94-1.1-11.26-7.33-2.25-10.61-3.37-21.43-5.46-32.08-1.78-9.07-3.76-18.08-6.34-26.94-4.83-16.56-10.84-32.7-18.46-48.16-8.46-17.16-18.69-33.24-30.53-48.33-7.34-9.36-15.51-17.9-23.99-26.18-20.65-20.18-44.22-36.02-70.61-47.74-15.47-6.87-31.52-11.85-48.02-15.41-10.61-2.29-21.49-2.98-32.15-5.01-1.98-.38-2.52,1.23-3.65,2.06Z" style="fill: #f2c267; stroke-width: 0px;"/>
  <path d="M395.61,598.01c-.98-1.11-2.39-1.41-3.7-1.48-11.8-.56-23.4-2.53-34.82-5.37-7.48-1.86-15.05-3.74-22.45-8.62,10.36-1.19,19.73-2.42,29.15-3.44,8.69-.94,17.53-1.43,25.93-4.4,2.42-.85,5.07-1.11,7.64-1.45,6.77-.88,12.47-4.74,18.87-6.67,2.37-.71,4.67-1.05,6.96-.75,10.06,1.32,20.1,2.77,30.13,4.31,5.22.8,10.72-1.52,13.04-5.93,1.27-2.41,1.37-4.72.21-7.46-2.58-6.11-6.69-10.87-11.12-15.69-8.11-8.83-16.84-17.01-25.09-25.68-4.88-5.14-9.56-10.47-14.26-15.77-.82-.92-2.12-1.91-1.1-3.5,2.44.29,3.88,2.12,5.44,3.68,6.62,6.6,14.01,12.3,21.13,18.32.88.68,1.55,1.51,2.03,2.5,3.34,5.27,8.39,8.77,13.12,12.58,10.07,8.14,20.59,15.68,30.91,23.48,4.06,3.07,7.29,6.8,7.82,12.2-7.79,7.66-17.34,12.24-27.47,15.88-12.86,4.63-25.81,8.91-39.28,11.38-3.02.55-6.11.76-9.17,1.12-1.88.82-3.94-.13-5.83.57-2.27.35-4.55.47-6.83.21-3.51.5-7.01.47-10.52.02-.25-.02-.51-.03-.76-.05Z" style="fill: #243d9d; stroke-width: 0px;"/>
  <path d="M218.23,361.77c.69,3.24,2.26,5.93,4.87,8.02.87.7,1.66,1.51,2.44,2.3.55.55.98,1.23.54,2-.44.79-1.39.85-1.98.49-3.42-2.09-8.05-1.74-10.64-5.56-1.72-2.55-4.69-3.58-7.25-5.05-7.95-4.58-12.66-12.19-17.62-19.4-5.2-7.56-10.06-15.42-14.39-23.51-3.93-7.32-7.31-14.99-10.31-22.75-5-12.97-9.5-26.11-13.21-39.54-1.92-6.95-3.65-14.36-9.79-19.3-5.61-4.52-11.85-6.62-19.04-4.56-3.63,1.04-5.3,3.83-6.26,7.24-1.77,6.32-2.83,12.85-5.48,18.92-1.49,3.41-2.91,6.86-4.36,10.3-.9.95-1.95,1.71-3.3,1.3-5.61-1.72-11.57-1.42-17.21-3.07-4.02-1.18-5.32-2.79-5.7-7.96.97-3.36,4.01-5.1,6.34-7.09,9.97-8.5,17.21-18.71,21.28-31.16.81-2.47,2.02-4.78,2.48-7.4.86-4.91,5.55-5.9,9.05-7.14,2.19-.77,5.05,1.56,7.04,3.94,2.45,2.93,5.8,5.07,9.2,6.79,9.42,4.77,17,11.21,21.49,21.05,1.26,2.77,3.47,5.1,3.95,8.28.15.99.51,2.15,1.82,1.87,1.19-.25,1.17-1.42,1.22-2.44.05-1.09-.32-2.27.62-3.19-.44,20.09,7.11,38,15.37,55.65,9.12,19.49,20.51,37.61,33.83,54.51,1.68,2.13,2.78,4.72,4.99,6.43Z" style="fill: #4483e3; stroke-width: 0px;"/>
  <path d="M331.23,454.16c-7.44,2.71-14.31,6.45-20.62,11.24-1.21.92-2.5,1.6-4.09,1.48-.33-1.11.57-1.54,1.18-2.1,4.09-3.75,3.56-8.02-1.4-10.64-1.98-1.05-4.05-1.91-6.04-2.97-8.63-4.61-16.33-10.57-24.12-16.4-8.59-6.43-17.35-12.63-25.96-19.03-16.34-12.15-31.8-25.24-45.45-40.48-14.59-16.28-27.15-33.95-37.07-53.31-9.32-18.18-17.86-36.8-23.3-56.66-1.64-5.97-3.68-11.94-9.13-15.92-5.7-4.17-11.32-1.92-12.89,4.93-2,8.74.37,17.03,2.88,25,4.86,15.44,9.79,30.95,17.87,45.14,9.63,16.94,20.84,32.72,33.37,47.71,9.63,11.51,20.22,22.01,30.78,32.57,10.94,10.94,23.01,20.61,35.3,30.04,12.71,9.74,26.09,18.38,39.77,26.62,5.44,3.28,11.09,5.57,17.7,4.66,2.1-.29,4.5-.76,6.48.85-6.68,1.08-13.38,2.54-20-.3-13.99-6.01-26.99-13.81-39.16-22.82-7.45-5.51-15.68-9.93-22.35-16.61-6.75-6.76-14.31-12.71-21.25-19.29-7.06-6.7-14.01-13.54-20.64-20.66-8.28-8.89-16.73-17.7-24.11-27.32-7.83-10.2-15.85-20.41-22.02-31.73-5.25-9.64-11.05-19.13-13.91-29.92-2.79-10.52-6.13-20.98-5.99-32,.07-5.17.88-10.37,1.72-15.49.76-4.62,3.76-7.71,8.36-8.46,5.8-.96,10.99.63,14.43,5.72,4.43,6.55,7.12,13.89,9.08,21.52,2.08,8.1,5.81,15.6,8.63,23.43,2.86,7.94,6.26,15.67,9.95,23.28,3.75,7.73,8.21,14.99,12.72,22.29,4,6.48,9.07,12.1,13.16,18.48,3.61,5.64,9.14,9.82,13.3,14.99,4.76,5.93,11.28,9.6,16.42,14.91,2.36,2.44,5.05,3.98,8.4,4.3,2.32.22,4.56,1.23,6.06,2.57,3.51,3.13,8.12,2.68,12.39,5.33-.56-2.94-1.29-4.73-3.27-5.88-.99-.57-1.79-1.37-1.86-2.64,6.81,5.19,13.59,10.41,20.45,15.54,2.59,1.94,5.33,3.66,8,5.49,2.19,3.28,5.17,6.13,7.25,9.22,3.77,5.61,9,9.05,13.92,13.12,2.59,2.14,5.3,4.12,7.88,6.27,3.46,2.88,6.61,6.05,9.42,9.52,3.03,3.75,6.77,4.64,11.3,3.79,2.14-.4,4.43-.97,6.44.61Z" style="fill: #5e96e8; stroke-width: 0px;"/>
  <path d="M280.96,120.74c1.58-6.39,5.96-9.89,12.66-9.71,15.61.42,30.43,4.57,44.94,9.97,2.65.99,5.46,1.71,7.78,3.47-1.8,1.67-3.46.33-5.19-.21-14.04-4.46-28.24-8.24-43.03-9.16-1.22-.08-2.48-.23-4.01.49,3.3,1.18,6.5,1.25,9.59,1.73,17.29,2.66,33.62,8.37,49.46,15.57,21.31,9.68,39.52,23.53,55.04,41.09,25.18,28.49,38.98,62,44.62,99.24.51,3.34.87,6.67.78,10.05-.05,1.5.03,3-.09,4.49-.43,5.58-5.6,8.03-10.29,4.88-2.76-1.85-4.3-4.53-4.7-7.76-.66-5.21-1.97-10.29-2.98-15.42-3.8-19.35-10.48-37.58-19.79-55.02-8.39-15.7-18.9-29.72-31.45-42.08-19.12-18.82-41.42-32.65-67.37-40.32-9.01-2.66-18.09-4.74-27.4-5.78-3.88-.43-6.12-3.04-8.56-5.5Z" style="fill: #f1c165; stroke-width: 0px;"/>
  <path d="M280.95,39.99c.05-3.15,1.06-3.82,4.44-3,6.11,1.47,12.44,2.04,18.68,2.88,15.44,2.09,30.39,6.06,45.08,11.19,14.06,4.9,27.33,11.45,40.25,18.73,9.87,5.55,19.02,12.2,27.97,19.13,10.17,7.88,19.22,16.95,28.28,26.03,8.28,8.3,15.35,17.61,22.26,27.01,8.7,11.85,16.28,24.48,22.63,37.71,9.93,20.66,17.79,42.11,22.75,64.58,2.86,12.95,5.19,25.98,6.79,39.15.28,2.33.7,4.77,1.7,6.84,1.86,3.88,5.42,4.84,9.47,4.35.48.57-1.82,2.09.83,2.05,2.14-.03,4.38-1.55,6.47.18-2.86,7.21-15.98,8.52-21.34,4.61-5.12-3.74-4.8-9.33-5.31-14.51-1.56-16.13-3.85-32.13-7.83-47.84-4.96-19.6-11.86-38.5-20.99-56.57-.28-.55-.45-1.16-.67-1.74,1.92-.71,2.54.67,3.43,1.93,1.18,1.66,1.02,3.86,2.29,5.32-4.31-10.78-9.65-21.18-15.99-30.99-9.34-14.46-19.33-28.44-31.61-40.71-9.82-9.81-19.78-19.45-31.01-27.58-10.4-7.52-21.15-14.52-32.7-20.33-11.53-5.79-23.29-10.84-35.55-14.78-17.42-5.59-35.35-8.58-53.52-10.3-1.86-.18-3.01.98-4.44,1.63-1.62-1.27-2.23-3.02-2.38-4.98Z" style="fill: #eaab4c; stroke-width: 0px;"/>
  <path d="M538.55,296.81c-3.48-.15-7.02,2.08-10.45-.38.29-1.79,2.55-.49,3.15-1.85,2.25-1.53,3.09-3.61,3.05-6.36-.16-9.95-1.72-19.74-2.82-29.6-2.15-19.29-7.61-37.72-13.83-55.94-5.93-17.36-13.58-33.97-23.3-49.59-9.68-15.55-20.47-30.16-33.01-43.61-18.68-20.03-39.9-36.45-64.19-49.04-12.3-6.38-24.94-12-37.99-16.52-16.08-5.57-32.58-9.67-49.43-12.32-5.88-.93-11.76-1.76-17.69-2.25-.73-.06-1.42-.43-2.15-.62-1.04-.26-1.96-.7-1.95-1.91,0-1.07,1.03-1.27,1.78-1.68,3.27-1.8,6.61-.24,9.86-.01,8.65.59,17.18,2.22,25.75,3.47,7.27,1.06,14.24,3.31,21.38,4.83,2.3.49,4.62.85,6.94,1.26,16.45,5.17,32.17,12.01,47.13,20.62,26.08,15,48.88,33.94,68.53,56.69,23.38,27.07,40.88,57.53,52.95,91.19,7.47,20.81,12.66,42.15,15.51,64.04,1.05,8.02,2.07,16.08,1.89,24.21-.04,1.87.1,3.77-1.1,5.39Z" style="fill: #f2bc3e; stroke-width: 0px;"/>
  <path d="M441.21,518.67c-5.92-4.9-11.9-9.75-17.75-14.73-2.92-2.48-5.64-5.21-8.44-7.82-5.7-5.96-11.4-11.92-17.1-17.89-1.8-2.02-3.01-4.55-5.22-6.23-2.51-1.54-4.07-3.98-5.79-6.23-3.99-5.23-7.96-10.48-11.36-16.13-.66-1.09-1.86-2.16-.93-3.7,4.97,3.34,7.85,8.61,11.64,12.99,8.16,9.44,16.92,18.21,26.09,26.65,10.82,9.95,22.27,19.09,34.37,27.36,12.73,8.7,25.52,17.72,41.01,20.75,7.15,1.4,14.58,1.89,21.56-2.77,4.69-3.13,10.7-3.9,16.33-4.82,7.9-1.28,15.91-.56,23.86-.87,4.08-.16,8.14-.91,11.59-3.55.94-.72,1.86-1.74,3.27-1.63-2.67,5.12-6.05,9.69-10.41,13.51-3.69,2.54-7.62,4.82-10.82,7.94-11.62,11.37-25.11,13.04-40.12,8.54-12.4-3.72-23.71-9.77-35.07-15.73-9.14-4.8-18.03-10.08-26.72-15.66Z" style="fill: #b0b0b1; stroke-width: 0px;"/>
  <path d="M48.02,87.1c-1.28-2.21-2.56-4.42-3.85-6.63-2.17-2.65-4.77-5.13-3.63-9.1,5.68.53,8.92,4.38,11.88,8.67,9.03,13.09,18.52,25.88,29.91,37,7.54,7.36,15.16,14.68,23.27,21.47,8.66,7.25,18,13.13,28.27,17.76,6.19,2.79,12.28,3.92,19.11,2.85,13.45-2.1,26.81-1.79,39.95,2.72,8.94,3.07,18.41,3.94,27.79,4.44,4.36.24,8.46-1.73,11.63-5.05.83-.83.99-2,1.49-2.99h0c.64-3.5.83-7,0-10.49h0c-.49-1-.84-2.06-1.29-3.07-2.43-5.42-4.43-10.84-5.39-16.89-1.57-9.76-4.69-19.2-10-27.83-3.31-5.38-6.35-10.91-10.28-15.88-.72-.28-1.22-.78-1.5-1.5-.34-.49-.74-.98-.92-1.54-.3-.94-1.72-1.98-.45-2.83,1.27-.85,2.13.44,2.88,1.38.71.29,1.2.79,1.49,1.5.86,1.36,1.48,2.91,3,3.74h0c.88,1.34,1.79,2.65,2.96,3.75,1.01,1.26,2.02,2.52,3.03,3.78.73.99,1.36,2.05,2.2,2.96,5.57,7.38,11.23,14.7,15.04,23.22-1.46.55-2.2-.94-3.83-1.29.15,2.33,1.4,4.23,1.84,6.3,1.53,7.17,2.4,14.47,4.84,21.47,2.04,5.86,1.6,11.8-1.26,17.45-1.86,3.67-4.7,6.13-8.68,7.13-5.48,1.38-10.99,1.51-16.68,1.32-9.43-.3-18.96-.02-27.39,5.45-3.25,2.11-7.07,2.5-10.8,1.62-2.35-.55-4.66-.99-7.02-.77-5.85.54-11-1.5-16.16-3.88-11.19-5.16-20.95-12.56-30.88-19.66-14.46-10.33-27.39-22.44-39.89-35.01-4.75-4.77-9.37-9.7-13.54-14.98-4.99-6.31-11.02-11.48-17.13-16.61Z" style="fill: #dcddde; stroke-width: 0px;"/>
  <path d="M48.02,87.1c3.39.24,5.07,3.23,7.42,4.97,4.38,3.25,7.6,7.82,11.22,11.92,7.64,8.67,15.4,17.19,24.1,24.89,6.78,6.01,13.1,12.53,20.42,17.95,3.79,2.8,7.45,5.77,11.29,8.5,4.85,3.45,9.8,6.76,14.74,10.09,5.89,3.97,12.37,6.83,18.83,9.71,2.34,1.04,4.8,1.09,7.31,1.14,3.44.07,6.8.01,10.3.97,2.78.76,6.55.53,9.22-1.52,4.97-3.81,10.78-4.99,16.7-5.38,4.77-.31,9.5-1.24,14.42-.24,4.51.92,9.15-.34,13.6-1.46,5.44-1.36,9.58-7.23,10-13.94.19-3.11.25-6.28-.88-9.23-2.83-7.33-3.62-15.11-5.19-22.71-.37-1.79-1.45-3.42-2.03-5.19-.24-.75-.49-1.84.47-2.35.83-.44,1.3.45,1.85.9.95.79,1.88,1.61,2.82,2.42,7.28,13.55,12.16,27.49,6.74,43.02-.94,2.7-2.19,5.26-4.45,7.17-.95.57-1.85,1.19-2.68,1.97-7.78,7.31-32.05,19.86-41.71,21.73-3.14.61-6.13.35-9.23-.44-22.15-5.69-41.32-17.11-59.68-30.32-12.17-8.76-23.85-18.12-34.94-28.16-7.66-6.93-15.32-13.9-22.56-21.3-.7-.72-1.43-1.39-2.27-1.94-5.85-7.33-11.55-14.77-15.8-23.19Z" style="fill: #dcdcdd; stroke-width: 0px;"/>
  <path d="M280.96,120.74c.61.09,1.57-.04,1.79.3,3.95,6.07,10.68,4.54,16.2,5.53,9.23,1.65,18.14,4.25,26.89,7.37,15.43,5.51,29.6,13.44,42.65,23.42,12.2,9.33,22.84,20.17,32.34,32.19,12.86,16.28,22.16,34.55,28.98,53.98,4.46,12.72,7.45,25.96,9.32,39.39.45,3.23,1.12,6.36,3.96,8.55,2.05,1.58,4.18,2.15,6.61,1.17,2.5-1.02,2.95-3.14,2.9-5.53-.03-1.25,0-2.49,0-3.74,3.18,2.82,2.15,8.74-1.92,11-2.66,1.48-4.54,1.49-10.82.23,3.1,1.34,6.44,1.72,9.72,2.38,1.45.29,3.72-.23,3.93,2.35-4.62,3.77-10.02,3.57-15.22,2.24-4.44-1.14-6.97-4.64-7.44-9.31-1.53-15.13-4.19-30.03-9.07-44.45-2.19-6.45-4.85-12.75-7.29-19.12,1.98-.24,2.54,1.28,3.1,2.64.77,1.84,1.38,3.75,2.63,5.63-6.44-18.97-15.94-36.09-28.92-50.94-13.01-14.88-27.86-27.67-45.48-37.3-18.64-10.19-38.51-15.62-59.22-18.91-2.01-.32-3.62.47-5.41.72-1.11-3.24-1.48-6.49-.21-9.77Z" style="fill: #ebad4f; stroke-width: 0px;"/>
  <path d="M283.33,44.97c.38-2.08,1.71-3.04,3.73-2.78,15.72,2,31.43,3.88,46.77,8.28,12.22,3.5,24.16,7.7,35.61,13.13,11.79,5.59,23.1,12.1,33.89,19.53,14.94,10.28,28.16,22.46,40.73,35.44,8.16,8.42,15.04,17.81,21.85,27.3,9.17,12.79,16.55,26.53,22.71,40.98.52,1.23,1.14,2.44,1.07,4.16-2.47-.92-2.99-3.04-3.27-4.93-.39-2.62-1.49-4.41-3.98-5.31-6.7-12.23-13.74-24.25-22.13-35.42-28.07-37.4-63.41-65.15-107.43-81.68-19.52-7.33-39.75-11.11-60.25-13.92-3.65-.5-7.13-1.36-9.29-4.77Z" style="fill: #e29432; stroke-width: 0px;"/>
  <path d="M40.55,71.37c.23,3.42,2.77,5.93,3.63,9.1-2.81-.37-3.98,1.95-5.25,3.59-4.56,5.86-9.11,11.77-13.2,17.96-3.51,5.3-5.43,11.4-7.04,17.55-2.93,11.17-7.72,21.75-10.33,33.02-1.85,7.98-3.6,15.98-3.67,24.19-.09,10.07-.68,20.18.76,30.2.93,6.49,1.64,12.99,2.12,19.52-2.92-7.06-3.8-14.61-5.07-22.03C.22,191.33-.16,178.03.05,164.69c.18-11.98,1.98-23.7,4.58-35.35,2.05-9.2,4.84-18.19,7.37-27.26,3.89-13.94,12.27-25.11,21.43-35.85.89-1.04,1.78-2.08,2.66-3.11,3.31,1.77,2.37,5.83,4.45,8.25Z" style="fill: #a1b2e3; stroke-width: 0px;"/>
  <path d="M281.06,209.26c.12-.82-.28-1.76.61-2.39,1.88-1.95,3.39-1.06,3.74,1.02.6,3.55,2.85,4.44,5.9,5.17,24.99,5.99,43.2,20.82,55.82,42.95,4.61,8.09,7.82,16.7,9.91,25.75.78,3.37,2.9,5.8,5.62,7.67,3.58,2.45,6.99.63,7.27-3.75.24-3.8-.8-7.45-1.67-11.06-5.18-21.41-16.54-38.99-34.13-52.14-11.35-8.49-24.68-12.92-38.47-15.87-.37-.08-.75-.09-1.11-.18-1.83-.48-4.77-.16-4.62-2.68.17-2.75,3.19-2.97,5.35-2.88,4.87.19,9.53,1.73,14.22,2.97,2.03.53,3.96,1.48,6.11,1.54,11.01,4.65,20.98,10.85,29.59,19.25,16.87,16.47,26.62,36.61,30.87,59.57.64,3.46.88,7.21-1.38,10.45-6.68,4.36-13.2,2.94-19.61-.63-1.75-.98-3.39-1.5-5.17-.19-1.52-5.95-3.04-11.91-4.55-17.86,1.85-.98,1.12-2.5.79-3.92-2.37-10.5-8.17-19.14-14.84-27.29-10.44-12.77-23.82-20.87-39.78-24.88-3.93-.99-7.82-2.27-10.84-5.23.17-1.79-.42-3.63.37-5.38Z" style="fill: #edb044; stroke-width: 0px;"/>
  <path d="M453.51,299.32c-4.08-2.27-8.9-1.51-13.13-3.21-.56-.23-1.25-.13-1.8-.36-.76-.32-1.77-.62-1.47-1.79.24-.95,1.12-.79,1.84-.86,1.16-.1,2.18.29,3.22.75,3.53,1.55,7.1,1.17,9.69-1.47,2.42-2.47,2.05-5.87.75-9.02-.35-12.87-3.41-25.26-6.68-37.61-2.81-10.62-6.68-20.88-11.49-30.7-5.74-11.72-12.47-22.92-20.72-33.13-14.71-18.2-32.01-33.2-52.83-44.13-15.63-8.2-32.1-13.96-49.18-18.07-5.51-1.33-11.23-1.83-16.85-2.67-1.12-.17-2.72-.25-2.76-1.36-.06-1.55,1.65-1.64,2.84-1.61,8.44.27,16.82,1.03,25,3.3,7.98,2.21,16.25,3.38,23.85,6.92.72.34,1.71.11,2.58.15,15.72,6.37,29.82,15.43,42.78,26.26,23.18,19.36,40.6,43.11,52.51,70.76,9.26,21.49,15.37,43.87,16.36,67.43.18,4.27-1.08,7.76-4.5,10.4Z" style="fill: #f1b739; stroke-width: 0px;"/>
  <path d="M164.14,242.15c-2.23.75-3.77-.13-5.06-1.95-2.34-3.29-3.79-6.99-4.96-10.78-2.39-7.69-5.51-15.02-9.48-22.04-3.76-6.65-5.92-14.25-11.25-19.93-5.06-5.4-9.98-10.98-15.69-15.75-6.33-5.29-11.36-11.73-16.35-18.22-.74-.97-1.28-1.92.1-2.8,1.63-.34,2.56.76,3.55,1.73,2.23,2.54,5.58,3.95,7.22,7.09.78,2.86,3.1,4.48,5.15,6.24,16.67,14.36,34.84,26.61,53.7,37.87,2.84,1.7,6.34,2.56,7.4,6.32-2.5,4.09-5.08,8.14-7.5,12.28-3.61,6.17-5.72,12.89-6.82,19.93Z" style="fill: #3469d5; stroke-width: 0px;"/>
  <path d="M315.6,205.37c-1.12.7-2.21.9-3.52.3-4.44-2.05-9.4-2.15-14-3.64-1.82-.59-3.68-.53-5.49.22-.88.36-2.26.3-2.16,1.61.1,1.24,1.57,1.25,2.39,1.34,7.22.84,13.97,3.31,20.78,5.66,20.79,7.18,35.59,21.1,46.39,39.95,5.54,9.67,8.51,20.09,10.64,30.82.64,3.22,1.68,7.24-2.37,9.34-3.93,2.04-6.42-.7-9.06-3.15-3.42-3.18-3.48-7.61-4.64-11.58-3.62-12.34-9.45-23.41-17.65-33.33-6.97-8.43-14.81-15.75-24.59-20.81-7.07-3.67-14.36-6.84-22.23-8.33-3.16-.6-5.47-1.48-5.38-5.29.05-2.22-1.38-2.33-3.07-1.6,3.26-6.57,7.45-8.64,16.42-7.26,6.09.94,12,2.83,17.5,5.75Z" style="fill: #f1c062; stroke-width: 0px;"/>
  <path d="M281.17,130.51c1.33-2.65,3.35-2.01,5.7-1.57,11.35,2.09,22.78,3.75,33.72,7.64,19.39,6.9,37.18,16.45,52.7,30.24,12.18,10.82,23.25,22.5,31.79,36.41,6.63,10.8,12.54,21.98,16.19,34.47-2.84-1.27-2.84-1.31-3.95-4.41-.62-1.73-.85-3.71-2.84-4.61-7.08-14.22-15.31-27.7-25.95-39.59-23.93-26.75-53.27-43.82-88.9-49.63-3.07-.5-6.15-.97-9.21-1.54-4.38-.81-7.26-3.57-9.25-7.4Z" style="fill: #df8c2e; stroke-width: 0px;"/>
  <path d="M104.42,152.94c-.99-.75-1.99-1.51-2.98-2.26-6.05-5.77-12.11-11.53-18.16-17.3-1.8-.48-2.93-1.57-3.17-3.48-5.17-6.13-10.34-12.25-15.5-18.38-.31-.37-.53-.82-.79-1.23,2.91.8,4.63,3.29,6.75,5.08,4.75,4,9.1,8.48,13.65,12.73,12.54,11.71,25.83,22.46,39.67,32.62,13.21,9.69,27.14,17.98,42.08,24.61,6.38,2.83,13.06,5.2,19.86,6.28,7.8,1.25,15.17-1.67,22.02-5.52,5.92-3.32,11.53-7.14,17.84-9.83,2.86-1.22,5.16-3.82,7.61-5.91,1.08-.92,2.05-1.82,3.59-1.6-7.98,10.01-16.46,19.53-26.76,27.28-2.36,1.77-5.13,2.44-7.82,3.35-.43-.29-.94-.43-1.41-.41-14.04.53-26.65-4.6-39.03-10.2-19.6-8.86-37.64-20.33-54.27-33.98-.99-.82-2.16-1.16-3.18-1.83Z" style="fill: #c5c6cb; stroke-width: 0px;"/>
  <path d="M331.23,454.16c-2.59.08-5.15-.05-7.76.6-6.19,1.56-9.72-2.84-12.87-6.86-2.43-3.1-5.37-5.58-8.33-7.87-4.68-3.62-8.76-8.11-14.22-10.7-.11-.05-.19-.16-.29-.23-2.53-1.75-12.19-15.01-12.73-17.48,11.51,7.14,23.35,13.62,36.03,18.46.3.4.9.58,1.04,1.05,2.33,8.14,9.67,9.78,16.21,11.92,5.32,1.74,10.34-1,14.83-3.63,6.24-3.66,11.93-8.13,16.77-13.58.93-1.05,1.68-2.68,3.61-1.74.7,1.79,1.39,3.58,2.09,5.37-3.57,2.46-5.28,6.52-8.25,9.55-7.37,7.48-16.12,12.35-26.14,15.15Z" style="fill: #749ce6; stroke-width: 0px;"/>
  <path d="M281.13,215.17c16.79,5.33,33.86,10.3,46.38,23.75,9.17,9.86,17.04,20.66,19.95,34.26.25,1.19.64,2.44-.17,3.48-.13.17-1.26-.45-1.93-.7-4.06-10.31-9.02-20.09-16.7-28.27-10.47-11.16-23.29-18.03-38.17-21.29-5.18-1.13-8.68-4.18-9.58-9.67-.23-.57-.31-1.11.23-1.56Z" style="fill: #d78434; stroke-width: 0px;"/>
  <path d="M441.21,518.67c6.57,2.1,11.89,6.52,17.86,9.71,14.68,7.83,29.05,16.33,45.21,21.02,14.49,4.21,27.35,2.12,38.42-8.81,3.12-3.08,6.78-5.81,11.23-7.01-5.83,5.87-11.25,12.22-17.92,17.17-6.21,4.61-13.5,5.81-21.13,5.4-2.05-.11-4.21-.79-6.15.56-20.45-4.37-37.93-14.86-54.7-26.75-3.94-2.79-8.17-5.29-11.13-9.29-.57-.67-1.14-1.34-1.71-2.01Z" style="fill: #8d8e8f; stroke-width: 0px;"/>
  <path d="M363.53,424.09c-2.03.05-2.35,2.02-3.45,3.1-7.29,7.19-15.04,13.72-25.07,16.77-3.83,1.16-7.64.5-11.23-1.08-2.03-.9-3.82-2.34-5.85-3.24-4.2-1.87-6.66-4.87-6.87-9.55,5.39,1.23,10.66,2.92,16.29,3.19,9.36.45,17.1-3.27,24.19-8.79,3.11-2.42,5.99-5.14,8.98-7.73,2.95,1.65,2,4.89,3.01,7.34Z" style="fill: #a3b5e7; stroke-width: 0px;"/>
  <path d="M442.92,520.68c11.24,8.44,22.66,16.61,35.07,23.29,9.22,4.97,18.76,9.11,29.07,11.25.95.2,1.71.32,1.69,1.48-4.42,4.06-8.85,8.11-13.27,12.17-.39-.3-1.07-.55-1.13-.91-1.47-8.43-8.85-11.49-14.58-15.97-11.62-9.09-23.93-17.33-34.51-27.71-1.03-1.01-2.48-1.82-2.33-3.62Z" style="fill: #132068; stroke-width: 0px;"/>
  <path d="M178.47,209.94c-6.6-6.07-14.91-9.49-22.27-14.41-11.65-7.78-23.39-15.38-33.86-24.77-2.95-2.64-6.49-4.59-9.08-7.67-.8-.96-2.32-1.66-1.5-3.36,1.64-.43,2.51.87,3.52,1.69,12.86,10.35,26.49,19.57,41.07,27.29,8.27,4.38,16.95,7.9,26.21,9.74,1.51.3,3.4.16,3.43,2.51-2.51,2.99-5.02,5.99-7.52,8.98Z" style="fill: #203caa; stroke-width: 0px;"/>
  <path d="M185.99,200.96c-.22-.84-.87-1.2-1.64-1.33-16.45-2.77-30.66-10.7-44.47-19.44-9.81-6.21-19.28-12.91-28.12-20.46-2.45-2.26-4.89-4.53-7.34-6.79,4.06-.01,6.32,3.24,9.06,5.34,11.83,9.1,24.36,17.05,37.51,24.08,11.42,6.11,23.27,11.11,35.87,14.24,3.5.87,7.02,1.5,10.65,1.35,1.75-.07,3.51-.1,4.81,1.41-4.59.86-9.12,2.36-13.88.99-.89-.26-1.69.18-2.46.61Z" style="fill: #adafbe; stroke-width: 0px;"/>
  <path d="M349.91,293.81c.23-3.1,2.09-2.48,3.91-1.63,2.01.94,3.86,2.26,5.93,3,4.39,1.59,8.84,2.19,13.03-.75.65-.46,1.35-.64,1.9.2-4.81,5.9-11.11,8-17.93,5.84-3.33-1.06-5.88-3.09-6.84-6.66Z" style="fill: #d37f33; stroke-width: 0px;"/>
  <path d="M206.9,79.59c-.91-.22-1.58-1.21-2.79-.82.43,1.3.85,2.55,1.27,3.81-.39-.3-.85-.54-1.15-.91-3.12-3.91-6.21-7.84-9.74-12.31,2.82.18,3.79,2.42,5.68,2.72,2.46,2.31,5.45,4.13,6.72,7.5Z" style="fill: #dcdce2; stroke-width: 0px;"/>
  <path d="M180.68,52.6c.83,2.47,2.65,4.33,4.65,5.66,2.89,1.92,4.34,5,6.59,7.45-6.32-3.81-10.68-9.79-15.89-15.05,1.3.4,2.6.8,3.91,1.2.25.24.49.49.74.73Z" style="fill: #dcdce2; stroke-width: 0px;"/>
  <path d="M396.37,598.06c3.51,0,7.02-.01,10.52-.02-3.51.73-7.01.83-10.52.02Z" style="fill: #3052bb; stroke-width: 0px;"/>
  <path d="M214.35,88.58c-2.25-.26-2.58-2.03-2.96-3.75,1.37.95,2.82,1.83,2.96,3.75Z" style="fill: #dcdce2; stroke-width: 0px;"/>
  <path d="M281.13,215.17c-.08.52-.15,1.04-.23,1.56-.92-2.51-1.02-5,.16-7.47.02,1.97.05,3.94.07,5.9Z" style="fill: #f1c062; stroke-width: 0px;"/>
  <path d="M211.38,84.83c-2.18-.3-3.07-1.64-3-3.74,1.62.75,2.29,2.26,3,3.74Z" style="fill: #dcdce2; stroke-width: 0px;"/>
  <path d="M243.33,387.5c-1.97,0-3.15-.96-3.48-2.91,1.47.6,2.69,1.51,3.48,2.91Z" style="fill: #5e96e8; stroke-width: 0px;"/>
  <path d="M413.72,597.84c1.84-1.22,3.88-.46,5.83-.57-1.87.91-3.87.61-5.83.57Z" style="fill: #3052bb; stroke-width: 0px;"/>
  <path d="M219.58,95.32c-1.73-.25-1.94-1.62-2.2-2.96,1.22.63,2.2,1.43,2.2,2.96Z" style="fill: #dcdce2; stroke-width: 0px;"/>
  <path d="M374.62,445.95c4.24,8.46,10.28,15.66,16.04,23.05.75.96,1.92,1.63,2.03,3.01-.17,3.28,1.27,6.17,2.89,8.72,4.18,6.56,4.66,14.06,5.8,21.36.34,2.16-.58,4.62-2.86,6.09-3.91,2.52-7.92,3.27-12.67,2.64-9.12-1.21-15.95-6.59-23.15-11.4-5.8-3.88-11.54-7.77-18.22-10.09-2.55-.88-4.32-.29-6.55,1.06-5.47,3.32-8.95,8.96-14.63,11.99-6.82,3.63-13.3,8.01-21.12,9.4-.72.13-1.33.47-2.13.17-10.98-4.06-22.43-7.09-31.91-14.45-4.02-3.12-7.96-6.33-11.99-9.44-14.41-11.09-26.72-24.49-40.33-36.46-6.57-5.78-12.33-12.35-18.83-18.15-7.43-6.64-13.75-14.32-20.68-21.44-8.48-8.71-17.41-16.99-25.68-25.89-6.08-6.54-12.66-12.62-18.04-19.87-2.83-3.81-6.77-6.84-10.14-10.31-11.18-11.52-21.14-24.05-30.99-36.69-3.66-4.69-7.87-8.99-11.21-13.89-3.45-5.07-5.62-10.91-7.52-16.75-2.91-8.95.23-16.99,4.33-24.76.49-.92,1.63-1.49,2.46-2.22.37.75,1.61.96,1.39,2.04-.71,3.51,1.98,4.55,4.27,4.79,4.3.44,8.23,2.76,12.82,1.97,2.45-.42,4.87,2.51,7.73.93-3,7.6-3.09,15.37-1.09,23.18.72,2.8-.12,5.69,1.01,8.48,2.73,6.72,6.94,12.59,10.52,18.83,7.51,13.09,17.6,24.24,26.88,36.02,4.77,6.06,10.08,11.62,14.85,17.66,1.39,1.76,3.25,2.98,4.78,4.62,7.89,8.48,16.06,16.7,24.16,24.98,4.41,4.51,8.68,9.19,13.36,13.41,9.59,8.64,19.2,17.26,29.08,25.59,13.8,11.64,28.68,21.68,44.03,31.1,7.66,4.7,15.37,9.44,24.93,8.09,5.98-.84,11.35-2.59,16.54-6.53,6.61-5.01,13.76-10.53,23.2-9.13,2.56.38,4.25,1.91,6.14,3.73,4.98,4.8,10.54,9,15.73,13.59,4.22,3.73,8.4,7.35,14.16,8.57,6.05,1.28,12.39-3.69,12.69-9.81.36-7.22-1.4-13.72-5.23-19.84-3.9-6.25-7.83-12.38-13.3-17.45-3.62-3.36-3.91-10.24-.98-13.31,2.73,4.12,4.38,8.86,7.4,12.81Z" style="fill: #4f7cda; stroke-width: 0px;"/>
  <path d="M526.05,458.61c5.72,7.04,9.81,15,13.29,23.31,1.9,3.25,3.79,6.5,1.43,10.34-1.32,2.33-3.32,1.59-5.22,1.11-8.53-2.15-16.25-6.15-23.83-10.49-11.68-6.69-22.32-14.79-32.51-23.55-11.21-9.63-21.78-19.82-31.28-31.18-7.76-9.28-15.17-18.74-20.91-29.4-2.63-4.88-4.91-9.93-5.79-15.49.59-2.07,2.34-1.87,3.92-2.03,4.82-.49,9.3.84,13.76,2.47,5.72,2.09,11.08,4.92,16.37,7.9,1.08.61,2.09,1.34,2.58,2.57,3.96,2.8,7.92,5.6,11.88,8.4,5.8,6.19,12.26,11.65,18.65,17.2,4.9,4.25,9.19,9.12,13.77,13.68,8.2,8.17,14.75,17.9,23.89,25.16Z" style="fill: #5493e8; stroke-width: 0px;"/>
  <path d="M490.63,480.86c-4.32.79-7.5-.22-10.12-2.92-.9-.92-1.96-1.56-3.15-1.95-10.02-3.28-18.37-9.53-26.02-16.3-8.88-7.86-18.09-15.54-25.65-24.74-7.6-9.24-16.01-18.2-19.57-29.94-2.48-8.2-6.34-16.14-6.48-24.93-.05-3.05,2.42-5.6,2.28-8.9-.05-1.22,1.47-.46,1.79.31,1.61,3.89,4.67,6.98,5.78,11.2,1.02,3.87,3.57,7.1,5.77,10.36,3.18,4.71,7.36,8.77,10.31,13.6,4.99,8.18,11.72,15.01,16.93,23.04,3.39,5.23,8.7,9.13,12.81,13.97,7.21,8.49,15.68,15.82,22.66,24.6,3.09,3.88,7.33,7.04,10.96,10.62.51.5.94,1.08,1.71,1.97Z" style="fill: #fdfdfd; stroke-width: 0px;"/>
  <path d="M457.86,394.17c-8.14-4.55-16.19-9.33-25.41-11.4-3.71-.83-7.56-1.59-11.21.49-.69-5.63,3.22-10.39,9.34-10.18,7.7.26,14.19,3.08,20.54,6.89,9.07,5.43,17.63,11.55,25.55,18.54,1.32,1.16,2.96,2.22,3.52,4.54-3.4-.18-5.77-2.07-8.28-3.46-3.7-2.05-7.38-4.11-11.37-5.56-.93-.34-1.84-.93-2.68.14Z" style="fill: #dadae1; stroke-width: 0px;"/>
  <path d="M526.05,458.61c-4.55-.7-6.38-4.82-9.27-7.54-2.32-2.19-4-5.05-6.18-7.42-11.7-12.74-23.94-24.91-37.3-35.93-1.64-1.35-2.82-3.12-3.54-5.16,7.26,4.35,13.45,10.11,19.75,15.63,13.1,11.47,25.02,24.1,35.38,38.14.52.71,1.14,1.32,1.16,2.26Z" style="fill: #8dafec; stroke-width: 0px;"/>
  <path d="M540.76,492.27c.67-3.6-1.11-6.87-1.42-10.34,1.27-.09,2.51.03,1.89-2.07-.85-2.83-1.2-5.81-2.51-8.5-.61-1.26-.95-2.5-.32-4.47,3.25,3.76,4.96,7.96,6.9,11.95,1.11,2.27,1.83,4.8,1.73,7.52-.17,4.9-1.24,6.03-6.27,5.91Z" style="fill: #dadae1; stroke-width: 0px;"/>
  <path d="M120.03,31.42c17.37,8.79,32.6,20.52,47.06,33.47,7.62,6.82,14.52,14.3,21.72,21.5,2.95,1.2,4.41,3.97,6.26,6.23,6.56,7.99,12.58,16.37,17.29,25.62,2.4,5.39,5.06,10.69,4.56,16.89-.22,2.68-1.25,3.89-4,3.03-10.9-1.9-20.36-7.23-29.42-13.09-29.28-18.96-54.26-42.51-74.36-71.1-5.21-7.41-9.93-15.12-12.03-24.11-.2-.84-.21-1.72-.3-2.58,1.44-1.63,3.33-2.05,5.38-1.88,6.44.54,12.71,1.64,17.85,6.03Z" style="fill: #568ce4; stroke-width: 0px;"/>
  <path d="M211.32,117.95c-6.2-11.45-14.18-21.64-22.51-31.57,2.91.1,1.88-1.8,1.17-2.85-1.81-2.65-3.85-5.16-5.92-7.63-2.07-2.47-4.31-4.79-6.4-7.25-.67-.79-1.51-1.66-.84-3.48,14.4,12.58,27.99,25.58,40.89,39.38-1.6-6.83-5.84-12.21-9.45-17.92-.52-.83-1.4-1.44-1.37-2.55,4.1,2.9,5.87,7.61,8.54,11.55,2.11,3.12,4.09,6.48,5.78,9.87,4.09,8.19,6.61,16.94,7.37,26.1.38,4.6,2.84,8.41,4.3,12.6.41,1.17,1.12,2.23.98,3.54-2.12-2.92-3.63-6.15-4.78-9.54-1.05-3.09-2.66-3.97-5.37-1.68-.95.8-2.05,1.39-3.34,1.49-.47-1.64.89-2.48,1.62-3.55,1.32-1.92,2.17-4.01,1.86-6.33-1.16-8.65-4.86-15.9-11.95-21.23-.3-.22-.69-.27-1.29.03-.18,2.28.9,4.48,1.16,6.79.16,1.44.91,2.94-.46,4.21Z" style="fill: #dcdce2; stroke-width: 0px;"/>
  <path d="M120.03,31.42c-6-2.32-11.83-5.19-18.52-5.04-1.64.04-3.21.2-4.71.89.46-6.76,1.66-9.02,6.07-9.68,4.99-.76,9.89-.09,14.5,2.27,8.97,4.59,17.49,9.89,25.43,16.09,3.99,3.12,7.85,6.41,11.72,9.68.58.49,1.69,1.14.89,2.09-.71.84-1.65.1-2.36-.32-1.82-1.08-3.36-2.59-5.09-3.73-7.97-5.22-16.24-9.93-25.34-12.99-1.05-.35-2.18-1.09-2.6.73Z" style="fill: #dcdce2; stroke-width: 0px;"/>
  <path d="M211.32,117.95c0-3.5-1.07-6.8-1.92-10.14-.22-.87-.51-1.82.31-2.4.9-.63,1.88-.31,2.73.38,6.81,5.56,10.86,12.72,12.41,21.34.82,4.58-1.73,7.78-4.48,10.89-2.49.02-4.94,1.79-7.45.13,2.51.31,2.99-1,3.11-3.26.33-6.22-2.67-11.43-4.71-16.94Z" style="fill: #dcdcdd; stroke-width: 0px;"/>
  <path d="M233.86,147.76c1.73,3.5,1.24,6.99,0,10.49,0-3.5,0-6.99,0-10.49Z" style="fill: #dcdce2; stroke-width: 0px;"/>
  <path d="M160.49,37.65c-2.07-.48-2.61-1.58-3.98-2.99,2.19.45,2.78,1.5,3.98,2.99Z" style="fill: #dcdce2; stroke-width: 0px;"/>
  <path d="M233.85,158.25c.07,1.28-.14,2.42-1.49,2.99.12-1.19.52-2.23,1.49-2.99Z" style="fill: #dcdce2; stroke-width: 0px;"/>
  <path d="M170.38,44.84c.29.26.8.51.91.87.14.45-.35.46-.67.32-.42-.18-.96-.29-.91-.91,0-.09.36-.15.67-.28Z" style="fill: #dcdce2; stroke-width: 0px;"/>
  <path d="M409.89,497.61c4.1,4,7.17,8.84,10.59,13.37,5,6.61,9.99,13.22,12.85,21.24,1.42,3.97.64,7.32-1.51,10.09-1.82,2.34-5,2.16-8.19,2.13-9.9-.11-18.48-4.56-27.51-7.45-3.37-1.08-6.49-3.12-9.64-4.81-6.24-3.35-10.92-.52-15.81,2.75-8.56,5.73-17.06,11.44-27.42,13.75-4.63,1.03-9.09,2.79-13.83,3.77-15.62,3.23-29.27-.98-41.59-10.31-15.18-11.5-29.26-24.24-42.54-37.9-7.27-7.47-15.49-14.07-22.31-21.91-10.73-12.32-22.29-23.8-33.59-35.55-6.03-6.27-11.01-13.55-17.39-19.35-7.2-6.55-13.53-13.88-20.24-20.84-6.98-7.23-13.69-14.77-20.58-22.12-6.02-6.42-11.81-13.05-17.75-19.53-12.01-13.1-23.91-26.27-35.41-39.83-5.45-6.43-11.31-12.64-16.41-19.28-5.64-7.35-11.27-14.78-16.59-22.42-5.31-7.63-9.83-15.81-15.86-22.94-1.84-2.17-2.75-2.52-4.32-1.12-2.64-4.1-3.24-8.84-3.61-13.47-.61-7.63-1.11-15.22.95-22.89,1.35-5.02,2.62-9.64,5.67-14.08,1.66-2.41,2.91-5.52,4.37-8.32.94-1.81,1.92-3.46,3.41-4.82,5.49-5,10.86-10.15,16.54-14.92,3.56-2.99,7.9-2.24,11.67-.4,8.76,4.28,16.98,9.48,23.18,17.18,3.96,4.92,7.73,9.91,6.89,17.07-.49,4.15-2.39,7.25-4.72,10.3-3.82,5-8.28,9.03-15.14,8.87-1.23-.03-2.08.58-2.99,1.29-.87.67-1.95,1.59-2.9,1.55-8.26-.37-12.65,6.14-18.39,10.2-.73.52-1.48,1.69-1.44,2.52.32,6.81-1.94,13.47,1.08,20.49,7.58,17.65,17.48,33.63,29.97,48.21,13.02,15.2,25.9,30.49,39.72,44.99,9.95,10.44,19.35,21.42,29.52,31.69,10.08,10.18,20.07,20.46,29.57,31.17,6.21,6.99,13.13,13.26,19.24,20.35,5.65,6.55,12.48,12.06,18.2,18.56,7.83,8.89,16.53,16.92,24.53,25.65,8.05,8.78,16.54,17.29,25.71,24.85,7.93,6.54,15.48,13.56,23.83,19.58,4.51,3.25,9.12,6.67,14.67,7.84,3.51.74,7.23.56,10.87.64,2.61.06,5.27-.43,7.83-.12,5.84.71,11.29-.83,16.14-3.51,5.2-2.88,10.59-5.37,15.76-8.26,1.82-1.01,3.51-3.03,4.27-4.98,1.1-2.84,3.25-4.78,5.11-6.78,2.43-2.62,6.1-1.27,9.23-.96,7.76.76,14.52,5.05,22,6.6,4.77.99,9.78,1.83,14.69-1.29,6.69-4.24,5.87-9.43,3.99-15.49-1.18-3.78-2.9-7.4-4.37-11.09Z" style="fill: #3469d5; stroke-width: 0px;"/>
  <path d="M80.12,129.91c1.06,1.16,2.11,2.32,3.17,3.48,2.15,6.63,6.56,11.96,10.43,17.54,6.64,9.58,13.93,18.71,20.47,28.36,4.1,6.04,4.73,14.1-2.84,18.95-2.92,1.87-4.76.73-6.73-.56-4.87-3.21-9.71-6.49-14.27-10.1-4.61-3.66-9.98-5.98-14.95-8.98-8.72-5.27-17.16-11.03-26.25-15.68-6.64-3.39-10.04-4.43-17.16,3.11-3.66,3.87-8.38,6.62-11.36,11.1-4.23,6.38-6.97,13.26-7.87,21-.91,7.84-.58,15.66-.59,23.49,0,4.58,1.05,9.13.66,13.75-1.85-4.55-1.6-9.46-2.06-14.18-1.62-16.73-1.94-33.55,3.21-49.78,3.03-9.58,7.77-18.57,12.84-27.27,2.49-4.26,6-4.61,9.99-1.06,4.3,3.82,9,6.96,13.85,9.99,6.43,4.02,13.41,5.25,20.73,4.33,4.28-.53,6.47-4.18,8.91-7.35,3.06-3.98,2.33-8.05,1.01-12.35-.77-2.5-2.44-4.94-1.2-7.78Z" style="fill: #4483e3; stroke-width: 0px;"/>
  <path d="M425.25,84.35c4.33,2.62,8.52,4.5,11.92,7.35,9.15,7.65,18.39,15.23,26.53,24.05,12.12,13.13,22.35,27.61,31.43,42.94,7.82,13.2,14.29,27.11,19.47,41.5,5.26,14.58,9.75,29.43,12.26,44.84,1.73,10.64,3.34,21.3,4,32.03.22,3.48-.09,7.17-.52,10.74-.11.92-.46,2.08-1.73,2.13-1.09.04-1.29-1.04-1.7-1.76-1.46-2.58-1.36-5.47-1.82-8.29-3.9-24.02-8.56-47.87-16.99-70.82-7.57-20.61-16.99-40.29-28.68-58.9-9.55-15.2-20.24-29.59-32.58-42.49-6.39-6.68-12.14-14.2-19.82-19.65-.85-.6-1.91-1.26-1.78-3.65Z" style="fill: #f5d08e; stroke-width: 0px;"/>
  <path d="M306.51,466.89c-7.86-.12-15.89,1.17-23.07-3.65-4.95-3.32-10.1-6.36-15.21-9.44-15.79-9.51-30.23-20.9-44.34-32.66-10.22-8.51-20.01-17.55-28.83-27.6-3.8-4.34-8.56-7.81-12.19-12.41-4.36-5.53-8.84-10.99-13.55-16.23-5.17-5.75-9.15-12.37-13.99-18.37-3.48-4.31-5.63-9.65-8.7-14.33-10.3-15.69-15.94-33.39-21.85-50.92-2.32-6.87-4.22-14.06-4-21.49.07-2.46.3-4.99.95-7.36,2-7.27,9.14-7.27,13.71-4.21,5.96,3.99,8.03,10.4,9.85,16.65,4.58,15.7,11.02,30.56,17.87,45.38,5.73,12.38,12.38,24.08,19.82,35.44,11.03,16.85,24.11,31.97,38.77,45.69,12.62,11.81,26.63,21.92,40.6,32.07,9.94,7.22,19.7,14.7,29.77,21.73,4.25,2.97,8.75,5.71,13.68,7.57,2.41.91,4.32,2.42,5.27,4.94,1.48,3.92,1.07,4.75-4.54,9.17,0,0-.01.01-.01.01Z" style="fill: #749ce6; stroke-width: 0px;"/>
  <path d="M377.34,154.44c6.13,2.67,11.36,6.26,16.11,10.33,26.85,22.96,42.96,52.43,51.63,86.3,2.71,10.59,4.65,21.32,4.52,32.32-.01.87.12,1.79-.1,2.61-.37,1.42-.67,3.19-2.58,3.19-1.7,0-2.17-1.64-2.43-2.92-1.36-6.68-2.26-13.46-3.93-20.05-4.55-17.86-9.93-35.47-18.71-51.8-7.61-14.15-15.97-27.78-27.09-39.59-5.53-5.88-10.65-12.16-16.43-17.83-.51-.5-1.21-.94-.98-2.55Z" style="fill: #f4cd89; stroke-width: 0px;"/>
  <path d="M328.93,224.92c5.29.35,8.74,3.2,12,5.79,13.45,10.68,21.23,25.01,25.5,41.4.99,3.81,2.5,7.57,2.27,11.64-.11,2.04-.2,4.23-2.67,4.73-2.33.47-2.86-1.69-3.45-3.23-1.98-5.22-3.86-10.47-5.64-15.76-4.45-13.26-11.59-24.9-20.63-35.52-2.35-2.77-5.33-5.14-7.39-9.04Z" style="fill: #f3ca86; stroke-width: 0px;"/>
  <path d="M131.49,255.68c2.01.26,3.58,1.62,4.83,3.42,3.94,5.7,6.06,12.25,8.58,18.6,7.12,17.97,15.17,35.47,24.86,52.22,6.99,12.07,14.4,23.86,22.89,34.91,4.91,6.39,10.48,12.27,15.65,18.46,7.56,9.07,16.85,16.42,24.78,25.15,2.36,2.6,5.08,5.11,7.93,7.34,1.1.86,2.47,2.1,1.38,3.31-1,1.11-1.82-.69-2.56-1.34-2.63-2.32-5.88-3.66-8.78-5.53-15.73-10.19-28.69-23.52-41.15-37.17-14.66-16.05-27.47-33.62-38.21-52.68-4.94-8.77-9.89-17.55-14.42-26.52-4.7-9.32-8.54-19.1-10.93-29.31-.71-3.01.37-6.15,1.89-8.89.58-1.04,1.55-1.99,3.27-1.97Z" style="fill: #8dadeb; stroke-width: 0px;"/>
</svg>