<?xml version="1.0" encoding="UTF-8"?>
<svg id="Layer_1" data-name="Layer 1" xmlns="http://www.w3.org/2000/svg" viewBox="0 0 598.86 598.36">
  <path d="M14.17,508.37c-6.46-13.07-9.96-26.98-11.89-41.35-1.29-4.34.43-8.6.36-12.93-.29-18.2-.4-36.42.19-54.61,1.37-41.88-.3-83.77.8-125.63.85-32.04.16-64.06.6-96.08.02-1.12,0-2.25.18-3.36.97-3.03.53-6.15.55-9.24.06-7.07.01-14.14.02-21.21.02-1.34,0-2.68.25-4,.58-6.52,1.48-13.01,2.88-19.4,2.07-9.42,4.47-18.77,8.79-27.48,3.85-5.38,6.36-11.55,10.13-17,5.15-7.47,10.85-13.99,19.43-18,8.12-3.79,14.62-10.36,22.25-15.09,1.44-.89,2.64-2.42,4.67-1.68.72,1.44-.46,2.08-1.29,2.68-3.75,2.71-7.02,5.92-9.91,9.3,9.21-8.48,20.12-14.69,31.33-20.42,1.43-.73,2.93-1.45,4.56-1.57.97-.07,2.22-.07,1.47,1.61-.97,1.44-2.97,1.86-3.68,3.88,1.55.62,2.95,0,4.31-.33,9.47-2.27,18.96-4.39,28.68-5.39,2.36-.24,4.72-.44,7.09-.44,13.73,0,27.47-.35,41.19.07,38.8,1.19,77.61.37,116.42.73,11.59.11,23.18-.15,34.77-.02,41.28.46,82.55-.13,123.82-.13,14.99,0,29.59,1.83,44.05,5.53,3.07.78,6.13,1.94,9.86,1.52-1.2-2.31-3.16-3.12-4.9-4.17-2.01-1.21-4.43-1.77-5.94-3.77.26-2.26,1.83-1.41,2.93-1.09,2.6.75,5,2.04,7.51,3.05,25.13,11.5,43.65,29.97,56.85,54.04,2.39,4.36,5,8.63,6.78,13.29.48,1.27,2.02,3.2-.78,4.02-1.42-1.01-1.86-2.61-2.56-4.06-5.57-11.69-12.31-22.57-22-31.38-1.64-1.49-3.14-3.24-5.82-3.41-.23,2.4,1.26,4.05,2.32,5.75,6.54,10.52,12.21,21.47,16.52,33.11,5.2,14.07,7.87,28.59,8.3,43.56.42,14.72.4,29.45.96,44.15.44,11.73.12,23.46.56,35.17.86,22.82,1.08,45.64,1.67,68.46.23,8.97.21,17.96.58,26.93.84,20.32.99,40.65,1.6,60.96.45,14.95.76,29.92,1.51,44.85.39,7.81.04,15.69,1.6,23.49.26-5,1.26-9.92,1.26-14.92.02-8.36-.1-16.73.1-25.09.03-1.38-1.04-3.96,2.12-3.88,1,1.58.82,3.36.83,5.1.02,8.99.21,17.98-.06,26.96-.18,5.84-1.13,11.65-.81,17.52-.25,9.56-2.7,18.69-5.42,27.79-1.94,6.46-5.15,12.44-6.84,18.98-.95,3.68-3.18,6.79-5.11,9.97-4.93,8.08-10.02,15.95-16.88,22.74-5.29,5.23-9.96,11.17-15.48,16.22-6.19,5.66-13.51,9.72-20.68,13.97-9.05,5.36-18.39,10.01-28.83,12.17-8.45,1.75-16.97,3.02-25.59,3.07-24.09.12-48.19-.02-72.29.06-16.83.05-33.64-.97-50.47-.8-2.1.02-5.13.27-5.65-1.85-.64-2.65,2.93-2.33,4.45-3.6,1.11-.94,2.58-.9,3.95-.52,2.23.61,4.29.88,6.34-.8,1.51-1.24,2.63-.32,3.55,1.24,1.42,2.4,5.69,2.4,6.91-.14,1.12-2.33,2.51-2.48,4.79-2.21,4.87.56,9.58,2.11,14.65,1.55,3.49-.39,6.94-.35,10.1-2.17,1.32-.76,2.9-1.18,4.35-.81,5.12,1.31,10.41.53,15.56,1.47,3.25.59,6.4-.87,9.65-.88,12.2-.06,24.4-.85,36.57-1.49,11.24-.58,22.7-1.97,33.36-6,4.74-1.79,9.43-4.38,12.9-8.67,2.51-3.11,6.56-4.07,10.33-4.84,5.06-1.03,7.6-4.91,10.34-8.49,1.56-2.04,2.18-4.75,4.05-6.68.67-.69.99-1.69.17-2.32-3.37-2.59-2.7-7.19-5.53-10.31.23,1.58.42,3.31-1.54,3.61-2.17.33-4.65,1.08-6.23-1.2-2.68-3.87-6.62-3.77-10.35-2.99-2.21.46-3.85-.73-5.81-.63-2.45.13-2.44-2.54-3.65-3.45-3.68-2.76-2.21-8.29-6.52-10.72-1.62-.91-1.36-3.46,1.23-4.25,2.04-.62,3.99-2.3,6.26-.3,1.18,1.03,2.07.38,2.35-1.06.14-.73.08-1.51.38-2.2.37-.85.96-1.52,1.98-1.4,1.14.14,1.24,1.08,1.28,1.97.04.87-.2,1.74-.07,2.61.13.89.35,1.84,1.43,1.92,1.24.09,1.99-.89,1.88-1.88-.38-3.38-1.86-6.39-3.65-9.24-.35-.56-1.13-.5-1.73-.26-2.6,1.05-4.05-.13-4.87-2.49-.43-1.23-1.23-2.15-2.25-2.92-.5-.38-1.26-.77-1.34-1.27-.84-5.68-6.68-6.37-9.74-9.83-2.8-3.17-4.81-6.77-6.67-10.49-.54-1.08-.83-2.09-2.29-1.92-3.16.36-4.38-1.78-5.4-4.19-1.05-2.48-1.61-5.22-3.63-7.25-1.63.58-1.06,2.22-1.81,3.15-.83,1.03-1.73,1.88-3.15,1.5-1.29-.35-1.15-1.45-1.08-2.46.07-.89.11-2.22-.71-2.33-4.21-.6-4.49-5.13-7.36-7.05-1.7-1.14-2.53-2.85-1.34-4.86.94-1.58.28-2.45-1-3.4-2.31-1.71-4.67-3.34-6.98-5.05-2.21-1.64-2.81-3.4-.87-5.64.57-.66,1.07-1.4,1.33-2.24.61-2.01.4-3.51-2.24-3.47-1.77.03-3.49-.21-5-1.25-.29-.24-.53-.54-.72-.87-.87-2.95-2.13-5.53-5.2-6.91-1.93-.87-1.76-2.74-1.7-4.56.06-2.08.72-5.01-3.24-3.25-.68.3-1.44-.21-2.16-.43-3.18-.99-5.32.2-6.05,3.4-.29,1.29.24,3.09-1.33,3.63-1.85.64-3.67,1.76-5.64,1.66-2.3-.12-5.55-5.52-4.73-8.01,1.01-3.04,1.57-5.92.68-9.12-.46-1.65.42-3.28,2.13-3.96,4.33-1.7,6.35-6.15,10.28-8.43,1.74-1.01,2.07-3.62,1.87-5.82-.15-1.65.24-3.05,1.82-3.75,4.01-1.77,6.16-5.32,8.51-8.68.79-1.13,1.44-2.5,2.6-3.15,4.72-2.67,6.94-7.71,10.86-11.13,1.96-1.71,3.6-3.9,4.62-6.31,2.05-4.87,4.94-9.27,7.75-13.64,4.88-7.56,4.89-15.78,4.52-24.16-.11-2.42-1.08-4.62-3.61-5.66-1.36-2.66-.64-5.62-1.3-8.42-3.27-13.8-12.11-23.33-23.73-30.4-28.76-17.49-58.09-34-87.24-50.83-16.3-9.41-32.58-18.86-48.98-28.1-9.23-5.2-18.42-10.42-29.24-11.91-7.79-1.07-15.14-.36-22.22,3.06-1.12.54-2.23,1.13-3.52,1.17-8.96-1.69-15.37,2.7-21.01,8.85-2.36,2.57-4.5,5.35-6.85,7.93-3.98,4.37-6.08,9.68-7.59,15.22-1.55,5.68-3.39,11.21-6.05,16.46-.94,1.86-.9,3.46-.35,5.61.87,3.36,1.16,6.93-.59,10.49-2.26,4.62-2.57,9.85-3.1,14.88-.27,2.6-1.04,3.66-3.51,3.63-.63,0-1.33-.08-1.84.23-3.57,2.16-6.19.26-8.59-2.07-2-1.95-3.59-1.55-4.8.63-1.43,2.59-3.68,2.71-6.13,2.4-2.45-.31-3.84-1.98-4.2-4.2-.52-3.21-1.61-5.73-5.07-6.59-.6-.15-1.08-.69-1.35-1.25-1.97-4.06-5.55-4.12-9.29-3.78-1.12.1-2.23.25-3.35.38-1.71.2-3.58.84-4.71-1.13-1.11-1.95.96-2.77,2.06-4.31-3.36-.77-6.07.48-8.44,1.63-2.94,1.43-4.17.82-5.4-1.99-1.23-2.8-4.12-4.68-4.27-7.91-1.18.02-1.62.48-1.94,1.02-1.6,2.75-3.71,3.07-6.27,1.37-.52-.35-1.06-.68-1.67-.84-.77-.21-1.52-.16-2.02.54-.63.89.09,1.41.69,1.81,2,1.33,1.14,2.36-.27,3.39-1.45,1.06-2.91,2.32-4.36.03-.47-.73-.85-1.5-1.48-2.14-3.27-3.25-3.38-4.78-.61-8.71-3.47-.5-6.92-.88-9.99-2.64-2.11-1.22-4.12-.05-6.17.32-1.84.33-3.82,1.01-4.11-2.04-.18-1.93-1.48-1.11-2.51-.76-4.12,1.39-5.46.69-6.09-3.56-.3-1.99-.95-3.18-3.05-3.6-2.41-.49-3.74-1.93-3.07-4.6.21-.86.49-2.04-.32-2.44-3.1-1.52-3.76-4.7-5.44-7.23-1.99-2.98-5.93-3.45-8.74-5.55-1.37-1.02-2.69,1.37-4.39,1.46-2.76.13-1.06,2.11-1.22,3.35-.51,3.99-.14,7.91-1.72,12-1.74,4.49-3.11,9.46-3.17,14.51-.01,1.13.15,2.44-.59,3.26-1.84,2.04-1.33,4.62-2.02,6.84-1.56,4.96-2.33,10.17-4.48,14.94-.41.91-1.1,1.67-1.8,2.38-.62.64-1.32,1.31-2.27.87-.89-.42-1.11-1.37-.98-2.26,1.39-9.17-.94-17.92-3.04-26.7-.67-9.47-.25-18.96-.27-28.44-.04-15.85-.2-31.7.05-47.55.23-14.12,1.87-28.09,6.37-41.57,5.11-15.28,12.88-29.12,22.82-41.77.54-.69.95-1.45,1.53-2.11-7.19,8.94-13.37,18.51-18.25,28.91-.48,1.03-1.06,1.99-2.13,2.53-.78.37-1.69.48-2.19,1.33-4.41,7.5-9.62,14.5-12,23.14-3.11,11.29-4.58,22.75-4.48,34.38.17,20.46-.46,40.92-1.01,61.35-.85,31.19-.05,62.37-.57,93.55-.5,29.92-1.22,59.84-.61,89.76.43,20.82.91,41.63.52,62.44-.24,12.99,1.3,25.61,4.94,38.02.63,2.71,2.91,5.29.65,8.22Z" style="fill: #a71918; stroke-width: 0px;"/>
  <path d="M421.05,419.81c1.71.73,3.46,1.27,5.36,1.07,3.2-.32,4.29.93,3.52,4.09-.17.71-.41,1.61-.93,2.01-4.07,3.1-1.6,5.1,1.25,6.68,2.48,1.37,4.25,3.69,7.05,4.65,1.39.48,1.42,2.1.28,3.08-3.31,2.84-.44,4.15,1.46,5.17,1.42.75,3.46.39,1.77,2.93-.61.92.07,1.53,1.14,1.78,2.85.69,6.38.95,4.15,5.52-.25.51.01.97.63,1.09.85.16,1.4-.39,1.93-.92.67-.67.99-1.45.6-2.37-.56-1.35-.12-2.2,1.29-2.46,1.25-.23,2.15.24,2.64,1.51.98,2.56,1.97,5.11,3.05,7.62.92,2.15,1.87,4.11,4.95,2.63,2.39-1.14,2.41,1.21,2.46,2.46.08,1.95.51,3.37,2.45,4.15.51.2,1.13.77,1.23,1.26,1.14,5.63,5.12,8.14,10.22,9.42,1.02.25,2.49.66,1.62,1.71-2.01,2.42.18,3.51,1.31,4.48,1.66,1.42,3.39,2.37,3.57,5,.11,1.51,1.88,2.34,3.06.85,1.57-1.97,2.58-1.08,3.32.38,1.44,2.86,2.75,5.81,3.88,8.8.57,1.51-.03,2.97-1.46,3.9-.84.55-1.72,1.11-2.75.42-1.41-.95-1.72-2.37-1.61-3.93.03-.37.16-.73.25-1.09.19-.77.98-1.87-.4-2.08-1.03-.16-1.54.94-1.22,1.83.65,1.81.26,3.33-1.32,4.18-1.61.87-2.23-.93-3.3-1.65-2.32-1.56-3.88,1.87-6.17,1.22-.1,1.68.04,3.22,2.05,3.77,1.45.4,2.6,1.36,2.57,2.85-.04,2.57-.37,5.04,3.15,5.63.6.1.26,1.08.07,1.67-.3.96.3,2.37.78,2.13,2.5-1.2,4.54,1.94,7.16.36,1.96-1.18,4.32.72,6.29.54,2.71-.25,3.83.46,4.59,2.88.41,1.31,5.53,2.12,6.54,1.19.96-.88.1-1.55-.35-2.25-.74-1.18-.58-2.3.73-2.75,1.78-.61,1.27,1.15,1.84,1.91,2.37,3.15,1.25,8.12,5.56,10.3,1.04.53,1.55,2.21-.11,3.02-1.77.86-2.62,2.35-3.02,4.04-1.11,4.65-5.64,6.67-7.87,10.5-.91,1.57-3.68.73-5.58,1.49-4.08,1.61-7.74,3.02-11.02,6.62-3.12,3.43-7.88,6.12-12.72,7.38-7.42,1.93-15.12,2.73-22.61,4.2-10.94,2.14-21.94,1.07-32.88,2.28-7.33.81-14.91,1.49-22.25,1.36-4.61-.08-9.73.56-14.4-1.33-1.88-.76-4.02-.75-5.78.43-3.32,2.23-7.01,2.03-10.76,2.31-5.43.41-10.55-.7-15.72-1.96-1.32-.32-2.75.06-2.31,1.82.55,2.2-.64,2.21-2.17,2.32-1.47.11-2.92.58-4.4.67-1.4.08-2.97-.02-2.46-2.18.2-.84.12-1.5-.67-1.88-.86-.42-1.55.14-1.89.76-1.2,2.15-2.89,2.14-4.75,1.18-3.94-2.02-6.48,1.5-10.46,2.17,1.85,1.03,3.05,1.5,4.42,1.5.37,0,.75,0,1.12,0,41.81.97,83.63.99,125.45.6,14.57-.14,28.95-2.8,42.14-9.6,9.15-4.72,18.08-9.94,26.37-15.97,6.39-4.65,11.92-10.57,16.74-16.94,2.7-3.56,6.58-5.87,9.09-9.71,6.17-9.43,13.03-18.29,16.44-29.42,1.94-6.32,4.95-12.44,6.74-18.86,2.03-7.25,4.11-14.56,4.1-22.22.99-4.66-.37-9.6,1.58-14.57,2.25,2.07,2.08,4.59,2,6.74-.39,10.7-.66,21.44-3.29,31.91-1.52,6.06-3.39,11.96-6.48,17.47-2.31,4.12-3.98,8.61-5.72,12.95-2.96,7.38-9.33,12.14-12.44,18.28,1.68-1.4,2.93-4.4,5.93-5.56,2.07,1.69.27,3.22-.42,4.51-3,5.59-7.3,10.36-10.32,15.95-.58,1.07-1.56,1.96-1.57,3.51,1.67.85,2.98-.65,4.46-.79.74-.07,1.54-.37,2.09.3.66.8.22,1.69-.15,2.44-1.36,2.69-3.3,4.95-5.35,7.13-7.39,7.83-16.01,14.08-25.08,19.78-.53.33-1.06.63-1.43,1.16-.11.23-.29.33-.54.29-1.4.51-2.67,1.26-3.93,2.05-2.15.21-3.31,2.78-5.71,2.4-11.73,3.54-23.67,6.06-35.85,7.44-2.37.27-4.72.39-7.1.39-16.23,0-32.46,0-48.68,0-60.66,0-121.32.25-181.98-.17-15.96-.11-31.94-.17-47.89-.71-6.73-.23-13.45-.61-20.19-.65-.75,0-1.5-.05-2.23-.25-.84-.24-1.79-.45-1.9-1.51-.13-1.23.86-1.7,1.77-2.12,1.05-.47,2.19-.41,3.32-.4,26.32.06,52.63-.12,78.94-.42,12.59-.14,25.21-.91,37.78-.79,17.44.16,34.87-1.64,47.02-.33-7.2-.4-19.71-.44-32.2-.03-10.36.35-20.69-1.11-31.01-.44-15.35,1-30.66-.67-45.99-.38-13.72.25-27.43-.38-41.14,0-13.49.37-26.98-.16-40.39-1.01-17.93-1.14-35.15-5.96-51.37-13.93-1.01-.5-1.98-1.07-2.72-1.94-1.81-3.12-4.54-5.22-7.76-6.69-3.09-1.41-5.78-3.27-8.2-5.73-3.57-3.63-7.67-6.75-11.62-9.94-6.7-5.41-11.97-11.89-16.9-18.82-5.86-8.24-11.09-16.83-15.43-25.96-1.31-2.76-1.52-6.13-4.43-8.01-3.93-9.44-5.57-19.39-6.65-29.47-1.01-9.45-.81-18.94-.77-28.42,0-1.7-.33-3.55,1.22-4.89.71-3.49.16-7.01.3-10.51.1-2.61.01-5.22,0-7.83.02-17.58,0-35.16,0-52.74,0-1.99-.11-3.99.22-5.97.72-2.05.52-4.18.52-6.29.03-38.71-.03-77.42.03-116.13,0-1.02.19-1.99.95-2.75,2.09,4.02,2.68,8.42,3.02,12.82.25,3.22.2,6.45,1.69,9.4.5.99.43,1.67-.43,2.24-1.44.95-1.43,2.16-.74,3.78,2.93-1.98,4.47-4.79,4.66-8.02.15-2.62.97-4.84,2.16-7.04.66-1.23,1.34-2.55.85-3.91-.82-2.26-.9-4.09,1.59-5.35.42-.21.79-1.12.7-1.62-.9-5.27,2.49-9.84,2.36-14.98-.01-.59.18-1.27.5-1.77,2.93-4.57,2.48-9.4,1.24-14.32-.09-.35-.16-.75-.06-1.08.2-.71,8.12-2.61,8.66-2.06,1.4,1.44,2.96,2.37,4.92,3.09,2.54.93,4.89,2.7,4.9,5.97,0,1.82,1.38,2.24,2.6,2.77,2.16.93,3.27,2.08,1.88,4.56-1.3,2.32.43,3.45,2.28,3.44,3.03-.01,3.83,1.26,3.81,4.08-.03,4.07,1.37,4.79,4.92,2.91,1.11-.59,2.17-1.17,3.5-.39,1.95,1.15-.68,2.44.25,3.63.51.4,1.09.23,1.69.02,3.53-1.26,6.79-1.88,10.45.44,2.5,1.59,5.92,1.6,9.09,1.41.24,1.65-1.15,1.79-1.89,2.48-1.61,1.48-1.66,4.88.08,5.83,1.49.81,2.67,1.42,2.76,3.42.05,1.14,1.29,1.19,1.89.25.63-.99,1.72-1.25,2.46-1.91-.67-1.51-3.33-.44-3.27-2.54.04-1.54,1.39-2.23,2.71-2.79,1.51-.63,2.27.51,3.23,1.26,2.07,1.63,3.99,2.23,5.23-.94.54-1.37,1.51-2.6,3.01-2.29,1.37.28.98,1.82,1.01,2.9.03.92.39,1.64.94,2.37,1.39,1.85,3.48,3.25,3.7,5.89.08.94,1.32,1.28,1.66.7,1.8-3.08,5.67-1.01,7.91-3.41,1-1.07,3.31.36,4.15,1.45.96,1.24-.82,1.75-1.77,2.15-.85.36-1.78.61-1.39,1.76.46,1.33,1.47,1.29,2.74,1.08,3.5-.58,7-1.52,10.6-.45,1.73.51,3.33.95,3.81,3.04.29,1.28,1.07,2.03,2.55,2.32,2.77.53,4.01,2.21,4.19,5.26.25,4.26,2.1,5.48,6.11,5.14,1.38-.12,2.18-.55,2.77-1.96,1.4-3.39,3.64-3.36,6.32-.95,1.8,1.61,3.54,4,7.24,2.05,2.52-1.33,5.83-.01,5.09-5.19-.37-2.62,1.25-5.9,1.67-8.98.25-1.85.25-3.97,2.13-5.37.87-.65.66-8.45-.24-9.35-1.46-1.47-1-2.54-.16-4.23,2.76-5.53,5.11-11.21,6.52-17.32,1.51-6.54,4.47-12.53,9.13-17.48,3.82-4.06,7.22-8.49,11.74-11.95,4.85-3.71,9.94-4.72,15.7-3.38-.59,2.1-2.58,2.96-3.98,4.28-4.14,3.91-7.39,8.37-9.49,13.67-.5,1.26-.98,2.58-2.27,3.32-3.99,3.27-6.61,7.45-7.74,12.43-5.17,22.79-5.16,45.97-5.66,69.17-.29,13.44-.04,26.92-1.13,40.36-.66,8.07-.03,16.22-.18,24.33-.3,15.44-1.2,30.88-.67,46.32.59,17.03,5.92,32.26,19.79,43.08,7.97,6.22,16.91,11.31,27.13,12.85,8.76,1.33,17.12-1.14,24.87-5.15,10.83-5.61,21.44-11.64,31.85-17.99,6.27-3.83,12.18-8.35,18.69-11.69,9.34-4.8,17.84-10.91,26.93-16.09,10.71-6.1,21.78-11.61,31.74-19.05,7.09-5.29,15.44-8.65,22.75-13.67,9.33-6.41,19.73-11.42,27.06-20.43,6.26-7.7,12.13-15.63,12.17-26.23,1.84-4.4,2.14-9.34,4.74-13.47,1.61-1,2.28-.37,3.01,1.26,2.31,5.17,1.29,10.49,1.1,15.8-.29,8.03-5.01,14.08-9.02,20.46-2.17,3.46-2.93,7.77-6.11,10.59-4.18,3.72-6.38,9.2-11.43,12.21-3.46,2.06-4.96,6.1-7.34,9.22-1.89,2.48-5.67,2.83-6.43,5.1-.77,2.32-.49,5.22-1.42,7.77-.39,1.06-1.33,1.41-2.19,1.9-2.17,1.22-4.33,2.39-5.32,4.96-.54,1.39-1.99,1.82-3.35,2.1-2.5.51-3.07,2.37-2.17,4.2,1.35,2.74.46,5.01-.52,7.44-.92,2.3,1.18,7.3,3.36,8.22,1.89.8,1.97-2.43,4.09-1.64,2.41.9,2.02-.67,1.9-2.43-.25-3.83,4.14-6.58,7.45-4.83,1.23.65,2.36.99,3.34-.21,2.58-3.16,2.36-.76,2.53,1.2.14,1.57.87,3.02.13,4.72-.56,1.27.18,2.33,1.63,2.85,3.49,1.25,4.93,3.92,4.94,7.5-.75.65-.84,1.47-.61,2.38.18-.8-.22-1.75.6-2.39Z" style="fill: #970d0b; stroke-width: 0px;"/>
  <path d="M18.01,428.81c-.67.52-.72,1.26-.73,2.02-.13,17.41-.23,34.81,4.5,51.79.86,3.08,2,6.07,3.01,9.11,1.79,2.05,2.11,4.75,3.15,7.14,8.31,19.03,20.04,35.48,35.78,49.18,7.48,6.51,15.84,11.61,23.97,17.11,4.26,3.87,9.76,5.32,14.92,7.28,16.4,6.22,33.38,8.89,50.99,9.41,19.46.57,38.9.02,58.34.61,7.27.22,14.53-.38,21.77-.03,9.58.46,19.19,1.26,28.74.57,8.91-.64,17.74.19,26.61.14,12.99-.08,25.97.05,38.96-.06,3.94-.04,7.81,1.71,11.83.25.83-.3,2.15.28,3.42,1.88-4.71.34-9.03.69-13.16.54-9.7-.35-19.36-.7-29.06.2-4.21.39-8.48.07-12.72.14-10.4.18-20.82-.52-31.2.59-2.3.24-4.65.14-6.97.19-14.71.3-29.42-.22-44.14.27-5,.17-10.15-.02-15.22-.19-6.64-.22-13.28.97-19.94.53-2.15-.14-4.54-1.69-6.33.84.36.9,1.06.8,1.63.78,8.98-.4,17.91.59,26.87.77,47.16.97,94.32.73,141.49.75,18.83,0,37.66,0,56.49,0,20.54,0,41.09-.35,61.63.11,17.44.39,34.45-1.74,51.23-6.19,1.97-.52,3.9-.75,5.9-.59-7.81,4.32-16.15,7.18-24.88,8.97-11.82,1.96-23.7,2.65-35.7,2.64-77.13-.12-154.25.18-231.38-.22-21.82-.11-43.66-.11-65.48-.7-35.69-.96-67.22-13.45-94.75-36.04-11.13-9.13-20.96-19.59-29.53-31.18-3.27-4.42-7.04-8.4-10.72-12.45-1.51-1.97-2.53-4.18-3.16-6.57.65-2.77-.93-5.13-1.41-7.69-.63-1.02-.29-2.19-.51-3.29-.27-1.29-.68-2.98,1-3.57,1.55-.54,2.45.89,3.33,1.91,1.45,1.69,2.43,3.7,3.55,5.63-4.46-15.55-6.47-31.36-6.29-47.53.15-13.84-.34-27.71-.1-41.53.37-20.84-1.63-41.65-.49-62.46.98-17.69.25-35.41,1.45-53.08.18-2.62-.26-5.25.12-7.85.22-1.49.29-3.64,2.89-2.15.74,1.26.62,2.65.62,4.01.02,19.16.23,38.32-.07,57.48-.16,10.57-.09,21.14-.23,31.71,0,13.74,0,27.48,0,41.22.07,1.74-.17,3.49.22,5.22.14.82.37,1.66-.23,2.41Z" style="fill: #7c0d0c; stroke-width: 0px;"/>
  <path d="M73.47,41.53c-5.78,2.64-10.78,6.53-15.81,10.28-4.78,3.56-9.63,6.89-15.08,9.34-5.29,2.39-8.51,7.09-11.95,11.43-5.02,6.34-8.4,13.73-12.62,20.58-1.23-1.5-.25-2.85.37-4.15,8.11-17.14,18.48-32.71,31.84-46.26,3.65-3.71,7.19-7.56,10.61-11.51C85.32,12.81,112.75,1.65,143.47,1.19c103.56-1.55,207.13-1.63,310.68,0,41.77.65,76.61,18.3,104.96,48.68,15.55,16.66,26.4,36.16,32.96,58.01.25.83.35,1.69.53,2.54-2.32.13-2.68-1.85-3.46-3.3-1.03-1.91-1.23-4.18-2.33-5.73,2.79,7.06,3.88,14.82,5.23,22.52,2.53,14.44,1.4,29,1.57,43.52.02,1.37.34,3.08-1.53,3.78-1.68-1.27-1.25-3.13-1.26-4.79-.06-8.04-.02-16.08-.03-24.11,0-1.36.1-2.72-.3-4.05-1.69-12.33-3.97-24.5-8.56-36.17-3.29-8.36-7.33-16.3-12.04-23.93-1.97-4.08-4.72-7.68-7.59-11.08-15.66-18.6-34.08-34.06-55.25-45.96-13.56-7.63-28.39-12.06-43.94-13.88-8.55-1-17.17-1.2-25.72-1.27-37.95-.29-75.9-.12-113.86-.12-53.43,0-106.86-.21-160.29.14-14.51.09-29.16.14-43.37,4.28-14.6,4.25-28.48,9.95-40.77,19.08-1.17.87-2.52,1.65-3.08,3.46,2.93.16,5.26-1.4,7.8-2.13,4.26-1.24,8.13-4.01,12.88-3.26,1.54.84.73,1.56-.19,2.13-1.27.79-2.67,1.36-4.01,2.02-5.38,2.64-10.77,5.26-15.64,8.81-.97.71-1.97,1.62-3.38,1.18Z" style="fill: #d31b18; stroke-width: 0px;"/>
  <path d="M592.58,171.12c0-11.33.6-22.71-.15-33.99-.85-12.82-2.81-25.58-7.25-37.79-.23-.64-.97-1.24-.08-2.25,1.88,2.5,3.35,5.12,4.38,8,.7,1.97,1.14,4.1,3.12,5.33,2.23,9.35,5.03,18.58,5.29,28.31,1.32,49.41.87,98.83.92,148.24.05,55.41.26,110.82-.65,166.22-.2,12.45-2.22,24.58-5.82,36.45-1.37,4.51-3.26,8.86-4.92,13.28-5.12,11.13-12.7,20.4-21.68,28.6-1.05.96-2.22,2.55-3.8,1.37-1.46-1.1-.6-2.7.02-4.09,5.67-12.61,11.16-25.29,14.52-38.75,1.8-7.23,3.93-14.41,4.69-21.87.23-2.31.33-2.3,2.25-2.12,1.24,2.9-.16,6.16,1.37,9.82,2.75-6.24,3.98-12.13,4.4-18.21.95-13.79.49-27.63,1-41.43.45-12.17.25-24.34.93-36.5.62-1.82.4-3.7.4-5.55.02-24.11,0-48.22,0-72.34,0-1.67.02-3.34,0-5.01.02-4.29.01-8.58,0-12.88.02-35.7-.01-71.41.03-107.11,0-1.94-.5-4.04,1.03-5.73Z" style="fill: #bd1412; stroke-width: 0px;"/>
  <path d="M17.33,514.95c6.26,3.01,9.31,9.08,13.36,14.16,14.34,17.94,30.76,33.41,50.98,44.7,17.71,9.89,36.57,16.16,56.58,18.81,5.1.68,10.38.99,15.6.98,15.1,0,30.2-.24,45.3.04,87.44,1.62,174.89.24,262.33.7,7.83.04,15.53-1.95,23.39-1.44-8.54,2.83-17.35,4.21-26.3,4.45-47.28,1.27-94.57.81-141.85.87-55.52.07-111.05.48-166.56-.62-55.93-1.1-98.3-26.44-128.07-73.42-1.84-2.91-3.85-5.82-4.77-9.24Z" style="fill: #691616; stroke-width: 0px;"/>
  <path d="M.76,415.33c-1.11-1.15-.67-2.6-.67-3.92-.02-53.41-.27-106.82.13-160.23.15-19.61.95-39.23,1.53-58.84.43-14.66.27-29.3.5-43.95.31-20.04,4.61-39.14,12.76-57.4,5.12-11.46,10.68-22.71,18.04-32.93,2.16-3,4.25-6.15,7.39-8.32,1.35-.24,1.77.49,1.76,1.68-15.8,19.48-27.01,41.27-32.96,65.69-1.35,5.56-2,11.25-3.16,16.85-1.3,18.81-.54,37.66-1.24,56.47-.48,12.98-.28,25.95-.27,38.93.02,31.58-.33,63.15-.54,94.72-.15,21.96.1,43.93-.3,65.89-.16,8.85-.29,17.71-.35,26.56,0,.98.56,2.67-1.13,2.62-1.6-.05-1.03-1.72-1.04-2.71-.06-4.11-.05-8.22,0-12.71,0-.11-.79.37-.3.28.2-.04.32.03.3.2-.35,3.71.49,7.46-.45,11.14Z" style="fill: #e3d0d0; stroke-width: 0px;"/>
  <path d="M582.77,465.5c-1.21,7.05-2.63,14.05-4.34,21-2.6,10.52-6.07,20.73-10.23,30.71-1.81,4.35-3.94,8.56-5.93,12.84-.39.83-.72,1.85.07,2.4.93.64,1.52-.45,2.13-1,8.4-7.64,15.49-16.32,21.11-26.2.48-.85,1.23-1.54,1.85-2.31-2.52,8.55-6.98,16.17-11.61,23.67-13.35,21.64-31.21,38.66-53.17,51.41-.85.49-1.8.81-2.7,1.2,2.85-4.08,7.55-5.78,11.26-8.77,6.57-5.29,13.23-10.44,18.3-17.29.87-1.18,1.58-2.48,2.61-4.13-2.08-.02-3.45.65-4.83,1.3-1.03.49-2.19,1.06-3.05-.04-.67-.86-.2-1.85.4-2.74,3.07-4.5,5.67-9.3,9.03-13.62,1.97-2.53,3.71-5.28,4.47-8.49-.19-1.34.44-2.43,1.09-3.49,11.64-19.14,19.17-39.66,20.9-62.13.26-3.36.13-6.74.13-10.1,0-15.72,0-31.45,0-47.17,0-1.62-.17-3.27.44-4.81.28-.71.63-1.86,1.81-.78.88,1.48.77,3.12.77,4.73.03,17.91,0,35.82.05,53.74,0,1.88.24,3.72.44,5.57.17,1.6.4,3.25-1,4.53Z" style="fill: #a71918; stroke-width: 0px;"/>
  <path d="M.76,415.33v-14.9c.27,0,.55,0,.82,0v18.82c1.88-1.75,1.31-3.3,1.31-4.6.13-27.81-.16-55.63.36-83.44.84-44.89.02-89.78.78-134.66.29-16.95.03-33.91.71-50.85.17-4.28-.13-8.69,1.25-12.89.71,2.28.53,4.57.11,6.87-.04,1.25-.08,2.5-.11,3.74-.76,6.9-.1,13.83-.34,20.74-.11,3.33.35,6.67-.29,9.98-.06,30.34.24,60.68-.29,91.01-.72,41.31-.02,82.63-.75,123.94-.4,22.46-.24,44.92-.63,67.38-.06,3.51-1.73,6.92-1.4,10.55-1.49-4.69-1.13-9.58-1.25-14.36-.31-12.44-.21-24.88-.28-37.32Z" style="fill: #d67a79; stroke-width: 0px;"/>
  <path d="M6.1,139.68c-.04-2.29-.07-4.58-.11-6.87,2-18.16,7.66-35.2,16.03-51.34,5.59-10.79,11.48-21.42,19.93-30.35.71-2.2,2.31-3.76,3.88-5.33,1.23-1.22,2.51-2.41,2.7-4.29,3.87-3.69,7.71-7.42,12.29-10.26.1,2.05-1.51,3.03-2.68,4.27-10.19,10.73-20.35,21.49-28.13,34.18-4.6,7.51-9.33,14.98-12,23.48-4.44,8.83-6.92,18.3-8.9,27.89-1.28,6.15-2.02,12.41-3,18.63Z" style="fill: #de6361; stroke-width: 0px;"/>
  <path d="M48.53,41.5c1.33.68.95,1.58.21,2.38-2.24,2.43-4.53,4.83-6.8,7.23-.5-.46-1-.93-1.5-1.39,2.48-2.95,4.34-6.52,8.08-8.22Z" style="fill: #eac9c8; stroke-width: 0px;"/>
  <path d="M515.47,581.54c.89-1.49,2.25-2.07,3.93-2.05-1.08,1.12-2.4,1.78-3.93,2.05Z" style="fill: #a71918; stroke-width: 0px;"/>
  <path d="M210.84,195.9c3.03-8.42,8-15.37,15.43-20.49,15.81-8.53,31.35-5.85,46.03,2.34,48.54,27.11,96.66,54.96,144.48,83.31,11.55,6.85,20.75,15.89,24.72,29.29,1.08,3.65,1.19,7.36,1.35,11.09-.76,4.6-2.25,8.99-3.87,13.34-1.84,5.96-5.49,10.53-10.71,13.89-8.84,5.15-17.59,10.45-26.43,15.59-41.32,24.03-82.87,47.66-124.43,71.26-9.54,5.42-19.57,9.14-30.85,9.14-15.16,0-25.19-7.55-31.6-20.57-3.85-7.82-5.27-16.18-5.56-24.98-1.22-37.68.18-75.39-.88-113.05-.47-16.72.54-33.37.26-50.06-.06-3.74.03-7.48-.98-11.13.48-3.17,0-6.68,3.04-8.98Z" style="fill: #e5e5e5; stroke-width: 0px;"/>
  <path d="M495.17,29.54c3.35,2.61,7.69,3.52,10.88,6.44,1.02.93,2.62,1.66,2,3.14-.64,1.51-2.45,1.01-3.72.74-6.42-1.39-12.8-2.99-19.23-4.38-8.13-1.75-16.34-2.98-24.7-2.98-27.83.03-55.66-.14-83.49.12-7.88.07-15.8.35-23.66.4-8.81.05-17.66-.75-26.49-.42-9.12.34-18.3.52-27.37.3-33.92-.81-67.85.38-101.75-.55-19.68-.54-39.34-.34-59.01-.59-13.67-.17-26.8,3.15-39.98,6.2-1.81.42-4.32,1.47-5.13-.13-1.02-2,1.91-2.74,3.12-4.01.83-.87,2.03-1.38,3.06-2.06.81-1.99,2.77-2.42,4.44-3.15,14.13-6.17,28.89-9.11,44.34-9.34,94.66-1.38,189.32-.4,283.98-.45,13.38,0,26.96-.56,40.22,2.61,1.45.35,2.92.65,4.37,1.01,2.09.36,4.03,1.2,6.05,1.81,2.88,1.14,5.87,1.96,8.77,3.04,1.26.47,2.6.91,3.3,2.23Z" style="fill: #be504f; stroke-width: 0px;"/>
  <path d="M576.82,407.01c-1.08,1.17-.65,2.61-.66,3.94-.07,8.99,0,17.97-.14,26.96-.07,4.59-.4,9.19-.82,13.77-.1,1.05-.04,2.94-1.62,2.9-1.35-.04-1.01-1.69-1.25-2.75-1.64-7.23-.72-14.62-1.25-21.93-.96-13.28-.47-26.65-1.03-39.96-.84-19.66-.99-39.33-1.65-58.98-.33-9.84-.12-19.68-.56-29.5-.99-21.76-.97-43.56-1.68-65.32-.41-12.59.26-25.19-.67-37.73-.85-11.47,0-22.94-.69-34.36-.97-15.82-.52-31.75-4.85-47.29-4.55-16.35-11.62-31.44-20.58-45.74-1.19-1.89-2.1-3.96-3.15-5.94-.38-.71-.53-1.41.17-2.02.55-.48,1.14-.37,1.73-.06,1.75.94,3.64,1.6,5.15,2.99,8.65,7.9,15.55,17.12,20.84,27.55,1.73,3.42,3.47,6.85,5.2,10.27,2.37,2.14,2.89,5.19,3.81,7.99,3.97,12.08,5.63,24.58,5.65,37.23.11,65.65.36,131.3-.14,196.95-.14,18.83-.28,37.67-.58,56.5-.03,1.6.12,3.29-1.22,4.55Z" style="fill: #bc5251; stroke-width: 0px;"/>
  <path d="M17.28,286.47c-2.3.47-1.53,2.35-1.45,3.64.51,8.44-.24,16.89-.43,25.3-.2,8.7.41,17.46-.46,26.1-1.2,11.95-.57,23.9-.55,35.84.01,9.51.72,19.01.68,28.54-.09,19.28-.29,38.56.07,57.83.23,12.79,2.33,25.38,6.46,37.57.36,1.07,1.36,2.2.49,3.57-1.93.03-2.39-1.56-2.98-2.83-1.12-2.38-2.46-4.6-4.1-6.65-.39-.5-.74-1.17-1.4-1.03-.97.2-.77,1.14-.79,1.85-.04,1.5-.03,2.99-.03,4.49-2.32-6.29-3.53-12.83-4.51-19.45-1.7-11.5-.61-23.05-.66-34.57-.14-33.74-1.63-67.47-.72-101.21,1.07-39.83.07-79.67.86-119.5.25-12.82-.14-25.67.68-38.45.79-12.42.26-24.83.68-37.23.42-12.59,2.1-25.08,6.93-36.77,2.49-6.02,6.48-11.41,9.84-17.07.78-1.31,2.18-.95,3.4-1,.41,1.03.02,1.99-.38,2.88-5.03,11.1-7.69,22.85-9.14,34.85-.63,5.16-.93,10.41-.94,15.64-.03,14.21.22,28.43-.06,42.63-.58,30.02-.28,60.04-.42,90.06,0,1.7.39,3.53-1.03,4.96Z" style="fill: #970d0b; stroke-width: 0px;"/>
  <path d="M576.82,407.01c.03-17.1-.19-34.21.15-51.31,1.35-68.51.39-137.03.57-205.55.04-14.76-1.91-29.26-7.38-43.13-.41-1.03-.58-2.15-.86-3.23-.19-4.56-2.82-8.19-4.82-12-7.12-13.61-15.69-26.18-26.94-36.8-9.47-8.94-20.05-16.23-31.86-21.73-7-4.09-14.77-6.08-22.48-8.23-1.89,0-3.57-.75-5.23-1.52-1.77-1.28-1.38-2.23.45-2.96,7.69.65,14.71,3.67,21.79,6.41,21.62,8.36,39.11,22.41,53.68,40.11,10.66,12.94,18.03,27.79,22.92,43.84.36,1.19.73,2.38,1.18,3.56,2.89,9.86,4.29,19.89,4.6,30.17.79,25.63.65,51.26.68,76.9,0,1.24.09,2.49-.06,3.73-.11,34.53-.03,69.05.09,103.58.08,20.94.04,41.88,0,62.82,0,1.71.19,3.54-1.27,4.91-1.18,1.28-.65,2.85-.66,4.29-.04,17.31,0,34.62-.05,51.92-.07,18.78-4.68,36.53-12.54,53.48-3.08,6.64-6.35,13.2-10.67,19.16-3.04,2.82-6.07,5.63-9.11,8.45,20.22-26.2,32.01-55.3,28.87-89.2-.25,1.54-.57,3.08-.74,4.63-.17,1.6-.17,3.22-.31,4.82-.11,1.31.49,2.77-.73,3.88.59-17,1-33.99.7-51Z" style="fill: #921211; stroke-width: 0px;"/>
  <path d="M478.84,21.23c-1.9.16-1.39,1.22-.86,2.29-40.25-6.43-80.8-3.27-121.22-3.6-62-.5-124.01-.37-186,.15-14.72.12-29.61-.73-44.25,2.61-9.28,2.12-18.12,5.29-26.79,9.11-6.07.99-10.77,4.93-16.12,7.46-8.51,4.02-15.28,10.51-22.78,15.96-.25.18-.62.19-1.12.33,3.45-6.02,8.87-9.76,13.77-14.01,7.33-5.65,15.75-9.35,23.91-13.52.88-1.54,2.45-2.09,3.97-2.63,13.11-4.66,26.46-7.76,40.5-8.47,16.98-.86,33.94-.51,50.91-.53,84.27-.1,168.54-.1,252.81.02,9.46.01,18.97.43,28.31,2.25,1.86.36,4.1.22,4.97,2.58Z" style="fill: #921412; stroke-width: 0px;"/>
  <path d="M17.28,286.47c.07-18.09.12-36.18.23-54.27.18-29.32.23-58.64.67-87.96.25-16.98,3.76-33.35,11.08-48.8,5.7-11.7,12.39-22.75,21.03-32.55.55-.63,1-1.36,1.49-2.04.26.22.52.44.78.67-1.92,2.48-3.87,4.92-5.74,7.43-17.2,23.1-26.65,48.93-26.99,77.84-.31,26.2-.38,52.41-.54,78.62,0,.37.11.74.16,1.11,0,.69,0,1.38.01,2.08-.59,1.32-.3,2.71-.3,4.06-.02,38.29-.01,76.58-.03,114.87,0,1.36.23,2.74-.24,4.08-.07,19.64-.13,39.29-.2,58.93-1.96-.35-.96-1.9-.97-2.83-.09-8.05-.04-16.1-.07-24.15,0-1.22.24-2.48-.27-3.67.02-19.93.07-39.87.06-59.8,0-11.21-.1-22.42-.16-33.63Z" style="fill: #d6bcbc; stroke-width: 0px;"/>
  <path d="M483.21,25.04c.45-.2,1.02-.69,1.34-.56,7.05,2.92,15.02,3.65,21.14,8.79-3.64-.86-6.66-3.49-10.52-3.72-3.99-1.5-7.97-3-11.96-4.5Z" style="fill: #921412; stroke-width: 0px;"/>
  <path d="M5.35,174.14c0-9.43-.02-18.87-.02-28.3,0-.86-.1-1.76.65-2.42-.01,9.55-.01,19.09-.06,28.63,0,.7-.37,1.39-.57,2.08Z" style="fill: #de6361; stroke-width: 0px;"/>
  <path d="M428.69,327.77c4.26-3.67,7.24-8.35,10.29-12.98.53,10.86-5.72,18.77-11.87,26.58-7.32,9.29-17.92,14.48-27.46,20.95-9.65,6.55-20.24,11.53-29.75,18.42-7.72,5.58-16.52,9.65-24.78,14.5-6.31,3.71-12.8,7.07-18.77,11.43-4.84,3.54-10.62,5.71-15.67,9.05-4.43,2.94-8.88,5.88-13.52,8.47-7.75,4.33-15.24,9.09-23.17,13.12-5.43,2.77-10.71,5.65-16.58,7.52-9.35,2.98-18.31,1.92-26.92-2.07-4.92-2.28-9.79-4.83-14.19-8.08-7.4-5.46-13.43-12.21-16.95-20.71-4.03-9.72-5.75-20.01-5.29-30.59.35-7.95-.15-15.91.45-23.89.28-3.68.4-7.59.29-11.39-.55-19.33.56-38.64.98-57.95.23-10.76-.18-21.54.55-32.29,1.04-15.26,1.19-30.57,4.83-45.64,1.24-5.13,3.11-9.51,5.86-13.75.87-1.34,1.87-2.73,3.82-2.58-.76,2.97-1.53,5.93-2.29,8.9.28,11.71-.28,23.42-.17,35.12.42,43.79.12,87.58.37,131.37.01,1.98.2,4-.58,5.91-.71,1.13-1.38.85-1.88-.14-.64-1.27-.57-2.67-.57-4.04-.02-45.43-.01-90.87,0-136.3,0-2.37.48-4.71.39-6.25-1.21,8.06-.66,17.05-.9,25.97-.24,9.08-1.11,18.16-.93,27.22.16,8.23.35,16.45-.18,24.65-.66,10.18.15,20.43-1.35,30.57-.22,1.48-.26,3.01-.09,4.49,1.2,10.1-.65,20.17-.29,30.22.33,9.46,0,18.93,1.01,28.41,1.94,18.35,19.12,33.19,35.59,33.86,1.9.08,3.71-.21,5.54-.68,16.14-4.16,30.54-11.77,44.2-21.24,8.99-6.23,18.23-12.16,28.08-17.12,5.85-2.95,11.77-6.02,16.81-10.35,2.06-1.77,5.32-1.72,6.59-4.55.91-2.33,3.18-3.08,5.07-4.19,23.28-13.58,46.66-26.99,69.9-40.62,4.75-2.78,8.98-6.28,13.53-9.34Z" style="fill: #6e0e0e; stroke-width: 0px;"/>
  <path d="M87.69,565.16c-8.12-3.31-15.08-8.49-21.74-14.01-12.32-10.22-22.74-22.13-30.79-36.02-4.3-7.42-7.94-15.14-10.36-23.4,1.91.25,2.16,1.98,2.65,3.27,3.33,8.74,7.69,16.85,13.21,24.46,4.44,6.12,8.32,12.6,13.62,18.11,3.97,4.12,8.38,7.79,12.77,11.3,3.67,2.92,6.47,7,10.83,8.94,3.43,1.53,6.41,3.63,9.41,5.79.77.55,1.22.79.39,1.56Z" style="fill: #a71918; stroke-width: 0px;"/>
  <path d="M18.89,351.62c0-21.07-.01-42.15.02-63.22.03-18.58.1-37.16.17-55.75,0-1.35-.28-2.75.37-4.05.03,18.35.09,36.69.1,55.04.01,21.22,0,42.44-.05,63.66,0,1.44.51,3.01-.61,4.32Z" style="fill: #a71918; stroke-width: 0px;"/>
  <path d="M17.38,379.9c.99,7.39.25,14.84.7,22.24.17,2.8-.42,5.67.61,8.41.03,5.96.06,11.91.08,17.87,0,.11-.07.29-.14.31-.2.06-.42.05-.63.08-.01-.76-.02-1.52-.03-2.28-.82-1.4.23-3.08-.68-4.46.03-14.05.06-28.11.08-42.16Z" style="fill: #a71918; stroke-width: 0px;"/>
  <path d="M71.62,230.53c-.73.4-1.48.76-2.18,1.19-3.12,1.92-6.27.69-6.86-2.9-.23-1.4.76-2.54,2.16-3.13,1.65-.7,2.07.66,2.29,1.62.6,2.55,1.91,3.6,4.59,3.22Z" style="fill: #a71918; stroke-width: 0px;"/>
  <path d="M83.26,235.35c-.66,1.54-1.04,2.87-1.76,4-.63.98-1.75.82-2.65.23-.81-.53-1.17-1.47-.55-2.25,1.7-2.14,2.53-4.21.33-6.55-.46-.49-.37-1.21.27-1.59.82-.48,1.58.02,1.87.65.88,1.87.25,4.32,2.47,5.51Z" style="fill: #a71918; stroke-width: 0px;"/>
  <path d="M471.15,500.78c-1.67-.12-3.73.1-3.58-2.52.09-1.55.83-3.2,2.59-3.05,1.97.18,3.38,1.48,3.31,3.77-.04,1.51-.54,2.44-2.32,1.8Z" style="fill: #a71918; stroke-width: 0px;"/>
  <path d="M460.47,493.81c-1.22-2.01-3.53-2.99-5.28-4.63-.59-.55.26-.97.85-1.23,1.23-.55,2.25-.63,3.34.48,1.25,1.28,2.37,2.55,2.41,4.42.01.57-.5.8-1.32.96Z" style="fill: #a71918; stroke-width: 0px;"/>
  <path d="M427.68,436.58c-.31,1.49-1.45,1.19-2.39,1.15-.94-.05-1.85-.5-1.71-1.55.13-1.01.9-1.94,2.01-1.84,1.22.11,1.86,1.09,2.08,2.24Z" style="fill: #a71918; stroke-width: 0px;"/>
  <path d="M421.05,419.81c.07.6.11,1.21.23,1.8.14.74,1.45,1.29.43,2.19-.3.27-.97.43-1.32.28-1.2-.49-.75-1.64-.81-2.56-.06-1.01.44-1.61,1.47-1.71h0Z" style="fill: #a71918; stroke-width: 0px;"/>
  <path d="M506.49,532.66c-.7,2.11-.41,3.64-1.94,4.26-.17.07-.87-.57-.93-.94-.26-1.67.88-2.31,2.88-3.32Z" style="fill: #a71918; stroke-width: 0px;"/>
  <path d="M106.84,239.36c.67.04,1.28.33,1.33,1,.02.29-.55.83-.93.91-.68.14-1.18-.39-1.31-1.02-.12-.57.36-.83.9-.89Z" style="fill: #a71918; stroke-width: 0px;"/>
  <path d="M185.95,226.9c.53.27.61.75.46,1.23-.14.47-.45.95-1.01.72-.2-.08-.28-.65-.27-.99.02-.48.1-1.02.81-.97Z" style="fill: #a71918; stroke-width: 0px;"/>
  <path d="M465.4,495.46c-.3.46-.73.7-1.23.47-.28-.13-.43-.52-.64-.79.43-.13.86-.33,1.3-.35.34-.02.76.13.56.67Z" style="fill: #a71918; stroke-width: 0px;"/>
  <path d="M17.29,422.06c1.28,1.33.52,2.97.68,4.46-1.27-1.33-.48-2.97-.68-4.46Z" style="fill: #970d0b; stroke-width: 0px;"/>
  <path d="M582.14,225.05c-.05-18.32.27-36.65-.28-54.95-.36-12.31.22-24.65-1.2-36.93-.77-6.68-2.36-13.19-3.82-19.73-3.05-13.7-8.98-26.23-15.59-38.48-1.06-1.97-2.23-3.89-3.11-5.95-.59-1.37-1.4-3.07.03-4.11,1.52-1.1,2.77.38,3.77,1.44,3.4,3.63,6.18,7.74,8.94,11.86,11.73,18.02,18.29,37.81,20.22,59.19.66,1.17.34,2.45.34,3.67.06,14.33.31,28.66.63,42.99.49,21.69.42,43.39.06,65.08-.58,35.18-.27,70.36-.21,105.54.03,16.34-.83,32.65-.95,48.98-.08,10.32.06,20.66-.65,30.97-.13,1.91.4,4.86-1.8,5.11-2.57.29-2.12-2.78-2.57-4.58-.36-1.45-.56-2.96-.51-4.45.41-12.73-1.08-25.41-.82-38.14.42-20.21-.64-40.4-.96-60.6-.23-14.59,0-29.18-.47-43.77-.52-16.09-.04-32.18-.45-48.26-.12-4.95.23-9.95-.61-14.88Z" style="fill: #d07a79; stroke-width: 0px;"/>
  <path d="M570.88,78.21c-2.9-3.52-5.77-7.07-8.73-10.55-.94-1.11-1.94-2.31-3.83-2.44-.27,3.29,1.72,5.7,3.13,8.15,6.66,11.6,11.96,23.73,15.18,36.73.26,1.06.16,2.22.23,3.33-3.66-10.55-7.65-20.93-13.31-30.65-8.55-14.71-19.94-26.75-33.11-37.35-14.96-12.04-32.11-19.32-50.47-24.15-.35-.09-.74-.04-1.12-.06-5.26-2.11-10.87-2.52-16.4-2.88-18.56-1.22-37.16-.83-55.75-.83-84.65,0-169.29.06-253.94.08-19.11,0-37.62,3.21-55.37,10.41-4.78-.15-8.86,2.23-13.19,3.67-2.6.86-5.17,1.81-7.75,2.72-.84.3-1.85.72-2.44-.05-.74-.97.13-1.95.75-2.62,3.32-3.61,7.45-6.19,11.63-8.65,14.19-8.37,29.5-13.67,45.71-16.43,3.54-.6,7.15-.96,10.74-1.07,50.63-1.53,101.28-.7,151.92-.83,48.15-.13,96.31-.12,144.46.21,13.88.1,27.82.6,41.4,4.51,17.44,5.01,33.37,12.82,47.58,24.16,7.87,6.28,15.71,12.61,23.04,19.49,7.27,6.83,13.36,14.73,18.92,23.01.4.59.49,1.38.73,2.08Z" style="fill: #cf5958; stroke-width: 0px;"/>
  <path d="M582.14,225.05c.91.75.66,1.8.72,2.78,1.02,16.44.17,32.92.91,49.34.73,15.96-.2,31.94.75,47.85.73,12.1-.17,24.2.69,36.24,1.09,15.34-.25,30.7.85,45.97.72,9.94-.47,19.93,1.28,29.8.15.82-.15,1.78,1.08,2.49,1.82-4.59,1.18-9.44,1.8-14.08.46-3.44.05-6.98.12-10.48,1-53.16.37-106.32,1-159.48.24-20.95.6-41.91.3-62.85-.26-18.41-.44-36.82-.53-55.24,1.17,1.11.7,2.56.71,3.86.07,8.66.06,17.32.12,25.97,0,1.31-.45,2.75.65,3.89,0,37.7,0,75.39,0,113.09-.61,4.25-.61,8.5,0,12.76,0,1.49,0,2.98,0,4.47-.7,1.29-.35,2.69-.35,4.03-.02,23.53-.01,47.05-.03,70.58,0,1.35.31,2.74-.31,4.05-.43,9.32.16,18.63-.54,27.97-.7,9.38-.14,18.84-.26,28.27-.13,10.42-.05,20.87-2.28,31.13-.63,2.9-1.67,5.71-2.63,8.53-.3.88-.67,2.12-1.94,1.91-1.47-.24-1.35-1.58-1.37-2.68-.05-3.24-.06-6.48-.09-9.72-1.37-22.96-.25-45.95-.73-68.92,0-54.43-.02-108.87-.02-163.3,0-2.74.08-5.49.12-8.23Z" style="fill: #c74d4c; stroke-width: 0px;"/>
  <path d="M591.88,380.09c0-25.29.02-50.57.03-75.86,0-.98-.2-2.02.67-2.8,0,25.04.01,50.09,0,75.13,0,1.2.41,2.52-.7,3.52Z" style="fill: #d31b18; stroke-width: 0px;"/>
  <path d="M592.58,296.97c-1.08-4.25-1.08-8.5,0-12.76,0,4.25,0,8.5,0,12.76Z" style="fill: #d31b18; stroke-width: 0px;"/>
  <path d="M428.69,327.77c-3.49,4.36-8.2,7.16-12.9,9.91-24.47,14.31-48.99,28.54-73.49,42.81-.53.31-1.01.7-1.51,1.05-1.4,2.68-4.35,3.22-6.64,4.55-21.3,12.38-42.45,25.02-64.25,36.52-5.87,3.1-12.12,5.19-18.81,5.7-3.08.02-6.15.02-9.22.02-8.35-.26-15.02-4.44-20.72-9.9-8.02-7.68-13.33-16.98-13.92-28.45-.05-2.81-.9-5.55-.74-8.38.07-1.33-.06-2.71,1-3.78-.02-24.32-.07-48.65-.05-72.97.02-27.32.08-54.65.15-81.97.01-6.04-.01-12.09,1-18.08,1.09,2.28,1.29,4.72,1.25,7.2-.24,15.65-1.17,31.34-.53,46.95.84,20.7.21,41.38.5,62.07.18,13.47-.54,26.99.22,40.42.65,11.44-.88,23.1,2.78,34.32,4.46,13.66,11.86,24.56,27.06,27.35,10.07,1.85,19.91-.03,29.05-4.45,14.46-6.99,28.1-15.53,42.11-23.37,13.24-7.41,26.36-15.05,39.51-22.62,16.92-9.75,33.82-19.54,50.74-29.29,8.41-4.84,16.88-9.57,25-14.9.72-.47,1.52-.9,2.46-.71Z" style="fill: #beb8b7; stroke-width: 0px;"/>
  <path d="M207.46,377.83c.27,4.25.55,8.51.82,12.76-.65.84-.82,1.83-.71,2.83.63,5.44.76,10.93,1.91,16.31,3.08,14.43,15,22.97,29.53,21.07,3.82-.5,7.63-1.19,11.22-2.7.51-.24,1.06-.42,1.51-.8,8.45-1.19,16.19-4.4,23.53-8.58,21.62-12.32,43.19-24.74,64.78-37.1.2-.11.49-.06.74-.09,1.66,2.19-.64,2.47-1.64,3.13-11.34,7.55-23.56,13.62-35.12,20.79-7.97,4.94-15.5,10.62-23.63,15.26-6.62,3.78-12.94,8.16-20.47,10.46-3.94,1.2-7.96,2.52-11.84,4.03-9.08,3.52-17.52,1.57-25.32-3.09-10.64-6.36-18.28-15.22-20.07-28.06-.48-3.43-1.04-6.89-1.09-10.34-.14-10.79-.51-21.62.12-32.38.36-6.23-.05-12.36-.12-18.54-.06-5.33,1.01-10.63,1.17-15.92.13-4.41-.17-8.82.14-13.29.47-6.64,1.06-13.4.62-19.96-.5-7.34.1-14.54.26-21.8.27-11.76.43-23.53.81-35.28.1-3.12.83-6.21,1.28-9.32.3.03.61.07.91.1,0,1.29,0,2.59,0,3.88,0,47.44,0,94.87.03,142.31,0,1.44-.53,3.01.63,4.3Z" style="fill: #650b0b; stroke-width: 0px;"/>
  <path d="M99.52,20.1c3.38-4.98,8.66-6.04,13.49-7.7,14.27-4.9,29.04-6.02,44.09-6.25,91.21-1.39,182.42-.45,273.64-.37,15.95.01,32.14-.46,47.78,4.23,7.15,2.14,14.34,4.12,20.78,8.08.92.57,2.47.99,2.06,2.24-.53,1.63-1.94.38-2.89.2-8.53-1.58-16.92-3.86-25.57-4.81-3.82-.42-7.64-1.13-11.46-1.13-108.46-.06-216.91-.09-325.37,0-10.58,0-20.87,2.67-31.19,4.81-1.76.36-3.57.47-5.36.69Z" style="fill: #d88b8a; stroke-width: 0px;"/>
  <path d="M251.01,428.06c-2.16,3.14-5.82,2.34-8.8,3.21-13.68,4-23.12-2.46-30.44-12.27-2.67-3.58-3.24-8.05-3.9-12.32-.66-4.27-.74-8.63-1.06-12.95-.1-1.31.11-2.5,1.48-3.14,2.45,16.28,10.44,28.43,25.99,35.02,2.29.97,4.6,1.64,7.08,1.76,3.17.91,6.5-.32,9.66.69Z" style="fill: #480b0b; stroke-width: 0px;"/>
  <path d="M251.01,428.06c-3.21-.38-6.53.8-9.66-.69,3.46-.02,6.93-.05,10.39-.07-.24.25-.49.5-.73.76Z" style="fill: #6e0e0e; stroke-width: 0px;"/>
</svg>