<?xml version="1.0" encoding="UTF-8"?>
<svg id="Layer_1" data-name="Layer 1" xmlns="http://www.w3.org/2000/svg" viewBox="0 0 598.59 591.09">
  <path d="M184.39,35.36c5.24-12.3,14.4-21.07,25.78-27.49C219.84,2.4,230.36-.02,241.64,0c91.36.14,182.72-.02,274.08.21,11.66.03,23.59-.79,34.94,2.96,4.73,1.56,9.83,2.76,13.5,6.65h0c-3.68.67-7.12-1.49-11.2-1.25,3.04,4.3,7.51,5.86,11.24,8.27,14.1,9.12,22.09,22.2,25.34,38.3,1.82,8.99,1.45,18.25,1.37,27.36-.04,5.39,1.06,10.76.24,16.15-.23,1.51.33,2.92,1.13,4.24,1.48-.58,1.08-1.85,1.07-2.88-.2-16.2,1.35-32.38.75-48.58-.1-2.64-.39-5.27-.26-7.97,1.11,3.9,3.1,7.47,3.3,11.64,1.64,34.53-.11,69.1.84,103.62.84,30.73.57,61.45.53,92.18-.01,13.97-5.67,26.06-14.88,36.47-9.2,10.38-20.6,17.1-34.15,20.11-4.59,1.02-9.25,1.82-13.96,1.95-1.75.05-2.7.41-3.06,2.35-.27,1.48-.52,2.92-.52,4.42,0,13.23,0,26.46,0,39.69,0,4.56.02,9.12,0,13.69-.02,2.84-.8,5.38-3.14,7.22-6.79,2.15-12.34-.23-17.62-4.44-26.75-21.32-53.53-42.58-80.29-63.88-2.54-2.02-5.14-3.23-8.5-3.21-45.3.24-90.59-1.27-135.89-.71-1.75.02-3.5.12-5.24-.02-13.45-1.08-26.97-.01-40.39-.88-32.29-2.08-56.56-27.25-56.92-58.82-.5-43.93-.68-87.86-.82-131.79-.03-7.71-.73-15.45-.59-23.17.34-18.18-1.31-36.44,1.86-54.52Z" style="fill: #eaeaea; stroke-width: 0px;"/>
  <path d="M21.04,226.31c3.48-4.79,8.78-7.1,13.76-9.69,7.88-4.1,16.41-6.11,25.23-6.9.83-.38,1.72-.25,2.58-.25,38.01,0,76.02,0,114.03,0,.5,0,1,.02,1.49.08,2.21,2.55,1.42,5.38.79,8.2-1.16,1.86-3.27,2.19-5.04,3.02-2.1.99-3.31,2.45-3.65,4.8-1.59,11.27-4.92,22.13-7.62,33.15-2.3,9.34-3.09,19.23-.16,28.78,2.75,8.98,9.64,14.5,17.55,18.44,10.22,5.08,21.29,7.98,32.53,9.76,16,2.54,32.03,5.17,48.33,4.75,9.85-.25,19.7-.2,29.55-.45,10.91-.27,21.88.04,32.81,1.26,8.28.93,16.63,1.45,24.95,2.15,17.75,1.49,35.66,2.08,52.59,8.7,3.51,1.37,6.65,3.93,10.94,3.12,1.88-.36,2.49,1.63,2.92,3.29,1.1,4.16.69,8.44,1.1,12.66,1.46,14.76,3.07,29.52,3.87,44.34-.68-13.79-.26-27.6-.37-41.41.12-3.37-.19-6.75,0-10.11.07-1.36-.35-3.12,1.67-3.67.06,1.49.16,2.98.16,4.47-.02,39.35-.06,78.7-.09,118.06-.63,1.24,0,2.64-.49,3.89-1.19,3.48-1.17,7.31-3.16,10.55-3.24,3.61-5.3,8.07-8.63,11.64-11.37,12.18-25.01,19.99-41.64,22.42-7.22,1.05-14.45.65-21.67.68-15.6.05-31.2.31-46.79-.17-38.68-1.21-77.36-.13-116.04-.62-5.38-.07-9.56,1.3-13.91,4.78-15.78,12.63-31.86,24.89-47.85,37.26-10.36,8.02-20.71,16.06-31.02,24.14-1.38,1.08-2.73,2.18-4.19,3.15-4.97,3.3-9.29,1.48-10.55-4.42-.42-1.97-.38-3.97-.38-5.97,0-17.85,0-35.69,0-53.54,0-5.39-.64-6.24-6.04-6.02-14.15.58-27.06-3.08-38.25-11.64-14.64-11.21-22.09-26.13-22.45-44.8-.65-34.55-.07-69.12-.88-103.66-.64-27.2.14-54.4-.65-81.57-.43-14.85,4.35-27.64,12.76-39.44.72-1.01,1.63-1.9,1.9-3.18Z" style="fill: #2a6ddb; stroke-width: 0px;"/>
  <path d="M21.04,226.31c1.35,1.76-.35,2.7-1.1,3.79-5.76,8.39-10.33,17.27-11.97,27.47-.24,1.49-.39,2.95-.39,4.44,0,26.71-.63,53.44.18,80.13.84,27.69-.22,55.38.75,83.03.4,11.46-.19,22.95.7,34.35.9,11.55,5.41,21.87,13.16,30.66,9.65,10.95,21.91,17.02,36.18,19.08,3.92.57,7.97.15,11.96.22,4.41.07,5.22.89,5.23,5.26.01,19.1.01,38.19.02,57.29,0,1.62.11,3.19.56,4.79,1.28,4.56,4.5,5.92,8.34,3.05,7.26-5.42,14.36-11.05,21.53-16.6,18.56-14.35,37.18-28.62,55.65-43.09,3.31-2.6,6.94-4.85,9.78-8.05,1.32-1.48,3.07-1.96,5.06-1.95,38.32.03,76.65-.48,114.95.23,22.63.41,45.25.58,67.87.42,16.09-.12,30.22-6.06,42.38-16.85,5-4.44,9.14-9.4,12.77-14.92.55-.83.94-2.5,2.69-1.78-3.58,9.74-8.8,18.39-16.7,25.28-.63.55-1.37.98-2.05,1.47-7.83,5.01-16.15,8.8-25.39,10.37-3.56.6-7.12,1.29-10.73,1.3-24.59.05-49.19.53-73.76-.15-35.94-.99-71.87-.12-107.81-.53-2.71-.03-4.37.56-6.34,3.03-3.21,4.02-7.9,6.78-12,10.03-16.98,13.46-34.07,26.77-51.04,40.24-6.93,5.5-13.96,10.89-20.91,16.36-3.64,2.87-7.39,2.62-11.24.75-4.11-2-8.08-4.21-8.4-9.57-.04-.62-.07-1.25-.06-1.87.16-18.09-1.35-36.17-.71-54.26.11-3.24-.77-4.7-4.24-4.98-8.73-.71-17.27-2.39-25.3-6.17-18.69-8.8-30.65-23.12-35.58-43.2-1.16-4.73-1.65-9.56-1.63-14.47.08-23.09.47-46.2-.07-69.28-.81-34.45-.41-68.89-.75-103.33-.06-6.08-.57-12.19-.83-18.29.96-8.91,5.06-16.54,9.86-23.84,2.51-3.83,5.86-6.95,9.39-9.86Z" style="fill: #053dbb; stroke-width: 0px;"/>
  <path d="M178.31,218.09c.02-2.76.03-5.52.05-8.28-.26-.14-.36-.3-.31-.48.05-.2.12-.3.19-.3.04-9.11.11-18.21.12-27.32.02-40.43.03-80.85.02-121.28,0-8.85,2.05-17.18,6.02-25.07,1.93,3.68-.06,7.26-.38,10.87-.12,1.34-.4,2.69-.4,4.06,0,17.98-.55,35.97.12,53.93,1.25,33.56-.16,67.12.79,100.65.42,14.67-.03,29.34.7,43.98.59,11.67,4.75,22.28,12.27,31.43,12.7,15.45,29.22,22.54,49.04,22.45,7.49-.03,14.99-.3,22.47.05,32.17,1.51,64.37-.2,96.53.87,19.58.65,39.15.25,58.71.5,5.08.06,7.61,3.89,10.9,6.43,14.25,10.99,28.28,22.28,42.37,33.48,11.38,9.03,22.8,18.01,34.08,27.17,4.51,3.66,9.08,6.48,15.2,4.95.7-.18,1.51-.13,2,.63-1.41.77-2.01,2.53-3.68,2.98-6.36,1.37-11.32-1.42-16.08-5.2-26.5-20.99-53.08-41.88-79.45-63.03-3.88-3.11-7.97-3.23-12.16-3.25-31.31-.18-62.63-.11-93.94-.08-2.16,0-4.15.81-6.21,1.28-1.6.33-3.23.3-4.85.3-24.31,0-48.62.05-72.93,0-27.97-.07-54.63-21.43-60.89-48.67-1.04-4.52-1.44-9.08-1.39-13.73.1-8.1.01-16.21.04-24.31,0-1.73-.2-3.52,1.03-5.01Z" style="fill: #bdbec4; stroke-width: 0px;"/>
  <path d="M1.79,260.01c1.09.22,1.33,1,1.28,1.96-.33,5.49.68,10.93.7,16.38.11,26.84-.56,53.7.21,80.52.93,32.19-.1,64.37.74,96.54.32,12.41,4.96,23.72,12.73,33.64,10.67,13.62,24.86,21.04,41.64,23.96,3.05.53,6.16.85,9.25.89,2.36.03,3.08.93,2.93,3.13-.13,1.86.02,3.74-.03,5.62-.55,17.71,1.13,35.38.73,53.09-.09,3.92,2.5,5.85,5.34,7.46,7.11,4.01,9.46,3.26,14.43-.76,13.71-11.08,27.8-21.68,41.7-32.52,13.31-10.39,26.55-20.85,39.83-31.28.2-.15.48-.32.52-.52,1.09-5.64,5.51-4.1,9.06-4.11,32.71-.04,65.43-.59,98.12.16,25.91.59,51.8.24,77.7.56,13.53.17,26.03-3.48,37.69-10.2.71-.41,1.26-1.38,2.23-.47-4.38,4.01-9.25,7.21-14.89,9.16-8.88,3.23-18.03,4.22-27.49,4.2-58.15-.15-116.3-.08-174.44-.05-1.81,0-3.78-.6-5.38.85-.34.33-.68.66-1.01,1.01-9.09,6.05-17.07,13.52-25.71,20.15-9.23,7.08-18.19,14.52-27.29,21.77-8.13,6.48-16.29,12.94-24.46,19.37-3.84,3.02-7.76,5.94-11.64,8.91-7.68-1-14.53-3.47-18.83-10.52-.24-.49-.46-.99-.6-1.52.04-19.03.09-38.05.11-57.08,0-.35-.22-.69-.34-1.04-.18-.41-.07-.72.31-.94,1.96,2.22.52,4.7.83,7.21.22-1.78-.12-3.5.16-5.14.4-2.31-.51-2.97-2.7-3.28-7.76-1.12-15.49-2.31-22.84-5.37-18.17-7.57-31.08-20.3-38.63-38.49-.99-2.39-.8-5.21-2.65-7.28-.12-1.23-.24-2.46-.35-3.69-.52-1.2-.28-2.46-.28-3.69-.01-62.71-.01-125.43,0-188.14,0-1.23-.25-2.5.28-3.69.85-2.17-.9-4.74,1.03-6.75Z" style="fill: #0a33ab; stroke-width: 0px;"/>
  <path d="M317.7,308.7c2.09-1.26,4.39-1.49,6.77-1.49,30.7,0,61.39.12,92.09-.07,7.05-.04,12.47,2.46,17.86,6.86,15.94,13.04,32.29,25.58,48.45,38.37,9.15,7.24,18.2,14.6,27.35,21.84,3.64,2.88,7.44,5.51,12.49,4.94.84-.1,1.77-.18,2.42.63-6.55,3.71-12.03.88-17.03-3.15-16.87-13.61-33.69-27.26-50.85-40.51-9.47-7.31-18.51-15.19-27.96-22.52-2.35-1.82-4.24-5.26-8.21-4.09-1.33.38-2.69.27-4.05.24-30.97-.11-61.94.28-92.92.14-2.18,0-4.52.5-6.42-1.2Z" style="fill: #a0a3b7; stroke-width: 0px;"/>
  <path d="M175.44,518.8c-.11-1.73.76-2.54,2.43-2.57,1-.02,2-.02,2.99-.02,60.01,0,120.02,0,180.04.03,6.51,0,12.86-.79,19.1-2.65,1.16-.35,2.46-.26,3.69-.38-5.54,3.38-11.86,4.15-18.04,5.37-.83.37-1.72.25-2.59.25-62.54-.01-125.08.04-187.63-.02Z" style="fill: #051b78; stroke-width: 0px;"/>
  <path d="M417.94,308.93c1.1-.11,2.26-.49,3.14.59-.06,10.27-.11,20.54-.17,30.81-1.18,4.65-.2,9.39-.59,14.07-2.72-.11-2.53-2.42-2.86-4.08-1.64-8.05-3.64-16.04-4.94-24.15-.9-5.6-4.13-8.59-9.08-10.21-5.71-1.87-11.68-2.52-17.63-3.07-3.84-.35-7.66-.95-11.53-.93-1.86.01-3.76-.26-5.31-2.69,16.58-.51,32.79.14,48.97-.35Z" style="fill: #0b2ca5; stroke-width: 0px;"/>
  <path d="M1.11,465.97c2.06-.49,1.71,1.3,2.03,2.27,8.35,25.2,26.07,40,51.42,46.23,3.82.94,7.81,1.25,11.73,1.72,2.01.24,2.88.86,2.38,3.12-.48,2.14-.44,4.39-.64,6.77-1.37-2.45.79-5.34-1.4-7.44-2.7.3-5.41.36-8.11-.03-12.71-1.08-24.39-5.48-34.17-13.36-9.38-7.55-17.38-16.58-20.69-28.88-.93-3.45-1.93-6.87-2.55-10.39Z" style="fill: #061b7e; stroke-width: 0px;"/>
  <path d="M.76,266.76c.02,6.98.07,13.95.07,20.93.02,57.83.02,115.66.03,173.48,0,.37-.07.74-.1,1.11-1.11-1.15-.66-2.6-.66-3.92-.02-62.56-.02-125.12,0-187.69,0-1.32-.46-2.77.66-3.92Z" style="fill: #eaeaea; stroke-width: 0px;"/>
  <path d="M175.44,518.8c53.8,0,107.59,0,161.39-.03,9.61,0,19.22-.13,28.82-.19-.91.93-2.09.68-3.18.68-62.36,0-124.73-.02-187.09-.04.04-.14.06-.28.06-.42Z" style="fill: #eaeaea; stroke-width: 0px;"/>
  <path d="M178.24,209.03c.04.26.08.52.12.78-38.45,0-76.89.02-115.34.02-1,0-1.99-.07-2.99-.11,1.42-1.18,3.11-.63,4.67-.63,37.84-.05,75.69-.05,113.53-.07Z" style="fill: #eaeaea; stroke-width: 0px;"/>
  <path d="M67.39,578.36c3.97,4.37,8.36,8.01,14.31,9.48,1.5.37,3.71-.78,4.56,1.58-7.46,4.26-16.85-.04-18.88-8.04-.37-1.01-.38-2.02,0-3.02Z" style="fill: #081d76; stroke-width: 0px;"/>
  <path d="M58.51,518.6c2.7,0,5.4.02,8.1.03.03.21.03.42,0,.63-2.7-.28-5.5.7-8.11-.66Z" style="fill: #eaeaea; stroke-width: 0px;"/>
  <path d="M564.15,9.82c1.33.14,2.43.65,3.96,2.33-2.16-.59-3.35-.98-3.95-2.34,0,0,0,.01,0,.01Z" style="fill: #eaeaea; stroke-width: 0px;"/>
  <path d="M420.49,466.75c-.09-1.33-.15-2.66.49-3.89.06,1.33.51,2.7-.49,3.89Z" style="fill: #eaeaea; stroke-width: 0px;"/>
  <path d="M67.39,578.36c0,1.01,0,2.02,0,3.02-1.11-1.21-.67-2.63-.54-4.01.18.33.36.65.54.98Z" style="fill: #eaeaea; stroke-width: 0px;"/>
  <path d="M376.79,92.13c-3.76,2.61-3.33,6.29-2.52,10.03,1.23,5.69,1.54,11.26-1.74,16.47-1.68-.07-2.23,1.38-3.14,2.34-9.17,9.69-23.72,9.52-31.82-.51-3.95-4.89-4.66-10.93-5.08-16.9-.61-8.63.08-17.16,3.39-25.31.49-1.21,1.15-2.55.25-3.92-.54-2.35.9-4,2.07-5.72,4.83-7.1,11.39-12.25,18.71-16.54,17.06-9.34,35.24-11.94,54.29-8.83,6.15,1,12.06,3.03,17.76,5.6,1.61.73,3.6,1.13,3.62,3.68,0,.98,1.33,1.4,2.17,1.92,17.38,10.63,26.35,26.41,28.34,46.41.75,7.55-.74,14.79-3.47,21.48,1.17-1.74.92-4.52,3.25-6.36,1.23,2.67-.05,4.82-.81,6.92-4.84,13.26-14.23,22.93-25.1,31.37-1.17.91-2.19,2.06-3.61,2.63-5.4,3.55-10.8,7.04-15.21,11.92-2.96,3.27-4.58,7.03-5.73,11.14-.29,1.03.13,3.1-1.65,2.72-1.27-.27-.9-2.06-.8-3.04-.89,4.98-.61,10.26-.64,15.52,0,.62-.27,1.56.08,1.81,1.6,1.19,2.13,2.64,1.2,4.35-1.44,2.65-1.84,6.07-5.22,7.36-1.4-.15-2.29.79-3.33,1.47-6.69,4.43-13.82,5.24-20.92,1.49-7.05-3.73-10.26-9.78-10.65-17.99-.57-12.02,1.03-23.56,4.92-34.87.3-.86.39-1.69.14-2.56-.49-2.06.82-3.65,1.43-5.42,4.32-8.14,10.04-15.09,17.43-20.63,1.15-.72,2.23-1.53,3.14-2.55,3.12-2.95,6.87-5.01,10.33-7.49,1.3-.43,2.26-1.32,3.08-2.38.37-.39.79-.7,1.25-.97,2.53-1.89,4.45-4.36,6.08-6.97,2.89-4.62,2.07-10.45-1.52-14.92-4.47-5.55-10.47-7.83-17.27-8.4-2.71-.23-5.47-.22-8.2.12-.33.11-.67.2-1.01.26-1.15.2-2.33.22-3.45.6-.31.1-.63.18-.94.24-1.28.16-2.45.57-3.49,1.35-1.8,1.15-3.65,2.18-5.59,3.07Z" style="fill: #3999ee; stroke-width: 0px;"/>
  <path d="M376.79,92.13c1.07-2.18,3.41-2.58,5.22-3.72,1.29-.45,2.61-.82,3.86-1.39.21-.1.42-.13.65-.1,1.17-.8,2.69.24,3.82-.74h0c7.63-1.06,18.4,4.92,21.81,12.35,2.29,4.98,3.13,10.23,1.87,15.69-.31,1.35-.56,2.71-1.95,3.44-.26.25-.52.49-.79.74-1,.73-1.91,1.58-2.96,2.25-3.43,2.54-6.87,5.07-10.3,7.61-1.26.45-2.15,1.42-3.12,2.28-6.81,5.79-12.68,12.4-17.23,20.13-7.61,15.14-11.47,31.03-8.65,47.98,1.23,7.42,5.32,13.03,12.85,15.51,2.55.84,5.13,1.46,7.85,1.38,1.3-.04,2.72-.09,3.65,1.18-2,1.48-4.76,2.18-5.26,5.19-.3,1.89-2.04,1.52-3.19,1.93-12.12,4.33-18.37,18.53-13.15,30.1,1.35,3.01,3.25,5.57,6.46,6.86,6.02,3.96,12.44,5.41,19.48,3.2.84-.26,1.73-.19,2.4.55-10.14,9-21.59,10.96-33.86,5.4-9.63-4.36-10.56-11.92-9.26-20.99.99-6.96,4.62-12.76,8.53-18.42,5.68-8.22,5.76-8.46-2.13-14.22-5.58-4.07-7.76-9.72-8.14-16.02-1.02-16.9,3.43-32.66,12.24-46.91,4.57-7.38,11.52-12.95,18.28-18.51,5.63-4.62,12-8.37,16.48-14.38,10.7-14.34,2.91-24.45-11.06-28.29-4.84-1.33-9.6-.38-14.4-.08Z" style="fill: #c0c3d4; stroke-width: 0px;"/>
  <path d="M377.49,261.24c-5.09-2-6.87-6.49-7.98-11.21-2.67-11.42,4.45-25.37,18.6-28.13,3.91-.18,7.72.21,11.23,2.14,1.63,1.15,2.67,2.26-.19,3,7.93,3.57,10.76,10.27,11.4,18.24.35-.47.06-1.98,1.44-1.62.75.2.87,1.17.75,1.93-.95,5.65-2.26,11.13-7.4,14.68-1.48-.8-2.58.19-3.78.78-14.74,7.36-28.6-.29-30.25-16.7-.1,4.34,1.22,8.47,3.68,12.07,1.02,1.49,2.68,2.69,2.49,4.81Z" style="fill: #318dea; stroke-width: 0px;"/>
  <path d="M356.69,52.55c-6.71,4.55-13,9.55-17.62,16.38-1.12,1.66-2.23,3.29-2.78,5.23.26,1.43-.51,2.56-1.09,3.75-6.3,12.83-6.31,25.96-1.73,39.23,1.44,4.17,4.82,6.79,8.58,8.88,4.79,2.33,9.68,4.04,15.14,2.93,1.11-.22,2.25-.23,3.16.65-8.24,4.79-16.78,6.04-25.99,2.83-12.05-4.21-16.36-10.73-17.26-23.1-1.57-21.48,8.79-37.14,26.25-48.61,4.45-2.92,8.16-6.93,13.17-9.02.24.15.34.33.31.53-.03.21-.08.32-.15.32Z" style="fill: #c1c3d3; stroke-width: 0px;"/>
  <path d="M356.69,52.55c-.05-.29-.1-.57-.16-.86,9.96-5.76,20.75-8.66,32.16-9.82,15.42-1.56,30.06.97,43.69,8.15,19.72,10.39,30.79,26.75,32.97,49.13,1.67,17.23-3.93,31.74-15.56,44.21-5.01,5.36-10.24,10.45-16.7,14.08-.25-.17-.34-.35-.27-.54.07-.19.15-.29.23-.29,7.45-5.67,14.63-11.62,20.31-19.16,4.64-6.15,8.18-12.82,9.28-20.59-1.22,2.93-2.44,5.85-3.66,8.78-.29-.09-.57-.19-.86-.28.94-3.41,2.08-6.79,2.78-10.25,3.46-17.12-.84-32.39-11.11-46.27-4.7-6.35-11.06-10.64-17.47-14.93-.59-.4-3.76-.35-.84-2.47.91-.66-.82-1.18-1.44-1.47-8.41-3.93-17.19-6.56-26.48-7.16-15.99-1.03-31.28,1.44-45.45,9.34-.42.23-.95.26-1.42.39Z" style="fill: #83bbf3; stroke-width: 0px;"/>
  <path d="M360.37,129.6c-5.71,1.04-11.33,1.04-16.67-1.63-.76-.38-1.42-.95-2.12-1.43-8.28-5.14-10.46-13.32-11.14-22.26-.71-9.39.29-18.49,4.44-27.09-.01-1.24.56-2.21,1.42-3.04.89-.16,1.92-.37,1.56,1.09-.35,1.45-.85,2.86-1.36,4.26-3.82,10.47-4.03,21.1-1.79,31.95,1.56,7.55,5.73,12.65,13.09,14.84,7.9,2.34,14.57-.24,20.55-5.54,1.08-.96,1.55-3.97,4.18-2.12-3.06,4.76-6.49,9.11-12.16,10.97Z" style="fill: #156ddf; stroke-width: 0px;"/>
  <path d="M393.38,216.72c-4.08,0-8.19.29-12.01-1.64-7.15-3.99-11.89-9.83-12.68-18.11-1.24-13.01-.13-25.78,5.11-37.95.53-1.24.82-2.66,2.38-3.11,1.93,2.24-.3,4.02-.87,5.82-2.62,8.22-4.19,16.72-4.08,25.2.09,7.01-.74,14.67,5.67,20.45,7.23,6.51,17.39,7.47,25.21,1.57q1.86-1.4,3.24-.61c-.95,2.52-3.21,3.77-5.17,5.3-1.83,1.97-4.37,2.4-6.79,3.09Z" style="fill: #1265de; stroke-width: 0px;"/>
  <path d="M400.17,213.64c1.3-2.18,3.2-3.77,5.17-5.3,3.31-2.3,4.03-6,5.35-9.13-.8-1.71-2.28,1.98-2.25-.54.08-6.9-1.07-13.91,1.31-20.66.11-.3.43-.53.9-1.08v4.95c1.78-5.58,4.01-10.97,8.31-15.01,4.24-3.98,8.85-7.58,14.09-10.24.01.28.03.55.04.83-3.67,3.37-8.19,5.58-11.88,8.99-6.51,6-9.19,13.37-9.19,22.01,0,4.22.71,8.53-.77,12.62-2.03,5.61-4.83,10.63-11.08,12.56Z" style="fill: #7db2f0; stroke-width: 0px;"/>
  <path d="M377.49,261.24c-3.35-4.05-6.36-8.2-6.97-13.72-.22-1.94-.27-3.66.6-5.46,1.57,1.55,1.03,3.59,1.42,5.39,2.89,13.68,16.9,19.58,29.4,12.43.98-.56,2.22-2.95,3.33-.02.03.57-.25.95-.72,1.22-.82.57-1.64,1.14-2.32,1.89-.71.53-1.41,1.06-2.12,1.59-3.16.34-6.11,1.71-9.4,1.61-5.02-.16-9.34-1.85-13.22-4.91Z" style="fill: #0d5dd5; stroke-width: 0px;"/>
  <path d="M404.4,260.69c.29-.28.58-.56.87-.83,4.99-5.01,6.88-9.39,6.64-15.75-.93,1.44-.69,3.3-2.68,4.3.59-4.79-.11-9.08-2.32-13.2-2.28-4.24-6.03-6.46-10.11-8.39.86-2.29,2.54.2,3.61-.91-.33-.59-.69-1.22-1.04-1.85,7.59,2.94,11.91,8.6,13.44,16.45,1.55,7.92-1.04,14.61-6.52,20.3-.39.4-1.09.49-1.65.73-.2-.14-.31-.32-.3-.52,0-.21.03-.32.08-.32Z" style="fill: #80b5f1; stroke-width: 0px;"/>
  <path d="M404.4,260.69c.07.28.15.56.22.84-.5.97-1.28,1.47-2.38,1.44-.3-1.72,1.06-1.87,2.16-2.27Z" style="fill: #318dea; stroke-width: 0px;"/>
  <path d="M417.94,308.93c-1.23.91-2.66.49-3.99.49-14.58.04-29.16.02-44.12.02,1.59,1.46,3.15,1.49,4.73,1.52,9.06.2,18.04,1.29,26.89,3.15,3.52.74,6.76,2.33,9.46,4.97,3,2.93,2.44,6.9,3.29,10.4,1.83,7.57,3.15,15.27,4.65,22.92.19.95.63,1.59,1.48,2,0,14.46,0,28.93,0,43.94-1.99-2.8-1.86-5.67-2.12-8.22-1.23-12.2-1.83-24.48-3.26-36.65-.6-5.06-.02-10.19-1.31-15.19-.49-1.9-1.05-3.39-3.11-1.96-1.49,1.03-2.77.5-3.82-.09-11.44-6.37-24.01-8-36.74-9.72-11.93-1.61-23.93-2.1-35.87-3.24-8.97-.85-18-1.8-27.1-2.01-13.24-.3-26.44.35-39.66.29-13.64-.06-27.13-.93-40.69-2.75-10.98-1.48-21.8-3.23-32.37-6.37-7.83-2.33-15.89-4.45-22.14-10.2-4.76-4.38-10.36-8.55-11.19-15.44-.57-4.71-1.7-9.38-1.09-14.43.47-3.88,1.62-7.89,1.08-11.89-.31-2.33,1.3-3.94,1.85-5.94,2.63-9.57,5.26-19.16,6.33-29.02.37-3.46,2.01-4.78,4.64-5.84,1.49-.6,3.05-1.04,4.57-1.56.05,10.34.15,20.69.13,31.03-.03,13.59,4.87,25.43,13.26,35.78,12.85,15.83,29.69,23.81,50.09,23.88,25.3.09,50.61-.04,75.91-.08,22.32.02,44.64.04,66.96.08,11.09.02,22.19.1,33.28.15Z" style="fill: #1b3cbb; stroke-width: 0px;"/>
  <path d="M303.45,390.41c-.29,1.97-1.37,3.32-3,4.49-12.18,8.81-25.54,11.11-40.02,7.49-6.36-1.59-11.1-5.38-14.5-10.93-.45-.74-.95-1.46-1.43-2.19-3.8-5.76-6.07-6.17-10.98-1.19-8.94,9.05-19.37,15.2-32.06,16.87-11.65,1.52-22.63-.67-31.95-8.17-7.56-6.08-10.64-6.5-19.26-1.41-8.14,4.81-16.41,9.4-25.89,11.11-12.83,2.32-24.9-.15-34.47-8.77-6.94-6.25-8.06-15.35-5.58-24.59,3.1-11.54,10.83-19.04,20.97-24.5.95-.51,2.33-1.73,2.7.65.42,1.62-.67,2.86-1.06,4.28-1.97,3.46-1.25,7.5-2.41,11.13-3.65-1.85-5.14.88-6.82,3.22-.44.61-.85,1.23-1.25,1.87-6.74,10.8-2.94,22.6,9.1,27.17,11.69,4.43,23.26,3.26,34.48-2,1.23-.58,2.49-1.21,3.11-2.57,1.59-2.24,4.57-2.25,6.46-4.03,6.04-4.36,10.49-9.83,12.21-17.25.27-1.18.48-2.47,1.69-3.2,6.36-.36,8.78-5.62,12.13-9.73,2.98-3.65,5.98-7.28,9.05-10.84.39-.45,1.35-1.62,1.88.09.15,1.16-.24,2.18-.79,3.16-2.9,5.22-3.86,10.82-3.34,16.72.08.96.39,1.93.04,2.89-2.79,3.32-4.52,7.44-7.81,10.41-1.78,1.61-1.32,3.5-.5,5.49,2.49,6.06,7.37,9.24,13.29,11.09,9.42,2.95,18.67,2.08,27.71-1.67,1.37-.57,2.76-1.18,3.64-2.5,2.34-2.52,6-2.69,8.54-4.85,6.8-4.52,10.71-10.92,12.3-18.85.27-1.33.45-2.72,1.58-3.69,3.02,2.23,3.99,2.02,6.04-1.59,2.75-4.84,5.32-9.8,8.12-14.61,4.54-7.8,11.52-11.99,20.32-13.42,1.03-.17,1.35.22,1.51,1.06-2.87,2.71-6.61,4.25-9.32,7.25-3.49,3.86-6.1,8.1-7.3,13.17-.4,1.21-.43,2.49-.72,3.72-.57,1.96-.56,3.92,0,5.87,2.68,15.09,11.29,23.25,27.05,25.62,1.81.57,3.61.54,5.42-.04,2.73-.54,5.49-.96,8.04-2.2.95-.46,2.01-1,3.03-.05Z" style="fill: #2551c9; stroke-width: 0px;"/>
  <path d="M181.49,367.82c-.37-7.31.68-14.27,5.1-20.39,4.44-4.96,9.26-9.29,15.9-11.23,19.06-5.56,37.5,7.39,38.61,27.21.04.75.11,1.49.16,2.23-1.06,9.73-5,17.79-13.5,23.2-11.33,4.55-22.08,3.81-32.23-3.34-4.21-2.97-6.99-7.04-9.49-11.38-1.3-2.26-2.35-4.69-4.55-6.3Z" style="fill: #dfdfdf; stroke-width: 0px;"/>
  <path d="M260.02,357.42c2.16-9.82,8.1-16.43,17.23-20.34,12.38-4.2,23.55-2.51,32.98,6.98,13.02,13.09,10.45,34.92-5.19,44.86-8.13,3.37-16.39,3.92-24.71.87-11.46-4.19-20.33-16.98-20.3-29.14,0-1.08-.8-2.16-.01-3.24Z" style="fill: #e1e1e1; stroke-width: 0px;"/>
  <path d="M106.43,352.92c.53-1.22,1.05-2.43,1.58-3.65,4.73-6.64,10.52-11.72,18.75-13.68,18.93-4.53,36.76,9.47,36.73,28.96,0,1.12.02,2.23.03,3.35-1.57,8.92-5.5,16.31-13.6,21-11.62,4.42-22.86,4.08-32.65-4.13-9.86-8.26-12.95-19.29-10.84-31.86Z" style="fill: #ddd; stroke-width: 0px;"/>
  <path d="M260.02,357.42c1.08,4.42,1.06,9.03,2.99,13.34,5.1,11.39,12.88,18.64,25.98,19.82,5.63.51,10.68-1.46,16.05-1.65-.53.5-1.06.99-1.59,1.49-3.71,1.34-7.35,2.9-11.36,3.18-1.65.21-3.3.19-4.95.01-16.26-1.14-26.77-13.36-28.12-26.54-.18-1.95-.23-3.91.03-5.86.44-1.23-.28-2.76.96-3.79Z" style="fill: #a8acc0; stroke-width: 0px;"/>
  <path d="M412.07,117.67c5.44-17.38-4.69-29-21.73-31.47,10.58-2.1,21.34.27,27.87,8.79,3.74,4.87,4.02,11.8.12,16.6-1.8,2.21-3.06,5.22-6.26,6.08Z" style="fill: #adb3de; stroke-width: 0px;"/>
  <path d="M376.17,155.91c-5.85,11.37-7.22,23.55-6.93,36.15.12,5.39.98,10.4,3.99,14.86,2.17,3.21,5.27,5.59,8.13,8.17-7.63-2.48-11.95-8.25-13.24-15.63-2.93-16.71.29-32.6,8.21-47.56.27-.5.89-.82,1.34-1.22.37,2-1.98,3.21-1.5,5.24Z" style="fill: #7691d7; stroke-width: 0px;"/>
  <path d="M394.9,130.55c.58-1.39,1.44-2.4,3.12-2.28-.87.99-1.75,1.97-3.12,2.28Z" style="fill: #adb3de; stroke-width: 0px;"/>
  <path d="M408.33,120.66c.66-1.18,1.49-2.14,2.96-2.25-.62,1.23-1.48,2.15-2.96,2.25Z" style="fill: #adb3de; stroke-width: 0px;"/>
  <path d="M385.88,87.02c-1.04,1.15-2.35,1.56-3.86,1.39,1.09-1,2.41-1.4,3.86-1.39Z" style="fill: #adb3de; stroke-width: 0px;"/>
  <path d="M390.35,86.19c-1.06,1.33-2.52.65-3.82.74,1.15-.9,2.5-.73,3.82-.74Z" style="fill: #adb3de; stroke-width: 0px;"/>
  <path d="M334.88,77.2c-.86,4.58-2.97,8.85-3.35,13.57-.77,9.43-.87,18.78,3.07,27.67,1.5,3.39,4.97,5.14,6.98,8.11-4.24-1.5-7.25-4.59-8.74-8.56-5.01-13.32-4.74-26.66.97-39.79.18-.41.71-.67,1.07-1Z" style="fill: #3999ee; stroke-width: 0px;"/>
  <path d="M219.48,393.07c.18,1.24-.62,1.8-1.57,2.24-12.91,5.97-25.66,6.83-38.33-.86-3.72-2.26-5.25-5.93-6.97-9.42-.83-1.69-.88-4.16,1.69-5.46,1.46-.73,2.29-2.2,3.08-3.65,1.19-2.17,2.41-4.36,4.58-5.78,1.31.59,1.51,1.88,1.93,3.04,4.39,12.13,14.47,19.12,27.49,19.21,2.7.02,5.49-.63,8.1.67Z" style="fill: #254fc6; stroke-width: 0px;"/>
  <path d="M143.83,392.36c.1,1.11-.36,1.88-1.34,2.45-11.65,6.69-29.7,8.61-41.25.94-9.85-6.54-13.61-16.47-4.66-28.06.91-1.18,1.77-2.4,2.75-3.52,2.52-2.86,2.99-2.77,4.7.73,1.93,2.32,1.26,5.2,1.73,7.84-1.47,7.34,1.07,13.7,5.06,19.59,2.08,3.07,5.61,3.55,8.97,3.69,4.57.19,9.17.46,13.45-.75q-3-.51-3.16-2.39c4.56-.77,9.12-1.25,13.73-.5Z" style="fill: #254fc6; stroke-width: 0px;"/>
  <path d="M105.03,372.98c-.86-2.63-.69-5.39-.98-8.08.21-4.11-.09-8.32,2.39-11.97-.12,5.99.55,11.86,2.25,17.63,3.26,11.04,15.29,20.46,27.25,19.97,4.75-.2,9.32-1.16,13.99-1.61-1.41,2.25-4.25,1.96-6.09,3.46-4.62,1.33-9.37,1.05-14.1,1.09-.59.6-1.33.58-2.08.5-8.46-.85-19.69-10.04-22.16-18.06-.3-.97-.08-1.98-.47-2.91Z" style="fill: #a1a5ba; stroke-width: 0px;"/>
  <path d="M219.48,393.07c-9.75,1.04-19.12.52-27.14-6.16-5.34-4.45-8.81-10.01-10.37-16.76-.16-.77-.32-1.55-.48-2.32,3.34.18,3.91,3.13,5.06,5.31,4.58,8.71,11.22,14.77,21.05,16.86,5.54,1.17,11.05.79,16.51-.53,1.21-.29,2.38-.71,3.64-.61-2.29,2.33-5.65,2.55-8.28,4.22Z" style="fill: #a4a8bc; stroke-width: 0px;"/>
  <path d="M259.06,361.2c-.01,1.95-.02,3.91-.03,5.86-.79-1.96-.84-3.91.03-5.86Z" style="fill: #2a6ddb; stroke-width: 0px;"/>
  <path d="M287.14,393.6c1.65,0,3.3,0,4.95-.01-1.65.79-3.3.76-4.95.01Z" style="fill: #2a6ddb; stroke-width: 0px;"/>
  <path d="M105.03,372.98c2.95,6.65,6.82,12.49,13.29,16.35,3.58,2.14,7.42,3.29,11.42,4.12,2.09,1.64,4.86-.23,7.17,1.3-1.71,1.91-4,1.71-5.92,1.96-5.43.7-10.92.88-16.31-.47-3.8-.95-5.6-3.94-6.99-7.21-2.18-5.12-4.84-10.19-2.65-16.04Z" style="fill: #1e3baf; stroke-width: 0px;"/>
</svg>