<?xml version="1.0" encoding="UTF-8"?>
<svg id="Layer_1" data-name="Layer 1" xmlns="http://www.w3.org/2000/svg" viewBox="0 0 555.92 597.84">
  <path d="M110.95,534.92c-2.66-1.51-4.68-3.78-6.86-5.86-4.46-4.59-9.01-9.09-13.56-13.59-1.42-1.07-2.75-2.22-3.58-3.83-.95-1.78-2.49-3.05-3.91-4.42-.67-.32-1.18-.77-1.34-1.54-.58-1.17-1.31-2.22-2.43-2.95-.9-.57-1.7-1.24-2.06-2.29-.54-1.18-1.38-2.13-2.32-3.01-2.92-3.33-6.01-6.54-8.16-10.47-.43-1-.4-1.78.97-1.6.89.12,1.59.75,2.13,1.41,3.36,4.13,7.47,7.59,10.45,12.05,8.33,9.67,17.8,18.08,27.83,25.95,27.35,21.45,58.4,34.58,92.22,41.63,12.22,2.55,24.59,4.26,37.04,4.67,7.55.25,15.18-.97,22.45-3.45,5-1.71,5.86-4.78,2.4-8.64-1.99-2.22-3.18-4.79-3.85-7.59-3.45-14.39-10.26-27.25-17.92-39.73-3.65-5.95-6.94-12.12-10.71-17.99-1.69-2.62-3.25-5.34-6.52-6.42-.8-.26-1.99-.83-1.19-2.2,2.88-1.27,5.56-.81,8.07.98,5.31,7.2,9.32,15.22,14.02,22.81,5.48,8.86,10.75,17.85,15.97,26.87.68,4.82,2.69,9.08,5.72,12.82,3.14,3.87,6.23,4.04,9.72.54,3.04-3.05,6.4-4.2,10.82-3.52,6.06.94,11.88,2.85,17.89,3.96,7.87,1.46,15.82,2.34,23.76,2.73,6.69.33,12.9-2.46,18.64-5.94,11.4-6.9,19.36-17.01,26.58-27.94,9.98-15.12,18.4-31.14,27.48-46.77,7.7-13.26,16.14-26.1,23.18-39.74,5.1-9.88,9.01-20.27,12.26-30.92,2.81-9.18,2.27-18.56,1.72-27.85-.55-9.2-2.01-18.34-4.38-27.29-1.4-5.29-2.67-10.63-5.43-15.44-1.01-1.33-1.28-2.96-1.77-4.5-3.46-10.97-7.93-21.55-12.82-31.94-2.43-5.17-4.95-10.27-8.68-14.79-3.89-4.72-6.1-10.57-9.17-15.85-1.55-2.67-3.25-5.22-5.49-8.19.51,1.03.28.45.46.92.71,1.76,2.72,4.34.87,5.28-2.53,1.28-3.55-1.98-4.59-3.78-2.28-3.97-2.18-4.06-6.17-1.56-14.19,8.86-28.1,18.14-42.23,27.07-1.15.73-2.2,1.7-3.74,1.36-2.23-.94-1.86-2.68-1.32-4.42,2.85-9.23,6.88-17.85,12.19-25.99,8.56-13.14,15.41-27.1,17.98-42.8.18-1.11.31-2.22.39-3.34.47-7.06-1.6-12.78-8.25-16.24-1.93-1-3.59-2.33-3.59-4.83,1.13-6.16,4.07-11.73,5.8-17.7.55-1.91,1.33-3.76,1.86-5.67.41-1.5,1.91-3.44.58-4.48-1.41-1.1-3.63-.27-5.26.66-3.03,1.74-6.36,2.84-9.42,4.51-1.63.89-3.22,1.37-4.86.05-.31-.47-.38-.99-.29-1.54.88-1.6,0-2.84-.84-4.1-10.91-16.42-21.31-33.17-32.28-49.54-.89-1.33-1.63-2.88-3.55-3-.34-.14-.56-.39-.68-.73.73-1.68.57-3.01-.69-4.6-3.77-4.8-7.75-9.32-12.65-13.02-.96-.73-2.93-1.3-1.7-3.31,2.11-.42,3.54,1.02,5.07,1.99,2.24,1.43,4.46,1.77,7.1,1.25,12.37-2.41,23.31-.05,32.81,8.97,6.11,5.8,11.4,12.19,16.49,18.81,10.24,13.33,20.13,26.9,29.07,41.15-10.88-17.63-22.32-34.87-35.48-50.89-6.49-7.9-14.65-13.86-23.83-18.37-1.42-.7-2.85-.63-4.38-.51-4.43.37-8.73-.28-12.68-2.4-3.26-1.75-3.42-3.15-.74-5.58,3.71-3.37,6.77-7.33,10.15-11,5.07-5.51,10.94-9.24,18.68-9.25.5,0,1.08.14,1.48-.1,4.51-2.68,8.68-.52,12.92.82,12.34,3.88,23.54,10.14,34.45,16.9,21.46,13.3,38.69,31.25,55.1,50.17,20.98,24.21,34.16,52.56,44.83,82.32,7.14,19.91,11.6,40.53,16.16,61.13.27,1.21.39,2.47,1.11,3.64,1-17.22-2.38-33.85-6.04-50.41-2.53-11.46-5.93-22.69-9.42-33.9-1.41-4.53-2.02-9.04-1.83-13.93.19-5-.27-10.18-.95-15.24-.5-3.74-.45-7.48-.27-11.21.14-2.95,1.68-4.24,4.16-2.88,6.35,3.48,13.3,3.01,20.04,3.59,5.77.5,9.79,3.34,13.07,7.69,1.13,1.5,2.3,2.95,3.57,4.32,4.78,7.59,8.62,15.67,12.13,23.91.15.33.28.67.39,1.01.34,1.62,1.41,2.88,2.15,4.3,1.07,3.38,2.81,6.5,3.84,9.9.41,1.37,1.15,2.78-.06,4.14-.25.03-.62.1-.72-.05-2.65-3.99-5.93-2.92-9.67-1.72-3.15,1.02-6.62,1.07-10,1.23-4.91.23-6.89,2.41-7.02,7.36-.37,14.49,1.22,28.88,1.87,43.32.63,14.04,1.84,28.09.64,42.23-.78,9.17-.82,18.42-1.79,27.6-1.63,15.42-4.63,30.57-8.44,45.59-3.66,14.42-8.19,28.57-13.6,42.4-7.1,18.15-15.63,35.61-26.26,52.03-13.03,20.11-28.17,38.46-45.28,55.14-16.68,16.27-34.52,31.24-55.95,40.9-24.98,11.26-50.7,20.94-78.19,23.56-31.15,2.96-62,1.05-92.08-9.03-24.22-8.11-46.8-19.26-67.85-33.65-3.3-2.25-6.78-4.22-10.06-6.51-.6-.41-1.22-1.01-1.88-.07Z" style="fill: #66a435; stroke-width: 0px;"/>
  <path d="M49.49,115.12c.63-1.67,1.5-3.18,2.85-4.38,5.27-7.24,10.88-14.22,16.65-21.07,11.52-13.67,24.81-25.18,40.52-33.85,4.47-2.47,9.02-4.81,13.41-7.43.32-.17.65-.31.99-.44,1.3-.34,2.25-1.23,3.28-2.02,14.65-7.54,30.1-12.68,46.35-15.28,16.14-2.58,32.39-4.34,48.75-3.98,11.19.25,22.39,1,33.39,3.57,4.66,1.09,7.92,3.24,9.34,7.97.79,2.62,2,5.09,3.23,7.55,1.67,3.34.68,7.1,1.14,10.66.7,5.37.64,10.92-.69,16.33-1.08,4.37-3.16,6.91-8.09,7.95-4.79,1.01-9.36,2.03-14.24,1.19-1.74-.3-3.48.07-5.02,1.05-1.29.42-2.62.52-3.97.47-4.91.15-9.85-.53-14.74.47-9.91.55-19.8,1.44-29.72,1.89-7.54.34-15.11.99-22.47,2.95-5.59.14-10.82,1.5-15.46,4.75-6.46,5.07-9.24,12.54-12.81,19.5-11.09,21.62-21.21,43.69-30.23,66.25-.79,1.97-1.32,4.04-2.28,5.93-1.76,3.46-1.77,6.66,1.08,9.58-.51,5.67,2.9,8.9,7.18,11.67,8.36,5.43,16.89,10.61,25.24,16.05,1.46.95,2.95,1.89,4.15,3.17,2.39,2.56,1.74,4.8-1.71,5.7-2.07.54-4.22.23-6.33.31-3.47.12-6.99-.41-10.41.65-12.14,1.01-24.32,1.14-36.47,1.74-8.44.41-16.88.76-25.29,1.61-1.38.14-2.69.49-3.92,1.07-1.22,1.3-.02,2.02.72,2.77,1.68,1.69,3.03,3.67,4.72,5.31,3.43,3.34,3.33,6.99,1.59,10.98-3.34,7.66-6.83,15.26-10.24,22.89-6.09,13.67-12.74,27.1-17.57,41.3-.44,1.3-.82,2.62-1.07,3.97-4.43,12.52-4.1,24.79,1.28,37.04,2.19,4.98,4.79,9.86,5.97,15.26-.65,1.55-.52,3.05-.09,4.69,3.15,12.02,8.61,23.14,13.6,34.4,6.98,15.72,14.36,31.28,22.42,46.48,6.95,13.11,13.84,26.25,23.31,37.83,7.45,9.12,16.06,17.04,24.76,24.89.28.25.6.45.88.7,1.6,1.43,3.68,3.12,2.43,5.3-1.46,2.53-3.9.74-5.62-.12-13.96-6.94-28.01-13.86-39.96-24.06-10.84-9.25-20.27-19.9-28.97-31.18-2.13-2.77-4.26-5.54-6.27-8.39-.81-1.15-2.09-2.32-1.04-4.01,2.05-.19,2.71,1.5,3.65,2.75,13.01,17.23,28.78,31.43,46.99,42.95.52.33.99.77,1.69.83.51-.87-.3-1.33-.69-1.81-12.6-15.85-24.31-32.36-34.46-49.86-13.75-23.7-25.1-48.54-33.13-74.8-5.59-18.28-10.54-36.71-13.52-55.62-2.69-17.1-2.82-34.26-1.55-51.48,1.4-18.86,4.83-37.39,9.88-55.56,6.29-22.64,14.5-44.55,25.19-65.59,8.07-15.87,17.6-30.74,27.82-45.2,4.45-6.3,9.61-12.12,14.86-17.8,7.45-8.06,14.92-16.12,22.98-23.59,1.19-1.1,2.05-2.45,3.21-4.39-5.06.92-9.2,2.64-13.08,4.71-8.91,4.75-18.09,9.05-26.44,14.82-8.76,6.06-16.83,12.87-23.82,20.95-3.75,4.34-7.54,8.66-11.56,12.75-.82.84-1.63,2.41-3.01,1.53-1.61-1.02.27-2.13.4-3.23Z" style="fill: #90c645; stroke-width: 0px;"/>
  <path d="M110.95,534.92c-.31-.66-.63-1.32-.95-2,1.2-.78,1.83.25,2.6.75,14.12,9.07,27.98,18.57,43.05,26.1,21.07,10.52,43.26,17.64,66.32,22.07,13.75,2.64,27.7,2.76,41.64,2.36,17.28-.49,34.43-2.14,51.02-7.45,24.68-7.9,49.37-15.82,70.54-31.51,8.48-6.29,16.67-12.91,24.47-20.08,7.73-7.09,15.07-14.51,22.01-22.32,13.65-15.35,25.93-31.7,36.27-49.51,11.1-19.12,19.6-39.35,26.48-60.26,4.84-14.72,8.66-29.74,11.5-45.02,3.12-16.76,4.78-33.59,5.32-50.62.22-6.96.79-13.95.45-20.88-.75-15.24-1.33-30.49-2.73-45.7-.67-7.3-.29-14.72-.05-22.08.12-3.51,3.5-5.64,7.91-5.85,5.18-.25,10.47-.08,15.08-3.16,1.38-.92,2.06.21,2.73,1.05.91,1.16,1.09,2.83,2.51,3.64,2.18.66,2.41,2.65,2.95,4.39,4.24,13.61,7.76,27.41,10.08,41.49.1.6.48,1.14.54,1.77.1,1.39-.13,2.82.64,4.11.1,2.2.32,4.38.86,6.53,0,.62-.11,1.21-.47,1.73-1.3.89-1.9,2.16-2.33,3.68-1.4,4.98-4.31,8.33-9.87,8.76-1.73.13-3.46.48-5.17.86-5.64,1.25-8.17,3.91-8.69,9.69-.45,4.96-1.23,9.91-.89,14.93.45,6.51-.81,12.94-.82,19.43,0,1.66-.31,3.44-1.67,4.42-2.67,1.91-3,4.72-3.45,7.56-3.65,23.1-8.95,45.81-16.46,67.97-12.89,38.02-32.09,72.53-58.38,102.92-18.48,21.36-39.47,39.9-63.82,54.44-22.05,13.16-45.64,22.52-70.71,27.94-10.22,2.21-20.6,3.5-31.07,4.32-35.27,2.79-68.99-3.98-101.99-15.67-2.79-.99-5.42-2.5-8.45-2.8-16.63-7.63-31.84-17.56-46.23-28.79-3.72-2.9-7.67-5.57-10.77-9.21Z" style="fill: #529332; stroke-width: 0px;"/>
  <path d="M54.07,462.89c2.06,5.02,5.88,8.86,9.09,13.06,6.5,8.5,13.88,16.24,21.38,23.88,8.39,8.55,18.36,14.81,28.63,20.65,6.06,3.45,12.33,6.53,18.6,9.58,1,.49,2.71,1.91,3.62.26.78-1.42-.53-2.87-1.68-3.81-6.46-5.29-12.59-10.92-18.34-16.97-9.12-9.59-16.74-20.23-23.25-31.79-5.63-9.99-10.87-20.17-16.04-30.37-6.52-12.87-12.26-26.13-18.15-39.31-4.05-9.07-8.14-18.15-10.56-27.86-.32-1.27-1.27-2.64.71-3.43,1.4.37,1.85,1.58,2.29,2.72,4.06,10.4,8.92,20.44,13.35,30.68,8.44,19.23,17.56,38.11,28.36,56.15,1.21,2.03,2.37,4.1,4.39,5.47,2.41,2.77,5.3,5.14,7.19,8.36,5.68,9.66,12.37,18.45,21.89,24.67,16.65,10.86,35.06,17.2,54.45,20.99.86.17,1.71.36,2.55.58,10.52,2.71,20.44-3.18,23.02-13.85,1.08-4.49,2.24-8.96,3.59-13.37.4-1.31.82-2.63,1.56-3.8,1.82-2.86,4.1-3.1,6.34-.49,2.84,3.32,5.39,6.89,7.77,10.54,7.16,10.98,14.18,22.06,17.54,34.95,1.36,5.23,1.96,10.5.92,15.92-1.32,6.91-5.95,10.82-13.03,11.75-11.49,1.5-22.61-.51-33.71-2.86-17.76-3.77-34.92-9.43-51.39-17.03-13.84-6.39-26.42-14.95-38.53-24.16-9.85-7.49-18.81-15.94-27.07-25.14-3.64-4.02-7.27-8.05-10.94-12.04-.57-.62-1.42-1.95-1.87.15-12.65-16.58-23.2-34.43-32.21-53.21-.44-.8-.34-1.42.59-1.77,1.85.57,2.14,2.39,3.03,3.73,1.87,3.59,3.94,7.06,6.17,10.44,2.18,4.47,5.08,8.48,7.92,12.54.88,1.26,2.33,2.32,1.85,4.2Z" style="fill: #83be3f; stroke-width: 0px;"/>
  <path d="M260.64,597.07c-.45-.02-.89-.04-1.34-.05-.89-1.91.6-2.22,1.79-2.33,2.61-.25,5.16-.86,7.8-.93,20.42-.52,40.39-3.83,59.97-9.62,31.65-9.35,60.14-24.72,85.66-45.51,20.61-16.79,38.3-36.34,53.48-58.2,14.64-21.09,26.62-43.6,37.1-66.98,4.48-10,8.06-20.41,13.45-30.02,3.25-5.79,8.45-8.52,14.55-9.95,2.68-.63,5.33-1.03,7.63-2.8,3.7-2.85,4.89-2.31,5.75,2.35.09.49.18.98.22,1.48-.06,2.28-.81,4.42-1.34,6.6-.74,1.86-1.69,3.65-1.86,5.7-.1,1.53-.45,3-1.12,4.38-2.5,6.76-4.61,13.66-7.24,20.38-.54,1.39-.99,2.82-1.75,4.12-2.28,2.95-4.42,5.98-6.17,9.3-1.73,3.29-4.22,5.7-7.79,7.12-3.57,1.42-6.94,3.35-10.36,5.11-1.33.68-2.68,1.42-3.6,2.61-4.26,5.5-8.18,11.22-11.66,17.25-1.72,3.69-4.56,6.74-6.04,10.57-4.13,7.31-9.53,13.74-14.5,20.45-5.94,8.02-11.27,16.49-17.76,24.1-4.05,4.74-8,9.56-12.21,14.17-15.25,15.55-32.25,28.84-51.05,39.85-9.68,5.67-19.87,10.22-30.28,14.31h-.02c-1.21.6-2.56.83-3.74,1.49h-.02c-1.21.6-2.54.91-3.77,1.44h-.02c-3.4,1.55-7.03,2.43-10.52,3.7-17.53,5.37-35.32,9.35-53.74,9.94-9.84.46-19.67.44-29.51,0Z" style="fill: #2e501e; stroke-width: 0px;"/>
  <path d="M54.07,462.89c-3.57-5.44-7.92-10.39-10.5-16.47,1.02-.51,1.6.24,2.26.77.24.24.45.52.65.8.53.88,1.2,1.65,1.87,2.43.23.27.43.56.63.85,9.91,15.73,23.71,27.7,37.93,39.29-7.65-11.27-14.74-22.86-21.43-34.7-13.42-23.77-24.18-48.67-31.9-74.87-.64-2.16-1.3-4.3-2.28-6.34-4.9-16.17-7.7-32.75-9.73-49.47-.82-6.79-1.6-13.61-1.56-20.48-.08-3.75.5-7.53-.48-11.25-.45-3.66-.47-7.31,0-10.97,1.12-4.87.29-9.81.53-14.71-.07-1.09.07-2.17.28-3.24.83-2.41.39-4.91.55-7.37.03-.61.13-1.21.26-1.8.73-3.65,1.23-7.33,1.37-11.05.05-.38.13-.75.24-1.12,2.64-16.76,6.29-33.29,11.32-49.5,10.85-34.97,27.17-67.2,48.71-96.87-13.93,7.13-40.11,35.63-52.14,56.73-.37.47-.83.8-1.43.91-1-.3-1.12-.94-.68-1.79,6.18-12.97,12.8-25.69,20.96-37.55.39.94-.88,1.84.04,2.98,7.03-7.58,13.77-15.37,21.08-22.58,8.79-8.67,18.87-15.67,29.99-21.19,6.67-3.31,12.97-7.39,20.03-9.93.47-.17.89-.49,1.37-.6,2.19-.5,4.24-1.84,6.63-1.06-.8,2.25-2.31,4.11-3.88,5.76-3.51,3.71-7.39,7.06-10.97,10.71-11.59,11.81-23,23.89-32.12,37.68-8,12.09-15.83,24.31-22.31,37.45-8.34,16.91-15.51,34.16-21.3,52.06-5.36,16.57-8.96,33.51-11.85,50.67-2.89,17.17-3.44,34.42-2.69,51.68.59,13.61,3.26,27.02,6.42,40.32,5.5,23.15,12.18,45.91,21.76,67.71,9.77,22.25,21.19,43.63,35.21,63.54,6.29,8.94,12.53,17.91,19.53,26.33.32.38.66.78.83,1.23.4,1.06,2.28,1.95.99,3.16-.9.85-1.99-.43-2.9-1-13.72-8.7-26.41-18.69-37.38-30.72-4.09-4.49-7.77-9.36-11.57-14.11-.71-.88-1.27-1.84-2.33-2.34Z" style="fill: #98d25d; stroke-width: 0px;"/>
  <path d="M167.95,572.91c2.98-1.05,5.52.68,8.03,1.59,17.57,6.35,35.52,11.28,53.98,14.12,14.14,2.17,28.46,3.1,42.76,2.29,23.55-1.33,46.45-5.95,68.6-14.26,17-6.37,32.99-14.63,48.11-24.58,8.71-5.73,16.86-12.25,24.85-18.97,6.22-5.23,11.68-11.22,17.51-16.83,11.8-11.34,21.62-24.31,30.98-37.66,18.59-26.52,32.11-55.52,41.62-86.39,5.96-19.34,10.54-39.02,13.48-59.07.41-2.8,0-6.28,3.94-7.59.94-.31,1.2-2.06,1.2-3.38.02-8.21,1.09-16.39.81-24.62-.12-3.7.28-7.45.79-11.13.84-6.05,3.69-8.66,10.36-9.96,1.7-.33,3.42-.59,5.13-.84,4.95-.73,7.38-3.2,8.43-8.3.29-1.42-.03-3.85,2.85-2.96.93.53.78,1.63,1.27,2.39.23.53.29,1.08.3,1.65.17,1.89-.4,3.85.57,5.65.1.39.16.78.17,1.18.07,2.64-.22,5.31.68,7.88.08.64.08,1.28.09,1.92.03,4.65-.2,9.31.68,13.91.06,4.72.23,9.45-.09,14.16-.15.41-.43.7-.84.87-1.12-.17-1.09-1.12-1.3-1.94-.33.65-.47,1.36-.64,2.03-1.92,7.75-6.45,12.46-14.78,12.72-6.84.21-9.79,4.72-11.45,10.46-3.75,12.94-7.2,25.97-11.03,38.88-10.17,34.26-23.8,66.99-43.24,97.09-20.41,31.6-45.92,58.41-77.12,79.53-29.12,19.71-61.07,32.55-95.85,38.17-16.44,2.66-33.03,3.1-49.6,2.36-10.81-.49-21.58-1.98-32.31-3.6-1.36-.21-2.72-.35-4.09-.08-15.6-3.85-30.63-9.21-44.86-16.72Z" style="fill: #427525; stroke-width: 0px;"/>
  <path d="M212.81,589.64c3.86-2.36,7.72-.21,11.55.1,5.55.44,11.05,1.38,16.59,1.98,10.68,1.15,21.41,1.02,32.11.7,17.54-.53,34.78-3.34,51.67-8.13,15.62-4.43,30.7-10.23,45.06-17.84,16.19-8.58,31.31-18.73,45.44-30.46,9.63-7.99,18.49-16.74,26.98-25.83,8.13-8.69,15.37-18.19,22.28-27.94,9.45-13.35,17.72-27.39,24.85-42.06,10.94-22.53,19.64-45.94,26.39-70.1,3.21-11.48,6.08-23.08,9.78-34.41,1.47-4.51,3.64-9.45,10.05-9.48,2.06,0,4.11-1.07,6.19-1.19,4.64-.27,6.53-3.45,8.01-7.1,1.15-2.85,2.1-5.77,3.74-8.72l.31,4.8c1.46,2.27.37,4.75.61,7.12-.68,2.73-.27,5.51-.44,8.27-.26,1.22-.23,2.47-.31,3.71-.5,1.73-.39,3.51-.45,5.27-.17,3.18-1.02,6.27-1.2,9.44.04.35.02.7-.03,1.04-.34,1.59-1.19,3.1-.8,4.82.02.35-.01.69-.08,1.03-.33,1.39-.93,2.73-.85,4.21-.55,3.96-1.31,7.87-2.21,11.76-.33,1.44-.52,2.98-1.95,3.89-.62-.57-.5-1.35-.63-2.08-.58-3.33-1.1-3.48-3.78-1.27-1.73,1.43-3.53,2.54-5.94,2.76-12.83,1.16-17.49,10.73-21.72,21-9.23,22.44-19.35,44.44-31.87,65.32-8.39,14-17.45,27.52-27.85,40.04-10.81,13.02-22.66,25.06-35.62,36.07-14.69,12.48-30.55,23.12-47.57,31.93-13.92,7.2-28.47,13.08-43.62,17.38-14,3.97-28.25,6.61-42.67,8.16-5.03.54-10.11,1.21-15.25.98-2.94-.13-5.92.46-8.88.72-.92.08-1.24.7-1.38,1.49-15.83-.37-31.29-3.02-46.49-7.38Z" style="fill: #3d7223; stroke-width: 0px;"/>
  <path d="M123.74,48.63c-8,4.75-16.14,9.27-23.97,14.29-12.68,8.12-23.13,18.71-32.51,30.41-4.42,5.51-8.88,10.99-13.36,16.45-.36.44-1.03.64-1.55.95,5.84-11.1,13.54-20.87,21.82-30.21,13.2-14.88,28.11-27.92,44.24-39.48,8.61-6.17,17.8-11.63,27.67-15.73,3.7-1.01,7.46-1.52,11.3-1.85,5.95-.51,11.36-3.27,17.07-4.85,14.4-4.75,29.2-7.55,44.24-9.24,12.69-1.42,25.44-1.12,38.13-.6,16.37.68,32.44,3.88,48.18,8.44,27.2,7.87,52.35,20.07,75.53,36.34,7.93,6.23,16.08,12.19,23.7,18.82,1.6,1.39,3.18,2.79,4.71,4.26,2.66,3.06,5.58,5.41,9.96,5.85,2.93.29,5.48,2.22,7.95,3.9,5.85,3.97,11.43,8.3,16.74,12.98,1.25,1.1,2.59,1.9,4.26,2.1,1.62.81,2.26,2.21,1.28,3.66-1.17,1.73-2.71.59-3.88-.23-3.65-2.58-7.26-5.54-11.49-6.77-5.69-1.66-10.6-4.6-15.62-7.46-4.15-2.38-7.17-6.12-10.56-9.33-10.84-10.3-22.67-19.28-35.01-27.64-8.29-6-17.27-10.74-26.77-14.63,1.9,1.77,4.09,3.13,6.21,4.58,2.25,1.55,4.44,3.2,6.74,4.69,1.19.77,3.49,1.32,1.88,3.67-2.73-.26-4.85-1.93-7.09-3.19-24.14-13.54-49.66-23.33-76.94-28.24-16.85-3.03-33.89-4.8-51-3.78-26.39,1.57-52.33,5.68-76.77,16.48-9.57,4.23-18.8,9.14-27.51,14.95.9-.36,1.7-.27,2.41.4Z" style="fill: #88c554; stroke-width: 0px;"/>
  <path d="M550.73,354.28c-.03-.25-.06-.5-.09-.74.16-1.52.3-3.04.84-4.49-.03-.25-.06-.5-.08-.75.35-3.18,1.37-6.28,1.21-9.52,0-.61-.02-1.22.13-1.82.36-2.45.76-4.89.62-7.38,0-.65-.02-1.3.21-1.92.37-4.67.38-9.36.8-14.03,0-4.87,0-9.75.01-14.62-.63-3.58-.09-7.19-.29-10.79-.07-1.21.38-2.49-.4-3.63,0-.46-.02-.91-.03-1.37-.92-2.73.39-5.66-.74-8.37-.09-.2-.1-.39-.02-.6-.82-1.98.28-4.16-.65-6.13-.03-.45-.06-.91-.1-1.36-.69-1.22.12-2.66-.6-3.87-1-2.11-.87-4.38-.91-6.62-.7-1.21.16-2.67-.62-3.87-2.52-10.76-4.8-21.58-7.65-32.25-1.41-5.3-2.55-10.78-5.27-15.68-.13-3.52-1.86-6.51-3.13-9.66-.58-1.45-.85-3.03-1.27-4.55-.72-1.26-1.05-2.73-2.11-3.8-.06-.24-.09-.48-.11-.73-2.96-9.38-7.17-18.23-11.68-26.92-3.32-6.4-6.49-12.89-10.28-19.03-.52-.85-.98-1.75-.61-2.81.33-.28.68-.3,1.04-.05,6.42,9.68,11.54,20.07,16.43,30.57,9.06,19.48,16.08,39.68,21.06,60.58,3.96,16.6,6.68,33.4,8.1,50.42.91,10.94,1.62,21.89,1.31,32.86-1.18,42.27-9.34,83.01-26.81,121.73-11.94,26.48-27.73,50.37-47.03,72.04-19.97,22.43-43.52,40.22-69.94,54.24-15.19,8.06-31.26,14.2-47.24,20.52-.92.36-1.81.88-2.87.62,3.33-2.5,7.39-3.45,11.06-5.21,25.75-12.33,48.85-28.37,68.77-48.88.26-.26.59-.45.88-.68,1.51-.67,2.75-1.69,3.85-2.91,5.3-5.83,11.36-10.84,17.41-15.85,2.52-2.09,5.46-3.48,8.5-4.66,7.16-2.76,12.73-7.54,17.82-13.23,15.12-16.91,26.64-36.1,36.29-56.47,6.35-13.4,11.76-27.18,15.16-41.67.3-1.49.59-2.97.89-4.46,1.49-1.45,1.32-3.56,2.1-5.3-.1-2.34.75-4.49,1.37-6.68,1.22-5.47,2.75-10.88,3.28-16.49,1.14-.99.71-2.56,1.36-3.73Z" style="fill: #a9bda1; stroke-width: 0px;"/>
  <path d="M508.95,136.91c-.31.03-.61.07-.92.1-1.71-.58-2.34-2.19-3.19-3.52-6.57-10.31-13.58-20.32-21.56-29.57-15.27-17.69-31.84-34.02-51.56-46.81-6.07-3.94-12.5-6.96-19.92-8-5.36-.75-10.62-2.67-15.55-5.15-7.57-3.81-15.16-7.57-22.73-11.38-1.67-.84-3.34-1.67-5.22-1.96-9.21-3.47-17.94-8.05-27.12-11.59-2.91-1.12-5.9-2-8.8-3.11-1.49-.57-3.52-.98-3.36-2.94.17-2.12,2.3-1.81,3.85-2.06,3.67-.59,7.36-1.06,10.99-1.85,13.43,2.89,26.14,7.96,38.57,13.58,25.56,11.56,48.89,26.59,69.86,45.33,21.91,19.57,40.42,41.9,55.75,66.91.39.63.61,1.36.91,2.04Z" style="fill: #bad9ab; stroke-width: 0px;"/>
  <path d="M343.85,9.06c-3.52,2.33-7.64,2.26-11.59,2.86-.95.14-2.35-.28-2.63.85-.38,1.53,1.31,1.66,2.21,1.94,12.74,3.97,24.62,9.99,36.85,15.19,4.12,1.65,7.93,3.94,11.85,5.98.94.49,2.18.87,1.63,2.41-2.29.78-4.33-1.18-6.61-.57-7.1-3.35-13.82-7.42-20.92-10.79-25.7-12.2-52.56-20.08-80.89-23.13-28.27-3.05-55.99-.76-83.21,7.48-4.06,1.23-8.04,2.69-12.02,4.17-1.81.67-3.93,1.29-3.86,3.92-6.34,2.21-12.45,5.26-19.41,5.3-3.07.02-6.07,1.19-9.19.66,12.34-6.62,25.37-11.58,38.76-15.55C210.74,2.11,237.29-.55,264.24.09c24.45.59,48.86,1.44,72.8,7.23,2.28.55,4.35,1.91,6.81,1.74Z" style="fill: #8fca6b; stroke-width: 0px;"/>
  <path d="M35.32,432.21c-.67.3-.66.95-.8,1.53-5.31-9.32-9-19.35-12.82-29.32-7.73-20.14-13.2-40.94-16.82-62.16-3.92-23-5.58-46.22-4.61-69.56,1.35-32.59,7.26-64.35,17.95-95.19.85-.08,1.08.53,1.29,1.17-.35,5.43-2.8,10.3-4.25,15.42-5.47,19.24-9.29,38.77-11.12,58.69-.62,6.7-1.04,13.4-1.47,20.11-.47,7.26,1.56,14.27,1.79,21.5.36,11.04,1.07,22.12,2.59,33.12,1.44,10.38,4.12,20.6,5.11,30.97,2.18,23.02,11.43,43.66,20.06,64.57.52,3.22,3.52,5.61,3.11,9.16Z" style="fill: #a8d983; stroke-width: 0px;"/>
  <path d="M18.86,178.19c-.21-.23-.42-.45-.63-.68,2.67-7.55,5.59-15,8.88-22.3.4-.88.94-1.7,1.42-2.54.11.61.19,1.24.82,1.58.88,2.94-1.81,4.67-2.38,7.12-1.64,4.94-4.25,9.49-5.75,14.5-.32,1.07-.61,2.54-2.35,2.33Z" style="fill: #b5e687; stroke-width: 0px;"/>
  <path d="M260.64,597.07c9.84,0,19.68,0,29.51,0-9.84,1.06-19.67,1.01-29.51,0Z" style="fill: #3d7223; stroke-width: 0px;"/>
  <path d="M90.53,515.47c5.16,3.9,9.69,8.41,13.56,13.59-4.84-4.21-9.59-8.52-13.56-13.59Z" style="fill: #83be3f; stroke-width: 0px;"/>
  <path d="M343.89,587.12c3.34-1.7,6.81-3.04,10.52-3.69-3.16,2.22-6.76,3.17-10.52,3.69Z" style="fill: #a9bda1; stroke-width: 0px;"/>
  <path d="M83.04,507.22c2.02.84,3.56,2.1,3.91,4.42-1.59-1.22-3-2.6-3.91-4.42Z" style="fill: #83be3f; stroke-width: 0px;"/>
  <path d="M74.89,497.43c1.45.48,2.38,1.36,2.32,3.01-1.06-.78-1.95-1.69-2.32-3.01Z" style="fill: #83be3f; stroke-width: 0px;"/>
  <path d="M79.27,502.73c1.58.35,2.46,1.27,2.43,2.95-1.06-.77-1.94-1.7-2.43-2.95Z" style="fill: #83be3f; stroke-width: 0px;"/>
  <path d="M358.21,581.98c1.01-1.08,2.29-1.49,3.74-1.48-.97,1.2-2.25,1.6-3.74,1.48Z" style="fill: #a9bda1; stroke-width: 0px;"/>
  <path d="M354.42,583.42c1.05-1.03,2.32-1.46,3.77-1.43-.99,1.18-2.27,1.61-3.77,1.43Z" style="fill: #a9bda1; stroke-width: 0px;"/>
  <path d="M259.29,535.62c-9.73-16.25-19.47-32.5-29.2-48.75-.58-6.45-5.29-10.73-8.6-15.63-4.66-6.89-7.62-14.5-10.9-22-.86-1.97.04-3.89.86-5.75,2.73-6.25,7.18-11.34,11.17-16.74,8.66-11.71,17.67-23.16,25.27-35.63,3.7-6.06,5.68-12.69,6.8-19.64.43-2.24,1.56-4.37.99-6.76.1-2.06,1.4-3.5,2.57-5.01,1.09-.99,2.2-1.92,3.81-1.04,3.31,5.17,3.99,10.9,3.54,16.87-.41.64-1.01,1.1-1.82,1.87,7.12,1.36,14.13,1.86,21.09,2.64,11.71,1.32,23.44,2.37,35.18,3.32,5.82.47,11.68.15,17.54.42,17.53.79,35.09.89,52.47-1.92,6.92-1.12,13.9-2.79,19.7-7.27,4.62-3.42,7.92-7.58,8.94-13.54.59-3.44,3.57-6.3,2.92-10.18.43-5.65-1.52-10.56-4.85-14.96-2.55-3.36-4.87-3.52-7.12-.1-7.61,11.53-15.85,22.71-20.37,36-1.37,4.04-1.39,4.05,2.44,5.91,1.11.54,2.59.93,2.43,2.45-.16,1.65-1.83,1.54-2.96,1.67-14.84,1.72-29.69,3.03-44.66,2.03-4.96-.33-9.97-.44-14.93-.32-7.49.18-14.9-.96-22.37-.91-1.77.01-4.47.2-3.43-3.19,2.16-1.26,4.5-.75,6.79-.68,1.94.39,3.89.72,5.9.75,2.49.04,3.19-.88,2.1-3.15-1.95-4.03-3.67-8.18-5.74-12.14-2.61-5-3.08-10.75-5.9-15.64-2.84-8.28-7.36-15.79-10.88-23.76-.56-.46-.25-1.48-1.07-1.76.71.65.74,1.54.81,2.44-.17.35-.44.55-.81.64-6.3-5.52-7.49-13.89-1.57-17.66,4.28-2.73,8.2-6.05,13.03-7.87,2.2.61,1.51,1.96.61,3.07-1.33,1.63-2.52,3.39-3.84,4.52,15.04-10.1,30.62-20.09,46.59-30.34-9.69,4.66-17.87,10.93-26.89,15.8-.44.24.12-.04-.32.18-1.2.59-2.72,1.81-3.65.37-.94-1.46.8-2.47,1.9-3.09,4.11-2.3,7.62-5.62,12.15-7.21,10.69-6.83,21.38-13.65,32.07-20.48,4.93-3.15,9.82-6.36,14.76-9.51,2.6-1.66,4.12-1.04,5.08,1.67.79,2.2,2.15,4.11,4.29,6.24.31-3.61-2.03-5.73-2.68-8.88,3.9,2.46,5.66,6.04,7.64,9.37,2.23,3.74,3.9,7.85,6.41,11.37,11.02,15.48,17.95,32.88,24.19,50.62.61,1.74,1.22,3.48,1.83,5.22,1.94,5.25,3.64,10.56,4.07,16.19-.05,1.59-.14,3.19.39,4.73.22.98.3,1.96.32,2.96-1.59,23.11-4.49,45.94-15.37,66.91-7.64,14.73-15.49,29.34-24.08,43.55-3.8,6.29-7.29,12.78-11.35,18.92-1.51,2.28-3.17,3.94-6.13,2.58-2.31-1.07-3.47,1.67-5.47,1.6-.37-2.51,1.96-7.7,3.87-8.62.86-.41,1.77-.4,2.5.13,2.35,1.7,3.61.34,4.76-1.55,6.76-11.07,13.3-22.27,19.57-33.62,4.7-8.51,9.52-16.97,13.69-25.77,3.69-7.79,6.69-15.85,9.15-24.11.42-1.4.98-2.81.87-4.52-3.41.87-4.85,3.64-6.58,6.15-8.71,12.67-15.53,26.43-23.04,39.79-10.26,18.27-19.94,36.85-29.43,55.53-7.97,15.68-21.37,23.03-38.01,25.79-9.73,1.61-19.48,2.52-29.38,2.41-9.2-.1-18.4.07-27.6-.06-7.1-.1-7.72.99-4.66,7.53.3,3.1-.37,6.09-1.02,9.07-.38,1.72-1.07,3.44-3.07,3.73-2.34.34-2.49-1.88-3.31-3.27Z" style="fill: #0b4725; stroke-width: 0px;"/>
  <path d="M154.46,92.85c4.56-3.35,9.55-5.28,15.31-4.76,6.15.36,12.17-.95,18.18-1.79,5.84-.82,11.69-.69,17.51-1.06,8.07-.51,16.16-1.18,24.28-1.06,14.22.21,28.38-1.36,42.6-1.45,10.45-.06,18.77,4.18,25.2,12.37,1.68,2.14,2.59,4.52,3.29,7.05,4.03,7.75,9.04,14.91,13.7,22.29,7.6,12.02,14.92,24.21,22.67,36.14,1,1.55,2.11,2.74,3.89,3.26,4.48.74,7.32-3.08,11.21-4.04,2.29-.57,4.5-1.62,6.73-2.36,5.29-1.76,2.95,1.94,2.56,3.18-2.55,8.06-5.37,16.03-8.1,24.04-.2.59-.35,1.19-.52,1.78-.53,5.4-3.06,10.2-4.67,15.26-1,3.12-1.24,5.99.4,9.01,1.47,2.7,1.67,5.66,1.06,8.73-1.73,8.75-5.86,16.38-10.74,23.69-.76,1.14-1.71,2.29-2.99,2.76-4.15,1.51-6.13,4.99-7.9,8.57-2.47,5.01-6.17,7.34-11.91,7.28-5.13-.06-10.17-1.17-15.3-.8-3.22.06-6.34-.96-9.57-.76-13.79-1.13-27.54-2.66-41.31-4.02-5.95-.59-11.84-1.67-17.82-2-2.1-.12-4.14-.41-5.75-1.97-.82-1.5.4-2.02,1.34-2.52,4.59-2.43,7.41-6.91,11.54-9.89,1.99-1.44.95-3.35.01-5.01-2.69-4.75-5.59-9.37-8.35-14.08-2.76-4.72-4.42-9.98-7.53-14.49-3.48-5.94-5.76-12.42-8.18-18.82-5.46-14.37-12.79-27.84-19.74-41.49-5.7-11.21-11.74-22.25-18.23-33.04-3.12-5.19-7.17-9.56-11.37-13.81-2.37-2.4-5.21-4.26-8.78-4.58-1.12-.1-2.25-.33-2.72-1.61Z" style="fill: #0d4b26; stroke-width: 0px;"/>
  <path d="M417.82,89.91c.37.02.85-.11,1.09.07,8.19,6.17,19.16,7.08,26.85,14.23.69.64,1.9,1.87,2.81.61.81-1.13.11-2.36-1.21-3-2.61-1.93-4.22-4.77-6.43-7.06-1.9-2.39-3.78-4.8-6.08-6.83-1.91-2.41-3.87-4.76-6.1-6.89-.96-.91-2.06-1.82-1.95-3.38,1.9-2.2,3.34-.35,4.63.7,2.29,1.87,4.17,4.22,6.55,6.01,8.1,8.8,14.98,18.6,22.61,27.79,4.09,4.93,9.15,8.77,14.16,12.64,3.2,2.47,7.35,2.14,10.83,1.95,8.69-.47,13.88,4.56,18.82,10.29,5.72,6.64,9.89,14.32,14.05,21.98.47.87.91,1.83.03,2.75-1.73-.27-2.44-1.85-3.11-3-3.91-6.73-10.17-8.99-17.32-8.9-5.61.07-10.86-.58-15.83-3.25-2.34-1.25-3.42-.52-3.41,2.22.03,8.07.89,16.06,1.53,24.08.4,4.96-.34,9.92,1.29,14.9,3.94,12.04,7.5,24.22,10.19,36.61,3.65,16.86,6.89,33.8,5.52,51.65-3.47-3.29-3.33-7.64-4.1-11.39-4.89-23.63-10.95-46.93-19.83-69.39-7.02-17.74-15.62-34.72-26-50.78-5.76-8.9-13.19-16.44-19.78-24.66-5.09-6.34-11.02-11.88-16.84-17.5-12.83-12.38-26.63-23.4-42.6-31.69-9.46-4.92-18.99-9.44-29.24-12.35-.94-.27-2.3-.94-2.82-.55-3.59,2.67-8.35.2-11.57,2.29-3.91,2.54-8.7,3.48-11.82,7.8-3.15,4.36-6.71,8.72-11.14,11.99-1.8,1.33-1.49,2.09,0,2.93,4.19,2.37,8.69,3.52,13.53,2.79,1.77-.27,3.25-.1,4.97.73,14.33,6.97,24.57,18.23,33.62,30.98,9.62,13.57,19.13,27.19,27.8,41.95-2.22-.16-2.99-1.56-3.82-2.84-9.21-14.18-19.08-27.91-29.33-41.35-5.5-7.21-11.28-14.17-18.27-20.05-8.35-7.01-17.92-8.88-28.29-6.65-4,.86-7.28.35-10.39-2.12-1.08-.86-2.23-1.6-3.69-1.62-4.61.1-8.88-1.74-13.37-2.31-2.04-.77-4.04-.39-6.04.18-7.45.38-14.87,1.33-22.35.96-1.6-.08-3.27.21-4.58-1.08,2.06-2.9,5.14-1.63,7.58-1.34,3.03.36,5.83.86,8.58-.86.5-.31,1.2-.28,1.8-.43,6.96-1.72,8.57-3.58,9.01-11.02.32-5.35-.49-10.78-.34-16.02.2-7.02-4.12-11.94-5.64-18.01-.39-1.53-1.65-1.68-2.81-2.1-7.3-2.65-14.98-3.57-22.6-4.03-6.8-.42-13.61-1.35-20.47-.93-13.1.8-26.15,1.79-39.18,3.59-17.81,2.46-34.46,8.18-50.54,15.92-.84.8-2.03.91-2.98,1.49,0,0-.01.01-.01.01-1.94-.34-3.39,1.39-6.1,1.5,2.93-3.17,6.02-4.94,9.01-6.63,14-7.93,28.38-15.08,44.07-19.13,13.45-3.47,27.01-6.14,40.91-7.38,9.69-.87,19.35-1.65,29.03-1.27,19.51.77,38.75,3.42,57.59,8.8,18.05,5.15,35.2,12.43,51.78,21.15,3.73,1.96,7.43,3.98,11.14,5.97,3.44.57,5.77,3.11,8.49,4.91,2.76,1.83,5.46,3.76,8.11,5.75,1.08.86,2.11,1.78,3.31,2.48,13.02,8.99,23.96,20.31,34.73,31.72,11.13,11.78,21.23,24.47,30.08,38.1,5.84,9.56,11.73,19.08,17.06,28.94,3.84,7.12,7.5,14.34,11.59,21.33.41.69.59,1.6,2.14,2.19-4.62-13.38-10.11-25.82-17.09-37.61-7.37-13.18-15.26-26.03-24.6-37.93-4.69-5.98-9.36-11.97-14.82-17.3-1.19-1.16-2.88-2.18-2.36-4.33Z" style="fill: #73b049; stroke-width: 0px;"/>
  <path d="M79.54,498.85c3.76,3.63,7.49,7.3,11.29,10.89,12.89,12.17,27.04,22.65,42.5,31.31,22.57,12.65,46.99,20.15,72.24,25,8.48,1.63,17.19,2.45,25.88.93,6.11-1.07,11.18-5.05,11.41-14.67.22-9.47-2.96-18.02-7.04-26.32-5.4-10.97-12.21-21.06-19.58-30.78-1.86-2.45-3.92-2.05-5.11,1.32-1.64,4.68-3.41,9.43-4.09,14.3-1.27,8.99-9.35,16-17.42,17.83-.94.21-2.02.19-2.97,0-17.78-3.77-35.28-8.6-51.55-16.8-10.5-5.29-19.85-12.37-26.49-22.39-2.03-3.07-5.08-5.54-5.8-9.42.76-.29,1.52-.17,2.15.25,11.03,7.39,23.84,9.25,36.47,11.45,9.93,1.73,19.96,2.97,30,4.08,1.53.51,3.11.54,4.7.47,1.36.02,2.72,0,4.05.34,1.54.8,3.18.67,4.83.46q9.97-.15,11.25-9.98c.08-.62.24-1.21.55-1.75,1.34-1.51,3.11-2.14,5.03-2.47,1.93-.16,3.85-.16,5.77.19,4.18.69,8.45.45,12.61,1.34.66.13,1.25.39,1.67.94,8.18,2.88,10.45,10.89,14.33,17.24,4.67,7.62,9.46,15.2,13.44,23.25,4.1,8.28,7.65,16.72,9.77,25.75.62,2.62,1.74,5.08,3.85,7.08,3.74,3.55,2.88,7.76-2.01,9.51-5.14,1.84-10.49,2.91-15.97,3.32-17.63,1.32-34.73-1.94-51.78-5.84-16.66-3.81-32.92-8.88-48.21-16.48-17.3-8.6-33.24-19.37-47.92-32.02-5.69-4.9-10.7-10.43-16.14-15.54-.81-.76-1.71-1.5-1.68-2.79Z" style="fill: #73ae2c; stroke-width: 0px;"/>
  <path d="M259.29,535.62c1.27.69,1.62,2.98,3.36,2.55,2.04-.5,1.98-2.69,2.28-4.33.49-2.67.73-5.38,1.07-8.07-1.04-2.69-.88-5.05,1.87-6.69,9.07-.61,18.16.08,27.25-.2,1.14-.03,2.31.23,3.11,1.07,1.78,1.88,3.82,2.5,6.41,2.17,2.06-.27,3.19,1.11,3.49,3.11.22,1.49.14,2.99.16,4.48.06,4.71.57,5.53,5.15,6.91,16.68,5.02,31.2.73,44.07-10.42,6.5-5.64,10.78-13.03,15.59-20.01,10.28-14.9,19.04-30.72,28.3-46.24,8.62-14.46,17.67-28.72,23.92-44.44,6.83-17.18,9.64-35.03,7.86-53.52-.27-2.82.07-5.7-.76-8.48-.02-1-.04-1.99-.06-2.99-.87-1.4.19-3.1-.69-4.5-.2-5.64-2.37-10.92-3.06-16.47,3.28,4.69,4.45,10.23,5.76,15.58,3.37,13.66,4.98,27.54,4.85,41.68-.1,10.78-3.99,20.43-7.58,30.19-5.54,15.04-14.26,28.44-22.43,42.12-6.89,11.54-13.54,23.22-20.12,34.93-6.83,12.15-13.97,24.13-22.32,35.28-7.4,9.89-16.76,17.66-28.5,22.15-6.48,2.48-13.09,1.51-19.78,1.02-11.82-.86-23.09-4.48-34.69-6.33-3.28-.52-5.66,1.53-7.74,3.77-3.37,3.63-6.87,4.01-10.13.34-3.66-4.12-6.39-8.89-6.65-14.66Z" style="fill: #5a941e; stroke-width: 0px;"/>
  <path d="M301.23,259.92c5.6-.35,11.1,1,16.72.81,4.48-.15,7.04-2.36,8.95-6.05,1.25-2.41,2.78-4.68,4.24-6.98.32-.51.79-1.02,1.31-1.32,11.48-6.46,13.89-18.11,16.66-29.45.54-2.2-.35-4.65-1.78-6.65-1.25-1.75-1.54-3.82-.94-5.72,1.91-6.14,3.85-12.27,6.58-18.12-.19,2.08,1.07,3.11,2.72,4.01,9.08,4.96,10.41,10.18,8.97,20.04-2.46,16.77-9.93,31.62-19.36,45.59-5.18,7.68-8.64,16.23-11.31,25.1-.42,1.39-.08,2.12,1.04,2.75-4.11,3.97-9.58,6.06-13.71,10.05,11.42-4.73,20.76-13.36,32.38-17.67.18.31.37.61.55.92-17.11,11.16-34.23,22.32-51.34,33.47-.14-.14-.28-.27-.42-.41,1.84-2.19,3.71-4.36,5.5-6.59.59-.74,2.21-1.28.79-2.66q1.8-3.99-2.49-6.62c-.64-.39-1.33-.75-1.8-1.32-1.83-2.24-3.51-2.86-5.47-.05-.74,1.06-2.22.98-3.49.79-4.34-.68-8.55-1.38-11.1-5.77-1.33-2.31-4.18-3.01-6.37-4.42-1.12-.72-2.6-1.36-2.49-2.98.12-1.77,1.67-2.41,3.09-2.84,4.68-1.42,9.5-1.97,14.36-1.66,3.55.23,5.73-.82,7.14-4.37,1.57-3.97,3.57-7.66,1.08-11.9Z" style="fill: #377118; stroke-width: 0px;"/>
  <path d="M518.46,161.76c-5.4-12-12.37-22.91-22.35-31.66-1.51-1.33-3.57-2.07-5.52-1.98-3.89.19-7.62-.93-11.49-.88-4.73.07-7.37-3.72-10.64-6.24-10.79-8.3-17.31-20.33-26.17-30.32-1.67-1.88-4.17-3.27-4.74-6.06-3.52-3.34-6.63-7.05-9.95-10.57-11.75-12.47-25.21-22.84-39.64-32.03-1.95-1.24-5.06-.82-5.77-3.89-2.77-2.75-6.45-4.01-9.71-5.96-1.26-.76-2.8-1.05-3.79-2.27,1.6-.18,2.87.69,4.2,1.35,8.03,4.01,15.99,8.19,24.12,11.99,5.72,2.68,11.73,4.51,18.07,5.5,8.04,1.25,14.72,5.81,21.28,10.31,14.34,9.83,26.93,21.68,38.79,34.3,12.54,13.34,23.47,27.94,32.88,43.67,4.74,8.74,9.67,17.38,14.16,26.25,2.84,5.61,5.04,11.55,7.5,17.36.69,1.62,1,3.33.8,5.11-2.83-5.71-5.64-11.42-8.48-17.12-1.15-2.3-2.36-4.57-3.55-6.85Z" style="fill: #a6d08a; stroke-width: 0px;"/>
  <path d="M221.87,485.37c-.49,0-.99-.02-1.48-.02-1.8-.72-3.75-1.07-5.4-2.13-2.63-1.69-4.86.85-7.35.64h-5.99c-1.53-.92-3.64,1.01-4.95-1-.96-1.96-.4-3.89.14-5.82,1.51-5.3,2.19-10.7,2.17-16.22-.04-9.33-.21-18.67.05-27.99.22-8.07-1.02-15.86-3.12-23.58-1.99-7.33-1.82-14.74-.87-22.18,1.9-1.54,2.09.33,2.16,1.31.2,2.81,1.91,4.39,3.91,6.03,6.22,5.09,7.89,12.25,8.21,19.75.23,5.23,1.2,10.42.87,15.68-.09,1.46.44,2.69,1.77,3.46,1.43,1.93-.24,3.29-1,4.71-1.75,3.26-3.19,6.52-1.83,10.37-1.12-5.38,1.73-9.48,4.38-13.55,8.99-13.81,18.39-27.33,27.37-41.15,4.22-6.49,8.57-12.89,12.11-19.79.53-1.04.86-2.44,2.49-2.43-1,11.04-6.23,20.35-12.37,29.16-5.89,8.45-12.17,16.62-18.31,24.89-4.36,5.87-9.24,11.37-12.46,18.06-1.3,2.7-1.43,5.07-.07,7.77,2.32,4.64,4.05,9.61,6.65,14.09,3.22,5.54,6.9,10.84,10.74,15.97,1.51,2.02,1.83,3.52.4,5.47-2.5-1.8-5.37-1.56-8.21-1.5Z" style="fill: #448122; stroke-width: 0px;"/>
  <path d="M241.32,82.37c9.28.4,18.52-.63,27.78-.83,1.71-.51,3.43-.47,5.15-.02,4.59.51,9.12,1.3,13.41,3.1,5.92,4.73,11.42,9.82,15.98,15.98,1.57,2.13,1.28,3.25-.01,4.88-1.81.43-1.88-1.73-3.14-2.11-1.38-4.59-4.15-8.21-7.51-11.6-5.25-5.29-11.54-7.86-18.81-7.72-15.07.29-30.13.79-45.19,1.35-17.29.64-34.61.8-51.78,3.46-2.34.36-5.21,1.82-7.42-.76,3.95-2.15,8.41-2.3,12.65-2.64,13.35-1.06,26.74-1.62,40.12-2.38,3.69-.8,7.43-.13,11.14-.37,1.34-.09,2.74.37,4.03-.36,1.2,0,2.4.02,3.6.02Z" style="fill: #7ebd9f; stroke-width: 0px;"/>
  <path d="M300.49,103.36c2-.71,1.83,1.79,3.14,2.11,0,0,.29-.1.29-.1,4.47,3.43,6.68,8.55,9.64,13.08,8.14,12.48,15.96,25.17,23.67,37.93,1.26,2.09,3.77,3.35,4.02,6.09-.05.46-.09.91-.14,1.37-2.54,1.76-3.23-.51-4.17-1.99-10.46-16.61-20.91-33.22-31.33-49.86-1.77-2.83-3.41-5.75-5.11-8.63Z" style="fill: #97dbbd; stroke-width: 0px;"/>
  <path d="M341.23,162.48c-5.21-4.68-7.92-11.1-11.62-16.83-8.63-13.38-17.14-26.84-25.7-40.27,2.32-1.11,2.74,1,3.53,2.21,10.65,16.21,21.26,32.45,31.88,48.68.75,1.14,1.43,2.35,2.29,3.4.97,1.17.66,2.01-.38,2.82Z" style="fill: #155e33; stroke-width: 0px;"/>
  <path d="M530.6,186.46c2.04.52,2.08,2.16,2.11,3.8-1.32-.92-2.06-2.17-2.11-3.8Z" style="fill: #a6d08a; stroke-width: 0px;"/>
  <path d="M195.75,386.43c-.41,9.7-.2,19.31,2.75,28.72,1.37,4.36,1.75,8.95,1.69,13.59-.13,10.58-.09,21.16-.02,31.73.04,6.12-.62,12.12-2.57,17.93-.54,1.6-.39,3.19-.36,4.8.56.71.51,1.43.02,2.15-.05,1.99.02,4-.18,5.97-.53,5.2-2.2,6.68-7.41,6.77-1.74.03-3.49-.02-5.23-.04-1.15-.84-2.57.18-3.74-.56l-4.51-.19c-1.4-.85-3.05.08-4.47-.61-18.83-1.96-37.65-3.96-55.81-9.8-4.79-1.54-9.01-4.07-13.12-6.86-2.21-2.46-4.43-4.93-6.64-7.39-1.04-1.5-2.75-2.61-2.73-4.72,1.79-2.03,2.52-.08,3.3.98,5.46,7.36,12.88,11.64,21.65,13.7,1.57.37,3.59,1.6,4.89-.03,1.31-1.64-.24-3.34-1.06-4.78-3.26-5.75-6.64-11.5-10.68-16.69-12.65-16.27-19.74-35.02-25.58-54.46-3.12-10.38-6.55-20.68-9.66-31.07-2.13-7.1-7.44-9.89-13.94-11.44-1.37-.5-2.64-1.23-4.06-1.61-1.05-.41-2.16-.58-3.25-.88-4.3-1.72-8.47-3.76-11.76-7.07-5.37-5.4-6.31-12.18-5.21-19.34.6-3.9,1.46-7.78,2.87-11.5,1.7-5.73,4.01-10.87,8.21-15.58,4.39-4.93,6.84-11.51,9.7-17.59,4.5-9.59,8.48-19.4,12.8-29.06.71-1.6,1.35-3.22,1.82-4.9,1.97-6.98-.66-12.89-7.15-16.24-1.82-.94-4.14-1.32-4.71-3.82,3.41-3.37,7.97-2.35,11.96-2.64,12.99-.93,26.03-1.25,39.05-1.8,5.7-.24,11.41-.48,17.11-.72,5.77-.88,11.58-.02,17.37-.44,1.21-.09,2.47.62,1.97,2.36-.34.56-.88.82-1.47,1.07-1.46.61-3.65-.59-4.41,1.12-.56,1.25.8,2.75,1.14,4.21,3.81,16.29,8.4,32.37,12.94,48.47,1.15,4.08,1.82,8.29,3.04,12.36.58,1.94.6,4.01-.14,5.91-1.19,3.08-1.09,6.12-.1,9.17,1.18,3.64.83,7.11-.79,10.55-4.1,8.69-8.23,17.36-13,25.72-2.57,4.49-6.41,6.85-11.42,6.28-7.2-.81-14.47-.1-21.63-1.38-7.76-1.38-14.85-4.15-20.89-9.4-4.24-3.68-8.64-7.12-12.3-11.47-2.41-2.87-6.05-4.37-9.27-6.24-3.69-2.15-7.12-4.51-10.23-7.46-5.09-4.83-8.05-4.61-12.31.99-2.67,3.51-5.57,7.11-4.79,12.07.41,2.06.71,4.06.35,6.26-.89,5.4,2.26,9.06,7.78,10.52-4.46-.05-5.85-4.3-7.32-8.42-.71-1.99.11-2.85,2.17-2.63,3.42,1.44,4.32,5,7.03,8.14-2.49-6.5-3.41-13.02-10.21-15.87.81-4.78,4.57-6.34,8.49-7.31,2.86-.7,4.62,1.42,5.83,3.73,1.06,2.02,1.3,4.28,1.3,6.55,0,4.12.22,8.24-.15,12.34-.21,2.34.71,3.49,2.96,3.86,2.91.48,5.8.67,7.47,4,.87,1.75,3.47,1.73,5.42,2.1,14.46,2.73,28.96,5.07,43.73,5.15,8.01.05,15.85,1.76,23.76,2.7,7.08.84,8.57.23,12.13-5.79,2.35-3.97,4.45-8.09,6.86-12.03.75-1.23,1.27-2.82,3.21-2.65.98,1.57,0,2.89-.64,4.19-1.97,4.03-4.4,7.82-6.53,11.77-2.07,3.84-1.78,4.34,2.47,4.85,8.91,1.07,17.84,1.87,26.75,2.9,9.4,1.09,13.14,7.66,9.45,16.79Z" style="fill: #1f612a; stroke-width: 0px;"/>
  <path d="M154.46,92.85c12.11,1.27,18.08,10.49,23.41,19.44,16.09,26.96,30.85,54.63,41.97,84.1,1.23,3.26,2.82,6.38,4.24,9.56,4.49,9.63,9.28,19.08,15.23,27.92,2.76,4.1,2.31,5.41-1.33,6.57-.33-.15-.63-.36-.9-.61-1.78-3.2-2.71-6.87-5.34-9.6-2.2-3-3.68-6.38-5.17-9.76-.55-1.24-1.12-2.47-2.26-3.32-.28-.24-.52-.5-.74-.79-2.83-5.93-5.97-11.71-8.63-17.73-1.83-5.19-4.21-10.14-6.55-15.1-8.48-17.94-16.9-35.91-26.86-53.1-.38-.65-.81-1.26-1.27-1.85-4.4-6.76-8.58-13.66-13.23-20.24-2.19-3.1-4.84-5.42-8.59-6.76-2.19-.78-3.3-.6-4.71,1.03-1.63,1.87-3.49,3.53-4.72,5.73-11.21,18.36-19.63,38.08-28.06,57.78-2.99,6.98-6.05,13.93-8.11,21.28-.8,2.86,0,4.79,2.23,6.48,2.99,2.26,6.24,4.11,9.43,6.06.95.59,1.97,1.11,2.62,2.06.35.51.67,1.1.18,1.69-.35.42-.9.42-1.39.32-1.49-.32-2.75-1.15-4.01-1.95-3.26-2.07-6.45-4.25-10.03-5.77-.74-.28-1.13-.93-1.62-1.49-3.65-2.05-3.43-5.08-2.12-8.38,5.21-13.18,10.68-26.25,16.44-39.21,6.09-13.71,13.02-27,19.61-40.45,2.56-5.23,5.19-10.53,10.29-13.94Z" style="fill: #74bd9c; stroke-width: 0px;"/>
  <path d="M41.23,323.56c-.92,4.98-2.79,9.76-2.89,14.93-.19,9.67,4.32,16.27,12.9,20.35,1.46.69,2.88,1.45,4.32,2.18,4.01,2,5.81,5.79,7.23,9.62,6.37,17.18,14.52,33.6,21.29,50.6,1.29,3.23,2.75,6.41,3.32,9.89.27,1.63.65,3.33-1.18,4.29-1.69.89-3.2.04-4.45-1.02-3.33-2.83-6.39-5.92-8.92-9.51-1-1.43-2.13-2.76-3.33-4.02-3.31-4.97-5.01-10.65-7.02-15.76.29,1.21.94,2.73,1.55,4.27-.09.61-.47.92-1.05,1.01-5.45-10.99-10.04-22.37-14.95-33.61-2.71-7.57-6.41-14.75-8.84-22.43-3.31-10.46-2.43-20.69,1.53-30.77.16,0,.33,0,.49,0Z" style="fill: #70bf9e; stroke-width: 0px;"/>
  <path d="M110.24,194.83c.45.23.9.45,1.35.68,28.06,16.24,54.98,34.33,82.81,50.94.75.45,1.5.9,2.28,1.29.8.4,1.62.78,2.47,1.06,2.59,1.02,5.09-.53,7.65-.28.57.07,1.1.26,1.55.64-.94,6.31-6.45,9.62-12.03,7.18-5.72-2.5-10.76-6.21-16.11-9.37-4.93-2.92-9.98-5.59-15.18-7.98-1.11-.51-2.42-1.22-3.55-.42-1.27.9-.38,2.28-.22,3.45.2,1.44,1.03,2.86.11,4.33-2.13.27-2.16-1.6-2.74-2.81-1.08-2.21-1.61-4.73-3.55-6.46-1.1-2.83-3-3.73-5.83-2.41-.59-.06-.96-.32-.91-.98.65-2.88-1.68-2.16-2.95-2.2-5.22-.14-10.45-.09-15.67-.11,1.64-1.39,3.59-.61,5.39-.7,2.74-.14,5.49-.07,8.23-.04,1.8.02,3.94-.04,4.59-1.77.74-1.98-1.48-3.02-2.79-3.88-9.47-6.19-19.03-12.24-28.56-18.33-.52-.33-1.07-.64-1.57-1.01-3.67-2.69-5.91-6.02-4.79-10.84Z" style="fill: #6fa925; stroke-width: 0px;"/>
  <path d="M41.23,323.56h-.25s-.25,0-.25,0c1.39-6.84,4.02-13.28,6.78-19.61,7.01-16.05,14.15-32.05,21.71-47.84,2.76-5.78.28-9.36-3.25-13.11-1.28-1.36-2.62-2.66-3.89-4.03-.63-.68-1.7-1.35-.47-2.43,2.68,2.45,6.34,3.23,9.09,5.75,4.74,4.32,5.64,9.48,3.52,14.93-5.32,13.67-11.17,27.14-17.78,40.26-1.34,2.67-2.78,5.29-4.15,7.94-1.14,2.22-2.47,4.16-4.54,5.78-3.92,3.08-4.54,8.13-6.52,12.36Z" style="fill: #7fc9a6; stroke-width: 0px;"/>
  <path d="M237.71,82.35c-5,1.36-10.12.45-15.17.74,4.99-1.61,10.12-.38,15.17-.74Z" style="fill: #66a435; stroke-width: 0px;"/>
  <path d="M123.75,48.62c.75-.98,1.79-1.38,2.98-1.49-.56,1.35-1.7,1.55-2.98,1.49Z" style="fill: #88c554; stroke-width: 0px;"/>
  <path d="M550.03,252.39c1.16,1.14.59,2.55.62,3.87-.9-1.18-.61-2.55-.62-3.87Z" style="fill: #9dba90; stroke-width: 0px;"/>
  <path d="M551.56,262.89c1.1,1.15.57,2.55.6,3.87-.26-.79-.51-1.58-.77-2.37.06-.5.11-1,.17-1.5Z" style="fill: #9dba90; stroke-width: 0px;"/>
  <path d="M26.36,161c.32-2.55,2.53-4.26,2.99-6.75.23-.26.47-.52.7-.78,6.31-8.92,12.05-18.32,19.65-26.21,4.81-4.99,9.8-9.92,15.34-14.18,1.08-.83,2.33-2.02,3.63-.91,1.34,1.15.22,2.62-.46,3.68-4.98,7.78-9.37,15.87-13.44,24.16-12.24,24.93-21,51.04-26.96,78.14-1.84,8.36-3.3,16.77-4.44,25.25h0c-.62,3.98-.88,8.02-1.49,12,0,.49-.02.98-.02,1.47-1.04,2.43.24,5.09-.72,7.53-.01.99-.03,1.97-.04,2.96-.82,3.65-.15,7.35-.38,11.02-.09,1.34.31,2.71-.32,4.01,0,3.72,0,7.44,0,11.16.92,3.72-.28,7.56.66,11.28.75,19.16,3.71,38.01,7.86,56.7,1.02,4.6,2.28,9.15,3.43,13.72,5.42,19.7,12.42,38.81,20.97,57.36,6.06,13.14,12.7,25.98,20.02,38.47.91,1.55,2.62,3.64.89,5.03-1.77,1.42-3.3-.83-4.65-2.01-7.98-6.98-15.63-14.27-21.51-23.2h0c-.65-1.07-1.55-1.96-2.24-3h0c-3.2-3.68-5.44-8.04-8.33-11.94-.73-1.25-1.45-2.5-2.18-3.75-1.03-2.86-3.07-5.26-3.67-8.31,2.21-.19,2.93,1.63,3.88,3.01,2.75,4.02,5.63,7.94,8.73,11.7.74.9,1.23,2.22,3.09,2.31C6.16,338.17,3.44,236.01,50.66,134.5c-4.05,2.45-7.54,5.91-10.51,9.93-3.41,4.62-6.69,9.33-10.05,13.98-.9,1.25-1.68,2.9-3.74,2.59Z" style="fill: #beed9d; stroke-width: 0px;"/>
  <path d="M63.01,410.38c.2-.23.4-.47.6-.7,2.91,3.15,3.61,7.5,5.95,10.96,1.16,2.22,2.19,4.51,3.38,6.72,6.05,12.98,12.43,25.79,19.88,38.04.54.89.59,1.87.88,2.81.82,1.48,1.64,2.96,2.46,4.44-4.38-2.91-6.17-7.79-8.53-12.04-9.04-16.32-17.68-32.87-24.62-50.23Z" style="fill: #9fbc99; stroke-width: 0px;"/>
  <path d="M37.5,435.96c3.54,3.45,6.23,7.49,8.33,11.94-.75-.5-1.5-.99-2.25-1.49-2.42-3.26-4.53-6.69-6.07-10.45Z" style="fill: #a8d983; stroke-width: 0px;"/>
  <path d="M541.73,390.95c-.44,8.05-3.23,15.54-6.1,22.89-3.76,9.59-7.9,19.04-12.64,28.23-7.83,15.18-16.9,29.55-27.67,42.79-6.79,8.35-14.25,15.92-24.96,19.38-4.08,1.32-7.21,4.39-10.38,7.15-4.4,3.84-8.56,7.96-12.8,11.98-1.29,1.22-2.57,2.38-4.49,2.36,16.53-18.14,30.1-38.51,44.31-58.41,1.02-.95,1.52-2.26,2.31-3.38,10.47-14.64,6.2-10.37,22.69-18.21,3.19-1.52,5.61-3.55,7.34-6.6,3.19-5.62,7.79-10.42,9.79-16.74.82-2.42,2.2-4.55,3.55-6.68,2.58-7.78,5.95-15.29,8.04-23.24.15-.56.66-1.02,1.01-1.52Z" style="fill: #9dba90; stroke-width: 0px;"/>
  <path d="M529.85,422.47c-.2,2.46-1.52,4.5-2.73,6.5-2.58,4.26-5.37,8.39-8.07,12.58-2.86,4.43-7.82,5.71-12.2,7.5-5.5,2.25-10.03,5.19-13.26,10.3-1.82,2.89-3.88,5.74-6.59,7.97,1.35-3.87,4.17-6.89,6.06-10.45,2.59-3.8,5.48-7.39,7.94-11.28,1.11-1.75,2.6-3.02,4.51-3.77,3.02-1.19,5.81-2.94,8.86-3.96,4.56-1.52,7.41-4.66,10.02-8.48,1.64-2.4,2.26-5.74,5.48-6.91Z" style="fill: #608350; stroke-width: 0px;"/>
  <path d="M529.85,422.47c-2.17,3.29-4.44,6.52-6.47,9.89-1.7,2.81-4.13,4.5-7.08,5.73-3.77,1.56-7.48,3.28-11.22,4.93-3.83,1.69-4.85,5.82-7.49,8.55-1.62,1.68-2.34,4.11-4.53,5.3,5.34-8.35,9.07-17.92,19.15-22.44,5.18-2.32,11.27-3.66,14.16-9.62,1.19-2.45,2.75-4.73,4.25-7.02.53-.8,1.38-1.39,2.08-2.08-.95,2.25-1.89,4.51-2.84,6.76Z" style="fill: #427525; stroke-width: 0px;"/>
  <path d="M544.72,381.19c-.06,2.02.53,4.3-2.1,5.3.38-1.89.71-3.81,2.1-5.3Z" style="fill: #9dba90; stroke-width: 0px;"/>
  <path d="M23.36,243.4c.32-11.34,3.04-22.31,5.5-33.28,6.41-28.53,16.79-55.62,30.52-81.41,2.21-4.16,4.83-8.1,7.3-12.12.76-1.24,1.72-2.38,1.85-4.56-2.96,1.48-4.98,3.54-7.2,5.35-11.7,9.52-20.38,21.61-28.94,33.81-.65.93-1.24,1.86-2.36,2.29,2.42-6.69,7.35-11.76,11.44-17.33,4.92-6.69,9.9-13.42,15.59-19.44,4.91-5.2,10.79-9.51,16.37-14.05,3.44-2.8,6.34-6.37,10.9-7.97.35,2.08-1.18,3.26-2.09,4.51-11.64,16.06-21.7,33.08-30.23,50.97-12.25,25.7-20.78,52.66-26.28,80.58-.83,4.21-.93,8.56-2.39,12.66Z" style="fill: #b5e687; stroke-width: 0px;"/>
  <path d="M48.07,450.9c4.7,5.27,9.14,10.78,14.41,15.52,3.66,3.29,7.36,6.53,11.83,10.5-.6-4.96-3.2-7.79-4.95-10.87-10.12-17.76-18.81-36.17-26.03-55.28-3.96-10.47-7.41-21.09-10.39-31.88-.34-1.21-.68-2.38-.59-3.65,2.74,8.1,5.32,16.25,8.26,24.28,7.58,20.7,16.75,40.64,27.94,59.67,5.97,10.16,12.13,20.16,18.75,29.9.6.89,1.28,1.83,1.06,3.21-2.52-.02-3.7-2.1-5.17-3.35-12.58-10.72-24.99-21.64-34.04-35.75-.47-.73-1.11-1.36-1.08-2.31Z" style="fill: #a8d983; stroke-width: 0px;"/>
  <path d="M20.39,282.39c.34-5-.92-10.08.7-15.02-.35,5,.84,10.08-.7,15.02Z" style="fill: #b5e687; stroke-width: 0px;"/>
  <path d="M21.88,255.4c-.16-4.08.36-8.08,1.49-12.01.09,4.07-.16,8.11-1.49,12.01Z" style="fill: #b5e687; stroke-width: 0px;"/>
  <path d="M21.06,304.82c-1.52-3.68-.35-7.53-.66-11.28,1.49,3.69.37,7.53.66,11.28Z" style="fill: #b5e687; stroke-width: 0px;"/>
  <path d="M21.14,264.4c.27-2.51-.78-5.14.72-7.53-.26,2.51.72,5.13-.72,7.53Z" style="fill: #b5e687; stroke-width: 0px;"/>
  <path d="M45.83,447.9c1.21.65,2.19,1.48,2.24,3-1.21-.66-2.18-1.48-2.24-3Z" style="fill: #a8d983; stroke-width: 0px;"/>
  <path d="M554.38,313.62c-.22,4.8.98,9.68-.68,14.41-.58-2.23-.48-4.47-.05-6.71.05-2.46.09-4.92.14-7.38.2-.09.4-.2.59-.33Z" style="fill: #9dba90; stroke-width: 0px;"/>
  <path d="M553.7,284.59c1.68,4.73.46,9.61.7,14.41-1.05-4.76-.52-9.61-.7-14.41Z" style="fill: #9dba90; stroke-width: 0px;"/>
  <path d="M552.93,274.84c1.57,2.67.54,5.58.74,8.37-1.12-2.71-.52-5.58-.74-8.37Z" style="fill: #9dba90; stroke-width: 0px;"/>
  <path d="M552.25,268.12c1.39,1.92.51,4.08.66,6.13-1.06-1.95-.59-4.07-.66-6.13Z" style="fill: #9dba90; stroke-width: 0px;"/>
  <path d="M552.88,338.37c.33,3.43-.08,6.75-1.47,9.93-.8-3.31,1.31-6.35.89-9.62.09-.31.28-.41.59-.3Z" style="fill: #9dba90; stroke-width: 0px;"/>
  <path d="M553.66,321.33c.02,2.24.03,4.47.05,6.71-.02.44-.04.89-.07,1.33-.07.36-.27.46-.6.29.24-2.77-.82-5.65.62-8.33Z" style="fill: #427525; stroke-width: 0px;"/>
  <path d="M553.04,329.66c.2-.09.4-.19.6-.29-.17,2.56.86,5.22-.68,7.65-.57-1.23-.46-2.46-.07-3.71.05-1.22.1-2.44.15-3.66Z" style="fill: #9dba90; stroke-width: 0px;"/>
  <path d="M551.49,349.05c-.23,1.51.63,3.22-.84,4.49-1.47-1.83.36-3.03.84-4.49Z" style="fill: #9dba90; stroke-width: 0px;"/>
  <path d="M550.73,354.28c-.28,1.31.85,3.13-1.36,3.73,0-1.41.7-2.57,1.36-3.73Z" style="fill: #9dba90; stroke-width: 0px;"/>
  <path d="M552.89,333.32c.02,1.24.05,2.47.07,3.71-.03.45-.05.9-.08,1.34-.2.1-.39.2-.59.3.15-1.79-.68-3.69.6-5.35Z" style="fill: #427525; stroke-width: 0px;"/>
  <path d="M427.14,77.83c2.56,3.41,6.11,5.97,8.31,9.69-1.08,2.35-2.3.73-3.26,0-3.76-2.87-7.44-5.85-11.33-8.57-7.48-5.23-15.15-10.07-23.61-13.62-4.74-1.99-8.58-5.5-12.84-8.29-1.25-.82-2.49-1.64-3.79-2.36-12.54-8.37-25.39-16.21-39.08-22.57-23.05-10.7-47.1-17.94-72.38-21.1-14.66-1.83-29.35-1.96-44.01-1.12-17.18.99-33.96,4.63-50.47,9.48-1.25-.12-2.96.04-1.32-1.98,1.23-1.52,2.98-2.28,4.72-2.92,15.8-5.84,31.99-9.85,48.8-11.73,34.03-3.8,67.03.82,99.32,11.45,17.54,5.78,34.19,13.64,50.11,23.01,3,.31,5.24,2.22,7.59,3.78,14.77,9.79,28.66,20.66,40.87,33.57.94,1,1.96,1.92,2.39,3.28Z" style="fill: #d6f4c9; stroke-width: 0px;"/>
  <path d="M417.82,89.91c4.81,5.54,9.78,10.94,14.39,16.64,10.7,13.22,20.03,27.36,27.96,42.4,1.06,1.97,2.05,3.97,3.02,5.98.49,1.02.99,2.23-.12,3.06-1.31.98-2.31-.09-3.21-.93-.83-.77-1.34-1.78-1.92-2.73-4.08-6.65-8.35-13.18-12.82-19.59-15.72-22.95-33.99-43.65-54.95-61.96-3.08-2.69-6.4-5.1-9.6-7.64-.9-.8-1.86-1.55-2.66-2.48-3.5-2.57-6.87-5.3-10.14-8.15-1-.87-2.33-2.03-1.41-3.46,1.07-1.66,2.41-.28,3.56.28,1.11.54,2.28.99,3.21,1.85,16.46,10.34,30.92,23.1,44.68,36.72Z" style="fill: #f1fcd8; stroke-width: 0px;"/>
  <path d="M380.61,54.68c4.53,1.27,7.87,4.6,11.79,6.92,6.96,4.12,14.63,6.86,21.39,11.4,6.51,4.36,12.89,8.89,18.97,13.83.74.6,1.34,2.17,2.67.7,2.64,1.71,4.2,4.36,6.01,6.8-1.73.77-2.02.83-3.78-.73-2.61-2.31-5.32-4.48-8.1-6.58-3.48-2.64-7.25-4.81-10.93-7.13-3.16-1.99-6.59-2.72-10.24-2.77-8.98-7.83-18.44-15.07-27.8-22.43Z" style="fill: #bbe99a; stroke-width: 0px;"/>
  <path d="M408.41,77.11c2.54-1.3,4.98-.94,7.45.32,7.76,3.95,14.89,8.8,21.4,14.59,1.19,1.06,2.16,2.72,4.2,2.31,2.14,2.36,4.65,4.43,5.89,7.5-1.38,1.32-2.39,0-3.18-.68-5.58-4.9-11.29-9.59-17.5-13.69-3.23-2.13-6.38-4.16-10.45-4.5-3.65-.3-5.76-3.15-7.82-5.84Z" style="fill: #86c35d; stroke-width: 0px;"/>
  <path d="M373.14,53.18c-.8-.3-1.59-.65-2.41-.87-1.29-.36-2.8-2.38-3.77-.75-.74,1.23,1.4,2.33,2.46,3.24,3.05,2.64,6.45,4.89,9,8.08-.21.29-.45.34-.74.12-5.5-3.79-11-7.58-16.49-11.36-3.87-3.85-8.83-6.22-13.08-9.56-1.58-1.25-5.12-2.29-4.23-3.83,1.03-1.77,3.81.39,5.71,1.22,7.84,3.43,15.04,8.02,22.37,12.36.49.29.79.89,1.18,1.35Z" style="fill: #bfe68e; stroke-width: 0px;"/>
  <path d="M427.14,77.83c-10.2-10.03-20.6-19.84-32.32-28.11-6.09-4.3-12.35-8.36-18.53-12.53,2.28-1.67,3.87,1.03,5.89.94,8.05,3.91,15.44,8.91,22.51,14.32,12.25,9.37,23.69,19.61,32.85,32.16-2.84-.77-4.05-3.49-6.16-5.14-1.25-.98-2.19-2.77-4.26-1.65Z" style="fill: #86c35d; stroke-width: 0px;"/>
  <path d="M26.36,161c5.26-5.18,8.64-11.78,13.18-17.51,3.57-4.51,7.51-8.5,12.97-11.23.55,1.95-.27,3.22-.92,4.47-8,15.4-14.51,31.42-19.51,48.03-4.44,14.74-7.97,29.69-10.29,44.93-1.81,11.9-2.95,23.83-3.83,35.83-.99,13.35-1,26.7-.42,39.97,1.6,36.5,8.15,72.18,20.29,106.72,3.13,8.91,6.75,17.65,10.18,26.46.55,1.4,1.65,3.29.35,4.1-1.47.92-2.85-.75-3.84-2.05-3.69-4.84-7.53-9.56-10.78-14.73-.51-.81-1.37-1.41-2.07-2.1-8.93-18.56-16.39-37.81-19.85-58.03-1.8-10.52-3.63-21.16-5-31.82-2.04-15.92-3.28-31.87-3.7-47.9-.07-2.73-1.61-5-1.58-7.87.27-21.05,2.83-41.81,7.11-62.39,2.43-11.68,5.64-23.16,9.44-34.47.35-1.05.51-2.16.76-3.25,2.03-4.74,4.06-9.49,6.1-14.22.43-1,.93-1.98,1.4-2.97Z" style="fill: #d0f5ba; stroke-width: 0px;"/>
  <path d="M432.41,353.51c1.93,4.02,1.9,8.42,2.16,12.69,1.71,28.37-7.99,53.49-22.2,77.33-9.74,16.35-18.69,33.21-29.2,49.05-7.86,11.84-14.27,24.87-25.15,34.58-7.55,6.74-16.29,10.59-26.28,12.25-7.17,1.19-13.76-.5-20.45-2.38-2.93-.82-4.42-2.57-4.04-5.75.16-1.35-.04-2.75.04-4.12.18-3.25-.51-5.3-4.44-3.76-1.41.55-3.1-.04-3.72-1.14-1.58-2.8-4.04-2.41-6.5-2.42-8.11,0-16.23-.04-24.34-.06.69-2.34,2.67-1.43,4.06-1.41,12.89.23,25.77-.16,38.65-.05,1.97.08,3.92-.16,5.83-.62,12.4-.75,24.23-3.7,35.39-9.2,5.44-2.18,11.78-2.13,16.22-6.81,1.19-1.25,2.53-2.34,3.51-3.81,2.21-3.31,2.23-3.29-1.36-4.45-1.38-.45-2.49-1.15-2.5-2.83.49-1.6.59-3.5,2.83-3.78,2.03-2.5,4.09-4.12,7.44-1.71,1.26.91,2-.88,2.71-1.88,5.47-7.73,9.72-16.19,14.64-24.25,7.13-11.68,13.67-23.71,19.79-35.94,7.93-15.84,14.02-32.28,14.74-50.35.25-6.4,2.36-12.67,2.17-19.18Z" style="fill: #376f19; stroke-width: 0px;"/>
  <path d="M301.23,259.92c3.12,2.58,2.75,5.5,1.27,8.89-3.6,8.25-3.5,8.27-12.46,8.31-3.97.02-7.9.48-11.68,1.77-.89.3-2.06.59-2.2,1.76-.14,1.09,1.01,1.38,1.68,1.77,3.62,2.1,6.96,4.19,9.62,7.8,2.05,2.78,6.49,2.52,10.05,2.84.46.04,1.24-.55,1.43-1.02,1.82-4.41,3.62-2.66,5.57-.11,1.34,1.75,3.46,2.38,5.35,3.3,3.19,1.55,3.29,2.11.6,4.43-.56.48-1.14.94-1.71,1.4-4.26,2.76-8.58,5.43-12.75,8.32-3.77,2.62-4.5,5.34-2.62,9.67,1.04,2.4,1.28,5.37,4.05,6.76,1.6.36,1.9,1.84,2.47,3.01,2.66,5.43,5.64,10.71,7.88,16.36.43,1.08.72,2.36,1.84,3.07,3.67,5.24,3.68,11.92,6.93,17.37,2.01,3.37,3.41,7.11,5.03,10.71,1.77,3.93,1.64,4.14-2.51,4.12-1.96,0-3.98.35-5.82-.73-1.67-10.48-4.24-20.59-9.54-30-4.02-7.14-7.85-14.45-10.77-22.17-1.1-2.9-1.92-3.03-4.25-.94-3.79,3.4-6.85,7.59-11.17,10.44-2.91,1.34-5.45,3.38-8.5,4.45-1.51.53-3,1.29-4.55.13-.38-1.12.32-1.9.86-2.72,5.66-8.67,6.5-18.65,7.75-28.52.08-.61-.07-1.24-.23-1.84-.36-1.35-.75-2.78-2.43-2.92-1.81-.16-2.69,1.1-3.14,2.63-1.32,4.54-2.58,9.09-4.23,13.53-2.14,5.74-4.84,11.2-8.15,16.33-1.05,1.64-2.06,3.85-4.78,3.32-.71-3.07.42-5.81,2.24-7.97,6.46-7.7,8.43-17.09,10.51-26.48.75-3.39,2.23-6.55,3.35-9.77,1.9-5.45,4-11.36,1.09-17.31.43-2.63,2.65-3.04,4.64-3.64,5.63-1.69,11.48-1.93,17.29-2.42,4.38-.37,4.41-.3,4.29-4.49-.09-2.96.26-5.99-2.05-8.43-.42-.45-.4-1.15.07-1.7,3.28-.54,6.42.93,9.68.69Z" style="fill: #529f27; stroke-width: 0px;"/>
  <path d="M277.29,336.28c3.85-3.72,7.75-7.37,11.52-11.17,2.15-2.17,3.64-1.91,4.65.87,4.11,11.27,10.27,21.57,15.51,32.3,2.9,5.94,2.78,12.56,4.95,18.63.27.77-.42,1.88-.66,2.83-2.5,0-5,0-7.5-.01-3.43.99-6.98.49-10.38.24-8.68-.65-17.4-.91-26.04-2.15-1.77-.25-3.49-.56-4.14-2.59-1.05-5.48-.7-11.28-3.79-16.28-1.04-1.61-.48-3.08.42-4.5,4.27-6.8,8.57-13.58,15.45-18.17Z" style="fill: #76b439; stroke-width: 0px;"/>
  <path d="M370.93,486.81c-.74,1.27-1.49,2.53-2.23,3.8-1.15,1.97.49,2.56,1.71,2.81,3.09.64,2.71,2.26,1.6,4.35-1.64,3.11-4.12,5.14-7.66,5.08-2.52-.04-4.31.84-5.86,2.62-1.51,1.73-3.67,2.54-5.49,3.83-7.58,3.7-15.48,6.39-23.81,7.85-4.03.7-8.04,1.36-12.15,1.2-1.68.84-3.58-.18-5.26.63-13.07.03-26.14.05-39.21.12-1.44,0-3.01-.5-4.28.68-2.39,1.37-1.93,3.84-2.29,5.99-2.16-1.82-2.82-4.36-1.83-6.71.9-2.14,3.47-1.48,5.42-1.48,12.5-.02,25.02.26,37.51-.09,13.45-.38,26.66-2.27,39.16-7.78,9.09-4.01,14.59-11.54,19.19-19.7,5.56-9.86,10.33-20.16,15.67-30.15,7.1-13.27,14.44-26.4,21.63-39.62,5.11-9.4,10.55-18.59,16.36-27.58,1.67-2.59,4.31-3.64,6.37-5.56.39-.36.9-.53,1.3-.07.48.55.11,1.15-.03,1.76-1.97,9.04-5.11,17.74-9.04,26.04-8.22,17.33-17.7,34.01-27.59,50.45-2.69,4.47-5.08,9.13-7.98,13.49-1.32,1.97-2.57,3.46-4.72.78-.95-1.18-2.13-1.28-2.94.33-1.18,2.32-3.07,4.27-3.53,6.95Z" style="fill: #0a2804; stroke-width: 0px;"/>
  <path d="M265.21,375.22c2.98,2.28,6.64,1.88,9.96,2.1,9.25.6,18.46,1.78,27.75,1.72.95,0,1.9.44,2.85.68.15,2.05,1.58,2.18,3.2,2.26,9.69.46,19.38.92,29.09.78,9.45-.14,18.88,1.25,28.35.71,8.54-.49,17.06-1.15,25.54-2.26.75-.1,1.61-.18,1.68-1.09.06-.71-.67-.94-1.28-1.12-.83-.25-1.65-.55-2.49-.8-2.57-.77-3.38-1.82-2.37-4.88,4.65-14.03,13.3-25.78,21.09-38.02,2.99-4.69,5.86-4.52,9.15.06,3.44,4.79,5.59,9.95,4.85,16-3.8-3.25-4.51-3.05-6.24,2.22-1.74,5.29-4.51,10.2-5.73,15.68-.4,1.79-1.31,3.56.05,5.32-1.31,3.38-4.7,4-7.43,4.93-9.94,3.39-20.36,4.04-30.77,4.81-10.2.75-20.42,1.02-30.61.6-15.49-.64-30.99-1.25-46.45-2.79-10.24-1.02-20.51-1.71-30.63-3.56-1.32-.24-3.05,2.38-3.65-.24-.44-1.91,2.44-1.28,3.09-2.7.11-.23.66-.26,1.01-.37Z" style="fill: #2e7536; stroke-width: 0px;"/>
  <path d="M258.69,360.25c-.84,1.52-1.67,3.03-2.51,4.55-1.12,2.75-3.22,4.89-4.71,7.41-.4.68-1.12,1.4-2.12.64-.14-2.86-1.19-5.22-3.44-7.12-2.85-2.4-3.33-6.03-4.39-9.32-.88-2.72-1.27-5.6-2.22-8.3-1.16-3.32-3.04-3.89-5.53-1.4-3.18,3.18-5.29,7.21-7.96,10.81-1.03,1.39.25,1.94,1.35,2.36,1.87.7,3.85,1.04,5.73,1.7,3.74,1.32,5.97,3.77,6.43,7.87.43,3.79.84,7.62,1.78,11.29,2.11.16,2.84-2.52,4.89-1.77.75,1.54-.32,2.61-.99,3.76-2.03,3.43-4.29,6.71-6,10.34-.55,1.17-.97,3.51-3.36,1.96-2.07-5.74-1.58-11.81-2-17.72-.68-9.56-2.2-11.96-13.28-14.81-7.66-1.97-15.32-.77-23-.07-11.06,1.01-21.84-.82-32.37-4.01-4.05-1.23-4.45-3.3-1.98-6.55,4.05,4.23,9.58,3.46,14.61,4.18,7.52,1.08,15.12,1.13,22.71.95.94-.02,2.17.34,2.67-.77.42-.93-.56-1.54-1.04-2.23-3.92-5.61-6.01-11.94-7.58-18.53-.45-1.91.71-3.31.73-5-.1-.36-.16-.72-.19-1.09.97-2.84,1.84-3.15,3.76-1.25.94.93,1.63,2.09,2.55,3.04,1.9,2.8,4.16,5.25,6.97,7.19.87.6,2.04,1.1,1.81,2.54-1.62,1.76-3.34,1.07-5.1.23-1.76-.84-3.19-2.28-5.15-2.99,0,7.51,9.64,17.02,15.47,17.91,3.87.59,6.74-1.18,9.05-4.06,2.57-3.19,4.55-6.86,7.77-9.52,2.12-1.75,4.25-3.52,7.31-3,2.86.83,4.61,2.69,5.21,5.61-1.41,5.33.76,9.59,4.26,13.28,1.76,1.86,4.06,2.73,6.74,1.82,1.01-.34,2.11-.84,3.14.06Z" style="fill: #75b63f; stroke-width: 0px;"/>
  <path d="M258.69,360.25c-3.31.95-6.54,2.28-9.84-.38-3.91-3.15-4.79-7.71-6.23-12.05-.54-1.63,1.22-1.6,1.79-2.43.12-.86.73-1.24,1.49-1.46.55-.1,1.1-.09,1.65-.02.61.09,1.35.25,1.75-.23,4.17-5.03,9.72-2.09,14.66-2.57.21-.02.41.23.59.41,4.06.07,7.1-2.44,10.44-4.18.75-.39,1.36-1.07,2.29-1.06-5.48,5.68-10.59,11.63-14.59,18.5-.8,1.37-1.13,2.69-1.27,4.17-1.21-.19-1.8.93-2.73,1.31Z" style="fill: #629c1e; stroke-width: 0px;"/>
  <path d="M249.57,372.95c2.84-2.2,3.37-6.28,6.61-8.16,2.07,2.46-.71,4.41-.68,6.66-12.47,22.48-27.77,43.13-41.71,64.66-2.74,4.22-5.36,8.54-3.11,14.19-3.32-2.18-4.13-4.72-2.6-8.33,1.21-2.86,2.75-5.57,4.14-8.35-.22-.91.03-1.71.53-2.47,7.4-11.17,14.55-22.51,21.6-33.9.46-.73.94-1.47,1.81-1.81,3.24-5.49,6.47-10.99,9.71-16.48-.12-2.84.89-4.98,3.71-6.01Z" style="fill: #76c5a4; stroke-width: 0px;"/>
  <path d="M410.66,374.56c-1.2.27-2.56.98-2-1.44,1.18-5.05,2.72-9.96,4.81-14.71,1.24-2.82,2.27-5.73,3.49-8.56.53-1.22,1.13-2.83,2.68-2.75,1.79.09,2.13,1.77,2.41,3.28.06.34.34.64.52.96.03,2.61-.15,5.08-1.88,7.33-.93,1.21-1.5,2.92-1.67,4.46-.59,5.49-3.97,8.8-8.37,11.43Z" style="fill: #75c4a2; stroke-width: 0px;"/>
  <path d="M423.31,331.11c1.66,5.19,3.35,10.37,4.96,15.57,2.52,8.15,2.49,16.24-1.13,24.08-1.62,3.5-3.77,6.66-7.85,8.28-.07-.64-.27-1.11-.13-1.27,8.23-8.81,8.4-19.21,6.09-30.16-1-4.73-1.8-9.51-2.69-14.27-.12-.87-1.08-2.02.75-2.24Z" style="fill: #99ddbf; stroke-width: 0px;"/>
  <path d="M309.63,348.26c-1.76.11-1.6-1.54-2.07-2.45-3.44-6.63-6.76-13.32-10.13-20-.01-.28-.03-.55-.04-.83-.09-.67.22-.91.86-.79,4.45,7.71,8.52,15.6,11.37,24.06Z" style="fill: #76b439; stroke-width: 0px;"/>
  <path d="M423.31,331.11c-.9.53-.41,1.52-.75,2.24-1.66-5.25-3.32-10.5-4.98-15.75,2.59,4.24,4.83,8.6,5.73,13.51Z" style="fill: #55a47c; stroke-width: 0px;"/>
  <path d="M431.66,346.02c1.25,1.34.56,2.98.69,4.5-1.26-1.34-.58-2.98-.69-4.5Z" style="fill: #376f19; stroke-width: 0px;"/>
  <path d="M260.76,360.38c.07.22.31.55.23.75-.17.39-.47.93-.8,1-.71.16-.69-.44-.53-.9.15-.42.34-.89,1.1-.86Z" style="fill: #629c1e; stroke-width: 0px;"/>
  <path d="M298.27,324.19c-.29.26-.57.53-.86.79-.75-.78-1.11-1.88-.11-2.37.68-.33.96.82.97,1.58Z" style="fill: #529f27; stroke-width: 0px;"/>
  <path d="M161.19,246.38c-.47-2.04-1.03-4.07-1.37-6.13-.41-2.45.16-3.93,3.18-2.93,6.41,2.12,12.13,5.59,17.9,8.96,4.92,2.87,9.72,5.96,14.73,8.65,5.24,2.82,7.06,2.23,10.53-2.58.72-1,1.48-1.98,2.22-2.96,3.29-4.6,5.28-10.06,9.01-14.33,4.88-5.61,11.99-5.54,16.66,2.02,1.19,1.93.68,3.85-.77,5.51-1.39,1.59-2.95,3.03-4.41,4.56-.98,1.38-2.54,2.44-2.47,4.42,1.57,1.08,3.39,1.31,5.21,1.56,1.44.96,3.11.14,4.67.66,5.11,1.7,8.02,6.74,7.48,13.35-.16,1.97-.64,3.9-.61,5.9.06,5.02,1.11,6.24,6.05,6.9.49.07.97.2,1.42.39,1.53,2.49-1.11,2.37-2.03,2.73-4.25,1.64-7.91,4.07-11.34,7.03-3.06,2.65-5.48,5.75-7.64,9.1-2.12,3.28-2.34,6.72-.64,10.3.84,1.78,1.93,3.52,1.56,5.65-.23.56-.63.93-1.2,1.13-1.43-.18-1.57-1.45-2.06-2.43-1.4-3.63-1.73-7.83-5.42-10.26-2.86-2.41-6.02-4.42-8.87-6.82-4.7-3.96-10.42-4.41-16.11-4.94-2.33-.22-3.05,1.65-3.81,3.44-3.01,7.14-2.57,14.6-2.15,22.06.08,1.35.61,2.7-.25,3.98-2.86,1.01-3.03-1.46-3.62-3-4.01-10.47-7.89-21-11.79-31.51-4.47-12.03-8.89-24.08-13.4-36.1-.51-1.37-1.37-2.71-.65-4.28Z" style="fill: #87bf3d; stroke-width: 0px;"/>
  <path d="M251.09,280.86c-8.12-.09-10.5-3.33-8.69-11.79,1.44-6.73-1.22-12.87-6.23-14.8-1.51-.58-3.34.33-4.57-1.15,10.74,1.07,21.48,2.13,32.21,3.22,9.25.94,18.49,1.92,27.73,2.89,4.67,3.36,2.33,8.61,3.38,12.93.69,2.85-1.93,2.59-3.7,2.68-6.3.34-12.59.76-18.73,2.32-1.9.48-3.97.8-4.92,2.92-1.77,1.63-3.98,1.01-6.04,1.14-2.84.18-5.7-.36-8.54.19-.71.07-1.36-.06-1.9-.55Z" style="fill: #649f1d; stroke-width: 0px;"/>
  <path d="M226.4,251.56c-1.85-2.2.85-3.01,1.38-4.48,3.39-2.29,6.18-5.39,9.79-7.39,2.64.66,3.14-.84,2.6-2.86-.35-1.28-1.13-2.49-1.92-3.59-5.41-7.64-9.26-16.12-13.42-24.44-.45-.9-.86-1.8-.73-2.84,1.06.36,1.48,1.28,1.85,2.2,3.48,8.66,8.33,16.58,13.25,24.46q3.49,5.6-1.65,9.92c-3.66,3.07-6.55,7.09-11.15,9.02Z" style="fill: #4c935e; stroke-width: 0px;"/>
  <path d="M445.12,134.74c5.28,5.94,9.36,12.74,13.76,19.31.98,1.46,1.82,4.27,3.67,3.28,1.62-.87-.49-3.02-1.01-4.58-.43-1.27-1.49-2.32-1.37-3.8,3.33,4.37,5.42,9.42,7.75,14.33,3.25,6.85,6.35,13.77,8.77,20.98.53,1.57.86,3.08.27,4.97-2.71-1.49-3.57-4.24-4.76-6.47-8.48-15.92-16.84-31.9-26.87-46.93-.19-.28-.14-.72-.21-1.08Z" style="fill: #acda77; stroke-width: 0px;"/>
  <path d="M274.25,81.51c-1.72,0-3.43.02-5.15.02,1.71-1.07,3.43-1.05,5.15-.02Z" style="fill: #66a435; stroke-width: 0px;"/>
  <path d="M377.67,63c.25-.04.5-.08.74-.12.85.62,1.85,1.11,2.15,2.26-1.4-.12-2.18-1.09-2.9-2.14Z" style="fill: #88c554; stroke-width: 0px;"/>
  <path d="M207.64,483.85c4.83-4.44,8.76-1.21,12.75,1.49-4.21-.86-8.6-.14-12.75-1.49Z" style="fill: #66a435; stroke-width: 0px;"/>
  <path d="M197.25,485.35c0-.72-.01-1.44-.02-2.15,1.48.11,3.1-.63,4.41.65-1.46.5-2.93,1-4.39,1.5Z" style="fill: #66a435; stroke-width: 0px;"/>
  <path d="M171.73,496.7c1.51.04,3.1-.47,4.47.61-1.5-.15-3.11.56-4.47-.61Z" style="fill: #66a435; stroke-width: 0px;"/>
  <path d="M180.7,497.5c1.28-.03,2.61-.43,3.74.56-1.22-.35-2.75,1.34-3.74-.56Z" style="fill: #66a435; stroke-width: 0px;"/>
  <path d="M236.16,395.45c-5.27,9.96-11.79,19.14-17.72,28.69-1.99,3.21-4.15,6.33-6.23,9.49-2.08,1.13-3.18.32-3.04-1.86.38-5.84-.72-11.59-.83-17.4-.12-6.03-1.56-11.73-5.22-16.7-.29-.4-.49-.97-.88-1.17-4.08-2.14-6.48-5.33-6.5-10.07-.03-2.62,0-5.24-.11-7.86-.2-4.88-1.72-6.92-6.48-7.56-7.74-1.04-15.54-1.7-23.31-2.52-3.21-.34-6.42-.61-9.62-1.06-1.95-.27-2.75-1.17-1.55-3.26,2.8-4.85,5.46-9.78,8.11-14.71.58-1.08.92-2.28,1.38-3.43,1.17-5.39,4.17-9.84,7.33-14.2.65-.9,1.59-1.57,2.25-2.46,1.74-2.31,3.75-2.51,6.14-1.03,2.55,1.58,5.19,2.96,8.36,1.94.8-.05,1.56.05,2.19.6-1.44,4.13-3.68,5.69-7.84,4.51-9.59-2.71-9.46-.31-13.04,6.49-1.84,3.5-3.32,7.22-6.13,10.14-2.07,3.23-1.81,4.04,1.63,5.36,5.96,2.29,12.34,2.43,18.5,3.67,9.47,1.9,18.73-1.07,28.1-.78,6.83.21,13.4,1.5,19.32,5.25,2.78,1.76,2.84,4.48,3.1,7.17.73,7.58,1.38,15.16,2.06,22.75Z" style="fill: #60a230; stroke-width: 0px;"/>
  <path d="M188.02,330.98c-3.08,2.24-5.49-.14-7.79-1.46-2.53-1.45-3.93-1.53-6.21.81-4.47,4.59-6.36,10.61-9.84,15.71-4.18,4.83-6.31,10.9-9.73,16.21-3.16,4.91-5.93,6.34-11.87,5.37-9.4-1.54-18.86-3.27-28.35-3.2-13.98.1-27.49-2.79-41.09-5.11-2.36-.4-6.4.07-6.26-4.65,0-.33-3.36-.93-5.18-1.11-3.22-.32-4.77-1.06-4.1-5.11.78-4.73.63-9.74.08-14.54-.67-5.8-3.28-9.74-10.24-5.17-1.97,1.29-3.42,2.86-3.88,5.22,0,.16,0,.32,0,.49-.13.49-.37.9-.89,1.06-.75-5.8,4.6-15.32,9.8-17.5,1.49-.63,2.94-.65,4.3.19,1.47.92,3.15,1.73,4.23,3.01,4.47,5.31,10.99,7.57,16.48,11.35,1.65,1.14,3.09,2.33,4.45,3.84,10.56,11.75,22.76,20.5,39.48,20.06,4.76-.13,9.41.84,14.14.8,3.98-.04,7.18-1.33,9.34-5.01,5.42-9.27,10.09-18.9,14.42-28.71.94-2.13.78-4.35.11-6.56-1.14-3.73-1.94-7.38.01-11.23.8-1.59.39-3.63-.1-5.5-5.25-19.66-10.46-39.34-15.67-59.01-.28-1.07-.26-2.25-.65-3.27-1.65-4.34-1.69-4.33,3.12-4.31.75,0,1.5.03,2.25.04.27.23.53.47.8.7,1.46.38,1.86,1.89,2.9,2.72.39.38.75.78,1.08,1.21,3.45,7.44,6.06,15.22,9.11,22.82,5.05,12.55,9.86,25.21,14.58,37.88,2.03,5.44,3.54,11.08,5.93,16.42.88,1.96,1.86,3.78,3.24,5.4,1.37,3.23,3.68,6.28,2.02,10.12Z" style="fill: #0c4923; stroke-width: 0px;"/>
  <path d="M72.19,427.77c-1.13-2.24-2.61-4.33-3.06-6.88.12-.34.35-.57.69-.7,4.11,3.29,6.27,8.32,10.43,11.57,1.78,1.39,3.36,4.49,5.77,2.81,2.14-1.49.39-4.42-.35-6.44-4.26-11.54-9.32-22.76-14.27-34.02-3.25-7.39-6.52-14.78-9.13-22.43-1.39-4.07-3.91-7.46-6.69-10.67,1.1-.16,2.04.35,2.99.77,5.26,3.77,8.2,9.25,10.59,14.99,5.39,12.95,9.88,26.28,16.56,38.68.17.32.3.65.43.98.38,1.35.89,2.63,1.72,3.78,6.02,11.73,12.23,23.32,19.56,34.33,5.09,7.66,10.16,15.38,14.37,23.6.68,1.33,1.71,2.74.53,4.14-1.12,1.33-2.69.75-4.17.43-6.22-1.33-10.87-5.06-14.33-10.09-6.86-9.96-14.05-19.68-21.16-29.46-2.94-4.04-5.66-8.2-8.22-12.48-.63-1.05-1-2.32-2.23-2.92Z" style="fill: #57ae84; stroke-width: 0px;"/>
  <path d="M72.19,427.77c2.12,0,2.48,1.96,3.27,3.2,8.44,13.18,18.37,25.29,27.14,38.23,2.54,3.75,5.28,7.14,8.98,9.81,2.3,1.66,4.95,2.27,7.52,3.18.91.32,2.1.54,2.78-.37.71-.96-.08-1.92-.57-2.75-3.89-6.5-7.83-12.98-11.73-19.47-6.28-10.43-12.6-20.83-18.77-31.32-1.5-2.55-2.53-5.39-3.77-8.09-.62-1.2-.81-2.58-1.5-3.75h0c-5.95-13.11-11.11-26.54-15.86-40.12-1.26-3.59-3.47-6.56-5.73-9.54-.78-1.03-2.09-1.89-1.62-3.53,1.67.46,3.36.87,5,1.4,6.28,2.01,8.86,7.05,10.63,12.87,4.42,14.49,8.75,29.01,13.79,43.31,2.07,5.86,4.19,11.68,6.51,17.45,2.12,5.28,5.81,9.51,8.79,14.21,5.65,8.92,11.96,17.42,16.98,26.75.67,1.24,1.81,2.49.56,4.1-1.19,1.54-2.52.92-4.03.65-10.49-1.86-19.24-6.47-25.18-15.62-.54-.84-1.03-.99-1.68-.16-7.15-10.1-12.07-21.42-17.75-32.32-1.38-2.64-2.51-5.41-3.75-8.12Z" style="fill: #3c7142; stroke-width: 0px;"/>
  <path d="M62.32,363.26c5.71,5.85,8.8,13.14,11.24,20.74,3.2,9.95,7.5,19.46,11.15,29.23.39,1.05.95,2.03.82,3.21-5.31-8.98-9.34-18.53-12.82-28.34-3.36-9.49-7.37-18.66-14.16-26.31,1.44.01,2.52.95,3.77,1.47Z" style="fill: #429462; stroke-width: 0px;"/>
  <path d="M43.54,333.95c1.26-.56,2.51-1.21,3.69.19,3.99,4.77,5.94,10.37,7.34,17.36-3.92-3.28-4.96-7.42-7.98-9.98-2.26-1.97-4.37-4-2.95-7.43l-.1-.14Z" style="fill: #94d9bb; stroke-width: 0px;"/>
  <path d="M43.65,334.1c-1.53,3.47,2.42,4.77,2.95,7.43-1.36.04-2.37-.16-1.52,2.04,1.51,3.9,2.97,7.48,7.76,8.21.74.11,1.81.1,2.12,1.19-8.7.17-12.58-4.26-11.67-13.13.14-1.41-.39-2.88-.61-4.33.17-.58.14-1.3.98-1.4Z" style="fill: #45976f; stroke-width: 0px;"/>
  <path d="M196.48,248.48c-8.93-4.64-17.25-10.31-25.8-15.56-18.93-11.62-37.72-23.47-56.56-35.26-.93-.58-1.68-1.43-2.52-2.16,4.1.63,6.97,3.64,10.48,5.42,1.59.81,3.1,1.79,5.04,2.02-3.74-2.38-7.5-4.71-11.2-7.15-5.02-3.31-5.36-4.03-3.61-9.8,3.22-10.63,7.9-20.71,12.34-30.85,6.84-15.64,13.73-31.28,22.68-45.88.32-.52.75-.97,1.14-1.45,2.66,3.14,6.27,3.9,10.15,4.56,4.58.79,8.7,2.93,12.1,6.25,3.27,3.19,6.28,6.65,10.06,9.3,3.69,4.72,6.16,10.17,8.93,15.41,9.28,17.58,17.77,35.55,25.86,53.71.19.43.22.94.32,1.42-1.6,1.51-1.58,3.62-1.92,5.53-1.91,10.83-4.66,21.42-9.03,31.55-2.07,4.8-3.98,9.72-8.45,12.96Z" style="fill: #1d5e27; stroke-width: 0px;"/>
  <path d="M196.48,248.48c5.45-7.23,8.79-15.49,11.55-23.99,2.5-7.67,4.06-15.6,5.5-23.53.28-1.54.44-2.71,2.34-2.52,2.58,6.04,6.26,11.56,8.39,17.82.37.81-.03,1.45-.49,2.05-5.81,7.58-9.14,16.48-13.25,24.96-.27.68-.6,1.34-.98,1.97-2.6,4.1-6.68,4.31-10.91,4.15-.88.07-1.52-.42-2.16-.91Z" style="fill: #092b08; stroke-width: 0px;"/>
  <path d="M180.76,127.91c-.62.82-.99.47-1.73-.07-5.13-3.71-8.46-9.45-14.33-12.39-3.32-1.66-6.78-2.61-10.31-2.92-3.32-.29-4.9-1.96-5.93-4.73,1.39-3.33,4.35-5.37,6.59-8,.43-.5.81-.88,1.55-.53,5.31,2.47,9.83,5.85,12.97,10.9,3.7,5.93,7.46,11.83,11.19,17.74Z" style="fill: #072a13; stroke-width: 0px;"/>
  <path d="M209.1,244.9l.73-1.58c4.38-9.33,9.4-18.3,15.16-26.85,3.34,4,4.38,9.24,7.32,13.46,2.34,2.93,2.66,6.96,5.26,9.75,0,0,0,0-.01,0-2.42,3.58-6.16,5.41-9.79,7.39,1.62-1.71,3.22-3.44,4.85-5.13,1.67-1.73,1.67-3.41.15-5.26-5.46-6.64-12.13-5.91-16.65,1.56-2.34,3.86-3.52,8.58-7.74,11.14-.52-.03-1.05-.05-1.57-.08.18-1.77,1.87-2.76,2.29-4.42Z" style="fill: #588f20; stroke-width: 0px;"/>
  <path d="M224.99,216.47c-.97,3.76-3.17,6.94-5.28,10.04-3.67,5.39-6.29,11.38-9.88,16.8.67-4.15,3.18-7.51,4.97-11.16,2.71-5.55,4.93-11.42,9.46-15.9.25.07.49.14.74.21Z" style="fill: #1d5e27; stroke-width: 0px;"/>
  <path d="M237.58,239.68c-.72-.02-1.63.12-1.93-.66-1.17-3.01-2.23-6.05-3.33-9.09,3.08,2.54,3.89,6.29,5.26,9.75Z" style="fill: #4c935e; stroke-width: 0px;"/>
  <path d="M69.81,420.19c-.23.23-.46.47-.69.7-1.84-3.74-3.68-7.47-5.52-11.21-.87-2.28-1.73-4.55-2.6-6.83.2-.09.4-.18.61-.27,2.73,5.87,5.47,11.74,8.2,17.6Z" style="fill: #3c7142; stroke-width: 0px;"/>
  <path d="M152.2,238.17l-.75-.77c0-1.01-1.21-2.43.26-2.94,1.68-.58,2.44,1.28,3.54,2.18,2.09.17,2.29,1.95,2.98,3.39,1,2.11,1.22,4.59,2.96,6.35,8.22,21.99,16.36,44.01,24.73,65.94,1.18,3.09,1.12,6.94,4.44,9.02,2.03.92,2.1,2.78,2.23,4.62-.86,1.63.54,4.23-2.16,5.09-.8-.02-1.61-.05-2.41-.07-.19-3.45-1.27-6.64-2.81-9.7-5.32-11.1-8.74-22.93-13.2-34.36-6-15.38-11.75-30.85-17.76-46.22-.41-1.05-.9-2.07-2.05-2.53Z" style="fill: #5d9f2f; stroke-width: 0px;"/>
  <path d="M155.25,236.64c-1.51.19-2.16-1.28-3.26-1.84-.81.84.75,1.99-.54,2.6-1.34-.56-1.54-1.99-2.3-3.01,3.82-2.42,5.17-1.92,6.09,2.25Z" style="fill: #87bf3d; stroke-width: 0px;"/>
  <path d="M209.1,244.9c.43,2.09-1.42,3-2.29,4.42-2.73-.36-5.43,2.23-8.18.08,3.8-.78,7.69-1.35,10.47-4.5Z" style="fill: #1d5e27; stroke-width: 0px;"/>
  <path d="M352.99,509.31c2.23-2.11,4.51-4.17,6.68-6.34,1.1-1.1,2.35-1.27,3.75-1.05,3.18.48,5.55-.91,7.24-3.42,1.32-1.96,2.75-4.09-1.41-4.67-2.79-.39-1.89-1.87-.56-3.22.69,2.39,2.63,2.51,4.46,2.08,2-.47,2.8-.16,1.77,1.84-3.28,6.37-7.77,11.27-15.28,12.63-2.27.41-4.44,1.42-6.66,2.15Z" style="fill: #0b4725; stroke-width: 0px;"/>
  <path d="M311.77,518.98c1.63-1.26,3.5-.45,5.26-.63-1.63,1.26-3.5.5-5.26.63Z" style="fill: #0b4725; stroke-width: 0px;"/>
  <path d="M252.53,280.8c4.95-1.58,10.03-.32,15.04-.72,1.62.21,2.51,1.06,2.31,2.76-.55,4.68.28,10.25-1.98,13.87-5.27,8.44-4.4,18.44-8.46,27.04-1.07,2.27-2.03,4.61-3.62,6.49-2.81,3.32-4.69,7-5.54,11.24-.06.92-.66,1.46-1.36,1.93-.96.56-2.23.24-3.08,1.11-.47.29-.94.58-1.42.87-1.82-1.73-2.65-4.43-5.28-5.37-1.37-2.59-2.2-5.19-.15-7.84,2.27-1.26,2.41-3.52,2.77-5.75-1.06-.26-1.53,1.5-2.54.74-.99-.75-.54-1.85-.19-2.73,1.58-4,2.74-8.22,5.77-11.5,1.1-.69,2.06-2.15,3.58-1.21,1.59.98,1.07,2.62.84,4.07-1.18,7.48-1.75,15.04-2.73,22.7,2.35-.02,3.2-1.55,3.2-3.27.06-13.87,5.99-26.3,9.55-39.38-1.06-.17-1.59,1.12-2.61.93-1.5-1.15-.37-2.24.17-3.24.83-1.53,1.97-2.88,2.81-4.41.5-.91,1.73-1.94.72-2.96-.89-.89-2.14-.07-3.14.34-3.95,1.59-6.77,4.67-9.47,7.73-5.08,5.77-10.55,11.37-11.79,19.51-.26,1.74-.23,3.46-.26,5.2-.03,1.56.06,3.44-2.39,3.4-.34-.17-.62-.4-.86-.7-.85-2.05-2.35-3.91-1.83-6.35,2.5-6.1,4.14-12.52,6.81-18.57,2.21-5.01,5.33-9.27,9.74-12.52,2.16-1.59,4.65-2.57,7.06-2.78-.51.3-1.11-.06-1.65-.64Z" style="fill: #8dcb5d; stroke-width: 0px;"/>
  <path d="M248.73,342.98c.52-.5,1.03-1,1.55-1.5,2.99-1.65,4.48-4.54,6.02-7.36,4.52-8.3,7.95-17.02,9.92-26.29.45-2.12,1.88-3.69,4.15-3.57,2.09.1,2.98,1.58,3.42,3.71.88,4.29-.33,8.34-1.06,12.4-1.36,7.54-2.73,15.16-8.17,21.16-2.88.57-5.76,1.27-8.58-.2-1.67-.87-2.34.63-3.43,1.28-1.59.94-2.65,3.51-5.19,1.95.04-.88,1.01-.97,1.37-1.57Z" style="fill: #237b0d; stroke-width: 0px;"/>
  <path d="M296.84,380.67c1.37-1.33,2.54-.68,3.94-.95q-1.51,1.39-3.94.95Z" style="fill: #0b4725; stroke-width: 0px;"/>
  <path d="M191.89,325.8c-.51-1.49-1.02-2.97-1.53-4.46-.78-4.04-.54-8.15-.77-12.23-.3-5.49,1.21-10.54,2.95-15.62.88-2.57,2.55-2.98,4.9-2.87,8.16.36,15.11,3.54,21.05,9.01,1.36,1.25,3.33,1.81,4.16,3.65-3.89,3.35-2.87,7.21-1.17,11.16,1.64,3.81,4.12,7.07,6.82,10.3-.1-2.17-.68-4.25-1.01-6.37-.25-1.57-.77-3.2.59-4.58.49.76.98,1.52,1.46,2.28,1.91,2.66,1.55,5.95,2.46,8.88.1,2.26.33,4.53-1.05,6.55-2.18,1.71-3.09-.15-4.04-1.54-2.05-3-4.67-5.44-7.44-7.74-1.69-1.4-3.57-2.19-5.81-1.93-3.64-1.39-4.98-5.05-7.47-7.59-1.18-1.2-2.07-3.57-3.87-2.96-1.92.65-.88,3.06-1.01,4.7-.85,10.56,4.71,18.18,11.63,25.16.6.61,1.3,1.36,2.25.9,1.15-.56.91-1.69.63-2.63-.89-2.98-2.48-5.7-3.21-8.74-.73-3.03-.55-5.72,2.65-7.32,4.27,2.27,6.76,6.24,9.54,9.94.3.4.45.96.16,1.38-.41.61-1.06.47-1.66.26-.91-.32-1.57-1.2-3.13-1.25.19,3.87,1.19,8-2.48,10.84-3.93,1.5-5.72.99-7.65-2.16-3.19-2.81-7.15-4.86-8.96-9.04-3.26-4.2-4.7-9.22-6.25-14.2-.43,4.09-.04,8.04,1.04,11.93.02.27.03.54.05.81-.33,1.54-1.18.71-1.76.3-1.67-1.16-1.87-3-2.06-4.82Z" style="fill: #97d367; stroke-width: 0px;"/>
  <path d="M191.89,325.8c1.67,1.17.75,4.52,3.82,4.52.7,1.17.68,1.15-.39,2.07-.86.74-.26,1.58-.06,2.37,1.84,7.38,3.71,14.71,9.17,20.52,1.84,1.95.12,2.66-1.58,2.69-5.74.09-11.5.32-17.22-.05-6.17-.4-12.3-1.38-18.43-2.19-2.09-.28-3.95-1-3.77-3.69,2.66-5.88,5.63-11.59,8.97-17.1,1.79-2.95,4.9-2.05,7.06-1.27,4.47,1.61,8.12,1.68,10.97-2.62,1.5-1.47.16-3.73,1.46-5.25Z" style="fill: #83bb38; stroke-width: 0px;"/>
  <path d="M209.82,340.81c2.28,1.73,4.63,3.13,7.57,1.47,4.3-3.43,8.54-6.93,12.67-10.56.82-2.16.89-4.41.82-6.68.95-1.12-.95-3.94,2.22-3.74,0,.24.02.47.02.71,2.02,1.19,1.72,3.38,2.21,5.21.47,1.77.87,3.29,3.29,3.02,1.81-.2,2.15.77,1.2,2.25-2.42,2.31.12,5.07-.68,7.52-4.91.34-7.54,3.99-10.37,7.27-1.45,1.68-2.58,3.64-3.9,5.45-3.29,4.52-8.62,5.77-13.51,2.98-6.57-3.74-10.71-9.48-13.14-16.55-.32-.92-.36-1.75.45-2.36.96-.73,1.53.17,2.25.62,2.74,1.71,4.98,4.77,8.9,3.39Z" style="fill: #60a230; stroke-width: 0px;"/>
  <path d="M249.57,372.95c-1.24,2-2.47,4.01-3.71,6.01-2.09.68-2.92,4.49-5.26,3.26-1.76-.92-.73-4.1-1.41-6.22-.59-1.86-.81-3.9-.8-5.87.02-4.32-2.27-6.57-6.15-7.79-2.81-.88-7.07-.67-8-3.05-1.02-2.6,2.9-4.71,4.37-7.23.94-1.61,2.04-3.12,3.07-4.68,1.4-2.11,3.53-3.63,5.87-3.32,2.13.28,2.45,2.9,3,4.76.99,3.33,1.9,6.69,2.7,10.06.72,3.02,2.17,5.5,4.57,7.48,2.12,1.75,2.97,3.91,1.75,6.58Z" style="fill: #83bb38; stroke-width: 0px;"/>
  <path d="M195.65,329.51c-2.34-3.57-3-9.22-1.45-15.41,2.41,6.4,4.54,12.04,6.66,17.68-1.58-.64-1.99-2.33-3.07-3.4-1.77-1.74-2.12-.55-2.14,1.14Z" style="fill: #83bb38; stroke-width: 0px;"/>
  <path d="M248.73,342.98c-.11.82-.68,1.25-1.37,1.57-.51-.01-1.02-.02-1.52-.03.58-1.23,1.64-1.57,2.89-1.54Z" style="fill: #75b63f; stroke-width: 0px;"/>
  <path d="M252.53,280.8c1.23.06,2.46.11,4.79.22-4.8,1.7-8.73,2.76-11.87,5.73-7.14,6.75-9.33,15.85-12.28,24.61-.52,1.55-.77,3.13-2.35,4.01-.26.21-.47.18-.65-.1-.5-1.4-.8-2.91-1.53-4.17-2.96-5.06-1.98-9.57,1.22-14.17,5.36-7.7,12.54-12.83,21.23-16.06.48-.02.96-.04,1.44-.06Z" style="fill: #b2e182; stroke-width: 0px;"/>
  <path d="M227.88,313.79c-.31,3.54,1.01,6.84,1.52,10.25.1.68.75,1.51-.22,1.96-.76.35-1.59-.15-1.99-.69-3.65-5.02-7.37-10.02-8.32-16.42-.46-3.07,1.24-4.6,3.78-5.61,4.2,2.28,4.24,6.63,5.23,10.51Z" style="fill: #b2e182; stroke-width: 0px;"/>
  <path d="M230.17,315.26c.22.02.44.05.65.1.76,1.98,1.52,3.97,2.28,5.95-1.95.53-.98,2.79-2.22,3.74-.65-2.97-1.58-5.89-1.54-8.98.28-.27.55-.54.83-.81Z" style="fill: #75b63f; stroke-width: 0px;"/>
  <path d="M152.2,238.17c1.94-.41,2.23,1.12,2.71,2.36,4.86,12.61,9.75,25.21,14.56,37.84,4.9,12.86,9.75,25.74,14.58,38.63.52,1.38.78,2.85,1.16,4.28-3.85-4.57-5.85-10.18-7.35-15.69-2.01-7.33-5.2-14.16-7.61-21.31-3.28-9.75-7.4-19.22-11.18-28.81-2.27-5.77-4.58-11.53-6.87-17.3Z" style="fill: #1f612a; stroke-width: 0px;"/>
  <path d="M145.72,234.61c1.16.62,2,1.48,2,2.89,0,.65-.2,1.48-.95,1.2-1.22-.45-1.99-1.45-1.99-2.87,0-.65.03-1.26.94-1.23Z" style="fill: #76c09d; stroke-width: 0px;"/>
  <path d="M85.53,416.44c1.2.97,1.56,2.28,1.5,3.75-1.15-.99-1.56-2.28-1.5-3.75Z" style="fill: #429462; stroke-width: 0px;"/>
  <path d="M239.82,332.49c-.2-.6.48-2.13-1.09-1.39-2.99,1.41-3.62-.41-4.11-2.69-.46-2.14-.99-4.26-1.5-6.39,1.82-.14,1.9-1.73,1.76-2.78-.94-7.21,1.95-13.02,6.19-18.49,3.89-5.03,7.87-9.94,13.09-13.67.3-.22.56-.53.9-.67,2.13-.92,4.8-3.02,6.51-1.31,1.75,1.75-.99,3.84-1.93,5.72-1,1.98-2.89,3.45-3.31,5.76.5,1.43-.48,2.38-1.2,3.33-3.44,4.56-6.22,9.61-10.04,13.9-2.9,3.86-4.19,8.4-6.03,13.12,1.95-.59,1.58-2.7,3.68-3.06-.12,3.31.56,6.56-2.93,8.63Z" style="fill: #75b63f; stroke-width: 0px;"/>
  <path d="M245.09,313.81c3.01-6.22,7.41-11.54,11.24-17.23.71-.68,1.48-1.3,2.12-2.04.55-.63.9-1.84,1.92-1.18.8.51.37,1.57.1,2.42-2.59,8.19-5.18,16.37-7.72,24.57-1.07,3.45-1.75,6.97-1.71,10.63.06,5.51-.02,5.51-5.88,10.25.6-5.31,1.06-10.28,1.75-15.22.57-4.04.34-8.2,1.75-12.13.22-.62.09-1.41-.51-1.65-1.52-.6-1.88,1.36-3.07,1.58Z" style="fill: #b5e386; stroke-width: 0px;"/>
  <path d="M215.17,322.01c-4.18,3.8-1.59,7.76-.18,11.63.63,1.74,1.6,3.34,1.87,5.25.18,1.28-.19,2.27-1.12,2.96-1.17.86-2.07.04-2.93-.76-8.79-8.24-14.23-17.86-12.68-30.42.13-1.02.12-2.07,1.17-2.56,1.3-.6,2.06.39,2.89,1.14,3.49,3.2,5.45,7.75,9.37,10.57.9.47,1.99.8,1.61,2.2Z" style="fill: #b5e180; stroke-width: 0px;"/>
  <path d="M215.17,322.01c-.54-.73-1.07-1.47-1.61-2.2,3.42-1.89,5.42.96,7.39,2.63,2.7,2.28,5.58,4.58,7.03,8.04.36.86,1.09,1.33,2.08,1.25-.94,3.57-4.55,4.62-6.78,6.96-1.5,1.58-3.52,3.07-5.9,3.59,1.54-2.31,2.74-4.59,1.68-7.6-.44-1.24-.94-3.22.58-4.06,1.51-.83,2.23,1.09,3.28,1.83.38.27.68.72,1.45.39-2.69-3.98-6.1-7.29-9.21-10.84Z" style="fill: #75b63f; stroke-width: 0px;"/>
</svg>