<?xml version="1.0" encoding="UTF-8"?>
<svg id="Layer_1" data-name="Layer 1" xmlns="http://www.w3.org/2000/svg" viewBox="0 0 598.94 598.73">
  <path d="M596.18,337.53c-1.65,10.33-3.57,20.59-5.73,30.84-5.23,24.82-14.36,48.14-26.14,70.43-25.07,47.44-60.4,85.49-105.83,114.09-27.21,17.13-56.48,29.46-87.69,37.14-33.25,8.18-66.98,10.65-101.01,7.15-59.72-6.14-113.11-28.1-159.67-66.01-42-34.2-72.37-76.96-91.35-127.7-8.59-22.95-14.12-46.64-16.84-71.03-2.3-20.68-2.6-41.37-.53-62.01,5.31-52.9,23.18-101.25,54.04-144.61,30.27-42.53,69.14-74.94,116.33-97.28,30.43-14.4,62.42-23.34,95.93-26.84,45.24-4.73,89.34.37,132.18,15.58,29.55,10.49,56.91,25.21,81.66,44.54,6.58,5.14,12.83,10.72,19.13,16.21,5.45,4.75,10.58,9.82,15.49,15.03,7.24,7.68,14.47,15.46,20.52,24.19.35.5.86.89,1.3,1.33-1.92,1.52-2.94.03-3.96-1.23-5.33-6.61-11.02-12.93-17.06-18.84-9.44-9.22-19-18.36-29.48-26.46-14.84-11.48-30.45-21.8-47.23-30.15-15.08-7.5-30.62-14.04-47.4-16.94-4.85-.84-6.54.65-3.99,4.65,4.27,6.71,4.17,14.7,7.59,21.54.17.34.39.73.33,1.06-.95,4.84,1.76,9.52.62,14.37-.36,1.54-.12,3.03.84,4.27,1.61,2.08,1.83,4.21.86,6.66-.96,2.42-.49,4.85.34,7.3.81,2.39.8,4.72-2.09,5.93-1.59.15-2.87-.7-4.23-1.31-20.8-9.39-42.39-16.08-65.05-19.26-11.38-1.6-22.81-2.53-34.27-2.1-20.64.78-40.84,4.34-60.6,10.46-27.25,8.44-52.91,19.99-75.65,37.49-4.73,3.64-9.03,7.83-14.02,11.15-.49.08.1-.09-.36.09-10.69,4.19-20.5,14.13-17.19,25.15,1.14,3.79,3.13,7.08,6,9.74,7.02,6.51,13.7,13.39,21.02,19.57,7.18,6.07,15.13,9.55,24.77,7.05,2.86-.74,6.01-.42,8.52-2.4.93-.45,1.93-.57,2.92-.51,4.4.24,7.94-1.59,11.2-4.35,14.8-12.54,31.4-22,49.54-28.82,1.51-.57,2.98-1.32,4.69-.96,5.16.58,10.15-.85,15.21-1.33,20.04-1.88,39.54.22,58.65,6.65,19.4,6.53,36.82,16.46,52.7,29.28,18.31,14.78,31.56,33.47,42.24,54.2,6,11.65,10.27,23.83,11.48,36.94.62,6.69,1.42,13.48-2.56,19.61-.89.74-1.96,1.18-3.06,1.26-5.72.43-10.9,2.27-15.53,5.66-8.76.46-13.93,7.77-11.45,16.15.65,2.2,1.75,4.14,3.16,5.91,13.69,17.15,27.44,34.25,42.02,50.67,3.09,3.48,6.27,6.72,10.15,9.3,6.6,4.39,13.86,4.28,21.27,3.4,1.04-.12,1.72-.97,2.58-1.46,2.02-.53,3.69.6,5.5,1.12,1.92.78,3.96.31,5.93.55,3.47.42,4.29,1.96,2.73,4.99-2.01,3.9-1.65,5.79,1.68,8.84,2.35,2.15,3.7,5.38,6.99,6.54.21.07.27.24.27.25.61,5.94,6.25,8.37,9.24,12.66,3.13,4.5,5.43,10.04,10.72,12.88.86.46,1.77,1.29,1.95,2.21.99,5.31,4.96,9.11,6.89,13.93,1.99,4.97,6.61,5.78,10.26,1.81,7.81-8.51,14.02-18.14,19.61-28.2,14.33-25.8,23.18-53.5,28.31-82.45,1.24-6.99,2.61-13.97,2.89-21.11.08-2.11-.11-5.68,2.33-5.55,2.55.14.58,3.53,1.15,5.39.14.46-.01.99-.26,1.44-.31,3.45-.63,6.91-.94,10.36-.64,1.23.09,2.66-.55,3.89Z" style="fill: #1992e7; stroke-width: 0px;"/>
  <path d="M597.66,323.27c-.1-2.14-.2-4.29-.36-7.45-2.99,4.76-2,9.16-2.52,13.17-1.87,14.56-4.81,28.88-8.67,43-4.34,15.87-10.19,31.25-17.65,45.93-6.66,13.1-14.16,25.72-24.13,36.66-1.55,1.7-3.64,4.25-5.86,3.06-2.38-1.28-5.17-2.1-6.42-5.9-1.59-4.82-5.24-8.98-6.92-14.03-.33-.99-1.72-1.85-2.82-2.31-2.38-1.02-3.93-2.52-4.13-5.19-.07-.94-.44-1.94-1.23-2.18-3.03-.91-3.76-3.7-5.06-5.97-.95-1.66-1.98-2.95-3.66-4.03-1.96-1.27-4.4-2.69-3.65-5.86.15-.64-.12-1.55-.68-1.59-4.81-.31-5.06-5.72-8.65-7.59-2.55-1.33-2.55-6.18-.67-8.69.54-.73,1.9-1.17,1.21-2.41-.6-1.07-1.73-1.22-2.92-1.32-2.06-.16-4.25.7-6.17-.67,1.26-1.45,3.01-1.11,4.55-1.02,5.13.29,9.13-1.81,12.7-5.3,9.5-9.26,17.82-19.53,26.17-29.78,9.69-11.9,19.29-23.88,28.56-36.12,1.36-1.79,2.65-3.63,3.82-5.55,3.46-5.69,2.18-9.39-4.01-11.61-4.74-1.7-9.68-2.37-14.68-2.63-1.99-.1-3.99,0-5.99-.03-6.91-.12-9.12-2.29-9.35-9.28-.19-5.73-.07-11.45-.63-17.19-1.05-10.74-3.1-21.24-6.15-31.55-7.29-24.57-18.04-47.58-31.92-69.11-7.18-11.14-15.17-21.77-24.5-31.15-18.5-18.62-39.35-34.16-63.04-45.72-1.76-.86-4.23-1.08-4.71-3.69,1.64-1.56,2.08-3.37.96-5.39-1.52-2.74-1.24-5.49-.1-8.23.49-1.19,1.22-2.54.21-3.5-2.75-2.62-2.67-5.58-1.85-8.92.37-1.5.33-3.22-.85-4.64-.36-.43-.69-1.29-.5-1.72,2.14-4.91-2.61-8.71-2.27-12.92.56-6.97-5.54-11.13-6.06-17.42-.31-3.84.18-4.55,3.86-3.89,8.08,1.44,16.03,3.44,23.74,6.27,21.74,7.97,41.95,18.88,60.84,32.22,11.79,8.32,23.03,17.31,33.37,27.4,9.24,9.01,18.5,17.99,26.43,28.22.77.99,1.66.92,2.65.9,8.71,10.77,16,22.49,22.79,34.52,15.84,28.06,26.64,58,32.8,89.58,5.03,25.79,6.38,51.86,4.65,78.08-.06.84-.36,1.67-.55,2.51Z" style="fill: #3da1e9; stroke-width: 0px;"/>
  <path d="M596.18,337.53c-.07-1.33-.53-2.72.55-3.89.11,1.34.28,2.69-.55,3.89Z" style="fill: #3da1e9; stroke-width: 0px;"/>
  <path d="M87.73,220.57c1.68-1.66,3.46-3.24,5.04-4.99,9.19-10.16,21.17-8.78,30.64-1.97,6.43,4.63,11.27,10.92,16.32,16.93,14.5,17.28,28.71,34.79,42.16,52.92,7.93,10.7,2.64,14.69-6.43,16.73-6.15,1.38-12.41.97-18.59,1.73-4.63.57-5.57,1.69-5.94,6.34-2.36,29.91,8.33,55.67,25.1,79.51,22.72,32.3,54.03,51.97,91.7,62.24,7.93,2.16,16.08,3.18,24.22,4.2,3.28,2.52,7.21,2.51,11.04,2.75,21.78,1.33,41.88-4.83,61.36-13.8,13.22-6.08,25.34-13.84,36.65-22.99,3.8-3.08,7.68-6.2,12.38-7.98,2.35.34,4.07,1.86,5.71,3.34,13.06,11.79,25.36,24.36,37.07,37.47,6.57,7.35,6.14,12.52-1.11,19.3-15.78,14.76-33.78,26.16-53.37,35.19-20.77,9.58-42.45,16.21-64.82,20.69-5.21,1.05-10.61,1.14-15.82,2.35-.76,1-1.95.8-2.97,1.07-2.55.2-5.15-.27-7.65.59-2.86.48-5.74.27-8.62.31-1.76-.12-3.52-.1-5.29-.02-2.38,0-4.76.12-7.12-.28-1.75-.58-3.57-.6-5.39-.54-14.22-.17-28.01-3.22-41.57-7-24.06-6.69-46.64-16.92-67.75-30.26-12.04-7.6-23.19-16.33-33.74-25.96-25.33-23.11-42.69-51.55-56.02-82.65-7.53-17.57-13.4-35.76-15.4-54.94-.69-6.56-1.21-13.14-1.07-19.77.15-6.96-1.49-8.48-8.58-8.68-5.1-.14-10.23.35-15.27-.96-2.42-.63-4.83-1.28-7.07-2.39-5.42-2.67-6.7-6.23-4.04-11.62,2.39-4.84,5.87-8.97,9.13-13.22,12.9-16.83,26.34-33.23,39.91-49.53,1.46-1.75,3.01-3.33,5.21-4.12Z" style="fill: #dee1e2; stroke-width: 0px;"/>
  <path d="M397.53,90.19c5.89,3.21,11.8,6.37,17.65,9.64,19.18,10.7,36.35,24.09,51.47,39.94,14.95,15.68,26.98,33.53,36.9,52.81,9.66,18.76,17.41,38.22,22.14,58.81,2.31,10.08,3.72,20.31,3.72,30.69,0,16.05.46,14.55,14.48,14.88,4.99.12,9.92.9,14.66,2.5,7.47,2.52,9.04,6.81,4.69,13.34-6.43,9.65-13.87,18.54-21.08,27.6-10.08,12.67-20.24,25.28-31.01,37.38-.75.84-1.58,1.6-2.29,2.46-5.77,6.94-12.76,11.05-22.16,9.67-1.73-.51-3.46-1.03-5.18-1.54-1.8.66-3.05-.47-4.44-1.27-6.64-3.84-11.09-9.97-15.99-15.55-12.16-13.86-23.47-28.42-34.89-42.88-4.62-5.85-9.46-11.61-12.91-18.29-1.09-2.11-2.78-4.46.24-6.52,3.67-4.43,8.79-5.55,14.13-6.23,1.47-.19,2.91-.51,4.37-.77.9-.71,1.94-.97,3.07-.98,2.32.05,4.63.01,6.95.03,9.84.15,9.73,0,10.03-9.94.51-16.56-1.46-32.67-8.16-47.94-7.01-15.98-16.12-30.67-27.42-44.02-15.48-18.29-34.78-31.35-56.36-41.18-15.2-6.92-31.21-11.19-47.87-12.95-22.88-2.43-44.68,1.62-65.8,10.41-10.88,4.52-21.32,9.75-30.98,16.54-4.1,2.88-7.78,6.25-11.58,9.48-7.28,6.16-15.27,9.36-24.85,6.13-2.65-1.2-4.77-3.15-6.84-5.09-10.25-9.62-19.56-20.14-29.35-30.21-3.12-3.2-5.84-7-5.31-11.89.38-3.57,1.04-7.21,5.3-8.47,5.41-4.37,10.7-8.88,16.24-13.08,18.42-13.97,38.94-23.96,60.62-31.75,19.61-7.05,39.73-12.05,60.48-14.03,16.92-1.61,33.82-.93,50.66,1.63,23.29,3.55,45.32,11,66.69,20.68Z" style="fill: #e1e3e4; stroke-width: 0px;"/>
  <path d="M301.63,531.52c2.98-.08,5.95-.15,8.93-.23,2.48-.76,5.09.22,7.58-.56.97-.07,1.93-.13,2.9-.2,2.12.73.93,1.29-.16,1.53-3.75.81-7.5,1.84-11.31,2.18-11.89,1.06-23.81,2.32-35.75,1.57-20.22-1.26-40.2-4.24-59.53-10.54-16.82-5.48-33.03-12.35-48.43-21.22-19.13-11.02-36.41-24.3-51.38-40.48-10.67-11.53-19.63-24.39-27.46-37.99-7.4-12.87-13.83-26.24-18.93-40.18-5.38-14.69-9.34-29.76-11.5-45.33-.74-5.32-.3-10.64-1.24-15.95-1.31-7.38-5.02-12.31-12.11-14.56-3.9-1.24-7.94-2.02-11.83-3.28-6.55-2.12-9.96-10.7-6.18-16.55,3.83-5.93,8.12-11.61,12.7-16.99,5.96-7,11.28-14.51,17.28-21.46,8.75-10.14,16.46-21.28,27.73-29.02,1.47-1.01,2.89-1.97,4.78-1.72-10.15,11.39-19.7,23.28-29.19,35.23-7.78,9.79-15.75,19.42-22.82,29.74-1.71,2.5-3.65,5.17-2.14,8.79.94,2.27,2.81,3.18,4.61,3.92,4.45,1.82,9.08,3.06,13.98,3.08,3.74,0,7.49.16,11.22.51,4.59.43,5.77,1.74,6.01,6.43.26,5.11.27,10.23.55,15.34,1.1,19.87,6.63,38.68,13.94,57.03,11.21,28.14,26.22,54.03,46.84,76.36,15.42,16.69,33.3,30.36,53,41.71,19.1,11,39.19,19.68,60.41,25.44,12.93,3.51,26.16,6.13,39.66,6.65,1.72.66,3.58-.13,5.3.5,2.48.09,4.95.17,7.43.26,1.7.39,3.41.4,5.11,0Z" style="fill: #1764d0; stroke-width: 0px;"/>
  <path d="M435.11,296.77c-1.03.02-2.06.05-3.09.07,4.61-11.73,1.78-23.32-1.05-34.76-2.83-11.44-8.43-21.76-14.33-31.89-7.16-12.3-15.34-23.9-25.64-33.76-14.56-13.95-30.93-25.3-49.58-33.31-12.64-5.43-25.65-9.56-39.23-11.33-12.59-1.64-25.26-1.54-37.93.25-3.13.44-6.47,2.18-9.76.33.6-1.82,2.27-2.24,3.78-2.72,9.55-3.01,19.28-5.06,29.28-5.85,36.66-2.88,69.02,8.83,98.82,29.11,27.26,18.55,45.21,44.37,57.12,74.63,3.71,9.43,5.5,19.43,5.28,29.68-.09,4.37.06,8.74-.04,13.1-.12,4.85-1.43,6.08-6.34,6.2-2.43.14-4.88-.29-7.3.24Z" style="fill: #0c59d0; stroke-width: 0px;"/>
  <path d="M442.51,296.37c3.87-.15,5.14-2.21,5.44-6.02,2.37-29.93-8.43-55.57-25.05-79.55-16.83-24.28-39.31-41.49-65.97-53.43-18.79-8.42-38.57-13.39-59.28-13.19-14.79.14-29.36,2.33-43.14,8.19-5.07.92-9.62,3.3-14.25,5.34-13.99,6.15-26.93,14.1-38.55,24.02-4.57,3.9-9.5,5.76-15.41,5.19-3.76.14-6.15-1.49-7.63-5.2,5.51,1.02,10.86,1.43,16.35-.8,4.8-1.95,8.38-5.39,12.05-8.63,11.17-9.85,24.11-16.51,37.66-22.36,12.3-5.32,25.01-9.13,38.23-10.81,10.34-1.31,20.81-1.65,31.24-.18,11.83,1.67,23.48,4.11,34.69,8.28,19.75,7.34,37.9,17.42,53.75,31.48,21.82,19.35,37.15,42.95,46.3,70.54,3.43,10.33,4.39,21.1,4.09,31.98-.09,3.24,0,6.49-.02,9.73-.01,4.22-1.17,5.55-5.4,5.91-1.73.15-3.48,0-5.23-.03.04-.16.08-.31.13-.47Z" style="fill: #a2b6d8; stroke-width: 0px;"/>
  <path d="M413.52,303.84c-1.4,2.21-.48,4.19.61,6.17,4.09,7.46,9.6,13.9,14.83,20.53,12.48,15.82,24.9,31.68,38.42,46.64,4.07,4.51,8.38,8.78,14.15,11.18-.17,1.27-.82,1.99-2.15,2.17-12.57,1.76-22.93-1.63-31.34-11.73-6.34-7.61-12.92-15.05-19.31-22.64-8.62-10.24-17.32-20.43-25.14-31.29-6-8.33-3.06-17.46,6.24-21.34,1.33-.55,2.57-1.08,3.7.31Z" style="fill: #0c5ad0; stroke-width: 0px;"/>
  <path d="M178.67,181.71c1.99,2.54,4.54,4.27,7.63,5.2-.09.66-.36,1.16-1.06,1.37-11.27,3.32-22.2,3.59-31.62-4.71-7.84-6.91-15.48-14.06-22.91-21.41-5.93-5.87-8.13-13.04-4.9-21.11,2.01-5.04,6.22-8.3,10.56-11.25,1.97-1.34,3.34-4.17,6.49-3.07-5.88,5.67-6.16,12-.14,18.61,11.48,12.61,23.29,24.91,35.96,36.36Z" style="fill: #1262d2; stroke-width: 0px;"/>
  <path d="M413.38,412.2c-15.51,11.57-30.55,23.78-48.44,31.85-20.21,9.12-40.91,15.39-63.37,13.91-2.22-.15-4.45-.43-6.62-.9-1.43-.31-2.94-.9-2.99-2.84,10.59.04,21.15-.06,31.62-2.09,16.75-3.25,32.38-9.43,47.43-17.32,10.33-5.41,19.48-12.46,28.61-19.61,4.04-3.16,8.5-5.12,13.77-3.01Z" style="fill: #acbfdf; stroke-width: 0px;"/>
  <path d="M587.35,341.63c-.2-3.83-.39-7.45-.57-11.08-.49-9.97-.26-19.95-.94-29.93-.59-8.81-1.9-17.48-3.12-26.2-1.45-10.34-4.06-20.42-6.21-30.61-3.41-16.21-8.74-31.87-14.22-47.43-4.33-12.29-9.76-24.19-15.34-36-7.25-15.35-16.12-29.74-25.99-43.49-7.02-9.77-14.76-19.02-22.18-28.51-.66-.84-2.16-1.75-1.24-2.76,1.2-1.32,2.27.49,3.05,1.09,8.67,6.73,16.45,14.37,23.78,22.57,9.91,11.07,18.74,22.91,26.65,35.42,10.33,16.34,18.71,33.66,25.52,51.78,7.11,18.92,11.85,38.46,14.89,58.36,1.85,12.14,2.34,24.45,2.58,36.78.3,15.84-.72,31.42-4.59,46.79-.29,1.16-.2,2.48-2.07,3.21Z" style="fill: #6ab4eb; stroke-width: 0px;"/>
  <path d="M318.13,530.74c-2.44,1.31-5.04.48-7.58.56,2.47-.9,5.04-.55,7.58-.56Z" style="fill: #1992e7; stroke-width: 0px;"/>
  <path d="M289.09,531.27c-1.78-.02-3.63.68-5.3-.5,1.79-.06,3.6-.33,5.3.5Z" style="fill: #1992e7; stroke-width: 0px;"/>
  <path d="M301.63,531.52c-1.7.95-3.41.94-5.11,0,1.7,0,3.41,0,5.11,0Z" style="fill: #1992e7; stroke-width: 0px;"/>
  <path d="M442.51,296.37c-.03.16-.07.32-.13.47-2.43-.02-4.85-.04-7.28-.06,2.41-1.14,4.93-.42,7.4-.41Z" style="fill: #1992e7; stroke-width: 0px;"/>
</svg>