<?xml version="1.0" encoding="UTF-8"?>
<svg id="Layer_1" data-name="Layer 1" xmlns="http://www.w3.org/2000/svg" viewBox="0 0 597.84 596.71">
  <path d="M591.33,165.64c-1.5,7.84-2.91,15.71-5.29,23.33-1.94,6.18-2.89,12.69-6.05,18.47-1.3-1.58-.74-3.31-.32-4.99,1.48-5.93,2.8-11.88,3.64-17.94.14-.99.29-1.97.22-2.98-.28-3.84-2.16-5.1-5.4-3.04-7.77,4.93-15.82,9.43-23.04,15.25-7,5.63-14.47,10.64-22.95,13.87-4.02,1.53-8.05,1.55-11.74-1.17-1.31-.96-2.75-1.74-4.28-2.27-2.72-.95-4.34-2.81-4.93-5.61.09-4.89,1.69-9.55,2.18-14.41,2.43-24.14-4.38-45.42-19.61-64.06-14.76-18.07-34-28.52-57.06-31.04-21.46-2.34-41.2,2.86-58.04,16.92-13.88,11.58-24.45,25.57-29.96,43.02-1.65,5.24-2.96,10.57-2.81,16.14-.91,12.13,1.17,23.78,5.5,35.08,1.84,6.29,5.66,11.55,8.94,17.1.69,1.16,1.71,2.16,1.67,3.65-1.05,7.15-.67,14.18,1.72,21.05,1.23,3.54,2.32,7.12,2.99,10.81,1.71,9.44-.68,17.58-7.21,24.75-3.53,3.87-7.06,7.88-11,11.12-4.3,3.53-8.06,7.68-12.64,10.85-.72.5-1.51.88-2.07,1.57-7.58,9.44-17.46,16.16-27.1,23.19-3.21,2.34-6.53,4.77-9.19,7.59-5.03,5.33-11.26,9.02-16.69,13.75-3.87,3.37-8.49,5.65-12.26,9.18-2.02,1.89-3.86,3.9-5.62,5.99-3.57,4.25-8.28,7.06-12.53,10.45-2.9,2.31-5.53,5.03-8.06,7.67-3.4,3.55-7.3,6.42-10.93,9.62-6.2,5.47-13.63,5.9-19.83.67-9.62-8.13-20.54-14.75-29.1-24.07-10.65-11.59-22.06-22.41-33.02-33.68-4.87-5-4.86-6.83.02-11.84,7.31-7.51,14.76-14.89,22.9-21.51,4.11-3.34,6.25-8.04,9.07-12.28,19.39-24.27,38.09-49.08,57.22-73.55,10.37-13.26,20.53-26.69,31.14-39.76,1.26-1.55,2.76-2.88,4.12-4.35,2.78-2.73,5.51-5.49,6.14-9.59.1-2.33-1.28-3.7-3.13-4.69-4.4-2.36-8.5-5.21-12.59-8.05-1.97-1.37-4.03-1.69-6.37-1.41-13.35,1.64-26.7,3.22-40.06,4.79-1.7.2-3.5.55-4.94-.89,3.42-6.97,8.72-12.62,13.28-18.78,8.52-11.53,18.49-21.83,28.48-32.03,9.12-9.31,19.12-17.75,29.39-25.82,18.35-14.42,38.15-26.55,58.95-37.07,25.32-12.81,51.83-22.21,79.66-27.82,4.24-.85,8.52-1.5,12.79-2.23,4.29.63,8.51,1.58,12.7,2.69,16.1,5.16,30.47,13.64,44.11,23.41,16.38,11.73,31.4,25.07,45.11,39.79,16.54,17.75,31.57,36.7,42.8,58.37,5.07,9.78,9.11,19.96,10.86,30.95.32,1.99-.5,3.92.2,5.83Z" style="fill: #d5ddf1; stroke-width: 0px;"/>
  <path d="M182.26,286.14c-3.99,8.98-11.69,14.57-18.67,20.9-5.61,5.09-11.13,10.36-15.97,16.25-1.36,1.65-1.44,3.01.02,4.55.94.99,1.68,2.16,2.63,3.13,8.18,8.23,16.95,15.95,24.47,24.74,11.29,13.19,25.52,22.8,38.61,33.81,3.2,2.69,6.15,3.2,10.75,1.38,7-2.77,11.69-7.73,17.11-12.32,5.27-4.47,9.39-10.38,16.13-13.22,2.21-.93,3.48-3.7,5.15-5.6,7.41-8.38,16.8-14.13,25.74-20.52,1.21-.86,2.41-1.79,3.39-2.89,5.05-5.68,11-10.21,17.39-14.31,3-1.93,5.67-4.46,8.2-7.01,4.11-4.14,10.03-6.18,13.3-11.17,3.22-4.93,8.04-8.38,12.38-11.78,6.43-5.04,11.93-10.91,17.38-16.75,5.27-5.65,6.97-13.17,5.73-21.04-.7-4.43-2.14-8.67-3.48-12.94-2.1-6.72-2.97-13.56-1.07-20.51.66-.03,1.21.24,1.62.73,4.34,5.14,8.65,10.31,13.09,15.38,2.63,10.89,10.25,18.07,18.79,24.25,9.89,7.16,20.27,13.6,31.43,18.69,2.27,1.03,4.5,2.18,6.45,3.75,7.33,5.92,9.85,12.55,5.72,22.5-1.71,4.13-3.82,8.04-4.25,12.62-.33,3.49-2.44,6.21-4.72,8.73-1.01,1.12-1.97,2.24-2.54,3.65-8.8,8.31-18.62,15.37-28.32,22.54-16.22,12-32.43,24.02-48.59,36.11-1.89,1.42-3.75,2.9-6.06,3.63-3.77,1.17-6.7,3.82-9.89,5.91-7.2,4.72-14.71,7.51-23.39,8.98-13.49,2.29-26.67,6.53-38.03,14.81-4.59,3.34-9.52,5.85-15.03,7.33-3.36.9-6.33.64-9.17-1.53-4.97-3.79-9.46-8.1-14.01-12.35-9.3-8.67-18.81-17.07-29.08-24.59-1.14-.54-2.07-1.37-2.96-2.26-12.04-12.12-24.63-23.67-36.67-35.81-12.11-12.21-25.04-23.57-37.93-34.95-2.89-2.55-6.04-4.82-10.15-4.99-1.44-2.94-1.94-5.95-.5-9.03.57-1.23.58-2.09-1-2.33,2.58-2.51,4.64-5.4,6.29-8.6,2.74-4.38,5.37-8.83,7.98-13.29.92-1.57,1.69-3.32,3.54-4.12,3.83-.53,7.37.81,10.95,1.76,9.38,2.48,18.75,5.05,28.11,7.59,3.16.86,6.1-.2,9.13.17Z" style="fill: #c0c9e5; stroke-width: 0px;"/>
  <path d="M344.13,392.63c7.85-4.8,14.84-10.78,22.27-16.16,11.33-8.21,22.53-16.58,33.7-25,7.99-6.03,16.18-11.81,23.59-18.6.81-.74,1.86-1.21,2.8-1.8,2.45-3.69,5.93-6.26,9.6-8.54,1.89-1.17,4.05-2.09,6.01.12,1.28,4.92.75,9.96.33,14.84-1.23,14.62-2.66,29.23-4,43.85-1.1,12.01-2.52,24-3.32,36.04-.97,14.56-4.82,28.17-12.69,40.54-3.66,7.64-9.17,13.95-15.07,19.83-15.43,15.4-30.44,31.21-45.69,46.78-9.32,9.52-18.98,18.72-27.94,28.58-7.46,8.22-15.45,15.89-23.23,23.79-3.62,3.68-7.97,4.93-12.97,3.03-4.33-3.15-4.57-7.45-3.11-12,4.95-15.48,10.05-30.92,14.99-46.4.39-1.22,1.88-2.64.16-4.03,1.92-5.49,3.62-11.05,5.47-16.56,4.51-13.44,6.33-27.05,3.22-41.06-1.6-6.74-3.79-13.31-5.57-20-.89-3.81-2.09-7.53-3.02-11.33-.55-2.28-1.2-4.55-.97-6.93.48-3.59,3.25-5.63,5.74-7.53,9.69-7.41,19.35-14.88,29.67-21.43Z" style="fill: #9875ef; stroke-width: 0px;"/>
  <path d="M182.26,286.14c-2.67,1.85-5.45,1.81-8.51.97-9.93-2.75-19.92-5.31-29.89-7.94-3.36-.89-6.7-1.84-10.23-1.8-3.67,1.87-7.61.44-11.4.7-7.93.56-15.53,2.23-23,4.66-14.81,4.82-29.59,9.73-44.48,14.3-1.4.43-2.79,1.2-4.33.5-4.73,1.44-9.46,2.89-14.19,4.33-10.58,3.23-12.72,2.51-19.33-6.58,10.14-7.78,18.78-17.24,28.6-25.4,17.83-14.81,34.51-30.95,52.03-46.13,12.81-11.1,24.83-23.11,37.96-33.82,13.07-10.66,28-17.58,45.07-19.34,15.86-1.64,31.75-2.87,47.62-4.21,7.04-.59,14.21-.81,21.27.5,4.15.77,6.7,3.74,6.82,8.02.05,1.83.25,3.71,2.04,4.47,1.61.68,2.72-.94,3.8-1.86,3.15-2.65,5.79-5.85,8.89-8.56.94-.82,2.19-2.88,3.52-.23-13.97,15.79-26.28,32.91-39.26,49.49-16.5,21.05-32.76,42.28-49.14,63.42-1.21,1.56-2.58,3.01-3.87,4.51Z" style="fill: #4900d3; stroke-width: 0px;"/>
  <path d="M1.82,577.69c-2.36-6-1.96-12.31-1.36-18.43,1.46-15.01,5.3-29.53,10.39-43.69,6.94-19.3,15.76-37.71,29.12-53.41,11.56-13.59,25.4-24.29,43.48-27.89,5.64-1.12,11.43-2.33,17.22-.47-3.2,2.23-3.11,2.13-.28,4.88,13.1,12.72,25.32,26.11,33.45,42.77,4.69,9.61,5.47,19.57,3.75,29.91-.74,4.45-2.87,8.2-5.89,11.49-8.44,9.2-18.21,16.47-29.54,21.92-14.49,6.98-29.3,13.28-43.66,20.54-3.45,1.74-7.19,2.84-10.84,4.12-5.88,2.05-11.92,3.7-17.46,6.67-6.7,3.59-13.9,4.6-21.39,3.99-2.53-.21-4.86-1-6.99-2.39Z" style="fill: #d2daee; stroke-width: 0px;"/>
  <path d="M441.53,322.23c-5.6-.7-8.31,4.04-12.21,6.54-1.02.65-1.89,1.52-2.83,2.29-.16-3.12,2.87-4.19,4.2-6.36,1.19-1.94,2.42-3.76,2.62-6.04.4-4.67,2.59-8.67,4.33-12.89,4.13-10.01,1.8-16.42-6.03-21.68-6.27-4.22-13.41-7.12-19.96-10.96-8.25-4.84-16.74-9.55-23.6-16.24-5.67-5.54-11.92-11.15-12.5-20.06,1.87-.47,2.89,1.04,4.22,1.82,3.78,3.85,8.85,5.94,12.86,9.48,5.66,9.95,15.32,14.31,25.46,17.65,10.56,3.47,21.62,3.65,32.55,2.78,9.28-.73,17.49-4.74,24.44-11.02,2.2-1.99,4.63-3.73,6.51-6.13,3-3.85,4.85-7.82,2.72-12.7.05-1.22.74-2.09,1.62-2.82,10.7-8.9,18.02-20.16,23.07-33,.97-1.44.56-3.77,2.79-4.41,1.19,4.86,6.3,4.72,9.31,7.27,3.09,2.62,6.76,2.49,10.21,1.13,3.9-1.54,7.79-3.2,11.32-5.58,11.5-7.77,22.34-16.5,34.44-23.39,1.73-.99,3.62-2.5,5.44-1.32,1.79,1.16,2.27,3.48,2.05,5.72-.62,6.42-2.08,12.69-3.58,18.94-.5,2.07-1.01,4.09-1,6.22-5.09,16.88-11.96,33.03-20.14,48.63-2.06,3.92-3.76,8.09-6.65,11.55-1.19-1.37-.11-2.59.29-3.82,1.61-4.99,3.59-9.85,4.94-14.92.51-1.91,1.44-4.53-.19-5.62-1.93-1.29-3.47,1.18-4.83,2.48-6.97,6.64-12.66,14.43-19.12,21.53-7.99,8.77-16.3,17.18-25.37,24.85-13.93,11.78-29.14,21.83-43.76,32.69-3.31,2.46-6.68,4.81-10.1,7.09-1.6,1.07-3.22,1.95-5.23,1.26-3.66-2.96-4.96-7.72-8.29-10.93Z" style="fill: #b7bdd4; stroke-width: 0px;"/>
  <path d="M448.34,8.26c-3.79-.49-7.32-2.2-11.2-2.3-.76-.02-1.37-.54-1.6-1.36,8.63-1.96,17.43-2.78,26.2-3.66C473.79-.28,485.89,0,497.98.11c20.23.18,39.71,3.73,58.32,12.08,16.84,7.56,26.99,20.68,32.95,37.6,1.35,3.85,3.09,7.59,3.51,11.72-1.59.3-2.1-1.08-2.9-1.94-4.73-5.06-8.37-4.95-11.74,1.15-3.08,5.58-6.3,11-10.16,16.07-1.91,2.51-4.26,4.53-6.45,6.72-2.17,2.17-4.35.99-6.36-.48-4.84-3.54-9.05-7.83-13.4-11.9-8.26-7.75-16.7-15.31-25.18-22.8-.85-.75-1.7-1.46-2.77-1.87-7.99-5.75-15.38-12.29-23.62-17.72-12.61-8.32-25.51-16.02-40.09-20.47-.6-.18-1.15-.47-1.74,0Z" style="fill: #9c7eee; stroke-width: 0px;"/>
  <path d="M212.99,148.36c8.45-.05,16.74-1.78,25.13-2.54,7.14-.64,14.24-1.77,21.36-2.65,1.92-.24,3.45.4,5.12,1.57,4.15,2.93,8.24,6.01,12.87,8.19,2.89,1.36,4.59,3.34,3.61,6.77-3.77,2.51-8.19,2.19-12.31,2.3-15.95.42-31.82,1.97-47.73,2.97-13.93.87-27.81,2.26-41.73,3.21-8.96.61-17.22,3.82-25.37,7.44-12.98,5.77-23.85,14.45-33.99,24.17-17.02,16.31-34.62,31.98-51.78,48.13-5.27,4.96-10.55,9.91-15.71,14.96-9.09,8.9-18.77,17.17-27.76,26.18-2.41,2.42-3.99,2.04-7.1-1.28.69-2.2,2.11-3.92,3.64-5.56,19.59-20.94,39.2-41.85,58.77-62.81,11.48-12.3,22.8-24.76,34.37-36.98,13.5-14.27,29.28-24.74,49.15-27.66,11.18-1.64,22.46-2.65,33.66-4.17,5.26-.71,10.66-.58,15.78-2.26Z" style="fill: #a286f0; stroke-width: 0px;"/>
  <path d="M1.82,577.69c3.67.31,7.15,1.52,10.94,1.6,5.68.13,10.96-1.02,15.82-3.56,7.78-4.05,16.28-6.08,24.36-9.25,5.91-2.31,11.54-5.17,17.24-7.93,11.3-5.48,22.86-10.4,34.15-15.94,11.04-5.41,20.19-13.08,28.19-22.22,2.37-2.7,3.55-6.11,4.21-9.8,2.2-12.35-.33-23.62-6.69-34.3-4.65-7.81-9.55-15.54-15.76-22.05-4.95-5.18-9.73-10.61-15.09-15.42-1.14-1.03-3.39-1.46-2.76-3.46.58-1.82,2.64-1.47,4.23-1.58,4.44-.21,8.66.8,12.78,2.35,6.23,8.12,13.28,15.55,19.47,23.69,6.5,8.54,13.3,16.94,17.37,26.99,8.17,20.18,6.63,41.48-11.8,57.5-8.94,7.77-18.81,13.24-29.14,18.59-22.5,11.65-46.34,19.73-70.26,27.65-8.04,2.66-16.41,2.74-24.76,2.91-7.27-2.81-11.1-8.34-12.5-15.79Z" style="fill: #b1b6ca; stroke-width: 0px;"/>
  <path d="M66.96,371.63c-5.47-4.8-5.35-10.57.79-15.27,6.79-5.2,13.9-10,20.87-14.98,8.08-5.78,16.13-11.58,24.24-17.31,1.08-.77,2.43-1.16,3.66-1.72,7.77,2.84,13.77,8.4,20.15,13.33,8.38,6.47,15.63,14.29,23.72,21.05,13.52,11.3,25.67,23.94,38.15,36.27,2.55,2.52,5.06,5.13,6.68,8.41,0,.36-.11.7-.31,1.01-2.41.25-3.53-1.69-4.67-3.14-3.72-4.69-8.2-8.64-12.34-12.91-3.51-3.6-7.04-7.19-10.78-10.56-3.76-4.58-8.46-8.09-13.19-11.56-2.61-1.92-5.37-3.62-7.87-5.71-2.95-2.46-6.19-2.98-9.75-1.2-1.9.95-3.73,1.98-5.44,3.27-10.16,7.65-20.34,15.29-30.26,23.26-7.02,5.64-7.06,6.1-2.56,13.72,5.69,9.64,14.36,16.51,22.26,24.07,3.59,3.44,7,7.11,11.04,10.08.87.64,1.69,1.54,1.4,2.86-.43.39-.94.49-1.5.42-1.65-.42-2.79-1.57-3.98-2.68-15.68-14.56-31.49-28.99-47.52-43.17-6.06-5.36-11.96-10.9-18.44-15.77-1.27-.95-2.46-2.21-4.32-1.78Z" style="fill: #9ea1bd; stroke-width: 0px;"/>
  <path d="M319.04,459.12c3.17,12.63,2.05,25.09-1.52,37.43-1.51,5.23-3.32,10.37-4.89,15.58-.62,2.05-1.55,3.84-3.04,5.35-12.65,11.27-25.3,22.55-37.96,33.81-1.11.99-2.24,2.01-3.5,2.77-2.92,1.76-5.86,2.73-8.92.07-4.59-3.99-5.33-5.92-3.37-10.59,8.28-19.73,16.64-39.44,24.91-59.17.86-2.05,1.37-4.26,2.03-6.39.95-2.23,3.31-1.27,4.85-2.16,9.11-4.75,17.74-10.35,26.69-15.38,1.43-.81,2.75-2.32,4.73-1.33Z" style="fill: #060095; stroke-width: 0px;"/>
  <path d="M270.81,472.98c.41,3.44-.91,6.34-2.88,9.02-10.75,14.66-21.48,29.34-32.26,43.99-4.14,5.62-9.03,6.27-14.34,1.64-16.93-14.76-32.64-30.81-48.54-46.64-29.79-29.65-59.25-59.64-88.28-90.04-2.21-2.31-5.06-4.05-6.49-7.07-.49-2.02.48-2.44,1.89-1.36,7.99,6.07,16.13,11.99,21.99,20.35,2.3,3.29,5.43,5.77,8.13,8.66,18.17,18.33,36.49,36.5,54.71,54.77,1.41,1.41,2.9,2.74,4.04,4.41,2.42,3.57,6.4,5.51,9.14,8.75.96,1.14,2.1,2.12,2.96,3.36.44.6.88,1.21,1.43,1.72.17-2.86,1.05-3.37,3.5-1.59,4.74,3.44,8.95,7.53,13.52,11.18,4.18,3.34,8.3,6.77,12.7,9.83,4.2,2.92,5.75,2.92,9.59-.48,4.28-3.8,7.99-8.21,11.71-12.53,7.81-9.08,14.9-18.64,18.67-30.33,1.14-3.53.89-6.23-1.03-9.08-4.25-6.3-8.71-12.44-13.67-18.21-4.75-6.56-10.44-12.33-15.71-18.46-6.41-7.45-13.41-14.36-20.02-21.62-1.17-1.29-3-2.62-.84-4.59,2.08.47,2.91,2.53,4.56,3.56,5.96,6,12.06,11.85,17.9,17.97,7.38,7.72,14.95,15.26,21.81,23.46,5.96,6.87,12.08,13.6,17.89,20.6,2.54,3.06,5.18,6.03,8.12,8.78,3.94,3.67,3.75,5.25-.19,9.97Z" style="fill: #1f222c; stroke-width: 0px;"/>
  <path d="M449.79,332.67c4.83.09,7.85-3.57,11.29-5.94,10.62-7.33,20.9-15.14,31.31-22.77,15.08-11.06,28.94-23.43,41.33-37.5,6.32-7.17,12.06-14.87,19.07-21.43,1.76-1.65,3.9-4.67,6.05-3.3,2.29,1.45,1.26,4.95.43,7.53-1.96,6.14-4.04,12.24-6.07,18.36-6.12,11.3-12.94,22.15-21,32.19-1.96-1.99.44-3.95,0-6.46-3.86,2.65-7.32,5.4-10.68,8.24-12.54,10.62-25.18,21.1-39.26,29.67-4.15,2.53-8.2,5.21-12.12,8.08-3.13,2.3-6.51,4.17-10.17,5.46-1.98.7-4.07,1.37-6.04-.15-.56-3.47-1.56-6.73-3.82-9.53-.53-.66-.8-1.56-.3-2.45Z" style="fill: #9fa7c2; stroke-width: 0px;"/>
  <path d="M14.32,593.48c3.2-1.66,6.83-1.34,10.14-1.41,7.89-.17,15.2-2.5,22.48-4.92,10.03-3.34,19.89-7.19,29.88-10.64,5.19-1.79,10.24-3.93,15.12-6.39,12.55-6.32,26.12-10.85,37.43-19.36,8.3-6.25,16-13.38,20.94-22.93,4.1-7.92,3.91-16.32,3.24-24.79-1.14-14.44-8.83-25.84-17.21-36.96-6.51-8.64-13.23-17.07-20.52-25.07-1.2-1.31-2.64-2.73-2.37-4.87,5.36,2.21,11.11,3.61,15.78,7.31.85,2.54,2.79,4.35,4.36,6.39,9.82,12.75,18.47,26.23,25.79,40.56,2.67,5.23,2.9,11.01,3.63,16.67.21,1.58.03,3.26,1.14,4.61-2.14,15.03-9.56,27.32-19.95,37.99-15.9,16.34-35.55,26.63-56.54,34.67-14.8,5.67-30,10-45.81,11.63-9.26.95-18.66,1.63-27.54-2.51Z" style="fill: #7c8297; stroke-width: 0px;"/>
  <path d="M514.09,45.84c2.94.47,4.53,2.98,6.5,4.69,7.14,6.17,13.9,12.77,20.87,19.15,4.76,4.36,9.55,8.68,14.46,12.87,1.95,1.66,3.53,1.85,5.93-.52,4.82-4.76,8.57-10.19,12.32-15.71,1.41-2.08,1.89-4.53,3.33-6.63,4.31-6.28,7.95-6.36,13.35-.4.65.72.88,1.8,1.89,2.23,4.74,16.33,5.27,33.12,5.04,49.92-.19,14.09-1.51,28.12-3.5,42.08-.08.59-.44,1.13-.67,1.7-1.25-1.08-1.26-2.66-1.59-4.08-3.23-14.07-9.68-26.59-18.24-38.09-8.55-11.49-17.34-22.79-27.02-33.34-8.75-9.54-17.95-18.65-27.47-27.43-2.03-1.88-4.81-3.2-5.23-6.42Z" style="fill: #7958e3; stroke-width: 0px;"/>
  <path d="M297.54,579.92c7.19.99,11.84-2.88,16.53-7.74,23.57-24.43,47.42-48.6,71.11-72.92,9.23-9.47,18.32-19.08,27.4-28.69,3.42-3.62,6.24-7.71,8.63-12.1,1.66-2.32,3.66-3.45,6.63-2.4,3.5,1.23,6.61,2.69,6.94,7-4.73,9.27-10.99,17.37-18.67,24.38-15.29,13.94-30.59,27.88-45.87,41.83-17.95,16.39-35.88,32.8-53.83,49.19-1.1,1.01-2.24,1.99-3.43,2.88-5.73,4.26-10.56,3.8-15.44-1.43Z" style="fill: #4000ca; stroke-width: 0px;"/>
  <path d="M50.42,297.51c20.09-6.34,39.86-13.72,60.3-18.91,7.48-1.9,15.19-2.27,22.91-1.25-3.44,5.73-6.88,11.45-10.32,17.18-14.01-.4-26.21,5.49-38.42,11.21-14.35,6.72-28.83,13.15-43.12,20.01-2.57,1.23-5.2,1.78-7.87.2-3.06-3.17-2.99-6.63.58-10.73,4.15-4.78,8.52-9.37,12.77-14.06,1.08-1.19,2.1-2.43,3.15-3.64Z" style="fill: #9673ee; stroke-width: 0px;"/>
  <path d="M434.79,463.07c-1.47-1.89-2.33-4.25-4.83-5.31-3.1-1.31-6.01-1.82-8.74.71,4.33-8.51,8.85-16.92,10.79-26.45,1.49-7.31,1.88-14.72,2.7-22.09,1.12-10.08,2.01-20.19,2.93-30.29.84-9.25,1.49-18.51,2.39-27.75.8-8.27,1.62-16.53,1.62-24.86,0-1.6-.41-3.19-.11-4.79,2.2-.03,2.74,1.84,3.66,3.25,1.56,2.38,3.07,4.79,4.6,7.19,1.68,3.93,5.91,6.9,4.5,11.99,1.09,5.24-.53,10.28-1.11,15.39-.22,5.66-1.19,11.25-1.73,16.88-.13,1.42-1.06,2.46-1.59,3.7-2.03,16.94-4.09,33.87-6.08,50.82-1.29,11.04-3.01,21.93-8.99,31.62Z" style="fill: #6e48e1; stroke-width: 0px;"/>
  <path d="M17.61,287.79c.97-.05,1.6.58,2.3,1.1,1.79,1.33,3.21,1.1,4.87-.54,6.02-5.97,12-11.96,18.24-17.71,12.54-11.57,24.56-23.72,37.09-35.3,13.52-12.5,27.26-24.76,40.5-37.57,12.21-11.82,26.03-21.19,42.16-26.85,6.1-2.14,12.34-3.5,18.88-3.88,10.76-.63,21.48-1.82,32.22-2.79,3.58-.32,7.18-.38,10.77-.72,9.39-.89,18.87-.8,28.25-1.75,9.38-.95,18.89-.09,28.18-2.07-1.38,3.59-3.55,6.6-6.55,9.01-1.56-1.64-2.15.24-2.9.91-3.55,3.12-6.42,6.96-10.32,9.72-3.03,2.14-5.83.85-6.3-2.93-.94-7.64-1.74-8.81-9.14-9.18-9.68-.48-19.37-.09-29.03,1.18-6.51.85-13.09,1.5-19.65,1.63-20.21.4-39.14,4.87-56,16.52-6.37,4.4-11.85,9.85-17.59,14.98-13.44,12.01-26.74,24.17-40.38,35.95-8.09,6.99-15.86,14.35-23.84,21.46-10.21,9.08-20.52,18.06-30.74,27.13-2.23,1.98-4.6,3.96-6.3,6.37-1.47,2.09-3.14,2.81-5.43,2.8-.02-2.51-.77-5.1.71-7.47Z" style="fill: #7649e4; stroke-width: 0px;"/>
  <path d="M452.17,359.65c.7-5,1.41-9.99,2.11-14.99,4.68.54,8.76-1.49,12.19-4.02,10.12-7.47,21.46-13.09,31.25-21.01,10.13-8.2,20.29-16.35,30.42-24.54,1.54-1.25,3.09-2.45,5.07-3.24,1.39,3.02-1.86,5.24-1.03,7.97-11.33,16.25-24.35,31.06-38.5,44.88-.33.32-.84.45-1.26.67-.86-.7.1-1.59-.3-2.55-6.38,3.4-12.31,7.46-18.7,10.74-5.78,2.97-11.81,5.14-18.12,6.58-1.09.25-2.21.48-3.13-.48Z" style="fill: #8790ab; stroke-width: 0px;"/>
  <path d="M109.65,412.08c-3.48-2.97-6.53-6.26-9.32-9.96-3.18-4.22-7.16-7.92-11.21-11.36-2.98-2.53-6.3-4.69-9.23-7.32-.96-.86-1.61-1.24-1.88.45-3.69-4.08-7.37-8.17-11.06-12.25.64-2.53,1.86-1.22,2.95-.42,6.38,4.61,12.21,9.87,18.03,15.13,17.75,16.04,35.45,32.13,53.17,48.21,5.64,4.18,10.63,9.13,15.94,13.71,2.5,2.15,5.45,3.88,7.28,6.79,2.1,3.21,5.33,5.26,8.19,7.61,7.13,5.87,14.15,11.8,20.17,18.84.73.85,1.56,1.62,2.43,2.33,3.43,2.85,5.21,2.87,8.41-.27,7.39-7.25,14.69-14.59,21.97-21.95,3.77-3.81,7.67-7.47,11.11-11.61,2.26-2.72,4.14-5.56,5.52-8.78,3.48,1.27,2.2,3.43,1.03,5.55-3.57,6.48-8.29,12.1-13.03,17.71-7.25,8.57-14.95,16.69-23.52,23.95-3.98,3.38-6.43,3.36-10.68.17-7.37-5.54-14.09-11.86-21.08-17.86-5.38-4.62-10.54-9.49-16.09-13.92-1.06-.85-2.09-1.82-3.62-1.72-1.75-.28-2.74-1.65-3.87-2.78-8.39-8.36-16.64-16.87-25.18-25.07-5.38-5.16-10.52-10.61-16.45-15.19Z" style="fill: #464754; stroke-width: 0px;"/>
  <path d="M33.91,325.95c3.36.55,6.29-.58,9.32-1.97,19.47-8.95,38.68-18.49,58.54-26.57,5.78-2.35,11.86-3.82,18.19-3.76,1.16.01,2.55-.57,3.36.89-2.15,2.88-2.79,7.07-7.06,8.09-10.35,1.42-19.67,5.98-29.25,9.7-14.35,5.58-28.64,11.3-42.97,16.94-4.61,1.81-6.55,1.14-10.13-3.31Z" style="fill: #2101ad; stroke-width: 0px;"/>
  <path d="M514.09,45.84c6,5.8,11.97,11.63,17.99,17.4,15.35,14.69,28.75,31.04,41.52,47.98,8.49,11.27,15,23.45,18.8,37.04.63,2.26.83,4.63,1.23,6.95-.59,3.52-.85,7.11-2.3,10.43-1.79-3.99-1.42-8.4-2.54-12.56-3.89-14.47-10.64-27.6-18.85-39.97-24.07-36.24-54.17-66.49-90.78-90.09-9.62-6.2-19.78-11.45-30.82-14.77,3.02-1.05,5.77.4,8.33,1.38,11.99,4.61,23.13,10.91,33.77,18.07,8.25,5.55,15.96,11.84,23.65,18.13Z" style="fill: #3907c9; stroke-width: 0px;"/>
  <path d="M452.17,359.65c7.33-1.01,14.21-3.38,20.66-6.96,7.04-3.9,14.03-7.88,21.4-12.04.42,2.43-2.09,3-1.82,4.7-8.71,8.48-17.45,16.91-27.21,24.2-5.06,3.77-9.89,7.86-15.35,11.07.77-6.99,1.55-13.98,2.32-20.98Z" style="fill: #717a96; stroke-width: 0px;"/>
  <path d="M164.16,511.7c-2.63-.16-1.8-2.35-2.03-3.73-.56-3.29-.63-6.67-1.31-9.93-1.91-9.23-7.51-16.73-12.12-24.64-5.26-9.02-11.55-17.38-17.91-25.66-.88-1.14-3.01-2.16-1.56-4.28,18.57,11.44,30.37,27.67,34.74,49.13.37,1.81.29,3.7.42,5.56.49,3.31.48,6.61,0,9.92-.08,1.21-.16,2.42-.23,3.63Z" style="fill: #585c70; stroke-width: 0px;"/>
  <path d="M204.79,401.57c-10.55-12.28-22.04-23.63-34.05-34.47-7.74-6.98-15.47-13.98-23.25-20.93-9.53-8.51-19.02-17.08-30.62-22.82-.23-.11-.24-.66-.36-1,.2-.07.41-.11.62-.14,1.37-.98,3.12.21,4.49-.76h0c2.77-.65,5.27-.05,7.56,1.57-.36,2.13.93,3.4,2.34,4.72,5.91,5.53,12.22,10.59,18.38,15.84,11.94,10.18,23.26,21.01,34.32,32.12,6.58,6.61,13.58,12.83,19.34,20.23,1.18,2.06,2.97,3.56,4.61,5.22.82.86,1.68,1.69,2.39,2.64,2.94,3.47,5.88,6.94,9,10.26,1.49,1.59,3.31,3.02,3.33,5.51-.27.25-.58.39-.95.44-.93-.05-1.67-.52-2.22-1.19-4.37-5.34-9.52-9.96-13.88-15.31-.48-.59-.6-1.35-1.07-1.93Z" style="fill: #66667a; stroke-width: 0px;"/>
  <path d="M128.96,323.8c-2.07-1.96-5.04-1.09-7.34-2.35-1.26-2.5-3.25-4.63-3.87-7.46,1.82-1.13,3.55-.81,5.24.33,3.92,2.65,7.62,5.54,11.13,8.73,18.2,16.48,35.79,33.58,53.29,50.8,5.93,5.84,11.67,11.93,18.09,17.28.55.43,1.28.78.72,1.68-.53.28-1.02.23-1.46-.19-1.31-1.21-2.62-2.43-3.93-3.64-1.03-.49-1.85-1.24-2.64-2.04-9.39-9.42-19.11-18.51-28.67-27.75-11.43-11.04-23-21.99-35.78-31.53-1.63-1.21-3.95-1.64-4.78-3.86Z" style="fill: #9ea1bd; stroke-width: 0px;"/>
  <path d="M270.81,472.98c.05-.61-.14-1.56.18-1.77,4.14-2.8,1.71-5.45-.48-7.5-9.16-8.59-16.07-19.19-25.06-27.92-.49-.48-.68-1.27-1-1.92,1.71-.61,2.45.82,3.38,1.69,3.81,3.56,7.38,7.35,10.57,11.48,7.46,8.01,14.22,16.69,23.06,23.33,2.39,1.8,4.58,3.82,6.46,6.16-1.46,1.4-3.63.24-5.14,1.44-4.46-.53-7.89-3.54-11.97-5Z" style="fill: #393d50; stroke-width: 0px;"/>
  <path d="M164.39,508.07c0-3.31,0-6.61,0-9.92,1.03,3.31.81,6.61,0,9.92Z" style="fill: #7c8297; stroke-width: 0px;"/>
  <path d="M121.62,321.45c-1.31,1.36-2.96.7-4.49.76,1.33-1.25,2.97-.66,4.49-.76Z" style="fill: #9ea1bd; stroke-width: 0px;"/>
  <path d="M511.81,198.47c-1.19,1.32-.66,3.46-2.18,4.62-2.48,2.37-4.04,5.38-5.68,8.31-11.26,20.14-28.36,32.35-50.69,37.53-6.8,1.09-13.66.95-20.5.79-19.15-.45-35.51-7.99-49.78-20.33-4.52-3.9-8.45-8.46-12.76-12.62-3.29-3.18-5.38-7.18-7.67-11.01-3.71-6.21-6.51-12.89-9.49-19.47-2.52-5.56-3.5-11.39-3.23-17.48.08-1.82.4-3.73-.67-5.62-1.6.08-2.34,2.46-4.21,1.7-.14-10.1,3.01-19.45,7.63-28.13,10.6-19.89,25.17-36.06,46.89-43.9,28.75-10.39,55.58-5.66,80.05,12.37,18.92,13.95,29.97,32.91,34.25,55.89,2.35,12.59,1.17,25.03-1.96,37.35Z" style="fill: #8e68eb; stroke-width: 0px;"/>
  <path d="M453.48,248.04c19.84-4.72,35.55-15.46,46.98-32.36,1.94-2.87,3.47-6.01,5.19-9.03.93-1.64,1.85-3.27,3.98-3.55-4.78,14.14-13.46,25.52-24.76,35.05-3.56,4.11-8,6.94-13.04,8.89-2.42.19-4.49,1.4-6.68,2.28-6.4,2.58-12.98,4.31-19.96,4.25-4.48-.04-8.98-.18-13.45.03-11.16.53-21.41-2.7-31.32-7.37-4.73-2.23-9.4-4.6-13.96-7.18-2.43-1.37-4.85-1.96-7.21.15-1.23-.79-2.46-1.58-3.69-2.36-5.5-4.62-9.47-10.59-14.1-15.99-3.56-5.32-6.78-10.83-9.62-16.57-.53-1.07-.75-2.29-1.12-3.44.85-1.06,1.81-2.03,2.18-3.43.24-.94.51-2.05,1.79-2.07,1.15-.02,1.74.86,2.24,1.74,2.29,3.99,3.98,8.28,6.53,12.16,2.07,3.14,4.25,6.12,6.99,8.7,5.17,4.85,9.68,10.4,15.4,14.67,10.83,8.07,22.83,13.97,36.14,15.87,10.36,1.48,21.01,1.68,31.48-.43Z" style="fill: #3d05c9; stroke-width: 0px;"/>
  <path d="M453.48,248.04c-.87,1.15-2.35,1.15-3.41,1.18-15.73.38-31.26,1.32-46.53-5.24-15.35-6.59-26.63-17.63-37.54-29.35-4.45-4.78-7.05-11.05-9.87-17-.36-.77-.45-1.89-1.62-1.61-.91.22-.46,1.27-.71,1.91-.55,1.44-.2,3.91-3.08,2.91-5.02-11.48-6.82-23.48-5.78-35.94.97-.55,1.97-1.03,2.5-2.15.35-.74.57-2.01,1.58-1.84,1.25.22,1.59,1.62,1.69,2.66.21,2.23.28,4.5.11,6.73-.5,6.44,1.35,12.46,4.1,17.99,3.48,7,6.51,14.23,10.78,20.88,3.1,4.84,7.24,8.51,10.98,12.65,7.18,7.96,15.48,14.4,25.13,19.08,10.55,5.11,21.56,8.2,33.41,7.89,6.09-.16,12.2.13,18.26-.77Z" style="fill: #6037df; stroke-width: 0px;"/>
  <path d="M206.16,392.73c-.21-.54-.43-1.07-.64-1.61,4.01,1.81,6.94,5.08,10.33,7.72,11.27,8.8,21.16,19.17,32.07,28.38,3.43,2.89,6.6,2.99,10.94,1.9,7.2-1.81,12.46-6.64,18.59-10.07,11.76-6.58,24.28-10.6,37.62-12.22,6.76-.82,12.26-4.42,17.93-7.82,3.66-2.19,6.68-5.58,11.14-6.38-5.21,4.81-11.29,8.49-16.82,12.88-5.16,4.09-10.95,7.38-15.51,12.23-.93.99-2.12,1.8-2.29,3.31-.31,1.53-.94,2.8-2.53,3.42-7.34,2.84-13.08,8.13-19.24,12.73-5.22,3.9-10.48,7.54-16.78,9.54-3.01.95-5.62.73-8.12-1.09-3.63-2.64-6.89-5.73-10.18-8.76-7.32-6.74-14.73-13.37-22.5-19.59-8.11-7.46-15.67-15.49-23.5-23.25-.36-.36-.59-.79-.51-1.32Z" style="fill: #b4b8d7; stroke-width: 0px;"/>
  <path d="M287.92,476.54c-4.57-2.5-8.24-6.24-12.01-9.66-6.12-5.56-11.57-11.86-17.27-17.89-.39-.41-.48-1.1-.71-1.66,2.02-.51,2.89,1.17,3.94,2.24,4.78,4.92,10.11,9.2,15.61,13.26,4.03,2.98,5.7,3.25,9.64.02,5.07-4.15,9.84-8.7,14.02-13.78,1.89-2.3,3.54-4.84,5.61-6.96,1.75-1.79,3.62-4.04,6.71-2.38,2.3,6.34,3.96,12.86,5.59,19.39-6.59,2.96-12.5,7.11-18.77,10.62-4.1,2.3-8.23,4.54-12.35,6.8Z" style="fill: #545b7b; stroke-width: 0px;"/>
  <path d="M230.22,416.61c3.24.76,4.95,3.65,7.29,5.56,7.1,5.83,14.03,11.91,20.64,18.3,8.66,8.37,9.7,7.46,21.19,1.35,5.86-3.12,10.95-7.7,16.33-11.7,3.4-2.53,6.71-5.18,10.87-6.39,1.43-.42,2.17-1.59,2.97-2.69.29,2.5.58,5,.87,7.5.42.77-.11,1.19-.65,1.46-4.65,2.33-7.29,6.68-10.64,10.35-5.63,6.14-10.94,12.64-18.35,16.91-3.5,2.02-6.61,1.78-9.67-.7-14.27-11.54-27.6-24.08-39.94-37.67-.58-.64-1.24-1.27-.89-2.29Z" style="fill: #979bb5; stroke-width: 0px;"/>
  <path d="M230.22,416.61c10.02,11.4,20.4,22.42,32.54,31.64,2.76,2.1,5.27,4.53,7.87,6.84,3.71,3.29,5.78,3.59,9.96,1.11,8.29-4.91,14.31-12.27,20.32-19.53,2.75-3.33,5.75-6.06,9.46-8.12,1.48,3.6,2.56,7.31,3.08,11.18-5.25-.03-7.2,4.32-9.76,7.63-4.86,6.29-10.54,11.75-16.67,16.72-3.79,3.07-6,2.67-9.97-.33-6.13-4.64-12.11-9.45-17.38-15.09-.49-.53-1.17-.89-1.76-1.33-3.56-3.71-7.11-7.43-10.7-11.11-.84-.86-1.85-1.57-2.78-2.35-13.22-13.75-26.44-27.51-39.67-41.26.46.04.92.08,1.38.12,8.02,7.96,16.04,15.92,24.07,23.88Z" style="fill: #767998; stroke-width: 0px;"/>
  <path d="M472.18,246.31c4.23-2.72,8.46-5.44,12.69-8.16,3.99,6.67-.09,11.63-4.2,15.79-6.02,6.09-12.94,11.02-21.35,13.83-8.45,2.83-17.02,2.21-25.51,1.82-9.43-.44-18.68-2.55-27.01-7.44-6-3.51-12.28-6.74-14.78-13.96,1.92-.93,3.33.45,4.85,1.14,9.97,4.52,20.28,7.74,31.31,8.15,14.48.54,27.88-3.29,40.61-9.95,1.05-.55,1.96-1.67,3.39-1.23Z" style="fill: #969ec0; stroke-width: 0px;"/>
  <path d="M472.18,246.31c-14.01,8.93-29.29,13.16-45.89,12.14-11.42-.7-22.09-4.18-32.22-9.42-.65-.34-1.36-.56-2.04-.84-4.53-2.6-9.05-5.23-12.76-9,.62-2.89,2.12-3.7,4.85-2.29,5.3,2.74,10.62,5.44,15.99,8.03,10.19,4.92,20.76,8.22,32.29,7.62,8.05-.41,16.16.68,24.14-1.46,4.34-1.17,8.43-2.89,12.57-4.53,1-.4,1.96-1.29,3.08-.26Z" style="fill: #1b01aa; stroke-width: 0px;"/>
  <path d="M177.8,375.39c3.72,3.27,7.29,6.7,10.51,10.48,1.79,2.56,4.28,4.52,6.07,7.09,2.97,4.27,3.16,6.66-.31,10.34-7,7.45-14.16,14.76-21.71,21.64-4.69,4.27-9.39,8.55-14.41,12.47-3.82,2.98-5.7,3.04-9.76.44-3.8-2.44-7.06-5.57-10.29-8.61-7.51-7.09-15.37-13.87-21.91-21.94-.47-.58-.92-1.18-1.34-1.8-3.28-4.82-2.96-7.54,1.58-11.26,6.66-5.44,13.41-10.77,20.25-15.99,6.14-4.69,12.35-9.3,18.88-13.45,4.45-2.83,5.78-2.68,10.15.32,4.43,3.04,8.24,6.79,12.28,10.27Z" style="fill: #dbe3f5; stroke-width: 0px;"/>
  <path d="M177.8,375.39c-3.46-1.14-5.4-4.25-8.07-6.39-8.32-6.66-8.71-6.91-17.32-1.12-12.48,8.38-24.08,17.91-35.84,27.24-4.08,3.23-4.34,5.32-1.33,9.51,6.64,9.27,15.25,16.72,23.43,24.53,2.95,2.81,6.34,5.17,9.59,7.65,3.93,3.01,5.44,2.81,9.17-.18,11.77-9.44,22.36-20.13,33.01-30.77,7.85-7.85,6.2-8.08.3-16.39-.84-1.18-2.43-1.85-2.44-3.6,4.85,4.06,9.12,8.68,13.18,13.52.94,1.12,2.16,2.02,3.26,3.02,3.2,1.91,4.95,5.19,7.27,7.89,2.03,2.35.37,4.3-1.46,6.08-8.58,8.33-18.09,15.56-27.31,23.13-4.42,3.63-8.8,7.31-13.46,10.64-4.33,3.09-5.73,2.99-9.88-.27-1.76-1.38-3.36-2.96-5.32-4.08-.5-.21-.91-.54-1.28-.93-1.19-1.43-2.34-2.91-4.14-3.67-.46-.24-.86-.56-1.2-.95-1.17-1.43-2.35-2.85-4.11-3.61-.69-.49-1.52-.89-1.35-1.97-3.7-4.53-8.4-8.02-12.59-12.05-9.3-8.95-19.39-17.2-25.41-29.02-1.15-2.25-1.17-4.08.76-6.04,5.77-5.88,12.59-10.46,18.94-15.61,5.29-4.29,10.87-8.23,16.41-12.2,8.79-6.28,11.73-5.48,18.42-.07,5.87,4.75,12.4,8.7,17.66,14.23.42.44.74.99,1.1,1.49Z" style="fill: #b8bfd6; stroke-width: 0px;"/>
  <path d="M148.53,439.9c.26.23.51.46.77.69,1.75.95,2.84,2.7,4.52,3.74.25.24.51.48.76.73,4.61,4.17,9.9,7.48,14.56,11.57,2.5,2.19,4.57,2.37,7.25.37,11.97-8.93,23.69-18.19,35.48-27.36,2.91-2.26,5.19-5.46,9.07-6.37,2.56-.6-.29-2.71,1.02-3.66.28-.02.56-.03.84-.05.84-.34,1.52.06,1.99.63,3.38,3.99,7.02,7.77,10.06,12.04,1.8,2.52,1.37,3.91-1.58,4.58-2.45.55-4.36,1.83-6.12,3.41-2.42,2.18-4.94,4.26-7.67,5.97-10.99,6.91-21.3,14.79-32.16,21.88-3.2,2.09-5.94,2.29-9.12-.37-4.86-4.06-9.7-8.14-14.6-12.16-4.46-5.02-9.93-8.93-14.89-13.39-2.67-2.4-5.45-4.67-7.58-7.61.46.04.93.08,1.39.12.52.48,1.03.95,1.55,1.43,1.72,1,2.89,2.63,4.47,3.81Z" style="fill: #6d718c; stroke-width: 0px;"/>
  <path d="M221.94,419.61c.24.56.34,1.26.73,1.67,1.84,1.92,1.27,2.71-1.18,2.8-3.66.14-5.49,3.3-7.91,5.24-12.26,9.86-24.77,19.4-37.32,28.89-2.42,1.83-4.55,2.03-6.89-.21-4.73-4.54-10.6-7.79-14.8-12.95,2.58.56,4.28,2.59,5.94,4.25,2.97,2.96,5.59,2.63,8.5.35,4.87-3.82,9.8-7.58,14.55-11.55,8.85-7.38,18.12-14.26,26.32-22.41,2.81-2.79,2.99-3.74.36-6.75-1.87-2.15-3.67-4.36-5.51-6.54.01-.28.03-.56.04-.84,5.18,4.65,9.51,10.12,14.29,15.15.93.98,1.91,1.93,2.86,2.89Z" style="fill: #979eb7; stroke-width: 0px;"/>
  <path d="M155.24,454.98c.52-2.56,1.75-.55,2.23-.17,3.79,2.99,7.56,6.02,11.18,9.22,9.11,8.04,18.12,16.19,27.62,23.77,3.95,3.15,5.81,3.11,9.75-.14,10.11-8.34,18.69-18.15,27.12-28.12,3.54-4.19,6.43-8.79,9.39-13.38,1.24-1.92,1.42-3.32-.3-4.84-3.58-2.72-6.44-5.97-7.7-10.41,1.93-.56,2.27,1.25,3.22,2.15,6.22,6.14,11.07,13.31,15.51,20.77,1.19,2,.74,4.05-.12,6.36-3.1,8.32-6.81,16.26-12.47,23.15-6.28,7.66-12.41,15.45-19.94,21.99-2.97,2.58-5.66,1.93-8.41-.04-6.25-4.48-12.18-9.36-18.13-14.22-3.59-2.93-6.7-6.5-11.16-8.76-.34,1.84,1.81,2.68,1,4.48-1.88-.59-2.91-2.07-3.93-3.57-1.58-3.87-5-6.18-7.73-9.06-.94-.99-2.05-1.78-3.08-2.68-3.37-4.53-7.81-8.03-11.61-12.15-1.15-1.25-2.78-2.26-2.43-4.35Z" style="fill: #39384b; stroke-width: 0px;"/>
  <path d="M237.75,433.06c-1.01-.74-2.02-1.49-3.04-2.23-3.56-.79-4.66-4.24-6.69-6.54-6-6.81-11.95-13.66-18.03-20.4-.99-.52-1.75-1.28-2.25-2.28-1.19-2-3.24-3.26-4.48-5.22-5.56-5.69-11.07-11.43-16.68-17.07-16.03-16.13-32.57-31.7-50.33-45.95-2.78-2.23-5.16-4.97-7.68-7.53-.72-.73-1.49-1.68.37-2.03,7.37,3.57,13.26,9.17,19.28,14.49,17.91,15.82,34.85,32.68,51.87,49.44.33.33.49.83.74,1.25-1.46,2.11.65,2.87,1.62,3.9,11.75,12.47,23.38,25.06,34.36,38.22.45.54.62,1.31.92,1.97Z" style="fill: #373848; stroke-width: 0px;"/>
  <path d="M155.24,454.98c3.24,4.91,7.94,8.47,11.8,12.81.98,1.1,2.28,1.95,2.64,3.51-.56.42-1.07.45-1.48-.21-18.58-18.67-37.15-37.34-55.73-56.01-.97-.97-1.88-1.99-2.82-2.99,2.17.04,3.35,1.68,4.74,2.95,12.95,11.86,25.28,24.37,37.6,36.88,1.04,1.06,2.17,2.04,3.25,3.06Z" style="fill: #9091a4; stroke-width: 0px;"/>
  <path d="M168.19,471.08c.49.07.98.14,1.48.21,4.86,2.62,7.94,6.94,10.86,11.41.04.06-.29.35-.44.53-2.78-3.36-6.05-6.2-9.36-9.02-1-.86-2.21-1.66-2.54-3.12Z" style="fill: #464754; stroke-width: 0px;"/>
  <path d="M210,403.88c6.6,5.47,11.52,12.5,17.29,18.74,2.5,2.71,4.47,5.9,7.42,8.2,1.53,4.19,5.54,6.61,7.52,10.49.26,3.48-2.01,5.72-3.99,8.1-7.41,8.93-16.13,16.58-24.17,24.9-3.38,3.49-6.83,6.91-10.3,10.3-3.1,3.02-5.12,3.22-8.45.57-2.04-1.62-3.97-3.45-5.62-5.46-6.43-7.84-14.72-13.57-22.3-20.12-1.4-1.21-2.55-2.7-3.81-4.06,4.28,2.31,7.6,5.87,11.4,8.8,1.37,1.06,2.69,2.2,4.06,3.27,2.38,1.86,4.74,1.81,7.2.05,14.13-10.1,29.14-18.95,42.62-29.98,1.34-1.1,2.62-1.66,4.35-1.7,1.62-.04,2.83-.8,1.41-2.6-3.77-4.76-7.57-9.51-11.86-13.82-2.87-4.52-6.99-7.98-10.3-12.12-.9-1.13-2.39-1.86-2.48-3.56Z" style="fill: #48456c; stroke-width: 0px;"/>
  <path d="M203.28,396.37c1.82,1.46,3.92,2.68,4.48,5.22-1.8-1.48-3.89-2.7-4.48-5.22Z" style="fill: #48456c; stroke-width: 0px;"/>
  <path d="M367.23,156.59c.05-.2.08-.41.08-.62,2.38-18.83,12.07-32.89,27.97-42.9,7.33-4.43,15.15-7.69,23.66-8.7,8.06-.96,16.16-.82,24.15.91.61.13,1.22.25,1.79.52.79.38,1.79.78,1.74,1.74-.05,1.03-1.16,1.17-1.98,1.36-2.64.6-5.18-.13-7.75-.64-6.02-1.2-11.85-.85-17.29,2.3-.77.92-1.85,1.2-2.96,1.44-11.75,2.5-20.43,9.88-28.59,18.06-1.14,1.14-2.23,2.33-3.37,3.47.39-.31-.31.02-.25-.02,4.43-3.49,7.23-.88,8.72,2.96.75,1.93-1.46,3.85-3.61,4.59-2.83.97-4.19,2.68-4.15,5.81.04,3.45-2.65,5.56-4.84,7.67-5.05,4.85-7.38,10.47-5.87,17.46.56,1.72,1.94,2.89,2.88,4.36.35,4.98,1.67,9.8,2.36,14.73.49,3.49,2.5,6.2,4.3,9.03,4.68,7.35,10.54,13.58,17.79,18.46,2.91,1.95,5.81,3.82,9.5,4.09,1.22.09,3.16.15,2.92,2.4-3.66,1.47-6.99.73-10.19-1.4-1.53-1.02-3.15-1.92-4.66-2.98,9.66,6.61,19.75,12.12,31.72,13.31,7.42.74,14.59-.46,21.8-1.84,1.62-.31,3.56-1.65,4.82.74-4.33,1.39-8.63,2.9-13.21,3.26-1.51.62-3.15-.05-4.67.47l-8.32.02c-1.26-.54-2.67.1-3.93-.5-11.82-.73-22.16-5.41-31.58-12.23-15.65-11.32-25.1-26.69-28.73-45.58-1.03-5.38-1.1-10.9-.8-16.39.72-1.73-.15-3.62.54-5.35Z" style="fill: #010122; stroke-width: 0px;"/>
  <path d="M419.01,110.22c1.35-2.91,4.31-2.37,6.65-2.98,4.78-1.23,9.54-.94,14.28.61,1.98.65,4.11.34,6.56-.19-3.65-2.27-7.53-2.25-11.09-2.54-12.95-1.06-25.52.4-36.92,7.42-1.04.64-2.27.96-3.41,1.43-.35-1.95,1.23-2.62,2.44-3.33,8.37-4.87,17.02-8.82,27.1-8.27,7.06.39,14.18-.59,21.17,1.5,19.76,5.9,34.46,17.75,44.06,36.14,7.03,13.48,9.48,27.67,8.04,42.64-.31,3.18-1.83,6.13-2.4,9.29-5.24,16.73-14.97,29.8-30.84,37.86-2.52-.33-2.05-1.74-1-3.12,1.22-1.6,3.07-2.52,4.59-3.8,7.01-5.9,13.34-12.35,16.79-21.09,2.37-5.61,5.04-11.11,6.04-17.2,1.9-11.01,1.64-21.86-2.22-32.47-5.92-16.22-16.54-28.29-32.09-35.8-10.68-5.16-22-7.11-33.85-5.53-1.36.18-2.73.52-3.89-.59Z" style="fill: #0b016f; stroke-width: 0px;"/>
  <path d="M495.47,191.96c-.22-3.16,1.1-6.08,1.44-9.17,2.11-19.05-2.91-36.3-13.69-51.81-7.17-10.31-16.91-17.7-28.48-22.88-12.97-5.81-26.44-5.91-39.9-3.7-7.23,1.19-14.2,4.29-19.77,9.58-14.71,9.94-23.91,23.52-27.18,41.04-.06.34-.38.63-.58.94-3.05-5.21-.35-9.92,1.5-14.56,8.79-22,24.86-36.41,48-40.45,18.7-3.26,37.56-1.01,53.15,11.64,9.95,8.08,18.36,17.54,24.03,29.52,5.38,11.37,4.93,23.09,5.28,34.98.16,5.46-1.67,10.13-3.8,14.85Z" style="fill: #3d07c6; stroke-width: 0px;"/>
  <path d="M485.66,202.31c-1.43,4.87-4.46,8.84-7.72,12.51-3.69,4.15-7.62,8.12-12.36,11.2-1.11.72-3.63,1.81-.96,3.8-2.07,1.38-4.37,2.25-6.71,3.06-1.01-.92-2.04-.45-3.14-.14-19.42,5.47-37.21,1.91-53.52-9.74-.6-.43-1.16-.95-1.65-1.51-.62-.71-1.61-1.16-1.85-2.71,5.4,3.08,10.16,7.31,16.76,6.02,3.83-.88,7.66.09,10.68,1.92,5.55,3.38,11.34,2.62,17.03,1.98,17.02-1.92,30.5-10.04,40.32-24.15.75-1.07,1.35-2.49,3.1-2.24Z" style="fill: #020139; stroke-width: 0px;"/>
  <path d="M367.23,156.59c0,1.8.39,3.64-.54,5.35-.15-1.82-.64-3.67.54-5.35Z" style="fill: #3d07c6; stroke-width: 0px;"/>
  <path d="M440.05,236.61c1.46-1.05,3.1-.46,4.67-.47-1.5.7-3.09.55-4.67.47Z" style="fill: #020139; stroke-width: 0px;"/>
  <path d="M427.81,236.13c1.33,0,2.72-.5,3.93.5-1.35.13-2.69.2-3.93-.5Z" style="fill: #14141b; stroke-width: 0px;"/>
  <path d="M148.53,439.9c-2.06-.6-3.24-2.24-4.47-3.81,2.26.36,3.42,2.01,4.47,3.81Z" style="fill: #9ea1bd; stroke-width: 0px;"/>
  <path d="M153.82,444.33c-2.17-.45-3.25-2.2-4.52-3.74,2.28.31,3.36,2.07,4.52,3.74Z" style="fill: #9ea1bd; stroke-width: 0px;"/>
  <path d="M419.01,110.22c8.51-1.01,16.98-1.48,25.44.69,20.15,5.18,34.48,17.32,43.41,35.98.69,1.44,1.03,3.04,1.53,4.56.35.81.1,1.68.35,2.54,1.45,4.94,1.41,4.96-2.56,8.11-1.14.91-.07,4.51,1.61,5.38,2.46,1.27,2.54,2.05.17,3.68-1.59,1.1-3.2,2.66-5.36,1.09-1.85-1.34-4.32-2.24-3.35-5.44.48-1.59-.55-2.82-1.67-3.91-3-2.91-2.97-3.14.35-5.92-3.06,2.09-6.08,4.37-9.54.74-1.94-2.03-3.56-4.02-.95-6.95-3.27,1.53-7.26-.36-8.26-3.81-.61-2.12-1.45-3.95-3.38-5.14-.31-.18-.61-.38-.9-.59-.92-.67-1.66-1.44-1.36-2.72.45-.92,1.08-1.21,2.1-.71-3.91-2.43-5.57-7.57-10.67-8.59-1.23-.25-1.48-2.79-2.58-2.03-2.62,1.79-6.74-.56-8.46,3.26-1.18,1.12-2.52,1.41-4.12,1.04-9.51-2.19-18.75,0-27.99,1.9-1.76.36-3.28,1.37-3.85,3.19-.79,2.52-2.63,3.81-4.91,4.71-3.56,1.45-3.92,3.24-1.29,6.39,3.14,3.75,3.05,4.54-.98,7.45-1.81,1.31-3.7,2.52-5.57,3.74-2.99,1.94-5.33,4.37-6.69,7.76-1.04,2.58-2.76,4.68-5.47,5.75-1.98-5.58.01-13.83,4.46-17.42,3.59-2.9,6.72-5.85,6.1-11.06-.2-1.7,1.39-2.19,2.6-2.81.66-.34,1.35-.69,2.06-.86,1.97-.49,3.1-1.98,3.28-3.7.25-2.35-2.71-1.99-3.74-3.57-1.08-1.66-2.09.38-3.11.74-.77.27-1.37,1.02-2.41,1.85.77-3.76,3.4-5.97,5.54-7.92,8.57-7.79,17.48-15.26,29.61-16.93.2-.03.38-.31.56-.47Z" style="fill: #16192b; stroke-width: 0px;"/>
  <path d="M485.66,202.31c-3.54,3.81-6.15,8.35-9.98,11.98-12.94,12.24-28.45,16.72-45.87,15.74-.49-.03-1.13-.02-1.43-.31-3.87-3.77-9.22-3.31-13.85-4.91-4.95-1.68-9.94-2.96-14.33-6.24-8.93-6.69-16.36-14.72-20.47-24.98-2.11-5.26-3.27-11.32-2.64-17.33.96-1.2,2.16-1.06,3.41-.64,1.7,1.31,2.02,3.39,2.76,5.2,2.64,6.49,5.4,12.9,9.92,18.37,13.83,16.75,42.56,21.67,59.7,3.42,4.79-5.1,7.72-11.28,9.49-18.04.79-3.01,1.61-6.09,4.76-7.68,1.61-.41,3.22-.31,4.83-.03,4.64.82,9.28,1.66,13.68,3.36,2.5.97,5.16,1.94,5.98,5.01-.39,6.25-3.45,11.57-5.96,17.08Z" style="fill: #000002; stroke-width: 0px;"/>
  <path d="M380.81,176.13c-1.24.04-2.48.08-3.72.13-1.8-.68-2.54-2.19-3.03-3.9,2.49-2.74,4.56-5.7,6.2-9.1,1.65-3.45,5.37-5.01,8.4-7.15,1.31-.93,2.72-1.74,3.98-2.72,1.73-1.35,2.97-2.6.17-4.44-1.22-.8-2.23-2.18-2.6-4.16-.61-3.24.43-4.12,3.33-3.91.15.08.3.16.46.23,1.18,1.4,2.72,2.02,4.52,2.02,2.55.47,4.8,1.46,6.01,3.93.88,1.81,1.38,3.6-1.23,4.53-.83.29-1.74.7-1.52,1.81.23,1.14,1.25,1.01,2.12,1.02,1.39.03,3.14,0,3.14,1.79,0,1.99-1.92,1.95-3.39,2.05-1.53.1-2.97-.13-4.13-1.3-.54-.55-1.27-1-1.94-.32-.62.62.04,1.15.46,1.56,1.47,1.4,1.32,2.8.15,4.29-.47.6-.81,1.33-.74,2.08.44,4.47-2.53,6.46-5.9,8.07-1.4.67-2.6,1.43-3.28,2.87-2.4,1.24-4.91,1.22-7.47.64Z" style="fill: #303752; stroke-width: 0px;"/>
  <path d="M491.63,185.24c-4.68-4.78-10.96-5.56-17.04-6.83-.82-.17-1.73.03-2.4-.69-5.11-1.9-10.21-3.82-15.53-5.11-1.3-.31-3.05-.57-3.12-2.18-.08-1.64,1.69-1.92,2.93-2.44.57-.24,1.19-.39,1.74-.67.94-.49,2.4-.7,1.95-2.25-.51-1.72-1.64-1.24-2.97-.78-2.13.73-6.84-2.89-7.02-5.2-.1-1.22.77-1.66,1.68-2.18,4.52-2.62,5.11-4.15,4.55-9.18-.25-2.23-1.7-4.58.08-6.82,2.29.32,3.92,2.06,4.03,3.87.24,4.21,3.31,5.06,6.25,6.4,1.16-.8-1.39-1.97.22-2.6.34-.13,1.05.11,1.29.42.62.78,1.07,1.62.29,2.68-2.3,3.1.68,4.43,2.25,6.08,1.66,1.74,3.55,1.55,5.25-.1,1.09-1.07,3-1,3.42-3.41,1.35,2.49.12,3.33-1.1,4.22-1.49,1.09-1.99,1.97.09,3.23,2.22,1.35,4.25,3.15,2.43,6.28-.6,1.04.15,1.87.97,2,1.73.28,2.41,3.39,4.74,1.75.91-.64,1.64-1.5,2.79-1.78.5-.12.84-.62.62-1.17-.36-.89-.84-.45-1.42-.11-1.62.94-2.17-.34-2.05-1.44.25-2.23-1.11-3.68-2.52-5.66,2.33-.12,4.26-.27,5.54-2.05,1.42-1.97-.14-3.55-.59-5.23-.29-1.1.02-1.94.43-2.84,2.66,3.93,2.98,8.61,3.4,13.02.66,6.91,1.36,13.97-1.16,20.76Z" style="fill: #33374e; stroke-width: 0px;"/>
  <path d="M456.47,140.92c.32,3.29.28,6.66,1.8,9.71.56,1.13.32,1.84-.7,2.48-2.28,1.43-2.67,5.32-6.4,4.93-.08,0-.5,1.09-.34,1.24,1.2,1.13,2.36,2.09,3.25,3.67,1.19,2.09,2.62.36,4.16-.58,2.49-1.52,1.84,2.19,3.52,2.76,1.08.37.12,1.49-.66,1.9-1.21.62-2.51,1.07-3.74,1.67-1.08.53-2.47.4-3.59,1.87,6.18,2.58,13.16,2.79,18.43,7.15-1.75-.03-3.49-.06-5.24-.1-4.58.68-9.06-.47-13.58-.76-.57-.16-1.08-.43-1.56-.77-2.54-2.41-5.97-2.97-9.01-4.33-1.13-.51-2.28-1.01-3.28-1.76-1.64-1.22-2-2.59-.1-3.85,1.5-.99,2.93-1.89,2.69-4.03-.05-.46.36-1.12.79-1.17,4.08-.54,2.5-4.6,4.17-6.65.59-.73.07-1.61-.36-2.42-2.07-3.88-1.54-4.94,2.9-5.97.49-.11.96-.24,1.6-.9-1.8-1.59-3.69-3.11-5.63-4.49-2.48-1.76-4.9-3.42-5.25-6.81-.05-.48-.68-.67-1.16-.84-1.07-1.64-3.69-1.14-4.44-3.21,1.15-2.04,3.1-2.03,5.03-2.76,4.06-1.54,5.89,1.78,8.84,2.08,1.23.12,2.02,1.03,2.64,1.92,1.22,1.74,2.5,3.3,4.38,4.46,2.29,1.42,1.75,2.63-.66,3.31-1.54,2.11.85,1.6,1.5,2.25h0Z" style="fill: #49444c; stroke-width: 0px;"/>
  <path d="M434.74,129.67c1.53.94,4.07.35,4.48,2.98-.58,1.59-1.9,2.01-3.39,2.18-5.7-1.84-11.44-3.17-17.53-2.68-2.87.23-5.27.87-7.22,3.2-3.81,4.55-9.01,6.14-14.73,6.43-1.03.05-1.98-.14-2.77-.86,0,0-.04-.05-.04-.05,1.85-1.56,4.43-2.22,4.69-5.52.12-1.53,2.37-2.7,4.33-3.07,8.61-1.63,17.2-3.46,26.05-2.4,2.08.25,4.17,1.98,6.14-.23Z" style="fill: #303752; stroke-width: 0px;"/>
  <path d="M456.47,140.92c-.92-.51-2.22,1.08-2.82-.36-.36-.87.52-1.5,1.32-1.9-.08,1.14,1.04,1.47,1.5,2.25Z" style="fill: #33374e; stroke-width: 0px;"/>
  <path d="M452.73,176.06c4.78.18,9.57.21,14.22,1.57-2.1,2.1-3.07,4.72-3.76,7.56-3.88,15.92-16.06,27.78-31.79,29.7-17.35,2.11-34.38-5.51-43.27-21.27-3.11-5.51-5.87-11.24-7.33-17.48,2.26-1.67,5.25.23,7.5-1.51,1.39-1.41,3.21-1.18,4.91-1.18,14.16-.04,28.32-.08,42.48.02,3.97.03,7.91.74,11.87.93,1.72.54,3.49.96,5.16,1.67Z" style="fill: #14141b; stroke-width: 0px;"/>
  <path d="M448.98,175.39c-20.21-1.14-40.44-.89-60.67-.76-1.17-2.02.93-1.88,1.71-2.29,3.48-1.83,7.68-2.97,6.28-8.46-.13-.52.53-1.41,1.04-1.89,1.69-1.58,1.34-2.84-.6-3.62-1.41-.57-2.03-1.17-.67-2.25,1.05-.83,2.55-2.41,3.64-.49,1.48,2.6,3.63,1.52,5.59,1.6.6.03,1.3-.29,1.2-1.08-.09-.74-.78-.93-1.41-.94-1.68-.03-4.05,1.66-4.68-1.09-.55-2.4,1.41-3.27,3.6-3.69,1.02-.19.33-1.19.17-1.87-.74-3.24-3.34-4.04-6.07-4.68-.97-2.79,1.07-3.42,2.9-3.32,3.67.2,6.47-1.14,8.85-3.75,1.1-1.22,2.65-1.13,4.1-1.46,4.94-1.09,10.23.24,14.98-2.24,1.2-.63,2.41.25,3.55.7,1.25.49,2.44,1.39,3.83.37.98-.51,1.95-1.02,2.93-1.53,1.1-.91,2.44-2.19,2.23.68-.2,2.82,1.21,4.48,3.52,5.54,2.66,1.22,3.99,4.17,7.21,4.89,1.29.29.48,2.44-1.05,2.97-.9.31-1.99.04-2.96.22-1.65.31-2.72,2.2-1.84,2.91,3.03,2.44,1.11,4.47.78,7.18-.36,2.96-1.33,3.67-3.55,4.24-.23.06-.61.32-.59.39,1.05,3.58-2.05,4.22-3.93,5.86-.92.8.32,1.51,1.07,1.85,2.14.99,4.3,1.95,6.49,2.83,1.94.78,4.09,1.15,5.34,3.1-.97.66-1.96.65-2.95.06Z" style="fill: #676a7d; stroke-width: 0px;"/>
  <path d="M436.29,134.18c-.47.78-1.41,1.8-2,1.28-3.12-2.75-5.92-.19-8.92.03-3.82.28-7.64.63-11.46.89-1.77.12-3.05.23-4.14,2.24-1.46,2.68-4.77,1.97-7.35,2.24-2.13.22-4.02.37-4.32,3.02-2.26.17-4.14-.23-4.52-2.95,3.36.46,6.62-.75,9.87-1.12,2.52-.29,5.18-2.99,6.93-5.27,1.94-2.52,4.2-3.19,7.02-3.39,6.54-.47,12.86.34,18.89,3.02Z" style="fill: #49444c; stroke-width: 0px;"/>
  <path d="M448.98,175.39c.99-.02,1.97-.04,2.95-.06.27.25.53.49.8.74-1.24-.29-2.8,1.23-3.75-.67Z" style="fill: #33374e; stroke-width: 0px;"/>
  <path d="M436.32,141.43c.27,1.34.51,2.67,1.98,3.74,1.96,1.42.71,5.52-2.09,7.23-6.05,3.68-12.57,5.6-19.73,5-1.35-.11-2.35-.61-3.13-1.71-2.17-3.05-3.91-6.42-6.98-8.82-.93-.73-2.1-2.05-1.35-3.59.7-1.44,2.24-1.04,3.34-.87,2.76.41,5.04-.96,7.51-1.62.34-.09.8-.26.94-.53,3.33-6.48,9.55-1.73,14.15-3.51,1.25-.48,2.99,1.33,2.33,3.63-.29,1.01-1.55,2.55.35,3.15,1.58.51.73-2,2.68-2.09Z" style="fill: #aaa7b2; stroke-width: 0px;"/>
  <path d="M423.89,155.72c-2.2-.5-4.27-.19-6.38.46-1.46.45-8.64-10.11-8.04-11.62.51-1.3,1.62-1.37,2.77-1.37,2.98,0,5.95.05,8.93-.04,2.52-.08,3.15,1.07,2.17,3.18-.78,1.68-.42,3.59-1.61,5.25-1.65,2.31,2.25,2.07,2.16,4.15Z" style="fill: #c9cbd9; stroke-width: 0px;"/>
</svg>