<?xml version="1.0" encoding="UTF-8"?>
<svg id="Layer_1" data-name="Layer 1" xmlns="http://www.w3.org/2000/svg" viewBox="0 0 581.34 598.29">
  <path d="M232.44,39.19c.3-9.2,6.55-13.48,14.04-16.31,9.13-3.45,18.77-4.44,28.47-4.79,10.05-.46,20.1-.47,30.16,0,1.71.06,3.43.13,5.14.19,1.72.71,3.62-.19,5.34.56.95.06,1.89.13,2.84.19-1.1,3.74-4.31,2.51-6.5,2.23-6.86-.85-13.71-.64-20.56-.53-13.75.21-27.33,1.91-40.68,5.27-1.83.46-3.7.55-5.54.85-4.38.72-7.63,3.64-8.48,7.54.6.16.9-.29,1.21-.64,5.85-6.74,13.63-8.97,22.11-9.09,24.35-.37,48.69.16,72.68,4.67,20.97,3.94,41.56,9.44,61.31,17.84,11.28,4.8,22.18,10.33,32.91,16.16,8.86,4.82,17.31,10.47,25.43,16.47,14.36,10.63,27.63,22.55,40.03,35.43,14.87,15.46,27.25,32.75,38.18,51.16,10.36,17.46,18.26,36,25.02,55.08,4.81,13.57,7.79,27.64,10.64,41.67,2.25,11.08,2.73,22.49,3.66,33.81.81,9.85.92,19.72.67,29.53-.19,7.31-.72,14.66-.78,21.76,1.08-4.56,1.85-9.47,3.57-14.11.63-1.71.69-3.39.51-5.15-.14-1.37-.19-2.76.45-4.04.35-.69.88-1.34,1.71-1.12.73.19.62,1,.58,1.6-.12,1.73.35,3.49-.29,5.18-.75,14.29-2.92,28.36-6.57,42.2-2.4,9.11-4.75,18.23-7.11,27.35-.23,1.49-.3,3.15-2.61,2.16-.69-.29-1.46-.39-2.21-.3-1.1.14-2.6.09-2.93,1.23-.42,1.43,1.26,1.61,2.14,2.08,7.47,3.99,14.67,8.49,22.35,12.08.82.38,1.5.88,2.01,1.61.33,3.6-2.43,5.29-4.66,7.13-16.29,13.46-32.62,26.86-48.99,40.22-4.12,3.36-7.93,7.17-12.86,9.43-2.38-.08-3.76-1.54-5.03-3.37-3.05-4.41-3.73-9.48-4.11-14.58-.54-7.34-1.8-14.59-2.67-21.89-.64-5.36-.62-10.71-.37-16.05.22-4.92,3.07-8.87,5.94-12.65,1.21-1.6,2.55-3.07,3.06-5.06,1.12-4.41.1-7.01-3.91-9.42-3.72-2.23-7.18-4.87-11.01-6.92,4.32-1.25,8.28.64,12.35,1.47,3.39.69,6.75,1.97,10.19.24.62.09,1.24.13,1.86.21,6.34.84,6.39.56,8.58-5.3,1.76-4.71,2.41-9.66,3.81-14.44,2.26-7.69.63-15.37-.46-22.99-.74-5.13-.63-10.21-.08-15.28,1.83-16.92,1.58-33.81-.1-50.72-1.72-17.4-4.46-34.56-9.76-51.29-5.64-17.8-13.08-34.74-22.75-50.74-9.92-16.42-21.51-31.59-35.02-45.12-17.17-17.18-36.2-31.99-57.8-43.46-21.47-11.41-44.16-19.2-67.89-23.84-20.99-4.11-42.27-5.31-63.65-3.73-7.13.53-14.3.39-21.24-.85-11.65-2.08-19.53-8.89-22.31-20.82Z" style="fill: #da7034; stroke-width: 0px;"/>
  <path d="M419.51,393.42c.57,2.25,1.14,4.5,1.7,6.76-1.86,2.73-4.4,1.85-6.71,1.05-3.11-1.08-5.56-3.24-7.93-5.51-2.6-2.49-4.72-5.48-8.01-7.25-1.79-.96-2.24-2.9-2.36-4.85-.28-4.49.61-8.82,2.94-12.58,3.32-5.35,3.44-11.3,4.05-17.25-3.12,3.45-4.69,7.75-6.82,11.75-3.75,7.04-6.86,14.39-10.61,21.42-2.18,4.09-5.78,6.24-10.23,7.52-8.73,2.52-17.81,3.6-26.63,3.16-9.07-.46-15.58,3.69-22.72,7.68-8.01,4.47-15.96,8.91-25.11,11.26-12.09,3.09-24.23,3.59-36.53,4.05-4.73.18-9.73-.17-14.25,2.08-1.52.75-2.95-.01-4.26-.74-2.18-1.22-4.49-1.44-6.89-1.09-.75.11-1.54.33-1.75,1.17-.24.91.64,1.19,1.12,1.73,3.96,4.44,8.7,8.21,11.95,13.25,3.5,5.43,3.38,11.69,2.84,17.75-.56,6.32-1.85,12.58-2.45,18.92-.13,1.37-.25,2.73-.24,4.11.04,4.47.88,5.64,5.23,6.92,7.58,2.23,15.41,2.95,23.24,3.54,3.38.25,6.68.83,9.93,1.77.72.21,1.45.36,2.2.45,8.97,1.09,11.5-1.31,9.57-10-1.43-6.45-1.29-12.88-1.22-19.36.06-5.54-.29-10.93-3.25-15.87-1.2-2,.6-6.55,3.35-8.42,2.77-1.89,5.57-3.8,8.79-4.93,9.41-3.32,18.61-7.26,28.21-10.02,5.92-1.7,11.97-2.64,17.71.97,1.48.93,3.21,1.65,4.2,3.07,4.48,6.42,11.32,10.83,14.81,18.18,2.29,4.83,7.33,6.21,11.54,3.07,6.16-4.61,14.07-5.78,19.93-10.85,1.69-1.46,4.12-1.59,6.37-1.91,6.54-.92,13.12-1.44,19.69-2.11,2.01-.21,3.87-.87,5.78-1.48,2.15-.68,3.86-.42,3.26,2.57-2.13,3.5-4.56,6.78-7.44,9.71-4.93-.51-9.47,1.76-14.36,1.92-4.21.15-8.35,1.29-12.6.05-2.47-.72-4.67.38-6.73,1.62-3.32,1.99-6.43,4.3-9.71,6.35-2.55,1.6-5.2,2.96-8.02,4-3.96,1.46-6.48.86-9.41-2.26-2.83-3.02-5.06-6.48-7.42-9.86-3.86-5.54-7.94-10.87-14.13-14.15-2.3-1.22-4.52-1.72-7.15-1.41-5.29.61-10.26,2.21-15.02,4.43-5.99,2.79-12.58,4.14-18.3,7.52-5.29,3.12-6.2,5.5-4.71,11.3.19.73.35,1.48.29,2.22-.78,9.85,1.82,18.88,5.73,27.85,3.63,8.34,2.88,9.27-5.96,10.32-7.53.9-14.99,1.13-22.67.04-8.22-1.16-16.63-1.22-24.88-2.57-.74-.12-1.48-.21-2.21-.38-8.77-2.04-10.91-4.91-10.49-13.86.21-4.39,1.13-8.66,1.89-12.95.98-5.46.93-10.91.24-16.37-.53-4.2-2.96-7.31-6.18-9.9-4.68-3.77-9.84-6.84-14.86-10.09-3.18-2.06-5.88-4.62-8.49-7.29-1.84-1.87-2.99-4.1-2.11-6.78.92-2.8,3.41-3.54,5.96-3.75,5.96-.5,11.91.63,17.9-.1,7.8-.96,15.59.59,23.39.49,2.99-.04,5.94-.64,8.95-.59,9.98.18,19.84-1.23,29.72-2.31.37-.04.79,0,1.1-.18,5.24-2.97,11.48-3.15,16.73-6.06,7.6-4.2,16.14-5.89,24.18-8.92,2.58-.97,5.45-.48,8.19-.45,7.38.06,14.69-.41,21.93-2.05,4.78-1.08,7.99-3.55,9.92-8.13,4.85-11.49,10.19-22.75,16.43-33.56.88-1.52,1.62-3.09,1.66-4.91.26-13.99-.02-27.97-3.14-41.67-2.91-12.77-8.45-24.22-18.79-32.83-1.55-.98-3.03-2.09-4.87-2.52-2.78-1.63-4.13-4.82-6.97-6.39-7.46-4.67-15.92-5.25-24.34-5.91-5.08-.4-10.2.29-15.27-.41-.6-.19-1.13-.5-1.61-.89-26.54-26.73-68.36-25.75-94.78-.25-1.75,1.5-3.87,1.54-6.01,1.54-7.85,0-15.71-.25-23.54.08-8.55.36-17.13.96-25.36,3.64-4.22,1.78-8.01,4.12-10.42,8.2-1.73,2.54-2.71,5.41-3.52,8.35-.68,1.96-.65,4.13-1.77,5.96-3.38,4.62-8.42,7.35-12.63,11.02-1.98,1.72-4.13,3.3-5.74,5.34-5.16,6.56-11.56,11.64-18.46,16.2-2.87,1.9-5.88,3.28-9.23,3.86-2.96.51-5.12-.55-6.15-3.54-.85-2.49-1.67-4.98-1.7-7.64-.09-9.09-.35-18.19,1.45-27.18.11-.54-.11-.97-.38-1.39.55-3.67,1.72-7.06,4.33-9.82,2.57.87,1.42,2.73.92,4.16-1.82,5.11-1.4,10.03.79,14.91.76,1.71,1.65,2.77,3.68,1.74,1.17-.6,2.42-.45,3.63.02.82.32,1.68.61,2.55.45,8.4-1.58,17.07-2.16,24.74-6.5,3.45-1.95,6.41-4.36,7.35-8.5.38-1.69.19-3.02-1.98-3.12-1.52-.07-3.22-.14-3.66-1.94-.5-2.03.92-3.2,2.5-4.13,7.47-7.3,9.9-17.43,14.63-26.26,2.71-5.08,4.45-10.55,4.13-16.47,1.67,0,1.29,1.44,1.7,2.49,1.27-4.67.4-8.86-1.95-12.89-2.28-3.9-5.03-7.43-8.23-10.56-4.63-4.53-8.65-9.61-13.2-14.2.49-3.96,3.27-6.65,5.57-9.51,2.97-3.68,6.32-7.05,9.93-10.14,2.34.86.68,2.16.18,3.05-1.04,1.84-2.58,3.37-3.64,5.21-1.65,2.86-.79,4.78,2.3,4.14,3.98-.82,7.23,1.32,10.89,1.5,1.64.08,2.47,1.3,2.37,2.83-.2,3.06,1.69,4.64,4.04,5.68,4.96,2.2,9.44,5.03,13.17,8.99.43.46,1.02.91,1.63.83,3.25-.41,5.36,1.54,7.55,3.43,1.53,1.32,3.13,1.53,4.57-.19,1.24-1.47,2.84-2.46,4.58-3.17,5.44-2.21,9.86-6.19,15.21-8.58,2.15-.96,4.02-2.5,5.58-4.34,1.41-1.66,3.1-2.89,5.32-3.34-3.31-.29-6.49.76-9.75.77-1,0-2,.01-2.98-.2-1.22-.26-2.79-.44-3.06-1.77-.25-1.22,1.25-1.68,2.14-2.31.4-.29.84-.53,1.11-1.44-1.8-1.1-3.91-1.15-5.92-.97-5.19.47-8.16-2.34-10.24-6.57-1.28-2.6-1.99-5.4-2.37-8.24-.35-2.61,1.12-4.47,3.55-4.04,6.33,1.14,12.71,2.28,18.27,5.88,2.21,2.83,4.43,5.64,6.61,8.49,1.19,1.55,2.47,2.08,4.46,1.26,3.9-1.61,7.92-2.93,11.87-4.43,8.17-3.12,11.44-9.54,11.63-17.81.16-6.6-.09-13.21.05-19.82.07-3.34.31-6.8,3.49-9.02,1.61-.75,2.71.11,3.46,1.33,2.3,3.78,6.12,5.32,9.9,6.91.8.34,1.66.58,2.38,1.06,1.3.87,3.25,1.34,3.18,3.29-.06,1.77-1.78,2.2-3.13,2.83-1.2.55-2.27,1.38-1.93,2.83.37,1.62,1.82,1.45,3.07,1.33,2.11-.21,4.21-.38,6.17-1.38,1.97-1,3.46-.51,3.85,1.82.24,1.45,1.31,2.34,1.93,3.5,4.05,7.57,10.05,14.2,10.63,23.45.46,7.29,4.45,13.12,9.22,18.35,3.63,3.98,5.56,8.4,5.07,13.88-.32,3.58-.53,7.05,3.62,9.28,2.19,1.17,1.23,3.76.17,5.73-1.6,2.97-1.42,3.93,1.79,4.64,3.74.83,7.56,1.63,11.45.94,1.15-.2,2.25-.43,3.2.38,1.83,1.54,3.84,2.74,6.07,3.61.98.38,1.47,1.33,1.71,2.34.39,1.65,1.46,2.09,3.05,2.06,2.86-.05,5.16.89,5.97,3.99.25.98.93,1.5,1.88,1.52,2.52.05,4.25,1.58,5.57,3.38,3.37,4.59,8.57,7.68,10.79,13.2.18.46.46.98.87,1.2,5.21,2.95,6.49,8.62,9.2,13.28,1.82,3.13,3.74,6.18,5.65,9.25,7.63,12.21,12.47,25.47,14.27,39.79.41,3.24,1.24,6.38,2.8,9.26,1.15,2.13,2.62,2.93,5.47,2.54,3.69-.5,7.87-.43,11.29.69,5.17,1.69,10.65,2.43,15.58,4.99,2.88,1.49,4.66,3.54,5.82,6.46,2.83,7.13,5.45,8.45,13.2,7.83,4.6-.37,9.18-.72,13.73-1.55,1.77-.32,3.75-.64,5.33.83-.77,3.79-3.77,5.28-6.87,6.67-5.21-.78-10.46-.29-15.69-.35-2.97-.03-5.64-.7-8.16-2.26-8.35-5.18-17.72-6.57-27.27-6.66-7.31-.07-9.65,2.72-10.9,9.96-1.28,7.37-2.34,14.78-3.79,22.12-.89,4.52-.67,8.92,1.14,13.22,1.28,3.03,3.33,4.57,6.73,3.97,1.33-.23,2.73-.59,3.93.47Z" style="fill: #a17dea; stroke-width: 0px;"/>
  <path d="M47.43,318.4c1.07,9.14,1.82,18.31,3.38,27.41,4.37,25.52,12.6,49.72,24.75,72.54,20.23,38.02,48.58,68.64,84.97,91.68,28.71,18.18,59.91,29.83,93.56,34.83,15.85,2.36,31.74,3.22,47.75,2.45,7.47-.36,14.99-.77,22.42.45,5.24.86,10.32,2.32,14.34,6.14-1.66,1.06-1.73,1.17-3.82-.19-3.15-2.04-6.53-2.51-10.13-2.36-.2,1.8,1.01,2.01,1.81,2.35,4.1,1.73,7.4,4.48,10.35,7.73,2.29,2.53,4.54,5.17,8.54,4.41.49,4.97.16,9.72-3.52,13.61-1.78-.84-3.25-.53-4.76.82-2.17,1.96-4.81,3.18-7.75,3.44-2.52.22-3.12-.8-2.08-3.14,2.2-4.96.95-6.92-4.44-7.37-3.24-.27-5.68-2.69-8.89-3.47-3.3-.81-6.36-.89-9.54-.18-1.34.3-2.76,1.07-3.98.23-2.8-1.91-5.68-1.2-8.66-.82-7.58.96-15.19,1.51-22.83,1.5-1.39,0-2.74-.27-4-.85-1.32-.61-2.61-.71-3.96-.05-3.03,1.47-5.89.64-8.55-.93-4.13-2.44-8.58-3.22-13.28-2.84-1.52.12-3.01.16-4.41-.47-1.66-.75-3.3-1.04-5.06-.32-1.52.63-2.96.14-4.3-.6-2.51-1.4-5.24-2.36-7.69-3.86-1.77-1.09-3.61-1.38-5.68-1.43-4.22-.1-8.6-.11-11.48-4.1-.22-.3-.55-.66-.87-.68-5.54-.28-10.03-3.95-15.37-4.74-2.26-.33-4.42-.62-6.33-1.96-5.33-3.75-11-6.86-17.16-9.04-1.08-.38-1.94-1.14-2.71-1.96-2.18-2.31-4.76-4-7.69-5.2-7.92-3.22-14.27-8.82-21.1-13.72-4.02-2.88-7.24-6.77-11.84-8.93-2.54-1.19-3.32-4.31-5.59-5.96-9.06-6.57-15.81-15.43-23.24-23.62-1.43-1.58-2.89-3.1-4.51-4.46-1.25-1.05-2.52-2.14-2.91-3.8-.54-2.28-1.88-4.01-3.42-5.7-2.2-2.41-4.5-4.5-5.8-7.92-1-2.63-3.99-4.78-5.68-7.57-5.66-9.33-12.02-18.29-16.59-28.2-3.53-7.65-5.92-15.93-10.19-23.17-3.81-6.45-4.79-13.61-6.75-20.45-1.91-6.66-4.47-13.24-5.49-20.11-1.02-6.89-2.27-13.77-3.64-20.55-1.51-7.47-1.72-14.66-.72-22.13.46-3.4-.58-6.88-2.05-10.16-1.67-3.73-2.57-7.6.43-11.28,1.06-1.3.51-2.88.26-4.34-.82-4.96-.7-9.69.69-14.73,1.02-3.71,1.7-7.69,2.42-11.57.91-4.91,1.92-6.07,6.89-6.65,1.8-.21,2.6-1.29,3.31-2.64,2.27-4.33,5.91-7.37,9.68-10.27,1.18-.91,2.61-1.99,4.08-1.29,1.57.75,1.17,2.6,1.22,4.06.38,10.38-1.12,20.63-2.17,30.92-.14,1.36-.65,2.7.39,3.92.06,2.82.18,5.64-.59,8.4-1.41-1.28-.42-2.68-.4-4.04-.28,5.28-1.16,10.55.15,15.84,0,2.52,0,5.03,0,7.55-1.21,4.33-.49,8.67-.27,13,.38.47.86-.19.44.08-.14.09-.19,0-.3-.22-.6-1.19-.76-2.33.37-3.32Z" style="fill: #dc7537; stroke-width: 0px;"/>
  <path d="M48.02,281.11c-1.86-.3-1.55-1.8-1.4-2.94.75-5.91.95-11.89,1.7-17.76.76-5.88.03-11.68.69-18.21-6.05,2.95-10.35,6.82-13.32,12.09-1.2,2.13-1.8,3.95-5.2,3.08-3.26-.83-4.49,2.34-4.76,4.97-.23,2.3-.65,4.4-1.78,6.38-.59,1.03-.77,2.11-.28,3.23.36.83.73,1.81.24,2.53-3.72,5.48-1.91,11.25-.95,16.95.18,1.04.52,2.05-.39,2.75-3.93,3.03-2.37,6.76-1.01,10.11,1.96,4.81,2.54,9.41,1.89,14.71-.59,4.81-2.1,10.08.8,14.96,1.44,2.41.55,5.35,1.13,8.06,1.76,8.13,2.57,16.49,5.11,24.44,2.57,8.06,4.44,16.29,6.57,24.45,1.02,3.91,3.5,7.55,5.39,11.25,4.02,7.9,6.47,16.45,10.54,24.3.79,1.53,1.76,3.03,2.89,4.32,3.53,3.99,4.01,9.93,8.57,13.26,1.54,1.12.92,3.24,2.26,4.85,2.2,2.66,3.89,5.74,6.75,7.89.84.64.6,1.51.28,2.38-.34.94.06,1.65.88,2.22,3.56,2.47,6.91,5.09,7.51,9.85.13,1.03,1.18,1.52,1.93,2.18,4.93,4.3,8.91,9.47,13.2,14.37,4.42,5.07,9.19,9.89,14.64,13.9,1.46,1.07,2.66,2.22,3.53,3.74,1.04,1.82,2.5,2.86,4.52,3.58,3.51,1.26,5.16,4.96,8.55,6.76,4.38,2.33,7.99,6.02,12.08,8.96,3.93,2.83,8.27,4.48,12.39,6.71,1.09.59,2.25,1.17,3.13,2.02,6.99,6.72,17.06,8.29,24.33,14.54.99.86,2.4.58,3.63.54,2.56-.07,4.92.05,6.64,2.49,1.02,1.44,2.85,1.29,4.5,1.28,2.95-.02,5.2.69,7.28,3.39,2.21,2.87,6.34,2.67,9.7,2.42,2.19-.17,3.7.26,5.48,1.33,2.97,1.78,6.17,3.2,9.29,4.74.43.21.98.5,1.4.4,6.98-1.64,13.72.67,20.57,1.2,2.75.21,4.12,3.28,6.99,3.22.72-.01,1.68.71,2.13.44,5.39-3.25,10.66,1.33,16.06.18,2.14-.46,4.46-.21,6.57-1.07,1.58-.65,2.99-.62,4.62.23,2.83,1.49,5.31-1.08,8.14-1.15,2.5-.06,4.88-.93,6.92,1.24.68.72,1.57.72,2.42.25,5.36-2.99,10.79-.8,15.64.87,2.49.86,4.48,2.19,7.45,2.05,2.69-.12,4.56,5.34,3.04,7.72-.59.92-1.15,1.86-2.03,3.29,4.39-.25,7.79-1.43,10.44-4.28,1.99-2.14,3.44-2.3,4.54.69-1.55,1.11-2.03,3.54-4.44,3.6-10.77,4.63-22.06,5.21-33.62,4.98-8.33-.17-16.68-.27-25.02-.39-6.3-.09-12.62-1.04-18.74-2.83-.84-.25-1.66-.58-2.54-.57-11.21.14-22.03-2.85-32.52-5.86-11.03-3.16-22.19-6.44-32.68-11.56-5.44-2.65-11.32-4.53-16.94-6.94-9.78-4.19-18.77-9.84-28-15.01-12.4-6.96-23.73-15.65-34.6-24.74-9.24-7.74-17.94-16.15-26.06-25.19-7.18-8-14.37-15.96-20.62-24.68-9.65-13.46-18.9-27.16-26.28-42.1-4.32-8.74-8.29-17.63-12.07-26.56-3.58-8.46-6.74-17.17-9.18-26.1-3.23-11.79-6.4-23.6-8.97-35.54-2.55-11.84-3.91-23.84-4.5-35.96-1.5-30.74,3.26-60.55,12.62-89.73.64-2.01.92-4.13,1.91-6.03.8-1.54,1.86-2.83,3.74-2.51,2.14.36,2.67,2.16,2.66,3.98-.02,4.02-1.6,7.81-1.9,11.81-.11,1.49-.42,2.96-.45,4.46-.1,5.95,1.56,7.57,7.33,9.46,3.17,1.03,5.34.97,7.92-1.19,1.83-1.53,4.13-2.75,6.84-2.66,1.61.05,2.57-1.4,3.78-2.25,2.37-1.67,3.94-1.07,4.58,1.73.25,1.11.16,2.24-.04,3.35-1.32,7.22-1.82,14.57-3.64,21.71-.51,2.01-.91,4.15-.13,6.25-.75,6.25-1.49,12.49-2.24,18.74Z" style="fill: #d86c2f; stroke-width: 0px;"/>
  <path d="M480.4,346.3c-6.97-.1-13.78,1.47-20.69,2.1-4.76.43-10.34-1.93-11.62-6.6-2.01-7.31-7.13-9.95-13.98-10.5-1.44-.12-2.65-.74-3.81-1.44-2.84-1.73-5.87-2.03-8.99-1.2-1.23.32-2.22.37-3.04-.61-.96-1.13-2.05-.98-2.93-.15-2.18,2.06-3.55.58-4.95-.97-2.82-3.12-3.67-7.13-4.16-11-1.93-15.16-6.86-29.1-15.46-41.79-3.13-4.61-5.88-9.5-7.94-14.72-.51-1.29-.97-2.84-2.26-3.31-2.74-1-4.08-3.2-5.25-5.51-2.79-5.5-8.32-8.62-11.65-13.63-.54-.81-1.5-.78-2.38-.8-1.87-.04-3.79.68-3.44-2.88.23-2.27-2.69-3.03-4.88-2.68-2.54.41-4.27.3-3.88-2.94.1-.83-.37-1.63-1.13-1.72-2.66-.33-4.6-1.75-6.3-3.66-.41-.46-.86-.76-1.62-.5-5.09,1.74-9.96.36-14.74-1.28-2.92-1-3.05-2.36-.86-4.71,2.28-2.44,2.05-5.08-.9-6.2-2.81-1.06-2.86-3.03-2.77-5.38.17-4,.85-8.01-1.24-11.86-.89-1.65-1.83-3.11-3.09-4.52-5.42-6.04-9.97-12.58-9.95-21.2.01-4.21-2.15-7.72-4.33-10.9-1.37-2-2.44-3.96-3.16-6.17-.6-1.86-1.59-3.43-3.22-4.45-1.41-.88-2.29-1.66-1.66-3.58.47-1.42-.72-2.45-1.85-1.44-2.33,2.09-5.23,1.32-7.79,2.12-1.75.55-3.58-.22-3.92-1.88-.37-1.79.53-3.65,2.48-4.49.54-.24,1.3,0,1.82-.27.63-.32,1.35-.84,1.58-1.44.35-.92-.73-1.06-1.26-1.52-2.47-2.15-5.97-2.01-8.58-4.13-2.16-1.75-5.15-2.41-6.03-5.63-.26-.94-1.44-1.32-2.49-1.41,1.87-2.71,5.12-1.83,7.61-2.94,3.46-.42,6.9-.24,10.3.43.75.15,1.85.51,1.63,1.65-.16.83-1.1.91-1.81,1.08-2.47.58-5.13.43-8.28,2.06,4.66,1.57,8.72,1.87,12.73,2,6.81.24,13.27,2.09,19.79,3.69,3.75.92,5.88,4.98,5.6,9.93-.17,2.99-.69,5.95-1.49,8.84-2.01,7.25-1.29,14.65-.65,21.91.63,7.14,4.7,12.77,10.67,16.85,10.41,7.11,21.07,13.72,33.13,17.84,4.28,1.46,7.52.26,11.14-2.05,6.05-3.86,11.21-8.66,16.27-13.63,1.87-1.84,3.73-3.66,4.86-6.11,1-2.17,2.87-2.64,5.03-2.16,2.98.66,5.7,1.92,7.81,4.18,6.89,7.37,15.11,13.39,21.47,21.32,2.23,2.78,5.65,3.74,9.14,3.22,4.6-.68,9.2-.62,13.81-.6,2.29.01,4.42-.68,6.62-1.08,2.21-.4,3.87.07,2.95,2.95-.04.8-.05,1.6-.82,2.11-12.8,1.42-25.59,2.61-37.89-2.78-2.38-1.04-4.75-.66-6.79.72-3.51,2.38-7.09,4.68-10.34,7.39-2.71,2.26-2.83,3.97-.5,6.67,1.75,2.02,2.56,4.37,3.57,6.8,1.79,4.3,5.45,7.26,10.08,8.58,4.27,1.22,8.77,1.79,12.52,4.47,1.16.83,1.74.55,2.08-.81.31-1.2-.27-2.91,1.67-3.3.12,13.59,5.86,25.72,10.04,38.23.64,1.91,2.35,3.46,3.57,5.18-.19,3.03-2.59,3.03-4.62,3.07-2.22.05-4.44-.54-6.67-.77-1.64-.17-2.72-1.24-3.34-2.69-1.92-4.55-3.9-9.01-5.24-13.88-1.79-6.53-4.87-12.78-8.47-18.65-.26-.43-.59-.89-1.03-1.07-5.39-2.23-8.76-6.77-12.65-10.77-2.89-2.98-3.72-2.75-6.79.23-1.16,1.13-2.35,2.24-3.26,3.6-.94,1.4-1.66,3.04-.98,4.59,3.21,7.29,5.1,15.02,7.79,22.48,2.28,6.32,4.68,12.7,6.16,19.18,2.46,10.74,9.54,14.81,19.36,16.1,6.3.83,12.58,1.91,18.97,1.82,2.75-.04,4.36,1.61,5.71,3.63,1.65,2.48,2.01,5.3,2.05,8.22.08,5.97-.51,11.98.83,17.9.46,2.04.47,4.47,2.82,5.35,2.34.87,4.04-.73,5.59-2.19,3.48-3.28,8.16-3.44,12.39-4.54,3.44-.9,5.6-2.4,6.38-5.87.68-3.04,1.66-6.01,2.39-9.04.32-1.33.72-2.66,1.46-3.83.61-.97,1.36-1.99,2.66-1.58,1.28.41.67,1.69.79,2.61.06.5-.01.99-.31,1.43-.04,1.22-.09,2.44-.13,3.65-1.39,1.91.52,4.16-.61,6.1-1,5.84-.83,11.99-4.45,17.15Z" style="fill: #aa8aee; stroke-width: 0px;"/>
  <path d="M50.25,262.37c-1.36-1.93-1-4.25-.54-6.14,1.81-7.37,1.66-15.03,3.45-22.39.23-.94.2-2.02-.02-2.96-.44-1.82-1.3-2.7-3.02-.92-1.67,1.73-3.12,3.01-6.21,2.93-2.05-.05-5.76,1.38-7.08,4.47-.76,1.78-1.64,2.19-2.88.51-.64-.87-1.54-1.66-2.43-1.55-3.97.49-6.62-1.75-8.25-4.67-1.58-2.85-.82-6.32-.34-9.51.57-3.79,1.31-7.56,2-11.34.32-1.8.46-3.85-1.6-4.36-2.15-.53-3.01,1.6-3.47,3.21-2.66,9.32-5.27,18.65-7.72,28.02-2.85,10.94-4.12,22.13-5.41,33.36-1.49,12.92-.88,25.83-.38,38.67.58,14.84,3.72,29.44,7.48,43.88,3.03,11.64,6.06,23.26,9.9,34.66,3.97,11.79,9.26,23.04,14.29,34.38,4.73,10.65,10.67,20.75,17.15,30.39,9.59,14.26,19.83,28.03,31.71,40.64,8.18,8.69,16.55,17.18,25.56,24.89,6.63,5.67,13.92,10.75,20.96,16.01,11.14,8.33,23.61,14.16,35.44,21.15,5.74,3.39,12.02,6.04,18.32,8.26,8.16,2.88,15.89,6.92,24.34,9,7.86,1.93,15,6.03,23.42,6.6,4.77.32,9.68,1.79,14.46,3.04,2.42.63,4.7,1.66,7.23.49.41-.19,1.1-.24,1.46-.03,4.81,2.88,10.55,1.37,15.54,3.31.12.05.23.12.35.12,13.23.16,26.45.45,39.68.42,8.08-.02,15.91-2.05,23.74-3.88-2.45,2.1-5.13,3.76-8.38,4.33-7.26.83-14.39,2.49-21.75,2.86-10.22.51-20.39.55-30.63-.02-10.48-.58-20.92-1.47-31.21-3.26-24.3-4.24-47.83-11.14-70.37-21.34-23.69-10.73-45.6-24.32-65.69-40.74-13.53-11.06-25.89-23.36-37.11-36.85-8.64-10.39-16.76-21.08-24.01-32.48-14.17-22.26-24.91-46.05-32.58-71.29-4.14-13.63-7.26-27.48-9.31-41.56-1.21-8.37-1.6-16.83-2.49-25.22-.25-.07-.45-.21-.61-.41-.44-8.25-.49-16.5,0-24.75.2-.24.36-.51.49-.8.17-1.59.27-3.18-.22-4.74-.04-.5.07-.98.22-1.45.1-1.93.19-3.86.29-5.8.5-1.26-.08-2.66.47-3.91.1-1.44.19-2.89.29-4.33.5-1.25-.11-2.63.48-3.86.05-.7.1-1.4.16-2.1.72-1.24-.01-2.7.57-3.96.73-11,3.54-21.59,6.49-32.14,2.09-7.46,4.28-14.89,6.43-22.33.55-1.2.39-2.42.1-3.64-1.23-3.62-4.44-5.15-7.38-6.95-3.05-1.88-6.19-3.62-9.15-5.64-2.22-1.51-3.4-3.57-1.67-6.26,1.39-.4,1.46,1.05,2.2,1.55.37.34.76.65,1.19.91,5-.07,8.46-3.09,12.06-6.03,8.77-7.16,17.4-14.49,26.18-21.64,6.54-5.32,13.23-10.55,18.86-16.92,1.61-1.82,3.46-4.52,6.15-2.74,2.91,1.92.43,4.42-.41,6.63-.8,2.1-2.53,3.74-2.92,6.03-.73,4.28.03,7.74,2.57,11.8,4.71,7.52,8.6,15.75,9.26,24.98.53,7.47,2.68,14.69,3.61,22.11.23,1.87.92,3.81,3.18,4.14,2.29.34,2.3-1.83,3.03-3.16.27-.48.63-.73,1.2-.63.14.21.17.43.11.67.46,2.27.51,4.53-.03,6.8-1.08,3.32-3.78,3.28-6.41,2.84-3.18-.53-6.32-1.35-9.47-2.1-8.61-2.07-10.12-1.23-12.42,7.33-2.8,10.43-5.53,20.89-8.22,31.35-.33,1.28-.19,2.69-.28,4.03Z" style="fill: #d05d26; stroke-width: 0px;"/>
  <path d="M379.18,266.87c5.57,2.87,8.53,8.09,11.79,13.05,5.15,7.85,8.01,16.62,9.39,25.75,1.92,12.67,3,25.54,1.73,38.28-.46,4.58-4.42,8.76-6.62,13.21-2.97,6-5.79,12.07-8.64,18.13-1.42,3.01-2.54,6.19-4.22,9.05-3.44,5.85-9.79,5.76-15.4,6.8-6.24,1.16-12.63.96-18.96.81-2.66-.06-5.2.24-7.66,1.3-7.97,3.42-16.28,5.95-24.29,9.32-5.65,2.38-11.69,5.69-18.56,5.27-3.26-.2-6.66.64-9.9,1.41-5.88,1.4-11.83-.51-17.7.68-5.1,1.03-10.32-.32-15.44.73-.6.12-1.29.17-1.86,0-6.87-1.96-13.71-.58-20.59-.07-3.05.22-6.12-.91-9.26-.65-2.73.22-5.89-.02-6.91,3.18-.94,2.95,1.23,4.83,3.21,6.93,6.41,6.81,15.16,10.29,22.2,16.17,4.03,3.36,6.04,7.38,6.76,12.72,1.31,9.61-1.95,18.64-2.48,28-.49,8.72,1.08,10.01,10.04,12.16,7.78,1.87,15.91,2.48,24.01,2.6,3.19.04,6.35,1.15,9.55,1.34,6.97.4,13.83-1.22,20.78-1.46,1.88-.07,1.67-1.59,1.59-2.78-.24-3.66-1.51-7.24-3.34-10.16-2.79-4.45-3.24-9.3-4.06-14.12-.83-4.92.59-9.92-1.56-15.01-1.2-2.84,1.84-6.14,4.73-8.18,5.79-4.09,12.88-5.13,19.18-8.1,4.89-2.3,10.11-3.81,15.56-4.84,6.2-1.18,9.97,2.21,13.91,5.36,6.8,5.44,10.27,13.68,16.03,20.06,2.4,2.66,4.63,3.91,8.4,2.42,5.87-2.33,10.92-5.91,16.03-9.44,3.67-2.54,7.47-4.13,11.84-2.17,1.72.77,3.17.02,4.71-.18,5.22-.67,10.6-.49,15.61-2.42,1.64-.63,2.9-.67,3.73,1.1-4.78,4.99-9.41,10.14-15.07,14.2-2.67-2.62-5.67-3.7-9.44-2.57-2.9.86-5.92.57-8.88.03-2.15-.39-4.25-.31-6.21.6-4.06,1.88-8.27,3.4-12.31,5.33-.83.48-1.7.87-2.66,1-1.71.17-3.28-.46-4.91-.82-.34-.11-.67-.27-.98-.45-5.72-4.07-8.16-10.69-12.4-15.92-.21-.26-.39-.55-.57-.83-1.15-2.04-2.99-3.46-4.58-5.1-.24-.21-.47-.45-.69-.68-.85-.96-1.77-1.84-2.89-2.49-.28-.16-.55-.35-.81-.54-1.02-.82-2.17-1.35-3.42-1.7-.31-.08-.61-.19-.91-.29-1.41-.51-2.79-.3-4.16.17-.32.1-.65.17-.99.22-1.22.11-2.42.23-3.5.9-8.12,3.49-16.65,5.91-24.6,9.83-2.84,1.4-3.38,3.23-3.74,6.36-1.33,11.49,4,21.33,6.93,31.76.27.95.79,1.83,1.22,2.72.82,1.71,1.95,2.97,4.06,2.42,1.92-.5,2.58-1.9,3.01-3.8,1.22-5.41.88-10.88,1.04-16.33.04-1.45-.58-3.36,1.66-3.96.04,7.42.23,14.85.09,22.27-.13,6.86-2.9,9.86-9.81,11.3-3.42-.6-6.91-.81-10.33-.88-8.36-.17-16.67-1.37-25.04-.9-7.91.45-15.66-1.12-23.47-1.87-6.17-.59-11.86-2.78-16.85-6.6-1.83-4.81-.39-9.62.4-14.3,1.21-7.25,2.59-14.42,1.17-21.78-.45-5.38-3.38-9.41-7.7-12.1-8.26-5.12-16.66-10.07-25.72-13.69-8.76-3.49-14.61-.75-18.01,8.16-1.02,2.68-2.04,5.38-3.25,7.96-3.98,8.51-9.22,9.7-18.99,7.63-3.2-.68-5.92-2.63-8.32-4.87-8.05-7.52-15.14-15.86-21.07-25.16-.74-1.15-1.34-2.39-2.68-2.98-1.2-1.55-2.17-3.21-2.22-5.25-.43-1.86-.38-3.73-.03-5.59.67-3.71,3.38-5.92,6.09-8.06,4.17-3.29,8.43-6.45,12.66-9.66,2.92-2.22,4.82-5.29,6.87-8.24.96,1.1,1.98,1.58,3.04.16,1.81-2.41,4.18-4.28,6.19-6.49,3.27-3.58,8.04-4.07,11.96-1.27,3.89,2.77,7.13,6.14,10.27,9.73,7.55,8.62,17.27,13.55,28.6,14.64,11.42,1.1,22.92,1.15,34.4.83,9.83-.28,19.67.42,29.48-.27,12.03-.85,24.14.32,36.11-1.21,8.42-1.08,16.44-4,24.53-6.51,1.92-.6,3.86-1.01,5.88-.93,5.64.24,11.18-.43,16.72-1.45,3.63-.67,6.15-2.49,7.9-5.61,4.38-7.82,8.61-15.67,11.43-24.25.87-2.65,2.98-4.89,2.5-7.98.53-3.56,2.88-6.34,4.53-9.3,2.8-5.02,2.34-10.31,2.7-15.54.47-6.95-.33-13.93-1.75-20.66-1.56-7.36-3.25-14.83-7.1-21.49-2.24-3.88-4.63-7.66-7.49-11.13-.69-.84-1.59-1.65-1.18-2.95Z" style="fill: #8a68e0; stroke-width: 0px;"/>
  <path d="M439.94,433.38c-.27-1.84-1-2.84-3-1.74-3.73,2.05-7.88,2.24-11.94,2.22-5.39-.03-10.52,1.9-15.9,1.73-.58-.02-1.3.22-1.75.59-5.52,4.46-12.61,6.01-18.41,9.96-2.14,1.46-4.44,2.73-6.79,3.83-2.5,1.17-8.81-2.46-10.17-5.8-1.98-4.86-5.49-8.47-9.37-11.8-.74-.64-1.57-1.28-2.07-2.09-5.93-9.49-13.57-10.33-22.18-7.88-10.84,3.08-21.37,7.35-31.85,11.56-3.88,1.56-8.05,3.51-9.41,8.29-.26.92-1.07,1.71-.13,2.72,3.7,3.94,3.75,9.1,3.65,13.85-.18,8.49-.14,16.86,1.95,25.16,1.1,4.39-1.6,7.51-6.25,7.63-3.24.08-6.37-.27-9.58-1.08-4.41-1.11-9.04-1.69-13.6-1.82-6.67-.19-12.97-1.95-19.34-3.57-3.14-.8-4.36-2.77-4.28-6.03.19-7.84,1.63-15.52,2.59-23.27,1.1-8.94.53-17.59-7.14-23.7-3.15-2.51-4.26-7-8.55-8.24-.72-.21-1.13-1.02-.94-1.85.27-1.21,1.15-2.19,2.27-2.21,2.91-.05,5.93-.92,8.64,1.19,1.6,1.24,3.53,2.2,5.04-.38.33-.57.92-.7,1.61-.67,13.24.51,26.39-1.19,39.57-2.01,3.8-.24,7.65-2.49,11.61-3.43,8.58-2.03,15.92-6.74,23.21-11.39,4.79-3.05,10.11-4.74,15.17-7.08.22-.1.53-.27.7-.19,3.85,1.8,7.75.14,11.59.3,5.4.22,10.64-.57,15.78-1.65,3.07-.64,6.33-.95,9.21-2.75,5.06-3.17,6.56-8.5,8.99-13.36,4.27-8.53,7.99-17.34,13.11-25.43.48-.76.7-2.18,2.02-1.74,1.03.35.73,1.57.58,2.32-1.21,6.01-.74,12.37-4.53,17.83-2.13,3.07-2.9,6.85-2.92,10.66-.02,2.94.08,5.28,3.85,6.61,2.49.88,4.19,4.06,6.2,6.25,2.05,2.24,4.46,3.97,7.17,5.29,2.28,1.11,4.56,1.08,6.83-.04.72,1.01,1.44,2.03,2.16,3.04.37.39.36.91.48,1.39.37,1.52,1.39,3.18-.41,4.41-1.51,1.03-2.82-.01-4.15-.7-4.75-2.44-8.37-6.25-11.96-10.03-1.67-1.76-3.31-3.31-5.6-4.2-4.39-1.72-7.44-4.41-7.18-9.72.1-2.04-.61-4.1-.86-6.74-3,2.98-4.49,6.19-6.14,9.13-3.67,6.55-8.89,10.62-16.26,11.89-2.7.47-4.6,1.79-5.53,4.42-.69,1.94-2.2,2.82-4.11,3.45-4.11,1.36-4.4,2.12-2.7,5.87,3.73,8.23,8.27,15.85,15.42,21.68,2.14,1.74,2.98,4.58,4.75,6.69,2.81,3.36,3.7,3.56,6.87.66,3.82-3.49,8.95-3.56,13.4-5.4,11.67-4.83,24.34-5.12,36.44-8,1.35-.32,2.74-.4,4.09-.08,1.12.27,2.3.67,1.44,2.27,0,1.27-.56,2.3-1.42,3.19Z" style="fill: #a381ec; stroke-width: 0px;"/>
  <path d="M456.42,210.83c0-1.94-.88-2.95-2.79-2.08-3.45,1.56-7.08,1.12-10.67,1.2-2.97.07-5.91.14-8.9.59-4.94.74-9.21-.78-12.29-5.2-3.51-5.04-8.88-8.27-12.99-12.76-2.27-2.48-4.86-4.65-7.19-7.08-2.09-2.17-4.78-3.12-7.53-3.88-1.32-.37-2.91-.41-3.47,1.29-1.69,5.05-6.31,7.57-9.56,11.27-3.73,4.25-8.62,7.13-13.16,10.34-2.74,1.94-5.97,2.99-9.82,1.65-11.85-4.11-22.36-10.53-32.8-17.31-7.32-4.75-12.22-11.01-12.88-19.4-.54-6.82-1.19-13.84.64-20.77,1.12-4.23,2.51-8.55,1.32-13.16-.95-3.68-3.29-4.85-6.75-5.85-9.25-2.68-18.86-2.49-28.19-4.3-1.28-.25-3.25-.12-3.13-1.86.1-1.4,1.93-1.91,3.29-1.9,2.51.01,4.8-1.44,7.41-1.06-3.62-1.51-7.46-1.59-11.23-2.04,7.08-1.84,14.32-1.76,21.48-1.22,6.11.46,12.22.19,18.3.58,9.17.6,18.36,1.3,27.13,4.39,4,1.41,7.59,3.35,8,8.29-2.55.06-4.33-2.13-7.02-2.1-8.44.1-15.24,3.35-19.22,10.74-4.26,7.92-2.83,15.68,2.75,22.69.88,1.1,1.97,1.89,3.24,2.47,1.02.47,2.21.91,2.74,1.89,2.77,5.12,7.81,6.21,12.81,7.42,2.04.49,4.07,1.04,6.37,1.57-1.74-2.79-5.56-3.31-6.29-6.33-.71-2.92.16-5.88,1.77-8.5,1.03,9.18,7.47,13.67,14.93,17.37,3.09,1.53,6.01,3.4,9,5.12-.45,3.03-3.73,3.64-5.27,6.34,2.78-.18,5-1.24,6.92-2.62,5.9-4.23,11.04-9.22,14.73-15.58.89-1.53,1.08-2.99.7-4.62.92-1.34,2.23-2.01,3.82-2.17,1.95-.67,3.07.45,3.87,1.94.83,1.55-.3,2.51-1.28,3.53-2.92,3.05-2.95,4.39.62,6.28,11.06,5.86,18.3,15.6,25.65,25.15,3.43,4.47,6.89,7.37,12.88,5.72,3.48-.95,7.2-.63,10.72-1.46,2.82-.67,3.36-2.06,1.39-4.18-3.2-3.43-5.45-7.74-9.76-10.18-1.81-1.02-3.22-2.76-4.49-4.47-3.52-4.74-8.06-8.38-12.67-11.96-2.26-1.75-3.66-4.47-6.88-5.18-1.34-.29-1.22-2.13-.07-3.08,1.6-1.32,3.26-2.73,5.63-2.16,5.47.5,9.66,3.62,13.42,7.15,8.59,8.07,15.89,17.26,21.96,27.35,2.17,3.61,4.33,7.53,2.81,12.13Z" style="fill: #b69cf2; stroke-width: 0px;"/>
  <path d="M576.25,330.62c-.09-2.05-.18-4.1-.27-6.15-.38-.06-.77-.12-1.15-.18,1.08,9.76-3.63,18.19-4.77,27.48-1.93-.44-1.35-1.55-1.32-2.22.34-7.19.53-14.42.76-21.57.3-8.96.48-18.09-.57-27.17-.79-6.87-.92-13.85-1.7-20.76-.89-7.87-1.89-15.68-3.58-23.47-3.09-14.23-6.47-28.37-11.57-41.98-5.5-14.68-11.63-29.16-19.42-42.78-6.41-11.2-13.21-22.25-21.09-32.48-10.79-14-22.76-26.94-35.93-38.84-7.86-7.11-15.95-13.91-24.42-20.13-8.47-6.22-17.28-12.1-26.63-17.04-10.24-5.41-20.43-10.92-31.22-15.21-11.78-4.68-23.62-9.06-35.99-12.09-7.46-1.83-14.94-3.58-22.45-5.12-9.57-1.96-19.29-3.06-29.07-3.85-16.28-1.32-32.57-1.42-48.87-1.36-7.43.03-13.32,3.39-18.2,8.77-.5.55-.99,1.12-1.52,1.64-.56.55-1.26.98-2,.53-.79-.49-.42-1.28-.27-2.01.91-4.26,5.45-8.84,10.03-8.79,6.51.06,12.42-2.34,18.61-3.53,5.38-1.03,10.77-1.54,16.22-1.96,8.21-.63,16.42-.7,24.63-.62,3.47.03,6.93.49,10.39.69,1.36.08,2.81.22,3.58-1.35,11.86.52,23.46,2.79,34.97,5.41,44.2,10.03,83.85,29.43,119.01,58.06,11.24,9.15,21.09,19.69,31.18,30-1.57.76-1.64.84-3.22-.74-3.8-3.79-7.92-7.24-11.74-11-22.49-22.09-48.27-39.4-76.73-52.81-13.49-6.59-27.45-11.87-42.11-15.26,9.23,3.63,18.5,7.17,27.63,11.06,21.69,9.24,41.9,20.96,60.79,35.08,12.42,9.29,24.15,19.32,34.83,30.55,16.32,17.14,30.55,35.86,42.29,56.44,3.21,5.62,6.93,10.98,8.86,17.27,2.5,7.03,5.97,13.64,8.74,20.56,7.28,18.19,12.52,36.96,16.72,56.05.99,4.5,2.59,8.84,3.21,13.47.3-2.23-1.42-5.01,1.84-6.31.52,4.68,1.04,9.36,1.56,14.03.77,2-.19,4.17.59,6.17.06,2.91.12,5.83.17,8.74.63,5.16.11,10.34.28,15.5-.35,2.64-2,5.21-.43,7.95.06,3.8.52,7.62-.63,11.34Z" style="fill: #e79a64; stroke-width: 0px;"/>
  <path d="M485.59,319.39c-.35-1.13.64-3.02-.76-3.31-1.68-.35-1.9,1.65-2.25,2.87-1.1,3.81-2.16,7.64-3,11.51-.52,2.39-1.64,4.38-3.78,5.23-3.15,1.27-6.57,1.87-9.83,2.8-2.03.58-3.95.74-5.39,2.41-1.71,1.99-3.89,3.53-6.47,2.91-3.06-.74-3.2-3.84-3.72-6.35-1.29-6.27-.78-12.65-.78-18.98,0-2.05-.22-4.06-1.18-5.79-1.43-2.57-2.8-4.35-6.77-4.4-9.11-.11-18.33-1.09-27.05-4.09-5.98-2.06-8.63-7.09-10.62-12.96-3.96-11.71-7.31-23.63-11.53-35.27-1.14-3.15-3.86-6.27-3.03-10.22,1.02-4.84,4.91-7.15,8.35-9.87.87-.69,1.65-.08,2.28.59,2.02,2.15,4.73,3.64,6.09,6.44,1.29,2.65,3.85,3.9,6.34,4.88,2.45.96,3.83,2.61,4.87,4.81,2.53,5.38,6.17,10.52,7.32,16.17.99,4.9,3.21,9.08,4.68,13.64.78,2.4,2.12,3.49,4.66,3.21,2.55-.28,5.05,1.67,7.67.18.78-.44,1.53-.84,1.9-1.7,2.23,1.79,4.75,2.33,7.62,2.32,6.83-.01,13.65-.12,20.49.54,7.86.76,11.89,3.64,13.42,11.42,1.35,6.93,1.93,13.97.46,21.01Z" style="fill: #b798f3; stroke-width: 0px;"/>
  <path d="M441.36,430.19c-1.28-2.73-3.79-1.79-5.45-1.21-7.47,2.59-15.41,2.24-23.01,4.03-5.45,1.28-10.46,3.82-15.97,4.8-1.45.26-2.81,1.14-4.25,1.28-1.85.18-3.19,1.19-4.75,1.95-2.06,1.02-2.55,4.52-5.52,3.75-3.17-.82-4.62-3.82-6.06-6.3-2.67-4.57-7.06-7.44-10.29-11.43-.85-1.06-1.99-1.94-2.4-3.25-1.32-4.18-4.3-7.47-5.9-11.54-1.51-3.85-.98-5.93,3.13-6.67,2.45-.44,3.59-1.27,4.27-3.75.58-2.12,2.32-3.54,4.9-3.96,7.32-1.18,13.14-4.58,16.54-11.59,1.39-2.88,3.4-5.47,5.12-8.19.58-.92,1.01-2.4,2.3-2.02,1.28.38.88,1.9.89,2.98,0,2.86.68,5.65.93,8.49.28,3.17,3.29,4.56,5.98,5.52,2.71.96,4.5,2.64,6.39,4.78,3.64,4.15,7.9,7.75,12.78,10.47,1.74.97,2.92.75,2.47-1.75-.2-1.09-.06-2.24-.07-3.36,4.96,5.33,10.04,10.57,14.85,16.03,2.68,3.05,5.2,6.41,3.14,10.94Z" style="fill: #aa8aee; stroke-width: 0px;"/>
  <path d="M390.41,347.78c1.15,4.78-2.76,7.97-3.9,12.05-2.13,7.64-6.7,14.23-10.18,21.29-1.34,2.73-3.67,4.57-6.49,5.26-3.71.91-7.61,1.96-11.34,1.69-9.11-.65-17.27,2.61-25.77,4.83-6.22,1.62-12.36,3.58-19.21,3.22-4.29-.23-9.12-.77-13.52.9-1.66.63-3.1-.65-4.74-.58-7.58.31-15.17.65-22.76.74-10.54.12-21.07.04-31.61.03-9.68,0-19.36-.26-28.84-2.35-2.49-.55-4.78-2.04-7.14-3.14-7.13-3.33-12.55-8.57-17.6-14.57-3.19-3.79-6.99-7.83-13.05-6.93-1.13.17-2.16.12-2.83,1.33-1.9,3.4-5.62,5.17-7.68,8.47-.57.91-1.66,2.02-2.74,1.56-1.19-.5-.31-2-.53-3.03-.13-1.14.07-2.19.86-3.08.39-2.48.47-4.97-.05-7.44-2.47-8.38-4.96-16.76-7.4-25.15-1.05-3.6-2.66-6.92-4.67-10.07-.49-6.65-5.34-8.76-10.76-10.09-5.02-1.23-10.11-1.29-15.15.04-5.25,1.38-10.34,1-15.31-1.16-2.06-3.14-2.28-6.77-2.56-10.31-.93-11.92.23-23.7,2.69-35.37,1.81.31,1.05,1.41.93,2.53-1.1,10.13-2.05,20.3-.23,30.41,1.15,6.41,3.52,7.72,9.36,4.86,7.9-3.87,15.24-8.65,20.81-15.76,3.54-4.52,7.95-8.23,12.58-11.57,3.14-2.26,5.89-4.91,8.73-7.49,1.01.75.93,1.82.83,2.89-.56,1.82-.45,3.69-.37,5.55.01,1.52-.03,3.04-.34,4.54-.94,5.99-.23,12.01-.42,18.01-.14,10.46-.2,20.92,1.6,31.27,1.23,7.09,3.3,13.85,9.36,18.53,2.91,2.52,6.54,3.4,10.12,4.42,1.76.5,3.7.65,4.98,2.25,2.26,3.43,4.34,6.96,6.86,10.23,7.97,10.33,18.55,14.69,31.42,15.18,11.59.44,23.16.71,34.75.6,6.46-.06,12.94-.82,19.36-.53,8.33.37,16.65.09,24.96.08,13.17-.02,26.46.15,39.16-4.4,7.5-2.53,15.46-2.07,23.14-3.56,3.53-.68,5.78-2.34,7.65-5.23,4.73-7.32,8.78-14.98,12.33-22.94,1.24-2.77,2.02-5.99,4.71-7.98Z" style="fill: #7e5bdb; stroke-width: 0px;"/>
  <path d="M439.7,580.1c-1.32-2.42-.15-4.41,1.43-6,2.01-2.02,4.28-3.78,6.53-5.55,6.04-4.77,6.43-7.55,1.84-13.74-1.26-1.7-2.53-3.39-3.69-5.16-2.68-4.08-2.49-6.97,1.25-10.18,4.17-3.58,8-8.11,14.45-7.31.09.08.23.15.26.26.55,1.78-2.57,2.93-.53,5.21,5.06,5.65,6.89,9.92,11.85,10.36.76-1.41-1.64-2.63-.28-4.06,3.17,1.6,5.94.74,8.69-1.21,3.03-2.15,5.84-4.65,9.3-6.16,1.25-.57,2.51-.52,3.77-.03.53.26,1.06.52,1.58.78-2.57,2.09-2.32,4.14-.06,6.34,2.7,2.63,4.54,6.28,8.85,6.88,1.68.23,1.31,1.45.88,2.55-1.16,3.2-3.98,4.85-6.37,6.94-2.44,2.14-5.71,3.58-6.48,7.23-.38.5-.3,1.19-.72,1.69-2.94,3.45-3.09,4.22-.65,7.89,2.12,3.18,4.22,6.47,8.31,7.58,1.06.29,2.22.83,1.39,2.37-2.18,4.69-6.29,7.26-10.6,9.6-3.9.94-6.76-.66-9.06-3.68-1.59-2.08-3.32-4.05-5.02-6.04-3.68-4.31-8.65-4.2-12.7.24-1.37,1.4-2.92,2.55-4.69,3.41-.91-.04-1.66.45-2.39.86-2.81,1.59-5.11.88-7.31-1.3-2.63-2.61-4.81-5.6-7.25-8.37-.69-.78-1.09-2.1-2.58-1.39Z" style="fill: #e7c95e; stroke-width: 0px;"/>
  <path d="M230.01,162.77c-5.67-1.61-11.34-3.24-17.01-4.84-3.27-.92-4.56.19-3.82,3.44.63,2.78,1.14,5.62,2.59,8.14,1.89,3.29,4.19,5.83,8.55,5.25,2.22-.29,4.46-.05,6.64.66.7.23,1.67.15,1.85.98.23,1.02-.73,1.49-1.46,1.92-1.06.63-2.18,1.16-3.54,1.87,3.04,1.84,6.1,1.58,9.01.91,2.44-.56,4.99.03,7.36-1.03.65-.29,1.57-.07,1.72.9.12.74-.43,1.19-1.09,1.24-3.73.29-5.67,3.13-8.13,5.37-2.1,1.91-5.11,2.77-7.25,4.47-5.2,4.14-12.2,5.26-16.69,10.39-1.25,1.43-2.38,1.73-4.15.49-2.66-1.85-4.61-4.98-8.92-4.16-1.28.24-3.11-2.85-4.81-4.27-2.93-2.44-6.4-3.98-9.75-5.73-2.63-1.38-5.45-2.71-4.27-6.66.25-.86-.4-2.05-1.34-1.85-3.99.86-7.26-2.34-11.6-1.33-4.11.95-5.14-1.32-2.98-5.08,1.11-1.92,2.63-3.6,3.9-5.43.57-.83,1.82-1.56.71-2.84,5.2-5.77,11.29-10.45,17.96-14.36,4.74-2.78,9.99-3.9,15.4-3.29,4.97.56,9.93.56,14.88.48,4.07-.06,7.26,1.4,9.77,4.44,2.52,3.05,5.05,6.11,6.47,9.89Z" style="fill: #ad93f2; stroke-width: 0px;"/>
  <path d="M158.93,68.37c4.11.6,6.95-1.87,9.9-4.09,3.24-2.44,6.36-5.22,10.94-4.03.71,1.74-2.4,2.81-.83,4.71,2.51,3.03,4.28,6.75,8.1,8.56,1.11.52,2.44.59,3.29,1.64.14,4.15-3.3,5.79-5.79,7.96-2.48,2.17-5.32,3.93-6.96,6.93-.61,1.28.23,3.18-2.22,3.69-1.8.38-1.14,2.31-.65,3.51,2.11,5.21,4.94,9.76,11.1,10.88.53,2.85-1.11,4.72-3.02,6.38-2.31,2.02-4.55,4.16-7.45,5.36-3.73.97-6.46-.55-8.85-3.31-1.95-2.26-3.75-4.65-5.91-6.74-4.04-3.88-9.86-3.3-13.55,1.47-1.23,1.54-2.78,2.64-4.61,3.36-4.18,1.92-7.45.53-9.93-2.98-2.69-3.81-6.97-6.38-8.53-11.06.79-2.95,3.22-4.52,5.39-6.26,2.95-2.36,6.17-4.43,7.83-8.04,2.25-2.15,1.28-4.51.26-6.71-1.51-3.25-3.61-6.15-6.11-8.72-1.14-1.17-2.06-2.4-2.34-4.04,2.34-5.64,11.46-11.56,17.11-11.11.23.14.5.43.4.55-2.94,3.5-.25,5.7,1.82,8.07,2.03,2.32,3.7,4.98,6.47,6.57.85.49,1.8,1.22,2.74.66,1.1-.65-.07-1.51-.12-2.28-.08-1.24.39-1.64,1.52-.95Z" style="fill: #e8ca60; stroke-width: 0px;"/>
  <path d="M232.44,39.19c2.48,2.68,2.82,6.46,5.08,9.36,5.23,6.72,11.99,10.08,20.35,10.86,14.52,1.35,29.01-.62,43.53-.11,11.06.39,22.03,1.61,32.93,3.29,14.37,2.21,28.34,6.22,42.07,10.99,16.65,5.78,32.25,13.72,47.16,23.07,13.96,8.76,26.38,19.39,38.36,30.68,13.56,12.79,25.19,27.13,35.35,42.62,13.73,20.94,23.6,43.74,29.94,67.99,3.39,12.97,5,26.23,6.47,39.56,1.43,13.05,1.47,26.09,1.26,39.16-.1,6.31-1.03,12.61-1.37,18.92-.38,7.11,1.26,14.05,2.08,21.06.4,3.42-.02,6.76-.75,9.99-1.52,6.74-3.46,13.39-5.26,20.07-.12.46-.44.89-.77,1.25-1.89,2.08-7.26,1.85-9.61-.38,1.41-2.13,1.83-4.61,2.57-6.99,9.03-28.99,12.85-58.63,11.04-88.96-2.34-39.26-13.23-75.93-33.19-109.87-23.13-39.33-54.91-69.72-95-91.33-25.9-13.96-53.55-22.71-82.76-26.59-16.89-2.25-33.8-2.31-50.78-1.52-8.07.37-16.2.84-24.1-1.77-9.63-3.18-15.1-11.1-14.58-21.34Z" style="fill: #a93631; stroke-width: 0px;"/>
  <path d="M326.69,463.14c-.89.76-.7,1.81-.71,2.78-.06,6.12.21,12.25-.78,18.33-.42,2.59-2.15,3.88-4.5,4.3-2.22.4-3.63-.52-4.57-2.8-3.54-8.63-5.98-17.61-8.6-26.54-.83-2.83,1.24-5.47.41-8.09-1.62-5.16,1.4-6.94,5.34-8.68,7.84-3.47,15.95-6.21,23.94-9.29,1.12-.86,2.61.18,3.72-.73.26,0,.52-.01.78-.02,1.49-.54,2.98-.55,4.48,0h.02c1.51.72,3.12,1.23,4.48,2.24l.02.02c1.35.86,2.33,2.18,3.72,2.99h.01c1.41,2.3,3.78,3.74,5.23,5.99v.02c4.1,5.61,6.57,12.46,12.73,16.46h.02c1.74.25,3.31,1.76,5.23.77l2.26-.76c1.89-.98,3.73-.69,5.19.69,2.6,2.45,5.5,3.18,8.95,2.33,1.61-.4,3.26-.07,4.71.75,1.06.6,2.28,1.29,1.36,2.89-8.59,1.11-17.17.13-25.74-.22-3.33-.14-5.46-2.71-7.42-5.21-4.16-5.3-7.21-11.35-11.44-16.62-1.75-2.19-3.35-2.87-5.98-1.71-3.07,1.35-6.26,2.45-9.45,3.51-8.05,2.67-12.67,8.05-13.42,16.6Z" style="fill: #6a49d2; stroke-width: 0px;"/>
  <path d="M378.51,520.82c2.22-9.16,11.75-19.19,27.69-17.22,10.3,1.27,19.73,11.51,20.22,22.19.37,8.13-1.64,15.19-8.42,20.32-2.01.25-3.77,1.24-5.64,1.92-10.54,3.79-21.11.57-27.85-8.49-3.77-5.06-6.21-10.52-5.47-17.01.08-.66-.05-1.23-.54-1.7Z" style="fill: #e8cb67; stroke-width: 0px;"/>
  <path d="M3.84,317.06c.04-.37-.05-.86.15-1.09.78-.91.58.1.61.39.52,4.68,1.19,9.35,1.47,14.04.96,16.06,4.36,31.69,8.65,47.11,5.38,19.35,12.46,38.08,21.88,55.86,10.04,18.95,21.63,36.82,35.7,53.14,5.69,6.6,11.43,13.18,17.54,19.31,17.72,17.77,37.66,32.75,59.38,45.4,17.4,10.14,35.68,18.34,54.76,24.56,16.5,5.39,33.42,9.48,50.7,11.6,16.31,2.01,32.73,3.04,49.15,2.23,8.02-.39,16.09-1.07,23.95-3.08.8-.21,1.88-1.01,1.24.84-9.16,3.34-18.76,4-28.34,4.29-60.49,1.85-116.37-13.34-167.13-46.35-47.56-30.93-82.76-72.62-106.02-124.37-9.01-20.04-15.23-40.99-19.68-62.45-.91-4.41-2.05-8.94-1.9-13.56-.52-1.24.2-2.65-.53-3.87-.06-.72-.12-1.44-.18-2.16-.55-1.23.1-2.61-.49-3.84-.07-.99-.15-1.98-.22-2.96-.67-1.45.1-3.06-.51-4.52l-.28-5.16c-.3-1.8-.49-3.59.1-5.37Z" style="fill: #b13a15; stroke-width: 0px;"/>
  <path d="M86.98,211.45c-1.26,1.81-.28,5.54-4.1,5.13-3.5-.37-4.04-3.33-4.5-6.04-1.67-9.87-2.6-19.93-5.08-29.59-1.64-6.39-4.05-12.94-8.84-18.05-2.36-2.52-2.83-10.36-.45-13.34,1.6-2,2.02-4.53,3.59-6.49.85-1.06.51-2.18-.35-3.03-.97-.95-1.82-.15-2.61.46-3.16,2.4-5.69,5.47-8.55,8.18-4.64,4.4-9.7,8.22-14.62,12.24-5.67,4.63-10.82,9.97-16.79,14.14-6.03,4.21-10.28,11.03-18.13,12.64-1.2.25-2.35,1.05-3.38-.27,3-3.89,6.84-6.93,10.72-9.79,14.15-10.45,27.42-21.96,41.02-33.09,3.37-2.76,6.45-5.84,9.78-8.65-8.73,6.52-17.2,13.38-25.71,20.16-10.15,8.08-20.33,16.14-30.48,24.21-2.34,1.86-4.76,3.63-6.09,6.43-.52-.76-1.05-1.51-1.57-2.27,4.63-6.16,11.22-10.1,17.05-14.86,14.38-11.75,28.97-23.25,43.53-34.78,3.07-2.43,6.15-5.14,10.62-4.14.08.09.24.26.23.27-3.25,3.63.13,6.12,1.41,9.02,1.04-.37.6-2.09,2.02-1.84,1.88,6.11,1.77,12.56,3.18,18.75.38,1.66.51,3.37.76,5.06.21,1.13,1.1,2.74-.61,3.05-1.27.23-1.93-1.35-2.3-2.57-.45-1.44-.34-2.96-.56-4.59-.62,4.07.96,7.66,1.6,11.54.73-1.4-.12-3.71,2.49-3.57,2.46,15.2,4.98,30.39,6.75,45.69Z" style="fill: #dd7d49; stroke-width: 0px;"/>
  <path d="M419.51,393.42c-.25.01-.51-.03-.75.05-8.71,2.73-11.69-.65-12.4-10.98-.63-9.13,2.22-18.13,3.88-27.14.13-.73.41-1.47.37-2.19-.38-7.17,3.87-10.44,11.1-10.5,10.37-.08,20.56,1.38,29.51,7.4,1.7,1.14,3.59,1.54,5.68,1.49,4.36-.11,8.73-.03,13.1-.03,1.37,0,2.81-.15,3.53,1.44-1.74.87-3.63.89-5.5.83-9.08-.28-18.23.63-27.21-1.48-2.06-.48-3.27.7-4.45,2.06-5.17,5.96-7.41,13.5-10.86,20.38-2.96,5.9-5.97,11.82-6,18.67Z" style="fill: #714ed8; stroke-width: 0px;"/>
  <path d="M63.23,43.72c3.45-11.58,15.65-18.42,27.14-16.17,6.98,1.37,11.97,4.96,16.31,10.09-2.6,1.62-3.87-.63-5.27-1.97-3.51-3.38-7.48-5.11-12.98-4.28,1.66,1.1,3.12,1.32,4.41,1.91,5.26,2.41,9.29,5.91,11.59,11.46,1.92,4.64,2.19,4.53,6.46,3.46.89,8.63-1.74,15.95-8.15,21.85-.62.58-1.16,1.36-2.2,1.15-.03-.12-.08-.25-.07-.37,0-.12.11-.32.1-.33-.92-.43-1.62.28-2.27.62-12.57,6.6-26.16-1.76-31.74-11.65-2.81-4.97-3.65-10.22-3.32-15.78Z" style="fill: #e8cc67; stroke-width: 0px;"/>
  <path d="M418.24,164.2c-.92.04-1.68.46-2.32,1.08-1.1,1.05-3.69.87-3.36,2.93.32,1.95,2.45,1.09,3.83,1.3.63.09,1.29.13,1.53.82,1.77,4.96,6.83,6.62,10.19,9.99,1.49,1.5,2.81,3.1,4.11,4.71,2.04,2.54,4.12,5.02,6.96,6.66,4.15,2.4,5.76,7.04,9.1,10.21,1.39,1.31,1.15,3.87-1.89,4.29-5.27.73-10.52,1.65-15.81,2.18-3.56.36-6.34-1.7-8.18-4.45-5.28-7.91-11.89-14.67-18.33-21.55-2.45-2.62-6.24-4-9.44-5.91-3.52-2.1-3.78-4.45-.74-7.05,3.07-2.63,2.9-3.32-1.28-5.19,1.12-1.14,2.56-.73,3.87-.74,6.07-.04,12.13,0,18.2.04,1.2,0,2.5-.29,3.54.67Z" style="fill: #bca1f5; stroke-width: 0px;"/>
  <path d="M347.79,160.39c-2.03,6.09-.9,10.94,5.37,13.82.54.25.81.92.59,2.08-6.43-1.13-13.85-1.28-18.25-5.93-3.89-4.11-9.43-6.37-12.11-11.96-4.35-9.05-2.45-22.25,7.64-27.41,3.54-1.81,6.94-3.61,11.18-3.56,3.33.04,6.12.71,8.43,3.11.87,7.78-2.14,15.15-2.45,22.81-.09,2.35-.26,4.69-.4,7.04Z" style="fill: #a17dea; stroke-width: 0px;"/>
  <path d="M152.95,263.16c-.35.66-.61,1.39-1.06,1.97-2.04,2.64-.53,3.21,1.86,3.22,3.76.01,4.26.67,3.42,4.26-.72,3.09-2.4,5.65-4.98,7.18-5.51,3.26-11.07,6.65-17.85,6.57-2.77-.03-5.18,1.51-7.98,1.67-2.09.12-4.05,1.03-5.97-.6-.76-.64-1.78-.21-2.42.35-2.41,2.09-3.39.79-4.45-1.49-2.58-5.54-3.4-11.08-.84-16.84.52-1.17,1-2.33-.25-3.37,2.47-3.53,6.2-4.39,10.12-4.4,10.15-.03,20.34-.57,30.39,1.48Z" style="fill: #ac8eed; stroke-width: 0px;"/>
  <path d="M137.1,415.35c2.16-1.72,2.27.89,2.72,1.59,6.03,9.35,13.21,17.7,21.16,25.46,5.29,5.17,11.62,6.64,18.54,5.6,3.63-.54,5.94-3.59,7.5-6.76,1.53-3.11,2.56-6.46,3.82-9.7,2.69-6.93,9.08-11.84,17.83-8.32,9.61,3.87,18.49,9.15,27.34,14.45,3.62,2.17,5.95,5.57,7.2,9.66.34,1.1.76,2.15-.36,3.06-2.02-4.99-5.81-8.28-10.4-10.79-3.93-2.15-7.96-4.12-11.81-6.39-1.68-.99-2.64-.65-3.8.64-3.99,4.44-8.07,8.81-12.07,13.24-3.21,3.55-7.1,5.19-11.93,4.97-5.1-.24-10.21-.2-15.31-.23-5.96-.04-11.23-1.89-15.69-5.89-9.89-8.87-18.21-19.01-24.73-30.6Z" style="fill: #6649c9; stroke-width: 0px;"/>
  <path d="M412.16,47.36c11.66,4.83,22.6,11.04,33.15,17.9,15.88,10.33,30.99,21.67,44.36,35.2,3.83,3.88,7.9,7.52,11.91,11.22.51.47.85,1.81,2.02.83,6.66,6.21,11.96,13.56,17.39,20.79,8.51,11.32,15.97,23.34,22.71,35.79,1.41,2.6,2.6,5.31,3.89,7.97.3,2.18,1.72,3.9,2.46,5.9l-.03-.05c.45,1.04.59,2.24,1.53,3.03l-.03-.03c.56,1.38.77,2.87,1.36,4.25.35.83,1.11,1.98-.14,2.66-1.29.7-2.08-.35-2.74-1.27-2.25-3.15-4.29-6.44-6.04-9.89-10.04-19.74-22.14-38.14-36.14-55.28-8.37-10.25-17.44-19.91-27.22-28.8-19.8-17.99-41.64-33.15-65.37-45.54-1.55-.81-3.2-1.55-4.2-3.04-.77-1.16-1.04-2.34,1.13-1.65Z" style="fill: #f1c29f; stroke-width: 0px;"/>
  <path d="M412.16,47.36c-2.63,1.59.3,1.92.71,2.17,4.78,2.9,9.69,5.59,14.5,8.46,15.82,9.43,30.95,19.79,44.98,31.82,9.01,7.72,17.65,15.8,25.66,24.49,14.94,16.21,27.93,33.91,39,53.03,4.55,7.85,8.33,16.14,13.57,23.59.49.7.76,1.57,2.18,1.46-.44-2.21-1.82-4.19-1.24-6.45,4.96,9.32,8.48,19.23,11.77,29.21,2.36,7.15,4.71,14.34,6.05,21.79-1.71,1.15-.25,2.77-.61,4.13-.19.72-.23,1.61-1.03,1.84-.78.22-1.36-.42-1.84-1.01-.56-.69-.85-1.52-1.08-2.36-4.17-15.22-9.69-29.94-15.85-44.45-1.75-4.11-4.08-7.93-5.68-12.1-3.2-8.58-8.28-16.15-13.02-23.88-9.44-15.4-20.31-29.71-32.47-43.13-12-13.24-25.17-25.06-39.4-35.83-14.55-11.01-29.96-20.55-46.28-28.63-12.36-6.12-25.09-11.4-38.09-16.02-2.41-.86-4.73-1.98-6.87-3.57,15.96,2.37,30.79,8.06,45.04,15.45Z" style="fill: #ebb08b; stroke-width: 0px;"/>
  <path d="M429.99,240.68c-1.19,1.42-.41,3.12-.66,4.68-.13.79-.42,1.46-1.17,1.78-.8.34-1.38-.01-1.89-.71-2.94-4.07-7.88-3.59-11.95-4.85-2.31-.71-4.44-1.18-6.15-2.98-1.27-1.35-2.47-2.83-4.27-3.56-1.21-.5-1.72-1.45-1.5-2.69.54-3.02-1.33-4.85-3.17-6.73-2.9-2.96-2.97-5.26.22-7.8,3.57-2.85,7.29-5.56,11.13-8.04,2.35-1.52,4.99-1.87,7.8-.52,5.19,2.5,10.7,3.92,16.52,3.66,5.82-.26,11.69.74,17.47-.68,1.15-.28,2.21.16,3.22.69-.81,2.35-2.48,3.91-4.6,5.07-8.3-.82-16.64-.39-24.95-.53-6.1-.1-10.95,3.78-14.38,8.86-1.87,2.77-1.26,4.42,1.79,5.97,4.61,2.35,9.76,2.75,14.71,3.81.95.2,2.01-.06,2.75.82-.31,1.25-.61,2.5-.92,3.75Z" style="fill: #a17dea; stroke-width: 0px;"/>
  <path d="M496.7,385.86c4.81-.39,7.31,3.79,10.92,5.72,7.18,3.83,7.34,10.5,1.58,16.49-2.85,2.96-5.28,6.82-5.56,11.12-.44,6.93-.17,13.89.77,20.81,1.02,7.46,1.95,14.94,2.86,22.42.67,5.52,2.6,10.29,7.53,13.39-4.4,1.99-6.68.88-8.11-4.16-2-7.08-2.71-14.4-3.91-21.63-2.98-18.02-5.98-36.04-8.69-54.11-.51-3.44-2.5-7.83,2.6-10.05Z" style="fill: #b73f21; stroke-width: 0px;"/>
  <path d="M430.91,236.94c-6.76.22-13.09-1.44-19.15-4.33-2.33-1.11-2.86-2.59-1.93-5.1,2.34-6.29,12.11-11.7,18.93-11.04,6.04.58,12.17.17,18.27.22,1.45.01,3.07-.4,3.96,1.32-3.53,3.69-8.06,6.12-11.88,9.46-3.18,2.79-6.14,5.73-8.21,9.47Z" style="fill: #785ae4; stroke-width: 0px;"/>
  <path d="M400.13,466.8c-1.16-3.22-3.86-3.22-6.38-2.59-3.47.88-6.3.4-8.74-2.31-1.32-1.47-3.13-1.91-5.08-1.77,4.77-2.65,9.85-4.62,14.94-6.54,1.36-.52,2.92-.14,4.42.1,3.4.56,6.76,1.13,10.14-.63,2.5-1.3,7.66,1.66,8,4.23-5.16,4.27-10.32,8.54-17.29,9.51Z" style="fill: #8669de; stroke-width: 0px;"/>
  <path d="M135.91,7.04c2.28-5.31,6-7.44,12.13-6.98,4.3.33,8.99,3.96,10,7.74,1.57,5.85-.21,10.6-5.18,13.85-1.87-2.47-4.93-3.1-7.36-4.72-3.95-2.63-7.28-5.74-9.59-9.9Z" style="fill: #e9ce72; stroke-width: 0px;"/>
  <path d="M452.48,481.71c2.34-3.96,6.7-6.22,10.85-5.6,5.84.86,9.57,4.13,10.72,9.93.86,4.35-.47,8.07-4.29,10.66-4.18-2.57-8.27-5.29-12.65-7.52-1.81-.92-3.03-2.1-3.17-4.17-.08-1.29-.55-2.39-1.46-3.3Z" style="fill: #e9cf77; stroke-width: 0px;"/>
  <path d="M241.27,486.48c.22-1.39.76-1.24,1.64-.43,4.85,4.49,11.06,5.45,17.2,6.25,15.54,2.04,31.23,1.56,46.84,2.34,2.84.14,5.63.93,8.51.74.87-.06,1.37.46,1.49,1.33-4.86,1.37-9.85,1.58-14.83,1.45-14.95-.39-29.94-.04-44.74-2.77-3.56-.66-7.07-1.53-10.37-3.03-2.63-1.2-5.13-2.65-5.75-5.88Z" style="fill: #6a49d2; stroke-width: 0px;"/>
  <path d="M107.98,321.59c1.84-1.82,3.14.41,4.69.67,3.97.66,7.84.17,11.68-.73,7.43-1.74,14.45-.47,21.23,2.73,3.11,1.47,4.7,5.22,3.62,8.54-2.93-3.11-6.57-3.87-10.74-3.77-6.6.15-13.21.06-19.78-.71-4.58-.54-8.71-1.96-10.69-6.72Z" style="fill: #6039c9; stroke-width: 0px;"/>
  <path d="M543.24,182.97c4.15,6.24,6.7,13.26,9.58,20.1,4.94,11.76,9.28,23.74,12.78,36.02.34,1.18.6,2.4,1.92,3.39.82-1.37.22-2.53-.07-3.78-.33-1.43-.09-2.64,1.9-1.78,2.4,9.87,4.65,19.78,5.37,29.95-1.03,1.74-1.75,3.54-.63,5.51.86,1.52.07,2.57-1.27,4.12-1.4-5.54-2.89-10.66-3.99-15.87-4.58-21.7-10.96-42.82-19.45-63.32-1.99-4.81-5.18-9.1-6.13-14.35Z" style="fill: #e69b6a; stroke-width: 0px;"/>
  <path d="M150.02,185.25c2.7.54,3.99,2.89,5.64,4.64,4.62,4.86,9.22,9.77,13.44,14.97,3.96,4.88,6.96,10.29,5.61,17.06-.25,1.23-.22,2.47-1.47,3.46-1.71-1.29.09-3.72-1.53-4.96-1.71-7.76-7.44-12.74-12.62-18.07-2.52-2.59-5.13-5.06-7.28-7.99-2.04-2.77-2.9-5.74-1.78-9.11Z" style="fill: #6f49d8; stroke-width: 0px;"/>
  <path d="M378.51,520.82c1.84-.7,1.49.71,1.38,1.57-1.56,12.6,10.58,25.3,22.55,26.55,3.59.38,6.72-1.13,10.02-2.02,1.8-.48,3.45-2.22,5.54-.82-7.47,7.22-19.45,8.43-28.69,2.89-9.65-5.78-13.95-17.02-10.8-28.17Z" style="fill: #c68e2a; stroke-width: 0px;"/>
  <path d="M63.23,43.72c1.71.26,1.38,1.58,1.2,2.6-1.48,8.59,5.74,18.54,11.97,22.33,6.83,4.15,13.88,5.57,21.36,1.55,1.04-.56,2.36-.59,3.56-.87.41.94-.65,1.22-.79,1.9-8.53,6.35-17.49,6.46-26.59,1.51-8.32-4.53-13.05-14.37-11.83-24.04.21-1.68-.22-3.54,1.12-4.97Z" style="fill: #c68c2c; stroke-width: 0px;"/>
  <path d="M452.48,481.71c2.39-.44,2.17,1.4,2.31,2.77.12,1.24-.06,2.86,1.32,3.16,4.01.86,6.31,4.63,10.19,5.68,1.62.44,3.29,1.24,3.45,3.37-4.63,4.11-10.62,4.25-15.13.36-4.78-4.12-5.58-9.84-2.15-15.35Z" style="fill: #ce9836; stroke-width: 0px;"/>
  <path d="M345.35,565.84c-2.99,2.24-5,.73-7.1-1.58-3.75-4.12-7.58-8.19-13.05-10.16-1.08-.39-2.82-.98-2.32-2.37.51-1.45,2.29-1.81,3.84-1.5,3.25.64,6.61.91,9.35,3.18.6.49,1.47,1.58,2.55.51,4.26,2.84,5.76,7.24,6.74,11.93Z" style="fill: #ecaf86; stroke-width: 0px;"/>
  <path d="M110.88,48.21c-.75.64-1.55,1.23-2.25,1.92-1.26,1.23-2.16.9-2.88-.54-.62-1.22-1.35-2.39-1.81-3.67-2.49-6.88-7.6-10.76-14.38-12.81-1.03-.31-2.17-.54-2.73-1.68,4.1-2.48,10.15-1.24,14.44,2.8,1.56,1.47,2.67,3.76,5.41,3.41,2.8,2.97,3.55,6.75,4.2,10.57Z" style="fill: #efdd94; stroke-width: 0px;"/>
  <path d="M388.81,166.4c1.48.75,1.96,1.83,1.09,3.35-4.83,8.44-11.11,15.41-20.02,19.69-1.09.52-2.35.74-3.56.97-.6.11-1.28-.13-1.55-.77-.31-.73.29-1.14.74-1.52,2.06-1.76,4.15-3.48,6.22-5.22,4.12-1.41,6.02-5.27,8.88-8.07,2.8-2.74,4.66-6.4,8.2-8.42Z" style="fill: #a17dea; stroke-width: 0px;"/>
  <path d="M135.91,7.04c1.12-.18,1.91.19,2.35,1.29,2.17,5.39,7.08,7.59,11.86,9.76,1.78.81,2.38,1.96,2.74,3.56-10,4.1-18.66-1.23-17.88-11.06.1-1.2.61-2.37.92-3.56Z" style="fill: #c58726; stroke-width: 0px;"/>
  <path d="M581.31,419.02c-9.8-3.61-18.33-9.68-27.59-14.33-1.95-.98-.92-2.08.28-2.63,1.9-.88,4.13-1.89,6.04-.73,1.93,1.17,1.83-.52,2.53-1.16-.53,4.27,1.96,6.71,5.25,8.63,3.33,1.94,6.77,3.7,10.01,5.79,1.57,1.02,3.53,2.02,3.49,4.44Z" style="fill: #ebaf87; stroke-width: 0px;"/>
  <path d="M158.93,68.37c-1.8.31-.75,1.03-.23,1.65.58.68,1.27,1.38.62,2.29-.59.82-1.6.6-2.43.52-2.11-.21-3.69-1.53-5.01-2.98-2.5-2.75-4.66-5.81-7.21-8.51-1.72-1.82-1.36-2.96.53-4.09.59-.35.92-.81.9-1.5,2.79,1.31,4.61,3.74,6.38,6.05,1.9,2.49,4.11,4.57,6.46,6.57Z" style="fill: #f1e2a5; stroke-width: 0px;"/>
  <path d="M472.81,543.91c.19.58.29,1.21.59,1.73.58,1.01,2.35,1.85,1.24,3.1-1.14,1.27-2.8.47-4.14-.25-5.03-2.7-7.6-7.74-11.05-11.91-1.88-2.28,2.25-2.51,2.06-4.43,2.34.53,3.69,2.34,5.09,4.04,2.11,2.55,4.15,5.15,6.22,7.72Z" style="fill: #f1e1a4; stroke-width: 0px;"/>
  <path d="M501.31,586.76c-.16-.77-.46-1.33-1.37-1.51-5.88-1.17-8.1-6.08-10.54-10.63-1.41-2.64-1.27-5.06,2.26-6.1.52-.15.88-.84,1.31-1.28-.09,4.78,3.4,7.73,5.68,11.33,1.55,2.45,4.33,4.64,2.65,8.19Z" style="fill: #f1e1a6; stroke-width: 0px;"/>
  <path d="M147.02,111.31c-.81-1.87.91-2.36,1.86-3,5.74-3.92,9.75-3.03,15.16,3.87,3.02,3.85,5.91,7.5,11.29,7.71-5.07,3.05-6.63,2.88-10.55-1.4-1.42-1.55-2.63-3.28-3.94-4.93-4.68-5.89-7.24-6.3-13.82-2.24Z" style="fill: #c88f2e; stroke-width: 0px;"/>
  <path d="M185.81,108.14c-2.08.94-3.98.2-5.47-1.08-3.53-3.03-5.97-6.86-7.08-11.4-.33-1.34-.05-3.39,1.59-3.09,2.59.48,1.68-1.9,2.74-2.52-.65,4.75,2.56,7.81,4.94,11.22,1.48,2.12,3.23,4.08,3.29,6.87Z" style="fill: #f1e2a8; stroke-width: 0px;"/>
  <path d="M463.92,586.88c.49-3.64,3.69-3.6,6.16-4.31,2.87-.83,5.03.87,6.82,2.82,1.75,1.91,3.34,3.98,4.81,6.11,2.2,3.19,5.34,4.46,9,4.86-4.26,2.84-6.6,2.62-10.02-1.18-1.91-2.12-3.55-4.47-5.47-6.58-4.02-4.42-5.92-4.66-11.3-1.72Z" style="fill: #c7902d; stroke-width: 0px;"/>
  <path d="M190.33,75.15c-5.32.19-7.56-4.04-10.5-7.29-2.31-2.55-3.84-5.05-.06-7.61,5.02,3.91,9.54,8.16,10.56,14.9Z" style="fill: #f1e2a5; stroke-width: 0px;"/>
  <path d="M505.82,553.06c-.25-.6.27-1.65-.82-1.76-6.43-.62-8.74-6.3-12.05-10.39-1.82-2.25,1.67-2.73,3.2-3.61,4.57,3.4,7.82,7.83,10.06,13.03.4.94.5,1.94-.39,2.74Z" style="fill: #f1e1a5; stroke-width: 0px;"/>
  <path d="M123.96,100.63c2.76,3.19,5.63,6.28,8.25,9.58,2.66,3.36,5.78,5.3,10.21,4.45-6.38,3.87-8.18,3.67-12.83-2.46-2.6-3.43-6.41-6.43-5.62-11.57Z" style="fill: #c9922d; stroke-width: 0px;"/>
  <path d="M439.7,580.1c.14-2.32.99-2.12,2.22-.63,2.43,2.93,4.93,5.81,7.3,8.79,2.43,3.05,5.19,4,8.68,1.83.45-.28.94-.2,1.33.21-1.26.74-2.61,1.35-3.75,2.24-2.39,1.85-4.8,1.58-6.8-.23-3.81-3.43-7.04-7.36-8.98-12.21Z" style="fill: #c7912d; stroke-width: 0px;"/>
  <path d="M128.99,66.86c3.24,3.73,6.74,7.26,9.06,11.71,1.37,2.64,2.19,5.31.47,8.1-.67,1.08-1.09.58-1.33-.34.31-4.45-2.89-7.2-5.01-10.49-1.75-2.72-4.63-5.1-3.18-8.98Z" style="fill: #ca952f; stroke-width: 0px;"/>
  <path d="M75.67,138.08c-1.32,1.05.07,2.96-1.46,4.23-2.15-2.4-2.73-5.79-5.22-7.92-.9-.77.34-1.5.97-1.99.72-.56,2.07-.35,2.06-1.76,3.05,1.58,3.48,4.45,3.65,7.45Z" style="fill: #e49662; stroke-width: 0px;"/>
  <path d="M80.23,165.76c-1.52.76-1.64,2.01-1.21,3.46.23.78.14,1.64-.63,1.89-.83.27-1.26-.62-1.57-1.24-1.25-2.48-2-11.37-1.27-14.8,3.33,2.36.2,6.93,3.44,9.4.87-.69.34-1.77.62-2.58.86,1.19.71,2.53.62,3.87Z" style="fill: #e49662; stroke-width: 0px;"/>
  <path d="M305.11,18.09c-10.05,0-20.1,0-30.16,0,7.84-1.33,15.74-.53,23.61-.6,2.18-.02,4.45-.46,6.55.6Z" style="fill: #e79a64; stroke-width: 0px;"/>
  <path d="M47.19,301.3c-.81-.47-1.34-1.14-1.33-2.1.05-4.77-.39-9.59,1.32-14.28.08,1.53.17,3.05.25,4.58-.08,3.93-.16,7.87-.24,11.8Z" style="fill: #d86c2f; stroke-width: 0px;"/>
  <path d="M47.43,318.4c-.09,1.32-.18,2.64-.28,3.96-1.09-4.53-2.7-9.05.03-13.5.08,3.18.16,6.36.24,9.54Z" style="fill: #d86c2f; stroke-width: 0px;"/>
  <path d="M576.8,312.84c.08-5.67.15-11.35.23-17.02.87,6.11.96,12.23-.02,18.34-.52-.37-.45-.83-.21-1.32Z" style="fill: #e69b6a; stroke-width: 0px;"/>
  <path d="M576.8,312.84c.07.44.14.88.21,1.32-.04,1.71-.09,3.41-.13,5.12-2.15-2.12-1.52-4.27-.08-6.43Z" style="fill: #da7034; stroke-width: 0px;"/>
  <path d="M484.85,329.14c-.16-1.32-.21-2.67-.52-3.96-.27-1.16-.2-1.93,1.13-2.14,0,2.05.55,4.16-.61,6.1Z" style="fill: #b798f3; stroke-width: 0px;"/>
  <path d="M550.04,182.96c-1.33-1.75-2.93-3.39-2.46-5.9,1.04,1.87,2.38,3.62,2.46,5.9Z" style="fill: #ebb08b; stroke-width: 0px;"/>
  <path d="M161.27,368.02c1.11,2.47,1.06,4.95.05,7.44-.02-2.48-.04-4.96-.05-7.44Z" style="fill: #8a68e0; stroke-width: 0px;"/>
  <path d="M87.06,218.92c0-2.27.02-4.53.03-6.8.91,2.27,1.16,4.54-.03,6.8Z" style="fill: #dd7d49; stroke-width: 0px;"/>
  <path d="M3.87,292.33h-.3s-.3,0-.3,0c-.12-2.35-.36-4.7.48-6.99.08.65.17,1.29.25,1.94.29,1.69.52,3.38-.14,5.05Z" style="fill: #d86c2f; stroke-width: 0px;"/>
  <path d="M576.85,287.07c-1.31-1.95-.42-4.11-.59-6.17.95,1.98.58,4.09.59,6.17Z" style="fill: #e69b6a; stroke-width: 0px;"/>
  <path d="M315.59,18.85c-1.81.08-3.66.6-5.34-.56,1.81-.12,3.64-.38,5.34.56Z" style="fill: #e79a64; stroke-width: 0px;"/>
  <path d="M3.85,317.06c-.03,1.79-.07,3.58-.1,5.37-.81-1.73-.58-3.55-.47-5.36.19,0,.38-.01.57-.01Z" style="fill: #d86c2f; stroke-width: 0px;"/>
  <path d="M134.84,404.51c.01,1.86.02,3.73.03,5.59-1-1.86-.98-3.72-.03-5.59Z" style="fill: #a380ec; stroke-width: 0px;"/>
  <path d="M4.02,327.6c1.07,1.41.63,2.98.51,4.52-.75-1.44-.67-2.98-.51-4.52Z" style="fill: #d86c2f; stroke-width: 0px;"/>
  <path d="M551.54,185.95c-1.48-.52-1.65-1.71-1.53-3.03.95.79,1.46,1.8,1.53,3.03Z" style="fill: #ebb08b; stroke-width: 0px;"/>
  <path d="M494.57,536.52c-1.26.01-2.52.02-3.77.03,1.25-1.04,2.51-1.11,3.77-.03Z" style="fill: #f1e1a5; stroke-width: 0px;"/>
  <path d="M5.43,341.08c1.16,1.15.7,2.53.53,3.87-.73-1.21-.64-2.54-.53-3.87Z" style="fill: #d86c2f; stroke-width: 0px;"/>
  <path d="M4.52,275.63c.03,1.33.53,2.71-.47,3.91-.16-1.34-.18-2.67.47-3.91Z" style="fill: #d86c2f; stroke-width: 0px;"/>
  <path d="M4.76,335.08c1.06,1.17.66,2.52.49,3.84-.78-1.2-.56-2.53-.49-3.84Z" style="fill: #d86c2f; stroke-width: 0px;"/>
  <path d="M5.28,267.44c.02,1.31.51,2.68-.48,3.87-.16-1.33-.16-2.64.48-3.87Z" style="fill: #d86c2f; stroke-width: 0px;"/>
  <path d="M6.01,261.38c0,1.35.59,2.78-.57,3.96-.1-1.36-.13-2.71.57-3.96Z" style="fill: #d86c2f; stroke-width: 0px;"/>
  <path d="M19.03,203.27c.83,1.24.91,2.45-.1,3.64.03-1.21.07-2.43.1-3.64Z" style="fill: #d86c2f; stroke-width: 0px;"/>
  <path d="M170.72,360.62c-5.55-3.54-7.97-9.13-9.35-15.13-2.67-11.61-2.64-23.45-2.23-35.28.62-6.22-.32-12.47.48-18.69.07-1.5.14-3,.22-4.5.64-1.71-.22-3.57.54-5.26-.03-.96-.05-1.92-.08-2.88.81-1.93.49-4.19,1.72-6,1.34-.7,1.79.23,2.14,1.21.38,1.07.37,2.21.35,3.33-.27,14.83.34,29.65.76,44.47.1,3.76.71,7.44,1.65,11.07.27,1.06.55,2.39,1.84,2.58,1.44.21,2.14-1.05,2.83-2.09.69-1.05.99-2.28,1.39-3.46.73-2.14,1.69-4.16,3.09-5.94.47-.6,1.13-1.15,1.89-1.04,1.03.15,1.27,1.13,1.36,2,.28,2.73.06,5.48.15,8.22.05,1.47-.34,3.01.67,4.33,1.92,2.03,4.58,2.59,7.07,3.14,11.54,2.56,22.95,3.65,32.96-4.71.28-.24.67-.32,1.03-.41.38-.03.85.03.99.34,1.53,3.31,2.91,2.26,4.55.01.8-1.11,1.91-3.18,3.44-.46.28.97.33,1.97.37,2.96.08,1.99,1.15,2.9,3.08,2.92,11.92.1,23.83.08,35.75.01,2.23-.01,3.04-1.22,3.04-3.31,0-2.23-.02-4.47.03-6.7-.15-2.15.92-4.46-.88-6.38-.46-.33-.91-.67-1.25-1.13-.29-2.58,1.07-3.09,3.13-2.3,1.49.57,2.87,1.42,4.12,2.46.44.39.82.84,1.14,1.33,9.47,17.78,32.76,22.96,48.21,10.71,7.21-5.54,10.33-13.28,11.81-21.92.23-1.33.58-2.65.87-3.98.51-1.43.26-2.98.63-4.43.16-.61.38-1.34,1.09-1.34.9-.01,1.15.85,1.35,1.54,1.22,4.09,1.98,8.21,1.26,12.52-1.38,8.26-4.3,15.81-9.55,22.44-3.17,4.01-2.54,5.3,2.66,5.94,3.67.45,6.97,1.79,10.05,3.76,3.04,1.95,6.03,3.95,9.61,4.9,1.75.47,3.4,1.29,2.44,3.69-2.65,3.37-6.73,3.61-10.41,4.53-3.25.82-6.64,1.07-10.03,1.04-6.61-.06-13.23.09-19.84-.04-24.83-.49-49.64.65-74.46.98-11.71.15-23.45.79-35.14.41-11.03-.36-22.22.18-33-3.22-1.92-.6-3.7-1.45-5.54-2.2Z" style="fill: #b73a11; stroke-width: 0px;"/>
  <path d="M390.41,347.78c-5.05,11.21-9.94,22.51-17.04,32.66-1.63,2.33-3.45,3.58-6.48,4.26-7.83,1.76-15.98,1.1-23.67,3.52-.23-.9.36-1.44.98-1.83,9.76-6.14,16.47-15.46,24.53-23.37.18-.17.31-.4.5-.55,10.83-8.52,12.09-20.59,12.97-33.16.69-9.95.36-19.83.25-29.74-.08-6.86-1.2-13.6-2.61-20.3-.29-1.37-.97-2.55-2.01-3.51-1.47-3.58-3.59-6.98-3.24-11.09,2.02-.29,3.27,1.04,4.59,2.2,5.88,6.96,10.85,14.41,13.63,23.23,2.63,8.35,4.27,16.9,4.92,25.55.47,6.32.08,12.8-.83,19.08-.47,3.2-2.81,6.18-4.53,9.12-.75,1.28-1.79,2.37-1.96,3.93Z" style="fill: #8053dd; stroke-width: 0px;"/>
  <path d="M165.61,264.61c2.05-4.22,5.69-6.52,9.86-8.2,8.67-2.5,17.6-3.27,26.53-3.3,11.97-.05,23.93-.2,35.9-.1,9.73.08,19.47.12,29.2-.02,5.47-.08,10.93-1.1,16.41-.61,15.32,1.36,30.66.29,45.98.68,3.1.81,6.24.14,9.37.27.42.05.83.14,1.24.24,3.4.68,6.91.06,10.3,1.04,1.82.52,3.56,1.02,4.92,2.41,1.07,1.26,1.58,2.62.32,4.02-1.67,1.84-3.72,3.08-6.29,2.6-3.8-.7-7.57-1.53-11.43-2-1.74-.21-3.46-.38-5.21-.38-43.32,0-86.64-.14-129.96.14-6.91.05-13.94,0-20.82,1.34-2.09.41-4.13,1-5.95,2.1-2.43,1.47-3.8,3.63-3.33,6.57.48,3.01,2.65,5.03,5.77,5.5,1.11.17,2.25.15,3.29.64,2.36,2.84.15,5.02-1.06,7.34-2.3.04-3.77,1.74-5.55,2.82-3.08,1.86-4.31,1.42-5.65-1.92-2.79-6.94-3.58-13.97-.88-21.06-1.11-.81-2.03.59-2.96-.1Z" style="fill: #da753f; stroke-width: 0px;"/>
  <path d="M165.61,264.61c.69-.52,1.38-1.03,2.06-1.56.62-.48,1.33-.87,2.01-.29.69.59.33,1.35.02,2.04-3.36,7.36-1.67,14.5.9,21.62.71,1.96,1.82,2.13,3.37.95,1.28-.97,2.53-2,3.86-2.89.75-.5,1.77-1.39,2.15.42,1.27,1.35.97,3.05.91,4.62-.32,9.45,4.53,15.74,12.27,20.28,2.91,1.71,6.16,2.71,9.16,4.24,1.33.68,2.69,1.32,3.86,2.26,2.07,1.66,2.75,3.82,2.17,6.34-.58,2.51-2.68,3.14-4.83,3.45-4.3.61-8.44-.29-12.48-1.71-2.71-.95-5.28-2.24-7.95-3.28-1.08-.42-2.46-1.28-2.86.86-.08,4.2.02,8.38-.04,12.56-.02,1.45.24,2.99-.93,4.19-1.88-2.46-.57-5.27-.83-7.91-.23-2.32-.05-4.69-.05-7.93-2.46,2.67-3.8,5.03-4.45,7.73-.53,2.24-1.45,4.13-3.16,5.76-2.22,2.12-3.51,1.28-4.37-1.1-1.31-3.63-2.08-7.45-2.18-11.27-.43-15.8-1.16-31.59-.85-47.41.03-1.3.87-3.15-1.37-3.72.69-2.97,1.42-5.93,3.59-8.27Z" style="fill: #c85424; stroke-width: 0px;"/>
  <path d="M231.52,250.31c11.48-10.93,25.05-17.2,40.87-18.83,20.02-2.05,37.25,4.14,52.27,17.16.83.72,1.49,1.65,2.22,2.49-1.29,1.36-2.99.97-4.57,1.06-3.96.22-7.96-.46-11.89.5-3.39.46-6.78.45-10.17.06-5.84-.78-10.91-4-16.75-5-9.23-1.59-18.09-.48-26.92,2.11-1.96.57-3.43,1.99-5.26,2.79-5.47.74-10.96.3-16.43.27-1.59,0-3.36-.31-3.37-2.6Z" style="fill: #e9ce76; stroke-width: 0px;"/>
  <path d="M354.48,257.14c-3.25-1.75-6.77-2.17-10.39-2.29-1.55-.05-3.25.6-4.62-.71,4.18-2.31,8.55-.8,12.76-.34,5.69.62,11.19,2.28,16.36,4.85,2.64,1.36,3.94,4.07,6,6.02,1.27,3.48,2.54,6.97,3.81,10.45,2.18,5.7,3.27,11.54,2.13,17.65-3.67,5.98-3.75,12.98-5.49,19.51-.25.94-.16,1.98-.56,2.9-1.02,2.35-2.45,2.62-4.82.95-1.51-5.25.21-10.58-.44-15.91-.54-4.39-.35-8.92.19-13.38.34-2.79-.55-5.4-1.36-8.01-.93-3.11.6-6.27-.36-9.47-.89-2.96-2.17-5.16-5.42-5.69-2.37-2.44-4.9-4.7-7.78-6.54Z" style="fill: #d7767f; stroke-width: 0px;"/>
  <path d="M368.59,258.66c-4.57-.51-8.71-2.58-13.22-3.47-5.31-1.05-10.58-1.01-15.9-1.04,0,0,0,0,0,0-2.98-.83-5.97-.09-8.96-.04-13.47,0-26.94,0-40.41.01-24.51.01-49.02-.09-73.53.18-3.45.04-6.88-.09-10.32-.16-10.34-.23-20.57.87-30.78,2.28,5.18-2.72,10.92-3.1,16.55-3.7,11.55-1.24,23.15-.74,34.74-.78,1.86,0,3.42-.37,4.76-1.62.8,1.73,2.37,1.51,3.85,1.52,5.45.02,10.91.04,16.36.06,1.77-1.09,3.74-1.23,5.75-1.23,10.95,0,21.89,0,32.84,0,3.23,0,6.34,1,9.54,1.19,3.44,0,6.88,0,10.32,0,5.82-.56,11.63-.52,17.45-.02,11.24.06,22.52-.44,33.48,3.03,2.74.87,5.28,1.93,7.47,3.79Z" style="fill: #d26c82; stroke-width: 0px;"/>
  <path d="M327.64,251.84c-5.82,0-11.63.01-17.45.02,5.51-1.44,11.13-.27,16.68-.73.26.24.51.47.77.71Z" style="fill: #d7767f; stroke-width: 0px;"/>
  <path d="M227.12,541.77c7.64,1.6,15.24,3.43,22.94,4.74,11.11,1.89,22.27,3.44,33.53,4.33,4.46.35,8.82,1.65,13.4,1.71-2.8,1-5.75.8-8.54,1.06-11.99,1.12-23.93.65-35.94-1.05-14.53-2.06-28.88-4.67-42.84-9.21-10.29-3.35-20.33-7.33-30.19-11.84-16.95-7.75-32.82-17.41-47.16-29.14-13.64-11.16-26.57-23.2-37.45-37.35-7.82-10.17-15.67-20.29-21.92-31.45-8.93-15.95-16.87-32.36-22.08-50.07-3.44-11.69-6-23.53-8.42-35.41-1.33-6.51-1.55-13.3-1.8-19.98-.29-7.85-.05-15.72-.08-23.59,0-2.02.32-3.9,2.11-5.66,2.62,24.01,4.96,48.04,11.37,71.39q-1.99-1.25-2.87-3.99c2.74,16.31,8.62,32.62,16.15,48.28,9.16,19.05,20.41,36.83,34.45,52.76,7.1,8.06,14.71,15.58,22.6,22.85.7.51,1.33,1.11,1.94,1.72,1.51,1.51,2.88,3.18,4.74,4.3.29.17.55.37.81.58,1.95,1.55,3.87,3.14,5.88,4.61.29.18.55.38.81.6,2.27,2.29,5.04,3.89,7.74,5.58.31.18.59.39.88.61,13.93,9.97,28.86,18.08,44.72,24.53,8.89,3.62,17.94,6.69,27.19,9.22,2.28.62,4.66.81,6.98,1.23,1.43.26.67-.92,1.03-1.35Z" style="fill: #e79b67; stroke-width: 0px;"/>
  <path d="M125.98,492.36c-.5-.5-1-1-1.51-1.49-7.5-7.13-14.89-14.34-21.81-22.06-8.25-9.22-15.46-19.16-21.99-29.61-5.81-9.3-11.18-18.85-15.23-29.08-.46-1.16-1.09-2.31-.69-3.6.42-1.37,1.14-1.57,2.01-.29,13.6,27.29,30.41,52.31,52.42,73.58,13.64,13.18,28.53,24.77,44.76,34.71,7.86,4.82,15.9,9.19,24.08,13.36,1.22.62,2.4,1.34,3.84,1.31.86.35,1.17.97.63,1.74-.74,1.07-1.83,1.15-3,.79-3.21-.99-6.32-2.29-9.3-3.77-11.79-5.82-23.25-12.23-33.99-19.86h0c-2.69-2.08-5.68-3.74-8.24-6h0c-2.19-1.83-4.37-3.66-6.74-5.25h0c-2-1.2-3.25-3.28-5.26-4.48Z" style="fill: #f0be97; stroke-width: 0px;"/>
  <path d="M66.77,406.22c-2.77-.49-1.34,1.38-1.06,2.17,2.69,7.52,6.26,14.62,10.19,21.55,6.75,11.9,14.32,23.23,23.01,33.81,6.96,8.48,14.9,16.02,22.6,23.79,1.04,1.05,1.97,2.22,2.96,3.33-.57-.22-1.29-.28-1.69-.67-6.47-6.41-13.22-12.58-19.27-19.36-8.69-9.73-16.57-20.14-23.42-31.27-8.68-14.12-16.05-28.87-21.92-44.41-3.66-9.7-5.78-19.76-8.35-29.73-.24-.92-.56-1.89.25-2.94,2.48,2.06,1.72,5.72,3.98,7.77,1.05,6.21,3.52,11.97,5.61,17.84,2.17,6.11,4.72,12.09,7.1,18.12Z" style="fill: #eaa471; stroke-width: 0px;"/>
  <path d="M146.21,508.08c3.27.72,5.55,3.16,8.23,4.87,10.59,6.71,21.53,12.73,33.21,17.33,3.67,1.45,3.89,1.38,4.22-1.1,4.73,1.83,9.41,3.76,14.19,5.45,6.99,2.47,14.04,4.77,21.06,7.14.27.65.94,1.73.76,1.89-.89.81-2.15.53-3.16.3-7.24-1.63-14.51-3.22-21.46-5.88-9.27-3.55-18.62-6.95-27.46-11.52-9.83-5.09-19.38-10.67-28.47-17.02-.48-.34-.76-.96-1.13-1.46Z" style="fill: #eaa471; stroke-width: 0px;"/>
  <path d="M2.4,186.69c-.29-2.1.73-3.31,2.37-4.62,15.47-12.22,30.83-24.58,46.24-36.86,4.26-3.4,8.61-6.7,12.95-10,.72-.54,1.41-2.05,2.37-1.16,1.16,1.07-.17,2.05-.95,2.73-3.93,3.42-7.96,6.72-11.87,10.16-5.68,5-11.72,9.55-17.43,14.52-6.61,5.76-13.84,10.8-20.76,16.21-2.63,2.06-5.18,4.23-7.68,6.46-1.4,1.24-2.63,2.66-4.47,3.29-.26-.24-.52-.49-.78-.73Z" style="fill: #e49662; stroke-width: 0px;"/>
  <path d="M3.87,292.33c.05-1.68.09-3.37.14-5.05.91,1.71,1,3.4-.14,5.05Z" style="fill: #b13a15; stroke-width: 0px;"/>
  <path d="M186.37,417.92c.46,2.23.79,3.55,1.01,4.89.93,5.69-2.83,9.64-5.51,13.83-1.55,2.42-3.3,4.92-6.02,6.52-2.9,1.71-5.47,1.78-8.31-.04-9.11-5.84-15.56-14.1-21.16-23.13-2.09-3.38-3.9-6.93-5.97-10.33-1.26-2.07-.75-3.71.65-5.42,4.94-6,11.37-9.97,18.18-13.41.83-.42,1.94-.3,2.92-.38.91-.08,2.02-.82,2.57.58.39,1.01.33,2.19-.57,2.73-3.33,2.01-3.27,6.29-6.09,8.75-1.25,1.09-1.42,3.35-.2,5.17,1.29,1.92,2.7,1.11,4.21.4.39-.18,1.04-.16,1.41.05,3.83,2.18,8.76-.05,12.34,3.08,5.25-2.04,6.6,4.36,10.71,4.99,1.44.22-.17,1.7-.17,1.71Z" style="fill: #a380ec; stroke-width: 0px;"/>
  <path d="M372.43,460.13c-1.84,0-3.04-1.44-3.91-2.54-3.43-4.3-6.7-8.76-8.8-13.92,2.14,1.41,3.19,3.77,4.43,5.78,2.39,3.89,5.13,7.43,8.29,10.68Z" style="fill: #8669de; stroke-width: 0px;"/>
  <path d="M359.7,443.65c-2.04-1.73-4.44-3.15-5.23-5.97,2.03,1.74,4.44,3.15,5.23,5.97Z" style="fill: #8669de; stroke-width: 0px;"/>
  <path d="M377.68,460.9c-2.01,1.61-3.57.11-5.23-.75,1.74.25,3.49.5,5.23.75Z" style="fill: #8669de; stroke-width: 0px;"/>
  <path d="M350.71,434.66c-1.71-.3-3.23-.99-4.48-2.23,1.85.02,3.47.51,4.48,2.23Z" style="fill: #8669de; stroke-width: 0px;"/>
  <path d="M354.45,437.66c-1.89-.18-2.81-1.59-3.72-2.99,1.89.19,2.8,1.6,3.72,2.99Z" style="fill: #8669de; stroke-width: 0px;"/>
  <path d="M346.21,432.42c-1.49,0-2.98,0-4.48,0,1.49-1.11,2.99-1.11,4.48,0Z" style="fill: #8669de; stroke-width: 0px;"/>
  <path d="M340.96,432.43c-1.05,1.23-2.46.58-3.72.73,1.05-1.23,2.47-.56,3.72-.73Z" style="fill: #8669de; stroke-width: 0px;"/>
  <path d="M396.04,371.11c.01-2.36,1.3-4.05,2.56-6.43,1.77,3.8-.64,5.03-2.56,6.43Z" style="fill: #aa8aee; stroke-width: 0px;"/>
  <path d="M323.79,168.13c-.12,2.24.23,4.37-1.88,4.92-1.96.51-3.51-.82-4.66-2.4-2.22-3.06-3.36-6.32-1.68-10.04.45-.98,1.24-2.06,2.17-1.03,2.45,2.7,6.75,4.28,6.05,8.56Z" style="fill: #c5b5f4; stroke-width: 0px;"/>
  <path d="M396.42,246.93c.03-1.11.24-2.41,1.48-3.03,1.35-.67,2.33.25,3.27,1.14,3.06,2.87,4.76,6.24,6.02,10.39,2.15,7.1,3.64,14.56,7.55,21.01,1.98,3.27.57,6.32.05,9.37-.33,1.95-3.39,1.82-5.24-.2-2.4-2.62-3.85-5.8-4.95-9.13-3.17-9.66-6.99-19.15-8.18-29.54Z" style="fill: #cabbf5; stroke-width: 0px;"/>
  <path d="M417.39,294.12c8.95,1.25,17.46.29,25.97.47,1.9.04,4.4-.11,4.31,2.3-.08,2.18-2.56,3.19-4.57,2.86-6.98-1.15-14.15-.22-21.05-2.12-1.85-.51-3.56-.96-4.66-3.5Z" style="fill: #cabbf5; stroke-width: 0px;"/>
  <path d="M460.12,293.6c-.52,5.26-2.83,9.45-4.6,13.81-.38.94-1.03,1.39-1.95.35-1.68-1.88-2.86-13.31-1.42-15.15,1.37-1.76,3.06-2.99,5.47-2.2,1.73.57,2.75,1.68,2.5,3.19Z" style="fill: #cabbf5; stroke-width: 0px;"/>
  <path d="M443.87,289.39c-4.7,1.25-9.37,2.21-14.16.78-1.09-.33-2.41-.36-2.38-1.8.04-1.73,1.61-1.37,2.55-1.23,4.66.72,9.48.36,13.99,2.25Z" style="fill: #aa8aee; stroke-width: 0px;"/>
  <path d="M379.83,293.1c.73-6.09-1.13-11.97-1.43-17.97,1.98.94,2.4,2.96,2.65,4.7,1.01,7.06,2.23,14.06,2.38,21.29.12,6.02,1.1,12.4.53,18.15-.89,8.91-.47,17.98-2.9,26.86-1.95,7.16-6.01,12.21-11.05,17.06-6.96,6.7-12.81,14.52-20.44,20.54-2.04,1.61-4.23,3.01-6.35,4.51-7.5,2.73-15.27,4.37-23.22,4.42-7.29.04-14.66-.24-21.85.35-8.05.66-16-.43-24.06.19-13.07,1-26.29.71-39.41.12-7.02-.31-14.26.32-21.09-1.57-8.61-2.39-16.04-6.98-21.47-14.34-2.58-3.49-5.06-7.06-6.92-11.01.77-.6,1.59-.55,2.43-.18,3.83,4.73,7.44,9.6,12.25,13.5,6.02,4.88,13.09,6.66,20.43,7.39,15.04,1.49,30.16.9,45.24.78,9.82-.07,19.65-.39,29.47-.39,7.2,0,14.4-.56,21.65-.01,6.15.47,12.43-.52,18.61-1.34,1.87-.25,3.54-1.23,5.13-2.22,7.55-4.71,14.58-10.06,20.49-16.77,1.08-1.23,1.96-2.58,2.59-4.09.94-1.68,2.82-2.2,4.15-3.4,5.86-4.71,8.69-11.01,9.85-18.3.97-6.04,1.35-12.11,1.72-18.2.68-1.97.48-3.92-.11-5.87-.4-3.01-.42-6.02.02-9.02,1.01-4.62.42-9.29.4-13.94-.01-.44.09-.84.32-1.22Z" style="fill: #6d4acd; stroke-width: 0px;"/>
  <path d="M187.51,366.55c-.77-.06-1.53-.11-2.3-.17-4.86-1.84-10.37-2.06-14.49-5.76,8.14,2.32,16.45,3.4,24.91,3.79,13.91.65,27.86,1.16,41.74.39,11.46-.64,22.91.03,34.33-.62,23.26-1.33,46.53-.15,69.78-.8,6.08-.17,12.39-.79,17.45-5.08.31-.29.68-.39,1.1-.31,1.63.66,3.37.65,5.09.83,1.11.11,2.63-.22,2.8,1.62-1.27.82-2.53,1.64-3.8,2.46-4.27,3.9-9.81,3.84-15.01,4.62-7.16,1.07-14.4.95-21.62.81-2.14-.04-4.15.85-6.29.66-1.8-.68-3.69-.53-5.54-.54-18.31-.03-36.63-.37-54.92.15-7.92.22-15.92-.05-23.81,1.21-6.8-1.1-13.67-.74-20.5-.6-7.62.16-15.16-.98-22.76-.89-1.25.02-2.47-.3-3.65-.7-.94-.11-1.7-.64-2.5-1.08Z" style="fill: #942649; stroke-width: 0px;"/>
  <path d="M159.62,291.52c-.15,6.23.66,12.48-.48,18.69-.12-6.24-.55-12.48.48-18.69Z" style="fill: #c85424; stroke-width: 0px;"/>
  <path d="M160.38,281.76c-.12,1.76.61,3.61-.54,5.26-.03-1.78-.42-3.59.54-5.26Z" style="fill: #c85424; stroke-width: 0px;"/>
  <path d="M409.16,533.6c-6.94,5.64-12.42,4.13-16.49-4.54-1.99-6.21,4.19-12.56,10.96-11.14,4.01.84,7.08,2.91,7.93,7.3.13,1.44.11,2.89.03,4.34-.3,1.65-.62,3.3-2.43,4.04Z" style="fill: #fefefe; stroke-width: 0px;"/>
  <path d="M410.71,525.37c-1.88-4.69-5.78-7.28-9.96-6.62-5.08.81-7.87,4.36-8.08,10.31-3.25-2.67-.88-5.61.06-8.05,1.59-4.08,7.92-7.35,12.32-6.9,5.06.51,7.78,4.01,9.65,8.24,1.28,2.89-1.8,10.33-4.63,11.69-.19.09-.61-.29-.92-.44.57-1.28,1.14-2.57,1.71-3.85.16-1.47.44-2.94-.16-4.38Z" style="fill: #d0972f; stroke-width: 0px;"/>
  <path d="M93.77,57.14c-5.64,4.6-10.6,4.63-14.37.11-2.31-2.77-2.3-5.91-1.57-9.18.24-3.84,2.18-5.65,7.08-6.59,3.82-.74,8.58,1.66,10.33,5.19,1.86,3.75,1.25,8.07-1.48,10.47Z" style="fill: #fefefd; stroke-width: 0px;"/>
  <path d="M93.77,57.14c2.77-5.57,2.11-10.09-1.88-12.95-4.99-3.57-11.15-1.88-14.05,3.87-2.38-.85-1.29-2.48-.54-3.58,4.89-7.15,13.14-9.61,20.01-2.1,3.27,3.57,1.79,12.59-2.28,15.14-.48.3-.94.04-1.27-.39Z" style="fill: #d0972d; stroke-width: 0px;"/>
  <path d="M340.32,310.32c-1.37,9.6-3.67,18.78-11.51,25.45-.37.32-.81.56-1.22.84-8.97,5.29-18.67,5.47-28.57,3.96-7.07-1.08-12.86-4.38-17.17-10.22-1.25-1.69-2.37-3.51-3.9-4.99l-.73-.81c-2.75-3.19-2.71-7.33-3.77-11.1-.4-5.52-.39-11.05-.03-16.57.52-2.16.89-4.37,1.47-6.52.31-1.11.68-2.2,1.04-3.3,1.48-3.91,3.02-7.78,6.25-10.66,11.91-14.02,35.3-12.75,45.34-4.46,2.17,2.23,4.62,4.19,6.55,6.66,1.07,1.39,1.8,2.97,2.66,4.49,4.74,8.61,5.14,17.8,3.59,27.24Z" style="fill: #e5e3df; stroke-width: 0px;"/>
  <path d="M273.41,330.66c-.01,3.11-.09,6.22-.02,9.33.05,1.81-.25,2.52-2.45,2.49-12.2-.16-24.41-.09-36.61-.05-4.72.02-4.71.08-4.79-4.76-.02-1.11-.13-2.23-.21-3.34-1.39-1.41-1.14-3.23-1.16-4.94-.05-4.85.13-9.7.04-14.56-.07-10.42-.13-20.84.03-31.26-.14-2.9-.1-5.8.02-8.69.02-.88-.13-1.74-.09-2.62.16-3.89,1.04-4.99,4.9-5.04,12.22-.16,24.45-.12,36.68-.02,2.17.02,4.37.24,4.77,3.1.25,5.06.62,10.12-.25,15.17-1.03,2.08-3.01,1.96-4.85,1.99-5.1.1-10.2,0-15.3.05-1.92.02-3.86.05-4.09,2.67-.46,2.57.84,3.28,3.16,3.26,4.48-.03,8.96-.06,13.44.02,5.12.09,5.77.83,5.53,5.96-1.03,3.27-.37,6.66-.6,9.98-.24,3.43-.87,3.72-4.12,2.82-5.84-1.62-11.83-.61-17.76-.69-1.1-.01-1.56.8-1.18,1.81.75,2.01.38,4.21,1.18,6.19.31,2.47,1.88,3.17,4.15,3.15,4.06-.03,8.13-.04,12.19.01,1.59.02,3.24-.1,4.51,1.18.46,0,.91.02,1.37.02,2.66,1.77.47,4.62,1.51,6.76Z" style="fill: #e7e6e3; stroke-width: 0px;"/>
  <path d="M340.32,310.32c.31-9.54-.36-18.91-4.61-27.68,1.59-.63,1.81-.59,2.91,1.15,1.12,1.78,1.82,3.8,3.17,5.48,1.46,1.81,2.66,2.11,3.96-.07.38-.64.87-1.22,1.44-1.71,1.71-1.46,3.47-3.14,5.95-2.36,2.57.8,2.78,3.2,3.15,5.45.77,4.69.63,9.41.81,14.13.45,12.05.66,24.12,2.82,36.04.21,1.14.33,2.29,1.75,2.51,2.73.42,2.85,2.44,2.72,4.51-.15,2.36-.65,4.68-.85,7.04-.63,1.82-1.38,3.51-3.75,3.43-.29.02-.58.05-.87.07-.2-.43-.33-1.2-.6-1.25-5.81-1.01-10.08-5.13-15.21-7.49-2.4-1.1-4.8-1.98-7.51-1.81-2.05.13-3.77-1.05-4.65-2.58-.82-1.42.81-2.64,1.76-3.76,5.86-6.93,9.02-15.06,10.4-23.92.66-4.24-.53-8.32-1.66-12.59-.99,1.85.32,3.91-1.13,5.42Z" style="fill: #d86b2f; stroke-width: 0px;"/>
  <path d="M270.53,323.87c-6.35.07-12.69.07-19.03.25-4.09.11-2.09-3.04-2.75-4.77-.44-.99-.34-2-.11-3.01,6.28-1.37,12.65-1.07,19-1.05,2.38,0,4.7-.06,6.85-1.24.91,3.5,1.81,6.99,2.72,10.49-1.28-.69-2.64-1.27-3.82-2.1-1.98-1.39-2.56-.33-2.86,1.43Z" style="fill: #c85525; stroke-width: 0px;"/>
  <path d="M179.27,338.72c-.03-5.97-.06-11.94-.09-17.92,1.84.13,1.53,1.69,1.76,2.79.59,2.81.93,5.67.77,8.55-.14,2.65,1.13,4.14,3.58,4.97,7.01,2.39,14.18,2.54,21.43,1.73.5-.06-.13-.04.37-.06,8.54-.4,14.69-4.16,17.64-12.47.21-.59.7-1.02,1.36-1.18,1.77,3.46-.05,8.14-4.19,10.72-13.53,11.08-27.94,9.03-42.63,2.85Z" style="fill: #c8bcaf; stroke-width: 0px;"/>
  <path d="M277.95,325.36c2.3.54,3.4,2.57,4.55,4.2,5.47,7.75,13.4,10.29,22.25,10.68,7.07.32,14.12-.05,20.66-3.34.62-.31,1.45-.21,2.18-.29-9.69,7.86-20.72,8.25-31.98,4.98-8.34-2.42-14.62-7.72-17.65-16.23Z" style="fill: #c2b2a8; stroke-width: 0px;"/>
  <path d="M252.34,343.25c5.35,0,10.7-.03,16.05.02,1,.01,2.55-.54,2.71,1.1.16,1.56-1.34,2.42-2.47,2.15-5.17-1.22-10.25.89-15.52.02-4.22-.7-8.77.55-13.2.36-.74-.03-1.49.13-2.23.1-1.9-.07-4.36-.31-4.27-2.52.1-2.28,2.61-1.12,4-1.17,4.97-.15,9.95-.06,14.93-.06Z" style="fill: #811d0b; stroke-width: 0px;"/>
  <path d="M221.9,335.87c2.36-3.16,4.43-6.44,4.51-10.57-.65-4.58-.2-9.28-1.55-13.78.24-2.02.94-2.75,2.65-1,1.18,1.2,1.07,2.92,1.82,4.29,0,6.5,0,13.01,0,19.51-1.56.74-1.88,2.55-3.12,3.58-.8.67-.87,2.3-2.31,2.07-1.38-.23-1.19-1.71-1.64-2.67-.2-.44-.24-.95-.36-1.43Z" style="fill: #711708; stroke-width: 0px;"/>
  <path d="M273.41,330.66c-1.16-2.11.58-4.86-1.51-6.76,3.54,1.57.92,4.52,1.51,6.76Z" style="fill: #c85525; stroke-width: 0px;"/>
  <path d="M225.53,310.91c1.37,4.73,2.08,9.51.88,14.4-1.65,3.14-2.99,6.44-5.34,9.2-1.33,1.55-2.66,2.98-4.68,3.49-10.59,2.65-21.16,3.66-31.78.04-2.83-.96-4.28-2.36-4.02-5.61.31-3.91-.05-7.85-1.4-11.61-.34-1.88.08-2.59,2.11-1.66,3.27,1.5,6.6,2.87,9.95,4.2,3.75,1.49,7.68,2.1,11.7,1.83,2.11-.14,4.36-.39,4.91-3.09.53-2.59-.77-4.35-2.89-5.5-2.29-1.24-4.64-2.37-7.03-3.41-5.07-2.21-9.7-4.93-13.35-9.24-4.77-5.62-4.93-12.25-4.6-19.04.83-2.25,1.66-4.51,2.49-6.76.08-2.59,2.11-3.92,3.59-5.61,9.21-8.87,29.92-7.08,39.29-.84,1.37.91,1.98,2.16,1.94,3.77-.84,4.55-2.58,8.81-4.24,13.1-1.02,2.64-2.76,3.34-5.3,2.02-4.02-2.09-8.29-3.44-12.79-3.84-4.05-.36-5.35,1.51-3.62,4.89,3.52,3.13,8,4.52,12.06,6.65,3.45,1.81,6.7,3.81,9.32,6.75,1.52,1.71,2.64,3.56,2.81,5.88Z" style="fill: #e5e3df; stroke-width: 0px;"/>
  <path d="M186.04,273.71c-1.19,1.48-2.39,2.95-3.58,4.43-3.73-.16-7.57.8-10.12-3.65-2.52-4.41-.54-9.41,3.62-11.16,3.1-1.3,6.42-2.43,9.73-2.35,7.24.18,14.4-.91,21.63-.89,39.69.08,79.38.07,119.07,0,7.61-.01,15.19.19,22.51,2.42,2.92.89,4.49-.91,6.28-2.22,1.6-1.17-.48-2.07-.71-3.15,3.32.95,6.26,2.36,7.47,5.96.28,2.05-1.26,2.15-2.57,2.23-1.75.1-2.52.82-2.15,2.58,1.11,5.29,3.37,10.22,4.5,15.98,2.82-2.12,3.4-5.84,6.98-5.75,1.6,3.28,2.01,6.58,1.7,10.35-.44,5.4-.32,10.88.17,16.36.33,3.72-.42,7.63-.35,11.47,1.88,4.4,1.41,8.76-.22,13.1-6.44,3.84-10.22,1.64-10.58-6.07-.57-12.15-.49-24.34-2.25-36.42-.52-3.57-1.42-7.08-2.47-10.51-1.04-3.4-2.62-3.73-4.88-1.07-2.9,3.42-6.9,4.74-10.85,6.24-2.76,1.04-3.87-1.44-5.61-2.58-1.97-2.04-3.94-4.08-5.91-6.12.5-2.27,2.42-1.75,3.9-1.87,2.6-.21,5.26.22,7.82-.53,1.76-.52,4.09-.96,4.03-3.23-.05-2.04-2.27-2.4-3.94-2.81-2.55-.61-5.15-.95-7.78-.95-29.69.07-59.39-.08-89.08.08-10.1.05-20.21.13-30.31-.13-8.5-.22-16.94.77-25.41.88-2.51.03-4.96.62-7.23,1.73-1.02.5-2,1.16-1.83,2.53.17,1.34,1.22,1.78,2.33,2.1.96.27,1.99.23,2.95.47,1.42.35,3.04.53,3.15,2.54Z" style="fill: #e28b59; stroke-width: 0px;"/>
  <path d="M330.51,254.1c2.99-1.12,5.98-1.18,8.96.04-2.99-.21-5.98,1.06-8.96-.04Z" style="fill: #d7767f; stroke-width: 0px;"/>
  <path d="M299.87,251.85c-16.04.01-32.09.02-48.13.04,2.97-4.16,7.87-4.09,12.06-4.98,9.37-1.98,18.78-1.42,27.84,1.96,2.74,1.02,5.37,2.32,8.23,2.98Z" style="fill: #da753f; stroke-width: 0px;"/>
  <path d="M369.43,329.8c.83-4.46.84-8.97.78-13.49,3.26,1.32,3.5-.9,3.72-3.16.58-6.06,2.48-11.83,3.84-17.72.24-1.05.64-2.21,2.06-2.33.12.29.24.58.36.86.23,4.63.01,9.27.12,13.9-.41,3.37-.35,6.75-.03,10.13-.01,1.64.11,3.29-.08,4.93-.29,7.72-.66,15.44-2.64,22.94-1.55,5.89-4.22,11.19-9.65,14.59-1.46-1.29-3.22-.51-4.83-.66-1.32-.12-2.71.09-3.27-1.55,1.2-.78,2.23-1.72,2.92-3,7.2-5.52,6.71-13.34,6.35-21.13-.07-1.45-.79-2.96.36-4.3Z" style="fill: #cf6168; stroke-width: 0px;"/>
  <path d="M368.7,278.14c-1.99,1.48-3.97,2.92-4.77,5.49-.19.6-.94,1.34-1.53,1.43-.96.16-1.52-.77-1.77-1.6-1.57-5.34-3.16-10.68-4.55-16.08-.52-2.04.2-3.49,2.78-2.89,1.34.31,2.47,0,3.07-1.4,4.87.15,8.29,4.67,7.25,9.95-.34,1.71-.48,3.38-.49,5.09Z" style="fill: #edb897; stroke-width: 0px;"/>
  <path d="M137.97,502.09c3.04,1.6,5.99,3.32,8.24,6-3.15-1.45-6.25-2.96-8.24-6Z" style="fill: #eaa471; stroke-width: 0px;"/>
  <path d="M131.23,496.84c2.9.92,5.04,2.8,6.74,5.25-2.7-1.17-4.92-2.96-6.74-5.25Z" style="fill: #eaa471; stroke-width: 0px;"/>
  <path d="M125.98,492.36c2.55.55,3.77,2.68,5.26,4.48-2.57-.53-3.77-2.67-5.26-4.48Z" style="fill: #eaa471; stroke-width: 0px;"/>
  <path d="M187.51,366.55l2.23.22c2.28,1.55,3.6,4.03,5.78,5.75,4.59,3.64,9.56,5.66,15.47,5.09,1.13-.11,2.27.06,3.28.58,3.87,2.01,7.95,1.78,12.05,1.13,2.87-.45,5.68.06,8.52.18,4.28.18,8.44,1.35,12.73,1.16,1.26-.06,2.51,0,3.69.41,3.08,1.04,6.1.98,9.09-.31.96-.08,1.84.17,2.65.68,1.22,1.24,2.72.93,4.19.72.72-.02,1.42.07,2.12.23,1.46.45,2.95.34,4.44.32,15.88.54,30.53-3.27,43.71-12.33,1.19-.82,2.3-1.97,3.97-1.83,1.59-1.11,3.37-1.29,5.28-1.29,10.15,0,20.33.26,30.29-2.29,2.39-.61,4.75-1.37,7.12-2.06.26,1.49-.4,2.74-1.3,3.77-6.46,7.34-14.05,13.31-22.33,18.49-4.72,2.95-10.03,2.5-15.14,2.98-5.01.47-10.09.27-15.15.2-9.7-.14-19.4.52-29.1.6-15.51.12-31.02.13-46.53,0-9.56-.08-19.12-.56-28.21-4.03-5.88-2.25-10.15-6.65-14.13-11.27-1.84-2.13-3.9-4.23-4.7-7.1Z" style="fill: #4524ab; stroke-width: 0px;"/>
  <path d="M380.31,307.87c-.51-4.63-.32-9.27-.12-13.91.83,4.63.68,9.27.12,13.91Z" style="fill: #8053dd; stroke-width: 0px;"/>
  <path d="M380.2,322.92c-.26-1.65-.31-3.3.07-4.93.6,1.66.7,3.3-.07,4.93Z" style="fill: #8053dd; stroke-width: 0px;"/>
  <path d="M269.12,383.12c-.73-.06-1.46-.12-2.19-.18-1.18-.81-2.8.55-3.88-.78-.66-.44-1.32-.84-2.17-.69-8.53-.84-15.44-5.44-22.49-9.71-.84-.51-1.5-1.31-1.5-2.43.41-1.83,1.9-1.26,3.04-1.3,26.02-.97,52.05-.78,78.08-.71,1.19,0,2.88-.79,3.42,1.24-12.34,9.78-26.38,14.8-42.12,15.08-1.87.03-3.74.03-5.61.05-1.45-.78-3.11.05-4.58-.57Z" style="fill: #a1571a; stroke-width: 0px;"/>
  <path d="M236.89,369.33c6.13,4.99,13.17,8.24,20.56,10.83,1.15.4,2.28.87,3.42,1.31-3.22,1.97-6.59,1.76-9.97.59-1.47-.51-2.88-.82-4.35-.17-1.42.63-2.76.31-3.88-.53-1.32-1-2.51-1.45-4.03-.44-.48.32-1.32.61-1.74.4-4.7-2.32-9.5-.91-14.29-.59-2.99.2-5.98.17-8.63-1.64-.98-.67-2.14-.72-3.25-.55-8.25,1.26-14-3.21-19.34-8.5-.82-.82-1.13-2.16-1.67-3.26,13.83,1.24,27.7,1.29,41.57,1.13,2.04-.02,3.93.14,5.58,1.43Z" style="fill: #4020a2; stroke-width: 0px;"/>
  <path d="M410.71,525.37c1.07,1.42,1.02,2.89.16,4.38-.05-1.46-.1-2.92-.16-4.38Z" style="fill: #e8cb67; stroke-width: 0px;"/>
  <path d="M186.04,273.71c-1.36-1.66-3.24-1.63-5.14-1.6-2.48.04-4.73-.77-5.12-3.37-.39-2.57,1.79-3.52,3.93-4.18,2.86-.88,5.75-1.33,8.77-1.51,15.07-.93,30.15-.65,45.22-.67,32.8-.02,65.61-.03,98.41.01,3.72,0,7.47.27,10.84,2.13,3.14,1.73,3.25,3.52.29,5.56-2.2,1.52-4.73,1.98-7.43,2.1-2.79.12-5.71-.94-8.37.71-11.91-9.05-34.28-8.42-44.36,4.04-.14.17-.44.2-.67.29-2.91-.36-5.99-.36-6.56-4.38-.15-1.08-1.61-1.43-2.33-2.27.09-1.76-.76-2.34-2.48-2.33-13.03.06-26.05.08-39.08.04-1.97,0-2.66.77-2.52,2.67.1,1.35-.03,2.72-.05,4.08-.92.51-1.82,1.11-2.95.65-.02-1.4-.26-2.49-1.73-3.34-10.04-5.83-28.83-7.8-38.67,1.37Z" style="fill: #edb081; stroke-width: 0px;"/>
  <path d="M315.83,288.57c4.31,4.23,4.24,9.9,4.59,15.25.25,3.91-.18,7.95-1.28,11.82-1.63,5.75-5.08,8.74-10.42,9.05-6.98.4-10.85-1.56-12.87-7.67-2.61-7.91-3.08-16.01.15-23.99,1.98-.34,3.68-1.22,5.39-2.3,4.45-2.81,9.22-4.17,14.44-2.15Z" style="fill: #d46830; stroke-width: 0px;"/>
  <path d="M369.43,329.8c.86,7.27,2.15,14.55-1.7,21.48-1.17,2.1-2.54,3.66-5.02,3.95-.48-2.89.77-5.63.73-8.49-.02-1.62,0-3.2-2.42-2.3-1.51.56-1.93-.24-2.08-1.63-.98-9.07-1.76-18.15-2.48-27.24-.65-8.14.58-16.34-1.19-24.41-.44-2.04.07-4.67-2.38-5.33-2.57-.7-4.23,1.6-5.89,3.19-.58.55-.68,1.57-1.12,2.3-1.1,1.81-2.42,2.13-3.71.22-1.5-2.21-3.49-4.09-4.19-6.87-.16-.64-.34-2.72-2.27-2.05-.78-1.21-1.56-2.41-2.34-3.62.08-.09.17-.27.25-.27,1.79.13,2.1,3.34,4.46,2.21,3.77-1.81,8.25-2.44,10.87-6.18.96-1.37,1.93-3.13,3.58-2.88,1.94.3,2.87,2.28,3.34,4.13,2.32,9.03,3.9,18.19,3.79,27.53-.09,7.1,1.05,14.13.9,21.24-.1,4.81,2.35,6.23,6.78,4.61.85-.31,1.43.15,2.11.39Z" style="fill: #da753f; stroke-width: 0px;"/>
  <path d="M271.25,299.78c.28-6.14.56-4.99-4.94-5.06-4.44-.06-8.9-.25-13.32.1-3.8.3-4.95-1.04-4.04-4.56.84-.37,1.59,1.11,2.36.24,2.54-2.83,5.9-2.04,9.05-2.17,3.71-.15,7.41.37,11.14.09,1.61-.12,3.24.14,4.3,1.66-.28,2.06-.4,4.16-1.47,6.03-1.28.95-1.15,2.34-1.16,3.69-.03,3.44.15,6.9-.1,10.33-.09,1.17.48,3.2-1.97,3.01-.17-4.46-.43-8.91.15-13.36Z" style="fill: #c65629; stroke-width: 0px;"/>
  <path d="M271.28,313.1c1.47-4.7.3-9.53.65-14.28.12-1.68.21-3.02,2.4-2.7-.2,5.98-.44,11.96.17,17.93-.03,2.05-1.29,2.32-3,2.29-5.23-.07-10.47-.04-15.7-.02-1.22,0-2.73-.43-3.47.82-2.04,3.43-2.63,1.34-3.31-.76-.78-3.28-.4-4.08,2.91-4.15,6.46-.14,12.96-.74,19.35.87Z" style="fill: #7d1f0d; stroke-width: 0px;"/>
  <path d="M275.8,290.08c-7.03-1.25-14.11-.42-21.17-.62-2.51-.07-2.59,2.8-4.49,3.95-1.03-.8-.07-2.47-1.19-3.16-1.16-3.25.25-4,3.34-3.91,5.92.18,11.86.04,17.79-.03,1.16-.01,2.5.53,3.43-.7.75-.64,1.49-1.49,2.6-.96,1.19.57.84,1.61.54,2.57-.28.96-.57,1.91-.85,2.87Z" style="fill: #7d1f0e; stroke-width: 0px;"/>
  <path d="M276.65,287.22c.08-2.72-1.65-1.94-3.14-1.61,0-5.01.01-10.02.02-15.03,1.22.01,3.3-.26,3.29.88-.04,3.94,2.53,4.53,5.4,5.09.11.02.14.44.21.68-2.77,2.84-3.88,6.64-5.78,9.99Z" style="fill: #cc6133; stroke-width: 0px;"/>
  <path d="M315.83,288.57c-5.81.12-11.64.03-16.18,4.75-.92.96-2.53.94-3.66-.29,2.85-8.34,13.36-10.7,19.83-4.45Z" style="fill: #7e1b09; stroke-width: 0px;"/>
  <path d="M225.53,310.91c-3.01-6.06-8.02-9.86-14.01-12.68-3.67-1.73-7.6-2.99-10.79-5.65,1.34-3.94,4.64-4.51,8.11-4.5,3.13.01,6.09.83,8.96,2.2,4.99,2.38,5.91,1.92,8.22-2.95.73-1.55.89-3.77,3.33-3.95.39,10.48.28,20.95-.02,31.43-.91-1.37-1.83-2.72-2.71-4.11-.58-.91-.83-.43-1.08.21Z" style="fill: #cc5d2c; stroke-width: 0px;"/>
  <path d="M229.34,283.38c-1.87,1.96-2.54,4.52-3.46,6.94-.85,2.23-1.88,3.01-4.48,2.04-3.68-1.38-7.3-2.94-11.41-3.28-3.89-.32-6.7.96-9.27,3.5-1.77-1.09-2.14-2.81-1.57-4.57.65-1.97,2.58-2.21,4.34-2.26,5.26-.17,10.1,1.6,14.64,3.95,2.78,1.44,3.54.6,4.28-1.97,1.17-4.06,2.66-8.03,4.02-12.05.76-1.25,1.73-1.53,2.95-.65-.02,2.78-.03,5.56-.05,8.35Z" style="fill: #83200d; stroke-width: 0px;"/>
  <path d="M271.28,313.1c-6.55.05-13.09.2-19.64.09-2.55-.04-3.39.76-2.62,3.18-.09.99-.18,1.98-.27,2.97-1.29-2.39-.37-5.38-2.36-7.69-.9-1.05.58-1.3,1.41-1.3,5.99-.03,11.97-.03,17.96,0,.49,0,1.11.02,1.43.3,4.52,3.86,3.12-.46,3.37-2.43.36-2.8-.7-5.71.68-8.43.01,4.44.02,8.88.03,13.32Z" style="fill: #cabcad; stroke-width: 0px;"/>
  <path d="M263.04,382.16c1.34.04,2.73-.17,3.88.78-1.36.08-3.01,1.58-3.88-.78Z" style="fill: #4020a2; stroke-width: 0px;"/>
  <path d="M269.12,383.12c1.55-.02,3.14-.35,4.58.57-1.53-.13-3.17.58-4.58-.57Z" style="fill: #4020a2; stroke-width: 0px;"/>
</svg>