<?xml version="1.0" encoding="UTF-8"?>
<svg id="Layer_1" data-name="Layer 1" xmlns="http://www.w3.org/2000/svg" viewBox="0 0 569.88 597.47">
  <path d="M148.06,339.22c-2.06-2.64-3.35-5.53-2.96-8.98,1.55-.84,3.44-.8,4.92-1.75,10.98-7.1,23.94-8.15,36.03-11.88,7.29-2.25,14.94-2.73,22.22-4.73,8.42-2.32,17.1-3.42,25.45-5.63,7.08-1.88,14.5-3.17,21.17-6.58.88-.45,1.87-.97,2.84-.86,3.81.42,7.21-.1,9.53-3.58,6.78-.84,11.54-7.09,18.96-6.78,2.56.11,5.78-1.37,7.32-4.37,1.04-2.03,2.65-3,4.98-3.42,4.35-.78,7.83-3.05,11.14-6.2,4.84-4.59,7.86-10.5,12.29-15.25,3.23-3.46,5.41-7.95,9.76-10.38.76-.42,1.45-.93,2.3-1.19,1.86-.56,4.07-.69,2.44-3.8-.72-1.38.57-2.99,1.91-3.7,1.73-.92,3.63-1.78,5.66-1.42.78.14.84,1.2.71,1.94-.51,2.98,1.25,4.02,3.73,4.5,1.47.29,3,.46,4.29,1.27,3.07,1.94,7.01,3.16,6.61,8.04-.08.97.77,1.85,1.62,2.41,1.72,1.14,2.84,2.44,1.87,4.65-.2.46-.29,1.18.08,1.43,4.18,2.85,3.99,10,10.7,10.56,2.1.18,3.52,2.63,6.03,3.2,1.97.45,2.75,2.96,1.12,4.95-2.05,2.49-.83,3.2,1.57,4.03,3.34,1.14,6.16,3.16,8.4,6.01,1.04,1.32,1.81,3.45,4.53,1.58,1.47-1.01,2.37.99,2.07,2.45-.59,2.93,1.02,3.75,3.32,3.44,3.48-.46,5.37,1.31,6.76,4.07.4.81.81,1.74,1.76,1.77,3.89.14,5.68,2.66,6.88,6.59,1.55-3.74,3.4-2.5,4.95-.89,1.51,1.57,3.08,2.81,5.22,3.4,1.49.41,2.7,1.45,3.03,3.05.6,2.85,2.17,3.75,4.89,2.79.83-.29,1.71-.37,2.59-.21,2.46.45,3.38,2.17,1.99,4.23-1.67,2.48-1.47,4.08,1.49,5.1.94.32,1.63,1.14,2.45,1.71,2.05,1.42,3.86,1.87,5.83-.48,2.24-2.67,5.5-2.05,7.16,1.04.41.77,1.08,1.48,1.19,2.32.32,2.37,1.47,3.48,3.94,3.33,1.13-.07,2.24.49,3.04,1.29,1.83,1.84,3.75,2.2,6.07.9,1.18-.67,2.58-.65,3.27.71,1.34,2.63,3.71,2.81,6.08,2.58,1.97-.19,3.42.26,4.51,1.89,1.22,1.83,2.69,1.86,4.49.77,1.98-1.2,4.04-1.02,6.05.11,2.62,1.48,5.36,1.95,8.28.93.59-.21,1.23-.3,1.85-.19,9.05,1.64,18.16,0,27.23.46,1.87.1,3.74.15,5.57.61,3.56.9,4.04,2.35,1.7,5.2-.55.67-1.17,1.3-1.87,1.84-5.52,2.71-11.41,4.36-17.3,5.95-11.68,3.15-23.58,5.5-35.01,9.54-21.12,7.46-41.45,16.37-59.5,30.1-7.14,5.43-13.51,11.31-19.01,18.32-2.19,2.79-3.99,5.71-5.13,9.06-1.13,3.31-2.69,6.44-4.16,9.62-2.88,6.25-4.51,12.85-6.01,19.54-1.52,6.8-2.96,13.61-3.94,20.5-4.08,28.76-8.88,57.39-14.96,85.8-1.59,7.43-3.14,14.91-6.76,21.72-1.52,2.34-3.74,3.91-5.97,5.46-1.56-1.73-.71-3.59-.07-5.28,2.61-6.88,2.26-13.97,1.56-21.07-.21-2.12-.32-4.23-.34-6.35-.17-18.58.47-37.16-.66-55.74-.47-7.7-.57-15.46-1.05-23.15-.38-6.15-1.44-12.38-1.75-18.52-.39-7.78-2.21-15.26-3.21-22.89-.53-4.07-2.2-7.91-3.1-11.93-.91-4.05-4-6.57-6.99-8.98-3.43-2.75-6.75-5.51-9-9.37-.57-.97-1.22-1.95-2.13-2.59-5.12-3.59-9.28-8.21-13.82-12.45-4.26-3.98-8.73-7.72-12.79-11.93-2.53-2.63-4.51-5.69-6.27-8.77-1.44-2.53-3.26-3.97-5.82-4.82-10.79-3.57-21.72-6.54-32.95-8.39-19.32-3.19-38.68-6.14-57.71-10.89-5.18-1.29-10.46-2.36-15.85-2.74-3.1-.22-6.13-1.03-9.16-1.8-5.46-1.38-10.96-2.63-15.83,1.98-1.87,1.77-4.27,1-6.36.04-2.84-1.31-5.42-3.07-7.96-4.88Z" style="fill: #f1d60e; stroke-width: 0px;"/>
  <path d="M536.85,353.43c.51-1.75,3.68-2.47,2.54-4.48-.82-1.44-3.38-1.43-5.12-1.4-6.71.12-13.43-.71-20.14.48-1.74.31-3.74-.1-5.48-.63-3.86-1.16-7.63.98-11.47.1-1.1-.25-2.13-.35-3.05-1.15-1.98-1.72-4.05-1.7-6.03.03-1.28,1.12-3.25,1.8-3.84.24-1.84-4.86-6.08-2.54-9.14-3.31-1.3-.33-1.82-.31-2.05-1.64-.44-2.54-1.9-2.66-3.67-1.23-1.98,1.6-3.72,1.19-5.2-.58-1.53-1.82-3.38-2.63-5.62-1.88-1.61.53-2.59-.6-2.31-1.43.85-2.44-1.53-3.49-1.81-5.34-.15-.95-.61-2.11-1.51-1.5-1.22.83-3.01-1.1-3.8,1.17-1.07,3.08-3.45,2.75-5.77,1.64-2.06-.99-3.5-2.81-6-3.46-1.75-.46-1.1-3.16-.32-4.89.42-.93,2.93-.82,1.46-2.64-1.2-1.49-2.96-1.39-4.44-.52-2.18,1.27-4.81.69-5.04-1.11-.56-4.27-3.14-4.91-6.49-5.96-1.61-.5-2.46-3.42-4.49-4.26-1.92.85,1.81,2.78-.75,3.14-1.74.25-2.59-1.21-2.94-2.79-.6-2.72-2.12-4.09-5.03-3.79-1.55.16-2.4-.52-2.89-2.19-.78-2.61-2.03-5.08-5.61-3.61-1.51.62-2.57-.67-3.86-.99-2.38-.61-.81-2.05-.5-3.22.26-.96.68-2.26-.68-2.46-2.19-.32-.38,2.05-1.58,2.69-3.31-1.68-4.55-5.55-7.8-7.44-1.97-1.14-3.72-2.62-6.09-2.67-1.26-.02-1.79-.81-2.14-1.73-.38-1.04,0-1.87.97-2.55,1.24-.87,2.64-1.96,1.23-3.62-.89-1.05-1.84-3.24-3.72-.96-.51.62-.8.44-.87-.24-.29-2.83-2.31-2.85-4.52-3.34-2.48-.55-4.75-2.13-5.21-5.03-.23-1.48-.98-2.79-2.02-3.45-2.16-1.38-4.19-2.36-1.68-5.21.78-.88-.1-1.47-1.01-1.88-2.36-1.05-3.73-2.71-3.12-5.49.27-1.25-.32-2.68-1.21-2.88-2.92-.67-4.73-3.35-7.87-3.73-5.57-.66-5.94-1.4-5.31-7.13-2.22,1.71-5.93.49-6.84,4.13-.47,1.9,1.69,1.26,2.54,2.16-.9.85-1.57,2.04-2.33,2.11-4.01.35-5.85,4.24-9.29,5.44-.57.2-1.63.49-1.26,1.02,2.5,3.62-1.06,3.06-2.58,4.18-2.59,1.9-3.81,5.01-5.83,7.47-2.2,2.68-3.76,5.63-6.59,8.08-2.75,2.37-5.12,5.11-8.54,6.66-1.56.7-2.89,1.9-4.86,1.28-1.38-.43-2.72.5-3.09,1.6-1,2.92-3.01,4.1-5.77,5.19-1.75.69-2.73,1.4-5.02,1.1-2.74-.36-6.01,1.48-8.65,3.28-1.78,1.22-3.08,3.1-5.85,2.39-1.31-.34-2.8.68-3.48,2.29-1,2.36-3.52,2.94-5.31,2.5-5.3-1.29-9.13,2.52-13.73,3.51-1.5.32-3.13,1.05-4.8,1.41-8.16,1.79-16.24,3.98-24.44,5.49-4.85.9-9.33,3.43-14.15,3.69-11.3.61-21.54,5.67-32.56,7.19-7.5,1.03-13.83,4.64-20.41,7.83-1.83.89-3.64,2.32-5.91,1.15-.52-3.47.86-6.35,2.79-9.06,8.18-6.28,17.47-10.47,26.77-14.76,10.34-4.76,21.01-8.65,31.77-12.1,13.08-4.19,25.82-9.18,38.51-14.32,7.11-2.88,14.28-5.81,20.6-10.4,2.69-1.96,5.85-3.21,8.66-5.11,9-6.07,16.69-13.46,22.56-22.53,4.27-6.59,6.93-14.08,9.76-21.37,9.03-23.24,13.27-47.75,18.69-71.96,4.14-18.49,8.65-36.92,14.19-55.06,1.65-5.41,4.15-10.44,7.69-14.89,3.91-4.92,9.76-4.76,13.56.31,1.44,1.93,2.85,4.07,2.9,6.4.12,5.24,2.46,9.86,3.5,14.83.94,4.51.67,9.15,1.76,13.67.52,2.14.41,4.43,1.69,6.38.14.21.31.46.29.68-.39,4.78.38,9.35,1.61,13.99.51,1.91.35,4.09.96,6.16,1.73,5.87,1.71,12.04,2.9,18.03.47,2.38.31,4.99,1.02,7.36,1.22,4.1,1.5,8.22,1.71,12.48.17,3.58,1.45,7.23,2.03,10.9.83,5.3,2.35,10.4,4.69,15.25.44.92.53,1.93.39,2.93-.4,2.87.5,5.22,2.07,7.69,1.84,2.89,3.02,6.3,3.9,9.6.72,2.73,2.13,5.34,2.07,8.28-.01.75.34,1.53.9,2.01,4.87,4.18,7.06,10.88,12,14.49,5.16,3.78,8.19,10.75,15.71,11.23,1.17.07,1.92,1.07,2.56,2.03,2.64,3.95,6.46,6.46,10.46,8.85,11.16,6.66,23.22,11.45,35.09,16.56,8.89,3.82,18.14,6.89,27.59,9.23,8.72,2.16,16.76,6.58,25.61,8.25,5.89,1.11,10.86,4.39,15.94,6.9,6.31,3.12,12.32,7.51,17.45,12.64,4.28,4.28,3.78,11.78-.29,16.25-4.55,5-9.76,8.87-16.11,11.17-1.36.49-2.74,1.43-4.2.18Z" style="fill: #eabf02; stroke-width: 0px;"/>
  <path d="M1.68,134.83c-2.88-2.36-1.56-4.65.29-6.71,2.35-2.62,5.33-4.47,8.36-6.24,12.7-7.41,26.29-13.22,38.53-21.44,15.85-10.65,29.45-23.45,38.04-40.86,4.86-9.85,6.5-20.62,8.67-31.23,1.65-8.05,2.84-16.23,6.61-23.69C103.34,2.38,104.65-.02,107.49,0c2.74.02,3.78,2.5,4.85,4.63,4.11,8.14,5.27,17.09,7.12,25.85,2.03,9.62,3.5,19.4,7.82,28.39,7.64,15.88,19.99,27.5,34.08,37.51,12.06,8.56,25.62,14.38,38.66,21.15,4.53,2.35,9.16,4.57,12.99,8.06,4.23,3.85,4,6.9-.94,10.11-6.63,4.31-14.03,7.03-21.29,9.98-20.2,8.23-38.04,19.66-51.82,36.88-8.17,10.21-12.77,22-15.47,34.64-1.85,8.65-3.13,17.44-5.53,25.93-1.42,5.04-2.48,10.57-6.71,14.44-2.53.64-2.25-1.35-2.26-2.66-.12-15.82-2.6-31.55-1.79-47.41.15-2.95-.81-5.93-.86-8.92-.07-4.07-3.11-5.94-5.89-7.6-8.95-5.34-14.33-13.87-19.67-22.2-12.27-19.14-29.21-30.16-51.96-32.3-6.35-.6-12.67-.95-19.03-.76-2.73.08-5.5.32-8.11-.88Z" style="fill: #edcb06; stroke-width: 0px;"/>
  <path d="M148.06,339.22c3.14-.06,5.08,2.43,7.64,3.61,2.85,1.31,5.47,2.49,7.68-1.09.99-1.6,2.9-1.57,4.67-1.83,5.64-.82,10.77,1.53,16.13,2.37,5.5.87,11.03,1.47,16.48,2.77,8.54,2.03,17.13,3.93,25.78,5.41,11.71,2,23.35,4.36,35.11,6.12,8.3,1.24,16.59,2.9,24.55,5.89,3.58,1.34,7.45,1.87,10.95,3.56.9.44,2.33.66,2.39,1.55.26,3.69,3.65,5.4,5.05,8.42,1.24,2.66,3.58,5.21,6.08,6.79,3.36,2.12,5.68,5.31,8.74,7.71,2.46,1.93,5.49,4.11,7.09,7.26.52,1.03,1.35,1.69,2.47,2.15,3.35,1.37,6.1,3.84,7.42,6.97,1.33,3.14,3.92,5.14,6.14,6.7,5.69,3.99,9.57,8.45,10.4,15.63.36,3.09,2.33,6.05,2.44,9.28.21,5.93,2.88,11.46,2.53,17.46-.15,2.61.29,5.18.63,7.78.78,5.94,1.26,11.94,1.57,17.93.97,18.87,1.72,37.74,1.75,56.64,0,2.23-.18,4.47-.22,6.7-.17,8.59.09,17.17.74,25.74.38,5.04-.35,9.93-2.25,14.63-.57,1.41-.88,2.86-.7,4.38-5.1,2.47-9.17.35-12.76-3.1-5.25-5.06-8.11-11.59-10.49-18.31-5.91-16.66-10.62-33.69-15.01-50.81,4.24-.69,4.69-1.34,3.99-5.63-1.01-6.16-.38-12.41-1.14-18.62-2.09-17.08-3.95-34.26-10.45-50.31-2.34-5.79-5.14-11.84-9.92-16.67-1.54,1.48-.79,2.93-.59,4.32.2,1.36.6,2.9-.76,3.78-1.47.95-2.55-.38-3.59-1.18-.79-.6-1.57-1.22-2.37-1.82-3.87-7.23-7.46-14.61-12.57-21.11-10.95-13.95-25.21-23.51-40.98-31.1-17.01-8.18-35.14-13.1-53.14-18.43-12.04-3.56-24.22-6.84-34.65-14.3-2.73-1.95-5.32-4.1-6.83-7.23Z" style="fill: #f3e725; stroke-width: 0px;"/>
  <path d="M536.85,353.43c6.85-1.77,13.08-4.58,17.62-10.33.75-.95,1.93-1.54,2.82-2.4,3.04-2.93,2.57-12.58-1.9-15.69-4.92-3.42-10.25-6.4-14.62-10.64-1.91-1.85-4.93-.7-7.17-2.71-4.53-4.09-10.76-4.45-16.35-6.15-7.01-2.13-13.63-5.29-20.75-7.12-11.99-3.07-23.46-7.52-34.81-12.51-5.81-2.56-11.81-5.06-17.46-7.79-6.3-3.04-13.31-5.94-17.91-11.73-2.07-2.6-3.95-4.53-7.42-4.99-2-.26-3.78-1.66-5.09-3.52-1.6-2.29-3-4.72-6.36-5.29-1.98-.34-1.91-3.44-3.52-4.62-4.08-2.99-5.07-8.37-9.43-11.38-2.71-1.87-1.87-6.31-2.98-9.5-1.38-3.97-2.4-8.1-4.96-11.54-1.26-1.69-2.19-3.96-1.62-5.52,1.42-3.92-1.02-6.9-2.24-9.76-1.98-4.65-2.26-9.45-3.13-14.21-.29-1.58-.03-3.21-1.42-4.46-.41-.37-.87-1.21-.72-1.61,2.16-5.87-1.43-11.12-1.72-16.7-.29-5.72-2.25-11.2-2.2-16.95.02-2.14-.44-4.22-1.56-6.05-.72-1.17-.9-2.44-.61-3.59.62-2.45.66-4.54-1.6-6.27-.99-.76-.67-1.98-.39-3.14.44-1.79,1.61-4.42.85-5.31-3.26-3.8-1.95-8.51-3.12-12.68-1.08-3.83-.2-8.15-1.79-12-1.57-3.8-2.36-7.68-2.62-11.78-.13-2.06-1.36-3.96-2.53-5.77-2.7-4.17-9.11-5.42-12.89.1-5.42,7.92-7.86,16.87-10.39,25.82-2.86,10.14-5.5,20.36-7.88,30.63-3.05,13.16-5.5,26.46-8.69,39.58-2.81,11.55-5.27,23.17-9.06,34.52-3.34,10.02-7.66,19.6-11.79,29.24-2.35,5.48-6.63,10.13-11.11,14.38-4.95,4.69-10.02,9.11-15.73,12.9-2.99,1.98-6.31,3.2-9.31,5.15-10.58,6.88-22.61,10.74-34.25,15.36-9.53,3.78-19.29,6.97-29.04,10.17-10.98,3.61-21.57,8.23-32.14,12.92-5.84,2.59-11.15,6.01-16.55,9.32-1.07.65-2.08,1.39-3.41,1.35,2.47-4.07,5.61-7.46,9.89-9.68,10.08-5.72,20.59-10.61,31.28-15.01,8.4-3.45,16.94-6.61,25.38-9.98,8.78-3.5,17.74-6.57,26.21-10.86,2.65-1.35,5.53-2.24,8.27-3.44,11.68-5.13,22.77-11.26,32.42-19.68,6.89-6.01,12.6-13.01,16.78-21.27,6.43-12.69,11.78-25.76,15.26-39.56,2.64-10.45,4.78-21.02,6.9-31.59l-.03.04c1.1-4.24,2.26-8.47,3-12.8l-.05.05c1.04-1.93.98-4.14,1.56-6.19.97-7.27,3.38-14.19,5.27-21.23,3.25-12.11,6.08-24.36,11.15-35.9,1.35-3.09,2.96-6.02,5.18-8.58,6.65-7.66,13.2-7.13,18.92,1.54,7.11,14.37,8.55,30.34,12.84,45.5,5.06,17.89,8.01,36.22,11.86,54.36,2.78,13.09,5.77,26.1,11.07,38.34,4.77,11.03,10.13,22.01,21.51,28.18,1.03.56,1.61,1.54,2.35,2.37,2.91,3.23,5.69,6.64,10.1,7.98l-.04-.02c1.4,1.76,3.32,2.78,5.26,3.78l-.02-.02c1.36,1.22,2.8,2.31,4.49,3.04,2.25,1.3,4.51,2.59,6.76,3.89.88.65,1.97.87,2.92,1.37l1.59.94c.86.47,1.79.79,2.63,1.31,1.62.8,3.23,1.59,4.85,2.39,1.38.83,2.84,1.48,4.32,2.09,1.31.55,2.62,1.11,3.93,1.66.88.59,1.92.85,2.86,1.33,1.19.77,2.41,1.49,3.87,1.61.89.68,1.99.92,2.97,1.38,2.01.8,4.01,1.6,6.02,2.4,2.93,1.37,5.94,2.54,9.02,3.54l-.04-.03c1.11.84,2.53.94,3.73,1.56h0c1.71,1.01,3.57,1.66,5.48,2.17.67.29,1.34.59,2.01.88,1.79.66,3.45,1.62,5.29,2.15l-.04-.03c1.83,1.01,3.76,1.77,5.77,2.34,2.2,1.27,4.49,2.33,6.95,3,1.47,1.28,3.51,1.27,5.12,2.24,1.04,1.17,2.59,1.1,3.9,1.62,4.08,2.48,8.44,4.42,12.66,6.62,2.76,1.55,5.52,3.11,8.28,4.66.48,2.06,2.45,2.04,3.87,2.78,4.94,3.62,8.86,8.08,10.11,14.22.96,4.71-.11,9.13-3.47,12.8-8.92,9.69-20.86,13.59-32.96,17.22-15.26,4.57-30.82,8.08-45.93,13.19-16.38,5.54-31.93,12.79-45.81,23.21-13.78,10.34-24.3,23.11-29.13,40.07-1.49,5.23-3.64,10.27-5.05,15.54-3.4,9.44-5.41,19.27-8.09,28.92-2.65,9.54-4.7,19.24-7.24,28.82-2.98,11.25-6.05,22.47-9.34,33.63-2.54,8.61-5.5,17.09-8.27,25.63-1.19,3.58-2.89,6.95-4.54,10.33-1.48,2.07-1.99,4.84-4.42,6.24,1.37-5.02,2.86-10.02,4.08-15.07,3.41-14.09,5.81-28.38,8.73-42.57,2.79-13.58,3.36-27.53,7.08-40.95.99-3.56.23-7.4,1.02-11.1,1.77-8.3,2.94-16.73,4.93-24.97,2.14-8.9,6.75-16.92,10.02-25.43,1.91-4.96,5.74-8.68,9.1-12.63,8.07-9.47,18.39-16.27,28.88-22.54,13.89-8.31,28.75-14.79,44.1-20.03,12.35-4.22,25.13-6.81,37.67-10.3,5.38-1.5,10.63-3.48,15.94-5.24Z" style="fill: #dcb413; stroke-width: 0px;"/>
  <path d="M270.95,522.98c-3.88,2.84-8.46,4.18-12.85,5.9-10.82,4.24-20.63,9.96-28.84,18.32-5.93,6.05-9.74,13.15-11.66,21.38-1.71,7.28-2.68,14.74-5.2,21.82-1.02,2.86-1.62,6.9-5.18,7.06-3.92.18-4.6-4.08-5.69-6.96-1.97-5.26-3.07-10.8-3.93-16.34-3.15-20.39-15.84-33.29-33.19-42.49-4.73-2.51-9.77-4.42-14.61-6.71-2.36-1.12-4.75-2.27-6.86-3.78-2.89-2.07-2.86-3.67-.09-5.94,3.8-3.11,8.28-5.09,12.65-7.2,8.55-4.13,16.86-8.61,24.31-14.6,11.7-9.43,17.93-21.72,19.95-36.46.64-4.65,1.33-9.39,3.61-13.66,3.19-.94,4.65-.28,5.43,2.9.98,3.99,1.54,8.06,1.66,12.19.13,4.36.63,8.69,1.27,12.99,1.35,9.12,7.02,15.71,13.01,22.16,8.35,9,18.87,14.48,29.98,19.1,3.79,1.58,7.54,3.24,11.4,4.69,2.45.92,5.32,1.95,4.84,5.61Z" style="fill: #f2dc18; stroke-width: 0px;"/>
  <path d="M1.68,134.83c15.81-.84,31.5-.25,46.62,5.04,8.02,2.81,14.83,7.24,21.01,13.47,7.95,8.02,13.66,17.46,20.24,26.37,2.43,3.29,5.47,6.19,9.18,8.51,4.86,3.05,9.02,6.44,9.18,13.75.19,8.81-.06,17.66.48,26.47.44,7.16,1.31,14.29,2.04,21.42.13,1.27-.09,2.43-.32,3.66-.26,1.41-1.24,3.29,1.15,4.05-2.47,3.14-4.5,3.41-7.14.62-3.92-4.15-5.7-9.37-6.88-14.83.94-5.94.12-11.82-.56-17.7-.94-8.16-1.3-16.42-3.87-24.33-1-3.09-1.98-6.19-3.48-9.07-1.57-3.01-2.21-3-4.01-.25-.46.7-.75,1.67-1.94,1.23-14.09-23.64-35.71-37.65-60.64-47.49-5.22-2.06-10.31-4.42-15.4-6.79-2.12-.99-4.31-2.02-5.67-4.12Z" style="fill: #f0d613; stroke-width: 0px;"/>
  <path d="M296.24,431.39c1.34-.17,2.38.31,3.34,1.27.63.63,1.28,1.97,2.37,1.14.81-.62.58-1.91.15-2.81-1.27-2.65-1.22-4.92,1.35-6.66,5.2,4.53,7.33,11.07,10.44,16.75,3.56,6.5,5.08,14.17,6.41,21.61,1.55,8.63,2.96,17.28,4.22,25.95.6,4.15.76,8.37,1.04,12.57.27,4.07-.52,8.18.9,12.2.61,1.74-.26,3.52-1.43,4.8-1.45,1.58-2.64-.45-3.98-.68-4.02-12.85-7.07-25.96-10.24-39.03-3.88-16.01-8.28-31.84-14.58-47.1Z" style="fill: #f1d60e; stroke-width: 0px;"/>
  <path d="M435.02,253.77c-4.18,1.18-6.7-2.13-8.24-4.5-2.71-4.16-6.82-6.3-10.48-8.91-3.51-2.51-6-5.64-7.75-9.19-1.73-3.51-4.38-6.33-6.03-9.94-3.31-7.21-5.81-14.64-8.17-22.17-3.75-11.97-6.05-24.27-8.32-36.55-1.84-9.97-3.85-19.94-6.16-29.75-1.86-7.91-3.93-15.85-5.99-23.76-2.36-9.09-4.06-18.34-7.11-27.26-.53-1.54-2.44-2.68-1.49-4.69,4.59,5.35,6.6,11.95,8.52,18.47,7.28,24.71,13.66,49.67,19.21,74.84,3.92,17.75,8.15,35.41,16.26,51.89,5.48,11.14,12.87,20.66,22.44,28.54,1.14.94,2.2,1.99,3.3,2.99Z" style="fill: #d7a91d; stroke-width: 0px;"/>
  <path d="M270.95,522.98c-.81-2.64-2.83-3.97-5.26-4.81-9.75-3.37-19.12-7.7-28.1-12.66-5.7-3.15-10.5-7.85-14.98-12.7-5.77-6.24-10.79-12.91-11.95-21.67-.53-4.04-1.01-8.1-1.13-12.17-.12-4.36-.99-8.59-1.63-12.86-.38-2.57-2.38-2.88-4.52-2.78.5-1.98,1.16-4.21,3.56-4.11,2.04.09,2.89,2.18,3.58,3.94,2.49,6.29,3.64,12.92,4.74,19.53,2.5,15,11.45,25.62,22.9,34.62,8.83,6.94,19.24,11.17,28.88,16.71,1.16.67,2.33,1.33,3.43,2.09,3.54,2.42,3.62,3.82.48,6.87Z" style="fill: #d8ac1c; stroke-width: 0px;"/>
  <path d="M320.28,160.12c-.62,7.93-2.58,15.62-4.13,23.38-1.55,7.78-3.6,15.47-6.33,22.91-5,13.65-10.16,27.38-19.58,38.67-6.84,8.19-15.35,14.81-24.76,19.98-6.58,3.62-13.28,7.12-20.21,9.99-10.8,4.47-21.61,8.94-32.51,13.19-11.76,4.58-23.67,8.87-35.05,14.4-5.56,2.7-11.15,5.34-16.72,8.02-1.02.49-2.03.96-3.21.84,7.39-5.86,15.97-9.6,24.42-13.49,21.72-10,44.39-17.77,65.97-28.11,14.57-6.98,28.4-15.06,39.52-27.07,10.03-10.84,16.01-23.9,20.71-37.68,4.88-14.29,7.77-29.08,11.25-43.73.11-.46.41-.87.62-1.3Z" style="fill: #dba71f; stroke-width: 0px;"/>
  <path d="M407.2,450.7c1.89-10.71,4.99-21.07,10.29-30.58,9.23-16.57,23.74-27.45,40-36.41,19.7-10.86,41.2-16.45,62.7-22.25,12.31-3.32,24.93-6.06,36.05-12.86,2.34-1.43,4.53-3.04,6.51-4.96.96-.93,1.73-2.21,3.33-2.18-4.08,6.43-10.54,9.67-17.16,12.54-14.23,6.16-29.41,9.34-44.21,13.66-21.73,6.34-42.86,13.94-61.18,27.8-13.03,9.86-22.55,22.44-28.96,37.41-2.53,5.91-4.92,11.88-7.37,17.83Z" style="fill: #d0b74a; stroke-width: 0px;"/>
  <path d="M83.38,193.23c1.19-.59,1.09-1.89,1.54-2.87.42-.94.05-2.38,1.75-2.41,1.38-.03,1.9.96,2.49,1.93,4.01,6.59,6.08,13.94,6.98,21.43,1.18,9.83,2.91,19.65,2.4,29.62-.04.78,1.32,2.83-1.3,2.41-3.25-9.34-4.46-19.16-6.77-28.72-1.78-7.36-4.11-14.47-7.08-21.4Z" style="fill: #edcb06; stroke-width: 0px;"/>
  <path d="M547.27,307.01c-4.73-1.24-8.97-3.39-12.66-6.62,4.43,1.81,8.92,3.5,12.66,6.62Z" style="fill: #d7a91d; stroke-width: 0px;"/>
  <path d="M323.25,147.36c-.12,4.47-1.19,8.72-3,12.8.29-4.43,1.56-8.64,3-12.8Z" style="fill: #dba71f; stroke-width: 0px;"/>
  <path d="M369.72,578.03c.9-3.71,2.71-7.03,4.54-10.33-.54,3.87-2.17,7.27-4.54,10.33Z" style="fill: #d0b74a; stroke-width: 0px;"/>
  <path d="M496.45,284.48c-3.32-.37-6.39-1.41-9.02-3.54,3.24.59,6.14,2.02,9.02,3.54Z" style="fill: #d7a91d; stroke-width: 0px;"/>
  <path d="M559.43,314.45c-1.72-.33-4.91,1.38-3.87-2.78,1.55.57,2.71,1.68,3.87,2.78Z" style="fill: #d7a91d; stroke-width: 0px;"/>
  <path d="M440.24,257.53c-2.41-.35-4.57-1.04-5.26-3.78,2.03.87,3.8,2.12,5.26,3.78Z" style="fill: #d7a91d; stroke-width: 0px;"/>
  <path d="M505.62,288.18c-2.09-.06-4.17-.15-5.48-2.17,2.03.2,3.85.97,5.48,2.17Z" style="fill: #d7a91d; stroke-width: 0px;"/>
  <path d="M518.65,293.53c-2.27.09-4.2-.67-5.77-2.34,2.19.11,3.99,1.2,5.77,2.34Z" style="fill: #d7a91d; stroke-width: 0px;"/>
  <path d="M444.71,260.56c-2.31.18-3.48-1.32-4.49-3.04,1.69.73,3.4,1.43,4.49,3.04Z" style="fill: #d7a91d; stroke-width: 0px;"/>
  <path d="M324.76,141.22c.17,2.24.17,4.43-1.56,6.19,0-2.19.6-4.24,1.56-6.19Z" style="fill: #dba71f; stroke-width: 0px;"/>
  <path d="M512.93,291.22c-2.11.14-3.77-.85-5.29-2.15,2.05.01,3.69,1.04,5.29,2.15Z" style="fill: #d7a91d; stroke-width: 0px;"/>
  <path d="M530.72,298.77c-1.92-.26-3.91-.36-5.12-2.24,1.92.27,3.66.93,5.12,2.24Z" style="fill: #d7a91d; stroke-width: 0px;"/>
  <path d="M467.78,272.55c-1.77-.02-3.28-.57-4.32-2.09,1.71.13,3.14.87,4.32,2.09Z" style="fill: #d7a91d; stroke-width: 0px;"/>
  <path d="M500.14,286.01c-1.49.06-2.82-.24-3.73-1.56,1.44.05,2.67.6,3.73,1.56Z" style="fill: #d7a91d; stroke-width: 0px;"/>
  <path d="M481.41,278.54c-1.24.07-2.37-.1-2.97-1.38,1.22-.03,2.28.29,2.97,1.38Z" style="fill: #d7a91d; stroke-width: 0px;"/>
  <path d="M474.56,275.54c-1.19.07-2.26-.13-2.86-1.33,1.11.11,2.21.23,2.86,1.33Z" style="fill: #d7a91d; stroke-width: 0px;"/>
  <path d="M458.6,268.06c-1.13.06-2.07-.24-2.63-1.31,1.1,0,1.97.43,2.63,1.31Z" style="fill: #d7a91d; stroke-width: 0px;"/>
  <path d="M454.39,265.81c-1.22.07-2.31-.13-2.92-1.37,1.23-.09,2.13.52,2.92,1.37Z" style="fill: #d7a91d; stroke-width: 0px;"/>
  <path d="M444.42,325.91c1.32.43.97,1.55.98,2.46,0,.87-.13,1.94-1.37,1.56-1.24-.38-.78-1.62-.8-2.53-.02-.78.23-1.44,1.19-1.49Z" style="fill: #f1d60e; stroke-width: 0px;"/>
</svg>