<?xml version="1.0" encoding="UTF-8"?>
<svg id="Layer_1" data-name="Layer 1" xmlns="http://www.w3.org/2000/svg" viewBox="0 0 598.71 591.55">
  <path d="M334.65,529.47c.7-6.2,3.88-11.45,6.95-17.51-29.34,5.65-58.13,5.79-87.4-.45,2.01,3.99,4.15,7.4,5.07,11.32-.8,2.02-1.52.3-1.99-.15-1.6-1.57-2.07-3.91-4.02-6.22,1.15,6.7,3.16,12.41,5.02,18.15.86,2.66,2.47-.38,3.65.3-.01,3.46-.03,6.92-.04,10.38-2.94,1.39-5.75-.15-8.18-1.09-14.07-5.47-28.77-8.77-43.21-12.96-13.16-3.83-23.81-11.08-31.5-22.54-1.63-2.44-2.44-4.9-.92-7.68,5.34-5,11.83-8.02,19.05-10.54-12.47-7.16-24.01-14.76-34.94-23.23-3.62-2.81-7.35-5.56-10.29-9.16-2.8-2.95-5.68-5.82-8.62-8.63-4.76-4.38-8.41-9.73-12.8-14.78-3.01,11.81-7.26,22.61-16.93,30.36-2.2-1.4-3.93-3.5-5.12-5.56-2.5-4.32-5.78-8.14-8.09-12.52-5.37-10.17-12.62-19.08-18.95-28.59-6.68-10.04-9.18-20.79-7.81-32.57.36-3.1-.43-6.64,2.74-8.92,8.12-.69,15.94.73,24.14,4.03-4.01-9.55-6.93-18.65-8.44-28.15-.9-2.74.39-3.09,2.6-2.33.59.2,1.06.66,1.47,1.13,7.11,8.3,16.91,10.22,27.02,11.55,5.07.67,10.2.43,15.25,1.25,2.07.34,4.18.29,6.9-.02-6.76-4.71-13.09-9.01-18.95-13.95-3.76-3.16-6.71-7.01-9.94-10.62-.59-.66-.97-1.46-.69-2.4,2.38-1.14,3.31,1.03,4.41,2.2,6.75,7.17,14.62,12.75,23.48,16.99,3.15,1.51,6.41,2.74,9.73,3.81.83.29,1.67.57,2.51.84,1.63.63,3.3,1.09,5.01,1.46.84.25,1.68.52,2.53.75,1.19.43,2.46.38,3.69.6,1.42.34,2.87.55,4.3.85,1.23.43,2.53.43,3.81.5.57.04,1.12.13,1.67.27,1.64.56,3.34.37,5.03.42.76.02,1.52.12,2.26.29,1.83.6,3.66.56,5.48-.03,8.41-1.44,16.64-3.51,24.59-6.62,1.39-.34,2.8-.6,4.01-1.45.6-.38,1.23-.7,1.91-.91,3.24-.82,6.06-2.51,8.83-4.29,10.18-5.83,19.33-12.95,27.36-21.52,1.16-1.24,2.1-3.25,4.45-2.65.71,1.62-.49,2.57-1.33,3.59-7.7,9.4-16.71,17.37-26.68,24.29-4.07,2.83-8.23,5.52-13.11,8.74,3.65-.43,6.31-1.36,9.04-1.91,3.92-.8,5.2-.08,6.84,3.77-.67,3.79-1.65,7.59-.05,11.39-.34,2.63.74,5.1.87,7.68-.33,1.53.04,2.98.6,4.38,10.1,25.19,28.02,41.27,55.04,45.9,15.36,2.63,29.83-1.09,42.87-9.54,13.34-8.64,23.32-20.19,28.82-35.31.48-1.33.82-2.6.55-4,.21-2.9,1.19-5.62,1.88-8.41.69-2.03.56-4.15.62-6.24,1.05-4.8,1.84-5.31,6.49-5.03,2.78.17,5.38.74,7.94,1.87,2.28,1,4.68,1.75,7.15,2.14,8.62,1.36,17,3.81,25.55,5.47,2.47.48,4.66,1.74,6.86,2.91,7.58,4.05,15.03,8.36,23.17,11.28,1.53.55,2.92,1.39,4.32,2.22,8.9,5.25,18.27,9.69,27.01,15.23,2.69,1.7,4.44,1.29,6.68-1.15,5.72-6.23,8.54-13.99,12.14-21.35.89-1.81,1.51-3.77,4-3.88,3.75-2.02,7.79-2.94,12.01-3.21.96-.49,1.9-.24,3.56-.02-2.97,3.79-7.57,2.42-11.16,5.12,6.03-.54,11.38-.87,16.66-1.86.74-.14,1.56-.5,1.45-1.43-.37-3.02,1.51-2.05,3.03-1.79,2.84-.04,5.49.83,8.15,1.67.44,2.89-.18,5.74-1.54,8.11-8.22,14.37-15.27,29.33-22.34,44.27-4.04,8.54-10.11,14.97-18.11,19.72-2.89,1.71-6.02,2.98-8.88,4.75-2.31,1.42-4.5,1.01-6.56-.62-4.3-6.55-6.78-13.76-7.99-22.33-18.68,23.45-40.87,41.98-67.25,56.1,3.6,1.7,6.71,3.17,9.83,4.63-.59,1.96-2.04,1.3-3.27.99-1.31-.33-2.51-1.05-4.05-1.02,2.16,2.06,4.53,3.86,6.98,5.55,2.46,1.69,5.04,3.23,7.27,5.21,2.12,1.89,4.12,2.38,6.42.49,1.38,1.71,2.76,3.42,4.14,5.13-1.92,1.5-4.33,2.01-6.53,2.59-12.79,3.34-24.21,9.86-36.07,15.32-10.03,4.62-20.46,7.08-31.46,7.08-4.76,0-9.42-1.05-14.02-2.17-2.88-.7-4.73-2.32-3.63-5.69Z" style="fill: #f8da5b; stroke-width: 0px;"/>
  <path d="M83.55,217.52c4.03-3.7,8.79-4.8,14.13-4.12,2.58.33,5.19.4,7.78.59,1.11-.72,2.33-.67,3.6-.65,15.95.27,31.89,1.24,47.84,1.27,2.33-.14,4.66-.05,6.98-.03,20.92.65,41.85,1.05,62.77,1.66,14.18.42,27.92,3.91,40.8,10.06,7.86,3.75,16.2,5.04,24.68,5.38,8.58.34,17.19.41,25.78-.66,5.41-.68,10.42-2.4,15.33-4.62,15.22-6.88,31.16-10.46,47.89-10.33,14.21.11,28.42-.61,42.61-.99,11.09-.3,22.21.11,33.26-.63,10.6-.71,21.18-.44,31.77-.7,1.36-.03,2.75-.36,4.02.42,3.46-.25,6.94-.33,10.37-.78,5.8-.76,10.81.57,14.86,4.93,2.82,1.81,3.33,4.85,4.14,7.73.22,3.36,0,6.72.18,10.07.43,7.89-6.38,16.8-14.76,16.59-.89-.02-1.75.07-2.26.98-.41,5.96-.04,11.92-.19,17.87-.28,10.75-1.9,21.25-6.03,31.26-2.12,5.01-4.61,9.83-7.4,14.5-11.66,17.25-27.16,29.37-47.26,35.29-7.08,2.09-14.3,3.34-21.72,3.45-10.25.15-20.44.04-30.43-2.78-3.97-1.12-7.77-2.69-11.66-4.01-14.76-6.8-27.26-16.34-36.26-30.09-8.83-12.99-13.55-27.37-14.35-43.01-.17-3.34-2.33-5.05-4.45-6.96-2.53-1.93-4.98-3.98-7.87-5.39-1.66-.72-3.1-1.84-4.78-2.52-7.78-4.4-15.7-4.52-23.74-.78-1.14.5-2.27,1.04-3.39,1.6-1.89.81-3.64,1.86-5.32,3.03-1.48.95-2.93,1.94-4.18,3.18-3.36,2.15-4.95,4.98-5.28,9.19-1.19,14.85-5.3,28.86-13.49,41.49-9.04,12.6-20.55,22.3-34.43,29.2-2.02,1-4.09,1.85-6.21,2.58-22.78,7.97-45.55,7.7-68-.92-13.98-5.37-25.65-14.19-34.77-26.19-4.41-5.35-7.86-11.29-10.82-17.54-2.22-5.45-4.1-11.01-5.4-16.77-1.11-5.05-1.8-10.14-1.73-15.32.13-5.84-.04-11.68.08-17.52.05-2.63-.88-4.05-3.66-3.84-3.33-.16-6.07-1.71-8.66-3.64-3.56-3.69-5.23-8.06-4.96-13.23.16-3.11-.14-6.24.1-9.34.28-3.55,1.13-6.91,4.48-8.96Z" style="fill: #292727; stroke-width: 0px;"/>
  <path d="M492.79,214.18c-1.28.59-2.66.6-4.03.63-35.8.8-71.59,1.76-107.39,2.35-17.47.29-34.13,3.7-49.86,11.29-6.23,3.01-12.87,3.85-19.57,4.27-11.97.75-23.94.57-35.75-1.94-5.77-1.23-10.76-4.47-16.27-6.44-12.31-4.4-24.93-6.82-38.01-7.11-19.33-.43-38.65-1.04-57.97-1.57.52-3.48,3.38-5.42,5.48-7.69,14.48-15.6,30.32-29.64,48.62-40.7.14-.08.24-.15.32-.2,7.25-4.7,7.41-6.69.8-11.93-7.13-5.66-14.23-11.37-21.35-17.04-3.36-2.68-6.67-2.93-10.38-.92-8.27,4.5-15.58,10.39-22.85,16.23-11.45,9.2-21.27,19.96-28.57,32.84-2.16,3.81-3.91,7.79-4.88,12.1-.56,2.52.15,4.35,2.45,5.65,4.25,2.41,8.18,5.28,11.67,8.7,1.9,1.86,4.22,1.03,6.36,1.37,1.89.31,4.31-1.16,5.57,1.5-17.24-.33-34.51,0-51.71-1.59,9.1-19.77,21.08-37.63,35.74-54.09-2.44-1.11-5.04.23-7.21-1,1.49-1.66,3.48-.92,5.26-1.02,1.67-.09,3.09-.38,4.33-1.71,11.05-11.86,23.42-22.19,36.87-31.2,2.65-1.77,5.04-3.98,8.07-5.17,1.45,1.49,2.22-.26,3.1-.77,20.84-12.07,43.11-20.27,66.69-25.07,3.28-.67,7,.14,9.76-2.55,4.73-1.26,9.62-1.28,14.43-1.67,15.43-1.23,30.85-.98,46.21,1.23.39.06.67.3.98.51,1.67,1.96,4.17,1.51,6.25,1.87,26.16,4.41,50.45,13.74,73.17,27.33.84.5,1.77.86,2.65,1.28,4.25,1.04,7.34,4.08,10.79,6.43,10.2,6.94,19.76,14.8,28.2,23.71,4.72,4.99,9.11,8.45,16.15,7.35.71-.11,1.48.2,1.97.86-3.19,1.47-6.61.29-10.55,1.03,14.12,16.14,25.69,33.6,34.48,52.84Z" style="fill: #f8da5b; stroke-width: 0px;"/>
  <path d="M498,303.36c5.44-14.18,6.46-28.95,6.01-43.94-.07-2.34.17-4.7.27-7.04,2.93-.99,3.01,1.45,3.48,3.08,2.01,6.97,3.02,14.15,3.98,21.31.74,5.55.86,11.17,1.56,16.74.15,1.22.31,2.49-.27,3.68-1.14.61-.85,1.7-.84,2.65.27,17.83-1.69,35.42-5.79,52.77-2.14,9.06-4.91,17.91-8.16,26.63-.42,1.13-1.81,2.35-.21,3.65-3.78,2.77-4.37,7.38-6.25,11.19-2.88,5.82-6.02,11.37-10.37,16.2-1.56,1.73-2.92,2.01-5.15.7-10.06-5.88-20.12-11.8-30.48-17.12-5.7-2.93-11.83-5.04-17.47-8.18-2.49-1.39-5.25-2.3-7.55-4.05-4.47-3.41-10.13-3.05-15.14-4.76-7.62-2.6-15.85-2.62-23.45-5.36-3.11-1.12-6.17-2.07-9.56-2.51-3.95-.51-4.44,1.36-4.93,4.1-1.77-.14-1.5-1.69-1.82-2.75-.71-2.42-1.68-4.61-4.1-5.81-4.71-2.27-9.55-1.11-14.33-.49-3.21.42-6.35,1.27-9.54,1.84-1.33.24-2.7.7-3.96-.27-.29-2.37,2.36-2.26,3.26-3.92-4.53-3.01-9.6-2.09-14.39-1.65-4.86.44-9.69.61-14.54.53-5.02-.09-9.92.54-14.82,1.55-5.16,1.07-10.39-.09-15.6.04-4.82.12-9.65-.15-14.46.17-.5.06-.21.49-.17.48,2.31-.57,3.73.36,4.28,2.67-1.56,1.46-3.28.67-4.92.3-5.45-1.23-10.9-2.39-16.52-2.39-2.36,0-4.71,0-6.92,1.02-1.53.58-2.01,2.77-4.02,2.61-1.66-2.66-3.69-3.43-6.91-2.45-3.06.93-6.23,2.43-10.15,1.31,3.91-3.65,8.34-5.9,12.39-8.64,11.01-7.44,20.78-16.19,29.27-26.39.5-.6.87-1.2.9-1.99-.69-1.9.73-3.01,1.68-4.24,12.59-16.34,19.87-34.87,23.14-55.14.45-2.77-1.43-5.35-.07-8.01,1-.49,1.99-.97,2.99-1.46,2.5,1.4,2.4,3.9,2.49,6.21.22,5.88-1.07,11.63-1.77,17.43-.12.99-.35,1.96-.46,2.95-.5,4.56.34,5.35,4.6,3.61,5.04-2.05,10.43-2.27,15.64-3.42,2.91-.64,4.13-2.12,3.84-4.89-.48-4.58-.66-9.17-1.07-13.75-.24-2.71-.58-5.52,2.16-7.39,1.86.04,2.65,2.11,4.41,2.33.67.64.91,1.46.89,2.36-.3,10.98,3.2,21.19,6.45,31.44,6.6,19,17.06,35.36,32.52,48.49,15.01,12.75,31.87,21.28,51.5,24.02,1.49.21,2.95.42,4.46.2,18.98-2.82,36.89-8.69,53.18-18.97,6.46-4.07,12.21-9.03,16.64-15.35,6.86-8.73,11.59-18.47,13.96-29.35.19-.87.27-1.7.25-2.57Z" style="fill: #f8da5b; stroke-width: 0px;"/>
  <path d="M262.05,86.12c-7.47-7.93-12.12-17.25-13.44-28.09C244.71,25.94,268.28-.35,300.57,0c23.02.25,43.83,17.47,48.28,40.33,2.86,14.7.54,28.45-8.86,40.56-15.98-11.38-33.95-14.39-53.09-12.77-4.74.4-9.38,1.07-13.98,2.21-2.43.6-4.95.38-7.44.07-1.32-.17-2.94-.96-3.85.34-1.02,1.47.37,2.81,1.09,4.05,1.87,3.24,3.88,6.39,6,9.47.56.82,1.19,1.6,1.62,2.51.5,1.04.92,2.18-.08,3.1-.99.92-2.01.45-3.06-.15-1.83-1.05-3.11-2.88-5.15-3.61Z" style="fill: #f8ce4a; stroke-width: 0px;"/>
  <path d="M131.78,158.66c-13.45-1.87-24.51-8.1-32.76-18.81-21.44-27.84-10.53-67.25,22.33-79.53,29.07-10.85,60.29,6.44,67.3,36.41.39,1.67,1.19,3.32.75,5.13-1.88,1.38-3.88-.12-5.81.25-6.11,1.16-12.09,2.45-17.92,4.99-13.45,5.87-23.11,16.23-33.1,26.29-3.77,3.8-7.31,7.86-11.89,10.79-.98.63-2.59,1.17-2.3,2.62.27,1.32,1.91,1.44,3.04,1.86,4.91,1.84,10,3.12,15,4.67,1.07.33,2.19.55,3.16,1.14.88.53,1.69,1.2,1.35,2.39-.3,1.04-1.24,1.1-2.13,1.15-2.35.13-4.75-.29-7.02.65Z" style="fill: #f8d655; stroke-width: 0px;"/>
  <path d="M411,116.85c-1.85-10.04,0-19.66,4.37-28.61,16.06-32.91,59.15-39.38,83.89-12.37,24.8,27.07,13.68,70.7-21.86,82.77-.34.11-.74.04-1.11.05,1.36-8.46-2.93-15.12-7.14-21.68-8.45-13.16-21.32-21.33-34.02-29.69-4.67-3.07-9.33-6.22-13.3-10.24-.59-.6-1.18-1.51-2.16-1.21-1.03.32-.81,1.42-.92,2.24-.83,6.04-1.55,12.09-2.16,18.16-.07.74-.03,1.5-.19,2.23-.25,1.16-.73,2.26-2.06,2.32-1.58.08-2.04-1.21-2.33-2.45-.28-1.2-.01-2.46-.25-3.54-.14.61.19,1.57-.77,2.03Z" style="fill: #f7da5a; stroke-width: 0px;"/>
  <path d="M334.65,529.47c-.25,2.72,1.1,4.15,3.67,4.68,8.26,1.69,16.35,2.53,24.97,1.28,13.68-1.98,24.99-9.21,37.27-14.33,5.79-2.41,11.27-5.66,17.66-6.61,2.76-.41,5.06-2.79,8.15-2.15,13.01,17.59,11.22,45.21-3.82,61.82-10.07,11.12-22.52,17.12-37.44,17.39-26.19.47-46.81-17.81-51.11-41.86-1.21-6.75-1.67-13.55.67-20.22Z" style="fill: #f8d352; stroke-width: 0px;"/>
  <path d="M178.09,501.01c-.37,7.84,5.28,12.37,10.08,16.9,9.6,9.06,21.94,12.42,34.44,15.61,10.26,2.62,20.58,5.25,30.41,9.44,2.78,1.19,5.91,1.57,8.88,2.32-3.78,28.86-29.19,48.64-57.68,44.92-22.14-2.89-40.2-20.65-43.32-42.78-2.62-18.53,2.98-34.09,17.19-46.42Z" style="fill: #f8d857; stroke-width: 0px;"/>
  <path d="M76.33,376.88c-4.11,14.58-2.6,28.12,6.02,41.06,6.25,9.38,13.1,18.36,18.77,28.18,3.14,5.43,5.85,11.47,11.01,15.58,1.11.89.45,2.44,1.42,3.34-5.64,6.16-12.86,9.65-20.75,11.66-29.01,7.4-56.82-9.78-63.26-38.9-6.31-28.56,14.5-57.78,43.42-60.92,1.1-.12,2.23,0,3.35,0Z" style="fill: #f7da5a; stroke-width: 0px;"/>
  <path d="M474.28,457.6c7.64,1.55,12.76-3.84,18.33-7.22,6.64-4.03,11.21-10.22,14.55-17.47,6.26-13.56,12.77-27.03,19.92-40.14,2.04-3.74,2.91-7.69,4.63-11.4,19.68,5.43,34.57,24.14,36.15,44.24,1.99,25.26-13.61,47.01-36.72,53.59-21.65,6.17-45.29-2.59-56.87-21.6Z" style="fill: #f7da5a; stroke-width: 0px;"/>
  <path d="M47.87,307.75c-18.31.16-38.62-14.84-44.82-33.09-8.78-25.87,1.78-52.13,26.29-63.78,14.88-7.07,30.05-6.93,44.83.98-1.01,2.28-3.65,2.43-5.23,4.03-3.09,3.14-5.82,6.59-7.85,10.44-3.11,5.89-7.37,11.36-7.38,18.54,0,1.61-.25,3.21.08,4.83.33,1.6.54,3.27.25,4.84-1.48,8.08-.78,16.42-3.13,24.4-1.76,6-2.61,12.18-2.96,18.44-.1,1.8.23,3.13,1.93,4.04,1.39.74,3.22,1.41,2.83,3.47-.37,1.98-2.24,2.07-3.82,2.41-.36.08-.69.29-1.02.46Z" style="fill: #f7da5b; stroke-width: 0px;"/>
  <path d="M533.97,211.1c8.85-3.08,17.91-2.93,26.69-.38,20.61,5.98,33.58,19.63,37.26,40.84,4.17,24.09-8.49,46.05-30.4,55.42-8.83,3.78-18.1,5.1-27.66,3.2.46-.68,1.18-.93,1.93-1.02,5.58-.63,8.57-4.06,10.1-9.16.72-2.39,1.63-4.72,2.2-7.15,1.55-6.6,2.3-12.85-.87-19.59-3.42-7.27-6.28-14.91-8.03-22.91-1.18-5.39-1.28-10.87-2.12-16.29-.73-4.69-2.28-9.2-2.69-13.93-.21-2.38-2.08-2.87-4.03-3.11-.75-.09-1.49.02-2.24.09-1.66.14-3.46.3-4.07-1.69-.59-1.93,1.19-2.48,2.4-3.27.52-.34,1.13-.53,1.53-1.04Z" style="fill: #f7da5a; stroke-width: 0px;"/>
  <path d="M47.87,307.75c.67-2.09,4.53-.91,4.13-3.48-.29-1.86-2.97-1.93-4.49-2.94-.84-.56-1.09-1.13-.97-2.16.99-8.49,3.15-16.82,4.33-25.2,1.17-8.31,3.27-16.78,1.7-25.47-.64-3.55-.18-7.63,1.42-10.92,3.54-7.24,7.11-14.52,12.48-20.7,2.12-2.44,4.7-4.01,7.7-5.02,3.58,1.14,6.18,3.89,9.37,5.66-5.39,7.57-3.85,16-2.89,24.31.31,2.67,2.31,4.58,3.97,6.57.78,1.71-.03,3.18-.8,4.6-1.67,3.07-3.5,6.06-5.56,8.87-1.9,2.59-3.13,5.35-3.56,8.52-.83,6.18-.63,12.42-1.06,18.63-.22,3.13.79,3.62,3.92,3.07,2.65-.47,5.12-2.18,7.99-1.26.37.18.61.47.73.86-.54,2-1.75,3.27-3.89,3.5-.91-.75-1.93-.48-2.83-.13-5.09,1.97-9.72,4.8-14.43,7.52,4.03-.41,7.57-1.93,10.96-4.06,2-1.25,3.49-3.63,6.33-3.29.3.53.26,1.03-.12,1.5-4.22,4.58-9.84,6.63-15.52,8.52-6.13,2.04-12.4,3.28-18.92,2.51Z" style="fill: #f9c038; stroke-width: 0px;"/>
  <path d="M533.97,211.1c-.38,1.14-1.26,1.81-2.24,2.39-.77.45-1.6.95-1.03,2.03.48.9,1.39.99,2.29.86.49-.07.94-.33,1.43-.43,4.36-.85,6.36,1,7.18,5.28.97,5.09,2.02,10.16,2.9,15.28.96,5.59,1.04,11.26,2.51,16.85,1.98,7.49,4.93,14.62,7.98,21.6,1.86,4.25,1.88,8.07,1.37,12.12-.63,5.04-2.29,9.89-3.96,14.7-2.08,6.01-6.39,8.54-12.54,8.4-5.64-.55-10.9-2.22-15.69-5.26,5.64-8.37,5.41-18.1,6.55-27.57,1.6-13.3-1.8-25.64-6.55-37.77-1.39-3.56-1.67-7.25-2.11-10.95-.13-1.11-.03-2.25-.79-3.2-.94-2.44-1.73-4.94-3.25-7.11,4.96-3.22,10.08-6.06,15.96-7.23Z" style="fill: #f9c53f; stroke-width: 0px;"/>
  <path d="M411,116.85c.09-1.23.18-2.46.29-3.91,1.5,1.64,1.14,3.54,1.47,5.27.15.81.38,1.93,1.41,1.96,1.37.04,1.4-1.19,1.44-2.18.24-7.08,1.59-14.03,2.27-21.06.11-1.11-.17-2.46,1.09-2.95,1.32-.52,1.95.82,2.71,1.56,5.18,5.06,11.41,8.67,17.21,12.89,10.46,7.61,21.77,14.25,29.34,25.46,3.54,5.23,6.24,10.68,8.62,16.39,1.16,2.79,1.93,5.74-.55,8.38-2.41.85-4.83,1.69-7.44,1.63-8.45,1.55-13.94-2.28-19.72-8.39-10.39-10.99-22.53-20.19-35.35-28.36-.72-.46-1.36-1.06-2.03-1.59-.25-1.7-.5-3.4-.75-5.11Z" style="fill: #fbac1d; stroke-width: 0px;"/>
  <path d="M131.78,158.66c1.82-1.89,4.19-1.16,6.37-1.36.8-.08,2.01.34,2.16-.85.13-1.07-.99-1.24-1.82-1.5-6.63-2.13-13.43-3.69-19.9-6.36-2.88-1.19-3.17-1.87-.47-3.71,6-4.07,10.91-9.3,15.84-14.63,5.8-6.27,11.87-12.69,18.97-17.25,8.99-5.78,18.73-10.77,29.81-11.89,2.3-.23,4.42.57,6.64.76.03.47.06.93.09,1.4.47,3.54.51,7.09-.02,10.63.22,2.06-.54,3.96-.94,5.92-1.01,1.82-2.78,2.76-4.45,3.82-12.96,8.22-24.82,17.89-35.52,28.81-4.3,4.39-8.31,7.42-14.57,6.47-.73-.08-1.47-.16-2.21-.25Z" style="fill: #fbaf20; stroke-width: 0px;"/>
  <path d="M86.02,292.13c0-.25,0-.51,0-.76-1.39-3.14-.41-6.38-.15-9.5.69-8.28,2.14-16.48,3.85-24.61.4-1.9.57-4,2.56-5.15,5.67-.19,4.5.05,4.59,4.49.12,5.82-.22,11.64.18,17.46.57,5.27,1.14,10.55,1.7,15.82.74,1.13.06,1.84-.75,2.5-1.69.37-2.37,1.5-2.64,3.16-1.73,10.75-1.14,21.3,2.7,31.55.74,1.96,1.34,5.17,3.87,4.71,2.18-.4,1.65-3.5,1.79-5.55.18-2.62-.26-5.2-.78-7.76-.29-1.44-.82-2.9-.06-4.37,1.38-1.01,1.79.29,2.06,1.06,2.62,7.4,6.14,14.29,10.97,20.5.31.4.3.92.07,1.4,2.8,4.72,6.43,8.78,10.59,12.26,6.08,5.08,12.38,9.9,19.26,13.9.64.37,1.47.71,1.2,1.61-.28.92-1.23.67-1.93.67-6.69.03-13.34-1.21-19.97-1.27-7.6-.07-14.23-2.73-21.08-5.27-3.56-1.32-6.32-3.27-8.31-6.48-.55-.89-1.37-1.93-2.65-1.8-1.24.12-.89,1.27-1.05,2.07-2.56-7.52-3.22-15.42-4.52-23.18-1.95-11.68-1.51-23.47-1.48-35.24-.68-.73-.52-1.47,0-2.21Z" style="fill: #f8d04f; stroke-width: 0px;"/>
  <path d="M262.05,86.12c2.57-.92,3.35,1.79,5.1,2.55.86.37,1.6,1.66,2.57.86,1.28-1.05-.03-1.98-.59-2.86-2.61-4.08-5.22-8.17-7.87-12.23-.97-1.5-2.17-3.18-1.08-4.8,1.02-1.5,2.98-.83,4.51-.48,3.22.72,6.34.5,9.58-.14,14-2.76,27.91-3.99,41.98.38,5.8,1.8,11.71,3.17,17.29,5.66,2.82,1.26,5.31,2.77,6.44,5.84-2.71,4.24-6.25,7.67-10.31,10.6-3.32,1.5-6.68.05-9.88-.3-10.01-1.11-19.98-1.21-30.01-.66-5.81.32-11.61.66-17.38,1.48-1.51.21-2.97.13-4.35-.59-2.27-1.46-4.55-2.91-6.01-5.29Z" style="fill: #fbb022; stroke-width: 0px;"/>
  <path d="M521.26,225.44c2.36,1.72,1.81,4.46,2.17,6.78.34,2.22.52,4.5,1.53,6.48,4.47,8.79,5.39,18.52,7.49,27.93.75,3.35-.46,6.68-.77,10-.72,7.75-.43,15.66-3.54,23.08-.9,2.16-1.92,4.02-3.98,5.2-4.28-1.76-7.88-4.5-11.14-7.73-1.09-2.81-1.27-5.81-1.43-8.73-.63-11.29-2.23-22.41-5.06-33.36-.33-1.26-.2-2.9-2.26-2.72,2.05-1.11,4.36-.23,6.51-.93,6.15-2.03,10.26-7.39,10.42-14.04.1-3.99.05-7.97.06-11.96Z" style="fill: #fab72c; stroke-width: 0px;"/>
  <path d="M422.22,507.21c-.97,3.03-2.63,3.54-5.22,1.61-5.26-3.93-10.61-7.74-15.91-11.62-.76-.56-2.04-1.14-1.46-2.25.56-1.06,1.73-.26,2.68-.17,2.24.19,3.99,2.96,6.56,1.22,5.22,2.82,9.91,6.28,13.35,11.22Z" style="fill: #f8d352; stroke-width: 0px;"/>
  <path d="M261.95,534.91c-1.45.2-1.14,2.92-2.87,2.3-1.44-.52-1.84-2.19-2.25-3.65-1.32-4.75-2.7-9.48-4.03-14.23-.2-.71-.42-1.44-.43-2.16-.02-.79-.4-1.93.78-2.16.82-.16,1.17.72,1.53,1.37,1.01,1.84,1.98,3.71,3.07,5.49.29.47.4,1.65,1.53.97,1.92,3.8,2.37,7.92,2.67,12.07Z" style="fill: #fbdb62; stroke-width: 0px;"/>
  <path d="M523.57,379.7c0,.92-4.52-1.53-1.37,1.9.98,1.07-.5,1.51-1.37,1.95-2.08,1.05-4.38.73-6.56,1.09-3.89.64-7.86.8-11.8,1.1-.81.06-1.9.16-1.96-1.11-.04-.98.89-1.08,1.57-1.28,3.41-.99,6.84-1.95,10.34-2.94-.69-.97-1.68-.33-2.38-.73,4.52-1.03,9.03-1.02,13.54.03Z" style="fill: #fadb65; stroke-width: 0px;"/>
  <path d="M143.3,449.46c3.63,2.12,6.48,5.02,8.62,8.63-3.24-2.51-6.17-5.34-8.62-8.63Z" style="fill: #6e6555; stroke-width: 0px;"/>
  <path d="M189.46,113.89c0-3.54.02-7.09.02-10.63.97,3.55.91,7.09-.02,10.63Z" style="fill: #f8d655; stroke-width: 0px;"/>
  <path d="M86.02,292.13c0,.74,0,1.47,0,2.21-1.24.79-2.48,1.58-3.73,2.37,0-.53,0-1.05-.01-1.58h0c1.24-1,2.48-2,3.73-3Z" style="fill: #fba817; stroke-width: 0px;"/>
  <path d="M366.82,379.84c-.63,2.73-1.25,5.46-1.88,8.18-2.23,9.61-7.41,17.51-14.3,24.38-.65.64-1.5.88-2.42.53-3.9-3.77-8.71-3.13-13.4-2.57-6.55.78-13.1,1.63-19.55,3-13.86,2.96-27.67,2.44-41.51.04-2.82-.49-5.68-.79-8.48-1.34-4.33-.86-8.4-.59-12.15,1.92-1.38.19-2.39-.51-3.28-1.43-6.66-6.94-11-15.25-14.28-24.19-.21-.59-.09-1.23-.02-1.85-.04-2.71-2.07-5.16-1.07-8.01,1.65-.68,3.21-.03,4.73.42,25.72,7.62,52.07,9.96,78.71,8.55,14.67-.77,29.16-3.44,43.43-7.09,1.77-.45,3.54-1.34,5.45-.56Z" style="fill: #000; stroke-width: 0px;"/>
  <path d="M366.82,379.84c-11.53,3.65-23.36,5.89-35.34,7.39-24.4,3.06-48.7,2.21-72.83-2.45-8.16-1.58-16.29-3.46-24.16-6.26-2.08-3.95-.77-7.72.58-11.49,1.06-.94,1.64-2.37,3.06-2.94,1.28-.29,2.45.11,3.63.54,15.48,5.57,31.55,8.17,47.86,9.59,19.45,1.7,38.5-1.17,57.45-5.09,4.14-.86,8.2-2.15,11.9-4.33,1.1-.65,2.26-1.02,3.56-.9,3.85,1.87,3.93,5.84,5.12,9.19-.3,2.25.54,4.64-.83,6.75Z" style="fill: #fdfdfc; stroke-width: 0px;"/>
  <path d="M116.29,385.63c.94.49,1.95.94,2.9,1.51,5.12,3.11,8.61,7.93,12.31,12.4,11.8,14.26,23.2,28.86,33.25,44.43,2.56,3.97,5.32,7.86,7.03,12.31.45,1.16,1.67,2.52.41,3.78-1.31,1.32-2.55.01-3.73-.51-4.38-1.93-8.02-5.03-11.66-8.01-15.24-12.46-27.03-27.76-36.06-45.18-2.56-4.95-5.21-9.98-6.08-15.59-.26-1.65-1.27-4,1.63-5.15Z" style="fill: #fdea75; stroke-width: 0px;"/>
  <path d="M285.32,261.47c2.78,7.53.14,14.74-1.78,21.78-4,14.6-10.08,28.32-19.29,40.5-1.26,1.67-3.05,2.98-3.68,5.11-5.54,4.36-9.72,10.17-15.47,14.31-5.17,3.73-10.01,7.98-16.05,10.36-2.82,1.79-5.84,3.17-8.91,4.46-.53.26-1.05.52-1.58.78-1.16.65-2.49.86-3.66,1.47-8.15,3.64-16.67,5.91-25.55,6.78-1.71.58-3.41.59-5.12,0-.78-.01-1.56-.03-2.34-.04-1.62-.9-3.53.26-5.15-.71-.53-.01-1.06-.02-1.59-.04-1.1-.84-2.57.18-3.66-.71-1.58.03-3.17.18-4.58-.78-1.1-.84-2.57.18-3.66-.72-.86,0-1.78.16-2.32-.78-1.7-.58-3.5-.81-5.18-1.46-.85,0-1.77.16-2.31-.78-14.82-5.04-27.25-13.55-37.48-25.41-5.98-6.94-9.39-15.14-12.38-23.6-.42-1.19-.62-2.44.39-3.51,1.78.09,1.58,1.77,1.98,2.76,11.13,27.3,32.32,42.16,60.16,48.87,6.44,1.55,13.02,2.25,19.59,2.84,5.17.46,10.17-1.23,15.03-2.69,32.38-9.68,56.8-29,71.12-60.04,3.76-8.16,6.24-16.84,7.77-25.73.36-2.1.29-4.23-.05-6.34-.2-1.23-.5-2.48.52-3.53,1.62-1.24,3.18-2.58,5.22-3.13Z" style="fill: #bda23f; stroke-width: 0px;"/>
  <path d="M349.14,412.91c6.98-7.2,12.28-15.48,15.8-24.88.7,4.77-2.08,8.48-4.04,12.31-7.33,14.33-18.58,24.97-32.99,31.75-20.29,9.54-40.62,8.56-59.97-2.82-14.68-8.63-25.54-20.87-31.47-37.1-.66-1.79-2.05-3.53-.91-5.64,3.55,10.25,8.76,19.47,16.75,26.96,3.19,1.69,5.7,4.26,8.47,6.5,2.79,2.25,5.8,4.16,8.95,5.88,20.99,10.63,41.85,10.74,62.57-.75,5.01-2.69,9.6-5.93,13.49-10.11.92-.99,1.87-1.98,3.35-2.11Z" style="fill: #fac15b; stroke-width: 0px;"/>
  <path d="M104.04,308.62c1.39,8.5,4.84,16.09,9.9,23.04,9.66,13.29,22.41,22.36,37.66,28.13.67.25,1.24.79,1.85,1.2-9.44-2.06-17.36-7.11-25.07-12.63-4.58-3.29-7.94-7.88-12.39-11.28-5.98-6.76-9.34-14.95-12.69-23.16-1.79-1.17-1.79-3.18-2.32-4.93-1.27-4.18-2.26-8.43-3.26-12.68-.34-1.45-.92-2.91.27-4.25.26-.72.52-1.44.78-2.16,1.79,5.46,3.59,10.92,5.38,16.38.27.8.46,1.59-.1,2.36Z" style="fill: #c4aa4b; stroke-width: 0px;"/>
  <path d="M127.74,437.52c-.64,6.35-3.72,11.76-6.58,17.26-.61,1.17-1.78,2.17-2.97,1.71-1.38-.53-.59-1.93-.17-2.9,2.33-5.46,4.69-10.91,7.11-16.33.38-.84.98-1.94,2.17-1.63.94.25.54,1.21.43,1.89Z" style="fill: #fcde64; stroke-width: 0px;"/>
  <path d="M220.14,358c2.76-1.91,5.72-3.42,8.91-4.46-2.42,2.58-5.48,3.9-8.91,4.46Z" style="fill: #c4aa4b; stroke-width: 0px;"/>
  <path d="M155.75,361.78c1.87-.04,3.65.3,5.18,1.46-1.91.16-3.67-.21-5.18-1.46Z" style="fill: #c4aa4b; stroke-width: 0px;"/>
  <path d="M176.73,366.27c1.71.3,3.59-.64,5.15.71-1.72-.22-3.6.75-5.15-.71Z" style="fill: #c4aa4b; stroke-width: 0px;"/>
  <path d="M184.23,367.02c1.71,0,3.42,0,5.12,0-1.71,1.19-3.42,1.2-5.12,0Z" style="fill: #c4aa4b; stroke-width: 0px;"/>
  <path d="M214.9,360.25c.97-1.12,2.24-1.49,3.66-1.47-.92,1.24-2.21,1.57-3.66,1.47Z" style="fill: #c4aa4b; stroke-width: 0px;"/>
  <path d="M163.25,364.02c1.23.19,2.62-.46,3.66.72-1.24-.12-2.64.57-3.66-.72Z" style="fill: #c4aa4b; stroke-width: 0px;"/>
  <path d="M171.49,365.52c1.23.19,2.62-.46,3.66.71-1.24-.12-2.64.57-3.66-.71Z" style="fill: #c4aa4b; stroke-width: 0px;"/>
  <path d="M157.17,215.58c-1.06-.98-2.42-.77-3.57-.58-5.08.87-9.09-.9-12.52-4.54-2.33-2.47-5.3-4.1-8.21-5.78-2.24-1.3-3.37-2.78-2.79-5.72,1.87-9.48,7.21-17.11,12.73-24.62,10.53-14.34,24.67-24.73,38.94-34.93,1.41-1.01,3.02-1.73,4.5-2.65,4.6-2.88,8.57-2.47,12.86,1.17,7.75,6.58,15.91,12.67,23.88,18.98,2.9,2.29,3.02,4.52.44,7.17-4.84,4.96-11.17,7.84-16.74,11.77-13.62,9.6-25.44,21.12-36.97,33.01-2.07,2.13-3.86,4.53-5.78,6.81-2.26-.03-4.51-.05-6.77-.08Z" style="fill: #fae87c; stroke-width: 0px;"/>
  <path d="M250.8,265.91c-.14,2.83-.02,5.88-.71,9-1.9,8.49-7.31,12.95-15.5,14.49-5.58,1.05-10.95,3.16-16.82,2.78-9.65-.63-18.93-2.43-27.37-7.43-3.55-2.1-5.77-6.69-4.55-10.55.85-2.69,1.71-5.51,3.5-7.8,5.04-6.47,8.9-13.74,13.9-20.27,3.39-4.42,7.73-6,12.66-5.56,8.02.72,15.94,2.43,23.47,5.4,8.51,3.36,11.42,7.85,11.42,17.07,0,.87,0,1.75,0,2.88Z" style="fill: #4b4c4d; stroke-width: 0px;"/>
  <path d="M350.51,264.11c-1.08-5.75,1.1-11.31,6.45-15.51,3.7-2.91,8.31-3.88,12.71-5.06,4.89-1.31,9.9-2.3,14.92-2.96,4.15-.54,8.23.14,11.23,3.63,7.56,8.8,14.03,18.35,18.8,28.92,2,4.44.21,9.08-4.13,11.39-11.8,6.27-24.12,9.79-37.58,6.1-3.82-1.05-7.75-1.58-11.48-3.06-7.71-3.07-9.95-9.51-10.88-16.82-.23-1.84-.03-3.74-.03-6.63Z" style="fill: #4c4c4d; stroke-width: 0px;"/>
  <path d="M498,303.36c1.62,2.46.04,4.77-.5,7.02-2.28,9.45-6.91,17.76-12.94,25.32-12.87,15.23-29.84,23.24-48.83,27.64-5.71,1.32-11.5,2.28-17.31,2.96-7.48.88-14.61-1.11-21.66-3.22-18.74-5.62-35.15-15.23-48.91-29.18-10.28-10.43-17.73-22.7-22.81-36.43-2.32-2.94-2.94-6.57-3.59-10.03-1.05-5.58-2.83-10.99-3.61-16.66-.38-2.72.97-5.12.32-7.69,2.84,1.23,5.16,3.2,7.43,5.25.41,8.47,2.19,16.63,5.06,24.62,3.12,8.72,7.63,16.66,12.75,24.3.49.73,1.05,1.38,1.81,1.84,9.05,12.98,20.97,22.51,35.22,29.24,9.71,5.28,20.06,8.84,30.89,10.79,7.36,1.32,14.62-.62,21.8-2.09,14.36-2.93,27.7-8.31,39.19-17.53,7.82-6.27,14.54-13.59,18.88-22.81,2.27-4.45,4.55-8.9,6.82-13.35Z" style="fill: #ae8c2e; stroke-width: 0px;"/>
  <path d="M104.04,308.62c.03-.79.07-1.57.1-2.36,3.24,5.68,6.23,11.5,10.3,16.66,3.97,6.26,9.11,11.4,14.91,16,13.47,10.68,29.06,16.16,45.7,19.39,11.8,2.29,22.76-.52,33.6-4.64,2.9-1.11,5.93-1.95,8.52-3.77,16.08-6.59,29.01-17.2,39.54-30.9,10.47-13.28,16.69-28.37,19.29-45.03.35-2.21-.76-4.45.28-6.61.92-1.42,2.41-2.05,3.84-2.75,2.14,17.14-4.53,32.12-12.69,46.21-15.04,25.98-38.14,41.93-66.64,50.6-10.69,3.25-21.26,2.47-31.89.3-12.66-2.58-24.69-6.92-35.3-14.43-13.17-9.33-23.56-20.96-28.59-36.7-.22-.68-.63-1.31-.95-1.96Z" style="fill: #a4822a; stroke-width: 0px;"/>
  <path d="M313.74,260.76c-2.61,5.54-.32,11.22-.37,16.82-.01,1.29.27,2.69.41,4.04.39,3.84-.66,5.63-5.09,6.31-6.05.92-12.31,1.51-17.98,4.39-2.21,1.12-3.97-.76-3.57-3.77.74-5.51,1.79-10.98,2.43-16.5.47-4.06.82-8.21-1.26-12.05,8.62-4.63,17.09-4.18,25.43.75Z" style="fill: #f7d453; stroke-width: 0px;"/>
  <path d="M92.06,252.42c-2.74,11.13-4.72,22.37-5.29,33.84-.08,1.71-.48,3.4-.74,5.1-3.22-.36-6.04,1.25-9.03,1.94-2.96.68-4.72.15-4.44-3.29.57-7,.36-14.04,1.36-21.04.7-4.93,4.25-8.01,6.4-11.98,1.53-2.83,3.59-5.38,4.32-8.6,2.26,1.57,4.65,2.87,7.36,3.48.27.09.37.2.3.32-.08.14-.16.21-.24.21Z" style="fill: #fba817; stroke-width: 0px;"/>
  <path d="M421.59,343.77c-4.81.23-8.98-.31-13.07-1.48-1.04-.29-2.54-.51-2.38-1.91.19-1.6,1.81-1.14,2.76-.99,9.12,1.42,18.07.18,27.01-1.52,10.18-1.93,19.49-5.71,27.57-12.33,10.91-8.92,18.2-20.27,22.71-33.52.2-.59.43-1.17.63-1.76.36-1.07.83-2.45,2.12-2,1.28.45.8,1.86.53,2.96-4.37,18.07-14.04,32.69-29.57,42.83-8.46,5.53-18.28,8.23-28.48,9.01-3.46.26-6.88,1.23-9.84.69Z" style="fill: #666366; stroke-width: 0px;"/>
  <path d="M209.18,219.54c14.79.38,29.57,1.02,43.89,5.22,6.19,1.81,12.34,3.78,18.03,6.95,2.75,1.53,5.83,2.09,8.87,2.71,1.32.27,2.57.75,2.75,2.11.19,1.41-1.14,2.21-2.17,2.78-2.95,1.62-5.93,1.23-8.96-.09-6.49-2.84-12.99-5.69-19.58-8.28-12.1-4.76-24.6-7.73-37.7-7.77-3.47-.01-6.91-.56-10.28-1.45-.61-.16-1.35-.34-1.34-1.07,0-.98.89-1.08,1.62-1.1,1.62-.04,3.24-.01,4.86,0Z" style="fill: #5d5a5c; stroke-width: 0px;"/>
  <path d="M491.18,316.71c-.76,6.07-4.94,10.2-8.65,14.41-14.13,16.02-32.7,23.47-53.15,27.83-17.47,3.73-32.74-1.38-47.69-9.3-.51-.27-.86-.86-1.28-1.31,8.09,2.77,16.17,5.54,24.78,6.34,26.89,2.49,51.4-2.83,71.89-21.65,5.34-4.91,9.67-10.65,14.1-16.32Z" style="fill: #866c24; stroke-width: 0px;"/>
  <path d="M135.85,335.21c-3.65.32-5.48-1.69-7.33-3.3-14.51-12.69-23.8-28.44-26.37-47.63-1.34-10.01-.37-20.19-.34-30.29,0-.9.23-1.85,1.3-2,1.19-.16,1.9.78,2.16,1.71.55,2.03,1.03,4.06,1.04,6.23.03,9.57-.57,19.19,1.47,28.65,2.94,13.69,9.38,25.6,18.63,36.04,3.01,3.4,6.05,6.77,9.46,10.6Z" style="fill: #5d5a5c; stroke-width: 0px;"/>
  <path d="M217.16,349.9c-1.77,2.78-4.85,3.39-7.6,4.39-7.92,2.87-15.85,6.5-24.44,5.9-20.97-1.45-40.3-7.64-57-21.01-5.02-4.02-8.99-8.86-12.93-13.81-.59-.74-.71-1.57-.74-2.44,9.89,12.07,21.88,21.31,36.56,26.79,8.77,3.27,17.84,5.09,27.26,5.47,13.31.53,26.33-.53,38.89-5.28Z" style="fill: #7f6420; stroke-width: 0px;"/>
  <path d="M276.26,267.36c2.04,5.41,0,10.59-1.13,15.72-2.62,11.8-7.71,22.56-14.66,32.44-1,1.42-2.05,2.83-3.78,3.48,3.18-6.29,6.88-12.32,8.98-19.14,2.48-8.07,4.28-16.3,4.59-24.72.16-4.41,3.42-5.66,6.01-7.78Z" style="fill: #756326; stroke-width: 0px;"/>
  <path d="M345.2,319.11c-1.42-.07-2.14-1.07-2.9-2.1-9.02-12.26-14.5-26.02-17.15-40.92-.45-2.51-.63-5.22.44-7.75,3.61,1.97,5.29,4.63,5.53,9.11.74,13.93,5,26.9,12.43,38.77.59.94,1.1,1.92,1.65,2.89Z" style="fill: #7d6a28; stroke-width: 0px;"/>
  <path d="M126.79,302.46c-1.69-1.03-2.44-2.56-3.15-4.08-5.18-10.98-4.99-22.69-4.62-34.42.02-.62.07-1.43.84-1.4.51.02,1.08.53,1.48.95.65.67.67,1.59.64,2.47-.45,12.04,1,23.8,5.1,35.18.1.28-.14.68-.28,1.3Z" style="fill: #585557; stroke-width: 0px;"/>
  <path d="M94.28,224.67c-.12,3.16-2.77,6.49-5,5.81-2.92-.89-4.1-3.34-3.98-6.37.11-2.95,1.63-4.6,4.6-4.66,2.81-.06,4.5,2.04,4.39,5.22Z" style="fill: #646264; stroke-width: 0px;"/>
  <path d="M92.06,252.42c-.02-.18-.04-.35-.06-.53,5.17-.1,5.19-.1,5.17,5.06-.02,5.71-.07,11.41-.11,17.12-1.2-5.72-.49-11.52-.42-17.27.05-3.62-1.06-4.99-4.58-4.38Z" style="fill: #f9c038; stroke-width: 0px;"/>
  <path d="M362.53,363.9c-8.41,6.07-18.49,7.17-28.19,8.92-11.96,2.16-24.14,3.23-36.3,3.1-10.91-.12-21.76-1.66-32.46-3.85-9.35-1.92-18.83-3.49-27.45-7.97,2.16-2.21,5.01-1.85,7.64-1.82,6.58.07,12.98,1.47,19.31,3.18.7.19,1.47.09,2.21.12,1.47-.79,2.93-.24,4.36.09,12.19,2.75,24.53,3.9,37.01,3.23,6.59-.35,13.03-1.81,19.5-3.04,1.92-.36,3.83-1.22,5.82-.31,6.73-.91,13.25-3.02,20.08-3.35,2.99-.14,5.91-.2,8.46,1.71Z" style="fill: #fde1b4; stroke-width: 0px;"/>
  <path d="M325.03,297.47c3.72,7.14,7.07,14.46,11.64,21.16,12.13,17.73,28.17,30.55,47.89,38.92,10.36,4.39,21.02,8.9,32.29,7.77,24.64-2.47,47.88-9.1,65.66-28.05.58-.62,1.35-1.05,2.03-1.57-3.41,5.46-8.21,9.6-13.35,13.24-15.03,10.64-31.97,16.61-49.88,20.43-13.14,2.8-25.04-1.06-36.69-5.96-14.89-6.26-27.67-15.82-38.22-27.95-9.66-11.11-17.39-23.55-21.37-37.98Z" style="fill: #fbb428; stroke-width: 0px;"/>
  <path d="M333.99,365.54c-22.23,6.22-44.46,6.25-66.69.02-.84-2.11-3.97-1.41-4.87-4.51,5.25,0,10.28,0,15.31,0,7.08.02,14.22,1.05,21.19-.98,1.73-.5,3.42-.57,5.15-.53,8.81.2,17.57-.48,26.36-1.06,2.82-.19,5.82,1,8.58,2,1.64.59.16,1.56-.41,2.21-1.24,1.41-3.72.84-4.61,2.84Z" style="fill: #fbb428; stroke-width: 0px;"/>
  <path d="M259.86,23.77c.22-1.38.84-2.58,1.84-3.57,2.65-2.61,5.19-5.32,8.17-7.63,2.7-2.09,4.67-2.04,7.09.36,4.04,4,4.2,3.97-.37,7.33-3.13,2.3-5.78,5.09-8.54,7.78-1.46,1.42-3.07,1.6-4.73.48-1.7-1.15-3.96-1.96-3.48-4.75Z" style="fill: #fcf497; stroke-width: 0px;"/>
  <path d="M98.8,92.87q4.83,0,3.69,4.7c-.69,2.88-1.33,5.75-1.57,8.73-.32,4.1-2.99,6.42-6.49,6.02-2.87-.32-4.47-3.36-3.79-7.31.4-2.31.84-4.61,1.36-6.89,1.16-4.98,1.54-5.25,6.79-5.25Z" style="fill: #fcf496; stroke-width: 0px;"/>
  <path d="M466.5,72.58c-3.61-1.23-7.62-.58-11.58-.69-3.31-.09-4.04-2.57-4.59-4.98-.57-2.51,1.36-3.65,3.31-4.2,4-1.14,8.15-.72,12.2-.32,2.05.2,4.46,7.09,3.47,9.05-.54,1.07-1.51,1.18-2.82,1.14Z" style="fill: #fdf598; stroke-width: 0px;"/>
  <path d="M429.89,555.15c-1.38,5.4-3.83,10.21-7.87,14.09-1.09,1.05-8.7-1.4-9.02-2.78-.09-.39.18-.95.43-1.33,2.76-4.13,5.55-8.22,7.74-12.71.88-1.81,2.46-2.13,4.45-1.42,2.11.76,3.81,1.73,4.28,4.15Z" style="fill: #fdf598; stroke-width: 0px;"/>
  <path d="M223.5,585.8c-2.65-.06-7.41-5.82-6.84-7.75.24-.8.91-1.15,1.7-1.21,4.04-.29,7.6-2.2,11.36-3.41,3.36-1.08,5.39-.01,6.84,3.14,1.46,3.18-.76,4.31-2.73,5.52-3.31,2.02-6.96,3.17-10.33,3.71Z" style="fill: #fcf598; stroke-width: 0px;"/>
  <path d="M70.47,474.93c-4.04-.94-8.24-2.05-11.85-4.63-1.61-1.15-1.35-8.06.22-9.28.65-.5,1.41-.4,2.13-.11,4.03,1.63,8.11,3.15,12.06,4.94,2.23,1.01,2.52,2.83,1.99,5.3-.57,2.64-2.02,3.48-4.56,3.77Z" style="fill: #fcf597; stroke-width: 0px;"/>
  <path d="M564.71,423.41c.04,4.41-4.95,8.6-8.15,7.9-1.2-.26-1.57-1.17-1.54-2.24.1-3.88-.7-7.63-1.42-11.41-.65-3.44,1.62-4.92,4.5-5.71,2.7-.74,3.9,1.1,4.71,3.1,1.22,3,1.78,6.18,1.91,8.36Z" style="fill: #fdf699; stroke-width: 0px;"/>
  <path d="M13.53,268.97c1.26.16,1.53,1.07,1.91,1.82,1.84,3.64,3.57,7.34,5.5,10.94,1.79,3.33-.67,4.8-2.67,6.37-2.26,1.77-3.97.3-5.31-1.47-1.33-1.77-2.58-3.64-3.6-5.6-3-5.71-2.33-8.07,3.05-11.46.41-.26.85-.45,1.13-.6Z" style="fill: #fdf599; stroke-width: 0px;"/>
  <path d="M578.08,235.75c-.38-.16-.53-.18-.6-.26-3.54-3.82-8.32-6.35-11.4-10.57-1.63-2.23.57-4.21,1.84-5.93,1.21-1.64,2.84-.97,4.39-.25,3.83,1.77,6.8,4.63,9.46,7.75,2.25,2.63-.79,4.5-1.51,6.66-.35,1.05-1.14,2.14-2.17,2.61Z" style="fill: #fdf598; stroke-width: 0px;"/>
  <path d="M82.3,295.13c-4.81,3.7-9.73,7.17-15.77,8.62-1.16.28-2.68,1.03-3.26-.38-.48-1.16.98-1.82,1.95-2.31,4.52-2.29,9.05-4.57,13.61-6.78,1.29-.63,2.85-1.57,3.47.86,0,0,0,0,0,0Z" style="fill: #f7da5b; stroke-width: 0px;"/>
  <path d="M97.98,292.05c1.15,7.44,3.6,14.57,5.31,21.87.27,4.45,1.97,8.72,1.49,13.28-.26,2.48-.05,5.83-2.5,6.48-2.55.67-3.61-2.53-4.51-4.65-4.11-9.73-5.19-19.88-3.78-30.29.26-1.95.24-3.92.83-5.88.75-2.51,1.81-1.71,3.15-.81Z" style="fill: #faea80; stroke-width: 0px;"/>
  <path d="M349.14,412.91c-4.38,5.34-9.83,9.34-15.88,12.58-1.39.72-2.67.05-3.96-.33-6.87-2.02-13.81-1.4-20.72-.39-5.06.74-10.12,1.18-15.24,1.11-5.84-.08-11.69-.18-17.52.62-2.3.32-4.69.44-7-.3-6.23-3.29-11.81-7.44-16.52-12.7,5.27-4.91,11.37-2.74,17.22-1.86,10.27,1.55,20.5,3.31,30.95,2.6,7.8-.52,15.4-2.34,23.12-3.38,5.63-.76,11.21-1.9,16.96-1.96,3.71-.04,6.56.88,8.58,4.02Z" style="fill: #573713; stroke-width: 0px;"/>
  <path d="M268.83,426.2c4.75-1.01,9.61-1.45,14.4-1.39,11.46.13,22.8-.7,34.16-2.17,5.37-.69,10.84.46,15.87,2.85-7.07,4.97-15.14,7.66-23.52,8.67-13.99,1.69-27.57-.2-40.1-7.22-.31-.17-.54-.49-.81-.74Z" style="fill: #976023; stroke-width: 0px;"/>
  <path d="M180.03,188.04c-3.14-.32-5.29-2.6-7.72-4.23-5.15-3.45-10.09-7.21-15.14-10.8-3.55-2.52-3.77-3.66-1.17-7.25,5.31-7.34,12.32-12.9,19.44-18.31,3.36-2.55,6.89-4.87,10.4-7.21,3.1-2.06,5.94-2.22,9.14.38,7.2,5.87,14.69,11.39,22.05,17.05,3.04,2.34,3.22,4.13.18,6.55-2.61,2.07-5.6,3.66-8.37,5.55-7.89,5.39-15.77,10.8-23.62,16.26-1.58,1.1-3.29,1.69-5.19,2.01Z" style="fill: #fef99f; stroke-width: 0px;"/>
  <path d="M224.64,275.69c-1.85-.36-4.65-.51-7.13-1.47-4.13-1.6-6.4-6.99-5.51-11.95.07-.36.26-.7.34-1.06,1.2-5.62,2.11-11.83,8.95-13.14,6.72-1.29,17.59,4.98,20.36,10.85,2.13,4.52-.11,11.07-4.48,13.48-3.65,2.02-7.5,3.19-12.53,3.29Z" style="fill: #656669; stroke-width: 0px;"/>
  <path d="M374.31,275.64c-3.85-.4-8.27-1.67-12.04-4.43-4.55-3.32-4.57-11.27-.02-15.89,4.43-4.49,10.04-6.69,16.27-7.39,1.98-.22,3.53.39,4.98,1.87,4.47,4.6,5.96,10.39,5.74,16.38-.22,6.16-5.77,9.5-14.92,9.46Z" style="fill: #656669; stroke-width: 0px;"/>
</svg>