<?xml version="1.0" encoding="UTF-8"?>
<svg id="Layer_1" data-name="Layer 1" xmlns="http://www.w3.org/2000/svg" viewBox="0 0 597.9 595.42">
  <path d="M597.19,344.38c-.41,14.91-2.3,29.61-6.08,44.05-5.18-2.28-8.35-1.19-10.96,3.9-3.07,6.01-5.14,12.45-7.76,18.65-8.81,20.9-20.06,40.39-33.18,58.87-11.16,15.72-23.69,30.2-37.68,43.44-4.44,2.43-7.65,6.35-11.48,9.51-11.18,9.22-23.01,17.47-35.4,24.95-.96.58-1.97,1.08-3.05,1.41-7.98,3.27-15.41,7.69-23.32,11.11-25.53,11.03-52.02,18.15-79.79,20.35-35.68,2.82-70.41-1.32-104.19-13.52-14.73-5.32-28.87-11.86-42.49-19.46-13.75-7.68-26.34-17.15-38.19-27.55-12.6-11.05-24.32-22.95-34.34-36.44-8.49-11.44-16.38-23.21-22.92-35.94-9.35-18.2-16.48-37.17-21-57.1-2.47-10.91-3.35-21.92-.76-33,.68-2.92,2.4-4.82,4.87-6.29,5.11-3.06,10.81-3.61,16.55-4.09,9.96-.83,17.71-5.23,22.59-14.19.78-1.43,1.62-2.83,2.74-4.01,1.25-1.32,2.34-3.25,4.56-2.64,2.03.57,2.67,2.45,3.08,4.35,1.41,6.46,3.01,12.88,4.49,19.33,1.03,4.46,2.84,8.42,6.82,11.46,1.37-2.61,1.51-5.2,1.56-7.76.05-2.78.51-5.47,1.44-8.07.62-1.73,1.11-3.92,3.45-3.86,2.09.05,2.61,2.08,3.2,3.71.8,2.23,1.5,4.51,2.15,6.78,2.26,7.9,7.48,14.35,10.38,21.95,2.35,6.16,3.71,12.69,7.19,18.45,2.33,3.87,4.75,7.69,7.8,10.96,4.82,5.18,11.31,6.82,18.08,6.58,5.45-.19,10.79-1.44,16.11-3.04,9.04-2.72,17.9-1.74,26.38,2.91,5.87,3.22,12.23,4.59,19.09,3.93,11.39-1.1,22.23-4.44,33.14-7.52,2.41-.68,4.87-1.1,7.32-1.54,5.02-.91,9.39.19,12.97,4.01,4.58,4.87,10.93,5.78,16.94,7.28,7.98,2,16.1,3.36,24.27,4.42,5.7.73,11.45.45,17.08.23,11.81-.45,23.57-2.33,35.36-3.03,10.79-.65,21.72.23,32.08,3.99,4.11,1.49,7.12,4.92,10.84,7.2,1.96,1.2,1.81,3.75,1.63,5.87-.4,4.7-1.24,9.31.18,14.09.83,2.8-1.96,5.19-2.68,8.54,2.87-1.73,5.13-3.4,7.13-5.4,17.07-17.07,29.14-37.17,37.01-59.98,4.82-13.96,9.31-27.93,11.17-42.64,2.53-19.98,1.86-39.84-2.14-59.56-2.87-14.11-7.13-27.85-13.37-40.83-8.85-18.42-19.63-35.57-34.08-50.28-11.68-11.9-24.11-22.8-38.39-31.5-17.51-10.67-36.11-18.61-56.16-23.16-15.51-3.52-31.2-6.03-47.07-5.48-9.7.34-19.45-.04-29.13,1.15-5.31.66-10.46-.84-15.35-2.71-3.24-1.24-5.19-3.95-6.5-7.32-2.72-6.95-4.82-14.17-8.57-20.7-1.24-4.73-3.16-9.32-2.87-14.35.88-1.79,2.47-1.44,3.92-1.18,9.6,1.72,19.11.71,28.66-.65,15.34-2.17,30.72-2.7,46.24-1.6,21.41,1.53,42.33,5.28,62.55,12.39,18.4,6.47,35.99,14.68,52.5,25.21,15.32,9.77,29.65,20.77,42.49,33.58,16.5,16.46,30.36,34.96,42.01,55.22,10.52,18.3,18.46,37.58,24.36,57.77,5.26,18.01,8.46,36.42,10.48,55.05.36,3.35,1.11,6.64,1.8,10.04,1.55-4.08,2.48-8.28,2.95-12.64,1.01-9.21.7-18.44.72-27.66,0-2.77.43-5.47,1-8.16.23-1.11.62-2.36,1.87-2.56,1.25-.2,1.98.91,2.56,1.86,1.65,2.68,2.58,5.67,3.56,8.63,1.18,3.56,2.82,6.64,6.76,7.87,1.46.46,2.86,1.52,3.05,3.06.45,3.57,2.19,6.86,2.09,10.52-.2,7.59.37,15.2-.29,22.78Z" style="fill: #19d2b1; stroke-width: 0px;"/>
  <path d="M.02,130.03c-.4-19.91,4.61-38.56,13.18-56.36,2.48-5.14,5.26-10.13,8.69-14.73,2.5-.58,4.56-1.82,6.3-3.77,10.12-11.34,21.58-21.05,34.87-28.53,16.23-9.13,33.56-14.49,52.16-16.03,26.53-2.19,51.13,3.84,73.78,17.43,25.3,15.18,42.81,36.99,53.29,64.58,3.3,8.68,5.19,17.71,7.75,26.58.2.71.34,1.44.77,2.26,1.08-1.74.5-3.6,1.11-5.21.41-1.06.83-2.19,2.2-2.22,1.16-.02,1.85.82,2.17,1.78,1,3.07,2.68,5.39,5.58,7.14,2.4,1.45.88,4.72,1.96,6.95.51,4.05.36,8.08-.41,12.08-.17,3.15-.73,6.25-1.11,9.37-.55,2.12-.65,4.34-1.26,6.45-.52,2.03-1.12,4.05-1.56,6.11-.85,2.67-1.45,5.41-2.47,8.03-.75,1.49-1.05,3.17-1.82,4.66-.3.5-.69.92-1.15,1.28-3.53,2.52-6.03,5.93-8.23,9.58-12.79,21.22-29.65,38.38-50.83,51.28-16.69,10.16-34.84,16.46-54.23,17.89-35.2,2.61-66.82-6.84-93.97-30.06C21.48,204.94,7.54,177.18,1.96,144.72c-.84-4.89-.69-9.88-1.94-14.69Z" style="fill: #f3bb3a; stroke-width: 0px;"/>
  <path d="M597.19,344.38c-.03-5.24-.45-10.52.02-15.71.55-5.99-1.43-11.46-2.45-17.13-.27-1.5-1.51-2.49-2.84-2.71-4.48-.73-5.76-4.21-7.07-7.74-1.41-3.79-2.27-7.84-5.41-11.4-1.25,3.25-1.75,6.24-1.78,9.27-.08,6.74.25,13.49-.1,20.21-.4,7.54-.74,15.14-3.62,22.3-.32.78-.67,1.56-1.73,2.34-.68-3.89-1.56-7.77-2.01-11.69-1.97-17.25-4.68-34.33-9.18-51.15-5.27-19.68-12.31-38.65-22.06-56.5-8.76-16.05-18.84-31.26-30.77-45.24-13.79-16.17-29.22-30.53-46.65-42.61-17.84-12.37-36.89-22.54-57.42-29.91-11.13-4-22.33-7.76-33.93-9.84-10.95-1.96-21.92-3.86-33.11-4.46-7.6-.41-15.17-.58-22.75-.52-10.8.08-21.48,1.76-32.16,3.2-7.1.96-14.12.54-21.13-.57-1.02-.16-1.92-.62-2.61.52-2.27-1.29-2.63-3.3-2.16-5.64,1.06-.83,2.35-.86,3.58-.78,9.43.65,18.62-1.37,27.91-2.38,15.24-1.65,30.47-2.81,45.87-1.59,13.33,1.06,26.57,2.42,39.62,5.35,25.88,5.82,50.35,15.23,73.29,28.59,22.16,12.9,42.01,28.73,59.42,47.49,21.93,23.64,38.9,50.56,51.27,80.34,3.15,7.58,6.36,15.13,9.43,22.76-.06-5.68-1.76-11.06-3.13-16.45-3.43-13.54-7.3-26.98-11.76-40.23-1.24-3.67-3.03-7.12-4.18-10.82-.37-1.19-1.01-2.54.18-3.47,1.28-1,2.32.14,3.25.94.86.73,1.68,1.64,2.86,1.64,6.15-.01,10.7,2.73,13.86,7.92,11.77,21.97,19.83,45.27,24.83,69.65,4.22,20.57,5.87,41.38,5.2,62.37-.04,1.22.21,2.51-.56,3.62Z" style="fill: #32e2c5; stroke-width: 0px;"/>
  <path d="M257.59,79.78c10.39-3.92,21.27-6.01,32.12-8.04,20.06-3.75,40.38-4.84,60.71-3.66,40.79,2.38,79.08,13.6,114.64,33.87,16.09,9.17,31.02,19.96,44.89,32.22.36.32.61.77.91,1.15-2.12,1.51-3.94.41-5.33-1.01-2.49-2.54-5.43-3.32-8.82-3.27-5.84.08-10.17-3.78-15.15-5.94-1.01-.44-1.78-1.35-3.58-1.73,4.47,3.97,8.75,7.26,12.85,10.72,20.97,17.7,37.91,38.46,49.81,63.33,5.06,10.58,10.5,20.97,14.57,31.98.8,2.16,2.99,5.52.37,6.66-2.54,1.1-3.61-2.8-4.71-4.83-5.33-9.88-10.68-19.75-16.91-29.1-12.62-18.96-26.94-36.43-43.96-51.7-14.55-13.05-30.1-24.6-47.11-34.2-17.9-10.11-36.73-17.97-56.51-23.58-14.56-4.13-29.36-7.09-44.42-8.5-14.41-1.35-28.85-1.33-43.33-.55-9.84.53-19.51,2.94-29.41,2.5-1.63-.07-4.16.67-4.51-1.39-.34-2.05,2.23-2.35,3.81-2.84,10.78-3.37,21.95-4.57,33.09-5.99,7.31-.93,14.69-1.11,22.01-1.24,16.33-.28,32.56,1.17,48.65,4.1,4.52.82,9.03,1.61,13.45,2.84-6.25-1.93-12.74-2.84-19.16-3.86-15.39-2.46-30.92-3.71-46.5-3.53-15.48.18-30.86,1.68-46.12,4.36-4.05.71-8.18.95-12.17,2.03-1.41.38-2.99.55-4.17-.79Z" style="fill: #55f6e2; stroke-width: 0px;"/>
  <path d="M257.59,79.78c5.72-.13,11.26-1.59,16.89-2.39,10.67-1.52,21.31-3.08,32.11-3.63,6.46-.33,12.93-.85,19.38-.58,15.48.64,30.95,1.39,46.16,4.91,5.62,1.3,11.31,2.31,16.8,4.32-10.09-2.37-20.34-3.53-30.58-4.82-10.48-1.32-21.04-2.09-31.55-2.03-10.36.06-20.79.56-31.1,2.05-10.36,1.5-20.76,2.78-30.57,6.88,5.89,1.13,11.76.66,17.54-.22,10.47-1.59,20.98-1.99,31.55-2.21,28.24-.58,55.69,3.91,82.44,12.64,17.18,5.61,33.59,13.05,49.3,22.15,14.49,8.39,27.88,18.22,40.58,29,11.11,9.43,20.94,20.15,30.23,31.41,13.44,16.3,24.77,33.91,34.42,52.65.96,1.87,2.17,3.62,3.3,5.4.17.27.58.4,1.36.34-7.41-22.4-17.72-43.45-30.82-63.03-13.14-19.66-30.81-35.1-49.44-49.68,1.94-1.71,3.17-.95,4.01-.25,2.82,2.36,6.39,3.31,9.46,5.19,2.54,1.56,5.36,2.45,8.51,2.24,3.18-.21,6.13.42,8.25,3.3,1.17,1.6,3.07,2.04,5.05,1.92,16.59,14.56,30.73,31.23,42.94,49.58,5.1,7.67,9.96,15.49,13.93,23.83-1.4-.11-2.42-1.08-2.91-2.13-1.49-3.22-4.56-3.9-7.38-4.39-3.02-.52-6.23-.04-8.07-3.32-.24-.43-.89-.6-1.29-.17-.63.68-.13,1.38.14,2.06,1.71,4.4,3.59,8.75,5.07,13.23,5.64,17.09,10.54,34.39,14.36,51.99.42,1.94.4,3.9-.06,6.17-1.78-.76-2.09-2.29-2.57-3.55-5.99-15.7-12.25-31.29-20.21-46.13-8.61-16.03-18.74-31.03-30.27-45.11-6.56-8.02-13.65-15.53-21.21-22.57-15.32-14.26-31.97-26.74-50.25-37.06-13.5-7.62-27.56-13.95-42.16-18.96-13.97-4.79-28.25-8.6-42.92-10.67-14.77-2.08-29.61-3.6-44.53-2.95-13.23.57-26.42,1.84-39.53,4-5.71.94-11.68.34-17.54.44-2.13-2.61-3.76-5.38-3.07-8.95,1.42-.3,2.84-.6,4.26-.91Z" style="fill: #47f0d8; stroke-width: 0px;"/>
  <path d="M253.33,80.69c1.02,2.98,2.04,5.97,3.07,8.95.68,1.81,1.35,3.61,2.03,5.42,1.04,4.68,2.08,9.36,3.11,14.03,2.23,4.8,1.96,10.03,2.53,15.11.2,1.75.45,3.73-1.25,5.12-.89-1.09-.48-2.39-.56-3.61-.07-1,.06-2.06-1.25-2.39-3.24-.82-4.39-3.38-5.25-6.24-.29-.97-.23-2.63-1.81-2.32-1.2.24-1.36,1.65-1.4,2.78-.08,2.09.29,4.27-1.87,6.23-2.06-4.36-2.97-8.9-4.01-13.35-4.36-18.55-11.97-35.55-23.64-50.67-17.33-22.45-39.71-37.38-67.12-44.63-11.7-3.09-23.68-4.79-35.76-4.08-25.27,1.47-48.51,9.28-68.97,24.35-8.18,6.02-15.89,12.73-22.48,20.62-1.64,1.96-3.38,4.7-6.82,2.93,6.9-11.17,15.83-20.47,26.11-28.53,2.45-.05,4.55-1.02,6.61-2.28,16.9-10.36,34.92-17.56,54.76-19.94,20.33-2.45,40.05-.04,59.2,6.98,19.32,7.08,35.94,18.34,49.91,33.44,9.86,10.66,17.56,22.8,23.78,35.64-4.08-18.07-14.74-32.59-26.72-46.35-1.24-1.43-3.66-3.01-1.96-4.99,1.83-2.13,3.88.02,5.54,1.15,3.2,2.18,5.58,5.33,8.74,7.58,9.88,10.01,17.24,21.71,23.19,34.37.74,1.57,1.52,3.12,2.28,4.68Z" style="fill: #fedb5c; stroke-width: 0px;"/>
  <path d="M68.37,364.54c-.08-1.4-.16-2.81-.23-4.21-.66-1.79.17-3.73-.55-5.51-.06-.93-.12-1.86-.18-2.79-.76-2.27.22-4.68-.58-6.95-.47-8.5-.48-17.01,0-25.51.79-2.26-.2-4.66.58-6.92.04-.44.07-.88.11-1.31.95-2.48-.2-5.13.66-7.62.04-.46.08-.92.12-1.38.75-1.22-.06-2.68.61-3.91.16-6.81,1.63-13.42,3.2-20.01,1.92.42,1.52,2.06,1.59,3.3.17,2.86.24,5.74.02,8.59-.32,4.18,1.63,7.49,3.73,10.72,1.64,2.51,4.41,3.08,7.23,3.25,5.38.32,10.69-.56,16-1.08,6.07-.59,11.94-2.41,18.04-3.05,4.92-.52,9.19-3.02,13.32-5.64,1.91-1.21,3.86-2.26,6.07-2.81,4.42-1.09,6.45.24,6.72,4.79.24,3.97-.04,7.98,1.26,11.84.2.59.31,1.21.5,1.8,1.36,4.24,1.68,4.33,5.13,1.45,1.06-.88,2.14-1.72,3.54-2.01,1.87.18,2.79,1.34,3.16,3.06-2.04,3.26-4.7,6.16-5.87,9.94-.62,1.36-1.06,2.78-1.65,4.14-.6,1.4-1.36,2.76-3.04,2.94-1.74.18-2.65-1.13-3.42-2.42-.96-1.59-1.82-3.24-2.17-5.1-.78-4.13-1.32-8.29-1.66-12.47.2-2.39-.2-4.71-.83-7.01-.7-2.54-2.28-3.06-4.57-2.12-1.4.57-2.64,1.41-3.88,2.25-5.34,3.61-11.24,5.22-17.67,5.15-11.91-.14-23.63,1.26-35.15,4.33-3.05.81-4.67,2.42-5.17,5.54-.76,4.67-1.13,9.29-1.27,14.06-.48,16.82,2.62,33.13,5.8,49.47,5.12,23.28,13.42,45.39,24.51,66.46.41.77.82,1.55,1.43,2.18,6.49,10.93,13.33,21.63,20.5,32.12.8,1.43,1.59,2.87,2.95,3.89,1.34,1.03,2.15,2.48,3.07,3.84.97,1.47,1.88,2.99,3.16,4.24.24.22.46.45.67.69.98,1.05,1.62,2.4,2.86,3.22.97.69,1.78,1.53,2.46,2.51,3.35,3.63,6.14,7.78,10.06,10.87.41.32.77.69,1.09,1.09,2.27,2.77,4.8,5.25,7.89,7.11.71.48,1.3,1.09,1.83,1.76.89,1.24,2.26,1.91,3.43,2.82.4.31.76.67,1.08,1.06.97,1.39,2.3,2.38,3.7,3.29.28.19.54.4.8.62,1.16.98,2.42,1.82,3.76,2.56,9.23,6.41,18.51,12.73,27.99,18.77,1.41,1.27,3.02,2.17,4.83,2.74,2.75,1.14,5.47,2.35,7.94,4.03,1.98,1.63,4.18,2.84,6.68,3.46,1.36.31,2.58.92,3.71,1.7,1.34.97,2.82,1.67,4.41,2.15.32.1.62.24.91.39,1.38.94,2.9,1.49,4.54,1.78.51.1,1,.25,1.47.46,2.63,1.38,5.29,2.69,8.26,3.17,1.28.17,2.5.56,3.66,1.11,3.34,1.52,6.74,2.87,10.41,3.37.76.05,1.5.19,2.21.46,3.93,1.79,8.11,2.63,12.34,3.29.72.03,1.44.13,2.14.32.66.19,1.28.49,1.9.77,1.04.51,2.2.53,3.32.72.33.06.65.14.97.23,1.15.35,2.35.27,3.51.49,1.37.42,2.8.48,4.19.8,1.4.49,2.87.37,4.31.55.37.04.73.12,1.09.21,1.61.59,3.31.31,4.96.54.38.04.75.12,1.12.21,2.42.76,4.95.14,7.4.57.39.05.78.14,1.16.24,3.16.73,6.4,0,9.58.5.43.06.84.17,1.24.31,10.72.66,21.37-.37,32.04-1.12,10.19-.72,20.25-2.31,30.24-4.38,1.12-.23,2.23-.24,3.25.42.29,3-2.37,2.34-3.75,2.63-6.04,1.27-12.13,2.36-18.27,3.15-1.28.16-2.38.6-3.48,1.17-9.44,1.61-18.97,1.86-28.53,1.95-17.05.17-33.92-1.48-50.66-4.58-.41-.04-.82-.12-1.22-.23-1.28-.52-2.64-.58-4.01-.56-2.78-.05-5.43-.86-8.04-1.66-15.36-4.73-30.74-9.32-45.38-16.21-22.51-10.6-43.2-23.88-62.07-40.02-21.52-18.41-39.53-39.86-54.06-64.1-14.05-23.45-24.34-48.59-31.41-75.03-1.58-5.92-3-11.85-3.9-17.9-.22-1.49-.51-2.96-1.74-4.02Z" style="fill: #0bab83; stroke-width: 0px;"/>
  <path d="M227.86,41.64c-3.46-1.1-5.17-4.56-8.23-6.16-1.79-.93-3.93-3.82-5.34-2.28-1.89,2.06,1.53,3.3,2.73,4.74,10.59,12.65,20.5,25.69,25.1,41.92.63,2.23,1.68,4.41,1.12,7.82-2.41-4.31-4.46-7.9-6.43-11.52-15.03-27.61-36.95-47.54-66.23-59.15-12.66-5.02-25.81-7.65-39.5-8.44-20.7-1.2-40.15,2.9-58.96,11.24-7.09,3.14-13.48,7.48-20.33,11.01-1.43.73-2.7,1.33-3.79-.4,10.26-8.9,22.06-15.18,34.54-20.31C98.58,3.5,115.36-.07,132.64,0c27.98.11,53.63,8.16,76.41,24.7,6.86,4.98,13.34,10.4,18.81,16.94Z" style="fill: #fee775; stroke-width: 0px;"/>
  <path d="M.02,130.03c2.36,4.51,2.05,9.61,2.9,14.42,3.11,17.54,8.53,34.11,17.69,49.53,6.23,10.5,13.67,19.88,22.52,28.15,14.88,13.91,32.15,23.59,51.76,29.32,14.8,4.33,29.92,5.45,45.05,4.27,17.21-1.34,33.52-6.36,48.89-14.63,13.1-7.04,24.44-16.15,34.93-26.48,8.55-8.43,15.35-18.2,21.68-28.35,2.21-3.54,4.36-7.27,8.51-9.04,1.27,1.76-.39,3.13-.62,4.69-2.4,5.05-4.73,10.15-7.66,14.94-6.52,11.13-14.78,20.84-24.19,29.62-8.24,7.5-17.24,13.92-27.14,19.05-1.66.86-3.25,1.84-4.88,2.76-5.25,2.31-10.46,4.73-15.96,6.45-29.28,10.03-58.56,10.31-87.82-.03-2.3-.83-4.74-1.38-6.46-3.34-16.99-7.65-32.21-17.84-44.79-31.7C15.01,198.27,3.44,173.31.71,144.41c-.58-1.23.09-2.62-.5-3.84-.06-3.51-.13-7.02-.19-10.53Z" style="fill: #be7f24; stroke-width: 0px;"/>
  <path d="M385.12,580.28c-6.84,1.07-13.67,2.18-20.52,3.19-5.01.74-10.03,1.81-15.07,1.88-9.82.14-19.61,1.47-29.44.88-.56-.03-1.09-.46-1.64-.71.83-.97,1.99-.94,3.1-.96,5.97-.11,11.93-.41,17.9-.64,19-.76,37.62-3.65,55.91-8.76,17.7-4.95,34.72-11.61,50.97-20.21,18.93-10.01,36.33-22.22,52.5-36.24,1.88-1.63,2.61-3.47,2.41-5.83,2.13-2.26,4.22-4.55,6.38-6.78,12.05-12.37,23.08-25.55,32.97-39.74,10.55-15.13,19.71-31.03,27.51-47.71,3.52-7.52,6.4-15.35,9.53-23.05.99-2.43,2.08-4.79,3.66-6.9,2.33-3.1,7.34-3.24,9.82-.28-3.87,17.23-9.16,34.01-16.46,50.12-.71,1.58-1.56,3.1-2.34,4.64-3.82,2.17-8.13,3.61-10.96,7.27-1.53.92-2.66,2.21-3.64,3.7-8.68,13.11-17.67,26-27.82,38.05-8.3,9.85-17.45,18.86-27.05,27.41-13.17,11.72-27.2,22.29-42.38,31.32-22.15,13.18-45.69,22.93-70.7,29.12-1.49.37-3.05,1.34-4.65.23Z" style="fill: #15b28b; stroke-width: 0px;"/>
  <path d="M68.37,364.54c2.57.36,2.53,2.64,2.77,4.3,2.1,14.73,6.95,28.72,11.75,42.68,4.6,13.4,10.59,26.26,17.34,38.75,8.41,15.58,18.44,30.01,29.58,43.78,7,8.65,14.86,16.4,22.82,24.05,14.12,13.56,29.95,24.93,46.8,34.88,12.86,7.6,26.29,14.14,40.3,19.22,11.5,4.17,23.15,8.14,35.28,10.33,1.09,1.05,2.59.03,3.75.75,10.91,2.48,21.98,3.7,33.13,4.58,27.28,2.16,54.25.28,80.74-6.47,18.77-4.79,36.76-11.88,53.67-21.47,8.06-5.18,16.59-9.6,24.56-14.93,17.13-11.45,33.07-24.34,47.23-39.37,1.42-1.51,2.68-3.34,4.95-3.81.85,0,1.51.29,1.78,1.18.1,1.34-.8,2.2-1.51,3.16-7.53,8.87-16.33,16.44-25.09,24.01-17.56,15.18-36.93,27.69-57.97,37.46-25.39,11.79-51.93,19.65-79.86,22.81-15.55,1.76-31.1,1.66-46.65,1.21-8.82-.26-17.58-1.76-26.32-3.12-21.71-3.86-42.68-10.2-62.84-19.17-17.39-7.73-33.76-17.18-49.15-28.41-10.7-7.81-20.97-16.17-30.38-25.42-13.35-13.13-25.33-27.5-35.93-42.99-5.06-7.4-9.6-15.14-14.74-22.48-7.5-13.84-12.82-28.55-17.31-43.58-4.1-13.72-6.92-27.72-8.7-41.93Z" style="fill: #129b74; stroke-width: 0px;"/>
  <path d="M79.23,251.37c2.06.78,4.12,1.57,6.18,2.35,1.16,1.18.58,2.57.47,3.9-.24,2.97-.94,5.89-.88,8.9.16,7.83,3.47,12.3,11.09,14.33,10.92,2.91,21.82,3.33,32.67-.5,3.75-1.32,7.69-2.08,11.2-4.06.97-.55,2.06-.93,3.2-.34.87,3.65-.74,6.85-1.84,10.15-10.06,7.89-21.14,13.45-34.01,15.1-7.95,1.02-15.6.07-23.14-2.52-2.65-.91-4.49-2.49-5.7-5.01-2.29-4.79-3.71-9.77-3.78-15.1-.06-4.83.43-9.63,1.02-14.42.66-4.4,2.29-8.53,3.51-12.78Z" style="fill: #10855d; stroke-width: 0px;"/>
  <path d="M286.99,587.78c7.88.83,15.77,1.59,23.63,2.52,6.28.75,12.57.44,18.85.51,3.87.04,7.73,0,11.6-.04,11.19-.1,22.2-1.73,33.24-3.43,18.03-2.77,35.3-8.13,52.15-14.78,21.74-8.57,41.89-20.17,60.37-34.51,8.44-6.55,16.62-13.4,24.23-20.97,3.94-3.92,8.18-7.56,11.9-11.73.98-.53,1.65-1.46,2.54-2.08,2.7-1.89,4.64-.82,4.89,2.61-10.6,12.11-22.28,23.06-35.12,32.77-37.93,28.65-80.5,46.29-127.38,53.77-18.16,2.9-36.42,3.36-54.74,2.78-2.97-.1-5.93-.56-8.89-.86-.15-.48.37-1.19.03-1.36-1.17-.6-1.53.89-2.42,1.13-2.03-.44-4.18-.07-6.14-.97,1-1.61.08-2.17-1.34-2.51-1.68-.4-3.42-.59-5.07-1.09-.95-.29-2.37-.11-2.32-1.76Z" style="fill: #21815d; stroke-width: 0px;"/>
  <path d="M286.99,587.78c2.76,1.44,5.92,1.26,8.81,2.18,1.12.35,2.33.53,2.25,1.93-.08,1.39-1.46.99-2.33,1.25-16.84-1.59-33.21-5.49-49.17-10.9-62.15-21.07-109.94-60.01-143.76-116.17-3.11-5.17-6.38-10.28-8.42-16.02.98-.9,1.22.08,1.58.64,7.98,12.45,15.86,24.99,25.14,36.53,5.52,6.87,11.36,13.49,17.35,20,15.1,16.42,32.48,30,50.99,42.19,17.23,11.35,35.81,20.1,55.29,26.92,13.49,4.73,27.21,8.63,41.37,10.82.32.05.6.41.89.63Z" style="fill: #157f5a; stroke-width: 0px;"/>
  <path d="M75.72,264.15c1.21,6.84-1.05,13.79.72,20.64.91,3.52,2.11,6.87,3.79,10.07.76,1.45,2.03,2,3.48,2.54,14.6,5.42,28.62,3.67,42.41-2.96,5.18-2.49,9.77-5.89,14.79-8.6.89-1.77,2.36-2.82,4.23-3.37,1.64-.48,3.38-.13,3.67,1.53,1.37,7.74,6.11,14,8.95,21.09.09.23.09.48.12.73-.16,1.59-.78,2.96-2,4.03-2.29,1.49-4.61,2.92-6.09,5.37-1.02,1.69-1.56,1.27-2.38-.4-2.63-5.38-3.71-10.98-3.55-16.95.16-5.79-1.05-6.57-6.57-4.93-3.41,1.01-6.01,3.45-9.11,5.02-4.17,2.11-8.44,3.3-13.1,3.74-4.54.43-8.99,1.72-13.52,2.36-5.89.83-11.81,1.5-17.78,1.29-6.74-.23-9.83-6.11-10.94-12.53-.82-4.72.65-9.65-.71-14.4.8-4.86,1.61-9.71,3.6-14.27Z" style="fill: #05a87a; stroke-width: 0px;"/>
  <path d="M530.39,505.89c-.81-3.46-2.79-3.19-5.13-1.58-.72.49-1.36,1.08-2.3,1.05.5-.75,1-1.5,1.5-2.24.9-3.11,3.4-5.13,5.23-7.58,4.45-5.95,9.19-11.68,12.8-18.22,5.27-8.59,11.28-16.71,16.51-25.32.53-.87,1.32-1.48,2.14-2.05,2.6-4.11,6.5-6.07,11.17-6.76-7.81,17.5-18.04,33.53-29.78,48.62-3.81,4.89-7.46,9.94-12.15,14.08Z" style="fill: #279c76; stroke-width: 0px;"/>
  <path d="M301.86,594.11c.06-.48.06-.97.2-1.43.52-1.64,1.92-1.08,3.04-1.1.65-.01,1.19.32,1.19,1.06,0,1.36-1.57.88-2.05,1.7-.82.19-1.64.41-2.38-.23Z" style="fill: #157f5a; stroke-width: 0px;"/>
  <path d="M68.18,303.72c-.16,2.54.78,5.18-.66,7.62-.03-2.56-.2-5.13.66-7.62Z" style="fill: #15b28b; stroke-width: 0px;"/>
  <path d="M66.83,345.08c1.29,2.22.48,4.62.58,6.95-.85-2.26-.62-4.61-.58-6.95Z" style="fill: #15b28b; stroke-width: 0px;"/>
  <path d="M67.42,312.65c-.1,2.31.72,4.7-.58,6.92.02-2.32-.33-4.67.58-6.92Z" style="fill: #15b28b; stroke-width: 0px;"/>
  <path d="M67.59,354.82c1.25,1.73.5,3.66.55,5.51-.85-1.77-.58-3.65-.55-5.51Z" style="fill: #15b28b; stroke-width: 0px;"/>
  <path d="M.21,140.56c1.01,1.17.63,2.52.5,3.84-.75-1.21-.67-2.52-.5-3.84Z" style="fill: #f3bb3a; stroke-width: 0px;"/>
  <path d="M68.91,298.43c-.02,1.33.55,2.76-.61,3.91-.07-1.35-.14-2.69.61-3.91Z" style="fill: #15b28b; stroke-width: 0px;"/>
  <path d="M260.02,575.79c-.75,0-1.5,0-2.25,0-3.24-1.96-6.99-2.5-10.48-3.74-1.25-.25-2.5-.51-3.75-.76-2.4-2.01-5.55-2.37-8.24-3.74-.5,0-1,0-1.5,0-1.12-1.49-3.1-1.29-4.49-2.24-.25,0-.5,0-.75,0-1.18-1.38-2.95-1.57-4.49-2.24-1.25-.5-2.5-1.01-3.75-1.51-1.95-1.78-4.52-2.44-6.74-3.73-2.78-1.19-5.24-3.05-8.24-3.76-.96-1.8-3-1.98-4.49-2.98-8.76-5.12-17.13-10.83-25.36-16.74-1-.72-2.07-1.33-3.11-2-.75-1.62-2.3-2.23-3.74-2.99h0c-1.15-1.67-2.78-2.75-4.48-3.75-.25-.25-.5-.5-.76-.76-.75-1.62-2.3-2.23-3.74-2.99-.5-.5-1.01-1-1.51-1.5-2.53-2.73-5.04-5.48-8.23-7.49-.25-.25-.5-.5-.76-.76-3.06-4.15-6.48-7.96-10.48-11.23-.5-1.01-1.25-1.76-2.25-2.26-.76-1.43-1.37-2.99-2.99-3.73h0c-1-1.71-1.9-3.49-3.74-4.5-1.03-1.23-1.47-2.93-3-3.75-.76-1.43-1.37-2.99-2.99-3.74-5.06-8.16-11.02-15.75-15.64-24.2-1.48-2.7-3.06-5.34-4.6-8.01-8.64-16.61-16.03-33.73-21.21-51.76-3.86-13.44-6.72-27.09-8.07-41-.87-8.9-.98-17.88-.08-26.8.79-7.8,7.17-13.61,15.08-14.03,5.13-.27,10.18.81,15.31.85,9.35.07,18.48-.46,26.32-6.43.2-.15.43-.26.64-.39,6.43-3.9,9.4-2.42,10.17,5.26.47,4.76,1.61,9.3,3.71,13.59.48.98.95,2.25,2.29,2.18,1.13-.06,1.44-1.25,1.91-2.11,1.31-2.4,2.41-4.92,4.81-6.57,2.17-1.49,4.23-1.5,5.3.95,2.64,6,7.36,9.58,13.05,12.27,1.61.76,2.77,2.1,3.52,3.76,4.28,9.54,7.21,19.37,6.96,29.97-.12,4.98-.19,9.97.72,14.92,1.16,6.29,3.91,11.43,10.29,13.57,11.47,3.85,22.55,1.91,33.33-2.82,2.1-.92,3.37-2.94,5.09-4.37,2.4-1.99,3.95-1.98,5.58.62,5.16,8.26,13.22,10.44,22.13,10.86,5.87.28,11.7-.18,17.48-1.28,5.02-.95,9.54-3,13.48-6.17,6.29-5.06,13.66-6.51,21.39-6.45,3.59.03,6.65,1.8,8.98,4.73,2.4,3.01,4.1,6.58,7.27,8.98,4.72,3.58,10.3,4.63,15.89,4.58,10.04-.09,19.83,1.76,29.7,2.93,3.8.45,7.46-.2,11.16-.62,10.24-1.17,20.56-1.74,30.1-6.56,4.91-2.48,9.96-.81,13.89,2.77,5.08,4.62,11.14,5.7,17.59,6.14,4.47.31,8.88,1.16,13.29,2.02,3.17.62,5.19,2.37,6.22,5.28,1.01,2.87,2.31,5.5,4.52,7.66,2.68,2.62,1.23,6.2,2.08,9.22,2.13.31,2.51-1.68,3.43-2.75,2.13-2.51,4.13-5.15,5.13-8.38,6.92-11.43,12.44-23.47,16.16-36.32,1.62-5.6,2.81-11.32,4.55-16.89.97-1.58,1.37-3.35,1.71-5.15.08-.38.2-.75.34-1.11,2.44-10.19,4.15-20.43,4.75-30.96.75-13.05-.2-25.91-2.55-38.63-4.96-26.83-14.96-51.61-30.99-73.88-5.77-8.02-11.79-15.86-18.77-22.77-10.54-10.45-22.05-19.79-34.69-27.74-21.78-13.69-45.5-22.11-70.74-26.16-13.9-2.23-27.99-2.45-42.12-1.37-12.09.93-24.01,2.89-35.99,4.51-1.37.18-2.74.26-4.11.13-4.52-.42-6.22-2.12-6.84-6.83.08-4.27.16-8.55.25-12.82.49-6.8-.96-13.48-1.28-20.23,4.44,6.16,5.87,13.63,8.76,20.46,1.59,3.76,3.72,6.28,7.57,7.34,5.51,1.51,10.98,1.93,16.83,1.71,11.31-.42,22.67-1.71,33.97-.95,24.64,1.67,48.69,6.14,71.44,16.34,17.49,7.84,33.64,17.64,48.03,30.4,13.86,12.28,26.49,25.58,36.21,41.43,8.33,13.6,15.57,27.69,20.43,43,3.96,12.47,7.04,25.1,8.31,38.07,1.11,11.37,1.22,22.79.27,34.27-1.07,12.95-3.45,25.56-7.41,37.87-3.61,11.24-7.26,22.55-12.59,33.08-6.74,13.31-14.65,25.92-25.46,36.56-3.64,3.58-7.02,7.33-11.35,10.09-.4.25-.92.3-1.7.55,0-.93-.3-1.89.05-2.33,5.74-7.25.45-15.79,2.78-23.48.82-2.71-.91-4.73-3.87-5.32-.58-.12-1.24-.37-1.64-.78-6.98-7.09-16.25-7.14-25.18-8.16-14.81-1.68-29.35,2.07-44.07,2.45-4.09.11-8.28-.56-12.14.02-8.77,1.33-16.95-1.2-25.24-2.64-7.15-1.24-14.47-2.48-21.1-5.85-1.1-.56-2.39-1.1-3.08-2.03-5.16-6.87-12-6.11-18.95-4.13-9.55,2.72-19.06,5.71-28.82,7.42-9.66,1.69-19.08,1.07-27.95-4.42-4.93-3.05-10.89-3.6-16.85-3.04-7.91.75-15.25,4.59-23.23,4.47-7.19-.1-14.32-1.54-19.24-7.37-6.39-7.57-11-16.14-13.4-25.93-.99-4.04-2.77-8.1-5.06-11.57-4.12-6.24-6.52-13.07-8.66-20.09-.48-1.57-.49-4.08-2.61-4.02-2.03.05-1.94,2.57-2.57,4.12-1.76,4.37-.72,9.13-1.84,13.6-.3,1.2-.12,2.76-1.46,3.15-1.27.37-1.64-1.18-2.41-1.93-6.74-6.64-6.34-15.89-8.85-24.07-.76-2.48-1-5.11-1.62-7.63-.72-2.96-2.44-3.43-4.58-1.38-1.83,1.75-3.13,3.86-4.27,6.09-1.66,3.24-4.21,5.43-7.01,7.82-6.6,5.64-14.29,5.85-22.08,6.57-4.3.4-8.16,2.15-11.74,4.49-1.27.83-2.22,2.12-2.5,3.63-1.58,8.58-2.2,17.17-.74,25.88,3.43,20.51,10.42,39.88,19.27,58.55,7.69,16.22,17.57,31.15,28.72,45.29,6.89,8.74,14.43,16.83,22.45,24.46,11.62,11.07,24.12,21.01,37.63,29.79,18.41,11.96,38.22,20.78,58.91,27.76,15.21,5.13,30.89,8.13,46.81,10.22,14.99,1.97,30.02,1.88,45,1.21,14.59-.65,29.05-3.2,43.27-6.77,20.48-5.14,40-12.79,58.71-22.54,1.97-1.03,3.83-2.37,6.13-2.69,3.12,2.29,3.19,2.41.2,4.12-15.71,8.99-32.26,15.99-49.56,21.35-11.4,3.54-22.98,6.16-34.71,8.18-7.57,1.3-15.24,2.04-22.9,2.57-10.54.72-21.12,1.04-31.67.41-6.67-.4-13.35-.87-19.96-1.91-4.3-.47-8.51-1.51-12.77-2.17-1.75-.64-3.73-.2-5.43-1.11-.75,0-1.5,0-2.25,0-4.02-2-8.62-2.05-12.73-3.74Z" style="fill: #16bb95; stroke-width: 0px;"/>
  <path d="M411.32,488.14c-.34,1.1-2.12,1.9-1.06,3.24.82,1.03,2.05.05,3.12-.02,9.05-.65,16.82-5.05,24.93-8.45-.2,2.86-2.72,3.68-4.57,4.93-15.88,10.77-32.88,19.26-51.21,25.09-21.53,6.84-43.6,9.58-66.07,8.3-21.67-1.24-42.57-6.33-62.59-14.84-17.93-7.62-34.11-18.04-49.04-30.48-.76-.64-1.44-1.39-2.4-1.75-8.36-6.52-15.58-14.17-22.28-22.35-8.45-10.33-15.73-21.43-22-33.21-.65-1.22-1.23-2.44-1.37-3.84,0-.59.16-1.11.61-1.51,2.02,2.79,4.03,5.6,6.09,8.36.51.68,1.13,1.68,1.8,1.77,4.66.57,7.01,4.17,9.83,7.19,1.61,1.73,3.31,3.36,5.37,4.56,2.01,1.18,2.36-.01,2.4-1.67,1.96-.3,2.54,1.37,3.31,2.53,16.51,24.81,38.55,43.33,65.14,56.36,19.2,9.41,39.56,14.87,61,16.64,32.36,2.68,62.7-4.02,91.66-18.19,2.3-1.13,4.15-3.86,7.33-2.66Z" style="fill: #14e9cd; stroke-width: 0px;"/>
  <path d="M202.33,473.17c4.87,2.52,8.65,6.52,13,9.75,23.85,17.76,50.29,29.27,79.57,34.61,14.17,2.58,28.4,3.53,42.66,2.69,22.59-1.33,44.34-6.61,65.02-16.05,12.14-5.54,23.67-12.1,34.48-19.92.48-.35.83-.89,1.25-1.34,3.98-1.39,6.4-5.35,11.48-6.85-3.12,4.83-6.8,7.98-10.3,11.16-11.58,10.53-24.65,18.88-38.72,25.67-15.08,7.28-30.87,12.54-47.32,15.51-14.23,2.57-28.7,3.23-43.11,2.33-17.76-1.11-35.09-4.55-51.91-10.69-16.35-5.97-31.73-13.71-45.82-23.85-11.82-8.5-22.81-18.12-32.27-29.16-10.01-11.69-18.48-24.53-25.46-38.38-5.98-11.86-10.5-24.14-13.5-37.02-1.71-7.36-2.81-14.83-3.43-22.37-.08-.96-.31-2.32.86-2.61,1.45-.36,1.27,1.19,1.56,2.02,4.41,12.28,7.81,24.93,13.32,36.81,1.21,2.6,2.47,5.17,3.71,7.76,0,.49-.01.98-.02,1.48-1.84.09-2.14-1.51-2.72-2.63-2.23-4.33-4.53-8.62-6.36-13.24,5.81,25.03,29.21,66.12,68.05,92.59,33.31,22.71,70.1,33.5,110.43,32.15-11.3.16-22.39-1.46-33.38-3.74-32.35-6.7-61.59-20.03-87.07-41.23-1.73-1.44-4.07-2.61-4-5.45Z" style="fill: #33e9d0; stroke-width: 0px;"/>
  <path d="M411.32,488.14c-5.95,2.52-11.43,5.98-17.45,8.4-13.52,5.43-27.26,9.84-41.77,11.96-10.37,1.51-20.72,2.41-31.18,2.09-19.02-.59-37.39-4.41-55.24-10.99-13.4-4.94-25.85-11.63-37.56-19.76-16.71-11.6-30.95-25.68-42.29-42.63-.88-1.32-1.43-2.94-2.96-3.76-5.53-10.24-11.01-20.48-15.11-31.41-2.79-7.43-5.04-14.99-6.38-22.82-.14-.82-.67-1.9.42-2.26,1.13-.37,1.33.77,1.61,1.58,1.39,4.08,3.74,7.82,4.42,12.16-.98-.06-1.38.09-1.1,1.32,1.28,5.77,3.52,11.2,5.93,16.54,8.02,17.79,18.59,33.91,32.32,47.84,23.03,23.37,50.47,38.81,82.62,45.81,8.04,1.75,16.2,2.52,24.33,3.57-16.3-2.13-32.02-6.55-47.09-12.99-20.14-8.6-38.36-20.22-54.06-35.66-9.64-9.48-18.66-19.45-25.87-30.94-.87-1.39-2.44-2.7-1.28-4.69,3.16,3.03,5.03,7.03,7.76,10.39,13.79,17.03,29.51,31.89,48.25,43.42,13.62,8.39,27.94,15.06,43.48,19.25,10.68,2.88,21.26,5.74,32.4,6.44,6.8.42,13.58,1.63,20.41,1.33,18.79-.84,37.24-3.41,55.09-9.85,7.15-2.58,14.09-5.56,21.12-8.39,1.22-.49,3.07-2.08,3.94-.53.79,1.43-1.68,1.7-2.56,2.63-.66.69-1.78.92-2.18,1.95Z" style="fill: #33e9d0; stroke-width: 0px;"/>
  <path d="M183.62,421.51c2.32,5.86,6.3,10.67,10.07,15.57,5.85,7.61,12.51,14.53,19.52,21.08,20.53,19.19,44.28,32.72,71.29,40.59,9.4,2.74,18.91,4.94,29.23,6.76-16.14,2.37-62.17-8.04-93.87-34.33-26.73-22.17-45.8-49.08-55.3-83.17,2.41.31,2.14,2.18,3.28,2.69,2.57,5.64,5.13,11.3,7.73,16.93,2.25,4.87,5.05,9.43,8.06,13.87Z" style="fill: #55e7ce; stroke-width: 0px;"/>
  <path d="M292.98,582.52c10.99.74,21.98,1.66,32.98,2.15,6.29.28,12.6-.46,18.89-.79,8.12-.44,16.25-1.55,24.28-2.92,27.23-4.63,53.22-13.03,77.48-26.44,1.51-.83,3.09-1.61,4.65-2.27,2.99-1.27,1.93-2.58.55-4.16,9.53-5.1,18.42-11.16,27.01-17.68,6.23-4.72,12.44-9.45,18.01-14.95,1.2-1.18,2.58-2.35,4.41-2.58,2.29,1.93,1.66,3.46-.37,5.27-8.99,8.04-18.48,15.41-28.44,22.2-20.79,14.17-43.08,25.26-67.1,32.82-15.64,4.92-31.51,8.55-47.88,10.25-12.99,1.35-25.96,2.13-39,2.11,0,0,0,0,0,0-3.44-1.06-7.04.28-10.48-.75h0c-2.67-1.04-5.56.25-8.23-.75-.25,0-.5,0-.75,0-1.64-1.01-3.59.23-5.24-.74-.25,0-.5,0-.75,0-.09-.13-.19-.25-.28-.38.1-.12.19-.25.29-.37Z" style="fill: #16b68f; stroke-width: 0px;"/>
  <path d="M212.09,165.27c-2.41,6.54-5.22,12.86-10.14,17.96-1.53,1.59-2.96,2.77-3.47-.9-.37-2.68-1.43-5.22-1.58-8.01-.14-2.53-1.76-3.76-4.54-3.86-16.14-.57-32.18-2.43-48.39-2.54-8.86-.06-17.92-2.09-26.8-3.75-2-.38-3.97-.45-5.94-.37-5.9.24-11.64-.21-17.23-2.45-3.55-1.42-7.42-.52-11.13-.52-3.77,0-6.19-1.4-7.22-5.11-.3-1.07-.88-2.06-1.31-3.09-1.06-2.57-3.26-3.32-4.97-1.45-5.55,6.05-12.53,6.2-19.9,5.93-4.52-.17-5.69-.96-6.76-5.56-1.25-5.39-.37-10.89-1.37-16.31-.88-4.73-1.2-9.59-1.45-14.4-.3-5.73.24-11.52,2.3-16.85,3.05-7.88,5.28-16.07,9.25-23.62,6-11.41,14.74-20.16,25.13-27.57,12.02-8.57,25.41-13.5,39.91-15.5,11.82-1.63,23.52-.62,35.01,2.57,15.26,4.23,28.62,11.61,40.11,22.76,14.71,14.27,23.7,31.23,27.27,51.34,1.81,10.19.95,20.24-.24,30.33-.29,2.44-1.37,4.72-2.75,6.8-2,1.27-2.26,3.77-3.86,5.39-3,3.04-4.4,2.93-6.36-.84-.46-.88-.98-1.74-1.16-2.74-.53-4.83-1.29-5.58-6.04-6.03-1.58-.15-3.2.11-4.72-.53-1.98-2.01-.02-3,1.14-4.09,1.58-1.47,3.93-2.11,4.76-4.4,1.68-2.2,2.69-4.63,2.61-7.45,3.49-2.61,5.76-2.35,8.05,1.14,1.93,2.93,3.34,6.13,4.01,9.61.25,1.32.34,2.7,1.34,4.3.93-2.07,1.22-3.85,1.28-5.69.52-11.92-.23-23.68-4.25-35.04-.41-1.17-.65-2.41-.78-3.65.1-4.35-2.07-8-3.67-11.83-.17-.3-.31-.61-.45-.92-.39-.91-.77-1.82-1.27-2.68-.17-.28-.32-.57-.47-.86-.96-1.91-1.94-3.8-3.72-5.11-3.31-4.17-6.6-8.34-10.25-12.27-6.96-7.48-15.31-13-23.93-18.22-.91-.88-2.04-1.27-3.27-1.45-7.11-2.82-14.54-4.54-21.86-6.67-1.73-1.04-3.71-.47-5.54-.87-.39-.05-.77-.15-1.15-.28-7.27-.39-14.52-.47-21.73.62-.36.07-.72.14-1.08.24-1.18.25-2.42.21-3.59.58-.32.11-.64.19-.97.26-1.13.19-2.3.26-3.3.93-2.06,1.03-4.22,1.76-6.47,2.22-2.13.02-4.01.78-5.74,1.95-1.02.64-2.05,1.26-3.21,1.61-1.15.24-2.21.67-3.08,1.49-9.84,5.16-18.18,12.07-24.72,21.16,4.36-2.48,7.99-6.19,12.9-7.72,5.55-1.88,10.95-4.1,16.66-5.55,8.75-2.22,17.56-3.51,26.58-3.53,12.86-.04,24.92,3.36,36.39,8.85,17.99,8.62,33.24,21.03,47.13,35.18,2.53,2.58,4.33,5.82,6.05,8.97,2.33,4.27,1.25,8.12-2.64,11.09-1.58-1.63-1.22-4.3-3.12-5.75-1.29-3.33-3.51-5.95-6.03-8.43-7.65-7.51-14.91-15.46-22.91-22.59-12.16-10.85-26.52-16.75-42.8-18.73-14.09-1.72-27.35,1.03-40.32,5.7-6.52,2.35-12.8,5.54-18.92,8.87-2.84,1.55-5.62,3.19-8.58,4.53-7.3,3.3-11.11,9.81-14.45,16.55-1.76,3.56-2.45,7.58-3.43,11.45-.21.84-.44,1.81.3,2.48.81.74,1.62.11,2.38-.3q6.46-3.43,6.64,3.89c0,.37.03.75.05,1.12.4,7.94-.55,15.83-.69,23.75-.05,2.49-.81,5.49,2.17,6.96,3.05,1.51,5.77.34,8.24-1.63.66-.47,1.27-1.02,1.93-1.5.35-.22.73-.38,1.12-.5,6.88-1.68,9.21-.83,13.44,4.92,1.18,1.61,2.04,3.43,3.34,4.96,1.65,1.94,3.59,2.92,6.25,2.34,3.55-.78,6.94-.29,10.03,1.75,3,1.99,6.33,2.24,9.71,1.5,3.76-.82,7.24-.61,10.92.89,4.76,1.93,10.04,1.6,15.08,2.34,6.17.92,12.41.2,18.58.35,6.27.16,12.63.79,18.93,1.38,5.93.56,11.87,1.74,17.69-.28,4.93-1.72,9.67-.67,14.17,1.04,2.53.96,4.58.98,6.87-.04Z" style="fill: #d82; stroke-width: 0px;"/>
  <path d="M256.26,172.04c.8-2.77,1.6-5.54,2.4-8.31.73-1.45,2.08-2.06,3.51-2.6,20.4-7.69,41.5-12.14,63.29-11.72,21.67.42,42.88,3.98,63.28,11.89,20.47,7.93,39.18,18.7,55.61,33.21,10.1,8.92,19.39,18.69,27.22,29.75,1.3,1.84,2.44,3.79,3.14,5.94.48,1.45.79,3.06-.63,4.14-1.42,1.08-2.88.39-4.14-.52-5.36-3.89-10.29-8.32-15.11-12.83-24.47-22.86-52.99-38.44-85.15-47.46-12.03-3.37-24.33-5.68-36.73-6.96-15.02-1.54-30.07-1.17-45.08,1.2-9.74,1.54-19.5,2.81-28.92,5.91-1.1.36-3.32,1.36-2.69-1.65Z" style="fill: #09603c; stroke-width: 0px;"/>
  <path d="M33.43,137.75c2.03,1.06,2.14,2.88,2.42,4.3,1.59,8.07,3.73,15.95,6.9,23.55,2.58,6.19,6.77,11.24,11.08,16.22.44.51,1.26.68,2.41,1.27-.09-3.79-2.32-6.35-3.25-9.31-.92-2.97-2.14-5.84-3.18-8.77-.28-.79-.69-1.87.34-2.3,1.1-.45,1.4.74,1.82,1.44,3.46,5.75,6.73,11.61,11.01,16.83,11.51,14.01,25.82,23.81,43.14,29.32,8.6,2.74,17.4,4.39,26.34,4.29,13.04-.14,25.62-2.97,37.52-8.45,2.12-.97,4.23-1.84,6.81-2.26-1.42,3.64-5.54,4.26-7.07,7.77,9.55-2.17,16.36-8.47,23.87-14.2-2.76,16.09-50.08,35.55-74.21,33.14-57.25-5.72-90.09-56.33-85.95-92.85Z" style="fill: #feda56; stroke-width: 0px;"/>
  <path d="M256.26,172.04c.31,2.05,1.6,1.05,2.51.72,12.23-4.49,25.16-5.86,37.9-7.16,8.89-.9,17.99-1.17,27.13-.68,12.23.66,24.15,2.84,36.04,5.06,11.09,2.07,21.83,5.87,32.37,10.06,16.52,6.57,31.77,15.42,46.18,25.75,8.19,5.87,15.34,13,22.95,19.57,3.1,2.68,6.28,5.26,9.4,7.91.93.79,1.97,1.33,3.01.48.86-.71.69-1.91.28-2.8-.88-1.92-1.77-3.88-2.98-5.59-8.89-12.57-19.57-23.5-31.28-33.43-12.32-10.45-26.08-18.66-40.76-25.3-15.81-7.14-32.24-12.17-49.55-14.15-9.62-1.1-19.21-2.45-28.92-2.19-10.81.29-21.43,2.16-32.04,4.11-10.32,1.9-20.11,5.51-29.83,9.32.5-1.98,1-3.96,1.5-5.94,8.54-1.79,16.6-5.3,25.19-6.95,23.96-4.59,47.9-5.39,72.07-1.17,27.82,4.86,53.09,15.5,75.66,32.26,21.63,16.06,38.7,36.08,51.24,60.1,10.07,19.3,17.4,39.4,21.12,60.83.23,1.35.59,2.7-.07,4.04-2.74,1.55-4.04,1.22-5.13-2.06-1.69-5.08-3.2-10.22-4.88-15.3-1.14-3.43-2.26-6.9-2.95-10.43-.96-4.94-3.34-9.06-6.32-12.97-7.19-9.4-14.08-19.02-22.02-27.86-9.38-10.43-19.73-19.71-30.9-28.15-16.69-12.62-35.27-21.71-55.05-28.1-14.58-4.71-29.66-7.6-45-9.05-12.46-1.18-24.94-.97-37.36-.51-12.28.46-24.57,1.84-36.52,5.18-1.56.44-3.65,1.55-4.54-1.19-.11-1.69.72-3.05,1.57-4.4Z" style="fill: #09784e; stroke-width: 0px;"/>
  <path d="M504.97,306.85c-1.51-11.47-4.34-22.62-8.13-33.55-2.73-7.89-5.44-15.86-9.32-23.17-5.63-10.62-11-21.42-18.68-30.91-5.95-7.35-11.7-14.84-18.57-21.37-11.68-11.09-24.38-20.73-38.64-28.39-15.58-8.36-32-14.29-49.19-18.07-16.88-3.71-34.09-4.29-51.23-3.17-15.98,1.04-31.78,3.81-46.78,9.93-1.49.61-2.92.5-4.29-.37.44-2.01.23-4.15,1.26-6.03,16.16-1.08,31.7-6.02,47.91-7.23,30.35-2.26,59.41,2.32,87.37,14,21.39,8.94,40.35,21.69,56.98,37.86,17.08,16.61,30.74,35.69,40.25,57.52,10.06,23.09,15.59,47.3,15.73,72.56.04,7.44.03,14.96-1.69,22.3-1.07,3.19-.99,6.64-2.13,9.8-.42,1.17-.93,2.54-2.44,2.43-1.33-.09-1.62-1.45-1.86-2.52-1.72-7.93-4.94-15.36-7.5-23.01-2.53-7.58-8.45-11.15-16.3-10.13-4.12.54-8.35.71-12.12-1.72-.4-2.16.57-3.54,2.52-4.33,2.01.5,3.9.18,5.8-.64,2.85-1.23,5.75-2.37,8.66-3.46,6.48-2.42,10.3-.73,13.4,5.41,2.58,5.11,3.99,10.72,6.83,15.71.6,1.05.94,2.28,2.62,3.76,1.22-7.02,1-13.42.33-19.84-.31-1.5-.34-3-.18-4.51.42-1.41.21-2.75-.51-4.03-.27-1.61-1.11-3.22-.12-4.86Z" style="fill: #0ea077; stroke-width: 0px;"/>
  <path d="M504.97,306.85c.46,1.72.99,3.42.77,5.23.89.85.29,2.06.74,3.01,0,1.75,0,3.49,0,5.24.45.53.38,1.17.35,1.78-.05,1.32.44,2.96-1.18,3.63-1.75.72-2.76-.68-3.7-1.84-4.13-5.08-4.89-11.41-5.96-17.47-2.56-14.43-7.34-27.9-15.33-40.23-7.76-11.99-17.09-22.79-27.17-32.73-16.89-16.66-36.4-29.68-58.21-39.42-15.84-7.07-32.12-12.41-49.13-15.27-12.88-2.16-25.93-3.16-39.03-3.64-11.73-.43-23.36.09-34.97,1.53-5.36.66-10.45,2.33-15.4,4.47-1.3.56-2.6,1.68-4.17.6.46-1.51.91-3.01,1.37-4.52.25-.26.49-.52.74-.78,1.44,1.47,2.95.61,4.5.19,9.72-2.65,19.69-3.62,29.66-4.71,8.71-.95,17.4-.56,26.1-.65,16.06-.16,31.77,2.21,47.5,5.58,16.61,3.55,32.12,9.69,47.08,17.24,13.87,7.01,26.4,16.18,38.11,26.49,13.98,12.3,25.36,26.74,36.72,41.39,6.15,7.93,8.92,16.67,11.6,25.81,1.64,5.59,3.4,11.14,5.14,16.69.59,1.87,1.24,3.75,3.86,2.37Z" style="fill: #0f8c64; stroke-width: 0px;"/>
  <path d="M507.22,348.81c1.94-13.85,1.72-27.66.19-41.58-1.7-15.45-5.75-30.27-10.94-44.75-6-16.74-15.06-31.9-26-45.94-16.05-20.6-35.54-37-58.48-49.53-19.13-10.45-39.53-16.8-60.88-20.32-12.44-2.05-25.07-2.26-37.62-1.51-14.73.88-29.28,3.42-43.63,6.96-2.89.71-5.67.44-8.45-.38.39-3.2.77-6.41,1.16-9.61,2.09,5.05,4.23,6.53,9.73,5.84,7.85-.99,15.63-2.63,23.49-3.45,14.21-1.48,28.4-2.27,42.76-1.2,13.1.98,25.8,3.52,38.33,7.04,14.91,4.18,29.01,10.4,42.3,18.42,12.61,7.6,24.17,16.49,34.85,26.67,13.91,13.26,24.97,28.51,34.36,45.16,9.51,16.86,15.25,35.05,19.23,53.83,1.56,7.37,2.03,14.95,2.77,22.48.68,6.88-.17,13.62-.18,20.42,0,9.37-2.3,18.41-4.28,27.48-.15.69-.63,1.3-.96,1.95-1.29-1.34-1.21-3.02-.63-4.48,1.72-4.35,1.92-9,2.88-13.49Z" style="fill: #14b28d; stroke-width: 0px;"/>
  <path d="M212.09,165.27c-.74.83-1.42,1.72-2.22,2.48-.53.5-1.73,1.11-1.93.64-1.68-3.9-5.96-1.56-8.44-3.69-1.79-1.55-4.12-.3-6.04.23-6.83,1.9-13.61,1-20.54.7-7.38-.31-14.68-1.82-22.15-1.18-9.79.83-19.65-.33-29.04-2.6-5.17-1.25-9.73-1.81-14.75-.69-1.13.25-2.62.11-3.61-.45-5.1-2.88-10.22-4.26-16.27-3.21-2.91.51-4.54-3.1-6.01-5.53-4.59-7.55-5.88-8.21-14.36-6.92,1.85-3.07,5.98-4.56,9.57-3.34,4.85,1.65,9.26,3.77,10.77,9.36.57,2.1,2.21,3.37,4.47,3.34,3.67-.06,7.18.86,10.7,1.65,4.41.99,8.82,1,13.29,1.23,4.99.26,10.19.47,15.09,2.09,3.8,1.26,7.69,2.14,11.61,2.92,1.73.34,3.5.66,5.21.33,10.47-2.05,20.78-.72,31.1,1.19,4.7.87,9.4.83,13.9-1.33,2.01-.97,4.18-1.66,6.43-1.91,3.31-.37,4.95-2.07,4.63-5.47.01-1.15.48-1.92,1.7-2.07.18.33.28.74.55.97,1.31,1.15,1.04,4.27,2.87,3.93,2.23-.41,3.75-2.7,4.69-4.95.5-1.19.44-3.01,2.59-1.89-.16,5.03-1.43,9.75-3.81,14.18Z" style="fill: #d48722; stroke-width: 0px;"/>
  <path d="M472.76,438.68c-.66-5.55-.92-11.24-5.72-15.24-.89-8.52-7.69-8.52-13.75-9.43-4.53-.68-9.11-.98-13.65-1.59-4.64-.62-8.13-3.47-11.66-6.26-4.24-3.35-8.78-3.69-13.6-1.22-6.99,3.59-14.59,4.64-22.3,5.3-3.45.29-6.91.63-10.31,1.27-4.42.83-8.68-.35-12.98-.72-8.02-.7-15.92-2.28-24.06-2.2-5.66.05-11.36-.93-16.2-4.55-3.4-2.53-5.16-6.35-7.8-9.46-2.74-3.23-6-4.39-10.42-4.16-6.27.32-12.14,1.39-17.18,5.19-13.39,10.11-28.28,10.26-43.65,6.63-5.23-1.23-9.46-4.33-12.02-9.34-.92-1.79-2.26-2.94-3.94-.76-5.01,6.5-12.28,7.97-19.74,9.02-7.45,1.05-14.81,1.42-21.86-2.12-5.43-2.73-7.9-7.43-9.01-12.99-.92-4.64-1.05-9.39-.8-14.12.6-11.1-2.64-21.34-6.86-31.38-.77-1.84-2.36-2.86-4.1-3.62-5.44-2.38-9.88-5.78-12.02-11.59-.95-2.57-2.39-2.62-4.47-1.08-2.69,1.99-3.52,5.07-5.01,7.77-1.65,2.99-2.35,3.06-4.28.22-3.12-4.58-3.56-9.97-4.47-15.2-1.42-8.14-2.99-9.29-9.55-4.5-7.23,5.28-15.41,6.02-23.57,6.68-5.85.48-11.84-.98-17.77-1.12-8.56-.2-14.57,6.15-15.1,14.61-1.74,27.81,3.79,54.44,12.74,80.52,3.88,11.32,8.73,22.24,14.25,32.86.74,1.42,1.71,2.79,1.53,4.54-4.18-5.02-6.45-11.12-9.09-16.93-7.17-15.79-12.84-32.14-16.77-49.06-.22-.95-.25-1.95-.36-2.93-2.89-13.81-4.86-27.76-5.42-41.86-.18-4.57.15-9.18.55-13.77,1.01-11.48,11.39-14.84,19.25-14.16,8.93.77,17.9,1.32,26.79-.28,5.03-.91,9.91-2.29,14.2-5.38,5.85-4.22,7.72-3.42,9.04,3.53.81,5.42.41,11.09,3.19,16.12.7,1.26,1.13,3.1,2.86,3.03,1.76-.07,1.99-1.89,2.52-3.26.52-1.36.6-2.94,1.92-3.91.64-.92,1.25-1.88,2.03-2.68,2.09-2.16,4.6-2.25,5.86.43,2.27,4.83,6.79,6.37,10.92,8.5,4.8,2.48,7.96,6.2,9.72,11.28,2.23,6.44,2.53,13.16,3.25,19.84.81,7.56.2,15.2,1.27,22.73,1.88,13.24,7.97,18.35,21.25,17.47,4.94-.33,9.9-1.1,14.7-2.43,7-1.94,13.32-9.72,13.73-16.56.18-1.08.67-1.84,1.91-1.79,2.44,2.89,3.08,2.91,6.12,0,7.97-7.64,12.09-17.53,16.1-27.49,6.13-15.22,10.93-31.03,19.58-45.14,4.04-6.59,8.65-12.8,14.03-18.37,1.06-1.1,2.13-3.11,4.29-1.53.06,1.26-.78,2.06-1.53,2.89-9.39,10.4-16.05,22.46-21.76,35.15-4.92,10.92-8.45,22.38-13.28,33.33-4.46,10.13-9.52,19.75-18.24,27-2.92,2.43-2.93,6.95.1,10.04,4,4.07,8.72,6.97,14.72,7.27,5.76.28,11.43-.71,17.15-1.02,5.85-.32,10.67-3.29,14.91-7.14,7.19-6.53,15.98-7.08,24.91-6.49,3.79.25,6.31,3.32,8.61,6.16,1.88,2.32,3.67,4.71,5.67,6.95,3.77,4.23,8.6,6.24,14,5.9,10.55-.66,20.81.78,31.1,2.85,6.59,1.32,13.1-.97,19.66-1.47,7.5-.57,14.38-2.67,20.76-6.66,4.31-2.69,8.55-2.14,12.55.86.9.67,1.96,1.17,2.7,2.01,5.76,6.5,13.51,7.45,21.48,7.74,3.98.14,7.98-.23,11.91.81,1.74.46,3.31,1.14,4.41,2.61,2.39,3.19,4.57,6.54,7.33,9.45,1.1,1.16,1.28,2.72,1.12,4.23-.37,3.47-.9,6.91-2.43,10.11Z" style="fill: #16b68f; stroke-width: 0px;"/>
  <path d="M155.89,309.85c-.31-1.57.81-2.56,1.49-3.73,3.01-.03,5.04,2.42,7.88,3.01,4.54.95,9.14,1.23,13.7,1.92,5.3.81,6.73,2.05,8.2,7.23,2.56,8.98,5.6,17.8,6.91,27.15,1.48,10.5,2.01,21.08,3.24,31.6.59,5.06,1.44,9.88,5.29,13.62,3.24,3.15,7.02,4.18,11.34,2.73,6.22-2.09,11.94-5,16.08-10.34,1.26-1.45,2.56-2.81,4.76-1.91.73,1.15.19,2.28-.37,3.17-3.92,6.24-8.39,11.88-16.22,13.35-3.78.71-7.55,1.61-11.37,2.01-9.95,1.04-16.47-4.03-18.68-14.6-2.55-12.21-3.51-24.65-4.86-37.03-.62-5.69-.85-11.43-2.38-17.02-1.02-3.73-2.96-6.51-6.53-8.15-2.49-1.15-4.86-2.56-7.5-3.38-3.73-1.16-6.54-3.51-8.76-6.64l-2.25-2.99Z" style="fill: #11a57d; stroke-width: 0px;"/>
  <path d="M158.14,312.84c.36.07.89.02,1.07.24,3.95,5.01,10.18,6.01,15.44,8.65,4.03,2.03,6.37,4.93,7.38,9.19,1.44,6.05,1.67,12.25,2.4,18.4,1.26,10.56,2.01,21.19,4.02,31.65.56,2.92,1.12,5.78,2.32,8.58,2.97,6.92,9.96,10.75,17.35,9.15,3.15-.68,6.29-1.4,9.47-1.93,8.26-1.36,12.5-7.53,16.65-13.8.36-.54.18-1.45.24-2.18.06-.34.27-.54.6-.62,2.19,2.07.4,4.09-.45,5.71-4.06,7.68-9.93,12.64-19.19,13.25-5.89.38-11.62,2-17.67.8-8.72-1.73-11.72-8.13-13.27-15.63-1.78-8.63-.63-17.56-1.61-26.32-.77-6.89-1.12-13.88-3.89-20.34-1.58-3.69-4.32-6.47-7.98-8.44-4.44-2.39-9.97-3.43-11.75-9.38-.6-2-2.44-1.8-3.97-.63-1.08.83-2.09,1.74-3.13,2.62,1.06-3.62,2.67-6.87,5.99-8.98Z" style="fill: #15b28b; stroke-width: 0px;"/>
  <path d="M561.14,449.94c-5.99,9.24-11.98,18.47-17.96,27.71-5.51,7.52-10.9,15.14-17.11,22.12-.93,1.05-1.92,1.92-3.11,2.6-5.57,4.39-9.88,10.07-15.13,14.8-14.68,13.23-30.12,25.41-47.35,35.19-4.42,2.51-8.79,5.12-13.18,7.69-15.14,8.25-31.09,14.48-47.58,19.43-11.49,3.45-23.23,5.57-35.07,7.25-1.69.24-3.44.82-5-.47,1.92-2.81,5.06-1.55,7.61-2.16,5.92-1.41,12.12-1.54,17.87-3.83,18.89-4.54,37.26-10.63,54.72-19.18,16.66-8.16,32.5-17.79,47.08-29.26,12.3-9.68,24.07-20.07,34.7-31.6,11.11-12.05,21.05-25.07,30.07-38.77,1.91-2.9,3.84-5.79,5.8-8.65.91-1.33,1.8-2.74,3.66-2.88Z" style="fill: #11a67f; stroke-width: 0px;"/>
  <path d="M141.65,309.85c-.25-.54-.58-1.06-.75-1.62-1.16-3.93-3.02-4.72-6.14-2.24-7.49,5.96-16.21,7.66-25.44,7.58-6.58-.06-13.19-.45-19.74-.48-9.47-.04-15.05,3.54-16.15,13.6-1.57,14.33-.18,28.45,1.97,42.59.63,4.15,2.06,8.2,1.83,12.48-2.35-7.57-3.36-15.41-4.46-23.22-.88-6.25-2.13-12.55-2-18.81.17-8.45-.5-17.05,2.09-25.33.45-1.45,1.63-2.03,3.03-2.47,7.49-2.34,15.22-3.31,22.95-4.46,7.31-1.09,14.67.22,21.93-1.29,3.38-.7,6.37-2.06,9.25-3.81,1.7-1.03,3.32-2.22,5.11-3.07,3.23-1.53,5.07-.62,5.71,2.78.48,2.55,1.13,5.11.81,7.76Z" style="fill: #15b28b; stroke-width: 0px;"/>
  <path d="M359.65,586.27c9.67-.68,19.18-2.43,28.57-4.69,19.4-4.66,38.14-11.27,55.97-20.32.99-.5,2.07-.8,3.11-1.2-4.47,3.92-10.06,5.86-15.31,8.28-14,6.46-28.5,11.66-43.55,15.13-10.96,2.53-22.09,4.06-33.32,5.16-12.96,1.27-25.92,1.13-38.82.44-12.3-.66-24.64-2.09-36.68-5.15-.33-.08-.59-.43-.88-.65,6.06.26,11.94,1.81,17.95,2.5,7.36.85,14.74,1.68,22.12,1.9,11.03.33,22.08.34,33.09-.67,2.58-.24,5.1-1.04,7.74-.74Z" style="fill: #149c76; stroke-width: 0px;"/>
  <path d="M138.67,500.87c4.39,2.91,8.58,6,10.48,11.23-4.23-3.06-7.01-7.46-10.48-11.23Z" style="fill: #16b68f; stroke-width: 0px;"/>
  <path d="M260.02,575.79c4.21-.07,8.06,1.64,12.07,2.54.29.07.44.78.66,1.2-4.36-.86-8.95-.9-12.73-3.74Z" style="fill: #16b68f; stroke-width: 0px;"/>
  <path d="M149.91,512.86c4.17.93,6.3,4.09,8.23,7.49-3.25-1.94-5.99-4.44-8.23-7.49Z" style="fill: #16b68f; stroke-width: 0px;"/>
  <path d="M247.29,572.04c3.81.37,7.68.56,10.48,3.74-3.68-.73-7.31-1.59-10.48-3.74Z" style="fill: #16b68f; stroke-width: 0px;"/>
  <path d="M280.25,580.28c4.37.05,8.58,1.01,12.73,2.25,0,0,0,0,0,0-1.5.56-2.99.57-4.49,0-1.54.01-3.11.14-4.5-.75-1.11-.91-2.62.13-3.74-.74h0c-.09-.13-.19-.26-.28-.38.1-.12.19-.25.29-.37Z" style="fill: #16b68f; stroke-width: 0px;"/>
  <path d="M235.3,567.55c3.11.44,6.33.65,8.24,3.74-2.9-.91-5.99-1.4-8.24-3.74Z" style="fill: #16b68f; stroke-width: 0px;"/>
  <path d="M213.57,557.81c2.71.42,5.29,1.05,6.74,3.73-2.5-.78-5-1.57-6.74-3.73Z" style="fill: #16b68f; stroke-width: 0px;"/>
  <path d="M307.96,584.78c3.49.37,7.08-.83,10.48.75-3.49-.37-7.08.83-10.48-.75Z" style="fill: #15b28b; stroke-width: 0px;"/>
  <path d="M164.14,525.59c2.55-.02,3.9,1.41,4.48,3.74-1.86-.81-3.49-1.89-4.48-3.74Z" style="fill: #16b68f; stroke-width: 0px;"/>
  <path d="M129.68,490.39c2.33.59,3.76,1.94,3.74,4.49-1.92-.93-2.54-2.95-3.74-4.49Z" style="fill: #16b68f; stroke-width: 0px;"/>
  <path d="M229.31,565.3c1.82.1,3.87-.27,4.49,2.24-1.61-.52-3.53-.41-4.49-2.24Z" style="fill: #16b68f; stroke-width: 0px;"/>
  <path d="M200.84,551.07c2.05.17,4.06.39,4.49,2.98-1.52-.97-3.54-1.16-4.49-2.98Z" style="fill: #16b68f; stroke-width: 0px;"/>
  <path d="M299.72,584.03c2.73.39,5.61-.85,8.23.75-2.73-.39-5.61.85-8.23-.75Z" style="fill: #15b28b; stroke-width: 0px;"/>
  <path d="M224.06,563.05c1.82.1,3.87-.27,4.49,2.24-1.72-.3-3.24-1-4.49-2.24Z" style="fill: #16b68f; stroke-width: 0px;"/>
  <path d="M168.63,529.34c2.1-.07,3.43.82,3.74,2.99-1.24-1.01-2.93-1.45-3.74-2.99Z" style="fill: #16b68f; stroke-width: 0px;"/>
  <path d="M133.42,494.88c2.17.3,3.06,1.64,2.99,3.73-1.55-.81-1.98-2.5-2.99-3.73Z" style="fill: #16b68f; stroke-width: 0px;"/>
  <path d="M123.69,482.9c2.17.31,3.06,1.64,2.99,3.74-1.54-.81-1.98-2.5-2.99-3.74Z" style="fill: #16b68f; stroke-width: 0px;"/>
  <path d="M159.65,521.85c2.1-.07,3.43.83,3.74,2.99-1.24-1.01-2.93-1.45-3.74-2.99Z" style="fill: #16b68f; stroke-width: 0px;"/>
  <path d="M275,579.53c1.74.28,3.66-.68,5.24.74,0,0,0,0,0,0-1.25.55-2.49.56-3.74,0-.62-.02-1.18-.15-1.5-.75Z" style="fill: #16b68f; stroke-width: 0px;"/>
  <path d="M293.73,583.28c1.74.29,3.66-.69,5.24.74-1.74-.28-3.66.69-5.24-.74Z" style="fill: #15b28b; stroke-width: 0px;"/>
  <path d="M288.49,582.53c1.5,0,2.99,0,4.49,0,0,.25,0,.49,0,.74-1.5-.24-3.18.61-4.49-.74Z" style="fill: #15b28b; stroke-width: 0px;"/>
  <path d="M278.74,583.28c-1.34.22-2.76.81-3.75-.75,1.26.18,2.7-.5,3.75.75Z" style="fill: #149c76; stroke-width: 0px;"/>
  <path d="M276.5,580.28c1.25,0,2.49,0,3.74,0,0,.25,0,.49,0,.74-1.26-.18-2.69.5-3.74-.74Z" style="fill: #15b28b; stroke-width: 0px;"/>
  <path d="M280.25,581.03c1.26.18,2.69-.5,3.74.74-1.26-.18-2.69.5-3.74-.74Z" style="fill: #15b28b; stroke-width: 0px;"/>
  <path d="M221.02,225.86c9.03-8.92,17.22-18.52,23.94-29.31,3.12-4.1,7.37-7.04,11.23-10.31,5.26-4.46,11.34-7.66,18.4-8.52,5.57-.67,11.06-1.79,16.65-2.44,8.4-.98,16.72-.29,25.01.41,15.05,1.27,29.87,4.11,44.46,8.17,16.83,4.68,32.54,11.93,47.84,20.17,15.56,8.39,30.01,18.5,42.51,30.96,9.42,9.39,18.99,18.82,26.27,30.14,3.91,6.08,7.95,12.13,9.43,19.4.56,2.73.21,5.03-3.13,5.64-.64-.07-1.28-.31-1.55-.88-1.69-3.6-4.85-5.88-7.59-8.54-3.61-7.19-9.65-12.34-15.3-17.74-3.15-3.01-6.35-5.97-9.51-8.98-15.23-14.56-30.79-28.68-48.33-40.53-14.97-10.12-30.61-18.83-47.99-23.9-14.34-4.18-29.01-4.99-44.01-4.37-10.95.46-21,3.94-31.43,6.12-5.02,1.05-9.46,3.72-12.91,7.78-3.38,3.98-7.47,7.27-10.72,11.43-4.62,5.91-8.1,12.63-12.84,18.38-9.24,11.21-17.79,23.18-30.68,30.81-3.53,2.09-6.64,4.84-10.06,7.13-.6.17-1.2.18-1.81.09-4.07-.77-8.23.22-12.3-.61-2.6-1.82-1-3.52.37-4.9,4.04-4.07,8.68-7.54,12.55-11.77,7.22-7.89,15.68-14.67,21.5-23.83Z" style="fill: #12a37e; stroke-width: 0px;"/>
  <path d="M230.8,383.26c-1.06,3.38-4.26,4.75-6.73,6.58-2.65,1.95-5.83,3.29-9.06,4.34-6.57,2.14-12.23.2-15.64-5.7-1.89-3.26-2.68-6.88-3.05-10.65-1.69-17.22-2.14-34.63-7.58-51.28-1.08-3.3-2.26-6.55-3.01-9.96-.7-3.19-3.26-4.12-6.15-4.48-3.93-.48-7.84-1.02-11.77-1.48-3.93-.45-7.45-1.81-10.4-4.51-1.32-4.3-4.36-7.69-6.19-11.71-1.16-2.56-1.95-5.3-2.69-8.02-1.07-3.96-1.41-4.17-5.09-2.11-.86.48-1.67,1.05-2.51,1.58.4-3.3,1.27-6.49,2.25-9.65.04-2.46,2.59-2.23,3.74-3.5,2.65-2.93,5.67-4.62,9.83-3.4,1.37.4,2.7-.32,3.65-1.41,2.2-2.51,4.88-4.6,6.65-7.48,1.73-2.8,3.99-5.03,6.83-6.67,5.22-2.13,10.43-4.26,15.65-6.39,1.21,1.28.22,2.31-.46,3.28-3.81,5.46-8.36,10.17-14.47,13.03-4.66,2.19-7.37,5.94-9.96,11.14,3.35-1.37,5.03-3.63,7.34-4.87,2.01-1.07,4.15-2.68,6.04.26-.26,2-1.74,2.94-3.29,3.82-4.7,2.47-8.46,6.11-12.11,9.86-1.4,1.44-2.26,3.27-2.56,5.31-.28,1.9.04,3.49,2.09,4.24.23.09.49.18.66.34,7.65,7.34,17.27,9.29,27.34,10.47,7.66.89,10.87,4.69,10.89,12.55.01,6.5.72,12.92,1.33,19.35.04.46-.08,1.01.48,1.27-.5-1.38-1.03-2.77,1.39-2.59.98,1.75.71,3.66.56,5.49-.85,9.91-1.27,19.85-1.36,29.79-.08,8.62,5.68,14.24,14.29,14.35,3.61.04,7.23.24,10.64-1.4.78-.38,1.69-.48,2.47.18Z" style="fill: #0b865c; stroke-width: 0px;"/>
  <path d="M483.05,289.64c2.64-.44,3.45-1.81,2.87-4.51-1.66-7.73-5.87-14.17-10.17-20.53-5.86-8.67-13.35-15.95-20.4-23.63-9.23-10.05-19.95-18.1-31.02-25.96-14.2-10.09-29.77-17.47-45.65-24.13-15.47-6.48-31.92-10.1-48.47-12.67-11.38-1.77-22.96-3.31-34.47-2.29-11.5,1.02-23.34,1.26-33.79,7.45-5.7,3.37-10.27,8.05-15.06,12.5-.51.48-.81,1.84-1.93.68,2.54-4.94,5.08-9.87,7.62-14.81,6.76-2.83,13.55-5.57,20.93-6.37,3.45-.37,6.89-1.02,10.34-1.07,10.04-.14,20.12-.55,30.13.06,18.19,1.1,36.32,2.97,53.9,8.24,18.79,5.63,36.57,13.59,53.18,23.96,9.79,6.11,18.75,13.39,27.58,20.89,10.15,8.63,18.09,19.16,26.51,29.22,11.03,13.16,17.81,28.76,21.17,45.54,1.09,5.44,2.68,10.78,3.49,16.28.38,2.59,2.47,4.29,4.02,6.18,1.19,1.45,2.26.57,2.54-.98.2-1.09.08-2.24.1-3.36,1.17,7.2,1.58,14.35-.6,21.35-.43.11-.85.23-1.28.34-1.73-3.47-3.76-6.82-5.11-10.43-1.35-3.6-2.9-7.1-4.36-10.64-2.16-5.27-5.92-7.07-11.36-5.13-3.98,1.42-7.88,3.03-11.79,4.62-1.53.62-2.89.96-3.73-.94.94-4.43,4.3-7.41,6.8-10.82,4.02-5.48,7.54-11,7.49-18.09,0-.36.28-.68.52-.96Z" style="fill: #0c906a; stroke-width: 0px;"/>
  <path d="M173.86,253.74c-4.2,4.87-8.5,9.66-12.55,14.66-2.19,2.71-4.87,1.84-7.49,1.62-1.09-.09-2.18-.78-3.03.39-1.96,2.71-5.13,3.8-7.62,5.79-6.91,3.02-13.99,5.46-21.41,6.96-5.87,1.19-11.71,2.06-17.58.09-2.26-.76-4.63-.4-6.96-.96-12.17-2.92-14.17-10.26-13.05-20.54.29-2.69.82-5.35,1.23-8.03,10.21,3.08,20.48,5.78,31.17,6.83,18.34,1.8,36.19-.35,53.71-5.82,1.18-.37,2.38-.66,3.56-.99Z" style="fill: #0a5935; stroke-width: 0px;"/>
  <path d="M177.61,269.98c-4.1-2.04-6.01,1.78-8.7,3.36-1.62.95-3.23,3.69-4.83,2.22-1.4-1.28.9-3.46,1.82-5.12,2.27-4.09,6.06-6.27,10-8.58,5.85-3.44,11.02-7.85,13.61-14.51,7.28-4.2,14.74-8.12,21.39-13.32,3.41-2.67,6.75-5.44,10.12-8.17-2.22,6.49-7.1,11.01-12,15.31-3.36,2.95-5.7,6.74-9.2,9.56-4.24,3.42-8.04,7.39-12.03,11.12-1.11,1.03-2.2,2.07-1.9,3.81.21.34.2.67-.03.99-2.78,1.04-4.97,3.54-8.25,3.34Z" style="fill: #0f8c64; stroke-width: 0px;"/>
  <path d="M522.95,502.37c6.28-7.84,12.96-15.37,18.77-23.58.34-.48.96-.76,1.45-1.14-3.27,6.69-8.19,12.24-12.58,18.15-1.89,2.55-4.09,4.88-6.14,7.31-.33-.6-.89-.73-1.5-.75Z" style="fill: #149c76; stroke-width: 0px;"/>
  <path d="M316.05,593.47c-.14.72-.65.96-1.32.96-.66,0-1.3-.19-1.16-.98.11-.63.65-1,1.33-1.05.74-.05,1.11.34,1.15,1.06Z" style="fill: #157f5a; stroke-width: 0px;"/>
  <path d="M507.22,348.81c.13,6.1-2.23,11.89-2.25,17.98-.68,1.7-.87,3.53-1.49,5.25-1.97,7.25-3.75,14.55-5.95,21.72-3.5,11.43-8.68,22.11-15.04,32.22-1.61,2.05-2.88,1.61-3.79-.59-.43-1.03-.65-2.15-.91-3.24-.63-2.64-1.98-4.49-4.82-5.09-1.6-.34-3.01-1.29-4.23-2.34-3.82-3.25-8.32-4.09-13.02-3.31-9.43,1.55-17.42-1.73-24.93-6.87-3.19-2.19-6.35-4.42-9.32-6.91-2.33-1.95-4.67-2.12-7.11-.16-.97.78-2.12,1.37-2.99,2.25-5.73,5.82-13.16,7.34-20.79,8.21-3.57.41-7.03,1.4-10.65,1.63-5.97.38-11.68-.9-17.27-2.55-5.83-1.71-11.6-.69-17.39-.48-5.63.21-10.21-1.92-14.1-5.77-4.07-4.03-8.94-7.19-12.58-11.7-1.46-1.81-3.68-2.47-6.04-2.5-4.49-.04-8.99-.07-13.48,0-2.71.04-5.13.93-7.23,2.68-1.73,1.44-3.55,2.75-5.14,4.36-4.28,4.34-9.41,6.92-15.55,7.36-4.21.3-8.37.93-12.6,1.14-7.64.39-14.62-10.37-10.94-17.59,6.38-12.54,13.49-24.74,18.52-37.98,3.77-9.9,7.95-19.66,12.84-29.09,4.6-8.86,8.85-17.92,14.71-26.05,1.09-1.52,1.81-3.73,4.37-3.53,1.68,1.72.34,3.24-.38,4.73-4.89,10.1-9.91,20.13-14.96,30.15-7.79,15.47-15.12,31.17-22.75,46.72-1.07,3.19-.04,6.4-.07,9.6-1.96,4.59-1.6,8.94,1.37,13.01,2.13,2.91,5.03,4.29,8.45,3.08,5.04-1.78,9.71-4.32,13.2-8.59,3.54-2.18,6.27-5.36,9.62-7.78,10.99-1.04,21.9-.25,32.72,1.65,6.09,1.07,11.28,3.84,15.01,8.99,1.76,2.43,4.03,4.4,6.29,6.37,3.13,2.73,6.57,3.93,10.7,2.87,1.2-.31,2.47-.53,3.71-.27,3.61.76,6.94-.02,10.11-1.71,3.91-2.07,7.7-2.01,11.21.76,6.07,4.8,12.08,4.48,18.2.11,2.22-1.58,4.81-2.65,6.56-4.87,2.5-2.22,5.08-4.32,8.3-5.46,10.19,1.72,19.76,4.54,27.17,12.56,5.02,5.43,11.33,7.97,18.92,5.68,2.28-.69,4.65-.95,6.96.01,2.26.94,4.08.24,5.75-1.38,4-3.88,7.04-8.12,5.56-14.15.04-2.28.61-4.31,2.76-5.54,1.57-.44,2.55.62,3.65,1.42,2.8,2.06,5.57,1.97,7.4-.91,2.87-4.5,5.73-9.14,5.27-14.89-.08-1-.01-2.06-.52-2.93-3.21-5.5-4.31-11.69-5.68-17.75-1.92-8.51-6.63-13.99-15.27-15.93-2.2-.5-4.24-1.56-5.94-3.07-2.66-2.35-5.26-2.53-8.05-.27-.86.69-1.79,1.42-3.06.99-.28-3.17,2.11-6.54,5.67-7.97,3.58,1.46,7.42,2,11.1,1.33,8.62-1.57,15.71,2.97,18.29,11.4,2.51,8.22,6.09,16.1,7.82,25.23,3.46-3.97,2.08-8.68,4.1-12.28Z" style="fill: #11a57d; stroke-width: 0px;"/>
  <path d="M298.54,288.21c-3.9,1.58-5.29,5.38-7.18,8.56-8.85,14.89-16.27,30.47-22.83,46.54-4.25,10.43-8.27,21.05-14.57,30.6-2.58,3.91-4.26,8.45-6.11,12.8-2.53,5.95,3.42,14.23,10.53,14.47,6.99.23,13.94-.7,20.49-3.17,4.98-1.88,8.02-6.59,12.29-9.58.91-.64,1.76-1.58,2.77-1.84,7.48-1.89,15.02-1.46,22.55-.32.78.12,1.66.72,2.15,1.36,3.57,4.71,8.72,7.73,12.7,11.96,5,5.31,11.19,7.14,18.01,5.95,5.23-.91,10.26-.77,15.04,1.04,9.1,3.43,18.06,1.86,27.19.44,8.08-1.26,15.15-4.07,21.28-9.7,4.28-3.93,5.7-3.35,10.28.29,7.01,5.57,14.14,11.01,23.22,12.93,2.61.55,5.14.47,7.76.06,5.11-.8,10.14-.94,14.46,2.75,1.89,1.62,4.07,2.7,6.55,3.35,3.87,1.01,3.52,4.84,4.2,7.63.58,2.39,1.27,2.68,3.16,1.62-2.12,5.1-5.02,9.6-9.73,12.72,0-1-.33-2.17.08-2.97,4.93-9.65-3.44-14.67-7.55-20.95-1.67-2.56-5.65-2.23-8.73-2.24-5.98-.03-11.93,0-17.77-1.56-3.43-.92-6.61-2.22-8.95-5.06-1.7-2.06-4.05-3.3-6.25-4.69-2.9-1.83-5.82-1.33-8.8.12-4.44,2.15-8.39,5.39-13.56,5.96-12.35,1.37-24.52,4.89-37.18.99-5.41-1.67-11.38-1.85-17.25-1.1-10.82,1.39-18.75-3.34-24.4-12.31-4.06-6.44-9.76-8.42-17.02-6.66-1.55.38-3.23.25-4.78.64-4.36,1.1-8.27,2.74-11.7,6.08-3.7,3.6-8.27,6.41-13.81,6.62-8.12.31-16.3,2.94-24.33-.13-4.29-1.64-8.29-4.01-10.78-8.13-2.04-3.37-1.32-7.72,1.73-10.04,7.26-5.52,11.55-13.18,15.41-21.14,6.19-12.76,10.12-26.45,15.94-39.38,6.06-13.46,13.49-26.05,23.65-36.88-.33-1.8.9-2.35,2.24-2.82.6-.06,1.15.06,1.64.43.72,2.18-.1,3.7-2.05,4.72Z" style="fill: #14b28d; stroke-width: 0px;"/>
  <path d="M503.48,372.03c-.05-1.91.23-3.71,1.49-5.25.05,1.9-.24,3.71-1.49,5.25Z" style="fill: #14b28d; stroke-width: 0px;"/>
  <path d="M202.33,473.17c3.96,5.27,9.57,8.64,14.71,12.51,15.84,11.94,33.54,20.48,52.23,26.78,14.58,4.91,29.6,8.14,45.01,9.55,4.86.44,9.91-.05,14.55,2.04-47.05,2.62-88.81-11.41-125.18-41.11-27.81-22.71-47.14-51.3-56.55-86.19,4.36,5.44,6.3,12.29,10.29,17.98,5.6,11.8,12.71,22.66,20.66,32.98,7.19,9.35,15.34,17.79,24.29,25.46Z" style="fill: #5bead4; stroke-width: 0px;"/>
  <path d="M53.43,116.57c-.54-2.05.86-5.11-.7-6.01-1.77-1.02-3.38,1.8-5.14,2.82-.94.54-1.95,1.34-3.11.55-1.26-.86-1.06-2.18-.81-3.4,1.96-9.68,5.74-18.5,12.63-25.73,1.9-1.99,4.44-3.21,6.97-4.27,6.3-2.65,12.23-6.09,18.29-9.16,8.14-4.12,16.62-6.6,25.29-8.63,12.59-2.94,25.16-1.58,37.54,1.71,13.43,3.56,24.63,10.91,34.35,20.68,6.51,6.55,13.01,13.12,19.62,19.57,2.2,2.15,3.99,4.43,4.62,7.49-3.17,1.75-6.58,1.09-9.84.65-4.97-.67-9.95-.24-14.92-.68-4.17-.37-5.26,3-6.6,5.95-1.6.7-3.21,1.27-4.74-.16-.75-6.14-1.72-7.17-8.09-6.98-5.75.17-11.42-.87-17.15-.8-6.31.08-7.78,1.7-7.96,8.06-.07,2.51.9,5.27-1.26,7.45-1.56-.22-1.13-1.64-1.54-2.54-.94,1.15.64,3.8-2.25,3.82-1.03-1.58-.75-3.38-.75-5.1,0-4.71-2.17-8.05-6.22-10.31-2.43-1.36-5.03-2.37-7.75-2.59-5.2-.43-10.42-.93-15.63-1.01-4.32-.07-5.49,1.1-6.69,5.4-.2.73-.4,1.45-1.13,1.84-1.42-.42-1.19-2.29-2.48-2.84-1.34-4.4-2.16-5.3-6.48-5.15-6.38.22-12.67-.95-19.03-.83-5.83.12-6.95,1.13-7.48,6.82-.12,1.26.27,2.87-1.58,3.36Z" style="fill: #f3bb3a; stroke-width: 0px;"/>
  <path d="M170.98,118.14c1.38-6.44,2.86-7.43,9.71-7.03,7.43.44,14.86.72,22.3,1.07,2.35,1.15,2.54,3.41,2.87,5.6.43,2.34-1.21,3.47-2.72,4.69-3.77,1.84-7.74,1.16-11.67.87-1.48-.11-2.93-.5-4.43-.29-1.46.2-2.2,1.03-2.15,2.51.05,1.46,1.09,1.81,2.29,1.89,2.72.19,5.45-.1,8.16.23,2.34.96,5.7-.25,6.9,3.19,1.83,3.24-.18,5.32-2.24,7.39-2.42,2.85-5.7,1.63-8.67,1.8-1.35.07-2.69-.35-4.04-.45-1.87-.15-3.16.44-3.24,2.56-.07,2,1.19,2.44,2.85,2.56,2.17.16,4.48-.48,6.44,1.03,1.84.09,3.69.19,5.53.28,5.54.27,6.66,1.51,6.33,7-.53.54-1.07,1.09-1.6,1.63.03.79-.39,1.3-1,1.71-3.77,1.83-7.81,1.07-11.72.97-5.07-.13-10.12-.73-15.2-.78-2.9-.03-5.32-1.16-6.39-4.18-1.23-10.43.87-20.8.48-31.22-.04-1.13.28-2.22,1.2-3.02Z" style="fill: #fdfcfb; stroke-width: 0px;"/>
  <path d="M203.01,155.25c.2-.2.4-.4.6-.6,2.51.78.85,2.52.6,3.62-.4,1.7-1.45,3.27-3.59,3.23-1.65-.03-3.29.07-4.74.83-8.06,4.24-16.26,2.57-24.73,1.39-7.36-1.03-14.89-2.15-22.48-.26-5.62,1.4-11.02-1.09-16.39-2.51-6.56-1.73-13.17-2.93-19.96-2.37-4.48.37-8.53-1.44-12.81-2.05-2.57-.37-5.07-1.26-7.73-.99-3.1.31-5.15-1.06-5.72-4.08-1.21-6.42-6.64-7.74-11.52-9.19-2.66-.79-5.43,1.14-7.81,2.77-.22,0-.43,0-.65.01-1.3-1.02-1.02-2.71-1.71-3.99-.28-.81-.52-1.63-.65-2.47-.55-3.74.3-4.7,4.21-4.8,1.64.5,3.32.57,5.02.43,2.11-.06,4.25.2,6.33-.21,2.26-.45,3.97-1.64,4.04-4.18.07-2.64-1.96-3.23-3.98-3.59-3.2-.59-6.46-.17-9.68-.35-3.91-.21-4.82-1.27-4.74-5.46.08-3.86.94-4.74,4.9-4.91,1.37-.06,2.74-.05,4.1-.02,5.08.11,10.2.46,14.68-2.7,2.37-.5.74,1.65,1.48,2.23,1.9,5.19,1.05,10.55.63,15.8-.38,4.73-.44,9.44-.35,14.15.07,3.45,1.98,5.36,4.91,5.34,2.93-.02,4.56-1.86,4.8-5.45.06-.87,0-1.74.12-2.61.42-3,1.23-3.45,4.59-2.62-.17,2.08-2.74,3.32-1.95,5.82.33,1.05.22,2.32,1.32,2.9,3.19,1.66,5.8,4.25,9.09,5.72,3.44,1.54,6.12.85,8.49-2,.36-.95.99-1.73,1.64-2.47,1.44-1.63,1.51-3.32.31-5.11-.42-.62-.77-1.28-1.15-1.92q-2.47-4.13,1.08-7.51c1.55-1.48,2.65-3.27,3.52-5.23.49-1.1.62-2.47,2.02-2.94.89-1.35.36-2.89.55-4.34.11-.82-.13-1.99,1.08-2,1.21,0,1.01,1.16,1.08,1.99.08.98.14,1.97.21,2.95,1.9,5.59.96,11.34.66,17-.17,3.14-.38,6.2.29,9.28-.83,2.69.84,4.2,2.74,5.47,4.02,2.7,8.64,3.32,13.24,2.8,5.89-.66,11.97-.5,17.5-3.25,1.54-.76,2.82.25,4.13,1.04,8.63,5.25,17.48,6.11,26.45.93,1.98-1.15,4.78-.96,5.92-3.52Z" style="fill: #c4761d; stroke-width: 0px;"/>
  <path d="M98.96,43.92c2.24-.75,4.49-1.5,6.73-2.25,1.12-.88,2.63.17,3.75-.75h0c1.12-.88,2.63.17,3.74-.75h0c7.96-1.32,15.95-1.53,23.97-.75h0c1.9,1.03,4.09-.25,6,.75,7.57,1.97,15.14,3.96,22.46,6.75.84.82,2.01.97,3,1.5,10.07,5.68,19.22,12.54,26.86,21.27,2.66,3.03,5.07,6.29,7.6,9.44,1.28,1.98,2.29,4.12,3.75,5.99h0c.51.99.66,2.17,1.5,3h0c1.46,4.01,3.48,7.81,4.49,11.99.32,3.98,2,7.61,3.03,11.4,2.59,9.56,2.27,19.3,2.2,29.04-.8.68-.7,2.43-2.13,2.24-1.53-.21-1.64-1.76-1.81-2.95-1.29-8.75-3.05-17.43-3.71-26.26-.18-2.44-.86-4.66-2.06-6.73-9.94-17.13-23.56-30.42-41.13-39.71-11.37-6-23.41-9.87-36.03-11.87-8.98-1.42-17.99-1.35-27.1-.08-10.25,1.43-19.87,4.45-29.09,8.96-4.96,1.89-8.54,6.13-13.67,7.88,6.18-10.3,14.91-17.71,25.66-22.86.85-.81,2.04-.92,3-1.49,1-.5,1.99-1,2.99-1.5.72-.5,1.46-.52,2.21-.06.16,1.95-1.49,2.4-2.71,3.09-2.06,1.17-4.06,2.43-6.06,3.71-.23.15-.36.34-.43.84,21.32-4.12,42.52-5.15,63.76.38,21.26,5.54,38.48,17.45,53.43,33.27.16-2.55-.78-4.41-1.88-6.21-7.13-11.63-17.03-20.55-28.51-27.55-13.92-8.49-29.3-12.63-45.61-12.35-9.08.15-18.13,1.47-26.75,4.74-1.6.61-3.24,1.48-5,.38-.2-2.82,2.5-1.46,3.55-2.47Z" style="fill: #d47e17; stroke-width: 0px;"/>
  <path d="M68.68,134.86c-4.31-.32-4.77.18-3.88,4.26.18.83.4,1.66.61,2.49.13,1.61.73,3.25-.33,4.77-.75.65-1.44,1.37-2.25,1.92-2.44,1.69-5.14,1.76-7.76.65-2.64-1.11-2.68-3.52-2.57-6,.36-8.79.63-17.59.94-26.38.76-1.65.42-3.42.5-5.13.17-3.73,1.86-6.02,5.57-6.01,8.3.02,16.61.36,24.89.86,3.27.2,4.53,2.54,4.22,6.5-1.92,3.07-4.7,4.18-8.27,3.94-3.85-.27-7.73-.17-11.58-.43-2.53-.17-3.23,1.16-2.73,3.15.48,1.87-1.84,5.19,2.51,5.29,3.74.08,7.47.25,11.21.42,2.92.13,5.16,1.08,5.18,4.54.01,2.93-2.23,5.39-5.41,5.58-2.35.14-4.73-.12-7.1-.2-1.23-.34-2.5,0-3.74-.21Z" style="fill: #fdfcfb; stroke-width: 0px;"/>
  <path d="M74.99,64.14c2.67-3.1,6.61-3.8,10.13-5.19,8.48-3.35,17.31-4.94,26.47-5.37,21.96-1.03,42.15,4.43,61,15.49,15.34,9,27.2,21.41,36.32,36.6,2.57,4.28,2.53,8.96,3.18,13.59,1.08,7.67,2.21,15.33,3.38,23.39,1.14-.93,1.86-1.52,2.59-2.11-.3,1.57-.53,3.15-.94,4.69-.21.79-.49,1.79-1.55,1.86-1.29.09-1.12-1.03-1.32-1.82-.99-3.92-1.6-7.92-3.65-11.56-2.7-4.79-3.56-5.22-8.35-2.85-1.74-2.16-4.42-1.51-6.65-2.21-.99-2.67,1.19-3.06,2.78-3.72,1.8-.75,3.85-1.04,4.7-3.18.93-1.32,1.86-2.64,2.78-3.96,3.56-7.44,2.95-11.31-4.14-18.59-13.94-14.32-29.36-26.77-47.49-35.48-13.44-6.46-27.68-9.77-42.6-8.46-11.48,1.01-22.8,3.31-33.45,8.05-1.03.46-2.04.94-3.21.83Z" style="fill: #d48722; stroke-width: 0px;"/>
  <path d="M193.35,145.74c-2.48,0-4.98-.22-7.42.06-3.74.42-3.03-2.07-3.22-4.24-.25-2.92,1.33-3.29,3.66-3.09,2.71.23,5.45.26,8.16.49,1.89.16,3.68-.19,5.47-.7.6,2.19-1.49,2.29-2.5,3.24-1.44,1.36-3.93,1.71-4.16,4.26Z" style="fill: #d48722; stroke-width: 0px;"/>
  <path d="M137.16,39.42c-8,.04-16-.23-23.97.75,7.93-2.05,15.93-2.11,23.97-.75Z" style="fill: #d48722; stroke-width: 0px;"/>
  <path d="M212.82,100.1c-1.6-3.96-3.94-7.64-4.49-11.99,2.42,3.65,4.15,7.56,4.49,11.99Z" style="fill: #d48722; stroke-width: 0px;"/>
  <path d="M206.83,85.12c-2.31-1.33-3.07-3.64-3.75-5.99,1.87,1.61,3.24,3.53,3.75,5.99Z" style="fill: #d48722; stroke-width: 0px;"/>
  <path d="M98.96,43.92c-.98,1.19-2.92.8-3.74,2.26h0c-.75-.01-1.51-.01-2.26-.02,1.69-1.57,3.66-2.41,6-2.24Z" style="fill: #d48722; stroke-width: 0px;"/>
  <path d="M143.16,40.17c-1.99-.32-4.15.74-6-.75,1.99.32,4.15-.75,6,.75Z" style="fill: #d48722; stroke-width: 0px;"/>
  <path d="M65.07,146.38c.11-1.59.22-3.19.33-4.78,1,1,.31,2.32.68,3.44-.14.6-.23,1.22-1.01,1.33Z" style="fill: #f3bb3a; stroke-width: 0px;"/>
  <path d="M109.45,40.92c-1.05,1.25-2.49.57-3.75.75,1.05-1.24,2.49-.57,3.75-.75Z" style="fill: #d48722; stroke-width: 0px;"/>
  <path d="M89.97,47.66c-.77.97-1.81,1.38-3,1.49.57-1.36,1.72-1.57,3-1.49Z" style="fill: #d48722; stroke-width: 0px;"/>
  <path d="M168.62,48.42c-1.28.05-2.42-.16-3-1.5,1.2.11,2.24.51,3,1.5Z" style="fill: #d48722; stroke-width: 0px;"/>
  <path d="M208.33,88.11c-1.36-.57-1.56-1.71-1.5-2.99.98.76,1.38,1.81,1.5,2.99Z" style="fill: #d48722; stroke-width: 0px;"/>
  <path d="M113.19,40.17c-1.05,1.24-2.48.57-3.74.75,1.05-1.25,2.48-.57,3.74-.75Z" style="fill: #d48722; stroke-width: 0px;"/>
  <path d="M465.91,323.12c-2.53,2.15-4.24,4.97-6.12,7.64-.31.78-.68,1.38-1.55.55-.51-1.98.81-3.32,1.77-4.72,5.47-8.04,11.43-15.72,17.13-23.59,4.2-5.79,4.12-11.8-.3-17.46-1.12-1.44-2.65-2.7-2.74-4.76.25-.32.56-.42.95-.27,3.65,2.19,6.37,5.19,8.01,9.14.86,5.98-1.14,11.11-4.63,15.83-3.44,4.65-6.79,9.36-10.18,14.04-.96,1.08-1.94,2.15-2.33,3.6Z" style="fill: #a2bfb3; stroke-width: 0px;"/>
  <path d="M506.48,315.1c-1.1-.79-.65-1.97-.74-3.01,1.57.68,1.5,1.76.74,3.01Z" style="fill: #0c906a; stroke-width: 0px;"/>
  <path d="M298.97,283.63c-1.01.49-1.76,1.24-2.25,2.25-4.72,2.03-6.95,6.52-9.98,10.2-10.7,12.99-16.38,28.48-22.34,43.94-4.35,11.29-8.09,22.98-15.31,32.99-2.04,2.83-4.38,5.39-7.05,7.61-3.46,2.88-4.49,2.45-5.37-2.07-.46-.59-.54-1.27-.44-1.99,1.48-3.9,1.54-7.96,1.73-12.08.58-13.13,1.1-26.27,1.73-39.4,1.24-4.01-.03-8.21.88-12.24.82-1.82,2.65-1.64,4.16-2.03,8.78-2.27,16.4-6.51,22.61-13.18,2.09-2.03,5.11-3.1,6.35-6.03.35-.44.77-.73,1.36-.67,1,.37,1.52,1.19,2.03,2.06,1.94,3.3,2.28,3.41,5,.6,4.85-5.01,10.22-9.35,16.02-13.19.82-.55,1.64-1.12,2.59-1.44,1.03-.35,1.96-.37,2.49.82.28,1.38-.18,2.46-1.33,3.27-.95.26-2.08-.35-2.89.59Z" style="fill: #16bb95; stroke-width: 0px;"/>
  <path d="M236.71,377.26c-.01.43-.02.85-.03,1.28-.54.55-1.07,1.1-1.61,1.64-.2.21-.4.41-.6.62-1.22.82-2.45,1.64-3.67,2.46-4.5,2.07-9.21,2.55-14.13,2.19-8.63-.62-14.6-6.71-14.37-15.43.31-11.8.92-23.6,1.4-35.4-1.62-2.56-.9-5.31-.7-8.02.87-2.78.49-5.63.49-8.46-.34-4.99.6-9.92.72-14.89.12-4.77-.11-4.83-5.05-5.07-4.72-.23-9.43-.61-14.14-.88-6.36-.37-10.72-4.16-12.85-9.9-1.85-4.98-1.49-10.06,2.46-14.29,1.24-.8,2.24-1.84,2.98-3.12,2.56-1.66,5.26-3.05,8.21-3.91.45-.07.78.11.98.51-.03,1.68-1.27,2.63-2.29,3.7-1.63,1.72-3.39,3.3-4.98,5.05-5.57,6.17-2.48,15.83,5.7,17.44,5.86,1.15,11.87,1.13,17.8,1.78,1.39.15,2.64-.47,3.91-1.04,2.6-1.17,3.82-.35,3.51,2.51-.3,2.74-.39,5.46-.3,8.2.86,4.53-1.6,8.47-2.25,12.73-1.51,9.99-1.13,20.13-2.25,30.15-.83,7.45-.79,14.92-.72,22.39.06,6.87,3.53,11.36,10.22,12.79,6.57,1.4,12.93,1.29,17.97-4.23.95-1.04,2.09-1.88,3.58-.8Z" style="fill: #abb2a6; stroke-width: 0px;"/>
  <path d="M475.04,280.51c-.27.06-.55.13-.82.19-.9.41-1.72-.02-2.55-.25-1.18-.45-2.42-.34-3.65-.36-.94-.01-1.87-.1-2.75-.46-10.03-8.21-19.32-17.04-27.48-27.26-12.28-15.38-26.76-28.48-43.86-38.6-9.18-5.43-18.8-9.65-28.83-13.14-7.75-2.7-15.82-3.33-23.84-4.45-11.76-1.64-23.39-.6-34.95,1.63-4.26.82-8.57,1.72-12.28,4.25-.41.28-.85.53-1.31.72-6.25,2.54-11.82,5.6-15.99,11.49-2.68,3.79-7.27,6.31-10.73,9.75-5.12,5.08-10.53,9.86-14.56,15.9-4.39,6.57-11.44,9.91-17.48,14.45-6.17,4.64-13.47,7.51-19.68,12.18-2.28,1.72-5.36.56-8.06.91-1.85-.13-3.85.45-5.38-1.14,2.74-3.52,6.76-5.42,10.25-7.97,4.21-3.07,8.8-5.74,12.24-9.66,8.6-9.78,17.46-19.32,24.28-30.57,4.02-6.64,9.36-12.33,14.93-17.85,3.51-3.48,6.86-7.31,11.49-8.5,10.15-2.61,19.9-7.16,30.68-7.03,5.1.06,10.13-.85,15.26-.82,16.62.11,32.61,3.13,47.82,9.81,14.27,6.26,27.67,14.04,40.32,23.21,10.79,7.82,20.73,16.6,30.55,25.54,9.47,8.62,18.76,17.45,27.88,26.43,3.4,3.35,7.11,6.68,8.5,11.59Z" style="fill: #16b693; stroke-width: 0px;"/>
  <path d="M200.83,266.32c1.92.05,3.84.1,5.76.16,2.92.46,5.8.5,8.73-.16,2.4-.55,4.88-.52,7.29.17.38.16.68.44.89.8-.41,1.89-2.1,1.42-3.31,1.69-2.28.52-4.53,1.14-7.75,1.61,4.01,1.71,7.46,1.57,10.62,2.62,1.42.47,2.86.89,4.25,1.44,2.52.99,3.1,2.61,1.78,5.02-2.89,5.3-6.87,9.8-10.95,14.14-2.23,2.37-4.74,4.33-5.83,7.59-.45,1.34-1.26,2.81-3.22,2.47.04-2.72-.39-5.47.54-8.14.25-.7.33-1.59-.35-2.06-.8-.55-1.29.13-1.82.71-2.03,2.24-4.69,1.16-7.04,1.05-4.44-.22-8.85-1.04-13.28-1.25-5.6-.26-8.9-3.34-10.88-8.19-1.88-4.61-.48-8.44,2.93-11.82,2.56-2.53,4.98-5.2,7.46-7.81,4.22-.55,8.44-.47,12.67-.06.51,0,1.01.01,1.52.02Z" style="fill: #ddd9d5; stroke-width: 0px;"/>
  <path d="M199.31,266.3c-4.22.02-8.45.04-12.67.06-.28-.09-.55-.19-.83-.29.01-.14.04-.28.07-.42,4.47.38,9.01-.83,13.43.64Z" style="fill: #16bb95; stroke-width: 0px;"/>
  <path d="M174.63,273.11c-.96,2.93-2.28,5.71-2.27,8.95.03,7.7,5.59,13.78,13.34,14.21,5.47.3,10.94.68,16.41.68,2.91,0,3.6,1.06,3.37,3.76-.49,5.82-.72,11.67-1.06,17.51-.66,2.68.22,5.46-.49,8.14-.08,2.75-.16,5.5-.24,8.26-1.22,1.01-.13,2.66-1.23,4.06-1.99-5-1.91-10.09-2.34-15.08-.36-4.05.42-8.15-1.05-12.18-1.37-3.73-3.83-5.52-7.62-6.09-4.39-.66-8.8-1.2-13.18-1.99-5.53-1-9.81-3.92-14.02-7.23-.68-.54-1.23-1.3-1.98-1.68-3.62-1.8-4.64-4.14-2.54-7.84,3.45-6.07,8.74-10.3,14.9-13.48Z" style="fill: #084f2d; stroke-width: 0px;"/>
  <path d="M301.35,283.09l1.55-2.97c1.95-5.24,6.15-7.53,11.27-8.64,4.49-.19,8.98-.12,13.47-.07,8.2.07,13.98,3.7,17.06,11.51,11.26,28.55,22.5,57.1,33.68,85.68.51,1.71,1.21,3.36,1.56,5.13.18,1.23.14,2.44-.27,3.62-.32.81-.86,1.5-1.12,2.35-3.59,11.59-11.58,13.01-21.43,11.76-6.44-.82-10.49-4.78-12.7-10.74-1.25-3.39-2.6-6.74-3.71-10.18-.49-1.51-1.31-2.4-3.06-2.81-13.97-3.23-28.09-4.88-42.6-4.36-.04,1.42,1.31,2.63.92,4.16-.05.41-.15.8-.29,1.18-1.18,2.61-2.55,5.15-3.55,7.83-4.15,11.23-17.41,13.02-25.72,8.74-5.55-2.86-8.32-9.33-7.12-16.21,3.13-8.02,7.4-15.48,11.17-23.19,7.72-15.8,15.66-31.5,23.31-47.35,1.64-3.4,3.9-6.55,4.76-10.31,1.04-1.34,1.88-2.78,2.2-4.47.04-.37.23-.59.61-.64Z" style="fill: #f2f0ee; stroke-width: 0px;"/>
  <path d="M458.51,331.59c.43-.28.85-.55,1.28-.83.12,0,.3.05.37,0,5.03-4.4,9.74-3.89,14.54.57,1.5,1.4,3.99,1.28,5.92,2.05,5.61,2.22,10.12,5.58,11.64,11.97,1.29,5.42,3.07,10.73,4.42,16.14.8,3.2,3.35,5.55,3.21,9.35-.21,5.83-2.96,10.46-5.76,15.03-2.07,3.38-5.86,3.3-8.87.52-.82-.76-1.54-1.67-2.81-1.63-1.78-2.52-.32-5.82-1.99-8.36-5.75-10.17-12.39-19.77-18.79-29.53-1.63-2.49-3.13-5.07-4.83-7.52-2.57-3.71-2.25-5.08,1.68-7.76Z" style="fill: #14b28d; stroke-width: 0px;"/>
  <path d="M407.55,392.92c.7.72.1,1.09-.42,1.42-3.45,2.22-6.73,4.77-10.4,6.53-5.05,2.43-10,1.43-14.28-2.14-3.75-3.13-7.52-3.27-11.68-.85-2.98,1.73-6.22,2.49-9.69,1.48-2-.59-3.98.22-5.83.62-2.9.63-5.13-.28-7.27-1.83-3.53-2.57-6.64-5.54-9.27-9.09-3.81-5.13-9.45-7.06-15.49-8.02-10.32-1.65-20.7-1.87-31.12-1.5-.95-2.08.37-3.7,1.1-5.45.79-1.89,1.19-3.91,2.04-5.78l.03.03c.15-2.57,1.53-3.11,3.98-2.98,8.33.43,16.65.96,24.99,1.1,4.62.08,9.14,1.05,13.75,1.15,1.83.04,2.49,1.33,2.96,2.87.95,3.09,2.25,6.06,3.31,9.11,3.1,8.88,7.35,11.68,16.63,12.02,7.89.29,13.45-2.72,16.81-9.84,1.02-1.32,2.35-1.69,3.93-1.28.38.15.69.4.93.74,3.77,10.34,10.75,14.03,21.81,11.5,1.08-.25,2.16-.67,3.15.21Z" style="fill: #0b6441; stroke-width: 0px;"/>
  <path d="M480.04,389.9c2.05,4.19.85,8.54-3.59,13.29-2.65,2.84-5.18,5.45-9.59,2.79-1.9-1.14-4.24.05-6.17.63-6.92,2.08-13.02,0-17.42-4.81-7.43-8.14-16.75-11.63-27.07-13.55-.48-.09-.93-.36-1.39-.55.27-3.75,2.64-6.19,5.25-8.49.49-.1,1.05.09,1.47-.12,6.5-3.33,11.11.06,15.55,4.27,4.69,4.45,8.85,9.41,13.34,14.04,5.47,5.64,8.88,6.25,15.96,3.01,2.81-1.29,6.45-1.54,7.57-5.29,1.59-2.25,3.22-4.46,6.1-5.21Z" style="fill: #0f8964; stroke-width: 0px;"/>
  <path d="M480.04,389.9c-1.95,1.77-3.89,3.54-5.84,5.31-.85,2.13-2.94,2.11-4.67,2.55-9.12,2.31-16.88-.71-21.9-8.54-4.5-7.02-8.87-14.12-13.25-21.22-1.03-1.67-1.79-3.61-3.81-4.45-.36-.17-.61-.44-.75-.81-.05-1.87.94-3.61.61-5.54-.16-.94-.41-2.14.8-2.6,1.15-.43,1.89.5,2.41,1.33,3.78,6,8.2,11.68,10.71,18.37,1.91,5.09,4.57,9.68,7.59,14.11,3.48,5.13,9.71,7.17,16.28,5.56,7.16-1.76,11.01-5.99,11.76-12.8.2-1.8-.46-3.79,1.07-5.33,2.27,2.69,1.08,5.93,1.41,8.93-1.33,1.47-1.82,3.33-2.4,5.14Z" style="fill: #bcc0b9; stroke-width: 0px;"/>
  <path d="M283.29,386.94c.49.45.32.9-.09,1.25-3.67,3.16-7.69,5.88-12.16,7.67-7.27,2.9-12.81-3.45-13.19-10.08-.12-2.15-1.18-4.82,1.55-6.39.85-.01,1.37.52,1.8,1.14,4.41,6.29,10.6,7.67,17.78,6.65,1.39-.2,2.82-1.26,4.3-.24Z" style="fill: #0c734b; stroke-width: 0px;"/>
  <path d="M430.08,363.05c.27.01.55.03.82.04.16.2.37.48.28.65-2.93,5.74-5.84,11.49-10.88,15.77-2.07,2.57-3.97,5.25-5.49,8.18-2.13,2.14-4.81,3.52-7.25,5.23-4.67,1.4-9.39,2.02-14.22.84-6.05-1.48-10.8-6.89-11.13-12.76,1.88.03,2.5,1.62,3.05,2.87,4.05,9.2,21.78,10.99,27.95.7,4.02-6.7,9.2-12.64,13.92-18.88.81-1.07,1.44-2.37,2.97-2.65Z" style="fill: #a5bcae; stroke-width: 0px;"/>
  <path d="M283.29,386.94c-4.94,1.73-9.94,2-14.94.4-4.11-1.32-6.79-4.37-8.94-7.95-.63-3.44-1.97-6.87-.1-10.33.09,6.39,1.55,12.33,7.76,15.38,6.39,3.14,12.97,2.92,19.07-1.15,3.97-2.65,4.85-7.32,6.91-11.21.68-1.29.87-2.87,2.21-3.78.07,4.05-2.22,7.45-3.14,11.22-2.17,3.39-5.3,5.64-8.82,7.42Z" style="fill: #aabfb2; stroke-width: 0px;"/>
  <path d="M301.35,283.09c-.2.21-.4.43-.61.64-.59-.04-1.19-.07-1.78-.11.62-.95,1.19-2.14,2.39-.54Z" style="fill: #16b68f; stroke-width: 0px;"/>
  <path d="M129.17,126.89c-1.31,4.37-3.25,8.3-7.39,10.71-1.12.65-.72,1.29-.09,2.05.63.76,1.14,1.61,1.69,2.44,3.35,5.14,3.19,6.33-1.39,10.27-.3.58-.83.84-1.43,1-1.37.23-2.74.19-4.11,0-2.49-.53-4.07-2.14-5.3-4.27-1.78-3.09-3.47-6.26-6.17-8.7-4.1-1.65-3.81.93-3.67,3.66.29,5.6-2.6,8.25-7.78,7.31-3.23-.58-4.58-2.51-4.46-5.79.4-10.18.7-20.36,1.03-30.55,1.43-7.45,2.57-8.37,10.48-8.02,4.48.19,8.99.3,13.43.91,8.3,1.14,16.49,5.48,14.99,17.51-.06.47.11.98.17,1.47Z" style="fill: #fdfcfb; stroke-width: 0px;"/>
  <path d="M132.88,152.42c-1.89-2.17-1.62-4.78-1.52-7.36.25-6.52.48-13.04.72-19.56.88-3.3.4-6.68.61-10.02.24-3.85,2.07-6.3,5.92-6.28,8.22.04,16.45.37,24.64.97,4.14.31,5.38,3.3,3.82,7.72-.72,2.93-3.15,3.28-5.52,3.44-3.98.25-7.97,0-11.95.14-1.37.05-3.37-.41-3.45,1.81-.08,2.09,1.9,1.97,3.27,2.3,1.7.41,3.46.39,5.2.4,1.49,0,2.99-.06,4.48.12,3.75.45,5.94,2.49,5.93,5.51,0,3.03-2.52,5.74-5.94,6.14-3.22.37-6.47.05-9.7.19-1.37.06-3.32-.51-3.53,1.71-.23,2.43,1.65,2.63,3.46,2.91,3.58.55,7.18.63,10.8.69,5.68.11,7.55,2.32,6.98,7.97-1.49,3.42-4.35,4.95-7.81,4.56-5.95-.69-11.93-.35-17.88-.9-2.02-.71-4.13-.52-6.22-.67-1.07-.21-2.09-.49-2.31-1.79Z" style="fill: #fdfcfb; stroke-width: 0px;"/>
  <path d="M166.52,150.96c-.18-5.89-.78-6.49-6.81-6.72-4.23-.16-8.47-.43-12.7-.47-4.62-.05-2.14-3.64-2.66-5.52-.63-2.23,1.63-1.52,2.75-1.52,3.36,0,6.73.18,10.09.31,1.65.06,3.22-.14,4.62-1.15,1.9-1.37,2.87-3.13,2.28-5.47-.58-2.26-2.33-3.17-4.47-3.29-3.98-.23-7.97-.57-11.95-.44-3.26.1-2.73-1.92-2.91-3.9-.24-2.69,1.35-2.74,3.28-2.65,3.74.17,7.48.16,11.21.43,3.05.22,5.66-.49,7.84-2.67,1.27.65,2.65-.55,3.91.25-.31,11.45-.61,22.91-.92,34.37-1.4-.01-1.98-1.91-3.54-1.55Z" style="fill: #c98023; stroke-width: 0px;"/>
  <path d="M166.52,150.96c2.91-3.45,2.46.8,3.54,1.55,1.58,2.22,3.72,2.9,6.42,2.95,6.82.15,13.64.55,20.45.92,2.14.12,4.19.02,6.07-1.14.12,1.09-.34,1.94-1.18,2.59-8.77,6.86-23.07,7.06-32.32.39-.99-.72-1.75-1.29-2.95-.54-4.64,2.92-10.06,2.13-15.1,3.15-4.26.86-8.32.21-12.39-.82-2.87-.72-5.1-2.5-6.99-4.72-1.14-1.35-1.33-2.44.8-2.88.7.34,1.4.68,2.1,1.02,1.99.62,4.08-.15,6.07.47,5.71.21,11.43.27,17.12.69,3.56.26,6.35-.61,8.35-3.64Z" style="fill: #b15912; stroke-width: 0px;"/>
  <path d="M203.08,121.75c.9,3.16-1.79,3.15-3.51,3.74-1.76.61-3.74.71-3.97,3.16-3.22-.04-6.44-.21-9.65-.07-3.14.14-2.37-2.02-2.52-3.74-.18-1.99.5-3.05,2.69-2.92,3.95.23,7.92.34,11.87.55,1.75.09,3.45-.04,5.08-.72Z" style="fill: #a65f22; stroke-width: 0px;"/>
  <path d="M120.64,152.68c.45-.11.9-.22,1.34-.33-.42,2.45-3.47,4.17-6.58,3.5-5.03-1.09-8.53-4.96-12.76-7.48-2.37-1.41-.37-7.42,2.34-8,2.15-.47,2.6,1.36,3.55,2.58,2.52,3.26,3.43,7.81,7.72,9.66,1.46.52,2.92.41,4.39.06Z" style="fill: #9d4710; stroke-width: 0px;"/>
  <path d="M68.68,134.86c1.27-.26,2.53-.29,3.75.21-1.27.18-2.53.38-3.75-.21Z" style="fill: #f3bb3a; stroke-width: 0px;"/>
  <path d="M95.22,46.18c4.38.16,8.06-2.31,12.13-3.34,15.74-3.96,31.33-3.35,46.63,1.26,11.33,3.42,21.66,9.09,30.77,16.94,6.84,5.9,12.85,12.38,17.66,20.02,1.23,1.95,1.69,4.13,2.5,6.2.25.64.31,1.24-.26,1.69-.59.47-1.25.15-1.71-.2-.98-.75-1.93-1.57-2.8-2.46-8.03-8.18-16.41-15.87-26.6-21.44-10.78-5.89-22.12-9.86-34.21-12.01-10.13-1.8-20.33-1.72-30.49-1.31-7.64.3-15.25,1.62-22.75,3.31-.85.19-1.93.68-2.38-.2-.6-1.15.6-1.76,1.4-2.26,3.34-2.11,6.73-4.14,10.1-6.21,0,0,0,0,0,0Z" style="fill: #ab5510; stroke-width: 0px;"/>
  <path d="M430.08,363.05c-5.72,7.79-11.62,15.45-17.11,23.39-6.35,9.19-24.32,7.54-28.49-2.09-.53-1.22-1.51-2.24-2.28-3.35,0,0-.14,0-.14,0-1.65-2.55-.85-5.11-.03-7.67,3.25-5.47,7.22-10.39,11.4-15.17,4.37-5.16,8.39-10.61,12.65-15.85,2.05-2.35,3.71-5.05,6.14-7.07,1.38-1.99-.34-3.3-1.19-4.63-6.47-10.2-13.18-20.26-19.53-30.54-2.02-3.27-4.12-6.56-4.32-10.59,0-1.32.23-2.61.68-3.85,1.12-2.69,2.69-5.03,5.22-6.61,7.23-3.98,14.57-5.38,22.41-1.55,3.98,1.95,5.98,5.51,8.2,8.91,3.12,4.78,6.31,9.53,9.07,14.54,3.11,5.23,2.52,7.01,7.5.45,3.84-5.06,7.82-10.03,11.51-15.21,1.4-1.96,3.1-3.58,5.26-4.68,2.65-1.15,5.16-2.86,8.29-2.19.89-.02,1.79-.05,2.68-.07,1.26.65,2.71-.03,3.97.56.75.31,1.5.61,2.24.92,3.09,4.12,7.06,7.65,6.91,13.59-.09,3.58-1.1,6.45-3.18,9.26-5.98,8.08-11.82,16.26-17.71,24.4-.8,1.11-1.65,2.19-1.72,3.64-3.27,2.86-2.51,5.42-.21,8.76,7.05,10.25,13.7,20.78,20.47,31.22.87,1.35,1.95,2.6,2.26,4.26-.1,2.36.09,4.78-.35,7.08-1.28,6.61-6.18,11.4-12.92,12.21-6.7.8-13.04,0-17.01-6.58-2.76-4.58-5.4-9.16-7.44-14.18-2.84-6.98-7.33-13.13-11.83-19.35.16,2.88.25,5.63-1.41,8.05Z" style="fill: #f3f1f0; stroke-width: 0px;"/>
  <path d="M457.04,282.14c-7.12,6.69-12.02,15.18-18.19,22.64-2.89,3.5-2.81,3.59-4.99-.26-.55-.97-1-1.99-1.5-2.99-.24-1.57,1.16-2.07,1.97-2.9,1.77-1.79,3.21-3.78,4.38-6,1.06-2.01.66-3.63-.76-5.44-6.02-7.65-14.23-12.36-22.66-16.6-3.75-1.89-8.3-1.72-12.43-1.07-3.97.63-7.11,2.9-8.11,7.25-.25,1.09-.71,2.12-1.41,3.02-2.34,1.41-3.32,3.83-4.55,6.07-3.19,2.19-6.08,4.74-8.73,7.56-6.5,6.92-8.13,14.9-5.02,23.81,2.86,8.2,7.67,15.35,12.57,22.42,1.76,2.54,3.55,5.11,5.6,7.47,1.57,1.8,2.02,3.94,1.63,6.29-.28,1.72-.77,3.41-.7,5.17-3.67,4.76-7.35,9.52-11.02,14.28-1.23.78-2.5,1.39-3.98.66-.85-1.37-1.35-2.86-1.44-4.47,2.12-2.77,4.05-5.68,5.74-8.73,2.19-3.95,1.99-7.56-.67-11.49-7.57-11.17-13.96-23.02-18.14-35.9-1.51-4.66-1.02-9.62-.11-14.44.39-2.08.82-4.14.92-6.27.19-3.99-1.18-6.94-4.77-8.99-2.49-1.41-4.68-3.34-6.24-5.82-3.35-5.34-8.69-7.57-14.34-9.35-.71-.22-1.54-.15-2.18-.48-5.91-3.07-11.79-1.46-17.75-.13-3.04.68-4.61,2.72-6.2,4.96-4.82.95-8.17,3.99-11.05,7.73-1.39-1.72-2.45-.17-3.45.47-6.26,4.03-12.02,8.69-17.18,14.09-3.35,3.51-3.92,3.35-5.79-.95-.39-.89-.96-1.71-1.45-2.56-.74-1.89.35-3.64.43-5.47.38-8.88-5.15-14.88-14.05-15.24-6.44-.26-12.86-1.03-19.33-.79-1.37.05-2.73-.19-3.96-.85-1.31-1.24-2.65-.46-3.99-.04-3.58,0-7.27,1.23-10.65-.95-.1-.2-.21-.4-.33-.58,2.17-1.98,5.01-1,7.51-1.57,5.63-1.29,10.82-3.76,16.19-5.62,7.15-2.48,14.8-3.36,21.57-7.22,3.01-1.72,6.96-1.73,10.51-2.38,3.44-.63,6.44-1.81,8.5-4.85,4.19-6.19,10.44-10.37,15.91-15.2,3.65-3.22,8.44-5.64,13.42-7.02,1.09-.3,2.2-.6,3.1-1.27,6.45-4.79,14.11-5.52,21.64-7.27,6.77-1.57,12.72-1.17,18.85,1.51,1.47.64,3.17.69,4.77.9,9.38,1.2,18.01,4.61,26.45,8.67,7.32,3.53,14.42,7.38,20.72,12.59,2.6,2.15,5.88,3.2,8.75,5.01,12.91,8.16,22.54,19.55,31.65,31.47,1.7,2.22,4.36,3.9,4.36,7.17Z" style="fill: #1accaa; stroke-width: 0px;"/>
  <path d="M237.54,267.93c7.88,1.13,15.84.93,23.77,1.34,12.13.62,18.67,10.84,13.71,21.89-.25.25-.51.49-.76.74-1.49,1.32-2.83,2.78-4.38,4.05-3.71,3.04-7.68,4.13-12.48,2.94-4.71-1.17-9.64-.87-14.46-1.42-1.07-.12-2.22-.29-3.52.36,2.05,8.85,1.62,17.88,1.27,26.91-.59,15.17-1.18,30.34-1.77,45.51-.1,2.54-.82,4.88-2.22,7.01-1.21-.09-2.03.41-2.86,1.35-7,7.98-21.4,7.4-27.85-.97-1.54-1.99-2.15-4.12-2.2-6.55-.3-14.69,1.14-29.28,2.23-43.9.19-2.6.27-5.22.37-7.81.22-5.33,3.74-10.04,2.69-15.53.22-.12.54-.2.63-.38,4.38-9.43,13.79-14.98,18.56-24.16,1.34-2.58.59-3.12-1.55-3.95-4.44-1.73-9.19-2.06-13.72-3.32-.72-.2-2.04-.1-2.02-1.25.01-1.33,1.24-1.32,2.23-1.38,3.47-.21,6.72-1.87,10.27-1.59,3.94.02,7.88.05,11.82.07.76-.51,1.51-.63,2.24.05Z" style="fill: #ebe9e6; stroke-width: 0px;"/>
  <path d="M268.27,297.86c-7.3,7.87-15.94,13.18-26.88,14.14-1.54-3.6-.69-7.58-1.85-11.3-.61-1.95,1.5-2.29,2.99-2.37,4.24-.21,8.49-.33,12.67.54,4.48.93,8.75-.13,13.06-1.01Z" style="fill: #0c6948; stroke-width: 0px;"/>
  <path d="M268.27,297.86c-6.86,3.58-14.11,1.6-21.23,1.53-2.1-.02-4.66-.67-6.21.28-2.26,1.38.47,3.65.32,5.64-.16,2.21.14,4.46.24,6.69-.55,4.23.51,8.54-.7,12.73-.15-7.7-.37-15.39-1.54-23.03-.28-1.8-.79-3.3-2.46-5.27,3.08,0,5.63-.32,8.07.07,4.42.71,8.96.12,13.31,1.38,5.26,1.52,9.47-.37,13.12-4.07.86-.87,1.61-1.96,3.06-1.92-.76,3.23-3.87,4.1-5.99,5.96Z" style="fill: #a1ada1; stroke-width: 0px;"/>
  <path d="M203.94,326.36c.03-2.72-.71-5.49.49-8.14.1,2.73.35,5.47-.49,8.14Z" style="fill: #0b865c; stroke-width: 0px;"/>
  <path d="M457.04,282.14c-4.45-5.8-8.51-11.95-13.43-17.32-7.53-8.22-15.24-16.48-25.24-21.8-7.59-4.03-13.83-10.21-21.64-13.63-6.28-2.76-12.32-6.03-19.02-8.09-9-2.77-18.41-3.61-27.26-6.77-.82-.29-1.6-.63-2.52-.3-6.55,2.38-13.56,2.57-20.27,4.26-2.35.59-3.49,2.8-5.56,3.63-4.87,1.93-9.47,4.46-14.3,6.42-4.64,1.89-6.91,6.3-10.84,8.87-4.3,2.82-7.44,6.88-10.43,11.01-.69.96-1.7,1.34-2.81,1.69-4.14,1.3-8.38,2.16-12.66,2.8-.61.09-1.32.03-1.82.33-8.45,5.05-18.4,5.75-27.3,9.42-6.08,2.51-12.08,4.84-18.78,4.56-5.52-.21-11.07.3-16.56-.76,6.93,1.76,11.08-3.94,16.25-6.48,7.76-3.82,14.64-9.31,21.79-14.25,2.05-1.42,3.44-3.26,4.77-5.15,5.3-7.5,12.22-13.45,18.55-19.97,1.65-1.7,3.36-3.32,5.37-4.61,1.14-.73,2.63-1.43,3.16-2.54,3.2-6.67,9.67-8.6,15.63-11.54,14.63-7.22,30.04-8.29,45.94-6.88,6.18.55,12.29,1.38,18.43,2.29,5.36.8,10.44,2.58,15.33,4.51,19.97,7.89,37.66,19.35,52.87,34.68,7.82,7.88,15.08,16.16,21.91,24.89,2.87,3.67,6,7.2,10.19,9.62,3.48,2.01,6.12,5.04,8.55,8.22-2.76.95-5.53,1.9-8.29,2.86Z" style="fill: #16bb95; stroke-width: 0px;"/>
  <path d="M471.98,279.78c-1.35,0-2.72.12-3.97-.56,1.34.06,2.78-.55,3.97.56Z" style="fill: #16bb95; stroke-width: 0px;"/>
  <path d="M313.95,272.4c-.09-3.83,2.64-5.01,5.62-5.92.46-.14,1.08.11,1.47-.11,7.12-3.85,14.18-.98,20.78,1.07,5.08,1.58,10.62,3.77,13.35,9.39,1.17,2.41,3.37,4.15,5.6,5.35,6.59,3.53,6.68,7.53,5.24,13.58-2.34,9.81-.54,18.53,3.54,27.4,3.7,8.05,8.1,15.68,12.63,23.24,1.98,3.3,5.05,6.09,3.63,10.33-1.59,4.77-3.41,9.52-8.11,12.31-5.75-14.44-11.51-28.86-17.24-43.31-5.73-14.45-11.45-28.9-17.11-43.37-2.46-6.29-7.22-9.38-13.72-9.76-5.21-.31-10.45-.15-15.68-.19Z" style="fill: #20d7b8; stroke-width: 0px;"/>
  <path d="M378.43,381.63c-5.43,10.88-13.24,11.87-23.52,10.26-5.02-.78-8.3-4.4-10.16-9.07-1.52-3.82-2.93-7.69-4.14-11.61-.65-2.09-1.6-2.98-3.89-3.08-12.82-.53-25.65-1.16-38.45-1.96-2-.13-2.06,1.36-2.98,2.16-.21-1.58-.18-3.23-1.63-4.39-.51-.41-1.42-.95-.75-1.77.3-.36,1.13-.44,1.7-.39,9.9.86,19.92.45,29.72,2.17,4.92.87,9.71,2.55,14.77,2.92,1.67.12,1.99,1.72,2.45,2.98,1.33,3.62,2.49,7.3,3.92,10.88,1.88,4.74,4.9,8.34,10.23,9.4,10.28,2.04,19.26.13,22.02-11.23.16-.64.87-1.15,1.32-1.72,1.7,1.74.35,3.07-.61,4.45Z" style="fill: #a2ad9f; stroke-width: 0px;"/>
  <path d="M319.96,314.37c2.96,8.2,5.56,15.41,8.15,22.63.65,1.8-.24,2.17-1.84,2.04-4.33-.36-8.67-.73-13.01-.95-1.74-.09-2.15-.56-1.5-2.22,2.65-6.81,5.22-13.66,8.2-21.5Z" style="fill: #156f54; stroke-width: 0px;"/>
  <path d="M378.43,381.63c.23-1.48,1.14-2.87.61-4.45.04-1.22.07-2.45.11-3.67,1.24-.74,2.59-.82,3.98-.66-.9,2.65-.9,5.42-1.07,8.17-1.26-.08-2.47.08-3.63.62Z" style="fill: #16bb95; stroke-width: 0px;"/>
  <path d="M420.3,379.51c3.44-5.54,7.67-10.56,10.6-16.42,1.98-1.27,1.99.86,2.47,1.63,4.68,7.31,9.27,14.68,13.86,22.04,6.68,10.71,15.18,13.39,26.96,8.45,2.37.62.99,1.4.04,2-12.74,7.94-17.54,9.45-28.01-2.81-4.2-4.92-8.66-9.52-13.69-13.6-2.92-2.36-5.87-2.99-9.26-1.27-.98.49-1.99,1.23-2.98-.02Z" style="fill: #0b5e3b; stroke-width: 0px;"/>
  <path d="M107.95,130.08c-.5,0-1.49-.06-2.48.01-2.02.15-3.01-.57-2.77-2.75.13-1.22-.22-2.51,0-3.7.34-1.8-1.88-4.66.53-5.22,3.64-.84,7.72-.89,11.05,1.62,2.16,1.63,2.25,4.09,1.63,6.45-1.05,3.98-4.26,3.92-7.97,3.59Z" style="fill: #af681e; stroke-width: 0px;"/>
  <path d="M120.64,152.68c-1.48.97-2.94.99-4.39-.06,1.46.02,2.93.04,4.39.06Z" style="fill: #c4761d; stroke-width: 0px;"/>
  <path d="M141.05,153.91c-2.03,0-4.13.72-6.07-.47,2.03.03,4.09-.22,6.07.47Z" style="fill: #c4761d; stroke-width: 0px;"/>
  <path d="M394.15,358.57c-1.35-1.41-.85-3-.39-4.54.79-2.63.09-4.74-1.62-6.88-6.92-8.64-12.84-17.86-17.47-27.99-4.13-9.03-1.62-21.36,5.51-27.25,2.72-2.25,4.62-5.64,8.62-6.06-.25,1.21-.5,2.43-.75,3.64-1.33,2.98,1.52,5.4,1.1,8.26-1.64,2.3-1.79,4.8-1.23,7.49,2.05,9.9,7.39,18.17,13,26.3,2.4,3.48,5.21,6.71,5.67,11.16-3.8,5.56-8.08,10.74-12.44,15.85Z" style="fill: #16bb95; stroke-width: 0px;"/>
  <path d="M393.35,279.78c.17-7.11,4.88-11.92,14-11.3,14.15.96,23.26,9.81,32.26,19.12,1.45,1.5,1.06,3.17.28,4.85-1.72,3.69-4.25,6.69-7.53,9.08-3.5-5.38-7-10.77-10.51-16.15-5.86-8.96-14.88-11.57-24.78-7.18-1.23.54-2.47,1.06-3.71,1.59Z" style="fill: #20d7b8; stroke-width: 0px;"/>
  <path d="M406.59,342.71c-4.23-8.71-10.87-15.94-15.11-24.66-2.24-4.6-4.16-9.28-4.77-14.36-.25-2.06-.82-4.58,1.9-5.83,4,3.03,5.69,7.77,8.45,11.7,5.02,7.14,9.35,14.74,14.29,21.96.83,1.21,2.78,2.41,1.24,4.41-2,2.26-4,4.52-5.99,6.78Z" style="fill: #0e7d56; stroke-width: 0px;"/>
  <path d="M412.59,335.93c-4.05-7.84-9.4-14.87-14-22.37-3.24-5.28-6.64-10.47-9.98-15.7-.67-2.76-1.97-5.47-.56-8.37.82,6.15,4.72,10.8,7.85,15.78,5.4,8.61,11.1,17.04,16.45,25.68.79,1.27,3.88,3.19.24,4.97Z" style="fill: #c3c6be; stroke-width: 0px;"/>
  <path d="M237.54,267.93c-.75-.02-1.49-.03-2.24-.05.77-1.21,1.54-2.31,2.24.05Z" style="fill: #16bb95; stroke-width: 0px;"/>
</svg>