<?xml version="1.0" encoding="UTF-8"?>
<svg id="Layer_1" data-name="Layer 1" xmlns="http://www.w3.org/2000/svg" viewBox="0 0 438.95 598.37">
  <path d="M35.51,100.99c-1.9-3.28-.23-5.98,1.55-8.54,4.31-6.19,10.31-10.75,15.87-15.66,5.15-4.56,10.33-9.17,16.19-12.94,1.79-1.15,3.31-1.93,5.39-1.84,2.49.11,4.98.06,7.47.08,1.54,2.03.2,3.5-1.05,4.88-3.42,3.76-6.74,7.6-9.84,11.63-.71.93-2.19,1.65-1.31,3.11.81,1.33,2.13,2.03,3.77,1.98,1.9-.05,3.88-.47,5.85,1.19-3.69,2-7.27,3.08-10.89,4.07-6.4,3.08-13.3,4.67-20.05,6.73-1.18.36-2.73.34-2.98,1.77-.32,1.8,1.67,1.83,2.59,2.71,4.92,4.69,10.22,4.05,16.11,1.94,15.78-5.66,31.62-11.15,47.56-16.34,16.03-5.23,32.29-9.64,48.73-13.48,14.85-3.47,29.87-5.69,44.91-7.84,3.51-.5,7.13-.85,10.73-.91,3.79-.76,7.55-.64,11.43-.35,10.56.79,21.04,2.17,31.5,3.74,10.72,1.61,21.35,3.74,31.89,6.31,1.19.29,2.46.55,3.17,1.76-1.09,2.24-3.01,1.3-4.54.99-7.34-1.48-14.71-2.68-22.15-3.53-3.12-.36-6.21-.35-9.33-.42-2.8-.06-4.37,1.22-5.01,3.97-1.83,7.86-3.86,15.71-6.45,23.3-2.84,8.31-3.88,17.14-7.69,25.13-1.13,2.38-1.33,5.05-2.06,7.55-2.04,6.99-3.42,14.7-8.7,19.83-6,5.83-12.96,9.95-22.64,8.62-9.77-1.34-16.29-7.68-23.98-12.24-5.46-3.24-11.07-5.65-17.3-6.71-3.21-.55-6.35-1.31-9.27-2.8-4.25-3.15-7.27-7.55-11.24-10.98-1.11-1.12-2.24-2.22-3.43-3.27-2.03-1.78-3.91-2.22-5.79.14-1.19.06-1.97-.7-2.78-1.4-1.66-1.84-3.26-3.5-6.21-2.35-1.27.5-2.85-.28-4.32-.15-7.21-2.15-13.64,1.43-20.35,2.83-3.51.73-6.17,3.17-8.68,5.66-.83.63-1.73,1-2.79.86-2.75-.94-4.75-3.15-7.37-4.34-3.95-1.8-5.38-.95-4.92,3.44.58,5.58,2.04,11.01,3.4,16.44.42,1.69.94,3.36,1.02,5.12.32,4.12-.71,8.14-.79,12.25-.12,6.13,1.22,11.82,3.82,17.28,1.02,2.62,2.58,4.96,3.91,7.42.15.34.26.69.36,1.05.49,3.03,1.83,6,.64,9.14-1.19.78-2.39.55-3.51-.08-5.42-3-10.88-5.94-14.47-11.3-.96-1.43-1.89-3.39-3.64-3.51-3.19-.21-6.38-1.25-9.56-.66-2.26.41-1.26,2.23-.95,3.62.97,4.97-.14,6.41-5.02,6.53-1.16-.24-2.3-.55-3.24-1.32.51-5.54-1.75-9.64-6.44-12.55-.87-.54-2.11-1.32-.48-2.5,6.27-.2,12.31,1.54,18.49,2.09.73.19,1.33.69,2.04.89,4.59,1.24,6.74-.74,5.86-5.45-1.29-6.86-3.52-13.47-5.56-20.13-4.05-13.2-8.75-26.19-12.74-39.41-.76-2.52-2.27-4.08-4.9-4.49-1.66-.26-3.08-.94-4.11-2.32-1.26-1.35-1.63-3.2-2.59-4.73-.72-1.16-1.43-2.34-3.12-1.55Z" style="fill: #e3cfe6; stroke-width: 0px;"/>
  <path d="M171.11,588.67c-4.46-8.62-7.25-17.91-10.31-27.05-5.9-17.64-11.41-35.42-17-53.16-2.5-7.92-4.8-15.91-7.19-23.86,2.5-1.03,2.98,1.19,3.63,2.55,1.82,3.82,3.91,7.49,6.04,11.12,3.18,5.43,3.29,5.38,9.05,2.92,2-.53,3.72-1.8,5.77-2.18,1.72.04,2.66,1.23,3.53,2.45,3.84,5.35,8.25,10.28,11.77,15.89,3.47,5.53,14.46,9.96,20.95,8.7,3.67-.71,5.43-3.28,6.28-6.62,1.85-7.27,2.93-14.67,2.25-22.17-.3-3.27.31-6.43.32-9.65,0-1.91.76-3.55,3.28-2.46,2.27,5.12,1.44,10.7,2.3,16.04,1.14,7.08,2.34,14,9.26,18.06,2.44,2.21,5.31,1.8,8.17,1.29,3.21-.58,6.22-1.84,9.33-2.75,4.39-1.28,8.1-.31,11.08,3.28,12.62,15.22,19.78,46.52,7.9,66.65-3.64,6.17-8.45,9.04-15.43,9.23-11.02.29-21.87-1.64-32.81-2.37-4.99-.33-9.96-.59-14.93.04-8.54,1.08-16.75.9-23.26-5.94Z" style="fill: #d0b4d5; stroke-width: 0px;"/>
  <path d="M267.82,57.55c1.48-8.51,2.96-17.02,4.44-25.54,1.5-8.64,3-17.28,4.46-25.93.25-1.49.75-2.73,1.95-3.78,1.16,1.42.28,2.43,0,3.4-1.18,4.05-.52,5.18,3.78,5.35,4.6.18,9.22.07,13.83.08,2.7-.57,5.14.56,7.67,1.17,26.94,6.53,49.77,20.67,70.78,38.19,1.91,1.6,3.94,3.06,5.78,4.75,9.07,10.02,17.66,20.44,25.95,31.13.95,1.9,1.73,3.88,2.37,5.9.76,2.4-.27,3.54-2.67,3.7-1.76.12-3.48-.11-5.2-.47-12.38-2.58-24.2-6.96-36.13-11.03-29.78-10.17-59.8-19.45-90.99-24.38-2.19-.35-4.52-.47-6-2.54Z" style="fill: #e2cee6; stroke-width: 0px;"/>
  <path d="M171.11,588.67c.61-.84,1.28-.63,1.85,0,6.08,6.65,13.86,5.63,21.58,4.78,4.6-.5,9.22-.47,13.8-.14,6.78.5,13.55,1.3,20.3,2.12,4.33.52,8.65.83,13.01.7,6.71-.2,11.65-2.75,15-9.03,7.33-13.72,7.09-27.82,3.37-42.33-2.1-8.17-5.5-15.66-10.71-22.33-3.25-4.16-5.86-5.08-10.98-3.51-4.26,1.31-8.36,3.26-12.99,3.08-1.96-.07-3.7-.47-4.82-2.27,1.32-1.44,3.26-.67,4.79-1.36.86-.3,1.72-.63,2.57-.96,3.44-1.1,6-3.54,8.54-5.9,2.73-2.54,2.75-4.42.29-7.5-3.09-3.86-5.33-8.48-9.8-11.14-.51-.31-.87-.9-1.21-1.42-.77-1.18-2.62-2.33-1.31-3.81,1.26-1.42,2.77,0,3.98.75,8.26,5.19,16.94,9.48,26.18,12.62,3.71,1.39,4.75,1.16,6.19-2.18,2.12-4.89,5.19-9.36,6.53-14.6,1.19-2.36,3.56-2.46,5.71-2.87,2.54-.48,4.78-1.29,5.97-3.82,1.74-7.63,1.08-15.37,1.22-23.08.09-5.33.32-5.74,5.21-7.75,3.82-1.57,7.31-3.76,10.84-5.87,1.65-.99,3.44-1.99,5.21-.68,1.71,1.27,2.23,3.2,1.54,5.33-.36,12.82-2.49,25.45-4.13,38.12-1.82,14.03-3.82,28.04-5.69,42.06-1.48,11.07-3.06,22.12-4.26,33.22-1.05,9.76-1.98,19.51-3.93,29.14-.25,1.21-.54,2.42-.8,3.63-.8,3.68-2.89,5.13-6.85,5.33-27.56,1.34-55.12.48-82.68.71-4.61.04-9.23-.27-13.82.5-3.56.6-6.03-.71-7.39-4.12-.73-1.84-1.56-3.63-2.35-5.44Z" style="fill: #b28fb9; stroke-width: 0px;"/>
  <path d="M68.51,88.97c3.01-1.91,6.81-2.03,10.04-4.37-1.81,0-3.41-.39-4.7.08-3.18,1.15-4.36-1.61-5.69-3.08-1.24-1.36,1.18-2.22,2.02-3.32,3.47-4.54,7.13-8.9,11.11-12.99.88-.91.65-2.09.68-3.19,4.48.13,7.16-3.23,10.26-5.55,15.43-11.55,30.73-23.27,48.08-31.95,13.48-6.75,27.85-10.55,42.52-13.47.97-.19,1.93-.48,2.88-.77,1.86-.57,3.46-1.25,3.43-3.73-.03-2.53-1.52-3.35-3.56-4.12-1.17-.44-3.59.13-3.32-1.53.33-2.07,2.25-.15,3.47-.32,1.47-.21,3,.04,4.49-.07,6.76-.51,11.94,4.61,10.73,11.33-1.13,6.3-.89,12.68-1.08,18.94-.24,7.92-1.91,15.84-.69,23.82.3,1.96-1.57,1.94-2.85,2.08-7.76.81-15.5,1.73-23.21,2.99-15.82,2.59-31.34,6.46-46.74,10.84-18.19,5.18-35.99,11.57-53.87,17.71-1.31.45-2.6.89-4.01.68Z" style="fill: #e2cfe6; stroke-width: 0px;"/>
  <path d="M122.5,430.62c.22-1.74.44-3.48.66-5.22.69-3.99,3.85-5.44,7.08-6.69,2.42-.94,4.99-1.22,7.6-1.09,9.56.22,17.91,4.05,25.85,8.91,13.37,8.19,25.09,18.42,36.11,29.51,3.15,3.17,10.28,4.34,14.08,2.43,1.83-.84,3.31-2.15,4.73-3.56,7.74-7.71,15.34-15.55,23.29-23.05,1.43-.87,2.59-2.09,3.9-3.11,1.02-.62,1.69-1.56,2.36-2.51,3.58-3.15,7.48-5.74,12.18-6.91,1.85-.19,3.61-.85,5.44-1.12,2.3-.34,4.96-.25,5.98,1.88,1.49,3.08,3.73,3.82,6.69,3.8.31.54.35,1.11.23,1.71-4.51,6.41-3.51,14.04-4.54,21.18-1.25,8.61-2.11,17.27-3.78,25.82-.67,3.42-1.82,6.55-5.77,7.46-4,.92-7.2-.5-9.9-4.34-1.51-2.15-2.62-4.52-3.79-6.86-2.42-4.82-6.34-7.03-11.68-7.29-6.11-.3-11.94.42-17.28,3.58-2.95,1.75-5.84,1.87-8.79.15-.31.12-.62.25-.9.43-2.3,1.25-.97,3.7-1.81,5.44-.2.33-.46.6-.76.84-2.87,1.34-5.97,1.22-8.81.5-3.91-.99-5.07-4.68-5.66-8.1-.45-2.6-1.57-4.03-3.91-4.85-14.97-5.21-30.22-9.58-45.15-14.91-.46-.17-.96-.22-1.45.18-.28,1.22.67,2.03,1.17,2.98,4.13,7.84,5.78,16.16,4.38,24.93-.96,6.03-8.09,10.2-13.99,8.54-2.58-.73-3.88-2.66-4.75-4.92-2.44-6.32-3.62-12.98-4.74-19.62-1.41-8.35-3.03-16.68-3.73-25.14-.03-.37-.31-.67-.54-.97Z" style="fill: #d7d6c7; stroke-width: 0px;"/>
  <path d="M267.82,57.55c11.9,3,24.13,4.38,36.02,7.47,21.19,5.51,42.15,11.72,62.8,19.04,11.59,4.1,23.2,8.21,35.31,10.6.37.07.73.28,1.08.26,1.7-.06,3.93.88,4.96-.5.91-1.21-.58-2.98-1.14-4.46-.48-1.27-.85-2.6-1.26-3.9.03-.38.12-.75.36-1.04,3.68-4.62,3.84-4.72.63-9.87-5.01-8-11.54-14.59-19.58-19.58-2.27-1.41-4.85-3.09-6.91.48-15.34-12.71-31.07-24.82-49.27-33.3-10.41-4.86-21.35-8.09-32.44-10.92-.72-.18-1.41-.47-2.11-.71,2.42-3.24,2.05-5.33-1.49-7.08-2.05-1.01-4.25-1.71-7.31-2.91,4.63-.64,8.08-.87,11.99-.37,6.9.89,13.45,2.73,19.87,5.03,18.09,6.5,33.99,16.86,49.21,28.43,9.64,7.33,18.78,15.19,26.9,24.13,7.42,8.17,14.91,16.35,19.99,26.33,1.85,3.64,3.7,7.29-.18,10.85-.51.47-.58,1.11-.13,1.68.41.52,1.04.83,1.66.59,1.15-.44,2.24-1.03,3.4-1.58.69.93.6,1.77-.32,2.52-1.04.99-2.41,1.21-3.71,1.59-3.2.62-5.56,2.31-7.37,5.09-2.7,4.14-3.96,4.56-8.67,3.44-3.48-.83-6.97-1.63-10.39-2.7-30.92-9.71-61.2-21.46-92.74-29.23-1.08-.27-2.22-.45-2.98-1.4-7.1-2.61-14.53-3.86-21.94-5.13-13.4-2.29-26.73-5.08-40.42-5.44-5.17-.14-10.25-1.92-15.51-1.4,5.67-2.18,11.7-2.71,17.62-3.75,1.91-.34,3.82-.66,6.49-1.12-4.32-2.25-8.57-2.05-12.34-3.48,3.64-1,7.19-2.15,10.77-.26.32.17.72.3,1.07.28,9.47-.47,18.72,1.67,28.1,2.33Z" style="fill: #dedcd0; stroke-width: 0px;"/>
  <path d="M138.16,418.6c-6.15-.27-11.4,1.43-14.99,6.8-9.32-14.77-18.59-29.56-28.52-43.92-21.57-31.19-44.04-61.74-66.23-92.5-3.93-5.44-7.75-10.96-11.61-16.45,1.92-1.64,3.97-.55,5.95-.23,1.81.29,3.63.54,5.39,1.04,4.96,5.41,9.33,11.32,13.86,17.09,17.42,22.18,34.74,44.44,51.85,66.86,14.53,19.04,28.27,38.69,43.32,57.33.89,1.11,2.09,2.31.99,3.98Z" style="fill: #b999c0; stroke-width: 0px;"/>
  <path d="M418.27,103.23c1.11,3.01,3.53,5.09,5.61,7.29,6.29,6.66,9.76,14.73,13.48,22.94,3.11,6.89,1.19,12.11-1.89,17.75-5.14,4.22-9.6,9.29-15.55,12.5-8.6,4.5-16.19,10.15-21.26,18.67-9.21,11.88-15.59,25.47-23.31,38.26-7.46,12.38-13.88,25.37-21.89,37.43-.27.41-.56.83-.45,1.59,2.86.8,5.55-1.99,8.46-.7-.06,2.84-2.58,3-4.34,3.83-3.87,1.81-7.6,3.73-9.46,7.91-.54,1.21-1.82,2.48-.94,3.76.95,1.37,2.5.33,3.8.19,2.39-.26,4.64-2,7.18-.71.25.67.03,1.26-.44,1.7-5.27,4.96-9.7,10.69-14.7,15.9-1.5,1.56-3.31,4.14-5.54,2.74-2.38-1.5-.29-4.1.34-6.09,1.32-4.1,3.83-7.99,1.58-12.52-.1-.2-.05-.5.01-.74,2.78-10.47,3.43-21.43,10.28-30.81,10.81-14.8,20-30.68,28.27-47.07,2.59-5.12,1.47-9.8-.72-14.51-.59-1.26-1.47-2.35-.66-3.8,2.11-1.92,4.94-2.02,7.45-2.94,6.33-1.9,12.4-4.52,18.55-6.9,1.73-.59,3.05-1.59,3.74-3.37,4.74-12.32,9.94-24.43,15.55-36.37.37-.79.56-1.66.9-2.45,2.98-6.85,2.06-12.84-3.81-17.79-.66-.56-1.29-1.21-1.65-2.01-.74-1.64-.93-3.14,1.38-3.66Z" style="fill: #ddcadf; stroke-width: 0px;"/>
  <path d="M361.4,259.15c-2.52.6-5.05,1.19-7.57,1.82-.86.22-1.87.61-2.44-.15-.61-.8.16-1.67.63-2.35,3.73-5.44,7.02-11.12,10.27-16.85,8.51-15.01,17.11-29.99,25.82-44.89,2.99-5.11,5.5-10.58,9.93-14.74,2.59,1.15,4.52-.78,6.65-1.53,2.46-.86,4.74-2.19,6.88-3.71,2.34-1.2,4.43-2.8,6.67-4.16,1.26-.76,2.56-1.75,4.07-.43-5.75,9.97-11.5,19.94-17.24,29.91-1.86,3.23-3.7,6.46-5.55,9.7-.32,1.67.75,2.76,1.64,3.94,3.52,4.65,7.15,9.27,9.7,14.52,2.64,5.42,4.84,11.11.51,16.82-1.42,1.88-2.85,3.87-5.72,3.26-1.4-1.59-.42-3.11.3-4.49,1.93-3.69,1.95-7.41.58-11.23-1.87-5.2-4.45-10.03-7.6-14.56-1.16-1.67-2.15-1.9-3.28.06-1.74,3.03-3.5,6.05-5.18,9.11-4.59,7.58-9.08,15.21-13.48,22.91-.88,1.53-1.45,3.16-2.14,4.76-4.42,1.18-8.72,3-13.46,2.26Z" style="fill: #b28cb4; stroke-width: 0px;"/>
  <path d="M35.51,100.99c.07-1.66.31-2.84,2.23-1.18,2.03,1.75,2.36,4.45,3.8,6.51,5.03,8.39,6.95,17.61,7.98,27.24.77,7.2,3.95,13.87,6.34,20.68,2.27,6.46,4.93,12.79,7.23,19.24.38,1.06.87,2.11.75,3.25-.17,1.65-.7,2.99-2.82,2.2-6.6.13-12.96-1.78-19.5-2.21-.55.6-1.29.78-2.03.67-9.31-1.37-18.57-2.99-27.06-7.36-.44-.23-.81-.56-1.12-.95-1.28-3.13.1-5.9,1.36-8.57,4.03-8.55,10.67-14.98,17.61-21.13,3.45-3.06,6.88-6.16,10.51-9.02,1.87-1.48,2.11-3.2,1.4-5.32-1.38-4.15-2.79-8.28-4.12-12.45-.42-.85.23-1.79-.23-2.63-.77-2.98-1.54-5.97-2.31-8.95Z" style="fill: #d1afd7; stroke-width: 0px;"/>
  <path d="M52.01,191.63c4.86-.09,5.31-.69,4.46-6.02-.87-2.21-.22-3.62,2.17-4.05,5.4-.96,12.55,3.13,14.5,8.24.41,1.07.72,2.12.17,3.23-1.07,1.18-2.52,1.23-3.95,1.34-3.05-.64-4.75.83-5.54,3.61-1.08,3.76-3.08,7.05-5.02,10.4-2.39,4.12-3.3,8.51-2.11,13.29,1.09,4.38,2.71,8.55,4.66,12.59,2.49,5.17,5.16,10.24,7.65,15.4,2.14,4.42,3.23,9.15,3.87,13.99.15,1.13.26,2.24-.65,3.16-5.96.28-11.49-1.59-17.03-3.43-3.45-5.88-7.11-11.64-10.47-17.58-3.26-5.67-5.79-11.74-9.42-17.21-.63-.75-.06-1.74-.51-2.53-4.36-10.28-9.78-20.05-14.79-30-2.78-5.51-5.68-10.95-8.53-16.42,1-.84,1.92-.32,2.7.29,2.17,1.69,4.69,2.84,6.83,4.55,3.24,3.86,5.22,8.49,7.48,12.9,8.76,17.07,17.62,34.08,26.44,51.12,1.94,3.74,4.01,7.4,6.71,10.69-2.08-6.34-5.19-12.22-8.09-18.18-4.37-8.96-8.77-17.9-12.38-27.2-1.32-3.39-2.27-6.86-2.06-10.56.1-1.69.4-3.35,1.91-4.26,3.2-1.94,6.36-3.89,8.92-6.68.52-.57,1.43-.36,2.08-.71Z" style="fill: #d1b7d6; stroke-width: 0px;"/>
  <path d="M122.5,430.62c1.66.19,1.26,1.5,1.45,2.56,2.36,13.28,3.79,26.72,7.41,39.77,1.48,5.34,3.7,7.95,7.09,7.78,6.72-.35,10.38-3.33,10.93-9.28.8-8.54-.33-16.73-5.07-24.16-.71-1.11-1.53-2.29-1.53-4.26,1.46.21,2.93.17,4.2.66,14.18,5.43,28.89,9.27,43.16,14.4,3.07,1.1,6.21,1.44,6.05,6.67-.19,6.05,6.55,8.66,13.91,6.31,1.42,2.38.26,3.62-2.02,3.82-6.03.53-12.03.62-16.66-4.31-1.69-1.79-3.5-1.58-5.41-.54-2.62,1.43-5.15,3.01-7.65,4.65-13.13,8.6-27.69,10.44-42.92,8.99-1.87-.18-3.62-.95-4.95-2.39-.99-1.06-2.04-1.84-3.59-1.23-2.68-6.11-2.79-12.75-3.57-19.18-.67-5.51-1.44-11.11-.95-16.73-.49-3.78-.54-7.56.04-11.34.03-.73.06-1.46.09-2.19Z" style="fill: #cdcbb8; stroke-width: 0px;"/>
  <path d="M212.35,465.07c.02-1.17-.06-2.82,1.58-.97,2.14,2.39,4.36,1.99,6.67.55,6.2-3.86,13.02-4.65,20.09-4.07,4.93.41,8.6,2.79,10.88,7.28,1.35,2.65,2.8,5.26,4.3,7.83,1.98,3.4,5.19,4.17,8.72,3.46,3.35-.67,4.16-3.5,4.69-6.43,2.46-13.5,4.2-27.09,5.23-40.77.21-2.79,2.2-4.6,3.79-6.61,1.84.16,1.53,1.74,1.73,2.83.89,4.78,1.58,9.57,1.48,14.47-.07,3.52.48,3.9,3.65,2.34,4.01-1.97,8.05-3.95,11.63-6.7,2.07-1.59,3.53-3.51,3.71-6.21.23-.93.2-2.04,1.52-2.22.52,4.17,1.92,8.23,1.64,12.51-.07,1.08.31,2.27-.67,3.16-1.15-5.79-2.1-6.18-6.89-3.35-3.72,2.2-7.36,4.62-11.56,5.91-2.41.74-3.43,2.17-3.39,4.93.1,7.42.48,14.87-.64,22.28-.17,1.11-.22,2.21-.78,3.21-2.87-.21-1.93-2.37-1.92-3.92.12-12.55.36-25.11-.24-37.72-.91,1.79-1.08,3.73-1.21,5.71-.7,10.79-1.73,21.56-3.17,32.28-.77,5.73-2.46,7.34-8.22,8.44-14.68.65-28.8-3.17-43.11-5.45-3.8-.61-6.03-3.75-7.57-7.14-.82-1.8-1.39-3.71-1.94-5.62Z" style="fill: #cdcbb8; stroke-width: 0px;"/>
  <path d="M212.35,465.07c1.78.09,1.71,1.71,2.01,2.75,1.59,5.47,4.64,8.94,10.7,9.66,13.24,1.58,26.19,5.46,39.71,4.83.41.48.65,1.04.63,1.68-.16.87-.5,1.56-1.56,1.49-3.16-1.02-6.43-.77-9.64-.62-10.85.51-21.3-1.45-31.55-4.81-1.17-.38-2.43-1.05-3.35.36-1.62,2.46-3.43,1.53-5.03.18-2.35-1.97-3.11-1.19-3.25,1.5-.06,1.07-.12,2.31-1.56,2.64-1.41-.69-1.45-2.19-2.14-3.83-1.18,5.29-1.22,10.29-1.55,15.27-.1,1.55.47,3.3-1.41,4.26-1.59-.98-1.2-2.62-1.21-4.03-.06-4.47-.18-8.94.59-13.38.21-1.23.68-2.99-.97-3.61-1.32-.5-2.25.79-3.12,1.64-4.71,4.59-7.42,10.53-10.8,16.02-2.02,3.28-3.75,6.73-5.82,9.98-2.57,4.04-2.48,4.84.77,8.35.51.55,1.02,1.1.99,1.92-.21.32-.52.61-.89.58-5.53-.39-9.68-7.59-7.01-12.35,2.68-4.77,6.06-9.11,8.94-13.76.7-1.12,1.59-2.18,1.95-4.07-5.48,3.38-11.1,5.61-16.53,8.24-1.48.72-3.02,2.02-4.78.48.18-1.77,1.76-2.3,2.89-3.18,3.98-3.1,8.19-5.93,11.77-9.45-.92-1.53-1.99-1.09-2.87-.9-10.28,2.15-20.67,2.8-31.14,2.65-3.87-.06-4.13.44-2.8,4.14,1.24,3.43,3.48,6.3,5.23,9.44,1.38,2.47,4.06,1.43,5.85,2.62-5.06,3.31-6.04,3.2-9.03-1.57-2.54-4.06-4.94-8.21-6.91-12.6-.55-1.24-.95-2.92-2.86-2.98-2.05-.29-4.11-.48-6.13-.89-1.94-.39-3.13-1.7-3.57-3.64.11-2.54,1.57-3.13,2.85-1.13,2.58,4.05,6.27,4.07,10.38,4.19,10.57.3,20.79-.97,30.54-5.3,4.68-2.08,8.75-5.16,13.1-7.79,4.67-2.82,5.48-2.82,9.33.88,2.52,2.42,12.81,4.33,15.91,3.01,1.43-.61.99-1.81,1.09-2.87,0,0,0,0,0,0,1.9-1.57.53-4.36,2.24-6h0Z" style="fill: #a9a68e; stroke-width: 0px;"/>
  <path d="M302.02,429.86c-.75.62-.48,1.5-.58,2.29-3.03.66-4.07-.11-3.64-2.88.37-2.39,1.71-4.41,2.84-6.48,11.48-21.02,23.56-41.7,36.06-62.13,17.52-28.62,35.41-57.02,53.45-85.32,1.29-2.02,2.07-4.26,3.3-6.28,2.79-1.72,5.6-3.34,9.03-1.79-10.94,17.03-21.88,34.07-32.83,51.1-16.51,25.69-32.76,51.55-48.36,77.81-6.6,11.12-13.2,22.25-19.28,33.67Z" style="fill: #b28fb9; stroke-width: 0px;"/>
  <path d="M11.55,168.41c9.33,5.16,19.66,6.66,29.97,8.29,3.67,1.52,5.7,4.54,7.64,7.84,1.38,2.34,1.79,4.25-.15,6.32-1.97,1.45-4.1.41-6.08.22-7.64-.75-15.01-2.62-21.88-6.19-5.62-6.79-11.67-13.2-17.51-19.81-.57-.65-.98-1.44-1.76-1.9-2.73-5.46-2.11-11.05.43-16.16,4.37-8.8,11.21-15.67,18.46-22.25,5.61-5.09,12.06-9.18,17.15-14.84.84.57.68,1.46.74,2.28.34,1.8-1.08,2.67-2.07,3.69-3.74,3.82-7.51,7.62-11.34,11.35-3.49,3.39-6.82,6.82-8.69,11.49-1.23,3.06-4.05,5-6.33,7.27-2.07,2.05-3.72,4.33-4.73,7.06-1.64,4.42-.89,8.28,2.58,11.58,1.25,1.19,2.75,2.17,3.58,3.76Z" style="fill: #edece5; stroke-width: 0px;"/>
  <path d="M4.81,255.31c-2.83-2.99-.84-4.94,1.47-6.82.87,1.92,1.05,4.46,4.02,4.52,6.42,1.29,12.83,2.62,19.26,3.81,4.09.69,8.12,1.7,12.23,2.36,1.31.21,2.68.4,3.73,1.36,1.42,2.46,3.61,4.05,6.02,5.45,2.16,1.25,4.31,2.58,5.86,4.58,1.46,1.88,2.19,4.14.8,6.26-1.46,2.24-3.83,1.98-6.09,1.31-2.78-.82-5.26-2.25-7.72-3.76-1.64-1-3.35-2.61-4.48.65-.27.79-1.35,1.05-2.21,1.25-3.19.19-6.25-.09-8.7-2.48-2.97-2.31-5.22-5.33-7.68-8.11-4.53-5.1-10.04-8.47-16.51-10.4Z" style="fill: #dedcd0; stroke-width: 0px;"/>
  <path d="M418.27,103.23c-2.26,2.02-.72,3.35.76,4.85,3.81,3.84,7.46,7.68,5.7,13.93-1.28,4.55-2.66,9.07-4.85,13.24-5.03,9.57-8.7,19.72-12.68,29.73-.96,2.42-2.06,4.13-4.66,4.63-1.45-2.01-.21-3.84.49-5.6,3.42-8.53,6.57-17.16,9.95-25.7,1.45-3.66,1.79-6.88-1.63-9.73-1.68-1.4-2.14-3.58-2.54-5.68-.12-3.32,2.16-5.72,3.33-8.55.78-1.89,1.58-3.42-1.55-3.87-2.36-.33-2.83-2.07-2.03-4.22,1.31-3.53,4.01-5.52,7.41-6.75,1.21-.66,2.51-.87,3.87-.76-.52,1.49-1.05,2.99-1.57,4.48Z" style="fill: #b0999a; stroke-width: 0px;"/>
  <path d="M361.4,259.15c4.52-.98,9.05-1.96,13.57-2.95,1.17-1.59,2.99-1.62,4.67-1.89,5.75-.94,11.51-1.76,17.24-2.79,2.97-.16,5.71-1.67,8.73-1.51,5.01-1.55,7.89-6.53,7.06-11.43-1.52-9.02-7.46-15.53-12.41-22.61-.94-1.35-2.26-2.47-.73-4.18,4.13,5.9,8.67,11.52,12.18,17.84,2.35,4.24,4.76,8.44,4.43,13.61-.15,2.34-.64,4.39-2.31,6.08-5.27,2.63-10.78,4.59-16.57,5.71-.34.11-.69.19-1.04.26-1.24.19-2.49.31-3.69.75-2.52.66-5.07,1.16-7.62,1.64-1.87-.03-3.55.72-5.27,1.34-4.38.95-6.95,4.52-10.13,7.16-2.55,2.12-4.55,4.89-7.27,6.83-1.31.93-2.67,2.48-4.59,1.04-3.02.71-6.02,1.45-9.05,2.12-1.1.24-2.29.34-3.14-.63-.94-1.08-.15-2.09.27-3.12,2.07-5.14,5.75-8.55,10.97-10.42,1.73-.62,3.59-1.14,4.71-2.83Z" style="fill: #e9e7df; stroke-width: 0px;"/>
  <path d="M396.56,254.5c5.37-1.77,11-2.79,15.99-5.64.48-.27.95,0,1.27.44-3.02,6.47-7.37,12.1-11.33,17.97-3.11.16-6.03,1.07-8.87,2.28-1.64,1.25-3.46,1.75-5.51,1.28-2.12-1.54-.86-3.17.13-4.49,2.07-2.78,4.13-5.6,6.92-7.75,1.37-1.05,2.39-2.23,1.4-4.1Z" style="fill: #b1ae9f; stroke-width: 0px;"/>
  <path d="M4.81,255.31c1.28-1.34,2.35-.41,3.64.13,8.82,3.67,14.98,10.33,20.38,17.87.21.2.26.37.16.53-.09.15-.18.22-.26.22-4.09.3-7.87-1.7-11.94-1.53-4.23-5.58-8.81-10.91-11.99-17.22Z" style="fill: #b6b4a0; stroke-width: 0px;"/>
  <path d="M422.32,172.17c-2.51-.28-3.94,1.71-5.84,2.75-1.6.87-2.9,2.34-4.87,2.49-1.14-1.76.16-3.1.91-4.43,2.03-3.58,4.61-6.79,7.3-9.89,4.75-3.68,9.79-7.02,13.7-11.68.59-.71,1.24-.67,1.94-.21-4.28,7.05-8.37,14.23-13.15,20.97Z" style="fill: #b9b6aa; stroke-width: 0px;"/>
  <path d="M9.39,253.76c-3.07-.56-4.05-2.35-3.1-5.27.24-.24.48-.48.73-.71,4.69-3.26,8.98-7.03,13.53-10.47h0c1.09-.63,1.99-1.52,3-2.25h0c1.09-.62,1.98-1.52,3.01-2.24h0c1.09-.63,1.98-1.53,3.01-2.24h0c1.08-.65,2.01-1.51,2.99-2.29.76-.73,1.52-1.46,2.29-2.19.85.52.71,1.37.74,2.17-.2,1.55-1.43,2.28-2.52,3.08-3.22,2.36-6.27,4.94-9.46,7.33-2.91,2.18-5.61,4.62-7.08,8.06-1.42,3.33-5.16,4.26-7.1,7.03Z" style="fill: #d7cfca; stroke-width: 0px;"/>
  <path d="M1.78,163.19c.21-.11.56-.35.59-.32,5.96,7.18,13.74,12.81,18.2,21.28.23.17.3.34.22.51-.08.16-.16.25-.24.25-3.02-1.75-6.05-3.49-9.07-5.24-3.2-5.51-7.04-10.65-9.7-16.48Z" style="fill: #d7cfca; stroke-width: 0px;"/>
  <path d="M20.54,237.3c-4.04,4.1-8.14,8.12-13.53,10.47,4-4.15,8.41-7.77,13.53-10.47Z" style="fill: #dedcd0; stroke-width: 0px;"/>
  <path d="M122.42,432.82c-.01,3.78-.02,7.56-.04,11.34-1.05-3.78-1.16-7.56.04-11.34Z" style="fill: #d7d6c7; stroke-width: 0px;"/>
  <path d="M32.52,228.28c-.6,1.28-1.45,2.23-2.99,2.3.66-1.2,1.55-2.11,2.99-2.3Z" style="fill: #dedcd0; stroke-width: 0px;"/>
  <path d="M29.54,230.57c-.65,1.22-1.47,2.21-3.01,2.25.69-1.17,1.51-2.16,3.01-2.25Z" style="fill: #dedcd0; stroke-width: 0px;"/>
  <path d="M23.54,235.05c-.64,1.24-1.46,2.22-3,2.26.68-1.18,1.52-2.14,3-2.26Z" style="fill: #dedcd0; stroke-width: 0px;"/>
  <path d="M26.54,232.81c-.64,1.23-1.47,2.22-3.01,2.25.69-1.17,1.51-2.15,3.01-2.25Z" style="fill: #dedcd0; stroke-width: 0px;"/>
  <path d="M293.98,75.52c8.17,1.06,15.91,3.81,23.77,6.07,21.99,6.32,43.48,14.19,65.14,21.51,2.32.79,4.93.75,6.97,2.37-4.49.94-6.12,4.31-7.58,8.22-1.25,3.34-3.02,6.55-4.98,9.57-4.22,6.48-8.18,7.14-14.54,2.62-1.83-1.3-3.65-2.57-5.75-3.43-3.24-1.33-6.21-1.27-9.08,1.07-3.9,3.19-8.76,4.65-13.19,6.88-2.62,1.32-5.17.79-7.63-1.13-3.24-2.53-5.91-5.7-9.36-7.95-4.79-4.12-9.69-8.04-16.18-9.15-1.32-.54-2.64-.51-3.97-.04-3,.77-6.08,1.27-8.89,2.66-3.32,1.64-5.98,3.95-7.61,7.34-.35.42-.76.78-1.21,1.09-3.25,1.89-6.91,3.05-9.81,5.55-8.44,4.98-12.47,12.95-14.73,22.02-1.02,4.09-1.76,8.28-1.61,12.56.04,1.23.07,2.51-.75,3.58-2.16.73-4.18.3-6.13-.72-.6-.44-1-1.06-1.48-1.62-2.07-2.46-3.45-2.47-5.63.01-1.04,1.19-1.8,2.66-3.36,3.32-2.55.01-3.45-2.77-5.66-3.33-2.25-1.45-4.27-3.63-7.38-2.26-1.08.28-2.05.8-2.9,1.53-.48.43-.87.94-1.28,1.44-.33.51-.98.88-.99,1.52-.04,2.05-.55,3.73-2.98,3.84-2.58.12-4.23-1.33-4.89-3.66-.45-1.58-1.11-2.68-2.74-3.05-4.37-2.94-8.17-1.88-11.67,1.59-.88.87-1.8,1.71-3.05,2.07-2.6.34-5.18.72-7.24-1.57-.71-.79-1.62-.39-2.39.07-2.14,1.27-3.86.4-5.27-1.19-4.76-5.36-10.62-9.23-16.8-12.7-2.06-4.89-5.36-9.22-6.6-14.49,4.74,1.9,9.78,2.63,14.71,3.79,7.17,1.68,13.34,5.53,18.94,10.04,6.33,5.1,13.53,7.88,21.35,8.38,3.69.23,7.96-.62,10.95-3.8.5-.53,1.13-1.03,1.8-1.29,5.91-2.26,7.49-7.39,9.9-12.69,4.08-8.94,4.47-18.96,9.23-27.57.7-1.27,1.11-2.79,1.31-4.24.51-3.69,1.15-7.1,2.66-10.73,1.74-4.16,2.95-8.98,3.78-13.72.71-4.02,2.5-7.91,3.36-12,.38-1.79,1.78-2.83,3.86-2.89,5.61-.16,11.13.59,16.69,1.11,7.05.67,13.8,2.99,20.86,3.41Z" style="fill: #e2cee6; stroke-width: 0px;"/>
  <path d="M154.56,137.72c2.64,4.54,5.59,8.92,6.86,14.12.78.65,1.57,1.36,1.68,2.4.79,7.15,7.53,9.92,11.03,15.07.67.99,1.74.63,2.74.32,2.86-.86,3.99.72,4.13,3.23.3,5.13.12,10.16-1.86,15.08-2.1,5.21-.14,8.2,5.33,8.95,1.26.17,2.57.29,3.47-.81.99-1.21.26-2.41-.4-3.44-1.82-2.81-1.85-5.9-1.53-9.04.15-1.47.39-3.04,2.3-3.41,1.52.67,1.59,2.08,1.8,3.43.69,4.45,1.93,8.7,3.93,12.77,2.98,6.06-2.23,14.52-8.92,13.6-8.96-1.23-18.04-5.76-20.18-16.06,0-2.59.66-5.04,1.66-7.41.72-1.31,1.26-2.7,1.75-4.12,2.28-3.33,1.15-6.49-.7-9.43-2.05-3.27-4.21-6.44-5.72-10.03-.97-2.3-2.57-4.44-4.68-5.76-7.03-4.39-12.47-11.26-20.98-13.39-2.24-.56-3.05-3.66-5.38-3.78,2.66,2.13,5.71,4.18,9.16,5.66,5.28,2.28,8.1,6.83,10.21,11.91.54,1.29,1.1,2.75,0,3.88-1.28,1.33-2.57.16-3.67-.55-2.76-1.78-5.79-2.92-8.87-3.92-6.39-2.09-12.17-1.14-17.66,2.94-9.63,7.15-16.56,6.46-24.99-2.17-2.9-2.97-5.3-6.29-6.46-10.37-.19-.68-.28-1.52-1.24-1.73-.98.88-.69,2.08-.65,3.13.17,4.39-.35,8.71-1.15,13.01-.68,3.63.7,7.17.65,10.76-.05,3,.74,6.25-2.04,8.62-4.97-7.49-5-15.87-4.09-24.31.24-2.21.16-4.45.62-6.63.7-3.95,1.75-7.57,4.83-10.63,1.73-1.72,1.73-4.85,2.75-7.25.38-.9.32-1.99,1.24-2.64.75-.33,1.49-.66,2.24-.99,1.14,1.03.69,2.51,1,3.91,3.25-1.13,6.25-2.66,9.66-2.67.89,0,1.76-.21,2.66-.18.54.03,1.07.14,1.6.23,4.91,1.84,10.49.85,15.21,3.46-1-4.9-3.78-8.66-8.09-11.34-1.05-2.95,1.11-2.49,2.58-2.2,3.17.63,6.29,1.55,9.39,2.48,1.9,1.29,1.27,3.31,1.37,5.08.21,3.41,2.72,5.92,6.1,6.07,1.46.07,1.6-.85,1.63-1.89.06-1.82-.68-3.33-1.75-4.75-.93-1.24-2.29-2.45-.96-4.23.76.5,1.52,1.01,2.28,1.51,3.21-.16,4.3.86,5.13,5.07.41,2.04.28,4.26,2.18,5.72.96.74,2,2.08,3.17,1.45,1.38-.75.22-2.2.07-3.34-.26-1.97-2.36-3.68-.84-5.91,3.81,3.18,7.11,6.86,10.41,10.54Z" style="fill: #ca7ed3; stroke-width: 0px;"/>
  <path d="M168.87,182.62c.04,1.41-.27,2.69-1.38,3.66-.36,0-.82,0-1-.27-1.7-2.48-2.63-.67-3.66.63-4.99,1.98-9.42.5-13.79-2.02-2.26-1.3-4.55-2.56-6.86-3.78-4.72-2.48-7.26-2.18-11.05,1.61-3.1,3.1-6.33,5.91-10.38,7.76-2.27,1.04-4.13,2.77-5.82,4.61-2.12,2.29-4.54,3.09-7.31,1.34-1.56-.99-.68.42-.84.74-.49,1.02-1.38,1.44-2.4,1.53-1.74.15-2.98,1.13-4.17,2.25-.62.29-1.27.2-1.72-.24-3.77-3.64-8.26-6.66-10.34-11.78-.07-.26-.14-.52-.2-.79.36-1.69.49-3.4.59-5.11.12-2,.86-3.57,2.96-4.17,2.61.06,2.57,2.5,3.97,3.87-3.08-4.14-5.17-8.66-6.23-13.63-.36-1.68-1.09-3.33.1-4.97,1.65-.3,1.61,1.22,2.17,2.06,2.03,3.02,4.44,5.21,8.41,5.41,3.1.16,6.13,1.09,9.18,1.72,4.87,1.01,9.1.02,12.75-3.51,2.06-1.99,4.29-3.9,6.99-4.94,4.61-1.77,9.08-1.21,13.18,1.57,3.95,2.68,7.27,6.06,10.29,9.73,1.19,1.44,2.36,2.88,4.43,3.65.43-1.71-.55-3.17-.53-4.7,0-1.04.18-2.01,1.16-2.59,1.09-.65,1.96.01,2.67.68,1.57,1.47,3.34,2.32,5.38,3.09,2.68,1.01,3.21,3.89,3.47,6.57Z" style="fill: #aa4ab7; stroke-width: 0px;"/>
  <path d="M91.82,178.68c-1.77,1.37-2.72,3.03-2.38,5.4.2,1.45.28,3.05-1.5,3.81-1.75-1.96-2.97-4.21-3.75-6.71,1.81-4.55,1.14-9.27.61-13.88-.27-2.39-.43-4.58.08-6.95.96-4.39.81-8.9.84-13.38,0-1.12-.54-2.78,1.2-3.12,1.87-.36,2.17,1.24,2.52,2.57,1.91,7.19,6.6,12.11,12.88,15.66,5.53,3.12,10.93,2.52,15.55-1.65,8.85-7.98,17.89-6.56,28.57-.74,1.04.57,2.09,2.52,3.37,1.21,1.05-1.08-.38-2.5-.8-3.77-2.26-6.72-7.66-10.09-13.59-12.98-2.82-1.38-5.29-3.26-6.98-6.15,2.15,1.78,5.94.74,6.96,4.49.08.3.5.7.78.71,6.97.31,10.82,6.1,16.24,9.13,9.85,5.52,13.11,15.7,18.1,24.68,1.31,2.36-.41,3.95-1.66,5.61-1.22-.89-1.19-2.41-1.85-3.57-.67-1.17-.62-3.07-3.29-2.12-1.7.61-2.72-2.15-4.18-3.24-.56-.42-.97-1.35-1.82-.96-.96.43-.93,1.43-.73,2.29.39,1.69.99,3.34,1.28,5.04.21,1.22-.35,2.2-1.65,1.09-1.68-1.44-3.64-2.49-5.01-4.4-2.99-4.17-6.65-7.9-11.1-10.38-4.84-2.7-10.1-3.76-16.61,2.72-5.69,5.67-11.76,6.1-18.79,4.2-2.25-.61-4.64-.74-6.95-1.15-4.7-.82-7.06-4.11-8.59-8.24-.52-.29-.74-.78-.89-1.32-.17-2.11-.53-4.19-1.14-6.22-.12-.32-.2-.66-.26-1-.2-.55.2-1.19-.25-1.66.26,1.86.52,3.7.4,5.53-.42,6.17.34,12.05,3.87,17.34.41.61.65,1.33.49,2.11Z" style="fill: #b855c5; stroke-width: 0px;"/>
  <path d="M61.01,178.92c3.79-.79,1.79-3.23,1.2-4.91-3.42-9.59-6.66-19.27-10.61-28.64-3.46-8.18-2.7-17.12-5.53-25.35-1.56-4.55-3.02-9.13-4.53-13.69,1.06,1.22,2.09,2.19,3.98,2.27,3.03.13,4.73,1.95,5.67,4.97,5.51,17.7,11.2,35.34,16.77,53.02.78,2.48,1.27,5.05,1.85,7.58.51,2.22.15,4.85-1.66,5.69-2.13.98-5.07,1.67-7.13-.94Z" style="fill: #e2cee6; stroke-width: 0px;"/>
  <path d="M20.55,184.9c0-.25.01-.5.02-.76,9.15,3.62,18.61,5.93,28.43,6.72,1.09-.09,2.07.24,3.01.76-3.23,2.85-6.21,5.9-10.19,7.94-3.26,1.68-1.91,5.37-1.46,8.17.79,4.94,2.97,9.49,5.04,13.98,5.2,11.29,10.7,22.44,16,33.68.9,1.92,3.06,4.79,1.17,5.92-1.64.98-2.77-2.53-3.75-4.2-3.58-6.11-7.02-12.31-10.29-18.6-6.26-12.04-12.31-24.2-18.55-36.25-3.03-5.85-6.28-11.59-9.43-17.38Z" style="fill: #e2cee6; stroke-width: 0px;"/>
  <path d="M88.14,188.68c3.77,4.14,7.31,8.51,11.84,11.9,5.03,2.78,9.35,6.69,14.56,9.18.61.42,1.2.85,1.63,1.47,1.32,3.28,2.71,6.53,4.34,9.68.6,1.17,1.34,2.39.59,3.8-1.85,1.33-4.33.65-6.19,1.96-1.74,1.01-2.89,2.7-4.46,3.91-1.35.89-2.78,1.08-4.3.48-4.41-5.92-9.43-11.48-11.57-18.8-.16-.54.08-.45-.47-.12-1.98,1.17-2.41-.5-2.8-1.97.43-2.78-1.01-5.23-1.38-7.87-.22-1.55-.88-3.07-.41-4.68l-1.38-8.94Z" style="fill: #79a972; stroke-width: 0px;"/>
  <path d="M89.52,129.71c-1.18,4.28-1.3,8.77-5.01,12.3-2.04,1.94-2.59,5.43-3.81,8.23-1.36-5.99-3-11.9-4.14-17.94-.35-1.87-.31-3.68-.38-5.5-.13-3.1,1.25-3.94,4.23-2.73,3.35,1.36,6.22,3.53,9.12,5.64Z" style="fill: #5fa550; stroke-width: 0px;"/>
  <path d="M89.51,197.61c1.04,4.22,3.22,8.24,2.25,12.81-3.78-1.62-5.59-5.43-8.69-7.8-2.72-3.3-6.41-5.44-9.67-8.1-.3-.45-.43-.94-.38-1.48-1.35-6.76-6.66-11.16-13.46-11.09-2.37.02-3.29,1.41-3.09,3.66-1.17-3.56-.69-4.33,2.65-4.48,2.93-.13,5.71,1.15,8.81.43,1.35-.31,2.7,1.91,3.61,3.41,3.62,6.02,9.68,9.01,15.43,12.37.67.39,1.69.19,2.55.27Z" style="fill: #e2cee6; stroke-width: 0px;"/>
  <path d="M125.46,122.69c-3.32.66-6.01-1.62-9.11-1.97-.85-.1-2.73-1.47-2.11,1.2-.01.65-.3,1.55-.81,1.47-4.74-.71-6.41,3.1-8.81,5.83-.48.55-1.03,1.04-1.57,1.54-3.91.19-7.47,1.54-11.29,3.65,0-2.11,0-3.9,0-5.69,2.87-3.84,6.79-5.86,11.43-6.81,2.71-.56,5.47-.72,8.05-2.23,3.24-1.9,6.8.36,10.24.11,1.4.86,4.4-.46,3.98,2.9Z" style="fill: #8d24a2; stroke-width: 0px;"/>
  <path d="M125.46,122.69c-.15-2.58-2.81-1.71-3.98-2.9,2.09-.33,4.09.51,6.38-.5,1.81-.79,3.09,1.89,4.3,3.4-.19,1.53.62,2.58,1.65,3.56,1.01.96,1.84,2.14,1.96,3.52.14,1.67.93,3.77-.6,4.92-1.24.94-2.73-.59-4.13-.88-4.05-.85-5.47-3.25-4.9-7.24.18-1.27.5-2.76-.67-3.88Z" style="fill: #e2cee6; stroke-width: 0px;"/>
  <path d="M144.15,127.18c.81,2.83,1.72,5.64,2.38,8.5.53,2.31-.44,3.05-2.6,1.91-2.81-1.49-5.14-3.13-5.13-6.96,0-2.82-.66-5.83-4.36-6.43.89-3.82,2.77-3.07,5.17-1.29,1.71,1.26,3.4,2.45,4.54,4.28Z" style="fill: #e2cee6; stroke-width: 0px;"/>
  <path d="M45.99,93.3c-.11,1.81-1.42,2.3-2.8,2.35-1.35.05-3-.22-2.96-2,.04-1.8,1.38-2.99,3.17-3.01,1.52-.01,2.33,1.19,2.59,2.65Z" style="fill: #fdfdfd; stroke-width: 0px;"/>
  <path d="M209.33,484.45c1.42-1.34.56-3.06.73-4.6.1-.91.17-1.7,1.1-2.17,1.08-.54,1.59.27,2.22.83.75.66,1.4,1.47,2.23,1.97,1.12.67,2.6,1.81,2.7-.89.07-1.94,1.14-1.86,2.55-1.32,12.86,4.99,26.26,6.12,39.9,5.54,1.24-.05,2.9-.57,3.29,1.48-.41,6.06-3.41,11.03-6.83,15.77-.61.84-1.74,1.47-2.96.7-10.49-3.15-19.91-8.55-29.98-14.79.92,3.21,2.5,5.1,4.09,6.07,5.05,3.06,6.92,8.55,10.58,12.64,1.24,1.38.98,2.96-.16,4.4-2.89,3.62-6.17,6.73-10.74,8.15-.11-2.42,2.12-2.83,3.48-3.93,3.78-3.05,4.17-4.87,1.29-8.79-3.6-4.91-7.12-9.92-11.25-14.41-1.72-1.87-3.72-4.5-6.51-3.33-2.49,1.05-1.68,4.13-1.74,6.43-.15,5.5.35,10.96,2.19,16.17,1.51,4.27,3.65,8.02,9.08,7.9.5-.01.92.33,1.25.73-1.59,1.44-3.52.5-5.29.75-5.64-2.32-7.52-7.43-8.72-12.64-1.65-7.12-1.86-14.47-2.49-21.74-.2-.2-.27-.4-.2-.61.07-.2.13-.3.2-.3Z" style="fill: #cdcbb8; stroke-width: 0px;"/>
  <path d="M209.33,484.45c0,.3,0,.61,0,.91-1.06-.08-2.07-.04-2.17,1.37-.21,2.84-.86,5.75-.49,8.52,1.07,8.04-.05,15.84-1.83,23.6-1.52,6.64-4.37,9.1-11.05,8.27-6.59-.82-13.67-1.66-17.57-8.1-3.69-6.09-8.49-11.31-12.5-17.13-.8-1.16-1.47-2.34-3.12-2.28,1.08-2.83,3.17-3.7,6.02-3.09,6.59-1.93,12.5-5.34,18.57-8.42,1.31-.67,2.61-1.36,4.35-2.28-.16,3.26-2.18,5.1-3.41,7.21-2.07,3.54-4.51,6.86-6.77,10.28-4.61,6.96-2.96,11.38,5.26,14.19,1.46-.63,2.61.36,3.87.74,4.63,1.4,7.5.43,10.25-3.56,2.1-3.04,2.78-6.57,3.51-10.09.32-1.55.22-3.26,1.78-4.3,1.35-4.4,1.17-8.98,1.48-13.48.21-2.94.69-5.76,1.26-9.08,2.47,2.02,1.51,4.75,2.55,6.72Z" style="fill: #a685a8; stroke-width: 0px;"/>
  <path d="M166.62,496.51c-2.22.62-4.28,1.55-6.02,3.09-1.52,1.23-3.15,2.19-5.19,2.14-3.91,1.72-5.98-.52-7.69-3.57-1.88-3.35-4-6.55-5.13-10.32-.72-2.39-.64-3.35,2.24-3.36,6.33-.02,12.64.16,18.99-.54,4.69-.51,9.32-1.19,13.95-2,.49-.08.96-.33,1.44-.34,1.21-.02,2.69-.52,3.41.82.82,1.53-.73,2.28-1.58,2.96-4.75,3.77-9.6,7.42-14.42,11.1Z" style="fill: #cdcbba; stroke-width: 0px;"/>
  <path d="M380.08,56.05c-.22-3.01.83-4.18,3.9-2.91,7.17,2.97,12.68,8.09,17.61,13.82,2.31,2.68,4.75,5.36,6.31,8.65,2.93,6.18,3.85,6.02-2.32,10.44-4.33-3.15-6.52-8.08-9.98-11.97-5.28-5.92-10.36-12.01-15.53-18.03Z" style="fill: #fdfdfd; stroke-width: 0px;"/>
  <path d="M225.83,518.99c-7.43,0-11.47-4.21-12.71-13.33-.6-4.44-1.01-8.89-.81-13.38.1-2.25-.09-4.99,2.15-5.93,2.36-.99,4.51.89,6.25,2.5,4.22,3.91,7.4,8.7,10.82,13.26,6.32,8.45,6.21,8.64-2.54,14.97-.39.28-.64.75-.95,1.13-.74.26-1.48.52-2.22.78Z" style="fill: #d8d7c8; stroke-width: 0px;"/>
  <path d="M264.77,483.79c0-.49,0-.99,0-1.48,4.15-.23,6.8-2.12,7.27-6.48.82-7.76,1.67-15.52,2.47-23.29.52-5.05.97-10.11,1.47-15.16.14-1.45.1-3.64,1.93-3.44,1.95.22,1.04,2.47,1.04,3.79,0,13.04.67,26.08-.46,39.11-.08.87.51,1.34,1.23,1.67-1.3,2.61-3.7,3.37-6.32,3.82-2.01.34-4.17.4-5.6,2.24-.98-.38-2.09-.25-3.04-.77Z" style="fill: #a2a089; stroke-width: 0px;"/>
  <path d="M264.77,483.79c1.2-.48,2.57-1.66,3.04.77-1,6.18-4.71,11.2-7.34,16.66-1.45,3.01-3.98,2.08-6.21.54,2.31-.29,3.34-2.07,4.18-3.86,1.95-4.17,3.76-8.4,5.62-12.6.58-.34.7-.9.72-1.5Z" style="fill: #93907a; stroke-width: 0px;"/>
  <path d="M28.74,274.06c.03-.25.07-.5.1-.75,2.8,1.45,5.76,2.31,8.94,2.22,3.74-.29,7.36.32,10.96,1.3,7.18,1.95,14.64,1.82,21.95,2.81,1.95.26,3.97.02,5.77,1.07,2.58,1.73,2.73,4.78,3.92,7.26,3.36,8.83,6.92,17.57,11.08,26.06,6.49,12.03,14.86,22.76,23.19,33.52,1.57,2.03,3.17,2.63,5.39,1.03.9-.65,2-1.02,2.86-1.76,2.39-1.7,5.34-2.26,7.79-3.84,4.07-2.01,8.14-4.03,12.18-6.11,2.48-1.28,5.01-1.97,7.8-1.43,4.06,1.66,5.89,5.43,8.25,8.7,3.25,4.78,6.47,9.58,9.74,14.35,10.13,15.4,20.23,30.82,29.03,47.6,1.48-2.62,2.44-4.9,3.54-7.1,1.18-1.95,1.86-4.13,2.91-6.14,1.17-2.36,2.5-4.63,3.85-6.89,7.33-12.72,15.57-24.87,23.73-37.06.76-1.14,1.56-2.25,2.69-3.07,3.95-4.33,8.24-3.88,13.07-1.4,8.16,4.2,16.62,7.81,25.01,11.54,1.22.54,2.6.97,3,2.53-7.51,11.64-13.6,24.06-19.54,36.54-6,12.59-11.53,25.41-16.17,38.58-2.37,3.69-5.87,6.35-9.1,9.12-5.85,5.01-10.51,11.13-16.13,16.32-1.71,1.69-3.52,2.72-5.8.95-.09-.07-.25-.12-.35-.1-6.46,1.38-9.48-3.56-13.28-7.15-12.2-11.54-24.85-22.5-40.18-29.81-5.29-2.52-10.83-4.3-16.79-4.34-1.24-4.52-5.03-7.28-7.62-10.85-6.55-9.03-13.45-17.82-20.16-26.74-11.33-15.06-22.47-30.27-34.19-45.04-8.94-11.27-17.56-22.79-26.4-34.14-6.17-7.92-12.43-15.77-18.72-23.6-1.03-1.29-2.04-2.5-2.33-4.17Z" style="fill: #d1b7d6; stroke-width: 0px;"/>
  <path d="M387.6,270.27c2.01-.24,4.01-.48,6.02-.72-.73,5.47-4.73,9.23-7.44,13.59-15.25,24.6-31.07,48.85-46.12,73.57-12.72,20.91-25.48,41.81-36.81,63.54-1.38,2.65-2.94,5.2-4.24,7.88-1.17,2.41-.84,4.17,2.43,4.02.37,4.56-3.03,6.63-6.13,8.51-3.9,2.37-7.86,4.68-12.14,6.42-2.49,1.01-2.76.09-2.71-1.97.15-6.68-.39-13.29-2.16-19.76-.1-.47-.2-.94-.3-1.41-2.02-2.11-3.43-4.96-6.73-5.52-3.67-1.49-3.91-2.26-.74-4.46,6.1-4.24,10.37-10.05,14.39-16.07,15.51-23.25,29.98-47.19,45.86-70.19,11.91-17.25,23.14-34.96,35.59-51.84,1.24-1.69,2.32-3.6,4.5-4.35,4.82-1.17,9.78-1.33,14.67-1.94.76-.1,1.45.23,2.04.72Z" style="fill: #96729f; stroke-width: 0px;"/>
  <path d="M260.09,420.03c-4.31,1.65-8.14,4.13-11.8,6.88-.36.19-.69.13-1-.13-.84-1.59-.07-2.94.76-4.18,7.01-10.56,10.87-22.66,16.53-33.88,4.77-9.44,8.56-19.36,14.14-28.42,2.47-4.02,4.99-7.26,10.33-4.91.38.08.67.29.88.61.89,2.09-.09,3.88-.94,5.69-3.57,7.57-8.66,14.27-12.44,21.73-4.74,9.34-8.94,18.93-13.35,28.42-1.06,2.27-.14,4.4-.28,6.59-.51,1.3-1.86,1.13-2.84,1.61Z" style="fill: #9e74a5; stroke-width: 0px;"/>
  <path d="M127.61,424.63c6.25-6.15,15.87-3.62,21.09-.2,1.89,1.24,2.76,2.94,2.43,5.7-.44,3.74.66,7.43,4.45,9.56,3.36,1.89,6.69,3.84,10.04,5.75.86.49,1.71.94,2.21,2.55-12.75-4.55-25.69-7.3-37-14.37-2.27-1.42-4.15-3.2-4.64-6.02.54-.96.7-2.1,1.42-2.96Z" style="fill: #ada88f; stroke-width: 0px;"/>
  <path d="M214.55,459.05c3.98-5.87,8.83-10.95,14.1-15.66,3.6-3.21,7.1-6.53,10.64-9.8.39-1.3,1.19-2,2.61-1.8.13.1.26.21.39.32-6.09,6.21-12.1,12.5-18.3,18.59-2.99,2.94-5.42,6.57-9.45,8.36Z" style="fill: #d7d2cc; stroke-width: 0px;"/>
  <path d="M260.09,420.03l2.37-1.46c2.8-3.08,6.07-.97,9.16-.81,3.68.45,5.46,2.88,6.39,6.17-2.77,1.48-5.02,1.91-6.1-2.08-.82-3.04-3.52-2.92-6.02-2.71-1.95.17-3.76,1.28-5.8.89Z" style="fill: #d7d2cc; stroke-width: 0px;"/>
  <path d="M212.34,465.07c-.51,2.09,1.45,5.1-2.24,6,.32-2.16-1.83-5.24,2.24-6Z" style="fill: #cdcbb8; stroke-width: 0px;"/>
  <path d="M246.04,429.1c-.94,1.38-1.85,2.8-3.74,3,0,0-.1-.12-.1-.12.19-2.08,1.34-3.13,3.42-3.19.14.11.28.21.42.32Z" style="fill: #d7d2cc; stroke-width: 0px;"/>
  <path d="M127.61,424.63c-.03,1.2-.49,2.2-1.42,2.96-.08-1.25.1-2.38,1.42-2.96Z" style="fill: #d1b7d6; stroke-width: 0px;"/>
  <path d="M247.52,427.01c.25-.03.51-.07.76-.1-.09,1.41-.85,2.12-2.24,2.19,0,0-.08-.1-.08-.1-.14-1.18.49-1.76,1.56-2Z" style="fill: #d7d2cc; stroke-width: 0px;"/>
  <path d="M317.84,120.53c4.04,1.57,6.44,5.22,9.63,7.84,2.94,2.41,5.58,2.2,8.17.67,4.47-2.63,9.46-4.21,13.62-7.57,3.2-2.58,6.87-.58,10.17,1,3.29,1.58,5.64,4.63,9.74,5.11,2.57.31,4.03-.22,5.37-2.06,3.52-4.81,6.14-10.11,8.23-15.65,1.28-3.39,3.41-5.06,7.1-4.41,3.86.92,7.72,1.82,11.57,2.76,2.58.63,4.54.19,5.95-2.4,1.84-3.39,4.38-6.05,8.6-6.32-2.55,1.74-5.08,3.49-6.42,6.43-1.23,2.69-.48,4.21,2.45,3.88,2.97-.34,2.58.9,1.81,2.65-1.5,3.39-3.06,6.75-4.6,10.13.28,1.42-.12,2.71-.74,3.97-7.5,15.36-14.55,30.95-22.02,46.32-.66,1.36-1.39,2.65-2.5,3.7l-7.55,2.31c-2.3,1.76-2.84,3.73-1.42,6.48,2.52,4.88,2.01,9.94,0,14.86-4.99,12.18-11.78,23.36-19.35,34.06-5.27,7.45-10.7,14.79-12.99,23.81-1.93,7.57-4.33,14.97-5.33,22.84-1.14,8.99-5.9,16.88-10.35,24.7-6.62,11.64-15.99,20.96-25.71,29.96-.56.52-1.19.91-2.02.73-.89-1.08-.34-2.18-.06-3.28,3.44-6.21,7.66-11.95,10.89-18.29,6.29-12.33,12.4-24.74,18.41-37.2,1.98-3.43,2.95-7.38,5.43-10.56.36-.42.77-.79,1.2-1.14,2.02-1.44,2.13-3.82,2.78-5.89,1.26-4.01,2.27-8.09,4.16-11.88,4.58-13.11,13.56-23.74,20.1-35.75,3.11-5.72,5.74-11.61,6.78-18.1.67-4.21-.37-7.66-4.29-9.85-4.37-2.44-6.03-6.46-6.41-11.15-.37-4.53.37-8.94,1.82-13.24,1.23-3.66,2.47-7.31,3.3-11.1.68-3.12.12-5.68-2.65-7.52-2.95-1.96-4.4-4.66-4.05-8.25-.1-2.36.35-4.75-.53-7.05-.99-1.61-2.4-1.65-3.85-.86-6.71,3.64-12.05,8.95-17.25,14.41-.97,1.02-.53,2.34-.57,3.55-.06.89-.35,1.71-.87,2.43-.45.62-1.04,1.25-1.83,1.03-.84-.24-.71-1.15-.88-1.87-1.1-4.71-2.33-9.36-5.66-13.1-3.27-3.18-6.78-6.2-7.35-11.16Z" style="fill: #d1b3d6; stroke-width: 0px;"/>
  <path d="M299.18,336.19c16.41-14.38,29.83-30.85,36.57-52.04.77-2.43.55-4.95,1.05-7.33,2.24-10.55,5.06-20.97,9.82-30.68,2.11-4.31,5.2-8.16,8.02-12.1,7.64-10.65,14.36-21.81,19.39-33.93,2.15-5.19,2.38-10.31-.34-15.46-1.92-3.63-1.47-4.37,2.71-5.74.08.61-.06,1.58.27,1.78,4.2,2.57,1.67,7.51,3.83,10.86.47.73-.55,2.57-1.12,3.79-5.19,11.06-11.38,21.57-17.82,31.92-5.06,8.13-10.5,16.02-15.37,24.25-2.49,4.21-4.34,8.81-3.73,14.07.2,1.71-.83,3.59-1.39,5.37-.8,2.57-1.76,4.82-.17,7.76,1.24,2.28-.93,4.96-1.69,7.42-.63,2.02-1.44,3.97-2.18,5.95-.23.6-.46,1.27.11,1.72.57.45,1.26.08,1.7-.3,1.69-1.46,3.47-2.86,4.94-4.53,4.48-5.12,8.71-10.47,13.88-14.95,2.46.01,4.1-1.57,5.69-3.1,3.74-3.6,7.28-7.4,11.38-10.63,1.4-1.1,2.74-2.13,4.63-1.96.44,1.34-.5,2.13-1.27,2.88-2.32,2.27-4.38,4.78-6.47,7.25-2.26,2.66-4.49,5.27-8.24,6.06-1.86.39-2.98,2.17-4.1,3.68-12.93,17.42-26.46,34.4-38.86,52.19-6.49,9.3-12.57,18.89-18.87,28.33-1.51,2.27-2.91,4.71-5.18,6.33-2.5,1.78-4.12,1.11-4.78-1.84-.57-2.54-.83-5.17-2.06-7.53l-.05.04c-1.25-.61-1.53-1.67-1.39-2.93,2.37-5.5,6.04-10.23,9.07-15.35.42-.7.96-1.51,2.05-1.26Z" style="fill: #d6bdda; stroke-width: 0px;"/>
  <path d="M383.94,176.6c2.55-7.02,6.19-13.54,9.33-20.29,5.24-11.27,10.62-22.47,15.93-33.71,1.16,3.01,2.77,5.67,5.18,7.91,1.7,1.58,1.05,3.68.32,5.58-3.53,9.27-7.06,18.55-10.62,27.81-.71,1.86-1.56,3.66-1.55,5.71-6.09,2.63-12.18,5.25-18.6,6.99Z" style="fill: #9b61a8; stroke-width: 0px;"/>
  <path d="M419.82,163.09c-.11,3.07-2.95,4.47-4.25,6.82-1.37,2.48-3.45,4.56-3.95,7.5-3.34,3.28-7.8,4.34-11.94,6.04-1.57.64-1.56-.43-1.63-1.45,4.95-8.95,12.65-14.75,21.77-18.91Z" style="fill: #9d9986; stroke-width: 0px;"/>
  <path d="M405.61,250.01c-2.55,1.44-5.28,2.22-8.22,2.16-.83-.72-1.09-1.72-.98-2.7.52-4.3-1.47-7.67-3.92-10.87-2.19-2.87-3.41-5.99-2.7-9.67,1.49-3.98,4.18-7.29,6.08-11.04.8-1.58,1.7-1.23,2.5-.14,4.81,6.54,8.97,13.42,10.2,21.64.35,2.3-.66,4.38-1.59,6.42-.61,1.35-1.55,2.58-1.36,4.19Z" style="fill: #967682; stroke-width: 0px;"/>
  <path d="M389.78,228.94c.61,5.37,3.76,9.51,6.62,13.81,1.95,2.94.52,6.3.99,9.43-7.35,2.01-14.97,2.53-22.41,4.03-1.46-.79-.47-1.75-.04-2.48,4.92-8.28,9.89-16.53,14.85-24.79Z" style="fill: #7c438b; stroke-width: 0px;"/>
  <path d="M11.55,168.41c-9.27-5.07-10.67-14.24-3.29-21.78,3.81-3.89,8.11-7.38,9.61-13.01.26-.96,1.38-1.71,2.16-2.51,6.17-6.3,12.35-12.6,18.53-18.89,2.3,4.55,3.38,9.53,5.06,14.29.66,1.86-.4,3.15-1.91,4.39-9.15,7.56-18.5,14.95-25.36,24.86-2.64,3.81-4.65,7.89-4.81,12.65Z" style="fill: #d7cfca; stroke-width: 0px;"/>
  <path d="M72.19,266.52c-.51-5.85-1.69-11.51-4.26-16.85-3.29-6.85-6.96-13.5-9.94-20.51-3.48-8.17-4.25-16.04,1.32-23.62,2.04-2.77,2.83-6.04,4.02-9.17,1.04-2.74,2.75-4.52,5.92-2.48.83,11.3,3.78,22.29,4.92,33.56,1.03,10.21.67,20.43.65,30.64,0,3.35,1.2,6.66.29,10.03-2.17,1.66-2.55.04-2.92-1.6Z" style="fill: #bd9cc4; stroke-width: 0px;"/>
  <path d="M9.39,253.76c-.16-1.2.02-2.36,1.25-2.82,3.33-1.25,4.59-4.19,6.32-6.95,3.03-4.81,8.21-7.41,12.4-11.04,1.95-1.69,4.12-3.14,6.19-4.7.43.21,1.08.31,1.26.65,2.87,5.52,5.67,11.08,8.5,16.63-1.16,2.73-3.86,3.82-6.04,5.37-3.21,2.29-5.69,5.68-9.76,6.71-6.81-.76-13.42-2.5-20.11-3.85Z" style="fill: #b4a29e; stroke-width: 0px;"/>
  <path d="M74.27,268.72c-1.32-12.72-.03-25.49-1.13-38.25-.87-10.13-2.97-20.01-4.55-29.99-.36-2.26.01-4.44.66-6.59,1.13-.86,2.45-.82,3.77-.85.18.3.36.61.54.91,1.87,8.11,3.46,16.28,4.59,24.53,1.85,13.53,1.53,27.09.64,40.66-.53,8.03.67,15.91,1.98,23.78.31,1.85,1.32,3.97-1.06,5.34-1.06-2.26-2.13-4.51-3.19-6.77-2.04-4.04-3.69-8.14-2.24-12.79Z" style="fill: #93bf8c; stroke-width: 0px;"/>
  <path d="M74.27,268.72c.04,4.39,1.81,8.47,2.24,12.79-6.01-.74-12.06-1.28-18.02-2.29-6.91-1.16-13.95-1.65-20.7-3.69.8-.52,2.24-.69,2.09-1.86-.6-4.66,1.57-1.96,3.04-1.22,3.09,1.57,5.87,3.72,9.27,4.75,2.03.62,4.27,1.19,5.4-.81,1.3-2.28.28-4.71-1.75-6.29-2.35-1.82-4.91-3.35-7.39-4.99-1.46-.97-2.99-1.86-3.15-3.88,3.56-1.56,6.7-.44,9.7,1.52,5.73,1.25,11.46,2.5,17.2,3.75.69.73,1.39,1.46,2.08,2.19Z" style="fill: #d7cfca; stroke-width: 0px;"/>
  <path d="M54.99,262.77c-3.27-.3-6.37-1.63-9.7-1.52-5.26-1.21-10.53-2.42-15.79-3.64,5.11-4.23,10.31-8.35,15.8-12.08,3.34,5.68,7.83,10.72,9.7,17.23Z" style="fill: #b382bd; stroke-width: 0px;"/>
  <path d="M204.03,500.29c-.69,3.26-1.17,6.58-2.13,9.76-2.68,8.86-8.02,12.84-17.29,7.45-.38-1.04-1.39-1.37-2.18-1.95-2.69-1.96-3.08-4.47-1.44-7.2,4.85-8.11,9.8-16.15,14.68-24.24,1.25-2.07,3.13-3.53,4.75-5.25.96-1.02,2.16-1.3,3.42-.86,1.47.51,1.04,1.91.92,2.91-.76,6.45-.64,12.92-.72,19.39Z" style="fill: #d7d6c7; stroke-width: 0px;"/>
  <path d="M289.5,355.69c2.63,1.77,2.63,4.72,2.89,7.33.3,3.13,1.78,2.54,3.4,1.43,1.97-1.36,3.09-3.52,4.42-5.45,9.46-13.69,18.11-27.93,28.1-41.25,10.19-13.59,20.37-27.19,30.62-40.73,1.48-1.96,3.17-3.87,5.99-4.02,2.31-.12,3.19-2.1,4.49-3.56,3.29-3.72,6.63-7.39,9.95-11.08,1.66-.88,3.27-1.94,5.3-1.42.1.37.12.82-.15,1.04-5.2,4.35-9.11,9.93-13.97,14.6-4.65,4.22-7.71,9.68-11.18,14.76-15.52,22.68-30.9,45.47-46.12,68.36-8.75,13.15-17.06,26.58-25.65,39.84-5.07,7.83-10.19,15.67-18.64,20.48.47,1.64,2.24.63,2.68,1.76-3.05.26-6.17-.24-9.16.81-2.83-5.27,1.09-9.28,2.88-13.43,5.75-13.29,11.97-26.37,20.01-38.51,2.12-3.21,4.52-6.63,4.16-10.94Z" style="fill: #cbaed0; stroke-width: 0px;"/>
  <path d="M370.53,272.56c3.67-6.15,8.67-11.1,14.12-15.64,2.72-.55,5.45-1.11,8.17-1.66,1.14-.82,2.66.25,3.76-.75,0,0-.02,0-.02,0,3.74.98,1.44,2.92.27,3.79-2.51,1.88-4.34,4.32-6.38,6.59-1.37,1.53-2.91,3.06-2.85,5.39-5.69.76-11.38,1.53-17.07,2.29Z" style="fill: #93917b; stroke-width: 0px;"/>
  <path d="M396.58,254.51c-1.04,1.31-2.47.69-3.76.75,1.09-1.06,2.48-.65,3.76-.75Z" style="fill: #b1ae9f; stroke-width: 0px;"/>
  <path d="M222.83,161.65c3.51-2,5.78.37,8.17,2.32,3.06,2.16,5.31,5.05,7.01,8.31.91,1.74,2.05,2.61,3.98,2.47,4.7,4.14,6.39,9.76,7.74,15.57.25,1.17.32,2.34-.05,3.51-.42,1.2-1.55,1.54-2.53,2.06-1.19.63-1.89,1.54-1.91,2.96-.09,9.29-2.97,17.89-6.99,26.09-4.2,8.57-9.96,16.14-16.75,22.81-4.03,3.95-8.93,5.88-14.83,6.9-8.12,1.4-14.62-1.48-21.42-4.5-5.38-3.44-8.87-8.39-11.28-14.19-.34-.81-.54-1.64-.05-2.48,2.08-1.4,3.81-.21,5.51.81,4.94,2.96,10.26,5.09,15.58,7.2,4,1.58,5.1,1.16,7.37-2.39.69-1.08,1.37-2.36,2.86-1.72,2.47,1.05,3.73-.52,5.03-2.05,3.92-4.61,6.64-9.97,8.85-15.52,3.51-8.79,6.75-17.67,11.53-25.89,1.14-1.95,1.26-4.29,2-6.4.62-1.77,1.6-3.36,2.65-4.91.7-1.03,2.79-.6,2.64-2.23-.15-1.69-1.69-2.68-2.78-3.86-3.97-3.87-7.52-8.17-12.09-11.41-1.38-.97-2.19-2.15-.26-3.45Z" style="fill: #9230a3; stroke-width: 0px;"/>
  <path d="M252.71,166.83c-.18-9.66,1.13-19,6.02-27.55,2.74-4.8,5.96-9.13,11.29-11.35,2.18-1.12,4.37-2.23,6.77-2.79,1.42-.33,2.49-.97,2.93-2.42.32-.28.64-.56.96-.84,1.8-1.31,3.6-2.61,5.28-4.07,4.22-3.66,5.66-3.36,8.32,1.67-1.19,3.87-4.16,6.4-7.05,9.34,6.31,1.74,12.3,3.9,15.34,10.32-.37,1.58-1.51.53-2.32.63,2.97,3.91,2.94,4.1-1.27,6.69-2.11,1.3-4.2,2.65-6.41,3.79-3.02,1.56-5.56,3.57-7.73,6.26-4.13,5.11-7.62,4.27-10.56-1.68-2.43-4.9-1.11-9.4.18-14.07.5-1.83,1.52-3.45,2.13-5.22-1.11,2.68-3.07,4.63-5.32,6.35-2.04,1.89-4.1,3.75-5.6,6.14-3.29,3.68-6.83,7.18-9.17,11.59-1.28,2.41-2.08,4.99-2.08,7.81,0,1.19.46,2.84-1.45,3.32-1.32-1.23-1.33-2.54-.27-3.92Z" style="fill: #d295d9; stroke-width: 0px;"/>
  <path d="M222.83,161.65c-1.26,1.79.35,2.34,1.36,3.11,4.28,3.24,8.01,7.03,11.44,11.14-1.62,2.64-3.6,4.67-6.99,4.82-2.02.09-3.33,1.56-4.52,3.02-2.92,3.58-6.03,6.87-10.17,9.16-2.28,1.26-3.96,3.38-5.18,5.76-.51,1-.99,2.01-1.56,2.97-4.04,6.98-7.14,5.78-10.96.11-4.1-6.08-5.36-13.54-6.85-20.72-.38-1.85,1.27-2.87,1.8-4.35,1.52-2.51,3.89-3.51,6.65-4.24,4.89-1.29,8.6-4.1,9.95-9.3,1.72.52,3.43.58,3.26,3.43-.12,1.99,1.83,3.37,4.16,3.31,2.2-.06,2.2-1.26,1.77-3.03-.35-1.43,1.24-1.6,2.06-2.24,2.32,4.09,5.16,7.78,8.68,10.81-1.08-3.31-3.94-5.54-5.92-8.36-.83-1.18-2.17-2.09-2.15-3.77,1.1-.45,1.76-1.77,3.16-1.64Z" style="fill: #cb80d3; stroke-width: 0px;"/>
  <path d="M188.31,180.38c-2.36,3.85-2.16,7.73.01,11.55.86,1.51,2.37,3.11,1.03,4.72-1.28,1.54-3.24,1.74-5.42,1.17-6.72-1.74-8.39-4.46-5.6-10.71,2.14-4.78,1.8-9.71,1.72-14.65-.04-2.29-1.35-3.42-3.33-1.65-1.57,1.41-2.36.64-3.29-.49-.94-1.15-1.7-2.49-2.8-3.46-4.6-4.09-8.69-8.44-9.22-15.01,6.68,2.49,12,6.88,16.77,12.03,1.65,1.78,3.21,3.33,5.44.73.5-.59,1.66-.96,1.95-.3,1.59,3.57,4.78,2.27,7.41,2.66.09.7-.27,1.13-.82,1.49-1.18.77-3.33-.63-3.8,1.36-.52,2.23-.93,4.57-.15,6.88.31.92.82,1.79.65,2.82-.1.35-.29.65-.57.88Z" style="fill: #ce8ad6; stroke-width: 0px;"/>
  <path d="M293.81,119.55c-3.8-4.25-3.77-4.22-8.11-.36-1.44,1.28-2.7,3-5.01,2.69,1.77-5.98,6.94-7.75,12-9.55,1.6-.57,3.36-.65,5.05-.96,1.24-.38,2.48-.41,3.72.02,6.63.95,11.78,4.56,16.38,9.15,1.79,4.01,4.26,7.52,7.61,10.39.59,1.08,1.55,1.92,2.05,3.09.56,1.32.36,2.15-1.17,2.39-2.21-2.51-4.22-5.18-6.72-7.43-1.23-1.1-2.41-2.19-4.24-1.9-.54.03-1.06-.01-1.58-.14-4.74-1.44-9.35-3.38-14.45-3.35-.92,0-2.22-.05-2.3-1.34-.07-1.16,1.04-1.6,1.99-1.91,1.98-.65,4-1.05,6.1-.74-3.76-.67-7.49-2.8-11.3-.04Z" style="fill: #801f95; stroke-width: 0px;"/>
  <path d="M188.45,179.51c-2.63-3.26-1.08-7.09-1.31-10.64-.12-1.83,1.82-1.19,2.89-1.13,1.13.06,2.37,1.07,2.96-.78,1.02-.91,2.03-1.84,3.07-2.72,4.51-3.83,6.47-4.01,11.75-1.1.13.92,2.17,1.43.64,2.69-3.67,3.01-6.15,7.74-11.83,7.9-1.85.05-3.26,1.56-4.52,2.92-1.13,1.07-1.49,3.1-3.64,2.87Z" style="fill: #66147d; stroke-width: 0px;"/>
  <path d="M219.67,163.29c2.4,3.17,5.52,5.75,7.6,9.2.96,1.59,1.88,3.18,1.9,6.29-3.67-5.32-9.25-7.93-10.11-14.18.2-.44.41-.88.61-1.31Z" style="fill: #741f88; stroke-width: 0px;"/>
  <path d="M236.26,167.62c.71-.84,1.49-1.64,2.13-2.53,3.52-4.9,5.35-4.84,8.51.31.19.33.15.63-.12.9-2.34-.9-4.06-.49-5.28,1.98-.62,1.25-1.72,2.39-3.33,2.66-1.54-.58-2.78-1.34-1.9-3.31Z" style="fill: #71a56b; stroke-width: 0px;"/>
  <path d="M246.7,166.22c.07-.27.13-.54.2-.82,1.73,1.31,4.04.25,5.8,1.42.27,1.28-.4,2.75.75,3.86,1.07.95.98,2.09.56,3.29-1.15,1.36-1.92.21-2.59-.5-1.07-1.13-2.11-2.27-3.4-3.16-1.08-1.15-1.81-2.42-1.33-4.09Z" style="fill: #d1b3d6; stroke-width: 0px;"/>
  <path d="M236.26,167.62c.24,1.37,1,2.36,2.21,3.01,2.05.77,3.05,2.28,3.12,4.44-1.52,1.07-2.59.86-3.46-.92-1.84-3.76-4.66-6.86-7.14-10.18,2.57.04,3.24,2.82,5.26,3.65Z" style="fill: #d1b3d6; stroke-width: 0px;"/>
  <path d="M279.72,122.72c.37,1.06,1.62,2.63-.47,2.85-3.23.34-6.03,2.08-9.23,2.37,2.71-2.72,6.24-3.91,9.7-5.21Z" style="fill: #d1b3d6; stroke-width: 0px;"/>
  <path d="M301.46,111.39c-1.24,0-2.48-.01-3.72-.02,1.24-.97,2.48-.99,3.72.02Z" style="fill: #d1b3d6; stroke-width: 0px;"/>
  <path d="M188.45,179.51c1.21-.96,2.43-1.92,3.64-2.87-2.53,3.04-1.66,6.22-.68,9.59.9,3.07,1.88,6.13,2.56,9.29.72,3.34,2.85,6.18,5.59,8.6,2.4,2.11,3.86,1.69,5.33-.66,1.06-1.68,2.12-3.38,2.94-5.19,1.18-2.61,3.03-4.93,5.35-6.09,4.68-2.32,7.65-6.23,10.96-9.91.74-.82,1.71-2.13,2.5-2.08,3.9.27,6.09-2.68,8.98-4.29,1.42.87,2.53,2.06,3.13,3.6.48,1.25,2.92,3.19-1.3,2.94-2.52-.14-3.36,3.14-3.72,4.97-1.59,7.99-6.68,14.37-9.45,21.82-3.19,8.58-6.2,17.37-11.8,24.88-1.13,1.52-2.47,2.79-3.74,4.15-.33.35-1.02.92-1.15.83-3.84-2.73-4.24.88-5.7,2.9-1.49,2.07-3.91,1.73-5.83.95-5.86-2.4-11.87-4.54-17.23-8.02-1.54-1-3.1-1.56-4.93-1.25-2.26-.71-2.36-2.91-3.15-4.61-.88-1.88-1.49-3.88-2.44-5.74-.34-.68-.65-1.37-.87-2.11-.54-2.3-.86-4.66-1.75-6.87-1.76-6.66-2.42-13.36-.99-20.17.28-.42.66-.57,1.15-.46,1.34,4.79,3.52,8.99,8.2,11.32,2.66,1.32,5.36,2.63,8.16,3.62,4.35,1.53,11.29-2.32,12.48-6.78.14-.53.02-1.26-.23-1.76-3.19-6.23-4.92-12.91-6.14-19.74.05-.29.09-.58.14-.88Z" style="fill: #ae54ba; stroke-width: 0px;"/>
  <path d="M103.05,130.76c1.06-3.44,3.85-5.53,6.21-7.95.89-.91,1.91-1.11,2.92-.22,1.12.99,1.38-.44,2.06-.67,5.78,2.03,7.2,7.17,9.38,12.79-6.14-2.49-12.09-2.04-17.6-3.89.5-1.7,2.14-2.06,3.31-2.84-1.46.45-2.5,1.88-4.13,2.23-.72.18-1.43.36-2.15.54Z" style="fill: #5e1274; stroke-width: 0px;"/>
  <path d="M165.84,193.72c-.19.12-.4.2-.61.25-1.39-1.39-2.06-3.32-3.49-4.69-.42-1.25-.17-2.27,1.02-2.96.4-1.27.81-2.55,1.3-4.12,1.23,1.47,2.33,2.78,3.42,4.08-.57,2.47-1.58,4.85-1.64,7.44Z" style="fill: #577d54; stroke-width: 0px;"/>
  <path d="M105.2,130.22c1.66-1.63,3.4-3.07,6.5-2.91-1.99,1.64-4.31,1.85-5.68,3.51-.27-.2-.55-.4-.82-.6Z" style="fill: #8d24a2; stroke-width: 0px;"/>
  <path d="M162.76,186.33c-.18,1.04-.35,2.08-.53,3.12.46,1.78-.26,3.11-1.62,4.19-12.34,5.83-25.07,10.79-37.52,16.39-3,1.35-5.88,1.74-8.89.28-5.26-2.48-10.16-5.49-14.23-9.72.19-1.72,1.2-2.92,2.86-2.88,3.75.09,4.38-1.07,1.69-3.76,1.23-.94,1.37.2,1.86.57,3.43,2.61,4.99,2.53,8-.46,1.41-1.4,2.72-2.95,4.56-3.8,4.93-2.28,8.93-5.69,12.68-9.58,2.8-2.9,6.3-3.16,9.9-1.21,3.38,1.84,6.75,3.71,10.19,5.43,2.83,1.41,5.67,3.17,8.97.93.39-.27,1.36.31,2.07.5Z" style="fill: #912da3; stroke-width: 0px;"/>
  <path d="M91.82,178.68c-3.51-4.81-5.76-10.04-5.53-16.14.14-3.8.22-7.61.33-11.41,0-.05.17-.14.25-.13.11.01.22.1.33.16.97,1.4-.15,3.13.73,4.55l-.02-.02c.69,2.23.98,4.55,1.52,6.81.06.46.11.92.17,1.38.23,6.88,3.07,12.87,6.52,18.82-1.41.02-1.69-1.17-2.35-1.85-.68-.7-1.3-1.46-1.95-2.2Z" style="fill: #0f0313; stroke-width: 0px;"/>
  <path d="M89.43,162.51c-.98-2.17-1.65-4.4-1.52-6.81,1.4,2.07,1.74,4.38,1.52,6.81Z" style="fill: #aa4ab7; stroke-width: 0px;"/>
  <path d="M87.92,155.72c-.93-1.41-.72-3-.73-4.55,1.38,1.33.64,3.01.73,4.55Z" style="fill: #aa4ab7; stroke-width: 0px;"/>
  <path d="M113.88,226.17c2.09-1.63,4.6-1.46,7.03-1.63.98-.86,2.11-.53,3.2-.37,1.21.18,2.21-.05,2.85-1.21,1.54-2.78,3.52-2.14,5.61-.72,1.03.7,1.97,1.51,2.87,2.37.79.76,1.19.93,1.77-.35.66-1.46,2.13-1.12,3.26-.57,2.78,1.35,5.64,2.63,7.41,5.4.82,2.48,1.51,5.01,2.55,7.42,1.54,3.57,2.24,7.14.11,10.75-.38.65-.45,1.42-.47,2.17-.17,5.9-3.24,9.44-8.83,11.04-5.11,1.46-9.55,4.02-13.51,7.65-4.19,3.84-9.16,4.82-14.57,2.62-6.25-2.55-12.2-5.62-17.56-9.78-2.03-1.58-3.69-3.3-3.81-5.09,1.37,4.24.3,9.74,2.05,14.84.26.93.53,1.86.47,2.85-1.01,1.98-2.1,3.91-2.73,6.1-.41,1.44-.96,3.29-3.28,2.48-2.83-3.78-2.77-8.21-2.86-12.6.06-1.26.06-2.52-.01-3.79-.17-3.58.22-7.1.99-10.59.34-3.8,2.67-6.72,4.39-9.91.75-1.39,1.19-2.94,1.46-4.51.15-3.19,2.49-3.65,4.95-3.99,4.77-2.81,10.03-3.58,15.43-3.8,3.84-.53,7.67-.52,11.72.46-2.02-3.06-4.29-5.32-7.91-5.83-.98-.14-1.93-.51-2.55-1.39Z" style="fill: #cd85d5; stroke-width: 0px;"/>
  <path d="M147.22,229.07c-1.94-1.34-3.85-2.72-5.84-3.98-1-.63-2.15-1.73-3.36-.91-1.09.74.67,2.05-.33,3.3-2.09-1.65-4.15-3.37-6.31-4.95-.83-.61-2.47-1.73-2.84-.4-1.41,5.03-4.73,2.83-7.64,2.41-.8-3.28-2.91-5.98-4.1-9.08-.52-1.35-1.32-2.69-.98-4.26,5.17.36,10.11,2.41,15.43,1.93,4-.36,7.86-.36,10.3-4.51,1.05-1.77,3.15-2.78,5.51-2.37,3.32,1.74,4.63,4.81,5.11,8.24.81,5.79,2.03,11.49,3.14,17.22.15.74.11,1.49-.19,2.2-1.15,1.41-2.3.48-3.21-.2-1.76-1.33-3.6-2.62-4.71-4.63Z" style="fill: #366930; stroke-width: 0px;"/>
  <path d="M97.01,237.26c-.98,1.42-4.03.19-3.91,3.04-2.05.83-2.57.63-3.33-1.81-1.18-3.81-1.32-7.82-2.04-11.72-1.07-5.82-1.79-11.7-5.1-16.92-2.45-3.86-1.99-5.92.84-7.78,2.77,2.78,5.54,5.56,8.31,8.34.2.96.95,1.38,1.65,1.89,1.02-.97-.69-1.92.68-3.14,2.08,8.32,8.44,14.05,11.95,21.45-2.49,2.92-6.07,4.37-9.04,6.64Z" style="fill: #358329; stroke-width: 0px;"/>
  <path d="M147.1,206.61c-2.71.85-5.1,1.68-6.26,4.97-.82,2.32-4.07,2.11-6.23,2.34-6.43.67-12.83.33-18.78-2.72-.66-.09-1.27-.25-1.63-.9,5.74,1.12,10.31-2.11,15.15-4.19,9.13-3.92,18.53-7.21,27.28-12,1.15-.63,2.62-.67,3.94-.99.9.97.28,1.87-.18,2.73-2.03,3.76-4.66,7.06-7.79,9.97-1.7,1.58-3.5,1.71-5.5.79Z" style="fill: #611c75; stroke-width: 0px;"/>
  <path d="M113.88,226.17c5.77.11,9.8,2.77,12.12,8.51-4.5-1.22-8.87-1.27-13.26-.99-.58.27-1.2.24-1.81.24-2.26.03-3.15-.71-1.52-2.78.38-.49.75-.97,1.08-1.49,1.13-1.17,2.26-2.34,3.38-3.5Z" style="fill: #5c1272; stroke-width: 0px;"/>
  <path d="M110.5,229.67c-.94,2.29-1.9,4.58,2.25,4.02-4.19,1.15-8.82.18-12.76,2.76-.74.48-1.52,2.42-2.98.8,2.09-3.47,5.75-4.8,9.04-6.64,1.55,0,3.12.06,4.46-.95Z" style="fill: #9e40ad; stroke-width: 0px;"/>
  <path d="M83.46,202.08c-2.16,2.17-1.81,4.55-.31,6.78,4.66,6.91,5.04,14.97,6.33,22.8.42,2.55.97,5.08,1.5,7.62.25,1.19.88,1.77,2.11,1.03-.16,3.29-1.17,6.24-3.55,8.59-1.62,1.6-1.14,3.98-2.27,5.75-1.48,1.65-1.6,3.81-2.12,5.81-4.42,16.97-1.3,32.97,6.37,48.36.61,1.22,1.38,2.42,1.45,3.8.06,1.28.01,2.71-2.01,1.88-4.73-8.32-8.15-17.2-11.26-26.21,1.49-3.78-.78-7.22-1.02-10.85-.47-7.03-1.06-13.96-.74-21.1.56-12.5,1.18-25.09-.97-37.59-1.33-7.68-1.96-15.48-4.49-22.93-.34-1-.12-1.72,1.08-1.85,3.67,2.26,7.34,4.52,9.9,8.12Z" style="fill: #6dac63; stroke-width: 0px;"/>
  <path d="M234.54,346.59c-9.25,12.89-17.63,26.34-25.96,39.84-1.46-1.32-1.63-3-1.35-4.82,2.06-7.44,4.5-14.76,6.77-22.14.44-1.44.9-2.87.56-4.39-3.36-15.04-2.41-30.46-4.01-45.66-.56-5.32-.1-10.7.92-15.99.78-3.62,1.14-7.32,2.19-10.89.7-2.39,1.5-4.73,2.81-6.85,2.35-3.79,6.05-4.89,9.79-2.57,1.92,1.19,2.39.62,3.14-1.12.78-1.82,1.08-4.56,4.3-3.67.93,3.17,1.23,6.44,1.4,9.72.98,7.59,2.87,14.91,6.57,21.68.53.98,1.19,1.92,1.1,3.12-6.2,15.35-11.77,30.95-17.77,46.95,7.1-12.68,15.78-23.63,24.2-34.76.75-.99,1.62-1.91,2.8-2.43,2.16-.36,3.6.75,4.78,2.37.68,1.98-.7,3.27-1.68,4.62-3.25,4.49-6.88,8.68-10.45,12.92-1.19,1.41-2.51,2.74-2.69,4.72-1.9,3.57-4.64,6.49-7.43,9.36Z" style="fill: #539549; stroke-width: 0px;"/>
  <path d="M207.85,381.94c.25,1.5.49,2.99.74,4.49-1.22,2.29-2.44,4.58-3.66,6.88-4.26-1.42-6.06-4.6-6.92-8.85-1.06-5.24-2.5-10.43-4.36-15.47-.67-3.98-2.61-7.68-2.59-11.8.06-1.19-.03-2.41.65-3.49,2.51-.75,2.1,1.55,2.4,2.61,1.39,4.88,2.23,9.91,3.64,14.79.28.96-.16,2.81,1.95,2.36,1.14.39,1.16-.32,1.15-1.14-.02-3.49.05-6.96-.89-10.39-.58-2.13-1.36-4.31-.67-6.6.17-.34.48-.66.48-1,.15-10.15,1.1-20.33-1.38-31.27-1.35,3.27-1.42,5.88-1.54,8.5-.07,1.51.36,3.34-1.71,4.05-1.85-2.71-2.21-5.84-2.59-8.97-1.5-12.62.39-25.42-2.13-38-2.2-10.99-6.35-21.08-13.79-29.52-7.94-9.01-10.9-19.75-11.64-31.32-.15-2.39-.57-5.47,3.11-6.18.69.24.77.87.95,1.45-1.83,10.32.26,19.41,7.62,27.29,3.62,3.87,7.47,7.56,10.79,12.48-.35-3-1.14-5.22-1.7-7.49-.37-1.52-1.1-3.24,1.07-4.15,1.9.24,3.26,1.3,4.36,2.78,6.09,13.41,8.89,27.65,10.41,39.62-.24-2.65-.05-7.86-.11-13.08.05-1.53.01-3.06,0-4.59.35-6.15-.85-12.33.45-18.45,1.72-2.22,3.79-2,5.99-.86,1.76,4.37,1.66,9.06,1.7,13.58.31,32.16-1,64.32-.87,96.48.02,5.08-.57,10.19-.95,15.28Z" style="fill: #45873c; stroke-width: 0px;"/>
  <path d="M192.08,357.2c-.19,4.18,2.36,7.83,2.33,11.98-2.59.11-2.36-2.14-2.9-3.62-4.59-12.55-9.57-24.92-16.34-36.49-3.4-6-6.36-12.29-10.74-18.18-1.77,2.59-.53,4.33.38,5.99,2.4,4.37,5.12,8.56,7.22,13.09,1.02,2.2,3.14,5.14,1.15,6.81-2.26,1.91-4.29-1.34-6.25-2.61-1.66-1.08-3.11-2.48-4.73-3.65-1.79-1.29-2.6-.64-3.08,1.32-.76,3.05.35,5.92.6,8.88.12,1.41,1.17,3.32-1.39,3.82-2.43-2.82-4.34-6.11-7.41-8.37-7.42-3.84-13.77-9.01-19.04-15.48-.82-1.01-1.55-2.35-.19-3.64,1.3-.66,2.65-.53,4.02-.29,6.85.42,13.42-.35,18.86-5.03,2.99-2.58,6.47-4.48,8.97-7.78,3.7-4.9,6.12-10.19,7.11-16.21.23-1.42.05-3.04,1.35-4.14,2.22.21,2.79,2.03,3.19,3.66,3.45,14.02,8.43,27.63,11.08,41.86.32,1.7.51,3.4.31,5.18-.41,3.66.16,7.36,1.84,10.55,2.07,3.94,3.08,8.05,3.68,12.36Z" style="fill: #1b4c16; stroke-width: 0px;"/>
  <path d="M158.31,344.53c2.16-2.49-.58-4.96-.05-7.45.09-.42-.35-.93-.41-1.42-.27-2.5-.29-5.54,1.42-6.98,1.97-1.65,3.55,1.36,5.2,2.4,2.78,1.76,4.92,4.49,8.44,5.87.11-2.42-.53-4.31-1.52-6.12-2.68-4.9-5.39-9.79-8.06-14.71-.59-1.08-1.38-2.16-1.14-3.48.22-1.23.56-2.65,1.85-3.02,1.18-.34,1.57,1.09,2.04,1.84,3.5,5.56,7.06,11.09,9.54,17.22,9.31,17.03,15.63,35.2,20.39,53.94.34,1.32.72,2.67.58,4.05-.13,1.31-.4,2.63-2.28,1.8-1.52-1.1-1.92-2.87-2.53-4.47-2.46-6.38-5.3-12.6-7.87-19.3-.03-.15-.43.61,0,.36.12-.07.11.06.2.31.37,1.04.45,2.03-.76,2.5-.95.37-1.67-.29-2.26-.94-1.33-1.48-2.66-2.94-4.19-4.24-2.65-2.23-5.76-3.28-9.06-3.97-3.19-4.73-6.37-9.46-9.56-14.19Z" style="fill: #3e7737; stroke-width: 0px;"/>
  <path d="M130.72,343.76c-2.03,2.06-5.24,1.89-7.34,3.84-1.64.39-2.51-.83-3.49-1.73-12.95-11.98-22.39-26.35-28.77-42.74-1.68-4.3-2.67-8.83-2.59-13.51.02-1.34-.18-2.8,1.16-3.74,1.06-.16,1.63.59,2.07,1.32,4.15,6.81,10.22,11.86,15.88,17.28.17.32.27.67.32,1.03.93,6.74,4.93,12.11,8.08,17.85,3.7,6.74,7.3,13.6,13.85,18.19.67.47,1.31,1.21.83,2.23Z" style="fill: #36832a; stroke-width: 0px;"/>
  <path d="M130.72,343.76c-.82-2-2.9-2.65-4.37-3.93-5.51-4.77-8.31-11.36-11.89-17.4-2.71-4.57-5.56-9.12-6.98-14.33-.23-.83-1.25-1.79.07-2.62,1.1-.35,1.93.28,2.74.82,5.92,3.94,12.25,7.02,18.99,9.29.89.3,2.02.4,2.19,1.69,1.36,5.3,5.91,8,9.59,11.27,3.08,2.74,6.84,4.72,9.85,7.61-4.52-.7-8.08,1.83-11.86,3.58-2.8,1.3-5.55,2.68-8.33,4.02Z" style="fill: #25661c; stroke-width: 0px;"/>
  <path d="M288.76,352.71c.23,1.01.46,2.02.69,3.02-.98.16-1.68,2.1-2.84.74-2.43-2.84-3.56-.54-4.81,1.1-4.9,6.39-7.98,13.79-11.53,20.93-7.41,14.92-12.78,30.82-21.76,44.97-.68,1.07-1.1,2.24-.99,3.54-.52.67-1.04,1.33-1.56,2-1.75.36-2.74,1.69-3.76,2.97-.97.54-1.94,1.07-2.9,1.61-1.01-2.71,1.17-4.59,1.99-6.71,7-18.27,15.15-36.03,24.36-53.28,2.78-5.2,4.93-10.92,9.6-14.95,1.67-1.16,3.42-2.14,4.3-4.23,1.07-2.54,3.56-1.4,5.48-1.71,1.24-.05,2.49-.7,3.73.01Z" style="fill: #b998be; stroke-width: 0px;"/>
  <path d="M90.1,286.11c-1.78,5.4-.17,10.59,1.58,15.5,4.32,12.1,10.65,23.13,18.97,33,3.93,4.66,8.09,9.04,12.73,12.98-1.7.99-3.44,1.93-5.1,3-1.06.68-1.86.53-2.58-.39-8.93-11.44-18.28-22.59-24.75-35.73,3.04-.95.84-2.6.34-3.73-3.37-7.59-6.82-15.11-8.28-23.4-1.93-10.97-.8-21.65,2.65-32.15.41-1.24.47-1.22,1.61-.58-.31,3.73-.62,7.46-.93,11.2-.39,1.23-.41,2.45.01,3.67.19,4.34.55,8.65,2.56,12.63,1.27,1.07,2.43,2.17,1.19,3.98Z" style="fill: #59a04e; stroke-width: 0px;"/>
  <path d="M167.87,358.73c6.22-1.45,9.38,3.24,13.18,6.61.63.56,1.08,1.33,1.66,1.95.1.11.46,0,.72-.02,1.07-1.38-1.1-2.78.22-4.42,4.3,8.14,7.23,16.71,10.68,25.05,1.75,2.2,2.37,4.9,3.24,7.79,1.13-.6,1.69-2.72,3.23-1.52,1.67,1.31,1.84,3.14,1.09,5.07-1.22,2.82-2.44,5.64-3.95,9.1-3.19-5.69-5.98-10.86-8.95-15.92-6.48-11.01-13.24-21.85-20.56-32.33-.27-.39-.38-.91-.56-1.37Z" style="fill: #1b4c16; stroke-width: 0px;"/>
  <path d="M285.03,353.47c-2.9-.17-5.15.37-5.97,3.81-.37,1.57-2.31,1.48-3.81,1.36-6.55-3.76-13.66-6.34-20.43-9.64-3.34-1.63-6.9-2.83-10.1-4.68-3.45-2-6.04-1.11-8.6,1.38-.42.41-1.05.6-1.58.89,1.93-3.51,4.52-6.52,7.14-9.52,1.08-2.51,3.23-1.77,5.11-1.6,1.48.13,2.86.75,4.22,1.35,3.64,1.64,7.32,3.22,10.9,5.01.5.17.99.37,1.47.59,1.39.69,2.76,1.41,4.18,2.05,2.82,1.35,5.78,2.38,8.54,3.86,1.49.88,3.17,1.36,4.75,2.05,1.37.79,2.95,1.16,4.23,2.12.21.33.19.65-.05.97Z" style="fill: #d7d2cc; stroke-width: 0px;"/>
  <path d="M201.9,399.24c-.05-.49.04-1.05-.17-1.46-.6-1.14-.25-3.33-1.79-3.28-1.73.05-.6,2.37-1.9,3.87-2.1-3.35-2.74-6.97-3.7-10.47,3.12.52,1.43-1.77,1.24-2.55-1.29-5.28-2.7-10.54-4.23-15.76-3.94-13.47-8.82-26.59-15.2-39.13-.27-.54-.34-1.18-.51-1.77,4.03,4.98,6.35,10.92,8.82,16.7,3.16,7.4,6.76,14.66,8.66,22.55.12.49.84.84,1.29,1.25,2.55,4.47,2.83,9.66,4.52,14.38,1,2.79-.06,7,4.75,7.55.49.06.84,1.43,1.25,2.19-1.1,1.93-1.52,4.21-3.03,5.93Z" style="fill: #35732d; stroke-width: 0px;"/>
  <path d="M356.85,125.1c1.27,2.55.47,5.29.7,7.93-2.24,25.01-10.84,48.4-18.18,72.35,2.75-1.45,4.45-4.51,7.67-5.15,2.15.77,1.38,2.2.84,3.62-3.34,8.74-8.79,15.84-16.35,21.35-3.93,2.86-6.68,7.03-10.74,9.81-3.17,2.16-3.17,9.69-.23,13.6,5.45,7.24,8.1,15.37,6.26,24.53-.25,1.23-.34,2.47-.56,3.69-.23,1.11-.6,2.19-.93,3.27-4.28,12.72-10.01,24.67-18.67,35.06-7.43,8.91-16.46,15.48-27.58,19.03-1.32.42-2.63.87-3.9-.13-.43-1.91.6-2.97,2.15-3.74,9.96-1.98,17.77-7.69,24.64-14.71,11.34-11.6,17.6-25.93,20.53-41.65,1.3-6.96,1.71-14.2-3.38-20.33-.79-.95-1.18-2.27-2.8-1.92-2.55-1.23-1.13-4.41-2.93-6.01-3.25,1.82-3.6,1.85-3.9-1.79-.49-6.04-4.93-9.37-8.35-13.45-1.09-1.6-3.32-2.28-3.61-4.52,1.95-3.76,3.99-7.07,9.25-6.49,2.26.25,4.71-1.09,6.15-3.1,6.69-9.3,13.51-18.55,16.84-29.77.47-1.58.74-3.14.49-4.78.23-2.13,1.53-3.9,2.04-5.94,3.47-8.67,4.04-17.58,2.21-26.69-.37-1.83-.73-3.66-.44-5.53-.13-2.01,1.39-2.82,2.79-3.59,6.1-3.34,11.06-7.96,15.37-13.35,1.17-1.46,2.47-2.87,4.63-1.59Z" style="fill: #3c7634; stroke-width: 0px;"/>
  <path d="M347.22,200.64l-9.19,7.27-.57-.37c1.82-5.49,3.72-10.95,5.43-16.48,5.8-18.74,11.24-37.58,14.19-57.03.05-.35.31-.67.47-1-.41,3.64,1.14,6.1,4.26,7.96,2.42,1.44,3.21,3.61,2.75,6.66-.96,6.45-4.17,12.23-5.08,18.66-.54,3.84-.74,7.66.61,11.42.98,2.71,2.7,4.7,5.22,6.06,3.75,2.03,5.39,6.04,4.7,10.19-2.06,12.27-8.8,22.3-15.32,32.43-4.18,6.48-8.51,12.87-10.81,20.36-.2.66-.82,1.2-1.24,1.8-1.26-1.58-.28-3.11.2-4.58,4.22-12.9,9.72-25.28,15.31-37.62,1.2-2.65,3.13-5.15,2.51-8.37-.74-4.64-1.95-4.89-6.99-1.44-2.25,1.21-3.75,3.6-6.46,4.1Z" style="fill: #c09fc6; stroke-width: 0px;"/>
  <path d="M353.09,196.05c.64-1.19,1.89-1.6,2.96-2.14,3.67-1.87,5.4-.66,5.33,3.61-1.2,4.64-4.15,8.41-6.25,12.6-9.21,14.63-14.26,30.85-18.13,47.5-.76,3.27-1.93,6.41-2.56,9.7-1.73,3.5-3.47,7.01-5.2,10.51-1.52.39-1.07,2-1.76,2.92-.45.6-.76,1.3-1.63,1.06-.84-.24-1.56-.69-1.15-1.8-.1-1.09.23-2.06.76-2.98,1.47-4.15,1.46-8.53,1.83-12.83.23-2.66-.7-5.2-2.06-7.46-1.55-2.59-2.36-5.5-3.81-8.11-.38-.68.55-3.82-2.35-1.68-.62.46-.66-1.24-.58-2.04.59-5.74,3.85-9.9,8.87-11.99,10.79-4.5,15.48-13.93,20.19-23.46,2.15-4.34,3.33-9.09,5.54-13.41Z" style="fill: #63a15a; stroke-width: 0px;"/>
  <path d="M324.69,280.03c.97,1.75,1.76,1.62,2.7-.1.43-.78-.24-2.72,1.83-2.08-8.86,18.9-17.5,37.91-29.23,55.28-3.58,6.43-8.73,11.83-12.13,18.38-.63,1.22-1.68,1.81-3.12,1.37-1.66.04-2.88-.92-4.13-1.79-.48-1.77.88-2.8,1.78-3.86,7-8.26,13.73-16.74,19.75-25.16-4.6,5.81-10.16,11.32-16.18,16.41-3.13,2.65-5.97,5.64-8.15,9.19-.41.67-.64,1.75-1.87,1.35-2.97-1.29-5.94-2.59-8.92-3.88-.18-.18-.43-.44-.36-.62,1.81-4.34,4.24-8.19,8.49-10.57,7.57-1.12,14.11-4.62,20.06-9.18,12.72-9.75,20.68-22.92,26.45-37.59.95-2.4,2-4.76,3-7.14Z" style="fill: #488c3e; stroke-width: 0px;"/>
  <path d="M334.44,143.02c2.15,10.07,3.45,20.13-.08,30.18-.41,1.16-.98,2.27-1.48,3.4-2.05.25-2.06-1.41-2.37-2.65-.77-3.15-2.01-6.16-2.69-9.33-.56-2.64-1.87-3.59-4.55-2.36-1.78.81-2.61-.54-1.86-1.83,1.63-2.81.63-4.79-1.47-6.47-2.46-1.96-4.06.64-5.98,1.42-.46.19.09-.09-.34.17-3.03.61-1.96-1.32-1.71-2.75,1.51-5.62,4.05-11.02,3.54-17.05.25-2.55-.54-4.85-1.72-7.05-.16-.81-.15-1.58.59-2.14.5-.06.99-.12,1.49-.18,5.44,2.55,7.68,7.49,9.41,12,.14,1.24.66.65.19.83-.17.07-.23-.03-.26-.27-.12-1.1-.41-2.27,1.13-2.66,2.68-2.24-1.24-3.46-.83-5.34,4.39,4.1,5.17,9.71,6.99,14.94.83-.41,1.05-1.74,1.29-3.07.34-.24.58-.17.72.22Z" style="fill: #ba66c3; stroke-width: 0px;"/>
  <path d="M334.43,267.33c-1.23-3.57.89-6.67,1.63-9.89,3.53-15.41,7.98-30.53,16.06-44.31.75-1.28,1.63-2.49,2.44-3.73,2.85.94,1.28,2.77.71,4.19-2.41,6-5.11,11.89-7.6,17.86-3.99,9.56-6.98,19.43-10.02,29.29-.62,2.01-1.01,4.14-2.43,5.82-.27.25-.54.51-.81.76Z" style="fill: #3e2c45; stroke-width: 0px;"/>
  <path d="M335.24,266.57c1.96-8.99,5.11-17.62,8.2-26.26,3.1-8.66,7.09-16.96,10.72-25.4.72-1.66,2.27-3.53.41-5.51,2.12-4.05,4.14-8.15,6.8-11.88,1.01,1.59.41,3.02-.28,4.57-6.19,14.02-12.73,27.89-17.49,42.5-.42,1.29-.65,2.64-.96,3.97-1.63,5.09-3.29,10.18-4.89,15.28-.42,1.35-.71,2.71-2.52,2.74Z" style="fill: #6c4c75; stroke-width: 0px;"/>
  <path d="M334.44,143.02c-.24-.07-.48-.15-.72-.22-.11-1.13-1.08-2.14.18-3.37,5.65-5.55,11.11-11.3,18.14-15.22,1.99-1.11,3.41-.44,4.81.9-1.03-.19-2.07-.15-2.7.77-5.11,7.4-12.41,12.27-19.71,17.14Z" style="fill: #8bb785; stroke-width: 0px;"/>
  <path d="M284.76,352.88c1.42-.09,1.95-1.01,2.58-2.21,3.41-6.42,8.08-11.95,12.66-17.54-.27,1.02-.55,2.04-.82,3.06-3.47,5.5-6.95,11.01-10.42,16.51-1.14.74-2.42.86-3.73.76-.08-.2-.17-.4-.27-.59Z" style="fill: #9e74a5; stroke-width: 0px;"/>
  <path d="M207.85,381.94c-1.64-3.05-.93-6.39-.63-9.47,1.09-11.42.42-22.85.59-34.27.12-8.22-.31-16.47.13-24.67.65-12.17.45-24.35.72-36.51.15-6.74-1.12-13.39-.82-20.11.83-1.14,2.16-1.18,3.35-1.4,15.71-2.81,25.06-12.53,30.23-27.19,3.95-11.19,6.71-22.59,7.63-34.42-.06-1.26-.12-2.52-.18-3.78,2.62-.65,3.1,1.35,3.82,3.07.25.8.35,1.63.4,2.47,1.98,10.56,3.19,21.22,4.09,31.92-.41,1.78-1.96,2.5-3.28,3.39-7.96,5.38-14.08,12.23-17.35,21.43-.89,2.49-.85,5.18-1.86,7.62-.57,1.14-.38,3.02-2.21,3.03-1.47.01-1.89-1.47-2.36-2.59-.96-2.31-2.4-2.05-4.17-1.01-2.86,1.69-5.11,3.89-6.49,6.97-3.76,8.41-6.18,17.18-7.14,26.35-1.41,9.68-.46,19.38.06,29.05.54,9.78.63,19.7,2.53,29.24,1.03,5.15-.08,9.19-1.45,13.6-1.8,5.79-3.75,11.53-5.63,17.3Z" style="fill: #1e4e19; stroke-width: 0px;"/>
  <path d="M249.04,193.89c1.87,3.02.31,6.11-.08,9.05-1.66,12.51-5.41,24.42-11.31,35.62-6.33,12.01-17.21,16.57-29.82,18.34-1.83.13-3.78-.65-5.44.73-3.18.59-3.29,2.49-2.42,5.12,1.45,4.34,2.04,8.87,2.38,13.43.05,1.49.1,2.98.15,4.47-2.04-.08-2.24-1.79-2.46-3.14-.91-5.64-3.67-10.82-4.07-16.59-.15-2.23-1.1-4.05-3.3-5-.95-.41-1.52-1.25-2.1-2.06-1.22-.77-2.45-1.55-3.67-2.32-.92-.45-1.95-.83-1.64-2.21,4.81,1.58,9.21,4.37,14.38,4.87.61.06,1.22.34,1.82.31,8.79-.5,16.59-3.11,22.33-10.3,6.52-8.16,13.32-16.24,16.45-26.38,1.94-6.26,4.96-12.4,3.79-19.44-.54-3.26,3.04-3.29,4.99-4.51Z" style="fill: #591b6b; stroke-width: 0px;"/>
  <path d="M185.27,249.34c.55.74,1.09,1.47,1.64,2.21-1.44,1.18-.55,2.46-.15,3.72.94,3.04,1.75,6.11,1.65,9.57-3.33-3.87-6.87-7.52-10.16-11.36-1.77-2.07-3.88-3.83-5.44-6.08-4.42-6.4-5.58-13.64-5.4-21.2.03-1.27.47-2.43,1.67-3.14,1.61,3.54,3.22,7.08,4.83,10.62,2.45,6.19,5.94,11.63,11.36,15.66Z" style="fill: #5c8857; stroke-width: 0px;"/>
  <path d="M251.96,193.12c-.85-1.19-1.35-2.74-3.1-3.01-1.5-5.46-3.46-10.69-7.27-15.03-1.04-1.48-2.08-2.96-3.12-4.44.96-1.12,2.31-2.1,2.81-3.4,1.36-3.53,3.05-3.67,5.42-1.02.53,1.24,1.05,2.47,1.58,3.71,2.16,2.38,2.17,5.46,2.76,8.36.72,3.53,1.3,7.09,1.76,10.66.19,1.47.47,2.99-.83,4.17Z" style="fill: #396735; stroke-width: 0px;"/>
  <path d="M275.23,140.61c-.34,1.69-.42,3.48-1.06,5.04-1.79,4.43.49,8.01,2.41,11.5,1.33,2.4,4.08,3.05,5.83.57,4.51-6.39,11.56-9.09,17.8-12.98,1.61-1,1.99-1.67.48-2.94-.28-.24-.58-.49-.77-.8-.6-.96-2.65-1.64-1.62-2.84,1.11-1.29,2.02.62,3.01,1.16.23.12.63-.08.95-.13,2.41-.07,2.87,2.05,3.78,3.52,1.24,1.99,1.98,4.23,2.41,6.56-2.7,2.73-4.39,6.03-5.06,9.75-1.68,9.32-7.5,15.31-15.66,19.13-6.15,2.88-11.81,6.27-16.74,10.99-1.82,1.74-4.28,3.74-6.98,2.6-3-1.27-3.21-4.4-3.26-7.38-.18-11.45,1.83-22.5,5.98-33.17.3-1.14.89-2.1,1.81-2.85,1.63-1.03,2.37-2.72,3.33-4.28.85-1.37,1.22-3.3,3.36-3.46Z" style="fill: #bc5bc7; stroke-width: 0px;"/>
  <path d="M308.14,149.05c-2.37-3.04-2.65-7.33-5.88-9.87-3.98-5.54-9.51-8.54-16.5-9.64,2.48-3.81,6.17-6.2,8.04-9.99.8-.14,1.58-.46,1.05-1.42-.72-1.31-.12-1.59.99-1.41,3.97.62,8.03.99,12.63,3.58-4.42.06-7.86-.21-11.83,2.19,6.8.16,12.49,1.16,17.66,4.05,0,.69,0,1.38-.01,2.07.4.79.58,1.63.76,2.49.15.72.56,1.55-.24,2.02-.71.41-1.53,0-2.06-.51-4.84-4.62-11.04-3.82-16.91-4.29-1.05-.08-2.1.11-2.62,0-1.03.1-.26.8-.53.38-.1-.16-.01-.24.26-.27,8.76-.81,16.69,1.11,23.37,7.11.74,6.34-1.87,12-3.65,17.82-2.91.03-3.29-2.6-4.54-4.31Z" style="fill: #2f0541; stroke-width: 0px;"/>
  <path d="M253.47,174.36c0-1.23,0-2.45-.01-3.68-1.05-10.34,5.33-16.92,11.88-23.41.35.21.56.51.62.91-1.31,4.57-3.59,8.83-4.41,13.57-.49,7.15-.06,14.33-.94,21.45-.27,2.18-.23,4.48-1.93,6.22-.89.28-1.52-.24-1.8-.9-1.92-4.53-4.03-9.03-3.4-14.17Z" style="fill: #bc5bc7; stroke-width: 0px;"/>
  <path d="M275.23,140.61c-2.61,2.31-2.84,6.37-6.06,8.23-1.22-1.41-.27-2.98-.36-4.48.36-1.18,1.39-1.91,1.98-2.94,2.67-2.33,4.66-5.29,7.45-8.79-.62,3.51-2.05,5.66-3.01,7.98Z" style="fill: #601971; stroke-width: 0px;"/>
  <path d="M270.79,141.42c.05,1.31-1.32,1.79-1.66,2.87-.37,1.89-1.5,3.01-3.4,3.34-.13-.12-.27-.23-.4-.35,1.16-2.56,3.33-4.19,5.46-5.86Z" style="fill: #bc5bc7; stroke-width: 0px;"/>
  <path d="M326.28,136.27c-.35.91-.7,1.82-1.07,2.77-2.66-4.58-5.22-9.24-9.41-12.68.3-.53.82-.65,1.25-.35,3.85,2.71,7.65,5.48,9.23,10.25Z" style="fill: #340944; stroke-width: 0px;"/>
  <path d="M253.47,174.36c1.54,5.02,2.33,10.28,4.61,15.08,2.06,1.38,2.54,3.81,3.76,5.74.99,1.56,2.07,3,3.42,4.25,1.86,2.18,4.15,3.74,6.73,4.97,1.39.67,3.04,1.1,3.66,2.82.12.96-.25,1.8-.62,2.64-2.19,3.07-2.39,7.33-5.72,9.73-2.14-.02-3.01-1.67-3.62-3.23-3.11-7.91-7.65-14.88-13.45-21.06-.09-.73-.19-1.45-.28-2.18-.2-7.9-2.33-15.48-3.68-23.19,2.88.13,3.19,3.28,5.19,4.44Z" style="fill: #b690c0; stroke-width: 0px;"/>
  <path d="M168.13,221.61c-2.34,1.71-2.37,4.24-2.19,6.72.89,12.37,5.16,23.24,13.43,32.73,7.64,8.77,10.93,19.63,12.73,30.95,1.45,9.11.43,18.31.87,27.45.11,2.33.83,4.64.62,7.01-1.99-.19-1.63-1.94-1.95-3.11-1.97-7.35-3.5-14.83-4.09-22.39-1.09-14.09-6.14-26.58-14.07-38.05-1.83-2.65-3.22-5.63-5.66-7.84-3-4.45-5.21-9.41-8.62-13.61-1.3-1.6-3-2.95-3.24-5.2-.17-2.72-1.07-5.3-1.64-7.94-.8-3.65.17-4.92,3.61-4.06,3.27.82,4.84-.05,5.46-3.36.43-2.3,1.43-4.46,3.28-6.08,1.05,2.14,1.53,4.4,1.47,6.77Z" style="fill: #366930; stroke-width: 0px;"/>
  <path d="M166.66,214.83c-.76,3.35-2.61,6.31-3.27,9.74-.42,2.18-2.39,1.4-4.01.98-5.2-1.34-5.21-1.22-4.08,4.08.51,2.4,2,4.6,1.5,7.2-1.43-.07-2.19-.84-2.29-2.26.66-3.03-.61-5.98-1.28-8.68-1.16-4.7-1.47-9.52-2.69-14.19-.6-2.29-2.85-3.05-3.45-5.1,4.58.17,6.76-3.16,9.13-6.24,1.73-2.25,3.59-4.42,4.35-7.25.55-1.22,1.1-2.45,1.66-3.67,2.72.37,2.58,2.64,3,4.53-.61,7.03-.07,13.97,1.43,20.86Z" style="fill: #1a4515; stroke-width: 0px;"/>
  <path d="M154.52,234.58c.76.75,1.52,1.5,2.29,2.26,1.03,1.41,2.06,2.82,3.08,4.23,2.28,6.06,2.69,12.36,2.45,18.75-.04,1.13-.11,2.28-.7,3.26-1.6,2.65-2.12,5.57-2.3,8.58-.22,3.65-1.77,6.49-5.08,8.15-6.35,3.18-11.07,7.91-14.34,14.23-2.59,5-7.27,7.37-12.45,8.86-2.28.66-4.43,0-6.57-1.04.96.73,1.94,1.37,2.63,2.3.63.86,1.85,1.75.89,2.88-.83.97-2.1.45-3.14,0-2.18-.94-4.11-2.34-6.24-3.4-2-1-3.86-1.95-5.37.77-.44.8-1.38,1.05-2.28.38-7.12-4.96-12.84-11.23-17.28-18.67-.4-1.33-.79-2.65-1.19-3.98,1.58-.92,1.81-2.51,2.15-4.1.39-1.8.88-3.63,2.8-4.53,1.27-.83,1.47.44,1.81,1.05,1.27,2.27,2.67,4.47,3.35,5.73-3.05-4.91-3.8-11.83-5.99-17.48-.23,2.26,2.36,5.24.16,8.31-2.54-5.75-1.45-11.94-2.25-18.01,5.01,10.43,15.07,13.45,24.55,17.25,4.38,1.76,8.32.11,11.34-2.77,4.2-4.01,9.04-6.49,14.45-8.23,6.08-1.96,7.57-4.17,7.53-10.62,0-.25-.13-.59-.02-.73,4.83-5.68.26-10.75-1.01-16.03-.23-.95-.38-1.93-.56-2.89,2.9,1.22,4.68,3.91,7.29,5.5Z" style="fill: #a042ad; stroke-width: 0px;"/>
  <path d="M93.19,271.11c.21-3.55-1.17-7.02-.48-10.96,3.55,7.71,4.34,16.1,9.36,23.53-2.97-1.71-3.13-1.85-4.99-4.82-1.11-1.76-2.15-3.57-3.22-5.36-.92-.6-.6-1.55-.67-2.39Z" style="fill: #0d0210; stroke-width: 0px;"/>
  <path d="M86.36,269.5c-.93-1.22-.93-2.45-.01-3.67,0,1.22,0,2.45.01,3.67Z" style="fill: #6dac63; stroke-width: 0px;"/>
  <path d="M301.35,229.39c3.2,2.14,4.31,6.17,7.7,8.27,1.45.9.55,3.29.98,4.96.32,1.25.39,2.57.57,3.88.94-.19,1-.9,1.29-1.4.37-.63.63-1.54,1.46-1.48,1.04.08,1.22,1.18,1.46,1.95.61,1.99,1.06,4.03,1.58,6.04.15.14.3.28.45.42.98,1.89.35,4.08,1.16,6.01.33,5.31.8,10.63-1.42,15.71-.85,1.09-2.04,1.8-3.08,2.68-3.42,2.88-5.57,2.36-7.38-1.79-.99-2.27-1.49-4.77-3.05-6.78-.61-.79-1.23-1.57-2.69-2.32.45,2.45,1.81,4.29,1.91,6.4.07,1.58.57,3.52-1.11,4.42-1.61.86-2.76-.7-3.78-1.71-2.81-2.81-5.84-2.87-9.21-1.14-2.28,1.17-4.12,2.85-5.65,4.8-5.99,7.67-13.29,14.11-19.81,21.26-5.01,5.5-11.27,6.83-18.23,6.6-1.43-.52-2.25-1.48-2.22-3.06-4.4-7.64-7.07-15.85-8.18-24.58.28-.24.55-.61.9-.65,5.94-.75,6.78-4.67,6.21-9.65-.22-1.96-.13-3.98.03-5.95.11-1.3-.09-2.84,1.65-3.37,1.52,1.27.96,3.03.79,4.51-.28,2.45-.2,4.89-.28,6.21-.08-2.87.09-6.86.89-10.76.51-2.49.96-5.16,3.45-6.7,2.12,1.11.93,2.77.57,4.16-1.96,7.49-3.22,15.1-3.51,22.83-.17,4.31.66,4.75,4.44,2.73,4.5-2.39,8.79-5.19,13.85-6.4,1.46-.35,2.61-1.4,3.79-2.33,4.5-3.55,8.48-7.69,13.08-11.12,1.87-1.39,2.81-3.45,3.25-5.72.43-2.2.96-4.38,1.58-6.53,1.74-6.02,3.79-6.85,8.96-3.67,2.65-.86,1.53-3.6,2.6-5.24.43-3.34,1.65-6.9-2.67-8.79-.4-.66-.42-1.35-.2-2.07,2.62-2.18,4.06-2.13,6.12.41,1.7,2.09,3,4.46,4.79,7.39.03-2.38-1.12-3.37-1.94-4.51-.84-1.17-2.19-2.19-1.13-3.91Z" style="fill: #ae51ba; stroke-width: 0px;"/>
  <path d="M244.48,305.57c11.21.79,17.68-6.56,24.59-13.71,5.5-5.69,10.27-12.05,16.02-17.47,4.7-4.43,8.71-4.18,13.66.28.61.55,1.09,1.62,2.1,1.17.99-.44.5-1.53.61-2.35.25-1.81-.45-3.39-1.18-5-.64-1.42-1.07-2.93-1.74-4.82,3.99.91,5.64,3.56,6.97,6.53.3.68.49,1.41.73,2.11,2.13,6.25,2.77,6.45,7.68,2.44.46-.37,1.1-.51,1.66-.75,1.52,1.41.73,3.01.28,4.51-3.5,11.55-10.63,20.7-19.24,28.84-4.96,4.69-10.72,8.03-17.31,9.96-4.28,1.25-8.61,1.78-12.88.49-3.27-.99-7.11.25-9.89-2.54-1.39-.93-2.74-1.93-4.4-2.35-3.67-1.27-6.41-3.52-7.66-7.33Z" style="fill: #842f92; stroke-width: 0px;"/>
  <path d="M256.54,315.25c10.45,2.16,20.9,3.9,30.69-2.32,13.87-8.81,23.48-20.95,28.37-36.72.21-.67,0-1.47,0-2.21,2.02-5.33,1.6-10.89,1.58-16.41-.36-.59-.5-1.35.27-1.49,1.24-.23,1.82.79,1.96,1.8.56,4.19,1.41,8.35.81,12.64-.97,6.87-2.97,13.43-6.22,19.52-5.7,10.68-11.75,21.16-20.14,30.05-1.81,1.92-3.93,3.47-6.34,4.57-1.25.57-2.71,1.39-3.93.9-2.75-1.1-5.34-.59-8.02.01-1.43.32-2.65-.23-3.73-1.25-4.46-4.2-4.99-4.13-8.68.77-2.37,2.53-4.42,5.35-6.79,7.89-.72.77-1.37,2.12-2.63,1.56-1.08-.47-.57-1.76-.5-2.71.13-1.61.06-3.23.22-4.94-1.51,2.2-1.19,4.48-.73,6.79.31,1.58.84,3.28-1.4,3.98-3.18-.62-6.27-2.81-9.63-.62-1.62-2.33.88-3.27,1.78-4.46,3.34-4.44,7.01-8.62,10.49-12.96,1.06-1.33,2.33-2.58,2.59-4.4Z" style="fill: #1b4516; stroke-width: 0px;"/>
  <path d="M242.98,259.04c-1.52,3.68-.61,7.52-.69,11.28-.16,7.39-.66,8.02-8.17,8.21-.29-3.49-.59-6.98-.88-10.47-1.14-1.25-1.22-2.82-.44-4.08.84-1.35.74-2.78,1.09-4.17,2.1-14.36,10.1-24.52,22.47-31.57.7-.48,1.21-1.42,2.3-.87.78,1.91-.69,3.03-1.65,4.19-2.22,2.7-3.96,5.76-6.26,8.38-1.45,1.65.79.65.77,1.23.27.51.28,1.03.12,1.57-4.2,4.73-6.15,10.67-8.67,16.3Z" style="fill: #bf5eca; stroke-width: 0px;"/>
  <path d="M244.48,305.57c1.9,3.13,5.13,4.86,7.66,7.33-10.01,12.6-19.65,25.47-28.08,39.27.76-5.82,3.22-11.04,5.12-16.42,3.46-9.84,7.27-19.55,10.93-29.31.48-1.28.85-2.63,2.2-3.33.72.82,1.45,1.64,2.17,2.46Z" style="fill: #245d1d; stroke-width: 0px;"/>
  <path d="M233.9,259.81c-.22,2.75-.44,5.5-.65,8.25-2.41,1.22-2.8,3.69-3.54,5.89-.53,1.59-.81,2.52-2.67,1.01-4.49-3.66-7.72-2.88-10.29,2.23-2.09,4.15-3.09,8.61-3.66,13.18-.11.85.06,1.77-.76,2.38.27-10.08,2.55-19.66,7.21-28.64,1.77-3.42,4.98-5.09,8.19-6.77,1.37-.72,2.01,0,2.65,1.1.74,1.27.61,2.96,1.97,3.99,1.49-.29.48-2.09,1.54-2.62Z" style="fill: #33682c; stroke-width: 0px;"/>
  <path d="M192.08,357.2c-1.71-6.43-6.03-12.09-6.43-18.78-.34-5.54-.33-11.08-1.81-16.46-3.11-11.36-6.32-22.69-9.5-34.03-.44-1.56-.79-3.16-2.29-4.14-1.85-1.85-1.29-4-.78-6.15,1.7-1.6,1.96.23,2.45,1.12,3.99,7.31,7.6,14.82,10.38,22.67,3.89,10.99,7.53,22.07,10.26,33.42.23.97.77,1.81,1.02,2.78.27,1.02.74-.43,1.11.03,1.98,5.83,3.94,11.66,3.17,17.98,1.49,6.68,3.19,13.35,1.7,20.59-1.49-.47-.64-2.24-1.77-2.57-1.39-1.3-1.42-3.12-1.76-4.8-2.58-12.67-5.37-25.3-8.98-37.72-.51-1.75-1.07-3.48-1.81-5.14,1.96,7.82,3.58,15.72,5.5,23.56.32,1.32.68,2.69-.42,3.88-.01,1.25-.03,2.51-.04,3.76Z" style="fill: #35732d; stroke-width: 0px;"/>
  <path d="M195.85,337.7c-1.68,2.25-1.4-.25-1.55-.75-1.77-5.68-3.46-11.4-5.18-17.1-4.1-13.58-8.53-27.04-15.76-39.36-.67-1.14-.48-2.43-1.19-3.47-1.5-.79-1.36-2.28-1.35-3.58.03-2.99-.6-5.88-1.12-8.79-.43-2.14-1.04-4.23-1.72-6.31-.41-1.25-.94-2.55.11-3.78.47-.54.88-.31,1.19.15,7.51,11.41,15.55,22.58,17.89,36.49,1.5,8.89,2.16,17.92,4.2,26.72.66,2.86.92,5.83,2.2,8.53.52,2.99,1.03,5.99,1.55,8.98.93.53,1.52,1.17.72,2.25Z" style="fill: #1b4c16; stroke-width: 0px;"/>
  <path d="M207.1,278.33c-.08,9.44-.47,17.76-.62,26.08-.42,23.06-.19,46.14-.11,69.21,0,2.53-.77,4.9-.82,7.39-.01.65-.19,1.34-1,1.25-.67-.07-1.05-.7-1.11-1.33-.1-.99-.1-1.99-.1-2.99,0-16.71-.33-33.43.1-50.13.36-14.03,1.26-28.05,1.46-42.1.03-2.17.68-4.35,2.19-7.38Z" style="fill: #539549; stroke-width: 0px;"/>
  <path d="M192.12,353.44c-2.06-9.32-4.11-18.64-6.2-27.96-.16-.72-.59-1.4.06-2.07,3.5,3.13,12.59,36.68,13.62,50.26-.11.73-.12,1.65-1.06,1.72-.98.08-1.02-.85-1.19-1.57-1.49-6.25-2.98-12.51-4.49-18.76-.14-.57-.49-1.08-.75-1.62Z" style="fill: #539549; stroke-width: 0px;"/>
  <path d="M190.58,253.86c5.02,1.21,6.17,4.81,6.94,9.5.97,5.88,2.4,11.79,4.99,17.29,0,6.36,0,12.72,0,19.08l-1.11.09c-.45-3.81-1.09-7.61-1.65-11.36-1.65-11.05-4.27-21.79-8.58-32.1-.33-.78-.4-1.67-.59-2.5Z" style="fill: #39443b; stroke-width: 0px;"/>
  <path d="M195.85,337.7c-.24-.75-.48-1.5-.72-2.25,1.64-3.47.04-7.34,1.41-10.89.47-1.22.51-2.61,1.59-4,2.53,3.37,2.59,7.33,2.82,10.92.45,7.3.14,14.65.14,21.98,0,1.04-.05,2.04-1.42,2.17-1.27-5.98-2.54-11.96-3.81-17.93Z" style="fill: #539549; stroke-width: 0px;"/>
  <path d="M202.35,276.18c-1.18-4.74-2.38-9.48-3.54-14.23-1.19-4.89-1.17-4.89,3.58-4.32-.01,6.18-.02,12.37-.04,18.55Z" style="fill: #9230a3; stroke-width: 0px;"/>
  <path d="M168.1,254.58c.14,3.39,2.41,6.28,2.26,9.73.6,7.81.13,15.5-1.5,23.21-1.24,5.86-5.26,9.43-9.24,13.17-5.15,4.85-11.31,8.53-15.86,14.11-1.86,2.29-4.86,2.85-7.84,2.71-1.48-.07-2.97-.15-4.45-.22-8.61-2.63-16.57-6.6-23.91-11.8-.08-.23-.14-.46-.17-.7.77-.08,1.74-.23,1.88-.98.84-4.34,3.14-2.4,5.41-1.46,3.17,1.31,5.71,3.93,9.8,4.75-1.7-2.9-3.94-4.52-6.06-6.42,4.17.94,8.03,2.41,12.39.09,3.54-1.89,6.74-3.93,8.46-7.46,3.26-6.67,8.33-11.31,14.87-14.5,2.78-1.36,4-3.66,4.21-6.54.25-3.46,1.04-6.57,2.48-9.86,1.59-3.61.76-8.06.23-12.14-.39-3.06-1.37-6.05-1.18-9.18,3.66,3.94,5.71,8.87,8.21,13.51Z" style="fill: #9032a0; stroke-width: 0px;"/>
  <path d="M135.91,317.5c6.81-.69,9.53-7.07,14.4-10.48,4.56-3.19,8.61-7.07,12.68-10.91,3.19-3.01,4.11-6.78,5.27-10.78,2.01-6.95.5-14.12,2.1-21.03,1.88,4.06,1.28,8.47,1.82,12.73-.04,2.25-.08,4.5-.12,6.75-.89,11.36-5.61,20.32-14.95,27.4-5.47,4.16-11.18,6.08-17.63,6.84-1.19.14-2.49.44-3.56-.53Z" style="fill: #652772; stroke-width: 0px;"/>
  <path d="M251.31,337.68c1.36-1.37.91-2.86.4-4.43-1.04-3.2-.43-6.02,2.55-8.7-.03,3.43.3,6.41-.61,9.88,3.58-2.98,5.3-7.1,8.83-9.48,3.98-3.19,5.07-3.14,7.98.82,1.19,1.63,2.4,1.4,3.86.72,1.56-.73,3.04-1.72,4.78-1.97.99-.14,2.49-.71,1.95,1.4-6.63,3.53-11.29,9.32-16.52,14.45-.88.86-1.51,2-2.78,2.43-3.48-1.71-6.97-3.42-10.45-5.13Z" style="fill: #316b2a; stroke-width: 0px;"/>
  <path d="M275.96,349.01c2.89-5.17,7.06-9.16,11.51-12.99,4.43-3.81,8.66-7.86,12.25-12.52,1.2-1.56,2.55-3.01,4.31-4.08-6.44,11.61-15.38,21.31-23.41,31.67-1.59-.6-3.38-.76-4.66-2.07Z" style="fill: #87b580; stroke-width: 0px;"/>
  <path d="M275.18,333.94c-2.85,3.63-6.34,6.79-8.14,11.19-1.31-.66-2.62-1.32-3.94-1.99,3.31-5.62,8.21-9.78,12.94-14.09.76-.7,1.66-1.25,2.42.08.07.85-.47,1.34-1.07,1.8-1.32.58-1.48,2.01-2.22,3.01Z" style="fill: #76a070; stroke-width: 0px;"/>
  <path d="M278.15,329.39c-1.67-1.34-2.18.53-2.87,1.22-3.13,3.18-6.57,6.07-9.17,9.77-.76,1.09-1.99,1.85-3,2.77-.45-.11-.9-.22-1.35-.33,5.39-6.61,10.66-13.36,18.7-17.07,1.08,1.47-.17,2.34-.85,3.36-.43.37-.88.67-1.46.28Z" style="fill: #488c3e; stroke-width: 0px;"/>
  <path d="M274.46,209.54l.88-2.3c1.53-1.93,3.23-.57,4.75-.12,4.82,1.41,9.68,2.2,14.71,1.86,7.52-.51,13.28-4.94,18.86-9.19,4.72-3.59,8.91-7.97,12.49-12.81,1.58-1.66,2.04-4.38,4.69-5.04,1.4,4.1-1.02,7.48-2.38,10.91-3.51,8.86-9.3,16.44-14.75,24.15-1.85,2.62-5.15,3.95-8.24,3.61-2.81-.32-4.24.46-5.29,2.77-.53,1.16-1.24,2.17-2.48,2.67-1.53,1.16-3.04.38-4.1-.52-5.26-4.45-11.05-7.15-18.13-6.23-.22.03-.47-.16-.69-.27-1.28-1.34-.53-2.84-.04-4.1.74-1.92.6-3.63-.29-5.38Z" style="fill: #274924; stroke-width: 0px;"/>
  <path d="M353.09,196.05c.98,2.37-.92,4.08-1.59,5.96-3.63,10.1-8.22,19.63-16.07,27.35-3.05,3-7.11,3.87-10.49,6.18-4.17,2.85-4.47,6.93-6.64,11.06,2.15-.8,1.46-2.76,3.11-3.58.3,5.91,3.68,10.57,5.68,15.76,2.41,6.25.62,12.32-1.63,18.26.1-3.71.58-7.41.86-11.11.52-6.89-3.41-12-6.64-17.05-3.59-5.6-2.92-11.85,2.15-16.29,6.66-5.84,13.75-11.28,19.43-18.21,2.98-3.63,3.76-8.38,6.47-12.13.39-.54.04-1.19-.51-1.62,1.78-1.75,3.55-3.53,5.87-4.59Z" style="fill: #488c3e; stroke-width: 0px;"/>
  <path d="M330.85,181.94c-1.3,1.77-2.59,3.53-3.89,5.3-3.18-2.53-3.57-6.38-4.65-9.88-.63-2.02-.02-4.96-1.42-6.07-3.59-2.84-5.21-5.49-3.49-10.26.62-1.71-1.64-4.28-3.71-5.68-.1-.15-.19-.31-.29-.46.39-.3.75-.64,1.17-.89,1.83-1.06,3.78-3.52,5.82-1.17,1.79,2.06,5.64,4.33,1.54,7.82-.18.15-.05.67-.07,1.06,5.45-2.2,5.69-1.98,7.29,3.92,1.01,3.72,1.47,7.66,3.73,10.97-.03,2.03-1.6,3.47-2.03,5.34Z" style="fill: #983ba5; stroke-width: 0px;"/>
  <path d="M274.75,218.57c7.33-1.37,13.53.89,18.91,5.84,1.14,1.05,2.66,1.2,4.05,1.63,1.22,1.12,2.43,2.23,3.65,3.35.07,2.52,2.52,3.55,3.52,5.52.71,1.4,1.86,2.74,0,3.75-1.78.97-1.65-1.19-2.23-2-1.3-1.81-2.4-3.75-3.6-5.62-1.28-2-2.9-2.61-4.99-1.15-4.95-1.29-9.88-2.1-14.75.29-3.26.06-6.15-1.7-9.39-1.91-1.79-.12-2.17-1.41-1.26-2.96.63-1.08,1.6-1.84,2.38-2.53-2.62,1.21-5,3.03-7.3,5.03-1.27,1.1-3.11,2.07-2.61-1.24,2.63-3.35,6.26-5.34,9.92-7.29,1.13-.76,2.37-.94,3.68-.71Z" style="fill: #802492; stroke-width: 0px;"/>
  <path d="M278.15,329.39c.3-.23.6-.46.9-.69,7.53-2.8,14.44-6.58,20.26-12.26,8.33-8.14,13.18-18.31,17.23-28.95,2.4-6.3,4.09-12.79,4.72-19.53.57-6.12-1.4-11.46-4.83-16.39,0,0-.03.06-.03.06,1.12-3.03,1.82-1.09,2.82.15,6.17,7.69,5.77,16.52,3.76,25.23-3.43,14.87-9.66,28.56-20.5,39.57-5.84,5.94-12.53,11-20.7,13.6-1.43.45-2.83.99-4.37.75.25-.52.5-1.03.75-1.55Z" style="fill: #316b2a; stroke-width: 0px;"/>
  <path d="M326.3,246.87c.08-3.04,6.25-8.78,9.01-8.66,1.51.07,1.33,1.19,1.36,2.15.09,2.27-.77,4.36-1.32,6.51-1.29,5.03-2.54,10.06-3.81,15.09-.21.84-.39,1.98-1.41,1.93-1.23-.06-.96-1.31-.87-2.08.56-4.87-2.54-9.03-2.62-13.77,0-.47-.26-.94-.33-1.18Z" style="fill: #8eb888; stroke-width: 0px;"/>
  <path d="M264.58,199.92c-3.5-2.66-4.79-6.7-6.5-10.47,1.8-5.33,2.15-10.83,2.19-16.42.03-4.04-.82-8.17.67-12.14,1.94,3.56-.46,7.16.4,10.08.02-3.23.02-7.17.91-10.96.82-3.5,1.27-7.41,5.38-9.04-2.59,7.64-4.62,15.41-5.51,23.46-.47,4.24-.46,8.48-.23,12.69.21,3.84,2.25,4.61,5.77,3.11,3.13-1.33,5.05-4.03,7.46-6.12,4.71-4.09,10.77-5.59,15.89-8.89,5.99-3.86,9.78-8.91,11.3-15.92.85-3.9,1.55-8.17,5.83-10.25,2.01.91,2.65,3.26,4.54,4.31-.17.54-.6,1.18-.45,1.61.21.59.76-.01,1.17-.1,0,0,.09.08.09.08.3.4.67.79.72,1.29.71,6.59,2.42,12.87,5.52,18.77.89,1.69.78,3.63-.1,5.42-1.56,3.15-4.37,3.82-6.42,1.01-2.85-3.91-5.67-3.16-9.17-.37-6.53,5.19-13.05,10.38-19.78,15.31-2.01,1.48-4.14,2.77-6.43,3.77-4.45,1.93-8.88,2.23-13.25-.25Z" style="fill: #983ba5; stroke-width: 0px;"/>
  <path d="M316.32,135.54c-1.17-.4-2.59-.5-3.48-1.24-6.13-5.12-13.54-5.44-21.76-5.64,9.39-2.33,17.26-.86,23.21,4.07,0-1.43,0-2.77,0-4.12,2.05,1.91,2.2,4.37,2.03,6.93Z" style="fill: #6d2180; stroke-width: 0px;"/>
  <path d="M271.59,219.88c-3.5,2.01-6.91,4.13-9.86,6.92-.88.75-1.87.99-2.99.7-.79.25-1.58.49-2.37.74-1.44-10.62-2.04-21.36-4.33-31.86-.07-.33.13-.72.21-1.08,5.65,3.83,9.12,9.3,11.79,15.42,1.33,3.05,2.2,6.4,5.05,8.56.87.04,1.8-.16,2.5.6Z" style="fill: #966ca1; stroke-width: 0px;"/>
  <path d="M267.63,150.97c-4.34,4.85-4.86,11.01-5.83,17.01-.22,1.34-.22,2.71-.86,4.06v-11.15c.53-4.81,2.38-9.14,4.79-13.27,1.13-1.11,2.26-2.23,3.4-3.34,1.46,1.51-.39,3.04.04,4.55-.51.71-1.03,1.43-1.54,2.14Z" style="fill: #100314; stroke-width: 0px;"/>
  <path d="M264.58,199.92c10.13,3.03,17.33-2.64,24.52-8.29,5.26-4.13,10.38-8.44,15.73-12.46,3.65-2.74,6.01-2.38,8.33.75.94,1.26,1.61,3.3,3.6,2.4,2.1-.95,3.05-3.06,2.57-5.32-.4-1.91-1.16-3.83-2.13-5.54-2.91-5.15-3.4-10.8-3.71-16.5,4,.87,6.55,6.68,4.08,9.63-1.48,1.77-.86,2.77.88,3.25,3.04.84,3.82,2.83,4.09,5.75.44,4.82,2.29,9.3,4.41,13.64-5.05,7.25-11.7,12.69-18.94,17.68-9.36,6.45-19.02,6.02-29.12,2.79-1.14-.37-2.28-1.09-3.56-.45-3.69-2.28-8.14-3.46-10.75-7.33Z" style="fill: #832d92; stroke-width: 0px;"/>
  <path d="M271.59,219.88c-.92.16-1.88.49-2.5-.6,1.79-3.25,3.58-6.49,5.37-9.74,2.03.1,2.73.96,2,3.01-.7,1.96-1.16,4.01-1.72,6.02-1.05.44-2.1.87-3.16,1.31Z" style="fill: #669760; stroke-width: 0px;"/>
  <path d="M294.02,246.98c-.64.79-1.04.12-1.49-.24-3.45-2.82-5.72-2.57-6.16,1.79-1,9.91-6.99,15.93-14.18,21.53-3.91,3.04-7.31,6.66-12.53,7.66-3.85.74-6.77,3.62-10.23,5.3-1.56.75-3.19,2.03-4.85,1.15-1.54-.82-.75-2.74-.72-4.14.17-8.23,1.44-16.3,3.65-24.23.33-1.19,1-2.31.7-3.62-.82-2.16,1.11-3.26,1.86-4.81,1.89-2.48,3.08-5.39,4.82-7.96.62-.92.79-2.56,2.59-2,1,2.69-.26,5.13-.9,7.61-1.02,3.92-.78,7.67,1.16,11.24,1.82,3.34,4.95,4.22,8.21,2.27,2.39-1.43,4.23-3.48,5.85-5.71,3.01-4.15,6.6-7.79,9.93-11.67,1.69-1.97,3.78-2.8,6.36-1.99,2.5,2.21,5.72,3.89,5.93,7.84Z" style="fill: #bf5eca; stroke-width: 0px;"/>
  <path d="M316.42,251.57c5.53,4,6.45,10.1,5.82,15.95-1.77,16.5-7.66,31.67-17.94,44.73-6.42,8.16-14.27,14.93-25.26,16.46.37-1.04,1.56-1.68,1.42-2.96-1.26-1.66-2.42-.27-3.38.29-1.39.81-2.74,1.6-4.29,2.15-1.55.55-2.55.14-2.88-1.27-1-4.23-3.38-3.89-6.34-2.14-.3.18-.72.13-1.09.19.32-2.22,2.1-3.42,3.64-4.53,2.5-1.8,4.23-.01,5.41,2.03,1.26,2.18,2.62,2.89,5.17,1.99,1.93-.68,3.84-.94,6.28.11,2.9,1.24,5.91-1.32,8.23-3.32,2.71-2.34,5.33-4.83,7.33-7.9,6.3-9.66,13.07-19.03,17.36-29.88,3.28-8.29,4.2-16.74,2.77-25.5-.15-.94-.19-.93-1.5-.36-1.03-1.91-.61-4-.74-6.02Z" style="fill: #2a6323; stroke-width: 0px;"/>
  <path d="M294.02,246.98c-1.3-3.04-3.93-4.99-6.02-7.37-3.02-3.23-6.08-6.43-8.99-9.76,4.78-3.2,10.3-3.18,15.06.05,0,.71-.01,1.42-.02,2.13.8,3.1,2.94,5.75,3.04,9.09-.49,1.85-.99,3.7-1.45,5.55-.32,1.3-1.02.49-1.61.32Z" style="fill: #450b58; stroke-width: 0px;"/>
  <path d="M250.55,247.83c-.78,1.45-1.56,2.89-2.34,4.34-3.71,5.97-4.06,12.8-5.23,19.49v-12.61c1.01-6.38,3.48-12.05,8.11-16.67,1.24-.13,1.44.67,1.21,1.57-.36,1.38-.91,2.7-1.75,3.89Z" style="fill: #0c0210; stroke-width: 0px;"/>
  <path d="M297.08,241.1c-1.24-2.95-4.27-5.31-3.04-9.08,1.93-.7,3.13.12,3.39,1.98.33,2.36.78,4.79-.36,7.1Z" style="fill: #802492; stroke-width: 0px;"/>
  <path d="M279.01,229.84c3.94,2.39,6.94,5.64,8.99,9.76-2.66-.3-4.63.79-6.29,2.84-3.05,3.76-6.21,7.42-9.33,11.12-.88,1.04-1.7,2.14-2.64,3.12-2.58,2.68-5.4,5.14-9.45,3.42-3.97-1.69-4.69-5.56-5.23-9.28-.69-4.7,1.94-8.92,2.25-13.49-.42-.55-.22-1.14-.08-1.81-2.56,1.28-3.03,4.77-6.01,5.47-.85.63-1.7,1.25-2.56,1.88l-.61-.53c3.56-4.95,7.12-9.9,10.68-14.85.83-.96,1.99-.5,2.99-.7-.49,1.86.27,1.68,1.21.66,2.48-2.7,5.41-4.7,8.83-5.99.42-.16.87-.27,1.61-.5-.95,2.07-2.53,3.1-3.73,4.43-1.22,1.35-1.22,2.24.83,2.19,3.08-.07,5.73,1.34,8.53,2.25Z" style="fill: #d396da; stroke-width: 0px;"/>
  <path d="M251.22,241c2.26-2.71,4.24-5.66,7.18-8.13.79,1.88-.82,3.03-1.09,4.46-2.78,3.16-3.66,7.54-6.77,10.5-.18-1.85,2.21-3.45.54-5.45.04-.46.09-.92.13-1.38Z" style="fill: #581569; stroke-width: 0px;"/>
</svg>