<?xml version="1.0" encoding="UTF-8"?>
<svg id="Layer_1" data-name="Layer 1" xmlns="http://www.w3.org/2000/svg" viewBox="0 0 564.3 598.93">
  <path d="M385.65,177.24c11.56.74,23.15,1.19,34.67,2.31,7.48.73,15.14,1.3,21.89,5.3,1.16.69,2.26,1.47,3.39,2.2,2.97,3.49,2.57,5.46-1.67,6.76-8.38,2.57-17.04,3.53-25.72,4.57-17.95,2.15-36.01,3.1-54.02,4.43-17.54,1.3-35.06,2.61-52.39,5.53-8.63,1.46-17.57,1.96-25.63,6.16-2.22,1.16-4.2,2.6-6.3,3.82-4.49,2.6-6.19,5.4-6.22,11.11-.02,5.4,1.13,9.1,5.03,12.15,2.14,1.67,3.19,3.77,3.77,6.24.42,1.76,1.25,2.66,3.21,3.01,3.86.68,4.82,2.05,4.92,6.07.03,1.08.24,2.04,1.05,2.68,3.29,2.65,6.07,5.99,10.01,7.76,6.88,3.09,10.34,8.76,11.79,15.81.45,2.17,1,3.91,2.85,5.37,2.33,1.86,2.88,5.17,5.17,7.17.26.23.33.78.18,1.07-1.93,3.5.48,5.4,2.57,7.59,1.76,1.84,2.54,4.13.61,6.37-1.63,1.9-.27,2.93,1.12,3.35,3.05.92,5.67,2.51,8.23,4.31.94.66,2.08.85,3.22.83,3.89-.06,7.68,1.02,11.52,1.19,7.85.34,15.65,1.4,23.48,1.75,6.03.27,11.88,1.36,17.77,2.43,1.71.31,3.48.77,3.95,2.88-2.84,2.34-6.24,3.48-9.7,4.5-11.94.37-22.92,3.48-32,11.6-4.46,3.99-9.2,6.87-15.29,8.03-7.59,1.45-14.95,4.22-21.89,7.57-7.54,3.64-12.46,10.38-16.29,17.58-3.21,6.05-7.73,10.45-13.07,14.57-11.76,9.06-20.98,19.88-22.3,35.69-.59,7.02-3.18,13.45-6.71,19.67-4.07,7.18-6.51,14.96-6.59,23.51-.06,6.29-.5,12.66-2.83,18.77-3.47,9.09-9.42,15.31-18.69,18.55-10.94,3.82-22.2,5.47-33.69,6.5-13.68,1.23-27.4,1.52-41.09,1.73-9.67.15-19.36.5-29.08-.04-7.67-.43-15.43-.39-23.16-.32-12.61.12-25.21-.03-37.82.05-11.61.07-23.19-.48-34.74-1.55-13.68-1.26-17.28-5.62-19.73-18.77-1.76-9.43-2.07-19.05-2.52-28.67-2.41-52.01-1.28-104.05-1.25-156.07.01-20.43.52-40.9,1.49-61.33.5-10.45.75-20.93,2.17-31.33,1.33-9.74,3.8-19,11.97-25.39,6.88-5.39,15.23-7.25,23.64-8.66,21.53-3.62,43.26-3.3,64.96-3.03,17.73.22,35.42-1.01,53.14-.94,5.27.02,10.57-.38,14.89-.19-2.15.15-5.25-.25-8.35-.51-2.54-.22-4.93-.89-6.33-3.36-.17-2.13-1.63-4.63,1.65-5.78.92,4.03,3.58,4.75,7.42,4.74,39.67-.13,79.35-.07,119.02-.1,4,0,7.97.33,11.94.66,3.97.32,4.5-.27,4.79-4.24.09-1.24.07-2.5.63-3.65,1.14-1.26,1.62-.27,1.99.66.5,1.28.34,2.66.35,4.01,0,1.54.07,3.01,1.99,3.41,7.39.15,14.78.06,22.16.03,2.71-.1,5.42-.06,8.12.03,1.52,0,3.05-.05,4.57.02.43,0,.86,0,1.29,0,1.71-.06,3.42-.02,5.13,0,1.73-.07,3.46-.05,5.19,0,3.5.08,6.94.97,10.46.74,1.58-.1,3.16-.04,4.74,0,3.67.25,7.49-1.04,10.96,1.1Z" style="fill: #dcad45; stroke-width: 0px;"/>
  <path d="M467.8,337.16c1.75,4.57,3.52,9.13,5.25,13.71.58,1.53,1.62,2.73,2.63,3.96,5.12,2.17,10.16,1.59,15.13-.52,4.73-2.01,9.51-3.5,14.69-1.81,6.81,2.05,11.15,6.47,12.83,13.42.5,1.58.43,3.16.04,4.74-.46,3.51-.8,7.04-1.41,10.52-.53,3.02,1.68,8.31,4.3,9.66,5.84,1.95,12.1,1.86,17.98,3.63,6.69,2.84,11.57,7.26,12.85,14.8.39,1.63.37,3.26.01,4.89-.08,2.48-1.47,4.44-2.62,6.48-.97,1.73-2.11,3.36-3.18,5.03-5.47,8.51-5.66,14.96,4.77,20.34,4.93,2.55,9.57,5.74,11.65,11.37-1.95.75-2.82-1.24-4.3-1.69-3.86-2.51-8.03-4.53-11.65-7.41-1.86-1.48-3.67-3-4.71-5.22-1.8-3.59-2.96-7.34-3.57-11.34-1.02-6.62,1.34-11.69,6.55-15.59,4.33-3.24,4.98-4.85,3.45-9.44-1.51-4.53-3.52-5.94-8.64-5.97-5.02-.03-10-.43-14.54-2.78-7.07-3.66-11.23-9.17-11.11-17.54.06-4.38.35-8.73,1.22-12.99.94-4.62-2.56-6.03-5.32-8.01-2.62-1.87-4.91-.96-7.02,1.06-1.35,1.3-2.85,2.42-4.42,3.44-3.56,2.3-7.28,3.03-11.35,1.26-3.76-1.64-7.75-2.79-11.11-5.26-4.62-3.66-7.24-8.61-9-14.09-.71-2.22-1.29-4.49-2.18-6.66-1.3-2.98-3.89-4.43-6.76-3.79-1.54.34-2.33,1.36-2.56,2.85-.24,1.52.14,2.96.5,4.43,1.1,4.5,2.89,8.76,4.6,13.05,1.83,4.59,4.91,8.06,9.18,10.49,4.26,2.41,8.75,4.21,13.54,5.3,2.71.62,4.87.8,6.85-1.93,1.74-2.4,5.46-1.35,7.03,1.66.94,1.8,1.19,3.81,1.43,5.79,1.88,15.51,10.49,26.33,23.81,33.65,3.11,1.71,6.68,2.73,10.15,3.73,2.23.64,4.02,1.59,4.24,4.09.24,2.71.89,5.8-1.9,7.54-4.06,2.54-4.27,6.09-3.38,10.12.49,2.19.91,4.42,1.66,6.53,2.02,5.69,4.47,10.96,9.93,14.49,4.08,2.64,8.31,5.05,12.38,7.72,2.99,1.96,4.64,1.14,5.76-2.39.39-1.25.32-2.88,2.33-2.77,1.72,8.79-1.11,15.34-9.24,19.57-2.85,1.48-5.54,3.4-7.99,5.48-4.29,3.64-5.18,8.48-2.56,13.47,1.74,3.3,3.69,6.51,5.78,9.6,6.75,10.01.14,25.16-13.58,25.33-3.23.04-6.44.55-9.6,1.35-6.17,1.56-9.31,5.41-9.12,11.81.12,3.97.44,7.98,1.08,11.9,1.73,10.52-11.16,20.44-20.47,16.47-2.97-1.27-6.12-2.1-9.18-3.15-8.26-2.84-13.81-.27-16.92,7.93-1.15,3.03-2.09,6.13-3.28,9.14-4.08,10.27-16.28,13.6-24.98,6.7-3.11-2.47-5.82-5.44-8.72-8.18-5.48-5.18-10.44-5.4-16.23-.47-2.94,2.5-5.52,5.42-8.4,8-1.92,1.72-3.86,3.6-6.73,3.64-.7-.72-1.64-.44-2.47-.6-6.5-1.25-11.25-4.58-13.33-11.13-.83-2.62-1.91-5.15-2.87-7.72-3.15-8.47-9.91-11.72-18.55-9.03-2.86.89-5.58,2.11-8.38,3.17-9.79,3.69-22.8-5.33-20.45-16.94.57-2.82.74-5.69,1.13-8.53.99-7.15-2.41-12.49-9.23-14.72-3.47-1.13-7.08-1.54-10.69-1.71-7.92-.38-12.49-4.93-15.22-11.87-.97-2.46-.56-4.87.5-7.26,1.79-4.02,4.5-7.49,6.56-11.34,1.97-3.69,3.41-7.52,2.19-11.82-1.25-4.42-4.73-6.93-8.15-9.42-2.42-1.76-5-3.3-7.56-4.86-7.28-4.42-8.01-18.15-.12-22.75,2.79-1.63,5.45-3.5,8.26-5.13,7.63-4.41,9.83-11.56,6.07-19.5-1.72-3.63-4.07-6.87-6.32-10.17-1.9-2.79-2.29-5.63-1.28-8.87,3.13-10,7.48-13.4,18.23-13.81,2.63-.1,5.23-.23,7.8-.8,4.8-1.07,7.89-4.37,8.29-9.32.28-3.48.63-7.06-.18-10.45-2.38-9.98,2.51-16.17,10.36-21,2.76-.55,5.57-.76,8.37-1.06.39.02.78.09,1.17.18,2.95.78,5.89,1.62,8.61,3.08,7.43,3.82,11.7,2.4,15.41-5.06,1.51-3.03,2.33-6.31,3.57-9.43,3.47-8.72,8.42-12.03,18.02-12,5.29.95,8.47,4.81,11.78,8.51,2.09,2.08,3.86,4.55,6.86,5.5,3.91,2.64,7.71,2.07,11.42-.41,3.12-2.09,5.59-4.89,8.18-7.55,4.13-4.24,9.05-6.38,14.99-6.1,5.11,1.17,9.71,2.99,11.13,8.81Z" style="fill: #1c93e5; stroke-width: 0px;"/>
  <path d="M467.8,337.16c-2.57-4.15-6.15-6.91-10.96-8-1.93-.62-4.23.1-5.85-1.65-.88-1.44-1.24-3.03-1-4.67.86-5.84.24-11.72.51-17.57,1.3-28.8.51-57.62.75-86.43.03-3.77-.39-7.48-1.33-11.12-.92-3.57-2.5-4.68-6.21-4.62-2.39.04-4.79.35-6.98,1.22-5.79,2.31-11.12,5.57-16.7,8.32-1.96.97-2.91,2.99-3.18,5.25-.8,6.7-1.26,13.39-.23,20.13,1.95,12.83,2.15,25.82,3.16,38.73,1.02,12.95,3.31,25.71,6,38.41.93,4.41,3.25,7.38,7.29,9.28,2.42,1.14,5.2,2.05,6.04,5.14-.11,1.05-.83,1.5-1.74,1.75-6.16-1.41-12.22-3.22-18.6-3.61-5.86-.36-11.62.33-17.4,1-2.46-.54-5.24,1.16-7.45-1.08-3.5-3.58-8.34-2.96-12.58-3.46-10.08-1.19-20.19-2.25-30.38-2.49-5.18-.12-10.27-1.76-15.53-1.45-.95.06-1.57-.63-2.27-1.16-2.15-1.63-4.16-3.34-7.11-3.68-1.96-.23-3.75-1.47-3.39-4.09.06-.43-.3-.84.24-1.26,2.73-2.09,2.81-2.73.63-5.1-.84-.92-1.63-2-2.68-2.59-2.09-1.17-2.71-2.24-.68-4.09.63-.57,1.51-2.23.54-2.57-2.72-.96-2.53-4.47-3.8-5.11-5.42-2.72-3.83-8.34-5.99-12.3-2.22-4.08-4.54-7.88-9.11-9.69-4.87-1.94-7.97-6.26-12.13-9.18-.85-.59-.63-1.52-.43-2.4.84-3.72-1.35-6.06-4.94-4.93-1.93.61-1.92-.55-2.1-1.55-.78-4.17-2.4-7.61-6.36-9.86-2.67-1.52-1.91-5.6-4.6-7.37-.07-.05-.11-.3-.06-.35,3.28-3.21,1.65-6.79.97-10.4-.23-1.21,1.19-2.42,2.45-2.41,2.46.02,3.81-1.4,5.13-3.09,1.35-1.73,3.29-2.4,5.25-3.23,12.7-5.35,26.25-6.4,39.68-8.26,13.52-1.87,27.1-2.75,40.68-3.85,9.76-.79,19.56-1.08,29.29-2.11,8.61-.91,17.23-1.87,25.84-2.67,7.46-.69,14.7-2.02,21.9-3.86,4.88-1.24,4.86-1.32,3.22-6.05,7.09,3.23,11.16,9.25,14.53,15.85,3.42,6.68,4.2,14.03,4.89,21.33,2.11,22.38,2.11,44.84,2.58,67.29.29,13.73.32,27.45.45,41.17.01,1.49-.16,2.98-.25,4.47Z" style="fill: #e2ba51; stroke-width: 0px;"/>
  <path d="M163.88,176c5.8,3.48,12.69,1.79,18.83,3.86-10.62-.17-21.14.97-31.69,1.24-25.88.65-51.77.3-77.64.78-8.23.15-16.51,1.4-24.75,2.48-6.62.87-12.88,2.5-19.13,4.61-8.78,2.96-13.92,9.47-16.76,17.83-2.89,8.52-3.39,17.57-3.73,26.44-.82,21.52-1.29,43.06-1.87,64.59-.61,22.45-.22,44.89-.46,67.33-.22,19.97-.38,39.96.08,59.92.26,11.45.16,22.93.74,34.36.61,12,1.16,24.02,2.82,35.96,1.57,11.27,7.75,16.62,19.08,17.53,27.76,2.23,55.56.87,83.33,1.51,5.89.14,11.79-.05,17.71.35,5.66.38,11.56-.08,17.3-.2,8.9-.19,17.88-.05,26.76-.45,12.48-.57,25-1.04,37.38-3.31,5.67-1.04,11.04-2.86,16.52-4.4,12.7-3.56,19.63-16.34,20.15-28.09.47-10.57.62-21.41,6.52-30.55,5.92-9.18,6.8-19.56,9.17-29.63,1.8-7.64,6.07-13.84,11.53-19.26,4.59-4.56,9.34-8.92,14.79-12.51,3.18-2.1,4.79-5.62,6.64-8.89,4.58-8.07,9.64-16.04,18.53-19.8,7.52-3.19,15.17-6.46,23.34-7.66,5.35-.79,8.92-4.07,12.61-7.37,8.85-7.92,19.58-10.9,31.09-11.86.75-.06,1.5-.01,2.1.56-.28,1.85-1.6,2.77-3.1,3.55-10.14,2.33-19.08,7.05-27.11,13.6-.96.78-1.73,1.81-2.91,2.32-6.94-.05-12.51,3.02-17.42,7.62-11.38,4.84-21.68,10.8-26.03,23.5-2.25,6.57-6.86,11.49-12.05,15.94-4.17,3.57-8.37,7.11-12.25,11-2.75,2.75-4.42,6.09-4.86,9.9-.45,3.96-1.18,7.9-1.04,11.92.29,7.85-1.86,15.17-5.88,21.74-5.45,8.91-5.53,18.14-3.02,27.78.25.97.57,1.92.94,2.84,5.24,13.47.56,24.86-7.54,35.47-2.1,2.75-5.09,4.33-8.39,5.36-8.4,2.63-17.05,3.59-25.78,4.24-16.8,1.25-33.63,1.29-50.45,1.62-12.46.25-24.94,1.13-37.36.48-17.47-.92-34.94,0-52.37-.78-8.98-.4-17.97-.06-26.91-.72-8.79-.65-17.65-.69-26.37-2.18-.53-.09-.97.12-1.39.4-11.57-2.02-20.38-7.85-25.38-18.72-2.17-4.71-3.53-9.69-3.86-14.9-.85-1.67.15-3.56-.61-5.24-.77-3.43-.98-6.91-.93-10.42-1.03-3.47.6-7.09-.58-10.56-.06-1.97-.11-3.94-.17-5.91-.78-2.99.18-6.08-.54-9.07-.06-2.98-.13-5.96-.19-8.94-.62-9.42-.37-18.85-.11-28.27.07-2.63-.22-5.17-.47-7.74-.06-14.21-.12-28.43-.17-42.64-.48-6.54-.48-13.09,0-19.63.06-14.46.12-28.93.18-43.39.62-9.91.1-19.82.29-29.73.03-1.6-.3-3.22.28-4.79.07-3.48.14-6.95.21-10.43.7-2.74-.23-5.58.54-8.31.07-2.47.13-4.95.2-7.42.75-2.98-.24-6.07.56-9.04.07-1.23.13-2.46.2-3.69.62-1.21-.12-2.61.54-3.81.07-1.23.14-2.46.21-3.69.58-1.24-.07-2.63.49-3.87,1.72-20.74,15.95-33.73,35.93-35.9,4.51-.49,8.95-1.7,13.54-1.48,2.48-.77,5.09.2,7.57-.55.98-.06,1.96-.13,2.93-.19,2.96-.85,5.89.48,8.86.1,1.33-.17,2.75.17,3.93-.79.74-.02,1.48-.03,2.21-.05,2.6-.89,5.4.34,7.98-.71l.2-.02c3.38-2,7.08-.76,10.63-1.09,1.91.08,3.82.35,5.7-.28.42-.14.85-.22,1.28-.29,6-.34,12.01-.18,18.01-.12.88-.09,1.75-.04,2.63,0,1.3-.04,2.61-.03,3.91,0,1.33-.11,2.65-.02,3.98-.02,4.1-.16,8.2-.08,12.3-.03,5.2-.07,10.42.4,15.61-.26.95-.12,1.85-.07,2.41.89Z" style="fill: #c08328; stroke-width: 0px;"/>
  <path d="M125.7,176.34l-2.26-.02c-1.91-.83-1.99-2.73-2.5-4.35-.97-3.05-1.17-6.36-3.09-9.44-1.79,1.43-2.04,3.53-3.1,5.09-1.57,2.32-3.17,4.65-6.42,4.38-3.2-.27-4.63-2.62-5.7-5.27-.7-1.74-1.38-3.54-1.51-5.39-1.39-19.25-.25-38.15,8.11-56.01,1.68-3.58,4.39-6.34,6.87-9.29,1-1.18,2.32-2.03,3.96-1.61,3.11.79,4.6-.85,5.72-3.42,4.99-11.51,11.39-22.15,19.39-31.85,13.8-16.74,31.02-27.99,52.31-32.65,15.48-3.38,31.18-5.08,46.99-6.3,12.92-1,25.86-1.51,38.77-2.65,8-.71,15.92.66,23.83,1.71,1.82.24,3.63.64,6.27.55-5.26-4.42-10.65-7.22-16.04-10.05-1.49-.78-3.79-.95-3.74-3.48,8.71,2.84,17.1,6.39,24.91,11.24,1.41.88,2.85,1.7,4.27,2.55,4.86,4.45,10.29,8.28,14.59,13.35,1.57,1.85,4.54,4.01,2.69,6.24-2.08,2.52-4.42-.64-6.36-1.81-11.82-7.12-24.42-11.97-38.26-13.03-8.45-.65-16.51,1.2-24.75,4.53,1.94,1.39,3.76,1.81,5.52,2.18,25.84,5.31,43.34,21.35,56.12,43.49,9.62,16.66,13.89,34.83,15.52,53.84,1.1,12.92.91,25.89,2.05,38.81.25,2.88.94,5.99-.88,8.74-.25,0-.5-.01-.76-.02-2.9-4.95-2.72-10.57-3.19-15.96-1.26-14.4-1.55-28.91-4.05-43.17-2.5-14.23-6.6-28.03-15.19-39.91-3.23-4.47-6.27-9.18-10.35-13.62-.42,1.59.36,2.11.9,2.59,7.15,6.38,10.19,15.23,13.89,23.61,2.62,5.94,3.7,12.42,5.05,18.77.9,4.22-.42,8.42-.58,12.64-.05,1.31-.98,2.31-2.44,2.42-1.44.11-2.35-.79-2.95-1.94-1.54-3-2.88-6.1-4.01-9.27-4.95-13.93-11.26-27.19-19.35-39.59-1.78-2.73-3.19-5.65-4.4-8.67-.67-1.67-1.09-3.42.19-4.96,1.39-1.68,3.16-1,4.84-.5,1.16.35,2.23,1.07,3.46.94.39-.88.04-1.48-.47-1.75-6.08-3.2-11.17-7.9-17.33-11.04-7.68-3.91-15.92-5.1-24.26-5.65-16.19-1.07-32.41-1.22-48.63-.78-5.08.14-10.16.89-15.22,1.66-13.75,2.1-22.12,10.97-27.92,22.59-6.87,13.74-12.73,27.92-16.18,43-1.91,8.32-2.78,16.77-3.16,25.21-.48,10.58-1.23,21.16-.98,31.78.09,3.79-.03,7.76-2.4,11.12-.82.25-1.64.3-2.44-.08-.61-.72-.71-1.59-.6-2.47.88-7.21.41-14.46.4-21.68-.06-26.88,4.78-52.82,14.51-77.86,1.76-4.54,2.96-9.27,4.4-13.91.48-1.54.98-3.35-.58-4.51-1.37-1.02-2.92-.22-4.23.48-8.26,4.4-14.26,11.17-19.45,18.76-10.17,14.89-15.2,31.56-17.19,49.31-1.75,15.53-1.5,31.11-1.53,46.69,0,1.95.46,4.04-1.08,5.72Z" style="fill: #454545; stroke-width: 0px;"/>
  <path d="M98.84,177.04c-3.8.05-7.61.1-11.41.15.08-4.74.16-9.47.23-14.21.75-3.83-.23-7.74.54-11.56.05-2.14.11-4.27.16-6.41.85-3.07-.18-6.26.59-9.33-.2-3.43.1-6.81.91-10.14.82-1.72-.17-3.66.62-5.39,1.19-13.34,4.94-26.04,10.02-38.34,9.04-21.9,22.16-40.87,40.8-55.77,17.37-13.88,37.05-21.96,59.25-24.26,22.05-2.29,44.07-2.21,66.13-.57,1.23.09,2.43.44,3.65.66,3.89,1.21,7.96,1.68,11.88,2.8,2.9.83,5.67,1.91,8.33,3.3,1.21.63,2.65,1.34,2.52,2.94-.15,1.83-1.88,2.16-3.3,2.55-2.65.73-5.38,1.34-8.1,1.36-6.61.06-13.2.47-19.8.85-14.31.83-28.62,1.44-42.85,3.31-7.18.94-14.29,2.15-21.34,3.79-9.45,2.2-18.27,5.96-26.72,10.58-6.59,3.6-12.4,8.38-18.12,13.2-11.98,10.09-22.55,21.55-31.81,34.15-12.77,17.38-19.19,37.02-20.52,58.5-.52,8.48-1.09,16.9,0,25.38.4,3.16,1.14,6.11,2.74,8.86.55.95,1.32,1.87.88,3.11l-.02-.02c-1.68.78-3.52-.05-5.22.52Z" style="fill: #3d3a39; stroke-width: 0px;"/>
  <path d="M348.98,176.39c-.5-14.03-.68-28.08-1.6-42.08-1.18-18.03-4.18-35.83-12.36-52.15-10.9-21.77-26.15-39.19-50.12-47.35-4.36-1.49-9.03-1.64-13.24-3.58-1.1-.51-2.91-.55-2.98-1.84-.09-1.77,1.89-1.07,2.92-1.49,7.09-2.87,14.48-4.53,22.13-4.19,12.62.57,24.35,4.44,35.38,10.47,2.94,1.61,5.73,3.48,8.62,5.18.58.34,1.39,1.01,1.94.11.24-.39.06-1.23-.19-1.72-1.39-2.7-3.7-4.68-5.85-6.68-3.08-2.88-5.77-6.21-9.36-8.55-.81-.53-1.51-1.33-1.54-2.45,14.65,9.1,26.25,21.33,35.68,35.58,16.21,24.48,24.18,51.66,25.88,80.85.79,13.57,1.38,27.15,1.35,40.75-3.74-.04-7.48-.08-11.22-.11-1.54-5.47-.93-11.11-.94-16.64-.01-14.1-.45-28.15-2.33-42.13-2.97-22.06-11.13-41.84-26.16-58.49-4.63-5.13-10.33-8.99-16.31-12.41-1.08-.62-2.47-1.39-3.47-.42-1.1,1.06-.02,2.35.56,3.4,3.03,5.45,6.49,10.63,9.52,16.09,10.15,18.28,15.83,37.87,17.75,58.62.88,9.55,1.25,19.13,1.53,28.71.18,5.97.85,11.93.66,17.91-.05,1.6.2,3.28-1,4.63-1.76,0-3.51-.01-5.27-.02Z" style="fill: #51504f; stroke-width: 0px;"/>
  <path d="M311.35,532.13c-13.93.04-27.86.09-41.79.13-2.16-1.95-1.28-3.95.27-5.55,2.88-2.95,4.15-6.32,4.11-10.44-.03-2.87.88-5.7,2.22-8.25,2.53-4.83,3.55-10.1,4.66-15.33,1.21-5.66.19-10.9-3.36-15.57-.83-1.09-1.62-2.21-2.3-3.41-2-3.49-2.52-6.94-.26-10.58,5.31-8.56,7.89-17.95,8.46-27.97.16-2.87.25-5.72-.23-8.57-.86-5.08.41-9.61,3.6-13.66,3.16-4.02,6.44-7.94,9.79-11.8,1.34-1.54,2.64-3.54,5.28-2.35.73,1.51-.02,2.88-.44,4.26-.9,3-1.13,6.01-.43,9.07,1.1,5.55,4.53,9.93,7.32,14.63,2.81,4.74,2.2,8.29-2.01,11.82-2.69,2.25-5.66,4.09-8.69,5.81-12.87,7.29-10.39,26.59-.91,32.36,2.97,1.81,5.95,3.64,8.8,5.66,4.86,3.46,5.27,5.05,2.64,10.27-1.57,3.12-3.53,6.03-5.36,8.98-4.65,7.53-1.91,24.17,7.16,28.6.71.35,1.67.72,1.48,1.88Z" style="fill: #9f5e1b; stroke-width: 0px;"/>
  <path d="M301.81,398.99c-2.27-.35-3.4,1.34-4.57,2.73-3.45,4.07-6.83,8.2-10.16,12.36-2.62,3.26-3.67,7.12-3.2,11.2,1.37,11.89-.04,23.24-5.82,33.88-.71,1.31-1.18,2.79-2.03,4-3.11,4.37-1.73,8.42,1.22,11.91,5.58,6.59,6,13.83,3.8,21.71-1.2,4.31-2.2,8.65-4.41,12.62-.82,1.48-1.35,3.31-1.4,4.99-.17,5.38-1.13,10.32-5.54,14.02-1.26,1.06-.34,2.56-.13,3.86-6.1.08-12.19.25-18.29.24-31.38-.05-62.76-.14-94.14-.22-.99,0-1.99-.09-2.98-.14-7.81-.51-15.63-.08-23.44-.24-1.48-.03-2.98.28-4.43-.27-8.69-.08-17.38-.15-26.07-.23-4.27-.72-8.62.26-12.89-.52-4.19-.08-8.39-.16-12.58-.24-2.77-.68-5.64.24-8.4-.51-1.94-.07-3.88-.14-5.82-.21-1.77-.66-3.68.14-5.45-.52-1.93-.09-3.87-.18-5.8-.27-1.49-.56-3.12.18-4.6-.51-3.81.22-7.47-.52-11.08-1.64.12-.63.31-1.34,1.08-1.28,7.88.63,15.75,1.31,23.62,1.96,1.12.09,2.24.13,3.36.14,23.32.15,46.63.72,69.94.98,10.44.12,20.93.77,31.36.38,13.89-.51,27.8-.05,41.66-.75,13.97-.71,27.98-1.08,41.86-3.48,14.54-2.52,20.22-10.57,23.97-24.85,1.66-6.32.31-11.89-1.62-17.72-3.54-10.73-3.51-21.05,2.88-31.12,3.73-5.89,5.72-12.73,5.3-19.91-.25-4.27.59-8.43.96-12.63.58-6.55,5.03-10.92,9.76-14.92,8.56-7.23,17.44-14.07,21.06-25.49,2.97-9.36,11.37-13.45,18.98-18.13,2.05-1.26,4.06-3.05,6.85-2.4.73,1.48-.3,2.42-1.06,3.44-11.03,8.01-19.4,18.05-23.65,31.21-2.72,2.17-4.96,4.94-8.11,6.58Z" style="fill: #b27428; stroke-width: 0px;"/>
  <path d="M476.34,359.22c2.81,1.29,5.73,2.39,8.41,3.91,6.78,3.86,12.33,1.8,17.49-3.16,4.09-3.94,13.23-1.59,14.31,3.94.54,2.77-.48,5.87-.89,8.81-.58,4.22-.9,8.5.04,12.62,1.56,6.85,8.68,12.61,15.75,13.67,3.59.54,7.16.82,10.77.69,4.47-.15,5.93,3.17,7.23,6.4,1.35,3.36,1.98,7.11-1.75,9.35-4.42,2.66-7.68,6.2-8.31,11.2-.6,4.81.43,9.65,2.75,14.07.4.76.58,1.63.86,2.44-1.68.62-2.14-1.42-3.9-1.67.35,2.92,1.63,5.18,3.54,7.12,4.56,4.64,10.38,7.63,15.4,11.66.39.31.88.61,1.35.33.63-.37.53-1.05.48-1.67-.1-1.35-1.66-2.25-1.14-3.79,1.8-.08,2.42,1.94,4.01,2.25.7.61.93,1.45,1.09,2.32-1.57.77-1.2,2.25-1.4,3.58-.51,3.39-3.45,4.85-6.32,3.06-5.57-3.5-11.19-6.96-16.54-10.78-3.34-2.39-4.86-6.39-6.15-10.08-1.84-5.3-4.31-10.66-2.46-16.61.36-1.16.79-2.3,1.88-2.6,4.88-1.33,3.22-5.2,3.27-8.32.02-1.17-.98-2.08-2.13-2.35-6.96-1.59-13.54-4.21-19.08-8.66-7.13-5.73-12.65-12.78-15.4-21.76-1.21-3.94-1.53-7.99-2.25-11.99-.4-2.19-1.65-3.59-3.82-4.08-2.15-.49-2.78,1.17-3.5,2.63-.62,1.27-1.4,1.81-2.96,1.5-7.51-1.5-14.63-3.78-20.86-8.5-2.28-1.73-3.91-3.88-5.1-6.28-2.71-5.46-4.71-11.23-6.25-17.13-.95-3.65.33-6.46,2.9-7.14,3.53-.93,7.42,1.38,8.19,4.86-2.06.38-2.54-2.81-5.31-1.92,3.2,5.59,4.57,11.86,7.66,17.46,1.15,2.07,2.24,4.15,4.1,5.68,1.15.94,2.29,1.91,3.92,2.02,1.12-.98-.65-2.07.11-3.04Z" style="fill: #48a7e9; stroke-width: 0px;"/>
  <path d="M104.07,176.54c-4.5-5.13-5-11.53-5.22-17.84-.22-6.2.04-12.41.5-18.63.56-7.45,1.45-14.81,3.2-22.04,4.28-17.75,12.72-33.32,24.82-47.01,5.36-6.06,10.53-12.28,16.43-17.83,13.5-12.72,28.1-23.77,46.14-29.36,10.09-3.13,20.44-5.03,30.93-6.17,14.68-1.6,29.43-2.22,44.15-3.21,8.13-.55,16.45.61,24.43-1.96,1.15-.37,2.81-.21,2.94-1.71.12-1.29-1.47-1.52-2.42-2-5.34-2.75-11.15-4.1-16.97-5.31-1.17-.24-2.19-.39-2.69-1.61,7.98.27,15.72,1.82,23.26,4.41,5.35,3.11,10.73,6.18,16.04,9.36,1.48.89,2.82,2.04,4.13,3.17.6.52,1.66,1.15,1.03,2.11-.55.84-1.55.32-2.4.18-9.19-1.42-18.43-3.32-27.71-2.56-12.72,1.05-25.51,1-38.21,2.61-5.18.66-10.77.24-15.9.99-6.93,1.01-13.94,1.58-20.86,2.9-10.27,1.96-20.43,4.17-30.03,8.31-8.02,3.46-15.24,8.4-21.81,14.09-10.62,9.21-18.87,20.42-25.75,32.61-2.13,3.77-3.71,7.84-5.51,11.78-1.26,2.78-2.7,5.25-6.36,3.51-1.53-.73-2.34.13-3.19,1.06-3.97,4.34-7.29,9.06-9.34,14.67-5.73,15.71-6.61,32.01-5.85,48.47.15,3.21,1.17,6.37,2.85,9.19,1.72,2.87,4.71,3.21,7.19.98,2.03-1.83,2.89-4.33,3.99-6.69.46-.98.38-2.56,1.65-2.66,1.72-.13,1.56,1.74,1.91,2.77,1.45,4.35,2.7,8.75,4.03,13.14-6.46.07-12.92.15-19.37.22Z" style="fill: #454544; stroke-width: 0px;"/>
  <path d="M311.35,532.13c-10.35-4.98-15.19-19.53-9.88-30.12,1.55-3.1,3.6-5.95,5.38-8.95,3.14-5.28,2.88-6.54-2.16-10-3.28-2.25-6.79-4.19-9.92-6.63-8.63-6.71-9.54-22-1.79-29.66,1.65-1.64,3.76-2.82,5.69-4.17,2.44-1.71,5.05-3.21,7.33-5.11,3.67-3.06,3.79-5.85,1.43-10.08-2.67-4.8-6.67-8.99-7.22-14.83-.34-8.46,3.95-14,11.23-17.56,3.47-1.7,7.09-2.99,11.04-3.06,1.62-.03,3.21-.35,4.79-.67,3.78-.77,4.81-2.23,4.51-6.28.26-3.47.45-6.95.48-10.44.66-2.74,1.3-5.49,1.88-8.26,1.11-5.3,4.12-9.48,8.92-12.16,1.56-.87,3.19-2.05,5.15-.87-2.17,2.36-4.64,4.42-6.89,6.7-3.65,3.71-3.22,7.96-2.55,12.16.69,4.25.65,8.48.33,12.65-.48,6.35-5.74,10.1-13.7,10.38-2.6.09-5.17.19-7.78.64-7.52,1.32-13.46,8-13.61,15.73-.03,1.73.78,3.05,1.64,4.46,3.08,5.05,7.21,9.5,8.25,15.7,1.3,7.77-2.79,12.69-7.61,15.51-2.89,1.69-5.82,3.3-8.52,5.33-7.6,5.71-7.33,15.97.53,21.49,3.75,2.64,7.8,4.75,11.32,7.85,6.42,5.65,5.53,12.92,1.95,19.22-1.84,3.24-3.99,6.31-5.71,9.61-3.64,6.97.79,16.68,8.51,18.49,3.72.87,7.57,1.21,11.39,1.55,10.07.89,15.71,8.44,13.74,18.42-.53,2.66-.56,5.42-1.03,8.1-1.81,10.31,11.38,19.25,22.13,14.13,2.8-1.33,5.6-2.57,8.68-3.25,8.34-1.85,14.24,3.59,16.49,9.81,1.01,2.81,2.09,5.59,3.03,8.42,1.86,5.62,5.81,8.79,11.45,10.09,1.29.3,2.84.14,3.43,1.79,0,0-.22.14-.22.14l-.25-.06c-1.88.34-3.75.41-5.63-.04-9.05-.54-12.7-7.05-15.64-14.26-.97-2.39-1.68-4.9-2.57-7.33-1.69-4.58-4.35-6.33-9.29-6.27-5.4.07-10.04,2.92-15.13,4.11-.71.17-1.41.34-2.12.5-1.57.47-3.15.43-4.72.03-7.4-1.14-14.28-9.25-14.22-15.77-.63-4.04-.87-8.12-.03-12.12.63-3.02.29-5.88-.36-8.78-2.22-3.34-5.81-3.98-9.33-4.56-4.25-.71-8.54-1.17-12.82-1.74Z" style="fill: #2864c9; stroke-width: 0px;"/>
  <path d="M505.5,352.49c-6.92-1.11-12.77,2.56-19.04,4.32-3.96,1.11-7.57.77-10.78-1.99,3.91.56,7.31-1.23,10.72-2.59,6.47-2.57,12.77-2.41,19.1.26Z" style="fill: #728ed2; stroke-width: 0px;"/>
  <path d="M333.5,538.44c2.87,3.39,1.78,7.32,1.09,10.95-.63,3.33-.41,6.64-.71,9.94-2.51-6.92-.76-13.92-.39-20.9Z" style="fill: #1c93e5; stroke-width: 0px;"/>
  <path d="M539.24,394.46c-4.8,0-9.53-.7-14.21-1.65-1.34-.27-3.03-.37-3.77-1.99,6.25-.04,12.32.81,17.98,3.63Z" style="fill: #48a7e9; stroke-width: 0px;"/>
  <path d="M.74,407.22c1.96,3.48.77,7.14.71,10.76-.15,8.41-.1,16.83-.12,25.25-1.01-4.15-.49-8.38-.55-12.57-.13-7.81-.03-15.63-.03-23.44Z" style="fill: #dcad45; stroke-width: 0px;"/>
  <path d="M1.31,267.03c.02,10.94.06,21.89.04,32.83,0,.56-.4,1.13-.61,1.69-.04-11.51-.49-23.03.57-34.52Z" style="fill: #dcad45; stroke-width: 0px;"/>
  <path d="M126.29,531.64c8.59-.03,17.19-.05,25.78-.08.75,0,1.5,0,2.08.59-9.29.01-18.59.33-27.87-.51Z" style="fill: #c08328; stroke-width: 0px;"/>
  <path d="M77.02,177.96c-2.29,2.88-5.4,1.16-8.14,1.34-1.53.1-3.1-.41-4.65-.65,4.21-1.23,8.51-.79,12.79-.69Z" style="fill: #dcad45; stroke-width: 0px;"/>
  <path d="M.56,344.95c0,6.54,0,13.09,0,19.63-.76-6.54-.75-13.09,0-19.63Z" style="fill: #dcad45; stroke-width: 0px;"/>
  <path d="M87.33,530.89c4.3.14,8.64-.77,12.89.52-4.31.06-8.62.36-12.89-.52Z" style="fill: #c08328; stroke-width: 0px;"/>
  <path d="M2.23,467.14c1.98,3.42.15,7.05.58,10.56-1.14-3.47-.63-7.03-.58-10.56Z" style="fill: #dcad45; stroke-width: 0px;"/>
  <path d="M88.19,151.41c-.08,3.86.75,7.76-.54,11.56-.06-3.87-.23-7.74.54-11.56Z" style="fill: #454545; stroke-width: 0px;"/>
  <path d="M88.94,135.67c-.14,3.11.83,6.3-.59,9.33-.06-3.13-.26-6.26.59-9.33Z" style="fill: #454545; stroke-width: 0px;"/>
  <path d="M2.81,231.83c-.04,3.02.7,6.09-.56,9.04-.06-3.03-.54-6.08.56-9.04Z" style="fill: #dcad45; stroke-width: 0px;"/>
  <path d="M1.51,452.16c1.24,2.96.57,6.03.54,9.07-.95-2.98-.63-6.03-.54-9.07Z" style="fill: #dcad45; stroke-width: 0px;"/>
  <path d="M2.06,248.3c.01,2.78.71,5.61-.54,8.31-.08-2.79-.4-5.59.54-8.31Z" style="fill: #dcad45; stroke-width: 0px;"/>
  <path d="M66.35,530.14c2.8.12,5.67-.74,8.4.51-2.81.03-5.65.39-8.4-.51Z" style="fill: #c08328; stroke-width: 0px;"/>
  <path d="M87.22,177.2c-2.53,1.68-5.31.57-7.98.71,2.59-.99,5.34-.25,7.98-.71Z" style="fill: #dcad45; stroke-width: 0px;"/>
  <path d="M61.3,178.84c-2.44,1.25-5.03.56-7.57.55,2.47-.96,5.03-.61,7.57-.55Z" style="fill: #dcad45; stroke-width: 0px;"/>
  <path d="M90.47,120.14c-.11,1.81.67,3.72-.62,5.39-.03-1.82-.28-3.67.62-5.39Z" style="fill: #454545; stroke-width: 0px;"/>
  <path d="M397.59,598.32c1.87.01,3.75.02,5.63.04-1.88.8-3.75.75-5.63-.04Z" style="fill: #1c93e5; stroke-width: 0px;"/>
  <path d="M55.08,529.4c1.83.06,3.73-.67,5.45.52-1.84.08-3.7.32-5.45-.52Z" style="fill: #c08328; stroke-width: 0px;"/>
  <path d="M3.74,488.12c1.21,1.63.53,3.48.61,5.24-1.13-1.64-.67-3.47-.61-5.24Z" style="fill: #dcad45; stroke-width: 0px;"/>
  <path d="M518.37,370.66c-.01-1.58-.03-3.16-.04-4.74.78,1.57.75,3.16.04,4.74Z" style="fill: #48a7e9; stroke-width: 0px;"/>
  <path d="M552.11,414.15c0-1.63,0-3.26-.01-4.89.93,1.63.96,3.26.01,4.89Z" style="fill: #48a7e9; stroke-width: 0px;"/>
  <path d="M348.11,575.1c1.57,0,3.15-.02,4.72-.03-1.57.65-3.14.76-4.72.03Z" style="fill: #1c93e5; stroke-width: 0px;"/>
  <path d="M44.68,528.63c1.55.06,3.17-.56,4.6.51-1.56.08-3.13.2-4.6-.51Z" style="fill: #c08328; stroke-width: 0px;"/>
  <path d="M3.56,224.34c.1,1.31.49,2.66-.54,3.81-.12-1.31-.25-2.62.54-3.81Z" style="fill: #dcad45; stroke-width: 0px;"/>
  <path d="M4.26,216.78c.1,1.32.55,2.69-.49,3.87-.1-1.33-.43-2.68.49-3.87Z" style="fill: #dcad45; stroke-width: 0px;"/>
  <path d="M309.58,167.21c-.04,1.12-.1,2.24-.12,3.35-.06,6.32,1.02,5.74-5.81,5.64-43.48-.62-86.96-.22-130.43-.25-.87,0-1.74,0-2.62,0q-5.84,0-6.22-5.78c-.54-.74-.71-1.6-.72-2.48-.17-15.23-.1-30.45,3.53-45.38,2.55-10.47,7.12-19.95,13.98-28.29,7.43-9.01,16.91-14.16,28.58-15.27,16.19-1.54,32.43-.73,48.63-.61,10.91.08,21.4,2.63,29.73,10.36,7.44,6.9,12.62,15.38,16.07,24.92,3.24,8.97,4.83,18.2,5.51,27.74.52,7.23.45,14.44.58,21.66.03,1.48.2,3.02-.7,4.36Z" style="fill: #fefefe; stroke-width: 0px;"/>
  <path d="M219.45,394.29c-5.27-1.88-8.02-5.69-8.27-11.2-.31-6.84-.63-13.69-.62-20.54.01-5.52-1.76-10.12-5.3-14.31-4.96-5.87-8.58-12.37-9.37-20.3-.86-8.51.74-16.26,5.52-23.35,7.06-5.8,14.52-10.56,24.23-10.03,11.16.61,20.32,5.36,26.79,14.24,6.44,8.84,8.83,18.61,5,29.67-1.93,5.56-2.4,11.67-4.73,17.2-.85,2.02-.89,5.61-4.83,2.69-1.38-1.02-1.72.92-2.09,1.82-2.2,5.4-2.25,11.2-2.9,16.88-.27,2.36-.58,4.71-1.21,6.99-1.83,6.73-7.01,10.67-14.04,10.66-2.74,0-5.46-.4-8.2-.42Z" style="fill: #3f3f3f; stroke-width: 0px;"/>
  <path d="M343.73,176.38c-2.77,0-5.53,0-8.3-.01-3.4-.67-6.85-.02-10.26-.36-1.6-.93-1.81-2.61-2.22-4.15-1.92-7.16-2.16-14.54-2.7-21.86-1.15-15.71-2.77-31.3-8.69-46.11-6.19-15.51-15.51-28.67-28.84-38.88-4.82-3.69-10.27-5.32-16.28-5.9-13.58-1.3-27.18-.71-40.75-.55-7.18.09-14.45.63-21.52,2.37-7.6,1.88-12.94,6.69-17.07,13.09-.53.82-1.32,1.8-.75,2.75.73,1.21,2.08.67,3.08.36,21.35-6.58,43.31-4,65.06-4.17,7.4-.06,14.94.72,22.1,3.29,9.37,3.36,16.07,10.08,21.51,17.91,6.69,9.63,10.7,20.38,12.46,32.14.99,6.59.93,13.16,1.48,19.72.13,1.53.04,3-1.09,4.2-2.15.22-1.22-1.47-1.27-2.29-.48-7.7-.95-15.37-2.48-22.98-2.12-10.55-6.1-20.22-12.44-28.91-.74-1.01-1.5-1.99-2.06-3.12-3.98-5.98-9.32-10.26-15.96-12.99-7.43-3.05-15.33-3.24-23.12-3.5-11.09-.37-22.21-.34-33.3,0-6.19.19-12.42.49-18.55,1.71-11.19,2.22-19.15,9.11-25.98,17.69-5.25,6.47-8.66,13.94-11.79,21.58-.77,1.89-.88,5.4-3.57,4.82-2.1-.45-1.33-3.72-1.21-5.72.66-10.86,4.02-21.04,8.28-30.93,2.72-6.3,5.77-12.45,8.78-18.62,7.15-14.64,18.75-21.81,35.02-22.76,15.35-.9,30.69-.62,46.02-.48,7.4.07,14.97.23,22.01,3.49,5.06,2.35,8.89,6.11,12.11,10.36,5.27,6.96,10.78,13.75,15.56,21.09,11.32,17.36,18,36.35,20.57,56.87.93,7.42,1.48,14.9,2.9,22.26.4,2.09,1,4.11,1.67,6.13,1.14,3.44,3.17,5.32,7,5.64,4.43.37,5.94,2.93,4.57,6.78Z" style="fill: #3d3a39; stroke-width: 0px;"/>
  <path d="M343.73,176.38c-.13-4.66-1.11-5.78-5.65-5.87-3.16-.06-5.1-1.54-6.24-4.4-2.47-6.18-3.33-12.66-3.86-19.23-2.33-28.48-10.68-54.76-28.74-77.37-4.26-5.33-7.95-11.07-12.78-15.99-5.13-5.23-11.34-7.48-18.3-8.11-16.53-1.5-33.12-.91-49.67-.62-7.58.14-15.29.82-22.64,3.63-7.72,2.95-12.9,8.7-16.61,15.43-7.08,12.86-13.55,26.09-17.06,40.49-1.4,5.74-2.6,11.53-1.13,17.72,1.22-3.01,2.32-6.09,3.7-9.02,2.91-6.15,5.38-12.58,10.42-17.47,1.04,1.66-.2,2.91-.93,4.08-6.68,10.62-10.57,22.21-11.92,34.62-.5,4.56-.79,9.15-1.03,13.74-.25,4.84.19,9.69-.65,14.52-.38,2.16-.16,4.44.24,6.68.41,2.26,1.01,4.69-.79,6.76-2.22.04-4.46.56-6.64-.29,2.09-8.45,1.09-17.08,1.57-25.63.94-16.69.92-33.5,5.86-49.75,3.31-10.86,7.59-21.3,12.31-31.61,3.2-6.98,7.13-13.24,12.61-18.72,5.63-5.63,12.5-7.87,19.98-9.07,15.55-2.5,31.24-1.71,46.85-1.32,10.1.25,20.39.12,30.31,2.82,7.01,1.91,13.45,5.01,19.17,9.59,2.01,1.61,4.07,3.27,6.64,4.06.96.3,1.73.9,2.31,1.8.67,1.05,1.81,2.12.89,3.32-.87,1.12-2.06-.09-3.05-.32-2.17-.51-4.44-3.17-6.43-1.11-2.13,2.21.38,4.61,1.28,6.82,2.12,5.22,5.55,9.68,8.41,14.48,7.3,12.26,11.84,25.75,17.33,38.81.6,1.43.76,3.6,2.92,3.23,2.24-.38,1.37-2.54,1.61-4.04,1.71-10.85-1.54-21-5.5-30.67-3.23-7.88-6.38-16.21-13.48-21.89-.58-.46-1.09-1.04-1.52-1.65-.54-.75-.77-1.68-.09-2.41.67-.71,1.44-.04,2,.32,1.03.67,2.12,1.38,2.87,2.32,11.68,14.57,20.09,30.69,23.24,49.3,1.56,9.18,2.35,18.41,3.08,27.69.9,11.47,1.27,23.01,3.61,34.34-1.5,0-2.99,0-4.49,0Z" style="fill: #454544; stroke-width: 0px;"/>
  <path d="M354.25,176.41c.48-10.71-.56-21.39-.92-32.08-.52-15.47-1.77-30.95-6.05-45.95-4.08-14.3-10.04-27.79-18.1-40.32-1.88-2.92-3.61-5.95-5.27-9.01-.48-.9-1.23-2.09-.34-3.11.83-.94,2.13-.66,3.19-.48.95.16,1.87.65,2.72,1.14,18.07,10.32,28.84,26.44,36.11,45.38,5.49,14.3,7.17,29.22,8.3,44.39.73,9.82.1,19.62.77,29.43.24,3.62,1.26,7.6-.23,11.32-1.5,0-3-.02-4.5-.02-1.25-1.33-1.07-3-1.07-4.6-.07-12.7.23-25.41-.77-38.1-1.15-14.45-2.65-28.82-9.47-42-1.66-3.2-3.54-6.23-6.22-9.2-1.16,1.68-.72,3.14-.39,4.47,5.43,21.88,7.67,44.12,7.92,66.63.06,5.83.74,11.68.62,17.53-.03,1.61.11,3.27-1.07,4.62-1.75-.02-3.5-.04-5.24-.05Z" style="fill: #717171; stroke-width: 0px;"/>
  <path d="M219.45,394.29c1.3-.72,2.6-1.35,4.19-1.06,12.09,2.24,17.42-4.77,18.24-15.7.45-5.91.63-11.9,2.86-17.54.05-.12.06-.24.1-.36.52-1.55,1.02-3.48,2.74-3.7,1.58-.2.9,2.42,2.95,3.14,1.43-5.26,4.12-10.13,4.72-15.67.2-1.87.28-3.75,1.05-5.45,7.06-15.53-5.17-36.26-22.59-41.05-10.32-2.84-19.36-1.15-27.63,5.5-1.35,1.09-2.92,1.9-4.69,2.18,2.23-4.44,5.35-8.05,9.74-10.47,5.23-.97,10.17-3.32,15.6-3.29,11.87.06,23.18,2.14,33.07,9.28,4.96,4.96,6.95,11.31,8.36,17.93.62,1.17-.14,2.54.55,3.7-.12,5.44-.17,10.89-2.97,15.82-2.84,4.59-6.96,8.32-8.98,13.45-1.8,3.23-2.85,6.61-2.89,10.4-.09,7.58-.5,15.15-.7,22.72-.09,3.22-1.55,5.71-3.83,7.77-7.4,6.67-21.41,7.76-29.9,2.39Z" style="fill: #211f1e; stroke-width: 0px;"/>
  <path d="M359.49,176.46c-.26-11.56-.03-23.16-.92-34.68-.94-12.06-1.4-24.19-3.98-36.13-1.41-6.52-2.78-13.06-4.03-19.62-.3-1.56-.96-4.25.54-4.8,1.8-.66,2.87,1.79,3.93,3.24,6.59,9.02,10.06,19.3,11.89,30.18,1.42,8.44,1.79,16.97,2.44,25.5.93,12.33.23,24.64.57,36.94-3.52.51-6.96-.46-10.44-.64Z" style="fill: #858484; stroke-width: 0px;"/>
  <path d="M293.54,92.57c9.84,12.94,14.71,27.59,15.96,43.76.36,4.62-.46,9.42,1.25,13.94,1.48,1.53,1.07,3.48,1.14,5.3.24,6.45-.46,12.93.46,19.37.12.46.07.89-.14,1.31-1.92.47-2.26-.59-2.32-2.2-.09-2.29.36-4.6-.31-6.85-.47-13.07-.03-26.22-2.4-39.17-2.32-12.71-7.11-24.32-15.54-34.32-6.95-8.23-15.65-13.01-26.38-13.88-17.69-1.44-35.4-1.13-53.11-.28-15.79.76-26.79,8.88-34.98,21.73-8.01,12.57-11.14,26.56-11.87,41.2-.46,9.22-.62,18.46-.92,27.69-.81,1.89-.02,3.91-.51,5.82-.71-.06-1.42-.13-2.12-.2-.15-.15-.3-.3-.46-.45-.85-6.06-.68-12.15-.36-18.24.5-9.31.74-18.64,2.1-27.9,1.62-11.03,5.68-21.07,11.34-30.59,8.87-14.94,22.11-21.62,39.26-22.28,13.81-.53,27.59-.69,41.38-.21,4.82.17,9.64.51,14.45,1.31,10.21,1.7,17.77,7.33,24.06,15.12Z" style="fill: #646260; stroke-width: 0px;"/>
  <path d="M381.82,334.51c1.02-1.05,2.05-2.1,3.07-3.15,2.8-1.72,5.78-3.01,9.01-3.7,2.54.22,5.13-.15,7.61.66.9-.19,1.97-.76,2,.92-1.36.11-2.72.16-4.07.34-7.53,1.01-11.86,5.46-13.75,12.66-.85,3.23-2.08,6.34-3.64,9.34-3.59,6.92-9.41,8.4-15.88,3.93,7.34-1.81,10.2-7.39,11.85-14.03.3-1.19.91-2.29,1.36-3.43.55-1.36.96-2.82,2.43-3.54Z" style="fill: #4262bf; stroke-width: 0px;"/>
  <path d="M259.82,300.11c-1.32,1.39-1.95-.26-2.77-.7-12.62-6.87-25.76-9.75-39.98-5.76-1.83.51-3.82,2.2-5.92.47,14.11-10.68,33.91-8.9,46.59,3.4.79.76,1.39,1.72,2.07,2.59Z" style="fill: #1f1e1e; stroke-width: 0px;"/>
  <path d="M256.77,351c-1.15-.98-.2-1.93.28-2.59,2.71-3.77,5.11-7.8,8.7-10.86-1.93,5.2-5.35,9.39-8.98,13.45Z" style="fill: #1f1e1e; stroke-width: 0px;"/>
  <path d="M312.21,176.25c.03-.14.04-.29.03-.44,4.22-2.06,8.47-1.86,12.73-.12,3.48.4,7.05-.68,10.46.68-7.74-.04-15.48-.08-23.22-.12Z" style="fill: #454544; stroke-width: 0px;"/>
  <path d="M268.72,321.73c-1.11-1.1-.63-2.43-.55-3.7.84,1.14.67,2.42.55,3.7Z" style="fill: #3f3f3f; stroke-width: 0px;"/>
  <path d="M382.03,437.06c4.14.49,6.87,3.36,9.71,5.93,5.46,4.94,10.78,10.02,16.18,15.01,3.43,3.17,7.44,4.94,12.2,4.73,4.27,1.29,8.06.2,11.62-2.26,4.02-2.78,7.62-6.11,11-9.53,13.14-13.3,27.15-25.7,40.06-39.23,1.17-1.22,2.22-2.42,4.13-1.62,2.4.05,4.26,1.35,5.99,2.77,6.79,5.52,13.01,11.63,18.44,18.49,3.83,4.84,5.2,10.7-.36,16.79-16.98,18.62-35,36.2-53.2,53.61-5.76,5.52-11.65,10.89-17.95,15.79-2.17,1.68-4.37,3.3-6.97,4.28-10.99,2.55-20.93.39-29.94-6.44-5.98-4.53-11.44-9.65-16.84-14.8-9.93-9.46-19.48-19.32-29.16-29.04-3.41-3.43-3.6-5.48-1.05-9.57.86-1.38,1.75-2.77,2.9-3.9,6.57-6.47,12.16-13.88,19.25-19.86,1.23-1.03,2.37-1.82,4.01-1.15Z" style="fill: #dfe2e3; stroke-width: 0px;"/>
  <path d="M382.03,437.06c-3.02-.19-4.12,2.61-5.8,4.15-6.89,6.28-13.06,13.29-19.04,20.44-3.29,3.94-2.97,5.87.73,9.56,9.43,9.43,18.71,19.02,28.35,28.23,5.82,5.57,11.63,11.21,18.2,15.92,5.88,4.22,12.38,6.79,19.81,6.47,2.86-.12,5.73-.02,8.6-.02-6.64,3.89-13.78,3.5-20.99,2.46-1.62.97-3.12.27-4.63-.34-5.39-2.18-9.95-5.65-14.32-9.37-14.32-12.21-27.69-25.37-40.08-39.54-2.96-3.38-3.73-7.21-3.22-11.46.19-1.62.52-3.24,2.32-3.94,5.62-6.95,11.74-13.42,18.68-19.05,3.28-2.66,6.73-5.14,11.39-3.51Z" style="fill: #b8c2d2; stroke-width: 0px;"/>
  <path d="M351.96,459.62c-2.81,5.45-2.3,10.46,1.85,15.09,13.81,15.42,28.26,30.18,44.58,42.97,3.97,3.11,8.25,5.92,13.49,6.6-3.16,3-6.55,1-9.61.09-6.9-2.06-12.58-6.33-17.95-11.02-10.98-9.59-20.88-20.28-31.21-30.54-2.27-2.25-4.29-4.83-6.07-7.5-3.45-5.15-1.61-12.81,3.66-16.09.48-.3.94-.06,1.26.4Z" style="fill: #0d5bcb; stroke-width: 0px;"/>
  <path d="M486.92,410.09c-.96.17-1.79.34-2.58,1.19-13.15,14.17-27.7,26.93-41.33,40.63-4.31,4.33-8.61,9.09-14.59,11.42-2.77,1.08-5.7,1.86-8.29-.6,5.36-.9,9.03-4.56,12.68-8.06,11.49-11.01,22.81-22.2,34.28-33.22,3.58-3.44,7.3-6.75,11.23-9.77,2.43-1.86,5.35-3.18,8.6-1.59Z" style="fill: #b2c1da; stroke-width: 0px;"/>
  <path d="M403.51,329.24c-.42-.83-1.38-.52-2-.92.47-.83,1.19-1.2,2.14-1.27,11.54-.84,22.99-.96,33.89,3.82-.37,2.5-1.95,3.72-4.33,4.09-6.32-.53-12.48.02-18.33,2.67-3.6-3.06-6.16-7.52-11.37-8.39Z" style="fill: #dcad45; stroke-width: 0px;"/>
  <path d="M421.41,353.28c-1.43-.44-3.56-.65-5.15-1.68-5.21-3.39-9.97-7.33-13.26-12.78-.78-1.3-1.34-2.55-.12-3.68,1.21-1.11,2.53-1.74,4.33-.54,2.42,1.62,4.33,3.73,6.34,5.74,3.08,3.08,6.11,6.17,9.88,8.46.96.59,2.3,1.51,1.68,2.98-.54,1.27-1.92,1.42-3.7,1.49Z" style="fill: #50a9e9; stroke-width: 0px;"/>
  <path d="M381.82,334.51c-.55,1.28-1.1,2.56-1.66,3.84-7.33,4.84-14.08,10.56-22.16,14.23l-.85-.03c-1.52-1.25-4.35.77-5.21-2.1,4.77-6.22,11.65-9.42,18.45-12.68,2.67-1.28,5.52-2.17,8.28-3.25,1.06-.41,2.1-.82,3.15,0Z" style="fill: #b4772a; stroke-width: 0px;"/>
  <path d="M433.69,334.59c1.28-1.24,2.57-2.48,3.85-3.72.43-.32.86-.64,1.29-.97,3.85-3.28,8.12-4.1,12.86-2.22,1.72.49,3.44.98,5.15,1.46-6.22-.14-11.27,2.22-15.41,6.86-2.39,2.68-4.97,5.2-7.94,7.27-3.59,2.51-8.52,2.39-11.92-.4,4.84-1.59,7.87-5.84,12.12-8.3Z" style="fill: #5863ba; stroke-width: 0px;"/>
  <path d="M358,352.58c4.07-3.99,9.56-5.92,13.89-9.59,2.42-2.05,5.08-3.88,8.28-4.64-1.01,2.93-2.04,5.86-3.03,8.79-1.78,5.26-5.16,8.4-10.96,8.37-2.72-.98-5.45-1.96-8.17-2.94Z" style="fill: #693712; stroke-width: 0px;"/>
  <path d="M558.72,455.14c1.19,1.69,2.87,3.18,2.19,5.6-.34,1.21-1.02,2.39-2.28,1.27-5.53-4.93-12.47-8.03-17.51-13.59-1.54-1.7-2.26-3.8-2.99-5.91-.35-1.02-.57-2.02.5-2.62,1.27-.71,1.62.49,2.23,1.24.61.75,1.39,1.36,2.1,2.03,3.02,4.25,7.52,6.63,11.8,9.28,1.35.84,2.63,1.79,3.94,2.7Z" style="fill: #5caeea; stroke-width: 0px;"/>
  <path d="M476.34,359.22c.44.59.86,1.2,1.33,1.77.48.59,1,1.19.41,1.96-.62.8-1.42.86-2.33.5-2.98-1.19-5.46-3.07-6.95-5.89-1.98-3.71-4.14-7.37-5.21-11.49-.66-2.56-2.02-4.76-3.31-7.02-.55-.96-1.76-2.13-.33-3.28,1.24-.99,2.43-.09,3.38.61.97.71,1.7,1.76,2.53,2.66,2.02,3.86,2.46,8.29,4.51,12.17,1.59,3.02,3.87,5.43,5.98,8.02Z" style="fill: #5baeea; stroke-width: 0px;"/>
  <path d="M433.69,334.59c-3.41,3.68-6.35,8.06-12.12,8.3-3.31-.38-4.68-3.23-6.69-5.26.06-.64.18-1.34.83-1.55,5.87-1.88,11.78-3.51,17.98-1.49Z" style="fill: #a26726; stroke-width: 0px;"/>
  <path d="M351.94,350.45c1.53,1.2,3.78.65,5.21,2.1-2.99.13-5.92,1.07-8.94.75-8.29,2.24-12.52,7.36-13.53,16.1-.19,1.68-.98,3.3-1.49,4.95-.7-.04-1.23-.44-1.32-1.07-.6-4.24-1.51-8.52,1.23-12.43.51-1.02,1.02-2.05,1.52-3.07,4.41-5.67,10.14-8.21,17.32-7.32Z" style="fill: #3662c1; stroke-width: 0px;"/>
  <path d="M451.69,327.69c-4.45-.21-8.73.54-12.86,2.22-1.64-2.8-4.63-3.69-7.28-4.99-3.45-1.69-5.67-4.07-6.48-8.03-2.37-11.64-4.55-23.27-5.87-35.12-1.39-12.46-1.01-25.02-2.85-37.42-.9-6.03-1.77-12.04-1.44-18.14.18-3.21.3-6.46.85-9.62.52-3.04,2.74-5.01,5.51-6.14,3.68-1.5,7.25-3.13,10.63-5.29,3.96-2.53,8.55-3.15,13.22-3.24,3.16-.06,4.97,1.53,5.67,4.33.86,3.48,1.58,7,1.58,10.64-.03,24.32.34,48.65-.19,72.96-.22,9.94-.25,19.9-.68,29.84-.12,2.71-.75,5.36.2,8.03Z" style="fill: #e5c686; stroke-width: 0px;"/>
  <path d="M125.7,176.34c.01-10.74-.34-21.49.12-32.21.65-15.24,1.69-30.46,6.59-45.14,4.32-12.94,10.71-24.64,19.87-34.71,3.58-3.93,7.73-7.4,12.67-9.7,1.74-.81,3.66-1.74,5.27-.45,1.74,1.39,1.42,3.56.79,5.56-1.97,6.16-3.97,12.3-6.08,18.42-4.38,12.68-8.43,25.49-10.46,38.81-.78,5.14-1.52,10.33-1.69,15.51-.29,8.33-1.16,16.64-.88,25,.2,6.08.43,12.2-.68,18.25-2.88,1.12-3.84-.04-3.73-2.91.5-12.83.45-25.68,1.16-38.5.84-15.13,3.72-29.94,7.4-44.61,1.1-4.37,2.04-8.75,2.4-13.24.11-1.36.35-2.99-1.1-3.69-1.43-.68-2.6.46-3.62,1.37-7.58,6.74-12.19,15.45-15.73,24.72-4.22,11.05-5.79,22.64-6.76,34.4-1.06,12.85-.42,25.69-.68,38.53-.03,1.6.18,3.28-1.09,4.6-1.25,0-2.51,0-3.76,0Z" style="fill: #5c5b5a; stroke-width: 0px;"/>
  <path d="M145.95,176.29l-12.77.06c-1.81-4.62-1.9-9.57-1.57-14.28.47-6.74.21-13.46.51-20.18.56-12.6,1.42-25.16,5.95-37.13,1.64-4.34,3.8-8.41,6.43-12.21,1.08-1.55,2.56-3.07,4.65-2.47,2.18.62,2.21,2.78,2.37,4.65.36,4.14-.42,8.2-.95,12.28-1.42,11-2.01,22.08-2.9,33.13-.91,11.33.3,22.7-1.26,33.98-.1.74-.09,1.5-.47,2.17Z" style="fill: #7e7d7c; stroke-width: 0px;"/>
  <path d="M145.95,176.29c-.69-.97-.92-2.09-.7-3.21,1.46-7.55.29-15.18.74-22.75.97-16.33,1.48-32.71,4.3-48.88.44-2.55.15-5.23.15-7.85,0-1.14-.2-2.49-1.34-2.85-1.28-.4-2.5.54-3.14,1.57-2.08,3.38-4.45,6.69-5.88,10.36-3.73,9.54-5.36,19.5-6.29,29.75-.89,9.82.21,19.64-1.16,29.43-.66,4.74,1.09,9.62.55,14.49-1.24,0-2.48,0-3.71-.01,0-11.35-.35-22.71.11-34.04.6-14.87,1.91-29.72,7.36-43.79,3.61-9.32,8.21-18.1,15.73-25.01,1.57-1.45,3.22-3.4,5.44-2.36,2.22,1.04,1.65,3.4,1.43,5.57-1.07,10.78-4.56,21.04-6.55,31.63-1.51,8.05-2.74,16.15-3.12,24.27-.57,12.04-1.41,24.1-.92,36.18.05,1.23.07,2.55-.32,3.69-.92,2.66.09,3.47,2.61,3.2.74,0,1.49-.01,2.23-.02,2.25,0,4.5-.02,6.74-.03.48-.37.96-.37,1.43.02,0,0,.13.14.13.14-5.24,1.19-10.54.4-15.81.49Z" style="fill: #646260; stroke-width: 0px;"/>
  <path d="M98.84,177.04c1.65-1.09,3.48-.38,5.22-.52-1.65,1.03-3.46.54-5.22.52Z" style="fill: #454544; stroke-width: 0px;"/>
  <path d="M332.22,385.4c1.55,3-.3,6.15-3.78,6.84-4.68.92-9.46.81-14.12,2.52-8.55,3.14-12.66,9.3-14.1,17.82-1.7-4.79-.35-9.23,1.59-13.6,2.05-2.72,4.51-4.99,7.48-6.67,1.32-1.56,3.22-1.86,5.04-2.02,6.27-.55,12.48-1.22,17.89-4.88Z" style="fill: #3662c1; stroke-width: 0px;"/>
  <path d="M332.22,385.4c-2.73,3.82-6.87,4.87-11.13,5.18-3.99.29-7.9.9-11.79,1.72,3.86-13.57,12.2-23.76,23.81-31.47-.94,4.51-1.14,9.01.09,13.51-.05,3.71.52,7.48-.98,11.06Z" style="fill: #94571f; stroke-width: 0px;"/>
  <path d="M199.12,324.63c-.22-2.05.17-4.5.83-6.92.29-1.06.51-2.61,1.85-2.4,1.76.28,1.2,2.07.95,3.1-.73,2.98-.36,5.84-.07,8.84.71,7.25,4.28,12.88,9.04,17.96,3.59,3.84,5.16,8.42,5.38,13.55.3,7.21-.42,14.43.67,21.64.35,2.32,1.1,4.31,2.36,6.18.58.87,1.21,1.94.42,2.71-1.05,1.02-2.06-.13-2.87-.75-2.02-1.53-2.74-3.59-2.86-6.17-.37-8.18-.43-16.39-1.36-24.54-.61-5.38-3.68-9.41-6.99-13.31-4.92-5.81-7.34-12.06-7.35-19.88Z" style="fill: #6c6b6c; stroke-width: 0px;"/>
  <path d="M324.98,175.69c-4.24.04-8.49.08-12.73.12-1.95-.49-1.36-2.1-1.38-3.34-.07-7.4-.08-14.8-.11-22.2-.04-7.66-.07-15.24-1.17-22.92-1.37-9.55-4.13-18.41-8.7-26.73-5.63-10.24-13.08-18.73-24.28-23.26-3.73-1.51-7.69-2.29-11.58-2.64-17.03-1.55-34.13-.95-51.19-.77-8.81.09-17.41,2.36-25.94,4.52-1.07.27-2.18,1.05-3.09-.08-.99-1.21-.09-2.51.46-3.46,5.31-9.13,12.96-14.77,23.69-16.11,16.13-2.01,32.31-1.28,48.48-1.48,13.44-.16,24.64,4.02,34.3,14.03,14.27,14.8,22.64,32.21,26.47,52.06,1.79,9.25,2.57,18.63,3.17,28.05.52,8.13,1.05,16.34,3.6,24.21Z" style="fill: #28221f; stroke-width: 0px;"/>
  <path d="M161.63,175.66c-.48,0-.95,0-1.43-.02-1.19-8.67-.11-17.33.03-26,.31-18.79,3.55-36.81,14.53-52.68.26-.38.29-.93.42-1.41,5.03-7.51,11.6-13.2,20.06-16.49,5.6-2.18,11.53-2.59,17.51-3.11,13.83-1.2,27.66-.59,41.47-.49,7.76.06,15.67.42,23.05,3.56,6.77,2.89,12.45,7.1,16.28,13.53-2.92-2.71-5.69-5.6-8.79-8.08-6.91-5.53-15.3-7.05-23.76-7.55-10.52-.62-21.1-1.13-31.61-.66-9.39.42-18.95-.18-28.17,2.27-12.69,3.38-21.47,11.79-27.74,22.87-6.39,11.3-9.54,23.54-10.44,36.59-.87,12.55-1.36,25.08-1.39,37.65Z" style="fill: #454545; stroke-width: 0px;"/>
  <path d="M262.31,310.54c3.69,6.28,5.16,12.81,1.87,19.84.58-6.74-.87-13.27-1.87-19.84Z" style="fill: #3f3f3f; stroke-width: 0px;"/>
</svg>