<?xml version="1.0" encoding="UTF-8"?>
<svg id="Layer_1" data-name="Layer 1" xmlns="http://www.w3.org/2000/svg" viewBox="0 0 509.87 597.56">
  <path d="M31.89,398.36c-5.42-11.73-9.91-23.79-13.75-36.15-4.93-15.9-8.93-32-12.07-48.33-1.82-9.49-3.22-19.06-4.12-28.66-3.16-33.59-1.65-67.28-1.26-100.91.28-24.19.4-48.38.31-72.56-.05-12.65,8.42-27.19,25.67-28.69,13.24-1.15,26.29-3.41,39.26-6.15,27.32-5.77,53.74-14.42,79.37-25.51,28.32-12.26,54.77-27.8,80.16-45.27,12.74-8.77,25.72-7.56,38.52.1,20.79,12.44,42.7,22.51,65.36,31,20.4,7.64,41.34,13.47,62.66,17.75,12.12,2.43,24.36,4.33,36.7,5.67,15.58,1.69,31.15,2.71,46.82,2.97,10.91.18,19.49,5.23,25.22,14.71,1.54,2.55,3.02,5.14,4.52,7.71-1.95.86-2.48,2.37-2.64,4.46-.87,11.09-.67,22.18-.7,33.28-.01,5.37.96,10.67.79,16.06-.75,24.18.29,48.36-.01,72.54-.22,18.09-.77,36.16-3.07,54.1-1.46,11.39-4.27,22.55-6.9,33.72-4.95,21.04-10.82,41.82-19.25,61.75-6.27,14.83-13.52,29.22-22.08,42.88-3.45,5.5-7.77,10.37-13.01,14.33-.99.75-2.02,1.72-3.35,1.01-1.19-.65-1.48-1.95-1.58-3.23-.11-1.4.33-2.72.75-4.02,4.6-13.99,8.95-28.06,12.82-42.25,4.2-15.41,8.07-30.97,9.62-46.89,1.28-13.13,2.98-26.29,2.56-39.53-.3-9.58-1.08-19.15-1.94-28.71-.5-5.59-.52-11.2-.84-16.8-.51-8.82-.61-17.68-.83-26.53-.39-16.1-1.89-32.09-3.57-48.08-.44-4.2-.42-8.47-2.17-12.44-.62-5.43-.14-10.88-.3-16.31-.04-1.48.14-2.97-.33-4.42-.68-2.76-1.33-5.52-2.54-8.11-6.36-9.7-13.85-16.97-26.59-18.08-30.9-2.71-61.18-9.05-90.95-17.85-26.76-7.9-52.55-18.26-77.57-30.55-4.14-2.03-8.14-4.35-12.3-6.35-9.44-4.54-18.43-3.88-27.36,1.74-22.52,14.2-46.04,26.54-70.51,37.05-32.34,13.89-65.72,24.33-100.37,30.68-12.21,2.24-19.51,10.97-19.36,23.42.47,38.06-1.27,76.1-.74,114.15.27,19.89,3.2,39.51,7.34,58.93,6.57,30.82,17.27,60.17,31.94,88.05,8.73,16.59,18.83,32.34,30.18,47.26,4.91,6.83,10.58,13.04,16.08,19.4,1.2,1.39,2.46,2.79,3,4.64.07,2.83,2.36,4.02,4.22,5.36,2.5,1.82,3.14,3.99,2.19,6.82-.75,2.24-1.32,4.5-1.66,6.87-.52,3.59-3.84,4.99-7.05,3.17-5.93-3.37-10.68-8.25-15.27-13.09-11.95-12.57-22.44-26.42-32.67-40.37-8.24-11.23-15.38-23.27-21.58-35.8-1.7-3.44-3.15-7.04-5.76-9.95Z" style="fill: #d5ddf3; stroke-width: 0px;"/>
  <path d="M31.89,398.36c1.46-1.21,1.53.39,1.99,1.03,3.79,5.29,5.64,11.58,8.91,17.18,10.15,17.39,21.6,33.84,34.49,49.3,5.08,6.09,9.81,12.53,15.39,18.12,4.69,4.7,9.33,9.67,15.23,13.04,2.55,1.46,5.36,0,5.59-3.02.15-1.99.36-3.79,1.31-5.68,1.92-3.85-.26-6.31-3.47-8.35-1.49-.95-3.76-1.91-2.08-4.49,1.92-.09,2.84,1.43,3.92,2.56,13.09,13.6,26.96,26.32,42.1,37.63,8,5.98,16.25,11.61,24.78,16.81,4.43,2.87,9.05,5.4,13.65,7.98,1.4.78,2.74,1.63,3.76,2.91.52.85,1.76,1.3,1.81,2.32.2,4.08,3.25,5.74,6.25,7.25,5.57,2.81,11.06,5.79,16.54,8.77,6.65,3.62,13.8,4.55,21.25,5.1,14.28,1.05,27.09-3.51,39.64-9.3,17.11-7.9,32.4-18.66,46.99-30.46,8.45-6.83,16.64-13.94,24.13-21.84,17.82-18.78,34.43-38.52,47.57-60.93,16.18-27.61,29.15-56.53,35.56-88.12,2.07-10.19,2.55-20.52,3.42-30.83.11-1.28-.38-2.46-.54-3.69.04-4.33,1.9-8.32,2.38-12.57,2.2-8.08,2.76-16.42,4.05-24.65.31-1.97.61-3.94,1.09-5.87.8-3.94.88-7.97,1.54-11.93.52-1.51.5-3.05.33-4.61-.03-25.71-.11-51.41.01-77.11.25-9.41,0-18.81.13-28.22.02-1.68-.39-3.52,1.15-4.87,2.04,2.37,1.78,5.43,2.04,8.16,1.76,18.27,3.74,36.52,4,54.93.11,7.4.2,14.84.66,22.23.87,13.98,1.44,27.99,2.81,41.94.87,8.81-.01,17.69-.94,26.46-.4,3.8-.77,7.7-.98,11.45-.72,13.1-3.84,25.71-6.42,38.46-3.21,15.87-8.71,31.08-12.98,46.64-1.18,4.29-3.06,8.4-4.15,12.76-.21.83-.8,1.6-.44,2.51.31.8.48,1.88,1.09,2.28.91.6,1.45-.57,2.11-1.08,7.65-5.85,13.06-13.62,17.56-21.89,10.05-18.5,19.24-37.38,25.69-57.55,7.38-23.09,12.9-46.61,17.5-70.36,1.17-6.02,1.41-12.3,1.86-18.49,1.94-26.76,1.29-53.54,1.39-80.32.02-5.41-.16-10.81-.63-16.21-.27-3.04.52-6.17.62-9.26.37-11.09-.95-22.13-.84-33.23.08-7.85,1.09-15.65.85-23.49-.11-3.66,2.08-2.01,3.71-1.72,3.03,5.87,3.9,12.13,3.83,18.69-.15,15.97-.03,31.95-.02,47.92.58.92.33,1.94.34,2.92.25,29.54-1.32,59.07-.78,88.6.21,11.23-1.64,22.4-.37,33.61,0,.24,0,.47,0,.71-1.2,1.36-.35,3.03-.7,4.53-.02.74-.03,1.48-.05,2.22-.82,1.15.14,2.63-.69,3.78-.9,7.58-1.54,15.2-3.71,22.56-1.98-4.01-1.72-8.46-2.46-12.71-.18-1.05-.03-2.16-.46-3.56-2.34,5.96-2.95,11.95-4.31,17.75-4.46,18.97-9.43,37.8-17.02,55.8-11.7,27.77-25.01,54.74-42.65,79.28-11.06,15.39-23.02,30.09-36.11,43.91-12.48,13.18-26.03,25.09-40,36.57-11.03,9.06-23.48,16.04-35.45,23.72-18.25,11.72-37.99,20.43-57.79,29.05-7.09,3.09-13.95,6.66-21.37,9.01-5.42,1.73-10.65,1.21-15.74-.75-15.17-5.81-29.77-12.83-44.04-20.59-13.6-7.4-26.72-15.51-39.04-24.9-.48-.37-.97-.81-1.67-.49-13.42-9.95-25.63-21.26-37.39-33.1-10.78-10.85-20.66-22.44-30.02-34.53-18.41-23.77-33.35-49.55-45.59-76.95-.1-.22-.08-.49-.12-.74Z" style="fill: #bac1d9; stroke-width: 0px;"/>
  <path d="M145.01,543.67c1.76-1.26,2.71.37,3.79,1.15,9.36,6.79,19.06,13.02,29.09,18.8,16.96,9.77,34.52,18.27,52.72,25.44,8.05,3.17,15.57.68,22.92-2.64,15.76-7.12,31.64-14,47.23-21.48,10.76-5.16,20.76-11.77,30.91-18.05,9.19-5.7,18.47-11.3,26.78-18.23,7.53-6.28,15.33-12.22,22.5-18.95,7.44-6.98,14.59-14.24,21.61-21.65,10.61-11.2,20.14-23.28,29.29-35.66,10.36-14.02,19.52-28.77,27.49-44.31,10.01-19.51,19.53-39.22,26.17-60.16,5.03-15.85,9-32,12.33-48.3.44-2.15,1.27-4.22,1.91-6.33.38-.01.77-.02,1.15-.03.74,6.1,1.48,12.2,2.22,18.3-.82,6.89-2.33,13.62-4.46,20.22-1.73-1.55-.56-4.2-2.37-5.94-1.31.71-1.47,2.14-1.86,3.34-3.91,11.98-7.42,24.09-11.83,35.91-9.36,25.11-20.93,49.13-35.29,71.77-14.43,22.74-31.31,43.47-50.25,62.65-14.86,15.05-30.48,29.2-47.72,41.36-23.09,16.29-47.54,30.33-73.79,41.07-9.93,4.06-19.66,8.56-29.99,11.65-5.27,1.57-10.07.17-15.06-.6-.29-.16-.57-.31-.86-.47-.79-.83-1.76-1.17-2.9-1.02-29.46-12.17-56.71-28.11-81.74-47.85Z" style="fill: #b5bfd9; stroke-width: 0px;"/>
  <path d="M230.5,593.02c1.93-1.62,3.95-.08,5.66.27,4.68.97,8.84-.53,13.06-1.81,9.54-2.9,18.49-7.32,27.69-11.1,25.11-10.32,48.36-24.04,70.69-39.29,10.12-6.91,19.47-14.97,28.8-22.99,5.48-4.71,10.74-9.71,15.76-14.81,8.97-9.11,18-18.22,26.13-28.15,6.61-8.07,13.03-16.29,18.98-24.85,12.45-17.91,23.23-36.77,32.37-56.62,7-15.18,12.96-30.72,18.2-46.56,2.34-7.08,4.58-14.18,6.86-21.28.27-.83.37-1.95,1.38-2.01,1.28-.08,1.33,1.24,1.73,2.1.86,1.87.77,3.88.87,5.87-2,9.22-4.85,18.19-7.77,27.15-7.53,23.12-17.51,45.14-29.48,66.28-.48.85-1.14,1.59-1.72,2.39-2.38,1.05-3.88,3.08-5.34,5.07-11.26,15.39-22.39,30.88-34.5,45.61-4.97,6.05-9.71,12.34-15.81,17.38-7.09,6.12-13.24,13.18-20.04,19.59-.26.23-.53.44-.82.63-2.64,1.63-4.44,4.17-6.75,6.17-.26.23-.53.44-.82.63-6.78,5.57-13.53,11.18-20.3,16.76-.27.24-.56.46-.87.66-20.09,14.63-41.14,27.73-63.75,38.05-15.39,7.02-30.91,13.91-47.49,17.88-1.33.32-2.65.76-4.01.16-3.12-.46-5.86-1.94-8.69-3.18Z" style="fill: #919dbb; stroke-width: 0px;"/>
  <path d="M403.46,495.02c7.08-6.11,12.75-13.52,18.53-20.77,11.12-13.93,21.68-28.3,32.12-42.75,1.23-1.7,2.29-4.7,5.58-3.88-27.74,48.49-65,88.13-111.23,119.4-4.98,3.37-10.25,6.32-15.39,9.47-1.98-1.48.1-2.06.75-2.51,2.76-1.88,5.52-3.78,8.29-5.65,4.3-2.91,8.66-5.75,12.63-9.11h0c7.21-5.47,14.18-11.25,20.98-17.23h0c2.83-1.88,4.68-4.85,7.49-6.74h0c7.06-6.42,13.79-13.19,20.24-20.22Z" style="fill: #7a85a1; stroke-width: 0px;"/>
  <path d="M354.76,539.21c-1.5,2.58-4.16,3.82-6.45,5.46-4.52,3.23-9.16,6.31-13.71,9.51-.74.52-2.38.65-1.52,2.3-15.65,9.95-31.98,18.63-48.93,26.14-12.73,5.64-25.84,10.24-39.08,14.51-2.23.72-4.11.62-5.88-.94,24.1-6.16,46.76-16.02,68.6-27.67,15.76-8.41,30.98-17.84,45.25-28.67.46-.35,1.13-.44,1.7-.65Z" style="fill: #9297ac; stroke-width: 0px;"/>
  <path d="M508.28,277.78c-1.47-1.31-1.52-3.04-1.46-4.82.25-8.2.65-16.4.72-24.6.12-15.54-.92-31.17.3-46.61,1.3-16.39.82-32.74,1.24-49.1,1.17,1.13.69,2.58.7,3.9.04,35.38.14,70.77-.05,106.15-.03,5-.07,10.14-1.44,15.08Z" style="fill: #d5ddf3; stroke-width: 0px;"/>
  <path d="M507.58,283.01c-.87-1.68-1.38-3.3.7-4.53-.12,1.53.64,3.19-.7,4.53Z" style="fill: #d5ddf3; stroke-width: 0px;"/>
  <path d="M226.75,591.52c1.53-1.27,2.26-.26,2.9,1.02-.97-.34-1.93-.68-2.9-1.02Z" style="fill: #919dbb; stroke-width: 0px;"/>
  <path d="M506.83,289.01c.12-1.28-.46-2.69.69-3.78-.06,1.29.53,2.7-.69,3.78Z" style="fill: #d5ddf3; stroke-width: 0px;"/>
  <path d="M90.27,452.34c-4.36-4.64-7.81-9.96-11.36-15.19-23.85-35.21-40.63-73.54-50.3-114.95-4.08-17.45-6.78-35.11-8.05-53.01-1.43-20.2-.77-40.42-.38-60.6.42-21.71.26-43.42.45-65.13.13-14.28,8.06-22.93,22.24-25.31,14.56-2.44,28.87-6.18,43.06-10.32,33.32-9.71,65.12-23.1,95.69-39.46,10.21-5.46,20.22-11.29,29.96-17.56,9.43-6.08,19.07-6.52,28.92-1.3,25.89,13.7,52.74,25.14,80.69,33.93,23.59,7.42,47.59,13.07,72.03,16.94,10.91,1.73,21.91,2.74,32.83,4.35,3.94.58,7.58,2.06,10.39,4.69,4.22,3.95,8.88,7.65,11.16,13.28-3.45.06-4.14,1.89-4.28,5.17-1.44,34.91-.06,69.84-.73,104.75-.41,21.44-2.14,42.72-6.75,63.84-3.92,17.96-8.33,35.67-14.59,52.95-6.4,17.63-14.37,34.52-23.31,50.99-10.51,19.38-22.93,37.45-37.2,54.21-22.51,26.44-47.75,49.84-77.51,68.06-.95.58-1.91,1.18-2.79,1.87-12.72,7.13-25.36,14.41-38.8,20.19-12.17,5.24-24.19,5.12-36.16-.48-23.31-10.92-44.48-25.17-64.13-41.7-13.84-11.64-26.97-24.02-38.88-37.68-3.81-4.38-7.82-8.66-12.2-12.54Z" style="fill: #8a64e9; stroke-width: 0px;"/>
  <path d="M279.84,524.22c3.43-3.52,7.97-5.43,11.95-8.15,11.73-8,22.73-16.86,33.39-26.23,10.51-9.24,20.26-19.23,29.45-29.7,15.28-17.4,28.89-36.02,40.22-56.32,8.64-15.48,16.55-31.28,22.88-47.79,7.2-18.79,13.39-37.92,16.55-57.94,1.29-8.19,3.33-16.26,4.67-24.46,1.02-6.26,1.62-12.57,1.86-18.85,1.43-37.89.66-75.81.86-113.72.03-5.47.94-10.89.81-16.38-.09-3.46.97-3.74,5.13-1.96,1.43,2.29,1.93,4.88,2.39,7.49.58,4.09.22,8.2.24,12.31.06,12.84.01,25.68.04,38.52,0,1.35-.28,2.74.29,4.06,0,19.72.02,39.43.02,59.15,0,6.11-.02,12.23-.02,18.34-.63,1.25-.01,2.65-.5,3.91-.66,3.98-.43,8.09-1.68,11.99-2.51-3.63-1.89-7.98-2.21-11.93-.45-5.57-1.04-11.16-1.12-16.78-.12,29.95-7.18,58.65-15.77,87.04-6.01,19.86-14.69,38.6-24.46,56.9-10.19,19.09-21.96,37.09-35.32,54.09-3.78,4.81-7.93,9.29-12.01,13.82-15.28,16.99-31.57,32.92-49.86,46.7-1.18.89-2.3,1.94-3.77,2.39-2.26.5-3.97,1.89-5.57,3.46-1.63,1.48-3.47,2.66-5.38,3.73-1.31.61-2.61,1.24-3.66,2.28-.73.66-1.47,1.28-2.38,1.67-1.21.42-2.35.95-3.36,1.76-.27.2-.55.36-.84.52-.92.36-1.84.94-2.8.1Z" style="fill: #562cd9; stroke-width: 0px;"/>
  <path d="M279.84,524.22c1-.24,2-.49,3.01-.73.22,2.12-1.58,2.71-2.88,3.47-12.91,7.52-25.87,15.12-39.88,20.31-11.84,4.39-24.06,4.59-35.86-1.29-6.79-3.38-13.37-7.15-20.05-10.74-1.51-.81-2.89-1.94-4.69-2.14-16.13-9.53-30.85-20.97-45-33.21-8.88-7.67-16.85-16.26-25.25-24.41-6.2-7.82-13.46-14.77-18.98-23.15,1.62-.41,2.31.87,3.17,1.78,4.95,5.25,9.98,10.43,14.81,15.79,8.51,9.44,17.74,18.13,27.3,26.45,16.81,14.63,34.52,28.04,54.22,38.63,4.94,2.65,9.88,5.29,14.88,7.82,12.59,6.38,25.17,6.26,38.02.43,11.93-5.41,23.43-11.56,34.73-18.15.73-.43,1.62-.59,2.43-.87Z" style="fill: #5929d5; stroke-width: 0px;"/>
  <path d="M450.56,185.08c-.16-.72-.46-1.44-.46-2.15-.05-17.58-.07-35.16-.1-52.74,1.45,3.31.48,6.78.66,10.17.2,3.81.08,7.64.1,11.45-.06,11.09-.13,22.18-.19,33.27Z" style="fill: #b3b8da; stroke-width: 0px;"/>
  <path d="M440.88,321.91c1.6,2.3.7,4.92.57,7.28-.97,18.04-4.37,35.69-10.04,52.83-5.04,15.25-11.09,30.1-18.93,44.21-4.9,8.81-9.5,17.78-14.74,26.41-5.69,9.38-12.77,17.74-19.35,26.44-9.24,12.22-19.8,23.35-30.87,33.93-15.14,14.47-31.79,27.03-49.74,37.84-11.37,6.84-23.3,12.61-36.25,15.39-16.12,3.46-31.9,2.52-46.23-7.11-4.13-2.77-9.1-4.13-13.14-7.1-1.89-1.38-4.57-2.36-3.55-5.74.38-1.27-2.34-1.08-1.84-2.78,1.92-.79,3.34.51,4.83,1.26,5.2,2.64,10.41,5.24,16.23,6.26,1.65.42,3.34.64,4.98,1.09,2.29.77,4.17,1.83,5.2,4.33,1.01,2.44,3.65,2.79,5.94,3.39,10.97,2.9,21.69,1.57,32.44-1.49,20.61-5.87,37.74-17.77,54.51-30.5,14.87-11.29,28.17-24.29,40.76-37.94,15.35-16.64,28.17-35.2,39.09-55.09,6.33-11.54,12.09-23.29,15.3-36.05,2.06-8.19,4.92-16.21,6.02-24.64,3.54-9.7,7.56-19.22,10.74-29.07,2.11-6.52,3.99-13.1,5.86-19.69.37-1.32.22-3.1,2.2-3.44Z" style="fill: #b3b8da; stroke-width: 0px;"/>
  <path d="M440.88,321.91c-3.12,9.43-5.32,19.14-8.86,28.44-3.05,8.01-6.07,16.03-9.1,24.04-3.33,11.06-9.07,20.99-14.6,31.02-.54.97-1.19,1.93-2.34,2.32-2.68-.49-4.1,1.24-5.49,3.08-6.67,8.87-12.63,18.25-19.28,27.14-8.52,11.39-17.43,22.43-27.34,32.67-11.53,11.91-23.23,23.59-36.14,34.06-21.25,17.24-44.67,30.88-69.29,42.61-2.37,1.13-4.64,2.42-6.73,4.02-6.1,2.67-12.37,3.19-18.81,1.5-1.79-.11-3.6-.08-5.23-.99-.61-2.65,1.45-2,2.72-2.09,4.22-.28,8.45.26,12.68-.37,6.94-1.02,12.92-4.49,19.06-7.4,18.86-8.95,36.53-19.94,53.42-32.18,15.71-11.38,29.63-24.77,43.11-38.64,15.78-16.24,29.84-33.85,42.13-52.87,5.42-8.39,10.15-17.17,14.77-26.01,6.46-12.35,12.5-24.91,17.44-37.96,6.57-17.36,11.47-35.23,15.96-53.22.36-1.46.67-2.93,1.31-4.29.36-.77.72-1.79,1.74-1.73,1.12.07,1.09,1.19,1.25,2.01.85,4.06.92,8.12-.12,12.17.07,4.37-2.27,8.31-2.28,12.67Z" style="fill: #2e01c3; stroke-width: 0px;"/>
  <path d="M443.15,309.24c.25-4.49-.29-8.93-1.09-14.17-2.26,4.77-3.05,9.31-4.15,13.69-6.56,26.14-15.41,51.45-27.23,75.69-11.77,24.13-26.02,46.71-43.19,67.35-11.57,13.9-24.44,26.63-37.56,39.04-15.31,14.47-32.5,26.62-50.47,37.5-12.13,7.34-24.81,13.82-37.86,19.48-6.48,2.81-13.32,2.73-20.19,2.66-1.31-.01-3.14-.88-3.75,1.33-5.78-.7-10.8-3.39-15.87-5.98-1.65-.84-3.36-1.57-5.04-2.35-5.56-3.78-11.85-6.35-17.26-10.38,1.39-1.16,2.32.22,3.29.71,7.97,4.02,15.93,8.06,23.81,12.25,3.84,2.04,7.9,2.52,12.14,2.95,13.43,1.36,24.99-3.48,36.41-9.71,8.49-4.64,17.21-8.85,25.47-13.92.84-.52,1.81-.87,2.22-1.9,0,0,0,0,0,0,1.15-.93,2.61-1.34,3.76-2.25.74-.51,1.48-1.01,2.21-1.52,1.15-.91,2.62-1.28,3.74-2.25,1.75-1.25,3.5-2.5,5.25-3.74,1.72-1.3,3.56-2.43,5.28-3.73,5.81-3.16,10.74-7.56,15.71-11.8,9.38-8,18.51-16.32,26.95-25.33,13.53-14.43,26.59-29.22,37.74-45.65,11.63-17.12,21.47-35.19,30.42-53.82,12.31-25.62,19.87-52.72,25.45-80.44,2.94-14.62,5.04-29.37,4.56-44.36-.02-.59.15-1.19.24-1.91,2.13,2.27,2.78,5.79,2.7,15.57-.05,5.47,1.24,10.79,1.51,16.21-1.68,10.26-2.1,20.74-5.22,30.76Z" style="fill: #460ccb; stroke-width: 0px;"/>
  <path d="M450.05,266.48c-.09-1.34-.27-2.68.5-3.91-.02,1.32.51,2.72-.5,3.91Z" style="fill: #b3b8da; stroke-width: 0px;"/>
  <path d="M403.46,495.02c-.02.94-.53,1.61-1.16,2.24-5.62,5.6-11.23,11.21-16.83,16.83-.63.63-1.3,1.15-2.25,1.15,6.44-7.05,13.16-13.82,20.24-20.22Z" style="fill: #9297ac; stroke-width: 0px;"/>
  <path d="M375.73,521.98c-6.19,6.72-13.25,12.38-20.98,17.23,6.62-6.19,13.55-12.02,20.98-17.23Z" style="fill: #9297ac; stroke-width: 0px;"/>
  <path d="M383.22,515.24c-2.27,2.5-4.1,5.49-7.49,6.74,2.27-2.5,4.07-5.52,7.49-6.74Z" style="fill: #9297ac; stroke-width: 0px;"/>
  <path d="M102.07,285.3c-12.09-21.02,1.88-50.79,25.83-54.67,14.01-2.27,26.43,1.42,36.47,11.62,11.89,12.09,23.49,24.46,35.27,36.66,4.83,5.01,8.89,4.79,13.16-.69,13.15-16.88,26.25-33.8,39.39-50.68,9.17-11.78,18.24-23.65,27.59-35.29,15.08-18.78,41.82-20.02,58.92-2.92,1.05,1.05,2.16,2.05,3.25,3.07,1.6,1.08,2.86,2.38,2.97,4.46-.38,5.06-.64,10.14-.93,15.19-.5,8.69-4.44,15.45-9.69,21.78-26.43,31.88-51.7,64.69-77.36,97.18-10.12,12.82-20.12,25.73-31.18,37.79-7.25,7.92-16.3,9.35-26.29,8.54-6.6-.53-11.84-3.62-16.36-8.15-13.38-13.41-26.02-27.54-39.18-41.17-13.85-14.35-27.41-28.99-41.86-42.75Z" style="fill: #97daa3; stroke-width: 0px;"/>
  <path d="M344.32,196.85c-.17-1.81-1.93-2.78-2.38-4.44,1.17-.96,1.6.32,2.02.83,7.24,8.8,13.34,18.48,16.61,29.29,4.42,14.64.48,28.31-7.15,41.33-7.16,12.21-17.07,22.22-25.3,33.54-6.06,8.34-12.62,16.27-18.95,24.39-11.6,14.86-22.67,30.16-34.75,44.62-7.39,8.84-14.46,18.09-23.21,25.74-6.38,5.58-12.83,11.3-21.47,12.89-12.88,2.36-25.11.87-36.45-6.56-7.38-4.84-13.33-11.18-19.73-17.03-11.03-10.08-21.1-21.17-30.91-32.42-9.62-11.03-19.9-21.52-28.37-33.52-3.42-4.85-3.14-10.79.25-13.89,1.59-.04,2.52,1.08,3.33,2.12,6.17,7.86,13.69,14.44,20.52,21.67,15.12,16,29.85,32.36,45.41,47.94,1.95,1.95,4,3.73,6.47,5,1.22.77,2.75,1.19,3.24,2.81-.07,2.15.12,4.15,1.69,5.91,5.6,6.31,12.04,9.87,20.93,10.6,16.43,1.35,26.95-7.7,36.2-18.83,17.93-21.58,35.08-43.78,52.22-65.99,10.66-13.82,21.67-27.38,32.61-40.99,5.02-6.25,9.26-13.04,12.96-20.1,4.92-9.38,4.87-19.4,2.78-29.53-.73-3.54-1.42-7.09-2.21-10.62-.32-1.43-.35-3.02-1.76-3.98-2.23-3.29-2.97-7.21-4.59-10.76Z" style="fill: #6137da; stroke-width: 0px;"/>
  <path d="M189.68,378.96c-7.18-3.94-11.9-10.53-17.4-16.25-16.24-16.9-31.88-34.37-48.38-51.02-3.23-3.26-6.25-6.71-9.37-10.07-2.98-3.43-5.97-6.86-8.92-10.31-1.53-1.79-2.76-3.77-3.53-6.02,1.62-.17,2.45,1.05,3.4,2,12.93,13.16,25.99,26.19,38.7,39.56,8.58,9.02,17.08,18.1,25.62,27.16,5.55,5.89,11.06,11.76,17.11,17.15,6.54,5.83,14.23,5.67,22.13,5.24,8.96-.49,14.76-6.18,20-12.42,8.37-9.98,16.46-20.2,24.57-30.39,8.43-10.58,16.74-21.26,25.12-31.87,10.47-13.24,20.93-26.48,31.45-39.68,9.12-11.45,18.28-22.88,27.49-34.26,4.77-5.9,4.63-13.13,5.98-20.03.73-3.69-1.27-7.4.66-10.91,3.04,2.9,3.26,7.15,5.08,10.64,1.4,3.1,1.88,6.35,1.5,9.72-2.96,1.37-3.84,4.05-4.69,6.94-1.88,6.38-6.13,11.35-10.3,16.33-17.05,20.36-33.3,41.37-49.87,62.12-16.11,20.17-31.7,40.74-48.21,60.59-3.67,4.41-7.78,8.48-12.15,12.17-4.71,3.98-10.53,5.61-16.63,5.93-3.73.2-7.49-.12-11.22.09-3.08.17-5.36-1.89-8.15-2.41Z" style="fill: #5bc774; stroke-width: 0px;"/>
  <path d="M303.1,510c-1.28,1.93-3.1,3.08-5.28,3.73,1.24-1.98,3.07-3.12,5.28-3.73Z" style="fill: #5929d5; stroke-width: 0px;"/>
  <path d="M292.57,517.48c-.79,1.5-2.2,1.99-3.74,2.25.79-1.5,2.2-1.98,3.74-2.25Z" style="fill: #5929d5; stroke-width: 0px;"/>
  <path d="M286.61,521.24c-.84,1.44-2.23,1.97-3.76,2.25.78-1.54,2.2-2.02,3.76-2.25Z" style="fill: #5929d5; stroke-width: 0px;"/>
  <path d="M222.9,552.81c6.63.28,13.16-.26,19.48-2.48.63-.77,1.36-1.29,2.42-.92,2.38,2.32,5.34,3.12,8.55,3.08,6.54-.07,12.91-1.12,18.92-3.81,16.84-7.55,32.11-17.59,46.12-29.55,8.9-7.6,17.95-15.08,25.91-23.68,10.96-11.83,20.18-24.98,28.42-38.83.39-.66.5-1.4.73-2.11,1.11-3.13,3.48-5.41,5.43-7.97,8.38-10.98,16.44-22.17,23.11-34.31.98-1.78,1.59-4.01,3.87-4.8,6.01-9.61,10.82-19.84,15.47-30.15.45-1,.62-2.17,1.59-2.89.51,2.73-.86,5.08-1.49,7.58-4.02,16.04-8.22,31.97-16.21,46.67-10.16,18.72-21.58,36.52-35.12,53.01-9.52,11.59-20.1,22.18-31.11,32.22-16.26,14.82-33.57,28.52-53.55,38.12-13.02,6.26-26.65,11.07-41.51,10.43-4.49-.19-8.83-1.23-13.11-2.5-2.07-.62-4.04-1.68-4.2-4.21-.15-2.49-3.19-1.04-3.71-2.9Z" style="fill: #a1a6cf; stroke-width: 0px;"/>
  <path d="M405.86,407.43c-9,16.72-20.2,31.95-31.74,46.96-1.59,3.14-3.99,5.67-6.25,8.32-8.49,9.97-17.79,19.16-27.47,27.94-11.73,10.64-24.28,20.27-37.49,29.04-17.71,11.76-36.43,21.58-56.13,29.54-.7.28-1.41.51-2.17.42-.74.23-1.49.46-2.23.69.32-1.87,2.08-2.02,3.34-2.64,16.07-7.98,32.21-15.86,47.12-25.91,13.81-9.31,27.17-19.25,39.29-30.75,16.62-15.76,32.59-32.12,46.15-50.66,7.33-10.03,14.34-20.29,21.7-30.3,1.25-1.7,2.4-5.25,5.89-2.63Z" style="fill: #1901a6; stroke-width: 0px;"/>
  <path d="M350.13,217.81c-.24-3.44-.49-6.88-.73-10.32,1.01-.83,1.33.01,1.47.72,1.63,7.74,4.06,15.4,4.39,23.31.41,9.74-2.47,18.68-7.8,27.01-8.46,13.22-18.65,25.07-28.35,37.33-8.93,11.28-17.37,22.96-26.5,34.07-10,12.17-19.22,24.96-29.44,36.97-5.46,6.42-10.24,13.45-16.45,19.23-5.66,5.27-11.37,10.91-19.44,11.76-8.31.87-16.95,2.14-24.64-2.92-3.64-2.39-6.78-5.35-9.45-8.83-1.25-1.64-.86-3.24-.19-4.91,4.29-.25,8.16,1.8,12.33,2.2,1.17.39,2.63.4,3.45,1.32,4.2,4.71,9.74,4.02,15.01,3.53,5.66-.53,10.75-2.62,15.05-6.74,11.31-10.85,20.17-23.72,29.97-35.81,19.22-23.72,37.62-48.08,56.7-71.91,5.46-6.82,10.55-13.91,15.18-21.31,3.86-6.17,5.66-12.97,5.72-20.25,1.8-4.68,1.86-9.8,3.7-14.46Z" style="fill: #3b05c9; stroke-width: 0px;"/>
  <path d="M350.13,217.81c.41,5.24-1.41,10.05-2.94,14.91-.78,4.37-3.57,7.62-6.2,10.93-13.7,17.33-27.33,34.71-41.06,52.02-20.09,25.32-39.86,50.89-60.26,75.96-8.64,10.62-20.25,14.93-34.01,12.64-4.39-.3-8.56-1.52-12.65-3.04-1.11-.76-2.23-1.51-3.34-2.27,5.57,1.63,11.29,1.49,17.01,1.44,8.46-.07,15.64-2.7,21.83-8.83,10.93-10.83,19.96-23.19,29.47-35.18,13.92-17.53,27.79-35.09,41.68-52.64,9.18-11.6,18.32-23.24,27.58-34.78,4.82-6.01,10.41-11.39,14.68-17.87,2.16-3.28,3.88-6.83,4.39-10.62.39-2.9,1.6-3.14,3.82-2.68Z" style="fill: #01865a; stroke-width: 0px;"/>
  <path d="M244.61,549.64c9.95-5.29,20.57-9.16,30.53-14.48,25.31-13.53,48.49-29.98,69.4-49.63,9.82-9.24,19.09-18.99,27.69-29.38.55-.66,1.27-1.17,1.91-1.76-.08,3.75-2.67,6.38-4.52,9.18-9.61,14.51-19.55,28.81-32.6,40.55-14.87,13.37-29.79,26.73-47.29,36.65-8.08,4.58-16.14,9.55-25.45,11.43-5.2,1.06-10.46,2.05-15.83.57-1.87-.52-3.16-1.33-3.82-3.12Z" style="fill: #848abb; stroke-width: 0px;"/>
  <path d="M205.68,384.27c10.09.32,19.62-1.43,27.82-7.77,6-4.64,10.03-11.06,14.67-16.89,19.48-24.46,38.82-49.02,58.19-73.56,11.89-15.06,23.77-30.11,35.58-45.23,1.97-2.53,3.52-5.39,5.26-8.1.41,7.36-1.79,14.09-5.6,20.18-9.51,15.18-21.19,28.76-32.16,42.85-9.07,11.64-18.07,23.33-27.22,34.92-8.68,11-17.61,21.8-26.24,32.84-5.22,6.67-10.67,13.09-16.74,19-4.65,4.53-10.35,6.01-16.48,6.94-6.6,1-11.98-1.46-17.07-5.17Z" style="fill: #050499; stroke-width: 0px;"/>
</svg>