<?xml version="1.0" encoding="UTF-8"?>
<svg id="Layer_1" data-name="Layer 1" xmlns="http://www.w3.org/2000/svg" viewBox="0 0 599.25 490.13">
  <path d="M599.18,92.64c-.73,1.91-.6,3.91-.6,5.9,0,93.17.11,186.34-.13,279.51-.03,13.66-3.41,26.68-14.11,36.47-3.48,3.19-7.34,5.93-12.06,7.11-38.24,2.72-76.53.9-114.8,1.06-13.67.06-27.39-.74-41.09-1.35-1.63-.07-3.25-.19-4.62-1.21-1.81-1.88-.3-3.21.87-4.43,12.96-13.49,23.4-28.83,32.86-44.86,3.73-6.33,7.06-12.9,10.31-19.51,9.34-19.77,15.46-40.39,17.53-62.27,1.93-20.4,2.36-40.82,1.96-61.25-.13-6.94-.4-13.93-1.18-20.88-1.07-9.51-6.07-16.44-13.59-21.84-4.57-3.28-9.51-6-14.4-8.72-13.3-7.38-21.9-18.57-27.53-32.42-1.73-4.24-3.3-8.66-7.01-11.75-5.6-6.83-13.05-8.67-21.58-9.17-18.21-1.06-36.43.08-54.62-.7-17.59-.75-35.18-1.04-52.74-.52-21.83.64-43.65.45-65.47.68-4.35.05-8.69.7-13.05.95-6.33.36-11.38,3.36-15.73,7.77-1.14,1.15-2.12,2.46-3.55,3.3-14.78,3.64-27.16,11.03-36.52,23.23-2.66,3.46-5.42,6.85-8.38,10.07-7.37,7.99-15.27,15.4-23.96,21.94-7.2,5.42-12.51,12.43-17.26,19.98-9.27,14.73-12.88,30.85-12.77,48.11.06,8.6-.35,17.21.09,25.81.92,18.09,2.48,36.09,7.96,53.5,2.92,9.28,5.69,18.65,10,27.4,3.86,7.81,7.3,15.84,12.09,23.21,4.27,6.58,8.41,13.28,11.93,20.32,2.73,5.45,1.02,9.14-4.92,10.66-5.7,1.46-11.57,2.07-17.41,2.39-18.44,1.01-36.9,1.2-55.36.79-4.84-.11-9.7-.71-14.49-1.63-16.39-3.17-27.94-14.51-31.28-30.88-1.2-5.87-1.86-11.85-1.86-17.84-.04-90.85-.03-181.7.01-272.55,0-2.72-.91-5.91,2.41-7.68,5.2-.6,10.4-1.23,15.64-1.23,138.13-.01,276.27,0,414.4-.01,2.99,0,5.98.33,8.98.09,15.44-.18,30.89-.06,46.33-.07,30.89-.02,61.78,0,92.67-.02,3.75,0,7.47.16,11.15.86,1.29.26,2.57.55,3.81,1.02.39.17.74.4,1.06.69Z" style="fill: #e1e4e7; stroke-width: 0px;"/>
  <path d="M456.29,352.06c-4.74,10.55-10.53,20.52-16.72,30.26-8.26,13.01-17.68,25.14-28.24,36.39-2.02,3.21-3.92,6.54-7.68,8.1-16.45,15.12-33.94,28.92-52.72,41.04-10.99,7.09-22.11,13.98-34.29,18.89-12.77,5.15-25.31,4.28-37.63-1.58-23.32-11.09-44.3-25.8-64.3-41.95-6.49-5.24-12.63-10.91-18.93-16.38-1.83-.6-3.24-1.8-4.55-3.17-22.49-23.48-40.26-50.06-53.19-79.94-6.85-15.82-11.4-32.23-13.54-49.25-.99-7.88-2.03-15.85-1.83-23.84.22-8.62-.98-17.16-.86-25.78.19-13.34.56-26.66,1.61-39.95,2.07-11.25,8.78-18.97,18.56-24.34,18.38-8.36,31.75-21.46,38.57-40.76.82-2.23,1.49-4.56,3.84-5.76,6.02-8.23,14.05-11.83,24.31-12.24,18.21-.74,36.42-.46,54.63-.78,39.05-.7,78.1.1,117.14.38,4.73.03,9.46.48,14.19.73,7.56.4,13.48,3.85,18.07,9.76.27,2.41-.95,2.88-2.93,2.14-1.29-.48-2.44-1.26-3.68-1.84-2.76-1.29-5.62-2.05-8.7-1.7-3.9.45-4.81,1.33-5.46,5.29-.22,1.36-.43,2.72-.78,4.04-.72,2.76-.57,4.77,2.86,5.62,2.6.64,2.77,3.09,2.2,5.24-.63,2.39-.53,3.98,2.22,4.88,2.22.72,2.76,2.8,2.43,4.94-.57,3.72.48,6.76,3.03,9.58,3.81,4.21,4.95,10,8.15,14.62.85,1.23,1.32,2.77,2.8,3.36,3.42,1.36,5.38,4.17,6.64,7.28,2.96,7.31,7.42,13.73,11.53,20.36,1.85,2.98,3.99,5.68,6.27,8.35,4.64,5.43,7.17,11.7,7.68,19.03.39,5.65.21,11.29-.46,16.75-.7,5.75.04,11.69-1.97,17.26-1.02,2.82.1,5.47.71,8.08,1.61,6.95.84,14.09,2.14,21.09,1.32,7.09,1.95,14.3,3.96,21.28,1.01,3.52.8,7.17.33,10.78-.17,1.34-.67,2.67-.06,4.25,1.55-.28,2.03-1.65,2.71-2.68,4.38-6.75,7.36-14.14,9.98-21.7,1.1-3.18,1.94-6.46,3.47-9.48.36-.71.68-1.82,1.81-1.46.98.31.88,1.4,1.09,2.22.2.79-.3,1.43-.45,2.14-2.91,14.09-8.43,27.26-13.97,40.44Z" style="fill: #1790e5; stroke-width: 0px;"/>
  <path d="M598.51,92.62c-1.1.4-2.03.02-2.89-.66-1.45-1.55-1.11-3.5-1.12-5.34-.03-12.86-.04-25.71,0-38.57.01-4.02-.44-7.99-1.18-11.9-3.05-16.17-13.98-24.61-31.29-25.48-16.84-.85-33.67,0-50.47.3-19.54.35-39.13,1.08-58.57,3.58-5.44.7-10.79,1.88-15.75,4.49-2.47,1.3-3.81,2.86-3.91,5.75-.2,5.59-1.26,11.18.56,16.7.23.7.29,1.53.06,2.23-3,8.95.94,17.37,1.98,26,.17,1.38.29,2.74,0,4.09-.89,4.12.81,7.88,1.68,11.74.38,1.71,1.99,2.44,3.52,3.09,1.3.55,3.04.67,3.12,2.67-43.82.05-87.64.12-131.46.14-95.01.03-190.02.02-285.03.08-7.73,0-15.46.43-23.2.66-3.79,1.87-4.13,1.67-4.14-2.56-.01-11.78,0-23.56,0-35.33.1-1.64-.23-3.3.23-4.92.42-6.35,1.16-12.65,3.04-18.78C9.11,12.9,22.51,3.74,39.78,1.5,50.95.05,62.18,0,73.41,0c151.16,0,302.32,0,453.47.01,10.86,0,21.71.15,32.5,1.48,18.88,2.33,31.47,12.87,36.64,30.7.91,3.14,1.23,6.45,1.82,9.68.9,1.93-.15,4.05.62,6,.06,2.71.13,5.43.19,8.14.64,11.12.12,22.26.27,33.38.01,1.08.35,2.24-.42,3.23Z" style="fill: #1a94e7; stroke-width: 0px;"/>
  <path d="M.6,53.86c.03,11.65.17,23.3,0,34.95-.05,3.29.71,4.53,3.98,3.36-.98,1.31-.78,2.84-.78,4.33,0,92.35-.08,184.71.11,277.06.02,10.29,1.31,20.69,7.32,29.63,6.26,9.3,15.18,14.5,26.18,16.22,17.22,2.7,34.58,1.63,51.85,1.29,10.85-.22,21.82-.39,32.58-2.73,6.6-1.44,8.19-4.37,4.85-10.13-5.73-9.87-11.78-19.58-17.18-29.63-8.5-15.83-14.94-32.54-19.01-50.04-2.32-9.99-3.75-20.15-4.53-30.47-.87-11.51-1.32-22.99-1.23-34.51.1-12.76.52-25.48,5.05-37.69,4.08-10.98,10.1-20.87,17.64-29.66,3.98-4.64,9.37-8.07,14.13-12.04,9.07-7.55,17.51-15.72,24.62-25.18,9.13-12.14,20.83-20.53,35.62-24.39.83-.22,1.73-.14,2.59-.2-1.03,1.99-2.07,3.98-3.1,5.98-2.63,3.29-6.33,5.23-9.71,7.51-9.06,6.09-14.87,14.95-20.95,23.63-2.49,3.55-4.68,7.37-8.25,10.05-8.23,4.89-14.48,11.43-17.43,20.75-.26.81-.37,1.66-.55,2.49-3.09,4.09-7.06,7.36-10.46,11.18-5.49,6.18-7.12,13.59-7.95,21.35-1.15,10.68-.98,21.43-.75,32.14.46,21.38,2.26,42.6,9.32,63.01,3.72,10.75,8.85,20.91,13.98,31.03,6.96,13.73,15.73,26.32,25.16,38.44,2.75,3.54,5.98,6.71,8.71,10.27,4.89,6.36,3.7,9.87-3.91,12.28-3.32,1.05-6.7,1.91-10.08,2.73-30.06,0-60.13.27-90.19-.16-9.58-.14-19.26-.73-28.63-3.91-14.23-4.83-22.58-14.67-26.53-28.79-2.83-10.1-2.17-20.45-2.28-30.75-.68-1.43-.33-2.95-.33-4.42-.02-86.95-.02-173.91-.03-260.86,0-1.48.33-2.99-.32-4.43,0-13.2.01-26.41.02-39.61.16-.02.32-.04.48-.05Z" style="fill: #bfc4c7; stroke-width: 0px;"/>
  <path d="M148.41,426.86c2.77-2.06,6.18-2.45,9.29-3.63.92-.35,1.93-.49,2.82-.91,4.61-2.14,5.35-3.97,2.4-7.96-3.53-4.78-7.68-9.1-11.3-13.83-7.39-9.67-14.42-19.59-20.37-30.25-6.19-11.1-11.78-22.51-16.31-34.37-3.8-9.95-6.28-20.3-7.92-30.91-2.97-19.27-3.17-38.63-2.73-58,.21-9.21.22-18.83,5.31-27.08,3.78-6.14,8.55-11.58,14.77-15.51-1.21,16.28-1.79,32.59-1.33,48.91.64,23.13,1.43,46.28,8.14,68.68,4.47,14.94,10.78,29.11,18.22,42.81,12.08,22.26,26.91,42.45,44.87,60.32.53.52.99,1.12,1.48,1.68-15.78,0-31.57.02-47.35.03Z" style="fill: #abb6cb; stroke-width: 0px;"/>
  <path d="M403.65,426.81c2.56-2.7,5.12-5.4,7.68-8.1.97,1.13,2.25,1.45,3.68,1.47,5.71.07,11.42.43,17.11.61,42.7,1.39,85.43.82,128.15.86,4.01,0,8.01-1.83,12.02-.02-6.37,3.1-13.28,3.94-20.17,4.48-17.29,1.34-34.62.78-51.94.81-30.8.06-61.61.03-92.41.03-1.37,0-2.74-.09-4.11-.14Z" style="fill: #bfc4c6; stroke-width: 0px;"/>
  <path d="M.09,93.53c1.1,1,.71,2.33.71,3.53.02,88.36.02,176.71.02,265.07,0,.37-.03.75-.04,1.12-1.02-.87-.71-2.06-.71-3.15,0-88.86.02-177.71.03-266.57Z" style="fill: #e1e4e7; stroke-width: 0px;"/>
  <path d="M598.51,92.62c.05-12.21.1-24.41.15-36.62.97,3.14.46,6.37.49,9.55.08,9.03.04,18.05.04,27.08,0,0-.34.03-.34.03l-.34-.05Z" style="fill: #4eaaea; stroke-width: 0px;"/>
  <path d="M598.46,47.87c-1.24-1.89-.55-3.98-.62-6,1.03,1.91.7,3.97.62,6Z" style="fill: #4eaaea; stroke-width: 0px;"/>
  <path d="M.6,53.86c-.16,0-.32.02-.48.05.05-1.53-.53-3.14.54-4.55-.02,1.5-.04,3-.06,4.49Z" style="fill: #e1e4e7; stroke-width: 0px;"/>
  <path d="M444.26,91.31c-.85-1.04-2.06-1.23-3.28-1.55-3-.8-4.55-2.48-5.13-5.94-.73-4.3-.3-8.73-1.04-12.68-.74-3.95-.99-8.11-1.94-12.09-.68-2.87-.18-5.93-2.41-8.47-.8-.91.34-2.12,1.01-2.96,1.34-1.67,2.18-3.71,1.46-5.58-2.35-6.08-.63-12.2-.67-18.3-.02-2.52.9-3.94,3.31-5.17,8.16-4.15,16.89-5.29,25.84-5.98,14.12-1.09,28.27-1.65,42.4-2.38,12.35-.64,24.67-.17,36.99-.57,1.36-.04,2.71-.4,4.06-.41,11.41-.09,22.93-.69,33.65,4.28,10.73,4.97,15.14,14.27,16.28,25.37,1.82,17.66.34,35.39.83,53.08-49.59-1.29-99.18-.15-148.77-.49-.87,0-1.74-.11-2.6-.17Z" style="fill: #4eaaea; stroke-width: 0px;"/>
  <path d="M456.29,352.06c-.25-2.26,1.04-4.12,1.91-5.97,3.53-7.56,6.09-15.48,8.78-23.34,1.35-3.94,1.73-8.21,3.12-12.2.28-.79-.27-1.87-.56-3.44-3.58,7.78-5.23,15.58-8.69,22.72-2.18,4.49-4.37,8.94-7.22,13.04-.63.9-1.45,2.27-2.5,1.99-1.59-.42-.93-2.17-.8-3.25.58-4.94,1.51-9.93-.11-14.77-3.04-9.13-3.4-18.73-4.81-28.11-.62-4.1-.14-8.57-1.2-12.71-1.28-4.97.45-9.72.43-14.44-.03-6.44,1.58-12.65,1.4-19.1-.15-5.39.23-10.82-1.12-16.05-1.25-4.83-3.74-9.09-7.22-12.85-4.46-4.82-7.41-10.74-10.98-16.22-3.27-5.01-5.13-10.63-8.33-15.58-.46-.72-1.13-1.64-1.84-1.8-5.77-1.26-6.35-6.98-8.66-10.8-1.79-2.97-2.95-6.54-5.32-9.21-1.57-1.77-2.59-3.5-2.85-5.83-.1-.87-.28-1.64,0-2.53,1.09-3.46.02-5.62-3.83-5.89-1.94-.13-1.82-1.15-1.33-2.57.45-1.28.81-2.62.98-3.96.23-1.86-.39-3.31-2.59-3.18-3.38.19-3.72-1.88-3.23-4.37.54-2.8,1.36-5.53,1.42-8.42.03-1.72,1.28-2.49,2.82-3.06,5.72-2.08,10.81-.29,15.56,2.69,1.88,1.18,2.59.81,3.21-.98,3.45,2.77,4.99,6.83,6.39,10.69,6.15,16.88,17.91,28.39,33.55,36.52,7.22,3.76,14.04,8.14,18.42,15.4,3.18,5.28,4.31,11.1,4.63,17.14,1.12,21.45.98,42.9-.11,64.34-1.31,25.87-6.77,50.78-18.16,74.21-.32.65-.77,1.24-1.16,1.86Z" style="fill: #47a9ea; stroke-width: 0px;"/>
  <path d="M238.99,245.75c4.47-.21,8.22,1.61,11.61,4.28,8.61,6.8,15.96,14.97,24.17,22.2,4.29,3.78,8.49,7.71,14.44,8.76,2.56.36,5.15.41,7.71.97,3.35.73,6.34-.78,9.14-2.51,6.09-3.74,11.31-8.62,16.42-13.49,11.62-11.08,23.43-21.99,34.5-33.64,7.04-7.41,14.96-13.89,22.03-21.26.89-.92,1.99-1.47,3.06-2.1,4.07-.55,7.7.7,10.85,3.12,9.84,7.55,18.66,16.2,26.23,26.01,6.43,8.32,6.05,15.2-.99,22.85-28.92,31.41-59.14,61.52-91.02,89.93-3.61,3.22-7.43,6.25-11.67,8.67-16.86,6.26-32.5,3.8-47.04-6.56-7.63-5.44-14.42-11.88-21.31-18.18-13.81-12.61-26.83-26.03-40.06-39.24-1.06-1.06-2.1-2.13-3.02-3.31-3.98-5.08-4.14-7.41-.43-12.7,2.36-3.36,4.88-6.63,7.79-9.55,5.99-6,11.96-12.02,18-17.97,2.76-2.72,5.72-5.19,9.57-6.29Z" style="fill: #e0e3e4; stroke-width: 0px;"/>
  <path d="M238.99,245.75c-13.04,9.74-24.17,21.44-34.4,34.01-4.14,5.09-3.63,8.31,1.83,13.79,13.11,13.15,26.1,26.43,39.75,39.02,7.39,6.82,14.73,13.72,22.82,19.72,13.22,9.81,27.92,11.58,43.6,7.8.95-.23,1.93-.36,2.9-.54-6.62,4.92-14.18,6.7-22.28,6.75-2.11.01-4.21.03-6.32.04-5.14,1.07-9.52-1.19-13.86-3.31-7.68-3.76-14.32-9.07-20.6-14.76-10.15-9.2-20.32-18.4-29.76-28.31-6.51-6.85-13.35-13.41-19.36-20.75-7.5-9.15-7.6-18.28-.11-26.13.36-.38.72-.67,1.26-.66,5.69-5.7,11.27-11.5,17.09-17.05,4.21-4.01,8.53-8.01,14.49-9.43.99-.24,1.93-.42,2.93-.19Z" style="fill: #b6c1d3; stroke-width: 0px;"/>
  <path d="M204.48,272.43c-1.2,1.71-2.58,3.31-3.56,5.13-3.59,6.66-3.26,13.05,1.54,19.1,6.06,7.64,12.97,14.5,19.8,21.4,12.36,12.49,24.8,24.93,38.55,35.93,7.69,6.15,15.98,11.23,26.09,12.35-7.59,2.64-14.58-.1-21.47-2.69-8.65-3.25-15.41-9.43-22.25-15.38-7.99-6.95-15.44-14.46-22.8-22.07-8.03-8.31-15.97-16.72-23.75-25.26-6.63-7.28-6.42-13.97-.03-21.61,1.84-2.2,3.68-4.37,5.73-6.36.58-.56,1.15-1.5,2.15-.54Z" style="fill: #105dcc; stroke-width: 0px;"/>
  <path d="M382.09,208.98c-4.01,4.42-8.19,8.63-12.75,12.53-4.34,3.72-8.17,8.04-12.26,12.05-11.38,11.16-22.64,22.45-34.25,33.37-5.04,4.74-10.09,9.59-16.09,13.2-4.02,2.42-8.1,4.45-12.89,1.74-1.37-.77-3.26.37-4.64-.87,7.9,1.09,13.81-2.55,19.36-7.67,10.18-9.39,20.13-19.01,30-28.72,10.49-10.33,20.86-20.78,31.99-30.43,3.28-2.84,6.64-5.78,11.53-5.21Z" style="fill: #b4c3db; stroke-width: 0px;"/>
  <path d="M142.37,181.2c5.85-8.17,11.41-16.57,17.64-24.44,5.69-7.19,13.55-11.96,21.27-16.74-5.78,16.71-16.21,29.49-32.01,37.68-2.29,1.19-4.22,3.08-6.9,3.5Z" style="fill: #b3bdd0; stroke-width: 0px;"/>
  <path d="M153.45,62.8c-7.37-.06-13.23-5.99-13.22-13.37.01-7.5,6.08-13.57,13.53-13.52,7.32.05,13.41,6.4,13.26,13.83-.15,7.32-6.18,13.12-13.57,13.06Z" style="fill: #e1e5e8; stroke-width: 0px;"/>
  <path d="M50.95,49.31c.04-7.49,6.17-13.5,13.64-13.4,7.13.1,13.22,6.43,13.11,13.65-.11,7.54-6.13,13.35-13.75,13.26-7.39-.09-13.05-5.96-13-13.5Z" style="fill: #e1e4e6; stroke-width: 0px;"/>
  <path d="M122.17,49.68c-.05,7.45-5.86,13.18-13.32,13.13-7.6-.05-13.23-5.91-13.13-13.69.09-7.37,6.02-13.25,13.32-13.22,7.43.03,13.18,6.06,13.13,13.77Z" style="fill: #dee1e3; stroke-width: 0px;"/>
  <path d="M544.58,49.51c-.05,7.38-5.96,13.28-13.3,13.27-7.36,0-13.44-5.94-13.47-13.13-.02-7.74,6.06-13.87,13.66-13.75,7.1.11,13.15,6.4,13.1,13.6Z" style="fill: #e3e6e8; stroke-width: 0px;"/>
</svg>