<?xml version="1.0" encoding="UTF-8"?>
<svg id="Layer_1" data-name="Layer 1" xmlns="http://www.w3.org/2000/svg" viewBox="0 0 598.35 542.76">
  <path d="M234.08,436.84c-5.16-10.96-8.1-22.6-10.3-34.43-3.52-19-3.36-38.06-.67-57.14.07-.47-.01-.97-.03-1.45-1.02-2.36.46-4.47.68-6.71,3.32-15.93,9.03-30.99,16.67-45.33.75-1.41,1.28-3.02,3.01-3.61,2.62.33,2.02,2.19,1.52,3.66-1.01,2.95-1.94,5.93-3.71,9.43,9.25-15.82,18.96-30.34,31.62-42.64,10.26-9.96,21.72-18.34,34.06-25.53,13.28-7.04,27.04-12.83,41.75-16.12,15.52-3.47,31.26-5.18,47.13-4.25,27.11,1.59,52.42,9.16,75.51,23.73,23.83,15.04,43,34.64,57.84,58.53,3.56,5.72,6.81,11.63,10.37,17.35,1.78,2.86,3.25,5.9,4.13,9.19,2.5,7.48,4.78,15.02,6.28,22.77.32,1.67.93,3.39-.33,4.96-2.06-.16-1.92-2-2.4-3.28-2.54-6.85-5.17-13.66-9-20.65,2.34,10.7,4.59,20.76,5.8,31.06,2.81,24.02.78,47.54-6.26,70.64-2.38,7.81-2.93,15.66-.74,23.61.3,1.08.55,2.18,1.02,3.21.31.68.67,1.49,1.49,1.51,1.07.02,1.31-.99,1.63-1.79.76-1.88.27-3.99,1.12-5.85.32-.42.7-.71,1.22-.31.75.58.94,1.47,1.07,2.31,1.79,10.94,7.56,20.12,12.84,29.56,6.31,11.27,12.75,22.48,18.9,33.84.89,1.65,2.38,3.38.94,5.5q-6.46-1.56-5.98,5.4c.57,8.09-4.53,13.67-13,14.15-6.04.34-11.49-2.05-17.02-3.94-15.7-5.38-31.25-11.17-46.99-16.44-11.79-3.95-23.35-3.22-34.45,2.49-18.44,9.48-38.06,15.12-58.61,16.98-27.7,2.5-54.41-1.87-79.89-13.34-19.47-8.77-36.63-20.81-51.45-36.12-11.07-11.44-20.26-24.32-28.2-38.12-2.47-4.3-4.68-8.77-7.61-12.81Z" style="fill: #5bcf63; stroke-width: 0px;"/>
  <path d="M243.66,288.36c-8.27,13.45-13.66,28.07-17.66,43.26-.5,1.9-.49,3.94-1.56,5.68-1.5-.16-2.98-.1-4.46.23-23.43,5.17-46.61,3.65-69.61-2.63-10.51-2.87-20.6-6.74-30.37-11.61-14.88-7.41-30.39-8.38-46.18-3.29-15.8,5.09-31.55,10.33-47.41,15.24-3.59,1.11-7.21,1.74-11.05.88-7.76-1.75-11.61-5.91-12.13-13.94-.19-3-.47-5.96-1.11-8.89,3.41-8.15,8-15.69,12.13-23.46,5.3-9.97,10.77-19.84,16.17-29.76,2.61-1.11,3.26-3.66,4.09-5.93,4.22-11.47,4.84-23.12,1.2-34.87-3.86-12.49-5.55-25.38-6.25-38.33-.92-17.13.43-34.14,4.35-50.92,1.18-5.07,3.27-9.94,3.57-15.22,6.14-16.73,15.07-31.85,26.22-45.7,2.31-2.87,4.5-5.85,7.27-8.32,2.13.76.96,2.19.47,3.2-1.37,2.8-3.1,5.4-4.99,7.9-7.47,9.89-13.81,20.46-18.58,31.94,7.4-13.86,16.64-26.46,27.48-37.72,11.98-12.46,25.79-22.75,41.04-31.02,19.67-10.66,40.64-17.31,62.9-19.2,10.15-.86,20.42-.67,30.64.2,5.95.51,11.94.77,17.88,1.33,10.7,1.01,20.63,4.84,30.27,9.31,16.17,7.5,30.74,17.37,43.95,29.43,5.37,4.9,9.78,10.64,15.23,15.4,12.39,14.5,22.13,30.62,29.46,48.22,2.58,6.2,5.07,12.42,7.93,18.52,3.42,7.27,4.01,15.36,4.89,23.27.42,3.82,1.09,7.64.8,11.52-.1,1.35.12,2.77-.92,3.89-1.65,0-1.77-1.37-1.7-2.37.49-7.18-2.48-13.68-4.09-20.41-2.78-11.66-6.62-22.97-11.57-32.29,2.77,7.75,5.01,17.15,6.58,26.71,2.01,12.22,2.85,24.48.36,36.76-.49,2.44-1.02,4.87-1.68,7.28-2.17,7.93-6.86,13.64-14.28,17.28-3.9,1.91-7.4,4.48-9.88,8.19-.36,1.02-1.16,1.6-2.1,2.01-8.84,3.81-17.13,8.63-25.18,13.88-.73.48-1.5.91-2.44.77-4.42-3.65-8.58-7.57-12.35-11.91-1.98-2.27-4.85-3.51-7.07-5.5-7.08-6.35-13.45-13.35-18.2-21.65-3.33-5.81-2.94-10.14,1.56-15.05,3.7-4.03,7.65-7.84,11.73-11.51,7.14-6.42,13.94-13.24,18.9-21.54,3.45-5.77,3.27-11.9.09-17.82-2.72-5.06-5.81-9.9-10.11-13.81-1.73-1.57-3.35-3.39-5.84-3.83-6.04-4.1-11.01-9.45-15.54-15.01-8.22-10.09-18.79-9.94-27.9-1.32-11.33,10.72-22.14,22-33.18,33.03-5.18,5.18-8.65,5.28-13.94,0-10.51-10.49-20.42-21.57-31.15-31.85-1.44-1.38-2.83-2.8-4.62-3.77-6.63-3.6-15.04-2.41-21.41,3.48-5.59,5.17-11,10.55-16.15,16.16-6.03,6.58-5.62,15.22.87,21.82,9.1,9.26,18.32,18.4,27.54,27.55,2.31,2.29,4.43,4.73,6.44,7.29,2.65,3.38,2.89,7.13.75,10.8-1.21,2.07-2.83,3.79-4.52,5.47-10.6,10.59-21.24,21.13-31.76,31.8-5.59,5.67-6.4,13.55-1.96,19.04,1.8,2.22,3.59,4.48,5.61,6.53,4.9,4.98,9.87,9.91,14.82,14.84,1.61,1.61,3.44,2.89,5.6,3.64,1,.45,2.14.72,2.56,1.95,1.64,5.26,5.91,7.92,10.46,9.98,10.34,4.68,19.02,2.76,28.1-6.32,7.16-7.16,14.53-14.03,22.8-19.89,1.74-1.23,3.55-2.29,5.46-3.23,3.08-1.52,6.14-1.78,9.38-.45,2.3.94,4.62,1.91,7.15,2.1,2.74.92,4.23,3.34,6.23,5.15,3.39,3.07,6.15,6.83,10.13,9.25,1.83,1.75,4.69,1.32,6.53,3.07.93,4.39,4.53,6.56,7.61,9.15,1.3,1.09,3.08,1.66,3.69,3.48-1.94,4.62-4.7,8.72-8.01,12.46Z" style="fill: #ea5844; stroke-width: 0px;"/>
  <path d="M359.24,176.88c.33-11.62-.86-23.17-4.21-34.22-2.58-8.5-6.79-16.5-10.26-24.73-7.05-16.75-16.84-31.82-28.22-45.91-12.06-14.44-26.22-26.4-42.05-36.58-14.99-9.65-30.65-17.66-47.9-22.38-1.8-.49-3.71-.58-5.41-1.41-.65-.32-1.45-.78-1.15-1.67.2-.61.94-.75,1.58-.79,1.26-.07,2.47.32,3.7.51,13.25,2.04,25.79,6.72,38.68,10.14,11.21,2.98,22.35,6.15,33.26,10.1,1.41.51,2.94.48,4.22.99-1.11-1.99-4.59-2.67-3.65-6.05,6.29,2.54,11.44,6.85,16.63,11,31,24.75,51.31,56.4,60.71,94.95,5.18,21.23,6.51,42.69,2.99,64.36-.26,1.59-.43,3.19-.64,4.79-.02,1.33-1.05,1.63-2.02,1.77-5.32.76-10.41,2.54-15.68,3.55-.95.05-1.83-.07-2.46-.88-1.42-2.81-.2-5.64.02-8.44.39-5.08.89-10.15.77-15.27-.03-1.35-.03-2.77,1.1-3.82Z" style="fill: #ef8e82; stroke-width: 0px;"/>
  <path d="M359.99,204.49c4.94-1.72,10-2.97,15.19-3.63.87-.11,1.7-.23,2.34-.89,6.44-.29,12.84-1.15,19.27-1.64,8.76-.66,17.36.16,26.02.95,10.68.97,21.03,3.34,31.23,6.54,20.03,6.29,38.15,16.07,54.54,29.21,18.53,14.85,33.2,32.83,44.36,53.72.46.86,1.15,1.66.97,2.76-1.8.48-2.73-.91-3.81-1.86-2.26-1.99-4.65-2.57-7.57-1.48-5.82,2.18-11.72,3.51-17.64.21-4.28-5.01-7.92-10.51-12.19-15.55-7.53-8.87-15.75-16.98-24.78-24.28-6.5-5.25-13.33-10.04-20.54-14.28-1.28-.75-2.66-1.41-3.61-2.63-20.98-11.69-42.98-20.28-67.18-22.36-10.08-.87-20.13-1.01-30.2,0-2.48.25-4.98.18-7.47.03-1-.06-2.26-.13-2.58-1.15-.4-1.26.7-1.99,1.72-2.55.65-.36,1.4-.53,1.92-1.12Z" style="fill: #a5e7a9; stroke-width: 0px;"/>
  <path d="M297.82,24.87c.73,3.14,4.11,4.2,5.81,7.59-27.88-7.99-54.86-17.24-82.9-22.49,2.01,2.11,4.91,1.89,7.32,2.55,24.11,6.56,44.73,19.43,64.11,34.68,8.54,6.72,16.11,14.4,23.26,22.54.59.67,1.15,1.31,1.13,2.27-3.37-2.44-5.63-5.96-8.54-8.81-4.89-4.78-9.91-9.45-15.23-13.73-15.36-12.33-32.23-22.01-51.08-28.03-6.91-2.21-14-2.89-21.21-3.56-10.68-.99-21.33-1.33-32.03-1.34-16.98,0-33.25,3.61-49.16,9.27-15.71,5.59-30.09,13.62-43.45,23.56-18.09,13.46-32.61,30.1-44.05,49.48-1.2,2.03-2.45,4.04-3.69,6.05-.38.61-.8,1.2-1.6,1.67-.37-2.59.96-4.79,1.96-6.95,4.94-10.65,11.2-20.49,18.17-29.94,1.91-2.59,4.82-5,4.23-8.9,14.78-16.43,32.56-28.75,52.42-38.17,6.38-3.02,12.69-6.24,19.49-8.28,14.34-5.42,29.62-7.01,44.35-10.88,4.37-1.15,8.87-2.36,13.53-2.24,1.5.04,2.96-.3,4.27-1.09,4.5.01,9,.03,13.49.04,2.44,1.51,5.11.09,7.63.6.7.07,1.39.13,2.09.2,1.63,1.54,3.65-.45,5.33.59,7.85,1.7,15.88,2.54,23.58,5.06,8.49,2.79,16.99,5.32,24.91,9.73,3.95,2.2,8.15,4.07,12.13,6.29.8.71,1.91.84,2.75,1.46.33.26.65.51.98.77Z" style="fill: #f08070; stroke-width: 0px;"/>
  <path d="M577.21,518.53c-.94-5.83-4.74-10.31-7.44-15.27-7.63-14.08-16.18-27.66-22.97-42.18-2-4.28-2.7-9.17-4-13.78-2-2.71-1.96-5.82-1.64-8.94.41-4.1,1.25-8.1,2.47-12.06,5.78-18.67,7.54-37.86,7.02-57.31.07-2.48.34-4.97-.27-7.43-.19-.77-.29-1.55-.32-2.34-.06-1.46.13-2.94-.33-4.37-.1-.34-.17-.69-.23-1.04-.13-1.21-.18-2.42-.36-3.63,0-.36.11-.68.35-.95-.68-8.48-3.33-16.5-5.9-24.53-.34-1.06-.94-2.04-.81-3.21,1.86-.1,2.1,1.51,2.61,2.66.85,1.93,1.78,3.83,2.53,5.8,2.71,7.13,6.29,13.49,13.87,16.58,6.1,2.49,8.47,7.64,9.38,13.73.13.86.21,1.73.82,2.43.84,19.13-1.31,37.88-7.03,56.19-1.07,3.44-2.15,6.86-2.1,10.52-.36,2.46-.57,4.95-.44,7.4.21,4.11-1.36,7.25-4.53,9.73-2.06,1.62-4.22,3.1-6.34,4.65-4.2,3.08-4.78,4.92-2.47,9.53,3.75,7.47,7.8,14.79,11.82,22.11,3.84,7,7.62,14.03,11.53,20.99.73,1.31,1.43,2.63,2.24,3.89,3.26,5.03,4.42,5.45,10.2,3.61,1.67-.53,3.35-1,5.03-1.48,3.36-.96,6.17-.4,8.18,2.69.17,3.27.71,6.56-.69,9.72-5.4,3.16-11.38,4.89-17.19,7.05-.93.35-1.98.39-2.7-.61-.58-3.36-1.69-6.71-.32-10.13Z" style="fill: #7bc27f; stroke-width: 0px;"/>
  <path d="M577.21,518.53c.63,3.45.96,6.91.86,10.42.11,5-2.84,8.12-6.68,10.58-1.42.91-3.01,1.63-4.69,2.06-4.77,1.43-9.65,1.61-14.36.15-18.69-5.77-36.98-12.74-55.4-19.3-10.38-3.7-20.16-3.59-30.32,1.22-24.37,11.54-50.02,18.42-77.16,18.4-30.72-.02-59.45-7.83-85.74-23.77-30.84-18.7-53.59-44.68-68.33-77.63-.55-1.23-.87-2.55-1.3-3.83,1.97-.06,2.32,1.59,3.02,2.87,10.73,19.48,22.91,37.92,39.32,53.16,10.05,9.33,21.06,17.41,33.13,24.02,14.4,7.89,29.54,13.69,45.67,16.81,8.76,1.69,17.57,2.62,26.54,2.95,11.1.4,21.99-.49,32.87-2.4,13.91-2.43,27.42-6.31,40.02-12.68,7.9-3.99,15.92-7.18,24.75-7.41,7.66-.2,14.83,2.44,22.03,4.92,17.26,5.94,34.18,12.91,51.83,17.66,5.1,1.37,10.3.77,14.17-3.39,2.67-2.86,3.27-6.57,2.67-10.42-.04-.24-.22-.48-.22-.71.02-1.93-1.11-4.55.69-5.57,2.29-1.3,4.8-.13,6.63,1.89Z" style="fill: #2fa234; stroke-width: 0px;"/>
  <path d="M598.1,512.5c-3.75-3.36-7.77-2.05-11.8-.69-1.06.36-2.1.79-3.18,1.07-3.4.87-6.22.61-8.18-3.02-5.08-9.4-10.45-18.65-15.61-28.01-3.78-6.86-7.52-13.76-11.1-20.73-2.69-5.23-1.94-7.54,2.97-10.92,1.94-1.34,3.82-2.77,5.79-4.07,5.15-3.39,4.62-8.89,5.26-13.96.12-.96-.22-2.02.62-2.82-1.17,14.11,6.61,25.14,12.69,36.74,6.29,12,12.66,23.95,19,35.92,1.75,3.3,3.24,6.69,3.54,10.48Z" style="fill: #89d68d; stroke-width: 0px;"/>
  <path d="M2.12,313.29c2.1,1.47,1.91,3.76,2.03,5.89.12,2.11.22,4.17.64,6.28,1.69,8.43,9.13,10.48,16.02,9.93,4.01-.32,7.95-1.87,11.85-3.1,15.41-4.9,30.64-10.41,46.21-14.69,13.94-3.83,27.9-2.21,40.83,4.41,16.91,8.66,34.81,14.07,53.5,16.48,15.94,2.06,31.98,1.69,47.74-2.25,1.41-.35,2.96-1.38,3.48,1.06.02,2.27-.64,4.4-1.35,6.52-17.99,2.84-36,3.13-54,.09-17.03-2.88-33.54-7.5-48.97-15.4-14.02-7.18-28.34-8.52-43.4-3.6-16.8,5.49-33.48,11.41-50.55,16.06-5.17,1.41-10.4,1.03-15.42-.86-8.56-3.23-12.39-11.45-10.1-21.93.35-1.62.03-3.55,1.47-4.87Z" style="fill: #cc2b1d; stroke-width: 0px;"/>
  <path d="M572.01,362.66c-1.23-.48-1.62-1.59-1.71-2.7-.65-7.73-5.96-11.69-12.18-14.63-3.89-1.84-6.06-4.86-8.03-8.43-2.76-5-4.02-10.7-7.29-15.44-7.39-15.56-16.5-30.05-26.89-43.78-4.99-6.59-10.79-12.4-16.68-18.13-20.87-20.27-45.21-34.38-73.55-41.44-15.45-3.85-31.15-5.3-46.96-4.43-23.32,1.29-45.64,6.78-66.45,17.74-1.75.92-3.41,2.1-5.45,2.39-.12-2.52,2.08-2.88,3.61-3.7,16.92-9.02,35.01-14.58,53.88-17.43,31.7-4.79,62.13-.62,90.93,13.89,3.23,1.63,6.54,3.08,9.64,4.96,7.27,5.14,14.86,9.78,21.9,15.29,13.08,10.23,24.3,22.17,34.17,35.44,1.33,1.79,2.57,3.63,3.86,5.45,4.14,2.89,7.62,6.56,10.16,10.78,3.67,6.09,9.24,7.92,15.53,7.52,5.73-.36,9.55,1.71,12.35,6.39,5.77,16.25,9.18,32.92,9.14,50.22Z" style="fill: #87d78c; stroke-width: 0px;"/>
  <path d="M37.38,114.8c1.47,2.62.13,5.24-.53,7.57-5.39,19.06-7.28,38.51-6.36,58.2.69,14.88,3.74,29.41,7.48,43.85,3.05,11.79.98,23.37-4.34,34.31-1.27,2.62-1.61,2.64-3.21,1.34,3.46-9.81,5.27-19.81,3.78-30.25-.97-6.8-3.48-13.21-4.74-19.97-3.06-16.43-3.85-33.01-2.64-49.56,1.15-15.61,4.65-30.89,10.56-45.49Z" style="fill: #e53218; stroke-width: 0px;"/>
  <path d="M562.87,312.44c-2.03-1.41-3.45-3.54-5.87-4.53-1.85-.76-3.53-.95-5.61-.9-6.51.15-12.67-.68-16.7-7.24-2.69-4.37-6.54-8.03-9.87-12.01,5.66,2.29,11.37,2.22,16.86-.3,4.45-2.04,7.55-.5,10.39,2.82.46.54,1.22.83,1.84,1.24,3.48,6.77,6.8,13.6,8.96,20.93Z" style="fill: #88de8c; stroke-width: 0px;"/>
  <path d="M566.7,541.6c5.6-2.58,9.66-6.56,11.37-12.64,5.15-1.94,10.28-3.91,15.44-5.8,1.25-.46,2.6-.63,3.9-.93-.95,4.22-3.26,7.51-7.07,9.52-7.58,3.99-15.28,7.72-23.64,9.86Z" style="fill: #81a682; stroke-width: 0px;"/>
  <path d="M204.94.12c-.9,1.56-2.38,2.16-4.06,2.19-5.96.09-11.65,1.73-17.36,3.12-12.68,3.07-25.68,4.8-38.15,8.81-.79.25-1.73.07-2.59.09,10.96-5.38,22.64-8.65,34.5-11.15,9.09-1.92,18.28-3.49,27.65-3.06Z" style="fill: #ef8e82; stroke-width: 0px;"/>
  <path d="M226.06.76c-2.59.44-5.29,2.22-7.63-.6,2.55.06,5.17-.69,7.63.6Z" style="fill: #ef8e82; stroke-width: 0px;"/>
  <path d="M233.48,1.55c-1.71-.75-3.89,2.62-5.33-.59,1.81-.08,3.65-.5,5.33.59Z" style="fill: #ef8e82; stroke-width: 0px;"/>
  <path d="M296.85,24.1c-1.19.03-2.21-.27-2.75-1.46,1.28-.2,2.14.39,2.75,1.46Z" style="fill: #ef8e82; stroke-width: 0px;"/>
  <path d="M336.91,457.7c-17.19-17.57-34.33-35.2-51.6-52.68-15.34-15.53-10.09-37.84,9.22-47.37,14.99-7.4,24.85-5.28,36.62,6.66,2.63,2.66,5.14,5.44,7.75,8.12,4.27,4.38,8.51,8.79,12.88,13.07,4.67,4.57,8.9,4.48,13.47-.08,26.48-26.46,52.95-52.94,79.46-79.38,6.53-6.51,14.44-10.06,23.74-10.13,7.95-.06,14.44,3.18,19.65,9.1,3.89,3.97,6.45,8.5,6.21,14.29-.08,1.91-.28,3.72-1.54,5.27-1.06,1.31-1.38,2.9-1.58,4.53-.92,7.34-4.27,13.32-9.53,18.56-36.21,36.1-72.38,72.26-108.49,108.47-8.42,8.45-18.02,10.43-29.08,6.22-2.75-1.04-4.72-3.19-7.17-4.64Z" style="fill: #e0e0e0; stroke-width: 0px;"/>
  <path d="M489.57,305.81c2.71-1.39,4.08,1.1,5.6,2.27,11.39,8.73,18.94,20.2,23.61,33.71,3.59,10.41.37,19.53-5.76,27.62-9.04,11.93-19.8,22.41-30.53,32.76-16.33,15.74-32,32.13-48.47,47.72-8.22,7.78-16.29,15.72-24.21,23.78-14.6,14.85-27.63,16.61-46.39,9.02-5.59-2.26-10.57-5.34-14.19-10.44-1.71-2.41-4.15-4.3-6.28-6.41-1.27-1.26-2.32-2.62-2.39-4.5,4.29.52,7.99,3.3,12.42,3.29,1.41.42,2.81.53,4.22,0,3.69-.42,7.1-1.81,10.55-3.04,3.45-.99,6.29-2.97,8.79-5.47,37.82-37.82,75.67-75.61,113.43-113.49,5.2-5.22,7.01-11.86,6.48-19.15-.72-5.74-2.73-10.96-6.09-15.68-.41-.57-1.03-1.11-.78-1.97Z" style="fill: #3eaa44; stroke-width: 0px;"/>
  <path d="M464.89,231.56c-6.99-2.62-13.37-6.59-20.42-9.12-13.13-4.72-26.46-8.26-40.4-9.71-9.59-1-19.19-.98-28.71-.44-10.99.62-21.79,3.17-32.44,6.12-11.55,3.2-22.62,7.62-33.21,13.22-1.08.57-2.38.88-2.88,2.21-1.82,2.14-4.46,3.04-6.75,4.48-11.73,7.38-22.36,16.15-31.77,26.27-9.14,9.84-16.72,20.9-23.5,32.5-1.18,2.02-2.54,3.93-4.39,6.76.44-4.78,2.28-8.06,3.46-11.52.47-1.39,1.51-2.73-.21-3.97,1.94-4.59,5.27-8.33,7.63-12.66-.19-1.86,1.26-2.91,2.17-4.17,7.93-10.95,17.32-20.52,27.66-29.19,2.98-2.25,5.71-4.81,8.82-6.88.99-.66,1.87-1.78,3.31-1.07,9.38-6.17,19.37-11.23,29.36-16.29.19-.95.89-1.49,1.69-1.83,10.22-4.42,20.39-8.94,31.22-11.75.72-.19,1.46-.31,2.17.07.77-.03,1.53-.06,2.3-.08-.39,1.7-2.37,2.01-3.53,3.82,3.65,0,6.89.4,10-.08,8.56-1.31,17.18-.98,25.7-.5,16.3.93,32.03,4.81,47.21,10.99,7.74,3.15,15.15,6.95,22.61,10.64,1.09.54,2.38.88,2.91,2.19Z" style="fill: #88de8c; stroke-width: 0px;"/>
  <path d="M550.27,353.7c0,.24,0,.47.02.71.92,1.41-.19,3.13.72,4.54.02.73.04,1.47.05,2.2.96,2.44-.3,5.08.71,7.52.7,21.4-1.75,42.35-8.4,62.79-1.65,5.07-1.5,10.52-.55,15.84-.02,2.73.19,5.5-1.08,8.05-.43.86-.65,2.11-1.83,2.14-1.47.03-2.12-1.25-2.53-2.4-2.29-6.38-3.51-12.91-2.46-19.72,1.5-9.7,5.47-18.82,6.75-28.56,1.79-13.64,3.13-27.22,2.11-41.1-1.04-14.18-3.87-27.93-6.91-41.71-.07-.34.06-.72.22-2.24,6.06,9,9,18.35,12.44,27.45,0,.23,0,.47.02.7.86,1.14-.15,2.65.73,3.79Z" style="fill: #2caa33; stroke-width: 0px;"/>
  <path d="M353.31,465.42c-4.76.22-8.74-1.99-12.76-4.09-.8-1.62-3-1.85-3.64-3.63,4.6,2.13,8.87,4.9,14.13,5.54,7.35.89,14.07-.57,19.27-5.75,37.79-37.59,75.45-75.31,113.1-113.04,4.39-4.4,6.23-10.08,6.96-16.16.12-.97.16-2.12.69-2.85,4.41-5.97,2.3-11.42-1.06-16.88-.7-1.14-1.87-2.07-1.91-3.57.5.27.99.54,1.49.81,4.29,5.2,7.53,10.85,7.55,17.85.31,4.53-1.27,8.46-3.81,12.08-3.88,5.52-8.25,10.58-12.96,15.45-33.63,34.81-68.25,68.64-102.33,103.01-3.01,3.03-6.22,5.75-9.81,8.04-3.61,1.58-7.28,3-11.28,3.24-1.21.25-2.43.32-3.63-.05Z" style="fill: #b4c4b4; stroke-width: 0px;"/>
  <path d="M131.43,262.33c-2.55-.26-4.2-2.03-5.85-3.68-6.18-6.18-12.35-12.37-18.41-18.66-7.29-7.56-7.18-16.23.25-23.74,10.8-10.91,21.52-21.92,32.55-32.59,5.54-5.36,5.87-10.71.15-16.33-10.59-10.42-20.96-21.06-31.39-31.64-7.83-7.94-7.8-16.67.06-24.64,4.29-4.36,8.71-8.59,12.91-13.04,2.9-3.08,6.36-5.05,10.23-6.63,6.88-2.8,12.74-1.2,17.76,3.84,10.85,10.87,21.58,21.85,32.38,32.76,1.13,1.14,2.33,2.32,3.72,3.07,2.61,1.41,4.96,1.39,7.36-1.06,11.35-11.6,22.9-23,34.29-34.57,3.57-3.63,7.98-5.63,12.74-6.64,5.7-1.2,10.47,1.11,14.49,5.18,5.87,5.95,11.78,11.87,17.67,17.79,2.64,1.09,4.08,3.1,4.6,5.86.49,7.83-3.73,13.5-8.8,18.65-9.88,10.05-19.89,19.97-29.88,29.91-2.04,2.03-3.91,4.19-5.67,6.46-2.64,3.42-2.92,6.88.28,9.7,7.93,6.98,15.41,14.5,23.98,20.74,5.89,4.62,10.88,10.17,15.94,15.63.83.9,1.47,2.02,1.47,3.35.61,9.36-3.63,16.48-10.23,22.62-3.92,3.65-7.78,7.39-11.34,11.37-5.45,6.1-11.69,8.12-19.36,4.75-4.71-3.05-8-7.61-12.08-11.34-1.08-.99-2.17-1.98-3.25-2.97-1.74-.51-2.97-1.73-4.24-2.95-5.31-5.08-10.22-10.53-15.18-15.94-2.2-2.4-4.77-4.36-7.52-6.09-3.78-2.19-6.74-.37-9.38,2.11-4.44,4.18-8.67,8.59-12.99,12.9-6.96,6.95-14.04,13.8-20.83,20.91-4.65,4.88-9.89,6.85-16.44,4.89Z" style="fill: #e5e6e5; stroke-width: 0px;"/>
  <path d="M276.19,117.68c-.36-2.58-2.57-3.94-3.85-5.91.58-.84,1.15-.59,1.86-.09,7.38,5.15,12.55,12.25,15.89,20.32,2.89,6.98,1.04,13.88-3.65,19.96-7.88,10.21-17.77,18.44-26.79,27.53-1.05,1.06-2.09,2.15-2.97,3.34-3.5,4.75-2.35,9.3.62,13.82,6.2,9.45,13.8,17.46,22.83,24.35,4.91,3.75,8.78,8.87,13.12,13.37-4.33,2.28-7.61,5.99-11.74,8.54-2.28-.14-1.99-2.13-2.35-3.49-.74-2.82-1.04-5.76-2.71-8.27-.65-3.14-1.88-6.13-2.46-9.29-4.99-6.79-11.42-12.2-17.34-18.11-7.1-5.91-13.73-12.33-19.95-19.14-4.26-4.67-3.67-10.44,1.16-15.33,11.14-11.27,22.37-22.45,33.61-33.62,2.74-2.72,4.7-5.79,5.47-9.58.48-1.3.52-2.6.05-3.92-.23-1.5-.11-3.07-.82-4.49Z" style="fill: #c73324; stroke-width: 0px;"/>
  <path d="M191.52,220.97c3.71,1.32,6.06,4.37,8.48,7.13,5.68,6.46,12.27,12.01,18.01,18.4-2.03.22-3.93-.11-5.75-1.12-5.72-3.15-10.69-1.2-15.53,2.24-8.63,6.14-16.48,13.16-23.8,20.79-3.68,3.84-8.29,6.49-13.3,7.96-8.12,2.39-15.06-.89-21.44-5.63-1.48-1.1-2.68-2.59-3.98-3.94-.89-.92-1.84-1.88-.35-3.09,3.88-1.11,8.01-1.13,11.67-3.32,2.48-1.48,4.87-2.94,6.92-5,10.74-10.77,21.5-21.51,32.25-32.27,1.91-1.92,3.81-3.75,6.82-2.17Z" style="fill: #c53126; stroke-width: 0px;"/>
  <path d="M357.69,204.58c-10.94,3.42-21.6,7.57-32.13,12.09-1,.43-1.97.95-2.95,1.42-1.54-1.65.29-2.12,1.08-2.78,3.34-2.78,6.69-5.51,10.71-7.37,7.49-3.47,10.65-10.25,12.44-17.66,1.95-8.09,3.16-16.37,2.62-24.71-.98-15.16-3.94-29.96-8.68-44.41-.31-.94-.62-1.89-.89-2.85-.06-.2.1-.46.33-1.36,3.27,5.32,5.58,10.55,7.74,15.86,3.99,9.82,5.81,20.3,9.19,30.27,1.56,4.62.4,9.37,2.09,13.8.49,9.29-.72,18.48-1.55,27.7Z" style="fill: #d73a1b; stroke-width: 0px;"/>
  <path d="M276.92,230.84c2.54,1.65,2.23,4.51,2.9,6.93.48,1.75.41,3.66,1.7,5.14-6.99,6.51-14.21,12.8-20.27,20.24-3.37,4.14-6.64,8.36-9.95,12.54-3.63-2.21-7.03-4.71-9.76-7.98-.92-1.1-2.8-2.05-1.29-4,.84-.94,2.05-.76,3.11-1.01,4.91-1.19,9.35-3.14,12.93-6.95,4.43-4.71,9.06-9.23,13.7-13.73,2.64-2.56,4.91-5.26,5.62-9.01.16-.84.5-1.68,1.32-2.18Z" style="fill: #b22e1b; stroke-width: 0px;"/>
  <path d="M191.52,220.97c-2.7-.28-4.58.95-6.46,2.86-10.64,10.85-21.41,21.56-32.13,32.33-5.27,5.29-11.5,8.13-19.08,7.57-.81-.46-1.62-.93-2.42-1.39,7.43.82,12.92-2.2,18.01-7.61,10.24-10.89,21.02-21.26,31.62-31.81,3.74-3.72,7.16-4.29,10.47-1.94Z" style="fill: #c2a994; stroke-width: 0px;"/>
  <path d="M276.92,230.84c-.48,4.38-2.32,8-5.53,11.08-5.03,4.83-9.87,9.86-14.8,14.8-4.51,4.52-9.94,6.91-16.35,7-2.23-1.13-5.09-.77-6.9-2.91,1.26-.12,2.44.28,3.67.5,4.96.9,9.33-.21,12.97-3.94,5.23-5.36,10.67-10.51,15.83-15.93,4.47-4.69,7.86-9.98,7.33-16.92-.07-.96-.25-2.04.86-2.66,2.43,2.52,2.55,5.79,2.92,8.97Z" style="fill: #b4c39e; stroke-width: 0px;"/>
  <path d="M551.76,368.67c-1.39-2.4-.51-5.01-.71-7.52,1.46,2.39.47,5.01.71,7.52Z" style="fill: #5bcf63; stroke-width: 0px;"/>
  <path d="M551.01,358.95c-1.26-1.35-.59-3.01-.72-4.54,1.33,1.34.58,3.01.72,4.54Z" style="fill: #5bcf63; stroke-width: 0px;"/>
  <path d="M550.27,353.7c-1.18-1.08-.65-2.49-.73-3.79,1.23,1.07.63,2.5.73,3.79Z" style="fill: #5bcf63; stroke-width: 0px;"/>
  <path d="M368.22,462.24c1.74-2.85,4.8-4.28,7.08-6.57,28.96-29.06,58.07-57.96,86.92-87.12,7.86-7.94,15.87-15.78,23.29-24.11,5.29-5.95,10.7-12.21,11.61-20.77,1.03,7.2-1.14,13.6-5.86,18.81-6.03,6.65-12.58,12.82-18.93,19.17-31.23,31.23-62.46,62.46-93.69,93.69-3.01,3.01-6.11,5.87-10.43,6.9Z" style="fill: #8fab90; stroke-width: 0px;"/>
  <path d="M353.31,465.42c1.21.02,2.42.03,3.63.05-1.22.82-2.43.85-3.63-.05Z" style="fill: #5bcf63; stroke-width: 0px;"/>
  <path d="M276.19,117.68c1.42,1.19,1.37,2.91,1.61,4.52.23,1.24.3,2.48-.06,3.71-.4,3.75-2.13,6.8-4.78,9.45-11.47,11.48-22.9,22.99-34.34,34.5-5.51,5.55-5.46,9.79.06,15.41,6.02,6.13,11.99,12.32,17.97,18.48-3.06-.74-4.92-3.27-7.03-5.2-5.39-4.95-10.92-9.73-16.55-14.4-4.22-3.5-4.58-8.26-.98-12.37,11.25-12.83,23.94-24.25,35.77-36.51,4.76-4.93,8.34-10.42,8.31-17.61Z" style="fill: #c4ba9d; stroke-width: 0px;"/>
  <path d="M277.75,125.92c.02-1.24.04-2.48.05-3.71.8,1.25.83,2.49-.05,3.71Z" style="fill: #ea5844; stroke-width: 0px;"/>
</svg>