<svg width="57" height="56" viewBox="0 0 57 56" fill="none" xmlns="http://www.w3.org/2000/svg">
<mask id="mask0_1998_2622" style="mask-type:alpha" maskUnits="userSpaceOnUse" x="2" y="9" width="53" height="41">
<path d="M3.67801 26.2425C1.75674 24.2355 1.5975 21.1233 3.30388 18.9307L9.08697 11.4998C10.148 10.1364 11.7788 9.33911 13.5064 9.33911H43.2771C45.0182 9.33911 46.6602 10.1489 47.72 11.5303L53.4107 18.9471C55.0896 21.1354 54.9252 24.2204 53.0231 26.2178L32.4484 47.8239C30.2455 50.1373 26.5568 50.1421 24.3478 47.8346L3.67801 26.2425Z" fill="white"/>
</mask>
<g mask="url(#mask0_1998_2622)">
<path d="M0.332794 22.7482L10.7683 9.33911H46.0387L56.3269 22.7482L28.4035 52.0714L0.332794 22.7482Z" fill="url(#paint0_linear_1998_2622)"/>
<path d="M0.332794 22.7485L13.2556 27.0159L28.4035 52.0718L0.332794 22.7485Z" fill="black" fill-opacity="0.1"/>
<path d="M56.2561 22.7485L43.1181 27.0159L28.4034 52.0718L56.2561 22.7485Z" fill="black" fill-opacity="0.1"/>
<g style="mix-blend-mode:overlay">
<path d="M28.1889 12.2717L10.6539 9.3335L13.2562 27.0158H28.1152H28.2626H43.1187L45.7209 9.3335L28.1889 12.2717Z" fill="white"/>
</g>
<g style="mix-blend-mode:soft-light">
<path d="M10.6539 9.3335L28.404 15.2276L46.0392 9.33939L10.6539 9.3335Z" fill="white"/>
</g>
<g style="mix-blend-mode:overlay">
<path d="M28.1883 12.2712L13.2556 27.0154H43.1181L28.1883 12.2712Z" fill="white"/>
</g>
<g style="mix-blend-mode:soft-light">
<path d="M28.4034 15.2273L13.2556 27.0155H43.1181L28.4034 15.2273Z" fill="white"/>
</g>
<g style="mix-blend-mode:soft-light">
<path d="M13.2556 27.0158L0.332794 22.7485L10.6534 9.3335H13.2556V27.0158Z" fill="white"/>
</g>
<g style="mix-blend-mode:soft-light">
<path d="M43.1183 27.0158L56.333 22.7485L46.0124 9.3335H43.4101L43.1183 27.0158Z" fill="white"/>
</g>
<g style="mix-blend-mode:soft-light" opacity="0.5">
<path d="M13.2556 27.0159L28.3298 52.0335L43.1181 27.0159H13.2556Z" fill="white"/>
</g>
<g style="mix-blend-mode:soft-light" opacity="0.3" filter="url(#filter0_i_1998_2622)">
<path d="M13.2556 27.0159L28.3298 52.0335L43.1181 27.0159H13.2556Z" fill="black"/>
</g>
</g>
<defs>
<filter id="filter0_i_1998_2622" x="13.2556" y="23.0159" width="29.8625" height="29.0176" filterUnits="userSpaceOnUse" color-interpolation-filters="sRGB">
<feFlood flood-opacity="0" result="BackgroundImageFix"/>
<feBlend mode="normal" in="SourceGraphic" in2="BackgroundImageFix" result="shape"/>
<feColorMatrix in="SourceAlpha" type="matrix" values="0 0 0 0 0 0 0 0 0 0 0 0 0 0 0 0 0 0 127 0" result="hardAlpha"/>
<feOffset dy="-4"/>
<feGaussianBlur stdDeviation="15"/>
<feComposite in2="hardAlpha" operator="arithmetic" k2="-1" k3="1"/>
<feColorMatrix type="matrix" values="0 0 0 0 1 0 0 0 0 1 0 0 0 0 1 0 0 0 1 0"/>
<feBlend mode="normal" in2="shape" result="effect1_innerShadow_1998_2622"/>
</filter>
<linearGradient id="paint0_linear_1998_2622" x1="28.3298" y1="9.33911" x2="28.3298" y2="52.0714" gradientUnits="userSpaceOnUse">
<stop stop-color="#D32F2F"/>
<stop offset="0.434333" stop-color="#F44336"/>
<stop offset="1" stop-color="#FFCDD2"/>
</linearGradient>
</defs>
</svg>
