<svg width="20" height="20" viewBox="0 0 20 20" fill="none" xmlns="http://www.w3.org/2000/svg">
<g id="Heart">
<path id="Icon" fill-rule="evenodd" clip-rule="evenodd" d="M8.29877 5.31672C7.22565 4.15376 5.51567 4.15376 4.44256 5.31672C3.33398 6.5181 3.33398 8.49156 4.44256 9.69294L10 15.7157L15.5575 9.69294C16.666 8.49156 16.666 6.5181 15.5575 5.31672C14.4844 4.15376 12.7744 4.15376 11.7013 5.31672L10.6124 6.49668C10.4547 6.66764 10.2326 6.76489 10 6.76489C9.76738 6.76489 9.54534 6.66764 9.38758 6.49668L8.29877 5.31672ZM3.21768 4.18647C4.95077 2.30829 7.79056 2.30829 9.52364 4.18647L10 4.70272L10.4764 4.18647C12.2095 2.30829 15.0493 2.30829 16.7823 4.18647C18.48 6.02623 18.48 8.98343 16.7823 10.8232L11.0207 17.0672C10.4708 17.6632 9.52926 17.6632 8.97929 17.0672L3.21768 10.8232C1.52005 8.98344 1.52005 6.02623 3.21768 4.18647Z" fill="#4A4A4A"/>
</g>
</svg>
