<svg width="20" height="21" viewBox="0 0 20 21" fill="none" xmlns="http://www.w3.org/2000/svg">
<g id="Heart">
<path id="Icon" fill-rule="evenodd" clip-rule="evenodd" d="M8.29876 5.81672C7.22564 4.65376 5.51566 4.65376 4.44254 5.81672C3.33397 7.0181 3.33397 8.99156 4.44254 10.1929L10 16.2157L15.5575 10.1929C16.666 8.99156 16.666 7.0181 15.5575 5.81672C14.4843 4.65376 12.7744 4.65376 11.7012 5.81672L10.6124 6.99668C10.4547 7.16764 10.2326 7.26489 10 7.26489C9.76736 7.26489 9.54532 7.16764 9.38756 6.99668L8.29876 5.81672ZM3.21767 4.68647C4.95076 2.80829 7.79054 2.80829 9.52363 4.68647L10 5.20272L10.4764 4.68647C12.2095 2.80829 15.0492 2.80829 16.7823 4.68647C18.48 6.52623 18.48 9.48343 16.7823 11.3232L11.0207 17.5672C10.4707 18.1632 9.52925 18.1632 8.97927 17.5672L3.21767 11.3232C1.52003 9.48344 1.52003 6.52623 3.21767 4.68647Z" fill="#005BD3"/>
</g>
</svg>
