<svg width="588" height="521" viewBox="0 0 588 521" fill="none" xmlns="http://www.w3.org/2000/svg">
<path d="M123.25 31C142.362 95.7238 140.019 130.817 112.25 191M465.25 31L345.75 3C304.201 12.3386 281.541 12.3203 242.25 3L123.75 31L2.75 98.5L41.25 185L112.25 191.5V519H465.25V191.5M465.25 31L585.25 98.5L544.25 185L465.25 191.5M465.25 31C432.049 96.8047 431.787 131.971 465.25 191.5" stroke="#CCCCCC" stroke-width="4"/>
<path fill-rule="evenodd" clip-rule="evenodd" d="M293.75 54.0001C322.193 54.0001 345.25 31.3859 345.25 3.48992C345.25 3.36308 345.25 3.23635 345.249 3.10974C304.019 12.1581 281.384 12.1038 242.252 3C242.251 3.16312 242.25 3.32643 242.25 3.48992C242.25 31.3859 265.307 54.0001 293.75 54.0001Z" fill="#CCCCCC"/>
<path fill-rule="evenodd" clip-rule="evenodd" d="M293.75 52C321.088 52 343.25 30.7161 343.25 4.46106C343.25 4.3417 343.25 4.22244 343.249 4.10328C303.62 12.6194 281.864 12.5683 244.252 4C244.251 4.15351 244.25 4.3072 244.25 4.46106C244.25 30.7161 266.412 52 293.75 52Z" fill="#E2E2E2"/>
<path d="M378.204 71C378.197 76.4007 373.944 80.7769 368.698 80.7769C363.451 80.7769 359.197 76.4007 359.191 71H353.25C353.256 79.7799 360.17 86.895 368.698 86.895C377.226 86.895 384.138 79.7799 384.146 71H378.204Z" fill="#CCCCCC"/>
<path d="M381.174 84.6799C376.05 84.6799 371.508 87.2498 368.698 91.2063C366.829 93.8365 365.726 97.079 365.726 100.587V100.61H371.669C371.669 100.603 371.669 100.595 371.669 100.587C371.669 95.181 375.925 90.7981 381.174 90.7981C382.212 90.7981 383.21 90.9693 384.146 91.2859V84.9739C383.185 84.781 382.19 84.6799 381.174 84.6799Z" fill="url(#paint0_linear_2548_15578)"/>
<path d="M381.174 84.679C376.05 84.679 371.508 87.2487 368.698 91.2053C366.829 93.8353 365.726 97.078 365.726 100.586V100.609H371.669C371.669 100.602 371.669 100.594 371.669 100.586C371.669 95.1798 375.925 90.7971 381.174 90.7971C382.212 90.7971 383.21 90.9681 384.146 91.2847V84.9729C383.185 84.78 382.19 84.679 381.174 84.679Z" fill="#00BFFF"/>
<path d="M371.669 100.586V100.609C371.669 100.602 371.669 100.594 371.669 100.586ZM381.174 84.679C376.05 84.679 371.508 87.2487 368.698 91.2053C370.521 93.7728 371.616 96.9245 371.666 100.337C371.666 100.348 371.667 100.36 371.667 100.371C371.667 100.443 371.669 100.514 371.669 100.586C371.669 95.1798 375.926 90.7971 381.174 90.7971C382.212 90.7971 383.21 90.9681 384.146 91.2847V84.9729C383.185 84.78 382.19 84.679 381.174 84.679Z" fill="url(#paint1_linear_2548_15578)"/>
<path d="M368.698 91.2094C365.888 87.2528 361.346 84.6831 356.222 84.6831C355.205 84.6831 354.211 84.7842 353.25 84.977V91.2888C354.185 90.9723 355.184 90.8013 356.222 90.8013C361.47 90.8013 365.726 95.184 365.726 100.59C365.726 100.598 365.726 100.606 365.726 100.613H371.669V100.59C371.669 97.0821 370.566 93.8394 368.698 91.2094Z" fill="#E5E5E5"/>
<defs>
<linearGradient id="paint0_linear_2548_15578" x1="370.136" y1="71" x2="370.136" y2="105.479" gradientUnits="userSpaceOnUse">
<stop stop-color="#00BFFF"/>
<stop offset="1" stop-color="#008CCC"/>
</linearGradient>
<linearGradient id="paint1_linear_2548_15578" x1="370.136" y1="71.0002" x2="370.136" y2="105.479" gradientUnits="userSpaceOnUse">
<stop stop-color="#E5E5E5"/>
<stop offset="1" stop-color="#CCCCCC"/>
</linearGradient>
</defs>
</svg>
