<svg width="21" height="20" viewBox="0 0 21 20" fill="none" xmlns="http://www.w3.org/2000/svg">
<g id="Magic">
<g id="Icon">
<path d="M5.72407 3.61427C5.98748 3.13264 6.67921 3.13264 6.94262 3.61427L7.1605 4.01265C7.38992 4.43213 7.73481 4.77702 8.15429 5.00644L8.55267 5.22432C9.0343 5.48773 9.0343 6.17946 8.55267 6.44287L8.15429 6.66075C7.73481 6.89017 7.38992 7.23506 7.1605 7.65453L6.94262 8.05291C6.67921 8.53454 5.98748 8.53454 5.72407 8.05291L5.50619 7.65453C5.27677 7.23506 4.93188 6.89017 4.51241 6.66075L4.11403 6.44287C3.6324 6.17946 3.6324 5.48773 4.11403 5.22432L4.51241 5.00644C4.93188 4.77702 5.27677 4.43213 5.50619 4.01265L5.72407 3.61427Z" fill="#005BD3"/>
<path fill-rule="evenodd" clip-rule="evenodd" d="M13.7758 7.65489C13.5756 6.359 11.7179 6.33357 11.4823 7.6235L11.4491 7.80519C11.1323 9.54033 9.75872 10.8889 8.01804 11.1738C6.74099 11.3828 6.71458 13.2099 7.98505 13.4558L8.10164 13.4783C9.80485 13.8079 11.1367 15.1397 11.4663 16.843L11.5018 17.0265C11.7616 18.3691 13.6829 18.3691 13.9427 17.0265L13.9703 16.8835C14.304 15.1592 15.6613 13.8161 17.389 13.5006C18.7048 13.2603 18.6326 11.3577 17.3099 11.159C15.4981 10.8868 14.0555 9.46553 13.7758 7.65489ZM12.727 15.3074C13.2916 14.0226 14.2953 12.9805 15.5506 12.3667C14.2749 11.8002 13.2351 10.7942 12.6315 9.53512C12.0592 10.7556 11.0799 11.7414 9.86688 12.3225C11.1446 12.9395 12.1631 13.9996 12.727 15.3074Z" fill="#005BD3"/>
</g>
</g>
</svg>
