<svg width="60" height="60" viewBox="0 0 60 60" fill="none" xmlns="http://www.w3.org/2000/svg">
<path fill-rule="evenodd" clip-rule="evenodd" d="M40.7199 45.6152C36.4595 48.8497 31.1462 50.7692 25.3846 50.7692C11.3651 50.7692 0 39.4042 0 25.3846C0 11.3651 11.3651 0 25.3846 0C39.4042 0 50.7692 11.3651 50.7692 25.3846C50.7692 31.1462 48.8497 36.4595 45.6152 40.7199L58.9861 54.0908C60.338 55.4426 60.338 57.6343 58.9861 58.9861C57.6343 60.338 55.4426 60.338 54.0908 58.9861L40.7199 45.6152ZM43.8462 25.3846C43.8462 35.5806 35.5806 43.8462 25.3846 43.8462C15.1886 43.8462 6.92308 35.5806 6.92308 25.3846C6.92308 15.1886 15.1886 6.92308 25.3846 6.92308C35.5806 6.92308 43.8462 15.1886 43.8462 25.3846Z" fill="#AEAEAE"/>
</svg>
