<svg width="96" height="46" viewBox="0 0 96 46" fill="none" xmlns="http://www.w3.org/2000/svg">
<path d="M22.984 15.752C22.312 15.752 21.7193 15.5653 21.206 15.192C20.702 14.8187 20.3053 14.3053 20.016 13.652C19.736 12.9987 19.596 12.252 19.596 11.412C19.596 10.9733 19.6613 10.544 19.792 10.124C19.932 9.69467 20.1047 9.29333 20.31 8.92C20.5153 8.53733 20.7253 8.19667 20.94 7.898C20.8653 7.786 20.828 7.61333 20.828 7.38C20.828 7.14667 20.926 6.88533 21.122 6.596C21.318 6.30667 21.5887 6.02667 21.934 5.756C22.2793 5.48533 22.6807 5.26133 23.138 5.084C23.5953 4.90667 24.0807 4.818 24.594 4.818C25.4433 4.818 26.162 5 26.75 5.364C27.338 5.728 27.7813 6.20867 28.08 6.806C28.388 7.394 28.542 8.038 28.542 8.738C28.542 9.746 28.3833 10.6747 28.066 11.524C27.7487 12.3733 27.3193 13.1153 26.778 13.75C26.246 14.3847 25.6487 14.8793 24.986 15.234C24.3327 15.5793 23.6653 15.752 22.984 15.752ZM22.774 6.75C22.8113 6.79667 22.83 6.84333 22.83 6.89C22.83 6.95533 22.8067 7.02067 22.76 7.086C22.7227 7.15133 22.676 7.226 22.62 7.31C22.4427 7.534 22.2513 7.828 22.046 8.192C21.85 8.556 21.6633 8.95733 21.486 9.396C21.318 9.83467 21.178 10.2873 21.066 10.754C20.954 11.2113 20.898 11.65 20.898 12.07C20.898 12.7887 21.0613 13.372 21.388 13.82C21.7147 14.2587 22.2 14.478 22.844 14.478C23.3293 14.478 23.7913 14.3613 24.23 14.128C24.678 13.8947 25.084 13.582 25.448 13.19C25.8213 12.7887 26.1433 12.3453 26.414 11.86C26.6847 11.3653 26.8947 10.8567 27.044 10.334C27.1933 9.81133 27.268 9.312 27.268 8.836C27.268 8.34133 27.17 7.87933 26.974 7.45C26.778 7.02067 26.4933 6.67533 26.12 6.414C25.7467 6.15267 25.294 6.022 24.762 6.022C24.314 6.022 23.9267 6.09667 23.6 6.246C23.2827 6.386 23.0073 6.554 22.774 6.75ZM32.1856 15.178C31.9149 15.178 31.6723 15.024 31.4576 14.716C31.2429 14.408 31.1356 14.0113 31.1356 13.526C31.1356 12.994 31.2056 12.4247 31.3456 11.818C31.4949 11.2113 31.6769 10.5953 31.8916 9.97C32.1063 9.33533 32.3163 8.724 32.5216 8.136C32.5683 8.01467 32.6336 7.926 32.7176 7.87C32.8109 7.80467 32.9509 7.772 33.1376 7.772C33.4736 7.772 33.6416 7.93533 33.6416 8.262C33.6416 8.33667 33.6043 8.50467 33.5296 8.766C33.4549 9.02733 33.3569 9.34933 33.2356 9.732C33.1236 10.1147 33.0069 10.53 32.8856 10.978C32.7643 11.4167 32.6569 11.86 32.5636 12.308C32.4703 12.756 32.4049 13.1713 32.3676 13.554C32.5169 13.3953 32.6849 13.1527 32.8716 12.826C33.0676 12.4993 33.2776 12.1307 33.5016 11.72C33.7256 11.3 33.9589 10.88 34.2016 10.46C34.4443 10.0307 34.6869 9.63867 34.9296 9.284C35.1816 8.92 35.4243 8.63067 35.6576 8.416C35.9003 8.192 36.1243 8.08 36.3296 8.08C36.6283 8.08 36.8803 8.17333 37.0856 8.36C37.3003 8.53733 37.4636 8.85467 37.5756 9.312C37.6969 9.76 37.7576 10.3947 37.7576 11.216C37.7576 11.6547 37.7996 12.0653 37.8836 12.448C37.9769 12.8307 38.1216 13.1387 38.3176 13.372C38.5229 13.596 38.7843 13.708 39.1016 13.708C39.5776 13.708 40.0023 13.624 40.3756 13.456C40.7489 13.2787 41.0709 13.0827 41.3416 12.868C41.6216 12.644 41.8549 12.448 42.0416 12.28C42.2283 12.1027 42.3729 12.014 42.4756 12.014C42.6903 12.014 42.7976 12.126 42.7976 12.35C42.7976 12.4433 42.7276 12.5927 42.5876 12.798C42.4569 12.994 42.2703 13.218 42.0276 13.47C41.7943 13.7127 41.5236 13.9507 41.2156 14.184C40.9169 14.408 40.5949 14.5947 40.2496 14.744C39.9136 14.8933 39.5729 14.968 39.2276 14.968C38.5836 14.968 38.0563 14.842 37.6456 14.59C37.2443 14.338 36.9456 13.9227 36.7496 13.344C36.5629 12.7653 36.4696 11.9907 36.4696 11.02C36.4696 10.488 36.4369 10.1007 36.3716 9.858C36.3156 9.606 36.2083 9.438 36.0496 9.354C35.9376 9.55 35.7929 9.83 35.6156 10.194C35.4383 10.5487 35.2329 10.9453 34.9996 11.384C34.7756 11.8227 34.5376 12.266 34.2856 12.714C34.0429 13.1527 33.7956 13.5587 33.5436 13.932C33.2916 14.3053 33.0489 14.6087 32.8156 14.842C32.5823 15.066 32.3723 15.178 32.1856 15.178ZM44.2796 16.06C43.561 16.06 42.9963 15.8267 42.5856 15.36C42.1843 14.884 41.9836 14.2213 41.9836 13.372C41.9836 12.8493 42.0536 12.238 42.1936 11.538C42.343 10.8287 42.5296 10.082 42.7536 9.298C42.987 8.50467 43.239 7.72067 43.5096 6.946C43.7803 6.17133 44.0416 5.45267 44.2936 4.79C44.555 4.118 44.7836 3.558 44.9796 3.11C45.0916 2.858 45.2503 2.732 45.4556 2.732C45.7356 2.732 45.8756 2.90467 45.8756 3.25C45.8756 3.362 45.8243 3.59067 45.7216 3.936C45.619 4.28133 45.4836 4.71067 45.3156 5.224C45.1476 5.728 44.9656 6.288 44.7696 6.904C44.5736 7.52 44.373 8.15467 44.1676 8.808C43.9716 9.452 43.7896 10.0913 43.6216 10.726C43.4536 11.3513 43.3183 11.9393 43.2156 12.49C43.113 13.0407 43.0616 13.512 43.0616 13.904C43.0616 14.156 43.127 14.3567 43.2576 14.506C43.3976 14.646 43.5843 14.716 43.8176 14.716C44.247 14.716 44.6763 14.632 45.1056 14.464C45.5443 14.2867 45.9643 14.072 46.3656 13.82C46.767 13.5587 47.131 13.302 47.4576 13.05C47.7936 12.7887 48.0783 12.574 48.3116 12.406C48.545 12.2287 48.7083 12.14 48.8016 12.14C49.007 12.14 49.1096 12.252 49.1096 12.476C49.1096 12.5507 49.035 12.6907 48.8856 12.896C48.7363 13.092 48.5356 13.3253 48.2836 13.596C48.0316 13.8667 47.7376 14.1467 47.4016 14.436C47.075 14.716 46.7296 14.982 46.3656 15.234C46.011 15.4767 45.6516 15.6727 45.2876 15.822C44.933 15.9807 44.597 16.06 44.2796 16.06ZM50.1598 19.098C49.6931 19.098 49.2638 19.0653 48.8718 19C48.4891 18.944 48.1111 18.8507 47.7378 18.72C47.3644 18.5987 46.9584 18.44 46.5197 18.244C46.3891 18.1787 46.2724 18.0993 46.1698 18.006C46.0671 17.922 46.0157 17.824 46.0157 17.712C46.0157 17.572 46.1044 17.4227 46.2817 17.264C46.4497 17.1147 46.6084 17.04 46.7577 17.04C46.9164 17.04 47.1124 17.096 47.3458 17.208C47.5884 17.32 47.8684 17.4507 48.1858 17.6C48.5031 17.7587 48.8531 17.894 49.2358 18.006C49.6278 18.118 50.0478 18.174 50.4958 18.174C50.9811 18.174 51.4384 17.9733 51.8678 17.572C52.2971 17.1707 52.6471 16.592 52.9178 15.836C53.1884 15.0893 53.3238 14.1887 53.3238 13.134C53.3238 12.8167 53.3144 12.4667 53.2958 12.084C53.2864 11.692 53.2678 11.2813 53.2398 10.852C53.0158 11.3373 52.7638 11.818 52.4838 12.294C52.2131 12.77 51.9284 13.1993 51.6298 13.582C51.3404 13.9647 51.0371 14.2727 50.7198 14.506C50.4118 14.73 50.0991 14.842 49.7818 14.842C49.3804 14.842 49.0911 14.7393 48.9138 14.534C48.7364 14.3287 48.6478 14.0113 48.6478 13.582C48.6478 13.134 48.6804 12.6487 48.7458 12.126C48.8111 11.6033 48.8951 11.076 48.9978 10.544C49.1098 10.0027 49.2404 9.48933 49.3898 9.004C49.5391 8.51867 49.6978 8.09867 49.8658 7.744C49.9591 7.55733 50.0991 7.464 50.2858 7.464C50.4164 7.464 50.5424 7.534 50.6638 7.674C50.7944 7.80467 50.8598 7.97733 50.8598 8.192C50.8598 8.36 50.8224 8.598 50.7478 8.906C50.6731 9.214 50.5798 9.564 50.4678 9.956C50.3558 10.348 50.2438 10.7587 50.1318 11.188C50.0198 11.608 49.9264 12.0233 49.8518 12.434C49.7771 12.8353 49.7398 13.204 49.7398 13.54C49.7398 13.68 49.8331 13.75 50.0198 13.75C50.1224 13.75 50.2671 13.6567 50.4538 13.47C50.6498 13.274 50.8644 13.022 51.0978 12.714C51.3404 12.3967 51.5831 12.0513 51.8258 11.678C52.0778 11.2953 52.3204 10.9173 52.5538 10.544C52.7871 10.1613 52.9878 9.81133 53.1558 9.494C53.1464 9.41933 53.1418 9.34933 53.1418 9.284C53.1418 9.21867 53.1418 9.158 53.1418 9.102C53.1418 8.64467 53.1884 8.36 53.2818 8.248C53.3844 8.12667 53.5151 8.066 53.6738 8.066C53.9444 8.066 54.1358 8.12667 54.2478 8.248C54.3598 8.36933 54.4158 8.57933 54.4158 8.878C54.4158 8.99 54.4018 9.11133 54.3738 9.242C54.3458 9.36333 54.2991 9.54067 54.2338 9.774C54.3084 10.5113 54.3691 11.174 54.4158 11.762C54.4718 12.35 54.4998 12.9427 54.4998 13.54C54.4998 14.6693 54.3178 15.6493 53.9538 16.48C53.5991 17.3107 53.0951 17.9547 52.4418 18.412C51.7978 18.8693 51.0371 19.098 50.1598 19.098Z" fill="#005BD3"/>
<path d="M29.7008 18.4975C29.9756 18.0184 29.8099 17.4073 29.3308 17.1325C28.8518 16.8578 28.2406 17.0234 27.9659 17.5025L29.7008 18.4975ZM0.431175 40.5686C0.192928 41.0669 0.403706 41.6639 0.90196 41.9022L9.02148 45.7846C9.51973 46.0229 10.1168 45.8121 10.355 45.3138C10.5933 44.8156 10.3825 44.2185 9.88424 43.9803L2.6669 40.5292L6.11796 33.3119C6.35621 32.8136 6.14543 32.2166 5.64718 31.9783C5.14892 31.7401 4.55187 31.9508 4.31362 32.4491L0.431175 40.5686ZM27.9659 17.5025C24.2794 23.9304 20.9928 28.3246 16.934 31.727C12.8761 35.1287 7.983 37.592 1.00045 40.057L1.66624 41.943C8.75999 39.4386 13.9029 36.8777 18.2189 33.2597C22.534 29.6424 25.9593 25.0213 29.7008 18.4975L27.9659 17.5025Z" fill="#005BD3"/>
</svg>
