<svg width="26" height="26" viewBox="0 0 26 26" fill="none" xmlns="http://www.w3.org/2000/svg">
<g id="OrderDraftIcon 1">
<path id="Vector" d="M20.4709 3.06018C20.7244 2.80538 21.1364 2.80538 21.3899 3.06018L22.7677 4.43818C23.0225 4.69168 23.0225 5.10378 22.7677 5.35728L21.5251 6.60138L19.227 4.30428L20.4709 3.06018Z" fill="#4A4A4A"/>
<path id="Vector_2" d="M18.3073 5.22339L20.6054 7.52179L16.9256 11.2008C16.459 11.6675 15.8337 11.9392 15.1734 11.9613L14.17 11.9938C13.9828 12.0003 13.8281 11.8469 13.8346 11.6584L13.8684 10.6548C13.8892 9.99569 14.1609 9.36909 14.6275 8.90239L18.306 5.22339H18.3073Z" fill="#4A4A4A"/>
<path id="Vector_3" fill-rule="evenodd" clip-rule="evenodd" d="M9.06879 6.49999C8.26279 6.49999 7.57899 7.09019 7.46069 7.88709L6.70279 13H9.93199C10.6314 13 11.2515 13.4472 11.4725 14.1115L11.6792 14.7277C11.7234 14.8603 11.8482 14.95 11.9873 14.95H14.0127C14.1531 14.95 14.2766 14.8603 14.3208 14.7277L14.5275 14.1115C14.7485 13.4485 15.3686 13 16.068 13H19.2972L19.1854 12.2486C19.1074 11.7156 19.474 11.2216 20.007 11.1423C20.54 11.063 21.0353 11.4309 21.1146 11.9639L21.3265 13.3991C21.4084 13.9516 21.45 14.508 21.45 15.0657V17.225C21.45 19.5585 19.5585 21.45 17.225 21.45H8.77499C6.44149 21.45 4.54999 19.5585 4.54999 17.225V15.067C4.54999 14.508 4.59159 13.9516 4.67219 13.3991L5.53149 7.60109C5.79149 5.84869 7.29559 4.54999 9.06749 4.54999H13.975C14.5132 4.54999 14.95 4.98679 14.95 5.52499C14.95 6.06319 14.5132 6.49999 13.975 6.49999H9.06879ZM6.49999 15.067V14.95H9.69799L9.82799 15.3439C10.1387 16.2734 11.0084 16.9 11.986 16.9H14.014C14.9929 16.9 15.8613 16.2734 16.172 15.3439L16.302 14.95H19.5V17.225C19.5 18.4808 18.4808 19.5 17.225 19.5H8.77499C7.51919 19.5 6.49999 18.4808 6.49999 17.225V15.067Z" fill="#4A4A4A"/>
</g>
</svg>
