<svg width="101" height="25" viewBox="0 0 101 25" fill="none" xmlns="http://www.w3.org/2000/svg">
<path id="path1893" d="M71.9582 1.12111L71.9587 1.1215C71.9131 1.12698 71.8673 1.13495 71.8208 1.1452C71.749 1.16066 71.6773 1.17646 71.6056 1.19216C71.0866 1.298 70.5536 1.37758 70.0135 1.43063C69.3924 1.48952 68.7709 1.5478 68.15 1.60717C67.4922 1.66987 66.8348 1.7322 66.1764 1.79329C65.5224 1.85499 64.867 1.91349 64.2165 1.98535C63.4356 2.07665 62.6575 2.17919 61.9142 2.36007C61.1989 2.54573 60.503 2.77095 59.7637 2.90802C58.8421 3.10046 57.9072 3.26719 56.9438 3.35745C55.2024 3.55568 53.4667 3.77072 51.708 3.92011C48.0296 4.26684 44.3529 4.62108 40.7255 5.10934C39.2271 5.30454 37.7339 5.51305 36.2381 5.71538C36.0601 5.71486 35.8818 5.71236 35.7019 5.70417C35.3683 5.68289 35.1196 5.75728 34.9473 5.88865C34.8406 5.90211 34.7349 5.91798 34.6283 5.93144C33.4912 6.07699 31.6786 6.28394 30.5231 6.41871C29.9334 6.48721 29.3441 6.55649 28.7547 6.62588C26.1763 6.93493 23.5956 7.24114 21.0596 7.65853C20.929 7.68485 20.764 7.7118 20.597 7.74516C18.1996 7.8885 15.8082 8.05031 13.4261 8.24229C12.2829 8.31589 11.1374 8.37923 9.99082 8.44188C9.7705 8.45391 9.38483 8.29096 9.331 8.48101C9.3253 8.50132 9.32346 8.50773 9.31781 8.52753C9.47833 8.53166 9.55272 8.5335 9.57852 8.54908C9.49155 8.54168 9.40512 8.53724 9.31781 8.52753L9.31738 8.52758C8.73155 10.5902 8.65244 10.5213 9.60939 10.6732C9.67934 10.6789 9.74877 10.6818 9.81861 10.6868C8.94392 10.8704 8.06628 11.0481 7.18315 11.2139C5.76196 11.4772 4.31629 11.6834 2.85228 11.8386C1.59335 11.9718 1.12958 11.6579 2.63995 14.0167C2.64487 14.0368 2.6497 14.0538 2.65458 14.0742C2.65779 14.088 2.67062 14.0892 2.68523 14.087C2.80818 14.2676 3.10118 14.0586 3.30827 14.0467C4.32127 13.9741 5.32214 13.8678 6.3168 13.7445C6.37219 13.9168 6.49543 14.1766 6.65829 14.5368C6.27882 14.6897 5.94865 14.9091 5.80333 15.2546C4.64252 15.3292 3.48268 15.4063 2.32091 15.4778C0.602399 15.7288 0.39605 15.3083 1.61375 17.8021C1.68275 17.9434 1.92581 17.8442 2.08003 17.8517C2.14209 17.8547 2.20385 17.8557 2.26572 17.8578C2.23167 17.8726 2.21333 17.8951 2.2293 17.935C3.18418 20.3177 2.91246 20.0415 4.39062 19.9021C5.01817 19.8146 5.64476 19.7253 6.27165 19.6361C6.35246 19.7459 6.4652 19.8794 6.61349 20.0404C6.58753 20.3762 6.58495 20.6254 6.60834 20.8036C6.46473 20.8198 6.30854 20.8375 6.17086 20.8528C5.05353 20.9847 3.94355 21.1378 2.84701 21.3224C2.66125 21.3536 2.47219 21.3782 2.29312 21.4238C2.16665 21.4561 1.86579 21.4284 1.93326 21.5555C2.30036 22.2469 2.88882 22.8525 3.37784 23.4967C3.3836 23.4954 3.38959 23.4946 3.39533 23.4931C3.39626 23.4963 3.39765 23.4995 3.3986 23.5028C3.40024 23.5085 3.39796 23.5131 3.39453 23.5172L3.39458 23.5177C3.40464 23.531 3.41602 23.5437 3.42599 23.5571C4.04469 23.4417 4.66528 23.3317 5.28744 23.2245C5.22616 23.9107 5.96056 24.7885 6.96874 24.6186C8.65518 24.3759 10.3352 24.1175 12.0194 23.8694C12.0047 23.9493 11.9903 24.0297 11.9725 24.1083C12.4737 24.3679 12.9503 24.7191 13.4762 24.8869C13.7547 24.9757 14.0167 24.8638 14.2851 24.8461C14.6276 24.8235 14.9683 24.7937 15.3091 24.7658C16.1464 24.6973 16.9811 24.6213 17.8163 24.5466C18.0314 24.6725 18.3067 24.7302 18.6368 24.6749C19.8838 24.4957 21.1293 24.3072 22.3751 24.1214C22.8174 24.0792 23.2599 24.0378 23.7022 23.9954C23.6789 24.0524 23.6558 24.1096 23.6307 24.1657C24.0566 24.4335 24.4362 24.7955 24.9081 24.9692C25.1579 25.0612 25.4398 24.9471 25.7053 24.9297C26.0442 24.9076 26.3827 24.878 26.7212 24.8504C27.9359 24.7513 29.1498 24.6412 30.3637 24.5324C33.2941 24.2586 36.223 23.9721 39.1531 23.6958C42.1568 23.4024 45.1537 23.0485 48.1477 22.6711C48.6546 22.6029 49.161 22.5312 49.6674 22.4598C52.8645 22.3894 56.1746 22.1945 59.4924 21.8813C66.9911 21.1699 74.223 19.8834 80.063 18.222C80.6217 18.1167 81.1792 18.0029 81.7362 17.8883C82.5787 17.7192 83.4173 17.5373 84.2665 17.4044C84.8643 17.3139 85.4663 17.2546 86.0679 17.1961C86.5798 17.1446 87.0931 17.102 87.6053 17.0544C88.6008 16.9592 88.6188 16.8301 88.1923 15.6924C88.6807 15.6156 89.1584 15.5394 89.6468 15.4604C90.0917 15.4207 90.3808 15.4022 90.5451 15.3122C90.6849 15.2871 90.8248 15.2614 90.9651 15.2391C91.0228 15.2302 91.1578 15.2786 91.1392 15.2232C90.978 14.7443 90.8718 14.3954 90.7798 14.0989C90.7771 13.9695 90.7769 13.8179 90.774 13.66C91.3802 13.5695 91.9866 13.4805 92.5925 13.3883C94.6393 13.0972 95.2517 12.9967 97.2152 12.7633C97.7076 12.7048 98.3844 12.9923 98.6939 12.6042C98.741 12.5451 98.7811 12.4825 98.8174 12.4181C99.1175 12.5391 99.4163 12.6603 99.3805 12.5506C99.2623 12.1878 99.1899 11.779 99.0741 11.4004C99.102 11.0469 99.1023 10.6829 99.1429 10.3448C99.1558 10.2383 98.9128 10.4015 98.6551 10.5781C98.6045 10.5208 98.5499 10.4658 98.4885 10.417C98.2084 10.1943 97.8251 10.3466 97.4464 10.4836C97.6172 10.0058 97.4425 9.42601 96.995 9.15057C96.9577 8.80944 96.8692 8.5482 96.742 8.34589C96.7402 8.29123 96.7359 8.2364 96.7371 8.18229C96.7224 8.18449 96.7076 8.1861 96.6928 8.18801C96.7037 8.04609 96.6801 7.92768 96.6261 7.82898C97.5273 7.67698 98.423 7.49444 99.3203 7.31991C99.4623 7.28067 99.6088 7.25963 99.7557 7.23989C99.8704 7.25369 99.9819 7.26499 100.014 7.20291C100.105 7.18862 100.196 7.17274 100.285 7.14975C100.395 7.12135 100.635 7.15479 100.609 7.04389C100.213 5.342 100.3 4.96602 99.8978 4.95995C99.9044 4.92756 99.8484 4.94455 99.7824 4.96936C99.6492 4.9824 99.4848 5.01153 99.2462 5.0492C98.9692 5.1045 98.6916 5.15687 98.4143 5.20979C98.4242 4.7747 98.1908 4.33396 97.6661 4.14858C97.794 4.11744 97.9215 4.08525 98.0483 4.04947C98.1659 4.01621 98.4189 4.0562 98.397 3.93564C97.9472 1.4565 98.2112 1.72471 96.7224 1.96599C96.2055 2.05945 95.6883 2.15186 95.1715 2.24632C94.9055 2.29498 94.8482 2.30566 94.6288 2.34607C94.6575 2.09103 94.6319 2.04783 94.384 2.0693C94.3809 2.04686 94.3432 2.06878 94.3163 2.07634C94.2856 2.07962 94.2509 2.08294 94.2145 2.08716C94.1087 2.09717 93.9888 2.10791 93.9026 2.11575C93.8182 2.1234 93.7341 2.13018 93.6497 2.13699C92.9508 2.19266 92.251 2.24083 91.55 2.25644C90.7359 2.27568 89.9239 2.32906 89.1108 2.37225C88.9556 2.3827 88.8002 2.39492 88.6452 2.40753C89.0624 1.7056 88.5783 0.620177 87.5321 0.745739L87.5322 0.746175C87.4865 0.751664 87.4399 0.75972 87.3921 0.770102C87.3186 0.78577 87.2449 0.801781 87.1714 0.817698C86.6408 0.92473 86.1031 1.0049 85.5646 1.05778C84.9458 1.11642 84.3267 1.17443 83.708 1.23356C83.0526 1.296 82.3977 1.35804 81.7422 1.41882C81.0906 1.48024 80.4384 1.53839 79.7879 1.61025C79.0057 1.70169 78.2236 1.80468 77.4567 1.98818C76.7159 2.17666 75.985 2.40571 75.2324 2.54426C75.0318 2.58577 74.8307 2.62483 74.6294 2.6634C74.4091 2.67585 74.1887 2.6883 73.968 2.70011C73.8112 2.71074 73.6551 2.72304 73.4989 2.73576C73.7592 2.05117 73.0019 0.995808 71.9582 1.12111ZM3.39453 23.5172C3.38921 23.5103 3.38308 23.5037 3.37784 23.4967C3.33411 23.5066 3.29016 23.5159 3.24675 23.5265C3.20355 23.5372 3.36657 23.5502 3.39453 23.5172ZM3.68734 19.911C3.65359 19.9411 3.55342 19.944 3.48931 19.9434C3.55773 19.9417 3.62287 19.9269 3.68734 19.911Z" fill="#676510"/>
</svg>
