<svg width="57" height="56" viewBox="0 0 57 56" fill="none" xmlns="http://www.w3.org/2000/svg">
<mask id="mask0_1998_2589" style="mask-type:alpha" maskUnits="userSpaceOnUse" x="2" y="9" width="53" height="41">
<path d="M4.0113 26.2425C2.09003 24.2355 1.93079 21.1233 3.63717 18.9307L9.42026 11.4998C10.4813 10.1364 12.1121 9.33911 13.8396 9.33911H43.6104C45.3515 9.33911 46.9935 10.1489 48.0533 11.5303L53.7439 18.9471C55.4229 21.1354 55.2585 24.2204 53.3564 26.2178L32.7817 47.8239C30.5788 50.1373 26.8901 50.1421 24.6811 47.8346L4.0113 26.2425Z" fill="white"/>
</mask>
<g mask="url(#mask0_1998_2589)">
<path d="M0.666084 22.7482L11.1016 9.33911H46.372L56.6602 22.7482L28.7368 52.0714L0.666084 22.7482Z" fill="url(#paint0_linear_1998_2589)"/>
<path d="M0.666084 22.7485L13.5889 27.0159L28.7368 52.0718L0.666084 22.7485Z" fill="black" fill-opacity="0.1"/>
<path d="M56.5894 22.7485L43.4514 27.0159L28.7367 52.0718L56.5894 22.7485Z" fill="black" fill-opacity="0.1"/>
<g style="mix-blend-mode:overlay">
<path d="M28.5222 12.2717L10.9872 9.3335L13.5895 27.0158H28.4485H28.5959H43.452L46.0542 9.3335L28.5222 12.2717Z" fill="white"/>
</g>
<g style="mix-blend-mode:soft-light">
<path d="M10.9872 9.3335L28.7373 15.2276L46.3725 9.33939L10.9872 9.3335Z" fill="white"/>
</g>
<g style="mix-blend-mode:overlay">
<path d="M28.5216 12.2712L13.5889 27.0154H43.4514L28.5216 12.2712Z" fill="white"/>
</g>
<g style="mix-blend-mode:soft-light">
<path d="M28.7367 15.2273L13.5888 27.0155H43.4514L28.7367 15.2273Z" fill="white"/>
</g>
<g style="mix-blend-mode:soft-light">
<path d="M13.5889 27.0158L0.666084 22.7485L10.9867 9.3335H13.5889V27.0158Z" fill="white"/>
</g>
<g style="mix-blend-mode:soft-light">
<path d="M43.4516 27.0158L56.6662 22.7485L46.3456 9.3335H43.7434L43.4516 27.0158Z" fill="white"/>
</g>
<g style="mix-blend-mode:soft-light" opacity="0.5">
<path d="M13.5889 27.0159L28.663 52.0335L43.4514 27.0159H13.5889Z" fill="white"/>
</g>
<g style="mix-blend-mode:soft-light" opacity="0.3" filter="url(#filter0_i_1998_2589)">
<path d="M13.5889 27.0159L28.663 52.0335L43.4514 27.0159H13.5889Z" fill="black"/>
</g>
</g>
<defs>
<filter id="filter0_i_1998_2589" x="13.5889" y="23.0159" width="29.8625" height="29.0176" filterUnits="userSpaceOnUse" color-interpolation-filters="sRGB">
<feFlood flood-opacity="0" result="BackgroundImageFix"/>
<feBlend mode="normal" in="SourceGraphic" in2="BackgroundImageFix" result="shape"/>
<feColorMatrix in="SourceAlpha" type="matrix" values="0 0 0 0 0 0 0 0 0 0 0 0 0 0 0 0 0 0 127 0" result="hardAlpha"/>
<feOffset dy="-4"/>
<feGaussianBlur stdDeviation="15"/>
<feComposite in2="hardAlpha" operator="arithmetic" k2="-1" k3="1"/>
<feColorMatrix type="matrix" values="0 0 0 0 1 0 0 0 0 1 0 0 0 0 1 0 0 0 1 0"/>
<feBlend mode="normal" in2="shape" result="effect1_innerShadow_1998_2589"/>
</filter>
<linearGradient id="paint0_linear_1998_2589" x1="28.6631" y1="9.33911" x2="28.6631" y2="52.0714" gradientUnits="userSpaceOnUse">
<stop stop-color="#FF8F00"/>
<stop offset="0.434333" stop-color="#FFA000" stop-opacity="0.996078"/>
<stop offset="1" stop-color="#FFECB3"/>
</linearGradient>
</defs>
</svg>
