<svg width="20" height="20" viewBox="0 0 20 20" fill="none" xmlns="http://www.w3.org/2000/svg">
<path d="M8.41626 4.05433C9.20169 3.23868 10.2853 2.77783 11.4176 2.77783H13.611C15.6054 2.77783 17.2221 4.39458 17.2221 6.38894V8.05561C17.2221 8.51585 16.849 8.88894 16.3888 8.88894C15.9286 8.88894 15.5555 8.51585 15.5555 8.05561V6.38894C15.5555 5.31506 14.6849 4.4445 13.611 4.4445H11.4176C10.7382 4.4445 10.0881 4.72101 9.61679 5.2104L4.89056 10.1184C4.36558 10.6636 4.37374 11.5287 4.90891 12.0639L8.12881 15.2838C8.55695 15.7119 9.24906 15.7185 9.6852 15.2985L10.1858 14.8165C10.5173 14.4972 11.0448 14.5072 11.3641 14.8387C11.6833 15.1702 11.6733 15.6977 11.3418 16.017L10.8413 16.499C9.75092 17.549 8.02065 17.5326 6.9503 16.4623L3.7304 13.2424C2.55302 12.065 2.53506 10.1617 3.69003 8.96234L8.41626 4.05433Z" fill="#4A4A4A"/>
<path d="M14.4443 6.66672C14.4443 7.28037 13.9469 7.77783 13.3332 7.77783C12.7196 7.77783 12.2221 7.28037 12.2221 6.66672C12.2221 6.05307 12.7196 5.55561 13.3332 5.55561C13.9469 5.55561 14.4443 6.05307 14.4443 6.66672Z" fill="#4A4A4A"/>
<path d="M13.611 10.9519C12.8018 11.2379 12.2221 12.0096 12.2221 12.9167C12.2221 14.0673 13.1549 15.0001 14.3054 15.0001H15.1388C15.3689 15.0001 15.5554 15.1866 15.5554 15.4167C15.5554 15.6468 15.3689 15.8334 15.1388 15.8334H13.0554C12.5952 15.8334 12.2221 16.2065 12.2221 16.6667C12.2221 17.127 12.5952 17.5001 13.0554 17.5001H13.611V17.7778C13.611 18.2381 13.9841 18.6112 14.4443 18.6112C14.9046 18.6112 15.2777 18.2381 15.2777 17.7778V17.4955C16.3635 17.424 17.2221 16.5206 17.2221 15.4167C17.2221 14.2661 16.2894 13.3334 15.1388 13.3334H14.3054C14.0753 13.3334 13.8888 13.1468 13.8888 12.9167C13.8888 12.6866 14.0753 12.5001 14.3054 12.5001H16.3888C16.849 12.5001 17.2221 12.127 17.2221 11.6667C17.2221 11.2065 16.849 10.8334 16.3888 10.8334H15.2777V10.5556C15.2777 10.0954 14.9046 9.72228 14.4443 9.72228C13.9841 9.72228 13.611 10.0954 13.611 10.5556V10.9519Z" fill="#4A4A4A"/>
</svg>
