<svg width="284" height="177" viewBox="0 0 284 177" fill="none" xmlns="http://www.w3.org/2000/svg">
<path d="M77.0492 76.5457C76.4627 76.5339 76.026 76.3637 75.7392 76.0352C75.4525 75.7066 75.3125 75.3737 75.3193 75.0365C75.3273 74.6406 75.4067 74.3414 75.5575 74.1391C75.7083 73.9368 75.9973 73.7886 76.4247 73.6945C76.9843 73.5885 77.5664 73.4535 78.1712 73.2897C78.7906 73.1262 79.3809 72.9548 79.9419 72.7754C80.518 72.5816 81.0207 72.3864 81.4501 72.1897C81.8798 71.9784 82.1919 71.7793 82.3863 71.5925C82.1544 71.4558 81.7836 71.2943 81.2739 71.1079C80.7645 70.9069 80.1971 70.6754 79.5716 70.4134C78.961 70.137 78.3734 69.8171 77.8086 69.4536C77.2438 69.0901 76.7829 68.6701 76.4258 68.1934C76.0686 67.7168 75.8962 67.1779 75.9083 66.5767C75.9252 65.7408 76.1537 64.9606 76.5937 64.236C77.0338 63.5114 77.6121 62.841 78.3287 62.2246C79.0453 61.6083 79.8195 61.0445 80.6513 60.5332C81.4978 60.0222 82.3359 59.5624 83.1657 59.1537C84.0104 58.7307 84.7661 58.3572 85.4328 58.0333C85.685 57.8917 85.9216 57.8011 86.1424 57.7615C86.3782 57.7076 86.5914 57.6826 86.7821 57.6864C87.4419 57.6998 87.8933 57.8703 88.136 58.1979C88.3788 58.5255 88.4968 58.858 88.49 59.1952C88.4852 59.4299 88.3696 59.7063 88.1431 60.0244C87.917 60.3279 87.5593 60.6067 87.07 60.8609C86.5955 61.1154 85.9684 61.2934 85.1889 61.395C85.0566 61.407 84.939 61.4193 84.836 61.4319C84.2436 61.7133 83.6059 62.0525 82.9231 62.4495C82.2403 62.8464 81.5937 63.2661 80.9833 63.7086C80.3878 64.1366 79.895 64.5668 79.5049 64.999C79.1148 65.4312 78.9161 65.8232 78.909 66.1752C78.901 66.5711 79.0551 66.9336 79.3712 67.2627C79.6875 67.5772 80.0923 67.8714 80.5856 68.1454C81.0938 68.4051 81.6241 68.6578 82.1766 68.9037C82.7437 69.1499 83.2741 69.4027 83.7676 69.662C84.2761 69.907 84.6887 70.1794 85.0053 70.4792C85.322 70.779 85.4767 71.1122 85.4693 71.4787C85.4592 71.9773 85.2809 72.4505 84.9345 72.8982C84.588 73.346 84.1395 73.7624 83.589 74.1473C83.0387 74.5176 82.4379 74.8502 81.7865 75.1451C81.135 75.44 80.4918 75.6911 79.8569 75.8983C79.2362 76.1205 78.6755 76.2852 78.1745 76.3924C77.6736 76.4997 77.2985 76.5508 77.0492 76.5457ZM90.9783 76.8051C90.5091 76.7956 90.0865 76.6551 89.7106 76.3834C89.3343 76.1264 89.0404 75.7904 88.8287 75.3754C88.6174 74.9457 88.5166 74.4889 88.5264 74.005C88.5447 73.0959 88.7606 72.2127 89.174 71.3555C89.6021 70.4987 90.1539 69.6883 90.8294 68.9245C91.505 68.1606 92.2379 67.464 93.0281 66.8345C93.8333 66.1906 94.6292 65.6419 95.4158 65.1883C96.2171 64.7351 96.9431 64.383 97.5936 64.1321C98.2588 63.8815 98.7747 63.7599 99.1413 63.7673C99.5665 63.7759 99.9092 63.8782 100.169 64.0741C100.444 64.2557 100.578 64.5371 100.57 64.9184C100.568 65.0357 100.537 65.1304 100.477 65.2026C100.666 65.2504 100.818 65.3635 100.932 65.5418C101.046 65.7202 101.099 65.9853 101.092 66.3372C101.089 66.4839 101.044 66.8644 100.959 67.4788C100.873 68.0932 100.777 68.8394 100.671 69.7174C100.58 70.5958 100.525 71.5115 100.506 72.4646C100.503 72.6113 100.522 72.7437 100.564 72.8619C100.606 72.9654 100.7 73.0187 100.847 73.0216C101.433 73.0335 102.03 72.9282 102.635 72.7057C103.256 72.4688 103.856 72.1802 104.435 71.8399C105.029 71.4851 105.564 71.1365 106.041 70.7941C106.532 70.4373 106.941 70.1448 107.269 69.9167C107.611 69.6742 107.834 69.554 107.936 69.5561C108.435 69.5662 108.679 69.8205 108.669 70.3191C108.666 70.451 108.499 70.7264 108.168 71.1451C107.852 71.5495 107.417 72.0175 106.864 72.549C106.31 73.066 105.691 73.5816 105.006 74.0958C104.336 74.5957 103.638 75.0071 102.913 75.3298C102.202 75.6529 101.517 75.8077 100.857 75.7944C100.05 75.7781 99.4382 75.575 99.0207 75.1852C98.6178 74.7956 98.3349 74.2765 98.1719 73.6277C98.024 72.9646 97.951 72.2223 97.9529 71.4009C97.1834 72.4562 96.387 73.3936 95.5636 74.2132C94.7552 75.0183 93.9575 75.655 93.1705 76.1232C92.3836 76.5914 91.6528 76.8187 90.9783 76.8051ZM98.9873 65.9426C97.5364 66.6028 96.23 67.3686 95.0681 68.2399C93.9066 69.0967 92.9788 70.0021 92.2847 70.9563C91.6053 71.9108 91.2565 72.8352 91.2385 73.7297C91.2334 73.979 91.3482 74.106 91.5828 74.1108C91.8615 74.1164 92.2313 73.9625 92.6924 73.6491C93.1682 73.3359 93.6826 72.9209 94.2359 72.404C94.7894 71.8724 95.3441 71.2821 95.9 70.6332C96.4561 69.9697 96.976 69.2907 97.4594 68.5963C97.9429 67.9019 98.3304 67.235 98.6221 66.5954C98.7294 66.3628 98.8512 66.1453 98.9873 65.9426ZM109.48 76.3207C109.099 76.313 108.765 76.1228 108.479 75.7503C108.208 75.3781 108.007 74.8093 107.876 74.0438C107.771 73.3962 107.683 72.661 107.612 71.838C107.541 71.0151 107.476 70.2069 107.419 69.4136C107.377 68.6059 107.347 67.9012 107.33 67.2994C107.313 66.6976 107.306 66.2867 107.311 66.0668C107.327 65.2749 107.479 64.6252 107.768 64.1176C108.057 63.5953 108.598 63.3422 109.39 63.3582C109.727 63.365 109.981 63.5168 110.151 63.8137C110.321 64.0958 110.401 64.4862 110.391 64.9847C110.385 65.2927 110.377 65.6813 110.368 66.1505C110.373 66.6054 110.377 67.1189 110.38 67.6911C110.382 68.3219 110.383 69.0041 110.383 69.7376C110.398 70.4567 110.398 71.1755 110.384 71.894C110.913 71.0979 111.48 70.2512 112.085 69.3539C112.69 68.4419 113.28 67.559 113.855 66.7051C114.444 65.8515 114.973 65.0993 115.441 64.4486C115.909 63.7833 116.263 63.3137 116.504 63.0398C116.714 62.7947 116.968 62.5871 117.264 62.417C117.561 62.2323 117.871 62.1432 118.194 62.1498C118.546 62.1569 118.836 62.3021 119.065 62.5854C119.294 62.8688 119.405 63.1938 119.398 63.5604C119.392 63.839 119.328 64.1017 119.206 64.3486C119.098 64.5958 118.961 64.8278 118.796 65.0445C118.343 65.6515 117.808 66.3595 117.19 67.1685C116.587 67.9778 115.954 68.8305 115.29 69.7267C114.627 70.6081 113.979 71.4605 113.346 72.2839C112.728 73.1076 112.178 73.8373 111.696 74.473C111.303 75.0079 110.987 75.4122 110.747 75.6861C110.507 75.9453 110.291 76.117 110.098 76.2011C109.921 76.2856 109.715 76.3254 109.48 76.3207ZM122.616 77.3562C121.707 77.3378 120.98 77.0077 120.435 76.3659C119.891 75.7095 119.633 74.6701 119.662 73.2477C119.681 72.3385 119.802 71.4315 120.025 70.5265C120.264 69.6071 120.582 68.7407 120.98 67.9272C121.393 67.0994 121.862 66.368 122.389 65.7332C122.929 65.0987 123.519 64.6045 124.157 64.2506C124.795 63.8821 125.451 63.7046 126.126 63.7183C127.27 63.7414 128.158 64.0674 128.791 64.6963C129.424 65.3252 129.73 66.1162 129.711 67.0694C129.696 67.8025 129.477 68.4656 129.055 69.0585C128.647 69.6371 128.094 70.154 127.395 70.6093C126.696 71.0646 125.918 71.4743 125.06 71.8384C124.202 72.2025 123.322 72.5294 122.421 72.8193C122.337 73.3457 122.291 73.8142 122.283 74.2248C122.278 74.4741 122.415 74.6015 122.693 74.6072C123.353 74.6205 124.059 74.5321 124.811 74.3419C125.578 74.1373 126.354 73.8743 127.138 73.5527C127.922 73.2165 128.677 72.8723 129.403 72.5203C130.129 72.1535 130.789 71.8074 131.382 71.482C131.991 71.1422 132.487 70.8735 132.873 70.676C133.273 70.464 133.532 70.3592 133.649 70.3616C133.972 70.3681 134.205 70.4681 134.347 70.6617C134.49 70.8553 134.559 71.0621 134.555 71.282C134.553 71.3847 134.35 71.608 133.947 71.9519C133.559 72.2961 133.023 72.7034 132.338 73.1737C131.669 73.6296 130.911 74.1057 130.065 74.602C129.234 75.084 128.366 75.5433 127.463 75.9798C126.574 76.4019 125.709 76.7365 124.868 76.9836C124.041 77.2456 123.29 77.3698 122.616 77.3562ZM122.835 70.8693C123.443 70.5295 124.044 70.1749 124.639 69.8055C125.248 69.4217 125.755 68.9919 126.161 68.516C126.567 68.0254 126.777 67.4502 126.79 66.7903C126.794 66.5997 126.745 66.474 126.644 66.4133C126.542 66.3379 126.397 66.2983 126.206 66.2944C125.693 66.284 125.219 66.5019 124.784 66.9478C124.365 67.3941 123.986 67.9733 123.649 68.6853C123.327 69.3829 123.056 70.1109 122.835 70.8693ZM151.514 78.182C151.177 78.1752 150.872 78.0296 150.599 77.7454C150.34 77.4761 150.217 77.0262 150.23 76.3957C150.24 75.9264 150.289 75.2746 150.38 74.4403C150.485 73.5916 150.668 72.5024 150.93 71.1727C150.395 72.2182 149.841 73.1458 149.267 73.9557C148.693 74.7656 148.13 75.3997 147.578 75.858C147.041 76.3019 146.531 76.519 146.047 76.5092C145.27 76.4935 144.659 76.2465 144.214 75.768C143.769 75.2749 143.56 74.3685 143.586 73.0488C143.599 72.4183 143.665 71.7081 143.783 70.9184C143.917 70.1289 144.079 69.34 144.271 68.5517C144.463 67.7634 144.653 67.0631 144.842 66.4508C145.045 65.8241 145.223 65.3583 145.376 65.0533C145.499 64.7917 145.65 64.5894 145.828 64.4463C146.022 64.3036 146.266 64.2351 146.559 64.241C147.028 64.2505 147.384 64.4117 147.627 64.7247C147.87 65.0377 147.989 65.3555 147.982 65.6781C147.977 65.9274 147.911 66.2854 147.784 66.7523C147.672 67.2195 147.53 67.7374 147.357 68.306C147.199 68.8749 147.033 69.4583 146.859 70.0563C146.686 70.6543 146.535 71.216 146.407 71.7415C146.294 72.2673 146.234 72.7135 146.226 73.0801C146.217 73.5347 146.388 73.7655 146.74 73.7727C146.946 73.7768 147.214 73.5842 147.544 73.1948C147.889 72.8057 148.252 72.2849 148.632 71.6324C149.027 70.9656 149.423 70.2401 149.82 69.456C150.232 68.6575 150.608 67.8509 150.947 67.0362C151.301 66.2072 151.603 65.4432 151.852 64.744C152.007 64.3071 152.211 64.0032 152.464 63.8322C152.717 63.6613 153.005 63.5791 153.327 63.5856C153.826 63.5957 154.204 63.7427 154.463 64.0266C154.736 64.3109 154.867 64.7096 154.857 65.2228C154.852 65.4574 154.807 65.8526 154.723 66.4084C154.638 66.9641 154.53 67.6147 154.397 68.3602C154.279 69.106 154.139 69.8953 153.975 70.7282C153.812 71.561 153.649 72.3792 153.486 73.1828C153.337 73.9866 153.19 74.7245 153.045 75.3963C152.9 76.0535 152.779 76.5792 152.683 76.9733C152.524 77.5569 152.341 77.9053 152.134 78.0184C151.926 78.1316 151.72 78.1861 151.514 78.182ZM157.471 84.3755C157.061 84.3673 156.741 84.2141 156.513 83.9161C156.298 83.633 156.197 83.1982 156.209 82.6117C156.225 81.8052 156.318 80.8462 156.487 79.7347C156.656 78.6232 156.878 77.4468 157.152 76.2054C157.427 74.9641 157.723 73.7451 158.04 72.5486C158.42 71.1773 158.79 69.9306 159.15 68.8083C159.525 67.6863 159.895 66.7916 160.261 66.1242C160.641 65.4424 161.015 65.1052 161.381 65.1126C161.719 65.1194 162.009 65.25 162.254 65.5043C162.513 65.7442 162.638 66.0988 162.628 66.5681C162.621 66.9053 162.524 67.3874 162.335 68.0144C162.146 68.6268 161.911 69.3922 161.628 70.3106C162.144 69.4995 162.673 68.7034 163.217 67.9222C163.775 67.1413 164.34 66.4339 164.91 65.8C165.48 65.166 166.033 64.6638 166.569 64.2932C167.105 63.9226 167.607 63.742 168.076 63.7515C168.633 63.7628 169.121 63.934 169.54 64.2652C169.973 64.5967 170.309 65.0435 170.547 65.6058C170.785 66.1681 170.897 66.8011 170.883 67.505C170.857 68.81 170.596 70.0737 170.102 71.296C169.608 72.5036 168.934 73.5828 168.078 74.5338C167.238 75.485 166.262 76.2354 165.15 76.7851C164.039 77.3201 162.846 77.5747 161.57 77.5489C161.204 77.5415 160.867 77.4981 160.561 77.4185C160.269 77.3539 159.999 77.2751 159.751 77.1821C159.556 78.117 159.368 79.0741 159.187 80.0533C159.02 81.0475 158.845 82.0928 158.662 83.1893C158.469 83.9923 158.073 84.3877 157.471 84.3755ZM168.244 66.3514C167.921 66.3449 167.506 66.5566 166.999 66.9864C166.506 67.4165 165.966 67.9851 165.38 68.6921C164.794 69.3844 164.199 70.1425 163.596 70.9665C163.007 71.7761 162.441 72.5715 161.897 73.3527C161.368 74.1341 160.914 74.8145 160.536 75.3936C161.652 75.2988 162.641 75.0254 163.501 74.5733C164.361 74.1066 165.099 73.5347 165.714 72.8577C166.329 72.1806 166.827 71.4645 167.209 70.7094C167.606 69.94 167.9 69.1904 168.091 68.4608C168.282 67.7311 168.383 67.0951 168.394 66.5525C168.396 66.4205 168.346 66.3535 168.244 66.3514ZM199.228 67.0653C199.225 67.2413 199.163 67.3941 199.043 67.5237C198.923 67.6533 198.774 67.753 198.597 67.8227C198.345 67.9204 197.91 68.0436 197.291 68.1924C196.672 68.3413 195.92 68.5095 195.036 68.697C194.167 68.8848 193.232 69.0786 192.23 69.2785C191.229 69.4636 190.228 69.6414 189.227 69.8119C188.817 71.2119 188.399 72.6558 187.973 74.1435C187.547 75.6165 187.122 77.0675 186.697 78.4966C186.54 79.0069 186.356 79.3919 186.145 79.6517C185.934 79.9261 185.58 80.0583 185.081 80.0483C184.538 80.0373 184.175 79.8539 183.992 79.4982C183.823 79.1573 183.81 78.695 183.954 78.1111C184.367 76.5205 184.749 75.0392 185.1 73.6674C185.465 72.2958 185.759 71.1868 185.981 70.3405C185.098 70.4693 184.326 70.5711 183.665 70.6457C183.003 70.7057 182.533 70.7256 182.255 70.7053C181.948 70.6697 181.694 70.5399 181.493 70.3158C181.292 70.0917 181.202 69.8185 181.223 69.4962C181.259 69.2035 181.396 68.9569 181.634 68.7564C181.873 68.5411 182.155 68.4148 182.478 68.3773C182.934 68.3425 183.522 68.2884 184.242 68.2149C184.962 68.1414 185.756 68.0548 186.624 67.955C186.829 67.211 187.065 66.4456 187.33 65.6588C187.596 64.8573 187.868 64.0926 188.147 63.3648C188.44 62.6226 188.717 61.9754 188.978 61.4232C189.238 60.871 189.474 60.4723 189.684 60.2272C189.849 60.0398 190.05 59.8972 190.287 59.7993C190.538 59.7017 190.781 59.6552 191.016 59.66C191.324 59.6662 191.571 59.7812 191.757 60.005C191.943 60.2288 192.033 60.4874 192.028 60.7806C192.025 60.8979 192.015 61.0224 191.998 61.1541C191.981 61.2711 191.949 61.3878 191.903 61.5043C191.609 62.2318 191.291 63.1129 190.947 64.1475C190.618 65.1824 190.273 66.3197 189.91 67.5593C191.013 67.4202 192.094 67.2806 193.153 67.1407C194.227 66.9863 195.198 66.8446 196.067 66.7154C196.95 66.5719 197.656 66.4468 198.187 66.3402C198.482 66.2434 198.731 66.2705 198.933 66.4212C199.136 66.5574 199.234 66.7721 199.228 67.0653ZM199.335 78.8839C198.293 78.8629 197.465 78.4794 196.849 77.7335C196.234 76.9729 195.939 75.9694 195.964 74.723C195.972 74.3271 196.031 73.9248 196.142 73.5163C196.268 73.1081 196.415 72.7297 196.583 72.381C196.498 72.2473 196.428 72.0771 196.374 71.8707C196.334 71.6498 196.317 71.3928 196.323 71.0995C196.342 70.1464 196.529 69.2773 196.882 68.4922C197.235 67.6926 197.704 67.0052 198.288 66.4302C198.872 65.8552 199.511 65.4134 200.207 65.1047C200.903 64.796 201.603 64.6488 202.306 64.663C203.509 64.6873 204.483 65.1104 205.229 65.9323C205.99 66.7545 206.353 68.0161 206.319 69.7171C206.302 70.5676 206.152 71.4301 205.871 72.3046C205.589 73.1791 205.213 74.015 204.742 74.8123C204.286 75.5952 203.758 76.2961 203.159 76.9147C202.574 77.5337 201.949 78.0198 201.281 78.3731C200.629 78.7267 199.98 78.8969 199.335 78.8839ZM199.133 71.4423C199.203 71.6051 199.236 71.7965 199.231 72.0164C199.227 72.2364 199.178 72.4628 199.085 72.6956C198.993 72.9284 198.898 73.2419 198.802 73.6361C198.707 74.0156 198.652 74.5646 198.637 75.2831C198.633 75.4737 198.652 75.6355 198.693 75.7683C198.75 75.8868 198.873 75.948 199.064 75.9518C199.562 75.9619 200.035 75.8101 200.481 75.4964C200.942 75.1829 201.354 74.7658 201.717 74.2451C202.094 73.7246 202.414 73.1443 202.676 72.5041C202.953 71.8496 203.165 71.1864 203.31 70.5145C203.471 69.8283 203.557 69.1919 203.569 68.6053C203.577 68.2241 203.509 67.9586 203.365 67.809C203.221 67.6594 202.966 67.5809 202.6 67.5735C202.101 67.5635 201.585 67.7144 201.05 68.0263C200.531 68.3239 200.09 68.7404 199.727 69.2759C199.364 69.7966 199.176 70.3943 199.162 71.0688C199.16 71.2008 199.15 71.3253 199.133 71.4423ZM231.663 72.7376C231.652 73.2948 231.42 73.8769 230.967 74.4839C230.515 75.0762 229.931 75.6585 229.216 76.2308C228.5 76.8032 227.719 77.3448 226.872 77.8559C226.041 78.3525 225.218 78.7906 224.403 79.1703C223.603 79.5648 222.893 79.8659 222.273 80.0734C221.652 80.2956 221.202 80.4039 220.924 80.3982C220.396 80.3876 219.965 80.2835 219.632 80.0861C219.299 79.8886 219.137 79.548 219.146 79.0641C219.154 78.6975 219.248 78.4133 219.428 78.2116C219.608 78.0098 219.861 77.8389 220.186 77.6988C220.971 77.3626 221.777 77.0048 222.606 76.6254C223.436 76.2461 224.228 75.8587 224.984 75.4632C225.755 75.0681 226.438 74.6784 227.032 74.2944C227.642 73.9106 228.126 73.5463 228.485 73.2015C228.844 72.842 229.027 72.5229 229.032 72.2443C229.039 71.9217 228.919 71.6846 228.673 71.5329C228.441 71.3815 228.128 71.2799 227.732 71.2279C227.338 71.1612 226.898 71.123 226.415 71.1132C225.755 71.0999 225.204 71.1181 224.763 71.1679C224.322 71.2177 223.94 71.2686 223.616 71.3207C223.307 71.3585 223.021 71.3747 222.757 71.3694C222.317 71.3605 222.003 71.2588 221.817 71.0644C221.63 70.8552 221.54 70.582 221.547 70.2447C221.553 69.9661 221.661 69.6823 221.872 69.3931C222.084 69.104 222.418 68.8907 222.875 68.7533C223.835 68.4646 224.685 68.1444 225.425 67.7926C226.181 67.4264 226.769 67.0202 227.188 66.5739C227.623 66.1279 227.845 65.641 227.856 65.1131C227.859 64.9518 227.781 64.8402 227.621 64.7783C227.475 64.7167 227.168 64.6811 226.699 64.6717C226.273 64.6631 225.796 64.7048 225.266 64.7967C224.751 64.889 224.242 65.0034 223.741 65.14C223.254 65.2622 222.834 65.3711 222.48 65.4666C222.14 65.5624 221.927 65.6095 221.839 65.6077C221.194 65.5947 220.877 65.2655 220.891 64.6203C220.893 64.4737 221.008 64.2413 221.235 63.9231C221.461 63.605 221.798 63.2817 222.244 62.9533C222.691 62.6103 223.24 62.3207 223.89 62.0844C224.555 61.8485 225.32 61.7392 226.185 61.7567C227.036 61.7739 227.773 61.9575 228.397 62.3075C229.035 62.6578 229.524 63.1297 229.864 63.7234C230.22 64.3027 230.39 64.9589 230.375 65.6921C230.364 66.2493 230.176 66.803 229.813 67.3531C229.465 67.8888 229.03 68.3642 228.508 68.779C229.485 69.0922 230.259 69.6139 230.831 70.3443C231.403 71.06 231.681 71.8577 231.663 72.7376ZM237.676 79.4164C237.045 79.4036 236.534 79.2906 236.142 79.0773C235.75 78.8787 235.559 78.5448 235.568 78.0755C235.583 77.3423 235.952 76.895 236.674 76.7336C237.882 76.4646 239.032 76.1578 240.125 75.8131C241.232 75.4687 242.208 75.107 243.052 74.728C243.91 74.3492 244.585 73.9815 245.076 73.6246C245.568 73.2678 245.816 72.9428 245.822 72.6495C245.829 72.3269 245.694 72.0968 245.418 71.9592C245.142 71.8216 244.792 71.7338 244.367 71.6959C243.942 71.658 243.51 71.6346 243.07 71.6257C242.44 71.613 241.926 71.6246 241.529 71.6606C241.132 71.6966 240.787 71.7336 240.493 71.7717C240.213 71.81 239.919 71.8261 239.612 71.8199C239.157 71.8107 238.778 71.7077 238.474 71.5109C238.184 71.2996 238.044 70.9814 238.053 70.5562C238.062 70.1016 238.215 69.7746 238.513 69.5752C238.825 69.3615 239.21 69.1933 239.667 69.0705C241.157 68.6458 242.327 68.134 243.175 67.535C244.023 66.9213 244.455 66.2552 244.469 65.5367C244.479 65.0528 244.249 64.8061 243.78 64.7967C243.384 64.7887 242.943 64.8384 242.457 64.946C241.971 65.0388 241.477 65.1536 240.976 65.2901C240.474 65.4267 240.017 65.5495 239.604 65.6585C239.191 65.7528 238.868 65.7976 238.633 65.7929C238.369 65.7876 238.144 65.6877 237.957 65.4932C237.77 65.2987 237.681 65.0182 237.688 64.6516C237.693 64.3876 237.831 64.097 238.102 63.7798C238.372 63.4478 238.745 63.14 239.22 62.8562C239.696 62.5577 240.251 62.3195 240.885 62.1417C241.535 61.9494 242.233 61.8608 242.981 61.8759C243.788 61.8922 244.503 62.068 245.127 62.4034C245.766 62.7243 246.27 63.1819 246.639 63.7762C247.009 64.3558 247.186 65.0342 247.17 65.8113C247.159 66.3979 246.934 66.9875 246.497 67.5801C246.059 68.158 245.446 68.7398 244.657 69.3253C245.649 69.5801 246.421 69.889 246.971 70.2522C247.535 70.6157 247.923 71.0343 248.134 71.5079C248.359 71.9819 248.466 72.5049 248.454 73.0767C248.443 73.634 248.204 74.2086 247.737 74.8006C247.285 75.3929 246.672 75.9673 245.898 76.5238C245.138 77.0806 244.285 77.5841 243.337 78.0344C242.404 78.4703 241.443 78.8103 240.456 79.0544C239.482 79.3135 238.556 79.4341 237.676 79.4164ZM255.481 70.2701C255.491 69.7862 255.565 69.3623 255.704 68.9983C255.859 68.62 256.034 68.3228 256.229 68.1067C255.999 67.8381 255.829 67.5706 255.717 67.3042C255.605 67.0233 255.551 66.7728 255.556 66.5528C255.57 65.8636 255.781 65.2224 256.189 64.6292C256.612 64.0363 257.164 63.556 257.846 63.1884C258.543 62.8211 259.302 62.6457 260.123 62.6623C261.106 62.6821 261.905 63.0577 262.521 63.7889C263.152 64.5205 263.465 65.7004 263.462 67.3287C264.333 67.0235 265.104 66.6357 265.774 66.1651C266.443 65.6946 267.025 65.2075 267.52 64.7041C268.029 64.2009 268.463 63.7403 268.824 63.3221C269.124 62.9761 269.425 62.6301 269.725 62.2841C270.04 61.9238 270.425 61.7482 270.88 61.7573C271.202 61.7639 271.449 61.9082 271.619 62.1904C271.805 62.4582 271.894 62.7607 271.887 63.098C271.88 63.4499 271.672 63.9518 271.262 64.6037C270.853 65.2555 270.302 66.0146 269.61 66.8807C268.932 67.7472 268.158 68.6778 267.287 69.6724C266.431 70.6673 265.537 71.6908 264.607 72.7429C263.676 73.7803 262.768 74.8108 261.882 75.8345C260.995 76.8581 260.191 77.8174 259.469 78.7124C259.669 78.9804 259.816 79.3282 259.91 79.7555C259.729 80.0012 259.438 80.252 259.037 80.508C258.635 80.7639 258.235 80.9759 257.836 81.1439C257.436 81.3265 257.133 81.4157 256.928 81.4116C256.283 81.3986 255.967 81.0401 255.982 80.3362C255.987 80.043 256.135 79.6425 256.424 79.1349C256.713 78.6273 257.053 78.1061 257.446 77.5713C257.974 76.8484 258.696 75.9608 259.612 74.9085C260.528 73.8561 261.549 72.7105 262.674 71.4716C263.814 70.233 264.984 68.9731 266.183 67.6917C265.722 67.9905 265.24 68.2668 264.736 68.5206C264.232 68.7745 263.7 68.9911 263.139 69.1705C262.874 69.9427 262.47 70.6753 261.928 71.3685C261.386 72.0617 260.78 72.6216 260.112 73.0482C259.458 73.4604 258.801 73.6598 258.141 73.6465C257.32 73.6299 256.666 73.3013 256.181 72.6607C255.695 72.0054 255.462 71.2086 255.481 70.2701ZM268.58 80.8548C268.11 80.8453 267.667 80.653 267.249 80.2778C266.831 79.9026 266.49 79.3603 266.226 78.6508C265.976 77.9269 265.862 77.0591 265.882 76.0473C265.9 75.1675 265.98 74.4503 266.124 73.8958C266.282 73.3415 266.496 72.8838 266.768 72.5225C266.728 72.287 266.712 72.0079 266.718 71.6853C266.728 71.2161 266.898 70.7721 267.229 70.3534C267.561 69.9346 268 69.5988 268.548 69.3458C269.111 69.0931 269.737 68.9737 270.426 68.9877C271.1 69.0013 271.691 69.1672 272.198 69.4855C272.72 69.7895 273.121 70.2817 273.4 70.9621C273.695 71.6429 273.831 72.5405 273.808 73.6549C273.791 74.5054 273.62 75.3601 273.294 76.2191C272.984 77.0636 272.572 77.8401 272.059 78.5486C271.546 79.257 270.984 79.8178 270.375 80.2309C269.765 80.6587 269.166 80.8666 268.58 80.8548ZM268.776 72.233C268.861 72.3814 268.901 72.5803 268.896 72.8295C268.889 73.1815 268.821 73.6055 268.694 74.1017C268.567 74.5979 268.431 75.1233 268.288 75.6778C268.16 76.2327 268.09 76.7741 268.079 77.302C268.075 77.4926 268.102 77.6545 268.158 77.7876C268.214 77.9061 268.323 77.967 268.484 77.9703C268.792 77.9765 269.103 77.8287 269.417 77.527C269.731 77.2253 270.025 76.8205 270.3 76.3126C270.574 75.79 270.791 75.2076 270.951 74.5654C271.125 73.9235 271.22 73.2579 271.234 72.5687C271.24 72.2314 271.201 71.9813 271.117 71.8182C271.032 71.6551 270.843 71.5706 270.55 71.5647C270.124 71.5561 269.764 71.6222 269.467 71.7629C269.186 71.8892 268.956 72.0459 268.776 72.233ZM260.921 67.8495C261.018 67.3967 261.071 66.9356 261.081 66.4664C261.088 66.1145 261.027 65.8492 260.899 65.6706C260.771 65.4773 260.501 65.3765 260.091 65.3682C259.577 65.3578 259.135 65.4589 258.764 65.6715C258.408 65.8843 258.226 66.196 258.217 66.6066C258.209 67.0318 258.371 67.3505 258.704 67.5626C259.038 67.7601 259.409 67.8629 259.82 67.8712C260.201 67.8789 260.568 67.8717 260.921 67.8495ZM260.29 69.6631C260.158 69.6604 260.026 69.6578 259.894 69.6551C259.513 69.6474 259.154 69.6108 258.818 69.5453C258.497 69.4802 258.198 69.3934 257.921 69.2852C257.888 69.4605 257.848 69.6431 257.8 69.8328C257.767 70.0082 257.749 70.1912 257.745 70.3818C257.741 70.6018 257.781 70.8006 257.865 70.9784C257.95 71.1415 258.117 71.2255 258.366 71.2305C258.718 71.2377 259.058 71.0978 259.387 70.8111C259.73 70.5246 260.031 70.142 260.29 69.6631Z" fill="#005BD3"/>
<path d="M75.9389 88.1701C76.585 87.6516 76.6884 86.7075 76.1699 86.0614C75.6514 85.4153 74.7073 85.3119 74.0612 85.8304L75.9389 88.1701ZM6.06237 92.3187C5.23466 92.2843 4.53576 92.9274 4.50133 93.7551L3.94028 107.243C3.90585 108.071 4.54893 108.77 5.37664 108.804C6.20435 108.839 6.90326 108.196 6.93769 107.368L7.4364 95.3785L19.426 95.8772C20.2537 95.9116 20.9526 95.2685 20.9871 94.4408C21.0215 93.6131 20.3784 92.9142 19.5507 92.8798L6.06237 92.3187ZM74.0612 85.8304C64.8155 93.2506 57.2244 98.7323 50.7236 102.451C44.2198 106.171 38.8995 108.072 34.1833 108.435C24.896 109.151 17.3503 103.938 7.10385 92.8018L4.89621 94.8331C15.1787 106.008 23.5999 112.26 34.4138 111.426C39.7482 111.015 45.5122 108.888 52.2131 105.055C58.9172 101.22 66.6515 95.6238 75.9389 88.1701L74.0612 85.8304Z" fill="#005BD3"/>
</svg>
