<svg width="17" height="15" viewBox="0 0 17 15" fill="none" xmlns="http://www.w3.org/2000/svg">
<path fill-rule="evenodd" clip-rule="evenodd" d="M2.94603 9.61612C1.41577 9.52337 0.222229 8.2553 0.222229 6.72224C0.222229 5.18917 1.41577 3.9211 2.94603 3.82836L7.40215 3.55829C7.45677 3.55498 7.50919 3.53561 7.55284 3.50262L10.9942 0.901493C12.2751 -0.0666752 14.1111 0.847034 14.1111 2.45269V10.9053C14.1111 12.5023 12.2926 13.4183 11.0093 12.4678L8.1508 10.3504L7.83197 13.0605C7.71676 14.0398 6.88684 14.7778 5.90084 14.7778H5.50001C4.42612 14.7778 3.55556 13.9072 3.55556 12.8333V9.65306L2.94603 9.61612ZM1.8889 6.72224C1.8889 7.37399 2.3963 7.91308 3.04686 7.9525L7.55354 8.22564C7.92946 8.24842 8.29067 8.37988 8.5933 8.60405L12.0013 11.1285C12.1847 11.2643 12.4445 11.1334 12.4445 10.9053V2.45269C12.4445 2.22331 12.1822 2.09278 11.9992 2.23109L8.55781 4.83222C8.25225 5.06317 7.88529 5.19873 7.50298 5.2219L3.04686 5.49197C2.3963 5.5314 1.8889 6.07049 1.8889 6.72224ZM5.22223 9.75407L6.53345 9.83354L6.17672 12.8658C6.16026 13.0057 6.0417 13.1111 5.90084 13.1111H5.50001C5.34659 13.1111 5.22223 12.9867 5.22223 12.8333V9.75407Z" fill="#4A4A4A"/>
<path d="M16.3333 5.6111C16.3333 5.15086 15.9602 4.77776 15.5 4.77776C15.0398 4.77776 14.6667 5.15086 14.6667 5.6111V8.38888C14.6667 8.84911 15.0398 9.22221 15.5 9.22221C15.9602 9.22221 16.3333 8.84911 16.3333 8.38888V5.6111Z" fill="#4A4A4A"/>
</svg>
