<svg width="15" height="14" viewBox="0 0 15 14" fill="none" xmlns="http://www.w3.org/2000/svg">
<g id="Tick">
<path id="Vector" d="M2.31303 5.80968C2.47094 5.10446 2.76771 4.43693 3.18638 3.84519C3.60505 3.25346 4.13742 2.74912 4.7531 2.36096C5.36878 1.97281 6.05571 1.70844 6.77466 1.58297C7.4936 1.4575 8.23049 1.47337 8.94324 1.62968C9.13759 1.66797 9.33937 1.62943 9.50535 1.52233C9.67134 1.41522 9.78834 1.24807 9.83128 1.05666C9.87423 0.865249 9.83971 0.664811 9.73512 0.498276C9.63053 0.331741 9.46419 0.212351 9.27172 0.165678C7.90562 -0.133735 6.48047 -0.0256416 5.17647 0.476289C3.87246 0.978219 2.74816 1.85145 1.94572 2.98556C1.14329 4.11967 0.698754 5.46373 0.66833 6.84779C0.637906 8.23186 1.02296 9.59377 1.7748 10.7613C2.52664 11.9289 3.61151 12.8496 4.89223 13.4072C6.17294 13.9647 7.59199 14.134 8.96995 13.8937C10.3479 13.6533 11.6229 13.0141 12.6337 12.0568C13.6445 11.0995 14.3457 9.86722 14.6487 8.51567C14.6922 8.3214 14.656 8.11797 14.5479 7.95012C14.4399 7.78228 14.2689 7.66377 14.0726 7.62067C13.8762 7.57758 13.6706 7.61342 13.501 7.72031C13.3313 7.82721 13.2115 7.9964 13.168 8.19067C12.849 9.61489 11.9712 10.8554 10.7278 11.6393C9.48444 12.4232 7.97722 12.6863 6.53777 12.3707C5.09831 12.0551 3.84453 11.1866 3.05224 9.95638C2.25995 8.72614 1.99405 7.23389 2.31303 5.80968Z" fill="#005BD3"/>
<path id="Vector_2" d="M13.8349 3.71832C13.9688 3.57615 14.0417 3.3881 14.0382 3.1938C14.0348 2.9995 13.9552 2.81411 13.8163 2.6767C13.6775 2.53929 13.4901 2.46058 13.2937 2.45715C13.0973 2.45372 12.9073 2.52584 12.7636 2.65832L7.74038 7.62832L5.49662 5.40832C5.35293 5.27584 5.16287 5.20372 4.96649 5.20715C4.77011 5.21057 4.58274 5.28929 4.44385 5.4267C4.30497 5.56411 4.22542 5.7495 4.22195 5.9438C4.21849 6.1381 4.29138 6.32615 4.42528 6.46832L7.20471 9.21832C7.34684 9.35877 7.53951 9.43766 7.74038 9.43766C7.94126 9.43766 8.13392 9.35877 8.27605 9.21832L13.8349 3.71832Z" fill="#005BD3"/>
</g>
</svg>
