<svg width="16" height="12" viewBox="0 0 16 12" fill="none" xmlns="http://www.w3.org/2000/svg">
<path id="Union" fill-rule="evenodd" clip-rule="evenodd" d="M0 1.5C0 0.947715 0.447715 0.5 1 0.5H15C15.5523 0.5 16 0.947715 16 1.5C16 2.05228 15.5523 2.5 15 2.5H1C0.447715 2.5 0 2.05228 0 1.5ZM2 4.5C2 3.94772 2.44772 3.5 3 3.5H7C7.55228 3.5 8 3.94772 8 4.5C8 5.05228 7.55228 5.5 7 5.5H3C2.44772 5.5 2 5.05228 2 4.5ZM12 3.5C10.6792 3.5 9.68081 4.0124 9.02541 4.55507C8.69732 4.82672 8.44809 5.11127 8.27909 5.35603C8.1946 5.47838 8.12786 5.59413 8.0812 5.69654C8.0381 5.79114 8 5.90008 8 6C8 6.09992 8.0381 6.20886 8.0812 6.30346C8.12786 6.40587 8.1946 6.52162 8.27909 6.64397C8.44809 6.88873 8.69732 7.17328 9.02541 7.44493C9.68081 7.9876 10.6792 8.5 12 8.5C13.3208 8.5 14.3192 7.9876 14.9746 7.44493C15.3027 7.17328 15.5519 6.88873 15.7209 6.64397C15.8054 6.52162 15.8721 6.40587 15.9188 6.30346C15.9619 6.20886 16 6.09992 16 6C16 5.90008 15.9619 5.79114 15.9188 5.69654C15.8721 5.59413 15.8054 5.47838 15.7209 5.35603C15.5519 5.11127 15.3027 4.82672 14.9746 4.55507C14.3192 4.0124 13.3208 3.5 12 3.5ZM8.80075 6.00086L8.80055 6L8.80075 5.99914C8.80271 5.99088 8.80975 5.96128 8.83488 5.90612C8.86543 5.83906 8.91425 5.75258 8.98317 5.65276C9.12098 5.45319 9.32992 5.21364 9.60728 4.98399C10.1628 4.52406 10.9644 4.125 12 4.125C13.0356 4.125 13.8372 4.52406 14.3927 4.98399C14.6701 5.21364 14.879 5.45319 15.0168 5.65276C15.0857 5.75258 15.1346 5.83906 15.1651 5.90612C15.1903 5.96128 15.1973 5.99089 15.1992 5.99914L15.1995 6L15.1992 6.00086C15.1973 6.00911 15.1903 6.03872 15.1651 6.09388C15.1346 6.16094 15.0857 6.24742 15.0168 6.34724C14.879 6.54681 14.6701 6.78636 14.3927 7.01601C13.8372 7.47594 13.0356 7.875 12 7.875C10.9644 7.875 10.1628 7.47594 9.60728 7.01601C9.32992 6.78636 9.12098 6.54681 8.98317 6.34724C8.91425 6.24742 8.86543 6.16094 8.83488 6.09388C8.80975 6.03872 8.80271 6.00911 8.80075 6.00086ZM13.6 6C13.6 6.69036 12.8837 7.25 12 7.25C11.1163 7.25 10.4 6.69036 10.4 6C10.4 5.30964 11.1163 4.75 12 4.75C12.8837 4.75 13.6 5.30964 13.6 6ZM12.8 6C12.8 6.34518 12.4418 6.625 12 6.625C11.5582 6.625 11.2 6.34518 11.2 6C11.2 5.65482 11.5582 5.375 12 5.375C12.4418 5.375 12.8 5.65482 12.8 6ZM4 6.5C3.44772 6.5 3 6.94772 3 7.5C3 8.05228 3.44772 8.5 4 8.5H7C7.55228 8.5 8 8.05228 8 7.5C8 6.94772 7.55228 6.5 7 6.5H4ZM6 9.5C5.44772 9.5 5 9.94771 5 10.5C5 11.0523 5.44771 11.5 6 11.5H15C15.5523 11.5 16 11.0523 16 10.5C16 9.94771 15.5523 9.5 15 9.5H6Z" fill="#4A4A4A"/>
</svg>
