<?xml version="1.0" encoding="UTF-8"?>
<svg id="Layer_1" data-name="Layer 1" xmlns="http://www.w3.org/2000/svg" viewBox="0 0 955.74 878.9">
  <path d="M835.2,148.36c0,24.28.02,48.55,0,72.83-.02,22.99-15.01,40.82-37.65,41.15-53.01.77-106.04.21-159.06-.1-4.95-.03-10.15-1.54-14.8-3.42-51.92-21.02-103.89-41.96-155.55-63.62-14.69-6.16-23.31-18.13-21.68-34.83,1.37-14.07,10.13-23,23.32-27.5,6.93-2.36,13.82-.61,20.79.53,60.42,9.83,120.86,19.57,181.31,29.18,9.37,1.49,20.84,4.3,22.66-9.55,1.76-13.42-10.56-14.86-19.45-16.37-62.9-10.64-125.76-21.65-188.92-30.52-40.8-5.73-72.53,29.01-63.75,69.42,3.35,15.41-.51,21.72-13.75,27.58-40.15,17.78-79.73,36.82-119.78,54.83-30.92,13.91-61.51,5.51-73.04-19.19-9.91-21.23-4.86-40.16,14.97-53.11,82.73-54.03,170.9-99.31,253.12-153.8,51.09-33.86,100.56-39.15,157.51-23.29,58.27,16.22,117.7,28.37,176.87,41.12,13.79,2.97,17.48,9.03,17.09,22.02-.76,25.53-.22,51.1-.22,76.66Z" style="fill: #100f0d; stroke-width: 0px;"/>
  <path d="M120.43,727.22c0-23.62,0-47.24,0-70.86.01-23.45,13.23-40.62,37.19-41.23,55.49-1.42,111.03-.53,166.55-.14,5.49.04,11.14,2.62,16.39,4.81,46.96,19.6,93.91,39.24,140.73,59.18,22.92,9.77,31.84,24.56,26.33,42.03-5.95,18.87-20.98,25.45-46.65,21.2-56.57-9.36-113.14-18.75-169.83-27.37-10.76-1.64-27.21-8.86-29.69,9.29-2.31,16.9,15.1,14.51,25.17,16.26,60.85,10.6,121.83,20.5,182.83,30.25,37.98,6.07,72.63-29.07,63.93-67.63-4.36-19.33,2.21-25.9,17.73-32.55,37.98-16.28,75.26-34.19,113.14-50.71,14.63-6.38,29.98-10.24,46.51-6.22,19.33,4.7,28.74,18.16,32.79,35.94,4.03,17.68-3.52,30.72-18.54,40.4-71.77,46.22-145.75,88.77-219.12,132.32-19.16,11.37-39.52,21.11-57.33,34.28-32.62,24.13-67.8,26.52-105.47,17.8-67.62-15.65-135.17-31.64-203-46.31-15.97-3.45-20.63-10.63-19.95-26.07,1.11-24.85.3-49.78.3-74.67Z" style="fill: #100f0d; stroke-width: 0px;"/>
  <path d="M477.51,610.67c-19.84,5.6-28.92-1.54-24.85-22.29,2.02-10.32-4.35-12.78-12.14-15.32-23.71-7.75-40.27-23.71-51.27-45.85-4.25-8.54-3.48-14.15,7.19-16.36,5.53-1.15,10.97-3.45,16.01-6.09,12.48-6.53,20.77-7.63,29.86,7.71,12.06,20.36,40.58,25.11,59.27,13.97,20.83-12.43,21.7-36.96,1.05-49.54-8.56-5.22-18.49-8.43-28.1-11.63-15.12-5.03-30.05-10.32-44.41-17.34-30.18-14.76-44.61-38.66-43.34-72.18,1.29-34.15,17.89-58.44,49.4-70.47,12.73-4.86,18.99-10.09,16.46-23.67-2.61-14.04,2.64-20.35,17.34-17.79,3.72.65,7.73.62,11.46,0,17.1-2.81,25.05,3.45,21.53,21.23-2.2,11.11,3.4,15.18,13.26,18.36,23.76,7.64,39.92,24.32,50.46,46.63,3.38,7.16,4.05,13.38-6.04,15.75-4.29,1.01-8.51,2.77-12.45,4.8-14.47,7.48-25.53,10.6-36.58-8.04-9.62-16.22-28.62-20.33-47.74-16.22-13.77,2.96-23.02,11.56-25.46,25.35-2.43,13.73,4.89,23.79,17,29.02,22.75,9.81,46.21,17.97,68.93,27.84,28.55,12.41,42.48,35.67,44.4,66.03,2.3,36.31-18.42,66.24-53.92,79.09-6.59,2.39-13.86,3.13-11.87,13.32,4.11,20.96-4.21,29.55-25.46,23.69Z" style="fill: #100f0d; stroke-width: 0px;"/>
  <path d="M.14,732.51c0-31.86.31-63.72-.13-95.57-.22-16.17,7.93-23.6,22.97-24.03,18.46-.52,36.96-.55,55.42.03,14.28.45,22.45,8.45,22.48,23.02.14,64.99.15,129.97-.05,194.96-.04,13.76-8.06,21.34-21.48,21.78-19.09.62-38.22.54-57.32.11-14.4-.32-22.09-7.65-21.97-22.83.27-32.49.08-64.99.08-97.48Z" style="fill: #100f0d; stroke-width: 0px;"/>
  <path d="M955.52,144.26c0,31.22-.55,62.45.2,93.65.44,18.27-8.71,25.59-25.27,25.96-17.19.39-34.41.46-51.6-.08-15.82-.49-24.41-8.28-24.34-25.19.27-63.07.21-126.15.04-189.22-.05-17.44,8.04-25.89,25.52-25.69,15.93.18,31.86-.07,47.78.06,22.05.19,27.55,5.86,27.64,28.75.12,30.58.03,61.16.03,91.74Z" style="fill: #100f0d; stroke-width: 0px;"/>
  <path d="M74.3,800.93c.38,13.79-9.81,24.64-23.78,24.39-15.17-.27-24.03-8.45-24.37-23.67-.34-15.41,8.95-24.23,23.57-24.49,14.73-.27,23.43,8.55,24.58,23.77Z" style="fill: #fbfbfb; stroke-width: 0px;"/>
  <path d="M929.6,75.36c-1.1,15.08-9.82,24.06-24.11,24.2-14.35.14-23.45-8.65-24.19-23.81-.71-14.6,10.13-25.39,24.76-24.84,15.56.59,22.13,10.1,23.55,24.45Z" style="fill: #fbfbfb; stroke-width: 0px;"/>
</svg>