<?xml version="1.0" encoding="UTF-8"?>
<svg id="Layer_1" data-name="Layer 1" xmlns="http://www.w3.org/2000/svg" viewBox="0 0 1075.81 1009.92">
  <path d="M306.42,358.12c-26.22-66.51-30.92-131.54-5.31-196.98,18.83-48.1,49.41-87.23,91.89-116.51,86.25-59.46,204.09-59.52,289.41-.05,50.08,34.91,83.32,82.19,99.7,141.11,16.14,58.08,11.18,114.88-12.99,172.43,75.49,0,148.5,0,221.52,0,33.65,0,59.27,13.95,76.21,43.43,6.27,10.91,8.88,22.46,8.88,34.94-.05,165.26.35,330.52-.25,495.78-.16,44.29-35.99,77.58-80.7,77.59-304.66.08-609.32.08-913.98,0-44.84-.01-80.08-33.11-80.26-77.9-.67-165.98-.68-331.96-.22-497.93.12-42.75,36.6-75.51,82.79-75.79,73.27-.44,146.54-.12,223.31-.12Z" style="stroke-width: 0px;"/>
  <path d="M538.99,631.19c158.08,0,316.16.27,474.24-.39,16.99-.07,23.26,2.67,23.02,21.64-1.13,87.65-.46,175.32-.52,262.98-.03,37.89-15.23,53.4-53.6,53.41-296.04.13-592.08.12-888.12,0-38.74-.02-53.64-15.12-53.67-53.18-.06-87.66.58-175.33-.5-262.98-.23-18.59,5.42-21.97,22.77-21.89,158.8.7,317.6.41,476.39.41Z" style="fill: #fefefe; stroke-width: 0px;"/>
  <path d="M538.35,42.12c117.04.3,212.99,96.99,211.39,213.02-1.58,114.28-97.66,208.18-212.54,207.73-117.2-.46-211.85-96.12-211.06-213.31.76-114.05,96.61-207.73,212.22-207.44Z" style="fill: #fefefe; stroke-width: 0px;"/>
  <path d="M396.02,463.03c-117.68,0-229.75-.17-341.82.26-11.63.04-14.26-3.63-14.17-14.66.23-30.03,15.02-48.07,45.32-48.41,78.3-.88,156.63-.32,234.94-.46,6.76-.01,12.58.81,16.99,6.86,15.14,20.84,34.96,37.06,58.75,56.41Z" style="fill: #fdfdfd; stroke-width: 0px;"/>
  <path d="M679.36,463.03c24.29-19,43.58-34.99,58.46-55.27,5.67-7.73,12.69-8.01,20.76-8,75.44.08,150.88.06,226.32.04,20.72,0,38.42,5.18,47.06,26.59,11.11,27.55,5.2,36.64-23.96,36.64-107.65,0-215.29,0-328.63,0Z" style="fill: #fdfdfd; stroke-width: 0px;"/>
  <path d="M729.34,757.63c69.63,0,139.26-.04,208.89.02,28.61.03,33.41,4.97,33.49,34.18.07,27.28.09,54.56,0,81.83-.1,25.69-5.88,31.84-31.32,31.98-45.94.25-91.88.07-137.82.07-94.75,0-189.51.02-284.26-.01-28.3-.01-33.46-5.27-33.54-34.06-.07-26.56-.07-53.12,0-79.68.07-28.79,5.33-34.26,33.53-34.29,70.35-.08,140.7-.03,211.04-.03Z" style="stroke-width: 0px;"/>
  <path d="M262.13,757.57c43.08,0,86.17.21,129.25-.11,16.18-.12,29.98,3.52,29.6,22.52-.36,18.03-14.71,20.84-29.33,20.85-86.17.07-172.33.11-258.5-.04-14.62-.03-28.64-3.18-28.54-21.58.1-17.88,12.91-21.78,28.26-21.71,43.08.19,86.17.07,129.25.07Z" style="fill: #040404; stroke-width: 0px;"/>
  <path d="M262.07,863.29c43.78,0,87.56.21,131.34-.11,15.86-.12,27.66,4.73,27.36,22.39-.29,16.96-12.6,20.25-27.05,20.23-87.56-.14-175.13-.13-262.69-.01-14.69.02-26.37-4.2-26.3-21,.07-16.29,10.95-21.62,25.99-21.56,43.78.2,87.56.07,131.34.07Z" style="fill: #010101; stroke-width: 0px;"/>
  <path d="M538.15,83.59c14.32,2.39,22,11.33,20.42,25.35-2.02,17.86,3.94,24.5,22.09,22.34,16.21-1.93,29.55,3.79,29.06,22.72-.49,18.79-14.88,19.93-29.52,19.51-12.19-.35-24.41-.3-36.6-.02-22.37.53-35.11,10.98-35.66,28.83-.56,18.43,10.83,29.28,33.17,31.58,43.24,4.46,70.91,35.86,68.76,77.89-1.19,23.32-12.27,41.58-31.51,53.3-11.39,6.93-16.32,14.11-15.07,27.19,1.48,15.45-3.86,28.23-21.55,27.95-16.54-.26-21.41-12.62-19.91-27.2,1.4-13.54-5.62-15.7-16.68-14.87-7.13.53-14.42.53-21.49-.35-11.67-1.45-17.85-8.62-17.63-20.47.22-11.66,6.35-19.5,17.98-20.32,15-1.05,30.13-.21,45.2-.51,24.38-.48,37.53-10.29,38.6-28.43,1.11-18.72-9.99-29.07-34.52-32.2-33.61-4.29-59.75-26.37-66.11-55.84-7.18-33.27,6.38-63.86,39.12-80.39,14.89-7.52,10.52-18.53,10.61-28.91.13-15.08,5.53-24.76,21.26-27.15Z" style="stroke-width: 0px;"/>
</svg>