<?xml version="1.0" encoding="UTF-8"?>
<svg id="Layer_1" data-name="Layer 1" xmlns="http://www.w3.org/2000/svg" viewBox="0 0 751.77 887.41">
  <path d="M291.95,558.59c0-102.37.33-204.73-.36-307.1-.1-15.16,4.18-18.84,18.92-18.51,44.87,1.01,89.79.65,134.68.16,10.96-.12,15.37,1.83,15.34,14.5-.45,208.32-.43,416.65-.05,624.97.02,11.98-3.38,14.88-14.97,14.72-46.09-.65-92.19-.76-138.27.04-13.09.23-15.59-4.25-15.54-16.31.45-104.16.26-208.32.26-312.48Z" style="fill: #100f0d; stroke-width: 0px;"/>
  <path d="M489.57,664.16c0-68.87.32-137.74-.29-206.6-.11-12.49,3.18-16.18,15.83-16.03,55.09.67,110.19.56,165.28.06,11.3-.1,15.47,2.35,15.43,14.76-.46,138.93-.41,277.86-.06,416.8.03,11.11-3.16,14.25-14.19,14.15-55.69-.51-111.39-.7-167.07.1-13.6.2-15.26-5-15.18-16.64.49-68.86.24-137.73.24-206.6Z" style="fill: #100f0d; stroke-width: 0px;"/>
  <path d="M262.57,664.65c0,68.85-.28,137.71.27,206.56.1,11.95-2.05,16.39-15.3,16.2-55.07-.81-110.17-.79-165.24-.02-13.26.19-15.39-4.44-15.35-16.35.39-137.71.49-275.41-.1-413.12-.06-14.31,4.82-16.53,17.47-16.38,53.88.64,107.77.68,161.65-.02,12.99-.17,17.18,2.52,17,16.57-.87,68.84-.39,137.7-.39,206.56Z" style="fill: #100f0d; stroke-width: 0px;"/>
  <path d="M376.07,130.27c28.7-37.79,60.9-71.59,99.58-98.29,34.25-23.64,71.43-40.51,114.35-27.42,40.83,12.45,67.32,40.84,77.86,81.89,12.81,49.92-18.84,95.54-71.17,105.8-15.34,3.01-30.81,4.04-46.41,4.03-116.17-.06-232.34-.08-348.52.02-17.43.02-34.83-.79-51.66-5.21-70.89-18.62-91.21-97.01-39.93-153.22C144.59.15,190.19-9.94,237.41,10.33c53.92,23.15,92.56,64.78,129.51,108.31,3.06,3.61,5.86,7.44,9.15,11.64Z" style="fill: #100f0d; stroke-width: 0px;"/>
  <path d="M133.28,233.35c37.73,0,75.46.42,113.18-.25,11.72-.21,16.7,1.71,16.46,15.23-.87,49.69-.74,99.41-.06,149.1.16,11.8-3.1,14.84-14.81,14.76-77.85-.53-155.7-.57-233.55.03-12.17.09-14.61-3.7-14.48-15,.59-49.7.62-99.41-.02-149.11-.15-11.6,2.69-15.29,14.7-15.06,39.51.76,79.04.29,118.57.29Z" style="fill: #100f0d; stroke-width: 0px;"/>
  <path d="M620.27,411.92c-38.27,0-76.56-.45-114.82.27-11.99.23-16.43-2.26-16.22-15.41.82-49.62.79-99.27,0-148.9-.2-12.44,4.06-14.79,15.25-14.73,77.74.39,155.49.42,233.23-.04,10.9-.06,14.18,2.6,14.04,13.85-.63,50.82-.57,101.66-.03,152.49.11,10.4-3.11,12.84-13.05,12.7-39.46-.55-78.94-.23-118.41-.23Z" style="fill: #100f0d; stroke-width: 0px;"/>
  <path d="M335.53,151.91c-52.8,0-101.16.24-149.52-.09-31.28-.21-53.5-13.59-58.88-34.4-5.52-21.35,10.78-51.71,35.07-65.19,19.46-10.79,39.23-8.91,58.51-.15,46.9,21.32,80.33,58.16,114.81,99.82Z" style="fill: #fefefe; stroke-width: 0px;"/>
  <path d="M416.14,151.48c39.11-44.93,74.66-88.39,131.89-104.25,34.91-9.68,75.42,21.04,77.7,57.34,1.09,17.38-6.1,29.8-21.3,38.12-9.12,4.99-19.1,8.37-29,8.49-51.73.65-103.47.31-159.29.31Z" style="fill: #fefefe; stroke-width: 0px;"/>
</svg>