<?xml version="1.0" encoding="UTF-8"?>
<svg id="Layer_1" data-name="Layer 1" xmlns="http://www.w3.org/2000/svg" viewBox="0 0 879.36 736.07">
  <path d="M709.53,690.4c-33.98-2.91-67.54-17.67-95.75-44.7-23.34-22.37-38.21-22.4-61.72-.72-66.89,61.66-159.43,61.48-225.28-.43-22.28-20.94-37.46-21.12-60.43.39-29.41,27.54-64.11,42.39-104.09,45.81-8.61.74-13.35-1.98-18.19-9.58-43.11-67.74-69.82-141.53-82.44-220.56-4.64-29.04,10.06-52.38,40.74-66.49,94.09-43.28,189.32-84.27,281.78-130.79,39.97-20.11,71.72-19.74,111.45.2,91.97,46.16,186.56,87.11,280.11,130.13,34.85,16.03,46.32,38.22,40.1,76.08-12.33,74.98-39.28,144.32-79.49,208.64-7.94,12.7-7.99,12.67-26.79,12.02Z" style="stroke-width: 0px;"/>
  <path d="M732.21,735.98c-57.29-.31-100.87-16.59-138.39-48.6-7.8-6.65-12.32-8.36-21.47-.6-76.68,65.1-186.11,65.84-263.11,1.46-11.06-9.25-16.35-6.65-25.53,1.06-79.03,66.4-202.66,60.39-274-12.83-6.2-6.36-14.59-13.54-6.1-22.06,8.78-8.81,15.7.3,21.93,6.4,70.81,69.23,181.59,70.16,254.29,2.13q17.21-16.1,33.67-.07c68.61,66.79,180.75,66.93,251.96.33q17.38-16.26,34.93.62c68.63,66.03,178.44,65.92,250.51-.27,2.59-2.38,5.01-4.94,7.54-7.39,5.17-5.02,11.46-7.59,17.14-2.27,6.42,6.01,3.87,12.9-1.65,18.45-26.95,27.13-58.26,47-95.56,56.7-17.68,4.6-35.59,7.54-46.15,6.95Z" style="stroke-width: 0px;"/>
  <path d="M512.24.18c16.45,0,32.9.31,49.33-.14,7.69-.21,10.23,2.51,10.13,10.14-.35,25.84-.35,51.69,0,77.52.1,7.67-2.5,10.19-10.15,10.12-33.48-.31-66.96-.32-100.43,0-7.7.08-10.22-2.62-10.13-10.14.3-25.84.3-51.69,0-77.53-.09-7.55,2.47-10.32,10.16-10.12,17.02.45,34.06.14,51.09.14Z" style="fill: #010101; stroke-width: 0px;"/>
  <path d="M653.62,97.69c-16.45,0-32.91-.38-49.34.16-8.42.28-11.2-2.51-11.05-10.99.46-25.25.45-50.52,0-75.77-.15-8.37,2.44-11.19,10.96-11.08,32.89.41,65.79.42,98.68,0,8.48-.11,11.22,2.54,11.07,11-.45,25.25-.43,50.52,0,75.77.14,8.35-2.36,11.41-10.99,11.09-16.42-.6-32.89-.17-49.33-.17Z" style="fill: #010101; stroke-width: 0px;"/>
  <path d="M227.3,119.42c14.67,0,29.37.59,44-.2,10.7-.57,15.67,1.41,15.07,13.95-1.13,23.42-.76,46.94-.11,70.4.26,9.43-2.89,11.92-11.96,11.78-32.27-.47-64.55-.43-96.82-.02-8.65.11-12.43-1.6-12.15-11.41.71-24.63.61-49.3.03-73.93-.2-8.65,2.47-11.06,10.9-10.76,17,.61,34.03.18,51.05.18Z" style="stroke-width: 0px;"/>
  <path d="M366.68,215.18c-15.26,0-30.54-.46-45.77.17-9.26.39-13.69-1.24-13.31-12.13.85-24.03.68-48.12.05-72.17-.24-9.21,2.43-11.98,11.7-11.83,32.27.53,64.55.41,96.83.06,8.27-.09,12.66.87,12.32,11.1-.81,24.62-.56,49.29-.09,73.93.16,8.21-1.96,11.37-10.68,11.05-17-.64-34.03-.19-51.05-.19Z" style="stroke-width: 0px;"/>
  <path d="M510.31,215.17c-16.43,0-32.87-.33-49.29.15-7.56.22-10.21-2.03-10.08-9.86.44-25.23.33-50.47.05-75.7-.08-6.88.83-10.63,9.27-10.52,34.03.43,68.07.29,102.11.08,6.5-.04,9.43,1.57,9.33,8.8-.36,25.82-.41,51.64.03,77.46.14,8.09-3.18,9.85-10.37,9.71-17.01-.35-34.03-.11-51.05-.11Z" style="stroke-width: 0px;"/>
  <path d="M652.54,215.18c-16.43,0-32.87-.31-49.29.13-7.61.21-10.13-2.31-10.01-10.01.41-25.23.57-50.47-.06-75.69-.23-9.25,3.66-10.4,11.4-10.32,32.86.32,65.72.41,98.58-.05,8.47-.12,10.99,2.36,10.8,10.83-.53,24.63-.67,49.3.05,73.93.29,9.87-3.48,11.67-12.19,11.36-16.41-.59-32.85-.17-49.29-.17Z" style="stroke-width: 0px;"/>
  <path d="M165.57,340.18c0-33.01.21-63.35-.14-93.69-.09-8.18,4.54-7.88,10.14-7.87,33.39.08,66.79.17,100.18-.06,7.05-.05,11.48,1.41,10.3,9.59-.08.57-.03,1.17,0,1.76q1.64,34.59-29.56,48.79c-29.58,13.48-59.14,26.98-90.91,41.47Z" style="stroke-width: 0px;"/>
  <path d="M713.77,340.23c-39.79-18.21-77.37-35.25-114.78-52.65-10.16-4.73-5.2-14.53-5.36-21.97-.58-26.93-.23-26.94,25.92-26.94,27.54,0,55.08-.04,82.62.03,5.52.01,11.89-1.97,11.75,7.92-.41,30.3-.15,60.61-.15,93.61Z" style="stroke-width: 0px;"/>
  <path d="M571.6,275.52c-26.02-11.99-49.46-22.78-72.89-33.58.22-1.1.44-2.2.66-3.3,21.32,0,42.64.2,63.95-.11,7.49-.11,8.61,3.65,8.36,9.81-.33,8.18-.08,16.38-.08,27.17Z" style="fill: #040404; stroke-width: 0px;"/>
  <path d="M308.4,275.22q-1.46-36.59,32.48-36.59c12.88,0,25.76,0,38.64,0,.43,1.06.85,2.13,1.28,3.19-23.52,10.85-47.04,21.7-72.41,33.39Z" style="fill: #030303; stroke-width: 0px;"/>
  <path d="M451.19,445.72c0,48.75.02,97.51-.04,146.26,0,5.26.11,10.65-.95,15.75-1.16,5.58-4.87,9.28-11.26,9.02-5.63-.23-8.67-3.97-9.81-8.64-1.09-4.47-.95-9.31-.95-13.98-.04-99.27-.04-198.54,0-297.81,0-4.68-.22-9.5.75-14.02,1.21-5.67,5.18-9.27,11.35-8.94,5.29.28,8.91,3.5,9.79,8.61.89,5.15,1.06,10.48,1.07,15.73.07,49.34.04,98.68.04,148.02Z" style="fill: #f7f7f7; stroke-width: 0px;"/>
</svg>