<?xml version="1.0" encoding="UTF-8"?>
<svg id="Layer_1" data-name="Layer 1" xmlns="http://www.w3.org/2000/svg" viewBox="0 0 922.33 995.83">
  <path d="M460.63,461.96c146.81,0,293.63.25,440.44-.35,15.93-.06,21.34,3.1,21.26,20.36-.71,161.42-.4,322.85-.44,484.28,0,27.95-1.62,29.56-28.98,29.57-288.31.03-576.62.03-864.93,0-26.49,0-27.54-1.07-27.54-28.51C.38,805.21.68,643.12,0,481.03c-.07-16.44,5.21-19.43,20.2-19.38,146.81.51,293.62.31,440.43.31Z" style="stroke-width: 0px;"/>
  <path d="M6.4,425.06c21.26-42.47,41.62-83.11,61.95-123.77,11.84-23.69,24.02-47.23,35.29-71.19,5.75-12.22,13.53-17.96,27.67-17.63,35.2.82,70.44.17,105.66.37,6.06.03,13.93-2.89,15.88,7.14,7.05,36.37,23.4,68.41,49.77,99.78-24.27,0-44.52.21-64.75-.08-13.13-.19-24.98,1.56-24.8,18.17.17,15.09,11.12,17.8,23.58,17.8,149.53-.03,299.07-.03,448.6,0,12.56,0,23.24-2.97,23.38-18.02.14-15.14-10.25-18.11-23.03-17.94-20.56.28-41.12.08-65.53.08,14.39-19.88,27.87-37.61,36.04-58.3.97-2.46,1.75-5.03,2.98-7.36,6.8-12.87,3.01-33.72,14.7-39.38,12.98-6.29,31.19-1.9,47.13-1.96,23.92-.1,47.85.23,71.77-.15,9.43-.15,17.36,1.97,21.74,10.71,33.4,66.64,66.62,133.37,100.73,201.73H6.4Z" style="stroke-width: 0px;"/>
  <path d="M460.47,319.76c-29.87,0-59.75-.5-89.61.25-11.42.29-20.03-3.07-28.59-10.36-51.85-44.14-72.51-125.03-48.77-192.86C316.99,49.71,378.25,3.81,447.27.33c80.08-4.04,139.57,28.73,173.52,101.07,32.31,68.85,20.9,134.17-26.59,193.16-13.73,17.05-29.6,28.13-54.13,25.77-26.31-2.52-53.05-.57-79.6-.57Z" style="stroke-width: 0px;"/>
  <path d="M266.8,663.1c3.31-40.53,22.06-74.68,63.2-92.65,39.85-17.41,78.8-12.84,111.28,16.22,15.7,14.05,23.51,14.4,39.06-.1,38.83-36.21,102.79-33.47,141.09,3.33,39.38,37.84,46.63,102.52,10.37,142.4-50.42,55.46-104.93,107.22-157.81,160.44-8.45,8.5-17.84,8.48-26.29,0-52.48-52.69-105.28-105.08-156.96-158.54-17.75-18.36-22.71-42.95-23.94-71.1Z" style="fill: #fefefe; stroke-width: 0px;"/>
  <path d="M513.38,138.3c.36,9.54-2.41,17.39-12.83,19.43-10.53,2.06-18.18-1.64-20.96-12.87-.95-3.85-1.81-7.85-3.56-11.35-3.58-7.17-9.51-11.09-17.79-9.68-8.15,1.38-12.89,6.79-14.05,14.7-1.29,8.78,1.83,15.83,10.74,18.9,4.36,1.5,9.03,2.14,13.59,2.97,22.69,4.14,39.59,19.54,43.97,40.17,4.66,21.93-3.41,42.95-22.36,55.27-6.35,4.13-11.64,7.64-13.35,15.81-1.69,8.09-8.39,11.85-16.37,11.73-7.11-.11-13.68-3.59-15.17-10.67-1.73-8.2-6.91-11.49-13.19-15.71-13.72-9.21-22.4-22.15-23.57-39.39-.69-10.22.98-19.02,12.45-21.56,11.78-2.61,19.1,2.66,21.69,14.51.7,3.22,1.17,6.7,2.75,9.5,3.89,6.92,10.07,10.75,18.13,9.36,7.87-1.36,13.39-6.15,14.17-14.46.81-8.66-1.98-16.03-11.12-18.74-11.27-3.34-23.11-3.48-33.73-10.47-32.45-21.37-33.65-67.14-1.24-88.14,6.34-4.1,10.68-7.92,13.54-15.56,5.32-14.2,24.01-16.99,29.08-4.2,4.92,12.4,14.36,17.9,23,25.52,10.69,9.43,16.12,21.82,16.2,34.95Z" style="fill: #fefefe; stroke-width: 0px;"/>
  <path d="M619.91,668.11c-.8,17.11-6.67,34.51-20.33,48.33-43.4,43.95-87.28,87.44-130.5,131.57-7.32,7.48-10.98,5.44-17.18-.86-42.43-43.05-85.62-85.35-127.73-128.71-28.76-29.61-29.76-70.74-4.06-98.82,27.45-29.98,65.73-32.15,99.82-5.26,7.26,5.73,13.69,12.55,20.32,19.04,18.46,18.07,22.52,18.2,40.56.55,10.43-10.2,20.42-20.77,33.32-28.18,46.37-26.62,105.09,6.71,105.78,62.33Z" style="stroke-width: 0px;"/>
</svg>