<?xml version="1.0" encoding="UTF-8"?>
<svg id="Layer_1" data-name="Layer 1" xmlns="http://www.w3.org/2000/svg" viewBox="0 0 967.33 752.67">
  <path d="M259.11,600.04c-22.81,39.83-44.17,77.34-65.75,114.74-14.27,24.73-28.81,24.54-43.21-.51-47.55-82.67-95.04-165.38-142.48-248.11-15.04-26.22-8.09-38.18,22.02-38.37,15.49-.1,33.82,4.81,45.73-1.8,13.61-7.56,5.84-28.23,8.31-42.99C109.22,230.64,188.9,116.35,326.73,46.93c258.78-130.36,573.46,23.41,632,306.59,5.11,24.74,8.26,49.57,8.22,74.89-.1,69.14.09,138.29.38,207.44.05,12.62-1.07,24.31-17.26,24.45-16.79.14-19.13-11.47-19.09-25.17.2-62.68,1.7-125.42-.25-188.04-5.45-174.53-87.71-301.8-245.79-374.17C450.21-34.55,166.14,119.63,124.58,373.46c-1.98,12.08-2.3,24.5-5.08,36.36-3.29,14.02-.54,19.34,15.26,18.35,23.17-1.46,46.53-1.03,69.76-.1,11.46.46,15.4-2.81,16.8-14.5,16.14-134.65,107.13-236.07,238.8-267.04,169.32-39.83,347.63,86.74,366.6,260.22,17.32,158.29-75.23,299.77-228.13,336.4-125.2,29.99-245.36-11.14-324.19-120.45-4.84-6.72-9.27-13.74-15.28-22.68Z" style="stroke-width: 0px;"/>
  <path d="M525.13,179.06c140.23.77,251.55,104.84,265.72,248.41,12.83,130-83.94,256.11-216.54,282.19-116.53,22.92-233.85-34.75-288.33-140.86-4.21-8.19-1.8-12.65,1.67-18.65,16.79-28.97,33.69-57.87,50.2-86.99,12.81-22.6,5.26-35.05-21.12-35.33-15.49-.16-31.04-.77-46.47.21-12.12.77-13.03-3.7-11.65-14.39,17.46-135.3,130.82-235.32,266.51-234.58Z" style="fill: #fefefe; stroke-width: 0px;"/>
  <path d="M51.84,466.86c5.29-.47,7.79-.89,10.29-.89,75.59-.03,151.18-.03,230.18-.03-40.33,70.03-79.55,138.14-120.38,209.04-40.33-69.89-79.44-137.67-120.09-208.12Z" style="fill: #fefefe; stroke-width: 0px;"/>
  <path d="M604.43,328.41c-16.52-9.39-33.39-16.66-52.49-17.72-8.44-.47-11.49,1.54-11.41,10.31.36,35.52.48,71.05-.08,106.57-.15,9.19,4.97,12.17,11.59,15.4,17.44,8.49,34.21,18.12,48.46,31.5,47.04,44.2,32.55,116.88-27.85,139.95-31.28,11.95-31.65,11.95-31.74,47.27-.03,10.05-1.12,15.27-13.22,14.69-9.3-.44-11.83-2.93-11.89-12.12-.08-12.67,6.09-29.11-2.85-37.03-7.59-6.73-23.36-4.21-35.51-5.79-.64-.08-1.28-.15-1.92-.27-39.88-7.6-44.45-13.28-43.43-56.77,21.33,13.91,43.88,21.53,67.68,25.75,11.84,2.1,17.21.26,16.69-13.97-1.16-31.61-1.01-63.3-.03-94.92.36-11.67-3.69-17.82-13.88-21.91-13.24-5.32-24.76-13.62-36.29-21.94-29.38-21.2-39.87-50.71-33.63-84.9,6.36-34.82,27.75-60.27,62.04-69.91,18-5.06,23.72-12.29,21.87-29.9-.78-7.42-6.72-19.59,11.21-19.97,16.96-.37,13.5,10.18,12.69,18.81-1.64,17.43,1.12,29.51,22.88,25.24,1.79-.35,3.82.42,5.73.73,39.46,6.33,41.3,8.93,35.37,50.9Z" style="stroke-width: 0px;"/>
  <path d="M540.64,535.04c0-14.82,0-29.64,0-44.47,0-5.6-.53-10.42,8.26-6.61,22.6,9.8,40.2,37.68,38.03,61.91-1.78,19.77-16.47,36.28-35.48,41.05-9.07,2.27-11.23-.89-10.94-9.36.48-14.16.13-28.35.13-42.53Z" style="fill: #fbfbfb; stroke-width: 0px;"/>
  <path d="M516.13,423.15c-25.87-13.02-43.59-28.58-44.31-57.57-.55-22.24,10.66-41.17,29.44-50.15,10.77-5.15,15.63-5.16,15.18,9.45-.99,31.93-.31,63.91-.31,98.28Z" style="fill: #fbfbfb; stroke-width: 0px;"/>
</svg>