<?xml version="1.0" encoding="UTF-8"?>
<svg id="Layer_1" data-name="Layer 1" xmlns="http://www.w3.org/2000/svg" viewBox="0 0 1048.87 731.43">
  <path d="M526.61,270.16c166.57,0,333.13.38,499.69-.52,19.15-.1,22.67,5.32,22.56,23.2-.8,125.97-.38,251.94-.45,377.92-.02,45.15-15.5,60.66-60.04,60.66-309.34,0-618.67,0-928.01,0-43.98,0-59.75-15.28-59.79-58.6-.1-127.37.25-254.75-.39-382.12-.08-16,3.41-21.04,20.42-20.97,168.66.7,337.33.42,505.99.42Z" style="stroke-width: 0px;"/>
  <path d="M524.73,168.69c-167.9,0-335.8-.19-503.69.32-15.4.05-21.82-2.39-20.96-19.89,1.65-33.5.11-67.14.71-100.71C1.3,19.71,18.94,2.19,47.86.26,52.74-.07,57.65,0,62.54,0,370.36,0,678.17,0,985.99.04c7.68,0,15.49-.21,23.03,1.01,22.14,3.57,38.36,20.6,38.87,42.7.88,37.76-.12,75.56.84,113.31.36,14.04-7.99,11.63-16.11,11.63-68.56,0-137.12,0-205.68,0-100.74,0-201.48,0-302.22,0Z" style="stroke-width: 0px;"/>
  <path d="M435.9,523.82c-.26,27.18-24.21,50.02-51.73,49.35-27.4-.67-50.48-24.61-49.8-51.63.69-27.08,25.01-50.28,52-49.6,27.73.69,49.8,23.81,49.53,51.89Z" style="fill: #fdfdfd; stroke-width: 0px;"/>
  <path d="M258.36,523.77c-.21,27.41-23.81,50.02-51.53,49.36-27.59-.66-50.15-24.04-49.67-51.51.48-27.36,24.34-50.28,51.72-49.67,27.61.61,49.69,23.73,49.47,51.82Z" style="fill: #fdfdfd; stroke-width: 0px;"/>
</svg>