<?xml version="1.0" encoding="UTF-8"?>
<svg id="Layer_1" data-name="Layer 1" xmlns="http://www.w3.org/2000/svg" viewBox="0 0 1046.4 669.96">
  <path d="M523.21.01c147.68,0,295.35-.04,443.03.02,56.1.02,79.55,23.82,79.56,80.65.03,169.37-.9,338.75.6,508.11.42,47.28-29.61,81.41-81.51,81.17-295.34-1.38-590.7-.66-886.05-.68-52.99,0-78.79-25.38-78.8-77.7C-.01,420.11,0,248.64.03,77.17.04,23.04,23.25.06,78.08.04,226.46-.03,374.84.01,523.21.01Z" style="stroke-width: 0px;"/>
  <path d="M521.87,238.86c157.37,0,314.73.25,472.09-.37,16.71-.07,22.54,3.18,22.39,21.39-.92,109.1-.41,218.21-.48,327.31-.03,39.04-12.73,51.97-51.04,51.97-295.15.04-590.3.04-885.44,0-36.61,0-49.62-12.73-49.65-48.79-.11-111.2.25-222.41-.39-333.61-.08-14.66,3.7-18.31,18.33-18.26,158.06.57,316.13.35,474.19.35Z" style="fill: #fefefe; stroke-width: 0px;"/>
  <path d="M522.02,110.05c-157.45,0-314.89-.29-472.33.42-16.85.08-22.4-4.66-20.16-20.81,1.05-7.56-.22-15.41.44-23.06,1.88-21.56,14.28-34.36,35.64-37.05,5.52-.7,11.16-.66,16.75-.66,293.2-.03,586.4-.04,879.59,0,44.51,0,67.39,31.94,53.84,74.61-3.61,11.38-12.82,6.28-19.33,6.3-114.76.35-229.52.25-344.28.25h-130.15Z" style="fill: #fdfdfd; stroke-width: 0px;"/>
  <path d="M280.43,565c-48.27,0-96.56-.61-144.81.31-18.17.35-24.79-6.21-25.1-24.19-.89-51.74-1.39-51.73,50.22-51.73,18.89,0,37.79-.41,56.66.16,10.23.31,16.58-3.42,16.95-13.65.4-10.99-5.86-16.56-16.95-16.56-30.78,0-61.61-1-92.33.34-17.98.79-13.99-10.36-14.28-20.2-.29-9.88-2.03-19.07,14.04-18.35,29.32,1.32,58.75.11,88.13.5,12.07.16,21.76-2.81,21.28-16.56-.47-13.39-11.26-13.74-21.6-13.69-28.68.13-57.38-.38-86.05.25-11.16.25-16.25-2.01-16.04-14.74,1.19-72.9-7.75-60.41,59.11-60.92,83.95-.65,167.9-.19,251.85-.14,26.58.02,27.75,1.24,27.95,26.7q.37,48.88-48.24,48.88c-16.09,0-32.19-.32-48.27.11-11.19.3-26.19-3.75-25.59,15.39.53,16.84,13.84,14.49,24.84,14.54,25.88.13,51.8.82,77.64-.26,14.48-.61,20.34,1.69,20.41,18.64.07,17.61-6.13,20.4-21.39,19.77-26.54-1.1-53.16-.26-79.74-.33-11.05-.03-21.81.12-21.99,15.44-.19,16.08,11.19,14.73,21.92,14.7,27.98-.1,55.98.55,83.94-.3,12.32-.37,17.06,2.2,16.78,15.89-1.41,70.39,7.85,59.16-58.11,59.91-37.07.42-74.16.08-111.23.08Z" style="stroke-width: 0px;"/>
  <path d="M722.38,430.62c-60.84,0-121.67,0-182.51,0-11.86,0-26.57,2.01-26.07-15.5.5-17.32,15.45-14.57,27.09-14.57,120.97-.05,241.94-.09,362.92.06,11.97.01,28.51-3.81,27.98,15.52-.53,19.23-17.33,14.29-29,14.35-60.13.32-120.27.15-180.41.15Z" style="stroke-width: 0px;"/>
  <path d="M626.46,502.01c-31.37,0-62.74-.27-94.1.15-10.39.14-18.5-1.88-18.87-13.76-.39-12.56,7.59-16.56,19.05-16.54,62.03.11,124.07.12,186.1-.03,11.15-.03,19.94,3.04,19.96,15.69.03,13.13-9.1,14.8-20.15,14.64-30.66-.45-61.34-.16-92-.16Z" style="stroke-width: 0px;"/>
</svg>