<?xml version="1.0" encoding="UTF-8"?>
<svg id="Layer_1" data-name="Layer 1" xmlns="http://www.w3.org/2000/svg" viewBox="0 0 775.88 640.47">
  <path d="M383.64,640.03c-94.78,0-189.58-.85-284.34.43-36.38.49-55.27-22.89-60.55-44.75-6.88-28.49,5.71-53.8,34.3-66.99,9.69-4.47,11.33-9.6,9.42-19.21-15.03-75.53-29.61-151.14-44.47-226.7-1.64-8.34-5.94-15.26-13.02-20.43C-3.27,241.74-4.55,203.31,6.34,178.07c13.83-32.07,44.07-47.25,80.05-41.8,28.32,4.29,54.98,31.93,59.53,62.05,2.2,14.58-2.33,27.77-10.4,39.56-6.3,9.21-5.48,16.42,1.86,24.8,14.31,16.34,26.84,34.29,41.67,50.09,24.89,26.52,58.14,24.13,77.08-6.61,26.83-43.53,45.9-91.22,69.54-136.49,4.28-8.2-1.41-12.44-5.71-17.42-38.7-44.82-29.22-107.73,20.97-138.97,37.03-23.05,87.5-15.39,115.64,17.55,30.79,36.05,32.31,83.17,2.19,117.32-9.48,10.74-10.55,18.82-4,31.33,19.63,37.49,37.91,75.69,56.83,113.56,5.11,10.24,11.3,19.71,20.53,26.91,19.21,14.99,42.48,14.68,60.64-2.34,19.72-18.49,34.39-41.29,51.01-62.43,4.29-5.46,1.33-9.2-1.49-13.75-18.17-29.3-16.01-55.03,6.67-82.6,19.19-23.34,48.66-30.45,80.16-19.33,28.23,9.96,45.17,34.96,46.66,64.84,1.21,24.3-6.86,43.5-25.45,58.51-7.27,5.87-10.87,13.12-12.64,22.24-14.54,75.1-29.19,150.17-44.42,225.13-2.08,10.23-.47,15.95,8.72,21.64,23.68,14.66,33.83,41.71,26.13,67.15-6.67,22.01-27.83,41.78-58.57,41.42-95.29-1.1-190.6-.4-285.9-.4Z" style="stroke-width: 0px;"/>
  <path d="M388.86,522.34c-85.48,0-170.97-.38-256.44.37-14.7.13-19.81-5.34-22.31-18.64-14.32-76.21-29.23-152.31-43.86-228.47-2.44-12.7-8.16-22.74-18.82-30.82-21.29-16.13-25.41-43.25-10.66-63,14.69-19.66,42.63-23.78,62.07-9.14,21.05,15.84,25.19,42.37,7.95,64.3-10.13,12.88-8.65,22.19,1.16,33.86,16.64,19.78,30.47,41.82,48.23,60.78,37.78,40.33,91.46,36.81,123.59-8.2,9.37-13.12,15.91-27.74,22.96-42.11,16.83-34.29,33.21-68.82,50.83-102.7,7.76-14.92,7.81-24.99-6.25-37.24-32.13-27.99-29.37-72.64,2.2-98.56,25.84-21.22,67.37-13.86,84.58,6.01,22.55,26.04,22.99,62.55-.02,87.45q-20.89,22.61-7.31,50.56c18.11,37.12,36.23,74.24,54.46,111.3,3.42,6.94,7.04,13.83,11.18,20.36,32.7,51.58,92.5,55.66,131.25,8.72,15.48-18.75,29.46-38.77,45.22-57.27,10.22-12,10.54-21.44.21-33.76-13.81-16.48-13.44-38.75-1.45-54.53,12.93-17.01,33.87-22.49,54.1-14.16,28.44,11.72,36.38,52.18,12.35,71.73-17.27,14.06-23.54,31.48-27.35,51.82-13.43,71.64-27.6,143.15-41.09,214.78-2.27,12.07-6.98,17-20.36,16.9-85.48-.67-170.96-.34-256.44-.34Z" style="fill: #fefefe; stroke-width: 0px;"/>
  <path d="M382.47,612.49c-89.05,0-178.11.01-267.16-.03-7.24,0-14.51-.04-21.72-.62-15.2-1.22-25.68-10.89-27.29-24.7-1.91-16.3,5.8-29.31,20.96-33.58,6.35-1.79,13.28-2.11,19.95-2.1,183.8.22,367.6.56,551.4.97,8.18.02,16.45-.76,24.42,2.82,13.79,6.2,20.06,16.92,17.59,32.53-2.2,13.94-10.8,22.02-24.62,24.02-6.11.88-12.4.66-18.6.66-91.64.04-183.29.02-274.93.02Z" style="fill: #fefefe; stroke-width: 0px;"/>
</svg>