<?xml version="1.0" encoding="UTF-8"?>
<svg id="Layer_1" data-name="Layer 1" xmlns="http://www.w3.org/2000/svg" viewBox="0 0 907.87 705.74">
  <path d="M459.53,149.75c15.89,41.42,30.49,82.4,47.24,122.49,25.6,61.28,100.64,70.19,140.82,17.35,6.22-8.18,11.13-17.34,17.33-25.53,11.64-15.39,21.79-27.62.58-46.37-17.56-15.52-14.12-44.67.39-63.41,14.42-18.62,38.54-25.47,60.15-17.07,22.61,8.78,36.88,30.65,35.16,53.87-1.75,23.48-18.29,43.25-42.76,47.46-10.52,1.81-10.8,6.01-10.16,14.26,2.2,28.4,3.95,56.84,5.65,85.27,1.32,21.99,11.41,38.2,31.9,46.52,20.92,8.49,40.34,5.17,57.07-10.65,2.2-2.08,4.22-4.39,6.58-6.27,12.75-10.12,19.49-18.45,3.3-33.77-15.26-14.43-13-41.8-.05-60.71,11.74-17.13,36-25.92,56.16-20.33,23.63,6.55,37.76,23.45,38.88,46.51,1.77,36.47-17.9,58.37-53.95,56.82-12.26-.53-12.48,6.24-14.48,13.24-19.95,69.72-40.27,139.34-59.16,209.34-4.36,16.17-10.23,18.21-26.06,15.02-116.45-23.46-234.43-27.59-352.78-24.78-86.68,2.06-173.08,7.71-258.03,26.62-11.53,2.57-12.76-4.05-15.05-12.14-19.74-69.78-39.99-139.41-59.42-209.27-3.27-11.75-6.73-17.87-21.06-18.01-24.61-.23-44.25-18.6-46.99-39.8-3.95-30.53,7.37-52.09,32.46-61.81,21.99-8.52,47.7-.93,61.56,18.18,15.2,20.97,15.23,48.56-3.48,66.44-11.72,11.19-7,15.44,1.49,24.31,16.92,17.65,34.96,30.19,60.74,23.75,22.55-5.63,37.32-23.11,39.45-48.76,2.41-28.98,3.19-58.1,5.06-87.13.5-7.76-.74-11.02-9.82-12.86-25.51-5.16-41.87-27.09-41.4-52.34.46-24.8,18.29-46.21,43.13-51.77,22.55-5.05,48.23,8.2,58.44,30.16,10.77,23.17,5.02,48.59-16.38,64.6-7.89,5.9-7.84,9.37-2.59,16.62,10.65,14.68,19.61,30.62,30.58,45.04,38.35,50.37,112.61,42.68,138.11-15.18,17.03-38.64,30.47-78.85,46.06-118.14,4.55-11.47-3.93-9.44-9.55-11.13-30.82-9.24-49.7-29.81-54.44-61.47-4.77-31.87,7.24-57.53,35.21-73.74,25.4-14.72,52.49-15.29,77.55.47,26.21,16.49,39.31,41.58,34.98,72.67-4.28,30.72-22.36,51.52-52.48,60.96-4.59,1.44-9.27,2.6-15.91,4.45Z" style="stroke-width: 0px;"/>
  <path d="M766.83,619.56c-10.8,16.49-15.47,31.02-9.46,49.6-31.29-3.17-61.23-6.32-91.18-9.23-154.4-15.04-308.67-14.06-462.81,3.75-8.43.97-16.89,1.62-25.34,2.4-8.43.78-18.15,4.52-24.98,1.57-9.11-3.93.13-14.94-3.04-22.46-3.2-7.6-6.04-15.36-10.12-25.84,208.69-29.15,416.46-29.11,626.92.21Z" style="stroke-width: 0px;"/>
  <path d="M147.26,683.4c203.05-15.81,406.09-15.95,609.13.07,0,3.35,0,6.71,0,10.06-203.05,16.21-406.09,16.38-609.13-.07,0-3.35,0-6.71,0-10.06Z" style="stroke-width: 0px;"/>
</svg>