<?xml version="1.0" encoding="UTF-8"?>
<svg id="Layer_1" data-name="Layer 1" xmlns="http://www.w3.org/2000/svg" viewBox="0 0 1171.97 1170.67">
  <path d="M585.41,1170.54C272.82,1177.41-9.41,908.61.24,564.73,8.35,275.75,255.25-.5,587.49,0c320.69.48,586.39,269.15,584.47,591.77-1.79,300.5-253.29,584.09-586.56,578.77Z" style="fill: #100f0d; stroke-width: 0px;"/>
  <path d="M580.78,45.15c296.6-4.66,541.93,236.51,545.94,536.67,3.95,295.66-235.28,540.89-535.81,544.21-296.31,3.27-542.93-232.02-545.69-543.84C42.64,292.53,283.12,49.82,580.78,45.15Z" style="fill: #fefefe; stroke-width: 0px;"/>
  <path d="M586.33,788c20.87-29.38,40.63-57.34,60.54-85.18,26.91-37.64,49.52-45.19,92.51-29.41,40.14,14.73,80.09,30.04,119.76,46.01,45.25,18.22,62.72,44.72,62.77,93.25.03,25.75.32,51.54-.99,77.24-2.26,44.46-27.5,70.05-71.74,74.04-10.09.91-20.25,1.24-30.39,1.24-152.96.08-305.92.1-458.89.03-87.43-.04-109.51-22.26-109.08-109.18.07-14.83.49-29.7-.46-44.47-2.91-45.33,19.95-74.62,59.47-90.76,48.19-19.68,97.54-36.5,146.37-54.58,22.18-8.22,39.99-1.26,53.54,16.75,17.33,23.03,33.7,46.78,50.6,70.13,8.17,11.28,16.62,22.35,25.97,34.89Z" style="fill: #100f0d; stroke-width: 0px;"/>
  <path d="M747.7,394.14c-2.04,71.69-24.07,135.51-75.68,187.56-47.28,47.68-124.81,47.55-171.95-.59-67.1-68.52-85.78-151.25-70.44-243.43,4.84-29.1,20.83-53.71,46.26-67.26,61.58-32.8,126.26-43.58,192.97-14.54,60.38,26.29,81.53,75.45,78.83,138.27Z" style="fill: #100f0d; stroke-width: 0px;"/>
  <path d="M396.06,433.48c0,21.83.07,39.77-.02,57.72-.07,12.85-5.33,22.53-17.72,27.47-13.12,5.23-25.16,3.33-33.04-8.63-5.15-7.82-12.39-8.49-19.8-10.38-31.86-8.11-51.73-31.05-52.35-60.37-.61-28.9,16.44-53.23,47.85-61.25,24.35-6.21,33.6-17.17,33.24-43.38-.67-48.71,23.51-87.59,57.89-120.69,98.43-94.76,260.52-92.49,353.73,5.82,32.7,34.49,51.01,76.13,52.2,124.14.43,17.25,7.4,26.69,24.33,31.24,38.44,10.32,57.22,32.31,56.9,64.22-.3,29.88-18.69,49.98-57.19,60.98-12.53,3.58-21.24,12.08-23.96,22.88-18.65,74.12-68.36,113.82-140.27,130.16-17.81,4.04-35.74,5.57-49.2,22.43-9.37,11.74-24.85,6.75-36.17-1.75-9.96-7.47-11.75-18.95-6.54-29.52,6.53-13.26,18.58-18.62,33.28-15.4,66.97,14.65,143.43-26.46,167.44-90.09,2.84-7.52,4.42-14.94,1.27-22.64-20.77-50.76-16.36-102.13-3.36-153.56,1.67-6.62.21-12.18-1.42-18.1-23.19-83.83-106.04-145.54-195.82-145.89-98.36-.39-170.83,51.46-197.16,140.59-3.21,10.86-3.27,19.76,1.77,30.88,9.6,21.18,1.88,44.64,4.12,63.12Z" style="fill: #100f0d; stroke-width: 0px;"/>
</svg>