<?xml version="1.0" encoding="UTF-8"?>
<svg id="Layer_1" data-name="Layer 1" xmlns="http://www.w3.org/2000/svg" viewBox="0 0 1171.88 1114.72">
  <path d="M328.32,555.06c-72.04,44.45-143.31-10.57-138.23-84.28,1.77-25.69-.07-51.61.39-77.41.67-37.71,17.33-66.28,51.75-82.36,9.52-4.45,12.59-9.14,12.92-18.92C260.11,145.89,384.02,14.23,549.41,1.48c138.79-10.7,251.66,36.11,327.6,157.15,24.84,39.59,37.89,83.64,39.87,130.59.41,9.67.96,16.87,12.43,21.85,35.18,15.26,51.27,44.4,52.28,81.84.8,29.7,1.13,59.47-.08,89.14-1.65,40.25-19.84,70.27-59.19,84.17-7.66,2.71-11.41,6.63-13.82,13.67-12.3,35.86-40.76,51.6-75.2,59.02-44.56,9.6-81.96,63.08-76.33,107.89,1.67,13.27,9.7,9.46,16.51,9.66,43.73,1.28,87.46-1.52,131.21,3.57,145.35,16.9,263.19,144.28,266.18,290.21,1.56,76.45,9.11,63.62-61.6,63.71-354.29.48-708.58.24-1062.87.19-50.34,0-43.93,4.05-46.13-45.05-6.4-142.6,99.27-274.6,245.9-306.07,48.65-10.44,98.19-5.03,147.33-6.83,9.72-.36,26.17,7.52,28.29-6.12,2.42-15.61,7.76-33.85-6-48.99q-59.49-65.48-87.49-146.03Z" style="stroke-width: 0px;"/>
  <path d="M755.35,646.93c-62.82,72.8-159,97.62-245.89,66.45-82.71-29.67-144.08-112.64-146.22-199.62-1.19-48.44.13-96.95-.9-145.39-.28-13.15,4.55-17.31,16.36-19.32,54.67-9.3,104.9-29.5,148.98-63.59,7.44-5.75,12.96-5.4,20.82-.82,76.39,44.56,158.92,67.54,247.36,69.2,7.49.14,14.02.63,13.62,11.04-2.34,60.81,5.55,121.99-5.07,182.47-10.49,59.72-14.45,62.43-74.74,62.17-24.53-.1-46.59,1.53-63.76-25.89-18-28.75-60.36-26.85-84.32-2.61-25.91,26.22-25.16,67.13,1.69,92.03,24.34,22.57,67.16,21.73,84.84-6.18,12.59-19.87,26.35-22.54,46.14-20.21,12.13,1.43,24.56.26,41.08.26Z" style="fill: #fefefe; stroke-width: 0px;"/>
  <path d="M300.65,1077.23c-80.45,0-160.91-.69-241.34.48-20.52.3-24.2-6.04-22.76-25.29,10.98-146.44,123.65-254.69,270.51-258.08,35.13-.81,70.31.4,105.43-.5,12.41-.32,16.92,4.45,21.21,15.54,20.42,52.85,57.56,88.42,113.43,101.38,16.09,3.73,20.84,10.09,20.28,26.44-1.37,39.79-1.22,79.67-.07,119.47.47,16.3-4.02,21.13-20.67,20.95-82-.86-164.02-.39-246.03-.39Z" style="fill: #fefefe; stroke-width: 0px;"/>
  <path d="M870.08,1077.23c-80.52,0-161.05-.47-241.57.37-17.47.18-24.65-3.07-23.86-22.62,1.64-40.59.89-81.29.25-121.94-.19-11.93,1.86-16.8,15.51-19.23,60.85-10.85,102.52-46.48,125.84-103.59,3.16-7.74,3.67-16.73,16.02-16.24,54.52,2.16,109.23-4.01,163.49,8.18,118.85,26.71,209.27,138.64,210.27,260.77.14,17.41-10.04,14.22-19.68,14.23-82.09.1-164.18.06-246.27.06Z" style="fill: #fefefe; stroke-width: 0px;"/>
  <path d="M589.52,120.33c104.41,2.68,194.93,77.03,214.84,175.71,3.15,15.6,1.48,21.3-16.88,20.31-80.96-4.39-156.61-25.87-225.57-68.46-20.41-12.6-34.19-12.69-52.91,4.51-34.63,31.82-79.33,44.99-123.89,57.22-18.96,5.21-20.31-2.85-16.85-18.43,21.8-98.14,119.07-173.48,221.25-170.86Z" style="fill: #fefefe; stroke-width: 0px;"/>
  <path d="M324.57,317.41q-36.54-15.19-29.21-52.71c24.44-125.18,132.71-218.84,260.95-226.42,106.07-6.27,197.15,23.76,266.32,108.04,30.97,37.74,47.45,81.39,56.35,129.19,5.08,27.29-8.01,36.26-32.17,41.11-11.76-79.94-48.84-146.01-118.11-191.22-49.9-32.57-105.1-46.58-164.73-41.61-101.33,8.44-214.9,79.36-239.4,233.63Z" style="fill: #fefefe; stroke-width: 0px;"/>
  <path d="M461.9,734.45c88.51,40.43,167.86,41.43,257.11.1,3.78,52.14-13.61,94.23-56.53,122.62-43.98,29.08-92.34,30.1-137.64,4.68-47.8-26.82-68.27-70.67-62.93-127.4Z" style="fill: #fefefe; stroke-width: 0px;"/>
  <path d="M324.89,438.58c0,14.8.65,29.64-.14,44.4-1.6,29.79-21.26,49.56-48.29,49.55-26.33,0-46.34-18.54-47.64-47.44-1.43-31.88-1.4-63.91-.06-95.8,1.19-28.49,21.48-47.1,47.92-47.07,26.19.03,45.89,18.83,47.89,47.29,1.14,16.28.21,32.71.21,49.07.04,0,.08,0,.12,0Z" style="fill: #fdfdfd; stroke-width: 0px;"/>
  <path d="M943.56,439.03c0,15.58,1.08,31.25-.23,46.71-2.43,28.75-22.05,46.97-48.42,46.73-26.17-.24-46.2-19.27-47.28-47.8-1.22-31.89-1.23-63.9.01-95.79,1.06-27.14,20.8-45.82,45.99-46.54,26.02-.74,45.07,15.8,49.43,42.98.37,2.3.68,4.64.69,6.96.06,15.58.03,31.16.03,46.74-.07,0-.14,0-.21,0Z" style="fill: #fdfdfd; stroke-width: 0px;"/>
  <path d="M646.3,624.8c-.45,14.71-8.05,24.47-22.39,24.83-14.42.36-23.17-9.16-23.22-23.71-.04-14.09,7.22-24.36,22.22-24.66,14.91-.3,22.08,9.27,23.39,23.54Z" style="fill: #fcfcfc; stroke-width: 0px;"/>
  <path d="M843.22,553.07c8.44,8.85,27.72,8.66,25.03,20.03-3.51,14.83-20.13,22.07-38.13,26.92,4.49-16.09,8.55-30.61,13.11-46.95Z" style="fill: #f4f4f4; stroke-width: 0px;"/>
</svg>