<?xml version="1.0" encoding="UTF-8"?>
<svg id="Layer_1" data-name="Layer 1" xmlns="http://www.w3.org/2000/svg" viewBox="0 0 1154.21 1155.83">
  <path d="M.33,576.3C-10.73,272.61,256.14-1.15,576.95,0c319.98,1.15,577.3,269.47,577.26,578.33-.04,305.34-253.15,576.47-577.91,577.49C268.14,1156.79-7.9,899.84.33,576.3Z" style="stroke-width: 0px;"/>
  <path d="M443.23,914.91c-91.81-1.86-171.77-4.23-251.68-8.56-21.29-1.15-29.7-9.3-31.98-29.79-7.06-63.44,13.13-98.84,72.14-123.04,27.79-11.4,57.24-17.21,86.01-25.33,9.57-2.7,19.35-5.32,28.23-9.63,21.83-10.57,26.83-28.88,13.48-49.02-11.58-17.48-19.82-36.41-25.26-56.44-3.69-13.58-8.47-25.51-19.45-35.42-10.27-9.27-17.16-21.68-18.92-36.03-.45-3.69-1.32-10.18.09-10.82,23.19-10.55,11.22-29.42,10.2-44.68-7.11-106.78,76.94-132.71,151.95-120.34,25.19,4.16,47.77,17.18,68.87,31.05,33.13,21.78,41.38,55.2,39.53,92.75-.39,7.84-5.37,20.64,9.92,20.99,14.62.34,8.9-12.33,11.88-20.06,14.27-37.1-1.52-66.4-23.39-93.79-25.85-32.38-59.37-53.34-100.53-60.06-88.21-14.4-168.4,34.17-189.71,112.79-3.73,13.75,5.58,23.2,5.42,35.28-.39,28.46-.19,56.94-.04,85.41.05,10.02-2.6,18.56-12.61,22.44-9.84,3.82-20.46,5.05-26.68-5.53-5.41-9.21-14.7-7.16-22.09-10.01-24.96-9.63-38.51-27.66-37.48-51.98.94-22.33,16.02-40.33,41.09-46.23,14.34-3.38,24.09-9.24,23.93-25.18-.65-62.39,32.86-105.11,83.48-133.79,68.11-38.6,139.26-41.24,208.61-1.79,49.07,27.92,78.29,70.63,82.98,127.84,1.49,18.17,6.68,29.4,26.74,33.38,24.1,4.78,39.12,24.69,40.28,47.38,1.03,20.23-12.82,41.5-35.96,48.3-22.3,6.56-32.94,17.59-32.3,41.88.53,20.31-11.33,35.83-28.07,47.65-18.03,12.73-38.65,18.12-59.4,23.88-6.61,1.84-17.34,1.15-17.74,11.51-.37,9.75,8.44,14.25,15.86,17.82,21.63,10.42,45.3,14.17,68.49,19.24,18.07,3.95,35.55,9.26,52.3,17.2,55.16,26.15,75.74,65.67,64.97,125.44-4.09,22.69-14.96,31.28-42.74,32.82-80.7,4.48-161.46,4.49-230.4,2.44Z" style="fill: #fefefe; stroke-width: 0px;"/>
  <path d="M530.8,700.1c17.68-5.32,32.27-9.08,46.42-14.09,33.48-11.86,53.15-34.74,56.1-71.15,1.36-16.74,16.86-24.32,32.16-14.96,19.88,12.17,40.77,21.15,63.42,25.99,5.66,1.21,9.27,4.03,13.33,7.85,20.74,19.5,40.13,21.82,64.83,9.4,33.24-16.72,71.61-15.79,105.75-29.95,4.11-1.7,11.55,2.82,16.7,5.76,28.88,16.46,49.7,40.66,64.86,69.85,12.04,23.18,20.44,47.91,27.78,72.85,6.59,22.41-2.39,35.52-24.89,35.4-83.83-.43-167.42,5.1-251.07,8.94-12.63.58-20.65-2.54-27.62-14.32-21.14-35.75-57.04-49.1-94.83-59.18-30.68-8.18-64.03-8.84-92.94-32.41Z" style="fill: #fefefe; stroke-width: 0px;"/>
  <path d="M894.54,423.42c-.25,36.85-3.82,67.56-19.87,96.15-17.99,32.04-44.73,47.02-80.85,46.13-14.3-.35-26.63,2.91-38.62,11.66-16.77,12.22-31.04-.41-45.67-7.62-14.55-7.17-7.19-16.66-4.09-26.5,10.27-32.57-6.15-64.82-39.98-73.68-21.4-5.61-26.49-17.12-27.11-37.68-1.2-39.81,5.95-76.13,31.03-108,52.86-67.15,150.14-63.96,198.34,6.76,20.11,29.51,29.96,61.97,26.82,92.78Z" style="fill: #fefefe; stroke-width: 0px;"/>
  <path d="M620.37,364.72q-30.13-35.12-7.65-72.43c37.32-61.84,115.92-95.14,189.58-80.33,77.85,15.66,134.31,72.4,145.96,146.64,2.9,18.5,5.6,34.67,30.63,38.29,22.56,3.26,38.1,28.5,36.78,49.65-1.37,21.93-18.56,42.39-41.67,46.07-18.63,2.97-25.34,11.94-25.12,30.44.4,33.45-19.92,53.37-48.24,66.43-19.59,9.03-40.65,13.78-61.64,18.2-15.73,3.31-31.05,5.31-44,17.32-8.52,7.91-21.1,9.85-31.62.43-7.26-6.5-12.62-14.57-7.37-24.32,6.77-12.58,18.31-14.74,31.7-12.35,39.44,7.04,75.75-5.75,110.16-21.74,27.6-12.82,30.61-35.5,22.14-65.93-9.94-35.72-6.45-73.21-2.24-109.67,1.16-10.02,2.85-18.71-.4-28.46-21.48-64.45-75.42-105.28-142.84-107.72-64.86-2.35-123.56,35.46-149.1,96.08-1.45,3.44-2.65,6.98-5.05,13.38Z" style="fill: #fefefe; stroke-width: 0px;"/>
  <path d="M563.41,648.72c10.61-7.2,18.7-17.06,28.23-29.54,2.41,20.91-7.81,29.21-22.2,34.65-2.27-1.4-5.4-1.77-6.03-5.1Z" style="fill: #282828; stroke-width: 0px;"/>
  <path d="M563.41,648.72c2.01,1.7,4.02,3.4,6.03,5.1-8,5.54-16.01,11.05-27.76,8.47,4.64-9.8,13.73-10.84,21.73-13.58Z" style="fill: #111; stroke-width: 0px;"/>
</svg>