<?xml version="1.0" encoding="UTF-8"?>
<svg id="Layer_1" data-name="Layer 1" xmlns="http://www.w3.org/2000/svg" viewBox="0 0 1073.01 1192.74">
  <path d="M539.67,0c195.21,13.45,370.17,77.59,518.53,208.37,13.56,11.95,16.07,26.46,14.32,43.1-10.99,104.73-34.92,206.8-63.4,307.9-62.92,223.28-180.82,412.07-355.43,565.16-25.24,22.13-53.69,39.54-82.04,57.28-24.46,15.3-46.74,13.93-71.38-.3-85.73-49.5-151.22-120.72-214.3-195.04C147.4,823.22,73.25,630.63,29.4,424.38c-11.07-52.07-18.48-104.91-27.78-157.37-4.76-26.85.5-48.4,22.68-67.87C122.09,113.38,235.85,59.54,360.48,26.72,419.05,11.3,478.36-.02,539.67,0Z" style="stroke-width: 0px;"/>
  <path d="M533.13,62.85c105.48,6.23,206.49,32.28,302.86,76.3,58.09,26.53,112.49,59.29,160.63,101.74,6.47,5.71,12.92,10.12,11.22,21.43-27.44,181.72-69.32,359.42-159.48,521.42-69.11,124.17-157.07,234.06-273.03,318.41-45.03,32.76-33.71,34.16-78.57-.48-178.17-137.56-295.35-317.5-362.31-531.4-29.76-95.05-51.19-191.93-66.4-290.29-2.94-19-1.6-34.02,15.88-47.69C215.92,128.97,366.97,77.3,533.13,62.85Z" style="fill: #fefefe; stroke-width: 0px;"/>
  <path d="M535.92,731.72c-43.78,0-87.56.19-131.33-.06-31.07-.18-41.55-10.52-41.64-41.67-.24-79.6-.25-159.19.01-238.79.09-28.3,12.11-41.16,40.58-41.33,88.35-.54,176.7-.47,265.05-.05,28.22.13,42.15,12.79,42.41,40.39.78,81.18.75,162.38.01,243.56-.24,26.61-13.46,37.69-41.37,37.87-44.57.3-89.15.08-133.72.08Z" style="stroke-width: 0px;"/>
  <path d="M412.09,365.03c.02-72.36,52.43-127.79,121.86-128.88,71.14-1.12,125.81,52.75,125.79,126.55,0,10.31,15.01,30.61-14.34,33.39-27.87,2.64-23.58-13.31-23.73-29.89-.39-43.16-20.5-72.51-58.31-86.42-31.2-11.49-67.39-1.61-90.74,24.67-16.91,19.03-21.4,42-21.23,66.45.09,13.11,3.85,25.32-18.87,25.45-23.37.13-21.33-11.87-20.46-26.55.09-1.59.01-3.18.01-4.77Z" style="stroke-width: 0px;"/>
  <path d="M404.47,748.17h262.3c-2.49,13.31-12.29,13.82-21.17,13.85-72.42.24-144.84.15-217.26.11-8.84,0-17.02-1.56-23.87-13.97Z" style="fill: #0f0f0f; stroke-width: 0px;"/>
  <path d="M534.86,672.7q-32.17-.02-24.81-31.86c2.48-10.82,3.95-21.93,7.13-32.52,3.64-12.09,3.51-20.93-6.71-31.49-13.57-14.03-10.64-31.17,3.83-44.26,13.64-12.34,29.49-12.28,43.45-.99,15.1,12.21,18.55,30.15,6.09,44.2-11.75,13.25-10.34,24.76-6.18,38.75,2.26,7.58,3.64,15.43,5.42,23.16q8.06,35.03-28.24,35.02Z" style="fill: #fdfdfd; stroke-width: 0px;"/>
</svg>