<?xml version="1.0" encoding="UTF-8"?>
<svg id="Layer_1" data-name="Layer 1" xmlns="http://www.w3.org/2000/svg" viewBox="0 0 1245.99 621.18">
  <path d="M558.1.34c110.78,0,221.56.34,332.33-.34,18.43-.11,24.94,1.75,22.24,23.86-18.7,152.79-35.45,305.82-52.86,458.77-.94,8.27-3.04,16.47-3.25,24.73-.29,11.23-6.01,13.21-15.95,13.19-113.28-.27-226.55-.21-339.83-.1-8.94,0-15.63.29-15.87-12.48-.95-50.39-24.8-86.34-73.29-101.24-53.39-16.42-98.07,2.47-134.83,42.03-14.89,16.02-26.1,35.16-29.99,56.67-2.45,13.54-8.7,15.37-20.01,15.12-23.31-.53-46.68-.96-69.95.13-14.57.68-18.77-4-16.97-18.38,6.39-51.19,10.94-102.63,18.17-153.69,2.86-20.18,2.42-29.91-22.76-28-33.95,2.59-68.25.94-102.4.5C18.76,320.93.04,325.98,0,302.12c-.04-23.53,17.02-25.1,34.87-25.08,84.12.08,168.25.04,252.37.03,6.66,0,13.35.17,19.98-.32,13.48-1.01,22.31-8.47,22.53-21.91.24-14.63-9.72-19.5-23.38-19.43-44.14.21-88.29.32-132.43-.08-15.93-.14-37.6,4.57-38.41-19.82-.82-24.55,19.45-24.36,37.8-24.31,83.29.21,166.58.11,249.88.06,7.48,0,15.34.87,22.35-1.1,11.27-3.16,18.99-11.51,18.15-23.71-.86-12.47-9.05-19.06-21.84-19.2-6.66-.07-13.33-.1-19.99-.1-106.61,0-213.23.03-319.84-.05-14-.01-31.41,2.46-31.18-18.53.21-19.19,14.68-23.34,31.62-23.24,59.14.34,118.27.21,177.41.03,8.23-.03,16.83-.07,24.59-2.37,12.1-3.59,20.65-11.75,18.24-25.72-2.26-13.13-12.02-16.22-24.2-16.07-29.98.37-59.98-.35-89.95.33-13.03.3-19.2-.97-16.71-17.27C198.54.47,197.67.34,243.26.34c104.95,0,209.9,0,314.84,0Z" style="fill: #231f20; stroke-width: 0px;"/>
  <path d="M870.17,488.21c13.21-116.53,27.16-237.95,40.48-359.44,1.49-13.56,6.25-17.94,20.06-17.77,59.08.74,118.18.7,177.26-.01,11.81-.14,17.65,4.84,23.77,13.63,34.66,49.79,69.6,99.39,105.05,148.62,6.74,9.36,10.2,18.42,8.96,29.86-7.33,67.77-14.51,135.56-21.47,203.37-1.04,10.17-5.27,14.79-15.88,14.07-9.94-.68-19.98-.51-29.95-.03-9.03.43-13.22-1.83-13.44-12.26-1.06-50.29-24.52-86.3-73.07-101.21-54.4-16.71-99.56,2.42-136.44,43.36-11.71,12.99-22.87,27.73-25.32,45.15-3.2,22.74-15.37,26.45-35.38,25.27-27.54-1.62-27.61-.41-24.63-32.58Z" style="fill: #231f20; stroke-width: 0px;"/>
  <path d="M1032.46,621.18c-53.26-.03-92.17-37.85-92.33-89.74-.18-60.29,56.09-114.44,118.64-114.18,49.26.21,89.59,41.11,90.1,91.38.6,59.43-54.37,112.57-116.42,112.54Z" style="fill: #231f20; stroke-width: 0px;"/>
  <path d="M351.86,621.18c-52.91-.08-91.79-38.45-91.61-90.4.21-60.33,56.92-114.4,119.23-113.69,48.46.55,89.4,42.78,89.44,92.25.04,60.05-54.26,111.94-117.06,111.84Z" style="fill: #231f20; stroke-width: 0px;"/>
  <path d="M1183.71,290.42c-79.49,0-152.79-.18-226.08.18-11.95.06-18.45-1.09-16.15-16.14,5.26-34.54,9.49-69.28,12.67-104.08,1.16-12.75,5.18-17.04,18.02-16.75,34.14.76,68.31.28,102.47.24,6.77,0,13.04.33,17.58,6.8,29.41,41.93,59.02,83.73,91.5,129.75Z" style="fill: #fefefe; stroke-width: 0px;"/>
  <path d="M1038.6,570.35c-26.67-.2-45.31-18.96-44.99-45.28.37-29.24,26.6-54.55,56.42-54.42,26.47.12,45.78,19.47,45.16,45.24-.71,29.47-26.91,54.68-56.59,54.46Z" style="fill: #fdfdfd; stroke-width: 0px;"/>
  <path d="M359.89,570.35c-26.84.39-45.88-17.76-46.16-44.02-.31-29.43,25.19-55.21,55.08-55.7,26.52-.43,46.39,18.39,46.46,43.99.08,29.27-25.78,55.29-55.39,55.72Z" style="fill: #fdfdfd; stroke-width: 0px;"/>
  <path d="M1061.46,520.4c-1.84,10.76-8.49,16.89-20.37,16.3-10.26-.51-15.57-7.42-14.37-16.49,1.44-10.86,9.21-18.16,20.69-17.59,9.57.48,14.47,7.1,14.05,17.78Z" style="fill: #322e2f; stroke-width: 0px;"/>
  <path d="M362.38,536.89c-10.5-.57-16.43-6.61-15.66-15.88.91-11.01,8.46-18.36,19.89-18.4,9.66-.03,15.49,6.37,14.83,16.11-.77,11.51-7.56,17.92-19.06,18.16Z" style="fill: #322e2f; stroke-width: 0px;"/>
</svg>