<?xml version="1.0" encoding="UTF-8"?>
<svg id="Layer_1" data-name="Layer 1" xmlns="http://www.w3.org/2000/svg" viewBox="0 0 1155.33 559.85">
  <path d="M477.6.07c77.73,0,155.47-.06,233.2.07,12.3.02,24.73-.04,36.87,1.59,30.34,4.08,46.96,22.19,47.03,52.84.32,135.46-.17,270.92.34,406.37.06,16.75-6.16,20.81-21.7,20.63-60.79-.69-121.61.1-182.4-.56-14.02-.15-21.5,2.75-26.73,17.56-13.31,37.72-46.84,61.62-83.8,61.02-40.78-.66-71.03-19.38-85.32-58.36-5.8-15.84-13.88-22.13-30.3-20.15-9.86,1.19-20,.52-29.99.15-34.7-1.27-55.53-22.42-55.62-57.08-.16-59.26.37-118.53,0-177.79-.08-12.64,1.27-19.83,17.05-19.59,16.01.24,14.4,9.28,14.38,19.61-.14,57.72.59,115.46-.4,173.17-.36,21.07,8.32,29.69,28.3,29.41,8.46-.12,17.02-.8,25.38.15,16.28,1.86,24.44-4.38,30.47-20.26,13.75-36.27,41.08-56.61,80.58-58.19,41.63-1.66,71.59,18.1,87.5,55.24,7.83,18.27,17.83,23.61,36.03,23.31,47.71-.78,95.44-.7,143.15-.03,16.83.24,22.49-5.58,22.4-22.84-.66-119.29-.24-238.59-.44-357.89-.05-30.53-5.85-36.55-36.71-36.6-131.6-.24-263.2.15-394.8-.27-17.11-.05-23.89,6-21.7,22.94.88,6.81-.44,13.9.29,20.75,1.37,12.9-5.1,15.46-16.4,15.29-10.32-.15-14.57-2.53-15.24-14.14-2.62-45.54-3.12-45.5-47.91-44.61-4.62.09-9.24.05-13.85.01-11.05-.07-21.16.69-21.52-16.07C195.35-1.6,205.69.04,216.69.04c86.97.05,173.94.03,260.91.03Z" style="stroke-width: 0px;"/>
  <path d="M816.91,299.55c0-52.32-.2-104.65.06-156.97.2-40.68,16.21-57.21,57.25-58.09,36.14-.77,72.3-.03,108.45-.31,20.57-.16,37.3,8.02,51.04,22.6,34.96,37.07,63.92,78.69,90.34,122.06,17.83,29.27,13.35,62.23,14.42,94.37.49,14.69,4.02,28.52,9.36,43.32,9.8,27.18,11.17,61.2-2.96,89.71-11.69,23.58-36.39,26.22-60.26,24.89-15.41-.86-24.51,2.22-30.28,19.45-12.13,36.19-40.46,55.62-77.86,58.87-39.08,3.39-71.38-13.54-86.26-48.92-10.96-26.06-25.63-32.95-50.08-29.15-18.03,2.8-23.8-3.97-23.37-22.53,1.23-53.07.43-106.18.43-159.27h-.27Z" style="stroke-width: 0px;"/>
  <path d="M363.95,105.56c48.44,0,96.88.27,145.32-.18,12.73-.12,19.6,1.93,19.52,17.39-.08,16.62-10.16,13.74-19.78,13.74-96.88.02-193.76.11-290.64-.14-9.12-.02-21.03,3.46-22.53-12.32-1.32-13.96,3.84-18.95,18.17-18.76,49.97.69,99.95.27,149.93.27Z" style="fill: #050505; stroke-width: 0px;"/>
  <path d="M253.02,214.98c-34.51,0-69.03-.09-103.54.05-10.83.04-21.13,2.26-20.85-15.24.25-16.08,9.55-14.12,19.57-14.11,71.33.07,142.66.12,213.98-.05,10.7-.02,18.92-.65,18.54,15.1-.39,15.96-9.57,14.27-19.56,14.26-36.05-.04-72.09-.02-108.14-.02Z" style="stroke-width: 0px;"/>
  <path d="M160.42.18c11.15.07,16.47,6.36,15.33,17.39-1.12,10.93-8.54,16.32-18.96,15.4-10.5-.93-16.44-7.68-15.87-18.62.63-12.09,8.87-14.66,19.5-14.17Z" style="fill: #121212; stroke-width: 0px;"/>
  <path d="M158.35,120.24c.13,12.18-5.59,17.68-16.68,17.89-10.84.21-17.31-4.29-17.45-15.93-.13-11.21,5.82-17.41,16.41-17.54,10.23-.13,17.21,5.2,17.71,15.59Z" style="fill: #080808; stroke-width: 0px;"/>
  <path d="M16.3,182.76c9.7,1.25,16.67,6.09,16.81,17.29.14,11.12-6.44,17.2-16.85,17.65C5.27,218.18.05,212.09,0,200.61c-.05-11.21,4.38-17.22,16.3-17.86Z" style="fill: #111; stroke-width: 0px;"/>
  <path d="M73.75,217.93c-9.48-1.58-16.9-5.27-17.09-17.14-.19-11.68,6.54-17.32,16.68-17.67,10.32-.36,17.14,5.21,17.33,16.8.19,11.42-5.97,16.58-16.92,18.01Z" style="fill: #0a0a0a; stroke-width: 0px;"/>
  <path d="M92.57.3c10.72-.17,16.16,5.1,15.49,16.92-.61,10.7-7.4,15.41-16.42,15.58-10.3.19-17.07-5.08-17.3-16.9-.25-12.58,6.84-15.86,18.24-15.6Z" style="fill: #090909; stroke-width: 0px;"/>
  <path d="M538.27,466.43c-.31,35.49-25.9,61.26-61.2,61.63-30.67.33-58.6-29.72-58.17-62.59.45-35.15,27.02-63.66,59.38-63.71,35.29-.05,60.33,26.94,60,64.67Z" style="fill: #fdfdfd; stroke-width: 0px;"/>
  <path d="M1023.85,147.21c-22.74,0-41.88-.29-61.01.06-36.6.67-53.67,17.05-55,53.19-.65,17.65-.74,35.37.02,53.01,1.51,34.9,18.55,51.66,53.84,52.18,41.49.61,83.02.96,124.49-.24,17.63-.51,23.2,5.93,22.32,22.52-.9,16.86.42,33.83-.34,50.7-.73,15.95,17.74,25.57,12.17,43.71-3.29,10.73.2,25.19-16.65,24.65-16.43-.52-37.8,13.37-47.02-13.3-14.12-40.86-42.99-63.63-85.93-63.83-42.73-.21-72.72,21.78-87.41,62.22-4.9,13.5-13.7,18.1-26.22,16.46-13.71-1.79-9.87-13.45-9.89-21.94-.19-92.99-.22-185.99-.08-278.98.04-26.16,4.49-30.29,31.22-30.38,33.05-.12,66.12.78,99.13-.32,21.12-.7,34.45,8.55,46.35,30.28Z" style="fill: #fefefe; stroke-width: 0px;"/>
  <path d="M1026.1,274.79c-21.53,0-43.07-.18-64.6.07-13.43.16-20-6.38-20.18-19.44-.26-18.45-.25-36.9-.26-55.35-.01-15.1,7.18-22.41,22.72-22.14,23.84.42,47.68.21,71.53.04,7.17-.05,14.55.34,18.81,6.47,16.58,23.86,36.11,45.75,47.34,73.22,5.07,12.4,2.14,17.29-10.75,17.29-21.54,0-43.07,0-64.61,0,0-.05,0-.1,0-.15Z" style="fill: #fdfdfd; stroke-width: 0px;"/>
  <path d="M910.78,463c.33-35.78,25.4-61.25,60.32-61.27,31.37-.02,58.58,28.61,58.56,61.6-.02,35.19-26.11,63.45-58.9,63.81-35.06.38-60.33-26.65-59.98-64.15Z" style="fill: #fdfdfd; stroke-width: 0px;"/>
  <path d="M475.04,488.84c-12.44-.75-20.61-8.13-20.98-22.7-.39-15.32,7.28-24.84,22.79-25.44,15-.57,25.15,7.26,25.97,22.67.92,17.14-10.21,24.01-27.79,25.46Z" style="fill: #040404; stroke-width: 0px;"/>
  <path d="M971.32,488.42c-16.48-.56-25.06-8.48-25.16-24.14-.1-15.84,8.93-23.92,24.17-24.2,15.7-.29,24.12,8.7,24.09,24.05-.04,15.26-8.22,23.95-23.1,24.3Z" style="fill: #030303; stroke-width: 0px;"/>
</svg>