<?xml version="1.0" encoding="UTF-8"?>
<svg id="Layer_1" data-name="Layer 1" xmlns="http://www.w3.org/2000/svg" viewBox="0 0 1139.19 1140.66">
  <path d="M.31,566.01C-10.03,278.81,241.77,1.68,565.17,0c309.18-1.6,569.69,253.32,573.97,564.08,4.13,300.56-246.2,574.05-566.13,576.56C263.01,1143.07-9.35,884.83.31,566.01Z" style="stroke-width: 0px;"/>
  <path d="M567.15,75.83c269.89-2.42,493.49,219.23,496.42,492.09,2.89,269.26-220.24,495.84-491.65,496.75-280.91.94-504.06-225.73-497.83-510.55,5.44-248.41,210.64-475.76,493.06-478.3Z" style="fill: #fefefe; stroke-width: 0px;"/>
  <path d="M447.16,817.73c-26.5.76-46.25-26.92-36.77-51.84,2.14-5.62,5.12-10.96,8.14-16.19,71.84-124.43,143.72-248.84,215.71-373.17,4.14-7.15,8.47-14.59,14.27-20.32,12.93-12.78,28.79-13.83,43.84-5.06,14.96,8.73,22.27,22.8,17.43,40.5-2.16,7.88-6.05,15.47-10.15,22.61-71.66,124.54-143.54,248.95-215.16,373.51-8.67,15.08-18.79,27.55-37.32,29.96Z" style="stroke-width: 0px;"/>
  <path d="M730.95,590.15c64.39.07,113.41,49.11,113.78,113.82.35,61.73-52.54,114.23-114.97,114.13-63.99-.11-112.87-51.03-112.99-117.72-.11-62.39,49.52-110.31,114.18-110.23Z" style="stroke-width: 0px;"/>
  <path d="M407.81,550.65c-64.9.31-114.35-49.64-114.49-115.64-.14-61.31,51.56-112.13,113.98-112.07,62.54.06,113.73,51.73,114.04,115.1.3,61.09-51.34,112.32-113.53,112.61Z" style="stroke-width: 0px;"/>
  <path d="M730.23,664.96c19.81-.23,37.17,16.9,37.8,37.29.69,22.48-14.95,38.91-37.21,39.1-22.2.19-37.96-15.92-37.82-38.64.13-20.37,17.05-37.52,37.24-37.75Z" style="fill: #fdfdfd; stroke-width: 0px;"/>
  <path d="M444.66,437.96c-.18,21.14-16.49,36.86-38.04,36.67-21.54-.2-36.87-15.89-36.84-37.7.02-20.6,17.24-37.57,37.85-37.29,20.51.28,37.21,17.57,37.04,38.32Z" style="fill: #fdfdfd; stroke-width: 0px;"/>
</svg>