<?xml version="1.0" encoding="UTF-8"?>
<svg id="Layer_1" data-name="Layer 1" xmlns="http://www.w3.org/2000/svg" viewBox="0 0 1198.04 1199.43">
  <path d="M1197.86,601.09c7.12,316.82-261.84,597.65-598.97,598.33C281.84,1200.07-.45,935.17,0,594.68.42,281.65,268.47-1.63,601.49,0c331.23,1.63,604.58,279.92,596.36,601.08Z" style="fill: #231f20; stroke-width: 0px;"/>
  <path d="M597.62,999.94c-64.36-.09-58.29,5.75-57.18-57.75.33-18.78-5.81-24.46-23.43-29.67-61.76-18.24-113.41-53.34-156.07-101.75-10.05-11.41-9.13-20.61,1.7-30.69,23.97-22.27,47.88-44.63,71.08-67.69,11.57-11.5,21-10.28,32.99-.61,26.59,21.44,51.82,44.88,84.24,58.14,28.5,11.65,57.38,13.35,86.52,4.58,21.38-6.44,35.01-20.27,38.43-43.86,3.32-22.9-8.95-35.5-25.68-46.96-24.1-16.51-52.21-23.12-78.86-33.4-43.89-16.94-87.12-35.04-123.93-65.5-107.4-88.87-84.77-244.11,45.72-291.95,37.88-13.89,54.17-29.2,47.16-68.66-2.93-16.49,6.62-24.97,23.94-24.62,23.14.46,46.29.08,69.44.13,17.68.03,28.5,8.83,25.3,26.56-6.7,37.14,7.33,53.71,44.56,62.37,40.41,9.4,75.48,33,105.91,62.44,15.02,14.53,16.49,27.75,1.89,42.99-20.43,21.32-40.88,42.65-60.59,64.62-13.21,14.73-25.48,13.14-39.07,1.1-20.37-18.05-42.07-33.75-68.63-42.22-23.78-7.59-46.63-7.8-70.13.9-15.82,5.86-25.58,16.05-27.76,32.51-2.21,16.72,5.42,29.33,19.22,38.31,18.85,12.27,39.88,19.58,60.93,27,42.74,15.06,85.55,29.68,126.37,49.96,134.11,66.65,117.94,243.78,7.18,314.77-25.85,16.57-53.19,29.44-83.04,35.15-14.77,2.82-16.86,9.13-16.7,22.01.87,68.96,4.8,61.54-61.5,61.8Z" style="fill: #fefefe; stroke-width: 0px;"/>
</svg>