<?xml version="1.0" encoding="UTF-8"?>
<svg id="Layer_1" data-name="Layer 1" xmlns="http://www.w3.org/2000/svg" viewBox="0 0 1192.61 1191.73">
  <path d="M594.77,1191.63C273.43,1197.82-10.68,923.03.31,571.6,9.62,273.84,266.84-2.38,601.18.02c325.37,2.33,594.59,276.24,591.41,603.3-3.12,320.68-271.52,594.37-597.81,588.31Z" style="stroke-width: 0px;"/>
  <path d="M580.94,47.4c292.13-9.11,556.88,220.42,564.29,539.15,6.61,284.46-212.09,542.41-523.13,558.09-312.63,15.75-561.58-229.33-574.84-528.04C34.19,322.45,268.78,56.33,580.94,47.4Z" style="fill: #fefefe; stroke-width: 0px;"/>
  <path d="M572.55,735.57c0-38.13-.72-76.27.37-114.37.4-14.16-4.89-19.47-17.78-22.23-26.32-5.64-52.32-12.68-77.13-23.45-64.32-27.93-97.09-77.23-96.72-147.11.37-70.74,33.43-122.19,96.36-154.48,20.72-10.63,42.88-17.83,65.89-18.43,24.77-.65,32.8-11.3,29.27-34.7-1.52-10.1.93-20.78-.5-30.9-2.88-20.32,5.41-24.93,24.85-24.84,18.8.09,25.09,5.1,23.55,23.95-1.55,18.91-6.18,41.38,1.83,56.17,7.94,14.65,32.98,7.34,50.19,11.82,89.42,23.29,145.34,88.16,150.33,174.18,1,17.14-2.18,25.77-21.11,22.45-5.39-.95-11.22-.91-16.63,0-17.74,2.97-22.62-4.8-24.16-21.92-6.79-75.23-52.65-124.35-120.31-132.14-14.37-1.65-20.96-.06-20.72,17.43,1.03,73.85.83,147.73.09,221.59-.15,15.13,4.92,20.01,19.53,22.84,34.95,6.77,69.17,16.49,101.74,31.67,65.16,30.37,102.69,79.2,99.76,152.8-2.97,74.71-45.52,122.74-111.24,152.25-29.11,13.07-60.09,20.69-92.18,20.54-13.48-.06-18.18,3.73-17.64,17.44.96,24.59-1.03,49.32.65,73.83,1.51,22.09-12.9,16.73-24.72,17.14-12.74.45-25.4,2.91-23.92-17.99,1.74-24.5-.41-49.25.72-73.82.65-14.12-4.04-19.75-18.05-21.38-17.26-2.01-34.53-5.35-51.28-9.99-101.28-28.02-135.74-109.79-138.85-200.67-.27-7.97,2.18-12.14,10.61-11.47,1.58.13,3.18.06,4.76-.01q42.32-2.03,47.54,39.71c9.34,74.81,51.98,119.75,126.31,135.25,14.64,3.05,19.38,1.87,18.93-14.41-1.1-38.89-.35-77.83-.35-116.75Z" style="stroke-width: 0px;"/>
  <path d="M620.56,743.42c0-37.23.77-74.48-.36-111.68-.5-16.59,5.11-18.03,19.08-14,27.35,7.88,54.5,15.89,80.02,28.86,66.57,33.85,83.35,115.65,34.53,172.53-31.5,36.7-73.93,49.34-120.5,52.33-13.67.88-12.89-7.19-12.84-16.37.18-37.23.07-74.46.07-111.69Z" style="fill: #fefefe; stroke-width: 0px;"/>
  <path d="M572.68,546.47c-16.03-4.01-29.84-6.94-43.34-10.91-66.18-19.47-94.92-60.97-86.76-124.75,8.33-65.18,52.37-106.13,117.03-109.88,9.34-.54,13.16,1,13.14,10.62-.13,77.61-.07,155.22-.07,234.93Z" style="fill: #fdfdfd; stroke-width: 0px;"/>
</svg>