<?xml version="1.0" encoding="UTF-8"?>
<svg id="Layer_1" data-name="Layer 1" xmlns="http://www.w3.org/2000/svg" viewBox="0 0 1148.12 1146.94">
  <path d="M571.42,1146.83C269.67,1153.11-11.49,892.67.36,548.96,10.16,264.96,254.83-2.64,579.89.02c310.57,2.54,573.53,265.07,568.15,586.46-4.88,291.53-251.09,566.81-576.62,560.35Z" style="stroke-width: 0px;"/>
  <path d="M54.09,569.52C53.34,299.04,275.35,56.27,571.88,54.41c274.98-1.73,519.32,216.75,521.74,516.08,2.34,289.41-227.66,519.9-514.21,523.28-279.47,3.3-524.44-219.04-525.32-524.25Z" style="fill: #fefefe; stroke-width: 0px;"/>
  <path d="M614.04,355.47c-24.45,0-48.92-.46-73.36.1-44.01,1.02-75.61,30.83-80.42,75.03-1.75,16.04-1.5,32.03.97,47.97,5.68,36.61,33.77,64.03,70.74,66.66,29.68,2.11,59.59.96,89.27,3.03,62.54,4.37,114.09,55.33,120.76,117.75,6.01,56.17.27,108.46-46.38,148.24-22.22,18.94-47.7,31.41-76.55,32.05-17.04.38-18.28,7.19-17.73,20.32.73,17.55-.85,35.23.48,52.7,1.25,16.39-2.77,25.02-20.93,21.92-4.45-.76-9.24-.68-13.72-.01-16.03,2.38-22.78-4.05-20.11-20.14.12-.74.05-1.53.01-2.29-1.35-23.46,10.09-55.68-4.5-67.99-14.01-11.82-45.13-3.34-68.74-3.77-.76-.01-1.53,0-2.29,0-32.7,0-42.37-13.96-33.71-46.86,2.8-10.65,10.26-7.27,16.28-7.3,50.44-.26,100.89.51,151.31-.39,44.42-.8,76.28-29.11,82.23-70.84,8.56-60.05-11.15-101.9-56.6-115.89-28.16-8.67-57.72-3.88-86.63-3.9-42.29-.02-78.11-14.48-105.36-46.48-42.51-49.92-44.02-108.65-24.55-166.36,18.06-53.5,60.23-83.12,117.63-87.16,11.97-.84,15.68-4.3,15.17-16.11-.89-20.6.4-41.28-.48-61.88-.55-12.74,3.26-17.05,16.58-17.24,38.11-.55,37.6-1.19,38.31,36.74.35,18.87-8.59,43.94,3.98,54.81,10.64,9.21,35.02,2.56,53.32,2.87,6.11.1,12.23.02,18.34.02,33.58,0,32.5.04,33.78,33.27.67,17.27-4.06,22.56-21.46,21.45-25.12-1.6-50.41-.41-75.63-.41v.11Z" style="stroke-width: 0px;"/>
</svg>