<?xml version="1.0" encoding="UTF-8"?>
<svg id="Layer_1" data-name="Layer 1" xmlns="http://www.w3.org/2000/svg" viewBox="0 0 1159.37 1158.27">
  <path d="M581.02.09c317.17-5.14,580.15,264.75,578.34,583.96-1.7,299.94-253.04,573.68-579.94,574.22C269.41,1158.78-7.55,897.28.16,559.85,6.71,273.17,251.59-5.8,581.02.09Z" style="stroke-width: 0px;"/>
  <path d="M105.07,575.35c-3.42-254.94,209.9-468.64,470.75-471.59,260.71-2.94,475.73,208.98,478.71,471.81,2.94,260.11-209.66,474.96-472.78,477.76-262.16,2.79-473.06-208.69-476.67-477.99Z" style="fill: #fefefe; stroke-width: 0px;"/>
  <path d="M539.92,762.29c23.92,0,47.84-.12,71.76.06,8.64.06,16.74-1.1,24.49-5.31,24.39-13.24,35.07-45.67,26.68-81.89-6.34-27.38-25.37-42.37-54.85-43.35-36.81-1.23-73.8,3.42-110.06-8.83-58.62-19.8-101.62-73.31-106.7-135.14-4.42-53.75.18-104.68,39.51-146.85,22.27-23.88,48.56-40.56,80.38-46.88,12.49-2.48,15.99-6.83,16.15-19.3.64-49.92,1.11-50.05,49.99-49.84,17.6.08,39.59-5.2,51.56,3.28,11.69,8.28,3.5,31.58,3.7,48.22.12,10.51,3.6,13.08,13.39,12.7,17.72-.68,35.51.37,53.22-.4,10.3-.45,13.18,3.08,12.93,13.12-.65,25.45-.89,50.94.07,76.37.49,13.11-3.58,17.03-16.75,16.81-46.28-.75-92.59-.43-138.88-.24-30.58.12-48.75,10.98-57.45,33.6-10.73,27.9-3.81,67.9,14.75,84.47,10.93,9.75,23.81,12.5,38.38,12.61,41.39.29,83.47-5.03,122.98,13.43,53.87,25.17,85.33,67.03,92.43,125.99,4.35,36.16,4.77,72.58-10.41,106.9-20.15,45.54-54.1,76.77-102.2,89.9-17.08,4.66-23.33,10.52-22.62,28.91,1.61,41.51.46,41.55-41.94,41.55-13.89,0-27.95-1.39-41.62.33-19.38,2.45-22.67-5.98-22.23-23.21,1.05-41.19.24-41.21-41.82-41.21q-36.75,0-36.75-37.46c0-17.75.75-35.53-.25-53.23-.7-12.52,3.86-15.76,15.81-15.37,25.43.84,50.92.26,76.38.25Z" style="stroke-width: 0px;"/>
</svg>