<?xml version="1.0" encoding="UTF-8"?>
<svg id="Layer_1" data-name="Layer 1" xmlns="http://www.w3.org/2000/svg" viewBox="0 0 596.38 1141.69">
  <path d="M245.68,1083.9c0-18.23,6.5-40.66-1.8-53.54-8.53-13.24-33.43-8.68-50.93-13.1-69.04-17.44-130.48-49.05-184.39-95.79-11.22-9.73-10.77-16.22-2.36-27.3,23-30.3,45.43-61.08,66.71-92.6,8.38-12.41,12.9-10.94,23.59-2.38,65.38,52.4,138.39,85.17,224.23,81.6,52.41-2.19,96.63-33.06,109.22-75.41,9.73-32.74,2.76-61.67-20.57-86.47-27.79-29.54-64.14-45.68-99.79-62.72-57.49-27.48-117.18-50.2-171.88-83.69C52.32,520.2.52,448.85,12.22,345.01c12.54-111.38,81.48-177.64,183.48-213.73,16.25-5.75,40.26-4.95,47.75-15.98,8.6-12.66,2.47-35.12,3.37-53.3.96-19.52-8.54-45.4,3.95-56.69,10.65-9.63,36.08-3.24,54.98-3.32,47.99-.21,47.88-.07,48.05,48.2.08,21.27-6.87,47.89,3.27,62.3,10.27,14.58,39.34,9.08,59.81,14.1,53.11,13.01,101.57,35.57,144.83,69.44,10.51,8.23,11.93,14.95,5.51,26.52-18.79,33.87-36.97,68.11-54.37,102.72-6.16,12.25-10.37,12.51-21.18,4.3-55.26-42.03-116.78-68.14-187.42-67.15-42.63.6-81.15,12.85-109.62,46.96-30.52,36.56-27.81,84.05,6.76,117,21.16,20.17,46.68,33.86,72.96,46.14,61.87,28.91,126.96,50.85,185.9,86.1,62.74,37.52,112.46,85.39,129.85,159.94,25.54,109.5-28.31,224.83-129.65,276.34-27.94,14.2-57.05,25.42-88.31,29.08-14.03,1.64-19.06,6.59-18.36,21.25,1.3,27.37-.11,54.86.61,82.28.29,10.97-3.02,14.43-14.06,14.13-26.65-.73-53.35-.78-80,.02-11.38.34-14.37-3.67-13.78-14.34.81-14.43.2-28.95.2-43.43-.35,0-.7,0-1.04,0Z" style="stroke-width: 0px;"/>
</svg>