<?xml version="1.0" encoding="UTF-8"?>
<svg id="Layer_1" data-name="Layer 1" xmlns="http://www.w3.org/2000/svg" viewBox="0 0 1168.34 1173.52">
  <path d="M.25,580.3C-8.98,283.41,251.2,1.72,579.89,0c319.96-1.67,585.59,264.73,588.42,583.44,2.68,301.46-246.44,586.63-579.26,590.04C271.18,1176.75-9.65,909.73.25,580.3Z" style="stroke-width: 0px;"/>
  <path d="M39.11,581.77C35.43,289.65,279.71,44.71,578.84,40.56c298.7-4.14,544.43,238.64,548.97,542.38,4.43,296.56-239.2,546.22-536.73,550.01-305.62,3.89-548.03-238.16-551.97-551.18Z" style="fill: #fefefe; stroke-width: 0px;"/>
  <path d="M862.19,384.88c-91.12,86.69-180.96,172.01-270.5,257.64-6.56,6.27-9.98,5.96-16.35-.13-89.58-85.58-179.42-170.87-270.36-257.33,13.06-9.89,26.58-10.89,40.4-10.89,158.84,0,317.69,0,476.53.01,13.32,0,26.43,1.03,40.28,10.7Z" style="stroke-width: 0px;"/>
  <path d="M304.52,789.1c64.16-61.14,126.83-120.55,189.01-180.48,8.55-8.25,12.74-3.78,18.75,2.06,23.43,22.78,47.12,45.29,71.26,68.44,24.22-23.2,47.93-45.71,71.36-68.5,6.08-5.91,10.28-10.12,18.75-1.95,62.18,59.93,124.84,119.35,188.31,179.83-13.01,9.9-26.61,10.85-40.44,10.85-158.67.02-317.35,0-476.02.04-13.36,0-26.28-1.46-40.98-10.29Z" style="stroke-width: 0px;"/>
  <path d="M290.12,774.26c-10.56-11.6-11.77-23.66-11.75-36.38.13-101.57.17-203.14-.06-304.7-.03-12.11,1.91-23.04,11.62-34.06,65.55,62.43,130.89,124.64,197.08,187.67-66.07,62.92-131.39,125.12-196.88,187.48Z" style="stroke-width: 0px;"/>
  <path d="M888.71,589.12c0,48.43.02,96.87-.03,145.3,0,6.23.62,12.73-.92,18.62-1.73,6.62-4.02,15.77-8.88,18.24-6.89,3.5-11.32-5.98-16.06-10.47-56.64-53.59-112.76-107.75-169.78-160.94-11.24-10.49-11.05-15.89.07-26.26,57-53.2,113.13-107.35,169.78-160.94,4.71-4.46,8.92-13.92,16.15-10.47,6.8,3.24,9.14,12.95,9.4,20.54.78,22.63.27,45.3.27,67.95,0,32.81,0,65.62,0,98.43Z" style="stroke-width: 0px;"/>
</svg>