<?xml version="1.0" encoding="UTF-8"?>
<svg id="Layer_1" data-name="Layer 1" xmlns="http://www.w3.org/2000/svg" viewBox="0 0 1147.08 1145.78">
  <path d="M573.39,1145.65C267.1,1152.52-8.94,888.95.22,553.11,7.95,270.07,250.85-.43,574.7,0c313.86.41,574.04,263.07,572.38,578.82-1.55,294.44-248.03,571.82-573.69,566.83Z" style="stroke-width: 0px;"/>
  <path d="M573.61,639.96c-94.45-89.77-188.2-179.29-282.59-268.13-14.48-13.63-5.22-17.07,6.14-19.7,8.77-2.03,18.19-1.67,27.32-1.67,166.27-.08,332.53-.12,498.8.04,14.15.01,33.74-4.22,39.47,9.47,4.31,10.3-14.16,18.91-23.07,27.41-88.23,84.23-176.88,168.03-266.07,252.58Z" style="fill: #fefefe; stroke-width: 0px;"/>
  <path d="M867.21,785.34c-14.75,10.59-28.34,11.14-42.08,11.13-167.86-.01-335.72.02-503.58-.05-13.63,0-31.23,1.86-37.05-10.76-3.47-7.53,13.04-16.32,21.03-23.97,56.25-53.78,113.07-106.96,168.99-161.07,10.39-10.05,16.33-11.22,26.69-.18,18.77,20,40.02,37.69,58.69,57.78,11.19,12.04,17.89,10.46,28.41-.61,19.95-21,41.51-40.47,62.27-60.7,5.15-5.02,8.77-9.32,16.45-1.96,66.03,63.26,132.47,126.1,200.18,190.38Z" style="fill: #fefefe; stroke-width: 0px;"/>
  <path d="M252,573.17c0-50.35,0-100.69,0-151.04,0-4.58-.06-9.16.02-13.73.21-10.93,1.35-24.47,10.12-28.92,8.05-4.09,14.38,8.85,20.75,14.84,58.87,55.42,117.11,111.51,176.35,166.53,11.4,10.58,10.04,15.68-.43,25.47-61.32,57.26-122.25,114.95-182.63,173.2-12.83,12.38-18.38,9.81-21.39-5.94-1.56-8.15-2.62-16.52-2.66-24.8-.24-51.87-.12-103.74-.12-155.62Z" style="fill: #fefefe; stroke-width: 0px;"/>
  <path d="M895.63,573.73c0,50.34,0,100.68,0,151.02,0,4.58.07,9.15-.03,13.73-.24,10.93-1.57,24.46-10.21,28.91-8.07,4.16-14.36-8.89-20.71-14.87-58.88-55.4-117.09-111.5-176.31-166.53-11.4-10.59-10.04-15.69.47-25.5,61.33-57.23,122.25-114.92,182.63-173.15,12.91-12.45,18.4-9.66,21.4,5.99,1.57,8.15,2.6,16.53,2.63,24.81.23,51.86.12,103.73.12,155.59Z" style="fill: #fefefe; stroke-width: 0px;"/>
</svg>