<?xml version="1.0" encoding="UTF-8"?>
<svg id="Layer_1" data-name="Layer 1" xmlns="http://www.w3.org/2000/svg" viewBox="0 0 1140.33 980.64">
  <path d="M568.45,979.86c-166.43,0-332.87.01-499.3,0-45.19,0-69.01-23.42-69.04-68.98C-.04,696.34-.02,481.81.09,267.28c.03-46.6,24.15-70.8,70.28-70.87,89.32-.13,178.65-.33,267.97.25,14.29.09,20.96-1.93,23.29-18.57C375.34,80.32,463.02,4.24,564.68.15c95.92-3.85,186.11,65.97,209.11,161.9q8.23,34.32,44.13,34.32c83.98,0,167.96-.1,251.94.04,44.68.08,69.94,24.48,70,69.11.27,215.29-.22,430.59.47,645.88.11,34.97-25.6,69.75-70.29,69.24-167.17-1.93-334.39-.77-501.58-.77Z" style="stroke-width: 0px;"/>
  <path d="M1076.85,946.16H63.35c20.91-18.72,38.63-34.74,56.51-50.58,102.18-90.55,204.57-180.86,306.35-271.87,11.29-10.1,18.01-11.8,29.47-.53,21.18,20.84,43.8,40.26,66.27,59.75,32.86,28.49,65.26,28.04,97.98-.84,23.45-20.69,46.93-41.34,70.05-62.41,6.54-5.96,10.9-8.05,18.8-1,121.13,108.14,242.58,215.93,368.08,327.48Z" style="fill: #fefefe; stroke-width: 0px;"/>
  <path d="M1070.58,233.85c.35,4.29-5.83,5.94-9.43,9.13-153.35,136.41-306.81,272.72-460.27,409-26.64,23.66-35.65,23.87-62.36.26C385.32,516.83,232.24,381.28,79.06,245.84c-3.84-3.39-8.32-6.07-13.27-9.63,7.77-7.43,14.1-5.32,19.62-5.33,84.71-.17,169.42.11,254.13-.35,13.38-.07,19.82,2.12,22.26,17.7,15.58,99.61,104.1,177.22,200.32,177.23,110.92.01,198.81-72.23,215.63-178.44,2.04-12.89,4.41-18.26,18.81-18.15,89.29.68,178.58.34,267.87.43,1.97,0,4.85-1.35,6.14,4.55Z" style="fill: #fefefe; stroke-width: 0px;"/>
  <path d="M36.44,923.66V251.85c30.12,26.69,57.8,51.15,85.42,75.7,93,82.68,186,165.37,278.89,248.17,6.47,5.77,18.06,9.37,4.15,21.61-122.01,107.37-243.42,215.42-368.46,326.34Z" style="fill: #fefefe; stroke-width: 0px;"/>
  <path d="M1103.8,924.15c-92.93-82.5-182.45-161.99-271.98-241.46-31.95-28.36-63.75-56.88-96.02-84.87-7.78-6.75-10.34-10.43-.89-18.77,120.71-106.46,241.01-213.38,361.45-320.14,1.52-1.35,3.58-2.09,7.44-4.27v669.5Z" style="fill: #fefefe; stroke-width: 0px;"/>
  <path d="M393.07,211.6c-.45-96.17,78.77-175.63,175.67-176.2,98.47-.58,177.63,78.93,178.11,178.91.46,96.49-78.7,176.45-174.99,176.77-101.3.33-178.31-76.96-178.79-179.47Z" style="fill: #fefefe; stroke-width: 0px;"/>
  <path d="M686.33,222.69c0,9.15.72,18.38-.15,27.45-1.93,20.1-12.63,34.85-31.95,40.34-19.03,5.41-39.34,4.92-51.91-12.92-8.24-11.69-17.63-12.42-29.19-11.7-57.09,3.59-63.46-42.78-52.73-81.2,6.34-22.7,33.45-31.71,66.27-26.08,22.7,3.9,35.59,18.26,36.89,42.32.74,13.69.38,27.45.28,41.18-.08,10.05,3.84,15.94,14.65,15.97,11.35.03,14.01-6.84,13.81-16.48-.18-9.15-.01-18.31-.04-27.46-.22-73.58-64.4-111.45-129.98-76.44-18.54,9.9-29.98,25.63-32.97,46.72-2.37,16.68-2.41,33.48-.38,50.21,3.79,31.19,24.54,53,55.4,58.16,7.49,1.25,15.14,1.81,22.73,2.04,12.47.38,21.2,5.12,20.46,18.8-.67,12.34-9.4,15.71-20.64,16.52-55.28,3.99-103.24-31.58-111.35-86.42-5.48-37.06-5.9-74.31,18.34-107.41,32.7-44.66,94.4-49.03,144.03-34.72,43.5,12.55,68.12,53.16,68.63,105.1.05,5.34,0,10.68,0,16.02-.06,0-.12,0-.18,0Z" style="stroke-width: 0px;"/>
  <path d="M571.71,232.72c-16.07,3.13-21.98-3.21-22-19.49-.01-16.32,6.67-20.97,21.94-21.11,17.69-.16,18.47,9.63,19.37,23.42,1.06,16.17-5.25,20.36-19.32,17.18Z" style="fill: #f5f5f5; stroke-width: 0px;"/>
</svg>