<?xml version="1.0" encoding="UTF-8"?>
<svg id="Layer_1" data-name="Layer 1" xmlns="http://www.w3.org/2000/svg" viewBox="0 0 1137.38 1165.16">
  <path d="M324.29,342.58c24.3,35.41,29.51,69.84,9.41,105.73-29.64,52.92-101.65,65.6-145.49,23.69-54.85-52.43-108.47-106.19-161.42-160.54-36.38-37.34-35.58-92.24,1.7-130.1,51.09-51.89,103.14-102.86,155.58-153.39,35.31-34.02,91.1-37.11,125.9-8.69,39.25,32.06,46.37,78.83,19.1,125.42-1.41,2.4-2.74,4.85-5.45,9.66,10.87,0,19.03,0,27.2,0,180.16,0,360.33-.86,540.48.35,96.41.64,173.45,39.2,222.1,125.65,12.48,22.18,20.16,46.21,21.44,71.95,2.88,57.45,3.88,115.01.04,172.34-3.06,45.61-38.77,77.91-84.68,81.81-44.99,3.82-85.81-23.36-97.85-66.33-3.04-10.86-3.6-22.66-3.72-34.05-.44-39.09-.1-78.2-.2-117.29-.07-27.95-12.52-41.88-40.44-45.57-3.03-.4-6.12-.6-9.18-.6-190.09-.03-380.18-.02-574.5-.02Z" style="stroke-width: 0px;"/>
  <path d="M810.65,1011.29c-187.56,0-373.87-.23-560.19.12-69.65.13-131.19-20.73-182.08-68.8C24.06,900.74-.1,849.69,1.23,787.44c.94-43.69.16-87.41.19-131.11.04-55.55,38.21-96.51,90.97-97.67,53.63-1.18,95.72,39.25,97.1,94.85,1.03,41.38.2,82.8.27,124.21.05,27.93,10.65,40.33,38.27,44.47,7.56,1.13,15.26,1.79,22.89,1.8,182.49.1,364.98.08,547.47.04,3.77,0,7.53-.48,11.74-.77,1.17-9.11-5.67-14.22-8.75-20.64-19.17-39.99-7.88-87.48,28.03-115.23,32.5-25.11,84.61-25.94,114.71,2.43,58,54.67,115.18,110.33,170.3,167.88,32.91,34.36,29.17,90.76-4.71,125.06-50.11,50.72-100.84,100.84-151.58,150.94-37.87,37.4-91.58,41.6-131.15,11.83-38.2-28.75-47.22-91.72-17.02-127.47.76-.9.33-2.8.68-6.77Z" style="stroke-width: 0px;"/>
  <path d="M593.69,303.92c-100.46,0-200.92-.04-301.39.06-12.01.01-25.97-2.77-32.15,11.59-6.22,14.44,5.4,22.37,13.93,30.98,4.32,4.36,8.81,8.54,13.08,12.94,25.73,26.48,27.77,59.06,5.16,81.61-24.1,24.03-56.68,23.47-83.83-2.57-31.54-30.26-62.35-61.28-93.46-91.98-19.1-18.85-38.39-37.53-57.22-56.65-24.75-25.14-27.52-54.78-3.56-79.52,52.25-53.95,105.7-106.79,159.88-158.8,21.64-20.77,57.09-18.28,77.15,1.89,20.88,20.99,21.98,52.88,1.82,76.93-8.34,9.95-18.13,18.7-27.44,27.82-6.75,6.6-9.13,14.23-5.11,22.84,3.55,7.6,10.02,11.16,18.6,10.86,6.13-.21,12.27.04,18.4.04,195.56,0,391.11-.04,586.67.03,65.53.02,123.83,18.37,169.24,68.31,26.6,29.26,43.59,63.04,44.4,103.14.99,49.06,1.5,98.15.7,147.21-.6,37.19-24.05,59.27-59.22,58.73-30.5-.47-52.64-25.21-52.96-60.15-.36-39.87-.05-79.75-.09-119.63-.05-46.92-24.24-75.79-70.67-83.65-9.75-1.65-19.83-1.91-29.76-1.92-97.39-.13-194.79-.08-292.18-.08Z" style="fill: #fefefe; stroke-width: 0px;"/>
  <path d="M541.76,973.69c-98.95,0-197.91,1.22-296.83-.4-76.26-1.25-140.42-28.7-182.15-96.64-15.99-26.04-24.25-54.37-24.33-84.96-.12-44.49-.29-88.98,0-133.46.25-36.99,23.28-61.91,56.45-61.91,32.35,0,55.5,23.34,56.51,59.62,1.09,39.09.26,78.23.28,117.35.03,53.62,31.93,88.63,85.82,88.85,204.79.82,409.59.34,614.39.31,11.25,0,21.38-2.19,26.03-14.43,4.2-11.04-3.42-17.12-9.73-23.65-6.93-7.17-14.5-13.73-21.17-21.12-23.02-25.48-23.15-58.54-.62-80.37,22.48-21.79,55.74-22.07,80.72,1.72,43.87,41.78,86.63,84.73,129.75,127.3,9.27,9.15,18.54,18.39,27.06,28.23,20.92,24.16,19.76,56.11-2.84,78.47-51.23,50.7-102.62,101.24-154.01,151.77-24.32,23.91-58.09,24.1-82.01.67-20.67-20.25-20.66-52.84.45-76.71,7.1-8.03,15.24-15.12,22.72-22.82,7.02-7.22,14.24-14.53,9.17-26.05-4.91-11.17-14.59-11.82-25.01-11.81-103.55.11-207.1.07-310.64.07Z" style="fill: #fefefe; stroke-width: 0px;"/>
</svg>