<?xml version="1.0" encoding="UTF-8"?>
<svg id="Layer_1" data-name="Layer 1" xmlns="http://www.w3.org/2000/svg" viewBox="0 0 1263.3 784.2">
  <path d="M613.86,0c281.66,8.38,490.23,124.19,636.2,352.07,17.57,27.43,17.53,52.85.61,80.76-169.74,279.98-504.91,414.31-817.97,322.92C250.95,702.7,109.97,593.02,11.48,430.11c-15.88-26.26-15.05-50.52,1.02-76.28C154.02,126.97,361.03,14.53,613.86,0Z" style="stroke-width: 0px;"/>
  <path d="M874.12,393.98c.25,132.23-109.18,241.28-242.31,241.47-135.2.19-242.43-108.44-243.02-246.19-.55-128.87,111.05-238.87,242.51-239.04,134.03-.18,242.56,108.77,242.82,243.77Z" style="fill: #fefefe; stroke-width: 0px;"/>
  <path d="M751.94,392.24c.16,66.59-52.87,120.07-119.48,120.5-66,.42-119.91-52.54-121.26-119.15-1.31-64.62,54.03-120.3,119.94-120.67,66.36-.37,120.65,53.25,120.8,119.32Z" style="stroke-width: 0px;"/>
</svg>