<?xml version="1.0" encoding="utf-8"?>
<!-- Generator: Adobe Illustrator 24.0.0, SVG Export Plug-In . SVG Version: 6.00 Build 0)  -->
<svg version="1.1" id="Layer_1" xmlns="http://www.w3.org/2000/svg" xmlns:xlink="http://www.w3.org/1999/xlink" x="0px" y="0px"
	 viewBox="0 0 1151.9 866.5" style="enable-background:new 0 0 1151.9 866.5;" xml:space="preserve">
<style type="text/css">
	.st0{fill:#050505;}
	.st1{fill:#0D0D0D;}
	.st2{fill:#040404;}
	.st3{fill:#090909;}
</style>
<path d="M1151.9,504c0.1-13.8-3.1-25.2-13.3-35.3c-73-72.8-145.8-146-218.6-219c-15.4-15.4-33.8-23.3-55.8-23.3
	c-103.2,0.1-206.3,0-309.5,0c-12.3,0-23.8,1.3-23.9,17.8c-0.1,15.9,10.7,18.8,23.2,19c21.6,0.3,43.2,1.4,64.6-0.2
	c19-1.5,24.4,4.3,24.2,23.8c-1,105.5-0.2,210.9-0.8,316.4c-0.1,14.4,2.7,19.8,18.5,19.4c47.7-1.2,95.5-0.5,143.2-0.4
	c12.3,0,24.6-0.6,25.1-16.6c0.6-17.3-12.3-18.9-25.5-18.9c-35.4,0-70.8-0.7-106.2,0.3c-14.3,0.4-17.9-3.6-17.8-17.8
	c0.7-95.5,0.8-190.9-0.1-286.4c-0.2-16.2,5.6-18.5,19.6-18.3c46.9,0.8,94,2.3,140.8-0.4c31.8-1.8,55.1,7.5,72.3,35.1l0,0
	c-1.3,1.3-1.7,2.2-2.2,2.2c-23.1,0.2-46.2,0-69.3,0.4c-35.9,0.6-46.8,11.1-47.2,47.1c-0.5,47.7-0.4,95.5-0.1,143.2
	c0.2,45,11.1,55.9,55.8,56c82.4,0.2,164.8,0.5,247.1-0.3c15.5-0.2,19.4,4.4,19,19.4c-1,40-0.3,80.1-0.3,120.1
	c0,14.1,1.3,30.7-18.6,30.5c-16.6-0.2-36.5,10-45.8-18.7c-19.6-61.3-67.7-95.1-125.1-93.7c-62.1,1.5-107.4,35.6-127.2,98
	c-3.8,12.1-9,14.7-20.6,14.6c-77.8-0.5-155.5-0.7-233.3,0.1c-14.7,0.2-19.1-5.5-23.5-18.3c-20.4-60.2-67.6-95.1-125-94.4
	c-62.3,0.7-108.3,36.4-128.7,99.2c-1.5,4.6-0.4,10.7-6.7,13.6c-27.5,12.9-54.6-4.2-54.7-35.1c-0.2-50-0.1-100.1-0.1-150.1
	c0-12.6-5.5-21.1-18.8-21.1c-13.3,0-19,8.3-19,21.1c0.1,56.2-1,112.4,0.8,168.6c1,33.8,22.8,52.7,56.8,54.4
	c9.2,0.5,18.5,0.3,27.7,0.3c5.4,0,11-0.5,12.5,6.8c5.2,25.6,18.8,47.5,35.5,70.2c-91.2,0-178.2,0.3-265.1-0.3
	c-13.3-0.1-18,2.1-18.8,17.2c-1,19.7,10.5,16.2,21.7,16.2h891.5c53.8,0,100.2-28.9,117.1-79.9c8.4-25.2,19.3-32,44.6-31
	c39.3,1.5,59.4-20.5,59.7-59.7C1152,631.8,1151.6,567.9,1151.9,504z M1113.1,507c-3.4,6.3-12.6,2.5-19.1,2.6
	c-40,0.3-79.9,0.1-119.9,0.1c-42.3,0-84.6-0.4-126.8,0.3c-11.9,0.2-15.9-3.1-15.8-15.4c0.6-46.9,0.5-93.8,0.1-140.7
	c-0.1-10.7,2.6-14.9,14.1-14.6c31.5,0.7,63,0.4,94.5,0.1c11.8-0.1,20.3,5.3,28.2,13.2c45,45.2,90.3,90.2,135.2,135.4
	C1108.6,493.3,1117.4,498.9,1113.1,507z M394.9,832.9c-50.8,0.3-93.7-43.8-94-96.7c-0.3-50.2,41.6-92.2,92.2-92.5
	c54.1-0.3,97.3,42.1,97.1,95.5C490.1,788.7,445.5,832.6,394.9,832.9z M492,830.1c14.4-20.8,27.8-39.6,31.8-62.8
	c1.2-7.1,5.7-9.8,13.1-9.7c82.2,0.2,164.4,0.2,246.6-0.1c8.7,0,11.8,3.4,13.8,11.2c5.6,21.7,15,41.7,33.7,61.4H492z M1020.5,740.1
	c-1.9,50.2-47.8,94.2-96.9,92.7c-52.1-1.6-92.7-44-91.8-96.1h0c0.9-54.2,43.6-94.4,99.1-93C979.4,645,1022.3,691.1,1020.5,740.1z"/>
<path d="M508.4,232.8C500.9,103.3,393.9-11.7,235.8,1C115.2,10.6,9.7,128.8,16.9,252c8.3,141.3,120.8,246.4,255.4,238.8
	C411.5,482.9,516.3,368.6,508.4,232.8z M265.6,452.8C143.6,450.5,52.7,359,55,240.9c2.2-114,95.7-204.7,209.8-203.5
	c116.1,1.3,207.9,95.5,206.6,212.1C470.2,359.6,373.8,454.8,265.6,452.8z"/>
<path class="st0" d="M58.6,699.1c-13.8,0-27.6,0.3-41.3-0.1c-12-0.4-17.7-6.5-17.3-19.1c0.4-11.7,6.1-16.7,17-16.8
	c27.6-0.1,55.1,0.4,82.7-0.3c14.1-0.4,11.7,9,11.2,16.8s5.2,20-10.9,19.7c-13.8-0.2-27.6,0-41.3,0C58.6,699.2,58.6,699.1,58.6,699.1
	L58.6,699.1z"/>
<path class="st1" d="M79.2,624.3c-8.4-0.4-16.9,0-25.2-1.3c-10.1-1.6-16.7-7.2-16.2-18.7c0.5-11.2,6.5-17,17.3-17.4
	c14.5-0.5,29.1,0.1,43.7-0.6c17.4-0.8,11.8,11.7,12.6,20.5c1,10.1,0.3,18.7-13.7,17.2c-6.1-0.7-12.3-0.1-18.4-0.1
	C79.3,624.1,79.3,624.2,79.2,624.3L79.2,624.3z"/>
<path class="st2" d="M87,547.6c-14.4-0.3-30.8,2.5-30.5-18.6c0.4-22.6,18.3-17.3,32.2-18.6c15.1-1.4,22.7,0.5,23,19.9
	C112,553.5,97.7,546.3,87,547.6L87,547.6z"/>
<path class="st3" d="M412.9,740.2c4.5,15.9-6.3,14.6-18,15.7c-16.9,1.6-17.4-6.7-18.4-20c-1.2-17.4,7.5-16.8,20.4-18.1
	C416.2,716,413.7,727.6,412.9,740.2L412.9,740.2z"/>
<path class="st1" d="M943.5,740.3c4.3,15.7-5.2,15.8-17.7,16.5c-15.7,0.9-18.8-4.9-19.2-19.5c-0.4-16.3,6.4-17.9,20.2-18.8
	C945.3,717.3,945.1,727.1,943.5,740.3L943.5,740.3z"/>
<path d="M288,185.1c0,0.8,0,1.5,0,2.3c0,72.8-26.3,134.2-79,183.9c-8.7,8.2-18.6,16.5-29.8,5.8c-12-11.4-4.6-22,4.8-31.5
	c17.2-17.5,33.5-36,51.4-52.7c13.5-12.6,18.3-26.9,17.9-45c-0.8-46.1-0.4-92.1-0.5-138.2c0-3.8-0.2-7.7,0-11.5
	c0.6-12.3-0.4-26.7,17.3-26.8c17.6-0.2,17.7,13.6,17.7,26.2C288.1,126.8,288,155.9,288,185.1L288,185.1z"/>
</svg>
