<?xml version="1.0" encoding="UTF-8"?>
<svg id="Layer_1" data-name="Layer 1" xmlns="http://www.w3.org/2000/svg" viewBox="0 0 1653.87 998.07">
  <path d="M805.37.4c122.86,0,245.74.92,368.59-.39,62.01-.66,107.77,23.57,140.83,75.91,54.15,85.72,111.04,169.73,164.01,256.16,23.22,37.89,51.59,68.04,89.75,89.91,61.81,35.44,87.91,88.8,85.12,160.02-2.73,69.63-1.17,139.45-.32,209.18.34,28.22-11.26,41.42-39.54,39.51-2.2-.15-4.45.2-6.64-.05-54.49-6.17-93.65-2.81-114.71,66.42-23.04,75.76-106.03,108.65-193.98,99.5-63.68-6.63-131.46-63.32-147.76-131.09-7.36-30.61-20.13-36.18-48.55-35.52-86.29,1.99-172.66,1.18-258.99.33-17.4-.17-23.63,4.51-28.1,22.33-21.72,86.67-91.04,143.76-171.4,144.11-101.87.44-167.77-47.1-192.72-141.97-5.38-20.47-14.36-25.25-33.66-24.5-36.47,1.42-73.04.09-109.56.54-19.12.23-34.01-6.25-34.99-26.57-1.09-22.71,14.93-29.96,35.12-30,37.63-.08,75.28-.57,112.9.18,17.16.34,25.98-2.39,32.2-22.58,24.4-79.24,99.21-133.24,178.85-133.6,80.12-.37,153.24,52.52,179.73,132.38,5.76,17.36,12.08,24.32,31.37,24.08,91.86-1.14,183.74-1.02,275.6-.08,18.77.19,25.63-5.08,31.43-23.87,24.17-78.2,99.94-132.64,179.63-132.53,79.24.11,151.07,52.81,178.64,129.86,3.27,9.13-.08,25.12,15.85,25.47,23.06.51,46.53,4.2,69.12-2.31,6.92-1.99,4.77-11.46,4.77-17.86.04-64.2.49-128.4-.27-192.59-.44-36.78-18.16-62.68-48.15-85.48-43.34-32.95-88.08-47.18-143.24-45.37-114.99,3.78-230.19,1.18-345.31,1.13-46.7-.02-52.11-5.28-52.14-50.69-.06-98.51-.79-197.04.55-295.53.32-23.58-6.76-28.59-29.44-28.46-181.52.99-363.05.56-544.58.53-9.96,0-19.96.3-29.86-.57-16.24-1.42-27.59-9.47-27.74-26.92-.16-18.73,10.84-28.27,29.11-28.78,18.8-.53,37.63-.21,56.45-.21,114.01,0,228.02,0,342.03,0Z" style="stroke-width: 0px;"/>
  <path d="M200.82,466.47c-55.31,0-110.63-.59-165.93.32-19.38.32-34.43-4.76-34.88-25.38-.48-22.09,15.06-29.35,35.72-29.31,110.62.26,221.25.27,331.88,0,21.12-.05,35.92,8.64,34.97,30.15-.9,20.43-16.65,24.9-35.82,24.56-55.3-.95-110.62-.34-165.93-.34Z" style="stroke-width: 0px;"/>
  <path d="M362.13,206.27c45.37,0,90.75.4,136.12-.18,21.03-.27,36.05,7.96,35.77,29.4-.26,19.7-15.14,27.45-34.41,27.41-92.96-.18-185.92-.11-278.87-.04-19.16.01-34.09-7.88-34.16-27.8-.08-21.72,15.24-29.26,36.12-28.98,46.47.61,92.96.19,139.44.19Z" style="fill: #030303; stroke-width: 0px;"/>
  <path d="M237.15,638.06c-33.09,0-66.18-.54-99.25.21-18.86.43-30.17-7.91-31.14-26.01-.98-18.54,10.15-28.22,28.84-28.24,68.38-.07,136.75-.05,205.13-.06,18.5,0,30.12,8.79,29.42,27.65-.68,18.1-11.4,26.99-30.44,26.63-34.18-.65-68.37-.18-102.56-.18Z" style="stroke-width: 0px;"/>
  <path d="M1437.19,373.44c-122.53,0-239.35-.15-356.17.2-13.74.04-16.51-6.22-16.47-18.2.27-92.86.28-185.73-.04-278.6-.04-12.27,3.25-19.19,16.74-17.8,3.28.34,6.63.02,9.94.04,155.25.75,135.53-14.06,218.82,116.93,41.1,64.63,82.93,128.79,127.18,197.42Z" style="fill: #fefefe; stroke-width: 0px;"/>
  <path d="M1460.89,810.95c-.01,73.34-59.5,132.89-132.45,132.57-70.13-.31-131.48-61.22-131.97-131.03-.53-76.5,57.18-136.42,132-137.05,75.17-.63,132.43,57.96,132.42,135.51Z" style="fill: #fefefe; stroke-width: 0px;"/>
  <path d="M763.86,808.86c.91,73.77-57.52,134.27-130.11,134.69-70.88.41-132.3-58.91-133.61-129.04-1.47-78.51,56.76-139.56,132.86-139.29,74.03.26,129.92,57.33,130.86,133.64Z" style="fill: #fefefe; stroke-width: 0px;"/>
</svg>