<?xml version="1.0" encoding="UTF-8"?>
<svg id="Layer_1" data-name="Layer 1" xmlns="http://www.w3.org/2000/svg" viewBox="0 0 1151.94 866.49">
  <path d="M912.16,299.34c-17.14-27.6-40.47-36.91-72.3-35.08-46.81,2.68-93.89,1.17-140.83.4-14.04-.23-19.74,2.04-19.59,18.26.87,95.45.75,190.92.08,286.37-.1,14.22,3.52,18.22,17.78,17.79,35.38-1.06,70.81-.33,106.23-.32,13.2,0,26.09,1.57,25.48,18.88-.56,15.93-12.86,16.61-25.14,16.58-47.73-.12-95.48-.77-143.18.38-15.86.38-18.59-5.05-18.52-19.4.56-105.46-.22-210.94.78-316.4.19-19.44-5.27-25.21-24.24-23.75-21.43,1.65-43.08.56-64.63.24-12.46-.19-23.33-3.09-23.2-19.04.13-16.47,11.59-17.78,23.88-17.79,103.16-.02,206.31.09,309.47-.05,22.03-.03,40.47,7.91,55.84,23.3,72.87,73.01,145.58,146.19,218.63,219.02,10.12,10.09,13.34,21.46,13.26,35.25-.37,63.89.01,127.79-.33,191.69-.21,39.19-20.38,61.2-59.65,59.7-25.3-.97-36.24,5.78-44.61,31.02-16.88,50.93-63.32,79.85-117.07,79.85-297.15,0-594.31,0-891.46,0-11.2,0-22.61,3.5-21.66-16.23.73-15.1,5.53-17.25,18.78-17.17,86.97.53,173.94.27,265.14.27-16.7-22.79-30.29-44.64-35.49-70.24-1.48-7.29-7.03-6.77-12.48-6.77-9.24.01-18.49.21-27.71-.26-33.95-1.72-55.74-20.62-56.78-54.43-1.73-56.14-.64-112.37-.74-168.57-.02-12.76,5.73-21.05,18.97-21.06,13.33-.01,18.83,8.5,18.84,21.13.03,50.04-.07,100.08.12,150.12.11,30.87,27.26,48.02,54.72,35.08,6.23-2.94,5.16-8.96,6.66-13.6,20.35-62.86,66.37-98.5,128.68-99.22,57.38-.66,104.56,34.27,125,94.43,4.36,12.82,8.74,18.46,23.47,18.3,77.74-.85,155.5-.65,233.25-.13,11.65.08,16.81-2.55,20.64-14.61,19.8-62.34,65.06-96.49,127.22-97.95,57.36-1.34,105.43,32.48,125.09,93.74,9.23,28.78,29.16,18.58,45.76,18.74,19.84.19,18.58-16.43,18.58-30.48,0-40.03-.67-80.08.35-120.09.38-14.97-3.52-19.51-18.99-19.36-82.36.79-164.74.48-247.11.32-44.71-.09-55.56-10.96-55.77-56.01-.23-47.73-.35-95.46.15-143.19.38-35.96,11.31-46.51,47.21-47.07,23.09-.36,46.18-.23,69.27-.39.47,0,.94-.92,2.19-2.22Z" style="stroke-width: 0px;"/>
  <path d="M16.87,252.02C9.67,128.81,115.24,10.6,235.77.95c158.11-12.65,265.18,102.36,272.66,231.81,7.84,135.79-96.96,250.16-236.17,258.06-134.63,7.64-247.13-97.55-255.39-238.8Z" style="stroke-width: 0px;"/>
  <path d="M58.62,699.07c-13.78,0-27.57.33-41.33-.1-11.97-.37-17.69-6.51-17.26-19.14.39-11.72,6.1-16.71,17.03-16.77,27.56-.14,55.13.39,82.68-.32,14.14-.36,11.74,8.95,11.15,16.83-.59,7.88,5.22,19.97-10.92,19.69-13.78-.24-27.56-.05-41.34-.05,0-.05,0-.09,0-.14Z" style="fill: #050505; stroke-width: 0px;"/>
  <path d="M79.26,624.29c-8.41-.37-16.94,0-25.2-1.3-10.06-1.58-16.71-7.21-16.24-18.65.46-11.17,6.51-17,17.26-17.4,14.54-.53,29.13.14,43.66-.56,17.39-.83,11.75,11.74,12.62,20.54,1,10.06.32,18.71-13.71,17.16-6.06-.67-12.25-.11-18.38-.11,0,.1,0,.21-.01.31Z" style="fill: #0d0d0d; stroke-width: 0px;"/>
  <path d="M87.06,547.59c-14.37-.35-30.84,2.47-30.48-18.59.39-22.56,18.31-17.35,32.2-18.63,15.05-1.38,22.73.51,22.98,19.87.3,23.24-14.05,16.1-24.7,17.34Z" style="fill: #040404; stroke-width: 0px;"/>
  <path d="M974.1,509.77c-42.28,0-84.56-.41-126.82.26-11.94.19-15.93-3.1-15.77-15.39.64-46.88.53-93.77.05-140.66-.11-10.71,2.62-14.86,14.06-14.6,31.5.7,63.02.42,94.54.15,11.75-.1,20.26,5.28,28.17,13.22,45.01,45.2,90.26,90.17,135.21,135.42,5.11,5.15,13.9,10.74,9.54,18.87-3.41,6.34-12.57,2.53-19.07,2.58-39.97.29-79.94.15-119.91.15Z" style="fill: #fefefe; stroke-width: 0px;"/>
  <path d="M300.95,736.24c-.28-50.18,41.59-92.19,92.16-92.47,54.15-.3,97.26,42.09,97.14,95.49-.11,49.44-44.76,93.31-95.34,93.66-50.79.35-93.67-43.76-93.96-96.68Z" style="fill: #fefefe; stroke-width: 0px;"/>
  <path d="M831.74,736.74c.86-54.24,43.6-94.35,99.06-92.97,48.61,1.21,91.51,47.3,89.68,96.35-1.87,50.2-47.85,94.17-96.91,92.7-52.15-1.57-92.66-43.96-91.83-96.08Z" style="fill: #fefefe; stroke-width: 0px;"/>
  <path d="M831.14,830.13h-339.12c14.42-20.83,27.78-39.56,31.84-62.83,1.24-7.13,5.71-9.75,13.12-9.73,82.2.19,164.4.23,246.59-.08,8.69-.03,11.83,3.36,13.85,11.24,5.55,21.73,15.03,41.66,33.73,61.4Z" style="fill: #fcfcfc; stroke-width: 0px;"/>
  <path d="M54.97,240.85c2.15-113.99,95.7-204.73,209.78-203.48,116.11,1.27,207.88,95.45,206.64,212.08-1.17,110.11-97.56,205.34-205.77,203.3-121.97-2.29-212.87-93.73-210.65-211.9Z" style="fill: #fefefe; stroke-width: 0px;"/>
  <path d="M412.95,740.19c4.47,15.93-6.27,14.57-18.04,15.69-16.93,1.62-17.42-6.71-18.37-19.99-1.24-17.37,7.55-16.83,20.36-18.07,19.34-1.86,16.77,9.73,16.05,22.36Z" style="fill: #090909; stroke-width: 0px;"/>
  <path d="M943.55,740.26c4.33,15.66-5.19,15.77-17.66,16.49-15.7.91-18.84-4.88-19.18-19.52-.38-16.33,6.36-17.88,20.22-18.78,18.4-1.19,18.15,8.64,16.62,21.81Z" style="fill: #0d0d0d; stroke-width: 0px;"/>
  <path d="M288.04,185.12c0,.77,0,1.54,0,2.3q.06,109.27-79,183.95c-8.71,8.23-18.6,16.45-29.75,5.79-11.96-11.43-4.62-21.95,4.77-31.51,17.22-17.51,33.53-35.98,51.44-52.74,13.5-12.63,18.28-26.9,17.95-45.01-.84-46.05-.39-92.12-.46-138.18,0-3.84-.2-7.68-.02-11.51.59-12.3-.44-26.65,17.3-26.85,17.58-.2,17.7,13.55,17.73,26.23.08,29.17.02,58.35.03,87.52Z" style="stroke-width: 0px;"/>
</svg>