<?xml version="1.0" encoding="UTF-8"?>
<svg id="Layer_1" data-name="Layer 1" xmlns="http://www.w3.org/2000/svg" viewBox="0 0 1160.06 1161.33">
  <path d="M.27,574.66C-8.6,279.68,250.49,1.63,575.94,0c317.94-1.59,582.09,262.13,584.11,577.75,1.96,306.62-250.84,570.74-555.39,583.09C265.74,1174.59-9.86,892.68.27,574.66Z" style="stroke-width: 0px;"/>
  <path d="M580.97,56.49c287.38-.1,522.93,236.79,521.94,524.91-.99,288.84-234.75,522.54-524.53,522.33-290.9-.21-532.01-238.5-522.75-544.93C63.88,285.62,294.24,55.31,580.97,56.49Z" style="fill: #fefefe; stroke-width: 0px;"/>
  <path d="M605.57,741.78c0-33.23.48-66.48-.25-99.7-.27-12.33,2.16-17.5,16.11-17.35,66.46.72,132.94.57,199.4.09,11.73-.09,15.99,2.65,15.86,15.28-.65,61.82.02,123.66-.45,185.49-.2,25.62-11.5,36.11-37.31,36.19-58.74.19-117.49-.51-176.21.45-15.09.25-17.83-4.81-17.45-18.45.94-33.98.31-68.01.31-102.01Z" style="stroke-width: 0px;"/>
  <path d="M548.95,743.72c0,33.97-.62,67.95.31,101.89.37,13.34-3.88,16.68-16.79,16.53-57.89-.66-115.79-.12-173.69-.36-24.71-.1-36.07-10.47-36.27-34.62-.5-62.53.22-125.06-.49-187.59-.15-13.3,5.3-14.77,16.32-14.71,64.84.39,129.69.58,194.53-.13,13.64-.15,16.56,4.49,16.27,17.08-.79,33.95-.27,67.93-.27,101.89h.08Z" style="stroke-width: 0px;"/>
  <path d="M722.73,587.92c-33.94,0-67.88-.46-101.81.25-11.86.25-16.1-2.77-15.66-15.32.97-27.73.9-55.54.02-83.28-.39-12.4,3.88-15.73,15.75-15.65,67.1.44,134.21.47,201.31.02,15.49-.1,22.73,5.07,22.22,21.38-.75,23.89-.7,47.83-.02,71.72.47,16.29-6.65,21.51-22.33,21.13-33.15-.8-66.33-.24-99.49-.24Z" style="fill: #010101; stroke-width: 0px;"/>
  <path d="M433.28,587.92c-33.17,0-66.36-.61-99.51.26-16.38.43-24.42-4.24-23.69-22.06.98-23.87.61-47.83.1-71.73-.28-13.12,3.94-20.35,18.21-20.31,69.43.18,138.86.14,208.29-.02,8.38-.02,12.57,2.14,12.41,11.71-.5,30.08-.7,60.18.05,90.25.29,11.48-5.31,12.08-14.03,12.01-33.94-.27-67.89-.11-101.83-.11Z" style="stroke-width: 0px;"/>
  <path d="M557.81,419.41c-41.69,0-79.45,2.41-116.78-.57-54.39-4.34-81.27-53.14-53.17-92.14,21.83-30.3,63.19-35.98,90.78-11.34,31.91,28.49,54.72,64.14,79.16,104.05Z" style="fill: #010101; stroke-width: 0px;"/>
  <path d="M596.16,420.02c26.39-42.05,49.57-80.05,84.67-108.65,25.51-20.79,66.53-12.39,86.67,16.75,18.89,27.33,10.89,61.01-18.65,79.51-12.08,7.56-25.35,11.59-39.27,11.93-29.25.7-58.53.37-87.79.46-6.77.02-13.55,0-25.63,0Z" style="fill: #010101; stroke-width: 0px;"/>
</svg>