<?xml version="1.0" encoding="UTF-8"?>
<svg id="Layer_1" data-name="Layer 1" xmlns="http://www.w3.org/2000/svg" viewBox="0 0 1129.03 1144.3">
  <path d="M298.04,332.88c-58.69-42.5-93.98-93.46-101.1-161.15-6.65-63.28,32.47-128.22,93.35-156.33,61.45-28.37,126.87-16.35,173.59,31.89,38.62,39.88,66.98,85.97,84.42,142.83,17.18-53.37,43.63-97.41,78.99-136.41,52-57.36,124.81-69.91,192.47-32.18,63.26,35.28,94.97,112.83,75.07,182.33-15.18,53-46.78,94.01-96.23,129.02,40.79,0,75.82,0,110.85,0,56.27,0,112.54-.16,168.81.06,35.29.13,50.36,15.36,50.56,51.03.25,43.93.31,87.87-.03,131.81-.24,31.58-15.36,48.61-46.14,47.84-18.21-.45-18.87,7.04-18.84,21.34.42,164.95.28,329.9.26,494.85,0,49.91-14.49,64.44-64.67,64.45-290.59.05-581.19.05-871.78,0-48.81,0-63.05-14.4-63.06-63.28-.02-164.18-.26-328.36.37-492.54.07-17.47-1.44-26.09-22.63-24.84-27.45,1.62-41.97-14.92-42.14-43.16-.28-47.02-.17-94.04-.04-141.06.09-31.54,14.55-46.25,46.9-46.39,77.08-.33,154.16-.11,231.24-.11,4.6,0,9.19,0,19.76,0Z" style="stroke-width: 0px;"/>
  <path d="M878.93,564.23c46.17,0,89.26.62,132.32-.35,14.56-.33,15.69,5.97,15.63,17.73-.4,82.49-.21,164.98-.21,247.47,0,84.03-.51,168.07.37,252.09.21,19.97-5.94,27.18-26.32,27.03-97.9-.76-195.82-.65-293.72,0-15.02.1-19.38-3.94-19.31-19.17.57-124.12.25-248.24.29-372.36,0-5.36-1.12-11.99,1.49-15.87,22.7-33.85,46.04-67.27,69.42-100.66,5.58-7.96,12.3-2.67,18.57-.48,30.45,10.66,60.94,21.23,91.35,32.01,10.57,3.75,20.87,6.59,29.56-3.58,8.12-9.51,3.52-18.62-1.17-27.72-5.59-10.84-11.01-21.77-18.26-36.14Z" style="fill: #fefefe; stroke-width: 0px;"/>
  <path d="M218.14,564.23c-7.56,15.34-13.39,27.73-19.73,39.84-4.24,8.08-6.18,15.82.18,23.58,6.83,8.33,15.53,9,25.02,5.69,31.16-10.87,62.58-21.05,93.31-33.02,12.98-5.06,21.82-5.02,27.82,8.6.3.69.8,1.33,1.33,1.88,53.88,57.09,69.91,124.13,64.93,202.21-5.78,90.51-1.63,181.68-.93,272.56.12,15.97-2.18,23-20.9,22.77-87.02-1.07-174.06-.89-261.09-.15-19.66.17-26.7-5.65-26.61-26.31.75-166.36.62-332.72.07-499.08-.05-14.99,3.62-19.53,18.84-18.93,31.52,1.23,63.13.37,97.76.37Z" style="fill: #fefefe; stroke-width: 0px;"/>
  <path d="M447.54,895.73c0-35.46,2.07-71.06-.43-106.34-5.11-71.92,9.89-140.72,27.13-209.54,2.82-11.26,6.21-16.37,19.18-16,36.97,1.07,73.99.81,110.98.11,11.14-.21,15.77,2.99,18.33,14.16,15.27,66.71,30.33,132.78,28.07,202.57-3.27,100.87-1.24,201.92-.33,302.89.16,18.35-3.21,25.37-23.48,24.8-53.91-1.53-107.9-1.05-161.85-.17-14.55.24-18-4.25-17.85-18.24.72-64.74.32-129.49.32-194.24h-.07Z" style="fill: #fefefe; stroke-width: 0px;"/>
  <path d="M780.18,370.67c100.73,0,197.01.26,293.29-.29,14.31-.08,18.56,4.42,18.27,18.5-.81,40.04-.79,80.12-.01,120.16.27,14.04-3.98,18.62-18.32,18.47-66.24-.68-132.5-.26-198.74-.35-7.37,0-14.55,1.6-19.31-8.03-24.06-48.65-48.95-96.88-75.19-148.47Z" style="fill: #fefefe; stroke-width: 0px;"/>
  <path d="M696.8,332.43c27.18-19.72,49.57-38.27,59.92-67.06,12.86-35.78-1.44-76.02-33.37-93.92-33.22-18.62-72.22-10.26-96.33,22.03-26.54,35.54-31.31,77.74-34.29,120.25-.63,8.96,4.25,20.49-13.36,19.53-17.26-.94-10.12-12.74-9.97-19.87,1.82-85.34,21.56-164.1,81.26-229.46,43.87-48.03,100.39-59.62,153.26-28.32,50.24,29.75,71.85,91.61,51.51,148.76-23.91,67.2-76.12,103.86-139.64,127.85-4.02,1.52-9.12.2-18.98.2Z" style="fill: #fefefe; stroke-width: 0px;"/>
  <path d="M400.41,332.71c-8.6,0-13.08,1.06-16.83-.16-67.07-21.81-138.54-74.66-148.46-159.64-6.2-53.11,22-101.01,70.69-123.3,47.96-21.95,95.6-11.89,134.46,27.55,67.31,68.29,85.93,153.77,87.95,245.42.19,8.44-2.6,10.33-10.38,10.52-9.27.23-13.71-1.49-13.7-12.37.02-30.13-4.04-59.82-13.7-88.54-5.95-17.66-14.06-34.09-27.67-47.29-27.08-26.27-62.81-30.59-92.63-11.18-30.05,19.56-41.7,56.3-29.45,91.41,10.11,28.99,32.46,47.44,59.73,67.56Z" style="fill: #fefefe; stroke-width: 0px;"/>
  <path d="M317.28,370.67c-26.35,51.68-51.02,99.27-74.75,147.32-4.5,9.12-10.65,9.28-18.53,9.27-57.04-.09-114.09-.32-171.13.17-11.85.1-16.22-3.14-16.02-15.58.67-41.61.55-83.25.06-124.87-.13-11.24,2.12-16.62,15.06-16.55,86.98.47,173.96.24,265.3.24Z" style="fill: #fefefe; stroke-width: 0px;"/>
  <path d="M419.61,649.25c-20.14-28.5-39.56-54.11-56.79-81.12-9.97-15.62-20.74-17.57-36.71-11.24-22.75,9.03-46.06,16.66-69.17,24.91-5.56-6.19.63-10.32,2.63-14.3,30.38-60.34,61.48-120.32,91.49-180.84,5.97-12.04,12.69-16.83,26.28-16.32,29.24,1.08,58.57,1.05,87.81.02,14.21-.5,19.38,2.27,15.7,17.64-20.52,85.85-40.36,171.86-61.24,261.25Z" style="fill: #fefefe; stroke-width: 0px;"/>
  <path d="M845.97,583.76c-28.58-10.17-51.84-17.65-74.44-26.76-16.27-6.56-27.21-3.58-37.04,11.37-17.24,26.24-35.93,51.53-56.79,81.17-7.97-34.57-14.95-65.19-22.09-95.77-12.92-55.3-25.76-110.63-39.05-165.84-2.96-12.3-1.65-19.59,13.31-17.27.75.12,1.54,0,2.31.02,34.59.31,74.92-10.3,102.14,4.01,27.19,14.3,34.02,57.43,50.05,87.77,20.38,38.55,39.55,77.74,61.6,121.31Z" style="fill: #fefefe; stroke-width: 0px;"/>
  <path d="M610.31,527.21c-37.99,0-74.86-.22-111.73.15-9.35.1-11.46-2.07-9.15-11.68,10.58-44.1,20.45-88.37,30.19-132.66,2.27-10.32,7.76-12.49,17.83-12.67,37.04-.63,37.05-1.11,44.96,33.74,9.18,40.43,18.32,80.87,27.89,123.11Z" style="fill: #fefefe; stroke-width: 0px;"/>
  <path d="M629.75,324.32c2.4-37.73,4.68-72.24,23.63-102.85,14.13-22.83,30.09-28.12,49.76-17.23,20.39,11.29,26.55,33.23,15.09,55.55-13.43,26.15-38.4,39.03-62.37,52.81-7.2,4.14-15.2,6.88-26.11,11.72Z" style="fill: #fdfdfd; stroke-width: 0px;"/>
  <path d="M467.5,324.91c-32.22-15.12-60.48-28.72-80.78-54.13-7.78-9.74-13.52-20.56-13.3-33.57.33-19.87,12.59-30.83,29.56-36.78,16.36-5.74,28.4,2.93,37.37,15.61,22.42,31.7,24.22,68.67,27.16,108.86Z" style="fill: #fdfdfd; stroke-width: 0px;"/>
</svg>