<?xml version="1.0" encoding="UTF-8"?>
<svg id="Layer_1" data-name="Layer 1" xmlns="http://www.w3.org/2000/svg" viewBox="0 0 1144.66 1131.48">
  <path d="M415.73,274.33c-23.84-9.18-47.64-18.48-71.53-27.52-54.71-20.71-84.69-71.38-75.58-129.84,8.35-53.62,37.94-92.27,89.42-108.99,48.32-15.7,94.89-8.79,135.24,25.66,8.75,7.47,12.69,16.95,16.44,26.88,20.4,54.06,40.65,108.17,62.23,165.68,21.59-57.07,42.53-110.17,61.55-163.94,6.33-17.9,17.21-30.06,32.11-39.99,52.53-35.02,127.73-27.17,172.72,18.02,42.75,42.93,49.85,114.58,16.78,167-10.48,16.61-23.27,28.94-42.96,35.28-28.44,9.15-55.97,21.11-83.05,35.48h200.84c58.87,0,117.73-.02,176.6,0,32.91.02,37.89,4.68,38.01,36.52.16,43.58.17,87.15,0,130.73-.12,29.33-5.74,34.85-34.75,35.32-5.35.09-10.82.74-16.03-.12-16.91-2.8-19.61,5.16-19.57,20.39.49,195.71.34,391.42.27,587.14,0,8.37.45,17.05-1.54,25.03-3.77,15.13-15.07,18.52-29.85,18.42-79.5-.52-159.01-.25-238.52-.25-230.88,0-461.76,0-692.63,0-38.68,0-42.04-3.25-42.04-41.32-.02-194.95-.34-389.89.5-584.84.09-20.09-4.41-25.8-24.86-24.99C1.83,481.81.07,478.87.06,435.51c-.01-41.28-.15-82.57.05-123.85.13-27.61,6.12-33.56,33.85-33.58,126.89-.09,253.79-.04,380.68-.04.36-1.24.72-2.47,1.08-3.71Z" style="stroke-width: 0px;"/>
  <path d="M436.84,777.98c0,93.24-.52,186.49.47,279.72.19,17.52-4.54,21.34-21.48,21.17-90.94-.89-181.89-.78-272.84-.07-15.08.12-18.89-4.06-18.85-18.95.51-186.48.54-372.96-.04-559.44-.05-16.08,4.21-20.29,20.23-20.15,90.94.79,181.9.81,272.84-.02,16.28-.15,20.17,4.44,20.04,20.32-.76,92.47-.37,184.95-.37,277.43Z" style="fill: #fefefe; stroke-width: 0px;"/>
  <path d="M707.56,777.93c0-92.49.4-184.99-.38-277.48-.13-15.97,3.91-20.35,20.09-20.2,90.96.82,181.93.83,272.89,0,16.28-.15,20.04,4.47,19.99,20.29-.56,186.52-.55,373.04,0,559.55.04,15.15-4.15,18.82-18.95,18.71-91.72-.68-183.46-.7-275.18.02-15,.12-18.91-3.88-18.8-18.82.69-94.02.35-188.04.35-282.07Z" style="fill: #fefefe; stroke-width: 0px;"/>
  <path d="M491.45,704.77c0-116.87.33-233.74-.38-350.6-.1-16.31,2.6-22.3,20.7-21.6,41.95,1.62,84.01.93,126.01.25,11.8-.19,15.36,2.88,15.34,15.08-.36,238.32-.39,476.64.04,714.96.02,13.81-4.89,16.04-17.08,15.84-42-.67-84.03-.92-126.02.1-14.95.36-19.03-3.8-18.95-18.85.63-118.39.35-236.79.35-355.19Z" style="fill: #fefefe; stroke-width: 0px;"/>
  <path d="M243.57,425.58c-58.03,0-116.07-.48-174.09.34-14.27.2-18.49-3.82-17.63-17.94,1.24-20.54.76-41.23.13-61.83-.3-9.72,2.35-13.29,12.68-13.26,119.88.31,239.77.32,359.65,0,10.21-.03,13.05,3.19,12.74,13.06-.66,21.36-1.12,42.81.12,64.12.83,14.15-5.15,15.88-17.2,15.77-58.79-.54-117.59-.25-176.39-.25Z" style="fill: #fefefe; stroke-width: 0px;"/>
  <path d="M899.89,425.58c-58.08,0-116.17-.61-174.23.41-15.61.27-19.56-4.74-18.3-19.17,2.1-24.07-9.98-56.41,4.8-70.05,12.93-11.93,44.89-3.59,68.44-3.62,97.05-.14,194.11.42,291.15-.51,17.31-.17,22.86,4.22,20.99,21.38-2.53,23.27,9.73,54.63-4.97,67.89-12.81,11.55-43.56,3.49-66.38,3.61-40.5.21-81,.06-121.5.06Z" style="fill: #fefefe; stroke-width: 0px;"/>
  <path d="M618.51,257.41c21.54-56.94,41.2-108.78,60.78-160.66,13.36-35.41,42.26-50.64,79.5-41.76,45.78,10.91,73.67,60.42,58.77,104.89-5.75,17.17-15.25,29.57-34.29,36.17-53.72,18.63-106.65,39.53-164.76,61.37Z" style="fill: #fefefe; stroke-width: 0px;"/>
  <path d="M525.27,257.35c-61.41-23.1-118.9-44.22-175.95-66.48-18.5-7.22-22.72-26.07-25.87-42.95-10.84-58.18,46.19-108.15,102.93-91.05,17.66,5.32,30.15,14.95,36.78,33.58,19.34,54.32,40.11,108.13,62.11,166.9Z" style="fill: #fefefe; stroke-width: 0px;"/>
</svg>