<?xml version="1.0" encoding="UTF-8"?>
<svg id="Layer_1" data-name="Layer 1" xmlns="http://www.w3.org/2000/svg" viewBox="0 0 1156.26 1154.68">
  <path d="M576.76,1154.56C267.33,1161.07-8.11,895.8.18,558.68,7.11,277.12,247.58-.99,580.29,0c315.92.94,577.36,263.41,575.96,582.28-1.34,306.35-258.24,578.87-579.49,572.28Z" style="stroke-width: 0px;"/>
  <path d="M668.87,885.85c-36.93,0-73.86-.47-110.77.19-20.49.36-29.14-8.01-28.91-28.82.64-59.23.47-118.47.04-177.7-.14-19.49,8.35-27.95,27.74-27.87,75.39.3,150.78.3,226.17,0,18.64-.07,26.9,9.15,26.95,26.72.15,60,0,120.01.07,180.01.03,19.01-8.57,27.97-28.2,27.65-37.68-.61-75.39-.18-113.08-.17Z" style="fill: #e9eaee; stroke-width: 0px;"/>
  <path d="M572.76,373.29c22.16-34.57,47.07-63.93,80.7-85.7,27.74-17.96,57.88-20.81,88.48-15.68,24.33,4.07,43.9,17.64,51.57,43.66,7.95,27-2.04,48.73-20.93,66.44-34.44,32.27-77.86,45.08-123.14,51.79-76.83,11.39-153.08,10.67-227.48-15.3-22.88-7.99-43.32-19.99-57.64-40.1-15.25-21.42-20.49-45.42-8.79-69.57,11.57-23.88,33.06-35.49,59.31-37.95,57.9-5.43,97.18,26.08,131.45,66.92,9.28,11.06,17.33,23.15,26.47,35.49Z" style="fill: #e9eaee; stroke-width: 0px;"/>
  <path d="M691.53,477.9c44.61,0,89.22.44,133.82-.22,17.24-.25,25.11,4.54,24.15,23.68-1.54,30.69-1.03,61.53-.15,92.26.43,15.19-5.15,20.02-20.06,19.94-90.75-.48-181.51-.28-272.26-.21-18.98.02-28.23-8.5-27.77-28.13.61-26.14.75-52.31-.05-78.44-.62-20.45,7.51-29.46,28.5-29.11,44.6.74,89.21.23,133.82.23Z" style="fill: #e9eaee; stroke-width: 0px;"/>
  <path d="M475.58,769.9c0,29.18-.53,58.37.18,87.53.5,20.74-8.66,29.24-29.09,28.59-23.78-.75-47.62-.66-71.4-.03-19.2.51-28.67-7.76-28.65-27.1.05-59.89-.01-119.79-.06-179.68-.01-18.98,8.95-28.08,28.38-27.6,23.02.56,46.07,0,69.11.17,26.38.2,31.25,4.83,31.49,30.57.26,29.18.06,58.36.06,87.54Z" style="fill: #e9eaee; stroke-width: 0px;"/>
  <path d="M389.59,477.9c19.2,0,38.43.61,57.61-.17,19.21-.78,28.77,6.85,28.47,26.68-.41,27.65-.23,55.31-.07,82.96.1,17.08-8.3,25.79-25.18,25.86-40.71.17-81.43.1-122.14.07-16.61-.01-25.53-6.94-25.06-25.05.74-28.4.86-56.86-.05-85.26-.63-19.5,8.43-25.88,26.51-25.25,19.95.69,39.94.16,59.91.16Z" style="fill: #e9eaee; stroke-width: 0px;"/>
  <path d="M613.47,392.44c23.65-37.3,48.72-66.33,89-77.4,17.63-4.84,39.19-6.44,47.58,11.2,9.73,20.43-10.87,31.98-25.76,39.98-32.8,17.61-68.81,24.58-110.82,26.22Z" style="fill: #010101; stroke-width: 0px;"/>
  <path d="M532.6,392.38c-45.37-3.67-85.5-10.15-121.06-33.41-11.1-7.26-22.48-16.93-16.81-31.4,5.33-13.6,19.73-16.15,33.28-14.85,49.48,4.75,77.18,38.31,104.59,79.66Z" style="fill: #010101; stroke-width: 0px;"/>
</svg>