<?xml version="1.0" encoding="UTF-8"?>
<svg id="Layer_1" data-name="Layer 1" xmlns="http://www.w3.org/2000/svg" viewBox="0 0 1134.32 936.43">
  <path d="M564.64,632.26c-118.85,0-237.71-.31-356.56.36-16.15.09-23.35-2.21-20.48-20.56,2.54-16.25-7.23-28.68-19.26-38.9-19.05-16.19-23.47-36.12-15.06-59.25,6.4-17.59,4.93-34.04-6.42-49.36-14.95-20.17-14.9-40.87.05-60.65,11.21-14.84,13.06-30.96,7.01-47.17-9.53-25.51-3.7-45.67,16.64-62.76,13.79-11.58,19.34-26.47,17.14-44.42-3.06-24.99,7.2-42.78,30.29-52.41,17.81-7.43,27.32-20.14,29.9-39.14,3.49-25.67,18.29-40.33,44.28-44.02,17.75-2.52,30.4-12.31,37.33-29.21,9.52-23.24,27.3-33.69,51.98-31.61,18.81,1.59,33.94-4.39,46.19-18.59,16.65-19.31,36.8-25.24,61-15.66,17.76,7.03,33.6,3.57,48.76-7.94,19.11-14.52,39.46-14.62,58.58-.2,15.97,12.05,32.54,15.1,50.95,7.71,22.72-9.11,41.77-3.24,56.76,14.98,13.22,16.07,29.11,22.42,49.78,20.22,21.78-2.32,38.52,7.12,47.97,26.95,9.52,19.96,23.35,31.5,46.27,34.67,19.22,2.65,32.99,15.57,36.06,35.84,3.56,23.6,14.22,40.15,37.35,49.34,19.06,7.57,26.84,24.63,24.93,44.2-2.19,22.38,4.34,39.65,21.63,53.97,17.12,14.18,20.89,33.4,13.78,53.52-7.18,20.33-5.55,38.2,7.11,55.64,13.12,18.08,12.26,36.91-.23,54.8-12.29,17.61-14.25,35.44-6.86,55.7,7.07,19.4,3.02,37.68-13,51.58-15.83,13.74-25.62,29.37-22.41,51.34,2.47,16.91-10.91,10.78-18.1,10.81-99.93.35-199.85.24-299.78.24h-63.59Z" style="stroke-width: 0px;"/>
  <path d="M1134.32,936.43H0c10.28-22.17,17.21-44.55,29.89-62.96,31.75-46.08,33.16-89.91.59-136.17-11.54-16.39-17.42-36.71-26.43-54.97-5.05-10.24-2.14-13.83,8.65-13.02,3.76.28,7.57.04,11.35.04,361.86,0,723.73,0,1085.59,0q25.96,0,15.21,23c-14.77,31.39-28.83,63.14-44.8,93.91-7.13,13.74-6.2,24.55.54,37.89,18.26,36.16,35.08,73.04,53.73,112.28Z" style="stroke-width: 0px;"/>
  <path d="M372.59,350.63c17,.03,29.46,6.58,40.31,16.7,20.5,19.1,41.64,37.57,61.09,57.68,10.57,10.93,16.64,9.44,26.97-.33,71.46-67.68,143.65-134.58,215.36-202,14.39-13.53,29.88-23.81,50.44-20.08,20.12,3.65,34.02,15.36,40.22,35.5,6.54,21.28-.09,38.98-15.39,53.48-42.31,40.11-85.05,79.75-127.64,119.56-45.35,42.4-90.67,84.83-136.09,127.15-27.23,25.37-52.59,25.97-79.9.92-36.27-33.26-72.24-66.86-107.72-100.96-16.18-15.55-20.47-34.97-11.92-56.19,8.27-20.52,25.11-29.06,44.26-31.44Z" style="fill: #fefefe; stroke-width: 0px;"/>
  <path d="M460.26,804.53c0-20.42-.08-40.83.05-61.25.04-5.68-1.88-13.16,7.61-13.16,18.05,0,36.45-2.22,53.69,5.21,20.39,8.79,29.52,41.64,13.31,59.97-10.91,12.34-8.52,21.79-4.86,33.87,3.28,10.82,6.66,21.64,9.11,32.66,1.19,5.37,9.38,13.93-2.38,15.91-8.32,1.4-19.88,5.39-22.66-10.44-2.73-15.53-7.99-30.62-12.02-45.93-1.33-5.04-1.35-11.17-8.8-10.89-8.8.34-5.67,7.51-5.82,11.95-.45,13.6-.85,27.26.04,40.81.75,11.46-2.45,15.58-14.74,15.58-12.51,0-12.88-6.02-12.68-15.31.41-19.65.13-39.32.13-58.98Z" style="fill: #fdfdfd; stroke-width: 0px;"/>
  <path d="M680.36,802.2c0,20.95-.34,41.9.16,62.83.22,9.22-1.83,13.89-12.35,13.59-9.54-.27-11.04-4.89-11-12.85.2-40.84.09-81.69.09-122.54,0-6.02-.99-12.38,8.02-13.32,8.08-.85,12.33,2.6,15.3,9.91,8.62,21.21,17.77,42.2,31.11,62.45,0-19.26.17-38.52-.08-57.78-.11-8.29.23-14.63,11.48-14.83,12.28-.22,10.71,7.62,10.71,15.09.02,39.33.17,78.67-.17,118-.05,5.74,4.05,14.09-7.23,15.69-10.36,1.47-12.74-5.63-15.56-12.6-8.71-21.47-17.3-42.99-25.94-64.49-1.51.28-3.01.56-4.52.84Z" style="fill: #fbfbfb; stroke-width: 0px;"/>
  <path d="M319.07,788.42c.03-15.11.41-30.23-.11-45.32-.32-9.16,1.67-14.12,12.32-13.43,8.46.55,14.5,1.09,14.18,12.14-1.01,34.7-.08,69.51-2.39,104.1-1.58,23.78-15.99,34.87-39.01,35.22-23.48.36-38.85-11.71-40.35-36.31-2.11-34.62-1.21-69.42-2.01-104.14-.28-12.06,7.79-10.25,15.27-10.88,9.54-.81,11.23,4.09,11.15,12.26-.29,30.21-.5,60.44.11,90.64.23,11.39-2.21,27.07,15.94,26.74,16.4-.3,14.25-14.88,14.71-25.7.64-15.08.16-30.21.19-45.32Z" style="fill: #fbfbfb; stroke-width: 0px;"/>
  <path d="M160.39,803.16c0-13.6-1.25-27.34.27-40.77,2.73-24.01,17.66-35.25,42.37-33.98,24.32,1.25,37.44,14.62,38.43,38.41.32,7.71-.03,13.93-10.05,13.05-6.84-.6-16.39,3.09-16.1-9.62.26-11.5-1.37-22.84-16.4-21.03-15.09,1.81-12.17,15.2-12.36,25.2-.43,21.92-.12,43.85.17,65.78.12,9.47,1.49,18.62,13.88,19.5,7.75.55,13.69-2.49,14.95-10.55,1.5-9.54,8.73-21.15-3.89-27.54-5.92-3-11.36-3.94-9.67-11.77,1.95-9.04,9.56-4.7,14.8-5.65,19.81-3.61,28.97,3.28,25.56,24.65-1.53,9.59-.23,19.62-.27,29.45-.07,18.2-.15,18.38-18.64,12.7-5.07-1.56-5.92,2.92-8.8,4.47-24.61,13.25-50.12,1.04-53.76-27.01-1.93-14.86-.34-30.17-.34-45.28-.05,0-.1,0-.16,0Z" style="fill: #fcfcfc; stroke-width: 0px;"/>
  <path d="M598.5,730.18c11.31-2.24,15.51,2.53,17.5,13.94,6.46,37.07,14.86,73.8,21.2,110.88,1.22,7.13,12.88,18.6-3.18,23.1-15.77,4.42-19.7-5.99-19.58-19.01.16-16.8-11.71-15.01-22.02-13.67-10.39,1.35-8.12,11.19-9.35,18.02-1.36,7.54-.99,15.08-12.2,15.1-10.35.01-16.84.42-13.44-14.31,9.15-39.59,16.81-79.54,24.07-119.53,1.96-10.82,5.09-16.98,17-14.52Z" style="fill: #fcfcfc; stroke-width: 0px;"/>
  <path d="M444.66,876.23c-18.33,5.92-26.9,1.39-27.4-16.17-.28-9.78-3.75-16.11-16.51-15.52-11.87.56-12.65,6.45-14.37,15.39-1.34,6.93,1.46,18-11.53,18.47-9.76.35-17.81.98-14.63-13.82,8.74-40.61,16.54-81.43,24.25-122.26,1.96-10.39,7.36-12.96,17.26-12.7,9.62.25,15.28,2.12,17.25,12.95,8.11,44.5,17,88.86,25.68,133.66Z" style="fill: #fcfcfc; stroke-width: 0px;"/>
  <path d="M834.55,802.63c0-18.88.76-37.8-.26-56.62-.72-13.35,4.47-17.29,16.99-16.33,11.26.87,22.64.36,33.97.13,6.89-.14,11.46,1.05,11.42,9.66-.04,7.9-3.16,11.58-10.69,10.1-25.17-4.94-25.79,9.93-24.93,28.49.51,10.89,3.64,15.19,14.42,13.99,7.29-.81,13.55-.17,13.48,10-.07,9.82-6.79,8.03-12.53,8.18-28.59.73-10.88,22.21-14.54,33.74-4.18,13.16,4.23,16.09,16.29,15.87,6.36-.11,17.95-6.73,18.53,8.24.65,16.74-12.15,9.88-19.27,10.04-42.9.95-42.91.66-42.88-41.49,0-11.33,0-22.66,0-33.98Z" style="fill: #f9f9f9; stroke-width: 0px;"/>
  <path d="M913.11,804.71c0-19.65.47-39.31-.18-58.94-.37-11.03,1.89-17.19,14.74-16.09,11.25.96,22.66.43,33.99.13,7.78-.2,13.05.9,12.72,10.83-.3,9.02-5.54,8.76-11.99,9.18-7.24.48-18.49-4.01-20.85,3.19-3.36,10.24-2.62,22.52-.92,33.5,1.47,9.46,11.1,4.74,17.14,5.3,6.45.61,9.44,2.96,9.72,9.58.32,7.42-3.86,8.87-9.87,8.82-33.1-.28-13.95,24.69-17,37.74-4.11,17.54,11.8,9.61,19.67,11.35,5.83,1.29,13.93-3.05,14.49,8.53.59,12.46-7.5,10.28-14.83,10.57q-46.85,1.88-46.83-44.24c0-9.82,0-19.65,0-29.47Z" style="fill: #fafafa; stroke-width: 0px;"/>
  <path d="M771.65,814.47c0-12.85.24-25.7-.08-38.54-.3-12.31,5.77-29.05-17.88-25.99-6.12.79-5.76-5.36-5.95-9.91-.21-5.15,1.38-9.55,6.89-9.66,19.63-.41,39.28-.39,58.92-.22,7.03.06,8.02,5.04,8.1,10.98.1,6.79-2.75,10.19-9.38,9.17-15.96-2.45-14.19,8.16-14.13,18.18.16,31.74-.22,63.49.21,95.22.13,9.74-1,15.23-13.1,15.06-11.12-.16-14.3-3.76-13.81-14.42.77-16.59.2-33.24.2-49.87Z" style="fill: #fdfdfd; stroke-width: 0px;"/>
  <path d="M486.32,771.68c5.4-6.71-7.85-20.95,10.31-22.03,15.34-.92,19.25,8.5,19.48,21.37.23,12.95-3.94,22.44-18.76,22.41-18.23-.04-6.18-14.62-11.03-21.75Z" style="fill: #010101; stroke-width: 0px;"/>
  <path d="M600.45,775.38c2.09,13.11,4.33,26.21,6.2,39.35.57,4.01,4.6,9.3-.7,11.9-3.6,1.77-9.04,1.56-13.04.3-6.52-2.05-2.22-7.51-1.75-11.27,1.66-13.25,3.9-26.42,5.92-39.62,1.12-.22,2.25-.45,3.37-.67Z" style="fill: #131313; stroke-width: 0px;"/>
  <path d="M403.65,774.9c2.5,15.78,4.48,29.05,6.73,42.27,1.25,7.32-.39,10.93-8.93,10.86-8.33-.07-11.04-3.29-8.52-10.67,4.45-13.09,1.22-28.25,10.72-42.45Z" style="fill: #181818; stroke-width: 0px;"/>
</svg>