<?xml version="1.0" encoding="UTF-8"?>
<svg id="Layer_1" data-name="Layer 1" xmlns="http://www.w3.org/2000/svg" viewBox="0 0 815.75 1165.16">
  <path d="M234.08,49.58c6.28.89,17.91,1.85,29.23,4.27,38.02,8.11,69.15-3.46,97.79-29.06,36.53-32.65,56.68-33.39,92.59-.11,31.75,29.43,66.5,35.5,107.1,28.2,49.64-8.93,62.17-2.59,77.84,45.47,13.48,41.34,39.17,65.71,79.91,79.38,45.34,15.21,53.16,29.49,43.86,77-8.04,41.01-.3,75.12,27.01,107.75,35.31,42.17,35.11,56.23-.59,96.47-28.69,32.35-33.97,67.24-26.11,107.75,8.75,45.1,3.58,57.77-39.36,73-45.6,16.17-72.88,44.81-88.03,90.22-12.95,38.84-29.86,48.14-69.37,38.34-44.03-10.92-79.29-1.34-113.4,28.06-37.33,32.18-52.28,32.39-89.01.55-34.78-30.15-70.74-39.54-115.53-28.33-38.01,9.52-55.03,0-67.66-37.76-15.44-46.17-43.04-75.61-89.78-91.49-40.21-13.66-47.45-29.96-38.44-71.73,9.38-43.51,1.1-79.91-29.72-113.37-29.59-32.12-29.82-52.44-1.05-85.7,31.04-35.88,40.84-73.93,29.92-120.19-8.71-36.9,2.26-56.65,38.65-67.76,47.35-14.46,75.91-43.21,89.97-90.5,9.62-32.36,23.35-40.86,54.19-40.45Z" style="fill: #100f0d; stroke-width: 0px;"/>
  <path d="M751.45,1089.23c-36.36-7.45-70.48-13.51-104.03-21.82-12.17-3.01-18.24-.24-24.74,9.35-19.39,28.61-39.53,56.72-61.73,88.39-15-38.58-28.51-73.56-42.18-108.47-27.05-69.08-53.98-138.21-81.46-207.12-4.81-12.06-3.41-17.54,7.22-27.94,38.47-37.63,81.52-50.22,133.38-36.84,9.34,2.41,22.43,3.42,29.57-1.3,21.52-14.23,25.76-1.34,32.08,15.22,34.44,90.27,69.6,180.26,104.5,270.36,2.18,5.64,4.17,11.35,7.4,20.18Z" style="fill: #100f0d; stroke-width: 0px;"/>
  <path d="M247.23,1140.11c-18.88-27.42-38.54-54.15-56.05-82.22-7.8-12.51-15.98-13.89-28.67-10.76-32.1,7.9-64.41,14.89-99.48,22.9,39.8-102.18,78.39-201.25,117.92-302.71,21.35,22.99,48.38,22.58,73.01,15.85,47.02-12.87,80.7,6.73,112.58,36.83,6.19,5.85,4.78,10.54,2.53,16.3-39.09,99.98-78.23,199.93-117.45,299.86-.5,1.27-2.22,2.06-4.38,3.97Z" style="fill: #100f0d; stroke-width: 0px;"/>
  <path d="M665.51,410.84c.89,141.12-114.55,257.5-256.29,258.4-145.1.92-259.87-114.66-259.96-261.8-.09-139.72,115.5-255.32,256.26-256.28,143.68-.98,259.07,114.28,259.99,259.69Z" style="fill: #fdfdfd; stroke-width: 0px;"/>
  <path d="M165.33,407.94c-.22-132.89,109.11-242.09,242.42-242.12,133.29-.03,241.96,109.94,242.39,245.26.41,132.33-109.73,243.19-241.93,243.51-134.83.33-242.64-109.16-242.87-246.66Z" style="fill: #100f0d; stroke-width: 0px;"/>
  <path d="M557.19,320.38c-2.58,2.97-5.49,6.44-8.53,9.8-55.57,61.49-111.39,122.76-166.49,184.67-9.36,10.52-14.16,9.35-22.76-.48-29.08-33.22-59.17-65.54-88.57-98.48-3.82-4.28-13.07-8.35-3.68-16.5,8.24-7.15,13.87-5.75,20.91,2.43,19.71,22.88,40.39,44.92,60.52,67.44,22.49,25.16,22.26,25.08,45.57-.85,45.57-50.69,91.25-101.28,137.18-151.65,3.47-3.81,5.55-12.55,13.99-8.03,4.58,2.45,9.88,4.46,11.86,11.64Z" style="fill: #fcfcfc; stroke-width: 0px;"/>
</svg>