<?xml version="1.0" encoding="UTF-8"?>
<svg id="Layer_1" data-name="Layer 1" xmlns="http://www.w3.org/2000/svg" viewBox="0 0 896.23 1143.3">
  <path d="M713.73,57.76c-125.86-2.99-234.46,80.85-262.24,200.24-4.89,21.03-10.94,41.54-22.9,59.83-20.47,31.33-49.05,48.06-86.85,47.07-38.38-1-64.9-20.62-81.72-54.27-11.99-23.99-19.01-49.58-22.64-82.24-10.63,14.36-18.5,24.3-25.63,34.75-42.06,61.63-79.28,125.9-106.19,195.76-1.38,3.57-2.69,7.24-4.64,10.5-9.09,15.23-21.88,21.94-38.67,13.43-15.46-7.83-18.69-20.85-12.52-36.9,27.94-72.69,64.57-140.76,108.65-204.86,24.84-36.12,51.18-71.1,79.85-104.32,9.76-11.31,20.24-19.98,35.6-13.8,15.72,6.33,19.82,19.6,18.69,35.86-2.63,37.86.15,75.36,11.78,111.68,6.37,19.88,17.04,38.69,40.49,38.19,23.04-.5,37.17-16.84,44.09-38.17,6.84-21.13,11.17-43.15,19.01-63.87C452.36,89.06,540.94,26.62,662.06,5.92c38.09-6.51,76.51-7.34,115-4.01,14.44,1.25,27.59,4.96,33.02,20.49,5.58,15.96-3.67,26.28-14.48,35.73-22.06,19.28-43.14,39.58-60.17,63.53-62.15,87.38-52.85,178.94,28.02,261.84,68.57,70.3,113.2,152.26,127.89,249.83,26.72,177.43-57.98,356.15-213.33,446.9-266.83,155.87-601.99,9.01-666.76-288.07-15.93-73.09-14.5-146.58,1.38-219.74,4.78-22.03,17.22-33.21,33.24-29.46,18.64,4.36,27.12,18.57,21.99,41.31-9.21,40.9-10.55,82.12-9.23,123.8,6.33,200.98,158.16,363.48,353.22,377.5,206.67,14.85,386.53-119.84,421.3-319.52,22.4-128.63-13.72-242.25-104.42-336.51-43.16-44.86-76.59-94.02-87.44-156.11-13.41-76.72,12.86-141.99,60.15-200.75,3.32-4.12,6.73-8.18,12.28-14.91Z" style="stroke-width: 0px;"/>
  <path d="M450.54,1014.39c-170.55,1.1-328.79-139.25-312.42-337.5,14.29-173.09,174.49-300.68,344.92-280.1,136.66,16.51,243.99,113.82,272.1,247.86,3.85,18.37,5.03,36.25-16.97,44.04-18.39,6.52-32.77-3.25-37.42-26.06-12.4-60.81-40.82-112.01-88.45-152.22-76.95-64.97-193.69-77.03-283.01-29.18-92.41,49.5-146.56,149.01-134.83,247.76,12.65,106.48,86.34,193.8,185.89,220.28,129.78,34.51,262.72-34.55,308.96-160.5,2.37-6.47,4.33-13.13,7.23-19.36,7.31-15.65,20.1-21.7,35.93-15.47,15.53,6.11,21.68,18.8,16.38,35.47-37.1,116.73-116.34,188.28-234.38,217.87-10.38,2.6-21.18,3.76-31.86,4.89-11.46,1.22-23.01,1.61-32.07,2.21Z" style="stroke-width: 0px;"/>
  <path d="M604.28,580.83c.62,7.28-4.6,13.73-10.75,19.83-82.34,81.67-164.51,163.5-247.07,244.95-16.95,16.73-34.05,17.95-46.08,3.76-14.09-16.61-6.42-31.06,6.83-44.17,81.33-80.5,162.66-161,243.92-241.58,10.41-10.33,21.32-17.65,36.64-10.35,10.76,5.14,16.33,13.47,16.52,27.54Z" style="stroke-width: 0px;"/>
  <path d="M543.69,719.36c44.64-.42,82.62,37.16,82.55,81.7-.06,43.17-37.43,80.49-81.11,80.98-44.76.5-82.58-37.11-82.22-81.78.36-43.93,36.86-80.48,80.77-80.9Z" style="stroke-width: 0px;"/>
  <path d="M353.74,689.65c-46.08.22-82.31-35.63-82.03-81.17.27-43.83,36.99-80.76,80.62-81.08,44.93-.32,81.85,36.68,81.78,81.97-.07,44.79-35.38,80.07-80.37,80.28Z" style="stroke-width: 0px;"/>
  <path d="M545.87,825.39c-16.35-1.02-25.49-8.84-25.27-24.61.22-15.46,9.24-24.55,24.57-24.48,14.31.07,22.68,8.64,23.15,23.26.51,15.76-8,23.97-22.46,25.83Z" style="fill: #fcfcfc; stroke-width: 0px;"/>
  <path d="M377.93,608.08c-1,14.77-8.63,24.43-23.79,25.28-15.48.88-24.9-8.54-25.42-23.31-.52-14.72,8.93-25.26,23.46-25.97,14.56-.71,23.65,8.65,25.76,24Z" style="fill: #f7f7f7; stroke-width: 0px;"/>
</svg>