<?xml version="1.0" encoding="UTF-8"?>
<svg id="Layer_1" data-name="Layer 1" xmlns="http://www.w3.org/2000/svg" viewBox="0 0 894.57 1150.71">
  <path d="M452.72,1150.54C212.49,1154.72,10.71,963.99.56,724.76c-5.01-118.09,23.96-227.72,72.47-333.3,42.42-92.33,98.69-176.02,164.58-253.35,9.47-11.11,20.17-17.85,34.13-13.18,15.08,5.05,20.33,17.52,19.34,33.14-2.15,34.11.06,67.95,8.26,101.2,2.2,8.91,5.49,17.67,9.25,26.06,6.73,15,17.6,25.82,34.93,26.41,17.15.58,28.75-8.98,37.14-23.35,8.3-14.21,11.49-30.12,16.2-45.55,30.57-100.2,87.04-179.21,188.07-217.09,61.95-23.23,127.2-30.9,193.61-22.39,14.06,1.8,25.59,7.02,30.08,21.35,4.21,13.45-1.93,23.85-11.72,32.81-17.66,16.16-35.61,32.04-50.64,50.85-74.82,93.63-70.57,190.74,13.51,275.98,71.09,72.07,114.87,157.02,129.99,257.5,31.3,207.99-92.98,413.7-293.07,484.29-49.42,17.44-99.85,25.89-143.97,24.41Z" style="stroke-width: 0px;"/>
  <path d="M135.9,710.18c-1.52-169.14,139.45-310.56,310.38-311.37,171.04-.82,311.82,139.53,312.8,311.84.97,170-138.57,310.79-309.65,312.4-172.34,1.63-311.96-137.7-313.54-312.86Z" style="fill: #fefefe; stroke-width: 0px;"/>
  <path d="M447.39,965.74c-142.97.05-254.85-113.6-254.73-258.76.12-137.62,116.2-251.54,255.59-250.84,140.15.71,253.74,114.74,254.35,255.33.61,138.73-115.32,254.22-255.21,254.27Z" style="stroke-width: 0px;"/>
  <path d="M602.69,581.92c-.2,13.36-6.21,21.15-13.48,28.38-80.82,80.51-161.51,161.15-242.48,241.5-17.59,17.45-33.19,19.07-46.25,6.41-13.49-13.08-12.14-28.87,5.22-46.25,81.18-81.24,162.56-162.29,243.94-243.33,10.28-10.24,21.51-17.66,36.94-10.04,10.87,5.36,15.73,14.13,16.1,23.33Z" style="fill: #fefefe; stroke-width: 0px;"/>
  <path d="M351.52,695.36c-45.36-.05-80.29-34.77-80.64-80.13-.35-45.44,36.4-82.87,81.27-82.77,44.5.1,81.88,38.4,81.34,83.36-.52,44.13-37.08,79.6-81.97,79.54Z" style="fill: #fefefe; stroke-width: 0px;"/>
  <path d="M542.51,726.5c44.52-.21,81.11,35.62,81.69,80.01.58,44.67-37.85,83.43-82.09,82.79-43.49-.63-80.25-38.21-80.47-82.24-.22-44.21,36.05-80.34,80.88-80.56Z" style="fill: #fefefe; stroke-width: 0px;"/>
  <path d="M353.08,639.46c-16.9-1.13-25.43-10.22-25.44-25.03,0-14.99,9.75-24.96,24.37-25.09,14.85-.13,24.36,10.22,24.14,25.08-.21,14.48-8.66,23.86-23.07,25.04Z" style="fill: #050505; stroke-width: 0px;"/>
  <path d="M543.66,831.59c-16.48-.52-24.97-10.14-24.93-24.72.03-15.06,10.23-24.14,25.29-23.75,14.03.36,23.07,9.72,23.32,23.52.26,14.93-8.53,23.94-23.67,24.95Z" style="fill: #050505; stroke-width: 0px;"/>
</svg>