<?xml version="1.0" encoding="UTF-8"?>
<svg id="Layer_1" data-name="Layer 1" xmlns="http://www.w3.org/2000/svg" viewBox="0 0 1162.88 1164.62">
  <path d="M.31,578.16C-10.29,280.77,252.4,1.4,577.12,0c315.83-1.36,582.61,259.97,585.73,578.69,3.09,315.5-265.98,584.58-578.91,585.92C269.65,1165.96-8.62,902.24.31,578.16Z" style="stroke-width: 0px;"/>
  <path d="M85.15,578.53c-2.59-266.48,220.42-488.76,493.36-491.76,269.47-2.96,495.12,219.21,497.89,490.21,2.82,276.46-217.23,498.59-496.12,500.8-272.56,2.16-492.42-219.53-495.14-499.25Z" style="fill: #fefefe; stroke-width: 0px;"/>
  <path d="M706.02,409.83c-16.72,58.54-33.42,117.14-50.2,175.72-24.69,86.16-49.44,172.31-74.15,258.46-1.06,3.71-2.62,7.41-2.9,11.19-.49,6.59-5.95,15.02,1.34,19.36,7.18,4.27,12.95-3.58,17.62-7.98,20.44-19.22,36.6-42,51.73-65.46,14.36-22.26,24.18.85,35.67,3.69,14.63,3.62,8.77,12.36,3.53,20.84-27.4,44.37-57.15,86.78-99.85,118.12-35.83,26.3-75.57,39.86-119.91,28.95-50.73-12.48-74.67-56.32-59.48-112.71,23.31-86.53,49.53-172.27,74.1-258.46,7.62-26.73,15.36-53.57,20.35-80.85,4.88-26.69-2.49-33.85-29.08-34.6-35.09-.99-37.96-6.12-21.5-37.48,2.33-4.43,4.68-7.64,9.98-8.3,78.99-9.81,156.34-31.6,236.56-32.41,1.45-.01,2.91.87,6.18,1.91Z" style="stroke-width: 0px;"/>
  <path d="M558.86,265.38c-.41-53.42,41.86-96.65,94.54-96.68,51.66-.02,93.45,41.73,94.56,94.48,1.1,52.27-44.88,98.6-97.13,97.87-48.4-.67-91.58-45.59-91.97-95.67Z" style="stroke-width: 0px;"/>
</svg>