<?xml version="1.0" encoding="UTF-8"?>
<svg id="Layer_1" data-name="Layer 1" xmlns="http://www.w3.org/2000/svg" viewBox="0 0 1145.54 1144.21">
  <path d="M573.34.12c295.36-6.21,572.1,239.27,572.2,572.49.1,319.39-256.13,572.63-583.73,571.6C260.95,1143.25-.73,884.99,0,566.78.65,285.12,237.7-5.19,573.34.12Z" style="fill: #040606; stroke-width: 0px;"/>
  <path d="M530.64,433.58c30,0,59.99-.02,89.99,0,41.49.04,56.93,17.83,49.78,59.59-8.68,50.69-18.7,101.16-27.92,151.76-10.47,57.4-20.53,114.87-31.18,172.24-2.31,12.43-1.67,24.45.79,36.6,4.43,21.88,20.3,32.87,42,28.29,15.84-3.35,30.4-10.35,44.74-17.77,10.61-5.49,22.48-15.49,32.54-1.34,9.05,12.72,2.09,25.29-7.09,35.35-34.05,37.27-76.35,58.67-126.69,63.24-30.79,2.79-61.62.35-91.98-4.42-49.16-7.72-89.47-66.62-81.1-117.81,15.5-94.72,31.74-189.31,47.51-283.99,1.64-9.83,2.73-19.82,3.21-29.77,1.01-20.96-8.89-33.15-29.97-36.52-12.85-2.06-25.66-4.75-38.24-8.07-11.32-2.98-19.65-10.03-18.71-22.82.98-13.27,9.48-20.32,22.46-22.24,29.86-4.41,59.9-1.52,89.86-2.28,9.99-.25,20-.04,30-.04Z" style="fill: #fefefe; stroke-width: 0px;"/>
  <path d="M691.29,283.5c.35,56.7-45.83,102.63-104.2,103.64-55.65.96-102.94-46.67-103.64-104.38-.69-57.36,46.78-103.21,106.63-102.98,55.86.22,100.85,46.32,101.2,103.71Z" style="fill: #fefefe; stroke-width: 0px;"/>
</svg>