<?xml version="1.0" encoding="UTF-8"?>
<svg id="Layer_1" data-name="Layer 1" xmlns="http://www.w3.org/2000/svg" viewBox="0 0 1147.65 1146.78">
  <path d="M574.33,1146.65C267.25,1153.56-9.84,892.05.27,549.57,8.75,262.08,259.7-1.65,576.71,0c308.97,1.62,571.68,259.11,570.94,576.49-.72,307.31-258.37,576.38-573.32,570.15Z" style="stroke-width: 0px;"/>
  <path d="M76.32,568.41c-3.19-265.47,220.4-488.22,493.9-492.06,271.94-3.82,498.83,220.04,501.55,494.85,2.67,270.63-219.8,496.91-491.29,500.42-277.1,3.59-507.01-222.63-504.16-503.2Z" style="fill: #fefefe; stroke-width: 0px;"/>
  <path d="M707.59,723.81c0,63.41.21,126.82-.06,190.23-.25,60.24-29.84,89.34-90.44,89.55-28.27.1-56.53.07-84.8,0-63.3-.15-91.59-28.69-91.65-92.8-.09-107.72-.03-215.44-.02-323.15,0-20.63-.57-41.27.14-61.88,1.74-50.06,30.75-78.95,80.96-80.12,32.83-.77,65.7-.39,98.55-.11,57.82.49,86.83,29.55,87.22,88.06.42,63.41.1,126.82.1,190.22Z" style="stroke-width: 0px;"/>
  <path d="M573.92,144.39c74-.08,133.22,59.42,133.31,133.94.09,70.81-62.11,132.67-133.46,132.72-73.76.06-132.97-61.17-133.09-137.61-.11-69.99,60.8-128.98,133.25-129.06Z" style="stroke-width: 0px;"/>
  <path d="M631.11,724.97c0,61.09-.45,122.18.34,183.26.19,14.71-3.32,20.04-18.83,19.25-25.89-1.33-51.94-1.11-77.86-.06-13.95.57-18.04-3.43-17.97-17.76.58-123.7.51-247.4.07-371.1-.04-12.74,3.07-17.4,16.46-16.9,26.69,1,53.47,1.09,80.15-.03,14.12-.59,18.15,3.52,17.97,17.79-.79,61.84-.34,123.7-.33,185.55Z" style="fill: #fefefe; stroke-width: 0px;"/>
  <path d="M574.03,221.09c30.59-.03,57.11,26.47,56.85,56.81-.26,30.36-27.28,56.23-58.08,55.62-29.98-.6-54.81-25.54-55.52-55.78-.71-30.24,25.72-56.62,56.75-56.65Z" style="fill: #fefefe; stroke-width: 0px;"/>
</svg>