<?xml version="1.0" encoding="UTF-8"?>
<svg id="Layer_1" data-name="Layer 1" xmlns="http://www.w3.org/2000/svg" viewBox="0 0 1054.34 1054.59">
  <path d="M528.68.01c293.58,1.9,528.66,239.47,525.64,531.21-3,289.95-238.68,523.9-527.24,523.37C232.28,1054.05-1.9,815.1.01,516.79,1.83,233.34,242.42-1.84,528.68.01Z" style="stroke-width: 0px;"/>
  <path d="M1018.81,528.26c-1.76,276.3-228.86,494.05-501.37,489.86-252.42-3.88-481.74-210.78-481.48-497.93.24-262.34,222.83-483.21,490.72-484.78,269.21-1.58,491.05,220.58,492.13,492.86Z" style="fill: #fefefe; stroke-width: 0px;"/>
  <path d="M528.02,214.28c57.81,0,115.64-.8,173.44.21,77.8,1.36,136.72,57.25,138.03,135.16,2,119.45,1.96,238.98-.07,358.42-1.23,72.08-62.02,130.11-135.71,131.03-117.92,1.49-235.89,1.63-353.81-.07-75.84-1.09-133.75-61.28-134.25-136.9-.79-118.71-.66-237.42-.07-356.13.33-67.94,59.41-127.9,127.46-131.2,3.85-.19,7.7-.51,11.55-.51,57.81-.03,115.63-.02,173.44-.01Z" style="stroke-width: 0px;"/>
  <path d="M527.3,802.6c-57.02,0-114.05.06-171.07-.02-60.15-.08-103.89-42.2-104.23-102.44-.64-116.36-.6-232.72-.04-349.08.27-55.91,44.03-99.42,100.02-99.67,117.13-.51,234.26-.5,351.39,0,53.88.23,98.6,41.32,99.36,95.54,1.7,120.96,1.6,241.96.1,362.92-.62,49.83-47.6,92.28-97.53,92.64-59.33.43-118.67.1-178.01.1Z" style="fill: #fefefe; stroke-width: 0px;"/>
  <path d="M526.42,693.9c-93.59-.2-166.26-74.94-166.06-170.81.18-88.07,76.78-163.3,166.78-163.8,92.19-.51,168.13,76.86,167.29,170.44-.82,91.15-75.75,164.37-168,164.17Z" style="stroke-width: 0px;"/>
  <path d="M738.46,340.32c-.12,16.29-14.59,30.66-31.27,31.06-16.69.4-30.06-13.72-29.75-31.41.29-16.51,14.58-31.18,30.72-31.56,15.4-.36,30.41,15.45,30.29,31.91Z" style="fill: #030303; stroke-width: 0px;"/>
  <path d="M524.49,658.07c-74.62-2.79-130.69-63.45-127.91-138.39,2.52-67.93,65.09-125.6,133.69-123.19,73.26,2.57,131.34,64.17,128.28,136.05-3,70.35-64.69,128.12-134.06,125.53Z" style="fill: #fefefe; stroke-width: 0px;"/>
</svg>