<?xml version="1.0" encoding="UTF-8"?>
<svg id="Layer_1" data-name="Layer 1" xmlns="http://www.w3.org/2000/svg" viewBox="0 0 964.49 963.58">
  <path d="M482.97.07c264.6-3.64,481.74,220.74,481.52,482.03-.21,261.19-217.54,481.74-482.85,481.49C215.21,963.33-.59,739.93,0,480.75.59,220.72,217.76-4.45,482.97.07Z" style="stroke-width: 0px;"/>
  <path d="M348.28,402.78c-7.48,39.31-6.69,77.1,8.38,113.94,3.28,8.02-4.17,11.39-8.39,15.63-24.9,25.06-50.16,49.77-75.04,74.86-17.66,17.8-24.54,38.7-16.56,63.34,7.64,23.57,26.28,33.65,48.45,38.94,17.74,4.23,33.24-1.3,45.82-13.77,48.35-47.93,96.94-95.64,144.34-144.51,26.85-27.68,20.66-71.65-13.33-90.53-16.53-9.18-12.94-18.8-6.3-29.07,12.26-18.97,30.71-32.58,45.99-48.99,5.5-5.91,9.19-.83,13.19,1.58,74.48,44.74,93.95,156.02,36.07,221.78-49.2,55.9-102.22,108.54-157.51,158.45-45.98,41.5-101.1,49.68-157.95,26.91-57.32-22.96-87.81-68.64-94.32-129.83-3.75-35.29,4.88-68.79,26.63-95.99,47.66-59.61,106.45-108.61,160.52-162.75Z" style="fill: #fefefe; stroke-width: 0px;"/>
  <path d="M615.21,561.61c10.37-38.07,8.46-73.67-4.62-108.55-3.55-9.46-2.42-14.75,4.6-21.57,25.78-25.05,51.03-50.65,76.25-76.28,25.06-25.48,26.42-61.21,3.54-84.36-24.01-24.3-60.29-24.29-86.16,1.07-44.46,43.59-88.74,87.38-132.41,131.77-34.8,35.37-30.63,73.92,11.2,101.04,12.02,7.79,7.02,16.18,3.37,22.8-11.93,21.67-32.48,36.03-49.15,53.71-5.67,6.02-10.56-1.33-14.87-3.97-73.26-45.06-90.44-157.69-31.25-222.35,48.93-53.46,100.38-104.83,153.3-154.36,56.65-53.01,142.51-54.29,198.77-6.76,60.46,51.08,73.92,133.66,31.7,201.32-15.73,25.21-39.5,43.73-60.11,64.78-31.43,32.1-63.76,63.34-95.76,94.88-2.56,2.52-5.59,4.56-8.41,6.83Z" style="fill: #fefefe; stroke-width: 0px;"/>
</svg>