<?xml version="1.0" encoding="UTF-8"?>
<svg id="Layer_1" data-name="Layer 1" xmlns="http://www.w3.org/2000/svg" viewBox="0 0 1176.45 1176.96">
  <path d="M586.07.64c132.53,0,265.1,1.86,397.58-.6,102.45-1.9,172.43,71.24,188.2,142.64,3.61,16.34,3.73,32.73,3.75,49.09.21,265.85-1.08,531.7.85,797.53.6,82.68-59.01,164.04-143.26,182.9-17.07,3.82-34.24,3.96-51.39,3.97-262.71.19-525.43-1.18-788.12.77-106.85.79-172.03-73.45-188.4-139.65-4.42-17.87-4.05-35.79-4.06-53.72C1.02,717.73,3.08,451.86.01,186.05-1.08,91.64,82.63-1.04,181.43.41c134.85,1.97,269.76.49,404.64.49,0-.09,0-.17,0-.26Z" style="stroke-width: 0px;"/>
  <path d="M44.99,588.58c0-132.56-.1-265.12.04-397.67.09-83.25,59.59-145.61,142.49-145.85,267.47-.75,534.94-.67,802.41-.04,79.79.19,140.4,63.12,141.75,145.19.9,54.89.18,109.81.18,164.71,0,206.29.03,412.58-.01,618.87-.02,98.9-59.08,158.38-157.45,158.41-258.06.07-516.11.07-774.17,0-96.28-.03-155.16-59.02-155.22-155.35-.08-129.42-.02-258.84-.02-388.26Z" style="fill: #fefefe; stroke-width: 0px;"/>
  <path d="M609.4,589.66c20.24-21.12,40.44-33.86,61.31-45.46,94.87-52.67,213.64-3.53,237.45,98.38,2.64,11.3,3.28,23.26,3.32,34.93.27,86.23-.46,172.46.63,258.68.23,18.41-5.5,22.13-22.45,21.46-33.65-1.33-67.45-1.49-101.09.05-17.88.82-20.04-6.43-19.81-21.6.81-53.29,1.15-106.62.08-159.91-1.25-62.3-53.77-98.86-109.41-77.41-29.54,11.38-49.49,39.56-49.82,72.86-.54,54.87-.71,109.75.13,164.61.24,15.46-2.41,22.19-20,21.44-34.43-1.47-68.97-.91-103.45-.18-12.33.26-16.16-3.69-16.13-15.96.34-140.32.38-280.64-.04-420.95-.04-12.9,4.56-15.73,16.38-15.53,36.05.63,72.13.85,108.17-.09,13.47-.35,15.29,5.31,14.93,16.52-.67,20.83-.19,41.7-.19,68.16Z" style="stroke-width: 0px;"/>
  <path d="M218.72,729.61c0-68.21.63-136.43-.44-204.62-.27-17.06,4.99-20.66,20.93-20.08,34.45,1.25,68.99.81,103.47.15,11.32-.22,14.53,3.31,14.5,14.56-.34,141.12-.34,282.24-.03,423.37.03,11.56-4.08,14.64-15.08,14.47-35.27-.57-70.59-1.05-105.82.18-15.29.54-17.95-4.9-17.82-18.69.64-69.77.3-139.55.3-209.33Z" style="stroke-width: 0px;"/>
  <path d="M356.96,296.98c-.49,37.6-31.41,67.93-69.17,67.84-38.75-.1-69.71-31.62-69.08-70.34.61-36.98,32.26-68.15,69.23-68.15,37.87,0,69.5,32.38,69.01,70.66Z" style="stroke-width: 0px;"/>
</svg>