<?xml version="1.0" encoding="UTF-8"?>
<svg id="Layer_1" data-name="Layer 1" xmlns="http://www.w3.org/2000/svg" viewBox="0 0 1340.87 1342.57">
  <path d="M.39,669.84C-12.46,315.78,297.45-1.22,669.71,0c381.01,1.25,670.91,320.83,671.16,671.24.25,357.49-296.66,670.24-670.89,671.32C308.05,1343.62-8.92,1042.68.39,669.84Z" style="stroke-width: 0px;"/>
  <path d="M663.32,1264.02c-332.27-5.26-591.27-273.71-586.25-607.66C81.91,334.61,354,73.6,679.21,78.74c325.86,5.15,588.18,276.6,583,603.31-5.12,323.04-276.83,587.07-598.9,581.98Z" style="fill: #fefefe; stroke-width: 0px;"/>
  <path d="M476.88,1038.94c-62.98-2.16-123.28-47.03-157.94-123.06-33.22-72.88-21.54-143.3,32.04-204.25,21.79-24.79,48.72-45.31,68.94-71.19,40.16-51.41,102.02-78.63,140.21-132.68,37.17-52.62,87.94-93.66,132.98-139.51,65.56-66.73,156.84-82.83,232.65-42.85,124.27,65.54,148.92,217.6,51.3,318.27-28.62,29.51-55.91,60.92-87.72,86.61-91.63,73.99-161.62,169.07-247.16,248.9-40.25,37.56-85.47,60.54-165.31,59.75Z" style="stroke-width: 0px;"/>
  <path d="M527.39,644.33c8.71,45.12,26.48,78.58,53.65,106.84,21.97,22.85,45.37,26.32,63.56,9.99,18.67-16.77,16.36-41.13-6.18-65.21-46.29-49.43-46.01-114.27,1.55-162.87,36.87-37.68,74.22-74.93,112.03-111.67,51.66-50.2,119.76-50.34,169.22-1.15,50.05,49.78,49.52,116.5-1.58,168.73-34.34,35.1-68.96,69.94-103.74,105.18-11.65-9.12-9.75-21.92-13.65-32.03-11.83-30.62-28.92-57.25-53.5-78.91-17.94-15.8-40.2-15.85-55.05-.72-15.21,15.5-15.7,37.46-1.23,55.61,1.11,1.39,2.33,2.7,3.51,4.05,53.97,61.72,52.27,118.86-5.37,176.49-34.76,34.75-69.29,69.75-104.56,103.97-51.17,49.63-117.74,49.79-166.72,1.12-50.79-50.46-51.37-116.47-.94-168.65,34.73-35.94,70.09-71.27,109.01-110.78Z" style="fill: #fefefe; stroke-width: 0px;"/>
</svg>