<?xml version="1.0" encoding="UTF-8"?>
<svg id="Layer_1" data-name="Layer 1" xmlns="http://www.w3.org/2000/svg" viewBox="0 0 1111.49 1113.83">
  <path d="M553.86,1113.73C257.68,1119.73-10.54,863.52.32,533.78,9.45,256.7,248.13-2.37,560.73.02c300.9,2.3,554.33,256.67,550.72,566.63-3.31,284.41-242.18,553.04-557.58,547.08Z" style="fill: #231f20; stroke-width: 0px;"/>
  <path d="M540.93,35.42c272.85-9.23,525.85,205.69,535.4,506.92,8.73,275.43-201.33,519.7-491.72,536.67-289.07,16.89-531.88-204.49-549.2-496.54C19.05,306.56,236.31,44.84,540.93,35.42Z" style="fill: #fefefe; stroke-width: 0px;"/>
  <path d="M617.7,549.68c32.97-36.04,70.17-53.08,114.85-49.89,57.2,4.09,89.87,36.44,91.57,94.06,1.91,64.53.38,129.15,1.08,193.72.13,11.72-4.61,13.1-14.31,12.91-26.63-.52-53.31-.96-79.9.14-13.71.57-17.42-3.38-17.18-17.23.89-51.2.47-102.43.31-153.65-.1-33.06-11.05-47.47-35.91-48.1-27.52-.7-46.33,17.06-46.94,47.58-1.01,50.46-.88,100.96-.02,151.42.25,14.66-2.11,21.06-18.69,20.07-25.81-1.54-51.8-1.1-77.66-.1-12.19.47-14.56-3.98-14.52-15.09.38-88.33.44-176.67-.06-265-.07-11.87,3.5-15.3,14.96-14.69,16.97.9,34.28,2.09,50.98-.23,21.54-2.99,29.02,6.3,29.29,25.86.06,4.4,1,8.78,2.14,18.23Z" style="stroke-width: 0px;"/>
  <path d="M340.31,653.33c0-43.75.4-87.5-.26-131.23-.18-12,2.26-16.86,15.46-16.35,27.31,1.05,54.69.74,82.02.11,10.59-.25,13.8,3.04,13.75,13.78-.39,88.97-.5,177.95.08,266.92.08,13.02-5.48,14.13-15.8,13.93-26.6-.5-53.24-.86-79.81.13-12.77.48-15.94-3.66-15.73-16.05.73-43.73.28-87.49.28-131.23Z" style="stroke-width: 0px;"/>
  <path d="M447.33,355.21c13.78,8.07,28.82,2.95,43.23,3.75,10.28.57,14.53,4.12,14.44,14.58-.31,34.87-.43,69.75.06,104.61.17,12.23-5.66,14.89-16.34,14.86-72.48-.24-144.96-.3-217.44.03-11.82.05-15.36-4.88-15.23-15.99.4-33.38.63-66.78-.11-100.16-.3-13.63,4.47-18.57,17.96-17.89,16.97.86,34.01.39,51.02.11,7.09-.12,15.07,2.33,20.45-5.09,6.72-1.42,10.83,3.21,15.48,6.67,27.2,20.27,44.68,20.45,71.63,1.19,4.39-3.14,7.58-9.69,14.84-6.67Z" style="fill: #e9eaee; stroke-width: 0px;"/>
  <path d="M447.33,355.21c-33.65,36.72-68.37,36.32-101.95-1.19-7.06-19.29-9.62-38.9-1.05-58.21,12.35-27.82,44.96-40.02,75.34-28.94,25.17,9.18,41.66,42.35,34.34,69.63-1.71,6.38-4.43,12.48-6.68,18.71Z" style="stroke-width: 0px;"/>
</svg>