<?xml version="1.0" encoding="UTF-8"?>
<svg id="Layer_1" data-name="Layer 1" xmlns="http://www.w3.org/2000/svg" viewBox="0 0 1137.37 1138.88">
  <path d="M.87,568.1c0-156.37,1.53-312.76-.86-469.09C-.78,47.01,38.62-.28,99.56,0c312.73,1.43,625.48.63,938.21.69,63.43.01,98.62,34.87,98.65,98.39.15,313.5-.77,627,.95,940.48.27,48.61-37.78,99.54-97.47,99.31-314.25-1.21-628.51-.34-942.77-.76-61.57-.08-96.13-36.42-96.2-98.64-.18-157.13-.06-314.25-.06-471.38Z" style="stroke-width: 0px;"/>
  <path d="M607.61,498.97c65.5-94.43,226.78-94.61,293.98-38.35,42.45,35.54,58.84,81.51,65.52,132.72,8.77,67.24,2.51,134.97,3.57,202.48.67,42.5-.45,85.04.12,127.54.17,12.63-3.25,17.17-16.53,16.94-44.78-.76-89.6-.98-134.37.1-15.18.37-19.23-4.39-19.3-18.96-.42-85.03-1.68-170.05-2.65-255.08-.05-4.55-.1-9.11-.18-13.66-.95-53.17-20.49-82.73-59.24-89.6-56.13-9.96-100.2,12.27-119.22,59.46-4.15,10.29-4.39,20.62-4.39,31.23,0,88.83-.4,177.66.37,266.48.14,16.1-4.54,20.48-20.38,20.11-44.77-1.04-89.59-.81-134.37-.09-13.03.21-16.64-3.82-16.61-16.71.4-157.92.4-315.83-.02-473.75-.03-12.48,4.2-15.09,15.64-14.95,44.79.56,89.59.57,134.38-.02,10.97-.14,14.56,2.99,13.91,13.98-.89,15.11-.22,30.31-.22,50.13Z" style="fill: #fefefe; stroke-width: 0px;"/>
  <path d="M168.71,686.46c0-76.67.71-153.36-.5-230.02-.29-18.65,5.64-22.18,22.64-21.72,43.24,1.16,86.54.86,129.8.09,12.89-.23,16.64,3.4,16.61,16.44-.42,157.14-.44,314.29.04,471.43.04,14.28-4.51,17.87-18.18,17.62-44.02-.79-88.08-1.03-132.08.1-15.67.4-18.75-4.96-18.63-19.37.64-78.19.3-156.38.31-234.58Z" style="fill: #fefefe; stroke-width: 0px;"/>
  <path d="M156.42,275.99c.18-51.57,44.66-94.48,97.1-93.68,52.42.8,94.06,43.52,94.36,96.79.29,51.85-43.23,94.57-96.24,94.48-53.95-.1-95.41-42.59-95.22-97.58Z" style="fill: #fefefe; stroke-width: 0px;"/>
</svg>