<?xml version="1.0" encoding="UTF-8"?>
<svg id="Layer_1" data-name="Layer 1" xmlns="http://www.w3.org/2000/svg" viewBox="0 0 965.91 968.57">
  <path d="M247.25,968.57c-46.98-.91-84.72-14.74-115.39-46.55-24.68-25.6-48.77-52-75.42-75.43-78.1-68.65-66.64-171.81-17.17-240.05,9.41-12.98,20.03-25.27,31.33-36.65,67.61-68.09,135.29-136.12,203.52-203.6,60.48-59.81,151.95-75.31,220.24-38.49,11.34,6.12,21.18,13.92,30.24,23.03,28.84,29.04,57.89,57.88,86.89,86.76,17.83,17.76,20.66,35.13,7.95,49.39-14.06,15.76-33.67,15.24-52.78-3.13-26.58-25.57-53.42-51.03-78.06-78.42-37.85-42.07-85.51-41.02-130.1-20.05-16.38,7.7-31.06,18.31-44.01,31.31-66.79,67.02-133.79,133.82-200.65,200.76-23.67,23.7-41.53,50.9-47.94,84.32-6.16,32.07-.67,61.4,23,85.51,27.72,28.24,55.21,56.72,83.62,84.26,37.6,36.45,81.84,42.66,129.06,18.95,17.45-8.76,33.07-20.19,46.98-34.08,46.53-46.47,93.3-92.69,139.98-139,16.85-16.72,33.79-18.76,47.52-5.77,15.39,14.56,14.97,33.63-2.33,51.07-47.72,48.13-95.28,96.42-143.9,143.62-40.44,39.25-89.26,60.49-142.58,62.23Z" style="stroke-width: 0px;"/>
  <path d="M965.91,250.21c-1.41,49.7-19.78,96.9-56.43,134.7-73.34,75.63-146.64,151.52-223.83,223.12-52.26,48.48-116.55,67.27-188.2,45.86-19.59-5.85-36.94-15.73-51.52-30.1-31.07-30.62-62.14-61.24-92.88-92.18-17.99-18.11-18.95-35.72-3.72-50.98,13.42-13.44,31.87-11.21,48.99,5.97,25.57,25.68,50.98,51.51,76.7,77.03,39.84,39.53,85.92,46.34,135.54,19.58,11.71-6.32,23.78-13.27,33.09-22.53,74.69-74.29,149.28-148.71,222.72-224.24,22.98-23.63,34.37-54.03,35.4-87.49.82-26.76-7.84-49.61-27.45-68.62-26.98-26.14-52.97-53.29-79.67-79.73-38.88-38.5-78.88-45.27-128.25-21.51-18.2,8.76-34.49,20.38-48.88,34.83-45.95,46.13-92.25,91.9-138.39,137.83-9.27,9.23-19.26,17.41-33.42,14.83-25.38-4.63-37.14-34.02-18.77-52.54,57.15-57.6,109.58-120.55,174.14-169.96,56.53-43.26,123.75-60.59,188.57-24.79,67.84,37.47,119.77,96.01,161.95,161.35,12.33,19.1,14.12,43.03,14.31,69.57Z" style="stroke-width: 0px;"/>
</svg>