<?xml version="1.0" encoding="UTF-8"?>
<svg id="Layer_1" data-name="Layer 1" xmlns="http://www.w3.org/2000/svg" viewBox="0 0 1189.14 1188.22">
  <path d="M594.36.07c325.59-5.03,594.72,270.43,594.78,593.37.06,323.46-267.76,594.51-594.3,594.78C267.83,1188.49.01,915.98,0,593.85-.01,270.53,268.86-4.69,594.36.07Z" style="stroke-width: 0px;"/>
  <path d="M318.91,508.26c-1.98-152.41,108.3-272.96,255.59-285.93,138.29-12.18,270.47,90.39,291.97,229.99,14.65,95.12-11.62,183.58-56.05,266.86-50.21,94.09-120.04,172.05-201.8,239.95-11.07,9.19-19.61,8.44-29.16.3-126.9-108.05-227.21-233.14-256.45-403.22-3.07-17.87-3.15-36.24-4.1-47.96Z" style="fill: #fefefe; stroke-width: 0px;"/>
  <path d="M588.96,644.97c-83.31-5.23-145.86-73.03-141.65-153.5,4.42-84.33,72.54-145.49,156.17-140.2,82.18,5.19,143.49,73.66,137.75,153.82-5.87,82.03-74.19,144.78-152.28,139.87Z" style="stroke-width: 0px;"/>
  <path d="M702.56,496.03c.43,60.77-46.68,109.15-106.65,109.52-60.89.38-108.48-46.24-109.18-106.93-.68-59.53,48.16-108.89,107.86-108.99,58.83-.1,107.57,47.92,107.98,106.4Z" style="fill: #fefefe; stroke-width: 0px;"/>
</svg>