<?xml version="1.0" encoding="UTF-8"?>
<svg id="Layer_1" data-name="Layer 1" xmlns="http://www.w3.org/2000/svg" viewBox="0 0 1259.76 1261.15">
  <path d="M1259.59,630.61c8.15,333.71-274.34,629.32-628.34,630.54C292.98,1262.32,1.42,979.88,0,629.19-1.34,296.42,282.31-1.13,631.06,0c349.12,1.13,636.39,293.47,628.52,630.61Z" style="stroke-width: 0px;"/>
  <path d="M630.41,1028.23c-38.87-60.92-72.37-120.72-105.16-180.87-50.07-91.87-96.7-185.24-131.31-284.46-51.51-147.68,43.77-287.69,175.4-321.47,140.25-35.99,281.19,55.16,308.81,199.75,7.9,41.39,2.67,81.61-10.77,121.31-42.4,125.19-106.3,239.95-171.29,354.17-20.69,36.37-42.42,72.14-65.67,111.56Z" style="fill: #fefefe; stroke-width: 0px;"/>
  <path d="M631.64,588.57c-58.88.39-104.18-45.28-104.45-105.32-.25-55.48,45.95-101.42,102.55-101.98,58.13-.58,104.89,46.46,104.74,105.34-.14,55.69-46.44,101.59-102.85,101.97Z" style="stroke-width: 0px;"/>
</svg>