<?xml version="1.0" encoding="UTF-8"?>
<svg id="Layer_1" data-name="Layer 1" xmlns="http://www.w3.org/2000/svg" viewBox="0 0 1135.8 1011.73">
  <path d="M561.59,843.56c-190.37.05-344.7-153.15-345.33-342.8-.63-189.2,156.23-345.39,346.25-344.78,189.1.61,344.03,155.73,344.26,344.69.23,188.8-154.84,342.84-345.18,342.89Z" style="stroke-width: 0px;"/>
  <path d="M998.51,566.61c-9.79,13.32-19.41,26.76-29.41,39.92-10.49,13.8-24.15,20.12-39.1,8.75-14.3-10.89-14.39-25.58-3.69-40.04,28.86-38.98,57.41-78.2,86.74-116.82,13.6-17.9,33.49-17.97,44.78,1.28,25.99,44.33,50.4,89.61,74.71,134.91,8.08,15.07.15,26.48-13.06,33.95-13.88,7.85-25.42,2.01-33-9.97-10.26-16.21-18.93-33.43-31.01-55.12-10.83,94.85-40.66,175.9-93.46,248.34-148.53,203.78-436.61,260.87-652.01,129-90.08-55.14-155.29-131.52-197.39-228.2-7.58-17.42-12.75-33.71,7.16-45.47,15.25-9,30.3.31,40.82,23.98,55.09,124.02,146.7,208.97,276.37,248.35,247.97,75.3,501.01-75.95,556.7-322.39,3.66-16.19,5.74-32.73,8.56-49.11-1.24-.44-2.47-.89-3.71-1.33Z" style="stroke-width: 0px;"/>
  <path d="M136.01,444.79c10.92-14.27,21.9-28.51,32.76-42.83,9.84-12.98,22.62-16.23,35.7-7.16,13.79,9.55,16.54,23.73,6.5,37.79-29.07,40.69-58.21,81.34-88.4,121.2-14.01,18.49-34.78,16.87-46.32-3.28-24.42-42.66-47.78-85.93-71.4-129.04-8.05-14.7-6.49-28.9,8.05-37.71,16.04-9.71,29.15-2.49,38.09,12.49,8.84,14.82,17.06,30.01,28.13,49.6,6.44-37.07,11.73-69.38,21.33-100.88C163.44,138.17,358.42-6.16,574.69.2c211.07,6.21,359.85,110.01,449.18,300.39,4.1,8.74,9.5,17.91,4.9,28.16-4.61,10.27-12.07,17.38-24.05,18.17-14.64.96-22.27-8.16-27.15-19.98-17.15-41.57-38.78-80.63-68.37-114.51C791.16,77.24,642.98,23.36,468.33,65.12c-174.35,41.69-282.56,155.99-326.52,330.12-3.99,15.8-6.03,32.1-8.98,48.17,1.06.46,2.12.92,3.17,1.38Z" style="stroke-width: 0px;"/>
  <path d="M588.64,410.05c-.22,5.06-.14,7.35-.45,9.59-4.84,34.56,2.38,57.35,40.17,73.96,55.6,24.43,54.85,92.84,2.78,125.19-9.53,5.92-20,11.04-30.72,14.12-9.06,2.6-11.99,6.45-12.06,15.62-.11,16.12-6.78,28.89-24.89,29.02-17.52.13-29.91-9.23-28.77-27.68.93-15.03-9.69-12.8-17.25-15.01-41.12-12.01-62.41-41.67-61.19-84.18.47-16.4,7.32-26.3,23.54-27.6,17.04-1.36,26.94,6.99,28.91,24.6,1.33,11.9,1.51,24.74,13.49,32.19,7.07,4.4,12.81,5.43,12.63-6.21-.27-17.44-.63-34.9.17-52.31.41-8.93-4.2-11.93-11.14-14.12-12.42-3.93-23.22-10.96-33.6-18.51-26.01-18.92-40.17-44.27-33.34-76.5,6.93-32.74,28.41-54.95,60.53-64.49,10.36-3.08,17.18-4.71,18.95-17.15,1.87-13.13,12.4-17.88,25.23-17.87,13.29,0,23.16,6.54,24.35,19.08,1.47,15.45,10.36,20.45,22.73,25.96,27.24,12.11,42.92,34.84,51.7,62.76,4.93,15.67-.46,27.4-15.09,33.31-13.9,5.62-25.22-.3-32.69-12.78-6.36-10.62-9.55-23.52-23.99-30.99Z" style="fill: #fefefe; stroke-width: 0px;"/>
  <path d="M534.3,454.99c-35.38-10.87-32.52-35.88-16.74-49.63,3.99-3.47,9.08-7.08,14.24-4.68,4.69,2.18,2.32,8.02,2.4,12.22.26,13.53.1,27.07.1,42.09Z" style="fill: #030303; stroke-width: 0px;"/>
  <path d="M588.07,532.28c14.44,2.11,24.85,7.36,27.75,20.49,2.52,11.37-6.53,17.36-14.67,22.91-8.42,5.74-13.6,5.41-13.18-6.83.41-11.79.09-23.6.09-36.58Z" style="fill: #050505; stroke-width: 0px;"/>
</svg>