<?xml version="1.0" encoding="UTF-8"?>
<svg id="Layer_1" data-name="Layer 1" xmlns="http://www.w3.org/2000/svg" viewBox="0 0 1405.49 1090.42">
  <path d="M703.26,409.95c121.03,0,242.06-.02,363.09.01,43.51.01,45.47,2.06,45.48,46.61.02,107.89.07,215.79-.02,323.68-.03,35.54-3.35,38.91-38.62,38.93-152.93.08-305.86.03-458.79.04-19.84,0-48.62,25.64-49.48,44.58-.54,11.86,9.91,9.02,16.08,10.03,71.18,11.64,142.44,22.84,213.68,34.15,36.08,5.73,72.29,10.8,108.22,17.33,45.83,8.33,76.07,46.12,72.62,89.08-3.54,44.14-37.66,75.87-85.04,75.95-128.53.22-257.06.01-385.58-1.41-52.43-.58-100.67-19.63-147.43-41.69-33.81-15.94-68.43-30.87-100.23-50.28-72.37-44.19-151.92-42.53-231.71-40.29-19.18.54-25.85-4.17-25.54-24.46.28-18.52,5.24-23.65,23.72-23.35,62.78,1,126.84-5.05,186.58,17.67,49.61,18.87,97.3,43.5,144.17,68.69,68.69,36.92,141.43,52.07,218.81,51.33,104.13-.99,208.28-.37,312.42-.14,18.5.04,32.85-5.61,41.18-23.17,6.92-14.59,3.17-27.51-5.99-39.28-7.26-9.33-17.48-12.65-29.26-14.5-116.61-18.23-233.11-37.21-349.71-55.49-19.74-3.09-37.31-9.04-54.13-20.64-55.49-38.28-111.33-76.16-168.39-112.03-18.41-11.57-9.59-19.04-2.68-30.24,7.45-12.08,11.94-20.68,29-8.51,49.54,35.33,101.21,67.65,151.23,102.32,14.39,9.97,20.69,8.44,30.02-6.48,25.86-41.36,22.14-72.63-15.74-103.1-37.98-30.56-76.14-60.9-114.51-90.97-74.3-58.23-154.69-66.93-239.58-26.59-41.81,19.87-84.51,35.72-130.69,40.21-9.78.95-26.79,9.45-25.59-13.02.75-14.08-7.65-31.71,20.2-32.32,39.82-.87,76.51-16.06,111.94-33.97,44.19-22.33,90.72-35.98,140.74-30.38,19.27,2.16,21.58-5.85,20.88-21.88-1.13-26.22-.41-52.53-.28-78.8.16-32.83,4.52-37.52,37.37-37.57,123.84-.18,247.69-.07,371.53-.07Z" style="stroke-width: 0px;"/>
  <path d="M1316.82,637.14c-16.89,0-33.78.07-50.67-.01-34.24-.17-39.83-5.8-41.85-40.94-5.71-99.05-44.44-182.89-117.11-250.45-67.34-62.61-147.82-93.54-239.45-96.08-14.07-.39-28.15-.17-42.23-.16-15.95.02-34.47-4.95-47.2,1.48-15.53,7.86-3.94,28.44-6.76,43.2-4.02,21.06-16.51,29.22-36.57,19.36-88.96-43.72-177.64-88.01-266.03-132.85-21.69-11-22.54-32.09-.98-43.16,88.18-45.3,176.8-89.74,265.9-133.19,22.38-10.91,35.47-.76,37.71,24.57,3.48,39.42,3.54,40.83,43.26,39.16,130.27-5.47,252.15,21.1,358.79,98.43,148.07,107.38,227.75,252.36,231.84,437.07.54,24.27-8.06,34.83-32.35,33.73-18.73-.84-37.53-.17-56.3-.17Z" style="stroke-width: 0px;"/>
  <path d="M446.68,627.52c-18.04-19.25-39.8-33.8-63.08-49.17,44.35-25.9,76.59-60.48,87.41-111.41,2.26-10.64,9.63-11.97,18.96-11.96,141.66.16,283.32.24,424.97-.12,12.46-.03,18.28,3.91,21.47,16.25,15.98,61.72,56.03,100.33,117.3,115.74,15.67,3.94,13.66,13.59,12.44,22.97-1.48,11.38,8.77,27.66-11.36,32.63-64.17,15.85-104.02,56.07-119.87,120.03-2.81,11.33-10.61,10.83-19.34,10.82-104.13-.11-208.26-.07-312.4-.08-7.31,0-15.48,1.78-18-8.48-11.08-45.07-49.47-66.43-81.25-93.51-12.79-10.9-25.73-21.63-38.6-32.45,12.97-13.07,29.69-6.89,44.84-8.66,10.07-1.18,22.13-.04,22.77-14.42.68-15.25-11.89-12.89-21.67-14.89-27.82-5.72-48.04,5.82-64.61,26.72Z" style="fill: #fefefe; stroke-width: 0px;"/>
  <path d="M979.84,773.23c10.97-48.9,40.78-78.12,86.7-86.17,0,24.48-.56,48.64.24,72.76.4,11.92-4.93,13.8-15.04,13.58-23.35-.52-46.71-.17-71.91-.17Z" style="fill: #fdfdfd; stroke-width: 0px;"/>
  <path d="M339.62,500.22c0-45.15,0-45.62,44.5-44.87,13.37.22,32.84-7.55,38.87,4.43,7.29,14.48-8.01,28.96-16.88,41.62-11.41,16.27-27.36,27.17-45.42,35.8-17.5,8.37-23.49,4.28-21.21-14.67.88-7.34.14-14.87.14-22.31Z" style="fill: #fdfdfd; stroke-width: 0px;"/>
  <path d="M1066.54,502.17c-3.26,11.51,7.88,32.96-5.52,37.84-14.43,5.25-30.61-9.4-43.8-19.88-2.91-2.31-5.74-4.83-8.1-7.68-12.97-15.66-32.95-32.9-25.45-52.23,5.14-13.25,30.31-4.43,46.42-4.85,36.44-.95,36.46-.3,36.46,46.8Z" style="fill: #fdfdfd; stroke-width: 0px;"/>
  <path d="M446.68,627.52c.87-.33,1.93-.45,2.59-1.03,10.53-9.25-5.83-30.58,9.85-32.99,25.49-3.93,52.51-4.12,77.92.01,13.82,2.25,4.44,20.72,6.25,31.71,1.68,10.14-4.93,12.08-13.75,12.12-21.4.08-42.8.91-64.2,1.44-6.22-3.75-12.44-7.51-18.66-11.26Z" style="fill: #040404; stroke-width: 0px;"/>
  <path d="M526.92,159.36c63.45-31.9,121.2-60.59,178.56-90.02,14.29-7.33,22.22-9,20.72,11.44-1.96,26.56,13.56,32.99,37.19,32.92,70.22-.19,140.45-2.83,210.11,11.63,185.54,38.52,350.02,209.56,379.81,396.77,11.36,71.36,11.36,70.94-60.91,70.31-15.65-.14-22.2-2.48-24.02-20.78-20.37-204.47-193.75-363.51-398.82-366.99-34.69-.59-69.45.96-104.09-.55-26.68-1.17-41.85,6.74-39.53,36.05.81,10.2.94,19.97-14.7,12.02-59.68-30.38-119.6-60.26-184.31-92.78Z" style="fill: #fefefe; stroke-width: 0px;"/>
  <path d="M816.86,615.36c.85,59.03-52.58,112.13-113.42,112.72-61.85.6-113.24-50.73-114.4-114.27-1.1-60.21,49.82-112.09,111.64-113.75,62.97-1.69,115.24,50.19,116.18,115.29Z" style="fill: #010101; stroke-width: 0px;"/>
  <path d="M907.14,637.18c-6.55,0-13.21-.78-19.63.15-18.86,2.73-25.59-3.33-25.78-23.82-.19-20.47,8.23-22.92,24.61-21.71,13.96,1.03,28.17,1.33,42.07-.06,18.39-1.84,26.84,2.37,25.7,23.54-.88,16.34-3.56,24.74-21.73,22.11-8.25-1.19-16.82-.2-25.24-.2Z" style="fill: #040404; stroke-width: 0px;"/>
  <path d="M701.72,547.28c37.82-.62,68.07,28.24,69.37,66.2,1.22,35.38-30.92,68.76-66.97,69.55-35.89.79-68.07-30.48-69.16-67.17-1.09-37.01,29.02-67.95,66.75-68.57Z" style="fill: #fefefe; stroke-width: 0px;"/>
</svg>