<?xml version="1.0" encoding="UTF-8"?>
<svg id="Layer_1" data-name="Layer 1" xmlns="http://www.w3.org/2000/svg" viewBox="0 0 1011.38 1154.32">
  <path d="M171.77,944.29c0-33.91.66-67.84-.31-101.73-.41-14.38,2.62-19.69,18.5-19.43,42.02.69,82.51,6.68,121.35,23.61,58.25,25.39,120.67,29.48,182.89,32.91,42.29,2.33,84.78,1.11,127.06,3.55,27.68,1.6,43.56,19.32,45.92,45.76,3.05,34.09-16.36,56.42-51.2,56.35-50.09-.1-100.18-1.64-150.26-2.55-5.39-.1-10.79-.33-16.18-.18-9.92.28-18.64,2.16-19.02,14.88-.38,12.69,7.9,15.58,18.02,15.78,21.57.44,43.16.56,64.74.71,36.22.25,72.44.28,108.66.68,22.29.24,41.21-8.13,54.52-25.19,9.97-12.78,22.38-20.27,36.2-27.24,73.37-37.02,146.55-74.44,219.83-111.64,29.86-15.16,59.07-7.02,72.77,20.06,13.94,27.56,3.63,55.69-26.2,71.18-113.13,58.72-226.15,117.66-339.48,175.98-53.07,27.31-110.28,26.15-167.2,19.27-68.2-8.25-133.98-27.05-197.85-52.31-27.71-10.96-57.09-12.66-86.08-14.87-14.88-1.14-17.25-6.16-16.95-19.23.81-35.44.28-70.9.28-106.35Z" style="stroke-width: 0px;"/>
  <path d="M319.7,396.13c1.63-101.43,87.18-184.55,187.86-182.52,103.1,2.08,185.04,87.2,182.76,189.88-2.27,102.49-86.7,184.4-187.76,182.16-103.71-2.3-184.52-86.06-182.86-189.52Z" style="stroke-width: 0px;"/>
  <path d="M.53,943.63c0-63.22.56-126.45-.4-189.66-.24-15.59,4.55-19.12,19.24-18.67,34.66,1.05,69.39.88,104.06.06,13.29-.31,18.9,1.97,18.82,17.34-.65,127.98-.64,255.96,0,383.94.07,15.18-5.24,17.82-18.72,17.48-33.9-.86-67.88-1.22-101.75.11-16.66.66-22.15-2.86-21.76-20.96,1.33-63.19.51-126.43.51-189.65Z" style="stroke-width: 0px;"/>
  <path d="M833.7,287.29c8.02.34,12.07,5.73,15.62,11.97,16.69,29.4,33.92,58.5,50.03,88.21,10.03,18.5,4.68,26.3-16.95,27.34-35.02,1.68-33.79,1.87-39.17,36.54-15.83,102.1-67.2,181.74-153.73,238.56-8.9,5.84-16.97,7.71-23.91-2.26-8.48-12.18.68-18.6,9.06-24.1,62.12-40.8,104.52-96.58,127.63-167.07,6.95-21.21,11.34-42.91,13.55-65.26,1.38-13.95-3.18-18.14-16.03-16.44-3.03.4-6.16.08-9.24.05-32.72-.27-36.54-6.74-20.4-35.02,14.85-26.02,29.9-51.92,44.81-77.9,4.28-7.45,8.4-14.98,18.73-14.61Z" style="stroke-width: 0px;"/>
  <path d="M177.09,513.92c-8.07-1.28-12.1-6.77-15.65-12.91-16.92-29.24-34.28-58.23-50.68-87.76-9.94-17.88-4.11-27.3,16.22-28.55,35.51-2.17,34.28-2.37,39.96-37.67,16.27-101.16,68.03-179.66,153.72-235.84,8.43-5.53,16.99-9.24,24.13.85,8.94,12.63.01,19.25-9.69,25.53-75.83,49.08-119.9,119.31-137.56,207.06-.61,3.01-1.4,6-1.82,9.03q-4.23,30.55,26.71,31.03c27.22.42,32.59,8.83,19.66,31.74-15.48,27.41-31.39,54.58-47.2,81.81-4.21,7.26-8.01,15.18-17.8,15.67Z" style="stroke-width: 0px;"/>
  <path d="M618.32,729.62c-1.06,7.67-6.01,12.17-12.29,15.76-29.36,16.79-58.48,34.03-88.09,50.37-18.49,10.2-26.61,4.9-27.5-16.57-.06-1.54,0-3.08-.01-4.63-.41-31.4-.68-29.5-31.49-33.97-104.08-15.1-184.81-67.62-242.58-155.54-5.81-8.84-7.77-16.85,2.17-23.92,10.59-7.53,17.38-1.08,22.76,7.11,24.83,37.82,55.42,69.65,93.5,94.51,42.07,27.47,88.03,43,137.6,49.53,14.14,1.86,20.59-1.15,18.07-16.25-.5-3-.08-6.16-.06-9.24.19-31.92,7.36-36.14,34.95-20.43,26.06,14.83,52.02,29.83,78.09,44.64,7.55,4.29,14.72,8.67,14.88,18.61Z" style="stroke-width: 0px;"/>
  <path d="M503.02,0c13.29.11,15.94,7.25,16.67,16.75,1,12.92-5.5,28.93,2.88,38,8.39,9.09,24.96,4.45,37.75,6.83,97.81,18.2,175.72,67.18,231.45,150.31,6.48,9.66,12.06,19.77-.6,27.66-11.6,7.23-18.11-2.15-23.98-10.78-50.04-73.6-118.86-118.97-205.97-136.75-4.52-.92-9.14-1.46-13.62-2.55-20.96-5.09-30.14.16-28.5,24.48,2.19,32.42-6.57,36.65-34.32,20.48-27.24-15.88-54.65-31.5-81.51-48-15.37-9.44-15.79-20.72-.73-29.99,29.46-18.14,59.6-35.16,89.59-52.43,3.85-2.22,8.45-3.14,10.88-4.01Z" style="stroke-width: 0px;"/>
  <path d="M567.92,450.32c-1.07,20.48-10.26,40-31.01,50.41-13.85,6.94-19.21,14.91-17.43,29.91,1.19,10.01,1,20.92-14.07,21.13-14.77.2-15.75-9.92-14.87-20.46,1.27-15.18-2.34-24.42-18.44-31.62-18.07-8.08-27.24-26.13-28.76-46.89-.67-9.08-.52-17.8,10.37-19.85,10.74-2.02,17.48,2.56,18.98,14.37.75,5.91,2.53,12.28,5.78,17.16,7.78,11.71,18.93,17.65,33.37,14.03,15.04-3.78,24.27-13.71,25.18-29.12.91-15.49-7.74-26.33-21.66-32.11-5.48-2.27-12.11-1.73-18.19-2.62-26.61-3.88-47.06-22.53-52.71-48-6.07-27.33,3.67-55.15,27.84-67.45,14.62-7.44,20.27-15.75,18.25-31.27-1.42-10.95,1.08-20.83,14.87-20.61,14.02.22,15.48,10.82,14.14,21.31-2.03,15.79,3.99,23.96,18.64,31.18,20.12,9.93,27.69,29.95,28.87,51.89.4,7.44-1.91,13.83-10.93,14.75-8.33.85-15.57-.43-18-10-.94-3.71-.84-7.72-1.99-11.35-5.63-17.83-17.83-27.21-36.53-24.24-16.45,2.61-25.91,14.27-26.51,30.5-.7,19.01,10.62,30.26,28.96,32.72,13.1,1.76,25.79,3.26,37.04,11.03,18.47,12.75,27.69,30.35,28.81,55.21Z" style="fill: #fdfdfd; stroke-width: 0px;"/>
</svg>