<?xml version="1.0" encoding="UTF-8"?>
<svg id="Layer_1" data-name="Layer 1" xmlns="http://www.w3.org/2000/svg" viewBox="0 0 1171.03 1129.21">
  <path d="M410.95,138.83c30.51-.01,61.03-.54,91.52.25,12.14.31,16.18-3.12,15.87-15.6-.82-32.83-.04-65.71-.37-98.56-.17-17.41,6.4-25.7,25.13-24.86,25.76,1.16,51.62.28,77.43.29,30.74.02,32.4,1.7,32.47,33.64.06,28.94.79,57.92-.31,86.82-.55,14.23,3.2,18.6,17.97,18.38,58.66-.89,117.34-.49,176.01-.3,26.52.08,31.24,5.1,31.62,31.65.03,2.35-.13,4.7.03,7.04,1.03,15.4-6.48,34.84,3.08,45.11,8.75,9.41,28.11,2.78,42.76,2.85,20.32.1,24.8,12.13,24.74,29.14-.16,48.5.5,97.01-.42,145.5-.25,13.28,4.07,18.97,16.28,23.34,36.68,13.12,72.86,27.65,109.24,41.63,26.67,10.25,28.81,14.65,19.41,41.74-40.1,115.6-79.73,231.37-120.94,346.57-7.16,20-.73,28.53,15.73,35.93,22.79,10.25,48.02,4.89,70.41-16.69,13.48-12.99,25.04-27.93,40.89-38.47,15.26-10.15,31.35-17.19,50.09-17.44,11.48-.15,20.22,2.18,21.34,15.75,1.01,12.29-4.52,20.67-16.53,21.03-27.34.8-43.65,18.48-60.24,36.37-26.11,28.16-55.74,47.29-96.83,40.86-24.54-3.84-43.07-17.24-60.27-33.49-9.09-8.58-17.13-18.34-26.61-26.44-27.46-23.47-57.51-22.69-84.11,1.98-12.04,11.16-22.88,23.63-35.13,34.53-35.05,31.18-80.06,33.36-118.51,6.79-16.27-11.24-28.58-26.56-42.9-39.81-30.47-28.19-60.92-27.7-90.8,1.31-11.22,10.89-21.64,22.69-33.52,32.79-36.25,30.82-80.03,32.7-118.25,4.32-14.32-10.63-26.47-24.2-39.52-36.53-32.09-30.32-63.14-30.1-94.41.79-8.35,8.24-16.18,17.05-24.9,24.87-46.41,41.58-96.3,40.88-141.9-1.85-6.84-6.41-13.22-13.32-19.78-20.03-13.34-13.64-27.55-25.1-48.13-25.94-12.98-.53-19.64-8.22-18.41-21.86,1.23-13.69,10.24-15.71,21.58-15.42,15.26.39,28.95,4.77,41.92,12.91,18.81,11.79,33.52,27.94,49.05,43.37,24.87,24.71,48.99,27.11,78.33,11.08,14.23-7.77,17.67-15.46,12.01-31.51-40.5-114.62-79.94-229.62-119.71-344.51-10.3-29.76-9.17-32.3,19.24-43.34,34.14-13.27,68.07-27.16,102.57-39.43,13.15-4.68,17.76-11,17.47-25.19-.98-47.7-.49-95.43-.32-143.15.1-26.65,4.79-31.09,31.52-31.32q38.98-.33,38.98-38.59c0-7.04.22-14.09-.04-21.12-.68-18.55,7.86-27.46,26.68-27.25,30.51.33,61.02.09,91.53.08Z" style="stroke-width: 0px;"/>
  <path d="M1009.11,1127.98c-29.87,1.39-52.92-13.93-73.69-33.91-7.32-7.04-13.51-15.24-20.85-22.25-27.22-25.98-60.07-26.35-87.95-.93-9.23,8.42-17.44,17.97-26.49,26.6-44.41,42.33-102.4,42.04-146.47-.59-63.27-61.2-73.3-61.22-136.64-.28-45.51,43.78-105.48,43.05-149.97-1.91-4.4-4.44-8.38-9.29-12.61-13.9-34.77-37.88-69.02-38.61-104.45-2.25-6.01,6.16-11.85,12.5-18.04,18.46-44.27,42.6-102.74,43.17-146.23.15-21.13-20.9-39.34-44.43-72.74-46.75-10.53-.73-13.98-11.15-12.76-21.81,1.4-12.21,9.44-14.78,19.97-14.65,14.39.17,27.89,3.29,40.19,10.91,14.01,8.69,26.7,18.98,38.24,30.8,49.14,50.35,73.42,49.99,121.97-1.51,50.41-53.47,104.97-54.76,157.1-3.64,6.7,6.57,12.99,13.57,19.72,20.11,28.91,28.09,58.55,28.63,88.98,2.03,14.7-12.85,26.52-28.59,42.74-40,36.02-25.34,75.15-25.8,111.11-.54,14.21,9.98,25.99,22.45,38.06,34.72,33.08,33.63,63.25,34.1,97.53,1.47,7.35-7,13.76-15,21.11-22,43.69-41.61,98.22-42.44,142.84-2.08,9.27,8.38,17.53,17.87,26.53,26.56,28.83,27.85,59.43,28.5,89.19,1.95,13.98-12.47,24.97-27.95,40.6-38.85,17.2-11.99,35.95-18.73,56.77-19.17,11.04-.23,17.49,5.64,18.06,17.08.55,10.86-3.75,19.55-15.09,19.78-28.21.57-45.21,18.7-62.3,37.19-22.6,24.46-48.63,41.57-84.48,39.22Z" style="stroke-width: 0px;"/>
  <path d="M604.58,570.82c0-73.52.43-147.04-.3-220.55-.18-18.2,1.37-25.01,22.37-16.84,135.79,52.82,271.96,104.69,408.32,156.03,17.97,6.77,20.41,13.69,13.89,31.84-35.79,99.72-70.06,199.99-104.34,300.24-4.99,14.6-7.14,23.09-25.41,10.47-39.5-27.27-87.18-22-122.28,18.36-50.62,58.21-93.83,57.77-138.09.17-7.74-10.07-19.96-19.63-31.9-22.89-22.37-6.12-22.71-20.32-22.54-38.64.7-72.73.29-145.47.29-218.2Z" style="fill: #fefefe; stroke-width: 0px;"/>
  <path d="M237.69,839.14c-38.3-110.49-76.19-220.03-114.35-329.48-3.48-9.99.38-13.26,9.25-16.66,139.03-53.31,278.03-106.68,416.69-160.93,17.73-6.93,17.55.62,17.52,13.78-.24,105.64-.13,211.28-.13,316.92,0,46.17-.23,92.34.17,138.5.1,11.32-1.7,17.99-14.64,22.08-21.2,6.7-37.07,22.37-52.11,38.64-40.25,43.55-71.07,43.66-112.58,1.24-24.36-24.9-49.5-47.7-88.1-46.8-23.06.54-42.03,10.26-61.73,22.72Z" style="fill: #fefefe; stroke-width: 0px;"/>
  <path d="M259.99,403.61c0-44.11.54-84.76-.31-125.37-.28-13.17,4.86-15.17,16.33-15.16,206.38.28,412.75.34,619.13-.11,14.22-.03,16.48,5.3,16.22,17.65-.71,33.6-.99,67.25.07,100.83.55,17.46-2.58,21.2-20.34,14.27-95.78-37.34-192.19-73.07-288.06-110.2-12.78-4.95-22.94-4.62-35.49.27-95.05,37.05-190.42,73.31-285.69,109.8-6.43,2.46-12.93,4.75-21.84,8.02Z" style="fill: #fefefe; stroke-width: 0px;"/>
  <path d="M587.92,176.39c77.36,0,154.74,1.1,232.06-.63,25.06-.56,19.55,13.77,20.87,27.88,1.53,16.36-2.02,22.7-20.88,22.6-156.27-.89-312.55-.89-468.82,0-18.88.11-22.37-6.28-20.87-22.62,1.3-14.15-4.11-28.4,20.9-27.86,78.88,1.71,157.82.63,236.74.63Z" style="fill: #fcfcfc; stroke-width: 0px;"/>
  <path d="M615.34,87.61c0,7.77-1.18,15.76.22,23.27,4.63,24.8-6.66,29.91-29.2,28.5-30.5-1.91-30.59-.47-30.6-31.44,0-11.66-.84-23.39.23-34.94,1.09-11.73-6.87-29.41,4.79-33.89,14.24-5.46,32.1-1.99,48.36-1.43,7.99.27,6.05,7.59,6.13,12.63.2,12.43.07,24.86.07,37.3Z" style="fill: #fbfbfb; stroke-width: 0px;"/>
  <path d="M743.39,497.19c-12.11-2.34-19.28-9.52-18.41-20.9.85-11.24,8.46-18.64,20.5-17.46,10.63,1.05,16.63,8.11,16.42,19-.23,12.14-7.83,17.64-18.5,19.36Z" style="fill: #0c0c0c; stroke-width: 0px;"/>
  <path d="M841.32,505.98c-1.47,11.14-6.68,19.86-18.56,20.18-11.87.32-18.53-7.63-18.78-19.24-.24-10.68,5.77-17.69,16.65-18.69,12.48-1.15,17.91,6.86,20.69,17.76Z" style="fill: #070707; stroke-width: 0px;"/>
  <path d="M919.89,538.99c-2.57,11.5-8.75,19.77-20.46,18.66-11.34-1.07-17.54-9.24-16.55-21.1.91-10.93,7.56-16.92,18.38-16.67,12.25.28,17.01,8.65,18.63,19.12Z" style="fill: #090909; stroke-width: 0px;"/>
  <path d="M427.89,497.17c-10.89-1.47-18.3-7.01-18.71-19.14-.37-10.96,5.43-17.94,16.11-19.15,12.18-1.39,19.62,6.16,20.71,17.2,1.13,11.44-6.29,18.47-18.11,21.1Z" style="fill: #0b0b0b; stroke-width: 0px;"/>
  <path d="M367.55,505.87c-1.05,11.66-6.7,19.94-18.44,20.31-12,.37-18.58-8.08-18.81-19.34-.2-10.31,5.8-17.71,16.84-18.57,12.42-.97,18.06,6.62,20.4,17.6Z" style="fill: #060606; stroke-width: 0px;"/>
  <path d="M251.06,539.03c1.66-11,6.87-19.03,19.01-19.16,10.87-.12,17.3,6.21,18.12,17.03.91,11.95-5.7,19.9-16.95,20.82-11.77.97-17.66-7.62-20.18-18.68Z" style="fill: #090909; stroke-width: 0px;"/>
</svg>