<?xml version="1.0" encoding="UTF-8"?>
<svg id="Layer_1" data-name="Layer 1" xmlns="http://www.w3.org/2000/svg" viewBox="0 0 1154.74 1313.17">
  <path d="M1154.32,657.39c0,100.27-.53,200.55.42,300.81.21,21.86-6.36,34.73-26.09,45.92-175.47,99.53-350.39,200.04-525.15,300.82-17.91,10.33-32.66,11.35-51.13.69-176.25-101.73-352.8-202.93-529.68-303.55C6.01,992.6-.03,982.02.03,962.76.75,758.7.79,554.63,0,350.57c-.08-20.57,7.26-31.44,24.49-41.21C200.74,209.43,376.78,109.1,552.29,7.87c18.74-10.81,32.51-10.23,50.64.19,176.42,101.43,353.15,202.31,530.21,302.59,17.4,9.85,21.5,22.48,21.42,40.64-.5,102.03-.24,204.06-.24,306.09Z" style="stroke-width: 0px;"/>
  <path d="M43.68,374.87c36,20.67,70.02,40.18,104.01,59.72,129.28,74.33,258.52,148.74,387.89,222.92,11.71,6.72,20.59,12.11,20.51,29.23-.86,186.48-.55,372.97-.61,559.46,0,2.48-.68,4.96-1.08,7.64-9.12,1.3-14.76-5.27-21.24-8.96-157.71-90.01-315.27-180.29-472.98-270.29-11.15-6.37-18.68-12.01-18.62-27.6.75-186.49.5-372.97.58-559.46,0-3.2.75-6.4,1.54-12.64Z" style="fill: #fefefe; stroke-width: 0px;"/>
  <path d="M598.37,1257.25c0-194.27.04-384.17-.12-574.07,0-8.53,1.52-14.68,9.79-19.39,48.5-27.6,96.7-55.72,147.91-85.35,0,32.47-.24,61.24.06,90.01.34,31.77,14.13,40.18,41.1,24.89,50.36-28.55,100.2-58.04,150.93-85.91,16.98-9.33,23.43-21.3,22.81-40.2-1.04-31.63-.28-63.32-.27-94.99,0-8.67-1.05-17,8.96-22.52,43.57-24.04,86.79-48.7,133.97-75.29,0,10.82,0,18.23,0,25.64,0,180.32-.1,360.64.2,540.96.02,13.91-1.51,23.8-15.76,31.89-160.23,90.86-319.98,182.57-479.88,274.02-5.15,2.94-10.51,5.51-19.69,10.29Z" style="fill: #fefefe; stroke-width: 0px;"/>
  <path d="M728.17,545.43c-46.94,27.09-93.84,53.88-140.38,81.28-8.01,4.72-13.92,3.85-21.4-.47-165.53-95.6-331.17-191.01-496.75-286.51-.6-.35-.81-1.38-2.78-4.97,47.48-27,95.05-54.02,142.58-81.14,7.38-4.21,13.14-.94,19.5,2.7,165.05,94.67,330.17,189.22,495.23,283.87,1.4.8,2.14,2.73,4.02,5.23Z" style="fill: #fefefe; stroke-width: 0px;"/>
  <path d="M437.88,122.06c42.48-24.25,84.44-48,126.14-72.21,8.06-4.68,14.54-7.34,23.86-1.98,166.29,95.72,332.76,191.12,503.03,288.79-47.09,27.11-91.45,52.66-135.82,78.19-6.33,3.64-11.43.62-16.99-2.58-165.74-95.21-331.55-190.29-497.32-285.45-.66-.38-.91-1.45-2.88-4.77Z" style="fill: #fefefe; stroke-width: 0px;"/>
  <path d="M263.3,222.46c38.73-22.09,77.5-43.93,115.94-66.34,8.52-4.97,15.18-5.6,24.15-.44,165.49,95.38,331.17,190.42,496.78,285.58.68.39,1,1.41,2.66,3.88-39.93,22.83-79.82,45.48-119.52,68.46-6.98,4.04-12.47,3.43-19.35-.53-165.63-95.17-331.39-190.13-497.07-285.21-1.34-.77-1.93-2.83-3.58-5.4Z" style="fill: #fefefe; stroke-width: 0px;"/>
  <path d="M924.66,482.21c1.88,5.25,2.27,6,2.42,6.79,11.18,57.68-5.09,99.19-65.21,118.97-21.06,6.93-39.61,21.48-63.25,34.77,0-28.9.28-53.87-.17-78.84-.13-7.38,3.35-11.19,8.96-14.41,38.56-22.1,77.1-44.23,117.25-67.28Z" style="fill: #fcfcfc; stroke-width: 0px;"/>
  <path d="M105.74,891.22c3.68,1.52,8.76,3.01,13.26,5.55,33.41,18.89,66.65,38.09,100.07,56.98,13.07,7.39,20.94,17.56,12.83,32.01-8.06,14.36-20.25,13.35-33.67,5.47-33.85-19.88-68.18-38.94-102.22-58.51-9.72-5.59-16.45-13.3-13.06-25.62,2.94-10.7,10.68-15.39,22.8-15.89Z" style="fill: #020202; stroke-width: 0px;"/>
  <path d="M866.32,928.59c0,26.35-.92,52.74.32,79.04.87,18.31-6.45,29.01-22.1,37.72-48.21,26.83-95.64,55.06-143.64,82.27-25.9,14.68-40.38,6.59-40.56-22.59-.36-56.21.3-112.43-.38-168.64-.18-15.2,5.79-24.24,18.56-31.47,50.31-28.47,100.14-57.8,150.44-86.29,22.12-12.53,36.56-3.61,37.19,23.01.68,28.97.16,57.97.16,86.95Z" style="stroke-width: 0px;"/>
  <path d="M823.68,870.13c0,45.27-.07,86.17.07,127.08.02,6.56-1.14,11.82-7.47,15.38-36.98,20.84-73.85,41.87-113.5,64.4,0-44.55.11-85.46-.11-126.37-.04-6.64,1.19-11.7,7.38-15.23,36.88-21.06,73.66-42.28,113.63-65.26Z" style="fill: #fefefe; stroke-width: 0px;"/>
</svg>