<?xml version="1.0" encoding="UTF-8"?>
<svg id="Layer_1" data-name="Layer 1" xmlns="http://www.w3.org/2000/svg" viewBox="0 0 1200.87 1202.52">
  <path d="M.35,600.55C-11.27,282.52,267.44-.73,599.29,0c333.52.73,601.21,279.98,601.58,600.7.37,318.25-262.8,600.24-600.27,601.81C280.19,1204.01-7.55,937.46.35,600.55Z" style="stroke-width: 0px;"/>
  <path d="M279.4,600.87c0-49.61-.32-99.22.07-148.83.73-91.36,72.92-168.06,164.14-169.96,103.97-2.16,208.04-2.08,312.02-.03,87.95,1.74,161.45,74.89,163.42,163.24,2.34,104.76,2.33,209.65.04,314.41-1.84,84.02-77.01,158.95-161.34,160.79-105.56,2.3-211.25,2.27-316.81,0-84.5-1.82-157.83-76.72-160.71-161.22-1.8-52.74-.34-105.6-.34-158.41-.16,0-.33,0-.49,0Z" style="fill: #fefefe; stroke-width: 0px;"/>
  <path d="M701.1,630.24c-16.82,0-33.78,1.43-50.4-.37-19.28-2.09-22.4,6.24-21.83,23.13,1.19,35.19-.45,70.48.74,105.67.52,15.29-4.53,18.54-18.95,18.45-40.28-.26-40.29.44-40.3-39.95,0-28.83-1.07-57.71.39-86.46.89-17.5-5.45-21.37-21.71-20.83-35.19,1.17-70.47-.25-105.68.66-14.16.37-19.32-2.81-19.17-18.31.38-39.73-.51-39.74,38.26-39.74,28.03,0,56.16-1.5,84.04.49,21.15,1.51,25.16-6.51,24.31-25.64-1.54-34.36.38-68.87-.81-103.26-.53-15.26,4.49-18.56,18.94-18.47,40.31.26,40.31-.45,40.31,39.94,0,28.83,1.07,57.71-.4,86.46-.89,17.49,5.45,21.38,21.72,20.84,35.19-1.17,70.47.25,105.68-.66,14.14-.36,19.33,2.8,19.19,18.31-.37,39.73.52,39.74-38.28,39.74-12.01,0-24.02,0-36.03,0Z" style="fill: #010101; stroke-width: 0px;"/>
</svg>