<?xml version="1.0" encoding="UTF-8"?>
<svg id="Layer_1" data-name="Layer 1" xmlns="http://www.w3.org/2000/svg" viewBox="0 0 1032.38 1033.57">
  <path d="M.12,517.15C-5.99,238.58,230.94.1,515.29,0c282.96-.1,516.65,235.73,517.09,516.55.44,279.77-231.86,516.71-516.43,517.02C230.58,1033.87-6.14,795.12.12,517.15Z" style="stroke-width: 0px;"/>
  <path d="M69.93,516.85c-.46-245.25,201.47-447.1,446.24-446.07,246.29,1.04,446.38,202.08,445.08,447.18-1.31,245.86-199.26,445.3-445.16,444.52-255.26-.81-445.4-204.9-446.16-445.63Z" style="fill: #fefefe; stroke-width: 0px;"/>
  <path d="M926.1,520.24c-3.99,229.07-190.39,411.05-416.87,406.98-224.87-4.04-407.99-191.46-404.08-413.57,4-227.31,189.96-410.77,412.69-407.13,228.61,3.74,412.15,189.73,408.25,413.71Z" style="stroke-width: 0px;"/>
  <path d="M360.93,390.93c3.06-47.39,6.42-94.75,8.98-142.17.69-12.78,4.69-17.43,18.43-17.33,88.11.66,176.23.6,264.34.06,12.93-.08,16.73,3.85,16.18,16.45-.94,21.3-1.21,42.73.06,63.99.94,15.74-3.11,21.17-20.08,20.81-55.05-1.19-110.14-.01-165.2-.75-13.77-.18-19.36,3.02-19.6,17.8-.43,26.81-2.36,53.64-4.98,80.33-1.2,12.27,2.53,15.01,14.17,14.36,32.83-1.83,65.56-4.83,98.32,3.87,80.72,21.43,128.9,93.23,123.11,176.57-8.18,117.81-111.95,177.06-206.3,177.77-43.91.33-87.88-2.56-130.02-18.42-12.08-4.54-17.72-9.1-17.03-22.76,1.19-23.35,1.15-46.83.04-70.19-.76-15.92,3.79-17.05,16.79-10.36,43.24,22.27,88.86,32.9,137.49,23.73,66.08-12.46,95.76-83.25,56.15-133.63-18.05-22.96-44.38-29.18-71.41-31.59-37.11-3.3-74.3-1.58-111.16,3.87-14.22,2.1-19.02-.8-17.63-16.5,4.01-45.23,6.25-90.61,9.18-135.94h.17Z" style="fill: #fefefe; stroke-width: 0px;"/>
</svg>