<?xml version="1.0" encoding="UTF-8"?>
<svg id="Layer_1" data-name="Layer 1" xmlns="http://www.w3.org/2000/svg" viewBox="0 0 1111.83 1110.96">
  <path d="M556.31.07c304.45-4.37,555.69,253.3,555.51,555.41-.18,302.6-251.13,555.57-556.22,555.48C249.48,1110.87-.12,855.37,0,554.7.12,255,250.43-4.85,556.31.07Z" style="stroke-width: 0px;"/>
  <path d="M76.49,555.01c-.39-263.34,213.4-479.61,478.45-479.26,270.73.35,479.62,215.85,480.38,479.44.76,263.5-212.5,479.06-478.34,479.16-274.02.1-479.67-219.47-480.5-479.34Z" style="fill: #fefefe; stroke-width: 0px;"/>
  <path d="M556.13,113.57c243.05.25,442.69,200.53,441.48,442.9-1.21,242.37-199.96,440.39-441.85,440.22-242.84-.17-443.02-201-441.43-442.85,1.6-243.07,199.74-440.52,441.81-440.27Z" style="stroke-width: 0px;"/>
  <path d="M460.42,542.43c-41.61-24.05-75.84-52.25-88.18-98.17-17.12-63.73,9.23-128.84,69.96-162.75,78.28-43.7,159.89-43.97,236.31,3.45,92.6,57.46,93.7,170.4,5.37,234.24-9.5,6.87-19.81,12.62-30.92,19.64,17.43,10.13,35.5,18.39,51.04,30.03,80.51,60.3,83.42,175.19,6.86,243.11-75.64,67.1-236.32,66-311.47-2.14-86.83-78.73-66.34-207.91,40.93-257.99,5.98-2.79,11.95-5.61,20.09-9.42Z" style="fill: #fefefe; stroke-width: 0px;"/>
  <path d="M553.32,768.26c-52.95-1.56-85.17-35.44-83.85-88.17,1.29-51.9,41.53-88.16,95.45-86.01,44.57,1.78,79.89,44.2,78.03,93.73-1.86,49.45-38.09,81.98-89.63,80.46Z" style="stroke-width: 0px;"/>
  <path d="M559.3,344.04c40.11.51,70.78,33.95,69.82,76.11-.97,42.16-32.69,75.25-71.77,74.87-38.88-.38-70.14-34.64-69.91-76.62.22-41.69,32.29-74.87,71.87-74.36Z" style="stroke-width: 0px;"/>
</svg>