<?xml version="1.0" encoding="UTF-8"?>
<svg id="Layer_1" data-name="Layer 1" xmlns="http://www.w3.org/2000/svg" viewBox="0 0 1262.84 1264.36">
  <path d="M.12,632.55C-6.87,288.81,284.36.2,630.37,0c346.07-.2,632.25,288.24,632.47,631.92.22,344.17-284.79,632.11-631.73,632.44C283.39,1264.69-6.75,974.93.12,632.55Z" style="stroke-width: 0px;"/>
  <path d="M630.02,86.58c299.48-1.49,545.78,244.02,545.75,545.57-.03,294.54-233.35,544.12-545.54,545.28-300.74,1.12-541.89-241.75-544.65-543.82-2.73-298.62,243.02-545.54,544.44-547.03Z" style="fill: #fefefe; stroke-width: 0px;"/>
  <path d="M630.6,130.21c276.15-.3,503.26,227.23,502.37,503.29-.9,275.31-227,500.88-502.12,500.94-276.1.06-503.49-227.76-502.31-503.26,1.18-276.17,226.16-500.67,502.06-500.97Z" style="stroke-width: 0px;"/>
  <path d="M436.15,472.6c0-41.07.16-78.85-.12-116.63-.06-8.08,1.13-13.91,9.1-18.56,97.11-56.7,199.07-70.37,304.85-29.98,73.49,28.06,114,102.41,108.58,181.88-5.27,77.28-40.05,137.95-98.48,185.69-39.04,31.89-80.57,60.72-120.85,91.1-24.94,18.81-48.71,38.9-64.98,66.22-9.21,15.47-8.46,23.1,13.4,22.84,82.51-.99,165.04.09,247.56-.79,17.29-.18,23.6,3.87,22.62,22.05-1.54,28.55-.96,57.25-.16,85.86.35,12.54-2.39,17.49-16.36,17.44-140.62-.51-281.25-.58-421.87.05-16.5.07-16.08-7.87-16.87-20.01-7.54-115.08,44.84-200.38,132.37-268.3,38.53-29.9,78.88-57.48,114.97-90.49,22.06-20.18,40.09-43.28,49.09-72.08,23.51-75.23-20.81-129.95-99.34-123.22-67.03,5.75-82.57,12.02-163.51,66.93Z" style="fill: #fefefe; stroke-width: 0px;"/>
</svg>