<?xml version="1.0" encoding="UTF-8"?>
<svg id="Layer_1" data-name="Layer 1" xmlns="http://www.w3.org/2000/svg" viewBox="0 0 1242.91 1241.82">
  <path d="M621.61.07c342.39-4.95,621.58,285.4,621.3,620.52-.28,338.75-280.88,621.17-621.51,621.23C279.64,1241.89.24,956.91,0,620.3-.23,287.47,278.01-5.21,621.61.07Z" style="stroke-width: 0px;"/>
  <path d="M620.89,84.06c294.58-1.26,536.98,241.37,536.53,537.05-.45,295.05-239.31,536.09-535.3,535.21-308.28-.91-536.53-247.95-536.44-536.47.09-295.16,239.58-534.53,535.21-535.79Z" style="fill: #fefefe; stroke-width: 0px;"/>
  <path d="M1115.14,618.12c4.01,266.99-217.02,491.84-487.47,495.87-272.22,4.06-496.06-215.85-499.8-490.99-3.66-269.48,219.11-493.87,492.4-496,269.38-2.1,490.76,217.61,494.87,491.13Z" style="stroke-width: 0px;"/>
  <path d="M582.47,446.15c-45.96,28.67-90.01,50.4-142.78,56.06,0-38.68.21-76.61-.14-114.54-.09-10.1,6.32-11.69,13.76-14.17,62.99-20.99,121.23-51.03,176.67-87.83,28.23-18.74,62.85-6.58,94.48-6.53,8.97.01,4.58,14.14,4.59,21.62.29,178.78.22,357.56.22,536.35,0,33.94-.96,67.91.38,101.79.73,18.39-2.97,26.23-23.73,24.98-32.99-1.98-66.24-1.71-99.27-.08-19.45.96-24.77-4.7-24.66-24.4.84-154.77.47-309.56.47-464.33v-28.91Z" style="fill: #fefefe; stroke-width: 0px;"/>
</svg>