<?xml version="1.0" encoding="UTF-8"?>
<svg id="Layer_1" data-name="Layer 1" xmlns="http://www.w3.org/2000/svg" viewBox="0 0 1298.25 1297.22">
  <path d="M650.36.09c355.56-4.75,648.52,296.67,647.89,649.28-.62,353.67-294.49,648.39-650.24,647.85C290.39,1296.67-.56,997.74,0,646.93.56,296.89,293.37-6.15,650.36.09Z" style="stroke-width: 0px;"/>
  <path d="M1208.99,649.12c-.96,308.56-250.87,560.31-559.46,558.86-322.83-1.52-560.42-260.03-560.07-560.76.36-308.52,251-558.69,559.36-559.43,308.1-.74,561.12,252.81,560.16,561.34Z" style="fill: #fefefe; stroke-width: 0px;"/>
  <path d="M1164.91,648.8c-.07,282.13-232.43,514.49-514.99,515-283.38.51-516.95-232.92-516.45-516.12.51-283.07,231.07-513.67,514.94-515.03,282.68-1.36,516.57,232.38,516.5,516.16Z" style="stroke-width: 0px;"/>
  <path d="M432.43,846.63c46.56,32.49,95.22,47.4,147.61,51.47,29.86,2.32,58.49-.37,86.05-12.98,35.55-16.26,55.37-41.95,55.15-82.53-.21-39.65-20.29-63.52-54.78-79.73-44.04-20.69-90.58-20.9-137.19-18.82-21.94.98-28.64-5.76-26.57-27.26,1.98-20.57,2.29-41.7-.06-62.19-2.91-25.33,7.78-30.28,30.44-29.2,25.81,1.23,51.98-.02,77.69-2.91,55.95-6.29,87.2-36.55,88.9-83.52,1.85-51-24.24-81.64-75.22-87.16-58.63-6.36-112.8,7.05-165.52,42.03,0-41.03.12-78.59-.1-116.14-.04-7.36,3.75-11.04,9.84-13.37,103.65-39.61,207.14-53.66,309.36,3.99,65.33,36.84,87.55,95.96,78.38,166.81-9.48,73.24-52.57,119.89-124.14,139.55-3.26.9-6.59,1.55-17.01,3.96,38.95,6.9,68.95,17.96,96.87,35.81,94.33,60.31,89.68,221.53-8.33,286.79-114.16,76.01-235.97,69.75-359.63,25.57-8.24-2.95-12.06-7.64-11.94-17.11.51-39.53.21-79.08.21-123.05Z" style="fill: #fefefe; stroke-width: 0px;"/>
</svg>