<?xml version="1.0" encoding="UTF-8"?>
<svg id="Layer_1" data-name="Layer 1" xmlns="http://www.w3.org/2000/svg" viewBox="0 0 1109.46 1108.51">
  <path d="M554.84.06c303.83-4.49,554.73,252.46,554.62,553.95-.1,299.76-246.92,554.4-554.74,554.5C246.18,1108.6.12,851.94,0,553.82-.12,254.75,249.54-4.65,554.84.06Z" style="stroke-width: 0px;"/>
  <path d="M76.33,554.6c-1.6-261.94,211.13-478.1,476.67-478.88,268.49-.79,479.33,213.11,479.98,477.56.64,257.93-203.93,478.04-478.66,479.05-264.1.97-476.37-213-477.99-477.73Z" style="fill: #fefefe; stroke-width: 0px;"/>
  <path d="M995.38,549.34c-.22,247.25-193.28,442.19-437.1,444.79-229.65,2.45-439.61-176.18-443.42-435.58-3.59-244.62,190.6-442.23,436.38-444.76,233.63-2.4,437.9,180.43,444.14,435.55Z" style="stroke-width: 0px;"/>
  <path d="M677.6,439.96c0,57.64.58,115.3-.38,172.93-.27,15.94,2.82,22.36,20.3,21.45,17.34-.91,40.24-8.2,51.01,3.22,10.6,11.25,2.95,33.83,3.12,51.41.43,45.37.09,46.74-45.84,44.8-23.16-.98-30.56,5.47-28.7,28.75,2.17,27.17-.17,54.67.8,81.98.46,12.99-4.05,16.12-16.34,15.78-30.28-.82-60.61-.83-90.89,0-12.92.35-16.44-4.27-16.14-16.59.73-29.54-.69-59.16.6-88.66.72-16.3-3.53-21.36-20.62-21.13-74.63,1.01-149.3-.47-223.91,1.02-20.57.41-21.87-6.61-24.08-24.56-6.88-55.99,11.96-98.44,49.65-140.49,83.4-93.06,153.89-196.01,209.45-308.49,4.87-9.86,10.67-14.07,22.04-13.78,31.02.79,62.1.99,93.1-.06,13.77-.46,17.34,3.66,17.16,17.26-.76,58.37-.33,116.76-.32,175.14Z" style="fill: #fefefe; stroke-width: 0px;"/>
  <path d="M554.83,429.01c0,62.67-.06,125.35.06,188.02.02,9.29.93,17.29-13.03,17.06-42.63-.69-85.29-.25-132.49-.25,52.97-67.99,102.35-133.95,145.46-204.84Z" style="fill: #020202; stroke-width: 0px;"/>
</svg>