<?xml version="1.0" encoding="UTF-8"?>
<svg id="Layer_1" data-name="Layer 1" xmlns="http://www.w3.org/2000/svg" viewBox="0 0 998.7 999.83">
  <path d="M.11,500.15C-5.69,230.63,223.58,0,498.69,0c273.78,0,500,228.22,500.01,499.93.01,270.08-222.27,499.7-499.72,499.9C220.99,1000.02-5.28,768.87.11,500.15Z" style="stroke-width: 0px;"/>
  <path d="M498.49,68.47c237.19-.71,432.12,194.57,431.48,432.25-.64,237.58-193,431.42-430.8,430.47-248.6-.99-431.6-200.26-431.41-431.79.19-237.51,193.16-430.21,430.73-430.93Z" style="fill: #fefefe; stroke-width: 0px;"/>
  <path d="M498.68,897.12c-218.51-.22-398.44-180.69-397.01-398.2,1.44-218.59,179.55-396.1,397.27-395.94,218.54.16,398.05,180.21,397.05,398.23-1,217.91-179.85,396.12-397.31,395.9Z" style="stroke-width: 0px;"/>
  <path d="M346.72,661.41c58.84,28.34,116.83,41.2,173.91,4.59,37.14-23.82,57.51-78.62,55.74-136.52-1.12-.23-2.95-.97-3.28-.55-37.7,48-88.41,57.57-143.62,43.8-55.27-13.77-90.44-51.22-105.08-106.53-24.96-94.28,13.43-185.33,92.69-221.23,110.93-50.24,223.04-1.74,257.45,114.35,28.08,94.72,23.73,189.98-12.94,281.79-55.36,138.59-198.12,157.86-305.42,118.15-6.69-2.47-9.61-5.56-9.54-12.72.25-27.72.1-55.45.1-85.12Z" style="fill: #fefefe; stroke-width: 0px;"/>
  <path d="M431.54,400.56c1.08-26.14,6.93-54.95,34.61-73.89,22.04-15.08,47.01-14.91,68.88-.06,38,25.81,50.22,100.14,22.26,136.53-16.8,21.86-38.8,31.3-66.38,26.54-26.71-4.6-43.83-20.66-53.29-45.31-4.8-12.51-5.9-25.84-6.09-43.81Z" style="stroke-width: 0px;"/>
</svg>