<?xml version="1.0" encoding="UTF-8"?>
<svg id="Layer_1" data-name="Layer 1" xmlns="http://www.w3.org/2000/svg" viewBox="0 0 1022.36 1021.47">
  <path d="M511.44.06c281.61-4.01,511.22,234.89,510.91,510.55-.31,278.68-231.24,510.89-511.36,510.87C229.88,1021.45.12,786.95,0,510.09-.12,236.32,228.83-4.38,511.44.06Z" style="stroke-width: 0px;"/>
  <path d="M70.4,509.76c.61-242.89,197.43-439.79,440.42-440.62,242.44-.83,441.75,198.78,441.21,441.87-.54,242.82-197.16,441.07-440.41,440.16-253.93-.95-441.02-204.42-441.22-441.41Z" style="fill: #fefefe; stroke-width: 0px;"/>
  <path d="M513.78,104.51c225.15,3.38,404.87,182.38,402.91,409.55-1.95,226.87-188.09,406.4-412.16,402.22-222.41-4.15-403.66-190-399.32-409.45,4.45-225.28,188.46-406.47,408.57-402.31Z" style="stroke-width: 0px;"/>
  <path d="M432.71,484.6c56.83-66.63,145.58-62.82,196.2-29.39,50.66,33.46,67.44,84.9,67.45,141.08.04,174.18-166.79,229.57-275.03,174.91-58.16-29.37-85.74-81.17-97.82-142.49-19.63-99.66-13.36-196.51,37.46-286.74,62.83-111.58,183.09-130.4,283.34-103.83,7.5,1.99,13.96,3.9,13.78,14.24-.51,29.11-.18,58.23-.18,88.13-152.11-66.3-225.84,38.93-225.2,144.09Z" style="fill: #fefefe; stroke-width: 0px;"/>
  <path d="M579.53,605.14c-2.01,38.94-8.97,72.19-46.45,88.75-24.33,10.75-46.94,5.55-66.29-11.24-31.66-27.47-40.99-89.6-19.98-126.07,15.85-27.52,43.73-40.44,76-35.22,28.3,4.58,45.68,22.17,52.71,54.44,2.3,10.54,2.97,21.43,4.01,29.35Z" style="stroke-width: 0px;"/>
</svg>