<?xml version="1.0" encoding="UTF-8"?>
<svg id="Layer_1" data-name="Layer 1" xmlns="http://www.w3.org/2000/svg" viewBox="0 0 1182.21 1181.14">
  <path d="M591.25.07c323.69-4.77,590.7,269,590.96,590.2.25,320.09-265.73,590.79-591.14,590.87C264.55,1181.23-.33,907.87,0,590.02.33,271.4,265.98-4.97,591.25.07Z" style="stroke-width: 0px;"/>
  <path d="M1100.89,590.01c-.75,275.35-218.3,508.66-510.15,509.87-281.72,1.17-510.33-229.96-509.32-510.68,1.02-280.85,227.7-507.66,508.95-509.23,279.76-1.57,509.73,228.19,510.51,510.05Z" style="fill: #fefefe; stroke-width: 0px;"/>
  <path d="M1060.72,591.22c-.73,258.34-213.85,469.97-471.71,468.4-257.8-1.57-468.44-213.53-467.4-470.34,1.04-258.01,211.45-468.07,469.31-468.53,257.97-.46,470.53,212.4,469.8,470.47Z" style="stroke-width: 0px;"/>
  <path d="M543.99,591.03c-1.88-71.44,13.13-139.04,51.42-199.84,37.13-58.95,113.36-84.15,192.37-66.64,64.7,14.34,102.22,57.96,118.5,118.37,30.35,112.61,34.92,225.01-20.54,332.67-30.03,58.3-79.47,87.25-144.62,88.54-72.22,1.43-131.08-22.3-164.34-91.41-27.67-57.5-31.6-119.36-32.79-181.7Z" style="fill: #fefefe; stroke-width: 0px;"/>
  <path d="M367.53,445.27c-28.19,22.38-56.67,32.78-86.14,41.26-17.73,5.1-27.9,3.99-25.85-19.08,2.08-23.42-5.98-50.4,3.18-69.78,8.94-18.92,40.1-15.94,59.62-27.36,19.61-11.47,42.2-18.77,59.71-32.67,26.76-21.25,55.78-25.01,87.98-23.68,14.53.6,18.59,4.24,18.42,18.75-.76,65.34-.33,130.69-.33,196.03,0,100.77-.38,201.55.37,302.32.12,16.64-2.46,24.07-21.38,22.68-25.06-1.84-50.42-1.58-75.52-.06-17.22,1.04-20.51-5.25-20.43-21.23.66-122.82.37-245.64.37-368.46,0-4.69,0-9.37,0-18.71Z" style="fill: #fefefe; stroke-width: 0px;"/>
  <path d="M662.41,600.87c1.28-50.68,1.58-94.01,15.63-135.75,3.78-11.24,7.93-22.18,15.09-31.69,27.04-35.87,67.2-32.88,89.64,6.1,12.9,22.42,18.15,47.04,20.42,72.02,6.33,69.91,9.59,139.82-10.41,208.53-3.35,11.5-8.2,22.13-15.28,31.58-23.43,31.28-59.32,31.93-83.39,1.11-20.76-26.57-25.24-58.86-28.66-90.92-2.42-22.66-2.34-45.58-3.03-60.98Z" style="stroke-width: 0px;"/>
</svg>