<?xml version="1.0" encoding="UTF-8"?>
<svg id="Layer_1" data-name="Layer 1" xmlns="http://www.w3.org/2000/svg" viewBox="0 0 1384.19 1043.38">
  <path d="M692.59,1043.3c-132.21-.03-264.42.16-396.62-.11-68.11-.14-101.07-30.32-104.69-98.94-7.04-133.43,26.39-255.43,106.39-363.77,21.46-29.06,42.03-58.86,61.55-89.25,16.63-25.89,25.18-54.89,25.75-85.95.57-31.06,7.24-60.02,40.44-71.03,35.03-11.62,67.81-4.26,94.58,22.16,8.23,8.12,16.41,17.65,20.73,28.13,14.04,34.08,37.86,43.96,74.11,41.7,53.64-3.34,107.77-2.89,161.47.04,32.32,1.77,51.78-9.57,64.83-37.77,16.47-35.61,43.94-56.53,84.14-58.87,42.05-2.45,69.27,17.23,71.28,59.49,2.84,59.72,26.06,109.81,62.59,154.73,89.92,110.56,131.88,237.4,135.12,379.18,1.87,81.68-31.91,120.13-113.85,120.24-129.27.19-258.54.05-387.81.02Z" style="stroke-width: 0px;"/>
  <path d="M691.17.49c153.71-3.57,304.92,11.78,451.19,61.57,56.63,19.28,111.06,44.52,156.76,83.66,86.92,74.43,96.78,171.41,75.56,276.14-2.71,13.39-6.04,26.68-9.5,39.9-11.08,42.35-23.66,53.52-67.13,54.46-65.12,1.41-125.86-15.12-180.58-50.76-41.62-27.11-59.53-63.66-49.18-115.23,17.88-89.08-.5-118.55-88.65-138.03-192.93-42.63-386.33-42.24-579.31,1.12-15.1,3.39-30.02,8.86-44.08,15.38-38.46,17.82-50.39,40.06-45.67,82.02,1.53,13.61,1.81,27.59,5.26,40.72,13.14,50.09-6.73,85.88-47.6,112.48-58.23,37.9-122.09,55.46-191.73,51.43-29.91-1.73-48.4-15.36-56.04-45.64-15.18-60.2-27.01-120.83-16.45-182.77,15.71-92.1,76.06-149.45,155.58-189.56C264.06,44.69,376.72,21.99,491.78,8.09,558.11.07,624.72,1.9,691.17.49Z" style="stroke-width: 0px;"/>
  <path d="M692.31,540.48c123.58-.1,222,99.9,221.4,224.94-.58,120.33-100.37,218.71-221.8,218.67-124.19-.04-220.48-98.18-220.88-225.13-.38-119.95,99.31-218.38,221.28-218.48Z" style="fill: #fefefe; stroke-width: 0px;"/>
  <path d="M691.41,902.79c-76.67-.08-139.16-61.22-139.78-136.75-.66-80.63,63.1-146.06,141.54-145.25,78.21.81,139.44,63.69,140.06,143.83.58,75.43-63.91,138.26-141.82,138.18Z" style="stroke-width: 0px;"/>
</svg>