<?xml version="1.0" encoding="UTF-8"?>
<svg id="Layer_1" data-name="Layer 1" xmlns="http://www.w3.org/2000/svg" viewBox="0 0 1154.58 1153.09">
  <path d="M574.53,1153.08c-176.47,0-352.94.03-529.41-.02-38.51-.01-44.1-5.63-44.14-44.31-.21-204.21.01-408.43-.98-612.64-.12-24.48,8.11-39.68,28.4-52.83,45.18-29.28,88.76-61.02,133.47-91.04,10.83-7.27,14.62-15.37,14.56-28.34-.36-93.24.04-186.49.3-279.73C176.84,8.72,185.13.08,219.97.07c238.12-.09,476.24-.09,714.36,0,35.21.01,44.18,9.42,44.17,45.82-.02,92.47.21,184.95-.66,277.42-.14,14.98,4.61,23.44,16.84,31.72,45.24,30.62,89.13,63.23,134.52,93.6,17.89,11.97,25.45,25.57,25.39,47.41-.58,202.67-.19,405.34-.1,608.01.02,40.11-8.74,49.02-48.22,49.03-177.24.02-354.48.01-531.73.01Z" style="fill: #100f0d; stroke-width: 0px;"/>
  <path d="M579.35,69.57c103.28,0,206.57.41,309.84-.42,16.5-.13,20.06,4.41,19.99,20.37-.69,159.54-.64,319.09-.28,478.64.03,12.83-3.63,20.68-14.44,28.09-64.74,44.38-129.07,89.37-193.12,134.75-9.65,6.84-16.15,7.57-25.57-.21-23.14-19.12-47.46-36.8-70.78-55.71-18.33-14.86-35.73-14.95-54.16-.38-24.16,19.09-49.17,37.13-72.96,56.66-8.92,7.32-15.02,6.45-23.72.38-65.02-45.33-130.24-90.38-195.63-135.19-9.17-6.28-12.66-13.36-12.62-24.69.53-161.86.8-323.72.29-485.58-.05-15.59,5.81-17.01,18.7-16.95,104.82.44,209.65.25,314.47.25Z" style="fill: #fefefe; stroke-width: 0px;"/>
  <path d="M139.74,1081.89c143.48-111.32,284.06-220.21,424.3-329.55,10.14-7.91,16.19-8.57,26.89-.21,140.14,109.45,280.76,218.29,424.46,329.76H139.74Z" style="fill: #fefefe; stroke-width: 0px;"/>
  <path d="M69.1,1048.46v-497.51c113.48,78.24,225.15,155.23,339.35,233.96-112.74,87.56-224.1,174.04-339.35,263.55Z" style="fill: #fefefe; stroke-width: 0px;"/>
  <path d="M1083.89,1047.09c-113.63-88.14-224.82-174.39-337.97-262.16,112.64-78.37,223.96-155.82,337.97-235.14v497.29Z" style="fill: #fefefe; stroke-width: 0px;"/>
  <path d="M175.31,428.09v111.08c-27.77-19.26-53.11-36.84-80.58-55.9,27-18.49,52.1-35.68,80.58-55.18Z" style="fill: #f9f9f9; stroke-width: 0px;"/>
  <path d="M978.91,536.95v-107.4c26.85,18.49,51.57,35.51,77.86,53.61-26.17,18.08-50.39,34.8-77.86,53.78Z" style="fill: #fcfcfb; stroke-width: 0px;"/>
  <path d="M620.51,468.44c-46.64,49.32-114.62,26.78-139.35-30.14-26.88-61.86-10.12-134.23,40.01-167.97,28.42-19.13,58.55-21.89,89.48-6.05,7.42,3.8,10.17,8.5,17.59-3.83,10.53-17.5,32.4-10.19,48.72-6.79,14.05,2.92,8.92,17.27,7.71,27.65-5.15,44.35-10.58,88.67-15.5,133.04-.9,8.15-3.5,18.01,4.55,23.74,8.78,6.25,18.66,1.07,26.05-3.37,30.26-18.17,42.62-47.65,46.09-81.03,8.05-77.57-48.28-148.28-125.79-158.98-82.04-11.33-150.59,20.71-185.75,86.8-37.1,69.76-26,155.09,28.97,214.18,36.3,39.02,83.79,48.69,134.67,48.33,33.64-.24,65.3-8.99,96.45-20.71,23.63-8.89,41.01-3.65,45.56,14.74,5.18,20.92-7.79,30.21-25.69,36.73-64.32,23.4-129.72,32.86-196.87,14.93-167.37-44.69-224.91-252.44-104.87-377.53,108.09-112.63,301.55-91.34,371.7,40.89,39.86,75.14,21.24,169.5-43.22,219.09-40.26,30.97-84.98,30.13-120.52-3.7Z" style="fill: #100f0d; stroke-width: 0px;"/>
  <path d="M532.63,377.79c.15-14.94,3.08-29.1,11.49-41.63,9.11-13.56,21.01-22.96,38.42-20,18.43,3.14,30.32,14.75,34.7,32.66,6.04,24.71-.24,47.2-15.56,67.12-10.59,13.77-25.15,21.97-42.16,17.89-16.94-4.07-22.19-19.9-25.31-35.38-1.35-6.72-1.1-13.77-1.58-20.67Z" style="fill: #fdfdfd; stroke-width: 0px;"/>
</svg>