<?xml version="1.0" encoding="UTF-8"?>
<svg id="Layer_1" data-name="Layer 1" xmlns="http://www.w3.org/2000/svg" viewBox="0 0 916.52 1095.37">
  <path d="M438.11,539.01c.56-19.61,5.24-38.18.53-53.93-6.35-21.23-29.8-10.37-45.15-14.5-94.08-25.31-130.39-92.69-129.77-185.43.12-18.15,12-20.86,26.71-20.78,55.8.3,103.33,19.74,147.77,61.2,4.07-28.96,1.37-52.45-20.7-76.66-79.72-87.46-53.95-169.82,21.83-240.55,12.25-11.43,24.49-11.01,36.7.54,21.9,20.72,41.11,43.58,54.31,70.82,27.76,57.24,14.86,109.06-22.12,157.33-2.66,3.47-5.15,7.4-8.6,9.9-27.58,20.02-27.92,48.03-22.93,79.96,38.22-43.8,88.06-58.66,142.43-62.32,26.78-1.8,32.94,4.01,31.77,30.75-2.76,63.34-20.21,119.57-78.89,154.33-24.85,14.72-52.11,22.92-80.83,24.65-13.45.81-17.48,5.9-16.52,18.81,1.07,14.39.25,28.92.25,47.71,39.57-45.41,88.84-60.92,143.3-64.19,27.86-1.67,34.01,3.65,32.61,31.9-3.18,64.16-21.74,120.62-81.32,155.37-25.04,14.6-52.74,21.17-81.1,24.04-11.8,1.2-13.94,5.69-13.68,16.16.64,26.3-.59,52.65.52,78.92.61,14.51-7.94,12.95-16.61,12.24-8.14-.67-19.8,5.11-19.15-11.94.97-25.54-.28-51.17.49-76.73.36-11.85-.93-18.99-15.51-18.93-10.72.05-21.59-3.02-32.18-5.6-96.55-23.47-128.98-99.77-128.63-183.86.06-14.66,7.01-21.78,21.27-21.62,58.3.66,110.88,15.69,153.21,62.41Z" style="stroke-width: 0px;"/>
  <path d="M795.15,601.85c56.85,29.4,65.43,78.8,24.84,120.63-30.55,31.48-62.5,61.61-92.74,93.37-10.06,10.56-15.01,5.9-21.74-2.06-6.07-7.18-17.04-11.55-4.17-23.74,32.9-31.17,64.48-63.73,96.57-95.75,12.18-12.16,15.71-26.29,7.7-41.84-6.82-13.24-18.58-17.57-33.16-15.94-8.77.98-14.49,6.36-20.18,12.04-48.12,48.05-95.99,96.35-144.49,144.01-8.34,8.19-9.73,16.84-9.7,27.45.24,84.82-.08,169.64.35,254.46.07,13.19-.06,21.02-17.69,20.89-17.37-.13-18.07-7.53-18-21.04.46-88.48.54-176.96-.05-265.43-.1-15.21,4.89-26.06,15.48-36.57,67.48-66.94,134.36-134.49,201.8-201.46,8.92-8.86,12.93-17.83,12.81-30.61-.6-63.61-.16-127.23-.32-190.85-.07-27.41,11.36-48.25,35.58-60.79,21.4-11.08,42.19-7.18,62.1,5.61,19.33,12.42,26.03,31.24,26.1,52.42.38,126.5.16,253,.29,379.5.01,11.01-4.96,19.27-11.46,27.55-46.01,58.61-91.61,117.54-137.79,176.01-7.24,9.16-10.55,18.26-10.38,29.94.55,39.48-.45,78.99.56,118.45.36,14.05-4.32,17.39-17.39,16.88-11.56-.45-19-.63-18.66-16.02.99-44.58.66-89.2.17-133.8-.14-12.98,6.52-21.96,13.75-31.2,44.58-56.95,88.9-114.1,133.9-170.71,8.71-10.96,12.19-21.93,12.14-35.85-.45-115.53-.26-231.06-.26-346.6,0-2.92.08-5.85-.02-8.77-.72-22.27-11.45-36.51-27.74-34.62-19.82,2.3-25.62,16-25.51,34.38.33,56.3-.47,112.62.35,168.91.45,31.15,3.54,62.36-33.03,81.17Z" style="stroke-width: 0px;"/>
  <path d="M118.21,601.19c-35.82-18.43-31.54-50.64-31.13-82.24.69-54.1.15-108.21.23-162.32.01-8.84.29-17.8-4.35-25.61-5.63-9.47-14.35-15.3-25.48-13.51-11.49,1.85-20.3,8.51-22.33,20.91-1.05,6.44-.9,13.1-.91,19.67-.04,116.99.16,233.98-.28,350.97-.05,13.22,3.38,23.52,11.57,33.86,45.35,57.26,89.93,115.14,135.24,172.44,8.62,10.9,12.83,21.96,12.62,36.01-.66,42.4-.93,84.83.14,127.21.38,14.99-5.97,16.37-18.15,16.38-12.09.02-18.34-1.22-17.89-16.19,1.17-38.72,0-77.5.62-116.24.21-13.09-3.01-23.36-11.38-33.88-45.44-57.18-89.77-115.24-135.15-172.47C3.29,745.75-.04,735.45,0,722.34c.35-123.57.17-247.14.23-370.71.02-41.21,23.62-68.76,59.15-69.48,35.43-.72,62.69,28.65,63.05,69.63.54,61.42.72,122.85-.25,184.25-.25,16,4.56,26.99,15.81,38.11,66.58,65.77,132.27,132.44,198.73,198.33,10.64,10.55,15.37,21.37,15.27,36.54-.61,89.2-.59,178.41,0,267.61.09,13.86-2.92,18.75-17.77,18.57-14.14-.17-18.19-3.69-18.07-18.14.7-85.54.11-171.1.61-256.64.07-12.62-3.22-21.63-12.42-30.63-46.49-45.53-92.23-91.82-138.28-137.8-18.69-18.67-37.01-21.13-51.45-7.1-14.9,14.49-12.69,34.33,6.37,53.46,29.41,29.53,58.52,59.39,88.77,88.03,10.99,10.41,11.38,16.23.49,27.3-10.68,10.85-16.04,9.01-25.44-.78-27.33-28.48-55.72-55.95-83.62-83.88-47.51-47.57-42.64-91.88,17.01-127.82Z" style="stroke-width: 0px;"/>
  <path d="M404.11,140.45c2.97-37.88,21.8-67.26,47.39-93.37,6.51-6.64,9.76-1.54,14.12,2.39,57.18,51.47,57.39,129.16.54,182.08-4.91,4.57-8.29,9.81-15.68,2.24-25.63-26.25-43.99-55.8-46.36-93.34Z" style="fill: #fefefe; stroke-width: 0px;"/>
  <path d="M313.15,514.02c69.7,3.31,126.99,62.77,125.83,129.99-.15,8.41-3.45,10.21-10.43,9.28-82.2-10.92-119.46-52.1-128.98-129.81-1.61-13.17,6.83-9.53,13.58-9.46Z" style="fill: #fefefe; stroke-width: 0px;"/>
  <path d="M485.6,652c-9.94,2.67-10.18-2.92-9.65-10.79,4.86-71.3,52.43-120.34,123.57-127.08,8.86-.84,16.57-3.03,15.56,11.89-4.83,71.25-58.88,124.51-129.48,125.99Z" style="fill: #fefefe; stroke-width: 0px;"/>
  <path d="M426.55,439.59c-71.65-4.83-122.34-56.09-126.83-127.24-.58-9.21.47-12.3,11.37-11.44,73.32,5.8,122.79,55.56,127.58,128.54.79,11.96-4.59,11.66-12.12,10.13Z" style="fill: #fefefe; stroke-width: 0px;"/>
  <path d="M485.04,439.32c-9.4,2.2-9.65-2.93-8.92-11.02,6.67-73.56,52.56-119.7,126.17-127.03,8.65-.86,14.11-1.48,12.71,9.88-9.57,77.73-49.02,120.6-129.96,128.18Z" style="fill: #fefefe; stroke-width: 0px;"/>
</svg>