<?xml version="1.0" encoding="UTF-8"?>
<svg id="Layer_1" data-name="Layer 1" xmlns="http://www.w3.org/2000/svg" viewBox="0 0 1173.69 957.41">
  <path d="M621.23,830.8c-73.4-.36-145.05-14.29-216-31.7-16.68-4.1-29.91-3.54-44.04,6.07-14.88,10.12-30.57,19.21-46.59,27.43-11.07,5.68-11.17,10.79-5.28,21.11,16,28.03,15.13,29.54-11.93,45.33-28.43,16.59-56.93,33.06-85.37,49.65-23.3,13.59-30.13,12.13-43.16-10.07-53.96-91.95-107.42-184.2-162.12-275.71-11.18-18.7-8.89-28.71,10.19-38.96,31.74-17.06,62.99-35.22,93.21-54.84,19.18-12.45,31.05-7.08,38.74,11.29,6.98,16.67,14.34,15.41,27.13,5.82,52.12-39.07,105.04-77.08,166.02-101.69,69.14-27.91,136.73-22.28,202.09,11.73,18.3,9.52,36.43,12.08,56.51,10.25,61.43-5.61,123.93-6.77,181.7,14.78,32.57,12.15,54.25,6.88,80.09-10.24,28.08-18.61,58.28-33.74,92.42-39.18,22.87-3.64,44.7-1.7,61.67,14.68,10.42,10.06,19.74,10.47,31.42,5.46,19.96-8.55,40.8-10.27,62.21-8.29,29.81,2.75,47.92,20.62,60.49,45.98,5.83,11.76,3.34,20.65-7.8,28.03-93.58,62.02-179.55,134.78-274.61,194.69-81.47,51.35-169.56,80.83-266.99,78.38Z" style="fill: #000002; stroke-width: 0px;"/>
  <path d="M592.46,1.78c37.41-2.7,70.87,15.97,95.21,51.66,6.89,10.11,9.93,10.04,17.8.35C747.87,1.66,812.78-14.19,866.55,13.34c57.24,29.31,81.99,91.88,63.67,160.94-17.37,65.5-55.83,118.82-99.85,168.19-37.59,42.17-77.83,81.98-116.67,123.04-9.28,9.81-18.79,15.12-29.97,3.8-71.09-71.93-146.15-140.59-194.78-231.4-21.82-40.75-37.18-83.86-29.99-130.6C468.93,42.51,519.16,2.15,592.46,1.78Z" style="fill: #000002; stroke-width: 0px;"/>
  <path d="M833.42,613.9c-64.58,0-127.99-.5-191.38.39-13.68.19-37-8.39-36.44,16.07.51,22.29,22.6,14.01,35.89,14.13,61.25.53,122.52-.68,183.77,0,20.62.23,37.71-5.01,54.52-17.1,47.04-33.83,93.3-69.04,146.29-93.66,17.81-8.27,35.79-16.19,55.36-18.97,9.21-1.31,19.09-2.57,27.92-.58,10.51,2.37,23.14,7.38,26,17.96,2.85,10.55-10.99,13.07-17.85,18.13-63.72,47.06-129,92.09-191.57,140.62-132.53,102.8-280.03,130.81-441.79,93.93-23.67-5.4-47.94-8.95-70.88-16.53-25.01-8.25-46.54-6.84-68.12,9.06-14.42,10.63-31.13,18.08-46.44,27.56-8.52,5.28-14.07,6.88-20.32-3.93-31.76-54.93-64.05-109.56-96.85-163.87-5.87-9.72-4.6-14.8,4.24-20.94,45.69-31.72,89.78-65.79,139.29-91.75,67.47-35.38,135.62-36.54,202.71-1.19,25.77,13.58,51.23,16.42,79.14,14.91,57.99-3.13,116.29-6.4,172.44,13.43,27.93,9.86,49.46,26.59,54.06,62.34Z" style="fill: #fefefe; stroke-width: 0px;"/>
  <path d="M281.18,867.61c.7,4.93-2.99,6.53-6.35,8.48-23.01,13.35-46.19,26.42-68.9,40.27-12.23,7.46-14.64-2.26-18.81-9.35-48.05-81.59-95.94-163.28-144.24-244.72-5.31-8.96-6.71-13.89,4.36-19.65,22.18-11.55,43.59-24.63,65.06-37.51,7.16-4.3,12-5.33,16.97,3.19,49.31,84.48,98.9,168.8,148.4,253.17,1.18,2.02,2.32,4.06,3.5,6.12Z" style="fill: #fefefe; stroke-width: 0px;"/>
  <path d="M997.98,512.96c-46.81,25.56-89.38,55.23-132.45,85.86-1.72-2.86-3.05-4.46-3.72-6.3-14.33-39.07-14.67-39.77,23.83-59.9,25.35-13.25,50.19-28.83,80.28-29.86,10.77-.37,21.3-.36,32.06,10.21Z" style="fill: #fcfcfc; stroke-width: 0px;"/>
  <path d="M904.92,140.93c-3.01,50.6-33.51,98.81-68.24,144.76-38.9,51.47-84.68,96.82-129.95,142.57-5.87,5.93-9.7,11.22-18.39,2.29-60.77-62.36-123.67-122.87-167.58-199.35-18.55-32.31-31.66-66.35-31.97-104.35-.32-39.15,24.83-76.68,60.53-89.75,42.09-15.41,81.27-5.51,107.94,28.33,8.67,11,15.18,23.69,22.84,35.49,11.39,17.55,22.53,17.74,33.63.41,5.06-7.9,9.18-16.41,14.28-24.28,27.32-42.12,63.95-55.51,111.52-41.04,39.97,12.16,66.4,50.63,65.39,104.91Z" style="fill: #fefefe; stroke-width: 0px;"/>
</svg>