<?xml version="1.0" encoding="UTF-8"?>
<svg id="Layer_1" data-name="Layer 1" xmlns="http://www.w3.org/2000/svg" viewBox="0 0 1324.55 1260.07">
  <path d="M379.07,1259.22c-52.69,8.34-93.7-55.33-66.76-107.92,46.96-91.69,93.22-183.75,139.82-275.63,139.79-275.64,279.55-551.29,419.48-826.87,23.15-45.6,64.56-60.68,105.16-39.13,38.49,20.43,51.3,64.52,29.84,107.19-51.81,103.06-104.21,205.82-156.37,308.7-132.59,261.53-265.23,523.03-397.67,784.64-15.89,31.38-36.28,54.7-73.49,49.02Z" style="stroke-width: 0px;"/>
  <path d="M1324.22,891.53c6.53,142.35-118.63,284.05-278.2,284.66-166.2.64-295.05-128.28-293.16-290.26,1.85-158.71,130.77-285.78,287.79-285.17,162.36.62,291.29,141.1,283.57,290.77Z" style="stroke-width: 0px;"/>
  <path d="M.43,372.71C-8.4,229.71,120.47,85.8,284.83,86.16c157.71.34,286.54,129.63,287.2,289.16.65,155.84-130.26,285.99-287.1,286.49C119.48,662.34-8.08,519.13.43,372.71Z" style="stroke-width: 0px;"/>
  <path d="M1039.15,752.29c74.47-.27,135.48,61.15,135.67,136.58.18,73.93-62.96,137.03-136.48,136.38-72.86-.64-134.02-62.39-134.48-135.77-.47-74.83,60.76-136.92,135.29-137.19Z" style="fill: #fefefe; stroke-width: 0px;"/>
  <path d="M286.05,239.39c75.44.44,135.56,61.84,134.77,137.63-.76,72.24-64.35,134.14-137.18,133.54-75.67-.62-134.26-62.5-133.88-141.38.35-71.47,62.04-130.22,136.29-129.79Z" style="fill: #fefefe; stroke-width: 0px;"/>
</svg>