<?xml version="1.0" encoding="UTF-8"?>
<svg id="Layer_1" data-name="Layer 1" xmlns="http://www.w3.org/2000/svg" viewBox="0 0 1053.26 1050.46">
  <path d="M523.9,1050.33C251.93,1055.48,17.6,832.14,1.02,559.12-18.91,230.8,255.72-2.53,524.57.02c290.75,2.76,528.11,233.49,528.69,524.05.6,301.58-249.35,532.71-529.36,526.26Z" style="stroke-width: 0px;"/>
  <path d="M523.27,971.46c-256.22-4.54-448.69-206.94-443.15-466,5.02-234.35,212.8-430.14,451.54-425.47,250.75,4.9,445.85,206.99,441.57,457.4-4.09,239.59-210.11,438.33-449.97,434.08Z" style="fill: #fefefe; stroke-width: 0px;"/>
  <path d="M325.1,415.38c-1.88-47.92,11.68-94.74,42.27-136.28,25.59-34.75,59.64-54.55,103.34-54.74,25.04-.11,34.03,8.57,36.64,33.14,3.92,36.89,7.73,73.81,10.72,110.79,2.54,31.32-11.9,44.1-43.94,43.17-42.87-1.24-36.45-7.9-34.26,35.74,4.63,92.24,46.24,166.96,112.5,229.54,9,8.5,13.28,6.01,19.33-1.89,6.8-8.89,13.73-17.76,21.48-25.8,14.34-14.87,29.85-17.14,44.38-2.93,31.52,30.81,61.89,62.87,91.55,95.49,11.75,12.92,7.51,31.18-8.89,46.38-39.3,36.43-85.35,45.04-136.52,32.24-38.14-9.54-71.39-27.96-100.68-53.87-106.68-94.38-156.53-204.13-157.92-350.98Z" style="stroke-width: 0px;"/>
</svg>