<?xml version="1.0" encoding="UTF-8"?>
<svg id="Layer_1" data-name="Layer 1" xmlns="http://www.w3.org/2000/svg" viewBox="0 0 1153.72 1155.49">
  <path d="M.26,575.09C-9.35,282.49,244.92.41,575.61,0c318-.39,578.33,266.56,578.11,579.03-.22,314.43-265.86,575.49-576.08,576.46C270.89,1156.45-9,898.49.26,575.09Z" style="stroke-width: 0px;"/>
  <path d="M576.09,33.14c300.2-.25,545.58,245.27,545.04,545.36-.53,296.95-244.23,543.64-537.13,543.73-311.83.09-552.88-240.25-552.54-550.92C31.81,276.13,277.46,33.38,576.09,33.14Z" style="fill: #fefefe; stroke-width: 0px;"/>
  <path d="M705.26,899.21c-55.74-.12-107.52-16.39-156.47-41.39-144.67-73.89-244.54-186.26-286.17-344.99-25.87-98.64,5-181.59,82.63-238.41,43.3-31.69,80.88-22.05,101.67,26.69,15.02,35.22,29.07,70.85,43.69,106.24,11.84,28.66,7.23,53.16-15.24,75.55-42.44,42.27-42.37,42.97-7.68,93.14,37.67,54.48,84.37,99.2,143.29,130.74,14.77,7.91,24.55,8.87,37.75-4.54,55.82-56.67,56.44-56.1,129.25-25.55,26.13,10.97,52.82,20.65,78.62,32.32,42.58,19.25,52.66,55.2,26.94,93.76-42.36,63.5-101.41,96.43-178.28,96.43Z" style="stroke-width: 0px;"/>
  <path d="M287.47,453.57c.65-69.97,30.41-120.84,85.02-157.85,17.63-11.95,32.15-8.13,40.75,11.68,16.79,38.64,32.68,77.67,48.38,116.77,4.98,12.4,2.5,23.55-8.2,33.2-12.54,11.31-22.87,25.23-36.05,35.62-16.37,12.9-17.24,26.78-9.09,44.03,46.19,97.65,117.25,169.36,217.77,211.12,13.88,5.77,22.69,3.16,31.57-7.9,6.71-8.35,14.96-15.46,22.52-23.12q31.93-32.34,72.86-15.63c30.45,12.55,60.82,25.31,91.06,38.37,22.43,9.68,26.18,22.92,12.98,43.27-44.85,69.13-122.46,98.18-210.29,75.87-122.73-31.17-214.42-106.23-285.73-208.27-42.04-60.15-70.38-125.67-73.55-197.14Z" style="fill: #fefefe; stroke-width: 0px;"/>
</svg>