<?xml version="1.0" encoding="UTF-8"?>
<svg id="Layer_1" data-name="Layer 1" xmlns="http://www.w3.org/2000/svg" viewBox="0 0 1241.34 1287.58">
  <path d="M942.75,1287.45c-105.59,2.6-200.68-34.8-287.94-87.41C389.95,1040.36,186.7,822.51,55.41,540.87,13.03,449.95-10.37,354.69,4.47,252.57,19.24,150.99,75.52,76.88,155.85,19.13c40.58-29.17,85.51-23.35,122.34,6.39,80.88,65.32,152.87,139.74,203.18,231.94,36.09,66.14,35.16,130.41-17.31,189.77-66.58,75.31-49.19,145.58.49,206,48.54,59.04,98.32,116.95,159,164.03,64.37,49.94,119.19,51.55,183.95,1.28,64.13-49.78,128.12-49.13,195.08-9.29,23.4,13.92,45.48,29.92,65.47,48.39,43.85,40.49,86.06,82.67,125.19,127.79,13.8,15.91,25.62,33.3,34.74,52.44,23.12,48.52,16.18,88.49-20.43,127.61-53.11,56.75-111.95,103.32-191.4,117.15-24.43,4.25-48.88,3.87-73.41,4.81Z" style="fill: #282828; stroke-width: 0px;"/>
  <path d="M941.1,1230.03c-81.64-1.17-157.63-25.89-227.24-65.71C432.25,1003.24,219.16,778.74,92.84,477.32c-34.84-83.14-46.89-169.99-19.73-259.38,19.38-63.81,63.22-108.2,112.73-148.12,19.68-15.87,43.5-10.9,60.79,4.45,72.27,64.17,141.17,131.71,186.79,218.63,20.56,39.18,19.09,76.59-11.36,111.99-36.83,42.82-62.43,90.53-59.73,149.92,1.86,40.77,13.83,77.37,37.88,109.99,55.45,75.2,119.45,142.48,190.75,202.72,63.86,53.95,150.34,60.69,222.73,18.14,11.31-6.65,22.13-14.16,33.15-21.3,53.86-34.89,84.41-35.75,137.13,1.93,68.97,49.31,126.81,110.73,179.37,176.74,29.26,36.75,23.22,58.96-9.93,93.75-58.16,61.05-126.97,95.03-212.3,93.25Z" style="fill: #fefefe; stroke-width: 0px;"/>
</svg>