<?xml version="1.0" encoding="UTF-8"?>
<svg id="Layer_1" data-name="Layer 1" xmlns="http://www.w3.org/2000/svg" viewBox="0 0 1185.37 1186.79">
  <path d="M.12,593.96C-6.56,271.33,266.7.33,591.49,0c324.79-.33,593.51,270.61,593.88,592.97.37,322.51-266.66,593.38-592.78,593.82C266.33,1187.23-6.23,915.41.12,593.96Z" style="stroke-width: 0px;"/>
  <path d="M591.81,78.69c282.95-.25,513.91,229.89,515.07,513.26,1.16,283.11-231.19,516.24-514.65,516.38-283.75.14-515.05-231.57-514.98-515.9.07-282.45,231.48-513.48,514.56-513.74Z" style="fill: #fefefe; stroke-width: 0px;"/>
  <path d="M775.71,633.05c-41.1.01-82.23.85-123.29-.4-16.44-.5-21.07,3.66-20.87,20.53.95,81.4.36,162.82.48,244.23.03,18.97-2.74,36.85-21.09,46.92-28.7,15.75-58.15-4.3-58.55-40.71-.71-64.81.22-129.63-.42-194.44-.25-24.97,10.86-58.39-4.74-72.46-13.64-12.3-46.53-3.54-70.92-3.6-64.02-.16-128.05.04-192.07-.11-20.94-.05-39.73-4.5-46.1-28.31-7.82-29.2,10.27-50.25,44.66-50.59,54.53-.54,109.08-.15,163.62-.15,28.46,0,56.96-1.04,85.35.4,16.52.84,21.04-3.71,20.85-20.54-.95-82.19-.65-164.4-.32-246.6.13-33.06,14.85-49.81,41.31-48.93,25.03.84,38.17,17.26,38.29,49.69.28,79.04,1.05,158.1-.5,237.11-.45,23.15,4.33,30.15,28.89,29.57,79.79-1.88,159.65-.89,239.48-.6,30.66.11,46.58,13.09,48.04,37.55,1.46,24.43-15.02,40.76-44.03,41.25-42.67.73-85.36.19-128.04.2Z" style="stroke-width: 0px;"/>
</svg>