<?xml version="1.0" encoding="UTF-8"?>
<svg id="Layer_1" data-name="Layer 1" xmlns="http://www.w3.org/2000/svg" viewBox="0 0 1032.71 1166.18">
  <path d="M1.76,647.58c0-160.33-.03-320.66.02-480.99.01-33.99,1.85-35.76,35.45-35.81,45-.06,90-.43,134.99.23,13.98.2,20.89-1.85,20.57-18.74-.59-30.57,2.81-32.73,33.69-32.85,27.15-.11,54.32-.46,81.46.18,11.79.28,19.39-2.13,25.92-13.72,49.32-87.49,176.08-88.05,226.07-.32,6.59,11.57,13.86,14.32,25.78,14.05,28.69-.65,57.43.45,86.11-.42,21.94-.67,32.64,8.6,29.74,30.5-2.35,17.77,4.1,22.06,21.42,21.54,44.96-1.34,89.98-.51,134.98-.43,31.79.06,34.84,3.09,34.84,34.54.03,179.01.44,358.02-.61,537.03-.11,19.45,6.8,27.28,23.1,33.42,31.25,11.77,62.91,21.88,95.87,26.97,16.44,2.54,21.57,10.64,21.42,26.77-.64,68.48,1.06,137.01-.66,205.46-1.59,63.4-29.94,111.73-89.24,138.27-45.45,20.34-92.15,33.18-143.21,32.95-255.24-1.18-510.49-.53-765.74-.55-31.86,0-33.7-1.88-33.71-34.73C0,969.79,0,808.68,0,647.58h1.75Z" style="stroke-width: 0px;"/>
  <path d="M708.22,1128.66c-59.7,0-112.36,0-165.02,0-161.32,0-322.63-.34-483.95.46-18.61.09-22.76-5.11-22.69-23.16,1.21-304.98,1.85-609.97,1.96-914.96,0-17.96,4.04-24.06,22.81-23.28,37.94,1.57,75.99.94,113.98.21,13.14-.25,17.17,3.85,17.33,17.16.4,31.66,2.24,32.85,33.23,32.86,147.36.05,294.71.03,442.07.01,30.9,0,34.01-2.02,33.36-32.78-.33-15.55,5.51-17.54,18.72-17.28,38.76.78,77.57.99,116.32-.08,15.12-.42,19.33,3.72,19.28,19.16-.57,169.61-.36,339.21-.36,512.38-19.82-22.19-32.89-10.74-50.53,2.83-44.32,34.09-96.56,51.68-151.4,60.52-15.34,2.47-25.17,7.79-24.91,24.3,1.13,71.53-2.86,143.11,2.18,214.6,3.72,52.79,25.42,95.12,77.61,127.04Z" style="fill: #fefefe; stroke-width: 0px;"/>
  <path d="M995.46,906.07c-.02,25.66.02,51.32-.03,76.98-.12,59.59-29.58,97.75-82.85,122.69-63.03,29.51-122.19,23.47-181.37-9.08-36.77-20.22-58.53-50.51-62.39-92.13-5.98-64.36-1.27-128.98-2.5-193.47-.14-7.58,1.04-12.98,10.28-15.12,52.99-12.26,104.14-29.4,149.19-61.14,6.41-4.51,10.03-.58,14.16,2.34,41.83,29.56,89.11,46.2,138.47,56.79,15.18,3.26,17.71,10.05,17.33,23.51-.84,29.52-.26,59.09-.28,88.63Z" style="fill: #fefefe; stroke-width: 0px;"/>
  <path d="M448.21,118.35c65.09,0,130.2.77,195.27-.5,18.16-.35,21.61,5.31,21.16,22.11-1.1,40.61-.23,40.63-41.68,40.63-123.21,0-246.42-.28-369.63.33-16.72.08-24.34-2.12-23.52-21.95,1.67-40.57.37-40.62,41.74-40.62,58.89,0,117.79,0,176.68,0Z" style="fill: #fefefe; stroke-width: 0px;"/>
  <path d="M523.65,78.58h-149.64c11.11-24.34,33.93-39.77,65.42-42.01,33.99-2.42,61.58,10.22,84.23,42.01Z" style="fill: #f5f5f5; stroke-width: 0px;"/>
  <path d="M474,1026.14c-18.58-2.11-28.4-17.68-40.95-28.43-10.81-9.26-19.45-10.95-32.87-5.11-12.25,5.33-14.79,12.41-15.36,24.38-2.65,55.67-2.98,55.66-58.43,55.65-41.33,0-41.44-.33-43.76-43.27-.78-14.55,3.37-30.4-17.72-37.59-13.23-4.51-21.01-2.81-30.68,5.8-46.28,41.25-41.45,37.47-82.26-3.41-26.11-26.15-25.64-27.34-1.58-57.06,8.11-10.01,24.19-16.02,20.27-33.7-4.34-19.56-16.3-27.08-36.19-27.04-58.29.1-47.3-10.34-48.09-52.73-.14-7.78.16-15.56-.05-23.34-.39-14.31,6.82-21.51,20.62-22.83,11.57-1.1,23.17-3.37,34.71-3.08,14.51.36,20.7-5.88,26.51-19.17,5.81-13.29.71-19.78-6.77-28.23-40.81-46.11-38.34-40.1,3.77-82.03,26.98-26.87,27.12-26.9,56.25-1.67,5.87,5.08,12.73,9.3,17.56,15.21,8.17,10.01,16.03,5.3,24.63,1.6,9.19-3.96,19.11-6.21,18.44-19.97-.53-10.82,1.2-21.73,1.45-32.61.46-20.17,9.79-30.39,30.55-28.42.77.07,1.55,0,2.33,0,69.64.9,64.91-9.22,68.46,61.75.72,14.31,10.48,14.97,18.76,19.55,8.83,4.88,15.52,5.4,24.7-2.05,48.39-39.22,48.07-38.18,92.15,4.7,16.64,16.19,17.68,29.25,1.57,45.05-6.08,5.96-11.08,13.01-17.01,19.15-7.85,8.14-13.02,15.22-6.47,28.03,5.69,11.12,9.86,17.67,24.3,19.27,60.89,6.73,58.24-8.49,57.88,65.39-.15,30.64-3.52,33.51-34.51,36.14-18.62,1.58-41.33-5.03-48.9,23.14-2.6,9.68-1.51,15.16,4.7,22.32,42.82,49.42,46.9,38.7-5,90.38-6.42,6.39-11.8,15-23.04,14.23Z" style="stroke-width: 0px;"/>
  <path d="M86.33,425.02c-.02-25.64.39-51.3-.16-76.93-.38-17.52,7.03-25.95,24.69-25.89,54.22.18,108.45.06,162.67.1,16.26.01,23.76,8.14,23.68,24.61-.26,53.62-.27,107.24,0,160.86.09,16.52-7.47,24.61-23.68,24.63-55,.05-109.99.05-164.99-.05-15.34-.03-22.37-8.11-22.26-23.41.21-27.97.06-55.95.04-83.92Z" style="fill: #010101; stroke-width: 0px;"/>
  <path d="M564.49,359.78c-63.58,0-127.15.01-190.73-.02-6.19,0-12.48.27-18.56-.65-10.47-1.59-16.94-7.84-16.63-18.89.28-9.89,6.35-15.7,15.83-17.18,6.08-.95,12.36-.86,18.54-.86,127.93-.04,255.86-.04,383.78,0,6.19,0,12.45-.03,18.54.89,9.7,1.46,15.23,7.73,15.45,17.49.22,9.76-4.98,16.42-14.66,18.07-6.81,1.16-13.88,1.1-20.84,1.11-63.58.07-127.15.04-190.73.04Z" style="fill: #060606; stroke-width: 0px;"/>
  <path d="M521.18,408.67c49.57,0,99.15.14,148.72-.09,14.14-.06,28.38.86,28.07,19.13-.31,18.31-14.97,18.4-28.82,18.38-100.69-.12-201.39-.15-302.08.02-14.18.02-28.36-1.05-28.06-19.16.3-18.2,14.96-18.42,28.82-18.37,51.12.18,102.24.07,153.37.07Z" style="stroke-width: 0px;"/>
  <path d="M959.25,852.6c0,7.52-3.69,13.24-8.72,18.4-53.1,54.58-106.3,109.06-159.16,163.87-11.56,11.98-22.59,12.24-34.22,1.25-14.67-13.87-29.01-28.11-43.52-42.15-9.08-8.78-11.92-18.35-2.42-28.36,8.76-9.23,18.1-6.52,27.02.29,1.22.93,2.19,2.2,3.33,3.24,10.29,9.32,20.83,26.38,30.84,26.07,13.8-.43,22.57-18.93,33.28-29.83,39.75-40.47,79.06-81.38,118.52-122.13,6.8-7.02,14.18-12.79,24.48-7.46,6.56,3.39,10.71,8.89,10.57,16.8Z" style="fill: #010101; stroke-width: 0px;"/>
  <path d="M332.11,1034.31c-9.68,1.74-13.59-3.38-11.93-11.77,10.28-51.82-29.35-61.77-63.32-76.34-9.32-4-18.06-2.05-25.85,4.75-8.76,7.66-18.02,14.75-26.69,22.5-6.71,6-11.8,7.82-19.32.02-7.3-7.56-7.12-13.17.28-19.15,28.61-23.13,33.15-47.43,14.92-81.99-10.82-20.5-18.8-33.69-42.74-32.08-6.89.46-13.89-1.27-20.85-1.33-7.75-.06-13.11-.84-12.83-11.19.24-9.08,1.61-16.08,12.1-14.75,42.16,5.34,61.51-17.19,73.23-54.62,4.99-15.94,7.59-27.34-5.05-39.57-7.21-6.98-12.62-15.83-19.8-22.84-7.29-7.12-6.4-12.07.76-18.57,5.86-5.32,10.85-9.39,16.98-1.45,25.37,32.82,54.08,35.14,90.01,15.54,15.34-8.37,25.97-14.64,26.11-32.85.07-9.31,1.72-18.6,1.77-27.91.05-9,1.75-14.65,12.74-14.4,9.53.22,15.91,3.22,14.31,13.18-6.79,42.44,15.98,59.91,52.87,71.82,18.09,5.84,30.04,7.7,43.18-6.32,6.85-7.31,15.65-12.77,22.73-19.9,6.47-6.51,10.5-3.24,15.15,1.76,4.69,5.04,12.04,10.33,3.31,16.83-36.15,26.87-33.85,57.91-14.5,94.27,7.61,14.29,14.32,22.43,30.56,22.44,11.57.01,23.11,2.24,34.7,2.96,9.42.59,8.08,7.11,8.38,13.27.33,6.86-.36,13.4-9.25,11.9-46.47-7.85-65.17,19.55-77.97,58.21-4.51,13.61-5.5,23.21,4.24,33.56,7.44,7.91,14.03,16.62,21.62,24.37,6.82,6.97,6.82,11.84-.47,19.11-7.73,7.71-12.82,5.9-19.18-.64-3.77-3.88-8.57-6.79-12.18-10.79-16.88-18.71-35.34-24.01-56.89-7.72-1.82,1.37-4.09,2.74-6.26,2.96-34.57,3.49-41.53,26.01-39.7,55.89.6,9.77,3.31,24.05-15.17,20.84Z" style="fill: #fefefe; stroke-width: 0px;"/>
  <path d="M258.18,427.81c0,21.65,8.52,51.08-2.22,62.92-12.64,13.93-42.33,4.21-64.55,4-22.06-.2-51.59,10.32-64.08-4.59-10.8-12.9-3.26-41.55-3.21-63.23.06-21.65-7.23-50.17,3.6-63.07,11.36-13.52,40.77-2.91,62.24-4.21.77-.05,1.55-.02,2.32,0,21.55.53,50.39-7.19,62.73,3.77,14.27,12.67,2.1,42.27,3.15,64.41Z" style="fill: #fcfcfc; stroke-width: 0px;"/>
  <path d="M437.72,827.41c-.51,56.53-47.62,103.37-104.17,103.57-58.1.21-106.11-48.82-105.35-107.6.72-56.06,48.57-102.07,105.88-101.8,58.48.27,104.18,46.93,103.64,105.83Z" style="stroke-width: 0px;"/>
  <path d="M250.23,398.54c.27,3.66-3.9,8.39-8.19,12.86-18.25,19-36.57,37.95-54.99,56.79-7.48,7.65-16.55,13.83-26.52,6.12-11.84-9.17-28.06-17.14-26.33-35.28,1.34-14.08,13.01-21.11,25.24-13.61,10.42,6.39,14.48,2.37,20.65-4.09,12.31-12.88,24.86-25.56,37.7-37.91,5.85-5.63,12.81-8.25,21.21-4.37,7.15,3.31,10.65,8.54,11.22,19.49Z" style="fill: #020202; stroke-width: 0px;"/>
  <path d="M399.82,827.4c-.6,36.11-31.65,66.57-67.33,66.04-35.59-.53-65.99-31.75-66-67.77,0-36.99,31.79-67.76,68.82-66.6,36.42,1.14,65.12,31.55,64.51,68.33Z" style="fill: #fefefe; stroke-width: 0px;"/>
</svg>