<?xml version="1.0" encoding="UTF-8"?>
<svg id="Layer_1" data-name="Layer 1" xmlns="http://www.w3.org/2000/svg" viewBox="0 0 1457.06 1276.12">
  <path d="M612.94,1266.58c-101.43-50.39-198.47-98.55-295.48-146.8-95.44-47.47-190.55-95.61-286.47-142.08C8.52,966.82-.1,952.49,0,927.98c.68-161.43.45-322.87.21-484.31-.02-16.45-2.23-28.94,22.02-16.74,190.41,95.82,381.34,190.62,572.2,285.54,10.52,5.23,19.07,8.49,19,24.18-.77,175-.49,350-.49,529.92Z" style="stroke-width: 0px;"/>
  <path d="M671.31,1266.5c0-180.38.18-355.37-.36-530.35-.04-13.07,5.05-18.49,15.74-23.77,192.87-95.24,385.67-190.64,578.13-286.69,17.57-8.77,19.13-3.02,19.05,12.6-.38,83.63-.58,167.27.16,250.89.15,16.6-4.38,19.05-20.11,16.15-189.74-34.95-353.43,76.7-385.29,263.88-9.43,55.38-2.5,110.29,18.51,162.99,3.59,9.01,10.77,17.91-5.19,25.57-72.29,34.7-143.93,70.76-220.64,108.73Z" style="stroke-width: 0px;"/>
  <path d="M1199.03,1275.9c-149.11,1.28-263.59-110.12-265.13-257.98-1.48-142.99,114.75-261.42,259.86-262.49,152.8-1.12,261.68,123.42,263.28,261.3,1.53,132.07-115.92,265.51-258.01,259.17Z" style="stroke-width: 0px;"/>
  <path d="M889.44,118.9c-222.86,111.53-440.59,220.34-658.04,329.72-13.57,6.83-24.02,7.29-37.6.24-55.1-28.58-110.71-56.2-166.39-83.63-13.91-6.85-26-14.89-26.02-31.65-.02-16.67,11.81-24.9,25.74-31.84C224.15,203.69,421.02,105.32,617.93,7.05c12.57-6.27,25.91-10.22,39.17-3.68,76.34,37.67,152.48,75.76,232.33,115.53Z" style="stroke-width: 0px;"/>
  <path d="M394.69,548.11c121.27-60.8,238.68-119.74,356.16-178.53,99.74-49.92,199.75-99.31,299.15-149.88,15.48-7.87,27.28-8.21,42.76-.11,54.12,28.35,108.97,55.3,163.8,82.27,13.92,6.85,26.07,14.88,25.62,31.82-.45,16.58-12.41,24.38-26.4,31.34-197.87,98.33-395.55,197.04-593.19,295.84-10.87,5.43-21.85,9.89-33.25,4.25-77.17-38.19-154.14-76.78-234.65-116.99Z" style="stroke-width: 0px;"/>
  <path d="M281.13,488.14c219.81-109.57,438.32-218.23,656.47-327.57,28.27-14.17,43.8,8.22,68.17,16.87-215.75,107.51-428.33,212.39-639.6,319.83-32.76,16.66-57.09,14.32-85.04-9.14Z" style="fill: #010101; stroke-width: 0px;"/>
  <path d="M150.63,842c4.67,1.92,12.9,4.74,20.61,8.58,51.16,25.51,102.06,51.56,153.39,76.73,18.72,9.18,32.68,21.51,22.42,42.89-10.86,22.62-29.52,19.68-49.42,9.5-50.03-25.59-100.67-49.96-150.9-75.15-10.26-5.15-21.2-9.74-26.53-21.53-8.71-19.28,5.07-40.84,30.43-41.03Z" style="fill: #fdfdfd; stroke-width: 0px;"/>
  <path d="M291.73,812.48c.7,20.26-20.89,35.46-40.85,26.25-40.28-18.59-79.79-38.86-119.23-59.2-13.91-7.17-18.24-19.87-11.79-34.43,6.77-15.29,19.69-23.32,35.21-16.13,42.01,19.45,83.31,40.47,124.53,61.56,7.93,4.06,11.74,12.6,12.12,21.95Z" style="fill: #fdfdfd; stroke-width: 0px;"/>
  <path d="M1153.67,1122.15c-7.98-.17-13.97-3.53-18.84-8.37-25.5-25.3-51.25-50.38-75.97-76.43-12.52-13.2-12.23-28.73.95-41.53,13.54-13.15,27.87-11.02,40.95,1.95,2.76,2.74,5.49,5.5,8.37,8.11,16.41,14.84,29.74,42.87,48.74,42.03,15.96-.71,30.97-26.46,46.12-41.42,27.66-27.31,55.14-54.8,82.63-82.28,13.91-13.9,29.5-20.95,45.47-4.98,15.59,15.59,10.36,31.39-4.03,45.65-48.99,48.59-97.92,97.23-146.65,146.07-8.09,8.11-16.84,12.93-27.75,11.19Z" style="fill: #fefefe; stroke-width: 0px;"/>
</svg>