<?xml version="1.0" encoding="UTF-8"?>
<svg id="Layer_1" data-name="Layer 1" xmlns="http://www.w3.org/2000/svg" viewBox="0 0 1165.81 1166.51">
  <path d="M610.69,747.9c0-50.06.49-100.13-.32-150.17-.22-13.8,4.1-21.28,16.62-27.29,95.05-45.57,189.9-91.57,284.52-138.02,20.13-9.88,25.3-2.73,25.24,16.95-.31,101.81-.35,203.63.11,305.44.06,13.08-4.99,19.39-16.41,24.87-95.03,45.62-189.85,91.68-284.49,138.09-20.04,9.83-25.63,2.84-25.43-17.16.5-50.9.17-101.81.17-152.72Z" style="stroke-width: 0px;"/>
  <path d="M596.57,1166.34c-137.03,2.75-249.59-35.14-351.09-107.35-11.83-8.42-18.93-8.79-29.9.93-20.26,17.94-42.08,34.13-63.39,50.87-9.05,7.11-18.81,11.59-30.38,5.43-12.01-6.39-16.2-16.71-14.84-29.72,5.47-52.32,10.69-104.67,16.69-156.93,1.95-17.03,13.54-25.67,30.08-24.08,52.19,5.01,104.32,10.76,156.4,16.82,11.48,1.34,20.36,8.19,24.58,19.58,4.54,12.28-1.38,21.76-9.78,29.38-11.9,10.81-24.06,21.55-37.27,30.6-12.33,8.46-11.5,12.71.7,20.77,69.53,45.95,144.91,76.78,227.68,86.4,264.45,30.75,499.31-125.15,573.66-381.02,32.22-110.89,26.64-221.13-12.62-329.64-10.88-30.07-8.39-46.61,8.47-52.62,18.79-6.7,32.25,4.05,43.69,34.89,124.16,334.78-79.9,703.71-428.53,775.7-38.46,7.94-76.92,10.96-104.12,9.99Z" style="stroke-width: 0px;"/>
  <path d="M891.71,156.44C707.91,14.97,427.33,23.38,250.59,174.23,69.82,328.53,10.82,550.62,91.55,773.82c6.43,17.77,8.18,34.91-11.74,43.2-21.1,8.78-31.77-4.27-39.62-23.4C-43.99,588.55,6.8,340.3,167.02,176.48,368.1-29.13,682.08-58.65,918.04,106.75c15.77,11.05,25.02,10.54,38.48-1.87,18.02-16.61,38.11-30.96,57.23-46.37,9.94-8.02,20.07-11.8,32.54-4.94,12.27,6.74,15.68,17.52,14.38,29.98-5.27,50.64-11.18,101.21-16.54,151.84-2.22,21.02-13.8,30.24-34.16,28.05-50.46-5.43-100.88-11.26-151.3-17.05-12.77-1.47-22.4-7.36-26.14-20.54-3.79-13.37,2.36-22.83,12.17-30.86,15.57-12.73,31.1-25.51,47.01-38.56Z" style="stroke-width: 0px;"/>
  <path d="M230.3,602.74c0-50.91-.22-101.81.1-152.72.15-24.41,4.95-27.26,26.78-16.68,93.34,45.25,186.47,90.93,280.04,135.67,14.1,6.74,19.78,14.6,19.66,30.64-.72,99.26-.29,198.53-.44,297.8-.04,27.94-4.04,30.44-29.16,18.28-92.61-44.8-185-90.05-277.81-134.42-14.14-6.76-19.88-14.88-19.55-30.95,1.03-49.19.37-98.41.38-147.62Z" style="stroke-width: 0px;"/>
  <path d="M886.01,373.18c1.69,11.64-4.26,14.17-9.42,16.66-94.03,45.38-188.17,90.56-282.15,136.06-7.57,3.67-13.85,3.84-21.43.12-30.22-14.87-60.74-29.12-91.04-43.82-5.14-2.49-11.86-4.55-12.11-11.59-.28-8.16,6.52-10.86,12.72-13.85,93.29-44.98,186.57-89.98,279.77-135.15,7.4-3.58,14.23-4.3,21.68-.65,30.26,14.81,60.53,29.61,90.92,44.14,5.57,2.66,10.45,5.35,11.07,8.08Z" style="stroke-width: 0px;"/>
  <path d="M697.44,286.57c-.68,8.52-8.01,10.1-13.84,12.91-92.54,44.64-185.18,89.06-277.62,133.92-8.41,4.08-15.19,4.77-23.71.53-29.4-14.65-59.17-28.54-88.74-42.84-5.95-2.88-13.1-5.15-12.88-13.7.22-8.6,7.66-10.11,13.63-12.99,91.78-44.27,183.58-88.49,275.27-132.95,7.91-3.84,15.09-6.8,23.8-2.53,30.99,15.21,62.1,30.16,93.18,45.17,5.43,2.62,10.75,5.23,10.92,12.48Z" style="stroke-width: 0px;"/>
  <path d="M336.4,569.23c3.06,1.09,9.6,2.8,15.58,5.66,32.73,15.69,65.25,31.81,97.99,47.47,16.92,8.09,26.28,20.86,17.86,38.69-8.4,17.78-23.87,18.86-40.91,10.34-34.72-17.37-69.74-34.15-104.57-51.29-13.03-6.41-18.99-17.23-15.49-31.32,3.17-12.8,12.06-20.09,29.55-19.54Z" style="fill: #fdfdfd; stroke-width: 0px;"/>
</svg>