<?xml version="1.0" encoding="UTF-8"?>
<svg id="Layer_1" data-name="Layer 1" xmlns="http://www.w3.org/2000/svg" viewBox="0 0 1361.79 1095.39">
  <path d="M1024.85,755.5c43.63-34.86,86.19-68.85,128.73-102.89,22.08-17.67,44.06-35.47,66.16-53.12,42.9-34.26,88.73-31.62,120.81,6.88,32.61,39.14,27.13,99.44-12.69,131.87-108.21,88.13-219.49,172.74-324.27,264.76-114.94,100.94-242.31,111.12-380.62,69.09-96.6-29.35-192.67-60.49-288.78-91.44-28.76-9.26-57.92-3.31-86.85-5.16-14.46-.93-9.49,10.32-9.81,17.31-1.78,38.56-5.03,41.95-43.09,41.99-53.85.06-107.72-.5-161.56.25-22.82.32-33-7.71-32.88-31.85.66-136.92.67-273.84,0-410.76-.11-22.61,8.67-31.17,30.57-30.95,56.59.55,113.19,0,169.78.25,31.19.14,37.29,5.48,36.6,36.62-.36,16.27,3.12,21.25,20.58,21.53,35.99.58,69.47-4.38,103.29-18.64,97.36-41.04,193.39-37.48,285.68,17.01,7.82,4.62,17.49,8.29,22.48,15.17,23.24,32.02,55.96,31.8,90.49,30.89,51.08-1.34,102.22-.35,153.34-.35,70.43,0,97.6,21.59,112.04,91.53Z" style="stroke-width: 0px;"/>
  <path d="M880.15,537.85c-151.74.05-270.45-119.79-270.82-273.39C608.99,117.89,730.84-.04,882.59,0c148.09.04,268.97,121.13,269.28,269.76.3,145.92-123.47,268.04-271.71,268.09Z" style="stroke-width: 0px;"/>
  <path d="M812.81,795.46c-41.09.03-82.18.11-123.27,0-17.35-.04-32.19,4.3-31.51,25.01.63,19.08,15.07,22.6,31.17,22.58,81.27-.1,162.55.92,243.79-.45,42.16-.71,79.6-17.01,112.59-43.71,65.96-53.38,132.35-106.24,198.46-159.44,26.35-21.21,45.68-22.12,61.3-2.37,17.14,21.68,14.04,48.12-9.63,67.41-116.69,95.14-232.47,191.44-350.96,284.29-92.12,72.19-196.46,73.8-303.9,40.18-89.45-27.99-179.07-55.55-267.93-85.33-38.05-12.75-76.24-17.18-115.63-14.62-14.75.96-20.49-2.49-20.3-18.89.89-75.78.66-151.57.13-227.36-.09-12.64,2.48-18.73,16.42-17.04,50.52,6.12,95.34-11.41,142.27-28.27,95-34.12,184.52-19.97,261.4,50.32,16.83,15.39,36.57,22.36,59.84,22.13,69.39-.67,138.79.11,208.18-.43,24.72-.19,42.7,7.4,49.42,33.15,7.25,27.77-9.84,52.07-38.58,52.59-41.08.74-82.17.19-123.26.22Z" style="fill: #fefefe; stroke-width: 0px;"/>
  <path d="M44.83,797.27c0-56.5.78-113.01-.45-169.48-.38-17.41,4.89-21.39,21.37-20.81,35.49,1.27,71.07.95,106.59.11,13.91-.33,19,3.32,18.93,18.14-.55,114.81-.58,229.63.02,344.44.08,16.1-5.67,20.08-20.67,19.7-35.52-.89-71.09-1.08-106.59.08-15.85.52-19.75-4.81-19.53-19.97.81-57.4.33-114.81.33-172.22Z" style="fill: #fefefe; stroke-width: 0px;"/>
  <path d="M881,43.87c124.16.35,225.83,102.7,225.67,227.19-.15,120.98-104.32,222.55-227.74,222.06-126.48-.5-225.68-101.8-225-229.73.64-119.57,104.38-219.86,227.06-219.51Z" style="fill: #fefefe; stroke-width: 0px;"/>
  <path d="M967.13,196.5c.64,17.02-1.83,32.63-21.17,32.91-19.14.27-23.03-15.12-22.53-30.95.79-25.18-15.65-33.69-36.11-36.1-19.11-2.25-38.31,2.43-45.53,22.29-7.3,20.07-.25,36.7,20.14,47.78,23.18,12.59,45.15,27.41,67.66,41.23,27.46,16.85,40.29,40.99,37.33,73.44-2.9,31.78-21.07,52.02-49.45,62.76-11.33,4.29-16.55,9.01-15.87,21.13.83,14.72-2.19,29.19-20.32,29.47-17.1.26-24.06-12.95-22.92-27.98,1.18-15.59-7.01-19.25-19.2-24.24-28.52-11.67-44.54-34.01-46.51-65.19-.89-14.12,4.41-26.61,19.48-28.63,15.53-2.08,21.55,8.67,24.34,23.19,6.57,34.23,49.69,48.51,76.2,25.88,16.48-14.07,14.78-37.44-4.91-50.61-24.23-16.21-49.15-31.39-74.03-46.6-29.84-18.24-40.55-45.07-37.63-79,2.67-31.04,21.33-49.57,47.82-61,11.53-4.98,17.62-9.98,16.65-23.57-1.03-14.41,5.9-25.55,21.86-25.45,14.72.09,21.45,11.65,20.83,24.08-.82,16.36,8.06,20.53,20.52,26.68,28.08,13.87,45.36,36.28,43.38,68.48Z" style="stroke-width: 0px;"/>
</svg>