<?xml version="1.0" encoding="UTF-8"?>
<svg id="Layer_1" data-name="Layer 1" xmlns="http://www.w3.org/2000/svg" viewBox="0 0 1362.94 1179.63">
  <path d="M590.22.15c153.8,0,307.6-.05,461.4.02,84.15.04,130.24,45.63,130.33,129.1.13,121.95.4,243.9-.38,365.84-.11,17.57,4.74,25.71,22.26,29.82,42.58,9.98,85.4,18.43,129.08,19.44,24.3.56,30.38,10.78,30.02,33.5-1.2,75.52-1.08,151.07-.47,226.6.81,100.01-41.71,180.95-110.29,249.63-53.95,54.04-118.68,92.27-189.51,120.39-9.43,3.74-18.33,7.53-28.76,3.24-118.38-48.66-218.47-118.42-275.79-237.88-15.08-31.43-24.92-64.71-27.89-99.07-1.77-20.44-8.6-24.51-27.93-24.43-191.11.78-382.22.43-573.33.52-25.66.01-51.19-.76-73.71-15.03C20.9,780.08-.06,750.58,0,707.95.28,507.74-.3,307.53.37,107.32.57,46.27,51.24.65,117.91.32c119.21-.6,238.43-.17,357.65-.17,38.22,0,76.44,0,114.67,0Z" style="stroke-width: 0px;"/>
  <path d="M1137.11,498.32c-27.91-8.94-50.13-21.1-70.85-35.4-15.08-10.4-26.6-9.05-41.77.55-81.52,51.56-170.59,79.93-267.38,81.47-22.04.35-30.67,8.59-30.29,30.99.99,58.22-.38,116.47.77,174.68.34,17.21-4.86,21.05-21.35,21-196.53-.56-393.07-.16-589.6-.52-46.22-.08-72.54-26.68-72.76-73.17-.49-104.63.26-209.28-.58-313.9-.14-17.22,5.09-20.95,21.47-20.92,350.3.46,700.6.44,1050.9.04,15.65-.02,22.66,2.32,21.91,20.42-1.54,37.22-.46,74.55-.46,114.76Z" style="fill: #fefefe; stroke-width: 0px;"/>
  <path d="M588.19,136.71c-172.78,0-345.56-.56-518.32.63-24.34.17-28.81-7.56-25.96-29.1,3.93-29.7,21.72-52.65,50.92-60.08,8.69-2.21,17.92-3.26,26.9-3.27,311.91-.16,623.81-.22,935.72-.05,47.65.03,75.87,25.33,79.82,67.86,1.7,18.37-2.44,24.6-22.55,24.5-175.5-.86-351-.5-526.51-.5Z" style="fill: #fefefe; stroke-width: 0px;"/>
  <path d="M1227.49,724.99c-.24,9.7-4.93,17.11-11.64,23.75-64.57,64.01-129.19,127.97-193.47,192.27-15.12,15.12-28.64,15.93-43.96.37-33.81-34.33-68.18-68.11-102.3-102.13-11.27-11.24-18.66-23.47-5.14-37.68,13.98-14.71,26.01-6.65,37.2,4.59,25.66,25.77,52.2,50.75,76.58,77.68,12.7,14.04,19.66,11.57,31.6-.61,56.02-57.11,113.02-113.26,169.58-169.84,7.41-7.42,15.03-13.31,26.31-9.13,9.61,3.56,13.7,11.21,15.25,20.73Z" style="fill: #fdfdfd; stroke-width: 0px;"/>
  <path d="M271.27,453.53c35.42,0,70.85.63,106.24-.24,20.53-.5,30.25,7.3,30.11,28.36-.39,57.21-.26,114.42-.09,171.63.06,20.82-10.4,29.01-30.52,28.91-70.83-.34-141.66-.35-212.49,0-20.47.1-30.42-9.26-30.45-29.41-.07-57.21.01-114.42-.06-171.63-.03-20.99,10.72-28.4,31.02-27.87,35.39.92,70.82.26,106.24.26Z" style="stroke-width: 0px;"/>
</svg>