<?xml version="1.0" encoding="UTF-8"?>
<svg id="Layer_1" data-name="Layer 1" xmlns="http://www.w3.org/2000/svg" viewBox="0 0 1202.19 1154.91">
  <path d="M900.81,338.15c0,41.71.55,83.42-.31,125.11-.28,13.61,2.87,19.38,17.44,21.97,146.96,26.14,254.61,129.57,279.15,276.51,37.9,226.92-141.66,391.48-323.84,393.16-110.61,1.02-201.03-39.07-271.95-123.3-8.09-9.61-14.69-9.06-24.42-4.74-25.62,11.37-52.73,18.35-79.51,26.44-48.82,14.75-95.42,3.65-140.54-12.64C156.16,968.23,38.32,825.74,2.78,615.59c-3.44-20.37-2.19-41.61-2.23-62.45C.35,439.25.83,325.35,0,211.47c-.14-19,6.13-27.85,23.82-35.27C157.19,120.27,290.12,63.3,422.9,5.99c18.31-7.9,34.35-8.03,52.71-.11,133.53,57.6,267.26,114.75,401.28,171.21,17.43,7.34,24.72,16.99,24.24,35.95-1.05,41.68-.33,83.4-.32,125.11Z" style="stroke-width: 0px;"/>
  <path d="M718.61,512.16c-1.28-15.26-1.33-26.51-3.33-37.4-4.79-26.05-21.6-42.71-47.45-41.99-20.6.58-23.26-7.83-22.57-25.02,1.95-48.78-4.92-95.49-32.98-137.56-47.81-71.69-135.66-104.01-218.84-79.32-82.61,24.53-139.71,100.29-140.18,186.01-.03,4.81-.3,9.64.07,14.43,1.89,23.85,3.87,44.31-32.47,42.92-23.38-.89-38.77,25.03-38.99,55.04-.44,58.52-.13,117.04-.13,175.56,0,49.7-.26,99.41.07,149.11.29,43.65,18.27,61.43,61.15,61.44,88.98.02,177.97.3,266.95-.29,14.24-.09,20.63,2.8,23.33,18.42,4.91,28.37,14.75,55.75,29.69,80.57,7.87,13.09,2.37,16.59-8.89,21.44-67.93,29.24-134.84,30.46-204.6,2.87-187.35-74.08-308.8-244.58-312.16-446.33-1.79-107.39-.08-214.84-.79-322.26-.09-13.82,5.15-19.16,16.91-24.14,125.76-53.25,251.37-106.87,376.76-160.99,13.54-5.84,24.31-5.83,38.11.16,124.51,54.08,249.27,107.57,374.42,160.14,15.17,6.37,19.92,13.46,19.73,29.54-.91,75.34-.72,150.71-.12,226.06.11,14.4-2.08,21.15-18.96,21.4-42.78.63-83.49,12.52-124.71,30.19Z" style="fill: #fefefe; stroke-width: 0px;"/>
  <path d="M861.73,1116.68c-168.32-.9-299.17-133.15-298.43-301.63.71-163.86,137-296.93,302.9-295.74,164.65,1.17,300.19,138.18,298.19,301.45-2.02,165.68-136.14,296.83-302.66,295.93Z" style="fill: #fefefe; stroke-width: 0px;"/>
  <path d="M449.56,470.36c67.28,0,134.56.55,201.82-.35,19.16-.26,26.42,5.03,27.6,25.4,1.58,27.24-7.48,43.62-29.36,61.37-81.34,65.99-124.91,152.54-124.83,258.44.01,18.48-4.58,22.32-22.33,22.11-85.69-.99-171.4-1-257.08-.03-19.51.22-24.81-6.83-24.72-25.04.53-105.72.59-211.44-.04-317.16-.11-18.51,5.51-25.37,24.71-25.11,68.06.93,136.15.36,204.23.36Z" style="fill: #fefefe; stroke-width: 0px;"/>
  <path d="M292.28,391c-4.83-98.44,62.96-152.2,118.49-164.86,103.34-23.56,191.13,45.96,195.82,154.63.38,8.8-.95,17.78.3,26.42,2.88,19.95-4.71,25.9-24.73,25.37-15.88-.42-18.41-5.89-17.91-19.6.78-21.55,1.35-43.16-4.18-64.51-14.2-54.74-68.28-91.24-126.05-84.43-53.95,6.36-98.25,54.86-99.82,109.45-.3,10.41-.24,20.84-.02,31.26.31,15.12,3.42,28.43-21.58,28.19-24.29-.23-20.45-13.35-20.32-27.49.04-4.81,0-9.62,0-14.43Z" style="fill: #fdfdfd; stroke-width: 0px;"/>
  <path d="M448.49,431.84c-20.76,0-41.52-.21-62.28.1-8.42.12-13.81-1.54-13.42-11.65.68-17.54-.89-35.3,1.33-52.61,4.8-37.39,36.9-65.06,73.7-65.57,38.31-.53,69.89,26.22,76.84,65.06,10.54,58.96,5.93,64.68-52.22,64.68-7.98,0-15.97,0-23.95,0Z" style="fill: #fdfdfd; stroke-width: 0px;"/>
  <path d="M937.42,811.67c16.57,11.12,35.28,18.42,50.84,31.12,41.54,33.89,66.27,77.19,75.31,129.75,3.05,17.71-3.35,27.97-22.51,27.97-118.57-.02-237.14-.02-355.72,0-19.8,0-24.52-11.64-21.94-28.6,9.67-63.43,43.67-110.53,97.44-144.1,8.72-5.45,18.2-9.7,29.7-15.75-31.08-28.33-43.03-63.28-37.56-103.27,3.71-27.12,17.6-49.67,38.6-67.19,44.84-37.4,110.25-34.38,150.45,6.48,44.83,45.57,43.27,108.79-4.62,163.59Z" style="stroke-width: 0px;"/>
  <path d="M396.77,703.49c.91-24.55-.93-46.19-17.77-68.45-24.44-32.32-12.12-79.69,20.51-104.33,34.14-25.78,79.13-22.55,108.77,7.8,29.14,29.84,31.24,76.78,3.2,108.7-7.76,8.83-9.86,17.13-9.66,27.81.4,21.58.56,43.19,0,64.76-.85,32.68-21.26,53.88-51.46,54.36-31.48.5-52.33-20.64-53.52-54.68-.42-11.98-.07-23.98-.07-35.98Z" style="stroke-width: 0px;"/>
  <path d="M706.67,960.93c13.3-69.12,79.44-121.28,155.18-122.99,73.74-1.67,139.12,48.7,158.52,122.99h-313.7Z" style="fill: #fefefe; stroke-width: 0px;"/>
  <path d="M862.32,798.99c-41.41-.38-72.02-31.94-71.48-73.7.5-38.71,33.47-71.09,72.51-71.21,40.09-.12,72.55,32.76,72.56,73.49,0,41.06-31.66,71.79-73.59,71.41Z" style="fill: #fefefe; stroke-width: 0px;"/>
  <path d="M435.52,694.12c-.02-12-.47-24.03.1-36,.62-12.87-3.25-22.11-13.81-30.9-20.37-16.95-21.08-43.04-3.93-61.27,17.08-18.15,44.8-18.49,61.98-.76,17.63,18.19,17.83,44.69-2.32,61.33-12.3,10.15-14.87,21.15-14.51,35.45.62,24.79.2,49.61.14,74.41-.02,9.36-1.43,18.43-13.31,18.85-11.99.43-14.11-8.46-14.26-17.91-.23-14.4-.06-28.8-.08-43.21Z" style="fill: #fcfcfc; stroke-width: 0px;"/>
</svg>