<?xml version="1.0" encoding="UTF-8"?>
<svg id="Layer_1" data-name="Layer 1" xmlns="http://www.w3.org/2000/svg" viewBox="0 0 1074.38 963.37">
  <path d="M130.1,335.24c0-8.32-4.91-25.53,1.34-36.21,6.61-11.3,25.95-6.23,39.55-9.17,67.38-14.56,126.19-45.11,175.48-93.44,18.44-18.08,37.03-35.84,58.59-50.32,21.47-14.43,42.32-14.66,63.9-.21,21.58,14.45,40.33,32.11,58.78,50.13,56.71,55.4,124.15,88.52,203.04,97.44,9.9,1.12,14.95,2.17,15.12,14.48.61,45.4-3.94,90.04-14.13,134.27-2.48,10.74-7.98,16.02-17.74,21.16-106.33,55.96-164.24,143.39-168.33,264.45-.42,12.57-3.16,20.96-13.85,28.52-22.79,16.1-46.33,30.93-69.75,46.04-19.12,12.33-34.44,8.83-52.75-1.5-141.73-79.97-227.01-201.47-265.55-357.81-8.24-33.43-15.01-67.09-13.7-107.82Z" style="stroke-width: 0px;"/>
  <path d="M1073.9,731.76c8.35,108.53-94.01,236.6-242.2,231.46-121.83-4.23-223.21-106.78-223.06-234.36.16-127.46,105.24-232.12,232.64-232.1,139.45.02,239.52,117.99,232.62,235.01Z" style="stroke-width: 0px;"/>
  <path d="M559.4,822.64c7.02,15.71,12.88,30.97,20.58,45.25,4.6,8.53.33,11.37-5.38,15.15-35.89,23.73-74.05,43.18-113.49,60.2-20.03,8.64-38.92,4.14-57.93-4.31-166.23-73.9-283.45-195.63-352.72-363.28C16.82,494.25-3.13,409.74.4,320.66c1.34-33.66-.06-67.41.38-101.12.5-38,26.97-64.51,64.96-59.95,84.66,10.18,151.87-20.05,210.01-79.92C315.12,39.15,361.1,7.04,419.81.98c74.95-7.73,130.28,31.45,180.14,79.87,39.39,38.25,81.89,69.16,137.54,78.02,21.43,3.41,42.85,3.09,64.31,1.08,44.98-4.23,74.09,20.64,73.65,65.13-.59,59.44,3.45,118.97-4,178.34-2.58,20.53-5.66,32.82-32.33,30.67-32.26-2.6-32.63.48-26.92-32.63,9.96-57.7,4.33-115.91,5.96-173.88.39-13.79-8.45-10.24-15.83-9.39-72.38,8.38-137.77-9.54-195.63-53.43-17.05-12.93-32.29-28.36-47.74-43.29-21.79-21.05-45.5-39.18-73-52.21-32.46-15.38-64.73-15.27-97.24-.08-33.68,15.73-61.2,39.43-86.86,65.73-51.8,53.09-114.75,81.75-188.89,85.45-8.58.43-17.24.53-25.8-.11-30.02-2.22-28.99-2.33-30.2,28.97-3.74,97.42,4.3,192.78,39.4,285.07,58.65,154.19,160.29,268.54,308.24,342.23,22.78,11.35,41.36,11.42,63.74-.18,31.11-16.13,60.85-34.34,91.05-53.7Z" style="stroke-width: 0px;"/>
  <path d="M379.88,530.13c-.01-7.16-.31-14.34.04-21.48,1-20.13-2.01-37.01-16.11-54.67-27.99-35.06-19.42-87.11,14.42-115.88,35.23-29.95,85.7-29.29,119.51,1.56,33.14,30.24,39.22,80.79,11.62,116.52-10.9,14.11-15.02,27.67-14.2,44.82,1.08,22.87.75,45.84.1,68.74-1.07,37.63-25.71,62.93-59.61,62.15-33-.76-55.2-25.82-55.73-63.08-.18-12.89-.03-25.78-.04-38.68Z" style="fill: #fefefe; stroke-width: 0px;"/>
  <path d="M730.97,690.03c22.62-.96,35.08,15.34,47.24,29.77,13.35,15.83,22,17.33,36.95.69,26.76-29.8,56.29-57.12,84.83-85.31,18.99-18.75,44.22-20.36,61.1-4.29,19.16,18.24,19.12,43.92-1.2,64.44-43.34,43.77-86.92,87.32-130.84,130.51-19.92,19.59-41.46,20.86-61,2.74-23.62-21.9-46.19-44.97-68.45-68.26-13.17-13.78-14.9-30.71-6.93-47.81,7.43-15.94,21.33-22.28,38.3-22.48Z" style="fill: #fefefe; stroke-width: 0px;"/>
</svg>