<?xml version="1.0" encoding="UTF-8"?>
<svg id="Layer_1" data-name="Layer 1" xmlns="http://www.w3.org/2000/svg" viewBox="0 0 751.26 922.54">
  <path d="M749.86,376.76c0,37.06-2.42,74.31.49,111.15,6.57,83.23-23.09,153.72-72.52,217.43-74.07,95.47-165.94,168.1-279.03,212.71-11.34,4.47-22.22,6.49-34,1.89-145.22-56.71-259.84-149.3-335.8-286.93-19.16-34.72-27.01-72.85-27.39-112.09C.64,417.77.84,314.61,0,211.46c-.09-10.9,3.8-15.99,13.04-20.96C127.48,128.96,241.76,67.12,355.79,4.83c11.68-6.38,20.59-6.42,32.41-.21,114.45,60.13,229.11,119.85,344.08,178.98,12.83,6.6,17.13,14,16.9,28.25-.89,54.96-.36,109.94-.36,164.92.35,0,.69,0,1.04,0Z" style="stroke-width: 0px;"/>
  <path d="M41.87,387.4c0-48.78.39-97.57-.28-146.34-.16-11.85,2.69-18.46,13.88-24.44,101.53-54.25,202.72-109.16,303.74-164.37,9.92-5.42,17.4-5.14,27.13-.05,101.41,53.1,202.97,105.92,304.72,158.37,10.43,5.38,15.13,10.97,15.15,23.63.13,87.07-.15,174.18,2.67,261.18,1.93,59.46-14.94,111.93-48.41,159.65-68.83,98.12-156.59,173.31-268.3,219.18-9.22,3.79-17.23,4.48-26.5.52-124.25-53.16-225.48-133.24-293.82-251.52-18.85-32.63-27.65-68.22-27.27-106.15.43-43.22.1-86.45.1-129.67h-2.8Z" style="fill: #fefefe; stroke-width: 0px;"/>
  <path d="M191.21,463.98c.87-9.69,5.05-17.71,14.36-21.84,10.62-4.71,19.52-.34,26.41,7.52,22.38,25.52,45.02,50.87,66.22,77.35,9.32,11.64,14.15,13.44,25.63,1.63,61.56-63.3,124.13-125.61,186.44-188.17,4.74-4.76,9.69-9.74,15.47-12.94,9.65-5.36,19.16-3.34,26.99,4.42,7.61,7.55,7.99,16.62,3,25.45-2.97,5.26-7.35,9.87-11.66,14.21-70.52,70.95-141.09,141.83-211.73,212.66-20.82,20.88-30.28,20.23-49.42-2.73-27.27-32.71-54.51-65.44-81.95-98-4.88-5.79-9.29-11.53-9.77-19.57Z" style="stroke-width: 0px;"/>
</svg>