<?xml version="1.0" encoding="UTF-8"?>
<svg id="Layer_1" data-name="Layer 1" xmlns="http://www.w3.org/2000/svg" viewBox="0 0 957.22 1088.44">
  <path d="M956.72,287.55c-5.8,213.77-62.73,410.79-193.91,582.66-59.83,78.39-131.81,143.57-215.02,196.3-48.45,30.71-96.63,27.86-144.88-.44C189.76,941.08,61.63,756.92,17.88,512.91.9,418.21-1.29,322.94.53,227.33c.98-51.51,28.62-83.61,79.31-88.77,89.59-9.13,176.19-28.03,256.38-70.5,24.54-12.99,48.79-26.87,71.74-42.47,51.02-34.7,99.69-34.3,150.14,2.28,53.04,38.45,111.4,67.11,174.62,85.3,48.85,14.05,99.49,16.98,149.29,25.14,47.05,7.71,71.23,33.86,74.45,80.93,1.55,22.67.27,45.53.27,68.31Z" style="fill: #100f0d; stroke-width: 0px;"/>
  <path d="M88.12,309.29c0-16.18,1.06-32.45-.26-48.52-1.81-22.14,7.1-31.02,29.2-34.05,68.17-9.33,135.67-21.95,200.15-47.72,50.54-20.2,98.32-45.33,142.81-76.49,15.33-10.74,26.72-11.51,42.63.08,102.64,74.83,218.61,113.67,344.33,124.91,13.37,1.2,24.14,2.62,23.8,20.88-3.71,197.3-46.52,382.81-163.66,545.65-53.76,74.73-121.44,135.15-197.1,186.91-20.96,14.34-41.4,14.23-63.69,1.93-155.55-85.78-260.42-213.38-314.01-382.93-30.72-97.17-43.21-184.4-44.2-290.67Z" style="fill: #fefefe; stroke-width: 0px;"/>
  <path d="M464.3,757.81c-49.85.01-99.7.19-149.54-.05-30.75-.15-42.51-11.81-42.62-42.69-.25-70.6-.25-141.19.01-211.79.1-28.5,11.61-41,39.65-41.13,101.89-.45,203.79-.45,305.68,0,26.97.12,39.27,12.64,39.43,39.3.43,72.8.43,145.61-.03,218.41-.16,24.88-13.29,37.56-38.65,37.8-51.31.47-102.63.14-153.94.15Z" style="fill: #11100e; stroke-width: 0px;"/>
  <path d="M605.61,381.51c0,8.82-1.02,17.79.2,26.43,3.06,21.55-4.11,29.16-26.85,27.39-30.26-2.35-30.16-.58-30.23-32.33-.04-20.54,1.44-41.12-1.87-61.61-6.92-42.84-40.98-71.52-84.29-70.59-43.78.94-76.56,30.53-80.27,74.39-2.1,24.84-2.15,49.92-1.86,74.88.13,11.26-2.66,14.78-14.45,15.04-43.01.93-43.1,1.45-42.94-41.76.07-17.63-.21-35.34,1.23-52.88,5.98-72.84,66.86-127.59,140.6-127.1,73.92.49,133.7,55.53,139.35,128.52,1.02,13.18,1.27,26.42,1.88,39.63-.17,0-.34.01-.51.02Z" style="fill: #100f0d; stroke-width: 0px;"/>
  <path d="M463,732.74c-41.01,0-82.02.2-123.03-.07-27.65-.18-39.9-12.47-40.06-40.57-.3-54.36-.26-108.73-.02-163.09.12-28.21,12.19-41.05,39.67-41.16,83.48-.33,166.97-.33,250.45,0,25.78.11,38.98,13.39,39.23,39.73.52,55.83.56,111.67-.03,167.5-.26,24.74-13.77,37.34-38.79,37.55-42.47.36-84.95.1-127.42.1Z" style="fill: #fdfdfd; stroke-width: 0px;"/>
  <path d="M466.96,509.82c32.93,0,65.87-.3,98.8.09,25.9.31,37.84,11.84,38.15,37.55.51,41.84.45,83.7.04,125.54-.23,23.52-12.7,37.12-36.66,37.38-68.78.73-137.59.76-206.37-.05-23.96-.28-35.54-13.59-35.77-38.01-.4-41.84-.41-83.7.01-125.54.25-24.57,11.95-36.46,36.42-36.84,35.12-.53,70.25-.14,105.38-.14Z" style="fill: #100f0d; stroke-width: 0px;"/>
  <path d="M500.06,588.92c-.25,1.45-.02,3.99-1.1,5.71-11.71,18.63-17.62,38.46-16.98,60.9.25,8.91-9.34,12.52-18.03,12.27-9.8-.28-17.99-5.05-17.8-15.48.34-19.18-2.36-36.18-14.18-52.71-8.2-11.48-3.2-26.17,7.16-35.91,10.72-10.09,24.01-13.36,38.53-7.67,14.66,5.74,21.1,17.12,22.4,32.89Z" style="fill: #fcfcfc; stroke-width: 0px;"/>
</svg>