<?xml version="1.0" encoding="UTF-8"?>
<svg id="Layer_1" data-name="Layer 1" xmlns="http://www.w3.org/2000/svg" viewBox="0 0 1047.74 1042.09">
  <path d="M482.48,917.26c3.43,21.3,5.97,39.49,9.39,57.52,2.39,12.57-.5,21.86-11.63,29.21-14.81,9.79-28.73,20.93-43.34,31.05-17.17,11.89-26.03,9.11-33.64-11.12-25.72-68.38-51.11-136.89-76.64-205.35-1.95-5.22-4.07-10.38-7.15-18.2-19.95,20.52-38.5,40.1-57.68,59.05-6.22,6.14-5.17,12.71-4.22,19.66,2.97,21.84,4.73,43.99,9.69,65.38,3.75,16.17-.36,27.36-12.06,37.79-7.41,6.6-13.63,14.53-20.55,21.7-16.26,16.85-27.6,15.03-36.14-6.54-12.01-30.34-23.75-60.81-34.61-91.57-4.09-11.59-10.26-18.72-21.88-23.5-28.86-11.86-57.26-24.87-85.56-38.05-20.18-9.4-21.57-20.1-5.57-35.31,2.06-1.96,4.61-3.51,6.33-5.72,21.58-27.66,48.9-34.07,80.91-21.36,16.92,6.72,29.12,1.69,41.35-11.01,17.62-18.3,37-34.9,56.93-53.44-71.85-27.88-141.93-55.04-212-82.27-28.54-11.09-30.9-18.32-13.07-43.38,37.23-52.33,19.6-42.46,82.09-34.63,35.99,4.51,71.96,9.23,107.81,14.71,11.31,1.73,15.96,1.96,14.9-12.62-9.38-129.24,29.91-242.72,121.89-333.4,110.04-108.48,243.3-143.55,394.56-108.6,11.49,2.65,12.37,7.08,8.19,15.58-3.54,7.19,1.51,22-16.47,16.7-20.41-6.02-41.35-10.01-62.9-10.96-10.87-.48-14.89,1.1-14.77,13.17.61,61.23.58,122.48.02,183.71-.11,11.6,3.54,14.18,14.56,13.76,32.87-1.25,65.27-6.13,96.78-14.68,19.45-5.28,14.16,9.67,18.23,17.41,5.51,10.46.16,12.57-9.35,14.96-34.61,8.7-69.63,14.44-105.23,15.84-10.06.4-15.36,1.26-15.03,13.6.88,32.73.67,65.51.07,98.26-.19,10.34,3.1,13.31,13.28,13.25,66.93-.38,133.87-.2,200.81-.19,6.4,0,10.93.58,13.21-8.88,2.26-9.39,29.11-8.97,31.99.62,2.47,8.22,6.66,7.52,12.1,7.53,27.77.05,55.56-.5,83.31.28,11.39.32,12.34-3.91,11.36-13.7-4.15-41.28-11.71-81.88-29.79-119.3-8.61-17.82,2.74-19.56,13.09-25.64,14.96-8.79,14.78,4.6,17.77,11.62,118.69,278.53-89.2,587.63-391.85,583.49-46.83-.64-91.73-9.22-139.52-26.41Z" style="stroke-width: 0px;"/>
  <path d="M1001.81,136.37c-3.31,94.15-27.34,178.03-68.32,257.39-8.78,17.01-16.26,34.71-25.5,51.45-13.14,23.8-41.1,23.97-53.87-.04-52.1-97.96-92.07-199.2-93.96-312.83C758.91,57.29,805.94,1.92,879.03.05c72.19-1.85,124.51,52.73,122.8,128.1-.1,4.27-.01,8.53-.01,8.23Z" style="stroke-width: 0px;"/>
  <path d="M613.86,804.05c0,30.63-.49,61.26.25,91.87.28,11.58-3.19,15.13-14.54,13.1-20.28-3.63-40.7-6.5-61.08-9.53-8.5-1.26-13.62-6.8-18.52-13.15-19.16-24.81-36.49-50.92-51.6-78.27-11.19-20.24-7.24-44.7-14.02-66.28-13.48-42.89-3.33-77.05,30.62-107.32,21.03-18.76,35.15-45.2,55.95-64.3,28.12-25.83,19.02-57.45,18.9-87.7-.04-11.74-10.21-15.39-22.04-13.78-38.41,5.23-74.16,12.96-100.41,47.09-19.36,25.17-45.08,45.4-67.57,68.22-6.37,6.47-12.25,10.57-22.15,8.97-28.08-4.53-56.3-8.27-84.5-11.99-22.18-2.93-12.48-20.54-13.85-31.82-1.67-13.69,10.73-7.51,16.8-7.73,21.34-.78,42.73-.61,64.09-.16,9.35.2,19.86-4.65,22.92,13.11,1.52,8.8,19.95,5.45,27.86.75,16.96-10.07,18.52-33.26,4.94-48.26-3.65-4.03-2.41-7.75-2.25-11.75,2.02-50.02,11.01-98.72,25.62-146.65,3.92-12.87,9.34-10.97,17.75-7.42,55.49,23.4,113.28,37.3,173.37,40.87,11.52.68,13.86,4.93,13.66,15.45-.63,32.04-.08,64.1-.39,96.14-.05,4.9,3.28,13.71-5.42,13.45-13.55-.41-14.28,6.5-14.53,17.1-.28,11.65.88,19.12,15.48,17.6,5.58-.58,4.59,5.96,4.6,9.94.08,34.19-.46,68.38.32,102.55.29,12.71-7.38,11.09-15.07,11.48-37.08,1.89-73.43,8.47-109.37,17.51-8.68,2.18-18.75,2.78-13.42,17.13,4.08,10.97,5.51,21.18,22.18,15.68,30.49-10.07,62.48-12.9,94.25-16.91,18.88-2.38,22.48,4.43,21.57,21.66-1.48,27.7-.4,55.53-.4,83.31Z" style="fill: #fefefe; stroke-width: 0px;"/>
  <path d="M88.64,821.81c7.9-14.73,20.13-14.24,31.87-9.49,36.11,14.64,64.23,6.71,89.49-23.72,18.04-21.74,41.37-39.04,62.01-58.67,18.16-17.28,16.23-27.92-7.06-37.06-67.37-26.45-135-52.26-202.18-79.17-6.03-2.41-20.76.88-16.72-12.78,2.94-9.93,9.42-16.4,23.97-14.16,87.17,13.44,174.73,24.36,261.83,38.15,26.25,4.16,45.6.81,64.17-20.06,26.45-29.74,56.79-55.98,84.39-84.75,11.29-11.77,24.79-12.98,38.87-13.53,9.47-.37,12.23,20.96,3.3,32.44-12.65,16.28-26.31,31.79-39.58,47.6-20.6,24.53-40.95,49.29-62,73.43-8.26,9.47-10.07,18.96-8.06,31.28,15.01,91.94,29.06,184.04,44.11,275.98,3.64,22.26-18,20.03-27,33.26-26.47-70.59-53.18-138.48-77.31-207.28-16.84-48.02-25-49.89-58.72-13.29-18.81,20.41-38.37,40.21-58.65,59.16-11.1,10.37-14.82,21.24-12.19,35.98,4.13,23.1,6.43,46.52,10.66,69.59,1.56,8.52-.55,15.46-7.29,17.86-10,3.56-8.01-7.78-9.99-12.17-12.78-28.37-15.17-64.41-37.18-84.69-21.25-19.58-54.28-26.36-82.11-38.84-2.56-1.15-4.87-2.84-8.65-5.08Z" style="fill: #fefefe; stroke-width: 0px;"/>
  <path d="M759.93,541.15c33.44,0,66.89.41,100.32-.24,10.76-.21,12.96,2.93,11.86,13.35-5.02,47.5-14.33,93.96-29.9,139.18-3.47,10.08-7.09,14.74-18.76,9.76-51.45-21.93-105.69-32.73-161.18-36.75-13.73-.99-15.93-6.02-15.6-18.11.82-29.86.94-59.78-.02-89.63-.43-13.47,2.69-18.46,17.24-17.93,31.98,1.17,64.02.36,96.04.36Z" style="fill: #fefefe; stroke-width: 0px;"/>
  <path d="M613.86,243.82c0,29.89-.42,59.79.22,89.66.24,11.22-1.32,16.58-14.74,15.38-56.28-5.04-110.63-17.39-162.95-38.94-9.74-4.01-10.23-8.25-6.37-17.03,20.06-45.72,45.08-88.37,75.16-128.26,7.44-9.87,17.21-11.28,27.31-14.23,21.94-6.41,44.28-9.81,67.05-11.7,11.29-.94,14.85,1.71,14.57,13.31-.74,30.58-.25,61.19-.25,91.79Z" style="fill: #fefefe; stroke-width: 0px;"/>
  <path d="M667.58,908.81c-17.43,5.98-21.31-2.24-21.02-19.87.97-57.68.88-115.39,0-173.07-.22-14.56,4.01-17.82,17.88-16.52,50.59,4.73,99.62,15.3,146.88,34.23,10.36,4.15,11.96,7.92,6.96,18.27-23.56,48.83-51.41,94.9-84.28,138.01-4.49,5.89-9.01,9.88-16.85,11.33-16.05,2.96-31.72,8.03-49.58,7.63Z" style="fill: #fefefe; stroke-width: 0px;"/>
  <path d="M960.74,541.15h8.53c45.93,0,46.68.12,39.63,44.95-9.28,59.02-32.44,112.64-65.73,162.18-6.12,9.1-10.94,10.15-19.67,4.22-9.35-6.36-18.99-13.27-29.55-16.68-23.32-7.53-26.49-19.08-17.78-42.03,15.87-41.81,25.3-85.78,27.07-130.76.66-16.64,5.37-24.6,23.42-22.17,11.17,1.51,22.71.28,34.09.28Z" style="fill: #fefefe; stroke-width: 0px;"/>
  <path d="M298.28,507.23c-.71,0-1.42,0-2.14,0q-51.16-.34-42.72-50.49c9.56-56.2,31.45-107.25,63.78-154.14,6.45-9.36,11.68-13.23,21.35-5.08,3.22,2.72,7.16,4.61,10.85,6.75q32.98,19.06,22.57,54.2c-12.12,41.08-20.43,83.03-20.23,125.84.1,20.51-7.24,25.82-25.73,23.36-9.09-1.21-18.48-.21-27.74-.21v-.22Z" style="fill: #fefefe; stroke-width: 0px;"/>
  <path d="M788.49,873.37c22.7-36.94,43.26-74.46,61.66-113.13,3.4-7.14,7.44-7.37,13.35-4.19,3.11,1.67,6.27,3.25,9.41,4.87,45.48,23.45,45.68,25.02,5.33,58.25-27.11,22.32-55.29,42.96-89.74,54.19Z" style="fill: #fdfdfd; stroke-width: 0px;"/>
  <path d="M446.59,187.86c-16.55,29.43-32.96,58.39-45.54,89.21-4.93,12.09-10.09,11.49-20.19,5.99-36.55-19.9-36.62-19.4-5.8-46.72,21.66-19.21,44.51-36.56,71.53-48.48Z" style="fill: #fbfbfb; stroke-width: 0px;"/>
  <path d="M880.18,421.35c-50.99-90.83-84.85-186.63-87.5-292.15-1.35-53.54,34.69-95.78,85.74-97.1,51.87-1.34,90.69,37.26,90.88,91.7.37,107.5-34.64,204.8-87.04,296.92-.25.44-1.32.42-2.08.64Z" style="fill: #fefefe; stroke-width: 0px;"/>
  <path d="M880.67,66.14c40.62-.15,72.62,31.74,73.1,72.83.46,39.32-33.66,73.3-73.32,73.04-38.83-.26-71.45-33.14-71.61-72.19-.17-41.43,31.12-73.53,71.82-73.68Z" style="fill: #010101; stroke-width: 0px;"/>
  <path d="M842.46,140.19c-.22-22.82,15.85-40.18,37.64-40.69,22.2-.51,40.27,17.9,40.01,40.79-.23,20.51-17.35,37.67-38,38.09-21.85.45-39.44-16.5-39.65-38.19Z" style="fill: #fdfdfd; stroke-width: 0px;"/>
</svg>