<?xml version="1.0" encoding="UTF-8"?>
<svg id="Layer_1" data-name="Layer 1" xmlns="http://www.w3.org/2000/svg" viewBox="0 0 1225.19 1230.6">
  <path d="M.34,611.87C-11.03,300.23,261.1,2.49,606.78.02c332.61-2.38,615.73,273.97,618.39,612.5,2.51,320.09-262.91,615.6-610,618.08C275.71,1233.02-10.38,944.95.34,611.87Z" style="stroke-width: 0px;"/>
  <path d="M597.36,34.1c306.25-8.03,579.7,231.12,594.67,561.06,14.03,309.47-234.58,584.35-546.64,601.02C321.92,1213.44,49.18,965.82,31.87,643,15.15,331.04,261.32,43.35,597.36,34.1Z" style="fill: #fefefe; stroke-width: 0px;"/>
  <path d="M671.05,825.03c0,45.87-.57,91.75.33,137.6.28,14.6-2.89,20.08-18.66,19.48-33.43-1.29-66.97-1.33-100.39.02-15.8.64-18.55-4.82-18.45-19.31.65-90.09-.37-180.2.84-270.28.28-21.01-6.08-26.53-26.01-25.15-25.19,1.74-50.62-.31-75.89.72-13.26.54-16.43-4.13-16.14-16.71.79-34.38,1.14-68.83-.11-103.18-.59-16.26,5.84-18.98,19.97-18.41,25.27,1.02,50.66-.67,75.9.63,16.49.84,23.45-3.2,22.13-21.23-1.61-22,.79-44.27-.58-66.3-6.76-109.06,73.66-186.16,181-193.41,26.22-1.77,52.13,1.02,78.12,4.03,10.62,1.23,13.63,5.84,13.5,15.76-.37,29.48-.77,58.99.17,88.45.41,12.78-4.85,14.78-15.71,14.39-19.57-.7-39.19-.62-58.78-.1-36.74.97-59.48,22.75-60.89,59.47-1.06,27.81.19,55.7-.6,83.53-.33,11.69,3.16,15.61,15.07,15.33,31.82-.74,63.69.25,95.51-.5,12.24-.29,15.54,3.6,13.84,15.49-5.22,36.44-10.09,72.94-14.11,109.53-1.21,11.08-6.32,13.24-15.87,13.07-22.04-.4-44.2,1.24-66.1-.51-21.44-1.72-29.9,3.64-28.72,27.42,2.15,43.3.61,86.79.61,130.2Z" style="stroke-width: 0px;"/>
</svg>