<?xml version="1.0" encoding="UTF-8"?>
<svg id="Layer_1" data-name="Layer 1" xmlns="http://www.w3.org/2000/svg" viewBox="0 0 1260.03 1258.52">
  <path d="M629.42.15c350.6-6.41,629.81,292.07,630.61,627.52.8,335.09-276.49,627.84-626,630.82C296.47,1261.38,3.16,981.53.02,630.7-2.98,294.3,282.74-7.73,629.42.15Z" style="stroke-width: 0px;"/>
  <path d="M216.26,625.5c0-60.36-.43-120.72.08-181.08,1.1-128.56,95.21-226.96,224.03-229.53,126.54-2.53,253.2-2.5,379.74,0,125.31,2.48,217.53,92,222.63,222.63,5.13,131.36,6.7,263.28-1.27,394.63-7.25,119.39-101.84,207.99-222.05,210.27-126.54,2.41-253.2,2.54-379.74-.06-127.81-2.63-221.38-101.19-223.26-230.76-.9-62.02-.15-124.07-.16-186.11Z" style="fill: #fefefe; stroke-width: 0px;"/>
  <path d="M623.85,969.41c-65.37,0-130.83,2.13-196.09-.58-70.91-2.94-129.11-59.53-137.68-130.18-2.81-23.19-2.55-46.83-2.6-70.26-.24-106.47-.2-212.95-.05-319.42.13-92.12,58.33-158.56,150.03-161.07,128.16-3.52,256.55-3.44,384.72-.12,90.23,2.34,148.89,65.56,150.5,158.52,2.14,123.2,2.15,246.5-.13,369.7-1.71,92.37-69.85,154.94-162.58,154.98-62.04.03-124.08,0-186.12,0,0-.53,0-1.06,0-1.58Z" style="stroke-width: 0px;"/>
  <path d="M628.96,838.28c-116.94-.57-208.92-92.78-208.77-209.31.16-118.86,94.27-212.75,212.22-211.72,115.89,1.02,208.89,96.64,207.91,213.78-.97,115.51-95.1,207.81-211.35,207.25Z" style="fill: #fefefe; stroke-width: 0px;"/>
  <path d="M905.66,404.39c-.74,28.09-21.97,48.27-50.56,48.04-27.56-.22-51.26-24.65-50.38-51.92.86-26.51,24.23-48.45,51.4-48.25,28.17.21,50.29,23.49,49.54,52.14Z" style="fill: #fdfdfd; stroke-width: 0px;"/>
  <path d="M630.48,767.81c-77.42.06-139.07-61.05-139.48-138.26-.42-78.29,61.98-140.53,140.37-140.02,77.37.51,138.29,62.11,138.08,139.64-.21,77.48-61.45,138.58-138.96,138.64Z" style="stroke-width: 0px;"/>
</svg>