<?xml version="1.0" encoding="UTF-8"?>
<svg id="Layer_1" data-name="Layer 1" xmlns="http://www.w3.org/2000/svg" viewBox="0 0 1260.45 1262.14">
  <path d="M.28,626.06C-10.04,310.05,263.65.84,628.08,0c346.73-.8,631.71,288.05,632.38,631.83.64,330.9-275.37,628.62-628.69,630.3C288.92,1263.77-9.95,975.79.28,626.06Z" style="stroke-width: 0px;"/>
  <path d="M1016.98,422.64c19.78,1,36.08-12.37,56.55-14.22-15.57,27.76-37.14,48.73-60.42,67.46-11.14,8.97-14.68,18.08-15.31,31.59-4.69,100.83-31.59,194.98-88.2,279.34-107.77,160.59-319.3,240.06-506.88,192.18-48.83-12.46-95.97-28.28-140.66-54.18,84.62-3.41,165.52-16.39,235.16-76.96-70.71-16.21-131.96-39.78-152.82-115.9,21.54-5.43,43.01,8.36,64.34-5.95-78.39-26.91-123.02-79.47-123.63-164.72,10.55-.66,16.76,8.07,25.47,9.8,8.89,1.77,18.06,2.17,34.6,4-64.75-68.94-78.05-141.65-38.53-223.86,39.2,40.52,79.43,78.25,126.92,107.54,62.47,38.54,129.52,61.68,203.01,67.21,16.41,1.24,16.51-3.53,15.99-16.8-3.95-100.2,53.89-170.51,152.11-186.74,49.79-8.23,93.35,5.37,130.4,38.3,12.38,11.01,23.1,13.92,38.1,8.12,26.35-10.18,53.08-19.38,82.52-30.02-10.41,31.86-28.98,55.55-50.72,77.23-2.69,14.4,7.24,5.77,12,6.57Z" style="fill: #fefefe; stroke-width: 0px;"/>
  <path d="M1016.98,422.64c-6.97,6.17-14.65,5.42-22.97,2.79,1.8-5.95,6.19-7.89,10.97-9.36,2.21,5.46,7.69,4.94,12,6.57Z" style="fill: #2c2c2c; stroke-width: 0px;"/>
</svg>