<?xml version="1.0" encoding="UTF-8"?>
<svg id="Layer_1" data-name="Layer 1" xmlns="http://www.w3.org/2000/svg" viewBox="0 0 1146.68 1145.44">
  <path d="M571.37,1145.32C268.97,1151.71-11.84,890.22.38,546.48,10.46,263.11,257.15-2.53,578.56.02c306.67,2.43,571.81,260.66,568.08,582.73-3.39,293.28-251.33,568.57-575.27,562.58Z" style="stroke-width: 0px;"/>
  <path d="M559.31,31.76c286.25-7.88,542.13,214.82,556.42,522.11,13.41,288.39-218.45,544.54-510.3,560.58C303.27,1131.05,48.1,900.79,31.44,599.68,15.33,308.54,245.73,40.62,559.31,31.76Z" style="fill: #fefefe; stroke-width: 0px;"/>
  <path d="M271.07,777.51c45.23-3.14,89.59-8.5,130.38-28.81,14.8-7.37,29.91-15.01,43.01-29.73-48.91-14.79-98.6-27.65-112.48-86.66,14.69-3.41,29.36,2.36,46.64-5.99-58.71-22.31-92.26-60.57-91.67-124.35,15.24,1.65,26.6,14.31,44.84,9.59-48.38-48.97-59.35-104.23-28.81-168.86,24.69,26.07,49.98,49.67,78.25,69.64,50.1,35.39,105.27,57.39,166.86,62.8,14.36,1.26,16.24-1.86,15.84-16.57-1.48-54.66,20.28-98.92,70.07-124.04,48.86-24.64,98.07-21.96,141.39,13.63,12.07,9.91,21.95,10.64,34.35,6.45,19.18-6.47,38.14-13.58,59.56-21.26-9.55,25.67-23.22,45.57-45.75,61.63,14.73,6.1,26.96-1.31,39.46-3.45,4.19-.72,8.5-4.78,12.38.35,4.21,5.58-1.94,7.75-4.22,10.71-5.59,7.23-10.66,15.81-18.06,20.51-25.01,15.9-28.04,39.66-29.95,66.45-12.57,176.91-147.42,318.12-323.95,336.64-80.16,8.41-156.71-9.29-228.13-48.69Z" style="stroke-width: 0px;"/>
</svg>