<?xml version="1.0" encoding="UTF-8"?>
<svg id="Layer_1" data-name="Layer 1" xmlns="http://www.w3.org/2000/svg" viewBox="0 0 1304.65 1303.21">
  <path d="M650.05,1303.08C305.28,1310.32-12.6,1013.27.38,624.44,11.02,305.86,284.4-2.57,658.18.02c354.03,2.45,650.74,301.17,646.42,663.01-3.99,334.29-285.57,647.09-654.56,640.05Z" style="stroke-width: 0px;"/>
  <path d="M652.72,918.07c-87.67,0-175.35.13-263.02-.04-71.41-.14-106.18-30.7-115.99-102.07-15.69-114.18-15.47-228.36,1.48-342.4,7.9-53.17,45.12-88.22,99.04-88.49,184.89-.94,369.79-.86,554.68-.1,53.95.22,92.01,33.4,100.12,87.47,17.9,119.18,17.65,238.74-.05,357.94-8.31,56-47.88,87.23-108.04,87.56-89.41.49-178.82.13-268.23.13Z" style="fill: #fefefe; stroke-width: 0px;"/>
  <path d="M571.56,756.9v-210.56c65.73,35.55,129.22,69.88,195.66,105.82-65.89,35.27-129.22,69.17-195.66,104.74Z" style="stroke-width: 0px;"/>
</svg>