<?xml version="1.0" encoding="UTF-8"?>
<svg id="Layer_1" data-name="Layer 1" xmlns="http://www.w3.org/2000/svg" viewBox="0 0 1644.11 918.81">
  <path d="M822.88,0c315.93,7.78,581.63,128.83,785.27,378.96,48.08,59.05,47.82,104.42.03,163.12-200.2,245.95-460.22,374.64-776.06,376.69-327.18,2.13-596.49-128.19-802.53-384.46-38.8-48.25-39.57-96.09-1.52-144.89C192.17,178.93,406.78,54.01,670.3,12.75c15.24-2.39,30.46-5.42,45.81-6.55,34.12-2.52,68.32-4.03,106.77-6.19Z" style="stroke-width: 0px;"/>
  <path d="M822.34,109.84c283.38,5.75,515.16,115.69,696.91,331.75,12.56,14.93,12.77,23.18.34,38.27-150.42,182.46-341.86,292.4-576.52,322.4-266.79,34.11-503.93-36.88-709.65-210.68-39.69-33.53-74.37-72.02-108.01-111.65-14.08-16.59-11.05-26.36,1.42-41.15C308.98,222.72,541.77,114.87,822.34,109.84Z" style="fill: #fefefe; stroke-width: 0px;"/>
  <path d="M823.72,142.38c177.42,1.74,319.4,145.26,318.44,320.54-.88,160.35-127.7,312.62-320.54,316.11-176.84,3.2-321.12-146.15-319.15-323.23,1.94-174.89,145.7-315.14,321.25-313.42Z" style="stroke-width: 0px;"/>
  <path d="M822.73,669.53c-117.19.46-211.81-93.97-212.09-211.63-.26-111.51,96.02-206.01,210.44-206.55,115.66-.55,211.75,93.7,212.22,208.13.47,114.07-95.3,209.6-210.57,210.05Z" style="fill: #fefefe; stroke-width: 0px;"/>
</svg>