<?xml version="1.0" encoding="UTF-8"?>
<svg id="Layer_1" data-name="Layer 1" xmlns="http://www.w3.org/2000/svg" viewBox="0 0 956.92 963.86">
  <path d="M511,963.8c-79.93-.91-132.59-23.52-181.98-54.02-125.93-77.76-224.63-181.63-291.88-313.84-27.9-54.84-45.3-112.66-33.26-175.88,9.5-49.89,39.68-85.3,78.61-114.09,17.88-13.22,39.96-13.34,57.8.02,50.14,37.56,93.87,81.34,119.5,139.89,12.46,28.47,7.42,56.03-12.87,78.9-35.97,40.56-31.22,78.17,4.12,117.7,23.1,25.83,46.49,51.24,73.2,73.41,30.99,25.71,59.19,27.17,92.84,4.71,46.13-30.78,72.65-31.43,117.63.44,36.77,26.06,68.34,58.22,95.59,93.96,26.17,34.32,21.89,60.47-8.13,91.67-36.15,37.57-78.59,58.51-111.16,57.12Z" style="fill: #282828; stroke-width: 0px;"/>
  <path d="M723.8,790.91c9.84,3.03,17.05,4.77,23.88,7.48,9.79,3.9,13.9,11.84,10.62,21.68-3.24,9.71-10.9,14.02-21.29,10.88-23.25-7.03-46.56-13.87-69.58-21.6-11.59-3.89-15.47-12.64-10.69-24.4,8.89-21.9,17.79-43.8,26.76-65.67,3.8-9.26,10.49-15.47,20.67-11.94,11.51,3.99,15.15,13.23,10.73,24.82-3.14,8.23-6.81,16.26-11.08,26.34,10.42-.74,17.53-5.55,24.62-9.79,128.42-76.7,196.45-190.49,193.87-339.46-2.65-153.54-78.54-267.35-214.92-336.19-106.45-53.73-217.12-52.38-326.88-5.25-2.35,1.01-4.66,2.11-6.94,3.27-11.69,5.94-23.44,7.11-29.03-6.88-5.45-13.64,6.01-19,16.05-23.9C429.8,6.52,503.38-5.23,579.24,2.08c182.73,17.62,329.9,149.56,368.43,327.9,38.34,177.46-45.07,361.01-204.05,449.12-5.94,3.29-11.68,6.94-19.83,11.8Z" style="fill: #282828; stroke-width: 0px;"/>
  <path d="M385.39,497.32c-4.49,0-8.97,0-13.46,0-37.94,0-37.77,0-36.11-37.74,1.23-28.17,14.4-48.2,39.22-61.37,28.24-14.99,34.11-27.73,29.36-58.9-1.69-11.12-8.2-15.15-18.55-15-10.84.15-16.83,4.97-16.22,16.48.2,3.83-.09,7.69-.13,11.53-.17,19.35-8.05,25.19-26.64,19.91-3.24-.92-5.39-2.15-6.72-5.67-11.93-31.36,9.57-66.15,42.83-69.01,40.5-3.48,56.68,10.99,59.1,51.27,2.01,33.51-9.28,58.72-41.08,72.97-5.78,2.59-11.31,6.11-16.26,10.07-10.03,8.05-13,20.04-10.04,31.21,2.87,10.84,14.16,4.11,21.58,5.07,8.19,1.06,16.77,1.23,24.93.03,16.14-2.38,19.5,5.18,18.32,19.34-.6,7.21-2.07,10.24-9.78,9.95-13.44-.51-26.9-.14-40.36-.14Z" style="fill: #282828; stroke-width: 0px;"/>
  <path d="M538.65,359.84c0,10.89-.39,21.79.11,32.65.51,11.19-6.4,26.97,16.54,24.71,7.92-.78,4.24,9.01,4.56,14.01.33,5.18,2.38,14.18-5.83,13.57-19.68-1.47-15.15,11.69-15.37,22.41-.09,4.48-.59,9.05.09,13.43,2.08,13.36-2.96,17.12-16.55,17.26-13.82.14-15.18-5.37-15.1-16.76.26-35.67-.14-35.67-36.35-35.68-25.47,0-30.86-6.96-21.72-31.91,12.95-35.35,26.36-70.6,41.41-105.08,8.33-19.09,27.13-7.61,40.9-8.64,12.32-.92,6.63,11.36,7.03,17.79.87,14.04.27,28.16.27,42.25Z" style="fill: #292929; stroke-width: 0px;"/>
  <path d="M747.64,328c-21.21,0-39.77-.74-58.25.28-11.21.62-12.63-4.39-12.12-13.43.47-8.23-1.83-16.51,11.85-16.06,26.85.89,53.75.58,80.61.08,9.13-.17,12.52,2.58,12.03,11.93-.54,10.2-.59,20.17-3.95,30.14-15.91,47.16-31.28,94.49-46.89,141.75-4.17,12.61-23.16,20.57-34.68,14.27-6.76-3.7-1.69-8.67-.3-12.84,16.08-48.42,32.32-96.78,48.49-145.17.98-2.93,1.75-5.92,3.22-10.96Z" style="fill: #292929; stroke-width: 0px;"/>
  <path d="M586.55,519.79c-12.31,2.28-14.11-2.71-10.61-15.92,18.01-67.94,34.94-136.16,52.29-204.28,3.34-13.11,17.78-19.56,30.73-14.49,6.83,2.68,3.71,7.5,2.8,11.08-18.04,71.25-36.53,142.38-54.36,213.67-3,11.99-11.17,9.77-20.85,9.94Z" style="fill: #292929; stroke-width: 0px;"/>
  <path d="M317.75,94.7c-.29,4.58-1.27,9-4.93,12.09-9.77,8.25-19.36,16.77-29.63,24.36-7.65,5.65-15.95,4.84-22.32-2.53-6.53-7.54-5.42-15.97,1.36-22.32,9.77-9.14,19.99-18.07,31.13-25.4,10.76-7.08,24.01,1.09,24.39,13.8Z" style="fill: #2a2a2a; stroke-width: 0px;"/>
  <path d="M207.33,205.14c-10.23-2.26-17.19-9.95-12.78-21.55,4.97-13.07,13.57-24.95,25.35-33.1,10.95-7.57,19.85-2.81,24.54,8.45,5.16,12.38-21.52,46.81-37.12,46.19Z" style="fill: #2b2b2b; stroke-width: 0px;"/>
  <path d="M154.25,257.15c2.55-20.1,18.83-40.58,30.84-38.16,10.56,2.12,14.42,9.56,12.99,19.85-2.62,18.78-18.09,39.62-28.62,38.75-9.77-.8-16.55-9.91-15.21-20.44Z" style="fill: #2a2a2a; stroke-width: 0px;"/>
  <path d="M34.32,457c-2.73-47.04,20.34-86.23,59.79-117.64,11.2-8.92,23.07-10.13,33.38-1.4,39.7,33.61,77.06,69.5,100.04,117.41,11.82,24.64-2.16,42.4-16.1,60.71-31.35,41.19-31.63,86.05-1.48,127.71,6.75,9.33,14.01,18.34,21.52,27.08,21.75,25.35,45.17,49.1,70.79,70.5,44.9,37.49,91.97,39.25,138.34,3.51,21.63-16.67,42.5-16.88,63.78-3.31,41,26.13,73.47,61.56,102.74,99.85,9.95,13.02,6.75,25.56-4.81,37.69-46.94,49.29-102.84,61.34-166.79,41.93-79.14-24.02-144.38-70.84-203.74-126.45-74.01-69.33-137.38-146.84-176.62-241.66-12.03-29.07-21.24-59.06-20.83-95.93Z" style="fill: #fefefe; stroke-width: 0px;"/>
  <path d="M514.79,329.26c-2.34,26.97-3.56,54.53-7.64,81.66-1.69,11.26-13.93,4.6-21.26,5.25-7.81.7-4.85-5.7-3.66-9.35,8.08-24.77,16.43-49.44,24.78-74.12.79-2.34,1.88-4.85,7.78-3.43Z" style="fill: #fafafa; stroke-width: 0px;"/>
</svg>