<?xml version="1.0" encoding="UTF-8"?>
<svg id="Layer_1" data-name="Layer 1" xmlns="http://www.w3.org/2000/svg" viewBox="0 0 1088.42 1091.18">
  <path d="M544.84.11c300.65-6.2,545.05,252.93,543.58,547.71-1.49,299-254.95,552.39-562.38,543.11C251.91,1082.66-3.95,847.73.05,533.17,3.37,271.38,224.1-5.36,544.84.11Z" style="fill: #1b1c1f; stroke-width: 0px;"/>
  <path d="M544.72,63.56c264.88.7,480.57,218.61,479.52,484.45-1.06,267.96-218.36,482.32-491.63,477.93-264.33-4.24-470.53-223.57-468.54-490.15,1.92-256.81,220.9-472.92,480.65-472.23Z" style="fill: #fefefe; stroke-width: 0px;"/>
  <path d="M265.59,370.18c-1.92-60.56,24.88-101.82,74.34-124.95,9.08-4.25,11.13-.22,14.52,5.7,30.61,53.45,61.31,106.86,91.89,160.33,2.33,4.08,6.51,8.18.25,12.97-30.41,23.32-31.05,56.56-25.74,89.29,11.81,72.78,44.79,134.54,103.58,180.35,24.32,18.95,51.78,29.81,82.94,16.94,8.3-3.43,11.38-.39,15.16,6.25,30.49,53.51,61.19,106.91,92.11,160.17,4.14,7.13,3.32,11-3.94,15.12-46.6,26.42-92.48,33.94-140.78,2.2-75.74-49.76-131.13-118.42-179.59-192.95-57.26-88.07-101.46-182.31-119.64-287.04-2.97-17.14-4.03-34.61-5.13-44.37Z" style="fill: #1b1c1f; stroke-width: 0px;"/>
  <path d="M556.28,362.82c.54,15.79-8.58,23.08-19.53,27.71-21.75,9.21-38.17,33.81-66.09,24.68-5.03-1.64-8.54-9.42-11.76-14.95-29.81-51.29-59.5-102.65-89.02-154.11-12.03-20.97-9.66-30.63,10.43-43.2,12.86-8.05,25.95-15.74,39.21-23.09,16.53-9.15,30.26-6.73,40.21,10.62,30.25,52.71,60.67,105.32,91,157.97,2.9,5.03,6.03,10.01,5.54,14.36Z" style="fill: #1b1c1f; stroke-width: 0px;"/>
  <path d="M753.18,880.58c-13.81-.04-20.83-5.15-25.98-14.13-30.95-54.03-62.08-107.97-93.21-161.9-9.41-16.3-5.89-29.12,10.1-38.52,14.33-8.43,28.9-16.46,43.24-24.89,15.33-9.02,27.99-6.09,36.8,9.09,31.61,54.47,62.86,109.16,94.2,163.8,5.05,8.8,7.09,18.87-.23,26.4-18.97,19.51-44.02,29.35-64.92,40.15Z" style="fill: #1b1c1f; stroke-width: 0px;"/>
</svg>