<?xml version="1.0" encoding="UTF-8"?>
<svg id="Layer_1" data-name="Layer 1" xmlns="http://www.w3.org/2000/svg" viewBox="0 0 1123.7 885.84">
  <path d="M572.78.32c78.63,1.09,166.53-4.57,253.67,8.41,77.85,11.59,152.42,32.53,211.76,88.47,71.01,66.94,93.1,151.18,83.29,245.49-1.84,17.71-14.4,30.87-29.87,40.1-10.34,6.17-21.45,10.65-33.32,12.76-50.78,9.01-101.34,6.82-151.73-3.24-35.27-7.04-57.94-28.79-72.67-60.7-14.09-30.5-29.38-60.45-43.67-90.87-14.74-31.39-40.04-45.32-73.68-45.37-102.71-.16-205.42-.1-308.14-.03-34.58.02-60.31,14.15-75.26,46.54-10.95,23.73-25.3,46.1-34.25,70.5-19.37,52.83-54.93,81.92-111.56,85.38-41.13,2.51-82.25,6.8-123.04-2.45C19.82,385.2,2.8,361.47.46,316.61-8.04,153.62,102.36,48.1,248.1,17.67,307.08,5.35,366.57.55,426.59.35c45.73-.15,91.47-.03,146.19-.03Z" style="stroke-width: 0px;"/>
  <path d="M561.81,885.78c-122.19,0-244.37.05-366.56-.02-74.09-.04-117.39-55.14-99.86-126.88,13.84-56.64,29-112.99,41.15-169.99,9.28-43.52,32.36-76.81,66.71-103.05,28.54-21.8,57.79-42.69,87.2-63.31,36.7-25.73,59.59-59.64,67.98-104.15,9.41-49.92,23.22-60.11,75.03-60.17,10.49-.01,21.05.74,31.47-.16,21.75-1.87,35.34,5.88,46.57,26.14,22.61,40.77,78.46,40.69,100.92-.21,11.25-20.49,25.06-27.37,46.66-25.97,17.92,1.17,36.02-.35,53.91,1.07,26.43,2.1,45.11,15.98,48.47,41.95,8.32,64.31,44,107.45,97.61,139.93,28.1,17.03,54.22,37.31,78.6,59.69,25.13,23.06,40.68,51.11,48.56,84.09,14.06,58.89,28.62,117.67,43.09,176.46,16.45,66.83-27.83,124.38-96.45,124.51-123.68.23-247.37.06-371.06.07Z" style="stroke-width: 0px;"/>
  <path d="M552.85,53.57c84.5,3.04,159.54-4.25,234.33,4.25,61.2,6.96,121.29,17.49,175.68,49.33,82.35,48.21,110.34,123.5,109.18,214.15-.17,13-8.93,17.4-18.04,19.45-46.64,10.48-93.52,9.68-140.1-.61-16.1-3.55-23.77-16.64-30.52-30.58-15.96-32.92-31.84-65.91-49.01-98.21-23.93-45.02-62.56-67.72-113.2-67.98-106.45-.56-212.91-.6-319.36.07-50.76.32-88.91,23.82-112.65,68.84-17.06,32.35-33.33,65.15-48.97,98.22-8.73,18.47-21.36,29.8-42.05,32.49-40.26,5.23-80.43,7.31-120.66-.07-17.81-3.27-25.89-11.78-25.84-31.93.33-126.68,69.42-209.94,199.77-239.25,62.5-14.05,125.74-18.99,189.63-18.26,40.47.46,80.96.09,111.82.09Z" style="fill: #fefefe; stroke-width: 0px;"/>
  <path d="M560.67,832.54c-119.14,0-238.29-.04-357.43.05-13.6.01-26.69-.57-38.77-8.38-16.29-10.53-23.98-24.54-19.28-43.73,16.35-66.77,32.82-133.51,49.67-200.16,4.99-19.73,18.52-34.34,33.86-46.39,25.29-19.85,51.12-39.13,77.76-57.11,55.2-37.24,92.95-86.04,104.78-152.69,1.75-9.86,5.82-13.31,16.17-13.74,24.4-1.03,43.38,1.7,61.85,23.82,40.73,48.8,112.41,42.89,154.21-8.42,9.91-12.17,49.16-21.11,62.78-14.49,5.88,2.86,5.33,8.3,6.31,13.33,12.38,63.56,46.96,111.69,99.85,148.56,135.57,94.49,105.25,70.05,142.65,209.74,7.53,28.14,13.96,56.58,21.03,84.85,10.36,41.42-7.57,64.45-51.26,64.69-57.7.32-115.4.08-173.09.08-63.69,0-127.39,0-191.08,0Z" style="fill: #fefefe; stroke-width: 0px;"/>
  <path d="M393.53,588.07c-.3-88.22,76.92-164.07,167.75-164.79,91.75-.72,168.55,75.79,169.04,168.39.47,89.76-76.8,166.71-168,167.31-92.63.61-168.47-76.19-168.79-170.91Z" style="stroke-width: 0px;"/>
  <path d="M562.95,476.5c63.87.58,114.21,52.63,113.59,117.44-.6,61.94-53.55,112.18-117.12,111.14-64.41-1.06-112.81-52.06-112.22-118.25.54-60.35,53.58-110.9,115.75-110.34Z" style="fill: #fefefe; stroke-width: 0px;"/>
</svg>