<?xml version="1.0" encoding="UTF-8"?>
<svg id="Layer_1" data-name="Layer 1" xmlns="http://www.w3.org/2000/svg" viewBox="0 0 934.15 1054.12">
  <path d="M934.01,293.62c-6.5,162.83-39.14,324.62-123.44,472.77-74.16,130.33-179.76,225.78-319.18,282.9-18.04,7.39-34.8,5.8-52.24-1.51-165.03-69.13-279.35-188.77-351.35-351.09C25.46,556.14-.46,408.51,0,255.48c.05-17.05,5.33-29.5,20.85-37.27C163.26,146.95,305.59,75.56,448.07,4.46c13.08-6.53,26.78-5.64,40.06,1.02,139.88,70.13,279.77,140.26,419.74,210.21,18.11,9.05,27.11,22.8,26.21,43.18-.43,9.7-.07,19.44-.07,34.76Z" style="fill: #100f0d; stroke-width: 0px;"/>
  <path d="M838.32,285.34c-7.75,69.59-17.34,134.05-33.28,197.41-32.73,130.03-85.36,250.29-174.08,352.67-42.24,48.74-92.85,87.38-147.22,121.53-13.48,8.46-24.41,4.33-36.6-2.71-92.46-53.42-163.12-128.45-217.35-219.49-75.54-126.81-112.7-265.96-129.47-411.28-5.2-45.03-4.15-45.11,37.14-65.72,103.46-51.64,207-103.11,310.21-155.25,13.75-6.95,24.88-6.92,38.65,0,110.74,55.71,221.81,110.75,332.8,165.97,9.28,4.62,19.91,7.98,19.2,16.86Z" style="fill: #fefefe; stroke-width: 0px;"/>
  <path d="M758.97,337.35c-15.85,151.17-53.87,293.79-144.36,418.17-35.59,48.92-80.5,87.74-131.28,120.24-12.19,7.8-21.92,6.85-34.24-.64-105.51-64.23-170.62-160.16-215.59-272.19-34.13-85.02-50.55-174.08-60.83-264.6-1.22-10.7,2.55-16.48,11.93-21.29,89.98-46.07,179.79-92.46,269.6-138.87,8.77-4.53,16.36-3.84,25.29.8,88.45,46.02,177.1,91.67,265.81,137.19,9.42,4.83,16.88,9.91,13.65,21.18Z" style="fill: #100f0d; stroke-width: 0px;"/>
  <path d="M434.83,653.09c-14.82.72-23.7-6.4-31.57-14.1-32.72-32.05-65.41-64.16-97.31-97.01-18.62-19.17-19.25-42.06-3.51-57.29,16.44-15.91,38.05-15.3,57.59,3.04,21.25,19.94,41.99,40.47,62.14,61.52,8.86,9.25,14.2,8.75,23.16-.35,52.59-53.4,105.83-106.17,158.94-159.07,5.39-5.37,10.73-11.24,17.19-14.99,16.26-9.44,32.36-7.49,45.86,5.43,12.83,12.28,16.22,27.64,7.41,43.58-4.61,8.34-11.12,15.93-17.9,22.72-62.81,62.82-125.89,125.37-188.83,188.06-10,9.96-20.15,19.37-33.15,18.47Z" style="fill: #fefefe; stroke-width: 0px;"/>
</svg>