<?xml version="1.0" encoding="UTF-8"?>
<svg id="Layer_1" data-name="Layer 1" xmlns="http://www.w3.org/2000/svg" viewBox="0 0 967.19 1167.02">
  <path d="M966.43,406.48c-1.5,68.37,6.43,147.85-8.7,225.81-49.36,254.2-188.25,435.33-435.03,527.26-27.84,10.37-53.89,9.62-81.78-.28-188.86-67.03-316.03-197.78-392.84-380.02C15.96,703.06-.43,623.27.25,540.01,1.1,436.07.7,332.12,0,228.17c-.1-14.56,4.04-21.53,17.75-27.52C166.21,135.88,314.37,70.41,462.41,4.68c14-6.22,26.06-6.24,40.03-.05,148.78,65.98,297.67,131.72,446.84,196.83,13.9,6.07,17.69,13.73,17.48,28.1-.81,55.48-.33,110.98-.33,176.92Z" style="stroke-width: 0px;"/>
  <path d="M240.57,557.31c3.23,6.25,4.97,12.98,9.2,17.26,36.75,37.25,74.46,73.56,110.69,111.3,11.2,11.67,16.81,11.92,28.5.21,107.59-107.78,216.14-214.59,323.74-322.36,12.45-12.47,20.11-15.09,32.39-.69,18.14,21.25,41.42,37.73,58.01,60.58-19.1,19.46-38.02,39.11-57.33,58.35-116.18,115.76-232.45,231.43-348.7,347.12q-21.9,21.79-43.18.75c-60.51-59.87-120.78-119.99-181.74-179.4-9.9-9.65-12.15-15.11-.68-25.32,18.63-16.59,35.55-35.1,53.23-52.77,3.24-3.24,6.65-6.32,15.88-15.04Z" style="fill: #fefefe; stroke-width: 0px;"/>
</svg>