<?xml version="1.0" encoding="UTF-8"?>
<svg id="Layer_1" data-name="Layer 1" xmlns="http://www.w3.org/2000/svg" viewBox="0 0 848.02 1130.95">
  <path d="M76.33,318.78c-5.56-26.75-11.15-59.7-19.67-91.87-3.79-14.31.29-18.46,12.68-22,26.19-7.49,51.77-17.22,78.14-23.94,18.56-4.73,27.93-15.29,32.89-33.09,7.11-25.5,17.28-50.2,23.52-75.88,3.95-16.26,11.5-17.55,25.29-14.13,26.47,6.56,53.34,11.53,79.86,17.92,15.43,3.72,27.73.6,39.35-10.57,20.8-19.98,43.08-38.43,63.68-58.6,9.23-9.04,14.91-8.61,23.92.05,20.25,19.45,42.63,36.76,62.13,56.89,13.13,13.55,26.6,14.62,43.17,10.88,27.34-6.17,55.03-10.85,82.29-17.34,11.35-2.7,15.91-.45,19.19,11.16,8.02,28.39,18.43,56.1,26.45,84.48,4.23,14.96,13.02,22.85,27.29,27.04,26.15,7.67,51.86,16.9,78.2,23.79,15.55,4.07,20.55,10.08,16.04,26.67-7.34,27.01-10.83,55.06-18.11,82.09-4.17,15.48,0,26.22,10.08,36.98,19.21,20.5,37.08,42.34,57.21,61.87,11.75,11.4,9.89,18.07-.44,28.66-20.12,20.64-38.63,42.85-58.15,64.1-8.88,9.67-12.25,19.21-8.64,32.94,6.93,26.35,10.45,53.59,17.38,79.94,4.41,16.79,3.48,25.73-16.32,30.36-25.69,6.01-50.1,17.3-75.62,24.25-16.86,4.59-24.95,14.1-29.48,30.39-7.29,26.22-17.48,51.64-24.7,77.88-3.82,13.9-8.59,18.11-23.53,14.04-27.74-7.56-56.29-12.1-84.29-18.77-13.98-3.33-24.99-.36-35.31,9.45-21.45,20.41-43.95,39.74-64.9,60.64-9.19,9.17-14.83,8.61-23.67.06-20.18-19.53-41.8-37.59-61.85-57.24-12.57-12.32-24.89-16.83-42.8-11.79-26.93,7.59-54.98,11.15-82.03,18.36-13.33,3.56-17.22-1.53-20.5-12.46-7.6-25.37-17.02-50.24-23.54-75.86-5.31-20.88-17.24-31.82-37.66-37.26-25.56-6.81-50.41-16.25-75.79-23.79-11.56-3.43-14.82-7.91-11.34-20.76,7.52-27.75,12.02-56.3,18.57-84.33,3.39-14.51,1.28-26.14-9.46-37.35-20.48-21.36-39.49-44.14-59.81-65.66-7.94-8.4-8.25-14.23-.14-22.75,20.42-21.43,40-43.67,59.88-65.61,6.16-6.8,12.27-13.66,10.5-29.84Z" style="stroke-width: 0px;"/>
  <path d="M65.37,1068.12c33.66-93.12,65.54-181.34,98.8-273.36q17.51,51.81,66.93,41.82c23.01-4.67,46.81-7.24,68.75-14.99,24.59-8.69,34,10.03,47.8,21.1,13.04,10.46.79,21.14-2.5,30.44-30.22,85.56-61.31,170.81-92.75,257.83-11.37-13.63-12.67-30.34-18.33-45.01-8.71-22.57-15.6-45.83-23.87-68.58-8.05-22.14-17.76-26.11-37.65-14.39-34.39,20.27-68.27,41.43-107.17,65.14Z" style="stroke-width: 0px;"/>
  <path d="M783.31,1068.06c-38.48-23.37-71.27-43.62-104.39-63.3-23.66-14.06-32.42-10.47-41.65,16.14-12.64,36.44-25.12,72.95-37.76,109.68-7.12-3.59-7.01-10.9-9.15-16.8-29.92-82.5-59.77-165.03-89.54-247.59-7.74-21.45,17.37-50.58,40.06-46.11,29.73,5.86,59.35,12.33,88.97,18.76,34.48,7.48,36.98,6.2,48.31-25.89,1.72-4.89,3.9-9.61,6.95-17.06,32.65,90.48,64.33,178.28,98.21,272.17Z" style="stroke-width: 0px;"/>
  <path d="M423.41,117.74c173.52-.68,317.41,143.97,318,319.66.57,171.15-143.67,315.75-316.04,316.83-174.45,1.09-316.46-141.16-317.87-318.4-1.38-173.4,141.64-317.4,315.91-318.09Z" style="fill: #fefefe; stroke-width: 0px;"/>
  <path d="M424.23,160.37c151.49.08,273.37,122.76,274.21,276,.82,150.49-124.35,275.72-275.08,275.18-153.73-.55-274.27-124.15-273.78-280.74.47-148.25,124.64-270.52,274.64-270.44Z" style="stroke-width: 0px;"/>
  <path d="M275.7,393.25c16.35.27,28.46,8.48,39.53,19.73,14.86,15.1,30.33,40.67,45.84,40.89,15.01.21,30.58-25.8,45.58-40.63,42.1-41.63,83.97-83.5,126.04-125.16,27.83-27.55,50.25-27.54,78.3-.28,6.53,6.35,13.14,12.63,19.48,19.16,23.72,24.42,23.57,46.59-.94,70.96-76.98,76.54-154.01,153.01-231.2,229.33-27.59,27.28-48.08,26.92-75.8-.59-34.48-34.23-68.91-68.5-103.27-102.85-25.74-25.74-25.67-45.42.05-72.05,7.91-8.19,15.74-16.47,23.98-24.32,10.38-9.88,20.79-14.19,32.39-14.18Z" style="fill: #fefefe; stroke-width: 0px;"/>
  <path d="M358.55,581.67c-2.68-2.51-6.03-5.5-9.22-8.66-31.85-31.45-63.4-63.2-95.68-94.19-8.33-8-9.69-12.44-.68-21.41,23.17-23.08,22.63-23.63,45.48-1.12,13.51,13.31,26.89,26.75,40.55,39.91,18.4,17.73,25.39,17.95,43.6.07,58.44-57.42,116.55-115.16,175.1-172.47,4.72-4.62,8.82-16.06,17.07-10.27,10.95,7.68,19.62,18.7,28.6,28.88.51.57-4.72,6.82-7.82,9.88-75.03,74.08-150.11,148.11-225.28,222.04-3,2.95-5.03,7.81-11.7,7.34Z" style="stroke-width: 0px;"/>
</svg>