<?xml version="1.0" encoding="UTF-8"?>
<svg id="Layer_1" data-name="Layer 1" xmlns="http://www.w3.org/2000/svg" viewBox="0 0 1237.3 1237.3">
  <path d="M.38,616.69C.38,416.5.56,216.31,0,16.13-.04,2.64,2.65-.02,16.14,0c401.68.46,803.36.46,1205.04,0,13.48-.02,16.15,2.64,16.13,16.13-.46,401.68-.46,803.36,0,1205.05.02,13.48-2.64,16.15-16.13,16.13-401.68-.46-803.36-.46-1205.04,0-13.48.02-16.18-2.63-16.14-16.13.56-201.5.38-402.99.38-604.49Z" style="fill: #fefefe; stroke-width: 0px;"/>
  <path d="M620.74,128.94c269.49-3.99,492.28,224.22,492.26,491.85-.03,267.85-222.08,492.2-492.57,492.21-270.94.01-492.45-225.98-492.28-492.62.18-267.74,222.99-495.55,492.58-491.44Z" style="stroke-width: 0px;"/>
  <path d="M621.15,319.38c165.52.23,301.33,136.72,300.71,302.23-.62,164.88-135.88,299.86-300.88,300.25-166.34.39-302.44-136.49-301.61-303.34.82-164.48,136.89-299.36,301.78-299.13Z" style="fill: #fefefe; stroke-width: 0px;"/>
  <path d="M621.82,648.16c22.91,0,45.82.27,68.72-.14,8.34-.15,11.64,2.25,11.04,11.12-4.19,61.72-13.79,122.03-44.43,177.09-1.27,2.28-2.68,4.5-4.15,6.66-21.85,32.05-43.72,32.3-64.9-.41-26.89-41.54-37.36-88.78-43.88-136.92-2.5-18.46-12.77-42.18-.89-54.29,8.86-9.03,33.43-2.71,51.01-3.07,9.16-.19,18.33-.03,27.49-.03Z" style="stroke-width: 0px;"/>
  <path d="M619.99,593.08c-22.27,0-44.55-.33-66.8.16-9.41.21-14.36-1.17-13.54-12.61,4.08-57.11,12.79-113.11,38.94-164.85,9.13-18.06,19.34-39.73,41.68-40.09,22.67-.37,32.76,21.56,41.97,39.48,26.5,51.62,35.07,107.68,39.34,164.76.79,10.58-2.38,13.68-12.82,13.36-22.9-.69-45.84-.21-68.77-.21Z" style="stroke-width: 0px;"/>
  <path d="M529.98,391.45c-28.61,64-42.81,126.56-44.98,191.73-.33,9.82-5.64,9.98-12.71,9.95-27.49-.12-55-.7-82.45.24-12.89.44-13.53-4.89-11.58-15.02,15.11-78.65,57.44-137.44,127.75-175.9,6.25-3.42,12.96-5.98,23.97-10.99Z" style="stroke-width: 0px;"/>
  <path d="M710.91,390.79c85.33,38.75,134.12,99.78,151.94,186.11,2.79,13.51-1.17,16.93-14.4,16.46-26.22-.93-52.49-.43-78.73-.18-8.09.08-13.2-.6-13.59-11.17-2.38-64.67-16.39-126.83-45.22-191.22Z" style="stroke-width: 0px;"/>
  <path d="M710.92,850.58c28.51-65.13,43.31-127.74,45.38-193.12.27-8.47,4.67-9.37,11.29-9.35,28.87.12,57.76.48,86.62-.13,14.92-.31,9.61,9.34,8.36,15.83-16.69,86.92-67.06,147.02-151.64,186.77Z" style="stroke-width: 0px;"/>
  <path d="M530.09,850.38c-84.25-39.29-133.79-99.25-151.62-185.01-2.8-13.47.41-18.18,14.94-17.54,26.2,1.16,52.49.38,78.74.3,6.94-.02,12.56-.22,12.85,9.8,1.85,65.33,16.9,127.84,45.09,192.45Z" style="stroke-width: 0px;"/>
</svg>