<?xml version="1.0" encoding="UTF-8"?>
<svg id="Layer_1" data-name="Layer 1" xmlns="http://www.w3.org/2000/svg" viewBox="0 0 1001.5 1003.39">
  <path d="M.22,499.81C-7.97,240.61,218.43,1.49,497.77,0c266.11-1.41,503.75,221.44,503.73,503.52-.03,267.39-225.82,498.69-499.25,499.85C227.56,1004.55-8.11,772.8.22,499.81Z" style="stroke-width: 0px;"/>
  <path d="M259.15,520.55c20.68,0,41.37.46,62.02-.19,10.5-.33,15.72,1.85,15.78,13.89.3,57.4,4.16,114.59,12.75,171.39,1.36,9-1.45,12.93-10.75,14.96-31.86,6.98-62.95,16.74-92.8,29.99-9.15,4.06-13.36,3.13-17.67-7.01-28.74-67.66-41.72-138.59-46.33-211.5-.69-10.89,4.46-11.79,12.97-11.64,21.34.36,42.68.12,64.02.12Z" style="fill: #fefefe; stroke-width: 0px;"/>
  <path d="M817.46,539.03c-3.99,69.68-18.34,136.34-43.82,200.68-4.97,12.54-9.55,15.81-22.87,9.59-27.73-12.93-57.18-21.7-87.07-28.22-10.82-2.36-14.53-6.23-12.88-17.21,8.44-56.13,12.35-112.65,12.68-169.37.07-11.71,4.7-14.33,15.53-14.18,40.01.55,80.04.82,120.03-.09,15.17-.35,23.47,2.39,18.4,18.79Z" style="fill: #fefefe; stroke-width: 0px;"/>
  <path d="M258.46,483.14c-20.65,0-41.32-.51-61.95.21-10.91.38-15.22-2.23-14.45-14.23,4.09-63.41,15.49-125.24,37.15-185.12,3.17-8.75,6.54-11.13,15.66-6.88,32.59,15.17,66.43,27.08,101.77,33.91,9.32,1.8,10.25,6.32,9.35,13.72-5.95,48.97-9.09,98.13-9.31,147.45-.05,10.86-6.22,11.14-14.27,11.03-21.31-.27-42.63-.09-63.95-.09Z" style="fill: #fefefe; stroke-width: 0px;"/>
  <path d="M739.75,483.14c-20.65,0-41.31-.46-61.94.2-10.15.32-14.23-2.68-14.25-13.3-.12-47.98-3.12-95.82-9.01-143.45-1.14-9.2.36-13.91,11.37-16.02,34-6.53,66.53-18.37,98.07-32.55,8.79-3.95,13.39-5.16,17.4,6.05,21.67,60.62,32.6,123.21,36.87,187.23.7,10.51-3.65,12.16-12.56,11.99-21.97-.43-43.96-.14-65.94-.14Z" style="fill: #fefefe; stroke-width: 0px;"/>
  <path d="M89.91,520.55c13.32,0,26.72.88,39.95-.25,12.88-1.1,15.3,4.33,15.72,15.96,2.8,77.13,18.13,151.72,49,222.64,4.78,10.97,2.07,15.59-7.37,19.69-4.25,1.85-8.26,4.29-12.25,6.68-29.38,17.59-29.73,17.87-49.2-9.02-51.51-71.12-80.58-150.59-88.28-238.1-1.21-13.75,1.79-19.39,16.48-17.85,11.86,1.25,23.96.25,35.95.25Z" style="fill: #fefefe; stroke-width: 0px;"/>
  <path d="M910.01,520.55c8.01,0,16.03,0,24.04,0,32.02,0,31.51-.06,27.73,31.15-10.48,86.65-41.95,164.61-94.48,234.35-9.9,13.15-18.34,19.53-32.39,5.66-9.42-9.29-28.65-10.3-31.31-22.44-2.26-10.33,7.58-23.3,12.02-35.12,23.84-63.58,36.83-129.4,39.17-197.18.45-12.94,3.93-17.83,17.17-16.66,12.59,1.11,25.36.24,38.05.24Z" style="fill: #fefefe; stroke-width: 0px;"/>
  <path d="M910.18,481.98c-17.27,0-38.48,6.13-50.7-1.73-12.09-7.78-4.76-30.92-6.49-47.22-6.09-57.28-17.5-113.2-38.43-166.9-3.84-9.86-1.69-14.2,6.95-18.55,8.88-4.48,18.21-9.08,25.37-15.74,15.97-14.87,24.39-9.67,35.66,6.91,46,67.66,71.61,142.06,80.37,223.05,1.94,17.99-2.86,24.02-20.72,21.59-10.49-1.42-21.32-.26-32-.26,0-.39,0-.77,0-1.16Z" style="fill: #fefefe; stroke-width: 0px;"/>
  <path d="M90.76,483.14c-8.68,0-17.35,0-26.03,0-29.42,0-29.68-.03-26.24-28.79,9.75-81.5,37.05-156.25,85.19-223.23,7.39-10.28,13-13.11,22.8-3.93,12.56,11.77,36.52,14.55,40.37,29.47,3.48,13.46-8.96,30.85-13.85,46.68-16.42,53.12-26.21,107.45-27.45,163.06-.28,12.53-3.06,18.28-16.77,16.99-12.57-1.18-25.34-.25-38.02-.25Z" style="fill: #fefefe; stroke-width: 0px;"/>
  <path d="M481.71,612.06c0,25.36-.3,50.72.16,76.07.16,8.82-1.52,12.95-11.68,13.55-23.94,1.41-47.82,4.04-71.65,6.86-8.78,1.04-11.47-1.86-12.5-10.37-6.56-54.33-10.89-108.8-12.26-163.53-.29-11.55,3.35-14.66,14.54-14.34,26.67.75,53.39.7,80.06.02,10.64-.27,13.8,3.23,13.54,13.67-.64,26.01-.21,52.04-.21,78.07Z" style="fill: #fefefe; stroke-width: 0px;"/>
  <path d="M518.77,610.12c0-25.35.42-50.71-.21-76.05-.26-10.32,2.67-14.02,13.43-13.75,27.34.69,54.71.57,82.05.04,9.32-.18,12.83,2.23,12.62,12.15-1.15,56.07-6.02,111.83-12.53,167.49-.98,8.38-5.17,9.24-12.18,8.47-23.85-2.59-47.71-5.39-71.64-6.8-10.13-.6-11.87-4.65-11.72-13.5.46-26.01.17-52.04.17-78.05Z" style="fill: #fefefe; stroke-width: 0px;"/>
  <path d="M424.29,50.94c-40.06,68.34-56.54,138.74-69.01,210.17-2.61,14.95-7.15,14.53-19.01,11.08-29.39-8.54-58.54-17.53-86.64-29.78-6.96-3.03-11.29-6.13-6.9-14.57,39.99-76.99,93.2-140.49,181.57-176.91Z" style="fill: #fefefe; stroke-width: 0px;"/>
  <path d="M576.28,51.24c74.82,30.02,123.53,80.51,161.59,142.54,27.33,44.54,26.93,45.03-22.95,62.35-18.18,6.31-36.91,11.02-55.11,17.27-9.42,3.24-12.23,1.24-13.97-8.83-9.42-54.41-21.5-108.17-42.6-159.54-6.99-17.01-15.48-33.24-26.96-53.79Z" style="fill: #fefefe; stroke-width: 0px;"/>
  <path d="M481.71,407.36c0,20.65-.4,41.31.18,61.95.28,9.85-1.93,14.37-13.08,14.07-27.29-.73-54.62-.49-81.93-.09-8.64.12-13.25-1.01-13.12-11.6.57-46.68,4.78-93.09,8.91-139.52.7-7.87,4.3-9.76,11.8-8.96,25.81,2.74,51.64,5.41,77.54,7.03,10.13.63,9.8,6.12,9.75,13.18-.17,21.32-.06,42.63-.05,63.95Z" style="fill: #fefefe; stroke-width: 0px;"/>
  <path d="M518.76,406.35c0-21.32.29-42.64-.15-63.95-.17-8.17,1.92-11.63,10.84-12.22,25.22-1.66,50.44-3.94,75.53-6.98,10.4-1.26,12.38,3.19,13.13,11.92,3.82,44.46,7.45,88.91,8.54,133.55.27,11.08-2.37,15.1-14.11,14.72-26.62-.85-53.3-.87-79.92,0-12.11.4-14.44-4.38-14.07-15.12.71-20.63.21-41.29.21-61.94Z" style="fill: #fefefe; stroke-width: 0px;"/>
  <path d="M481.7,44.39c0,81.67-.08,159.39.12,237.12.02,7.59-2.1,10.56-10.15,10.41-24.74-.47-49.09-4.13-73.51-7.48-7.14-.98-8.84-3.76-7.57-10.32,12.68-65.32,25.36-130.66,57.91-189.87,7.65-13.91,16.23-27.41,33.19-39.85Z" style="fill: #fdfdfd; stroke-width: 0px;"/>
  <path d="M518.75,44.89c20.15,14.41,29.95,32.3,38.9,50.44,27.66,56.05,40.39,116.55,51.9,177.39,1.34,7.06.79,10.73-7.83,11.83-23.12,2.95-46.17,6.09-69.5,7.43-12.65.72-13.69-4.83-13.64-15.02.32-75.99.17-151.97.17-232.07Z" style="fill: #fdfdfd; stroke-width: 0px;"/>
  <path d="M576.45,952.19c34.92-59.82,51.7-120.39,63.56-182.47,2.6-13.62,7.38-15.22,19.68-11.59,26.77,7.91,53.71,15.17,79.31,26.5,4.72,2.09,12.56,2.47,7.26,11.64-39.24,67.87-89.84,123.42-169.81,155.92Z" style="fill: #fefefe; stroke-width: 0px;"/>
  <path d="M250.78,789.97c30.74-16.09,63.18-23.74,95.01-33.23,12.7-3.79,12.55,4.73,14.05,12.33,8.68,43.83,20.09,86.87,36.75,128.43,6.93,17.29,15.06,33.95,28.05,54.7-82.92-32.63-133.83-90.96-173.87-162.23Z" style="fill: #fefefe; stroke-width: 0px;"/>
  <path d="M481.71,958.69c-18.15-13.57-27.7-29.29-36.15-45.58-25.39-48.94-38.81-101.75-49.79-155.37-1.7-8.29.68-10.99,8.09-11.63,22.59-1.97,45.21-3.73,67.76-6.05,12.54-1.29,10.05,7.29,10.06,14.2.06,66.74.03,133.49.03,204.43Z" style="fill: #fdfdfd; stroke-width: 0px;"/>
  <path d="M518.75,958.62c0-70.45.34-136.48-.29-202.5-.13-13.02,2.94-17.79,16.49-15.97,19.8,2.66,39.82,3.58,59.69,5.78,5.18.57,12.68-.42,10.44,9.87-13.27,61.19-27.06,122.18-61.61,175.87-5.96,9.27-12.6,18.17-24.73,26.95Z" style="fill: #fdfdfd; stroke-width: 0px;"/>
  <path d="M157.91,189.77c34.4-40.43,75.72-70.23,120.69-95.47,2.86-1.6,5.2-3.82,8.21.27,3.19,4.34-.89,5.77-2.65,7.7-30.3,33.21-55.58,69.83-74.96,110.41-3.21,6.71-6.57,6.53-12.09,2.77-12.64-8.63-25.58-16.8-39.2-25.68Z" style="fill: #fdfdfd; stroke-width: 0px;"/>
  <path d="M712.18,89.92c49.9,24.85,92.34,57.53,129.05,98-.82,1.44-1.13,2.73-1.94,3.27-13.83,9.18-28.02,25.75-41.5,25.19-12.78-.53-16.08-24.4-24.35-37.53-16-25.39-33.42-49.61-53.12-72.24-3.55-4.07-10.17-6.78-8.14-16.69Z" style="fill: #fdfdfd; stroke-width: 0px;"/>
  <path d="M289.21,911.49c-41.63-17.01-76.47-43.05-108.44-73.29-4.76-4.5-6.48-7.88.47-11.87,9.23-5.3,18.16-11.11,27.25-16.65,4.25-2.59,8.28-4.18,11.44,1.73,19.18,35.88,43.82,67.96,69.27,100.08Z" style="fill: #fcfcfc; stroke-width: 0px;"/>
  <path d="M824.87,830.15c-19.58,26.3-71.99,64.83-111.69,82.37-4.96-6.71,1.79-9.49,4.82-12.86,22.25-24.85,42.41-51.27,57.88-80.83,6.08-11.62,12.07-13.33,22.37-5.84,8.51,6.19,17.69,11.46,26.63,17.16Z" style="fill: #fcfcfc; stroke-width: 0px;"/>
</svg>