<?xml version="1.0" encoding="UTF-8"?>
<svg id="Layer_1" data-name="Layer 1" xmlns="http://www.w3.org/2000/svg" viewBox="0 0 1335.91 1335.91">
  <path d="M667.69,1335.47c-216.84,0-433.67-.21-650.51.45-15.11.05-17.12-3.75-17.1-17.72C.52,884.52.54,450.85,0,17.18-.02,2.07,3.74.06,17.71.07,451.39.52,885.06.54,1318.74,0c15.11-.02,17.12,3.74,17.1,17.71-.45,433.67-.47,867.34.07,1301.01.02,15.11-3.74,17.15-17.72,17.11-216.84-.53-433.67-.37-650.51-.37Z" style="fill: #fefefe; stroke-width: 0px;"/>
  <path d="M140.74,948.54c-6.74-125.72,107-253.16,258.85-251.82,131.54,1.16,247.1,115.36,247.1,246.91,0,139.09-115.17,254.55-252.29,256.52-144.87,2.08-261.56-124.62-253.66-251.6Z" style="stroke-width: 0px;"/>
  <path d="M681.38,527.82c-39.01.58-91.38.88-143.33,8.38-13.19,1.91-18.63.78-15.64-15.58,15.36-84.22,36.56-165.93,98.25-229.9,46.15-47.86,96.82-48.23,145.43-3.51,16.86,15.51,30.03,33.76,41.33,53.45,28.82,50.17,45.22,104.73,56.03,161.14,7.04,36.76,6.8,35.78-30.99,31.76-45.73-4.87-91.75-5.89-151.09-5.75Z" style="stroke-width: 0px;"/>
  <path d="M695.44,740.5c-24.06,0-48.34-2.07-72.13.46-41.02,4.36-71.01-17.73-102.6-37.51-6.19-3.88-5.97-8.72-6.36-14.24-2.63-37.54-.19-74.99,1.36-112.49.49-11.91,5.81-14.47,16.93-15.68,108.09-11.81,216.06-11.69,324.17-.15,13.04,1.39,15.95,5.61,16.94,17.51,3.89,46.7,3.9,93.26-.23,139.95-.96,10.85-4.79,13.35-14.94,14.73-54.17,7.35-108.67,7.88-163.14,7.42Z" style="stroke-width: 0px;"/>
  <path d="M1058.22,552.39c-38.4-80.76-76.36-158.06-112.01-236.41-27.86-61.23-2.74-133.71,53.77-162.96,59.04-30.55,127.87-11.41,163.11,45.6,20.92,33.85,20.21,69.34,8.2,106.06-19.84,60.67-49.7,116.78-77.57,173.83-11.67,23.89-23.04,47.93-35.49,73.88Z" style="stroke-width: 0px;"/>
  <path d="M603.93,765.74c17.03,0,33.13-.13,49.22.02,66.53.63,133,0,199.18-8.03,8.81-1.07,18.6-3.9,15.58,12.29-13.54,72.56-31.09,143.8-74.04,205.45-25.89,37.15-57.59,66.74-108.12,62.3-26.46-2.32-26.84-3.19-21.3-28.44,18.37-83.82.23-159.6-50.73-228.04-2.95-3.96-6.15-7.73-9.17-11.65-.34-.45-.22-1.25-.63-3.91Z" style="stroke-width: 0px;"/>
  <path d="M610.5,264c-71.02,75.21-99.09,165.88-112.6,262.38-2.01,14.36-9.28,16.3-20.66,18.15-60.04,9.77-119.02,23.14-172.17,54.93-1.25-110.31,105.85-294.21,305.43-335.46Z" style="stroke-width: 0px;"/>
  <path d="M779.12,1028.17c26.27-26.63,45.38-54.03,60.68-84.28,27.75-54.87,43.24-113.42,51.95-173.7,2.29-15.85,9.39-19.42,22.29-21.29,42.76-6.16,84.54-16.46,125.13-31.29,16.56-6.05,32.04-14.44,47.48-24.16-11.68,155.83-145.51,306.89-307.54,334.72Z" style="stroke-width: 0px;"/>
  <path d="M781.36,266.98c30.7,2.43,55.01,13.77,79.45,24.11,39.78,16.84,70.62,40.33,88.13,84.01,26.95,67.25,61.18,131.59,93.78,200.24-30.96-8.18-58.98-16.02-87.23-22.91-19.83-4.84-46.28-2.18-58.22-14.27-11.94-12.09-8.94-38.49-13.49-58.4-15.02-65.77-35.97-129.15-77.57-183.71-6.75-8.85-14.45-16.97-24.84-29.08Z" style="stroke-width: 0px;"/>
  <path d="M898.83,727.21c-2.83-16.59,2-31.85,1.96-47.29-.06-23.34-.27-46.68-.08-70.02.11-14.44-10.1-33.5.72-41.71,7.57-5.74,26.69,2.84,40.35,6.22,26.69,6.6,53.33,13.55,79.69,21.34,12.08,3.57,23.96,8.57,35.04,14.56,15.41,8.33,33.73,16.42,33.45,37.27-.27,19.8-18.04,27.53-32.91,35.23-42.47,21.99-89.16,30.47-135.31,40.46-7.42,1.61-14.98,2.6-22.91,3.94Z" style="stroke-width: 0px;"/>
  <path d="M489.01,689.74c-51.79-16.21-101.7-21.73-152.95-10.68-16.62,3.58-25.57-9.67-33.29-21.31-8.03-12.11-2.88-23.09,6.73-32.14,15.3-14.41,34.43-22.33,53.75-28.98,38.14-13.14,77.46-21.89,117.15-29.08,9.21-1.67,13.26-.61,11.79,9.99-5.09,36.6-2.2,73.5-3.18,112.21Z" style="stroke-width: 0px;"/>
  <path d="M1148.27,874.85c-.69,1.63-2.09,5.54-3.91,9.24-10.58,21.52-24.06,41.24-38.22,60.5-5.18,7.05-11.46,14.2-20.66,7.12-7.81-6.01-4.52-13.66.44-20.5,14.03-19.37,26.56-39.65,37.79-60.79,3.23-6.07,7.54-12.53,16.56-8.91,4.9,1.96,8.56,4.92,8,13.35Z" style="fill: #040404; stroke-width: 0px;"/>
  <path d="M497.58,202.5c-.4,7.55-5.23,10.84-10.32,13.16-21.8,9.93-42.15,22.33-62.24,35.26-6.77,4.36-14.37,8.07-20.01-1.22-5.09-8.39-.65-14.45,6.52-19.39,20.87-14.41,43.44-25.83,66.05-37.09,10.27-5.11,17.57-1.62,20,9.28Z" style="fill: #040404; stroke-width: 0px;"/>
  <path d="M706.19,1126.55c12.67,0,25.34-.04,38,.01,7.12.03,12.75,2.69,13.21,10.5.45,7.69-4.48,11.18-11.7,12.19-25.91,3.6-51.93,4.22-78,2.83-8.55-.45-15.89-5.02-15.08-14.16.86-9.66,9.11-10.71,17.65-10.34,11.95.52,23.94.13,35.91.13,0-.39,0-.78,0-1.17Z" style="fill: #060606; stroke-width: 0px;"/>
  <path d="M737.72,145.54c21.05,3.63,44.01,7.77,67.03,11.48,9.4,1.51,14.42,6.15,12.32,15.77-2.09,9.56-9.85,8.45-17,7.52-24.52-3.21-49.02-6.59-73.56-9.7-8.33-1.06-13.65-5.11-12.47-13.72,1.83-13.4,12.77-10.34,23.68-11.34Z" style="fill: #040404; stroke-width: 0px;"/>
  <path d="M1202.99,620.22c0,7.61.26,11.85-.06,16.05-.55,7.18-4.56,12.13-11.72,12.52-7.47.41-12.12-4.73-12.31-11.73-.72-26.09-3.59-51.88-8.37-77.54-1.27-6.84,1.81-13.34,9.16-14.35,9.25-1.26,14.21,4.63,15.39,13.5,2.86,21.6,5.57,43.23,7.92,61.54Z" style="fill: #070707; stroke-width: 0px;"/>
  <path d="M296.29,367.08c-12.08-3.7-14.39-10.87-7.74-20.69,15.08-22.25,33.63-41.52,53.07-59.92,4.97-4.71,10.99-6.19,16.8-.43,4.76,4.72,5.5,10.87,1.68,15.31-18.32,21.3-37.21,42.11-56.14,62.87-1.64,1.8-5.09,1.95-7.66,2.85Z" style="fill: #040404; stroke-width: 0px;"/>
  <path d="M826.18,1134.46c-5.55-.06-8.82-3.35-10.49-8.43-2.15-6.53.73-11.64,6.45-13.83,25.65-9.84,51.49-19.2,77.3-28.61,6.31-2.3,11.51.31,14.33,5.79,2.91,5.65,1.43,11.7-4.12,14.91-25.93,14.97-54.58,22.62-83.47,30.18Z" style="fill: #030303; stroke-width: 0px;"/>
  <path d="M1198.74,724.19c-5.76,23.86-11.26,47.78-17.44,71.53-2.01,7.71-6.24,15.27-16.21,12.53-10.08-2.77-9.54-11.09-7.06-18.92,7.23-22.81,12.32-46.09,16-69.7,1.2-7.71,4.38-14.18,13.32-12.84,9.38,1.41,12.36,8.2,11.39,17.4Z" style="fill: #050505; stroke-width: 0px;"/>
  <path d="M654.91,160.6c-1.23,6.69-5.15,9.71-11.49,10.74-25.67,4.15-51.52,7.37-76.53,14.98-7.46,2.27-12.41-1.29-14.99-7.95-3.06-7.89,2.08-12.47,8.43-14.18,26.45-7.14,52.91-14.49,80.56-15.43,8.27-.28,13.22,3.55,14.01,11.84Z" style="fill: #040404; stroke-width: 0px;"/>
  <path d="M264.93,427.82c-2.2,4.54-5.56,10.66-8.2,17.08-7.74,18.82-15.23,37.75-22.72,56.67-2.68,6.76-7.19,10.76-14.58,8.61-8.17-2.38-10.66-8.15-8.05-16.37,8.1-25.52,18.91-49.89,31.08-73.68,2.77-5.4,6.95-9.27,13.53-7.32,6.05,1.8,8.88,6.44,8.94,15.01Z" style="fill: #030303; stroke-width: 0px;"/>
  <path d="M1050.26,1005.96c-1.58,2.24-3.44,6.16-6.39,8.88-18.66,17.2-37.94,33.64-59.2,47.64-6.36,4.19-12.99,7.06-18.7-.14-6.49-8.18-1.83-14.43,5.14-19.36,20.14-14.25,39.67-29.23,57.78-46.06,3.96-3.69,9.22-6.81,15.29-2.84,3.78,2.47,6.41,5.45,6.08,11.89Z" style="fill: #040404; stroke-width: 0px;"/>
  <path d="M210.39,617.31c0,12.7-.07,25.39.03,38.09.06,8.18-3.67,14.42-11.62,15.04-8.63.68-11.83-5.74-11.9-13.87-.24-26.15.68-52.22,4.68-78.13,1.13-7.33,5.15-12.1,12.31-12,9.28.14,11.24,7.38,10.84,14.97-.63,11.98-1.87,23.92-2.85,35.88-.49,0-.98,0-1.47,0Z" style="fill: #030303; stroke-width: 0px;"/>
  <path d="M212.68,947.17c0-28.33.4-56.68-.21-85-.24-11.03,2.63-18.43,12.76-24.13,51.71-29.1,103.19-58.61,154.5-88.42,9.74-5.66,17.76-5.58,27.45.07,50.64,29.53,101.43,58.83,152.53,87.56,10.59,5.95,14.89,12.94,14.78,25.16-.53,58.08-.47,116.17-.02,174.25.09,11.39-3.96,18.04-13.84,23.56-51.8,28.94-103.38,58.29-154.77,87.95-9.89,5.71-18.17,5.02-27.63-.46-50.71-29.41-101.46-58.78-152.56-87.5-10.15-5.7-13.43-12.62-13.2-23.79.62-29.74.21-59.5.21-89.25Z" style="fill: #fefefe; stroke-width: 0px;"/>
  <path d="M995.34,259.93c.2-35.39,28.04-61.86,64.31-61.18,35.31.67,60.99,27.22,60.49,62.53-.49,34.26-28.39,61.81-62.3,61.54-36.76-.3-62.71-26.41-62.5-62.89Z" style="fill: #fefefe; stroke-width: 0px;"/>
  <path d="M404.92,1120.75c0-53.12.09-101.88-.09-150.63-.03-8.12.53-14.56,9.01-19.34,44.09-24.81,87.84-50.25,135.72-77.78v67.5c0,27.56.08,55.12-.05,82.68-.03,6.78,1.88,14.06-6.23,18.65-45.17,25.58-90.21,51.41-138.36,78.92Z" style="stroke-width: 0px;"/>
  <path d="M236.82,876.34q40.66,14.46,40.65,53.4c0,2.83.58,5.81-.09,8.47-9.14,36.02,12.79,52.24,40.69,65.44,14.49,6.85,21.63,3.37,21.86-12.62.27-18.36.06-36.74.06-55.37,35.83,9.82,41.47,16.88,41.48,51.02.01,43.15,0,86.29,0,129.16-5.96,4.48-9.73-.64-13.54-2.79-39.31-22.25-78.5-44.71-117.6-67.33-5.79-3.35-13.56-5.2-13.55-14.44.07-51.41.03-102.81.03-154.94Z" style="stroke-width: 0px;"/>
  <path d="M352.07,911.26c47.29-27.1,92.09-52.29,136.32-78.47,10.19-6.03,15.69.54,22.72,4.23,8.04,4.22,15.89,8.79,26.65,14.78-47.76,27.44-93.14,53.39-138.36,79.61-8.95,5.19-14.46-1.89-20.89-4.99-8.23-3.95-15.91-9.04-26.44-15.16Z" style="fill: #010101; stroke-width: 0px;"/>
  <path d="M248.76,851.91c47.5-26.9,93.33-53.08,139.46-78.74,7.32-4.07,20.32,3.01,41.83,20.31-43.87,25.87-87.61,51.41-131.01,77.52-8.05,4.84-13.84,3.63-20.9-1.28-8.65-6.02-18.02-11.01-29.37-17.81Z" style="fill: #010101; stroke-width: 0px;"/>
  <path d="M469.81,815.94c-44.92,25.81-89.54,51.28-133.94,77.14-6.43,3.75-13.13,4.86-16.74-.96-6.14-9.89,5.85-9.24,9.69-11.55,38.09-22.87,76.7-44.85,114.99-67.37,9.07-5.33,17.33-9.02,26,2.74Z" style="fill: #060606; stroke-width: 0px;"/>
  <path d="M313.01,972.16c-18.48-17.75-7.23-39.52-8.77-59.49,20.86,16.76,6.37,39.81,8.77,59.49Z" style="fill: #050505; stroke-width: 0px;"/>
</svg>