<?xml version="1.0" encoding="UTF-8"?>
<svg id="Layer_1" data-name="Layer 1" xmlns="http://www.w3.org/2000/svg" viewBox="0 0 1095.27 1170.19">
  <path d="M549.71,1170.19c-254.94-2.01-469.83-167.73-531.67-412.26C-17.82,616.14-.24,480.01,71.03,351.81c7.83-14.09,7.8-23.69.16-37.92-32.19-60.01-51.83-123.16-30.66-191.45C61.73,54.06,110.22,12.96,179.9,2.31c73.86-11.29,131.92,19.16,170.69,82.53,9.62,15.72,16.26,16.99,32.48,11.64,310.48-102.49,649.85,107.2,704.46,428.84,46.41,273.34-120.23,542.88-387.2,623.85-49.03,14.87-99.43,21.02-150.62,21.03Z" style="stroke-width: 0px;"/>
  <path d="M959.04,321.65c-51.64,4.34-100,12.77-144.7,35.57-35.14,17.92-63.55,42.77-80.23,79.19-3.07,6.7-5.85,12.67-12.91,15.72-86.42,37.35-122.58,133.4-89.05,234.83,5.04,15.25,4.01,25.36-5.95,37.69-29.09,35.98-53.42,75.1-74.26,116.53-20.17,40.1-17.66,78.48,5.3,116.03,35.45,57.97,90.27,94.64,145.36,130.89,5.13,3.38,10.46,6.47,18.2,11.25-71.93,27.52-143.91,37.32-217.34,29.62-134.78-14.12-248.47-71.45-338.16-173.91-59.46-67.93-97.75-146.56-115.87-235.07-1.5-7.31-3.48-13.11,4.23-18.38,52.02-35.58,107.58-60.88,172.27-58.99,24.29.71,44.69,11.12,64.06,25.89,54.83,41.81,101.13,29.31,129.32-33.97,23.06-51.77,29.05-107.19,31.16-162.78,1.46-38.34,8.74-74.37,25.78-108.6,3.12-6.27,5.75-12.83,8.17-19.41,17.37-47.2,8.88-80.47-29.19-113.4-20.74-17.94-41.59-35.77-62.84-53.08-10.14-8.26-19.39-17-16.87-31.04,2.46-13.7,16.28-11.89,25.66-14.94,199.44-64.97,436.78,15.26,557.85,190.35Z" style="fill: #fefefe; stroke-width: 0px;"/>
  <path d="M657.45,748.53c28.66,48.17,59.97,91.93,99.34,129.47,28.73,27.4,44.92,27.46,73.24-1.24,61.9-62.72,113.04-131.87,131.68-220.46,19.48-92.56-29.66-181.95-116.73-212.33-20.01-6.98-41.33-5.85-64.25-9.21,19.89-26.69,45.14-41.73,73-52.46,38.39-14.77,78.67-19.86,119.6-21.44,11.79-.46,16.42,5.88,21.04,14.7,50.46,96.25,72.82,198.29,58.01,306.35-23.94,174.64-114.42,304.55-268.4,390.55-11.84,6.61-20.32,6.58-31.83-.5-52.79-32.43-105.8-64.63-145.88-113.1-30.97-37.46-39.31-69.74-11.63-115.79,18.97-31.55,37.44-63.24,62.81-94.54Z" style="fill: #fefefe; stroke-width: 0px;"/>
  <path d="M40.98,661.13c-8.33-104.75,13.21-200.83,64.41-292.97,21.91,28.21,43.65,53.85,67.37,77.74,22.99,23.16,41.29,23.52,64.37.3,64.23-64.61,117.55-135.93,137.76-230.86,23.79,20.89,49.24,35.82,68.75,58.05,12.58,14.33,15.95,32.43,7.04,48.25-38.81,68.96-37.19,145.9-46.35,220.82-3.62,29.59-10.36,58.62-24.45,85.17-14.67,27.67-32.66,34.21-56.82,15.37-74.26-57.92-150.2-44.58-227.51-9.51-17.66,8.01-34.65,17.49-54.58,27.64Z" style="fill: #fefefe; stroke-width: 0px;"/>
  <path d="M338.95,177.43c-.47,39.92-12.45,74.51-29.06,107.54-24.11,47.95-57.54,89.19-94.79,127.5-6.16,6.34-10.81,12.2-20.2,2.27-58.18-61.53-109.45-127.11-122.8-213.97-9.35-60.83,11.95-110.25,64.5-142.4,47.51-29.07,97.31-28.1,143.25,4.57,39.43,28.04,57.66,68.55,59.1,114.5Z" style="fill: #fefefe; stroke-width: 0px;"/>
  <path d="M927.37,613.31c-1.41,39.99-12.37,73.17-28.05,105.04-24.1,49-57.65,91.04-95.74,129.73-6.07,6.16-11.25,12.66-20.55,2.84-57.14-60.31-107.41-124.5-122.04-209.49-9.76-56.72,7.05-104.63,52.66-139.29,41.07-31.2,87.89-36.6,134.87-13.76,53.09,25.81,76.06,71.58,78.84,124.93Z" style="fill: #fefefe; stroke-width: 0px;"/>
  <path d="M205.89,83.77c49.28.6,89.77,41.38,89.51,90.17-.27,50.56-41.59,91.38-91.69,90.58-50.9-.81-90.63-42.07-89.29-92.73,1.3-49.5,41.96-88.62,91.48-88.02Z" style="fill: #010101; stroke-width: 0px;"/>
  <path d="M883.49,609.06c.13,49.1-42.76,92.5-91.04,92.11-48.63-.39-90.81-43.97-90.06-93.05.75-49.04,41.68-88.87,90.99-88.55,49.26.33,89.98,40.76,90.11,89.49Z" style="fill: #010101; stroke-width: 0px;"/>
  <path d="M153.72,172.68c.51-28.43,22.68-49.97,51.28-49.83,29.19.14,52.29,23.82,51.24,52.53-1.02,27.81-24.4,50.73-51.64,50.62-28.54-.12-51.4-24.08-50.88-53.31Z" style="fill: #fdfdfd; stroke-width: 0px;"/>
  <path d="M793.4,661.71c-28.48.29-50.91-21.35-51.44-49.61-.56-29.97,21.17-52.85,50.4-53.08,28.9-.22,52.02,22.92,52.02,52.07,0,27.51-22.98,50.33-50.97,50.61Z" style="fill: #fdfdfd; stroke-width: 0px;"/>
</svg>