<?xml version="1.0" encoding="UTF-8"?>
<svg id="Layer_1" data-name="Layer 1" xmlns="http://www.w3.org/2000/svg" viewBox="0 0 867.91 891.63">
  <path d="M0,669.73c1.71-85.51,38.46-150.62,114.08-192.22,11.06-6.09,15.11-11.66,13.86-24.68-18.44-191.27,136.71-342.88,303.84-358.35,66.05-6.11,127.48,6.84,185.51,36.57,17.47,8.95,17.86,4.55,17.58-11.15-1.09-60.7,42.93-110.7,103.7-118.96,55.12-7.49,110.87,29.78,125.6,85.2,7.73,29.1,2.6,57.64-7.42,85.71-17.73,49.64-43.56,95.5-65.8,143.03-5.1,10.9-6.08,20.85-3.07,32.56,49.47,192.17-85.4,388.33-282.61,412.01-22.2,2.67-44.38,4.53-66.39,1.36-10.92-1.58-15.21,1.56-20.3,10.76-36.28,65.56-90.71,105.6-165.63,117.42-114.17,18.01-224.67-58.32-247.63-171.76-3.17-15.65-4.65-31.36-5.31-47.51Z" style="stroke-width: 0px;"/>
  <path d="M460.49,834.92c-6.69-.67-15.5-1.21-24.17-2.58-4.61-.73-8.05-3.8-7.73-9.2.31-5.28,3.99-8.42,8.53-8.64,22.04-1.09,44.11-1.87,66.17-2.17,5.47-.07,9.47,3.69,9.15,9.85-.32,6.18-4.52,8.51-10.16,9-13.2,1.16-26.4,2.36-41.79,3.73Z" style="fill: #0e0e0e; stroke-width: 0px;"/>
  <path d="M780.81,674.85c-9.76-2.37-12.41-8.2-7.99-15.66,10.9-18.39,22.39-36.44,33.99-54.4,2.86-4.43,7.09-7.2,12.8-3.35,4.17,2.82,6.53,6.28,4.14,11.1-10.39,20.9-22.75,40.61-37.16,58.97-1.38,1.76-4.14,2.43-5.78,3.33Z" style="fill: #060606; stroke-width: 0px;"/>
  <path d="M415.41,26.12c7.25.14,13.69,1.9,14.44,9.61.77,7.91-5.55,9.63-12.43,10.83-17.28,3.02-34.42,6.9-51.63,10.33-6.98,1.39-14.92,2.66-17.45-6.05-2.67-9.17,4.44-11.48,11.87-12.98,18.44-3.73,36.8-7.8,55.2-11.74Z" style="fill: #050505; stroke-width: 0px;"/>
  <path d="M304.85,70.72c-1,6.57-5.14,9.23-9.67,11.74-15.36,8.54-30.74,17.05-45.9,25.95-6.47,3.8-13.47,6.87-18.18-.38-5.05-7.78,1.85-12.36,7.72-16.47,15.5-10.85,32.29-19.37,49.26-27.61,8.99-4.36,14.09-1.24,16.77,6.77Z" style="fill: #060606; stroke-width: 0px;"/>
  <path d="M499.51,25.36c13.69,2.29,31.04,5.22,48.41,8.06,7.5,1.23,14.13,4.01,11.63,13.04-2.11,7.6-8.98,8.06-15.6,6.18-16.44-4.67-33.23-6.77-50.24-7.94-7.06-.48-17.12.29-15.92-11.09,1.18-11.21,10.79-7.76,21.73-8.26Z" style="fill: #070707; stroke-width: 0px;"/>
  <path d="M119.66,250.73c-4.04,8.85-8.68,18.45-12.81,28.26-4.39,10.4-8.33,20.98-12.4,31.51-2.49,6.44-7.33,8.77-13.46,6.38-5.68-2.22-5.89-7.09-4.31-12.6,5.91-20.64,14.86-39.99,24.5-59.06,2.21-4.38,6.09-6.38,11.02-5.14,4.87,1.22,7.18,4.67,7.47,10.66Z" style="fill: #040404; stroke-width: 0px;"/>
  <path d="M144.71,202.88c-8.36-2.06-12.65-7.11-7.43-14.87,12.38-18.37,26.81-35.13,43.44-49.88,4.25-3.77,9.01-4.79,13.5-.43,3.73,3.62,3.74,8.86.95,12.14-14.69,17.29-29.89,34.14-45.07,51-1.1,1.22-3.42,1.34-5.4,2.04Z" style="fill: #050505; stroke-width: 0px;"/>
  <path d="M745.34,711.8c.57,6.61-2.79,9.7-6.14,12.48-14.51,12.04-29.19,23.89-43.78,35.84-5.5,4.51-11.86,6.27-16.84.67-5.79-6.51-.46-11.54,4.6-15.66,15.11-12.3,30.21-24.62,45.53-36.65,7.41-5.82,13.73-5.54,16.63,3.32Z" style="fill: #050505; stroke-width: 0px;"/>
  <path d="M638.36,786.16c-.72,6.95-4.08,9.4-8.55,11.02-18.99,6.88-38,13.7-56.89,20.85-6.73,2.55-11.83.34-14.06-5.47-2.51-6.54,1.72-10.43,8.05-12.48,19.22-6.22,38.6-11.97,56.89-20.82,8.53-4.13,12.78.52,14.56,6.91Z" style="fill: #050505; stroke-width: 0px;"/>
  <path d="M75.52,403.62c0,10.15.14,20.3-.05,30.44-.11,5.93-.99,11.79-8.77,12.28-7.76.49-10.31-5.19-10.08-11.04.83-20.91,2.25-41.81,3.91-62.67.42-5.21,3.09-10.2,9.57-9.7,7.26.56,9.19,5.97,8.87,12.21-.48,9.51-1.36,18.99-2.07,28.49-.46,0-.92,0-1.38,0Z" style="fill: #090909; stroke-width: 0px;"/>
  <path d="M867.74,403.22c-4.37,8.29,7.07,24.09-8.57,24.73-16.22.67-9.56-15.79-11.1-25.19-2.15-13.03-3.21-26.26-4.42-39.43-.59-6.44-4.14-14.73,6.57-16.44,10.04-1.6,11.12,6.39,12.12,13.17,2.12,14.32,3.63,28.73,5.4,43.14Z" style="fill: #060606; stroke-width: 0px;"/>
  <path d="M863.36,490.87c-2.44,19.14-7.99,39.2-13.74,59.19-1.61,5.6-5.42,8.29-11.46,7.01-6.39-1.35-7.99-6.08-6.85-11.44,4.3-20.34,8.88-40.62,13.66-60.85,1.24-5.23,4.38-9.29,10.73-8.28,7.47,1.19,8.26,6.64,7.66,14.37Z" style="fill: #050505; stroke-width: 0px;"/>
  <path d="M424.54,672.27c-.77,108.78-91.81,199.45-200.76,199.96-117.07.54-206.21-89.71-205.69-208.26.47-107.18,95.32-197.72,205.93-196.58,109.22,1.12,201.3,95.2,200.52,204.88Z" style="fill: #fefefe; stroke-width: 0px;"/>
  <path d="M460.96,112.86c27.23.68,47.8,13.58,64.8,32.69,40.61,45.67,57.79,101.84,69.87,159.96,7.03,33.82,6.42,33.49-28.27,30.76-75.45-5.95-150.91-7.02-226.19,2.4-12.43,1.55-19.43,2.34-16.24-15.21,10.3-56.61,25.58-111.22,58.6-159.1,18.8-27.27,42.19-49.26,77.43-51.5Z" style="fill: #fefefe; stroke-width: 0px;"/>
  <path d="M462.21,351.38c43.69,1.65,87.4,2.7,130.97,6.86,7.37.7,11.24,2.09,11.99,10.51,3.46,39.26,3.63,78.44-.22,117.69-.7,7.13-3.2,9.25-10.15,10.13-73.86,9.35-147.91,9.96-221.94,3.94-20.68-1.68-33.82-20.98-52.14-29.24-1.79-.81-2.48-5.54-2.54-8.47-.61-31.04-1.39-62.07,1.82-93.08.95-9.22,4.88-10.76,13.14-11.56,42.94-4.16,86.03-4.98,129.08-6.77Z" style="fill: #fefefe; stroke-width: 0px;"/>
  <path d="M752.21,351.86c-31.37-67.41-64.48-130.72-90.53-196.81-24.34-61.74,9.2-119.76,70.47-133.5,65.51-14.69,127.37,44.03,115.76,109.97-5.66,32.12-19.48,61.37-33.11,90.53-19.78,42.31-40.52,84.17-62.59,129.81Z" style="fill: #fefefe; stroke-width: 0px;"/>
  <path d="M387.59,520.99c73.02,3.46,142.4,1.97,214.4-6.2-12.35,73.99-28.54,144.86-80.93,200.85-19.88,21.24-45.49,30.95-75.84,24.58-9.96-2.09-10.67-6.45-8.73-14.41,18.23-74.75.66-141.36-48.9-204.83Z" style="fill: #fefefe; stroke-width: 0px;"/>
  <path d="M150.78,389.47c-4.83-108.69,139.3-268.53,241.02-266.01-39.67,42.92-61.62,93.51-75.28,148.01-4.77,19.01-8.54,38.35-11.26,57.75-1.46,10.39-5.02,15.05-15.77,16.64-48.3,7.12-95.53,18.18-138.69,43.61Z" style="fill: #fefefe; stroke-width: 0px;"/>
  <path d="M775.35,465.13c-10.52,120.64-108.9,241.67-247.24,270.22,15.26-16.88,29.04-31.79,39.28-49.43,27.74-47.84,43.38-99.79,51.15-154.08,2.13-14.9,6.68-20.33,22.3-22.86,46.25-7.5,91.83-18.51,134.52-43.85Z" style="fill: #fefefe; stroke-width: 0px;"/>
  <path d="M535.38,122.18c40.42,7.05,74.51,25.72,107.5,46.86,2.46,1.58,4.17,4.81,5.5,7.61,30.02,63.37,59.94,126.78,91.56,193.73-23.31-6.22-43.08-11.54-62.87-16.77-7.34-1.94-14.68-3.98-22.12-5.47-33.61-6.75-33.16-6.78-39.57-40.63-12.4-65.43-32.52-127.61-78.35-178.46-1.05-1.16-.87-3.42-1.65-6.88Z" style="fill: #fefefe; stroke-width: 0px;"/>
  <path d="M624.87,434.54c0-20.25.07-40.51-.05-60.76-.03-5.37-3.24-12.2,7.38-10.07,40.89,8.21,82.03,15.45,119.64,34.84,3.92,2.02,7.77,4.3,11.36,6.86,20.85,14.86,21.03,30.52-.75,44.56-39.79,25.66-85.9,32.25-131.05,41.42-8.37,1.7-7.02-4.1-6.67-9.39,1.03-15.8,1.72-31.62,2.55-47.43-.8,0-1.61-.02-2.41-.03Z" style="fill: #fefefe; stroke-width: 0px;"/>
  <path d="M300.45,462.26c-42.75-12.56-82.49-16.61-123.18-8.92-14.82,2.8-23.19-8.96-28.87-20.12-6.05-11.88,1.76-20.81,11.31-26.9,40.93-26.11,87.91-33.71,134.29-42.99,4.75-.95,6.6.91,6.56,6.09-.22,30.25-.11,60.49-.11,92.84Z" style="fill: #fefefe; stroke-width: 0px;"/>
  <path d="M775.97,388.77c-23.56-6.09-10.96-17.03-6.35-28.22,6.19,9.02,5.59,18.05,6.35,28.22Z" style="fill: #e2e2e2; stroke-width: 0px;"/>
  <path d="M77.64,669.7c0-22.83.46-45.67-.21-68.47-.3-10.1,2.91-16.28,11.83-21.28,40.81-22.87,81.41-46.13,121.84-69.68,7.37-4.3,12.72-4.89,20.58-.25,39.17,23.14,78.58,45.89,118.49,67.71,11.57,6.33,16.31,13.56,16.1,26.76-.68,43.74-.63,87.5-.02,131.24.17,12.23-3.54,19.73-14.52,25.79-39.29,21.7-78.21,44.1-116.93,66.8-9.21,5.4-16.34,5.88-25.89.24-39.18-23.17-78.75-45.69-118.53-67.83-9.55-5.31-13.35-11.58-12.97-22.56.8-22.8.24-45.64.24-68.47Z" style="stroke-width: 0px;"/>
  <path d="M702.38,116.53c.16-27.91,21.19-49.08,49.06-49.37,29.01-.3,51.06,22.2,50.81,51.84-.23,27-23.81,49.03-52.31,48.86-25.73-.15-47.71-23.88-47.56-51.33Z" style="fill: #020202; stroke-width: 0px;"/>
  <path d="M230.96,808.29c0-43.47.06-83.26-.07-123.06-.02-5.33.52-9.71,5.77-12.72,35.93-20.59,71.77-41.33,110.21-63.5,0,44.15-.06,85.05.08,125.95.02,5.01-1.71,8.34-5.99,10.77-35.59,20.2-71.14,40.45-109.99,62.56Z" style="fill: #fdfdfd; stroke-width: 0px;"/>
  <path d="M179.37,659.3q32.49,13,32.5,43.41c0,34.08,0,68.15,0,105.23-38.38-21.8-74.42-42.33-110.55-62.72-5.72-3.23-4.57-8.39-4.57-13.28-.04-39.91-.02-79.83-.02-119.89,31.99,10.43,33.09,11.93,33.11,44.37,0,4.44,0,8.87,0,13.31-.02,24.07,11.61,39.46,34.66,46.27,10.24,3.03,14.51-1.91,14.76-11.18.39-14.52.1-29.06.1-45.53Z" style="fill: #fefefe; stroke-width: 0px;"/>
  <path d="M339.5,591.35c-39.98,22.84-74.79,43.24-110.11,62.69-16.89,9.3-24.78-9.44-41.88-13.79,39.24-22.42,74.44-43.73,110.84-62.75,15.04-7.86,23.37,11.35,41.15,13.84Z" style="fill: #fdfdfd; stroke-width: 0px;"/>
  <path d="M252.23,544.7c-36.45,21.62-71.52,44.04-108.23,63.37-13.71,7.22-23.78-9.26-37.41-15.33,37.14-21.51,72.55-42.19,108.16-62.5,8.46-4.82,8.78-4.26,37.47,14.47Z" style="fill: #fdfdfd; stroke-width: 0px;"/>
  <path d="M159.1,621.69c36.47-21.59,71.18-41.94,105.63-62.69,7.46-4.5,12.7-2.87,18.63,4.22-36.2,20.91-72.21,41.48-107.92,62.55-6.5,3.84-10.44,1.56-16.34-4.07Z" style="fill: #f6f6f6; stroke-width: 0px;"/>
  <path d="M160.39,689.9c-9.74-6.31-16.45-38.57-11.12-45.96.84-1.16,3.22-2.4,4.28-2,3.54,1.34,6.8,3.48,6.82,7.96.05,12.92.02,25.85.02,39.99Z" style="fill: #d8d8d8; stroke-width: 0px;"/>
  <path d="M753.27,148.18c-17.91.42-31.25-12.35-31.69-30.34-.46-18.5,11.88-31.29,30.26-31.35,17.7-.06,30.3,11.66,31.01,28.84.71,17.23-12.99,32.45-29.58,32.85Z" style="fill: #fcfcfc; stroke-width: 0px;"/>
</svg>