<?xml version="1.0" encoding="UTF-8"?>
<svg id="Layer_1" data-name="Layer 1" xmlns="http://www.w3.org/2000/svg" viewBox="0 0 955.27 679.23">
  <path d="M476.44,678.79c-107.15,0-214.31,1.22-321.43-.4C74.56,677.18,1.56,602.84.84,522.4c-1.1-121.81-1.09-243.64-.1-365.45C1.39,75.81,77.92.51,159.08.33c212.39-.46,424.77-.42,637.16-.03,79.37.14,156.7,73.85,157.78,153.11,1.7,124.34,1.59,248.74.16,373.09-.87,75.54-75.09,150.51-150.57,151.73-109.03,1.78-218.11.45-327.17.45,0,.03,0,.07,0,.1Z" style="stroke-width: 0px;"/>
  <path d="M476.35,643.53c-98.22,0-196.43.06-294.65-.02-87.41-.06-144.62-57.11-144.8-144.79-.22-106.51-.12-213.01-.03-319.52.07-83.54,53.81-141.48,136.8-142.01,202.16-1.27,404.35-1.29,606.51-.01,84.18.53,137.65,56.4,138.23,140.72.74,107.78.62,215.57.04,323.35-.46,85.39-58.21,142.12-143.63,142.25-99.49.16-198.98.04-298.47.04Z" style="fill: #fefefe; stroke-width: 0px;"/>
  <path d="M348.64,324.94c0-37.63-.24-75.26.06-112.89.34-42.85,36.6-64.5,73.79-43.39,65.83,37.36,131.35,75.26,196.63,113.58,38.65,22.68,38.57,65.49-.31,88.34-65.25,38.35-130.84,76.13-196.68,113.46-35.99,20.41-72.91-1.16-73.39-42.38-.46-38.9-.1-77.81-.1-116.72Z" style="stroke-width: 0px;"/>
  <path d="M386.8,325.78c0-36.36-.17-72.73.07-109.09.13-19.27,4.53-21.64,21.39-11.92,62.29,35.9,124.55,71.84,186.74,107.91,19.3,11.19,19.47,15.85.92,26.63-62.17,36.09-124.41,72.05-186.71,107.91-18.23,10.49-22.27,8.22-22.36-12.35-.17-36.36-.05-72.72-.05-109.09Z" style="fill: #fefefe; stroke-width: 0px;"/>
</svg>