<svg width="20" height="20" viewBox="0 0 20 20" fill="none" xmlns="http://www.w3.org/2000/svg">
<path fill-rule="evenodd" clip-rule="evenodd" d="M6.29862 3.25C6.57306 3.25 6.82018 3.43463 6.92373 3.71703L9.39873 10.467C9.53938 10.8506 9.37353 11.2883 9.02829 11.4446C8.68305 11.6009 8.28916 11.4166 8.1485 11.033L7.57909 9.48002C7.52919 9.49309 7.47715 9.5 7.42366 9.5H5.01082L4.44873 11.033C4.30807 11.4166 3.91418 11.6009 3.56894 11.4446C3.2237 11.2883 3.05785 10.8506 3.1985 10.467L5.6735 3.71703C5.77705 3.43463 6.02417 3.25 6.29862 3.25ZM7.03641 8L6.29862 5.98782L5.56082 8H7.03641Z" fill="#4A4A4A"/>
<path d="M3.82366 12.5C3.45087 12.5 3.14866 12.8358 3.14866 13.25C3.14866 13.6642 3.45087 14 3.82366 14H14.1737C14.5464 14 14.8487 13.6642 14.8487 13.25C14.8487 12.8358 14.5464 12.5 14.1737 12.5H3.82366Z" fill="#4A4A4A"/>
<path d="M3.82366 15C3.45087 15 3.14866 15.3358 3.14866 15.75C3.14866 16.1642 3.45087 16.5 3.82366 16.5H10.1237C10.4965 16.5 10.7987 16.1642 10.7987 15.75C10.7987 15.3358 10.4965 15 10.1237 15H3.82366Z" fill="#4A4A4A"/>
<path fill-rule="evenodd" clip-rule="evenodd" d="M13.5585 5.94093C13.1481 5.66125 12.6653 5.5 12.1487 5.5C10.6575 5.5 9.44866 6.84315 9.44866 8.5C9.44866 10.1569 10.6575 11.5 12.1487 11.5C12.6653 11.5 13.1481 11.3387 13.5585 11.0591C13.6644 11.3191 13.9 11.5 14.1737 11.5C14.5464 11.5 14.8487 11.1642 14.8487 10.75V6.25C14.8487 5.83579 14.5464 5.5 14.1737 5.5C13.9 5.5 13.6644 5.6809 13.5585 5.94093ZM12.1487 10C12.8942 10 13.4987 9.32843 13.4987 8.5C13.4987 7.67157 12.8942 7 12.1487 7C11.4031 7 10.7987 7.67157 10.7987 8.5C10.7987 9.32843 11.4031 10 12.1487 10Z" fill="#4A4A4A"/>
</svg>
